<svg xmlns="http://www.w3.org/2000/svg" xmlns:xlink="http://www.w3.org/1999/xlink" width="353.232" height="32.688"><path fill="black" d="M16.13 8.52L16.13 25.66L13.30 25.66L4.39 11.62L4.30 11.62Q4.34 12.53 4.42 13.78Q4.49 15.02 4.49 16.32L4.49 16.32L4.49 25.66L2.30 25.66L2.30 8.52L5.14 8.52L13.99 22.49L14.09 22.49Q14.06 22.06 14.03 21.28Q13.99 20.50 13.96 19.61Q13.92 18.72 13.92 17.95L13.92 17.95L13.92 8.52L16.13 8.52ZM31.75 19.18L31.75 19.18Q31.75 22.39 30.11 24.14Q28.46 25.90 25.68 25.90L25.68 25.90Q23.95 25.90 22.61 25.12Q21.26 24.34 20.48 22.82Q19.70 21.31 19.70 19.18L19.70 19.18Q19.70 15.98 21.34 14.24Q22.97 12.50 25.75 12.50L25.75 12.50Q27.53 12.50 28.87 13.30Q30.22 14.09 30.98 15.56Q31.75 17.04 31.75 19.18ZM22.13 19.18L22.13 19.18Q22.13 21.41 22.99 22.69Q23.86 23.98 25.73 23.98L25.73 23.98Q27.60 23.98 28.46 22.69Q29.33 21.41 29.33 19.18L29.33 19.18Q29.33 16.94 28.46 15.71Q27.60 14.47 25.70 14.47L25.70 14.47Q23.83 14.47 22.98 15.71Q22.13 16.94 22.13 19.18ZM39.50 24L39.50 24Q40.01 24 40.51 23.90Q41.02 23.81 41.38 23.71L41.38 23.71L41.38 25.49Q40.99 25.66 40.33 25.78Q39.67 25.90 39.05 25.90L39.05 25.90Q37.99 25.90 37.13 25.55Q36.26 25.20 35.74 24.31Q35.21 23.42 35.21 21.86L35.21 21.86L35.21 14.54L33.41 14.54L33.41 13.46L35.28 12.58L36.14 9.84L37.56 9.84L37.56 12.74L41.28 12.74L41.28 14.54L37.56 14.54L37.56 21.82Q37.56 22.92 38.10 23.46Q38.64 24 39.50 24ZM55.25 19.18L55.25 19.18Q55.25 22.39 53.60 24.14Q51.96 25.90 49.18 25.90L49.18 25.90Q47.45 25.90 46.10 25.12Q44.76 24.34 43.98 22.82Q43.20 21.31 43.20 19.18L43.20 19.18Q43.20 15.98 44.83 14.24Q46.46 12.50 49.25 12.50L49.25 12.50Q51.02 12.50 52.37 13.30Q53.71 14.09 54.48 15.56Q55.25 17.04 55.25 19.18ZM45.62 19.18L45.62 19.18Q45.62 21.41 46.49 22.69Q47.35 23.98 49.22 23.98L49.22 23.98Q51.10 23.98 51.96 22.69Q52.82 21.41 52.82 19.18L52.82 19.18Q52.82 16.94 51.96 15.71Q51.10 14.47 49.20 14.47L49.20 14.47Q47.33 14.47 46.48 15.71Q45.62 16.94 45.62 19.18ZM74.81 21.05L74.81 21.05Q74.81 23.33 73.16 24.61Q71.52 25.90 68.66 25.90L68.66 25.90Q67.25 25.90 66.02 25.67Q64.80 25.44 63.94 25.06L63.94 25.06L63.94 22.78Q64.87 23.18 66.16 23.52Q67.44 23.86 68.78 23.86L68.78 23.86Q70.63 23.86 71.53 23.15Q72.43 22.44 72.43 21.24L72.43 21.24Q72.43 20.42 72.06 19.87Q71.69 19.32 70.84 18.84Q69.98 18.36 68.52 17.81L68.52 17.81Q67.49 17.42 66.68 16.97Q65.88 16.51 65.32 15.91Q64.75 15.31 64.45 14.53Q64.15 13.75 64.15 12.72L64.15 12.72Q64.15 11.33 64.85 10.34Q65.54 9.36 66.79 8.82Q68.04 8.28 69.67 8.28L69.67 8.28Q71.09 8.28 72.26 8.56Q73.44 8.83 74.47 9.29L74.47 9.29L73.70 11.28Q72.77 10.87 71.75 10.61Q70.73 10.34 69.62 10.34L69.62 10.34Q68.11 10.34 67.33 11.00Q66.55 11.66 66.55 12.72L66.55 12.72Q66.55 13.56 66.91 14.11Q67.27 14.66 68.08 15.11Q68.88 15.55 70.22 16.08L70.22 16.08Q71.69 16.63 72.72 17.28Q73.75 17.93 74.28 18.82Q74.81 19.70 74.81 21.05ZM82.87 12.53L82.87 12.53Q85.27 12.53 86.45 13.58Q87.62 14.64 87.62 16.90L87.62 16.90L87.62 25.66L85.92 25.66L85.49 23.83L85.39 23.83Q84.55 24.89 83.62 25.39Q82.68 25.90 81.05 25.90L81.05 25.90Q79.30 25.90 78.14 24.96Q76.99 24.02 76.99 22.03L76.99 22.03Q76.99 20.09 78.50 19.04Q80.02 18 83.11 17.90L83.11 17.90L85.32 17.83L85.32 17.11Q85.32 15.58 84.65 14.98Q83.98 14.38 82.75 14.38L82.75 14.38Q81.74 14.38 80.83 14.68Q79.92 14.98 79.13 15.36L79.13 15.36L78.38 13.66Q79.27 13.18 80.44 12.85Q81.60 12.53 82.87 12.53ZM85.30 19.39L83.47 19.46Q81.19 19.56 80.30 20.22Q79.42 20.88 79.42 22.06L79.42 22.06Q79.42 23.09 80.05 23.57Q80.69 24.05 81.67 24.05L81.67 24.05Q83.23 24.05 84.26 23.18Q85.30 22.32 85.30 20.54L85.30 20.54L85.30 19.39ZM97.94 12.50L97.94 12.50Q100.22 12.50 101.41 13.63Q102.60 14.76 102.60 17.26L102.60 17.26L102.60 25.66L100.27 25.66L100.27 17.52Q100.27 15.98 99.61 15.22Q98.95 14.45 97.51 14.45L97.51 14.45Q95.47 14.45 94.68 15.64Q93.89 16.82 93.89 19.06L93.89 19.06L93.89 25.66L91.56 25.66L91.56 12.74L93.43 12.74L93.77 14.50L93.89 14.50Q94.51 13.49 95.62 13.00Q96.72 12.50 97.94 12.50ZM115.03 22.06L115.03 22.06Q115.03 23.95 113.64 24.92Q112.25 25.90 109.82 25.90L109.82 25.90Q108.48 25.90 107.51 25.68Q106.54 25.46 105.74 25.08L105.74 25.08L105.74 23.02Q106.56 23.40 107.68 23.72Q108.79 24.05 109.87 24.05L109.87 24.05Q111.41 24.05 112.08 23.57Q112.75 23.09 112.75 22.27L112.75 22.27Q112.75 21.82 112.50 21.46Q112.25 21.10 111.58 20.71Q110.90 20.33 109.63 19.85L109.63 19.85Q108.41 19.37 107.53 18.88Q106.66 18.38 106.19 17.70Q105.72 17.02 105.72 15.96L105.72 15.96Q105.72 14.30 107.06 13.40Q108.41 12.50 110.59 12.50L110.59 12.50Q111.79 12.50 112.82 12.74Q113.86 12.98 114.79 13.42L114.79 13.42L114 15.22Q113.16 14.88 112.28 14.63Q111.41 14.38 110.47 14.38L110.47 14.38Q109.25 14.38 108.61 14.77Q107.98 15.17 107.98 15.84L107.98 15.84Q107.98 16.32 108.28 16.68Q108.58 17.04 109.28 17.38Q109.99 17.71 111.19 18.19L111.19 18.19Q112.42 18.65 113.27 19.13Q114.12 19.61 114.58 20.30Q115.03 21 115.03 22.06ZM130.46 16.01L137.35 25.66L134.57 25.66L128.74 17.62L127.01 19.08L127.01 25.66L124.63 25.66L124.63 8.52L127.01 8.52L127.01 16.87Q127.68 16.10 128.36 15.34Q129.05 14.57 129.74 13.80L129.74 13.80L134.38 8.52L137.11 8.52L130.46 16.01ZM144.31 12.53L144.31 12.53Q146.71 12.53 147.89 13.58Q149.06 14.64 149.06 16.90L149.06 16.90L149.06 25.66L147.36 25.66L146.93 23.83L146.83 23.83Q145.99 24.89 145.06 25.39Q144.12 25.90 142.49 25.90L142.49 25.90Q140.74 25.90 139.58 24.96Q138.43 24.02 138.43 22.03L138.43 22.03Q138.43 20.09 139.94 19.04Q141.46 18 144.55 17.90L144.55 17.90L146.76 17.83L146.76 17.11Q146.76 15.58 146.09 14.98Q145.42 14.38 144.19 14.38L144.19 14.38Q143.18 14.38 142.27 14.68Q141.36 14.98 140.57 15.36L140.57 15.36L139.82 13.66Q140.71 13.18 141.88 12.85Q143.04 12.53 144.31 12.53ZM146.74 19.39L144.91 19.46Q142.63 19.56 141.74 20.22Q140.86 20.88 140.86 22.06L140.86 22.06Q140.86 23.09 141.49 23.57Q142.13 24.05 143.11 24.05L143.11 24.05Q144.67 24.05 145.70 23.18Q146.74 22.32 146.74 20.54L146.74 20.54L146.74 19.39ZM156.19 25.68L151.01 12.74L153.53 12.74L156.26 20.09Q156.60 20.98 156.85 21.80Q157.10 22.63 157.22 23.40L157.22 23.40L157.32 23.40Q157.46 22.80 157.74 21.89Q158.02 20.98 158.33 20.06L158.33 20.06L160.92 12.74L163.44 12.74L157.90 27.41Q157.22 29.28 156.10 30.35Q154.97 31.42 153.10 31.42L153.10 31.42Q152.52 31.42 152.09 31.36Q151.66 31.30 151.34 31.22L151.34 31.22L151.34 29.35Q151.61 29.40 151.98 29.45Q152.35 29.50 152.76 29.50L152.76 29.50Q153.86 29.50 154.54 28.87Q155.21 28.25 155.59 27.22L155.59 27.22L156.19 25.68ZM170.40 12.53L170.40 12.53Q172.80 12.53 173.98 13.58Q175.15 14.64 175.15 16.90L175.15 16.90L175.15 25.66L173.45 25.66L173.02 23.83L172.92 23.83Q172.08 24.89 171.14 25.39Q170.21 25.90 168.58 25.90L168.58 25.90Q166.82 25.90 165.67 24.96Q164.52 24.02 164.52 22.03L164.52 22.03Q164.52 20.09 166.03 19.04Q167.54 18 170.64 17.90L170.64 17.90L172.85 17.83L172.85 17.11Q172.85 15.58 172.18 14.98Q171.50 14.38 170.28 14.38L170.28 14.38Q169.27 14.38 168.36 14.68Q167.45 14.98 166.66 15.36L166.66 15.36L165.91 13.66Q166.80 13.18 167.96 12.85Q169.13 12.53 170.40 12.53ZM172.82 19.39L171.00 19.46Q168.72 19.56 167.83 20.22Q166.94 20.88 166.94 22.06L166.94 22.06Q166.94 23.09 167.58 23.57Q168.22 24.05 169.20 24.05L169.20 24.05Q170.76 24.05 171.79 23.18Q172.82 22.32 172.82 20.54L172.82 20.54L172.82 19.39ZM181.42 7.42L181.42 12.50Q181.42 13.06 181.38 13.60Q181.34 14.14 181.30 14.52L181.30 14.52L181.44 14.52Q182.06 13.54 183.12 13.03Q184.18 12.53 185.42 12.53L185.42 12.53Q187.75 12.53 188.94 13.66Q190.13 14.78 190.13 17.26L190.13 17.26L190.13 25.66L187.80 25.66L187.80 17.52Q187.80 14.45 185.04 14.45L185.04 14.45Q182.98 14.45 182.20 15.65Q181.42 16.85 181.42 19.08L181.42 19.08L181.42 25.66L179.09 25.66L179.09 7.42L181.42 7.42ZM210.38 25.66L200.59 25.66L200.59 8.52L202.97 8.52L202.97 23.57L210.38 23.57L210.38 25.66ZM213.02 12.74L215.35 12.74L215.35 25.66L213.02 25.66L213.02 12.74ZM214.22 7.87L214.22 7.87Q214.75 7.87 215.15 8.21Q215.54 8.54 215.54 9.29L215.54 9.29Q215.54 10.01 215.15 10.36Q214.75 10.70 214.22 10.70L214.22 10.70Q213.65 10.70 213.25 10.36Q212.86 10.01 212.86 9.29L212.86 9.29Q212.86 8.54 213.25 8.21Q213.65 7.87 214.22 7.87ZM230.30 15.07L230.30 15.07Q232.03 15.07 233.32 15.67Q234.60 16.27 235.31 17.40Q236.02 18.53 236.02 20.14L236.02 20.14Q236.02 22.82 234.31 24.36Q232.61 25.90 229.54 25.90L229.54 25.90Q228.22 25.90 227.04 25.66Q225.86 25.42 225.07 24.96L225.07 24.96L225.07 22.80Q225.94 23.30 227.17 23.60Q228.41 23.90 229.54 23.90L229.54 23.90Q231.38 23.90 232.50 23.05Q233.62 22.20 233.62 20.38L233.62 20.38Q233.62 18.77 232.62 17.90Q231.62 17.04 229.46 17.04L229.46 17.04Q228.79 17.04 227.95 17.16Q227.11 17.28 226.58 17.40L226.58 17.40L225.46 16.70L226.10 8.52L234.82 8.52L234.82 10.63L228.12 10.63L227.74 15.34Q228.14 15.26 228.80 15.17Q229.46 15.07 230.30 15.07ZM249.94 17.06L249.94 17.06Q249.94 19.82 249.36 21.80Q248.78 23.78 247.52 24.84Q246.26 25.90 244.18 25.90L244.18 25.90Q241.25 25.90 239.86 23.56Q238.46 21.22 238.46 17.06L238.46 17.06Q238.46 14.28 239.03 12.31Q239.59 10.34 240.85 9.30Q242.11 8.26 244.18 8.26L244.18 8.26Q247.08 8.26 248.51 10.57Q249.94 12.89 249.94 17.06ZM240.82 17.06L240.82 17.06Q240.82 20.50 241.57 22.21Q242.33 23.93 244.18 23.93L244.18 23.93Q246 23.93 246.78 22.22Q247.56 20.52 247.56 17.06L247.56 17.06Q247.56 13.66 246.78 11.94Q246 10.22 244.18 10.22L244.18 10.22Q242.33 10.22 241.57 11.94Q240.82 13.66 240.82 17.06ZM263.66 17.06L263.66 17.06Q263.66 19.82 263.09 21.80Q262.51 23.78 261.25 24.84Q259.99 25.90 257.90 25.90L257.90 25.90Q254.98 25.90 253.58 23.56Q252.19 21.22 252.19 17.06L252.19 17.06Q252.19 14.28 252.76 12.31Q253.32 10.34 254.58 9.30Q255.84 8.26 257.90 8.26L257.90 8.26Q260.81 8.26 262.24 10.57Q263.66 12.89 263.66 17.06ZM254.54 17.06L254.54 17.06Q254.54 20.50 255.30 22.21Q256.06 23.93 257.90 23.93L257.90 23.93Q259.73 23.93 260.51 22.22Q261.29 20.52 261.29 17.06L261.29 17.06Q261.29 13.66 260.51 11.94Q259.73 10.22 257.90 10.22L257.90 10.22Q256.06 10.22 255.30 11.94Q254.54 13.66 254.54 17.06ZM279.43 12.50L279.43 12.50Q281.71 12.50 282.90 13.63Q284.09 14.76 284.09 17.26L284.09 17.26L284.09 25.66L281.76 25.66L281.76 17.52Q281.76 15.98 281.10 15.22Q280.44 14.45 279.00 14.45L279.00 14.45Q276.96 14.45 276.17 15.64Q275.38 16.82 275.38 19.06L275.38 19.06L275.38 25.66L273.05 25.66L273.05 12.74L274.92 12.74L275.26 14.50L275.38 14.50Q276.00 13.49 277.10 13.00Q278.21 12.50 279.43 12.50ZM299.33 19.18L299.33 19.18Q299.33 22.39 297.68 24.14Q296.04 25.90 293.26 25.90L293.26 25.90Q291.53 25.90 290.18 25.12Q288.84 24.34 288.06 22.82Q287.28 21.31 287.28 19.18L287.28 19.18Q287.28 15.98 288.91 14.24Q290.54 12.50 293.33 12.50L293.33 12.50Q295.10 12.50 296.45 13.30Q297.79 14.09 298.56 15.56Q299.33 17.04 299.33 19.18ZM289.70 19.18L289.70 19.18Q289.70 21.41 290.57 22.69Q291.43 23.98 293.30 23.98L293.30 23.98Q295.18 23.98 296.04 22.69Q296.90 21.41 296.90 19.18L296.90 19.18Q296.90 16.94 296.04 15.71Q295.18 14.47 293.28 14.47L293.28 14.47Q291.41 14.47 290.56 15.71Q289.70 16.94 289.70 19.18ZM308.81 12.50L308.81 12.50Q309.14 12.50 309.55 12.54Q309.96 12.58 310.25 12.65L310.25 12.65L309.98 14.81Q309.70 14.76 309.34 14.71Q308.98 14.66 308.66 14.66L308.66 14.66Q307.68 14.66 306.82 15.17Q305.95 15.67 305.44 16.61Q304.92 17.54 304.92 18.82L304.92 18.82L304.92 25.66L302.59 25.66L302.59 12.74L304.46 12.74L304.75 15.07L304.87 15.07Q305.47 14.04 306.47 13.27Q307.46 12.50 308.81 12.50ZM326.95 12.50L326.95 12.50Q329.16 12.50 330.24 13.63Q331.32 14.76 331.32 17.26L331.32 17.26L331.32 25.66L329.02 25.66L329.02 17.47Q329.02 14.45 326.50 14.45L326.50 14.45Q324.70 14.45 323.92 15.53Q323.14 16.61 323.14 18.65L323.14 18.65L323.14 25.66L320.83 25.66L320.83 17.47Q320.83 14.45 318.29 14.45L318.29 14.45Q316.42 14.45 315.70 15.64Q314.98 16.82 314.98 19.06L314.98 19.06L314.98 25.66L312.65 25.66L312.65 12.74L314.52 12.74L314.86 14.50L314.98 14.50Q315.58 13.49 316.61 13.00Q317.64 12.50 318.77 12.50L318.77 12.50Q320.26 12.50 321.25 13.03Q322.25 13.56 322.73 14.64L322.73 14.64L322.87 14.64Q323.52 13.54 324.62 13.02Q325.73 12.50 326.95 12.50ZM340.20 12.53L340.20 12.53Q342.60 12.53 343.78 13.58Q344.95 14.64 344.95 16.90L344.95 16.90L344.95 25.66L343.25 25.66L342.82 23.83L342.72 23.83Q341.88 24.89 340.94 25.39Q340.01 25.90 338.38 25.90L338.38 25.90Q336.62 25.90 335.47 24.96Q334.32 24.02 334.32 22.03L334.32 22.03Q334.32 20.09 335.83 19.04Q337.34 18 340.44 17.90L340.44 17.90L342.65 17.83L342.65 17.11Q342.65 15.58 341.98 14.98Q341.30 14.38 340.08 14.38L340.08 14.38Q339.07 14.38 338.16 14.68Q337.25 14.98 336.46 15.36L336.46 15.36L335.71 13.66Q336.60 13.18 337.76 12.85Q338.93 12.53 340.20 12.53ZM342.62 19.39L340.80 19.46Q338.52 19.56 337.63 20.22Q336.74 20.88 336.74 22.06L336.74 22.06Q336.74 23.09 337.38 23.57Q338.02 24.05 339 24.05L339 24.05Q340.56 24.05 341.59 23.18Q342.62 22.32 342.62 20.54L342.62 20.54L342.62 19.39ZM351.22 7.42L351.22 25.66L348.89 25.66L348.89 7.42L351.22 7.42Z"/></svg>