<svg xmlns="http://www.w3.org/2000/svg" xmlns:xlink="http://www.w3.org/1999/xlink" width="269.58000000000004" height="40.08"><path fill="black" d="M6.92 10.63L2.94 24.36L0.50 24.36L5.21 9.02L8.94 9.02L13.64 24.36L11.21 24.36L7.22 10.63L6.92 10.63ZM10.55 18.08L10.55 20.08L3.58 20.08L3.58 18.08L10.55 18.08ZM25.76 16.85L25.76 24.36L23.41 24.36L23.41 17.11Q23.41 16.26 23.18 15.64Q22.94 15.01 22.41 14.66Q21.88 14.32 20.95 14.32L20.95 14.32Q20.10 14.32 19.48 14.63Q18.85 14.94 18.46 15.47Q18.07 16.00 17.90 16.67L17.90 16.67L17.52 15.04L18.02 15.04Q18.23 14.29 18.70 13.69Q19.16 13.08 19.94 12.72Q20.72 12.36 21.88 12.36L21.88 12.36Q23.26 12.36 24.11 12.88Q24.96 13.40 25.36 14.40Q25.76 15.40 25.76 16.85L25.76 16.85ZM17.99 15.52L17.99 24.36L15.64 24.36L15.64 12.62L17.99 12.62L17.89 15.37L17.99 15.52ZM33.74 24.64L33.74 24.64Q30.94 24.64 29.54 23.30Q28.14 21.96 28.14 19.44L28.14 19.44L28.14 17.52Q28.14 15.04 29.44 13.67Q30.74 12.31 33.24 12.31L33.24 12.31Q34.93 12.31 36.06 12.93Q37.19 13.55 37.75 14.68Q38.32 15.80 38.32 17.35L38.32 17.35L38.32 17.80Q38.32 18.20 38.28 18.62Q38.24 19.04 38.18 19.43L38.18 19.43L36.02 19.43Q36.05 18.80 36.05 18.25Q36.06 17.70 36.06 17.24L36.06 17.24Q36.06 16.27 35.75 15.60Q35.44 14.93 34.81 14.57Q34.19 14.22 33.24 14.22L33.24 14.22Q31.84 14.22 31.15 15.02Q30.47 15.82 30.47 17.29L30.47 17.29L30.47 18.40L30.48 18.67L30.48 19.72Q30.48 20.38 30.68 20.92Q30.88 21.46 31.31 21.85Q31.75 22.24 32.45 22.45Q33.14 22.66 34.14 22.66L34.14 22.66Q35.27 22.66 36.26 22.37Q37.25 22.08 38.12 21.60L38.12 21.60L37.91 23.60Q37.12 24.07 36.07 24.35Q35.02 24.64 33.74 24.64ZM37.70 17.66L37.70 19.43L29.39 19.43L29.39 17.66L37.70 17.66ZM45.79 17.81L51.13 24.36L48.35 24.36L44.04 19.07L42.88 19.07L42.88 17.24L44.05 17.24L48.18 12.62L50.93 12.62L45.79 18.32L45.79 17.81ZM43.08 8.47L43.08 24.36L40.74 24.36L40.74 8.47L43.08 8.47ZM64.48 16.12L70.57 24.36L67.75 24.36L62.68 17.47L61.08 17.47L61.08 15.56L62.68 15.56L67.68 9.02L70.42 9.02L64.49 16.69L64.48 16.12ZM61.25 9.02L61.25 24.36L58.86 24.36L58.86 9.02L61.25 9.02ZM81.67 16.90L81.67 24.36L79.33 24.36L79.43 21.58L79.34 21.22L79.34 17.52L79.36 16.93Q79.36 15.58 78.67 14.94Q77.98 14.30 76.45 14.30L76.45 14.30Q75.22 14.30 74.16 14.65Q73.10 15 72.25 15.46L72.25 15.46L72.47 13.49Q72.95 13.21 73.60 12.95Q74.24 12.68 75.06 12.52Q75.88 12.35 76.85 12.35L76.85 12.35Q78.18 12.35 79.10 12.67Q80.03 12.98 80.59 13.58Q81.16 14.18 81.41 15.02Q81.67 15.86 81.67 16.90L81.67 16.90ZM75.36 24.62L75.36 24.62Q73.62 24.62 72.70 23.77Q71.77 22.91 71.77 21.32L71.77 21.32L71.77 20.96Q71.77 19.28 72.81 18.47Q73.85 17.66 76.08 17.35L76.08 17.35L79.61 16.85L79.74 18.55L76.36 19.03Q75.14 19.20 74.63 19.61Q74.11 20.03 74.11 20.83L74.11 20.83L74.11 21Q74.11 21.80 74.61 22.24Q75.11 22.67 76.13 22.67L76.13 22.67Q77.06 22.67 77.74 22.36Q78.41 22.04 78.83 21.52Q79.25 21 79.40 20.36L79.40 20.36L79.73 21.94L79.30 21.94Q79.10 22.66 78.66 23.27Q78.22 23.88 77.42 24.25Q76.62 24.62 75.36 24.62ZM94.58 16.85L94.58 24.36L92.23 24.36L92.23 17.11Q92.23 16.26 92.00 15.64Q91.76 15.01 91.23 14.66Q90.70 14.32 89.77 14.32L89.77 14.32Q88.92 14.32 88.30 14.63Q87.67 14.94 87.28 15.47Q86.89 16.00 86.72 16.67L86.72 16.67L86.34 15.04L86.84 15.04Q87.05 14.29 87.52 13.69Q87.98 13.08 88.76 12.72Q89.54 12.36 90.70 12.36L90.70 12.36Q92.08 12.36 92.93 12.88Q93.78 13.40 94.18 14.40Q94.58 15.40 94.58 16.85L94.58 16.85ZM86.81 15.52L86.81 24.36L84.46 24.36L84.46 12.62L86.81 12.62L86.71 15.37L86.81 15.52ZM107.54 16.85L107.54 24.36L105.19 24.36L105.19 17.11Q105.19 16.26 104.96 15.64Q104.72 15.01 104.19 14.66Q103.66 14.32 102.73 14.32L102.73 14.32Q101.88 14.32 101.26 14.63Q100.63 14.94 100.24 15.47Q99.85 16.00 99.68 16.67L99.68 16.67L99.30 15.04L99.80 15.04Q100.01 14.29 100.48 13.69Q100.94 13.08 101.72 12.72Q102.50 12.36 103.66 12.36L103.66 12.36Q105.04 12.36 105.89 12.88Q106.74 13.40 107.14 14.40Q107.54 15.40 107.54 16.85L107.54 16.85ZM99.77 15.52L99.77 24.36L97.42 24.36L97.42 12.62L99.77 12.62L99.67 15.37L99.77 15.52ZM119.62 16.90L119.62 24.36L117.28 24.36L117.37 21.58L117.29 21.22L117.29 17.52L117.30 16.93Q117.30 15.58 116.61 14.94Q115.92 14.30 114.40 14.30L114.40 14.30Q113.16 14.30 112.10 14.65Q111.05 15 110.20 15.46L110.20 15.46L110.41 13.49Q110.89 13.21 111.54 12.95Q112.19 12.68 113.00 12.52Q113.82 12.35 114.79 12.35L114.79 12.35Q116.12 12.35 117.05 12.67Q117.97 12.98 118.54 13.58Q119.10 14.18 119.36 15.02Q119.62 15.86 119.62 16.90L119.62 16.90ZM113.30 24.62L113.30 24.62Q111.56 24.62 110.64 23.77Q109.72 22.91 109.72 21.32L109.72 21.32L109.72 20.96Q109.72 19.28 110.75 18.47Q111.79 17.66 114.02 17.35L114.02 17.35L117.55 16.85L117.68 18.55L114.30 19.03Q113.09 19.20 112.57 19.61Q112.06 20.03 112.06 20.83L112.06 20.83L112.06 21Q112.06 21.80 112.55 22.24Q113.05 22.67 114.07 22.67L114.07 22.67Q115.01 22.67 115.68 22.36Q116.35 22.04 116.77 21.52Q117.19 21 117.35 20.36L117.35 20.36L117.67 21.94L117.24 21.94Q117.05 22.66 116.60 23.27Q116.16 23.88 115.36 24.25Q114.56 24.62 113.30 24.62ZM126.25 24.62L126.25 24.62Q124.15 24.62 123.05 23.30Q121.96 21.98 121.96 19.45L121.96 19.45L121.96 17.59Q121.96 15.04 123.07 13.70Q124.18 12.36 126.35 12.36L126.35 12.36Q127.39 12.36 128.14 12.69Q128.89 13.02 129.37 13.62Q129.84 14.22 130.04 15.04L130.04 15.04L130.82 15.04L130.16 17.21Q130.13 16.25 129.74 15.59Q129.36 14.94 128.69 14.60Q128.02 14.27 127.12 14.27L127.12 14.27Q125.76 14.27 125.04 15.05Q124.32 15.83 124.32 17.36L124.32 17.36L124.32 19.61Q124.32 21.11 125.03 21.89Q125.75 22.67 127.12 22.67L127.12 22.67Q127.94 22.67 128.57 22.36Q129.20 22.04 129.62 21.50Q130.04 20.96 130.20 20.29L130.20 20.29L130.75 21.95L130.07 21.95Q129.88 22.68 129.43 23.29Q128.98 23.90 128.21 24.26Q127.44 24.62 126.25 24.62ZM132.46 8.47L132.46 24.36L130.10 24.36L130.20 21.61L130.16 20.87L130.16 16.00L130.18 15.54L130.12 12.22L130.12 8.47L132.46 8.47ZM144.67 16.90L144.67 24.36L142.33 24.36L142.43 21.58L142.34 21.22L142.34 17.52L142.36 16.93Q142.36 15.58 141.67 14.94Q140.98 14.30 139.45 14.30L139.45 14.30Q138.22 14.30 137.16 14.65Q136.10 15 135.25 15.46L135.25 15.46L135.47 13.49Q135.95 13.21 136.60 12.95Q137.24 12.68 138.06 12.52Q138.88 12.35 139.85 12.35L139.85 12.35Q141.18 12.35 142.10 12.67Q143.03 12.98 143.59 13.58Q144.16 14.18 144.41 15.02Q144.67 15.86 144.67 16.90L144.67 16.90ZM138.36 24.62L138.36 24.62Q136.62 24.62 135.70 23.77Q134.77 22.91 134.77 21.32L134.77 21.32L134.77 20.96Q134.77 19.28 135.81 18.47Q136.85 17.66 139.08 17.35L139.08 17.35L142.61 16.85L142.74 18.55L139.36 19.03Q138.14 19.20 137.63 19.61Q137.11 20.03 137.11 20.83L137.11 20.83L137.11 21Q137.11 21.80 137.61 22.24Q138.11 22.67 139.13 22.67L139.13 22.67Q140.06 22.67 140.74 22.36Q141.41 22.04 141.83 21.52Q142.25 21 142.40 20.36L142.40 20.36L142.73 21.94L142.30 21.94Q142.10 22.66 141.66 23.27Q141.22 23.88 140.42 24.25Q139.62 24.62 138.36 24.62ZM157.73 24.64L157.73 24.64Q156.22 24.64 155.11 24.32Q154.00 24 153.37 23.68L153.37 23.68L153.13 21.38Q153.66 21.67 154.34 21.93Q155.02 22.19 155.81 22.35Q156.61 22.51 157.51 22.51L157.51 22.51Q158.75 22.51 159.50 22.18Q160.26 21.85 160.60 21.22Q160.94 20.59 160.94 19.70L160.94 19.70L160.94 19.04Q160.94 17.81 160.33 17.12Q159.72 16.44 158.40 16.44L158.40 16.44Q157.32 16.44 156.57 16.90Q155.82 17.36 155.32 18.14L155.32 18.14L153.20 17.78L153.20 9.02L162.88 9.02L162.88 11.06L155.53 11.06L155.53 14.41L155.50 16.43L155.59 16.43Q156.05 15.58 156.93 15.02Q157.81 14.46 159.24 14.46L159.24 14.46Q161.32 14.46 162.33 15.66Q163.34 16.86 163.34 18.97L163.34 18.97L163.34 19.73Q163.34 21.23 162.76 22.33Q162.17 23.44 160.93 24.04Q159.68 24.64 157.73 24.64ZM171.26 24.67L171.26 24.67Q168.44 24.67 167.00 23.11Q165.56 21.54 165.56 18.58L165.56 18.58L165.56 14.81Q165.56 11.84 167.00 10.28Q168.43 8.71 171.26 8.71L171.26 8.71Q174.10 8.71 175.54 10.28Q176.98 11.84 176.98 14.81L176.98 14.81L176.98 18.58Q176.98 21.54 175.54 23.11Q174.10 24.67 171.26 24.67ZM171.26 22.67L171.26 22.67Q172.93 22.67 173.73 21.64Q174.53 20.62 174.53 18.68L174.53 18.68L174.53 14.71Q174.53 12.77 173.73 11.74Q172.93 10.72 171.26 10.72L171.26 10.72Q169.60 10.72 168.80 11.74Q168.01 12.77 168.01 14.71L168.01 14.71L168.01 18.68Q168.01 20.62 168.81 21.64Q169.61 22.67 171.26 22.67ZM185.08 24.67L185.08 24.67Q182.26 24.67 180.82 23.11Q179.38 21.54 179.38 18.58L179.38 18.58L179.38 14.81Q179.38 11.84 180.81 10.28Q182.24 8.71 185.08 8.71L185.08 8.71Q187.91 8.71 189.35 10.28Q190.79 11.84 190.79 14.81L190.79 14.81L190.79 18.58Q190.79 21.54 189.35 23.11Q187.91 24.67 185.08 24.67ZM185.08 22.67L185.08 22.67Q186.74 22.67 187.54 21.64Q188.34 20.62 188.34 18.68L188.34 18.68L188.34 14.71Q188.34 12.77 187.54 11.74Q186.74 10.72 185.08 10.72L185.08 10.72Q183.41 10.72 182.62 11.74Q181.82 12.77 181.82 14.71L181.82 14.71L181.82 18.68Q181.82 20.62 182.62 21.64Q183.42 22.67 185.08 22.67ZM209.36 16.85L209.36 24.36L207.01 24.36L207.01 17.11Q207.01 16.26 206.78 15.64Q206.54 15.01 206.01 14.66Q205.48 14.32 204.55 14.32L204.55 14.32Q203.70 14.32 203.08 14.63Q202.45 14.94 202.06 15.47Q201.67 16.00 201.50 16.67L201.50 16.67L201.12 15.04L201.62 15.04Q201.83 14.29 202.30 13.69Q202.76 13.08 203.54 12.72Q204.32 12.36 205.48 12.36L205.48 12.36Q206.86 12.36 207.71 12.88Q208.56 13.40 208.96 14.40Q209.36 15.40 209.36 16.85L209.36 16.85ZM201.59 15.52L201.59 24.36L199.24 24.36L199.24 12.62L201.59 12.62L201.49 15.37L201.59 15.52ZM217.02 24.66L217.02 24.66Q214.43 24.66 213.08 23.28Q211.74 21.90 211.74 19.31L211.74 19.31L211.74 17.64Q211.74 15.06 213.08 13.69Q214.43 12.31 217.02 12.31L217.02 12.31Q219.61 12.31 220.95 13.69Q222.29 15.06 222.29 17.64L222.29 17.64L222.29 19.31Q222.29 21.90 220.95 23.28Q219.61 24.66 217.02 24.66ZM217.02 22.75L217.02 22.75Q218.45 22.75 219.19 21.90Q219.94 21.05 219.94 19.45L219.94 19.45L219.94 17.50Q219.94 15.91 219.19 15.07Q218.45 14.22 217.02 14.22L217.02 14.22Q215.59 14.22 214.85 15.07Q214.10 15.91 214.10 17.50L214.10 17.50L214.10 19.45Q214.10 21.05 214.85 21.90Q215.59 22.75 217.02 22.75ZM227.06 17.27L227.06 17.27L226.56 15.43L227.14 15.43Q227.51 14.04 228.38 13.24Q229.26 12.44 230.77 12.44L230.77 12.44Q231.13 12.44 231.41 12.50Q231.70 12.55 231.92 12.62L231.92 12.62L232.07 14.92Q231.78 14.82 231.42 14.77Q231.06 14.71 230.64 14.71L230.64 14.71Q229.36 14.71 228.42 15.37Q227.48 16.03 227.06 17.27ZM227.16 16.21L227.16 24.36L224.81 24.36L224.81 12.62L227.10 12.62L226.99 16.04L227.16 16.21ZM250.79 16.79L250.79 24.36L248.44 24.36L248.44 17.05Q248.44 16.22 248.23 15.61Q248.02 14.99 247.53 14.65Q247.04 14.32 246.22 14.32L246.22 14.32Q245.42 14.32 244.85 14.63Q244.27 14.94 243.92 15.47Q243.56 16.00 243.41 16.67L243.41 16.67L243.10 15.04L243.37 15.04Q243.59 14.33 244.03 13.72Q244.48 13.10 245.23 12.73Q245.99 12.36 247.14 12.36L247.14 12.36Q248.44 12.36 249.24 12.87Q250.04 13.38 250.42 14.37Q250.79 15.36 250.79 16.79L250.79 16.79ZM236.21 15.52L236.21 24.36L233.86 24.36L233.86 12.62L236.21 12.62L236.11 15.37L236.21 15.52ZM243.49 16.73L243.49 24.36L241.15 24.36L241.15 17.05Q241.15 16.22 240.94 15.61Q240.73 14.99 240.25 14.65Q239.76 14.32 238.93 14.32L238.93 14.32Q238.14 14.32 237.56 14.63Q236.99 14.94 236.63 15.47Q236.28 16.00 236.12 16.67L236.12 16.67L235.74 15.04L236.24 15.04Q236.44 14.29 236.87 13.69Q237.31 13.08 238.04 12.72Q238.78 12.36 239.84 12.36L239.84 12.36Q241.48 12.36 242.32 13.20Q243.16 14.04 243.37 15.65L243.37 15.65Q243.43 15.88 243.46 16.16Q243.49 16.45 243.49 16.73L243.49 16.73ZM262.86 16.90L262.86 24.36L260.52 24.36L260.62 21.58L260.53 21.22L260.53 17.52L260.54 16.93Q260.54 15.58 259.85 14.94Q259.16 14.30 257.64 14.30L257.64 14.30Q256.40 14.30 255.35 14.65Q254.29 15 253.44 15.46L253.44 15.46L253.66 13.49Q254.14 13.21 254.78 12.95Q255.43 12.68 256.25 12.52Q257.06 12.35 258.04 12.35L258.04 12.35Q259.37 12.35 260.29 12.67Q261.22 12.98 261.78 13.58Q262.34 14.18 262.60 15.02Q262.86 15.86 262.86 16.90L262.86 16.90ZM256.55 24.62L256.55 24.62Q254.81 24.62 253.88 23.77Q252.96 22.91 252.96 21.32L252.96 21.32L252.96 20.96Q252.96 19.28 254.00 18.47Q255.04 17.66 257.27 17.35L257.27 17.35L260.80 16.85L260.93 18.55L257.54 19.03Q256.33 19.20 255.82 19.61Q255.30 20.03 255.30 20.83L255.30 20.83L255.30 21Q255.30 21.80 255.80 22.24Q256.30 22.67 257.32 22.67L257.32 22.67Q258.25 22.67 258.92 22.36Q259.60 22.04 260.02 21.52Q260.44 21 260.59 20.36L260.59 20.36L260.92 21.94L260.48 21.94Q260.29 22.66 259.85 23.27Q259.40 23.88 258.61 24.25Q257.81 24.62 256.55 24.62ZM268.04 8.47L268.04 24.36L265.69 24.36L265.69 8.47L268.04 8.47Z"/></svg>