<svg xmlns="http://www.w3.org/2000/svg" xmlns:xlink="http://www.w3.org/1999/xlink" width="266.112" height="40.08"><path fill="black" d="M6.82 10.37L2.60 24.36L0.59 24.36L5.39 9.02L8.53 9.02L13.34 24.36L11.33 24.36L7.12 10.37L6.82 10.37ZM10.45 18.18L10.45 19.84L3.47 19.84L3.47 18.18L10.45 18.18ZM25.30 16.86L25.30 24.36L23.35 24.36L23.35 17.08Q23.35 16.13 23.09 15.44Q22.84 14.76 22.25 14.38Q21.67 14.00 20.66 14.00L20.66 14.00Q19.74 14.00 19.06 14.35Q18.38 14.70 17.96 15.29Q17.54 15.89 17.38 16.64L17.38 16.64L17.03 15.26L17.45 15.26Q17.64 14.47 18.12 13.82Q18.60 13.16 19.41 12.77Q20.22 12.38 21.40 12.38L21.40 12.38Q22.79 12.38 23.65 12.91Q24.50 13.44 24.90 14.43Q25.30 15.42 25.30 16.86L25.30 16.86ZM17.46 15.56L17.46 24.36L15.52 24.36L15.52 12.65L17.46 12.65L17.38 15.46L17.46 15.56ZM33.23 24.62L33.23 24.62Q30.55 24.62 29.20 23.32Q27.84 22.01 27.84 19.57L27.84 19.57L27.84 17.48Q27.84 15.01 29.10 13.67Q30.36 12.34 32.78 12.34L32.78 12.34Q34.42 12.34 35.51 12.94Q36.60 13.55 37.15 14.66Q37.70 15.78 37.70 17.33L37.70 17.33L37.70 17.76Q37.70 18.14 37.67 18.53Q37.64 18.91 37.60 19.28L37.60 19.28L35.81 19.28Q35.83 18.71 35.84 18.19Q35.84 17.68 35.84 17.24L35.84 17.24Q35.84 16.18 35.50 15.44Q35.16 14.70 34.48 14.31Q33.80 13.92 32.78 13.92L32.78 13.92Q31.27 13.92 30.52 14.80Q29.76 15.67 29.76 17.30L29.76 17.30L29.76 18.42L29.77 18.66L29.77 19.78Q29.77 20.51 29.99 21.10Q30.20 21.68 30.67 22.11Q31.13 22.54 31.84 22.76Q32.56 22.98 33.54 22.98L33.54 22.98Q34.68 22.98 35.66 22.68Q36.65 22.38 37.51 21.86L37.51 21.86L37.33 23.54Q36.55 24.04 35.52 24.33Q34.49 24.62 33.23 24.62ZM37.19 17.82L37.19 19.28L28.86 19.28L28.86 17.82L37.19 17.82ZM44.70 17.83L50.23 24.36L47.90 24.36L43.27 18.90L42.04 18.90L42.04 17.39L43.27 17.39L47.71 12.65L50.02 12.65L44.70 18.30L44.70 17.83ZM42.23 8.46L42.23 24.36L40.30 24.36L40.30 8.46L42.23 8.46ZM63.23 16.18L69.47 24.36L67.12 24.36L61.74 17.32L59.99 17.32L59.99 15.73L61.74 15.73L67.04 9.02L69.31 9.02L63.24 16.67L63.23 16.18ZM60.14 9.02L60.14 24.36L58.16 24.36L58.16 9.02L60.14 9.02ZM80.41 16.78L80.41 24.36L78.48 24.36L78.56 21.52L78.49 21.22L78.49 17.48L78.50 16.80Q78.50 15.37 77.78 14.69Q77.05 14.00 75.48 14.00L75.48 14.00Q74.22 14.00 73.17 14.36Q72.12 14.72 71.30 15.20L71.30 15.20L71.48 13.55Q71.94 13.27 72.57 13.00Q73.20 12.73 74.01 12.55Q74.82 12.37 75.79 12.37L75.79 12.37Q77.05 12.37 77.93 12.68Q78.82 12.98 79.36 13.56Q79.91 14.14 80.16 14.95Q80.41 15.77 80.41 16.78L80.41 16.78ZM74.45 24.61L74.45 24.61Q72.71 24.61 71.78 23.77Q70.85 22.92 70.85 21.35L70.85 21.35L70.85 21Q70.85 19.38 71.85 18.58Q72.85 17.78 75.04 17.47L75.04 17.47L78.74 16.94L78.85 18.36L75.28 18.88Q73.93 19.07 73.36 19.53Q72.78 19.99 72.78 20.89L72.78 20.89L72.78 21.08Q72.78 22.01 73.35 22.50Q73.92 22.99 75.06 22.99L75.06 22.99Q76.07 22.99 76.79 22.64Q77.51 22.30 77.95 21.71Q78.40 21.12 78.55 20.40L78.55 20.40L78.85 21.72L78.48 21.72Q78.31 22.49 77.85 23.15Q77.39 23.81 76.56 24.21Q75.73 24.61 74.45 24.61ZM93.17 16.86L93.17 24.36L91.22 24.36L91.22 17.08Q91.22 16.13 90.97 15.44Q90.71 14.76 90.13 14.38Q89.54 14.00 88.54 14.00L88.54 14.00Q87.61 14.00 86.93 14.35Q86.26 14.70 85.84 15.29Q85.42 15.89 85.25 16.64L85.25 16.64L84.90 15.26L85.32 15.26Q85.51 14.47 85.99 13.82Q86.47 13.16 87.28 12.77Q88.09 12.38 89.27 12.38L89.27 12.38Q90.66 12.38 91.52 12.91Q92.38 13.44 92.77 14.43Q93.17 15.42 93.17 16.86L93.17 16.86ZM85.33 15.56L85.33 24.36L83.39 24.36L83.39 12.65L85.33 12.65L85.25 15.46L85.33 15.56ZM105.96 16.86L105.96 24.36L104.02 24.36L104.02 17.08Q104.02 16.13 103.76 15.44Q103.50 14.76 102.92 14.38Q102.34 14.00 101.33 14.00L101.33 14.00Q100.40 14.00 99.73 14.35Q99.05 14.70 98.63 15.29Q98.21 15.89 98.04 16.64L98.04 16.64L97.69 15.26L98.11 15.26Q98.30 14.47 98.78 13.82Q99.26 13.16 100.07 12.77Q100.88 12.38 102.06 12.38L102.06 12.38Q103.45 12.38 104.31 12.91Q105.17 13.44 105.56 14.43Q105.96 15.42 105.96 16.86L105.96 16.86ZM98.12 15.56L98.12 24.36L96.18 24.36L96.18 12.65L98.12 12.65L98.04 15.46L98.12 15.56ZM117.85 16.78L117.85 24.36L115.92 24.36L116.00 21.52L115.93 21.22L115.93 17.48L115.94 16.80Q115.94 15.37 115.22 14.69Q114.49 14.00 112.92 14.00L112.92 14.00Q111.66 14.00 110.61 14.36Q109.56 14.72 108.74 15.20L108.74 15.20L108.92 13.55Q109.38 13.27 110.01 13.00Q110.64 12.73 111.45 12.55Q112.26 12.37 113.23 12.37L113.23 12.37Q114.49 12.37 115.37 12.68Q116.26 12.98 116.80 13.56Q117.35 14.14 117.60 14.95Q117.85 15.77 117.85 16.78L117.85 16.78ZM111.89 24.61L111.89 24.61Q110.15 24.61 109.22 23.77Q108.29 22.92 108.29 21.35L108.29 21.35L108.29 21Q108.29 19.38 109.29 18.58Q110.29 17.78 112.48 17.47L112.48 17.47L116.18 16.94L116.29 18.36L112.72 18.88Q111.37 19.07 110.80 19.53Q110.22 19.99 110.22 20.89L110.22 20.89L110.22 21.08Q110.22 22.01 110.79 22.50Q111.36 22.99 112.50 22.99L112.50 22.99Q113.51 22.99 114.23 22.64Q114.95 22.30 115.39 21.71Q115.84 21.12 115.99 20.40L115.99 20.40L116.29 21.72L115.92 21.72Q115.75 22.49 115.29 23.15Q114.83 23.81 114 24.21Q113.17 24.61 111.89 24.61ZM124.69 24.61L124.69 24.61Q122.58 24.61 121.48 23.30Q120.37 22.00 120.37 19.49L120.37 19.49L120.37 17.56Q120.37 15.04 121.49 13.71Q122.60 12.38 124.78 12.38L124.78 12.38Q125.86 12.38 126.65 12.75Q127.44 13.12 127.93 13.78Q128.42 14.44 128.59 15.34L128.59 15.34L129.23 15.34L128.65 17.12Q128.62 16.09 128.19 15.39Q127.76 14.69 127.04 14.33Q126.31 13.97 125.38 13.97L125.38 13.97Q123.89 13.97 123.10 14.83Q122.32 15.70 122.32 17.38L122.32 17.38L122.32 19.61Q122.32 21.26 123.10 22.13Q123.89 22.99 125.38 22.99L125.38 22.99Q126.26 22.99 126.95 22.65Q127.63 22.31 128.08 21.70Q128.53 21.10 128.70 20.33L128.70 20.33L129.18 21.72L128.60 21.72Q128.44 22.51 127.96 23.17Q127.49 23.83 126.69 24.22Q125.89 24.61 124.69 24.61ZM130.55 8.46L130.55 24.36L128.60 24.36L128.69 21.53L128.65 20.90L128.65 16.01L128.66 15.60L128.62 12.28L128.62 8.46L130.55 8.46ZM142.60 16.78L142.60 24.36L140.66 24.36L140.75 21.52L140.68 21.22L140.68 17.48L140.69 16.80Q140.69 15.37 139.96 14.69Q139.24 14.00 137.66 14.00L137.66 14.00Q136.40 14.00 135.35 14.36Q134.30 14.72 133.49 15.20L133.49 15.20L133.67 13.55Q134.12 13.27 134.75 13.00Q135.38 12.73 136.19 12.55Q137.00 12.37 137.98 12.37L137.98 12.37Q139.24 12.37 140.12 12.68Q141 12.98 141.55 13.56Q142.09 14.14 142.34 14.95Q142.60 15.77 142.60 16.78L142.60 16.78ZM136.63 24.61L136.63 24.61Q134.89 24.61 133.96 23.77Q133.03 22.92 133.03 21.35L133.03 21.35L133.03 21Q133.03 19.38 134.03 18.58Q135.04 17.78 137.22 17.47L137.22 17.47L140.93 16.94L141.04 18.36L137.46 18.88Q136.12 19.07 135.54 19.53Q134.96 19.99 134.96 20.89L134.96 20.89L134.96 21.08Q134.96 22.01 135.53 22.50Q136.10 22.99 137.24 22.99L137.24 22.99Q138.25 22.99 138.97 22.64Q139.69 22.30 140.14 21.71Q140.58 21.12 140.74 20.40L140.74 20.40L141.04 21.72L140.66 21.72Q140.50 22.49 140.03 23.15Q139.57 23.81 138.74 24.21Q137.92 24.61 136.63 24.61ZM159.88 9.02L159.88 24.36L157.98 24.36L157.98 13.81L158.04 10.42L157.72 10.42L152.41 19.55L152.41 20.46L151.64 19.72L161.90 19.72L161.90 21.40L150.43 21.40L150.43 19.40L156.53 9.02L159.88 9.02ZM169.08 24.65L169.08 24.65Q166.34 24.65 164.96 23.11Q163.57 21.58 163.57 18.68L163.57 18.68L163.57 14.70Q163.57 11.81 164.95 10.27Q166.33 8.74 169.08 8.74L169.08 8.74Q171.82 8.74 173.20 10.27Q174.59 11.81 174.59 14.70L174.59 14.70L174.59 18.68Q174.59 21.58 173.20 23.11Q171.82 24.65 169.08 24.65ZM169.08 22.98L169.08 22.98Q170.86 22.98 171.71 21.89Q172.57 20.81 172.57 18.77L172.57 18.77L172.57 14.63Q172.57 12.58 171.71 11.49Q170.86 10.40 169.08 10.40L169.08 10.40Q167.30 10.40 166.45 11.49Q165.59 12.58 165.59 14.63L165.59 14.63L165.59 18.77Q165.59 20.81 166.45 21.89Q167.30 22.98 169.08 22.98ZM182.66 24.65L182.66 24.65Q179.93 24.65 178.54 23.11Q177.16 21.58 177.16 18.68L177.16 18.68L177.16 14.70Q177.16 11.81 178.54 10.27Q179.92 8.74 182.66 8.74L182.66 8.74Q185.40 8.74 186.79 10.27Q188.17 11.81 188.17 14.70L188.17 14.70L188.17 18.68Q188.17 21.58 186.79 23.11Q185.40 24.65 182.66 24.65ZM182.66 22.98L182.66 22.98Q184.44 22.98 185.30 21.89Q186.16 20.81 186.16 18.77L186.16 18.77L186.16 14.63Q186.16 12.58 185.30 11.49Q184.44 10.40 182.66 10.40L182.66 10.40Q180.89 10.40 180.03 11.49Q179.17 12.58 179.17 14.63L179.17 14.63L179.17 18.77Q179.17 20.81 180.03 21.89Q180.89 22.98 182.66 22.98ZM206.59 16.86L206.59 24.36L204.65 24.36L204.65 17.08Q204.65 16.13 204.39 15.44Q204.13 14.76 203.55 14.38Q202.97 14.00 201.96 14.00L201.96 14.00Q201.04 14.00 200.36 14.35Q199.68 14.70 199.26 15.29Q198.84 15.89 198.67 16.64L198.67 16.64L198.32 15.26L198.74 15.26Q198.94 14.47 199.42 13.82Q199.90 13.16 200.71 12.77Q201.52 12.38 202.69 12.38L202.69 12.38Q204.08 12.38 204.94 12.91Q205.80 13.44 206.20 14.43Q206.59 15.42 206.59 16.86L206.59 16.86ZM198.76 15.56L198.76 24.36L196.81 24.36L196.81 12.65L198.76 12.65L198.67 15.46L198.76 15.56ZM214.26 24.66L214.26 24.66Q211.74 24.66 210.44 23.30Q209.14 21.94 209.14 19.38L209.14 19.38L209.14 17.59Q209.14 15.05 210.44 13.69Q211.75 12.34 214.26 12.34L214.26 12.34Q216.78 12.34 218.08 13.69Q219.38 15.05 219.38 17.59L219.38 17.59L219.38 19.38Q219.38 21.94 218.08 23.30Q216.78 24.66 214.26 24.66ZM214.26 23.08L214.26 23.08Q215.82 23.08 216.63 22.15Q217.44 21.23 217.44 19.49L217.44 19.49L217.44 17.48Q217.44 15.76 216.63 14.84Q215.82 13.92 214.26 13.92L214.26 13.92Q212.71 13.92 211.90 14.84Q211.08 15.76 211.08 17.48L211.08 17.48L211.08 19.49Q211.08 21.23 211.90 22.15Q212.71 23.08 214.26 23.08ZM223.93 17.20L223.93 17.20L223.49 15.70L223.97 15.67Q224.35 14.18 225.29 13.33Q226.22 12.47 227.77 12.47L227.77 12.47Q228.16 12.47 228.46 12.53Q228.77 12.59 229.01 12.67L229.01 12.67L229.13 14.56Q228.83 14.46 228.46 14.40Q228.10 14.34 227.65 14.34L227.65 14.34Q226.33 14.34 225.35 15.07Q224.38 15.80 223.93 17.20ZM224.03 16.25L224.03 24.36L222.08 24.36L222.08 12.65L223.98 12.65L223.88 16.10L224.03 16.25ZM247.61 16.81L247.61 24.36L245.66 24.36L245.66 17.03Q245.66 16.10 245.43 15.43Q245.20 14.75 244.66 14.38Q244.13 14.00 243.23 14.00L243.23 14.00Q242.38 14.00 241.75 14.35Q241.13 14.70 240.74 15.28Q240.36 15.86 240.20 16.61L240.20 16.61L239.90 15.23L240.14 15.23Q240.34 14.47 240.79 13.82Q241.25 13.18 242.03 12.78Q242.81 12.38 243.96 12.38L243.96 12.38Q245.27 12.38 246.07 12.90Q246.86 13.42 247.24 14.41Q247.61 15.40 247.61 16.81L247.61 16.81ZM232.98 15.58L232.98 24.36L231.04 24.36L231.04 12.65L232.98 12.65L232.90 15.46L232.98 15.58ZM240.29 16.75L240.29 24.36L238.36 24.36L238.36 17.03Q238.36 16.10 238.12 15.43Q237.89 14.75 237.36 14.38Q236.83 14.00 235.93 14.00L235.93 14.00Q235.07 14.00 234.44 14.35Q233.82 14.70 233.44 15.29Q233.05 15.89 232.90 16.64L232.90 16.64L232.54 15.26L232.97 15.26Q233.15 14.47 233.59 13.82Q234.04 13.16 234.80 12.77Q235.56 12.38 236.65 12.38L236.65 12.38Q238.27 12.38 239.12 13.22Q239.96 14.06 240.18 15.67L240.18 15.67Q240.24 15.91 240.26 16.19Q240.29 16.48 240.29 16.75L240.29 16.75ZM259.50 16.78L259.50 24.36L257.57 24.36L257.65 21.52L257.58 21.22L257.58 17.48L257.59 16.80Q257.59 15.37 256.87 14.69Q256.14 14.00 254.57 14.00L254.57 14.00Q253.31 14.00 252.26 14.36Q251.21 14.72 250.39 15.20L250.39 15.20L250.57 13.55Q251.03 13.27 251.66 13.00Q252.29 12.73 253.10 12.55Q253.91 12.37 254.88 12.37L254.88 12.37Q256.14 12.37 257.02 12.68Q257.90 12.98 258.45 13.56Q259.00 14.14 259.25 14.95Q259.50 15.77 259.50 16.78L259.50 16.78ZM253.54 24.61L253.54 24.61Q251.80 24.61 250.87 23.77Q249.94 22.92 249.94 21.35L249.94 21.35L249.94 21Q249.94 19.38 250.94 18.58Q251.94 17.78 254.12 17.47L254.12 17.47L257.83 16.94L257.94 18.36L254.36 18.88Q253.02 19.07 252.44 19.53Q251.87 19.99 251.87 20.89L251.87 20.89L251.87 21.08Q251.87 22.01 252.44 22.50Q253.01 22.99 254.15 22.99L254.15 22.99Q255.16 22.99 255.88 22.64Q256.60 22.30 257.04 21.71Q257.48 21.12 257.64 20.40L257.64 20.40L257.94 21.72L257.57 21.72Q257.40 22.49 256.94 23.15Q256.48 23.81 255.65 24.21Q254.82 24.61 253.54 24.61ZM264.47 8.46L264.47 24.36L262.54 24.36L262.54 8.46L264.47 8.46Z"/></svg>