<svg xmlns="http://www.w3.org/2000/svg" xmlns:xlink="http://www.w3.org/1999/xlink" width="350.54400000000004" height="32.64"><path fill="black" d="M15.10 8.50L15.10 25.63L13.61 25.63L3.67 10.66L3.60 10.66Q3.65 11.28 3.66 11.95Q3.67 12.62 3.70 13.33Q3.72 14.04 3.72 14.81L3.72 14.81L3.72 25.63L2.40 25.63L2.40 8.50L3.89 8.50L13.80 23.42L13.87 23.42Q13.85 22.92 13.82 22.22Q13.80 21.53 13.79 20.77Q13.78 20.02 13.78 19.37L13.78 19.37L13.78 8.50L15.10 8.50ZM30.29 19.22L30.29 19.22Q30.29 20.74 29.92 21.95Q29.54 23.16 28.81 24.04Q28.08 24.91 27.01 25.39Q25.94 25.87 24.55 25.87L24.55 25.87Q23.23 25.87 22.18 25.40Q21.12 24.94 20.39 24.06Q19.66 23.18 19.26 21.96Q18.86 20.74 18.86 19.22L18.86 19.22Q18.86 17.16 19.56 15.68Q20.26 14.21 21.55 13.42Q22.85 12.62 24.65 12.62L24.65 12.62Q26.50 12.62 27.74 13.45Q28.99 14.28 29.64 15.76Q30.29 17.23 30.29 19.22ZM20.28 19.22L20.28 19.22Q20.28 20.86 20.75 22.09Q21.22 23.33 22.16 24.01Q23.11 24.70 24.58 24.70L24.58 24.70Q26.06 24.70 27.01 24.01Q27.96 23.33 28.42 22.09Q28.87 20.86 28.87 19.22L28.87 19.22Q28.87 17.64 28.44 16.42Q28.01 15.19 27.07 14.50Q26.14 13.80 24.62 13.80L24.62 13.80Q22.46 13.80 21.37 15.24Q20.28 16.68 20.28 19.22ZM37.37 24.70L37.37 24.70Q37.92 24.70 38.40 24.61Q38.88 24.53 39.22 24.41L39.22 24.41L39.22 25.51Q38.86 25.66 38.33 25.76Q37.80 25.87 37.20 25.87L37.20 25.87Q36.14 25.87 35.40 25.48Q34.66 25.08 34.26 24.24Q33.86 23.40 33.86 22.08L33.86 22.08L33.86 13.97L31.97 13.97L31.97 13.20L33.86 12.74L34.34 9.82L35.23 9.82L35.23 12.86L39.14 12.86L39.14 13.97L35.23 13.97L35.23 22.01Q35.23 23.33 35.75 24.01Q36.26 24.70 37.37 24.70ZM52.61 19.22L52.61 19.22Q52.61 20.74 52.24 21.95Q51.86 23.16 51.13 24.04Q50.40 24.91 49.33 25.39Q48.26 25.87 46.87 25.87L46.87 25.87Q45.55 25.87 44.50 25.40Q43.44 24.94 42.71 24.06Q41.98 23.18 41.58 21.96Q41.18 20.74 41.18 19.22L41.18 19.22Q41.18 17.16 41.88 15.68Q42.58 14.21 43.87 13.42Q45.17 12.62 46.97 12.62L46.97 12.62Q48.82 12.62 50.06 13.45Q51.31 14.28 51.96 15.76Q52.61 17.23 52.61 19.22ZM42.60 19.22L42.60 19.22Q42.60 20.86 43.07 22.09Q43.54 23.33 44.48 24.01Q45.43 24.70 46.90 24.70L46.90 24.70Q48.38 24.70 49.33 24.01Q50.28 23.33 50.74 22.09Q51.19 20.86 51.19 19.22L51.19 19.22Q51.19 17.64 50.76 16.42Q50.33 15.19 49.39 14.50Q48.46 13.80 46.94 13.80L46.94 13.80Q44.78 13.80 43.69 15.24Q42.60 16.68 42.60 19.22ZM72.12 21.17L72.12 21.17Q72.12 22.70 71.35 23.75Q70.58 24.79 69.24 25.33Q67.90 25.87 66.19 25.87L66.19 25.87Q65.16 25.87 64.31 25.76Q63.46 25.66 62.76 25.49Q62.06 25.32 61.51 25.10L61.51 25.10L61.51 23.74Q62.42 24.10 63.64 24.36Q64.85 24.62 66.26 24.62L66.26 24.62Q67.58 24.62 68.58 24.25Q69.58 23.88 70.14 23.12Q70.70 22.37 70.70 21.26L70.70 21.26Q70.70 20.23 70.24 19.58Q69.77 18.94 68.80 18.44Q67.82 17.95 66.31 17.45L66.31 17.45Q65.23 17.06 64.38 16.66Q63.53 16.25 62.93 15.70Q62.33 15.14 62.02 14.39Q61.70 13.63 61.70 12.60L61.70 12.60Q61.70 11.18 62.42 10.22Q63.14 9.26 64.38 8.76Q65.62 8.26 67.18 8.26L67.18 8.26Q68.45 8.26 69.56 8.48Q70.68 8.71 71.69 9.17L71.69 9.17L71.23 10.37Q70.22 9.94 69.19 9.72Q68.16 9.50 67.13 9.50L67.13 9.50Q65.95 9.50 65.05 9.85Q64.15 10.20 63.64 10.88Q63.12 11.57 63.12 12.58L63.12 12.58Q63.12 13.66 63.60 14.33Q64.08 15.00 65.00 15.46Q65.93 15.91 67.22 16.37L67.22 16.37Q68.76 16.87 69.85 17.46Q70.94 18.05 71.53 18.92Q72.12 19.80 72.12 21.17ZM79.94 12.65L79.94 12.65Q82.10 12.65 83.16 13.69Q84.22 14.74 84.22 17.04L84.22 17.04L84.22 25.63L83.18 25.63L82.94 23.47L82.87 23.47Q82.42 24.19 81.83 24.73Q81.24 25.27 80.41 25.57Q79.58 25.87 78.41 25.87L78.41 25.87Q77.18 25.87 76.30 25.45Q75.41 25.03 74.93 24.24Q74.45 23.45 74.45 22.30L74.45 22.30Q74.45 20.38 76.01 19.38Q77.57 18.38 80.54 18.26L80.54 18.26L82.87 18.14L82.87 17.26Q82.87 15.36 82.12 14.58Q81.36 13.80 79.90 13.80L79.90 13.80Q78.91 13.80 78 14.05Q77.09 14.30 76.18 14.76L76.18 14.76L75.74 13.66Q76.66 13.22 77.72 12.94Q78.79 12.65 79.94 12.65ZM82.87 19.18L80.71 19.27Q78.29 19.39 77.09 20.12Q75.89 20.86 75.89 22.30L75.89 22.30Q75.89 23.47 76.62 24.10Q77.35 24.72 78.65 24.72L78.65 24.72Q80.66 24.72 81.76 23.58Q82.85 22.44 82.87 20.42L82.87 20.42L82.87 19.18ZM94.01 12.62L94.01 12.62Q96.19 12.62 97.34 13.74Q98.50 14.86 98.50 17.28L98.50 17.28L98.50 25.63L97.15 25.63L97.15 17.38Q97.15 15.53 96.31 14.66Q95.47 13.80 93.86 13.80L93.86 13.80Q91.75 13.80 90.71 15.02Q89.66 16.25 89.66 18.67L89.66 18.67L89.66 25.63L88.30 25.63L88.30 12.86L89.40 12.86L89.59 15.07L89.69 15.07Q90.05 14.35 90.65 13.80Q91.25 13.25 92.09 12.94Q92.93 12.62 94.01 12.62ZM110.64 22.25L110.64 22.25Q110.64 23.40 110.06 24.20Q109.49 25.01 108.38 25.44Q107.28 25.87 105.70 25.87L105.70 25.87Q104.35 25.87 103.33 25.63Q102.31 25.39 101.59 25.06L101.59 25.06L101.59 23.74Q102.46 24.14 103.52 24.43Q104.59 24.72 105.72 24.72L105.72 24.72Q107.62 24.72 108.46 24.07Q109.30 23.42 109.30 22.34L109.30 22.34Q109.30 21.62 108.90 21.16Q108.50 20.69 107.72 20.32Q106.94 19.94 105.79 19.56L105.79 19.56Q104.62 19.15 103.70 18.73Q102.79 18.31 102.29 17.66Q101.78 17.02 101.78 15.89L101.78 15.89Q101.78 14.33 103.03 13.48Q104.28 12.62 106.37 12.62L106.37 12.62Q107.52 12.62 108.53 12.84Q109.54 13.06 110.35 13.42L110.35 13.42L109.85 14.54Q109.10 14.21 108.18 13.99Q107.26 13.78 106.30 13.78L106.30 13.78Q104.78 13.78 103.94 14.30Q103.10 14.83 103.10 15.84L103.10 15.84Q103.10 16.58 103.51 17.03Q103.92 17.47 104.70 17.80Q105.48 18.12 106.56 18.50L106.56 18.50Q107.71 18.91 108.64 19.34Q109.56 19.78 110.10 20.45Q110.64 21.12 110.64 22.25ZM127.27 18.17L127.27 16.90L133.51 16.90L133.51 24.86Q132.24 25.37 130.84 25.62Q129.43 25.87 127.82 25.87L127.82 25.87Q125.11 25.87 123.25 24.83Q121.39 23.78 120.43 21.82Q119.47 19.85 119.47 17.09L119.47 17.09Q119.47 14.47 120.53 12.48Q121.58 10.49 123.54 9.36Q125.50 8.23 128.26 8.23L128.26 8.23Q129.65 8.23 130.91 8.48Q132.17 8.74 133.30 9.26L133.30 9.26L132.74 10.49Q131.66 9.98 130.51 9.73Q129.36 9.48 128.18 9.48L128.18 9.48Q125.93 9.48 124.30 10.44Q122.66 11.40 121.80 13.10Q120.94 14.81 120.94 17.06L120.94 17.06Q120.94 19.54 121.75 21.23Q122.57 22.92 124.16 23.77Q125.76 24.62 128.11 24.62L128.11 24.62Q129.36 24.62 130.34 24.46Q131.33 24.29 132.12 24L132.12 24L132.12 18.17L127.27 18.17ZM142.32 12.62L142.32 12.62Q143.95 12.62 145.06 13.38Q146.16 14.14 146.71 15.46Q147.26 16.78 147.26 18.48L147.26 18.48L147.26 19.42L138.14 19.42Q138.17 21.96 139.34 23.32Q140.52 24.67 142.73 24.67L142.73 24.67Q143.90 24.67 144.79 24.47Q145.68 24.26 146.74 23.81L146.74 23.81L146.74 25.06Q145.80 25.46 144.85 25.67Q143.90 25.87 142.68 25.87L142.68 25.87Q140.76 25.87 139.43 25.08Q138.10 24.29 137.41 22.81Q136.73 21.34 136.73 19.34L136.73 19.34Q136.73 17.40 137.39 15.88Q138.05 14.35 139.30 13.49Q140.54 12.62 142.32 12.62ZM142.30 13.78L142.30 13.78Q140.54 13.78 139.46 14.94Q138.38 16.10 138.19 18.29L138.19 18.29L145.85 18.29Q145.85 16.94 145.46 15.94Q145.08 14.93 144.30 14.35Q143.52 13.78 142.30 13.78ZM161.40 19.22L161.40 19.22Q161.40 20.74 161.03 21.95Q160.66 23.16 159.92 24.04Q159.19 24.91 158.12 25.39Q157.06 25.87 155.66 25.87L155.66 25.87Q154.34 25.87 153.29 25.40Q152.23 24.94 151.50 24.06Q150.77 23.18 150.37 21.96Q149.98 20.74 149.98 19.22L149.98 19.22Q149.98 17.16 150.67 15.68Q151.37 14.21 152.66 13.42Q153.96 12.62 155.76 12.62L155.76 12.62Q157.61 12.62 158.86 13.45Q160.10 14.28 160.75 15.76Q161.40 17.23 161.40 19.22ZM151.39 19.22L151.39 19.22Q151.39 20.86 151.86 22.09Q152.33 23.33 153.28 24.01Q154.22 24.70 155.69 24.70L155.69 24.70Q157.18 24.70 158.12 24.01Q159.07 23.33 159.53 22.09Q159.98 20.86 159.98 19.22L159.98 19.22Q159.98 17.64 159.55 16.42Q159.12 15.19 158.18 14.50Q157.25 13.80 155.74 13.80L155.74 13.80Q153.58 13.80 152.48 15.24Q151.39 16.68 151.39 19.22ZM170.14 12.65L170.14 12.65Q170.59 12.65 171.04 12.70Q171.48 12.74 171.86 12.84L171.86 12.84L171.65 14.11Q171.26 14.02 170.88 13.96Q170.50 13.90 170.06 13.90L170.06 13.90Q169.18 13.90 168.48 14.23Q167.78 14.57 167.28 15.19Q166.78 15.82 166.51 16.68Q166.25 17.54 166.25 18.62L166.25 18.62L166.25 25.63L164.88 25.63L164.88 12.86L166.03 12.86L166.18 15.24L166.25 15.24Q166.58 14.52 167.12 13.93Q167.66 13.34 168.42 13.00Q169.18 12.65 170.14 12.65ZM178.78 12.62L178.78 12.62Q180.29 12.62 181.27 13.20Q182.26 13.78 182.86 14.81L182.86 14.81L182.95 14.81L183.14 12.86L184.25 12.86L184.25 26.04Q184.25 27.70 183.68 28.90Q183.12 30.10 181.91 30.74Q180.70 31.39 178.75 31.39L178.75 31.39Q177.31 31.39 176.20 31.15Q175.08 30.91 174.19 30.53L174.19 30.53L174.19 29.21Q175.08 29.64 176.26 29.93Q177.43 30.22 178.80 30.22L178.80 30.22Q180.91 30.22 181.91 29.10Q182.90 27.98 182.90 26.11L182.90 26.11L182.90 25.37Q182.90 24.86 182.92 24.35Q182.93 23.83 182.95 23.38L182.95 23.38L182.88 23.38Q182.33 24.60 181.25 25.24Q180.17 25.87 178.61 25.87L178.61 25.87Q176.14 25.87 174.74 24.18Q173.35 22.49 173.35 19.34L173.35 19.34Q173.35 16.25 174.76 14.44Q176.16 12.62 178.78 12.62ZM178.92 13.80L178.92 13.80Q177.53 13.80 176.62 14.46Q175.70 15.12 175.24 16.36Q174.77 17.59 174.77 19.37L174.77 19.37Q174.77 21.96 175.80 23.33Q176.83 24.70 178.78 24.70L178.78 24.70Q179.98 24.70 180.77 24.32Q181.56 23.95 182.03 23.28Q182.50 22.61 182.70 21.70Q182.90 20.78 182.90 19.73L182.90 19.73L182.90 18.89Q182.90 17.26 182.52 16.13Q182.14 15.00 181.26 14.40Q180.38 13.80 178.92 13.80ZM188.47 12.86L189.84 12.86L189.84 25.63L188.47 25.63L188.47 12.86ZM189.17 8.14L189.17 8.14Q189.62 8.14 189.86 8.41Q190.10 8.69 190.10 9.17L190.10 9.17Q190.10 9.67 189.86 9.95Q189.62 10.22 189.17 10.22L189.17 10.22Q188.71 10.22 188.47 9.95Q188.23 9.67 188.23 9.17L188.23 9.17Q188.23 8.69 188.47 8.41Q188.71 8.14 189.17 8.14ZM198.58 12.65L198.58 12.65Q200.74 12.65 201.79 13.69Q202.85 14.74 202.85 17.04L202.85 17.04L202.85 25.63L201.82 25.63L201.58 23.47L201.50 23.47Q201.05 24.19 200.46 24.73Q199.87 25.27 199.04 25.57Q198.22 25.87 197.04 25.87L197.04 25.87Q195.82 25.87 194.93 25.45Q194.04 25.03 193.56 24.24Q193.08 23.45 193.08 22.30L193.08 22.30Q193.08 20.38 194.64 19.38Q196.20 18.38 199.18 18.26L199.18 18.26L201.50 18.14L201.50 17.26Q201.50 15.36 200.75 14.58Q199.99 13.80 198.53 13.80L198.53 13.80Q197.54 13.80 196.63 14.05Q195.72 14.30 194.81 14.76L194.81 14.76L194.38 13.66Q195.29 13.22 196.36 12.94Q197.42 12.65 198.58 12.65ZM201.50 19.18L199.34 19.27Q196.92 19.39 195.72 20.12Q194.52 20.86 194.52 22.30L194.52 22.30Q194.52 23.47 195.25 24.10Q195.98 24.72 197.28 24.72L197.28 24.72Q199.30 24.72 200.39 23.58Q201.48 22.44 201.50 20.42L201.50 20.42L201.50 19.18ZM212.64 12.62L212.64 12.62Q214.82 12.62 215.98 13.74Q217.13 14.86 217.13 17.28L217.13 17.28L217.13 25.63L215.78 25.63L215.78 17.38Q215.78 15.53 214.94 14.66Q214.10 13.80 212.50 13.80L212.50 13.80Q210.38 13.80 209.34 15.02Q208.30 16.25 208.30 18.67L208.30 18.67L208.30 25.63L206.93 25.63L206.93 12.86L208.03 12.86L208.22 15.07L208.32 15.07Q208.68 14.35 209.28 13.80Q209.88 13.25 210.72 12.94Q211.56 12.62 212.64 12.62ZM236.93 12.46L236.93 12.46Q236.93 13.58 236.47 14.45Q236.02 15.31 235.20 15.86Q234.38 16.42 233.33 16.61L233.33 16.61L233.33 16.68Q235.34 16.94 236.40 18Q237.46 19.06 237.46 20.86L237.46 20.86Q237.46 22.32 236.77 23.46Q236.09 24.60 234.71 25.24Q233.33 25.87 231.22 25.87L231.22 25.87Q229.85 25.87 228.65 25.62Q227.45 25.37 226.46 24.89L226.46 24.89L226.46 23.57Q227.47 24.07 228.73 24.37Q229.99 24.67 231.24 24.67L231.24 24.67Q233.69 24.67 234.85 23.64Q236.02 22.61 236.02 20.83L236.02 20.83Q236.02 19.58 235.39 18.82Q234.77 18.05 233.62 17.70Q232.46 17.35 230.90 17.35L230.90 17.35L229.08 17.35L229.08 16.15L230.93 16.15Q232.27 16.15 233.30 15.73Q234.34 15.31 234.92 14.51Q235.51 13.70 235.51 12.53L235.51 12.53Q235.51 10.99 234.54 10.21Q233.57 9.43 231.91 9.43L231.91 9.43Q231.02 9.43 230.23 9.61Q229.44 9.79 228.73 10.14Q228.02 10.49 227.30 10.99L227.30 10.99L226.61 10.03Q227.59 9.26 228.92 8.76Q230.26 8.26 231.91 8.26L231.91 8.26Q234.31 8.26 235.62 9.40Q236.93 10.54 236.93 12.46ZM251.42 17.02L251.42 17.02Q251.42 19.15 251.10 20.80Q250.78 22.44 250.10 23.57Q249.43 24.70 248.39 25.28Q247.34 25.87 245.90 25.87L245.90 25.87Q244.10 25.87 242.88 24.86Q241.66 23.86 241.03 21.88Q240.41 19.90 240.41 17.02L240.41 17.02Q240.41 14.38 240.95 12.40Q241.49 10.42 242.70 9.32Q243.91 8.23 245.93 8.23L245.93 8.23Q247.90 8.23 249.11 9.31Q250.32 10.39 250.87 12.36Q251.42 14.33 251.42 17.02ZM241.78 17.02L241.78 17.02Q241.78 19.58 242.22 21.29Q242.66 22.99 243.58 23.83Q244.49 24.67 245.90 24.67L245.90 24.67Q247.39 24.67 248.29 23.83Q249.19 22.99 249.61 21.29Q250.03 19.58 250.03 17.02L250.03 17.02Q250.03 14.62 249.66 12.92Q249.29 11.23 248.39 10.33Q247.49 9.43 245.93 9.43L245.93 9.43Q244.37 9.43 243.47 10.34Q242.57 11.26 242.17 12.95Q241.78 14.64 241.78 17.02ZM265.13 17.02L265.13 17.02Q265.13 19.15 264.80 20.80Q264.48 22.44 263.81 23.57Q263.14 24.70 262.09 25.28Q261.05 25.87 259.61 25.87L259.61 25.87Q257.81 25.87 256.58 24.86Q255.36 23.86 254.74 21.88Q254.11 19.90 254.11 17.02L254.11 17.02Q254.11 14.38 254.65 12.40Q255.19 10.42 256.40 9.32Q257.62 8.23 259.63 8.23L259.63 8.23Q261.60 8.23 262.81 9.31Q264.02 10.39 264.58 12.36Q265.13 14.33 265.13 17.02ZM255.48 17.02L255.48 17.02Q255.48 19.58 255.92 21.29Q256.37 22.99 257.28 23.83Q258.19 24.67 259.61 24.67L259.61 24.67Q261.10 24.67 262.00 23.83Q262.90 22.99 263.32 21.29Q263.74 19.58 263.74 17.02L263.74 17.02Q263.74 14.62 263.36 12.92Q262.99 11.23 262.09 10.33Q261.19 9.43 259.63 9.43L259.63 9.43Q258.07 9.43 257.17 10.34Q256.27 11.26 255.88 12.95Q255.48 14.64 255.48 17.02ZM280.54 12.62L280.54 12.62Q282.72 12.62 283.87 13.74Q285.02 14.86 285.02 17.28L285.02 17.28L285.02 25.63L283.68 25.63L283.68 17.38Q283.68 15.53 282.84 14.66Q282.00 13.80 280.39 13.80L280.39 13.80Q278.28 13.80 277.24 15.02Q276.19 16.25 276.19 18.67L276.19 18.67L276.19 25.63L274.82 25.63L274.82 12.86L275.93 12.86L276.12 15.07L276.22 15.07Q276.58 14.35 277.18 13.80Q277.78 13.25 278.62 12.94Q279.46 12.62 280.54 12.62ZM299.81 19.22L299.81 19.22Q299.81 20.74 299.44 21.95Q299.06 23.16 298.33 24.04Q297.60 24.91 296.53 25.39Q295.46 25.87 294.07 25.87L294.07 25.87Q292.75 25.87 291.70 25.40Q290.64 24.94 289.91 24.06Q289.18 23.18 288.78 21.96Q288.38 20.74 288.38 19.22L288.38 19.22Q288.38 17.16 289.08 15.68Q289.78 14.21 291.07 13.42Q292.37 12.62 294.17 12.62L294.17 12.62Q296.02 12.62 297.26 13.45Q298.51 14.28 299.16 15.76Q299.81 17.23 299.81 19.22ZM289.80 19.22L289.80 19.22Q289.80 20.86 290.27 22.09Q290.74 23.33 291.68 24.01Q292.63 24.70 294.10 24.70L294.10 24.70Q295.58 24.70 296.53 24.01Q297.48 23.33 297.94 22.09Q298.39 20.86 298.39 19.22L298.39 19.22Q298.39 17.64 297.96 16.42Q297.53 15.19 296.59 14.50Q295.66 13.80 294.14 13.80L294.14 13.80Q291.98 13.80 290.89 15.24Q289.80 16.68 289.80 19.22ZM308.54 12.65L308.54 12.65Q309.00 12.65 309.44 12.70Q309.89 12.74 310.27 12.84L310.27 12.84L310.06 14.11Q309.67 14.02 309.29 13.96Q308.90 13.90 308.47 13.90L308.47 13.90Q307.58 13.90 306.89 14.23Q306.19 14.57 305.69 15.19Q305.18 15.82 304.92 16.68Q304.66 17.54 304.66 18.62L304.66 18.62L304.66 25.63L303.29 25.63L303.29 12.86L304.44 12.86L304.58 15.24L304.66 15.24Q304.99 14.52 305.53 13.93Q306.07 13.34 306.83 13.00Q307.58 12.65 308.54 12.65ZM326.09 12.62L326.09 12.62Q327.98 12.62 329.05 13.69Q330.12 14.76 330.12 17.11L330.12 17.11L330.12 25.63L328.78 25.63L328.78 17.16Q328.78 15.46 328.01 14.63Q327.24 13.80 325.90 13.80L325.90 13.80Q324.07 13.80 323.09 14.87Q322.10 15.94 322.10 18.17L322.10 18.17L322.10 25.63L320.76 25.63L320.76 17.16Q320.76 16.01 320.40 15.26Q320.04 14.52 319.40 14.16Q318.77 13.80 317.88 13.80L317.88 13.80Q316.68 13.80 315.84 14.30Q315.00 14.81 314.56 15.82Q314.11 16.82 314.11 18.38L314.11 18.38L314.11 25.63L312.74 25.63L312.74 12.86L313.85 12.86L314.04 14.88L314.14 14.88Q314.47 14.26 315.00 13.74Q315.53 13.22 316.30 12.92Q317.06 12.62 318.07 12.62L318.07 12.62Q319.46 12.62 320.44 13.22Q321.41 13.82 321.79 15.00L321.79 15.00L321.86 15.00Q322.42 13.87 323.51 13.25Q324.60 12.62 326.09 12.62ZM338.71 12.65L338.71 12.65Q340.87 12.65 341.93 13.69Q342.98 14.74 342.98 17.04L342.98 17.04L342.98 25.63L341.95 25.63L341.71 23.47L341.64 23.47Q341.18 24.19 340.60 24.73Q340.01 25.27 339.18 25.57Q338.35 25.87 337.18 25.87L337.18 25.87Q335.95 25.87 335.06 25.45Q334.18 25.03 333.70 24.24Q333.22 23.45 333.22 22.30L333.22 22.30Q333.22 20.38 334.78 19.38Q336.34 18.38 339.31 18.26L339.31 18.26L341.64 18.14L341.64 17.26Q341.64 15.36 340.88 14.58Q340.13 13.80 338.66 13.80L338.66 13.80Q337.68 13.80 336.77 14.05Q335.86 14.30 334.94 14.76L334.94 14.76L334.51 13.66Q335.42 13.22 336.49 12.94Q337.56 12.65 338.71 12.65ZM341.64 19.18L339.48 19.27Q337.06 19.39 335.86 20.12Q334.66 20.86 334.66 22.30L334.66 22.30Q334.66 23.47 335.39 24.10Q336.12 24.72 337.42 24.72L337.42 24.72Q339.43 24.72 340.52 23.58Q341.62 22.44 341.64 20.42L341.64 20.42L341.64 19.18ZM348.43 7.39L348.43 25.63L347.06 25.63L347.06 7.39L348.43 7.39Z"/></svg>