<svg xmlns="http://www.w3.org/2000/svg" xmlns:xlink="http://www.w3.org/1999/xlink" width="221.27999999999994" height="24"><path fill="black" d="M7.42 1.20L2.23 1.20L2.06 2.40L6 2.40L4.10 15.77Q3.96 16.80 3.55 17.62Q3.14 18.43 2.54 18.98L2.54 18.98Q1.94 19.56 1.18 19.87Q0.41 20.18-0.43 20.23L-0.43 20.23L-0.58 21.43Q0.50 21.41 1.49 21.02Q2.47 20.64 3.29 19.94L3.29 19.94Q4.06 19.25 4.61 18.22Q5.16 17.18 5.35 15.84L5.35 15.84L7.42 1.20ZM8.38 13.49L8.38 13.49Q8.21 14.47 8.47 15.32Q8.74 16.18 9.31 16.80L9.31 16.80Q9.84 17.45 10.64 17.82Q11.45 18.19 12.46 18.19L12.46 18.19Q13.44 18.19 14.36 17.82Q15.29 17.45 16.03 16.80L16.03 16.80Q16.75 16.18 17.23 15.32Q17.71 14.47 17.88 13.49L17.88 13.49Q18.02 12.53 17.77 11.66Q17.52 10.80 16.97 10.15L16.97 10.15Q16.39 9.53 15.56 9.16Q14.74 8.78 13.78 8.78L13.78 8.78Q12.77 8.78 11.86 9.16Q10.94 9.53 10.22 10.15L10.22 10.15Q9.48 10.80 9 11.66Q8.52 12.53 8.38 13.49ZM9.62 13.49L9.62 13.49Q9.72 12.79 10.07 12.16Q10.42 11.52 10.97 11.04L10.97 11.04Q11.50 10.56 12.16 10.28Q12.82 10.01 13.56 10.01L13.56 10.01Q14.28 10.01 14.88 10.28Q15.48 10.56 15.89 11.04L15.89 11.04Q16.30 11.52 16.48 12.16Q16.66 12.79 16.56 13.49L16.56 13.49Q16.46 14.23 16.09 14.86Q15.72 15.48 15.19 15.94L15.19 15.94Q14.66 16.42 13.98 16.69Q13.30 16.97 12.58 16.97L12.58 16.97Q11.86 16.97 11.27 16.69Q10.68 16.42 10.27 15.94L10.27 15.94Q9.86 15.48 9.70 14.86Q9.53 14.23 9.62 13.49ZM19.66 15.43L19.39 17.28Q19.82 17.76 20.58 17.98Q21.34 18.19 22.15 18.19L22.15 18.19Q23.02 18.19 23.63 17.92Q24.24 17.64 24.65 17.21L24.65 17.21Q25.03 16.80 25.24 16.36Q25.44 15.91 25.49 15.46L25.49 15.46Q25.56 14.69 25.33 14.22Q25.10 13.75 24.70 13.44L24.70 13.44Q24.26 13.15 23.75 12.96Q23.23 12.77 22.78 12.58L22.78 12.58Q22.32 12.38 22.03 12.12Q21.74 11.86 21.79 11.38L21.79 11.38Q21.82 11.04 21.98 10.78Q22.15 10.51 22.39 10.34L22.39 10.34Q22.61 10.20 22.92 10.13Q23.23 10.06 23.50 10.06L23.50 10.06Q23.83 10.06 24.14 10.13Q24.46 10.20 24.72 10.37L24.72 10.37L24.55 11.57L25.68 11.57L25.94 9.72Q25.73 9.46 25.38 9.28Q25.03 9.10 24.67 9L24.67 9Q24.31 8.88 24 8.86Q23.69 8.83 23.54 8.83L23.54 8.83Q23.14 8.83 22.63 8.99Q22.13 9.14 21.70 9.46L21.70 9.46Q21.26 9.77 20.94 10.25Q20.62 10.73 20.52 11.38L20.52 11.38Q20.42 12.19 20.68 12.65Q20.93 13.10 21.36 13.34L21.36 13.34Q21.82 13.61 22.36 13.78Q22.90 13.94 23.33 14.14L23.33 14.14Q23.78 14.30 24.04 14.63Q24.29 14.95 24.22 15.50L24.22 15.50Q24.17 15.89 24 16.15Q23.83 16.42 23.54 16.58L23.54 16.58Q23.26 16.80 22.96 16.88Q22.66 16.97 22.30 16.97L22.30 16.97Q21.79 16.97 21.38 16.88Q20.98 16.80 20.62 16.58L20.62 16.58L20.78 15.43L19.66 15.43ZM32.54 10.01L32.54 10.01Q33.36 10.01 33.97 10.46Q34.58 10.92 34.90 11.64L34.90 11.64Q33.31 12.22 31.75 12.79Q30.19 13.37 28.58 13.94L28.58 13.94Q28.58 13.18 28.88 12.47Q29.18 11.76 29.74 11.23L29.74 11.23Q30.26 10.68 31.00 10.34Q31.73 10.01 32.54 10.01ZM36.38 12.34L36.38 12.34Q36.26 11.57 35.96 10.93Q35.66 10.30 35.21 9.82L35.21 9.82Q34.73 9.34 34.09 9.06Q33.46 8.78 32.74 8.78L32.74 8.78Q31.73 8.78 30.83 9.16Q29.93 9.53 29.18 10.15L29.18 10.15Q28.46 10.80 27.97 11.66Q27.48 12.53 27.34 13.49L27.34 13.49Q27.19 14.47 27.46 15.32Q27.72 16.18 28.27 16.82L28.27 16.82Q28.82 17.45 29.63 17.82Q30.43 18.19 31.42 18.19L31.42 18.19Q32.35 18.19 33.18 17.86Q34.01 17.52 34.70 16.92L34.70 16.92Q34.54 16.68 34.38 16.46Q34.22 16.25 34.06 16.01L34.06 16.01Q33.55 16.46 32.92 16.72Q32.28 16.97 31.58 16.97L31.58 16.97Q30.55 16.97 29.81 16.46Q29.06 15.96 28.78 15.12L28.78 15.12Q30.70 14.42 32.58 13.73Q34.46 13.03 36.38 12.34ZM38.95 16.80L37.49 16.80L37.32 18L42.12 18L42.29 16.80L40.18 16.80L41.09 10.22L44.06 10.22L44.23 9L41.26 9L41.76 5.57Q41.90 4.54 42.35 3.71Q42.79 2.88 43.42 2.33L43.42 2.33Q44.02 1.80 44.76 1.50Q45.50 1.20 46.30 1.18L46.30 1.18L46.46-0.02Q45.38 0.02 44.39 0.40Q43.39 0.77 42.58 1.49L42.58 1.49Q41.78 2.18 41.23 3.22Q40.68 4.25 40.49 5.59L40.49 5.59L40.01 9L38.57 9L38.40 10.22L39.86 10.22L38.95 16.80ZM46.75 16.80L44.95 16.80L44.78 18L49.58 18L49.75 16.80L48.00 16.80L49.08 9L46.03 9L45.86 10.20L47.66 10.20L46.75 16.80ZM48.05 5.74L48.05 5.74Q47.98 6.12 48.23 6.38Q48.48 6.65 48.82 6.65L48.82 6.65Q49.15 6.65 49.46 6.38Q49.78 6.12 49.85 5.74L49.85 5.74Q49.90 5.35 49.66 5.09Q49.42 4.82 49.08 4.82L49.08 4.82Q48.72 4.82 48.41 5.09Q48.10 5.35 48.05 5.74ZM60.10 16.80L58.22 16.80L58.08 18L62.88 18L63.02 16.80L61.34 16.80L62.09 11.50Q62.21 10.30 61.54 9.55Q60.86 8.81 59.50 8.81L59.50 8.81Q58.18 8.81 57.02 9.49Q55.87 10.18 55.22 11.33L55.22 11.33Q55.27 10.87 55.28 10.51Q55.30 10.15 55.34 9.70L55.34 9.70L55.42 9L52.68 9L52.51 10.20L54.19 10.20L53.28 16.80L51.43 16.80L51.26 18L56.06 18L56.23 16.80L54.53 16.80L55.03 13.22Q55.13 12.53 55.50 11.94Q55.87 11.35 56.42 10.92L56.42 10.92Q56.98 10.51 57.65 10.27Q58.32 10.03 59.02 10.03L59.02 10.03Q60.00 10.08 60.42 10.63Q60.84 11.18 60.77 11.93L60.77 11.93L60.10 16.80ZM72.36 13.46L71.98 16.08Q72.22 16.44 72.65 16.81Q73.08 17.18 73.70 17.47L73.70 17.47Q74.30 17.78 75.08 17.99Q75.86 18.19 76.80 18.19L76.80 18.19Q77.83 18.19 78.80 17.87Q79.78 17.54 80.54 16.94L80.54 16.94Q81.31 16.32 81.83 15.46Q82.34 14.59 82.49 13.51L82.49 13.51Q82.66 12.31 82.40 11.52Q82.15 10.73 81.62 10.18L81.62 10.18Q81.12 9.65 80.42 9.32Q79.73 9 78.98 8.76L78.98 8.76Q78.22 8.52 77.51 8.29Q76.80 8.06 76.27 7.70L76.27 7.70Q75.77 7.37 75.48 6.85Q75.19 6.34 75.31 5.50L75.31 5.50Q75.38 4.85 75.67 4.26Q75.96 3.67 76.44 3.22L76.44 3.22Q76.92 2.81 77.54 2.56Q78.17 2.30 78.94 2.30L78.94 2.30Q79.85 2.30 80.52 2.50Q81.19 2.69 81.62 2.95L81.62 2.95L81.34 4.90L82.54 4.90L82.90 2.38Q82.46 1.97 81.97 1.72Q81.48 1.46 80.98 1.32L80.98 1.32Q80.50 1.20 80.02 1.15Q79.54 1.10 79.13 1.10L79.13 1.10Q77.88 1.10 76.97 1.51Q76.06 1.92 75.43 2.57L75.43 2.57Q74.81 3.22 74.46 4.01Q74.11 4.80 74.04 5.59L74.04 5.59Q73.92 6.65 74.21 7.33Q74.50 8.02 75.00 8.45L75.00 8.45Q75.53 8.88 76.25 9.14Q76.97 9.41 77.71 9.65L77.71 9.65Q78.43 9.86 79.13 10.12Q79.82 10.37 80.35 10.80L80.35 10.80Q80.86 11.23 81.12 11.89Q81.38 12.55 81.24 13.56L81.24 13.56Q81.12 14.38 80.70 15.01Q80.28 15.65 79.68 16.10L79.68 16.10Q79.06 16.54 78.32 16.76Q77.59 16.99 76.82 16.99L76.82 16.99Q75.58 16.99 74.70 16.60Q73.82 16.20 73.22 15.62L73.22 15.62L73.54 13.46L72.36 13.46ZM85.18 16.80L83.40 16.80L83.23 18L88.03 18L88.20 16.80L86.42 16.80L88.78 0L85.87 0L85.70 1.20L87.36 1.20L85.18 16.80ZM90.36 13.51L90.36 13.51Q90.22 14.47 90.48 15.32Q90.74 16.18 91.30 16.80L91.30 16.80Q91.82 17.45 92.64 17.82Q93.46 18.19 94.46 18.19L94.46 18.19Q95.33 18.19 96.07 17.92Q96.82 17.64 97.34 17.21L97.34 17.21Q97.73 16.97 97.98 16.70Q98.23 16.44 98.38 16.20L98.38 16.20Q98.33 16.44 98.29 16.67Q98.26 16.90 98.21 17.16L98.21 17.16L98.11 18L101.02 18L101.18 16.80L99.38 16.80L100.49 9L99.46 9Q99.38 9.48 99.29 9.94Q99.19 10.39 99.12 10.87L99.12 10.87Q99.02 10.54 98.76 10.15Q98.50 9.77 98.04 9.46L98.04 9.46Q97.61 9.17 97.03 8.98Q96.46 8.78 95.76 8.78L95.76 8.78Q94.78 8.78 93.86 9.17Q92.95 9.55 92.21 10.20L92.21 10.20Q91.49 10.82 91.00 11.69Q90.50 12.55 90.36 13.51ZM91.63 13.49L91.63 13.49Q91.70 12.77 92.06 12.13Q92.42 11.50 92.95 11.02L92.95 11.02Q93.50 10.54 94.18 10.28Q94.85 10.03 95.59 10.03L95.59 10.03Q96.31 10.03 96.92 10.28Q97.54 10.54 97.94 11.02L97.94 11.02Q98.35 11.47 98.53 12.12Q98.71 12.77 98.62 13.51L98.62 13.51Q98.52 14.23 98.16 14.86Q97.80 15.48 97.25 15.94L97.25 15.94Q96.72 16.42 96.04 16.69Q95.35 16.97 94.61 16.97L94.61 16.97Q93.91 16.97 93.35 16.73Q92.78 16.49 92.38 16.08L92.38 16.08Q91.92 15.60 91.72 14.93Q91.51 14.26 91.63 13.49ZM102.70 18L105.60 18L105.70 17.23Q105.74 16.99 105.78 16.73Q105.82 16.46 105.84 16.20L105.84 16.20Q106.01 16.87 106.90 17.53Q107.78 18.19 109.20 18.19L109.20 18.19Q110.21 18.19 111.12 17.82Q112.03 17.45 112.78 16.80L112.78 16.80Q113.50 16.18 113.98 15.31Q114.46 14.45 114.60 13.49L114.60 13.49Q114.74 12.53 114.49 11.68Q114.24 10.82 113.71 10.18L113.71 10.18Q113.14 9.53 112.32 9.16Q111.50 8.78 110.52 8.78L110.52 8.78Q109.20 8.78 108.22 9.35Q107.23 9.91 106.73 10.73L106.73 10.73Q106.78 10.49 106.82 10.21Q106.87 9.94 106.90 9.67L106.90 9.67L108.26 0L105.36 0L105.19 1.20L106.85 1.20L104.64 16.80L102.86 16.80L102.70 18ZM113.35 13.49L113.35 13.49Q113.26 14.21 112.90 14.84Q112.54 15.48 112.01 15.94L112.01 15.94Q111.46 16.42 110.78 16.69Q110.11 16.97 109.37 16.97L109.37 16.97Q108.67 16.97 108.12 16.74Q107.57 16.51 107.16 16.10L107.16 16.10Q106.68 15.62 106.46 14.95Q106.25 14.28 106.37 13.49L106.37 13.49Q106.46 12.77 106.81 12.13Q107.16 11.50 107.71 11.02L107.71 11.02Q108.24 10.54 108.91 10.27Q109.58 10.01 110.33 10.01L110.33 10.01Q111.05 10.01 111.65 10.26Q112.25 10.51 112.66 10.97L112.66 10.97Q113.06 11.45 113.26 12.10Q113.45 12.74 113.35 13.49ZM133.06 4.99L133.42 2.40L126.53 2.40L125.38 10.46Q125.88 9.91 126.61 9.64Q127.34 9.36 128.18 9.36L128.18 9.36Q129 9.36 129.66 9.65Q130.32 9.94 130.78 10.46L130.78 10.46Q131.21 10.97 131.42 11.65Q131.64 12.34 131.54 13.13L131.54 13.13Q131.42 13.92 131.02 14.62Q130.61 15.31 130.01 15.84L130.01 15.84Q129.41 16.37 128.66 16.67Q127.92 16.97 127.13 16.97L127.13 16.97Q126.36 16.97 125.75 16.70Q125.14 16.44 124.73 15.94L124.73 15.94L123.67 16.78Q124.25 17.45 125.09 17.82Q125.93 18.19 126.96 18.19L126.96 18.19Q128.02 18.19 128.99 17.80Q129.96 17.40 130.75 16.70L130.75 16.70Q131.57 16.03 132.10 15.11Q132.62 14.18 132.79 13.13L132.79 13.13Q132.94 12.10 132.66 11.18Q132.38 10.27 131.78 9.58L131.78 9.58Q131.18 8.90 130.31 8.52Q129.43 8.14 128.38 8.14L128.38 8.14Q128.02 8.14 127.66 8.21Q127.30 8.28 126.94 8.40L126.94 8.40L127.61 3.62L132.05 3.62L131.86 4.99L133.06 4.99ZM135.91 10.15L135.91 10.15Q135.65 11.90 135.96 13.37Q136.27 14.83 136.99 15.91L136.99 15.91Q137.74 16.97 138.80 17.58Q139.87 18.19 141.14 18.19L141.14 18.19Q142.42 18.19 143.66 17.60Q144.91 17.02 145.97 15.96L145.97 15.96Q147 14.90 147.74 13.44Q148.49 11.98 148.75 10.25L148.75 10.25Q148.97 8.71 148.76 7.27Q148.56 5.83 147.89 4.70L147.89 4.70Q147.24 3.58 146.15 2.89Q145.06 2.21 143.50 2.21L143.50 2.21Q141.96 2.21 140.65 2.87Q139.34 3.53 138.38 4.66L138.38 4.66Q137.38 5.76 136.75 7.20Q136.13 8.64 135.91 10.15ZM137.18 10.15L137.18 10.15Q137.35 8.88 137.87 7.67Q138.38 6.46 139.18 5.52L139.18 5.52Q139.97 4.56 141.02 4.00Q142.08 3.43 143.33 3.43L143.33 3.43Q144.58 3.43 145.46 4.02Q146.35 4.61 146.86 5.57L146.86 5.57Q147.38 6.53 147.54 7.75Q147.70 8.98 147.48 10.22L147.48 10.22Q147.26 11.71 146.66 12.96Q146.06 14.21 145.22 15.10L145.22 15.10Q144.36 15.98 143.35 16.48Q142.34 16.97 141.34 16.97L141.34 16.97Q140.30 16.97 139.45 16.45Q138.60 15.94 138.02 15.02L138.02 15.02Q137.45 14.14 137.20 12.89Q136.94 11.64 137.18 10.15ZM150.70 10.15L150.70 10.15Q150.43 11.90 150.74 13.37Q151.06 14.83 151.78 15.91L151.78 15.91Q152.52 16.97 153.59 17.58Q154.66 18.19 155.93 18.19L155.93 18.19Q157.20 18.19 158.45 17.60Q159.70 17.02 160.75 15.96L160.75 15.96Q161.78 14.90 162.53 13.44Q163.27 11.98 163.54 10.25L163.54 10.25Q163.75 8.71 163.55 7.27Q163.34 5.83 162.67 4.70L162.67 4.70Q162.02 3.58 160.93 2.89Q159.84 2.21 158.28 2.21L158.28 2.21Q156.74 2.21 155.44 2.87Q154.13 3.53 153.17 4.66L153.17 4.66Q152.16 5.76 151.54 7.20Q150.91 8.64 150.70 10.15ZM151.97 10.15L151.97 10.15Q152.14 8.88 152.65 7.67Q153.17 6.46 153.96 5.52L153.96 5.52Q154.75 4.56 155.81 4.00Q156.86 3.43 158.11 3.43L158.11 3.43Q159.36 3.43 160.25 4.02Q161.14 4.61 161.64 5.57L161.64 5.57Q162.17 6.53 162.32 7.75Q162.48 8.98 162.26 10.22L162.26 10.22Q162.05 11.71 161.45 12.96Q160.85 14.21 160.01 15.10L160.01 15.10Q159.14 15.98 158.14 16.48Q157.13 16.97 156.12 16.97L156.12 16.97Q155.09 16.97 154.24 16.45Q153.38 15.94 152.81 15.02L152.81 15.02Q152.23 14.14 151.98 12.89Q151.73 11.64 151.97 10.15ZM174.60 16.80L172.80 16.80L172.63 18L177.43 18L177.60 16.80L175.85 16.80L176.93 9L173.88 9L173.71 10.20L175.51 10.20L174.60 16.80ZM175.90 5.74L175.90 5.74Q175.82 6.12 176.08 6.38Q176.33 6.65 176.66 6.65L176.66 6.65Q177.00 6.65 177.31 6.38Q177.62 6.12 177.70 5.74L177.70 5.74Q177.74 5.35 177.50 5.09Q177.26 4.82 176.93 4.82L176.93 4.82Q176.57 4.82 176.26 5.09Q175.94 5.35 175.90 5.74ZM184.49 3.14L183.24 3.14L182.42 9L180.36 9L180.19 10.22L182.26 10.22L181.18 18L184.37 18L184.51 16.80L182.59 16.80L183.50 10.22L186.17 10.22L186.34 9L183.67 9L184.49 3.14ZM187.42 13.51L187.42 13.51Q187.27 14.47 187.54 15.32Q187.80 16.18 188.35 16.80L188.35 16.80Q188.88 17.45 189.70 17.82Q190.51 18.19 191.52 18.19L191.52 18.19Q192.38 18.19 193.13 17.92Q193.87 17.64 194.40 17.21L194.40 17.21Q194.78 16.97 195.04 16.70Q195.29 16.44 195.43 16.20L195.43 16.20Q195.38 16.44 195.35 16.67Q195.31 16.90 195.26 17.16L195.26 17.16L195.17 18L198.07 18L198.24 16.80L196.44 16.80L197.54 9L196.51 9Q196.44 9.48 196.34 9.94Q196.25 10.39 196.18 10.87L196.18 10.87Q196.08 10.54 195.82 10.15Q195.55 9.77 195.10 9.46L195.10 9.46Q194.66 9.17 194.09 8.98Q193.51 8.78 192.82 8.78L192.82 8.78Q191.83 8.78 190.92 9.17Q190.01 9.55 189.26 10.20L189.26 10.20Q188.54 10.82 188.05 11.69Q187.56 12.55 187.42 13.51ZM188.69 13.49L188.69 13.49Q188.76 12.77 189.12 12.13Q189.48 11.50 190.01 11.02L190.01 11.02Q190.56 10.54 191.23 10.28Q191.90 10.03 192.65 10.03L192.65 10.03Q193.37 10.03 193.98 10.28Q194.59 10.54 195.00 11.02L195.00 11.02Q195.41 11.47 195.59 12.12Q195.77 12.77 195.67 13.51L195.67 13.51Q195.58 14.23 195.22 14.86Q194.86 15.48 194.30 15.94L194.30 15.94Q193.78 16.42 193.09 16.69Q192.41 16.97 191.66 16.97L191.66 16.97Q190.97 16.97 190.40 16.73Q189.84 16.49 189.43 16.08L189.43 16.08Q188.98 15.60 188.77 14.93Q188.57 14.26 188.69 13.49ZM201.67 16.80L199.90 16.80L199.73 18L204.53 18L204.70 16.80L202.92 16.80L205.27 0L202.37 0L202.20 1.20L203.86 1.20L201.67 16.80ZM208.18 16.80L206.38 16.80L206.21 18L211.01 18L211.18 16.80L209.42 16.80L210.50 9L207.46 9L207.29 10.20L209.09 10.20L208.18 16.80ZM209.47 5.74L209.47 5.74Q209.40 6.12 209.65 6.38Q209.90 6.65 210.24 6.65L210.24 6.65Q210.58 6.65 210.89 6.38Q211.20 6.12 211.27 5.74L211.27 5.74Q211.32 5.35 211.08 5.09Q210.84 4.82 210.50 4.82L210.50 4.82Q210.14 4.82 209.83 5.09Q209.52 5.35 209.47 5.74ZM220.54 17.16L220.54 17.16L219.89 16.20Q219.38 16.58 218.80 16.78Q218.21 16.97 217.58 16.97L217.58 16.97Q216.86 16.97 216.29 16.73Q215.71 16.49 215.33 16.06L215.33 16.06Q214.87 15.58 214.68 14.92Q214.49 14.26 214.58 13.49L214.58 13.49Q214.68 12.77 215.03 12.13Q215.38 11.50 215.93 11.02L215.93 11.02Q216.46 10.54 217.13 10.27Q217.80 10.01 218.54 10.01L218.54 10.01Q219.07 10.01 219.53 10.15Q219.98 10.30 220.37 10.56L220.37 10.56L220.10 12.29L221.23 12.29L221.59 9.82Q221.06 9.34 220.33 9.06Q219.60 8.78 218.74 8.78L218.74 8.78Q217.73 8.78 216.83 9.17Q215.93 9.55 215.18 10.18L215.18 10.18Q214.46 10.80 213.97 11.66Q213.48 12.53 213.34 13.49L213.34 13.49Q213.19 14.47 213.46 15.32Q213.72 16.18 214.27 16.80L214.27 16.80Q214.82 17.45 215.63 17.82Q216.43 18.19 217.42 18.19L217.42 18.19Q218.28 18.19 219.06 17.92Q219.84 17.64 220.54 17.16Z"/></svg>