<svg xmlns="http://www.w3.org/2000/svg" xmlns:xlink="http://www.w3.org/1999/xlink" width="113.592" height="24"><path fill="black" d="M4.37 19.94L4.37 19.94Q5.04 19.22 5.42 18.20Q5.81 17.18 5.81 15.84L5.81 15.84L5.81 1.20L0.84 1.20L0.84 2.14L4.82 2.14L4.82 15.77Q4.82 16.87 4.52 17.72Q4.22 18.58 3.70 19.15L3.70 19.15Q3.17 19.78 2.44 20.10Q1.70 20.42 0.84 20.47L0.84 20.47L0.84 21.43Q1.87 21.41 2.78 21.02Q3.70 20.64 4.37 19.94ZM15.60 16.80L15.60 16.80Q16.22 16.15 16.60 15.31Q16.97 14.47 16.97 13.49L16.97 13.49Q16.97 12.53 16.60 11.66Q16.22 10.80 15.60 10.15L15.60 10.15Q14.95 9.53 14.08 9.16Q13.20 8.78 12.22 8.78L12.22 8.78Q11.23 8.78 10.37 9.16Q9.50 9.53 8.88 10.15L8.88 10.15Q8.23 10.80 7.87 11.66Q7.51 12.53 7.51 13.49L7.51 13.49Q7.51 14.47 7.87 15.32Q8.23 16.18 8.88 16.80L8.88 16.80Q9.50 17.45 10.36 17.81Q11.21 18.17 12.22 18.17L12.22 18.17Q13.20 18.17 14.08 17.81Q14.95 17.45 15.60 16.80ZM9.58 16.10L9.58 16.10Q9.07 15.62 8.78 14.95Q8.50 14.28 8.50 13.49L8.50 13.49Q8.50 12.72 8.78 12.05Q9.07 11.38 9.58 10.85L9.58 10.85Q10.08 10.34 10.75 10.06Q11.42 9.77 12.19 9.77L12.19 9.77Q12.96 9.77 13.64 10.06Q14.33 10.34 14.83 10.85L14.83 10.85Q15.36 11.38 15.65 12.05Q15.94 12.72 15.94 13.49L15.94 13.49Q15.94 14.28 15.65 14.95Q15.36 15.62 14.83 16.10L14.83 16.10Q14.33 16.63 13.64 16.92Q12.96 17.21 12.19 17.21L12.19 17.21Q11.42 17.21 10.75 16.92Q10.08 16.63 9.58 16.10ZM24.14 17.23L24.14 17.23Q24.48 16.85 24.64 16.38Q24.79 15.91 24.79 15.48L24.79 15.48Q24.79 14.71 24.47 14.26Q24.14 13.80 23.66 13.51L23.66 13.51Q23.16 13.22 22.60 13.04Q22.03 12.86 21.53 12.65L21.53 12.65Q21.05 12.46 20.70 12.16Q20.35 11.86 20.35 11.33L20.35 11.33Q20.35 10.92 20.50 10.63Q20.64 10.34 20.86 10.15L20.86 10.15Q21.10 9.98 21.42 9.90Q21.74 9.82 22.06 9.82L22.06 9.82Q22.46 9.82 22.82 9.91Q23.18 10.01 23.52 10.20L23.52 10.20L23.52 11.45L24.43 11.45L24.43 9.70Q24.19 9.48 23.90 9.32Q23.62 9.17 23.30 9.05L23.30 9.05Q22.92 8.93 22.63 8.89Q22.34 8.86 22.03 8.86L22.03 8.86Q21.60 8.86 21.10 9.01Q20.59 9.17 20.21 9.48L20.21 9.48Q19.82 9.79 19.60 10.25Q19.37 10.70 19.37 11.35L19.37 11.35Q19.37 12.14 19.69 12.59Q20.02 13.03 20.52 13.27L20.52 13.27Q21.02 13.51 21.60 13.68Q22.18 13.85 22.66 14.06L22.66 14.06Q23.16 14.26 23.47 14.59Q23.78 14.93 23.78 15.55L23.78 15.55Q23.78 15.98 23.63 16.28Q23.47 16.58 23.21 16.80L23.21 16.80Q22.92 17.02 22.58 17.12Q22.25 17.23 21.89 17.23L21.89 17.23Q21.36 17.23 20.88 17.15Q20.40 17.06 19.94 16.78L19.94 16.78L19.94 15.55L19.06 15.55L19.06 17.30Q19.61 17.83 20.34 18.01Q21.07 18.19 21.84 18.19L21.84 18.19Q22.66 18.19 23.22 17.93Q23.78 17.66 24.14 17.23ZM31.08 9.77L31.08 9.77Q32.02 9.77 32.77 10.28Q33.53 10.80 33.96 11.62L33.96 11.62Q32.33 12.26 30.71 12.90Q29.09 13.54 27.46 14.18L27.46 14.18Q27.29 13.37 27.48 12.59Q27.67 11.81 28.15 11.18L28.15 11.18Q28.66 10.54 29.41 10.15Q30.17 9.77 31.08 9.77ZM34.22 16.92L34.22 16.92L33.62 16.20Q33.12 16.68 32.47 16.94Q31.82 17.21 31.08 17.21L31.08 17.21Q29.95 17.21 29.06 16.63Q28.18 16.06 27.74 15.12L27.74 15.12Q29.62 14.35 31.48 13.63Q33.34 12.91 35.21 12.17L35.21 12.17Q34.97 11.45 34.58 10.84Q34.20 10.22 33.70 9.79L33.70 9.79Q33.17 9.31 32.50 9.06Q31.82 8.81 31.08 8.81L31.08 8.81Q30.10 8.81 29.24 9.18Q28.39 9.55 27.74 10.18L27.74 10.18Q27.10 10.80 26.74 11.66Q26.38 12.53 26.38 13.49L26.38 13.49Q26.38 14.47 26.74 15.31Q27.10 16.15 27.74 16.80L27.74 16.80Q28.39 17.45 29.24 17.81Q30.10 18.17 31.08 18.17L31.08 18.17Q32.02 18.17 32.81 17.83Q33.60 17.50 34.22 16.92ZM36.96 18L41.59 18L41.59 17.06L39.41 17.06L39.41 9.96L42.41 9.96L42.41 9L39.41 9L39.41 5.54Q39.41 4.46 39.72 3.62Q40.03 2.78 40.58 2.18L40.58 2.18Q41.11 1.58 41.84 1.27Q42.58 0.96 43.39 0.94L43.39 0.94L43.39 0Q42.34 0.05 41.44 0.42Q40.54 0.79 39.86 1.49L39.86 1.49Q39.19 2.18 38.81 3.22Q38.42 4.25 38.42 5.57L38.42 5.57L38.42 9L36.96 9L36.96 9.96L38.42 9.96L38.42 17.06L36.96 17.06L36.96 18ZM44.23 18L48.86 18L48.86 17.06L47.06 17.06L47.06 9L44.23 9L44.23 9.94L46.08 9.94L46.08 17.06L44.23 17.06L44.23 18ZM47.38 5.81L47.38 5.81Q47.38 5.47 47.14 5.24Q46.90 5.02 46.58 5.02L46.58 5.02Q46.30 5.02 46.06 5.24Q45.82 5.47 45.82 5.81L45.82 5.81Q45.82 6.14 46.06 6.37Q46.30 6.60 46.58 6.60L46.58 6.60Q46.90 6.60 47.14 6.37Q47.38 6.14 47.38 5.81ZM50.54 18L55.18 18L55.18 17.06L53.40 17.06L53.40 13.08Q53.40 12.36 53.70 11.76Q54 11.16 54.53 10.70L54.53 10.70Q55.01 10.27 55.68 10.03Q56.35 9.79 57.10 9.79L57.10 9.79Q58.10 9.84 58.62 10.40Q59.14 10.97 59.18 11.76L59.18 11.76L59.18 17.06L57.31 17.06L57.31 18L61.94 18L61.94 17.06L60.17 17.06L60.17 11.50Q60.12 10.30 59.35 9.55Q58.58 8.81 57.26 8.81L57.26 8.81Q55.92 8.81 54.86 9.50Q53.81 10.20 53.33 11.33L53.33 11.33Q53.30 10.92 53.28 10.60Q53.26 10.27 53.23 9.86L53.23 9.86L53.21 9L50.69 9L50.69 9.94L52.42 9.94L52.42 17.06L50.54 17.06L50.54 18ZM79.42 16.92L79.42 16.92Q80.09 16.32 80.48 15.46Q80.88 14.59 80.88 13.54L80.88 13.54Q80.86 11.88 80.20 10.97Q79.54 10.06 78.55 9.55L78.55 9.55Q77.52 9.05 76.36 8.76Q75.19 8.47 74.26 8.04L74.26 8.04Q73.44 7.68 72.91 7.09Q72.38 6.50 72.38 5.42L72.38 5.42Q72.38 4.78 72.59 4.18Q72.79 3.58 73.20 3.10L73.20 3.10Q73.61 2.62 74.24 2.33Q74.88 2.04 75.74 2.04L75.74 2.04Q76.73 2.04 77.46 2.27Q78.19 2.50 78.65 2.78L78.65 2.78L78.65 4.90L79.61 4.90L79.61 2.30Q79.15 1.94 78.64 1.69Q78.12 1.44 77.64 1.32L77.64 1.32Q77.14 1.20 76.66 1.15Q76.18 1.10 75.77 1.10L75.77 1.10Q74.57 1.10 73.73 1.50Q72.89 1.90 72.36 2.54L72.36 2.54Q71.83 3.19 71.60 4.00Q71.38 4.80 71.40 5.59L71.40 5.59Q71.45 6.77 71.93 7.46Q72.41 8.16 73.15 8.59L73.15 8.59Q73.87 9 74.75 9.26Q75.62 9.53 76.46 9.79L76.46 9.79Q77.18 10.06 77.82 10.33Q78.46 10.61 78.94 11.09L78.94 11.09Q79.39 11.50 79.64 12.12Q79.90 12.74 79.90 13.58L79.90 13.58Q79.90 14.42 79.54 15.11Q79.18 15.79 78.62 16.27L78.62 16.27Q78.02 16.73 77.28 16.99Q76.54 17.26 75.72 17.26L75.72 17.26Q74.38 17.26 73.42 16.82Q72.46 16.39 71.81 15.79L71.81 15.79L71.81 13.63L70.85 13.63L70.85 16.20Q71.11 16.51 71.57 16.86Q72.02 17.21 72.67 17.50L72.67 17.50Q73.27 17.81 74.08 18Q74.88 18.19 75.82 18.19L75.82 18.19Q76.85 18.19 77.78 17.87Q78.72 17.54 79.42 16.92ZM82.30 18L86.93 18L86.93 17.06L85.06 17.06L85.06 0L82.37 0L82.37 0.94L84.07 0.94L84.07 17.06L82.30 17.06L82.30 18ZM97.18 18L99.84 18L99.84 17.06L98.06 17.06L98.06 9L97.27 9Q97.22 9.53 97.20 10.07Q97.18 10.61 97.18 11.11L97.18 11.11Q96.77 10.18 95.76 9.49Q94.75 8.81 93.34 8.81L93.34 8.81Q92.33 8.81 91.48 9.18Q90.62 9.55 89.98 10.18L89.98 10.18Q89.33 10.82 88.97 11.69Q88.61 12.55 88.61 13.49L88.61 13.49Q88.61 14.47 88.97 15.31Q89.33 16.15 89.98 16.80L89.98 16.80Q90.62 17.45 91.48 17.81Q92.33 18.17 93.34 18.17L93.34 18.17Q94.06 18.17 94.69 17.98Q95.33 17.78 95.83 17.45L95.83 17.45Q96.31 17.14 96.66 16.74Q97.01 16.34 97.18 15.91L97.18 15.91Q97.18 16.22 97.18 16.48Q97.18 16.73 97.18 17.02L97.18 17.02L97.18 18ZM93.34 9.77L93.34 9.77Q94.10 9.77 94.78 10.04Q95.45 10.32 95.98 10.82L95.98 10.82Q96.48 11.33 96.78 12.01Q97.08 12.70 97.08 13.49L97.08 13.49Q97.08 14.28 96.78 14.96Q96.48 15.65 95.95 16.15L95.95 16.15Q95.45 16.66 94.78 16.93Q94.10 17.21 93.34 17.21L93.34 17.21Q92.57 17.21 91.92 16.94Q91.27 16.68 90.77 16.20L90.77 16.20Q90.22 15.70 89.90 15Q89.59 14.30 89.59 13.49L89.59 13.49Q89.59 12.72 89.87 12.05Q90.14 11.38 90.65 10.87L90.65 10.87Q91.13 10.34 91.82 10.06Q92.52 9.77 93.34 9.77ZM101.52 17.06L101.52 18L104.18 18L104.18 17.02Q104.18 16.73 104.18 16.48Q104.18 16.22 104.18 15.91L104.18 15.91Q104.33 16.34 104.69 16.74Q105.05 17.14 105.55 17.45L105.55 17.45Q106.03 17.78 106.67 17.98Q107.30 18.17 108.02 18.17L108.02 18.17Q109.01 18.17 109.87 17.81Q110.74 17.45 111.38 16.80L111.38 16.80Q112.01 16.15 112.38 15.31Q112.75 14.47 112.75 13.49L112.75 13.49Q112.75 12.53 112.38 11.66Q112.01 10.80 111.38 10.18L111.38 10.18Q110.74 9.55 109.87 9.18Q109.01 8.81 108.02 8.81L108.02 8.81Q107.33 8.81 106.70 9Q106.08 9.19 105.58 9.50L105.58 9.50Q105.07 9.84 104.74 10.24Q104.40 10.63 104.26 11.04L104.26 11.04Q104.28 10.68 104.28 10.48Q104.28 10.27 104.28 9.91L104.28 9.91L104.28 0L101.62 0L101.62 0.94L103.30 0.94L103.30 17.06L101.52 17.06ZM108.02 9.77L108.02 9.77Q108.79 9.77 109.46 10.04Q110.14 10.32 110.64 10.80L110.64 10.80Q111.17 11.30 111.46 12Q111.74 12.70 111.74 13.49L111.74 13.49Q111.74 14.28 111.46 14.95Q111.17 15.62 110.69 16.13L110.69 16.13Q110.16 16.63 109.49 16.92Q108.82 17.21 108.02 17.21L108.02 17.21Q107.26 17.21 106.58 16.93Q105.91 16.66 105.41 16.15L105.41 16.15Q104.88 15.65 104.58 14.96Q104.28 14.28 104.28 13.49L104.28 13.49Q104.28 12.72 104.56 12.05Q104.83 11.38 105.34 10.87L105.34 10.87Q105.84 10.34 106.52 10.06Q107.21 9.77 108.02 9.77Z"/></svg>