<svg xmlns="http://www.w3.org/2000/svg" xmlns:xlink="http://www.w3.org/1999/xlink" width="191.232" height="30.240000000000002"><path fill="black" d="M9.55 24.24L9.55 24.24Q7.85 24.24 6.40 23.60Q4.94 22.97 3.86 21.82Q2.78 20.66 2.18 19.14Q1.58 17.62 1.58 15.86L1.58 15.86Q1.58 14.09 2.17 12.58Q2.76 11.06 3.84 9.94Q4.92 8.81 6.36 8.17Q7.80 7.54 9.50 7.54L9.50 7.54Q11.21 7.54 12.66 8.17Q14.11 8.81 15.18 9.94Q16.25 11.06 16.85 12.59Q17.45 14.11 17.45 15.89L17.45 15.89Q17.45 17.64 16.86 19.16Q16.27 20.69 15.19 21.83Q14.11 22.97 12.68 23.60Q11.26 24.24 9.55 24.24ZM9.50 23.50L9.50 23.50Q11.54 23.50 13.15 22.49Q14.76 21.48 15.70 19.75Q16.63 18.02 16.63 15.86L16.63 15.86Q16.63 14.26 16.09 12.88Q15.55 11.50 14.59 10.46Q13.63 9.43 12.34 8.86Q11.04 8.28 9.50 8.28L9.50 8.28Q7.46 8.28 5.86 9.28Q4.25 10.27 3.32 11.99Q2.40 13.70 2.40 15.86L2.40 15.86Q2.40 17.47 2.94 18.86Q3.48 20.26 4.44 21.30Q5.40 22.34 6.70 22.92Q7.99 23.50 9.50 23.50ZM25.18 24.24L25.18 24.24Q23.88 24.24 22.86 23.63Q21.84 23.02 21.26 21.92Q20.69 20.83 20.69 19.39L20.69 19.39L20.69 12.96L21.43 12.96L21.43 19.37Q21.43 20.59 21.90 21.54Q22.37 22.49 23.22 23.03Q24.07 23.57 25.18 23.57L25.18 23.57Q26.86 23.57 27.89 22.39Q28.92 21.22 28.92 19.37L28.92 19.37L28.92 12.96L29.66 12.96L29.66 19.39Q29.66 20.81 29.09 21.91Q28.51 23.02 27.50 23.63Q26.50 24.24 25.18 24.24ZM35.74 24L34.99 24L34.99 8.26L35.74 8.26L35.74 24ZM38.64 13.61L32.06 13.61L32.06 12.96L38.64 12.96L38.64 13.61ZM43.18 24L42.43 24L42.43 10.66Q42.43 9.60 42.88 8.80Q43.32 7.99 44.11 7.54Q44.90 7.08 45.91 7.08L45.91 7.08Q46.68 7.08 47.33 7.36Q47.98 7.63 48.46 8.14L48.46 8.14L47.95 8.64Q47.50 8.16 46.98 7.96Q46.46 7.75 45.89 7.75L45.89 7.75Q44.62 7.75 43.90 8.57Q43.18 9.38 43.18 10.75L43.18 10.75L43.18 24ZM47.26 13.61L39.50 13.61L39.50 12.96L47.26 12.96L47.26 13.61ZM50.69 24L49.94 24L49.94 12.96L50.69 12.96L50.69 24ZM50.30 10.20L50.30 10.20Q49.99 10.20 49.78 9.96Q49.56 9.72 49.56 9.41L49.56 9.41Q49.56 9.07 49.78 8.86Q49.99 8.64 50.30 8.64L50.30 8.64Q50.64 8.64 50.87 8.86Q51.10 9.07 51.10 9.41L51.10 9.41Q51.10 9.72 50.87 9.96Q50.64 10.20 50.30 10.20ZM57.05 24L56.30 24L56.30 8.26L57.05 8.26L57.05 24ZM59.95 13.61L53.38 13.61L53.38 12.96L59.95 12.96L59.95 13.61ZM68.11 19.06L67.37 19.06L73.70 7.78L74.54 7.78L68.11 19.06ZM79.34 19.58L67.37 19.58L67.37 19.06L67.68 18.91L79.34 18.91L79.34 19.58ZM76.78 24L76.03 24L76.03 12.96L76.78 12.96L76.78 24ZM88.42 24.24L88.42 24.24Q86.66 24.24 85.21 23.21Q83.76 22.18 82.90 20.29Q82.03 18.41 82.03 15.86L82.03 15.86Q82.03 13.30 82.88 11.44Q83.74 9.58 85.18 8.56Q86.62 7.54 88.37 7.54L88.37 7.54Q90.14 7.54 91.58 8.56Q93.02 9.58 93.88 11.45Q94.73 13.32 94.73 15.89L94.73 15.89Q94.73 18.43 93.88 20.32Q93.02 22.20 91.60 23.22Q90.17 24.24 88.42 24.24ZM88.37 23.52L88.37 23.52Q89.95 23.52 91.21 22.60Q92.47 21.67 93.22 19.96Q93.96 18.24 93.96 15.86L93.96 15.86Q93.96 13.51 93.22 11.81Q92.47 10.10 91.21 9.18Q89.95 8.26 88.37 8.26L88.37 8.26Q86.81 8.26 85.55 9.18Q84.29 10.10 83.54 11.81Q82.80 13.51 82.80 15.86L82.80 15.86Q82.80 18.24 83.54 19.96Q84.29 21.67 85.55 22.60Q86.81 23.52 88.37 23.52ZM104.23 24.24L104.23 24.24Q102.48 24.24 101.03 23.21Q99.58 22.18 98.71 20.29Q97.85 18.41 97.85 15.86L97.85 15.86Q97.85 13.30 98.70 11.44Q99.55 9.58 100.99 8.56Q102.43 7.54 104.18 7.54L104.18 7.54Q105.96 7.54 107.40 8.56Q108.84 9.58 109.69 11.45Q110.54 13.32 110.54 15.89L110.54 15.89Q110.54 18.43 109.69 20.32Q108.84 22.20 107.41 23.22Q105.98 24.24 104.23 24.24ZM104.18 23.52L104.18 23.52Q105.77 23.52 107.03 22.60Q108.29 21.67 109.03 19.96Q109.78 18.24 109.78 15.86L109.78 15.86Q109.78 13.51 109.03 11.81Q108.29 10.10 107.03 9.18Q105.77 8.26 104.18 8.26L104.18 8.26Q102.62 8.26 101.36 9.18Q100.10 10.10 99.36 11.81Q98.62 13.51 98.62 15.86L98.62 15.86Q98.62 18.24 99.36 19.96Q100.10 21.67 101.36 22.60Q102.62 23.52 104.18 23.52ZM128.83 24L128.09 24L128.09 17.40Q128.09 15.60 127.06 14.50Q126.02 13.39 124.30 13.39L124.30 13.39Q123.12 13.39 122.22 13.91Q121.32 14.42 120.80 15.31Q120.29 16.20 120.29 17.38L120.29 17.38L119.78 17.09Q119.78 15.84 120.40 14.86Q121.01 13.87 122.05 13.30Q123.10 12.72 124.42 12.72L124.42 12.72Q125.74 12.72 126.73 13.32Q127.73 13.92 128.28 14.98Q128.83 16.03 128.83 17.40L128.83 17.40L128.83 24ZM120.29 24L119.54 24L119.54 12.96L120.29 12.96L120.29 24ZM137.40 24.24L137.40 24.24Q135.79 24.24 134.51 23.47Q133.22 22.70 132.47 21.38Q131.71 20.06 131.71 18.43L131.71 18.43Q131.71 16.82 132.47 15.53Q133.22 14.23 134.51 13.48Q135.79 12.72 137.40 12.72L137.40 12.72Q138.98 12.72 140.27 13.48Q141.55 14.23 142.31 15.53Q143.06 16.82 143.06 18.43L143.06 18.43Q143.06 20.09 142.31 21.40Q141.55 22.70 140.27 23.47Q138.98 24.24 137.40 24.24ZM137.40 23.54L137.40 23.54Q138.79 23.54 139.90 22.87Q141 22.20 141.65 21.04Q142.30 19.87 142.30 18.41L142.30 18.41Q142.30 16.99 141.65 15.86Q141 14.74 139.90 14.08Q138.79 13.42 137.40 13.42L137.40 13.42Q136.01 13.42 134.89 14.08Q133.78 14.74 133.13 15.86Q132.48 16.99 132.48 18.43L132.48 18.43Q132.48 19.90 133.13 21.05Q133.78 22.20 134.89 22.87Q136.01 23.54 137.40 23.54ZM146.93 24L146.18 24L146.18 12.96L146.93 12.96L146.93 24ZM146.93 17.26L146.93 17.26L146.42 17.11Q146.42 15 147.54 13.86Q148.66 12.72 150.34 12.72L150.34 12.72Q151.15 12.72 151.86 13.01Q152.57 13.30 153.17 13.92L153.17 13.92L152.66 14.47Q152.16 13.92 151.57 13.68Q150.98 13.44 150.22 13.44L150.22 13.44Q148.75 13.44 147.84 14.44Q146.93 15.43 146.93 17.26ZM156.34 24L155.59 24L155.59 12.96L156.34 12.96L156.34 24ZM164.21 24L163.46 24L163.46 17.04Q163.46 15.41 162.50 14.40Q161.54 13.39 160.03 13.39L160.03 13.39Q159.02 13.39 158.18 13.85Q157.34 14.30 156.84 15.11Q156.34 15.91 156.34 16.99L156.34 16.99L155.83 16.97Q155.83 15.70 156.40 14.74Q156.96 13.78 157.93 13.25Q158.90 12.72 160.10 12.72L160.10 12.72Q161.28 12.72 162.20 13.25Q163.13 13.78 163.67 14.74Q164.21 15.70 164.21 16.99L164.21 16.99L164.21 24ZM172.08 24L171.34 24L171.34 17.04Q171.34 15.41 170.38 14.40Q169.42 13.39 167.90 13.39L167.90 13.39Q166.90 13.39 166.06 13.85Q165.22 14.30 164.71 15.11Q164.21 15.91 164.21 16.99L164.21 16.99L163.70 16.97Q163.70 15.67 164.28 14.72Q164.86 13.78 165.83 13.25Q166.80 12.72 167.98 12.72L167.98 12.72Q169.15 12.72 170.08 13.25Q171 13.78 171.54 14.75Q172.08 15.72 172.08 17.02L172.08 17.02L172.08 24ZM180.65 24.24L180.65 24.24Q179.02 24.24 177.73 23.48Q176.45 22.73 175.70 21.43Q174.96 20.14 174.96 18.50L174.96 18.50Q174.96 16.87 175.70 15.56Q176.45 14.26 177.72 13.49Q178.99 12.72 180.60 12.72L180.60 12.72Q181.87 12.72 182.89 13.19Q183.91 13.66 184.60 14.52Q185.28 15.38 185.54 16.58L185.54 16.58L185.54 20.35Q185.26 21.55 184.57 22.43Q183.89 23.30 182.89 23.77Q181.90 24.24 180.65 24.24ZM180.74 23.54L180.74 23.54Q182.81 23.54 184.03 22.16Q185.26 20.78 185.26 18.50L185.26 18.50Q185.26 16.97 184.69 15.83Q184.13 14.69 183.10 14.05Q182.06 13.42 180.70 13.42L180.70 13.42Q179.26 13.42 178.14 14.08Q177.02 14.74 176.38 15.88Q175.73 17.02 175.73 18.48L175.73 18.48Q175.73 19.94 176.38 21.08Q177.02 22.22 178.16 22.88Q179.30 23.54 180.74 23.54ZM185.98 24L185.23 24L185.23 21.05L185.45 18.31L185.23 15.65L185.23 12.96L185.98 12.96L185.98 24ZM190.56 24L189.82 24L189.82 7.30L190.56 7.30L190.56 24Z"/></svg>