<svg xmlns="http://www.w3.org/2000/svg" xmlns:xlink="http://www.w3.org/1999/xlink" width="238.09199999999998" height="32.784"><path fill="black" d="M4.39 25.58L1.68 25.58L1.68 8.30L4.28 8.30L10.26 20.54L16.24 8.30L18.84 8.30L18.84 25.58L16.14 25.58L16.14 14.51L10.84 25.58L9.68 25.58L4.39 14.51L4.39 25.58ZM25.82 25.94L25.82 25.94Q24.42 25.94 23.45 25.41Q22.48 24.88 21.98 23.99Q21.48 23.10 21.48 22.03L21.48 22.03Q21.48 21.10 21.79 20.35Q22.10 19.60 22.75 19.05Q23.40 18.50 24.43 18.16L24.43 18.16Q25.21 17.90 26.26 17.70Q27.31 17.50 28.54 17.32Q29.77 17.15 31.12 16.94L31.12 16.94L30.08 17.53Q30.10 16.19 29.48 15.55Q28.87 14.92 27.42 14.92L27.42 14.92Q26.54 14.92 25.73 15.32Q24.91 15.73 24.59 16.73L24.59 16.73L21.95 15.90Q22.43 14.26 23.78 13.26Q25.13 12.26 27.42 12.26L27.42 12.26Q29.15 12.26 30.46 12.83Q31.78 13.39 32.41 14.68L32.41 14.68Q32.76 15.36 32.83 16.07Q32.90 16.79 32.90 17.63L32.90 17.63L32.90 25.58L30.37 25.58L30.37 22.78L30.79 23.23Q29.92 24.64 28.75 25.29Q27.58 25.94 25.82 25.94ZM26.40 23.64L26.40 23.64Q27.38 23.64 28.08 23.29Q28.78 22.94 29.19 22.44Q29.60 21.94 29.75 21.49L29.75 21.49Q29.98 20.94 30.01 20.23Q30.04 19.51 30.04 19.07L30.04 19.07L30.92 19.33Q29.62 19.54 28.68 19.69Q27.74 19.85 27.07 19.99Q26.40 20.12 25.88 20.29L25.88 20.29Q25.38 20.47 25.03 20.71Q24.68 20.95 24.50 21.26Q24.31 21.58 24.31 22.00L24.31 22.00Q24.31 22.48 24.55 22.84Q24.79 23.21 25.25 23.42Q25.72 23.64 26.40 23.64ZM47.92 25.58L44.99 25.58L44.99 19.34Q44.99 18.73 44.90 17.99Q44.82 17.24 44.51 16.55Q44.21 15.86 43.60 15.42Q43.00 14.98 41.96 14.98L41.96 14.98Q41.41 14.98 40.87 15.16Q40.33 15.34 39.89 15.77Q39.46 16.21 39.19 16.97Q38.93 17.74 38.93 18.92L38.93 18.92L37.21 18.19Q37.21 16.54 37.85 15.19Q38.50 13.85 39.74 13.05Q40.99 12.25 42.82 12.25L42.82 12.25Q44.26 12.25 45.19 12.73Q46.13 13.21 46.68 13.96Q47.23 14.70 47.50 15.54Q47.76 16.38 47.84 17.13Q47.92 17.88 47.92 18.35L47.92 18.35L47.92 25.58ZM38.93 25.58L36 25.58L36 12.62L38.58 12.62L38.58 16.64L38.93 16.64L38.93 25.58ZM53.94 25.58L51.04 25.58L51.04 12.62L53.59 12.62L53.59 15.78L53.28 15.37Q53.52 14.72 53.92 14.19Q54.32 13.66 54.89 13.31L54.89 13.31Q55.37 12.98 55.95 12.80Q56.53 12.61 57.14 12.57Q57.76 12.53 58.33 12.62L58.33 12.62L58.33 15.32Q57.76 15.16 57.01 15.22Q56.26 15.28 55.66 15.64L55.66 15.64Q55.06 15.96 54.68 16.46Q54.30 16.97 54.12 17.61Q53.94 18.25 53.94 19.00L53.94 19.00L53.94 25.58ZM66.10 25.94L66.10 25.94Q64.15 25.94 62.70 25.07Q61.25 24.19 60.45 22.65Q59.65 21.11 59.65 19.10L59.65 19.10Q59.65 17.06 60.47 15.53Q61.28 13.99 62.74 13.13Q64.19 12.26 66.10 12.26L66.10 12.26Q68.05 12.26 69.50 13.14Q70.96 14.02 71.76 15.56Q72.56 17.10 72.56 19.10L72.56 19.10Q72.56 21.12 71.75 22.66Q70.94 24.20 69.49 25.07Q68.04 25.94 66.10 25.94ZM66.10 23.23L66.10 23.23Q67.82 23.23 68.66 22.08Q69.50 20.93 69.50 19.10L69.50 19.10Q69.50 17.22 68.65 16.10Q67.80 14.98 66.10 14.98L66.10 14.98Q64.93 14.98 64.18 15.50Q63.43 16.02 63.07 16.95Q62.71 17.88 62.71 19.10L62.71 19.10Q62.71 20.99 63.57 22.11Q64.43 23.23 66.10 23.23ZM81.43 25.94L81.43 25.94Q79.54 25.94 78.25 25.04Q76.97 24.14 76.32 22.59Q75.67 21.04 75.67 19.10L75.67 19.10Q75.67 17.15 76.32 15.60Q76.97 14.05 78.22 13.16Q79.48 12.26 81.32 12.26L81.32 12.26Q83.16 12.26 84.51 13.16Q85.86 14.05 86.60 15.59Q87.35 17.14 87.35 19.10L87.35 19.10Q87.35 21.05 86.62 22.60Q85.88 24.14 84.55 25.04Q83.22 25.94 81.43 25.94ZM78.10 31.34L75.18 31.34L75.18 12.62L77.74 12.62L77.74 21.72L78.10 21.72L78.10 31.34ZM80.99 23.35L80.99 23.35Q82.12 23.35 82.85 22.79Q83.58 22.22 83.93 21.26Q84.29 20.29 84.29 19.10L84.29 19.10Q84.29 17.93 83.93 16.96Q83.57 16.00 82.81 15.43Q82.06 14.86 80.89 14.86L80.89 14.86Q79.79 14.86 79.09 15.39Q78.40 15.92 78.07 16.88Q77.74 17.83 77.74 19.10L77.74 19.10Q77.74 20.36 78.07 21.32Q78.40 22.28 79.11 22.82Q79.82 23.35 80.99 23.35ZM95.88 25.94L95.88 25.94Q93.91 25.94 92.42 25.09Q90.94 24.24 90.10 22.73Q89.27 21.22 89.27 19.25L89.27 19.25Q89.27 17.12 90.08 15.56Q90.90 13.99 92.35 13.13Q93.80 12.26 95.71 12.26L95.71 12.26Q97.73 12.26 99.14 13.21Q100.55 14.15 101.23 15.86Q101.92 17.58 101.75 19.91L101.75 19.91L98.88 19.91L98.88 18.85Q98.87 16.74 98.14 15.77Q97.40 14.80 95.83 14.80L95.83 14.80Q94.06 14.80 93.19 15.89Q92.33 16.99 92.33 19.10L92.33 19.10Q92.33 21.07 93.19 22.15Q94.06 23.23 95.71 23.23L95.71 23.23Q96.78 23.23 97.55 22.76Q98.33 22.28 98.75 21.38L98.75 21.38L101.60 22.25Q100.86 24 99.31 24.97Q97.75 25.94 95.88 25.94ZM100.33 19.91L91.42 19.91L91.42 17.72L100.33 17.72L100.33 19.91ZM113.23 25.58L110.11 25.58L116.06 11.04L108.52 11.04L108.52 8.30L119.16 8.30L119.16 11.04L113.23 25.58ZM128.26 25.94L128.26 25.94Q126.42 25.94 125.02 25.16Q123.61 24.37 122.83 22.97Q122.04 21.56 122.04 19.73L122.04 19.73L122.04 14.16Q122.04 12.32 122.83 10.92Q123.61 9.52 125.02 8.73Q126.42 7.94 128.26 7.94L128.26 7.94Q130.09 7.94 131.49 8.73Q132.89 9.52 133.68 10.92Q134.47 12.32 134.47 14.16L134.47 14.16L134.47 19.73Q134.47 21.56 133.68 22.97Q132.89 24.37 131.49 25.16Q130.09 25.94 128.26 25.94ZM128.26 23.20L128.26 23.20Q129.17 23.20 129.91 22.76Q130.66 22.32 131.09 21.58Q131.52 20.84 131.52 19.93L131.52 19.93L131.52 13.94Q131.52 13.02 131.09 12.28Q130.66 11.54 129.91 11.11Q129.17 10.67 128.26 10.67L128.26 10.67Q127.34 10.67 126.60 11.11Q125.86 11.54 125.42 12.28Q124.99 13.02 124.99 13.94L124.99 13.94L124.99 19.93Q124.99 20.84 125.42 21.58Q125.86 22.32 126.60 22.76Q127.34 23.20 128.26 23.20ZM144.05 25.94L144.05 25.94Q142.21 25.94 140.81 25.16Q139.40 24.37 138.62 22.97Q137.83 21.56 137.83 19.73L137.83 19.73L137.83 14.16Q137.83 12.32 138.62 10.92Q139.40 9.52 140.81 8.73Q142.21 7.94 144.05 7.94L144.05 7.94Q145.88 7.94 147.28 8.73Q148.68 9.52 149.47 10.92Q150.26 12.32 150.26 14.16L150.26 14.16L150.26 19.73Q150.26 21.56 149.47 22.97Q148.68 24.37 147.28 25.16Q145.88 25.94 144.05 25.94ZM144.05 23.20L144.05 23.20Q144.96 23.20 145.70 22.76Q146.45 22.32 146.88 21.58Q147.31 20.84 147.31 19.93L147.31 19.93L147.31 13.94Q147.31 13.02 146.88 12.28Q146.45 11.54 145.70 11.11Q144.96 10.67 144.05 10.67L144.05 10.67Q143.14 10.67 142.39 11.11Q141.65 11.54 141.22 12.28Q140.78 13.02 140.78 13.94L140.78 13.94L140.78 19.93Q140.78 20.84 141.22 21.58Q141.65 22.32 142.39 22.76Q143.14 23.20 144.05 23.20ZM170.32 25.58L167.39 25.58L167.39 19.34Q167.39 18.73 167.30 17.99Q167.22 17.24 166.91 16.55Q166.61 15.86 166.00 15.42Q165.40 14.98 164.36 14.98L164.36 14.98Q163.81 14.98 163.27 15.16Q162.73 15.34 162.29 15.77Q161.86 16.21 161.59 16.97Q161.33 17.74 161.33 18.92L161.33 18.92L159.61 18.19Q159.61 16.54 160.25 15.19Q160.90 13.85 162.14 13.05Q163.39 12.25 165.22 12.25L165.22 12.25Q166.66 12.25 167.59 12.73Q168.53 13.21 169.08 13.96Q169.63 14.70 169.90 15.54Q170.16 16.38 170.24 17.13Q170.32 17.88 170.32 18.35L170.32 18.35L170.32 25.58ZM161.33 25.58L158.40 25.58L158.40 12.62L160.98 12.62L160.98 16.64L161.33 16.64L161.33 25.58ZM178.96 25.94L178.96 25.94Q177.01 25.94 175.56 25.07Q174.11 24.19 173.31 22.65Q172.51 21.11 172.51 19.10L172.51 19.10Q172.51 17.06 173.33 15.53Q174.14 13.99 175.60 13.13Q177.05 12.26 178.96 12.26L178.96 12.26Q180.91 12.26 182.36 13.14Q183.82 14.02 184.62 15.56Q185.42 17.10 185.42 19.10L185.42 19.10Q185.42 21.12 184.61 22.66Q183.80 24.20 182.35 25.07Q180.90 25.94 178.96 25.94ZM178.96 23.23L178.96 23.23Q180.68 23.23 181.52 22.08Q182.36 20.93 182.36 19.10L182.36 19.10Q182.36 17.22 181.51 16.10Q180.66 14.98 178.96 14.98L178.96 14.98Q177.79 14.98 177.04 15.50Q176.29 16.02 175.93 16.95Q175.57 17.88 175.57 19.10L175.57 19.10Q175.57 20.99 176.43 22.11Q177.29 23.23 178.96 23.23ZM190.97 25.58L188.06 25.58L188.06 12.62L190.62 12.62L190.62 15.78L190.31 15.37Q190.55 14.72 190.95 14.19Q191.35 13.66 191.92 13.31L191.92 13.31Q192.40 12.98 192.98 12.80Q193.56 12.61 194.17 12.57Q194.78 12.53 195.36 12.62L195.36 12.62L195.36 15.32Q194.78 15.16 194.03 15.22Q193.28 15.28 192.68 15.64L192.68 15.64Q192.08 15.96 191.71 16.46Q191.33 16.97 191.15 17.61Q190.97 18.25 190.97 19.00L190.97 19.00L190.97 25.58ZM216.10 25.58L213.20 25.58L213.20 17.71Q213.20 16.38 212.54 15.63Q211.88 14.88 210.76 14.88L210.76 14.88Q210.06 14.88 209.51 15.20Q208.96 15.52 208.63 16.13Q208.31 16.75 208.31 17.60L208.31 17.60L207.02 16.85Q207.01 15.50 207.63 14.48Q208.25 13.45 209.30 12.88Q210.36 12.30 211.66 12.30L211.66 12.30Q213.80 12.30 214.95 13.59Q216.10 14.88 216.10 16.98L216.10 16.98L216.10 25.58ZM200.53 25.58L197.62 25.58L197.62 12.62L200.17 12.62L200.17 16.64L200.53 16.64L200.53 25.58ZM208.31 25.58L205.43 25.58L205.43 17.75Q205.43 16.39 204.77 15.64Q204.11 14.88 202.97 14.88L202.97 14.88Q201.86 14.88 201.20 15.64Q200.53 16.39 200.53 17.60L200.53 17.60L199.24 16.74Q199.24 15.48 199.86 14.47Q200.48 13.46 201.55 12.88Q202.61 12.30 203.93 12.30L203.93 12.30Q205.38 12.30 206.36 12.92Q207.34 13.54 207.82 14.60Q208.31 15.66 208.31 16.99L208.31 16.99L208.31 25.58ZM222.84 25.94L222.84 25.94Q221.44 25.94 220.46 25.41Q219.49 24.88 218.99 23.99Q218.50 23.10 218.50 22.03L218.50 22.03Q218.50 21.10 218.81 20.35Q219.12 19.60 219.77 19.05Q220.42 18.50 221.45 18.16L221.45 18.16Q222.23 17.90 223.28 17.70Q224.33 17.50 225.56 17.32Q226.79 17.15 228.13 16.94L228.13 16.94L227.10 17.53Q227.11 16.19 226.50 15.55Q225.89 14.92 224.44 14.92L224.44 14.92Q223.56 14.92 222.74 15.32Q221.93 15.73 221.60 16.73L221.60 16.73L218.96 15.90Q219.44 14.26 220.79 13.26Q222.14 12.26 224.44 12.26L224.44 12.26Q226.16 12.26 227.48 12.83Q228.79 13.39 229.43 14.68L229.43 14.68Q229.78 15.36 229.85 16.07Q229.92 16.79 229.92 17.63L229.92 17.63L229.92 25.58L227.39 25.58L227.39 22.78L227.81 23.23Q226.93 24.64 225.76 25.29Q224.59 25.94 222.84 25.94ZM223.42 23.64L223.42 23.64Q224.40 23.64 225.10 23.29Q225.79 22.94 226.21 22.44Q226.62 21.94 226.76 21.49L226.76 21.49Q226.99 20.94 227.02 20.23Q227.05 19.51 227.05 19.07L227.05 19.07L227.94 19.33Q226.63 19.54 225.70 19.69Q224.76 19.85 224.09 19.99Q223.42 20.12 222.90 20.29L222.90 20.29Q222.40 20.47 222.05 20.71Q221.70 20.95 221.51 21.26Q221.33 21.58 221.33 22.00L221.33 22.00Q221.33 22.48 221.57 22.84Q221.81 23.21 222.27 23.42Q222.73 23.64 223.42 23.64ZM236.17 25.58L233.28 25.58L233.28 7.94L236.17 7.94L236.17 25.58Z"/></svg>