<svg xmlns="http://www.w3.org/2000/svg" xmlns:xlink="http://www.w3.org/1999/xlink" width="129.60000000000002" height="30.240000000000002"><path fill="black" d="M6.86 23.81L6.86 23.81Q5.09 23.81 3.76 23.17Q2.42 22.54 1.51 21.43L1.51 21.43L2.81 20.14Q3.65 21.14 4.69 21.62Q5.74 22.10 6.94 22.10L6.94 22.10Q8.59 22.10 9.58 21.25Q10.56 20.40 10.56 19.03L10.56 19.03Q10.56 18.07 10.09 17.48Q9.62 16.90 8.84 16.54Q8.06 16.18 7.14 15.92Q6.22 15.67 5.29 15.37Q4.37 15.07 3.59 14.59Q2.81 14.11 2.34 13.33Q1.87 12.55 1.87 11.30L1.87 11.30Q1.87 9.82 2.57 8.72Q3.26 7.63 4.52 7.03Q5.78 6.43 7.46 6.43L7.46 6.43Q8.98 6.43 10.18 6.92Q11.38 7.42 12.17 8.30L12.17 8.30L10.90 9.60Q10.18 8.86 9.34 8.50Q8.50 8.14 7.44 8.14L7.44 8.14Q5.83 8.14 4.87 8.94Q3.91 9.74 3.91 11.09L3.91 11.09Q3.91 12 4.39 12.55Q4.87 13.10 5.64 13.43Q6.41 13.75 7.34 13.99Q8.28 14.23 9.22 14.53Q10.15 14.83 10.93 15.31Q11.71 15.79 12.19 16.61Q12.67 17.42 12.67 18.74L12.67 18.74Q12.67 20.28 11.94 21.42Q11.21 22.56 9.90 23.18Q8.59 23.81 6.86 23.81ZM21.60 23.81L21.60 23.81Q18.89 23.81 17.54 22.33Q16.20 20.86 16.20 17.83L16.20 17.83L16.20 6.72L18.24 6.72L18.24 17.81Q18.24 19.92 19.08 20.98Q19.92 22.03 21.60 22.03L21.60 22.03Q23.28 22.03 24.13 20.98Q24.98 19.92 24.98 17.81L24.98 17.81L24.98 6.72L27.02 6.72L27.02 17.83Q27.02 20.86 25.67 22.33Q24.31 23.81 21.60 23.81ZM35.66 23.81L35.66 23.81Q33.89 23.81 32.56 23.17Q31.22 22.54 30.31 21.43L30.31 21.43L31.61 20.14Q32.45 21.14 33.49 21.62Q34.54 22.10 35.74 22.10L35.74 22.10Q37.39 22.10 38.38 21.25Q39.36 20.40 39.36 19.03L39.36 19.03Q39.36 18.07 38.89 17.48Q38.42 16.90 37.64 16.54Q36.86 16.18 35.94 15.92Q35.02 15.67 34.09 15.37Q33.17 15.07 32.39 14.59Q31.61 14.11 31.14 13.33Q30.67 12.55 30.67 11.30L30.67 11.30Q30.67 9.82 31.37 8.72Q32.06 7.63 33.32 7.03Q34.58 6.43 36.26 6.43L36.26 6.43Q37.78 6.43 38.98 6.92Q40.18 7.42 40.97 8.30L40.97 8.30L39.70 9.60Q38.98 8.86 38.14 8.50Q37.30 8.14 36.24 8.14L36.24 8.14Q34.63 8.14 33.67 8.94Q32.71 9.74 32.71 11.09L32.71 11.09Q32.71 12 33.19 12.55Q33.67 13.10 34.44 13.43Q35.21 13.75 36.14 13.99Q37.08 14.23 38.02 14.53Q38.95 14.83 39.73 15.31Q40.51 15.79 40.99 16.61Q41.47 17.42 41.47 18.74L41.47 18.74Q41.47 20.28 40.74 21.42Q40.01 22.56 38.70 23.18Q37.39 23.81 35.66 23.81ZM55.73 23.52L48.19 23.52Q47.04 23.52 46.28 22.76Q45.53 22.01 45.53 20.86L45.53 20.86L45.53 9.38Q45.53 8.23 46.28 7.48Q47.04 6.72 48.19 6.72L48.19 6.72L55.73 6.72L55.73 8.50L48.82 8.50Q48.26 8.50 47.90 8.87Q47.54 9.24 47.54 9.77L47.54 9.77L47.54 20.47Q47.54 21 47.90 21.37Q48.26 21.74 48.82 21.74L48.82 21.74L55.73 21.74L55.73 23.52ZM55.22 15.96L46.56 15.96L46.56 14.26L55.22 14.26L55.22 15.96ZM75.41 23.52L73.61 23.52L73.61 6.72L76.15 6.72L79.46 16.32L78.94 16.32L82.25 6.72L84.79 6.72L84.79 23.52L82.99 23.52L82.99 7.92L83.38 7.92L79.92 18.07L78.50 18.07L75.05 7.92L75.41 7.92L75.41 23.52ZM93.62 23.76L93.62 23.76Q92.02 23.76 90.78 23.02Q89.54 22.27 88.85 20.92Q88.15 19.56 88.15 17.81L88.15 17.81L88.15 17.59Q88.15 15.84 88.85 14.53Q89.54 13.22 90.78 12.48Q92.02 11.74 93.62 11.74L93.62 11.74Q95.23 11.74 96.46 12.47Q97.68 13.20 98.38 14.51Q99.07 15.82 99.07 17.54L99.07 17.54L99.07 17.81Q99.07 19.56 98.38 20.92Q97.68 22.27 96.46 23.02Q95.23 23.76 93.62 23.76ZM93.62 22.22L93.62 22.22Q94.68 22.22 95.47 21.68Q96.26 21.14 96.70 20.15Q97.13 19.15 97.13 17.81L97.13 17.81L97.13 17.54Q97.13 15.58 96.17 14.42Q95.21 13.27 93.62 13.27L93.62 13.27Q92.57 13.27 91.78 13.80Q90.98 14.33 90.54 15.29Q90.10 16.25 90.10 17.59L90.10 17.59L90.10 17.81Q90.10 19.15 90.54 20.15Q90.98 21.14 91.78 21.68Q92.57 22.22 93.62 22.22ZM105.07 23.52L103.13 23.52L103.13 11.98L104.98 11.98L104.98 15.10L104.66 15.10Q104.90 14.11 105.35 13.46Q105.79 12.82 106.38 12.43Q106.97 12.05 107.59 11.89Q108.22 11.74 108.77 11.74L108.77 11.74Q110.71 11.74 111.80 12.98Q112.90 14.23 112.90 16.73L112.90 16.73L112.90 23.52L110.95 23.52L110.95 16.82Q110.95 14.95 110.20 14.14Q109.44 13.32 108.17 13.32L108.17 13.32Q106.85 13.32 105.96 14.21Q105.07 15.10 105.07 16.85L105.07 16.85L105.07 23.52ZM122.42 23.76L122.42 23.76Q120.82 23.76 119.58 23.02Q118.34 22.27 117.65 20.92Q116.95 19.56 116.95 17.81L116.95 17.81L116.95 17.59Q116.95 15.84 117.65 14.53Q118.34 13.22 119.58 12.48Q120.82 11.74 122.42 11.74L122.42 11.74Q124.03 11.74 125.26 12.47Q126.48 13.20 127.18 14.51Q127.87 15.82 127.87 17.54L127.87 17.54L127.87 17.81Q127.87 19.56 127.18 20.92Q126.48 22.27 125.26 23.02Q124.03 23.76 122.42 23.76ZM122.42 22.22L122.42 22.22Q123.48 22.22 124.27 21.68Q125.06 21.14 125.50 20.15Q125.93 19.15 125.93 17.81L125.93 17.81L125.93 17.54Q125.93 15.58 124.97 14.42Q124.01 13.27 122.42 13.27L122.42 13.27Q121.37 13.27 120.58 13.80Q119.78 14.33 119.34 15.29Q118.90 16.25 118.90 17.59L118.90 17.59L118.90 17.81Q118.90 19.15 119.34 20.15Q119.78 21.14 120.58 21.68Q121.37 22.22 122.42 22.22Z"/></svg>