<svg xmlns="http://www.w3.org/2000/svg" xmlns:xlink="http://www.w3.org/1999/xlink" width="57.000000000000014" height="27"><path fill="black" d="M6.82 20.40L0.60 20.40Q0.36 20.40 0.36 20.18L0.36 20.18Q0.36 20.09 0.41 19.94L0.41 19.94L6.22 4.34L0.84 4.34Q0.60 4.34 0.60 4.08L0.60 4.08Q0.60 3.84 0.84 3.84L0.84 3.84L6.58 3.84Q6.82 3.84 6.82 4.03L6.82 4.03Q6.82 4.10 6.77 4.25L6.77 4.25L0.94 19.90L6.82 19.90Q7.06 19.90 7.06 20.14L7.06 20.14Q7.06 20.40 6.82 20.40L6.82 20.40ZM10.68 20.52L10.68 20.52Q9.86 20.52 9.23 19.76Q8.59 19.01 8.24 17.69Q7.90 16.37 7.90 14.66L7.90 14.66Q7.90 12.96 8.24 11.64Q8.59 10.32 9.20 9.58Q9.82 8.83 10.63 8.83L10.63 8.83Q11.38 8.83 11.92 9.44Q12.46 10.06 12.76 11.12Q13.06 12.19 13.06 13.56L13.06 13.56Q13.06 13.94 12.67 13.94L12.67 13.94L8.45 13.94Q8.42 14.30 8.42 14.66L8.42 14.66Q8.42 16.20 8.71 17.41Q9 18.62 9.52 19.32Q10.03 20.02 10.68 20.02L10.68 20.02Q11.30 20.02 11.75 19.49Q12.19 18.96 12.46 18.10L12.46 18.10Q12.53 17.88 12.72 17.88L12.72 17.88Q12.89 17.88 12.94 18.01Q12.98 18.14 12.94 18.29L12.94 18.29Q12.60 19.32 12.05 19.92Q11.50 20.52 10.68 20.52ZM10.63 9.34L10.63 9.34Q9.82 9.34 9.23 10.49Q8.64 11.64 8.47 13.44L8.47 13.44L12.55 13.44Q12.50 11.69 11.99 10.51Q11.47 9.34 10.63 9.34ZM15.46 20.40L15.46 20.40Q15.22 20.40 15.22 20.16L15.22 20.16L15.22 9.19Q15.22 8.95 15.46 8.95L15.46 8.95Q15.72 8.95 15.72 9.19L15.72 9.19L15.72 10.15Q16.20 9.43 16.75 9.13Q17.30 8.83 17.95 8.83L17.95 8.83Q19.94 8.83 19.94 11.50L19.94 11.50L19.94 20.16Q19.94 20.40 19.68 20.40L19.68 20.40Q19.44 20.40 19.44 20.16L19.44 20.16L19.44 11.50Q19.44 10.32 19.06 9.83Q18.67 9.34 17.95 9.34L17.95 9.34Q17.21 9.34 16.64 9.78Q16.08 10.22 15.72 10.90L15.72 10.90L15.72 20.16Q15.72 20.40 15.46 20.40ZM34.27 20.40L28.58 20.40Q28.34 20.40 28.34 20.16L28.34 20.16L28.34 4.08Q28.34 3.84 28.58 3.84L28.58 3.84Q28.85 3.84 28.85 4.08L28.85 4.08L28.85 19.90L34.27 19.90Q34.51 19.90 34.51 20.14L34.51 20.14Q34.51 20.40 34.27 20.40L34.27 20.40ZM38.45 20.52L38.45 20.52Q37.63 20.52 37.02 19.78Q36.41 19.03 36.06 17.71Q35.71 16.39 35.71 14.66L35.71 14.66Q35.71 12.94 36.06 11.63Q36.41 10.32 37.02 9.58Q37.63 8.83 38.45 8.83L38.45 8.83Q39.26 8.83 39.88 9.59Q40.49 10.34 40.85 11.65Q41.21 12.96 41.21 14.66L41.21 14.66Q41.21 16.37 40.85 17.69Q40.49 19.01 39.88 19.76Q39.26 20.52 38.45 20.52ZM38.45 20.02L38.45 20.02Q39.10 20.02 39.60 19.32Q40.10 18.62 40.39 17.41Q40.68 16.20 40.68 14.66L40.68 14.66Q40.68 13.13 40.39 11.93Q40.10 10.73 39.60 10.03Q39.10 9.34 38.45 9.34L38.45 9.34Q37.82 9.34 37.32 10.03Q36.82 10.73 36.53 11.93Q36.24 13.13 36.24 14.66L36.24 14.66Q36.24 16.20 36.53 17.41Q36.82 18.62 37.32 19.32Q37.82 20.02 38.45 20.02ZM46.10 20.52L46.10 20.52Q45.29 20.52 44.68 19.78Q44.06 19.03 43.72 17.71Q43.37 16.39 43.37 14.66L43.37 14.66Q43.37 12.94 43.72 11.63Q44.06 10.32 44.68 9.58Q45.29 8.83 46.10 8.83L46.10 8.83Q46.92 8.83 47.53 9.59Q48.14 10.34 48.50 11.65Q48.86 12.96 48.86 14.66L48.86 14.66Q48.86 16.37 48.50 17.69Q48.14 19.01 47.53 19.76Q46.92 20.52 46.10 20.52ZM46.10 20.02L46.10 20.02Q46.75 20.02 47.26 19.32Q47.76 18.62 48.05 17.41Q48.34 16.20 48.34 14.66L48.34 14.66Q48.34 13.13 48.05 11.93Q47.76 10.73 47.26 10.03Q46.75 9.34 46.10 9.34L46.10 9.34Q45.48 9.34 44.98 10.03Q44.47 10.73 44.18 11.93Q43.90 13.13 43.90 14.66L43.90 14.66Q43.90 16.20 44.18 17.41Q44.47 18.62 44.98 19.32Q45.48 20.02 46.10 20.02ZM53.52 20.52L53.52 20.52Q52.51 20.52 51.79 19.46L51.79 19.46L51.79 24.65Q51.79 24.89 51.53 24.89L51.53 24.89Q51.29 24.89 51.29 24.65L51.29 24.65L51.29 9.98Q50.88 10.20 50.50 10.51L50.50 10.51Q50.42 10.58 50.33 10.58L50.33 10.58Q50.06 10.58 50.06 10.32L50.06 10.32Q50.06 10.20 50.16 10.13L50.16 10.13Q50.71 9.70 51.29 9.38L51.29 9.38L51.29 8.02Q51.29 7.78 51.53 7.78L51.53 7.78Q51.79 7.78 51.79 8.02L51.79 8.02L51.79 9.17Q52.61 8.83 53.28 8.83L53.28 8.83Q54.72 8.83 55.38 10.37Q56.04 11.90 56.04 14.66L56.04 14.66Q56.04 16.37 55.76 17.69Q55.49 19.01 54.92 19.76Q54.36 20.52 53.52 20.52ZM53.28 9.34L53.28 9.34Q52.63 9.34 51.79 9.72L51.79 9.72L51.79 18.62Q52.10 19.30 52.58 19.66Q53.06 20.02 53.52 20.02L53.52 20.02Q54.19 20.02 54.64 19.32Q55.08 18.62 55.30 17.41Q55.51 16.20 55.51 14.66L55.51 14.66Q55.51 12.17 55.00 10.75Q54.48 9.34 53.28 9.34Z"/></svg>