<svg xmlns="http://www.w3.org/2000/svg" xmlns:xlink="http://www.w3.org/1999/xlink" width="345.375" height="26.953125"><path fill="black" d="M13.38 4.58Q13.79 4.58 13.97 4.71Q14.14 4.83 14.14 5.11L14.14 5.11Q14.14 5.16 14.12 5.34L14.12 5.34L13.44 9.21Q13.37 9.62 13.14 9.80Q12.91 9.97 12.43 9.97L12.43 9.97Q12.02 9.97 11.84 9.85Q11.66 9.73 11.66 9.45L11.66 9.45Q11.66 9.38 11.68 9.21L11.68 9.21Q11.73 8.96 11.73 8.64L11.73 8.64Q11.73 7.61 11.03 6.96Q10.32 6.32 8.92 6.32L8.92 6.32Q7.30 6.32 6.06 7.33Q4.83 8.34 4.16 9.97Q3.49 11.59 3.49 13.35L3.49 13.35Q3.49 15.20 4.38 16.24Q5.27 17.27 6.87 17.27L6.87 17.27Q8.00 17.27 9.11 16.92Q10.22 16.56 11.20 15.91L11.20 15.91Q11.37 15.80 11.57 15.80L11.57 15.80Q11.98 15.80 12.25 16.32L12.25 16.32Q12.41 16.65 12.41 16.89L12.41 16.89Q12.41 17.24 11.99 17.51L11.99 17.51Q9.46 19.01 6.74 19.01L6.74 19.01Q5.18 19.01 4.03 18.32Q2.87 17.64 2.26 16.38Q1.64 15.12 1.64 13.44L1.64 13.44Q1.64 11.14 2.57 9.11Q3.49 7.07 5.18 5.82Q6.87 4.58 9.05 4.58L9.05 4.58Q10.16 4.58 10.96 4.98Q11.77 5.38 12.23 6.09L12.23 6.09L12.36 5.34Q12.43 4.93 12.66 4.76Q12.89 4.58 13.38 4.58L13.38 4.58ZM22.48 7.66Q23.93 7.66 25.05 8.28Q26.18 8.89 26.80 9.98Q27.42 11.07 27.42 12.45L27.42 12.45Q27.42 14.17 26.60 15.68Q25.78 17.19 24.30 18.10Q22.83 19.01 20.95 19.01L20.95 19.01Q19.50 19.01 18.38 18.39Q17.25 17.78 16.63 16.69Q16.01 15.60 16.01 14.23L16.01 14.23Q16.01 12.50 16.83 10.99Q17.65 9.48 19.13 8.57Q20.60 7.66 22.48 7.66L22.48 7.66ZM22.29 9.40Q21.02 9.40 20.00 10.05Q18.98 10.71 18.42 11.80Q17.85 12.89 17.85 14.13L17.85 14.13Q17.85 15.07 18.23 15.78Q18.62 16.49 19.37 16.88Q20.11 17.27 21.14 17.27L21.14 17.27Q22.41 17.27 23.43 16.62Q24.45 15.96 25.01 14.87Q25.58 13.78 25.58 12.54L25.58 12.54Q25.58 11.60 25.20 10.89Q24.81 10.18 24.06 9.79Q23.32 9.40 22.29 9.40L22.29 9.40ZM40.85 7.92Q41.18 7.92 41.33 8.04Q41.47 8.16 41.47 8.44L41.47 8.44Q41.47 8.61 41.45 8.72L41.45 8.72L39.96 17.16L40.92 17.16Q41.25 17.16 41.40 17.27Q41.54 17.39 41.54 17.67L41.54 17.67Q41.54 17.85 41.52 17.95L41.52 17.95Q41.45 18.39 41.25 18.57Q41.05 18.75 40.65 18.75L40.65 18.75L38.78 18.75Q38.45 18.75 38.30 18.63Q38.16 18.52 38.16 18.23L38.16 18.23Q38.16 18.06 38.18 17.95L38.18 17.95L38.43 16.55Q37.44 17.74 36.33 18.38Q35.21 19.01 34.07 19.01L34.07 19.01Q32.67 19.01 31.88 18.18Q31.08 17.36 31.08 15.96L31.08 15.96Q31.08 15.49 31.16 15.07L31.16 15.07L32.14 9.52L31.18 9.52Q30.86 9.52 30.71 9.39Q30.56 9.27 30.56 8.99L30.56 8.99Q30.56 8.93 30.59 8.72L30.59 8.72Q30.67 8.29 30.87 8.10Q31.07 7.92 31.46 7.92L31.46 7.92L33.45 7.92Q33.77 7.92 33.92 8.04Q34.07 8.16 34.07 8.44L34.07 8.44Q34.07 8.61 34.04 8.72L34.04 8.72L32.93 15.01Q32.87 15.39 32.87 15.64L32.87 15.64Q32.87 16.42 33.26 16.85Q33.64 17.27 34.43 17.27L34.43 17.27Q35.41 17.27 36.39 16.65Q37.37 16.02 38.07 14.95Q38.78 13.89 39 12.63L39 12.63L39.55 9.52L37.89 9.52Q37.56 9.52 37.41 9.39Q37.27 9.27 37.27 8.99L37.27 8.99Q37.27 8.93 37.29 8.72L37.29 8.72Q37.37 8.29 37.57 8.10Q37.77 7.92 38.17 7.92L38.17 7.92L40.85 7.92ZM54.88 7.66Q55.76 7.66 56.47 8.13L56.47 8.13Q56.93 8.43 56.93 8.87L56.93 8.87Q56.93 9.15 56.79 9.40L56.79 9.40Q56.46 10.03 56.07 10.03L56.07 10.03Q55.92 10.03 55.75 9.93L55.75 9.93Q55.28 9.62 54.62 9.62L54.62 9.62Q53.55 9.62 52.34 10.39Q51.13 11.17 50.21 12.44Q49.29 13.71 49.04 15.12L49.04 15.12L48.68 17.16L52.63 17.16Q52.96 17.16 53.10 17.27Q53.25 17.39 53.25 17.67L53.25 17.67Q53.25 17.85 53.23 17.95L53.23 17.95Q53.16 18.39 52.96 18.57Q52.76 18.75 52.36 18.75L52.36 18.75L44.81 18.75Q44.48 18.75 44.33 18.63Q44.18 18.50 44.18 18.22L44.18 18.22Q44.18 18.14 44.20 17.95L44.20 17.95Q44.29 17.52 44.48 17.34Q44.68 17.16 45.08 17.16L45.08 17.16L46.92 17.16L48.27 9.52L46.78 9.52Q46.45 9.52 46.31 9.39Q46.16 9.27 46.16 8.99L46.16 8.99Q46.16 8.93 46.18 8.72L46.18 8.72Q46.27 8.29 46.46 8.10Q46.66 7.92 47.06 7.92L47.06 7.92L49.45 7.92Q49.78 7.92 49.93 8.04Q50.07 8.16 50.07 8.44L50.07 8.44Q50.07 8.61 50.05 8.72L50.05 8.72L49.64 11.09Q50.79 9.50 52.20 8.58Q53.60 7.66 54.88 7.66L54.88 7.66ZM65.86 2.78Q66.41 2.78 66.63 2.90Q66.86 3.02 66.86 3.32L66.86 3.32Q66.86 3.38 66.83 3.54L66.83 3.54L66.56 5.06Q66.49 5.48 66.23 5.65Q65.96 5.82 65.32 5.82L65.32 5.82Q64.76 5.82 64.54 5.70Q64.31 5.58 64.31 5.29L64.31 5.29Q64.31 5.23 64.34 5.06L64.34 5.06L64.61 3.54Q64.68 3.12 64.95 2.95Q65.21 2.78 65.86 2.78L65.86 2.78ZM65.32 7.92Q65.65 7.92 65.79 8.04Q65.94 8.16 65.94 8.44L65.94 8.44Q65.94 8.61 65.92 8.72L65.92 8.72L64.79 15.12Q64.71 15.61 64.71 15.89L64.71 15.89Q64.71 16.63 65.09 16.96Q65.46 17.30 66.28 17.30L66.28 17.30Q66.95 17.30 67.61 17.08Q68.27 16.86 69 16.41L69 16.41Q69.18 16.30 69.35 16.30L69.35 16.30Q69.54 16.30 69.70 16.44Q69.87 16.58 69.97 16.86L69.97 16.86Q70.07 17.10 70.07 17.33L70.07 17.33Q70.07 17.74 69.62 17.99L69.62 17.99Q67.83 19.01 66.11 19.01L66.11 19.01Q64.59 19.01 63.77 18.23Q62.95 17.45 62.95 16.07L62.95 16.07Q62.95 15.60 63.04 15.15L63.04 15.15L64.02 9.52L61.05 9.52Q60.73 9.52 60.58 9.39Q60.43 9.27 60.43 8.99L60.43 8.99Q60.43 8.93 60.46 8.72L60.46 8.72Q60.54 8.29 60.74 8.10Q60.94 7.92 61.34 7.92L61.34 7.92L65.32 7.92ZM84.64 11.07Q84.64 13.65 82.00 13.93L82.00 13.93L75.56 14.60Q75.61 17.31 78.49 17.31L78.49 17.31Q79.62 17.31 80.78 17.01Q81.94 16.71 82.89 16.23L82.89 16.23Q83.07 16.15 83.18 16.15L83.18 16.15Q83.63 16.15 83.84 16.80L83.84 16.80Q83.91 17.05 83.91 17.23L83.91 17.23Q83.91 17.50 83.77 17.67Q83.64 17.85 83.36 17.98L83.36 17.98Q82.31 18.43 80.97 18.72Q79.63 19.01 78.32 19.01L78.32 19.01Q76.86 19.01 75.83 18.47Q74.80 17.94 74.27 16.95Q73.73 15.96 73.73 14.60L73.73 14.60Q73.73 12.68 74.58 11.09Q75.42 9.50 76.95 8.58Q78.48 7.66 80.43 7.66L80.43 7.66Q81.70 7.66 82.66 8.11Q83.61 8.55 84.13 9.33Q84.64 10.10 84.64 11.07L84.64 11.07ZM75.74 12.98L81.63 12.30Q82.28 12.23 82.54 11.95Q82.79 11.67 82.79 11.13L82.79 11.13Q82.79 10.36 82.14 9.86Q81.48 9.36 80.25 9.36L80.25 9.36Q79.07 9.36 78.14 9.83Q77.21 10.29 76.61 11.10Q76.00 11.92 75.74 12.98L75.74 12.98ZM98.05 7.66Q98.93 7.66 99.64 8.13L99.64 8.13Q100.10 8.43 100.10 8.87L100.10 8.87Q100.10 9.15 99.96 9.40L99.96 9.40Q99.63 10.03 99.25 10.03L99.25 10.03Q99.09 10.03 98.92 9.93L98.92 9.93Q98.45 9.62 97.79 9.62L97.79 9.62Q96.73 9.62 95.51 10.39Q94.30 11.17 93.38 12.44Q92.46 13.71 92.21 15.12L92.21 15.12L91.85 17.16L95.80 17.16Q96.13 17.16 96.28 17.27Q96.42 17.39 96.42 17.67L96.42 17.67Q96.42 17.85 96.40 17.95L96.40 17.95Q96.33 18.39 96.13 18.57Q95.93 18.75 95.53 18.75L95.53 18.75L87.98 18.75Q87.66 18.75 87.50 18.63Q87.35 18.50 87.35 18.22L87.35 18.22Q87.35 18.14 87.38 17.95L87.38 17.95Q87.46 17.52 87.66 17.34Q87.86 17.16 88.25 17.16L88.25 17.16L90.09 17.16L91.44 9.52L89.95 9.52Q89.63 9.52 89.48 9.39Q89.33 9.27 89.33 8.99L89.33 8.99Q89.33 8.93 89.36 8.72L89.36 8.72Q89.44 8.29 89.64 8.10Q89.84 7.92 90.23 7.92L90.23 7.92L92.63 7.92Q92.95 7.92 93.10 8.04Q93.25 8.16 93.25 8.44L93.25 8.44Q93.25 8.61 93.22 8.72L93.22 8.72L92.81 11.09Q93.96 9.50 95.37 8.58Q96.77 7.66 98.05 7.66L98.05 7.66ZM124.72 4.84Q126.09 4.84 127.07 5.30Q128.05 5.75 128.55 6.58Q129.06 7.41 129.06 8.50L129.06 8.50Q129.06 9.43 128.75 10.32Q128.45 11.21 127.83 11.93L127.83 11.93Q127.11 12.75 126.01 13.21Q124.90 13.68 123.40 13.68L123.40 13.68L120.53 13.68L119.91 17.16L122.72 17.16Q123.05 17.16 123.19 17.27Q123.34 17.39 123.34 17.67L123.34 17.67Q123.34 17.85 123.32 17.95L123.32 17.95Q123.25 18.39 123.05 18.57Q122.85 18.75 122.45 18.75L122.45 18.75L115.98 18.75Q115.65 18.75 115.50 18.63Q115.35 18.50 115.35 18.22L115.35 18.22Q115.35 18.14 115.37 17.95L115.37 17.95Q115.45 17.52 115.65 17.34Q115.85 17.16 116.25 17.16L116.25 17.16L118.15 17.16L120.05 6.43L118.15 6.43Q117.82 6.43 117.67 6.32Q117.53 6.20 117.53 5.92L117.53 5.92Q117.53 5.74 117.55 5.64L117.55 5.64Q117.63 5.20 117.83 5.02Q118.03 4.84 118.43 4.84L118.43 4.84L124.72 4.84ZM121.80 6.43L120.81 12.08L123.32 12.08Q125.37 12.08 126.41 10.90L126.41 10.90Q126.81 10.44 127.01 9.86Q127.21 9.28 127.21 8.66L127.21 8.66Q127.21 7.59 126.47 7.01Q125.73 6.43 124.31 6.43L124.31 6.43L121.80 6.43ZM141.22 7.66Q142.10 7.66 142.82 8.13L142.82 8.13Q143.27 8.43 143.27 8.87L143.27 8.87Q143.27 9.15 143.13 9.40L143.13 9.40Q142.80 10.03 142.42 10.03L142.42 10.03Q142.27 10.03 142.09 9.93L142.09 9.93Q141.62 9.62 140.96 9.62L140.96 9.62Q139.90 9.62 138.69 10.39Q137.47 11.17 136.55 12.44Q135.63 13.71 135.39 15.12L135.39 15.12L135.02 17.16L138.97 17.16Q139.30 17.16 139.45 17.27Q139.59 17.39 139.59 17.67L139.59 17.67Q139.59 17.85 139.57 17.95L139.57 17.95Q139.50 18.39 139.30 18.57Q139.10 18.75 138.70 18.75L138.70 18.75L131.16 18.75Q130.83 18.75 130.68 18.63Q130.52 18.50 130.52 18.22L130.52 18.22Q130.52 18.14 130.55 17.95L130.55 17.95Q130.63 17.52 130.83 17.34Q131.03 17.16 131.43 17.16L131.43 17.16L133.27 17.16L134.61 9.52L133.13 9.52Q132.80 9.52 132.65 9.39Q132.50 9.27 132.50 8.99L132.50 8.99Q132.50 8.93 132.53 8.72L132.53 8.72Q132.61 8.29 132.81 8.10Q133.01 7.92 133.41 7.92L133.41 7.92L135.80 7.92Q136.13 7.92 136.27 8.04Q136.42 8.16 136.42 8.44L136.42 8.44Q136.42 8.61 136.39 8.72L136.39 8.72L135.98 11.09Q137.13 9.50 138.54 8.58Q139.95 7.66 141.22 7.66L141.22 7.66ZM152.20 2.78Q152.75 2.78 152.98 2.90Q153.20 3.02 153.20 3.32L153.20 3.32Q153.20 3.38 153.18 3.54L153.18 3.54L152.91 5.06Q152.84 5.48 152.57 5.65Q152.31 5.82 151.66 5.82L151.66 5.82Q151.10 5.82 150.88 5.70Q150.66 5.58 150.66 5.29L150.66 5.29Q150.66 5.23 150.68 5.06L150.68 5.06L150.95 3.54Q151.02 3.12 151.29 2.95Q151.56 2.78 152.20 2.78L152.20 2.78ZM151.66 7.92Q151.99 7.92 152.14 8.04Q152.29 8.16 152.29 8.44L152.29 8.44Q152.29 8.61 152.26 8.72L152.26 8.72L151.14 15.12Q151.05 15.61 151.05 15.89L151.05 15.89Q151.05 16.63 151.43 16.96Q151.80 17.30 152.63 17.30L152.63 17.30Q153.29 17.30 153.96 17.08Q154.62 16.86 155.34 16.41L155.34 16.41Q155.52 16.30 155.70 16.30L155.70 16.30Q155.88 16.30 156.05 16.44Q156.21 16.58 156.32 16.86L156.32 16.86Q156.41 17.10 156.41 17.33L156.41 17.33Q156.41 17.74 155.96 17.99L155.96 17.99Q154.17 19.01 152.45 19.01L152.45 19.01Q150.94 19.01 150.12 18.23Q149.30 17.45 149.30 16.07L149.30 16.07Q149.30 15.60 149.38 15.15L149.38 15.15L150.36 9.52L147.40 9.52Q147.07 9.52 146.92 9.39Q146.78 9.27 146.78 8.99L146.78 8.99Q146.78 8.93 146.80 8.72L146.80 8.72Q146.88 8.29 147.08 8.10Q147.28 7.92 147.68 7.92L147.68 7.92L151.66 7.92ZM171.70 17.16Q172.03 17.16 172.18 17.28Q172.32 17.40 172.32 17.68L172.32 17.68Q172.32 17.74 172.30 17.95L172.30 17.95Q172.23 18.39 172.03 18.57Q171.83 18.75 171.43 18.75L171.43 18.75L169.69 18.75Q169.36 18.75 169.21 18.63Q169.05 18.52 169.05 18.23L169.05 18.23Q169.05 18.06 169.08 17.95L169.08 17.95L170.31 11.02Q170.37 10.64 170.37 10.41L170.37 10.41Q170.37 9.40 169.48 9.40L169.48 9.40Q168.93 9.40 168.36 9.96Q167.79 10.52 167.34 11.50Q166.89 12.47 166.69 13.63L166.69 13.63L165.90 18.11Q165.83 18.52 165.60 18.69Q165.38 18.87 164.91 18.87L164.91 18.87L164.88 18.87Q164.47 18.87 164.30 18.74Q164.12 18.62 164.12 18.34L164.12 18.34Q164.12 18.29 164.14 18.11L164.14 18.11L165.40 11.02Q165.46 10.64 165.46 10.41L165.46 10.41Q165.46 9.40 164.57 9.40L164.57 9.40Q164.02 9.40 163.45 9.96Q162.88 10.52 162.43 11.50Q161.98 12.47 161.78 13.63L161.78 13.63L160.99 18.11Q160.92 18.52 160.69 18.69Q160.46 18.87 160.00 18.87L160.00 18.87L159.97 18.87Q159.56 18.87 159.39 18.74Q159.21 18.62 159.21 18.34L159.21 18.34Q159.21 18.29 159.23 18.11L159.23 18.11L160.75 9.52L159.79 9.52Q159.46 9.52 159.31 9.39Q159.16 9.27 159.16 8.99L159.16 8.99Q159.16 8.93 159.19 8.72L159.19 8.72Q159.27 8.29 159.47 8.10Q159.67 7.92 160.07 7.92L160.07 7.92L161.81 7.92Q162.14 7.92 162.29 8.04Q162.43 8.16 162.43 8.44L162.43 8.44Q162.43 8.61 162.41 8.72L162.41 8.72L162.21 9.88Q162.86 8.79 163.65 8.23Q164.44 7.66 165.19 7.66L165.19 7.66Q165.97 7.66 166.48 8.21Q166.99 8.77 167.04 9.79L167.04 9.79Q167.68 8.73 168.49 8.20Q169.29 7.66 170.07 7.66L170.07 7.66Q170.66 7.66 171.13 7.95Q171.61 8.23 171.88 8.77Q172.16 9.32 172.16 10.08L172.16 10.08Q172.16 10.50 172.08 10.92L172.08 10.92L170.98 17.16L171.70 17.16ZM185.38 11.07Q185.38 13.65 182.73 13.93L182.73 13.93L176.30 14.60Q176.34 17.31 179.23 17.31L179.23 17.31Q180.35 17.31 181.51 17.01Q182.67 16.71 183.62 16.23L183.62 16.23Q183.81 16.15 183.91 16.15L183.91 16.15Q184.36 16.15 184.57 16.80L184.57 16.80Q184.64 17.05 184.64 17.23L184.64 17.23Q184.64 17.50 184.51 17.67Q184.37 17.85 184.09 17.98L184.09 17.98Q183.05 18.43 181.71 18.72Q180.36 19.01 179.05 19.01L179.05 19.01Q177.60 19.01 176.57 18.47Q175.54 17.94 175.00 16.95Q174.47 15.96 174.47 14.60L174.47 14.60Q174.47 12.68 175.31 11.09Q176.16 9.50 177.69 8.58Q179.21 7.66 181.16 7.66L181.16 7.66Q182.44 7.66 183.39 8.11Q184.35 8.55 184.86 9.33Q185.38 10.10 185.38 11.07L185.38 11.07ZM176.47 12.98L182.37 12.30Q183.01 12.23 183.27 11.95Q183.53 11.67 183.53 11.13L183.53 11.13Q183.53 10.36 182.87 9.86Q182.21 9.36 180.98 9.36L180.98 9.36Q179.80 9.36 178.88 9.83Q177.95 10.29 177.34 11.10Q176.73 11.92 176.47 12.98L176.47 12.98ZM211.95 4.58Q212.82 4.58 212.82 5.27L212.82 5.27Q212.82 5.33 212.80 5.50L212.80 5.50L211.49 12.94L213.39 12.94Q213.71 12.94 213.86 13.05Q214.01 13.17 214.01 13.45L214.01 13.45Q214.01 13.63 213.98 13.73L213.98 13.73Q213.90 14.17 213.70 14.35Q213.50 14.53 213.11 14.53L213.11 14.53L211.21 14.53L210.74 17.16L212.29 17.16Q212.61 17.16 212.76 17.27Q212.91 17.39 212.91 17.67L212.91 17.67Q212.91 17.85 212.88 17.95L212.88 17.95Q212.81 18.39 212.61 18.57Q212.41 18.75 212.02 18.75L212.02 18.75L206.98 18.75Q206.65 18.75 206.50 18.63Q206.34 18.50 206.34 18.22L206.34 18.22Q206.34 18.14 206.37 17.95L206.37 17.95Q206.45 17.52 206.65 17.34Q206.85 17.16 207.25 17.16L207.25 17.16L208.98 17.16L209.45 14.53L203.85 14.53Q203.52 14.53 203.37 14.41Q203.23 14.30 203.23 14.02L203.23 14.02Q203.23 13.84 203.25 13.73L203.25 13.73Q203.33 13.29 203.46 13.15L203.46 13.15L210.53 5.26Q210.84 4.90 211.17 4.74Q211.50 4.58 211.95 4.58L211.95 4.58ZM210.83 7.20L205.78 12.94L209.73 12.94L210.83 7.20ZM224.58 4.58Q225.82 4.58 226.73 5.24Q227.64 5.89 228.12 7.10Q228.60 8.30 228.60 9.89L228.60 9.89Q228.60 11.91 227.91 14.02Q227.21 16.14 225.80 17.57Q224.38 19.01 222.34 19.01L222.34 19.01Q221.10 19.01 220.19 18.35Q219.28 17.70 218.80 16.49Q218.32 15.29 218.32 13.70L218.32 13.70Q218.32 11.68 219.01 9.57Q219.70 7.45 221.12 6.02Q222.54 4.58 224.58 4.58L224.58 4.58ZM224.43 6.32Q223.13 6.32 222.15 7.46Q221.18 8.60 220.66 10.33Q220.14 12.06 220.14 13.76L220.14 13.76Q220.14 15.45 220.76 16.36Q221.38 17.27 222.49 17.27L222.49 17.27Q223.79 17.27 224.77 16.13Q225.74 14.99 226.26 13.26Q226.78 11.53 226.78 9.83L226.78 9.83Q226.78 8.16 226.15 7.24Q225.53 6.32 224.43 6.32L224.43 6.32ZM238.97 4.58Q240.21 4.58 241.12 5.24Q242.03 5.89 242.51 7.10Q242.99 8.30 242.99 9.89L242.99 9.89Q242.99 11.91 242.30 14.02Q241.61 16.14 240.19 17.57Q238.77 19.01 236.73 19.01L236.73 19.01Q235.49 19.01 234.58 18.35Q233.67 17.70 233.19 16.49Q232.71 15.29 232.71 13.70L232.71 13.70Q232.71 11.68 233.40 9.57Q234.09 7.45 235.51 6.02Q236.93 4.58 238.97 4.58L238.97 4.58ZM238.82 6.32Q237.52 6.32 236.54 7.46Q235.57 8.60 235.05 10.33Q234.53 12.06 234.53 13.76L234.53 13.76Q234.53 15.45 235.15 16.36Q235.77 17.27 236.88 17.27L236.88 17.27Q238.18 17.27 239.16 16.13Q240.13 14.99 240.65 13.26Q241.17 11.53 241.17 9.83L241.17 9.83Q241.17 8.16 240.54 7.24Q239.92 6.32 238.82 6.32L238.82 6.32ZM267.33 2.78Q267.88 2.78 268.10 2.90Q268.32 3.02 268.32 3.32L268.32 3.32Q268.32 3.38 268.30 3.54L268.30 3.54L268.03 5.06Q267.96 5.48 267.70 5.65Q267.43 5.82 266.79 5.82L266.79 5.82Q266.23 5.82 266.00 5.70Q265.78 5.58 265.78 5.29L265.78 5.29Q265.78 5.23 265.80 5.06L265.80 5.06L266.07 3.54Q266.14 3.12 266.41 2.95Q266.68 2.78 267.33 2.78L267.33 2.78ZM266.79 7.92Q267.12 7.92 267.26 8.04Q267.41 8.16 267.41 8.44L267.41 8.44Q267.41 8.61 267.39 8.72L267.39 8.72L266.26 15.12Q266.18 15.61 266.18 15.89L266.18 15.89Q266.18 16.63 266.55 16.96Q266.93 17.30 267.75 17.30L267.75 17.30Q268.42 17.30 269.08 17.08Q269.74 16.86 270.47 16.41L270.47 16.41Q270.64 16.30 270.82 16.30L270.82 16.30Q271.01 16.30 271.17 16.44Q271.34 16.58 271.44 16.86L271.44 16.86Q271.54 17.10 271.54 17.33L271.54 17.33Q271.54 17.74 271.09 17.99L271.09 17.99Q269.30 19.01 267.57 19.01L267.57 19.01Q266.06 19.01 265.24 18.23Q264.42 17.45 264.42 16.07L264.42 16.07Q264.42 15.60 264.50 15.15L264.50 15.15L265.49 9.52L262.52 9.52Q262.20 9.52 262.05 9.39Q261.90 9.27 261.90 8.99L261.90 8.99Q261.90 8.93 261.93 8.72L261.93 8.72Q262.01 8.29 262.21 8.10Q262.41 7.92 262.80 7.92L262.80 7.92L266.79 7.92ZM280.46 4.58Q280.88 4.58 281.05 4.71Q281.23 4.83 281.23 5.11L281.23 5.11Q281.23 5.16 281.20 5.34L281.20 5.34L280.58 8.86L285.40 8.86Q285.73 8.86 285.87 8.98Q286.02 9.09 286.02 9.38L286.02 9.38Q286.02 9.55 286.00 9.66L286.00 9.66Q285.93 10.09 285.72 10.27Q285.52 10.45 285.12 10.45L285.12 10.45L280.30 10.45L279.55 14.72Q279.45 15.26 279.45 15.69L279.45 15.69Q279.45 16.51 279.85 16.90Q280.25 17.30 281.17 17.30L281.17 17.30Q281.94 17.30 282.86 16.97Q283.78 16.65 284.70 16.11L284.70 16.11Q284.87 16.01 285.05 16.01L285.05 16.01Q285.23 16.01 285.40 16.15Q285.56 16.29 285.67 16.57L285.67 16.57Q285.76 16.80 285.76 17.04L285.76 17.04Q285.76 17.45 285.32 17.70L285.32 17.70Q284.29 18.28 283.14 18.64Q281.99 19.01 280.99 19.01L280.99 19.01Q279.32 19.01 278.50 18.23Q277.68 17.45 277.68 15.97L277.68 15.97Q277.68 15.48 277.79 14.75L277.79 14.75L278.54 10.45L276.16 10.45Q275.84 10.45 275.69 10.33Q275.54 10.21 275.54 9.93L275.54 9.93Q275.54 9.87 275.57 9.66L275.57 9.66Q275.65 9.22 275.85 9.04Q276.05 8.86 276.45 8.86L276.45 8.86L278.82 8.86L279.45 5.34Q279.52 4.93 279.74 4.76Q279.97 4.58 280.46 4.58L280.46 4.58ZM300.45 17.06Q300.77 17.06 300.92 17.19Q301.07 17.32 301.07 17.61L301.07 17.61Q301.07 17.79 301.04 17.91L301.04 17.91Q300.95 18.36 300.75 18.56Q300.55 18.75 300.15 18.75L300.15 18.75L300.02 18.75Q299.09 18.75 298.51 18.21Q297.94 17.66 297.89 16.66L297.89 16.66Q297.05 17.82 296.02 18.42Q294.98 19.01 293.70 19.01L293.70 19.01Q292.48 19.01 291.52 18.45Q290.55 17.89 290.01 16.86Q289.46 15.83 289.46 14.46L289.46 14.46Q289.46 12.86 290.14 11.29Q290.82 9.71 292.18 8.69Q293.53 7.66 295.44 7.66L295.44 7.66Q296.53 7.66 297.39 8.23Q298.24 8.79 298.78 9.77L298.78 9.77L299.00 8.57Q299.07 8.14 299.27 7.97Q299.46 7.80 299.92 7.80L299.92 7.80L299.94 7.80Q300.33 7.80 300.50 7.93Q300.67 8.05 300.67 8.32L300.67 8.32Q300.67 8.38 300.64 8.57L300.64 8.57L299.43 15.48Q299.38 15.70 299.38 15.95L299.38 15.95Q299.38 16.50 299.65 16.78Q299.92 17.06 300.39 17.06L300.39 17.06L300.45 17.06ZM293.95 17.27Q295.13 17.27 296.08 16.56Q297.04 15.86 297.58 14.73Q298.13 13.61 298.13 12.41L298.13 12.41Q298.13 10.99 297.38 10.20Q296.64 9.40 295.37 9.40L295.37 9.40Q294.14 9.40 293.21 10.11Q292.29 10.83 291.80 11.97Q291.30 13.11 291.30 14.36L291.30 14.36Q291.30 15.69 292.00 16.48Q292.69 17.27 293.95 17.27L293.95 17.27ZM310.54 3.38Q310.86 3.38 311.01 3.49Q311.16 3.61 311.16 3.89L311.16 3.89Q311.16 4.07 311.13 4.17L311.13 4.17L309.20 15.12Q309.12 15.63 309.12 15.90L309.12 15.90Q309.12 16.63 309.50 16.96Q309.88 17.30 310.69 17.30L310.69 17.30Q311.36 17.30 312.02 17.08Q312.68 16.86 313.41 16.41L313.41 16.41Q313.58 16.30 313.76 16.30L313.76 16.30Q313.95 16.30 314.11 16.44Q314.27 16.58 314.38 16.86L314.38 16.86Q314.47 17.10 314.47 17.33L314.47 17.33Q314.47 17.74 314.03 17.99L314.03 17.99Q312.23 19.01 310.51 19.01L310.51 19.01Q309 19.01 308.18 18.23Q307.36 17.45 307.36 16.07L307.36 16.07Q307.36 15.60 307.44 15.15L307.44 15.15L309.23 4.97L306.04 4.97Q305.71 4.97 305.56 4.85Q305.41 4.73 305.41 4.45L305.41 4.45Q305.41 4.28 305.44 4.17L305.44 4.17Q305.52 3.74 305.72 3.56Q305.92 3.38 306.32 3.38L306.32 3.38L310.54 3.38ZM324.89 2.78Q325.44 2.78 325.66 2.90Q325.89 3.02 325.89 3.32L325.89 3.32Q325.89 3.38 325.86 3.54L325.86 3.54L325.59 5.06Q325.52 5.48 325.26 5.65Q325.00 5.82 324.35 5.82L324.35 5.82Q323.79 5.82 323.57 5.70Q323.34 5.58 323.34 5.29L323.34 5.29Q323.34 5.23 323.37 5.06L323.37 5.06L323.64 3.54Q323.71 3.12 323.98 2.95Q324.25 2.78 324.89 2.78L324.89 2.78ZM324.35 7.92Q324.68 7.92 324.83 8.04Q324.97 8.16 324.97 8.44L324.97 8.44Q324.97 8.61 324.95 8.72L324.95 8.72L323.82 15.12Q323.74 15.61 323.74 15.89L323.74 15.89Q323.74 16.63 324.12 16.96Q324.49 17.30 325.31 17.30L325.31 17.30Q325.98 17.30 326.64 17.08Q327.30 16.86 328.03 16.41L328.03 16.41Q328.21 16.30 328.38 16.30L328.38 16.30Q328.57 16.30 328.73 16.44Q328.90 16.58 329.00 16.86L329.00 16.86Q329.10 17.10 329.10 17.33L329.10 17.33Q329.10 17.74 328.65 17.99L328.65 17.99Q326.86 19.01 325.14 19.01L325.14 19.01Q323.63 19.01 322.80 18.23Q321.98 17.45 321.98 16.07L321.98 16.07Q321.98 15.60 322.07 15.15L322.07 15.15L323.05 9.52L320.09 9.52Q319.76 9.52 319.61 9.39Q319.46 9.27 319.46 8.99L319.46 8.99Q319.46 8.93 319.49 8.72L319.49 8.72Q319.57 8.29 319.77 8.10Q319.97 7.92 320.37 7.92L320.37 7.92L324.35 7.92ZM343.52 7.66Q343.93 7.66 344.12 7.79Q344.30 7.91 344.30 8.19L344.30 8.19Q344.30 8.26 344.27 8.43L344.27 8.43L343.68 11.82Q343.61 12.23 343.39 12.41Q343.17 12.59 342.69 12.59L342.69 12.59Q342.27 12.59 342.09 12.46Q341.91 12.33 341.91 12.04L341.91 12.04Q341.91 11.99 341.93 11.82L341.93 11.82Q341.95 11.70 341.95 11.45L341.95 11.45Q341.95 10.50 341.21 9.95Q340.48 9.40 339.06 9.40L339.06 9.40Q337.75 9.40 336.68 10.05Q335.61 10.71 335.00 11.81Q334.38 12.91 334.38 14.17L334.38 14.17Q334.38 15.08 334.76 15.79Q335.14 16.49 335.86 16.88Q336.57 17.27 337.56 17.27L337.56 17.27Q338.63 17.27 339.67 16.94Q340.71 16.61 341.66 15.96L341.66 15.96Q341.88 15.81 342.09 15.81L342.09 15.81Q342.48 15.81 342.75 16.28L342.75 16.28Q342.91 16.57 342.91 16.80L342.91 16.80Q342.91 17.23 342.46 17.52L342.46 17.52Q341.37 18.21 340.03 18.61Q338.70 19.01 337.37 19.01L337.37 19.01Q335.89 19.01 334.80 18.40Q333.70 17.79 333.12 16.72Q332.53 15.64 332.53 14.30L332.53 14.30Q332.53 12.57 333.38 11.04Q334.22 9.52 335.74 8.59Q337.25 7.66 339.19 7.66L339.19 7.66Q340.24 7.66 341.07 8.09Q341.89 8.51 342.36 9.25L342.36 9.25L342.52 8.43Q342.60 8.02 342.82 7.84Q343.04 7.66 343.52 7.66L343.52 7.66Z"/></svg>