<svg xmlns="http://www.w3.org/2000/svg" xmlns:xlink="http://www.w3.org/1999/xlink" width="192.36" height="37.776"><path fill="black" d="M7.99 27.43L7.99 27.43Q7.13 27.43 6.11 27.40Q5.09 27.36 4.13 27.29Q3.17 27.22 2.40 27.14L2.40 27.14L2.40 26.30Q3.22 26.38 4.19 26.45Q5.16 26.52 6.11 26.57Q7.06 26.62 7.75 26.62L7.75 26.62Q9 26.62 9.84 26.52Q10.68 26.42 11.40 26.04L11.40 26.04Q11.88 25.78 12.11 25.30Q12.34 24.82 12.41 24.18Q12.48 23.54 12.48 22.85L12.48 22.85Q12.48 21.74 12.42 21.10Q12.36 20.45 12.08 20.10Q11.81 19.75 11.17 19.60Q10.54 19.44 9.41 19.32L9.41 19.32L5.02 18.86Q3.86 18.74 3.23 18.42Q2.59 18.10 2.32 17.59Q2.04 17.09 1.98 16.40Q1.92 15.72 1.92 14.88L1.92 14.88Q1.92 13.51 2.26 12.65Q2.59 11.78 3.29 11.33Q3.98 10.87 5.06 10.70Q6.14 10.54 7.63 10.54L7.63 10.54Q8.54 10.54 9.47 10.57Q10.39 10.61 11.20 10.68Q12 10.75 12.50 10.85L12.50 10.85L12.50 11.64Q11.83 11.54 10.99 11.48Q10.15 11.42 9.30 11.39Q8.45 11.35 7.70 11.35L7.70 11.35Q6.22 11.35 5.27 11.51Q4.32 11.66 3.74 12.07L3.74 12.07Q3.12 12.48 2.95 13.21Q2.78 13.94 2.78 14.93L2.78 14.93Q2.78 16.08 2.94 16.72Q3.10 17.35 3.61 17.63Q4.13 17.90 5.16 18.02L5.16 18.02L9.34 18.46Q10.39 18.55 11.17 18.70Q11.95 18.84 12.44 19.19Q12.94 19.54 13.15 20.28L13.15 20.28Q13.25 20.57 13.28 20.94Q13.32 21.31 13.33 21.76Q13.34 22.20 13.34 22.73L13.34 22.73Q13.34 24.07 13.10 24.95Q12.86 25.82 12.40 26.33Q11.93 26.83 11.27 27.07Q10.61 27.31 9.79 27.37Q8.98 27.43 7.99 27.43ZM21.24 27.43L21.24 27.43Q19.73 27.43 18.74 27.17Q17.76 26.90 17.29 26.15Q16.82 25.39 16.82 23.93L16.82 23.93Q16.82 22.58 17.14 21.83Q17.45 21.07 18.24 20.76Q19.03 20.45 20.45 20.45L20.45 20.45Q20.74 20.45 21.34 20.46Q21.94 20.47 22.72 20.50Q23.50 20.52 24.30 20.53Q25.10 20.54 25.80 20.57L25.80 20.57L25.80 19.46Q25.80 18.12 25.64 17.34Q25.49 16.56 25.04 16.18Q24.60 15.79 23.76 15.68Q22.92 15.58 21.58 15.58L21.58 15.58Q21.02 15.58 20.29 15.62Q19.56 15.67 18.86 15.73Q18.17 15.79 17.69 15.89L17.69 15.89L17.69 15.10Q18.41 14.98 19.51 14.89Q20.62 14.81 21.91 14.81L21.91 14.81Q23.09 14.81 23.92 14.93Q24.74 15.05 25.28 15.34Q25.82 15.62 26.11 16.14Q26.40 16.66 26.52 17.44Q26.64 18.22 26.64 19.32L26.64 19.32L26.64 27.24L25.97 27.24L25.90 25.25L25.80 25.25Q25.46 26.23 24.71 26.70Q23.95 27.17 23.03 27.30Q22.10 27.43 21.24 27.43ZM21.22 26.66L21.22 26.66Q22.06 26.66 22.86 26.58Q23.66 26.50 24.29 26.20Q24.91 25.90 25.22 25.22L25.22 25.22Q25.56 24.50 25.68 23.80Q25.80 23.09 25.80 22.20L25.80 22.20L25.80 21.22L20.69 21.22Q19.49 21.22 18.83 21.41Q18.17 21.60 17.92 22.18Q17.66 22.75 17.66 23.93L17.66 23.93Q17.66 25.03 17.95 25.63Q18.24 26.23 19.01 26.45Q19.78 26.66 21.22 26.66ZM32.38 10.87L31.34 10.87L31.34 9.41L32.38 9.41L32.38 10.87ZM32.28 27.24L31.44 27.24L31.44 15.00L32.28 15.00L32.28 27.24ZM37.92 27.24L37.08 27.24L37.08 15.00L37.73 15.00L37.82 17.62L37.92 17.62Q38.21 16.46 38.82 15.85Q39.43 15.24 40.28 15.02Q41.14 14.81 42.14 14.81L42.14 14.81L42.14 15.67Q40.39 15.67 39.48 16.30Q38.57 16.92 38.24 18.12Q37.92 19.32 37.92 21.02L37.92 21.02L37.92 27.24ZM48.60 27.43L48.60 27.43Q47.09 27.43 46.10 27.17Q45.12 26.90 44.65 26.15Q44.18 25.39 44.18 23.93L44.18 23.93Q44.18 22.58 44.50 21.83Q44.81 21.07 45.60 20.76Q46.39 20.45 47.81 20.45L47.81 20.45Q48.10 20.45 48.70 20.46Q49.30 20.47 50.08 20.50Q50.86 20.52 51.66 20.53Q52.46 20.54 53.16 20.57L53.16 20.57L53.16 19.46Q53.16 18.12 53.00 17.34Q52.85 16.56 52.40 16.18Q51.96 15.79 51.12 15.68Q50.28 15.58 48.94 15.58L48.94 15.58Q48.38 15.58 47.65 15.62Q46.92 15.67 46.22 15.73Q45.53 15.79 45.05 15.89L45.05 15.89L45.05 15.10Q45.77 14.98 46.87 14.89Q47.98 14.81 49.27 14.81L49.27 14.81Q50.45 14.81 51.28 14.93Q52.10 15.05 52.64 15.34Q53.18 15.62 53.47 16.14Q53.76 16.66 53.88 17.44Q54 18.22 54 19.32L54 19.32L54 27.24L53.33 27.24L53.26 25.25L53.16 25.25Q52.82 26.23 52.07 26.70Q51.31 27.17 50.39 27.30Q49.46 27.43 48.60 27.43ZM48.58 26.66L48.58 26.66Q49.42 26.66 50.22 26.58Q51.02 26.50 51.65 26.20Q52.27 25.90 52.58 25.22L52.58 25.22Q52.92 24.50 53.04 23.80Q53.16 23.09 53.16 22.20L53.16 22.20L53.16 21.22L48.05 21.22Q46.85 21.22 46.19 21.41Q45.53 21.60 45.28 22.18Q45.02 22.75 45.02 23.93L45.02 23.93Q45.02 25.03 45.31 25.63Q45.60 26.23 46.37 26.45Q47.14 26.66 48.58 26.66ZM73.15 27.24L72.29 27.24L72.29 23.02L63.07 23.02L63.07 22.27L69.74 10.73L70.75 10.73L64.08 22.20L72.31 22.20L72.31 15.00L73.15 15.00L73.15 22.20L75.77 22.20L75.77 23.02L73.15 23.02L73.15 27.24ZM85.20 27.43L85.20 27.43Q83.45 27.43 82.33 27.26Q81.22 27.10 80.58 26.62Q79.94 26.14 79.67 25.20Q79.39 24.26 79.32 22.75Q79.25 21.24 79.25 18.98L79.25 18.98Q79.25 16.73 79.32 15.22Q79.39 13.70 79.67 12.77Q79.94 11.83 80.58 11.35Q81.22 10.87 82.33 10.70Q83.45 10.54 85.20 10.54L85.20 10.54Q86.95 10.54 88.07 10.70Q89.18 10.87 89.82 11.35Q90.46 11.83 90.73 12.77Q91.01 13.70 91.08 15.22Q91.15 16.73 91.15 18.98L91.15 18.98Q91.15 21.24 91.08 22.75Q91.01 24.26 90.73 25.20Q90.46 26.14 89.82 26.62Q89.18 27.10 88.07 27.26Q86.95 27.43 85.20 27.43ZM85.20 26.62L85.20 26.62Q86.69 26.62 87.64 26.52Q88.58 26.42 89.12 26.06Q89.66 25.70 89.92 24.89Q90.17 24.07 90.23 22.64Q90.29 21.22 90.29 18.98L90.29 18.98Q90.29 16.75 90.23 15.32Q90.17 13.90 89.92 13.08Q89.66 12.26 89.12 11.90Q88.58 11.54 87.64 11.45Q86.69 11.35 85.20 11.35L85.20 11.35Q83.74 11.35 82.78 11.45Q81.82 11.54 81.28 11.90Q80.74 12.26 80.48 13.08Q80.23 13.90 80.17 15.32Q80.11 16.75 80.11 18.98L80.11 18.98Q80.11 21.22 80.17 22.64Q80.23 24.07 80.48 24.89Q80.74 25.70 81.28 26.06Q81.82 26.42 82.78 26.52Q83.74 26.62 85.20 26.62ZM101.42 27.43L101.42 27.43Q99.67 27.43 98.56 27.26Q97.44 27.10 96.80 26.62Q96.17 26.14 95.89 25.20Q95.62 24.26 95.54 22.75Q95.47 21.24 95.47 18.98L95.47 18.98Q95.47 16.73 95.54 15.22Q95.62 13.70 95.89 12.77Q96.17 11.83 96.80 11.35Q97.44 10.87 98.56 10.70Q99.67 10.54 101.42 10.54L101.42 10.54Q103.18 10.54 104.29 10.70Q105.41 10.87 106.04 11.35Q106.68 11.83 106.96 12.77Q107.23 13.70 107.30 15.22Q107.38 16.73 107.38 18.98L107.38 18.98Q107.38 21.24 107.30 22.75Q107.23 24.26 106.96 25.20Q106.68 26.14 106.04 26.62Q105.41 27.10 104.29 27.26Q103.18 27.43 101.42 27.43ZM101.42 26.62L101.42 26.62Q102.91 26.62 103.86 26.52Q104.81 26.42 105.35 26.06Q105.89 25.70 106.14 24.89Q106.39 24.07 106.45 22.64Q106.51 21.22 106.51 18.98L106.51 18.98Q106.51 16.75 106.45 15.32Q106.39 13.90 106.14 13.08Q105.89 12.26 105.35 11.90Q104.81 11.54 103.86 11.45Q102.91 11.35 101.42 11.35L101.42 11.35Q99.96 11.35 99.00 11.45Q98.04 11.54 97.50 11.90Q96.96 12.26 96.71 13.08Q96.46 13.90 96.40 15.32Q96.34 16.75 96.34 18.98L96.34 18.98Q96.34 21.22 96.40 22.64Q96.46 24.07 96.71 24.89Q96.96 25.70 97.50 26.06Q98.04 26.42 99.00 26.52Q99.96 26.62 101.42 26.62ZM118.15 27.24L117.31 27.24L117.31 15.00L117.98 15.00L118.06 16.99L118.15 16.99Q118.34 16.42 118.78 15.92Q119.21 15.43 120.10 15.12Q120.98 14.81 122.52 14.81L122.52 14.81Q123.98 14.81 124.87 15.07Q125.76 15.34 126.23 15.89Q126.70 16.44 126.85 17.35Q127.01 18.26 127.01 19.56L127.01 19.56L127.01 27.24L126.17 27.24L126.17 19.68Q126.17 18.34 126.02 17.53Q125.88 16.73 125.47 16.30Q125.06 15.86 124.31 15.72Q123.55 15.58 122.35 15.58L122.35 15.58Q120.77 15.58 119.90 15.98Q119.04 16.39 118.67 17.12Q118.30 17.86 118.22 18.83Q118.15 19.80 118.15 20.90L118.15 20.90L118.15 27.24ZM136.37 27.43L136.37 27.43Q134.90 27.43 133.96 27.28Q133.01 27.12 132.44 26.72Q131.88 26.33 131.62 25.61Q131.35 24.89 131.28 23.80Q131.21 22.70 131.21 21.14L131.21 21.14Q131.21 19.58 131.28 18.48Q131.35 17.38 131.62 16.66Q131.88 15.94 132.44 15.54Q133.01 15.14 133.96 14.98Q134.90 14.81 136.37 14.81L136.37 14.81Q137.83 14.81 138.78 14.98Q139.73 15.14 140.29 15.54Q140.86 15.94 141.12 16.66Q141.38 17.38 141.46 18.48Q141.53 19.58 141.53 21.14L141.53 21.14Q141.53 22.70 141.46 23.80Q141.38 24.89 141.12 25.61Q140.86 26.33 140.29 26.72Q139.73 27.12 138.78 27.28Q137.83 27.43 136.37 27.43ZM136.37 26.66L136.37 26.66Q138.00 26.66 138.89 26.45Q139.78 26.23 140.15 25.66Q140.52 25.08 140.60 23.99Q140.69 22.90 140.69 21.14L140.69 21.14Q140.69 19.39 140.60 18.29Q140.52 17.18 140.15 16.60Q139.78 16.01 138.89 15.79Q138.00 15.58 136.37 15.58L136.37 15.58Q134.76 15.58 133.86 15.79Q132.96 16.01 132.59 16.60Q132.22 17.18 132.13 18.29Q132.05 19.39 132.05 21.14L132.05 21.14Q132.05 22.90 132.13 23.99Q132.22 25.08 132.59 25.66Q132.96 26.23 133.86 26.45Q134.76 26.66 136.37 26.66ZM146.57 27.24L145.73 27.24L145.73 15.00L146.38 15.00L146.47 17.62L146.57 17.62Q146.86 16.46 147.47 15.85Q148.08 15.24 148.93 15.02Q149.78 14.81 150.79 14.81L150.79 14.81L150.79 15.67Q149.04 15.67 148.13 16.30Q147.22 16.92 146.89 18.12Q146.57 19.32 146.57 21.02L146.57 21.02L146.57 27.24ZM154.75 27.24L153.91 27.24L153.91 15.00L154.58 15.00L154.66 16.99L154.75 16.99Q154.92 16.42 155.30 15.92Q155.69 15.43 156.48 15.12Q157.27 14.81 158.64 14.81L158.64 14.81Q160.44 14.81 161.29 15.31Q162.14 15.82 162.43 16.99L162.43 16.99L162.55 16.99Q162.72 16.42 163.13 15.92Q163.54 15.43 164.35 15.12Q165.17 14.81 166.54 14.81L166.54 14.81Q168.26 14.81 169.13 15.28Q169.99 15.74 170.27 16.79Q170.54 17.83 170.54 19.56L170.54 19.56L170.54 27.24L169.70 27.24L169.70 19.68Q169.70 18.34 169.58 17.53Q169.46 16.73 169.12 16.30Q168.77 15.86 168.11 15.72Q167.45 15.58 166.37 15.58L166.37 15.58Q164.98 15.58 164.21 15.95Q163.44 16.32 163.12 17.03Q162.79 17.74 162.72 18.72Q162.65 19.70 162.65 20.90L162.65 20.90L162.65 27.24L161.81 27.24L161.81 19.68Q161.81 18.34 161.69 17.53Q161.57 16.73 161.22 16.30Q160.87 15.86 160.21 15.72Q159.55 15.58 158.47 15.58L158.47 15.58Q157.08 15.58 156.31 15.98Q155.54 16.39 155.22 17.12Q154.90 17.86 154.82 18.83Q154.75 19.80 154.75 20.90L154.75 20.90L154.75 27.24ZM178.92 27.43L178.92 27.43Q177.41 27.43 176.42 27.17Q175.44 26.90 174.97 26.15Q174.50 25.39 174.50 23.93L174.50 23.93Q174.50 22.58 174.82 21.83Q175.13 21.07 175.92 20.76Q176.71 20.45 178.13 20.45L178.13 20.45Q178.42 20.45 179.02 20.46Q179.62 20.47 180.40 20.50Q181.18 20.52 181.98 20.53Q182.78 20.54 183.48 20.57L183.48 20.57L183.48 19.46Q183.48 18.12 183.32 17.34Q183.17 16.56 182.72 16.18Q182.28 15.79 181.44 15.68Q180.60 15.58 179.26 15.58L179.26 15.58Q178.70 15.58 177.97 15.62Q177.24 15.67 176.54 15.73Q175.85 15.79 175.37 15.89L175.37 15.89L175.37 15.10Q176.09 14.98 177.19 14.89Q178.30 14.81 179.59 14.81L179.59 14.81Q180.77 14.81 181.60 14.93Q182.42 15.05 182.96 15.34Q183.50 15.62 183.79 16.14Q184.08 16.66 184.20 17.44Q184.32 18.22 184.32 19.32L184.32 19.32L184.32 27.24L183.65 27.24L183.58 25.25L183.48 25.25Q183.14 26.23 182.39 26.70Q181.63 27.17 180.71 27.30Q179.78 27.43 178.92 27.43ZM178.90 26.66L178.90 26.66Q179.74 26.66 180.54 26.58Q181.34 26.50 181.97 26.20Q182.59 25.90 182.90 25.22L182.90 25.22Q183.24 24.50 183.36 23.80Q183.48 23.09 183.48 22.20L183.48 22.20L183.48 21.22L178.37 21.22Q177.17 21.22 176.51 21.41Q175.85 21.60 175.60 22.18Q175.34 22.75 175.34 23.93L175.34 23.93Q175.34 25.03 175.63 25.63Q175.92 26.23 176.69 26.45Q177.46 26.66 178.90 26.66ZM189.96 27.24L189.12 27.24L189.12 9.41L189.96 9.41L189.96 27.24Z"/></svg>