<svg xmlns="http://www.w3.org/2000/svg" xmlns:xlink="http://www.w3.org/1999/xlink" width="249.52800000000002" height="27.504"><path fill="black" d="M2.69 22.46L1.34 22.46Q0.62 22.46 0.24 22.30Q-0.14 22.13-0.14 21.70L-0.14 21.70Q-0.14 21.41-0.07 21.02L-0.07 21.02L2.47 6.96Q2.62 6.12 3.25 5.84Q3.89 5.57 5.28 5.57L5.28 5.57L6.46 5.57Q7.85 5.57 8.48 5.84Q9.12 6.12 9.26 6.96L9.26 6.96L11.83 21.02Q11.90 21.41 11.90 21.70L11.90 21.70Q11.90 22.13 11.50 22.30Q11.09 22.46 10.18 22.46L10.18 22.46L9.10 22.46Q8.50 22.46 7.99 22.31Q7.49 22.15 7.42 21.60L7.42 21.60L7.18 19.51L4.56 19.51L4.32 21.60Q4.25 22.15 3.76 22.31Q3.26 22.46 2.69 22.46L2.69 22.46ZM5.59 10.78L5.59 10.78L4.99 15.89L6.74 15.89L6.12 10.78Q6.10 10.44 6.02 10.03Q5.95 9.62 5.90 9.19L5.90 9.19L5.78 9.19Q5.76 9.62 5.70 10.03Q5.64 10.44 5.59 10.78ZM15.65 22.61L15.65 22.61Q14.86 22.61 14.02 22.43Q13.18 22.25 12.60 21.90Q12.02 21.55 12.02 21.05L12.02 21.05Q12.02 20.14 12.44 19.48Q12.86 18.82 13.22 18.82L13.22 18.82Q13.44 18.82 13.73 18.97Q14.02 19.13 14.42 19.30Q14.83 19.46 15.38 19.46L15.38 19.46Q15.98 19.46 15.98 18.82L15.98 18.82Q15.98 18.31 15.59 18.05Q15.19 17.78 14.69 17.47L14.69 17.47Q14.14 17.14 13.56 16.68Q12.98 16.22 12.59 15.47Q12.19 14.71 12.19 13.54L12.19 13.54Q12.19 11.69 13.37 10.68Q14.54 9.67 16.39 9.67L16.39 9.67Q17.04 9.67 17.82 9.80Q18.60 9.94 19.18 10.24Q19.75 10.54 19.75 11.06L19.75 11.06Q19.75 11.90 19.42 12.58Q19.08 13.25 18.77 13.25L18.77 13.25Q18.43 13.25 17.99 13.03Q17.54 12.82 16.87 12.82L16.87 12.82Q16.22 12.82 16.22 13.42L16.22 13.42Q16.22 13.90 16.73 14.14Q17.23 14.38 17.81 14.76L17.81 14.76Q18.36 15.10 18.88 15.58Q19.39 16.06 19.73 16.76Q20.06 17.47 20.06 18.55L20.06 18.55Q20.06 20.30 18.91 21.46Q17.76 22.61 15.65 22.61ZM23.86 22.61L23.86 22.61Q22.25 22.61 21.42 21.54Q20.59 20.47 20.59 18.72L20.59 18.72Q20.59 18.02 20.78 17.27Q20.98 16.51 21.58 15.85Q22.18 15.19 23.35 14.77Q24.53 14.35 26.50 14.35L26.50 14.35L26.50 13.87Q26.50 12.96 25.27 12.96L25.27 12.96Q24.10 12.96 23.18 13.24Q22.27 13.51 21.94 13.51L21.94 13.51Q21.67 13.51 21.48 13.04Q21.29 12.58 21.19 12Q21.10 11.42 21.10 11.09L21.10 11.09Q21.10 10.75 21.58 10.50Q22.06 10.25 22.78 10.06Q23.50 9.86 24.24 9.77Q24.98 9.67 25.54 9.67L25.54 9.67Q27.55 9.67 28.67 10.20Q29.78 10.73 30.23 11.66Q30.67 12.60 30.67 13.82L30.67 13.82L30.67 18.29Q30.67 19.46 30.73 20.04Q30.79 20.62 30.85 20.89Q30.91 21.17 30.91 21.43L30.91 21.43Q30.91 21.84 30.44 22.07Q29.98 22.30 29.33 22.37Q28.68 22.44 28.13 22.44L28.13 22.44Q27.38 22.44 27.20 22.15Q27.02 21.86 26.90 21.05L26.90 21.05Q26.69 21.34 26.28 21.71Q25.87 22.08 25.27 22.34Q24.67 22.61 23.86 22.61ZM25.63 19.34L25.63 19.34Q26.30 19.34 26.50 19.10L26.50 19.10L26.50 16.66Q25.56 16.66 25.12 16.98Q24.67 17.30 24.67 18.05L24.67 18.05Q24.67 19.34 25.63 19.34ZM34.46 27.36L33.94 27.36Q32.98 27.36 32.54 27.11Q32.11 26.86 32.11 26.35L32.11 26.35L32.11 14.04Q32.11 12.86 32.05 12.29Q31.99 11.71 31.93 11.44Q31.87 11.16 31.87 10.90L31.87 10.90Q31.87 10.46 32.33 10.25Q32.78 10.03 33.44 9.96Q34.10 9.89 34.73 9.89L34.73 9.89Q35.52 9.89 35.75 10.16Q35.98 10.44 36.07 11.21L36.07 11.21Q36.46 10.54 37.15 10.10Q37.85 9.67 38.86 9.67L38.86 9.67Q40.66 9.67 41.59 11.33Q42.53 12.98 42.53 16.18L42.53 16.18Q42.53 19.27 41.53 20.94Q40.54 22.61 38.95 22.61L38.95 22.61Q37.46 22.61 36.29 21.77L36.29 21.77L36.29 26.35Q36.29 26.86 35.86 27.11Q35.42 27.36 34.46 27.36L34.46 27.36ZM37.15 19.08L37.15 19.08Q37.82 19.08 38.04 18.49Q38.26 17.90 38.26 16.15L38.26 16.15Q38.26 14.38 38.04 13.79Q37.82 13.20 37.15 13.20L37.15 13.20Q36.65 13.20 36.29 13.46L36.29 13.46L36.29 18.72Q36.43 18.91 36.67 19.00Q36.91 19.08 37.15 19.08ZM53.18 22.61L53.18 22.61Q46.44 22.61 46.44 14.02L46.44 14.02Q46.44 5.42 53.30 5.42L53.30 5.42Q54.02 5.42 54.67 5.54Q55.32 5.66 55.68 5.78L55.68 5.78Q56.16 5.95 56.35 6.16Q56.54 6.36 56.54 6.77L56.54 6.77Q56.54 7.08 56.47 7.58Q56.40 8.09 56.26 8.59Q56.11 9.10 55.92 9.44Q55.73 9.79 55.49 9.79L55.49 9.79Q55.10 9.79 54.68 9.66Q54.26 9.53 53.57 9.53L53.57 9.53Q52.18 9.53 51.55 10.56Q50.93 11.59 50.93 14.02L50.93 14.02Q50.93 16.42 51.56 17.46Q52.20 18.50 53.64 18.50L53.64 18.50Q54.48 18.50 54.92 18.37Q55.37 18.24 55.75 18.24L55.75 18.24Q56.04 18.24 56.22 18.56Q56.40 18.89 56.50 19.36Q56.59 19.82 56.64 20.30Q56.69 20.78 56.69 21.12L56.69 21.12Q56.69 21.55 56.52 21.76Q56.35 21.96 55.94 22.13L55.94 22.13Q55.56 22.30 54.80 22.45Q54.05 22.61 53.18 22.61ZM62.50 22.61L62.50 22.61Q59.86 22.61 58.49 20.93Q57.12 19.25 57.12 16.13L57.12 16.13Q57.12 12.98 58.48 11.33Q59.83 9.67 62.50 9.67L62.50 9.67Q65.18 9.67 66.54 11.33Q67.90 12.98 67.90 16.13L67.90 16.13Q67.90 19.25 66.53 20.93Q65.16 22.61 62.50 22.61ZM62.52 19.08L62.52 19.08Q63.19 19.08 63.41 18.48Q63.62 17.88 63.62 16.13L63.62 16.13Q63.62 14.38 63.41 13.79Q63.19 13.20 62.52 13.20L62.52 13.20Q61.85 13.20 61.62 13.79Q61.39 14.38 61.39 16.13L61.39 16.13Q61.39 17.88 61.62 18.48Q61.85 19.08 62.52 19.08ZM71.21 22.46L70.68 22.46Q69.72 22.46 69.29 22.21Q68.86 21.96 68.86 21.46L68.86 21.46L68.86 14.04Q68.86 12.86 68.80 12.29Q68.74 11.71 68.68 11.44Q68.62 11.16 68.62 10.90L68.62 10.90Q68.62 10.46 69.10 10.25Q69.58 10.03 70.27 9.96Q70.97 9.89 71.62 9.89L71.62 9.89Q72.38 9.89 72.58 10.21Q72.77 10.54 72.86 11.50L72.86 11.50Q73.34 10.78 74.12 10.22Q74.90 9.67 75.94 9.67L75.94 9.67Q79.10 9.67 79.10 13.01L79.10 13.01L79.10 21.46Q79.10 21.96 78.67 22.21Q78.24 22.46 77.28 22.46L77.28 22.46L76.75 22.46Q75.79 22.46 75.36 22.21Q74.93 21.96 74.93 21.46L74.93 21.46L74.93 14.21Q74.93 13.73 74.77 13.46Q74.62 13.20 74.14 13.20L74.14 13.20Q73.51 13.20 73.03 13.63L73.03 13.63L73.03 21.46Q73.03 21.96 72.60 22.21Q72.17 22.46 71.21 22.46L71.21 22.46ZM83.69 22.61L83.69 22.61Q82.01 22.61 81.01 20.94Q80.02 19.27 80.02 16.10L80.02 16.10Q80.02 12.98 81.05 11.33Q82.08 9.67 83.74 9.67L83.74 9.67Q85.15 9.67 86.26 10.51L86.26 10.51L86.26 5.33Q86.26 4.82 86.69 4.57Q87.12 4.32 88.08 4.32L88.08 4.32L88.61 4.32Q89.57 4.32 90 4.57Q90.43 4.82 90.43 5.33L90.43 5.33L90.43 18.29Q90.43 19.46 90.49 20.04Q90.55 20.62 90.61 20.89Q90.67 21.17 90.67 21.43L90.67 21.43Q90.67 21.84 90.19 22.07Q89.71 22.30 89.03 22.37Q88.34 22.44 87.67 22.44L87.67 22.44Q86.93 22.44 86.75 22.15Q86.57 21.86 86.42 21L86.42 21Q86.04 21.72 85.37 22.16Q84.70 22.61 83.69 22.61ZM85.39 19.08L85.39 19.08Q85.90 19.08 86.26 18.82L86.26 18.82L86.26 13.56Q86.11 13.37 85.87 13.28Q85.63 13.20 85.39 13.20L85.39 13.20Q84.72 13.20 84.50 13.79Q84.29 14.38 84.29 16.13L84.29 16.13Q84.29 17.88 84.50 18.48Q84.72 19.08 85.39 19.08ZM97.56 22.61L97.56 22.61Q94.37 22.61 92.89 20.95Q91.42 19.30 91.42 16.13L91.42 16.13Q91.42 13.68 92.11 12.26Q92.81 10.85 94.04 10.26Q95.28 9.67 96.89 9.67L96.89 9.67Q98.66 9.67 99.72 10.40Q100.78 11.14 101.26 12.47Q101.74 13.80 101.74 15.62L101.74 15.62Q101.74 17.66 100.49 17.66L100.49 17.66L95.66 17.66Q95.66 18.55 96.20 18.88Q96.74 19.20 97.73 19.20L97.73 19.20Q98.83 19.20 99.56 18.95Q100.30 18.70 100.61 18.70L100.61 18.70Q100.87 18.70 101.08 19.10Q101.28 19.51 101.40 20.04Q101.52 20.57 101.52 20.93L101.52 20.93Q101.52 21.31 101.09 21.62Q100.66 21.94 100.01 22.16Q99.36 22.39 98.69 22.50Q98.02 22.61 97.56 22.61ZM95.66 14.98L95.66 14.98L97.87 14.98Q97.87 13.68 97.66 13.24Q97.44 12.79 96.82 12.79L96.82 12.79Q96.14 12.79 95.90 13.24Q95.66 13.68 95.66 14.98ZM105.12 22.46L104.59 22.46Q103.63 22.46 103.20 22.21Q102.77 21.96 102.77 21.46L102.77 21.46L102.77 14.04Q102.77 12.86 102.71 12.29Q102.65 11.71 102.59 11.44Q102.53 11.16 102.53 10.90L102.53 10.90Q102.53 10.46 103.01 10.25Q103.49 10.03 104.18 9.96Q104.88 9.89 105.53 9.89L105.53 9.89Q106.30 9.89 106.49 10.21Q106.68 10.54 106.78 11.50L106.78 11.50Q107.26 10.78 108.04 10.22Q108.82 9.67 109.85 9.67L109.85 9.67Q113.02 9.67 113.02 13.01L113.02 13.01L113.02 21.46Q113.02 21.96 112.58 22.21Q112.15 22.46 111.19 22.46L111.19 22.46L110.66 22.46Q109.70 22.46 109.27 22.21Q108.84 21.96 108.84 21.46L108.84 21.46L108.84 14.21Q108.84 13.73 108.68 13.46Q108.53 13.20 108.05 13.20L108.05 13.20Q107.42 13.20 106.94 13.63L106.94 13.63L106.94 21.46Q106.94 21.96 106.51 22.21Q106.08 22.46 105.12 22.46L105.12 22.46ZM117.58 22.61L117.58 22.61Q116.78 22.61 115.94 22.43Q115.10 22.25 114.53 21.90Q113.95 21.55 113.95 21.05L113.95 21.05Q113.95 20.14 114.37 19.48Q114.79 18.82 115.15 18.82L115.15 18.82Q115.37 18.82 115.66 18.97Q115.94 19.13 116.35 19.30Q116.76 19.46 117.31 19.46L117.31 19.46Q117.91 19.46 117.91 18.82L117.91 18.82Q117.91 18.31 117.52 18.05Q117.12 17.78 116.62 17.47L116.62 17.47Q116.06 17.14 115.49 16.68Q114.91 16.22 114.52 15.47Q114.12 14.71 114.12 13.54L114.12 13.54Q114.12 11.69 115.30 10.68Q116.47 9.67 118.32 9.67L118.32 9.67Q118.97 9.67 119.75 9.80Q120.53 9.94 121.10 10.24Q121.68 10.54 121.68 11.06L121.68 11.06Q121.68 11.90 121.34 12.58Q121.01 13.25 120.70 13.25L120.70 13.25Q120.36 13.25 119.92 13.03Q119.47 12.82 118.80 12.82L118.80 12.82Q118.15 12.82 118.15 13.42L118.15 13.42Q118.15 13.90 118.66 14.14Q119.16 14.38 119.74 14.76L119.74 14.76Q120.29 15.10 120.80 15.58Q121.32 16.06 121.66 16.76Q121.99 17.47 121.99 18.55L121.99 18.55Q121.99 20.30 120.84 21.46Q119.69 22.61 117.58 22.61ZM128.57 22.61L128.57 22.61Q125.38 22.61 123.90 20.95Q122.42 19.30 122.42 16.13L122.42 16.13Q122.42 13.68 123.12 12.26Q123.82 10.85 125.05 10.26Q126.29 9.67 127.90 9.67L127.90 9.67Q129.67 9.67 130.73 10.40Q131.78 11.14 132.26 12.47Q132.74 13.80 132.74 15.62L132.74 15.62Q132.74 17.66 131.50 17.66L131.50 17.66L126.67 17.66Q126.67 18.55 127.21 18.88Q127.75 19.20 128.74 19.20L128.74 19.20Q129.84 19.20 130.57 18.95Q131.30 18.70 131.62 18.70L131.62 18.70Q131.88 18.70 132.08 19.10Q132.29 19.51 132.41 20.04Q132.53 20.57 132.53 20.93L132.53 20.93Q132.53 21.31 132.10 21.62Q131.66 21.94 131.02 22.16Q130.37 22.39 129.70 22.50Q129.02 22.61 128.57 22.61ZM126.67 14.98L126.67 14.98L128.88 14.98Q128.88 13.68 128.66 13.24Q128.45 12.79 127.82 12.79L127.82 12.79Q127.15 12.79 126.91 13.24Q126.67 13.68 126.67 14.98ZM136.85 22.61L136.85 22.61Q135.17 22.61 134.17 20.94Q133.18 19.27 133.18 16.10L133.18 16.10Q133.18 12.98 134.21 11.33Q135.24 9.67 136.90 9.67L136.90 9.67Q138.31 9.67 139.42 10.51L139.42 10.51L139.42 5.33Q139.42 4.82 139.85 4.57Q140.28 4.32 141.24 4.32L141.24 4.32L141.77 4.32Q142.73 4.32 143.16 4.57Q143.59 4.82 143.59 5.33L143.59 5.33L143.59 18.29Q143.59 19.46 143.65 20.04Q143.71 20.62 143.77 20.89Q143.83 21.17 143.83 21.43L143.83 21.43Q143.83 21.84 143.35 22.07Q142.87 22.30 142.19 22.37Q141.50 22.44 140.83 22.44L140.83 22.44Q140.09 22.44 139.91 22.15Q139.73 21.86 139.58 21L139.58 21Q139.20 21.72 138.53 22.16Q137.86 22.61 136.85 22.61ZM138.55 19.08L138.55 19.08Q139.06 19.08 139.42 18.82L139.42 18.82L139.42 13.56Q139.27 13.37 139.03 13.28Q138.79 13.20 138.55 13.20L138.55 13.20Q137.88 13.20 137.66 13.79Q137.45 14.38 137.45 16.13L137.45 16.13Q137.45 17.88 137.66 18.48Q137.88 19.08 138.55 19.08ZM153.22 5.52L153.22 5.52Q154.18 5.52 155.11 5.86Q156.05 6.19 156.82 6.92Q157.58 7.66 158.05 8.86Q158.52 10.06 158.52 11.78L158.52 11.78Q158.52 14.09 157.99 15.79Q157.46 17.50 156.61 18.68Q155.76 19.87 154.80 20.65Q153.84 21.43 152.96 21.85Q152.09 22.27 151.50 22.44Q150.91 22.61 150.84 22.61L150.84 22.61Q150.53 22.61 150.31 22.32Q150.10 22.03 149.95 21.61Q149.81 21.19 149.74 20.81Q149.66 20.42 149.66 20.26L149.66 20.26Q149.66 19.99 149.77 19.82Q149.88 19.66 150.41 19.49L150.41 19.49Q151.73 19.06 152.56 18.13Q153.38 17.21 153.84 16.01L153.84 16.01Q153.43 16.15 153.05 16.19Q152.66 16.22 152.30 16.22L152.30 16.22Q151.68 16.22 150.94 15.96Q150.19 15.70 149.51 15.08Q148.82 14.47 148.38 13.45Q147.94 12.43 147.94 10.90L147.94 10.90Q147.94 8.95 148.73 7.76Q149.52 6.58 150.73 6.05Q151.94 5.52 153.22 5.52ZM154.56 11.50L154.56 11.50Q154.56 9.98 154.15 9.40Q153.74 8.81 153.19 8.81L153.19 8.81Q152.57 8.81 152.21 9.34Q151.85 9.86 151.85 10.80L151.85 10.80Q151.85 11.78 152.23 12.36Q152.62 12.94 153.34 12.94L153.34 12.94Q153.91 12.94 154.51 12.72L154.51 12.72Q154.56 12.12 154.56 11.50ZM164.52 22.61L164.52 22.61Q162.84 22.61 161.62 21.73Q160.39 20.86 159.73 18.96Q159.07 17.06 159.07 14.02L159.07 14.02Q159.07 10.94 159.73 9.06Q160.39 7.18 161.62 6.30Q162.84 5.42 164.52 5.42L164.52 5.42Q166.22 5.42 167.44 6.30Q168.65 7.18 169.31 9.06Q169.97 10.94 169.97 14.02L169.97 14.02Q169.97 17.06 169.31 18.96Q168.65 20.86 167.44 21.73Q166.22 22.61 164.52 22.61ZM164.52 19.32L164.52 19.32Q164.90 19.32 165.16 18.92Q165.41 18.53 165.54 17.39Q165.67 16.25 165.67 14.02L165.67 14.02Q165.67 11.76 165.54 10.63Q165.41 9.50 165.16 9.11Q164.90 8.71 164.52 8.71L164.52 8.71Q164.16 8.71 163.90 9.11Q163.63 9.50 163.50 10.63Q163.37 11.76 163.37 14.02L163.37 14.02Q163.37 16.25 163.50 17.39Q163.63 18.53 163.90 18.92Q164.16 19.32 164.52 19.32ZM175.80 22.61L175.80 22.61Q174.12 22.61 172.90 21.73Q171.67 20.86 171.01 18.96Q170.35 17.06 170.35 14.02L170.35 14.02Q170.35 10.94 171.01 9.06Q171.67 7.18 172.90 6.30Q174.12 5.42 175.80 5.42L175.80 5.42Q177.50 5.42 178.72 6.30Q179.93 7.18 180.59 9.06Q181.25 10.94 181.25 14.02L181.25 14.02Q181.25 17.06 180.59 18.96Q179.93 20.86 178.72 21.73Q177.50 22.61 175.80 22.61ZM175.80 19.32L175.80 19.32Q176.18 19.32 176.44 18.92Q176.69 18.53 176.82 17.39Q176.95 16.25 176.95 14.02L176.95 14.02Q176.95 11.76 176.82 10.63Q176.69 9.50 176.44 9.11Q176.18 8.71 175.80 8.71L175.80 8.71Q175.44 8.71 175.18 9.11Q174.91 9.50 174.78 10.63Q174.65 11.76 174.65 14.02L174.65 14.02Q174.65 16.25 174.78 17.39Q174.91 18.53 175.18 18.92Q175.44 19.32 175.80 19.32ZM187.80 22.46L187.27 22.46Q186.31 22.46 185.88 22.21Q185.45 21.96 185.45 21.46L185.45 21.46L185.45 14.04Q185.45 12.86 185.39 12.29Q185.33 11.71 185.27 11.44Q185.21 11.16 185.21 10.90L185.21 10.90Q185.21 10.46 185.69 10.25Q186.17 10.03 186.86 9.96Q187.56 9.89 188.21 9.89L188.21 9.89Q188.98 9.89 189.17 10.21Q189.36 10.54 189.46 11.50L189.46 11.50Q189.94 10.78 190.72 10.22Q191.50 9.67 192.53 9.67L192.53 9.67Q195.70 9.67 195.70 13.01L195.70 13.01L195.70 21.46Q195.70 21.96 195.26 22.21Q194.83 22.46 193.87 22.46L193.87 22.46L193.34 22.46Q192.38 22.46 191.95 22.21Q191.52 21.96 191.52 21.46L191.52 21.46L191.52 14.21Q191.52 13.73 191.36 13.46Q191.21 13.20 190.73 13.20L190.73 13.20Q190.10 13.20 189.62 13.63L189.62 13.63L189.62 21.46Q189.62 21.96 189.19 22.21Q188.76 22.46 187.80 22.46L187.80 22.46ZM202.01 22.61L202.01 22.61Q199.37 22.61 198 20.93Q196.63 19.25 196.63 16.13L196.63 16.13Q196.63 12.98 197.99 11.33Q199.34 9.67 202.01 9.67L202.01 9.67Q204.70 9.67 206.05 11.33Q207.41 12.98 207.41 16.13L207.41 16.13Q207.41 19.25 206.04 20.93Q204.67 22.61 202.01 22.61ZM202.03 19.08L202.03 19.08Q202.70 19.08 202.92 18.48Q203.14 17.88 203.14 16.13L203.14 16.13Q203.14 14.38 202.92 13.79Q202.70 13.20 202.03 13.20L202.03 13.20Q201.36 13.20 201.13 13.79Q200.90 14.38 200.90 16.13L200.90 16.13Q200.90 17.88 201.13 18.48Q201.36 19.08 202.03 19.08ZM210.72 22.46L210.19 22.46Q209.23 22.46 208.80 22.21Q208.37 21.96 208.37 21.46L208.37 21.46L208.37 14.04Q208.37 12.86 208.31 12.29Q208.25 11.71 208.19 11.44Q208.13 11.16 208.13 10.90L208.13 10.90Q208.13 10.46 208.56 10.25Q208.99 10.03 209.62 9.96Q210.24 9.89 210.84 9.89L210.84 9.89Q211.39 9.89 211.66 10.02Q211.92 10.15 212.05 10.56Q212.18 10.97 212.28 11.78L212.28 11.78Q212.64 10.85 213.43 10.26Q214.22 9.67 214.90 9.67L214.90 9.67Q215.62 9.67 215.62 10.56L215.62 10.56Q215.62 11.35 215.48 12.23Q215.35 13.10 215.11 13.72Q214.87 14.33 214.56 14.33L214.56 14.33Q214.37 14.33 214.14 14.16Q213.91 13.99 213.50 13.99L213.50 13.99Q213.17 13.99 212.92 14.17Q212.66 14.35 212.54 14.62L212.54 14.62L212.54 21.46Q212.54 21.96 212.11 22.21Q211.68 22.46 210.72 22.46L210.72 22.46ZM217.80 22.46L217.27 22.46Q216.31 22.46 215.88 22.21Q215.45 21.96 215.45 21.46L215.45 21.46L215.45 14.04Q215.45 12.86 215.39 12.29Q215.33 11.71 215.27 11.44Q215.21 11.16 215.21 10.90L215.21 10.90Q215.21 10.46 215.66 10.25Q216.12 10.03 216.78 9.96Q217.44 9.89 218.06 9.89L218.06 9.89Q218.64 9.89 218.90 10.02Q219.17 10.15 219.28 10.50Q219.38 10.85 219.46 11.50L219.46 11.50Q219.89 10.80 220.72 10.24Q221.54 9.67 222.58 9.67L222.58 9.67Q223.75 9.67 224.40 10.14Q225.05 10.61 225.36 11.54L225.36 11.54Q225.77 10.82 226.50 10.25Q227.23 9.67 228.24 9.67L228.24 9.67Q231.34 9.67 231.34 13.01L231.34 13.01L231.34 21.46Q231.34 21.96 230.90 22.21Q230.47 22.46 229.51 22.46L229.51 22.46L228.98 22.46Q228.02 22.46 227.59 22.21Q227.16 21.96 227.16 21.46L227.16 21.46L227.16 14.21Q227.16 13.20 226.44 13.20L226.44 13.20Q225.98 13.20 225.48 13.70L225.48 13.70L225.48 21.46Q225.48 21.96 225.05 22.21Q224.62 22.46 223.66 22.46L223.66 22.46L223.13 22.46Q222.17 22.46 221.74 22.21Q221.30 21.96 221.30 21.46L221.30 21.46L221.30 14.21Q221.30 13.66 221.16 13.43Q221.02 13.20 220.66 13.20L220.66 13.20Q220.39 13.20 220.10 13.32Q219.82 13.44 219.62 13.63L219.62 13.63L219.62 21.46Q219.62 21.96 219.19 22.21Q218.76 22.46 217.80 22.46L217.80 22.46ZM235.63 22.61L235.63 22.61Q234.02 22.61 233.20 21.54Q232.37 20.47 232.37 18.72L232.37 18.72Q232.37 18.02 232.56 17.27Q232.75 16.51 233.35 15.85Q233.95 15.19 235.13 14.77Q236.30 14.35 238.27 14.35L238.27 14.35L238.27 13.87Q238.27 12.96 237.05 12.96L237.05 12.96Q235.87 12.96 234.96 13.24Q234.05 13.51 233.71 13.51L233.71 13.51Q233.45 13.51 233.26 13.04Q233.06 12.58 232.97 12Q232.87 11.42 232.87 11.09L232.87 11.09Q232.87 10.75 233.35 10.50Q233.83 10.25 234.55 10.06Q235.27 9.86 236.02 9.77Q236.76 9.67 237.31 9.67L237.31 9.67Q239.33 9.67 240.44 10.20Q241.56 10.73 242.00 11.66Q242.45 12.60 242.45 13.82L242.45 13.82L242.45 18.29Q242.45 19.46 242.51 20.04Q242.57 20.62 242.63 20.89Q242.69 21.17 242.69 21.43L242.69 21.43Q242.69 21.84 242.22 22.07Q241.75 22.30 241.10 22.37Q240.46 22.44 239.90 22.44L239.90 22.44Q239.16 22.44 238.98 22.15Q238.80 21.86 238.68 21.05L238.68 21.05Q238.46 21.34 238.06 21.71Q237.65 22.08 237.05 22.34Q236.45 22.61 235.63 22.61ZM237.41 19.34L237.41 19.34Q238.08 19.34 238.27 19.10L238.27 19.10L238.27 16.66Q237.34 16.66 236.89 16.98Q236.45 17.30 236.45 18.05L236.45 18.05Q236.45 19.34 237.41 19.34ZM247.44 22.61L247.44 22.61Q245.78 22.61 244.84 21.55Q243.89 20.50 243.89 18.67L243.89 18.67L243.89 5.33Q243.89 4.82 244.32 4.57Q244.75 4.32 245.71 4.32L245.71 4.32L246.24 4.32Q247.20 4.32 247.63 4.57Q248.06 4.82 248.06 5.33L248.06 5.33L248.06 18.19Q248.06 19.08 248.59 19.08L248.59 19.08Q248.78 19.08 248.95 19.02Q249.12 18.96 249.22 18.96L249.22 18.96Q249.46 18.96 249.64 19.42Q249.82 19.87 249.94 20.41Q250.06 20.95 250.06 21.24L250.06 21.24Q250.06 21.62 249.34 22.12Q248.62 22.61 247.44 22.61Z"/></svg>