<svg xmlns="http://www.w3.org/2000/svg" xmlns:xlink="http://www.w3.org/1999/xlink" width="238.968" height="31.2"><path fill="black" d="M8.57 24.14L8.57 24.14Q7.18 24.14 5.93 23.59Q4.68 23.04 3.72 22.07Q2.76 21.10 2.22 19.84Q1.68 18.58 1.68 17.14L1.68 17.14Q1.68 15.10 2.51 13.27Q3.34 11.45 4.78 10.06Q6.22 8.66 8.11 7.87Q10.01 7.08 12.12 7.08L12.12 7.08Q13.08 7.08 14.08 7.40Q15.07 7.73 15.95 8.30Q16.82 8.88 17.42 9.65L17.42 9.65L15.96 10.85Q15.29 9.94 14.12 9.37Q12.96 8.81 11.76 8.81L11.76 8.81Q10.08 8.81 8.60 9.47Q7.13 10.13 5.99 11.28Q4.85 12.43 4.20 13.93Q3.55 15.43 3.55 17.14L3.55 17.14Q3.55 18.55 4.28 19.76Q5.02 20.98 6.24 21.70Q7.46 22.42 8.90 22.42L8.90 22.42Q9.67 22.42 10.56 22.14Q11.45 21.86 12.32 21.38Q13.20 20.90 13.90 20.28L13.90 20.28L14.98 21.67Q14.11 22.39 13.00 22.96Q11.88 23.52 10.73 23.83Q9.58 24.14 8.57 24.14ZM19.32 23.86L17.52 23.86L21 7.08L22.80 7.08L19.32 23.86ZM28.30 24.14L28.30 24.14Q27.05 24.14 25.98 23.47Q24.91 22.80 24.28 21.67Q23.64 20.54 23.64 19.20L23.64 19.20Q23.64 17.57 24.22 16.12Q24.79 14.66 25.81 13.55Q26.83 12.43 28.16 11.80Q29.50 11.16 30.98 11.16L30.98 11.16Q32.11 11.16 33.06 11.81Q34.01 12.46 34.57 13.54Q35.14 14.62 35.14 15.91L35.14 15.91Q35.14 17.59 34.60 19.08Q34.06 20.57 33.11 21.71Q32.16 22.85 30.92 23.50Q29.69 24.14 28.30 24.14ZM28.63 22.54L28.63 22.54Q29.76 22.54 30.77 22.04Q31.78 21.55 32.54 20.68Q33.31 19.80 33.76 18.66Q34.20 17.52 34.20 16.22L34.20 16.22Q34.20 15.29 33.71 14.50Q33.22 13.70 32.41 13.24Q31.61 12.77 30.65 12.77L30.65 12.77Q29.62 12.77 28.68 13.26Q27.74 13.75 27.04 14.63Q26.33 15.50 25.92 16.64Q25.51 17.78 25.51 19.08L25.51 19.08Q25.51 20.02 25.93 20.80Q26.35 21.58 27.07 22.06Q27.79 22.54 28.63 22.54ZM34.54 23.86L32.74 23.86L35.33 11.45L37.13 11.45L34.54 23.86ZM41.95 16.97L41.95 16.97L41.86 15.65Q42.14 14.30 43.00 13.30Q43.85 12.29 45.12 11.72Q46.39 11.16 47.90 11.16L47.90 11.16L47.69 12.77Q46.30 12.77 45.08 13.31Q43.87 13.85 43.04 14.80Q42.22 15.74 41.95 16.97ZM40.51 23.86L38.71 23.86L41.30 11.45L43.10 11.45L40.51 23.86ZM49.42 23.86L47.62 23.86L50.21 11.45L52.01 11.45L49.42 23.86ZM51.72 9.19L51.72 9.19Q51.24 9.19 50.94 8.88Q50.64 8.57 50.64 8.11L50.64 8.11Q50.64 7.78 50.82 7.49Q51 7.20 51.30 7.01Q51.60 6.82 51.96 6.82L51.96 6.82Q52.44 6.82 52.73 7.13Q53.02 7.44 53.02 7.90L53.02 7.90Q53.02 8.23 52.82 8.53Q52.63 8.83 52.34 9.01Q52.06 9.19 51.72 9.19ZM57.05 24.14L57.05 24.14Q55.87 24.14 55.19 23.45Q54.50 22.75 54.50 21.65L54.50 21.65Q54.50 21.48 54.53 21.26Q54.55 21.05 54.64 20.59Q54.72 20.14 54.90 19.27Q55.08 18.41 55.38 16.97Q55.68 15.53 56.15 13.34Q56.62 11.16 57.26 8.04L57.26 8.04L59.06 8.04Q58.34 11.50 57.85 13.84Q57.36 16.18 57.06 17.63Q56.76 19.08 56.60 19.85Q56.45 20.62 56.39 20.94Q56.33 21.26 56.32 21.32Q56.30 21.38 56.30 21.46L56.30 21.46Q56.30 21.96 56.57 22.25Q56.83 22.54 57.24 22.54L57.24 22.54Q57.72 22.54 58.12 22.37Q58.51 22.20 58.73 21.98L58.73 21.98L59.45 23.40Q58.87 23.78 58.26 23.96Q57.65 24.14 57.05 24.14ZM61.06 13.06L54.26 13.06L54.60 11.45L61.39 11.45L61.06 13.06ZM62.21 28.18L62.21 28.18Q61.63 28.18 61.15 28.06Q60.67 27.94 60.26 27.74L60.26 27.74L60.89 26.26Q61.18 26.42 61.54 26.48Q61.90 26.54 62.21 26.54L62.21 26.54Q62.86 26.54 63.36 26.28Q63.86 26.02 64.34 25.37L64.34 25.37L65.42 23.90L62.64 11.45L64.58 11.45L66.77 21.77L73.03 11.45L75.02 11.45L66.48 25.32Q65.52 26.90 64.46 27.54Q63.41 28.18 62.21 28.18ZM89.16 24.14L89.16 24.14Q87.77 24.14 86.52 23.59Q85.27 23.04 84.31 22.07Q83.35 21.10 82.81 19.84Q82.27 18.58 82.27 17.14L82.27 17.14Q82.27 15.10 83.10 13.27Q83.93 11.45 85.37 10.06Q86.81 8.66 88.70 7.87Q90.60 7.08 92.71 7.08L92.71 7.08Q93.67 7.08 94.67 7.40Q95.66 7.73 96.54 8.30Q97.42 8.88 98.02 9.65L98.02 9.65L96.55 10.85Q95.88 9.94 94.72 9.37Q93.55 8.81 92.35 8.81L92.35 8.81Q90.67 8.81 89.20 9.47Q87.72 10.13 86.58 11.28Q85.44 12.43 84.79 13.93Q84.14 15.43 84.14 17.14L84.14 17.14Q84.14 18.55 84.88 19.76Q85.61 20.98 86.83 21.70Q88.06 22.42 89.50 22.42L89.50 22.42Q90.26 22.42 91.15 22.14Q92.04 21.86 92.92 21.38Q93.79 20.90 94.49 20.28L94.49 20.28L95.57 21.67Q94.70 22.39 93.59 22.96Q92.47 23.52 91.32 23.83Q90.17 24.14 89.16 24.14ZM99.89 23.86L98.09 23.86L100.68 11.45L102.48 11.45L99.89 23.86ZM102.19 9.19L102.19 9.19Q101.71 9.19 101.41 8.88Q101.11 8.57 101.11 8.11L101.11 8.11Q101.11 7.78 101.29 7.49Q101.47 7.20 101.77 7.01Q102.07 6.82 102.43 6.82L102.43 6.82Q102.91 6.82 103.20 7.13Q103.49 7.44 103.49 7.90L103.49 7.90Q103.49 8.23 103.30 8.53Q103.10 8.83 102.82 9.01Q102.53 9.19 102.19 9.19ZM107.52 24.14L107.52 24.14Q106.34 24.14 105.66 23.45Q104.98 22.75 104.98 21.65L104.98 21.65Q104.98 21.48 105.00 21.26Q105.02 21.05 105.11 20.59Q105.19 20.14 105.37 19.27Q105.55 18.41 105.85 16.97Q106.15 15.53 106.62 13.34Q107.09 11.16 107.74 8.04L107.74 8.04L109.54 8.04Q108.82 11.50 108.32 13.84Q107.83 16.18 107.53 17.63Q107.23 19.08 107.08 19.85Q106.92 20.62 106.86 20.94Q106.80 21.26 106.79 21.32Q106.78 21.38 106.78 21.46L106.78 21.46Q106.78 21.96 107.04 22.25Q107.30 22.54 107.71 22.54L107.71 22.54Q108.19 22.54 108.59 22.37Q108.98 22.20 109.20 21.98L109.20 21.98L109.92 23.40Q109.34 23.78 108.73 23.96Q108.12 24.14 107.52 24.14ZM111.53 13.06L104.74 13.06L105.07 11.45L111.86 11.45L111.53 13.06ZM112.68 28.18L112.68 28.18Q112.10 28.18 111.62 28.06Q111.14 27.94 110.74 27.74L110.74 27.74L111.36 26.26Q111.65 26.42 112.01 26.48Q112.37 26.54 112.68 26.54L112.68 26.54Q113.33 26.54 113.83 26.28Q114.34 26.02 114.82 25.37L114.82 25.37L115.90 23.90L113.11 11.45L115.06 11.45L117.24 21.77L123.50 11.45L125.50 11.45L116.95 25.32Q115.99 26.90 114.94 27.54Q113.88 28.18 112.68 28.18ZM140.76 23.86L138.89 23.86L139.73 19.85L131.52 19.85L131.57 18.29L142.01 7.37L144.19 7.37L141.96 18.14L144.43 18.14L144.07 19.85L141.60 19.85L140.76 23.86ZM141.89 9.62L133.78 18.14L140.09 18.14L141.89 9.62ZM152.23 24.14L152.23 24.14Q150.55 24.14 149.33 23.36Q148.10 22.58 147.44 21.18Q146.78 19.78 146.78 17.90L146.78 17.90Q146.78 16.32 147.20 14.75Q147.62 13.18 148.40 11.80Q149.18 10.42 150.26 9.36Q151.34 8.30 152.68 7.69Q154.01 7.08 155.52 7.08L155.52 7.08Q157.22 7.08 158.44 7.86Q159.65 8.64 160.31 10.03Q160.97 11.42 160.97 13.30L160.97 13.30Q160.97 14.90 160.55 16.46Q160.13 18.02 159.36 19.42Q158.59 20.81 157.51 21.86Q156.43 22.92 155.10 23.53Q153.77 24.14 152.23 24.14ZM152.33 22.42L152.33 22.42Q153.53 22.42 154.56 21.88Q155.59 21.34 156.43 20.41Q157.27 19.49 157.86 18.32Q158.45 17.16 158.77 15.88Q159.10 14.59 159.10 13.34L159.10 13.34Q159.10 11.28 158.12 10.04Q157.15 8.81 155.42 8.81L155.42 8.81Q154.25 8.81 153.20 9.35Q152.16 9.89 151.33 10.80Q150.50 11.71 149.90 12.88Q149.30 14.04 148.98 15.32Q148.66 16.61 148.66 17.83L148.66 17.83Q148.66 19.90 149.63 21.16Q150.60 22.42 152.33 22.42ZM168.84 24.14L168.84 24.14Q167.16 24.14 165.94 23.36Q164.71 22.58 164.05 21.18Q163.39 19.78 163.39 17.90L163.39 17.90Q163.39 16.32 163.81 14.75Q164.23 13.18 165.01 11.80Q165.79 10.42 166.87 9.36Q167.95 8.30 169.28 7.69Q170.62 7.08 172.13 7.08L172.13 7.08Q173.83 7.08 175.04 7.86Q176.26 8.64 176.92 10.03Q177.58 11.42 177.58 13.30L177.58 13.30Q177.58 14.90 177.16 16.46Q176.74 18.02 175.97 19.42Q175.20 20.81 174.12 21.86Q173.04 22.92 171.71 23.53Q170.38 24.14 168.84 24.14ZM168.94 22.42L168.94 22.42Q170.14 22.42 171.17 21.88Q172.20 21.34 173.04 20.41Q173.88 19.49 174.47 18.32Q175.06 17.16 175.38 15.88Q175.70 14.59 175.70 13.34L175.70 13.34Q175.70 11.28 174.73 10.04Q173.76 8.81 172.03 8.81L172.03 8.81Q170.86 8.81 169.81 9.35Q168.77 9.89 167.94 10.80Q167.11 11.71 166.51 12.88Q165.91 14.04 165.59 15.32Q165.26 16.61 165.26 17.83L165.26 17.83Q165.26 19.90 166.24 21.16Q167.21 22.42 168.94 22.42ZM187.56 23.86L185.76 23.86L188.35 11.45L190.15 11.45L187.56 23.86ZM189.86 9.19L189.86 9.19Q189.38 9.19 189.08 8.88Q188.78 8.57 188.78 8.11L188.78 8.11Q188.78 7.78 188.96 7.49Q189.14 7.20 189.44 7.01Q189.74 6.82 190.10 6.82L190.10 6.82Q190.58 6.82 190.87 7.13Q191.16 7.44 191.16 7.90L191.16 7.90Q191.16 8.23 190.97 8.53Q190.78 8.83 190.49 9.01Q190.20 9.19 189.86 9.19ZM195.19 24.14L195.19 24.14Q194.02 24.14 193.33 23.45Q192.65 22.75 192.65 21.65L192.65 21.65Q192.65 21.48 192.67 21.26Q192.70 21.05 192.78 20.59Q192.86 20.14 193.04 19.27Q193.22 18.41 193.52 16.97Q193.82 15.53 194.29 13.34Q194.76 11.16 195.41 8.04L195.41 8.04L197.21 8.04Q196.49 11.50 196.00 13.84Q195.50 16.18 195.20 17.63Q194.90 19.08 194.75 19.85Q194.59 20.62 194.53 20.94Q194.47 21.26 194.46 21.32Q194.45 21.38 194.45 21.46L194.45 21.46Q194.45 21.96 194.71 22.25Q194.98 22.54 195.38 22.54L195.38 22.54Q195.86 22.54 196.26 22.37Q196.66 22.20 196.87 21.98L196.87 21.98L197.59 23.40Q197.02 23.78 196.40 23.96Q195.79 24.14 195.19 24.14ZM199.20 13.06L192.41 13.06L192.74 11.45L199.54 11.45L199.20 13.06ZM204.86 24.14L204.86 24.14Q203.62 24.14 202.55 23.47Q201.48 22.80 200.84 21.67Q200.21 20.54 200.21 19.20L200.21 19.20Q200.21 17.57 200.78 16.12Q201.36 14.66 202.38 13.55Q203.40 12.43 204.73 11.80Q206.06 11.16 207.55 11.16L207.55 11.16Q208.68 11.16 209.63 11.81Q210.58 12.46 211.14 13.54Q211.70 14.62 211.70 15.91L211.70 15.91Q211.70 17.59 211.16 19.08Q210.62 20.57 209.68 21.71Q208.73 22.85 207.49 23.50Q206.26 24.14 204.86 24.14ZM205.20 22.54L205.20 22.54Q206.33 22.54 207.34 22.04Q208.34 21.55 209.11 20.68Q209.88 19.80 210.32 18.66Q210.77 17.52 210.77 16.22L210.77 16.22Q210.77 15.29 210.28 14.50Q209.78 13.70 208.98 13.24Q208.18 12.77 207.22 12.77L207.22 12.77Q206.18 12.77 205.25 13.26Q204.31 13.75 203.60 14.63Q202.90 15.50 202.49 16.64Q202.08 17.78 202.08 19.08L202.08 19.08Q202.08 20.02 202.50 20.80Q202.92 21.58 203.64 22.06Q204.36 22.54 205.20 22.54ZM211.10 23.86L209.30 23.86L211.90 11.45L213.70 11.45L211.10 23.86ZM217.10 23.86L215.30 23.86L218.78 7.08L220.58 7.08L217.10 23.86ZM223.08 23.86L221.28 23.86L223.87 11.45L225.67 11.45L223.08 23.86ZM225.38 9.19L225.38 9.19Q224.90 9.19 224.60 8.88Q224.30 8.57 224.30 8.11L224.30 8.11Q224.30 7.78 224.48 7.49Q224.66 7.20 224.96 7.01Q225.26 6.82 225.62 6.82L225.62 6.82Q226.10 6.82 226.39 7.13Q226.68 7.44 226.68 7.90L226.68 7.90Q226.68 8.23 226.49 8.53Q226.30 8.83 226.01 9.01Q225.72 9.19 225.38 9.19ZM232.54 24.14L232.54 24.14Q231.14 24.14 229.97 23.42Q228.79 22.70 228.08 21.49Q227.38 20.28 227.38 18.86L227.38 18.86Q227.38 17.30 228 15.91Q228.62 14.52 229.70 13.45Q230.78 12.38 232.20 11.77Q233.62 11.16 235.22 11.16L235.22 11.16Q236.30 11.16 237.43 11.68Q238.56 12.19 239.26 13.03L239.26 13.03L237.84 14.16Q237.41 13.54 236.58 13.15Q235.75 12.77 234.89 12.77L234.89 12.77Q233.74 12.77 232.72 13.24Q231.70 13.70 230.92 14.53Q230.14 15.36 229.69 16.44Q229.25 17.52 229.25 18.74L229.25 18.74Q229.25 19.78 229.74 20.64Q230.23 21.50 231.06 22.02Q231.89 22.54 232.85 22.54L232.85 22.54Q233.78 22.54 234.67 22.15Q235.56 21.77 236.40 20.98L236.40 20.98L237.48 22.30Q236.38 23.23 235.14 23.69Q233.90 24.14 232.54 24.14Z"/></svg>