<svg xmlns="http://www.w3.org/2000/svg" xmlns:xlink="http://www.w3.org/1999/xlink" width="19.2" height="33.6"><path fill="black" d="M0 11.04L0 11.04Q0 11.35 0.17 11.63Q0.34 11.90 0.61 12.07Q0.89 12.24 1.20 12.24L1.20 12.24Q1.51 12.24 1.79 12.07Q2.06 11.90 2.23 11.63Q2.40 11.35 2.40 11.04L2.40 11.04Q2.40 10.73 2.23 10.45Q2.06 10.18 1.79 10.01Q1.51 9.84 1.20 9.84L1.20 9.84Q0.89 9.84 0.61 10.01Q0.34 10.18 0.17 10.45Q0 10.73 0 11.04ZM2.40 24.96L2.40 24.96Q2.40 25.27 2.57 25.55Q2.74 25.82 3.01 25.99Q3.29 26.16 3.60 26.16L3.60 26.16Q3.91 26.16 4.19 25.99Q4.46 25.82 4.63 25.55Q4.80 25.27 4.80 24.96L4.80 24.96Q4.80 24.65 4.63 24.37Q4.46 24.10 4.19 23.93Q3.91 23.76 3.60 23.76L3.60 23.76Q3.29 23.76 3.01 23.93Q2.74 24.10 2.57 24.37Q2.40 24.65 2.40 24.96ZM4.80 22.56L4.80 22.56Q4.80 22.87 4.97 23.15Q5.14 23.42 5.41 23.59Q5.69 23.76 6 23.76L6 23.76Q6.31 23.76 6.59 23.59Q6.86 23.42 7.03 23.15Q7.20 22.87 7.20 22.56L7.20 22.56Q7.20 22.25 7.03 21.97Q6.86 21.70 6.59 21.53Q6.31 21.36 6 21.36L6 21.36Q5.69 21.36 5.41 21.53Q5.14 21.70 4.97 21.97Q4.80 22.25 4.80 22.56ZM7.20 26.88L7.20 26.88Q7.20 27.19 7.37 27.47Q7.54 27.74 7.81 27.91Q8.09 28.08 8.40 28.08L8.40 28.08Q8.71 28.08 8.99 27.91Q9.26 27.74 9.43 27.47Q9.60 27.19 9.60 26.88L9.60 26.88Q9.60 26.57 9.43 26.29Q9.26 26.02 8.99 25.85Q8.71 25.68 8.40 25.68L8.40 25.68Q8.09 25.68 7.81 25.85Q7.54 26.02 7.37 26.29Q7.20 26.57 7.20 26.88ZM9.60 26.40L9.60 26.40Q9.60 26.71 9.77 26.99Q9.94 27.26 10.21 27.43Q10.49 27.60 10.80 27.60L10.80 27.60Q11.11 27.60 11.39 27.43Q11.66 27.26 11.83 26.99Q12 26.71 12 26.40L12 26.40Q12 26.09 11.83 25.81Q11.66 25.54 11.39 25.37Q11.11 25.20 10.80 25.20L10.80 25.20Q10.49 25.20 10.21 25.37Q9.94 25.54 9.77 25.81Q9.60 26.09 9.60 26.40ZM12 22.08L12 22.08Q12 22.39 12.17 22.67Q12.34 22.94 12.61 23.11Q12.89 23.28 13.20 23.28L13.20 23.28Q13.51 23.28 13.79 23.11Q14.06 22.94 14.23 22.67Q14.40 22.39 14.40 22.08L14.40 22.08Q14.40 21.77 14.23 21.49Q14.06 21.22 13.79 21.05Q13.51 20.88 13.20 20.88L13.20 20.88Q12.89 20.88 12.61 21.05Q12.34 21.22 12.17 21.49Q12 21.77 12 22.08ZM14.40 22.56L14.40 22.56Q14.40 22.87 14.57 23.15Q14.74 23.42 15.01 23.59Q15.29 23.76 15.60 23.76L15.60 23.76Q15.91 23.76 16.19 23.59Q16.46 23.42 16.63 23.15Q16.80 22.87 16.80 22.56L16.80 22.56Q16.80 22.25 16.63 21.97Q16.46 21.70 16.19 21.53Q15.91 21.36 15.60 21.36L15.60 21.36Q15.29 21.36 15.01 21.53Q14.74 21.70 14.57 21.97Q14.40 22.25 14.40 22.56ZM16.80 19.68L16.80 19.68Q16.80 19.99 16.97 20.27Q17.14 20.54 17.41 20.71Q17.69 20.88 18 20.88L18 20.88Q18.31 20.88 18.59 20.71Q18.86 20.54 19.03 20.27Q19.20 19.99 19.20 19.68L19.20 19.68Q19.20 19.37 19.03 19.09Q18.86 18.82 18.59 18.65Q18.31 18.48 18 18.48L18 18.48Q17.69 18.48 17.41 18.65Q17.14 18.82 16.97 19.09Q16.80 19.37 16.80 19.68Z"/></svg>