<svg xmlns="http://www.w3.org/2000/svg" xmlns:xlink="http://www.w3.org/1999/xlink" width="139.296" height="35.160000000000004"><path fill="black" d="M4.20 9.60L17.16 9.60L17.16 11.28L7.68 11.28L7.68 23.88L10.56 23.88L10.56 16.92L17.52 16.92L17.52 24.72Q17.52 24.98 17.06 25.15Q16.61 25.32 15.98 25.40Q15.36 25.49 14.81 25.52Q14.26 25.56 14.04 25.56L14.04 25.56L4.20 25.56Q3.98 25.56 3.43 25.52Q2.88 25.49 2.26 25.40Q1.63 25.32 1.18 25.15Q0.72 24.98 0.72 24.72L0.72 24.72L0.72 10.44Q0.72 10.18 1.18 10.01Q1.63 9.84 2.26 9.76Q2.88 9.67 3.43 9.64Q3.98 9.60 4.20 9.60L4.20 9.60ZM27.82 15.19L19.42 15.19L19.42 13.56L31.18 13.56Q31.37 13.56 31.91 13.60Q32.45 13.63 33.06 13.72Q33.67 13.80 34.10 13.96Q34.54 14.11 34.54 14.38L34.54 14.38L34.54 24.74Q34.54 24.98 34.10 25.15Q33.67 25.32 33.06 25.40Q32.45 25.49 31.91 25.52Q31.37 25.56 31.18 25.56L31.18 25.56L22.32 25.56Q22.13 25.56 21.59 25.52Q21.05 25.49 20.44 25.40Q19.82 25.32 19.39 25.15Q18.96 24.98 18.96 24.74L18.96 24.74L18.96 18.14Q18.96 17.88 19.39 17.72Q19.82 17.57 20.44 17.48Q21.05 17.40 21.59 17.36Q22.13 17.33 22.32 17.33L22.32 17.33L24.46 17.33Q24.72 17.33 25.21 17.35Q25.70 17.38 26.26 17.46Q26.81 17.54 27.24 17.69Q27.67 17.83 27.79 18.05L27.79 18.05Q27.82 18.07 27.82 18.14L27.82 18.14L27.82 15.19ZM27.82 23.93L27.82 18.96L25.68 18.96L25.68 23.93L27.82 23.93ZM42.84 9.60L42.84 12.34L36.12 12.34L36.12 10.42Q36.12 10.15 36.55 10.00Q36.98 9.84 37.60 9.76Q38.21 9.67 38.75 9.64Q39.29 9.60 39.48 9.60L39.48 9.60L42.84 9.60ZM36.14 27.89L36.14 13.56L42.86 13.56L42.86 28.70Q42.86 28.94 42.43 29.11Q42 29.28 41.39 29.36Q40.78 29.45 40.24 29.48Q39.70 29.52 39.50 29.52L39.50 29.52L33.98 29.52L33.98 27.89L36.14 27.89ZM51.02 15.19L51.02 25.56L44.30 25.56L44.30 14.38Q44.30 14.11 44.74 13.96Q45.17 13.80 45.78 13.72Q46.39 13.63 46.93 13.60Q47.47 13.56 47.66 13.56L47.66 13.56L54.89 13.56L54.89 15.19L51.02 15.19ZM64.94 15.19L56.54 15.19L56.54 13.56L68.30 13.56Q68.50 13.56 69.04 13.60Q69.58 13.63 70.19 13.72Q70.80 13.80 71.23 13.96Q71.66 14.11 71.66 14.38L71.66 14.38L71.66 24.74Q71.66 24.98 71.23 25.15Q70.80 25.32 70.19 25.40Q69.58 25.49 69.04 25.52Q68.50 25.56 68.30 25.56L68.30 25.56L59.45 25.56Q59.26 25.56 58.72 25.52Q58.18 25.49 57.56 25.40Q56.95 25.32 56.52 25.15Q56.09 24.98 56.09 24.74L56.09 24.74L56.09 18.14Q56.09 17.88 56.52 17.72Q56.95 17.57 57.56 17.48Q58.18 17.40 58.72 17.36Q59.26 17.33 59.45 17.33L59.45 17.33L61.58 17.33Q61.85 17.33 62.34 17.35Q62.83 17.38 63.38 17.46Q63.94 17.54 64.37 17.69Q64.80 17.83 64.92 18.05L64.92 18.05Q64.94 18.07 64.94 18.14L64.94 18.14L64.94 15.19ZM64.94 23.93L64.94 18.96L62.81 18.96L62.81 23.93L64.94 23.93ZM79.97 9.60L79.97 12.34L73.25 12.34L73.25 10.42Q73.25 10.15 73.68 10.00Q74.11 9.84 74.72 9.76Q75.34 9.67 75.88 9.64Q76.42 9.60 76.61 9.60L76.61 9.60L79.97 9.60ZM73.27 27.89L73.27 13.56L79.99 13.56L79.99 28.70Q79.99 28.94 79.56 29.11Q79.13 29.28 78.52 29.36Q77.90 29.45 77.36 29.48Q76.82 29.52 76.63 29.52L76.63 29.52L71.11 29.52L71.11 27.89L73.27 27.89ZM101.50 25.56L101.50 25.56L91.15 25.56Q90.94 25.56 90.38 25.52Q89.83 25.49 89.21 25.40Q88.58 25.32 88.13 25.15Q87.67 24.98 87.67 24.72L87.67 24.72L87.67 10.44Q87.67 10.18 88.13 10.01Q88.58 9.84 89.21 9.76Q89.83 9.67 90.38 9.64Q90.94 9.60 91.15 9.60L91.15 9.60L101.50 9.60Q101.71 9.60 102.26 9.64Q102.82 9.67 103.44 9.76Q104.06 9.84 104.52 10.01Q104.98 10.18 104.98 10.44L104.98 10.44L104.98 24.72Q104.98 24.98 104.52 25.15Q104.06 25.32 103.44 25.40Q102.82 25.49 102.26 25.52Q101.71 25.56 101.50 25.56ZM94.63 11.28L94.63 23.88L98.02 23.88L98.02 11.28L94.63 11.28ZM113.14 15.19L113.14 25.56L106.42 25.56L106.42 13.56L118.42 13.56Q118.61 13.56 119.15 13.60Q119.69 13.63 120.30 13.72Q120.91 13.80 121.34 13.96Q121.78 14.11 121.78 14.38L121.78 14.38L121.78 25.56L115.06 25.56L115.06 15.19L113.14 15.19ZM129.94 23.93L138.34 23.93L138.34 25.56L126.58 25.56Q126.38 25.56 125.84 25.52Q125.30 25.49 124.69 25.40Q124.08 25.32 123.65 25.15Q123.22 24.98 123.22 24.74L123.22 24.74L123.22 14.38Q123.22 14.11 123.65 13.96Q124.08 13.80 124.69 13.72Q125.30 13.63 125.84 13.60Q126.38 13.56 126.58 13.56L126.58 13.56L135.22 13.56Q135.41 13.56 135.95 13.60Q136.49 13.63 137.10 13.72Q137.71 13.80 138.14 13.96Q138.58 14.11 138.58 14.38L138.58 14.38L138.58 21.34Q138.58 21.58 138.14 21.74Q137.71 21.91 137.10 22.00Q136.49 22.08 135.95 22.12Q135.41 22.15 135.22 22.15L135.22 22.15L133.27 22.15Q133.03 22.15 132.53 22.13Q132.02 22.10 131.47 22.02Q130.92 21.94 130.49 21.79Q130.06 21.65 129.94 21.43L129.94 21.43L129.94 23.93ZM129.94 15.19L129.94 20.52L131.86 20.52L131.86 15.19L129.94 15.19Z"/></svg>