<svg xmlns="http://www.w3.org/2000/svg" xmlns:xlink="http://www.w3.org/1999/xlink" width="100.53600000000002" height="37.512"><path fill="black" d="M10.82 24.46L2.54 24.46L2.54 11.50Q2.54 10.42 2.24 9.76Q1.94 9.10 0.86 9.10L0.86 9.10L0.38 9.10L0.38 8.62L10.61 8.62Q11.45 8.62 11.88 8.89Q12.31 9.17 12.48 9.61Q12.65 10.06 12.65 10.54L12.65 10.54L12.65 12.34L12.17 12.34Q12.17 10.90 11.39 10.24Q10.61 9.58 9.17 9.58L9.17 9.58L4.70 9.58L4.70 15.82L11.18 15.82L11.18 16.78L4.70 16.78L4.70 23.50L8.90 23.50Q10.54 23.50 11.48 22.90Q12.43 22.30 12.98 20.86L12.98 20.86L13.46 20.98L12.62 23.26Q12.43 23.81 11.99 24.13Q11.54 24.46 10.82 24.46L10.82 24.46ZM18.14 24.46L15.98 24.46L15.98 11.50Q15.98 10.42 15.68 9.76Q15.38 9.10 14.30 9.10L14.30 9.10L13.82 9.10L13.82 8.62L15.98 8.62Q16.82 8.62 17.29 8.83Q17.76 9.05 17.95 9.67Q18.14 10.30 18.14 11.50L18.14 11.50L18.14 24.46ZM46.15 25.06L46.15 25.54Q44.42 25.54 43.45 25.00Q42.48 24.46 42.10 23.32Q41.71 22.18 41.71 20.38L41.71 20.38L41.71 11.14L35.71 24.46L35.23 24.46L28.99 10.90L28.99 24.46L28.03 24.46L28.03 8.62L30.31 8.62L36.07 21.10L41.71 8.62L43.87 8.62L43.87 20.38Q43.87 22.56 44.42 23.81Q44.98 25.06 46.15 25.06L46.15 25.06ZM52.20 24.70L52.20 24.70Q50.52 24.70 49.40 23.90Q48.29 23.11 47.72 21.77Q47.16 20.42 47.16 18.82L47.16 18.82Q47.16 17.18 47.74 15.85Q48.31 14.52 49.39 13.73Q50.47 12.94 51.96 12.94L51.96 12.94Q53.59 12.94 54.66 13.55Q55.73 14.16 56.24 15.34Q56.76 16.51 56.76 18.22L56.76 18.22L56.71 19.18L49.44 19.18Q49.44 21.14 50.29 22.44Q51.14 23.74 52.68 23.74L52.68 23.74Q53.86 23.74 54.64 23.23Q55.42 22.73 56.04 21.82L56.04 21.82L56.52 22.18Q55.99 23.09 55.33 23.64Q54.67 24.19 53.89 24.44Q53.11 24.70 52.20 24.70ZM49.44 18.22L49.44 18.22L54.48 18.22Q54.48 16.13 53.86 15.01Q53.23 13.90 51.96 13.90L51.96 13.90Q51.24 13.90 50.68 14.46Q50.11 15.02 49.78 16.00Q49.44 16.97 49.44 18.22ZM63.29 24.70L63.29 24.70Q61.85 24.70 60.94 24.44Q60.02 24.19 59.57 23.74L59.57 23.74Q59.11 23.28 59.04 22.70Q58.97 22.13 58.97 21.22L58.97 21.22L59.45 21.22Q59.64 22.39 60.46 23.06Q61.27 23.74 62.81 23.74L62.81 23.74Q64.18 23.74 64.81 23.26Q65.45 22.78 65.45 22.06L65.45 22.06Q65.45 21.34 64.91 20.84Q64.37 20.35 63.29 19.90L63.29 19.90L61.85 19.30Q60.48 18.74 59.72 17.99Q58.97 17.23 58.97 16.06L58.97 16.06Q58.97 14.54 60.10 13.74Q61.22 12.94 62.93 12.94L62.93 12.94Q64.30 12.94 65.18 13.19Q66.07 13.44 66.53 13.90L66.53 13.90Q66.98 14.35 67.06 14.93Q67.13 15.50 67.13 16.42L67.13 16.42L66.65 16.42Q66.46 15.24 65.65 14.57Q64.85 13.90 63.41 13.90L63.41 13.90Q62.23 13.90 61.62 14.38Q61.01 14.86 61.01 15.58L61.01 15.58Q61.01 16.20 61.51 16.72Q62.02 17.23 62.93 17.62L62.93 17.62L64.37 18.22Q65.90 18.84 66.70 19.58Q67.49 20.33 67.49 21.58L67.49 21.58Q67.49 23.09 66.29 23.89Q65.09 24.70 63.29 24.70ZM73.99 24.70L73.99 24.70Q72.55 24.70 71.64 24.44Q70.73 24.19 70.27 23.74L70.27 23.74Q69.82 23.28 69.74 22.70Q69.67 22.13 69.67 21.22L69.67 21.22L70.15 21.22Q70.34 22.39 71.16 23.06Q71.98 23.74 73.51 23.74L73.51 23.74Q74.88 23.74 75.52 23.26Q76.15 22.78 76.15 22.06L76.15 22.06Q76.15 21.34 75.61 20.84Q75.07 20.35 73.99 19.90L73.99 19.90L72.55 19.30Q71.18 18.74 70.43 17.99Q69.67 17.23 69.67 16.06L69.67 16.06Q69.67 14.54 70.80 13.74Q71.93 12.94 73.63 12.94L73.63 12.94Q75.00 12.94 75.89 13.19Q76.78 13.44 77.23 13.90L77.23 13.90Q77.69 14.35 77.76 14.93Q77.83 15.50 77.83 16.42L77.83 16.42L77.35 16.42Q77.16 15.24 76.36 14.57Q75.55 13.90 74.11 13.90L74.11 13.90Q72.94 13.90 72.32 14.38Q71.71 14.86 71.71 15.58L71.71 15.58Q71.71 16.20 72.22 16.72Q72.72 17.23 73.63 17.62L73.63 17.62L75.07 18.22Q76.61 18.84 77.40 19.58Q78.19 20.33 78.19 21.58L78.19 21.58Q78.19 23.09 76.99 23.89Q75.79 24.70 73.99 24.70ZM83.45 24.46L81.29 24.46L81.29 16.06Q81.29 14.98 80.99 14.32Q80.69 13.66 79.61 13.66L79.61 13.66L79.13 13.66L79.13 13.18L81.29 13.18Q82.13 13.18 82.60 13.39Q83.06 13.61 83.26 14.23Q83.45 14.86 83.45 16.06L83.45 16.06L83.45 24.46ZM82.20 11.74L82.20 11.74Q81.65 11.74 81.25 11.28Q80.86 10.82 80.86 10.20L80.86 10.20Q80.86 9.70 81.16 9.41Q81.46 9.12 81.96 9.12L81.96 9.12Q82.51 9.12 82.91 9.58Q83.30 10.03 83.30 10.66L83.30 10.66Q83.30 11.16 83.00 11.45Q82.70 11.74 82.20 11.74ZM89.18 24.46L87.02 24.46L87.02 16.06Q87.02 14.98 86.72 14.32Q86.42 13.66 85.34 13.66L85.34 13.66L85.10 13.66L85.10 13.18L87.02 13.18Q87.94 13.18 88.40 13.44Q88.87 13.70 89.06 14.26L89.06 14.26Q89.47 13.85 90.25 13.39Q91.03 12.94 92.06 12.94L92.06 12.94Q92.42 12.94 92.83 13.02Q93.24 13.10 93.50 13.30L93.50 13.30Q93.77 13.49 93.96 13.75Q94.15 14.02 94.34 14.38L94.34 14.38L93.38 15.10Q93.12 14.74 92.60 14.56Q92.09 14.38 91.46 14.38L91.46 14.38Q90.74 14.38 90.14 14.70Q89.54 15.02 89.18 15.58L89.18 15.58Q89.18 15.70 89.18 15.92Q89.18 16.15 89.18 16.30L89.18 16.30L89.18 24.46ZM98.88 24.46L96.72 24.46L96.72 16.06Q96.72 14.98 96.42 14.32Q96.12 13.66 95.04 13.66L95.04 13.66L94.56 13.66L94.56 13.18L96.72 13.18Q97.56 13.18 98.03 13.39Q98.50 13.61 98.69 14.23Q98.88 14.86 98.88 16.06L98.88 16.06L98.88 24.46ZM97.63 11.74L97.63 11.74Q97.08 11.74 96.68 11.28Q96.29 10.82 96.29 10.20L96.29 10.20Q96.29 9.70 96.59 9.41Q96.89 9.12 97.39 9.12L97.39 9.12Q97.94 9.12 98.34 9.58Q98.74 10.03 98.74 10.66L98.74 10.66Q98.74 11.16 98.44 11.45Q98.14 11.74 97.63 11.74Z"/></svg>