<svg xmlns="http://www.w3.org/2000/svg" xmlns:xlink="http://www.w3.org/1999/xlink" width="332.671875" height="30.05859375"><path fill="black" d="M17.40 22.57L17.40 22.57Q17.59 22.65 17.87 22.65Q18.15 22.65 18.81 22.49L18.81 22.49L18.67 23.94L12.21 23.94L12.42 22.65Q13.56 22.65 13.97 22.04L13.97 22.04Q14.31 21.52 14.31 20.11L14.31 20.11L14.31 15.43L5.66 15.43L5.66 20.79Q5.66 22.04 5.77 22.29Q5.88 22.55 6.03 22.60Q6.18 22.65 6.49 22.65L6.49 22.65Q7.08 22.65 7.83 22.46L7.83 22.46L7.65 23.94L1.05 23.94L1.25 22.65Q2.43 22.65 2.79 22.14L2.79 22.14Q3.12 21.69 3.12 20.34L3.12 20.34L3.12 9.63Q3.12 7.37 2.12 7.37L2.12 7.37Q1.70 7.37 1.21 7.48L1.21 7.48L1.35 6.01L7.59 6.01L7.42 7.37Q6.88 7.37 6.54 7.43Q6.20 7.49 6 7.72L6 7.72Q5.66 8.14 5.66 9.79L5.66 9.79L5.66 13.96L14.31 13.96L14.31 9.71Q14.31 8.24 14.15 7.89Q13.99 7.54 13.80 7.45Q13.62 7.37 13.27 7.37L13.27 7.37Q12.71 7.37 12.09 7.51L12.09 7.51L12.32 6.01L18.83 6.01L18.67 7.37Q17.64 7.37 17.27 7.80L17.27 7.80Q16.84 8.31 16.84 9.73L16.84 9.73L16.84 20.92Q16.84 22.32 17.40 22.57ZM27.89 22.11L27.89 22.11Q30.21 21.96 31.98 21L31.98 21L32.50 21.98Q30.73 23.45 28.46 23.99L28.46 23.99Q27.79 24.14 27.22 24.14L27.22 24.14Q22.80 24.14 21.66 20.24L21.66 20.24Q21.28 18.98 21.28 17.31Q21.28 15.64 21.83 14.24Q22.37 12.83 23.27 11.84Q24.16 10.85 25.32 10.31Q26.48 9.77 27.73 9.77L27.73 9.77Q32.71 9.77 32.71 15.47L32.71 15.47L32.71 15.59Q32.71 17.07 32.36 17.07L32.36 17.07L23.73 17.07Q23.73 19.52 24.81 20.80Q25.90 22.08 27.89 22.11ZM23.73 15.86L30.04 15.57Q30.05 15.33 30.05 15.20L30.05 15.20L30.05 14.81Q30.05 12.06 28.52 11.43L28.52 11.43Q27.97 11.19 27.35 11.19Q26.72 11.19 26.29 11.38Q25.85 11.57 25.47 11.89Q25.09 12.22 24.77 12.66Q24.46 13.10 24.22 13.63L24.22 13.63Q23.73 14.72 23.73 15.86L23.73 15.86ZM45.96 13.73L45.96 13.73L45.77 19.96Q45.77 21.21 46.54 21.76L46.54 21.76Q47.06 22.15 47.88 22.15L47.88 22.15Q47.84 22.75 47.40 23.23L47.40 23.23Q46.64 24.07 46.16 24.20L46.16 24.20Q45.43 24.20 44.79 23.71Q44.16 23.21 43.80 22.27L43.80 22.27Q42.47 23.53 40.54 24.06L40.54 24.06Q40.00 24.21 39.28 24.21Q38.55 24.21 37.74 23.94Q36.93 23.66 36.38 23.16L36.38 23.16Q35.26 22.14 35.26 20.38L35.26 20.38Q35.26 18.25 37.65 17.06L37.65 17.06Q39.88 15.96 43.51 15.96L43.51 15.96L43.64 15.96Q43.64 15.22 43.62 14.52L43.62 14.52L43.61 14.05Q43.55 12.63 42.59 11.89L42.59 11.89Q41.82 11.31 40.71 11.31Q39.60 11.31 38.92 11.90Q38.24 12.49 38.24 13.61L38.24 13.61Q38.24 14.02 38.33 14.48L38.33 14.48L36.23 14.48L36.15 14.46Q36.12 14.27 36.08 14.06L36.08 14.06Q35.98 13.56 35.91 13.01Q35.85 12.47 35.85 12.29L35.85 12.29Q35.85 12.04 35.94 11.92L35.94 11.92Q38.98 9.77 41.88 9.77L41.88 9.77Q44.72 9.77 45.62 11.84L45.62 11.84Q45.96 12.60 45.96 13.73ZM43.51 20.66L43.51 20.41Q43.59 18.94 43.63 17.25L43.63 17.25Q43.50 17.20 42.85 17.20Q42.20 17.20 41.21 17.41Q40.22 17.61 39.48 18L39.48 18Q37.91 18.83 37.91 20.23L37.91 20.23Q37.91 21.20 38.54 21.86L38.54 21.86Q39.19 22.51 40.21 22.51L40.21 22.51Q41.47 22.51 42.81 21.38L42.81 21.38Q43.21 21.04 43.51 20.66L43.51 20.66ZM54.38 10.07L54.38 10.07Q55.27 9.77 56.44 9.77Q57.62 9.77 58.84 10.10L58.84 10.10L58.84 9.87Q58.84 7.10 58.75 6.81Q58.65 6.53 58.52 6.40Q58.38 6.27 58.17 6.18Q57.95 6.08 57.69 6.04L57.69 6.04Q57.36 5.99 56.55 5.99L56.55 5.99L56.33 5.99L56.51 4.65L61.38 3.97Q61.38 4.08 61.37 4.15Q61.35 4.22 61.31 4.47Q61.28 4.72 61.24 5.33L61.24 5.33Q61.15 6.96 61.15 9.71L61.15 9.71L61.15 20.40Q61.15 21.32 61.35 21.69Q61.56 22.07 61.93 22.07L61.93 22.07Q62.43 22.07 63.06 21.84L63.06 21.84L63.40 21.74Q63.38 21.88 63.36 22.13Q63.34 22.38 63.32 22.65Q63.29 22.92 63.28 23.24L63.28 23.24L59.60 24.15Q59.47 24.09 59.24 23.44Q59.02 22.78 58.93 22.48L58.93 22.48Q57.45 23.53 55.77 23.96L55.77 23.96Q55.18 24.12 54.35 24.12Q53.52 24.12 52.54 23.70Q51.55 23.27 50.84 22.44L50.84 22.44Q49.28 20.67 49.28 17.55L49.28 17.55Q49.28 15.52 50.21 13.69L50.21 13.69Q51.62 10.93 54.38 10.07ZM55.22 21.97L55.22 21.97Q55.88 21.95 56.48 21.82Q57.09 21.69 57.59 21.53L57.59 21.53Q58.63 21.19 58.86 20.95L58.86 20.95L58.84 20.96L58.84 12.45Q58.32 11.67 56.86 11.36L56.86 11.36Q56.44 11.26 55.76 11.26Q55.08 11.26 54.29 11.57Q53.50 11.88 52.93 12.59L52.93 12.59Q51.76 14.05 51.76 17.18L51.76 17.18Q51.76 19.29 52.83 20.68L52.83 20.68Q53.85 22.01 55.22 21.97ZM64.71 4.65L69.53 3.96Q69.28 5.24 69.28 9.09L69.28 9.09L69.28 9.94L69.30 21.15Q69.30 22.11 69.45 22.35L69.45 22.35Q69.67 22.70 70.23 22.70L70.23 22.70Q71.02 22.70 71.60 22.57L71.60 22.57L71.41 23.94L64.63 23.94L64.83 22.70Q66.05 22.70 66.39 22.43Q66.74 22.16 66.84 21.87Q66.94 21.59 66.94 21.16L66.94 21.16L66.94 7.95Q66.94 6.95 66.81 6.70Q66.69 6.46 66.59 6.33Q66.49 6.21 66.29 6.13Q66.08 6.06 65.81 6.04L65.81 6.04Q65.44 5.99 64.57 5.99L64.57 5.99L64.71 4.65ZM83.93 13.73L83.93 13.73L83.74 19.96Q83.74 21.21 84.50 21.76L84.50 21.76Q85.03 22.15 85.85 22.15L85.85 22.15Q85.80 22.75 85.37 23.23L85.37 23.23Q84.61 24.07 84.13 24.20L84.13 24.20Q83.40 24.20 82.76 23.71Q82.13 23.21 81.77 22.27L81.77 22.27Q80.44 23.53 78.50 24.06L78.50 24.06Q77.96 24.21 77.24 24.21Q76.52 24.21 75.71 23.94Q74.89 23.66 74.34 23.16L74.34 23.16Q73.23 22.14 73.23 20.38L73.23 20.38Q73.23 18.25 75.62 17.06L75.62 17.06Q77.85 15.96 81.48 15.96L81.48 15.96L81.61 15.96Q81.61 15.22 81.59 14.52L81.59 14.52L81.57 14.05Q81.52 12.63 80.55 11.89L80.55 11.89Q79.79 11.31 78.68 11.31Q77.57 11.31 76.89 11.90Q76.21 12.49 76.21 13.61L76.21 13.61Q76.21 14.02 76.30 14.48L76.30 14.48L74.20 14.48L74.12 14.46Q74.09 14.27 74.05 14.06L74.05 14.06Q73.95 13.56 73.88 13.01Q73.82 12.47 73.82 12.29L73.82 12.29Q73.82 12.04 73.91 11.92L73.91 11.92Q76.95 9.77 79.85 9.77L79.85 9.77Q82.69 9.77 83.59 11.84L83.59 11.84Q83.93 12.60 83.93 13.73ZM81.48 20.66L81.48 20.41Q81.56 18.94 81.60 17.25L81.60 17.25Q81.47 17.20 80.82 17.20Q80.17 17.20 79.18 17.41Q78.19 17.61 77.45 18L77.45 18Q75.88 18.83 75.88 20.23L75.88 20.23Q75.88 21.20 76.51 21.86L76.51 21.86Q77.16 22.51 78.18 22.51L78.18 22.51Q79.44 22.51 80.78 21.38L80.78 21.38Q81.18 21.04 81.48 20.66L81.48 20.66ZM87.01 23.94L87.20 22.70Q88.17 22.70 88.50 22.21L88.50 22.21Q88.88 21.64 88.88 19.89L88.88 19.89L88.88 14.23Q88.88 12.82 88.54 12.36L88.54 12.36Q88.20 11.89 86.96 11.89L86.96 11.89L87.15 10.42L91.35 9.79Q91.22 10.73 91.22 11.80L91.22 11.80Q92.72 10.57 94.36 10.02L94.36 10.02Q95.06 9.77 95.81 9.77Q96.56 9.77 97.27 10.00Q97.98 10.22 98.51 10.72L98.51 10.72Q99.67 11.81 99.67 13.97L99.67 13.97Q99.67 15.28 99.59 16.54L99.59 16.54Q99.36 20.30 99.45 21.12Q99.54 21.94 99.66 22.21L99.66 22.21Q99.88 22.70 100.45 22.70L100.45 22.70Q101.00 22.70 101.45 22.56L101.45 22.56L101.27 23.94L95.27 23.94L95.48 22.70Q96.46 22.70 96.82 22.28L96.82 22.28Q96.97 22.10 97.05 21.79Q97.13 21.48 97.18 21Q97.23 20.52 97.27 19.84L97.27 19.84Q97.34 18.46 97.34 16.71Q97.34 14.95 97.27 14.15Q97.21 13.35 96.96 12.86L96.96 12.86Q96.49 11.89 94.90 11.89L94.90 11.89Q93.42 11.89 91.78 12.90L91.78 12.90L91.22 13.24L91.22 21.12Q91.22 22.17 91.38 22.39Q91.55 22.62 91.76 22.66Q91.97 22.70 92.23 22.70L92.23 22.70Q92.82 22.70 93.34 22.57L93.34 22.57L93.14 23.94L87.01 23.94ZM108.34 10.07L108.34 10.07Q109.23 9.77 110.41 9.77Q111.59 9.77 112.80 10.10L112.80 10.10L112.80 9.87Q112.80 7.10 112.71 6.81Q112.62 6.53 112.48 6.40Q112.35 6.27 112.13 6.18Q111.91 6.08 111.66 6.04L111.66 6.04Q111.33 5.99 110.52 5.99L110.52 5.99L110.30 5.99L110.47 4.65L115.35 3.97Q115.35 4.08 115.33 4.15Q115.31 4.22 115.28 4.47Q115.24 4.72 115.21 5.33L115.21 5.33Q115.11 6.96 115.11 9.71L115.11 9.71L115.11 20.40Q115.11 21.32 115.32 21.69Q115.52 22.07 115.90 22.07L115.90 22.07Q116.39 22.07 117.02 21.84L117.02 21.84L117.36 21.74Q117.34 21.88 117.32 22.13Q117.30 22.38 117.28 22.65Q117.26 22.92 117.25 23.24L117.25 23.24L113.57 24.15Q113.44 24.09 113.21 23.44Q112.98 22.78 112.90 22.48L112.90 22.48Q111.41 23.53 109.73 23.96L109.73 23.96Q109.15 24.12 108.32 24.12Q107.48 24.12 106.50 23.70Q105.52 23.27 104.80 22.44L104.80 22.44Q103.24 20.67 103.24 17.55L103.24 17.55Q103.24 15.52 104.18 13.69L104.18 13.69Q105.59 10.93 108.34 10.07ZM109.18 21.97L109.18 21.97Q109.84 21.95 110.45 21.82Q111.06 21.69 111.55 21.53L111.55 21.53Q112.59 21.19 112.83 20.95L112.83 20.95L112.80 20.96L112.80 12.45Q112.29 11.67 110.82 11.36L110.82 11.36Q110.40 11.26 109.72 11.26Q109.04 11.26 108.25 11.57Q107.46 11.88 106.90 12.59L106.90 12.59Q105.73 14.05 105.73 17.18L105.73 17.18Q105.73 19.29 106.79 20.68L106.79 20.68Q107.81 22.01 109.18 21.97ZM130.44 21.83Q129.36 20.71 128.77 19.07Q128.18 17.43 128.21 15.40Q128.25 13.38 128.87 11.66Q129.48 9.94 130.64 8.64L130.64 8.64Q133.15 5.82 137.39 5.82L137.39 5.82Q140.96 5.82 143.17 8.14L143.17 8.14Q145.43 10.54 145.43 14.60L145.43 14.60Q145.28 18.61 142.96 21.27L142.96 21.27Q141.39 23.06 138.95 23.77L138.95 23.77Q137.72 24.12 136.11 24.12Q134.50 24.12 133.00 23.54Q131.51 22.96 130.44 21.83ZM132.45 20.37Q133.18 21.43 134.29 22.03Q135.40 22.63 136.72 22.63Q138.04 22.63 139.07 22.18Q140.11 21.74 140.88 20.82L140.88 20.82Q142.56 18.86 142.61 15.35L142.61 15.35Q142.68 11.72 141.20 9.56L141.20 9.56Q139.65 7.32 136.78 7.32L136.78 7.32Q134.30 7.32 132.76 9.11L132.76 9.11Q131.10 11.03 131.03 14.55L131.03 14.55Q130.96 18.21 132.45 20.37L132.45 20.37ZM147.88 23.94L148.07 22.70Q149.04 22.70 149.37 22.21L149.37 22.21Q149.74 21.64 149.74 19.89L149.74 19.89L149.74 14.23Q149.74 12.82 149.40 12.36L149.40 12.36Q149.06 11.89 147.83 11.89L147.83 11.89L148.02 10.42L152.21 9.79Q152.09 10.73 152.09 11.80L152.09 11.80Q153.59 10.57 155.23 10.02L155.23 10.02Q155.93 9.77 156.68 9.77Q157.43 9.77 158.14 10.00Q158.85 10.22 159.38 10.72L159.38 10.72Q160.54 11.81 160.54 13.97L160.54 13.97Q160.54 15.28 160.45 16.54L160.45 16.54Q160.23 20.30 160.32 21.12Q160.41 21.94 160.52 22.21L160.52 22.21Q160.75 22.70 161.32 22.70L161.32 22.70Q161.87 22.70 162.32 22.56L162.32 22.56L162.14 23.94L156.14 23.94L156.35 22.70Q157.32 22.70 157.69 22.28L157.69 22.28Q157.84 22.10 157.92 21.79Q157.99 21.48 158.04 21Q158.10 20.52 158.13 19.84L158.13 19.84Q158.20 18.46 158.20 16.71Q158.20 14.95 158.14 14.15Q158.07 13.35 157.83 12.86L157.83 12.86Q157.36 11.89 155.77 11.89L155.77 11.89Q154.29 11.89 152.65 12.90L152.65 12.90L152.09 13.24L152.09 21.12Q152.09 22.17 152.25 22.39Q152.41 22.62 152.63 22.66Q152.84 22.70 153.09 22.70L153.09 22.70Q153.69 22.70 154.21 22.57L154.21 22.57L154.01 23.94L147.88 23.94ZM170.73 22.11L170.73 22.11Q173.05 21.96 174.82 21L174.82 21L175.34 21.98Q173.57 23.45 171.30 23.99L171.30 23.99Q170.63 24.14 170.06 24.14L170.06 24.14Q165.64 24.14 164.50 20.24L164.50 20.24Q164.12 18.98 164.12 17.31Q164.12 15.64 164.67 14.24Q165.21 12.83 166.11 11.84Q167.00 10.85 168.16 10.31Q169.32 9.77 170.57 9.77L170.57 9.77Q175.55 9.77 175.55 15.47L175.55 15.47L175.55 15.59Q175.55 17.07 175.20 17.07L175.20 17.07L166.57 17.07Q166.57 19.52 167.65 20.80Q168.74 22.08 170.73 22.11ZM166.57 15.86L172.88 15.57Q172.89 15.33 172.89 15.20L172.89 15.20L172.89 14.81Q172.89 12.06 171.36 11.43L171.36 11.43Q170.81 11.19 170.19 11.19Q169.56 11.19 169.13 11.38Q168.69 11.57 168.31 11.89Q167.93 12.22 167.61 12.66Q167.30 13.10 167.06 13.63L167.06 13.63Q166.57 14.72 166.57 15.86L166.57 15.86ZM195.41 26.71L195.02 26.26Q195.25 23.91 195.25 21.96L195.25 21.96L186.84 21.96L186.36 20.88L189.91 16.28Q189.91 16.28 193.03 12.08L193.03 12.08Q195.18 9.09 195.89 8.02L195.89 8.02Q197.10 7.88 197.70 7.64L197.70 7.64L197.70 20.17L200.98 20.17L200.59 21.91L197.70 21.90L197.70 23.92Q197.70 24.49 197.73 25.83L197.73 25.83L196.89 26.18Q196.02 26.53 195.41 26.71L195.41 26.71ZM189.35 20.17L195.25 20.17L195.25 11.51L193.49 14.17L189.35 20.17ZM204.74 21.83Q203.89 20.77 203.44 19.34Q202.99 17.92 202.99 16.57Q202.99 15.22 203.21 14.19Q203.43 13.15 203.84 12.23Q204.25 11.31 204.84 10.53Q205.43 9.75 206.19 9.20L206.19 9.20Q207.82 8.00 209.60 8.00Q211.37 8.00 212.60 8.63Q213.83 9.25 214.68 10.30L214.68 10.30Q216.43 12.49 216.43 15.84L216.43 15.84Q216.43 19.16 214.55 21.60L214.55 21.60Q213.33 23.17 211.54 23.80L211.54 23.80Q210.63 24.11 209.34 24.11Q208.05 24.11 206.82 23.50Q205.59 22.89 204.74 21.83ZM208.07 22.32L208.07 22.32Q208.77 22.82 209.71 22.82Q210.66 22.82 211.35 22.32Q212.05 21.82 212.51 20.92L212.51 20.92Q213.42 19.11 213.42 15.96L213.42 15.96Q213.42 11.14 211.35 9.75L211.35 9.75Q210.66 9.28 209.71 9.28Q208.77 9.28 208.07 9.75Q207.38 10.22 206.92 11.09L206.92 11.09Q206.00 12.82 206.00 15.96L206.00 15.96Q206.00 20.84 208.07 22.32ZM220.78 21.83Q219.93 20.77 219.47 19.34Q219.02 17.92 219.02 16.57Q219.02 15.22 219.24 14.19Q219.46 13.15 219.87 12.23Q220.28 11.31 220.87 10.53Q221.46 9.75 222.22 9.20L222.22 9.20Q223.85 8.00 225.63 8.00Q227.40 8.00 228.63 8.63Q229.86 9.25 230.71 10.30L230.71 10.30Q232.46 12.49 232.46 15.84L232.46 15.84Q232.46 19.16 230.58 21.60L230.58 21.60Q229.36 23.17 227.57 23.80L227.57 23.80Q226.66 24.11 225.38 24.11Q224.09 24.11 222.86 23.50Q221.63 22.89 220.78 21.83ZM224.10 22.32L224.10 22.32Q224.80 22.82 225.74 22.82Q226.69 22.82 227.38 22.32Q228.08 21.82 228.54 20.92L228.54 20.92Q229.45 19.11 229.45 15.96L229.45 15.96Q229.45 11.14 227.38 9.75L227.38 9.75Q226.69 9.28 225.74 9.28Q224.80 9.28 224.10 9.75Q223.41 10.22 222.95 11.09L222.95 11.09Q222.04 12.82 222.04 15.96L222.04 15.96Q222.04 20.84 224.10 22.32ZM243.70 23.94L243.89 22.70Q244.86 22.70 245.19 22.21L245.19 22.21Q245.57 21.64 245.57 19.89L245.57 19.89L245.57 14.23Q245.57 12.82 245.23 12.36L245.23 12.36Q244.89 11.89 243.66 11.89L243.66 11.89L243.84 10.42L248.04 9.79Q247.91 10.73 247.91 11.80L247.91 11.80Q249.41 10.57 251.05 10.02L251.05 10.02Q251.75 9.77 252.50 9.77Q253.25 9.77 253.96 10.00Q254.67 10.22 255.20 10.72L255.20 10.72Q256.36 11.81 256.36 13.97L256.36 13.97Q256.36 15.28 256.28 16.54L256.28 16.54Q256.05 20.30 256.14 21.12Q256.23 21.94 256.35 22.21L256.35 22.21Q256.57 22.70 257.14 22.70L257.14 22.70Q257.70 22.70 258.14 22.56L258.14 22.56L257.96 23.94L251.96 23.94L252.18 22.70Q253.15 22.70 253.51 22.28L253.51 22.28Q253.66 22.10 253.74 21.79Q253.82 21.48 253.87 21Q253.92 20.52 253.96 19.84L253.96 19.84Q254.03 18.46 254.03 16.71Q254.03 14.95 253.96 14.15Q253.90 13.35 253.65 12.86L253.65 12.86Q253.18 11.89 251.59 11.89L251.59 11.89Q250.11 11.89 248.47 12.90L248.47 12.90L247.91 13.24L247.91 21.12Q247.91 22.17 248.07 22.39Q248.24 22.62 248.45 22.66Q248.66 22.70 248.92 22.70L248.92 22.70Q249.52 22.70 250.03 22.57L250.03 22.57L249.83 23.94L243.70 23.94ZM260.00 16.86L260.00 16.86Q260.00 15.28 260.59 13.95Q261.18 12.62 262.16 11.68L262.16 11.68Q264.19 9.77 267.14 9.77L267.14 9.77Q270 9.77 271.68 11.67L271.68 11.67Q273.28 13.49 273.28 16.41L273.28 16.41Q273.28 19.72 271.20 21.95L271.20 21.95Q269.14 24.12 266.14 24.12L266.14 24.12Q263.19 24.12 261.54 22.02L261.54 22.02Q260.00 20.09 260.00 16.86ZM266.67 22.63L266.67 22.63Q267.56 22.63 268.25 22.31Q268.93 22.00 269.44 21.34L269.44 21.34Q270.54 19.95 270.54 17.31L270.54 17.31Q270.54 14.50 269.46 12.84L269.46 12.84Q268.37 11.19 266.50 11.19L266.50 11.19Q264.84 11.19 263.81 12.48L263.81 12.48Q262.68 13.90 262.68 16.55L262.68 16.55Q262.68 19.30 263.74 20.94L263.74 20.94Q264.83 22.63 266.67 22.63ZM280.07 22.38Q280.24 22.59 280.53 22.65Q280.82 22.70 281.73 22.70Q282.64 22.70 283.16 22.56L283.16 22.56L283.08 23.94L275.53 23.94L275.70 22.70Q276.73 22.70 277.02 22.34L277.02 22.34Q277.55 21.68 277.55 20.02L277.55 20.02L277.55 14.37Q277.55 12.79 277.22 12.41L277.22 12.41Q276.86 11.99 275.63 11.92L275.63 11.92L275.79 10.42L280.00 9.79Q279.88 10.64 279.88 11.74L279.88 11.74Q281.11 10.57 282.76 9.97L282.76 9.97Q283.35 9.77 283.88 9.77L283.88 9.77Q286.13 9.77 286.13 11.78L286.13 11.78Q286.13 12.96 285.79 14.32L285.79 14.32Q285.76 14.41 285.75 14.44Q285.74 14.47 285.74 14.48L285.74 14.48L283.78 14.48L283.85 13.93L283.90 13.46Q283.92 13.24 283.92 13.00Q283.92 12.75 283.88 12.50Q283.84 12.26 283.72 12.09L283.72 12.09Q283.51 11.78 283.01 11.78Q282.50 11.78 282.05 11.93Q281.60 12.08 281.18 12.29L281.18 12.29Q280.32 12.74 279.86 13.21L279.86 13.21L279.88 13.20L279.89 21.06Q279.89 22.17 280.07 22.38ZM295.43 11.87L295.43 11.87Q294.14 11.87 292.20 13.22L292.20 13.22L292.20 21.12Q292.20 22.16 292.38 22.39Q292.57 22.62 292.79 22.66Q293.00 22.70 293.26 22.70L293.26 22.70Q293.68 22.70 294.33 22.57L294.33 22.57L294.15 23.94L288 23.94L288.19 22.70Q289.14 22.70 289.51 22.07L289.51 22.07Q289.90 21.42 289.90 19.89L289.90 19.89L289.90 14.09Q289.90 12.88 289.54 12.27L289.54 12.27Q289.17 11.80 287.95 11.80L287.95 11.80L288.13 10.42L292.42 9.79L292.32 10.43Q292.23 11.21 292.23 11.78L292.23 11.78L292.88 11.31Q293.98 10.50 295.01 10.14Q296.04 9.77 296.77 9.77L296.77 9.77Q299.30 9.77 300.18 11.85L300.18 11.85Q301.65 10.57 303.23 10.02L303.23 10.02Q303.91 9.77 304.67 9.77Q305.43 9.77 306.12 10.03Q306.82 10.29 307.32 10.80L307.32 10.80Q308.40 11.91 308.40 13.95L308.40 13.95Q308.40 15.23 308.33 16.50L308.33 16.50Q308.11 20.17 308.19 21.08Q308.27 22.00 308.36 22.25L308.36 22.25Q308.52 22.70 308.93 22.70L308.93 22.70Q309.50 22.70 310.15 22.57L310.15 22.57L309.98 23.94L304.18 23.94L304.38 22.70Q305.19 22.70 305.52 22.31L305.52 22.31Q305.85 21.90 305.93 20.02Q306.01 18.13 306.01 16.35Q306.01 14.57 305.91 13.83Q305.81 13.09 305.53 12.66L305.53 12.66Q305.03 11.88 303.41 11.88L303.41 11.88Q302.21 11.88 300.49 13.05L300.49 13.05Q300.55 13.58 300.55 14.14L300.55 14.14Q300.55 15.06 300.46 16.42L300.46 16.42Q300.14 21.38 300.55 22.25L300.55 22.25Q300.76 22.70 301.35 22.70Q301.93 22.70 302.52 22.57L302.52 22.57L302.33 23.94L296.13 23.94L296.33 22.70Q297.39 22.70 297.71 22.38L297.71 22.38Q298.07 22.05 298.11 19.97L298.11 19.97Q298.15 18.80 298.15 16.72Q298.15 14.64 298.05 13.88Q297.95 13.11 297.67 12.67L297.67 12.67Q297.15 11.87 295.43 11.87ZM322.63 13.73L322.63 13.73L322.44 19.96Q322.44 21.21 323.20 21.76L323.20 21.76Q323.73 22.15 324.55 22.15L324.55 22.15Q324.50 22.75 324.07 23.23L324.07 23.23Q323.31 24.07 322.83 24.20L322.83 24.20Q322.10 24.20 321.46 23.71Q320.82 23.21 320.47 22.27L320.47 22.27Q319.14 23.53 317.20 24.06L317.20 24.06Q316.66 24.21 315.94 24.21Q315.22 24.21 314.41 23.94Q313.59 23.66 313.04 23.16L313.04 23.16Q311.93 22.14 311.93 20.38L311.93 20.38Q311.93 18.25 314.32 17.06L314.32 17.06Q316.55 15.96 320.18 15.96L320.18 15.96L320.31 15.96Q320.31 15.22 320.29 14.52L320.29 14.52L320.27 14.05Q320.21 12.63 319.25 11.89L319.25 11.89Q318.49 11.31 317.38 11.31Q316.27 11.31 315.59 11.90Q314.91 12.49 314.91 13.61L314.91 13.61Q314.91 14.02 315 14.48L315 14.48L312.90 14.48L312.82 14.46Q312.79 14.27 312.75 14.06L312.75 14.06Q312.64 13.56 312.58 13.01Q312.52 12.47 312.52 12.29L312.52 12.29Q312.52 12.04 312.61 11.92L312.61 11.92Q315.64 9.77 318.55 9.77L318.55 9.77Q321.39 9.77 322.29 11.84L322.29 11.84Q322.63 12.60 322.63 13.73ZM320.18 20.66L320.18 20.41Q320.26 18.94 320.30 17.25L320.30 17.25Q320.17 17.20 319.52 17.20Q318.87 17.20 317.88 17.41Q316.89 17.61 316.15 18L316.15 18Q314.58 18.83 314.58 20.23L314.58 20.23Q314.58 21.20 315.21 21.86L315.21 21.86Q315.86 22.51 316.88 22.51L316.88 22.51Q318.14 22.51 319.48 21.38L319.48 21.38Q319.88 21.04 320.18 20.66L320.18 20.66ZM325.42 4.65L330.23 3.96Q329.99 5.24 329.99 9.09L329.99 9.09L329.99 9.94L330.01 21.15Q330.01 22.11 330.15 22.35L330.15 22.35Q330.38 22.70 330.94 22.70L330.94 22.70Q331.72 22.70 332.31 22.57L332.31 22.57L332.12 23.94L325.34 23.94L325.54 22.70Q326.75 22.70 327.10 22.43Q327.45 22.16 327.54 21.87Q327.64 21.59 327.64 21.16L327.64 21.16L327.64 7.95Q327.64 6.95 327.52 6.70Q327.40 6.46 327.30 6.33Q327.20 6.21 326.99 6.13Q326.79 6.06 326.52 6.04L326.52 6.04Q326.14 5.99 325.28 5.99L325.28 5.99L325.42 4.65Z"/></svg>