<svg xmlns="http://www.w3.org/2000/svg" xmlns:xlink="http://www.w3.org/1999/xlink" width="138.09599999999998" height="29.28"><path fill="black" d="M1.18 21.19L1.08 21.19Q0.50 21.19 0.50 20.78L0.50 20.78Q0.50 20.18 1.61 19.90L1.61 19.90Q1.66 19.87 1.91 19.84Q2.16 19.80 2.64 19.70L2.64 19.70Q4.80 19.32 5.86 18.70L5.86 18.70Q7.61 17.62 7.61 16.68L7.61 16.68Q7.61 15.77 5.78 14.90L5.78 14.90Q5.21 14.64 4.37 14.26Q3.53 13.87 2.40 13.34L2.40 13.34Q0.58 12.46 0.58 11.26L0.58 11.26Q0.58 9.65 3.89 7.90L3.89 7.90Q6.94 6.26 8.71 6.26L8.71 6.26Q10.25 6.26 10.25 7.13L10.25 7.13Q10.25 8.74 9.50 10.08L9.50 10.08Q9.10 10.85 8.83 10.85L8.83 10.85Q8.74 10.85 8.74 10.66L8.74 10.66Q8.74 10.20 8.98 9.41L8.98 9.41Q9.24 8.54 9.24 8.14L9.24 8.14Q9.24 7.03 7.87 7.03L7.87 7.03Q6.41 7.03 3.94 8.23L3.94 8.23Q1.22 9.58 1.22 10.87L1.22 10.87Q1.22 11.50 1.70 12.05Q2.18 12.60 3.14 13.01L3.14 13.01L6.70 14.45Q8.62 15.24 8.62 16.18L8.62 16.18Q8.62 17.66 5.59 19.30L5.59 19.30Q5.21 19.49 4.12 19.97Q3.02 20.45 1.18 21.19L1.18 21.19ZM10.27 20.74L10.27 20.74Q10.25 20.71 10.25 20.69L10.25 20.69Q10.27 20.57 10.32 20.28Q10.37 19.99 10.42 19.54L10.42 19.54Q10.87 16.22 11.09 13.37Q11.30 10.51 11.30 8.11L11.30 8.11Q11.30 5.74 10.37 5.74L10.37 5.74Q10.30 5.74 10.13 5.78Q9.96 5.83 9.89 5.83L9.89 5.83Q9.77 5.83 9.77 5.71L9.77 5.71Q9.77 5.54 10.61 5.26L10.61 5.26Q11.40 4.94 11.71 4.94L11.71 4.94Q12.26 4.94 12.26 5.93L12.26 5.93Q12.26 6.65 12.22 7.51Q12.17 8.38 12.07 9.36L12.07 9.36L11.42 16.58L13.56 13.78Q13.82 13.42 14.47 12.29L14.47 12.29Q14.81 11.74 15.50 11.74L15.50 11.74Q15.82 11.74 15.89 11.88L15.89 11.88Q15.86 11.90 15.83 11.93Q15.79 11.95 15.72 11.98L15.72 11.98Q15.05 12.26 14.59 14.09L14.59 14.09Q14.21 15.53 14.21 16.61L14.21 16.61Q14.21 18.41 15.07 18.41L15.07 18.41Q15.36 18.41 15.74 17.95L15.74 17.95L16.15 17.50Q16.18 17.52 16.18 17.54L16.18 17.54Q16.18 17.86 15.60 18.55L15.60 18.55Q15.07 19.22 14.76 19.22L14.76 19.22Q13.61 19.22 13.61 16.85L13.61 16.85Q13.61 14.76 13.70 14.40L13.70 14.40Q13.54 14.57 13.28 14.87Q13.03 15.17 12.65 15.62L12.65 15.62Q11.14 17.50 11.02 20.14L11.02 20.14Q10.49 20.69 10.27 20.74ZM16.68 18.74L16.68 18.74Q15.98 18.74 15.98 17.88L15.98 17.88Q15.98 16.75 17.16 15.07L17.16 15.07Q17.66 14.33 18.19 13.75Q18.72 13.18 19.25 12.72L19.25 12.72Q19.94 12.14 20.52 12.14L20.52 12.14Q20.88 12.14 21.12 12.44Q21.36 12.74 21.36 13.10L21.36 13.10Q21.36 13.27 21.26 13.27L21.26 13.27Q21.26 13.27 21.10 13.10Q20.93 12.94 20.54 12.94L20.54 12.94Q19.99 12.94 19.58 13.20L19.58 13.20Q18.53 13.94 17.64 15.10L17.64 15.10Q16.61 16.44 16.61 17.52L16.61 17.52Q16.61 18.07 16.99 18.07L16.99 18.07Q17.62 18.07 18.96 16.22L18.96 16.22Q19.54 15.41 19.91 14.77Q20.28 14.14 20.45 13.68L20.45 13.68Q20.62 13.51 20.83 13.51L20.83 13.51Q20.95 13.51 20.98 13.61L20.98 13.61Q20.81 13.92 20.81 14.74L20.81 14.74Q20.81 15.77 21.05 16.58L21.05 16.58Q21.41 17.86 22.08 17.86L22.08 17.86Q22.51 17.86 22.99 17.11L22.99 17.11L23.50 16.34Q23.52 16.37 23.52 16.39L23.52 16.39Q23.52 16.78 22.80 17.69L22.80 17.69Q22.08 18.58 21.70 18.58L21.70 18.58Q21.07 18.58 20.54 17.18L20.54 17.18Q20.14 16.03 20.14 15.24L20.14 15.24Q17.78 18.74 16.68 18.74ZM24.36 20.45L24.36 20.45Q23.50 20.45 23.50 18.29L23.50 18.29Q23.50 17.98 23.51 17.69Q23.52 17.40 23.54 17.09L23.54 17.09Q23.81 13.70 23.95 11.47Q24.10 9.24 24.10 8.14L24.10 8.14Q24.10 5.74 23.16 5.74L23.16 5.74Q22.94 5.74 22.73 5.81L22.73 5.81Q22.70 5.83 22.66 5.83L22.66 5.83Q22.56 5.83 22.56 5.71L22.56 5.71Q22.56 5.54 23.40 5.26L23.40 5.26Q24.19 4.94 24.50 4.94L24.50 4.94Q25.06 4.94 25.06 5.93L25.06 5.93Q25.06 6.46 25.00 7.34Q24.94 8.23 24.82 9.46L24.82 9.46Q24.24 15.31 24.24 16.87L24.24 16.87Q24.24 19.73 25.01 19.73L25.01 19.73Q25.20 19.73 25.37 19.61Q25.54 19.49 25.70 19.30L25.70 19.30L26.06 18.89Q26.14 18.89 26.14 19.03L26.14 19.03Q26.14 19.34 25.42 19.90L25.42 19.90Q24.72 20.45 24.36 20.45ZM27.70 9.94L27.70 9.94Q27.14 9.94 27.14 9.46L27.14 9.46Q27.14 9.00 27.65 8.78L27.65 8.78L28.46 8.42Q28.56 8.38 28.61 8.38L28.61 8.38Q28.78 8.38 28.78 8.59L28.78 8.59Q28.78 8.66 28.46 9.05L28.46 9.05Q28.15 9.43 28.10 9.62L28.10 9.62Q28.01 9.94 27.70 9.94ZM28.27 19.56L28.27 19.56Q27.53 19.56 27.53 17.90L27.53 17.90Q27.53 17.33 27.60 16.30L27.60 16.30Q27.67 15.22 27.67 14.66L27.67 14.66Q27.67 13.01 26.78 13.01L26.78 13.01Q26.69 13.01 26.51 13.06Q26.33 13.10 26.26 13.10L26.26 13.10Q26.14 13.10 26.14 13.01L26.14 13.01Q26.14 12.82 26.95 12.58L26.95 12.58Q27.79 12.29 28.03 12.29L28.03 12.29Q28.39 12.29 28.39 13.34L28.39 13.34Q28.39 13.61 28.36 14.04Q28.32 14.47 28.27 15.02L28.27 15.02Q28.22 15.58 28.20 16.00Q28.18 16.42 28.18 16.68L28.18 16.68Q28.18 18.89 28.90 18.89L28.90 18.89Q29.45 18.89 30.10 18.12L30.10 18.12Q30.17 18.12 30.17 18.24L30.17 18.24Q30.17 18.55 29.40 19.06L29.40 19.06Q28.66 19.56 28.27 19.56ZM30.86 19.22L30.86 19.22Q30.67 19.22 30.67 18.72L30.67 18.72Q30.67 18.34 30.74 17.95L30.74 17.95Q31.06 16.32 31.21 15.14Q31.37 13.97 31.37 13.27L31.37 13.27Q31.37 12.62 31.19 12.43Q31.01 12.24 30.36 12.24L30.36 12.24Q30.22 12.24 29.96 12.30Q29.71 12.36 29.59 12.36L29.59 12.36Q29.50 12.36 29.50 12.31L29.50 12.31Q29.50 12.24 30.14 11.93L30.14 11.93Q31.42 11.28 31.46 11.28L31.46 11.28Q32.06 11.28 32.06 12.50L32.06 12.50Q32.06 12.84 31.92 13.94Q31.78 15.05 31.51 16.90L31.51 16.90L31.42 17.54L31.44 17.59Q33.67 13.61 34.32 13.61L34.32 13.61Q34.68 13.61 34.63 16.70L34.63 16.70Q34.80 16.49 35.29 15.82Q35.78 15.14 36.62 14.04L36.62 14.04L37.56 13.15Q37.75 12.96 37.85 12.96L37.85 12.96Q37.90 12.96 37.90 13.03L37.90 13.03Q37.90 13.10 37.82 13.25L37.82 13.25Q37.25 14.50 37.25 16.61L37.25 16.61Q37.25 18.41 38.11 18.41L38.11 18.41Q38.45 18.41 39.17 17.50L39.17 17.50L39.17 17.57Q39.17 17.86 38.62 18.55L38.62 18.55Q38.09 19.22 37.80 19.22L37.80 19.22Q36.62 19.22 36.62 16.70L36.62 16.70Q36.62 15.60 36.77 14.71L36.77 14.71Q35.95 15.10 34.82 16.92L34.82 16.92L34.49 17.59Q34.37 17.78 34.22 17.78L34.22 17.78Q33.89 17.78 33.84 16.70L33.84 16.70Q33.84 16.51 33.84 16.18Q33.84 15.84 33.86 15.36L33.86 15.36Q33.84 14.95 33.70 14.81L33.70 14.81Q33.05 15 31.30 18.72L31.30 18.72Q31.06 19.22 30.86 19.22ZM39.65 18.74L39.65 18.74Q38.95 18.74 38.95 17.88L38.95 17.88Q38.95 16.75 40.13 15.07L40.13 15.07Q40.63 14.33 41.16 13.75Q41.69 13.18 42.22 12.72L42.22 12.72Q42.91 12.14 43.49 12.14L43.49 12.14Q43.85 12.14 44.09 12.44Q44.33 12.74 44.33 13.10L44.33 13.10Q44.33 13.27 44.23 13.27L44.23 13.27Q44.23 13.27 44.06 13.10Q43.90 12.94 43.51 12.94L43.51 12.94Q42.96 12.94 42.55 13.20L42.55 13.20Q41.50 13.94 40.61 15.10L40.61 15.10Q39.58 16.44 39.58 17.52L39.58 17.52Q39.58 18.07 39.96 18.07L39.96 18.07Q40.58 18.07 41.93 16.22L41.93 16.22Q42.50 15.41 42.88 14.77Q43.25 14.14 43.42 13.68L43.42 13.68Q43.58 13.51 43.80 13.51L43.80 13.51Q43.92 13.51 43.94 13.61L43.94 13.61Q43.78 13.92 43.78 14.74L43.78 14.74Q43.78 15.77 44.02 16.58L44.02 16.58Q44.38 17.86 45.05 17.86L45.05 17.86Q45.48 17.86 45.96 17.11L45.96 17.11L46.46 16.34Q46.49 16.37 46.49 16.39L46.49 16.39Q46.49 16.78 45.77 17.69L45.77 17.69Q45.05 18.58 44.66 18.58L44.66 18.58Q44.04 18.58 43.51 17.18L43.51 17.18Q43.10 16.03 43.10 15.24L43.10 15.24Q40.75 18.74 39.65 18.74ZM45.96 19.92L45.96 19.92Q45.91 19.87 45.91 19.85L45.91 19.85Q45.94 19.68 46.00 19.25Q46.06 18.82 46.15 18.07L46.15 18.07Q46.34 16.63 46.44 15.55Q46.54 14.47 46.54 13.75L46.54 13.75Q46.54 13.01 46.42 12.60L46.42 12.60Q46.32 12.50 46.03 12.50L46.03 12.50Q45.89 12.50 45.60 12.58Q45.31 12.65 45.19 12.65L45.19 12.65Q45.07 12.65 45.07 12.58L45.07 12.58Q45.07 12.50 45.70 12.17L45.70 12.17Q46.99 11.54 46.90 11.54L46.90 11.54Q47.35 11.54 47.35 12.91L47.35 12.91Q47.35 13.51 47.14 14.74L47.14 14.74Q47.04 15.34 46.99 15.78Q46.94 16.22 46.94 16.54L46.94 16.54L46.94 16.61Q48.36 14.23 49.82 12.77L49.82 12.77Q50.38 12.34 50.86 12.34L50.86 12.34Q50.93 12.34 50.93 12.38L50.93 12.38Q50.69 12.86 50.56 13.15Q50.42 13.44 50.38 13.56L50.38 13.56Q50.18 14.04 50.06 14.88L50.06 14.88Q50.04 15.19 49.92 15.19L49.92 15.19Q49.51 15.19 49.51 14.04L49.51 14.04Q49.51 13.94 49.51 13.85Q49.51 13.75 49.54 13.66L49.54 13.66Q48.94 14.23 48.44 14.88Q47.95 15.53 47.54 16.25L47.54 16.25Q46.56 18 46.66 19.32L46.66 19.32Q46.54 19.46 46.36 19.61Q46.18 19.75 45.96 19.92ZM63.67 20.59L63.67 20.59Q62.06 20.59 62.06 17.35L62.06 17.35Q62.06 16.78 62.11 16.21Q62.16 15.65 62.23 15.12L62.23 15.12Q61.87 15 61.32 14.94Q60.77 14.88 60.02 14.88L60.02 14.88Q58.85 14.88 57.78 15.01Q56.71 15.14 55.80 15.43L55.80 15.43Q55.49 15.50 55.30 15.50L55.30 15.50Q54.84 15.50 54.84 15.34L54.84 15.34Q54.86 15.29 54.89 15.25Q54.91 15.22 54.96 15.19L54.96 15.19L56.69 13.85Q58.56 12.36 60.23 10.85Q61.90 9.34 63.34 7.82L63.34 7.82L63.46 6.38Q63.55 5.14 64.75 5.14L64.75 5.14Q65.06 5.14 65.06 5.54L65.06 5.54Q65.06 5.83 64.98 6.31Q64.90 6.79 64.73 7.49L64.73 7.49L63.79 10.75Q63.53 11.78 63.38 12.59Q63.24 13.39 63.24 14.02L63.24 14.02Q63.43 14.11 63.58 14.11L63.58 14.11Q64.78 14.11 65.75 13.85Q66.72 13.58 67.51 13.10L67.51 13.10Q67.63 13.01 67.75 13.01L67.75 13.01Q67.82 13.01 67.82 13.10L67.82 13.10Q67.82 13.25 67.63 13.44L67.63 13.44Q66.43 14.62 64.20 14.86L64.20 14.86Q63.48 14.95 63.28 15.22Q63.07 15.48 63 16.27L63 16.27Q62.93 16.80 62.93 17.45L62.93 17.45Q62.93 19.82 64.06 19.82L64.06 19.82Q64.66 19.82 65.30 19.08L65.30 19.08Q65.98 18.34 65.90 18.34L65.90 18.34L65.98 18.46Q65.98 18.55 65.90 18.67L65.90 18.67Q65.06 20.59 63.67 20.59ZM63.34 8.54L56.98 14.18Q58.13 14.18 60.07 14.11L60.07 14.11L62.35 14.11L63.34 8.54ZM71.71 19.58L71.71 19.58Q70.58 19.58 69.94 18.86Q69.29 18.14 69.29 17.02L69.29 17.02Q69.29 14.88 71.11 12.12L71.11 12.12Q71.88 10.92 72.77 9.92Q73.66 8.93 74.64 8.11L74.64 8.11Q76.10 6.94 76.68 6.94L76.68 6.94Q76.87 6.94 76.87 7.01L76.87 7.01Q76.87 7.39 76.15 7.54L76.15 7.54Q74.35 8.66 72.31 11.54L72.31 11.54Q70.15 14.59 70.15 16.46L70.15 16.46Q70.15 18.53 72.77 18.53L72.77 18.53Q75.98 18.53 79.82 15.34L79.82 15.34Q81.07 14.33 81.67 13.40Q82.27 12.48 82.27 11.66L82.27 11.66Q82.27 9.89 80.14 8.98L80.14 8.98Q78.48 8.26 76.44 8.26L76.44 8.26Q76.06 8.23 76.06 8.09L76.06 8.09Q76.06 7.80 77.95 7.80L77.95 7.80Q78.86 7.80 79.68 7.97Q80.50 8.14 81.22 8.52L81.22 8.52Q83.02 9.41 83.02 11.09L83.02 11.09Q83.02 13.85 78.70 16.80L78.70 16.80Q74.69 19.58 71.71 19.58ZM87.07 19.58L87.07 19.58Q85.94 19.58 85.30 18.86Q84.65 18.14 84.65 17.02L84.65 17.02Q84.65 14.88 86.47 12.12L86.47 12.12Q87.24 10.92 88.13 9.92Q89.02 8.93 90 8.11L90 8.11Q91.46 6.94 92.04 6.94L92.04 6.94Q92.23 6.94 92.23 7.01L92.23 7.01Q92.23 7.39 91.51 7.54L91.51 7.54Q89.71 8.66 87.67 11.54L87.67 11.54Q85.51 14.59 85.51 16.46L85.51 16.46Q85.51 18.53 88.13 18.53L88.13 18.53Q91.34 18.53 95.18 15.34L95.18 15.34Q96.43 14.33 97.03 13.40Q97.63 12.48 97.63 11.66L97.63 11.66Q97.63 9.89 95.50 8.98L95.50 8.98Q93.84 8.26 91.80 8.26L91.80 8.26Q91.42 8.23 91.42 8.09L91.42 8.09Q91.42 7.80 93.31 7.80L93.31 7.80Q94.22 7.80 95.04 7.97Q95.86 8.14 96.58 8.52L96.58 8.52Q98.38 9.41 98.38 11.09L98.38 11.09Q98.38 13.85 94.06 16.80L94.06 16.80Q90.05 19.58 87.07 19.58ZM103.94 19.92L103.94 19.92Q103.90 19.87 103.90 19.85L103.90 19.85Q103.92 19.68 103.98 19.25Q104.04 18.82 104.14 18.07L104.14 18.07Q104.33 16.63 104.42 15.55Q104.52 14.47 104.52 13.75L104.52 13.75Q104.52 13.01 104.40 12.60L104.40 12.60Q104.30 12.50 104.02 12.50L104.02 12.50Q103.87 12.50 103.58 12.58Q103.30 12.65 103.18 12.65L103.18 12.65Q103.06 12.65 103.06 12.58L103.06 12.58Q103.06 12.48 103.73 12.19L103.73 12.19Q104.88 11.57 104.88 11.54L104.88 11.54Q105.34 11.54 105.34 12.91L105.34 12.91Q105.34 13.51 105.12 14.74L105.12 14.74Q105.02 15.34 104.98 15.78Q104.93 16.22 104.93 16.54L104.93 16.54L104.93 16.61Q105.14 16.22 105.49 15.71Q105.84 15.19 106.30 14.57L106.30 14.57Q107.28 13.27 107.81 12.77L107.81 12.77Q107.90 12.67 108.30 12.50Q108.70 12.34 108.84 12.34L108.84 12.34Q108.91 12.34 108.91 12.38L108.91 12.38Q108.34 13.49 108.19 14.04L108.19 14.04Q108 14.76 108 15.89L108 15.89Q108 17.86 108.84 17.86L108.84 17.86Q109.13 17.86 109.51 17.40L109.51 17.40Q109.56 17.30 109.67 17.20Q109.78 17.09 109.90 16.92L109.90 16.92L109.92 17.02Q109.92 17.28 109.37 17.98L109.37 17.98Q108.84 18.65 108.53 18.65L108.53 18.65Q107.35 18.65 107.35 16.15L107.35 16.15Q107.35 15.46 107.39 14.83Q107.42 14.21 107.52 13.66L107.52 13.66Q106.92 14.23 106.43 14.88Q105.94 15.53 105.53 16.25L105.53 16.25Q104.54 18 104.64 19.32L104.64 19.32Q104.52 19.46 104.34 19.61Q104.16 19.75 103.94 19.92ZM111.48 19.15L111.48 19.15Q110.35 19.15 110.35 16.90L110.35 16.90Q110.35 16.06 110.50 15.22Q110.64 14.38 110.90 13.54L110.90 13.54Q111.12 12.86 111.66 12.37Q112.20 11.88 112.87 11.88L112.87 11.88Q113.11 11.88 113.14 11.98L113.14 11.98Q113.09 12.07 113.02 12.02L113.02 12.02Q112.06 12.26 111.58 13.99L111.58 13.99Q111.41 14.62 111.32 15.29Q111.24 15.96 111.24 16.68L111.24 16.68Q111.24 18.43 111.82 18.43L111.82 18.43Q112.61 18.43 113.04 16.70L113.04 16.70Q113.33 15.50 113.33 14.28L113.33 14.28Q113.33 13.49 113.06 13.07Q112.80 12.65 112.80 12.72L112.80 12.72Q112.80 12.53 113.06 12.53L113.06 12.53Q113.78 12.53 113.78 14.33L113.78 14.33Q113.78 15.70 113.26 17.18L113.26 17.18Q112.58 19.15 111.48 19.15ZM114.58 19.92L114.58 19.92Q114.53 19.87 114.53 19.85L114.53 19.85Q114.55 19.68 114.61 19.25Q114.67 18.82 114.77 18.07L114.77 18.07Q114.96 16.63 115.06 15.55Q115.15 14.47 115.15 13.75L115.15 13.75Q115.15 13.01 115.03 12.60L115.03 12.60Q114.94 12.50 114.65 12.50L114.65 12.50Q114.50 12.50 114.22 12.58Q113.93 12.65 113.81 12.65L113.81 12.65Q113.69 12.65 113.69 12.58L113.69 12.58Q113.69 12.50 114.31 12.17L114.31 12.17Q115.61 11.54 115.51 11.54L115.51 11.54Q115.97 11.54 115.97 12.91L115.97 12.91Q115.97 13.51 115.75 14.74L115.75 14.74Q115.66 15.34 115.61 15.78Q115.56 16.22 115.56 16.54L115.56 16.54L115.56 16.61Q116.98 14.23 118.44 12.77L118.44 12.77Q118.99 12.34 119.47 12.34L119.47 12.34Q119.54 12.34 119.54 12.38L119.54 12.38Q119.30 12.86 119.17 13.15Q119.04 13.44 118.99 13.56L118.99 13.56Q118.80 14.04 118.68 14.88L118.68 14.88Q118.66 15.19 118.54 15.19L118.54 15.19Q118.13 15.19 118.13 14.04L118.13 14.04Q118.13 13.94 118.13 13.85Q118.13 13.75 118.15 13.66L118.15 13.66Q117.55 14.23 117.06 14.88Q116.57 15.53 116.16 16.25L116.16 16.25Q115.18 18 115.27 19.32L115.27 19.32Q115.15 19.46 114.97 19.61Q114.79 19.75 114.58 19.92ZM119.90 19.22L119.90 19.22Q119.71 19.22 119.71 18.72L119.71 18.72Q119.71 18.34 119.78 17.95L119.78 17.95Q120.10 16.32 120.25 15.14Q120.41 13.97 120.41 13.27L120.41 13.27Q120.41 12.62 120.23 12.43Q120.05 12.24 119.40 12.24L119.40 12.24Q119.26 12.24 119.00 12.30Q118.75 12.36 118.63 12.36L118.63 12.36Q118.54 12.36 118.54 12.31L118.54 12.31Q118.54 12.24 119.18 11.93L119.18 11.93Q120.46 11.28 120.50 11.28L120.50 11.28Q121.10 11.28 121.10 12.50L121.10 12.50Q121.10 12.84 120.96 13.94Q120.82 15.05 120.55 16.90L120.55 16.90L120.46 17.54L120.48 17.59Q122.71 13.61 123.36 13.61L123.36 13.61Q123.72 13.61 123.67 16.70L123.67 16.70Q123.84 16.49 124.33 15.82Q124.82 15.14 125.66 14.04L125.66 14.04L126.60 13.15Q126.79 12.96 126.89 12.96L126.89 12.96Q126.94 12.96 126.94 13.03L126.94 13.03Q126.94 13.10 126.86 13.25L126.86 13.25Q126.29 14.50 126.29 16.61L126.29 16.61Q126.29 18.41 127.15 18.41L127.15 18.41Q127.49 18.41 128.21 17.50L128.21 17.50L128.21 17.57Q128.21 17.86 127.66 18.55L127.66 18.55Q127.13 19.22 126.84 19.22L126.84 19.22Q125.66 19.22 125.66 16.70L125.66 16.70Q125.66 15.60 125.81 14.71L125.81 14.71Q124.99 15.10 123.86 16.92L123.86 16.92L123.53 17.59Q123.41 17.78 123.26 17.78L123.26 17.78Q122.93 17.78 122.88 16.70L122.88 16.70Q122.88 16.51 122.88 16.18Q122.88 15.84 122.90 15.36L122.90 15.36Q122.88 14.95 122.74 14.81L122.74 14.81Q122.09 15 120.34 18.72L120.34 18.72Q120.10 19.22 119.90 19.22ZM128.69 18.74L128.69 18.74Q127.99 18.74 127.99 17.88L127.99 17.88Q127.99 16.75 129.17 15.07L129.17 15.07Q129.67 14.33 130.20 13.75Q130.73 13.18 131.26 12.72L131.26 12.72Q131.95 12.14 132.53 12.14L132.53 12.14Q132.89 12.14 133.13 12.44Q133.37 12.74 133.37 13.10L133.37 13.10Q133.37 13.27 133.27 13.27L133.27 13.27Q133.27 13.27 133.10 13.10Q132.94 12.94 132.55 12.94L132.55 12.94Q132 12.94 131.59 13.20L131.59 13.20Q130.54 13.94 129.65 15.10L129.65 15.10Q128.62 16.44 128.62 17.52L128.62 17.52Q128.62 18.07 129 18.07L129 18.07Q129.62 18.07 130.97 16.22L130.97 16.22Q131.54 15.41 131.92 14.77Q132.29 14.14 132.46 13.68L132.46 13.68Q132.62 13.51 132.84 13.51L132.84 13.51Q132.96 13.51 132.98 13.61L132.98 13.61Q132.82 13.92 132.82 14.74L132.82 14.74Q132.82 15.77 133.06 16.58L133.06 16.58Q133.42 17.86 134.09 17.86L134.09 17.86Q134.52 17.86 135 17.11L135 17.11L135.50 16.34Q135.53 16.37 135.53 16.39L135.53 16.39Q135.53 16.78 134.81 17.69L134.81 17.69Q134.09 18.58 133.70 18.58L133.70 18.58Q133.08 18.58 132.55 17.18L132.55 17.18Q132.14 16.03 132.14 15.24L132.14 15.24Q129.79 18.74 128.69 18.74ZM136.37 20.45L136.37 20.45Q135.50 20.45 135.50 18.29L135.50 18.29Q135.50 17.98 135.52 17.69Q135.53 17.40 135.55 17.09L135.55 17.09Q135.82 13.70 135.96 11.47Q136.10 9.24 136.10 8.14L136.10 8.14Q136.10 5.74 135.17 5.74L135.17 5.74Q134.95 5.74 134.74 5.81L134.74 5.81Q134.71 5.83 134.66 5.83L134.66 5.83Q134.57 5.83 134.57 5.71L134.57 5.71Q134.57 5.54 135.41 5.26L135.41 5.26Q136.20 4.94 136.51 4.94L136.51 4.94Q137.06 4.94 137.06 5.93L137.06 5.93Q137.06 6.46 137.00 7.34Q136.94 8.23 136.82 9.46L136.82 9.46Q136.25 15.31 136.25 16.87L136.25 16.87Q136.25 19.73 137.02 19.73L137.02 19.73Q137.21 19.73 137.38 19.61Q137.54 19.49 137.71 19.30L137.71 19.30L138.07 18.89Q138.14 18.89 138.14 19.03L138.14 19.03Q138.14 19.34 137.42 19.90L137.42 19.90Q136.73 20.45 136.37 20.45Z"/></svg>