<svg xmlns="http://www.w3.org/2000/svg" xmlns:xlink="http://www.w3.org/1999/xlink" width="292.584" height="48.288000000000004"><path fill="black" d="M4.15 19.58L9.10 19.58L9.10 22.51L4.15 22.51L4.15 19.58ZM7.61 22.51L7.61 22.51L7.73 20.26Q9.84 20.26 11.23 20.71Q12.62 21.17 13.33 22.03Q14.04 22.90 14.04 24.17L14.04 24.17Q14.04 26.52 12.26 27.67Q10.49 28.82 7.20 28.82L7.20 28.82Q6.65 28.82 5.88 28.78Q5.11 28.73 4.32 28.60Q3.53 28.46 2.88 28.22L2.88 28.22Q1.56 27.72 1.56 26.47L1.56 26.47L1.56 15.26Q1.56 14.76 1.85 14.48Q2.14 14.21 2.59 14.04L2.59 14.04Q3.41 13.75 4.64 13.62Q5.88 13.49 7.15 13.49L7.15 13.49Q10.20 13.49 11.87 14.53Q13.54 15.58 13.54 17.71L13.54 17.71Q13.54 18.91 12.80 19.72Q12.07 20.52 10.73 20.92Q9.38 21.31 7.54 21.31L7.54 21.31L7.39 19.58Q8.42 19.58 8.89 19.20Q9.36 18.82 9.36 18.07L9.36 18.07Q9.36 17.42 8.82 17.04Q8.28 16.66 7.20 16.66L7.20 16.66Q6.84 16.66 6.37 16.68Q5.90 16.70 5.64 16.75L5.64 16.75L5.64 25.44Q5.98 25.54 6.52 25.57Q7.06 25.61 7.51 25.61L7.51 25.61Q8.47 25.61 9.11 25.21Q9.74 24.82 9.74 23.98L9.74 23.98Q9.74 23.18 9.20 22.85Q8.66 22.51 7.61 22.51ZM21.10 25.85L21.10 25.85L21.10 25.85Q21.50 25.85 22.00 25.76Q22.49 25.68 22.73 25.54L22.73 25.54L22.73 23.62L21 23.76Q20.33 23.81 19.90 24.05Q19.46 24.29 19.46 24.77L19.46 24.77Q19.46 25.25 19.84 25.55Q20.21 25.85 21.10 25.85ZM20.90 16.42L20.90 16.42L20.90 16.42Q23.52 16.42 25.09 17.48Q26.66 18.55 26.66 20.81L26.66 20.81L26.66 26.18Q26.66 26.81 26.32 27.20Q25.97 27.60 25.49 27.89L25.49 27.89Q24.72 28.34 23.62 28.58Q22.51 28.82 21.10 28.82L21.10 28.82Q18.58 28.82 17.05 27.85Q15.53 26.88 15.53 24.91L15.53 24.91Q15.53 23.26 16.52 22.37Q17.52 21.48 19.56 21.26L19.56 21.26L22.70 20.93L22.70 20.76Q22.70 20.06 22.09 19.76Q21.48 19.46 20.33 19.46L20.33 19.46Q19.44 19.46 18.56 19.66Q17.69 19.85 16.99 20.14L16.99 20.14Q16.68 19.92 16.46 19.48Q16.25 19.03 16.25 18.55L16.25 18.55Q16.25 17.40 17.47 16.92L17.47 16.92Q18.17 16.66 19.12 16.54Q20.06 16.42 20.90 16.42ZM29.28 26.71L29.28 22.10L33.36 22.10L33.36 28.42Q33.10 28.49 32.60 28.56Q32.11 28.63 31.54 28.63L31.54 28.63Q30.36 28.63 29.82 28.22Q29.28 27.82 29.28 26.71L29.28 26.71ZM33.36 14.50L33.36 24.24L29.28 24.24L29.28 12.79Q29.54 12.72 30.04 12.65Q30.53 12.58 31.10 12.58L31.10 12.58Q32.30 12.58 32.83 12.97Q33.36 13.37 33.36 14.50L33.36 14.50ZM48.05 22.61L48.05 22.61L48.05 22.61Q48.05 24.53 47.27 25.92Q46.49 27.31 45.08 28.07Q43.68 28.82 41.76 28.82L41.76 28.82Q39.86 28.82 38.45 28.08Q37.03 27.34 36.25 25.94Q35.47 24.55 35.47 22.61L35.47 22.61Q35.47 20.71 36.26 19.32Q37.06 17.93 38.47 17.17Q39.89 16.42 41.76 16.42L41.76 16.42Q43.66 16.42 45.06 17.18Q46.46 17.95 47.26 19.34Q48.05 20.74 48.05 22.61ZM41.76 19.61L41.76 19.61L41.76 19.61Q40.78 19.61 40.21 20.39Q39.65 21.17 39.65 22.61L39.65 22.61Q39.65 24.10 40.20 24.86Q40.75 25.63 41.76 25.63L41.76 25.63Q42.77 25.63 43.32 24.85Q43.87 24.07 43.87 22.61L43.87 22.61Q43.87 21.19 43.31 20.40Q42.74 19.61 41.76 19.61ZM62.11 22.61L62.11 22.61L62.11 22.61Q62.11 24.53 61.33 25.92Q60.55 27.31 59.15 28.07Q57.74 28.82 55.82 28.82L55.82 28.82Q53.93 28.82 52.51 28.08Q51.10 27.34 50.32 25.94Q49.54 24.55 49.54 22.61L49.54 22.61Q49.54 20.71 50.33 19.32Q51.12 17.93 52.54 17.17Q53.95 16.42 55.82 16.42L55.82 16.42Q57.72 16.42 59.12 17.18Q60.53 17.95 61.32 19.34Q62.11 20.74 62.11 22.61ZM55.82 19.61L55.82 19.61L55.82 19.61Q54.84 19.61 54.28 20.39Q53.71 21.17 53.71 22.61L53.71 22.61Q53.71 24.10 54.26 24.86Q54.82 25.63 55.82 25.63L55.82 25.63Q56.83 25.63 57.38 24.85Q57.94 24.07 57.94 22.61L57.94 22.61Q57.94 21.19 57.37 20.40Q56.81 19.61 55.82 19.61ZM71.81 19.58L76.75 19.58L76.75 22.51L71.81 22.51L71.81 19.58ZM75.26 22.51L75.26 22.51L75.38 20.26Q77.50 20.26 78.89 20.71Q80.28 21.17 80.99 22.03Q81.70 22.90 81.70 24.17L81.70 24.17Q81.70 26.52 79.92 27.67Q78.14 28.82 74.86 28.82L74.86 28.82Q74.30 28.82 73.54 28.78Q72.77 28.73 71.98 28.60Q71.18 28.46 70.54 28.22L70.54 28.22Q69.22 27.72 69.22 26.47L69.22 26.47L69.22 15.26Q69.22 14.76 69.50 14.48Q69.79 14.21 70.25 14.04L70.25 14.04Q71.06 13.75 72.30 13.62Q73.54 13.49 74.81 13.49L74.81 13.49Q77.86 13.49 79.52 14.53Q81.19 15.58 81.19 17.71L81.19 17.71Q81.19 18.91 80.46 19.72Q79.73 20.52 78.38 20.92Q77.04 21.31 75.19 21.31L75.19 21.31L75.05 19.58Q76.08 19.58 76.55 19.20Q77.02 18.82 77.02 18.07L77.02 18.07Q77.02 17.42 76.48 17.04Q75.94 16.66 74.86 16.66L74.86 16.66Q74.50 16.66 74.03 16.68Q73.56 16.70 73.30 16.75L73.30 16.75L73.30 25.44Q73.63 25.54 74.17 25.57Q74.71 25.61 75.17 25.61L75.17 25.61Q76.13 25.61 76.76 25.21Q77.40 24.82 77.40 23.98L77.40 23.98Q77.40 23.18 76.86 22.85Q76.32 22.51 75.26 22.51ZM95.28 21.14L95.28 23.52L91.20 23.52L91.20 21.38Q91.20 20.40 90.71 20.00Q90.22 19.61 89.50 19.61L89.50 19.61Q88.78 19.61 88.22 19.87Q87.67 20.14 87.26 20.45L87.26 20.45L87.26 17.16Q87.82 16.87 88.58 16.64Q89.35 16.42 90.26 16.42L90.26 16.42Q92.62 16.42 93.95 17.60Q95.28 18.79 95.28 21.14L95.28 21.14ZM83.81 26.71L83.81 22.10L87.89 22.10L87.89 28.42Q87.62 28.49 87.13 28.56Q86.64 28.63 86.06 28.63L86.06 28.63Q84.89 28.63 84.35 28.22Q83.81 27.82 83.81 26.71L83.81 26.71ZM91.20 26.71L91.20 22.10L95.28 22.10L95.28 28.42Q95.02 28.49 94.52 28.56Q94.03 28.63 93.46 28.63L93.46 28.63Q92.28 28.63 91.74 28.22Q91.20 27.82 91.20 26.71L91.20 26.71ZM87.89 14.50L87.89 24.24L83.81 24.24L83.81 12.79Q84.07 12.72 84.56 12.65Q85.06 12.58 85.63 12.58L85.63 12.58Q86.83 12.58 87.36 12.97Q87.89 13.37 87.89 14.50L87.89 14.50ZM102.79 25.85L102.79 25.85L102.79 25.85Q103.20 25.85 103.69 25.76Q104.18 25.68 104.42 25.54L104.42 25.54L104.42 23.62L102.70 23.76Q102.02 23.81 101.59 24.05Q101.16 24.29 101.16 24.77L101.16 24.77Q101.16 25.25 101.53 25.55Q101.90 25.85 102.79 25.85ZM102.60 16.42L102.60 16.42L102.60 16.42Q105.22 16.42 106.79 17.48Q108.36 18.55 108.36 20.81L108.36 20.81L108.36 26.18Q108.36 26.81 108.01 27.20Q107.66 27.60 107.18 27.89L107.18 27.89Q106.42 28.34 105.31 28.58Q104.21 28.82 102.79 28.82L102.79 28.82Q100.27 28.82 98.75 27.85Q97.22 26.88 97.22 24.91L97.22 24.91Q97.22 23.26 98.22 22.37Q99.22 21.48 101.26 21.26L101.26 21.26L104.40 20.93L104.40 20.76Q104.40 20.06 103.79 19.76Q103.18 19.46 102.02 19.46L102.02 19.46Q101.14 19.46 100.26 19.66Q99.38 19.85 98.69 20.14L98.69 20.14Q98.38 19.92 98.16 19.48Q97.94 19.03 97.94 18.55L97.94 18.55Q97.94 17.40 99.17 16.92L99.17 16.92Q99.86 16.66 100.81 16.54Q101.76 16.42 102.60 16.42ZM110.76 13.54L110.76 13.54L110.76 13.54Q110.76 12.62 111.38 12Q112.01 11.38 112.99 11.38L112.99 11.38Q113.98 11.38 114.60 12Q115.22 12.62 115.22 13.54L115.22 13.54Q115.22 14.42 114.60 15.06Q113.98 15.70 112.99 15.70L112.99 15.70Q112.01 15.70 111.38 15.06Q110.76 14.42 110.76 13.54ZM110.95 26.71L110.95 22.10L115.03 22.10L115.03 28.42Q114.77 28.49 114.28 28.56Q113.78 28.63 113.21 28.63L113.21 28.63Q112.03 28.63 111.49 28.22Q110.95 27.82 110.95 26.71L110.95 26.71ZM115.03 18.65L115.03 24.24L110.95 24.24L110.95 16.94Q111.22 16.87 111.71 16.80Q112.20 16.73 112.78 16.73L112.78 16.73Q113.98 16.73 114.50 17.12Q115.03 17.52 115.03 18.65L115.03 18.65ZM129.10 20.93L129.10 20.93L129.10 23.14L125.02 23.14L125.02 21.05Q125.02 20.30 124.57 19.96Q124.13 19.61 123.41 19.61L123.41 19.61Q122.93 19.61 122.51 19.73Q122.09 19.85 121.70 20.04L121.70 20.04L121.70 23.14L117.62 23.14L117.62 19.49Q117.62 18.84 117.90 18.43Q118.18 18.02 118.66 17.69L118.66 17.69Q119.47 17.11 120.72 16.76Q121.97 16.42 123.46 16.42L123.46 16.42Q126.17 16.42 127.63 17.60Q129.10 18.79 129.10 20.93ZM117.62 26.71L117.62 22.10L121.70 22.10L121.70 28.42Q121.44 28.49 120.95 28.56Q120.46 28.63 119.88 28.63L119.88 28.63Q118.70 28.63 118.16 28.22Q117.62 27.82 117.62 26.71L117.62 26.71ZM125.02 26.71L125.02 22.10L129.10 22.10L129.10 28.42Q128.83 28.49 128.34 28.56Q127.85 28.63 127.27 28.63L127.27 28.63Q126.10 28.63 125.56 28.22Q125.02 27.82 125.02 26.71L125.02 26.71ZM136.61 25.85L136.61 25.85L136.61 25.85Q137.02 25.85 137.51 25.76Q138 25.68 138.24 25.54L138.24 25.54L138.24 23.62L136.51 23.76Q135.84 23.81 135.41 24.05Q134.98 24.29 134.98 24.77L134.98 24.77Q134.98 25.25 135.35 25.55Q135.72 25.85 136.61 25.85ZM136.42 16.42L136.42 16.42L136.42 16.42Q139.03 16.42 140.60 17.48Q142.18 18.55 142.18 20.81L142.18 20.81L142.18 26.18Q142.18 26.81 141.83 27.20Q141.48 27.60 141 27.89L141 27.89Q140.23 28.34 139.13 28.58Q138.02 28.82 136.61 28.82L136.61 28.82Q134.09 28.82 132.56 27.85Q131.04 26.88 131.04 24.91L131.04 24.91Q131.04 23.26 132.04 22.37Q133.03 21.48 135.07 21.26L135.07 21.26L138.22 20.93L138.22 20.76Q138.22 20.06 137.60 19.76Q136.99 19.46 135.84 19.46L135.84 19.46Q134.95 19.46 134.08 19.66Q133.20 19.85 132.50 20.14L132.50 20.14Q132.19 19.92 131.98 19.48Q131.76 19.03 131.76 18.55L131.76 18.55Q131.76 17.40 132.98 16.92L132.98 16.92Q133.68 16.66 134.63 16.54Q135.58 16.42 136.42 16.42ZM149.66 15.24L149.66 15.24L149.66 15.24Q149.66 14.42 150.23 13.87Q150.79 13.32 151.81 13.03Q152.83 12.74 154.18 12.74L154.18 12.74Q156.12 12.74 157.44 13.36Q158.76 13.97 159.42 15.01Q160.08 16.06 160.08 17.40L160.08 17.40Q160.08 18.74 159.34 19.99Q158.59 21.24 157.03 22.54L157.03 22.54L153.60 25.37L159.86 25.37Q160.01 25.61 160.14 26.02Q160.27 26.42 160.27 26.88L160.27 26.88Q160.27 27.70 159.90 28.07Q159.53 28.44 158.90 28.44L158.90 28.44L150.14 28.44Q149.64 28.10 149.35 27.55Q149.06 27 149.06 26.28L149.06 26.28Q149.06 25.51 149.39 24.96Q149.71 24.41 150.10 24.07L150.10 24.07L153.77 20.88Q155.11 19.70 155.60 18.98Q156.10 18.26 156.10 17.62L156.10 17.62Q156.10 16.85 155.50 16.38Q154.90 15.91 153.79 15.91L153.79 15.91Q152.76 15.91 151.96 16.24Q151.15 16.56 150.62 16.92L150.62 16.92Q150.24 16.66 149.95 16.24Q149.66 15.82 149.66 15.24ZM170.76 19.87L170.76 19.87L172.42 19.37Q173.59 19.10 174.24 18.60Q174.89 18.10 174.89 17.28L174.89 17.28Q174.89 16.51 174.36 16.09Q173.83 15.67 172.87 15.67L172.87 15.67Q171.98 15.67 171.46 16.12Q170.93 16.56 170.93 17.30L170.93 17.30Q170.93 17.88 171.24 18.29Q171.55 18.70 172.12 18.92Q172.68 19.15 173.38 19.25L173.38 19.25L175.68 20.14Q176.52 20.40 177.32 20.88Q178.13 21.36 178.64 22.19Q179.16 23.02 179.16 24.29L179.16 24.29Q179.16 25.70 178.37 26.74Q177.58 27.77 176.17 28.32Q174.77 28.87 172.87 28.87L172.87 28.87Q171.02 28.87 169.62 28.32Q168.22 27.77 167.44 26.74Q166.66 25.70 166.66 24.24L166.66 24.24Q166.66 22.92 167.27 22.02Q167.88 21.12 168.82 20.59Q169.75 20.06 170.76 19.87ZM175.85 20.71L175.85 20.71L173.59 21.55Q172.06 21.77 171.32 22.45Q170.59 23.14 170.59 24.02L170.59 24.02Q170.59 24.91 171.22 25.40Q171.84 25.90 172.87 25.90L172.87 25.90Q173.93 25.90 174.58 25.42Q175.22 24.94 175.22 24.02L175.22 24.02Q175.22 23.02 174.25 22.38Q173.28 21.74 171.55 21.65L171.55 21.65L170.47 20.86Q168.91 20.45 167.99 19.51Q167.06 18.58 167.06 17.11L167.06 17.11Q167.06 15.74 167.80 14.76Q168.53 13.78 169.84 13.25Q171.14 12.72 172.87 12.72L172.87 12.72Q175.61 12.72 177.18 13.88Q178.75 15.05 178.75 17.09L178.75 17.09Q178.75 18.55 177.91 19.43Q177.07 20.30 175.85 20.71ZM189.91 20.78L189.91 20.78L189.91 20.78Q189.91 19.18 189.58 18.10Q189.24 17.02 188.64 16.45Q188.04 15.89 187.20 15.89L187.20 15.89Q186.38 15.89 185.80 16.45Q185.21 17.02 184.88 18.11Q184.56 19.20 184.56 20.78L184.56 20.78Q184.56 23.26 185.24 24.47Q185.93 25.68 187.20 25.68L187.20 25.68Q188.50 25.68 189.20 24.47Q189.91 23.26 189.91 20.78ZM187.22 28.82L187.22 28.82L187.22 28.82Q185.28 28.82 183.78 27.92Q182.28 27.02 181.44 25.24Q180.60 23.45 180.60 20.78L180.60 20.78Q180.60 18.14 181.45 16.36Q182.30 14.57 183.80 13.66Q185.30 12.74 187.22 12.74L187.22 12.74Q189.14 12.74 190.64 13.66Q192.14 14.57 193.01 16.36Q193.87 18.14 193.87 20.78L193.87 20.78Q193.87 23.45 193.02 25.24Q192.17 27.02 190.67 27.92Q189.17 28.82 187.22 28.82ZM204.86 20.78L204.86 20.78L204.86 20.78Q204.86 19.18 204.53 18.10Q204.19 17.02 203.59 16.45Q202.99 15.89 202.15 15.89L202.15 15.89Q201.34 15.89 200.75 16.45Q200.16 17.02 199.84 18.11Q199.51 19.20 199.51 20.78L199.51 20.78Q199.51 23.26 200.20 24.47Q200.88 25.68 202.15 25.68L202.15 25.68Q203.45 25.68 204.16 24.47Q204.86 23.26 204.86 20.78ZM202.18 28.82L202.18 28.82L202.18 28.82Q200.23 28.82 198.73 27.92Q197.23 27.02 196.39 25.24Q195.55 23.45 195.55 20.78L195.55 20.78Q195.55 18.14 196.40 16.36Q197.26 14.57 198.76 13.66Q200.26 12.74 202.18 12.74L202.18 12.74Q204.10 12.74 205.60 13.66Q207.10 14.57 207.96 16.36Q208.82 18.14 208.82 20.78L208.82 20.78Q208.82 23.45 207.97 25.24Q207.12 27.02 205.62 27.92Q204.12 28.82 202.18 28.82ZM227.18 20.93L227.18 20.93L227.18 23.14L223.10 23.14L223.10 21.05Q223.10 20.30 222.66 19.96Q222.22 19.61 221.50 19.61L221.50 19.61Q221.02 19.61 220.60 19.73Q220.18 19.85 219.79 20.04L219.79 20.04L219.79 23.14L215.71 23.14L215.71 19.49Q215.71 18.84 215.99 18.43Q216.26 18.02 216.74 17.69L216.74 17.69Q217.56 17.11 218.81 16.76Q220.06 16.42 221.54 16.42L221.54 16.42Q224.26 16.42 225.72 17.60Q227.18 18.79 227.18 20.93ZM215.71 26.71L215.71 22.10L219.79 22.10L219.79 28.42Q219.53 28.49 219.04 28.56Q218.54 28.63 217.97 28.63L217.97 28.63Q216.79 28.63 216.25 28.22Q215.71 27.82 215.71 26.71L215.71 26.71ZM223.10 26.71L223.10 22.10L227.18 22.10L227.18 28.42Q226.92 28.49 226.43 28.56Q225.94 28.63 225.36 28.63L225.36 28.63Q224.18 28.63 223.64 28.22Q223.10 27.82 223.10 26.71L223.10 26.71ZM241.78 22.61L241.78 22.61L241.78 22.61Q241.78 24.53 241.00 25.92Q240.22 27.31 238.81 28.07Q237.41 28.82 235.49 28.82L235.49 28.82Q233.59 28.82 232.18 28.08Q230.76 27.34 229.98 25.94Q229.20 24.55 229.20 22.61L229.20 22.61Q229.20 20.71 229.99 19.32Q230.78 17.93 232.20 17.17Q233.62 16.42 235.49 16.42L235.49 16.42Q237.38 16.42 238.79 17.18Q240.19 17.95 240.98 19.34Q241.78 20.74 241.78 22.61ZM235.49 19.61L235.49 19.61L235.49 19.61Q234.50 19.61 233.94 20.39Q233.38 21.17 233.38 22.61L233.38 22.61Q233.38 24.10 233.93 24.86Q234.48 25.63 235.49 25.63L235.49 25.63Q236.50 25.63 237.05 24.85Q237.60 24.07 237.60 22.61L237.60 22.61Q237.60 21.19 237.04 20.40Q236.47 19.61 235.49 19.61ZM247.85 20.21L247.85 20.21L247.85 22.94L243.77 22.94L243.77 19.58Q243.77 18.89 244.14 18.37Q244.51 17.86 245.11 17.47L245.11 17.47Q245.95 16.97 247.08 16.70Q248.21 16.44 249.41 16.44L249.41 16.44Q252.02 16.44 252.02 18.29L252.02 18.29Q252.02 18.72 251.90 19.09Q251.78 19.46 251.62 19.73L251.62 19.73Q251.38 19.68 251.04 19.66Q250.70 19.63 250.30 19.63L250.30 19.63Q249.70 19.63 249.02 19.78Q248.35 19.92 247.85 20.21ZM243.77 26.71L243.77 22.10L247.85 22.10L247.85 28.42Q247.58 28.49 247.09 28.56Q246.60 28.63 246.02 28.63L246.02 28.63Q244.85 28.63 244.31 28.22Q243.77 27.82 243.77 26.71L243.77 26.71ZM264.58 20.42L264.58 20.42L264.58 23.14L260.50 23.14L260.50 20.98Q260.50 20.26 260.08 19.93Q259.66 19.61 259.06 19.61L259.06 19.61Q258.60 19.61 258.26 19.74Q257.93 19.87 257.71 19.99L257.71 19.99L257.71 23.14L253.63 23.14L253.63 19.49Q253.63 18.84 253.91 18.43Q254.18 18.02 254.66 17.69L254.66 17.69Q255.48 17.11 256.69 16.76Q257.90 16.42 259.22 16.42L259.22 16.42Q260.35 16.42 261.38 16.76Q262.42 17.11 263.26 17.88L263.26 17.88Q263.45 18.05 263.65 18.22Q263.86 18.38 263.95 18.58L263.95 18.58Q264.22 18.98 264.40 19.46Q264.58 19.94 264.58 20.42ZM271.44 20.86L271.44 20.86L271.44 23.14L267.36 23.14L267.36 20.98Q267.36 20.26 266.98 19.93Q266.59 19.61 265.97 19.61L265.97 19.61Q265.51 19.61 265.10 19.79Q264.70 19.97 264.43 20.18L264.43 20.18L262.20 17.90Q263.04 17.30 264.06 16.86Q265.08 16.42 266.59 16.42L266.59 16.42Q267.82 16.42 268.93 16.85Q270.05 17.28 270.74 18.25Q271.44 19.22 271.44 20.86ZM253.63 26.71L253.63 22.10L257.71 22.10L257.71 28.42Q257.45 28.49 256.96 28.56Q256.46 28.63 255.89 28.63L255.89 28.63Q254.71 28.63 254.17 28.22Q253.63 27.82 253.63 26.71L253.63 26.71ZM260.50 26.71L260.50 22.10L264.58 22.10L264.58 28.42Q264.31 28.49 263.82 28.56Q263.33 28.63 262.75 28.63L262.75 28.63Q261.58 28.63 261.04 28.22Q260.50 27.82 260.50 26.71L260.50 26.71ZM267.36 26.71L267.36 22.10L271.44 22.10L271.44 28.42Q271.18 28.49 270.68 28.56Q270.19 28.63 269.62 28.63L269.62 28.63Q268.44 28.63 267.90 28.22Q267.36 27.82 267.36 26.71L267.36 26.71ZM278.95 25.85L278.95 25.85L278.95 25.85Q279.36 25.85 279.85 25.76Q280.34 25.68 280.58 25.54L280.58 25.54L280.58 23.62L278.86 23.76Q278.18 23.81 277.75 24.05Q277.32 24.29 277.32 24.77L277.32 24.77Q277.32 25.25 277.69 25.55Q278.06 25.85 278.95 25.85ZM278.76 16.42L278.76 16.42L278.76 16.42Q281.38 16.42 282.95 17.48Q284.52 18.55 284.52 20.81L284.52 20.81L284.52 26.18Q284.52 26.81 284.17 27.20Q283.82 27.60 283.34 27.89L283.34 27.89Q282.58 28.34 281.47 28.58Q280.37 28.82 278.95 28.82L278.95 28.82Q276.43 28.82 274.91 27.85Q273.38 26.88 273.38 24.91L273.38 24.91Q273.38 23.26 274.38 22.37Q275.38 21.48 277.42 21.26L277.42 21.26L280.56 20.93L280.56 20.76Q280.56 20.06 279.95 19.76Q279.34 19.46 278.18 19.46L278.18 19.46Q277.30 19.46 276.42 19.66Q275.54 19.85 274.85 20.14L274.85 20.14Q274.54 19.92 274.32 19.48Q274.10 19.03 274.10 18.55L274.10 18.55Q274.10 17.40 275.33 16.92L275.33 16.92Q276.02 16.66 276.97 16.54Q277.92 16.42 278.76 16.42ZM287.14 26.71L287.14 22.10L291.22 22.10L291.22 28.42Q290.95 28.49 290.46 28.56Q289.97 28.63 289.39 28.63L289.39 28.63Q288.22 28.63 287.68 28.22Q287.14 27.82 287.14 26.71L287.14 26.71ZM291.22 14.50L291.22 24.24L287.14 24.24L287.14 12.79Q287.40 12.72 287.89 12.65Q288.38 12.58 288.96 12.58L288.96 12.58Q290.16 12.58 290.69 12.97Q291.22 13.37 291.22 14.50L291.22 14.50Z"/></svg>