<svg xmlns="http://www.w3.org/2000/svg" xmlns:xlink="http://www.w3.org/1999/xlink" width="143.2265625" height="36.3515625"><path fill="black" d="M12.33 22.15L12.59 21.91Q12.77 21.73 13.05 21.73L13.05 21.73Q13.34 21.73 13.50 21.89L13.50 21.89Q13.71 22.10 13.71 22.38L13.71 22.38Q13.71 22.64 13.52 22.83L13.52 22.83Q13.50 22.85 13.16 23.16Q12.82 23.46 12.22 23.81Q11.63 24.16 10.78 24.46Q9.94 24.75 8.88 24.75L8.88 24.75Q7.64 24.75 6.22 24.27Q4.80 23.79 3.57 22.71Q2.34 21.63 1.54 19.91Q0.73 18.19 0.73 15.68L0.73 15.68Q0.73 14.91 0.77 14.33Q0.82 13.76 0.93 13.30Q1.03 12.84 1.18 12.47Q1.34 12.09 1.55 11.74L1.55 11.74Q1.57 11.70 1.89 11.17Q2.20 10.64 2.67 9.96Q3.14 9.28 3.74 8.64Q4.34 7.99 4.92 7.71L4.92 7.71Q5.60 7.41 6.28 7.27Q6.96 7.13 7.57 7.13L7.57 7.13Q8.23 7.13 8.72 7.27L8.72 7.27Q8.95 7.31 9.33 7.44Q9.70 7.57 10.09 7.73Q10.48 7.90 10.80 8.09Q11.13 8.27 11.27 8.44L11.27 8.44Q11.46 8.70 11.52 9.06Q11.58 9.42 11.58 9.75L11.58 9.75Q11.58 10.01 11.39 10.21Q11.20 10.41 10.92 10.41L10.92 10.41Q10.66 10.41 10.46 10.21Q10.27 10.01 10.27 9.75L10.27 9.75Q10.27 9.63 10.27 9.49Q10.27 9.35 10.24 9.26L10.24 9.26Q10.01 9.14 9.46 8.89Q8.91 8.65 8.41 8.53L8.41 8.53Q8.23 8.48 8.03 8.46Q7.83 8.44 7.59 8.44L7.59 8.44Q7.10 8.44 6.55 8.54Q6 8.65 5.51 8.91L5.51 8.91Q5.18 9.05 4.79 9.45Q4.41 9.84 4.02 10.35Q3.63 10.85 3.28 11.39Q2.93 11.93 2.70 12.38L2.70 12.38Q2.53 12.68 2.40 12.98Q2.27 13.29 2.19 13.66Q2.11 14.04 2.07 14.53Q2.04 15.02 2.04 15.68L2.04 15.68Q2.04 17.27 2.41 18.46Q2.79 19.64 3.39 20.51Q3.98 21.38 4.75 21.94Q5.51 22.50 6.27 22.84Q7.03 23.18 7.72 23.31Q8.41 23.44 8.88 23.44L8.88 23.44Q9.73 23.44 10.41 23.20Q11.09 22.97 11.57 22.69Q12.05 22.41 12.33 22.15L12.33 22.15ZM19.90 23.86L19.90 23.86Q20.34 23.86 21.04 23.43Q21.73 22.99 22.38 22.21Q23.04 21.42 23.51 20.32Q23.98 19.22 23.98 17.86L23.98 17.86Q23.98 16.55 23.66 15.55Q23.34 14.55 22.93 13.86Q22.52 13.17 22.11 12.82Q21.70 12.47 21.52 12.42L21.52 12.42Q21.12 12.42 20.80 12.48Q20.48 12.54 20.37 12.56L20.37 12.56Q20.09 12.56 19.85 12.33L19.85 12.33Q19.27 12.56 18.63 13.38Q18 14.20 17.46 15.29Q16.92 16.38 16.57 17.61Q16.22 18.84 16.22 19.88L16.22 19.88Q16.22 20.95 16.59 21.71Q16.97 22.48 17.53 22.95Q18.09 23.41 18.73 23.64Q19.36 23.86 19.90 23.86ZM21.54 11.11L21.54 11.11Q22.03 11.11 22.68 11.59Q23.32 12.07 23.89 12.95Q24.47 13.83 24.88 15.07Q25.29 16.31 25.29 17.86L25.29 17.86Q25.29 19.43 24.75 20.77Q24.21 22.10 23.40 23.09Q22.59 24.07 21.64 24.62Q20.70 25.17 19.90 25.17L19.90 25.17Q18.98 25.17 18.09 24.82Q17.20 24.47 16.50 23.80Q15.80 23.13 15.35 22.15Q14.91 21.16 14.91 19.88L14.91 19.88Q14.91 19.05 15.12 18.07Q15.33 17.09 15.69 16.09Q16.05 15.09 16.56 14.17Q17.06 13.24 17.65 12.52Q18.23 11.79 18.89 11.36Q19.55 10.92 20.23 10.92L20.23 10.92Q20.48 10.92 20.68 10.98Q20.88 11.04 21.05 11.13L21.05 11.13Q21.16 11.13 21.28 11.12Q21.40 11.11 21.54 11.11ZM47.48 21.61L47.48 21.61Q47.48 21.89 47.46 22.17Q47.44 22.45 47.39 22.71L47.39 22.71Q47.34 22.97 47.32 23.20Q47.30 23.44 47.30 23.67L47.30 23.67Q47.30 24.09 47.44 24.45L47.44 24.45Q47.46 24.52 47.47 24.57Q47.48 24.63 47.48 24.70L47.48 24.70Q47.48 25.13 47.06 25.31L47.06 25.31Q46.88 25.36 46.83 25.36L46.83 25.36Q46.38 25.36 46.20 24.94L46.20 24.94Q46.08 24.61 46.03 24.30Q45.98 24 45.98 23.67L45.98 23.67Q45.98 23.37 46.01 23.09Q46.03 22.80 46.08 22.55L46.08 22.55Q46.13 22.29 46.15 22.07Q46.17 21.84 46.17 21.61L46.17 21.61Q46.17 21.28 46.13 21Q46.08 20.72 46.01 20.41L46.01 20.41Q45.96 20.06 45.90 19.69Q45.84 19.31 45.84 18.87L45.84 18.87Q45.84 18.54 45.86 18.28Q45.87 18.02 45.89 17.77L45.89 17.77Q45.91 17.34 45.94 16.66Q45.96 15.98 45.96 14.65L45.96 14.65Q45.96 13.57 45.45 13.05L45.45 13.05Q45.02 12.63 44.41 12.56Q43.80 12.49 43.45 12.49L43.45 12.49Q43.13 12.49 42.73 12.63Q42.33 12.77 41.92 12.98Q41.51 13.20 41.16 13.41Q40.80 13.62 40.57 13.76L40.57 13.76Q40.45 13.83 40.36 13.88Q40.27 13.92 40.20 13.97L40.20 13.97Q40.08 14.04 39.82 14.38Q39.56 14.72 39.35 15.12L39.35 15.12Q39.21 15.33 39 15.40L39 15.40Q39 16.01 39.06 16.55Q39.12 17.09 39.16 17.55L39.16 17.55Q39.21 18.02 39.26 18.46Q39.30 18.89 39.30 19.29L39.30 19.29Q39.30 19.78 39.33 20.14Q39.35 20.51 39.38 20.81L39.38 20.81Q39.45 21.23 39.45 21.56L39.45 21.56Q39.45 21.89 39.53 22.24Q39.61 22.59 39.71 22.91Q39.82 23.23 39.94 23.48Q40.05 23.74 40.13 23.88L40.13 23.88Q40.22 24 40.22 24.19L40.22 24.19Q40.22 24.38 40.14 24.53Q40.05 24.68 39.87 24.77L39.87 24.77Q39.73 24.84 39.56 24.84L39.56 24.84Q39.16 24.84 38.98 24.52L38.98 24.52Q38.98 24.49 38.84 24.22Q38.70 23.95 38.54 23.53Q38.39 23.11 38.26 22.59Q38.13 22.08 38.13 21.56L38.13 21.56Q38.13 21.45 38.12 21.28Q38.11 21.12 38.09 20.93L38.09 20.93Q38.04 20.63 38.02 20.23Q37.99 19.83 37.99 19.29L37.99 19.29Q37.99 18.96 37.95 18.56Q37.90 18.16 37.85 17.72L37.85 17.72Q37.80 17.11 37.73 16.45Q37.66 15.80 37.66 15.02L37.66 15.02Q37.66 14.55 37.46 14.00Q37.27 13.45 36.89 13.00Q36.52 12.54 35.96 12.23Q35.41 11.93 34.69 11.93L34.69 11.93Q33.77 11.93 33.06 12.28Q32.34 12.63 31.82 13.15Q31.29 13.66 30.94 14.27Q30.59 14.88 30.36 15.41Q30.14 15.94 30.05 16.29L30.05 16.29L29.95 16.66Q29.93 16.85 29.77 17.02L29.77 17.02L29.77 17.41Q29.77 18 29.94 18.73Q30.12 19.45 30.30 20.27L30.30 20.27Q30.59 21.33 30.83 22.48Q31.08 23.63 31.08 24.82L31.08 24.82Q31.08 25.08 30.88 25.28Q30.68 25.48 30.42 25.48L30.42 25.48Q30.14 25.48 29.95 25.28Q29.77 25.08 29.77 24.82L29.77 24.82Q29.77 23.74 29.53 22.66Q29.30 21.59 29.04 20.60L29.04 20.60Q28.80 19.71 28.63 18.91Q28.45 18.12 28.45 17.41L28.45 17.41Q28.45 16.73 28.36 15.71Q28.27 14.70 28.14 13.72Q28.01 12.75 27.91 12.04Q27.82 11.32 27.82 11.27L27.82 11.27Q27.82 11.02 27.98 10.84Q28.15 10.66 28.48 10.62L28.48 10.62Q28.71 10.62 28.89 10.77Q29.06 10.92 29.11 11.18L29.11 11.18Q29.11 11.23 29.16 11.47Q29.20 11.72 29.26 12.12Q29.32 12.52 29.38 13.04Q29.44 13.57 29.51 14.13L29.51 14.13Q29.86 13.48 30.35 12.84Q30.84 12.21 31.49 11.72Q32.13 11.23 32.93 10.92Q33.73 10.62 34.69 10.62L34.69 10.62Q35.44 10.62 36.09 10.86Q36.75 11.11 37.27 11.52Q37.78 11.93 38.16 12.48Q38.53 13.03 38.74 13.64L38.74 13.64Q38.93 13.38 39.14 13.16Q39.35 12.94 39.56 12.82L39.56 12.82Q39.68 12.77 39.87 12.63L39.87 12.63Q40.17 12.45 40.61 12.20Q41.04 11.95 41.52 11.72Q42 11.48 42.52 11.33Q43.03 11.18 43.50 11.18L43.50 11.18Q43.71 11.18 44.05 11.19Q44.39 11.20 44.79 11.30Q45.19 11.39 45.61 11.58Q46.03 11.77 46.38 12.12L46.38 12.12Q47.27 13.05 47.27 14.65L47.27 14.65Q47.27 16.03 47.24 16.72Q47.20 17.41 47.18 17.86L47.18 17.86Q47.16 18.12 47.16 18.34Q47.16 18.56 47.16 18.87L47.16 18.87Q47.16 19.22 47.20 19.52Q47.25 19.83 47.30 20.16L47.30 20.16Q47.37 20.48 47.43 20.85Q47.48 21.21 47.48 21.61ZM51.05 10.66L51.05 10.66Q50.65 10.66 50.38 10.39Q50.11 10.13 50.11 9.73L50.11 9.73Q50.11 9.33 50.38 9.07Q50.65 8.81 51.05 8.81L51.05 8.81Q51.42 8.81 51.69 9.07Q51.96 9.33 51.96 9.73L51.96 9.73Q51.96 10.13 51.69 10.39Q51.42 10.66 51.05 10.66ZM51.26 11.65L51.35 11.65Q51.61 11.65 51.79 11.80Q51.96 11.95 52.01 12.19L52.01 12.19Q52.01 12.26 52.11 12.91Q52.22 13.57 52.36 14.51Q52.50 15.45 52.63 16.51Q52.76 17.58 52.80 18.42L52.80 18.42Q52.85 19.24 52.97 20.34Q53.09 21.45 53.23 22.44Q53.37 23.44 53.47 24.15Q53.58 24.87 53.58 24.91L53.58 24.91Q53.58 25.17 53.41 25.35Q53.25 25.52 52.92 25.57L52.92 25.57Q52.66 25.57 52.49 25.42Q52.31 25.27 52.27 25.01L52.27 25.01Q52.27 24.94 52.16 24.23Q52.05 23.53 51.91 22.54Q51.77 21.54 51.66 20.44Q51.54 19.34 51.49 18.49L51.49 18.49Q51.45 17.67 51.32 16.62Q51.19 15.56 51.06 14.63Q50.93 13.69 50.82 13.02Q50.72 12.35 50.72 12.30L50.72 12.30Q50.72 12.07 50.86 11.88Q51 11.70 51.26 11.65L51.26 11.65ZM67.71 21.87L67.71 21.87Q67.71 22.20 67.79 22.55Q67.88 22.90 67.99 23.21Q68.11 23.53 68.23 23.79Q68.34 24.05 68.41 24.19L68.41 24.19Q68.48 24.33 68.48 24.52L68.48 24.52Q68.48 24.89 68.16 25.08L68.16 25.08Q68.06 25.13 67.99 25.15Q67.92 25.17 67.83 25.17L67.83 25.17Q67.45 25.17 67.27 24.82L67.27 24.82Q67.24 24.80 67.10 24.53Q66.96 24.26 66.81 23.84Q66.66 23.41 66.53 22.90Q66.40 22.38 66.40 21.87L66.40 21.87Q66.40 21.75 66.39 21.60Q66.38 21.45 66.35 21.26L66.35 21.26Q66.33 20.93 66.30 20.54Q66.28 20.16 66.28 19.62L66.28 19.62Q66.28 19.27 66.23 18.88Q66.19 18.49 66.14 18.02L66.14 18.02Q66.07 17.44 66.01 16.77Q65.95 16.10 65.95 15.35L65.95 15.35Q65.95 14.88 65.75 14.33Q65.55 13.78 65.18 13.31Q64.80 12.84 64.25 12.54Q63.70 12.23 62.98 12.23L62.98 12.23Q62.06 12.23 61.35 12.57Q60.63 12.91 60.12 13.43Q59.60 13.95 59.24 14.54Q58.88 15.14 58.66 15.67Q58.45 16.20 58.35 16.57Q58.24 16.95 58.24 16.99L58.24 16.99Q58.17 17.20 58.05 17.32L58.05 17.32L58.05 17.74Q58.05 18.30 58.22 19.03Q58.38 19.76 58.59 20.58L58.59 20.58Q58.85 21.63 59.10 22.78Q59.34 23.93 59.34 25.13L59.34 25.13Q59.34 25.41 59.16 25.59Q58.97 25.78 58.69 25.78L58.69 25.78Q58.43 25.78 58.23 25.59Q58.03 25.41 58.03 25.13L58.03 25.13Q58.03 24.05 57.81 22.97Q57.59 21.89 57.33 20.91L57.33 20.91Q57.09 20.04 56.92 19.23Q56.74 18.42 56.74 17.74L56.74 17.74Q56.74 17.06 56.65 16.03Q56.55 15 56.43 14.03Q56.30 13.05 56.19 12.34Q56.09 11.63 56.09 11.58L56.09 11.58Q56.09 11.34 56.25 11.16Q56.41 10.97 56.74 10.92L56.74 10.92Q57 10.92 57.18 11.07Q57.35 11.23 57.40 11.48L57.40 11.48Q57.40 11.53 57.45 11.78Q57.49 12.02 57.54 12.43Q57.59 12.84 57.66 13.36Q57.73 13.88 57.80 14.44L57.80 14.44Q58.15 13.78 58.63 13.15Q59.11 12.52 59.75 12.02Q60.40 11.53 61.20 11.23Q61.99 10.92 62.98 10.92L62.98 10.92Q63.94 10.92 64.72 11.31Q65.51 11.70 66.07 12.33Q66.63 12.96 66.95 13.76Q67.27 14.55 67.27 15.35L67.27 15.35Q67.27 16.05 67.32 16.69Q67.38 17.32 67.45 17.86L67.45 17.86Q67.50 18.33 67.55 18.77Q67.59 19.22 67.59 19.62L67.59 19.62Q67.59 20.55 67.66 21.12L67.66 21.12Q67.69 21.33 67.70 21.50Q67.71 21.68 67.71 21.87ZM78.89 21.19L78.89 21.19Q78.96 20.98 79.20 20.86L79.20 20.86Q79.03 19.24 78.93 17.86Q78.82 16.48 78.82 15.61L78.82 15.61L78.82 15.33Q78.59 15.21 78.49 15.02L78.49 15.02Q78 14.11 77.52 13.71Q77.04 13.31 76.90 13.29L76.90 13.29Q76.50 13.29 76.18 13.34Q75.87 13.38 75.75 13.41L75.75 13.41Q75.45 13.41 75.26 13.17L75.26 13.17Q74.67 13.41 74.03 14.23Q73.38 15.05 72.84 16.14Q72.30 17.23 71.95 18.46Q71.60 19.69 71.60 20.72L71.60 20.72Q71.60 21.82 71.98 22.57Q72.35 23.32 72.91 23.80Q73.48 24.28 74.12 24.49Q74.77 24.70 75.30 24.70L75.30 24.70Q75.66 24.70 76.14 24.46Q76.62 24.21 77.12 23.75Q77.63 23.30 78.09 22.65Q78.56 22.01 78.89 21.19ZM80.13 15.61L80.13 15.61Q80.13 16.15 80.18 16.96Q80.23 17.77 80.31 18.71Q80.39 19.66 80.48 20.73Q80.58 21.80 80.70 22.88L80.70 22.88Q80.79 23.93 80.89 24.93Q81 25.92 81.07 26.80Q81.14 27.68 81.19 28.41Q81.23 29.13 81.23 29.63L81.23 29.63Q81.23 30.47 80.91 31.30Q80.58 32.13 79.95 32.79Q79.31 33.45 78.39 33.86Q77.46 34.27 76.24 34.27L76.24 34.27Q72.77 34.27 71.27 30.47L71.27 30.47Q71.23 30.38 71.23 30.21L71.23 30.21Q71.23 29.79 71.63 29.60L71.63 29.60Q71.70 29.58 71.75 29.57Q71.81 29.55 71.88 29.55L71.88 29.55Q72.30 29.55 72.49 30L72.49 30Q72.61 30.30 72.86 30.81Q73.10 31.31 73.52 31.78Q73.95 32.25 74.61 32.60Q75.28 32.95 76.24 32.95L76.24 32.95Q77.25 32.95 77.95 32.63Q78.66 32.30 79.09 31.79Q79.52 31.29 79.72 30.70Q79.92 30.12 79.92 29.63L79.92 29.63Q79.92 29.16 79.88 28.44Q79.83 27.73 79.76 26.86Q79.69 25.99 79.59 25.02Q79.50 24.05 79.41 23.06L79.41 23.06Q78.96 23.77 78.43 24.30Q77.91 24.84 77.36 25.23Q76.80 25.62 76.28 25.82Q75.75 26.02 75.30 26.02L75.30 26.02Q74.39 26.02 73.49 25.68Q72.59 25.34 71.88 24.67Q71.18 24 70.73 23.00Q70.29 22.01 70.29 20.72L70.29 20.72Q70.29 19.90 70.50 18.91Q70.71 17.93 71.07 16.95Q71.44 15.96 71.94 15.02Q72.45 14.09 73.03 13.37Q73.62 12.66 74.27 12.22Q74.93 11.79 75.61 11.79L75.61 11.79Q76.10 11.79 76.43 12L76.43 12Q76.55 11.98 76.66 11.98Q76.78 11.98 76.92 11.98L76.92 11.98Q77.34 11.98 77.86 12.30Q78.38 12.63 78.84 13.22L78.84 13.22Q78.89 12.94 79.00 12.70Q79.10 12.47 79.48 12.45L79.48 12.45L80.09 12.40L80.18 13.01Q80.18 13.05 80.18 13.09Q80.18 13.13 80.16 13.29L80.16 13.29Q80.16 13.43 80.14 13.92Q80.13 14.41 80.13 15.61ZM98.55 13.03L98.55 13.03Q99.68 13.34 100.57 14.03Q101.46 14.72 102.07 15.60Q102.68 16.48 103.01 17.43Q103.34 18.38 103.34 19.20L103.34 19.20L103.31 19.55Q103.29 20.18 103.22 20.89Q103.15 21.61 102.80 22.30Q102.45 22.99 101.68 23.59Q100.92 24.19 99.56 24.56L99.56 24.56Q98.88 24.77 98.33 24.86Q97.78 24.94 97.27 24.94L97.27 24.94Q96.52 24.94 95.78 24.77Q95.04 24.61 93.98 24.33L93.98 24.33Q93.02 24.09 92.34 23.57Q91.66 23.04 91.22 22.51Q90.77 21.98 90.56 21.57Q90.35 21.16 90.33 21.12L90.33 21.12Q90.26 21.02 90.26 20.86L90.26 20.86Q90.26 20.46 90.66 20.25L90.66 20.25Q90.84 20.20 90.91 20.20L90.91 20.20Q91.10 20.20 91.28 20.31Q91.45 20.41 91.52 20.60L91.52 20.60L91.69 20.91Q91.85 21.23 92.20 21.64Q92.55 22.05 93.09 22.46Q93.63 22.88 94.38 23.09L94.38 23.09Q95.37 23.34 96.01 23.48Q96.66 23.63 97.27 23.63L97.27 23.63Q98.06 23.63 99.21 23.32L99.21 23.32Q100.22 23.02 100.78 22.62Q101.34 22.22 101.60 21.73Q101.86 21.23 101.92 20.67Q101.98 20.11 102 19.50L102 19.50L102.02 19.08Q102.02 18.59 101.78 17.86Q101.53 17.13 101.06 16.43Q100.59 15.73 99.88 15.14Q99.16 14.55 98.23 14.32L98.23 14.32Q97.59 14.13 96.88 14.06Q96.16 13.99 95.46 13.92L95.46 13.92Q94.64 13.85 93.86 13.76Q93.07 13.66 92.44 13.42Q91.80 13.17 91.39 12.74Q90.98 12.30 90.91 11.55L90.91 11.55Q90.91 11.46 90.90 11.39Q90.89 11.32 90.89 11.25L90.89 11.25Q90.89 10.34 91.25 9.69Q91.62 9.05 92.14 8.60Q92.67 8.16 93.25 7.88Q93.82 7.59 94.24 7.41L94.24 7.41Q94.78 7.15 95.54 7.04Q96.30 6.94 97.20 6.94L97.20 6.94Q97.99 6.94 98.80 7.03Q99.61 7.13 100.38 7.31L100.38 7.31Q100.90 7.43 100.88 8.09L100.88 8.09Q100.83 8.32 100.62 8.46Q100.41 8.60 100.08 8.58L100.08 8.58Q99.40 8.39 98.64 8.32Q97.88 8.25 97.17 8.25L97.17 8.25Q96.42 8.25 95.80 8.33Q95.18 8.41 94.76 8.60L94.76 8.60Q94.27 8.81 93.80 9.06Q93.33 9.30 92.98 9.63Q92.63 9.96 92.43 10.41Q92.23 10.85 92.23 11.46L92.23 11.46Q92.27 12.07 93.15 12.28Q94.03 12.49 95.55 12.61L95.55 12.61Q96.30 12.68 97.07 12.76Q97.83 12.84 98.55 13.03ZM110.60 23.86L110.60 23.86Q111.05 23.86 111.74 23.43Q112.43 22.99 113.09 22.21Q113.74 21.42 114.21 20.32Q114.68 19.22 114.68 17.86L114.68 17.86Q114.68 16.55 114.36 15.55Q114.05 14.55 113.64 13.86Q113.23 13.17 112.82 12.82Q112.41 12.47 112.22 12.42L112.22 12.42Q111.82 12.42 111.50 12.48Q111.19 12.54 111.07 12.56L111.07 12.56Q110.79 12.56 110.55 12.33L110.55 12.33Q109.97 12.56 109.34 13.38Q108.70 14.20 108.16 15.29Q107.63 16.38 107.27 17.61Q106.92 18.84 106.92 19.88L106.92 19.88Q106.92 20.95 107.30 21.71Q107.67 22.48 108.23 22.95Q108.80 23.41 109.43 23.64Q110.06 23.86 110.60 23.86ZM112.24 11.11L112.24 11.11Q112.73 11.11 113.38 11.59Q114.02 12.07 114.60 12.95Q115.17 13.83 115.58 15.07Q115.99 16.31 115.99 17.86L115.99 17.86Q115.99 19.43 115.45 20.77Q114.91 22.10 114.11 23.09Q113.30 24.07 112.35 24.62Q111.40 25.17 110.60 25.17L110.60 25.17Q109.69 25.17 108.80 24.82Q107.91 24.47 107.20 23.80Q106.50 23.13 106.05 22.15Q105.61 21.16 105.61 19.88L105.61 19.88Q105.61 19.05 105.82 18.07Q106.03 17.09 106.39 16.09Q106.76 15.09 107.26 14.17Q107.77 13.24 108.35 12.52Q108.94 11.79 109.59 11.36Q110.25 10.92 110.93 10.92L110.93 10.92Q111.19 10.92 111.39 10.98Q111.59 11.04 111.75 11.13L111.75 11.13Q111.87 11.13 111.98 11.12Q112.10 11.11 112.24 11.11ZM122.79 23.86L122.79 23.86Q123.23 23.86 123.93 23.43Q124.62 22.99 125.27 22.21Q125.93 21.42 126.40 20.32Q126.87 19.22 126.87 17.86L126.87 17.86Q126.87 16.55 126.55 15.55Q126.23 14.55 125.82 13.86Q125.41 13.17 125.00 12.82Q124.59 12.47 124.41 12.42L124.41 12.42Q124.01 12.42 123.69 12.48Q123.38 12.54 123.26 12.56L123.26 12.56Q122.98 12.56 122.74 12.33L122.74 12.33Q122.16 12.56 121.52 13.38Q120.89 14.20 120.35 15.29Q119.81 16.38 119.46 17.61Q119.11 18.84 119.11 19.88L119.11 19.88Q119.11 20.95 119.48 21.71Q119.86 22.48 120.42 22.95Q120.98 23.41 121.62 23.64Q122.25 23.86 122.79 23.86ZM124.43 11.11L124.43 11.11Q124.92 11.11 125.57 11.59Q126.21 12.07 126.79 12.95Q127.36 13.83 127.77 15.07Q128.18 16.31 128.18 17.86L128.18 17.86Q128.18 19.43 127.64 20.77Q127.10 22.10 126.29 23.09Q125.48 24.07 124.54 24.62Q123.59 25.17 122.79 25.17L122.79 25.17Q121.88 25.17 120.98 24.82Q120.09 24.47 119.39 23.80Q118.69 23.13 118.24 22.15Q117.80 21.16 117.80 19.88L117.80 19.88Q117.80 19.05 118.01 18.07Q118.22 17.09 118.58 16.09Q118.95 15.09 119.45 14.17Q119.95 13.24 120.54 12.52Q121.13 11.79 121.78 11.36Q122.44 10.92 123.12 10.92L123.12 10.92Q123.38 10.92 123.57 10.98Q123.77 11.04 123.94 11.13L123.94 11.13Q124.05 11.13 124.17 11.12Q124.29 11.11 124.43 11.11ZM141.84 21.87L141.84 21.87Q141.84 22.20 141.93 22.55Q142.01 22.90 142.13 23.21Q142.24 23.53 142.36 23.79Q142.48 24.05 142.55 24.19L142.55 24.19Q142.62 24.33 142.62 24.52L142.62 24.52Q142.62 24.89 142.29 25.08L142.29 25.08Q142.20 25.13 142.13 25.15Q142.05 25.17 141.96 25.17L141.96 25.17Q141.59 25.17 141.40 24.82L141.40 24.82Q141.38 24.80 141.23 24.53Q141.09 24.26 140.94 23.84Q140.79 23.41 140.66 22.90Q140.53 22.38 140.53 21.87L140.53 21.87Q140.53 21.75 140.52 21.60Q140.51 21.45 140.48 21.26L140.48 21.26Q140.46 20.93 140.44 20.54Q140.41 20.16 140.41 19.62L140.41 19.62Q140.41 19.27 140.37 18.88Q140.32 18.49 140.27 18.02L140.27 18.02Q140.20 17.44 140.14 16.77Q140.09 16.10 140.09 15.35L140.09 15.35Q140.09 14.88 139.89 14.33Q139.69 13.78 139.31 13.31Q138.94 12.84 138.39 12.54Q137.84 12.23 137.11 12.23L137.11 12.23Q136.20 12.23 135.48 12.57Q134.77 12.91 134.25 13.43Q133.73 13.95 133.37 14.54Q133.01 15.14 132.80 15.67Q132.59 16.20 132.48 16.57Q132.38 16.95 132.38 16.99L132.38 16.99Q132.30 17.20 132.19 17.32L132.19 17.32L132.19 17.74Q132.19 18.30 132.35 19.03Q132.52 19.76 132.73 20.58L132.73 20.58Q132.98 21.63 133.23 22.78Q133.48 23.93 133.48 25.13L133.48 25.13Q133.48 25.41 133.29 25.59Q133.10 25.78 132.82 25.78L132.82 25.78Q132.56 25.78 132.36 25.59Q132.16 25.41 132.16 25.13L132.16 25.13Q132.16 24.05 131.94 22.97Q131.72 21.89 131.46 20.91L131.46 20.91Q131.23 20.04 131.05 19.23Q130.88 18.42 130.88 17.74L130.88 17.74Q130.88 17.06 130.78 16.03Q130.69 15 130.56 14.03Q130.43 13.05 130.32 12.34Q130.22 11.63 130.22 11.58L130.22 11.58Q130.22 11.34 130.38 11.16Q130.55 10.97 130.88 10.92L130.88 10.92Q131.13 10.92 131.31 11.07Q131.48 11.23 131.53 11.48L131.53 11.48Q131.53 11.53 131.58 11.78Q131.63 12.02 131.67 12.43Q131.72 12.84 131.79 13.36Q131.86 13.88 131.93 14.44L131.93 14.44Q132.28 13.78 132.76 13.15Q133.24 12.52 133.89 12.02Q134.53 11.53 135.33 11.23Q136.13 10.92 137.11 10.92L137.11 10.92Q138.07 10.92 138.86 11.31Q139.64 11.70 140.20 12.33Q140.77 12.96 141.08 13.76Q141.40 14.55 141.40 15.35L141.40 15.35Q141.40 16.05 141.46 16.69Q141.52 17.32 141.59 17.86L141.59 17.86Q141.63 18.33 141.68 18.77Q141.73 19.22 141.73 19.62L141.73 19.62Q141.73 20.55 141.80 21.12L141.80 21.12Q141.82 21.33 141.83 21.50Q141.84 21.68 141.84 21.87Z"/></svg>