<svg xmlns="http://www.w3.org/2000/svg" xmlns:xlink="http://www.w3.org/1999/xlink" width="332.2560000000001" height="38.160000000000004"><path fill="black" d="M13.08 27.77L13.08 27.77Q11.78 27.77 10.75 27.17Q9.72 26.57 9.13 25.52Q8.54 24.48 8.54 23.09L8.54 23.09L8.54 14.74Q8.54 14.09 8.23 13.56Q7.92 13.03 7.39 12.72Q6.86 12.41 6.24 12.41L6.24 12.41Q5.62 12.41 5.10 12.72Q4.58 13.03 4.28 13.56Q3.98 14.09 3.98 14.74L3.98 14.74L3.98 27.48L1.68 27.48L1.68 15.05Q1.68 13.73 2.26 12.67Q2.83 11.62 3.86 11.00Q4.90 10.39 6.24 10.39L6.24 10.39Q7.61 10.39 8.64 11.00Q9.67 11.62 10.25 12.67Q10.82 13.73 10.82 15.05L10.82 15.05L10.82 23.40Q10.82 24.07 11.14 24.59Q11.45 25.10 11.96 25.42Q12.48 25.73 13.08 25.73L13.08 25.73Q13.68 25.73 14.18 25.42Q14.69 25.10 14.99 24.59Q15.29 24.07 15.29 23.40L15.29 23.40L15.29 15.05Q15.29 13.73 15.88 12.67Q16.46 11.62 17.50 11.00Q18.53 10.39 19.90 10.39L19.90 10.39Q21.24 10.39 22.27 11.00Q23.30 11.62 23.88 12.67Q24.46 13.73 24.46 15.05L24.46 15.05L24.46 27.48L22.15 27.48L22.15 14.74Q22.15 14.09 21.85 13.56Q21.55 13.03 21.04 12.72Q20.52 12.41 19.90 12.41L19.90 12.41Q19.25 12.41 18.73 12.72Q18.22 13.03 17.90 13.56Q17.59 14.09 17.59 14.74L17.59 14.74L17.59 23.09Q17.59 24.48 17.00 25.52Q16.42 26.57 15.40 27.17Q14.38 27.77 13.08 27.77ZM33.62 27.77L33.62 27.77Q31.97 27.77 30.66 27.08Q29.35 26.40 28.62 25.18Q27.89 23.95 27.89 22.32L27.89 22.32L27.89 15.24L30.12 15.24L30.12 22.30Q30.12 23.40 30.60 24.20Q31.08 25.01 31.88 25.44Q32.69 25.87 33.60 25.87L33.60 25.87Q34.54 25.87 35.34 25.44Q36.14 25.01 36.64 24.20Q37.13 23.40 37.13 22.30L37.13 22.30L37.13 15.24L39.36 15.24L39.36 22.32Q39.36 23.95 38.62 25.18Q37.87 26.40 36.58 27.08Q35.28 27.77 33.62 27.77ZM48.82 27.48L42.70 27.48L42.70 25.58L48.55 25.58Q49.13 25.58 49.55 25.33Q49.97 25.08 50.18 24.67Q50.40 24.26 50.40 23.81L50.40 23.81Q50.40 23.38 50.21 23.00Q50.02 22.63 49.62 22.40Q49.22 22.18 48.67 22.18L48.67 22.18L46.20 22.18Q45.02 22.18 44.15 21.78Q43.27 21.38 42.78 20.62Q42.29 19.85 42.29 18.74L42.29 18.74Q42.29 17.81 42.74 17.02Q43.20 16.22 44.02 15.73Q44.83 15.24 45.89 15.24L45.89 15.24L51.53 15.24L51.53 17.14L46.10 17.14Q45.36 17.14 44.93 17.59Q44.50 18.05 44.50 18.67L44.50 18.67Q44.50 19.27 44.94 19.72Q45.38 20.16 46.20 20.16L46.20 20.16L48.55 20.16Q49.87 20.16 50.77 20.58Q51.67 21 52.14 21.79Q52.61 22.58 52.61 23.74L52.61 23.74Q52.61 24.72 52.13 25.57Q51.65 26.42 50.80 26.95Q49.94 27.48 48.82 27.48L48.82 27.48ZM64.87 27.48L61.73 27.48Q59.71 27.48 58.15 26.72Q56.59 25.97 55.72 24.59Q54.84 23.21 54.84 21.36L54.84 21.36Q54.84 19.54 55.58 18.08Q56.33 16.63 57.65 15.79Q58.97 14.95 60.72 14.95L60.72 14.95Q62.62 14.95 63.88 15.77Q65.14 16.58 65.76 17.96Q66.38 19.34 66.38 21.05L66.38 21.05Q66.38 21.31 66.37 21.60Q66.36 21.89 66.31 22.10L66.31 22.10L57.19 22.10Q57.31 23.23 57.94 24.01Q58.56 24.79 59.53 25.19Q60.50 25.58 61.68 25.58L61.68 25.58L64.87 25.58L64.87 27.48ZM57.17 20.54L57.17 20.54L64.15 20.54Q64.15 20.09 64.06 19.57Q63.96 19.06 63.72 18.56Q63.48 18.07 63.08 17.68Q62.69 17.28 62.10 17.04Q61.51 16.80 60.72 16.80L60.72 16.80Q59.88 16.80 59.24 17.12Q58.61 17.45 58.15 17.99Q57.70 18.53 57.46 19.20Q57.22 19.87 57.17 20.54ZM74.95 27.77L74.95 27.77Q73.08 27.77 71.64 26.92Q70.20 26.06 69.36 24.61Q68.52 23.16 68.52 21.36L68.52 21.36Q68.52 19.56 69.36 18.11Q70.20 16.66 71.64 15.80Q73.08 14.95 74.95 14.95L74.95 14.95Q76.82 14.95 78.28 15.80Q79.73 16.66 80.56 18.10Q81.38 19.54 81.38 21.36L81.38 21.36Q81.38 23.16 80.56 24.61Q79.73 26.06 78.28 26.92Q76.82 27.77 74.95 27.77ZM74.95 25.87L74.95 25.87Q76.22 25.87 77.16 25.27Q78.10 24.67 78.62 23.65Q79.15 22.63 79.15 21.36L79.15 21.36Q79.15 20.09 78.62 19.07Q78.10 18.05 77.16 17.45Q76.22 16.85 74.95 16.85L74.95 16.85Q73.70 16.85 72.76 17.45Q71.81 18.05 71.28 19.07Q70.75 20.09 70.75 21.36L70.75 21.36Q70.75 22.63 71.28 23.65Q71.81 24.67 72.76 25.27Q73.70 25.87 74.95 25.87ZM95.54 27.77L95.54 27.77Q94.25 27.77 93.22 27.17Q92.18 26.57 91.60 25.52Q91.01 24.48 91.01 23.09L91.01 23.09L91.01 14.74Q91.01 14.09 90.70 13.56Q90.38 13.03 89.86 12.72Q89.33 12.41 88.70 12.41L88.70 12.41Q88.08 12.41 87.56 12.72Q87.05 13.03 86.75 13.56Q86.45 14.09 86.45 14.74L86.45 14.74L86.45 27.48L84.14 27.48L84.14 15.05Q84.14 13.73 84.72 12.67Q85.30 11.62 86.33 11.00Q87.36 10.39 88.70 10.39L88.70 10.39Q90.07 10.39 91.10 11.00Q92.14 11.62 92.71 12.67Q93.29 13.73 93.29 15.05L93.29 15.05L93.29 23.40Q93.29 24.07 93.60 24.59Q93.91 25.10 94.43 25.42Q94.94 25.73 95.54 25.73L95.54 25.73Q96.14 25.73 96.65 25.42Q97.15 25.10 97.45 24.59Q97.75 24.07 97.75 23.40L97.75 23.40L97.75 15.05Q97.75 13.73 98.34 12.67Q98.93 11.62 99.96 11.00Q100.99 10.39 102.36 10.39L102.36 10.39Q103.70 10.39 104.74 11.00Q105.77 11.62 106.34 12.67Q106.92 13.73 106.92 15.05L106.92 15.05L106.92 27.48L104.62 27.48L104.62 14.74Q104.62 14.09 104.32 13.56Q104.02 13.03 103.50 12.72Q102.98 12.41 102.36 12.41L102.36 12.41Q101.71 12.41 101.20 12.72Q100.68 13.03 100.37 13.56Q100.06 14.09 100.06 14.74L100.06 14.74L100.06 23.09Q100.06 24.48 99.47 25.52Q98.88 26.57 97.86 27.17Q96.84 27.77 95.54 27.77ZM116.11 27.77L116.11 27.77Q114.24 27.77 112.80 26.92Q111.36 26.06 110.52 24.61Q109.68 23.16 109.68 21.36L109.68 21.36Q109.68 19.56 110.52 18.11Q111.36 16.66 112.80 15.80Q114.24 14.95 116.11 14.95L116.11 14.95Q117.98 14.95 119.44 15.80Q120.89 16.66 121.72 18.10Q122.54 19.54 122.54 21.36L122.54 21.36Q122.54 23.16 121.72 24.61Q120.89 26.06 119.44 26.92Q117.98 27.77 116.11 27.77ZM116.11 25.87L116.11 25.87Q117.38 25.87 118.32 25.27Q119.26 24.67 119.78 23.65Q120.31 22.63 120.31 21.36L120.31 21.36Q120.31 20.09 119.78 19.07Q119.26 18.05 118.32 17.45Q117.38 16.85 116.11 16.85L116.11 16.85Q114.86 16.85 113.92 17.45Q112.97 18.05 112.44 19.07Q111.91 20.09 111.91 21.36L111.91 21.36Q111.91 22.63 112.44 23.65Q112.97 24.67 113.92 25.27Q114.86 25.87 116.11 25.87ZM131.02 27.77L131.02 27.77Q129.62 27.77 128.47 27.32Q127.32 26.88 126.48 26.02Q125.64 25.15 125.17 23.94Q124.70 22.73 124.70 21.22L124.70 21.22Q124.70 19.30 125.48 17.89Q126.26 16.49 127.62 15.72Q128.98 14.95 130.66 14.95L130.66 14.95Q131.59 14.95 132.44 15.26Q133.30 15.58 133.97 16.13Q134.64 16.68 135.02 17.42L135.02 17.42L135.07 17.42L135.07 9.96L137.28 9.96L137.28 21.29Q137.28 23.33 136.45 24.78Q135.62 26.23 134.22 27Q132.82 27.77 131.02 27.77ZM131.02 25.87L131.02 25.87Q132.14 25.87 133.06 25.32Q133.97 24.77 134.51 23.76Q135.05 22.75 135.05 21.38L135.05 21.38Q135.05 19.99 134.51 18.97Q133.97 17.95 133.06 17.40Q132.14 16.85 130.99 16.85L130.99 16.85Q129.86 16.85 128.94 17.42Q128.02 18 127.48 19.01Q126.94 20.02 126.94 21.36L126.94 21.36Q126.94 22.75 127.49 23.76Q128.04 24.77 128.96 25.32Q129.89 25.87 131.02 25.87ZM150.07 27.48L146.93 27.48Q144.91 27.48 143.35 26.72Q141.79 25.97 140.92 24.59Q140.04 23.21 140.04 21.36L140.04 21.36Q140.04 19.54 140.78 18.08Q141.53 16.63 142.85 15.79Q144.17 14.95 145.92 14.95L145.92 14.95Q147.82 14.95 149.08 15.77Q150.34 16.58 150.96 17.96Q151.58 19.34 151.58 21.05L151.58 21.05Q151.58 21.31 151.57 21.60Q151.56 21.89 151.51 22.10L151.51 22.10L142.39 22.10Q142.51 23.23 143.14 24.01Q143.76 24.79 144.73 25.19Q145.70 25.58 146.88 25.58L146.88 25.58L150.07 25.58L150.07 27.48ZM142.37 20.54L142.37 20.54L149.35 20.54Q149.35 20.09 149.26 19.57Q149.16 19.06 148.92 18.56Q148.68 18.07 148.28 17.68Q147.89 17.28 147.30 17.04Q146.71 16.80 145.92 16.80L145.92 16.80Q145.08 16.80 144.44 17.12Q143.81 17.45 143.35 17.99Q142.90 18.53 142.66 19.20Q142.42 19.87 142.37 20.54ZM156.53 27.48L154.32 27.48L154.32 18.72Q154.32 17.09 155.24 16.16Q156.17 15.24 157.80 15.24L157.80 15.24L160.32 15.24L160.32 17.14L158.21 17.14Q157.42 17.14 156.97 17.59Q156.53 18.05 156.53 18.86L156.53 18.86L156.53 27.48ZM164.57 27.48L162.36 27.48L162.36 20.40Q162.36 18.77 163.09 17.54Q163.82 16.32 165.12 15.64Q166.42 14.95 168.07 14.95L168.07 14.95Q169.75 14.95 171.04 15.64Q172.32 16.32 173.05 17.54Q173.78 18.77 173.78 20.40L173.78 20.40L173.78 27.48L171.58 27.48L171.58 20.42Q171.58 19.32 171.08 18.52Q170.59 17.71 169.79 17.28Q168.98 16.85 168.07 16.85L168.07 16.85Q167.16 16.85 166.36 17.28Q165.55 17.71 165.06 18.52Q164.57 19.32 164.57 20.42L164.57 20.42L164.57 27.48ZM183.05 27.77L183.05 27.77Q181.18 27.77 179.74 26.92Q178.30 26.06 177.46 24.61Q176.62 23.16 176.62 21.36L176.62 21.36Q176.62 19.56 177.46 18.11Q178.30 16.66 179.74 15.80Q181.18 14.95 183.05 14.95L183.05 14.95Q184.92 14.95 186.37 15.80Q187.82 16.66 188.65 18.10Q189.48 19.54 189.48 21.36L189.48 21.36Q189.48 23.16 188.65 24.61Q187.82 26.06 186.37 26.92Q184.92 27.77 183.05 27.77ZM183.05 25.87L183.05 25.87Q184.32 25.87 185.26 25.27Q186.19 24.67 186.72 23.65Q187.25 22.63 187.25 21.36L187.25 21.36Q187.25 20.09 186.72 19.07Q186.19 18.05 185.26 17.45Q184.32 16.85 183.05 16.85L183.05 16.85Q181.80 16.85 180.85 17.45Q179.90 18.05 179.38 19.07Q178.85 20.09 178.85 21.36L178.85 21.36Q178.85 22.63 179.38 23.65Q179.90 24.67 180.85 25.27Q181.80 25.87 183.05 25.87ZM208.90 27.48L206.62 27.48L206.62 23.66L200.98 23.66Q200.14 23.66 199.48 23.27Q198.82 22.87 198.43 22.22Q198.05 21.58 198.05 20.81L198.05 20.81Q198.05 20.38 198.17 19.96Q198.29 19.54 198.46 19.18L198.46 19.18L203.16 10.68L205.75 10.68L200.57 19.94Q200.45 20.16 200.40 20.33Q200.35 20.50 200.35 20.69L200.35 20.69Q200.35 21.07 200.58 21.35Q200.81 21.62 201.26 21.62L201.26 21.62L206.62 21.62L206.62 15.55L208.90 15.55L208.90 21.62L211.20 21.62L211.20 23.66L208.90 23.66L208.90 27.48ZM220.15 27.79L220.15 27.79Q218.40 27.79 217.02 27.02Q215.64 26.26 214.84 24.94Q214.03 23.62 214.03 21.98L214.03 21.98L214.03 16.18Q214.03 14.54 214.84 13.22Q215.64 11.90 217.02 11.15Q218.40 10.39 220.15 10.39L220.15 10.39Q221.88 10.39 223.25 11.16Q224.62 11.93 225.42 13.24Q226.22 14.54 226.22 16.18L226.22 16.18L226.22 21.98Q226.22 23.62 225.42 24.94Q224.62 26.26 223.25 27.02Q221.88 27.79 220.15 27.79ZM220.15 25.75L220.15 25.75Q221.18 25.75 222.04 25.27Q222.89 24.79 223.40 23.99Q223.92 23.18 223.92 22.20L223.92 22.20L223.92 15.96Q223.92 14.98 223.40 14.17Q222.89 13.37 222.04 12.89Q221.18 12.41 220.15 12.41L220.15 12.41Q219.12 12.41 218.24 12.89Q217.37 13.37 216.85 14.17Q216.34 14.98 216.34 15.96L216.34 15.96L216.34 22.20Q216.34 23.18 216.85 23.99Q217.37 24.79 218.23 25.27Q219.10 25.75 220.15 25.75ZM235.70 27.79L235.70 27.79Q233.95 27.79 232.57 27.02Q231.19 26.26 230.39 24.94Q229.58 23.62 229.58 21.98L229.58 21.98L229.58 16.18Q229.58 14.54 230.39 13.22Q231.19 11.90 232.57 11.15Q233.95 10.39 235.70 10.39L235.70 10.39Q237.43 10.39 238.80 11.16Q240.17 11.93 240.97 13.24Q241.78 14.54 241.78 16.18L241.78 16.18L241.78 21.98Q241.78 23.62 240.97 24.94Q240.17 26.26 238.80 27.02Q237.43 27.79 235.70 27.79ZM235.70 25.75L235.70 25.75Q236.74 25.75 237.59 25.27Q238.44 24.79 238.96 23.99Q239.47 23.18 239.47 22.20L239.47 22.20L239.47 15.96Q239.47 14.98 238.96 14.17Q238.44 13.37 237.59 12.89Q236.74 12.41 235.70 12.41L235.70 12.41Q234.67 12.41 233.80 12.89Q232.92 13.37 232.40 14.17Q231.89 14.98 231.89 15.96L231.89 15.96L231.89 22.20Q231.89 23.18 232.40 23.99Q232.92 24.79 233.78 25.27Q234.65 25.75 235.70 25.75ZM253.78 27.48L251.57 27.48L251.57 20.40Q251.57 18.77 252.30 17.54Q253.03 16.32 254.33 15.64Q255.62 14.95 257.28 14.95L257.28 14.95Q258.96 14.95 260.24 15.64Q261.53 16.32 262.26 17.54Q262.99 18.77 262.99 20.40L262.99 20.40L262.99 27.48L260.78 27.48L260.78 20.42Q260.78 19.32 260.29 18.52Q259.80 17.71 259.00 17.28Q258.19 16.85 257.28 16.85L257.28 16.85Q256.37 16.85 255.56 17.28Q254.76 17.71 254.27 18.52Q253.78 19.32 253.78 20.42L253.78 20.42L253.78 27.48ZM272.26 27.77L272.26 27.77Q270.38 27.77 268.94 26.92Q267.50 26.06 266.66 24.61Q265.82 23.16 265.82 21.36L265.82 21.36Q265.82 19.56 266.66 18.11Q267.50 16.66 268.94 15.80Q270.38 14.95 272.26 14.95L272.26 14.95Q274.13 14.95 275.58 15.80Q277.03 16.66 277.86 18.10Q278.69 19.54 278.69 21.36L278.69 21.36Q278.69 23.16 277.86 24.61Q277.03 26.06 275.58 26.92Q274.13 27.77 272.26 27.77ZM272.26 25.87L272.26 25.87Q273.53 25.87 274.46 25.27Q275.40 24.67 275.93 23.65Q276.46 22.63 276.46 21.36L276.46 21.36Q276.46 20.09 275.93 19.07Q275.40 18.05 274.46 17.45Q273.53 16.85 272.26 16.85L272.26 16.85Q271.01 16.85 270.06 17.45Q269.11 18.05 268.58 19.07Q268.06 20.09 268.06 21.36L268.06 21.36Q268.06 22.63 268.58 23.65Q269.11 24.67 270.06 25.27Q271.01 25.87 272.26 25.87ZM283.66 27.48L281.45 27.48L281.45 18.72Q281.45 17.09 282.37 16.16Q283.30 15.24 284.93 15.24L284.93 15.24L287.45 15.24L287.45 17.14L285.34 17.14Q284.54 17.14 284.10 17.59Q283.66 18.05 283.66 18.86L283.66 18.86L283.66 27.48ZM291.70 27.48L289.49 27.48L289.49 20.11Q289.49 18.70 290.14 17.52Q290.78 16.34 292.01 15.65Q293.23 14.95 294.96 14.95L294.96 14.95Q295.80 14.95 296.64 15.18Q297.48 15.41 298.20 15.95Q298.92 16.49 299.35 17.40L299.35 17.40L299.38 17.40Q299.86 16.49 300.58 15.95Q301.30 15.41 302.14 15.18Q302.98 14.95 303.84 14.95L303.84 14.95Q305.54 14.95 306.77 15.65Q307.99 16.34 308.64 17.52Q309.29 18.70 309.29 20.11L309.29 20.11L309.29 27.48L307.08 27.48L307.08 20.11Q307.08 19.20 306.65 18.46Q306.22 17.71 305.48 17.28Q304.75 16.85 303.82 16.85L303.82 16.85Q302.90 16.85 302.14 17.29Q301.37 17.74 300.92 18.47Q300.48 19.20 300.48 20.11L300.48 20.11L300.48 27.48L298.27 27.48L298.27 20.11Q298.27 19.20 297.83 18.47Q297.38 17.74 296.63 17.29Q295.87 16.85 294.94 16.85L294.94 16.85Q294.02 16.85 293.29 17.28Q292.56 17.71 292.13 18.46Q291.70 19.20 291.70 20.11L291.70 20.11L291.70 27.48ZM317.88 27.77L317.88 27.77Q316.10 27.77 314.81 26.92Q313.51 26.06 312.82 24.60Q312.12 23.14 312.12 21.36L312.12 21.36Q312.12 19.56 312.89 18.11Q313.66 16.66 315.10 15.80Q316.54 14.95 318.55 14.95L318.55 14.95Q320.50 14.95 321.89 15.79Q323.28 16.63 324.04 18.07Q324.79 19.51 324.79 21.29L324.79 21.29L324.79 27.48L322.56 27.48L322.56 24.98L322.51 24.98Q322.15 25.68 321.54 26.32Q320.93 26.95 320.02 27.36Q319.10 27.77 317.88 27.77ZM318.46 25.87L318.46 25.87Q319.66 25.87 320.58 25.28Q321.50 24.70 322.02 23.65Q322.54 22.61 322.54 21.31L322.54 21.31Q322.54 20.04 322.04 19.03Q321.55 18.02 320.64 17.44Q319.73 16.85 318.50 16.85L318.50 16.85Q317.21 16.85 316.28 17.45Q315.36 18.05 314.87 19.07Q314.38 20.09 314.38 21.38L314.38 21.38Q314.38 22.63 314.86 23.65Q315.34 24.67 316.25 25.27Q317.16 25.87 318.46 25.87ZM330.50 27.48L328.30 27.48L328.30 9.96L330.50 9.96L330.50 27.48Z"/></svg>