<svg xmlns="http://www.w3.org/2000/svg" xmlns:xlink="http://www.w3.org/1999/xlink" width="306.24" height="38.160000000000004"><path fill="black" d="M12.38 27.77L12.38 27.77Q10.97 27.77 9.92 27.22Q8.88 26.66 8.30 25.69Q7.73 24.72 7.73 23.47L7.73 23.47Q7.73 23.21 7.76 22.87Q7.80 22.54 7.85 22.25L7.85 22.25L8.90 15.60Q8.93 15.46 8.94 15.30Q8.95 15.14 8.95 15L8.95 15Q8.95 14.52 8.63 14.20Q8.30 13.87 7.78 13.87L7.78 13.87Q7.37 13.87 7.02 14.04Q6.67 14.21 6.46 14.52Q6.24 14.83 6.19 15.26L6.19 15.26L4.27 27.48L0.34 27.48L2.21 15.48Q2.47 13.87 3.25 12.73Q4.03 11.59 5.29 10.99Q6.55 10.39 8.21 10.39L8.21 10.39Q9.65 10.39 10.69 10.96Q11.74 11.52 12.31 12.50Q12.89 13.49 12.89 14.74L12.89 14.74Q12.89 15.02 12.86 15.30Q12.84 15.58 12.79 15.84L12.79 15.84L11.71 22.56Q11.69 22.75 11.68 22.90Q11.66 23.04 11.66 23.16L11.66 23.16Q11.66 23.69 12 23.99Q12.34 24.29 12.84 24.29L12.84 24.29Q13.49 24.29 13.92 23.92Q14.35 23.54 14.42 22.90L14.42 22.90L15.60 15.48Q15.86 13.87 16.64 12.73Q17.42 11.59 18.68 10.99Q19.94 10.39 21.58 10.39L21.58 10.39Q23.04 10.39 24.08 10.96Q25.13 11.52 25.70 12.50Q26.28 13.49 26.28 14.74L26.28 14.74Q26.28 15 26.24 15.29Q26.21 15.58 26.16 15.82L26.16 15.82L24.34 27.48L20.40 27.48L22.27 15.55Q22.30 15.43 22.31 15.28Q22.32 15.12 22.32 15.02L22.32 15.02Q22.32 14.52 22.00 14.20Q21.67 13.87 21.17 13.87L21.17 13.87Q20.76 13.87 20.41 14.04Q20.06 14.21 19.85 14.51Q19.63 14.81 19.58 15.24L19.58 15.24L18.41 22.68Q18.17 24.31 17.35 25.45Q16.54 26.59 15.28 27.18Q14.02 27.77 12.38 27.77ZM37.44 15.17L41.14 15.17L40.03 22.39Q39.79 23.95 38.94 25.18Q38.09 26.40 36.67 27.08Q35.26 27.77 33.34 27.77L33.34 27.77Q31.66 27.77 30.41 27.13Q29.16 26.50 28.48 25.38Q27.79 24.26 27.79 22.87L27.79 22.87Q27.79 22.63 27.83 22.34Q27.86 22.06 27.89 21.82L27.89 21.82L28.94 15.17L32.66 15.17L31.61 21.96Q31.58 22.10 31.57 22.25Q31.56 22.39 31.56 22.49L31.56 22.49Q31.56 23.40 32.14 23.98Q32.71 24.55 33.67 24.55L33.67 24.55Q34.37 24.55 34.93 24.23Q35.50 23.90 35.88 23.34Q36.26 22.78 36.36 22.10L36.36 22.10L37.44 15.17ZM48.34 27.46L41.98 27.46L42.46 24.50L48.46 24.50Q48.77 24.50 48.98 24.40Q49.20 24.29 49.33 24.08Q49.46 23.88 49.46 23.64L49.46 23.64Q49.46 23.28 49.24 23.06Q49.01 22.85 48.60 22.85L48.60 22.85L46.70 22.85Q45.60 22.85 44.72 22.44Q43.85 22.03 43.36 21.25Q42.86 20.47 42.86 19.37L42.86 19.37Q42.86 18.24 43.43 17.28Q43.99 16.32 45.06 15.74Q46.13 15.17 47.59 15.17L47.59 15.17L53.33 15.17L52.85 18.12L47.57 18.12Q47.28 18.12 47.06 18.23Q46.85 18.34 46.74 18.52Q46.63 18.70 46.61 18.91L46.61 18.91Q46.61 19.27 46.81 19.46Q47.02 19.66 47.40 19.66L47.40 19.66L49.27 19.66Q50.50 19.66 51.35 20.09Q52.20 20.52 52.67 21.28Q53.14 22.03 53.14 23.04L53.14 23.04Q53.14 24.26 52.51 25.26Q51.89 26.26 50.81 26.86Q49.73 27.46 48.34 27.46L48.34 27.46ZM64.51 27.48L61.54 27.48Q59.66 27.48 58.21 26.89Q56.76 26.30 55.93 25.08Q55.10 23.86 55.10 22.03L55.10 22.03Q55.10 20.47 55.66 19.16Q56.21 17.86 57.19 16.90Q58.18 15.94 59.50 15.41Q60.82 14.88 62.35 14.88L62.35 14.88Q63.77 14.88 64.79 15.35Q65.81 15.82 66.36 16.62Q66.91 17.42 66.91 18.38L66.91 18.38Q66.91 19.58 66.34 20.46Q65.76 21.34 64.76 21.92Q63.77 22.51 62.46 22.85Q61.15 23.18 59.69 23.28L59.69 23.28Q59.50 23.30 59.35 23.30Q59.21 23.30 59.06 23.28L59.06 23.28Q59.35 23.81 60 24.11Q60.65 24.41 61.70 24.41L61.70 24.41L64.99 24.41L64.51 27.48ZM58.87 21L58.87 21Q58.92 21 58.98 21Q59.04 21 59.14 21L59.14 21Q60.36 20.86 61.15 20.62Q61.94 20.38 62.39 20.09Q62.83 19.80 63.01 19.49Q63.19 19.18 63.19 18.91L63.19 18.91Q63.19 18.53 62.88 18.24Q62.57 17.95 61.92 17.95L61.92 17.95Q61.08 17.95 60.41 18.42Q59.74 18.89 59.34 19.57Q58.94 20.26 58.87 20.93L58.87 20.93Q58.87 20.95 58.87 20.96Q58.87 20.98 58.87 21ZM74.16 27.77L74.16 27.77Q72.43 27.77 71.04 27.04Q69.65 26.30 68.83 25.00Q68.02 23.69 68.02 21.96L68.02 21.96Q68.02 20.45 68.60 19.16Q69.19 17.88 70.21 16.92Q71.23 15.96 72.55 15.42Q73.87 14.88 75.34 14.88L75.34 14.88Q77.06 14.88 78.43 15.61Q79.80 16.34 80.60 17.65Q81.41 18.96 81.41 20.71L81.41 20.71Q81.41 22.20 80.84 23.48Q80.28 24.77 79.28 25.74Q78.29 26.71 76.98 27.24Q75.67 27.77 74.16 27.77ZM74.45 24.53L74.45 24.53Q75.43 24.53 76.15 24.01Q76.87 23.50 77.27 22.67Q77.66 21.84 77.66 20.90L77.66 20.90Q77.66 20.09 77.34 19.46Q77.02 18.84 76.42 18.48Q75.82 18.12 75 18.12L75 18.12Q74.04 18.12 73.32 18.64Q72.60 19.15 72.19 19.97Q71.78 20.78 71.78 21.72L71.78 21.72Q71.78 22.51 72.11 23.16Q72.43 23.81 73.03 24.17Q73.63 24.53 74.45 24.53ZM94.56 27.77L94.56 27.77Q93.14 27.77 92.10 27.22Q91.06 26.66 90.48 25.69Q89.90 24.72 89.90 23.47L89.90 23.47Q89.90 23.21 89.94 22.87Q89.98 22.54 90.02 22.25L90.02 22.25L91.08 15.60Q91.10 15.46 91.12 15.30Q91.13 15.14 91.13 15L91.13 15Q91.13 14.52 90.80 14.20Q90.48 13.87 89.95 13.87L89.95 13.87Q89.54 13.87 89.20 14.04Q88.85 14.21 88.63 14.52Q88.42 14.83 88.37 15.26L88.37 15.26L86.45 27.48L82.51 27.48L84.38 15.48Q84.65 13.87 85.43 12.73Q86.21 11.59 87.47 10.99Q88.73 10.39 90.38 10.39L90.38 10.39Q91.82 10.39 92.87 10.96Q93.91 11.52 94.49 12.50Q95.06 13.49 95.06 14.74L95.06 14.74Q95.06 15.02 95.04 15.30Q95.02 15.58 94.97 15.84L94.97 15.84L93.89 22.56Q93.86 22.75 93.85 22.90Q93.84 23.04 93.84 23.16L93.84 23.16Q93.84 23.69 94.18 23.99Q94.51 24.29 95.02 24.29L95.02 24.29Q95.66 24.29 96.10 23.92Q96.53 23.54 96.60 22.90L96.60 22.90L97.78 15.48Q98.04 13.87 98.82 12.73Q99.60 11.59 100.86 10.99Q102.12 10.39 103.75 10.39L103.75 10.39Q105.22 10.39 106.26 10.96Q107.30 11.52 107.88 12.50Q108.46 13.49 108.46 14.74L108.46 14.74Q108.46 15 108.42 15.29Q108.38 15.58 108.34 15.82L108.34 15.82L106.51 27.48L102.58 27.48L104.45 15.55Q104.47 15.43 104.48 15.28Q104.50 15.12 104.50 15.02L104.50 15.02Q104.50 14.52 104.17 14.20Q103.85 13.87 103.34 13.87L103.34 13.87Q102.94 13.87 102.59 14.04Q102.24 14.21 102.02 14.51Q101.81 14.81 101.76 15.24L101.76 15.24L100.58 22.68Q100.34 24.31 99.53 25.45Q98.71 26.59 97.45 27.18Q96.19 27.77 94.56 27.77ZM115.70 27.77L115.70 27.77Q113.98 27.77 112.58 27.04Q111.19 26.30 110.38 25.00Q109.56 23.69 109.56 21.96L109.56 21.96Q109.56 20.45 110.15 19.16Q110.74 17.88 111.76 16.92Q112.78 15.96 114.10 15.42Q115.42 14.88 116.88 14.88L116.88 14.88Q118.61 14.88 119.98 15.61Q121.34 16.34 122.15 17.65Q122.95 18.96 122.95 20.71L122.95 20.71Q122.95 22.20 122.39 23.48Q121.82 24.77 120.83 25.74Q119.83 26.71 118.52 27.24Q117.22 27.77 115.70 27.77ZM115.99 24.53L115.99 24.53Q116.98 24.53 117.70 24.01Q118.42 23.50 118.81 22.67Q119.21 21.84 119.21 20.90L119.21 20.90Q119.21 20.09 118.88 19.46Q118.56 18.84 117.96 18.48Q117.36 18.12 116.54 18.12L116.54 18.12Q115.58 18.12 114.86 18.64Q114.14 19.15 113.74 19.97Q113.33 20.78 113.33 21.72L113.33 21.72Q113.33 22.51 113.65 23.16Q113.98 23.81 114.58 24.17Q115.18 24.53 115.99 24.53ZM130.61 27.74L130.61 27.74Q128.64 27.74 127.26 26.99Q125.88 26.23 125.15 24.85Q124.42 23.47 124.42 21.67L124.42 21.67Q124.42 20.28 124.90 19.04Q125.38 17.81 126.24 16.87Q127.10 15.94 128.29 15.41Q129.48 14.88 130.87 14.88L130.87 14.88Q131.88 14.88 132.64 15.13Q133.39 15.38 133.91 15.76Q134.42 16.13 134.66 16.51L134.66 16.51L134.74 16.51L135.74 9.96L139.46 9.96L137.74 21.26Q137.40 23.38 136.39 24.83Q135.38 26.28 133.90 27.01Q132.41 27.74 130.61 27.74ZM130.85 24.55L130.85 24.55Q131.74 24.55 132.43 24.07Q133.13 23.59 133.52 22.79Q133.92 21.98 133.92 21.05L133.92 21.05Q133.92 20.09 133.55 19.45Q133.18 18.82 132.58 18.48Q131.98 18.14 131.28 18.14L131.28 18.14Q130.42 18.14 129.73 18.61Q129.05 19.08 128.65 19.87Q128.26 20.66 128.26 21.60L128.26 21.60Q128.26 22.46 128.57 23.14Q128.88 23.81 129.47 24.18Q130.06 24.55 130.85 24.55ZM149.26 27.48L146.28 27.48Q144.41 27.48 142.96 26.89Q141.50 26.30 140.68 25.08Q139.85 23.86 139.85 22.03L139.85 22.03Q139.85 20.47 140.40 19.16Q140.95 17.86 141.94 16.90Q142.92 15.94 144.24 15.41Q145.56 14.88 147.10 14.88L147.10 14.88Q148.51 14.88 149.53 15.35Q150.55 15.82 151.10 16.62Q151.66 17.42 151.66 18.38L151.66 18.38Q151.66 19.58 151.08 20.46Q150.50 21.34 149.51 21.92Q148.51 22.51 147.20 22.85Q145.90 23.18 144.43 23.28L144.43 23.28Q144.24 23.30 144.10 23.30Q143.95 23.30 143.81 23.28L143.81 23.28Q144.10 23.81 144.74 24.11Q145.39 24.41 146.45 24.41L146.45 24.41L149.74 24.41L149.26 27.48ZM143.62 21L143.62 21Q143.66 21 143.72 21Q143.78 21 143.88 21L143.88 21Q145.10 20.86 145.90 20.62Q146.69 20.38 147.13 20.09Q147.58 19.80 147.76 19.49Q147.94 19.18 147.94 18.91L147.94 18.91Q147.94 18.53 147.62 18.24Q147.31 17.95 146.66 17.95L146.66 17.95Q145.82 17.95 145.15 18.42Q144.48 18.89 144.08 19.57Q143.69 20.26 143.62 20.93L143.62 20.93Q143.62 20.95 143.62 20.96Q143.62 20.98 143.62 21ZM156.12 27.48L152.40 27.48L153.77 18.70Q154.03 17.04 155.11 16.10Q156.19 15.17 157.87 15.17L157.87 15.17L161.52 15.17L161.06 18.22L158.40 18.22Q158.06 18.22 157.79 18.44Q157.51 18.67 157.46 19.03L157.46 19.03L156.12 27.48ZM164.98 27.48L161.26 27.48L162.38 20.26Q162.62 18.70 163.48 17.48Q164.33 16.27 165.74 15.58Q167.16 14.88 169.08 14.88L169.08 14.88Q170.76 14.88 172.01 15.52Q173.26 16.15 173.93 17.27Q174.60 18.38 174.60 19.78L174.60 19.78Q174.60 20.02 174.58 20.29Q174.55 20.57 174.50 20.83L174.50 20.83L173.45 27.48L169.75 27.48L170.81 20.69Q170.83 20.54 170.84 20.41Q170.86 20.28 170.86 20.16L170.86 20.16Q170.86 19.25 170.28 18.67Q169.70 18.10 168.72 18.10L168.72 18.10Q168.05 18.10 167.48 18.43Q166.92 18.77 166.55 19.32Q166.18 19.87 166.06 20.57L166.06 20.57L164.98 27.48ZM182.76 27.77L182.76 27.77Q181.03 27.77 179.64 27.04Q178.25 26.30 177.43 25.00Q176.62 23.69 176.62 21.96L176.62 21.96Q176.62 20.45 177.20 19.16Q177.79 17.88 178.81 16.92Q179.83 15.96 181.15 15.42Q182.47 14.88 183.94 14.88L183.94 14.88Q185.66 14.88 187.03 15.61Q188.40 16.34 189.20 17.65Q190.01 18.96 190.01 20.71L190.01 20.71Q190.01 22.20 189.44 23.48Q188.88 24.77 187.88 25.74Q186.89 26.71 185.58 27.24Q184.27 27.77 182.76 27.77ZM183.05 24.53L183.05 24.53Q184.03 24.53 184.75 24.01Q185.47 23.50 185.87 22.67Q186.26 21.84 186.26 20.90L186.26 20.90Q186.26 20.09 185.94 19.46Q185.62 18.84 185.02 18.48Q184.42 18.12 183.60 18.12L183.60 18.12Q182.64 18.12 181.92 18.64Q181.20 19.15 180.79 19.97Q180.38 20.78 180.38 21.72L180.38 21.72Q180.38 22.51 180.71 23.16Q181.03 23.81 181.63 24.17Q182.23 24.53 183.05 24.53ZM202.70 27.48L198.31 27.48L206.23 14.78Q206.33 14.64 206.36 14.54Q206.40 14.45 206.40 14.40L206.40 14.40Q206.40 14.28 206.33 14.20Q206.26 14.11 206.09 14.11L206.09 14.11L198.89 14.11L199.44 10.68L206.98 10.68Q208.63 10.68 209.53 11.58Q210.43 12.48 210.43 13.75L210.43 13.75Q210.43 14.35 210.22 14.98Q210.00 15.60 209.62 16.20L209.62 16.20L202.70 27.48ZM217.49 27.74L217.49 27.74Q215.64 27.74 214.25 27.05Q212.86 26.35 212.08 25.14Q211.30 23.93 211.30 22.32L211.30 22.32Q211.30 22.01 211.34 21.64Q211.39 21.26 211.42 21L211.42 21L212.26 15.77Q212.54 14.04 213.49 12.84Q214.44 11.64 215.89 11.00Q217.34 10.37 219.10 10.37L219.10 10.37Q220.97 10.37 222.36 11.04Q223.75 11.71 224.52 12.92Q225.29 14.14 225.29 15.77L225.29 15.77Q225.29 16.15 225.25 16.49Q225.22 16.82 225.17 17.06L225.17 17.06L224.38 22.27Q224.11 23.95 223.13 25.18Q222.14 26.40 220.68 27.07Q219.22 27.74 217.49 27.74ZM217.75 24.29L217.75 24.29Q218.42 24.29 219.00 24.01Q219.58 23.74 219.98 23.20Q220.39 22.66 220.51 21.89L220.51 21.89L221.30 16.73Q221.33 16.61 221.35 16.40Q221.38 16.20 221.38 16.03L221.38 16.03Q221.38 15.41 221.06 14.90Q220.75 14.40 220.20 14.10Q219.65 13.80 218.90 13.80L218.90 13.80Q218.14 13.80 217.52 14.11Q216.91 14.42 216.54 14.96Q216.17 15.50 216.07 16.22L216.07 16.22L215.26 21.36Q215.23 21.46 215.21 21.68Q215.18 21.91 215.18 22.08L215.18 22.08Q215.18 22.70 215.51 23.21Q215.83 23.71 216.41 24Q216.98 24.29 217.75 24.29ZM233.16 27.74L233.16 27.74Q231.31 27.74 229.92 27.05Q228.53 26.35 227.75 25.14Q226.97 23.93 226.97 22.32L226.97 22.32Q226.97 22.01 227.02 21.64Q227.06 21.26 227.09 21L227.09 21L227.93 15.77Q228.22 14.04 229.16 12.84Q230.11 11.64 231.56 11.00Q233.02 10.37 234.77 10.37L234.77 10.37Q236.64 10.37 238.03 11.04Q239.42 11.71 240.19 12.92Q240.96 14.14 240.96 15.77L240.96 15.77Q240.96 16.15 240.92 16.49Q240.89 16.82 240.84 17.06L240.84 17.06L240.05 22.27Q239.78 23.95 238.80 25.18Q237.82 26.40 236.35 27.07Q234.89 27.74 233.16 27.74ZM233.42 24.29L233.42 24.29Q234.10 24.29 234.67 24.01Q235.25 23.74 235.66 23.20Q236.06 22.66 236.18 21.89L236.18 21.89L236.98 16.73Q237.00 16.61 237.02 16.40Q237.05 16.20 237.05 16.03L237.05 16.03Q237.05 15.41 236.74 14.90Q236.42 14.40 235.87 14.10Q235.32 13.80 234.58 13.80L234.58 13.80Q233.81 13.80 233.20 14.11Q232.58 14.42 232.21 14.96Q231.84 15.50 231.74 16.22L231.74 16.22L230.93 21.36Q230.90 21.46 230.88 21.68Q230.86 21.91 230.86 22.08L230.86 22.08Q230.86 22.70 231.18 23.21Q231.50 23.71 232.08 24Q232.66 24.29 233.42 24.29ZM251.95 27.48L248.21 27.48L250.15 15.17L253.90 15.17L251.95 27.48ZM252.41 13.78L252.41 13.78Q251.52 13.78 250.92 13.16Q250.32 12.55 250.32 11.71L250.32 11.71Q250.32 11.06 250.64 10.54Q250.97 10.01 251.50 9.70Q252.02 9.38 252.65 9.38L252.65 9.38Q253.54 9.38 254.14 10.00Q254.74 10.61 254.74 11.47L254.74 11.47Q254.74 12.10 254.42 12.62Q254.11 13.15 253.58 13.46Q253.06 13.78 252.41 13.78ZM262.70 27.48L259.22 27.48Q257.71 27.48 256.90 26.70Q256.08 25.92 256.08 24.58L256.08 24.58Q256.08 24.17 256.15 23.76L256.15 23.76L258.02 12.17L261.74 12.17L259.99 23.21Q259.92 23.62 259.92 23.78L259.92 23.78Q259.92 24.05 260.09 24.20Q260.26 24.36 260.52 24.36L260.52 24.36L263.18 24.36L262.70 27.48ZM264.17 18.22L255.05 18.22L255.53 15.17L264.65 15.17L264.17 18.22ZM269.90 27.79L269.90 27.79Q268.39 27.79 267.28 27.07Q266.16 26.35 265.55 25.08Q264.94 23.81 264.94 22.18L264.94 22.18Q264.94 20.57 265.44 19.24Q265.94 17.90 266.89 16.92Q267.84 15.94 269.12 15.41Q270.41 14.88 271.94 14.88L271.94 14.88Q273.12 14.88 274.24 15.23Q275.35 15.58 276.24 16.28Q277.13 16.99 277.66 18.08Q278.18 19.18 278.18 20.69L278.18 20.69Q278.18 21.02 278.15 21.36Q278.11 21.70 278.02 22.20L278.02 22.20L277.15 27.48L273.50 27.48L273.79 25.61L273.72 25.61Q273.02 26.62 271.99 27.20Q270.96 27.79 269.90 27.79ZM271.27 24.58L271.27 24.58Q272.14 24.58 272.84 24.07Q273.55 23.57 273.97 22.74Q274.39 21.91 274.39 20.90L274.39 20.90Q274.39 20.11 274.09 19.50Q273.79 18.89 273.23 18.53Q272.66 18.17 271.85 18.17L271.85 18.17Q271.01 18.17 270.30 18.65Q269.59 19.13 269.17 19.97Q268.75 20.81 268.75 21.82L268.75 21.82Q268.75 22.68 269.06 23.30Q269.38 23.93 269.93 24.25Q270.48 24.58 271.27 24.58ZM286.94 27.48L283.51 27.48Q281.98 27.48 281.15 26.72Q280.32 25.97 280.32 24.62L280.32 24.62Q280.32 24.46 280.34 24.28Q280.37 24.10 280.39 23.88L280.39 23.88L281.90 14.33Q282.02 13.56 282.34 12.74Q282.65 11.93 283.20 11.22Q283.75 10.51 284.60 10.08Q285.46 9.65 286.66 9.65L286.66 9.65Q288 9.65 288.86 10.15Q289.73 10.66 290.14 11.50Q290.54 12.34 290.54 13.32L290.54 13.32Q290.54 14.64 290.05 15.84Q289.56 17.04 288.66 18.08Q287.76 19.13 286.56 19.94Q285.36 20.76 283.97 21.31L283.97 21.31L284.26 18.05Q285.22 17.64 285.85 16.88Q286.49 16.13 286.81 15.28Q287.14 14.42 287.14 13.78L287.14 13.78Q287.14 13.34 286.98 13.10Q286.82 12.86 286.51 12.86L286.51 12.86Q286.15 12.86 285.94 13.19Q285.72 13.51 285.60 14.11L285.60 14.11L284.16 23.30Q284.14 23.47 284.11 23.66Q284.09 23.86 284.09 23.95L284.09 23.95Q284.09 24.22 284.24 24.31Q284.40 24.41 284.64 24.41L284.64 24.41L287.45 24.41L286.94 27.48ZM293.83 27.48L290.09 27.48L292.03 15.17L295.78 15.17L293.83 27.48ZM294.29 13.78L294.29 13.78Q293.40 13.78 292.80 13.16Q292.20 12.55 292.20 11.71L292.20 11.71Q292.20 11.06 292.52 10.54Q292.85 10.01 293.38 9.70Q293.90 9.38 294.53 9.38L294.53 9.38Q295.42 9.38 296.02 10.00Q296.62 10.61 296.62 11.47L296.62 11.47Q296.62 12.10 296.30 12.62Q295.99 13.15 295.46 13.46Q294.94 13.78 294.29 13.78ZM304.56 27.48L302.69 27.48Q301.08 27.48 299.77 26.80Q298.46 26.11 297.71 24.88Q296.95 23.64 296.95 22.01L296.95 22.01Q296.95 19.80 297.95 18.28Q298.94 16.75 300.62 15.96Q302.30 15.17 304.37 15.17L304.37 15.17L306.53 15.17L306.02 18.31L304.15 18.31Q303.14 18.31 302.38 18.74Q301.61 19.18 301.18 19.94Q300.74 20.71 300.74 21.72L300.74 21.72Q300.74 22.58 301.08 23.17Q301.42 23.76 302.00 24.05Q302.59 24.34 303.26 24.36L303.26 24.36L305.06 24.36L304.56 27.48Z"/></svg>