<svg xmlns="http://www.w3.org/2000/svg" xmlns:xlink="http://www.w3.org/1999/xlink" width="243.52799999999996" height="31.248"><path fill="black" d="M7.32 23.81L1.63 23.81L1.63 7.01L7.34 7.01Q10.25 7.01 12.17 8.05Q14.09 9.10 15.01 10.98Q15.94 12.86 15.94 15.41L15.94 15.41Q15.94 17.93 15.01 19.82Q14.09 21.72 12.18 22.76Q10.27 23.81 7.32 23.81L7.32 23.81ZM4.99 9.86L4.99 20.93L7.15 20.93Q9.17 20.93 10.33 20.27Q11.50 19.61 12 18.37Q12.50 17.14 12.50 15.41L12.50 15.41Q12.50 13.68 12 12.44Q11.50 11.21 10.33 10.54Q9.17 9.86 7.15 9.86L7.15 9.86L4.99 9.86ZM22.01 23.81L18.65 23.81L18.65 7.01L22.68 7.01L27.74 17.35L27.74 17.35L32.74 7.01L36.74 7.01L36.74 23.81L33.38 23.81L33.38 12.70L33.38 12.70L29.04 21.46L26.38 21.46L22.01 12.70L22.01 12.70L22.01 23.81ZM51.41 24.10L51.41 24.10Q49.58 24.10 48.16 23.47Q46.73 22.85 45.89 21.65Q45.05 20.45 45.02 18.74L45.02 18.74L48.58 18.74Q48.60 19.46 48.95 20.04Q49.30 20.62 49.92 20.95Q50.54 21.29 51.38 21.29L51.38 21.29Q52.13 21.29 52.67 21.05Q53.21 20.81 53.51 20.38Q53.81 19.94 53.81 19.32L53.81 19.32Q53.81 18.65 53.46 18.17Q53.11 17.69 52.51 17.35Q51.91 17.02 51.13 16.74Q50.35 16.46 49.46 16.18L49.46 16.18Q47.47 15.53 46.43 14.45Q45.38 13.37 45.38 11.57L45.38 11.57Q45.38 10.03 46.12 8.95Q46.85 7.87 48.16 7.30Q49.46 6.72 51.12 6.72L51.12 6.72Q52.82 6.72 54.12 7.31Q55.42 7.90 56.17 9Q56.93 10.10 56.98 11.62L56.98 11.62L53.38 11.62Q53.35 11.06 53.06 10.60Q52.78 10.13 52.27 9.84Q51.77 9.55 51.07 9.55L51.07 9.55Q50.47 9.53 49.98 9.73Q49.49 9.94 49.20 10.33Q48.91 10.73 48.91 11.33L48.91 11.33Q48.91 11.93 49.20 12.32Q49.49 12.72 50.00 13.01Q50.52 13.30 51.22 13.55Q51.91 13.80 52.73 14.06L52.73 14.06Q54 14.50 55.06 15.08Q56.11 15.67 56.75 16.61Q57.38 17.54 57.38 19.08L57.38 19.08Q57.38 20.42 56.69 21.56Q55.99 22.70 54.67 23.40Q53.35 24.10 51.41 24.10ZM64.15 24.10L64.15 24.10Q62.66 24.10 61.67 23.60Q60.67 23.11 60.20 22.28Q59.74 21.46 59.74 20.45L59.74 20.45Q59.74 19.37 60.29 18.53Q60.84 17.69 61.99 17.21Q63.14 16.73 64.87 16.73L64.87 16.73L67.85 16.73Q67.85 15.86 67.62 15.30Q67.39 14.74 66.90 14.45Q66.41 14.16 65.59 14.16L65.59 14.16Q64.70 14.16 64.09 14.54Q63.48 14.93 63.34 15.70L63.34 15.70L60.07 15.70Q60.22 14.40 60.94 13.45Q61.66 12.50 62.87 11.96Q64.08 11.42 65.62 11.42L65.62 11.42Q67.32 11.42 68.58 12Q69.84 12.58 70.52 13.66Q71.21 14.74 71.21 16.32L71.21 16.32L71.21 23.81L68.38 23.81L67.99 21.98L67.99 21.98Q67.75 22.46 67.38 22.85Q67.01 23.23 66.53 23.51Q66.05 23.78 65.46 23.94Q64.87 24.10 64.15 24.10ZM64.97 21.50L64.97 21.50Q65.57 21.50 66.05 21.30Q66.53 21.10 66.86 20.71Q67.20 20.33 67.42 19.84Q67.63 19.34 67.70 18.77L67.70 18.77L67.70 18.74L65.28 18.74Q64.58 18.74 64.14 18.92Q63.70 19.10 63.48 19.43Q63.26 19.75 63.26 20.16L63.26 20.16Q63.26 20.59 63.48 20.90Q63.70 21.22 64.08 21.36Q64.46 21.50 64.97 21.50ZM77.59 23.81L74.23 23.81L74.23 11.71L77.18 11.71L77.42 13.68L77.42 13.68Q77.98 12.67 79.00 12.05Q80.02 11.42 81.46 11.42L81.46 11.42Q82.94 11.42 83.98 12.06Q85.01 12.70 85.55 13.90Q86.09 15.10 86.09 16.85L86.09 16.85L86.09 23.81L82.75 23.81L82.75 17.16Q82.75 15.77 82.16 15.01Q81.58 14.26 80.30 14.26L80.30 14.26Q79.54 14.26 78.91 14.63Q78.29 15 77.94 15.68Q77.59 16.37 77.59 17.35L77.59 17.35L77.59 23.81ZM94.10 24.10L94.10 24.10Q92.42 24.10 91.20 23.56Q89.98 23.02 89.28 22.09Q88.58 21.17 88.46 19.99L88.46 19.99L91.82 19.99Q91.92 20.42 92.20 20.77Q92.47 21.12 92.94 21.34Q93.41 21.55 94.06 21.55L94.06 21.55Q94.68 21.55 95.08 21.37Q95.47 21.19 95.68 20.90Q95.88 20.62 95.88 20.28L95.88 20.28Q95.88 19.80 95.59 19.54Q95.30 19.27 94.75 19.10Q94.20 18.94 93.43 18.79L93.43 18.79Q92.57 18.60 91.74 18.36Q90.91 18.12 90.25 17.72Q89.59 17.33 89.21 16.73Q88.82 16.13 88.82 15.24L88.82 15.24Q88.82 14.16 89.41 13.30Q90.00 12.43 91.12 11.93Q92.23 11.42 93.79 11.42L93.79 11.42Q96 11.42 97.28 12.42Q98.57 13.42 98.81 15.12L98.81 15.12L95.64 15.12Q95.52 14.59 95.04 14.30Q94.56 14.02 93.77 14.02L93.77 14.02Q92.95 14.02 92.51 14.30Q92.06 14.59 92.06 15.07L92.06 15.07Q92.06 15.38 92.35 15.64Q92.64 15.89 93.18 16.07Q93.72 16.25 94.51 16.42L94.51 16.42Q95.93 16.70 96.98 17.08Q98.04 17.45 98.64 18.13Q99.24 18.82 99.24 20.11L99.24 20.11Q99.26 21.26 98.63 22.18Q97.99 23.09 96.84 23.59Q95.69 24.10 94.10 24.10ZM113.57 24.10L113.57 24.10Q111.84 24.10 110.44 23.47Q109.03 22.85 108.20 21.72Q107.38 20.59 107.38 19.08L107.38 19.08Q107.38 18.07 107.72 17.22Q108.07 16.37 108.70 15.73Q109.32 15.10 110.16 14.76L110.16 14.76Q109.10 14.23 108.44 13.31Q107.78 12.38 107.78 11.21L107.78 11.21Q107.78 10.03 108.44 9.01Q109.10 7.99 110.39 7.36Q111.67 6.72 113.57 6.72L113.57 6.72Q115.49 6.72 116.77 7.36Q118.06 7.99 118.70 9.01Q119.35 10.03 119.35 11.21L119.35 11.21Q119.35 12.36 118.69 13.31Q118.03 14.26 116.98 14.76L116.98 14.76Q117.84 15.12 118.46 15.76Q119.09 16.39 119.44 17.23Q119.78 18.07 119.78 19.08L119.78 19.08Q119.78 20.59 118.94 21.72Q118.10 22.85 116.71 23.47Q115.32 24.10 113.57 24.10ZM113.57 21.31L113.57 21.31Q115.01 21.31 115.74 20.59Q116.47 19.87 116.47 18.79L116.47 18.79Q116.47 17.62 115.70 16.93Q114.94 16.25 113.57 16.25L113.57 16.25Q112.20 16.25 111.42 16.93Q110.64 17.62 110.64 18.79L110.64 18.79Q110.64 19.87 111.40 20.59Q112.15 21.31 113.57 21.31ZM113.57 13.80L113.57 13.80Q114.74 13.80 115.40 13.19Q116.06 12.58 116.06 11.64L116.06 11.64Q116.06 10.61 115.42 10.02Q114.77 9.43 113.57 9.43L113.57 9.43Q112.39 9.43 111.76 10.02Q111.12 10.61 111.12 11.64L111.12 11.64Q111.12 12.58 111.76 13.19Q112.39 13.80 113.57 13.80ZM129.67 24.10L129.67 24.10Q127.37 24.10 125.71 22.99Q124.06 21.89 123.17 19.93Q122.28 17.98 122.28 15.41L122.28 15.41Q122.28 12.84 123.17 10.88Q124.06 8.93 125.71 7.82Q127.37 6.72 129.67 6.72L129.67 6.72Q131.98 6.72 133.62 7.82Q135.26 8.93 136.15 10.88Q137.04 12.84 137.04 15.41L137.04 15.41Q137.04 17.98 136.15 19.93Q135.26 21.89 133.62 22.99Q131.98 24.10 129.67 24.10ZM129.67 21.07L129.67 21.07Q130.85 21.07 131.74 20.38Q132.62 19.68 133.13 18.42Q133.63 17.16 133.63 15.41L133.63 15.41Q133.63 13.66 133.13 12.40Q132.62 11.14 131.74 10.44Q130.85 9.74 129.67 9.74L129.67 9.74Q128.50 9.74 127.61 10.44Q126.72 11.14 126.22 12.40Q125.71 13.66 125.71 15.41L125.71 15.41Q125.71 17.16 126.22 18.42Q126.72 19.68 127.61 20.38Q128.50 21.07 129.67 21.07ZM146.62 24.10L146.62 24.10Q144.31 24.10 142.66 22.99Q141.00 21.89 140.11 19.93Q139.22 17.98 139.22 15.41L139.22 15.41Q139.22 12.84 140.11 10.88Q141.00 8.93 142.66 7.82Q144.31 6.72 146.62 6.72L146.62 6.72Q148.92 6.72 150.56 7.82Q152.21 8.93 153.10 10.88Q153.98 12.84 153.98 15.41L153.98 15.41Q153.98 17.98 153.10 19.93Q152.21 21.89 150.56 22.99Q148.92 24.10 146.62 24.10ZM146.62 21.07L146.62 21.07Q147.79 21.07 148.68 20.38Q149.57 19.68 150.07 18.42Q150.58 17.16 150.58 15.41L150.58 15.41Q150.58 13.66 150.07 12.40Q149.57 11.14 148.68 10.44Q147.79 9.74 146.62 9.74L146.62 9.74Q145.44 9.74 144.55 10.44Q143.66 11.14 143.16 12.40Q142.66 13.66 142.66 15.41L142.66 15.41Q142.66 17.16 143.16 18.42Q143.66 19.68 144.55 20.38Q145.44 21.07 146.62 21.07ZM165.60 23.81L162.24 23.81L162.24 11.71L165.19 11.71L165.43 13.68L165.43 13.68Q165.98 12.67 167.00 12.05Q168.02 11.42 169.46 11.42L169.46 11.42Q170.95 11.42 171.98 12.06Q173.02 12.70 173.56 13.90Q174.10 15.10 174.10 16.85L174.10 16.85L174.10 23.81L170.76 23.81L170.76 17.16Q170.76 15.77 170.17 15.01Q169.58 14.26 168.31 14.26L168.31 14.26Q167.54 14.26 166.92 14.63Q166.30 15 165.95 15.68Q165.60 16.37 165.60 17.35L165.60 17.35L165.60 23.81ZM182.88 24.10L182.88 24.10Q181.15 24.10 179.76 23.29Q178.37 22.49 177.56 21.05Q176.76 19.61 176.76 17.78L176.76 17.78Q176.76 15.91 177.56 14.47Q178.37 13.03 179.76 12.23Q181.15 11.42 182.90 11.42L182.90 11.42Q184.66 11.42 186.05 12.23Q187.44 13.03 188.24 14.46Q189.05 15.89 189.05 17.76L189.05 17.76Q189.05 19.63 188.23 21.06Q187.42 22.49 186.04 23.29Q184.66 24.10 182.88 24.10ZM182.88 21.19L182.88 21.19Q183.67 21.19 184.27 20.81Q184.87 20.42 185.24 19.66Q185.62 18.89 185.62 17.76L185.62 17.76Q185.62 16.63 185.26 15.86Q184.90 15.10 184.28 14.71Q183.67 14.33 182.90 14.33L182.90 14.33Q182.16 14.33 181.54 14.71Q180.91 15.10 180.55 15.86Q180.19 16.63 180.19 17.76L180.19 17.76Q180.19 18.89 180.55 19.66Q180.91 20.42 181.52 20.81Q182.14 21.19 182.88 21.19ZM195.19 23.81L191.83 23.81L191.83 11.71L194.81 11.71L195.12 13.94L195.12 13.94Q195.58 13.15 196.22 12.60Q196.87 12.05 197.74 11.74Q198.60 11.42 199.61 11.42L199.61 11.42L199.61 14.98L198.48 14.98Q197.76 14.98 197.15 15.14Q196.54 15.31 196.09 15.68Q195.65 16.06 195.42 16.69Q195.19 17.33 195.19 18.29L195.19 18.29L195.19 23.81ZM205.10 23.81L201.74 23.81L201.74 11.71L204.70 11.71L204.96 13.32L204.96 13.32Q205.54 12.46 206.48 11.94Q207.43 11.42 208.68 11.42L208.68 11.42Q209.57 11.42 210.29 11.66Q211.01 11.90 211.57 12.36Q212.14 12.82 212.50 13.49L212.50 13.49L212.50 13.49Q213.19 12.53 214.27 11.98Q215.35 11.42 216.62 11.42L216.62 11.42Q218.21 11.42 219.26 12.06Q220.32 12.70 220.86 13.91Q221.40 15.12 221.40 16.87L221.40 16.87L221.40 23.81L218.06 23.81L218.06 17.16Q218.06 15.77 217.51 15.01Q216.96 14.26 215.81 14.26L215.81 14.26Q215.04 14.26 214.46 14.63Q213.89 15 213.56 15.70Q213.24 16.39 213.24 17.38L213.24 17.38L213.24 23.81L209.90 23.81L209.90 17.16Q209.90 15.77 209.35 15.01Q208.80 14.26 207.60 14.26L207.60 14.26Q206.88 14.26 206.30 14.63Q205.73 15 205.42 15.70Q205.10 16.39 205.10 17.38L205.10 17.38L205.10 23.81ZM228.53 24.10L228.53 24.10Q227.04 24.10 226.04 23.60Q225.05 23.11 224.58 22.28Q224.11 21.46 224.11 20.45L224.11 20.45Q224.11 19.37 224.66 18.53Q225.22 17.69 226.37 17.21Q227.52 16.73 229.25 16.73L229.25 16.73L232.22 16.73Q232.22 15.86 232.00 15.30Q231.77 14.74 231.28 14.45Q230.78 14.16 229.97 14.16L229.97 14.16Q229.08 14.16 228.47 14.54Q227.86 14.93 227.71 15.70L227.71 15.70L224.45 15.70Q224.59 14.40 225.31 13.45Q226.03 12.50 227.24 11.96Q228.46 11.42 229.99 11.42L229.99 11.42Q231.70 11.42 232.96 12Q234.22 12.58 234.90 13.66Q235.58 14.74 235.58 16.32L235.58 16.32L235.58 23.81L232.75 23.81L232.37 21.98L232.37 21.98Q232.13 22.46 231.76 22.85Q231.38 23.23 230.90 23.51Q230.42 23.78 229.84 23.94Q229.25 24.10 228.53 24.10ZM229.34 21.50L229.34 21.50Q229.94 21.50 230.42 21.30Q230.90 21.10 231.24 20.71Q231.58 20.33 231.79 19.84Q232.01 19.34 232.08 18.77L232.08 18.77L232.08 18.74L229.66 18.74Q228.96 18.74 228.52 18.92Q228.07 19.10 227.86 19.43Q227.64 19.75 227.64 20.16L227.64 20.16Q227.64 20.59 227.86 20.90Q228.07 21.22 228.46 21.36Q228.84 21.50 229.34 21.50ZM241.97 23.81L238.61 23.81L238.61 6.53L241.97 6.53L241.97 23.81Z"/></svg>