<svg xmlns="http://www.w3.org/2000/svg" xmlns:xlink="http://www.w3.org/1999/xlink" width="203.5935483870968" height="28.8"><path fill="black" d="M1.18 21.25L1.18 21.25L1.18 20.55Q2.17 20.52 2.64 20.39Q3.12 20.26 3.28 19.92Q3.45 19.57 3.45 18.89L3.45 18.89L3.45 9.91Q3.45 9.21 3.28 8.87Q3.12 8.54 2.64 8.40Q2.17 8.26 1.18 8.25L1.18 8.25L1.18 7.55Q1.45 7.57 1.87 7.58Q2.28 7.59 2.85 7.59Q3.43 7.59 4.14 7.59L4.14 7.59Q5.25 7.59 6.09 7.58Q6.93 7.57 7.34 7.57L7.34 7.57Q9.64 7.57 10.93 8.62Q12.21 9.68 12.21 11.59L12.21 11.59Q12.21 12.91 11.56 13.88Q10.92 14.85 9.73 15.36Q8.54 15.87 6.87 15.87L6.87 15.87Q6.50 15.87 6.15 15.84Q5.79 15.81 5.47 15.76Q5.15 15.72 4.90 15.64L4.90 15.64L4.90 14.94Q5.30 15.06 5.77 15.12Q6.23 15.17 6.70 15.17L6.70 15.17Q8.50 15.17 9.39 14.30Q10.28 13.43 10.28 11.67L10.28 11.67Q10.28 9.93 9.45 9.09Q8.61 8.25 6.87 8.25L6.87 8.25L5.25 8.25L5.25 18.89Q5.25 19.57 5.43 19.92Q5.61 20.26 6.18 20.39Q6.75 20.52 7.90 20.55L7.90 20.55L7.90 21.25Q7.59 21.23 7.09 21.22Q6.60 21.21 5.92 21.20Q5.25 21.19 4.39 21.19L4.39 21.19Q3.25 21.19 2.45 21.20Q1.65 21.21 1.18 21.25ZM13.66 21.25L13.66 21.25L13.66 20.55Q14.88 20.54 15.37 20.24Q15.85 19.94 15.85 19.16L15.85 19.16L15.85 8.69Q15.85 7.80 15.38 7.41Q14.90 7.03 13.66 6.99L13.66 6.99L13.66 6.29Q14.05 6.31 14.47 6.33Q14.88 6.35 15.29 6.35L15.29 6.35Q15.93 6.35 16.52 6.28Q17.11 6.21 17.59 6.08L17.59 6.08L17.59 19.16Q17.59 19.94 18.08 20.24Q18.56 20.54 19.76 20.55L19.76 20.55L19.76 21.25Q19.47 21.23 18.98 21.22Q18.48 21.21 17.88 21.19Q17.28 21.17 16.72 21.17L16.72 21.17Q15.85 21.17 14.98 21.20Q14.11 21.23 13.66 21.25ZM24.75 21.52L24.75 21.52Q23.44 21.52 22.66 20.84Q21.89 20.15 21.89 18.99L21.89 18.99Q21.89 18.10 22.33 17.54Q22.76 16.97 23.46 16.64Q24.15 16.30 24.92 16.08Q25.68 15.87 26.37 15.69Q27.06 15.50 27.49 15.25Q27.93 15.00 27.93 14.57L27.93 14.57L27.93 13.63Q27.93 12.68 27.38 12.21Q26.83 11.75 25.74 11.75L25.74 11.75Q24.95 11.75 24.41 11.96Q23.86 12.17 23.86 12.50L23.86 12.50Q23.86 12.68 23.99 12.89Q24.12 13.10 24.24 13.35Q24.37 13.59 24.37 13.86L24.37 13.86Q24.37 14.23 24.11 14.46Q23.85 14.69 23.42 14.69L23.42 14.69Q22.92 14.69 22.60 14.35Q22.28 14.01 22.28 13.47L22.28 13.47Q22.28 12.77 22.81 12.22Q23.34 11.67 24.25 11.34Q25.16 11.01 26.28 11.01L26.28 11.01Q27.48 11.01 28.23 11.38Q28.97 11.75 29.32 12.52Q29.67 13.30 29.67 14.54L29.67 14.54L29.67 19.70Q29.67 20.17 29.83 20.39Q29.98 20.61 30.33 20.61L30.33 20.61Q30.66 20.61 31.00 20.44Q31.34 20.26 31.65 20.03L31.65 20.03L31.99 20.59Q31.49 21.06 30.96 21.29Q30.43 21.52 29.73 21.52L29.73 21.52Q27.91 21.52 27.93 19.80L27.93 19.80Q27.35 20.65 26.55 21.09Q25.76 21.52 24.75 21.52ZM25.43 20.42L25.43 20.42Q26.17 20.42 26.81 20.06Q27.45 19.70 27.93 19.03L27.93 19.03L27.93 15.50Q27.72 15.83 27.24 16.05Q26.77 16.26 26.17 16.46Q25.57 16.66 25.01 16.94Q24.45 17.21 24.09 17.64Q23.73 18.08 23.73 18.77L23.73 18.77Q23.73 19.55 24.18 19.98Q24.64 20.42 25.43 20.42ZM38.69 21.45L38.03 21.45L34.51 13.26Q34.22 12.62 33.75 12.31Q33.27 12.00 32.50 12.00L32.50 12.00L32.50 11.28Q33.19 11.32 33.76 11.34Q34.34 11.36 35.01 11.36L35.01 11.36Q35.85 11.36 36.46 11.34Q37.08 11.32 37.59 11.28L37.59 11.28L37.59 12.00Q36.60 12.04 36.36 12.37Q36.12 12.70 36.46 13.51L36.46 13.51L39 19.37L38.71 19.47L40.59 14.75Q40.94 13.84 40.94 13.24Q40.94 12.64 40.58 12.33Q40.22 12.02 39.48 12.00L39.48 12.00L39.48 11.28Q39.99 11.30 40.35 11.31Q40.70 11.32 41.04 11.33Q41.38 11.34 41.81 11.34L41.81 11.34Q42.37 11.34 42.92 11.32Q43.47 11.30 43.88 11.28L43.88 11.28L43.88 12.00Q43.08 12.04 42.54 12.53Q42 13.03 41.55 14.13L41.55 14.13L38.69 21.45ZM35.28 25.99L35.28 25.99Q34.35 25.99 33.80 25.52Q33.25 25.05 33.25 24.27L33.25 24.27Q33.25 23.67 33.60 23.31Q33.95 22.95 34.51 22.95L34.51 22.95Q34.94 22.95 35.19 23.17Q35.44 23.38 35.44 23.77L35.44 23.77Q35.44 24.04 35.34 24.24Q35.25 24.45 35.16 24.62Q35.07 24.79 35.07 24.97L35.07 24.97Q35.07 25.30 35.48 25.30L35.48 25.30Q35.94 25.30 36.29 24.98Q36.64 24.66 36.89 24.02L36.89 24.02L38.13 21.02L38.71 21.43L37.61 24.10Q37.34 24.75 37.01 25.18Q36.68 25.61 36.25 25.80Q35.83 25.99 35.28 25.99ZM45.06 21.25L45.06 21.25L45.06 20.55Q46.32 20.54 46.78 20.22Q47.25 19.90 47.25 19.06L47.25 19.06L47.25 10.80Q47.25 8.55 48.32 7.34Q49.39 6.12 51.31 6.12L51.31 6.12Q52.59 6.12 53.34 6.63Q54.10 7.14 54.10 8.03L54.10 8.03Q54.10 8.61 53.76 8.99Q53.42 9.37 52.86 9.37L52.86 9.37Q52.43 9.37 52.18 9.15Q51.93 8.92 51.93 8.54L51.93 8.54Q51.93 8.25 52.05 8.01Q52.16 7.78 52.29 7.58Q52.41 7.37 52.41 7.20L52.41 7.20Q52.41 6.77 51.52 6.77L51.52 6.77Q50.23 6.77 49.61 7.65Q48.99 8.54 48.99 10.37L48.99 10.37L48.99 19.06Q48.99 19.86 49.61 20.20Q50.23 20.54 51.75 20.55L51.75 20.55L51.75 21.25Q51.41 21.23 50.81 21.22Q50.21 21.21 49.52 21.19Q48.83 21.17 48.17 21.17L48.17 21.17Q47.23 21.17 46.36 21.20Q45.50 21.23 45.06 21.25ZM51.77 12.00L44.98 12.00L44.98 11.30L51.77 11.30L51.77 12.00ZM57.15 21.52L57.15 21.52Q55.84 21.52 55.06 20.84Q54.29 20.15 54.29 18.99L54.29 18.99Q54.29 18.10 54.73 17.54Q55.16 16.97 55.86 16.64Q56.55 16.30 57.32 16.08Q58.08 15.87 58.77 15.69Q59.46 15.50 59.89 15.25Q60.33 15.00 60.33 14.57L60.33 14.57L60.33 13.63Q60.33 12.68 59.78 12.21Q59.23 11.75 58.14 11.75L58.14 11.75Q57.35 11.75 56.81 11.96Q56.26 12.17 56.26 12.50L56.26 12.50Q56.26 12.68 56.39 12.89Q56.52 13.10 56.64 13.35Q56.77 13.59 56.77 13.86L56.77 13.86Q56.77 14.23 56.51 14.46Q56.25 14.69 55.82 14.69L55.82 14.69Q55.32 14.69 55.00 14.35Q54.68 14.01 54.68 13.47L54.68 13.47Q54.68 12.77 55.21 12.22Q55.74 11.67 56.65 11.34Q57.56 11.01 58.68 11.01L58.68 11.01Q59.88 11.01 60.63 11.38Q61.37 11.75 61.72 12.52Q62.07 13.30 62.07 14.54L62.07 14.54L62.07 19.70Q62.07 20.17 62.23 20.39Q62.38 20.61 62.73 20.61L62.73 20.61Q63.06 20.61 63.40 20.44Q63.74 20.26 64.05 20.03L64.05 20.03L64.39 20.59Q63.89 21.06 63.36 21.29Q62.83 21.52 62.13 21.52L62.13 21.52Q60.31 21.52 60.33 19.80L60.33 19.80Q59.75 20.65 58.95 21.09Q58.16 21.52 57.15 21.52ZM57.83 20.42L57.83 20.42Q58.57 20.42 59.21 20.06Q59.85 19.70 60.33 19.03L60.33 19.03L60.33 15.50Q60.12 15.83 59.64 16.05Q59.17 16.26 58.57 16.46Q57.97 16.66 57.41 16.94Q56.85 17.21 56.49 17.64Q56.13 18.08 56.13 18.77L56.13 18.77Q56.13 19.55 56.58 19.98Q57.04 20.42 57.83 20.42ZM65.30 21.25L65.30 21.25L65.30 20.55Q66.52 20.54 67.01 20.24Q67.49 19.94 67.49 19.16L67.49 19.16L67.49 13.68Q67.49 12.79 67.02 12.42Q66.54 12.04 65.30 11.98L65.30 11.98L65.30 11.28Q65.69 11.30 66.10 11.32Q66.50 11.34 66.93 11.34L66.93 11.34Q67.59 11.34 68.17 11.27Q68.75 11.21 69.23 11.07L69.23 11.07L69.23 19.16Q69.23 19.94 69.72 20.24Q70.20 20.54 71.42 20.55L71.42 20.55L71.42 21.25Q71.13 21.23 70.63 21.22Q70.12 21.21 69.52 21.19Q68.92 21.17 68.36 21.17L68.36 21.17Q67.49 21.17 66.62 21.20Q65.75 21.23 65.30 21.25ZM68.30 8.94L68.30 8.94Q67.78 8.94 67.41 8.57Q67.05 8.21 67.05 7.68L67.05 7.68Q67.05 7.16 67.41 6.79Q67.78 6.43 68.30 6.43L68.30 6.43Q68.83 6.43 69.19 6.79Q69.56 7.16 69.56 7.68L69.56 7.68Q69.56 8.21 69.19 8.57Q68.83 8.94 68.30 8.94ZM72.66 21.25L72.66 21.25L72.66 20.55Q73.90 20.54 74.37 20.24Q74.85 19.94 74.85 19.16L74.85 19.16L74.85 13.68Q74.85 12.77 74.35 12.40Q73.86 12.02 72.66 11.98L72.66 11.98L72.66 11.28Q73.05 11.30 73.45 11.32Q73.86 11.34 74.28 11.34L74.28 11.34Q75.52 11.34 76.59 11.07L76.59 11.07L76.59 19.06Q76.59 19.86 77.20 20.20Q77.81 20.54 79.30 20.55L79.30 20.55L79.30 21.25Q78.95 21.23 78.36 21.22Q77.77 21.21 77.08 21.19Q76.39 21.17 75.74 21.17L75.74 21.17Q74.81 21.17 73.95 21.20Q73.10 21.23 72.66 21.25ZM80.30 14.30L80.30 14.30Q79.92 14.30 79.66 14.07Q79.41 13.84 79.41 13.49L79.41 13.49Q79.41 13.24 79.52 13.04Q79.63 12.83 79.72 12.66Q79.82 12.48 79.82 12.31L79.82 12.31Q79.82 11.90 79.20 11.90L79.20 11.90Q78.72 11.90 78.17 12.15Q77.63 12.39 77.20 12.79Q76.76 13.20 76.53 13.68L76.53 13.68L76.47 12.95Q77.01 12.02 77.85 11.52Q78.68 11.01 79.59 11.01L79.59 11.01Q80.48 11.01 81.01 11.52Q81.54 12.02 81.54 12.85L81.54 12.85Q81.54 13.51 81.20 13.91Q80.86 14.30 80.30 14.30ZM91.99 24.15L91.99 24.15Q90.87 24.15 90.00 23.85Q89.13 23.54 88.63 22.99Q88.12 22.45 88.12 21.75L88.12 21.75Q88.12 21.15 88.46 20.79Q88.80 20.42 89.34 20.42L89.34 20.42Q89.79 20.42 90.04 20.64Q90.29 20.86 90.29 21.25L90.29 21.25Q90.29 21.54 90.16 21.77Q90.04 22.01 89.91 22.20Q89.79 22.39 89.79 22.59L89.79 22.59Q89.79 22.94 90.30 23.16Q90.81 23.38 91.63 23.38L91.63 23.38Q93.08 23.38 93.90 22.64Q94.72 21.89 94.72 20.59L94.72 20.59Q94.72 19.55 94.17 18.82Q93.62 18.10 92.59 17.83L92.59 17.83Q92.23 17.92 91.99 17.98Q91.76 18.04 91.57 18.04L91.57 18.04Q91.32 18.04 91.14 17.90Q90.97 17.77 90.97 17.55L90.97 17.55Q90.97 17.34 91.16 17.21Q91.35 17.07 91.65 17.07L91.65 17.07Q91.82 17.07 92.04 17.11Q92.26 17.15 92.57 17.19L92.57 17.19Q93.43 16.70 93.86 15.99Q94.30 15.27 94.30 14.32L94.30 14.32Q94.30 13.14 93.65 12.50Q93.00 11.86 91.80 11.86L91.80 11.86Q90.99 11.86 90.46 12.11Q89.94 12.35 89.94 12.72L89.94 12.72Q89.94 12.93 90.11 13.14Q90.27 13.35 90.44 13.60Q90.60 13.84 90.60 14.15L90.60 14.15Q90.60 14.54 90.33 14.77Q90.06 15.00 89.59 15.00L89.59 15.00Q89.03 15.00 88.69 14.65Q88.35 14.30 88.35 13.74L88.35 13.74Q88.35 12.99 88.92 12.37Q89.48 11.75 90.42 11.38Q91.35 11.01 92.50 11.01L92.50 11.01Q94.16 11.01 95.17 11.82Q96.17 12.62 96.17 13.95L96.17 13.95Q96.17 15.00 95.43 15.90Q94.68 16.80 93.33 17.42L93.33 17.42Q94.84 17.71 95.72 18.58Q96.60 19.45 96.60 20.65L96.60 20.65Q96.60 21.68 96.01 22.47Q95.42 23.26 94.38 23.71Q93.35 24.15 91.99 24.15ZM104.15 21.52L104.15 21.52Q102.68 21.52 101.56 20.87Q100.45 20.23 99.83 19.07Q99.21 17.92 99.21 16.41L99.21 16.41Q99.21 14.83 99.88 13.61Q100.55 12.39 101.70 11.70Q102.85 11.01 104.38 11.01L104.38 11.01Q105.83 11.01 106.95 11.65Q108.06 12.29 108.68 13.44Q109.30 14.59 109.30 16.10L109.30 16.10Q109.30 17.69 108.64 18.91Q107.98 20.13 106.82 20.83Q105.66 21.52 104.15 21.52ZM104.23 20.83L104.23 20.83Q105.70 20.83 106.55 19.58Q107.40 18.33 107.40 16.18L107.40 16.18Q107.40 14.09 106.57 12.90Q105.74 11.71 104.28 11.71L104.28 11.71Q102.81 11.71 101.96 12.96Q101.11 14.21 101.11 16.35L101.11 16.35Q101.11 18.43 101.94 19.63Q102.77 20.83 104.23 20.83ZM117.10 21.52L117.10 21.52Q115.63 21.52 114.51 20.87Q113.40 20.23 112.78 19.07Q112.16 17.92 112.16 16.41L112.16 16.41Q112.16 14.83 112.83 13.61Q113.50 12.39 114.65 11.70Q115.80 11.01 117.33 11.01L117.33 11.01Q118.78 11.01 119.89 11.65Q121.01 12.29 121.63 13.44Q122.25 14.59 122.25 16.10L122.25 16.10Q122.25 17.69 121.59 18.91Q120.93 20.13 119.77 20.83Q118.61 21.52 117.10 21.52ZM117.17 20.83L117.17 20.83Q118.65 20.83 119.50 19.58Q120.35 18.33 120.35 16.18L120.35 16.18Q120.35 14.09 119.52 12.90Q118.68 11.71 117.23 11.71L117.23 11.71Q115.76 11.71 114.91 12.96Q114.06 14.21 114.06 16.35L114.06 16.35Q114.06 18.43 114.89 19.63Q115.72 20.83 117.17 20.83ZM136.57 21.25L136.57 21.25L136.57 20.55Q137.42 20.52 137.74 20.22Q138.06 19.92 138.06 19.16L138.06 19.16L138.06 14.59Q138.06 13.28 137.55 12.62Q137.05 11.96 136.05 11.96L136.05 11.96Q135.23 11.96 134.53 12.41Q133.82 12.85 133.28 13.72L133.28 13.72L133.32 12.93Q133.78 12.04 134.68 11.53Q135.58 11.01 136.66 11.01L136.66 11.01Q138.17 11.01 138.99 11.98Q139.80 12.95 139.80 14.73L139.80 14.73L139.80 19.16Q139.80 19.92 140.27 20.22Q140.75 20.52 141.99 20.55L141.99 20.55L141.99 21.25Q141.70 21.23 141.19 21.22Q140.69 21.21 140.10 21.19Q139.51 21.17 138.95 21.17L138.95 21.17Q138.25 21.17 137.57 21.20Q136.90 21.23 136.57 21.25ZM129.46 21.25L129.46 21.25L129.46 20.55Q130.70 20.52 131.18 20.23Q131.65 19.94 131.65 19.16L131.65 19.16L131.65 13.68Q131.65 12.77 131.16 12.40Q130.66 12.02 129.46 11.98L129.46 11.98L129.46 11.28Q129.85 11.30 130.26 11.32Q130.66 11.34 131.09 11.34L131.09 11.34Q131.73 11.34 132.31 11.27Q132.89 11.21 133.39 11.07L133.39 11.07L133.39 19.16Q133.39 19.94 133.72 20.23Q134.05 20.52 134.90 20.55L134.90 20.55L134.90 21.25Q134.46 21.23 133.82 21.20Q133.18 21.17 132.50 21.17L132.50 21.17Q131.71 21.17 130.89 21.20Q130.06 21.23 129.46 21.25ZM148.47 21.52L148.47 21.52Q147.17 21.52 146.12 20.97Q145.06 20.42 144.45 19.27Q143.83 18.12 143.83 16.28L143.83 16.28Q143.83 14.44 144.45 13.28Q145.06 12.12 146.12 11.56Q147.17 11.01 148.47 11.01L148.47 11.01Q149.79 11.01 150.83 11.56Q151.88 12.12 152.49 13.28Q153.10 14.44 153.10 16.28L153.10 16.28Q153.10 18.10 152.49 19.26Q151.88 20.42 150.83 20.97Q149.79 21.52 148.47 21.52ZM148.47 20.83L148.47 20.83Q149.67 20.83 150.45 19.74Q151.22 18.66 151.22 16.28L151.22 16.28Q151.22 13.90 150.45 12.80Q149.67 11.71 148.47 11.71L148.47 11.71Q147.25 11.71 146.49 12.80Q145.72 13.90 145.72 16.28L145.72 16.28Q145.72 18.68 146.49 19.75Q147.25 20.83 148.47 20.83ZM155.25 21.25L155.25 21.25L155.25 20.55Q156.48 20.54 156.96 20.24Q157.43 19.94 157.43 19.16L157.43 19.16L157.43 13.68Q157.43 12.77 156.94 12.40Q156.45 12.02 155.25 11.98L155.25 11.98L155.25 11.28Q155.63 11.30 156.04 11.32Q156.45 11.34 156.87 11.34L156.87 11.34Q158.11 11.34 159.17 11.07L159.17 11.07L159.17 19.06Q159.17 19.86 159.78 20.20Q160.39 20.54 161.88 20.55L161.88 20.55L161.88 21.25Q161.54 21.23 160.95 21.22Q160.35 21.21 159.67 21.19Q158.98 21.17 158.32 21.17L158.32 21.17Q157.39 21.17 156.54 21.20Q155.69 21.23 155.25 21.25ZM162.89 14.30L162.89 14.30Q162.50 14.30 162.25 14.07Q162.00 13.84 162.00 13.49L162.00 13.49Q162.00 13.24 162.11 13.04Q162.21 12.83 162.31 12.66Q162.41 12.48 162.41 12.31L162.41 12.31Q162.41 11.90 161.79 11.90L161.79 11.90Q161.30 11.90 160.76 12.15Q160.22 12.39 159.78 12.79Q159.35 13.20 159.12 13.68L159.12 13.68L159.06 12.95Q159.60 12.02 160.43 11.52Q161.26 11.01 162.17 11.01L162.17 11.01Q163.06 11.01 163.60 11.52Q164.13 12.02 164.13 12.85L164.13 12.85Q164.13 13.51 163.79 13.91Q163.45 14.30 162.89 14.30ZM178.72 21.25L178.72 21.25L178.72 20.55Q179.55 20.52 179.86 20.22Q180.17 19.92 180.17 19.16L180.17 19.16L180.17 14.59Q180.17 13.30 179.69 12.63Q179.21 11.96 178.26 11.96L178.26 11.96Q177.43 11.96 176.71 12.45Q175.99 12.95 175.45 13.97L175.45 13.97L175.35 13.37Q175.90 12.15 176.84 11.58Q177.77 11.01 178.86 11.01L178.86 11.01Q180.33 11.01 181.12 11.98Q181.92 12.95 181.92 14.73L181.92 14.73L181.92 19.16Q181.92 19.92 182.39 20.22Q182.86 20.52 184.10 20.55L184.10 20.55L184.10 21.25Q183.81 21.23 183.31 21.22Q182.81 21.21 182.22 21.19Q181.63 21.17 181.06 21.17L181.06 21.17Q180.37 21.17 179.71 21.20Q179.05 21.23 178.72 21.25ZM165.56 21.25L165.56 21.25L165.56 20.55Q166.80 20.52 167.27 20.23Q167.75 19.94 167.75 19.16L167.75 19.16L167.75 13.68Q167.75 12.77 167.25 12.40Q166.76 12.02 165.56 11.98L165.56 11.98L165.56 11.28Q165.95 11.30 166.35 11.32Q166.76 11.34 167.19 11.34L167.19 11.34Q167.83 11.34 168.41 11.27Q168.99 11.21 169.49 11.07L169.49 11.07L169.49 19.16Q169.49 19.94 169.81 20.23Q170.13 20.52 170.94 20.55L170.94 20.55L170.94 21.25Q170.52 21.23 169.90 21.20Q169.28 21.17 168.60 21.17L168.60 21.17Q167.81 21.17 166.98 21.20Q166.16 21.23 165.56 21.25ZM172.51 21.25L172.51 21.25L172.51 20.55Q173.34 20.52 173.65 20.22Q173.96 19.92 173.96 19.16L173.96 19.16L173.96 14.59Q173.96 13.30 173.48 12.63Q172.99 11.96 172.05 11.96L172.05 11.96Q171.25 11.96 170.57 12.41Q169.90 12.85 169.37 13.72L169.37 13.72L169.41 12.93Q169.86 12.04 170.73 11.53Q171.60 11.01 172.65 11.01L172.65 11.01Q174.12 11.01 174.91 11.98Q175.70 12.95 175.70 14.73L175.70 14.73L175.70 19.16Q175.70 19.92 176.01 20.22Q176.32 20.52 177.15 20.55L177.15 20.55L177.15 21.25Q176.83 21.23 176.16 21.20Q175.49 21.17 174.83 21.17L174.83 21.17Q174.17 21.17 173.51 21.20Q172.84 21.23 172.51 21.25ZM188.92 21.52L188.92 21.52Q187.61 21.52 186.83 20.84Q186.06 20.15 186.06 18.99L186.06 18.99Q186.06 18.10 186.49 17.54Q186.93 16.97 187.63 16.64Q188.32 16.30 189.09 16.08Q189.85 15.87 190.54 15.69Q191.23 15.50 191.66 15.25Q192.10 15.00 192.10 14.57L192.10 14.57L192.10 13.63Q192.10 12.68 191.55 12.21Q190.99 11.75 189.91 11.75L189.91 11.75Q189.12 11.75 188.57 11.96Q188.03 12.17 188.03 12.50L188.03 12.50Q188.03 12.68 188.16 12.89Q188.28 13.10 188.41 13.35Q188.54 13.59 188.54 13.86L188.54 13.86Q188.54 14.23 188.27 14.46Q188.01 14.69 187.59 14.69L187.59 14.69Q187.08 14.69 186.76 14.35Q186.45 14.01 186.45 13.47L186.45 13.47Q186.45 12.77 186.98 12.22Q187.51 11.67 188.42 11.34Q189.33 11.01 190.45 11.01L190.45 11.01Q191.65 11.01 192.40 11.38Q193.14 11.75 193.49 12.52Q193.84 13.30 193.84 14.54L193.84 14.54L193.84 19.70Q193.84 20.17 193.99 20.39Q194.15 20.61 194.50 20.61L194.50 20.61Q194.83 20.61 195.16 20.44Q195.50 20.26 195.81 20.03L195.81 20.03L196.16 20.59Q195.66 21.06 195.13 21.29Q194.59 21.52 193.90 21.52L193.90 21.52Q192.08 21.52 192.10 19.80L192.10 19.80Q191.52 20.65 190.72 21.09Q189.93 21.52 188.92 21.52ZM189.60 20.42L189.60 20.42Q190.34 20.42 190.97 20.06Q191.61 19.70 192.10 19.03L192.10 19.03L192.10 15.50Q191.88 15.83 191.41 16.05Q190.94 16.26 190.34 16.46Q189.74 16.66 189.17 16.94Q188.61 17.21 188.25 17.64Q187.90 18.08 187.90 18.77L187.90 18.77Q187.90 19.55 188.35 19.98Q188.81 20.42 189.60 20.42ZM196.92 21.25L196.92 21.25L196.92 20.55Q198.14 20.54 198.62 20.24Q199.10 19.94 199.10 19.16L199.10 19.16L199.10 8.69Q199.10 7.80 198.63 7.41Q198.15 7.03 196.92 6.99L196.92 6.99L196.92 6.29Q197.30 6.31 197.72 6.33Q198.14 6.35 198.54 6.35L198.54 6.35Q199.18 6.35 199.77 6.28Q200.36 6.21 200.85 6.08L200.85 6.08L200.85 19.16Q200.85 19.94 201.33 20.24Q201.81 20.54 203.01 20.55L203.01 20.55L203.01 21.25Q202.72 21.23 202.23 21.22Q201.74 21.21 201.14 21.19Q200.54 21.17 199.97 21.17L199.97 21.17Q199.10 21.17 198.23 21.20Q197.36 21.23 196.92 21.25Z"/></svg>