<svg xmlns="http://www.w3.org/2000/svg" xmlns:xlink="http://www.w3.org/1999/xlink" width="69.696" height="27.72"><path fill="black" d="M2.64 21.94L2.71 5.57Q4.85 5.28 7.12 5.28Q9.38 5.28 10.73 6.41Q12.07 7.54 12.07 9.58L12.07 9.58Q12.07 13.06 8.54 14.02L8.54 14.02L10.94 18.74Q11.52 19.92 12.01 20.39Q12.50 20.86 13.20 20.86L13.20 20.86L13.27 22.01Q13.18 22.10 12.32 22.10Q11.47 22.10 10.80 21.49Q10.13 20.88 9.48 19.58L9.48 19.58L6.79 14.30Q6.43 14.38 5.95 14.38L5.95 14.38L4.46 14.38L4.46 21.94L2.64 21.94ZM4.46 7.01L4.46 12.86L6 12.86Q10.15 12.86 10.15 9.67L10.15 9.67Q10.15 6.86 6.84 6.86L6.84 6.86Q5.50 6.86 4.46 7.01L4.46 7.01ZM15.86 12.31L15.86 12.31Q15.86 11.16 15.58 10.61L15.58 10.61L16.94 10.37Q17.35 10.46 17.46 10.85Q17.57 11.23 17.57 11.64L17.57 11.64Q17.57 11.93 17.47 14.94Q17.38 17.95 17.38 18.29Q17.38 18.62 17.41 19.04Q17.45 19.46 17.64 19.92L17.64 19.92Q17.98 20.86 19.27 20.86L19.27 20.86Q20.23 20.86 20.92 20.17Q21.60 19.49 21.91 18.36L21.91 18.36Q22.51 16.32 22.51 13.90L22.51 13.90L22.51 10.66L24.12 10.66L24.12 17.21Q24.12 19.34 24.43 20.15Q24.74 20.95 25.82 20.95L25.82 20.95L25.87 22.03Q25.49 22.13 24.91 22.13L24.91 22.13Q23.71 22.13 23.24 21.42Q22.78 20.71 22.78 19.78L22.78 19.78Q22.78 19.51 22.80 19.22L22.80 19.22L22.66 19.22Q22.27 20.69 21.25 21.46Q20.23 22.22 18.59 22.22Q16.94 22.22 16.30 21.22Q15.65 20.21 15.65 18.46L15.65 18.46Q15.65 18.24 15.76 15.36Q15.86 12.48 15.86 12.31ZM28.70 19.87L28.70 19.87L28.70 4.34L30.43 4.06L30.43 18.89Q30.43 20.16 30.62 20.53Q30.82 20.90 31.73 20.90L31.73 20.90L31.78 21.96Q31.39 22.13 30.48 22.13Q29.57 22.13 29.14 21.60Q28.70 21.07 28.70 19.87ZM34.99 12.31L34.99 12.31Q34.99 11.16 34.70 10.61L34.70 10.61L36.07 10.37Q36.48 10.46 36.59 10.85Q36.70 11.23 36.70 11.64L36.70 11.64Q36.70 11.93 36.60 14.94Q36.50 17.95 36.50 18.29Q36.50 18.62 36.54 19.04Q36.58 19.46 36.77 19.92L36.77 19.92Q37.10 20.86 38.40 20.86L38.40 20.86Q39.36 20.86 40.04 20.17Q40.73 19.49 41.04 18.36L41.04 18.36Q41.64 16.32 41.64 13.90L41.64 13.90L41.64 10.66L43.25 10.66L43.25 17.21Q43.25 19.34 43.56 20.15Q43.87 20.95 44.95 20.95L44.95 20.95L45 22.03Q44.62 22.13 44.04 22.13L44.04 22.13Q42.84 22.13 42.37 21.42Q41.90 20.71 41.90 19.78L41.90 19.78Q41.90 19.51 41.93 19.22L41.93 19.22L41.78 19.22Q41.40 20.69 40.38 21.46Q39.36 22.22 37.72 22.22Q36.07 22.22 35.42 21.22Q34.78 20.21 34.78 18.46L34.78 18.46Q34.78 18.24 34.88 15.36Q34.99 12.48 34.99 12.31ZM49.42 21.94L47.78 21.94L47.78 4.34L49.42 4.06L49.44 10.66Q49.44 11.93 49.25 13.03L49.25 13.03L49.39 13.03Q49.80 11.81 50.78 11.09Q51.77 10.37 53.09 10.37Q54.41 10.37 55.26 11.09Q56.11 11.81 56.11 13.12Q56.11 14.42 55.08 15.30Q54.05 16.18 52.51 16.51L52.51 16.51L53.90 18.94Q54.55 20.04 55.08 20.48Q55.61 20.93 56.33 20.93L56.33 20.93L56.38 22.01Q56.23 22.13 55.66 22.13L55.66 22.13Q54.50 22.13 53.81 21.54Q53.11 20.95 52.46 19.70L52.46 19.70L50.59 16.13L50.59 15.70Q52.10 15.70 53.21 15.02Q54.31 14.35 54.31 13.10L54.31 13.10Q54.31 12.43 53.87 12.07Q53.42 11.71 52.73 11.71L52.73 11.71Q51.60 11.71 50.81 12.55L50.81 12.55Q49.42 14.06 49.42 16.99L49.42 16.99L49.42 21.94ZM63.26 20.95L63.26 20.95Q64.46 20.95 65.23 20.21Q66 19.46 66.28 18.41Q66.55 17.35 66.55 15.98L66.55 15.98Q66.55 11.69 63.50 11.69L63.50 11.69Q62.38 11.69 61.63 12.41L61.63 12.41Q60.29 13.68 60.29 16.46L60.29 16.46Q60.29 20.95 63.26 20.95ZM68.35 16.01Q68.35 18.65 67.02 20.44Q65.69 22.22 63.18 22.22Q60.67 22.22 59.62 20.77Q58.56 19.32 58.56 16.51Q58.56 13.70 59.78 12.04Q61.01 10.37 63.48 10.37Q65.95 10.37 67.15 11.87Q68.35 13.37 68.35 16.01Z"/></svg>