<svg xmlns="http://www.w3.org/2000/svg" xmlns:xlink="http://www.w3.org/1999/xlink" width="348.528" height="40.872"><path fill="black" d="M6.94 25.66L0.91 25.66L0.91 24.65L1.22 24.65Q2.04 24.65 2.62 24.35Q3.19 24.05 3.19 22.92L3.19 22.92L3.19 11.16Q3.19 10.10 2.60 9.82Q2.02 9.53 1.22 9.53L1.22 9.53L0.91 9.53L0.91 8.52L5.30 8.52L13.90 21.79L13.90 11.16Q13.90 10.10 13.31 9.82Q12.72 9.53 11.93 9.53L11.93 9.53L11.62 9.53L11.62 8.52L17.64 8.52L17.64 9.53L17.33 9.53Q16.51 9.53 15.94 9.83Q15.36 10.13 15.36 11.26L15.36 11.26L15.36 25.66L13.66 25.66L4.66 11.83L4.66 22.92Q4.66 24.05 5.23 24.35Q5.81 24.65 6.62 24.65L6.62 24.65L6.94 24.65L6.94 25.66ZM25.20 25.90L25.20 25.90Q22.61 25.90 21.12 24.24Q19.63 22.58 19.63 19.20L19.63 19.20Q19.63 15.84 21.06 14.20Q22.49 12.55 25.27 12.55L25.27 12.55Q27.86 12.55 29.35 14.20Q30.84 15.84 30.84 19.20L30.84 19.20Q30.84 22.58 29.41 24.24Q27.98 25.90 25.20 25.90ZM25.25 24.65L25.25 24.65Q27.05 24.65 27.78 23.27Q28.51 21.89 28.51 19.20L28.51 19.20Q28.51 16.51 27.77 15.17Q27.02 13.82 25.22 13.82L25.22 13.82Q23.42 13.82 22.69 15.17Q21.96 16.51 21.96 19.20L21.96 19.20Q21.96 21.89 22.70 23.27Q23.45 24.65 25.25 24.65ZM37.92 25.90L37.92 25.90Q36.10 25.90 35.27 25.07Q34.44 24.24 34.44 22.18L34.44 22.18L34.44 14.16L32.62 14.16L32.62 13.20Q33.05 13.20 33.58 13.02Q34.10 12.84 34.49 12.43L34.49 12.43Q34.90 12.00 35.16 11.38Q35.42 10.75 35.59 9.84L35.59 9.84L36.70 9.84L36.70 12.79L39.84 12.79L39.84 14.16L36.70 14.16L36.70 22.25Q36.70 23.47 37.20 24.05Q37.70 24.62 38.52 24.62L38.52 24.62Q38.95 24.62 39.31 24.58Q39.67 24.53 40.06 24.46L40.06 24.46L40.06 25.51Q39.74 25.66 39.12 25.78Q38.50 25.90 37.92 25.90ZM47.50 25.90L47.50 25.90Q44.90 25.90 43.42 24.24Q41.93 22.58 41.93 19.20L41.93 19.20Q41.93 15.84 43.36 14.20Q44.78 12.55 47.57 12.55L47.57 12.55Q50.16 12.55 51.65 14.20Q53.14 15.84 53.14 19.20L53.14 19.20Q53.14 22.58 51.71 24.24Q50.28 25.90 47.50 25.90ZM47.54 24.65L47.54 24.65Q49.34 24.65 50.08 23.27Q50.81 21.89 50.81 19.20L50.81 19.20Q50.81 16.51 50.06 15.17Q49.32 13.82 47.52 13.82L47.52 13.82Q45.72 13.82 44.99 15.17Q44.26 16.51 44.26 19.20L44.26 19.20Q44.26 21.89 45.00 23.27Q45.74 24.65 47.54 24.65ZM66.70 25.66L60.67 25.66L60.67 24.65L60.98 24.65Q61.80 24.65 62.38 24.35Q62.95 24.05 62.95 22.92L62.95 22.92L62.95 11.16Q62.95 10.10 62.36 9.82Q61.78 9.53 60.98 9.53L60.98 9.53L60.67 9.53L60.67 8.52L65.06 8.52L73.66 21.79L73.66 11.16Q73.66 10.10 73.07 9.82Q72.48 9.53 71.69 9.53L71.69 9.53L71.38 9.53L71.38 8.52L77.40 8.52L77.40 9.53L77.09 9.53Q76.27 9.53 75.70 9.83Q75.12 10.13 75.12 11.26L75.12 11.26L75.12 25.66L73.42 25.66L64.42 11.83L64.42 22.92Q64.42 24.05 64.99 24.35Q65.57 24.65 66.38 24.65L66.38 24.65L66.70 24.65L66.70 25.66ZM82.99 25.90L82.99 25.90Q81.38 25.90 80.33 24.96Q79.27 24.02 79.27 22.06L79.27 22.06Q79.27 20.14 80.63 19.22Q81.98 18.31 84.74 18.22L84.74 18.22L86.74 18.14L86.74 16.70Q86.74 15.84 86.59 15.18Q86.45 14.52 85.97 14.14Q85.49 13.75 84.50 13.75L84.50 13.75Q83.59 13.75 83.11 14.09Q82.63 14.42 82.48 15.01Q82.32 15.60 82.32 16.37L82.32 16.37Q81.31 16.37 80.80 16.02Q80.28 15.67 80.28 14.86L80.28 14.86Q80.28 14.02 80.87 13.51Q81.46 13.01 82.44 12.78Q83.42 12.55 84.60 12.55L84.60 12.55Q86.81 12.55 87.90 13.49Q88.99 14.42 88.99 16.70L88.99 16.70L88.99 22.92Q88.99 23.93 89.33 24.29Q89.66 24.65 90.48 24.65L90.48 24.65L90.55 24.65L90.55 25.66L87.31 25.66L86.93 23.59L86.74 23.59Q86.23 24.26 85.75 24.78Q85.27 25.30 84.64 25.60Q84 25.90 82.99 25.90ZM83.54 24.41L83.54 24.41Q85.01 24.41 85.87 23.51Q86.74 22.61 86.74 21.07L86.74 21.07L86.74 19.13L85.20 19.20Q83.16 19.30 82.38 20.03Q81.60 20.76 81.60 22.18L81.60 22.18Q81.60 24.41 83.54 24.41ZM96.62 25.90L96.62 25.90Q94.82 25.90 93.74 25.25Q92.66 24.60 92.66 23.35L92.66 23.35Q92.66 22.70 92.93 22.34Q93.19 21.98 93.54 21.84Q93.89 21.70 94.18 21.70L94.18 21.70Q94.18 22.94 94.74 23.84Q95.30 24.74 96.77 24.74L96.77 24.74Q98.04 24.74 98.72 24.13Q99.41 23.52 99.41 22.56L99.41 22.56Q99.41 21.96 99.16 21.58Q98.90 21.19 98.27 20.82Q97.63 20.45 96.46 19.94L96.46 19.94Q95.23 19.39 94.43 18.88Q93.62 18.36 93.23 17.68Q92.83 16.99 92.83 15.96L92.83 15.96Q92.83 14.33 94.07 13.45Q95.30 12.58 97.34 12.58L97.34 12.58Q98.50 12.58 99.28 12.88Q100.06 13.18 100.45 13.68Q100.85 14.18 100.85 14.78L100.85 14.78Q100.85 15.43 100.40 15.83Q99.96 16.22 99.12 16.22L99.12 16.22Q99.12 15.02 98.62 14.35Q98.11 13.68 97.06 13.68L97.06 13.68Q95.83 13.68 95.30 14.22Q94.78 14.76 94.78 15.60L94.78 15.60Q94.78 16.20 95.08 16.61Q95.38 17.02 96.04 17.36Q96.70 17.71 97.75 18.14L97.75 18.14Q99.02 18.67 99.82 19.20Q100.61 19.73 100.98 20.42Q101.35 21.12 101.35 22.13L101.35 22.13Q101.35 24 100.06 24.95Q98.76 25.90 96.62 25.90ZM109.30 25.66L102.84 25.66L102.84 24.65L103.03 24.65Q103.58 24.65 104.03 24.53Q104.47 24.41 104.74 24.04Q105 23.66 105 22.92L105 22.92L105 10.06Q105 9.34 104.72 8.99Q104.45 8.64 104.00 8.53Q103.56 8.42 103.03 8.42L103.03 8.42L102.84 8.42L102.84 7.42L107.26 7.42L107.26 16.68Q107.26 16.99 107.24 17.50Q107.23 18 107.21 18.50Q107.18 19.01 107.17 19.36Q107.16 19.70 107.16 19.70L107.16 19.70L110.16 16.42Q110.93 15.55 111.20 15.08Q111.48 14.62 111.48 14.28L111.48 14.28Q111.48 13.97 111.19 13.88Q110.90 13.80 110.30 13.80L110.30 13.80L110.30 12.79L115.61 12.79L115.61 13.80Q114.79 13.80 113.98 14.39Q113.16 14.98 112.22 16.03L112.22 16.03L110.54 17.93L113.74 22.68Q114.36 23.64 114.97 24.14Q115.58 24.65 116.40 24.65L116.40 24.65L116.47 24.65L116.47 25.66L116.14 25.66Q115.10 25.66 114.41 25.58Q113.71 25.51 113.24 25.28Q112.78 25.06 112.36 24.59Q111.94 24.12 111.43 23.33L111.43 23.33L109.03 19.56L107.26 20.88L107.26 23.04Q107.26 23.74 107.53 24.08Q107.81 24.43 108.25 24.54Q108.70 24.65 109.22 24.65L109.22 24.65L109.30 24.65L109.30 25.66ZM123.34 25.66L116.88 25.66L116.88 24.65L117.07 24.65Q117.89 24.65 118.46 24.35Q119.04 24.05 119.04 22.92L119.04 22.92L119.04 10.06Q119.04 9.34 118.76 8.99Q118.49 8.64 118.04 8.53Q117.60 8.42 117.07 8.42L117.07 8.42L116.88 8.42L116.88 7.42L121.30 7.42L121.30 12.70Q121.30 13.13 121.27 13.60Q121.25 14.06 121.22 14.40Q121.20 14.74 121.20 14.74L121.20 14.74L121.32 14.74Q121.68 14.02 122.20 13.52Q122.71 13.03 123.37 12.79Q124.03 12.55 124.85 12.55L124.85 12.55Q126.91 12.55 128.00 13.67Q129.10 14.78 129.10 17.26L129.10 17.26L129.10 22.92Q129.10 24.05 129.61 24.35Q130.13 24.65 130.94 24.65L130.94 24.65L131.02 24.65L131.02 25.66L126.84 25.66L126.84 17.38Q126.84 15.82 126.25 14.95Q125.66 14.09 124.20 14.09L124.20 14.09Q123.22 14.09 122.57 14.57Q121.92 15.05 121.61 15.92Q121.30 16.80 121.30 17.98L121.30 17.98L121.30 23.04Q121.30 24.10 121.88 24.37Q122.47 24.65 123.26 24.65L123.26 24.65L123.34 24.65L123.34 25.66ZM142.85 25.66L136.99 25.66L136.99 24.65L137.45 24.65Q138.14 24.65 138.49 24.29Q138.84 23.93 139.27 22.78L139.27 22.78L144.60 8.52L146.47 8.52L151.90 23.38Q152.16 24.12 152.53 24.38Q152.90 24.65 153.60 24.65L153.60 24.65L153.91 24.65L153.91 25.66L147.31 25.66L147.31 24.65L147.86 24.65Q148.58 24.65 148.94 24.37Q149.30 24.10 149.30 23.50L149.30 23.50Q149.30 23.30 149.26 23.09Q149.21 22.87 149.11 22.61L149.11 22.61L148.15 19.92L141.84 19.92L140.93 22.44Q140.83 22.73 140.77 23.00Q140.71 23.28 140.71 23.47L140.71 23.47Q140.71 24.07 141.11 24.36Q141.50 24.65 142.30 24.65L142.30 24.65L142.85 24.65L142.85 25.66ZM143.93 14.30L142.30 18.72L147.72 18.72L146.23 14.52Q145.85 13.46 145.54 12.53Q145.22 11.59 145.03 10.73L145.03 10.73Q144.86 11.59 144.60 12.38Q144.34 13.18 143.93 14.30L143.93 14.30ZM161.64 25.66L154.70 25.66L154.70 24.65L154.78 24.65Q155.59 24.65 156.17 24.35Q156.74 24.05 156.74 22.92L156.74 22.92L156.74 15.43Q156.74 14.38 156.16 14.09Q155.57 13.80 154.78 13.80L154.78 13.80L154.70 13.80L154.70 12.79L158.40 12.79L158.86 15.17L158.98 15.17Q159.29 14.45 159.65 13.85Q160.01 13.25 160.61 12.90Q161.21 12.55 162.26 12.55L162.26 12.55Q163.58 12.55 164.22 13.01Q164.86 13.46 164.86 14.30L164.86 14.30Q164.86 15.05 164.34 15.53Q163.82 16.01 162.62 16.01L162.62 16.01Q162.62 15.02 162.34 14.58Q162.05 14.14 161.35 14.14L161.35 14.14Q160.68 14.14 160.22 14.66Q159.77 15.19 159.50 16.01Q159.24 16.82 159.12 17.70Q159.00 18.58 159.00 19.27L159.00 19.27L159.00 23.04Q159.00 24.10 159.59 24.37Q160.18 24.65 160.97 24.65L160.97 24.65L161.64 24.65L161.64 25.66ZM169.66 25.90L169.66 25.90Q168.05 25.90 166.99 24.96Q165.94 24.02 165.94 22.06L165.94 22.06Q165.94 20.14 167.29 19.22Q168.65 18.31 171.41 18.22L171.41 18.22L173.40 18.14L173.40 16.70Q173.40 15.84 173.26 15.18Q173.11 14.52 172.63 14.14Q172.15 13.75 171.17 13.75L171.17 13.75Q170.26 13.75 169.78 14.09Q169.30 14.42 169.14 15.01Q168.98 15.60 168.98 16.37L168.98 16.37Q167.98 16.37 167.46 16.02Q166.94 15.67 166.94 14.86L166.94 14.86Q166.94 14.02 167.53 13.51Q168.12 13.01 169.10 12.78Q170.09 12.55 171.26 12.55L171.26 12.55Q173.47 12.55 174.56 13.49Q175.66 14.42 175.66 16.70L175.66 16.70L175.66 22.92Q175.66 23.93 175.99 24.29Q176.33 24.65 177.14 24.65L177.14 24.65L177.22 24.65L177.22 25.66L173.98 25.66L173.59 23.59L173.40 23.59Q172.90 24.26 172.42 24.78Q171.94 25.30 171.30 25.60Q170.66 25.90 169.66 25.90ZM170.21 24.41L170.21 24.41Q171.67 24.41 172.54 23.51Q173.40 22.61 173.40 21.07L173.40 21.07L173.40 19.13L171.86 19.20Q169.82 19.30 169.04 20.03Q168.26 20.76 168.26 22.18L168.26 22.18Q168.26 24.41 170.21 24.41ZM186.77 25.90L186.77 25.90Q185.38 25.90 184.50 25.31Q183.62 24.72 183.10 23.78L183.10 23.78L182.95 23.78L182.52 25.66L178.68 25.66L178.68 24.65L178.87 24.65Q179.42 24.65 179.87 24.53Q180.31 24.41 180.58 24.04Q180.84 23.66 180.84 22.92L180.84 22.92L180.84 10.06Q180.84 9 180.25 8.71Q179.66 8.42 178.87 8.42L178.87 8.42L178.68 8.42L178.68 7.42L183.10 7.42L183.10 11.83Q183.10 12.24 183.08 12.88Q183.07 13.51 183.05 14.10Q183.02 14.69 183.00 14.95L183.00 14.95L183.10 14.95Q183.65 13.85 184.51 13.20Q185.38 12.55 186.77 12.55L186.77 12.55Q189.14 12.55 190.40 14.15Q191.66 15.74 191.66 19.20L191.66 19.20Q191.66 22.68 190.40 24.29Q189.14 25.90 186.77 25.90ZM186.38 24.36L186.38 24.36Q187.97 24.36 188.65 23.03Q189.34 21.70 189.34 19.18L189.34 19.18Q189.34 16.61 188.65 15.35Q187.97 14.09 186.36 14.09L186.36 14.09Q184.49 14.09 183.79 15.35Q183.10 16.61 183.10 19.20L183.10 19.20Q183.10 21.70 183.79 23.03Q184.49 24.36 186.38 24.36ZM200.35 25.66L193.54 25.66L193.54 24.65L193.85 24.65Q194.38 24.65 194.82 24.54Q195.26 24.43 195.54 24.08Q195.82 23.74 195.82 23.04L195.82 23.04L195.82 15.43Q195.82 14.71 195.54 14.36Q195.26 14.02 194.82 13.91Q194.38 13.80 193.85 13.80L193.85 13.80L193.78 13.80L193.78 12.79L198.07 12.79L198.07 22.92Q198.07 23.66 198.34 24.04Q198.60 24.41 199.06 24.53Q199.51 24.65 200.04 24.65L200.04 24.65L200.35 24.65L200.35 25.66ZM196.85 10.39L196.85 10.39Q196.27 10.39 195.88 10.06Q195.48 9.72 195.48 8.90L195.48 8.90Q195.48 8.06 195.88 7.74Q196.27 7.42 196.85 7.42L196.85 7.42Q197.40 7.42 197.81 7.74Q198.22 8.06 198.22 8.90L198.22 8.90Q198.22 9.72 197.81 10.06Q197.40 10.39 196.85 10.39ZM207.46 25.90L207.46 25.90Q205.87 25.90 204.64 25.22Q203.40 24.55 202.69 23.10Q201.98 21.65 201.98 19.30L201.98 19.30Q201.98 16.73 202.69 15.25Q203.40 13.78 204.61 13.16Q205.82 12.55 207.34 12.55L207.34 12.55Q208.34 12.55 209.30 12.82Q210.26 13.08 210.89 13.62Q211.51 14.16 211.51 15.00L211.51 15.00Q211.51 15.55 211.27 15.89Q211.03 16.22 210.56 16.37Q210.10 16.51 209.38 16.51L209.38 16.51Q209.38 15.74 209.20 15.12Q209.02 14.50 208.58 14.12Q208.15 13.75 207.34 13.75L207.34 13.75Q206.42 13.75 205.74 14.23Q205.06 14.71 204.68 15.91Q204.31 17.11 204.31 19.27L204.31 19.27Q204.31 21.82 205.16 23.08Q206.02 24.34 207.94 24.34L207.94 24.34Q209.06 24.34 209.89 23.87Q210.72 23.40 211.13 22.66L211.13 22.66Q211.32 22.80 211.43 23.03Q211.54 23.26 211.54 23.59L211.54 23.59Q211.54 24.14 211.08 24.67Q210.62 25.20 209.72 25.55Q208.82 25.90 207.46 25.90ZM228.53 25.66L226.49 25.66L226.49 21.77L218.28 21.77L218.28 19.97L226.34 8.42L228.53 8.42L228.53 19.87L231.02 19.87L231.02 21.77L228.53 21.77L228.53 25.66ZM225.48 12.55L220.34 19.87L226.49 19.87L226.49 14.47Q226.49 14.06 226.50 13.63Q226.51 13.20 226.52 12.73Q226.54 12.26 226.56 11.75Q226.58 11.23 226.61 10.68L226.61 10.68L226.51 10.68Q226.39 10.99 226.07 11.60Q225.74 12.22 225.48 12.55L225.48 12.55ZM238.34 25.90L238.34 25.90Q235.56 25.90 234.12 23.65Q232.68 21.41 232.68 17.06L232.68 17.06Q232.68 12.58 234.06 10.42Q235.44 8.26 238.34 8.26L238.34 8.26Q241.13 8.26 242.59 10.51Q244.06 12.77 244.06 17.06L244.06 17.06Q244.06 21.53 242.64 23.71Q241.22 25.90 238.34 25.90ZM238.34 24.10L238.34 24.10Q239.78 24.10 240.60 23.11L240.60 23.11Q241.92 21.55 241.92 17.06L241.92 17.06Q241.92 12.26 240.38 10.80L240.38 10.80Q239.62 10.06 238.34 10.06L238.34 10.06Q236.86 10.06 236.02 11.11L236.02 11.11Q234.79 12.65 234.79 17.06L234.79 17.06Q234.79 21.62 236.11 23.16L236.11 23.16Q236.90 24.10 238.34 24.10ZM252.07 25.90L252.07 25.90Q249.29 25.90 247.85 23.65Q246.41 21.41 246.41 17.06L246.41 17.06Q246.41 12.58 247.79 10.42Q249.17 8.26 252.07 8.26L252.07 8.26Q254.86 8.26 256.32 10.51Q257.78 12.77 257.78 17.06L257.78 17.06Q257.78 21.53 256.37 23.71Q254.95 25.90 252.07 25.90ZM252.07 24.10L252.07 24.10Q253.51 24.10 254.33 23.11L254.33 23.11Q255.65 21.55 255.65 17.06L255.65 17.06Q255.65 12.26 254.11 10.80L254.11 10.80Q253.34 10.06 252.07 10.06L252.07 10.06Q250.58 10.06 249.74 11.11L249.74 11.11Q248.52 12.65 248.52 17.06L248.52 17.06Q248.52 21.62 249.84 23.16L249.84 23.16Q250.63 24.10 252.07 24.10ZM271.39 25.66L264.94 25.66L264.94 24.65L265.13 24.65Q265.94 24.65 266.52 24.35Q267.10 24.05 267.10 22.92L267.10 22.92L267.10 15.43Q267.10 14.38 266.53 14.09Q265.97 13.80 265.18 13.80L265.18 13.80L265.06 13.80L265.06 12.79L268.94 12.79L269.26 14.74L269.38 14.74Q269.88 13.82 270.44 13.36Q271.01 12.89 271.68 12.72Q272.35 12.55 273.12 12.55L273.12 12.55Q275.02 12.55 276.08 13.67Q277.15 14.78 277.15 17.26L277.15 17.26L277.15 22.92Q277.15 24.05 277.64 24.35Q278.14 24.65 278.95 24.65L278.95 24.65L279.07 24.65L279.07 25.66L274.90 25.66L274.90 17.38Q274.90 15.82 274.31 14.95Q273.72 14.09 272.26 14.09L272.26 14.09Q271.18 14.09 270.54 14.63Q269.90 15.17 269.63 16.06Q269.35 16.94 269.35 17.98L269.35 17.98L269.35 23.04Q269.35 24.10 269.92 24.37Q270.48 24.65 271.27 24.65L271.27 24.65L271.39 24.65L271.39 25.66ZM286.63 25.90L286.63 25.90Q284.04 25.90 282.55 24.24Q281.06 22.58 281.06 19.20L281.06 19.20Q281.06 15.84 282.49 14.20Q283.92 12.55 286.70 12.55L286.70 12.55Q289.30 12.55 290.78 14.20Q292.27 15.84 292.27 19.20L292.27 19.20Q292.27 22.58 290.84 24.24Q289.42 25.90 286.63 25.90ZM286.68 24.65L286.68 24.65Q288.48 24.65 289.21 23.27Q289.94 21.89 289.94 19.20L289.94 19.20Q289.94 16.51 289.20 15.17Q288.46 13.82 286.66 13.82L286.66 13.82Q284.86 13.82 284.12 15.17Q283.39 16.51 283.39 19.20L283.39 19.20Q283.39 21.89 284.14 23.27Q284.88 24.65 286.68 24.65ZM301.32 25.66L294.38 25.66L294.38 24.65L294.46 24.65Q295.27 24.65 295.85 24.35Q296.42 24.05 296.42 22.92L296.42 22.92L296.42 15.43Q296.42 14.38 295.84 14.09Q295.25 13.80 294.46 13.80L294.46 13.80L294.38 13.80L294.38 12.79L298.08 12.79L298.54 15.17L298.66 15.17Q298.97 14.45 299.33 13.85Q299.69 13.25 300.29 12.90Q300.89 12.55 301.94 12.55L301.94 12.55Q303.26 12.55 303.90 13.01Q304.54 13.46 304.54 14.30L304.54 14.30Q304.54 15.05 304.02 15.53Q303.50 16.01 302.30 16.01L302.30 16.01Q302.30 15.02 302.02 14.58Q301.73 14.14 301.03 14.14L301.03 14.14Q300.36 14.14 299.90 14.66Q299.45 15.19 299.18 16.01Q298.92 16.82 298.80 17.70Q298.68 18.58 298.68 19.27L298.68 19.27L298.68 23.04Q298.68 24.10 299.27 24.37Q299.86 24.65 300.65 24.65L300.65 24.65L301.32 24.65L301.32 25.66ZM312.02 25.66L305.57 25.66L305.57 24.65L305.88 24.65Q306.70 24.65 307.21 24.35Q307.73 24.05 307.73 22.92L307.73 22.92L307.73 15.43Q307.73 14.38 307.20 14.09Q306.67 13.80 305.88 13.80L305.88 13.80L305.81 13.80L305.81 12.79L309.58 12.79L309.89 14.74L310.01 14.74Q310.49 13.82 311.04 13.36Q311.59 12.89 312.24 12.72Q312.89 12.55 313.63 12.55L313.63 12.55Q314.78 12.55 315.72 13.04Q316.66 13.54 317.11 14.74L317.11 14.74L317.30 14.74Q317.78 13.82 318.37 13.36Q318.96 12.89 319.64 12.72Q320.33 12.55 321.07 12.55L321.07 12.55Q322.92 12.55 323.95 13.67Q324.98 14.78 324.98 17.26L324.98 17.26L324.98 22.92Q324.98 24.05 325.50 24.35Q326.02 24.65 326.83 24.65L326.83 24.65L326.90 24.65L326.90 25.66L322.73 25.66L322.73 17.38Q322.73 15.82 322.16 14.95Q321.60 14.09 320.21 14.09L320.21 14.09Q319.22 14.09 318.64 14.58Q318.05 15.07 317.80 15.89Q317.54 16.70 317.54 17.66L317.54 17.66L317.54 22.92Q317.54 24.05 318.06 24.35Q318.58 24.65 319.39 24.65L319.39 24.65L319.46 24.65L319.46 25.66L315.29 25.66L315.29 17.38Q315.29 15.82 314.72 14.95Q314.16 14.09 312.77 14.09L312.77 14.09Q311.74 14.09 311.12 14.63Q310.51 15.17 310.25 16.06Q309.98 16.94 309.98 17.98L309.98 17.98L309.98 23.04Q309.98 24.10 310.57 24.37Q311.16 24.65 311.95 24.65L311.95 24.65L312.02 24.65L312.02 25.66ZM332.50 25.90L332.50 25.90Q330.89 25.90 329.83 24.96Q328.78 24.02 328.78 22.06L328.78 22.06Q328.78 20.14 330.13 19.22Q331.49 18.31 334.25 18.22L334.25 18.22L336.24 18.14L336.24 16.70Q336.24 15.84 336.10 15.18Q335.95 14.52 335.47 14.14Q334.99 13.75 334.01 13.75L334.01 13.75Q333.10 13.75 332.62 14.09Q332.14 14.42 331.98 15.01Q331.82 15.60 331.82 16.37L331.82 16.37Q330.82 16.37 330.30 16.02Q329.78 15.67 329.78 14.86L329.78 14.86Q329.78 14.02 330.37 13.51Q330.96 13.01 331.94 12.78Q332.93 12.55 334.10 12.55L334.10 12.55Q336.31 12.55 337.40 13.49Q338.50 14.42 338.50 16.70L338.50 16.70L338.50 22.92Q338.50 23.93 338.83 24.29Q339.17 24.65 339.98 24.65L339.98 24.65L340.06 24.65L340.06 25.66L336.82 25.66L336.43 23.59L336.24 23.59Q335.74 24.26 335.26 24.78Q334.78 25.30 334.14 25.60Q333.50 25.90 332.50 25.90ZM333.05 24.41L333.05 24.41Q334.51 24.41 335.38 23.51Q336.24 22.61 336.24 21.07L336.24 21.07L336.24 19.13L334.70 19.20Q332.66 19.30 331.88 20.03Q331.10 20.76 331.10 22.18L331.10 22.18Q331.10 24.41 333.05 24.41ZM348.22 25.66L341.40 25.66L341.40 24.65L341.71 24.65Q342.26 24.65 342.71 24.53Q343.15 24.41 343.42 24.04Q343.68 23.66 343.68 22.92L343.68 22.92L343.68 10.06Q343.68 9.34 343.40 8.99Q343.13 8.64 342.68 8.53Q342.24 8.42 341.71 8.42L341.71 8.42L341.40 8.42L341.40 7.42L345.94 7.42L345.94 22.92Q345.94 23.66 346.20 24.04Q346.46 24.41 346.92 24.53Q347.38 24.65 347.90 24.65L347.90 24.65L348.22 24.65L348.22 25.66Z"/></svg>