<svg xmlns="http://www.w3.org/2000/svg" xmlns:xlink="http://www.w3.org/1999/xlink" width="200.568" height="33.336"><path fill="black" d="M10.27 8.71L10.27 8.71Q10.34 8.66 10.20 8.30Q10.06 7.94 10.01 7.70L10.01 7.70L11.21 7.70L13.54 11.74L12.86 12.29L12.36 11.64L11.40 10.73Q10.61 9.94 9.85 9.60Q9.10 9.26 7.58 9.26Q6.07 9.26 4.99 10.32Q3.91 11.38 3.91 12.48Q3.91 13.58 4.63 14.16Q5.35 14.74 6.37 15.17Q7.39 15.60 7.90 15.72L7.90 15.72Q10.58 16.37 11.78 17.18L11.78 17.18Q14.09 18.72 14.09 21.14L14.09 21.14Q14.09 22.46 13.40 23.48Q12.72 24.50 12.05 24.94L12.05 24.94Q10.37 26.04 7.54 26.04L7.54 26.04Q5.83 26.04 4.42 25.22L4.42 25.22L4.06 25.01L4.10 25.44Q4.18 25.68 4.25 25.90L4.25 25.90L3.05 25.90L0.72 21.86L1.39 21.31L1.90 21.96L2.86 22.87Q4.61 24.67 6.72 24.67L6.72 24.67Q6.79 24.67 6.86 24.67L6.86 24.67Q9.05 24.60 10.33 23.50Q11.62 22.39 11.62 21.18Q11.62 19.97 11.14 19.49L11.14 19.49Q10.10 18.46 9.38 18.24L9.38 18.24Q5.86 17.18 3.89 16.22L3.89 16.22Q1.58 15.07 1.58 12.72L1.58 12.72L1.58 12.62Q1.58 11.45 2.12 10.49Q2.66 9.53 3.53 9L3.53 9Q5.28 7.94 7.03 7.94Q8.78 7.94 10.27 8.71ZM27.98 23.33L27.98 24.41Q27.60 25.99 26.32 25.99Q25.03 25.99 24.50 24.29L24.50 24.29Q23.18 26.02 21.48 26.02L21.48 26.02Q19.42 26.02 17.95 25.00Q16.49 23.98 16.49 22.44L16.49 22.44L16.49 22.37Q16.49 19.68 19.51 18.26L19.51 18.26Q21.19 17.47 22.18 17.47Q23.16 17.47 24.50 18.05L24.50 18.05L24.53 16.99Q24.53 15.67 24.10 15.24L24.10 15.24Q23.16 14.38 21.62 14.38Q20.09 14.38 17.33 16.10L17.33 16.10L17.28 14.23Q19.58 13.08 21.98 13.08L21.98 13.08L22.10 13.08Q23.57 13.08 25.03 14.14L25.03 14.14Q25.80 14.69 26.27 15.60Q26.74 16.51 26.74 17.64L26.74 17.64L26.74 24.10Q26.88 24.26 27.10 24.26L27.10 24.26Q27.14 24.26 27.98 23.33L27.98 23.33ZM24.50 21.10L24.50 19.94Q24.31 18.86 22.75 18.86L22.75 18.86L22.61 18.86Q21.41 18.86 20.14 19.94Q18.86 21.02 18.86 22.25L18.86 22.25Q18.86 22.42 18.89 22.58L18.89 22.58Q19.13 24.55 21.55 24.55L21.55 24.55Q22.80 24.55 23.40 23.95Q24 23.35 24.17 22.94Q24.34 22.54 24.42 21.91Q24.50 21.29 24.50 21.10L24.50 21.10ZM29.90 14.71L29.90 14.71L28.94 14.71L28.94 13.63L34.66 13.63L34.66 14.71L33.58 14.71L33.22 15.02Q33.02 15.29 33.02 15.50L33.02 15.50L33.02 15.82L35.23 23.88L37.63 17.38L37.10 15.82Q36.74 14.76 36.38 14.71L36.38 14.71L35.71 14.71L35.71 13.63L40.61 13.63L40.61 14.71L39.82 14.71L39.46 15.02Q39.26 15.29 39.26 15.50L39.26 15.50L39.26 15.82L41.83 23.88L43.99 15.82L43.97 15.82L43.97 15.53Q43.97 15.31 43.92 15.07L43.92 15.07L43.44 14.71L42.36 14.71L42.36 13.63L47.18 13.63L47.18 14.71L46.34 14.71Q45.62 14.83 45.38 15.82L45.38 15.82L42.53 25.80L40.37 25.80L38.18 19.25L35.93 25.80L33.77 25.80L30.86 15.82Q30.58 14.81 29.90 14.71ZM60.12 23.33L60.12 24.41Q59.74 25.99 58.45 25.99Q57.17 25.99 56.64 24.29L56.64 24.29Q55.32 26.02 53.62 26.02L53.62 26.02Q51.55 26.02 50.09 25.00Q48.62 23.98 48.62 22.44L48.62 22.44L48.62 22.37Q48.62 19.68 51.65 18.26L51.65 18.26Q53.33 17.47 54.31 17.47Q55.30 17.47 56.64 18.05L56.64 18.05L56.66 16.99Q56.66 15.67 56.23 15.24L56.23 15.24Q55.30 14.38 53.76 14.38Q52.22 14.38 49.46 16.10L49.46 16.10L49.42 14.23Q51.72 13.08 54.12 13.08L54.12 13.08L54.24 13.08Q55.70 13.08 57.17 14.14L57.17 14.14Q57.94 14.69 58.40 15.60Q58.87 16.51 58.87 17.64L58.87 17.64L58.87 24.10Q59.02 24.26 59.23 24.26L59.23 24.26Q59.28 24.26 60.12 23.33L60.12 23.33ZM56.64 21.10L56.64 19.94Q56.45 18.86 54.89 18.86L54.89 18.86L54.74 18.86Q53.54 18.86 52.27 19.94Q51 21.02 51 22.25L51 22.25Q51 22.42 51.02 22.58L51.02 22.58Q51.26 24.55 53.69 24.55L53.69 24.55Q54.94 24.55 55.54 23.95Q56.14 23.35 56.30 22.94Q56.47 22.54 56.56 21.91Q56.64 21.29 56.64 21.10L56.64 21.10ZM69.96 13.32L69.96 13.32L70.01 13.32Q70.68 13.32 71.14 13.37L71.14 13.37Q70.78 14.76 70.78 15.26L70.78 15.26Q70.30 15.19 69.65 15.19L69.65 15.19Q67.75 15.19 66.52 16.84Q65.28 18.48 65.28 20.11L65.28 20.11L65.28 23.88Q65.45 24.60 66.14 24.60L66.14 24.60L67.30 24.60L67.30 25.68L61.27 25.68L61.27 24.60L62.54 24.58Q63.02 24.48 63.29 23.88L63.29 23.88L63.29 16.06L61.49 16.06L61.49 15.58L64.34 13.66L65.28 13.66L65.28 16.75Q66.70 13.32 69.96 13.32ZM84.07 23.33L84.07 24.41Q83.69 25.99 82.40 25.99Q81.12 25.99 80.59 24.29L80.59 24.29Q79.27 26.02 77.57 26.02L77.57 26.02Q75.50 26.02 74.04 25.00Q72.58 23.98 72.58 22.44L72.58 22.44L72.58 22.37Q72.58 19.68 75.60 18.26L75.60 18.26Q77.28 17.47 78.26 17.47Q79.25 17.47 80.59 18.05L80.59 18.05L80.62 16.99Q80.62 15.67 80.18 15.24L80.18 15.24Q79.25 14.38 77.71 14.38Q76.18 14.38 73.42 16.10L73.42 16.10L73.37 14.23Q75.67 13.08 78.07 13.08L78.07 13.08L78.19 13.08Q79.66 13.08 81.12 14.14L81.12 14.14Q81.89 14.69 82.36 15.60Q82.82 16.51 82.82 17.64L82.82 17.64L82.82 24.10Q82.97 24.26 83.18 24.26L83.18 24.26Q83.23 24.26 84.07 23.33L84.07 23.33ZM80.59 21.10L80.59 19.94Q80.40 18.86 78.84 18.86L78.84 18.86L78.70 18.86Q77.50 18.86 76.22 19.94Q74.95 21.02 74.95 22.25L74.95 22.25Q74.95 22.42 74.98 22.58L74.98 22.58Q75.22 24.55 77.64 24.55L77.64 24.55Q78.89 24.55 79.49 23.95Q80.09 23.35 80.26 22.94Q80.42 22.54 80.51 21.91Q80.59 21.29 80.59 21.10L80.59 21.10ZM91.61 24.48Q93.24 24.48 94.15 23.16Q95.06 21.84 95.09 19.66L95.09 19.66Q95.04 17.40 94.08 16.15Q93.12 14.90 91.61 14.90L91.61 14.90Q88.46 14.93 88.25 18.91L88.25 18.91L88.25 20.21Q88.61 24.48 91.61 24.48L91.61 24.48ZM88.25 7.92L88.25 15.14Q89.66 13.37 92.02 13.37Q94.37 13.37 95.92 15.02Q97.46 16.68 97.46 19.57Q97.46 22.46 95.92 24.25Q94.37 26.04 92.03 26.04Q89.69 26.04 88.25 24.17L88.25 24.17L88.25 25.75L86.23 25.75L86.23 10.32L84.43 10.32L84.43 9.84L87.29 7.92L88.25 7.92ZM100.96 10.62Q100.49 10.15 100.49 9.50Q100.49 8.86 100.96 8.39Q101.42 7.92 102.07 7.92Q102.72 7.92 103.19 8.39Q103.66 8.86 103.66 9.50Q103.66 10.15 103.19 10.62Q102.72 11.09 102.07 11.09Q101.42 11.09 100.96 10.62ZM103.03 13.20L103.03 23.88Q103.20 24.60 103.90 24.60L103.90 24.60L104.90 24.60L104.90 25.68L99.02 25.68L99.02 24.60L100.30 24.58Q100.78 24.48 101.04 23.88L101.04 23.88L101.04 15.60L99.24 15.60L99.24 15.12L102.10 13.20L103.03 13.20ZM118.06 12.41L118.06 23.16Q118.06 24.60 120.10 24.60L120.10 24.60L120.72 24.60L120.72 25.68L113.90 25.68L113.90 24.60L114.74 24.58Q116.59 24.53 116.59 23.16L116.59 23.16L116.59 10.51Q116.59 9.48 115.46 9.31L115.46 9.31L113.90 9.31L113.90 8.23L118.03 8.23L125.64 21.74L132.46 8.23L137.38 8.23L137.38 9.31L135.70 9.31Q134.74 9.48 134.74 10.51L134.74 10.51L134.74 23.16Q134.74 24.60 136.75 24.60L136.75 24.60L137.38 24.60L137.38 25.68L129.74 25.68L129.74 24.60L130.58 24.58Q132.43 24.53 132.43 23.16L132.43 23.16L132.43 11.23L125.33 25.15L118.06 12.41ZM141.11 10.62Q140.64 10.15 140.64 9.50Q140.64 8.86 141.11 8.39Q141.58 7.92 142.22 7.92Q142.87 7.92 143.34 8.39Q143.81 8.86 143.81 9.50Q143.81 10.15 143.34 10.62Q142.87 11.09 142.22 11.09Q141.58 11.09 141.11 10.62ZM143.18 13.20L143.18 23.88Q143.35 24.60 144.05 24.60L144.05 24.60L145.06 24.60L145.06 25.68L139.18 25.68L139.18 24.60L140.45 24.58Q140.93 24.48 141.19 23.88L141.19 23.88L141.19 15.60L139.39 15.60L139.39 15.12L142.25 13.20L143.18 13.20ZM150.07 13.20L150.07 15.70Q150.96 13.42 153.98 13.42L153.98 13.42Q158.62 13.44 158.62 19.34L158.62 19.34L158.62 23.88Q158.78 24.60 159.48 24.60L159.48 24.60L160.39 24.60L160.39 25.68L154.85 25.68L154.85 24.60L155.88 24.58Q156.36 24.48 156.62 23.88L156.62 23.88L156.62 19.82Q156.62 14.74 153.82 14.74L153.82 14.74Q150.07 14.74 150.07 19.61L150.07 19.61L150.07 23.88Q150.24 24.60 150.94 24.60L150.94 24.60L151.85 24.60L151.85 25.68L146.30 25.68L146.30 24.60L147.34 24.58Q147.82 24.48 148.08 23.88L148.08 23.88L148.08 15.60L146.28 15.60L146.28 15.12L149.14 13.20L150.07 13.20ZM171.79 24.02L171.79 24.02L171.79 25.27Q170.35 25.94 169.10 25.94L169.10 25.94L168.79 25.94Q165.98 25.94 164.09 24.13Q162.19 22.32 162.19 19.68Q162.19 17.04 164.24 15.29Q166.30 13.54 168.89 13.54L168.89 13.54Q170.83 13.54 171.94 14.28L171.94 14.28L171.31 16.01Q170.23 15.07 169.08 15.07L169.08 15.07Q167.30 15.07 165.94 16.44Q164.57 17.81 164.57 19.74Q164.57 21.67 166.03 23.14Q167.50 24.60 169.51 24.60L169.51 24.60Q170.76 24.60 171.79 24.02ZM177.41 7.92L177.41 15.94Q178.54 13.61 180.64 13.61Q182.74 13.61 183.98 14.96Q185.23 16.32 185.23 18.70L185.23 18.70L185.23 23.88Q185.40 24.60 185.86 24.60L185.86 24.60L186.89 24.60L186.89 25.68L181.46 25.68L181.46 24.60L182.62 24.58Q182.69 24.48 183.12 23.88L183.12 23.88L183.12 19.10Q183.12 17.14 182.45 15.98Q181.78 14.83 180.61 14.83Q179.45 14.83 178.43 15.92Q177.41 17.02 177.41 18.55L177.41 18.55L177.41 23.88Q177.58 24.60 178.03 24.60L178.03 24.60L179.06 24.60L179.06 25.68L173.76 25.68L173.76 24.60L174.91 24.58Q174.98 24.48 175.42 23.88L175.42 23.88L175.42 10.32L173.62 10.32L173.62 9.84L176.47 7.92L177.41 7.92ZM193.88 26.14Q191.45 26.14 189.77 24.26Q188.09 22.39 188.09 19.78Q188.09 17.16 189.77 15.24Q191.45 13.32 193.88 13.32Q196.32 13.32 198.08 15.24Q199.85 17.16 199.85 19.78Q199.85 22.39 198.08 24.26Q196.32 26.14 193.88 26.14ZM197.47 19.75Q197.47 17.69 196.33 16.19Q195.19 14.69 193.73 14.69Q192.26 14.69 191.29 16.21Q190.32 17.74 190.32 19.81Q190.32 21.89 191.46 23.34Q192.60 24.79 194.03 24.79Q195.46 24.79 196.46 23.30Q197.47 21.82 197.47 19.75Z"/></svg>