<svg xmlns="http://www.w3.org/2000/svg" xmlns:xlink="http://www.w3.org/1999/xlink" width="328.0799999999999" height="67.56"><path fill="black" d="M6.65 35.18L1.10 35.18L1.10 34.54L1.90 34.54Q2.47 34.54 2.82 34.39Q3.17 34.25 3.31 33.83Q3.46 33.41 3.46 32.54L3.46 32.54L3.46 20.66Q3.46 19.80 3.30 19.38Q3.14 18.96 2.81 18.83Q2.47 18.70 1.90 18.70L1.90 18.70L1.10 18.70L1.10 18.05L4.49 18.05L13.70 33.02L13.70 20.66Q13.70 19.80 13.56 19.38Q13.42 18.96 13.07 18.83Q12.72 18.70 12.14 18.70L12.14 18.70L11.40 18.70L11.40 18.05L16.90 18.05L16.90 18.70L16.15 18.70Q15.58 18.70 15.23 18.84Q14.88 18.98 14.74 19.39Q14.59 19.80 14.59 20.69L14.59 20.69L14.59 35.18L13.63 35.18L4.34 20.14L4.34 32.54Q4.34 33.41 4.49 33.83Q4.63 34.25 4.97 34.39Q5.30 34.54 5.88 34.54L5.88 34.54L6.65 34.54L6.65 35.18ZM24.34 35.42L24.34 35.42Q21.98 35.42 20.64 33.78Q19.30 32.14 19.30 28.75L19.30 28.75Q19.30 25.39 20.60 23.77Q21.91 22.15 24.46 22.15L24.46 22.15Q26.83 22.15 28.14 23.75Q29.45 25.34 29.45 28.75L29.45 28.75Q29.45 32.14 28.15 33.78Q26.86 35.42 24.34 35.42ZM24.36 34.61L24.36 34.61Q25.78 34.61 26.63 33.90Q27.48 33.19 27.85 31.88Q28.22 30.58 28.22 28.75L28.22 28.75Q28.22 25.82 27.32 24.40Q26.42 22.97 24.43 22.97L24.43 22.97Q22.32 22.97 21.42 24.42Q20.52 25.87 20.52 28.75L20.52 28.75Q20.52 31.56 21.43 33.08Q22.34 34.61 24.36 34.61ZM36.07 35.42L36.07 35.42Q34.54 35.42 33.86 34.61Q33.19 33.79 33.19 31.78L33.19 31.78L33.19 23.18L31.34 23.18L31.34 22.54Q31.82 22.54 32.24 22.39Q32.66 22.25 32.95 21.96L32.95 21.96Q33.24 21.67 33.44 21.08Q33.65 20.50 33.70 19.39L33.70 19.39L34.39 19.39L34.39 22.32L37.46 22.32L37.46 23.18L34.39 23.18L34.39 31.94Q34.39 33.36 34.85 33.98Q35.30 34.61 36.24 34.61L36.24 34.61Q36.67 34.61 36.98 34.57Q37.30 34.54 37.68 34.46L37.68 34.46L37.68 35.21Q37.32 35.30 36.90 35.36Q36.48 35.42 36.07 35.42ZM44.83 35.42L44.83 35.42Q42.48 35.42 41.14 33.78Q39.79 32.14 39.79 28.75L39.79 28.75Q39.79 25.39 41.10 23.77Q42.41 22.15 44.95 22.15L44.95 22.15Q47.33 22.15 48.64 23.75Q49.94 25.34 49.94 28.75L49.94 28.75Q49.94 32.14 48.65 33.78Q47.35 35.42 44.83 35.42ZM44.86 34.61L44.86 34.61Q46.27 34.61 47.12 33.90Q47.98 33.19 48.35 31.88Q48.72 30.58 48.72 28.75L48.72 28.75Q48.72 25.82 47.82 24.40Q46.92 22.97 44.93 22.97L44.93 22.97Q42.82 22.97 41.92 24.42Q41.02 25.87 41.02 28.75L41.02 28.75Q41.02 31.56 41.93 33.08Q42.84 34.61 44.86 34.61ZM63.79 35.42L63.79 35.42Q62.64 35.42 61.78 35.16Q60.91 34.90 60.35 34.43Q59.78 33.96 59.51 33.36Q59.23 32.76 59.23 32.11L59.23 32.11Q59.23 31.78 59.34 31.51Q59.45 31.25 59.65 31.09Q59.86 30.94 60.14 30.94L60.14 30.94Q60.17 32.06 60.58 32.89Q60.98 33.72 61.81 34.18Q62.64 34.63 63.86 34.63L63.86 34.63Q65.64 34.63 66.50 33.68Q67.37 32.74 67.37 31.18L67.37 31.18Q67.37 30.22 67.00 29.53Q66.62 28.85 65.80 28.22Q64.97 27.60 63.58 26.90L63.58 26.90Q62.23 26.21 61.38 25.54Q60.53 24.86 60.12 24.00Q59.71 23.14 59.71 21.89L59.71 21.89Q59.71 20.71 60.28 19.79Q60.84 18.86 61.86 18.34Q62.88 17.81 64.22 17.81L64.22 17.81Q65.45 17.81 66.35 18.18Q67.25 18.55 67.74 19.14Q68.23 19.73 68.23 20.47L68.23 20.47Q68.23 21.02 67.98 21.31Q67.73 21.60 67.27 21.60L67.27 21.60Q67.27 20.66 66.92 19.99Q66.58 19.32 65.89 18.96Q65.21 18.60 64.18 18.60L64.18 18.60Q62.57 18.60 61.74 19.51Q60.91 20.42 60.91 21.84L60.91 21.84Q60.91 22.85 61.27 23.52Q61.63 24.19 62.38 24.73Q63.12 25.27 64.25 25.85L64.25 25.85Q65.45 26.47 66.43 27.13Q67.42 27.79 68.00 28.69Q68.59 29.59 68.59 30.96L68.59 30.96Q68.59 32.28 68.04 33.29Q67.49 34.30 66.42 34.86Q65.35 35.42 63.79 35.42ZM76.39 35.42L76.39 35.42Q74.04 35.42 72.67 33.72Q71.30 32.02 71.30 28.87L71.30 28.87Q71.30 25.49 72.56 23.82Q73.82 22.15 76.18 22.15L76.18 22.15Q78.26 22.15 79.48 23.69Q80.69 25.22 80.69 28.08L80.69 28.08L80.69 28.68L72.55 28.68Q72.55 31.63 73.62 33.07Q74.69 34.51 76.51 34.51L76.51 34.51Q77.86 34.51 78.71 33.94Q79.56 33.36 79.97 32.54L79.97 32.54Q80.11 32.62 80.18 32.76Q80.26 32.90 80.26 33.12L80.26 33.12Q80.26 33.55 79.82 34.09Q79.39 34.63 78.54 35.03Q77.69 35.42 76.39 35.42ZM72.60 27.86L79.42 27.86Q79.42 25.68 78.61 24.32Q77.81 22.97 76.13 22.97L76.13 22.97Q74.35 22.97 73.54 24.28Q72.72 25.58 72.60 27.86L72.60 27.86ZM88.80 35.18L82.99 35.18L82.99 34.54L83.35 34.54Q84.02 34.54 84.41 34.43Q84.79 34.32 84.94 33.94Q85.08 33.55 85.08 32.71L85.08 32.71L85.08 24.70Q85.08 23.90 84.92 23.54Q84.77 23.18 84.37 23.08Q83.98 22.97 83.21 22.97L83.21 22.97L82.90 22.97L82.90 22.32L86.02 22.32L86.23 24.91L86.30 24.91Q86.59 24.19 86.99 23.56Q87.38 22.92 88.02 22.51Q88.66 22.10 89.62 22.10L89.62 22.10Q90.67 22.10 91.25 22.57Q91.82 23.04 91.82 23.78L91.82 23.78Q91.82 24.24 91.57 24.56Q91.32 24.89 90.74 24.89L90.74 24.89Q90.74 23.86 90.37 23.45Q90 23.04 89.23 23.04L89.23 23.04Q88.54 23.04 87.98 23.52Q87.43 24.00 87.06 24.80Q86.69 25.61 86.48 26.58Q86.28 27.55 86.28 28.51L86.28 28.51L86.28 32.74Q86.28 33.58 86.45 33.95Q86.62 34.32 86.99 34.43Q87.36 34.54 88.01 34.54L88.01 34.54L88.80 34.54L88.80 35.18ZM99.00 35.18L92.86 35.18L92.86 34.54L93.46 34.54Q94.22 34.54 94.62 34.43Q95.02 34.32 95.17 33.96Q95.33 33.60 95.33 32.81L95.33 32.81L95.33 24.77Q95.33 23.93 95.17 23.56Q95.02 23.18 94.64 23.08Q94.27 22.97 93.60 22.97L93.60 22.97L93.29 22.97L93.29 22.32L96.53 22.32L96.53 32.76Q96.53 33.58 96.68 33.95Q96.84 34.32 97.26 34.43Q97.68 34.54 98.42 34.54L98.42 34.54L99.00 34.54L99.00 35.18ZM95.83 19.56L95.83 19.56Q95.47 19.56 95.23 19.32Q94.99 19.08 94.99 18.43L94.99 18.43Q94.99 17.78 95.23 17.54Q95.47 17.30 95.83 17.30L95.83 17.30Q96.19 17.30 96.42 17.54Q96.65 17.78 96.65 18.43L96.65 18.43Q96.65 19.08 96.42 19.32Q96.19 19.56 95.83 19.56ZM106.44 35.18L100.01 35.18L100.01 34.54L100.63 34.54Q101.28 34.54 101.66 34.43Q102.05 34.32 102.20 33.94Q102.36 33.55 102.36 32.71L102.36 32.71L102.36 23.09L100.10 23.09L100.10 22.32L102.36 22.32L102.36 20.90Q102.36 18.86 103.38 17.77Q104.40 16.68 106.18 16.68L106.18 16.68Q107.11 16.68 107.72 16.92Q108.34 17.16 108.65 17.57Q108.96 17.98 108.96 18.43L108.96 18.43Q108.96 18.79 108.82 19.03Q108.67 19.27 108.44 19.39Q108.22 19.51 107.95 19.51L107.95 19.51Q107.95 18.94 107.78 18.47Q107.62 18.00 107.23 17.72Q106.85 17.45 106.08 17.45L106.08 17.45Q104.81 17.45 104.18 18.34Q103.56 19.22 103.56 20.83L103.56 20.83L103.56 22.32L106.99 22.32L106.99 23.09L103.56 23.09L103.56 32.71Q103.56 33.55 103.72 33.94Q103.87 34.32 104.24 34.43Q104.62 34.54 105.29 34.54L105.29 34.54L106.44 34.54L106.44 35.18ZM123.84 35.18L117.05 35.18L117.05 34.54L118.27 34.54Q118.85 34.54 119.18 34.40Q119.52 34.27 119.68 33.85Q119.83 33.43 119.83 32.59L119.83 32.59L119.83 18.84L116.66 18.84Q115.70 18.84 115.40 19.26Q115.10 19.68 115.03 20.62L115.03 20.62L114.96 21.86L114.22 21.86L114.36 18.05L126.62 18.05L126.74 21.86L126.02 21.86L125.93 20.62Q125.86 19.68 125.57 19.26Q125.28 18.84 124.30 18.84L124.30 18.84L121.08 18.84L121.08 32.54Q121.08 33.41 121.22 33.83Q121.37 34.25 121.72 34.39Q122.06 34.54 122.64 34.54L122.64 34.54L123.84 34.54L123.84 35.18ZM134.28 35.18L128.14 35.18L128.14 34.54L128.74 34.54Q129.50 34.54 129.90 34.43Q130.30 34.32 130.45 33.96Q130.61 33.60 130.61 32.81L130.61 32.81L130.61 24.77Q130.61 23.93 130.45 23.56Q130.30 23.18 129.92 23.08Q129.55 22.97 128.88 22.97L128.88 22.97L128.57 22.97L128.57 22.32L131.81 22.32L131.81 32.76Q131.81 33.58 131.96 33.95Q132.12 34.32 132.54 34.43Q132.96 34.54 133.70 34.54L133.70 34.54L134.28 34.54L134.28 35.18ZM131.11 19.56L131.11 19.56Q130.75 19.56 130.51 19.32Q130.27 19.08 130.27 18.43L130.27 18.43Q130.27 17.78 130.51 17.54Q130.75 17.30 131.11 17.30L131.11 17.30Q131.47 17.30 131.70 17.54Q131.93 17.78 131.93 18.43L131.93 18.43Q131.93 19.08 131.70 19.32Q131.47 19.56 131.11 19.56ZM142.34 35.42L142.34 35.42Q140.98 35.42 139.98 34.78Q138.98 34.13 138.48 32.98L138.48 32.98L138.38 32.98L138.19 35.18L134.95 35.18L134.95 34.54L135.36 34.54Q136.13 34.54 136.54 34.43Q136.94 34.32 137.10 33.95Q137.26 33.58 137.26 32.76L137.26 32.76L137.26 19.39Q137.26 18.55 137.10 18.18Q136.94 17.81 136.56 17.70Q136.18 17.59 135.53 17.59L135.53 17.59L134.95 17.59L134.95 16.94L138.46 16.94L138.46 21.62Q138.46 22.06 138.44 22.68Q138.43 23.30 138.41 23.92Q138.38 24.53 138.34 24.98L138.34 24.98L138.41 24.98Q138.91 23.64 139.90 22.87Q140.88 22.10 142.46 22.10L142.46 22.10Q144.79 22.10 145.93 23.70Q147.07 25.30 147.07 28.75L147.07 28.75Q147.07 32.14 145.80 33.78Q144.53 35.42 142.34 35.42ZM142.27 34.51L142.27 34.51Q144.05 34.51 144.95 33Q145.85 31.49 145.85 28.70L145.85 28.70Q145.85 25.78 145.02 24.40Q144.19 23.02 142.25 23.02L142.25 23.02Q140.23 23.02 139.33 24.52Q138.43 26.02 138.43 28.73L138.43 28.73Q138.43 30.55 138.79 31.85Q139.15 33.14 139.99 33.83Q140.83 34.51 142.27 34.51ZM155.09 35.42L155.09 35.42Q152.74 35.42 151.37 33.72Q150 32.02 150 28.87L150 28.87Q150 25.49 151.26 23.82Q152.52 22.15 154.87 22.15L154.87 22.15Q156.96 22.15 158.17 23.69Q159.38 25.22 159.38 28.08L159.38 28.08L159.38 28.68L151.25 28.68Q151.25 31.63 152.32 33.07Q153.38 34.51 155.21 34.51L155.21 34.51Q156.55 34.51 157.40 33.94Q158.26 33.36 158.66 32.54L158.66 32.54Q158.81 32.62 158.88 32.76Q158.95 32.90 158.95 33.12L158.95 33.12Q158.95 33.55 158.52 34.09Q158.09 34.63 157.24 35.03Q156.38 35.42 155.09 35.42ZM151.30 27.86L158.11 27.86Q158.11 25.68 157.31 24.32Q156.50 22.97 154.82 22.97L154.82 22.97Q153.05 22.97 152.23 24.28Q151.42 25.58 151.30 27.86L151.30 27.86ZM165.79 35.42L165.79 35.42Q164.26 35.42 163.58 34.61Q162.91 33.79 162.91 31.78L162.91 31.78L162.91 23.18L161.06 23.18L161.06 22.54Q161.54 22.54 161.96 22.39Q162.38 22.25 162.67 21.96L162.67 21.96Q162.96 21.67 163.16 21.08Q163.37 20.50 163.42 19.39L163.42 19.39L164.11 19.39L164.11 22.32L167.18 22.32L167.18 23.18L164.11 23.18L164.11 31.94Q164.11 33.36 164.57 33.98Q165.02 34.61 165.96 34.61L165.96 34.61Q166.39 34.61 166.70 34.57Q167.02 34.54 167.40 34.46L167.40 34.46L167.40 35.21Q167.04 35.30 166.62 35.36Q166.20 35.42 165.79 35.42ZM172.82 35.42L172.82 35.42Q171.84 35.42 171.05 35.02Q170.26 34.61 169.79 33.77Q169.32 32.93 169.32 31.66L169.32 31.66Q169.32 29.74 170.68 28.85Q172.03 27.96 174.89 27.86L174.89 27.86L176.88 27.79L176.88 26.26Q176.88 25.30 176.69 24.55Q176.50 23.81 175.88 23.38Q175.27 22.94 174.05 22.94L174.05 22.94Q172.94 22.94 172.36 23.29Q171.77 23.64 171.55 24.28Q171.34 24.91 171.34 25.78L171.34 25.78Q170.86 25.78 170.59 25.48Q170.33 25.18 170.33 24.53L170.33 24.53Q170.33 23.90 170.71 23.36Q171.10 22.82 171.94 22.49Q172.78 22.15 174.07 22.15L174.07 22.15Q176.21 22.15 177.14 23.14Q178.08 24.12 178.08 26.02L178.08 26.02L178.08 32.52Q178.08 33.34 178.19 33.77Q178.30 34.20 178.60 34.37Q178.90 34.54 179.50 34.54L179.50 34.54L179.64 34.54L179.64 35.18L177.19 35.18L176.95 32.83L176.86 32.83Q176.52 33.38 176.00 34.00Q175.49 34.61 174.71 35.02Q173.93 35.42 172.82 35.42ZM173.06 34.54L173.06 34.54Q174.17 34.54 175.02 34.00Q175.87 33.46 176.38 32.63Q176.88 31.80 176.88 30.94L176.88 30.94L176.88 28.49L174.98 28.56Q173.28 28.61 172.32 28.99Q171.36 29.38 170.95 30.06Q170.54 30.74 170.54 31.70L170.54 31.70Q170.54 32.50 170.80 33.13Q171.05 33.77 171.61 34.15Q172.18 34.54 173.06 34.54ZM187.32 35.18L181.63 35.18L181.63 34.54L182.06 34.54Q182.83 34.54 183.24 34.43Q183.65 34.32 183.79 33.95Q183.94 33.58 183.94 32.76L183.94 32.76L183.94 24.70Q183.94 23.90 183.79 23.54Q183.65 23.18 183.26 23.08Q182.88 22.97 182.23 22.97L182.23 22.97L181.75 22.97L181.75 22.32L184.94 22.32L185.09 24.36L185.21 24.36Q185.69 23.47 186.26 23.00Q186.84 22.54 187.54 22.34Q188.23 22.15 189.07 22.15L189.07 22.15Q191.09 22.15 192.07 23.24Q193.06 24.34 193.06 26.66L193.06 26.66L193.06 32.76Q193.06 33.58 193.20 33.95Q193.34 34.32 193.74 34.43Q194.14 34.54 194.88 34.54L194.88 34.54L195.17 34.54L195.17 35.18L191.86 35.18L191.86 26.59Q191.86 24.98 191.17 24.02Q190.49 23.06 188.78 23.06L188.78 23.06Q187.39 23.06 186.59 23.68Q185.78 24.29 185.46 25.25Q185.14 26.21 185.14 27.29L185.14 27.29L185.14 32.81Q185.14 33.60 185.29 33.96Q185.45 34.32 185.86 34.43Q186.26 34.54 187.01 34.54L187.01 34.54L187.32 34.54L187.32 35.18ZM213.48 35.18L203.45 35.18L203.45 34.25L208.03 29.02Q209.35 27.48 210.16 26.39Q210.96 25.30 211.32 24.32Q211.68 23.35 211.68 22.18L211.68 22.18Q211.68 21.29 211.36 20.47Q211.03 19.66 210.29 19.13Q209.54 18.60 208.27 18.60L208.27 18.60Q207.12 18.60 206.38 19.03Q205.63 19.46 205.27 20.21Q204.91 20.95 204.91 21.96L204.91 21.96Q204.60 21.96 204.36 21.84Q204.12 21.72 203.99 21.47Q203.86 21.22 203.86 20.83L203.86 20.83Q203.86 20.14 204.34 19.44Q204.82 18.74 205.80 18.28Q206.78 17.81 208.27 17.81L208.27 17.81Q209.86 17.81 210.89 18.40Q211.92 18.98 212.44 19.94Q212.95 20.90 212.95 22.08L212.95 22.08Q212.95 22.85 212.80 23.52Q212.64 24.19 212.33 24.82Q212.02 25.44 211.56 26.10Q211.10 26.76 210.49 27.48Q209.88 28.20 209.11 29.06L209.11 29.06L204.60 34.15L211.25 34.15Q212.23 34.15 212.52 33.74Q212.81 33.34 212.88 32.42L212.88 32.42L212.95 31.78L213.60 31.78L213.48 35.18ZM222.19 35.42L222.19 35.42Q220.34 35.42 219.14 34.43Q217.94 33.43 217.36 31.46Q216.77 29.50 216.77 26.57L216.77 26.57Q216.77 23.71 217.34 21.76Q217.92 19.80 219.12 18.80Q220.32 17.81 222.22 17.81L222.22 17.81Q224.02 17.81 225.20 18.80Q226.39 19.80 226.99 21.76Q227.59 23.71 227.59 26.59L227.59 26.59Q227.59 29.45 226.99 31.42Q226.39 33.38 225.20 34.40Q224.02 35.42 222.19 35.42ZM222.17 34.58L222.17 34.58Q223.66 34.58 224.56 33.68Q225.46 32.78 225.88 31.00Q226.30 29.21 226.30 26.59L226.30 26.59Q226.30 23.98 225.90 22.21Q225.50 20.45 224.60 19.55Q223.70 18.65 222.19 18.65L222.19 18.65Q220.66 18.65 219.74 19.57Q218.83 20.50 218.45 22.27Q218.06 24.05 218.06 26.59L218.06 26.59Q218.06 29.28 218.48 31.06Q218.90 32.83 219.82 33.71Q220.73 34.58 222.17 34.58ZM235.61 35.42L235.61 35.42Q233.76 35.42 232.56 34.43Q231.36 33.43 230.77 31.46Q230.18 29.50 230.18 26.57L230.18 26.57Q230.18 23.71 230.76 21.76Q231.34 19.80 232.54 18.80Q233.74 17.81 235.63 17.81L235.63 17.81Q237.43 17.81 238.62 18.80Q239.81 19.80 240.41 21.76Q241.01 23.71 241.01 26.59L241.01 26.59Q241.01 29.45 240.41 31.42Q239.81 33.38 238.62 34.40Q237.43 35.42 235.61 35.42ZM235.58 34.58L235.58 34.58Q237.07 34.58 237.97 33.68Q238.87 32.78 239.29 31.00Q239.71 29.21 239.71 26.59L239.71 26.59Q239.71 23.98 239.32 22.21Q238.92 20.45 238.02 19.55Q237.12 18.65 235.61 18.65L235.61 18.65Q234.07 18.65 233.16 19.57Q232.25 20.50 231.86 22.27Q231.48 24.05 231.48 26.59L231.48 26.59Q231.48 29.28 231.90 31.06Q232.32 32.83 233.23 33.71Q234.14 34.58 235.58 34.58ZM255.07 35.18L249.38 35.18L249.38 34.54L249.82 34.54Q250.58 34.54 250.99 34.43Q251.40 34.32 251.54 33.95Q251.69 33.58 251.69 32.76L251.69 32.76L251.69 24.70Q251.69 23.90 251.54 23.54Q251.40 23.18 251.02 23.08Q250.63 22.97 249.98 22.97L249.98 22.97L249.50 22.97L249.50 22.32L252.70 22.32L252.84 24.36L252.96 24.36Q253.44 23.47 254.02 23.00Q254.59 22.54 255.29 22.34Q255.98 22.15 256.82 22.15L256.82 22.15Q258.84 22.15 259.82 23.24Q260.81 24.34 260.81 26.66L260.81 26.66L260.81 32.76Q260.81 33.58 260.95 33.95Q261.10 34.32 261.49 34.43Q261.89 34.54 262.63 34.54L262.63 34.54L262.92 34.54L262.92 35.18L259.61 35.18L259.61 26.59Q259.61 24.98 258.92 24.02Q258.24 23.06 256.54 23.06L256.54 23.06Q255.14 23.06 254.34 23.68Q253.54 24.29 253.21 25.25Q252.89 26.21 252.89 27.29L252.89 27.29L252.89 32.81Q252.89 33.60 253.04 33.96Q253.20 34.32 253.61 34.43Q254.02 34.54 254.76 34.54L254.76 34.54L255.07 34.54L255.07 35.18ZM270.10 35.42L270.10 35.42Q267.74 35.42 266.40 33.78Q265.06 32.14 265.06 28.75L265.06 28.75Q265.06 25.39 266.36 23.77Q267.67 22.15 270.22 22.15L270.22 22.15Q272.59 22.15 273.90 23.75Q275.21 25.34 275.21 28.75L275.21 28.75Q275.21 32.14 273.91 33.78Q272.62 35.42 270.10 35.42ZM270.12 34.61L270.12 34.61Q271.54 34.61 272.39 33.90Q273.24 33.19 273.61 31.88Q273.98 30.58 273.98 28.75L273.98 28.75Q273.98 25.82 273.08 24.40Q272.18 22.97 270.19 22.97L270.19 22.97Q268.08 22.97 267.18 24.42Q266.28 25.87 266.28 28.75L266.28 28.75Q266.28 31.56 267.19 33.08Q268.10 34.61 270.12 34.61ZM283.54 35.18L277.73 35.18L277.73 34.54L278.09 34.54Q278.76 34.54 279.14 34.43Q279.53 34.32 279.67 33.94Q279.82 33.55 279.82 32.71L279.82 32.71L279.82 24.70Q279.82 23.90 279.66 23.54Q279.50 23.18 279.11 23.08Q278.71 22.97 277.94 22.97L277.94 22.97L277.63 22.97L277.63 22.32L280.75 22.32L280.97 24.91L281.04 24.91Q281.33 24.19 281.72 23.56Q282.12 22.92 282.76 22.51Q283.39 22.10 284.35 22.10L284.35 22.10Q285.41 22.10 285.98 22.57Q286.56 23.04 286.56 23.78L286.56 23.78Q286.56 24.24 286.31 24.56Q286.06 24.89 285.48 24.89L285.48 24.89Q285.48 23.86 285.11 23.45Q284.74 23.04 283.97 23.04L283.97 23.04Q283.27 23.04 282.72 23.52Q282.17 24.00 281.80 24.80Q281.42 25.61 281.22 26.58Q281.02 27.55 281.02 28.51L281.02 28.51L281.02 32.74Q281.02 33.58 281.18 33.95Q281.35 34.32 281.72 34.43Q282.10 34.54 282.74 34.54L282.74 34.54L283.54 34.54L283.54 35.18ZM293.50 35.18L287.76 35.18L287.76 34.54L288.22 34.54Q289.01 34.54 289.39 34.43Q289.78 34.32 289.92 33.95Q290.06 33.58 290.06 32.76L290.06 32.76L290.06 24.70Q290.06 23.90 289.92 23.54Q289.78 23.18 289.40 23.08Q289.03 22.97 288.38 22.97L288.38 22.97L288.10 22.97L288.10 22.32L291.07 22.32L291.22 24.46L291.34 24.46Q291.72 23.62 292.25 23.11Q292.78 22.61 293.47 22.38Q294.17 22.15 294.96 22.15L294.96 22.15Q295.97 22.15 296.64 22.44Q297.31 22.73 297.73 23.26Q298.15 23.78 298.37 24.48L298.37 24.48L298.49 24.48Q298.82 23.76 299.34 23.23Q299.86 22.70 300.59 22.43Q301.32 22.15 302.26 22.15L302.26 22.15Q304.15 22.15 305.09 23.27Q306.02 24.38 306.02 26.62L306.02 26.62L306.02 32.76Q306.02 33.58 306.17 33.95Q306.31 34.32 306.72 34.43Q307.13 34.54 307.87 34.54L307.87 34.54L308.06 34.54L308.06 35.18L304.82 35.18L304.82 26.59Q304.82 24.89 304.18 23.96Q303.53 23.04 301.97 23.04L301.97 23.04Q300.79 23.04 300.06 23.57Q299.33 24.10 299.00 24.98Q298.68 25.87 298.68 26.93L298.68 26.93L298.68 32.76Q298.68 33.58 298.82 33.95Q298.97 34.32 299.36 34.43Q299.76 34.54 300.53 34.54L300.53 34.54L300.79 34.54L300.79 35.18L297.48 35.18L297.48 26.59Q297.48 24.89 296.83 23.98Q296.18 23.06 294.58 23.06L294.58 23.06Q293.45 23.06 292.72 23.65Q291.98 24.24 291.62 25.20Q291.26 26.16 291.26 27.29L291.26 27.29L291.26 32.81Q291.26 33.60 291.42 33.96Q291.58 34.32 292.00 34.43Q292.42 34.54 293.16 34.54L293.16 34.54L293.50 34.54L293.50 35.18ZM313.54 35.42L313.54 35.42Q312.55 35.42 311.76 35.02Q310.97 34.61 310.50 33.77Q310.03 32.93 310.03 31.66L310.03 31.66Q310.03 29.74 311.39 28.85Q312.74 27.96 315.60 27.86L315.60 27.86L317.59 27.79L317.59 26.26Q317.59 25.30 317.40 24.55Q317.21 23.81 316.60 23.38Q315.98 22.94 314.76 22.94L314.76 22.94Q313.66 22.94 313.07 23.29Q312.48 23.64 312.26 24.28Q312.05 24.91 312.05 25.78L312.05 25.78Q311.57 25.78 311.30 25.48Q311.04 25.18 311.04 24.53L311.04 24.53Q311.04 23.90 311.42 23.36Q311.81 22.82 312.65 22.49Q313.49 22.15 314.78 22.15L314.78 22.15Q316.92 22.15 317.86 23.14Q318.79 24.12 318.79 26.02L318.79 26.02L318.79 32.52Q318.79 33.34 318.90 33.77Q319.01 34.20 319.31 34.37Q319.61 34.54 320.21 34.54L320.21 34.54L320.35 34.54L320.35 35.18L317.90 35.18L317.66 32.83L317.57 32.83Q317.23 33.38 316.72 34.00Q316.20 34.61 315.42 35.02Q314.64 35.42 313.54 35.42ZM313.78 34.54L313.78 34.54Q314.88 34.54 315.73 34.00Q316.58 33.46 317.09 32.63Q317.59 31.80 317.59 30.94L317.59 30.94L317.59 28.49L315.70 28.56Q313.99 28.61 313.03 28.99Q312.07 29.38 311.66 30.06Q311.26 30.74 311.26 31.70L311.26 31.70Q311.26 32.50 311.51 33.13Q311.76 33.77 312.32 34.15Q312.89 34.54 313.78 34.54ZM327.86 35.18L321.72 35.18L321.72 34.54L322.30 34.54Q323.09 34.54 323.48 34.43Q323.88 34.32 324.04 33.95Q324.19 33.58 324.19 32.76L324.19 32.76L324.19 19.39Q324.19 18.55 324.04 18.18Q323.88 17.81 323.50 17.70Q323.11 17.59 322.46 17.59L322.46 17.59L321.72 17.59L321.72 16.94L325.39 16.94L325.39 32.76Q325.39 33.58 325.55 33.95Q325.70 34.32 326.11 34.43Q326.52 34.54 327.29 34.54L327.29 34.54L327.86 34.54L327.86 35.18Z"/></svg>