<svg xmlns="http://www.w3.org/2000/svg" xmlns:xlink="http://www.w3.org/1999/xlink" width="361.82399999999996" height="45.528"><path fill="black" d="M13.20 35.02L1.20 35.02L1.20 13.85L13.20 13.85L13.20 35.02ZM2.54 15.19L2.54 33.67L11.86 33.67L11.86 15.19L2.54 15.19ZM27.60 35.02L15.60 35.02L15.60 13.85L27.60 13.85L27.60 35.02ZM16.94 15.19L16.94 33.67L26.26 33.67L26.26 15.19L16.94 15.19ZM42 35.02L30 35.02L30 13.85L42 13.85L42 35.02ZM31.34 15.19L31.34 33.67L40.66 33.67L40.66 15.19L31.34 15.19ZM56.40 35.02L44.40 35.02L44.40 13.85L56.40 13.85L56.40 35.02ZM45.74 15.19L45.74 33.67L55.06 33.67L55.06 15.19L45.74 15.19ZM78.96 35.02L66.96 35.02L66.96 13.85L78.96 13.85L78.96 35.02ZM68.30 15.19L68.30 33.67L77.62 33.67L77.62 15.19L68.30 15.19ZM93.36 35.02L81.36 35.02L81.36 13.85L93.36 13.85L93.36 35.02ZM82.70 15.19L82.70 33.67L92.02 33.67L92.02 15.19L82.70 15.19ZM107.76 35.02L95.76 35.02L95.76 13.85L107.76 13.85L107.76 35.02ZM97.10 15.19L97.10 33.67L106.42 33.67L106.42 15.19L97.10 15.19ZM122.16 35.02L110.16 35.02L110.16 13.85L122.16 13.85L122.16 35.02ZM111.50 15.19L111.50 33.67L120.82 33.67L120.82 15.19L111.50 15.19ZM144.72 35.02L132.72 35.02L132.72 13.85L144.72 13.85L144.72 35.02ZM134.06 15.19L134.06 33.67L143.38 33.67L143.38 15.19L134.06 15.19ZM159.12 35.02L147.12 35.02L147.12 13.85L159.12 13.85L159.12 35.02ZM148.46 15.19L148.46 33.67L157.78 33.67L157.78 15.19L148.46 15.19ZM173.52 35.02L161.52 35.02L161.52 13.85L173.52 13.85L173.52 35.02ZM162.86 15.19L162.86 33.67L172.18 33.67L172.18 15.19L162.86 15.19ZM187.92 35.02L175.92 35.02L175.92 13.85L187.92 13.85L187.92 35.02ZM177.26 15.19L177.26 33.67L186.58 33.67L186.58 15.19L177.26 15.19ZM202.32 35.02L190.32 35.02L190.32 13.85L202.32 13.85L202.32 35.02ZM191.66 15.19L191.66 33.67L200.98 33.67L200.98 15.19L191.66 15.19ZM216.72 35.02L204.72 35.02L204.72 13.85L216.72 13.85L216.72 35.02ZM206.06 15.19L206.06 33.67L215.38 33.67L215.38 15.19L206.06 15.19ZM239.33 24.98L239.33 26.88L236.83 26.88L236.83 30.77L234.79 30.77L234.79 26.88L226.58 26.88L226.58 25.08L234.65 13.54L236.83 13.54L236.83 24.98L239.33 24.98ZM228.65 24.98L234.79 24.98L234.79 19.58Q234.79 18.74 234.82 18.10Q234.84 17.45 234.86 16.88Q234.89 16.32 234.91 15.79L234.91 15.79L234.82 15.79Q234.62 16.25 234.34 16.78Q234.05 17.30 233.78 17.66L233.78 17.66L228.65 24.98ZM252.36 22.18L252.36 22.18Q252.36 24.94 251.78 26.92Q251.21 28.90 249.96 29.95Q248.71 31.01 246.65 31.01L246.65 31.01Q243.74 31.01 242.36 28.67Q240.98 26.33 240.98 22.18L240.98 22.18Q240.98 19.39 241.55 17.42Q242.11 15.46 243.36 14.41Q244.61 13.37 246.65 13.37L246.65 13.37Q248.57 13.37 249.84 14.41Q251.11 15.46 251.74 17.42Q252.36 19.39 252.36 22.18ZM243.10 22.18L243.10 22.18Q243.10 25.70 243.90 27.46Q244.70 29.21 246.65 29.21L246.65 29.21Q248.57 29.21 249.40 27.47Q250.22 25.73 250.22 22.18L250.22 22.18Q250.22 19.82 249.86 18.28Q249.50 16.73 248.72 15.95Q247.94 15.17 246.65 15.17L246.65 15.17Q245.35 15.17 244.57 15.95Q243.79 16.73 243.44 18.28Q243.10 19.82 243.10 22.18ZM266.09 22.18L266.09 22.18Q266.09 24.94 265.51 26.92Q264.94 28.90 263.69 29.95Q262.44 31.01 260.38 31.01L260.38 31.01Q257.47 31.01 256.09 28.67Q254.71 26.33 254.71 22.18L254.71 22.18Q254.71 19.39 255.28 17.42Q255.84 15.46 257.09 14.41Q258.34 13.37 260.38 13.37L260.38 13.37Q262.30 13.37 263.57 14.41Q264.84 15.46 265.46 17.42Q266.09 19.39 266.09 22.18ZM256.82 22.18L256.82 22.18Q256.82 25.70 257.63 27.46Q258.43 29.21 260.38 29.21L260.38 29.21Q262.30 29.21 263.12 27.47Q263.95 25.73 263.95 22.18L263.95 22.18Q263.95 19.82 263.59 18.28Q263.23 16.73 262.45 15.95Q261.67 15.17 260.38 15.17L260.38 15.17Q259.08 15.17 258.30 15.95Q257.52 16.73 257.17 18.28Q256.82 19.82 256.82 22.18ZM288.62 35.02L276.62 35.02L276.62 13.85L288.62 13.85L288.62 35.02ZM277.97 15.19L277.97 33.67L287.28 33.67L287.28 15.19L277.97 15.19ZM303.02 35.02L291.02 35.02L291.02 13.85L303.02 13.85L303.02 35.02ZM292.37 15.19L292.37 33.67L301.68 33.67L301.68 15.19L292.37 15.19ZM317.42 35.02L305.42 35.02L305.42 13.85L317.42 13.85L317.42 35.02ZM306.77 15.19L306.77 33.67L316.08 33.67L316.08 15.19L306.77 15.19ZM331.82 35.02L319.82 35.02L319.82 13.85L331.82 13.85L331.82 35.02ZM321.17 15.19L321.17 33.67L330.48 33.67L330.48 15.19L321.17 15.19ZM346.22 35.02L334.22 35.02L334.22 13.85L346.22 13.85L346.22 35.02ZM335.57 15.19L335.57 33.67L344.88 33.67L344.88 15.19L335.57 15.19ZM360.62 35.02L348.62 35.02L348.62 13.85L360.62 13.85L360.62 35.02ZM349.97 15.19L349.97 33.67L359.28 33.67L359.28 15.19L349.97 15.19Z"/></svg>