<svg xmlns="http://www.w3.org/2000/svg" xmlns:xlink="http://www.w3.org/1999/xlink" width="197.04000000000002" height="28.704"><path fill="black" d="M8.66 23.14L12.53 23.14L12.67 6.34L7.51 6.34L0.58 23.14L4.37 23.14L5.76 19.54L8.78 19.54L8.66 23.14ZM9 16.25L6.98 16.25L9.34 9.82L9 16.25ZM22.94 23.14L22.94 23.14L26.52 6.34L23.04 6.34L21.96 11.38Q21.38 11.11 20.81 11.00Q20.23 10.90 19.54 10.90L19.54 10.90Q18.89 10.90 18.25 11.11Q17.62 11.33 17.06 11.77Q16.51 12.22 16.12 12.90Q15.72 13.58 15.53 14.50L15.53 14.50L14.52 19.20Q14.28 20.33 14.50 21.12Q14.71 21.91 15.30 22.42Q15.89 22.92 16.75 23.16Q17.62 23.40 18.62 23.40L18.62 23.40Q19.08 23.40 19.52 23.38Q19.97 23.35 20.40 23.34Q20.83 23.33 21.25 23.29Q21.67 23.26 22.10 23.21Q22.54 23.16 22.94 23.14ZM21.24 14.74L21.24 14.74L20.14 19.97Q20.14 19.97 20.08 19.97Q20.02 19.97 19.91 19.97Q19.80 19.97 19.68 19.98Q19.56 19.99 19.46 20.00Q19.37 20.02 19.27 20.02L19.27 20.02Q18.84 20.02 18.58 19.92Q18.31 19.82 18.19 19.67Q18.07 19.51 18.05 19.27Q18.02 19.03 18.10 18.72L18.10 18.72L18.84 15.22Q18.89 15.00 19.01 14.84Q19.13 14.69 19.28 14.60Q19.44 14.52 19.63 14.47Q19.82 14.42 19.99 14.42L19.99 14.42Q20.45 14.42 20.77 14.54Q21.10 14.66 21.24 14.74ZM30.98 11.11L27.48 11.11L28.32 23.14L31.75 23.14L37.63 11.11L34.06 11.11L31.01 18.34L30.98 11.11ZM40.49 19.34L40.49 19.34L40.61 18.91L46.13 18.62L46.92 14.90Q47.21 13.56 46.84 12.66Q46.46 11.76 45.56 11.32Q44.66 10.87 43.34 10.87L43.34 10.87Q42.02 10.87 40.91 11.34Q39.79 11.81 39.01 12.72Q38.23 13.63 37.94 14.98L37.94 14.98L36.89 19.90Q36.70 20.81 36.86 21.48Q37.03 22.15 37.50 22.58Q37.97 23.02 38.68 23.23Q39.38 23.45 40.25 23.45L40.25 23.45Q41.38 23.45 42.56 23.14Q43.75 22.82 44.71 22.30L44.71 22.30L44.30 19.54Q43.63 19.80 42.78 20.05Q41.93 20.30 41.35 20.30L41.35 20.30Q41.09 20.30 40.91 20.23Q40.73 20.16 40.62 20.04Q40.51 19.92 40.48 19.74Q40.44 19.56 40.49 19.34ZM43.32 15.38L43.32 15.38L43.20 15.94L41.21 16.08L41.35 15.36Q41.45 14.93 41.59 14.63Q41.74 14.33 41.99 14.16Q42.24 13.99 42.67 13.97L42.67 13.97Q43.08 13.94 43.24 14.16Q43.39 14.38 43.39 14.70Q43.39 15.02 43.32 15.38ZM54.41 15.17L54.41 15.17L52.70 23.16L56.18 23.16L57.96 14.83Q58.15 13.90 58.10 13.22Q58.06 12.55 57.82 12.11Q57.58 11.66 57.20 11.40Q56.83 11.14 56.38 11.02Q55.92 10.90 55.44 10.90L55.44 10.90Q54.89 10.90 54.41 11.02Q53.93 11.14 53.57 11.29Q53.21 11.45 53.02 11.57L53.02 11.57L53.11 11.11L49.63 11.11L47.09 23.16L50.57 23.16L52.39 14.57Q52.63 14.42 52.85 14.35Q53.06 14.28 53.26 14.24Q53.45 14.21 53.59 14.21L53.59 14.21Q53.83 14.21 54 14.28Q54.17 14.35 54.28 14.48Q54.38 14.62 54.42 14.80Q54.46 14.98 54.41 15.17ZM62.62 19.10L62.62 19.10L63.60 14.50L65.21 14.50L66.50 11.14L64.32 11.14L65.33 6.34L61.82 6.34L59.02 19.51Q58.63 21.38 59.45 22.39Q60.26 23.40 62.23 23.45L62.23 23.45L64.06 20.40Q63.50 20.40 63.14 20.28Q62.78 20.16 62.65 19.88Q62.52 19.61 62.62 19.10ZM81.14 6.34L81.14 6.34L75.91 6.34L72.34 23.14L75.84 23.14L76.78 18.72L78.53 18.72Q79.49 18.72 80.47 18.47Q81.46 18.22 82.36 17.54Q83.26 16.87 83.96 15.64Q84.67 14.40 85.10 12.43L85.10 12.43Q85.49 10.61 85.28 9.42Q85.08 8.23 84.46 7.56Q83.83 6.89 82.96 6.61Q82.08 6.34 81.14 6.34ZM78.53 15.53L77.45 15.53L78.70 9.60L79.78 9.60Q80.40 9.60 80.83 9.72Q81.26 9.84 81.49 10.15Q81.72 10.46 81.76 11.02Q81.79 11.57 81.60 12.46L81.60 12.46Q81.38 13.42 81.12 14.02Q80.86 14.62 80.50 14.95Q80.14 15.29 79.64 15.41Q79.15 15.53 78.53 15.53L78.53 15.53ZM93.77 14.38L93.77 14.38L94.75 11.11Q94.49 10.97 94.12 10.86Q93.74 10.75 93.29 10.75L93.29 10.75Q92.66 10.75 91.99 10.97Q91.32 11.18 90.74 11.59L90.74 11.59L90.84 11.11L87.34 11.11L84.79 23.14L88.27 23.14L90.02 14.88Q90.38 14.69 90.73 14.57Q91.08 14.45 91.42 14.36Q91.75 14.28 92.09 14.24Q92.42 14.21 92.76 14.21L92.76 14.21Q93.29 14.21 93.53 14.29Q93.77 14.38 93.77 14.38ZM103.54 18.70L103.54 18.70L104.21 15.53Q104.69 13.32 103.79 12.08Q102.89 10.85 100.75 10.85L100.75 10.85Q99.24 10.85 98.10 11.40Q96.96 11.95 96.20 12.98Q95.45 14.02 95.14 15.53L95.14 15.53L94.44 18.70Q94.18 20.02 94.43 21.07Q94.68 22.13 95.56 22.75Q96.43 23.38 98.04 23.38L98.04 23.38Q100.30 23.38 101.69 22.09Q103.08 20.81 103.54 18.70ZM100.70 15.53L100.70 15.53L100.03 18.72Q99.96 19.06 99.79 19.33Q99.62 19.61 99.37 19.76Q99.12 19.92 98.76 19.92L98.76 19.92Q98.38 19.92 98.18 19.75Q97.99 19.58 97.94 19.31Q97.90 19.03 97.94 18.72L97.94 18.72L98.62 15.53Q98.71 15.12 98.89 14.86Q99.07 14.59 99.35 14.46Q99.62 14.33 99.96 14.33L99.96 14.33Q100.30 14.33 100.49 14.47Q100.68 14.62 100.73 14.88Q100.78 15.14 100.70 15.53ZM119.57 6.10L119.57 6.10Q118.39 6.10 117.32 6.66Q116.26 7.22 115.49 8.18Q114.72 9.14 114.48 10.32L114.48 10.32Q114.34 11.04 114.38 11.65Q114.43 12.26 114.71 12.79Q114.98 13.32 115.54 13.78L115.54 13.78Q114.65 14.16 113.88 14.88Q113.11 15.60 112.57 16.48Q112.03 17.35 111.82 18.29L111.82 18.29Q111.53 19.68 111.96 20.84Q112.39 22.01 113.40 22.72Q114.41 23.42 115.85 23.42L115.85 23.42Q117.29 23.42 118.60 22.73Q119.90 22.03 120.85 20.86Q121.80 19.68 122.09 18.29L122.09 18.29Q122.28 17.38 122.14 16.51Q121.99 15.65 121.52 14.95Q121.06 14.26 120.31 13.80L120.31 13.80Q121.37 13.18 122.02 12.32Q122.66 11.47 122.90 10.32L122.90 10.32Q123.14 9.14 122.78 8.20Q122.42 7.25 121.60 6.67Q120.77 6.10 119.57 6.10ZM118.39 11.50L118.39 11.50Q118.08 11.50 117.84 11.33Q117.60 11.16 117.49 10.88Q117.38 10.61 117.46 10.30L117.46 10.30Q117.53 9.94 117.74 9.67Q117.96 9.41 118.27 9.26Q118.58 9.12 118.92 9.12L118.92 9.12Q119.26 9.12 119.50 9.26Q119.74 9.41 119.83 9.67Q119.93 9.94 119.86 10.30L119.86 10.30Q119.78 10.58 119.56 10.87Q119.33 11.16 119.03 11.33Q118.73 11.50 118.39 11.50ZM116.59 19.99L116.59 19.99Q116.11 19.99 115.78 19.76Q115.44 19.54 115.30 19.14Q115.15 18.74 115.25 18.29L115.25 18.29Q115.32 17.93 115.51 17.63Q115.70 17.33 115.99 17.09Q116.28 16.85 116.62 16.72Q116.95 16.58 117.31 16.58L117.31 16.58Q117.79 16.58 118.13 16.81Q118.46 17.04 118.60 17.42Q118.73 17.81 118.63 18.29L118.63 18.29Q118.54 18.74 118.24 19.14Q117.94 19.54 117.49 19.76Q117.05 19.99 116.59 19.99ZM125.71 10.94L125.71 10.94L124.10 18.58Q123.79 20.14 124.24 21.22Q124.68 22.30 125.71 22.85Q126.74 23.40 128.16 23.40L128.16 23.40Q129.67 23.40 130.92 22.84Q132.17 22.27 133.03 21.20Q133.90 20.14 134.21 18.67L134.21 18.67L135.82 11.06Q136.32 8.71 135.29 7.32Q134.26 5.93 131.88 5.93L131.88 5.93Q129.50 5.93 127.87 7.21Q126.24 8.50 125.71 10.94ZM127.68 18.24L127.68 18.24L129.14 11.50Q129.31 10.70 129.58 10.22Q129.84 9.74 130.22 9.52Q130.61 9.29 131.14 9.29L131.14 9.29Q131.71 9.29 132 9.52Q132.29 9.74 132.34 10.24Q132.38 10.73 132.22 11.50L132.22 11.50L130.78 18.22Q130.66 18.79 130.38 19.22Q130.10 19.66 129.71 19.88Q129.31 20.11 128.81 20.11L128.81 20.11Q128.28 20.11 127.99 19.90Q127.70 19.68 127.63 19.26Q127.56 18.84 127.68 18.24ZM138.05 10.94L138.05 10.94L136.44 18.58Q136.13 20.14 136.57 21.22Q137.02 22.30 138.05 22.85Q139.08 23.40 140.50 23.40L140.50 23.40Q142.01 23.40 143.26 22.84Q144.50 22.27 145.37 21.20Q146.23 20.14 146.54 18.67L146.54 18.67L148.15 11.06Q148.66 8.71 147.62 7.32Q146.59 5.93 144.22 5.93L144.22 5.93Q141.84 5.93 140.21 7.21Q138.58 8.50 138.05 10.94ZM140.02 18.24L140.02 18.24L141.48 11.50Q141.65 10.70 141.91 10.22Q142.18 9.74 142.56 9.52Q142.94 9.29 143.47 9.29L143.47 9.29Q144.05 9.29 144.34 9.52Q144.62 9.74 144.67 10.24Q144.72 10.73 144.55 11.50L144.55 11.50L143.11 18.22Q142.99 18.79 142.72 19.22Q142.44 19.66 142.04 19.88Q141.65 20.11 141.14 20.11L141.14 20.11Q140.62 20.11 140.33 19.90Q140.04 19.68 139.97 19.26Q139.90 18.84 140.02 18.24ZM156.82 11.11L154.25 23.14L157.75 23.14L160.30 11.11L156.82 11.11ZM159.70 5.74L159.70 5.74Q158.93 5.74 158.32 6.22Q157.70 6.70 157.54 7.49L157.54 7.49Q157.39 8.23 157.78 8.76Q158.16 9.29 158.93 9.29L158.93 9.29Q159.70 9.29 160.33 8.76Q160.97 8.23 161.14 7.49L161.14 7.49Q161.28 6.70 160.87 6.22Q160.46 5.74 159.70 5.74ZM164.33 19.10L164.33 19.10L165.31 14.50L166.92 14.50L168.22 11.14L166.03 11.14L167.04 6.34L163.54 6.34L160.73 19.51Q160.34 21.38 161.16 22.39Q161.98 23.40 163.94 23.45L163.94 23.45L165.77 20.40Q165.22 20.40 164.86 20.28Q164.50 20.16 164.36 19.88Q164.23 19.61 164.33 19.10ZM173.64 14.66L173.64 14.66Q173.47 14.33 173.10 14.10Q172.73 13.87 172.25 13.74Q171.77 13.61 171.24 13.61L171.24 13.61Q170.59 13.61 169.98 13.81Q169.37 14.02 168.85 14.45Q168.34 14.88 167.95 15.55Q167.57 16.22 167.35 17.14L167.35 17.14L166.87 19.39Q166.63 20.54 166.85 21.31Q167.06 22.08 167.65 22.54Q168.24 22.99 169.09 23.20Q169.94 23.40 170.98 23.40L170.98 23.40Q171.46 23.40 171.91 23.39Q172.37 23.38 172.81 23.36Q173.26 23.35 173.69 23.32Q174.12 23.28 174.53 23.23Q174.94 23.18 175.34 23.14L175.34 23.14L176.93 15.77Q177.22 14.38 177.14 13.44Q177.07 12.50 176.59 11.94Q176.11 11.38 175.18 11.14Q174.24 10.90 172.82 10.90L172.82 10.90L171.98 12.89Q172.44 12.89 172.80 12.98Q173.16 13.08 173.38 13.28Q173.59 13.49 173.66 13.82Q173.74 14.16 173.64 14.66ZM173.14 17.21L173.14 17.21L172.44 20.42Q172.44 20.42 172.38 20.44Q172.32 20.45 172.21 20.45Q172.10 20.45 171.98 20.46Q171.86 20.47 171.74 20.48Q171.62 20.50 171.53 20.50L171.53 20.50Q171.10 20.50 170.83 20.42Q170.57 20.35 170.46 20.20Q170.35 20.04 170.34 19.84Q170.33 19.63 170.38 19.39L170.38 19.39L170.78 17.47Q170.83 17.28 170.92 17.14Q171 16.99 171.13 16.91Q171.26 16.82 171.42 16.78Q171.58 16.73 171.74 16.73L171.74 16.73Q172.06 16.73 172.34 16.82Q172.63 16.92 172.85 17.03Q173.06 17.14 173.14 17.21ZM180.96 6.34L177.38 23.14L180.86 23.14L184.44 6.34L180.96 6.34ZM185.59 11.11L183.02 23.14L186.53 23.14L189.07 11.11L185.59 11.11ZM188.47 5.74L188.47 5.74Q187.70 5.74 187.09 6.22Q186.48 6.70 186.31 7.49L186.31 7.49Q186.17 8.23 186.55 8.76Q186.94 9.29 187.70 9.29L187.70 9.29Q188.47 9.29 189.11 8.76Q189.74 8.23 189.91 7.49L189.91 7.49Q190.06 6.70 189.65 6.22Q189.24 5.74 188.47 5.74ZM197.26 14.57L197.26 14.57L198.70 11.64Q198.05 11.30 197.30 11.09Q196.56 10.87 195.79 10.85L195.79 10.85Q194.21 10.80 193.07 11.39Q191.93 11.98 191.21 13.02Q190.49 14.06 190.20 15.46L190.20 15.46L189.43 18.96Q189.12 20.47 189.48 21.46Q189.84 22.44 190.78 22.91Q191.71 23.38 193.08 23.42L193.08 23.42Q193.90 23.45 194.72 23.33Q195.55 23.21 196.32 23.02L196.32 23.02L196.30 19.87Q196.30 19.87 196.15 19.91Q196.01 19.94 195.76 19.98Q195.50 20.02 195.22 20.04Q194.93 20.06 194.64 20.06L194.64 20.06Q194.23 20.06 193.91 19.97Q193.58 19.87 193.39 19.68Q193.20 19.49 193.13 19.18Q193.06 18.86 193.15 18.46L193.15 18.46L193.73 15.65Q193.85 15.12 194.15 14.78Q194.45 14.45 194.88 14.30Q195.31 14.16 195.79 14.16L195.79 14.16Q196.20 14.18 196.58 14.28Q196.97 14.38 197.26 14.57Z"/></svg>