<svg xmlns="http://www.w3.org/2000/svg" xmlns:xlink="http://www.w3.org/1999/xlink" width="268.848" height="30"><path fill="black" d="M3.07 24Q2.66 24 2.44 23.77Q2.21 23.54 2.21 23.14L2.21 23.14L2.21 7.20L9.05 7.20Q10.90 7.20 12.02 8.15Q13.15 9.10 13.15 10.66L13.15 10.66L13.15 12.10Q13.15 13.22 12.71 14.05Q12.26 14.88 11.50 15.31L11.50 15.31L11.50 15.34Q12.72 15.60 13.46 16.50Q14.21 17.40 14.21 18.62L14.21 18.62L14.21 20.04Q14.21 21.82 13.01 22.91Q11.81 24 9.84 24L9.84 24L3.07 24ZM3.07 15.14L9.53 15.14Q10.78 15.14 11.53 14.32Q12.29 13.49 12.29 12.10L12.29 12.10L12.29 10.66Q12.29 9.46 11.40 8.72Q10.51 7.99 9.05 7.99L9.05 7.99L3.07 7.99L3.07 15.14ZM3.07 23.21L9.84 23.21Q11.40 23.21 12.37 22.33Q13.34 21.46 13.34 20.04L13.34 20.04L13.34 18.62Q13.34 17.40 12.50 16.66Q11.66 15.91 10.27 15.91L10.27 15.91L3.07 15.91L3.07 23.21ZM20.76 24.19Q19.18 24.19 18.20 23.35Q17.23 22.51 17.23 21.12L17.23 21.12L17.23 20.06Q17.23 18.67 18.20 17.84Q19.18 17.02 20.81 17.02L20.81 17.02L22.42 17.02Q23.26 17.02 24.17 17.32Q25.08 17.62 25.70 18.12L25.70 18.12L25.70 15.46Q25.70 14.18 24.96 13.39Q24.22 12.60 23.02 12.60L23.02 12.60L21.19 12.60Q19.94 12.60 19.18 13.18Q18.41 13.75 18.41 14.71L18.41 14.71L17.57 14.71Q17.57 13.42 18.56 12.62Q19.56 11.83 21.19 11.83L21.19 11.83L23.02 11.83Q24.60 11.83 25.57 12.83Q26.54 13.82 26.54 15.46L26.54 15.46L26.54 24L25.73 24L25.73 21.96Q25.01 23.02 24.10 23.60Q23.18 24.19 22.27 24.19L22.27 24.19L20.76 24.19ZM20.76 23.42L22.27 23.42Q23.16 23.42 24.10 22.68Q25.03 21.94 25.70 20.74L25.70 20.74L25.70 19.03Q25.15 18.48 24.24 18.13Q23.33 17.78 22.42 17.78L22.42 17.78L20.81 17.78Q19.56 17.78 18.82 18.40Q18.07 19.01 18.07 20.06L18.07 20.06L18.07 21.12Q18.07 22.15 18.82 22.79Q19.56 23.42 20.76 23.42L20.76 23.42ZM31.46 9.77Q31.08 9.77 30.85 9.54Q30.62 9.31 30.62 8.93L30.62 8.93Q30.62 8.54 30.85 8.32Q31.08 8.09 31.46 8.09L31.46 8.09Q31.85 8.09 32.08 8.32Q32.30 8.54 32.30 8.93L32.30 8.93Q32.30 9.31 32.08 9.54Q31.85 9.77 31.46 9.77L31.46 9.77ZM31.03 24L31.03 12.02L31.87 12.02L31.87 24L31.03 24ZM45.50 24.19Q44.30 24.19 43.38 23.58Q42.46 22.97 41.94 21.85Q41.42 20.74 41.42 19.27L41.42 19.27L42.29 19.27Q42.29 21.12 43.18 22.26Q44.06 23.40 45.50 23.40L45.50 23.40L47.74 23.40Q49.25 23.40 50.11 22.19Q50.98 20.98 50.98 18.84L50.98 18.84L50.98 7.20L51.84 7.20L51.84 18.84Q51.84 21.36 50.75 22.78Q49.66 24.19 47.74 24.19L47.74 24.19L45.50 24.19ZM59.06 24.19Q57.48 24.19 56.51 23.35Q55.54 22.51 55.54 21.12L55.54 21.12L55.54 20.06Q55.54 18.67 56.51 17.84Q57.48 17.02 59.11 17.02L59.11 17.02L60.72 17.02Q61.56 17.02 62.47 17.32Q63.38 17.62 64.01 18.12L64.01 18.12L64.01 15.46Q64.01 14.18 63.26 13.39Q62.52 12.60 61.32 12.60L61.32 12.60L59.50 12.60Q58.25 12.60 57.48 13.18Q56.71 13.75 56.71 14.71L56.71 14.71L55.87 14.71Q55.87 13.42 56.87 12.62Q57.86 11.83 59.50 11.83L59.50 11.83L61.32 11.83Q62.90 11.83 63.88 12.83Q64.85 13.82 64.85 15.46L64.85 15.46L64.85 24L64.03 24L64.03 21.96Q63.31 23.02 62.40 23.60Q61.49 24.19 60.58 24.19L60.58 24.19L59.06 24.19ZM59.06 23.42L60.58 23.42Q61.46 23.42 62.40 22.68Q63.34 21.94 64.01 20.74L64.01 20.74L64.01 19.03Q63.46 18.48 62.54 18.13Q61.63 17.78 60.72 17.78L60.72 17.78L59.11 17.78Q57.86 17.78 57.12 18.40Q56.38 19.01 56.38 20.06L56.38 20.06L56.38 21.12Q56.38 22.15 57.12 22.79Q57.86 23.42 59.06 23.42L59.06 23.42ZM81.72 11.83Q83.11 11.83 83.95 12.78Q84.79 13.73 84.79 15.29L84.79 15.29L84.79 24L83.95 24L83.95 15.29Q83.95 14.09 83.34 13.34Q82.73 12.60 81.72 12.60L81.72 12.60L80.23 12.60Q79.18 12.60 78.37 13.45Q77.57 14.30 77.28 15.67L77.28 15.67L77.28 24L76.44 24L76.44 15.53Q76.44 14.23 75.84 13.42Q75.24 12.60 74.30 12.60L74.30 12.60L72.86 12.60Q71.88 12.60 71.02 13.52Q70.15 14.45 69.77 15.86L69.77 15.86L69.77 24L68.93 24L68.93 12.02L69.74 12.02L69.74 14.21Q70.30 13.08 71.11 12.46Q71.93 11.83 72.86 11.83L72.86 11.83L74.30 11.83Q75.26 11.83 76.02 12.46Q76.78 13.08 77.04 14.14L77.04 14.14Q77.52 13.08 78.36 12.46Q79.20 11.83 80.23 11.83L80.23 11.83L81.72 11.83ZM89.86 9.77Q89.47 9.77 89.24 9.54Q89.02 9.31 89.02 8.93L89.02 8.93Q89.02 8.54 89.24 8.32Q89.47 8.09 89.86 8.09L89.86 8.09Q90.24 8.09 90.47 8.32Q90.70 8.54 90.70 8.93L90.70 8.93Q90.70 9.31 90.47 9.54Q90.24 9.77 89.86 9.77L89.86 9.77ZM86.28 28.78L86.28 28.01L86.74 28.01Q88.22 28.01 88.82 27.29Q89.42 26.57 89.42 24.77L89.42 24.77L89.42 12.02L90.26 12.02L90.26 24.65Q90.26 26.21 89.93 27.10Q89.59 27.98 88.82 28.38Q88.06 28.78 86.74 28.78L86.74 28.78L86.28 28.78ZM98.11 24.19Q96.62 24.19 95.70 23.17Q94.78 22.15 94.78 20.50L94.78 20.50L94.78 12.02L95.62 12.02L95.62 20.50Q95.62 21.82 96.30 22.62Q96.98 23.42 98.11 23.42L98.11 23.42L99.60 23.42Q100.27 23.42 101.03 22.91Q101.78 22.39 102.38 21.58Q102.98 20.76 103.20 19.87L103.20 19.87L103.20 12.02L104.04 12.02L104.04 24L103.22 24L103.22 21.53Q102.55 22.70 101.56 23.45Q100.56 24.19 99.62 24.19L99.62 24.19L98.11 24.19ZM108.26 24L108.26 12.02L109.08 12.02L109.08 14.09Q109.63 13.08 110.63 12.53Q111.62 11.98 112.82 11.98L112.82 11.98L113.57 11.98L113.57 12.74L112.80 12.74Q111.77 12.74 110.92 13.21Q110.06 13.68 109.58 14.52Q109.10 15.36 109.10 16.44L109.10 16.44L109.10 24L108.26 24ZM119.57 24.19Q117.77 24.19 116.68 23.08Q115.58 21.96 115.58 20.14L115.58 20.14L115.58 16.15Q115.58 14.21 116.68 13.02Q117.77 11.83 119.54 11.83L119.54 11.83L121.51 11.83Q123.26 11.83 124.32 12.98Q125.38 14.14 125.38 16.06L125.38 16.06L125.38 18L116.42 18L116.42 20.14Q116.42 21.62 117.29 22.52Q118.15 23.42 119.57 23.42L119.57 23.42L121.39 23.42Q122.78 23.42 123.64 22.58Q124.49 21.74 124.49 20.38L124.49 20.38L125.33 20.38Q125.33 22.08 124.24 23.14Q123.14 24.19 121.39 24.19L121.39 24.19L119.57 24.19ZM116.42 17.26L124.54 17.26L124.54 16.06Q124.54 14.50 123.71 13.55Q122.88 12.60 121.51 12.60L121.51 12.60L119.54 12.60Q118.13 12.60 117.28 13.57Q116.42 14.54 116.42 16.15L116.42 16.15L116.42 17.26ZM132.48 24.19Q130.68 24.19 129.59 23.08Q128.50 21.96 128.50 20.14L128.50 20.14L128.50 16.15Q128.50 14.21 129.59 13.02Q130.68 11.83 132.46 11.83L132.46 11.83L134.42 11.83Q136.18 11.83 137.23 12.98Q138.29 14.14 138.29 16.06L138.29 16.06L138.29 18L129.34 18L129.34 20.14Q129.34 21.62 130.20 22.52Q131.06 23.42 132.48 23.42L132.48 23.42L134.30 23.42Q135.70 23.42 136.55 22.58Q137.40 21.74 137.40 20.38L137.40 20.38L138.24 20.38Q138.24 22.08 137.15 23.14Q136.06 24.19 134.30 24.19L134.30 24.19L132.48 24.19ZM129.34 17.26L137.45 17.26L137.45 16.06Q137.45 14.50 136.62 13.55Q135.79 12.60 134.42 12.60L134.42 12.60L132.46 12.60Q131.04 12.60 130.19 13.57Q129.34 14.54 129.34 16.15L129.34 16.15L129.34 17.26ZM147.24 24L147.24 23.33Q147.24 21.74 147.62 20.80Q148.01 19.85 149.06 18.96L149.06 18.96L154.97 13.87Q156.43 12.60 156.43 11.18L156.43 11.18L156.43 10.42Q156.43 9.24 155.60 8.52Q154.78 7.80 153.43 7.80L153.43 7.80L151.20 7.80Q149.74 7.80 148.85 8.77Q147.96 9.74 147.96 11.35L147.96 11.35L147.12 11.35Q147.12 9.38 148.24 8.20Q149.35 7.01 151.20 7.01L151.20 7.01L153.43 7.01Q155.18 7.01 156.24 7.94Q157.30 8.88 157.30 10.42L157.30 10.42L157.30 11.18Q157.30 12.94 155.57 14.45L155.57 14.45L149.86 19.34Q148.85 20.21 148.48 21.02Q148.10 21.84 148.10 23.21L148.10 23.21L157.54 23.21L157.54 24L147.24 24ZM165.00 24.19Q163.01 24.19 161.78 22.84Q160.56 21.48 160.56 19.25L160.56 19.25L160.56 11.95Q160.56 9.72 161.78 8.36Q163.01 7.01 165.00 7.01L165.00 7.01L167.54 7.01Q169.54 7.01 170.76 8.36Q171.98 9.72 171.98 11.95L171.98 11.95L171.98 19.25Q171.98 21.48 170.76 22.84Q169.54 24.19 167.54 24.19L167.54 24.19L165.00 24.19ZM165.05 23.40L167.50 23.40Q169.13 23.40 170.12 22.26Q171.12 21.12 171.12 19.25L171.12 19.25L171.12 11.95Q171.12 10.08 170.12 8.94Q169.13 7.80 167.50 7.80L167.50 7.80L165.05 7.80Q163.42 7.80 162.42 8.94Q161.42 10.08 161.42 11.95L161.42 11.95L161.42 19.25Q161.42 21.12 162.42 22.26Q163.42 23.40 165.05 23.40L165.05 23.40ZM180.17 24.19Q178.18 24.19 176.95 22.84Q175.73 21.48 175.73 19.25L175.73 19.25L175.73 11.95Q175.73 9.72 176.95 8.36Q178.18 7.01 180.17 7.01L180.17 7.01L182.71 7.01Q184.70 7.01 185.93 8.36Q187.15 9.72 187.15 11.95L187.15 11.95L187.15 19.25Q187.15 21.48 185.93 22.84Q184.70 24.19 182.71 24.19L182.71 24.19L180.17 24.19ZM180.22 23.40L182.66 23.40Q184.30 23.40 185.29 22.26Q186.29 21.12 186.29 19.25L186.29 19.25L186.29 11.95Q186.29 10.08 185.29 8.94Q184.30 7.80 182.66 7.80L182.66 7.80L180.22 7.80Q178.58 7.80 177.59 8.94Q176.59 10.08 176.59 11.95L176.59 11.95L176.59 19.25Q176.59 21.12 177.59 22.26Q178.58 23.40 180.22 23.40L180.22 23.40ZM197.04 24L197.04 12.02L197.86 12.02L197.86 14.35Q198.53 13.13 199.46 12.48Q200.40 11.83 201.43 11.83L201.43 11.83L203.02 11.83Q204.50 11.83 205.43 12.90Q206.35 13.97 206.35 15.72L206.35 15.72L206.35 24L205.51 24L205.51 15.72Q205.51 14.33 204.83 13.46Q204.14 12.60 203.02 12.60L203.02 12.60L201.43 12.60Q200.40 12.60 199.42 13.49Q198.43 14.38 197.88 15.84L197.88 15.84L197.88 24L197.04 24ZM214.01 24.19Q212.18 24.19 211.07 23.02Q209.95 21.84 209.95 19.94L209.95 19.94L209.95 16.08Q209.95 14.18 211.09 13.01Q212.23 11.83 214.08 11.83L214.08 11.83L215.88 11.83Q217.75 11.83 218.89 13.00Q220.03 14.16 220.03 16.08L220.03 16.08L220.03 19.94Q220.03 21.86 218.88 23.03Q217.73 24.19 215.83 24.19L215.83 24.19L214.01 24.19ZM214.01 23.42L215.83 23.42Q217.34 23.42 218.27 22.46Q219.19 21.50 219.19 19.94L219.19 19.94L219.19 16.08Q219.19 14.52 218.28 13.56Q217.37 12.60 215.88 12.60L215.88 12.60L214.08 12.60Q212.59 12.60 211.69 13.56Q210.79 14.52 210.79 16.08L210.79 16.08L210.79 19.94Q210.79 21.50 211.68 22.46Q212.57 23.42 214.01 23.42L214.01 23.42ZM223.78 24L223.78 12.02L224.59 12.02L224.59 14.09Q225.14 13.08 226.14 12.53Q227.14 11.98 228.34 11.98L228.34 11.98L229.08 11.98L229.08 12.74L228.31 12.74Q227.28 12.74 226.43 13.21Q225.58 13.68 225.10 14.52Q224.62 15.36 224.62 16.44L224.62 16.44L224.62 24L223.78 24ZM244.75 11.83Q246.14 11.83 246.98 12.78Q247.82 13.73 247.82 15.29L247.82 15.29L247.82 24L246.98 24L246.98 15.29Q246.98 14.09 246.37 13.34Q245.76 12.60 244.75 12.60L244.75 12.60L243.26 12.60Q242.21 12.60 241.40 13.45Q240.60 14.30 240.31 15.67L240.31 15.67L240.31 24L239.47 24L239.47 15.53Q239.47 14.23 238.87 13.42Q238.27 12.60 237.34 12.60L237.34 12.60L235.90 12.60Q234.91 12.60 234.05 13.52Q233.18 14.45 232.80 15.86L232.80 15.86L232.80 24L231.96 24L231.96 12.02L232.78 12.02L232.78 14.21Q233.33 13.08 234.14 12.46Q234.96 11.83 235.90 11.83L235.90 11.83L237.34 11.83Q238.30 11.83 239.05 12.46Q239.81 13.08 240.07 14.14L240.07 14.14Q240.55 13.08 241.39 12.46Q242.23 11.83 243.26 11.83L243.26 11.83L244.75 11.83ZM255 24.19Q253.42 24.19 252.44 23.35Q251.47 22.51 251.47 21.12L251.47 21.12L251.47 20.06Q251.47 18.67 252.44 17.84Q253.42 17.02 255.05 17.02L255.05 17.02L256.66 17.02Q257.50 17.02 258.41 17.32Q259.32 17.62 259.94 18.12L259.94 18.12L259.94 15.46Q259.94 14.18 259.20 13.39Q258.46 12.60 257.26 12.60L257.26 12.60L255.43 12.60Q254.18 12.60 253.42 13.18Q252.65 13.75 252.65 14.71L252.65 14.71L251.81 14.71Q251.81 13.42 252.80 12.62Q253.80 11.83 255.43 11.83L255.43 11.83L257.26 11.83Q258.84 11.83 259.81 12.83Q260.78 13.82 260.78 15.46L260.78 15.46L260.78 24L259.97 24L259.97 21.96Q259.25 23.02 258.34 23.60Q257.42 24.19 256.51 24.19L256.51 24.19L255 24.19ZM255 23.42L256.51 23.42Q257.40 23.42 258.34 22.68Q259.27 21.94 259.94 20.74L259.94 20.74L259.94 19.03Q259.39 18.48 258.48 18.13Q257.57 17.78 256.66 17.78L256.66 17.78L255.05 17.78Q253.80 17.78 253.06 18.40Q252.31 19.01 252.31 20.06L252.31 20.06L252.31 21.12Q252.31 22.15 253.06 22.79Q253.80 23.42 255 23.42L255 23.42ZM267.34 24Q266.02 24 265.44 23.32Q264.86 22.63 264.86 21.05L264.86 21.05L264.86 7.20L265.70 7.20L265.70 21.05Q265.70 22.22 266.08 22.73Q266.45 23.23 267.34 23.23L267.34 23.23L268.08 23.23L268.08 24L267.34 24Z"/></svg>