<svg xmlns="http://www.w3.org/2000/svg" xmlns:xlink="http://www.w3.org/1999/xlink" width="274.16015625" height="48.94921875"><path fill="black" d="M10.91 28.55L10.91 28.55Q10.91 29.79 10.27 30.70Q9.62 31.61 8.60 32.09Q7.57 32.58 6.40 32.58L6.40 32.58Q5.64 32.58 4.88 32.37Q4.13 32.16 3.51 31.95Q2.89 31.73 2.53 31.73L2.53 31.73Q2.18 31.73 2.04 32.02Q1.91 32.30 1.88 32.58L1.88 32.58L1.49 32.58L1.49 27.61L1.88 27.61Q2.10 29.45 3.17 30.59Q4.24 31.73 6.16 31.73L6.16 31.73Q6.86 31.73 7.51 31.47Q8.17 31.21 8.59 30.68Q9.01 30.15 9.01 29.37L9.01 29.37Q9.01 28.54 8.46 27.91Q7.91 27.29 7.04 26.77Q6.18 26.25 5.20 25.73Q4.22 25.22 3.35 24.61Q2.48 24 1.93 23.20Q1.38 22.41 1.38 21.32L1.38 21.32Q1.38 20.13 1.97 19.29Q2.55 18.45 3.50 17.99Q4.45 17.54 5.55 17.54L5.55 17.54Q6.20 17.54 6.84 17.74Q7.49 17.94 8.02 18.15Q8.55 18.35 8.87 18.35L8.87 18.35Q9.20 18.35 9.35 18.06Q9.50 17.78 9.56 17.54L9.56 17.54L9.97 17.54L9.97 22.50L9.56 22.50Q9.47 21.38 8.98 20.44Q8.50 19.50 7.65 18.94Q6.80 18.38 5.58 18.38L5.58 18.38Q4.95 18.38 4.37 18.64Q3.79 18.91 3.42 19.41Q3.05 19.90 3.05 20.57L3.05 20.57Q3.05 21.35 3.62 21.95Q4.18 22.55 5.08 23.05Q5.98 23.55 6.98 24.06Q7.98 24.57 8.88 25.19Q9.77 25.80 10.34 26.61Q10.91 27.42 10.91 28.55ZM20.67 28.41L20.67 28.41L21 28.55Q20.84 29.54 20.29 30.46Q19.75 31.38 18.89 31.97Q18.04 32.55 16.93 32.55L16.93 32.55Q15.53 32.55 14.61 31.78Q13.69 31.00 13.24 29.81Q12.79 28.62 12.79 27.39L12.79 27.39Q12.79 26.03 13.35 24.86Q13.92 23.68 14.96 22.96Q16.01 22.23 17.43 22.23L17.43 22.23Q18.08 22.23 18.85 22.49Q19.62 22.75 20.17 23.27Q20.73 23.79 20.73 24.56L20.73 24.56Q20.73 25.03 20.46 25.25Q20.19 25.46 19.73 25.46L19.73 25.46Q19.16 25.46 18.94 25.21Q18.71 24.95 18.64 24.57Q18.57 24.19 18.48 23.81Q18.39 23.44 18.09 23.18Q17.79 22.92 17.07 22.92L17.07 22.92Q16.15 22.92 15.59 23.48Q15.04 24.04 14.79 24.86Q14.54 25.68 14.54 26.46L14.54 26.46Q14.54 27.18 14.72 27.94Q14.89 28.71 15.27 29.37Q15.64 30.02 16.24 30.43Q16.84 30.84 17.68 30.84L17.68 30.84Q18.86 30.84 19.56 30.11Q20.27 29.37 20.67 28.41ZM32.46 31.82L32.46 32.23L27.68 32.23L27.68 31.82Q28.63 31.82 28.93 31.51Q29.24 31.20 29.24 30.25L29.24 30.25L29.24 26.44Q29.24 25.70 29.16 25.04Q29.07 24.38 28.75 23.95Q28.43 23.53 27.68 23.53L27.68 23.53Q26.94 23.53 26.33 23.96Q25.71 24.40 25.25 24.91L25.25 24.91L25.25 30.25Q25.25 31.21 25.52 31.51Q25.79 31.82 26.80 31.82L26.80 31.82L26.80 32.23L22.00 32.23L22.00 31.82Q22.93 31.82 23.21 31.48Q23.50 31.14 23.50 30.25L23.50 30.25L23.50 19.99Q23.50 19.32 23.37 18.92Q23.25 18.52 22.78 18.52L22.78 18.52Q22.58 18.52 22.39 18.56Q22.20 18.61 22.00 18.68L22.00 18.68L21.83 18.32L24.76 17.17L25.25 17.17L25.25 24.26Q25.82 23.41 26.62 22.82Q27.42 22.23 28.48 22.23L28.48 22.23Q29.40 22.23 29.92 22.65Q30.45 23.06 30.67 23.73Q30.90 24.40 30.96 25.16Q31.02 25.92 31.02 26.61L31.02 26.61L31.02 30.25Q31.02 31.14 31.28 31.48Q31.54 31.82 32.46 31.82L32.46 31.82ZM41.26 28.45L41.26 28.45L41.58 28.69Q41.44 29.68 40.90 30.57Q40.36 31.45 39.52 32.00Q38.67 32.55 37.61 32.55L37.61 32.55Q36.21 32.55 35.27 31.81Q34.32 31.07 33.84 29.90Q33.36 28.73 33.36 27.47L33.36 27.47Q33.36 26.07 33.86 24.88Q34.35 23.68 35.34 22.96Q36.34 22.23 37.86 22.23L37.86 22.23Q39.62 22.23 40.60 23.35Q41.58 24.47 41.58 26.18L41.58 26.18L34.88 26.18Q34.88 27.22 35.25 28.29Q35.63 29.37 36.41 30.08Q37.20 30.80 38.41 30.80L38.41 30.80Q39.53 30.80 40.20 30.12Q40.88 29.45 41.26 28.45ZM34.88 25.57L34.88 25.57L39.36 25.57Q39.36 24.93 39.15 24.33Q38.93 23.74 38.47 23.37Q38.00 22.99 37.27 22.99L37.27 22.99Q36.18 22.99 35.57 23.79Q34.96 24.59 34.88 25.57ZM52.96 31.82L52.96 32.23L48.18 32.23L48.18 31.82Q49.13 31.82 49.43 31.51Q49.73 31.20 49.73 30.25L49.73 30.25L49.73 26.44Q49.73 25.70 49.65 25.04Q49.57 24.38 49.25 23.95Q48.93 23.53 48.18 23.53L48.18 23.53Q47.44 23.53 46.82 23.96Q46.21 24.40 45.75 24.91L45.75 24.91L45.75 30.25Q45.75 31.21 46.02 31.51Q46.29 31.82 47.30 31.82L47.30 31.82L47.30 32.23L42.49 32.23L42.49 31.82Q43.43 31.82 43.71 31.48Q43.99 31.14 43.99 30.25L43.99 30.25L43.99 19.99Q43.99 19.32 43.87 18.92Q43.75 18.52 43.28 18.52L43.28 18.52Q43.08 18.52 42.88 18.56Q42.69 18.61 42.49 18.68L42.49 18.68L42.33 18.32L45.26 17.17L45.75 17.17L45.75 24.26Q46.31 23.41 47.12 22.82Q47.92 22.23 48.97 22.23L48.97 22.23Q49.90 22.23 50.42 22.65Q50.94 23.06 51.17 23.73Q51.40 24.40 51.46 25.16Q51.52 25.92 51.52 26.61L51.52 26.61L51.52 30.25Q51.52 31.14 51.77 31.48Q52.03 31.82 52.96 31.82L52.96 31.82ZM61.76 28.45L61.76 28.45L62.07 28.69Q61.93 29.68 61.39 30.57Q60.86 31.45 60.01 32.00Q59.17 32.55 58.10 32.55L58.10 32.55Q56.71 32.55 55.76 31.81Q54.82 31.07 54.34 29.90Q53.86 28.73 53.86 27.47L53.86 27.47Q53.86 26.07 54.35 24.88Q54.84 23.68 55.84 22.96Q56.84 22.23 58.36 22.23L58.36 22.23Q60.12 22.23 61.10 23.35Q62.07 24.47 62.07 26.18L62.07 26.18L55.37 26.18Q55.37 27.22 55.75 28.29Q56.12 29.37 56.91 30.08Q57.69 30.80 58.91 30.80L58.91 30.80Q60.02 30.80 60.70 30.12Q61.37 29.45 61.76 28.45ZM55.37 25.57L55.37 25.57L59.86 25.57Q59.86 24.93 59.64 24.33Q59.43 23.74 58.96 23.37Q58.50 22.99 57.76 22.99L57.76 22.99Q56.67 22.99 56.06 23.79Q55.45 24.59 55.37 25.57ZM70.10 23.41L70.10 23.41Q70.10 23.80 69.81 24.10Q69.53 24.40 69.13 24.40L69.13 24.40Q68.78 24.40 68.53 24.21Q68.29 24.02 68.08 23.84Q67.88 23.65 67.63 23.65L67.63 23.65Q67.32 23.65 66.94 24.12Q66.56 24.60 66.22 25.28L66.22 25.28L66.22 29.98Q66.22 30.90 66.57 31.36Q66.93 31.82 67.92 31.82L67.92 31.82L67.92 32.23L62.91 32.23L62.91 31.82Q63.63 31.82 63.96 31.65Q64.28 31.49 64.36 31.10Q64.44 30.71 64.44 30.04L64.44 30.04L64.44 25.84Q64.44 24.83 64.31 24.24Q64.18 23.65 63.56 23.65L63.56 23.65Q63.27 23.65 62.91 23.79L62.91 23.79L62.79 23.41L65.79 22.23L66.22 22.23L66.22 24.42Q66.47 23.98 66.83 23.47Q67.20 22.96 67.68 22.59Q68.16 22.23 68.73 22.23L68.73 22.23Q69.25 22.23 69.67 22.54Q70.10 22.85 70.10 23.41ZM79.76 30.21L79.76 30.21L79.76 30.82Q79.36 31.36 78.77 31.89Q78.19 32.43 77.45 32.43L77.45 32.43Q76.77 32.43 76.55 31.91Q76.32 31.39 76.32 30.82L76.32 30.82Q75.62 31.38 74.89 31.90Q74.17 32.43 73.22 32.43L73.22 32.43Q72.12 32.43 71.51 31.71Q70.91 30.98 70.91 29.92L70.91 29.92Q70.91 29.04 71.48 28.37Q72.06 27.69 72.93 27.20Q73.80 26.71 74.72 26.37Q75.64 26.03 76.32 25.80L76.32 25.80L76.32 25.41Q76.32 24.75 76.20 24.17Q76.07 23.59 75.68 23.23Q75.29 22.86 74.51 22.86L74.51 22.86Q73.55 22.86 73.31 23.37Q73.08 23.88 73.08 24.68L73.08 24.68Q73.08 25.15 72.89 25.42Q72.70 25.69 72.18 25.69L72.18 25.69Q71.68 25.69 71.48 25.41Q71.29 25.13 71.29 24.68L71.29 24.68Q71.29 23.80 71.87 23.26Q72.46 22.72 73.28 22.48Q74.11 22.23 74.84 22.23L74.84 22.23Q76.68 22.23 77.38 22.98Q78.08 23.73 78.08 25.55L78.08 25.55L78.08 28.85Q78.08 29.26 78.09 29.77Q78.09 30.28 78.14 30.55L78.14 30.55Q78.16 30.75 78.27 30.91Q78.38 31.08 78.60 31.08L78.60 31.08Q78.76 31.08 79.00 30.90Q79.23 30.73 79.45 30.52Q79.66 30.32 79.76 30.21ZM76.32 30.12L76.32 30.12L76.32 26.40Q75.61 26.67 74.76 27.08Q73.91 27.49 73.30 28.07Q72.69 28.65 72.69 29.43L72.69 29.43Q72.69 30.06 73.09 30.62Q73.49 31.18 74.20 31.18L74.20 31.18Q74.75 31.18 75.32 30.83Q75.89 30.47 76.32 30.12ZM89.09 22.52L89.09 22.92L82.55 31.51L86.12 31.51Q87.12 31.51 87.59 31.34Q88.05 31.16 88.24 30.67Q88.43 30.19 88.55 29.26L88.55 29.26L88.91 29.26L88.77 32.23L80.21 32.23L80.21 31.82L86.66 23.24L83.46 23.24Q82.65 23.24 82.21 23.38Q81.77 23.52 81.57 23.94Q81.36 24.36 81.27 25.20L81.27 25.20L80.88 25.20L80.93 22.52L89.09 22.52ZM99.05 30.21L99.05 30.21L99.05 30.82Q98.65 31.36 98.06 31.89Q97.48 32.43 96.74 32.43L96.74 32.43Q96.06 32.43 95.84 31.91Q95.61 31.39 95.61 30.82L95.61 30.82Q94.91 31.38 94.18 31.90Q93.46 32.43 92.51 32.43L92.51 32.43Q91.41 32.43 90.80 31.71Q90.20 30.98 90.20 29.92L90.20 29.92Q90.20 29.04 90.77 28.37Q91.35 27.69 92.22 27.20Q93.09 26.71 94.01 26.37Q94.93 26.03 95.61 25.80L95.61 25.80L95.61 25.41Q95.61 24.75 95.48 24.17Q95.36 23.59 94.97 23.23Q94.58 22.86 93.80 22.86L93.80 22.86Q92.84 22.86 92.60 23.37Q92.37 23.88 92.37 24.68L92.37 24.68Q92.37 25.15 92.18 25.42Q91.99 25.69 91.46 25.69L91.46 25.69Q90.97 25.69 90.77 25.41Q90.57 25.13 90.57 24.68L90.57 24.68Q90.57 23.80 91.16 23.26Q91.75 22.72 92.57 22.48Q93.40 22.23 94.13 22.23L94.13 22.23Q95.96 22.23 96.67 22.98Q97.37 23.73 97.37 25.55L97.37 25.55L97.37 28.85Q97.37 29.26 97.38 29.77Q97.38 30.28 97.43 30.55L97.43 30.55Q97.45 30.75 97.56 30.91Q97.66 31.08 97.89 31.08L97.89 31.08Q98.05 31.08 98.29 30.90Q98.52 30.73 98.74 30.52Q98.95 30.32 99.05 30.21ZM95.61 30.12L95.61 30.12L95.61 26.40Q94.90 26.67 94.05 27.08Q93.20 27.49 92.59 28.07Q91.98 28.65 91.98 29.43L91.98 29.43Q91.98 30.06 92.38 30.62Q92.78 31.18 93.49 31.18L93.49 31.18Q94.04 31.18 94.61 30.83Q95.18 30.47 95.61 30.12ZM109.90 30.96L110.02 31.34L107.07 32.55L106.62 32.55L106.62 31.13Q106.03 31.73 105.32 32.14Q104.61 32.55 103.77 32.55L103.77 32.55Q102.50 32.55 101.61 31.83Q100.72 31.11 100.25 30.02Q99.79 28.92 99.79 27.80L99.79 27.80Q99.79 26.79 100.11 25.80Q100.43 24.82 101.04 24.01Q101.66 23.20 102.53 22.72Q103.41 22.23 104.51 22.23L104.51 22.23Q105.09 22.23 105.64 22.42Q106.18 22.61 106.62 23.04L106.62 23.04L106.62 19.90Q106.62 19.28 106.45 18.91Q106.28 18.54 105.87 18.54L105.87 18.54Q105.68 18.54 105.50 18.58Q105.32 18.62 105.12 18.68L105.12 18.68L104.98 18.32L107.92 17.17L108.38 17.17L108.38 29.25Q108.38 30.07 108.50 30.60Q108.62 31.13 109.15 31.13L109.15 31.13Q109.32 31.13 109.52 31.07Q109.71 31.02 109.90 30.96L109.90 30.96ZM106.62 30.39L106.62 30.39L106.62 25.38Q106.62 24.77 106.32 24.19Q106.03 23.61 105.53 23.24Q105.02 22.86 104.37 22.86L104.37 22.86Q103.62 22.86 103.11 23.26Q102.60 23.66 102.30 24.29Q102 24.91 101.87 25.62Q101.74 26.32 101.74 26.93L101.74 26.93Q101.74 27.60 101.89 28.37Q102.05 29.13 102.40 29.82Q102.75 30.50 103.32 30.94Q103.89 31.37 104.71 31.37L104.71 31.37Q105.28 31.37 105.77 31.08Q106.25 30.80 106.62 30.39ZM118.62 28.45L118.62 28.45L118.93 28.69Q118.79 29.68 118.25 30.57Q117.71 31.45 116.87 32.00Q116.03 32.55 114.96 32.55L114.96 32.55Q113.57 32.55 112.62 31.81Q111.68 31.07 111.20 29.90Q110.72 28.73 110.72 27.47L110.72 27.47Q110.72 26.07 111.21 24.88Q111.70 23.68 112.70 22.96Q113.70 22.23 115.22 22.23L115.22 22.23Q116.98 22.23 117.96 23.35Q118.93 24.47 118.93 26.18L118.93 26.18L112.23 26.18Q112.23 27.22 112.61 28.29Q112.98 29.37 113.77 30.08Q114.55 30.80 115.77 30.80L115.77 30.80Q116.88 30.80 117.56 30.12Q118.23 29.45 118.62 28.45ZM112.23 25.57L112.23 25.57L116.72 25.57Q116.72 24.93 116.50 24.33Q116.29 23.74 115.82 23.37Q115.36 22.99 114.62 22.99L114.62 22.99Q113.53 22.99 112.92 23.79Q112.31 24.59 112.23 25.57ZM136.37 17.86L141.40 17.86L141.40 18.23Q140.50 18.23 140.06 18.40Q139.62 18.56 139.48 19.01Q139.35 19.46 139.35 20.33L139.35 20.33L139.35 32.45L138.97 32.45L129.47 20.88L129.47 29.72Q129.47 30.61 129.60 31.06Q129.73 31.51 130.17 31.66Q130.61 31.82 131.51 31.82L131.51 31.82L131.51 32.23L126.50 32.23L126.50 31.82Q127.39 31.82 127.83 31.65Q128.26 31.49 128.40 31.04Q128.54 30.59 128.54 29.72L128.54 29.72L128.54 19.72Q128.00 19.00 127.55 18.62Q127.10 18.23 126.13 18.23L126.13 18.23L126.13 17.86L129.64 17.86L138.43 28.63L138.43 20.33Q138.43 19.46 138.29 19.01Q138.15 18.56 137.71 18.40Q137.27 18.23 136.37 18.23L136.37 18.23L136.37 17.86ZM150.38 28.45L150.38 28.45L150.69 28.69Q150.55 29.68 150.01 30.57Q149.47 31.45 148.63 32.00Q147.79 32.55 146.72 32.55L146.72 32.55Q145.32 32.55 144.38 31.81Q143.44 31.07 142.96 29.90Q142.48 28.73 142.48 27.47L142.48 27.47Q142.48 26.07 142.97 24.88Q143.46 23.68 144.46 22.96Q145.45 22.23 146.98 22.23L146.98 22.23Q148.73 22.23 149.71 23.35Q150.69 24.47 150.69 26.18L150.69 26.18L143.99 26.18Q143.99 27.22 144.36 28.29Q144.74 29.37 145.52 30.08Q146.31 30.80 147.53 30.80L147.53 30.80Q148.64 30.80 149.31 30.12Q149.99 29.45 150.38 28.45ZM143.99 25.57L143.99 25.57L148.48 25.57Q148.48 24.93 148.26 24.33Q148.04 23.74 147.58 23.37Q147.12 22.99 146.38 22.99L146.38 22.99Q145.29 22.99 144.68 23.79Q144.07 24.59 143.99 25.57ZM163.75 22.52L166.82 22.52L166.82 22.92Q166.31 22.99 165.97 23.33Q165.63 23.66 165.45 24.14L165.45 24.14L162.21 32.55L161.78 32.55L159.33 26.32L156.54 32.55L156.13 32.55L153 24.36Q152.74 23.68 152.47 23.37Q152.20 23.05 151.44 22.92L151.44 22.92L151.44 22.52L155.53 22.52L155.53 22.92Q155.18 22.92 154.91 23.04Q154.64 23.16 154.64 23.59L154.64 23.59Q154.64 23.98 154.78 24.36L154.78 24.36L156.88 29.95L158.96 25.41Q158.72 24.74 158.54 24.18Q158.37 23.63 158.02 23.28Q157.66 22.93 156.88 22.92L156.88 22.92L156.88 22.52L161.52 22.52L161.52 22.92Q161.05 22.95 160.62 23.06Q160.20 23.18 160.20 23.77L160.20 23.77Q160.20 23.91 160.40 24.48Q160.61 25.05 160.92 25.85Q161.24 26.64 161.57 27.44Q161.91 28.24 162.17 28.87Q162.43 29.50 162.53 29.72L162.53 29.72L164.54 24.36Q164.64 24.14 164.70 23.91Q164.77 23.68 164.77 23.44L164.77 23.44Q164.77 23.07 164.39 23.00Q164.02 22.92 163.75 22.92L163.75 22.92L163.75 22.52ZM183.52 26.93L183.52 28.43L181.62 28.43L181.62 32.23L179.86 32.23L179.86 28.43L173.79 28.43L173.79 27.09L180.47 17.54L181.62 17.54L181.62 26.93L183.52 26.93ZM174.82 26.93L179.86 26.93L179.86 19.78L174.82 26.93ZM194.37 24.91L194.37 24.91Q194.37 25.77 194.22 26.79Q194.07 27.81 193.75 28.81Q193.42 29.81 192.87 30.64Q192.33 31.48 191.53 31.98Q190.73 32.48 189.64 32.48L189.64 32.48Q188.63 32.48 187.86 31.99Q187.10 31.49 186.56 30.67Q186.02 29.86 185.70 28.88Q185.37 27.89 185.21 26.91Q185.06 25.92 185.06 25.11L185.06 25.11Q185.06 24.28 185.21 23.27Q185.37 22.27 185.71 21.26Q186.05 20.25 186.59 19.41Q187.14 18.56 187.92 18.05Q188.71 17.54 189.76 17.54L189.76 17.54Q190.80 17.54 191.58 18.04Q192.35 18.53 192.88 19.34Q193.42 20.16 193.75 21.13Q194.07 22.11 194.22 23.10Q194.37 24.09 194.37 24.91ZM192.29 24.56L192.29 24.56Q192.29 24.07 192.26 23.29Q192.22 22.50 192.09 21.63Q191.96 20.75 191.68 19.98Q191.40 19.21 190.93 18.72Q190.45 18.23 189.73 18.23L189.73 18.23Q188.99 18.23 188.51 18.81Q188.03 19.38 187.75 20.28Q187.48 21.18 187.35 22.17Q187.22 23.17 187.18 24.04Q187.15 24.90 187.15 25.38L187.15 25.38Q187.15 25.88 187.18 26.67Q187.22 27.46 187.35 28.34Q187.49 29.23 187.76 30.01Q188.04 30.80 188.51 31.29Q188.98 31.79 189.70 31.79L189.70 31.79Q190.46 31.79 190.96 31.22Q191.45 30.66 191.72 29.76Q192 28.86 192.12 27.87Q192.23 26.87 192.26 25.98Q192.29 25.09 192.29 24.56ZM205.22 24.91L205.22 24.91Q205.22 25.77 205.07 26.79Q204.93 27.81 204.60 28.81Q204.27 29.81 203.72 30.64Q203.18 31.48 202.38 31.98Q201.59 32.48 200.50 32.48L200.50 32.48Q199.48 32.48 198.71 31.99Q197.95 31.49 197.41 30.67Q196.88 29.86 196.55 28.88Q196.22 27.89 196.07 26.91Q195.91 25.92 195.91 25.11L195.91 25.11Q195.91 24.28 196.07 23.27Q196.22 22.27 196.56 21.26Q196.90 20.25 197.44 19.41Q197.99 18.56 198.77 18.05Q199.56 17.54 200.61 17.54L200.61 17.54Q201.66 17.54 202.43 18.04Q203.20 18.53 203.74 19.34Q204.27 20.16 204.60 21.13Q204.93 22.11 205.07 23.10Q205.22 24.09 205.22 24.91ZM203.14 24.56L203.14 24.56Q203.14 24.07 203.11 23.29Q203.07 22.50 202.95 21.63Q202.82 20.75 202.54 19.98Q202.25 19.21 201.78 18.72Q201.30 18.23 200.58 18.23L200.58 18.23Q199.84 18.23 199.36 18.81Q198.88 19.38 198.60 20.28Q198.33 21.18 198.20 22.17Q198.07 23.17 198.04 24.04Q198 24.90 198 25.38L198 25.38Q198 25.88 198.04 26.67Q198.07 27.46 198.21 28.34Q198.34 29.23 198.62 30.01Q198.89 30.80 199.36 31.29Q199.83 31.79 200.55 31.79L200.55 31.79Q201.32 31.79 201.81 31.22Q202.30 30.66 202.58 29.76Q202.85 28.86 202.97 27.87Q203.09 26.87 203.12 25.98Q203.14 25.09 203.14 24.56ZM223.27 31.82L223.27 32.23L218.40 32.23L218.40 31.82Q219.14 31.82 219.47 31.66Q219.81 31.51 219.90 31.12Q219.98 30.73 219.98 30.04L219.98 30.04L219.98 26.06Q219.98 25.51 219.90 24.93Q219.82 24.34 219.50 23.94Q219.18 23.53 218.46 23.53L218.46 23.53Q217.70 23.53 217.07 23.96Q216.43 24.40 215.95 24.91L215.95 24.91L215.95 30.04Q215.95 30.71 216.04 31.10Q216.13 31.49 216.46 31.65Q216.80 31.82 217.52 31.82L217.52 31.82L217.52 32.23L212.70 32.23L212.70 31.82Q213.41 31.82 213.71 31.63Q214.02 31.44 214.10 31.04Q214.17 30.64 214.17 30.04L214.17 30.04L214.17 25.56Q214.17 24.83 214.04 24.23Q213.91 23.63 213.42 23.63L213.42 23.63Q213.25 23.63 213.06 23.68Q212.87 23.73 212.70 23.79L212.70 23.79L212.55 23.41L215.52 22.23L215.95 22.23L215.95 24.28Q216.54 23.55 217.37 22.89Q218.20 22.23 219.20 22.23L219.20 22.23Q220.25 22.23 220.80 22.78Q221.36 23.33 221.55 24.17Q221.74 25.01 221.74 25.89L221.74 25.89L221.74 30.04Q221.74 30.96 221.98 31.39Q222.21 31.82 223.27 31.82L223.27 31.82ZM233.40 27.19L233.40 27.19Q233.40 28.59 232.82 29.82Q232.24 31.04 231.18 31.80Q230.11 32.55 228.62 32.55L228.62 32.55Q227.23 32.55 226.18 31.83Q225.14 31.10 224.57 29.94Q224.00 28.78 224.00 27.47L224.00 27.47Q224.00 26.11 224.58 24.91Q225.16 23.72 226.22 22.97Q227.29 22.23 228.73 22.23L228.73 22.23Q230.14 22.23 231.19 22.90Q232.24 23.57 232.82 24.69Q233.40 25.82 233.40 27.19ZM231.42 28.02L231.42 28.02Q231.42 27.32 231.28 26.45Q231.14 25.58 230.79 24.77Q230.45 23.96 229.86 23.44Q229.28 22.92 228.38 22.92L228.38 22.92Q227.41 22.92 226.90 23.52Q226.39 24.12 226.20 24.97Q226.01 25.82 226.01 26.59L226.01 26.59Q226.01 27.28 226.15 28.16Q226.30 29.04 226.65 29.86Q226.99 30.68 227.58 31.22Q228.16 31.76 229.05 31.76L229.05 31.76Q230.07 31.76 230.58 31.15Q231.09 30.55 231.26 29.68Q231.42 28.82 231.42 28.02ZM241.54 23.41L241.54 23.41Q241.54 23.80 241.25 24.10Q240.96 24.40 240.56 24.40L240.56 24.40Q240.21 24.40 239.96 24.21Q239.72 24.02 239.51 23.84Q239.31 23.65 239.06 23.65L239.06 23.65Q238.76 23.65 238.38 24.12Q238.00 24.60 237.66 25.28L237.66 25.28L237.66 29.98Q237.66 30.90 238.01 31.36Q238.36 31.82 239.36 31.82L239.36 31.82L239.36 32.23L234.34 32.23L234.34 31.82Q235.07 31.82 235.39 31.65Q235.71 31.49 235.79 31.10Q235.88 30.71 235.88 30.04L235.88 30.04L235.88 25.84Q235.88 24.83 235.75 24.24Q235.62 23.65 235.00 23.65L235.00 23.65Q234.70 23.65 234.34 23.79L234.34 23.79L234.22 23.41L237.22 22.23L237.66 22.23L237.66 24.42Q237.90 23.98 238.27 23.47Q238.63 22.96 239.11 22.59Q239.59 22.23 240.16 22.23L240.16 22.23Q240.68 22.23 241.11 22.54Q241.54 22.85 241.54 23.41ZM258.39 31.82L258.39 32.23L253.58 32.23L253.58 31.82Q254.33 31.82 254.66 31.65Q254.99 31.49 255.06 31.10Q255.14 30.71 255.14 30.04L255.14 30.04L255.14 25.83Q255.14 25.29 255.02 24.75Q254.89 24.21 254.55 23.85Q254.20 23.50 253.52 23.50L253.52 23.50Q252.79 23.50 252.15 23.91Q251.52 24.33 251.02 24.83L251.02 24.83L251.02 30.04Q251.02 30.71 251.10 31.10Q251.19 31.49 251.53 31.65Q251.87 31.82 252.60 31.82L252.60 31.82L252.60 32.23L247.68 32.23L247.68 31.82Q248.45 31.82 248.78 31.66Q249.11 31.51 249.18 31.12Q249.26 30.73 249.26 30.04L249.26 30.04L249.26 25.83Q249.26 25.27 249.13 24.72Q249 24.18 248.65 23.82Q248.30 23.46 247.62 23.46L247.62 23.46Q246.87 23.46 246.24 23.89Q245.61 24.32 245.11 24.83L245.11 24.83L245.11 30.04Q245.11 30.71 245.20 31.10Q245.30 31.49 245.63 31.65Q245.96 31.82 246.70 31.82L246.70 31.82L246.70 32.23L241.90 32.23L241.90 31.82Q242.93 31.82 243.14 31.39Q243.35 30.96 243.35 30.04L243.35 30.04L243.35 25.39Q243.35 24.75 243.24 24.19Q243.13 23.63 242.61 23.63L242.61 23.63Q242.43 23.63 242.24 23.68Q242.06 23.73 241.90 23.79L241.90 23.79L241.71 23.41L244.65 22.23L245.11 22.23L245.11 24.28Q245.80 23.54 246.60 22.89Q247.41 22.23 248.48 22.23L248.48 22.23Q249.53 22.23 250.13 22.77Q250.72 23.31 250.97 24.28L250.97 24.28Q251.66 23.50 252.44 22.86Q253.22 22.23 254.36 22.23L254.36 22.23Q255.41 22.23 255.97 22.76Q256.52 23.30 256.72 24.12Q256.92 24.95 256.92 25.83L256.92 25.83L256.92 30.04Q256.92 30.94 257.15 31.38Q257.38 31.82 258.39 31.82L258.39 31.82ZM268.09 30.21L268.09 30.21L268.09 30.82Q267.69 31.36 267.11 31.89Q266.52 32.43 265.78 32.43L265.78 32.43Q265.10 32.43 264.88 31.91Q264.66 31.39 264.66 30.82L264.66 30.82Q263.95 31.38 263.23 31.90Q262.50 32.43 261.55 32.43L261.55 32.43Q260.45 32.43 259.85 31.71Q259.24 30.98 259.24 29.92L259.24 29.92Q259.24 29.04 259.82 28.37Q260.39 27.69 261.26 27.20Q262.14 26.71 263.06 26.37Q263.98 26.03 264.66 25.80L264.66 25.80L264.66 25.41Q264.66 24.75 264.53 24.17Q264.40 23.59 264.01 23.23Q263.63 22.86 262.84 22.86L262.84 22.86Q261.88 22.86 261.64 23.37Q261.41 23.88 261.41 24.68L261.41 24.68Q261.41 25.15 261.22 25.42Q261.04 25.69 260.51 25.69L260.51 25.69Q260.02 25.69 259.82 25.41Q259.62 25.13 259.62 24.68L259.62 24.68Q259.62 23.80 260.20 23.26Q260.79 22.72 261.62 22.48Q262.44 22.23 263.17 22.23L263.17 22.23Q265.01 22.23 265.71 22.98Q266.41 23.73 266.41 25.55L266.41 25.55L266.41 28.85Q266.41 29.26 266.42 29.77Q266.43 30.28 266.47 30.55L266.47 30.55Q266.50 30.75 266.60 30.91Q266.71 31.08 266.93 31.08L266.93 31.08Q267.09 31.08 267.33 30.90Q267.56 30.73 267.78 30.52Q268.00 30.32 268.09 30.21ZM264.66 30.12L264.66 30.12L264.66 26.40Q263.94 26.67 263.09 27.08Q262.24 27.49 261.63 28.07Q261.02 28.65 261.02 29.43L261.02 29.43Q261.02 30.06 261.42 30.62Q261.82 31.18 262.54 31.18L262.54 31.18Q263.09 31.18 263.65 30.83Q264.22 30.47 264.66 30.12ZM273.69 31.82L273.69 32.23L268.91 32.23L268.91 31.82Q269.92 31.82 270.14 31.35Q270.36 30.89 270.36 30.04L270.36 30.04L270.36 20.29Q270.36 19.58 270.24 19.06Q270.12 18.54 269.58 18.54L269.58 18.54Q269.41 18.54 269.26 18.58Q269.10 18.62 268.91 18.68L268.91 18.68L268.75 18.32L271.65 17.17L272.12 17.17L272.12 30.04Q272.12 31.01 272.38 31.41Q272.64 31.82 273.69 31.82L273.69 31.82Z"/></svg>