<svg xmlns="http://www.w3.org/2000/svg" xmlns:xlink="http://www.w3.org/1999/xlink" width="367.94399999999996" height="31.296"><path fill="black" d="M17.35 4.37L17.35 21.50L12.74 21.50L5.28 8.54L5.18 8.54Q5.23 9.36 5.27 10.18Q5.30 10.99 5.34 11.81Q5.38 12.62 5.40 13.44L5.40 13.44L5.40 21.50L2.16 21.50L2.16 4.37L6.74 4.37L14.18 17.21L14.26 17.21Q14.23 16.42 14.21 15.62Q14.18 14.83 14.15 14.05Q14.11 13.27 14.09 12.48L14.09 12.48L14.09 4.37L17.35 4.37ZM33.29 14.93L33.29 14.93Q33.29 16.56 32.84 17.83Q32.40 19.10 31.57 19.98Q30.74 20.86 29.57 21.30Q28.39 21.74 26.90 21.74L26.90 21.74Q25.54 21.74 24.37 21.30Q23.21 20.86 22.37 19.98Q21.53 19.10 21.06 17.83Q20.59 16.56 20.59 14.93L20.59 14.93Q20.59 12.74 21.36 11.24Q22.13 9.74 23.57 8.95Q25.01 8.16 26.98 8.16L26.98 8.16Q28.82 8.16 30.24 8.95Q31.66 9.74 32.47 11.24Q33.29 12.74 33.29 14.93ZM24.24 14.93L24.24 14.93Q24.24 16.22 24.52 17.10Q24.79 17.98 25.39 18.42Q25.99 18.86 26.95 18.86L26.95 18.86Q27.91 18.86 28.50 18.42Q29.09 17.98 29.36 17.10Q29.64 16.22 29.64 14.93L29.64 14.93Q29.64 13.63 29.36 12.77Q29.09 11.90 28.49 11.47Q27.89 11.04 26.93 11.04L26.93 11.04Q25.51 11.04 24.88 12.01Q24.24 12.98 24.24 14.93ZM41.76 18.89L41.76 18.89Q42.36 18.89 42.91 18.77Q43.46 18.65 44.02 18.48L44.02 18.48L44.02 21.14Q43.44 21.38 42.59 21.56Q41.74 21.74 40.73 21.74L40.73 21.74Q39.55 21.74 38.63 21.36Q37.70 20.98 37.16 20.03Q36.62 19.08 36.62 17.40L36.62 17.40L36.62 11.09L34.92 11.09L34.92 9.58L36.89 8.38L37.92 5.62L40.20 5.62L40.20 8.40L43.87 8.40L43.87 11.09L40.20 11.09L40.20 17.40Q40.20 18.14 40.63 18.52Q41.06 18.89 41.76 18.89ZM58.56 14.93L58.56 14.93Q58.56 16.56 58.12 17.83Q57.67 19.10 56.84 19.98Q56.02 20.86 54.84 21.30Q53.66 21.74 52.18 21.74L52.18 21.74Q50.81 21.74 49.64 21.30Q48.48 20.86 47.64 19.98Q46.80 19.10 46.33 17.83Q45.86 16.56 45.86 14.93L45.86 14.93Q45.86 12.74 46.63 11.24Q47.40 9.74 48.84 8.95Q50.28 8.16 52.25 8.16L52.25 8.16Q54.10 8.16 55.51 8.95Q56.93 9.74 57.74 11.24Q58.56 12.74 58.56 14.93ZM49.51 14.93L49.51 14.93Q49.51 16.22 49.79 17.10Q50.06 17.98 50.66 18.42Q51.26 18.86 52.22 18.86L52.22 18.86Q53.18 18.86 53.77 18.42Q54.36 17.98 54.64 17.10Q54.91 16.22 54.91 14.93L54.91 14.93Q54.91 13.63 54.64 12.77Q54.36 11.90 53.76 11.47Q53.16 11.04 52.20 11.04L52.20 11.04Q50.78 11.04 50.15 12.01Q49.51 12.98 49.51 14.93ZM79.08 16.75L79.08 16.75Q79.08 18.26 78.34 19.39Q77.59 20.52 76.19 21.13Q74.78 21.74 72.77 21.74L72.77 21.74Q71.88 21.74 71.03 21.62Q70.18 21.50 69.40 21.28Q68.62 21.05 67.92 20.71L67.92 20.71L67.92 17.33Q69.14 17.86 70.45 18.30Q71.76 18.74 73.06 18.74L73.06 18.74Q73.94 18.74 74.48 18.50Q75.02 18.26 75.28 17.86Q75.53 17.45 75.53 16.92L75.53 16.92Q75.53 16.27 75.08 15.82Q74.64 15.36 73.90 14.96Q73.15 14.57 72.19 14.11L72.19 14.11Q71.59 13.82 70.90 13.43Q70.20 13.03 69.56 12.44Q68.93 11.86 68.52 11.02Q68.11 10.18 68.11 9.00L68.11 9.00Q68.11 7.46 68.82 6.37Q69.53 5.28 70.84 4.70Q72.14 4.13 73.92 4.13L73.92 4.13Q75.26 4.13 76.48 4.44Q77.69 4.75 79.01 5.33L79.01 5.33L77.83 8.16Q76.66 7.68 75.72 7.42Q74.78 7.15 73.80 7.15L73.80 7.15Q73.13 7.15 72.65 7.37Q72.17 7.58 71.92 7.97Q71.66 8.35 71.66 8.88L71.66 8.88Q71.66 9.48 72.02 9.90Q72.38 10.32 73.10 10.70Q73.82 11.09 74.90 11.62L74.90 11.62Q76.22 12.24 77.15 12.91Q78.07 13.58 78.58 14.50Q79.08 15.41 79.08 16.75ZM87.29 8.14L87.29 8.14Q89.93 8.14 91.33 9.28Q92.74 10.42 92.74 12.77L92.74 12.77L92.74 21.50L90.24 21.50L89.54 19.73L89.45 19.73Q88.90 20.42 88.31 20.88Q87.72 21.34 86.96 21.54Q86.21 21.74 85.10 21.74L85.10 21.74Q83.95 21.74 83.03 21.30Q82.10 20.86 81.58 19.93Q81.05 19.01 81.05 17.59L81.05 17.59Q81.05 15.50 82.51 14.51Q83.98 13.51 86.90 13.42L86.90 13.42L89.18 13.34L89.18 12.77Q89.18 11.74 88.64 11.26Q88.10 10.78 87.14 10.78L87.14 10.78Q86.18 10.78 85.27 11.05Q84.36 11.33 83.45 11.74L83.45 11.74L82.27 9.31Q83.33 8.76 84.61 8.45Q85.90 8.14 87.29 8.14ZM89.18 15.43L87.79 15.48Q86.06 15.53 85.39 16.10Q84.72 16.68 84.72 17.62L84.72 17.62Q84.72 18.43 85.20 18.78Q85.68 19.13 86.45 19.13L86.45 19.13Q87.60 19.13 88.39 18.44Q89.18 17.76 89.18 16.51L89.18 16.51L89.18 15.43ZM103.85 8.16L103.85 8.16Q105.96 8.16 107.23 9.30Q108.50 10.44 108.50 12.96L108.50 12.96L108.50 21.50L104.93 21.50L104.93 13.85Q104.93 12.43 104.42 11.72Q103.92 11.02 102.82 11.02L102.82 11.02Q101.18 11.02 100.58 12.13Q99.98 13.25 99.98 15.34L99.98 15.34L99.98 21.50L96.41 21.50L96.41 8.40L99.14 8.40L99.62 10.08L99.82 10.08Q100.25 9.41 100.87 8.99Q101.50 8.57 102.26 8.36Q103.03 8.16 103.85 8.16ZM121.32 17.62L121.32 17.62Q121.32 18.94 120.70 19.86Q120.07 20.78 118.82 21.26Q117.58 21.74 115.73 21.74L115.73 21.74Q114.36 21.74 113.38 21.56Q112.39 21.38 111.41 20.98L111.41 20.98L111.41 18.02Q112.46 18.50 113.69 18.82Q114.91 19.13 115.85 19.13L115.85 19.13Q116.90 19.13 117.35 18.82Q117.79 18.50 117.79 18L117.79 18Q117.79 17.66 117.61 17.40Q117.43 17.14 116.83 16.80Q116.23 16.46 114.96 15.94L114.96 15.94Q113.74 15.41 112.94 14.89Q112.15 14.38 111.77 13.64Q111.38 12.91 111.38 11.81L111.38 11.81Q111.38 9.98 112.80 9.07Q114.22 8.16 116.57 8.16L116.57 8.16Q117.79 8.16 118.90 8.40Q120 8.64 121.18 9.19L121.18 9.19L120.10 11.76Q119.14 11.35 118.27 11.08Q117.41 10.80 116.52 10.80L116.52 10.80Q115.73 10.80 115.33 11.02Q114.94 11.23 114.94 11.66L114.94 11.66Q114.94 11.98 115.14 12.23Q115.34 12.48 115.93 12.77Q116.52 13.06 117.67 13.54L117.67 13.54Q118.80 13.99 119.62 14.48Q120.43 14.98 120.88 15.71Q121.32 16.44 121.32 17.62ZM138.07 14.90L138.07 11.88L144.86 11.88L144.86 20.76Q143.52 21.22 142.07 21.48Q140.62 21.74 138.77 21.74L138.77 21.74Q136.22 21.74 134.44 20.74Q132.65 19.73 131.72 17.76Q130.80 15.79 130.80 12.91L130.80 12.91Q130.80 10.22 131.84 8.26Q132.89 6.29 134.88 5.21Q136.87 4.13 139.75 4.13L139.75 4.13Q141.12 4.13 142.44 4.42Q143.76 4.70 144.84 5.18L144.84 5.18L143.64 8.09Q142.85 7.68 141.84 7.42Q140.83 7.15 139.73 7.15L139.73 7.15Q138.14 7.15 136.98 7.87Q135.82 8.59 135.18 9.90Q134.54 11.21 134.54 12.98L134.54 12.98Q134.54 14.66 135 15.96Q135.46 17.26 136.44 17.99Q137.42 18.72 139.01 18.72L139.01 18.72Q139.78 18.72 140.32 18.65Q140.86 18.58 141.31 18.48L141.31 18.48L141.31 14.90L138.07 14.90ZM157.10 8.40L160.68 8.40L160.68 21.50L157.94 21.50L157.46 19.82L157.27 19.82Q156.86 20.50 156.23 20.92Q155.59 21.34 154.82 21.54Q154.06 21.74 153.24 21.74L153.24 21.74Q151.85 21.74 150.79 21.24Q149.74 20.74 149.16 19.68Q148.58 18.62 148.58 16.94L148.58 16.94L148.58 8.40L152.16 8.40L152.16 16.06Q152.16 17.45 152.66 18.17Q153.17 18.89 154.27 18.89L154.27 18.89Q155.38 18.89 155.99 18.38Q156.60 17.88 156.85 16.92Q157.10 15.96 157.10 14.57L157.10 14.57L157.10 8.40ZM163.37 27.26L163.37 27.26Q162.77 27.26 162.11 27.18Q161.45 27.10 161.02 26.98L161.02 26.98L161.02 24.17Q161.45 24.26 161.83 24.32Q162.22 24.38 162.70 24.38L162.70 24.38Q163.42 24.38 163.92 23.98Q164.42 23.57 164.42 22.39L164.42 22.39L164.42 8.40L168 8.40L168 22.92Q168 24.12 167.54 25.10Q167.09 26.09 166.07 26.68Q165.05 27.26 163.37 27.26ZM164.28 5.02L164.28 5.02Q164.28 4.01 164.84 3.64Q165.41 3.26 166.22 3.26L166.22 3.26Q167.02 3.26 167.59 3.64Q168.17 4.01 168.17 5.02L168.17 5.02Q168.17 6.00 167.59 6.38Q167.02 6.77 166.22 6.77L166.22 6.77Q165.41 6.77 164.84 6.38Q164.28 6.00 164.28 5.02ZM177.12 8.14L177.12 8.14Q179.76 8.14 181.16 9.28Q182.57 10.42 182.57 12.77L182.57 12.77L182.57 21.50L180.07 21.50L179.38 19.73L179.28 19.73Q178.73 20.42 178.14 20.88Q177.55 21.34 176.80 21.54Q176.04 21.74 174.94 21.74L174.94 21.74Q173.78 21.74 172.86 21.30Q171.94 20.86 171.41 19.93Q170.88 19.01 170.88 17.59L170.88 17.59Q170.88 15.50 172.34 14.51Q173.81 13.51 176.74 13.42L176.74 13.42L179.02 13.34L179.02 12.77Q179.02 11.74 178.48 11.26Q177.94 10.78 176.98 10.78L176.98 10.78Q176.02 10.78 175.10 11.05Q174.19 11.33 173.28 11.74L173.28 11.74L172.10 9.31Q173.16 8.76 174.44 8.45Q175.73 8.14 177.12 8.14ZM179.02 15.43L177.62 15.48Q175.90 15.53 175.22 16.10Q174.55 16.68 174.55 17.62L174.55 17.62Q174.55 18.43 175.03 18.78Q175.51 19.13 176.28 19.13L176.28 19.13Q177.43 19.13 178.22 18.44Q179.02 17.76 179.02 16.51L179.02 16.51L179.02 15.43ZM193.56 8.16L193.56 8.16Q193.82 8.16 194.18 8.18Q194.54 8.21 194.76 8.26L194.76 8.26L194.50 11.62Q194.33 11.57 194.00 11.53Q193.68 11.50 193.44 11.50L193.44 11.50Q192.74 11.50 192.10 11.68Q191.45 11.86 190.93 12.24Q190.42 12.62 190.12 13.26Q189.82 13.90 189.82 14.83L189.82 14.83L189.82 21.50L186.24 21.50L186.24 8.40L188.95 8.40L189.48 10.61L189.65 10.61Q190.03 9.94 190.61 9.38Q191.18 8.83 191.94 8.50Q192.70 8.16 193.56 8.16ZM202.03 8.14L202.03 8.14Q204.67 8.14 206.08 9.28Q207.48 10.42 207.48 12.77L207.48 12.77L207.48 21.50L204.98 21.50L204.29 19.73L204.19 19.73Q203.64 20.42 203.05 20.88Q202.46 21.34 201.71 21.54Q200.95 21.74 199.85 21.74L199.85 21.74Q198.70 21.74 197.77 21.30Q196.85 20.86 196.32 19.93Q195.79 19.01 195.79 17.59L195.79 17.59Q195.79 15.50 197.26 14.51Q198.72 13.51 201.65 13.42L201.65 13.42L203.93 13.34L203.93 12.77Q203.93 11.74 203.39 11.26Q202.85 10.78 201.89 10.78L201.89 10.78Q200.93 10.78 200.02 11.05Q199.10 11.33 198.19 11.74L198.19 11.74L197.02 9.31Q198.07 8.76 199.36 8.45Q200.64 8.14 202.03 8.14ZM203.93 15.43L202.54 15.48Q200.81 15.53 200.14 16.10Q199.46 16.68 199.46 17.62L199.46 17.62Q199.46 18.43 199.94 18.78Q200.42 19.13 201.19 19.13L201.19 19.13Q202.34 19.13 203.14 18.44Q203.93 17.76 203.93 16.51L203.93 16.51L203.93 15.43ZM216.67 18.89L216.67 18.89Q217.27 18.89 217.82 18.77Q218.38 18.65 218.93 18.48L218.93 18.48L218.93 21.14Q218.35 21.38 217.50 21.56Q216.65 21.74 215.64 21.74L215.64 21.74Q214.46 21.74 213.54 21.36Q212.62 20.98 212.08 20.03Q211.54 19.08 211.54 17.40L211.54 17.40L211.54 11.09L209.83 11.09L209.83 9.58L211.80 8.38L212.83 5.62L215.11 5.62L215.11 8.40L218.78 8.40L218.78 11.09L215.11 11.09L215.11 17.40Q215.11 18.14 215.54 18.52Q215.98 18.89 216.67 18.89ZM221.57 8.40L225.14 8.40L225.14 21.50L221.57 21.50L221.57 8.40ZM223.37 3.26L223.37 3.26Q224.16 3.26 224.74 3.64Q225.31 4.01 225.31 5.02L225.31 5.02Q225.31 6.00 224.74 6.38Q224.16 6.77 223.37 6.77L223.37 6.77Q222.55 6.77 221.99 6.38Q221.42 6.00 221.42 5.02L221.42 5.02Q221.42 4.01 221.99 3.64Q222.55 3.26 223.37 3.26ZM240.41 21.50L236.62 21.50L242.71 7.44L234.84 7.44L234.84 4.37L246.65 4.37L246.65 6.67L240.41 21.50ZM254.02 21.74L254.02 21.74Q251.04 21.74 249.60 19.40Q248.16 17.06 248.16 12.94L248.16 12.94Q248.16 10.18 248.75 8.20Q249.34 6.22 250.62 5.16Q251.90 4.10 254.02 4.10L254.02 4.10Q256.97 4.10 258.43 6.43Q259.90 8.76 259.90 12.94L259.90 12.94Q259.90 15 259.57 16.63Q259.25 18.26 258.54 19.40Q257.83 20.54 256.72 21.14Q255.60 21.74 254.02 21.74ZM254.02 18.82L254.02 18.82Q255.24 18.82 255.77 17.35Q256.30 15.89 256.30 12.94L256.30 12.94Q256.30 9.98 255.77 8.51Q255.24 7.03 254.02 7.03L254.02 7.03Q252.77 7.03 252.26 8.52Q251.76 10.01 251.76 12.94L251.76 12.94Q251.76 15.86 252.26 17.34Q252.77 18.82 254.02 18.82ZM267.24 21.74L267.24 21.74Q264.26 21.74 262.82 19.40Q261.38 17.06 261.38 12.94L261.38 12.94Q261.38 10.18 261.97 8.20Q262.56 6.22 263.84 5.16Q265.13 4.10 267.24 4.10L267.24 4.10Q270.19 4.10 271.66 6.43Q273.12 8.76 273.12 12.94L273.12 12.94Q273.12 15 272.80 16.63Q272.47 18.26 271.76 19.40Q271.06 20.54 269.94 21.14Q268.82 21.74 267.24 21.74ZM267.24 18.82L267.24 18.82Q268.46 18.82 268.99 17.35Q269.52 15.89 269.52 12.94L269.52 12.94Q269.52 9.98 268.99 8.51Q268.46 7.03 267.24 7.03L267.24 7.03Q265.99 7.03 265.49 8.52Q264.98 10.01 264.98 12.94L264.98 12.94Q264.98 15.86 265.49 17.34Q265.99 18.82 267.24 18.82ZM290.35 8.16L290.35 8.16Q292.46 8.16 293.74 9.30Q295.01 10.44 295.01 12.96L295.01 12.96L295.01 21.50L291.43 21.50L291.43 13.85Q291.43 12.43 290.93 11.72Q290.42 11.02 289.32 11.02L289.32 11.02Q287.69 11.02 287.09 12.13Q286.49 13.25 286.49 15.34L286.49 15.34L286.49 21.50L282.91 21.50L282.91 8.40L285.65 8.40L286.13 10.08L286.32 10.08Q286.75 9.41 287.38 8.99Q288.00 8.57 288.77 8.36Q289.54 8.16 290.35 8.16ZM310.58 14.93L310.58 14.93Q310.58 16.56 310.14 17.83Q309.70 19.10 308.87 19.98Q308.04 20.86 306.86 21.30Q305.69 21.74 304.20 21.74L304.20 21.74Q302.83 21.74 301.67 21.30Q300.50 20.86 299.66 19.98Q298.82 19.10 298.36 17.83Q297.89 16.56 297.89 14.93L297.89 14.93Q297.89 12.74 298.66 11.24Q299.42 9.74 300.86 8.95Q302.30 8.16 304.27 8.16L304.27 8.16Q306.12 8.16 307.54 8.95Q308.95 9.74 309.77 11.24Q310.58 12.74 310.58 14.93ZM301.54 14.93L301.54 14.93Q301.54 16.22 301.81 17.10Q302.09 17.98 302.69 18.42Q303.29 18.86 304.25 18.86L304.25 18.86Q305.21 18.86 305.80 18.42Q306.38 17.98 306.66 17.10Q306.94 16.22 306.94 14.93L306.94 14.93Q306.94 13.63 306.66 12.77Q306.38 11.90 305.78 11.47Q305.18 11.04 304.22 11.04L304.22 11.04Q302.81 11.04 302.17 12.01Q301.54 12.98 301.54 14.93ZM320.86 8.16L320.86 8.16Q321.12 8.16 321.48 8.18Q321.84 8.21 322.06 8.26L322.06 8.26L321.79 11.62Q321.62 11.57 321.30 11.53Q320.98 11.50 320.74 11.50L320.74 11.50Q320.04 11.50 319.39 11.68Q318.74 11.86 318.23 12.24Q317.71 12.62 317.41 13.26Q317.11 13.90 317.11 14.83L317.11 14.83L317.11 21.50L313.54 21.50L313.54 8.40L316.25 8.40L316.78 10.61L316.94 10.61Q317.33 9.94 317.90 9.38Q318.48 8.83 319.24 8.50Q319.99 8.16 320.86 8.16ZM339.82 8.16L339.82 8.16Q342.05 8.16 343.19 9.30Q344.33 10.44 344.33 12.96L344.33 12.96L344.33 21.50L340.75 21.50L340.75 13.85Q340.75 12.43 340.27 11.72Q339.79 11.02 338.78 11.02L338.78 11.02Q337.37 11.02 336.77 12.02Q336.17 13.03 336.17 14.93L336.17 14.93L336.17 21.50L332.59 21.50L332.59 13.85Q332.59 12.91 332.38 12.29Q332.16 11.66 331.73 11.34Q331.30 11.02 330.62 11.02L330.62 11.02Q329.64 11.02 329.06 11.52Q328.49 12.02 328.25 12.98Q328.01 13.94 328.01 15.34L328.01 15.34L328.01 21.50L324.43 21.50L324.43 8.40L327.17 8.40L327.65 10.08L327.84 10.08Q328.25 9.41 328.85 8.99Q329.45 8.57 330.18 8.36Q330.91 8.16 331.66 8.16L331.66 8.16Q333.10 8.16 334.10 8.63Q335.11 9.10 335.64 10.08L335.64 10.08L335.95 10.08Q336.55 9.07 337.62 8.62Q338.69 8.16 339.82 8.16ZM353.38 8.14L353.38 8.14Q356.02 8.14 357.42 9.28Q358.82 10.42 358.82 12.77L358.82 12.77L358.82 21.50L356.33 21.50L355.63 19.73L355.54 19.73Q354.98 20.42 354.40 20.88Q353.81 21.34 353.05 21.54Q352.30 21.74 351.19 21.74L351.19 21.74Q350.04 21.74 349.12 21.30Q348.19 20.86 347.66 19.93Q347.14 19.01 347.14 17.59L347.14 17.59Q347.14 15.50 348.60 14.51Q350.06 13.51 352.99 13.42L352.99 13.42L355.27 13.34L355.27 12.77Q355.27 11.74 354.73 11.26Q354.19 10.78 353.23 10.78L353.23 10.78Q352.27 10.78 351.36 11.05Q350.45 11.33 349.54 11.74L349.54 11.74L348.36 9.31Q349.42 8.76 350.70 8.45Q351.98 8.14 353.38 8.14ZM355.27 15.43L353.88 15.48Q352.15 15.53 351.48 16.10Q350.81 16.68 350.81 17.62L350.81 17.62Q350.81 18.43 351.29 18.78Q351.77 19.13 352.54 19.13L352.54 19.13Q353.69 19.13 354.48 18.44Q355.27 17.76 355.27 16.51L355.27 16.51L355.27 15.43ZM366.07 3.26L366.07 21.50L362.50 21.50L362.50 3.26L366.07 3.26Z"/></svg>