<svg xmlns="http://www.w3.org/2000/svg" xmlns:xlink="http://www.w3.org/1999/xlink" width="318.72" height="32.688"><path fill="black" d="M15.91 8.52L15.91 25.66L13.39 25.66L4.22 11.42L4.13 11.42Q4.18 12.26 4.25 13.51Q4.32 14.76 4.32 16.08L4.32 16.08L4.32 25.66L2.33 25.66L2.33 8.52L4.82 8.52L13.97 22.70L14.06 22.70Q14.04 22.32 14.00 21.55Q13.97 20.78 13.93 19.87Q13.90 18.96 13.90 18.19L13.90 18.19L13.90 8.52L15.91 8.52ZM31.46 19.20L31.46 19.20Q31.46 22.39 29.84 24.14Q28.22 25.90 25.46 25.90L25.46 25.90Q23.76 25.90 22.43 25.12Q21.10 24.34 20.33 22.84Q19.56 21.34 19.56 19.20L19.56 19.20Q19.56 16.01 21.17 14.28Q22.78 12.55 25.54 12.55L25.54 12.55Q27.29 12.55 28.62 13.33Q29.95 14.11 30.71 15.59Q31.46 17.06 31.46 19.20ZM21.74 19.20L21.74 19.20Q21.74 21.48 22.64 22.81Q23.54 24.14 25.51 24.14L25.51 24.14Q27.46 24.14 28.37 22.81Q29.28 21.48 29.28 19.20L29.28 19.20Q29.28 16.92 28.37 15.62Q27.46 14.33 25.49 14.33L25.49 14.33Q23.52 14.33 22.63 15.62Q21.74 16.92 21.74 19.20ZM39.10 24.17L39.10 24.17Q39.58 24.17 40.08 24.08Q40.58 24 40.90 23.90L40.90 23.90L40.90 25.51Q40.56 25.68 39.94 25.79Q39.31 25.90 38.74 25.90L38.74 25.90Q37.73 25.90 36.88 25.55Q36.02 25.20 35.50 24.34Q34.97 23.47 34.97 21.91L34.97 21.91L34.97 14.42L33.14 14.42L33.14 13.42L34.99 12.58L35.83 9.84L37.08 9.84L37.08 12.79L40.80 12.79L40.80 14.42L37.08 14.42L37.08 21.86Q37.08 23.04 37.64 23.60Q38.21 24.17 39.10 24.17ZM54.65 19.20L54.65 19.20Q54.65 22.39 53.03 24.14Q51.41 25.90 48.65 25.90L48.65 25.90Q46.94 25.90 45.61 25.12Q44.28 24.34 43.51 22.84Q42.74 21.34 42.74 19.20L42.74 19.20Q42.74 16.01 44.35 14.28Q45.96 12.55 48.72 12.55L48.72 12.55Q50.47 12.55 51.80 13.33Q53.14 14.11 53.89 15.59Q54.65 17.06 54.65 19.20ZM44.93 19.20L44.93 19.20Q44.93 21.48 45.83 22.81Q46.73 24.14 48.70 24.14L48.70 24.14Q50.64 24.14 51.55 22.81Q52.46 21.48 52.46 19.20L52.46 19.20Q52.46 16.92 51.55 15.62Q50.64 14.33 48.67 14.33L48.67 14.33Q46.70 14.33 45.82 15.62Q44.93 16.92 44.93 19.20ZM74.23 21.07L74.23 21.07Q74.23 23.35 72.58 24.62Q70.92 25.90 68.11 25.90L68.11 25.90Q66.67 25.90 65.45 25.68Q64.22 25.46 63.41 25.08L63.41 25.08L63.41 23.02Q64.27 23.40 65.56 23.71Q66.84 24.02 68.21 24.02L68.21 24.02Q70.13 24.02 71.10 23.28Q72.07 22.54 72.07 21.26L72.07 21.26Q72.07 20.42 71.71 19.85Q71.35 19.27 70.48 18.78Q69.60 18.29 68.04 17.74L68.04 17.74Q65.86 16.94 64.74 15.79Q63.62 14.64 63.62 12.65L63.62 12.65Q63.62 11.28 64.32 10.31Q65.02 9.34 66.25 8.81Q67.49 8.28 69.10 8.28L69.10 8.28Q70.51 8.28 71.69 8.54Q72.86 8.81 73.82 9.24L73.82 9.24L73.15 11.09Q72.26 10.70 71.22 10.44Q70.18 10.18 69.05 10.18L69.05 10.18Q67.44 10.18 66.62 10.86Q65.81 11.54 65.81 12.67L65.81 12.67Q65.81 13.54 66.17 14.11Q66.53 14.69 67.34 15.14Q68.16 15.60 69.55 16.13L69.55 16.13Q71.06 16.68 72.11 17.32Q73.15 17.95 73.69 18.84Q74.23 19.73 74.23 21.07ZM82.27 12.58L82.27 12.58Q84.62 12.58 85.75 13.61Q86.88 14.64 86.88 16.90L86.88 16.90L86.88 25.66L85.34 25.66L84.94 23.83L84.84 23.83Q84 24.89 83.08 25.39Q82.15 25.90 80.52 25.90L80.52 25.90Q78.77 25.90 77.62 24.97Q76.46 24.05 76.46 22.08L76.46 22.08Q76.46 20.16 77.98 19.12Q79.49 18.07 82.63 17.98L82.63 17.98L84.82 17.90L84.82 17.14Q84.82 15.53 84.12 14.90Q83.42 14.28 82.15 14.28L82.15 14.28Q81.14 14.28 80.23 14.58Q79.32 14.88 78.53 15.26L78.53 15.26L77.88 13.68Q78.72 13.22 79.87 12.90Q81.02 12.58 82.27 12.58ZM84.79 19.37L82.90 19.44Q80.50 19.54 79.57 20.21Q78.65 20.88 78.65 22.10L78.65 22.10Q78.65 23.18 79.31 23.69Q79.97 24.19 81 24.19L81 24.19Q82.63 24.19 83.71 23.29Q84.79 22.39 84.79 20.52L84.79 20.52L84.79 19.37ZM97.06 12.55L97.06 12.55Q99.36 12.55 100.54 13.67Q101.71 14.78 101.71 17.28L101.71 17.28L101.71 25.66L99.62 25.66L99.62 17.42Q99.62 14.33 96.74 14.33L96.74 14.33Q94.61 14.33 93.79 15.53Q92.98 16.73 92.98 18.98L92.98 18.98L92.98 25.66L90.86 25.66L90.86 12.79L92.57 12.79L92.88 14.54L93 14.54Q93.62 13.54 94.73 13.04Q95.83 12.55 97.06 12.55ZM114.07 22.10L114.07 22.10Q114.07 23.98 112.68 24.94Q111.29 25.90 108.94 25.90L108.94 25.90Q107.59 25.90 106.62 25.68Q105.65 25.46 104.90 25.08L104.90 25.08L104.90 23.16Q105.67 23.54 106.76 23.87Q107.86 24.19 108.98 24.19L108.98 24.19Q110.59 24.19 111.31 23.68Q112.03 23.16 112.03 22.30L112.03 22.30Q112.03 21.82 111.77 21.43Q111.50 21.05 110.82 20.66Q110.14 20.28 108.86 19.80L108.86 19.80Q107.62 19.32 106.73 18.84Q105.84 18.36 105.36 17.69Q104.88 17.02 104.88 15.96L104.88 15.96Q104.88 14.33 106.21 13.44Q107.54 12.55 109.70 12.55L109.70 12.55Q110.88 12.55 111.90 12.78Q112.92 13.01 113.81 13.42L113.81 13.42L113.09 15.10Q112.27 14.76 111.38 14.52Q110.50 14.28 109.56 14.28L109.56 14.28Q108.26 14.28 107.58 14.70Q106.90 15.12 106.90 15.84L106.90 15.84Q106.90 16.37 107.21 16.74Q107.52 17.11 108.25 17.46Q108.98 17.81 110.21 18.29L110.21 18.29Q111.43 18.74 112.30 19.22Q113.16 19.70 113.62 20.39Q114.07 21.07 114.07 22.10ZM123.72 8.52L128.45 8.52Q131.64 8.52 133.16 9.73Q134.69 10.94 134.69 13.39L134.69 13.39Q134.69 14.76 134.18 15.67Q133.68 16.58 132.90 17.12Q132.12 17.66 131.26 17.98L131.26 17.98L135.96 25.66L133.44 25.66L129.29 18.58L125.88 18.58L125.88 25.66L123.72 25.66L123.72 8.52ZM128.33 10.39L128.33 10.39L125.88 10.39L125.88 16.75L128.45 16.75Q130.54 16.75 131.50 15.92Q132.46 15.10 132.46 13.49L132.46 13.49Q132.46 11.81 131.45 11.10Q130.44 10.39 128.33 10.39ZM147 12.79L149.11 12.79L149.11 25.66L147.38 25.66L147.07 23.95L146.98 23.95Q146.35 24.96 145.25 25.43Q144.14 25.90 142.90 25.90L142.90 25.90Q140.57 25.90 139.39 24.78Q138.22 23.66 138.22 21.22L138.22 21.22L138.22 12.79L140.35 12.79L140.35 21.07Q140.35 24.14 143.21 24.14L143.21 24.14Q145.34 24.14 146.17 22.94Q147 21.74 147 19.49L147 19.49L147 12.79ZM159.38 12.55L159.38 12.55Q161.69 12.55 162.86 13.67Q164.04 14.78 164.04 17.28L164.04 17.28L164.04 25.66L161.95 25.66L161.95 17.42Q161.95 14.33 159.07 14.33L159.07 14.33Q156.94 14.33 156.12 15.53Q155.30 16.73 155.30 18.98L155.30 18.98L155.30 25.66L153.19 25.66L153.19 12.79L154.90 12.79L155.21 14.54L155.33 14.54Q155.95 13.54 157.06 13.04Q158.16 12.55 159.38 12.55ZM169.10 7.97L169.10 7.97Q169.58 7.97 169.96 8.29Q170.33 8.62 170.33 9.31L170.33 9.31Q170.33 9.98 169.96 10.32Q169.58 10.66 169.10 10.66L169.10 10.66Q168.58 10.66 168.22 10.32Q167.86 9.98 167.86 9.31L167.86 9.31Q167.86 8.62 168.22 8.29Q168.58 7.97 169.10 7.97ZM168.02 12.79L170.14 12.79L170.14 25.66L168.02 25.66L168.02 12.79ZM179.38 25.90L179.38 25.90Q177.67 25.90 176.34 25.20Q175.01 24.50 174.25 23.04Q173.50 21.58 173.50 19.30L173.50 19.30Q173.50 16.92 174.29 15.43Q175.08 13.94 176.44 13.25Q177.79 12.55 179.52 12.55L179.52 12.55Q180.50 12.55 181.42 12.76Q182.33 12.96 182.90 13.25L182.90 13.25L182.26 15.00Q181.68 14.78 180.91 14.59Q180.14 14.40 179.47 14.40L179.47 14.40Q175.68 14.40 175.68 19.27L175.68 19.27Q175.68 21.60 176.60 22.84Q177.53 24.07 179.35 24.07L179.35 24.07Q180.41 24.07 181.21 23.86Q182.02 23.64 182.69 23.33L182.69 23.33L182.69 25.20Q182.04 25.54 181.26 25.72Q180.48 25.90 179.38 25.90ZM203.18 19.87L203.18 21.77L200.69 21.77L200.69 25.66L198.65 25.66L198.65 21.77L190.44 21.77L190.44 19.97L198.50 8.42L200.69 8.42L200.69 19.87L203.18 19.87ZM198.65 19.87L198.65 14.47Q198.65 13.22 198.70 12.35Q198.74 11.47 198.77 10.68L198.77 10.68L198.67 10.68Q198.48 11.14 198.19 11.66Q197.90 12.19 197.64 12.55L197.64 12.55L192.50 19.87L198.65 19.87ZM216.22 17.06L216.22 17.06Q216.22 19.82 215.64 21.80Q215.06 23.78 213.82 24.84Q212.57 25.90 210.50 25.90L210.50 25.90Q207.60 25.90 206.22 23.56Q204.84 21.22 204.84 17.06L204.84 17.06Q204.84 14.28 205.40 12.31Q205.97 10.34 207.22 9.30Q208.46 8.26 210.50 8.26L210.50 8.26Q213.38 8.26 214.80 10.57Q216.22 12.89 216.22 17.06ZM206.95 17.06L206.95 17.06Q206.95 20.59 207.76 22.34Q208.56 24.10 210.50 24.10L210.50 24.10Q212.42 24.10 213.25 22.36Q214.08 20.62 214.08 17.06L214.08 17.06Q214.08 13.56 213.25 11.81Q212.42 10.06 210.50 10.06L210.50 10.06Q208.56 10.06 207.76 11.81Q206.95 13.56 206.95 17.06ZM229.94 17.06L229.94 17.06Q229.94 19.82 229.37 21.80Q228.79 23.78 227.54 24.84Q226.30 25.90 224.23 25.90L224.23 25.90Q221.33 25.90 219.95 23.56Q218.57 21.22 218.57 17.06L218.57 17.06Q218.57 14.28 219.13 12.31Q219.70 10.34 220.94 9.30Q222.19 8.26 224.23 8.26L224.23 8.26Q227.11 8.26 228.53 10.57Q229.94 12.89 229.94 17.06ZM220.68 17.06L220.68 17.06Q220.68 20.59 221.48 22.34Q222.29 24.10 224.23 24.10L224.23 24.10Q226.15 24.10 226.98 22.36Q227.81 20.62 227.81 17.06L227.81 17.06Q227.81 13.56 226.98 11.81Q226.15 10.06 224.23 10.06L224.23 10.06Q222.29 10.06 221.48 11.81Q220.68 13.56 220.68 17.06ZM245.59 12.55L245.59 12.55Q247.90 12.55 249.07 13.67Q250.25 14.78 250.25 17.28L250.25 17.28L250.25 25.66L248.16 25.66L248.16 17.42Q248.16 14.33 245.28 14.33L245.28 14.33Q243.14 14.33 242.33 15.53Q241.51 16.73 241.51 18.98L241.51 18.98L241.51 25.66L239.40 25.66L239.40 12.79L241.10 12.79L241.42 14.54L241.54 14.54Q242.16 13.54 243.26 13.04Q244.37 12.55 245.59 12.55ZM265.42 19.20L265.42 19.20Q265.42 22.39 263.80 24.14Q262.18 25.90 259.42 25.90L259.42 25.90Q257.71 25.90 256.38 25.12Q255.05 24.34 254.28 22.84Q253.51 21.34 253.51 19.20L253.51 19.20Q253.51 16.01 255.12 14.28Q256.73 12.55 259.49 12.55L259.49 12.55Q261.24 12.55 262.57 13.33Q263.90 14.11 264.66 15.59Q265.42 17.06 265.42 19.20ZM255.70 19.20L255.70 19.20Q255.70 21.48 256.60 22.81Q257.50 24.14 259.46 24.14L259.46 24.14Q261.41 24.14 262.32 22.81Q263.23 21.48 263.23 19.20L263.23 19.20Q263.23 16.92 262.32 15.62Q261.41 14.33 259.44 14.33L259.44 14.33Q257.47 14.33 256.58 15.62Q255.70 16.92 255.70 19.20ZM274.75 12.55L274.75 12.55Q275.11 12.55 275.53 12.59Q275.95 12.62 276.26 12.70L276.26 12.70L276.00 14.64Q275.69 14.57 275.32 14.52Q274.94 14.47 274.61 14.47L274.61 14.47Q273.62 14.47 272.76 15.01Q271.90 15.55 271.38 16.52Q270.86 17.50 270.86 18.79L270.86 18.79L270.86 25.66L268.75 25.66L268.75 12.79L270.48 12.79L270.72 15.14L270.82 15.14Q271.44 14.09 272.42 13.32Q273.41 12.55 274.75 12.55ZM292.78 12.55L292.78 12.55Q294.96 12.55 296.04 13.67Q297.12 14.78 297.12 17.28L297.12 17.28L297.12 25.66L295.03 25.66L295.03 17.38Q295.03 14.33 292.42 14.33L292.42 14.33Q290.54 14.33 289.74 15.41Q288.94 16.49 288.94 18.55L288.94 18.55L288.94 25.66L286.85 25.66L286.85 17.38Q286.85 14.33 284.21 14.33L284.21 14.33Q282.26 14.33 281.52 15.53Q280.78 16.73 280.78 18.98L280.78 18.98L280.78 25.66L278.66 25.66L278.66 12.79L280.37 12.79L280.68 14.54L280.80 14.54Q281.40 13.54 282.42 13.04Q283.44 12.55 284.59 12.55L284.59 12.55Q287.62 12.55 288.53 14.71L288.53 14.71L288.65 14.71Q289.30 13.61 290.41 13.08Q291.53 12.55 292.78 12.55ZM305.98 12.58L305.98 12.58Q308.33 12.58 309.46 13.61Q310.58 14.64 310.58 16.90L310.58 16.90L310.58 25.66L309.05 25.66L308.64 23.83L308.54 23.83Q307.70 24.89 306.78 25.39Q305.86 25.90 304.22 25.90L304.22 25.90Q302.47 25.90 301.32 24.97Q300.17 24.05 300.17 22.08L300.17 22.08Q300.17 20.16 301.68 19.12Q303.19 18.07 306.34 17.98L306.34 17.98L308.52 17.90L308.52 17.14Q308.52 15.53 307.82 14.90Q307.13 14.28 305.86 14.28L305.86 14.28Q304.85 14.28 303.94 14.58Q303.02 14.88 302.23 15.26L302.23 15.26L301.58 13.68Q302.42 13.22 303.58 12.90Q304.73 12.58 305.98 12.58ZM308.50 19.37L306.60 19.44Q304.20 19.54 303.28 20.21Q302.35 20.88 302.35 22.10L302.35 22.10Q302.35 23.18 303.01 23.69Q303.67 24.19 304.70 24.19L304.70 24.19Q306.34 24.19 307.42 23.29Q308.50 22.39 308.50 20.52L308.50 20.52L308.50 19.37ZM316.68 7.42L316.68 25.66L314.57 25.66L314.57 7.42L316.68 7.42Z"/></svg>