<svg xmlns="http://www.w3.org/2000/svg" xmlns:xlink="http://www.w3.org/1999/xlink" width="181.29600000000002" height="26.112000000000002"><path fill="black" d="M1.68 21.07L-0.74 21.07L8.52 4.61L11.40 4.61L14.90 21.07L12.58 21.07L11.74 16.94L3.96 16.94L1.68 21.07ZM7.87 9.89L5.06 14.98L11.30 14.98L10.27 9.86Q10.22 9.50 10.14 9.08Q10.06 8.66 9.96 8.22Q9.86 7.78 9.80 7.37Q9.74 6.96 9.70 6.65L9.70 6.65L9.55 6.65Q9.31 7.13 8.99 7.75Q8.66 8.38 8.36 8.95Q8.06 9.53 7.87 9.89L7.87 9.89ZM19.03 21.07L16.92 21.07L19.13 8.45L20.78 8.45L20.66 10.49L20.78 10.49Q21.07 9.96 21.50 9.42Q21.94 8.88 22.56 8.52Q23.18 8.16 24.05 8.16L24.05 8.16Q24.43 8.16 24.73 8.22Q25.03 8.28 25.18 8.35L25.18 8.35L24.84 10.30L24.02 10.30Q23.26 10.30 22.61 10.58Q21.96 10.87 21.48 11.38Q21 11.88 20.69 12.60Q20.38 13.32 20.23 14.18L20.23 14.18L19.03 21.07ZM29.88 21.36L29.88 21.36Q28.25 21.36 27.14 20.86Q26.04 20.35 25.49 19.30Q24.94 18.24 24.94 16.63L24.94 16.63Q24.94 16.01 25.00 15.37Q25.06 14.74 25.20 14.11L25.20 14.11Q25.49 12.74 25.99 11.65Q26.50 10.56 27.26 9.78Q28.03 9.00 29.08 8.58Q30.12 8.16 31.46 8.16L31.46 8.16Q33.05 8.16 34.06 8.60Q35.06 9.05 35.57 9.86Q36.07 10.68 36.07 11.86L36.07 11.86Q36.07 12.14 36.05 12.47Q36.02 12.79 35.95 13.13L35.95 13.13L33.84 13.13Q33.89 12.86 33.91 12.61Q33.94 12.36 33.94 12.12L33.94 12.12Q33.94 11.40 33.68 10.91Q33.43 10.42 32.89 10.16Q32.35 9.91 31.49 9.91L31.49 9.91Q30.46 9.91 29.62 10.40Q28.78 10.90 28.20 11.89Q27.62 12.89 27.34 14.45L27.34 14.45Q27.24 14.98 27.19 15.36Q27.14 15.74 27.12 16.04Q27.10 16.34 27.10 16.58L27.10 16.58Q27.10 17.64 27.42 18.30Q27.74 18.96 28.36 19.27Q28.97 19.58 29.83 19.58L29.83 19.58Q30.91 19.58 31.62 19.20Q32.33 18.82 32.76 18.08Q33.19 17.35 33.36 16.39L33.36 16.39L35.38 16.39Q35.16 17.86 34.50 18.97Q33.84 20.09 32.70 20.72Q31.56 21.36 29.88 21.36ZM39.22 21.07L37.10 21.07L40.15 3.72L42.26 3.72L41.16 10.03L41.30 10.03Q41.88 9.41 42.54 8.99Q43.20 8.57 43.96 8.36Q44.71 8.16 45.50 8.16L45.50 8.16Q46.54 8.16 47.33 8.47Q48.12 8.78 48.58 9.46Q49.03 10.13 49.03 11.26L49.03 11.26Q49.03 11.59 49.00 11.98Q48.96 12.36 48.89 12.77L48.89 12.77L47.42 21.07L45.31 21.07L46.75 12.89Q46.80 12.60 46.84 12.32Q46.87 12.05 46.87 11.81L46.87 11.81Q46.87 11.11 46.60 10.73Q46.32 10.34 45.84 10.19Q45.36 10.03 44.71 10.03L44.71 10.03Q44.02 10.03 43.32 10.28Q42.62 10.54 42.04 11.04Q41.45 11.54 41.03 12.31Q40.61 13.08 40.44 14.06L40.44 14.06L39.22 21.07ZM55.32 6.07L53.21 6.07L53.62 3.72L55.73 3.72L55.32 6.07ZM52.73 21.07L50.62 21.07L52.85 8.45L54.96 8.45L52.73 21.07ZM61.49 21.07L59.38 21.07L56.98 8.45L59.11 8.45L60.26 14.76Q60.34 15.22 60.44 15.91Q60.55 16.61 60.65 17.34Q60.74 18.07 60.82 18.65L60.82 18.65L60.94 18.65Q61.20 18.10 61.52 17.38Q61.85 16.66 62.18 15.95Q62.52 15.24 62.78 14.76L62.78 14.76L66.10 8.45L68.35 8.45L61.49 21.07ZM73.34 21.36L73.34 21.36Q71.69 21.36 70.56 20.84Q69.43 20.33 68.84 19.28Q68.26 18.24 68.26 16.63L68.26 16.63Q68.26 16.15 68.32 15.64Q68.38 15.12 68.47 14.57L68.47 14.57Q68.86 12.34 69.74 10.93Q70.63 9.53 72.01 8.84Q73.39 8.16 75.24 8.16L75.24 8.16Q76.92 8.16 78.05 8.68Q79.18 9.19 79.75 10.25Q80.33 11.30 80.33 12.94L80.33 12.94Q80.33 13.39 80.28 13.90Q80.23 14.40 80.14 14.95L80.14 14.95Q79.75 17.16 78.86 18.58Q77.98 19.99 76.61 20.68Q75.24 21.36 73.34 21.36ZM73.44 19.58L73.44 19.58Q74.64 19.58 75.54 19.10Q76.44 18.62 77.03 17.60Q77.62 16.58 77.88 15.02L77.88 15.02Q77.98 14.47 78.02 14.10Q78.07 13.73 78.10 13.45Q78.12 13.18 78.12 12.94L78.12 12.94Q78.12 11.90 77.78 11.24Q77.45 10.58 76.79 10.26Q76.13 9.94 75.12 9.94L75.12 9.94Q73.92 9.94 73.03 10.43Q72.14 10.92 71.57 11.92Q70.99 12.91 70.70 14.50L70.70 14.50Q70.61 15.05 70.55 15.43Q70.49 15.82 70.46 16.08Q70.44 16.34 70.44 16.58L70.44 16.58Q70.44 17.64 70.78 18.29Q71.11 18.94 71.78 19.26Q72.46 19.58 73.44 19.58ZM95.54 21.07L93.43 21.07L94.15 17.04L86.52 17.04L86.81 15.26Q88.10 13.54 89.22 11.78Q90.34 10.03 91.28 8.18Q92.23 6.34 93.05 4.32L93.05 4.32L95.40 4.32Q94.87 5.64 94.16 7.02Q93.46 8.40 92.69 9.70Q91.92 10.99 91.19 12.12Q90.46 13.25 89.84 14.06Q89.23 14.88 88.87 15.26L88.87 15.26L94.46 15.26L95.35 10.10Q95.59 9.72 95.82 9.29Q96.05 8.86 96.26 8.41Q96.48 7.97 96.67 7.55Q96.86 7.13 97.01 6.77L97.01 6.77L98.06 6.77L96.58 15.26L98.76 15.26L98.45 17.04L96.29 17.04L95.54 21.07ZM105.41 21.36L105.41 21.36Q103.94 21.36 102.85 20.89Q101.76 20.42 101.16 19.31Q100.56 18.19 100.56 16.30L100.56 16.30Q100.56 15.77 100.60 15.20Q100.63 14.64 100.70 14.05Q100.78 13.46 100.87 12.84L100.87 12.84Q101.21 10.68 101.81 9.08Q102.41 7.49 103.27 6.42Q104.14 5.35 105.30 4.84Q106.46 4.32 107.93 4.32L107.93 4.32Q109.44 4.32 110.53 4.79Q111.62 5.26 112.22 6.37Q112.82 7.49 112.82 9.41L112.82 9.41Q112.82 9.91 112.78 10.48Q112.73 11.04 112.67 11.63Q112.61 12.22 112.51 12.84L112.51 12.84Q112.15 15 111.55 16.60Q110.95 18.19 110.08 19.26Q109.20 20.33 108.05 20.84Q106.90 21.36 105.41 21.36ZM105.46 19.56L105.46 19.56Q106.54 19.56 107.32 19.12Q108.10 18.67 108.65 17.87Q109.20 17.06 109.58 15.94Q109.97 14.81 110.21 13.39L110.21 13.39Q110.33 12.70 110.42 12.12Q110.52 11.54 110.57 11.05Q110.62 10.56 110.64 10.14Q110.66 9.72 110.66 9.34L110.66 9.34Q110.66 7.68 110.03 6.91Q109.39 6.14 107.90 6.14L107.90 6.14Q106.85 6.14 106.06 6.58Q105.26 7.01 104.71 7.81Q104.16 8.62 103.79 9.74Q103.42 10.87 103.15 12.29L103.15 12.29Q103.03 12.98 102.94 13.56Q102.84 14.14 102.79 14.63Q102.74 15.12 102.72 15.54Q102.70 15.96 102.70 16.34L102.70 16.34Q102.70 18 103.33 18.78Q103.97 19.56 105.46 19.56ZM119.16 21.36L119.16 21.36Q117.70 21.36 116.60 20.89Q115.51 20.42 114.91 19.31Q114.31 18.19 114.31 16.30L114.31 16.30Q114.31 15.77 114.35 15.20Q114.38 14.64 114.46 14.05Q114.53 13.46 114.62 12.84L114.62 12.84Q114.96 10.68 115.56 9.08Q116.16 7.49 117.02 6.42Q117.89 5.35 119.05 4.84Q120.22 4.32 121.68 4.32L121.68 4.32Q123.19 4.32 124.28 4.79Q125.38 5.26 125.98 6.37Q126.58 7.49 126.58 9.41L126.58 9.41Q126.58 9.91 126.53 10.48Q126.48 11.04 126.42 11.63Q126.36 12.22 126.26 12.84L126.26 12.84Q125.90 15 125.30 16.60Q124.70 18.19 123.83 19.26Q122.95 20.33 121.80 20.84Q120.65 21.36 119.16 21.36ZM119.21 19.56L119.21 19.56Q120.29 19.56 121.07 19.12Q121.85 18.67 122.40 17.87Q122.95 17.06 123.34 15.94Q123.72 14.81 123.96 13.39L123.96 13.39Q124.08 12.70 124.18 12.12Q124.27 11.54 124.32 11.05Q124.37 10.56 124.39 10.14Q124.42 9.72 124.42 9.34L124.42 9.34Q124.42 7.68 123.78 6.91Q123.14 6.14 121.66 6.14L121.66 6.14Q120.60 6.14 119.81 6.58Q119.02 7.01 118.46 7.81Q117.91 8.62 117.54 9.74Q117.17 10.87 116.90 12.29L116.90 12.29Q116.78 12.98 116.69 13.56Q116.59 14.14 116.54 14.63Q116.50 15.12 116.47 15.54Q116.45 15.96 116.45 16.34L116.45 16.34Q116.45 18 117.08 18.78Q117.72 19.56 119.21 19.56ZM137.26 6.07L135.14 6.07L135.55 3.72L137.66 3.72L137.26 6.07ZM134.66 21.07L132.55 21.07L134.78 8.45L136.90 8.45L134.66 21.07ZM141 21.36L141 21.36Q140.16 21.36 139.69 21.08Q139.22 20.81 139.02 20.38Q138.82 19.94 138.82 19.37L138.82 19.37Q138.82 19.20 138.84 19.02Q138.86 18.84 138.89 18.65L138.89 18.65L140.35 10.22L138.72 10.22L139.03 8.45L140.69 8.45L141.72 4.92L143.38 4.92L142.75 8.45L145.13 8.45L144.82 10.22L142.46 10.22L141.05 18.17Q141.02 18.31 140.99 18.54Q140.95 18.77 140.95 18.84L140.95 18.84Q140.95 19.20 141.17 19.39Q141.38 19.58 141.84 19.58L141.84 19.58L143.18 19.58L142.94 20.98Q142.68 21.10 142.34 21.17Q142.01 21.24 141.66 21.30Q141.31 21.36 141 21.36ZM149.30 21.36L149.30 21.36Q148.06 21.36 147.13 20.86Q146.21 20.35 145.70 19.34Q145.20 18.34 145.20 16.78L145.20 16.78Q145.20 16.30 145.26 15.77Q145.32 15.24 145.42 14.64L145.42 14.64Q145.80 12.38 146.62 10.94Q147.43 9.50 148.62 8.83Q149.81 8.16 151.30 8.16L151.30 8.16Q152.14 8.16 152.82 8.36Q153.50 8.57 154.03 9.01Q154.56 9.46 154.87 10.13L154.87 10.13L155.02 10.13L155.66 8.45L157.39 8.45L156.86 11.42Q156.72 12.24 156.54 13.20Q156.36 14.16 156.19 15.11Q156.02 16.06 155.89 16.86Q155.76 17.66 155.68 18.23Q155.59 18.79 155.59 18.94L155.59 18.94Q155.59 19.25 155.76 19.40Q155.93 19.56 156.24 19.56L156.24 19.56L157.20 19.56L156.96 20.95Q156.72 21.07 156.32 21.20Q155.93 21.34 155.40 21.34L155.40 21.34Q154.73 21.34 154.32 21.04Q153.91 20.74 153.77 20.16L153.77 20.16Q153.72 19.97 153.70 19.73Q153.67 19.49 153.67 19.25L153.67 19.25L153.53 19.20Q152.74 20.30 151.64 20.83Q150.55 21.36 149.30 21.36ZM150.07 19.51L150.07 19.51Q150.70 19.51 151.32 19.28Q151.94 19.06 152.50 18.53Q153.05 18 153.48 17.12Q153.91 16.25 154.13 14.95L154.13 14.95Q154.22 14.47 154.26 14.10Q154.30 13.73 154.32 13.44Q154.34 13.15 154.34 12.94L154.34 12.94Q154.34 11.98 154.07 11.32Q153.79 10.66 153.20 10.33Q152.62 10.01 151.68 10.01L151.68 10.01Q150.65 10.01 149.86 10.44Q149.06 10.87 148.51 11.87Q147.96 12.86 147.65 14.52L147.65 14.52Q147.55 15.07 147.50 15.47Q147.46 15.86 147.43 16.16Q147.41 16.46 147.41 16.73L147.41 16.73Q147.41 18.17 148.07 18.84Q148.73 19.51 150.07 19.51ZM160.68 21.07L158.57 21.07L161.62 3.72L163.73 3.72L160.68 21.07ZM168.67 6.07L166.56 6.07L166.97 3.72L169.08 3.72L168.67 6.07ZM166.08 21.07L163.97 21.07L166.20 8.45L168.31 8.45L166.08 21.07ZM174.62 21.36L174.62 21.36Q172.99 21.36 171.89 20.86Q170.78 20.35 170.23 19.30Q169.68 18.24 169.68 16.63L169.68 16.63Q169.68 16.01 169.74 15.37Q169.80 14.74 169.94 14.11L169.94 14.11Q170.23 12.74 170.74 11.65Q171.24 10.56 172.01 9.78Q172.78 9.00 173.82 8.58Q174.86 8.16 176.21 8.16L176.21 8.16Q177.79 8.16 178.80 8.60Q179.81 9.05 180.31 9.86Q180.82 10.68 180.82 11.86L180.82 11.86Q180.82 12.14 180.79 12.47Q180.77 12.79 180.70 13.13L180.70 13.13L178.58 13.13Q178.63 12.86 178.66 12.61Q178.68 12.36 178.68 12.12L178.68 12.12Q178.68 11.40 178.43 10.91Q178.18 10.42 177.64 10.16Q177.10 9.91 176.23 9.91L176.23 9.91Q175.20 9.91 174.36 10.40Q173.52 10.90 172.94 11.89Q172.37 12.89 172.08 14.45L172.08 14.45Q171.98 14.98 171.94 15.36Q171.89 15.74 171.86 16.04Q171.84 16.34 171.84 16.58L171.84 16.58Q171.84 17.64 172.16 18.30Q172.49 18.96 173.10 19.27Q173.71 19.58 174.58 19.58L174.58 19.58Q175.66 19.58 176.36 19.20Q177.07 18.82 177.50 18.08Q177.94 17.35 178.10 16.39L178.10 16.39L180.12 16.39Q179.90 17.86 179.24 18.97Q178.58 20.09 177.44 20.72Q176.30 21.36 174.62 21.36Z"/></svg>