<svg xmlns="http://www.w3.org/2000/svg" xmlns:xlink="http://www.w3.org/1999/xlink" width="270.67199999999997" height="31.2"><path fill="black" d="M14.45 24.79Q14.14 24.84 13.91 24.67Q13.68 24.50 13.61 24.17L13.61 24.17Q12.91 21.31 11.27 19.24Q9.62 17.16 6.77 15.50L6.77 15.50L3.60 18.12L3.60 23.95Q3.60 24.36 3.40 24.59Q3.19 24.82 2.83 24.82L2.83 24.82Q2.47 24.82 2.27 24.59Q2.06 24.36 2.06 23.95L2.06 23.95L2.06 8.40Q2.06 7.99 2.27 7.76Q2.47 7.54 2.83 7.54L2.83 7.54Q3.19 7.54 3.40 7.76Q3.60 7.99 3.60 8.40L3.60 8.40L3.60 16.32L13.49 7.82Q13.66 7.66 13.92 7.66L13.92 7.66Q14.21 7.66 14.42 7.87L14.42 7.87Q14.64 8.09 14.64 8.38L14.64 8.38Q14.64 8.66 14.40 8.88L14.40 8.88L7.82 14.62Q10.94 16.46 12.71 18.74Q14.47 21.02 15 23.90L15 23.90Q15.05 24.24 14.90 24.50Q14.76 24.77 14.45 24.79L14.45 24.79ZM23.40 24.82Q21.31 24.82 19.85 23.96Q18.38 23.11 17.66 21.71Q16.94 20.30 16.94 18.70L16.94 18.70Q16.94 17.09 17.66 15.68Q18.38 14.28 19.85 13.43Q21.31 12.58 23.40 12.58L23.40 12.58Q25.49 12.58 26.95 13.43Q28.42 14.28 29.14 15.68Q29.86 17.09 29.86 18.70L29.86 18.70Q29.86 20.30 29.14 21.71Q28.42 23.11 26.95 23.96Q25.49 24.82 23.40 24.82L23.40 24.82ZM23.40 23.47Q25.63 23.47 26.99 22.21Q28.34 20.95 28.34 18.70L28.34 18.70Q28.34 16.44 26.99 15.17Q25.63 13.90 23.40 13.90L23.40 13.90Q21.17 13.90 19.81 15.17Q18.46 16.44 18.46 18.70L18.46 18.70Q18.46 20.95 19.81 22.21Q21.17 23.47 23.40 23.47L23.40 23.47ZM38.54 24.82Q35.54 24.82 33.84 23.20Q32.14 21.58 32.14 18.77L32.14 18.77Q32.14 16.99 32.88 15.59Q33.62 14.18 35.09 13.38Q36.55 12.58 38.59 12.58L38.59 12.58Q40.37 12.58 41.62 13.25Q42.86 13.92 43.82 15.12L43.82 15.12L43.85 7.22Q43.85 6.36 44.59 6.36L44.59 6.36Q45.34 6.36 45.34 7.22L45.34 7.22L45.34 23.95Q45.34 24.36 45.14 24.59Q44.95 24.82 44.59 24.82L44.59 24.82Q44.23 24.82 44.04 24.59Q43.85 24.36 43.85 23.95L43.85 23.95L43.85 22.20Q42.98 23.50 41.64 24.16Q40.30 24.82 38.54 24.82L38.54 24.82ZM38.62 23.47Q41.06 23.47 42.46 22.19Q43.85 20.90 43.85 18.70L43.85 18.70Q43.85 17.21 43.13 16.13Q42.41 15.05 41.22 14.47Q40.03 13.90 38.66 13.90L38.66 13.90Q36.29 13.90 34.97 15.24Q33.65 16.58 33.65 18.77L33.65 18.77Q33.65 21.12 34.94 22.30Q36.24 23.47 38.62 23.47L38.62 23.47ZM54.65 24.82Q52.75 24.82 51.31 24.05Q49.87 23.28 49.08 21.89Q48.29 20.50 48.29 18.67L48.29 18.67Q48.29 16.85 49.08 15.47Q49.87 14.09 51.31 13.33Q52.75 12.58 54.65 12.58L54.65 12.58Q58.22 12.58 59.81 14.52L59.81 14.52Q60 14.76 60 14.98L60 14.98Q60 15.29 59.69 15.53L59.69 15.53Q59.54 15.67 59.30 15.67L59.30 15.67Q59.14 15.67 58.96 15.59Q58.78 15.50 58.66 15.36L58.66 15.36Q57.98 14.62 57 14.26Q56.02 13.90 54.65 13.90L54.65 13.90Q52.32 13.90 51.06 15.13Q49.80 16.37 49.80 18.67L49.80 18.67Q49.80 20.95 51.07 22.21Q52.34 23.47 54.65 23.47L54.65 23.47Q55.94 23.47 56.99 23.10Q58.03 22.73 58.70 22.01L58.70 22.01Q59.04 21.67 59.38 21.67L59.38 21.67Q59.62 21.67 59.78 21.84L59.78 21.84Q60.05 22.10 60.05 22.39L60.05 22.39Q60.05 22.63 59.83 22.85L59.83 22.85Q58.70 23.86 57.44 24.34Q56.18 24.82 54.65 24.82L54.65 24.82ZM63.74 24.82Q63.38 24.82 63.19 24.59Q63 24.36 63 23.95L63 23.95L63 7.22Q63 6.36 63.74 6.36L63.74 6.36Q64.49 6.36 64.49 7.22L64.49 7.22L64.49 15Q65.38 13.82 66.65 13.20Q67.92 12.58 69.43 12.58L69.43 12.58Q71.74 12.58 72.95 13.81Q74.16 15.05 74.16 17.40L74.16 17.40L74.16 23.95Q74.16 24.36 73.96 24.59Q73.75 24.82 73.39 24.82L73.39 24.82Q72.67 24.82 72.67 23.95L72.67 23.95L72.67 17.40Q72.67 15.62 71.86 14.76Q71.04 13.90 69.34 13.90L69.34 13.90Q67.15 13.90 65.82 15.18Q64.49 16.46 64.49 18.55L64.49 18.55L64.49 23.95Q64.49 24.36 64.30 24.59Q64.10 24.82 63.74 24.82L63.74 24.82ZM82.01 24.82Q79.66 24.82 78.32 23.78Q76.99 22.75 76.99 20.90L76.99 20.90Q76.99 19.08 78.37 18.02Q79.75 16.97 82.18 16.97L82.18 16.97Q83.64 16.97 84.79 17.36Q85.94 17.76 86.52 18.46L86.52 18.46L86.52 16.80Q86.52 15.38 85.58 14.64Q84.65 13.90 82.82 13.90L82.82 13.90Q80.57 13.90 78.86 15L78.86 15Q78.53 15.19 78.29 15.19L78.29 15.19Q78.10 15.19 77.88 15.05L77.88 15.05Q77.64 14.86 77.64 14.54L77.64 14.54Q77.64 14.23 77.88 14.04L77.88 14.04Q78.77 13.37 80.08 12.97Q81.38 12.58 82.78 12.58L82.78 12.58Q85.27 12.58 86.64 13.70Q88.01 14.83 88.01 16.90L88.01 16.90L88.01 23.95Q88.01 24.82 87.29 24.82L87.29 24.82Q86.95 24.82 86.75 24.59Q86.54 24.36 86.54 23.98L86.54 23.98L86.54 22.99Q85.80 23.88 84.65 24.35Q83.50 24.82 82.01 24.82L82.01 24.82ZM82.13 23.50Q84.10 23.50 85.32 22.74Q86.54 21.98 86.54 20.76L86.54 20.76Q86.54 19.58 85.39 18.92Q84.24 18.26 82.18 18.26L82.18 18.26Q80.40 18.26 79.45 18.95Q78.50 19.63 78.50 20.90L78.50 20.90Q78.50 22.18 79.43 22.84Q80.35 23.50 82.13 23.50L82.13 23.50ZM96.41 24.82Q94.78 24.82 93.31 24.16Q91.85 23.50 91.03 22.37L91.03 22.37Q90.89 22.15 90.89 21.94L90.89 21.94Q90.89 21.74 91.02 21.58Q91.15 21.41 91.34 21.34L91.34 21.34Q91.54 21.29 91.61 21.29L91.61 21.29Q91.78 21.29 91.92 21.40Q92.06 21.50 92.28 21.77L92.28 21.77Q93.79 23.45 96.41 23.45L96.41 23.45Q97.73 23.45 98.57 23.00Q99.41 22.56 99.41 21.67L99.41 21.67Q99.41 21.05 99.06 20.68Q98.71 20.30 98.02 20.02Q97.32 19.73 95.64 19.15L95.64 19.15Q94.18 18.65 93.34 18.24Q92.50 17.83 92.02 17.20Q91.54 16.56 91.54 15.60L91.54 15.60Q91.54 14.26 92.74 13.42Q93.94 12.58 95.90 12.58L95.90 12.58Q97.32 12.58 98.58 13.09Q99.84 13.61 100.46 14.45L100.46 14.45Q100.63 14.64 100.63 14.90L100.63 14.90Q100.63 15.24 100.30 15.41L100.30 15.41Q100.06 15.53 99.86 15.53L99.86 15.53Q99.53 15.53 99.24 15.22L99.24 15.22Q98.59 14.54 97.85 14.23Q97.10 13.92 95.88 13.92L95.88 13.92Q94.51 13.92 93.80 14.36Q93.10 14.81 93.10 15.65L93.10 15.65Q93.10 16.27 93.42 16.63Q93.74 16.99 94.31 17.22Q94.87 17.45 96.38 17.93L96.38 17.93Q98.09 18.50 99.05 19.00Q100.01 19.49 100.45 20.11Q100.90 20.74 100.90 21.67L100.90 21.67Q100.90 23.14 99.64 23.98Q98.38 24.82 96.41 24.82L96.41 24.82ZM108.22 24.82Q105.86 24.82 104.53 23.78Q103.20 22.75 103.20 20.90L103.20 20.90Q103.20 19.08 104.58 18.02Q105.96 16.97 108.38 16.97L108.38 16.97Q109.85 16.97 111 17.36Q112.15 17.76 112.73 18.46L112.73 18.46L112.73 16.80Q112.73 15.38 111.79 14.64Q110.86 13.90 109.03 13.90L109.03 13.90Q106.78 13.90 105.07 15L105.07 15Q104.74 15.19 104.50 15.19L104.50 15.19Q104.30 15.19 104.09 15.05L104.09 15.05Q103.85 14.86 103.85 14.54L103.85 14.54Q103.85 14.23 104.09 14.04L104.09 14.04Q104.98 13.37 106.28 12.97Q107.59 12.58 108.98 12.58L108.98 12.58Q111.48 12.58 112.85 13.70Q114.22 14.83 114.22 16.90L114.22 16.90L114.22 23.95Q114.22 24.82 113.50 24.82L113.50 24.82Q113.16 24.82 112.96 24.59Q112.75 24.36 112.75 23.98L112.75 23.98L112.75 22.99Q112.01 23.88 110.86 24.35Q109.70 24.82 108.22 24.82L108.22 24.82ZM108.34 23.50Q110.30 23.50 111.53 22.74Q112.75 21.98 112.75 20.76L112.75 20.76Q112.75 19.58 111.60 18.92Q110.45 18.26 108.38 18.26L108.38 18.26Q106.61 18.26 105.66 18.95Q104.71 19.63 104.71 20.90L104.71 20.90Q104.71 22.18 105.64 22.84Q106.56 23.50 108.34 23.50L108.34 23.50ZM118.49 24.82Q118.13 24.82 117.94 24.59Q117.74 24.36 117.74 23.95L117.74 23.95L117.74 13.44Q117.74 12.58 118.49 12.58L118.49 12.58Q118.85 12.58 119.04 12.80Q119.23 13.03 119.23 13.44L119.23 13.44L119.23 15Q120.12 13.82 121.39 13.20Q122.66 12.58 124.18 12.58L124.18 12.58Q126.48 12.58 127.69 13.81Q128.90 15.05 128.90 17.40L128.90 17.40L128.90 23.95Q128.90 24.36 128.70 24.59Q128.50 24.82 128.14 24.82L128.14 24.82Q127.42 24.82 127.42 23.95L127.42 23.95L127.42 17.40Q127.42 15.62 126.60 14.76Q125.78 13.90 124.08 13.90L124.08 13.90Q121.90 13.90 120.56 15.18Q119.23 16.46 119.23 18.55L119.23 18.55L119.23 23.95Q119.23 24.36 119.04 24.59Q118.85 24.82 118.49 24.82L118.49 24.82ZM144.72 24.82Q142.85 24.82 141.20 24.11Q139.56 23.40 138.48 22.06L138.48 22.06Q138.26 21.79 138.26 21.53L138.26 21.53Q138.26 21.19 138.55 21.02L138.55 21.02Q138.77 20.88 139.01 20.88L139.01 20.88Q139.42 20.88 139.63 21.19L139.63 21.19Q140.45 22.27 141.82 22.86Q143.18 23.45 144.72 23.45L144.72 23.45Q147 23.45 148.31 22.54Q149.62 21.62 149.62 19.99L149.62 19.99Q149.62 18.26 148.69 17.35Q147.77 16.44 146.02 16.44L146.02 16.44L143.30 16.44Q142.90 16.44 142.68 16.27Q142.46 16.10 142.46 15.79L142.46 15.79Q142.46 15.12 143.30 15.12L143.30 15.12L146.02 15.12Q147.43 15.12 148.32 14.32Q149.21 13.51 149.21 12.22L149.21 12.22Q149.21 10.58 148.08 9.73Q146.95 8.88 144.84 8.88L144.84 8.88Q143.40 8.88 142.18 9.38Q140.95 9.89 140.06 10.90L140.06 10.90Q139.80 11.18 139.46 11.18L139.46 11.18Q139.20 11.18 138.98 11.04L138.98 11.04Q138.70 10.85 138.70 10.51L138.70 10.51Q138.70 10.22 138.91 10.01L138.91 10.01Q140.06 8.78 141.59 8.16Q143.11 7.54 144.84 7.54L144.84 7.54Q147.70 7.54 149.22 8.81Q150.74 10.08 150.74 12.22L150.74 12.22Q150.74 13.30 150.10 14.20Q149.45 15.10 148.22 15.70L148.22 15.70L148.22 15.74Q151.15 16.82 151.15 19.99L151.15 19.99Q151.15 21.46 150.34 22.55Q149.52 23.64 148.06 24.23Q146.59 24.82 144.72 24.82L144.72 24.82ZM160.42 24.82Q158.35 24.82 156.83 23.77Q155.30 22.73 154.49 20.78Q153.67 18.84 153.67 16.18L153.67 16.18Q153.67 13.49 154.49 11.54Q155.30 9.60 156.82 8.57Q158.33 7.54 160.42 7.54L160.42 7.54Q162.50 7.54 164.03 8.57Q165.55 9.60 166.36 11.54Q167.16 13.49 167.16 16.18L167.16 16.18Q167.16 18.84 166.36 20.78Q165.55 22.73 164.03 23.77Q162.50 24.82 160.42 24.82L160.42 24.82ZM160.42 23.45Q162.91 23.45 164.27 21.55Q165.62 19.66 165.62 16.18L165.62 16.18Q165.62 12.67 164.27 10.78Q162.91 8.88 160.42 8.88L160.42 8.88Q157.92 8.88 156.56 10.78Q155.21 12.67 155.21 16.18L155.21 16.18Q155.21 19.66 156.56 21.55Q157.92 23.45 160.42 23.45L160.42 23.45ZM176.45 24.82Q174.38 24.82 172.86 23.77Q171.34 22.73 170.52 20.78Q169.70 18.84 169.70 16.18L169.70 16.18Q169.70 13.49 170.52 11.54Q171.34 9.60 172.85 8.57Q174.36 7.54 176.45 7.54L176.45 7.54Q178.54 7.54 180.06 8.57Q181.58 9.60 182.39 11.54Q183.19 13.49 183.19 16.18L183.19 16.18Q183.19 18.84 182.39 20.78Q181.58 22.73 180.06 23.77Q178.54 24.82 176.45 24.82L176.45 24.82ZM176.45 23.45Q178.94 23.45 180.30 21.55Q181.66 19.66 181.66 16.18L181.66 16.18Q181.66 12.67 180.30 10.78Q178.94 8.88 176.45 8.88L176.45 8.88Q173.95 8.88 172.60 10.78Q171.24 12.67 171.24 16.18L171.24 16.18Q171.24 19.66 172.60 21.55Q173.95 23.45 176.45 23.45L176.45 23.45ZM193.46 24.82Q193.10 24.82 192.91 24.59Q192.72 24.36 192.72 23.95L192.72 23.95L192.72 13.44Q192.72 12.58 193.46 12.58L193.46 12.58Q193.82 12.58 194.02 12.80Q194.21 13.03 194.21 13.44L194.21 13.44L194.21 15Q195.10 13.82 196.37 13.20Q197.64 12.58 199.15 12.58L199.15 12.58Q201.46 12.58 202.67 13.81Q203.88 15.05 203.88 17.40L203.88 17.40L203.88 23.95Q203.88 24.36 203.68 24.59Q203.47 24.82 203.11 24.82L203.11 24.82Q202.39 24.82 202.39 23.95L202.39 23.95L202.39 17.40Q202.39 15.62 201.58 14.76Q200.76 13.90 199.06 13.90L199.06 13.90Q196.87 13.90 195.54 15.18Q194.21 16.46 194.21 18.55L194.21 18.55L194.21 23.95Q194.21 24.36 194.02 24.59Q193.82 24.82 193.46 24.82L193.46 24.82ZM212.81 24.82Q210.72 24.82 209.26 23.96Q207.79 23.11 207.07 21.71Q206.35 20.30 206.35 18.70L206.35 18.70Q206.35 17.09 207.07 15.68Q207.79 14.28 209.26 13.43Q210.72 12.58 212.81 12.58L212.81 12.58Q214.90 12.58 216.36 13.43Q217.82 14.28 218.54 15.68Q219.26 17.09 219.26 18.70L219.26 18.70Q219.26 20.30 218.54 21.71Q217.82 23.11 216.36 23.96Q214.90 24.82 212.81 24.82L212.81 24.82ZM212.81 23.47Q215.04 23.47 216.40 22.21Q217.75 20.95 217.75 18.70L217.75 18.70Q217.75 16.44 216.40 15.17Q215.04 13.90 212.81 13.90L212.81 13.90Q210.58 13.90 209.22 15.17Q207.86 16.44 207.86 18.70L207.86 18.70Q207.86 20.95 209.22 22.21Q210.58 23.47 212.81 23.47L212.81 23.47ZM222.98 24.82Q222.62 24.82 222.43 24.59Q222.24 24.36 222.24 23.95L222.24 23.95L222.24 13.44Q222.24 12.58 222.98 12.58L222.98 12.58Q223.34 12.58 223.54 12.80Q223.73 13.03 223.73 13.44L223.73 13.44L223.73 15Q224.57 13.90 225.71 13.36Q226.85 12.82 228.36 12.82L228.36 12.82L228.96 12.82Q229.37 12.82 229.60 13.00Q229.82 13.18 229.82 13.49L229.82 13.49Q229.82 14.14 228.96 14.14L228.96 14.14L228.31 14.14Q226.18 14.14 224.95 15.32Q223.73 16.51 223.73 18.55L223.73 18.55L223.73 23.95Q223.73 24.36 223.54 24.59Q223.34 24.82 222.98 24.82L222.98 24.82ZM233.28 24.82Q232.92 24.82 232.73 24.59Q232.54 24.36 232.54 23.95L232.54 23.95L232.54 13.44Q232.54 12.58 233.28 12.58L233.28 12.58Q233.64 12.58 233.83 12.80Q234.02 13.03 234.02 13.44L234.02 13.44L234.02 14.98Q234.70 13.85 235.74 13.21Q236.78 12.58 237.96 12.58L237.96 12.58Q239.11 12.58 239.98 13.20Q240.84 13.82 241.27 14.95L241.27 14.95Q242.11 13.80 243.13 13.19Q244.15 12.58 245.26 12.58L245.26 12.58Q249.02 12.58 249.02 17.09L249.02 17.09L249.02 23.95Q249.02 24.36 248.83 24.59Q248.64 24.82 248.28 24.82L248.28 24.82Q247.54 24.82 247.54 23.95L247.54 23.95L247.54 17.06Q247.54 15.41 247.00 14.65Q246.46 13.90 245.16 13.90L245.16 13.90Q244.03 13.90 243.13 14.58Q242.23 15.26 241.70 16.54L241.70 16.54L241.70 23.95Q241.70 24.36 241.51 24.59Q241.32 24.82 240.96 24.82L240.96 24.82Q240.22 24.82 240.22 23.95L240.22 23.95L240.22 17.40Q240.22 15.70 239.60 14.80Q238.99 13.90 237.84 13.90L237.84 13.90Q236.76 13.90 235.88 14.48Q235.01 15.07 234.52 16.10Q234.02 17.14 234.02 18.43L234.02 18.43L234.02 23.95Q234.02 24.36 233.83 24.59Q233.64 24.82 233.28 24.82L233.28 24.82ZM256.87 24.82Q254.52 24.82 253.19 23.78Q251.86 22.75 251.86 20.90L251.86 20.90Q251.86 19.08 253.24 18.02Q254.62 16.97 257.04 16.97L257.04 16.97Q258.50 16.97 259.66 17.36Q260.81 17.76 261.38 18.46L261.38 18.46L261.38 16.80Q261.38 15.38 260.45 14.64Q259.51 13.90 257.69 13.90L257.69 13.90Q255.43 13.90 253.73 15L253.73 15Q253.39 15.19 253.15 15.19L253.15 15.19Q252.96 15.19 252.74 15.05L252.74 15.05Q252.50 14.86 252.50 14.54L252.50 14.54Q252.50 14.23 252.74 14.04L252.74 14.04Q253.63 13.37 254.94 12.97Q256.25 12.58 257.64 12.58L257.64 12.58Q260.14 12.58 261.50 13.70Q262.87 14.83 262.87 16.90L262.87 16.90L262.87 23.95Q262.87 24.82 262.15 24.82L262.15 24.82Q261.82 24.82 261.61 24.59Q261.41 24.36 261.41 23.98L261.41 23.98L261.41 22.99Q260.66 23.88 259.51 24.35Q258.36 24.82 256.87 24.82L256.87 24.82ZM256.99 23.50Q258.96 23.50 260.18 22.74Q261.41 21.98 261.41 20.76L261.41 20.76Q261.41 19.58 260.26 18.92Q259.10 18.26 257.04 18.26L257.04 18.26Q255.26 18.26 254.32 18.95Q253.37 19.63 253.37 20.90L253.37 20.90Q253.37 22.18 254.29 22.84Q255.22 23.50 256.99 23.50L256.99 23.50ZM267.62 24.82Q267.26 24.82 267.07 24.59Q266.88 24.36 266.88 23.95L266.88 23.95L266.88 7.22Q266.88 6.36 267.62 6.36L267.62 6.36Q268.37 6.36 268.37 7.22L268.37 7.22L268.37 23.95Q268.37 24.36 268.18 24.59Q267.98 24.82 267.62 24.82L267.62 24.82Z"/></svg>