<svg xmlns="http://www.w3.org/2000/svg" xmlns:xlink="http://www.w3.org/1999/xlink" width="286.65600000000006" height="29.064"><path fill="black" d="M9.77 6.91Q11.35 6.91 12.36 7.14Q13.37 7.37 14.50 7.94L14.50 7.94Q14.64 8.04 14.68 8.10Q14.71 8.16 14.74 8.47L14.74 8.47L15.02 11.21Q15.02 11.28 14.89 11.29Q14.76 11.30 14.74 11.23L14.74 11.23Q14.21 9.24 12.98 8.24Q11.76 7.25 9.77 7.25L9.77 7.25Q7.66 7.25 6.06 8.14Q4.46 9.02 3.59 10.67Q2.71 12.31 2.71 14.50L2.71 14.50Q2.71 16.54 3.68 18.30Q4.66 20.06 6.30 21.11Q7.94 22.15 9.82 22.15L9.82 22.15Q13.80 22.15 14.90 18.24L14.90 18.24Q14.90 18.19 15.02 18.19L15.02 18.19Q15.19 18.19 15.19 18.26L15.19 18.26L15 20.81Q14.98 21.10 14.93 21.17Q14.88 21.24 14.74 21.34L14.74 21.34Q13.49 21.98 12.40 22.24Q11.30 22.49 9.79 22.49L9.79 22.49Q7.30 22.49 5.34 21.49Q3.38 20.50 2.28 18.68Q1.18 16.87 1.18 14.52L1.18 14.52Q1.18 12.26 2.28 10.54Q3.38 8.81 5.34 7.86Q7.30 6.91 9.77 6.91L9.77 6.91ZM22.01 22.49Q20.64 22.49 19.58 21.80Q18.53 21.12 17.95 19.96Q17.38 18.79 17.38 17.42L17.38 17.42Q17.38 15.86 18.13 14.77Q18.89 13.68 20.05 13.14Q21.22 12.60 22.44 12.60L22.44 12.60Q23.83 12.60 24.88 13.30Q25.92 13.99 26.48 15.13Q27.05 16.27 27.05 17.54L27.05 17.54Q27.05 19.03 26.36 20.16Q25.68 21.29 24.53 21.89Q23.38 22.49 22.01 22.49L22.01 22.49ZM22.68 22.06Q24.07 22.06 24.86 21.12Q25.66 20.18 25.66 18.17L25.66 18.17Q25.66 16.73 25.15 15.56Q24.65 14.40 23.74 13.73Q22.82 13.06 21.65 13.06L21.65 13.06Q20.28 13.06 19.51 14.00Q18.74 14.95 18.74 16.73L18.74 16.73Q18.74 18.17 19.25 19.38Q19.75 20.59 20.64 21.32Q21.53 22.06 22.68 22.06L22.68 22.06ZM31.18 15.43Q32.47 13.80 33.13 13.25Q33.79 12.70 34.39 12.70L34.39 12.70Q34.92 12.70 35.39 12.97Q35.86 13.25 35.86 13.61L35.86 13.61Q35.86 13.85 35.68 14.04Q35.50 14.23 35.16 14.23L35.16 14.23Q34.92 14.23 34.73 14.10Q34.54 13.97 34.49 13.94L34.49 13.94Q34.03 13.58 33.58 13.58L33.58 13.58Q33.22 13.58 32.77 13.97Q32.33 14.35 31.27 15.67L31.27 15.67L31.18 15.43ZM29.04 22.18Q28.97 22.18 28.97 22.03Q28.97 21.89 29.04 21.89L29.04 21.89Q29.74 21.89 30.05 21.77Q30.36 21.65 30.48 21.30Q30.60 20.95 30.60 20.23L30.60 20.23L30.60 15.43Q30.60 14.59 30.41 14.23Q30.22 13.87 29.74 13.87L29.74 13.87Q29.35 13.87 28.39 14.23L28.39 14.23L28.34 14.23Q28.25 14.23 28.21 14.12Q28.18 14.02 28.27 13.97L28.27 13.97L30.94 12.72Q30.98 12.70 31.06 12.70L31.06 12.70Q31.25 12.70 31.49 13.24Q31.73 13.78 31.73 14.62L31.73 14.62L31.73 20.23Q31.73 20.95 31.90 21.30Q32.06 21.65 32.56 21.77Q33.05 21.89 34.13 21.89L34.13 21.89Q34.20 21.89 34.20 22.03Q34.20 22.18 34.13 22.18L34.13 22.18Q33.36 22.18 32.90 22.15L32.90 22.15L31.18 22.13L29.90 22.15Q29.59 22.18 29.04 22.18L29.04 22.18ZM50.02 22.18Q49.97 22.18 49.97 22.03Q49.97 21.89 50.02 21.89L50.02 21.89Q50.71 21.89 51.04 21.77Q51.36 21.65 51.48 21.30Q51.60 20.95 51.60 20.23L51.60 20.23L51.60 16.32Q51.60 14.86 51.08 14.16Q50.57 13.46 49.46 13.46L49.46 13.46Q48.60 13.46 47.69 14.08Q46.78 14.69 46.08 15.72L46.08 15.72L45.98 15.43Q47.06 13.97 48.05 13.32Q49.03 12.67 50.11 12.67L50.11 12.67Q51.38 12.67 52.06 13.39Q52.73 14.11 52.73 15.58L52.73 15.58L52.73 20.23Q52.73 20.95 52.84 21.30Q52.94 21.65 53.27 21.77Q53.59 21.89 54.29 21.89L54.29 21.89Q54.36 21.89 54.36 22.03Q54.36 22.18 54.29 22.18L54.29 22.18Q53.74 22.18 53.42 22.15L53.42 22.15L52.15 22.13L50.90 22.15Q50.57 22.18 50.02 22.18L50.02 22.18ZM43.85 22.18Q43.78 22.18 43.78 22.03Q43.78 21.89 43.85 21.89L43.85 21.89Q44.54 21.89 44.86 21.77Q45.17 21.65 45.29 21.30Q45.41 20.95 45.41 20.23L45.41 20.23L45.41 16.32Q45.41 14.86 44.89 14.16Q44.38 13.46 43.30 13.46L43.30 13.46Q42.41 13.46 41.51 14.08Q40.61 14.69 39.91 15.72L39.91 15.72L39.82 15.43Q40.87 13.97 41.87 13.32Q42.86 12.67 43.92 12.67L43.92 12.67Q45.19 12.67 45.86 13.39Q46.54 14.11 46.54 15.58L46.54 15.58L46.54 20.23Q46.54 20.95 46.66 21.30Q46.78 21.65 47.10 21.77Q47.42 21.89 48.12 21.89L48.12 21.89Q48.17 21.89 48.17 22.03Q48.17 22.18 48.12 22.18L48.12 22.18Q47.57 22.18 47.23 22.15L47.23 22.15L45.98 22.13L44.71 22.15Q44.40 22.18 43.85 22.18L43.85 22.18ZM37.68 22.18Q37.61 22.18 37.61 22.03Q37.61 21.89 37.68 21.89L37.68 21.89Q38.38 21.89 38.69 21.77Q39 21.65 39.12 21.30Q39.24 20.95 39.24 20.23L39.24 20.23L39.24 15.43Q39.24 14.59 39.05 14.23Q38.86 13.87 38.38 13.87L38.38 13.87Q37.99 13.87 37.03 14.23L37.03 14.23L36.98 14.23Q36.89 14.23 36.85 14.12Q36.82 14.02 36.91 13.97L36.91 13.97L39.58 12.72Q39.62 12.70 39.70 12.70L39.70 12.70Q39.89 12.70 40.13 13.24Q40.37 13.78 40.37 14.62L40.37 14.62L40.37 20.23Q40.37 20.95 40.48 21.30Q40.58 21.65 40.91 21.77Q41.23 21.89 41.93 21.89L41.93 21.89Q42 21.89 42 22.03Q42 22.18 41.93 22.18L41.93 22.18Q41.38 22.18 41.06 22.15L41.06 22.15L39.82 22.13L38.54 22.15Q38.23 22.18 37.68 22.18L37.68 22.18ZM60.34 22.49Q58.97 22.49 57.91 21.80Q56.86 21.12 56.28 19.96Q55.70 18.79 55.70 17.42L55.70 17.42Q55.70 15.86 56.46 14.77Q57.22 13.68 58.38 13.14Q59.54 12.60 60.77 12.60L60.77 12.60Q62.16 12.60 63.20 13.30Q64.25 13.99 64.81 15.13Q65.38 16.27 65.38 17.54L65.38 17.54Q65.38 19.03 64.69 20.16Q64.01 21.29 62.86 21.89Q61.70 22.49 60.34 22.49L60.34 22.49ZM61.01 22.06Q62.40 22.06 63.19 21.12Q63.98 20.18 63.98 18.17L63.98 18.17Q63.98 16.73 63.48 15.56Q62.98 14.40 62.06 13.73Q61.15 13.06 59.98 13.06L59.98 13.06Q58.61 13.06 57.84 14.00Q57.07 14.95 57.07 16.73L57.07 16.73Q57.07 18.17 57.58 19.38Q58.08 20.59 58.97 21.32Q59.86 22.06 61.01 22.06L61.01 22.06ZM69.50 15.43Q70.80 13.80 71.46 13.25Q72.12 12.70 72.72 12.70L72.72 12.70Q73.25 12.70 73.72 12.97Q74.18 13.25 74.18 13.61L74.18 13.61Q74.18 13.85 74.00 14.04Q73.82 14.23 73.49 14.23L73.49 14.23Q73.25 14.23 73.06 14.10Q72.86 13.97 72.82 13.94L72.82 13.94Q72.36 13.58 71.90 13.58L71.90 13.58Q71.54 13.58 71.10 13.97Q70.66 14.35 69.60 15.67L69.60 15.67L69.50 15.43ZM67.37 22.18Q67.30 22.18 67.30 22.03Q67.30 21.89 67.37 21.89L67.37 21.89Q68.06 21.89 68.38 21.77Q68.69 21.65 68.81 21.30Q68.93 20.95 68.93 20.23L68.93 20.23L68.93 15.43Q68.93 14.59 68.74 14.23Q68.54 13.87 68.06 13.87L68.06 13.87Q67.68 13.87 66.72 14.23L66.72 14.23L66.67 14.23Q66.58 14.23 66.54 14.12Q66.50 14.02 66.60 13.97L66.60 13.97L69.26 12.72Q69.31 12.70 69.38 12.70L69.38 12.70Q69.58 12.70 69.82 13.24Q70.06 13.78 70.06 14.62L70.06 14.62L70.06 20.23Q70.06 20.95 70.22 21.30Q70.39 21.65 70.88 21.77Q71.38 21.89 72.46 21.89L72.46 21.89Q72.53 21.89 72.53 22.03Q72.53 22.18 72.46 22.18L72.46 22.18Q71.69 22.18 71.23 22.15L71.23 22.15L69.50 22.13L68.23 22.15Q67.92 22.18 67.37 22.18L67.37 22.18ZM78.94 22.39Q77.47 22.39 76.49 21.32Q75.50 20.26 75.50 18.34L75.50 18.34Q75.50 16.61 76.32 15.30Q77.14 13.99 78.37 13.30Q79.61 12.60 80.78 12.60L80.78 12.60Q81.62 12.60 82.39 12.94Q83.16 13.27 83.59 13.80L83.59 13.80L82.82 15.10Q82.82 14.23 82.01 13.64Q81.19 13.06 80.18 13.06L80.18 13.06Q78.72 13.06 77.80 14.34Q76.87 15.62 76.87 17.66L76.87 17.66Q76.87 19.46 77.62 20.59Q78.36 21.72 79.63 21.72L79.63 21.72Q80.59 21.72 81.47 21.10Q82.34 20.47 83.21 19.46L83.21 19.46L83.40 19.63Q82.34 20.88 81.30 21.64Q80.26 22.39 78.94 22.39L78.94 22.39ZM83.50 22.37Q83.28 22.37 83.05 21.74Q82.82 21.12 82.82 20.26L82.82 20.26L82.82 13.51Q83.21 13.32 83.39 13.18Q83.57 13.03 83.71 12.72L83.71 12.72Q83.74 12.70 83.83 12.71Q83.93 12.72 83.93 12.77L83.93 12.77L83.93 19.63Q83.93 20.45 84.13 20.82Q84.34 21.19 84.82 21.19L84.82 21.19Q85.06 21.19 85.40 21.08Q85.75 20.98 86.16 20.83L86.16 20.83L86.21 20.83Q86.30 20.83 86.33 20.94Q86.35 21.05 86.26 21.07L86.26 21.07L83.59 22.34L83.50 22.37ZM93.94 22.18Q93.86 22.18 93.86 22.03Q93.86 21.89 93.94 21.89L93.94 21.89Q94.63 21.89 94.94 21.77Q95.26 21.65 95.38 21.30Q95.50 20.95 95.50 20.23L95.50 20.23L95.50 16.22Q95.50 14.76 94.94 14.09Q94.39 13.42 93.22 13.42L93.22 13.42Q92.30 13.42 91.36 14.03Q90.41 14.64 89.71 15.67L89.71 15.67L89.62 15.38Q90.72 13.92 91.75 13.26Q92.78 12.60 93.86 12.60L93.86 12.60Q95.21 12.60 95.92 13.32Q96.62 14.04 96.62 15.50L96.62 15.50L96.62 20.23Q96.62 20.95 96.73 21.30Q96.84 21.65 97.16 21.77Q97.49 21.89 98.18 21.89L98.18 21.89Q98.26 21.89 98.26 22.03Q98.26 22.18 98.18 22.18L98.18 22.18Q97.63 22.18 97.32 22.15L97.32 22.15L96.07 22.13L94.80 22.15Q94.49 22.18 93.94 22.18L93.94 22.18ZM87.48 22.18Q87.41 22.18 87.41 22.03Q87.41 21.89 87.48 21.89L87.48 21.89Q88.18 21.89 88.49 21.77Q88.80 21.65 88.92 21.30Q89.04 20.95 89.04 20.23L89.04 20.23L89.04 15.43Q89.04 14.59 88.85 14.23Q88.66 13.87 88.18 13.87L88.18 13.87Q87.79 13.87 86.83 14.23L86.83 14.23L86.78 14.23Q86.69 14.23 86.65 14.12Q86.62 14.02 86.71 13.97L86.71 13.97L89.38 12.72Q89.42 12.70 89.50 12.70L89.50 12.70Q89.69 12.70 89.93 13.24Q90.17 13.78 90.17 14.62L90.17 14.62L90.17 20.23Q90.17 20.95 90.28 21.30Q90.38 21.65 90.71 21.77Q91.03 21.89 91.73 21.89L91.73 21.89Q91.80 21.89 91.80 22.03Q91.80 22.18 91.73 22.18L91.73 22.18Q91.18 22.18 90.86 22.15L90.86 22.15L89.62 22.13L88.34 22.15Q88.03 22.18 87.48 22.18L87.48 22.18ZM103.27 22.46Q102.29 22.46 101.66 22.02Q101.04 21.58 101.04 20.54L101.04 20.54L101.04 14.83Q101.04 14.18 100.96 13.93Q100.87 13.68 100.63 13.60Q100.39 13.51 99.79 13.51L99.79 13.51Q99.72 13.51 99.72 13.37Q99.72 13.22 99.79 13.22L99.79 13.22Q100.70 13.22 101.27 12.72Q101.83 12.22 101.83 11.45L101.83 11.45Q101.83 11.38 102.02 11.38L102.02 11.38Q102.19 11.38 102.19 11.45L102.19 11.45L102.19 19.73Q102.19 21.72 104.14 21.72L104.14 21.72Q105.24 21.72 106.08 21.07L106.08 21.07L106.13 21.05Q106.20 21.05 106.25 21.16Q106.30 21.26 106.22 21.31L106.22 21.31Q105.34 21.94 104.66 22.20Q103.99 22.46 103.27 22.46L103.27 22.46ZM105.50 14.06Q104.64 13.85 103.81 13.78Q102.98 13.70 101.90 13.70L101.90 13.70L101.90 13.20Q103.37 13.20 105.58 12.96L105.58 12.96Q105.65 12.96 105.70 13.12Q105.74 13.27 105.74 13.51L105.74 13.51Q105.74 13.70 105.67 13.90Q105.60 14.09 105.50 14.06L105.50 14.06ZM117.10 20.23Q117.10 20.98 117.25 21.31Q117.41 21.65 117.84 21.77Q118.27 21.89 119.23 21.89L119.23 21.89Q119.28 21.89 119.28 22.03Q119.28 22.18 119.23 22.18L119.23 22.18Q118.51 22.18 118.10 22.15L118.10 22.15L116.42 22.13L114.82 22.15Q114.38 22.18 113.64 22.18L113.64 22.18Q113.57 22.18 113.57 22.03Q113.57 21.89 113.64 21.89L113.64 21.89Q114.58 21.89 115.02 21.77Q115.46 21.65 115.63 21.30Q115.80 20.95 115.80 20.23L115.80 20.23L115.80 9.12Q115.80 8.40 115.63 8.06Q115.46 7.73 115.02 7.60Q114.58 7.46 113.64 7.46L113.64 7.46Q113.57 7.46 113.57 7.32Q113.57 7.18 113.64 7.18L113.64 7.18L114.82 7.20Q115.82 7.25 116.42 7.25L116.42 7.25Q117.10 7.25 118.10 7.20L118.10 7.20L119.23 7.18Q119.28 7.18 119.28 7.32Q119.28 7.46 119.23 7.46L119.23 7.46Q118.30 7.46 117.85 7.61Q117.41 7.75 117.25 8.10Q117.10 8.45 117.10 9.17L117.10 9.17L117.10 20.23ZM127.97 22.18Q127.90 22.18 127.90 22.03Q127.90 21.89 127.97 21.89L127.97 21.89Q128.66 21.89 128.98 21.77Q129.29 21.65 129.41 21.30Q129.53 20.95 129.53 20.23L129.53 20.23L129.53 16.22Q129.53 14.76 128.98 14.09Q128.42 13.42 127.25 13.42L127.25 13.42Q126.34 13.42 125.39 14.03Q124.44 14.64 123.74 15.67L123.74 15.67L123.65 15.38Q124.75 13.92 125.78 13.26Q126.82 12.60 127.90 12.60L127.90 12.60Q129.24 12.60 129.95 13.32Q130.66 14.04 130.66 15.50L130.66 15.50L130.66 20.23Q130.66 20.95 130.76 21.30Q130.87 21.65 131.20 21.77Q131.52 21.89 132.22 21.89L132.22 21.89Q132.29 21.89 132.29 22.03Q132.29 22.18 132.22 22.18L132.22 22.18Q131.66 22.18 131.35 22.15L131.35 22.15L130.10 22.13L128.83 22.15Q128.52 22.18 127.97 22.18L127.97 22.18ZM121.51 22.18Q121.44 22.18 121.44 22.03Q121.44 21.89 121.51 21.89L121.51 21.89Q122.21 21.89 122.52 21.77Q122.83 21.65 122.95 21.30Q123.07 20.95 123.07 20.23L123.07 20.23L123.07 15.43Q123.07 14.59 122.88 14.23Q122.69 13.87 122.21 13.87L122.21 13.87Q121.82 13.87 120.86 14.23L120.86 14.23L120.82 14.23Q120.72 14.23 120.68 14.12Q120.65 14.02 120.74 13.97L120.74 13.97L123.41 12.72Q123.46 12.70 123.53 12.70L123.53 12.70Q123.72 12.70 123.96 13.24Q124.20 13.78 124.20 14.62L124.20 14.62L124.20 20.23Q124.20 20.95 124.31 21.30Q124.42 21.65 124.74 21.77Q125.06 21.89 125.76 21.89L125.76 21.89Q125.83 21.89 125.83 22.03Q125.83 22.18 125.76 22.18L125.76 22.18Q125.21 22.18 124.90 22.15L124.90 22.15L123.65 22.13L122.38 22.15Q122.06 22.18 121.51 22.18L121.51 22.18ZM133.56 22.18Q133.49 22.18 133.49 22.03Q133.49 21.89 133.56 21.89L133.56 21.89Q134.30 21.89 134.65 21.76Q135.00 21.62 135.13 21.29Q135.26 20.95 135.26 20.23L135.26 20.23L135.26 14.83Q135.26 14.18 135.16 13.93Q135.05 13.68 134.70 13.60Q134.35 13.51 133.46 13.51L133.46 13.51Q133.39 13.51 133.39 13.37Q133.39 13.22 133.46 13.22L133.46 13.22Q134.50 13.22 134.86 13.00Q135.22 12.77 135.24 12.14L135.24 12.14Q135.36 8.26 136.64 6.50Q137.93 4.75 140.42 4.75L140.42 4.75Q141.62 4.75 142.42 5.12Q143.21 5.50 143.21 5.98L143.21 5.98Q143.21 6.29 142.99 6.47Q142.78 6.65 142.46 6.65L142.46 6.65Q142.22 6.65 142.03 6.54Q141.84 6.43 141.60 6.12L141.60 6.12Q141.19 5.62 140.72 5.38Q140.26 5.14 139.61 5.14L139.61 5.14Q138.14 5.14 137.28 6.76Q136.42 8.38 136.42 11.64L136.42 11.64L136.42 20.23Q136.42 20.98 136.58 21.31Q136.75 21.65 137.24 21.77Q137.74 21.89 138.84 21.89L138.84 21.89Q138.89 21.89 138.89 22.03Q138.89 22.18 138.84 22.18L138.84 22.18L137.30 22.15Q136.82 22.13 135.82 22.13L135.82 22.13L134.50 22.15Q134.16 22.18 133.56 22.18L133.56 22.18ZM139.54 14.06Q138.67 13.85 137.84 13.78Q137.02 13.70 135.94 13.70L135.94 13.70L135.94 13.20Q137.40 13.20 139.61 12.96L139.61 12.96Q139.68 12.96 139.73 13.12Q139.78 13.27 139.78 13.51L139.78 13.51Q139.78 13.70 139.70 13.90Q139.63 14.09 139.54 14.06L139.54 14.06ZM144.41 22.39Q142.94 22.39 141.96 21.32Q140.98 20.26 140.98 18.34L140.98 18.34Q140.98 16.61 141.79 15.30Q142.61 13.99 143.84 13.30Q145.08 12.60 146.26 12.60L146.26 12.60Q147.10 12.60 147.86 12.94Q148.63 13.27 149.06 13.80L149.06 13.80L148.30 15.10Q148.30 14.23 147.48 13.64Q146.66 13.06 145.66 13.06L145.66 13.06Q144.19 13.06 143.27 14.34Q142.34 15.62 142.34 17.66L142.34 17.66Q142.34 19.46 143.09 20.59Q143.83 21.72 145.10 21.72L145.10 21.72Q146.06 21.72 146.94 21.10Q147.82 20.47 148.68 19.46L148.68 19.46L148.87 19.63Q147.82 20.88 146.77 21.64Q145.73 22.39 144.41 22.39L144.41 22.39ZM148.97 22.37Q148.75 22.37 148.52 21.74Q148.30 21.12 148.30 20.26L148.30 20.26L148.30 13.51Q148.68 13.32 148.86 13.18Q149.04 13.03 149.18 12.72L149.18 12.72Q149.21 12.70 149.30 12.71Q149.40 12.72 149.40 12.77L149.40 12.77L149.40 19.63Q149.40 20.45 149.60 20.82Q149.81 21.19 150.29 21.19L150.29 21.19Q150.53 21.19 150.88 21.08Q151.22 20.98 151.63 20.83L151.63 20.83L151.68 20.83Q151.78 20.83 151.80 20.94Q151.82 21.05 151.73 21.07L151.73 21.07L149.06 22.34L148.97 22.37ZM159.41 22.18Q159.34 22.18 159.34 22.03Q159.34 21.89 159.41 21.89L159.41 21.89Q160.10 21.89 160.42 21.77Q160.73 21.65 160.85 21.30Q160.97 20.95 160.97 20.23L160.97 20.23L160.97 16.22Q160.97 14.76 160.42 14.09Q159.86 13.42 158.69 13.42L158.69 13.42Q157.78 13.42 156.83 14.03Q155.88 14.64 155.18 15.67L155.18 15.67L155.09 15.38Q156.19 13.92 157.22 13.26Q158.26 12.60 159.34 12.60L159.34 12.60Q160.68 12.60 161.39 13.32Q162.10 14.04 162.10 15.50L162.10 15.50L162.10 20.23Q162.10 20.95 162.20 21.30Q162.31 21.65 162.64 21.77Q162.96 21.89 163.66 21.89L163.66 21.89Q163.73 21.89 163.73 22.03Q163.73 22.18 163.66 22.18L163.66 22.18Q163.10 22.18 162.79 22.15L162.79 22.15L161.54 22.13L160.27 22.15Q159.96 22.18 159.41 22.18L159.41 22.18ZM152.95 22.18Q152.88 22.18 152.88 22.03Q152.88 21.89 152.95 21.89L152.95 21.89Q153.65 21.89 153.96 21.77Q154.27 21.65 154.39 21.30Q154.51 20.95 154.51 20.23L154.51 20.23L154.51 15.43Q154.51 14.59 154.32 14.23Q154.13 13.87 153.65 13.87L153.65 13.87Q153.26 13.87 152.30 14.23L152.30 14.23L152.26 14.23Q152.16 14.23 152.12 14.12Q152.09 14.02 152.18 13.97L152.18 13.97L154.85 12.72Q154.90 12.70 154.97 12.70L154.97 12.70Q155.16 12.70 155.40 13.24Q155.64 13.78 155.64 14.62L155.64 14.62L155.64 20.23Q155.64 20.95 155.75 21.30Q155.86 21.65 156.18 21.77Q156.50 21.89 157.20 21.89L157.20 21.89Q157.27 21.89 157.27 22.03Q157.27 22.18 157.20 22.18L157.20 22.18Q156.65 22.18 156.34 22.15L156.34 22.15L155.09 22.13L153.82 22.15Q153.50 22.18 152.95 22.18L152.95 22.18ZM168.74 22.46Q167.76 22.46 167.14 22.02Q166.51 21.58 166.51 20.54L166.51 20.54L166.51 14.83Q166.51 14.18 166.43 13.93Q166.34 13.68 166.10 13.60Q165.86 13.51 165.26 13.51L165.26 13.51Q165.19 13.51 165.19 13.37Q165.19 13.22 165.26 13.22L165.26 13.22Q166.18 13.22 166.74 12.72Q167.30 12.22 167.30 11.45L167.30 11.45Q167.30 11.38 167.50 11.38L167.50 11.38Q167.66 11.38 167.66 11.45L167.66 11.45L167.66 19.73Q167.66 21.72 169.61 21.72L169.61 21.72Q170.71 21.72 171.55 21.07L171.55 21.07L171.60 21.05Q171.67 21.05 171.72 21.16Q171.77 21.26 171.70 21.31L171.70 21.31Q170.81 21.94 170.14 22.20Q169.46 22.46 168.74 22.46L168.74 22.46ZM170.98 14.06Q170.11 13.85 169.28 13.78Q168.46 13.70 167.38 13.70L167.38 13.70L167.38 13.20Q168.84 13.20 171.05 12.96L171.05 12.96Q171.12 12.96 171.17 13.12Q171.22 13.27 171.22 13.51L171.22 13.51Q171.22 13.70 171.14 13.90Q171.07 14.09 170.98 14.06L170.98 14.06ZM182.71 22.46Q180.50 22.46 178.85 20.66L178.85 20.66L178.82 20.62Q178.82 20.52 178.93 20.46Q179.04 20.40 179.09 20.47L179.09 20.47Q179.71 21.17 180.64 21.53Q181.56 21.89 182.50 21.89L182.50 21.89Q184.13 21.89 184.94 20.84Q185.76 19.80 185.76 18.14L185.76 18.14Q185.76 16.39 184.73 15.37Q183.70 14.35 181.22 14.35L181.22 14.35Q181.18 14.35 181.15 14.29Q181.13 14.23 181.13 14.14L181.13 14.14Q181.13 14.06 181.16 14.00Q181.20 13.94 181.22 13.94L181.22 13.94Q183.41 13.94 184.33 13.10Q185.26 12.26 185.26 10.78L185.26 10.78Q185.26 9.36 184.51 8.57Q183.77 7.78 182.42 7.78L182.42 7.78Q181.37 7.78 180.46 8.27Q179.54 8.76 179.11 9.72L179.11 9.72Q179.11 9.74 179.06 9.74L179.06 9.74Q178.99 9.74 178.91 9.70Q178.82 9.65 178.85 9.60L178.85 9.60Q179.40 8.30 180.47 7.61Q181.54 6.91 182.95 6.91L182.95 6.91Q184.66 6.91 185.59 7.87Q186.53 8.83 186.53 10.22L186.53 10.22Q186.53 11.62 185.60 12.76Q184.68 13.90 183.14 14.21L183.14 14.21L183.22 14.02Q184.46 13.94 185.35 14.45Q186.24 14.95 186.71 15.89Q187.18 16.82 187.18 17.98L187.18 17.98Q187.18 19.30 186.60 20.32Q186.02 21.34 185.02 21.90Q184.01 22.46 182.71 22.46L182.71 22.46ZM194.42 22.49Q193.03 22.49 191.93 21.49Q190.82 20.50 190.20 18.72Q189.58 16.94 189.58 14.66L189.58 14.66Q189.58 12.43 190.20 10.66Q190.82 8.88 191.94 7.88Q193.06 6.89 194.47 6.89L194.47 6.89Q195.86 6.89 196.94 7.90Q198.02 8.90 198.62 10.68Q199.22 12.46 199.22 14.74L199.22 14.74Q199.22 16.99 198.61 18.76Q198.00 20.52 196.91 21.50Q195.82 22.49 194.42 22.49L194.42 22.49ZM194.71 22.20Q196.25 22.20 197.03 20.27Q197.81 18.34 197.81 15.02L197.81 15.02Q197.81 12.46 197.32 10.68Q196.82 8.90 196.01 8.03Q195.19 7.15 194.21 7.15L194.21 7.15Q192.70 7.15 191.84 9.19Q190.99 11.23 190.99 14.50L190.99 14.50Q190.99 16.73 191.45 18.48Q191.90 20.23 192.74 21.22Q193.58 22.20 194.71 22.20L194.71 22.20ZM206.45 22.49Q205.06 22.49 203.95 21.49Q202.85 20.50 202.22 18.72Q201.60 16.94 201.60 14.66L201.60 14.66Q201.60 12.43 202.22 10.66Q202.85 8.88 203.96 7.88Q205.08 6.89 206.50 6.89L206.50 6.89Q207.89 6.89 208.97 7.90Q210.05 8.90 210.65 10.68Q211.25 12.46 211.25 14.74L211.25 14.74Q211.25 16.99 210.64 18.76Q210.02 20.52 208.93 21.50Q207.84 22.49 206.45 22.49L206.45 22.49ZM206.74 22.20Q208.27 22.20 209.05 20.27Q209.83 18.34 209.83 15.02L209.83 15.02Q209.83 12.46 209.34 10.68Q208.85 8.90 208.03 8.03Q207.22 7.15 206.23 7.15L206.23 7.15Q204.72 7.15 203.87 9.19Q203.02 11.23 203.02 14.50L203.02 14.50Q203.02 16.73 203.47 18.48Q203.93 20.23 204.77 21.22Q205.61 22.20 206.74 22.20L206.74 22.20ZM225.62 22.18Q225.55 22.18 225.55 22.03Q225.55 21.89 225.62 21.89L225.62 21.89Q226.32 21.89 226.63 21.77Q226.94 21.65 227.06 21.30Q227.18 20.95 227.18 20.23L227.18 20.23L227.18 16.22Q227.18 14.76 226.63 14.09Q226.08 13.42 224.90 13.42L224.90 13.42Q223.99 13.42 223.04 14.03Q222.10 14.64 221.40 15.67L221.40 15.67L221.30 15.38Q222.41 13.92 223.44 13.26Q224.47 12.60 225.55 12.60L225.55 12.60Q226.90 12.60 227.60 13.32Q228.31 14.04 228.31 15.50L228.31 15.50L228.31 20.23Q228.31 20.95 228.42 21.30Q228.53 21.65 228.85 21.77Q229.18 21.89 229.87 21.89L229.87 21.89Q229.94 21.89 229.94 22.03Q229.94 22.18 229.87 22.18L229.87 22.18Q229.32 22.18 229.01 22.15L229.01 22.15L227.76 22.13L226.49 22.15Q226.18 22.18 225.62 22.18L225.62 22.18ZM219.17 22.18Q219.10 22.18 219.10 22.03Q219.10 21.89 219.17 21.89L219.17 21.89Q219.86 21.89 220.18 21.77Q220.49 21.65 220.61 21.30Q220.73 20.95 220.73 20.23L220.73 20.23L220.73 15.43Q220.73 14.59 220.54 14.23Q220.34 13.87 219.86 13.87L219.86 13.87Q219.48 13.87 218.52 14.23L218.52 14.23L218.47 14.23Q218.38 14.23 218.34 14.12Q218.30 14.02 218.40 13.97L218.40 13.97L221.06 12.72Q221.11 12.70 221.18 12.70L221.18 12.70Q221.38 12.70 221.62 13.24Q221.86 13.78 221.86 14.62L221.86 14.62L221.86 20.23Q221.86 20.95 221.96 21.30Q222.07 21.65 222.40 21.77Q222.72 21.89 223.42 21.89L223.42 21.89Q223.49 21.89 223.49 22.03Q223.49 22.18 223.42 22.18L223.42 22.18Q222.86 22.18 222.55 22.15L222.55 22.15L221.30 22.13L220.03 22.15Q219.72 22.18 219.17 22.18L219.17 22.18ZM235.94 22.49Q234.58 22.49 233.52 21.80Q232.46 21.12 231.89 19.96Q231.31 18.79 231.31 17.42L231.31 17.42Q231.31 15.86 232.07 14.77Q232.82 13.68 233.99 13.14Q235.15 12.60 236.38 12.60L236.38 12.60Q237.77 12.60 238.81 13.30Q239.86 13.99 240.42 15.13Q240.98 16.27 240.98 17.54L240.98 17.54Q240.98 19.03 240.30 20.16Q239.62 21.29 238.46 21.89Q237.31 22.49 235.94 22.49L235.94 22.49ZM236.62 22.06Q238.01 22.06 238.80 21.12Q239.59 20.18 239.59 18.17L239.59 18.17Q239.59 16.73 239.09 15.56Q238.58 14.40 237.67 13.73Q236.76 13.06 235.58 13.06L235.58 13.06Q234.22 13.06 233.45 14.00Q232.68 14.95 232.68 16.73L232.68 16.73Q232.68 18.17 233.18 19.38Q233.69 20.59 234.58 21.32Q235.46 22.06 236.62 22.06L236.62 22.06ZM245.11 15.43Q246.41 13.80 247.07 13.25Q247.73 12.70 248.33 12.70L248.33 12.70Q248.86 12.70 249.32 12.97Q249.79 13.25 249.79 13.61L249.79 13.61Q249.79 13.85 249.61 14.04Q249.43 14.23 249.10 14.23L249.10 14.23Q248.86 14.23 248.66 14.10Q248.47 13.97 248.42 13.94L248.42 13.94Q247.97 13.58 247.51 13.58L247.51 13.58Q247.15 13.58 246.71 13.97Q246.26 14.35 245.21 15.67L245.21 15.67L245.11 15.43ZM242.98 22.18Q242.90 22.18 242.90 22.03Q242.90 21.89 242.98 21.89L242.98 21.89Q243.67 21.89 243.98 21.77Q244.30 21.65 244.42 21.30Q244.54 20.95 244.54 20.23L244.54 20.23L244.54 15.43Q244.54 14.59 244.34 14.23Q244.15 13.87 243.67 13.87L243.67 13.87Q243.29 13.87 242.33 14.23L242.33 14.23L242.28 14.23Q242.18 14.23 242.15 14.12Q242.11 14.02 242.21 13.97L242.21 13.97L244.87 12.72Q244.92 12.70 244.99 12.70L244.99 12.70Q245.18 12.70 245.42 13.24Q245.66 13.78 245.66 14.62L245.66 14.62L245.66 20.23Q245.66 20.95 245.83 21.30Q246.00 21.65 246.49 21.77Q246.98 21.89 248.06 21.89L248.06 21.89Q248.14 21.89 248.14 22.03Q248.14 22.18 248.06 22.18L248.06 22.18Q247.30 22.18 246.84 22.15L246.84 22.15L245.11 22.13L243.84 22.15Q243.53 22.18 242.98 22.18L242.98 22.18ZM263.95 22.18Q263.90 22.18 263.90 22.03Q263.90 21.89 263.95 21.89L263.95 21.89Q264.65 21.89 264.97 21.77Q265.30 21.65 265.42 21.30Q265.54 20.95 265.54 20.23L265.54 20.23L265.54 16.32Q265.54 14.86 265.02 14.16Q264.50 13.46 263.40 13.46L263.40 13.46Q262.54 13.46 261.62 14.08Q260.71 14.69 260.02 15.72L260.02 15.72L259.92 15.43Q261.00 13.97 261.98 13.32Q262.97 12.67 264.05 12.67L264.05 12.67Q265.32 12.67 265.99 13.39Q266.66 14.11 266.66 15.58L266.66 15.58L266.66 20.23Q266.66 20.95 266.77 21.30Q266.88 21.65 267.20 21.77Q267.53 21.89 268.22 21.89L268.22 21.89Q268.30 21.89 268.30 22.03Q268.30 22.18 268.22 22.18L268.22 22.18Q267.67 22.18 267.36 22.15L267.36 22.15L266.09 22.13L264.84 22.15Q264.50 22.18 263.95 22.18L263.95 22.18ZM257.78 22.18Q257.71 22.18 257.71 22.03Q257.71 21.89 257.78 21.89L257.78 21.89Q258.48 21.89 258.79 21.77Q259.10 21.65 259.22 21.30Q259.34 20.95 259.34 20.23L259.34 20.23L259.34 16.32Q259.34 14.86 258.83 14.16Q258.31 13.46 257.23 13.46L257.23 13.46Q256.34 13.46 255.44 14.08Q254.54 14.69 253.85 15.72L253.85 15.72L253.75 15.43Q254.81 13.97 255.80 13.32Q256.80 12.67 257.86 12.67L257.86 12.67Q259.13 12.67 259.80 13.39Q260.47 14.11 260.47 15.58L260.47 15.58L260.47 20.23Q260.47 20.95 260.59 21.30Q260.71 21.65 261.04 21.77Q261.36 21.89 262.06 21.89L262.06 21.89Q262.10 21.89 262.10 22.03Q262.10 22.18 262.06 22.18L262.06 22.18Q261.50 22.18 261.17 22.15L261.17 22.15L259.92 22.13L258.65 22.15Q258.34 22.18 257.78 22.18L257.78 22.18ZM251.62 22.18Q251.54 22.18 251.54 22.03Q251.54 21.89 251.62 21.89L251.62 21.89Q252.31 21.89 252.62 21.77Q252.94 21.65 253.06 21.30Q253.18 20.95 253.18 20.23L253.18 20.23L253.18 15.43Q253.18 14.59 252.98 14.23Q252.79 13.87 252.31 13.87L252.31 13.87Q251.93 13.87 250.97 14.23L250.97 14.23L250.92 14.23Q250.82 14.23 250.79 14.12Q250.75 14.02 250.85 13.97L250.85 13.97L253.51 12.72Q253.56 12.70 253.63 12.70L253.63 12.70Q253.82 12.70 254.06 13.24Q254.30 13.78 254.30 14.62L254.30 14.62L254.30 20.23Q254.30 20.95 254.41 21.30Q254.52 21.65 254.84 21.77Q255.17 21.89 255.86 21.89L255.86 21.89Q255.94 21.89 255.94 22.03Q255.94 22.18 255.86 22.18L255.86 22.18Q255.31 22.18 255.00 22.15L255.00 22.15L253.75 22.13L252.48 22.15Q252.17 22.18 251.62 22.18L251.62 22.18ZM273.07 22.39Q271.61 22.39 270.62 21.32Q269.64 20.26 269.64 18.34L269.64 18.34Q269.64 16.61 270.46 15.30Q271.27 13.99 272.51 13.30Q273.74 12.60 274.92 12.60L274.92 12.60Q275.76 12.60 276.53 12.94Q277.30 13.27 277.73 13.80L277.73 13.80L276.96 15.10Q276.96 14.23 276.14 13.64Q275.33 13.06 274.32 13.06L274.32 13.06Q272.86 13.06 271.93 14.34Q271.01 15.62 271.01 17.66L271.01 17.66Q271.01 19.46 271.75 20.59Q272.50 21.72 273.77 21.72L273.77 21.72Q274.73 21.72 275.60 21.10Q276.48 20.47 277.34 19.46L277.34 19.46L277.54 19.63Q276.48 20.88 275.44 21.64Q274.39 22.39 273.07 22.39L273.07 22.39ZM277.63 22.37Q277.42 22.37 277.19 21.74Q276.96 21.12 276.96 20.26L276.96 20.26L276.96 13.51Q277.34 13.32 277.52 13.18Q277.70 13.03 277.85 12.72L277.85 12.72Q277.87 12.70 277.97 12.71Q278.06 12.72 278.06 12.77L278.06 12.77L278.06 19.63Q278.06 20.45 278.27 20.82Q278.47 21.19 278.95 21.19L278.95 21.19Q279.19 21.19 279.54 21.08Q279.89 20.98 280.30 20.83L280.30 20.83L280.34 20.83Q280.44 20.83 280.46 20.94Q280.49 21.05 280.39 21.07L280.39 21.07L277.73 22.34L277.63 22.37ZM281.50 22.18Q281.42 22.18 281.42 22.03Q281.42 21.89 281.50 21.89L281.50 21.89Q282.19 21.89 282.50 21.77Q282.82 21.65 282.94 21.30Q283.06 20.95 283.06 20.23L283.06 20.23L283.06 7.78Q283.06 6.89 282.89 6.50Q282.72 6.12 282.29 6.12L282.29 6.12Q281.90 6.12 281.14 6.48L281.14 6.48L281.09 6.48Q280.99 6.48 280.96 6.36Q280.92 6.24 281.02 6.22L281.02 6.22L283.97 4.80Q284.02 4.78 284.09 4.78L284.09 4.78Q284.14 4.78 284.20 4.82Q284.26 4.87 284.26 4.94L284.26 4.94L284.26 20.23Q284.26 20.95 284.36 21.29Q284.47 21.62 284.80 21.76Q285.12 21.89 285.82 21.89L285.82 21.89Q285.89 21.89 285.89 22.03Q285.89 22.18 285.82 22.18L285.82 22.18Q285.29 22.18 284.95 22.15L284.95 22.15L283.66 22.13L282.36 22.15Q282.05 22.18 281.50 22.18L281.50 22.18Z"/></svg>