<svg xmlns="http://www.w3.org/2000/svg" xmlns:xlink="http://www.w3.org/1999/xlink" width="236.952" height="28.8"><path fill="black" d="M3.38 21.74L3.38 21.74Q1.66 21.74 0.97 20.62Q0.29 19.49 0.74 17.47L0.74 17.47Q0.77 17.35 0.89 17.35L0.89 17.35L1.44 17.35Q1.58 17.35 1.56 17.50L1.56 17.50Q1.20 19.20 1.67 20.06Q2.14 20.93 3.43 20.93L3.43 20.93Q4.78 20.93 5.48 20.12Q6.19 19.32 6.19 17.81L6.19 17.81Q6.19 16.73 5.88 15.96Q5.57 15.19 4.78 14.30L4.78 14.30L3.48 12.82Q2.76 11.98 2.45 11.22Q2.14 10.46 2.14 9.46L2.14 9.46Q2.14 7.75 3 6.74Q3.86 5.74 5.40 5.74L5.40 5.74Q7.10 5.74 7.79 6.84Q8.47 7.94 8.04 9.86L8.04 9.86Q7.99 10.03 7.87 10.03L7.87 10.03L7.32 10.03Q7.20 10.03 7.22 9.86L7.22 9.86Q7.56 8.23 7.08 7.39Q6.60 6.55 5.35 6.55L5.35 6.55Q4.25 6.55 3.60 7.33Q2.95 8.11 2.95 9.38L2.95 9.38Q2.95 10.25 3.24 10.88Q3.53 11.52 4.20 12.29L4.20 12.29L5.45 13.73Q6.34 14.74 6.68 15.59Q7.03 16.44 7.03 17.64L7.03 17.64Q7.03 19.63 6.08 20.69Q5.14 21.74 3.38 21.74ZM11.21 21.74L11.21 21.74Q9.79 21.74 9.16 20.81Q8.52 19.87 8.81 18.10L8.81 18.10L9.55 13.37Q9.84 11.57 10.62 10.74Q11.40 9.91 12.77 9.91L12.77 9.91Q14.18 9.91 14.82 10.84Q15.46 11.76 15.14 13.56L15.14 13.56L14.42 18.29Q14.14 20.06 13.36 20.90Q12.58 21.74 11.21 21.74ZM11.28 20.93L11.28 20.93Q12.26 20.93 12.83 20.29Q13.39 19.66 13.58 18.26L13.58 18.26L14.33 13.56Q14.57 12.12 14.14 11.41Q13.70 10.70 12.67 10.70L12.67 10.70Q11.69 10.70 11.14 11.35Q10.58 12.00 10.37 13.39L10.37 13.39L9.62 18.10Q9.38 19.51 9.82 20.22Q10.25 20.93 11.28 20.93ZM19.54 8.14L19.25 10.06L21.46 10.06Q21.62 10.06 21.58 10.20L21.58 10.20L21.48 10.73Q21.46 10.85 21.34 10.85L21.34 10.85L19.10 10.85L17.52 20.88Q17.30 22.18 16.97 23.15Q16.63 24.12 16.07 24.84Q15.50 25.56 14.62 26.16L14.62 26.16Q14.52 26.23 14.47 26.14L14.47 26.14L14.18 25.61Q14.14 25.51 14.21 25.46L14.21 25.46Q14.95 24.91 15.43 24.29Q15.91 23.66 16.22 22.82Q16.54 21.98 16.70 20.78L16.70 20.78L18.29 10.85L17.18 10.85Q17.04 10.85 17.06 10.73L17.06 10.73L17.16 10.18Q17.18 10.06 17.33 10.06L17.33 10.06L18.43 10.06L18.72 8.09Q18.96 6.48 19.55 5.77Q20.14 5.06 21.24 5.06L21.24 5.06Q21.62 5.06 22.01 5.14Q22.39 5.21 22.63 5.33L22.63 5.33Q22.73 5.38 22.70 5.50L22.70 5.50L22.63 6.02Q22.63 6.17 22.49 6.12L22.49 6.12Q22.22 5.98 21.90 5.93Q21.58 5.88 21.29 5.88L21.29 5.88Q20.47 5.88 20.10 6.40Q19.73 6.91 19.54 8.14L19.54 8.14ZM22.06 21.60L21.53 21.60Q21.38 21.60 21.41 21.43L21.41 21.43L23.18 10.20Q23.23 10.06 23.35 10.06L23.35 10.06L23.88 10.06Q23.95 10.06 24 10.08Q24.05 10.10 24.02 10.20L24.02 10.20L22.22 21.43Q22.20 21.60 22.06 21.60L22.06 21.60ZM24.02 7.61L24.02 7.61Q23.74 7.61 23.58 7.44Q23.42 7.27 23.47 6.98L23.47 6.98L23.50 6.77Q23.54 6.46 23.71 6.30Q23.88 6.14 24.19 6.14L24.19 6.14Q24.50 6.14 24.66 6.31Q24.82 6.48 24.77 6.77L24.77 6.77L24.72 6.98Q24.70 7.27 24.52 7.44Q24.34 7.61 24.02 7.61ZM26.59 21.74L26.59 21.74Q25.58 21.74 25.15 21.01Q24.72 20.28 24.98 18.65L24.98 18.65L25.80 13.49Q26.11 11.62 26.88 10.76Q27.65 9.91 28.99 9.91L28.99 9.91Q29.78 9.91 30.43 10.08Q31.08 10.25 31.82 10.42L31.82 10.42L30.48 18.84Q30.34 19.80 30.25 20.36Q30.17 20.93 30.12 21.48L30.12 21.48Q30.12 21.60 30 21.60L30 21.60L29.47 21.60Q29.35 21.60 29.35 21.48L29.35 21.48Q29.38 21.12 29.42 20.72Q29.47 20.33 29.54 19.97L29.54 19.97Q28.90 20.69 28.15 21.22Q27.41 21.74 26.59 21.74ZM26.83 20.93L26.83 20.93Q27.53 20.93 28.22 20.40Q28.92 19.87 29.64 19.10L29.64 19.10L30.89 11.06Q30.43 10.92 29.93 10.81Q29.42 10.70 28.97 10.70L28.97 10.70Q27.96 10.70 27.41 11.36Q26.86 12.02 26.59 13.54L26.59 13.54L25.80 18.60Q25.58 19.82 25.84 20.38Q26.09 20.93 26.83 20.93ZM38.74 21.74L38.74 21.74Q37.01 21.74 36.32 20.62Q35.64 19.49 36.10 17.47L36.10 17.47Q36.12 17.35 36.24 17.35L36.24 17.35L36.79 17.35Q36.94 17.35 36.91 17.50L36.91 17.50Q36.55 19.20 37.02 20.06Q37.49 20.93 38.78 20.93L38.78 20.93Q40.13 20.93 40.84 20.12Q41.54 19.32 41.54 17.81L41.54 17.81Q41.54 16.73 41.23 15.96Q40.92 15.19 40.13 14.30L40.13 14.30L38.83 12.82Q38.11 11.98 37.80 11.22Q37.49 10.46 37.49 9.46L37.49 9.46Q37.49 7.75 38.35 6.74Q39.22 5.74 40.75 5.74L40.75 5.74Q42.46 5.74 43.14 6.84Q43.82 7.94 43.39 9.86L43.39 9.86Q43.34 10.03 43.22 10.03L43.22 10.03L42.67 10.03Q42.55 10.03 42.58 9.86L42.58 9.86Q42.91 8.23 42.43 7.39Q41.95 6.55 40.70 6.55L40.70 6.55Q39.60 6.55 38.95 7.33Q38.30 8.11 38.30 9.38L38.30 9.38Q38.30 10.25 38.59 10.88Q38.88 11.52 39.55 12.29L39.55 12.29L40.80 13.73Q41.69 14.74 42.04 15.59Q42.38 16.44 42.38 17.64L42.38 17.64Q42.38 19.63 41.44 20.69Q40.49 21.74 38.74 21.74ZM45.67 21.74L45.67 21.74Q44.66 21.74 44.23 21.01Q43.80 20.28 44.06 18.65L44.06 18.65L44.88 13.49Q45.19 11.62 45.96 10.76Q46.73 9.91 48.07 9.91L48.07 9.91Q48.86 9.91 49.51 10.08Q50.16 10.25 50.90 10.42L50.90 10.42L49.56 18.84Q49.42 19.80 49.33 20.36Q49.25 20.93 49.20 21.48L49.20 21.48Q49.20 21.60 49.08 21.60L49.08 21.60L48.55 21.60Q48.43 21.60 48.43 21.48L48.43 21.48Q48.46 21.12 48.50 20.72Q48.55 20.33 48.62 19.97L48.62 19.97Q47.98 20.69 47.23 21.22Q46.49 21.74 45.67 21.74ZM45.91 20.93L45.91 20.93Q46.61 20.93 47.30 20.40Q48 19.87 48.72 19.10L48.72 19.10L49.97 11.06Q49.51 10.92 49.01 10.81Q48.50 10.70 48.05 10.70L48.05 10.70Q47.04 10.70 46.49 11.36Q45.94 12.02 45.67 13.54L45.67 13.54L44.88 18.60Q44.66 19.82 44.92 20.38Q45.17 20.93 45.91 20.93ZM57.07 21.60L56.57 21.60Q56.40 21.60 56.42 21.46L56.42 21.46L57.74 13.08Q57.96 11.83 57.73 11.27Q57.50 10.70 56.76 10.70L56.76 10.70Q56.09 10.70 55.33 11.24Q54.58 11.78 53.78 12.62L53.78 12.62L53.86 11.81Q54.58 11.02 55.40 10.46Q56.23 9.91 57.05 9.91L57.05 9.91Q58.06 9.91 58.44 10.63Q58.82 11.35 58.56 13.03L58.56 13.03L57.24 21.46Q57.22 21.60 57.07 21.60L57.07 21.60ZM52.34 21.60L51.82 21.60Q51.67 21.60 51.70 21.46L51.70 21.46L53.09 12.79Q53.21 12.02 53.28 11.36Q53.35 10.70 53.42 10.18L53.42 10.18Q53.42 10.06 53.54 10.06L53.54 10.06L54.05 10.06Q54.17 10.06 54.17 10.18L54.17 10.18Q54.12 10.73 54.05 11.34Q53.98 11.95 53.90 12.34L53.90 12.34L53.93 12.41L52.51 21.46Q52.49 21.60 52.34 21.60L52.34 21.60ZM62.02 21.74L62.02 21.74Q60.65 21.74 60.14 20.84Q59.64 19.94 59.95 18.41L59.95 18.41Q60 18.26 60.10 18.26L60.10 18.26L60.60 18.26Q60.70 18.26 60.73 18.29Q60.77 18.31 60.72 18.41L60.72 18.41Q60.48 19.66 60.82 20.30Q61.15 20.95 62.09 20.95L62.09 20.95Q62.98 20.95 63.48 20.35Q63.98 19.75 63.98 18.70L63.98 18.70Q63.98 18.07 63.77 17.56Q63.55 17.04 63.05 16.44L63.05 16.44L61.97 15.19Q61.42 14.57 61.15 13.99Q60.89 13.42 60.89 12.67L60.89 12.67Q60.89 11.38 61.56 10.64Q62.23 9.91 63.43 9.91L63.43 9.91Q64.63 9.91 65.20 10.64Q65.76 11.38 65.52 12.77L65.52 12.77Q65.47 12.91 65.38 12.91L65.38 12.91L64.82 12.91Q64.68 12.91 64.73 12.77L64.73 12.77Q64.87 11.74 64.55 11.22Q64.22 10.70 63.38 10.70L63.38 10.70Q62.59 10.70 62.16 11.20Q61.73 11.69 61.73 12.62L61.73 12.62Q61.73 13.18 61.91 13.61Q62.09 14.04 62.59 14.64L62.59 14.64L63.67 15.91Q64.32 16.63 64.57 17.22Q64.82 17.81 64.82 18.62L64.82 18.62Q64.82 20.04 64.10 20.89Q63.38 21.74 62.02 21.74ZM74.98 21.60L69.98 21.60Q69.86 21.60 69.89 21.46L69.89 21.46L72.34 6.02Q72.38 5.88 72.50 5.88L72.50 5.88L77.50 5.88Q77.64 5.88 77.62 6.02L77.62 6.02L77.50 6.58Q77.47 6.70 77.35 6.70L77.35 6.70L73.06 6.70L72.02 13.18L76.03 13.18Q76.18 13.18 76.13 13.30L76.13 13.30L76.06 13.82Q76.01 13.94 75.89 13.94L75.89 13.94L71.88 13.94L70.82 20.78L75.12 20.78Q75.26 20.78 75.22 20.93L75.22 20.93L75.12 21.48Q75.10 21.60 74.98 21.60L74.98 21.60ZM77.23 21.60L76.63 21.60Q76.56 21.60 76.54 21.56Q76.51 21.53 76.56 21.46L76.56 21.46L80.09 15.55L78.58 10.20Q78.55 10.13 78.58 10.09Q78.60 10.06 78.67 10.06L78.67 10.06L79.22 10.06Q79.37 10.06 79.39 10.18L79.39 10.18L80.11 12.86Q80.26 13.37 80.39 13.90Q80.52 14.42 80.64 14.93L80.64 14.93L80.66 14.93Q80.95 14.45 81.25 13.94Q81.55 13.44 81.82 12.98L81.82 12.98L83.47 10.18Q83.54 10.06 83.64 10.06L83.64 10.06L84.24 10.06Q84.31 10.06 84.32 10.09Q84.34 10.13 84.31 10.20L84.31 10.20L81.05 15.58L82.75 21.46Q82.78 21.60 82.66 21.60L82.66 21.60L82.10 21.60Q81.96 21.60 81.94 21.48L81.94 21.48L81.14 18.60Q80.98 18.02 80.82 17.42Q80.66 16.82 80.50 16.25L80.50 16.25L80.47 16.25Q80.14 16.82 79.80 17.40Q79.46 17.98 79.13 18.55L79.13 18.55L77.38 21.50Q77.33 21.60 77.23 21.60L77.23 21.60ZM86.78 21.74L86.78 21.74Q85.70 21.74 85.33 21.04Q84.96 20.33 85.22 18.67L85.22 18.67L86.47 10.85L85.39 10.85Q85.25 10.85 85.27 10.70L85.27 10.70L85.37 10.18Q85.39 10.06 85.54 10.06L85.54 10.06L86.62 10.06L87.19 6.94Q87.24 6.79 87.36 6.79L87.36 6.79L87.79 6.79Q87.94 6.79 87.91 6.94L87.91 6.94L87.41 10.06L89.78 10.06Q89.93 10.06 89.90 10.20L89.90 10.20L89.81 10.73Q89.78 10.85 89.64 10.85L89.64 10.85L87.29 10.85L86.04 18.67Q85.85 19.97 86.06 20.46Q86.28 20.95 86.98 20.95L86.98 20.95Q87.31 20.95 87.61 20.88Q87.91 20.81 88.18 20.69L88.18 20.69Q88.22 20.66 88.27 20.70Q88.32 20.74 88.30 20.81L88.30 20.81L88.20 21.34Q88.20 21.46 88.06 21.50L88.06 21.50Q87.82 21.62 87.47 21.68Q87.12 21.74 86.78 21.74ZM90.72 21.60L90.19 21.60Q90.05 21.60 90.07 21.46L90.07 21.46L91.46 12.79Q91.58 12.02 91.66 11.36Q91.73 10.70 91.80 10.18L91.80 10.18Q91.80 10.06 91.92 10.06L91.92 10.06L92.42 10.06Q92.54 10.06 92.54 10.18L92.54 10.18Q92.50 10.73 92.42 11.34Q92.35 11.95 92.28 12.34L92.28 12.34L92.30 12.41L90.89 21.46Q90.86 21.60 90.72 21.60L90.72 21.60ZM92.11 12.82L92.11 12.82L92.21 11.93Q92.54 11.47 92.99 11.02Q93.43 10.56 93.95 10.24Q94.46 9.91 95.02 9.91L95.02 9.91Q95.11 9.91 95.23 9.91Q95.35 9.91 95.45 9.96L95.45 9.96Q95.52 9.98 95.52 10.10L95.52 10.10Q95.52 10.27 95.48 10.46Q95.45 10.66 95.38 10.85L95.38 10.85Q95.33 10.97 95.21 10.94L95.21 10.94Q95.16 10.90 95.05 10.88Q94.94 10.87 94.80 10.87L94.80 10.87Q94.37 10.87 93.90 11.16Q93.43 11.45 92.98 11.88Q92.52 12.31 92.11 12.82ZM96.84 21.74L96.84 21.74Q95.83 21.74 95.40 21.01Q94.97 20.28 95.23 18.65L95.23 18.65L96.05 13.49Q96.36 11.62 97.13 10.76Q97.90 9.91 99.24 9.91L99.24 9.91Q100.03 9.91 100.68 10.08Q101.33 10.25 102.07 10.42L102.07 10.42L100.73 18.84Q100.58 19.80 100.50 20.36Q100.42 20.93 100.37 21.48L100.37 21.48Q100.37 21.60 100.25 21.60L100.25 21.60L99.72 21.60Q99.60 21.60 99.60 21.48L99.60 21.48Q99.62 21.12 99.67 20.72Q99.72 20.33 99.79 19.97L99.79 19.97Q99.14 20.69 98.40 21.22Q97.66 21.74 96.84 21.74ZM97.08 20.93L97.08 20.93Q97.78 20.93 98.47 20.40Q99.17 19.87 99.89 19.10L99.89 19.10L101.14 11.06Q100.68 10.92 100.18 10.81Q99.67 10.70 99.22 10.70L99.22 10.70Q98.21 10.70 97.66 11.36Q97.10 12.02 96.84 13.54L96.84 13.54L96.05 18.60Q95.83 19.82 96.08 20.38Q96.34 20.93 97.08 20.93ZM109.66 21.74L109.66 21.74Q107.93 21.74 107.17 20.58Q106.42 19.42 106.78 17.14L106.78 17.14L107.93 9.91Q108.29 7.73 109.22 6.73Q110.16 5.74 111.84 5.74L111.84 5.74Q113.06 5.74 113.80 6.34Q114.53 6.94 114.74 8.04Q114.96 9.14 114.60 10.70L114.60 10.70Q114.58 10.82 114.43 10.82L114.43 10.82L113.88 10.82Q113.76 10.82 113.78 10.70L113.78 10.70Q114.19 8.64 113.70 7.60Q113.21 6.55 111.77 6.55L111.77 6.55Q110.47 6.55 109.76 7.36Q109.06 8.16 108.77 9.91L108.77 9.91L107.59 17.16Q107.28 19.08 107.82 20.00Q108.36 20.93 109.75 20.93L109.75 20.93Q111.17 20.93 111.91 19.88Q112.66 18.84 112.85 16.80L112.85 16.80Q112.85 16.66 113.02 16.66L113.02 16.66L113.54 16.66Q113.62 16.66 113.64 16.67Q113.66 16.68 113.66 16.80L113.66 16.80Q113.45 19.27 112.45 20.51Q111.46 21.74 109.66 21.74ZM117.86 21.74L117.86 21.74Q116.45 21.74 115.81 20.81Q115.18 19.87 115.46 18.10L115.46 18.10L116.21 13.37Q116.50 11.57 117.28 10.74Q118.06 9.91 119.42 9.91L119.42 9.91Q120.84 9.91 121.48 10.84Q122.11 11.76 121.80 13.56L121.80 13.56L121.08 18.29Q120.79 20.06 120.01 20.90Q119.23 21.74 117.86 21.74ZM117.94 20.93L117.94 20.93Q118.92 20.93 119.48 20.29Q120.05 19.66 120.24 18.26L120.24 18.26L120.98 13.56Q121.22 12.12 120.79 11.41Q120.36 10.70 119.33 10.70L119.33 10.70Q118.34 10.70 117.79 11.35Q117.24 12.00 117.02 13.39L117.02 13.39L116.28 18.10Q116.04 19.51 116.47 20.22Q116.90 20.93 117.94 20.93ZM128.26 21.60L127.75 21.60Q127.58 21.60 127.61 21.46L127.61 21.46L128.93 13.08Q129.14 11.83 128.92 11.27Q128.69 10.70 127.94 10.70L127.94 10.70Q127.27 10.70 126.52 11.24Q125.76 11.78 124.97 12.62L124.97 12.62L125.04 11.81Q125.76 11.02 126.59 10.46Q127.42 9.91 128.23 9.91L128.23 9.91Q129.24 9.91 129.62 10.63Q130.01 11.35 129.74 13.03L129.74 13.03L128.42 21.46Q128.40 21.60 128.26 21.60L128.26 21.60ZM123.53 21.60L123 21.60Q122.86 21.60 122.88 21.46L122.88 21.46L124.27 12.79Q124.39 12.02 124.46 11.36Q124.54 10.70 124.61 10.18L124.61 10.18Q124.61 10.06 124.73 10.06L124.73 10.06L125.23 10.06Q125.35 10.06 125.35 10.18L125.35 10.18Q125.30 10.73 125.23 11.34Q125.16 11.95 125.09 12.34L125.09 12.34L125.11 12.41L123.70 21.46Q123.67 21.60 123.53 21.60L123.53 21.60ZM132.77 21.74L132.77 21.74Q131.83 21.74 131.41 21.02Q130.99 20.30 131.23 18.67L131.23 18.67L132.10 13.20Q132.38 11.38 133.10 10.64Q133.82 9.91 134.93 9.91L134.93 9.91Q135.58 9.91 136.19 10.15Q136.80 10.39 137.33 10.80L137.33 10.80L137.21 11.62Q136.66 11.18 136.08 10.94Q135.50 10.70 134.98 10.70L134.98 10.70Q134.47 10.70 134.05 10.93Q133.63 11.16 133.34 11.71Q133.06 12.26 132.89 13.27L132.89 13.27L132.05 18.62Q131.83 19.90 132.11 20.41Q132.38 20.93 133.03 20.93L133.03 20.93Q133.68 20.93 134.45 20.38Q135.22 19.82 135.98 18.91L135.98 18.91L135.91 19.75Q135.10 20.74 134.32 21.24Q133.54 21.74 132.77 21.74ZM136.20 21.60L135.67 21.60Q135.55 21.60 135.55 21.48L135.55 21.48Q135.60 20.93 135.68 20.30Q135.77 19.68 135.82 19.30L135.82 19.30L135.79 19.25L138 5.35Q138.02 5.21 138.14 5.21L138.14 5.21L138.70 5.21Q138.84 5.21 138.82 5.35L138.82 5.35L136.66 18.86Q136.54 19.63 136.45 20.28Q136.37 20.93 136.32 21.48L136.32 21.48Q136.32 21.60 136.20 21.60L136.20 21.60ZM141.43 21.74L141.43 21.74Q140.04 21.74 139.43 20.80Q138.82 19.85 139.10 18.10L139.10 18.10L139.85 13.34Q140.14 11.57 140.90 10.74Q141.67 9.91 143.04 9.91L143.04 9.91Q144.14 9.91 144.74 10.50Q145.34 11.09 145.34 12.19L145.34 12.19Q145.34 13.73 144.55 14.63Q143.76 15.53 142.08 15.77L142.08 15.77L140.26 16.06L139.92 18.10Q139.70 19.54 140.10 20.23Q140.50 20.93 141.48 20.93L141.48 20.93Q142.44 20.93 142.92 20.40Q143.40 19.87 143.52 18.72L143.52 18.72Q143.54 18.58 143.66 18.58L143.66 18.58L144.19 18.58Q144.34 18.58 144.31 18.74L144.31 18.74Q144.14 20.28 143.44 21.01Q142.73 21.74 141.43 21.74ZM140.66 13.39L140.35 15.26L141.94 15.02Q143.28 14.81 143.90 14.15Q144.53 13.49 144.53 12.29L144.53 12.29Q144.53 10.70 142.97 10.70L142.97 10.70Q141.98 10.70 141.43 11.35Q140.88 12.00 140.66 13.39L140.66 13.39ZM151.56 21.60L151.06 21.60Q150.89 21.60 150.91 21.46L150.91 21.46L152.23 13.08Q152.45 11.83 152.22 11.27Q151.99 10.70 151.25 10.70L151.25 10.70Q150.58 10.70 149.82 11.24Q149.06 11.78 148.27 12.62L148.27 12.62L148.34 11.81Q149.06 11.02 149.89 10.46Q150.72 9.91 151.54 9.91L151.54 9.91Q152.54 9.91 152.93 10.63Q153.31 11.35 153.05 13.03L153.05 13.03L151.73 21.46Q151.70 21.60 151.56 21.60L151.56 21.60ZM146.83 21.60L146.30 21.60Q146.16 21.60 146.18 21.46L146.18 21.46L147.58 12.79Q147.70 12.02 147.77 11.36Q147.84 10.70 147.91 10.18L147.91 10.18Q147.91 10.06 148.03 10.06L148.03 10.06L148.54 10.06Q148.66 10.06 148.66 10.18L148.66 10.18Q148.61 10.73 148.54 11.34Q148.46 11.95 148.39 12.34L148.39 12.34L148.42 12.41L147 21.46Q146.98 21.60 146.83 21.60L146.83 21.60ZM156.50 21.74L156.50 21.74Q155.14 21.74 154.63 20.84Q154.13 19.94 154.44 18.41L154.44 18.41Q154.49 18.26 154.58 18.26L154.58 18.26L155.09 18.26Q155.18 18.26 155.22 18.29Q155.26 18.31 155.21 18.41L155.21 18.41Q154.97 19.66 155.30 20.30Q155.64 20.95 156.58 20.95L156.58 20.95Q157.46 20.95 157.97 20.35Q158.47 19.75 158.47 18.70L158.47 18.70Q158.47 18.07 158.26 17.56Q158.04 17.04 157.54 16.44L157.54 16.44L156.46 15.19Q155.90 14.57 155.64 13.99Q155.38 13.42 155.38 12.67L155.38 12.67Q155.38 11.38 156.05 10.64Q156.72 9.91 157.92 9.91L157.92 9.91Q159.12 9.91 159.68 10.64Q160.25 11.38 160.01 12.77L160.01 12.77Q159.96 12.91 159.86 12.91L159.86 12.91L159.31 12.91Q159.17 12.91 159.22 12.77L159.22 12.77Q159.36 11.74 159.04 11.22Q158.71 10.70 157.87 10.70L157.87 10.70Q157.08 10.70 156.65 11.20Q156.22 11.69 156.22 12.62L156.22 12.62Q156.22 13.18 156.40 13.61Q156.58 14.04 157.08 14.64L157.08 14.64L158.16 15.91Q158.81 16.63 159.06 17.22Q159.31 17.81 159.31 18.62L159.31 18.62Q159.31 20.04 158.59 20.89Q157.87 21.74 156.50 21.74ZM163.51 21.74L163.51 21.74Q162.12 21.74 161.51 20.80Q160.90 19.85 161.18 18.10L161.18 18.10L161.93 13.34Q162.22 11.57 162.98 10.74Q163.75 9.91 165.12 9.91L165.12 9.91Q166.22 9.91 166.82 10.50Q167.42 11.09 167.42 12.19L167.42 12.19Q167.42 13.73 166.63 14.63Q165.84 15.53 164.16 15.77L164.16 15.77L162.34 16.06L162 18.10Q161.78 19.54 162.18 20.23Q162.58 20.93 163.56 20.93L163.56 20.93Q164.52 20.93 165 20.40Q165.48 19.87 165.60 18.72L165.60 18.72Q165.62 18.58 165.74 18.58L165.74 18.58L166.27 18.58Q166.42 18.58 166.39 18.74L166.39 18.74Q166.22 20.28 165.52 21.01Q164.81 21.74 163.51 21.74ZM162.74 13.39L162.43 15.26L164.02 15.02Q165.36 14.81 165.98 14.15Q166.61 13.49 166.61 12.29L166.61 12.29Q166.61 10.70 165.05 10.70L165.05 10.70Q164.06 10.70 163.51 11.35Q162.96 12.00 162.74 13.39L162.74 13.39ZM170.04 21.74L170.04 21.74Q169.10 21.74 168.68 21.02Q168.26 20.30 168.50 18.67L168.50 18.67L169.37 13.20Q169.66 11.38 170.38 10.64Q171.10 9.91 172.20 9.91L172.20 9.91Q172.85 9.91 173.46 10.15Q174.07 10.39 174.60 10.80L174.60 10.80L174.48 11.62Q173.93 11.18 173.35 10.94Q172.78 10.70 172.25 10.70L172.25 10.70Q171.74 10.70 171.32 10.93Q170.90 11.16 170.62 11.71Q170.33 12.26 170.16 13.27L170.16 13.27L169.32 18.62Q169.10 19.90 169.38 20.41Q169.66 20.93 170.30 20.93L170.30 20.93Q170.95 20.93 171.72 20.38Q172.49 19.82 173.26 18.91L173.26 18.91L173.18 19.75Q172.37 20.74 171.59 21.24Q170.81 21.74 170.04 21.74ZM173.47 21.60L172.94 21.60Q172.82 21.60 172.82 21.48L172.82 21.48Q172.87 20.93 172.96 20.30Q173.04 19.68 173.09 19.30L173.09 19.30L173.06 19.25L175.27 5.35Q175.30 5.21 175.42 5.21L175.42 5.21L175.97 5.21Q176.11 5.21 176.09 5.35L176.09 5.35L173.93 18.86Q173.81 19.63 173.72 20.28Q173.64 20.93 173.59 21.48L173.59 21.48Q173.59 21.60 173.47 21.60L173.47 21.60ZM184.58 21.60L179.30 21.60Q179.16 21.60 179.18 21.46L179.18 21.46L179.30 20.66Q179.62 18.82 180.22 17.57Q180.82 16.32 181.57 15.44Q182.33 14.57 183.10 13.86Q183.86 13.15 184.51 12.42Q185.16 11.69 185.56 10.75Q185.95 9.82 185.95 8.42L185.95 8.42Q185.95 7.42 185.57 6.98Q185.18 6.55 184.49 6.55L184.49 6.55Q182.28 6.55 181.97 9.72L181.97 9.72Q181.94 9.84 181.82 9.84L181.82 9.84L181.25 9.84Q181.13 9.84 181.15 9.72L181.15 9.72Q181.39 7.78 182.23 6.76Q183.07 5.74 184.56 5.74L184.56 5.74Q185.59 5.74 186.19 6.37Q186.79 7.01 186.79 8.35L186.79 8.35Q186.79 9.86 186.38 10.90Q185.98 11.93 185.32 12.71Q184.66 13.49 183.88 14.21Q183.10 14.93 182.35 15.78Q181.61 16.63 181.02 17.83Q180.43 19.03 180.14 20.78L180.14 20.78L184.70 20.78Q184.85 20.78 184.82 20.93L184.82 20.93L184.75 21.43Q184.73 21.60 184.58 21.60L184.58 21.60ZM189.86 21.74L189.86 21.74Q188.38 21.74 187.74 20.65Q187.10 19.56 187.44 17.42L187.44 17.42L188.59 10.03Q188.93 7.85 189.86 6.79Q190.80 5.74 192.29 5.74L192.29 5.74Q193.80 5.74 194.44 6.83Q195.07 7.92 194.74 10.06L194.74 10.06L193.56 17.45Q193.25 19.58 192.31 20.66Q191.38 21.74 189.86 21.74ZM189.94 20.93L189.94 20.93Q191.06 20.93 191.76 20.06Q192.46 19.20 192.72 17.40L192.72 17.40L193.90 10.08Q194.18 8.28 193.76 7.42Q193.34 6.55 192.19 6.55L192.19 6.55Q191.06 6.55 190.39 7.42Q189.72 8.28 189.43 10.08L189.43 10.08L188.26 17.40Q187.99 19.20 188.40 20.06Q188.81 20.93 189.94 20.93ZM198.19 21.74L198.19 21.74Q196.70 21.74 196.07 20.65Q195.43 19.56 195.77 17.42L195.77 17.42L196.92 10.03Q197.26 7.85 198.19 6.79Q199.13 5.74 200.62 5.74L200.62 5.74Q202.13 5.74 202.76 6.83Q203.40 7.92 203.06 10.06L203.06 10.06L201.89 17.45Q201.58 19.58 200.64 20.66Q199.70 21.74 198.19 21.74ZM198.26 20.93L198.26 20.93Q199.39 20.93 200.09 20.06Q200.78 19.20 201.05 17.40L201.05 17.40L202.22 10.08Q202.51 8.28 202.09 7.42Q201.67 6.55 200.52 6.55L200.52 6.55Q199.39 6.55 198.72 7.42Q198.05 8.28 197.76 10.08L197.76 10.08L196.58 17.40Q196.32 19.20 196.73 20.06Q197.14 20.93 198.26 20.93ZM207.65 21.60L207.12 21.60Q206.98 21.60 207.00 21.43L207.00 21.43L208.78 10.20Q208.82 10.06 208.94 10.06L208.94 10.06L209.47 10.06Q209.54 10.06 209.59 10.08Q209.64 10.10 209.62 10.20L209.62 10.20L207.82 21.43Q207.79 21.60 207.65 21.60L207.65 21.60ZM209.62 7.61L209.62 7.61Q209.33 7.61 209.17 7.44Q209.02 7.27 209.06 6.98L209.06 6.98L209.09 6.77Q209.14 6.46 209.30 6.30Q209.47 6.14 209.78 6.14L209.78 6.14Q210.10 6.14 210.25 6.31Q210.41 6.48 210.36 6.77L210.36 6.77L210.31 6.98Q210.29 7.27 210.11 7.44Q209.93 7.61 209.62 7.61ZM212.86 21.74L212.86 21.74Q211.78 21.74 211.40 21.04Q211.03 20.33 211.30 18.67L211.30 18.67L212.54 10.85L211.46 10.85Q211.32 10.85 211.34 10.70L211.34 10.70L211.44 10.18Q211.46 10.06 211.61 10.06L211.61 10.06L212.69 10.06L213.26 6.94Q213.31 6.79 213.43 6.79L213.43 6.79L213.86 6.79Q214.01 6.79 213.98 6.94L213.98 6.94L213.48 10.06L215.86 10.06Q216.00 10.06 215.98 10.20L215.98 10.20L215.88 10.73Q215.86 10.85 215.71 10.85L215.71 10.85L213.36 10.85L212.11 18.67Q211.92 19.97 212.14 20.46Q212.35 20.95 213.05 20.95L213.05 20.95Q213.38 20.95 213.68 20.88Q213.98 20.81 214.25 20.69L214.25 20.69Q214.30 20.66 214.34 20.70Q214.39 20.74 214.37 20.81L214.37 20.81L214.27 21.34Q214.27 21.46 214.13 21.50L214.13 21.50Q213.89 21.62 213.54 21.68Q213.19 21.74 212.86 21.74ZM217.90 21.74L217.90 21.74Q216.89 21.74 216.46 21.01Q216.02 20.28 216.29 18.65L216.29 18.65L217.10 13.49Q217.42 11.62 218.18 10.76Q218.95 9.91 220.30 9.91L220.30 9.91Q221.09 9.91 221.74 10.08Q222.38 10.25 223.13 10.42L223.13 10.42L221.78 18.84Q221.64 19.80 221.56 20.36Q221.47 20.93 221.42 21.48L221.42 21.48Q221.42 21.60 221.30 21.60L221.30 21.60L220.78 21.60Q220.66 21.60 220.66 21.48L220.66 21.48Q220.68 21.12 220.73 20.72Q220.78 20.33 220.85 19.97L220.85 19.97Q220.20 20.69 219.46 21.22Q218.71 21.74 217.90 21.74ZM218.14 20.93L218.14 20.93Q218.83 20.93 219.53 20.40Q220.22 19.87 220.94 19.10L220.94 19.10L222.19 11.06Q221.74 10.92 221.23 10.81Q220.73 10.70 220.27 10.70L220.27 10.70Q219.26 10.70 218.71 11.36Q218.16 12.02 217.90 13.54L217.90 13.54L217.10 18.60Q216.89 19.82 217.14 20.38Q217.39 20.93 218.14 20.93ZM224.57 21.60L224.04 21.60Q223.90 21.60 223.92 21.43L223.92 21.43L226.46 5.35Q226.51 5.21 226.63 5.21L226.63 5.21L227.16 5.21Q227.23 5.21 227.27 5.23Q227.30 5.26 227.28 5.35L227.28 5.35L224.74 21.43Q224.71 21.60 224.57 21.60L224.57 21.60ZM228.12 21.60L227.59 21.60Q227.45 21.60 227.47 21.43L227.47 21.43L229.25 10.20Q229.30 10.06 229.42 10.06L229.42 10.06L229.94 10.06Q230.02 10.06 230.06 10.08Q230.11 10.10 230.09 10.20L230.09 10.20L228.29 21.43Q228.26 21.60 228.12 21.60L228.12 21.60ZM230.09 7.61L230.09 7.61Q229.80 7.61 229.64 7.44Q229.49 7.27 229.54 6.98L229.54 6.98L229.56 6.77Q229.61 6.46 229.78 6.30Q229.94 6.14 230.26 6.14L230.26 6.14Q230.57 6.14 230.72 6.31Q230.88 6.48 230.83 6.77L230.83 6.77L230.78 6.98Q230.76 7.27 230.58 7.44Q230.40 7.61 230.09 7.61ZM233.42 21.74L233.42 21.74Q232.03 21.77 231.44 20.80Q230.86 19.82 231.14 18.10L231.14 18.10L231.89 13.34Q232.18 11.57 232.94 10.74Q233.71 9.91 235.06 9.91L235.06 9.91Q236.40 9.91 237.02 10.82Q237.65 11.74 237.29 13.25L237.29 13.25Q237.24 13.39 237.14 13.39L237.14 13.39L236.62 13.39Q236.47 13.39 236.50 13.25L236.50 13.25Q236.76 12.05 236.36 11.38Q235.97 10.70 234.98 10.70L234.98 10.70Q234.02 10.70 233.48 11.34Q232.94 11.98 232.70 13.44L232.70 13.44L231.96 18.10Q231.74 19.49 232.13 20.21Q232.51 20.93 233.50 20.93L233.50 20.93Q234.48 20.93 235.02 20.28Q235.56 19.63 235.70 18.26L235.70 18.26Q235.73 18.12 235.85 18.12L235.85 18.12L236.38 18.12Q236.52 18.12 236.50 18.26L236.50 18.26Q236.28 20.06 235.54 20.89Q234.79 21.72 233.42 21.74Z"/></svg>