<svg xmlns="http://www.w3.org/2000/svg" xmlns:xlink="http://www.w3.org/1999/xlink" width="201.609375" height="35.390625"><path fill="black" d="M4.36 23.67L1.52 23.67L1.52 8.60L6.61 8.60Q8.11 8.60 9.42 9.06Q10.73 9.52 11.54 10.52Q12.35 11.53 12.35 13.22L12.35 13.22Q12.35 14.53 11.86 15.41Q11.37 16.29 10.55 16.80Q9.73 17.32 8.70 17.55Q7.66 17.79 6.61 17.79L6.61 17.79L4.36 17.79L4.36 23.67ZM4.36 10.85L4.36 15.54L6.05 15.54Q7.59 15.54 8.54 15.05Q9.49 14.55 9.49 13.22L9.49 13.22Q9.49 11.91 8.58 11.38Q7.66 10.85 6.05 10.85L6.05 10.85L4.36 10.85ZM18.19 23.95L18.19 23.95Q17.23 23.95 16.38 23.58Q15.54 23.20 15.02 22.50Q14.51 21.80 14.51 20.81L14.51 20.81Q14.51 19.69 14.96 18.93Q15.42 18.16 16.18 17.73Q16.95 17.30 17.85 17.11Q18.75 16.92 19.64 16.92L19.64 16.92L21.16 16.92Q21.14 15.77 20.82 15.16Q20.51 14.55 19.34 14.55L19.34 14.55Q18.42 14.55 18.04 14.93Q17.65 15.30 17.53 16.10L17.53 16.10L14.95 16.10Q14.95 14.60 16.18 13.78Q17.41 12.96 19.36 12.96L19.36 12.96Q20.13 12.96 20.99 13.14Q21.84 13.31 22.54 13.75Q23.23 14.18 23.48 14.98L23.48 14.98Q23.60 15.38 23.66 16.04Q23.72 16.71 23.72 17.53L23.72 17.53L23.72 20.13Q23.72 21.14 23.79 22.13Q23.86 23.11 24.02 23.67L24.02 23.67L21.63 23.67Q21.56 23.41 21.48 23.04Q21.40 22.66 21.35 22.38L21.35 22.38Q20.46 23.25 19.80 23.60Q19.15 23.95 18.19 23.95ZM18.87 22.22L18.87 22.22Q19.88 22.22 20.36 21.69Q20.84 21.16 21 20.32Q21.16 19.48 21.16 18.49L21.16 18.49Q20.77 18.45 20.16 18.45L20.16 18.45Q18.89 18.45 18.01 18.95Q17.13 19.45 17.13 20.60L17.13 20.60Q17.13 21.28 17.64 21.75Q18.14 22.22 18.87 22.22ZM30.87 23.95L30.87 23.95Q29.34 23.95 28.27 23.23Q27.19 22.50 26.60 21.28Q26.02 20.06 26.02 18.61L26.02 18.61Q26.02 16.97 26.54 15.69Q27.07 14.41 28.09 13.69Q29.11 12.96 30.56 12.96L30.56 12.96Q31.59 12.96 32.37 13.27Q33.14 13.57 33.75 14.27L33.75 14.27L33.75 8.60L36.33 8.60L36.33 23.67L33.75 23.67L33.75 22.29Q33.14 23.06 32.40 23.51Q31.66 23.95 30.87 23.95ZM31.22 22.20L31.22 22.20Q32.13 22.20 32.70 21.59Q33.26 20.98 33.52 20.12Q33.77 19.27 33.77 18.52L33.77 18.52Q33.77 16.66 33.12 15.63Q32.46 14.60 31.22 14.60L31.22 14.60Q30.47 14.60 29.96 14.98Q29.46 15.35 29.16 15.96Q28.85 16.57 28.72 17.26Q28.59 17.95 28.59 18.56L28.59 18.56Q28.59 19.43 28.88 20.26Q29.16 21.09 29.73 21.64Q30.30 22.20 31.22 22.20ZM42.38 23.95L42.38 23.95Q41.41 23.95 40.57 23.58Q39.73 23.20 39.21 22.50Q38.70 21.80 38.70 20.81L38.70 20.81Q38.70 19.69 39.15 18.93Q39.61 18.16 40.37 17.73Q41.13 17.30 42.04 17.11Q42.94 16.92 43.83 16.92L43.83 16.92L45.35 16.92Q45.33 15.77 45.01 15.16Q44.70 14.55 43.52 14.55L43.52 14.55Q42.61 14.55 42.22 14.93Q41.84 15.30 41.72 16.10L41.72 16.10L39.14 16.10Q39.14 14.60 40.37 13.78Q41.60 12.96 43.55 12.96L43.55 12.96Q44.32 12.96 45.18 13.14Q46.03 13.31 46.72 13.75Q47.41 14.18 47.67 14.98L47.67 14.98Q47.79 15.38 47.85 16.04Q47.91 16.71 47.91 17.53L47.91 17.53L47.91 20.13Q47.91 21.14 47.98 22.13Q48.05 23.11 48.21 23.67L48.21 23.67L45.82 23.67Q45.75 23.41 45.67 23.04Q45.59 22.66 45.54 22.38L45.54 22.38Q44.65 23.25 43.99 23.60Q43.34 23.95 42.38 23.95ZM43.05 22.22L43.05 22.22Q44.06 22.22 44.54 21.69Q45.02 21.16 45.19 20.32Q45.35 19.48 45.35 18.49L45.35 18.49Q44.95 18.45 44.34 18.45L44.34 18.45Q43.08 18.45 42.20 18.95Q41.32 19.45 41.32 20.60L41.32 20.60Q41.32 21.28 41.82 21.75Q42.33 22.22 43.05 22.22ZM54.26 23.95L54.26 23.95Q52.48 23.95 51.55 23.00Q50.63 22.05 50.63 20.30L50.63 20.30L50.63 13.24L53.20 13.24L53.20 19.66Q53.20 20.98 53.74 21.67Q54.28 22.36 55.24 22.36L55.24 22.36Q56.34 22.36 56.96 21.59Q57.59 20.81 57.59 19.29L57.59 19.29L57.59 13.24L60.21 13.24L60.21 23.67L57.59 23.67L57.59 22.29Q57 23.20 56.26 23.58Q55.52 23.95 54.26 23.95ZM65.53 23.67L62.95 23.67L62.95 8.60L65.53 8.60L65.53 17.44L69 13.24L72.12 13.24L68.23 17.74L72.45 23.67L69.23 23.67L65.53 18.21L65.53 23.67ZM90.84 23.67L87.68 23.67L93.33 10.80L86.02 10.80L86.02 8.60L95.91 8.60L95.91 11.30L90.84 23.67ZM102.87 23.95L102.87 23.95Q101.02 23.95 99.88 22.98Q98.74 22.01 98.24 20.23Q97.73 18.45 97.73 16.05L97.73 16.05Q97.73 13.66 98.24 11.93Q98.74 10.20 99.88 9.26Q101.02 8.32 102.87 8.32L102.87 8.32Q104.72 8.32 105.84 9.26Q106.97 10.20 107.48 11.93Q108 13.66 108 16.05L108 16.05Q108 18.45 107.48 20.23Q106.97 22.01 105.84 22.98Q104.72 23.95 102.87 23.95ZM102.87 21.98L102.87 21.98Q103.71 21.98 104.18 21.46Q104.65 20.93 104.88 20.07Q105.12 19.22 105.18 18.16Q105.23 17.11 105.23 16.05L105.23 16.05Q105.23 14.98 105.18 13.96Q105.12 12.94 104.88 12.12Q104.65 11.30 104.18 10.80Q103.71 10.31 102.87 10.31L102.87 10.31Q102.02 10.31 101.54 10.80Q101.06 11.30 100.83 12.13Q100.59 12.96 100.54 13.98Q100.48 15 100.48 16.05L100.48 16.05Q100.48 17.11 100.54 18.16Q100.59 19.22 100.83 20.07Q101.06 20.93 101.54 21.46Q102.02 21.98 102.87 21.98ZM114.77 23.95L114.77 23.95Q112.92 23.95 111.79 22.98Q110.65 22.01 110.14 20.23Q109.64 18.45 109.64 16.05L109.64 16.05Q109.64 13.66 110.14 11.93Q110.65 10.20 111.79 9.26Q112.92 8.32 114.77 8.32L114.77 8.32Q116.63 8.32 117.75 9.26Q118.88 10.20 119.39 11.93Q119.91 13.66 119.91 16.05L119.91 16.05Q119.91 18.45 119.39 20.23Q118.88 22.01 117.75 22.98Q116.63 23.95 114.77 23.95ZM114.77 21.98L114.77 21.98Q115.62 21.98 116.09 21.46Q116.55 20.93 116.79 20.07Q117.02 19.22 117.08 18.16Q117.14 17.11 117.14 16.05L117.14 16.05Q117.14 14.98 117.08 13.96Q117.02 12.94 116.79 12.12Q116.55 11.30 116.09 10.80Q115.62 10.31 114.77 10.31L114.77 10.31Q113.93 10.31 113.45 10.80Q112.97 11.30 112.73 12.13Q112.50 12.96 112.44 13.98Q112.38 15 112.38 16.05L112.38 16.05Q112.38 17.11 112.44 18.16Q112.50 19.22 112.73 20.07Q112.97 20.93 113.45 21.46Q113.93 21.98 114.77 21.98ZM136.69 23.67L134.11 23.67L134.11 13.24L136.69 13.24L136.69 14.53Q137.27 13.66 138.04 13.31Q138.80 12.96 140.04 12.96L140.04 12.96Q141.87 12.96 142.78 13.96Q143.70 14.95 143.70 16.64L143.70 16.64L143.70 23.67L141.07 23.67L141.07 17.25Q141.07 15.94 140.53 15.23Q139.99 14.53 139.05 14.53L139.05 14.53Q138 14.53 137.34 15.39Q136.69 16.24 136.69 17.70L136.69 17.70L136.69 23.67ZM151.57 23.95L151.57 23.95Q149.98 23.95 148.78 23.25Q147.59 22.55 146.91 21.32Q146.23 20.09 146.23 18.47L146.23 18.47Q146.23 16.80 146.92 15.56Q147.61 14.32 148.82 13.64Q150.02 12.96 151.57 12.96L151.57 12.96Q153.14 12.96 154.34 13.66Q155.53 14.37 156.20 15.61Q156.87 16.85 156.87 18.47L156.87 18.47Q156.87 20.16 156.18 21.39Q155.48 22.62 154.28 23.29Q153.07 23.95 151.57 23.95ZM151.57 22.27L151.57 22.27Q152.91 22.27 153.57 21.25Q154.24 20.23 154.24 18.47L154.24 18.47Q154.24 16.71 153.57 15.67Q152.91 14.63 151.57 14.63L151.57 14.63Q150.21 14.63 149.52 15.69Q148.83 16.76 148.83 18.47L148.83 18.47Q148.83 20.16 149.52 21.21Q150.21 22.27 151.57 22.27ZM161.81 23.67L159.23 23.67L159.23 13.24L161.81 13.24L161.81 14.81Q162.16 14.18 162.59 13.78Q163.01 13.38 163.68 13.21Q164.34 13.03 165.45 13.03L165.45 13.03L165.45 15.23Q161.81 15.23 161.81 18.21L161.81 18.21L161.81 23.67ZM169.78 23.67L167.20 23.67L167.20 13.24L169.78 13.24L169.78 14.70Q170.41 13.78 171.18 13.37Q171.94 12.96 173.02 12.96L173.02 12.96Q174.26 12.96 175.01 13.37Q175.76 13.78 176.30 14.86L176.30 14.86Q177.07 13.76 177.83 13.36Q178.59 12.96 179.77 12.96L179.77 12.96Q181.08 12.96 181.88 13.50Q182.67 14.04 183.04 14.92Q183.40 15.80 183.40 16.85L183.40 16.85L183.40 23.67L180.80 23.67L180.80 16.97Q180.80 15.98 180.28 15.29Q179.77 14.60 178.88 14.60L178.88 14.60Q178.24 14.60 177.71 15.02Q177.19 15.45 176.89 16.07Q176.60 16.69 176.60 17.34L176.60 17.34L176.60 23.67L174.02 23.67L174.02 16.97Q174.02 16.03 173.51 15.32Q172.99 14.60 172.13 14.60L172.13 14.60Q171.40 14.60 170.87 15.06Q170.34 15.52 170.06 16.17Q169.78 16.83 169.78 17.44L169.78 17.44L169.78 23.67ZM189.42 23.95L189.42 23.95Q188.46 23.95 187.62 23.58Q186.77 23.20 186.26 22.50Q185.74 21.80 185.74 20.81L185.74 20.81Q185.74 19.69 186.20 18.93Q186.66 18.16 187.42 17.73Q188.18 17.30 189.08 17.11Q189.98 16.92 190.88 16.92L190.88 16.92L192.40 16.92Q192.38 15.77 192.06 15.16Q191.74 14.55 190.57 14.55L190.57 14.55Q189.66 14.55 189.27 14.93Q188.88 15.30 188.77 16.10L188.77 16.10L186.19 16.10Q186.19 14.60 187.42 13.78Q188.65 12.96 190.59 12.96L190.59 12.96Q191.37 12.96 192.22 13.14Q193.08 13.31 193.77 13.75Q194.46 14.18 194.72 14.98L194.72 14.98Q194.84 15.38 194.89 16.04Q194.95 16.71 194.95 17.53L194.95 17.53L194.95 20.13Q194.95 21.14 195.02 22.13Q195.09 23.11 195.26 23.67L195.26 23.67L192.87 23.67Q192.80 23.41 192.71 23.04Q192.63 22.66 192.59 22.38L192.59 22.38Q191.70 23.25 191.04 23.60Q190.38 23.95 189.42 23.95ZM190.10 22.22L190.10 22.22Q191.11 22.22 191.59 21.69Q192.07 21.16 192.23 20.32Q192.40 19.48 192.40 18.49L192.40 18.49Q192 18.45 191.39 18.45L191.39 18.45Q190.13 18.45 189.25 18.95Q188.37 19.45 188.37 20.60L188.37 20.60Q188.37 21.28 188.87 21.75Q189.38 22.22 190.10 22.22ZM200.25 23.67L197.67 23.67L197.67 8.60L200.25 8.60L200.25 23.67Z"/></svg>