<svg xmlns="http://www.w3.org/2000/svg" xmlns:xlink="http://www.w3.org/1999/xlink" width="249.31199999999995" height="28.8"><path fill="black" d="M4.39 21.79L4.39 21.79Q2.30 21.79 1.40 20.69Q0.50 19.58 0.96 17.42L0.96 17.42Q1.01 17.28 1.15 17.28L1.15 17.28L1.87 17.28Q2.04 17.28 1.99 17.45L1.99 17.45Q1.66 19.20 2.29 19.99Q2.93 20.78 4.46 20.78L4.46 20.78Q6.12 20.78 6.96 20.00Q7.80 19.22 7.80 17.71L7.80 17.71Q7.80 17.02 7.63 16.49Q7.46 15.96 7.07 15.48Q6.67 15 6 14.45L6 14.45L4.13 12.96Q3.17 12.19 2.76 11.40Q2.35 10.61 2.35 9.53L2.35 9.53Q2.35 7.73 3.42 6.71Q4.49 5.69 6.38 5.69L6.38 5.69Q8.40 5.69 9.32 6.77Q10.25 7.85 9.84 9.91L9.84 9.91Q9.79 10.10 9.65 10.10L9.65 10.10L8.90 10.10Q8.78 10.10 8.78 9.91L8.78 9.91Q9.07 8.28 8.42 7.49Q7.78 6.70 6.31 6.70L6.31 6.70Q4.94 6.70 4.19 7.44Q3.43 8.18 3.43 9.43L3.43 9.43Q3.43 10.30 3.78 10.92Q4.13 11.54 5.02 12.26L5.02 12.26L6.77 13.66Q7.58 14.28 8.04 14.87Q8.50 15.46 8.69 16.09Q8.88 16.73 8.88 17.54L8.88 17.54Q8.88 19.63 7.74 20.71Q6.60 21.79 4.39 21.79ZM14.16 21.79L14.16 21.79Q12.41 21.79 11.60 20.75Q10.80 19.70 11.09 17.74L11.09 17.74L11.74 13.66Q12.05 11.69 13.03 10.75Q14.02 9.82 15.74 9.82L15.74 9.82Q17.47 9.82 18.29 10.85Q19.10 11.88 18.82 13.87L18.82 13.87L18.17 17.93Q17.86 19.90 16.87 20.84Q15.89 21.79 14.16 21.79ZM14.28 20.78L14.28 20.78Q15.50 20.78 16.19 20.08Q16.87 19.37 17.11 17.88L17.11 17.88L17.74 13.92Q18 12.36 17.45 11.60Q16.90 10.85 15.62 10.85L15.62 10.85Q14.40 10.85 13.72 11.54Q13.03 12.24 12.79 13.73L12.79 13.73L12.17 17.71Q11.93 19.25 12.46 20.02Q12.98 20.78 14.28 20.78ZM23.95 8.35L23.71 10.01L26.50 10.01Q26.66 10.01 26.64 10.18L26.64 10.18L26.52 10.87Q26.50 11.02 26.35 11.02L26.35 11.02L23.54 11.02L22.01 20.74Q21.79 22.06 21.46 23.08Q21.12 24.10 20.57 24.85Q20.02 25.61 19.15 26.18L19.15 26.18Q19.03 26.26 18.96 26.16L18.96 26.16L18.50 25.56Q18.43 25.44 18.55 25.34L18.55 25.34Q19.25 24.79 19.72 24.17Q20.18 23.54 20.48 22.69Q20.78 21.84 20.95 20.64L20.95 20.64L22.49 11.02L21.07 11.02Q20.93 11.02 20.95 10.85L20.95 10.85L21.05 10.15Q21.10 10.01 21.24 10.01L21.24 10.01L22.66 10.01L22.92 8.30Q23.18 6.60 23.92 5.81Q24.65 5.02 26.02 5.02L26.02 5.02Q26.47 5.02 26.98 5.10Q27.48 5.18 27.79 5.35L27.79 5.35Q27.89 5.40 27.86 5.54L27.86 5.54L27.77 6.24Q27.77 6.38 27.60 6.34L27.60 6.34Q27.24 6.17 26.84 6.10Q26.45 6.02 26.06 6.02L26.06 6.02Q25.08 6.02 24.62 6.56Q24.17 7.10 23.95 8.35L23.95 8.35ZM27.62 21.60L26.90 21.60Q26.74 21.60 26.76 21.43L26.76 21.43L28.54 10.18Q28.58 10.01 28.73 10.01L28.73 10.01L29.45 10.01Q29.64 10.01 29.62 10.18L29.62 10.18L27.82 21.43Q27.79 21.60 27.62 21.60L27.62 21.60ZM29.50 7.68L29.50 7.68Q29.14 7.68 28.94 7.46Q28.75 7.25 28.80 6.91L28.80 6.91L28.85 6.70Q28.94 5.93 29.69 5.93L29.69 5.93Q30.07 5.93 30.25 6.13Q30.43 6.34 30.38 6.70L30.38 6.70L30.34 6.91Q30.24 7.68 29.50 7.68ZM33.10 21.79L33.10 21.79Q31.82 21.79 31.31 20.90Q30.79 20.02 31.08 18.22L31.08 18.22L31.80 13.66Q32.11 11.62 33.08 10.72Q34.06 9.82 35.74 9.82L35.74 9.82Q36.67 9.82 37.48 10.02Q38.28 10.22 39.22 10.37L39.22 10.37L37.90 18.82Q37.73 19.70 37.66 20.32Q37.58 20.93 37.56 21.46L37.56 21.46Q37.56 21.60 37.39 21.60L37.39 21.60L36.72 21.60Q36.58 21.60 36.58 21.46L36.58 21.46Q36.60 21.07 36.64 20.64Q36.67 20.21 36.72 19.82L36.72 19.82Q35.86 20.71 34.96 21.25Q34.06 21.79 33.10 21.79ZM33.48 20.78L33.48 20.78Q34.25 20.78 35.06 20.26Q35.88 19.73 36.84 18.77L36.84 18.77L38.02 11.18Q37.46 11.04 36.85 10.94Q36.24 10.85 35.71 10.85L35.71 10.85Q34.51 10.85 33.79 11.51Q33.07 12.17 32.83 13.75L32.83 13.75L32.11 18.19Q31.92 19.51 32.22 20.15Q32.52 20.78 33.48 20.78ZM48.22 21.79L48.22 21.79Q46.13 21.79 45.23 20.69Q44.33 19.58 44.78 17.42L44.78 17.42Q44.83 17.28 44.98 17.28L44.98 17.28L45.70 17.28Q45.86 17.28 45.82 17.45L45.82 17.45Q45.48 19.20 46.12 19.99Q46.75 20.78 48.29 20.78L48.29 20.78Q49.94 20.78 50.78 20.00Q51.62 19.22 51.62 17.71L51.62 17.71Q51.62 17.02 51.46 16.49Q51.29 15.96 50.89 15.48Q50.50 15 49.82 14.45L49.82 14.45L47.95 12.96Q46.99 12.19 46.58 11.40Q46.18 10.61 46.18 9.53L46.18 9.53Q46.18 7.73 47.24 6.71Q48.31 5.69 50.21 5.69L50.21 5.69Q52.22 5.69 53.15 6.77Q54.07 7.85 53.66 9.91L53.66 9.91Q53.62 10.10 53.47 10.10L53.47 10.10L52.73 10.10Q52.61 10.10 52.61 9.91L52.61 9.91Q52.90 8.28 52.25 7.49Q51.60 6.70 50.14 6.70L50.14 6.70Q48.77 6.70 48.01 7.44Q47.26 8.18 47.26 9.43L47.26 9.43Q47.26 10.30 47.60 10.92Q47.95 11.54 48.84 12.26L48.84 12.26L50.59 13.66Q51.41 14.28 51.86 14.87Q52.32 15.46 52.51 16.09Q52.70 16.73 52.70 17.54L52.70 17.54Q52.70 19.63 51.56 20.71Q50.42 21.79 48.22 21.79ZM56.86 21.79L56.86 21.79Q55.58 21.79 55.07 20.90Q54.55 20.02 54.84 18.22L54.84 18.22L55.56 13.66Q55.87 11.62 56.84 10.72Q57.82 9.82 59.50 9.82L59.50 9.82Q60.43 9.82 61.24 10.02Q62.04 10.22 62.98 10.37L62.98 10.37L61.66 18.82Q61.49 19.70 61.42 20.32Q61.34 20.93 61.32 21.46L61.32 21.46Q61.32 21.60 61.15 21.60L61.15 21.60L60.48 21.60Q60.34 21.60 60.34 21.46L60.34 21.46Q60.36 21.07 60.40 20.64Q60.43 20.21 60.48 19.82L60.48 19.82Q59.62 20.71 58.72 21.25Q57.82 21.79 56.86 21.79ZM57.24 20.78L57.24 20.78Q58.01 20.78 58.82 20.26Q59.64 19.73 60.60 18.77L60.60 18.77L61.78 11.18Q61.22 11.04 60.61 10.94Q60.00 10.85 59.47 10.85L59.47 10.85Q58.27 10.85 57.55 11.51Q56.83 12.17 56.59 13.75L56.59 13.75L55.87 18.19Q55.68 19.51 55.98 20.15Q56.28 20.78 57.24 20.78ZM71.09 21.60L70.37 21.60Q70.20 21.60 70.22 21.43L70.22 21.43L71.50 13.32Q71.69 12.05 71.36 11.45Q71.04 10.85 70.15 10.85L70.15 10.85Q69.34 10.85 68.44 11.42Q67.54 12.00 66.48 13.03L66.48 13.03L66.60 12.00Q67.56 11.04 68.54 10.43Q69.53 9.82 70.54 9.82L70.54 9.82Q71.78 9.82 72.31 10.64Q72.84 11.47 72.55 13.27L72.55 13.27L71.28 21.43Q71.26 21.60 71.09 21.60L71.09 21.60ZM65.14 21.60L64.42 21.60Q64.25 21.60 64.27 21.43L64.27 21.43L65.66 12.79Q65.78 12.05 65.86 11.35Q65.93 10.66 65.98 10.18L65.98 10.18Q65.98 10.01 66.12 10.01L66.12 10.01L66.82 10.01Q66.96 10.01 66.96 10.15L66.96 10.15Q66.94 10.68 66.86 11.33Q66.79 11.98 66.72 12.43L66.72 12.43L66.74 12.62L65.33 21.43Q65.30 21.60 65.14 21.60L65.14 21.60ZM77.06 21.79L77.06 21.79Q75.36 21.79 74.70 20.89Q74.04 19.99 74.38 18.36L74.38 18.36Q74.38 18.17 74.54 18.17L74.54 18.17L75.26 18.17Q75.41 18.17 75.38 18.36L75.38 18.36Q75.17 19.61 75.59 20.20Q76.01 20.78 77.16 20.78L77.16 20.78Q78.29 20.78 78.86 20.24Q79.44 19.70 79.44 18.67L79.44 18.67Q79.44 18.02 79.19 17.54Q78.94 17.06 78.31 16.56L78.31 16.56L76.70 15.31Q76.01 14.74 75.66 14.14Q75.31 13.54 75.31 12.72L75.31 12.72Q75.31 11.35 76.15 10.58Q76.99 9.82 78.48 9.82L78.48 9.82Q79.97 9.82 80.69 10.58Q81.41 11.35 81.17 12.77L81.17 12.77Q81.14 12.94 81.02 12.94L81.02 12.94L80.26 12.94Q80.11 12.94 80.14 12.77L80.14 12.77Q80.40 10.82 78.41 10.82L78.41 10.82Q76.39 10.82 76.39 12.65L76.39 12.65Q76.39 13.22 76.63 13.63Q76.87 14.04 77.47 14.57L77.47 14.57L79.06 15.82Q79.85 16.44 80.18 17.06Q80.52 17.69 80.52 18.55L80.52 18.55Q80.52 20.06 79.64 20.93Q78.77 21.79 77.06 21.79ZM91.06 21.79L91.06 21.79Q88.90 21.79 87.91 20.48Q86.93 19.18 87.31 16.75L87.31 16.75L88.32 10.25Q88.70 7.90 89.87 6.79Q91.03 5.69 93.12 5.69L93.12 5.69Q94.61 5.69 95.54 6.30Q96.48 6.91 96.82 8.05Q97.15 9.19 96.79 10.75L96.79 10.75Q96.74 10.92 96.62 10.92L96.62 10.92L95.88 10.92Q95.71 10.92 95.74 10.75L95.74 10.75Q96.12 8.78 95.45 7.74Q94.78 6.70 93 6.70L93 6.70Q91.44 6.70 90.56 7.56Q89.69 8.42 89.40 10.27L89.40 10.27L88.37 16.78Q88.06 18.77 88.78 19.78Q89.50 20.78 91.18 20.78L91.18 20.78Q92.86 20.78 93.73 19.75Q94.61 18.72 94.82 16.73L94.82 16.73Q94.82 16.56 94.99 16.56L94.99 16.56L95.74 16.56Q95.88 16.56 95.88 16.73L95.88 16.73Q95.66 19.22 94.46 20.51Q93.26 21.79 91.06 21.79ZM101.16 21.79L101.16 21.79Q99.41 21.79 98.60 20.75Q97.80 19.70 98.09 17.74L98.09 17.74L98.74 13.66Q99.05 11.69 100.03 10.75Q101.02 9.82 102.74 9.82L102.74 9.82Q104.47 9.82 105.29 10.85Q106.10 11.88 105.82 13.87L105.82 13.87L105.17 17.93Q104.86 19.90 103.87 20.84Q102.89 21.79 101.16 21.79ZM101.28 20.78L101.28 20.78Q102.50 20.78 103.19 20.08Q103.87 19.37 104.11 17.88L104.11 17.88L104.74 13.92Q105.00 12.36 104.45 11.60Q103.90 10.85 102.62 10.85L102.62 10.85Q101.40 10.85 100.72 11.54Q100.03 12.24 99.79 13.73L99.79 13.73L99.17 17.71Q98.93 19.25 99.46 20.02Q99.98 20.78 101.28 20.78ZM114.17 21.60L113.45 21.60Q113.28 21.60 113.30 21.43L113.30 21.43L114.58 13.32Q114.77 12.05 114.44 11.45Q114.12 10.85 113.23 10.85L113.23 10.85Q112.42 10.85 111.52 11.42Q110.62 12.00 109.56 13.03L109.56 13.03L109.68 12.00Q110.64 11.04 111.62 10.43Q112.61 9.82 113.62 9.82L113.62 9.82Q114.86 9.82 115.39 10.64Q115.92 11.47 115.63 13.27L115.63 13.27L114.36 21.43Q114.34 21.60 114.17 21.60L114.17 21.60ZM108.22 21.60L107.50 21.60Q107.33 21.60 107.35 21.43L107.35 21.43L108.74 12.79Q108.86 12.05 108.94 11.35Q109.01 10.66 109.06 10.18L109.06 10.18Q109.06 10.01 109.20 10.01L109.20 10.01L109.90 10.01Q110.04 10.01 110.04 10.15L110.04 10.15Q110.02 10.68 109.94 11.33Q109.87 11.98 109.80 12.43L109.80 12.43L109.82 12.62L108.41 21.43Q108.38 21.60 108.22 21.60L108.22 21.60ZM119.66 21.79L119.66 21.79Q118.42 21.79 117.90 20.93Q117.38 20.06 117.65 18.26L117.65 18.26L118.42 13.42Q118.70 11.54 119.63 10.68Q120.55 9.82 121.97 9.82L121.97 9.82Q122.76 9.82 123.52 10.07Q124.27 10.32 124.92 10.75L124.92 10.75L124.78 11.76Q123.38 10.85 122.04 10.85L122.04 10.85Q121.01 10.85 120.35 11.47Q119.69 12.10 119.45 13.56L119.45 13.56L118.73 18.26Q118.51 19.58 118.84 20.18Q119.16 20.78 120.05 20.78L120.05 20.78Q120.84 20.78 121.72 20.22Q122.59 19.66 123.62 18.55L123.62 18.55L123.53 19.56Q122.45 20.69 121.54 21.24Q120.62 21.79 119.66 21.79ZM124.01 21.60L123.26 21.60Q123.14 21.60 123.14 21.46L123.14 21.46Q123.17 20.93 123.24 20.30Q123.31 19.68 123.38 19.25L123.38 19.25L123.38 18.96L125.54 5.38Q125.57 5.21 125.71 5.21L125.71 5.21L126.46 5.21Q126.62 5.21 126.60 5.38L126.60 5.38L124.44 18.86Q124.32 19.68 124.25 20.34Q124.18 21 124.15 21.43L124.15 21.43Q124.15 21.60 124.01 21.60L124.01 21.60ZM130.37 21.79L130.37 21.79Q128.66 21.79 127.88 20.75Q127.10 19.70 127.39 17.78L127.39 17.78L128.06 13.63Q128.35 11.69 129.32 10.75Q130.30 9.82 131.98 9.82L131.98 9.82Q133.39 9.82 134.16 10.46Q134.93 11.11 134.93 12.38L134.93 12.38Q134.93 13.92 134.04 14.82Q133.15 15.72 131.30 15.96L131.30 15.96L128.71 16.30L128.45 17.83Q128.23 19.30 128.75 20.04Q129.26 20.78 130.46 20.78L130.46 20.78Q131.57 20.78 132.17 20.27Q132.77 19.75 132.89 18.70L132.89 18.70Q132.91 18.53 133.06 18.53L133.06 18.53L133.80 18.53Q133.94 18.53 133.92 18.70L133.92 18.70Q133.78 20.23 132.88 21.01Q131.98 21.79 130.37 21.79ZM129.12 13.66L128.86 15.31L131.14 15.02Q132.55 14.81 133.20 14.21Q133.85 13.61 133.85 12.48L133.85 12.48Q133.85 11.66 133.33 11.26Q132.82 10.85 131.88 10.85L131.88 10.85Q130.70 10.85 130.03 11.53Q129.36 12.22 129.12 13.66L129.12 13.66ZM143.11 21.60L142.39 21.60Q142.22 21.60 142.25 21.43L142.25 21.43L143.52 13.32Q143.71 12.05 143.39 11.45Q143.06 10.85 142.18 10.85L142.18 10.85Q141.36 10.85 140.46 11.42Q139.56 12.00 138.50 13.03L138.50 13.03L138.62 12.00Q139.58 11.04 140.57 10.43Q141.55 9.82 142.56 9.82L142.56 9.82Q143.81 9.82 144.34 10.64Q144.86 11.47 144.58 13.27L144.58 13.27L143.30 21.43Q143.28 21.60 143.11 21.60L143.11 21.60ZM137.16 21.60L136.44 21.60Q136.27 21.60 136.30 21.43L136.30 21.43L137.69 12.79Q137.81 12.05 137.88 11.35Q137.95 10.66 138 10.18L138 10.18Q138 10.01 138.14 10.01L138.14 10.01L138.84 10.01Q138.98 10.01 138.98 10.15L138.98 10.15Q138.96 10.68 138.89 11.33Q138.82 11.98 138.74 12.43L138.74 12.43L138.77 12.62L137.35 21.43Q137.33 21.60 137.16 21.60L137.16 21.60ZM149.09 21.79L149.09 21.79Q147.38 21.79 146.72 20.89Q146.06 19.99 146.40 18.36L146.40 18.36Q146.40 18.17 146.57 18.17L146.57 18.17L147.29 18.17Q147.43 18.17 147.41 18.36L147.41 18.36Q147.19 19.61 147.61 20.20Q148.03 20.78 149.18 20.78L149.18 20.78Q150.31 20.78 150.89 20.24Q151.46 19.70 151.46 18.67L151.46 18.67Q151.46 18.02 151.21 17.54Q150.96 17.06 150.34 16.56L150.34 16.56L148.73 15.31Q148.03 14.74 147.68 14.14Q147.34 13.54 147.34 12.72L147.34 12.72Q147.34 11.35 148.18 10.58Q149.02 9.82 150.50 9.82L150.50 9.82Q151.99 9.82 152.71 10.58Q153.43 11.35 153.19 12.77L153.19 12.77Q153.17 12.94 153.05 12.94L153.05 12.94L152.28 12.94Q152.14 12.94 152.16 12.77L152.16 12.77Q152.42 10.82 150.43 10.82L150.43 10.82Q148.42 10.82 148.42 12.65L148.42 12.65Q148.42 13.22 148.66 13.63Q148.90 14.04 149.50 14.57L149.50 14.57L151.08 15.82Q151.87 16.44 152.21 17.06Q152.54 17.69 152.54 18.55L152.54 18.55Q152.54 20.06 151.67 20.93Q150.79 21.79 149.09 21.79ZM157.78 21.79L157.78 21.79Q156.07 21.79 155.29 20.75Q154.51 19.70 154.80 17.78L154.80 17.78L155.47 13.63Q155.76 11.69 156.73 10.75Q157.70 9.82 159.38 9.82L159.38 9.82Q160.80 9.82 161.57 10.46Q162.34 11.11 162.34 12.38L162.34 12.38Q162.34 13.92 161.45 14.82Q160.56 15.72 158.71 15.96L158.71 15.96L156.12 16.30L155.86 17.83Q155.64 19.30 156.16 20.04Q156.67 20.78 157.87 20.78L157.87 20.78Q158.98 20.78 159.58 20.27Q160.18 19.75 160.30 18.70L160.30 18.70Q160.32 18.53 160.46 18.53L160.46 18.53L161.21 18.53Q161.35 18.53 161.33 18.70L161.33 18.70Q161.18 20.23 160.28 21.01Q159.38 21.79 157.78 21.79ZM156.53 13.66L156.26 15.31L158.54 15.02Q159.96 14.81 160.61 14.21Q161.26 13.61 161.26 12.48L161.26 12.48Q161.26 11.66 160.74 11.26Q160.22 10.85 159.29 10.85L159.29 10.85Q158.11 10.85 157.44 11.53Q156.77 12.22 156.53 13.66L156.53 13.66ZM165.98 21.79L165.98 21.79Q164.74 21.79 164.22 20.93Q163.70 20.06 163.97 18.26L163.97 18.26L164.74 13.42Q165.02 11.54 165.95 10.68Q166.87 9.82 168.29 9.82L168.29 9.82Q169.08 9.82 169.84 10.07Q170.59 10.32 171.24 10.75L171.24 10.75L171.10 11.76Q169.70 10.85 168.36 10.85L168.36 10.85Q167.33 10.85 166.67 11.47Q166.01 12.10 165.77 13.56L165.77 13.56L165.05 18.26Q164.83 19.58 165.16 20.18Q165.48 20.78 166.37 20.78L166.37 20.78Q167.16 20.78 168.04 20.22Q168.91 19.66 169.94 18.55L169.94 18.55L169.85 19.56Q168.77 20.69 167.86 21.24Q166.94 21.79 165.98 21.79ZM170.33 21.60L169.58 21.60Q169.46 21.60 169.46 21.46L169.46 21.46Q169.49 20.93 169.56 20.30Q169.63 19.68 169.70 19.25L169.70 19.25L169.70 18.96L171.86 5.38Q171.89 5.21 172.03 5.21L172.03 5.21L172.78 5.21Q172.94 5.21 172.92 5.38L172.92 5.38L170.76 18.86Q170.64 19.68 170.57 20.34Q170.50 21 170.47 21.43L170.47 21.43Q170.47 21.60 170.33 21.60L170.33 21.60ZM180.89 21.79L180.89 21.79Q179.06 21.79 178.30 20.75Q177.53 19.70 177.84 17.69L177.84 17.69Q177.86 17.54 177.98 17.54L177.98 17.54L178.73 17.54Q178.90 17.54 178.85 17.69L178.85 17.69Q178.61 19.27 179.11 20.03Q179.62 20.78 180.96 20.78L180.96 20.78Q182.30 20.78 183.14 19.98Q183.98 19.18 184.20 17.62L184.20 17.62L184.30 17.14Q184.54 15.55 183.94 14.80Q183.34 14.04 181.94 14.04L181.94 14.04L180.72 14.04Q180.55 14.04 180.58 13.87L180.58 13.87L180.67 13.20Q180.72 13.03 180.86 13.03L180.86 13.03L182.14 13.03Q182.93 13.03 183.58 12.62Q184.22 12.22 184.64 11.48Q185.06 10.75 185.18 9.79L185.18 9.79L185.26 9.34Q185.59 6.70 183.22 6.70L183.22 6.70Q181.90 6.70 181.16 7.45Q180.43 8.21 180.22 9.74L180.22 9.74Q180.19 9.89 180.05 9.89L180.05 9.89L179.33 9.89Q179.16 9.89 179.18 9.74L179.18 9.74Q179.45 7.78 180.49 6.73Q181.54 5.69 183.34 5.69L183.34 5.69Q184.85 5.69 185.62 6.41Q186.38 7.13 186.38 8.57L186.38 8.57Q186.38 10.30 185.62 11.64Q184.85 12.98 183.60 13.44L183.60 13.44L183.60 13.49Q185.42 14.04 185.42 16.27L185.42 16.27Q185.42 18.84 184.20 20.32Q182.98 21.79 180.89 21.79ZM191.11 21.79L191.11 21.79Q189.26 21.79 188.41 20.58Q187.56 19.37 187.94 17.04L187.94 17.04L188.98 10.30Q189.36 7.97 190.50 6.83Q191.64 5.69 193.51 5.69L193.51 5.69Q195.34 5.69 196.19 6.89Q197.04 8.09 196.68 10.39L196.68 10.39L195.62 17.18Q195.26 19.49 194.11 20.64Q192.96 21.79 191.11 21.79ZM191.21 20.78L191.21 20.78Q192.55 20.78 193.40 19.87Q194.26 18.96 194.54 17.16L194.54 17.16L195.60 10.39Q195.91 8.52 195.32 7.61Q194.74 6.70 193.39 6.70L193.39 6.70Q192.02 6.70 191.18 7.60Q190.34 8.50 190.06 10.32L190.06 10.32L189 17.06Q188.71 18.94 189.28 19.86Q189.84 20.78 191.21 20.78ZM201.53 21.79L201.53 21.79Q199.68 21.79 198.83 20.58Q197.98 19.37 198.36 17.04L198.36 17.04L199.39 10.30Q199.78 7.97 200.92 6.83Q202.06 5.69 203.93 5.69L203.93 5.69Q205.75 5.69 206.60 6.89Q207.46 8.09 207.10 10.39L207.10 10.39L206.04 17.18Q205.68 19.49 204.53 20.64Q203.38 21.79 201.53 21.79ZM201.62 20.78L201.62 20.78Q202.97 20.78 203.82 19.87Q204.67 18.96 204.96 17.16L204.96 17.16L206.02 10.39Q206.33 8.52 205.74 7.61Q205.15 6.70 203.81 6.70L203.81 6.70Q202.44 6.70 201.60 7.60Q200.76 8.50 200.47 10.32L200.47 10.32L199.42 17.06Q199.13 18.94 199.69 19.86Q200.26 20.78 201.62 20.78ZM213.26 21.60L212.54 21.60Q212.38 21.60 212.40 21.43L212.40 21.43L214.18 10.18Q214.22 10.01 214.37 10.01L214.37 10.01L215.09 10.01Q215.28 10.01 215.26 10.18L215.26 10.18L213.46 21.43Q213.43 21.60 213.26 21.60L213.26 21.60ZM215.14 7.68L215.14 7.68Q214.78 7.68 214.58 7.46Q214.39 7.25 214.44 6.91L214.44 6.91L214.49 6.70Q214.58 5.93 215.33 5.93L215.33 5.93Q215.71 5.93 215.89 6.13Q216.07 6.34 216.02 6.70L216.02 6.70L215.98 6.91Q215.88 7.68 215.14 7.68ZM219.50 21.79L219.50 21.79Q218.21 21.79 217.75 21.01Q217.30 20.23 217.56 18.50L217.56 18.50L218.74 11.02L217.37 11.02Q217.20 11.02 217.22 10.85L217.22 10.85L217.34 10.15Q217.39 10.01 217.54 10.01L217.54 10.01L218.95 10.01L219.55 6.96Q219.60 6.79 219.72 6.79L219.72 6.79L220.32 6.79Q220.49 6.79 220.46 6.96L220.46 6.96L219.98 10.01L222.91 10.01Q223.10 10.01 223.06 10.18L223.06 10.18L222.94 10.85Q222.91 11.02 222.74 11.02L222.74 11.02L219.82 11.02L218.62 18.50Q218.42 19.80 218.70 20.29Q218.98 20.78 219.79 20.78L219.79 20.78Q220.22 20.78 220.61 20.70Q220.99 20.62 221.33 20.47L221.33 20.47Q221.50 20.42 221.47 20.59L221.47 20.59L221.35 21.29Q221.35 21.43 221.21 21.50L221.21 21.50Q220.85 21.65 220.40 21.72Q219.96 21.79 219.50 21.79ZM225.74 21.79L225.74 21.79Q224.47 21.79 223.96 20.90Q223.44 20.02 223.73 18.22L223.73 18.22L224.45 13.66Q224.76 11.62 225.73 10.72Q226.70 9.82 228.38 9.82L228.38 9.82Q229.32 9.82 230.12 10.02Q230.93 10.22 231.86 10.37L231.86 10.37L230.54 18.82Q230.38 19.70 230.30 20.32Q230.23 20.93 230.21 21.46L230.21 21.46Q230.21 21.60 230.04 21.60L230.04 21.60L229.37 21.60Q229.22 21.60 229.22 21.46L229.22 21.46Q229.25 21.07 229.28 20.64Q229.32 20.21 229.37 19.82L229.37 19.82Q228.50 20.71 227.60 21.25Q226.70 21.79 225.74 21.79ZM226.13 20.78L226.13 20.78Q226.90 20.78 227.71 20.26Q228.53 19.73 229.49 18.77L229.49 18.77L230.66 11.18Q230.11 11.04 229.50 10.94Q228.89 10.85 228.36 10.85L228.36 10.85Q227.16 10.85 226.44 11.51Q225.72 12.17 225.48 13.75L225.48 13.75L224.76 18.19Q224.57 19.51 224.87 20.15Q225.17 20.78 226.13 20.78ZM234.02 21.60L233.30 21.60Q233.14 21.60 233.16 21.43L233.16 21.43L235.70 5.38Q235.75 5.21 235.90 5.21L235.90 5.21L236.62 5.21Q236.81 5.21 236.76 5.38L236.76 5.38L234.22 21.43Q234.19 21.60 234.02 21.60L234.02 21.60ZM238.44 21.60L237.72 21.60Q237.55 21.60 237.58 21.43L237.58 21.43L239.35 10.18Q239.40 10.01 239.54 10.01L239.54 10.01L240.26 10.01Q240.46 10.01 240.43 10.18L240.43 10.18L238.63 21.43Q238.61 21.60 238.44 21.60L238.44 21.60ZM240.31 7.68L240.31 7.68Q239.95 7.68 239.76 7.46Q239.57 7.25 239.62 6.91L239.62 6.91L239.66 6.70Q239.76 5.93 240.50 5.93L240.50 5.93Q240.89 5.93 241.07 6.13Q241.25 6.34 241.20 6.70L241.20 6.70L241.15 6.91Q241.06 7.68 240.31 7.68ZM244.94 21.79L244.94 21.79Q243.19 21.79 242.44 20.74Q241.68 19.68 241.97 17.76L241.97 17.76L242.62 13.63Q242.93 11.69 243.89 10.75Q244.85 9.82 246.55 9.82L246.55 9.82Q248.18 9.82 248.99 10.75Q249.79 11.69 249.46 13.27L249.46 13.27Q249.41 13.44 249.29 13.44L249.29 13.44L248.57 13.44Q248.40 13.44 248.42 13.27L248.42 13.27Q248.64 12.12 248.10 11.48Q247.56 10.85 246.46 10.85L246.46 10.85Q245.26 10.85 244.60 11.54Q243.94 12.24 243.67 13.75L243.67 13.75L243.05 17.71Q242.81 19.22 243.31 20.00Q243.82 20.78 245.04 20.78L245.04 20.78Q246.22 20.78 246.83 20.16Q247.44 19.54 247.63 18.24L247.63 18.24Q247.63 18.07 247.78 18.07L247.78 18.07L248.52 18.07Q248.66 18.07 248.66 18.26L248.66 18.26Q248.45 20.04 247.54 20.92Q246.62 21.79 244.94 21.79Z"/></svg>