<svg xmlns="http://www.w3.org/2000/svg" xmlns:xlink="http://www.w3.org/1999/xlink" width="223.63200000000003" height="40.32"><path fill="black" d="M2.94 23.52L0.50 23.52L5.21 8.18L8.94 8.18L13.64 23.52L11.21 23.52L7.22 9.79L6.92 9.79L2.94 23.52ZM10.55 19.24L3.58 19.24L3.58 17.24L10.55 17.24L10.55 19.24ZM25.76 23.52L23.41 23.52L23.41 16.27Q23.41 15.42 23.18 14.80Q22.94 14.17 22.41 13.82Q21.88 13.48 20.95 13.48L20.95 13.48Q20.10 13.48 19.48 13.79Q18.85 14.10 18.46 14.63Q18.07 15.16 17.90 15.83L17.90 15.83L17.52 14.20L18.02 14.20Q18.23 13.45 18.70 12.85Q19.16 12.24 19.94 11.88Q20.72 11.52 21.88 11.52L21.88 11.52Q23.26 11.52 24.11 12.04Q24.96 12.56 25.36 13.56Q25.76 14.56 25.76 16.01L25.76 16.01L25.76 23.52ZM17.99 23.52L15.64 23.52L15.64 11.78L17.99 11.78L17.89 14.53L17.99 14.68L17.99 23.52ZM33.74 23.80L33.74 23.80Q30.94 23.80 29.54 22.46Q28.14 21.12 28.14 18.60L28.14 18.60L28.14 16.68Q28.14 14.20 29.44 12.83Q30.74 11.47 33.24 11.47L33.24 11.47Q34.93 11.47 36.06 12.09Q37.19 12.71 37.75 13.84Q38.32 14.96 38.32 16.51L38.32 16.51L38.32 16.96Q38.32 17.36 38.28 17.78Q38.24 18.20 38.18 18.59L38.18 18.59L36.02 18.59Q36.05 17.96 36.05 17.41Q36.06 16.86 36.06 16.40L36.06 16.40Q36.06 15.43 35.75 14.76Q35.44 14.09 34.81 13.73Q34.19 13.38 33.24 13.38L33.24 13.38Q31.84 13.38 31.15 14.18Q30.47 14.98 30.47 16.45L30.47 16.45L30.47 17.56L30.48 17.83L30.48 18.88Q30.48 19.54 30.68 20.08Q30.88 20.62 31.31 21.01Q31.75 21.40 32.45 21.61Q33.14 21.82 34.14 21.82L34.14 21.82Q35.27 21.82 36.26 21.53Q37.25 21.24 38.12 20.76L38.12 20.76L37.91 22.76Q37.12 23.23 36.07 23.51Q35.02 23.80 33.74 23.80ZM37.70 18.59L29.39 18.59L29.39 16.82L37.70 16.82L37.70 18.59ZM51.13 23.52L48.35 23.52L44.04 18.23L42.88 18.23L42.88 16.40L44.05 16.40L48.18 11.78L50.93 11.78L45.79 17.48L45.79 16.97L51.13 23.52ZM43.08 23.52L40.74 23.52L40.74 7.63L43.08 7.63L43.08 23.52ZM63.67 23.83L63.67 23.83Q60.67 23.83 59.12 22.20Q57.56 20.57 57.56 17.53L57.56 17.53L57.56 14.16Q57.56 11.14 59.12 9.50Q60.67 7.87 63.67 7.87L63.67 7.87Q66.67 7.87 68.23 9.50Q69.78 11.14 69.78 14.16L69.78 14.16L69.78 17.53Q69.78 20.57 68.23 22.20Q66.67 23.83 63.67 23.83ZM63.67 21.83L63.67 21.83Q65.50 21.83 66.41 20.73Q67.33 19.63 67.33 17.63L67.33 17.63L67.33 14.06Q67.33 12.05 66.41 10.96Q65.50 9.88 63.67 9.88L63.67 9.88Q61.85 9.88 60.93 10.96Q60.01 12.05 60.01 14.06L60.01 14.06L60.01 17.63Q60.01 19.63 60.93 20.73Q61.85 21.83 63.67 21.83ZM76.30 23.78L76.30 23.78Q74.20 23.78 73.10 22.46Q72 21.14 72 18.61L72 18.61L72 16.75Q72 14.20 73.11 12.86Q74.22 11.52 76.39 11.52L76.39 11.52Q77.44 11.52 78.19 11.85Q78.94 12.18 79.41 12.78Q79.88 13.38 80.09 14.20L80.09 14.20L80.87 14.20L80.21 16.37Q80.17 15.41 79.79 14.75Q79.40 14.10 78.73 13.76Q78.06 13.43 77.16 13.43L77.16 13.43Q75.80 13.43 75.08 14.21Q74.36 14.99 74.36 16.52L74.36 16.52L74.36 18.77Q74.36 20.27 75.08 21.05Q75.79 21.83 77.16 21.83L77.16 21.83Q77.99 21.83 78.62 21.52Q79.25 21.20 79.67 20.66Q80.09 20.12 80.24 19.45L80.24 19.45L80.80 21.11L80.11 21.11Q79.92 21.84 79.47 22.45Q79.02 23.06 78.25 23.42Q77.48 23.78 76.30 23.78ZM82.50 23.52L80.15 23.52L80.24 20.77L80.21 20.03L80.21 15.16L80.22 14.70L80.16 11.38L80.16 7.63L82.50 7.63L82.50 23.52ZM87.86 23.52L85.51 23.52L85.51 11.78L87.86 11.78L87.86 23.52ZM86.69 10.06L86.69 10.06Q85.99 10.06 85.65 9.70Q85.31 9.35 85.31 8.72L85.31 8.72L85.31 8.68Q85.31 8.05 85.65 7.70Q85.99 7.34 86.69 7.34L86.69 7.34Q87.38 7.34 87.73 7.70Q88.07 8.05 88.07 8.68L88.07 8.68L88.07 8.72Q88.07 9.36 87.73 9.71Q87.38 10.06 86.69 10.06ZM100.12 23.52L97.78 23.52L97.87 20.74L97.79 20.38L97.79 16.68L97.80 16.09Q97.80 14.74 97.11 14.10Q96.42 13.46 94.90 13.46L94.90 13.46Q93.66 13.46 92.60 13.81Q91.55 14.16 90.70 14.62L90.70 14.62L90.91 12.65Q91.39 12.37 92.04 12.11Q92.69 11.84 93.50 11.68Q94.32 11.51 95.29 11.51L95.29 11.51Q96.62 11.51 97.55 11.83Q98.47 12.14 99.04 12.74Q99.60 13.34 99.86 14.18Q100.12 15.02 100.12 16.06L100.12 16.06L100.12 23.52ZM93.80 23.78L93.80 23.78Q92.06 23.78 91.14 22.93Q90.22 22.07 90.22 20.48L90.22 20.48L90.22 20.12Q90.22 18.44 91.25 17.63Q92.29 16.82 94.52 16.51L94.52 16.51L98.05 16.01L98.18 17.71L94.80 18.19Q93.59 18.36 93.07 18.77Q92.56 19.19 92.56 19.99L92.56 19.99L92.56 20.16Q92.56 20.96 93.05 21.40Q93.55 21.83 94.57 21.83L94.57 21.83Q95.51 21.83 96.18 21.52Q96.85 21.20 97.27 20.68Q97.69 20.16 97.85 19.52L97.85 19.52L98.17 21.10L97.74 21.10Q97.55 21.82 97.10 22.43Q96.66 23.04 95.86 23.41Q95.06 23.78 93.80 23.78ZM116.86 23.52L114.56 23.52L114.56 13.34L114.65 9.85L114.34 9.85L109.44 18.47L109.44 19.52L108.52 18.65L118.81 18.65L118.81 20.66L107.05 20.66L107.05 18.31L112.90 8.18L116.86 8.18L116.86 23.52ZM126.08 23.83L126.08 23.83Q123.26 23.83 121.82 22.27Q120.38 20.70 120.38 17.74L120.38 17.74L120.38 13.97Q120.38 11.00 121.82 9.44Q123.25 7.87 126.08 7.87L126.08 7.87Q128.92 7.87 130.36 9.44Q131.80 11.00 131.80 13.97L131.80 13.97L131.80 17.74Q131.80 20.70 130.36 22.27Q128.92 23.83 126.08 23.83ZM126.08 21.83L126.08 21.83Q127.75 21.83 128.55 20.80Q129.35 19.78 129.35 17.84L129.35 17.84L129.35 13.87Q129.35 11.93 128.55 10.90Q127.75 9.88 126.08 9.88L126.08 9.88Q124.42 9.88 123.62 10.90Q122.83 11.93 122.83 13.87L122.83 13.87L122.83 17.84Q122.83 19.78 123.63 20.80Q124.43 21.83 126.08 21.83ZM139.90 23.83L139.90 23.83Q137.08 23.83 135.64 22.27Q134.20 20.70 134.20 17.74L134.20 17.74L134.20 13.97Q134.20 11.00 135.63 9.44Q137.06 7.87 139.90 7.87L139.90 7.87Q142.73 7.87 144.17 9.44Q145.61 11.00 145.61 13.97L145.61 13.97L145.61 17.74Q145.61 20.70 144.17 22.27Q142.73 23.83 139.90 23.83ZM139.90 21.83L139.90 21.83Q141.56 21.83 142.36 20.80Q143.16 19.78 143.16 17.84L143.16 17.84L143.16 13.87Q143.16 11.93 142.36 10.90Q141.56 9.88 139.90 9.88L139.90 9.88Q138.23 9.88 137.44 10.90Q136.64 11.93 136.64 13.87L136.64 13.87L136.64 17.84Q136.64 19.78 137.44 20.80Q138.24 21.83 139.90 21.83ZM163.42 23.52L161.06 23.52L161.06 16.27Q161.06 15.42 160.83 14.80Q160.60 14.17 160.06 13.82Q159.53 13.48 158.60 13.48L158.60 13.48Q157.75 13.48 157.13 13.79Q156.50 14.10 156.11 14.63Q155.72 15.16 155.56 15.83L155.56 15.83L155.17 14.20L155.68 14.20Q155.88 13.45 156.35 12.85Q156.82 12.24 157.60 11.88Q158.38 11.52 159.53 11.52L159.53 11.52Q160.91 11.52 161.76 12.04Q162.61 12.56 163.01 13.56Q163.42 14.56 163.42 16.01L163.42 16.01L163.42 23.52ZM155.64 23.52L153.29 23.52L153.29 11.78L155.64 11.78L155.54 14.53L155.64 14.68L155.64 23.52ZM171.07 23.82L171.07 23.82Q168.48 23.82 167.14 22.44Q165.79 21.06 165.79 18.47L165.79 18.47L165.79 16.80Q165.79 14.22 167.14 12.85Q168.48 11.47 171.07 11.47L171.07 11.47Q173.66 11.47 175.00 12.85Q176.34 14.22 176.34 16.80L176.34 16.80L176.34 18.47Q176.34 21.06 175.00 22.44Q173.66 23.82 171.07 23.82ZM171.07 21.91L171.07 21.91Q172.50 21.91 173.24 21.06Q173.99 20.21 173.99 18.61L173.99 18.61L173.99 16.66Q173.99 15.07 173.24 14.23Q172.50 13.38 171.07 13.38L171.07 13.38Q169.64 13.38 168.90 14.23Q168.16 15.07 168.16 16.66L168.16 16.66L168.16 18.61Q168.16 20.21 168.90 21.06Q169.64 21.91 171.07 21.91ZM181.12 16.43L181.12 16.43L180.61 14.59L181.19 14.59Q181.56 13.20 182.44 12.40Q183.31 11.60 184.82 11.60L184.82 11.60Q185.18 11.60 185.47 11.66Q185.75 11.71 185.98 11.78L185.98 11.78L186.12 14.08Q185.83 13.98 185.47 13.93Q185.11 13.87 184.69 13.87L184.69 13.87Q183.41 13.87 182.47 14.53Q181.54 15.19 181.12 16.43ZM181.21 23.52L178.86 23.52L178.86 11.78L181.15 11.78L181.04 15.20L181.21 15.37L181.21 23.52ZM204.84 23.52L202.49 23.52L202.49 16.21Q202.49 15.38 202.28 14.77Q202.07 14.15 201.58 13.81Q201.10 13.48 200.27 13.48L200.27 13.48Q199.48 13.48 198.90 13.79Q198.32 14.10 197.97 14.63Q197.62 15.16 197.46 15.83L197.46 15.83L197.15 14.20L197.42 14.20Q197.64 13.49 198.08 12.88Q198.53 12.26 199.28 11.89Q200.04 11.52 201.19 11.52L201.19 11.52Q202.49 11.52 203.29 12.03Q204.10 12.54 204.47 13.53Q204.84 14.52 204.84 15.95L204.84 15.95L204.84 23.52ZM190.26 23.52L187.91 23.52L187.91 11.78L190.26 11.78L190.16 14.53L190.26 14.68L190.26 23.52ZM197.54 23.52L195.20 23.52L195.20 16.21Q195.20 15.38 194.99 14.77Q194.78 14.15 194.30 13.81Q193.81 13.48 192.98 13.48L192.98 13.48Q192.19 13.48 191.62 13.79Q191.04 14.10 190.69 14.63Q190.33 15.16 190.18 15.83L190.18 15.83L189.79 14.20L190.30 14.20Q190.49 13.45 190.93 12.85Q191.36 12.24 192.10 11.88Q192.83 11.52 193.90 11.52L193.90 11.52Q195.53 11.52 196.37 12.36Q197.21 13.20 197.42 14.81L197.42 14.81Q197.48 15.04 197.51 15.32Q197.54 15.61 197.54 15.89L197.54 15.89L197.54 23.52ZM216.91 23.52L214.57 23.52L214.67 20.74L214.58 20.38L214.58 16.68L214.60 16.09Q214.60 14.74 213.91 14.10Q213.22 13.46 211.69 13.46L211.69 13.46Q210.46 13.46 209.40 13.81Q208.34 14.16 207.49 14.62L207.49 14.62L207.71 12.65Q208.19 12.37 208.84 12.11Q209.48 11.84 210.30 11.68Q211.12 11.51 212.09 11.51L212.09 11.51Q213.42 11.51 214.34 11.83Q215.27 12.14 215.83 12.74Q216.40 13.34 216.65 14.18Q216.91 15.02 216.91 16.06L216.91 16.06L216.91 23.52ZM210.60 23.78L210.60 23.78Q208.86 23.78 207.94 22.93Q207.01 22.07 207.01 20.48L207.01 20.48L207.01 20.12Q207.01 18.44 208.05 17.63Q209.09 16.82 211.32 16.51L211.32 16.51L214.85 16.01L214.98 17.71L211.60 18.19Q210.38 18.36 209.87 18.77Q209.35 19.19 209.35 19.99L209.35 19.99L209.35 20.16Q209.35 20.96 209.85 21.40Q210.35 21.83 211.37 21.83L211.37 21.83Q212.30 21.83 212.98 21.52Q213.65 21.20 214.07 20.68Q214.49 20.16 214.64 19.52L214.64 19.52L214.97 21.10L214.54 21.10Q214.34 21.82 213.90 22.43Q213.46 23.04 212.66 23.41Q211.86 23.78 210.60 23.78ZM222.10 23.52L219.74 23.52L219.74 7.63L222.10 7.63L222.10 23.52Z"/></svg>