<svg xmlns="http://www.w3.org/2000/svg" xmlns:xlink="http://www.w3.org/1999/xlink" width="252.21600000000004" height="33.72"><path fill="black" d="M20.47 22.75L20.47 22.75Q20.40 22.78 20.29 22.78Q20.18 22.78 20.06 22.78L20.06 22.78Q19.70 22.78 19.37 22.70L19.37 22.70Q19.20 22.66 19.03 22.54Q18.86 22.42 18.86 22.22L18.86 22.22Q18.86 22.06 19.01 21.89L19.01 21.89L20.30 20.28Q21.07 19.34 21.77 18.11Q22.46 16.87 23.02 15.54Q23.57 14.21 23.88 12.97Q24.19 11.74 24.19 10.78L24.19 10.78Q24.19 10.03 24 9.62L24 9.62Q23.57 8.57 22.26 8.11Q20.95 7.66 19.10 7.66L19.10 7.66Q18.89 7.66 18.68 7.66Q18.48 7.66 18.26 7.68L18.26 7.68Q16.82 7.73 15.01 8.04Q13.20 8.35 11.29 8.89Q9.38 9.43 7.60 10.16Q5.81 10.90 4.37 11.80Q2.93 12.70 2.09 13.72Q1.25 14.74 1.25 15.86L1.25 15.86Q1.25 16.54 2.03 16.98Q2.81 17.42 4.02 17.63Q5.23 17.83 6.50 17.83L6.50 17.83Q6.70 17.83 6.88 17.82Q7.06 17.81 7.22 17.81L7.22 17.81Q7.42 17.81 7.57 17.83Q7.73 17.86 7.82 17.93L7.82 17.93Q7.99 18.05 7.82 18.22L7.82 18.22Q7.78 18.26 7.51 18.36L7.51 18.36Q7.25 18.41 6.85 18.44Q6.46 18.48 6.05 18.50L6.05 18.50Q5.66 18.53 5.32 18.53Q4.97 18.53 4.82 18.53L4.82 18.53Q3.79 18.53 2.75 18.23Q1.70 17.93 1.00 17.33Q0.29 16.73 0.29 15.89L0.29 15.89Q0.29 14.45 1.06 13.26Q1.82 12.07 3.16 11.11Q4.49 10.15 6.17 9.42Q7.85 8.69 9.71 8.18Q11.57 7.68 13.39 7.39Q15.22 7.10 16.80 7.06L16.80 7.06Q17.14 7.03 17.44 7.03Q17.74 7.03 18.05 7.03L18.05 7.03Q19.51 7.03 20.82 7.22Q22.13 7.42 23.14 7.88Q24.14 8.35 24.73 9.18Q25.32 10.01 25.32 11.28L25.32 11.28Q25.32 12.12 25.03 13.18Q24.74 14.23 24.28 15.36Q23.81 16.49 23.26 17.53Q22.70 18.58 22.18 19.42L22.18 19.42Q23.45 18.07 25.20 16.38Q26.95 14.69 28.85 13.08L28.85 13.08Q29.23 12.34 29.40 12.04Q29.57 11.74 29.66 11.57L29.66 11.57Q29.78 11.38 29.89 11.21Q30 11.04 30.10 10.92L30.10 10.92Q30.31 10.66 30.56 10.51Q30.82 10.37 31.18 10.37L31.18 10.37Q31.37 10.37 31.72 10.51Q32.06 10.66 32.33 10.86Q32.59 11.06 32.47 11.26L32.47 11.26Q32.35 11.50 32.03 11.84Q31.70 12.19 31.38 12.47Q31.06 12.74 30.89 12.77L30.89 12.77Q30.62 12.82 30.26 13.39Q29.90 13.97 29.58 14.86Q29.26 15.74 29.04 16.79Q28.82 17.83 28.82 18.82L28.82 18.82Q28.82 19.99 29.24 20.76Q29.66 21.53 30.62 21.53L30.62 21.53Q31.78 21.53 32.86 20.98Q33.94 20.42 34.88 19.51Q35.83 18.60 36.60 17.52Q37.37 16.44 37.90 15.41L37.90 15.41Q38.26 14.69 38.54 13.60Q38.83 12.50 38.83 11.45L38.83 11.45Q38.83 10.25 38.38 9.40Q37.92 8.54 36.72 8.54L36.72 8.54Q36.29 8.54 35.66 8.74L35.66 8.74Q35.52 8.74 35.39 8.65Q35.26 8.57 35.26 8.47L35.26 8.47Q35.26 8.35 35.52 8.26L35.52 8.26Q36.29 7.97 36.98 7.97L36.98 7.97Q38.21 7.97 38.93 8.47Q39.65 8.98 39.96 9.78Q40.27 10.58 40.27 11.52L40.27 11.52Q40.27 12.77 39.84 14.06Q39.41 15.36 38.81 16.27L38.81 16.27Q38.14 17.30 37.20 18.34Q36.26 19.37 35.17 20.23Q34.08 21.10 32.87 21.61Q31.66 22.13 30.41 22.13L30.41 22.13Q29.30 22.13 28.70 21.53Q28.10 20.93 27.86 19.99Q27.62 19.06 27.62 18.07L27.62 18.07Q27.62 17.30 27.78 16.24Q27.94 15.17 28.25 14.42L28.25 14.42Q27 15.55 25.84 16.73Q24.67 17.90 23.76 18.94L23.76 18.94Q23.50 19.25 23.21 19.56Q22.92 19.87 22.68 20.16L22.68 20.16Q22.18 20.74 22.18 21.02L22.18 21.02Q22.01 21.26 21.65 21.66Q21.29 22.06 20.95 22.38Q20.62 22.70 20.47 22.75ZM45.24 14.28L45.24 14.28Q44.95 14.28 44.83 14.12Q44.71 13.97 44.71 13.73L44.71 13.73Q44.71 13.46 44.81 13.27L44.81 13.27Q44.88 13.08 45.31 12.94Q45.74 12.79 46.24 12.72Q46.73 12.65 46.99 12.65L46.99 12.65Q47.26 12.65 47.26 12.77L47.26 12.77Q47.26 12.82 47.22 12.86Q47.18 12.91 47.16 12.94L47.16 12.94Q47.11 12.96 47.03 13.01Q46.94 13.06 46.82 13.10L46.82 13.10Q46.66 13.18 46.45 13.28Q46.25 13.39 46.18 13.54L46.18 13.54Q46.06 13.85 45.79 14.06Q45.53 14.28 45.24 14.28ZM42.05 21.55L42.05 21.55Q41.38 21.55 40.84 21.29Q40.30 21.02 40.30 20.28L40.30 20.28Q40.30 19.56 40.66 18.89Q41.02 18.22 41.51 17.68Q42 17.14 42.34 16.82L42.34 16.82Q42.31 16.80 42.31 16.70L42.31 16.70Q42.31 16.51 42.48 16.32L42.48 16.32Q42.60 16.15 42.83 15.97Q43.06 15.79 43.34 15.70L43.34 15.70Q43.49 15.65 43.63 15.65L43.63 15.65Q43.92 15.65 44.24 15.78Q44.57 15.91 44.57 16.20L44.57 16.20Q44.57 16.37 44.45 16.51Q44.33 16.66 44.23 16.70L44.23 16.70Q43.85 16.99 43.19 17.59Q42.53 18.19 42.07 18.74L42.07 18.74Q41.23 19.82 41.23 20.38L41.23 20.38Q41.23 20.62 41.44 20.77Q41.64 20.93 42.17 20.93L42.17 20.93Q43.01 20.93 43.84 20.65Q44.66 20.38 45.36 20.02L45.36 20.02Q45.94 19.73 46.45 19.37Q46.97 19.01 47.47 18.62L47.47 18.62Q47.98 18.22 48.49 17.80Q49.01 17.38 49.54 16.94L49.54 16.94Q49.68 16.90 49.73 16.90L49.73 16.90Q49.90 16.90 49.90 17.06L49.90 17.06Q49.90 17.18 49.78 17.35L49.78 17.35Q49.63 17.54 49.18 17.98Q48.72 18.41 48.06 18.95Q47.40 19.49 46.58 20.02Q45.77 20.54 44.90 20.93L44.90 20.93Q44.45 21.14 43.63 21.35Q42.82 21.55 42.05 21.55ZM47.71 21.55L47.71 21.55L47.59 21.55Q47.40 21.55 47.32 21.43Q47.23 21.31 47.23 21.14L47.23 21.14Q47.23 20.88 47.35 20.64Q47.47 20.40 47.50 20.33L47.50 20.33Q47.69 19.94 48.10 19.28Q48.50 18.62 49.04 17.88Q49.58 17.14 50.16 16.48Q50.74 15.82 51.25 15.38Q51.77 14.95 52.15 14.95L52.15 14.95Q52.25 14.95 52.57 15.11Q52.90 15.26 53.04 15.36L53.04 15.36Q53.21 15.46 53.21 15.65L53.21 15.65Q53.21 15.94 52.94 15.94L52.94 15.94Q52.80 15.94 52.75 15.96L52.75 15.96Q52.70 15.96 52.51 16.03L52.51 16.03Q52.10 16.20 51.49 16.74Q50.88 17.28 50.24 17.98Q49.61 18.67 49.10 19.30L49.10 19.30Q49.85 18.65 50.80 18Q51.74 17.35 52.58 17.02L52.58 17.02Q52.87 16.90 53.12 16.84Q53.38 16.78 53.59 16.78L53.59 16.78Q54.34 16.78 54.58 17.33Q54.82 17.88 54.89 18.43L54.89 18.43Q54.94 18.65 54.95 18.86Q54.96 19.08 54.98 19.27L54.98 19.27Q55.08 20.16 55.34 20.45Q55.61 20.74 55.99 20.74L55.99 20.74Q56.30 20.74 56.71 20.60Q57.12 20.47 57.60 20.23L57.60 20.23Q58.58 19.75 59.64 19.02Q60.70 18.29 61.66 17.50L61.66 17.50L63.14 16.30Q63.34 16.15 63.46 16.15Q63.58 16.15 63.60 16.20L63.60 16.20L63.60 16.25Q63.60 16.30 63.58 16.40Q63.55 16.51 63.48 16.63L63.48 16.63Q63.31 16.87 62.98 17.26Q62.64 17.64 62.11 18.05L62.11 18.05Q61.49 18.55 60.68 19.16Q59.88 19.78 59.00 20.32Q58.13 20.86 57.26 21.20Q56.40 21.55 55.61 21.55L55.61 21.55Q54.82 21.55 54.44 21.11Q54.07 20.66 53.94 20.03Q53.81 19.39 53.69 18.84L53.69 18.84Q53.66 18.67 53.62 18.53Q53.57 18.38 53.52 18.26L53.52 18.26Q53.30 17.74 52.87 17.74L52.87 17.74Q52.58 17.74 52.20 17.89Q51.82 18.05 51.24 18.43L51.24 18.43Q50.50 18.94 49.90 19.45Q49.30 19.97 48.82 20.45L48.82 20.45Q48.67 20.57 48.52 20.75Q48.36 20.93 48.19 21.10L48.19 21.10L47.90 21.38Q47.81 21.48 47.76 21.52Q47.71 21.55 47.71 21.55ZM68.59 21.72L68.59 21.72Q67.54 21.79 67.10 21.30Q66.67 20.81 66.67 20.09L66.67 20.09Q66.67 19.56 66.84 19.01Q67.01 18.46 67.25 17.93L67.25 17.93Q66.86 18.31 66.29 18.86Q65.71 19.42 65.06 19.94Q64.42 20.47 63.80 20.82Q63.19 21.17 62.74 21.17L62.74 21.17Q62.40 21.17 62.10 21Q61.80 20.83 61.58 20.59L61.58 20.59Q61.20 20.18 61.20 19.56L61.20 19.56Q61.20 18.89 61.63 18.12Q62.06 17.35 62.74 16.63Q63.41 15.91 64.15 15.35Q64.90 14.78 65.54 14.52L65.54 14.52Q66.12 14.30 66.67 14.30L66.67 14.30Q67.49 14.30 68.09 14.71L68.09 14.71Q68.35 14.88 68.52 15.11Q68.69 15.34 68.69 15.65L68.69 15.65L68.69 15.72Q69.19 15.14 69.68 14.58Q70.18 14.02 70.68 13.49L70.68 13.49Q71.26 12.86 71.89 12.24Q72.53 11.62 73.27 11.06L73.27 11.06Q73.66 10.80 73.92 10.80L73.92 10.80Q74.09 10.80 74.21 10.90L74.21 10.90Q74.47 11.04 74.69 11.41Q74.90 11.78 74.90 12.12L74.90 12.12Q74.90 12.34 74.81 12.46L74.81 12.46Q74.69 12.62 74.57 12.62L74.57 12.62Q74.45 12.62 74.38 12.43L74.38 12.43Q74.35 12.38 74.35 12.31L74.35 12.31Q74.33 12.17 74.16 12.17L74.16 12.17Q73.97 12.17 73.69 12.34Q73.42 12.50 73.32 12.58L73.32 12.58Q72.62 13.03 71.90 13.70Q71.18 14.38 70.51 15.14L70.51 15.14Q70.20 15.50 69.89 15.88Q69.58 16.25 69.31 16.63L69.31 16.63Q69.10 16.92 68.72 17.53Q68.35 18.14 68.06 18.84Q67.78 19.54 67.78 20.09L67.78 20.09Q67.78 20.47 67.98 20.71Q68.18 20.95 68.71 20.95L68.71 20.95Q69.84 20.95 70.88 20.42Q71.93 19.90 72.86 19.30L72.86 19.30Q74.62 18.17 76.25 16.80L76.25 16.80Q76.34 16.70 76.44 16.70L76.44 16.70L76.46 16.70Q76.61 16.70 76.61 16.85L76.61 16.85L76.61 16.90Q76.61 17.04 76.49 17.16L76.49 17.16Q76.25 17.47 75.36 18.29Q74.47 19.10 73.18 19.97L73.18 19.97Q72.07 20.71 71.00 21.16Q69.94 21.60 68.59 21.72ZM62.40 20.57L62.40 20.57Q62.78 20.57 63.34 20.21L63.34 20.21Q64.68 19.39 65.95 18.34Q67.22 17.28 68.33 16.10L68.33 16.10Q68.18 16.08 68.09 15.84L68.09 15.84Q67.97 15.58 67.75 15.31Q67.54 15.05 67.06 15.05L67.06 15.05Q66.34 15.05 65.52 15.53Q64.70 16.01 63.96 16.74Q63.22 17.47 62.70 18.28Q62.18 19.08 62.09 19.70L62.09 19.70Q62.06 19.80 62.06 19.88Q62.06 19.97 62.06 20.04L62.06 20.04Q62.06 20.38 62.17 20.47Q62.28 20.57 62.40 20.57ZM83.21 24.50L83.21 24.50Q81.48 24.50 80.03 23.69Q78.58 22.87 77.59 21.58Q76.61 20.28 76.27 18.82L76.27 18.82Q75.38 18.67 74.65 18.34Q73.92 18 73.87 17.54L73.87 17.54Q73.87 17.28 74.03 17.10Q74.18 16.92 74.64 16.92L74.64 16.92Q74.98 16.92 75.38 17.02L75.38 17.02Q75.89 17.11 76.16 17.38Q76.44 17.64 76.54 17.90L76.54 17.90Q77.59 18.02 79.32 18.16Q81.05 18.29 83.09 18.34L83.09 18.34Q82.94 18.02 82.85 17.70Q82.75 17.38 82.66 17.06L82.66 17.06Q82.13 15.50 81.65 13.85Q81.17 12.19 81.24 10.70L81.24 10.70Q81.31 9.36 82.13 8.44Q82.94 7.51 84.20 6.95Q85.46 6.38 86.88 6.13Q88.30 5.88 89.54 5.88L89.54 5.88Q90.94 5.88 92.29 6.11Q93.65 6.34 94.74 6.79Q95.83 7.25 96.48 7.96Q97.13 8.66 97.13 9.60L97.13 9.60Q97.13 10.27 96.56 10.86Q96 11.45 95.16 11.88Q94.32 12.31 93.42 12.55Q92.52 12.79 91.85 12.79L91.85 12.79Q91.66 12.79 91.55 12.67Q91.44 12.55 91.44 12.41L91.44 12.41Q91.44 12.29 91.55 12.17Q91.66 12.05 91.85 12.05L91.85 12.05Q92.52 12.05 93.30 11.87Q94.08 11.69 94.76 11.38Q95.45 11.06 95.89 10.62Q96.34 10.18 96.34 9.67L96.34 9.67Q96.34 8.93 95.69 8.42Q95.04 7.92 94.02 7.63Q93 7.34 91.85 7.22Q90.70 7.10 89.69 7.10L89.69 7.10Q87.41 7.10 85.97 7.49Q84.53 7.87 83.72 8.48Q82.92 9.10 82.56 9.76Q82.20 10.42 82.13 10.99Q82.06 11.57 82.06 11.86L82.06 11.86Q82.06 13.18 82.44 14.48Q82.82 15.79 83.28 16.99L83.28 16.99Q83.38 17.23 83.52 17.58Q83.66 17.93 83.81 18.34L83.81 18.34Q86.98 18.34 89.60 18.05Q92.23 17.76 93.84 16.94L93.84 16.94Q93.94 16.90 94.03 16.90L94.03 16.90Q94.25 16.90 94.15 17.14L94.15 17.14Q94.13 17.23 94.06 17.32Q93.98 17.40 93.89 17.47L93.89 17.47Q93.12 18 91.60 18.36Q90.07 18.72 88.14 18.91Q86.21 19.10 84.17 19.18L84.17 19.18Q84.53 19.92 84.91 20.92Q85.30 21.91 85.30 22.75L85.30 22.75Q85.30 23.50 84.84 24Q84.38 24.50 83.21 24.50ZM82.22 23.33L82.22 23.33Q82.32 23.35 82.40 23.35Q82.49 23.35 82.56 23.35L82.56 23.35Q83.95 23.35 83.95 22.06L83.95 22.06Q83.95 21.43 83.80 20.69Q83.64 19.94 83.38 19.20L83.38 19.20Q81.55 19.22 79.87 19.13Q78.19 19.03 76.87 18.84L76.87 18.84Q77.54 20.38 78.48 21.32Q79.42 22.27 80.40 22.75Q81.38 23.23 82.22 23.33ZM93.26 21.79L93.26 21.79Q92.38 21.79 91.97 21.31Q91.56 20.83 91.56 20.23L91.56 20.23Q91.56 19.92 91.68 19.51L91.68 19.51Q91.87 18.96 92.29 18.35Q92.71 17.74 93.24 17.28Q93.77 16.82 94.30 16.73L94.30 16.73Q94.39 16.70 94.66 16.81Q94.92 16.92 95.17 17.05Q95.42 17.18 95.47 17.28L95.47 17.28Q95.52 17.42 95.52 17.47L95.52 17.47Q95.52 17.78 95.21 17.62L95.21 17.62Q94.99 17.47 94.58 17.76Q94.18 18.05 93.78 18.46Q93.38 18.86 93.14 19.15L93.14 19.15Q92.86 19.46 92.65 19.88Q92.45 20.30 92.45 20.64L92.45 20.64Q92.45 20.83 92.59 20.99Q92.74 21.14 93.17 21.14L93.17 21.14Q93.29 21.14 93.42 21.13Q93.55 21.12 93.72 21.10L93.72 21.10Q94.18 21 94.86 20.66Q95.54 20.33 96.30 19.81Q97.06 19.30 97.70 18.70L97.70 18.70Q98.04 18.36 98.38 17.96Q98.71 17.57 98.95 17.14L98.95 17.14Q97.70 17.11 96.40 16.97Q95.09 16.82 94.39 16.44L94.39 16.44Q94.06 16.25 93.90 16.03Q93.74 15.82 93.74 15.62L93.74 15.62Q93.74 15.41 93.89 15.26Q94.03 15.12 94.20 15.12L94.20 15.12Q94.34 15.12 94.46 15.22L94.46 15.22Q94.54 15.26 94.61 15.32Q94.68 15.38 94.75 15.43L94.75 15.43Q95.64 14.95 96.52 14.75Q97.39 14.54 98.04 14.54L98.04 14.54Q98.78 14.54 99.40 14.86Q100.01 15.17 100.10 15.98L100.10 15.98Q100.13 16.13 100.13 16.26Q100.13 16.39 100.13 16.51L100.13 16.51L101.54 16.51Q102.26 16.51 103.02 16.42Q103.78 16.32 104.41 16.16Q105.05 16.01 105.36 15.84L105.36 15.84Q105.53 15.74 105.65 15.74L105.65 15.74Q105.89 15.74 105.89 15.91L105.89 15.91Q105.89 16.18 105.43 16.34L105.43 16.34Q104.90 16.58 103.82 16.82Q102.74 17.06 101.54 17.11L101.54 17.11Q101.26 17.14 100.86 17.15Q100.46 17.16 99.98 17.16L99.98 17.16Q99.72 18.12 98.96 18.96Q98.21 19.80 97.20 20.44Q96.19 21.07 95.15 21.43Q94.10 21.79 93.26 21.79ZM99.26 16.46L99.26 16.46Q99.34 16.25 99.34 16.06L99.34 16.06Q99.34 15.67 99.02 15.43Q98.71 15.19 97.94 15.19L97.94 15.19Q97.27 15.19 96.65 15.35Q96.02 15.50 95.47 15.77L95.47 15.77Q96.31 16.08 97.30 16.25Q98.28 16.42 99.26 16.46ZM102.50 21.55L102.50 21.55L102.38 21.55Q102.19 21.55 102.11 21.43Q102.02 21.31 102.02 21.14L102.02 21.14Q102.02 20.88 102.14 20.64Q102.26 20.40 102.29 20.33L102.29 20.33Q102.48 19.94 102.89 19.28Q103.30 18.62 103.84 17.88Q104.38 17.14 104.95 16.48Q105.53 15.82 106.04 15.38Q106.56 14.95 106.94 14.95L106.94 14.95Q107.04 14.95 107.36 15.11Q107.69 15.26 107.83 15.36L107.83 15.36Q108 15.46 108 15.65L108 15.65Q108 15.94 107.74 15.94L107.74 15.94Q107.59 15.94 107.54 15.96L107.54 15.96Q107.50 15.96 107.30 16.03L107.30 16.03Q106.90 16.20 106.28 16.74Q105.67 17.28 105.04 17.98Q104.40 18.67 103.90 19.30L103.90 19.30Q104.64 18.65 105.59 18Q106.54 17.35 107.38 17.02L107.38 17.02Q107.66 16.90 107.92 16.84Q108.17 16.78 108.38 16.78L108.38 16.78Q109.13 16.78 109.37 17.33Q109.61 17.88 109.68 18.43L109.68 18.43Q109.73 18.65 109.74 18.86Q109.75 19.08 109.78 19.27L109.78 19.27Q109.87 20.16 110.14 20.45Q110.40 20.74 110.78 20.74L110.78 20.74Q111.10 20.74 111.50 20.60Q111.91 20.47 112.39 20.23L112.39 20.23Q113.38 19.75 114.43 19.02Q115.49 18.29 116.45 17.50L116.45 17.50L117.94 16.30Q118.13 16.15 118.25 16.15Q118.37 16.15 118.39 16.20L118.39 16.20L118.39 16.25Q118.39 16.30 118.37 16.40Q118.34 16.51 118.27 16.63L118.27 16.63Q118.10 16.87 117.77 17.26Q117.43 17.64 116.90 18.05L116.90 18.05Q116.28 18.55 115.48 19.16Q114.67 19.78 113.80 20.32Q112.92 20.86 112.06 21.20Q111.19 21.55 110.40 21.55L110.40 21.55Q109.61 21.55 109.24 21.11Q108.86 20.66 108.73 20.03Q108.60 19.39 108.48 18.84L108.48 18.84Q108.46 18.67 108.41 18.53Q108.36 18.38 108.31 18.26L108.31 18.26Q108.10 17.74 107.66 17.74L107.66 17.74Q107.38 17.74 106.99 17.89Q106.61 18.05 106.03 18.43L106.03 18.43Q105.29 18.94 104.69 19.45Q104.09 19.97 103.61 20.45L103.61 20.45Q103.46 20.57 103.31 20.75Q103.15 20.93 102.98 21.10L102.98 21.10L102.70 21.38Q102.60 21.48 102.55 21.52Q102.50 21.55 102.50 21.55ZM113.33 30.77L113.33 30.77Q112.85 30.77 112.28 30.64Q111.72 30.50 111.34 30.12Q110.95 29.74 110.95 28.99L110.95 28.99Q110.95 28.08 111.44 27.28Q111.94 26.47 112.72 25.79Q113.50 25.10 114.31 24.58L114.31 24.58Q115.32 23.93 116.50 23.33Q117.67 22.73 118.94 22.32Q120.22 21.91 121.49 21.86L121.49 21.86Q121.92 20.98 122.18 20.06Q122.45 19.15 122.45 18.48L122.45 18.48Q122.45 18 122.30 17.76L122.30 17.76Q122.18 17.88 122.16 17.95L122.16 17.95Q121.99 18.12 121.75 18.37Q121.51 18.62 121.22 18.91L121.22 18.91Q120.74 19.39 120.04 20.04Q119.33 20.69 118.54 21.16Q117.74 21.62 117.05 21.62L117.05 21.62Q116.26 21.62 115.82 20.98L115.82 20.98Q115.56 20.57 115.56 20.06L115.56 20.06Q115.56 19.34 116.00 18.53Q116.45 17.71 117.13 16.93Q117.82 16.15 118.60 15.58Q119.38 15 120.05 14.76L120.05 14.76Q120.26 14.69 120.52 14.64Q120.77 14.59 121.08 14.59L121.08 14.59Q121.73 14.59 122.39 14.89Q123.05 15.19 123.14 15.98L123.14 15.98L123.14 16.06Q123.14 16.42 122.93 16.54L122.93 16.54Q122.83 16.58 122.78 16.58L122.78 16.58Q122.54 16.58 122.54 16.27L122.54 16.27Q122.54 16.10 122.40 15.77Q122.26 15.43 121.70 15.43L121.70 15.43Q121.01 15.43 120.13 15.94Q119.26 16.44 118.45 17.20Q117.65 17.95 117.08 18.77Q116.52 19.58 116.45 20.21L116.45 20.21Q116.42 20.30 116.42 20.38Q116.42 20.45 116.42 20.50L116.42 20.50Q116.42 20.86 116.56 20.96Q116.69 21.07 116.83 21.07L116.83 21.07Q117.19 21.07 117.67 20.78Q118.15 20.50 118.60 20.15Q119.04 19.80 119.26 19.63L119.26 19.63Q119.88 19.10 120.54 18.52Q121.20 17.93 121.85 17.38L121.85 17.38Q121.82 17.33 121.82 17.21L121.82 17.21Q121.82 17.09 121.87 16.94L121.87 16.94Q121.94 16.80 122.11 16.69Q122.28 16.58 122.54 16.58L122.54 16.58Q123.24 16.58 123.50 17.02Q123.77 17.45 123.77 18.07L123.77 18.07Q123.77 18.89 123.43 19.91Q123.10 20.93 122.69 21.89L122.69 21.89Q123.22 21.94 123.82 22.12Q124.42 22.30 124.56 22.75L124.56 22.75Q124.58 22.78 124.58 22.82L124.58 22.82Q124.58 22.97 124.49 23.02L124.49 23.02Q124.46 23.04 124.37 23.04L124.37 23.04Q124.25 23.04 124.22 22.92L124.22 22.92Q124.08 22.66 123.54 22.55Q123 22.44 122.45 22.44L122.45 22.44Q122.26 22.87 122.06 23.24Q121.87 23.62 121.70 23.90L121.70 23.90Q120.94 25.32 119.92 26.56Q118.90 27.79 117.77 28.74Q116.64 29.69 115.50 30.23Q114.36 30.77 113.33 30.77ZM113.06 30.17L113.06 30.17Q114.26 30.17 115.38 29.53Q116.50 28.90 117.50 27.80Q118.51 26.71 119.42 25.34Q120.34 23.98 121.13 22.54L121.13 22.54Q119.14 22.80 117.20 23.86Q115.27 24.91 113.64 26.26L113.64 26.26Q112.63 27.07 112.19 27.79Q111.74 28.51 111.74 29.04L111.74 29.04Q111.74 29.54 112.10 29.86Q112.46 30.17 113.06 30.17ZM135.29 22.80L135.29 22.80Q134.38 22.80 133.57 22.61Q132.77 22.42 132.28 21.94Q131.78 21.46 131.78 20.62L131.78 20.62Q131.78 19.92 132.23 19.26Q132.67 18.60 133.37 18.04Q134.06 17.47 134.86 17.05Q135.65 16.63 136.34 16.39L136.34 16.39Q136.39 16.37 136.51 16.37L136.51 16.37Q136.75 16.37 136.75 16.58L136.75 16.58Q136.75 16.66 136.69 16.75Q136.63 16.85 136.46 16.90L136.46 16.90Q135.89 17.11 135.24 17.51Q134.59 17.90 134.02 18.42Q133.44 18.94 133.08 19.52Q132.72 20.11 132.72 20.74L132.72 20.74Q132.72 21.50 133.34 21.84Q133.97 22.18 134.90 22.18L134.90 22.18Q135.65 22.18 136.44 22.01Q137.23 21.84 137.90 21.62L137.90 21.62Q139.92 20.98 141.14 19.98Q142.37 18.98 142.92 17.98Q143.47 16.97 143.47 16.32L143.47 16.32Q143.47 15.41 142.91 15.05Q142.34 14.69 141.53 14.69L141.53 14.69Q140.59 14.69 139.73 15L139.73 15Q139.49 15.10 139.22 15.19L139.22 15.19Q139.13 15.22 139.06 15.24Q138.98 15.26 138.94 15.29L138.94 15.29Q138.74 15.60 138.56 15.71Q138.38 15.82 138.19 15.82L138.19 15.82Q138.12 15.82 137.93 15.77L137.93 15.77Q137.81 15.74 137.76 15.64Q137.71 15.53 137.71 15.41L137.71 15.41Q137.71 15.24 137.76 15.08Q137.81 14.93 137.86 14.83L137.86 14.83Q138.17 14.21 138.61 13.51Q139.06 12.82 139.70 12L139.70 12Q139.63 11.95 139.56 11.88Q139.49 11.81 139.42 11.78L139.42 11.78Q139.20 11.59 139.25 11.45L139.25 11.45Q139.25 11.28 139.51 11.10Q139.78 10.92 140.09 10.78Q140.40 10.63 140.54 10.66L140.54 10.66Q140.59 10.66 140.62 10.64Q140.64 10.63 140.66 10.63L140.66 10.63Q140.83 10.63 141 10.69Q141.17 10.75 141.26 10.82L141.26 10.82Q141.48 10.82 142.16 10.78Q142.85 10.73 143.71 10.68Q144.58 10.63 145.38 10.61Q146.18 10.58 146.66 10.61L146.66 10.61Q147 10.63 147 10.90L147 10.90Q147 11.16 146.59 11.21L146.59 11.21Q146.02 11.21 144.98 11.32Q143.95 11.42 142.82 11.62Q141.70 11.81 140.78 12.10L140.78 12.10Q140.62 12.26 140.44 12.52Q140.26 12.77 140.06 13.08L140.06 13.08Q139.90 13.39 139.72 13.70Q139.54 14.02 139.37 14.28L139.37 14.28Q139.34 14.35 139.31 14.45Q139.27 14.54 139.22 14.66L139.22 14.66Q139.73 14.47 140.44 14.34Q141.14 14.21 141.86 14.21L141.86 14.21Q142.75 14.21 143.53 14.48Q144.31 14.76 144.62 15.53L144.62 15.53Q144.74 15.77 144.77 16.02Q144.79 16.27 144.79 16.51L144.79 16.51Q144.79 17.52 144.19 18.43Q143.59 19.34 142.67 20.11Q141.74 20.88 140.76 21.42Q139.78 21.96 139.01 22.20L139.01 22.20Q138.19 22.44 137.21 22.62Q136.22 22.80 135.29 22.80ZM149.54 22.56L149.54 22.56Q148.68 22.56 147.89 22.25Q147.10 21.94 146.66 21.34L146.66 21.34Q146.04 20.50 146.04 19.30L146.04 19.30Q146.04 19.06 146.06 18.79Q146.09 18.53 146.14 18.26L146.14 18.26Q146.47 16.75 147.26 15.41Q148.06 14.06 149.38 12.96L149.38 12.96Q150.07 12.38 150.98 11.90Q151.90 11.42 152.95 10.97L152.95 10.97Q153.98 10.51 154.92 10.32Q155.86 10.13 156.55 10.13L156.55 10.13Q157.01 10.13 157.25 10.22Q157.49 10.32 157.46 10.44L157.46 10.44Q157.44 10.51 157.39 10.55Q157.34 10.58 157.30 10.61L157.30 10.61Q157.27 10.63 157.22 10.63Q157.18 10.63 157.13 10.66L157.13 10.66Q155.54 10.82 153.91 11.50Q152.28 12.17 150.85 13.28Q149.42 14.40 148.43 15.85Q147.43 17.30 147.07 19.01L147.07 19.01Q147 19.32 147 19.66L147 19.66Q147 20.54 147.58 21.23Q148.15 21.91 149.40 21.91L149.40 21.91Q150.41 21.91 151.61 21.44Q152.81 20.98 154.01 20.18Q155.21 19.39 156.24 18.40Q157.27 17.40 157.99 16.31Q158.71 15.22 158.90 14.18L158.90 14.18Q158.95 13.92 158.98 13.69Q159 13.46 159 13.25L159 13.25Q159 12.65 158.68 12.31Q158.35 11.98 157.44 11.98L157.44 11.98Q156.55 11.98 155.23 12.37Q153.91 12.77 152.54 13.58L152.54 13.58Q152.30 13.73 151.74 14.14Q151.18 14.54 150.60 15.05Q150.02 15.55 149.66 15.96L149.66 15.96Q149.57 16.13 149.38 15.98L149.38 15.98Q149.28 15.86 149.33 15.74L149.33 15.74Q149.38 15.50 149.74 15.08Q150.10 14.66 150.65 14.17Q151.20 13.68 151.80 13.30L151.80 13.30Q152.78 12.67 153.83 12.24Q154.87 11.81 155.80 11.58Q156.72 11.35 157.34 11.35L157.34 11.35Q158.83 11.35 159.44 12.05Q160.06 12.74 160.06 13.73L160.06 13.73Q160.06 14.21 159.96 14.62L159.96 14.62Q159.62 16.13 158.57 17.54Q157.51 18.96 156.02 20.09Q154.54 21.22 152.86 21.89Q151.18 22.56 149.54 22.56ZM163.70 22.56L163.70 22.56Q162.84 22.56 162.05 22.25Q161.26 21.94 160.82 21.34L160.82 21.34Q160.20 20.50 160.20 19.30L160.20 19.30Q160.20 19.06 160.22 18.79Q160.25 18.53 160.30 18.26L160.30 18.26Q160.63 16.75 161.42 15.41Q162.22 14.06 163.54 12.96L163.54 12.96Q164.23 12.38 165.14 11.90Q166.06 11.42 167.11 10.97L167.11 10.97Q168.14 10.51 169.08 10.32Q170.02 10.13 170.71 10.13L170.71 10.13Q171.17 10.13 171.41 10.22Q171.65 10.32 171.62 10.44L171.62 10.44Q171.60 10.51 171.55 10.55Q171.50 10.58 171.46 10.61L171.46 10.61Q171.43 10.63 171.38 10.63Q171.34 10.63 171.29 10.66L171.29 10.66Q169.70 10.82 168.07 11.50Q166.44 12.17 165.01 13.28Q163.58 14.40 162.59 15.85Q161.59 17.30 161.23 19.01L161.23 19.01Q161.16 19.32 161.16 19.66L161.16 19.66Q161.16 20.54 161.74 21.23Q162.31 21.91 163.56 21.91L163.56 21.91Q164.57 21.91 165.77 21.44Q166.97 20.98 168.17 20.18Q169.37 19.39 170.40 18.40Q171.43 17.40 172.15 16.31Q172.87 15.22 173.06 14.18L173.06 14.18Q173.11 13.92 173.14 13.69Q173.16 13.46 173.16 13.25L173.16 13.25Q173.16 12.65 172.84 12.31Q172.51 11.98 171.60 11.98L171.60 11.98Q170.71 11.98 169.39 12.37Q168.07 12.77 166.70 13.58L166.70 13.58Q166.46 13.73 165.90 14.14Q165.34 14.54 164.76 15.05Q164.18 15.55 163.82 15.96L163.82 15.96Q163.73 16.13 163.54 15.98L163.54 15.98Q163.44 15.86 163.49 15.74L163.49 15.74Q163.54 15.50 163.90 15.08Q164.26 14.66 164.81 14.17Q165.36 13.68 165.96 13.30L165.96 13.30Q166.94 12.67 167.99 12.24Q169.03 11.81 169.96 11.58Q170.88 11.35 171.50 11.35L171.50 11.35Q172.99 11.35 173.60 12.05Q174.22 12.74 174.22 13.73L174.22 13.73Q174.22 14.21 174.12 14.62L174.12 14.62Q173.78 16.13 172.73 17.54Q171.67 18.96 170.18 20.09Q168.70 21.22 167.02 21.89Q165.34 22.56 163.70 22.56ZM180.24 21.55L180.24 21.55L180.12 21.55Q179.93 21.55 179.84 21.43Q179.76 21.31 179.76 21.14L179.76 21.14Q179.76 20.88 179.88 20.64Q180 20.40 180.02 20.33L180.02 20.33Q180.22 19.94 180.62 19.28Q181.03 18.62 181.57 17.88Q182.11 17.14 182.69 16.48Q183.26 15.82 183.78 15.38Q184.30 14.95 184.68 14.95L184.68 14.95Q184.78 14.95 185.10 15.11Q185.42 15.26 185.57 15.36L185.57 15.36Q185.74 15.46 185.74 15.65L185.74 15.65Q185.74 15.94 185.47 15.94L185.47 15.94Q185.33 15.94 185.28 15.96L185.28 15.96Q185.23 15.96 185.04 16.03L185.04 16.03Q184.63 16.20 184.02 16.74Q183.41 17.28 182.77 17.98Q182.14 18.67 181.63 19.30L181.63 19.30Q182.38 18.65 183.32 18Q184.27 17.35 185.11 17.02L185.11 17.02Q185.40 16.90 185.65 16.84Q185.90 16.78 186.12 16.78L186.12 16.78Q186.86 16.78 187.10 17.33Q187.34 17.88 187.42 18.43L187.42 18.43Q187.46 18.65 187.48 18.86Q187.49 19.08 187.51 19.27L187.51 19.27Q187.61 20.16 187.87 20.45Q188.14 20.74 188.52 20.74L188.52 20.74Q188.83 20.74 189.24 20.60Q189.65 20.47 190.13 20.23L190.13 20.23Q191.11 19.75 192.17 19.02Q193.22 18.29 194.18 17.50L194.18 17.50L195.67 16.30Q195.86 16.15 195.98 16.15Q196.10 16.15 196.13 16.20L196.13 16.20L196.13 16.25Q196.13 16.30 196.10 16.40Q196.08 16.51 196.01 16.63L196.01 16.63Q195.84 16.87 195.50 17.26Q195.17 17.64 194.64 18.05L194.64 18.05Q194.02 18.55 193.21 19.16Q192.41 19.78 191.53 20.32Q190.66 20.86 189.79 21.20Q188.93 21.55 188.14 21.55L188.14 21.55Q187.34 21.55 186.97 21.11Q186.60 20.66 186.47 20.03Q186.34 19.39 186.22 18.84L186.22 18.84Q186.19 18.67 186.14 18.53Q186.10 18.38 186.05 18.26L186.05 18.26Q185.83 17.74 185.40 17.74L185.40 17.74Q185.11 17.74 184.73 17.89Q184.34 18.05 183.77 18.43L183.77 18.43Q183.02 18.94 182.42 19.45Q181.82 19.97 181.34 20.45L181.34 20.45Q181.20 20.57 181.04 20.75Q180.89 20.93 180.72 21.10L180.72 21.10L180.43 21.38Q180.34 21.48 180.29 21.52Q180.24 21.55 180.24 21.55ZM194.59 21.79L194.59 21.79Q193.70 21.79 193.30 21.31Q192.89 20.83 192.89 20.23L192.89 20.23Q192.89 19.92 193.01 19.51L193.01 19.51Q193.20 18.96 193.62 18.35Q194.04 17.74 194.57 17.28Q195.10 16.82 195.62 16.73L195.62 16.73Q195.72 16.70 195.98 16.81Q196.25 16.92 196.50 17.05Q196.75 17.18 196.80 17.28L196.80 17.28Q196.85 17.42 196.85 17.47L196.85 17.47Q196.85 17.78 196.54 17.62L196.54 17.62Q196.32 17.47 195.91 17.76Q195.50 18.05 195.11 18.46Q194.71 18.86 194.47 19.15L194.47 19.15Q194.18 19.46 193.98 19.88Q193.78 20.30 193.78 20.64L193.78 20.64Q193.78 20.83 193.92 20.99Q194.06 21.14 194.50 21.14L194.50 21.14Q194.62 21.14 194.75 21.13Q194.88 21.12 195.05 21.10L195.05 21.10Q195.50 21 196.19 20.66Q196.87 20.33 197.63 19.81Q198.38 19.30 199.03 18.70L199.03 18.70Q199.37 18.36 199.70 17.96Q200.04 17.57 200.28 17.14L200.28 17.14Q199.03 17.11 197.72 16.97Q196.42 16.82 195.72 16.44L195.72 16.44Q195.38 16.25 195.23 16.03Q195.07 15.82 195.07 15.62L195.07 15.62Q195.07 15.41 195.22 15.26Q195.36 15.12 195.53 15.12L195.53 15.12Q195.67 15.12 195.79 15.22L195.79 15.22Q195.86 15.26 195.94 15.32Q196.01 15.38 196.08 15.43L196.08 15.43Q196.97 14.95 197.84 14.75Q198.72 14.54 199.37 14.54L199.37 14.54Q200.11 14.54 200.72 14.86Q201.34 15.17 201.43 15.98L201.43 15.98Q201.46 16.13 201.46 16.26Q201.46 16.39 201.46 16.51L201.46 16.51L202.87 16.51Q203.59 16.51 204.35 16.42Q205.10 16.32 205.74 16.16Q206.38 16.01 206.69 15.84L206.69 15.84Q206.86 15.74 206.98 15.74L206.98 15.74Q207.22 15.74 207.22 15.91L207.22 15.91Q207.22 16.18 206.76 16.34L206.76 16.34Q206.23 16.58 205.15 16.82Q204.07 17.06 202.87 17.11L202.87 17.11Q202.58 17.14 202.19 17.15Q201.79 17.16 201.31 17.16L201.31 17.16Q201.05 18.12 200.29 18.96Q199.54 19.80 198.53 20.44Q197.52 21.07 196.48 21.43Q195.43 21.79 194.59 21.79ZM200.59 16.46L200.59 16.46Q200.66 16.25 200.66 16.06L200.66 16.06Q200.66 15.67 200.35 15.43Q200.04 15.19 199.27 15.19L199.27 15.19Q198.60 15.19 197.98 15.35Q197.35 15.50 196.80 15.77L196.80 15.77Q197.64 16.08 198.62 16.25Q199.61 16.42 200.59 16.46ZM208.82 21.67L208.82 21.67Q208.06 21.67 207.40 21.35Q206.74 21.02 206.74 20.14L206.74 20.14Q206.74 19.18 207.37 18.34Q208.01 17.50 208.68 16.90L208.68 16.90L208.87 16.73Q208.56 16.80 208.25 16.80L208.25 16.80Q207.55 16.80 207.07 16.46L207.07 16.46L207.00 16.58Q206.83 16.85 206.40 17.27Q205.97 17.69 205.56 18.02L205.56 18.02Q204.55 18.86 203.42 19.62Q202.30 20.38 201.19 20.88Q200.09 21.38 199.10 21.43L199.10 21.43Q199.03 21.43 198.90 21.41Q198.77 21.38 198.70 21.34L198.70 21.34Q198.65 21.29 198.65 21.22L198.65 21.22Q198.65 21.10 198.74 21.05L198.74 21.05Q198.84 21 199.18 20.93L199.18 20.93Q199.99 20.76 200.98 20.24Q201.96 19.73 203.03 19.00Q204.10 18.26 205.10 17.45L205.10 17.45Q205.51 17.14 205.94 16.74Q206.38 16.34 206.71 16.03L206.71 16.03Q206.59 15.84 206.54 15.64Q206.50 15.43 206.50 15.22L206.50 15.22Q206.50 14.64 206.81 14.06Q207.12 13.49 207.60 13.01Q208.08 12.53 208.63 12.23Q209.18 11.93 209.66 11.93L209.66 11.93Q209.93 11.93 210.04 12.05Q210.14 12.17 210.14 12.31L210.14 12.31Q210.14 12.62 209.93 12.79L209.93 12.79Q209.76 12.94 209.39 13.31Q209.02 13.68 208.58 14.15Q208.15 14.62 207.80 15.06Q207.46 15.50 207.34 15.79L207.34 15.79Q207.41 15.89 207.55 16.00Q207.70 16.10 208.10 16.10L208.10 16.10Q208.39 16.10 208.70 16.01Q209.02 15.91 209.30 15.82L209.30 15.82Q209.59 15.72 209.83 15.60L209.83 15.60Q209.95 15.55 210.05 15.53Q210.14 15.50 210.19 15.50L210.19 15.50Q210.46 15.50 210.78 15.67Q211.10 15.84 211.10 16.20L211.10 16.20Q211.10 16.32 211.06 16.46Q211.01 16.61 210.89 16.70L210.89 16.70Q210.50 16.99 209.87 17.51Q209.23 18.02 208.66 18.60L208.66 18.60Q208.06 19.20 207.79 19.66Q207.53 20.11 207.53 20.40L207.53 20.40Q207.53 20.71 207.80 20.90Q208.08 21.10 208.68 21.10L208.68 21.10Q209.52 21.10 210.89 20.59L210.89 20.59Q211.22 20.47 211.54 20.33L211.54 20.33Q212.88 19.70 214.12 18.83Q215.35 17.95 216.58 16.92L216.58 16.92Q216.65 16.90 216.74 16.90L216.74 16.90Q216.91 16.90 216.91 17.06L216.91 17.06Q216.91 17.18 216.82 17.33L216.82 17.33Q216.67 17.54 216.12 18.05Q215.57 18.55 214.76 19.18Q213.96 19.80 213.01 20.38Q212.06 20.95 211.10 21.29L211.10 21.29Q210.70 21.43 210.07 21.55Q209.45 21.67 208.82 21.67ZM214.13 22.10L214.13 22.10Q213.46 22.10 213.58 21.67L213.58 21.67Q213.60 21.53 213.70 21.41L213.70 21.41L213.77 21.31Q213.79 21.26 213.79 21.24L213.79 21.24Q213.98 20.81 214.46 20.05Q214.94 19.30 215.59 18.42Q216.24 17.54 216.92 16.75Q217.61 15.96 218.21 15.46Q218.81 14.95 219.19 14.95L219.19 14.95Q219.31 14.95 219.62 15.11Q219.94 15.26 220.10 15.36L220.10 15.36Q220.27 15.46 220.27 15.62L220.27 15.62Q220.27 15.74 220.19 15.85Q220.10 15.96 219.98 15.96L219.98 15.96Q219.94 15.96 219.89 15.95Q219.84 15.94 219.79 15.96L219.79 15.96Q219.74 15.96 219.55 16.03L219.55 16.03Q219.17 16.20 218.63 16.64Q218.09 17.09 217.49 17.68Q216.89 18.26 216.32 18.88Q215.76 19.49 215.35 19.99L215.35 19.99Q215.93 19.49 216.67 18.89Q217.42 18.29 218.18 17.76Q218.95 17.23 219.60 16.88Q220.25 16.54 220.63 16.54L220.63 16.54Q221.06 16.54 221.50 16.88Q221.93 17.23 221.93 17.64L221.93 17.64Q221.93 17.95 221.84 18.31Q221.76 18.67 221.64 19.01L221.64 19.01Q221.62 19.15 221.57 19.30Q221.52 19.44 221.47 19.56L221.47 19.56Q221.74 19.25 222.02 18.86L222.02 18.86Q222.34 18.48 222.66 18.10Q222.98 17.71 223.27 17.47L223.27 17.47Q223.94 16.92 224.26 17.09L224.26 17.09Q224.40 17.18 224.46 17.34Q224.52 17.50 224.54 17.64L224.54 17.64Q224.59 17.86 224.65 18.19Q224.71 18.53 224.81 18.94L224.81 18.94Q224.93 19.32 225.13 19.69Q225.34 20.06 225.65 20.35L225.65 20.35Q225.96 20.59 226.54 20.59L226.54 20.59Q226.99 20.59 227.52 20.45Q228.05 20.30 228.46 20.11L228.46 20.11Q229.44 19.63 230.39 18.98Q231.34 18.34 232.30 17.52L232.30 17.52L233.78 16.30Q233.98 16.15 234.10 16.16Q234.22 16.18 234.24 16.22L234.24 16.22L234.24 16.27Q234.24 16.32 234.22 16.42Q234.19 16.51 234.10 16.63L234.10 16.63Q233.93 16.87 233.59 17.26Q233.26 17.64 232.75 18.05L232.75 18.05Q232.20 18.50 231.43 19.09Q230.66 19.68 229.81 20.21Q228.96 20.74 228.10 21.07L228.10 21.07Q227.64 21.24 227.21 21.36Q226.78 21.48 226.37 21.48L226.37 21.48Q225.43 21.48 224.89 21.06Q224.35 20.64 224.04 20.09L224.04 20.09Q223.90 19.80 223.79 19.50Q223.68 19.20 223.61 18.96L223.61 18.96Q223.56 18.77 223.52 18.59Q223.49 18.41 223.44 18.26L223.44 18.26Q223.18 18.50 222.91 18.83Q222.65 19.15 222.38 19.49L222.38 19.49Q222.10 19.87 221.86 20.20Q221.62 20.52 221.47 20.71L221.47 20.71Q221.21 21.05 220.82 21.05L220.82 21.05Q220.58 21.05 220.42 20.89Q220.25 20.74 220.25 20.42L220.25 20.42Q220.25 19.99 220.50 19.28Q220.75 18.58 220.85 17.98L220.85 17.98Q220.85 17.93 220.86 17.87Q220.87 17.81 220.87 17.76L220.87 17.76Q220.87 17.45 220.75 17.36Q220.63 17.28 220.49 17.28L220.49 17.28Q220.25 17.28 219.90 17.44Q219.55 17.59 219.29 17.76L219.29 17.76Q219.05 17.90 218.54 18.31Q218.04 18.72 217.43 19.25Q216.82 19.78 216.22 20.33L216.22 20.33Q215.83 20.69 215.51 21Q215.18 21.31 214.92 21.55L214.92 21.55Q214.32 22.10 214.13 22.10ZM239.23 21.62L239.23 21.62Q238.51 21.62 237.92 21.25Q237.34 20.88 237.34 19.90L237.34 19.90Q237.34 19.54 237.43 19.14Q237.53 18.74 237.65 18.36L237.65 18.36Q237.24 18.77 236.64 19.31Q236.04 19.85 235.33 20.35Q234.62 20.86 233.92 21.18Q233.21 21.50 232.58 21.50L232.58 21.50Q231.82 21.50 231.34 20.95L231.34 20.95Q231.00 20.59 231.00 19.99L231.00 19.99Q231.00 19.32 231.44 18.54Q231.89 17.76 232.62 17.00Q233.35 16.25 234.20 15.67Q235.06 15.10 235.87 14.83L235.87 14.83Q237.00 14.47 237.67 14.47L237.67 14.47Q238.44 14.47 238.78 14.87Q239.11 15.26 239.21 15.96L239.21 15.96L239.21 16.03Q239.21 16.34 238.99 16.51L238.99 16.51Q238.90 16.56 238.85 16.56L238.85 16.56Q238.61 16.56 238.61 16.20L238.61 16.20Q238.61 16.03 238.54 15.73Q238.46 15.43 238.06 15.41L238.06 15.41Q237.50 15.34 236.75 15.64Q235.99 15.94 235.20 16.48Q234.41 17.02 233.70 17.66Q232.99 18.31 232.52 18.95Q232.06 19.58 231.98 20.06L231.98 20.06Q231.96 20.14 231.96 20.21Q231.96 20.28 231.96 20.33L231.96 20.33Q231.96 20.69 232.12 20.81Q232.27 20.93 232.49 20.93L232.49 20.93Q232.90 20.93 233.42 20.68Q233.95 20.42 234.42 20.11Q234.89 19.80 235.08 19.63L235.08 19.63Q235.82 19.01 236.77 18.25Q237.72 17.50 238.46 16.85L238.46 16.85Q238.58 16.75 238.82 16.75L238.82 16.75Q239.18 16.75 239.42 16.94L239.42 16.94Q239.52 17.02 239.52 17.21L239.52 17.21Q239.52 17.50 239.30 17.93L239.30 17.93Q238.92 18.74 238.66 19.39Q238.39 20.04 238.39 20.45L238.39 20.45Q238.39 21.02 239.06 21.02L239.06 21.02Q239.59 21.02 240.77 20.62L240.77 20.62Q241.99 20.16 243.25 19.34Q244.51 18.53 245.52 17.71L245.52 17.71Q245.64 17.59 245.76 17.51Q245.88 17.42 245.98 17.35L245.98 17.35Q246.10 17.26 246.20 17.17Q246.31 17.09 246.46 16.97L246.46 16.97Q246.53 16.94 246.62 16.94L246.62 16.94Q246.82 16.94 246.82 17.11L246.82 17.11Q246.82 17.26 246.70 17.38L246.70 17.38Q246.55 17.57 246.00 18.07Q245.45 18.58 244.64 19.20Q243.84 19.82 242.89 20.39Q241.94 20.95 240.98 21.29L240.98 21.29Q240.62 21.41 240.16 21.52Q239.69 21.62 239.23 21.62ZM248.95 21.79L248.95 21.79Q247.73 21.79 246.85 21.17Q245.98 20.54 245.95 19.06L245.95 19.06Q245.95 18.86 245.99 18.52Q246.02 18.17 246.07 17.88L246.07 17.88Q245.71 17.88 245.71 17.66L245.71 17.66Q245.71 17.54 245.90 17.35L245.90 17.35Q246.17 17.18 246.28 17.09Q246.38 16.99 246.41 16.90L246.41 16.90Q246.77 15.89 247.40 14.78Q248.04 13.68 248.86 12.64Q249.67 11.59 250.57 10.75Q251.47 9.91 252.37 9.42Q253.27 8.93 254.09 8.93L254.09 8.93Q254.59 8.93 254.83 9.17Q255.07 9.41 255.07 9.74L255.07 9.74Q255.07 10.66 254.42 11.64Q253.78 12.62 252.77 13.56Q251.76 14.50 250.67 15.31Q249.58 16.13 248.65 16.69Q247.73 17.26 247.27 17.47L247.27 17.47Q247.15 17.78 247.09 18.13Q247.03 18.48 247.03 18.84L247.03 18.84Q247.03 19.80 247.48 20.50Q247.92 21.19 248.88 21.19L248.88 21.19Q249.58 21.19 250.40 20.90Q251.23 20.62 252.12 20.21L252.12 20.21Q253.13 19.70 254.06 19.09Q255.00 18.48 255.72 17.94Q256.44 17.40 256.75 17.11L256.75 17.11Q256.85 17.02 256.91 17.00Q256.97 16.99 256.99 16.99L256.99 16.99Q257.11 17.04 257.11 17.16L257.11 17.16Q257.11 17.38 256.90 17.64L256.90 17.64Q255.91 18.62 254.74 19.52Q253.56 20.42 252.24 21.02L252.24 21.02Q251.47 21.38 250.61 21.59Q249.74 21.79 248.95 21.79ZM247.51 16.61L247.51 16.61Q247.97 16.34 248.78 15.78Q249.60 15.22 250.54 14.47Q251.47 13.73 252.32 12.90Q253.18 12.07 253.73 11.26Q254.28 10.44 254.28 9.72L254.28 9.72Q254.28 9.62 254.21 9.62L254.21 9.62Q253.97 9.62 253.49 9.92Q253.01 10.22 252.43 10.69Q251.86 11.16 251.33 11.65Q250.80 12.14 250.44 12.53L250.44 12.53Q249.70 13.32 248.89 14.36Q248.09 15.41 247.51 16.61Z"/></svg>