<svg xmlns="http://www.w3.org/2000/svg" xmlns:xlink="http://www.w3.org/1999/xlink" width="218.11200000000002" height="33.792"><path fill="black" d="M1.40 23.56L0.91 23.56L6.07 8.22L7.07 8.22L12.25 23.56L11.76 23.56L6.73 8.60L6.41 8.60L1.40 23.56ZM10.10 18.13L3.05 18.13L3.05 17.71L10.10 17.71L10.10 18.13ZM23.59 23.56L23.15 23.56L23.15 16.12Q23.15 14.84 22.81 13.94Q22.46 13.04 21.70 12.56Q20.93 12.07 19.64 12.07L19.64 12.07Q18.46 12.07 17.57 12.55Q16.69 13.02 16.16 13.85Q15.64 14.69 15.47 15.76L15.47 15.76L15.25 15.30L15.38 15.30Q15.49 14.32 16.01 13.49Q16.54 12.67 17.46 12.17Q18.38 11.68 19.67 11.68L19.67 11.68Q21.12 11.68 21.98 12.21Q22.84 12.74 23.21 13.73Q23.59 14.72 23.59 16.09L23.59 16.09L23.59 23.56ZM15.55 23.56L15.11 23.56L15.11 11.90L15.55 11.90L15.50 14.95L15.55 14.95L15.55 23.56ZM31.39 23.78L31.39 23.78Q29.20 23.78 27.98 22.59Q26.77 21.40 26.77 19.22L26.77 19.22L26.77 16.54Q26.77 14.14 27.89 12.88Q29.02 11.63 31.15 11.63L31.15 11.63Q32.56 11.63 33.53 12.19Q34.51 12.76 35.02 13.83Q35.52 14.90 35.52 16.44L35.52 16.44L35.52 16.85Q35.52 17.11 35.51 17.38Q35.51 17.64 35.48 17.96L35.48 17.96L35.08 17.96Q35.08 17.54 35.08 17.16Q35.08 16.78 35.08 16.45L35.08 16.45Q35.08 15.02 34.63 14.04Q34.18 13.06 33.30 12.54Q32.42 12.02 31.15 12.02L31.15 12.02Q29.23 12.02 28.22 13.18Q27.22 14.33 27.22 16.54L27.22 16.54L27.22 17.71L27.22 17.81L27.22 19.21Q27.22 20.20 27.50 20.96Q27.78 21.73 28.32 22.27Q28.86 22.80 29.64 23.08Q30.42 23.36 31.40 23.36L31.40 23.36Q32.54 23.36 33.50 23.01Q34.46 22.66 35.30 22.00L35.30 22.00L35.24 22.52Q34.54 23.10 33.55 23.44Q32.57 23.78 31.39 23.78ZM35.33 17.96L26.98 17.96L26.98 17.57L35.33 17.57L35.33 17.96ZM46.94 23.56L46.32 23.56L40.46 17.50L38.99 17.50L38.99 17.09L40.46 17.09L46.04 11.90L46.68 11.90L40.74 17.42L40.74 17.14L46.94 23.56ZM39.14 23.56L38.70 23.56L38.70 7.61L39.14 7.61L39.14 23.56ZM60.74 23.56L60.28 23.56L60.28 8.22L60.74 8.22L60.74 23.56ZM65.65 8.63L55.37 8.63L55.37 8.22L65.65 8.22L65.65 8.63ZM74.38 23.56L73.92 23.56L73.97 20.48L73.93 20.40L73.93 16.55L73.93 15.53Q73.93 13.85 73.09 12.97Q72.24 12.08 70.48 12.08L70.48 12.08Q69.17 12.08 68.14 12.51Q67.10 12.94 66.40 13.48L66.40 13.48L66.46 12.97Q66.83 12.68 67.40 12.38Q67.97 12.08 68.74 11.88Q69.52 11.68 70.48 11.68L70.48 11.68Q71.47 11.68 72.20 11.93Q72.94 12.19 73.42 12.68Q73.91 13.18 74.14 13.89Q74.38 14.60 74.38 15.52L74.38 15.52L74.38 23.56ZM69.67 23.78L69.67 23.78Q67.93 23.78 66.99 22.97Q66.05 22.16 66.05 20.60L66.05 20.60L66.05 20.33Q66.05 18.94 66.91 18.17Q67.78 17.41 69.80 17.11L69.80 17.11L74.15 16.46L74.16 16.87L69.89 17.50Q68.09 17.76 67.29 18.41Q66.49 19.06 66.49 20.30L66.49 20.30L66.49 20.58Q66.49 21.96 67.33 22.67Q68.16 23.39 69.73 23.39L69.73 23.39Q70.98 23.39 71.87 22.90Q72.77 22.42 73.31 21.58Q73.85 20.75 74.00 19.70L74.00 19.70L74.23 20.15L74.09 20.15Q73.99 21.10 73.46 21.93Q72.94 22.76 71.99 23.27Q71.04 23.78 69.67 23.78ZM93.30 23.56L92.86 23.56L92.86 16.12Q92.86 14.84 92.54 13.94Q92.23 13.04 91.53 12.56Q90.83 12.07 89.65 12.07L89.65 12.07Q88.58 12.07 87.77 12.53Q86.96 13.00 86.47 13.79Q85.97 14.59 85.82 15.60L85.82 15.60L85.57 15.12L85.69 15.12Q85.80 14.22 86.30 13.43Q86.81 12.65 87.66 12.16Q88.51 11.68 89.68 11.68L89.68 11.68Q91.01 11.68 91.80 12.21Q92.59 12.74 92.95 13.73Q93.30 14.72 93.30 16.09L93.30 16.09L93.30 23.56ZM78.52 23.56L78.07 23.56L78.07 11.90L78.52 11.90L78.47 14.98L78.52 14.98L78.52 23.56ZM85.91 23.56L85.46 23.56L85.46 16.13Q85.46 14.86 85.15 13.95Q84.84 13.04 84.14 12.56Q83.45 12.07 82.28 12.07L82.28 12.07Q81.18 12.07 80.37 12.55Q79.56 13.02 79.07 13.85Q78.59 14.69 78.43 15.76L78.43 15.76L78.18 15.30L78.35 15.30Q78.46 14.32 78.94 13.49Q79.42 12.67 80.27 12.17Q81.12 11.68 82.31 11.68L82.31 11.68Q83.90 11.68 84.76 12.50Q85.62 13.32 85.85 14.96L85.85 14.96Q85.88 15.24 85.90 15.49Q85.91 15.74 85.91 16.02L85.91 16.02L85.91 23.56ZM97.50 23.56L97.06 23.56L97.06 11.90L97.50 11.90L97.50 23.56ZM97.28 9.29L97.28 9.29Q97.03 9.29 96.90 9.13Q96.77 8.96 96.77 8.63L96.77 8.63L96.77 8.52Q96.77 8.20 96.90 8.03Q97.03 7.87 97.28 7.87L97.28 7.87Q97.54 7.87 97.66 8.03Q97.79 8.20 97.79 8.52L97.79 8.52L97.79 8.63Q97.79 8.96 97.66 9.13Q97.54 9.29 97.28 9.29ZM102.00 23.56L101.56 23.56L101.56 7.61L102.00 7.61L102.00 23.56ZM116.15 23.56L115.68 23.56L115.68 8.63L115.55 8.63L111.62 11.39L111.65 10.85L115.37 8.22L116.15 8.22L116.15 23.56ZM124.70 23.77L124.70 23.77Q122.32 23.77 121.11 22.34Q119.90 20.92 119.90 18.28L119.90 18.28L119.90 13.52Q119.90 10.87 121.11 9.44Q122.32 8.00 124.70 8.00L124.70 8.00Q127.10 8.00 128.30 9.44Q129.50 10.87 129.50 13.52L129.50 13.52L129.50 18.28Q129.50 20.92 128.30 22.34Q127.10 23.77 124.70 23.77ZM124.70 23.34L124.70 23.34Q126.89 23.34 127.96 22.03Q129.04 20.71 129.04 18.29L129.04 18.29L129.04 13.50Q129.04 11.06 127.96 9.75Q126.89 8.44 124.70 8.44L124.70 8.44Q122.53 8.44 121.45 9.75Q120.37 11.06 120.37 13.50L120.37 13.50L120.37 18.29Q120.37 20.71 121.45 22.03Q122.53 23.34 124.70 23.34ZM137.45 23.77L137.45 23.77Q135.06 23.77 133.85 22.34Q132.65 20.92 132.65 18.28L132.65 18.28L132.65 13.52Q132.65 10.87 133.85 9.44Q135.06 8.00 137.45 8.00L137.45 8.00Q139.85 8.00 141.05 9.44Q142.25 10.87 142.25 13.52L142.25 13.52L142.25 18.28Q142.25 20.92 141.05 22.34Q139.85 23.77 137.45 23.77ZM137.45 23.34L137.45 23.34Q139.63 23.34 140.71 22.03Q141.78 20.71 141.78 18.29L141.78 18.29L141.78 13.50Q141.78 11.06 140.71 9.75Q139.63 8.44 137.45 8.44L137.45 8.44Q135.28 8.44 134.20 9.75Q133.12 11.06 133.12 13.50L133.12 13.50L133.12 18.29Q133.12 20.71 134.20 22.03Q135.28 23.34 137.45 23.34ZM161.08 23.56L160.63 23.56L160.63 16.12Q160.63 14.84 160.29 13.94Q159.95 13.04 159.18 12.56Q158.41 12.07 157.13 12.07L157.13 12.07Q155.94 12.07 155.06 12.55Q154.18 13.02 153.65 13.85Q153.12 14.69 152.95 15.76L152.95 15.76L152.74 15.30L152.87 15.30Q152.98 14.32 153.50 13.49Q154.02 12.67 154.94 12.17Q155.87 11.68 157.15 11.68L157.15 11.68Q158.60 11.68 159.46 12.21Q160.32 12.74 160.70 13.73Q161.08 14.72 161.08 16.09L161.08 16.09L161.08 23.56ZM153.04 23.56L152.59 23.56L152.59 11.90L153.04 11.90L152.99 14.95L153.04 14.95L153.04 23.56ZM168.83 23.83L168.83 23.83Q166.58 23.83 165.42 22.54Q164.26 21.24 164.26 18.82L164.26 18.82L164.26 16.62Q164.26 14.20 165.43 12.91Q166.60 11.63 168.83 11.63L168.83 11.63Q171.06 11.63 172.23 12.91Q173.40 14.20 173.40 16.62L173.40 16.62L173.40 18.82Q173.40 21.24 172.23 22.54Q171.06 23.83 168.83 23.83ZM168.83 23.44L168.83 23.44Q170.83 23.44 171.89 22.25Q172.96 21.06 172.96 18.82L172.96 18.82L172.96 16.62Q172.96 14.39 171.90 13.21Q170.84 12.02 168.83 12.02L168.83 12.02Q166.81 12.02 165.76 13.21Q164.70 14.39 164.70 16.62L164.70 16.62L164.70 18.82Q164.70 21.06 165.76 22.25Q166.81 23.44 168.83 23.44ZM177.13 16.15L177.13 16.15L176.90 15.86L177.04 15.76Q177.43 13.91 178.58 12.82Q179.74 11.74 181.42 11.74L181.42 11.74Q181.92 11.74 182.31 11.82Q182.70 11.90 182.96 12.02L182.96 12.02L183.00 12.46Q182.69 12.32 182.28 12.24Q181.87 12.16 181.38 12.16L181.38 12.16Q179.90 12.16 178.77 13.16Q177.64 14.16 177.13 16.15ZM177.20 23.56L176.76 23.56L176.76 11.90L177.20 11.90L177.14 15.52L177.20 15.58L177.20 23.56ZM200.62 23.56L200.17 23.56L200.17 16.12Q200.17 14.84 199.86 13.94Q199.55 13.04 198.85 12.56Q198.14 12.07 196.97 12.07L196.97 12.07Q195.90 12.07 195.09 12.53Q194.28 13.00 193.78 13.79Q193.28 14.59 193.14 15.60L193.14 15.60L192.89 15.12L193.01 15.12Q193.12 14.22 193.62 13.43Q194.12 12.65 194.98 12.16Q195.83 11.68 196.99 11.68L196.99 11.68Q198.32 11.68 199.12 12.21Q199.91 12.74 200.26 13.73Q200.62 14.72 200.62 16.09L200.62 16.09L200.62 23.56ZM185.83 23.56L185.39 23.56L185.39 11.90L185.83 11.90L185.78 14.98L185.83 14.98L185.83 23.56ZM193.22 23.56L192.78 23.56L192.78 16.13Q192.78 14.86 192.47 13.95Q192.16 13.04 191.46 12.56Q190.76 12.07 189.60 12.07L189.60 12.07Q188.50 12.07 187.69 12.55Q186.88 13.02 186.39 13.85Q185.90 14.69 185.75 15.76L185.75 15.76L185.50 15.30L185.66 15.30Q185.77 14.32 186.25 13.49Q186.73 12.67 187.58 12.17Q188.44 11.68 189.62 11.68L189.62 11.68Q191.22 11.68 192.08 12.50Q192.94 13.32 193.16 14.96L193.16 14.96Q193.20 15.24 193.21 15.49Q193.22 15.74 193.22 16.02L193.22 16.02L193.22 23.56ZM211.88 23.56L211.43 23.56L211.48 20.48L211.44 20.40L211.44 16.55L211.44 15.53Q211.44 13.85 210.59 12.97Q209.75 12.08 207.98 12.08L207.98 12.08Q206.68 12.08 205.64 12.51Q204.61 12.94 203.90 13.48L203.90 13.48L203.96 12.97Q204.34 12.68 204.91 12.38Q205.48 12.08 206.25 11.88Q207.02 11.68 207.98 11.68L207.98 11.68Q208.98 11.68 209.71 11.93Q210.44 12.19 210.93 12.68Q211.42 13.18 211.65 13.89Q211.88 14.60 211.88 15.52L211.88 15.52L211.88 23.56ZM207.18 23.78L207.18 23.78Q205.44 23.78 204.50 22.97Q203.56 22.16 203.56 20.60L203.56 20.60L203.56 20.33Q203.56 18.94 204.42 18.17Q205.28 17.41 207.31 17.11L207.31 17.11L211.66 16.46L211.67 16.87L207.40 17.50Q205.60 17.76 204.80 18.41Q204.00 19.06 204.00 20.30L204.00 20.30L204.00 20.58Q204.00 21.96 204.83 22.67Q205.67 23.39 207.24 23.39L207.24 23.39Q208.49 23.39 209.38 22.90Q210.28 22.42 210.82 21.58Q211.36 20.75 211.51 19.70L211.51 19.70L211.74 20.15L211.60 20.15Q211.50 21.10 210.97 21.93Q210.44 22.76 209.50 23.27Q208.55 23.78 207.18 23.78ZM216.10 23.56L215.65 23.56L215.65 7.61L216.10 7.61L216.10 23.56Z"/></svg>