<svg xmlns="http://www.w3.org/2000/svg" xmlns:xlink="http://www.w3.org/1999/xlink" width="200.11200000000002" height="39.192"><path fill="black" d="M8.71 8.64L8.71 8.64Q9.31 8.64 9.83 8.86Q10.34 9.07 10.51 9.72L10.51 9.72L14.69 23.78Q14.78 24.10 14.98 24.55Q15.17 25.01 15.48 25.34L15.48 25.34Q15.26 25.58 14.81 25.84Q14.35 26.09 13.51 26.09L13.51 26.09Q12.74 26.09 12.19 25.76Q11.64 25.44 11.50 24.79L11.50 24.79L7.61 9.91L7.94 9.98L4.49 23.83Q4.42 24.12 4.37 24.40Q4.32 24.67 4.32 24.94L4.32 24.94Q4.32 25.22 4.39 25.42Q4.46 25.61 4.58 25.73L4.58 25.73Q4.22 25.87 3.80 25.98Q3.38 26.09 2.76 26.09L2.76 26.09Q1.80 26.09 1.34 25.76Q0.89 25.44 0.89 24.70L0.89 24.70Q0.89 24.38 0.97 23.94Q1.06 23.50 1.22 22.99L1.22 22.99L5.88 9.10Q7.27 8.64 8.71 8.64ZM4.34 20.88L4.34 19.10L12.31 19.10L12.31 20.88L4.34 20.88ZM18.53 26.02L18.53 26.02Q17.78 26.02 17.20 25.52Q16.61 25.03 16.61 24.14L16.61 24.14L16.61 16.73Q16.61 16.03 16.45 15.74Q16.30 15.46 15.98 15.46L15.98 15.46Q15.86 15.46 15.67 15.50Q15.48 15.55 15.36 15.74L15.36 15.74Q15.05 15.26 15.05 14.71L15.05 14.71Q15.05 13.97 15.55 13.49Q16.06 13.01 17.02 13.01L17.02 13.01Q18.17 13.01 18.85 13.82Q19.54 14.64 19.49 16.34L19.49 16.34L19.49 16.97L19.20 16.73Q19.54 14.83 20.39 13.92Q21.24 13.01 22.63 13.01L22.63 13.01Q24 13.01 24.88 13.74Q25.75 14.47 25.75 15.77L25.75 15.77Q25.75 16.70 25.18 17.32Q24.60 17.93 23.74 17.95L23.74 17.95Q22.68 17.95 22.22 17.42L22.22 17.42Q22.49 16.94 22.57 16.60Q22.66 16.25 22.66 15.77L22.66 15.77Q22.66 15.17 22.42 14.84Q22.18 14.52 21.67 14.52L21.67 14.52Q21.12 14.52 20.71 15.13Q20.30 15.74 20.09 16.99Q19.87 18.24 19.87 20.11L19.87 20.11Q19.87 21.24 19.88 22.02Q19.90 22.80 19.94 23.35Q19.99 23.90 20.10 24.36Q20.21 24.82 20.42 25.30L20.42 25.30Q20.21 25.49 19.72 25.74Q19.22 25.99 18.53 26.02ZM29.30 11.93L29.30 11.93Q28.51 11.93 27.97 11.39Q27.43 10.85 27.43 10.08L27.43 10.08Q27.43 9.29 27.97 8.75Q28.51 8.21 29.30 8.21L29.30 8.21Q30.07 8.21 30.61 8.75Q31.15 9.29 31.15 10.08L31.15 10.08Q31.15 10.85 30.61 11.39Q30.07 11.93 29.30 11.93ZM31.03 14.69L31.06 22.25Q31.06 22.92 31.14 23.75Q31.22 24.58 31.54 25.37L31.54 25.37Q31.32 25.56 30.83 25.84Q30.34 26.11 29.64 26.11L29.64 26.11Q28.87 26.11 28.33 25.66Q27.79 25.20 27.79 24.41L27.79 24.41L27.79 16.85Q27.79 16.15 27.71 15.34Q27.62 14.52 27.31 13.70L27.31 13.70Q27.53 13.51 28.01 13.25Q28.49 12.98 29.16 12.98L29.16 12.98Q29.98 12.98 30.50 13.43Q31.03 13.87 31.03 14.69L31.03 14.69ZM52.06 17.81L52.06 22.25Q52.06 22.78 52.14 23.68Q52.22 24.58 52.54 25.37L52.54 25.37Q52.22 25.66 51.76 25.88Q51.29 26.11 50.64 26.11L50.64 26.11Q49.82 26.11 49.28 25.66Q48.74 25.20 48.74 24.41L48.74 24.41L48.74 18.34Q48.74 17.33 48.67 16.45Q48.60 15.58 48.30 15.05Q48 14.52 47.33 14.52L47.33 14.52Q46.85 14.52 46.42 14.87Q45.98 15.22 45.65 15.90Q45.31 16.58 45.11 17.63Q44.90 18.67 44.90 20.04L44.90 20.04L44.90 22.25Q44.90 22.78 44.99 23.68Q45.07 24.58 45.38 25.37L45.38 25.37Q45.07 25.66 44.63 25.88Q44.18 26.11 43.54 26.11L43.54 26.11Q42.77 26.11 42.24 25.66Q41.71 25.20 41.71 24.41L41.71 24.41L41.71 18.34Q41.71 16.51 41.41 15.52Q41.11 14.52 40.13 14.52L40.13 14.52Q39.62 14.52 39.22 14.87Q38.81 15.22 38.51 15.91Q38.21 16.61 38.04 17.68Q37.87 18.74 37.87 20.16L37.87 20.16Q37.87 21.31 37.88 22.10Q37.90 22.90 37.94 23.45Q37.99 24 38.10 24.46Q38.21 24.91 38.42 25.39L38.42 25.39Q38.21 25.58 37.75 25.85Q37.30 26.11 36.53 26.11L36.53 26.11Q35.71 26.11 35.17 25.61Q34.63 25.10 34.63 24.24L34.63 24.24L34.61 16.73Q34.61 16.06 34.44 15.76Q34.27 15.46 33.94 15.46L33.94 15.46Q33.79 15.46 33.60 15.53Q33.41 15.60 33.29 15.79L33.29 15.79Q32.98 15.31 32.98 14.76L32.98 14.76Q32.98 13.99 33.50 13.50Q34.03 13.01 34.97 13.01L34.97 13.01Q36.14 13.01 36.80 13.85Q37.46 14.69 37.46 16.44L37.46 16.44L37.46 17.21L37.25 16.66Q37.61 15.02 38.56 14.02Q39.50 13.01 41.26 13.01L41.26 13.01Q42.91 13.01 43.75 13.93Q44.59 14.86 44.81 16.66L44.81 16.66L44.45 16.56Q44.69 15.50 45.19 14.70Q45.70 13.90 46.50 13.45Q47.30 13.01 48.41 13.01L48.41 13.01Q50.26 13.01 51.16 14.22Q52.06 15.43 52.06 17.81L52.06 17.81ZM64.70 25.99L64.70 25.99Q63.46 25.99 62.75 25.09Q62.04 24.19 62.04 21.89L62.04 21.89L62.04 20.98L62.62 21.10Q62.38 22.42 61.70 23.53Q61.03 24.65 59.98 25.32Q58.92 25.99 57.48 25.99L57.48 25.99Q56.11 25.99 55.21 25.27Q54.31 24.55 54.31 23.16L54.31 23.16Q54.31 22.01 54.95 21.20Q55.58 20.40 56.56 19.90Q57.53 19.39 58.51 19.10L58.51 19.10Q59.47 18.84 60.32 18.73Q61.18 18.62 61.85 18.60L61.85 18.60L61.85 18Q61.85 16.06 61.42 15.07Q60.98 14.09 59.86 14.09L59.86 14.09Q59.40 14.09 59.03 14.27Q58.66 14.45 58.45 14.83Q58.25 15.22 58.25 15.86L58.25 15.86Q58.25 16.34 58.42 16.85Q58.58 17.35 59.09 17.64L59.09 17.64Q58.80 17.93 58.33 18.07Q57.86 18.22 57.34 18.22L57.34 18.22Q56.16 18.22 55.52 17.57Q54.89 16.92 54.89 15.98L54.89 15.98Q54.89 14.54 56.29 13.78Q57.70 13.01 60.05 13.01L60.05 13.01Q62.74 13.01 63.98 14.21Q65.23 15.41 65.23 18.22L65.23 18.22L65.23 22.27Q65.23 23.54 66.02 23.54L66.02 23.54Q66.14 23.54 66.35 23.47Q66.55 23.40 66.67 23.23L66.67 23.23Q66.84 23.47 66.91 23.76Q66.98 24.05 66.98 24.26L66.98 24.26Q66.98 24.96 66.37 25.48Q65.76 25.99 64.70 25.99ZM59.21 23.86L59.21 23.86Q59.66 23.81 60.14 23.48Q60.62 23.16 61.03 22.60Q61.44 22.03 61.69 21.29Q61.94 20.54 61.94 19.66L61.94 19.66Q61.49 19.66 61.01 19.69Q60.53 19.73 60.08 19.85Q59.64 19.97 59.26 20.18L59.26 20.18Q58.68 20.50 58.31 21.06Q57.94 21.62 57.94 22.34L57.94 22.34Q57.94 22.94 58.24 23.44Q58.54 23.93 59.21 23.86ZM78.65 25.75L78.65 25.75Q77.83 25.92 77.00 25.91Q76.18 25.90 75.36 25.70L75.36 25.70Q75.48 24.58 75.78 23.06Q76.08 21.55 76.55 19.88Q77.02 18.22 77.62 16.60Q78.22 14.98 78.94 13.62Q79.66 12.26 80.47 11.42L80.47 11.42Q78.70 11.74 76.88 11.76Q75.07 11.78 73.15 11.78L73.15 11.78Q72.91 11.52 72.78 10.94Q72.65 10.37 72.66 9.76Q72.67 9.14 72.84 8.81L72.84 8.81Q74.06 8.90 75.22 8.95Q76.37 9 77.54 9L77.54 9L83.30 9Q83.45 9.38 83.44 10.10Q83.42 10.82 82.97 11.38L82.97 11.38Q82.20 12.46 81.54 13.91Q80.88 15.36 80.34 16.99Q79.80 18.62 79.43 20.23Q79.06 21.84 78.85 23.27Q78.65 24.70 78.65 25.75ZM91.73 26.09L91.73 26.09Q88.58 26.09 86.96 23.90Q85.34 21.72 85.34 17.38L85.34 17.38Q85.34 13.03 86.96 10.85Q88.58 8.66 91.73 8.66L91.73 8.66Q94.87 8.66 96.49 10.85Q98.11 13.03 98.11 17.38L98.11 17.38Q98.11 21.72 96.49 23.90Q94.87 26.09 91.73 26.09ZM91.73 24.96L91.73 24.96Q93.14 24.96 93.78 23.16Q94.42 21.36 94.42 17.38L94.42 17.38Q94.42 13.39 93.78 11.59Q93.14 9.79 91.73 9.79L91.73 9.79Q90.34 9.79 89.69 11.59Q89.04 13.39 89.04 17.38L89.04 17.38Q89.04 21.36 89.69 23.16Q90.34 24.96 91.73 24.96ZM107.11 26.09L107.11 26.09Q103.97 26.09 102.35 23.90Q100.73 21.72 100.73 17.38L100.73 17.38Q100.73 13.03 102.35 10.85Q103.97 8.66 107.11 8.66L107.11 8.66Q110.26 8.66 111.88 10.85Q113.50 13.03 113.50 17.38L113.50 17.38Q113.50 21.72 111.88 23.90Q110.26 26.09 107.11 26.09ZM107.11 24.96L107.11 24.96Q108.53 24.96 109.16 23.16Q109.80 21.36 109.80 17.38L109.80 17.38Q109.80 13.39 109.16 11.59Q108.53 9.79 107.11 9.79L107.11 9.79Q105.72 9.79 105.07 11.59Q104.42 13.39 104.42 17.38L104.42 17.38Q104.42 21.36 105.07 23.16Q105.72 24.96 107.11 24.96ZM123.48 26.11L123.48 26.11Q122.64 26.11 122.09 25.61Q121.54 25.10 121.54 24.24L121.54 24.24L121.54 16.73Q121.51 16.03 121.37 15.74Q121.22 15.46 120.91 15.46L120.91 15.46Q120.79 15.46 120.60 15.50Q120.41 15.55 120.29 15.74L120.29 15.74Q119.98 15.26 119.98 14.71L119.98 14.71Q119.98 13.97 120.48 13.49Q120.98 13.01 121.94 13.01L121.94 13.01Q123.07 13.01 123.74 13.78Q124.42 14.54 124.42 16.13L124.42 16.13L124.42 16.85L124.01 17.59Q124.20 16.15 124.72 15.13Q125.23 14.11 126.14 13.56Q127.06 13.01 128.40 13.01L128.40 13.01Q130.39 13.01 131.33 14.21Q132.26 15.41 132.26 17.81L132.26 17.81L132.26 22.25Q132.29 22.78 132.37 23.68Q132.46 24.58 132.77 25.37L132.77 25.37Q132.43 25.68 131.96 25.90Q131.50 26.11 130.87 26.11L130.87 26.11Q130.06 26.11 129.52 25.66Q128.98 25.20 128.98 24.41L128.98 24.41L128.98 18.34Q128.95 16.58 128.64 15.61Q128.33 14.64 127.27 14.64L127.27 14.64Q126.72 14.64 126.26 14.98Q125.81 15.31 125.48 16.00Q125.16 16.68 124.98 17.71Q124.80 18.74 124.80 20.11L124.80 20.11Q124.80 21.29 124.81 22.08Q124.82 22.87 124.87 23.44Q124.92 24 125.03 24.46Q125.14 24.91 125.35 25.39L125.35 25.39Q125.14 25.58 124.64 25.85Q124.15 26.11 123.48 26.11ZM140.47 26.09L140.47 26.09Q137.66 26.09 136.10 24.36Q134.54 22.63 134.54 19.56L134.54 19.56Q134.54 16.46 136.10 14.74Q137.66 13.01 140.47 13.01L140.47 13.01Q143.28 13.01 144.84 14.74Q146.40 16.46 146.40 19.56L146.40 19.56Q146.40 22.63 144.84 24.36Q143.28 26.09 140.47 26.09ZM140.47 24.98L140.47 24.98Q141.70 24.98 142.27 23.62Q142.85 22.25 142.85 19.56L142.85 19.56Q142.85 16.85 142.27 15.48Q141.70 14.11 140.47 14.11L140.47 14.11Q139.22 14.11 138.65 15.48Q138.07 16.85 138.07 19.56L138.07 19.56Q138.07 22.25 138.65 23.62Q139.22 24.98 140.47 24.98ZM151.06 26.02L151.06 26.02Q150.31 26.02 149.72 25.52Q149.14 25.03 149.14 24.14L149.14 24.14L149.14 16.73Q149.14 16.03 148.98 15.74Q148.82 15.46 148.51 15.46L148.51 15.46Q148.39 15.46 148.20 15.50Q148.01 15.55 147.89 15.74L147.89 15.74Q147.58 15.26 147.58 14.71L147.58 14.71Q147.58 13.97 148.08 13.49Q148.58 13.01 149.54 13.01L149.54 13.01Q150.70 13.01 151.38 13.82Q152.06 14.64 152.02 16.34L152.02 16.34L152.02 16.97L151.73 16.73Q152.06 14.83 152.92 13.92Q153.77 13.01 155.16 13.01L155.16 13.01Q156.53 13.01 157.40 13.74Q158.28 14.47 158.28 15.77L158.28 15.77Q158.28 16.70 157.70 17.32Q157.13 17.93 156.26 17.95L156.26 17.95Q155.21 17.95 154.75 17.42L154.75 17.42Q155.02 16.94 155.10 16.60Q155.18 16.25 155.18 15.77L155.18 15.77Q155.18 15.17 154.94 14.84Q154.70 14.52 154.20 14.52L154.20 14.52Q153.65 14.52 153.24 15.13Q152.83 15.74 152.62 16.99Q152.40 18.24 152.40 20.11L152.40 20.11Q152.40 21.24 152.41 22.02Q152.42 22.80 152.47 23.35Q152.52 23.90 152.63 24.36Q152.74 24.82 152.95 25.30L152.95 25.30Q152.74 25.49 152.24 25.74Q151.75 25.99 151.06 26.02ZM178.01 17.81L178.01 22.25Q178.01 22.78 178.09 23.68Q178.18 24.58 178.49 25.37L178.49 25.37Q178.18 25.66 177.71 25.88Q177.24 26.11 176.59 26.11L176.59 26.11Q175.78 26.11 175.24 25.66Q174.70 25.20 174.70 24.41L174.70 24.41L174.70 18.34Q174.70 17.33 174.62 16.45Q174.55 15.58 174.25 15.05Q173.95 14.52 173.28 14.52L173.28 14.52Q172.80 14.52 172.37 14.87Q171.94 15.22 171.60 15.90Q171.26 16.58 171.06 17.63Q170.86 18.67 170.86 20.04L170.86 20.04L170.86 22.25Q170.86 22.78 170.94 23.68Q171.02 24.58 171.34 25.37L171.34 25.37Q171.02 25.66 170.58 25.88Q170.14 26.11 169.49 26.11L169.49 26.11Q168.72 26.11 168.19 25.66Q167.66 25.20 167.66 24.41L167.66 24.41L167.66 18.34Q167.66 16.51 167.36 15.52Q167.06 14.52 166.08 14.52L166.08 14.52Q165.58 14.52 165.17 14.87Q164.76 15.22 164.46 15.91Q164.16 16.61 163.99 17.68Q163.82 18.74 163.82 20.16L163.82 20.16Q163.82 21.31 163.84 22.10Q163.85 22.90 163.90 23.45Q163.94 24 164.05 24.46Q164.16 24.91 164.38 25.39L164.38 25.39Q164.16 25.58 163.70 25.85Q163.25 26.11 162.48 26.11L162.48 26.11Q161.66 26.11 161.12 25.61Q160.58 25.10 160.58 24.24L160.58 24.24L160.56 16.73Q160.56 16.06 160.39 15.76Q160.22 15.46 159.89 15.46L159.89 15.46Q159.74 15.46 159.55 15.53Q159.36 15.60 159.24 15.79L159.24 15.79Q158.93 15.31 158.93 14.76L158.93 14.76Q158.93 13.99 159.46 13.50Q159.98 13.01 160.92 13.01L160.92 13.01Q162.10 13.01 162.76 13.85Q163.42 14.69 163.42 16.44L163.42 16.44L163.42 17.21L163.20 16.66Q163.56 15.02 164.51 14.02Q165.46 13.01 167.21 13.01L167.21 13.01Q168.86 13.01 169.70 13.93Q170.54 14.86 170.76 16.66L170.76 16.66L170.40 16.56Q170.64 15.50 171.14 14.70Q171.65 13.90 172.45 13.45Q173.26 13.01 174.36 13.01L174.36 13.01Q176.21 13.01 177.11 14.22Q178.01 15.43 178.01 17.81L178.01 17.81ZM190.66 25.99L190.66 25.99Q189.41 25.99 188.70 25.09Q187.99 24.19 187.99 21.89L187.99 21.89L187.99 20.98L188.57 21.10Q188.33 22.42 187.66 23.53Q186.98 24.65 185.93 25.32Q184.87 25.99 183.43 25.99L183.43 25.99Q182.06 25.99 181.16 25.27Q180.26 24.55 180.26 23.16L180.26 23.16Q180.26 22.01 180.90 21.20Q181.54 20.40 182.51 19.90Q183.48 19.39 184.46 19.10L184.46 19.10Q185.42 18.84 186.28 18.73Q187.13 18.62 187.80 18.60L187.80 18.60L187.80 18Q187.80 16.06 187.37 15.07Q186.94 14.09 185.81 14.09L185.81 14.09Q185.35 14.09 184.98 14.27Q184.61 14.45 184.40 14.83Q184.20 15.22 184.20 15.86L184.20 15.86Q184.20 16.34 184.37 16.85Q184.54 17.35 185.04 17.64L185.04 17.64Q184.75 17.93 184.28 18.07Q183.82 18.22 183.29 18.22L183.29 18.22Q182.11 18.22 181.48 17.57Q180.84 16.92 180.84 15.98L180.84 15.98Q180.84 14.54 182.24 13.78Q183.65 13.01 186 13.01L186 13.01Q188.69 13.01 189.94 14.21Q191.18 15.41 191.18 18.22L191.18 18.22L191.18 22.27Q191.18 23.54 191.98 23.54L191.98 23.54Q192.10 23.54 192.30 23.47Q192.50 23.40 192.62 23.23L192.62 23.23Q192.79 23.47 192.86 23.76Q192.94 24.05 192.94 24.26L192.94 24.26Q192.94 24.96 192.32 25.48Q191.71 25.99 190.66 25.99ZM185.16 23.86L185.16 23.86Q185.62 23.81 186.10 23.48Q186.58 23.16 186.98 22.60Q187.39 22.03 187.64 21.29Q187.90 20.54 187.90 19.66L187.90 19.66Q187.44 19.66 186.96 19.69Q186.48 19.73 186.04 19.85Q185.59 19.97 185.21 20.18L185.21 20.18Q184.63 20.50 184.26 21.06Q183.89 21.62 183.89 22.34L183.89 22.34Q183.89 22.94 184.19 23.44Q184.49 23.93 185.16 23.86ZM197.59 25.99L197.59 25.99Q196.13 25.99 195.37 25.07Q194.62 24.14 194.62 22.56L194.62 22.56L194.62 9.86Q194.62 9.05 195.16 8.60Q195.70 8.16 196.51 8.16L196.51 8.16Q197.23 8.16 197.71 8.42Q198.19 8.69 198.38 8.88L198.38 8.88Q198.07 10.03 197.99 11.05Q197.90 12.07 197.90 13.56L197.90 13.56L197.90 22.27Q197.90 22.90 198.12 23.22Q198.34 23.54 198.74 23.54L198.74 23.54Q198.91 23.54 199.13 23.47Q199.34 23.40 199.44 23.23L199.44 23.23Q199.63 23.47 199.70 23.76Q199.78 24.05 199.78 24.26L199.78 24.26Q199.78 25.01 199.13 25.50Q198.48 25.99 197.59 25.99Z"/></svg>