<svg xmlns="http://www.w3.org/2000/svg" xmlns:xlink="http://www.w3.org/1999/xlink" width="231.88800000000003" height="36.528"><path fill="black" d="M6.62 25.66L6.62 25.66Q4.97 25.66 3.65 25.31Q2.33 24.96 1.18 24.36L1.18 24.36L0.94 20.21L1.39 20.21L3.50 23.47Q4.01 23.86 4.69 24.11Q5.38 24.36 6.12 24.36L6.12 24.36Q7.34 24.36 8.17 23.83Q9 23.30 9 22.15L9 22.15Q9 21.48 8.70 21.01Q8.40 20.54 7.54 20.08Q6.67 19.61 4.97 18.89L4.97 18.89Q3.26 18.19 2.35 17.08Q1.44 15.96 1.44 14.50L1.44 14.50Q1.44 13.42 1.99 12.47Q2.54 11.52 3.46 10.82Q4.37 10.13 5.51 9.73Q6.65 9.34 7.82 9.34L7.82 9.34Q9.12 9.34 10.37 9.65Q11.62 9.96 12.58 10.49L12.58 10.49L12.82 14.33L12.38 14.33L10.39 11.52Q9.84 11.11 9.28 10.88Q8.71 10.66 8.02 10.66L8.02 10.66Q7.08 10.66 6.47 11.22Q5.86 11.78 5.86 12.77L5.86 12.77Q5.86 13.32 6.14 13.78Q6.43 14.23 7.13 14.66Q7.82 15.10 9.07 15.65L9.07 15.65Q11.28 16.61 12.30 17.74Q13.32 18.86 13.32 20.54L13.32 20.54Q13.32 22.13 12.40 23.27Q11.47 24.41 9.94 25.03Q8.40 25.66 6.62 25.66ZM22.80 30.94L14.86 30.94L14.86 30.55L16.51 29.78L16.51 17.11L14.93 16.08L14.93 15.70L20.21 14.14L20.59 14.14L20.78 15.60L20.88 15.60Q21.77 14.83 22.58 14.48Q23.40 14.14 24.34 14.14L24.34 14.14Q25.32 14.14 26.22 14.78Q27.12 15.43 27.70 16.63Q28.27 17.83 28.27 19.49L28.27 19.49Q28.27 21.38 27.48 22.76Q26.69 24.14 25.39 24.90Q24.10 25.66 22.61 25.66L22.61 25.66Q22.13 25.66 21.68 25.61Q21.24 25.56 20.83 25.46L20.83 25.46L20.83 29.78L22.80 30.55L22.80 30.94ZM21.94 16.32L21.94 16.32Q21.60 16.32 21.37 16.40Q21.14 16.49 20.83 16.66L20.83 16.66L20.83 23.71Q20.95 23.98 21.25 24.16Q21.55 24.34 21.91 24.34L21.91 24.34Q22.37 24.34 22.84 24.01Q23.30 23.69 23.63 22.79Q23.95 21.89 23.95 20.14L23.95 20.14Q23.95 18.19 23.29 17.26Q22.63 16.32 21.94 16.32ZM35.14 25.66L35.14 25.66Q32.57 25.66 31.08 24.22Q29.59 22.78 29.59 20.40L29.59 20.40Q29.59 18.55 30.44 17.15Q31.30 15.74 32.76 14.94Q34.22 14.14 36.05 14.14L36.05 14.14Q38.04 14.14 39.10 15.42Q40.15 16.70 40.20 19.01L40.20 19.01L40.13 19.13L33.72 19.13Q33.72 19.30 33.72 19.49L33.72 19.49Q33.72 20.86 34.56 21.71Q35.40 22.56 37.18 22.56L37.18 22.56Q37.87 22.56 38.63 22.44Q39.38 22.32 40.15 21.94L40.15 21.94L40.22 21.94L40.22 22.44Q39.62 23.83 38.29 24.74Q36.96 25.66 35.14 25.66ZM35.38 15.22L35.38 15.22Q34.73 15.22 34.32 15.96Q33.91 16.70 33.79 18.07L33.79 18.07L36.98 18.07Q36.86 16.42 36.46 15.82Q36.05 15.22 35.38 15.22ZM46.97 25.66L46.97 25.66Q45.41 25.66 44.22 25.01Q43.03 24.36 42.35 23.17Q41.66 21.98 41.66 20.40L41.66 20.40Q41.66 18.55 42.43 17.15Q43.20 15.74 44.63 14.94Q46.06 14.14 48.02 14.14L48.02 14.14Q49.22 14.14 50.14 14.45Q51.05 14.76 51.53 15.31L51.53 15.31Q51.89 15.74 51.89 16.03L51.89 16.03Q51.89 16.20 51.84 16.32Q51.79 16.44 51.60 16.61L51.60 16.61L50.33 17.69L50.16 17.69L49.32 16.49Q48.86 15.86 48.54 15.53Q48.22 15.19 47.64 15.19L47.64 15.19Q46.66 15.19 46.22 16.33Q45.79 17.47 45.79 19.25L45.79 19.25Q45.79 20.71 46.55 21.64Q47.30 22.56 48.89 22.56L48.89 22.56Q49.58 22.56 50.35 22.44Q51.12 22.32 51.86 21.94L51.86 21.94L51.94 21.94L51.94 22.44Q51.34 23.83 50.04 24.74Q48.74 25.66 46.97 25.66ZM58.18 25.66L58.18 25.66Q56.45 25.66 55.39 25.03Q54.34 24.41 54.34 23.28L54.34 23.28L54.34 15.43L52.78 15.43L52.78 14.98L55.10 14.38L57.96 11.74L58.66 11.74L58.66 14.38L62.06 14.38L62.06 15.43L58.66 15.43L58.66 22.54Q58.66 23.16 59.17 23.45Q59.69 23.74 60.38 23.74L60.38 23.74Q60.82 23.74 61.14 23.69Q61.46 23.64 61.82 23.57L61.82 23.57L61.90 23.62L61.90 24.14Q61.42 24.74 60.35 25.20Q59.28 25.66 58.18 25.66ZM70.97 25.42L62.90 25.42L62.90 25.03L64.56 24.26L64.56 17.11L62.98 16.08L62.98 15.70L68.26 14.14L68.64 14.14L68.86 16.37L68.98 16.37Q69.60 15.43 70.06 14.95Q70.51 14.47 70.91 14.30Q71.30 14.14 71.81 14.14L71.81 14.14Q72.02 14.14 72.26 14.18Q72.50 14.23 72.72 14.30L72.72 14.30Q73.13 14.42 73.28 14.60Q73.44 14.78 73.44 15L73.44 15Q73.44 15.17 73.37 15.38L73.37 15.38L72.72 17.21L72.55 17.21L72.12 17.06Q71.71 16.92 71.41 16.86Q71.11 16.80 70.66 16.80L70.66 16.80Q70.13 16.80 69.67 17.05Q69.22 17.30 68.88 17.69L68.88 17.69L68.88 24.26L70.97 25.03L70.97 25.42ZM76.61 25.63L76.61 25.63Q75.82 25.63 75.13 25.30Q74.45 24.96 74.04 24.30Q73.63 23.64 73.66 22.70L73.66 22.70Q73.68 21.77 73.98 21.18Q74.28 20.59 75.12 20.17Q75.96 19.75 77.57 19.32L77.57 19.32L79.82 18.72L79.82 17.42Q79.82 16.44 79.34 15.91Q78.86 15.38 77.98 15.38L77.98 15.38Q76.66 15.38 76.66 16.42L76.66 16.42L76.66 17.81L76.58 17.90L74.76 17.90Q74.11 17.90 74.11 17.11L74.11 17.11Q74.11 16.58 74.59 16.10Q75.07 15.62 75.82 15.17L75.82 15.17Q76.80 14.57 77.57 14.35Q78.34 14.14 79.25 14.14L79.25 14.14Q80.64 14.14 81.74 14.51Q82.85 14.88 83.50 15.62Q84.14 16.37 84.14 17.50L84.14 17.50L84.14 23.54Q84.34 23.71 84.59 23.81Q84.84 23.90 85.18 23.90L85.18 23.90L85.70 23.90L85.80 24L85.80 24.50Q85.54 24.89 84.86 25.27Q84.19 25.66 83.06 25.66L83.06 25.66Q81.84 25.66 81.08 25.21Q80.33 24.77 79.92 23.88L79.92 23.88L79.82 23.88Q79.22 24.62 78.44 25.13Q77.66 25.63 76.61 25.63ZM77.66 21.89L77.66 21.89Q77.66 22.63 78.06 23.02Q78.46 23.40 79.13 23.40L79.13 23.40Q79.46 23.40 79.82 23.28L79.82 23.28L79.82 19.82Q78.67 20.09 78.17 20.54Q77.66 21 77.66 21.89ZM93.62 25.42L86.28 25.42L86.28 25.03L87.94 24.26L87.94 10.15L86.35 9.12L86.35 8.74L91.87 7.42L92.26 7.42L92.26 24.26L93.62 25.03L93.62 25.42ZM107.11 25.66L107.11 25.66Q105.38 25.66 104.02 25.19Q102.65 24.72 101.86 23.86Q101.06 22.99 101.06 21.82L101.06 21.82Q101.06 21.22 101.30 20.56Q101.54 19.90 102.19 19.26Q102.84 18.62 104.04 18.10L104.04 18.10Q102.65 17.14 102.16 16.14Q101.66 15.14 101.66 13.85L101.66 13.85Q101.66 12.60 102.47 11.58Q103.27 10.56 104.62 9.95Q105.96 9.34 107.62 9.34L107.62 9.34Q109.03 9.34 110.21 9.82Q111.38 10.30 112.09 11.14Q112.80 11.98 112.80 13.06L112.80 13.06Q112.80 14.04 111.96 14.83Q111.12 15.62 109.87 16.22L109.87 16.22Q111.89 17.33 112.72 18.40Q113.54 19.46 113.54 20.81L113.54 20.81Q113.54 22.10 112.78 23.21Q112.01 24.31 110.57 24.98Q109.13 25.66 107.11 25.66ZM105.60 12.36L105.60 12.36Q105.60 12.86 105.78 13.34Q105.96 13.82 106.61 14.36Q107.26 14.90 108.65 15.60L108.65 15.60Q109.10 15.17 109.39 14.47Q109.68 13.78 109.68 12.96L109.68 12.96Q109.68 11.66 109.07 11.05Q108.46 10.44 107.59 10.44L107.59 10.44Q106.68 10.44 106.14 10.96Q105.60 11.47 105.60 12.36ZM104.35 21.60L104.35 21.60Q104.35 22.92 105.11 23.74Q105.86 24.55 106.97 24.55L106.97 24.55Q108.12 24.55 108.73 23.95Q109.34 23.35 109.34 22.44L109.34 22.44Q109.34 21.94 109.21 21.55Q109.08 21.17 108.68 20.81Q108.29 20.45 107.51 19.99Q106.73 19.54 105.43 18.89L105.43 18.89Q105.34 18.84 105.26 18.79L105.26 18.79Q104.81 19.13 104.58 19.85Q104.35 20.57 104.35 21.60ZM121.70 25.66L121.70 25.66Q119.69 25.66 118.25 24.67Q116.81 23.69 116.04 21.85Q115.27 20.02 115.27 17.50L115.27 17.50Q115.27 15.14 116.09 13.31Q116.90 11.47 118.36 10.40Q119.81 9.34 121.70 9.34L121.70 9.34Q123.72 9.34 125.17 10.32Q126.62 11.30 127.39 13.14Q128.16 14.98 128.16 17.50L128.16 17.50Q128.16 19.85 127.33 21.68Q126.50 23.52 125.05 24.59Q123.60 25.66 121.70 25.66ZM122.04 24.46L122.04 24.46Q122.54 24.46 122.84 23.66Q123.14 22.87 123.29 21.47Q123.43 20.06 123.43 18.24L123.43 18.24Q123.43 16.80 123.35 15.42Q123.26 14.04 123.05 12.94Q122.83 11.83 122.44 11.18Q122.04 10.54 121.44 10.54L121.44 10.54Q120.65 10.54 120.32 12.17Q120.00 13.80 120.00 16.70L120.00 16.70Q120.00 18.17 120.10 19.55Q120.19 20.93 120.41 22.03Q120.62 23.14 121.02 23.80Q121.42 24.46 122.04 24.46ZM136.10 25.66L136.10 25.66Q134.09 25.66 132.65 24.67Q131.21 23.69 130.44 21.85Q129.67 20.02 129.67 17.50L129.67 17.50Q129.67 15.14 130.49 13.31Q131.30 11.47 132.76 10.40Q134.21 9.34 136.10 9.34L136.10 9.34Q138.12 9.34 139.57 10.32Q141.02 11.30 141.79 13.14Q142.56 14.98 142.56 17.50L142.56 17.50Q142.56 19.85 141.73 21.68Q140.90 23.52 139.45 24.59Q138.00 25.66 136.10 25.66ZM136.44 24.46L136.44 24.46Q136.94 24.46 137.24 23.66Q137.54 22.87 137.69 21.47Q137.83 20.06 137.83 18.24L137.83 18.24Q137.83 16.80 137.75 15.42Q137.66 14.04 137.45 12.94Q137.23 11.83 136.84 11.18Q136.44 10.54 135.84 10.54L135.84 10.54Q135.05 10.54 134.72 12.17Q134.40 13.80 134.40 16.70L134.40 16.70Q134.40 18.17 134.50 19.55Q134.59 20.93 134.81 22.03Q135.02 23.14 135.42 23.80Q135.82 24.46 136.44 24.46ZM156.65 25.42L149.78 25.42L149.78 25.03L151.44 24.26L151.44 16.87L149.86 16.08L149.86 15.70L155.14 14.14L155.52 14.14L155.74 15.91L155.86 15.91Q156.67 15.12 157.45 14.63Q158.23 14.14 159.41 14.14L159.41 14.14Q160.90 14.14 161.84 14.90Q162.79 15.67 162.79 17.18L162.79 17.18L162.79 24.26L164.45 25.03L164.45 25.42L157.58 25.42L157.58 25.03L158.47 24.26L158.47 18.07Q158.47 17.38 158.10 17.00Q157.73 16.63 157.13 16.63L157.13 16.63Q156.79 16.63 156.42 16.78Q156.05 16.92 155.76 17.11L155.76 17.11L155.76 24.26L156.65 25.03L156.65 25.42ZM171.31 25.66L171.31 25.66Q169.54 25.66 168.17 24.85Q166.80 24.05 166.04 22.74Q165.29 21.43 165.29 19.90L165.29 19.90Q165.29 18.36 166.04 17.04Q166.80 15.72 168.17 14.93Q169.54 14.14 171.31 14.14L171.31 14.14Q173.09 14.14 174.46 14.93Q175.82 15.72 176.58 17.04Q177.34 18.36 177.34 19.90L177.34 19.90Q177.34 21.43 176.58 22.74Q175.82 24.05 174.46 24.85Q173.09 25.66 171.31 25.66ZM171.53 24.38L171.53 24.38Q172.03 24.38 172.37 23.83Q172.70 23.28 172.86 22.38Q173.02 21.48 173.02 20.38L173.02 20.38Q173.02 19.03 172.82 17.90Q172.63 16.78 172.21 16.08Q171.79 15.38 171.14 15.38L171.14 15.38Q170.59 15.38 170.26 15.92Q169.92 16.46 169.76 17.36Q169.61 18.26 169.61 19.39L169.61 19.39Q169.61 20.71 169.81 21.85Q170.02 22.99 170.44 23.69Q170.86 24.38 171.53 24.38ZM186.48 25.42L178.42 25.42L178.42 25.03L180.07 24.26L180.07 17.11L178.49 16.08L178.49 15.70L183.77 14.14L184.15 14.14L184.37 16.37L184.49 16.37Q185.11 15.43 185.57 14.95Q186.02 14.47 186.42 14.30Q186.82 14.14 187.32 14.14L187.32 14.14Q187.54 14.14 187.78 14.18Q188.02 14.23 188.23 14.30L188.23 14.30Q188.64 14.42 188.80 14.60Q188.95 14.78 188.95 15L188.95 15Q188.95 15.17 188.88 15.38L188.88 15.38L188.23 17.21L188.06 17.21L187.63 17.06Q187.22 16.92 186.92 16.86Q186.62 16.80 186.17 16.80L186.17 16.80Q185.64 16.80 185.18 17.05Q184.73 17.30 184.39 17.69L184.39 17.69L184.39 24.26L186.48 25.03L186.48 25.42ZM195.91 25.42L189.05 25.42L189.05 25.03L190.70 24.26L190.70 16.87L189.12 16.08L189.12 15.70L194.40 14.14L194.78 14.14L195.00 15.91L195.12 15.91Q195.91 15.12 196.68 14.63Q197.45 14.14 198.62 14.14L198.62 14.14Q199.82 14.14 200.66 14.63Q201.50 15.12 201.82 16.10L201.82 16.10L201.91 16.10Q202.78 15.24 203.57 14.69Q204.36 14.14 205.61 14.14L205.61 14.14Q207.10 14.14 208.02 14.90Q208.94 15.67 208.94 17.18L208.94 17.18L208.94 24.26L210.60 25.03L210.60 25.42L203.71 25.42L203.71 25.03L204.62 24.26L204.62 18.07Q204.62 17.38 204.28 17.00Q203.93 16.63 203.33 16.63L203.33 16.63Q202.61 16.63 201.96 17.18L201.96 17.18L201.96 17.18L201.96 24.26L202.87 25.03L202.87 25.42L196.75 25.42L196.75 25.03L197.64 24.26L197.64 18.07Q197.64 17.38 197.29 17.00Q196.94 16.63 196.34 16.63L196.34 16.63Q196.01 16.63 195.66 16.78Q195.31 16.92 195.02 17.11L195.02 17.11L195.02 24.26L195.91 25.03L195.91 25.42ZM214.39 25.63L214.39 25.63Q213.60 25.63 212.92 25.30Q212.23 24.96 211.82 24.30Q211.42 23.64 211.44 22.70L211.44 22.70Q211.46 21.77 211.76 21.18Q212.06 20.59 212.90 20.17Q213.74 19.75 215.35 19.32L215.35 19.32L217.61 18.72L217.61 17.42Q217.61 16.44 217.13 15.91Q216.65 15.38 215.76 15.38L215.76 15.38Q214.44 15.38 214.44 16.42L214.44 16.42L214.44 17.81L214.37 17.90L212.54 17.90Q211.90 17.90 211.90 17.11L211.90 17.11Q211.90 16.58 212.38 16.10Q212.86 15.62 213.60 15.17L213.60 15.17Q214.58 14.57 215.35 14.35Q216.12 14.14 217.03 14.14L217.03 14.14Q218.42 14.14 219.53 14.51Q220.63 14.88 221.28 15.62Q221.93 16.37 221.93 17.50L221.93 17.50L221.93 23.54Q222.12 23.71 222.37 23.81Q222.62 23.90 222.96 23.90L222.96 23.90L223.49 23.90L223.58 24L223.58 24.50Q223.32 24.89 222.65 25.27Q221.98 25.66 220.85 25.66L220.85 25.66Q219.62 25.66 218.87 25.21Q218.11 24.77 217.70 23.88L217.70 23.88L217.61 23.88Q217.01 24.62 216.23 25.13Q215.45 25.63 214.39 25.63ZM215.45 21.89L215.45 21.89Q215.45 22.63 215.84 23.02Q216.24 23.40 216.91 23.40L216.91 23.40Q217.25 23.40 217.61 23.28L217.61 23.28L217.61 19.82Q216.46 20.09 215.95 20.54Q215.45 21 215.45 21.89ZM231.41 25.42L224.06 25.42L224.06 25.03L225.72 24.26L225.72 10.15L224.14 9.12L224.14 8.74L229.66 7.42L230.04 7.42L230.04 24.26L231.41 25.03L231.41 25.42Z"/></svg>