<svg xmlns="http://www.w3.org/2000/svg" xmlns:xlink="http://www.w3.org/1999/xlink" width="248.30399999999997" height="46.368"><path fill="black" d="M11.21 25.22L11.21 25.22Q10.78 25.25 10.58 25.00Q10.39 24.74 10.46 24.22L10.46 24.22Q10.51 23.76 10.72 23.51Q10.92 23.26 11.26 23.23L11.26 23.23Q13.66 23.06 15.60 22.31Q17.54 21.55 18.92 20.36Q20.30 19.18 21.05 17.68Q21.79 16.18 21.79 14.52L21.79 14.52Q21.79 13.22 21.19 12.56Q20.59 11.90 19.46 11.90L19.46 11.90Q18.48 11.90 17.40 12.42Q16.32 12.94 15.23 13.88Q14.14 14.83 13.12 16.14Q12.10 17.45 11.22 19.04Q10.34 20.64 9.70 22.44L9.70 22.44L5.98 33.94Q5.88 34.27 5.59 34.44Q5.30 34.61 4.75 34.61L4.75 34.61Q4.22 34.61 3.96 34.44Q3.70 34.27 3.82 33.89L3.82 33.89L10.03 14.81Q9.43 15.41 8.76 15.96Q8.09 16.51 7.36 17.05Q6.62 17.59 5.81 18.17L5.81 18.17Q5.30 18.50 4.97 18.38Q4.63 18.26 4.37 17.83L4.37 17.83Q4.13 17.45 4.18 17.10Q4.22 16.75 4.68 16.49L4.68 16.49Q6.10 15.60 7.31 14.68Q8.52 13.75 9.53 12.73Q10.54 11.71 11.28 10.61L11.28 10.61Q11.57 10.20 11.81 10.06Q12.05 9.91 12.58 9.91L12.58 9.91Q13.13 9.91 13.38 10.08Q13.63 10.25 13.49 10.63L13.49 10.63L12.24 14.59Q13.34 13.10 14.58 12.05Q15.82 10.99 17.12 10.45Q18.43 9.91 19.75 9.91L19.75 9.91Q21.05 9.91 22.00 10.44Q22.94 10.97 23.45 11.93Q23.95 12.89 23.95 14.21L23.95 14.21Q23.95 16.46 23.02 18.40Q22.08 20.33 20.36 21.80Q18.65 23.28 16.31 24.17Q13.97 25.06 11.21 25.22ZM16.10 34.68L16.10 34.68Q15.65 34.68 15.52 34.40Q15.38 34.13 15.48 33.78Q15.58 33.43 15.86 33.16Q16.15 32.88 16.54 32.88L16.54 32.88Q17.09 32.88 17.96 32.44Q18.84 31.99 19.93 31.18Q21.02 30.36 22.24 29.26Q23.45 28.15 24.71 26.84Q25.97 25.54 27.16 24.11Q28.34 22.68 29.38 21.22Q30.41 19.75 31.19 18.30Q31.97 16.85 32.41 15.52Q32.86 14.18 32.86 13.06L32.86 13.06Q32.86 12.70 33.16 12.52Q33.46 12.34 33.86 12.34Q34.27 12.34 34.57 12.52Q34.87 12.70 34.87 13.06L34.87 13.06Q34.87 14.23 34.38 15.66Q33.89 17.09 33.02 18.65Q32.16 20.21 31.00 21.82Q29.83 23.42 28.50 25.01Q27.17 26.59 25.75 28.02Q24.34 29.45 22.93 30.66Q21.53 31.87 20.26 32.78Q18.98 33.70 17.92 34.19Q16.85 34.68 16.10 34.68ZM24.02 34.63L24.02 34.63Q23.14 34.63 22.73 34.24Q22.32 33.84 22.25 33.24Q22.18 32.64 22.32 31.97Q22.46 31.30 22.63 30.72L22.63 30.72L27.72 15.17Q28.61 12.36 29.70 11.09Q30.79 9.82 32.33 9.82L32.33 9.82Q33.10 9.82 33.66 10.22Q34.22 10.63 34.55 11.35Q34.87 12.07 34.87 13.06L34.87 13.06Q34.87 13.51 34.57 13.73Q34.27 13.94 33.86 13.94Q33.46 13.94 33.16 13.73Q32.86 13.51 32.86 13.06L32.86 13.06Q32.86 12.65 32.78 12.36Q32.71 12.07 32.54 11.90Q32.38 11.74 32.04 11.74L32.04 11.74Q31.66 11.74 31.31 12.06Q30.96 12.38 30.56 13.24Q30.17 14.09 29.64 15.65L29.64 15.65L24.38 31.80Q24.26 32.23 24.24 32.45Q24.22 32.66 24.30 32.74Q24.38 32.81 24.50 32.81L24.50 32.81Q24.74 32.81 25.01 32.65Q25.27 32.50 25.56 32.20Q25.85 31.90 26.18 31.49L26.18 31.49Q26.38 31.25 26.57 31.21Q26.76 31.18 27.02 31.37L27.02 31.37Q27.43 31.61 27.50 31.85Q27.58 32.09 27.46 32.33L27.46 32.33Q27.24 32.69 26.76 33.24Q26.28 33.79 25.60 34.21Q24.91 34.63 24.02 34.63ZM33.53 34.68L33.53 34.68Q32.71 34.68 32.10 34.25Q31.49 33.82 31.15 33.02Q30.82 32.23 30.82 31.15L30.82 31.15Q30.82 30.05 31.15 28.78Q31.49 27.50 32.16 26.28Q32.83 25.06 33.80 24.05Q34.78 23.04 36.02 22.43Q37.27 21.82 38.81 21.82L38.81 21.82Q39.48 21.82 40.25 22.00Q41.02 22.18 41.74 22.51L41.74 22.51L41.76 22.42Q41.88 22.08 42.12 22.00Q42.36 21.91 42.77 21.91L42.77 21.91Q43.51 21.91 43.72 22.14Q43.92 22.37 43.75 22.85L43.75 22.85L40.75 31.80Q40.61 32.23 40.60 32.45Q40.58 32.66 40.68 32.74Q40.78 32.81 40.90 32.81L40.90 32.81Q41.14 32.81 41.39 32.65Q41.64 32.50 41.94 32.20Q42.24 31.90 42.58 31.49L42.58 31.49Q42.77 31.25 42.96 31.21Q43.15 31.18 43.42 31.37L43.42 31.37Q43.80 31.61 43.88 31.85Q43.97 32.09 43.85 32.33L43.85 32.33Q43.63 32.69 43.15 33.24Q42.67 33.79 41.99 34.21Q41.30 34.63 40.42 34.63L40.42 34.63Q39.53 34.63 39.11 34.24Q38.69 33.84 38.62 33.24Q38.54 32.64 38.68 31.97Q38.81 31.30 39 30.72L39 30.72Q39.05 30.67 39.06 30.61Q39.07 30.55 39.10 30.48L39.10 30.48Q38.09 31.90 37.12 32.83Q36.14 33.77 35.24 34.22Q34.34 34.68 33.53 34.68ZM33 30.77L33 30.77Q33 31.37 33.14 31.82Q33.29 32.28 33.56 32.52Q33.84 32.76 34.20 32.76L34.20 32.76Q35.04 32.76 36.12 31.86Q37.20 30.96 38.41 29.23Q39.62 27.50 40.90 25.01L40.90 25.01L41.16 24.22Q40.39 23.90 39.71 23.81Q39.02 23.71 38.47 23.71L38.47 23.71Q37.44 23.71 36.58 24.19Q35.71 24.67 35.05 25.45Q34.39 26.23 33.94 27.18Q33.48 28.13 33.24 29.06Q33 30 33 30.77ZM54.24 36.26L54.55 34.10Q55.03 33.77 55.51 33.47Q55.99 33.17 56.44 32.89Q56.88 32.62 57.29 32.39Q57.70 32.16 58.03 31.99L58.03 31.99Q58.42 31.80 58.64 31.94Q58.87 32.09 58.96 32.41Q59.04 32.74 58.94 33.05Q58.85 33.36 58.61 33.53L58.61 33.53Q58.13 33.79 57.60 34.12Q57.07 34.44 56.51 34.79Q55.94 35.14 55.38 35.51Q54.82 35.88 54.24 36.26L54.24 36.26ZM47.54 46.73L47.54 46.73Q46.70 46.73 46.06 46.39Q45.41 46.06 45.05 45.46Q44.69 44.86 44.69 44.14L44.69 44.14Q44.69 43.27 45.01 42.43Q45.34 41.59 46.00 40.74Q46.66 39.89 47.64 38.96Q48.62 38.04 49.97 37.06L49.97 37.06Q50.76 36.50 51.59 35.95Q52.42 35.40 53.23 34.82L53.23 34.82L54.89 29.74Q54.14 30.91 53.36 31.81Q52.58 32.71 51.77 33.35Q50.95 33.98 50.14 34.31Q49.32 34.63 48.48 34.63L48.48 34.63Q47.38 34.63 46.76 34.09Q46.15 33.55 46.10 32.48Q46.06 31.42 46.56 29.88L46.56 29.88L48.96 22.68Q49.13 22.20 49.36 22.06Q49.58 21.91 50.04 21.91L50.04 21.91Q50.78 21.91 50.99 22.14Q51.19 22.37 51.02 22.85L51.02 22.85L48.48 30.43Q48.26 31.03 48.20 31.56Q48.14 32.09 48.37 32.40Q48.60 32.71 49.25 32.71L49.25 32.71Q50.09 32.71 51.07 31.99Q52.06 31.27 53.10 29.98Q54.14 28.68 55.15 26.92Q56.16 25.15 57.02 23.06L57.02 23.06L57.14 22.68Q57.31 22.20 57.54 22.06Q57.77 21.91 58.22 21.91L58.22 21.91Q58.97 21.91 59.17 22.14Q59.38 22.37 59.21 22.85L59.21 22.85L53.54 40.27Q52.99 42 52.38 43.22Q51.77 44.45 51.07 45.23Q50.38 46.01 49.50 46.37Q48.62 46.73 47.54 46.73ZM47.88 44.88L47.88 44.88Q48.48 44.88 48.98 44.56Q49.49 44.23 49.93 43.63Q50.38 43.03 50.77 42.16Q51.17 41.28 51.50 40.18L51.50 40.18L52.39 37.49Q51.94 37.78 51.48 38.09Q51.02 38.40 50.57 38.69L50.57 38.69Q49.56 39.48 48.83 40.20Q48.10 40.92 47.65 41.54Q47.21 42.17 47.00 42.73Q46.80 43.30 46.80 43.78L46.80 43.78Q46.80 44.09 46.92 44.34Q47.04 44.59 47.28 44.74Q47.52 44.88 47.88 44.88ZM64.25 34.73L64.25 34.73Q63.17 34.73 62.57 34.27Q61.97 33.82 61.76 33.02Q61.56 32.23 61.68 31.25Q61.80 30.26 62.14 29.23L62.14 29.23L64.30 22.66Q64.42 22.30 64.62 22.09Q64.82 21.89 65.42 21.89L65.42 21.89Q66.19 21.89 66.36 22.12Q66.53 22.34 66.38 22.80L66.38 22.80L64.10 29.76Q63.84 30.58 63.73 31.27Q63.62 31.97 63.85 32.39Q64.08 32.81 64.82 32.81L64.82 32.81Q65.50 32.81 66.19 32.33Q66.89 31.85 67.54 31.04Q68.18 30.24 68.76 29.26Q69.34 28.27 69.77 27.26L69.77 27.26L71.26 22.66Q71.38 22.30 71.58 22.09Q71.78 21.89 72.34 21.89L72.34 21.89Q73.13 21.89 73.27 22.12Q73.42 22.34 73.27 22.80L73.27 22.80L71.23 29.45Q71.14 29.81 71.02 30.37Q70.90 30.94 70.91 31.50Q70.92 32.06 71.20 32.44Q71.47 32.81 72.14 32.81L72.14 32.81Q72.94 32.81 73.72 32.29Q74.50 31.78 75.17 30.91Q75.84 30.05 76.36 28.99Q76.87 27.94 77.17 26.81Q77.47 25.68 77.47 24.67L77.47 24.67Q77.47 24.48 77.47 24.23Q77.47 23.98 77.45 23.69Q77.42 23.40 77.38 23.11L77.38 23.11Q77.30 22.68 77.39 22.39Q77.47 22.10 77.70 21.96Q77.93 21.82 78.29 21.82L78.29 21.82Q78.74 21.82 79.02 22.08Q79.30 22.34 79.42 22.97L79.42 22.97Q79.46 23.16 79.49 23.39Q79.51 23.62 79.51 23.84Q79.51 24.07 79.51 24.31L79.51 24.31Q79.51 25.63 79.13 27.06Q78.74 28.49 78.04 29.86Q77.33 31.22 76.34 32.33Q75.36 33.43 74.16 34.08Q72.96 34.73 71.59 34.73L71.59 34.73Q70.49 34.73 69.86 34.30Q69.24 33.86 68.99 33.16Q68.74 32.45 68.74 31.63L68.74 31.63Q68.14 32.57 67.44 33.26Q66.74 33.96 65.95 34.34Q65.16 34.73 64.25 34.73ZM76.44 34.68L76.44 34.68Q75.98 34.68 75.83 34.40Q75.67 34.13 75.74 33.78Q75.82 33.43 76.10 33.16Q76.39 32.88 76.85 32.88L76.85 32.88Q77.69 32.88 78.60 32.38Q79.51 31.87 80.54 30.79Q81.58 29.71 82.73 27.96Q83.88 26.21 85.20 23.71L85.20 23.71L86.52 24.36Q85.08 27.26 83.81 29.24Q82.54 31.22 81.32 32.42Q80.11 33.62 78.91 34.15Q77.71 34.68 76.44 34.68ZM89.90 34.63L89.90 34.63Q89.02 34.63 88.58 34.28Q88.15 33.94 88.06 33.41Q87.96 32.88 88.06 32.30Q88.15 31.73 88.32 31.27L88.32 31.27Q88.46 30.86 88.74 30.16Q89.02 29.45 89.36 28.58Q89.71 27.72 90.04 26.86Q90.36 25.99 90.58 25.27L90.58 25.27Q90.77 24.55 90.66 24.28Q90.55 24 90.05 24L90.05 24Q89.50 24 88.87 24.23Q88.25 24.46 87.58 24.68Q86.90 24.91 86.16 24.91L86.16 24.91Q85.73 24.91 85.42 24.55Q85.10 24.19 84.92 23.63Q84.74 23.06 84.74 22.44L84.74 22.44Q84.74 21.94 84.91 21.49Q85.08 21.05 85.45 20.76Q85.82 20.47 86.40 20.47L86.40 20.47Q86.88 20.47 87.17 20.78Q87.46 21.10 87.46 21.58L87.46 21.58Q87.46 21.89 87.37 22.26Q87.29 22.63 87.12 23.02L87.12 23.02Q87.36 23.02 87.98 22.75Q88.61 22.49 89.44 22.22Q90.26 21.96 91.10 21.96L91.10 21.96Q91.85 21.96 92.29 22.32Q92.74 22.68 92.83 23.41Q92.93 24.14 92.62 25.32L92.62 25.32Q92.45 25.99 92.11 26.88Q91.78 27.77 91.42 28.70Q91.06 29.64 90.73 30.46Q90.41 31.27 90.24 31.78L90.24 31.78Q90 32.45 90.12 32.63Q90.24 32.81 90.46 32.81L90.46 32.81Q90.70 32.81 90.95 32.65Q91.20 32.50 91.48 32.20Q91.75 31.90 92.06 31.49L92.06 31.49Q92.26 31.25 92.44 31.21Q92.62 31.18 92.90 31.37L92.90 31.37Q93.29 31.61 93.37 31.85Q93.46 32.09 93.34 32.33L93.34 32.33Q93.12 32.69 92.64 33.24Q92.16 33.79 91.48 34.21Q90.79 34.63 89.90 34.63ZM97.27 34.63L97.27 34.63Q95.93 34.63 95.59 33.56Q95.26 32.50 95.93 30.46L95.93 30.46L98.47 22.68Q98.64 22.20 98.87 22.06Q99.10 21.91 99.55 21.91L99.55 21.91Q100.30 21.91 100.50 22.14Q100.70 22.37 100.54 22.85L100.54 22.85L97.61 31.80Q97.44 32.30 97.49 32.56Q97.54 32.81 97.85 32.81L97.85 32.81Q98.06 32.81 98.28 32.66Q98.50 32.52 98.77 32.23Q99.05 31.94 99.43 31.49L99.43 31.49Q99.62 31.25 99.82 31.21Q100.01 31.18 100.27 31.37L100.27 31.37Q100.66 31.61 100.74 31.85Q100.82 32.09 100.68 32.33L100.68 32.33Q100.18 33.12 99.64 33.64Q99.10 34.15 98.51 34.39Q97.92 34.63 97.27 34.63ZM101.04 18.22L101.04 18.22Q100.56 18.22 100.22 17.90Q99.89 17.59 99.89 16.99L99.89 16.99Q99.89 16.34 100.31 15.77Q100.73 15.19 101.62 15.19L101.62 15.19Q102.12 15.19 102.46 15.49Q102.79 15.79 102.79 16.42L102.79 16.42Q102.79 17.06 102.37 17.64Q101.95 18.22 101.04 18.22ZM105.31 34.63L105.31 34.63Q104.35 34.63 103.80 34.19Q103.25 33.74 103.15 32.87Q103.06 31.99 103.49 30.72L103.49 30.72L105.60 24.19L103.78 24.19Q103.51 24.19 103.42 23.95Q103.32 23.71 103.44 23.23L103.44 23.23Q103.58 22.75 103.82 22.51Q104.06 22.27 104.33 22.27L104.33 22.27L106.25 22.27L107.81 17.52Q107.95 17.04 108.18 16.90Q108.41 16.75 108.89 16.75L108.89 16.75Q109.63 16.75 109.84 16.98Q110.04 17.21 109.87 17.69L109.87 17.69L108.34 22.27L111.36 22.27Q111.62 22.27 111.73 22.50Q111.84 22.73 111.70 23.23L111.70 23.23Q111.58 23.69 111.34 23.94Q111.10 24.19 110.83 24.19L110.83 24.19L107.71 24.19L105.36 31.27Q105.10 32.09 105.20 32.45Q105.31 32.81 105.77 32.81L105.77 32.81Q106.25 32.81 106.91 32.39Q107.57 31.97 108.24 31.08L108.24 31.08Q108.46 30.84 108.68 30.82Q108.91 30.79 109.25 31.01L109.25 31.01Q109.61 31.22 109.66 31.45Q109.70 31.68 109.61 31.87L109.61 31.87Q109.34 32.35 108.74 33Q108.14 33.65 107.28 34.14Q106.42 34.63 105.31 34.63ZM116.47 34.68L116.47 34.68Q115.58 34.68 114.89 34.40Q114.19 34.13 113.66 33.65Q113.14 33.17 112.79 32.51Q112.44 31.85 112.26 31.08Q112.08 30.31 112.08 29.50L112.08 29.50Q112.08 28.61 112.27 27.58Q112.46 26.54 112.88 25.52Q113.30 24.50 113.98 23.66Q114.65 22.82 115.58 22.32Q116.52 21.82 117.77 21.82L117.77 21.82Q118.49 21.82 119.09 22.12Q119.69 22.42 120.04 22.98Q120.38 23.54 120.38 24.34L120.38 24.34Q120.38 25.42 119.70 26.60Q119.02 27.79 117.89 28.96Q116.76 30.12 115.37 31.13L115.37 31.13Q113.98 32.16 112.48 32.96Q110.98 33.77 109.60 34.22Q108.22 34.68 107.16 34.68L107.16 34.68Q106.82 34.68 106.66 34.40Q106.49 34.13 106.52 33.78Q106.56 33.43 106.82 33.16Q107.09 32.88 107.59 32.88L107.59 32.88Q108.36 32.88 109.50 32.46Q110.64 32.04 111.92 31.32Q113.21 30.60 114.38 29.71L114.38 29.71Q115.46 28.92 116.33 28.08Q117.19 27.24 117.71 26.42Q118.22 25.61 118.22 24.91L118.22 24.91Q118.22 24.36 117.98 24.05Q117.74 23.74 117.26 23.74L117.26 23.74Q116.52 23.74 115.94 24.32Q115.37 24.91 114.97 25.80Q114.58 26.69 114.38 27.67Q114.19 28.66 114.19 29.45L114.19 29.45Q114.19 30.12 114.36 30.72Q114.53 31.32 114.86 31.78Q115.20 32.23 115.72 32.50Q116.23 32.76 116.93 32.76L116.93 32.76Q117.67 32.76 118.38 32.44Q119.09 32.11 119.75 31.57Q120.41 31.03 120.98 30.41L120.98 30.41Q121.27 30.07 121.66 30.17Q122.04 30.26 122.28 30.53L122.28 30.53Q122.52 30.79 122.56 31.08Q122.59 31.37 122.30 31.73L122.30 31.73Q121.39 32.88 120.42 33.52Q119.45 34.15 118.45 34.42Q117.46 34.68 116.47 34.68ZM138.02 34.68L138.02 34.68Q136.30 34.68 135.34 33.96Q134.38 33.24 134.22 31.85Q134.06 30.46 134.71 28.42L134.71 28.42L139.46 13.73Q139.78 12.79 139.74 12.36Q139.70 11.93 139.18 11.93L139.18 11.93Q138.79 11.93 138.32 12.25Q137.86 12.58 137.29 13.22Q136.73 13.87 135.98 14.90L135.98 14.90Q135.60 15.46 135.23 15.56Q134.86 15.67 134.40 15.41L134.40 15.41Q134.04 15.19 133.97 14.87Q133.90 14.54 134.21 14.14L134.21 14.14Q135.43 12.38 136.45 11.47Q137.47 10.56 138.29 10.24Q139.10 9.91 139.75 9.91L139.75 9.91Q141.26 9.91 141.74 10.90Q142.22 11.88 141.60 13.80L141.60 13.80L136.87 28.34Q136.42 29.74 136.44 30.70Q136.46 31.66 136.99 32.14Q137.52 32.62 138.62 32.62L138.62 32.62Q139.61 32.62 140.65 32.12Q141.70 31.63 142.75 30.74Q143.81 29.86 144.84 28.60Q145.87 27.34 146.83 25.82Q147.79 24.31 148.61 22.58L148.61 22.58L152.50 10.61Q152.62 10.27 152.90 10.10Q153.19 9.94 153.72 9.94L153.72 9.94Q154.27 9.94 154.52 10.10Q154.78 10.27 154.66 10.66L154.66 10.66L148.34 29.90Q148.03 30.86 147.91 31.48Q147.79 32.09 147.91 32.38Q148.03 32.66 148.34 32.66L148.34 32.66Q148.80 32.66 149.42 32.10Q150.05 31.54 151.08 30.10L151.08 30.10Q151.37 29.71 151.64 29.68Q151.92 29.64 152.23 29.83L152.23 29.83Q152.64 30.10 152.70 30.44Q152.76 30.79 152.52 31.13L152.52 31.13Q152.16 31.68 151.64 32.30Q151.13 32.93 150.52 33.47Q149.90 34.01 149.21 34.34Q148.51 34.68 147.77 34.68L147.77 34.68Q146.83 34.68 146.32 34.18Q145.80 33.67 145.75 32.63Q145.70 31.58 146.18 29.98L146.18 29.98Q146.30 29.64 146.41 29.30Q146.52 28.97 146.62 28.66L146.62 28.66Q145.68 30.05 144.64 31.15Q143.59 32.26 142.49 33.05Q141.38 33.84 140.26 34.26Q139.13 34.68 138.02 34.68ZM169.58 34.73L169.58 34.73Q168.65 34.73 167.80 34.52Q166.94 34.32 166.18 33.95Q165.41 33.58 164.77 33.07Q164.14 32.57 163.70 32.02L163.70 32.02Q163.39 31.56 163.44 31.24Q163.49 30.91 163.87 30.58L163.87 30.58Q164.21 30.31 164.48 30.34Q164.76 30.36 165.12 30.72L165.12 30.72Q165.77 31.32 166.44 31.75Q167.11 32.18 167.88 32.41Q168.65 32.64 169.58 32.64L169.58 32.64Q170.76 32.64 171.74 32.27Q172.73 31.90 173.45 31.21Q174.17 30.53 174.55 29.54Q174.94 28.56 174.94 27.36L174.94 27.36Q174.94 26.45 174.68 25.55Q174.43 24.65 174 23.78Q173.57 22.92 172.98 22.04Q172.39 21.17 171.70 20.28Q171 19.39 170.23 18.46L170.23 18.46Q168 21.91 166.28 24.46Q164.57 27 163.19 28.76Q161.81 30.53 160.64 31.67Q159.48 32.81 158.36 33.43Q157.25 34.06 156.10 34.30Q154.94 34.54 153.55 34.54L153.55 34.54Q153.07 34.54 152.95 34.27Q152.83 34.01 153 33.43L153 33.43Q153.12 33 153.40 32.81Q153.67 32.62 154.13 32.62L154.13 32.62Q154.97 32.62 155.71 32.42Q156.46 32.23 157.22 31.79Q157.99 31.34 158.83 30.56Q159.67 29.78 160.68 28.58Q161.69 27.38 162.90 25.72Q164.11 24.05 165.62 21.82Q167.14 19.58 169.01 16.70L169.01 16.70Q168.65 16.13 168.35 15.56Q168.05 15.00 167.82 14.44Q167.59 13.87 167.47 13.28Q167.35 12.70 167.35 12.10L167.35 12.10Q167.35 10.97 167.81 10.08Q168.26 9.19 169.06 8.69Q169.85 8.18 170.88 8.18L170.88 8.18Q172.15 8.18 172.97 8.96Q173.78 9.74 173.78 11.02L173.78 11.02Q173.78 11.71 173.54 12.49Q173.30 13.27 172.79 14.26Q172.27 15.24 171.41 16.61L171.41 16.61Q171.94 17.33 172.55 18.10Q173.16 18.86 173.81 19.70Q174.46 20.54 175.04 21.44Q175.63 22.34 176.09 23.29Q176.54 24.24 176.82 25.24Q177.10 26.23 177.10 27.24L177.10 27.24Q177.10 28.92 176.56 30.30Q176.02 31.68 175.01 32.68Q174 33.67 172.62 34.20Q171.24 34.73 169.58 34.73ZM170.23 14.78L170.23 14.78Q170.81 13.82 171.14 13.16Q171.48 12.50 171.62 12.00Q171.77 11.50 171.77 11.09L171.77 11.09Q171.77 10.61 171.49 10.32Q171.22 10.03 170.78 10.03L170.78 10.03Q170.35 10.03 170.04 10.26Q169.73 10.49 169.56 10.93Q169.39 11.38 169.39 12.00L169.39 12.00Q169.39 12.48 169.50 12.95Q169.61 13.42 169.79 13.87Q169.97 14.33 170.23 14.78ZM191.50 34.68L191.50 34.68Q190.44 34.68 189.64 34.15Q188.83 33.62 188.32 32.77Q187.80 31.92 187.58 30.98L187.58 30.98Q187.49 30.50 187.60 30.16Q187.70 29.81 188.23 29.69L188.23 29.69Q188.74 29.57 189.00 29.75Q189.26 29.93 189.38 30.34L189.38 30.34Q189.62 31.10 189.92 31.62Q190.22 32.14 190.62 32.39Q191.02 32.64 191.52 32.64L191.52 32.64Q192.31 32.64 192.86 32.02Q193.42 31.39 193.97 29.71L193.97 29.71L199.61 12.24L196.66 12.24Q195.43 12.24 194.45 12.53Q193.46 12.82 192.72 13.45Q191.98 14.09 191.47 15.19L191.47 15.19Q191.26 15.70 190.94 15.82Q190.63 15.94 190.20 15.86L190.20 15.86Q189.84 15.79 189.67 15.55Q189.50 15.31 189.67 14.81L189.67 14.81Q190.03 13.80 190.66 12.98Q191.28 12.17 192.19 11.57Q193.10 10.97 194.33 10.64Q195.55 10.32 197.09 10.32L197.09 10.32L209.42 10.32Q209.78 10.32 209.87 10.52Q209.95 10.73 209.76 11.28L209.76 11.28Q209.59 11.81 209.38 12.02Q209.16 12.24 208.80 12.24L208.80 12.24L201.77 12.24L196.08 29.88Q195.65 31.22 195.00 32.32Q194.35 33.41 193.49 34.04Q192.62 34.68 191.50 34.68ZM200.02 34.68L200.02 34.68Q199.56 34.68 199.40 34.40Q199.25 34.13 199.32 33.78Q199.39 33.43 199.68 33.16Q199.97 32.88 200.42 32.88L200.42 32.88Q201.26 32.88 202.18 32.38Q203.09 31.87 204.12 30.79Q205.15 29.71 206.30 27.96Q207.46 26.21 208.78 23.71L208.78 23.71L210.10 24.36Q208.66 27.26 207.38 29.24Q206.11 31.22 204.90 32.42Q203.69 33.62 202.49 34.15Q201.29 34.68 200.02 34.68ZM213.48 34.63L213.48 34.63Q212.59 34.63 212.16 34.28Q211.73 33.94 211.63 33.41Q211.54 32.88 211.63 32.30Q211.73 31.73 211.90 31.27L211.90 31.27Q212.04 30.86 212.32 30.16Q212.59 29.45 212.94 28.58Q213.29 27.72 213.61 26.86Q213.94 25.99 214.15 25.27L214.15 25.27Q214.34 24.55 214.24 24.28Q214.13 24 213.62 24L213.62 24Q213.07 24 212.45 24.23Q211.82 24.46 211.15 24.68Q210.48 24.91 209.74 24.91L209.74 24.91Q209.30 24.91 208.99 24.55Q208.68 24.19 208.50 23.63Q208.32 23.06 208.32 22.44L208.32 22.44Q208.32 21.94 208.49 21.49Q208.66 21.05 209.03 20.76Q209.40 20.47 209.98 20.47L209.98 20.47Q210.46 20.47 210.74 20.78Q211.03 21.10 211.03 21.58L211.03 21.58Q211.03 21.89 210.95 22.26Q210.86 22.63 210.70 23.02L210.70 23.02Q210.94 23.02 211.56 22.75Q212.18 22.49 213.01 22.22Q213.84 21.96 214.68 21.96L214.68 21.96Q215.42 21.96 215.87 22.32Q216.31 22.68 216.41 23.41Q216.50 24.14 216.19 25.32L216.19 25.32Q216.02 25.99 215.69 26.88Q215.35 27.77 214.99 28.70Q214.63 29.64 214.31 30.46Q213.98 31.27 213.82 31.78L213.82 31.78Q213.58 32.45 213.70 32.63Q213.82 32.81 214.03 32.81L214.03 32.81Q214.27 32.81 214.52 32.65Q214.78 32.50 215.05 32.20Q215.33 31.90 215.64 31.49L215.64 31.49Q215.83 31.25 216.01 31.21Q216.19 31.18 216.48 31.37L216.48 31.37Q216.86 31.61 216.95 31.85Q217.03 32.09 216.91 32.33L216.91 32.33Q216.70 32.69 216.22 33.24Q215.74 33.79 215.05 34.21Q214.37 34.63 213.48 34.63ZM221.54 34.68L221.54 34.68Q220.73 34.68 220.12 34.25Q219.50 33.82 219.17 33.02Q218.83 32.23 218.83 31.15L218.83 31.15Q218.83 30.05 219.17 28.78Q219.50 27.50 220.18 26.28Q220.85 25.06 221.82 24.05Q222.79 23.04 224.04 22.43Q225.29 21.82 226.82 21.82L226.82 21.82Q227.50 21.82 228.26 22.00Q229.03 22.18 229.75 22.51L229.75 22.51L229.78 22.42Q229.90 22.08 230.14 22.00Q230.38 21.91 230.78 21.91L230.78 21.91Q231.53 21.91 231.73 22.14Q231.94 22.37 231.77 22.85L231.77 22.85L228.77 31.80Q228.62 32.23 228.61 32.45Q228.60 32.66 228.70 32.74Q228.79 32.81 228.91 32.81L228.91 32.81Q229.15 32.81 229.40 32.65Q229.66 32.50 229.96 32.20Q230.26 31.90 230.59 31.49L230.59 31.49Q230.78 31.25 230.98 31.21Q231.17 31.18 231.43 31.37L231.43 31.37Q231.82 31.61 231.90 31.85Q231.98 32.09 231.86 32.33L231.86 32.33Q231.65 32.69 231.17 33.24Q230.69 33.79 230.00 34.21Q229.32 34.63 228.43 34.63L228.43 34.63Q227.54 34.63 227.12 34.24Q226.70 33.84 226.63 33.24Q226.56 32.64 226.69 31.97Q226.82 31.30 227.02 30.72L227.02 30.72Q227.06 30.67 227.08 30.61Q227.09 30.55 227.11 30.48L227.11 30.48Q226.10 31.90 225.13 32.83Q224.16 33.77 223.26 34.22Q222.36 34.68 221.54 34.68ZM221.02 30.77L221.02 30.77Q221.02 31.37 221.16 31.82Q221.30 32.28 221.58 32.52Q221.86 32.76 222.22 32.76L222.22 32.76Q223.06 32.76 224.14 31.86Q225.22 30.96 226.43 29.23Q227.64 27.50 228.91 25.01L228.91 25.01L229.18 24.22Q228.41 23.90 227.72 23.81Q227.04 23.71 226.49 23.71L226.49 23.71Q225.46 23.71 224.59 24.19Q223.73 24.67 223.07 25.45Q222.41 26.23 221.95 27.18Q221.50 28.13 221.26 29.06Q221.02 30 221.02 30.77ZM236.47 34.68L236.47 34.68Q235.66 34.68 235.04 34.25Q234.43 33.82 234.10 33.02Q233.76 32.23 233.76 31.15L233.76 31.15Q233.76 30.05 234.10 28.78Q234.43 27.50 235.10 26.28Q235.78 25.06 236.75 24.05Q237.72 23.04 238.97 22.43Q240.22 21.82 241.75 21.82L241.75 21.82Q242.45 21.82 243.25 22.01Q244.06 22.20 244.80 22.56L244.80 22.56L248.74 10.68Q248.88 10.20 249.11 10.06Q249.34 9.91 249.82 9.91L249.82 9.91Q250.56 9.91 250.76 10.14Q250.97 10.37 250.80 10.85L250.80 10.85L243.86 31.80Q243.72 32.30 243.77 32.56Q243.82 32.81 244.10 32.81L244.10 32.81Q244.34 32.81 244.56 32.66Q244.78 32.52 245.05 32.23Q245.33 31.94 245.71 31.49L245.71 31.49Q245.90 31.25 246.10 31.21Q246.29 31.18 246.55 31.37L246.55 31.37Q246.94 31.61 247.02 31.85Q247.10 32.09 246.96 32.33L246.96 32.33Q246.46 33.12 245.92 33.64Q245.38 34.15 244.79 34.39Q244.20 34.63 243.55 34.63L243.55 34.63Q242.69 34.63 242.23 34.20Q241.78 33.77 241.75 32.90Q241.73 32.04 242.11 30.77L242.11 30.77Q242.14 30.70 242.15 30.61Q242.16 30.53 242.18 30.46L242.18 30.46Q241.15 31.87 240.16 32.82Q239.16 33.77 238.22 34.22Q237.29 34.68 236.47 34.68ZM235.94 30.77L235.94 30.77Q235.94 31.37 236.09 31.82Q236.23 32.28 236.51 32.52Q236.78 32.76 237.14 32.76L237.14 32.76Q237.98 32.76 239.09 31.88Q240.19 31.01 241.43 29.32Q242.66 27.62 243.94 25.18L243.94 25.18L244.22 24.24Q243.41 23.90 242.70 23.81Q241.99 23.71 241.42 23.71L241.42 23.71Q240.38 23.71 239.52 24.19Q238.66 24.67 238.00 25.45Q237.34 26.23 236.88 27.18Q236.42 28.13 236.18 29.06Q235.94 30 235.94 30.77Z"/></svg>