<svg xmlns="http://www.w3.org/2000/svg" xmlns:xlink="http://www.w3.org/1999/xlink" width="184.32000000000002" height="24"><path fill="black" d="M0.72 14.40L0 14.40L0 0.24L0.72 0.24L0.72 14.40ZM3.60 14.40L1.44 14.40L1.44 0.24L3.60 0.24L3.60 14.40ZM5.04 14.40L4.32 14.40L4.32 0.24L5.04 0.24L5.04 14.40ZM6.48 14.40L5.76 14.40L5.76 0.24L6.48 0.24L6.48 14.40ZM10.80 14.40L8.64 14.40L8.64 0.24L10.80 0.24L10.80 14.40ZM12.24 14.40L11.52 14.40L11.52 0.24L12.24 0.24L12.24 14.40ZM15.12 14.40L12.96 14.40L12.96 0.24L15.12 0.24L15.12 14.40ZM16.56 14.40L15.84 14.40L15.84 0.24L16.56 0.24L16.56 14.40ZM20.88 14.40L18.72 14.40L18.72 0.24L20.88 0.24L20.88 14.40ZM22.32 14.40L21.60 14.40L21.60 0.24L22.32 0.24L22.32 14.40ZM23.76 14.40L23.04 14.40L23.04 0.24L23.76 0.24L23.76 14.40ZM26.64 14.40L24.48 14.40L24.48 0.24L26.64 0.24L26.64 14.40ZM28.08 14.40L27.36 14.40L27.36 0.24L28.08 0.24L28.08 14.40ZM30.96 14.40L30.24 14.40L30.24 0.24L30.96 0.24L30.96 14.40ZM33.84 14.40L31.68 14.40L31.68 0.24L33.84 0.24L33.84 14.40ZM36.72 14.40L34.56 14.40L34.56 0.24L36.72 0.24L36.72 14.40ZM38.16 14.40L37.44 14.40L37.44 0.24L38.16 0.24L38.16 14.40ZM39.60 14.40L38.88 14.40L38.88 0.24L39.60 0.24L39.60 14.40ZM42.48 14.40L40.32 14.40L40.32 0.24L42.48 0.24L42.48 14.40ZM45.36 14.40L44.64 14.40L44.64 0.24L45.36 0.24L45.36 14.40ZM48.24 14.40L46.08 14.40L46.08 0.24L48.24 0.24L48.24 14.40ZM49.68 14.40L48.96 14.40L48.96 0.24L49.68 0.24L49.68 14.40ZM52.56 14.40L50.40 14.40L50.40 0.24L52.56 0.24L52.56 14.40ZM55.44 14.40L54.72 14.40L54.72 0.24L55.44 0.24L55.44 14.40ZM56.88 14.40L56.16 14.40L56.16 0.24L56.88 0.24L56.88 14.40ZM69.84 14.40L69.12 14.40L69.12 0.24L69.84 0.24L69.84 14.40ZM72.72 14.40L70.56 14.40L70.56 0.24L72.72 0.24L72.72 14.40ZM74.16 14.40L73.44 14.40L73.44 0.24L74.16 0.24L74.16 14.40ZM77.04 14.40L76.32 14.40L76.32 0.24L77.04 0.24L77.04 14.40ZM79.92 14.40L77.76 14.40L77.76 0.24L79.92 0.24L79.92 14.40ZM82.80 14.40L80.64 14.40L80.64 0.24L82.80 0.24L82.80 14.40ZM84.24 14.40L83.52 14.40L83.52 0.24L84.24 0.24L84.24 14.40ZM85.68 14.40L84.96 14.40L84.96 0.24L85.68 0.24L85.68 14.40ZM88.56 14.40L87.84 14.40L87.84 0.24L88.56 0.24L88.56 14.40ZM91.44 14.40L89.28 14.40L89.28 0.24L91.44 0.24L91.44 14.40ZM94.32 14.40L92.16 14.40L92.16 0.24L94.32 0.24L94.32 14.40ZM95.76 14.40L95.04 14.40L95.04 0.24L95.76 0.24L95.76 14.40ZM97.20 14.40L96.48 14.40L96.48 0.24L97.20 0.24L97.20 14.40ZM100.08 14.40L97.92 14.40L97.92 0.24L100.08 0.24L100.08 14.40ZM102.96 14.40L102.24 14.40L102.24 0.24L102.96 0.24L102.96 14.40ZM105.84 14.40L103.68 14.40L103.68 0.24L105.84 0.24L105.84 14.40ZM108.72 14.40L106.56 14.40L106.56 0.24L108.72 0.24L108.72 14.40ZM110.16 14.40L109.44 14.40L109.44 0.24L110.16 0.24L110.16 14.40ZM113.04 14.40L112.32 14.40L112.32 0.24L113.04 0.24L113.04 14.40ZM114.48 14.40L113.76 14.40L113.76 0.24L114.48 0.24L114.48 14.40ZM117.36 14.40L115.20 14.40L115.20 0.24L117.36 0.24L117.36 14.40ZM118.80 14.40L118.08 14.40L118.08 0.24L118.80 0.24L118.80 14.40ZM121.68 14.40L119.52 14.40L119.52 0.24L121.68 0.24L121.68 14.40ZM123.12 14.40L122.40 14.40L122.40 0.24L123.12 0.24L123.12 14.40ZM126.00 14.40L125.28 14.40L125.28 0.24L126.00 0.24L126.00 14.40ZM127.44 14.40L126.72 14.40L126.72 0.24L127.44 0.24L127.44 14.40ZM128.88 14.40L128.16 14.40L128.16 0.24L128.88 0.24L128.88 14.40ZM131.76 14.40L129.60 14.40L129.60 0.24L131.76 0.24L131.76 14.40ZM134.64 14.40L133.92 14.40L133.92 0.24L134.64 0.24L134.64 14.40ZM137.52 14.40L135.36 14.40L135.36 0.24L137.52 0.24L137.52 14.40ZM140.40 14.40L138.24 14.40L138.24 0.24L140.40 0.24L140.40 14.40ZM141.84 14.40L141.12 14.40L141.12 0.24L141.84 0.24L141.84 14.40ZM144.72 14.40L142.56 14.40L142.56 0.24L144.72 0.24L144.72 14.40ZM147.60 14.40L146.88 14.40L146.88 0.24L147.60 0.24L147.60 14.40ZM149.04 14.40L148.32 14.40L148.32 0.24L149.04 0.24L149.04 14.40ZM163.44 14.40L161.28 14.40L161.28 0.24L163.44 0.24L163.44 14.40ZM166.32 14.40L164.16 14.40L164.16 0.24L166.32 0.24L166.32 14.40ZM169.20 14.40L168.48 14.40L168.48 0.24L169.20 0.24L169.20 14.40ZM170.64 14.40L169.92 14.40L169.92 0.24L170.64 0.24L170.64 14.40ZM172.08 14.40L171.36 14.40L171.36 0.24L172.08 0.24L172.08 14.40ZM173.52 14.40L172.80 14.40L172.80 0.24L173.52 0.24L173.52 14.40ZM176.40 14.40L174.24 14.40L174.24 0.24L176.40 0.24L176.40 14.40ZM179.28 14.40L178.56 14.40L178.56 0.24L179.28 0.24L179.28 14.40ZM182.16 14.40L180 14.40L180 0.24L182.16 0.24L182.16 14.40ZM183.60 14.40L182.88 14.40L182.88 0.24L183.60 0.24L183.60 14.40Z"/></svg>