<svg xmlns="http://www.w3.org/2000/svg" xmlns:xlink="http://www.w3.org/1999/xlink" width="386.3759999999999" height="28.728"><path fill="black" d="M4.56 23.62L0.96 23.62L0.96 4.42L4.56 4.42L4.56 23.62ZM5.88 23.62L5.76 23.62L5.76 20.45L5.88 20.45Q6.64 20.45 7.04 20.05Q7.44 19.64 7.44 18.89L7.44 18.89Q7.44 18.56 7.44 18.25Q7.44 17.94 7.44 17.62L7.44 17.62Q7.44 16.43 7.07 15.93Q6.71 15.43 5.88 15.43L5.88 15.43L5.76 15.43L5.76 12.26L5.88 12.26Q6.64 12.26 7.04 11.74Q7.44 11.22 7.44 10.27L7.44 10.27Q7.44 9.92 7.44 9.58Q7.44 9.24 7.44 8.90L7.44 8.90Q7.44 8.27 7.04 7.93Q6.64 7.58 5.88 7.58L5.88 7.58L5.76 7.58L5.76 4.42L5.88 4.42Q8.57 4.42 9.80 5.50Q11.04 6.59 11.04 9.10L11.04 9.10Q11.04 9.43 11.04 9.74Q11.04 10.06 11.02 10.37L11.02 10.37Q10.94 11.68 10.43 12.45Q9.92 13.22 8.86 13.58L8.86 13.58L8.86 14.16Q9.96 14.52 10.48 15.31Q10.99 16.09 11.04 17.45L11.04 17.45Q11.06 17.84 11.06 18.18Q11.06 18.52 11.04 18.94L11.04 18.94Q10.93 21.43 9.75 22.52Q8.57 23.62 5.88 23.62L5.88 23.62ZM16.42 7.13L12.82 7.13L12.82 4.42L16.42 4.42L16.42 7.13ZM16.42 23.62L12.82 23.62L12.82 9.22L16.42 9.22L16.42 23.62ZM22.27 25.93L22.27 28.44Q20.42 28.33 19.51 27.77Q18.59 27.22 18.38 26.42L18.38 26.42Q18.34 26.21 18.32 25.97Q18.30 25.74 18.34 25.51L18.34 25.51Q18.43 24.97 18.77 24.55Q19.12 24.12 19.99 23.98L19.99 23.98L19.99 23.47Q18.42 23.29 18.24 22.08L18.24 22.08Q18.20 21.79 18.20 21.67Q18.20 21.54 18.24 21.29L18.24 21.29Q18.31 20.78 18.77 20.37Q19.24 19.96 20.04 19.87L20.04 19.87L20.04 19.39Q19.03 18.92 18.53 17.98Q18.02 17.04 17.93 15.53L17.93 15.53Q17.92 15.18 17.90 14.89Q17.89 14.59 17.89 14.32Q17.89 14.05 17.90 13.80Q17.92 13.55 17.93 13.30L17.93 13.30Q18.10 11.11 19.12 10.10Q20.14 9.10 22.27 8.99L22.27 8.99L22.27 11.74Q21.86 11.86 21.65 12.14Q21.43 12.43 21.41 12.86L21.41 12.86Q21.38 13.42 21.38 13.96Q21.37 14.50 21.38 15.01Q21.38 15.52 21.41 15.96L21.41 15.96Q21.43 16.40 21.65 16.69Q21.88 16.98 22.27 17.10L22.27 17.10L22.27 19.88Q21.56 19.93 21.32 20.08Q21.07 20.23 21.07 20.52L21.07 20.52Q21.07 20.53 21.07 20.55Q21.07 20.57 21.07 20.59L21.07 20.59Q21.07 20.87 21.32 21.01Q21.58 21.14 22.27 21.20L22.27 21.20L22.27 23.69Q21.77 23.78 21.46 23.98Q21.14 24.17 21.05 24.43L21.05 24.43Q20.98 24.62 20.98 24.81Q20.98 25.00 21.05 25.20L21.05 25.20Q21.14 25.48 21.46 25.66Q21.77 25.85 22.27 25.93L22.27 25.93ZM23.47 28.45L23.47 28.45L23.47 26.02Q24.38 25.99 24.85 25.76Q25.32 25.54 25.49 25.13L25.49 25.13Q25.58 24.92 25.57 24.73Q25.56 24.53 25.46 24.34L25.46 24.34Q25.31 23.96 24.85 23.78Q24.38 23.60 23.47 23.59L23.47 23.59L23.47 21.24Q25.84 21.31 27 22.07Q28.16 22.84 28.44 24.26L28.44 24.26Q28.48 24.46 28.49 24.76Q28.50 25.07 28.44 25.42L28.44 25.42Q28.18 27.05 26.81 27.72Q25.44 28.39 23.47 28.45ZM23.47 19.86L23.47 19.86L23.47 17.10Q23.86 16.98 24.07 16.69Q24.29 16.40 24.31 15.96L24.31 15.96Q24.34 15.52 24.34 15.01Q24.35 14.50 24.34 13.96Q24.34 13.42 24.31 12.86L24.31 12.86Q24.29 12.43 24.07 12.15Q23.86 11.87 23.47 11.75L23.47 11.75L23.47 8.99Q26.10 9.13 27.07 10.63L27.07 10.63L27.53 10.63Q27.64 9.89 28.07 9.56Q28.50 9.23 29.38 9.22L29.38 9.22L29.38 11.93L29.02 11.93Q28.37 11.93 28.09 12.20Q27.82 12.48 27.82 13.13L27.82 13.13L27.82 13.82Q27.82 14.11 27.82 14.39Q27.83 14.66 27.82 14.95Q27.82 15.23 27.79 15.53L27.79 15.53Q27.66 17.70 26.65 18.72Q25.63 19.74 23.47 19.86ZM39.78 20.86L39.78 23.84Q37.46 23.72 36.47 22.60Q35.48 21.47 35.39 19.03L35.39 19.03Q35.38 18.65 35.38 18.19Q35.38 17.72 35.40 17.26Q35.42 16.80 35.48 16.42L35.48 16.42L38.87 16.42Q38.82 17.29 38.81 18.14Q38.80 19.00 38.87 19.70L38.87 19.70Q38.92 20.15 39.14 20.44Q39.36 20.74 39.78 20.86L39.78 20.86ZM40.98 23.84L40.98 23.84L40.98 20.86Q41.36 20.72 41.57 20.44Q41.77 20.15 41.82 19.70L41.82 19.70Q41.87 19.30 41.89 18.89Q41.90 18.49 41.89 18.09Q41.87 17.69 41.82 17.28L41.82 17.28Q41.77 16.78 41.51 16.37Q41.24 15.96 40.67 15.82L40.67 15.82L38.70 15.31Q37.45 14.99 36.72 14.38Q35.99 13.78 35.66 12.88Q35.33 11.98 35.29 10.78L35.29 10.78Q35.28 10.25 35.28 9.83Q35.28 9.42 35.29 8.98L35.29 8.98Q35.39 6.54 36.40 5.42Q37.40 4.31 39.78 4.19L39.78 4.19L39.78 7.18Q39.37 7.30 39.16 7.58Q38.95 7.86 38.89 8.30L38.89 8.30Q38.82 8.92 38.82 9.54Q38.82 10.16 38.89 10.78L38.89 10.78Q38.95 11.26 39.23 11.65Q39.50 12.05 40.12 12.19L40.12 12.19L41.82 12.60Q43.16 12.92 43.94 13.55Q44.71 14.18 45.05 15.11Q45.40 16.04 45.44 17.28L45.44 17.28Q45.46 17.56 45.46 17.86Q45.46 18.16 45.44 18.46Q45.43 18.76 45.42 19.03L45.42 19.03Q45.32 21.47 44.32 22.60Q43.31 23.72 40.98 23.84ZM45.30 11.62L41.84 11.62Q41.88 10.79 41.89 9.96Q41.90 9.13 41.87 8.30L41.87 8.30Q41.86 7.87 41.62 7.59Q41.39 7.31 40.98 7.19L40.98 7.19L40.98 4.19Q43.21 4.31 44.23 5.43Q45.25 6.55 45.35 8.98L45.35 8.98Q45.37 9.49 45.35 10.24Q45.34 10.98 45.30 11.62L45.30 11.62ZM50.64 23.62L47.04 23.62L47.04 4.42L50.64 4.42L50.64 23.62ZM57.19 23.62L53.59 23.62L53.59 12.72Q53.59 12.14 53.30 11.87Q53.00 11.59 52.44 11.59L52.44 11.59Q52.14 11.59 51.82 11.70L51.82 11.70L51.82 9.94Q52.20 9.47 52.69 9.22Q53.18 8.98 54 8.98L54 8.98Q55.50 8.98 56.35 9.91Q57.19 10.85 57.19 13.03L57.19 13.03L57.19 23.62ZM58.96 19.03L58.96 19.03Q58.94 18.62 58.93 17.93Q58.91 17.24 58.91 16.45Q58.91 15.66 58.92 14.94Q58.93 14.22 58.96 13.78L58.96 13.78Q59.09 11.35 60.03 10.23Q60.97 9.11 63.28 8.99L63.28 8.99L63.28 11.76Q62.92 11.88 62.74 12.16Q62.57 12.44 62.56 12.86L62.56 12.86Q62.53 13.69 62.52 14.59Q62.51 15.49 62.51 16.41Q62.51 17.33 62.52 18.23Q62.53 19.13 62.56 19.94L62.56 19.94Q62.57 20.38 62.74 20.66Q62.92 20.95 63.28 21.07L63.28 21.07L63.28 23.84Q61.00 23.72 60.04 22.60Q59.09 21.48 58.96 19.03ZM64.48 23.84L64.48 23.84L64.48 21.10Q64.86 20.98 65.03 20.68Q65.21 20.39 65.22 19.94L65.22 19.94Q65.24 19.12 65.26 18.22Q65.28 17.33 65.28 16.40Q65.28 15.48 65.26 14.59Q65.24 13.69 65.22 12.86L65.22 12.86Q65.21 12.42 65.03 12.14Q64.86 11.86 64.48 11.74L64.48 11.74L64.48 8.99Q66.04 9.06 66.95 9.58Q67.87 10.10 68.30 11.14Q68.74 12.17 68.82 13.78L68.82 13.78Q68.84 14.18 68.86 14.88Q68.87 15.58 68.87 16.37Q68.87 17.16 68.86 17.87Q68.84 18.58 68.82 19.03L68.82 19.03Q68.74 20.65 68.30 21.69Q67.87 22.73 66.95 23.25Q66.04 23.77 64.48 23.84ZM70.42 19.80L70.42 19.80L70.42 9.22L74.02 9.22L74.02 20.11Q74.02 20.69 74.29 20.96Q74.57 21.24 75.12 21.24L75.12 21.24Q75.40 21.24 75.72 21.14L75.72 21.14L75.72 23.04Q74.94 23.86 73.70 23.86L73.70 23.86Q72.22 23.86 71.32 22.91Q70.42 21.97 70.42 19.80ZM80.52 23.62L76.92 23.62L76.92 9.22L80.52 9.22L80.52 23.62ZM86.09 23.62L82.49 23.62L82.49 4.42L86.09 4.42L86.09 23.62ZM87.90 19.80L87.90 19.80Q87.88 19.24 87.86 18.33Q87.85 17.42 87.85 16.42Q87.85 15.41 87.86 14.50Q87.88 13.60 87.90 13.03L87.90 13.03Q88.01 10.85 88.84 9.91Q89.68 8.98 91.16 8.98L91.16 8.98Q91.91 8.98 92.38 9.18Q92.86 9.38 93.20 9.77L93.20 9.77L93.20 11.69Q92.88 11.59 92.60 11.59L92.60 11.59Q92.05 11.59 91.79 11.87Q91.54 12.14 91.50 12.72L91.50 12.72Q91.44 13.76 91.42 15.13Q91.40 16.50 91.42 17.84Q91.44 19.18 91.50 20.11L91.50 20.11Q91.54 20.69 91.79 20.96Q92.05 21.24 92.60 21.24L92.60 21.24Q92.88 21.24 93.20 21.14L93.20 21.14L93.20 23.05Q92.83 23.44 92.35 23.65Q91.86 23.86 91.12 23.86L91.12 23.86Q89.63 23.86 88.82 22.91Q88.01 21.97 87.90 19.80ZM98.00 23.62L94.40 23.62L94.40 4.42L98.00 4.42L98.00 23.62ZM99.82 19.58L99.82 19.58Q99.79 19.18 99.78 18.33Q99.77 17.48 99.77 16.49Q99.77 15.49 99.78 14.62Q99.79 13.74 99.82 13.30L99.82 13.30Q99.97 11.12 100.95 10.12Q101.93 9.11 104.02 8.99L104.02 8.99L104.02 11.75Q103.72 11.84 103.57 12.08Q103.43 12.32 103.42 12.74L103.42 12.74Q103.39 13.60 103.38 14.51Q103.37 15.43 103.37 16.37Q103.37 17.32 103.38 18.22Q103.39 19.13 103.42 19.97L103.42 19.97Q103.43 20.41 103.57 20.68Q103.72 20.95 104.02 21.07L104.02 21.07L104.02 23.84Q101.90 23.71 100.92 22.72Q99.94 21.72 99.82 19.58ZM105.22 23.84L105.22 23.84L105.22 21.08Q105.49 20.96 105.63 20.69Q105.77 20.42 105.79 19.97L105.79 19.97Q105.82 19.68 105.82 19.16Q105.82 18.65 105.79 18.02L105.79 18.02L109.30 18.02Q109.32 18.14 109.33 18.67Q109.34 19.19 109.32 19.58L109.32 19.58Q109.22 21.73 108.26 22.73Q107.29 23.74 105.22 23.84ZM109.30 17.02L104.57 17.02L104.57 14.54L105.82 14.54Q105.82 14.11 105.81 13.73Q105.80 13.34 105.80 13.08Q105.79 12.82 105.79 12.74L105.79 12.74Q105.78 12.35 105.64 12.11Q105.49 11.87 105.22 11.76L105.22 11.76L105.22 9Q107.30 9.11 108.26 10.09Q109.21 11.06 109.32 13.15L109.32 13.15Q109.33 13.42 109.34 14.08Q109.34 14.75 109.34 15.55Q109.33 16.34 109.30 17.02L109.30 17.02ZM114.59 23.62L110.99 23.62L110.99 9.22L114.59 9.22L114.59 23.62ZM115.79 12.11L115.79 12.11L115.79 9.58Q116.26 9.12 117.16 9.12L117.16 9.12Q117.47 9.12 117.76 9.14Q118.04 9.17 118.19 9.19L118.19 9.19L118.19 11.93L117.20 11.93Q116.33 11.93 115.79 12.11ZM119.39 19.58L119.39 19.58Q119.38 19.19 119.39 18.67Q119.40 18.14 119.41 18.02L119.41 18.02L122.56 18.02Q122.54 18.65 122.54 19.16Q122.54 19.68 122.56 19.97L122.56 19.97Q122.58 20.42 122.75 20.69Q122.93 20.95 123.23 21.07L123.23 21.07L123.23 23.84Q121.24 23.72 120.36 22.72Q119.48 21.72 119.39 19.58ZM124.43 23.84L124.43 23.84L124.43 21.11Q124.85 21.01 125.05 20.74Q125.24 20.46 125.24 19.97L125.24 19.97Q125.24 19.67 125.24 19.62Q125.24 19.57 125.24 19.53Q125.24 19.49 125.24 19.20L125.24 19.20Q125.24 18.84 125.07 18.58Q124.90 18.32 124.48 18.22L124.48 18.22L122.77 17.74Q121.69 17.42 120.91 16.96Q120.13 16.49 119.71 15.77Q119.29 15.05 119.29 13.99L119.29 13.99Q119.29 13.81 119.29 13.64Q119.29 13.48 119.29 13.32L119.29 13.32Q119.29 11.14 120.22 10.12Q121.15 9.10 123.40 8.99L123.40 8.99L123.40 11.74Q123.08 11.83 122.95 12.08Q122.81 12.32 122.80 12.74L122.80 12.74Q122.78 13.01 122.78 13.13Q122.77 13.25 122.77 13.68L122.77 13.68Q122.77 14.12 122.94 14.44Q123.11 14.75 123.66 14.88L123.66 14.88L125.15 15.24Q126.83 15.64 127.69 16.49Q128.56 17.35 128.56 19.01L128.56 19.01Q128.56 19.16 128.56 19.34Q128.56 19.51 128.56 19.68L128.56 19.68Q128.56 21.78 127.60 22.76Q126.64 23.74 124.43 23.84ZM128.39 14.76L125.12 14.76Q125.14 14.54 125.14 14.13Q125.15 13.72 125.14 13.31Q125.14 12.91 125.12 12.74L125.12 12.74Q125.10 12.35 124.98 12.11Q124.86 11.87 124.60 11.76L124.60 11.76L124.60 8.99Q126.60 9.11 127.46 10.09Q128.32 11.08 128.41 13.15L128.41 13.15Q128.42 13.42 128.42 13.76Q128.42 14.10 128.41 14.39Q128.40 14.68 128.39 14.76L128.39 14.76ZM139.55 20.86L139.55 23.84Q137.23 23.72 136.24 22.60Q135.25 21.47 135.16 19.03L135.16 19.03Q135.14 18.65 135.14 18.19Q135.14 17.72 135.17 17.26Q135.19 16.80 135.25 16.42L135.25 16.42L138.64 16.42Q138.59 17.29 138.58 18.14Q138.56 19.00 138.64 19.70L138.64 19.70Q138.68 20.15 138.91 20.44Q139.13 20.74 139.55 20.86L139.55 20.86ZM140.75 23.84L140.75 23.84L140.75 20.86Q141.13 20.72 141.34 20.44Q141.54 20.15 141.59 19.70L141.59 19.70Q141.64 19.30 141.65 18.89Q141.67 18.49 141.65 18.09Q141.64 17.69 141.59 17.28L141.59 17.28Q141.54 16.78 141.28 16.37Q141.01 15.96 140.44 15.82L140.44 15.82L138.47 15.31Q137.22 14.99 136.49 14.38Q135.76 13.78 135.43 12.88Q135.10 11.98 135.06 10.78L135.06 10.78Q135.05 10.25 135.05 9.83Q135.05 9.42 135.06 8.98L135.06 8.98Q135.16 6.54 136.16 5.42Q137.17 4.31 139.55 4.19L139.55 4.19L139.55 7.18Q139.14 7.30 138.93 7.58Q138.72 7.86 138.66 8.30L138.66 8.30Q138.59 8.92 138.59 9.54Q138.59 10.16 138.66 10.78L138.66 10.78Q138.72 11.26 139.00 11.65Q139.27 12.05 139.88 12.19L139.88 12.19L141.59 12.60Q142.93 12.92 143.71 13.55Q144.48 14.18 144.82 15.11Q145.16 16.04 145.21 17.28L145.21 17.28Q145.22 17.56 145.22 17.86Q145.22 18.16 145.21 18.46Q145.20 18.76 145.19 19.03L145.19 19.03Q145.09 21.47 144.08 22.60Q143.08 23.72 140.75 23.84ZM145.07 11.62L141.61 11.62Q141.65 10.79 141.66 9.96Q141.67 9.13 141.64 8.30L141.64 8.30Q141.62 7.87 141.39 7.59Q141.16 7.31 140.75 7.19L140.75 7.19L140.75 4.19Q142.98 4.31 144 5.43Q145.02 6.55 145.12 8.98L145.12 8.98Q145.14 9.49 145.12 10.24Q145.10 10.98 145.07 11.62L145.07 11.62ZM147.34 11.93L145.97 11.93L145.97 9.22L147.34 9.22L147.34 5.14L150.94 5.14L150.94 19.99Q150.94 20.64 151.24 20.92Q151.55 21.19 152.50 21.19L152.50 21.19Q152.77 21.19 153.04 21.18Q153.31 21.17 153.65 21.17L153.65 21.17L153.65 23.74Q153.40 23.81 153.11 23.83Q152.82 23.86 152.50 23.86L152.50 23.86Q149.75 23.86 148.54 22.86Q147.34 21.86 147.34 19.58L147.34 19.58L147.34 11.93ZM153.41 11.93L152.11 11.93L152.11 9.22L153.41 9.22L153.41 11.93ZM154.62 19.58L154.62 19.58Q154.60 19.18 154.58 18.33Q154.57 17.48 154.57 16.49Q154.57 15.49 154.58 14.62Q154.60 13.74 154.62 13.30L154.62 13.30Q154.78 11.12 155.75 10.12Q156.73 9.11 158.82 8.99L158.82 8.99L158.82 11.75Q158.52 11.84 158.38 12.08Q158.23 12.32 158.22 12.74L158.22 12.74Q158.20 13.60 158.18 14.51Q158.17 15.43 158.17 16.37Q158.17 17.32 158.18 18.22Q158.20 19.13 158.22 19.97L158.22 19.97Q158.23 20.41 158.38 20.68Q158.52 20.95 158.82 21.07L158.82 21.07L158.82 23.84Q156.71 23.71 155.72 22.72Q154.74 21.72 154.62 19.58ZM160.02 23.84L160.02 23.84L160.02 21.08Q160.30 20.96 160.43 20.69Q160.57 20.42 160.60 19.97L160.60 19.97Q160.62 19.68 160.62 19.16Q160.62 18.65 160.60 18.02L160.60 18.02L164.10 18.02Q164.12 18.14 164.14 18.67Q164.15 19.19 164.12 19.58L164.12 19.58Q164.03 21.73 163.06 22.73Q162.10 23.74 160.02 23.84ZM164.10 17.02L159.37 17.02L159.37 14.54L160.62 14.54Q160.62 14.11 160.61 13.73Q160.61 13.34 160.60 13.08Q160.60 12.82 160.60 12.74L160.60 12.74Q160.58 12.35 160.44 12.11Q160.30 11.87 160.02 11.76L160.02 11.76L160.02 9Q162.11 9.11 163.06 10.09Q164.02 11.06 164.12 13.15L164.12 13.15Q164.14 13.42 164.14 14.08Q164.15 14.75 164.14 15.55Q164.14 16.34 164.10 17.02L164.10 17.02ZM169.39 23.62L165.79 23.62L165.79 9.22L169.39 9.22L169.39 23.62ZM175.94 23.62L172.34 23.62L172.34 12.72Q172.34 12.14 172.05 11.87Q171.76 11.59 171.19 11.59L171.19 11.59Q171.05 11.59 170.90 11.62Q170.75 11.64 170.59 11.69L170.59 11.69L170.59 9.91Q170.96 9.46 171.46 9.22Q171.95 8.98 172.75 8.98L172.75 8.98Q174.25 8.98 175.10 9.91Q175.94 10.85 175.94 13.03L175.94 13.03L175.94 23.62ZM177.71 19.58L177.71 19.58Q177.68 19.18 177.67 18.33Q177.66 17.48 177.66 16.49Q177.66 15.49 177.67 14.62Q177.68 13.74 177.71 13.30L177.71 13.30Q177.86 11.12 178.84 10.12Q179.82 9.11 181.91 8.99L181.91 8.99L181.91 11.75Q181.61 11.84 181.46 12.08Q181.32 12.32 181.31 12.74L181.31 12.74Q181.28 13.60 181.27 14.51Q181.26 15.43 181.26 16.37Q181.26 17.32 181.27 18.22Q181.28 19.13 181.31 19.97L181.31 19.97Q181.32 20.41 181.46 20.68Q181.61 20.95 181.91 21.07L181.91 21.07L181.91 23.84Q179.80 23.71 178.81 22.72Q177.83 21.72 177.71 19.58ZM183.11 23.84L183.11 23.84L183.11 21.08Q183.38 20.96 183.52 20.69Q183.66 20.42 183.68 19.97L183.68 19.97Q183.71 19.68 183.71 19.16Q183.71 18.65 183.68 18.02L183.68 18.02L187.19 18.02Q187.21 18.14 187.22 18.67Q187.24 19.19 187.21 19.58L187.21 19.58Q187.12 21.73 186.15 22.73Q185.18 23.74 183.11 23.84ZM187.19 14.76L183.68 14.76Q183.70 14.54 183.70 14.13Q183.71 13.72 183.70 13.31Q183.70 12.91 183.68 12.74L183.68 12.74Q183.66 12.34 183.52 12.10Q183.38 11.86 183.11 11.76L183.11 11.76L183.11 8.99Q185.20 9.11 186.16 10.09Q187.12 11.06 187.21 13.15L187.21 13.15Q187.24 13.55 187.22 14.09Q187.21 14.63 187.19 14.76L187.19 14.76ZM192.49 7.13L188.89 7.13L188.89 4.42L192.49 4.42L192.49 7.13ZM192.49 23.62L188.89 23.62L188.89 9.22L192.49 9.22L192.49 23.62ZM198.02 23.62L194.42 23.62L194.42 4.42L198.02 4.42L198.02 23.62ZM208.85 23.62L205.25 23.62L205.25 4.42L208.85 4.42L208.85 23.62ZM210.12 23.62L210.05 23.62L210.05 20.45L210.12 20.45Q210.88 20.45 211.27 20.10Q211.67 19.75 211.68 19.10L211.68 19.10Q211.72 17.82 211.73 16.55Q211.75 15.28 211.75 14.00Q211.75 12.73 211.73 11.45Q211.72 10.18 211.68 8.90L211.68 8.90Q211.67 8.27 211.27 7.93Q210.88 7.58 210.12 7.58L210.12 7.58L210.05 7.58L210.05 4.42L210.12 4.42Q212.82 4.42 214.03 5.56Q215.23 6.71 215.28 9.34L215.28 9.34Q215.32 11.00 215.33 12.50Q215.34 14.00 215.33 15.50Q215.32 17.00 215.28 18.67L215.28 18.67Q215.23 21.31 214.03 22.46Q212.82 23.62 210.12 23.62L210.12 23.62ZM220.76 7.13L217.16 7.13L217.16 4.42L220.76 4.42L220.76 7.13ZM220.76 23.62L217.16 23.62L217.16 9.22L220.76 9.22L220.76 23.62ZM222.43 19.58L222.43 19.58Q222.42 19.19 222.43 18.67Q222.44 18.14 222.46 18.02L222.46 18.02L225.60 18.02Q225.59 18.65 225.59 19.16Q225.59 19.68 225.60 19.97L225.60 19.97Q225.62 20.42 225.80 20.69Q225.97 20.95 226.27 21.07L226.27 21.07L226.27 23.84Q224.28 23.72 223.40 22.72Q222.53 21.72 222.43 19.58ZM227.47 23.84L227.47 23.84L227.47 21.11Q227.89 21.01 228.09 20.74Q228.29 20.46 228.29 19.97L228.29 19.97Q228.29 19.67 228.29 19.62Q228.29 19.57 228.29 19.53Q228.29 19.49 228.29 19.20L228.29 19.20Q228.29 18.84 228.11 18.58Q227.94 18.32 227.52 18.22L227.52 18.22L225.82 17.74Q224.74 17.42 223.96 16.96Q223.18 16.49 222.76 15.77Q222.34 15.05 222.34 13.99L222.34 13.99Q222.34 13.81 222.34 13.64Q222.34 13.48 222.34 13.32L222.34 13.32Q222.34 11.14 223.27 10.12Q224.20 9.10 226.44 8.99L226.44 8.99L226.44 11.74Q226.13 11.83 225.99 12.08Q225.85 12.32 225.84 12.74L225.84 12.74Q225.83 13.01 225.82 13.13Q225.82 13.25 225.82 13.68L225.82 13.68Q225.82 14.12 225.98 14.44Q226.15 14.75 226.70 14.88L226.70 14.88L228.19 15.24Q229.87 15.64 230.74 16.49Q231.60 17.35 231.60 19.01L231.60 19.01Q231.60 19.16 231.60 19.34Q231.60 19.51 231.60 19.68L231.60 19.68Q231.60 21.78 230.64 22.76Q229.68 23.74 227.47 23.84ZM231.43 14.76L228.17 14.76Q228.18 14.54 228.19 14.13Q228.19 13.72 228.19 13.31Q228.18 12.91 228.17 12.74L228.17 12.74Q228.14 12.35 228.02 12.11Q227.90 11.87 227.64 11.76L227.64 11.76L227.64 8.99Q229.64 9.11 230.50 10.09Q231.36 11.08 231.46 13.15L231.46 13.15Q231.47 13.42 231.47 13.76Q231.47 14.10 231.46 14.39Q231.44 14.68 231.43 14.76L231.43 14.76ZM236.80 28.42L233.20 28.42L233.20 9.22L236.80 9.22L236.80 28.42ZM238.00 23.04L238.00 21.22Q238.08 21.23 238.17 21.23Q238.26 21.24 238.36 21.24L238.36 21.24Q238.92 21.24 239.29 20.96Q239.66 20.69 239.70 20.11L239.70 20.11Q239.75 19.40 239.77 18.47Q239.80 17.53 239.80 16.50Q239.80 15.47 239.77 14.48Q239.75 13.50 239.70 12.72L239.70 12.72Q239.66 12.14 239.41 11.87Q239.16 11.59 238.60 11.59L238.60 11.59Q238.32 11.59 238.00 11.69L238.00 11.69L238.00 9.77Q238.34 9.38 238.82 9.18Q239.29 8.98 240.04 8.98L240.04 8.98Q241.54 8.98 242.36 9.91Q243.19 10.85 243.30 13.03L243.30 13.03Q243.32 13.60 243.34 14.50Q243.36 15.41 243.36 16.42Q243.36 17.42 243.34 18.33Q243.32 19.24 243.30 19.80L243.30 19.80Q243.19 21.97 242.27 22.91Q241.34 23.86 239.84 23.86L239.84 23.86Q238.76 23.86 238.00 23.04L238.00 23.04ZM248.71 23.62L245.11 23.62L245.11 4.42L248.71 4.42L248.71 23.62ZM250.36 20.35L250.36 20.35Q250.34 20.14 250.34 19.82Q250.34 19.51 250.36 19.30L250.36 19.30Q250.44 18.31 250.82 17.62Q251.21 16.93 251.99 16.42Q252.78 15.90 254.08 15.43L254.08 15.43Q254.42 15.30 254.75 15.20Q255.07 15.10 255.40 15.01L255.40 15.01L255.40 17.34Q255.30 17.38 255.20 17.42Q255.11 17.46 255.01 17.50L255.01 17.50Q254.39 17.78 254.17 18.25Q253.94 18.72 253.91 19.30L253.91 19.30Q253.90 19.52 253.90 19.70Q253.90 19.88 253.91 20.06L253.91 20.06Q253.97 20.64 254.27 20.94Q254.58 21.24 255.13 21.24L255.13 21.24Q255.23 21.24 255.40 21.22L255.40 21.22L255.40 23.15Q254.77 23.81 253.62 23.81L253.62 23.81Q252.02 23.81 251.27 23.03Q250.52 22.26 250.36 20.35ZM254.34 14.76L250.84 14.76Q250.82 14.63 250.81 14.09Q250.80 13.55 250.81 13.15L250.81 13.15Q250.90 11.11 251.80 10.10Q252.70 9.10 254.92 8.99L254.92 8.99L254.92 11.72Q254.62 11.82 254.49 12.07Q254.36 12.31 254.34 12.74L254.34 12.74Q254.33 12.91 254.32 13.31Q254.32 13.72 254.32 14.13Q254.33 14.54 254.34 14.76L254.34 14.76ZM260.15 23.62L256.60 23.62L256.60 12.86Q256.60 12.47 256.49 12.20Q256.39 11.93 256.12 11.80L256.12 11.80L256.12 8.99Q258.43 9.11 259.31 10.23Q260.18 11.35 260.17 13.73L260.17 13.73L260.15 23.62ZM269.50 23.62L264.32 23.62L261.59 9.22L265.24 9.22L266.10 15.72L266.51 20.98L269.92 20.98L269.50 23.62ZM263.96 28.68L263.96 28.68Q263.56 28.68 263.10 28.63Q262.64 28.58 262.21 28.51L262.21 28.51L262.21 25.85Q262.54 25.86 263.08 25.88Q263.63 25.90 263.96 25.90L263.96 25.90Q264.88 25.90 265.37 25.64Q265.87 25.39 265.74 24.82L265.74 24.82L265.74 24.79L269.29 24.79L269.29 24.82Q269.29 26.21 268.69 27.06Q268.09 27.91 266.90 28.30Q265.72 28.68 263.96 28.68ZM270.11 19.78L267.25 19.78L267.49 15.72L268.14 9.22L271.79 9.22L270.11 19.78ZM277.85 12.17L277.85 12.17Q277.85 11.48 277.85 10.96Q277.85 10.44 277.85 10.06Q277.85 9.68 277.85 9.42Q277.86 9.16 277.87 9L277.87 9Q277.97 6.56 279.02 5.44Q280.07 4.31 282.38 4.19L282.38 4.19L282.38 7.16Q281.47 7.40 281.47 8.33L281.47 8.33Q281.47 8.41 281.47 8.94Q281.46 9.47 281.45 10.16Q281.45 10.86 281.44 11.47Q281.44 12.07 281.45 12.31L281.45 12.31Q281.47 12.90 281.93 13.22Q282.40 13.54 283.06 13.54L283.06 13.54Q283.13 13.54 283.20 13.54Q283.27 13.54 283.34 13.52L283.34 13.52L283.34 15.97Q283.03 16.22 282.59 16.37Q282.16 16.51 281.59 16.51L281.59 16.51Q280.64 16.51 279.79 16.07Q278.93 15.64 278.39 14.68Q277.85 13.72 277.85 12.17ZM278.21 19.06L278.21 19.06Q278.21 18.86 278.21 18.65Q278.21 18.43 278.21 18.20Q278.22 17.98 278.23 17.74L278.23 17.74L281.81 17.74Q281.80 18.20 281.78 18.66Q281.77 19.12 281.81 19.73L281.81 19.73Q281.83 20.10 281.96 20.38Q282.08 20.66 282.38 20.80L282.38 20.80L282.38 23.83Q280.16 23.69 279.19 22.57Q278.21 21.44 278.21 19.06ZM283.58 23.84L283.58 23.84L283.58 20.87Q284.00 20.77 284.21 20.47Q284.41 20.17 284.42 19.73L284.42 19.73Q284.47 18.23 284.50 16.90Q284.52 15.56 284.52 14.24Q284.52 12.91 284.50 11.47Q284.47 10.03 284.42 8.33L284.42 8.33Q284.41 7.87 284.20 7.59Q283.98 7.31 283.58 7.19L283.58 7.19L283.58 4.19Q285.94 4.31 286.96 5.44Q287.98 6.56 288.02 9L288.02 9Q288.06 10.93 288.07 12.59Q288.08 14.26 288.07 15.83Q288.06 17.40 288.02 19.06L288.02 19.06Q287.98 21.52 286.91 22.63Q285.84 23.75 283.58 23.84ZM290.05 19.03L290.05 19.03Q290.02 17.41 290.00 15.71Q289.99 14.00 290.00 12.30Q290.02 10.60 290.05 8.98L290.05 8.98Q290.11 6.79 291.26 5.57Q292.42 4.34 294.54 4.20L294.54 4.20L294.54 7.18Q293.71 7.42 293.68 8.30L293.68 8.30Q293.63 9.68 293.60 11.12Q293.57 12.55 293.57 14.00Q293.57 15.46 293.60 16.89Q293.63 18.32 293.68 19.70L293.68 19.70Q293.71 20.62 294.54 20.86L294.54 20.86L294.54 23.83Q292.42 23.69 291.26 22.45Q290.11 21.20 290.05 19.03ZM295.74 23.83L295.74 23.83L295.74 20.84Q296.52 20.62 296.58 19.70L296.58 19.70Q296.66 17.87 296.69 15.94Q296.72 14.00 296.69 12.07Q296.66 10.14 296.58 8.30L296.58 8.30Q296.54 7.42 295.74 7.18L295.74 7.18L295.74 4.20Q297.82 4.36 298.96 5.59Q300.10 6.82 300.16 8.98L300.16 8.98Q300.20 10.20 300.23 11.47Q300.25 12.74 300.25 14.02Q300.25 15.30 300.23 16.56Q300.20 17.82 300.16 19.03L300.16 19.03Q300.10 21.19 298.96 22.43Q297.82 23.66 295.74 23.83ZM302.22 19.03L302.22 19.03Q302.18 17.41 302.17 15.71Q302.16 14.00 302.17 12.30Q302.18 10.60 302.22 8.98L302.22 8.98Q302.28 6.79 303.43 5.57Q304.58 4.34 306.71 4.20L306.71 4.20L306.71 7.18Q305.88 7.42 305.84 8.30L305.84 8.30Q305.80 9.68 305.77 11.12Q305.74 12.55 305.74 14.00Q305.74 15.46 305.77 16.89Q305.80 18.32 305.84 19.70L305.84 19.70Q305.88 20.62 306.71 20.86L306.71 20.86L306.71 23.83Q304.58 23.69 303.43 22.45Q302.28 21.20 302.22 19.03ZM307.91 23.83L307.91 23.83L307.91 20.84Q308.69 20.62 308.75 19.70L308.75 19.70Q308.83 17.87 308.86 15.94Q308.89 14.00 308.86 12.07Q308.83 10.14 308.75 8.30L308.75 8.30Q308.71 7.42 307.91 7.18L307.91 7.18L307.91 4.20Q309.98 4.36 311.12 5.59Q312.26 6.82 312.32 8.98L312.32 8.98Q312.37 10.20 312.40 11.47Q312.42 12.74 312.42 14.02Q312.42 15.30 312.40 16.56Q312.37 17.82 312.32 19.03L312.32 19.03Q312.26 21.19 311.12 22.43Q309.98 23.66 307.91 23.83ZM323.24 23.62L319.64 23.62L319.64 9.22L323.24 9.22L323.24 23.62ZM329.80 23.62L326.20 23.62L326.20 12.72Q326.20 12.14 325.90 11.87Q325.61 11.59 325.04 11.59L325.04 11.59Q324.90 11.59 324.75 11.62Q324.60 11.64 324.44 11.69L324.44 11.69L324.44 9.91Q324.82 9.46 325.31 9.22Q325.80 8.98 326.60 8.98L326.60 8.98Q328.10 8.98 328.95 9.91Q329.80 10.85 329.80 13.03L329.80 13.03L329.80 23.62ZM331.56 19.03L331.56 19.03Q331.55 18.62 331.53 17.93Q331.51 17.24 331.51 16.45Q331.51 15.66 331.52 14.94Q331.54 14.22 331.56 13.78L331.56 13.78Q331.69 11.35 332.63 10.23Q333.58 9.11 335.88 8.99L335.88 8.99L335.88 11.76Q335.52 11.88 335.35 12.16Q335.17 12.44 335.16 12.86L335.16 12.86Q335.14 13.69 335.12 14.59Q335.11 15.49 335.11 16.41Q335.11 17.33 335.12 18.23Q335.14 19.13 335.16 19.94L335.16 19.94Q335.17 20.38 335.35 20.66Q335.52 20.95 335.88 21.07L335.88 21.07L335.88 23.84Q333.60 23.72 332.65 22.60Q331.69 21.48 331.56 19.03ZM337.08 23.84L337.08 23.84L337.08 21.10Q337.46 20.98 337.64 20.68Q337.81 20.39 337.82 19.94L337.82 19.94Q337.85 19.12 337.87 18.22Q337.88 17.33 337.88 16.40Q337.88 15.48 337.87 14.59Q337.85 13.69 337.82 12.86L337.82 12.86Q337.81 12.42 337.64 12.14Q337.46 11.86 337.08 11.74L337.08 11.74L337.08 8.99Q338.64 9.06 339.56 9.58Q340.48 10.10 340.91 11.14Q341.34 12.17 341.42 13.78L341.42 13.78Q341.45 14.18 341.46 14.88Q341.47 15.58 341.47 16.37Q341.47 17.16 341.46 17.87Q341.45 18.58 341.42 19.03L341.42 19.03Q341.34 20.65 340.91 21.69Q340.48 22.73 339.56 23.25Q338.64 23.77 337.08 23.84ZM346.84 23.62L343.24 23.62L343.24 9.22L346.84 9.22L346.84 23.62ZM348.04 12.11L348.04 12.11L348.04 9.58Q348.50 9.12 349.40 9.12L349.40 9.12Q349.72 9.12 350.00 9.14Q350.29 9.17 350.44 9.19L350.44 9.19L350.44 11.93L349.45 11.93Q348.58 11.93 348.04 12.11ZM355.50 23.62L351.90 23.62L351.90 9.22L355.50 9.22L355.50 23.62ZM368.46 23.62L364.86 23.62L364.81 12.72Q364.80 12.14 364.54 11.87Q364.27 11.59 363.71 11.59L363.71 11.59Q363.46 11.59 363.20 11.70L363.20 11.70L363.20 9.80Q363.59 9.42 364.09 9.20Q364.58 8.98 365.27 8.98L365.27 8.98Q366.77 8.98 367.57 9.91Q368.38 10.85 368.41 13.03L368.41 13.03L368.46 23.62ZM362.05 23.62L358.45 23.62L358.40 12.72Q358.40 12.14 358.13 11.87Q357.86 11.59 357.30 11.59L357.30 11.59Q357.16 11.59 357.01 11.61Q356.87 11.63 356.70 11.69L356.70 11.69L356.70 9.91Q357.08 9.46 357.57 9.22Q358.06 8.98 358.86 8.98L358.86 8.98Q360.36 8.98 361.16 9.91Q361.97 10.85 362.00 13.03L362.00 13.03L362.05 23.62ZM370.06 20.35L370.06 20.35Q370.04 20.14 370.04 19.82Q370.04 19.51 370.06 19.30L370.06 19.30Q370.14 18.31 370.52 17.62Q370.91 16.93 371.69 16.42Q372.48 15.90 373.78 15.43L373.78 15.43Q374.12 15.30 374.45 15.20Q374.77 15.10 375.10 15.01L375.10 15.01L375.10 17.34Q375.00 17.38 374.90 17.42Q374.81 17.46 374.71 17.50L374.71 17.50Q374.09 17.78 373.87 18.25Q373.64 18.72 373.61 19.30L373.61 19.30Q373.60 19.52 373.60 19.70Q373.60 19.88 373.61 20.06L373.61 20.06Q373.67 20.64 373.97 20.94Q374.28 21.24 374.83 21.24L374.83 21.24Q374.93 21.24 375.10 21.22L375.10 21.22L375.10 23.15Q374.47 23.81 373.32 23.81L373.32 23.81Q371.72 23.81 370.97 23.03Q370.22 22.26 370.06 20.35ZM374.04 14.76L370.54 14.76Q370.52 14.63 370.51 14.09Q370.50 13.55 370.51 13.15L370.51 13.15Q370.60 11.11 371.50 10.10Q372.40 9.10 374.62 8.99L374.62 8.99L374.62 11.72Q374.32 11.82 374.19 12.07Q374.06 12.31 374.04 12.74L374.04 12.74Q374.03 12.91 374.02 13.31Q374.02 13.72 374.02 14.13Q374.03 14.54 374.04 14.76L374.04 14.76ZM379.85 23.62L376.30 23.62L376.30 12.86Q376.30 12.47 376.19 12.20Q376.09 11.93 375.82 11.80L375.82 11.80L375.82 8.99Q378.13 9.11 379.01 10.23Q379.88 11.35 379.87 13.73L379.87 13.73L379.85 23.62ZM385.39 23.62L381.79 23.62L381.79 4.42L385.39 4.42L385.39 23.62Z"/></svg>