<svg xmlns="http://www.w3.org/2000/svg" xmlns:xlink="http://www.w3.org/1999/xlink" width="312.888" height="37.464"><path fill="black" d="M6.74 25.66L1.03 25.66L1.03 24.89L1.68 24.89Q2.26 24.89 2.63 24.76Q3 24.62 3.18 24.22Q3.36 23.81 3.36 22.99L3.36 22.99L3.36 11.14Q3.36 10.32 3.18 9.92Q3 9.53 2.62 9.41Q2.23 9.29 1.68 9.29L1.68 9.29L1.03 9.29L1.03 8.52L4.75 8.52L13.78 22.94L13.78 11.14Q13.78 10.32 13.58 9.92Q13.39 9.53 13.02 9.41Q12.65 9.29 12.07 9.29L12.07 9.29L11.47 9.29L11.47 8.52L17.14 8.52L17.14 9.29L16.51 9.29Q15.96 9.29 15.58 9.42Q15.19 9.55 15.01 9.95Q14.83 10.34 14.83 11.18L14.83 11.18L14.83 25.66L13.63 25.66L4.44 10.99L4.44 22.99Q4.44 23.81 4.62 24.22Q4.80 24.62 5.18 24.76Q5.57 24.89 6.12 24.89L6.12 24.89L6.74 24.89L6.74 25.66ZM24.60 25.90L24.60 25.90Q22.18 25.90 20.78 24.25Q19.39 22.61 19.39 19.22L19.39 19.22Q19.39 15.86 20.74 14.23Q22.08 12.60 24.70 12.60L24.70 12.60Q27.14 12.60 28.51 14.21Q29.88 15.82 29.88 19.22L29.88 19.22Q29.88 22.61 28.54 24.25Q27.19 25.90 24.60 25.90ZM24.62 24.94L24.62 24.94Q25.97 24.94 26.78 24.26Q27.60 23.59 27.95 22.31Q28.30 21.02 28.30 19.22L28.30 19.22Q28.30 16.37 27.44 14.96Q26.59 13.56 24.67 13.56L24.67 13.56Q22.66 13.56 21.80 14.98Q20.95 16.39 20.95 19.22L20.95 19.22Q20.95 21.98 21.82 23.46Q22.68 24.94 24.62 24.94ZM36.65 25.90L36.65 25.90Q35.02 25.90 34.30 25.07Q33.58 24.24 33.58 22.22L33.58 22.22L33.58 13.80L31.73 13.80L31.73 13.08Q32.18 13.08 32.65 12.91Q33.12 12.74 33.43 12.43L33.43 12.43Q33.77 12.10 33.98 11.50Q34.20 10.90 34.30 9.86L34.30 9.86L35.11 9.86L35.11 12.79L38.21 12.79L38.21 13.80L35.11 13.80L35.11 22.37Q35.11 23.71 35.58 24.32Q36.05 24.94 36.96 24.94L36.96 24.94Q37.37 24.94 37.70 24.90Q38.04 24.86 38.42 24.79L38.42 24.79L38.42 25.63Q38.09 25.75 37.60 25.82Q37.10 25.90 36.65 25.90ZM45.67 25.90L45.67 25.90Q43.25 25.90 41.86 24.25Q40.46 22.61 40.46 19.22L40.46 19.22Q40.46 15.86 41.81 14.23Q43.15 12.60 45.77 12.60L45.77 12.60Q48.22 12.60 49.58 14.21Q50.95 15.82 50.95 19.22L50.95 19.22Q50.95 22.61 49.61 24.25Q48.26 25.90 45.67 25.90ZM45.70 24.94L45.70 24.94Q47.04 24.94 47.86 24.26Q48.67 23.59 49.02 22.31Q49.37 21.02 49.37 19.22L49.37 19.22Q49.37 16.37 48.52 14.96Q47.66 13.56 45.74 13.56L45.74 13.56Q43.73 13.56 42.88 14.98Q42.02 16.39 42.02 19.22L42.02 19.22Q42.02 21.98 42.89 23.46Q43.75 24.94 45.70 24.94ZM64.68 25.90L64.68 25.90Q63.53 25.90 62.65 25.64Q61.78 25.39 61.20 24.92Q60.62 24.46 60.34 23.86Q60.05 23.26 60.05 22.56L60.05 22.56Q60.05 22.18 60.19 21.88Q60.34 21.58 60.59 21.42Q60.84 21.26 61.22 21.26L61.22 21.26Q61.25 22.34 61.64 23.18Q62.04 24.02 62.82 24.50Q63.60 24.98 64.80 24.98L64.80 24.98Q66.50 24.98 67.39 24.08Q68.28 23.18 68.28 21.67L68.28 21.67Q68.28 20.74 67.92 20.06Q67.56 19.39 66.73 18.80Q65.90 18.22 64.51 17.57L64.51 17.57Q63.12 16.90 62.22 16.21Q61.32 15.53 60.90 14.62Q60.48 13.70 60.48 12.46L60.48 12.46Q60.48 11.21 61.08 10.27Q61.68 9.34 62.75 8.81Q63.82 8.28 65.21 8.28L65.21 8.28Q66.50 8.28 67.43 8.65Q68.35 9.02 68.87 9.62Q69.38 10.22 69.38 10.94L69.38 10.94Q69.38 11.57 69.05 11.89Q68.71 12.22 68.11 12.22L68.11 12.22Q68.11 11.35 67.80 10.67Q67.49 9.98 66.84 9.60Q66.19 9.22 65.16 9.22L65.16 9.22Q63.62 9.22 62.81 10.07Q61.99 10.92 61.99 12.29L61.99 12.29Q61.99 13.27 62.35 13.94Q62.71 14.62 63.47 15.14Q64.22 15.67 65.45 16.25L65.45 16.25Q66.72 16.87 67.70 17.53Q68.69 18.19 69.26 19.09Q69.84 19.99 69.84 21.31L69.84 21.31Q69.84 22.70 69.23 23.72Q68.62 24.74 67.46 25.32Q66.31 25.90 64.68 25.90ZM77.71 25.90L77.71 25.90Q75.29 25.90 73.88 24.18Q72.48 22.46 72.48 19.34L72.48 19.34Q72.48 15.96 73.79 14.28Q75.10 12.60 77.50 12.60L77.50 12.60Q79.68 12.60 80.92 14.11Q82.15 15.62 82.15 18.48L82.15 18.48L82.15 19.22L74.06 19.22Q74.09 22.08 75.11 23.44Q76.13 24.79 77.93 24.79L77.93 24.79Q79.22 24.79 80.08 24.24Q80.93 23.69 81.36 22.92L81.36 22.92Q81.50 22.99 81.60 23.16Q81.70 23.33 81.70 23.57L81.70 23.57Q81.70 24 81.26 24.55Q80.83 25.10 79.94 25.50Q79.06 25.90 77.71 25.90ZM74.11 18.26L80.52 18.26Q80.52 16.15 79.79 14.87Q79.06 13.58 77.45 13.58L77.45 13.58Q75.82 13.58 75.02 14.82Q74.23 16.06 74.11 18.26L74.11 18.26ZM90.53 25.66L84.36 25.66L84.36 24.89L84.65 24.89Q85.27 24.89 85.67 24.78Q86.06 24.67 86.26 24.29Q86.45 23.90 86.45 23.09L86.45 23.09L86.45 15.26Q86.45 14.47 86.26 14.12Q86.06 13.78 85.64 13.67Q85.22 13.56 84.53 13.56L84.53 13.56L84.31 13.56L84.31 12.79L87.62 12.79L87.89 15.31L87.98 15.31Q88.30 14.59 88.68 13.97Q89.06 13.34 89.69 12.96Q90.31 12.58 91.30 12.58L91.30 12.58Q92.42 12.58 93.02 13.03Q93.62 13.49 93.62 14.28L93.62 14.28Q93.62 14.81 93.29 15.18Q92.95 15.55 92.18 15.55L92.18 15.55Q92.18 14.88 92.03 14.47Q91.87 14.06 91.56 13.88Q91.25 13.70 90.74 13.70L90.74 13.70Q90.05 13.70 89.53 14.21Q89.02 14.71 88.68 15.52Q88.34 16.32 88.16 17.26Q87.98 18.19 87.98 19.08L87.98 19.08L87.98 23.16Q87.98 23.95 88.19 24.31Q88.39 24.67 88.79 24.78Q89.18 24.89 89.78 24.89L89.78 24.89L90.53 24.89L90.53 25.66ZM100.99 25.66L94.63 25.66L94.63 24.89L95.11 24.89Q95.81 24.89 96.23 24.78Q96.65 24.67 96.84 24.32Q97.03 23.98 97.03 23.21L97.03 23.21L97.03 15.31Q97.03 14.50 96.84 14.14Q96.65 13.78 96.25 13.67Q95.86 13.56 95.23 13.56L95.23 13.56L94.99 13.56L94.99 12.79L98.57 12.79L98.57 23.14Q98.57 23.93 98.76 24.30Q98.95 24.67 99.37 24.78Q99.79 24.89 100.49 24.89L100.49 24.89L100.99 24.89L100.99 25.66ZM97.70 10.15L97.70 10.15Q97.27 10.15 96.98 9.88Q96.70 9.60 96.70 8.90L96.70 8.90Q96.70 8.18 96.98 7.92Q97.27 7.66 97.70 7.66L97.70 7.66Q98.11 7.66 98.40 7.92Q98.69 8.18 98.69 8.90L98.69 8.90Q98.69 9.60 98.40 9.88Q98.11 10.15 97.70 10.15ZM108.72 25.66L101.98 25.66L101.98 24.89L102.50 24.89Q103.13 24.89 103.52 24.78Q103.92 24.67 104.11 24.29Q104.30 23.90 104.30 23.09L104.30 23.09L104.30 13.68L102.07 13.68L102.07 12.79L104.30 12.79L104.30 11.45Q104.30 9.38 105.36 8.27Q106.42 7.15 108.26 7.15L108.26 7.15Q109.30 7.15 109.94 7.39Q110.59 7.63 110.90 8.03Q111.22 8.42 111.22 8.88L111.22 8.88Q111.22 9.26 111.05 9.53Q110.88 9.79 110.58 9.92Q110.28 10.06 109.92 10.06L109.92 10.06Q109.92 9.50 109.76 9.05Q109.61 8.59 109.22 8.32Q108.84 8.04 108.14 8.04L108.14 8.04Q106.94 8.04 106.39 8.89Q105.84 9.74 105.84 11.33L105.84 11.33L105.84 12.79L109.25 12.79L109.25 13.68L105.84 13.68L105.84 23.09Q105.84 23.90 106.03 24.29Q106.22 24.67 106.62 24.78Q107.02 24.89 107.64 24.89L107.64 24.89L108.72 24.89L108.72 25.66ZM126.34 25.66L119.33 25.66L119.33 24.89L120.34 24.89Q120.91 24.89 121.28 24.77Q121.66 24.65 121.85 24.25Q122.04 23.86 122.04 23.04L122.04 23.04L122.04 9.46L119.14 9.46Q118.15 9.46 117.82 9.92Q117.48 10.39 117.41 11.28L117.41 11.28L117.31 12.46L116.40 12.46L116.54 8.52L129.19 8.52L129.34 12.46L128.42 12.46L128.33 11.28Q128.26 10.39 127.93 9.92Q127.61 9.46 126.58 9.46L126.58 9.46L123.65 9.46L123.65 22.99Q123.65 23.81 123.84 24.22Q124.03 24.62 124.40 24.76Q124.78 24.89 125.35 24.89L125.35 24.89L126.34 24.89L126.34 25.66ZM134.78 25.90L134.78 25.90Q133.80 25.90 132.98 25.49Q132.17 25.08 131.70 24.23Q131.23 23.38 131.23 22.10L131.23 22.10Q131.23 20.18 132.59 19.28Q133.94 18.38 136.75 18.29L136.75 18.29L138.74 18.22L138.74 16.73Q138.74 15.79 138.58 15.07Q138.41 14.35 137.83 13.93Q137.26 13.51 136.10 13.51L136.10 13.51Q135.07 13.51 134.52 13.86Q133.97 14.21 133.78 14.83Q133.58 15.46 133.58 16.27L133.58 16.27Q132.91 16.27 132.58 15.97Q132.24 15.67 132.24 14.95L132.24 14.95Q132.24 14.26 132.68 13.73Q133.13 13.20 134.02 12.90Q134.90 12.60 136.15 12.60L136.15 12.60Q138.34 12.60 139.31 13.57Q140.28 14.54 140.28 16.56L140.28 16.56L140.28 22.97Q140.28 23.74 140.40 24.16Q140.52 24.58 140.83 24.73Q141.14 24.89 141.74 24.89L141.74 24.89L141.84 24.89L141.84 25.66L139.15 25.66L138.86 23.40L138.74 23.40Q138.36 24 137.84 24.58Q137.33 25.15 136.61 25.52Q135.89 25.90 134.78 25.90ZM135.14 24.82L135.14 24.82Q136.20 24.82 137.02 24.32Q137.83 23.83 138.29 23.02Q138.74 22.20 138.74 21.31L138.74 21.31L138.74 19.01L136.97 19.08Q135.38 19.13 134.47 19.51Q133.56 19.90 133.18 20.57Q132.79 21.24 132.79 22.18L132.79 22.18Q132.79 22.94 133.04 23.54Q133.30 24.14 133.81 24.48Q134.33 24.82 135.14 24.82ZM149.74 25.66L143.76 25.66L143.76 24.89L144.17 24.89Q144.86 24.89 145.27 24.78Q145.68 24.67 145.85 24.30Q146.02 23.93 146.02 23.14L146.02 23.14L146.02 15.26Q146.02 14.47 145.85 14.12Q145.68 13.78 145.28 13.67Q144.89 13.56 144.29 13.56L144.29 13.56L144.05 13.56L144.05 12.79L147.29 12.79L147.48 14.86L147.60 14.86Q148.01 13.99 148.55 13.50Q149.09 13.01 149.77 12.80Q150.46 12.60 151.22 12.60L151.22 12.60Q152.16 12.60 152.83 12.86Q153.50 13.13 153.96 13.64Q154.42 14.16 154.66 14.88L154.66 14.88L154.80 14.88Q155.18 14.09 155.72 13.58Q156.26 13.08 156.97 12.84Q157.68 12.60 158.57 12.60L158.57 12.60Q160.46 12.60 161.42 13.72Q162.38 14.83 162.38 17.14L162.38 17.14L162.38 23.14Q162.38 23.93 162.56 24.30Q162.74 24.67 163.15 24.78Q163.56 24.89 164.23 24.89L164.23 24.89L164.38 24.89L164.38 25.66L160.85 25.66L160.85 17.16Q160.85 15.50 160.22 14.60Q159.60 13.70 158.11 13.70L158.11 13.70Q156.98 13.70 156.30 14.21Q155.62 14.71 155.32 15.59Q155.02 16.46 155.02 17.50L155.02 17.50L155.02 23.14Q155.02 23.93 155.18 24.30Q155.35 24.67 155.76 24.78Q156.17 24.89 156.86 24.89L156.86 24.89L157.06 24.89L157.06 25.66L153.48 25.66L153.48 17.16Q153.48 15.50 152.86 14.60Q152.23 13.70 150.70 13.70L150.70 13.70Q149.59 13.70 148.90 14.28Q148.20 14.86 147.88 15.79Q147.55 16.73 147.55 17.83L147.55 17.83L147.55 23.21Q147.55 23.98 147.74 24.32Q147.94 24.67 148.36 24.78Q148.78 24.89 149.47 24.89L149.47 24.89L149.74 24.89L149.74 25.66ZM172.06 25.66L165.70 25.66L165.70 24.89L166.18 24.89Q166.87 24.89 167.29 24.78Q167.71 24.67 167.90 24.32Q168.10 23.98 168.10 23.21L168.10 23.21L168.10 15.31Q168.10 14.50 167.90 14.14Q167.71 13.78 167.32 13.67Q166.92 13.56 166.30 13.56L166.30 13.56L166.06 13.56L166.06 12.79L169.63 12.79L169.63 23.14Q169.63 23.93 169.82 24.30Q170.02 24.67 170.44 24.78Q170.86 24.89 171.55 24.89L171.55 24.89L172.06 24.89L172.06 25.66ZM168.77 10.15L168.77 10.15Q168.34 10.15 168.05 9.88Q167.76 9.60 167.76 8.90L167.76 8.90Q167.76 8.18 168.05 7.92Q168.34 7.66 168.77 7.66L168.77 7.66Q169.18 7.66 169.46 7.92Q169.75 8.18 169.75 8.90L169.75 8.90Q169.75 9.60 169.46 9.88Q169.18 10.15 168.77 10.15ZM178.90 25.66L172.54 25.66L172.54 24.89L173.04 24.89Q173.74 24.89 174.16 24.78Q174.58 24.67 174.77 24.30Q174.96 23.93 174.96 23.14L174.96 23.14L174.96 9.94Q174.96 9.12 174.77 8.76Q174.58 8.40 174.17 8.29Q173.76 8.18 173.16 8.18L173.16 8.18L172.54 8.18L172.54 7.42L176.50 7.42L176.50 23.14Q176.50 23.93 176.68 24.30Q176.86 24.67 177.29 24.78Q177.72 24.89 178.39 24.89L178.39 24.89L178.90 24.89L178.90 25.66ZM191.57 25.90L191.57 25.90Q190.03 25.90 189.05 25.51Q188.06 25.13 187.60 24.52Q187.13 23.90 187.13 23.23L187.13 23.23Q187.13 22.61 187.43 22.31Q187.73 22.01 188.16 22.01L188.16 22.01Q188.16 23.28 189.01 24.10Q189.86 24.91 191.59 24.91L191.59 24.91Q192.67 24.91 193.56 24.49Q194.45 24.07 195.00 23.18Q195.55 22.30 195.55 20.90L195.55 20.90Q195.55 19.18 194.47 18.19Q193.39 17.21 191.16 17.21L191.16 17.21L190.39 17.21L190.39 16.27L191.11 16.27Q192.22 16.27 193.09 15.80Q193.97 15.34 194.47 14.47Q194.98 13.61 194.98 12.41L194.98 12.41Q194.98 10.87 194.24 10.04Q193.51 9.22 191.95 9.22L191.95 9.22Q190.82 9.22 190.13 9.65Q189.43 10.08 189.14 10.84Q188.86 11.59 188.86 12.58L188.86 12.58Q188.26 12.58 187.87 12.30Q187.49 12.02 187.49 11.35L187.49 11.35Q187.49 10.54 187.98 9.84Q188.47 9.14 189.47 8.71Q190.46 8.28 191.93 8.28L191.93 8.28Q194.14 8.28 195.38 9.30Q196.63 10.32 196.63 12.22L196.63 12.22Q196.63 13.34 196.16 14.24Q195.70 15.14 194.94 15.73Q194.18 16.32 193.25 16.56L193.25 16.56Q193.92 16.63 194.62 16.88Q195.31 17.14 195.90 17.63Q196.49 18.12 196.86 18.91Q197.23 19.70 197.23 20.88L197.23 20.88Q197.23 22.25 196.74 23.21Q196.25 24.17 195.42 24.76Q194.59 25.34 193.60 25.62Q192.60 25.90 191.57 25.90ZM205.51 25.90L205.51 25.90Q203.59 25.90 202.38 24.86Q201.17 23.83 200.59 21.85Q200.02 19.87 200.02 17.04L200.02 17.04Q200.02 14.26 200.59 12.29Q201.17 10.32 202.38 9.30Q203.59 8.28 205.54 8.28L205.54 8.28Q207.41 8.28 208.61 9.30Q209.81 10.32 210.40 12.29Q210.98 14.26 210.98 17.06L210.98 17.06Q210.98 19.85 210.38 21.83Q209.78 23.81 208.57 24.85Q207.36 25.90 205.51 25.90ZM205.51 24.91L205.51 24.91Q206.88 24.91 207.71 24.01Q208.54 23.11 208.92 21.36Q209.30 19.61 209.30 17.06L209.30 17.06Q209.30 14.52 208.94 12.78Q208.58 11.04 207.77 10.15Q206.95 9.26 205.54 9.26L205.54 9.26Q204.10 9.26 203.26 10.18Q202.42 11.09 202.06 12.83Q201.70 14.57 201.70 17.06L201.70 17.06Q201.70 19.66 202.08 21.40Q202.46 23.14 203.30 24.02Q204.14 24.91 205.51 24.91ZM218.93 25.90L218.93 25.90Q217.01 25.90 215.80 24.86Q214.58 23.83 214.01 21.85Q213.43 19.87 213.43 17.04L213.43 17.04Q213.43 14.26 214.01 12.29Q214.58 10.32 215.80 9.30Q217.01 8.28 218.95 8.28L218.95 8.28Q220.82 8.28 222.02 9.30Q223.22 10.32 223.81 12.29Q224.40 14.26 224.40 17.06L224.40 17.06Q224.40 19.85 223.80 21.83Q223.20 23.81 221.99 24.85Q220.78 25.90 218.93 25.90ZM218.93 24.91L218.93 24.91Q220.30 24.91 221.12 24.01Q221.95 23.11 222.34 21.36Q222.72 19.61 222.72 17.06L222.72 17.06Q222.72 14.52 222.36 12.78Q222.00 11.04 221.18 10.15Q220.37 9.26 218.95 9.26L218.95 9.26Q217.51 9.26 216.67 10.18Q215.83 11.09 215.47 12.83Q215.11 14.57 215.11 17.06L215.11 17.06Q215.11 19.66 215.50 21.40Q215.88 23.14 216.72 24.02Q217.56 24.91 218.93 24.91ZM238.58 25.66L232.66 25.66L232.66 24.89L232.99 24.89Q233.71 24.89 234.12 24.78Q234.53 24.67 234.72 24.30Q234.91 23.93 234.91 23.14L234.91 23.14L234.91 15.26Q234.91 14.47 234.72 14.12Q234.53 13.78 234.14 13.67Q233.76 13.56 233.14 13.56L233.14 13.56L232.78 13.56L232.78 12.79L236.18 12.79L236.38 14.81L236.50 14.81Q237.00 13.92 237.56 13.44Q238.13 12.96 238.81 12.78Q239.50 12.60 240.34 12.60L240.34 12.60Q242.30 12.60 243.31 13.70Q244.32 14.81 244.32 17.18L244.32 17.18L244.32 23.14Q244.32 23.93 244.49 24.30Q244.66 24.67 245.06 24.78Q245.47 24.89 246.14 24.89L246.14 24.89L246.38 24.89L246.38 25.66L242.78 25.66L242.78 17.16Q242.78 15.58 242.14 14.64Q241.49 13.70 239.86 13.70L239.86 13.70Q238.56 13.70 237.82 14.29Q237.07 14.88 236.76 15.83Q236.45 16.78 236.45 17.83L236.45 17.83L236.45 23.21Q236.45 23.98 236.64 24.32Q236.83 24.67 237.24 24.78Q237.65 24.89 238.34 24.89L238.34 24.89L238.58 24.89L238.58 25.66ZM253.68 25.90L253.68 25.90Q251.26 25.90 249.86 24.25Q248.47 22.61 248.47 19.22L248.47 19.22Q248.47 15.86 249.82 14.23Q251.16 12.60 253.78 12.60L253.78 12.60Q256.22 12.60 257.59 14.21Q258.96 15.82 258.96 19.22L258.96 19.22Q258.96 22.61 257.62 24.25Q256.27 25.90 253.68 25.90ZM253.70 24.94L253.70 24.94Q255.05 24.94 255.86 24.26Q256.68 23.59 257.03 22.31Q257.38 21.02 257.38 19.22L257.38 19.22Q257.38 16.37 256.52 14.96Q255.67 13.56 253.75 13.56L253.75 13.56Q251.74 13.56 250.88 14.98Q250.03 16.39 250.03 19.22L250.03 19.22Q250.03 21.98 250.90 23.46Q251.76 24.94 253.70 24.94ZM267.50 25.66L261.34 25.66L261.34 24.89L261.62 24.89Q262.25 24.89 262.64 24.78Q263.04 24.67 263.23 24.29Q263.42 23.90 263.42 23.09L263.42 23.09L263.42 15.26Q263.42 14.47 263.23 14.12Q263.04 13.78 262.62 13.67Q262.20 13.56 261.50 13.56L261.50 13.56L261.29 13.56L261.29 12.79L264.60 12.79L264.86 15.31L264.96 15.31Q265.27 14.59 265.66 13.97Q266.04 13.34 266.66 12.96Q267.29 12.58 268.27 12.58L268.27 12.58Q269.40 12.58 270.00 13.03Q270.60 13.49 270.60 14.28L270.60 14.28Q270.60 14.81 270.26 15.18Q269.93 15.55 269.16 15.55L269.16 15.55Q269.16 14.88 269.00 14.47Q268.85 14.06 268.54 13.88Q268.22 13.70 267.72 13.70L267.72 13.70Q267.02 13.70 266.51 14.21Q265.99 14.71 265.66 15.52Q265.32 16.32 265.14 17.26Q264.96 18.19 264.96 19.08L264.96 19.08L264.96 23.16Q264.96 23.95 265.16 24.31Q265.37 24.67 265.76 24.78Q266.16 24.89 266.76 24.89L266.76 24.89L267.50 24.89L267.50 25.66ZM277.73 25.66L271.75 25.66L271.75 24.89L272.16 24.89Q272.86 24.89 273.26 24.78Q273.67 24.67 273.84 24.30Q274.01 23.93 274.01 23.14L274.01 23.14L274.01 15.26Q274.01 14.47 273.84 14.12Q273.67 13.78 273.28 13.67Q272.88 13.56 272.28 13.56L272.28 13.56L272.04 13.56L272.04 12.79L275.28 12.79L275.47 14.86L275.59 14.86Q276.00 13.99 276.54 13.50Q277.08 13.01 277.76 12.80Q278.45 12.60 279.22 12.60L279.22 12.60Q280.15 12.60 280.82 12.86Q281.50 13.13 281.95 13.64Q282.41 14.16 282.65 14.88L282.65 14.88L282.79 14.88Q283.18 14.09 283.72 13.58Q284.26 13.08 284.96 12.84Q285.67 12.60 286.56 12.60L286.56 12.60Q288.46 12.60 289.42 13.72Q290.38 14.83 290.38 17.14L290.38 17.14L290.38 23.14Q290.38 23.93 290.56 24.30Q290.74 24.67 291.14 24.78Q291.55 24.89 292.22 24.89L292.22 24.89L292.37 24.89L292.37 25.66L288.84 25.66L288.84 17.16Q288.84 15.50 288.22 14.60Q287.59 13.70 286.10 13.70L286.10 13.70Q284.98 13.70 284.29 14.21Q283.61 14.71 283.31 15.59Q283.01 16.46 283.01 17.50L283.01 17.50L283.01 23.14Q283.01 23.93 283.18 24.30Q283.34 24.67 283.75 24.78Q284.16 24.89 284.86 24.89L284.86 24.89L285.05 24.89L285.05 25.66L281.47 25.66L281.47 17.16Q281.47 15.50 280.85 14.60Q280.22 13.70 278.69 13.70L278.69 13.70Q277.58 13.70 276.89 14.28Q276.19 14.86 275.87 15.79Q275.54 16.73 275.54 17.83L275.54 17.83L275.54 23.21Q275.54 23.98 275.74 24.32Q275.93 24.67 276.35 24.78Q276.77 24.89 277.46 24.89L277.46 24.89L277.73 24.89L277.73 25.66ZM297.86 25.90L297.86 25.90Q296.88 25.90 296.06 25.49Q295.25 25.08 294.78 24.23Q294.31 23.38 294.31 22.10L294.31 22.10Q294.31 20.18 295.67 19.28Q297.02 18.38 299.83 18.29L299.83 18.29L301.82 18.22L301.82 16.73Q301.82 15.79 301.66 15.07Q301.49 14.35 300.91 13.93Q300.34 13.51 299.18 13.51L299.18 13.51Q298.15 13.51 297.60 13.86Q297.05 14.21 296.86 14.83Q296.66 15.46 296.66 16.27L296.66 16.27Q295.99 16.27 295.66 15.97Q295.32 15.67 295.32 14.95L295.32 14.95Q295.32 14.26 295.76 13.73Q296.21 13.20 297.10 12.90Q297.98 12.60 299.23 12.60L299.23 12.60Q301.42 12.60 302.39 13.57Q303.36 14.54 303.36 16.56L303.36 16.56L303.36 22.97Q303.36 23.74 303.48 24.16Q303.60 24.58 303.91 24.73Q304.22 24.89 304.82 24.89L304.82 24.89L304.92 24.89L304.92 25.66L302.23 25.66L301.94 23.40L301.82 23.40Q301.44 24 300.92 24.58Q300.41 25.15 299.69 25.52Q298.97 25.90 297.86 25.90ZM298.22 24.82L298.22 24.82Q299.28 24.82 300.10 24.32Q300.91 23.83 301.37 23.02Q301.82 22.20 301.82 21.31L301.82 21.31L301.82 19.01L300.05 19.08Q298.46 19.13 297.55 19.51Q296.64 19.90 296.26 20.57Q295.87 21.24 295.87 22.18L295.87 22.18Q295.87 22.94 296.12 23.54Q296.38 24.14 296.89 24.48Q297.41 24.82 298.22 24.82ZM312.65 25.66L306.29 25.66L306.29 24.89L306.79 24.89Q307.49 24.89 307.91 24.78Q308.33 24.67 308.52 24.30Q308.71 23.93 308.71 23.14L308.71 23.14L308.71 9.94Q308.71 9.12 308.52 8.76Q308.33 8.40 307.92 8.29Q307.51 8.18 306.91 8.18L306.91 8.18L306.29 8.18L306.29 7.42L310.25 7.42L310.25 23.14Q310.25 23.93 310.43 24.30Q310.61 24.67 311.04 24.78Q311.47 24.89 312.14 24.89L312.14 24.89L312.65 24.89L312.65 25.66Z"/></svg>