<svg xmlns="http://www.w3.org/2000/svg" xmlns:xlink="http://www.w3.org/1999/xlink" width="249.79199999999997" height="38.928"><path fill="black" d="M3.48 17.50L10.08 17.50L10.08 19.08L3.48 19.08L3.48 17.50ZM7.32 19.08L7.32 19.08L8.09 17.88Q9.72 17.88 10.80 18.42Q11.88 18.96 12.42 19.85Q12.96 20.74 12.96 21.84L12.96 21.84Q12.96 24.02 11.39 25.08Q9.82 26.14 6.91 26.14L6.91 26.14Q6.26 26.14 5.62 26.10Q4.97 26.06 4.34 25.97Q3.72 25.87 3.14 25.73L3.14 25.73Q2.14 25.44 2.14 24.62L2.14 24.62L2.14 12.34Q2.14 11.95 2.34 11.74Q2.54 11.52 2.93 11.42L2.93 11.42Q3.74 11.18 4.67 11.10Q5.59 11.02 6.65 11.02L6.65 11.02Q9.36 11.02 10.87 11.99Q12.38 12.96 12.38 14.95L12.38 14.95Q12.38 15.96 11.89 16.81Q11.40 17.66 10.31 18.18Q9.22 18.70 7.39 18.70L7.39 18.70L7.18 17.50Q8.76 17.50 9.58 16.84Q10.39 16.18 10.39 15L10.39 15Q10.39 13.80 9.44 13.21Q8.50 12.62 6.65 12.62L6.65 12.62Q5.83 12.62 5.21 12.68Q4.58 12.74 4.06 12.84L4.06 12.84L4.06 24.26Q4.63 24.38 5.39 24.46Q6.14 24.53 6.91 24.53L6.91 24.53Q8.90 24.53 9.94 23.86Q10.97 23.18 10.97 21.79L10.97 21.79Q10.97 20.54 10.04 19.81Q9.12 19.08 7.32 19.08ZM20.14 26.21L20.14 26.21Q17.88 26.21 16.64 25.32Q15.41 24.43 15.41 22.75L15.41 22.75Q15.41 21.19 16.45 20.36Q17.50 19.54 19.34 19.37L19.34 19.37L22.75 19.03L22.75 18.36Q22.75 17.16 22.03 16.61Q21.31 16.06 20.09 16.06L20.09 16.06Q19.10 16.06 18.20 16.34Q17.30 16.63 16.61 16.99L16.61 16.99Q16.42 16.82 16.26 16.60Q16.10 16.37 16.10 16.13L16.10 16.13Q16.10 15.50 16.80 15.17L16.80 15.17Q17.45 14.83 18.30 14.65Q19.15 14.47 20.11 14.47L20.11 14.47Q22.20 14.47 23.42 15.41Q24.65 16.34 24.65 18.36L24.65 18.36L24.65 24.05Q24.65 24.58 24.44 24.85Q24.24 25.13 23.83 25.37L23.83 25.37Q23.26 25.68 22.30 25.94Q21.34 26.21 20.14 26.21ZM20.14 24.62L20.14 24.62Q21.14 24.62 21.80 24.42Q22.46 24.22 22.75 24.02L22.75 24.02L22.75 20.54L19.78 20.86Q18.53 20.95 17.93 21.41Q17.33 21.86 17.33 22.73L17.33 22.73Q17.33 23.62 18.04 24.12Q18.74 24.62 20.14 24.62ZM28.34 25.13L28.34 19.54L30.26 19.82L30.26 25.82Q30.14 25.87 29.90 25.93Q29.66 25.99 29.38 25.99L29.38 25.99Q28.87 25.99 28.61 25.79Q28.34 25.58 28.34 25.13L28.34 25.13ZM30.26 11.02L30.26 20.74L28.34 20.47L28.34 10.32Q28.46 10.27 28.72 10.21Q28.97 10.15 29.23 10.15L29.23 10.15Q29.76 10.15 30.01 10.36Q30.26 10.56 30.26 11.02L30.26 11.02ZM44.35 20.33L44.35 20.33Q44.35 22.10 43.68 23.42Q43.01 24.74 41.78 25.46Q40.56 26.18 38.90 26.18L38.90 26.18Q37.25 26.18 36.01 25.46Q34.78 24.74 34.10 23.42Q33.43 22.10 33.43 20.33L33.43 20.33Q33.43 18.53 34.12 17.22Q34.80 15.91 36.04 15.19Q37.27 14.47 38.90 14.47L38.90 14.47Q40.54 14.47 41.76 15.19Q42.98 15.91 43.67 17.22Q44.35 18.53 44.35 20.33ZM38.90 16.06L38.90 16.06Q37.30 16.06 36.35 17.20Q35.40 18.34 35.40 20.33L35.40 20.33Q35.40 22.34 36.32 23.47Q37.25 24.60 38.90 24.60L38.90 24.60Q40.54 24.60 41.46 23.46Q42.38 22.32 42.38 20.33L42.38 20.33Q42.38 18.34 41.46 17.20Q40.54 16.06 38.90 16.06ZM57.62 20.33L57.62 20.33Q57.62 22.10 56.95 23.42Q56.28 24.74 55.06 25.46Q53.83 26.18 52.18 26.18L52.18 26.18Q50.52 26.18 49.28 25.46Q48.05 24.74 47.38 23.42Q46.70 22.10 46.70 20.33L46.70 20.33Q46.70 18.53 47.39 17.22Q48.07 15.91 49.31 15.19Q50.54 14.47 52.18 14.47L52.18 14.47Q53.81 14.47 55.03 15.19Q56.26 15.91 56.94 17.22Q57.62 18.53 57.62 20.33ZM52.18 16.06L52.18 16.06Q50.57 16.06 49.62 17.20Q48.67 18.34 48.67 20.33L48.67 20.33Q48.67 22.34 49.60 23.47Q50.52 24.60 52.18 24.60L52.18 24.60Q53.81 24.60 54.73 23.46Q55.66 22.32 55.66 20.33L55.66 20.33Q55.66 18.34 54.73 17.20Q53.81 16.06 52.18 16.06ZM67.08 17.50L73.68 17.50L73.68 19.08L67.08 19.08L67.08 17.50ZM70.92 19.08L70.92 19.08L71.69 17.88Q73.32 17.88 74.40 18.42Q75.48 18.96 76.02 19.85Q76.56 20.74 76.56 21.84L76.56 21.84Q76.56 24.02 74.99 25.08Q73.42 26.14 70.51 26.14L70.51 26.14Q69.86 26.14 69.22 26.10Q68.57 26.06 67.94 25.97Q67.32 25.87 66.74 25.73L66.74 25.73Q65.74 25.44 65.74 24.62L65.74 24.62L65.74 12.34Q65.74 11.95 65.94 11.74Q66.14 11.52 66.53 11.42L66.53 11.42Q67.34 11.18 68.27 11.10Q69.19 11.02 70.25 11.02L70.25 11.02Q72.96 11.02 74.47 11.99Q75.98 12.96 75.98 14.95L75.98 14.95Q75.98 15.96 75.49 16.81Q75 17.66 73.91 18.18Q72.82 18.70 70.99 18.70L70.99 18.70L70.78 17.50Q72.36 17.50 73.18 16.84Q73.99 16.18 73.99 15L73.99 15Q73.99 13.80 73.04 13.21Q72.10 12.62 70.25 12.62L70.25 12.62Q69.43 12.62 68.81 12.68Q68.18 12.74 67.66 12.84L67.66 12.84L67.66 24.26Q68.23 24.38 68.99 24.46Q69.74 24.53 70.51 24.53L70.51 24.53Q72.50 24.53 73.54 23.86Q74.57 23.18 74.57 21.79L74.57 21.79Q74.57 20.54 73.64 19.81Q72.72 19.08 70.92 19.08ZM89.40 18.84L89.40 21.10L87.48 21.10L87.48 18.89Q87.48 17.45 86.68 16.75Q85.87 16.06 84.60 16.06L84.60 16.06Q83.66 16.06 82.86 16.42Q82.06 16.78 81.50 17.28L81.50 17.28L81.14 15.72Q81.72 15.31 82.67 14.89Q83.62 14.47 84.86 14.47L84.86 14.47Q86.86 14.47 88.13 15.55Q89.40 16.63 89.40 18.84L89.40 18.84ZM79.82 25.13L79.82 19.54L81.74 19.54L81.74 25.82Q81.62 25.87 81.38 25.93Q81.14 25.99 80.86 25.99L80.86 25.99Q80.35 25.99 80.09 25.79Q79.82 25.58 79.82 25.13L79.82 25.13ZM87.48 25.13L87.48 19.56L89.40 19.58L89.40 25.82Q89.28 25.87 89.03 25.93Q88.78 25.99 88.51 25.99L88.51 25.99Q87.98 25.99 87.73 25.79Q87.48 25.58 87.48 25.13L87.48 25.13ZM81.74 11.02L81.74 20.47L79.82 20.47L79.82 10.32Q79.94 10.27 80.20 10.21Q80.45 10.15 80.74 10.15L80.74 10.15Q81.24 10.15 81.49 10.36Q81.74 10.56 81.74 11.02L81.74 11.02ZM96.96 26.21L96.96 26.21Q94.70 26.21 93.47 25.32Q92.23 24.43 92.23 22.75L92.23 22.75Q92.23 21.19 93.28 20.36Q94.32 19.54 96.17 19.37L96.17 19.37L99.58 19.03L99.58 18.36Q99.58 17.16 98.86 16.61Q98.14 16.06 96.91 16.06L96.91 16.06Q95.93 16.06 95.03 16.34Q94.13 16.63 93.43 16.99L93.43 16.99Q93.24 16.82 93.08 16.60Q92.93 16.37 92.93 16.13L92.93 16.13Q92.93 15.50 93.62 15.17L93.62 15.17Q94.27 14.83 95.12 14.65Q95.98 14.47 96.94 14.47L96.94 14.47Q99.02 14.47 100.25 15.41Q101.47 16.34 101.47 18.36L101.47 18.36L101.47 24.05Q101.47 24.58 101.27 24.85Q101.06 25.13 100.66 25.37L100.66 25.37Q100.08 25.68 99.12 25.94Q98.16 26.21 96.96 26.21ZM96.96 24.62L96.96 24.62Q97.97 24.62 98.63 24.42Q99.29 24.22 99.58 24.02L99.58 24.02L99.58 20.54L96.60 20.86Q95.35 20.95 94.75 21.41Q94.15 21.86 94.15 22.73L94.15 22.73Q94.15 23.62 94.86 24.12Q95.57 24.62 96.96 24.62ZM104.81 11.28L104.81 11.28Q104.81 10.78 105.17 10.43Q105.53 10.08 106.06 10.08L106.06 10.08Q106.61 10.08 106.94 10.43Q107.28 10.78 107.28 11.28L107.28 11.28Q107.28 11.78 106.94 12.13Q106.61 12.48 106.06 12.48L106.06 12.48Q105.53 12.48 105.17 12.13Q104.81 11.78 104.81 11.28ZM105.10 25.13L105.10 19.54L107.02 19.54L107.02 25.82Q106.90 25.87 106.66 25.93Q106.42 25.99 106.13 25.99L106.13 25.99Q105.62 25.99 105.36 25.79Q105.10 25.58 105.10 25.13L105.10 25.13ZM107.02 15.55L107.02 20.47L105.10 20.47L105.10 14.83Q105.22 14.78 105.47 14.72Q105.72 14.66 106.01 14.66L106.01 14.66Q106.51 14.66 106.76 14.87Q107.02 15.07 107.02 15.55L107.02 15.55ZM115.13 12.79L115.13 12.79Q115.13 12.36 115.68 11.94Q116.23 11.52 117.17 11.26Q118.10 10.99 119.21 10.99L119.21 10.99Q120.74 10.99 121.85 11.51Q122.95 12.02 123.55 12.96Q124.15 13.90 124.15 15.17L124.15 15.17Q124.15 16.49 123.42 17.76Q122.69 19.03 120.91 20.66L120.91 20.66L117 24.29L124.13 24.29Q124.22 24.38 124.30 24.59Q124.37 24.79 124.37 25.06L124.37 25.06Q124.37 25.44 124.16 25.66Q123.96 25.87 123.62 25.87L123.62 25.87L115.15 25.87Q114.91 25.70 114.79 25.45Q114.67 25.20 114.67 24.91L114.67 24.91Q114.67 24.53 114.82 24.23Q114.96 23.93 115.25 23.66L115.25 23.66L119.57 19.51Q121.06 18.12 121.61 17.17Q122.16 16.22 122.16 15.19L122.16 15.19Q122.16 14.06 121.39 13.34Q120.62 12.62 119.06 12.62L119.06 12.62Q118.01 12.62 117.18 12.98Q116.35 13.34 115.80 13.75L115.80 13.75Q115.54 13.63 115.33 13.39Q115.13 13.15 115.13 12.79ZM131.52 20.52L131.52 20.52L138.50 11.26Q138.72 11.21 139.00 11.17Q139.27 11.14 139.49 11.14L139.49 11.14Q139.82 11.14 140.12 11.23Q140.42 11.33 140.62 11.58Q140.81 11.83 140.81 12.31L140.81 12.31L140.81 20.71L143.21 20.71Q143.28 20.83 143.35 21.04Q143.42 21.24 143.42 21.50L143.42 21.50Q143.42 21.89 143.23 22.10Q143.04 22.32 142.68 22.32L142.68 22.32L140.81 22.32L140.81 25.92Q140.69 25.94 140.46 26.00Q140.23 26.06 139.97 26.06L139.97 26.06Q139.46 26.06 139.20 25.85Q138.94 25.63 138.94 25.22L138.94 25.22L138.94 22.32L132 22.32Q131.76 22.20 131.58 21.89Q131.40 21.58 131.40 21.19L131.40 21.19Q131.40 20.98 131.44 20.82Q131.47 20.66 131.52 20.52ZM133.63 20.71L138.96 20.71L139.01 13.15L138.96 13.15L133.63 20.71ZM150.89 26.18L150.89 26.18Q149.21 26.18 147.92 25.36Q146.64 24.53 145.92 22.84Q145.20 21.14 145.20 18.58L145.20 18.58Q145.20 15.82 146.02 14.16Q146.83 12.50 148.13 11.75Q149.42 10.99 150.89 10.99L150.89 10.99Q152.38 10.99 153.68 11.76Q154.99 12.53 155.80 14.20Q156.60 15.86 156.60 18.58L156.60 18.58Q156.60 21.12 155.88 22.81Q155.16 24.50 153.88 25.34Q152.59 26.18 150.89 26.18ZM150.89 24.55L150.89 24.55Q152.66 24.55 153.65 23.00Q154.63 21.46 154.63 18.58L154.63 18.58Q154.63 16.44 154.12 15.13Q153.60 13.82 152.76 13.22Q151.92 12.62 150.89 12.62L150.89 12.62Q149.88 12.62 149.03 13.24Q148.18 13.85 147.67 15.17Q147.17 16.49 147.17 18.58L147.17 18.58Q147.17 21.46 148.15 23.00Q149.14 24.55 150.89 24.55ZM164.88 26.18L164.88 26.18Q163.20 26.18 161.92 25.36Q160.63 24.53 159.91 22.84Q159.19 21.14 159.19 18.58L159.19 18.58Q159.19 15.82 160.01 14.16Q160.82 12.50 162.12 11.75Q163.42 10.99 164.88 10.99L164.88 10.99Q166.37 10.99 167.68 11.76Q168.98 12.53 169.79 14.20Q170.59 15.86 170.59 18.58L170.59 18.58Q170.59 21.12 169.87 22.81Q169.15 24.50 167.87 25.34Q166.58 26.18 164.88 26.18ZM164.88 24.55L164.88 24.55Q166.66 24.55 167.64 23.00Q168.62 21.46 168.62 18.58L168.62 18.58Q168.62 16.44 168.11 15.13Q167.59 13.82 166.75 13.22Q165.91 12.62 164.88 12.62L164.88 12.62Q163.87 12.62 163.02 13.24Q162.17 13.85 161.66 15.17Q161.16 16.49 161.16 18.58L161.16 18.58Q161.16 21.46 162.14 23.00Q163.13 24.55 164.88 24.55ZM188.09 18.55L188.09 18.55L188.09 21L186.17 21L186.17 18.65Q186.17 17.30 185.41 16.68Q184.66 16.06 183.38 16.06L183.38 16.06Q182.42 16.06 181.68 16.30Q180.94 16.54 180.41 16.85L180.41 16.85L180.41 21L178.49 21L178.49 16.94Q178.49 16.44 178.69 16.12Q178.90 15.79 179.40 15.48L179.40 15.48Q180.02 15.12 181.06 14.80Q182.09 14.47 183.38 14.47L183.38 14.47Q185.57 14.47 186.83 15.47Q188.09 16.46 188.09 18.55ZM178.49 25.13L178.49 19.68L180.41 19.68L180.41 25.82Q180.29 25.87 180.05 25.93Q179.81 25.99 179.52 25.99L179.52 25.99Q179.02 25.99 178.75 25.79Q178.49 25.58 178.49 25.13L178.49 25.13ZM186.17 25.13L186.17 19.68L188.09 19.68L188.09 25.82Q187.97 25.87 187.72 25.93Q187.46 25.99 187.20 25.99L187.20 25.99Q186.67 25.99 186.42 25.79Q186.17 25.58 186.17 25.13L186.17 25.13ZM201.98 20.33L201.98 20.33Q201.98 22.10 201.31 23.42Q200.64 24.74 199.42 25.46Q198.19 26.18 196.54 26.18L196.54 26.18Q194.88 26.18 193.64 25.46Q192.41 24.74 191.74 23.42Q191.06 22.10 191.06 20.33L191.06 20.33Q191.06 18.53 191.75 17.22Q192.43 15.91 193.67 15.19Q194.90 14.47 196.54 14.47L196.54 14.47Q198.17 14.47 199.39 15.19Q200.62 15.91 201.30 17.22Q201.98 18.53 201.98 20.33ZM196.54 16.06L196.54 16.06Q194.93 16.06 193.98 17.20Q193.03 18.34 193.03 20.33L193.03 20.33Q193.03 22.34 193.96 23.47Q194.88 24.60 196.54 24.60L196.54 24.60Q198.17 24.60 199.09 23.46Q200.02 22.32 200.02 20.33L200.02 20.33Q200.02 18.34 199.09 17.20Q198.17 16.06 196.54 16.06ZM206.88 16.85L206.88 16.85L206.88 20.64L204.96 20.64L204.96 16.99Q204.96 16.44 205.16 16.12Q205.37 15.79 205.85 15.48L205.85 15.48Q206.47 15.07 207.55 14.77Q208.63 14.47 209.95 14.47L209.95 14.47Q211.87 14.47 211.87 15.43L211.87 15.43Q211.87 15.67 211.80 15.88Q211.73 16.08 211.61 16.22L211.61 16.22Q211.37 16.18 210.98 16.13Q210.60 16.08 210.22 16.08L210.22 16.08Q209.11 16.08 208.27 16.31Q207.43 16.54 206.88 16.85ZM204.96 25.13L204.96 19.54L206.88 19.82L206.88 25.82Q206.76 25.87 206.52 25.93Q206.28 25.99 205.99 25.99L205.99 25.99Q205.49 25.99 205.22 25.79Q204.96 25.58 204.96 25.13L204.96 25.13ZM223.08 18.19L223.08 18.19L223.08 20.95L221.16 20.95L221.16 18.34Q221.16 17.16 220.48 16.61Q219.79 16.06 218.66 16.06L218.66 16.06Q217.92 16.06 217.22 16.30Q216.53 16.54 216.05 16.85L216.05 16.85L216.05 20.95L214.13 20.95L214.13 16.94Q214.13 16.46 214.33 16.13Q214.54 15.79 215.04 15.48L215.04 15.48Q215.69 15.07 216.68 14.77Q217.68 14.47 218.69 14.47L218.69 14.47Q219.91 14.47 220.85 14.84Q221.78 15.22 222.24 15.86L222.24 15.86Q222.38 16.01 222.48 16.13Q222.58 16.25 222.67 16.44L222.67 16.44Q222.84 16.73 222.96 17.18Q223.08 17.64 223.08 18.19ZM230.11 18.24L230.11 18.24L230.11 20.95L228.19 20.95L228.19 18.34Q228.19 17.16 227.52 16.61Q226.85 16.06 225.72 16.06L225.72 16.06Q224.88 16.06 224.10 16.40Q223.32 16.75 222.70 17.40L222.70 17.40L221.93 16.01Q222.55 15.38 223.56 14.93Q224.57 14.47 225.86 14.47L225.86 14.47Q227.16 14.47 228.11 14.88Q229.06 15.29 229.58 16.13Q230.11 16.97 230.11 18.24ZM214.13 25.13L214.13 19.68L216.05 19.68L216.05 25.82Q215.93 25.87 215.69 25.93Q215.45 25.99 215.16 25.99L215.16 25.99Q214.66 25.99 214.39 25.79Q214.13 25.58 214.13 25.13L214.13 25.13ZM221.16 25.13L221.16 19.68L223.08 19.68L223.08 25.82Q222.96 25.87 222.71 25.93Q222.46 25.99 222.19 25.99L222.19 25.99Q221.66 25.99 221.41 25.79Q221.16 25.58 221.16 25.13L221.16 25.13ZM228.19 25.13L228.19 19.68L230.11 19.68L230.11 25.82Q229.99 25.87 229.74 25.93Q229.49 25.99 229.22 25.99L229.22 25.99Q228.70 25.99 228.44 25.79Q228.19 25.58 228.19 25.13L228.19 25.13ZM237.67 26.21L237.67 26.21Q235.42 26.21 234.18 25.32Q232.94 24.43 232.94 22.75L232.94 22.75Q232.94 21.19 233.99 20.36Q235.03 19.54 236.88 19.37L236.88 19.37L240.29 19.03L240.29 18.36Q240.29 17.16 239.57 16.61Q238.85 16.06 237.62 16.06L237.62 16.06Q236.64 16.06 235.74 16.34Q234.84 16.63 234.14 16.99L234.14 16.99Q233.95 16.82 233.80 16.60Q233.64 16.37 233.64 16.13L233.64 16.13Q233.64 15.50 234.34 15.17L234.34 15.17Q234.98 14.83 235.84 14.65Q236.69 14.47 237.65 14.47L237.65 14.47Q239.74 14.47 240.96 15.41Q242.18 16.34 242.18 18.36L242.18 18.36L242.18 24.05Q242.18 24.58 241.98 24.85Q241.78 25.13 241.37 25.37L241.37 25.37Q240.79 25.68 239.83 25.94Q238.87 26.21 237.67 26.21ZM237.67 24.62L237.67 24.62Q238.68 24.62 239.34 24.42Q240.00 24.22 240.29 24.02L240.29 24.02L240.29 20.54L237.31 20.86Q236.06 20.95 235.46 21.41Q234.86 21.86 234.86 22.73L234.86 22.73Q234.86 23.62 235.57 24.12Q236.28 24.62 237.67 24.62ZM245.88 25.13L245.88 19.54L247.80 19.82L247.80 25.82Q247.68 25.87 247.44 25.93Q247.20 25.99 246.91 25.99L246.91 25.99Q246.41 25.99 246.14 25.79Q245.88 25.58 245.88 25.13L245.88 25.13ZM247.80 11.02L247.80 20.74L245.88 20.47L245.88 10.32Q246.00 10.27 246.25 10.21Q246.50 10.15 246.77 10.15L246.77 10.15Q247.30 10.15 247.55 10.36Q247.80 10.56 247.80 11.02L247.80 11.02Z"/></svg>