<svg xmlns="http://www.w3.org/2000/svg" xmlns:xlink="http://www.w3.org/1999/xlink" width="316.79999999999995" height="32.4"><path fill="black" d="M8.28 26.40L6.12 26.40L0.65 7.20L3 7.20L7.20 22.32L11.40 7.20L13.75 7.20L8.28 26.40ZM23.33 26.40L21.12 26.40L21.12 12.22L22.51 13.61L18.10 13.61L18.10 11.57L23.33 11.57L23.33 26.40ZM27.53 26.40L16.92 26.40L16.92 24.36L27.53 24.36L27.53 26.40ZM21.72 9.07L21.72 9.07Q20.66 9.07 20.28 8.71Q19.90 8.35 19.90 7.37L19.90 7.37Q19.90 6.38 20.28 6.02Q20.66 5.66 21.72 5.66L21.72 5.66Q22.78 5.66 23.16 6.02Q23.54 6.38 23.54 7.37L23.54 7.37Q23.54 8.35 23.16 8.71Q22.78 9.07 21.72 9.07ZM36.43 26.74L36.43 26.74Q34.13 26.74 32.78 25.98Q31.44 25.22 30.86 23.52Q30.29 21.82 30.29 18.98L30.29 18.98Q30.29 16.15 30.88 14.45Q31.46 12.74 32.82 11.99Q34.18 11.23 36.53 11.23L36.53 11.23Q37.85 11.23 38.77 11.52Q39.70 11.81 40.43 12.47Q41.16 13.13 41.90 14.28L41.90 14.28L40.03 15.38Q39.50 14.54 39.04 14.09Q38.57 13.63 37.99 13.45Q37.42 13.27 36.53 13.27L36.53 13.27Q34.99 13.27 34.10 13.79Q33.22 14.30 32.86 15.54Q32.50 16.78 32.50 18.98L32.50 18.98Q32.50 21.17 32.84 22.42Q33.19 23.66 34.06 24.18Q34.92 24.70 36.43 24.70L36.43 24.70Q37.30 24.70 37.90 24.52Q38.50 24.34 38.99 23.87Q39.48 23.40 40.06 22.56L40.06 22.56L41.90 23.66Q41.16 24.79 40.40 25.48Q39.65 26.16 38.71 26.45Q37.78 26.74 36.43 26.74ZM51.96 26.74L51.96 26.74Q50.30 26.74 49.30 26.16Q48.29 25.58 47.83 24.32Q47.38 23.06 47.38 21.05L47.38 21.05L47.38 13.42L44.40 13.42L44.40 11.38L47.38 11.38L47.38 7.20L49.58 7.20L49.58 11.38L54.58 11.38L54.58 13.42L49.58 13.42L49.58 21.05Q49.58 23.09 50.11 23.89Q50.64 24.70 51.96 24.70L51.96 24.70Q52.82 24.70 53.28 24.56Q53.74 24.43 53.98 24.11Q54.22 23.78 54.43 23.14L54.43 23.14L56.50 23.86Q56.16 24.94 55.62 25.56Q55.08 26.18 54.20 26.46Q53.33 26.74 51.96 26.74ZM64.80 26.74L64.80 26.74Q62.66 26.74 61.43 25.98Q60.19 25.22 59.66 23.51Q59.14 21.79 59.14 18.98L59.14 18.98Q59.14 16.15 59.66 14.45Q60.19 12.74 61.43 11.99Q62.66 11.23 64.80 11.23L64.80 11.23Q66.94 11.23 68.17 11.99Q69.41 12.74 69.94 14.45Q70.46 16.15 70.46 18.98L70.46 18.98Q70.46 21.79 69.94 23.51Q69.41 25.22 68.17 25.98Q66.94 26.74 64.80 26.74ZM64.80 24.70L64.80 24.70Q66.12 24.70 66.88 24.18Q67.63 23.66 67.94 22.42Q68.26 21.17 68.26 18.98L68.26 18.98Q68.26 16.78 67.94 15.54Q67.63 14.30 66.88 13.79Q66.12 13.27 64.80 13.27L64.80 13.27Q63.48 13.27 62.72 13.79Q61.97 14.30 61.66 15.54Q61.34 16.78 61.34 18.98L61.34 18.98Q61.34 21.17 61.66 22.42Q61.97 23.66 62.72 24.18Q63.48 24.70 64.80 24.70ZM76.70 26.40L74.50 26.40L74.50 11.57L76.70 11.57L76.70 13.39Q77.02 12.86 77.56 12.37Q78.10 11.88 78.84 11.56Q79.58 11.23 80.45 11.23L80.45 11.23Q81.74 11.23 82.61 11.57Q83.47 11.90 84.07 12.66Q84.67 13.42 85.18 14.74L85.18 14.74L83.18 15.62Q82.87 14.69 82.54 14.18Q82.20 13.68 81.72 13.48Q81.24 13.27 80.45 13.27L80.45 13.27Q79.39 13.27 78.66 13.70Q77.93 14.14 77.50 14.87Q77.06 15.60 76.88 16.52Q76.70 17.45 76.70 18.43L76.70 18.43L76.70 26.40ZM103.94 26.40L101.74 26.40L102.07 7.20L104.16 7.20L108.00 16.97L111.84 7.20L113.93 7.20L114.26 26.40L112.06 26.40L111.82 12.89L108.96 20.57L107.04 20.57L104.18 12.89L103.94 26.40ZM122.40 26.74L122.40 26.74Q120.26 26.74 119.03 25.98Q117.79 25.22 117.26 23.51Q116.74 21.79 116.74 18.98L116.74 18.98Q116.74 16.15 117.26 14.45Q117.79 12.74 119.03 11.99Q120.26 11.23 122.40 11.23L122.40 11.23Q124.54 11.23 125.77 11.99Q127.01 12.74 127.54 14.45Q128.06 16.15 128.06 18.98L128.06 18.98Q128.06 21.79 127.54 23.51Q127.01 25.22 125.77 25.98Q124.54 26.74 122.40 26.74ZM122.40 24.70L122.40 24.70Q123.72 24.70 124.48 24.18Q125.23 23.66 125.54 22.42Q125.86 21.17 125.86 18.98L125.86 18.98Q125.86 16.78 125.54 15.54Q125.23 14.30 124.48 13.79Q123.72 13.27 122.40 13.27L122.40 13.27Q121.08 13.27 120.32 13.79Q119.57 14.30 119.26 15.54Q118.94 16.78 118.94 18.98L118.94 18.98Q118.94 21.17 119.26 22.42Q119.57 23.66 120.32 24.18Q121.08 24.70 122.40 24.70ZM133.66 26.40L131.45 26.40L131.45 11.57L133.66 11.57L133.66 12.34Q134.30 11.81 135.20 11.52Q136.10 11.23 137.47 11.23L137.47 11.23Q139.37 11.23 140.45 11.77Q141.53 12.31 141.97 13.62Q142.42 14.93 142.42 17.18L142.42 17.18L142.42 26.40L140.21 26.40L140.21 17.18Q140.21 15.70 139.96 14.83Q139.70 13.97 139.12 13.62Q138.53 13.27 137.47 13.27L137.47 13.27Q135.91 13.27 135.08 13.56Q134.26 13.85 133.96 14.64Q133.66 15.43 133.66 16.92L133.66 16.92L133.66 26.40ZM151.20 26.74L151.20 26.74Q149.06 26.74 147.83 25.98Q146.59 25.22 146.06 23.51Q145.54 21.79 145.54 18.98L145.54 18.98Q145.54 16.15 146.06 14.45Q146.59 12.74 147.83 11.99Q149.06 11.23 151.20 11.23L151.20 11.23Q153.34 11.23 154.57 11.99Q155.81 12.74 156.34 14.45Q156.86 16.15 156.86 18.98L156.86 18.98Q156.86 21.79 156.34 23.51Q155.81 25.22 154.57 25.98Q153.34 26.74 151.20 26.74ZM151.20 24.70L151.20 24.70Q152.52 24.70 153.28 24.18Q154.03 23.66 154.34 22.42Q154.66 21.17 154.66 18.98L154.66 18.98Q154.66 16.78 154.34 15.54Q154.03 14.30 153.28 13.79Q152.52 13.27 151.20 13.27L151.20 13.27Q149.88 13.27 149.12 13.79Q148.37 14.30 148.06 15.54Q147.74 16.78 147.74 18.98L147.74 18.98Q147.74 21.17 148.06 22.42Q148.37 23.66 149.12 24.18Q149.88 24.70 151.20 24.70ZM180.00 26.74L180.00 26.74Q177.79 26.74 176.50 26.12Q175.20 25.51 174.64 24.14Q174.07 22.78 174.07 20.47L174.07 20.47L174.07 13.61Q174.07 11.11 174.64 9.64Q175.20 8.16 176.50 7.51Q177.79 6.86 180.00 6.86L180.00 6.86Q182.14 6.86 183.43 7.32Q184.73 7.78 185.32 8.80Q185.90 9.82 185.90 11.57L185.90 11.57L183.67 11.57Q183.67 10.51 183.34 9.94Q183.00 9.36 182.20 9.13Q181.39 8.90 180.00 8.90L180.00 8.90Q178.56 8.90 177.74 9.31Q176.93 9.72 176.60 10.74Q176.28 11.76 176.28 13.61L176.28 13.61L176.28 15.22Q176.71 14.81 177.24 14.58Q177.77 14.35 178.44 14.24Q179.11 14.14 180.00 14.14L180.00 14.14Q182.23 14.14 183.52 14.70Q184.80 15.26 185.36 16.63Q185.93 18 185.93 20.45L185.93 20.45Q185.93 22.75 185.36 24.13Q184.80 25.51 183.52 26.12Q182.23 26.74 180.00 26.74ZM180.00 24.70L180.00 24.70Q181.44 24.70 182.26 24.31Q183.07 23.93 183.40 23.00Q183.72 22.08 183.72 20.45L183.72 20.45Q183.72 18.67 183.40 17.75Q183.07 16.82 182.26 16.49Q181.44 16.15 180.00 16.15L180.00 16.15Q178.56 16.15 177.74 16.49Q176.93 16.82 176.60 17.76Q176.28 18.70 176.28 20.47L176.28 20.47Q176.28 22.10 176.60 23.03Q176.93 23.95 177.74 24.32Q178.56 24.70 180.00 24.70ZM194.40 26.74L194.40 26.74Q193.10 26.74 192.00 25.99Q190.90 25.25 190.07 23.93Q189.24 22.61 188.77 20.78Q188.30 18.96 188.30 16.80L188.30 16.80Q188.30 14.64 188.77 12.82Q189.24 10.99 190.07 9.67Q190.90 8.35 192.00 7.61Q193.10 6.86 194.40 6.86L194.40 6.86Q195.70 6.86 196.80 7.61Q197.90 8.35 198.73 9.67Q199.56 10.99 200.03 12.82Q200.50 14.64 200.50 16.80L200.50 16.80Q200.50 18.96 200.03 20.78Q199.56 22.61 198.73 23.93Q197.90 25.25 196.80 25.99Q195.70 26.74 194.40 26.74ZM194.40 24.70L194.40 24.70Q195.41 24.70 196.30 23.68Q197.18 22.66 197.74 20.87Q198.29 19.08 198.29 16.80L198.29 16.80Q198.29 14.52 197.74 12.73Q197.18 10.94 196.30 9.92Q195.41 8.90 194.40 8.90L194.40 8.90Q193.39 8.90 192.50 9.92Q191.62 10.94 191.06 12.73Q190.51 14.52 190.51 16.80L190.51 16.80Q190.51 19.08 191.06 20.87Q191.62 22.66 192.50 23.68Q193.39 24.70 194.40 24.70ZM194.40 18.38L194.40 18.38Q193.66 18.38 193.18 17.94Q192.70 17.50 192.70 16.80L192.70 16.80Q192.70 16.13 193.18 15.70Q193.66 15.26 194.40 15.26L194.40 15.26Q195.14 15.26 195.62 15.70Q196.10 16.13 196.10 16.80L196.10 16.80Q196.10 17.50 195.62 17.94Q195.14 18.38 194.40 18.38ZM208.80 26.74L208.80 26.74Q207.50 26.74 206.40 25.99Q205.30 25.25 204.47 23.93Q203.64 22.61 203.17 20.78Q202.70 18.96 202.70 16.80L202.70 16.80Q202.70 14.64 203.17 12.82Q203.64 10.99 204.47 9.67Q205.30 8.35 206.40 7.61Q207.50 6.86 208.80 6.86L208.80 6.86Q210.10 6.86 211.20 7.61Q212.30 8.35 213.13 9.67Q213.96 10.99 214.43 12.82Q214.90 14.64 214.90 16.80L214.90 16.80Q214.90 18.96 214.43 20.78Q213.96 22.61 213.13 23.93Q212.30 25.25 211.20 25.99Q210.10 26.74 208.80 26.74ZM208.80 24.70L208.80 24.70Q209.81 24.70 210.70 23.68Q211.58 22.66 212.14 20.87Q212.69 19.08 212.69 16.80L212.69 16.80Q212.69 14.52 212.14 12.73Q211.58 10.94 210.70 9.92Q209.81 8.90 208.80 8.90L208.80 8.90Q207.79 8.90 206.90 9.92Q206.02 10.94 205.46 12.73Q204.91 14.52 204.91 16.80L204.91 16.80Q204.91 19.08 205.46 20.87Q206.02 22.66 206.90 23.68Q207.79 24.70 208.80 24.70ZM208.80 18.38L208.80 18.38Q208.06 18.38 207.58 17.94Q207.10 17.50 207.10 16.80L207.10 16.80Q207.10 16.13 207.58 15.70Q208.06 15.26 208.80 15.26L208.80 15.26Q209.54 15.26 210.02 15.70Q210.50 16.13 210.50 16.80L210.50 16.80Q210.50 17.50 210.02 17.94Q209.54 18.38 208.80 18.38ZM234.46 26.40L232.25 26.40L232.25 11.57L234.46 11.57L234.46 12.34Q235.10 11.81 236.00 11.52Q236.90 11.23 238.27 11.23L238.27 11.23Q240.17 11.23 241.25 11.77Q242.33 12.31 242.77 13.62Q243.22 14.93 243.22 17.18L243.22 17.18L243.22 26.40L241.01 26.40L241.01 17.18Q241.01 15.70 240.76 14.83Q240.50 13.97 239.92 13.62Q239.33 13.27 238.27 13.27L238.27 13.27Q236.71 13.27 235.88 13.56Q235.06 13.85 234.76 14.64Q234.46 15.43 234.46 16.92L234.46 16.92L234.46 26.40ZM252.00 26.74L252.00 26.74Q249.86 26.74 248.63 25.98Q247.39 25.22 246.86 23.51Q246.34 21.79 246.34 18.98L246.34 18.98Q246.34 16.15 246.86 14.45Q247.39 12.74 248.63 11.99Q249.86 11.23 252.00 11.23L252.00 11.23Q254.14 11.23 255.37 11.99Q256.61 12.74 257.14 14.45Q257.66 16.15 257.66 18.98L257.66 18.98Q257.66 21.79 257.14 23.51Q256.61 25.22 255.37 25.98Q254.14 26.74 252.00 26.74ZM252.00 24.70L252.00 24.70Q253.32 24.70 254.08 24.18Q254.83 23.66 255.14 22.42Q255.46 21.17 255.46 18.98L255.46 18.98Q255.46 16.78 255.14 15.54Q254.83 14.30 254.08 13.79Q253.32 13.27 252.00 13.27L252.00 13.27Q250.68 13.27 249.92 13.79Q249.17 14.30 248.86 15.54Q248.54 16.78 248.54 18.98L248.54 18.98Q248.54 21.17 248.86 22.42Q249.17 23.66 249.92 24.18Q250.68 24.70 252.00 24.70ZM263.90 26.40L261.70 26.40L261.70 11.57L263.90 11.57L263.90 13.39Q264.22 12.86 264.76 12.37Q265.30 11.88 266.04 11.56Q266.78 11.23 267.65 11.23L267.65 11.23Q268.94 11.23 269.81 11.57Q270.67 11.90 271.27 12.66Q271.87 13.42 272.38 14.74L272.38 14.74L270.38 15.62Q270.07 14.69 269.74 14.18Q269.40 13.68 268.92 13.48Q268.44 13.27 267.65 13.27L267.65 13.27Q266.59 13.27 265.86 13.70Q265.13 14.14 264.70 14.87Q264.26 15.60 264.08 16.52Q263.90 17.45 263.90 18.43L263.90 18.43L263.90 26.40ZM276.67 26.40L274.46 26.40L274.46 11.57L276.67 11.57L276.67 12.00Q277.22 11.57 277.62 11.40Q278.02 11.23 278.59 11.23L278.59 11.23Q279.58 11.23 280.09 11.57Q280.61 11.90 281.02 12.82L281.02 12.82Q281.64 11.90 282.24 11.57Q282.84 11.23 283.82 11.23L283.82 11.23Q285.07 11.23 285.80 11.77Q286.54 12.31 286.84 13.61Q287.14 14.90 287.14 17.11L287.14 17.11L287.14 26.40L284.93 26.40L284.93 17.11Q284.93 15.72 284.82 14.92Q284.71 14.11 284.47 13.76Q284.23 13.42 283.82 13.42L283.82 13.42Q283.10 13.42 282.68 13.74Q282.26 14.06 282.08 14.84Q281.90 15.62 281.90 16.97L281.90 16.97L281.90 26.40L279.70 26.40L279.70 17.26Q279.70 15.82 279.59 14.98Q279.48 14.14 279.25 13.78Q279.02 13.42 278.59 13.42L278.59 13.42Q277.87 13.42 277.45 13.74Q277.03 14.06 276.85 14.84Q276.67 15.62 276.67 16.97L276.67 16.97L276.67 26.40ZM294.82 26.74L294.82 26.74Q292.78 26.74 291.58 26.29Q290.38 25.85 289.85 24.85Q289.32 23.86 289.32 22.18L289.32 22.18Q289.32 20.33 289.85 19.30Q290.38 18.26 291.58 17.86Q292.78 17.45 294.82 17.45L294.82 17.45L298.10 17.45L298.10 16.54Q298.10 15.38 297.82 14.70Q297.53 14.02 296.82 13.74Q296.11 13.46 294.82 13.46L294.82 13.46Q293.81 13.46 293.23 13.67Q292.66 13.87 292.32 14.42Q291.98 14.98 291.72 15.96L291.72 15.96L289.61 15.43Q290.02 13.92 290.63 13.01Q291.24 12.10 292.25 11.66Q293.26 11.23 294.82 11.23L294.82 11.23Q296.88 11.23 298.08 11.80Q299.28 12.36 299.80 13.54Q300.31 14.71 300.31 16.54L300.31 16.54L300.31 22.42Q300.31 23.33 300.46 23.75Q300.60 24.17 301.01 24.28Q301.42 24.38 302.18 24.36L302.18 24.36L302.18 26.38Q300.82 26.45 300.04 26.15Q299.26 25.85 298.87 25.06L298.87 25.06Q298.44 25.68 297.88 26.05Q297.31 26.42 296.57 26.58Q295.82 26.74 294.82 26.74ZM294.82 24.70L294.82 24.70Q296.11 24.70 296.82 24.37Q297.53 24.05 297.82 23.24Q298.10 22.44 298.10 21.02L298.10 21.02L298.10 19.46L294.82 19.46Q293.52 19.46 292.80 19.66Q292.08 19.85 291.80 20.42Q291.53 21 291.53 22.18L291.53 22.18Q291.53 23.14 291.80 23.69Q292.08 24.24 292.80 24.47Q293.52 24.70 294.82 24.70ZM312.10 26.74L312.10 26.74Q310.56 26.74 309.66 26.23Q308.76 25.73 308.39 24.53Q308.02 23.33 308.02 21.26L308.02 21.26L308.02 9.24L304.99 9.24L304.99 7.20L310.22 7.20L310.22 21.26Q310.22 22.56 310.40 23.32Q310.58 24.07 310.99 24.38Q311.40 24.70 312.10 24.70L312.10 24.70Q312.58 24.70 313.04 24.44Q313.51 24.19 314.30 23.52L314.30 23.52L315.55 25.42Q314.54 26.16 313.80 26.45Q313.06 26.74 312.10 26.74Z"/></svg>