<svg xmlns="http://www.w3.org/2000/svg" xmlns:xlink="http://www.w3.org/1999/xlink" width="172.3828125" height="34.8046875"><path fill="black" d="M7.41 22.29L4.95 22.29L-0.06 6.55L2.17 6.55L4.66 14.96Q5.07 16.35 5.41 17.56Q5.74 18.77 6.16 20.16L6.16 20.16L6.26 20.16Q6.69 18.77 7.03 17.56Q7.36 16.35 7.75 14.96L7.75 14.96L10.23 6.55L12.39 6.55L7.41 22.29ZM17.23 22.58L17.23 22.58Q15.67 22.58 14.68 21.69Q13.70 20.79 13.70 19.22L13.70 19.22Q13.70 17.32 15.39 16.22Q17.09 15.13 20.84 14.91L20.84 14.91Q20.84 14.04 20.63 13.39Q20.43 12.75 19.90 12.39Q19.38 12.04 18.45 12.04L18.45 12.04Q17.44 12.04 16.54 12.35Q15.64 12.66 14.94 13.13L14.94 13.13L14.12 11.70Q14.95 11.16 16.17 10.73Q17.39 10.31 18.80 10.31L18.80 10.31Q20.96 10.31 21.94 11.58Q22.91 12.86 22.91 15.15L22.91 15.15L22.91 22.29L21.20 22.29L21.01 20.91L20.96 20.91Q20.13 21.60 19.27 22.09Q18.41 22.58 17.23 22.58ZM17.80 20.91L17.80 20.91Q18.63 20.91 19.34 20.51Q20.04 20.12 20.84 19.39L20.84 19.39L20.84 16.24Q18.89 16.34 17.78 16.74Q16.66 17.14 16.20 17.75Q15.74 18.35 15.74 19.08L15.74 19.08Q15.74 20.04 16.32 20.47Q16.90 20.91 17.80 20.91ZM28.66 22.29L26.59 22.29L26.59 10.61L28.30 10.61L28.48 12.71L28.56 12.71Q29.16 11.60 30.02 10.96Q30.89 10.31 31.86 10.31L31.86 10.31Q32.26 10.31 32.55 10.37Q32.85 10.43 33.13 10.56L33.13 10.56L32.74 12.38Q32.45 12.28 32.20 12.23Q31.96 12.19 31.59 12.19L31.59 12.19Q30.87 12.19 30.06 12.79Q29.25 13.38 28.66 14.84L28.66 14.84L28.66 22.29ZM38.74 22.58L38.74 22.58Q36.86 22.58 36.11 21.49Q35.37 20.39 35.37 18.63L35.37 18.63L35.37 12.29L33.63 12.29L33.63 10.72L35.46 10.61L35.71 7.34L37.46 7.34L37.46 10.61L40.59 10.61L40.59 12.29L37.46 12.29L37.46 18.66Q37.46 19.73 37.86 20.31Q38.25 20.88 39.23 20.88L39.23 20.88Q39.55 20.88 39.91 20.78Q40.27 20.68 40.55 20.58L40.55 20.58L40.95 22.15Q40.45 22.30 39.89 22.44Q39.33 22.58 38.74 22.58ZM46.17 22.58L46.17 22.58Q44.61 22.58 43.63 21.69Q42.64 20.79 42.64 19.22L42.64 19.22Q42.64 17.32 44.34 16.22Q46.03 15.13 49.78 14.91L49.78 14.91Q49.78 14.04 49.58 13.39Q49.37 12.75 48.85 12.39Q48.33 12.04 47.39 12.04L47.39 12.04Q46.38 12.04 45.49 12.35Q44.59 12.66 43.89 13.13L43.89 13.13L43.07 11.70Q43.90 11.16 45.12 10.73Q46.34 10.31 47.74 10.31L47.74 10.31Q49.91 10.31 50.88 11.58Q51.86 12.86 51.86 15.15L51.86 15.15L51.86 22.29L50.14 22.29L49.96 20.91L49.91 20.91Q49.08 21.60 48.22 22.09Q47.36 22.58 46.17 22.58ZM46.75 20.91L46.75 20.91Q47.58 20.91 48.28 20.51Q48.98 20.12 49.78 19.39L49.78 19.39L49.78 16.24Q47.84 16.34 46.72 16.74Q45.61 17.14 45.15 17.75Q44.68 18.35 44.68 19.08L44.68 19.08Q44.68 20.04 45.26 20.47Q45.84 20.91 46.75 20.91ZM64.10 22.58L64.10 22.58Q62.26 22.58 61.11 21.96Q59.95 21.33 59.16 20.52L59.16 20.52L60.15 19.16Q60.84 19.84 61.71 20.34Q62.57 20.85 63.89 20.85L63.89 20.85Q64.82 20.85 65.57 20.41Q66.32 19.98 66.76 19.18Q67.20 18.38 67.20 17.30L67.20 17.30Q67.20 15.73 66.36 14.75Q65.53 13.77 64.00 13.77L64.00 13.77Q63.21 13.77 62.65 14.00Q62.10 14.24 61.41 14.68L61.41 14.68L60.32 14.00L60.81 6.50L68.53 6.50L68.53 8.30L62.63 8.30L62.23 12.81Q62.77 12.53 63.31 12.36Q63.86 12.20 64.54 12.20L64.54 12.20Q65.88 12.20 66.96 12.76Q68.04 13.31 68.67 14.43Q69.30 15.55 69.30 17.24L69.30 17.24Q69.30 18.93 68.57 20.13Q67.83 21.33 66.64 21.96Q65.45 22.58 64.10 22.58ZM76.44 22.58L76.44 22.58Q74.09 22.58 72.79 20.40Q71.50 18.21 71.50 14.32L71.50 14.32Q71.50 10.41 72.79 8.33Q74.09 6.26 76.44 6.26L76.44 6.26Q78.81 6.26 80.10 8.33Q81.40 10.41 81.40 14.32L81.40 14.32Q81.40 18.21 80.10 20.40Q78.81 22.58 76.44 22.58ZM76.44 20.91L76.44 20.91Q77.79 20.91 78.58 19.30Q79.37 17.70 79.37 14.32L79.37 14.32Q79.37 10.92 78.58 9.42Q77.79 7.92 76.44 7.92L76.44 7.92Q75.11 7.92 74.31 9.42Q73.51 10.92 73.51 14.32L73.51 14.32Q73.51 17.70 74.31 19.30Q75.11 20.91 76.44 20.91ZM88.43 22.58L88.43 22.58Q86.07 22.58 84.78 20.40Q83.48 18.21 83.48 14.32L83.48 14.32Q83.48 10.41 84.78 8.33Q86.07 6.26 88.43 6.26L88.43 6.26Q90.80 6.26 92.09 8.33Q93.39 10.41 93.39 14.32L93.39 14.32Q93.39 18.21 92.09 20.40Q90.80 22.58 88.43 22.58ZM88.43 20.91L88.43 20.91Q89.78 20.91 90.57 19.30Q91.36 17.70 91.36 14.32L91.36 14.32Q91.36 10.92 90.57 9.42Q89.78 7.92 88.43 7.92L88.43 7.92Q87.09 7.92 86.30 9.42Q85.50 10.92 85.50 14.32L85.50 14.32Q85.50 17.70 86.30 19.30Q87.09 20.91 88.43 20.91ZM103.32 22.29L101.25 22.29L101.25 10.61L102.96 10.61L103.14 12.28L103.22 12.28Q104.04 11.45 104.98 10.88Q105.91 10.31 107.12 10.31L107.12 10.31Q109.01 10.31 109.85 11.47Q110.68 12.62 110.68 14.86L110.68 14.86L110.68 22.29L108.60 22.29L108.60 15.14Q108.60 13.52 108.12 12.82Q107.64 12.12 106.45 12.12L106.45 12.12Q105.57 12.12 104.88 12.56Q104.18 13.00 103.32 13.86L103.32 13.86L103.32 22.29ZM118.99 22.58L118.99 22.58Q117.53 22.58 116.30 21.87Q115.07 21.15 114.32 19.78Q113.58 18.41 113.58 16.45L113.58 16.45Q113.58 14.46 114.32 13.10Q115.07 11.73 116.30 11.02Q117.53 10.31 118.99 10.31L118.99 10.31Q120.46 10.31 121.69 11.02Q122.92 11.73 123.67 13.10Q124.43 14.46 124.43 16.45L124.43 16.45Q124.43 18.41 123.67 19.78Q122.92 21.15 121.69 21.87Q120.46 22.58 118.99 22.58ZM118.99 20.85L118.99 20.85Q120.50 20.85 121.39 19.65Q122.29 18.45 122.29 16.45L122.29 16.45Q122.29 14.44 121.39 13.24Q120.50 12.04 118.99 12.04L118.99 12.04Q117.49 12.04 116.61 13.24Q115.72 14.44 115.72 16.45L115.72 16.45Q115.72 18.45 116.61 19.65Q117.49 20.85 118.99 20.85ZM129.53 22.29L127.45 22.29L127.45 10.61L129.16 10.61L129.34 12.71L129.42 12.71Q130.02 11.60 130.89 10.96Q131.75 10.31 132.73 10.31L132.73 10.31Q133.13 10.31 133.42 10.37Q133.71 10.43 133.99 10.56L133.99 10.56L133.61 12.38Q133.31 12.28 133.07 12.23Q132.82 12.19 132.46 12.19L132.46 12.19Q131.73 12.19 130.92 12.79Q130.11 13.38 129.53 14.84L129.53 14.84L129.53 22.29ZM137.95 22.29L135.88 22.29L135.88 10.61L137.59 10.61L137.77 12.28L137.85 12.28Q138.61 11.45 139.52 10.88Q140.43 10.31 141.48 10.31L141.48 10.31Q142.85 10.31 143.59 10.88Q144.33 11.44 144.68 12.49L144.68 12.49Q145.59 11.52 146.53 10.92Q147.46 10.31 148.52 10.31L148.52 10.31Q150.39 10.31 151.24 11.47Q152.09 12.62 152.09 14.86L152.09 14.86L152.09 22.29L150 22.29L150 15.14Q150 13.52 149.51 12.82Q149.03 12.12 147.89 12.12L147.89 12.12Q146.58 12.12 145.02 13.83L145.02 13.83L145.02 22.29L142.95 22.29L142.95 15.12Q142.95 13.50 142.45 12.81Q141.96 12.12 140.82 12.12L140.82 12.12Q139.54 12.12 137.95 13.86L137.95 13.86L137.95 22.29ZM158.79 22.58L158.79 22.58Q157.23 22.58 156.25 21.69Q155.26 20.79 155.26 19.22L155.26 19.22Q155.26 17.32 156.96 16.22Q158.65 15.13 162.40 14.91L162.40 14.91Q162.40 14.04 162.19 13.39Q161.99 12.75 161.47 12.39Q160.95 12.04 160.01 12.04L160.01 12.04Q159 12.04 158.10 12.35Q157.21 12.66 156.50 13.13L156.50 13.13L155.68 11.70Q156.52 11.16 157.73 10.73Q158.95 10.31 160.36 10.31L160.36 10.31Q162.53 10.31 163.50 11.58Q164.47 12.86 164.47 15.15L164.47 15.15L164.47 22.29L162.76 22.29L162.57 20.91L162.53 20.91Q161.70 21.60 160.83 22.09Q159.97 22.58 158.79 22.58ZM159.36 20.91L159.36 20.91Q160.20 20.91 160.90 20.51Q161.60 20.12 162.40 19.39L162.40 19.39L162.40 16.24Q160.45 16.34 159.34 16.74Q158.23 17.14 157.76 17.75Q157.30 18.35 157.30 19.08L157.30 19.08Q157.30 20.04 157.88 20.47Q158.46 20.91 159.36 20.91ZM170.32 22.58L170.32 22.58Q169.15 22.58 168.65 21.87Q168.15 21.15 168.15 19.84L168.15 19.84L168.15 5.21L170.23 5.21L170.23 19.99Q170.23 20.46 170.40 20.65Q170.57 20.85 170.79 20.85L170.79 20.85Q170.87 20.85 170.96 20.84Q171.06 20.84 171.22 20.80L171.22 20.80L171.49 22.37Q171.29 22.46 171.01 22.52Q170.73 22.58 170.32 22.58Z"/></svg>