<svg xmlns="http://www.w3.org/2000/svg" xmlns:xlink="http://www.w3.org/1999/xlink" width="504.84" height="32.688"><path fill="black" d="M16.78 8.52L16.78 25.66L12.89 25.66L4.82 12.24L4.73 12.24Q4.78 12.79 4.82 13.56Q4.87 14.33 4.91 15.16Q4.94 15.98 4.94 16.78L4.94 16.78L4.94 25.66L2.14 25.66L2.14 8.52L6 8.52L14.04 21.84L14.11 21.84Q14.09 21.38 14.05 20.63Q14.02 19.87 13.98 19.02Q13.94 18.17 13.94 17.47L13.94 17.47L13.94 8.52L16.78 8.52ZM32.52 19.13L32.52 19.13Q32.52 21.29 31.76 22.80Q31.01 24.31 29.62 25.10Q28.22 25.90 26.28 25.90L26.28 25.90Q24.50 25.90 23.11 25.10Q21.72 24.31 20.92 22.80Q20.11 21.29 20.11 19.13L20.11 19.13Q20.11 15.89 21.78 14.15Q23.45 12.41 26.35 12.41L26.35 12.41Q28.18 12.41 29.56 13.19Q30.94 13.97 31.73 15.46Q32.52 16.94 32.52 19.13ZM23.23 19.13L23.23 19.13Q23.23 20.47 23.56 21.47Q23.88 22.46 24.56 22.99Q25.25 23.52 26.33 23.52L26.33 23.52Q27.41 23.52 28.09 22.99Q28.78 22.46 29.09 21.47Q29.40 20.47 29.40 19.13L29.40 19.13Q29.40 17.74 29.08 16.78Q28.75 15.82 28.08 15.30Q27.41 14.78 26.30 14.78L26.30 14.78Q24.70 14.78 23.96 15.92Q23.23 17.06 23.23 19.13ZM40.73 23.45L40.73 23.45Q41.26 23.45 41.76 23.34Q42.26 23.23 42.67 23.11L42.67 23.11L42.67 25.37Q42.19 25.61 41.48 25.75Q40.78 25.90 39.94 25.90L39.94 25.90Q38.81 25.90 37.91 25.52Q37.01 25.15 36.47 24.24Q35.93 23.33 35.93 21.67L35.93 21.67L35.93 14.95L34.20 14.95L34.20 13.61L36.12 12.55L37.08 9.79L39 9.79L39 12.65L42.55 12.65L42.55 14.95L39 14.95L39 21.53Q39 22.51 39.47 22.98Q39.94 23.45 40.73 23.45ZM56.90 19.13L56.90 19.13Q56.90 21.29 56.15 22.80Q55.39 24.31 54 25.10Q52.61 25.90 50.66 25.90L50.66 25.90Q48.89 25.90 47.50 25.10Q46.10 24.31 45.30 22.80Q44.50 21.29 44.50 19.13L44.50 19.13Q44.50 15.89 46.16 14.15Q47.83 12.41 50.74 12.41L50.74 12.41Q52.56 12.41 53.94 13.19Q55.32 13.97 56.11 15.46Q56.90 16.94 56.90 19.13ZM47.62 19.13L47.62 19.13Q47.62 20.47 47.94 21.47Q48.26 22.46 48.95 22.99Q49.63 23.52 50.71 23.52L50.71 23.52Q51.79 23.52 52.48 22.99Q53.16 22.46 53.47 21.47Q53.78 20.47 53.78 19.13L53.78 19.13Q53.78 17.74 53.46 16.78Q53.14 15.82 52.46 15.30Q51.79 14.78 50.69 14.78L50.69 14.78Q49.08 14.78 48.35 15.92Q47.62 17.06 47.62 19.13ZM77.57 20.83L77.57 20.83Q77.57 22.32 76.84 23.46Q76.10 24.60 74.69 25.25Q73.27 25.90 71.21 25.90L71.21 25.90Q70.18 25.90 69.30 25.80Q68.42 25.70 67.69 25.50Q66.96 25.30 66.29 24.98L66.29 24.98L66.29 22.13Q67.37 22.63 68.70 22.97Q70.03 23.30 71.30 23.30L71.30 23.30Q72.36 23.30 73.07 23.03Q73.78 22.75 74.12 22.26Q74.47 21.77 74.47 21.12L74.47 21.12Q74.47 20.42 74.12 19.94Q73.78 19.46 72.98 19.03Q72.19 18.60 70.80 18.07L70.80 18.07Q69.41 17.52 68.44 16.85Q67.46 16.18 66.97 15.23Q66.48 14.28 66.48 12.89L66.48 12.89Q66.48 11.42 67.22 10.39Q67.97 9.36 69.28 8.82Q70.58 8.28 72.31 8.28L72.31 8.28Q73.85 8.28 75.08 8.58Q76.32 8.88 77.30 9.34L77.30 9.34L76.37 11.86Q75.38 11.42 74.33 11.15Q73.27 10.87 72.24 10.87L72.24 10.87Q71.33 10.87 70.74 11.11Q70.15 11.35 69.86 11.80Q69.58 12.24 69.58 12.82L69.58 12.82Q69.58 13.51 69.91 13.99Q70.25 14.47 71.04 14.89Q71.83 15.31 73.18 15.86L73.18 15.86Q74.59 16.42 75.56 17.06Q76.54 17.71 77.05 18.60Q77.57 19.49 77.57 20.83ZM85.92 12.41L85.92 12.41Q88.34 12.41 89.58 13.52Q90.82 14.64 90.82 16.92L90.82 16.92L90.82 25.66L88.66 25.66L88.08 23.86L87.98 23.86Q87.43 24.55 86.84 25.01Q86.26 25.46 85.49 25.68Q84.72 25.90 83.64 25.90L83.64 25.90Q81.89 25.90 80.74 24.92Q79.58 23.95 79.58 21.89L79.58 21.89Q79.58 19.90 81.08 18.85Q82.58 17.81 85.61 17.71L85.61 17.71L87.79 17.64L87.79 17.09Q87.79 15.77 87.19 15.23Q86.59 14.69 85.54 14.69L85.54 14.69Q84.60 14.69 83.68 14.99Q82.75 15.29 81.89 15.67L81.89 15.67L80.98 13.56Q81.94 13.03 83.21 12.72Q84.48 12.41 85.92 12.41ZM87.79 19.51L86.21 19.56Q84.24 19.66 83.47 20.22Q82.70 20.78 82.70 21.82L82.70 21.82Q82.70 22.73 83.26 23.17Q83.81 23.62 84.67 23.62L84.67 23.62Q85.99 23.62 86.89 22.85Q87.79 22.08 87.79 20.62L87.79 20.62L87.79 19.51ZM101.47 12.41L101.47 12.41Q103.68 12.41 104.90 13.54Q106.13 14.66 106.13 17.18L106.13 17.18L106.13 25.66L103.10 25.66L103.10 17.81Q103.10 16.32 102.52 15.59Q101.93 14.86 100.70 14.86L100.70 14.86Q98.88 14.86 98.21 16.01Q97.54 17.16 97.54 19.32L97.54 19.32L97.54 25.66L94.49 25.66L94.49 12.65L96.84 12.65L97.27 14.40L97.42 14.40Q97.85 13.73 98.47 13.28Q99.10 12.84 99.85 12.62Q100.61 12.41 101.47 12.41ZM118.73 21.91L118.73 21.91Q118.73 23.16 118.13 24.05Q117.53 24.94 116.35 25.42Q115.18 25.90 113.42 25.90L113.42 25.90Q112.06 25.90 111.02 25.70Q109.99 25.51 109.10 25.10L109.10 25.10L109.10 22.51Q110.06 22.97 111.23 23.27Q112.39 23.57 113.38 23.57L113.38 23.57Q114.67 23.57 115.25 23.18Q115.82 22.80 115.82 22.15L115.82 22.15Q115.82 21.74 115.57 21.42Q115.32 21.10 114.66 20.76Q114 20.42 112.80 19.94L112.80 19.94Q111.60 19.46 110.77 18.97Q109.94 18.48 109.51 17.77Q109.08 17.06 109.08 16.01L109.08 16.01Q109.08 14.26 110.47 13.33Q111.86 12.41 114.14 12.41L114.14 12.41Q115.37 12.41 116.44 12.65Q117.50 12.89 118.54 13.37L118.54 13.37L117.62 15.53Q116.74 15.14 115.80 14.89Q114.86 14.64 114.07 14.64L114.07 14.64Q113.06 14.64 112.52 14.95Q111.98 15.26 111.98 15.82L111.98 15.82Q111.98 16.25 112.25 16.55Q112.51 16.85 113.18 17.16Q113.86 17.47 115.06 17.93L115.06 17.93Q116.23 18.38 117.06 18.89Q117.89 19.39 118.31 20.10Q118.73 20.81 118.73 21.91ZM136.39 10.90L136.39 10.90Q134.86 10.90 133.73 11.64Q132.60 12.38 131.99 13.78Q131.38 15.17 131.38 17.11L131.38 17.11Q131.38 19.03 131.94 20.42Q132.50 21.82 133.64 22.55Q134.78 23.28 136.49 23.28L136.49 23.28Q137.62 23.28 138.64 23.04Q139.66 22.80 140.66 22.46L140.66 22.46L140.66 25.10Q139.66 25.51 138.56 25.70Q137.47 25.90 136.08 25.90L136.08 25.90Q133.42 25.90 131.65 24.80Q129.89 23.71 129.02 21.73Q128.16 19.75 128.16 17.09L128.16 17.09Q128.16 14.50 129.12 12.52Q130.08 10.54 131.93 9.41Q133.78 8.28 136.42 8.28L136.42 8.28Q137.71 8.28 139.00 8.56Q140.28 8.83 141.36 9.36L141.36 9.36L140.30 11.88Q139.44 11.47 138.48 11.18Q137.52 10.90 136.39 10.90ZM149.45 12.41L149.45 12.41Q151.87 12.41 153.11 13.52Q154.34 14.64 154.34 16.92L154.34 16.92L154.34 25.66L152.18 25.66L151.61 23.86L151.51 23.86Q150.96 24.55 150.37 25.01Q149.78 25.46 149.02 25.68Q148.25 25.90 147.17 25.90L147.17 25.90Q145.42 25.90 144.26 24.92Q143.11 23.95 143.11 21.89L143.11 21.89Q143.11 19.90 144.61 18.85Q146.11 17.81 149.14 17.71L149.14 17.71L151.32 17.64L151.32 17.09Q151.32 15.77 150.72 15.23Q150.12 14.69 149.06 14.69L149.06 14.69Q148.13 14.69 147.20 14.99Q146.28 15.29 145.42 15.67L145.42 15.67L144.50 13.56Q145.46 13.03 146.74 12.72Q148.01 12.41 149.45 12.41ZM151.32 19.51L149.74 19.56Q147.77 19.66 147.00 20.22Q146.23 20.78 146.23 21.82L146.23 21.82Q146.23 22.73 146.78 23.17Q147.34 23.62 148.20 23.62L148.20 23.62Q149.52 23.62 150.42 22.85Q151.32 22.08 151.32 20.62L151.32 20.62L151.32 19.51ZM165.00 12.41L165.00 12.41Q167.21 12.41 168.43 13.54Q169.66 14.66 169.66 17.18L169.66 17.18L169.66 25.66L166.63 25.66L166.63 17.81Q166.63 16.32 166.04 15.59Q165.46 14.86 164.23 14.86L164.23 14.86Q162.41 14.86 161.74 16.01Q161.06 17.16 161.06 19.32L161.06 19.32L161.06 25.66L158.02 25.66L158.02 12.65L160.37 12.65L160.80 14.40L160.94 14.40Q161.38 13.73 162.00 13.28Q162.62 12.84 163.38 12.62Q164.14 12.41 165.00 12.41ZM178.80 12.41L178.80 12.41Q181.22 12.41 182.46 13.52Q183.70 14.64 183.70 16.92L183.70 16.92L183.70 25.66L181.54 25.66L180.96 23.86L180.86 23.86Q180.31 24.55 179.72 25.01Q179.14 25.46 178.37 25.68Q177.60 25.90 176.52 25.90L176.52 25.90Q174.77 25.90 173.62 24.92Q172.46 23.95 172.46 21.89L172.46 21.89Q172.46 19.90 173.96 18.85Q175.46 17.81 178.49 17.71L178.49 17.71L180.67 17.64L180.67 17.09Q180.67 15.77 180.07 15.23Q179.47 14.69 178.42 14.69L178.42 14.69Q177.48 14.69 176.56 14.99Q175.63 15.29 174.77 15.67L174.77 15.67L173.86 13.56Q174.82 13.03 176.09 12.72Q177.36 12.41 178.80 12.41ZM180.67 19.51L179.09 19.56Q177.12 19.66 176.35 20.22Q175.58 20.78 175.58 21.82L175.58 21.82Q175.58 22.73 176.14 23.17Q176.69 23.62 177.55 23.62L177.55 23.62Q178.87 23.62 179.77 22.85Q180.67 22.08 180.67 20.62L180.67 20.62L180.67 19.51ZM191.76 25.90L191.76 25.90Q189.50 25.90 188.10 24.19Q186.70 22.49 186.70 19.18L186.70 19.18Q186.70 15.82 188.11 14.11Q189.53 12.41 191.83 12.41L191.83 12.41Q193.27 12.41 194.16 12.96Q195.05 13.51 195.62 14.30L195.62 14.30L195.74 14.30Q195.70 13.92 195.64 13.21Q195.58 12.50 195.58 11.95L195.58 11.95L195.58 7.42L198.65 7.42L198.65 25.66L196.27 25.66L195.70 23.95L195.58 23.95Q195.05 24.74 194.14 25.32Q193.22 25.90 191.76 25.90ZM192.67 23.42L192.67 23.42Q194.35 23.42 195.05 22.48Q195.74 21.53 195.74 19.58L195.74 19.58L195.74 19.20Q195.74 17.11 195.08 16.00Q194.42 14.88 192.65 14.88L192.65 14.88Q191.28 14.88 190.55 16.02Q189.82 17.16 189.82 19.22L189.82 19.22Q189.82 21.29 190.55 22.36Q191.28 23.42 192.67 23.42ZM202.39 12.65L205.44 12.65L205.44 25.66L202.39 25.66L202.39 12.65ZM203.95 7.61L203.95 7.61Q204.62 7.61 205.13 7.97Q205.63 8.33 205.63 9.22L205.63 9.22Q205.63 10.08 205.13 10.45Q204.62 10.82 203.95 10.82L203.95 10.82Q203.23 10.82 202.74 10.45Q202.25 10.08 202.25 9.22L202.25 9.22Q202.25 8.33 202.74 7.97Q203.23 7.61 203.95 7.61ZM214.66 12.41L214.66 12.41Q217.08 12.41 218.32 13.52Q219.55 14.64 219.55 16.92L219.55 16.92L219.55 25.66L217.39 25.66L216.82 23.86L216.72 23.86Q216.17 24.55 215.58 25.01Q214.99 25.46 214.22 25.68Q213.46 25.90 212.38 25.90L212.38 25.90Q210.62 25.90 209.47 24.92Q208.32 23.95 208.32 21.89L208.32 21.89Q208.32 19.90 209.82 18.85Q211.32 17.81 214.34 17.71L214.34 17.71L216.53 17.64L216.53 17.09Q216.53 15.77 215.93 15.23Q215.33 14.69 214.27 14.69L214.27 14.69Q213.34 14.69 212.41 14.99Q211.49 15.29 210.62 15.67L210.62 15.67L209.71 13.56Q210.67 13.03 211.94 12.72Q213.22 12.41 214.66 12.41ZM216.53 19.51L214.94 19.56Q212.98 19.66 212.21 20.22Q211.44 20.78 211.44 21.82L211.44 21.82Q211.44 22.73 211.99 23.17Q212.54 23.62 213.41 23.62L213.41 23.62Q214.73 23.62 215.63 22.85Q216.53 22.08 216.53 20.62L216.53 20.62L216.53 19.51ZM230.21 12.41L230.21 12.41Q232.42 12.41 233.64 13.54Q234.86 14.66 234.86 17.18L234.86 17.18L234.86 25.66L231.84 25.66L231.84 17.81Q231.84 16.32 231.25 15.59Q230.66 14.86 229.44 14.86L229.44 14.86Q227.62 14.86 226.94 16.01Q226.27 17.16 226.27 19.32L226.27 19.32L226.27 25.66L223.22 25.66L223.22 12.65L225.58 12.65L226.01 14.40L226.15 14.40Q226.58 13.73 227.21 13.28Q227.83 12.84 228.59 12.62Q229.34 12.41 230.21 12.41ZM259.80 25.66L256.51 25.66L254.90 21.14L248.57 21.14L246.98 25.66L243.70 25.66L249.98 8.45L253.51 8.45L259.80 25.66ZM254.14 18.50L252.67 14.23Q252.58 13.94 252.38 13.31Q252.19 12.67 252.01 11.99Q251.83 11.30 251.74 10.92L251.74 10.92Q251.62 11.42 251.46 12.06Q251.30 12.70 251.15 13.26Q250.99 13.82 250.87 14.23L250.87 14.23L249.38 18.50L254.14 18.50ZM264.74 7.42L264.74 11.74Q264.74 12.50 264.71 13.19Q264.67 13.87 264.60 14.35L264.60 14.35L264.74 14.35Q265.27 13.54 266.18 12.97Q267.10 12.41 268.56 12.41L268.56 12.41Q270.82 12.41 272.22 14.11Q273.62 15.82 273.62 19.13L273.62 19.13Q273.62 21.36 272.99 22.87Q272.35 24.38 271.19 25.14Q270.02 25.90 268.49 25.90L268.49 25.90Q267.02 25.90 266.15 25.37Q265.27 24.84 264.74 24.14L264.74 24.14L264.53 24.14L263.98 25.66L261.70 25.66L261.70 7.42L264.74 7.42ZM267.70 14.86L267.70 14.86Q266.06 14.86 265.40 15.84Q264.74 16.82 264.74 18.91L264.74 18.91L264.74 19.20Q264.74 21.26 265.39 22.33Q266.04 23.40 267.74 23.40L267.74 23.40Q269.11 23.40 269.81 22.30Q270.50 21.19 270.50 19.10L270.50 19.10Q270.50 14.86 267.70 14.86ZM288.46 19.13L288.46 19.13Q288.46 21.29 287.70 22.80Q286.94 24.31 285.55 25.10Q284.16 25.90 282.22 25.90L282.22 25.90Q280.44 25.90 279.05 25.10Q277.66 24.31 276.85 22.80Q276.05 21.29 276.05 19.13L276.05 19.13Q276.05 15.89 277.72 14.15Q279.38 12.41 282.29 12.41L282.29 12.41Q284.11 12.41 285.49 13.19Q286.87 13.97 287.66 15.46Q288.46 16.94 288.46 19.13ZM279.17 19.13L279.17 19.13Q279.17 20.47 279.49 21.47Q279.82 22.46 280.50 22.99Q281.18 23.52 282.26 23.52L282.26 23.52Q283.34 23.52 284.03 22.99Q284.71 22.46 285.02 21.47Q285.34 20.47 285.34 19.13L285.34 19.13Q285.34 17.74 285.01 16.78Q284.69 15.82 284.02 15.30Q283.34 14.78 282.24 14.78L282.24 14.78Q280.63 14.78 279.90 15.92Q279.17 17.06 279.17 19.13ZM298.30 12.41L298.30 12.41Q298.66 12.41 299.08 12.44Q299.50 12.48 299.76 12.55L299.76 12.55L299.45 15.38Q299.16 15.34 298.79 15.29Q298.42 15.24 297.98 15.24L297.98 15.24Q297.14 15.24 296.36 15.64Q295.58 16.03 295.08 16.85Q294.58 17.66 294.58 18.91L294.58 18.91L294.58 25.66L291.53 25.66L291.53 12.65L293.88 12.65L294.31 14.90L294.46 14.90Q295.06 13.87 296.04 13.14Q297.02 12.41 298.30 12.41ZM301.94 12.65L304.99 12.65L304.99 25.66L301.94 25.66L301.94 12.65ZM303.50 7.61L303.50 7.61Q304.18 7.61 304.68 7.97Q305.18 8.33 305.18 9.22L305.18 9.22Q305.18 10.08 304.68 10.45Q304.18 10.82 303.50 10.82L303.50 10.82Q302.78 10.82 302.29 10.45Q301.80 10.08 301.80 9.22L301.80 9.22Q301.80 8.33 302.29 7.97Q302.78 7.61 303.50 7.61ZM313.18 12.41L313.18 12.41Q314.50 12.41 315.44 12.90Q316.39 13.39 317.04 14.30L317.04 14.30L317.16 14.30L317.47 12.65L320.02 12.65L320.02 25.80Q320.02 27.65 319.33 28.90Q318.65 30.14 317.27 30.78Q315.89 31.42 313.75 31.42L313.75 31.42Q312.29 31.42 311.10 31.22Q309.91 31.03 308.90 30.62L308.90 30.62L308.90 27.96Q309.94 28.44 311.10 28.70Q312.26 28.97 313.73 28.97L313.73 28.97Q315.29 28.97 316.13 28.18Q316.97 27.38 316.97 25.97L316.97 25.97L316.97 25.58Q316.97 25.27 317.00 24.78Q317.04 24.29 317.06 23.95L317.06 23.95L316.97 23.95Q316.37 24.86 315.43 25.38Q314.50 25.90 313.15 25.90L313.15 25.90Q310.80 25.90 309.43 24.14Q308.06 22.39 308.06 19.18L308.06 19.18Q308.06 15.98 309.44 14.20Q310.82 12.41 313.18 12.41ZM314.02 14.86L314.02 14.86Q312.65 14.86 311.92 15.97Q311.18 17.09 311.18 19.20L311.18 19.20Q311.18 21.34 311.92 22.40Q312.65 23.47 314.06 23.47L314.06 23.47Q314.88 23.47 315.46 23.24Q316.03 23.02 316.40 22.55Q316.78 22.08 316.96 21.36Q317.14 20.64 317.14 19.66L317.14 19.66L317.14 19.13Q317.14 17.66 316.81 16.72Q316.49 15.77 315.80 15.31Q315.12 14.86 314.02 14.86ZM323.76 12.65L326.81 12.65L326.81 25.66L323.76 25.66L323.76 12.65ZM325.32 7.61L325.32 7.61Q325.99 7.61 326.50 7.97Q327 8.33 327 9.22L327 9.22Q327 10.08 326.50 10.45Q325.99 10.82 325.32 10.82L325.32 10.82Q324.60 10.82 324.11 10.45Q323.62 10.08 323.62 9.22L323.62 9.22Q323.62 8.33 324.11 7.97Q324.60 7.61 325.32 7.61ZM337.54 12.41L337.54 12.41Q339.74 12.41 340.97 13.54Q342.19 14.66 342.19 17.18L342.19 17.18L342.19 25.66L339.17 25.66L339.17 17.81Q339.17 16.32 338.58 15.59Q337.99 14.86 336.77 14.86L336.77 14.86Q334.94 14.86 334.27 16.01Q333.60 17.16 333.60 19.32L333.60 19.32L333.60 25.66L330.55 25.66L330.55 12.65L332.90 12.65L333.34 14.40L333.48 14.40Q333.91 13.73 334.54 13.28Q335.16 12.84 335.92 12.62Q336.67 12.41 337.54 12.41ZM351.34 12.41L351.34 12.41Q353.76 12.41 355.00 13.52Q356.23 14.64 356.23 16.92L356.23 16.92L356.23 25.66L354.07 25.66L353.50 23.86L353.40 23.86Q352.85 24.55 352.26 25.01Q351.67 25.46 350.90 25.68Q350.14 25.90 349.06 25.90L349.06 25.90Q347.30 25.90 346.15 24.92Q345.00 23.95 345.00 21.89L345.00 21.89Q345.00 19.90 346.50 18.85Q348.00 17.81 351.02 17.71L351.02 17.71L353.21 17.64L353.21 17.09Q353.21 15.77 352.61 15.23Q352.01 14.69 350.95 14.69L350.95 14.69Q350.02 14.69 349.09 14.99Q348.17 15.29 347.30 15.67L347.30 15.67L346.39 13.56Q347.35 13.03 348.62 12.72Q349.90 12.41 351.34 12.41ZM353.21 19.51L351.62 19.56Q349.66 19.66 348.89 20.22Q348.12 20.78 348.12 21.82L348.12 21.82Q348.12 22.73 348.67 23.17Q349.22 23.62 350.09 23.62L350.09 23.62Q351.41 23.62 352.31 22.85Q353.21 22.08 353.21 20.62L353.21 20.62L353.21 19.51ZM362.95 7.42L362.95 25.66L359.90 25.66L359.90 7.42L362.95 7.42ZM372.98 18.36L372.98 18.36Q372.98 16.90 373.19 15.44Q373.39 13.99 373.92 12.70Q374.45 11.40 375.38 10.40Q376.32 9.41 377.76 8.84Q379.20 8.28 381.26 8.28L381.26 8.28Q381.77 8.28 382.43 8.33Q383.09 8.38 383.50 8.50L383.50 8.50L383.50 10.99Q383.04 10.85 382.49 10.79Q381.94 10.73 381.26 10.73L381.26 10.73Q379.73 10.73 378.71 11.18Q377.69 11.64 377.10 12.44Q376.51 13.25 376.22 14.33Q375.94 15.41 375.89 16.68L375.89 16.68L376.03 16.68Q376.37 16.10 376.87 15.65Q377.38 15.19 378.11 14.93Q378.84 14.66 379.82 14.66L379.82 14.66Q382.06 14.66 383.39 16.06Q384.72 17.45 384.72 20.02L384.72 20.02Q384.72 21.84 384.04 23.16Q383.35 24.48 382.08 25.19Q380.81 25.90 379.06 25.90L379.06 25.90Q377.78 25.90 376.68 25.44Q375.58 24.98 374.75 24.06Q373.92 23.14 373.45 21.71Q372.98 20.28 372.98 18.36ZM379.01 23.40L379.01 23.40Q380.23 23.40 380.98 22.58Q381.72 21.77 381.72 20.04L381.72 20.04Q381.72 18.65 381.06 17.84Q380.40 17.04 379.06 17.04L379.06 17.04Q378.14 17.04 377.47 17.44Q376.80 17.83 376.43 18.44Q376.06 19.06 376.06 19.70L376.06 19.70Q376.06 20.38 376.24 21.02Q376.42 21.67 376.79 22.21Q377.16 22.75 377.71 23.08Q378.26 23.40 379.01 23.40ZM398.52 17.09L398.52 17.09Q398.52 19.82 397.93 21.80Q397.34 23.78 396.06 24.84Q394.78 25.90 392.62 25.90L392.62 25.90Q389.59 25.90 388.18 23.56Q386.76 21.22 386.76 17.09L386.76 17.09Q386.76 14.30 387.32 12.34Q387.89 10.37 389.18 9.31Q390.48 8.26 392.62 8.26L392.62 8.26Q394.61 8.26 395.93 9.30Q397.25 10.34 397.88 12.32Q398.52 14.30 398.52 17.09ZM389.81 17.09L389.81 17.09Q389.81 20.23 390.43 21.80Q391.06 23.38 392.62 23.38L392.62 23.38Q394.18 23.38 394.80 21.82Q395.42 20.26 395.42 17.09L395.42 17.09Q395.42 14.98 395.16 13.58Q394.90 12.19 394.28 11.48Q393.67 10.78 392.62 10.78L392.62 10.78Q391.56 10.78 390.95 11.48Q390.34 12.19 390.07 13.58Q389.81 14.98 389.81 17.09ZM412.37 17.09L412.37 17.09Q412.37 19.82 411.78 21.80Q411.19 23.78 409.91 24.84Q408.62 25.90 406.46 25.90L406.46 25.90Q403.44 25.90 402.02 23.56Q400.61 21.22 400.61 17.09L400.61 17.09Q400.61 14.30 401.17 12.34Q401.74 10.37 403.03 9.31Q404.33 8.26 406.46 8.26L406.46 8.26Q408.46 8.26 409.78 9.30Q411.10 10.34 411.73 12.32Q412.37 14.30 412.37 17.09ZM403.66 17.09L403.66 17.09Q403.66 20.23 404.28 21.80Q404.90 23.38 406.46 23.38L406.46 23.38Q408.02 23.38 408.65 21.82Q409.27 20.26 409.27 17.09L409.27 17.09Q409.27 14.98 409.01 13.58Q408.74 12.19 408.13 11.48Q407.52 10.78 406.46 10.78L406.46 10.78Q405.41 10.78 404.80 11.48Q404.18 12.19 403.92 13.58Q403.66 14.98 403.66 17.09ZM429.29 12.41L429.29 12.41Q431.50 12.41 432.72 13.54Q433.94 14.66 433.94 17.18L433.94 17.18L433.94 25.66L430.92 25.66L430.92 17.81Q430.92 16.32 430.33 15.59Q429.74 14.86 428.52 14.86L428.52 14.86Q426.70 14.86 426.02 16.01Q425.35 17.16 425.35 19.32L425.35 19.32L425.35 25.66L422.30 25.66L422.30 12.65L424.66 12.65L425.09 14.40L425.23 14.40Q425.66 13.73 426.29 13.28Q426.91 12.84 427.67 12.62Q428.42 12.41 429.29 12.41ZM449.35 19.13L449.35 19.13Q449.35 21.29 448.60 22.80Q447.84 24.31 446.45 25.10Q445.06 25.90 443.11 25.90L443.11 25.90Q441.34 25.90 439.94 25.10Q438.55 24.31 437.75 22.80Q436.94 21.29 436.94 19.13L436.94 19.13Q436.94 15.89 438.61 14.15Q440.28 12.41 443.18 12.41L443.18 12.41Q445.01 12.41 446.39 13.19Q447.77 13.97 448.56 15.46Q449.35 16.94 449.35 19.13ZM440.06 19.13L440.06 19.13Q440.06 20.47 440.39 21.47Q440.71 22.46 441.40 22.99Q442.08 23.52 443.16 23.52L443.16 23.52Q444.24 23.52 444.92 22.99Q445.61 22.46 445.92 21.47Q446.23 20.47 446.23 19.13L446.23 19.13Q446.23 17.74 445.91 16.78Q445.58 15.82 444.91 15.30Q444.24 14.78 443.14 14.78L443.14 14.78Q441.53 14.78 440.80 15.92Q440.06 17.06 440.06 19.13ZM459.19 12.41L459.19 12.41Q459.55 12.41 459.97 12.44Q460.39 12.48 460.66 12.55L460.66 12.55L460.34 15.38Q460.06 15.34 459.68 15.29Q459.31 15.24 458.88 15.24L458.88 15.24Q458.04 15.24 457.26 15.64Q456.48 16.03 455.98 16.85Q455.47 17.66 455.47 18.91L455.47 18.91L455.47 25.66L452.42 25.66L452.42 12.65L454.78 12.65L455.21 14.90L455.35 14.90Q455.95 13.87 456.94 13.14Q457.92 12.41 459.19 12.41ZM477.74 12.41L477.74 12.41Q479.95 12.41 481.08 13.54Q482.21 14.66 482.21 17.18L482.21 17.18L482.21 25.66L479.18 25.66L479.18 17.78Q479.18 16.27 478.63 15.56Q478.08 14.86 476.95 14.86L476.95 14.86Q475.37 14.86 474.71 15.90Q474.05 16.94 474.05 18.89L474.05 18.89L474.05 25.66L471.00 25.66L471.00 17.78Q471.00 16.30 470.45 15.58Q469.90 14.86 468.79 14.86L468.79 14.86Q467.66 14.86 467.04 15.38Q466.42 15.91 466.15 16.90Q465.89 17.88 465.89 19.32L465.89 19.32L465.89 25.66L462.84 25.66L462.84 12.65L465.22 12.65L465.65 14.35L465.77 14.35Q466.15 13.73 466.73 13.28Q467.30 12.84 468.05 12.62Q468.79 12.41 469.63 12.41L469.63 12.41Q471.12 12.41 472.09 12.91Q473.06 13.42 473.59 14.45L473.59 14.45L473.71 14.45Q474.36 13.42 475.43 12.91Q476.50 12.41 477.74 12.41ZM491.35 12.41L491.35 12.41Q493.78 12.41 495.01 13.52Q496.25 14.64 496.25 16.92L496.25 16.92L496.25 25.66L494.09 25.66L493.51 23.86L493.42 23.86Q492.86 24.55 492.28 25.01Q491.69 25.46 490.92 25.68Q490.15 25.90 489.07 25.90L489.07 25.90Q487.32 25.90 486.17 24.92Q485.02 23.95 485.02 21.89L485.02 21.89Q485.02 19.90 486.52 18.85Q488.02 17.81 491.04 17.71L491.04 17.71L493.22 17.64L493.22 17.09Q493.22 15.77 492.62 15.23Q492.02 14.69 490.97 14.69L490.97 14.69Q490.03 14.69 489.11 14.99Q488.18 15.29 487.32 15.67L487.32 15.67L486.41 13.56Q487.37 13.03 488.64 12.72Q489.91 12.41 491.35 12.41ZM493.22 19.51L491.64 19.56Q489.67 19.66 488.90 20.22Q488.14 20.78 488.14 21.82L488.14 21.82Q488.14 22.73 488.69 23.17Q489.24 23.62 490.10 23.62L490.10 23.62Q491.42 23.62 492.32 22.85Q493.22 22.08 493.22 20.62L493.22 20.62L493.22 19.51ZM502.97 7.42L502.97 25.66L499.92 25.66L499.92 7.42L502.97 7.42Z"/></svg>