<svg xmlns="http://www.w3.org/2000/svg" xmlns:xlink="http://www.w3.org/1999/xlink" width="274.29599999999994" height="32.904"><path fill="black" d="M0.29 24.17L0.29 24.17L0.82 20.40L2.98 20.40L3.31 24.41L1.75 22.99Q2.42 23.30 3.35 23.48Q4.27 23.66 5.09 23.66L5.09 23.66Q5.88 23.66 6.46 23.42Q7.03 23.18 7.34 22.74Q7.66 22.30 7.66 21.67L7.66 21.67Q7.66 21.22 7.48 20.80Q7.30 20.38 6.84 19.92Q6.38 19.46 5.52 18.89L5.52 18.89Q4.34 18.10 3.55 17.32Q2.76 16.54 2.36 15.67Q1.97 14.81 1.97 13.78L1.97 13.78Q1.97 12.17 2.81 11.05Q3.65 9.94 5.08 9.36Q6.50 8.78 8.26 8.78L8.26 8.78Q9.14 8.78 10.00 8.92Q10.85 9.05 11.58 9.30Q12.31 9.55 12.79 9.89L12.79 9.89L12.36 13.42L10.18 13.42L9.84 9.72L11.40 11.18Q10.80 10.78 10.15 10.58Q9.50 10.39 8.66 10.39L8.66 10.39Q7.85 10.39 7.25 10.66Q6.65 10.92 6.32 11.38Q6 11.83 6 12.41L6 12.41Q6 12.86 6.23 13.27Q6.46 13.68 6.97 14.11Q7.49 14.54 8.33 15.12L8.33 15.12Q9.48 15.86 10.27 16.63Q11.06 17.40 11.46 18.26Q11.86 19.13 11.86 20.23L11.86 20.23Q11.86 21.86 10.97 22.99Q10.08 24.12 8.57 24.71Q7.06 25.30 5.21 25.30L5.21 25.30Q4.22 25.30 3.29 25.14Q2.35 24.98 1.58 24.73Q0.82 24.48 0.29 24.17ZM18.55 25.25L18.55 25.25Q17.04 25.25 15.84 24.71Q14.64 24.17 13.96 23.09Q13.27 22.01 13.27 20.38L13.27 20.38Q13.27 18.86 13.82 17.45Q14.38 16.03 15.41 14.90Q16.44 13.78 17.86 13.10Q19.27 12.43 20.95 12.43L20.95 12.43Q22.49 12.43 23.68 12.97Q24.86 13.51 25.55 14.59Q26.23 15.67 26.23 17.30L26.23 17.30Q26.23 18.79 25.67 20.22Q25.10 21.65 24.08 22.78Q23.06 23.90 21.66 24.58Q20.26 25.25 18.55 25.25ZM18.89 23.66L18.89 23.66Q19.42 23.66 19.86 23.23Q20.30 22.80 20.66 22.06Q21.02 21.31 21.29 20.36Q21.55 19.42 21.70 18.38Q21.84 17.35 21.84 16.34L21.84 16.34Q21.84 15.02 21.50 14.52Q21.17 14.02 20.59 14.02L20.59 14.02Q20.06 14.02 19.62 14.46Q19.18 14.90 18.82 15.64Q18.46 16.37 18.19 17.32Q17.93 18.26 17.80 19.28Q17.66 20.30 17.66 21.26L17.66 21.26Q17.66 22.66 18 23.16Q18.34 23.66 18.89 23.66ZM30.67 25.25L30.67 25.25Q29.86 25.25 29.28 24.92Q28.70 24.60 28.42 24.07Q28.13 23.54 28.13 22.90L28.13 22.90Q28.13 22.22 28.22 21.61Q28.32 21 28.44 20.45L28.44 20.45L29.81 14.76L30.84 15.53L27.89 15.29L28.13 13.97L33.36 12.48L34.61 12.82L32.93 19.87Q32.86 20.18 32.80 20.44Q32.74 20.69 32.70 20.89Q32.66 21.10 32.66 21.31L32.66 21.31Q32.66 21.77 32.92 22.02Q33.17 22.27 33.58 22.27L33.58 22.27Q33.96 22.27 34.36 22.15Q34.75 22.03 35.18 21.77Q35.62 21.50 36.10 21.12L36.10 21.12L36.34 22.27L35.64 22.27Q34.99 23.21 34.22 23.87Q33.46 24.53 32.57 24.89Q31.68 25.25 30.67 25.25ZM38.02 25.25L38.02 25.25Q36.79 25.25 36.17 24.58Q35.54 23.90 35.54 22.61L35.54 22.61Q35.54 22.42 35.57 22.25Q35.59 22.08 35.62 21.91L35.62 21.91L35.42 21.91L36.55 16.66Q36.72 15.82 36.89 15.01Q37.06 14.21 37.22 13.34L37.22 13.34L40.97 12.48L41.81 12.82L39.98 20.86Q39.91 21.26 39.84 21.59Q39.77 21.91 39.77 22.15L39.77 22.15Q39.77 22.42 39.89 22.56Q40.01 22.70 40.25 22.70L40.25 22.70Q40.56 22.70 40.84 22.38Q41.11 22.06 41.59 21.38L41.59 21.38L42.58 22.01Q42.14 22.80 41.51 23.54Q40.87 24.29 40.03 24.77Q39.19 25.25 38.02 25.25ZM48.50 20.45L48.50 20.45L48.19 17.69L48.89 17.69Q49.42 16.06 50.06 14.90Q50.71 13.75 51.48 13.14Q52.25 12.53 53.11 12.53L53.11 12.53Q54.02 12.53 54.61 13.01Q55.20 13.49 55.37 14.18L55.37 14.18Q55.30 15.05 54.80 15.71Q54.31 16.37 53.38 16.37L53.38 16.37Q52.58 16.37 52.14 16.00Q51.70 15.62 51.19 14.98L51.19 14.98L50.86 14.52L52.10 14.88L51.48 14.95Q50.93 15.58 50.46 16.31Q49.99 17.04 49.54 18.02Q49.08 19.01 48.50 20.45ZM44.16 25.15L43.39 24.79L45.53 14.78L46.99 15.60L43.66 15.29L43.92 13.99L48.86 12.48L49.58 12.82L48.84 17.30L49.37 17.30L49.01 19.10Q48.70 20.66 48.40 22.07Q48.10 23.47 47.81 24.86L47.81 24.86L44.16 25.15ZM60.60 25.25L60.60 25.25Q59.11 25.25 58.07 24.65Q57.02 24.05 56.47 22.97Q55.92 21.89 55.92 20.42L55.92 20.42Q55.92 18.82 56.47 17.39Q57.02 15.96 58.02 14.84Q59.02 13.73 60.41 13.08Q61.80 12.43 63.46 12.43L63.46 12.43Q64.42 12.43 65.18 12.72Q65.95 13.01 66.50 13.55Q67.06 14.09 67.30 14.83L67.30 14.83Q67.25 15.58 66.78 16.15Q66.31 16.73 65.42 16.73L65.42 16.73Q64.75 16.73 64.31 16.31Q63.86 15.89 63.46 15.02L63.46 15.02L62.54 13.20L63.84 13.20L63.84 13.46L63.05 13.46Q62.47 13.78 61.97 14.40Q61.46 15.02 61.07 15.84Q60.67 16.66 60.44 17.60Q60.22 18.55 60.22 19.54L60.22 19.54Q60.22 21.05 60.88 21.70Q61.54 22.34 62.57 22.34L62.57 22.34Q63.12 22.34 63.64 22.13Q64.15 21.91 64.68 21.48Q65.21 21.05 65.71 20.42L65.71 20.42L66.79 21.19Q66.41 21.86 65.83 22.58Q65.26 23.30 64.49 23.90Q63.72 24.50 62.75 24.88Q61.78 25.25 60.60 25.25ZM73.15 25.25L73.15 25.25Q71.62 25.25 70.52 24.67Q69.43 24.10 68.87 23.02Q68.30 21.94 68.30 20.50L68.30 20.50Q68.30 18.91 68.86 17.46Q69.41 16.01 70.42 14.88Q71.42 13.75 72.82 13.09Q74.21 12.43 75.91 12.43L75.91 12.43Q77.74 12.43 78.76 13.19Q79.78 13.94 79.78 15.19L79.78 15.19Q79.78 16.15 79.18 16.98Q78.58 17.81 77.41 18.49Q76.25 19.18 74.54 19.68Q72.84 20.18 70.61 20.54L70.61 20.54L70.58 19.63Q72.89 19.08 74.14 18.29Q75.38 17.50 75.88 16.62Q76.37 15.74 76.37 14.98L76.37 14.98Q76.37 14.50 76.15 14.23Q75.94 13.97 75.58 13.97L75.58 13.97Q75.05 13.97 74.52 14.44Q73.99 14.90 73.54 15.70Q73.08 16.49 72.82 17.50Q72.55 18.50 72.55 19.58L72.55 19.58Q72.55 21.05 73.19 21.72Q73.82 22.39 74.93 22.39L74.93 22.39Q75.58 22.39 76.12 22.16Q76.66 21.94 77.15 21.50Q77.64 21.07 78.10 20.52L78.10 20.52L79.18 21.29Q78.82 21.91 78.26 22.61Q77.71 23.30 76.98 23.90Q76.25 24.50 75.30 24.88Q74.35 25.25 73.15 25.25ZM85.42 24.17L85.42 24.17L85.94 20.40L88.10 20.40L88.44 24.41L86.88 22.99Q87.55 23.30 88.48 23.48Q89.40 23.66 90.22 23.66L90.22 23.66Q91.01 23.66 91.58 23.42Q92.16 23.18 92.47 22.74Q92.78 22.30 92.78 21.67L92.78 21.67Q92.78 21.22 92.60 20.80Q92.42 20.38 91.97 19.92Q91.51 19.46 90.65 18.89L90.65 18.89Q89.47 18.10 88.68 17.32Q87.89 16.54 87.49 15.67Q87.10 14.81 87.10 13.78L87.10 13.78Q87.10 12.17 87.94 11.05Q88.78 9.94 90.20 9.36Q91.63 8.78 93.38 8.78L93.38 8.78Q94.27 8.78 95.12 8.92Q95.98 9.05 96.71 9.30Q97.44 9.55 97.92 9.89L97.92 9.89L97.49 13.42L95.30 13.42L94.97 9.72L96.53 11.18Q95.93 10.78 95.28 10.58Q94.63 10.39 93.79 10.39L93.79 10.39Q92.98 10.39 92.38 10.66Q91.78 10.92 91.45 11.38Q91.13 11.83 91.13 12.41L91.13 12.41Q91.13 12.86 91.36 13.27Q91.58 13.68 92.10 14.11Q92.62 14.54 93.46 15.12L93.46 15.12Q94.61 15.86 95.40 16.63Q96.19 17.40 96.59 18.26Q96.98 19.13 96.98 20.23L96.98 20.23Q96.98 21.86 96.10 22.99Q95.21 24.12 93.70 24.71Q92.18 25.30 90.34 25.30L90.34 25.30Q89.35 25.30 88.42 25.14Q87.48 24.98 86.71 24.73Q85.94 24.48 85.42 24.17ZM103.34 25.25L103.34 25.25Q101.81 25.25 100.72 24.67Q99.62 24.10 99.06 23.02Q98.50 21.94 98.50 20.50L98.50 20.50Q98.50 18.91 99.05 17.46Q99.60 16.01 100.61 14.88Q101.62 13.75 103.01 13.09Q104.40 12.43 106.10 12.43L106.10 12.43Q107.93 12.43 108.95 13.19Q109.97 13.94 109.97 15.19L109.97 15.19Q109.97 16.15 109.37 16.98Q108.77 17.81 107.60 18.49Q106.44 19.18 104.74 19.68Q103.03 20.18 100.80 20.54L100.80 20.54L100.78 19.63Q103.08 19.08 104.33 18.29Q105.58 17.50 106.07 16.62Q106.56 15.74 106.56 14.98L106.56 14.98Q106.56 14.50 106.34 14.23Q106.13 13.97 105.77 13.97L105.77 13.97Q105.24 13.97 104.71 14.44Q104.18 14.90 103.73 15.70Q103.27 16.49 103.01 17.50Q102.74 18.50 102.74 19.58L102.74 19.58Q102.74 21.05 103.38 21.72Q104.02 22.39 105.12 22.39L105.12 22.39Q105.77 22.39 106.31 22.16Q106.85 21.94 107.34 21.50Q107.83 21.07 108.29 20.52L108.29 20.52L109.37 21.29Q109.01 21.91 108.46 22.61Q107.90 23.30 107.17 23.90Q106.44 24.50 105.49 24.88Q104.54 25.25 103.34 25.25ZM116.14 20.45L116.14 20.45L115.82 17.69L116.52 17.69Q117.05 16.06 117.70 14.90Q118.34 13.75 119.11 13.14Q119.88 12.53 120.74 12.53L120.74 12.53Q121.66 12.53 122.24 13.01Q122.83 13.49 123 14.18L123 14.18Q122.93 15.05 122.44 15.71Q121.94 16.37 121.01 16.37L121.01 16.37Q120.22 16.37 119.77 16.00Q119.33 15.62 118.82 14.98L118.82 14.98L118.49 14.52L119.74 14.88L119.11 14.95Q118.56 15.58 118.09 16.31Q117.62 17.04 117.17 18.02Q116.71 19.01 116.14 20.45ZM111.79 25.15L111.02 24.79L113.16 14.78L114.62 15.60L111.29 15.29L111.55 13.99L116.50 12.48L117.22 12.82L116.47 17.30L117 17.30L116.64 19.10Q116.33 20.66 116.03 22.07Q115.73 23.47 115.44 24.86L115.44 24.86L111.79 25.15ZM123.72 23.14L123.72 23.14Q123.72 22.46 123.88 21.73Q124.03 21 124.13 20.47L124.13 20.47L125.35 14.76L126.31 15.55L123.48 15.29L123.72 13.99L129 12.48L130.22 12.79L128.40 20.95Q128.33 21.31 128.27 21.61Q128.21 21.91 128.21 22.15L128.21 22.15Q128.21 22.42 128.32 22.56Q128.42 22.70 128.66 22.70L128.66 22.70Q128.98 22.70 129.26 22.39Q129.55 22.08 130.03 21.38L130.03 21.38L131.02 21.98Q130.46 22.92 129.77 23.66Q129.07 24.41 128.18 24.83Q127.30 25.25 126.22 25.25L126.22 25.25Q124.90 25.25 124.31 24.67Q123.72 24.10 123.72 23.14ZM128.50 10.94L128.50 10.94Q127.66 10.94 127.06 10.42Q126.46 9.89 126.46 9.02L126.46 9.02Q126.46 8.04 127.16 7.34Q127.87 6.65 128.88 6.65L128.88 6.65Q129.79 6.65 130.36 7.19Q130.92 7.73 130.92 8.57L130.92 8.57Q130.92 9.55 130.22 10.25Q129.53 10.94 128.50 10.94ZM130.56 30.43L130.56 30.43Q129.53 30.43 128.87 30.18Q128.21 29.93 127.86 29.50Q127.51 29.06 127.34 28.51L127.34 28.51Q127.46 27.86 127.84 27.43Q128.21 27 128.88 27L128.88 27Q129.38 27 129.72 27.17Q130.06 27.34 130.36 27.72Q130.66 28.10 131.02 28.73L131.02 28.73L131.45 29.57L131.04 29.50L131.50 29.50L131.33 29.57Q131.54 29.11 131.72 28.70Q131.90 28.30 132.02 27.77L132.02 27.77Q132.17 27.31 132.26 26.78Q132.36 26.26 132.47 25.63Q132.58 25.01 132.67 24.24L132.67 24.24Q133.01 21.84 133.32 19.37Q133.63 16.90 133.94 14.45L133.94 14.45Q134.18 12.55 134.75 11.21Q135.31 9.86 136.15 9.04Q136.99 8.21 138.05 7.81Q139.10 7.42 140.33 7.42L140.33 7.42Q141.26 7.42 142.03 7.68Q142.80 7.94 143.30 8.39Q143.81 8.83 143.93 9.36L143.93 9.36Q143.90 10.06 143.40 10.58Q142.90 11.11 142.15 11.11L142.15 11.11Q141.53 11.11 141.07 10.75Q140.62 10.39 140.28 9.77L140.28 9.77L139.46 8.26L139.75 8.16L139.44 8.16L139.61 8.21Q139.39 8.50 139.22 8.84Q139.06 9.19 138.92 9.66Q138.79 10.13 138.68 10.80Q138.58 11.47 138.46 12.41L138.46 12.41Q138.07 15.22 137.70 17.95Q137.33 20.69 136.92 23.28L136.92 23.28Q136.73 24.53 136.42 25.49Q136.10 26.45 135.70 27.19Q135.29 27.94 134.76 28.54L134.76 28.54Q134.28 29.09 133.61 29.52Q132.94 29.95 132.16 30.19Q131.38 30.43 130.56 30.43ZM135.19 14.50L132.07 14.50L132.36 13.13L135.48 12.65L135.48 12.82L141.26 12.82L140.88 14.66L135.19 14.50ZM155.71 25.10L151.73 25.10L152.62 20.78L152.86 20.26L154.46 12.48L153.67 12.48L155.38 11.59L151.68 15.84L147.84 19.73L148.18 18.43L148.18 19.46L159.22 19.46L158.74 21.94L146.23 21.94L146.69 19.37L155.40 9.84L158.78 9.84L155.71 25.10ZM166.08 25.30L165.96 23.81Q168.22 23.30 169.87 22.42Q171.53 21.53 172.62 20.29Q173.71 19.06 174.25 17.48Q174.79 15.91 174.82 14.04L174.82 14.04Q174.84 12.91 174.65 12.24Q174.46 11.57 174.07 11.27Q173.69 10.97 173.09 10.97L173.09 10.97Q172.63 10.97 172.18 11.26Q171.72 11.54 171.37 12.06Q171.02 12.58 170.81 13.27Q170.59 13.97 170.59 14.81L170.59 14.81Q170.59 15.72 170.87 16.31Q171.14 16.90 171.64 17.18Q172.13 17.47 172.80 17.47L172.80 17.47Q173.47 17.47 174.02 17.27Q174.58 17.06 175.06 16.75L175.06 16.75L175.22 17.81L174.07 17.81Q173.57 18.29 172.69 18.70Q171.82 19.10 170.78 19.10L170.78 19.10Q169.49 19.10 168.56 18.64Q167.64 18.17 167.15 17.29Q166.66 16.42 166.66 15.24L166.66 15.24Q166.66 13.97 167.20 12.91Q167.74 11.86 168.66 11.08Q169.58 10.30 170.80 9.88Q172.01 9.46 173.38 9.46L173.38 9.46Q174.98 9.46 176.21 10.03Q177.43 10.61 178.10 11.75Q178.78 12.89 178.78 14.54L178.78 14.54Q178.78 16.70 177.83 18.58Q176.88 20.45 175.15 21.86Q173.42 23.28 171.11 24.17Q168.79 25.06 166.08 25.30L166.08 25.30ZM184.87 25.25L184.87 25.25Q183.36 25.25 182.23 24.66Q181.10 24.07 180.48 22.91Q179.86 21.74 179.86 19.99L179.86 19.99Q179.86 18.43 180.20 16.90Q180.55 15.36 181.22 14.03Q181.90 12.70 182.86 11.66Q183.82 10.63 185.06 10.04Q186.31 9.46 187.78 9.46L187.78 9.46Q189.36 9.46 190.48 10.04Q191.59 10.63 192.18 11.77Q192.77 12.91 192.77 14.62L192.77 14.62Q192.77 16.27 192.42 17.84Q192.07 19.42 191.40 20.75Q190.73 22.08 189.77 23.10Q188.81 24.12 187.57 24.68Q186.34 25.25 184.87 25.25ZM185.14 23.71L185.14 23.71Q185.66 23.71 186.12 23.23Q186.58 22.75 186.97 21.95Q187.37 21.14 187.68 20.11Q187.99 19.08 188.21 17.95Q188.42 16.82 188.53 15.72Q188.64 14.62 188.64 13.68L188.64 13.68Q188.64 12.67 188.51 12.10Q188.38 11.52 188.14 11.27Q187.90 11.02 187.54 11.02L187.54 11.02Q187.03 11.02 186.58 11.46Q186.12 11.90 185.72 12.67Q185.33 13.44 185.00 14.42Q184.68 15.41 184.46 16.52Q184.25 17.64 184.13 18.77Q184.01 19.90 184.01 20.93L184.01 20.93Q184.01 21.98 184.14 22.58Q184.27 23.18 184.52 23.45Q184.78 23.71 185.14 23.71ZM199.03 25.25L199.03 25.25Q197.52 25.25 196.39 24.66Q195.26 24.07 194.64 22.91Q194.02 21.74 194.02 19.99L194.02 19.99Q194.02 18.43 194.36 16.90Q194.71 15.36 195.38 14.03Q196.06 12.70 197.02 11.66Q197.98 10.63 199.22 10.04Q200.47 9.46 201.94 9.46L201.94 9.46Q203.52 9.46 204.64 10.04Q205.75 10.63 206.34 11.77Q206.93 12.91 206.93 14.62L206.93 14.62Q206.93 16.27 206.58 17.84Q206.23 19.42 205.56 20.75Q204.89 22.08 203.93 23.10Q202.97 24.12 201.73 24.68Q200.50 25.25 199.03 25.25ZM199.30 23.71L199.30 23.71Q199.82 23.71 200.28 23.23Q200.74 22.75 201.13 21.95Q201.53 21.14 201.84 20.11Q202.15 19.08 202.37 17.95Q202.58 16.82 202.69 15.72Q202.80 14.62 202.80 13.68L202.80 13.68Q202.80 12.67 202.67 12.10Q202.54 11.52 202.30 11.27Q202.06 11.02 201.70 11.02L201.70 11.02Q201.19 11.02 200.74 11.46Q200.28 11.90 199.88 12.67Q199.49 13.44 199.16 14.42Q198.84 15.41 198.62 16.52Q198.41 17.64 198.29 18.77Q198.17 19.90 198.17 20.93L198.17 20.93Q198.17 21.98 198.30 22.58Q198.43 23.18 198.68 23.45Q198.94 23.71 199.30 23.71ZM213.19 23.14L213.19 23.14Q213.19 22.46 213.35 21.73Q213.50 21 213.60 20.47L213.60 20.47L214.82 14.76L215.78 15.55L212.95 15.29L213.19 13.99L218.47 12.48L219.70 12.79L217.87 20.95Q217.80 21.31 217.74 21.61Q217.68 21.91 217.68 22.15L217.68 22.15Q217.68 22.42 217.79 22.56Q217.90 22.70 218.14 22.70L218.14 22.70Q218.45 22.70 218.74 22.39Q219.02 22.08 219.50 21.38L219.50 21.38L220.49 21.98Q219.94 22.92 219.24 23.66Q218.54 24.41 217.66 24.83Q216.77 25.25 215.69 25.25L215.69 25.25Q214.37 25.25 213.78 24.67Q213.19 24.10 213.19 23.14ZM217.97 10.94L217.97 10.94Q217.13 10.94 216.53 10.42Q215.93 9.89 215.93 9.02L215.93 9.02Q215.93 8.04 216.64 7.34Q217.34 6.65 218.35 6.65L218.35 6.65Q219.26 6.65 219.83 7.19Q220.39 7.73 220.39 8.57L220.39 8.57Q220.39 9.55 219.70 10.25Q219.00 10.94 217.97 10.94ZM225.07 14.59L221.62 14.54L221.88 13.13L225.34 12.58L225.34 12.82L230.66 12.82L230.30 14.62L225.14 14.45L225.07 14.59ZM224.21 25.25L224.21 25.25Q222.89 25.25 222.29 24.67Q221.69 24.10 221.69 23.11L221.69 23.11Q221.69 22.39 221.84 21.68Q222.00 20.98 222.12 20.42L222.12 20.42L223.56 13.87L225.98 9.53L228.67 9.53L226.42 20.95Q226.34 21.31 226.28 21.61Q226.22 21.91 226.22 22.15L226.22 22.15Q226.22 22.42 226.34 22.56Q226.46 22.70 226.70 22.70L226.70 22.70Q226.90 22.70 227.09 22.56Q227.28 22.42 227.51 22.13Q227.74 21.84 228.07 21.38L228.07 21.38L229.06 21.98Q228.50 22.92 227.80 23.66Q227.09 24.41 226.19 24.83Q225.29 25.25 224.21 25.25ZM233.74 25.25L233.74 25.25Q232.85 25.25 232.18 24.86Q231.50 24.48 231.13 23.66Q230.76 22.85 230.76 21.60L230.76 21.60Q230.76 20.26 231.26 18.92Q231.77 17.59 232.62 16.43Q233.47 15.26 234.56 14.36Q235.66 13.46 236.86 12.95Q238.06 12.43 239.21 12.43L239.21 12.43Q239.81 12.43 240.32 12.54Q240.84 12.65 241.30 12.85Q241.75 13.06 242.16 13.34L242.16 13.34L240.58 15.26Q240.00 14.81 239.48 14.64Q238.97 14.47 238.46 14.47L238.46 14.47Q238.22 14.47 237.96 14.52Q237.70 14.57 237.43 14.70Q237.17 14.83 236.90 15.07L236.90 15.07Q236.33 15.62 235.93 16.49Q235.54 17.35 235.33 18.30Q235.13 19.25 235.13 20.02L235.13 20.02Q235.13 21.26 235.50 21.76Q235.87 22.25 236.52 22.25L236.52 22.25Q236.88 22.25 237.23 22.13Q237.58 22.01 237.90 21.83Q238.22 21.65 238.54 21.43L238.54 21.43L238.58 22.44L238.06 22.44Q237.60 23.11 236.95 23.76Q236.30 24.41 235.50 24.83Q234.70 25.25 233.74 25.25ZM240.65 25.25L240.65 25.25Q239.50 25.25 238.80 24.62Q238.10 24 238.08 22.82L238.08 22.82Q238.08 22.75 238.08 22.69Q238.08 22.63 238.09 22.56Q238.10 22.49 238.10 22.44L238.10 22.44L237.86 22.44L239.66 14.14L240.48 14.14L243.12 12.34L244.42 12.50L242.54 20.86Q242.47 21.26 242.40 21.58Q242.33 21.89 242.33 22.15L242.33 22.15Q242.33 22.42 242.45 22.56Q242.57 22.70 242.81 22.70L242.81 22.70Q243.12 22.70 243.40 22.37Q243.67 22.03 244.15 21.36L244.15 21.36L245.16 21.98Q244.70 22.80 244.06 23.54Q243.41 24.29 242.56 24.77Q241.70 25.25 240.65 25.25ZM248.74 25.25L248.74 25.25Q247.42 25.25 246.83 24.67Q246.24 24.10 246.24 23.14L246.24 23.14Q246.24 22.46 246.40 21.72Q246.55 20.98 246.74 20.06L246.74 20.06L247.85 15.02Q248.11 13.75 248.39 12.52Q248.66 11.28 248.90 9.98L248.90 9.98L250.49 10.68L247.10 10.20L247.34 8.90L252.79 7.68L253.78 7.97L250.92 20.95Q250.85 21.31 250.79 21.61Q250.73 21.91 250.73 22.15L250.73 22.15Q250.73 22.42 250.84 22.56Q250.94 22.70 251.18 22.70L251.18 22.70Q251.50 22.70 251.78 22.39Q252.07 22.08 252.55 21.38L252.55 21.38L253.54 21.98Q252.98 22.92 252.29 23.66Q251.59 24.41 250.70 24.83Q249.82 25.25 248.74 25.25ZM254.59 23.14L254.59 23.14Q254.59 22.46 254.75 21.73Q254.90 21 255.00 20.47L255.00 20.47L256.22 14.76L257.18 15.55L254.35 15.29L254.59 13.99L259.87 12.48L261.10 12.79L259.27 20.95Q259.20 21.31 259.14 21.61Q259.08 21.91 259.08 22.15L259.08 22.15Q259.08 22.42 259.19 22.56Q259.30 22.70 259.54 22.70L259.54 22.70Q259.85 22.70 260.14 22.39Q260.42 22.08 260.90 21.38L260.90 21.38L261.89 21.98Q261.34 22.92 260.64 23.66Q259.94 24.41 259.06 24.83Q258.17 25.25 257.09 25.25L257.09 25.25Q255.77 25.25 255.18 24.67Q254.59 24.10 254.59 23.14ZM259.37 10.94L259.37 10.94Q258.53 10.94 257.93 10.42Q257.33 9.89 257.33 9.02L257.33 9.02Q257.33 8.04 258.04 7.34Q258.74 6.65 259.75 6.65L259.75 6.65Q260.66 6.65 261.23 7.19Q261.79 7.73 261.79 8.57L261.79 8.57Q261.79 9.55 261.10 10.25Q260.40 10.94 259.37 10.94ZM267.41 25.25L267.41 25.25Q265.92 25.25 264.88 24.65Q263.83 24.05 263.28 22.97Q262.73 21.89 262.73 20.42L262.73 20.42Q262.73 18.82 263.28 17.39Q263.83 15.96 264.83 14.84Q265.82 13.73 267.22 13.08Q268.61 12.43 270.26 12.43L270.26 12.43Q271.22 12.43 271.99 12.72Q272.76 13.01 273.31 13.55Q273.86 14.09 274.10 14.83L274.10 14.83Q274.06 15.58 273.59 16.15Q273.12 16.73 272.23 16.73L272.23 16.73Q271.56 16.73 271.12 16.31Q270.67 15.89 270.26 15.02L270.26 15.02L269.35 13.20L270.65 13.20L270.65 13.46L269.86 13.46Q269.28 13.78 268.78 14.40Q268.27 15.02 267.88 15.84Q267.48 16.66 267.25 17.60Q267.02 18.55 267.02 19.54L267.02 19.54Q267.02 21.05 267.68 21.70Q268.34 22.34 269.38 22.34L269.38 22.34Q269.93 22.34 270.44 22.13Q270.96 21.91 271.49 21.48Q272.02 21.05 272.52 20.42L272.52 20.42L273.60 21.19Q273.22 21.86 272.64 22.58Q272.06 23.30 271.30 23.90Q270.53 24.50 269.56 24.88Q268.58 25.25 267.41 25.25Z"/></svg>