<svg xmlns="http://www.w3.org/2000/svg" xmlns:xlink="http://www.w3.org/1999/xlink" width="199.55859375" height="35.25"><path fill="black" d="M12.81 14.89L12.81 17.96L4.08 17.96L4.08 14.89L12.81 14.89ZM5.24 8.09L5.24 25.15L1.42 25.15L1.42 8.09L5.24 8.09ZM15.49 8.09L15.49 25.15L11.70 25.15L11.70 8.09L15.49 8.09ZM24.14 25.38L24.14 25.38Q22.13 25.38 20.69 24.54Q19.25 23.71 18.49 22.31Q17.73 20.92 17.73 19.24L17.73 19.24L17.73 18.80Q17.73 16.91 18.45 15.42Q19.16 13.93 20.50 13.08Q21.84 12.23 23.73 12.23L23.73 12.23Q25.57 12.23 26.83 13.01Q28.09 13.78 28.75 15.18Q29.40 16.58 29.40 18.48L29.40 18.48L29.40 20.03L19.24 20.03L19.24 17.58L25.82 17.58L25.82 17.29Q25.80 16.65 25.58 16.18Q25.36 15.70 24.90 15.44Q24.43 15.18 23.71 15.18L23.71 15.18Q22.84 15.18 22.34 15.66Q21.83 16.15 21.62 16.96Q21.40 17.78 21.40 18.80L21.40 18.80L21.40 19.24Q21.40 20.19 21.75 20.91Q22.10 21.62 22.77 22.03Q23.44 22.43 24.38 22.43L24.38 22.43Q25.25 22.43 26.03 22.11Q26.81 21.79 27.38 21.07L27.38 21.07L29.11 23.11Q28.52 23.96 27.26 24.67Q25.99 25.38 24.14 25.38ZM37.17 25.38L37.17 25.38Q35.16 25.38 33.72 24.54Q32.29 23.71 31.52 22.31Q30.76 20.92 30.76 19.24L30.76 19.24L30.76 18.80Q30.76 16.91 31.48 15.42Q32.19 13.93 33.53 13.08Q34.88 12.23 36.76 12.23L36.76 12.23Q38.60 12.23 39.86 13.01Q41.12 13.78 41.78 15.18Q42.43 16.58 42.43 18.48L42.43 18.48L42.43 20.03L32.27 20.03L32.27 17.58L38.85 17.58L38.85 17.29Q38.84 16.65 38.61 16.18Q38.39 15.70 37.93 15.44Q37.46 15.18 36.74 15.18L36.74 15.18Q35.87 15.18 35.37 15.66Q34.86 16.15 34.65 16.96Q34.43 17.78 34.43 18.80L34.43 18.80L34.43 19.24Q34.43 20.19 34.78 20.91Q35.13 21.62 35.80 22.03Q36.47 22.43 37.41 22.43L37.41 22.43Q38.29 22.43 39.06 22.11Q39.84 21.79 40.41 21.07L40.41 21.07L42.14 23.11Q41.55 23.96 40.29 24.67Q39.02 25.38 37.17 25.38ZM44.23 7.15L47.89 7.15L47.89 22.10L47.52 25.15L44.23 25.15L44.23 7.15ZM55.80 18.67L55.80 18.91Q55.80 20.81 55.27 22.28Q54.74 23.74 53.64 24.56Q52.55 25.38 50.87 25.38L50.87 25.38Q49.32 25.38 48.33 24.52Q47.34 23.66 46.80 22.20Q46.25 20.73 46.02 18.90L46.02 18.90L46.02 18.69Q46.25 16.88 46.80 15.42Q47.34 13.96 48.33 13.10Q49.31 12.23 50.85 12.23L50.85 12.23Q52.54 12.23 53.64 13.07Q54.74 13.90 55.27 15.35Q55.80 16.80 55.80 18.67L55.80 18.67ZM52.15 18.91L52.15 18.67Q52.15 17.73 51.97 16.94Q51.79 16.15 51.31 15.67Q50.84 15.20 49.93 15.20L49.93 15.20Q49.28 15.20 48.83 15.40Q48.38 15.61 48.09 16.01Q47.80 16.41 47.67 16.98Q47.53 17.55 47.52 18.26L47.52 18.26L47.52 19.34Q47.53 20.29 47.77 20.98Q48.01 21.68 48.54 22.05Q49.08 22.43 49.96 22.43L49.96 22.43Q50.86 22.43 51.33 21.98Q51.80 21.54 51.97 20.74Q52.15 19.95 52.15 18.91L52.15 18.91ZM57.23 18.94L57.23 18.69Q57.23 16.84 57.94 15.38Q58.64 13.92 59.99 13.08Q61.34 12.23 63.27 12.23L63.27 12.23Q65.24 12.23 66.59 13.08Q67.95 13.92 68.64 15.38Q69.34 16.84 69.34 18.69L69.34 18.69L69.34 18.94Q69.34 20.78 68.64 22.24Q67.95 23.71 66.60 24.54Q65.25 25.38 63.29 25.38L63.29 25.38Q61.35 25.38 59.99 24.54Q58.64 23.71 57.94 22.24Q57.23 20.78 57.23 18.94L57.23 18.94ZM60.90 18.69L60.90 18.94Q60.90 19.91 61.13 20.71Q61.35 21.50 61.88 21.97Q62.40 22.44 63.29 22.44L63.29 22.44Q64.18 22.44 64.71 21.97Q65.24 21.50 65.46 20.71Q65.68 19.91 65.68 18.94L65.68 18.94L65.68 18.69Q65.68 17.74 65.46 16.94Q65.24 16.14 64.71 15.66Q64.18 15.18 63.27 15.18L63.27 15.18Q62.39 15.18 61.87 15.66Q61.35 16.14 61.13 16.94Q60.90 17.74 60.90 18.69L60.90 18.69ZM88.82 20.45L88.82 20.45Q88.82 22.08 88.06 23.17Q87.30 24.27 85.99 24.83Q84.68 25.38 83.00 25.38L83.00 25.38Q81.33 25.38 80.00 24.83Q78.68 24.27 77.91 23.17Q77.13 22.08 77.13 20.45L77.13 20.45Q77.13 18.98 77.90 17.91Q78.67 16.84 79.99 16.26Q81.32 15.68 82.98 15.68L82.98 15.68Q84.66 15.68 85.98 16.26Q87.30 16.84 88.06 17.91Q88.82 18.98 88.82 20.45ZM85.15 20.16L85.15 20.16Q85.15 19.44 84.88 18.93Q84.61 18.42 84.12 18.15Q83.64 17.88 82.98 17.88L82.98 17.88Q82.32 17.88 81.84 18.15Q81.35 18.42 81.08 18.93Q80.81 19.44 80.81 20.16L80.81 20.16Q80.81 20.87 81.08 21.38Q81.35 21.88 81.84 22.16Q82.34 22.44 83.00 22.44L83.00 22.44Q83.66 22.44 84.15 22.16Q84.63 21.88 84.89 21.38Q85.15 20.87 85.15 20.16ZM88.46 12.63L88.46 12.63Q88.46 13.96 87.77 14.96Q87.07 15.96 85.84 16.52Q84.61 17.09 83.00 17.09L83.00 17.09Q81.40 17.09 80.16 16.52Q78.91 15.96 78.21 14.96Q77.50 13.96 77.50 12.63L77.50 12.63Q77.50 11.09 78.21 10.01Q78.91 8.94 80.15 8.39Q81.39 7.84 82.98 7.84L82.98 7.84Q84.60 7.84 85.83 8.39Q87.06 8.94 87.76 10.01Q88.46 11.09 88.46 12.63ZM84.81 12.83L84.81 12.83Q84.81 12.21 84.59 11.75Q84.38 11.30 83.97 11.04Q83.57 10.79 82.98 10.79L82.98 10.79Q82.41 10.79 82.00 11.04Q81.59 11.29 81.38 11.74Q81.18 12.20 81.18 12.83L81.18 12.83Q81.18 13.45 81.38 13.93Q81.59 14.40 82.00 14.67Q82.41 14.94 83.00 14.94L83.00 14.94Q83.59 14.94 83.99 14.67Q84.40 14.40 84.60 13.93Q84.81 13.45 84.81 12.83ZM102.67 15.09L102.67 18.13Q102.67 20.65 101.94 22.25Q101.20 23.86 99.89 24.62Q98.58 25.38 96.84 25.38L96.84 25.38Q95.12 25.38 93.79 24.62Q92.46 23.86 91.72 22.25Q90.98 20.65 90.98 18.13L90.98 18.13L90.98 15.09Q90.98 12.56 91.72 10.97Q92.45 9.38 93.77 8.61Q95.09 7.85 96.82 7.85L96.82 7.85Q98.55 7.85 99.87 8.61Q101.19 9.38 101.93 10.97Q102.67 12.56 102.67 15.09L102.67 15.09ZM99 18.61L99 14.59Q99 13.17 98.74 12.35Q98.48 11.52 98.00 11.16Q97.51 10.80 96.82 10.80L96.82 10.80Q96.14 10.80 95.65 11.16Q95.16 11.52 94.90 12.35Q94.64 13.17 94.64 14.59L94.64 14.59L94.64 18.61Q94.64 20.04 94.90 20.88Q95.17 21.73 95.66 22.08Q96.15 22.44 96.84 22.44L96.84 22.44Q97.52 22.44 98.01 22.08Q98.50 21.73 98.75 20.88Q99 20.04 99 18.61L99 18.61ZM116.51 15.09L116.51 18.13Q116.51 20.65 115.78 22.25Q115.04 23.86 113.73 24.62Q112.42 25.38 110.68 25.38L110.68 25.38Q108.96 25.38 107.63 24.62Q106.30 23.86 105.56 22.25Q104.82 20.65 104.82 18.13L104.82 18.13L104.82 15.09Q104.82 12.56 105.56 10.97Q106.29 9.38 107.61 8.61Q108.93 7.85 110.66 7.85L110.66 7.85Q112.39 7.85 113.71 8.61Q115.03 9.38 115.77 10.97Q116.51 12.56 116.51 15.09L116.51 15.09ZM112.84 18.61L112.84 14.59Q112.84 13.17 112.58 12.35Q112.32 11.52 111.84 11.16Q111.35 10.80 110.66 10.80L110.66 10.80Q109.98 10.80 109.49 11.16Q109.00 11.52 108.74 12.35Q108.48 13.17 108.48 14.59L108.48 14.59L108.48 18.61Q108.48 20.04 108.74 20.88Q109.01 21.73 109.50 22.08Q109.99 22.44 110.68 22.44L110.68 22.44Q111.36 22.44 111.85 22.08Q112.34 21.73 112.59 20.88Q112.84 20.04 112.84 18.61L112.84 18.61ZM128.38 15.18L128.38 25.15L124.72 25.15L124.72 12.47L128.16 12.47L128.38 15.18ZM127.89 18.40L126.93 18.45Q126.93 16.50 127.55 15.11Q128.17 13.72 129.29 12.98Q130.41 12.23 131.88 12.23L131.88 12.23Q133.08 12.23 133.97 12.70Q134.87 13.17 135.38 14.24Q135.89 15.30 135.89 17.13L135.89 17.13L135.89 25.15L132.21 25.15L132.21 17.11Q132.21 16.35 131.99 15.93Q131.78 15.52 131.35 15.36Q130.92 15.20 130.31 15.20L130.31 15.20Q129.68 15.20 129.22 15.43Q128.77 15.67 128.47 16.10Q128.17 16.52 128.03 17.11Q127.89 17.70 127.89 18.40L127.89 18.40ZM137.78 18.94L137.78 18.69Q137.78 16.84 138.48 15.38Q139.18 13.92 140.53 13.08Q141.88 12.23 143.81 12.23L143.81 12.23Q145.78 12.23 147.13 13.08Q148.49 13.92 149.19 15.38Q149.88 16.84 149.88 18.69L149.88 18.69L149.88 18.94Q149.88 20.78 149.19 22.24Q148.49 23.71 147.14 24.54Q145.79 25.38 143.84 25.38L143.84 25.38Q141.89 25.38 140.54 24.54Q139.18 23.71 138.48 22.24Q137.78 20.78 137.78 18.94L137.78 18.94ZM141.45 18.69L141.45 18.94Q141.45 19.91 141.67 20.71Q141.89 21.50 142.42 21.97Q142.95 22.44 143.84 22.44L143.84 22.44Q144.73 22.44 145.25 21.97Q145.78 21.50 146.00 20.71Q146.23 19.91 146.23 18.94L146.23 18.94L146.23 18.69Q146.23 17.74 146.00 16.94Q145.78 16.14 145.25 15.66Q144.73 15.18 143.81 15.18L143.81 15.18Q142.93 15.18 142.41 15.66Q141.89 16.14 141.67 16.94Q141.45 17.74 141.45 18.69L141.45 18.69ZM155.52 15.47L155.52 25.15L151.85 25.15L151.85 12.47L155.30 12.47L155.52 15.47ZM159.25 12.39L159.20 15.93Q158.94 15.89 158.58 15.86Q158.21 15.83 157.93 15.83L157.93 15.83Q157.02 15.83 156.43 16.11Q155.84 16.38 155.55 16.93Q155.27 17.47 155.25 18.30L155.25 18.30L154.55 17.94Q154.55 16.27 154.97 14.98Q155.40 13.69 156.22 12.96Q157.03 12.23 158.18 12.23L158.18 12.23Q158.45 12.23 158.75 12.27Q159.06 12.30 159.25 12.39L159.25 12.39ZM164.41 15.13L164.41 25.15L160.75 25.15L160.75 12.47L164.19 12.47L164.41 15.13ZM163.92 18.40L162.95 18.45Q162.95 16.64 163.51 15.24Q164.06 13.84 165.17 13.04Q166.28 12.23 167.91 12.23L167.91 12.23Q169.59 12.23 170.65 13.27Q171.70 14.31 171.70 16.69L171.70 16.69L171.70 25.15L168.04 25.15L168.04 17.16Q168.04 16.35 167.83 15.93Q167.63 15.50 167.24 15.35Q166.85 15.20 166.30 15.20L166.30 15.20Q165.69 15.20 165.25 15.43Q164.80 15.67 164.50 16.10Q164.20 16.52 164.06 17.11Q163.92 17.70 163.92 18.40L163.92 18.40ZM171.34 18.25L170.11 18.35Q170.10 16.61 170.64 15.22Q171.19 13.84 172.27 13.04Q173.36 12.23 174.97 12.23L174.97 12.23Q176.18 12.23 177.09 12.70Q178.00 13.17 178.50 14.24Q179.00 15.32 179.00 17.12L179.00 17.12L179.00 25.15L175.32 25.15L175.32 17.12Q175.32 16.32 175.12 15.91Q174.91 15.50 174.53 15.35Q174.14 15.20 173.60 15.20L173.60 15.20Q173.03 15.20 172.61 15.42Q172.18 15.64 171.91 16.05Q171.63 16.46 171.49 17.03Q171.34 17.59 171.34 18.25L171.34 18.25ZM188.19 22.08L188.19 16.71Q188.19 15.89 187.79 15.40Q187.38 14.92 186.49 14.92L186.49 14.92Q185.99 14.92 185.63 15.08Q185.27 15.25 185.08 15.56Q184.89 15.87 184.89 16.34L184.89 16.34L181.23 16.34Q181.23 15.18 181.90 14.26Q182.58 13.34 183.80 12.79Q185.03 12.23 186.69 12.23L186.69 12.23Q188.18 12.23 189.35 12.73Q190.51 13.23 191.19 14.23Q191.87 15.23 191.87 16.73L191.87 16.73L191.87 22.00Q191.87 23.16 192.01 23.81Q192.14 24.46 192.39 24.95L192.39 24.95L192.39 25.15L188.71 25.15Q188.45 24.60 188.32 23.77Q188.19 22.95 188.19 22.08L188.19 22.08ZM188.66 17.38L188.68 19.46L186.90 19.46Q185.67 19.46 185.14 20.02Q184.61 20.57 184.61 21.33L184.61 21.33Q184.61 21.89 185.01 22.26Q185.41 22.63 186.08 22.63L186.08 22.63Q186.79 22.63 187.30 22.35Q187.82 22.08 188.09 21.70Q188.37 21.32 188.34 20.99L188.34 20.99L189.26 22.56Q189.07 23.03 188.76 23.52Q188.45 24.01 187.98 24.43Q187.51 24.86 186.84 25.12Q186.18 25.38 185.26 25.38L185.26 25.38Q184.07 25.38 183.08 24.90Q182.10 24.41 181.52 23.55Q180.94 22.69 180.94 21.56L180.94 21.56Q180.94 19.58 182.41 18.48Q183.88 17.38 186.83 17.38L186.83 17.38L188.66 17.38ZM198.15 7.15L198.15 25.15L194.48 25.15L194.48 7.15L198.15 7.15Z"/></svg>