<svg xmlns="http://www.w3.org/2000/svg" xmlns:xlink="http://www.w3.org/1999/xlink" width="220.96800000000002" height="27.504"><path fill="black" d="M2.40 22.42L-0.84 22.42L6.62 5.62L10.30 5.62L14.26 22.42L10.99 22.42L8.35 10.13Q8.28 9.79 8.24 9.42Q8.21 9.05 8.21 8.69L8.21 8.69L8.14 8.69Q8.02 9.05 7.88 9.42Q7.75 9.79 7.61 10.13L7.61 10.13L2.40 22.42ZM11.42 18.67L2.98 18.67L2.98 16.13L11.42 16.13L11.42 18.67ZM18.67 22.58L18.67 22.58Q17.66 22.58 16.69 22.32Q15.72 22.06 14.98 21.55L14.98 21.55L15.31 19.27Q16.15 19.78 17.02 20.03Q17.88 20.28 18.58 20.28L18.58 20.28Q19.18 20.28 19.64 20.11Q20.11 19.94 20.38 19.62Q20.64 19.30 20.64 18.84L20.64 18.84Q20.64 18.31 20.36 18Q20.09 17.69 19.64 17.48Q19.20 17.28 18.70 17.06L18.70 17.06Q18.19 16.85 17.68 16.57Q17.16 16.30 16.72 15.89Q16.27 15.48 16.00 14.92Q15.72 14.35 15.72 13.56L15.72 13.56Q15.72 12.17 16.40 11.32Q17.09 10.46 18.17 10.08Q19.25 9.70 20.45 9.70L20.45 9.70Q21.36 9.70 22.26 9.84Q23.16 9.98 23.86 10.25L23.86 10.25L23.52 12.53Q22.85 12.31 22.06 12.16Q21.26 12 20.54 12L20.54 12Q20.04 12 19.60 12.12Q19.15 12.24 18.89 12.50Q18.62 12.77 18.62 13.25L18.62 13.25Q18.62 13.73 18.96 14.03Q19.30 14.33 19.81 14.56Q20.33 14.78 20.90 15.07L20.90 15.07Q21.38 15.29 21.86 15.55Q22.34 15.82 22.74 16.19Q23.14 16.56 23.38 17.10Q23.62 17.64 23.62 18.41L23.62 18.41Q23.62 19.85 22.92 20.78Q22.22 21.72 21.10 22.15Q19.97 22.58 18.67 22.58ZM29.30 22.58L29.30 22.58Q28.58 22.58 27.88 22.32Q27.17 22.06 26.59 21.44Q26.02 20.83 25.68 19.84Q25.34 18.84 25.34 17.38L25.34 17.38Q25.34 15.67 25.72 14.27Q26.09 12.86 26.82 11.83Q27.55 10.80 28.56 10.25Q29.57 9.70 30.84 9.70L30.84 9.70Q31.58 9.70 32.17 9.91Q32.76 10.13 33.19 10.43Q33.62 10.73 33.89 11.02L33.89 11.02L34.32 9.86L36.72 9.86L35.76 19.25Q35.74 19.73 35.89 19.90Q36.05 20.06 36.31 20.06L36.31 20.06Q36.53 20.06 36.78 20.00Q37.03 19.94 37.27 19.85L37.27 19.85L37.06 22.08Q36.65 22.34 36.17 22.46Q35.69 22.58 35.21 22.58L35.21 22.58Q34.32 22.58 33.68 22.07Q33.05 21.55 33 20.30L33 20.30Q32.30 21.48 31.37 22.03Q30.43 22.58 29.30 22.58ZM30.36 20.11L30.36 20.11Q30.82 20.11 31.32 19.85Q31.82 19.58 32.29 18.98Q32.76 18.38 33.07 17.35L33.07 17.35L33.55 12.84Q33.29 12.65 32.75 12.41Q32.21 12.17 31.39 12.17L31.39 12.17Q30.58 12.17 30.00 12.59Q29.42 13.01 29.06 13.72Q28.70 14.42 28.52 15.34Q28.34 16.25 28.34 17.21L28.34 17.21Q28.34 18.29 28.60 18.94Q28.85 19.58 29.30 19.85Q29.76 20.11 30.36 20.11ZM41.02 27.38L38.09 27.38L39.48 13.92Q39.58 13.13 39.61 12.48Q39.65 11.83 39.64 11.26Q39.62 10.68 39.58 10.13L39.58 10.13L42.22 9.72Q42.36 10.18 42.40 10.86Q42.43 11.54 42.40 12.19Q42.36 12.84 42.26 13.18L42.26 13.18L42.02 12.86Q42.46 11.83 43.08 11.14Q43.70 10.44 44.52 10.07Q45.34 9.70 46.32 9.70L46.32 9.70Q47.06 9.70 47.82 9.97Q48.58 10.25 49.19 10.84Q49.80 11.42 50.16 12.41Q50.52 13.39 50.52 14.81L50.52 14.81Q50.52 16.42 50.14 17.82Q49.75 19.22 49.02 20.29Q48.29 21.36 47.23 21.97Q46.18 22.58 44.81 22.58L44.81 22.58Q44.11 22.58 43.50 22.38Q42.89 22.18 42.42 21.88Q41.95 21.58 41.64 21.26L41.64 21.26L41.02 27.38ZM44.21 20.14L44.21 20.14Q45.14 20.14 45.78 19.73Q46.42 19.32 46.80 18.61Q47.18 17.90 47.34 16.98Q47.50 16.06 47.50 15L47.50 15Q47.50 13.94 47.21 13.32Q46.92 12.70 46.43 12.43Q45.94 12.17 45.31 12.17L45.31 12.17Q44.64 12.17 44.12 12.44Q43.61 12.72 43.18 13.24Q42.74 13.75 42.36 14.50L42.36 14.50L41.88 19.32Q42.17 19.51 42.74 19.82Q43.32 20.14 44.21 20.14ZM62.35 22.56L62.35 22.56Q61.01 22.56 59.71 22.24Q58.42 21.91 57.46 21.34L57.46 21.34L57.86 18.70Q58.68 19.06 59.53 19.36Q60.38 19.66 61.20 19.82Q62.02 19.99 62.74 19.99L62.74 19.99Q63.53 19.99 64.14 19.74Q64.75 19.49 65.10 19.00Q65.45 18.50 65.45 17.76L65.45 17.76Q65.45 17.06 65.05 16.61Q64.66 16.15 63.92 15.77Q63.19 15.38 62.16 14.93L62.16 14.93Q61.51 14.64 60.88 14.29Q60.24 13.94 59.74 13.46Q59.23 12.98 58.93 12.29Q58.63 11.59 58.63 10.61L58.63 10.61Q58.63 9.29 59.11 8.32Q59.59 7.34 60.42 6.71Q61.25 6.07 62.32 5.76Q63.38 5.45 64.56 5.45L64.56 5.45Q65.57 5.45 66.60 5.66Q67.63 5.88 68.57 6.31L68.57 6.31L68.16 8.90Q67.68 8.69 67.03 8.48Q66.38 8.28 65.70 8.16Q65.02 8.04 64.37 8.04L64.37 8.04Q63.65 8.04 63.04 8.26Q62.42 8.47 62.08 8.92Q61.73 9.36 61.73 10.10L61.73 10.10Q61.73 10.75 62.10 11.16Q62.47 11.57 63.10 11.87Q63.72 12.17 64.42 12.48L64.42 12.48Q65.16 12.77 65.89 13.14Q66.62 13.51 67.24 14.04Q67.85 14.57 68.22 15.34Q68.59 16.10 68.59 17.21L68.59 17.21Q68.59 18.67 68.06 19.69Q67.54 20.71 66.65 21.35Q65.76 21.98 64.64 22.27Q63.53 22.56 62.35 22.56ZM80.16 22.58L80.16 22.58Q79.20 22.58 78.70 22.19Q78.19 21.79 78.02 21.13Q77.86 20.47 77.93 19.68L77.93 19.68L78.48 14.09Q78.50 13.94 78.50 13.81Q78.50 13.68 78.50 13.54L78.50 13.54Q78.50 12.84 78.16 12.50Q77.81 12.17 77.11 12.17L77.11 12.17Q76.61 12.17 76.04 12.42Q75.48 12.67 74.98 13.12Q74.47 13.56 74.11 14.14L74.11 14.14L73.20 22.42L70.27 22.42L72.14 4.34L75.10 4.34L74.35 11.71Q74.90 11.09 75.60 10.64Q76.30 10.20 77.06 9.95Q77.83 9.70 78.55 9.70L78.55 9.70Q79.58 9.70 80.23 10.03Q80.88 10.37 81.20 11.04Q81.53 11.71 81.53 12.70L81.53 12.70Q81.53 12.86 81.53 13.03Q81.53 13.20 81.50 13.39L81.50 13.39L80.90 19.25Q80.88 19.73 81.04 19.90Q81.19 20.06 81.48 20.06L81.48 20.06Q81.67 20.06 81.94 19.99Q82.20 19.92 82.42 19.85L82.42 19.85L82.18 22.06Q81.89 22.25 81.35 22.42Q80.81 22.58 80.16 22.58ZM87.46 22.58L87.46 22.58Q86.74 22.58 86.03 22.32Q85.32 22.06 84.74 21.44Q84.17 20.83 83.83 19.84Q83.50 18.84 83.50 17.38L83.50 17.38Q83.50 15.67 83.87 14.27Q84.24 12.86 84.97 11.83Q85.70 10.80 86.71 10.25Q87.72 9.70 88.99 9.70L88.99 9.70Q89.74 9.70 90.32 9.91Q90.91 10.13 91.34 10.43Q91.78 10.73 92.04 11.02L92.04 11.02L92.47 9.86L94.87 9.86L93.91 19.25Q93.89 19.73 94.04 19.90Q94.20 20.06 94.46 20.06L94.46 20.06Q94.68 20.06 94.93 20.00Q95.18 19.94 95.42 19.85L95.42 19.85L95.21 22.08Q94.80 22.34 94.32 22.46Q93.84 22.58 93.36 22.58L93.36 22.58Q92.47 22.58 91.84 22.07Q91.20 21.55 91.15 20.30L91.15 20.30Q90.46 21.48 89.52 22.03Q88.58 22.58 87.46 22.58ZM88.51 20.11L88.51 20.11Q88.97 20.11 89.47 19.85Q89.98 19.58 90.44 18.98Q90.91 18.38 91.22 17.35L91.22 17.35L91.70 12.84Q91.44 12.65 90.90 12.41Q90.36 12.17 89.54 12.17L89.54 12.17Q88.73 12.17 88.15 12.59Q87.58 13.01 87.22 13.72Q86.86 14.42 86.68 15.34Q86.50 16.25 86.50 17.21L86.50 17.21Q86.50 18.29 86.75 18.94Q87.00 19.58 87.46 19.85Q87.91 20.11 88.51 20.11ZM99.86 22.42L96.91 22.42L97.80 13.92Q97.90 13.13 97.93 12.48Q97.97 11.83 97.96 11.26Q97.94 10.68 97.90 10.13L97.90 10.13L100.46 9.72Q100.56 10.13 100.63 10.72Q100.70 11.30 100.70 11.88L100.70 11.88Q101.33 10.78 102.17 10.24Q103.01 9.70 103.85 9.70L103.85 9.70Q104.14 9.70 104.42 9.76Q104.71 9.82 104.95 9.94L104.95 9.94L104.59 12.86Q104.16 12.74 103.76 12.66Q103.37 12.58 102.96 12.58L102.96 12.58Q102.29 12.58 101.72 12.86Q101.16 13.15 100.75 13.92L100.75 13.92L99.86 22.42ZM107.95 27.38L105.02 27.38L106.42 13.92Q106.51 13.13 106.55 12.48Q106.58 11.83 106.57 11.26Q106.56 10.68 106.51 10.13L106.51 10.13L109.15 9.72Q109.30 10.18 109.33 10.86Q109.37 11.54 109.33 12.19Q109.30 12.84 109.20 13.18L109.20 13.18L108.96 12.86Q109.39 11.83 110.02 11.14Q110.64 10.44 111.46 10.07Q112.27 9.70 113.26 9.70L113.26 9.70Q114.00 9.70 114.76 9.97Q115.51 10.25 116.12 10.84Q116.74 11.42 117.10 12.41Q117.46 13.39 117.46 14.81L117.46 14.81Q117.46 16.42 117.07 17.82Q116.69 19.22 115.96 20.29Q115.22 21.36 114.17 21.97Q113.11 22.58 111.74 22.58L111.74 22.58Q111.05 22.58 110.44 22.38Q109.82 22.18 109.36 21.88Q108.89 21.58 108.58 21.26L108.58 21.26L107.95 27.38ZM111.14 20.14L111.14 20.14Q112.08 20.14 112.72 19.73Q113.35 19.32 113.74 18.61Q114.12 17.90 114.28 16.98Q114.43 16.06 114.43 15L114.43 15Q114.43 13.94 114.14 13.32Q113.86 12.70 113.36 12.43Q112.87 12.17 112.25 12.17L112.25 12.17Q111.58 12.17 111.06 12.44Q110.54 12.72 110.11 13.24Q109.68 13.75 109.30 14.50L109.30 14.50L108.82 19.32Q109.10 19.51 109.68 19.82Q110.26 20.14 111.14 20.14ZM130.10 22.56L130.10 22.56Q129.05 22.56 128.15 22.24Q127.25 21.91 126.56 21.28Q125.88 20.64 125.51 19.68Q125.14 18.72 125.14 17.42L125.14 17.42Q125.14 15.79 125.52 14.38Q125.90 12.96 126.58 11.78Q127.25 10.61 128.09 9.65Q128.93 8.69 129.88 7.96Q130.82 7.22 131.75 6.68Q132.67 6.14 133.49 5.82Q134.30 5.50 134.90 5.38L134.90 5.38L135.58 7.56Q133.51 8.26 132.07 9.28Q130.63 10.30 129.72 11.58Q128.81 12.86 128.39 14.35Q127.97 15.84 127.97 17.45L127.97 17.45Q127.97 18.53 128.33 19.14Q128.69 19.75 129.25 19.98Q129.82 20.21 130.44 20.21L130.44 20.21Q131.04 20.21 131.68 19.87Q132.31 19.54 132.73 18.84Q133.15 18.14 133.15 17.06L133.15 17.06Q133.15 16.25 132.83 15.73Q132.50 15.22 131.96 14.98Q131.42 14.74 130.75 14.74L130.75 14.74Q129.74 14.74 128.86 15.10Q127.97 15.46 127.34 15.89L127.34 15.89L127.97 13.56Q128.81 12.96 129.74 12.67Q130.68 12.38 131.78 12.38L131.78 12.38Q132.58 12.38 133.32 12.65Q134.06 12.91 134.68 13.45Q135.29 13.99 135.65 14.81Q136.01 15.62 136.01 16.73L136.01 16.73Q136.01 18.41 135.25 19.73Q134.50 21.05 133.16 21.80Q131.83 22.56 130.10 22.56ZM142.73 22.58L142.73 22.58Q141.29 22.58 140.17 21.84Q139.06 21.10 138.42 19.60Q137.78 18.10 137.78 15.86L137.78 15.86Q137.78 13.30 138.34 11.34Q138.89 9.38 139.84 8.08Q140.78 6.77 142.00 6.11Q143.21 5.45 144.53 5.45L144.53 5.45Q145.99 5.45 147.12 6.20Q148.25 6.96 148.87 8.46Q149.50 9.96 149.50 12.22L149.50 12.22Q149.50 14.78 148.94 16.72Q148.39 18.65 147.44 19.96Q146.50 21.26 145.28 21.92Q144.07 22.58 142.73 22.58ZM143.02 20.04L143.02 20.04Q143.64 20.04 144.26 19.57Q144.89 19.10 145.40 18.13Q145.92 17.16 146.24 15.67Q146.57 14.18 146.57 12.12L146.57 12.12Q146.57 10.63 146.26 9.72Q145.94 8.81 145.42 8.40Q144.89 7.99 144.26 7.99L144.26 7.99Q143.64 7.99 143.02 8.46Q142.39 8.93 141.88 9.91Q141.36 10.90 141.05 12.41Q140.74 13.92 140.74 15.98L140.74 15.98Q140.74 17.45 141.04 18.35Q141.34 19.25 141.85 19.64Q142.37 20.04 143.02 20.04ZM155.57 22.58L155.57 22.58Q154.13 22.58 153.01 21.84Q151.90 21.10 151.26 19.60Q150.62 18.10 150.62 15.86L150.62 15.86Q150.62 13.30 151.18 11.34Q151.73 9.38 152.68 8.08Q153.62 6.77 154.84 6.11Q156.05 5.45 157.37 5.45L157.37 5.45Q158.83 5.45 159.96 6.20Q161.09 6.96 161.71 8.46Q162.34 9.96 162.34 12.22L162.34 12.22Q162.34 14.78 161.78 16.72Q161.23 18.65 160.28 19.96Q159.34 21.26 158.12 21.92Q156.91 22.58 155.57 22.58ZM155.86 20.04L155.86 20.04Q156.48 20.04 157.10 19.57Q157.73 19.10 158.24 18.13Q158.76 17.16 159.08 15.67Q159.41 14.18 159.41 12.12L159.41 12.12Q159.41 10.63 159.10 9.72Q158.78 8.81 158.26 8.40Q157.73 7.99 157.10 7.99L157.10 7.99Q156.48 7.99 155.86 8.46Q155.23 8.93 154.72 9.91Q154.20 10.90 153.89 12.41Q153.58 13.92 153.58 15.98L153.58 15.98Q153.58 17.45 153.88 18.35Q154.18 19.25 154.69 19.64Q155.21 20.04 155.86 20.04ZM172.01 22.58L172.01 22.58Q171.05 22.58 170.54 22.20Q170.04 21.82 169.87 21.17Q169.70 20.52 169.78 19.73L169.78 19.73L170.76 9.86L173.71 9.86L172.78 19.25Q172.73 19.73 172.90 19.90Q173.06 20.06 173.33 20.06L173.33 20.06Q173.54 20.06 173.80 19.99Q174.05 19.92 174.29 19.85L174.29 19.85L174.05 22.06Q173.74 22.25 173.20 22.42Q172.66 22.58 172.01 22.58ZM173.88 8.33L170.86 8.33L171.14 5.47L174.17 5.47L173.88 8.33ZM179.42 22.58L179.42 22.58Q178.22 22.58 177.59 22.12Q176.95 21.65 176.75 20.87Q176.54 20.09 176.64 19.25L176.64 19.25L177.34 12.41L175.75 12.41L176.02 9.86L177.70 9.86L178.51 6.82L180.91 6.82L180.58 9.86L182.86 9.86L182.62 12.41L180.31 12.41L179.64 18.91Q179.59 19.34 179.65 19.62Q179.71 19.90 179.93 20.02Q180.14 20.14 180.55 20.14L180.55 20.14Q180.86 20.14 181.25 20.05Q181.63 19.97 182.04 19.85L182.04 19.85L181.75 22.08Q181.20 22.32 180.62 22.45Q180.05 22.58 179.42 22.58ZM187.44 22.58L187.44 22.58Q186.72 22.58 186.01 22.32Q185.30 22.06 184.73 21.44Q184.15 20.83 183.82 19.84Q183.48 18.84 183.48 17.38L183.48 17.38Q183.48 15.67 183.85 14.27Q184.22 12.86 184.96 11.83Q185.69 10.80 186.70 10.25Q187.70 9.70 188.98 9.70L188.98 9.70Q189.72 9.70 190.31 9.91Q190.90 10.13 191.33 10.43Q191.76 10.73 192.02 11.02L192.02 11.02L192.46 9.86L194.86 9.86L193.90 19.25Q193.87 19.73 194.03 19.90Q194.18 20.06 194.45 20.06L194.45 20.06Q194.66 20.06 194.92 20.00Q195.17 19.94 195.41 19.85L195.41 19.85L195.19 22.08Q194.78 22.34 194.30 22.46Q193.82 22.58 193.34 22.58L193.34 22.58Q192.46 22.58 191.82 22.07Q191.18 21.55 191.14 20.30L191.14 20.30Q190.44 21.48 189.50 22.03Q188.57 22.58 187.44 22.58ZM188.50 20.11L188.50 20.11Q188.95 20.11 189.46 19.85Q189.96 19.58 190.43 18.98Q190.90 18.38 191.21 17.35L191.21 17.35L191.69 12.84Q191.42 12.65 190.88 12.41Q190.34 12.17 189.53 12.17L189.53 12.17Q188.71 12.17 188.14 12.59Q187.56 13.01 187.20 13.72Q186.84 14.42 186.66 15.34Q186.48 16.25 186.48 17.21L186.48 17.21Q186.48 18.29 186.73 18.94Q186.98 19.58 187.44 19.85Q187.90 20.11 188.50 20.11ZM199.54 22.58L199.54 22.58Q198.60 22.58 198.02 22.21Q197.45 21.84 197.23 21.10Q197.02 20.35 197.11 19.22L197.11 19.22L198.65 4.34L201.58 4.34L200.06 19.03Q200.02 19.56 200.12 19.82Q200.23 20.09 200.64 20.09L200.64 20.09Q200.88 20.09 201.12 20.02Q201.36 19.94 201.72 19.80L201.72 19.80L201.48 22.03Q200.98 22.34 200.50 22.46Q200.02 22.58 199.54 22.58ZM206.54 22.58L206.54 22.58Q205.58 22.58 205.08 22.20Q204.58 21.82 204.41 21.17Q204.24 20.52 204.31 19.73L204.31 19.73L205.30 9.86L208.25 9.86L207.31 19.25Q207.26 19.73 207.43 19.90Q207.60 20.06 207.86 20.06L207.86 20.06Q208.08 20.06 208.33 19.99Q208.58 19.92 208.82 19.85L208.82 19.85L208.58 22.06Q208.27 22.25 207.73 22.42Q207.19 22.58 206.54 22.58ZM208.42 8.33L205.39 8.33L205.68 5.47L208.70 5.47L208.42 8.33ZM215.45 22.58L215.45 22.58Q214.06 22.58 212.88 22.10Q211.70 21.62 210.98 20.51Q210.26 19.39 210.26 17.45L210.26 17.45Q210.26 15.14 210.86 13.63Q211.46 12.12 212.45 11.26Q213.43 10.39 214.60 10.04Q215.76 9.70 216.91 9.70L216.91 9.70Q218.04 9.70 218.96 9.94Q219.89 10.18 220.44 10.46L220.44 10.46L220.08 12.84Q219.19 12.53 218.38 12.34Q217.56 12.14 216.84 12.14L216.84 12.14Q215.76 12.14 214.96 12.66Q214.15 13.18 213.73 14.30Q213.31 15.43 213.31 17.30L213.31 17.30Q213.31 18.38 213.65 19.01Q213.98 19.63 214.62 19.88Q215.26 20.14 216.05 20.14L216.05 20.14Q217.01 20.14 217.92 19.86Q218.83 19.58 219.50 19.27L219.50 19.27L219.84 21.55Q219.00 21.98 217.88 22.28Q216.77 22.58 215.45 22.58Z"/></svg>