<svg xmlns="http://www.w3.org/2000/svg" xmlns:xlink="http://www.w3.org/1999/xlink" width="214.51199999999997" height="28.8"><path fill="black" d="M7.96 23.11L7.96 23.11Q5.94 23.11 4.48 22.13Q3.01 21.14 2.23 19.48Q1.44 17.82 1.44 15.79L1.44 15.79L1.44 6L3.12 6L3.12 15.79Q3.12 17.33 3.68 18.61Q4.25 19.90 5.33 20.66Q6.41 21.43 7.96 21.43L7.96 21.43Q9.54 21.43 10.61 20.66Q11.69 19.88 12.24 18.60Q12.79 17.32 12.79 15.79L12.79 15.79L12.79 6L14.47 6L14.47 15.79Q14.47 17.32 14.02 18.64Q13.57 19.97 12.73 20.98Q11.88 21.98 10.67 22.55Q9.47 23.11 7.96 23.11ZM18.88 22.80L17.20 22.80L17.20 10.80L18.88 10.80L18.88 12.46Q19.51 11.54 20.53 11.00Q21.55 10.46 22.75 10.46L22.75 10.46Q23.45 10.46 24.10 10.64L24.10 10.64L23.41 12.31Q22.91 12.16 22.43 12.16L22.43 12.16Q21.46 12.16 20.65 12.64Q19.84 13.12 19.36 13.92Q18.88 14.72 18.88 15.71L18.88 15.71L18.88 22.80ZM31.45 10.46L31.45 10.46Q33.20 10.46 34.64 11.32Q36.07 12.17 36.92 13.60Q37.78 15.04 37.78 16.79L37.78 16.79Q37.78 18.10 37.28 19.24Q36.79 20.39 35.92 21.26Q35.05 22.13 33.91 22.62Q32.76 23.11 31.45 23.11L31.45 23.11Q29.96 23.11 28.88 22.40Q27.80 21.70 27.18 20.56L27.18 20.56L27.18 22.80L25.50 22.80L25.50 4.80L27.18 4.80L27.18 13.02Q27.80 11.88 28.88 11.17Q29.96 10.46 31.45 10.46ZM31.44 21.47L31.44 21.47Q32.72 21.47 33.77 20.84Q34.81 20.21 35.44 19.14Q36.06 18.07 36.06 16.79L36.06 16.79Q36.06 15.47 35.42 14.41Q34.79 13.34 33.74 12.72Q32.69 12.10 31.44 12.10L31.44 12.10Q30.17 12.10 29.24 12.73Q28.31 13.37 27.81 14.44Q27.31 15.50 27.31 16.79L27.31 16.79Q27.31 18.10 27.82 19.16Q28.32 20.22 29.25 20.84Q30.18 21.47 31.44 21.47ZM49.62 13.04L49.56 10.80L51.24 10.80L51.24 22.80L49.56 22.80L49.50 20.57Q48.91 21.71 47.86 22.41Q46.80 23.11 45.34 23.11L45.34 23.11Q44.02 23.11 42.86 22.61Q41.71 22.12 40.84 21.24Q39.96 20.36 39.47 19.21Q38.98 18.06 38.98 16.74L38.98 16.74Q38.98 15.44 39.46 14.30Q39.95 13.16 40.81 12.30Q41.66 11.44 42.80 10.95Q43.93 10.46 45.23 10.46L45.23 10.46Q46.73 10.46 47.84 11.18Q48.96 11.89 49.62 13.04L49.62 13.04ZM45.30 21.48L45.30 21.48Q46.58 21.48 47.51 20.85Q48.43 20.22 48.93 19.15Q49.43 18.08 49.43 16.80L49.43 16.80Q49.43 15.48 48.92 14.42Q48.42 13.36 47.50 12.73Q46.57 12.11 45.30 12.11L45.30 12.11Q44.03 12.11 42.98 12.74Q41.93 13.37 41.31 14.44Q40.69 15.50 40.69 16.80L40.69 16.80Q40.69 18.11 41.33 19.17Q41.96 20.23 43.01 20.86Q44.06 21.48 45.30 21.48ZM64.10 15.37L64.10 15.37L64.10 22.80L62.42 22.80L62.42 15.71Q62.42 14.72 61.94 13.92Q61.46 13.12 60.66 12.64Q59.86 12.16 58.87 12.16L58.87 12.16Q57.90 12.16 57.09 12.64Q56.28 13.12 55.80 13.92Q55.32 14.72 55.32 15.71L55.32 15.71L55.32 22.80L53.64 22.80L53.64 10.80L55.32 10.80L55.32 12.46Q55.96 11.54 56.98 11.00Q58.00 10.46 59.20 10.46L59.20 10.46Q60.55 10.46 61.67 11.12Q62.78 11.78 63.44 12.90Q64.10 14.02 64.10 15.37ZM66.50 22.80L66.50 10.80L68.18 10.80L68.18 22.80L66.50 22.80ZM67.36 8.70L67.36 8.70Q66.95 8.70 66.67 8.43Q66.38 8.16 66.38 7.75L66.38 7.75Q66.38 7.34 66.67 7.07Q66.95 6.80 67.36 6.80L67.36 6.80Q67.75 6.80 68.03 7.07Q68.32 7.34 68.32 7.75L68.32 7.75Q68.32 8.16 68.04 8.43Q67.76 8.70 67.36 8.70ZM74.69 23.03L74.69 23.03Q73.70 23.00 72.77 22.67Q71.83 22.33 71.14 21.76Q70.44 21.18 70.14 20.45L70.14 20.45L71.59 19.82Q71.78 20.29 72.31 20.68Q72.83 21.07 73.50 21.31Q74.17 21.54 74.83 21.54L74.83 21.54Q75.56 21.54 76.20 21.30Q76.84 21.06 77.24 20.61Q77.64 20.16 77.64 19.55L77.64 19.55Q77.64 18.89 77.21 18.51Q76.78 18.13 76.12 17.91Q75.46 17.69 74.76 17.48L74.76 17.48Q73.49 17.14 72.52 16.72Q71.54 16.30 71.00 15.64Q70.45 14.99 70.45 13.96L70.45 13.96Q70.45 12.86 71.07 12.07Q71.69 11.27 72.69 10.83Q73.69 10.39 74.83 10.39L74.83 10.39Q76.30 10.39 77.50 11.03Q78.71 11.66 79.25 12.72L79.25 12.72L77.89 13.52Q77.68 13.03 77.21 12.67Q76.74 12.31 76.15 12.11Q75.55 11.90 74.94 11.89L74.94 11.89Q74.17 11.88 73.51 12.11Q72.85 12.35 72.45 12.80Q72.05 13.26 72.05 13.92L72.05 13.92Q72.05 14.58 72.44 14.92Q72.84 15.26 73.52 15.47Q74.20 15.68 75.05 15.96L75.05 15.96Q76.14 16.31 77.10 16.75Q78.06 17.20 78.65 17.86Q79.24 18.52 79.22 19.52L79.22 19.52Q79.22 20.60 78.58 21.41Q77.93 22.21 76.90 22.64Q75.86 23.06 74.69 23.03ZM87.42 10.80L87.42 12.48L84.55 12.48L84.54 22.80L82.86 22.80L82.87 12.48L80.70 12.48L80.70 10.80L82.87 10.80L82.86 7.03L84.54 7.03L84.55 10.80L87.42 10.80ZM103.78 22.80L102.10 22.80L102.10 18.08L94.85 18.08L94.85 16.38L101.66 6L103.78 6L103.78 16.40L105.54 16.40L105.54 18.08L103.78 18.08L103.78 22.80ZM102.06 8.40L96.84 16.38L102.10 16.40L102.06 8.40ZM113.42 23.11L113.42 23.11Q111.91 23.11 110.72 22.43Q109.54 21.76 108.70 20.56Q107.86 19.36 107.42 17.78Q106.98 16.20 106.98 14.40L106.98 14.40Q106.98 12.60 107.42 11.02Q107.86 9.43 108.70 8.24Q109.54 7.04 110.72 6.37Q111.91 5.69 113.42 5.69L113.42 5.69Q114.92 5.69 116.11 6.37Q117.30 7.04 118.13 8.24Q118.96 9.43 119.39 11.02Q119.83 12.60 119.83 14.40L119.83 14.40Q119.83 16.20 119.39 17.78Q118.96 19.36 118.13 20.56Q117.30 21.76 116.11 22.43Q114.92 23.11 113.42 23.11ZM113.42 21.43L113.42 21.43Q115.01 21.43 116.08 20.46Q117.16 19.49 117.70 17.89Q118.24 16.28 118.24 14.40L118.24 14.40Q118.24 12.41 117.68 10.82Q117.12 9.23 116.05 8.30Q114.97 7.37 113.42 7.37L113.42 7.37Q112.20 7.37 111.29 7.93Q110.38 8.50 109.78 9.48Q109.18 10.46 108.88 11.73Q108.58 13.00 108.58 14.40L108.58 14.40Q108.58 16.30 109.13 17.90Q109.68 19.50 110.76 20.47Q111.84 21.43 113.42 21.43ZM127.48 23.11L127.48 23.11Q125.96 23.11 124.78 22.43Q123.59 21.76 122.75 20.56Q121.91 19.36 121.47 17.78Q121.03 16.20 121.03 14.40L121.03 14.40Q121.03 12.60 121.47 11.02Q121.91 9.43 122.75 8.24Q123.59 7.04 124.78 6.37Q125.96 5.69 127.48 5.69L127.48 5.69Q128.98 5.69 130.16 6.37Q131.35 7.04 132.18 8.24Q133.01 9.43 133.45 11.02Q133.88 12.60 133.88 14.40L133.88 14.40Q133.88 16.20 133.45 17.78Q133.01 19.36 132.18 20.56Q131.35 21.76 130.16 22.43Q128.98 23.11 127.48 23.11ZM127.48 21.43L127.48 21.43Q129.06 21.43 130.13 20.46Q131.21 19.49 131.75 17.89Q132.29 16.28 132.29 14.40L132.29 14.40Q132.29 12.41 131.73 10.82Q131.17 9.23 130.10 8.30Q129.02 7.37 127.48 7.37L127.48 7.37Q126.25 7.37 125.34 7.93Q124.43 8.50 123.83 9.48Q123.23 10.46 122.93 11.73Q122.63 13.00 122.63 14.40L122.63 14.40Q122.63 16.30 123.18 17.90Q123.73 19.50 124.81 20.47Q125.89 21.43 127.48 21.43ZM152.27 15.37L152.27 15.37L152.27 22.80L150.59 22.80L150.59 15.71Q150.59 14.72 150.11 13.92Q149.63 13.12 148.82 12.64Q148.02 12.16 147.04 12.16L147.04 12.16Q146.06 12.16 145.25 12.64Q144.44 13.12 143.96 13.92Q143.48 14.72 143.48 15.71L143.48 15.71L143.48 22.80L141.80 22.80L141.80 10.80L143.48 10.80L143.48 12.46Q144.12 11.54 145.14 11.00Q146.16 10.46 147.36 10.46L147.36 10.46Q148.72 10.46 149.83 11.12Q150.95 11.78 151.61 12.90Q152.27 14.02 152.27 15.37ZM159.71 23.11L159.71 23.11Q158.05 23.11 156.69 22.26Q155.33 21.41 154.52 19.97Q153.71 18.54 153.71 16.80L153.71 16.80Q153.71 15.48 154.18 14.33Q154.64 13.19 155.47 12.32Q156.29 11.45 157.38 10.96Q158.47 10.46 159.71 10.46L159.71 10.46Q161.36 10.46 162.73 11.32Q164.09 12.17 164.90 13.61Q165.71 15.05 165.71 16.80L165.71 16.80Q165.71 18.11 165.24 19.25Q164.77 20.39 163.95 21.26Q163.13 22.13 162.04 22.62Q160.96 23.11 159.71 23.11ZM159.71 21.43L159.71 21.43Q160.93 21.43 161.91 20.79Q162.89 20.15 163.46 19.09Q164.03 18.04 164.03 16.80L164.03 16.80Q164.03 15.54 163.45 14.48Q162.88 13.42 161.90 12.78Q160.92 12.14 159.71 12.14L159.71 12.14Q158.48 12.14 157.51 12.79Q156.53 13.43 155.96 14.48Q155.39 15.54 155.39 16.80L155.39 16.80Q155.39 18.10 155.98 19.15Q156.56 20.20 157.55 20.81Q158.53 21.43 159.71 21.43ZM169.43 22.80L167.75 22.80L167.75 10.80L169.43 10.80L169.43 12.46Q170.06 11.54 171.08 11.00Q172.10 10.46 173.30 10.46L173.30 10.46Q174.00 10.46 174.65 10.64L174.65 10.64L173.96 12.31Q173.46 12.16 172.98 12.16L172.98 12.16Q172.01 12.16 171.20 12.64Q170.39 13.12 169.91 13.92Q169.43 14.72 169.43 15.71L169.43 15.71L169.43 22.80ZM177.89 22.80L176.21 22.80L176.21 10.80L177.89 10.80L177.89 12.46Q178.54 11.54 179.54 11.00Q180.55 10.46 181.75 10.46L181.75 10.46Q183.11 10.46 184.24 11.13Q185.36 11.80 186.00 12.90L186.00 12.90Q186.64 11.80 187.75 11.13Q188.87 10.46 190.22 10.46L190.22 10.46Q191.58 10.46 192.70 11.12Q193.81 11.78 194.47 12.90Q195.13 14.02 195.13 15.37L195.13 15.37L195.13 22.80L193.45 22.80L193.45 15.74Q193.45 14.78 192.98 13.97Q192.52 13.15 191.73 12.65Q190.94 12.16 189.98 12.16L189.98 12.16Q189.02 12.16 188.24 12.62Q187.45 13.08 186.98 13.89Q186.52 14.70 186.52 15.74L186.52 15.74L186.52 22.80L184.84 22.80L184.84 15.74Q184.84 14.70 184.37 13.89Q183.90 13.08 183.11 12.62Q182.32 12.16 181.36 12.16L181.36 12.16Q180.41 12.16 179.62 12.65Q178.82 13.15 178.36 13.97Q177.89 14.78 177.89 15.74L177.89 15.74L177.89 22.80ZM207.22 13.04L207.16 10.80L208.84 10.80L208.84 22.80L207.16 22.80L207.10 20.57Q206.51 21.71 205.45 22.41Q204.40 23.11 202.93 23.11L202.93 23.11Q201.61 23.11 200.46 22.61Q199.31 22.12 198.43 21.24Q197.56 20.36 197.06 19.21Q196.57 18.06 196.57 16.74L196.57 16.74Q196.57 15.44 197.06 14.30Q197.54 13.16 198.40 12.30Q199.26 11.44 200.39 10.95Q201.53 10.46 202.82 10.46L202.82 10.46Q204.32 10.46 205.44 11.18Q206.56 11.89 207.22 13.04L207.22 13.04ZM202.90 21.48L202.90 21.48Q204.18 21.48 205.10 20.85Q206.03 20.22 206.53 19.15Q207.02 18.08 207.02 16.80L207.02 16.80Q207.02 15.48 206.52 14.42Q206.02 13.36 205.09 12.73Q204.17 12.11 202.90 12.11L202.90 12.11Q201.62 12.11 200.57 12.74Q199.52 13.37 198.91 14.44Q198.29 15.50 198.29 16.80L198.29 16.80Q198.29 18.11 198.92 19.17Q199.56 20.23 200.61 20.86Q201.66 21.48 202.90 21.48ZM213.07 22.80L211.39 22.80L211.39 4.80L213.07 4.80L213.07 22.80Z"/></svg>