<svg xmlns="http://www.w3.org/2000/svg" xmlns:xlink="http://www.w3.org/1999/xlink" width="219.35999999999993" height="28.8"><path fill="black" d="M8.09 23.11L8.09 23.11Q6.07 23.11 4.58 22.13Q3.08 21.14 2.26 19.48Q1.44 17.82 1.44 15.79L1.44 15.79L1.44 6L3.94 6L3.94 15.79Q3.94 17.11 4.42 18.21Q4.91 19.31 5.84 19.96Q6.77 20.62 8.09 20.62L8.09 20.62Q9.44 20.62 10.37 19.96Q11.29 19.31 11.77 18.21Q12.24 17.11 12.24 15.79L12.24 15.79L12.24 6L14.74 6L14.74 15.79Q14.74 17.32 14.27 18.64Q13.80 19.97 12.92 20.98Q12.05 21.98 10.82 22.55Q9.60 23.11 8.09 23.11ZM19.82 22.80L17.33 22.80L17.33 10.80L19.82 10.80L19.82 12.07Q20.45 11.33 21.36 10.90Q22.27 10.46 23.33 10.46L23.33 10.46Q24 10.46 24.66 10.64L24.66 10.64L23.66 13.16Q23.20 12.98 22.73 12.98L22.73 12.98Q21.94 12.98 21.28 13.37Q20.62 13.76 20.22 14.42Q19.82 15.08 19.82 15.89L19.82 15.89L19.82 22.80ZM32.27 10.46L32.27 10.46Q34.02 10.46 35.45 11.32Q36.89 12.17 37.74 13.60Q38.59 15.04 38.59 16.79L38.59 16.79Q38.59 18.10 38.10 19.24Q37.61 20.39 36.74 21.26Q35.87 22.13 34.72 22.62Q33.58 23.11 32.27 23.11L32.27 23.11Q31.01 23.11 30.07 22.53Q29.12 21.95 28.52 21.04L28.52 21.04L28.52 22.80L26.03 22.80L26.03 4.80L28.52 4.80L28.52 12.54Q29.12 11.62 30.07 11.04Q31.01 10.46 32.27 10.46ZM32.24 20.69L32.24 20.69Q33.29 20.69 34.15 20.16Q35.02 19.63 35.53 18.74Q36.04 17.86 36.04 16.79L36.04 16.79Q36.04 15.70 35.52 14.81Q35.00 13.92 34.14 13.40Q33.28 12.88 32.24 12.88L32.24 12.88Q31.20 12.88 30.41 13.40Q29.62 13.93 29.17 14.82Q28.73 15.71 28.73 16.79L28.73 16.79Q28.73 17.87 29.17 18.76Q29.62 19.64 30.41 20.17Q31.20 20.69 32.24 20.69ZM49.96 12.58L49.85 10.80L52.34 10.80L52.34 22.80L49.84 22.80L49.74 21.06Q49.21 21.98 48.31 22.55Q47.41 23.11 46.19 23.11L46.19 23.11Q44.87 23.11 43.70 22.61Q42.54 22.12 41.66 21.23Q40.78 20.34 40.28 19.18Q39.79 18.02 39.79 16.69L39.79 16.69Q39.79 15.41 40.27 14.27Q40.75 13.14 41.60 12.29Q42.46 11.44 43.58 10.95Q44.70 10.46 45.98 10.46L45.98 10.46Q47.29 10.46 48.29 11.06Q49.30 11.65 49.96 12.58L49.96 12.58ZM46.13 20.70L46.13 20.70Q47.18 20.70 47.98 20.18Q48.77 19.66 49.21 18.77Q49.64 17.88 49.64 16.80L49.64 16.80Q49.64 15.71 49.20 14.82Q48.76 13.93 47.97 13.41Q47.18 12.89 46.13 12.89L46.13 12.89Q45.08 12.89 44.22 13.42Q43.36 13.94 42.85 14.83Q42.35 15.72 42.35 16.80L42.35 16.80Q42.35 17.89 42.87 18.77Q43.39 19.66 44.25 20.18Q45.11 20.70 46.13 20.70ZM65.54 15.28L65.54 15.28L65.54 22.80L63.05 22.80L63.05 15.89Q63.05 15.08 62.66 14.42Q62.27 13.76 61.61 13.37Q60.96 12.98 60.14 12.98L60.14 12.98Q59.35 12.98 58.69 13.37Q58.03 13.76 57.64 14.42Q57.24 15.08 57.24 15.89L57.24 15.89L57.24 22.80L54.74 22.80L54.74 10.80L57.24 10.80L57.24 12.07Q57.86 11.33 58.78 10.90Q59.69 10.46 60.74 10.46L60.74 10.46Q62.08 10.46 63.17 11.11Q64.26 11.76 64.90 12.85Q65.54 13.94 65.54 15.28ZM67.94 22.80L67.94 10.80L70.44 10.80L70.44 22.80L67.94 22.80ZM69.22 9.06L69.22 9.06Q68.64 9.06 68.26 8.69Q67.87 8.32 67.87 7.75L67.87 7.75Q67.87 7.20 68.26 6.82Q68.64 6.44 69.20 6.44L69.20 6.44Q69.76 6.44 70.14 6.82Q70.52 7.20 70.52 7.75L70.52 7.75Q70.52 8.32 70.15 8.69Q69.77 9.06 69.22 9.06ZM76.76 23.03L76.76 23.03Q75.82 22.97 74.92 22.64Q74.02 22.32 73.34 21.76Q72.66 21.20 72.32 20.45L72.32 20.45L74.45 19.54Q74.60 19.86 74.99 20.17Q75.38 20.48 75.91 20.68Q76.44 20.88 77.02 20.88L77.02 20.88Q77.58 20.88 78.07 20.72Q78.55 20.56 78.86 20.22Q79.18 19.88 79.18 19.42L79.18 19.42Q79.18 18.89 78.82 18.59Q78.47 18.30 77.94 18.14Q77.41 17.99 76.88 17.84L76.88 17.84Q75.71 17.58 74.73 17.12Q73.75 16.66 73.18 15.93Q72.60 15.20 72.60 14.15L72.60 14.15Q72.60 13.00 73.22 12.15Q73.85 11.30 74.86 10.85Q75.88 10.39 77.03 10.39L77.03 10.39Q78.47 10.39 79.67 11.00Q80.87 11.62 81.50 12.68L81.50 12.68L79.52 13.86Q79.34 13.50 78.98 13.21Q78.62 12.92 78.17 12.75Q77.71 12.58 77.22 12.55L77.22 12.55Q76.61 12.53 76.09 12.69Q75.56 12.85 75.25 13.20Q74.94 13.55 74.94 14.09L74.94 14.09Q74.94 14.62 75.31 14.87Q75.68 15.13 76.25 15.29Q76.82 15.44 77.42 15.64L77.42 15.64Q78.49 15.97 79.43 16.46Q80.36 16.94 80.94 17.65Q81.52 18.36 81.49 19.38L81.49 19.38Q81.49 20.51 80.81 21.36Q80.14 22.21 79.06 22.66Q77.98 23.10 76.76 23.03ZM89.88 10.80L89.88 13.30L87.36 13.30L87.35 22.80L84.85 22.80L84.86 13.30L82.96 13.30L82.96 10.80L84.86 10.80L84.85 7.03L87.35 7.03L87.36 10.80L89.88 10.80ZM102.82 23.11L102.82 23.11Q101.21 23.11 99.88 22.31Q98.54 21.52 97.75 20.18Q96.95 18.84 96.95 17.22L96.95 17.22Q96.95 16.36 97.15 15.66Q97.36 14.96 97.78 14.20L97.78 14.20L102.50 6L105.41 6L102.13 11.66Q103.13 11.47 104.08 11.65Q105.04 11.82 105.88 12.31Q106.72 12.79 107.36 13.53Q108.00 14.27 108.36 15.20Q108.72 16.14 108.72 17.22L108.72 17.22Q108.72 18.43 108.26 19.50Q107.80 20.57 106.99 21.38Q106.18 22.19 105.10 22.65Q104.03 23.11 102.82 23.11ZM102.82 20.62L102.82 20.62Q103.80 20.62 104.57 20.14Q105.34 19.66 105.78 18.88Q106.22 18.10 106.22 17.22L106.22 17.22Q106.22 16.30 105.77 15.53Q105.32 14.76 104.56 14.30Q103.79 13.84 102.84 13.84L102.84 13.84Q101.86 13.84 101.09 14.32Q100.32 14.80 99.88 15.56Q99.44 16.33 99.44 17.22L99.44 17.22Q99.44 18.19 99.92 18.96Q100.39 19.73 101.16 20.17Q101.93 20.62 102.82 20.62ZM116.68 23.11L116.68 23.11Q115.19 23.11 113.99 22.43Q112.80 21.76 111.94 20.56Q111.07 19.36 110.62 17.78Q110.16 16.20 110.16 14.40L110.16 14.40Q110.16 12.60 110.62 11.02Q111.07 9.43 111.94 8.24Q112.80 7.04 113.99 6.37Q115.19 5.69 116.68 5.69L116.68 5.69Q118.14 5.69 119.34 6.37Q120.54 7.04 121.39 8.24Q122.23 9.43 122.69 11.02Q123.14 12.60 123.14 14.40L123.14 14.40Q123.14 16.20 122.69 17.78Q122.23 19.36 121.39 20.56Q120.54 21.76 119.34 22.43Q118.14 23.11 116.68 23.11ZM116.68 20.62L116.68 20.62Q118.06 20.62 118.97 19.75Q119.89 18.88 120.35 17.46Q120.80 16.04 120.80 14.40L120.80 14.40Q120.80 12.67 120.33 11.26Q119.86 9.85 118.94 9.02Q118.02 8.18 116.68 8.18L116.68 8.18Q115.61 8.18 114.82 8.69Q114.04 9.19 113.53 10.07Q113.02 10.94 112.76 12.06Q112.50 13.18 112.50 14.40L112.50 14.40Q112.50 16.04 112.97 17.46Q113.44 18.88 114.37 19.75Q115.30 20.62 116.68 20.62ZM130.66 23.11L130.66 23.11Q129.17 23.11 127.97 22.43Q126.78 21.76 125.92 20.56Q125.05 19.36 124.60 17.78Q124.14 16.20 124.14 14.40L124.14 14.40Q124.14 12.60 124.60 11.02Q125.05 9.43 125.92 8.24Q126.78 7.04 127.97 6.37Q129.17 5.69 130.66 5.69L130.66 5.69Q132.12 5.69 133.32 6.37Q134.52 7.04 135.37 8.24Q136.21 9.43 136.67 11.02Q137.12 12.60 137.12 14.40L137.12 14.40Q137.12 16.20 136.67 17.78Q136.21 19.36 135.37 20.56Q134.52 21.76 133.32 22.43Q132.12 23.11 130.66 23.11ZM130.66 20.62L130.66 20.62Q132.04 20.62 132.95 19.75Q133.87 18.88 134.33 17.46Q134.78 16.04 134.78 14.40L134.78 14.40Q134.78 12.67 134.31 11.26Q133.84 9.85 132.92 9.02Q132.00 8.18 130.66 8.18L130.66 8.18Q129.59 8.18 128.80 8.69Q128.02 9.19 127.51 10.07Q127.00 10.94 126.74 12.06Q126.48 13.18 126.48 14.40L126.48 14.40Q126.48 16.04 126.95 17.46Q127.42 18.88 128.35 19.75Q129.28 20.62 130.66 20.62ZM155.84 15.28L155.84 15.28L155.84 22.80L153.35 22.80L153.35 15.89Q153.35 15.08 152.96 14.42Q152.57 13.76 151.91 13.37Q151.26 12.98 150.44 12.98L150.44 12.98Q149.65 12.98 148.99 13.37Q148.33 13.76 147.94 14.42Q147.54 15.08 147.54 15.89L147.54 15.89L147.54 22.80L145.04 22.80L145.04 10.80L147.54 10.80L147.54 12.07Q148.16 11.33 149.08 10.90Q149.99 10.46 151.04 10.46L151.04 10.46Q152.38 10.46 153.47 11.11Q154.56 11.76 155.20 12.85Q155.84 13.94 155.84 15.28ZM163.28 23.11L163.28 23.11Q161.63 23.11 160.27 22.26Q158.90 21.41 158.09 19.97Q157.28 18.54 157.28 16.80L157.28 16.80Q157.28 15.48 157.75 14.33Q158.22 13.19 159.04 12.32Q159.86 11.45 160.96 10.96Q162.05 10.46 163.28 10.46L163.28 10.46Q164.94 10.46 166.30 11.32Q167.66 12.17 168.47 13.61Q169.28 15.05 169.28 16.80L169.28 16.80Q169.28 18.11 168.82 19.25Q168.35 20.39 167.53 21.26Q166.70 22.13 165.62 22.62Q164.53 23.11 163.28 23.11ZM163.28 20.62L163.28 20.62Q164.28 20.62 165.07 20.09Q165.86 19.56 166.33 18.69Q166.79 17.82 166.79 16.80L166.79 16.80Q166.79 15.76 166.31 14.88Q165.84 14.00 165.05 13.48Q164.26 12.96 163.28 12.96L163.28 12.96Q162.30 12.96 161.50 13.49Q160.70 14.02 160.24 14.89Q159.78 15.77 159.78 16.80L159.78 16.80Q159.78 17.87 160.26 18.73Q160.74 19.60 161.54 20.11Q162.34 20.62 163.28 20.62ZM173.72 22.80L171.23 22.80L171.23 10.80L173.72 10.80L173.72 12.07Q174.35 11.33 175.26 10.90Q176.17 10.46 177.23 10.46L177.23 10.46Q177.90 10.46 178.56 10.64L178.56 10.64L177.56 13.16Q177.10 12.98 176.63 12.98L176.63 12.98Q175.84 12.98 175.18 13.37Q174.52 13.76 174.12 14.42Q173.72 15.08 173.72 15.89L173.72 15.89L173.72 22.80ZM182.52 22.80L180.02 22.80L180.02 10.80L182.52 10.80L182.52 12.07Q183.14 11.33 184.05 10.90Q184.96 10.46 186.01 10.46L186.01 10.46Q187.30 10.46 188.38 11.08Q189.46 11.70 190.09 12.72L190.09 12.72Q190.73 11.70 191.79 11.08Q192.85 10.46 194.14 10.46L194.14 10.46Q195.47 10.46 196.56 11.11Q197.65 11.76 198.30 12.85Q198.95 13.94 198.95 15.28L198.95 15.28L198.95 22.80L196.45 22.80L196.45 15.91Q196.45 15.12 196.07 14.46Q195.68 13.80 195.04 13.39Q194.39 12.98 193.60 12.98L193.60 12.98Q192.80 12.98 192.16 13.37Q191.51 13.75 191.12 14.41Q190.74 15.07 190.74 15.91L190.74 15.91L190.74 22.80L188.24 22.80L188.24 15.91Q188.24 15.07 187.86 14.41Q187.48 13.75 186.82 13.37Q186.17 12.98 185.38 12.98L185.38 12.98Q184.60 12.98 183.94 13.39Q183.29 13.80 182.90 14.46Q182.52 15.12 182.52 15.91L182.52 15.91L182.52 22.80ZM210.55 12.58L210.44 10.80L212.94 10.80L212.94 22.80L210.43 22.80L210.34 21.06Q209.81 21.98 208.91 22.55Q208.01 23.11 206.78 23.11L206.78 23.11Q205.46 23.11 204.30 22.61Q203.14 22.12 202.25 21.23Q201.37 20.34 200.88 19.18Q200.39 18.02 200.39 16.69L200.39 16.69Q200.39 15.41 200.87 14.27Q201.35 13.14 202.20 12.29Q203.05 11.44 204.17 10.95Q205.30 10.46 206.58 10.46L206.58 10.46Q207.89 10.46 208.89 11.06Q209.89 11.65 210.55 12.58L210.55 12.58ZM206.72 20.70L206.72 20.70Q207.78 20.70 208.57 20.18Q209.36 19.66 209.80 18.77Q210.24 17.88 210.24 16.80L210.24 16.80Q210.24 15.71 209.80 14.82Q209.35 13.93 208.57 13.41Q207.78 12.89 206.72 12.89L206.72 12.89Q205.68 12.89 204.82 13.42Q203.95 13.94 203.45 14.83Q202.94 15.72 202.94 16.80L202.94 16.80Q202.94 17.89 203.47 18.77Q203.99 19.66 204.85 20.18Q205.70 20.70 206.72 20.70ZM217.92 22.80L215.42 22.80L215.42 4.80L217.92 4.80L217.92 22.80Z"/></svg>