<svg xmlns="http://www.w3.org/2000/svg" xmlns:xlink="http://www.w3.org/1999/xlink" width="289.51199999999994" height="30.240000000000002"><path fill="black" d="M2.59 24.38L2.59 24.38Q1.80 24.38 1.45 23.87Q1.10 23.35 1.27 22.66L1.27 22.66L5.16 7.10Q5.30 6.50 5.64 6.18Q5.98 5.86 6.77 5.86L6.77 5.86Q7.61 5.86 7.88 6.31Q8.16 6.77 7.94 7.73L7.94 7.73L4.13 23.16Q4.03 23.54 3.72 23.96Q3.41 24.38 2.59 24.38ZM10.34 24.38L2.59 24.38L3.17 21.65L10.34 21.65Q11.14 21.65 11.47 22.04Q11.81 22.44 11.81 22.97L11.81 22.97Q11.81 23.57 11.42 23.98Q11.04 24.38 10.34 24.38L10.34 24.38ZM9.96 16.34L3.74 16.34L4.42 13.61L9.96 13.61Q10.70 13.61 11.06 13.99Q11.42 14.38 11.42 14.98L11.42 14.98Q11.42 15.55 11.05 15.95Q10.68 16.34 9.96 16.34L9.96 16.34ZM13.70 8.59L6.10 8.59L6.77 5.86L13.70 5.86Q14.47 5.86 14.82 6.24Q15.17 6.62 15.17 7.22L15.17 7.22Q15.17 7.80 14.81 8.20Q14.45 8.59 13.70 8.59L13.70 8.59ZM21.67 24.38L21.67 24.38Q20.93 24.38 20.35 24.01Q19.78 23.64 19.60 22.70Q19.42 21.77 19.85 20.09L19.85 20.09L23.14 6.96Q23.28 6.36 23.64 6.11Q24 5.86 24.65 5.86L24.65 5.86Q25.34 5.86 25.63 6.24Q25.92 6.62 25.73 7.39L25.73 7.39L22.42 20.69Q22.32 21 22.27 21.46Q22.22 21.91 22.39 21.91L22.39 21.91Q22.51 21.91 22.91 21.41Q23.30 20.90 23.59 20.35L23.59 20.35Q23.86 19.80 24.19 19.51Q24.53 19.22 24.98 19.22L24.98 19.22Q25.44 19.22 25.70 19.54Q25.97 19.85 25.97 20.30L25.97 20.30Q25.97 20.66 25.85 21.06Q25.73 21.46 25.34 21.94L25.34 21.94Q24.41 23.16 23.46 23.77Q22.51 24.38 21.67 24.38ZM17.28 24.38L17.28 24.38Q15.58 24.38 14.89 22.98Q14.21 21.58 14.81 19.13L14.81 19.13Q15.19 17.59 15.95 16.48Q16.70 15.36 17.71 14.76Q18.72 14.16 19.82 14.16L19.82 14.16Q20.81 14.16 21.16 14.80Q21.50 15.43 21.38 16.57Q21.26 17.71 20.86 19.25L20.86 19.25Q20.45 20.74 19.98 21.90Q19.51 23.06 18.88 23.72Q18.24 24.38 17.28 24.38ZM17.88 21.82L17.88 21.82Q18.58 21.82 19.20 20.98Q19.82 20.14 20.18 18.67L20.18 18.67Q20.42 17.76 20.30 17.23Q20.18 16.70 19.75 16.70L19.75 16.70Q19.03 16.70 18.41 17.51Q17.78 18.31 17.45 19.70L17.45 19.70Q17.21 20.69 17.32 21.25Q17.42 21.82 17.88 21.82ZM29.23 24.38L29.23 24.38Q28.78 24.38 28.37 24.24Q27.96 24.10 27.73 23.60Q27.50 23.11 27.54 22.12Q27.58 21.12 28.01 19.39L28.01 19.39L28.99 15.53Q29.14 14.90 29.40 14.56Q29.66 14.21 30.41 14.21L30.41 14.21Q31.25 14.21 31.48 14.69Q31.70 15.17 31.51 15.94L31.51 15.94L30.55 19.87Q30.50 20.14 30.42 20.58Q30.34 21.02 30.37 21.38Q30.41 21.74 30.65 21.74L30.65 21.74Q30.89 21.74 31.24 21.43Q31.58 21.12 31.99 20.56Q32.40 19.99 32.80 19.26Q33.19 18.53 33.55 17.70Q33.91 16.87 34.18 16.03L34.18 16.03L34.20 20.33Q33.55 21.46 32.69 22.38Q31.82 23.30 30.92 23.84Q30.02 24.38 29.23 24.38ZM33.48 24.38L33.48 24.38Q32.81 24.38 32.54 23.95Q32.28 23.52 32.47 22.73L32.47 22.73L34.30 15.53Q34.44 14.90 34.74 14.56Q35.04 14.21 35.81 14.21L35.81 14.21Q36.58 14.21 36.85 14.70Q37.13 15.19 36.91 16.03L36.91 16.03L35.11 23.16Q34.94 23.86 34.56 24.12Q34.18 24.38 33.48 24.38ZM50.98 24.38L50.98 24.38Q50.23 24.38 49.85 23.82Q49.46 23.26 49.63 22.58L49.63 22.58L53.47 7.25L56.45 7.25L52.46 23.16Q52.37 23.54 52.03 23.96Q51.70 24.38 50.98 24.38ZM59.54 8.59L50.30 8.59Q49.39 8.59 49.13 8.16Q48.86 7.73 48.86 7.25L48.86 7.25Q48.86 6.72 49.14 6.29Q49.42 5.86 50.30 5.86L50.30 5.86L59.54 5.86Q60.46 5.86 60.73 6.29Q61.01 6.72 61.01 7.25L61.01 7.25Q61.01 7.73 60.73 8.16Q60.46 8.59 59.54 8.59L59.54 8.59ZM58.51 24.38L58.51 24.38Q58.06 24.38 57.66 24.17Q57.26 23.95 57.14 23.50Q57.02 23.04 57.46 22.32L57.46 22.32L67.01 6.82Q67.30 6.36 67.57 6.11Q67.85 5.86 68.52 5.86L68.52 5.86Q69.22 5.86 69.56 6.28Q69.91 6.70 69.91 7.13L69.91 7.13L70.10 22.99Q70.10 23.62 69.79 24Q69.48 24.38 68.69 24.38L68.69 24.38Q68.02 24.38 67.72 24.18Q67.42 23.98 67.33 23.66Q67.25 23.35 67.25 23.06L67.25 23.06L67.10 9.26L68.57 9.67L60.10 23.42Q59.74 24.02 59.44 24.20Q59.14 24.38 58.51 24.38ZM68.71 17.57L62.26 17.57L63.79 14.83L68.64 14.83L68.71 17.57ZM77.93 24.38L77.93 24.38Q75.89 24.38 74.51 23.08Q73.13 21.77 72.86 19.39L72.86 19.39Q72.74 18.02 74.21 17.95L74.21 17.95Q74.95 17.90 75.32 18.23Q75.70 18.55 75.74 19.13L75.74 19.13Q75.86 20.23 76.44 20.93Q77.02 21.62 78 21.62L78 21.62Q79.08 21.62 79.84 20.88Q80.59 20.14 80.88 18.94L80.88 18.94Q81.14 17.69 80.70 17.02Q80.26 16.34 78.98 16.01L78.98 16.01Q76.46 15.34 75.55 14.00Q74.64 12.67 75.10 10.78L75.10 10.78Q75.43 9.36 76.42 8.26Q77.40 7.15 78.76 6.50Q80.11 5.86 81.53 5.86L81.53 5.86Q83.09 5.86 84.14 6.80Q85.20 7.75 85.78 9.77L85.78 9.77Q85.90 10.18 85.66 10.76Q85.42 11.35 84.67 11.47L84.67 11.47Q84.14 11.57 83.65 11.33Q83.16 11.09 83.02 10.56L83.02 10.56Q82.73 9.70 82.38 9.16Q82.03 8.62 81.38 8.62L81.38 8.62Q80.64 8.62 79.90 9Q79.15 9.38 78.61 10.02Q78.07 10.66 77.88 11.47L77.88 11.47Q77.71 12.07 78.19 12.50Q78.67 12.94 79.66 13.18L79.66 13.18Q82.44 13.92 83.35 15.41Q84.26 16.90 83.69 19.51L83.69 19.51Q83.35 21.02 82.52 22.12Q81.70 23.21 80.51 23.80Q79.32 24.38 77.93 24.38ZM97.73 15.19L97.73 15.19L98.14 13.34Q100.30 13.44 101.75 12.96Q103.20 12.48 103.49 11.33L103.49 11.33Q103.73 10.37 103.26 9.77Q102.79 9.17 101.84 8.88Q100.90 8.59 99.67 8.59L99.67 8.59L99.53 5.86Q102.26 5.86 103.90 6.61Q105.53 7.37 106.13 8.71Q106.73 10.06 106.30 11.83L106.30 11.83Q105.82 13.80 103.78 14.62Q101.74 15.43 97.73 15.19ZM95.33 24.38L95.33 24.38L96.17 21.67Q97.94 21.67 99.34 21.46Q100.73 21.24 101.60 20.74Q102.48 20.23 102.70 19.37L102.70 19.37Q102.96 18.26 102.34 17.52Q101.71 16.78 100.50 16.37Q99.29 15.96 97.75 15.84L97.75 15.84L98.14 13.92Q102.53 14.33 104.34 15.82Q106.15 17.30 105.46 20.02L105.46 20.02Q104.93 22.06 102.48 23.22Q100.03 24.38 95.33 24.38ZM95.33 24.38L95.33 24.38Q94.66 24.38 94.27 23.84Q93.89 23.30 94.06 22.56L94.06 22.56L97.90 7.08Q98.09 6.34 98.47 6.07Q98.86 5.81 99.53 5.86L99.53 5.86Q100.32 5.95 100.66 6.32Q100.99 6.70 100.73 7.68L100.73 7.68L96.86 23.06Q96.65 23.93 96.25 24.16Q95.86 24.38 95.33 24.38ZM110.16 24.38L110.16 24.38Q109.20 24.38 108.47 23.84Q107.74 23.30 107.48 22.18Q107.23 21.05 107.66 19.27L107.66 19.27Q108.05 17.74 108.79 16.58Q109.54 15.43 110.52 14.80Q111.50 14.16 112.61 14.16L112.61 14.16Q113.71 14.16 114.41 14.81Q115.10 15.46 115.10 16.32L115.10 16.32Q115.10 17.16 114.34 18.07Q113.57 18.98 112.19 19.79Q110.81 20.59 108.91 21.17L108.91 21.17L109.22 19.18Q109.92 19.01 110.65 18.62Q111.38 18.24 111.90 17.77Q112.42 17.30 112.42 16.90L112.42 16.90Q112.42 16.80 112.38 16.75Q112.34 16.70 112.25 16.70L112.25 16.70Q111.82 16.70 111.44 17.17Q111.07 17.64 110.78 18.36Q110.50 19.08 110.30 19.85L110.30 19.85Q110.06 20.71 110.12 21.26Q110.18 21.82 110.62 21.82L110.62 21.82Q111.17 21.82 111.94 21.26Q112.70 20.71 113.64 19.63L113.64 19.63Q113.98 19.22 114.54 19.15Q115.10 19.08 115.58 19.44L115.58 19.44Q115.97 19.75 116.04 20.28Q116.11 20.81 115.70 21.34L115.70 21.34Q114.38 22.85 112.99 23.62Q111.60 24.38 110.16 24.38ZM120.02 24.38L120.02 24.38Q118.32 24.38 117.64 22.98Q116.95 21.58 117.55 19.13L117.55 19.13Q117.94 17.59 118.69 16.48Q119.45 15.36 120.46 14.76Q121.46 14.16 122.57 14.16L122.57 14.16Q123.55 14.16 123.90 14.80Q124.25 15.43 124.13 16.57Q124.01 17.71 123.60 19.25L123.60 19.25Q123.19 20.74 122.72 21.90Q122.26 23.06 121.62 23.72Q120.98 24.38 120.02 24.38ZM120.62 21.82L120.62 21.82Q121.32 21.82 121.94 20.98Q122.57 20.14 122.93 18.67L122.93 18.67Q123.17 17.76 123.05 17.23Q122.93 16.70 122.50 16.70L122.50 16.70Q121.78 16.70 121.15 17.51Q120.53 18.31 120.19 19.70L120.19 19.70Q119.95 20.69 120.06 21.25Q120.17 21.82 120.62 21.82ZM119.57 32.93L119.57 32.93Q118.46 32.93 117.54 32.34Q116.62 31.75 115.94 30.50L115.94 30.50Q115.70 30.05 115.81 29.62Q115.92 29.18 116.26 28.88Q116.59 28.58 117.02 28.51L117.02 28.51Q117.58 28.44 117.95 28.63Q118.32 28.82 118.49 29.11L118.49 29.11Q118.75 29.57 119.04 29.88Q119.33 30.19 119.59 30.19L119.59 30.19Q119.93 30.19 120.10 29.86Q120.26 29.52 120.36 29.06L120.36 29.06L123.79 15.26Q123.91 14.83 124.22 14.50Q124.54 14.16 125.35 14.16L125.35 14.16Q126.14 14.16 126.34 14.65Q126.53 15.14 126.41 15.70L126.41 15.70L123.00 29.54Q122.57 31.30 121.74 32.11Q120.91 32.93 119.57 32.93ZM128.38 24.38L128.38 24.38Q127.61 24.38 127.33 23.88Q127.06 23.38 127.27 22.56L127.27 22.56L129.05 15.43Q129.22 14.74 129.60 14.47Q129.98 14.21 130.66 14.21L130.66 14.21Q131.35 14.21 131.62 14.64Q131.88 15.07 131.69 15.86L131.69 15.86L129.89 23.06Q129.74 23.66 129.44 24.02Q129.14 24.38 128.38 24.38ZM131.42 13.18L131.42 13.18Q130.82 13.18 130.40 12.72Q129.98 12.26 129.98 11.74L129.98 11.74Q129.98 11.18 130.38 10.74Q130.78 10.30 131.42 10.30L131.42 10.30Q132 10.30 132.46 10.70Q132.91 11.11 132.91 11.74L132.91 11.74Q132.91 12.26 132.48 12.72Q132.05 13.18 131.42 13.18ZM139.10 24.38L139.10 24.38Q138.29 24.38 138.05 23.89Q137.81 23.40 138 22.66L138 22.66L138.96 18.65Q139.03 18.38 139.10 17.95Q139.18 17.52 139.15 17.16Q139.13 16.80 138.86 16.80L138.86 16.80Q138.62 16.80 138.28 17.12Q137.93 17.45 137.52 18.01Q137.11 18.58 136.72 19.31Q136.32 20.04 135.96 20.88Q135.60 21.72 135.34 22.56L135.34 22.56L135.31 18.19Q135.98 17.06 136.84 16.15Q137.69 15.24 138.59 14.70Q139.49 14.16 140.28 14.16L140.28 14.16Q140.74 14.16 141.14 14.30Q141.55 14.45 141.78 14.93Q142.01 15.41 141.97 16.40Q141.94 17.40 141.50 19.13L141.50 19.13L140.52 23.06Q140.38 23.66 140.11 24.02Q139.85 24.38 139.10 24.38ZM133.70 24.38L133.70 24.38Q132.96 24.38 132.67 23.88Q132.38 23.38 132.60 22.56L132.60 22.56L134.38 15.43Q134.54 14.74 134.93 14.47Q135.31 14.21 135.98 14.21L135.98 14.21Q136.68 14.21 136.94 14.64Q137.21 15.07 137.02 15.86L137.02 15.86L135.22 23.06Q135.07 23.66 134.77 24.02Q134.47 24.38 133.70 24.38ZM149.45 24.38L149.45 24.38Q148.63 24.38 148.39 23.89Q148.15 23.40 148.34 22.66L148.34 22.66L149.30 18.65Q149.38 18.38 149.45 17.95Q149.52 17.52 149.50 17.16Q149.47 16.80 149.21 16.80L149.21 16.80Q148.97 16.80 148.62 17.12Q148.27 17.45 147.86 18.01Q147.46 18.58 147.06 19.31Q146.66 20.04 146.30 20.88Q145.94 21.72 145.68 22.56L145.68 22.56L145.66 18.19Q146.33 17.06 147.18 16.15Q148.03 15.24 148.93 14.70Q149.83 14.16 150.62 14.16L150.62 14.16Q151.08 14.16 151.49 14.30Q151.90 14.45 152.12 14.93Q152.35 15.41 152.32 16.40Q152.28 17.40 151.85 19.13L151.85 19.13L150.86 23.06Q150.72 23.66 150.46 24.02Q150.19 24.38 149.45 24.38ZM144.05 24.38L144.05 24.38Q143.30 24.38 143.02 23.88Q142.73 23.38 142.94 22.56L142.94 22.56L144.72 15.43Q144.89 14.74 145.27 14.47Q145.66 14.21 146.33 14.21L146.33 14.21Q147.02 14.21 147.29 14.64Q147.55 15.07 147.36 15.86L147.36 15.86L145.56 23.06Q145.42 23.66 145.12 24.02Q144.82 24.38 144.05 24.38ZM156.34 24.38L156.34 24.38Q155.38 24.38 154.64 23.84Q153.91 23.30 153.66 22.18Q153.41 21.05 153.84 19.27L153.84 19.27Q154.22 17.74 154.97 16.58Q155.71 15.43 156.70 14.80Q157.68 14.16 158.78 14.16L158.78 14.16Q159.89 14.16 160.58 14.81Q161.28 15.46 161.28 16.32L161.28 16.32Q161.28 17.16 160.51 18.07Q159.74 18.98 158.36 19.79Q156.98 20.59 155.09 21.17L155.09 21.17L155.40 19.18Q156.10 19.01 156.83 18.62Q157.56 18.24 158.08 17.77Q158.59 17.30 158.59 16.90L158.59 16.90Q158.59 16.80 158.56 16.75Q158.52 16.70 158.42 16.70L158.42 16.70Q157.99 16.70 157.62 17.17Q157.25 17.64 156.96 18.36Q156.67 19.08 156.48 19.85L156.48 19.85Q156.24 20.71 156.30 21.26Q156.36 21.82 156.79 21.82L156.79 21.82Q157.34 21.82 158.11 21.26Q158.88 20.71 159.82 19.63L159.82 19.63Q160.15 19.22 160.72 19.15Q161.28 19.08 161.76 19.44L161.76 19.44Q162.14 19.75 162.22 20.28Q162.29 20.81 161.88 21.34L161.88 21.34Q160.56 22.85 159.17 23.62Q157.78 24.38 156.34 24.38ZM164.33 24.38L164.33 24.38Q163.46 24.38 163.24 23.88Q163.01 23.38 163.18 22.58L163.18 22.58L164.95 15.34Q165.10 14.71 165.50 14.46Q165.91 14.21 166.51 14.21L166.51 14.21Q167.21 14.21 167.53 14.64Q167.86 15.07 167.69 15.77L167.69 15.77L165.84 23.02Q165.67 23.66 165.41 24.02Q165.14 24.38 164.33 24.38ZM165.84 22.92L165.84 22.92L166.15 18.05Q166.82 16.87 167.54 16.01Q168.26 15.14 169.00 14.65Q169.73 14.16 170.45 14.16L170.45 14.16Q172.10 14.16 172.68 16.37L172.68 16.37Q172.80 16.85 172.55 17.24Q172.30 17.64 171.65 17.83L171.65 17.83Q171 17.98 170.54 17.72Q170.09 17.47 169.94 16.90L169.94 16.90Q169.82 16.56 169.63 16.56L169.63 16.56Q169.37 16.56 168.98 16.93Q168.60 17.30 168.16 17.95Q167.71 18.60 167.28 19.42Q166.85 20.23 166.46 21.13Q166.08 22.03 165.84 22.92ZM183.89 24.38L183.89 24.38Q183.48 24.38 183.10 24.17Q182.71 23.95 182.65 23.41Q182.59 22.87 183.14 21.91L183.14 21.91L191.42 7.39L192.22 8.71L185.98 8.71Q185.18 8.71 184.85 8.28Q184.51 7.85 184.51 7.37L184.51 7.37Q184.51 6.91 184.84 6.47Q185.16 6.02 185.98 6.02L185.98 6.02L192.86 6.02Q193.51 6.02 193.96 6.20Q194.40 6.38 194.47 6.86Q194.54 7.34 194.02 8.28L194.02 8.28L185.52 23.16Q185.16 23.83 184.79 24.11Q184.42 24.38 183.89 24.38ZM198.38 24.38L198.38 24.38Q197.16 24.38 196.26 23.58Q195.36 22.78 194.96 21.05Q194.57 19.32 194.88 16.56L194.88 16.56Q195.31 13.10 196.36 10.72Q197.40 8.33 198.89 7.09Q200.38 5.86 202.10 5.86L202.10 5.86Q203.57 5.86 204.56 6.73Q205.56 7.61 205.85 9.52Q206.14 11.42 205.46 14.54L205.46 14.54Q204.77 17.74 203.65 19.93Q202.54 22.13 201.18 23.26Q199.82 24.38 198.38 24.38ZM198.43 21.62L198.43 21.62Q199.32 21.62 200.09 20.65Q200.86 19.68 201.48 18.01Q202.10 16.34 202.56 14.28L202.56 14.28Q202.70 13.63 202.82 12.67Q202.94 11.71 202.96 10.79Q202.97 9.86 202.75 9.24Q202.54 8.62 201.96 8.62L201.96 8.62Q200.86 8.62 200.02 9.66Q199.18 10.70 198.64 12.49Q198.10 14.28 197.83 16.51L197.83 16.51Q197.76 17.11 197.69 17.98Q197.62 18.84 197.63 19.68Q197.64 20.52 197.82 21.07Q198.00 21.62 198.43 21.62ZM211.25 24.38L211.25 24.38Q210.02 24.38 209.12 23.58Q208.22 22.78 207.83 21.05Q207.43 19.32 207.74 16.56L207.74 16.56Q208.18 13.10 209.22 10.72Q210.26 8.33 211.75 7.09Q213.24 5.86 214.97 5.86L214.97 5.86Q216.43 5.86 217.43 6.73Q218.42 7.61 218.71 9.52Q219.00 11.42 218.33 14.54L218.33 14.54Q217.63 17.74 216.52 19.93Q215.40 22.13 214.04 23.26Q212.69 24.38 211.25 24.38ZM211.30 21.62L211.30 21.62Q212.18 21.62 212.95 20.65Q213.72 19.68 214.34 18.01Q214.97 16.34 215.42 14.28L215.42 14.28Q215.57 13.63 215.69 12.67Q215.81 11.71 215.82 10.79Q215.83 9.86 215.62 9.24Q215.40 8.62 214.82 8.62L214.82 8.62Q213.72 8.62 212.88 9.66Q212.04 10.70 211.50 12.49Q210.96 14.28 210.70 16.51L210.70 16.51Q210.62 17.11 210.55 17.98Q210.48 18.84 210.49 19.68Q210.50 20.52 210.68 21.07Q210.86 21.62 211.30 21.62ZM233.40 24.38L233.40 24.38Q232.58 24.38 232.34 23.89Q232.10 23.40 232.30 22.66L232.30 22.66L233.26 18.65Q233.33 18.38 233.40 17.95Q233.47 17.52 233.45 17.16Q233.42 16.80 233.16 16.80L233.16 16.80Q232.92 16.80 232.57 17.12Q232.22 17.45 231.82 18.01Q231.41 18.58 231.01 19.31Q230.62 20.04 230.26 20.88Q229.90 21.72 229.63 22.56L229.63 22.56L229.61 18.19Q230.28 17.06 231.13 16.15Q231.98 15.24 232.88 14.70Q233.78 14.16 234.58 14.16L234.58 14.16Q235.03 14.16 235.44 14.30Q235.85 14.45 236.08 14.93Q236.30 15.41 236.27 16.40Q236.23 17.40 235.80 19.13L235.80 19.13L234.82 23.06Q234.67 23.66 234.41 24.02Q234.14 24.38 233.40 24.38ZM228.00 24.38L228.00 24.38Q227.26 24.38 226.97 23.88Q226.68 23.38 226.90 22.56L226.90 22.56L228.67 15.43Q228.84 14.74 229.22 14.47Q229.61 14.21 230.28 14.21L230.28 14.21Q230.98 14.21 231.24 14.64Q231.50 15.07 231.31 15.86L231.31 15.86L229.51 23.06Q229.37 23.66 229.07 24.02Q228.77 24.38 228.00 24.38ZM240.46 24.38L240.46 24.38Q238.63 24.38 237.92 22.98Q237.22 21.58 237.82 19.13L237.82 19.13Q238.20 17.59 238.98 16.48Q239.76 15.36 240.84 14.76Q241.92 14.16 243.19 14.16L243.19 14.16Q245.02 14.16 245.72 15.52Q246.43 16.87 245.86 19.25L245.86 19.25Q245.47 20.83 244.68 21.98Q243.89 23.14 242.81 23.76Q241.73 24.38 240.46 24.38ZM240.89 21.82L240.89 21.82Q241.58 21.82 242.21 20.98Q242.83 20.14 243.19 18.67L243.19 18.67Q243.43 17.76 243.31 17.23Q243.19 16.70 242.76 16.70L242.76 16.70Q242.04 16.70 241.42 17.51Q240.79 18.31 240.46 19.70L240.46 19.70Q240.22 20.69 240.32 21.25Q240.43 21.82 240.89 21.82ZM248.18 24.38L248.18 24.38Q247.32 24.38 247.09 23.88Q246.86 23.38 247.03 22.58L247.03 22.58L248.81 15.34Q248.95 14.71 249.36 14.46Q249.77 14.21 250.37 14.21L250.37 14.21Q251.06 14.21 251.39 14.64Q251.71 15.07 251.54 15.77L251.54 15.77L249.70 23.02Q249.53 23.66 249.26 24.02Q249.00 24.38 248.18 24.38ZM249.70 22.92L249.70 22.92L250.01 18.05Q250.68 16.87 251.40 16.01Q252.12 15.14 252.85 14.65Q253.58 14.16 254.30 14.16L254.30 14.16Q255.96 14.16 256.54 16.37L256.54 16.37Q256.66 16.85 256.40 17.24Q256.15 17.64 255.50 17.83L255.50 17.83Q254.86 17.98 254.40 17.72Q253.94 17.47 253.80 16.90L253.80 16.90Q253.68 16.56 253.49 16.56L253.49 16.56Q253.22 16.56 252.84 16.93Q252.46 17.30 252.01 17.95Q251.57 18.60 251.14 19.42Q250.70 20.23 250.32 21.13Q249.94 22.03 249.70 22.92ZM262.78 24.38L262.78 24.38Q261.96 24.38 261.72 23.89Q261.48 23.40 261.67 22.66L261.67 22.66L262.63 18.65Q262.70 18.38 262.78 17.95Q262.85 17.52 262.82 17.16Q262.80 16.80 262.54 16.80L262.54 16.80Q262.30 16.80 261.97 17.12Q261.65 17.45 261.29 18.01Q260.93 18.58 260.57 19.31Q260.21 20.04 259.88 20.88Q259.56 21.72 259.30 22.56L259.30 22.56L259.27 18.19Q259.94 17.06 260.72 16.15Q261.50 15.24 262.33 14.70Q263.16 14.16 263.95 14.16L263.95 14.16Q264.41 14.16 264.82 14.30Q265.22 14.45 265.45 14.93Q265.68 15.41 265.64 16.40Q265.61 17.40 265.18 19.13L265.18 19.13L264.19 23.06Q264.05 23.66 263.80 24.02Q263.54 24.38 262.78 24.38ZM257.66 24.38L257.66 24.38Q256.92 24.38 256.63 23.88Q256.34 23.38 256.56 22.56L256.56 22.56L258.34 15.43Q258.50 14.74 258.89 14.47Q259.27 14.21 259.94 14.21L259.94 14.21Q260.64 14.21 260.90 14.64Q261.17 15.07 260.98 15.86L260.98 15.86L259.18 23.06Q259.03 23.66 258.73 24.02Q258.43 24.38 257.66 24.38ZM267.79 24.38L267.79 24.38Q266.98 24.38 266.74 23.89Q266.50 23.40 266.69 22.66L266.69 22.66L267.65 18.65Q267.72 18.38 267.79 17.95Q267.86 17.52 267.84 17.16Q267.82 16.80 267.58 16.80L267.58 16.80Q267.34 16.80 267 17.12Q266.66 17.45 266.30 18.01Q265.94 18.58 265.58 19.31Q265.22 20.04 264.90 20.88Q264.58 21.72 264.31 22.56L264.31 22.56L264.29 18.19Q264.96 17.06 265.74 16.15Q266.52 15.24 267.35 14.70Q268.18 14.16 268.97 14.16L268.97 14.16Q269.42 14.16 269.83 14.30Q270.24 14.45 270.47 14.93Q270.70 15.41 270.66 16.40Q270.62 17.40 270.19 19.13L270.19 19.13L269.21 23.06Q269.06 23.66 268.81 24.02Q268.56 24.38 267.79 24.38ZM274.68 24.38L274.68 24.38Q273.55 24.38 272.86 23.75Q272.16 23.11 271.99 21.94Q271.82 20.76 272.21 19.13L272.21 19.13Q272.59 17.59 273.35 16.48Q274.10 15.36 275.11 14.76Q276.12 14.16 277.22 14.16L277.22 14.16Q278.21 14.16 278.56 14.80Q278.90 15.43 278.78 16.57Q278.66 17.71 278.26 19.25L278.26 19.25Q277.85 20.74 277.38 21.90Q276.91 23.06 276.28 23.72Q275.64 24.38 274.68 24.38ZM275.28 21.82L275.28 21.82Q275.76 21.82 276.19 21.43Q276.62 21.05 276.98 20.34Q277.34 19.63 277.58 18.67L277.58 18.67Q277.82 17.76 277.70 17.23Q277.58 16.70 277.15 16.70L277.15 16.70Q276.67 16.70 276.23 17.06Q275.78 17.42 275.44 18.10Q275.09 18.77 274.85 19.70L274.85 19.70Q274.61 20.69 274.72 21.25Q274.82 21.82 275.28 21.82ZM277.75 24.38L277.75 24.38Q276.96 24.38 276.68 23.92Q276.41 23.45 276.62 22.61L276.62 22.61L278.45 15.29Q278.71 14.16 279.98 14.16L279.98 14.16Q280.68 14.16 280.97 14.56Q281.26 14.95 281.06 15.74L281.06 15.74L279.24 23.06Q279.10 23.69 278.82 24.04Q278.54 24.38 277.75 24.38ZM284.42 24.38L284.42 24.38Q283.68 24.38 283.10 24.01Q282.53 23.64 282.35 22.70Q282.17 21.77 282.60 20.09L282.60 20.09L285.89 6.96Q286.03 6.36 286.39 6.11Q286.75 5.86 287.40 5.86L287.40 5.86Q288.10 5.86 288.41 6.24Q288.72 6.62 288.53 7.39L288.53 7.39L285.22 20.69Q285.14 21 285.08 21.46Q285.02 21.91 285.14 21.91L285.14 21.91Q285.26 21.91 285.66 21.41Q286.06 20.90 286.34 20.35L286.34 20.35Q286.61 19.80 286.94 19.51Q287.28 19.22 287.74 19.22L287.74 19.22Q288.19 19.22 288.46 19.54Q288.72 19.85 288.72 20.30L288.72 20.30Q288.72 20.66 288.60 21.06Q288.48 21.46 288.10 21.94L288.10 21.94Q287.16 23.16 286.21 23.77Q285.26 24.38 284.42 24.38Z"/></svg>