<svg xmlns="http://www.w3.org/2000/svg" xmlns:xlink="http://www.w3.org/1999/xlink" width="341.64" height="31.68"><path fill="black" d="M11.74 24.48L11.74 24.48L2.52 24.48Q1.66 24.48 1.66 23.62L1.66 23.62L1.66 8.06Q1.66 7.20 2.52 7.20L2.52 7.20L10.18 7.20Q12.53 7.20 13.66 8.09Q14.78 8.98 14.78 10.87L14.78 10.87L14.78 12.02Q14.78 14.02 13.37 14.62L13.37 14.62Q14.93 14.76 15.66 15.66Q16.39 16.56 16.39 18.34L16.39 18.34L16.39 20.54Q16.39 22.56 15.26 23.52Q14.14 24.48 11.74 24.48ZM10.18 17.57L7.06 17.57L7.06 20.40L10.18 20.40Q11.09 20.40 11.09 19.44L11.09 19.44L11.09 18.50Q11.09 17.57 10.18 17.57L10.18 17.57ZM9.10 11.28L7.06 11.28L7.06 13.87L9.10 13.87Q10.01 13.87 10.01 12.91L10.01 12.91L10.01 12.24Q10.01 11.28 9.10 11.28L9.10 11.28ZM33.77 8.06L33.77 19.94Q33.77 21.05 33.44 21.95Q33.12 22.85 32.29 23.50Q31.46 24.14 30.02 24.49Q28.58 24.84 26.35 24.84L26.35 24.84Q24.12 24.84 22.68 24.49Q21.24 24.14 20.41 23.50Q19.58 22.85 19.26 21.95Q18.94 21.05 18.94 19.94L18.94 19.94L18.94 8.06Q18.94 7.20 19.80 7.20L19.80 7.20L23.57 7.20Q24.43 7.20 24.43 8.06L24.43 8.06L24.43 19.01Q24.43 19.49 24.79 19.81Q25.15 20.14 26.40 20.14L26.40 20.14Q27.67 20.14 28.03 19.81Q28.39 19.49 28.39 19.01L28.39 19.01L28.39 8.06Q28.39 7.20 29.26 7.20L29.26 7.20L32.90 7.20Q33.77 7.20 33.77 8.06L33.77 8.06ZM41.42 24.48L41.42 24.48L37.82 24.48Q36.96 24.48 36.96 23.62L36.96 23.62L36.96 8.06Q36.96 7.20 37.82 7.20L37.82 7.20L40.32 7.20Q41.18 7.20 41.74 7.85L41.74 7.85L46.39 13.18L46.39 8.06Q46.39 7.20 47.26 7.20L47.26 7.20L50.86 7.20Q51.72 7.20 51.72 8.06L51.72 8.06L51.72 23.62Q51.72 24.48 50.86 24.48L50.86 24.48L47.26 24.48Q46.39 24.48 46.39 23.62L46.39 23.62L46.39 20.66L42.29 15.70L42.29 23.62Q42.29 24.48 41.42 24.48ZM68.23 24.48L68.23 24.48L60.67 24.48Q57.65 24.48 56.21 23.28Q54.77 22.08 54.77 19.58L54.77 19.58L54.77 12.10Q54.77 9.60 56.21 8.40Q57.65 7.20 60.67 7.20L60.67 7.20L66.67 7.20Q67.54 7.20 67.54 8.06L67.54 8.06L67.54 10.97Q67.54 11.83 66.67 11.83L66.67 11.83L61.68 11.83Q60.22 11.83 60.22 13.03L60.22 13.03L60.22 18.77Q60.22 19.94 61.32 19.94L61.32 19.94L63.65 19.94L63.65 16.20Q63.65 15.34 64.51 15.34L64.51 15.34L68.23 15.34Q69.10 15.34 69.10 16.20L69.10 16.20L69.10 23.62Q69.10 24.48 68.23 24.48ZM84.02 24.48L84.02 24.48L72.89 24.48Q72.02 24.48 72.02 23.62L72.02 23.62L72.02 8.06Q72.02 7.20 72.89 7.20L72.89 7.20L84.02 7.20Q84.89 7.20 84.89 8.06L84.89 8.06L84.89 10.87Q84.89 11.74 84.02 11.74L84.02 11.74L77.40 11.74L77.40 13.58L82.08 13.58Q82.94 13.58 82.94 14.45L82.94 14.45L82.94 17.02Q82.94 17.88 82.08 17.88L82.08 17.88L77.40 17.88L77.40 19.94L84.02 19.94Q84.89 19.94 84.89 20.81L84.89 20.81L84.89 23.62Q84.89 24.48 84.02 24.48ZM99.72 24.48L99.72 24.48L88.58 24.48Q87.72 24.48 87.72 23.62L87.72 23.62L87.72 8.06Q87.72 7.20 88.58 7.20L88.58 7.20L99.72 7.20Q100.58 7.20 100.58 8.06L100.58 8.06L100.58 10.87Q100.58 11.74 99.72 11.74L99.72 11.74L93.10 11.74L93.10 13.58L97.78 13.58Q98.64 13.58 98.64 14.45L98.64 14.45L98.64 17.02Q98.64 17.88 97.78 17.88L97.78 17.88L93.10 17.88L93.10 19.94L99.72 19.94Q100.58 19.94 100.58 20.81L100.58 20.81L100.58 23.62Q100.58 24.48 99.72 24.48ZM116.74 24.48L116.74 24.48L112.85 24.48Q111.98 24.48 111.98 23.62L111.98 23.62L111.98 11.83L108.46 11.83Q107.59 11.83 107.59 10.97L107.59 10.97L107.59 8.06Q107.59 7.20 108.46 7.20L108.46 7.20L121.13 7.20Q121.99 7.20 121.99 8.06L121.99 8.06L121.99 10.97Q121.99 11.83 121.13 11.83L121.13 11.83L117.60 11.83L117.60 23.62Q117.60 24.48 116.74 24.48ZM135.02 24.48L124.80 24.48Q123.94 24.48 123.94 23.62L123.94 23.62L123.94 20.76Q123.94 19.90 124.80 19.90L124.80 19.90L127.18 19.90L127.18 11.83L124.80 11.83Q123.94 11.83 123.94 10.97L123.94 10.97L123.94 8.06Q123.94 7.20 124.80 7.20L124.80 7.20L135.02 7.20Q135.89 7.20 135.89 8.06L135.89 8.06L135.89 10.97Q135.89 11.83 135.02 11.83L135.02 11.83L132.70 11.83L132.70 19.90L135.02 19.90Q135.89 19.90 135.89 20.76L135.89 20.76L135.89 23.62Q135.89 24.48 135.02 24.48L135.02 24.48ZM143.30 24.48L143.30 24.48L139.70 24.48Q138.84 24.48 138.84 23.62L138.84 23.62L138.84 8.06Q138.84 7.20 139.70 7.20L139.70 7.20L142.20 7.20Q143.06 7.20 143.62 7.85L143.62 7.85L148.27 13.18L148.27 8.06Q148.27 7.20 149.14 7.20L149.14 7.20L152.74 7.20Q153.60 7.20 153.60 8.06L153.60 8.06L153.60 23.62Q153.60 24.48 152.74 24.48L152.74 24.48L149.14 24.48Q148.27 24.48 148.27 23.62L148.27 23.62L148.27 20.66L144.17 15.70L144.17 23.62Q144.17 24.48 143.30 24.48ZM165.07 24.48L165.07 24.48L161.18 24.48Q160.32 24.48 160.32 23.62L160.32 23.62L160.32 11.83L156.79 11.83Q155.93 11.83 155.93 10.97L155.93 10.97L155.93 8.06Q155.93 7.20 156.79 7.20L156.79 7.20L169.46 7.20Q170.33 7.20 170.33 8.06L170.33 8.06L170.33 10.97Q170.33 11.83 169.46 11.83L169.46 11.83L165.94 11.83L165.94 23.62Q165.94 24.48 165.07 24.48ZM186.10 23.62L186.10 20.47L182.04 20.47Q179.71 20.47 178.69 19.50Q177.67 18.53 177.67 16.49L177.67 16.49L177.67 8.06Q177.67 7.20 178.54 7.20L178.54 7.20L182.26 7.20Q183.12 7.20 183.12 8.06L183.12 8.06L183.12 14.64Q183.12 15.46 183.86 15.46L183.86 15.46L186.10 15.46L186.10 8.06Q186.10 7.20 186.96 7.20L186.96 7.20L190.66 7.20Q191.52 7.20 191.52 8.06L191.52 8.06L191.52 23.62Q191.52 24.48 190.66 24.48L190.66 24.48L186.96 24.48Q186.10 24.48 186.10 23.62L186.10 23.62ZM209.23 11.76L209.23 19.94Q209.23 21.05 208.91 21.95Q208.58 22.85 207.78 23.50Q206.98 24.14 205.55 24.49Q204.12 24.84 201.91 24.84L201.91 24.84Q199.70 24.84 198.26 24.49Q196.82 24.14 196.02 23.50Q195.22 22.85 194.89 21.95Q194.57 21.05 194.57 19.94L194.57 19.94L194.57 11.76Q194.57 10.66 194.89 9.76Q195.22 8.86 196.02 8.21Q196.82 7.56 198.26 7.20Q199.70 6.84 201.91 6.84L201.91 6.84Q204.12 6.84 205.55 7.20Q206.98 7.56 207.78 8.21Q208.58 8.86 208.91 9.76Q209.23 10.66 209.23 11.76L209.23 11.76ZM199.99 12.62L199.99 19.08Q199.99 19.56 200.34 19.88Q200.69 20.21 201.91 20.21L201.91 20.21Q203.16 20.21 203.50 19.88Q203.83 19.56 203.83 19.08L203.83 19.08L203.83 12.62Q203.83 12.14 203.50 11.83Q203.16 11.52 201.91 11.52L201.91 11.52Q200.69 11.52 200.34 11.83Q199.99 12.14 199.99 12.62L199.99 12.62ZM226.68 11.76L226.68 19.94Q226.68 21.05 226.36 21.95Q226.03 22.85 225.23 23.50Q224.42 24.14 223.00 24.49Q221.57 24.84 219.36 24.84L219.36 24.84Q217.15 24.84 215.71 24.49Q214.27 24.14 213.47 23.50Q212.66 22.85 212.34 21.95Q212.02 21.05 212.02 19.94L212.02 19.94L212.02 11.76Q212.02 10.66 212.34 9.76Q212.66 8.86 213.47 8.21Q214.27 7.56 215.71 7.20Q217.15 6.84 219.36 6.84L219.36 6.84Q221.57 6.84 223.00 7.20Q224.42 7.56 225.23 8.21Q226.03 8.86 226.36 9.76Q226.68 10.66 226.68 11.76L226.68 11.76ZM217.44 12.62L217.44 19.08Q217.44 19.56 217.79 19.88Q218.14 20.21 219.36 20.21L219.36 20.21Q220.61 20.21 220.94 19.88Q221.28 19.56 221.28 19.08L221.28 19.08L221.28 12.62Q221.28 12.14 220.94 11.83Q220.61 11.52 219.36 11.52L219.36 11.52Q218.14 11.52 217.79 11.83Q217.44 12.14 217.44 12.62L217.44 12.62ZM239.59 24.48L239.59 24.48L235.99 24.48Q235.13 24.48 235.13 23.62L235.13 23.62L235.13 8.06Q235.13 7.20 235.99 7.20L235.99 7.20L238.49 7.20Q239.35 7.20 239.90 7.85L239.90 7.85L244.56 13.18L244.56 8.06Q244.56 7.20 245.42 7.20L245.42 7.20L249.02 7.20Q249.89 7.20 249.89 8.06L249.89 8.06L249.89 23.62Q249.89 24.48 249.02 24.48L249.02 24.48L245.42 24.48Q244.56 24.48 244.56 23.62L244.56 23.62L244.56 20.66L240.46 15.70L240.46 23.62Q240.46 24.48 239.59 24.48ZM267.84 11.76L267.84 19.94Q267.84 21.05 267.52 21.95Q267.19 22.85 266.38 23.50Q265.56 24.14 264.11 24.49Q262.66 24.84 260.40 24.84L260.40 24.84Q258.14 24.84 256.69 24.49Q255.24 24.14 254.42 23.50Q253.61 22.85 253.27 21.95Q252.94 21.05 252.94 19.94L252.94 19.94L252.94 11.76Q252.94 10.66 253.27 9.76Q253.61 8.86 254.42 8.21Q255.24 7.56 256.69 7.20Q258.14 6.84 260.40 6.84L260.40 6.84Q262.66 6.84 264.11 7.20Q265.56 7.56 266.38 8.21Q267.19 8.86 267.52 9.76Q267.84 10.66 267.84 11.76L267.84 11.76ZM258.38 12.62L258.38 19.08Q258.38 19.56 258.74 19.88Q259.10 20.21 260.40 20.21L260.40 20.21Q261.72 20.21 262.07 19.88Q262.42 19.56 262.42 19.08L262.42 19.08L262.42 12.62Q262.42 12.14 262.07 11.83Q261.72 11.52 260.40 11.52L260.40 11.52Q259.10 11.52 258.74 11.83Q258.38 12.14 258.38 12.62L258.38 12.62ZM275.45 24.48L275.45 24.48L271.75 24.48Q270.89 24.48 270.89 23.62L270.89 23.62L270.89 8.06Q270.89 7.20 271.75 7.20L271.75 7.20L279.74 7.20Q281.54 7.20 282.58 7.70Q283.61 8.21 284.04 9.11Q284.47 10.01 284.47 11.21L284.47 11.21L284.47 12.31Q284.47 13.32 284.18 14.02Q283.90 14.71 283.13 15.05L283.13 15.05Q284.45 15.19 285.24 16.10Q286.03 17.02 286.03 18.53L286.03 18.53L286.03 23.62Q286.03 24.48 285.17 24.48L285.17 24.48L281.45 24.48Q280.58 24.48 280.58 23.62L280.58 23.62L280.58 19.94Q280.58 19.39 280.38 19.15Q280.18 18.91 279.67 18.91L279.67 18.91L276.31 18.91L276.31 23.62Q276.31 24.48 275.45 24.48ZM278.11 11.52L276.31 11.52L276.31 14.59L278.11 14.59Q278.74 14.59 278.95 14.27Q279.17 13.94 279.17 13.46L279.17 13.46L279.17 12.65Q279.17 12.17 278.95 11.84Q278.74 11.52 278.11 11.52L278.11 11.52ZM293.16 24.48L293.16 24.48L289.58 24.48Q288.72 24.48 288.72 23.62L288.72 23.62L288.72 8.06Q288.72 7.20 289.58 7.20L289.58 7.20L293.45 7.20Q294.17 7.20 294.55 7.92L294.55 7.92L296.71 11.83Q296.83 12.05 296.92 12.14Q297 12.24 297.14 12.24L297.14 12.24L297.36 12.24Q297.50 12.24 297.59 12.14Q297.67 12.05 297.79 11.83L297.79 11.83L299.93 7.92Q300.31 7.20 301.03 7.20L301.03 7.20L304.92 7.20Q305.78 7.20 305.78 8.06L305.78 8.06L305.78 23.62Q305.78 24.48 304.92 24.48L304.92 24.48L301.22 24.48Q300.36 24.48 300.36 23.62L300.36 23.62L300.36 15.17L298.94 17.78Q298.54 18.55 297.67 18.55L297.67 18.55L296.71 18.55Q295.85 18.55 295.44 17.78L295.44 17.78L294.02 15.17L294.02 23.62Q294.02 24.48 293.16 24.48ZM313.99 20.26L313.99 23.62Q313.99 24.48 313.13 24.48L313.13 24.48L309.60 24.48Q308.74 24.48 308.74 23.62L308.74 23.62L308.74 17.28Q308.74 16.56 308.96 15.62Q309.19 14.69 309.67 13.44L309.67 13.44L311.76 7.99Q312.02 7.20 312.98 7.20L312.98 7.20L319.44 7.20Q320.38 7.20 320.64 7.99L320.64 7.99L322.73 13.44Q323.21 14.69 323.44 15.62Q323.66 16.56 323.66 17.28L323.66 17.28L323.66 23.62Q323.66 24.48 322.80 24.48L322.80 24.48L319.18 24.48Q318.24 24.48 318.24 23.62L318.24 23.62L318.24 20.26L313.99 20.26ZM315.36 12.24L315.36 12.24L314.23 15.89L318 15.89L316.87 12.24Q316.70 11.83 316.42 11.83L316.42 11.83L315.82 11.83Q315.53 11.83 315.36 12.24ZM339.70 24.48L339.70 24.48L327.48 24.48Q326.62 24.48 326.62 23.62L326.62 23.62L326.62 8.06Q326.62 7.20 327.48 7.20L327.48 7.20L331.20 7.20Q332.06 7.20 332.06 8.06L332.06 8.06L332.06 19.94L335.35 19.94L335.35 16.06Q335.35 15.19 336.22 15.19L336.22 15.19L339.70 15.19Q340.56 15.19 340.56 16.06L340.56 16.06L340.56 23.62Q340.56 24.48 339.70 24.48Z"/></svg>