<svg xmlns="http://www.w3.org/2000/svg" xmlns:xlink="http://www.w3.org/1999/xlink" width="168.9140625" height="34.8046875"><path fill="black" d="M6.95 22.29L5.07 22.29L-0.02 6.52L1.71 6.52L4.41 15.32Q4.84 16.73 5.19 17.95Q5.53 19.16 5.99 20.57L5.99 20.57L6.08 20.57Q6.54 19.16 6.89 17.95Q7.24 16.73 7.65 15.32L7.65 15.32L10.35 6.52L12 6.52L6.95 22.29ZM16.91 22.58L16.91 22.58Q15.42 22.58 14.43 21.74Q13.44 20.91 13.44 19.31L13.44 19.31Q13.44 17.40 15.18 16.32Q16.92 15.25 20.72 14.96L20.72 14.96Q20.73 14.09 20.52 13.35Q20.31 12.62 19.75 12.18Q19.20 11.74 18.18 11.74L18.18 11.74Q17.09 11.74 16.15 12.09Q15.21 12.45 14.57 12.90L14.57 12.90L13.90 11.77Q14.63 11.29 15.81 10.84Q17.00 10.39 18.41 10.39L18.41 10.39Q20.51 10.39 21.41 11.66Q22.31 12.93 22.31 15.05L22.31 15.05L22.31 22.29L20.99 22.29L20.84 20.86L20.79 20.86Q19.93 21.55 19.03 22.07Q18.12 22.58 16.91 22.58ZM17.31 21.27L17.31 21.27Q18.21 21.27 19.00 20.84Q19.79 20.40 20.72 19.58L20.72 19.58L20.72 16.07Q18.59 16.22 17.34 16.66Q16.10 17.10 15.57 17.75Q15.04 18.40 15.04 19.22L15.04 19.22Q15.04 20.31 15.69 20.79Q16.34 21.27 17.31 21.27ZM27.81 22.29L26.20 22.29L26.20 10.69L27.54 10.69L27.68 12.81L27.76 12.81Q28.35 11.72 29.20 11.06Q30.05 10.39 31.04 10.39L31.04 10.39Q31.41 10.39 31.69 10.45Q31.97 10.50 32.25 10.64L32.25 10.64L31.93 12.05Q31.64 11.95 31.41 11.91Q31.18 11.86 30.83 11.86L30.83 11.86Q30.08 11.86 29.26 12.49Q28.43 13.11 27.81 14.65L27.81 14.65L27.81 22.29ZM37.70 22.58L37.70 22.58Q35.91 22.58 35.23 21.54Q34.56 20.51 34.56 18.86L34.56 18.86L34.56 12.01L32.79 12.01L32.79 10.79L34.62 10.69L34.82 7.38L36.18 7.38L36.18 10.69L39.40 10.69L39.40 12.01L36.18 12.01L36.18 18.91Q36.18 20.00 36.56 20.63Q36.95 21.25 38.03 21.25L38.03 21.25Q38.34 21.25 38.72 21.14Q39.11 21.04 39.40 20.92L39.40 20.92L39.74 22.15Q39.25 22.31 38.71 22.45Q38.18 22.58 37.70 22.58ZM44.96 22.58L44.96 22.58Q43.48 22.58 42.49 21.74Q41.50 20.91 41.50 19.31L41.50 19.31Q41.50 17.40 43.24 16.32Q44.98 15.25 48.77 14.96L48.77 14.96Q48.79 14.09 48.57 13.35Q48.36 12.62 47.81 12.18Q47.25 11.74 46.23 11.74L46.23 11.74Q45.14 11.74 44.20 12.09Q43.27 12.45 42.62 12.90L42.62 12.90L41.95 11.77Q42.68 11.29 43.87 10.84Q45.06 10.39 46.46 10.39L46.46 10.39Q48.56 10.39 49.46 11.66Q50.37 12.93 50.37 15.05L50.37 15.05L50.37 22.29L49.04 22.29L48.89 20.86L48.84 20.86Q47.99 21.55 47.08 22.07Q46.17 22.58 44.96 22.58ZM45.36 21.27L45.36 21.27Q46.27 21.27 47.06 20.84Q47.85 20.40 48.77 19.58L48.77 19.58L48.77 16.07Q46.64 16.22 45.40 16.66Q44.16 17.10 43.62 17.75Q43.09 18.40 43.09 19.22L43.09 19.22Q43.09 20.31 43.74 20.79Q44.39 21.27 45.36 21.27ZM62.65 22.58L62.65 22.58Q60.81 22.58 59.62 21.91Q58.43 21.23 57.67 20.41L57.67 20.41L58.52 19.35Q59.21 20.09 60.17 20.66Q61.13 21.23 62.58 21.23L62.58 21.23Q64.03 21.23 64.97 20.40Q65.91 19.57 65.91 18.14L65.91 18.14Q65.91 17.17 65.41 16.44Q64.92 15.70 63.81 15.29Q62.70 14.88 60.83 14.88L60.83 14.88L60.83 13.61Q62.52 13.61 63.51 13.13Q64.50 12.64 64.93 11.88Q65.36 11.12 65.36 10.27L65.36 10.27Q65.36 8.95 64.59 8.25Q63.83 7.55 62.53 7.55L62.53 7.55Q61.54 7.55 60.69 7.98Q59.84 8.41 59.17 9.11L59.17 9.11L58.28 8.07Q59.13 7.27 60.19 6.75Q61.25 6.23 62.59 6.23L62.59 6.23Q64.59 6.23 65.79 7.29Q67.00 8.34 67.00 10.16L67.00 10.16Q67.00 11.59 66.21 12.64Q65.41 13.70 64.16 14.14L64.16 14.14L64.16 14.24Q65.55 14.53 66.54 15.55Q67.54 16.57 67.54 18.18L67.54 18.18Q67.54 19.51 66.90 20.50Q66.26 21.49 65.16 22.04Q64.05 22.58 62.65 22.58ZM74.65 22.58L74.65 22.58Q72.34 22.58 71.10 20.36Q69.87 18.13 69.87 14.25L69.87 14.25Q69.87 10.36 71.10 8.30Q72.34 6.23 74.65 6.23L74.65 6.23Q76.96 6.23 78.19 8.30Q79.43 10.36 79.43 14.25L79.43 14.25Q79.43 18.13 78.19 20.36Q76.96 22.58 74.65 22.58ZM74.65 21.27L74.65 21.27Q76.14 21.27 76.99 19.49Q77.85 17.71 77.85 14.25L77.85 14.25Q77.85 10.78 76.99 9.16Q76.14 7.54 74.65 7.54L74.65 7.54Q73.17 7.54 72.31 9.16Q71.45 10.78 71.45 14.25L71.45 14.25Q71.45 17.71 72.31 19.49Q73.17 21.27 74.65 21.27ZM86.40 22.58L86.40 22.58Q84.09 22.58 82.86 20.36Q81.62 18.13 81.62 14.25L81.62 14.25Q81.62 10.36 82.86 8.30Q84.09 6.23 86.40 6.23L86.40 6.23Q88.71 6.23 89.95 8.30Q91.18 10.36 91.18 14.25L91.18 14.25Q91.18 18.13 89.95 20.36Q88.71 22.58 86.40 22.58ZM86.40 21.27L86.40 21.27Q87.89 21.27 88.75 19.49Q89.60 17.71 89.60 14.25L89.60 14.25Q89.60 10.78 88.75 9.16Q87.89 7.54 86.40 7.54L86.40 7.54Q84.93 7.54 84.06 9.16Q83.20 10.78 83.20 14.25L83.20 14.25Q83.20 17.71 84.06 19.49Q84.93 21.27 86.40 21.27ZM100.78 22.29L99.18 22.29L99.18 10.69L100.51 10.69L100.65 12.41L100.73 12.41Q101.58 11.55 102.52 10.97Q103.45 10.39 104.66 10.39L104.66 10.39Q106.52 10.39 107.35 11.51Q108.18 12.62 108.18 14.86L108.18 14.86L108.18 22.29L106.58 22.29L106.58 15.08Q106.58 13.36 106.05 12.58Q105.52 11.80 104.20 11.80L104.20 11.80Q103.25 11.80 102.49 12.29Q101.73 12.77 100.78 13.75L100.78 13.75L100.78 22.29ZM116.55 22.58L116.55 22.58Q115.13 22.58 113.92 21.87Q112.71 21.16 111.99 19.80Q111.27 18.45 111.27 16.50L111.27 16.50Q111.27 14.52 111.99 13.16Q112.71 11.80 113.92 11.10Q115.13 10.39 116.55 10.39L116.55 10.39Q118.00 10.39 119.20 11.10Q120.41 11.80 121.14 13.16Q121.88 14.52 121.88 16.50L121.88 16.50Q121.88 18.45 121.14 19.80Q120.41 21.16 119.20 21.87Q118.00 22.58 116.55 22.58ZM116.55 21.23L116.55 21.23Q118.20 21.23 119.21 19.93Q120.22 18.63 120.22 16.50L120.22 16.50Q120.22 14.34 119.21 13.04Q118.20 11.74 116.55 11.74L116.55 11.74Q114.93 11.74 113.92 13.04Q112.92 14.34 112.92 16.50L112.92 16.50Q112.92 18.63 113.92 19.93Q114.93 21.23 116.55 21.23ZM126.70 22.29L125.10 22.29L125.10 10.69L126.43 10.69L126.57 12.81L126.66 12.81Q127.24 11.72 128.09 11.06Q128.94 10.39 129.94 10.39L129.94 10.39Q130.30 10.39 130.58 10.45Q130.86 10.50 131.14 10.64L131.14 10.64L130.83 12.05Q130.54 11.95 130.31 11.91Q130.08 11.86 129.73 11.86L129.73 11.86Q128.98 11.86 128.15 12.49Q127.32 13.11 126.70 14.65L126.70 14.65L126.70 22.29ZM134.74 22.29L133.14 22.29L133.14 10.69L134.47 10.69L134.61 12.41L134.70 12.41Q135.46 11.55 136.38 10.97Q137.31 10.39 138.32 10.39L138.32 10.39Q139.71 10.39 140.44 10.99Q141.18 11.59 141.52 12.64L141.52 12.64Q142.46 11.61 143.41 11.00Q144.35 10.39 145.38 10.39L145.38 10.39Q147.21 10.39 148.05 11.51Q148.90 12.62 148.90 14.86L148.90 14.86L148.90 22.29L147.29 22.29L147.29 15.08Q147.29 13.36 146.75 12.58Q146.21 11.80 144.97 11.80L144.97 11.80Q143.52 11.80 141.82 13.71L141.82 13.71L141.82 22.29L140.23 22.29L140.23 15.08Q140.23 13.36 139.68 12.58Q139.14 11.80 137.88 11.80L137.88 11.80Q136.46 11.80 134.74 13.75L134.74 13.75L134.74 22.29ZM155.74 22.58L155.74 22.58Q154.25 22.58 153.26 21.74Q152.27 20.91 152.27 19.31L152.27 19.31Q152.27 17.40 154.01 16.32Q155.75 15.25 159.55 14.96L159.55 14.96Q159.56 14.09 159.35 13.35Q159.14 12.62 158.58 12.18Q158.03 11.74 157.01 11.74L157.01 11.74Q155.92 11.74 154.98 12.09Q154.04 12.45 153.40 12.90L153.40 12.90L152.73 11.77Q153.46 11.29 154.65 10.84Q155.84 10.39 157.24 10.39L157.24 10.39Q159.34 10.39 160.24 11.66Q161.14 12.93 161.14 15.05L161.14 15.05L161.14 22.29L159.82 22.29L159.67 20.86L159.62 20.86Q158.77 21.55 157.86 22.07Q156.95 22.58 155.74 22.58ZM156.14 21.27L156.14 21.27Q157.04 21.27 157.83 20.84Q158.63 20.40 159.55 19.58L159.55 19.58L159.55 16.07Q157.42 16.22 156.18 16.66Q154.93 17.10 154.40 17.75Q153.87 18.40 153.87 19.22L153.87 19.22Q153.87 20.31 154.52 20.79Q155.17 21.27 156.14 21.27ZM166.85 22.58L166.85 22.58Q165.90 22.58 165.47 22.00Q165.04 21.41 165.04 20.27L165.04 20.27L165.04 5.13L166.64 5.13L166.64 20.41Q166.64 20.85 166.79 21.04Q166.95 21.23 167.17 21.23L167.17 21.23Q167.25 21.23 167.34 21.23Q167.43 21.22 167.60 21.19L167.60 21.19L167.84 22.41Q167.65 22.49 167.42 22.54Q167.19 22.58 166.85 22.58Z"/></svg>