<svg xmlns="http://www.w3.org/2000/svg" xmlns:xlink="http://www.w3.org/1999/xlink" width="327.288" height="45.336"><path fill="black" d="M11.78 24.60L11.78 24.60Q11.42 24.60 11.29 24.40Q11.16 24.19 11.23 23.83L11.23 23.83Q11.30 23.52 11.51 23.30Q11.71 23.09 12.05 23.09L12.05 23.09Q13.66 23.06 15.22 22.76Q16.78 22.46 18.16 21.89Q19.54 21.31 20.58 20.45Q21.62 19.58 22.24 18.41Q22.85 17.23 22.85 15.72L22.85 15.72Q22.85 14.59 22.34 13.78Q21.84 12.96 20.96 12.43Q20.09 11.90 18.90 11.65Q17.71 11.40 16.32 11.40L16.32 11.40Q14.40 11.40 12.73 11.75Q11.06 12.10 9.64 12.79Q8.21 13.49 6.98 14.54L6.98 14.54Q6.70 14.83 6.40 14.71Q6.10 14.59 5.88 14.30L5.88 14.30Q5.71 14.09 5.74 13.82Q5.76 13.56 6.05 13.32L6.05 13.32Q7.01 12.46 8.14 11.81Q9.26 11.16 10.56 10.72Q11.86 10.27 13.32 10.04Q14.78 9.82 16.44 9.82L16.44 9.82Q18.38 9.82 19.90 10.22Q21.41 10.63 22.46 11.39Q23.52 12.14 24.07 13.22Q24.62 14.30 24.62 15.67L24.62 15.67Q24.62 17.50 23.93 18.91Q23.23 20.33 21.98 21.38Q20.74 22.44 19.10 23.12Q17.47 23.81 15.60 24.18Q13.73 24.55 11.78 24.60ZM3.14 34.13L3.14 34.13Q2.28 34.13 1.56 33.80Q0.84 33.48 0.34 32.93Q-0.17 32.38-0.43 31.66L-0.43 31.66Q-0.55 31.32-0.46 31.10Q-0.36 30.89-0.07 30.74L-0.07 30.74Q0.24 30.58 0.48 30.65Q0.72 30.72 0.91 31.06L0.91 31.06Q1.22 31.61 1.61 31.92Q1.99 32.23 2.42 32.36Q2.86 32.50 3.34 32.50L3.34 32.50Q4.30 32.50 4.99 31.73Q5.69 30.96 6.31 29.04L6.31 29.04L11.09 14.26Q11.18 13.97 11.42 13.84Q11.66 13.70 12.12 13.70L12.12 13.70Q12.55 13.70 12.76 13.85Q12.96 13.99 12.84 14.30L12.84 14.30L8.06 28.97Q7.54 30.67 6.86 31.82Q6.19 32.98 5.29 33.55Q4.39 34.13 3.14 34.13ZM18.65 34.13L18.65 34.13Q18.29 34.13 18.18 33.90Q18.07 33.67 18.14 33.38Q18.22 33.10 18.46 32.87Q18.70 32.64 19.03 32.64L19.03 32.64Q19.87 32.64 20.87 32.15Q21.86 31.66 22.97 30.77Q24.07 29.88 25.19 28.72Q26.30 27.55 27.38 26.16Q28.46 24.77 29.45 23.29Q30.43 21.82 31.26 20.34Q32.09 18.86 32.71 17.46Q33.34 16.06 33.68 14.84Q34.03 13.63 34.03 12.74L34.03 12.74Q34.03 12.43 34.30 12.26Q34.56 12.10 34.90 12.10Q35.23 12.10 35.48 12.26Q35.74 12.43 35.74 12.74L35.74 12.74Q35.74 13.70 35.36 15Q34.99 16.30 34.31 17.78Q33.62 19.27 32.68 20.87Q31.73 22.46 30.61 24.06Q29.50 25.66 28.27 27.14Q27.05 28.63 25.79 29.90Q24.53 31.18 23.27 32.11Q22.01 33.05 20.83 33.59Q19.66 34.13 18.65 34.13ZM26.11 34.13L26.11 34.13Q25.25 34.13 24.73 33.82Q24.22 33.50 24.02 32.95Q23.83 32.40 23.90 31.66Q23.98 30.91 24.24 30.05L24.24 30.05L29.64 13.34Q30.26 11.42 31.15 10.57Q32.04 9.72 33.31 9.72L33.31 9.72Q34.08 9.72 34.62 10.09Q35.16 10.46 35.45 11.12Q35.74 11.78 35.74 12.74L35.74 12.74Q35.74 13.10 35.48 13.30Q35.23 13.49 34.90 13.49Q34.56 13.49 34.30 13.30Q34.03 13.10 34.03 12.74L34.03 12.74Q34.03 12.29 33.91 11.98Q33.79 11.66 33.58 11.51Q33.36 11.35 33.02 11.35L33.02 11.35Q32.71 11.35 32.40 11.58Q32.09 11.81 31.82 12.28Q31.56 12.74 31.30 13.56L31.30 13.56L25.73 30.89Q25.58 31.34 25.56 31.75Q25.54 32.16 25.70 32.41Q25.87 32.66 26.30 32.66L26.30 32.66Q26.69 32.66 27.01 32.47Q27.34 32.28 27.60 31.98Q27.86 31.68 28.03 31.42L28.03 31.42Q28.15 31.22 28.37 31.13Q28.58 31.03 28.94 31.25L28.94 31.25Q29.28 31.44 29.28 31.67Q29.28 31.90 29.16 32.14L29.16 32.14Q28.90 32.59 28.46 33.06Q28.03 33.53 27.46 33.83Q26.88 34.13 26.11 34.13ZM35.98 34.13L35.98 34.13Q34.90 34.13 34.13 33.65Q33.36 33.17 32.94 32.26Q32.52 31.34 32.52 30.10L32.52 30.10Q32.52 29.02 32.81 27.82Q33.10 26.62 33.70 25.45Q34.30 24.29 35.21 23.34Q36.12 22.39 37.37 21.83Q38.62 21.26 40.22 21.26L40.22 21.26Q41.04 21.26 41.84 21.53Q42.65 21.79 43.32 22.27L43.32 22.27L43.39 21.98Q43.54 21.60 43.73 21.48Q43.92 21.36 44.30 21.36L44.30 21.36Q44.90 21.36 45.06 21.56Q45.22 21.77 45.10 22.15L45.10 22.15L42.24 30.89Q42.10 31.34 42.07 31.75Q42.05 32.16 42.22 32.41Q42.38 32.66 42.82 32.66L42.82 32.66Q43.20 32.66 43.52 32.47Q43.85 32.28 44.10 31.99Q44.35 31.70 44.52 31.42L44.52 31.42Q44.66 31.22 44.88 31.13Q45.10 31.03 45.43 31.25L45.43 31.25Q45.77 31.44 45.78 31.67Q45.79 31.90 45.67 32.14L45.67 32.14Q45.41 32.59 44.99 33.06Q44.57 33.53 43.98 33.83Q43.39 34.13 42.65 34.13L42.65 34.13Q42.05 34.13 41.62 33.97Q41.18 33.82 40.91 33.54Q40.63 33.26 40.50 32.87Q40.37 32.47 40.39 31.99L40.39 31.99Q40.39 31.92 40.40 31.85Q40.42 31.78 40.42 31.70L40.42 31.70Q39.62 32.69 38.81 33.23Q37.99 33.77 37.26 33.95Q36.53 34.13 35.98 34.13ZM34.32 29.93L34.32 29.93Q34.32 30.77 34.56 31.36Q34.80 31.94 35.28 32.26Q35.76 32.57 36.50 32.57L36.50 32.57Q37.32 32.57 38.11 32.16Q38.90 31.75 39.68 30.94Q40.46 30.12 41.16 28.90L41.16 28.90L42.89 23.57Q42.17 23.11 41.54 22.96Q40.92 22.80 40.27 22.80L40.27 22.80Q38.95 22.80 37.97 23.27Q36.98 23.74 36.29 24.53Q35.59 25.32 35.15 26.27Q34.70 27.22 34.51 28.18Q34.32 29.14 34.32 29.93ZM55.39 36.10L55.63 34.44Q56.09 34.20 56.54 33.98Q57.00 33.77 57.46 33.56Q57.91 33.36 58.34 33.19Q58.78 33.02 59.18 32.88L59.18 32.88Q59.47 32.78 59.65 32.93Q59.83 33.07 59.86 33.35Q59.88 33.62 59.78 33.89Q59.69 34.15 59.42 34.27L59.42 34.27Q58.94 34.44 58.44 34.66Q57.94 34.87 57.41 35.10Q56.88 35.33 56.38 35.59Q55.87 35.86 55.39 36.10L55.39 36.10ZM49.03 45.72L49.03 45.72Q48.10 45.72 47.41 45.35Q46.73 44.98 46.37 44.34Q46.01 43.70 46.01 42.86L46.01 42.86Q46.01 41.81 46.49 40.85Q46.97 39.89 47.81 39.02Q48.65 38.16 49.81 37.38Q50.98 36.60 52.34 35.86L52.34 35.86Q52.92 35.59 53.50 35.32Q54.07 35.04 54.65 34.78L54.65 34.78L55.58 31.85Q55.03 32.47 54.46 32.90Q53.88 33.34 53.28 33.61Q52.68 33.89 52.10 34.01Q51.53 34.13 51.00 34.13L51.00 34.13Q49.70 34.13 48.90 33.56Q48.10 33 47.88 31.94Q47.66 30.89 48.14 29.40L48.14 29.40L50.54 21.98Q50.69 21.60 50.88 21.48Q51.07 21.36 51.46 21.36L51.46 21.36Q52.06 21.36 52.21 21.54Q52.37 21.72 52.27 22.10L52.27 22.10L49.82 29.52Q49.51 30.53 49.57 31.22Q49.63 31.92 50.12 32.26Q50.62 32.59 51.53 32.59L51.53 32.59Q52.15 32.59 52.81 32.36Q53.47 32.14 54.13 31.68Q54.79 31.22 55.40 30.54Q56.02 29.86 56.52 28.94L56.52 28.94L58.75 21.98Q58.90 21.60 59.09 21.48Q59.28 21.36 59.66 21.36L59.66 21.36Q60.24 21.36 60.41 21.56Q60.58 21.77 60.43 22.15L60.43 22.15L54.77 39.58Q54.22 41.21 53.63 42.38Q53.04 43.56 52.34 44.29Q51.65 45.02 50.83 45.37Q50.02 45.72 49.03 45.72ZM49.30 44.21L49.30 44.21Q49.87 44.21 50.38 43.93Q50.88 43.66 51.35 43.09Q51.82 42.53 52.26 41.64Q52.70 40.75 53.09 39.50L53.09 39.50L54.02 36.65Q53.69 36.82 53.35 36.97Q53.02 37.13 52.66 37.30L52.66 37.30Q51.55 37.94 50.64 38.58Q49.73 39.22 49.09 39.86Q48.46 40.51 48.11 41.21Q47.76 41.90 47.76 42.67L47.76 42.67Q47.76 43.15 47.93 43.50Q48.10 43.85 48.46 44.03Q48.82 44.21 49.30 44.21ZM66.19 34.18L66.19 34.18Q65.09 34.18 64.40 33.77Q63.72 33.36 63.43 32.68Q63.14 31.99 63.17 31.12Q63.19 30.24 63.50 29.30L63.50 29.30L65.88 21.98Q66.02 21.60 66.22 21.48Q66.41 21.36 66.79 21.36L66.79 21.36Q67.37 21.36 67.52 21.54Q67.68 21.72 67.54 22.10L67.54 22.10L65.23 29.23Q64.94 30.12 64.91 30.90Q64.87 31.68 65.23 32.16Q65.59 32.64 66.53 32.64L66.53 32.64Q67.06 32.64 67.61 32.46Q68.16 32.28 68.70 31.88Q69.24 31.49 69.72 30.86Q70.20 30.24 70.56 29.33L70.56 29.33L72.96 21.98Q73.08 21.60 73.28 21.48Q73.49 21.36 73.87 21.36L73.87 21.36Q74.45 21.36 74.60 21.53Q74.76 21.70 74.64 22.08L74.64 22.08L72.65 28.20Q72.36 29.11 72.17 29.92Q71.98 30.72 72.02 31.33Q72.07 31.94 72.47 32.28Q72.86 32.62 73.73 32.62L73.73 32.62Q74.64 32.62 75.41 32.21Q76.18 31.80 76.78 31.10Q77.38 30.41 77.82 29.54Q78.26 28.68 78.54 27.76Q78.82 26.83 78.89 25.97L78.89 25.97Q79.01 25.32 79.01 24.70Q79.01 24.07 78.92 23.48Q78.84 22.90 78.62 22.39L78.62 22.39Q78.53 22.01 78.61 21.77Q78.70 21.53 78.92 21.40Q79.15 21.26 79.46 21.26L79.46 21.26Q79.80 21.26 79.99 21.48Q80.18 21.70 80.30 22.20L80.30 22.20Q80.52 22.75 80.62 23.39Q80.71 24.02 80.71 24.71Q80.71 25.39 80.62 26.06L80.62 26.06Q80.52 27.05 80.17 28.16Q79.82 29.28 79.22 30.34Q78.62 31.39 77.80 32.27Q76.97 33.14 75.90 33.66Q74.83 34.18 73.54 34.18L73.54 34.18Q72.55 34.18 71.88 33.89Q71.21 33.60 70.85 33.10Q70.49 32.59 70.37 31.87L70.37 31.87Q69.86 32.66 69.19 33.18Q68.52 33.70 67.75 33.94Q66.98 34.18 66.19 34.18ZM78.96 34.13L78.96 34.13Q78.60 34.13 78.48 33.90Q78.36 33.67 78.43 33.38Q78.50 33.10 78.76 32.87Q79.01 32.64 79.39 32.64L79.39 32.64Q80.16 32.64 80.99 32.09Q81.82 31.54 82.67 30.37Q83.52 29.21 84.40 27.35Q85.27 25.49 86.16 22.87L86.16 22.87L87.31 23.47Q86.26 26.54 85.24 28.61Q84.22 30.67 83.22 31.88Q82.22 33.10 81.17 33.61Q80.11 34.13 78.96 34.13ZM92.21 34.13L92.21 34.13Q91.42 34.13 90.91 33.88Q90.41 33.62 90.18 33.17Q89.95 32.71 89.98 32.08Q90 31.44 90.24 30.65L90.24 30.65Q90.43 30.02 90.76 29.29Q91.08 28.56 91.43 27.76Q91.78 26.95 92.11 26.17Q92.45 25.39 92.64 24.67L92.64 24.67Q92.88 23.76 92.59 23.45Q92.30 23.14 91.80 23.14L91.80 23.14Q91.22 23.14 90.47 23.35Q89.71 23.57 88.90 23.78Q88.08 24 87.36 24L87.36 24Q86.83 24 86.48 23.74Q86.14 23.47 85.98 23.02Q85.82 22.56 85.82 22.03L85.82 22.03Q85.82 21.50 85.99 21.02Q86.16 20.54 86.48 20.23Q86.81 19.92 87.26 19.92L87.26 19.92Q87.77 19.92 87.97 20.20Q88.18 20.47 88.18 20.86L88.18 20.86Q88.18 21.24 88.03 21.71Q87.89 22.18 87.67 22.51L87.67 22.51Q88.27 22.54 89.04 22.28Q89.81 22.03 90.67 21.77Q91.54 21.50 92.38 21.50L92.38 21.50Q93.10 21.50 93.62 21.83Q94.15 22.15 94.36 22.90Q94.56 23.64 94.22 24.91L94.22 24.91Q94.03 25.58 93.72 26.35Q93.41 27.12 93.04 27.92Q92.66 28.73 92.33 29.52Q91.99 30.31 91.78 31.06L91.78 31.06Q91.51 31.87 91.68 32.27Q91.85 32.66 92.35 32.66L92.35 32.66Q92.74 32.66 93.07 32.47Q93.41 32.28 93.67 31.98Q93.94 31.68 94.10 31.42L94.10 31.42Q94.22 31.22 94.44 31.13Q94.66 31.03 94.99 31.25L94.99 31.25Q95.33 31.44 95.34 31.67Q95.35 31.90 95.23 32.14L95.23 32.14Q94.97 32.59 94.54 33.06Q94.10 33.53 93.53 33.83Q92.95 34.13 92.21 34.13ZM99.34 34.13L99.34 34.13Q97.92 34.13 97.37 33.16Q96.82 32.18 97.42 30.34L97.42 30.34L100.13 21.98Q100.25 21.60 100.44 21.48Q100.63 21.36 101.04 21.36L101.04 21.36Q101.59 21.36 101.77 21.54Q101.95 21.72 101.81 22.10L101.81 22.10L99.00 30.82Q98.69 31.73 98.84 32.20Q99.00 32.66 99.53 32.66L99.53 32.66Q99.91 32.66 100.25 32.47Q100.58 32.28 100.85 31.98Q101.11 31.68 101.28 31.42L101.28 31.42Q101.40 31.22 101.63 31.13Q101.86 31.03 102.19 31.25L102.19 31.25Q102.53 31.44 102.54 31.67Q102.55 31.90 102.41 32.14L102.41 32.14Q102.14 32.59 101.70 33.06Q101.26 33.53 100.67 33.83Q100.08 34.13 99.34 34.13ZM102.46 17.50L102.46 17.50Q102.00 17.50 101.69 17.23Q101.38 16.97 101.38 16.44L101.38 16.44Q101.38 15.84 101.77 15.32Q102.17 14.81 102.94 14.81L102.94 14.81Q103.39 14.81 103.70 15.06Q104.02 15.31 104.02 15.84L104.02 15.84Q104.02 16.44 103.63 16.97Q103.25 17.50 102.46 17.50ZM107.23 34.13L107.23 34.13Q106.06 34.13 105.52 33.58Q104.98 33.02 104.98 32.05Q104.98 31.08 105.38 29.78L105.38 29.78L107.50 23.26L105.53 23.26Q105.26 23.26 105.19 23.06Q105.12 22.87 105.22 22.49L105.22 22.49Q105.34 22.10 105.52 21.91Q105.70 21.72 105.96 21.72L105.96 21.72L108.00 21.72L109.58 16.82Q109.70 16.44 109.90 16.32Q110.09 16.20 110.50 16.20L110.50 16.20Q111.07 16.20 111.24 16.38Q111.41 16.56 111.26 16.94L111.26 16.94L109.73 21.72L112.80 21.72Q113.06 21.72 113.14 21.90Q113.21 22.08 113.11 22.49L113.11 22.49Q112.99 22.87 112.80 23.06Q112.61 23.26 112.34 23.26L112.34 23.26L109.25 23.26L106.87 30.62Q106.54 31.68 106.74 32.17Q106.94 32.66 107.50 32.66L107.50 32.66Q108.29 32.66 108.88 32.16Q109.46 31.66 109.78 31.18L109.78 31.18Q109.90 31.01 110.11 30.91Q110.33 30.82 110.66 31.03L110.66 31.03Q111.00 31.22 111.02 31.44Q111.05 31.66 110.90 31.90L110.90 31.90Q110.62 32.42 110.11 32.94Q109.61 33.46 108.91 33.79Q108.22 34.13 107.23 34.13ZM118.08 34.18L118.08 34.18Q116.64 34.18 115.67 33.55Q114.70 32.93 114.22 31.88Q113.74 30.84 113.74 29.50L113.74 29.50Q113.74 28.06 114.24 26.59Q114.74 25.13 115.70 23.92Q116.66 22.70 118.08 21.98Q119.50 21.26 121.32 21.26L121.32 21.26Q122.38 21.26 123.16 21.59Q123.94 21.91 124.34 22.49Q124.75 23.06 124.75 23.90L124.75 23.90Q124.75 24.91 124.26 25.73Q123.77 26.54 122.88 27.16Q121.99 27.77 120.76 28.18Q119.52 28.58 118.03 28.80Q116.54 29.02 114.86 29.02L114.86 29.02L115.32 27.62Q116.64 27.62 117.80 27.46Q118.97 27.29 119.92 26.99Q120.86 26.69 121.56 26.27Q122.26 25.85 122.63 25.33Q123.00 24.82 123.00 24.26L123.00 24.26Q123.00 23.54 122.56 23.18Q122.11 22.82 121.10 22.82L121.10 22.82Q119.71 22.82 118.67 23.44Q117.62 24.05 116.92 25.06Q116.21 26.06 115.85 27.22Q115.49 28.37 115.49 29.45L115.49 29.45Q115.49 30.50 115.86 31.21Q116.23 31.92 116.87 32.27Q117.50 32.62 118.27 32.62L118.27 32.62Q119.04 32.62 119.65 32.39Q120.26 32.16 120.77 31.76Q121.27 31.37 121.73 30.98L121.73 30.98Q122.02 30.74 122.26 30.77Q122.50 30.79 122.71 31.01L122.71 31.01Q122.95 31.25 123.00 31.52Q123.05 31.80 122.81 32.04L122.81 32.04Q122.14 32.66 121.40 33.16Q120.67 33.65 119.84 33.91Q119.02 34.18 118.08 34.18ZM137.30 34.15L137.30 34.15Q136.34 34.15 135.49 33.85Q134.64 33.55 133.97 33Q133.30 32.45 132.86 31.63L132.86 31.63Q132.72 31.37 132.82 31.13Q132.91 30.89 133.25 30.67L133.25 30.67Q133.56 30.48 133.76 30.53Q133.97 30.58 134.21 30.82L134.21 30.82Q134.83 31.63 135.60 32.08Q136.37 32.52 137.40 32.52L137.40 32.52Q138.36 32.52 139.07 32.11Q139.78 31.70 140.34 30.82Q140.90 29.93 141.34 28.56L141.34 28.56L146.69 12.12Q146.35 12.34 145.91 12.46Q145.46 12.58 144.86 12.58L144.86 12.58Q144.43 12.58 143.99 12.48Q143.54 12.38 143.12 12.26Q142.70 12.14 142.32 12.05Q141.94 11.95 141.60 11.95L141.60 11.95Q141.17 11.95 140.81 12.11Q140.45 12.26 140.18 12.60Q139.92 12.94 139.73 13.49L139.73 13.49Q139.61 13.87 139.43 14.02Q139.25 14.16 138.82 14.16L138.82 14.16Q138.29 14.16 138.14 13.96Q138 13.75 138.07 13.46L138.07 13.46Q138.31 12.50 138.79 11.81Q139.27 11.11 139.99 10.73Q140.71 10.34 141.70 10.34L141.70 10.34Q142.22 10.34 142.70 10.44Q143.18 10.54 143.64 10.67Q144.10 10.80 144.52 10.90Q144.94 10.99 145.37 10.99L145.37 10.99Q146.06 10.99 146.53 10.73Q147 10.46 147.41 10.18L147.41 10.18Q147.60 10.01 147.77 9.92Q147.94 9.84 148.22 9.84L148.22 9.84Q148.68 9.84 148.87 9.98Q149.06 10.13 148.97 10.46L148.97 10.46L142.97 28.85Q142.42 30.67 141.61 31.85Q140.81 33.02 139.75 33.59Q138.70 34.15 137.30 34.15ZM154.34 34.18L154.34 34.18Q152.40 34.18 151.02 33.53Q149.64 32.88 148.90 31.73Q148.15 30.58 148.15 29.04L148.15 29.04Q148.15 27.67 148.66 26.40Q149.16 25.13 150.07 24.08Q150.98 23.04 152.21 22.31Q153.43 21.58 154.90 21.29L154.90 21.29Q154.06 21.02 153.43 20.41Q152.81 19.80 152.46 18.96Q152.11 18.12 152.11 17.16L152.11 17.16Q152.11 15.96 152.51 14.86Q152.90 13.75 153.62 12.83Q154.34 11.90 155.36 11.23Q156.38 10.56 157.67 10.19Q158.95 9.82 160.42 9.82L160.42 9.82Q161.71 9.82 162.78 10.14Q163.85 10.46 164.72 11.04Q165.60 11.62 166.18 12.46L166.18 12.46Q166.42 12.74 166.38 13.00Q166.34 13.25 166.03 13.51L166.03 13.51Q165.74 13.75 165.50 13.69Q165.26 13.63 164.90 13.34L164.90 13.34Q164.30 12.74 163.57 12.34Q162.84 11.93 161.95 11.71Q161.06 11.50 160.03 11.50L160.03 11.50Q158.62 11.50 157.49 11.95Q156.36 12.41 155.56 13.21Q154.75 14.02 154.33 15.02Q153.91 16.03 153.91 17.11L153.91 17.11Q153.91 18.10 154.32 18.88Q154.73 19.66 155.58 20.14Q156.43 20.62 157.80 20.62L157.80 20.62L160.97 20.62Q161.28 20.62 161.35 20.78Q161.42 20.95 161.30 21.38L161.30 21.38Q161.18 21.79 160.99 21.98Q160.80 22.18 160.51 22.18L160.51 22.18L157.46 22.18Q155.93 22.18 154.56 22.69Q153.19 23.21 152.16 24.13Q151.13 25.06 150.55 26.26Q149.98 27.46 149.98 28.78L149.98 28.78Q149.98 29.98 150.55 30.79Q151.13 31.61 152.21 32.04Q153.29 32.47 154.78 32.47L154.78 32.47Q155.93 32.47 157.07 32.12Q158.21 31.78 159.34 31.06Q160.46 30.34 161.54 29.23L161.54 29.23Q161.88 28.87 162.13 28.88Q162.38 28.90 162.67 29.21L162.67 29.21Q163.01 29.52 162.94 29.77Q162.86 30.02 162.50 30.38L162.50 30.38Q161.11 31.78 159.73 32.62Q158.35 33.46 157.00 33.82Q155.64 34.18 154.34 34.18ZM179.35 34.18L179.35 34.18Q178.03 34.18 176.76 33.80Q175.49 33.43 174.36 32.68Q173.23 31.92 172.32 30.79L172.32 30.79Q171.96 30.36 171.91 30.08Q171.86 29.81 172.25 29.52L172.25 29.52Q172.58 29.18 172.82 29.22Q173.06 29.26 173.38 29.62L173.38 29.62Q174.24 30.65 175.16 31.30Q176.09 31.94 177.14 32.27Q178.20 32.59 179.57 32.59L179.57 32.59Q181.20 32.59 182.41 32.11Q183.62 31.63 184.46 30.80Q185.30 29.98 185.71 28.86Q186.12 27.74 186.12 26.42L186.12 26.42Q186.12 25.01 185.58 23.99Q185.04 22.97 183.98 22.42Q182.93 21.86 181.44 21.86L181.44 21.86L179.83 21.86Q179.64 21.86 179.54 21.68Q179.45 21.50 179.54 21.07L179.54 21.07Q179.64 20.69 179.86 20.50Q180.07 20.30 180.29 20.30L180.29 20.30L181.80 20.30Q183.26 20.30 184.49 19.96Q185.71 19.61 186.64 18.92Q187.56 18.24 188.08 17.23Q188.59 16.22 188.59 14.90L188.59 14.90Q188.59 14.06 188.32 13.42Q188.04 12.77 187.50 12.31Q186.96 11.86 186.23 11.63Q185.50 11.40 184.58 11.40L184.58 11.40Q183.58 11.40 182.71 11.63Q181.85 11.86 181.01 12.28Q180.17 12.70 179.26 13.34L179.26 13.34Q178.85 13.63 178.57 13.63Q178.30 13.63 177.98 13.27L177.98 13.27Q177.72 12.98 177.78 12.73Q177.84 12.48 178.27 12.14L178.27 12.14Q179.09 11.47 180.14 10.94Q181.20 10.42 182.40 10.12Q183.60 9.82 184.90 9.82L184.90 9.82Q186.02 9.82 187.01 10.16Q187.99 10.51 188.76 11.14Q189.53 11.76 189.96 12.68Q190.39 13.61 190.39 14.76L190.39 14.76Q190.39 16.01 190.01 17.08Q189.62 18.14 188.89 18.98Q188.16 19.82 187.06 20.40Q185.95 20.98 184.49 21.26L184.49 21.26Q185.59 21.55 186.36 22.33Q187.13 23.11 187.55 24.14Q187.97 25.18 187.97 26.33L187.97 26.33Q187.97 28.01 187.37 29.44Q186.77 30.86 185.66 31.93Q184.56 33 182.96 33.59Q181.37 34.18 179.35 34.18ZM197.88 34.18L197.88 34.18Q196.15 34.18 194.78 33.42Q193.42 32.66 192.64 31.09Q191.86 29.52 191.86 27.10L191.86 27.10Q191.86 25.22 192.24 23.23Q192.62 21.24 193.38 19.30Q194.14 17.35 195.24 15.65Q196.34 13.94 197.75 12.62Q199.15 11.30 200.87 10.56Q202.58 9.82 204.55 9.82L204.55 9.82Q206.30 9.82 207.65 10.57Q208.99 11.33 209.78 12.88Q210.58 14.42 210.58 16.82L210.58 16.82Q210.58 18.70 210.18 20.72Q209.78 22.75 209.03 24.70Q208.27 26.64 207.18 28.34Q206.09 30.05 204.67 31.36Q203.26 32.66 201.56 33.42Q199.87 34.18 197.88 34.18ZM198.34 32.50L198.34 32.50Q199.82 32.50 201.18 31.84Q202.54 31.18 203.70 30.01Q204.86 28.85 205.79 27.32Q206.71 25.80 207.37 24.10Q208.03 22.39 208.38 20.63Q208.73 18.86 208.70 17.23L208.70 17.23Q208.70 15.10 208.14 13.85Q207.58 12.60 206.56 12.05Q205.54 11.50 204.14 11.50L204.14 11.50Q202.63 11.50 201.28 12.16Q199.92 12.82 198.76 13.98Q197.59 15.14 196.64 16.66Q195.70 18.17 195.04 19.87Q194.38 21.58 194.03 23.33Q193.68 25.08 193.68 26.69L193.68 26.69Q193.68 28.85 194.26 30.13Q194.83 31.42 195.89 31.96Q196.94 32.50 198.34 32.50ZM217.87 34.18L217.87 34.18Q216.14 34.18 214.78 33.42Q213.41 32.66 212.63 31.09Q211.85 29.52 211.85 27.10L211.85 27.10Q211.85 25.22 212.23 23.23Q212.62 21.24 213.37 19.30Q214.13 17.35 215.23 15.65Q216.34 13.94 217.74 12.62Q219.14 11.30 220.86 10.56Q222.58 9.82 224.54 9.82L224.54 9.82Q226.30 9.82 227.64 10.57Q228.98 11.33 229.78 12.88Q230.57 14.42 230.57 16.82L230.57 16.82Q230.57 18.70 230.17 20.72Q229.78 22.75 229.02 24.70Q228.26 26.64 227.17 28.34Q226.08 30.05 224.66 31.36Q223.25 32.66 221.56 33.42Q219.86 34.18 217.87 34.18ZM218.33 32.50L218.33 32.50Q219.82 32.50 221.17 31.84Q222.53 31.18 223.69 30.01Q224.86 28.85 225.78 27.32Q226.70 25.80 227.36 24.10Q228.02 22.39 228.37 20.63Q228.72 18.86 228.70 17.23L228.70 17.23Q228.70 15.10 228.13 13.85Q227.57 12.60 226.55 12.05Q225.53 11.50 224.14 11.50L224.14 11.50Q222.62 11.50 221.27 12.16Q219.91 12.82 218.75 13.98Q217.58 15.14 216.64 16.66Q215.69 18.17 215.03 19.87Q214.37 21.58 214.02 23.33Q213.67 25.08 213.67 26.69L213.67 26.69Q213.67 28.85 214.25 30.13Q214.82 31.42 215.88 31.96Q216.94 32.50 218.33 32.50ZM248.38 34.13L248.38 34.13Q247.49 34.13 246.98 33.82Q246.48 33.50 246.29 32.95Q246.10 32.40 246.18 31.66Q246.26 30.91 246.53 30.07L246.53 30.07L248.02 25.54Q248.28 24.67 248.18 24.06Q248.09 23.45 247.62 23.12Q247.15 22.80 246.29 22.80L246.29 22.80Q245.59 22.80 244.88 23.03Q244.18 23.26 243.49 23.72Q242.81 24.19 242.18 24.89Q241.56 25.58 241.03 26.52L241.03 26.52L238.75 33.55Q238.68 33.82 238.48 33.95Q238.27 34.08 237.82 34.08L237.82 34.08Q237.48 34.08 237.22 33.94Q236.95 33.79 237.07 33.43L237.07 33.43L240.77 21.98Q240.91 21.60 241.10 21.48Q241.30 21.36 241.68 21.36L241.68 21.36Q242.26 21.36 242.44 21.54Q242.62 21.72 242.47 22.10L242.47 22.10L241.97 23.69Q242.52 23.04 243.13 22.58Q243.74 22.13 244.37 21.83Q244.99 21.53 245.62 21.40Q246.24 21.26 246.82 21.26L246.82 21.26Q248.18 21.26 248.93 21.88Q249.67 22.49 249.83 23.59Q249.98 24.70 249.48 26.23L249.48 26.23L247.99 30.89Q247.87 31.34 247.84 31.75Q247.80 32.16 247.96 32.41Q248.11 32.66 248.54 32.66L248.54 32.66Q248.93 32.66 249.26 32.47Q249.60 32.28 249.86 31.98Q250.13 31.68 250.30 31.42L250.30 31.42Q250.42 31.22 250.63 31.13Q250.85 31.03 251.18 31.25L251.18 31.25Q251.52 31.44 251.53 31.67Q251.54 31.90 251.40 32.14L251.40 32.14Q251.16 32.59 250.72 33.06Q250.27 33.53 249.70 33.83Q249.12 34.13 248.38 34.13ZM257.69 34.18L257.69 34.18Q256.27 34.18 255.29 33.59Q254.30 33 253.81 31.96Q253.32 30.91 253.32 29.59L253.32 29.59Q253.32 28.30 253.78 26.84Q254.23 25.39 255.14 24.12Q256.06 22.85 257.42 22.06Q258.79 21.26 260.59 21.26L260.59 21.26Q261.98 21.26 262.96 21.82Q263.93 22.37 264.42 23.36Q264.91 24.36 264.91 25.68L264.91 25.68Q264.91 26.66 264.64 27.80Q264.36 28.94 263.80 30.07Q263.23 31.20 262.37 32.12Q261.50 33.05 260.33 33.61Q259.15 34.18 257.69 34.18ZM257.88 32.62L257.88 32.62Q259.18 32.62 260.16 31.94Q261.14 31.27 261.80 30.22Q262.46 29.16 262.80 28.01Q263.14 26.86 263.14 25.85L263.14 25.85Q263.14 24.89 262.81 24.22Q262.49 23.54 261.88 23.18Q261.26 22.82 260.40 22.82L260.40 22.82Q259.10 22.82 258.11 23.48Q257.11 24.14 256.44 25.18Q255.77 26.21 255.43 27.36Q255.10 28.51 255.10 29.47L255.10 29.47Q255.10 30.46 255.42 31.16Q255.74 31.87 256.38 32.24Q257.02 32.62 257.88 32.62ZM262.85 34.13L262.85 34.13Q262.49 34.13 262.37 33.90Q262.25 33.67 262.32 33.38Q262.39 33.10 262.64 32.87Q262.90 32.64 263.28 32.64L263.28 32.64Q264.05 32.64 264.88 32.09Q265.70 31.54 266.56 30.37Q267.41 29.21 268.28 27.35Q269.16 25.49 270.05 22.87L270.05 22.87L271.20 23.47Q270.14 26.54 269.12 28.61Q268.10 30.67 267.11 31.88Q266.11 33.10 265.06 33.61Q264.00 34.13 262.85 34.13ZM276.10 34.13L276.10 34.13Q275.30 34.13 274.80 33.88Q274.30 33.62 274.07 33.17Q273.84 32.71 273.86 32.08Q273.89 31.44 274.13 30.65L274.13 30.65Q274.32 30.02 274.64 29.29Q274.97 28.56 275.32 27.76Q275.66 26.95 276.00 26.17Q276.34 25.39 276.53 24.67L276.53 24.67Q276.77 23.76 276.48 23.45Q276.19 23.14 275.69 23.14L275.69 23.14Q275.11 23.14 274.36 23.35Q273.60 23.57 272.78 23.78Q271.97 24 271.25 24L271.25 24Q270.72 24 270.37 23.74Q270.02 23.47 269.87 23.02Q269.71 22.56 269.71 22.03L269.71 22.03Q269.71 21.50 269.88 21.02Q270.05 20.54 270.37 20.23Q270.70 19.92 271.15 19.92L271.15 19.92Q271.66 19.92 271.86 20.20Q272.06 20.47 272.06 20.86L272.06 20.86Q272.06 21.24 271.92 21.71Q271.78 22.18 271.56 22.51L271.56 22.51Q272.16 22.54 272.93 22.28Q273.70 22.03 274.56 21.77Q275.42 21.50 276.26 21.50L276.26 21.50Q276.98 21.50 277.51 21.83Q278.04 22.15 278.24 22.90Q278.45 23.64 278.11 24.91L278.11 24.91Q277.92 25.58 277.61 26.35Q277.30 27.12 276.92 27.92Q276.55 28.73 276.22 29.52Q275.88 30.31 275.66 31.06L275.66 31.06Q275.40 31.87 275.57 32.27Q275.74 32.66 276.24 32.66L276.24 32.66Q276.62 32.66 276.96 32.47Q277.30 32.28 277.56 31.98Q277.82 31.68 277.99 31.42L277.99 31.42Q278.11 31.22 278.33 31.13Q278.54 31.03 278.88 31.25L278.88 31.25Q279.22 31.44 279.23 31.67Q279.24 31.90 279.12 32.14L279.12 32.14Q278.86 32.59 278.42 33.06Q277.99 33.53 277.42 33.83Q276.84 34.13 276.10 34.13ZM299.26 34.13L299.26 34.13Q298.37 34.13 297.86 33.82Q297.36 33.50 297.17 32.95Q296.98 32.40 297.06 31.66Q297.14 30.91 297.41 30.07L297.41 30.07L298.87 25.54Q299.14 24.77 299.10 24.16Q299.06 23.54 298.67 23.17Q298.27 22.80 297.41 22.80L297.41 22.80Q296.71 22.80 296.00 23.06Q295.30 23.33 294.60 23.83Q293.90 24.34 293.29 25.07Q292.68 25.80 292.15 26.81L292.15 26.81L291.46 26.81Q291.96 25.34 292.72 24.29Q293.47 23.23 294.37 22.56Q295.27 21.89 296.21 21.58Q297.14 21.26 298.01 21.26L298.01 21.26Q299.28 21.26 299.95 21.91Q300.62 22.56 300.73 23.69Q300.84 24.82 300.38 26.23L300.38 26.23L298.90 30.89Q298.73 31.34 298.69 31.75Q298.66 32.16 298.82 32.41Q298.99 32.66 299.42 32.66L299.42 32.66Q299.81 32.66 300.13 32.47Q300.46 32.28 300.73 31.98Q301.01 31.68 301.18 31.42L301.18 31.42Q301.27 31.22 301.49 31.13Q301.70 31.03 302.04 31.25L302.04 31.25Q302.38 31.44 302.39 31.67Q302.40 31.90 302.28 32.14L302.28 32.14Q302.02 32.59 301.58 33.06Q301.15 33.53 300.58 33.83Q300 34.13 299.26 34.13ZM281.04 34.08L281.04 34.08Q280.70 34.08 280.45 33.94Q280.20 33.79 280.32 33.43L280.32 33.43L284.02 21.98Q284.16 21.60 284.34 21.48Q284.52 21.36 284.93 21.36L284.93 21.36Q285.50 21.36 285.67 21.54Q285.84 21.72 285.72 22.10L285.72 22.10L285.22 23.66Q285.77 23.02 286.37 22.56Q286.97 22.10 287.58 21.82Q288.19 21.53 288.80 21.40Q289.42 21.26 289.99 21.26L289.99 21.26Q291.29 21.26 291.97 21.91Q292.66 22.56 292.75 23.69Q292.85 24.82 292.39 26.23L292.39 26.23L290.02 33.55Q289.92 33.82 289.73 33.95Q289.54 34.08 289.08 34.08L289.08 34.08Q288.74 34.08 288.49 33.94Q288.24 33.79 288.34 33.43L288.34 33.43L290.90 25.54Q291.14 24.77 291.12 24.16Q291.10 23.54 290.70 23.17Q290.30 22.80 289.39 22.80L289.39 22.80Q288.74 22.80 288.05 23.04Q287.35 23.28 286.68 23.76Q286.01 24.24 285.40 24.94Q284.78 25.63 284.28 26.57L284.28 26.57L282 33.55Q281.90 33.82 281.70 33.95Q281.50 34.08 281.04 34.08ZM307.54 34.13L307.54 34.13Q306.46 34.13 305.69 33.65Q304.92 33.17 304.50 32.26Q304.08 31.34 304.08 30.10L304.08 30.10Q304.08 29.02 304.37 27.82Q304.66 26.62 305.26 25.45Q305.86 24.29 306.77 23.34Q307.68 22.39 308.93 21.83Q310.18 21.26 311.78 21.26L311.78 21.26Q312.60 21.26 313.40 21.53Q314.21 21.79 314.88 22.27L314.88 22.27L314.95 21.98Q315.10 21.60 315.29 21.48Q315.48 21.36 315.86 21.36L315.86 21.36Q316.46 21.36 316.62 21.56Q316.78 21.77 316.66 22.15L316.66 22.15L313.80 30.89Q313.66 31.34 313.63 31.75Q313.61 32.16 313.78 32.41Q313.94 32.66 314.38 32.66L314.38 32.66Q314.76 32.66 315.08 32.47Q315.41 32.28 315.66 31.99Q315.91 31.70 316.08 31.42L316.08 31.42Q316.22 31.22 316.44 31.13Q316.66 31.03 316.99 31.25L316.99 31.25Q317.33 31.44 317.34 31.67Q317.35 31.90 317.23 32.14L317.23 32.14Q316.97 32.59 316.55 33.06Q316.13 33.53 315.54 33.83Q314.95 34.13 314.21 34.13L314.21 34.13Q313.61 34.13 313.18 33.97Q312.74 33.82 312.47 33.54Q312.19 33.26 312.06 32.87Q311.93 32.47 311.95 31.99L311.95 31.99Q311.95 31.92 311.96 31.85Q311.98 31.78 311.98 31.70L311.98 31.70Q311.18 32.69 310.37 33.23Q309.55 33.77 308.82 33.95Q308.09 34.13 307.54 34.13ZM305.88 29.93L305.88 29.93Q305.88 30.77 306.12 31.36Q306.36 31.94 306.84 32.26Q307.32 32.57 308.06 32.57L308.06 32.57Q308.88 32.57 309.67 32.16Q310.46 31.75 311.24 30.94Q312.02 30.12 312.72 28.90L312.72 28.90L314.45 23.57Q313.73 23.11 313.10 22.96Q312.48 22.80 311.83 22.80L311.83 22.80Q310.51 22.80 309.53 23.27Q308.54 23.74 307.85 24.53Q307.15 25.32 306.71 26.27Q306.26 27.22 306.07 28.18Q305.88 29.14 305.88 29.93ZM314.59 34.13L314.59 34.13Q314.23 34.13 314.12 33.90Q314.02 33.67 314.09 33.38Q314.16 33.10 314.40 32.87Q314.64 32.64 314.98 32.64L314.98 32.64Q315.82 32.64 316.81 32.15Q317.81 31.66 318.91 30.77Q320.02 29.88 321.13 28.72Q322.25 27.55 323.33 26.16Q324.41 24.77 325.39 23.29Q326.38 21.82 327.20 20.34Q328.03 18.86 328.66 17.46Q329.28 16.06 329.63 14.84Q329.98 13.63 329.98 12.74L329.98 12.74Q329.98 12.43 330.24 12.26Q330.50 12.10 330.84 12.10Q331.18 12.10 331.43 12.26Q331.68 12.43 331.68 12.74L331.68 12.74Q331.68 13.70 331.31 15Q330.94 16.30 330.25 17.78Q329.57 19.27 328.62 20.87Q327.67 22.46 326.56 24.06Q325.44 25.66 324.22 27.14Q322.99 28.63 321.73 29.90Q320.47 31.18 319.21 32.11Q317.95 33.05 316.78 33.59Q315.60 34.13 314.59 34.13ZM322.06 34.13L322.06 34.13Q321.19 34.13 320.68 33.82Q320.16 33.50 319.97 32.95Q319.78 32.40 319.85 31.66Q319.92 30.91 320.18 30.05L320.18 30.05L325.58 13.34Q326.21 11.42 327.10 10.57Q327.98 9.72 329.26 9.72L329.26 9.72Q330.02 9.72 330.56 10.09Q331.10 10.46 331.39 11.12Q331.68 11.78 331.68 12.74L331.68 12.74Q331.68 13.10 331.43 13.30Q331.18 13.49 330.84 13.49Q330.50 13.49 330.24 13.30Q329.98 13.10 329.98 12.74L329.98 12.74Q329.98 12.29 329.86 11.98Q329.74 11.66 329.52 11.51Q329.30 11.35 328.97 11.35L328.97 11.35Q328.66 11.35 328.34 11.58Q328.03 11.81 327.77 12.28Q327.50 12.74 327.24 13.56L327.24 13.56L321.67 30.89Q321.53 31.34 321.50 31.75Q321.48 32.16 321.65 32.41Q321.82 32.66 322.25 32.66L322.25 32.66Q322.63 32.66 322.96 32.47Q323.28 32.28 323.54 31.98Q323.81 31.68 323.98 31.42L323.98 31.42Q324.10 31.22 324.31 31.13Q324.53 31.03 324.89 31.25L324.89 31.25Q325.22 31.44 325.22 31.67Q325.22 31.90 325.10 32.14L325.10 32.14Q324.84 32.59 324.41 33.06Q323.98 33.53 323.40 33.83Q322.82 34.13 322.06 34.13Z"/></svg>