<svg xmlns="http://www.w3.org/2000/svg" xmlns:xlink="http://www.w3.org/1999/xlink" width="337.44" height="31.296"><path fill="black" d="M15.10 4.37L15.10 21.50L13.61 21.50L3.67 6.53L3.60 6.53Q3.65 7.15 3.66 7.82Q3.67 8.50 3.70 9.20Q3.72 9.91 3.72 10.68L3.72 10.68L3.72 21.50L2.40 21.50L2.40 4.37L3.89 4.37L13.80 19.30L13.87 19.30Q13.85 18.79 13.82 18.10Q13.80 17.40 13.79 16.64Q13.78 15.89 13.78 15.24L13.78 15.24L13.78 4.37L15.10 4.37ZM30.29 15.10L30.29 15.10Q30.29 16.61 29.92 17.82Q29.54 19.03 28.81 19.91Q28.08 20.78 27.01 21.26Q25.94 21.74 24.55 21.74L24.55 21.74Q23.23 21.74 22.18 21.28Q21.12 20.81 20.39 19.93Q19.66 19.06 19.26 17.83Q18.86 16.61 18.86 15.10L18.86 15.10Q18.86 13.03 19.56 11.56Q20.26 10.08 21.55 9.29Q22.85 8.50 24.65 8.50L24.65 8.50Q26.50 8.50 27.74 9.32Q28.99 10.15 29.64 11.63Q30.29 13.10 30.29 15.10ZM20.28 15.10L20.28 15.10Q20.28 16.73 20.75 17.96Q21.22 19.20 22.16 19.88Q23.11 20.57 24.58 20.57L24.58 20.57Q26.06 20.57 27.01 19.88Q27.96 19.20 28.42 17.96Q28.87 16.73 28.87 15.10L28.87 15.10Q28.87 13.51 28.44 12.29Q28.01 11.06 27.07 10.37Q26.14 9.67 24.62 9.67L24.62 9.67Q22.46 9.67 21.37 11.11Q20.28 12.55 20.28 15.10ZM37.37 20.57L37.37 20.57Q37.92 20.57 38.40 20.48Q38.88 20.40 39.22 20.28L39.22 20.28L39.22 21.38Q38.86 21.53 38.33 21.64Q37.80 21.74 37.20 21.74L37.20 21.74Q36.14 21.74 35.40 21.35Q34.66 20.95 34.26 20.11Q33.86 19.27 33.86 17.95L33.86 17.95L33.86 9.84L31.97 9.84L31.97 9.07L33.86 8.62L34.34 5.69L35.23 5.69L35.23 8.74L39.14 8.74L39.14 9.84L35.23 9.84L35.23 17.88Q35.23 19.20 35.75 19.88Q36.26 20.57 37.37 20.57ZM52.61 15.10L52.61 15.10Q52.61 16.61 52.24 17.82Q51.86 19.03 51.13 19.91Q50.40 20.78 49.33 21.26Q48.26 21.74 46.87 21.74L46.87 21.74Q45.55 21.74 44.50 21.28Q43.44 20.81 42.71 19.93Q41.98 19.06 41.58 17.83Q41.18 16.61 41.18 15.10L41.18 15.10Q41.18 13.03 41.88 11.56Q42.58 10.08 43.87 9.29Q45.17 8.50 46.97 8.50L46.97 8.50Q48.82 8.50 50.06 9.32Q51.31 10.15 51.96 11.63Q52.61 13.10 52.61 15.10ZM42.60 15.10L42.60 15.10Q42.60 16.73 43.07 17.96Q43.54 19.20 44.48 19.88Q45.43 20.57 46.90 20.57L46.90 20.57Q48.38 20.57 49.33 19.88Q50.28 19.20 50.74 17.96Q51.19 16.73 51.19 15.10L51.19 15.10Q51.19 13.51 50.76 12.29Q50.33 11.06 49.39 10.37Q48.46 9.67 46.94 9.67L46.94 9.67Q44.78 9.67 43.69 11.11Q42.60 12.55 42.60 15.10ZM73.06 17.04L73.06 17.04Q73.06 18.58 72.29 19.62Q71.52 20.66 70.18 21.20Q68.83 21.74 67.13 21.74L67.13 21.74Q66.10 21.74 65.24 21.64Q64.39 21.53 63.70 21.36Q63 21.19 62.45 20.98L62.45 20.98L62.45 19.61Q63.36 19.97 64.57 20.23Q65.78 20.50 67.20 20.50L67.20 20.50Q68.52 20.50 69.52 20.12Q70.51 19.75 71.08 19.00Q71.64 18.24 71.64 17.14L71.64 17.14Q71.64 16.10 71.17 15.46Q70.70 14.81 69.73 14.32Q68.76 13.82 67.25 13.32L67.25 13.32Q66.17 12.94 65.32 12.53Q64.46 12.12 63.86 11.57Q63.26 11.02 62.95 10.26Q62.64 9.50 62.64 8.47L62.64 8.47Q62.64 7.06 63.36 6.10Q64.08 5.14 65.32 4.63Q66.55 4.13 68.11 4.13L68.11 4.13Q69.38 4.13 70.50 4.36Q71.62 4.58 72.62 5.04L72.62 5.04L72.17 6.24Q71.16 5.81 70.13 5.59Q69.10 5.38 68.06 5.38L68.06 5.38Q66.89 5.38 65.99 5.72Q65.09 6.07 64.57 6.76Q64.06 7.44 64.06 8.45L64.06 8.45Q64.06 9.53 64.54 10.20Q65.02 10.87 65.94 11.33Q66.86 11.78 68.16 12.24L68.16 12.24Q69.70 12.74 70.79 13.33Q71.88 13.92 72.47 14.80Q73.06 15.67 73.06 17.04ZM80.88 8.52L80.88 8.52Q83.04 8.52 84.10 9.56Q85.15 10.61 85.15 12.91L85.15 12.91L85.15 21.50L84.12 21.50L83.88 19.34L83.81 19.34Q83.35 20.06 82.76 20.60Q82.18 21.14 81.35 21.44Q80.52 21.74 79.34 21.74L79.34 21.74Q78.12 21.74 77.23 21.32Q76.34 20.90 75.86 20.11Q75.38 19.32 75.38 18.17L75.38 18.17Q75.38 16.25 76.94 15.25Q78.50 14.26 81.48 14.14L81.48 14.14L83.81 14.02L83.81 13.13Q83.81 11.23 83.05 10.45Q82.30 9.67 80.83 9.67L80.83 9.67Q79.85 9.67 78.94 9.92Q78.02 10.18 77.11 10.63L77.11 10.63L76.68 9.53Q77.59 9.10 78.66 8.81Q79.73 8.52 80.88 8.52ZM83.81 15.05L81.65 15.14Q79.22 15.26 78.02 16.00Q76.82 16.73 76.82 18.17L76.82 18.17Q76.82 19.34 77.56 19.97Q78.29 20.59 79.58 20.59L79.58 20.59Q81.60 20.59 82.69 19.45Q83.78 18.31 83.81 16.30L83.81 16.30L83.81 15.05ZM94.94 8.50L94.94 8.50Q97.13 8.50 98.28 9.61Q99.43 10.73 99.43 13.15L99.43 13.15L99.43 21.50L98.09 21.50L98.09 13.25Q98.09 11.40 97.25 10.54Q96.41 9.67 94.80 9.67L94.80 9.67Q92.69 9.67 91.64 10.90Q90.60 12.12 90.60 14.54L90.60 14.54L90.60 21.50L89.23 21.50L89.23 8.74L90.34 8.74L90.53 10.94L90.62 10.94Q90.98 10.22 91.58 9.67Q92.18 9.12 93.02 8.81Q93.86 8.50 94.94 8.50ZM111.58 18.12L111.58 18.12Q111.58 19.27 111 20.08Q110.42 20.88 109.32 21.31Q108.22 21.74 106.63 21.74L106.63 21.74Q105.29 21.74 104.27 21.50Q103.25 21.26 102.53 20.93L102.53 20.93L102.53 19.61Q103.39 20.02 104.46 20.30Q105.53 20.59 106.66 20.59L106.66 20.59Q108.55 20.59 109.39 19.94Q110.23 19.30 110.23 18.22L110.23 18.22Q110.23 17.50 109.84 17.03Q109.44 16.56 108.66 16.19Q107.88 15.82 106.73 15.43L106.73 15.43Q105.55 15.02 104.64 14.60Q103.73 14.18 103.22 13.54Q102.72 12.89 102.72 11.76L102.72 11.76Q102.72 10.20 103.97 9.35Q105.22 8.50 107.30 8.50L107.30 8.50Q108.46 8.50 109.46 8.71Q110.47 8.93 111.29 9.29L111.29 9.29L110.78 10.42Q110.04 10.08 109.12 9.86Q108.19 9.65 107.23 9.65L107.23 9.65Q105.72 9.65 104.88 10.18Q104.04 10.70 104.04 11.71L104.04 11.71Q104.04 12.46 104.45 12.90Q104.86 13.34 105.64 13.67Q106.42 13.99 107.50 14.38L107.50 14.38Q108.65 14.78 109.57 15.22Q110.50 15.65 111.04 16.32Q111.58 16.99 111.58 18.12ZM129.14 14.04L129.14 12.77L135.38 12.77L135.38 20.74Q134.11 21.24 132.71 21.49Q131.30 21.74 129.70 21.74L129.70 21.74Q126.98 21.74 125.12 20.70Q123.26 19.66 122.30 17.69Q121.34 15.72 121.34 12.96L121.34 12.96Q121.34 10.34 122.40 8.35Q123.46 6.36 125.41 5.23Q127.37 4.10 130.13 4.10L130.13 4.10Q131.52 4.10 132.78 4.36Q134.04 4.61 135.17 5.14L135.17 5.14L134.62 6.36Q133.54 5.86 132.38 5.60Q131.23 5.35 130.06 5.35L130.06 5.35Q127.80 5.35 126.17 6.31Q124.54 7.27 123.67 8.98Q122.81 10.68 122.81 12.94L122.81 12.94Q122.81 15.41 123.62 17.10Q124.44 18.79 126.04 19.64Q127.63 20.50 129.98 20.50L129.98 20.50Q131.23 20.50 132.22 20.33Q133.20 20.16 133.99 19.87L133.99 19.87L133.99 14.04L129.14 14.04ZM148.03 8.74L149.40 8.74L149.40 21.50L148.30 21.50L148.08 19.32L148.01 19.32Q147.67 20.02 147.06 20.57Q146.45 21.12 145.61 21.43Q144.77 21.74 143.66 21.74L143.66 21.74Q142.20 21.74 141.19 21.23Q140.18 20.71 139.68 19.68Q139.18 18.65 139.18 17.09L139.18 17.09L139.18 8.74L140.54 8.74L140.54 16.97Q140.54 18.79 141.37 19.68Q142.20 20.57 143.83 20.57L143.83 20.57Q145.25 20.57 146.17 20.02Q147.10 19.46 147.56 18.38Q148.03 17.30 148.03 15.70L148.03 15.70L148.03 8.74ZM151.94 27.26L151.94 27.26Q151.42 27.26 151.01 27.18Q150.60 27.10 150.29 27L150.29 27L150.29 25.82Q150.65 25.97 151.02 26.03Q151.39 26.09 151.80 26.09L151.80 26.09Q152.66 26.09 153.16 25.56Q153.65 25.03 153.65 23.88L153.65 23.88L153.65 8.74L155.02 8.74L155.02 23.90Q155.02 24.98 154.64 25.74Q154.27 26.50 153.60 26.88Q152.93 27.26 151.94 27.26ZM153.41 5.04L153.41 5.04Q153.41 4.56 153.65 4.28Q153.89 4.01 154.34 4.01L154.34 4.01Q154.80 4.01 155.04 4.28Q155.28 4.56 155.28 5.04L155.28 5.04Q155.28 5.54 155.04 5.82Q154.80 6.10 154.34 6.10L154.34 6.10Q153.89 6.10 153.65 5.82Q153.41 5.54 153.41 5.04ZM163.75 8.52L163.75 8.52Q165.91 8.52 166.97 9.56Q168.02 10.61 168.02 12.91L168.02 12.91L168.02 21.50L166.99 21.50L166.75 19.34L166.68 19.34Q166.22 20.06 165.64 20.60Q165.05 21.14 164.22 21.44Q163.39 21.74 162.22 21.74L162.22 21.74Q160.99 21.74 160.10 21.32Q159.22 20.90 158.74 20.11Q158.26 19.32 158.26 18.17L158.26 18.17Q158.26 16.25 159.82 15.25Q161.38 14.26 164.35 14.14L164.35 14.14L166.68 14.02L166.68 13.13Q166.68 11.23 165.92 10.45Q165.17 9.67 163.70 9.67L163.70 9.67Q162.72 9.67 161.81 9.92Q160.90 10.18 159.98 10.63L159.98 10.63L159.55 9.53Q160.46 9.10 161.53 8.81Q162.60 8.52 163.75 8.52ZM166.68 15.05L164.52 15.14Q162.10 15.26 160.90 16.00Q159.70 16.73 159.70 18.17L159.70 18.17Q159.70 19.34 160.43 19.97Q161.16 20.59 162.46 20.59L162.46 20.59Q164.47 20.59 165.56 19.45Q166.66 18.31 166.68 16.30L166.68 16.30L166.68 15.05ZM177.36 8.52L177.36 8.52Q177.82 8.52 178.26 8.57Q178.70 8.62 179.09 8.71L179.09 8.71L178.87 9.98Q178.49 9.89 178.10 9.83Q177.72 9.77 177.29 9.77L177.29 9.77Q176.40 9.77 175.70 10.10Q175.01 10.44 174.50 11.06Q174.00 11.69 173.74 12.55Q173.47 13.42 173.47 14.50L173.47 14.50L173.47 21.50L172.10 21.50L172.10 8.74L173.26 8.74L173.40 11.11L173.47 11.11Q173.81 10.39 174.35 9.80Q174.89 9.22 175.64 8.87Q176.40 8.52 177.36 8.52ZM185.59 8.52L185.59 8.52Q187.75 8.52 188.81 9.56Q189.86 10.61 189.86 12.91L189.86 12.91L189.86 21.50L188.83 21.50L188.59 19.34L188.52 19.34Q188.06 20.06 187.48 20.60Q186.89 21.14 186.06 21.44Q185.23 21.74 184.06 21.74L184.06 21.74Q182.83 21.74 181.94 21.32Q181.06 20.90 180.58 20.11Q180.10 19.32 180.10 18.17L180.10 18.17Q180.10 16.25 181.66 15.25Q183.22 14.26 186.19 14.14L186.19 14.14L188.52 14.02L188.52 13.13Q188.52 11.23 187.76 10.45Q187.01 9.67 185.54 9.67L185.54 9.67Q184.56 9.67 183.65 9.92Q182.74 10.18 181.82 10.63L181.82 10.63L181.39 9.53Q182.30 9.10 183.37 8.81Q184.44 8.52 185.59 8.52ZM188.52 15.05L186.36 15.14Q183.94 15.26 182.74 16.00Q181.54 16.73 181.54 18.17L181.54 18.17Q181.54 19.34 182.27 19.97Q183.00 20.59 184.30 20.59L184.30 20.59Q186.31 20.59 187.40 19.45Q188.50 18.31 188.52 16.30L188.52 16.30L188.52 15.05ZM197.54 20.57L197.54 20.57Q198.10 20.57 198.58 20.48Q199.06 20.40 199.39 20.28L199.39 20.28L199.39 21.38Q199.03 21.53 198.50 21.64Q197.98 21.74 197.38 21.74L197.38 21.74Q196.32 21.74 195.58 21.35Q194.83 20.95 194.44 20.11Q194.04 19.27 194.04 17.95L194.04 17.95L194.04 9.84L192.14 9.84L192.14 9.07L194.04 8.62L194.52 5.69L195.41 5.69L195.41 8.74L199.32 8.74L199.32 9.84L195.41 9.84L195.41 17.88Q195.41 19.20 195.92 19.88Q196.44 20.57 197.54 20.57ZM202.10 8.74L203.47 8.74L203.47 21.50L202.10 21.50L202.10 8.74ZM202.80 4.01L202.80 4.01Q203.26 4.01 203.50 4.28Q203.74 4.56 203.74 5.04L203.74 5.04Q203.74 5.54 203.50 5.82Q203.26 6.10 202.80 6.10L202.80 6.10Q202.34 6.10 202.10 5.82Q201.86 5.54 201.86 5.04L201.86 5.04Q201.86 4.56 202.10 4.28Q202.34 4.01 202.80 4.01ZM218.26 21.74L218.26 21.74Q216.98 21.74 215.87 21.53Q214.75 21.31 213.74 20.83L213.74 20.83L213.74 19.49Q214.75 20.02 215.86 20.27Q216.96 20.52 218.21 20.52L218.21 20.52Q220.54 20.52 221.69 19.54Q222.84 18.55 222.84 16.73L222.84 16.73Q222.84 15.46 222.20 14.69Q221.57 13.92 220.44 13.57Q219.31 13.22 217.82 13.22L217.82 13.22L216.36 13.22L216.36 12.02L217.82 12.02Q220.03 12.02 221.16 11.03Q222.29 10.03 222.29 8.42L222.29 8.42Q222.29 7.42 221.84 6.72Q221.40 6.02 220.64 5.68Q219.89 5.33 218.90 5.33L218.90 5.33Q217.58 5.33 216.60 5.72Q215.62 6.12 214.61 6.82L214.61 6.82L213.89 5.81Q214.85 5.14 216.07 4.63Q217.30 4.13 218.88 4.13L218.88 4.13Q220.51 4.13 221.58 4.69Q222.65 5.26 223.18 6.22Q223.70 7.18 223.70 8.33L223.70 8.33Q223.70 9.53 223.24 10.39Q222.77 11.26 221.94 11.78Q221.11 12.31 220.03 12.53L220.03 12.53L220.03 12.58Q222.10 12.79 223.18 13.91Q224.26 15.02 224.26 16.73L224.26 16.73Q224.26 18.22 223.61 19.36Q222.96 20.50 221.63 21.12Q220.30 21.74 218.26 21.74ZM232.58 21.74L232.58 21.74Q229.97 21.74 228.66 19.43Q227.35 17.11 227.35 12.91L227.35 12.91Q227.35 10.10 227.88 8.14Q228.41 6.17 229.56 5.14Q230.71 4.10 232.58 4.10L232.58 4.10Q235.25 4.10 236.57 6.40Q237.89 8.69 237.89 12.91L237.89 12.91Q237.89 15.02 237.59 16.66Q237.29 18.29 236.66 19.43Q236.04 20.57 235.03 21.16Q234.02 21.74 232.58 21.74ZM232.58 20.52L232.58 20.52Q234.70 20.52 235.58 18.60Q236.47 16.68 236.47 12.91L236.47 12.91Q236.47 9.19 235.57 7.26Q234.67 5.33 232.58 5.33L232.58 5.33Q230.50 5.33 229.62 7.25Q228.74 9.17 228.74 12.91L228.74 12.91Q228.74 16.63 229.63 18.58Q230.52 20.52 232.58 20.52ZM245.81 21.74L245.81 21.74Q243.19 21.74 241.88 19.43Q240.58 17.11 240.58 12.91L240.58 12.91Q240.58 10.10 241.10 8.14Q241.63 6.17 242.78 5.14Q243.94 4.10 245.81 4.10L245.81 4.10Q248.47 4.10 249.79 6.40Q251.11 8.69 251.11 12.91L251.11 12.91Q251.11 15.02 250.81 16.66Q250.51 18.29 249.89 19.43Q249.26 20.57 248.26 21.16Q247.25 21.74 245.81 21.74ZM245.81 20.52L245.81 20.52Q247.92 20.52 248.81 18.60Q249.70 16.68 249.70 12.91L249.70 12.91Q249.70 9.19 248.80 7.26Q247.90 5.33 245.81 5.33L245.81 5.33Q243.72 5.33 242.84 7.25Q241.97 9.17 241.97 12.91L241.97 12.91Q241.97 16.63 242.86 18.58Q243.74 20.52 245.81 20.52ZM267.43 8.50L267.43 8.50Q269.62 8.50 270.77 9.61Q271.92 10.73 271.92 13.15L271.92 13.15L271.92 21.50L270.58 21.50L270.58 13.25Q270.58 11.40 269.74 10.54Q268.90 9.67 267.29 9.67L267.29 9.67Q265.18 9.67 264.13 10.90Q263.09 12.12 263.09 14.54L263.09 14.54L263.09 21.50L261.72 21.50L261.72 8.74L262.82 8.74L263.02 10.94L263.11 10.94Q263.47 10.22 264.07 9.67Q264.67 9.12 265.51 8.81Q266.35 8.50 267.43 8.50ZM286.70 15.10L286.70 15.10Q286.70 16.61 286.33 17.82Q285.96 19.03 285.23 19.91Q284.50 20.78 283.43 21.26Q282.36 21.74 280.97 21.74L280.97 21.74Q279.65 21.74 278.59 21.28Q277.54 20.81 276.80 19.93Q276.07 19.06 275.68 17.83Q275.28 16.61 275.28 15.10L275.28 15.10Q275.28 13.03 275.98 11.56Q276.67 10.08 277.97 9.29Q279.26 8.50 281.06 8.50L281.06 8.50Q282.91 8.50 284.16 9.32Q285.41 10.15 286.06 11.63Q286.70 13.10 286.70 15.10ZM276.70 15.10L276.70 15.10Q276.70 16.73 277.16 17.96Q277.63 19.20 278.58 19.88Q279.53 20.57 280.99 20.57L280.99 20.57Q282.48 20.57 283.43 19.88Q284.38 19.20 284.83 17.96Q285.29 16.73 285.29 15.10L285.29 15.10Q285.29 13.51 284.86 12.29Q284.42 11.06 283.49 10.37Q282.55 9.67 281.04 9.67L281.04 9.67Q278.88 9.67 277.79 11.11Q276.70 12.55 276.70 15.10ZM295.44 8.52L295.44 8.52Q295.90 8.52 296.34 8.57Q296.78 8.62 297.17 8.71L297.17 8.71L296.95 9.98Q296.57 9.89 296.18 9.83Q295.80 9.77 295.37 9.77L295.37 9.77Q294.48 9.77 293.78 10.10Q293.09 10.44 292.58 11.06Q292.08 11.69 291.82 12.55Q291.55 13.42 291.55 14.50L291.55 14.50L291.55 21.50L290.18 21.50L290.18 8.74L291.34 8.74L291.48 11.11L291.55 11.11Q291.89 10.39 292.43 9.80Q292.97 9.22 293.72 8.87Q294.48 8.52 295.44 8.52ZM312.98 8.50L312.98 8.50Q314.88 8.50 315.95 9.56Q317.02 10.63 317.02 12.98L317.02 12.98L317.02 21.50L315.67 21.50L315.67 13.03Q315.67 11.33 314.90 10.50Q314.14 9.67 312.79 9.67L312.79 9.67Q310.97 9.67 309.98 10.74Q309 11.81 309 14.04L309 14.04L309 21.50L307.66 21.50L307.66 13.03Q307.66 11.88 307.30 11.14Q306.94 10.39 306.30 10.03Q305.66 9.67 304.78 9.67L304.78 9.67Q303.58 9.67 302.74 10.18Q301.90 10.68 301.45 11.69Q301.01 12.70 301.01 14.26L301.01 14.26L301.01 21.50L299.64 21.50L299.64 8.74L300.74 8.74L300.94 10.75L301.03 10.75Q301.37 10.13 301.90 9.61Q302.42 9.10 303.19 8.80Q303.96 8.50 304.97 8.50L304.97 8.50Q306.36 8.50 307.33 9.10Q308.30 9.70 308.69 10.87L308.69 10.87L308.76 10.87Q309.31 9.74 310.40 9.12Q311.50 8.50 312.98 8.50ZM325.61 8.52L325.61 8.52Q327.77 8.52 328.82 9.56Q329.88 10.61 329.88 12.91L329.88 12.91L329.88 21.50L328.85 21.50L328.61 19.34L328.54 19.34Q328.08 20.06 327.49 20.60Q326.90 21.14 326.08 21.44Q325.25 21.74 324.07 21.74L324.07 21.74Q322.85 21.74 321.96 21.32Q321.07 20.90 320.59 20.11Q320.11 19.32 320.11 18.17L320.11 18.17Q320.11 16.25 321.67 15.25Q323.23 14.26 326.21 14.14L326.21 14.14L328.54 14.02L328.54 13.13Q328.54 11.23 327.78 10.45Q327.02 9.67 325.56 9.67L325.56 9.67Q324.58 9.67 323.66 9.92Q322.75 10.18 321.84 10.63L321.84 10.63L321.41 9.53Q322.32 9.10 323.39 8.81Q324.46 8.52 325.61 8.52ZM328.54 15.05L326.38 15.14Q323.95 15.26 322.75 16.00Q321.55 16.73 321.55 18.17L321.55 18.17Q321.55 19.34 322.28 19.97Q323.02 20.59 324.31 20.59L324.31 20.59Q326.33 20.59 327.42 19.45Q328.51 18.31 328.54 16.30L328.54 16.30L328.54 15.05ZM335.33 3.26L335.33 21.50L333.96 21.50L333.96 3.26L335.33 3.26Z"/></svg>