<svg xmlns="http://www.w3.org/2000/svg" xmlns:xlink="http://www.w3.org/1999/xlink" width="74.80799999999999" height="28.8"><path fill="black" d="M3.94 22.80L2.40 22.80L2.40 6L12.07 6L12.07 7.39L3.94 7.39L3.94 13.80L11.26 13.80L11.26 15.19L3.94 15.19L3.94 22.80ZM16.27 22.80L14.83 22.80L14.83 10.80L16.27 10.80L16.27 22.80ZM15.58 7.68L15.58 7.68Q15.19 7.68 14.90 7.39Q14.62 7.10 14.62 6.72L14.62 6.72Q14.62 6.31 14.90 6.04Q15.19 5.76 15.58 5.76L15.58 5.76Q15.98 5.76 16.26 6.04Q16.54 6.31 16.54 6.72L16.54 6.72Q16.54 7.10 16.26 7.39Q15.98 7.68 15.58 7.68ZM24.60 27.89L24.60 27.89Q23.52 27.89 22.61 27.65Q21.70 27.41 21.07 27.13Q20.45 26.86 20.21 26.74L20.21 26.74L20.74 25.54Q21.02 25.70 21.61 25.96Q22.20 26.21 22.98 26.39Q23.76 26.57 24.60 26.57L24.60 26.57Q25.85 26.57 26.83 26.06Q27.82 25.56 28.38 24.48Q28.94 23.40 28.94 21.70L28.94 21.70L28.94 10.80L30.38 10.80L30.38 21.70Q30.38 23.78 29.60 25.16Q28.82 26.54 27.50 27.22Q26.18 27.89 24.60 27.89ZM24.72 22.80L24.72 22.80Q23.14 22.80 21.91 22.01Q20.69 21.22 19.99 19.81Q19.30 18.41 19.30 16.61L19.30 16.61Q19.30 14.81 19.99 13.44Q20.69 12.07 21.91 11.29Q23.14 10.51 24.72 10.51L24.72 10.51Q26.26 10.51 27.42 11.29Q28.58 12.07 29.24 13.44Q29.90 14.81 29.90 16.61L29.90 16.61Q29.90 18.41 29.24 19.81Q28.58 21.22 27.42 22.01Q26.26 22.80 24.72 22.80ZM25.01 21.53L25.01 21.53Q26.16 21.53 27.05 20.89Q27.94 20.26 28.44 19.15Q28.94 18.05 28.94 16.61L28.94 16.61Q28.94 15.19 28.44 14.10Q27.94 13.01 27.05 12.38Q26.16 11.76 24.98 11.76L24.98 11.76Q23.74 11.76 22.78 12.38Q21.82 13.01 21.28 14.10Q20.74 15.19 20.74 16.61L20.74 16.61Q20.74 18.05 21.29 19.15Q21.84 20.26 22.80 20.89Q23.76 21.53 25.01 21.53ZM38.33 23.09L38.33 23.09Q36.67 23.09 35.74 22.21Q34.80 21.34 34.80 19.73L34.80 19.73L34.80 7.06L36.24 7.06L36.24 19.73Q36.24 20.69 36.79 21.23Q37.34 21.77 38.33 21.77L38.33 21.77Q38.62 21.77 38.89 21.68Q39.17 21.60 39.70 21.24L39.70 21.24L40.30 22.49Q39.65 22.87 39.22 22.98Q38.78 23.09 38.33 23.09ZM40.06 12.12L32.66 12.12L32.66 10.80L40.06 10.80L40.06 12.12ZM44.26 16.08L43.42 16.22Q43.42 14.28 44.15 13.08Q44.88 11.88 46.04 11.32Q47.21 10.75 48.50 10.75L48.50 10.75L48.50 12.07Q47.45 12.07 46.48 12.44Q45.50 12.82 44.88 13.69Q44.26 14.57 44.26 16.08L44.26 16.08ZM44.26 22.80L42.82 22.80L42.82 10.80L44.26 10.80L44.26 22.80ZM55.73 23.09L55.73 23.09Q54 23.09 52.67 22.28Q51.34 21.48 50.58 20.06Q49.82 18.65 49.82 16.80L49.82 16.80Q49.82 14.95 50.57 13.54Q51.31 12.12 52.62 11.32Q53.93 10.51 55.61 10.51L55.61 10.51Q57.31 10.51 58.50 11.34Q59.69 12.17 60.31 13.62Q60.94 15.07 60.94 16.97L60.94 16.97L50.69 16.97L51.24 16.51Q51.24 18.17 51.79 19.34Q52.34 20.52 53.36 21.14Q54.38 21.77 55.73 21.77L55.73 21.77Q57.12 21.77 58.09 21.08Q59.06 20.40 59.62 19.32L59.62 19.32L60.82 20.06Q60.36 20.95 59.63 21.64Q58.90 22.32 57.91 22.70Q56.93 23.09 55.73 23.09ZM51.36 16.08L51.36 16.08L50.76 15.65L60 15.65L59.40 16.10Q59.40 14.83 58.93 13.87Q58.46 12.91 57.62 12.37Q56.78 11.83 55.61 11.83L55.61 11.83Q54.46 11.83 53.48 12.37Q52.51 12.91 51.94 13.86Q51.36 14.81 51.36 16.08ZM68.76 23.09L68.76 23.09Q67.03 23.09 65.70 22.28Q64.37 21.48 63.61 20.06Q62.86 18.65 62.86 16.80L62.86 16.80Q62.86 14.95 63.60 13.54Q64.34 12.12 65.65 11.32Q66.96 10.51 68.64 10.51L68.64 10.51Q70.34 10.51 71.53 11.34Q72.72 12.17 73.34 13.62Q73.97 15.07 73.97 16.97L73.97 16.97L63.72 16.97L64.27 16.51Q64.27 18.17 64.82 19.34Q65.38 20.52 66.40 21.14Q67.42 21.77 68.76 21.77L68.76 21.77Q70.15 21.77 71.12 21.08Q72.10 20.40 72.65 19.32L72.65 19.32L73.85 20.06Q73.39 20.95 72.66 21.64Q71.93 22.32 70.94 22.70Q69.96 23.09 68.76 23.09ZM64.39 16.08L64.39 16.08L63.79 15.65L73.03 15.65L72.43 16.10Q72.43 14.83 71.96 13.87Q71.50 12.91 70.66 12.37Q69.82 11.83 68.64 11.83L68.64 11.83Q67.49 11.83 66.52 12.37Q65.54 12.91 64.97 13.86Q64.39 14.81 64.39 16.08Z"/></svg>