<svg xmlns="http://www.w3.org/2000/svg" xmlns:xlink="http://www.w3.org/1999/xlink" width="393.98400000000004" height="40.296"><path fill="black" d="M2.54 31.32L2.54 31.32Q1.85 31.32 1.97 30.84L1.97 30.84L7.20 10.13Q7.27 9.89 7.43 9.78Q7.58 9.67 7.97 9.67L7.97 9.67L12.12 9.67Q14.23 9.67 15.64 10.15Q17.04 10.63 17.75 11.64Q18.46 12.65 18.46 14.30L18.46 14.30Q18.46 16.06 17.81 17.36Q17.16 18.67 15.97 19.60Q14.78 20.52 13.16 21.10Q11.54 21.67 9.58 21.94L9.58 21.94Q8.57 22.03 7.51 22.09Q6.46 22.15 5.47 22.20L5.47 22.20L3.29 30.86Q3.22 31.10 3.05 31.21Q2.88 31.32 2.54 31.32ZM8.33 10.87L5.78 21Q6.41 20.98 7.08 20.94Q7.75 20.90 8.44 20.84Q9.12 20.78 9.74 20.71L9.74 20.71Q11.98 20.38 13.63 19.61Q15.29 18.84 16.20 17.54Q17.11 16.25 17.11 14.40L17.11 14.40Q17.11 13.10 16.55 12.34Q15.98 11.57 14.86 11.22Q13.73 10.87 12.05 10.87L12.05 10.87L8.33 10.87ZM13.27 31.39L13.27 31.39Q13.01 31.39 12.92 31.21Q12.84 31.03 12.88 30.82Q12.91 30.60 13.08 30.42Q13.25 30.24 13.54 30.24L13.54 30.24Q14.14 30.24 14.96 29.81Q15.79 29.38 16.76 28.57Q17.74 27.77 18.78 26.72Q19.82 25.68 20.90 24.43Q21.98 23.18 22.98 21.84Q23.98 20.50 24.83 19.13Q25.68 17.76 26.32 16.44Q26.95 15.12 27.31 13.96Q27.67 12.79 27.67 11.86L27.67 11.86Q27.67 11.62 27.88 11.48Q28.08 11.35 28.34 11.35Q28.61 11.35 28.79 11.48Q28.97 11.62 28.97 11.86L28.97 11.86Q28.97 12.86 28.60 14.08Q28.22 15.29 27.53 16.68Q26.83 18.07 25.91 19.52Q24.98 20.98 23.90 22.40Q22.82 23.83 21.66 25.16Q20.50 26.50 19.32 27.62Q18.14 28.75 17.05 29.60Q15.96 30.46 14.99 30.92Q14.02 31.39 13.27 31.39ZM20.88 31.37L20.88 31.37Q20.33 31.37 19.96 31.14Q19.58 30.91 19.44 30.50Q19.30 30.10 19.31 29.53Q19.32 28.97 19.51 28.30L19.51 28.30L23.04 14.16Q23.69 11.59 24.59 10.40Q25.49 9.22 26.78 9.22L26.78 9.22Q27.53 9.22 28.01 9.58Q28.49 9.94 28.73 10.54Q28.97 11.14 28.97 11.88L28.97 11.88Q28.97 12.17 28.79 12.32Q28.61 12.48 28.34 12.48Q28.08 12.48 27.88 12.32Q27.67 12.17 27.67 11.88L27.67 11.88Q27.67 11.45 27.59 11.12Q27.50 10.80 27.28 10.61Q27.05 10.42 26.69 10.42L26.69 10.42Q26.18 10.42 25.76 10.84Q25.34 11.26 24.97 12.14Q24.60 13.03 24.22 14.52L24.22 14.52L20.74 28.51Q20.59 29.09 20.58 29.45Q20.57 29.81 20.70 30.01Q20.83 30.22 21.12 30.22L21.12 30.22Q21.53 30.22 21.90 29.98Q22.27 29.74 22.62 29.34Q22.97 28.94 23.23 28.54L23.23 28.54Q23.38 28.37 23.53 28.32Q23.69 28.27 23.88 28.42L23.88 28.42Q24.12 28.61 24.16 28.74Q24.19 28.87 24.10 29.06L24.10 29.06Q23.81 29.57 23.33 30.10Q22.85 30.62 22.24 31.00Q21.62 31.37 20.88 31.37ZM30.79 31.39L30.79 31.39Q29.83 31.39 29.12 30.90Q28.42 30.41 28.04 29.46Q27.67 28.51 27.67 27.24L27.67 27.24Q27.67 26.11 27.97 24.89Q28.27 23.66 28.88 22.54Q29.50 21.41 30.38 20.50Q31.27 19.58 32.42 19.06Q33.58 18.53 35.02 18.53L35.02 18.53Q35.81 18.53 36.61 18.77Q37.42 19.01 38.18 19.44L38.18 19.44L38.23 19.06Q38.33 18.82 38.48 18.72Q38.64 18.62 38.95 18.62L38.95 18.62Q39.38 18.62 39.50 18.78Q39.62 18.94 39.55 19.22L39.55 19.22L37.18 28.63Q37.01 29.14 37.01 29.50Q37.01 29.86 37.16 30.05Q37.32 30.24 37.61 30.24L37.61 30.24Q37.97 30.24 38.34 29.99Q38.71 29.74 39.06 29.36Q39.41 28.99 39.70 28.56L39.70 28.56Q39.82 28.37 39.97 28.34Q40.13 28.32 40.32 28.46L40.32 28.46Q40.56 28.58 40.60 28.76Q40.63 28.94 40.54 29.09L40.54 29.09Q40.25 29.59 39.79 30.12Q39.34 30.65 38.71 31.02Q38.09 31.39 37.37 31.39L37.37 31.39Q36.84 31.39 36.49 31.19Q36.14 30.98 35.96 30.62Q35.78 30.26 35.78 29.80Q35.78 29.33 35.88 28.73L35.88 28.73Q36 28.18 36.13 27.65Q36.26 27.12 36.38 26.57L36.38 26.57Q35.45 28.27 34.50 29.34Q33.55 30.41 32.62 30.90Q31.68 31.39 30.79 31.39ZM29.02 27.14L29.02 27.14Q29.02 28.03 29.24 28.73Q29.47 29.42 29.94 29.81Q30.41 30.19 31.08 30.19L31.08 30.19Q32.02 30.19 33.07 29.39Q34.13 28.58 35.22 26.93Q36.31 25.27 37.32 22.78L37.32 22.78L37.90 20.54Q37.03 20.06 36.30 19.90Q35.57 19.73 34.90 19.73L34.90 19.73Q33.79 19.73 32.87 20.17Q31.94 20.62 31.22 21.38Q30.50 22.15 30.02 23.12Q29.54 24.10 29.28 25.13Q29.02 26.16 29.02 27.14ZM51.26 32.11L51.48 30.74Q51.96 30.43 52.42 30.17Q52.87 29.90 53.30 29.65Q53.74 29.40 54.17 29.18Q54.60 28.97 55.01 28.78L55.01 28.78Q55.27 28.66 55.44 28.74Q55.61 28.82 55.66 29.03Q55.70 29.23 55.63 29.44Q55.56 29.64 55.34 29.74L55.34 29.74Q54.84 29.98 54.34 30.26Q53.83 30.55 53.33 30.85Q52.82 31.15 52.30 31.48Q51.77 31.80 51.26 32.11L51.26 32.11ZM45.86 40.75L45.86 40.75Q45.05 40.75 44.48 40.45Q43.92 40.15 43.61 39.62Q43.30 39.10 43.30 38.40L43.30 38.40Q43.30 37.66 43.61 36.97Q43.92 36.29 44.50 35.64Q45.07 34.99 45.89 34.36Q46.70 33.72 47.76 33.05L47.76 33.05Q48.48 32.62 49.19 32.15Q49.90 31.68 50.62 31.20L50.62 31.20L51.91 26.06Q51.17 27.53 50.34 28.54Q49.51 29.54 48.70 30.18Q47.88 30.82 47.11 31.09Q46.34 31.37 45.70 31.37L45.70 31.37Q44.74 31.37 44.09 30.92Q43.44 30.48 43.21 29.52Q42.98 28.56 43.37 27.05L43.37 27.05L45.43 19.10Q45.48 18.84 45.64 18.73Q45.79 18.62 46.10 18.62L46.10 18.62Q46.49 18.62 46.64 18.77Q46.80 18.91 46.73 19.18L46.73 19.18L44.69 27.10Q44.42 28.10 44.47 28.79Q44.52 29.47 44.89 29.82Q45.26 30.17 45.98 30.17L45.98 30.17Q46.70 30.17 47.58 29.70Q48.46 29.23 49.39 28.24Q50.33 27.24 51.26 25.62Q52.20 24 53.04 21.70L53.04 21.70L53.64 19.10Q53.74 18.84 53.88 18.73Q54.02 18.62 54.36 18.62L54.36 18.62Q54.74 18.62 54.89 18.78Q55.03 18.94 54.94 19.22L54.94 19.22L50.95 34.94Q50.64 36.24 50.18 37.30Q49.73 38.35 49.12 39.13Q48.50 39.91 47.69 40.33Q46.87 40.75 45.86 40.75ZM46.06 39.58L46.06 39.58Q46.70 39.58 47.26 39.23Q47.81 38.88 48.26 38.23Q48.72 37.58 49.08 36.72Q49.44 35.86 49.70 34.80L49.70 34.80L50.21 32.74Q49.70 33.05 49.24 33.38Q48.77 33.72 48.26 34.03L48.26 34.03Q47.38 34.61 46.70 35.15Q46.03 35.69 45.59 36.19Q45.14 36.70 44.90 37.20Q44.66 37.70 44.66 38.23L44.66 38.23Q44.66 38.59 44.81 38.90Q44.95 39.22 45.26 39.40Q45.58 39.58 46.06 39.58ZM61.13 31.44L61.13 31.44Q60.31 31.44 59.74 31.12Q59.16 30.79 58.86 30.18Q58.56 29.57 58.54 28.74Q58.51 27.91 58.78 26.90L58.78 26.90L60.72 19.10Q60.79 18.86 60.96 18.74Q61.13 18.62 61.44 18.62L61.44 18.62Q61.85 18.62 61.97 18.76Q62.09 18.89 61.99 19.15L61.99 19.15L60.02 27.02Q59.81 27.94 59.84 28.68Q59.88 29.42 60.24 29.84Q60.60 30.26 61.34 30.26L61.34 30.26Q62.16 30.26 62.94 29.76Q63.72 29.26 64.42 28.40Q65.11 27.55 65.66 26.48Q66.22 25.42 66.55 24.29L66.55 24.29L67.90 19.13Q67.94 18.89 68.11 18.76Q68.28 18.62 68.57 18.62L68.57 18.62Q68.95 18.62 69.10 18.77Q69.24 18.91 69.17 19.20L69.17 19.20L67.37 26.33Q67.15 27.19 67.09 27.91Q67.03 28.63 67.18 29.17Q67.32 29.71 67.69 29.99Q68.06 30.26 68.74 30.26L68.74 30.26Q69.53 30.26 70.26 29.86Q70.99 29.45 71.65 28.73Q72.31 28.01 72.85 27.11Q73.39 26.21 73.75 25.24Q74.11 24.26 74.26 23.33L74.26 23.33Q74.38 22.68 74.40 22.06Q74.42 21.43 74.32 20.75Q74.21 20.06 73.92 19.37L73.92 19.37Q73.80 19.08 73.86 18.90Q73.92 18.72 74.08 18.62Q74.23 18.53 74.45 18.53L74.45 18.53Q74.69 18.53 74.86 18.68Q75.02 18.84 75.14 19.18L75.14 19.18Q75.38 19.75 75.53 20.44Q75.67 21.12 75.66 21.82Q75.65 22.51 75.55 23.16L75.55 23.16Q75.38 24.29 74.98 25.44Q74.57 26.59 73.92 27.68Q73.27 28.78 72.44 29.62Q71.62 30.46 70.61 30.95Q69.60 31.44 68.50 31.44L68.50 31.44Q67.61 31.44 66.97 31.06Q66.34 30.67 66.05 29.90Q65.76 29.14 65.83 27.98L65.83 27.98Q65.26 29.04 64.50 29.82Q63.74 30.60 62.90 31.02Q62.06 31.44 61.13 31.44ZM79.58 31.34L79.58 31.34Q79.32 31.34 79.13 31.22Q78.94 31.10 79.01 30.86L79.01 30.86L81.38 21.38Q81.60 20.54 81.49 20.12Q81.38 19.70 80.90 19.70L80.90 19.70Q80.47 19.70 80.03 19.99Q79.58 20.28 79.13 20.83Q78.67 21.38 78.14 22.22L78.14 22.22Q78.02 22.44 77.87 22.46Q77.71 22.49 77.45 22.42L77.45 22.42Q77.18 22.27 77.15 22.09Q77.11 21.91 77.23 21.72L77.23 21.72Q77.76 20.78 78.36 20.08Q78.96 19.37 79.64 18.96Q80.33 18.55 81.12 18.55L81.12 18.55Q81.67 18.55 82.04 18.73Q82.42 18.91 82.60 19.28Q82.78 19.66 82.80 20.16Q82.82 20.66 82.70 21.29L82.70 21.29L82.13 23.62Q82.85 22.13 83.47 21.14Q84.10 20.16 84.68 19.57Q85.27 18.98 85.79 18.76Q86.30 18.53 86.76 18.53L86.76 18.53Q87.07 18.53 87.24 18.65Q87.41 18.77 87.38 19.10L87.38 19.10Q87.41 19.97 87.52 20.46Q87.62 20.95 87.86 21.14Q88.10 21.34 88.44 21.34L88.44 21.34Q89.09 21.34 89.83 21.04Q90.58 20.74 91.78 19.94L91.78 19.94Q91.97 19.85 92.14 19.92Q92.30 19.99 92.40 20.16Q92.50 20.33 92.48 20.52Q92.47 20.71 92.33 20.81L92.33 20.81Q91.18 21.60 90.20 22.00Q89.23 22.39 88.37 22.39L88.37 22.39Q87.82 22.39 87.36 22.15Q86.90 21.91 86.64 21.34Q86.38 20.76 86.38 19.78L86.38 19.78Q85.82 19.90 85.21 20.46Q84.60 21.02 83.90 22.04Q83.21 23.06 82.50 24.54Q81.79 26.02 81.05 27.96L81.05 27.96L80.33 30.89Q80.26 31.13 80.10 31.24Q79.94 31.34 79.58 31.34ZM93.72 31.37L93.72 31.37Q92.69 31.37 92.28 30.60Q91.87 29.83 92.33 28.27L92.33 28.27L94.58 19.10Q94.66 18.84 94.81 18.73Q94.97 18.62 95.28 18.62L95.28 18.62Q95.66 18.62 95.82 18.77Q95.98 18.91 95.90 19.18L95.90 19.18L93.55 28.51Q93.31 29.35 93.41 29.78Q93.50 30.22 93.96 30.22L93.96 30.22Q94.32 30.22 94.69 29.98Q95.06 29.74 95.41 29.35Q95.76 28.97 96.05 28.54L96.05 28.54Q96.17 28.37 96.32 28.32Q96.48 28.27 96.67 28.42L96.67 28.42Q96.91 28.58 96.96 28.74Q97.01 28.90 96.89 29.06L96.89 29.06Q96.55 29.64 96.06 30.17Q95.57 30.70 94.97 31.03Q94.37 31.37 93.72 31.37ZM96.38 14.59L96.38 14.59Q95.93 14.59 95.66 14.36Q95.40 14.14 95.40 13.66L95.40 13.66Q95.40 13.08 95.74 12.65Q96.07 12.22 96.70 12.22L96.70 12.22Q97.15 12.22 97.42 12.46Q97.68 12.70 97.68 13.18L97.68 13.18Q97.68 13.73 97.36 14.16Q97.03 14.59 96.38 14.59ZM95.33 31.39L95.33 31.39Q95.11 31.39 95.00 31.21Q94.90 31.03 94.92 30.82Q94.94 30.60 95.10 30.42Q95.26 30.24 95.50 30.24L95.50 30.24Q96.19 30.24 97.15 29.51Q98.11 28.78 99.22 27.49Q100.32 26.21 101.51 24.59Q102.70 22.97 103.85 21.19Q105.00 19.42 106.03 17.65Q107.06 15.89 107.89 14.33Q108.72 12.77 109.28 11.59Q109.85 10.42 109.99 9.84L109.99 9.84Q110.06 9.55 110.23 9.44Q110.40 9.34 110.71 9.34L110.71 9.34Q111.10 9.34 111.22 9.47Q111.34 9.60 111.26 9.86L111.26 9.86L106.56 28.58Q107.64 28.27 108.84 27.59Q110.04 26.90 111.35 25.87Q112.66 24.84 113.98 23.50L113.98 23.50Q114.05 23.40 114.24 23.36Q114.43 23.33 114.62 23.50L114.62 23.50Q114.86 23.71 114.85 23.87Q114.84 24.02 114.72 24.17L114.72 24.17Q113.35 25.51 111.92 26.68Q110.50 27.84 109.07 28.64Q107.64 29.45 106.27 29.74L106.27 29.74L105.98 30.89Q105.94 31.10 105.77 31.21Q105.60 31.32 105.26 31.32L105.26 31.32Q104.98 31.32 104.81 31.20Q104.64 31.08 104.71 30.84L104.71 30.84L104.95 29.86Q104.28 29.88 103.66 29.69Q103.03 29.50 102.62 29.08Q102.22 28.66 102.22 28.03L102.22 28.03Q102.22 27.41 102.62 27.01Q103.03 26.62 103.70 26.62L103.70 26.62Q104.23 26.62 104.72 26.88Q105.22 27.14 105.50 27.62L105.50 27.62L108.74 14.74Q107.90 16.39 106.85 18.25Q105.79 20.11 104.62 21.98Q103.44 23.86 102.19 25.54Q100.94 27.22 99.73 28.55Q98.52 29.88 97.40 30.64Q96.29 31.39 95.33 31.39ZM103.39 28.01L103.39 28.01Q103.39 28.32 103.66 28.50Q103.92 28.68 104.32 28.75Q104.71 28.82 105.10 28.80L105.10 28.80Q105.02 28.22 104.62 27.92Q104.21 27.62 103.82 27.62L103.82 27.62Q103.39 27.62 103.39 28.01ZM118.97 31.42L118.97 31.42Q118.06 31.42 117.31 31.09Q116.57 30.77 115.99 30.20Q115.42 29.64 115.04 28.88Q114.67 28.13 114.48 27.28Q114.29 26.42 114.29 25.54L114.29 25.54Q114.29 24.65 114.49 23.68Q114.70 22.70 115.12 21.79Q115.54 20.88 116.16 20.14Q116.78 19.39 117.60 18.96Q118.42 18.53 119.45 18.53L119.45 18.53Q120.26 18.53 120.82 18.84Q121.37 19.15 121.64 19.72Q121.92 20.28 121.92 21.05L121.92 21.05Q121.92 22.15 121.36 23.26Q120.79 24.36 119.77 25.49Q118.75 26.62 117.34 27.72L117.34 27.72Q116.04 28.78 114.65 29.62Q113.26 30.46 111.91 30.92Q110.57 31.39 109.32 31.39L109.32 31.39Q109.10 31.39 109.00 31.21Q108.89 31.03 108.92 30.82Q108.96 30.60 109.12 30.42Q109.27 30.24 109.58 30.24L109.58 30.24Q110.66 30.24 111.88 29.80Q113.09 29.35 114.34 28.58Q115.58 27.82 116.74 26.83L116.74 26.83Q117.89 25.90 118.74 24.95Q119.59 24 120.08 23.06Q120.58 22.13 120.58 21.26L120.58 21.26Q120.58 20.52 120.23 20.11Q119.88 19.70 119.21 19.70L119.21 19.70Q118.37 19.70 117.71 20.26Q117.05 20.81 116.58 21.68Q116.11 22.56 115.86 23.58Q115.61 24.60 115.61 25.51L115.61 25.51Q115.61 26.45 115.84 27.31Q116.06 28.18 116.52 28.84Q116.98 29.50 117.65 29.87Q118.32 30.24 119.18 30.24L119.18 30.24Q120.12 30.24 120.90 29.87Q121.68 29.50 122.34 28.92Q123.00 28.34 123.50 27.84L123.50 27.84Q123.72 27.60 123.91 27.61Q124.10 27.62 124.27 27.79L124.27 27.79Q124.46 27.98 124.51 28.16Q124.56 28.34 124.37 28.56L124.37 28.56Q123.79 29.30 122.94 29.95Q122.09 30.60 121.08 31.01Q120.07 31.42 118.97 31.42ZM137.69 30.98L133.34 30.98Q132.67 30.98 132.79 30.53L132.79 30.53L137.93 10.13Q138 9.89 138.17 9.78Q138.34 9.67 138.70 9.67L138.70 9.67L143.02 9.67Q144.91 9.67 146.44 10.15Q147.96 10.63 149.04 11.57Q150.12 12.50 150.68 13.88Q151.25 15.26 151.25 17.06L151.25 17.06Q151.25 19.49 150.61 21.60Q149.98 23.71 148.78 25.43Q147.58 27.14 145.91 28.39Q144.24 29.64 142.15 30.31Q140.06 30.98 137.69 30.98L137.69 30.98ZM139.06 10.92L134.30 29.74L137.69 29.74Q139.80 29.74 141.65 29.15Q143.50 28.56 145.00 27.43Q146.50 26.30 147.58 24.73Q148.66 23.16 149.23 21.23Q149.81 19.30 149.81 17.06L149.81 17.06Q149.81 15.46 149.33 14.30Q148.85 13.15 147.94 12.40Q147.02 11.64 145.76 11.28Q144.50 10.92 142.97 10.92L142.97 10.92L139.06 10.92ZM159.62 31.44L159.62 31.44Q157.80 31.44 156.50 30.85Q155.21 30.26 154.51 29.17Q153.82 28.08 153.82 26.57L153.82 26.57Q153.82 25.37 154.26 24.24Q154.70 23.11 155.50 22.20Q156.29 21.29 157.38 20.65Q158.47 20.02 159.74 19.73L159.74 19.73Q158.83 19.42 158.18 18.83Q157.54 18.24 157.20 17.44Q156.86 16.63 156.86 15.72L156.86 15.72Q156.86 14.64 157.20 13.67Q157.54 12.70 158.16 11.90Q158.78 11.11 159.64 10.52Q160.49 9.94 161.56 9.62Q162.62 9.31 163.82 9.31L163.82 9.31Q165 9.31 166.06 9.62Q167.11 9.94 167.94 10.50Q168.77 11.06 169.27 11.81L169.27 11.81Q169.49 12.07 169.46 12.29Q169.44 12.50 169.20 12.67L169.20 12.67Q168.96 12.86 168.73 12.83Q168.50 12.79 168.31 12.58L168.31 12.58Q167.78 11.95 167.06 11.51Q166.34 11.06 165.47 10.84Q164.59 10.61 163.58 10.61L163.58 10.61Q162.43 10.61 161.46 11.00Q160.49 11.40 159.77 12.08Q159.05 12.77 158.65 13.69Q158.26 14.62 158.26 15.67L158.26 15.67Q158.26 16.73 158.71 17.52Q159.17 18.31 160.04 18.76Q160.92 19.20 162.14 19.20L162.14 19.20L164.95 19.20Q165.22 19.20 165.30 19.34Q165.38 19.49 165.31 19.82L165.31 19.82Q165.24 20.11 165.11 20.26Q164.98 20.40 164.74 20.40L164.74 20.40L161.93 20.40Q160.56 20.40 159.35 20.88Q158.14 21.36 157.20 22.19Q156.26 23.02 155.76 24.11Q155.26 25.20 155.26 26.45L155.26 26.45Q155.26 27.65 155.80 28.48Q156.34 29.30 157.36 29.71Q158.38 30.12 159.84 30.12L159.84 30.12Q161.04 30.12 162.14 29.71Q163.25 29.30 164.27 28.50Q165.29 27.70 166.20 26.52L166.20 26.52Q166.39 26.23 166.61 26.21Q166.82 26.18 167.06 26.38L167.06 26.38Q167.33 26.54 167.32 26.75Q167.30 26.95 167.06 27.26L167.06 27.26Q166.06 28.66 164.88 29.58Q163.70 30.50 162.38 30.97Q161.06 31.44 159.62 31.44ZM183.60 31.44L183.60 31.44Q182.42 31.44 181.42 31.18Q180.41 30.91 179.62 30.47Q178.82 30.02 178.22 29.51Q177.62 28.99 177.26 28.46L177.26 28.46Q177.10 28.27 177.14 28.09Q177.19 27.91 177.41 27.72L177.41 27.72Q177.65 27.50 177.83 27.52Q178.01 27.53 178.18 27.74L178.18 27.74Q178.70 28.37 179.50 28.92Q180.29 29.47 181.32 29.81Q182.35 30.14 183.62 30.14L183.62 30.14Q184.94 30.14 186.01 29.81Q187.08 29.47 187.86 28.84Q188.64 28.20 189.08 27.26Q189.53 26.33 189.53 25.20L189.53 25.20Q189.53 24.31 189.22 23.64Q188.90 22.97 188.34 22.45Q187.78 21.94 187.02 21.48Q186.26 21.02 185.33 20.54L185.33 20.54Q184.61 20.18 183.91 19.79Q183.22 19.39 182.62 18.92Q182.02 18.46 181.58 17.87Q181.15 17.28 180.89 16.52Q180.62 15.77 180.62 14.81L180.62 14.81Q180.62 13.58 181.10 12.58Q181.58 11.57 182.45 10.82Q183.31 10.08 184.48 9.70Q185.64 9.31 187.06 9.31L187.06 9.31Q188.30 9.31 189.36 9.65Q190.42 9.98 191.27 10.56Q192.12 11.14 192.77 11.88L192.77 11.88Q192.98 12.07 192.95 12.24Q192.91 12.41 192.70 12.62L192.70 12.62Q192.48 12.77 192.29 12.78Q192.10 12.79 191.90 12.62L191.90 12.62Q191.28 12.05 190.56 11.58Q189.84 11.11 188.99 10.85Q188.14 10.58 187.01 10.58L187.01 10.58Q185.93 10.58 185.00 10.88Q184.08 11.18 183.42 11.74Q182.76 12.29 182.39 13.06Q182.02 13.82 182.02 14.78L182.02 14.78Q182.02 15.67 182.29 16.34Q182.57 17.02 183.08 17.52Q183.60 18.02 184.36 18.49Q185.11 18.96 186.02 19.42L186.02 19.42Q186.96 19.90 187.84 20.42Q188.71 20.95 189.42 21.60Q190.13 22.25 190.50 23.11Q190.87 23.98 190.87 25.15L190.87 25.15Q190.87 26.54 190.34 27.70Q189.82 28.85 188.83 29.69Q187.85 30.53 186.53 30.98Q185.21 31.44 183.60 31.44ZM195.62 31.39L195.62 31.39Q195.02 31.39 194.51 31.22Q193.99 31.06 193.62 30.80Q193.25 30.55 193.01 30.34L193.01 30.34Q192.84 30.17 192.83 29.96Q192.82 29.76 193.03 29.52L193.03 29.52Q193.25 29.26 193.43 29.23Q193.61 29.21 193.78 29.38L193.78 29.38Q194.16 29.69 194.62 29.92Q195.07 30.14 195.65 30.14L195.65 30.14Q196.13 30.14 196.66 29.96Q197.18 29.78 197.81 29.30Q198.43 28.82 199.20 27.90Q199.97 26.98 200.94 25.50Q201.91 24.02 203.11 21.88Q204.31 19.73 205.80 16.78Q207.29 13.82 209.14 9.96L209.14 9.96Q209.28 9.62 209.53 9.47Q209.78 9.31 210.12 9.31L210.12 9.31Q210.53 9.31 210.74 9.48Q210.96 9.65 210.94 9.98L210.94 9.98Q210.84 11.47 210.76 12.97Q210.67 14.47 210.65 16.01Q210.62 17.54 210.64 19.10Q210.65 20.66 210.70 22.24Q210.74 23.81 210.86 25.39L210.86 25.39Q211.01 26.74 211.18 27.67Q211.34 28.61 211.60 29.16Q211.85 29.71 212.18 29.94Q212.52 30.17 212.93 30.17L212.93 30.17Q213.53 30.17 214.15 29.60Q214.78 29.04 215.36 27.97Q215.95 26.90 216.46 25.34L216.46 25.34Q216.53 25.10 216.70 25.03Q216.86 24.96 217.15 25.06L217.15 25.06Q217.44 25.13 217.56 25.30Q217.68 25.46 217.61 25.70L217.61 25.70Q217.01 27.53 216.25 28.80Q215.50 30.07 214.64 30.73Q213.79 31.39 212.83 31.39L212.83 31.39Q212.09 31.39 211.56 31.09Q211.03 30.79 210.67 30.12Q210.31 29.45 210.07 28.38Q209.83 27.31 209.69 25.80L209.69 25.80Q209.66 25.32 209.64 24.85Q209.62 24.38 209.62 23.90L209.62 23.90L203.40 23.90Q202.25 25.87 201.30 27.20Q200.35 28.54 199.55 29.36Q198.74 30.19 198.07 30.62Q197.40 31.06 196.80 31.22Q196.20 31.39 195.62 31.39ZM204.07 22.78L204.07 22.78L209.57 22.78Q209.50 20.98 209.47 19.13Q209.45 17.28 209.47 15.42Q209.50 13.56 209.57 11.78L209.57 11.78Q207.94 15.29 206.57 18.01Q205.20 20.74 204.07 22.78ZM225.89 31.44L225.89 31.44Q224.71 31.44 223.70 31.18Q222.70 30.91 221.90 30.47Q221.11 30.02 220.51 29.51Q219.91 28.99 219.55 28.46L219.55 28.46Q219.38 28.27 219.43 28.09Q219.48 27.91 219.70 27.72L219.70 27.72Q219.94 27.50 220.12 27.52Q220.30 27.53 220.46 27.74L220.46 27.74Q220.99 28.37 221.78 28.92Q222.58 29.47 223.61 29.81Q224.64 30.14 225.91 30.14L225.91 30.14Q227.23 30.14 228.30 29.81Q229.37 29.47 230.15 28.84Q230.93 28.20 231.37 27.26Q231.82 26.33 231.82 25.20L231.82 25.20Q231.82 24.31 231.50 23.64Q231.19 22.97 230.63 22.45Q230.06 21.94 229.31 21.48Q228.55 21.02 227.62 20.54L227.62 20.54Q226.90 20.18 226.20 19.79Q225.50 19.39 224.90 18.92Q224.30 18.46 223.87 17.87Q223.44 17.28 223.18 16.52Q222.91 15.77 222.91 14.81L222.91 14.81Q222.91 13.58 223.39 12.58Q223.87 11.57 224.74 10.82Q225.60 10.08 226.76 9.70Q227.93 9.31 229.34 9.31L229.34 9.31Q230.59 9.31 231.65 9.65Q232.70 9.98 233.56 10.56Q234.41 11.14 235.06 11.88L235.06 11.88Q235.27 12.07 235.24 12.24Q235.20 12.41 234.98 12.62L234.98 12.62Q234.77 12.77 234.58 12.78Q234.38 12.79 234.19 12.62L234.19 12.62Q233.57 12.05 232.85 11.58Q232.13 11.11 231.28 10.85Q230.42 10.58 229.30 10.58L229.30 10.58Q228.22 10.58 227.29 10.88Q226.37 11.18 225.71 11.74Q225.05 12.29 224.68 13.06Q224.30 13.82 224.30 14.78L224.30 14.78Q224.30 15.67 224.58 16.34Q224.86 17.02 225.37 17.52Q225.89 18.02 226.64 18.49Q227.40 18.96 228.31 19.42L228.31 19.42Q229.25 19.90 230.12 20.42Q231 20.95 231.71 21.60Q232.42 22.25 232.79 23.11Q233.16 23.98 233.16 25.15L233.16 25.15Q233.16 26.54 232.63 27.70Q232.10 28.85 231.12 29.69Q230.14 30.53 228.82 30.98Q227.50 31.44 225.89 31.44ZM254.62 30.98L242.57 30.98Q242.33 30.98 242.20 30.82Q242.06 30.65 242.10 30.43Q242.14 30.22 242.30 30.05L242.30 30.05L247.46 25.73Q249.29 24.22 250.74 22.94Q252.19 21.67 253.31 20.60Q254.42 19.54 255.23 18.64Q256.03 17.74 256.54 16.96Q257.04 16.18 257.29 15.43Q257.54 14.69 257.54 13.99L257.54 13.99Q257.54 12.84 257.05 12.08Q256.56 11.33 255.65 10.94Q254.74 10.56 253.44 10.56L253.44 10.56Q251.81 10.56 250.57 11.16Q249.34 11.76 248.11 12.74L248.11 12.74Q247.82 13.01 247.61 13.01Q247.39 13.01 247.15 12.74L247.15 12.74Q246.91 12.53 246.96 12.31Q247.01 12.10 247.30 11.83L247.30 11.83Q248.06 11.14 249.05 10.55Q250.03 9.96 251.21 9.64Q252.38 9.31 253.66 9.31L253.66 9.31Q254.78 9.31 255.74 9.61Q256.70 9.91 257.40 10.50Q258.10 11.09 258.49 11.93Q258.89 12.77 258.89 13.87L258.89 13.87Q258.89 14.69 258.61 15.54Q258.34 16.39 257.78 17.28Q257.23 18.17 256.36 19.16Q255.48 20.16 254.30 21.30Q253.13 22.44 251.59 23.78Q250.06 25.13 248.18 26.69L248.18 26.69L244.49 29.78L254.83 29.78Q255.02 29.78 255.12 29.89Q255.22 30 255.19 30.29L255.19 30.29Q255.17 30.60 254.99 30.79Q254.81 30.98 254.62 30.98L254.62 30.98ZM266.33 31.44L266.33 31.44Q264.65 31.44 263.30 30.65Q261.96 29.86 261.19 28.20Q260.42 26.54 260.42 24.02L260.42 24.02Q260.42 22.32 260.75 20.57Q261.07 18.82 261.71 17.17Q262.34 15.53 263.24 14.11Q264.14 12.70 265.32 11.60Q266.50 10.51 267.96 9.91Q269.42 9.31 271.10 9.31L271.10 9.31Q272.78 9.31 274.10 10.10Q275.42 10.90 276.18 12.53Q276.94 14.16 276.94 16.73L276.94 16.73Q276.94 18.43 276.61 20.18Q276.29 21.94 275.68 23.58Q275.06 25.22 274.16 26.64Q273.26 28.06 272.08 29.14Q270.89 30.22 269.45 30.83Q268.01 31.44 266.33 31.44ZM266.59 30.14L266.59 30.14Q267.96 30.14 269.12 29.59Q270.29 29.04 271.28 28.06Q272.28 27.07 273.06 25.79Q273.84 24.50 274.39 23.03Q274.94 21.55 275.23 20.02Q275.52 18.48 275.52 16.99L275.52 16.99Q275.52 14.62 274.92 13.22Q274.32 11.83 273.26 11.21Q272.21 10.58 270.84 10.58L270.84 10.58Q269.47 10.58 268.30 11.14Q267.12 11.69 266.11 12.67Q265.10 13.66 264.31 14.94Q263.52 16.22 262.98 17.70Q262.44 19.18 262.15 20.72Q261.86 22.27 261.86 23.74L261.86 23.74Q261.86 26.09 262.46 27.49Q263.06 28.90 264.14 29.52Q265.22 30.14 266.59 30.14ZM284.81 31.44L284.81 31.44Q283.13 31.44 281.78 30.65Q280.44 29.86 279.67 28.20Q278.90 26.54 278.90 24.02L278.90 24.02Q278.90 22.32 279.23 20.57Q279.55 18.82 280.19 17.17Q280.82 15.53 281.72 14.11Q282.62 12.70 283.80 11.60Q284.98 10.51 286.44 9.91Q287.90 9.31 289.58 9.31L289.58 9.31Q291.26 9.31 292.58 10.10Q293.90 10.90 294.66 12.53Q295.42 14.16 295.42 16.73L295.42 16.73Q295.42 18.43 295.09 20.18Q294.77 21.94 294.16 23.58Q293.54 25.22 292.64 26.64Q291.74 28.06 290.56 29.14Q289.37 30.22 287.93 30.83Q286.49 31.44 284.81 31.44ZM285.07 30.14L285.07 30.14Q286.44 30.14 287.60 29.59Q288.77 29.04 289.76 28.06Q290.76 27.07 291.54 25.79Q292.32 24.50 292.87 23.03Q293.42 21.55 293.71 20.02Q294 18.48 294 16.99L294 16.99Q294 14.62 293.40 13.22Q292.80 11.83 291.74 11.21Q290.69 10.58 289.32 10.58L289.32 10.58Q287.95 10.58 286.78 11.14Q285.60 11.69 284.59 12.67Q283.58 13.66 282.79 14.94Q282 16.22 281.46 17.70Q280.92 19.18 280.63 20.72Q280.34 22.27 280.34 23.74L280.34 23.74Q280.34 26.09 280.94 27.49Q281.54 28.90 282.62 29.52Q283.70 30.14 285.07 30.14ZM304.68 31.34L304.68 31.34Q304.42 31.34 304.22 31.22Q304.03 31.10 304.10 30.86L304.10 30.86L306.48 21.38Q306.70 20.54 306.59 20.12Q306.48 19.70 306.00 19.70L306.00 19.70Q305.57 19.70 305.12 19.99Q304.68 20.28 304.22 20.83Q303.77 21.38 303.24 22.22L303.24 22.22Q303.12 22.44 302.96 22.46Q302.81 22.49 302.54 22.42L302.54 22.42Q302.28 22.27 302.24 22.09Q302.21 21.91 302.33 21.72L302.33 21.72Q302.86 20.78 303.46 20.08Q304.06 19.37 304.74 18.96Q305.42 18.55 306.22 18.55L306.22 18.55Q306.77 18.55 307.15 18.76Q307.54 18.96 307.72 19.32Q307.90 19.68 307.92 20.20Q307.94 20.71 307.80 21.34L307.80 21.34L307.20 23.83Q307.94 22.34 308.77 21.32Q309.60 20.30 310.42 19.69Q311.23 19.08 312.01 18.80Q312.79 18.53 313.49 18.53L313.49 18.53Q314.50 18.53 315.14 18.98Q315.79 19.44 316.01 20.39Q316.22 21.34 315.84 22.87L315.84 22.87L314.38 28.51Q314.23 29.09 314.22 29.46Q314.21 29.83 314.35 30.02Q314.50 30.22 314.78 30.22L314.78 30.22Q315.19 30.22 315.55 29.98Q315.91 29.74 316.26 29.34Q316.61 28.94 316.90 28.54L316.90 28.54Q317.02 28.37 317.16 28.32Q317.30 28.27 317.52 28.42L317.52 28.42Q317.78 28.61 317.81 28.74Q317.83 28.87 317.74 29.06L317.74 29.06Q317.47 29.57 316.99 30.10Q316.51 30.62 315.89 31.00Q315.26 31.37 314.54 31.37L314.54 31.37Q313.97 31.37 313.62 31.14Q313.27 30.91 313.10 30.52Q312.94 30.12 312.96 29.56Q312.98 28.99 313.18 28.30L313.18 28.30L314.57 22.75Q314.83 21.77 314.78 21.10Q314.74 20.42 314.35 20.08Q313.97 19.73 313.20 19.73L313.20 19.73Q312.43 19.73 311.54 20.17Q310.66 20.62 309.72 21.62Q308.78 22.63 307.85 24.22Q306.91 25.80 306.07 28.13L306.07 28.13L305.42 30.89Q305.35 31.13 305.20 31.24Q305.04 31.34 304.68 31.34ZM324.41 31.44L324.41 31.44Q323.02 31.44 322.02 30.82Q321.02 30.19 320.52 29.09Q320.02 27.98 320.02 26.52L320.02 26.52Q320.02 25.18 320.46 23.78Q320.90 22.39 321.77 21.19Q322.63 19.99 323.90 19.26Q325.18 18.53 326.86 18.53L326.86 18.53Q328.25 18.53 329.22 19.13Q330.19 19.73 330.72 20.81Q331.25 21.89 331.25 23.30L331.25 23.30Q331.25 24.34 330.97 25.46Q330.70 26.59 330.16 27.66Q329.62 28.73 328.80 29.57Q327.98 30.41 326.88 30.92Q325.78 31.44 324.41 31.44ZM324.53 30.24L324.53 30.24Q325.85 30.24 326.84 29.59Q327.84 28.94 328.50 27.91Q329.16 26.88 329.51 25.69Q329.86 24.50 329.86 23.42L329.86 23.42Q329.86 22.30 329.50 21.48Q329.14 20.66 328.43 20.20Q327.72 19.73 326.71 19.73L326.71 19.73Q325.42 19.73 324.42 20.36Q323.42 21 322.74 22.01Q322.06 23.02 321.70 24.19Q321.34 25.37 321.34 26.45L321.34 26.45Q321.34 27.60 321.72 28.44Q322.10 29.28 322.81 29.76Q323.52 30.24 324.53 30.24ZM334.90 31.34L334.90 31.34Q334.63 31.34 334.44 31.22Q334.25 31.10 334.32 30.86L334.32 30.86L336.70 21.38Q336.91 20.54 336.80 20.12Q336.70 19.70 336.22 19.70L336.22 19.70Q335.78 19.70 335.34 19.99Q334.90 20.28 334.44 20.83Q333.98 21.38 333.46 22.22L333.46 22.22Q333.34 22.44 333.18 22.46Q333.02 22.49 332.76 22.42L332.76 22.42Q332.50 22.27 332.46 22.09Q332.42 21.91 332.54 21.72L332.54 21.72Q333.07 20.78 333.67 20.08Q334.27 19.37 334.96 18.96Q335.64 18.55 336.43 18.55L336.43 18.55Q336.98 18.55 337.36 18.73Q337.73 18.91 337.91 19.28Q338.09 19.66 338.11 20.16Q338.14 20.66 338.02 21.29L338.02 21.29L337.44 23.62Q338.16 22.13 338.78 21.14Q339.41 20.16 340.00 19.57Q340.58 18.98 341.10 18.76Q341.62 18.53 342.07 18.53L342.07 18.53Q342.38 18.53 342.55 18.65Q342.72 18.77 342.70 19.10L342.70 19.10Q342.72 19.97 342.83 20.46Q342.94 20.95 343.18 21.14Q343.42 21.34 343.75 21.34L343.75 21.34Q344.40 21.34 345.14 21.04Q345.89 20.74 347.09 19.94L347.09 19.94Q347.28 19.85 347.45 19.92Q347.62 19.99 347.71 20.16Q347.81 20.33 347.80 20.52Q347.78 20.71 347.64 20.81L347.64 20.81Q346.49 21.60 345.52 22.00Q344.54 22.39 343.68 22.39L343.68 22.39Q343.13 22.39 342.67 22.15Q342.22 21.91 341.95 21.34Q341.69 20.76 341.69 19.78L341.69 19.78Q341.14 19.90 340.52 20.46Q339.91 21.02 339.22 22.04Q338.52 23.06 337.81 24.54Q337.10 26.02 336.36 27.96L336.36 27.96L335.64 30.89Q335.57 31.13 335.41 31.24Q335.26 31.34 334.90 31.34ZM348.12 31.34L348.12 31.34Q347.86 31.34 347.66 31.22Q347.47 31.10 347.54 30.86L347.54 30.86L349.92 21.38Q350.14 20.54 350.03 20.12Q349.92 19.70 349.44 19.70L349.44 19.70Q349.01 19.70 348.56 19.99Q348.12 20.28 347.66 20.83Q347.21 21.38 346.68 22.22L346.68 22.22Q346.56 22.44 346.40 22.46Q346.25 22.49 345.98 22.42L345.98 22.42Q345.72 22.27 345.68 22.09Q345.65 21.91 345.77 21.72L345.77 21.72Q346.30 20.78 346.90 20.08Q347.50 19.37 348.18 18.96Q348.86 18.55 349.66 18.55L349.66 18.55Q350.21 18.55 350.58 18.74Q350.95 18.94 351.14 19.30Q351.34 19.66 351.36 20.18Q351.38 20.71 351.22 21.34L351.22 21.34L350.64 23.78Q351.36 22.32 352.18 21.30Q352.99 20.28 353.78 19.67Q354.58 19.06 355.31 18.79Q356.04 18.53 356.69 18.53L356.69 18.53Q357.70 18.53 358.33 19.00Q358.97 19.46 359.14 20.42Q359.30 21.38 358.94 22.87L358.94 22.87L356.90 30.89Q356.83 31.13 356.68 31.24Q356.52 31.34 356.18 31.34L356.18 31.34Q355.87 31.34 355.69 31.22Q355.51 31.10 355.58 30.86L355.58 30.86L357.67 22.75Q357.94 21.77 357.91 21.10Q357.89 20.42 357.53 20.08Q357.17 19.73 356.40 19.73L356.40 19.73Q355.68 19.73 354.84 20.18Q354.00 20.64 353.09 21.64Q352.18 22.63 351.26 24.23Q350.35 25.82 349.54 28.10L349.54 28.10L348.84 30.89Q348.79 31.13 348.64 31.24Q348.48 31.34 348.12 31.34ZM365.62 31.37L365.62 31.37Q365.02 31.37 364.67 31.15Q364.32 30.94 364.15 30.53Q363.98 30.12 364.02 29.56Q364.06 28.99 364.25 28.30L364.25 28.30L365.62 22.75Q365.88 21.77 365.86 21.10Q365.83 20.42 365.48 20.08Q365.14 19.73 364.42 19.73L364.42 19.73Q363.70 19.73 362.84 20.21Q361.99 20.69 361.07 21.71Q360.14 22.73 359.22 24.40Q358.30 26.06 357.48 28.42L357.48 28.42L356.93 28.42Q357.62 25.82 358.56 23.95Q359.50 22.08 360.58 20.88Q361.66 19.68 362.72 19.10Q363.79 18.53 364.73 18.53L364.73 18.53Q365.69 18.53 366.30 19.01Q366.91 19.49 367.09 20.44Q367.27 21.38 366.89 22.87L366.89 22.87L365.45 28.51Q365.28 29.09 365.27 29.46Q365.26 29.83 365.40 30.02Q365.54 30.22 365.83 30.22L365.83 30.22Q366.22 30.22 366.60 29.98Q366.98 29.74 367.32 29.34Q367.66 28.94 367.97 28.54L367.97 28.54Q368.09 28.37 368.23 28.32Q368.38 28.27 368.57 28.42L368.57 28.42Q368.83 28.58 368.87 28.75Q368.90 28.92 368.78 29.09L368.78 29.09Q368.52 29.57 368.04 30.11Q367.56 30.65 366.94 31.01Q366.31 31.37 365.62 31.37ZM373.97 31.39L373.97 31.39Q373.01 31.39 372.30 30.90Q371.59 30.41 371.22 29.46Q370.85 28.51 370.85 27.24L370.85 27.24Q370.85 26.11 371.15 24.89Q371.45 23.66 372.06 22.54Q372.67 21.41 373.56 20.50Q374.45 19.58 375.60 19.06Q376.75 18.53 378.19 18.53L378.19 18.53Q378.98 18.53 379.79 18.77Q380.59 19.01 381.36 19.44L381.36 19.44L381.41 19.06Q381.50 18.82 381.66 18.72Q381.82 18.62 382.13 18.62L382.13 18.62Q382.56 18.62 382.68 18.78Q382.80 18.94 382.73 19.22L382.73 19.22L380.35 28.63Q380.18 29.14 380.18 29.50Q380.18 29.86 380.34 30.05Q380.50 30.24 380.78 30.24L380.78 30.24Q381.14 30.24 381.52 29.99Q381.89 29.74 382.24 29.36Q382.58 28.99 382.87 28.56L382.87 28.56Q382.99 28.37 383.15 28.34Q383.30 28.32 383.50 28.46L383.50 28.46Q383.74 28.58 383.77 28.76Q383.81 28.94 383.71 29.09L383.71 29.09Q383.42 29.59 382.97 30.12Q382.51 30.65 381.89 31.02Q381.26 31.39 380.54 31.39L380.54 31.39Q380.02 31.39 379.67 31.19Q379.32 30.98 379.14 30.62Q378.96 30.26 378.96 29.80Q378.96 29.33 379.06 28.73L379.06 28.73Q379.18 28.18 379.31 27.65Q379.44 27.12 379.56 26.57L379.56 26.57Q378.62 28.27 377.68 29.34Q376.73 30.41 375.79 30.90Q374.86 31.39 373.97 31.39ZM372.19 27.14L372.19 27.14Q372.19 28.03 372.42 28.73Q372.65 29.42 373.12 29.81Q373.58 30.19 374.26 30.19L374.26 30.19Q375.19 30.19 376.25 29.39Q377.30 28.58 378.40 26.93Q379.49 25.27 380.50 22.78L380.50 22.78L381.07 20.54Q380.21 20.06 379.48 19.90Q378.74 19.73 378.07 19.73L378.07 19.73Q376.97 19.73 376.04 20.17Q375.12 20.62 374.40 21.38Q373.68 22.15 373.20 23.12Q372.72 24.10 372.46 25.13Q372.19 26.16 372.19 27.14ZM380.83 31.39L380.83 31.39Q380.57 31.39 380.48 31.21Q380.40 31.03 380.44 30.82Q380.47 30.60 380.64 30.42Q380.81 30.24 381.10 30.24L381.10 30.24Q381.70 30.24 382.52 29.81Q383.35 29.38 384.32 28.57Q385.30 27.77 386.34 26.72Q387.38 25.68 388.46 24.43Q389.54 23.18 390.54 21.84Q391.54 20.50 392.39 19.13Q393.24 17.76 393.88 16.44Q394.51 15.12 394.87 13.96Q395.23 12.79 395.23 11.86L395.23 11.86Q395.23 11.62 395.44 11.48Q395.64 11.35 395.90 11.35Q396.17 11.35 396.35 11.48Q396.53 11.62 396.53 11.86L396.53 11.86Q396.53 12.86 396.16 14.08Q395.78 15.29 395.09 16.68Q394.39 18.07 393.47 19.52Q392.54 20.98 391.46 22.40Q390.38 23.83 389.22 25.16Q388.06 26.50 386.88 27.62Q385.70 28.75 384.61 29.60Q383.52 30.46 382.55 30.92Q381.58 31.39 380.83 31.39ZM388.44 31.37L388.44 31.37Q387.89 31.37 387.52 31.14Q387.14 30.91 387 30.50Q386.86 30.10 386.87 29.53Q386.88 28.97 387.07 28.30L387.07 28.30L390.60 14.16Q391.25 11.59 392.15 10.40Q393.05 9.22 394.34 9.22L394.34 9.22Q395.09 9.22 395.57 9.58Q396.05 9.94 396.29 10.54Q396.53 11.14 396.53 11.88L396.53 11.88Q396.53 12.17 396.35 12.32Q396.17 12.48 395.90 12.48Q395.64 12.48 395.44 12.32Q395.23 12.17 395.23 11.88L395.23 11.88Q395.23 11.45 395.15 11.12Q395.06 10.80 394.84 10.61Q394.61 10.42 394.25 10.42L394.25 10.42Q393.74 10.42 393.32 10.84Q392.90 11.26 392.53 12.14Q392.16 13.03 391.78 14.52L391.78 14.52L388.30 28.51Q388.15 29.09 388.14 29.45Q388.13 29.81 388.26 30.01Q388.39 30.22 388.68 30.22L388.68 30.22Q389.09 30.22 389.46 29.98Q389.83 29.74 390.18 29.34Q390.53 28.94 390.79 28.54L390.79 28.54Q390.94 28.37 391.09 28.32Q391.25 28.27 391.44 28.42L391.44 28.42Q391.68 28.61 391.72 28.74Q391.75 28.87 391.66 29.06L391.66 29.06Q391.37 29.57 390.89 30.10Q390.41 30.62 389.80 31.00Q389.18 31.37 388.44 31.37Z"/></svg>