<svg xmlns="http://www.w3.org/2000/svg" xmlns:xlink="http://www.w3.org/1999/xlink" width="320.424" height="32.688"><path fill="black" d="M15.91 8.52L15.91 25.66L13.39 25.66L4.22 11.42L4.13 11.42Q4.18 12.26 4.25 13.51Q4.32 14.76 4.32 16.08L4.32 16.08L4.32 25.66L2.33 25.66L2.33 8.52L4.82 8.52L13.97 22.70L14.06 22.70Q14.04 22.32 14.00 21.55Q13.97 20.78 13.93 19.87Q13.90 18.96 13.90 18.19L13.90 18.19L13.90 8.52L15.91 8.52ZM31.46 19.20L31.46 19.20Q31.46 22.39 29.84 24.14Q28.22 25.90 25.46 25.90L25.46 25.90Q23.76 25.90 22.43 25.12Q21.10 24.34 20.33 22.84Q19.56 21.34 19.56 19.20L19.56 19.20Q19.56 16.01 21.17 14.28Q22.78 12.55 25.54 12.55L25.54 12.55Q27.29 12.55 28.62 13.33Q29.95 14.11 30.71 15.59Q31.46 17.06 31.46 19.20ZM21.74 19.20L21.74 19.20Q21.74 21.48 22.64 22.81Q23.54 24.14 25.51 24.14L25.51 24.14Q27.46 24.14 28.37 22.81Q29.28 21.48 29.28 19.20L29.28 19.20Q29.28 16.92 28.37 15.62Q27.46 14.33 25.49 14.33L25.49 14.33Q23.52 14.33 22.63 15.62Q21.74 16.92 21.74 19.20ZM39.10 24.17L39.10 24.17Q39.58 24.17 40.08 24.08Q40.58 24 40.90 23.90L40.90 23.90L40.90 25.51Q40.56 25.68 39.94 25.79Q39.31 25.90 38.74 25.90L38.74 25.90Q37.73 25.90 36.88 25.55Q36.02 25.20 35.50 24.34Q34.97 23.47 34.97 21.91L34.97 21.91L34.97 14.42L33.14 14.42L33.14 13.42L34.99 12.58L35.83 9.84L37.08 9.84L37.08 12.79L40.80 12.79L40.80 14.42L37.08 14.42L37.08 21.86Q37.08 23.04 37.64 23.60Q38.21 24.17 39.10 24.17ZM54.65 19.20L54.65 19.20Q54.65 22.39 53.03 24.14Q51.41 25.90 48.65 25.90L48.65 25.90Q46.94 25.90 45.61 25.12Q44.28 24.34 43.51 22.84Q42.74 21.34 42.74 19.20L42.74 19.20Q42.74 16.01 44.35 14.28Q45.96 12.55 48.72 12.55L48.72 12.55Q50.47 12.55 51.80 13.33Q53.14 14.11 53.89 15.59Q54.65 17.06 54.65 19.20ZM44.93 19.20L44.93 19.20Q44.93 21.48 45.83 22.81Q46.73 24.14 48.70 24.14L48.70 24.14Q50.64 24.14 51.55 22.81Q52.46 21.48 52.46 19.20L52.46 19.20Q52.46 16.92 51.55 15.62Q50.64 14.33 48.67 14.33L48.67 14.33Q46.70 14.33 45.82 15.62Q44.93 16.92 44.93 19.20ZM74.23 21.07L74.23 21.07Q74.23 23.35 72.58 24.62Q70.92 25.90 68.11 25.90L68.11 25.90Q66.67 25.90 65.45 25.68Q64.22 25.46 63.41 25.08L63.41 25.08L63.41 23.02Q64.27 23.40 65.56 23.71Q66.84 24.02 68.21 24.02L68.21 24.02Q70.13 24.02 71.10 23.28Q72.07 22.54 72.07 21.26L72.07 21.26Q72.07 20.42 71.71 19.85Q71.35 19.27 70.48 18.78Q69.60 18.29 68.04 17.74L68.04 17.74Q65.86 16.94 64.74 15.79Q63.62 14.64 63.62 12.65L63.62 12.65Q63.62 11.28 64.32 10.31Q65.02 9.34 66.25 8.81Q67.49 8.28 69.10 8.28L69.10 8.28Q70.51 8.28 71.69 8.54Q72.86 8.81 73.82 9.24L73.82 9.24L73.15 11.09Q72.26 10.70 71.22 10.44Q70.18 10.18 69.05 10.18L69.05 10.18Q67.44 10.18 66.62 10.86Q65.81 11.54 65.81 12.67L65.81 12.67Q65.81 13.54 66.17 14.11Q66.53 14.69 67.34 15.14Q68.16 15.60 69.55 16.13L69.55 16.13Q71.06 16.68 72.11 17.32Q73.15 17.95 73.69 18.84Q74.23 19.73 74.23 21.07ZM82.27 12.58L82.27 12.58Q84.62 12.58 85.75 13.61Q86.88 14.64 86.88 16.90L86.88 16.90L86.88 25.66L85.34 25.66L84.94 23.83L84.84 23.83Q84 24.89 83.08 25.39Q82.15 25.90 80.52 25.90L80.52 25.90Q78.77 25.90 77.62 24.97Q76.46 24.05 76.46 22.08L76.46 22.08Q76.46 20.16 77.98 19.12Q79.49 18.07 82.63 17.98L82.63 17.98L84.82 17.90L84.82 17.14Q84.82 15.53 84.12 14.90Q83.42 14.28 82.15 14.28L82.15 14.28Q81.14 14.28 80.23 14.58Q79.32 14.88 78.53 15.26L78.53 15.26L77.88 13.68Q78.72 13.22 79.87 12.90Q81.02 12.58 82.27 12.58ZM84.79 19.37L82.90 19.44Q80.50 19.54 79.57 20.21Q78.65 20.88 78.65 22.10L78.65 22.10Q78.65 23.18 79.31 23.69Q79.97 24.19 81 24.19L81 24.19Q82.63 24.19 83.71 23.29Q84.79 22.39 84.79 20.52L84.79 20.52L84.79 19.37ZM97.06 12.55L97.06 12.55Q99.36 12.55 100.54 13.67Q101.71 14.78 101.71 17.28L101.71 17.28L101.71 25.66L99.62 25.66L99.62 17.42Q99.62 14.33 96.74 14.33L96.74 14.33Q94.61 14.33 93.79 15.53Q92.98 16.73 92.98 18.98L92.98 18.98L92.98 25.66L90.86 25.66L90.86 12.79L92.57 12.79L92.88 14.54L93 14.54Q93.62 13.54 94.73 13.04Q95.83 12.55 97.06 12.55ZM114.07 22.10L114.07 22.10Q114.07 23.98 112.68 24.94Q111.29 25.90 108.94 25.90L108.94 25.90Q107.59 25.90 106.62 25.68Q105.65 25.46 104.90 25.08L104.90 25.08L104.90 23.16Q105.67 23.54 106.76 23.87Q107.86 24.19 108.98 24.19L108.98 24.19Q110.59 24.19 111.31 23.68Q112.03 23.16 112.03 22.30L112.03 22.30Q112.03 21.82 111.77 21.43Q111.50 21.05 110.82 20.66Q110.14 20.28 108.86 19.80L108.86 19.80Q107.62 19.32 106.73 18.84Q105.84 18.36 105.36 17.69Q104.88 17.02 104.88 15.96L104.88 15.96Q104.88 14.33 106.21 13.44Q107.54 12.55 109.70 12.55L109.70 12.55Q110.88 12.55 111.90 12.78Q112.92 13.01 113.81 13.42L113.81 13.42L113.09 15.10Q112.27 14.76 111.38 14.52Q110.50 14.28 109.56 14.28L109.56 14.28Q108.26 14.28 107.58 14.70Q106.90 15.12 106.90 15.84L106.90 15.84Q106.90 16.37 107.21 16.74Q107.52 17.11 108.25 17.46Q108.98 17.81 110.21 18.29L110.21 18.29Q111.43 18.74 112.30 19.22Q113.16 19.70 113.62 20.39Q114.07 21.07 114.07 22.10ZM123.72 8.52L128.62 8.52Q131.83 8.52 133.48 9.47Q135.12 10.42 135.12 12.77L135.12 12.77Q135.12 14.28 134.28 15.28Q133.44 16.27 131.86 16.56L131.86 16.56L131.86 16.68Q132.94 16.85 133.81 17.30Q134.69 17.76 135.19 18.60Q135.70 19.44 135.70 20.78L135.70 20.78Q135.70 23.11 134.10 24.38Q132.50 25.66 129.74 25.66L129.74 25.66L123.72 25.66L123.72 8.52ZM125.88 15.82L129.05 15.82Q131.26 15.82 132.07 15.11Q132.89 14.40 132.89 13.01L132.89 13.01Q132.89 11.59 131.89 10.98Q130.90 10.37 128.71 10.37L128.71 10.37L125.88 10.37L125.88 15.82ZM129.17 17.62L125.88 17.62L125.88 23.83L129.34 23.83Q131.62 23.83 132.50 22.94Q133.39 22.06 133.39 20.62L133.39 20.62Q133.39 19.27 132.47 18.44Q131.54 17.62 129.17 17.62L129.17 17.62ZM143.90 12.58L143.90 12.58Q146.26 12.58 147.38 13.61Q148.51 14.64 148.51 16.90L148.51 16.90L148.51 25.66L146.98 25.66L146.57 23.83L146.47 23.83Q145.63 24.89 144.71 25.39Q143.78 25.90 142.15 25.90L142.15 25.90Q140.40 25.90 139.25 24.97Q138.10 24.05 138.10 22.08L138.10 22.08Q138.10 20.16 139.61 19.12Q141.12 18.07 144.26 17.98L144.26 17.98L146.45 17.90L146.45 17.14Q146.45 15.53 145.75 14.90Q145.06 14.28 143.78 14.28L143.78 14.28Q142.78 14.28 141.86 14.58Q140.95 14.88 140.16 15.26L140.16 15.26L139.51 13.68Q140.35 13.22 141.50 12.90Q142.66 12.58 143.90 12.58ZM146.42 19.37L144.53 19.44Q142.13 19.54 141.20 20.21Q140.28 20.88 140.28 22.10L140.28 22.10Q140.28 23.18 140.94 23.69Q141.60 24.19 142.63 24.19L142.63 24.19Q144.26 24.19 145.34 23.29Q146.42 22.39 146.42 20.52L146.42 20.52L146.42 19.37ZM156.79 24.17L156.79 24.17Q157.27 24.17 157.78 24.08Q158.28 24 158.59 23.90L158.59 23.90L158.59 25.51Q158.26 25.68 157.63 25.79Q157.01 25.90 156.43 25.90L156.43 25.90Q155.42 25.90 154.57 25.55Q153.72 25.20 153.19 24.34Q152.66 23.47 152.66 21.91L152.66 21.91L152.66 14.42L150.84 14.42L150.84 13.42L152.69 12.58L153.53 9.84L154.78 9.84L154.78 12.79L158.50 12.79L158.50 14.42L154.78 14.42L154.78 21.86Q154.78 23.04 155.34 23.60Q155.90 24.17 156.79 24.17ZM166.03 12.58L166.03 12.58Q168.38 12.58 169.51 13.61Q170.64 14.64 170.64 16.90L170.64 16.90L170.64 25.66L169.10 25.66L168.70 23.83L168.60 23.83Q167.76 24.89 166.84 25.39Q165.91 25.90 164.28 25.90L164.28 25.90Q162.53 25.90 161.38 24.97Q160.22 24.05 160.22 22.08L160.22 22.08Q160.22 20.16 161.74 19.12Q163.25 18.07 166.39 17.98L166.39 17.98L168.58 17.90L168.58 17.14Q168.58 15.53 167.88 14.90Q167.18 14.28 165.91 14.28L165.91 14.28Q164.90 14.28 163.99 14.58Q163.08 14.88 162.29 15.26L162.29 15.26L161.64 13.68Q162.48 13.22 163.63 12.90Q164.78 12.58 166.03 12.58ZM168.55 19.37L166.66 19.44Q164.26 19.54 163.33 20.21Q162.41 20.88 162.41 22.10L162.41 22.10Q162.41 23.18 163.07 23.69Q163.73 24.19 164.76 24.19L164.76 24.19Q166.39 24.19 167.47 23.29Q168.55 22.39 168.55 20.52L168.55 20.52L168.55 19.37ZM176.71 7.42L176.71 16.94Q176.71 17.33 176.68 17.95Q176.64 18.58 176.62 19.03L176.62 19.03L176.71 19.03Q176.86 18.84 177.14 18.48Q177.43 18.12 177.73 17.75Q178.03 17.38 178.25 17.14L178.25 17.14L182.35 12.79L184.82 12.79L179.62 18.29L185.18 25.66L182.64 25.66L178.18 19.66L176.71 20.93L176.71 25.66L174.62 25.66L174.62 7.42L176.71 7.42ZM204.89 19.87L204.89 21.77L202.39 21.77L202.39 25.66L200.35 25.66L200.35 21.77L192.14 21.77L192.14 19.97L200.21 8.42L202.39 8.42L202.39 19.87L204.89 19.87ZM200.35 19.87L200.35 14.47Q200.35 13.22 200.40 12.35Q200.45 11.47 200.47 10.68L200.47 10.68L200.38 10.68Q200.18 11.14 199.90 11.66Q199.61 12.19 199.34 12.55L199.34 12.55L194.21 19.87L200.35 19.87ZM217.92 17.06L217.92 17.06Q217.92 19.82 217.34 21.80Q216.77 23.78 215.52 24.84Q214.27 25.90 212.21 25.90L212.21 25.90Q209.30 25.90 207.92 23.56Q206.54 21.22 206.54 17.06L206.54 17.06Q206.54 14.28 207.11 12.31Q207.67 10.34 208.92 9.30Q210.17 8.26 212.21 8.26L212.21 8.26Q215.09 8.26 216.50 10.57Q217.92 12.89 217.92 17.06ZM208.66 17.06L208.66 17.06Q208.66 20.59 209.46 22.34Q210.26 24.10 212.21 24.10L212.21 24.10Q214.13 24.10 214.96 22.36Q215.78 20.62 215.78 17.06L215.78 17.06Q215.78 13.56 214.96 11.81Q214.13 10.06 212.21 10.06L212.21 10.06Q210.26 10.06 209.46 11.81Q208.66 13.56 208.66 17.06ZM231.65 17.06L231.65 17.06Q231.65 19.82 231.07 21.80Q230.50 23.78 229.25 24.84Q228 25.90 225.94 25.90L225.94 25.90Q223.03 25.90 221.65 23.56Q220.27 21.22 220.27 17.06L220.27 17.06Q220.27 14.28 220.84 12.31Q221.40 10.34 222.65 9.30Q223.90 8.26 225.94 8.26L225.94 8.26Q228.82 8.26 230.23 10.57Q231.65 12.89 231.65 17.06ZM222.38 17.06L222.38 17.06Q222.38 20.59 223.19 22.34Q223.99 24.10 225.94 24.10L225.94 24.10Q227.86 24.10 228.68 22.36Q229.51 20.62 229.51 17.06L229.51 17.06Q229.51 13.56 228.68 11.81Q227.86 10.06 225.94 10.06L225.94 10.06Q223.99 10.06 223.19 11.81Q222.38 13.56 222.38 17.06ZM247.30 12.55L247.30 12.55Q249.60 12.55 250.78 13.67Q251.95 14.78 251.95 17.28L251.95 17.28L251.95 25.66L249.86 25.66L249.86 17.42Q249.86 14.33 246.98 14.33L246.98 14.33Q244.85 14.33 244.03 15.53Q243.22 16.73 243.22 18.98L243.22 18.98L243.22 25.66L241.10 25.66L241.10 12.79L242.81 12.79L243.12 14.54L243.24 14.54Q243.86 13.54 244.97 13.04Q246.07 12.55 247.30 12.55ZM267.12 19.20L267.12 19.20Q267.12 22.39 265.50 24.14Q263.88 25.90 261.12 25.90L261.12 25.90Q259.42 25.90 258.08 25.12Q256.75 24.34 255.98 22.84Q255.22 21.34 255.22 19.20L255.22 19.20Q255.22 16.01 256.82 14.28Q258.43 12.55 261.19 12.55L261.19 12.55Q262.94 12.55 264.28 13.33Q265.61 14.11 266.36 15.59Q267.12 17.06 267.12 19.20ZM257.40 19.20L257.40 19.20Q257.40 21.48 258.30 22.81Q259.20 24.14 261.17 24.14L261.17 24.14Q263.11 24.14 264.02 22.81Q264.94 21.48 264.94 19.20L264.94 19.20Q264.94 16.92 264.02 15.62Q263.11 14.33 261.14 14.33L261.14 14.33Q259.18 14.33 258.29 15.62Q257.40 16.92 257.40 19.20ZM276.46 12.55L276.46 12.55Q276.82 12.55 277.24 12.59Q277.66 12.62 277.97 12.70L277.97 12.70L277.70 14.64Q277.39 14.57 277.02 14.52Q276.65 14.47 276.31 14.47L276.31 14.47Q275.33 14.47 274.46 15.01Q273.60 15.55 273.08 16.52Q272.57 17.50 272.57 18.79L272.57 18.79L272.57 25.66L270.46 25.66L270.46 12.79L272.18 12.79L272.42 15.14L272.52 15.14Q273.14 14.09 274.13 13.32Q275.11 12.55 276.46 12.55ZM294.48 12.55L294.48 12.55Q296.66 12.55 297.74 13.67Q298.82 14.78 298.82 17.28L298.82 17.28L298.82 25.66L296.74 25.66L296.74 17.38Q296.74 14.33 294.12 14.33L294.12 14.33Q292.25 14.33 291.44 15.41Q290.64 16.49 290.64 18.55L290.64 18.55L290.64 25.66L288.55 25.66L288.55 17.38Q288.55 14.33 285.91 14.33L285.91 14.33Q283.97 14.33 283.22 15.53Q282.48 16.73 282.48 18.98L282.48 18.98L282.48 25.66L280.37 25.66L280.37 12.79L282.07 12.79L282.38 14.54L282.50 14.54Q283.10 13.54 284.12 13.04Q285.14 12.55 286.30 12.55L286.30 12.55Q289.32 12.55 290.23 14.71L290.23 14.71L290.35 14.71Q291 13.61 292.12 13.08Q293.23 12.55 294.48 12.55ZM307.68 12.58L307.68 12.58Q310.03 12.58 311.16 13.61Q312.29 14.64 312.29 16.90L312.29 16.90L312.29 25.66L310.75 25.66L310.34 23.83L310.25 23.83Q309.41 24.89 308.48 25.39Q307.56 25.90 305.93 25.90L305.93 25.90Q304.18 25.90 303.02 24.97Q301.87 24.05 301.87 22.08L301.87 22.08Q301.87 20.16 303.38 19.12Q304.90 18.07 308.04 17.98L308.04 17.98L310.22 17.90L310.22 17.14Q310.22 15.53 309.53 14.90Q308.83 14.28 307.56 14.28L307.56 14.28Q306.55 14.28 305.64 14.58Q304.73 14.88 303.94 15.26L303.94 15.26L303.29 13.68Q304.13 13.22 305.28 12.90Q306.43 12.58 307.68 12.58ZM310.20 19.37L308.30 19.44Q305.90 19.54 304.98 20.21Q304.06 20.88 304.06 22.10L304.06 22.10Q304.06 23.18 304.72 23.69Q305.38 24.19 306.41 24.19L306.41 24.19Q308.04 24.19 309.12 23.29Q310.20 22.39 310.20 20.52L310.20 20.52L310.20 19.37ZM318.38 7.42L318.38 25.66L316.27 25.66L316.27 7.42L318.38 7.42Z"/></svg>