<svg xmlns="http://www.w3.org/2000/svg" xmlns:xlink="http://www.w3.org/1999/xlink" width="178.53515625" height="37.86328125"><path fill="black" d="M3.14 23.18L3.14 24.33Q3.14 24.76 3.41 25.92L3.41 25.92Q5.04 26.57 6.53 26.57L6.53 26.57Q7.99 26.57 8.84 25.79Q9.69 25.01 9.69 23.57L9.69 23.57Q9.69 22.70 9.20 22.07Q8.71 21.43 7.99 20.96Q7.28 20.50 6.02 19.86L6.02 19.86Q4.56 19.13 3.66 18.53Q2.77 17.93 2.14 17.02Q1.51 16.10 1.51 14.80L1.51 14.80Q1.51 12.69 2.96 11.53Q4.42 10.36 6.71 10.36L6.71 10.36Q8.50 10.36 11.57 11.13L11.57 11.13L11.23 14.75L9.82 14.61L9.82 13.56Q9.82 13.39 9.69 12.88Q9.55 12.38 9.50 12.21L9.50 12.21Q8.79 11.89 8.15 11.79Q7.51 11.68 6.64 11.68L6.64 11.68Q5.47 11.68 4.69 12.38Q3.91 13.08 3.91 14.34L3.91 14.34Q3.91 15.14 4.38 15.75Q4.85 16.36 5.56 16.82Q6.27 17.27 7.49 17.91L7.49 17.91Q9 18.64 9.95 19.28Q10.90 19.92 11.55 20.90Q12.21 21.88 12.21 23.27L12.21 23.27Q12.21 25.58 10.61 26.79Q9 28.01 6.48 28.01L6.48 28.01Q5.04 28.01 3.87 27.72Q2.71 27.43 1.95 27.11Q1.20 26.78 1.20 26.73L1.20 26.73L1.56 23.04L3.14 23.18ZM21.07 15.69Q21.33 15.71 21.98 15.75Q22.63 15.79 23.16 15.79L23.16 15.79L24.55 15.79L25.01 16.22Q24.98 16.63 24.91 17.89Q24.83 19.15 24.83 19.89L24.83 19.89L24.83 23.64Q24.83 24.38 24.93 25.16Q25.03 25.95 25.08 26.18L25.08 26.18L26.73 26.34L26.57 27.76Q26.36 27.74 25.51 27.69Q24.67 27.64 23.47 27.64L23.47 27.64L23.16 25.77Q21.94 27.88 19.44 27.88L19.44 27.88Q17.86 27.88 17.00 27.22Q16.15 26.57 15.85 25.40Q15.55 24.23 15.55 22.44L15.55 22.44L15.55 19.17Q15.55 18.86 15.45 18.21Q15.35 17.57 15.30 17.34L15.30 17.34L13.72 16.97L13.84 15.69Q14.07 15.71 14.69 15.75Q15.30 15.79 15.81 15.79L15.81 15.79L17.20 15.79L17.66 16.22Q17.64 16.63 17.57 17.89Q17.50 19.15 17.50 19.89L17.50 19.89L17.50 23.25Q17.50 26.34 19.86 26.34L19.86 26.34Q21.28 26.34 22.08 25.24Q22.89 24.14 22.89 22.61L22.89 22.61L22.89 19.17Q22.89 18.86 22.79 18.21Q22.70 17.57 22.65 17.34L22.65 17.34L20.95 16.97L21.07 15.69ZM32.03 17.80Q32.73 16.65 33.66 16.11Q34.59 15.57 35.89 15.57L35.89 15.57Q36.45 15.57 36.93 15.67Q37.41 15.76 37.52 15.81L37.52 15.81L37.29 19.77L35.89 19.70L35.89 18.43Q35.89 18.25 35.55 17.23L35.55 17.23L35.46 17.23Q33.86 17.25 33.09 18.16Q32.32 19.08 32.25 20.82L32.25 20.82L32.25 23.64Q32.25 24.38 32.32 25.16Q32.39 25.95 32.41 26.18L32.41 26.18L34.77 26.34L34.59 27.76Q34.30 27.74 33.26 27.69Q32.23 27.64 31.02 27.64L31.02 27.64Q30.40 27.67 29.56 27.70Q28.72 27.74 28.36 27.76L28.36 27.76L28.24 26.57L30.06 26.18Q30.11 25.97 30.21 25.31Q30.30 24.64 30.30 24.35L30.30 24.35L30.30 19.17Q30.30 18.88 30.21 18.22Q30.11 17.57 30.06 17.34L30.06 17.34L28.24 16.97L28.36 15.69Q28.65 15.71 29.33 15.75Q30.01 15.79 30.56 15.79L30.56 15.79L31.43 15.79L31.89 16.22L32.03 17.80ZM45.73 25.75Q45.28 26.66 44.19 27.27Q43.09 27.88 41.92 27.88L41.92 27.88Q40.31 27.88 39.38 27.05Q38.44 26.23 38.44 24.81L38.44 24.81Q38.44 22.15 41.65 21.62L41.65 21.62L45.49 20.98L45.49 20.18Q45.49 16.86 43.23 16.86L43.23 16.86Q42.63 16.86 42.02 17.00Q41.41 17.13 40.96 17.34L40.96 17.34L40.79 18.35L40.79 19.34L39.40 19.42L39.13 16.15Q41.29 15.57 43.48 15.57L43.48 15.57Q45.61 15.57 46.52 16.74Q47.44 17.91 47.44 20.66L47.44 20.66L47.44 23.64Q47.44 24.38 47.53 25.16Q47.63 25.95 47.67 26.18L47.67 26.18L49.34 26.34L49.16 27.76Q48.95 27.74 48.11 27.69Q47.27 27.64 46.07 27.64L46.07 27.64L45.73 25.75ZM42.06 22.84Q41.34 22.97 40.95 23.40Q40.55 23.82 40.55 24.46L40.55 24.46Q40.55 25.37 41.00 25.86Q41.46 26.34 42.30 26.34L42.30 26.34Q43.50 26.34 44.40 25.58Q45.30 24.81 45.49 23.64L45.49 23.64L45.49 22.20L42.06 22.84ZM65.17 11.13Q64.69 11.64 63.37 13.07Q62.05 14.50 61.83 14.82L61.83 14.82L57.34 21.55L62.14 21.48L62.14 18.07L64.02 17.43L64.02 21.35L66.22 21.21L66.22 22.82L64.02 22.82L64.02 23.64Q64.02 24.30 64.08 25.04Q64.14 25.77 64.18 26.18L64.18 26.18L66.18 26.34L66.01 27.76Q65.80 27.74 64.95 27.69Q64.09 27.64 62.88 27.64L62.88 27.64Q62.17 27.67 61.10 27.70Q60.04 27.74 59.58 27.76L59.58 27.76L59.45 26.57L61.92 26.18Q62.13 24.67 62.14 24.35L62.14 24.35L62.14 22.82L55.92 22.82L54.87 21.55L63.52 9.91L65.17 11.13ZM68.64 19.82Q68.64 23.34 70.05 25.61Q71.47 27.88 74.40 27.88L74.40 27.88Q77.33 27.88 78.74 25.61Q80.16 23.34 80.16 19.82L80.16 19.82Q80.16 16.29 78.74 14.02Q77.33 11.75 74.40 11.75L74.40 11.75Q71.47 11.75 70.05 14.02Q68.64 16.29 68.64 19.82L68.64 19.82ZM77.79 19.82Q77.79 26.45 74.40 26.45L74.40 26.45Q71.02 26.45 71.02 19.82L71.02 19.82Q71.02 13.20 74.40 13.20L74.40 13.20Q77.79 13.20 77.79 19.82L77.79 19.82ZM82.55 19.82Q82.55 23.34 83.96 25.61Q85.38 27.88 88.31 27.88L88.31 27.88Q91.24 27.88 92.65 25.61Q94.07 23.34 94.07 19.82L94.07 19.82Q94.07 16.29 92.65 14.02Q91.24 11.75 88.31 11.75L88.31 11.75Q85.38 11.75 83.96 14.02Q82.55 16.29 82.55 19.82L82.55 19.82ZM91.70 19.82Q91.70 26.45 88.31 26.45L88.31 26.45Q84.93 26.45 84.93 19.82L84.93 19.82Q84.93 13.20 88.31 13.20L88.31 13.20Q91.70 13.20 91.70 19.82L91.70 19.82ZM114.48 26.34L114.32 27.76Q114.11 27.74 113.26 27.69Q112.42 27.64 111.22 27.64L111.22 27.64Q110.65 27.67 109.86 27.70Q109.08 27.74 108.77 27.76L108.77 27.76L108.66 26.57L110.26 26.18Q110.50 25.13 110.50 24.35L110.50 24.35L110.50 21.02Q110.50 17.04 108.02 17.04L108.02 17.04Q106.63 17.04 105.80 18.15Q104.98 19.27 104.95 21.07L104.95 21.07L104.95 23.64Q104.95 24.38 105.02 25.16Q105.09 25.95 105.12 26.18L105.12 26.18L106.99 26.34L106.83 27.76Q106.62 27.74 105.77 27.69Q104.93 27.64 103.73 27.64L103.73 27.64Q103.11 27.67 102.27 27.70Q101.43 27.74 101.06 27.76L101.06 27.76L100.95 26.57L102.77 26.18Q102.80 25.99 102.88 25.49Q102.96 24.98 103.01 24.48L103.01 24.48L103.01 19.17Q103.01 18.86 102.91 18.21Q102.82 17.57 102.77 17.34L102.77 17.34L100.95 16.97L101.06 15.69Q101.36 15.71 102.04 15.75Q102.73 15.79 103.28 15.79L103.28 15.79L104.13 15.79L104.59 16.22L104.74 17.75Q105.22 16.84 106.17 16.21Q107.11 15.57 108.39 15.57L108.39 15.57Q110.72 15.57 111.58 16.93Q112.44 18.28 112.44 21.02L112.44 21.02L112.44 23.64Q112.44 24.38 112.51 25.16Q112.58 25.95 112.61 26.18L112.61 26.18L114.48 26.34ZM126.86 21.74Q126.86 24.55 125.43 26.21Q124.00 27.88 121.34 27.88L121.34 27.88Q118.68 27.88 117.25 26.21Q115.82 24.55 115.82 21.74L115.82 21.74Q115.82 18.90 117.25 17.24Q118.68 15.57 121.34 15.57L121.34 15.57Q124.04 15.57 125.45 17.23Q126.86 18.88 126.86 21.74L126.86 21.74ZM124.61 21.74Q124.61 19.65 123.84 18.30Q123.07 16.95 121.34 16.95L121.34 16.95Q119.61 16.95 118.85 18.30Q118.08 19.65 118.08 21.74L118.08 21.74Q118.08 23.82 118.85 25.17Q119.61 26.52 121.34 26.52L121.34 26.52Q123.06 26.52 123.83 25.17Q124.61 23.82 124.61 21.74L124.61 21.74ZM132.56 17.80Q133.27 16.65 134.20 16.11Q135.13 15.57 136.43 15.57L136.43 15.57Q136.98 15.57 137.46 15.67Q137.94 15.76 138.06 15.81L138.06 15.81L137.82 19.77L136.43 19.70L136.43 18.43Q136.43 18.25 136.09 17.23L136.09 17.23L136.00 17.23Q134.39 17.25 133.62 18.16Q132.86 19.08 132.79 20.82L132.79 20.82L132.79 23.64Q132.79 24.38 132.86 25.16Q132.93 25.95 132.95 26.18L132.95 26.18L135.30 26.34L135.13 27.76Q134.84 27.74 133.80 27.69Q132.76 27.64 131.55 27.64L131.55 27.64Q130.93 27.67 130.10 27.70Q129.26 27.74 128.89 27.76L128.89 27.76L128.78 26.57L130.59 26.18Q130.64 25.97 130.74 25.31Q130.84 24.64 130.84 24.35L130.84 24.35L130.84 19.17Q130.84 18.88 130.74 18.22Q130.64 17.57 130.59 17.34L130.59 17.34L128.78 16.97L128.89 15.69Q129.19 15.71 129.87 15.75Q130.55 15.79 131.10 15.79L131.10 15.79L131.96 15.79L132.42 16.22L132.56 17.80ZM159.15 26.34L158.99 27.76Q158.78 27.74 157.93 27.69Q157.09 27.64 155.89 27.64L155.89 27.64Q155.32 27.67 154.54 27.70Q153.75 27.74 153.45 27.76L153.45 27.76L153.33 26.57L154.93 26.18Q155.17 25.13 155.17 24.35L155.17 24.35L155.17 21.02Q155.17 19.24 154.69 18.14Q154.21 17.04 152.99 17.04L152.99 17.04Q151.64 17.04 150.84 18.14Q150.04 19.24 150.01 21.02L150.01 21.02L150.01 23.64Q150.01 24.38 150.08 25.16Q150.15 25.95 150.18 26.18L150.18 26.18L152.05 26.34L151.89 27.76Q151.68 27.74 150.83 27.69Q149.99 27.64 148.79 27.64L148.79 27.64Q148.22 27.67 147.43 27.70Q146.65 27.74 146.34 27.76L146.34 27.76L146.21 26.57L147.83 26.18Q148.07 25.13 148.07 24.35L148.07 24.35L148.07 21.02Q148.07 19.24 147.59 18.14Q147.11 17.04 145.89 17.04L145.89 17.04Q144.54 17.04 143.74 18.16Q142.93 19.29 142.91 21.07L142.91 21.07L142.91 23.64Q142.91 24.38 142.98 25.16Q143.05 25.95 143.07 26.18L143.07 26.18L144.95 26.34L144.77 27.76Q144.56 27.74 143.72 27.69Q142.89 27.64 141.68 27.64L141.68 27.64Q141.06 27.67 140.22 27.70Q139.38 27.74 139.02 27.76L139.02 27.76L138.90 26.57L140.72 26.18Q140.74 25.99 140.83 25.49Q140.92 24.98 140.96 24.48L140.96 24.48L140.96 19.17Q140.96 18.88 140.87 18.22Q140.77 17.57 140.72 17.34L140.72 17.34L138.90 16.97L139.02 15.69Q139.31 15.71 139.99 15.75Q140.67 15.79 141.22 15.79L141.22 15.79L142.09 15.79L142.55 16.22L142.69 17.75Q143.17 16.82 144.11 16.20Q145.04 15.57 146.30 15.57L146.30 15.57Q147.69 15.57 148.48 16.15Q149.26 16.72 149.65 17.85L149.65 17.85Q150.18 16.86 151.15 16.22Q152.12 15.57 153.40 15.57L153.40 15.57Q155.53 15.57 156.32 16.93Q157.11 18.28 157.11 21.02L157.11 21.02L157.11 23.64Q157.11 24.38 157.18 25.16Q157.25 25.95 157.28 26.18L157.28 26.18L159.15 26.34ZM167.61 25.75Q167.17 26.66 166.07 27.27Q164.98 27.88 163.80 27.88L163.80 27.88Q162.20 27.88 161.26 27.05Q160.32 26.23 160.32 24.81L160.32 24.81Q160.32 22.15 163.54 21.62L163.54 21.62L167.38 20.98L167.38 20.18Q167.38 16.86 165.12 16.86L165.12 16.86Q164.52 16.86 163.91 17.00Q163.30 17.13 162.84 17.34L162.84 17.34L162.68 18.35L162.68 19.34L161.29 19.42L161.02 16.15Q163.17 15.57 165.36 15.57L165.36 15.57Q167.50 15.57 168.41 16.74Q169.32 17.91 169.32 20.66L169.32 20.66L169.32 23.64Q169.32 24.38 169.42 25.16Q169.51 25.95 169.56 26.18L169.56 26.18L171.22 26.34L171.05 27.76Q170.84 27.74 170.00 27.69Q169.16 27.64 167.95 27.64L167.95 27.64L167.61 25.75ZM163.95 22.84Q163.23 22.97 162.83 23.40Q162.43 23.82 162.43 24.46L162.43 24.46Q162.43 25.37 162.89 25.86Q163.35 26.34 164.19 26.34L164.19 26.34Q165.39 26.34 166.29 25.58Q167.19 24.81 167.38 23.64L167.38 23.64L167.38 22.20L163.95 22.84ZM172.10 9.41Q172.39 9.43 173.08 9.47Q173.77 9.50 174.32 9.50L174.32 9.50L175.70 9.50L176.16 9.94Q176.09 10.65 176.04 11.73Q175.99 12.81 175.99 13.61L175.99 13.61L175.99 23.64Q175.99 24.30 176.04 25.07Q176.09 25.84 176.13 26.18L176.13 26.18L178.01 26.34L177.84 27.76Q177.63 27.74 176.79 27.69Q175.95 27.64 174.74 27.64L174.74 27.64Q174.12 27.67 173.28 27.70Q172.44 27.74 172.08 27.76L172.08 27.76L171.96 26.57L173.81 26.18Q173.88 25.86 173.96 25.27Q174.05 24.67 174.05 24.35L174.05 24.35L174.05 12.88Q174.05 12.56 173.95 11.92Q173.86 11.27 173.81 11.06L173.81 11.06L171.98 10.68L172.10 9.41Z"/></svg>