<svg xmlns="http://www.w3.org/2000/svg" xmlns:xlink="http://www.w3.org/1999/xlink" width="181.74609375" height="37.86328125"><path fill="black" d="M3.41 22.34L3.43 24.02Q3.43 24.19 3.77 25.01L3.77 25.01Q5.05 25.68 6.36 25.68L6.36 25.68Q7.44 25.68 8.15 25.16Q8.86 24.64 8.86 23.66L8.86 23.66Q8.86 22.95 8.45 22.40Q8.04 21.86 7.43 21.49Q6.82 21.12 5.71 20.57L5.71 20.57Q4.29 19.88 3.39 19.26Q2.50 18.64 1.86 17.64Q1.22 16.63 1.22 15.14L1.22 15.14Q1.22 13.70 1.94 12.61Q2.66 11.52 3.94 10.94Q5.23 10.36 6.87 10.36L6.87 10.36Q9.27 10.36 12.14 11.23L12.14 11.23L11.81 15.86L9.82 15.74L9.82 13.97Q9.82 13.85 9.53 13.15L9.53 13.15Q9.05 12.88 8.60 12.74Q8.16 12.60 7.58 12.60L7.58 12.60Q6.48 12.60 5.83 13.11Q5.18 13.63 5.18 14.54L5.18 14.54Q5.18 15.19 5.58 15.68Q5.98 16.17 6.57 16.53Q7.17 16.89 8.23 17.40L8.23 17.40Q9.67 18.09 10.59 18.69Q11.52 19.29 12.17 20.30Q12.82 21.30 12.82 22.75L12.82 22.75Q12.82 24.35 12 25.54Q11.18 26.73 9.78 27.37Q8.38 28.01 6.64 28.01L6.64 28.01Q5.20 28.01 3.96 27.76Q2.71 27.50 1.88 27.19Q1.05 26.87 1.05 26.85L1.05 26.85L1.42 22.22L3.41 22.34ZM21.12 15.57Q21.41 15.62 22.36 15.70Q23.31 15.79 23.93 15.79L23.93 15.79L26.04 15.74L26.54 16.20Q26.50 16.70 26.40 18.26Q26.31 19.82 26.31 20.57L26.31 20.57L26.31 23.02Q26.31 23.75 26.39 24.64Q26.47 25.54 26.52 25.79L26.52 25.79L27.96 25.95L27.82 27.76Q27.59 27.74 26.50 27.69Q25.42 27.64 23.40 27.64L23.40 27.64L23.18 25.77Q22.49 26.73 21.65 27.23Q20.81 27.74 19.70 27.74L19.70 27.74Q17.61 27.74 16.55 26.65Q15.48 25.56 15.48 23.47L15.48 23.47L15.48 19.84Q15.48 19.52 15.39 18.74Q15.29 17.95 15.23 17.68L15.23 17.68L13.92 17.34L14.13 15.57Q14.43 15.62 15.31 15.70Q16.20 15.79 16.83 15.79L16.83 15.79L18.57 15.74L19.08 16.20Q19.03 16.70 18.94 18.26Q18.84 19.82 18.84 20.57L18.84 20.57L18.84 23.13Q18.84 24.14 19.27 24.74Q19.70 25.34 20.59 25.34L20.59 25.34Q21.55 25.34 22.25 24.45Q22.95 23.57 22.95 22.03L22.95 22.03L22.95 19.84Q22.95 19.52 22.85 18.77Q22.75 18.02 22.70 17.75L22.70 17.75L20.91 17.34L21.12 15.57ZM33.74 17.78Q35.14 15.57 37.11 15.57L37.11 15.57Q37.66 15.57 38.28 15.67Q38.89 15.76 39.08 15.81L39.08 15.81L38.73 20.64L36.95 20.57L36.95 19.24Q36.95 19.15 36.76 18L36.76 18Q36.71 17.98 36.61 17.98L36.61 17.98Q35.65 17.98 34.95 18.86Q34.24 19.75 34.24 21.28L34.24 21.28L34.24 23.02Q34.24 23.75 34.32 24.64Q34.41 25.54 34.45 25.79L34.45 25.79L36.45 25.95L36.33 27.76Q35.99 27.74 34.74 27.69Q33.49 27.64 31.79 27.64L31.79 27.64Q31.10 27.64 30.26 27.69Q29.41 27.74 29.14 27.76L29.14 27.76L29.03 26.09L30.66 25.79Q30.68 25.52 30.78 24.77Q30.88 24.02 30.88 23.73L30.88 23.73L30.88 19.84Q30.88 19.52 30.79 18.77Q30.69 18.02 30.63 17.75L30.63 17.75L28.84 17.34L29.05 15.55Q29.34 15.60 30.29 15.69Q31.24 15.79 31.86 15.79L31.86 15.79L33.01 15.74L33.52 16.20L33.74 17.78ZM46.69 25.92Q46.14 26.93 45.32 27.40Q44.51 27.88 43.37 27.88L43.37 27.88Q41.74 27.88 40.79 26.97Q39.84 26.06 39.84 24.48L39.84 24.48Q39.84 21.67 43.02 21.16L43.02 21.16L46.42 20.61L46.42 19.92Q46.42 18.75 46.01 18.25Q45.61 17.75 44.63 17.75L44.63 17.75Q44.19 17.75 43.64 17.89Q43.09 18.02 42.68 18.21L42.68 18.21L42.52 19.17L42.54 20.20L40.73 20.27L40.37 16.22Q41.47 15.95 42.73 15.76Q43.98 15.57 44.77 15.57L44.77 15.57Q47.14 15.57 48.46 16.71Q49.78 17.85 49.78 19.89L49.78 19.89L49.78 23.02Q49.78 23.75 49.87 24.64Q49.96 25.54 50.00 25.79L50.00 25.79L51.45 25.95L51.29 27.76Q51.06 27.74 49.97 27.69Q48.89 27.64 46.88 27.64L46.88 27.64L46.69 25.92ZM44.65 22.46Q43.98 22.58 43.69 22.93Q43.39 23.27 43.39 23.95L43.39 23.95Q43.39 25.42 44.70 25.42L44.70 25.42Q45.32 25.42 45.79 25.01Q46.25 24.60 46.42 23.87L46.42 23.87L46.42 22.17L44.65 22.46ZM57.55 11.78Q57.94 11.80 59.02 11.90Q60.09 12 60.43 12L60.43 12L68.06 12L68.45 13.65L60.87 30.16L57.87 29.13L63.26 18.55Q63.38 18.32 63.71 17.22Q64.05 16.13 64.32 15.16L64.32 15.16L60.64 15.16Q60.35 15.16 59.31 15.26L59.31 15.26Q59.21 15.60 59.12 15.85Q59.02 16.10 58.95 16.27L58.95 16.27L58.75 17.37L56.86 17.30L57.12 12.26L57.55 11.78ZM68.89 19.82Q68.89 23.34 70.43 25.61Q71.96 27.88 75.14 27.88L75.14 27.88Q78.30 27.88 79.84 25.61Q81.38 23.34 81.38 19.82L81.38 19.82Q81.38 16.29 79.84 14.02Q78.30 11.75 75.14 11.75L75.14 11.75Q71.98 11.75 70.44 14.02Q68.89 16.29 68.89 19.82L68.89 19.82ZM77.44 19.82Q77.44 22.38 76.93 24.11Q76.43 25.84 75.14 25.84L75.14 25.84Q73.84 25.84 73.34 24.11Q72.83 22.38 72.83 19.82L72.83 19.82Q72.83 17.25 73.34 15.52Q73.84 13.79 75.14 13.79L75.14 13.79Q76.44 13.79 76.94 15.52Q77.44 17.25 77.44 19.82L77.44 19.82ZM82.62 19.82Q82.62 23.34 84.15 25.61Q85.69 27.88 88.86 27.88L88.86 27.88Q92.03 27.88 93.56 25.61Q95.10 23.34 95.10 19.82L95.10 19.82Q95.10 16.29 93.56 14.02Q92.03 11.75 88.86 11.75L88.86 11.75Q85.70 11.75 84.16 14.02Q82.62 16.29 82.62 19.82L82.62 19.82ZM91.16 19.82Q91.16 22.38 90.66 24.11Q90.15 25.84 88.86 25.84L88.86 25.84Q87.56 25.84 87.06 24.11Q86.55 22.38 86.55 19.82L86.55 19.82Q86.55 17.25 87.06 15.52Q87.56 13.79 88.86 13.79L88.86 13.79Q90.16 13.79 90.66 15.52Q91.16 17.25 91.16 19.82L91.16 19.82ZM115.10 25.95L114.98 27.76Q114.69 27.74 113.54 27.69Q112.39 27.64 110.68 27.64L110.68 27.64Q109.99 27.64 109.39 27.69Q108.80 27.74 108.62 27.76L108.62 27.76L108.50 26.09L109.85 25.79L109.92 24.74L109.97 23.73L109.97 20.18Q109.97 19.20 109.52 18.59Q109.08 17.98 108.19 17.98L108.19 17.98Q107.23 17.98 106.52 18.86Q105.82 19.75 105.82 21.28L105.82 21.28L105.82 23.02Q105.82 23.75 105.90 24.64Q105.98 25.54 106.03 25.79L106.03 25.79L107.59 25.95L107.47 27.76Q107.18 27.74 106.03 27.69Q104.88 27.64 103.17 27.64L103.17 27.64Q102.48 27.64 101.74 27.69Q100.99 27.74 100.78 27.76L100.78 27.76L100.65 26.09L102.23 25.79Q102.26 25.52 102.36 24.79Q102.46 24.05 102.46 23.73L102.46 23.73L102.46 19.84Q102.46 19.55 102.36 18.79Q102.27 18.02 102.21 17.75L102.21 17.75L100.42 17.34L100.63 15.57Q100.92 15.62 101.87 15.70Q102.82 15.79 103.44 15.79L103.44 15.79L104.59 15.74L105.09 16.20L105.34 17.91Q106.11 16.78 107.07 16.18Q108.02 15.57 109.32 15.57L109.32 15.57Q111.29 15.57 112.31 16.66Q113.33 17.75 113.33 19.84L113.33 19.84L113.33 23.02Q113.33 23.75 113.41 24.64Q113.50 25.54 113.54 25.79L113.54 25.79L115.10 25.95ZM127.72 21.79Q127.72 24.79 126.19 26.40Q124.65 28.01 121.79 28.01L121.79 28.01Q118.93 28.01 117.40 26.40Q115.86 24.79 115.86 21.79L115.86 21.79Q115.86 18.79 117.40 17.18Q118.93 15.57 121.79 15.57L121.79 15.57Q124.65 15.57 126.19 17.18Q127.72 18.79 127.72 21.79L127.72 21.79ZM123.90 21.79Q123.90 19.58 123.41 18.60Q122.92 17.61 121.79 17.61L121.79 17.61Q120.67 17.61 120.18 18.60Q119.68 19.58 119.68 21.79L119.68 21.79Q119.68 23.99 120.18 24.98Q120.67 25.97 121.79 25.97L121.79 25.97Q122.92 25.97 123.41 24.98Q123.90 24 123.90 21.79L123.90 21.79ZM133.63 17.78Q135.04 15.57 137.00 15.57L137.00 15.57Q137.55 15.57 138.17 15.67Q138.79 15.76 138.97 15.81L138.97 15.81L138.62 20.64L136.84 20.57L136.84 19.24Q136.84 19.15 136.65 18L136.65 18Q136.61 17.98 136.50 17.98L136.50 17.98Q135.54 17.98 134.84 18.86Q134.13 19.75 134.13 21.28L134.13 21.28L134.13 23.02Q134.13 23.75 134.21 24.64Q134.30 25.54 134.34 25.79L134.34 25.79L136.34 25.95L136.22 27.76Q135.88 27.74 134.63 27.69Q133.38 27.64 131.68 27.64L131.68 27.64Q130.99 27.64 130.15 27.69Q129.30 27.74 129.04 27.76L129.04 27.76L128.92 26.09L130.55 25.79Q130.57 25.52 130.67 24.77Q130.77 24.02 130.77 23.73L130.77 23.73L130.77 19.84Q130.77 19.52 130.68 18.77Q130.58 18.02 130.52 17.75L130.52 17.75L128.73 17.34L128.94 15.55Q129.23 15.60 130.18 15.69Q131.13 15.79 131.75 15.79L131.75 15.79L132.90 15.74L133.41 16.20L133.63 17.78ZM161.14 25.95L161.02 27.76Q160.72 27.74 159.57 27.69Q158.43 27.64 156.73 27.64L156.73 27.64Q156.04 27.64 155.43 27.69Q154.83 27.74 154.66 27.76L154.66 27.76L154.54 26.09L155.88 25.79L155.95 24.74L156 23.73L156 20.18Q156 19.17 155.62 18.57Q155.24 17.98 154.42 17.98L154.42 17.98Q153.53 17.98 152.88 18.86Q152.24 19.75 152.24 21.28L152.24 21.28L152.24 23.02Q152.24 23.75 152.32 24.64Q152.40 25.54 152.45 25.79L152.45 25.79L154.01 25.95L153.89 27.76Q153.60 27.74 152.45 27.69Q151.30 27.64 149.60 27.64L149.60 27.64Q148.91 27.64 148.31 27.69Q147.70 27.74 147.53 27.76L147.53 27.76L147.41 26.09L148.76 25.79L148.83 24.74L148.88 23.73L148.88 20.18Q148.88 19.17 148.49 18.57Q148.11 17.98 147.29 17.98L147.29 17.98Q146.40 17.98 145.76 18.86Q145.11 19.75 145.11 21.28L145.11 21.28L145.11 23.02Q145.11 23.75 145.20 24.64Q145.28 25.54 145.32 25.79L145.32 25.79L146.88 25.95L146.77 27.76Q146.47 27.74 145.32 27.69Q144.18 27.64 142.46 27.64L142.46 27.64Q141.77 27.64 141.03 27.69Q140.29 27.74 140.07 27.76L140.07 27.76L139.95 26.09L141.53 25.79Q141.55 25.52 141.65 24.79Q141.75 24.05 141.75 23.73L141.75 23.73L141.75 19.84Q141.75 19.55 141.66 18.79Q141.56 18.02 141.50 17.75L141.50 17.75L139.71 17.34L139.92 15.57Q140.21 15.62 141.16 15.70Q142.11 15.79 142.73 15.79L142.73 15.79L143.88 15.74L144.39 16.20L144.63 17.87Q145.35 16.77 146.27 16.17Q147.20 15.57 148.42 15.57L148.42 15.57Q151.03 15.57 151.88 17.68L151.88 17.68Q153.34 15.57 155.54 15.57L155.54 15.57Q157.42 15.57 158.39 16.66Q159.36 17.75 159.36 19.84L159.36 19.84L159.36 23.02Q159.36 23.75 159.45 24.64Q159.53 25.54 159.59 25.79L159.59 25.79L161.14 25.95ZM168.82 25.92Q168.27 26.93 167.46 27.40Q166.64 27.88 165.50 27.88L165.50 27.88Q163.88 27.88 162.93 26.97Q161.98 26.06 161.98 24.48L161.98 24.48Q161.98 21.67 165.15 21.16L165.15 21.16L168.55 20.61L168.55 19.92Q168.55 18.75 168.15 18.25Q167.74 17.75 166.76 17.75L166.76 17.75Q166.32 17.75 165.77 17.89Q165.22 18.02 164.81 18.21L164.81 18.21L164.65 19.17L164.67 20.20L162.87 20.27L162.50 16.22Q163.61 15.95 164.86 15.76Q166.11 15.57 166.90 15.57L166.90 15.57Q169.28 15.57 170.60 16.71Q171.91 17.85 171.91 19.89L171.91 19.89L171.91 23.02Q171.91 23.75 172.00 24.64Q172.09 25.54 172.14 25.79L172.14 25.79L173.58 25.95L173.43 27.76Q173.19 27.74 172.11 27.69Q171.02 27.64 169.01 27.64L169.01 27.64L168.82 25.92ZM166.78 22.46Q166.11 22.58 165.82 22.93Q165.53 23.27 165.53 23.95L165.53 23.95Q165.53 25.42 166.83 25.42L166.83 25.42Q167.45 25.42 167.92 25.01Q168.39 24.60 168.55 23.87L168.55 23.87L168.55 22.17L166.78 22.46ZM174.36 9.26Q174.66 9.30 175.60 9.40Q176.54 9.50 177.18 9.50L177.18 9.50L179.29 9.46L179.79 9.91Q179.70 10.88 179.62 12.17Q179.54 13.46 179.54 14.27L179.54 14.27L179.54 23.02Q179.54 23.75 179.63 24.64Q179.72 25.54 179.77 25.79L179.77 25.79L181.32 25.95L181.21 27.76Q180.91 27.74 179.77 27.69Q178.62 27.64 176.91 27.64L176.91 27.64Q176.21 27.64 175.47 27.69Q174.73 27.74 174.50 27.76L174.50 27.76L174.39 26.09L175.97 25.79Q176.02 25.43 176.10 24.74Q176.19 24.05 176.19 23.73L176.19 23.73L176.19 13.56Q176.19 13.24 176.09 12.49Q175.99 11.73 175.95 11.47L175.95 11.47L174.15 11.06L174.36 9.26Z"/></svg>