<svg xmlns="http://www.w3.org/2000/svg" xmlns:xlink="http://www.w3.org/1999/xlink" width="199.87200000000004" height="32.688"><path fill="black" d="M5.23 25.66L-0.34 25.66L-0.22 25.06L0.65 25.06Q1.25 25.06 1.60 24.92Q1.94 24.79 2.16 24.35Q2.38 23.90 2.57 23.04L2.57 23.04L5.09 11.11Q5.18 10.70 5.23 10.40Q5.28 10.10 5.28 9.91L5.28 9.91Q5.28 9.38 4.98 9.25Q4.68 9.12 4.06 9.12L4.06 9.12L3.17 9.12L3.29 8.52L6.60 8.52L12.31 23.83L15.02 11.11Q15.12 10.70 15.17 10.40Q15.22 10.10 15.22 9.91L15.22 9.91Q15.22 9.38 14.92 9.25Q14.62 9.12 13.97 9.12L13.97 9.12L13.06 9.12L13.18 8.52L18.77 8.52L18.65 9.12L17.76 9.12Q17.18 9.12 16.82 9.25Q16.46 9.38 16.26 9.82Q16.06 10.25 15.86 11.14L15.86 11.14L12.77 25.66L11.93 25.66L6.14 10.13L3.38 23.06Q3.31 23.45 3.26 23.75Q3.22 24.05 3.22 24.26L3.22 24.26Q3.22 24.77 3.52 24.91Q3.82 25.06 4.44 25.06L4.44 25.06L5.35 25.06L5.23 25.66ZM22.73 25.90L22.73 25.90Q20.90 25.90 19.75 24.72Q18.60 23.54 18.60 21.07L18.60 21.07Q18.60 20.02 18.85 18.84Q19.10 17.66 19.61 16.55Q20.11 15.43 20.88 14.53Q21.65 13.63 22.68 13.09Q23.71 12.55 25.03 12.55L25.03 12.55Q26.18 12.55 27.11 13.04Q28.03 13.54 28.58 14.62Q29.14 15.70 29.14 17.45L29.14 17.45Q29.14 18.46 28.88 19.61Q28.63 20.76 28.14 21.88Q27.65 22.99 26.88 23.89Q26.11 24.79 25.08 25.34Q24.05 25.90 22.73 25.90ZM22.82 25.15L22.82 25.15Q23.88 25.15 24.73 24.65Q25.58 24.14 26.21 23.30Q26.83 22.46 27.25 21.44Q27.67 20.42 27.88 19.36Q28.08 18.29 28.08 17.33L28.08 17.33Q28.08 15.26 27.23 14.28Q26.38 13.30 24.91 13.30L24.91 13.30Q23.88 13.30 23.04 13.79Q22.20 14.28 21.58 15.12Q20.95 15.96 20.52 16.98Q20.09 18 19.87 19.09Q19.66 20.18 19.66 21.14L19.66 21.14Q19.66 22.58 20.05 23.47Q20.45 24.36 21.16 24.76Q21.86 25.15 22.82 25.15ZM33.98 25.90L33.98 25.90Q33.22 25.90 32.77 25.61Q32.33 25.32 32.14 24.83Q31.94 24.34 31.94 23.69L31.94 23.69Q31.94 23.33 32.03 22.74Q32.11 22.15 32.35 21.05L32.35 21.05L33.94 13.56L32.16 13.56L32.28 13.01Q32.90 12.98 33.32 12.89Q33.74 12.79 34.04 12.48Q34.34 12.17 34.58 11.54Q34.82 10.92 35.11 9.84L35.11 9.84L35.74 9.84L35.09 12.79L37.80 12.79L37.66 13.56L34.94 13.56L33.36 21.05Q33.10 22.20 33.01 22.76Q32.93 23.33 32.93 23.69L32.93 23.69Q32.93 24.36 33.22 24.73Q33.50 25.10 34.18 25.10L34.18 25.10Q34.70 25.10 35.21 24.97Q35.71 24.84 36.26 24.62L36.26 24.62L36.46 25.20Q35.83 25.54 35.20 25.72Q34.56 25.90 33.98 25.90ZM42.79 25.90L42.79 25.90Q40.97 25.90 39.82 24.72Q38.66 23.54 38.66 21.07L38.66 21.07Q38.66 20.02 38.92 18.84Q39.17 17.66 39.67 16.55Q40.18 15.43 40.94 14.53Q41.71 13.63 42.74 13.09Q43.78 12.55 45.10 12.55L45.10 12.55Q46.25 12.55 47.17 13.04Q48.10 13.54 48.65 14.62Q49.20 15.70 49.20 17.45L49.20 17.45Q49.20 18.46 48.95 19.61Q48.70 20.76 48.20 21.88Q47.71 22.99 46.94 23.89Q46.18 24.79 45.14 25.34Q44.11 25.90 42.79 25.90ZM42.89 25.15L42.89 25.15Q43.94 25.15 44.80 24.65Q45.65 24.14 46.27 23.30Q46.90 22.46 47.32 21.44Q47.74 20.42 47.94 19.36Q48.14 18.29 48.14 17.33L48.14 17.33Q48.14 15.26 47.29 14.28Q46.44 13.30 44.98 13.30L44.98 13.30Q43.94 13.30 43.10 13.79Q42.26 14.28 41.64 15.12Q41.02 15.96 40.58 16.98Q40.15 18 39.94 19.09Q39.72 20.18 39.72 21.14L39.72 21.14Q39.72 22.58 40.12 23.47Q40.51 24.36 41.22 24.76Q41.93 25.15 42.89 25.15ZM61.37 25.90L61.37 25.90Q59.69 25.90 58.58 25.37Q57.48 24.84 56.95 23.95Q56.42 23.06 56.42 21.98L56.42 21.98Q56.42 21.53 56.69 21.29Q56.95 21.05 57.34 21.05L57.34 21.05Q57.34 22.34 57.76 23.27Q58.18 24.19 59.08 24.68Q59.98 25.18 61.42 25.18L61.42 25.18Q63.55 25.18 64.80 24.23Q66.05 23.28 66.05 21.50L66.05 21.50Q66.05 20.71 65.78 20.08Q65.52 19.44 64.79 18.78Q64.06 18.12 62.62 17.30L62.62 17.30Q61.15 16.46 60.30 15.50Q59.45 14.54 59.45 12.91L59.45 12.91Q59.45 11.59 60.05 10.55Q60.65 9.50 61.81 8.89Q62.98 8.28 64.56 8.28L64.56 8.28Q66.05 8.28 66.92 8.70Q67.80 9.12 68.18 9.76Q68.57 10.39 68.57 11.09L68.57 11.09Q68.57 11.52 68.32 11.76Q68.06 12.00 67.61 12.00L67.61 12.00Q67.63 11.23 67.39 10.56Q67.15 9.89 66.48 9.44Q65.81 9 64.49 9L64.49 9Q63.46 9 62.54 9.41Q61.63 9.82 61.06 10.67Q60.48 11.52 60.48 12.82L60.48 12.82Q60.48 13.68 60.80 14.29Q61.13 14.90 61.75 15.43Q62.38 15.96 63.29 16.51L63.29 16.51Q64.75 17.35 65.59 18.08Q66.43 18.82 66.77 19.58Q67.10 20.35 67.10 21.34L67.10 21.34Q67.10 22.78 66.42 23.80Q65.74 24.82 64.44 25.36Q63.14 25.90 61.37 25.90ZM73.66 25.90L73.66 25.90Q72.58 25.90 71.65 25.34Q70.73 24.79 70.19 23.71Q69.65 22.63 69.65 21.05L69.65 21.05Q69.65 19.94 69.90 18.77Q70.15 17.59 70.66 16.49Q71.16 15.38 71.90 14.50Q72.65 13.61 73.62 13.08Q74.59 12.55 75.79 12.55L75.79 12.55Q77.14 12.55 77.86 13.26Q78.58 13.97 78.58 15.24L78.58 15.24Q78.58 16.63 77.66 17.69Q76.75 18.74 75.22 19.33Q73.68 19.92 71.81 19.92L71.81 19.92L70.78 19.92Q70.75 20.06 70.73 20.42Q70.70 20.78 70.70 21.07L70.70 21.07Q70.70 22.90 71.56 23.98Q72.41 25.06 73.70 25.06L73.70 25.06Q74.83 25.06 75.70 24.49Q76.56 23.93 77.06 23.14L77.06 23.14Q77.21 23.23 77.21 23.50L77.21 23.50Q77.21 23.98 76.78 24.53Q76.34 25.08 75.55 25.49Q74.76 25.90 73.66 25.90ZM70.87 19.22L71.54 19.22Q73.22 19.22 74.58 18.74Q75.94 18.26 76.73 17.36Q77.52 16.46 77.52 15.19L77.52 15.19Q77.52 14.30 77.09 13.79Q76.66 13.27 75.67 13.27L75.67 13.27Q74.74 13.27 73.94 13.76Q73.15 14.26 72.54 15.11Q71.93 15.96 71.50 17.02Q71.06 18.07 70.87 19.22L70.87 19.22ZM80.50 25.66L82.58 15.43Q82.63 15.19 82.67 14.89Q82.70 14.59 82.70 14.33L82.70 14.33Q82.70 13.73 82.38 13.56Q82.06 13.39 81.14 13.39L81.14 13.39L80.69 13.39L80.83 12.79L83.90 12.79L83.38 16.01L83.45 16.01Q83.90 15.05 84.43 14.26Q84.96 13.46 85.62 13.01Q86.28 12.55 87.17 12.55L87.17 12.55Q88.08 12.55 88.49 13.01Q88.90 13.46 88.90 13.99L88.90 13.99Q88.90 14.42 88.66 14.69Q88.42 14.95 87.96 14.95L87.96 14.95Q87.96 14.14 87.70 13.75Q87.43 13.37 86.88 13.37L86.88 13.37Q86.18 13.37 85.54 13.91Q84.89 14.45 84.34 15.42Q83.78 16.39 83.33 17.68Q82.87 18.96 82.56 20.42L82.56 20.42L81.50 25.66L80.50 25.66ZM92.04 25.90L92.04 25.90Q91.25 25.90 90.85 25.32Q90.46 24.74 90.46 23.66L90.46 23.66Q90.46 23.26 90.52 22.75Q90.58 22.25 90.70 21.70Q90.82 21.14 90.91 20.62L90.91 20.62L91.94 15.31Q91.99 15.10 92.03 14.83Q92.06 14.57 92.06 14.30L92.06 14.30Q92.06 13.70 91.78 13.55Q91.49 13.39 90.62 13.39L90.62 13.39L90.17 13.39L90.29 12.79L93.48 12.79L91.87 20.76Q91.78 21.17 91.68 21.68Q91.58 22.20 91.51 22.69Q91.44 23.18 91.44 23.57L91.44 23.57Q91.44 24.26 91.64 24.68Q91.85 25.10 92.35 25.10L92.35 25.10Q92.76 25.10 93.14 24.91Q93.53 24.72 94.03 24.31L94.03 24.31L94.37 24.79Q93.84 25.25 93.29 25.57Q92.74 25.90 92.04 25.90ZM93.55 9.55L93.55 9.55Q93.24 9.55 93.01 9.36Q92.78 9.17 92.78 8.76L92.78 8.76Q92.78 8.47 92.89 8.26Q93 8.04 93.18 7.91Q93.36 7.78 93.60 7.78L93.60 7.78Q93.94 7.78 94.15 7.98Q94.37 8.18 94.37 8.57L94.37 8.57Q94.37 8.93 94.25 9.14Q94.13 9.36 93.95 9.46Q93.77 9.55 93.55 9.55ZM92.95 31.42L92.95 31.42Q92.59 31.42 92.24 31.37Q91.90 31.32 91.63 31.22L91.63 31.22L91.80 30.53Q92.04 30.60 92.36 30.65Q92.69 30.70 92.95 30.70L92.95 30.70Q93.67 30.70 94.15 30.37Q94.63 30.05 95.00 29.14Q95.38 28.22 95.71 26.52L95.71 26.52L98.50 13.56L96.43 13.56L96.55 13.03L98.64 12.79L99 11.06Q99.36 9.24 100.19 8.21Q101.02 7.18 102.50 7.18L102.50 7.18Q103.70 7.18 104.30 7.76Q104.90 8.35 104.90 9.19L104.90 9.19Q104.90 9.60 104.65 9.85Q104.40 10.10 103.99 10.10L103.99 10.10Q103.99 8.95 103.67 8.41Q103.34 7.87 102.46 7.87L102.46 7.87Q101.42 7.87 100.87 8.70Q100.32 9.53 100.01 11.02L100.01 11.02L99.65 12.79L101.90 12.79L101.76 13.56L99.50 13.56L96.72 26.52Q96.41 27.98 96.07 28.94Q95.74 29.90 95.30 30.44Q94.87 30.98 94.31 31.20Q93.74 31.42 92.95 31.42ZM116.40 25.66L106.99 25.66L107.26 24.58L113.11 19.10Q114.60 17.69 115.54 16.54Q116.47 15.38 116.92 14.29Q117.36 13.20 117.36 11.95L117.36 11.95Q117.36 10.61 116.53 9.80Q115.70 9 114.29 9L114.29 9Q113.11 9 112.32 9.47Q111.53 9.94 111.11 10.70Q110.69 11.47 110.66 12.36L110.66 12.36Q110.26 12.36 110.04 12.17Q109.82 11.98 109.82 11.59L109.82 11.59Q109.82 10.87 110.33 10.10Q110.83 9.34 111.84 8.81Q112.85 8.28 114.31 8.28L114.31 8.28Q116.26 8.28 117.34 9.26Q118.42 10.25 118.42 11.93L118.42 11.93Q118.42 12.89 118.15 13.76Q117.89 14.64 117.32 15.52Q116.76 16.39 115.87 17.38Q114.98 18.36 113.76 19.49L113.76 19.49L108.10 24.77L114.34 24.77Q115.01 24.77 115.37 24.65Q115.73 24.53 115.92 24.20Q116.11 23.88 116.28 23.33L116.28 23.33L116.54 22.32L117.14 22.32L116.40 25.66ZM124.58 25.92L124.58 25.92Q122.71 25.92 121.64 24.52Q120.58 23.11 120.58 20.33L120.58 20.33Q120.58 18.89 120.82 17.24Q121.06 15.60 121.58 14.02Q122.11 12.43 122.94 11.14Q123.77 9.84 124.91 9.07Q126.05 8.30 127.56 8.30L127.56 8.30Q128.71 8.30 129.61 8.84Q130.51 9.38 131.05 10.61Q131.59 11.83 131.59 13.87L131.59 13.87Q131.59 15.36 131.36 17.02Q131.14 18.67 130.63 20.24Q130.13 21.82 129.32 23.11Q128.52 24.41 127.34 25.16Q126.17 25.92 124.58 25.92ZM124.70 25.18L124.70 25.18Q126.02 25.18 127.00 24.42Q127.97 23.66 128.65 22.44Q129.34 21.22 129.76 19.72Q130.18 18.22 130.37 16.69Q130.56 15.17 130.56 13.87L130.56 13.87Q130.56 12.07 130.18 11.02Q129.79 9.96 129.10 9.50Q128.40 9.05 127.49 9.05L127.49 9.05Q126.19 9.05 125.22 9.82Q124.25 10.58 123.55 11.83Q122.86 13.08 122.44 14.60Q122.02 16.13 121.80 17.65Q121.58 19.18 121.58 20.45L121.58 20.45Q121.58 22.85 122.42 24.01Q123.26 25.18 124.70 25.18ZM137.09 25.92L137.09 25.92Q135.22 25.92 134.15 24.52Q133.08 23.11 133.08 20.33L133.08 20.33Q133.08 18.89 133.32 17.24Q133.56 15.60 134.09 14.02Q134.62 12.43 135.44 11.14Q136.27 9.84 137.41 9.07Q138.55 8.30 140.06 8.30L140.06 8.30Q141.22 8.30 142.12 8.84Q143.02 9.38 143.56 10.61Q144.10 11.83 144.10 13.87L144.10 13.87Q144.10 15.36 143.87 17.02Q143.64 18.67 143.14 20.24Q142.63 21.82 141.83 23.11Q141.02 24.41 139.85 25.16Q138.67 25.92 137.09 25.92ZM137.21 25.18L137.21 25.18Q138.53 25.18 139.50 24.42Q140.47 23.66 141.16 22.44Q141.84 21.22 142.26 19.72Q142.68 18.22 142.87 16.69Q143.06 15.17 143.06 13.87L143.06 13.87Q143.06 12.07 142.68 11.02Q142.30 9.96 141.60 9.50Q140.90 9.05 139.99 9.05L139.99 9.05Q138.70 9.05 137.72 9.82Q136.75 10.58 136.06 11.83Q135.36 13.08 134.94 14.60Q134.52 16.13 134.30 17.65Q134.09 19.18 134.09 20.45L134.09 20.45Q134.09 22.85 134.93 24.01Q135.77 25.18 137.21 25.18ZM154.27 25.90L154.27 25.90Q153.48 25.90 153.08 25.32Q152.69 24.74 152.69 23.66L152.69 23.66Q152.69 23.26 152.75 22.75Q152.81 22.25 152.93 21.70Q153.05 21.14 153.14 20.62L153.14 20.62L154.18 15.31Q154.22 15.10 154.26 14.83Q154.30 14.57 154.30 14.30L154.30 14.30Q154.30 13.70 154.01 13.55Q153.72 13.39 152.86 13.39L152.86 13.39L152.40 13.39L152.52 12.79L155.71 12.79L154.10 20.76Q154.01 21.17 153.91 21.68Q153.82 22.20 153.74 22.69Q153.67 23.18 153.67 23.57L153.67 23.57Q153.67 24.26 153.88 24.68Q154.08 25.10 154.58 25.10L154.58 25.10Q154.99 25.10 155.38 24.91Q155.76 24.72 156.26 24.31L156.26 24.31L156.60 24.79Q156.07 25.25 155.52 25.57Q154.97 25.90 154.27 25.90ZM155.78 9.55L155.78 9.55Q155.47 9.55 155.24 9.36Q155.02 9.17 155.02 8.76L155.02 8.76Q155.02 8.47 155.12 8.26Q155.23 8.04 155.41 7.91Q155.59 7.78 155.83 7.78L155.83 7.78Q156.17 7.78 156.38 7.98Q156.60 8.18 156.60 8.57L156.60 8.57Q156.60 8.93 156.48 9.14Q156.36 9.36 156.18 9.46Q156 9.55 155.78 9.55ZM160.87 25.90L160.87 25.90Q160.10 25.90 159.66 25.61Q159.22 25.32 159.02 24.83Q158.83 24.34 158.83 23.69L158.83 23.69Q158.83 23.33 158.92 22.74Q159 22.15 159.24 21.05L159.24 21.05L160.82 13.56L159.05 13.56L159.17 13.01Q159.79 12.98 160.21 12.89Q160.63 12.79 160.93 12.48Q161.23 12.17 161.47 11.54Q161.71 10.92 162 9.84L162 9.84L162.62 9.84L161.98 12.79L164.69 12.79L164.54 13.56L161.83 13.56L160.25 21.05Q159.98 22.20 159.90 22.76Q159.82 23.33 159.82 23.69L159.82 23.69Q159.82 24.36 160.10 24.73Q160.39 25.10 161.06 25.10L161.06 25.10Q161.59 25.10 162.10 24.97Q162.60 24.84 163.15 24.62L163.15 24.62L163.34 25.20Q162.72 25.54 162.08 25.72Q161.45 25.90 160.87 25.90ZM168.19 25.90L168.19 25.90Q167.26 25.90 166.63 25.43Q166.01 24.96 165.73 24.01Q165.46 23.06 165.46 21.70L165.46 21.70Q165.46 20.57 165.73 19.31Q166.01 18.05 166.57 16.86Q167.14 15.67 167.94 14.70Q168.74 13.73 169.79 13.14Q170.83 12.55 172.10 12.55L172.10 12.55Q172.63 12.55 173.10 12.67Q173.57 12.79 173.96 13.00Q174.36 13.20 174.62 13.49L174.62 13.49L175.27 12.82L175.63 12.82L173.83 20.78Q173.76 21.22 173.65 21.72Q173.54 22.22 173.48 22.70Q173.42 23.18 173.42 23.57L173.42 23.57Q173.42 24.26 173.64 24.68Q173.86 25.10 174.36 25.10L174.36 25.10Q174.77 25.10 175.15 24.91Q175.54 24.72 176.06 24.31L176.06 24.31L176.40 24.79Q176.09 25.08 175.69 25.33Q175.30 25.58 174.88 25.74Q174.46 25.90 174.02 25.90L174.02 25.90Q173.23 25.90 172.82 25.34Q172.42 24.79 172.42 23.71L172.42 23.71Q172.42 23.28 172.50 22.80Q172.58 22.32 172.68 21.84L172.68 21.84L172.58 21.84Q171.86 23.30 171.13 24.20Q170.40 25.10 169.66 25.50Q168.91 25.90 168.19 25.90ZM168.41 25.10L168.41 25.10Q169.10 25.10 169.86 24.53Q170.62 23.95 171.31 22.97Q172.01 21.98 172.55 20.75Q173.09 19.51 173.40 18.19L173.40 18.19L174.24 14.28Q173.93 13.75 173.34 13.50Q172.75 13.25 172.10 13.25L172.10 13.25Q171.02 13.25 170.15 13.82Q169.27 14.40 168.60 15.34Q167.93 16.27 167.45 17.40Q166.97 18.53 166.73 19.66Q166.49 20.78 166.49 21.74L166.49 21.74Q166.49 23.59 167.03 24.35Q167.57 25.10 168.41 25.10ZM179.90 25.90L179.90 25.90Q179.11 25.90 178.69 25.33Q178.27 24.77 178.27 23.81L178.27 23.81Q178.27 23.33 178.34 22.79Q178.42 22.25 178.52 21.70Q178.63 21.14 178.73 20.62L178.73 20.62L180.91 10.06Q181.01 9.62 181.07 9.20Q181.13 8.78 181.13 8.62L181.13 8.62Q181.13 8.23 180.89 8.12Q180.65 8.02 179.98 8.02L179.98 8.02L179.04 8.02L179.18 7.42L182.47 7.42L179.71 20.76Q179.62 21.17 179.52 21.68Q179.42 22.20 179.35 22.72Q179.28 23.23 179.28 23.66L179.28 23.66Q179.28 24.31 179.50 24.71Q179.71 25.10 180.22 25.10L180.22 25.10Q180.62 25.10 181.02 24.91Q181.42 24.72 181.92 24.31L181.92 24.31L182.26 24.79Q181.75 25.25 181.20 25.57Q180.65 25.90 179.90 25.90ZM186.22 25.90L186.22 25.90Q185.42 25.90 185.03 25.32Q184.63 24.74 184.63 23.66L184.63 23.66Q184.63 23.26 184.69 22.75Q184.75 22.25 184.87 21.70Q184.99 21.14 185.09 20.62L185.09 20.62L186.12 15.31Q186.17 15.10 186.20 14.83Q186.24 14.57 186.24 14.30L186.24 14.30Q186.24 13.70 185.95 13.55Q185.66 13.39 184.80 13.39L184.80 13.39L184.34 13.39L184.46 12.79L187.66 12.79L186.05 20.76Q185.95 21.17 185.86 21.68Q185.76 22.20 185.69 22.69Q185.62 23.18 185.62 23.57L185.62 23.57Q185.62 24.26 185.82 24.68Q186.02 25.10 186.53 25.10L186.53 25.10Q186.94 25.10 187.32 24.91Q187.70 24.72 188.21 24.31L188.21 24.31L188.54 24.79Q188.02 25.25 187.46 25.57Q186.91 25.90 186.22 25.90ZM187.73 9.55L187.73 9.55Q187.42 9.55 187.19 9.36Q186.96 9.17 186.96 8.76L186.96 8.76Q186.96 8.47 187.07 8.26Q187.18 8.04 187.36 7.91Q187.54 7.78 187.78 7.78L187.78 7.78Q188.11 7.78 188.33 7.98Q188.54 8.18 188.54 8.57L188.54 8.57Q188.54 8.93 188.42 9.14Q188.30 9.36 188.12 9.46Q187.94 9.55 187.73 9.55ZM194.23 25.90L194.23 25.90Q193.10 25.90 192.18 25.34Q191.26 24.79 190.70 23.70Q190.15 22.61 190.15 20.93L190.15 20.93Q190.15 19.78 190.44 18.59Q190.73 17.40 191.28 16.32Q191.83 15.24 192.61 14.39Q193.39 13.54 194.38 13.04Q195.36 12.55 196.54 12.55L196.54 12.55Q197.59 12.55 198.31 12.92Q199.03 13.30 199.38 13.86Q199.73 14.42 199.73 15.05L199.73 15.05Q199.73 15.36 199.62 15.56Q199.51 15.77 199.30 15.86Q199.08 15.96 198.79 15.96L198.79 15.96Q198.79 14.74 198.19 14.00Q197.59 13.27 196.44 13.27L196.44 13.27Q195.50 13.27 194.69 13.75Q193.87 14.23 193.24 15.02Q192.60 15.82 192.14 16.82Q191.69 17.83 191.45 18.90Q191.21 19.97 191.21 20.98L191.21 20.98Q191.21 22.92 192.10 23.99Q192.98 25.06 194.28 25.06L194.28 25.06Q195.46 25.06 196.31 24.52Q197.16 23.98 197.66 23.23L197.66 23.23Q197.74 23.26 197.77 23.36Q197.81 23.47 197.81 23.59L197.81 23.59Q197.81 24.07 197.38 24.61Q196.94 25.15 196.15 25.52Q195.36 25.90 194.23 25.90Z"/></svg>