<svg xmlns="http://www.w3.org/2000/svg" xmlns:xlink="http://www.w3.org/1999/xlink" width="312.408" height="31.272000000000002"><path fill="black" d="M6.94 22.20L0.84 22.20L0.84 21.12L1.34 21.12Q2.09 21.12 2.60 20.83Q3.12 20.54 3.12 19.44L3.12 19.44L3.12 7.73Q3.12 6.70 2.59 6.42Q2.06 6.14 1.34 6.14L1.34 6.14L0.84 6.14L0.84 5.06L5.50 5.06L14.06 17.98L14.06 7.73Q14.06 6.70 13.54 6.42Q13.01 6.14 12.29 6.14L12.29 6.14L11.78 6.14L11.78 5.06L17.88 5.06L17.88 6.14L17.38 6.14Q16.66 6.14 16.13 6.43Q15.60 6.72 15.60 7.82L15.60 7.82L15.60 22.20L13.78 22.20L4.68 8.54L4.68 19.44Q4.68 20.54 5.20 20.83Q5.71 21.12 6.43 21.12L6.43 21.12L6.94 21.12L6.94 22.20ZM25.49 22.44L25.49 22.44Q22.82 22.44 21.29 20.78Q19.75 19.13 19.75 15.74L19.75 15.74Q19.75 12.36 21.22 10.72Q22.68 9.07 25.56 9.07L25.56 9.07Q28.22 9.07 29.76 10.72Q31.30 12.36 31.30 15.74L31.30 15.74Q31.30 19.13 29.82 20.78Q28.34 22.44 25.49 22.44ZM25.54 21.12L25.54 21.12Q27.22 21.12 27.90 19.75Q28.58 18.38 28.58 15.74L28.58 15.74Q28.58 13.08 27.89 11.75Q27.19 10.42 25.51 10.42L25.51 10.42Q23.83 10.42 23.15 11.75Q22.46 13.08 22.46 15.74L22.46 15.74Q22.46 18.38 23.16 19.75Q23.86 21.12 25.54 21.12ZM38.35 22.44L38.35 22.44Q36.58 22.44 35.71 21.61Q34.85 20.78 34.85 18.70L34.85 18.70L34.85 10.78L33.05 10.78L33.05 9.74Q33.55 9.74 34.10 9.53Q34.66 9.31 35.04 8.90L35.04 8.90Q35.45 8.50 35.71 7.88Q35.98 7.27 36.14 6.38L36.14 6.38L37.49 6.38L37.49 9.34L40.61 9.34L40.61 10.78L37.49 10.78L37.49 18.70Q37.49 19.87 37.96 20.42Q38.42 20.98 39.26 20.98L39.26 20.98Q39.70 20.98 40.07 20.93Q40.44 20.88 40.82 20.81L40.82 20.81L40.82 22.01Q40.51 22.15 39.82 22.30Q39.12 22.44 38.35 22.44ZM48.38 22.44L48.38 22.44Q45.72 22.44 44.18 20.78Q42.65 19.13 42.65 15.74L42.65 15.74Q42.65 12.36 44.11 10.72Q45.58 9.07 48.46 9.07L48.46 9.07Q51.12 9.07 52.66 10.72Q54.19 12.36 54.19 15.74L54.19 15.74Q54.19 19.13 52.72 20.78Q51.24 22.44 48.38 22.44ZM48.43 21.12L48.43 21.12Q50.11 21.12 50.80 19.75Q51.48 18.38 51.48 15.74L51.48 15.74Q51.48 13.08 50.78 11.75Q50.09 10.42 48.41 10.42L48.41 10.42Q46.73 10.42 46.04 11.75Q45.36 13.08 45.36 15.74L45.36 15.74Q45.36 18.38 46.06 19.75Q46.75 21.12 48.43 21.12ZM67.75 22.44L67.75 22.44Q66.02 22.44 64.91 22.00Q63.79 21.55 63.26 20.78Q62.74 20.02 62.74 19.06L62.74 19.06Q62.74 18.48 62.99 18.08Q63.24 17.69 63.70 17.48Q64.15 17.28 64.73 17.28L64.73 17.28Q64.78 18.38 65.14 19.27Q65.50 20.16 66.20 20.68Q66.91 21.19 67.99 21.19L67.99 21.19Q69.55 21.19 70.43 20.42Q71.30 19.66 71.30 18.29L71.30 18.29Q71.30 17.42 70.92 16.81Q70.54 16.20 69.72 15.68Q68.90 15.17 67.49 14.59L67.49 14.59Q65.95 13.97 64.97 13.24Q63.98 12.50 63.53 11.54Q63.07 10.58 63.07 9.31L63.07 9.31Q63.07 7.90 63.77 6.90Q64.46 5.90 65.70 5.36Q66.94 4.82 68.50 4.82L68.50 4.82Q70.75 4.82 71.95 5.64Q73.15 6.46 73.15 7.54L73.15 7.54Q73.15 8.33 72.58 8.77Q72 9.22 70.97 9.22L70.97 9.22Q70.97 8.50 70.72 7.78Q70.46 7.06 69.89 6.58Q69.31 6.10 68.30 6.10L68.30 6.10Q67.03 6.10 66.29 6.79Q65.54 7.49 65.54 8.69L65.54 8.69Q65.54 9.58 65.88 10.21Q66.22 10.85 67.04 11.38Q67.87 11.90 69.31 12.50L69.31 12.50Q71.54 13.39 72.68 14.53Q73.82 15.67 73.82 17.50L73.82 17.50Q73.82 19.03 73.08 20.14Q72.34 21.24 70.97 21.84Q69.60 22.44 67.75 22.44ZM82.06 22.44L82.06 22.44Q79.32 22.44 77.82 20.71Q76.32 18.98 76.32 15.86L76.32 15.86Q76.32 12.48 77.76 10.78Q79.20 9.07 81.82 9.07L81.82 9.07Q84.22 9.07 85.60 10.52Q86.98 11.98 86.98 14.83L86.98 14.83L86.98 15.96L79.03 15.96Q79.08 18.53 79.96 19.69Q80.83 20.86 82.49 20.86L82.49 20.86Q83.74 20.86 84.61 20.33Q85.49 19.80 85.92 19.10L85.92 19.10Q86.14 19.20 86.28 19.44Q86.42 19.68 86.42 20.02L86.42 20.02Q86.42 20.54 85.96 21.11Q85.49 21.67 84.52 22.06Q83.54 22.44 82.06 22.44ZM79.08 14.59L84.22 14.59Q84.22 12.70 83.66 11.57Q83.11 10.44 81.79 10.44L81.79 10.44Q80.57 10.44 79.87 11.51Q79.18 12.58 79.08 14.59L79.08 14.59ZM96.07 22.20L88.82 22.20L88.82 21.12L88.90 21.12Q89.71 21.12 90.28 20.82Q90.84 20.52 90.84 19.39L90.84 19.39L90.84 12.05Q90.84 10.99 90.29 10.70Q89.74 10.42 88.94 10.42L88.94 10.42L88.87 10.42L88.87 9.34L92.88 9.34L93.34 11.57L93.46 11.57Q93.77 10.85 94.14 10.28Q94.51 9.72 95.12 9.40Q95.74 9.07 96.77 9.07L96.77 9.07Q98.11 9.07 98.76 9.55Q99.41 10.03 99.41 10.90L99.41 10.90Q99.41 11.74 98.82 12.25Q98.23 12.77 96.96 12.77L96.96 12.77Q96.96 11.78 96.68 11.32Q96.41 10.85 95.71 10.85L95.71 10.85Q95.06 10.85 94.62 11.35Q94.18 11.86 93.94 12.62Q93.70 13.39 93.59 14.21Q93.48 15.02 93.48 15.65L93.48 15.65L93.48 19.51Q93.48 20.57 94.04 20.84Q94.61 21.12 95.38 21.12L95.38 21.12L96.07 21.12L96.07 22.20ZM107.33 22.20L100.27 22.20L100.27 21.12L100.58 21.12Q101.06 21.12 101.50 21.01Q101.93 20.90 102.20 20.56Q102.48 20.21 102.48 19.54L102.48 19.54L102.48 12.00Q102.48 11.30 102.20 10.97Q101.93 10.63 101.50 10.52Q101.06 10.42 100.58 10.42L100.58 10.42L100.46 10.42L100.46 9.34L105.12 9.34L105.12 19.44Q105.12 20.16 105.38 20.52Q105.65 20.88 106.09 21Q106.54 21.12 107.02 21.12L107.02 21.12L107.33 21.12L107.33 22.20ZM103.70 7.01L103.70 7.01Q103.03 7.01 102.59 6.65Q102.14 6.29 102.14 5.45L102.14 5.45Q102.14 4.58 102.60 4.24Q103.06 3.89 103.70 3.89L103.70 3.89Q104.33 3.89 104.80 4.24Q105.26 4.58 105.26 5.45L105.26 5.45Q105.26 6.29 104.80 6.65Q104.33 7.01 103.70 7.01ZM116.04 22.20L108.26 22.20L108.26 21.12L108.62 21.12Q109.13 21.12 109.56 21Q109.99 20.88 110.26 20.52Q110.52 20.16 110.52 19.44L110.52 19.44L110.52 10.61L108.36 10.61L108.36 9.34L110.52 9.34L110.52 8.23Q110.52 6.05 111.67 4.88Q112.82 3.72 114.96 3.72L114.96 3.72Q116.28 3.72 117.05 3.95Q117.82 4.18 118.15 4.55Q118.49 4.92 118.49 5.42L118.49 5.42Q118.49 6.12 117.89 6.48Q117.29 6.84 116.26 6.84L116.26 6.84Q116.26 6.38 116.11 5.93Q115.97 5.47 115.66 5.18Q115.34 4.90 114.77 4.90L114.77 4.90Q113.86 4.90 113.51 5.65Q113.16 6.41 113.16 7.94L113.16 7.94L113.16 9.34L116.52 9.34L116.52 10.61L113.16 10.61L113.16 19.44Q113.16 20.16 113.44 20.52Q113.71 20.88 114.14 21Q114.58 21.12 115.06 21.12L115.06 21.12L116.04 21.12L116.04 22.20ZM134.30 22.20L126.62 22.20L126.62 21.12L127.30 21.12Q128.02 21.12 128.54 20.84Q129.07 20.57 129.07 19.54L129.07 19.54L129.07 6.34L126.86 6.34Q125.81 6.34 125.40 6.89Q124.99 7.44 124.90 8.23L124.90 8.23L124.75 9.38L123.41 9.38L123.53 5.06L137.45 5.06L137.57 9.38L136.22 9.38L136.08 8.23Q135.98 7.44 135.58 6.89Q135.17 6.34 134.09 6.34L134.09 6.34L131.88 6.34L131.88 19.44Q131.88 20.54 132.40 20.83Q132.91 21.12 133.63 21.12L133.63 21.12L134.30 21.12L134.30 22.20ZM143.93 22.44L143.93 22.44Q141.26 22.44 139.73 20.78Q138.19 19.13 138.19 15.74L138.19 15.74Q138.19 12.36 139.66 10.72Q141.12 9.07 144 9.07L144 9.07Q146.66 9.07 148.20 10.72Q149.74 12.36 149.74 15.74L149.74 15.74Q149.74 19.13 148.26 20.78Q146.78 22.44 143.93 22.44ZM143.98 21.12L143.98 21.12Q145.66 21.12 146.34 19.75Q147.02 18.38 147.02 15.74L147.02 15.74Q147.02 13.08 146.33 11.75Q145.63 10.42 143.95 10.42L143.95 10.42Q142.27 10.42 141.59 11.75Q140.90 13.08 140.90 15.74L140.90 15.74Q140.90 18.38 141.60 19.75Q142.30 21.12 143.98 21.12ZM156.79 22.44L156.79 22.44Q155.02 22.44 154.15 21.61Q153.29 20.78 153.29 18.70L153.29 18.70L153.29 10.78L151.49 10.78L151.49 9.74Q151.99 9.74 152.54 9.53Q153.10 9.31 153.48 8.90L153.48 8.90Q153.89 8.50 154.15 7.88Q154.42 7.27 154.58 6.38L154.58 6.38L155.93 6.38L155.93 9.34L159.05 9.34L159.05 10.78L155.93 10.78L155.93 18.70Q155.93 19.87 156.40 20.42Q156.86 20.98 157.70 20.98L157.70 20.98Q158.14 20.98 158.51 20.93Q158.88 20.88 159.26 20.81L159.26 20.81L159.26 22.01Q158.95 22.15 158.26 22.30Q157.56 22.44 156.79 22.44ZM166.82 22.44L166.82 22.44Q164.16 22.44 162.62 20.78Q161.09 19.13 161.09 15.74L161.09 15.74Q161.09 12.36 162.55 10.72Q164.02 9.07 166.90 9.07L166.90 9.07Q169.56 9.07 171.10 10.72Q172.63 12.36 172.63 15.74L172.63 15.74Q172.63 19.13 171.16 20.78Q169.68 22.44 166.82 22.44ZM166.87 21.12L166.87 21.12Q168.55 21.12 169.24 19.75Q169.92 18.38 169.92 15.74L169.92 15.74Q169.92 13.08 169.22 11.75Q168.53 10.42 166.85 10.42L166.85 10.42Q165.17 10.42 164.48 11.75Q163.80 13.08 163.80 15.74L163.80 15.74Q163.80 18.38 164.50 19.75Q165.19 21.12 166.87 21.12ZM186.00 22.44L186.00 22.44Q184.22 22.44 183.22 22.04Q182.21 21.65 181.79 21.06Q181.37 20.47 181.37 19.87L181.37 19.87Q181.37 19.18 181.78 18.79Q182.18 18.41 183.00 18.41L183.00 18.41Q183.00 19.08 183.30 19.66Q183.60 20.23 184.22 20.59Q184.85 20.95 185.83 20.95L185.83 20.95Q186.74 20.95 187.50 20.58Q188.26 20.21 188.69 19.33Q189.12 18.46 189.12 16.94L189.12 16.94Q189.12 15.10 188.16 14.18Q187.20 13.27 185.57 13.27L185.57 13.27Q184.42 13.27 183.80 13.43Q183.19 13.58 182.71 13.78L182.71 13.78L181.99 13.54L182.76 5.06L191.06 5.06L191.18 8.90L190.08 8.90L189.96 8.14Q189.86 7.66 189.65 7.42Q189.43 7.18 188.71 7.18L188.71 7.18L183.96 7.18L183.53 12.24Q183.89 12.12 184.60 12.00Q185.30 11.88 186.29 11.88L186.29 11.88Q187.92 11.88 189.20 12.44Q190.49 13.01 191.22 14.12Q191.95 15.24 191.95 16.94L191.95 16.94Q191.95 18.26 191.51 19.28Q191.06 20.30 190.27 21Q189.48 21.70 188.39 22.07Q187.30 22.44 186.00 22.44ZM200.28 22.44L200.28 22.44Q198.26 22.44 196.99 21.34Q195.72 20.23 195.14 18.24Q194.57 16.25 194.57 13.58L194.57 13.58Q194.57 10.92 195.14 8.95Q195.72 6.98 196.99 5.90Q198.26 4.82 200.30 4.82L200.30 4.82Q202.22 4.82 203.48 5.90Q204.74 6.98 205.36 8.96Q205.97 10.94 205.97 13.61L205.97 13.61Q205.97 16.27 205.36 18.25Q204.74 20.23 203.48 21.34Q202.22 22.44 200.28 22.44ZM200.28 21.07L200.28 21.07Q201.91 21.07 202.52 19.10Q203.14 17.14 203.14 13.61L203.14 13.61Q203.14 10.08 202.52 8.14Q201.91 6.19 200.30 6.19L200.30 6.19Q198.67 6.19 198.04 8.14Q197.40 10.08 197.40 13.61L197.40 13.61Q197.40 17.14 198.02 19.10Q198.65 21.07 200.28 21.07ZM213.70 22.44L213.70 22.44Q211.68 22.44 210.41 21.34Q209.14 20.23 208.56 18.24Q207.98 16.25 207.98 13.58L207.98 13.58Q207.98 10.92 208.56 8.95Q209.14 6.98 210.41 5.90Q211.68 4.82 213.72 4.82L213.72 4.82Q215.64 4.82 216.90 5.90Q218.16 6.98 218.77 8.96Q219.38 10.94 219.38 13.61L219.38 13.61Q219.38 16.27 218.77 18.25Q218.16 20.23 216.90 21.34Q215.64 22.44 213.70 22.44ZM213.70 21.07L213.70 21.07Q215.33 21.07 215.94 19.10Q216.55 17.14 216.55 13.61L216.55 13.61Q216.55 10.08 215.94 8.14Q215.33 6.19 213.72 6.19L213.72 6.19Q212.09 6.19 211.45 8.14Q210.82 10.08 210.82 13.61L210.82 13.61Q210.82 17.14 211.44 19.10Q212.06 21.07 213.70 21.07ZM233.95 22.20L227.26 22.20L227.26 21.12L227.40 21.12Q228.22 21.12 228.78 20.82Q229.34 20.52 229.34 19.42L229.34 19.42L229.34 12.02Q229.34 10.99 228.80 10.70Q228.26 10.42 227.47 10.42L227.47 10.42L227.38 10.42L227.38 9.34L231.58 9.34L231.89 11.21L232.01 11.21Q232.51 10.30 233.08 9.84Q233.64 9.38 234.30 9.23Q234.96 9.07 235.73 9.07L235.73 9.07Q237.62 9.07 238.68 10.19Q239.74 11.30 239.74 13.75L239.74 13.75L239.74 19.39Q239.74 20.52 240.20 20.82Q240.67 21.12 241.49 21.12L241.49 21.12L241.61 21.12L241.61 22.20L237.10 22.20L237.10 14.02Q237.10 12.46 236.56 11.60Q236.02 10.75 234.67 10.75L234.67 10.75Q233.66 10.75 233.08 11.28Q232.49 11.81 232.24 12.70Q231.98 13.58 231.98 14.59L231.98 14.59L231.98 19.54Q231.98 20.57 232.52 20.84Q233.06 21.12 233.86 21.12L233.86 21.12L233.95 21.12L233.95 22.20ZM249.26 22.44L249.26 22.44Q246.60 22.44 245.06 20.78Q243.53 19.13 243.53 15.74L243.53 15.74Q243.53 12.36 244.99 10.72Q246.46 9.07 249.34 9.07L249.34 9.07Q252.00 9.07 253.54 10.72Q255.07 12.36 255.07 15.74L255.07 15.74Q255.07 19.13 253.60 20.78Q252.12 22.44 249.26 22.44ZM249.31 21.12L249.31 21.12Q250.99 21.12 251.68 19.75Q252.36 18.38 252.36 15.74L252.36 15.74Q252.36 13.08 251.66 11.75Q250.97 10.42 249.29 10.42L249.29 10.42Q247.61 10.42 246.92 11.75Q246.24 13.08 246.24 15.74L246.24 15.74Q246.24 18.38 246.94 19.75Q247.63 21.12 249.31 21.12ZM264.29 22.20L257.04 22.20L257.04 21.12L257.11 21.12Q257.93 21.12 258.49 20.82Q259.06 20.52 259.06 19.39L259.06 19.39L259.06 12.05Q259.06 10.99 258.50 10.70Q257.95 10.42 257.16 10.42L257.16 10.42L257.09 10.42L257.09 9.34L261.10 9.34L261.55 11.57L261.67 11.57Q261.98 10.85 262.36 10.28Q262.73 9.72 263.34 9.40Q263.95 9.07 264.98 9.07L264.98 9.07Q266.33 9.07 266.98 9.55Q267.62 10.03 267.62 10.90L267.62 10.90Q267.62 11.74 267.04 12.25Q266.45 12.77 265.18 12.77L265.18 12.77Q265.18 11.78 264.90 11.32Q264.62 10.85 263.93 10.85L263.93 10.85Q263.28 10.85 262.84 11.35Q262.39 11.86 262.15 12.62Q261.91 13.39 261.80 14.21Q261.70 15.02 261.70 15.65L261.70 15.65L261.70 19.51Q261.70 20.57 262.26 20.84Q262.82 21.12 263.59 21.12L263.59 21.12L264.29 21.12L264.29 22.20ZM275.30 22.20L268.61 22.20L268.61 21.12L268.85 21.12Q269.66 21.12 270.18 20.82Q270.70 20.52 270.70 19.42L270.70 19.42L270.70 12.00Q270.70 10.97 270.18 10.68Q269.66 10.39 268.87 10.39L268.87 10.39L268.80 10.39L268.80 9.34L272.93 9.34L273.24 11.21L273.36 11.21Q273.84 10.30 274.39 9.84Q274.94 9.38 275.59 9.23Q276.24 9.07 277.01 9.07L277.01 9.07Q278.21 9.07 279.14 9.56Q280.08 10.06 280.51 11.21L280.51 11.21L280.73 11.21Q281.21 10.30 281.80 9.84Q282.38 9.38 283.07 9.23Q283.75 9.07 284.50 9.07L284.50 9.07Q286.34 9.07 287.39 10.19Q288.43 11.30 288.43 13.75L288.43 13.75L288.43 19.39Q288.43 20.52 288.91 20.82Q289.39 21.12 290.21 21.12L290.21 21.12L290.28 21.12L290.28 22.20L285.79 22.20L285.79 14.02Q285.79 12.46 285.26 11.60Q284.74 10.75 283.44 10.75L283.44 10.75Q282.50 10.75 281.95 11.23Q281.40 11.71 281.16 12.53Q280.92 13.34 280.92 14.28L280.92 14.28L280.92 19.39Q280.92 20.52 281.40 20.82Q281.88 21.12 282.70 21.12L282.70 21.12L282.77 21.12L282.77 22.20L278.28 22.20L278.28 14.02Q278.28 12.46 277.75 11.60Q277.22 10.75 275.93 10.75L275.93 10.75Q274.97 10.75 274.39 11.28Q273.82 11.81 273.58 12.70Q273.34 13.58 273.34 14.59L273.34 14.59L273.34 19.54Q273.34 20.57 273.89 20.84Q274.44 21.12 275.23 21.12L275.23 21.12L275.30 21.12L275.30 22.20ZM295.82 22.44L295.82 22.44Q294.22 22.44 293.16 21.49Q292.10 20.54 292.10 18.58L292.10 18.58Q292.10 16.66 293.45 15.73Q294.79 14.81 297.55 14.71L297.55 14.71L299.52 14.64L299.52 13.25Q299.52 12.38 299.39 11.74Q299.26 11.09 298.82 10.72Q298.39 10.34 297.50 10.34L297.50 10.34Q296.66 10.34 296.22 10.68Q295.78 11.02 295.62 11.60Q295.46 12.19 295.46 12.96L295.46 12.96Q294.31 12.96 293.71 12.61Q293.11 12.26 293.11 11.42L293.11 11.42Q293.11 10.56 293.72 10.06Q294.34 9.55 295.36 9.31Q296.38 9.07 297.60 9.07L297.60 9.07Q299.88 9.07 301.02 10.01Q302.16 10.94 302.16 13.20L302.16 13.20L302.16 19.39Q302.16 20.40 302.50 20.76Q302.83 21.12 303.65 21.12L303.65 21.12L303.72 21.12L303.72 22.20L300.14 22.20L299.74 20.26L299.52 20.26Q299.02 20.90 298.54 21.40Q298.06 21.89 297.43 22.16Q296.81 22.44 295.82 22.44ZM296.59 20.88L296.59 20.88Q297.94 20.88 298.73 19.99Q299.52 19.10 299.52 17.62L299.52 17.62L299.52 15.72L298.10 15.79Q296.23 15.89 295.52 16.60Q294.82 17.30 294.82 18.70L294.82 18.70Q294.82 20.88 296.59 20.88ZM312.05 22.20L305.02 22.20L305.02 21.12L305.33 21.12Q305.83 21.12 306.26 21Q306.70 20.88 306.96 20.52Q307.22 20.16 307.22 19.44L307.22 19.44L307.22 6.62Q307.22 5.93 306.95 5.59Q306.67 5.26 306.24 5.15Q305.81 5.04 305.33 5.04L305.33 5.04L305.02 5.04L305.02 3.96L309.86 3.96L309.86 19.44Q309.86 20.16 310.13 20.52Q310.39 20.88 310.84 21Q311.28 21.12 311.76 21.12L311.76 21.12L312.05 21.12L312.05 22.20Z"/></svg>