<svg xmlns="http://www.w3.org/2000/svg" xmlns:xlink="http://www.w3.org/1999/xlink" width="267.4560000000001" height="28.8"><path fill="black" d="M8.26 22.92L8.26 22.92Q6 22.92 4.61 22.06Q3.22 21.19 2.57 19.70Q1.92 18.22 1.92 16.34L1.92 16.34L1.92 5.93L4.39 5.93L4.39 16.08Q4.39 18.55 5.47 19.64Q6.55 20.74 8.28 20.74L8.28 20.74Q10.01 20.74 11.09 19.63Q12.17 18.53 12.17 16.08L12.17 16.08L12.17 5.93L14.66 5.93L14.66 16.34Q14.66 18.22 14.00 19.70Q13.34 21.19 11.95 22.06Q10.56 22.92 8.26 22.92ZM23.26 22.85L23.26 22.85Q22.27 22.85 21.38 22.75Q20.50 22.66 19.76 22.49Q19.03 22.32 18.48 22.18L18.48 22.18L18.48 4.34L20.88 3.94L20.88 10.63Q21.36 10.34 22.16 10.07Q22.97 9.79 23.98 9.79L23.98 9.79Q25.78 9.79 27.01 10.62Q28.25 11.45 28.91 12.91Q29.57 14.38 29.57 16.32L29.57 16.32Q29.57 18.34 28.79 19.80Q28.01 21.26 26.60 22.06Q25.20 22.85 23.26 22.85ZM23.23 20.78L23.23 20.78Q24.43 20.78 25.30 20.24Q26.16 19.70 26.63 18.70Q27.10 17.69 27.10 16.27L27.10 16.27Q27.10 15.31 26.90 14.51Q26.71 13.70 26.29 13.10Q25.87 12.50 25.21 12.19Q24.55 11.88 23.62 11.88L23.62 11.88Q22.73 11.88 22.00 12.16Q21.26 12.43 20.88 12.72L20.88 12.72L20.88 20.52Q21.19 20.62 21.78 20.70Q22.37 20.78 23.23 20.78ZM37.70 22.82L37.70 22.82Q35.74 22.82 34.61 22.09Q33.48 21.36 33.01 20.06Q32.54 18.77 32.54 17.04L32.54 17.04L32.54 10.06L34.92 10.06L34.92 16.58Q34.92 18.10 35.21 19.01Q35.50 19.92 36.16 20.33Q36.82 20.74 37.94 20.74L37.94 20.74Q38.74 20.74 39.41 20.65Q40.08 20.57 40.34 20.50L40.34 20.50L40.34 10.06L42.70 10.06L42.70 22.13Q41.93 22.34 40.64 22.58Q39.36 22.82 37.70 22.82ZM48.91 22.56L46.51 22.56L46.51 10.49Q47.33 10.27 48.60 10.04Q49.87 9.82 51.53 9.82L51.53 9.82Q53.54 9.82 54.66 10.54Q55.78 11.26 56.23 12.54Q56.69 13.82 56.69 15.55L56.69 15.55L56.69 22.56L54.31 22.56L54.31 16.03Q54.31 14.50 54.04 13.60Q53.76 12.70 53.11 12.29Q52.46 11.88 51.29 11.88L51.29 11.88Q50.50 11.88 49.84 11.96Q49.18 12.05 48.91 12.12L48.91 12.12L48.91 22.56ZM64.70 22.82L64.70 22.82Q63 22.82 62.03 22.24Q61.06 21.65 60.66 20.50Q60.26 19.34 60.26 17.71L60.26 17.71L60.26 6.62L62.64 6.22L62.64 10.06L67.32 10.06L67.32 12.05L62.64 12.05L62.64 17.78Q62.64 18.91 62.90 19.57Q63.17 20.23 63.68 20.50Q64.20 20.76 64.97 20.76L64.97 20.76Q65.78 20.76 66.40 20.58Q67.01 20.40 67.42 20.23L67.42 20.23L67.82 22.13Q67.37 22.34 66.55 22.58Q65.74 22.82 64.70 22.82ZM75.24 22.82L75.24 22.82Q73.27 22.82 72.14 22.09Q71.02 21.36 70.55 20.06Q70.08 18.77 70.08 17.04L70.08 17.04L70.08 10.06L72.46 10.06L72.46 16.58Q72.46 18.10 72.74 19.01Q73.03 19.92 73.69 20.33Q74.35 20.74 75.48 20.74L75.48 20.74Q76.27 20.74 76.94 20.65Q77.62 20.57 77.88 20.50L77.88 20.50L77.88 10.06L80.23 10.06L80.23 22.13Q79.46 22.34 78.18 22.58Q76.90 22.82 75.24 22.82ZM93.77 22.92L93.77 22.92Q91.73 22.92 90.42 22.48Q89.11 22.03 88.58 21.72L88.58 21.72L89.33 19.68Q89.90 20.02 91.02 20.40Q92.14 20.78 93.77 20.78L93.77 20.78Q95.57 20.78 96.44 20.16Q97.32 19.54 97.32 18.29L97.32 18.29Q97.32 17.33 96.83 16.75Q96.34 16.18 95.47 15.77Q94.61 15.36 93.46 14.93L93.46 14.93Q92.18 14.45 91.18 13.87Q90.17 13.30 89.58 12.42Q88.99 11.54 88.99 10.15L88.99 10.15Q88.99 8.69 89.68 7.67Q90.36 6.65 91.63 6.11Q92.90 5.57 94.63 5.57L94.63 5.57Q96.12 5.57 97.32 5.92Q98.52 6.26 99.22 6.67L99.22 6.67L98.45 8.69Q97.75 8.26 96.80 7.97Q95.86 7.68 94.70 7.68L94.70 7.68Q93.22 7.68 92.36 8.22Q91.51 8.76 91.51 9.98L91.51 9.98Q91.51 10.80 91.96 11.33Q92.40 11.86 93.18 12.23Q93.96 12.60 94.94 12.98L94.94 12.98Q96.43 13.56 97.54 14.17Q98.64 14.78 99.26 15.72Q99.89 16.66 99.89 18.24L99.89 18.24Q99.89 19.75 99.17 20.80Q98.45 21.84 97.08 22.38Q95.71 22.92 93.77 22.92ZM106.73 22.82L106.73 22.82Q105.29 22.82 104.17 22.44Q103.06 22.06 102.43 21.17Q101.81 20.28 101.81 18.84L101.81 18.84Q101.81 17.42 102.50 16.57Q103.20 15.72 104.40 15.34Q105.60 14.95 107.06 14.95L107.06 14.95Q107.74 14.95 108.42 15.05Q109.10 15.14 109.32 15.24L109.32 15.24L109.32 14.66Q109.32 13.90 109.10 13.25Q108.89 12.60 108.30 12.19Q107.71 11.78 106.56 11.78L106.56 11.78Q105.36 11.78 104.60 11.95Q103.85 12.12 103.42 12.29L103.42 12.29L103.10 10.32Q103.58 10.13 104.57 9.95Q105.55 9.77 106.78 9.77L106.78 9.77Q108.60 9.77 109.67 10.37Q110.74 10.97 111.19 12.06Q111.65 13.15 111.65 14.57L111.65 14.57L111.65 22.25Q111.05 22.39 109.73 22.61Q108.41 22.82 106.73 22.82ZM106.97 20.88L106.97 20.88Q107.71 20.88 108.32 20.83Q108.94 20.78 109.32 20.71L109.32 20.71L109.32 17.02Q109.10 16.92 108.58 16.82Q108.05 16.73 107.30 16.73L107.30 16.73Q106.56 16.73 105.85 16.88Q105.14 17.04 104.68 17.47Q104.21 17.90 104.21 18.79L104.21 18.79Q104.21 19.97 104.95 20.42Q105.70 20.88 106.97 20.88ZM117.72 22.56L115.32 22.56L115.32 10.49Q116.14 10.27 117.41 10.04Q118.68 9.82 120.34 9.82L120.34 9.82Q122.35 9.82 123.47 10.54Q124.58 11.26 125.04 12.54Q125.50 13.82 125.50 15.55L125.50 15.55L125.50 22.56L123.12 22.56L123.12 16.03Q123.12 14.50 122.84 13.60Q122.57 12.70 121.92 12.29Q121.27 11.88 120.10 11.88L120.10 11.88Q119.30 11.88 118.64 11.96Q117.98 12.05 117.72 12.12L117.72 12.12L117.72 22.56ZM132.14 22.87L132.14 22.87Q130.51 22.87 129.54 22.58Q128.57 22.30 128.23 22.15L128.23 22.15L128.71 20.14Q129.19 20.30 130.06 20.58Q130.92 20.86 132.14 20.86L132.14 20.86Q133.37 20.86 134.05 20.52Q134.74 20.18 134.74 19.32L134.74 19.32Q134.74 18.79 134.46 18.46Q134.18 18.12 133.61 17.82Q133.03 17.52 132.05 17.14L132.05 17.14Q131.06 16.73 130.25 16.28Q129.43 15.84 128.95 15.14Q128.47 14.45 128.47 13.32L128.47 13.32Q128.47 12.24 129.02 11.45Q129.58 10.66 130.60 10.21Q131.62 9.77 133.01 9.77L133.01 9.77Q134.23 9.77 135.16 9.97Q136.08 10.18 136.54 10.37L136.54 10.37L136.06 12.34Q135.65 12.14 134.94 11.94Q134.23 11.74 133.08 11.74L133.08 11.74Q132.12 11.74 131.48 12.10Q130.85 12.46 130.85 13.22L130.85 13.22Q130.85 13.75 131.10 14.09Q131.35 14.42 131.90 14.71Q132.46 15.00 133.34 15.34L133.34 15.34Q134.54 15.79 135.38 16.27Q136.22 16.75 136.67 17.46Q137.11 18.17 137.11 19.30L137.11 19.30Q137.11 20.47 136.52 21.26Q135.94 22.06 134.82 22.46Q133.70 22.87 132.14 22.87ZM149.38 22.92L149.38 22.92Q148.42 22.92 147.54 22.76Q146.66 22.61 146.02 22.39Q145.37 22.18 145.08 22.03L145.08 22.03L145.58 20.02Q145.99 20.23 146.99 20.53Q147.98 20.83 149.30 20.83L149.30 20.83Q150.72 20.83 151.54 20.42Q152.35 20.02 152.71 19.34Q153.07 18.67 153.07 17.83L153.07 17.83Q153.07 16.70 152.48 15.89Q151.90 15.07 150.41 14.64Q148.92 14.21 146.21 14.21L146.21 14.21Q146.35 13.03 146.45 11.96Q146.54 10.90 146.63 9.89Q146.71 8.88 146.76 7.90Q146.81 6.91 146.83 5.93L146.83 5.93L154.94 5.93L154.94 7.97L148.85 7.97Q148.82 8.40 148.79 8.99Q148.75 9.58 148.70 10.20Q148.66 10.82 148.61 11.38Q148.56 11.93 148.51 12.31L148.51 12.31Q152.14 12.46 153.83 13.88Q155.52 15.31 155.52 17.76L155.52 17.76Q155.52 19.22 154.86 20.40Q154.20 21.58 152.83 22.25Q151.46 22.92 149.38 22.92ZM163.99 22.92L163.99 22.92Q162.24 22.92 160.98 21.91Q159.72 20.90 159.05 18.97Q158.38 17.04 158.38 14.23L158.38 14.23Q158.38 11.45 159.05 9.52Q159.72 7.58 160.98 6.58Q162.24 5.57 163.99 5.57L163.99 5.57Q166.63 5.57 168.12 7.81Q169.61 10.06 169.61 14.23L169.61 14.23Q169.61 18.43 168.12 20.68Q166.63 22.92 163.99 22.92ZM163.99 20.83L163.99 20.83Q165.19 20.83 165.86 19.93Q166.54 19.03 166.82 17.53Q167.11 16.03 167.11 14.23L167.11 14.23Q167.11 12.43 166.82 10.93Q166.54 9.43 165.86 8.54Q165.19 7.66 163.99 7.66L163.99 7.66Q162.82 7.66 162.13 8.54Q161.45 9.43 161.16 10.93Q160.87 12.43 160.87 14.23L160.87 14.23Q160.87 16.03 161.16 17.53Q161.45 19.03 162.13 19.93Q162.82 20.83 163.99 20.83ZM177.53 22.92L177.53 22.92Q175.78 22.92 174.52 21.91Q173.26 20.90 172.58 18.97Q171.91 17.04 171.91 14.23L171.91 14.23Q171.91 11.45 172.58 9.52Q173.26 7.58 174.52 6.58Q175.78 5.57 177.53 5.57L177.53 5.57Q180.17 5.57 181.66 7.81Q183.14 10.06 183.14 14.23L183.14 14.23Q183.14 18.43 181.66 20.68Q180.17 22.92 177.53 22.92ZM177.53 20.83L177.53 20.83Q178.73 20.83 179.40 19.93Q180.07 19.03 180.36 17.53Q180.65 16.03 180.65 14.23L180.65 14.23Q180.65 12.43 180.36 10.93Q180.07 9.43 179.40 8.54Q178.73 7.66 177.53 7.66L177.53 7.66Q176.35 7.66 175.67 8.54Q174.98 9.43 174.70 10.93Q174.41 12.43 174.41 14.23L174.41 14.23Q174.41 16.03 174.70 17.53Q174.98 19.03 175.67 19.93Q176.35 20.83 177.53 20.83ZM194.18 22.56L191.78 22.56L191.78 10.49Q192.60 10.27 193.87 10.04Q195.14 9.82 196.80 9.82L196.80 9.82Q198.82 9.82 199.93 10.54Q201.05 11.26 201.50 12.54Q201.96 13.82 201.96 15.55L201.96 15.55L201.96 22.56L199.58 22.56L199.58 16.03Q199.58 14.50 199.31 13.60Q199.03 12.70 198.38 12.29Q197.74 11.88 196.56 11.88L196.56 11.88Q195.77 11.88 195.11 11.96Q194.45 12.05 194.18 12.12L194.18 12.12L194.18 22.56ZM210.84 22.87L210.84 22.87Q209.11 22.87 207.78 22.06Q206.45 21.24 205.70 19.76Q204.96 18.29 204.96 16.30L204.96 16.30Q204.96 14.33 205.72 12.86Q206.47 11.40 207.80 10.58Q209.14 9.77 210.84 9.77L210.84 9.77Q212.57 9.77 213.89 10.58Q215.21 11.40 215.96 12.86Q216.72 14.33 216.72 16.30L216.72 16.30Q216.72 18.29 215.98 19.76Q215.23 21.24 213.92 22.06Q212.62 22.87 210.84 22.87ZM210.84 20.78L210.84 20.78Q211.92 20.78 212.68 20.23Q213.43 19.68 213.85 18.67Q214.27 17.66 214.27 16.30L214.27 16.30Q214.27 14.95 213.85 13.94Q213.43 12.94 212.68 12.40Q211.92 11.86 210.84 11.86L210.84 11.86Q209.78 11.86 209.02 12.40Q208.25 12.94 207.83 13.94Q207.41 14.95 207.41 16.30L207.41 16.30Q207.41 17.66 207.83 18.67Q208.25 19.68 209.02 20.23Q209.78 20.78 210.84 20.78ZM222.24 22.56L219.84 22.56L219.84 10.68Q220.58 10.39 221.75 10.10Q222.91 9.82 224.47 9.82L224.47 9.82Q224.93 9.82 225.44 9.88Q225.96 9.94 226.42 10.02Q226.87 10.10 227.11 10.22L227.11 10.22L226.68 12.22Q226.37 12.12 225.76 12.00Q225.14 11.88 224.28 11.88L224.28 11.88Q223.56 11.88 223.00 11.99Q222.43 12.10 222.24 12.19L222.24 12.19L222.24 22.56ZM231.67 22.56L229.27 22.56L229.27 10.49Q230.09 10.27 231.34 10.04Q232.58 9.82 234.17 9.82L234.17 9.82Q235.44 9.82 236.29 10.15Q237.14 10.49 237.67 11.09L237.67 11.09Q237.98 10.87 238.56 10.56Q239.14 10.25 239.92 10.03Q240.70 9.82 241.61 9.82L241.61 9.82Q243.55 9.82 244.57 10.55Q245.59 11.28 245.95 12.56Q246.31 13.85 246.31 15.55L246.31 15.55L246.31 22.56L243.94 22.56L243.94 16.03Q243.94 14.59 243.72 13.67Q243.50 12.74 242.95 12.31Q242.40 11.88 241.34 11.88L241.34 11.88Q240.67 11.88 240.13 12.04Q239.59 12.19 239.21 12.41Q238.82 12.62 238.61 12.77L238.61 12.77Q238.80 13.34 238.90 14.06Q238.99 14.78 238.99 15.58L238.99 15.58L238.99 22.56L236.62 22.56L236.62 16.03Q236.62 14.59 236.40 13.67Q236.18 12.74 235.62 12.31Q235.06 11.88 233.95 11.88L233.95 11.88Q233.42 11.88 232.97 11.92Q232.51 11.95 232.18 12.01Q231.84 12.07 231.67 12.12L231.67 12.12L231.67 22.56ZM254.04 22.82L254.04 22.82Q252.60 22.82 251.48 22.44Q250.37 22.06 249.74 21.17Q249.12 20.28 249.12 18.84L249.12 18.84Q249.12 17.42 249.82 16.57Q250.51 15.72 251.71 15.34Q252.91 14.95 254.38 14.95L254.38 14.95Q255.05 14.95 255.73 15.05Q256.42 15.14 256.63 15.24L256.63 15.24L256.63 14.66Q256.63 13.90 256.42 13.25Q256.20 12.60 255.61 12.19Q255.02 11.78 253.87 11.78L253.87 11.78Q252.67 11.78 251.92 11.95Q251.16 12.12 250.73 12.29L250.73 12.29L250.42 10.32Q250.90 10.13 251.88 9.95Q252.86 9.77 254.09 9.77L254.09 9.77Q255.91 9.77 256.98 10.37Q258.05 10.97 258.50 12.06Q258.96 13.15 258.96 14.57L258.96 14.57L258.96 22.25Q258.36 22.39 257.04 22.61Q255.72 22.82 254.04 22.82ZM254.28 20.88L254.28 20.88Q255.02 20.88 255.64 20.83Q256.25 20.78 256.63 20.71L256.63 20.71L256.63 17.02Q256.42 16.92 255.89 16.82Q255.36 16.73 254.62 16.73L254.62 16.73Q253.87 16.73 253.16 16.88Q252.46 17.04 251.99 17.47Q251.52 17.90 251.52 18.79L251.52 18.79Q251.52 19.97 252.26 20.42Q253.01 20.88 254.28 20.88ZM266.88 20.81L266.54 22.78Q265.10 22.73 264.24 22.33Q263.38 21.94 263.00 21.14Q262.63 20.35 262.63 19.10L262.63 19.10L262.63 4.34L265.01 3.94L265.01 18.79Q265.01 19.87 265.40 20.28Q265.80 20.69 266.88 20.81L266.88 20.81Z"/></svg>