<svg xmlns="http://www.w3.org/2000/svg" xmlns:xlink="http://www.w3.org/1999/xlink" width="232.22400000000002" height="28.8"><path fill="black" d="M6.77 22.90L6.77 22.90Q5.11 22.90 4.04 22.31Q2.98 21.72 2.46 20.68Q1.94 19.63 1.94 18.26L1.94 18.26Q1.94 17.74 2.02 17.18Q2.09 16.63 2.23 16.08L2.23 16.08L4.63 5.93L6.19 5.93L3.77 16.01Q3.65 16.56 3.55 17.10Q3.46 17.64 3.46 18.17L3.46 18.17Q3.46 19.10 3.78 19.86Q4.10 20.62 4.86 21.07Q5.62 21.53 6.94 21.53L6.94 21.53Q8.42 21.53 9.43 20.98Q10.44 20.42 11.14 19.21Q11.83 18 12.29 16.06L12.29 16.06L14.74 5.93L16.27 5.93L13.80 16.30Q13.25 18.60 12.35 20.06Q11.45 21.53 10.08 22.21Q8.71 22.90 6.77 22.90ZM19.73 22.80L19.73 22.80Q19.22 22.80 18.65 22.74Q18.07 22.68 17.50 22.52Q16.92 22.37 16.39 22.15L16.39 22.15L20.69 4.22L22.22 3.96L20.57 10.87Q21.31 10.39 22.13 10.14Q22.94 9.89 23.78 9.89L23.78 9.89Q25.10 9.89 25.98 10.46Q26.86 11.04 27.30 12.07Q27.74 13.10 27.74 14.47L27.74 14.47Q27.74 16.08 27.20 17.57Q26.66 19.06 25.64 20.24Q24.62 21.43 23.14 22.12Q21.65 22.80 19.73 22.80ZM19.90 21.48L19.90 21.48Q21.43 21.48 22.61 20.89Q23.78 20.30 24.59 19.32Q25.39 18.34 25.81 17.11Q26.23 15.89 26.23 14.59L26.23 14.59Q26.23 13.51 25.91 12.77Q25.58 12.02 24.98 11.62Q24.38 11.21 23.54 11.21L23.54 11.21Q22.70 11.21 21.84 11.56Q20.98 11.90 20.16 12.50L20.16 12.50L18.10 21.24Q18.53 21.34 18.98 21.41Q19.44 21.48 19.90 21.48ZM33.14 22.80L33.14 22.80Q31.63 22.80 30.83 22.26Q30.02 21.72 29.75 20.81Q29.47 19.90 29.56 18.73Q29.64 17.57 29.95 16.30L29.95 16.30L31.44 10.18L32.93 10.18L31.61 15.58Q31.34 16.68 31.14 17.72Q30.94 18.77 31.00 19.62Q31.06 20.47 31.57 20.98Q32.09 21.48 33.29 21.48L33.29 21.48Q34.46 21.48 35.33 21.04Q36.19 20.59 36.98 19.78L36.98 19.78Q36.98 19.32 37.08 18.76Q37.18 18.19 37.32 17.63Q37.46 17.06 37.56 16.63L37.56 16.63L39.17 10.18L40.63 10.18L38.74 17.86Q38.54 18.67 38.46 19.40Q38.38 20.14 38.50 20.88Q38.62 21.62 38.95 22.46L38.95 22.46L37.49 22.68Q37.34 22.42 37.24 22.03Q37.13 21.65 37.06 21.22L37.06 21.22Q36.22 22.01 35.24 22.40Q34.27 22.80 33.14 22.80ZM43.30 22.56L41.83 22.56L44.69 10.58Q45.62 10.32 46.68 10.13Q47.74 9.94 48.72 9.94L48.72 9.94Q50.74 9.94 51.72 10.76Q52.70 11.59 52.86 13.06Q53.02 14.52 52.54 16.42L52.54 16.42L51.07 22.56L49.61 22.56L50.90 17.09Q51.22 15.84 51.36 14.77Q51.50 13.70 51.32 12.92Q51.14 12.14 50.48 11.70Q49.82 11.26 48.53 11.26L48.53 11.26Q47.88 11.26 47.22 11.35Q46.56 11.45 45.94 11.62L45.94 11.62L43.30 22.56ZM58.87 22.80L58.87 22.80Q57.70 22.80 57.02 22.39Q56.35 21.98 56.09 21.28Q55.82 20.57 55.87 19.62Q55.92 18.67 56.16 17.62L56.16 17.62L58.82 6.50L60.36 6.22L59.42 10.18L63.82 10.18L63.50 11.42L59.11 11.42L57.62 17.59Q57.38 18.58 57.35 19.48Q57.31 20.38 57.72 20.93Q58.13 21.48 59.18 21.48L59.18 21.48Q59.95 21.48 60.53 21.30Q61.10 21.12 61.70 20.86L61.70 20.86L61.85 22.15Q61.20 22.42 60.44 22.61Q59.69 22.80 58.87 22.80ZM68.28 22.80L68.28 22.80Q66.77 22.80 65.96 22.26Q65.16 21.72 64.88 20.81Q64.61 19.90 64.69 18.73Q64.78 17.57 65.09 16.30L65.09 16.30L66.58 10.18L68.06 10.18L66.74 15.58Q66.48 16.68 66.28 17.72Q66.07 18.77 66.13 19.62Q66.19 20.47 66.71 20.98Q67.22 21.48 68.42 21.48L68.42 21.48Q69.60 21.48 70.46 21.04Q71.33 20.59 72.12 19.78L72.12 19.78Q72.12 19.32 72.22 18.76Q72.31 18.19 72.46 17.63Q72.60 17.06 72.70 16.63L72.70 16.63L74.30 10.18L75.77 10.18L73.87 17.86Q73.68 18.67 73.60 19.40Q73.51 20.14 73.63 20.88Q73.75 21.62 74.09 22.46L74.09 22.46L72.62 22.68Q72.48 22.42 72.37 22.03Q72.26 21.65 72.19 21.22L72.19 21.22Q71.35 22.01 70.38 22.40Q69.41 22.80 68.28 22.80ZM85.94 22.87L85.94 22.87Q85.18 22.87 84.42 22.73Q83.66 22.58 82.98 22.31Q82.30 22.03 81.67 21.67L81.67 21.67L82.44 20.38Q83.18 20.90 84.14 21.22Q85.10 21.53 86.14 21.53L86.14 21.53Q87.34 21.53 88.38 21.16Q89.42 20.78 90.11 19.97Q90.79 19.15 90.79 17.88L90.79 17.88Q90.79 16.99 90.41 16.40Q90.02 15.82 89.42 15.41Q88.82 15.00 88.13 14.66L88.13 14.66Q87.31 14.21 86.50 13.69Q85.68 13.18 85.16 12.36Q84.65 11.54 84.65 10.27L84.65 10.27Q84.65 9.14 85.30 8.06Q85.94 6.98 87.28 6.30Q88.61 5.62 90.67 5.62L90.67 5.62Q91.70 5.62 92.65 5.83Q93.60 6.05 94.56 6.53L94.56 6.53L93.82 7.80Q93.05 7.34 92.22 7.14Q91.39 6.94 90.50 6.94L90.50 6.94Q89.42 6.94 88.44 7.26Q87.46 7.58 86.84 8.29Q86.23 9.00 86.23 10.15L86.23 10.15Q86.23 11.04 86.60 11.63Q86.98 12.22 87.59 12.61Q88.20 13.01 88.90 13.37L88.90 13.37Q89.76 13.80 90.56 14.32Q91.37 14.83 91.88 15.65Q92.40 16.46 92.40 17.83L92.40 17.83Q92.40 18.74 92.03 19.64Q91.66 20.54 90.88 21.28Q90.10 22.01 88.87 22.44Q87.65 22.87 85.94 22.87ZM98.50 22.82L98.50 22.82Q97.51 22.82 96.65 22.36Q95.78 21.89 95.23 20.88Q94.68 19.87 94.68 18.24L94.68 18.24Q94.68 16.39 95.27 14.87Q95.86 13.34 96.96 12.23Q98.06 11.11 99.56 10.50Q101.06 9.89 102.89 9.89L102.89 9.89Q103.34 9.89 103.85 9.94Q104.35 9.98 104.83 10.08Q105.31 10.18 105.77 10.37L105.77 10.37L103.92 17.88Q103.73 18.67 103.66 19.40Q103.58 20.14 103.69 20.88Q103.80 21.62 104.14 22.46L104.14 22.46L102.67 22.68Q102.53 22.37 102.42 22.00Q102.31 21.62 102.24 21.24L102.24 21.24Q101.33 22.10 100.39 22.46Q99.46 22.82 98.50 22.82ZM98.69 21.48L98.69 21.48Q99.62 21.48 100.49 21.06Q101.35 20.64 102.17 19.78L102.17 19.78Q102.19 18.98 102.38 18.14Q102.58 17.30 102.74 16.66L102.74 16.66L104.04 11.40Q103.61 11.28 103.24 11.24Q102.86 11.21 102.48 11.21L102.48 11.21Q100.97 11.21 99.79 11.78Q98.62 12.36 97.81 13.34Q97.01 14.33 96.60 15.54Q96.19 16.75 96.19 18.05L96.19 18.05Q96.19 19.32 96.54 20.09Q96.89 20.86 97.45 21.17Q98.02 21.48 98.69 21.48ZM108.43 22.56L106.97 22.56L109.82 10.58Q110.76 10.32 111.82 10.13Q112.87 9.94 113.86 9.94L113.86 9.94Q115.87 9.94 116.86 10.76Q117.84 11.59 118.00 13.06Q118.15 14.52 117.67 16.42L117.67 16.42L116.21 22.56L114.74 22.56L116.04 17.09Q116.35 15.84 116.50 14.77Q116.64 13.70 116.46 12.92Q116.28 12.14 115.62 11.70Q114.96 11.26 113.66 11.26L113.66 11.26Q113.02 11.26 112.36 11.35Q111.70 11.45 111.07 11.62L111.07 11.62L108.43 22.56ZM122.95 22.82L122.95 22.82Q121.97 22.82 121.06 22.61Q120.14 22.39 119.40 21.98L119.40 21.98L120 20.69Q120.82 21.12 121.52 21.30Q122.23 21.48 123.07 21.48L123.07 21.48Q123.89 21.48 124.58 21.24Q125.28 21 125.70 20.50Q126.12 19.99 126.12 19.18L126.12 19.18Q126.12 18.62 125.87 18.25Q125.62 17.88 125.22 17.60Q124.82 17.33 124.37 17.11L124.37 17.11Q123.72 16.78 123.05 16.39Q122.38 16.01 121.93 15.38Q121.49 14.76 121.49 13.73L121.49 13.73Q121.49 12.34 122.15 11.50Q122.81 10.66 123.86 10.27Q124.92 9.89 126.05 9.89L126.05 9.89Q126.82 9.89 127.55 10.01Q128.28 10.13 128.98 10.39L128.98 10.39L128.42 11.66Q127.92 11.45 127.30 11.32Q126.67 11.18 125.98 11.18L125.98 11.18Q125.21 11.18 124.50 11.42Q123.79 11.66 123.36 12.19Q122.93 12.72 122.93 13.58L122.93 13.58Q122.93 14.16 123.22 14.57Q123.50 14.98 123.97 15.26Q124.44 15.55 124.97 15.82L124.97 15.82Q125.59 16.13 126.18 16.51Q126.77 16.90 127.15 17.47Q127.54 18.05 127.54 18.96L127.54 18.96Q127.54 20.30 126.88 21.16Q126.22 22.01 125.17 22.42Q124.13 22.82 122.95 22.82ZM139.30 22.92L139.30 22.92Q138.26 22.92 137.24 22.72Q136.22 22.51 135.31 22.08L135.31 22.08L135.91 20.81Q136.63 21.19 137.51 21.40Q138.38 21.60 139.32 21.60L139.32 21.60Q140.69 21.60 141.79 21.13Q142.90 20.66 143.56 19.72Q144.22 18.77 144.22 17.35L144.22 17.35Q144.22 15.77 143.16 15.05Q142.10 14.33 140.38 14.28L140.38 14.28L139.99 14.28L140.30 13.08L140.88 13.08Q141.94 13.08 142.78 12.74Q143.62 12.41 144.19 11.84Q144.77 11.28 145.07 10.58Q145.37 9.89 145.37 9.17L145.37 9.17Q145.37 7.99 144.65 7.45Q143.93 6.91 142.90 6.91L142.90 6.91Q142.08 6.91 141.25 7.15Q140.42 7.39 139.75 7.82L139.75 7.82L139.44 6.65Q140.26 6.12 141.20 5.84Q142.15 5.57 143.16 5.57L143.16 5.57Q144.22 5.57 145.07 5.95Q145.92 6.34 146.42 7.10Q146.93 7.87 146.93 9.05L146.93 9.05Q146.93 10.06 146.50 10.96Q146.06 11.86 145.25 12.56Q144.43 13.27 143.26 13.68L143.26 13.68Q143.90 13.94 144.48 14.40Q145.06 14.86 145.42 15.56Q145.78 16.27 145.78 17.30L145.78 17.30Q145.78 18.65 145.26 19.70Q144.74 20.76 143.86 21.47Q142.97 22.18 141.79 22.55Q140.62 22.92 139.30 22.92ZM153.58 22.92L153.58 22.92Q152.23 22.92 151.40 22.30Q150.58 21.67 150.20 20.54Q149.83 19.42 149.83 17.88L149.83 17.88Q149.83 16.22 150.17 14.50Q150.50 12.77 151.15 11.17Q151.80 9.58 152.71 8.32Q153.62 7.06 154.79 6.31Q155.95 5.57 157.30 5.57L157.30 5.57Q158.66 5.57 159.47 6.20Q160.27 6.84 160.64 7.96Q161.02 9.07 161.02 10.58L161.02 10.58Q161.02 12.24 160.68 13.98Q160.34 15.72 159.70 17.32Q159.05 18.91 158.14 20.17Q157.22 21.43 156.07 22.18Q154.92 22.92 153.58 22.92ZM153.67 21.58L153.67 21.58Q154.46 21.58 155.20 21.14Q155.93 20.71 156.58 19.96Q157.22 19.20 157.76 18.17Q158.30 17.14 158.70 15.94Q159.10 14.74 159.30 13.42Q159.50 12.10 159.50 10.78L159.50 10.78Q159.50 8.74 158.92 7.82Q158.33 6.91 157.18 6.91L157.18 6.91Q156.38 6.91 155.65 7.34Q154.92 7.78 154.27 8.53Q153.62 9.29 153.10 10.31Q152.57 11.33 152.17 12.54Q151.78 13.75 151.56 15.06Q151.34 16.37 151.34 17.71L151.34 17.71Q151.34 19.73 151.94 20.65Q152.54 21.58 153.67 21.58ZM167.11 22.92L167.11 22.92Q165.77 22.92 164.94 22.30Q164.11 21.67 163.74 20.54Q163.37 19.42 163.37 17.88L163.37 17.88Q163.37 16.22 163.70 14.50Q164.04 12.77 164.69 11.17Q165.34 9.58 166.25 8.32Q167.16 7.06 168.32 6.31Q169.49 5.57 170.83 5.57L170.83 5.57Q172.20 5.57 173.00 6.20Q173.81 6.84 174.18 7.96Q174.55 9.07 174.55 10.58L174.55 10.58Q174.55 12.24 174.22 13.98Q173.88 15.72 173.23 17.32Q172.58 18.91 171.67 20.17Q170.76 21.43 169.61 22.18Q168.46 22.92 167.11 22.92ZM167.21 21.58L167.21 21.58Q168.00 21.58 168.73 21.14Q169.46 20.71 170.11 19.96Q170.76 19.20 171.30 18.17Q171.84 17.14 172.24 15.94Q172.63 14.74 172.84 13.42Q173.04 12.10 173.04 10.78L173.04 10.78Q173.04 8.74 172.45 7.82Q171.86 6.91 170.71 6.91L170.71 6.91Q169.92 6.91 169.19 7.34Q168.46 7.78 167.81 8.53Q167.16 9.29 166.63 10.31Q166.10 11.33 165.71 12.54Q165.31 13.75 165.10 15.06Q164.88 16.37 164.88 17.71L164.88 17.71Q164.88 19.73 165.48 20.65Q166.08 21.58 167.21 21.58ZM183.12 22.56L181.66 22.56L184.66 10.18L186.10 10.18L183.12 22.56ZM186.26 7.03L186.26 7.03Q185.86 7.03 185.60 6.78Q185.35 6.53 185.35 6.10L185.35 6.10Q185.35 5.74 185.52 5.45Q185.69 5.16 185.95 5.00Q186.22 4.85 186.50 4.85L186.50 4.85Q186.91 4.85 187.18 5.10Q187.44 5.35 187.44 5.81L187.44 5.81Q187.44 6.17 187.26 6.44Q187.08 6.72 186.83 6.88Q186.58 7.03 186.26 7.03ZM191.23 22.80L191.23 22.80Q190.06 22.80 189.38 22.39Q188.71 21.98 188.45 21.28Q188.18 20.57 188.23 19.62Q188.28 18.67 188.52 17.62L188.52 17.62L191.18 6.50L192.72 6.22L191.78 10.18L196.18 10.18L195.86 11.42L191.47 11.42L189.98 17.59Q189.74 18.58 189.71 19.48Q189.67 20.38 190.08 20.93Q190.49 21.48 191.54 21.48L191.54 21.48Q192.31 21.48 192.89 21.30Q193.46 21.12 194.06 20.86L194.06 20.86L194.21 22.15Q193.56 22.42 192.80 22.61Q192.05 22.80 191.23 22.80ZM200.86 22.82L200.86 22.82Q199.87 22.82 199.01 22.36Q198.14 21.89 197.59 20.88Q197.04 19.87 197.04 18.24L197.04 18.24Q197.04 16.39 197.63 14.87Q198.22 13.34 199.32 12.23Q200.42 11.11 201.92 10.50Q203.42 9.89 205.25 9.89L205.25 9.89Q205.70 9.89 206.21 9.94Q206.71 9.98 207.19 10.08Q207.67 10.18 208.13 10.37L208.13 10.37L206.28 17.88Q206.09 18.67 206.02 19.40Q205.94 20.14 206.05 20.88Q206.16 21.62 206.50 22.46L206.50 22.46L205.03 22.68Q204.89 22.37 204.78 22.00Q204.67 21.62 204.60 21.24L204.60 21.24Q203.69 22.10 202.75 22.46Q201.82 22.82 200.86 22.82ZM201.05 21.48L201.05 21.48Q201.98 21.48 202.85 21.06Q203.71 20.64 204.53 19.78L204.53 19.78Q204.55 18.98 204.74 18.14Q204.94 17.30 205.10 16.66L205.10 16.66L206.40 11.40Q205.97 11.28 205.60 11.24Q205.22 11.21 204.84 11.21L204.84 11.21Q203.33 11.21 202.15 11.78Q200.98 12.36 200.17 13.34Q199.37 14.33 198.96 15.54Q198.55 16.75 198.55 18.05L198.55 18.05Q198.55 19.32 198.90 20.09Q199.25 20.86 199.81 21.17Q200.38 21.48 201.05 21.48ZM213.31 21.50L213.00 22.75Q211.75 22.58 211.07 22.08Q210.38 21.58 210.14 20.81Q209.90 20.04 209.98 19.04Q210.05 18.05 210.31 16.90L210.31 16.90L213.36 4.22L214.90 3.96L211.90 16.37Q211.68 17.33 211.51 18.17Q211.34 19.01 211.39 19.68Q211.44 20.35 211.88 20.82Q212.33 21.29 213.31 21.50L213.31 21.50ZM217.34 22.56L215.88 22.56L218.88 10.18L220.32 10.18L217.34 22.56ZM220.49 7.03L220.49 7.03Q220.08 7.03 219.83 6.78Q219.58 6.53 219.58 6.10L219.58 6.10Q219.58 5.74 219.74 5.45Q219.91 5.16 220.18 5.00Q220.44 4.85 220.73 4.85L220.73 4.85Q221.14 4.85 221.40 5.10Q221.66 5.35 221.66 5.81L221.66 5.81Q221.66 6.17 221.48 6.44Q221.30 6.72 221.05 6.88Q220.80 7.03 220.49 7.03ZM226.46 22.80L226.46 22.80Q225.07 22.80 224.09 22.21Q223.10 21.62 222.59 20.59Q222.07 19.56 222.07 18.19L222.07 18.19Q222.07 16.51 222.59 15.01Q223.10 13.51 224.06 12.36Q225.02 11.21 226.40 10.55Q227.78 9.89 229.58 9.89L229.58 9.89Q230.23 9.89 230.86 9.98Q231.48 10.08 232.06 10.27L232.06 10.27L231.48 11.59Q230.95 11.40 230.40 11.30Q229.85 11.21 229.32 11.21L229.32 11.21Q227.98 11.21 226.92 11.76Q225.86 12.31 225.12 13.26Q224.38 14.21 223.99 15.44Q223.61 16.68 223.61 18.05L223.61 18.05Q223.61 19.58 224.38 20.52Q225.14 21.46 226.73 21.46L226.73 21.46Q227.66 21.46 228.55 21.18Q229.44 20.90 229.94 20.62L229.94 20.62L230.09 21.91Q229.51 22.27 228.55 22.54Q227.59 22.80 226.46 22.80Z"/></svg>