<svg xmlns="http://www.w3.org/2000/svg" xmlns:xlink="http://www.w3.org/1999/xlink" width="345.48" height="46.368"><path fill="black" d="M10.82 24.62L10.82 24.62Q10.61 24.67 10.49 24.56Q10.37 24.46 10.39 24.19L10.39 24.19Q10.44 23.98 10.55 23.89Q10.66 23.81 10.87 23.81L10.87 23.81Q13.34 23.62 15.46 22.90Q17.57 22.18 19.15 20.94Q20.74 19.70 21.61 18.08Q22.49 16.46 22.49 14.50L22.49 14.50Q22.49 12.74 21.60 11.75Q20.71 10.75 19.10 10.75L19.10 10.75Q18.12 10.75 17.10 11.17Q16.08 11.59 15.02 12.41Q13.97 13.22 13.01 14.40Q12.05 15.58 11.20 17.11Q10.34 18.65 9.67 20.50L9.67 20.50L5.23 34.25Q5.16 34.42 5.04 34.51Q4.92 34.61 4.66 34.61L4.66 34.61Q4.44 34.61 4.34 34.51Q4.25 34.42 4.32 34.25L4.32 34.25L11.21 12.96Q10.49 13.97 9.58 14.82Q8.66 15.67 7.58 16.40Q6.50 17.14 5.26 17.74L5.26 17.74Q5.09 17.83 4.97 17.77Q4.85 17.71 4.75 17.52L4.75 17.52Q4.68 17.28 4.74 17.16Q4.80 17.04 4.94 16.99L4.94 16.99Q6.53 16.25 7.82 15.29Q9.12 14.33 10.19 13.08Q11.26 11.83 12.02 10.27L12.02 10.27Q12.12 10.13 12.24 10.04Q12.36 9.96 12.62 9.96L12.62 9.96Q12.84 9.96 12.92 10.07Q13.01 10.18 12.96 10.37L12.96 10.37L11.23 15.65Q12.41 13.75 13.74 12.48Q15.07 11.21 16.46 10.56Q17.86 9.91 19.25 9.91L19.25 9.91Q20.54 9.91 21.49 10.48Q22.44 11.04 22.96 12.05Q23.47 13.06 23.47 14.45L23.47 14.45Q23.47 16.61 22.52 18.41Q21.58 20.21 19.86 21.54Q18.14 22.87 15.84 23.66Q13.54 24.46 10.82 24.62ZM17.16 34.68L17.16 34.68Q17.02 34.68 16.96 34.55Q16.90 34.42 16.93 34.26Q16.97 34.10 17.10 33.97Q17.23 33.84 17.45 33.84L17.45 33.84Q18.22 33.84 19.21 33.28Q20.21 32.71 21.35 31.70Q22.49 30.70 23.68 29.38Q24.86 28.06 26.04 26.51Q27.22 24.96 28.31 23.32Q29.40 21.67 30.32 20.04Q31.25 18.41 31.94 16.92Q32.64 15.43 33.02 14.17Q33.41 12.91 33.41 12.05L33.41 12.05Q33.41 11.83 33.54 11.71Q33.67 11.59 33.86 11.59Q34.06 11.59 34.19 11.71Q34.32 11.83 34.32 12.05L34.32 12.05Q34.32 12.98 33.92 14.28Q33.53 15.58 32.81 17.14Q32.09 18.70 31.12 20.38Q30.14 22.06 29.00 23.76Q27.86 25.46 26.62 27.07Q25.37 28.68 24.08 30.05Q22.80 31.42 21.56 32.47Q20.33 33.53 19.20 34.10Q18.07 34.68 17.16 34.68ZM24.58 34.66L24.58 34.66Q24.05 34.66 23.66 34.48Q23.28 34.30 23.08 33.91Q22.87 33.53 22.87 32.90Q22.87 32.28 23.14 31.44L23.14 31.44L28.85 13.92Q29.54 11.78 30.36 10.80Q31.18 9.82 32.30 9.82L32.30 9.82Q32.95 9.82 33.40 10.09Q33.84 10.37 34.08 10.86Q34.32 11.35 34.32 12.05L34.32 12.05Q34.32 12.26 34.19 12.38Q34.06 12.50 33.86 12.50Q33.67 12.50 33.54 12.38Q33.41 12.26 33.41 12.05L33.41 12.05Q33.41 11.59 33.26 11.28Q33.12 10.97 32.87 10.81Q32.62 10.66 32.21 10.66L32.21 10.66Q31.73 10.66 31.28 11.03Q30.84 11.40 30.46 12.17Q30.07 12.94 29.66 14.21L29.66 14.21L24.10 31.56Q23.86 32.35 23.84 32.86Q23.83 33.36 24.07 33.61Q24.31 33.86 24.67 33.86L24.67 33.86Q25.13 33.86 25.55 33.61Q25.97 33.36 26.35 32.96Q26.74 32.57 26.98 32.18L26.98 32.18Q27.05 32.02 27.18 31.94Q27.31 31.87 27.50 31.99L27.50 31.99Q27.70 32.11 27.72 32.23Q27.74 32.35 27.65 32.54L27.65 32.54Q27.34 33.02 26.89 33.52Q26.45 34.01 25.87 34.33Q25.30 34.66 24.58 34.66ZM34.73 34.68L34.73 34.68Q33.74 34.68 33.01 34.20Q32.28 33.72 31.91 32.83Q31.54 31.94 31.54 30.77L31.54 30.77Q31.54 29.66 31.84 28.43Q32.14 27.19 32.76 26.02Q33.38 24.84 34.32 23.89Q35.26 22.94 36.49 22.38Q37.73 21.82 39.29 21.82L39.29 21.82Q40.08 21.82 40.96 22.08Q41.83 22.34 42.53 22.85L42.53 22.85L42.72 22.27Q42.82 22.08 42.94 22.00Q43.06 21.91 43.27 21.91L43.27 21.91Q43.56 21.91 43.62 22.07Q43.68 22.22 43.63 22.42L43.63 22.42L40.61 31.66Q40.37 32.42 40.39 32.90Q40.42 33.38 40.66 33.62Q40.90 33.86 41.28 33.86L41.28 33.86Q41.71 33.86 42.12 33.62Q42.53 33.38 42.88 33Q43.22 32.62 43.49 32.18L43.49 32.18Q43.56 32.02 43.70 31.96Q43.85 31.90 44.06 32.02L44.06 32.02Q44.26 32.11 44.28 32.26Q44.30 32.40 44.18 32.57L44.18 32.57Q43.90 33.05 43.46 33.54Q43.03 34.03 42.46 34.34Q41.88 34.66 41.14 34.66L41.14 34.66Q40.70 34.66 40.37 34.51Q40.03 34.37 39.82 34.09Q39.60 33.82 39.53 33.40Q39.46 32.98 39.53 32.42L39.53 32.42Q39.60 32.11 39.70 31.80Q39.79 31.49 39.89 31.18L39.89 31.18Q38.95 32.50 38.02 33.28Q37.08 34.06 36.24 34.37Q35.40 34.68 34.73 34.68ZM32.54 30.72L32.54 30.72Q32.54 31.66 32.78 32.35Q33.02 33.05 33.55 33.44Q34.08 33.84 34.90 33.84L34.90 33.84Q35.76 33.84 36.73 33.30Q37.70 32.76 38.71 31.60Q39.72 30.43 40.73 28.56L40.73 28.56L42.26 23.66Q41.35 23.04 40.60 22.84Q39.84 22.63 39.14 22.63L39.14 22.63Q37.82 22.63 36.74 23.15Q35.66 23.66 34.88 24.53Q34.10 25.39 33.58 26.45Q33.05 27.50 32.80 28.62Q32.54 29.74 32.54 30.72ZM54.84 35.98L55.08 35.02Q55.51 34.73 55.99 34.48Q56.47 34.22 56.96 33.98Q57.46 33.74 57.95 33.55Q58.44 33.36 58.87 33.19L58.87 33.19Q59.09 33.10 59.21 33.18Q59.33 33.26 59.34 33.40Q59.35 33.53 59.27 33.67Q59.18 33.82 58.94 33.91L58.94 33.91Q58.46 34.08 57.96 34.32Q57.46 34.56 56.93 34.84Q56.40 35.11 55.86 35.40Q55.32 35.69 54.84 35.98L54.84 35.98ZM48.26 46.73L48.26 46.73Q47.02 46.73 46.39 46.02Q45.77 45.31 45.77 44.18L45.77 44.18Q45.77 43.22 46.18 42.29Q46.58 41.35 47.34 40.48Q48.10 39.60 49.15 38.75Q50.21 37.90 51.48 37.08L51.48 37.08Q51.96 36.77 52.45 36.48Q52.94 36.19 53.44 35.92Q53.93 35.64 54.41 35.40L54.41 35.40L55.92 30.89Q55.15 31.99 54.37 32.75Q53.59 33.50 52.84 33.91Q52.08 34.32 51.41 34.49Q50.74 34.66 50.21 34.66L50.21 34.66Q49.15 34.66 48.40 34.18Q47.64 33.70 47.44 32.69Q47.23 31.68 47.74 30.10L47.74 30.10L49.42 25.10Q49.80 23.83 49.63 23.27Q49.46 22.70 48.70 22.70L48.70 22.70Q48.14 22.70 47.62 23.06Q47.09 23.42 46.56 24.13Q46.03 24.84 45.50 25.85L45.50 25.85Q45.41 25.99 45.31 26.05Q45.22 26.11 45 26.06L45 26.06Q44.78 26.02 44.71 25.87Q44.64 25.73 44.74 25.56L44.74 25.56Q45.29 24.43 45.92 23.60Q46.56 22.78 47.28 22.33Q48 21.89 48.84 21.89L48.84 21.89Q49.37 21.89 49.79 22.08Q50.21 22.27 50.42 22.67Q50.64 23.06 50.64 23.64Q50.64 24.22 50.38 24.98L50.38 24.98L48.62 30.34Q48.29 31.42 48.34 32.20Q48.38 32.98 48.89 33.40Q49.39 33.82 50.33 33.82L50.33 33.82Q51.02 33.82 51.83 33.55Q52.63 33.29 53.48 32.65Q54.34 32.02 55.16 30.92Q55.99 29.83 56.76 28.18L56.76 28.18L58.68 22.27Q58.75 22.08 58.86 22.00Q58.97 21.91 59.21 21.91L59.21 21.91Q59.50 21.91 59.58 22.06Q59.66 22.20 59.57 22.42L59.57 22.42L53.47 41.11Q53.06 42.46 52.54 43.49Q52.01 44.52 51.35 45.25Q50.69 45.98 49.93 46.36Q49.18 46.73 48.26 46.73ZM48.41 45.91L48.41 45.91Q49.27 45.91 50.03 45.34Q50.78 44.76 51.43 43.66Q52.08 42.55 52.61 40.99L52.61 40.99L54.07 36.48Q53.74 36.67 53.35 36.90Q52.97 37.13 52.60 37.34Q52.22 37.56 51.84 37.78L51.84 37.78Q50.66 38.57 49.72 39.34Q48.77 40.10 48.11 40.88Q47.45 41.66 47.09 42.48Q46.73 43.30 46.73 44.14L46.73 44.14Q46.73 44.64 46.91 45.04Q47.09 45.43 47.46 45.67Q47.83 45.91 48.41 45.91ZM66.14 34.73L66.14 34.73Q65.21 34.73 64.61 34.39Q64.01 34.06 63.70 33.43Q63.38 32.81 63.42 31.91Q63.46 31.01 63.79 29.90L63.79 29.90L65.38 25.06Q65.74 23.83 65.58 23.27Q65.42 22.70 64.66 22.70L64.66 22.70Q64.08 22.70 63.55 23.06Q63.02 23.42 62.51 24.13Q61.99 24.84 61.44 25.85L61.44 25.85Q61.37 25.99 61.26 26.05Q61.15 26.11 60.96 26.06L60.96 26.06Q60.74 26.02 60.67 25.87Q60.60 25.73 60.70 25.56L60.70 25.56Q61.22 24.43 61.87 23.60Q62.52 22.78 63.25 22.33Q63.98 21.89 64.80 21.89L64.80 21.89Q65.35 21.89 65.74 22.07Q66.12 22.25 66.32 22.64Q66.53 23.04 66.53 23.62Q66.53 24.19 66.26 24.94L66.26 24.94L64.73 29.83Q64.42 30.79 64.33 31.55Q64.25 32.30 64.43 32.83Q64.61 33.36 65.03 33.64Q65.45 33.91 66.12 33.91L66.12 33.91Q66.91 33.91 67.69 33.55Q68.47 33.19 69.18 32.51Q69.89 31.82 70.48 30.89Q71.06 29.95 71.42 28.78L71.42 28.78L71.81 29.59Q71.35 30.77 70.72 31.72Q70.08 32.66 69.31 33.32Q68.54 33.98 67.73 34.36Q66.91 34.73 66.14 34.73ZM73.46 34.73L73.46 34.73Q72.65 34.73 72.04 34.42Q71.42 34.10 71.06 33.48Q70.70 32.86 70.70 31.92Q70.70 30.98 71.11 29.74L71.11 29.74L73.54 22.27Q73.61 22.08 73.75 22.01Q73.90 21.94 74.11 21.94L74.11 21.94Q74.33 21.94 74.40 22.02Q74.47 22.10 74.42 22.27L74.42 22.27L72.05 29.59Q71.69 30.62 71.62 31.44Q71.54 32.26 71.74 32.80Q71.93 33.34 72.38 33.62Q72.84 33.91 73.58 33.91L73.58 33.91Q74.64 33.91 75.55 33.38Q76.46 32.86 77.20 31.98Q77.93 31.10 78.50 30.04Q79.08 28.97 79.49 27.85Q79.90 26.74 80.09 25.72Q80.28 24.70 80.28 23.95L80.28 23.95Q80.28 23.52 80.18 23.20Q80.09 22.87 79.91 22.72Q79.73 22.56 79.46 22.56L79.46 22.56Q79.06 22.56 78.86 22.78Q78.67 22.99 78.67 23.28L78.67 23.28Q78.67 23.52 78.84 23.75Q79.01 23.98 79.38 24.12Q79.75 24.26 80.33 24.26L80.33 24.26Q81.29 24.26 82.32 23.83Q83.35 23.40 84.10 22.90L84.10 22.90Q84.22 22.82 84.32 22.87Q84.43 22.92 84.50 23.03Q84.58 23.14 84.58 23.26Q84.58 23.38 84.46 23.45L84.46 23.45Q83.42 24.14 82.37 24.58Q81.31 25.01 80.30 25.01L80.30 25.01Q79.49 25.01 78.94 24.79Q78.38 24.58 78.12 24.19Q77.86 23.81 77.86 23.30L77.86 23.30Q77.86 22.94 78.05 22.60Q78.24 22.25 78.60 22.03Q78.96 21.82 79.49 21.82L79.49 21.82Q80.04 21.82 80.39 22.06Q80.74 22.30 80.93 22.79Q81.12 23.28 81.12 24L81.12 24Q81.12 24.62 80.93 25.66Q80.74 26.69 80.34 27.90Q79.94 29.11 79.32 30.31Q78.70 31.51 77.84 32.52Q76.99 33.53 75.90 34.13Q74.81 34.73 73.46 34.73ZM84.10 34.63L84.10 34.63Q83.88 34.63 83.76 34.54Q83.64 34.44 83.69 34.27L83.69 34.27L86.69 25.10Q87.10 23.83 86.92 23.27Q86.74 22.70 85.97 22.70L85.97 22.70Q85.42 22.70 84.89 23.06Q84.36 23.42 83.83 24.13Q83.30 24.84 82.78 25.85L82.78 25.85Q82.68 25.99 82.58 26.05Q82.49 26.11 82.27 26.06L82.27 26.06Q82.06 26.02 81.98 25.87Q81.91 25.73 82.01 25.56L82.01 25.56Q82.56 24.43 83.20 23.60Q83.83 22.78 84.55 22.33Q85.27 21.89 86.11 21.89L86.11 21.89Q86.62 21.89 86.99 22.03Q87.36 22.18 87.58 22.48Q87.79 22.78 87.88 23.22Q87.96 23.66 87.84 24.26L87.84 24.26L87.50 25.34Q88.15 24.24 88.72 23.56Q89.28 22.87 89.80 22.49Q90.31 22.10 90.74 21.96Q91.18 21.82 91.54 21.82L91.54 21.82Q91.78 21.82 91.92 21.91Q92.06 22.01 92.06 22.20L92.06 22.20Q92.06 23.21 92.22 23.76Q92.38 24.31 92.69 24.54Q93.00 24.77 93.43 24.77L93.43 24.77Q94.06 24.77 94.84 24.48Q95.62 24.19 96.82 23.38L96.82 23.38Q96.96 23.28 97.09 23.33Q97.22 23.38 97.30 23.50Q97.37 23.62 97.36 23.76Q97.34 23.90 97.22 24L97.22 24Q96.07 24.77 95.11 25.13Q94.15 25.49 93.41 25.49L93.41 25.49Q92.78 25.49 92.30 25.22Q91.82 24.96 91.57 24.34Q91.32 23.71 91.32 22.63L91.32 22.63Q90.84 22.66 90.30 22.99Q89.76 23.33 89.17 24Q88.58 24.67 87.96 25.69Q87.34 26.71 86.69 28.06L86.69 28.06L84.65 34.27Q84.60 34.46 84.49 34.55Q84.38 34.63 84.10 34.63ZM98.59 34.66L98.59 34.66Q97.58 34.66 97.13 33.90Q96.67 33.14 97.25 31.44L97.25 31.44L100.22 22.27Q100.32 22.08 100.43 22.00Q100.54 21.91 100.78 21.91L100.78 21.91Q101.02 21.91 101.12 22.01Q101.23 22.10 101.18 22.30L101.18 22.30L98.14 31.56Q97.75 32.74 97.93 33.30Q98.11 33.86 98.69 33.86L98.69 33.86Q99.12 33.86 99.54 33.60Q99.96 33.34 100.33 32.94Q100.70 32.54 100.97 32.18L100.97 32.18Q101.04 32.02 101.17 31.94Q101.30 31.87 101.52 31.99L101.52 31.99Q101.69 32.11 101.72 32.24Q101.76 32.38 101.64 32.54L101.64 32.54Q101.35 33.05 100.91 33.53Q100.46 34.01 99.88 34.33Q99.29 34.66 98.59 34.66ZM102.10 17.71L102.10 17.71Q101.71 17.71 101.48 17.54Q101.26 17.38 101.26 17.02L101.26 17.02Q101.26 16.49 101.57 16.08Q101.88 15.67 102.43 15.67L102.43 15.67Q102.84 15.67 103.07 15.84Q103.30 16.01 103.30 16.37L103.30 16.37Q103.30 16.87 102.98 17.29Q102.67 17.71 102.10 17.71ZM106.80 34.66L106.80 34.66Q106.08 34.66 105.59 34.34Q105.10 34.03 104.99 33.26Q104.88 32.50 105.31 31.15L105.31 31.15L107.95 23.04L105.86 23.04Q105.60 23.04 105.56 22.93Q105.53 22.82 105.58 22.63L105.58 22.63Q105.65 22.44 105.76 22.36Q105.86 22.27 106.10 22.27L106.10 22.27L108.19 22.27L109.87 17.11Q109.94 16.92 110.06 16.84Q110.18 16.75 110.45 16.75L110.45 16.75Q110.66 16.75 110.78 16.85Q110.90 16.94 110.83 17.14L110.83 17.14L109.13 22.27L112.22 22.27Q112.49 22.27 112.54 22.37Q112.58 22.46 112.51 22.66L112.51 22.66Q112.44 22.90 112.33 22.97Q112.22 23.04 112.01 23.04L112.01 23.04L108.89 23.04L106.20 31.27Q105.74 32.71 106.00 33.29Q106.25 33.86 106.94 33.86L106.94 33.86Q107.71 33.86 108.42 33.32Q109.13 32.78 109.56 32.04L109.56 32.04Q109.63 31.87 109.76 31.80Q109.90 31.73 110.09 31.85L110.09 31.85Q110.28 31.94 110.33 32.09Q110.38 32.23 110.26 32.40L110.26 32.40Q109.90 33.02 109.38 33.55Q108.86 34.08 108.23 34.37Q107.59 34.66 106.80 34.66ZM118.20 34.70L118.20 34.70Q117.43 34.70 116.72 34.43Q116.02 34.15 115.44 33.64Q114.86 33.12 114.46 32.40Q114.05 31.68 113.83 30.80Q113.62 29.93 113.62 28.94L113.62 28.94Q113.62 28.01 113.83 27.02Q114.05 26.04 114.48 25.10Q114.91 24.17 115.55 23.44Q116.18 22.70 117.01 22.26Q117.84 21.82 118.87 21.82L118.87 21.82Q119.74 21.82 120.28 22.14Q120.82 22.46 121.08 23.03Q121.34 23.59 121.34 24.31L121.34 24.31Q121.34 25.63 120.68 26.89Q120.02 28.15 118.91 29.32Q117.79 30.48 116.42 31.49L116.42 31.49Q115.18 32.42 113.81 33.14Q112.44 33.86 111.12 34.27Q109.80 34.68 108.55 34.68L108.55 34.68Q108.41 34.68 108.36 34.55Q108.31 34.42 108.35 34.26Q108.38 34.10 108.52 33.97Q108.65 33.84 108.84 33.84L108.84 33.84Q109.99 33.84 111.22 33.44Q112.44 33.05 113.69 32.35Q114.94 31.66 116.09 30.77L116.09 30.77Q117.24 29.88 118.21 28.86Q119.18 27.84 119.80 26.71Q120.41 25.58 120.41 24.38L120.41 24.38Q120.41 23.54 119.99 23.09Q119.57 22.63 118.68 22.63L118.68 22.63Q117.65 22.63 116.87 23.27Q116.09 23.90 115.56 24.89Q115.03 25.87 114.77 26.95Q114.50 28.03 114.50 28.92L114.50 28.92Q114.50 30.07 114.79 30.98Q115.08 31.90 115.58 32.56Q116.09 33.22 116.80 33.55Q117.50 33.89 118.32 33.89L118.32 33.89Q119.14 33.89 119.86 33.64Q120.58 33.38 121.25 32.90Q121.92 32.42 122.62 31.80L122.62 31.80Q122.78 31.66 122.90 31.68Q123.02 31.70 123.14 31.80L123.14 31.80Q123.24 31.87 123.29 32.03Q123.34 32.18 123.17 32.35L123.17 32.35Q122.74 32.83 121.98 33.40Q121.22 33.96 120.28 34.33Q119.33 34.70 118.20 34.70ZM159.07 34.68L159.07 34.68Q158.09 34.68 157.56 34.15Q157.03 33.62 156.97 32.63Q156.91 31.63 157.34 30.29L157.34 30.29L162.12 16.08Q162.67 14.47 162.58 13.28Q162.48 12.10 161.74 11.45Q160.99 10.80 159.62 10.80L159.62 10.80Q158.81 10.80 157.99 11.04Q157.18 11.28 156.35 11.81Q155.52 12.34 154.75 13.14Q153.98 13.94 153.28 15.00Q152.57 16.06 151.97 17.42L151.97 17.42L146.40 34.25Q146.35 34.46 146.23 34.54Q146.11 34.61 145.87 34.61L145.87 34.61Q145.63 34.61 145.55 34.52Q145.46 34.44 145.51 34.25L145.51 34.25L151.49 16.10Q152.02 14.45 151.93 13.26Q151.85 12.07 151.12 11.44Q150.38 10.80 149.02 10.80L149.02 10.80Q148.20 10.80 147.36 11.06Q146.52 11.33 145.69 11.87Q144.86 12.41 144.07 13.21Q143.28 14.02 142.57 15.13Q141.86 16.25 141.24 17.62L141.24 17.62L135.79 34.27Q135.74 34.49 135.62 34.57Q135.50 34.66 135.26 34.66L135.26 34.66Q135.02 34.66 134.92 34.57Q134.81 34.49 134.88 34.27L134.88 34.27L141.79 13.15Q142.15 12.02 141.86 11.38Q141.58 10.73 140.64 10.73L140.64 10.73Q139.97 10.73 139.31 11.02Q138.65 11.30 137.96 11.87Q137.28 12.43 136.56 13.30L136.56 13.30Q136.39 13.46 136.24 13.48Q136.08 13.49 135.89 13.34L135.89 13.34Q135.74 13.18 135.76 13.02Q135.77 12.86 135.94 12.72L135.94 12.72Q136.73 11.78 137.50 11.16Q138.26 10.54 139.07 10.21Q139.87 9.89 140.69 9.89L140.69 9.89Q141.79 9.89 142.37 10.49Q142.94 11.09 142.82 12.24L142.82 12.24Q142.73 12.72 142.61 13.26Q142.49 13.80 142.27 14.38L142.27 14.38Q143.02 13.25 143.83 12.41Q144.65 11.57 145.52 11.02Q146.40 10.46 147.32 10.19Q148.25 9.91 149.11 9.91L149.11 9.91Q150.31 9.91 151.12 10.38Q151.92 10.85 152.34 11.66Q152.76 12.48 152.69 13.61L152.69 13.61Q152.71 13.90 152.69 14.18Q152.66 14.47 152.62 14.78L152.62 14.78Q153.36 13.56 154.20 12.65Q155.04 11.74 155.95 11.12Q156.86 10.51 157.82 10.21Q158.78 9.91 159.74 9.91L159.74 9.91Q161.33 9.91 162.26 10.69Q163.20 11.47 163.42 12.84Q163.63 14.21 163.06 16.01L163.06 16.01L158.28 30.26Q157.87 31.42 157.86 32.22Q157.85 33.02 158.20 33.42Q158.54 33.82 159.19 33.82L159.19 33.82Q159.74 33.82 160.31 33.46Q160.87 33.10 161.40 32.46Q161.93 31.82 162.36 31.03L162.36 31.03Q162.46 30.84 162.60 30.79Q162.74 30.74 162.91 30.86L162.91 30.86Q163.10 30.96 163.14 31.09Q163.18 31.22 163.08 31.42L163.08 31.42Q162.65 32.16 162.19 32.77Q161.74 33.38 161.22 33.82Q160.70 34.25 160.18 34.46Q159.65 34.68 159.07 34.68ZM181.94 34.68L181.94 34.68Q181.15 34.68 180.59 34.26Q180.02 33.84 179.63 32.86Q179.23 31.87 178.90 30.24L178.90 30.24L177.38 22.85L166.82 34.42Q166.66 34.58 166.54 34.58Q166.42 34.58 166.22 34.42L166.22 34.42Q166.06 34.27 166.07 34.15Q166.08 34.03 166.30 33.79L166.30 33.79L177.19 21.86L175.70 14.14Q175.44 12.79 175.18 12.06Q174.91 11.33 174.55 11.05Q174.19 10.78 173.59 10.78L173.59 10.78Q173.06 10.78 172.49 10.96Q171.91 11.14 171.29 11.52L171.29 11.52Q171.05 11.66 170.90 11.64Q170.76 11.62 170.64 11.38L170.64 11.38Q170.57 11.18 170.63 11.06Q170.69 10.94 170.90 10.80L170.90 10.80Q171.82 10.32 172.44 10.12Q173.06 9.91 173.69 9.91L173.69 9.91Q174.29 9.91 174.72 10.12Q175.15 10.32 175.48 10.79Q175.80 11.26 176.06 12.05Q176.33 12.84 176.54 14.02L176.54 14.02L177.96 21.24L187.97 10.13Q188.16 9.94 188.29 9.92Q188.42 9.91 188.57 10.13L188.57 10.13Q188.74 10.27 188.71 10.39Q188.69 10.51 188.50 10.75L188.50 10.75L178.15 22.20L179.66 29.64Q179.90 30.89 180.13 31.70Q180.36 32.52 180.64 32.99Q180.91 33.46 181.26 33.65Q181.61 33.84 182.11 33.84L182.11 33.84Q182.81 33.84 183.60 33.11Q184.39 32.38 185.14 31.01L185.14 31.01Q185.23 30.82 185.38 30.76Q185.52 30.70 185.71 30.79L185.71 30.79Q185.90 30.89 185.95 31.03Q186 31.18 185.88 31.39L185.88 31.39Q185.28 32.50 184.64 33.22Q184.01 33.94 183.35 34.31Q182.69 34.68 181.94 34.68ZM198.77 34.61L198.77 34.61Q198.53 34.61 198.43 34.48Q198.34 34.34 198.41 34.15L198.41 34.15L205.80 11.35Q204.89 12.05 203.90 12.73Q202.92 13.42 202.00 13.98Q201.07 14.54 200.30 14.93L200.30 14.93Q200.09 15.02 199.90 15.00Q199.70 14.98 199.61 14.78L199.61 14.78Q199.54 14.59 199.60 14.45Q199.66 14.30 199.90 14.21L199.90 14.21Q200.81 13.73 201.84 13.10Q202.87 12.48 203.90 11.75Q204.94 11.02 205.85 10.25L205.85 10.25Q206.04 10.10 206.17 10.03Q206.30 9.96 206.41 9.94Q206.52 9.91 206.64 9.91L206.64 9.91Q206.90 9.91 207.02 10.01Q207.14 10.10 207.05 10.37L207.05 10.37L199.32 34.25Q199.27 34.44 199.15 34.52Q199.03 34.61 198.77 34.61ZM214.87 34.73L214.87 34.73Q213.14 34.73 211.86 33.97Q210.58 33.22 209.87 31.64Q209.16 30.07 209.16 27.70L209.16 27.70Q209.16 25.70 209.57 23.62Q209.98 21.53 210.74 19.54Q211.51 17.54 212.60 15.80Q213.70 14.06 215.09 12.74Q216.48 11.42 218.14 10.67Q219.79 9.91 221.69 9.91L221.69 9.91Q223.39 9.91 224.65 10.67Q225.91 11.42 226.61 12.97Q227.30 14.52 227.30 16.94L227.30 16.94Q227.30 18.91 226.91 21.01Q226.51 23.11 225.76 25.10Q225 27.10 223.91 28.82Q222.82 30.55 221.44 31.88Q220.06 33.22 218.40 33.97Q216.74 34.73 214.87 34.73ZM215.09 33.82L215.09 33.82Q216.70 33.82 218.15 33.10Q219.60 32.38 220.86 31.12Q222.12 29.86 223.13 28.21Q224.14 26.57 224.84 24.68Q225.55 22.80 225.94 20.87Q226.32 18.94 226.32 17.06L226.32 17.06Q226.32 14.76 225.72 13.39Q225.12 12.02 224.02 11.41Q222.91 10.80 221.45 10.80L221.45 10.80Q219.86 10.80 218.40 11.52Q216.94 12.24 215.68 13.49Q214.42 14.74 213.40 16.39Q212.38 18.05 211.67 19.92Q210.96 21.79 210.58 23.76Q210.19 25.73 210.19 27.60L210.19 27.60Q210.19 29.88 210.80 31.25Q211.42 32.62 212.52 33.22Q213.62 33.82 215.09 33.82ZM235.15 34.73L235.15 34.73Q233.42 34.73 232.14 33.97Q230.86 33.22 230.15 31.64Q229.44 30.07 229.44 27.70L229.44 27.70Q229.44 25.70 229.85 23.62Q230.26 21.53 231.02 19.54Q231.79 17.54 232.88 15.80Q233.98 14.06 235.37 12.74Q236.76 11.42 238.42 10.67Q240.07 9.91 241.97 9.91L241.97 9.91Q243.67 9.91 244.93 10.67Q246.19 11.42 246.89 12.97Q247.58 14.52 247.58 16.94L247.58 16.94Q247.58 18.91 247.19 21.01Q246.79 23.11 246.04 25.10Q245.28 27.10 244.19 28.82Q243.10 30.55 241.72 31.88Q240.34 33.22 238.68 33.97Q237.02 34.73 235.15 34.73ZM235.37 33.82L235.37 33.82Q236.98 33.82 238.43 33.10Q239.88 32.38 241.14 31.12Q242.40 29.86 243.41 28.21Q244.42 26.57 245.12 24.68Q245.83 22.80 246.22 20.87Q246.60 18.94 246.60 17.06L246.60 17.06Q246.60 14.76 246 13.39Q245.40 12.02 244.30 11.41Q243.19 10.80 241.73 10.80L241.73 10.80Q240.14 10.80 238.68 11.52Q237.22 12.24 235.96 13.49Q234.70 14.74 233.68 16.39Q232.66 18.05 231.95 19.92Q231.24 21.79 230.86 23.76Q230.47 25.73 230.47 27.60L230.47 27.60Q230.47 29.88 231.08 31.25Q231.70 32.62 232.80 33.22Q233.90 33.82 235.37 33.82ZM255.67 34.63L255.67 34.63Q255.46 34.63 255.34 34.54Q255.22 34.44 255.26 34.27L255.26 34.27L258.26 25.10Q258.67 23.83 258.49 23.27Q258.31 22.70 257.54 22.70L257.54 22.70Q256.99 22.70 256.46 23.06Q255.94 23.42 255.41 24.13Q254.88 24.84 254.35 25.85L254.35 25.85Q254.26 25.99 254.16 26.05Q254.06 26.11 253.85 26.06L253.85 26.06Q253.63 26.02 253.56 25.87Q253.49 25.73 253.58 25.56L253.58 25.56Q254.14 24.43 254.77 23.60Q255.41 22.78 256.13 22.33Q256.85 21.89 257.69 21.89L257.69 21.89Q258.22 21.89 258.60 22.06Q258.98 22.22 259.21 22.56Q259.44 22.90 259.49 23.38Q259.54 23.86 259.37 24.48L259.37 24.48L259.01 25.66Q259.75 24.48 260.53 23.75Q261.31 23.02 262.08 22.58Q262.85 22.15 263.54 21.98Q264.24 21.82 264.79 21.82L264.79 21.82Q265.90 21.82 266.64 22.28Q267.38 22.75 267.61 23.77Q267.84 24.79 267.31 26.40L267.31 26.40L265.61 31.56Q265.37 32.38 265.36 32.88Q265.34 33.38 265.57 33.62Q265.80 33.86 266.18 33.86L266.18 33.86Q266.62 33.86 267.04 33.61Q267.46 33.36 267.84 32.96Q268.22 32.57 268.46 32.18L268.46 32.18Q268.54 32.02 268.67 31.94Q268.80 31.87 269.02 31.99L269.02 31.99Q269.18 32.11 269.21 32.23Q269.23 32.35 269.14 32.54L269.14 32.54Q268.82 33 268.39 33.50Q267.96 34.01 267.37 34.33Q266.78 34.66 266.06 34.66L266.06 34.66Q265.56 34.66 265.18 34.48Q264.79 34.30 264.60 33.92Q264.41 33.55 264.43 32.93Q264.46 32.30 264.74 31.42L264.74 31.42L266.50 26.16Q266.86 25.06 266.78 24.28Q266.71 23.50 266.20 23.08Q265.68 22.66 264.67 22.66L264.67 22.66Q263.95 22.66 263.12 22.92Q262.30 23.18 261.46 23.83Q260.62 24.48 259.79 25.57Q258.96 26.66 258.19 28.30L258.19 28.30L256.22 34.27Q256.18 34.46 256.07 34.55Q255.96 34.63 255.67 34.63ZM275.45 34.73L275.45 34.73Q274.18 34.73 273.30 34.18Q272.42 33.62 271.98 32.63Q271.54 31.63 271.54 30.34L271.54 30.34Q271.54 28.99 271.99 27.50Q272.45 26.02 273.37 24.72Q274.30 23.42 275.66 22.62Q277.03 21.82 278.86 21.82L278.86 21.82Q280.10 21.82 280.96 22.34Q281.81 22.87 282.26 23.82Q282.72 24.77 282.72 26.04L282.72 26.04Q282.72 27.05 282.44 28.21Q282.17 29.38 281.60 30.53Q281.04 31.68 280.16 32.63Q279.29 33.58 278.11 34.15Q276.94 34.73 275.45 34.73ZM275.54 33.89L275.54 33.89Q277.10 33.89 278.27 33.12Q279.43 32.35 280.20 31.14Q280.97 29.93 281.35 28.58Q281.74 27.24 281.74 26.09L281.74 26.09Q281.74 25.06 281.40 24.29Q281.06 23.52 280.38 23.09Q279.70 22.66 278.69 22.66L278.69 22.66Q277.20 22.66 276.05 23.40Q274.90 24.14 274.10 25.33Q273.31 26.52 272.90 27.85Q272.50 29.18 272.50 30.34L272.50 30.34Q272.50 31.39 272.84 32.20Q273.19 33 273.88 33.44Q274.56 33.89 275.54 33.89ZM285.89 34.63L285.89 34.63Q285.67 34.63 285.55 34.54Q285.43 34.44 285.48 34.27L285.48 34.27L288.48 25.10Q288.89 23.83 288.71 23.27Q288.53 22.70 287.76 22.70L287.76 22.70Q287.21 22.70 286.68 23.06Q286.15 23.42 285.62 24.13Q285.10 24.84 284.57 25.85L284.57 25.85Q284.47 25.99 284.38 26.05Q284.28 26.11 284.06 26.06L284.06 26.06Q283.85 26.02 283.78 25.87Q283.70 25.73 283.80 25.56L283.80 25.56Q284.35 24.43 284.99 23.60Q285.62 22.78 286.34 22.33Q287.06 21.89 287.90 21.89L287.90 21.89Q288.41 21.89 288.78 22.03Q289.15 22.18 289.37 22.48Q289.58 22.78 289.67 23.22Q289.75 23.66 289.63 24.26L289.63 24.26L289.30 25.34Q289.94 24.24 290.51 23.56Q291.07 22.87 291.59 22.49Q292.10 22.10 292.54 21.96Q292.97 21.82 293.33 21.82L293.33 21.82Q293.57 21.82 293.71 21.91Q293.86 22.01 293.86 22.20L293.86 22.20Q293.86 23.21 294.01 23.76Q294.17 24.31 294.48 24.54Q294.79 24.77 295.22 24.77L295.22 24.77Q295.85 24.77 296.63 24.48Q297.41 24.19 298.61 23.38L298.61 23.38Q298.75 23.28 298.88 23.33Q299.02 23.38 299.09 23.50Q299.16 23.62 299.15 23.76Q299.14 23.90 299.02 24L299.02 24Q297.86 24.77 296.90 25.13Q295.94 25.49 295.20 25.49L295.20 25.49Q294.58 25.49 294.10 25.22Q293.62 24.96 293.36 24.34Q293.11 23.71 293.11 22.63L293.11 22.63Q292.63 22.66 292.09 22.99Q291.55 23.33 290.96 24Q290.38 24.67 289.75 25.69Q289.13 26.71 288.48 28.06L288.48 28.06L286.44 34.27Q286.39 34.46 286.28 34.55Q286.18 34.63 285.89 34.63ZM299.11 34.63L299.11 34.63Q298.87 34.63 298.76 34.54Q298.66 34.44 298.70 34.25L298.70 34.25L301.70 25.10Q302.11 23.83 301.93 23.27Q301.75 22.70 300.98 22.70L300.98 22.70Q300.43 22.70 299.90 23.06Q299.38 23.42 298.85 24.13Q298.32 24.84 297.79 25.85L297.79 25.85Q297.70 25.99 297.60 26.05Q297.50 26.11 297.29 26.06L297.29 26.06Q297.07 26.02 297 25.87Q296.93 25.73 297.02 25.56L297.02 25.56Q297.58 24.43 298.21 23.60Q298.85 22.78 299.57 22.33Q300.29 21.89 301.13 21.89L301.13 21.89Q301.63 21.89 302.00 22.03Q302.38 22.18 302.62 22.50Q302.86 22.82 302.92 23.33Q302.98 23.83 302.81 24.48L302.81 24.48L302.47 25.56Q303.19 24.43 303.96 23.70Q304.73 22.97 305.46 22.56Q306.19 22.15 306.84 21.98Q307.49 21.82 308.02 21.82L308.02 21.82Q309.07 21.82 309.82 22.30Q310.56 22.78 310.74 23.77Q310.92 24.77 310.39 26.40L310.39 26.40L307.80 34.27Q307.73 34.46 307.62 34.55Q307.51 34.63 307.25 34.63L307.25 34.63Q307.03 34.63 306.91 34.54Q306.79 34.44 306.86 34.27L306.86 34.27L309.53 26.16Q309.91 25.08 309.86 24.29Q309.82 23.50 309.34 23.08Q308.86 22.66 307.90 22.66L307.90 22.66Q307.20 22.66 306.42 22.92Q305.64 23.18 304.84 23.83Q304.03 24.48 303.22 25.55Q302.40 26.62 301.63 28.22L301.63 28.22L299.66 34.27Q299.62 34.46 299.50 34.55Q299.38 34.63 299.11 34.63ZM317.16 34.66L317.16 34.66Q316.63 34.66 316.25 34.48Q315.86 34.30 315.67 33.92Q315.48 33.55 315.52 32.93Q315.55 32.30 315.82 31.42L315.82 31.42L317.54 26.16Q317.93 25.08 317.87 24.29Q317.81 23.50 317.35 23.08Q316.90 22.66 315.96 22.66L315.96 22.66Q315.29 22.66 314.51 22.93Q313.73 23.21 312.91 23.86Q312.10 24.50 311.28 25.62Q310.46 26.74 309.70 28.42L309.70 28.42L309.24 28.42Q309.98 26.45 310.90 25.18Q311.81 23.90 312.76 23.16Q313.70 22.42 314.58 22.12Q315.46 21.82 316.08 21.82L316.08 21.82Q317.16 21.82 317.86 22.30Q318.55 22.78 318.74 23.77Q318.94 24.77 318.41 26.40L318.41 26.40L316.70 31.56Q316.44 32.38 316.43 32.88Q316.42 33.38 316.64 33.62Q316.87 33.86 317.23 33.86L317.23 33.86Q317.66 33.86 318.10 33.61Q318.53 33.36 318.91 32.96Q319.30 32.57 319.54 32.18L319.54 32.18Q319.61 32.02 319.74 31.94Q319.87 31.87 320.09 31.99L320.09 31.99Q320.28 32.11 320.29 32.24Q320.30 32.38 320.21 32.54L320.21 32.54Q319.92 33.02 319.46 33.52Q319.01 34.01 318.43 34.33Q317.86 34.66 317.16 34.66ZM325.68 34.68L325.68 34.68Q324.70 34.68 323.96 34.20Q323.23 33.72 322.86 32.83Q322.49 31.94 322.49 30.77L322.49 30.77Q322.49 29.66 322.79 28.43Q323.09 27.19 323.71 26.02Q324.34 24.84 325.27 23.89Q326.21 22.94 327.44 22.38Q328.68 21.82 330.24 21.82L330.24 21.82Q331.03 21.82 331.91 22.08Q332.78 22.34 333.48 22.85L333.48 22.85L333.67 22.27Q333.77 22.08 333.89 22.00Q334.01 21.91 334.22 21.91L334.22 21.91Q334.51 21.91 334.57 22.07Q334.63 22.22 334.58 22.42L334.58 22.42L331.56 31.66Q331.32 32.42 331.34 32.90Q331.37 33.38 331.61 33.62Q331.85 33.86 332.23 33.86L332.23 33.86Q332.66 33.86 333.07 33.62Q333.48 33.38 333.83 33Q334.18 32.62 334.44 32.18L334.44 32.18Q334.51 32.02 334.66 31.96Q334.80 31.90 335.02 32.02L335.02 32.02Q335.21 32.11 335.23 32.26Q335.26 32.40 335.14 32.57L335.14 32.57Q334.85 33.05 334.42 33.54Q333.98 34.03 333.41 34.34Q332.83 34.66 332.09 34.66L332.09 34.66Q331.66 34.66 331.32 34.51Q330.98 34.37 330.77 34.09Q330.55 33.82 330.48 33.40Q330.41 32.98 330.48 32.42L330.48 32.42Q330.55 32.11 330.65 31.80Q330.74 31.49 330.84 31.18L330.84 31.18Q329.90 32.50 328.97 33.28Q328.03 34.06 327.19 34.37Q326.35 34.68 325.68 34.68ZM323.50 30.72L323.50 30.72Q323.50 31.66 323.74 32.35Q323.98 33.05 324.50 33.44Q325.03 33.84 325.85 33.84L325.85 33.84Q326.71 33.84 327.68 33.30Q328.66 32.76 329.66 31.60Q330.67 30.43 331.68 28.56L331.68 28.56L333.22 23.66Q332.30 23.04 331.55 22.84Q330.79 22.63 330.10 22.63L330.10 22.63Q328.78 22.63 327.70 23.15Q326.62 23.66 325.84 24.53Q325.06 25.39 324.53 26.45Q324 27.50 323.75 28.62Q323.50 29.74 323.50 30.72ZM332.50 34.68L332.50 34.68Q332.35 34.68 332.29 34.55Q332.23 34.42 332.27 34.26Q332.30 34.10 332.44 33.97Q332.57 33.84 332.78 33.84L332.78 33.84Q333.55 33.84 334.55 33.28Q335.54 32.71 336.68 31.70Q337.82 30.70 339.01 29.38Q340.20 28.06 341.38 26.51Q342.55 24.96 343.64 23.32Q344.74 21.67 345.66 20.04Q346.58 18.41 347.28 16.92Q347.98 15.43 348.36 14.17Q348.74 12.91 348.74 12.05L348.74 12.05Q348.74 11.83 348.88 11.71Q349.01 11.59 349.20 11.59Q349.39 11.59 349.52 11.71Q349.66 11.83 349.66 12.05L349.66 12.05Q349.66 12.98 349.26 14.28Q348.86 15.58 348.14 17.14Q347.42 18.70 346.45 20.38Q345.48 22.06 344.34 23.76Q343.20 25.46 341.95 27.07Q340.70 28.68 339.42 30.05Q338.14 31.42 336.90 32.47Q335.66 33.53 334.54 34.10Q333.41 34.68 332.50 34.68ZM339.91 34.66L339.91 34.66Q339.38 34.66 339 34.48Q338.62 34.30 338.41 33.91Q338.21 33.53 338.21 32.90Q338.21 32.28 338.47 31.44L338.47 31.44L344.18 13.92Q344.88 11.78 345.70 10.80Q346.51 9.82 347.64 9.82L347.64 9.82Q348.29 9.82 348.73 10.09Q349.18 10.37 349.42 10.86Q349.66 11.35 349.66 12.05L349.66 12.05Q349.66 12.26 349.52 12.38Q349.39 12.50 349.20 12.50Q349.01 12.50 348.88 12.38Q348.74 12.26 348.74 12.05L348.74 12.05Q348.74 11.59 348.60 11.28Q348.46 10.97 348.20 10.81Q347.95 10.66 347.54 10.66L347.54 10.66Q347.06 10.66 346.62 11.03Q346.18 11.40 345.79 12.17Q345.41 12.94 345 14.21L345 14.21L339.43 31.56Q339.19 32.35 339.18 32.86Q339.17 33.36 339.41 33.61Q339.65 33.86 340.01 33.86L340.01 33.86Q340.46 33.86 340.88 33.61Q341.30 33.36 341.69 32.96Q342.07 32.57 342.31 32.18L342.31 32.18Q342.38 32.02 342.52 31.94Q342.65 31.87 342.84 31.99L342.84 31.99Q343.03 32.11 343.06 32.23Q343.08 32.35 342.98 32.54L342.98 32.54Q342.67 33.02 342.23 33.52Q341.78 34.01 341.21 34.33Q340.63 34.66 339.91 34.66Z"/></svg>