<svg xmlns="http://www.w3.org/2000/svg" xmlns:xlink="http://www.w3.org/1999/xlink" width="275.6484375" height="43.359375"><path fill="black" d="M8.65 29.30L8.65 29.30L0.89 29.30L0.89 28.28L2.80 28.13L2.80 13.42L0.89 13.27L0.89 12.23L7.72 12.23Q10.38 12.23 11.87 13.35Q13.36 14.47 13.36 16.72L13.36 16.72Q13.36 18.06 12.60 19.04Q11.85 20.02 10.52 20.36L10.52 20.36Q11.58 20.53 12.39 21.13L12.39 21.13Q13.18 21.73 13.63 22.61Q14.09 23.50 14.09 24.54L14.09 24.54Q14.09 26.84 12.60 28.07Q11.12 29.30 8.65 29.30ZM7.72 13.42L7.72 13.42L4.21 13.42L4.21 19.89L8.13 19.89Q9.96 19.89 10.95 19.07Q11.94 18.25 11.94 16.68L11.94 16.68Q11.94 13.42 7.72 13.42ZM8.87 21.07L8.87 21.07L4.21 21.07L4.21 28.13L8.65 28.13Q10.54 28.13 11.61 27.19Q12.68 26.25 12.68 24.56L12.68 24.56Q12.68 23.53 12.25 22.75L12.25 22.75Q11.81 21.95 10.96 21.51Q10.10 21.07 8.87 21.07ZM19.95 29.54L19.95 29.54Q18.14 29.54 17.12 28.58Q16.10 27.62 16.10 25.98L16.10 25.98Q16.10 24.81 16.78 23.92L16.78 23.92Q17.46 23.04 18.71 22.55Q19.96 22.05 21.67 22.05L21.67 22.05L24.29 22.05L24.29 20.60Q24.29 19.23 23.48 18.39Q22.66 17.55 21.02 17.55L21.02 17.55Q20.10 17.55 19.37 17.85Q18.63 18.15 18.09 18.61L18.09 18.61L17.98 20.54L16.82 20.54L16.82 17.89Q17.64 17.19 18.68 16.79Q19.72 16.38 21.05 16.38L21.05 16.38Q23.29 16.38 24.49 17.51Q25.70 18.63 25.70 20.63L25.70 20.63L25.70 26.74Q25.70 27.12 25.72 27.49Q25.75 27.86 25.80 28.22L25.80 28.22L27.32 28.28L27.32 29.30L24.55 29.30Q24.41 28.61 24.36 28.18Q24.30 27.76 24.29 27.23L24.29 27.23Q23.60 28.25 22.46 28.90Q21.33 29.54 19.95 29.54ZM20.11 28.31L20.11 28.31Q21.41 28.31 22.58 27.63Q23.74 26.94 24.29 25.80L24.29 25.80L24.29 23.13L21.66 23.13Q19.71 23.13 18.61 23.97Q17.51 24.81 17.51 26.03L17.51 26.03Q17.51 27.05 18.21 27.68Q18.91 28.31 20.11 28.31ZM33.73 29.52L33.73 29.52Q32.39 29.52 31.65 28.69Q30.91 27.87 30.91 26.03L30.91 26.03L30.91 17.75L28.72 17.75L28.72 16.62L30.91 16.62L30.91 13.36L32.32 13.36L32.32 16.62L35.27 16.62L35.27 17.75L32.32 17.75L32.32 26.03Q32.32 27.29 32.77 27.85Q33.22 28.41 33.97 28.41L33.97 28.41Q34.37 28.41 34.76 28.35Q35.14 28.30 35.55 28.24L35.55 28.24L35.77 29.25Q35.34 29.38 34.80 29.45Q34.27 29.52 33.73 29.52ZM42.21 29.52L42.21 29.52Q40.88 29.52 40.14 28.69Q39.40 27.87 39.40 26.03L39.40 26.03L39.40 17.75L37.21 17.75L37.21 16.62L39.40 16.62L39.40 13.36L40.80 13.36L40.80 16.62L43.76 16.62L43.76 17.75L40.80 17.75L40.80 26.03Q40.80 27.29 41.26 27.85Q41.71 28.41 42.46 28.41L42.46 28.41Q42.86 28.41 43.24 28.35Q43.63 28.30 44.04 28.24L44.04 28.24L44.25 29.25Q43.83 29.38 43.29 29.45Q42.75 29.52 42.21 29.52ZM50.07 29.54L50.07 29.54Q48.27 29.54 47.25 28.58Q46.23 27.62 46.23 25.98L46.23 25.98Q46.23 24.81 46.91 23.92L46.91 23.92Q47.59 23.04 48.84 22.55Q50.09 22.05 51.80 22.05L51.80 22.05L54.42 22.05L54.42 20.60Q54.42 19.23 53.61 18.39Q52.79 17.55 51.15 17.55L51.15 17.55Q50.23 17.55 49.49 17.85Q48.76 18.15 48.22 18.61L48.22 18.61L48.11 20.54L46.95 20.54L46.95 17.89Q47.77 17.19 48.81 16.79Q49.85 16.38 51.18 16.38L51.18 16.38Q53.41 16.38 54.62 17.51Q55.83 18.63 55.83 20.63L55.83 20.63L55.83 26.74Q55.83 27.12 55.85 27.49Q55.88 27.86 55.93 28.22L55.93 28.22L57.45 28.28L57.45 29.30L54.68 29.30Q54.54 28.61 54.49 28.18Q54.43 27.76 54.42 27.23L54.42 27.23Q53.73 28.25 52.59 28.90Q51.46 29.54 50.07 29.54ZM50.24 28.31L50.24 28.31Q51.54 28.31 52.71 27.63Q53.87 26.94 54.42 25.80L54.42 25.80L54.42 23.13L51.79 23.13Q49.84 23.13 48.74 23.97Q47.64 24.81 47.64 26.03L47.64 26.03Q47.64 27.05 48.34 27.68Q49.04 28.31 50.24 28.31ZM62.60 28.13L64.51 28.28L64.51 29.30L59.27 29.30L59.27 28.28L61.18 28.13L61.18 17.80L59.27 17.65L59.27 16.62L62.44 16.62L62.55 18.79Q63.14 17.65 64.17 17.02Q65.19 16.38 66.61 16.38L66.61 16.38Q69.61 16.38 70.44 19.31L70.44 19.31Q70.98 17.94 72.05 17.16Q73.13 16.37 74.65 16.37L74.65 16.37Q76.68 16.37 77.78 17.72Q78.89 19.08 78.89 21.90L78.89 21.90L78.89 28.11L80.80 28.27L80.80 29.29L75.56 29.29L75.56 28.27L77.47 28.11L77.47 21.88Q77.47 19.52 76.65 18.55Q75.82 17.58 74.36 17.58L74.36 17.58Q72.70 17.58 71.81 18.63Q70.92 19.68 70.75 21.28L70.75 21.28L70.75 28.13L72.66 28.28L72.66 29.30L67.42 29.30L67.42 28.28L69.33 28.13L69.33 21.88Q69.33 19.57 68.49 18.58Q67.65 17.59 66.19 17.59L66.19 17.59Q64.64 17.59 63.78 18.41Q62.92 19.23 62.60 20.59L62.60 20.59L62.60 28.13ZM88.66 29.54L88.66 29.54Q87.27 29.54 86.26 28.99Q85.24 28.44 84.62 27.46L84.62 27.46L84.48 29.30L83.27 29.30L83.27 12.20L81.36 12.05L81.36 11.02L84.68 11.02L84.68 18.55Q85.30 17.53 86.29 16.96Q87.28 16.38 88.64 16.38L88.64 16.38Q90.18 16.38 91.25 17.20L91.25 17.20Q93.50 18.91 93.50 23.06L93.50 23.06L93.50 23.31Q93.50 25.23 92.93 26.60L92.93 26.60Q92.36 28.00 91.27 28.77Q90.18 29.54 88.66 29.54ZM88.39 28.34L88.39 28.34Q90.22 28.34 91.15 26.97Q92.09 25.61 92.09 23.31L92.09 23.31L92.09 23.06Q92.09 21.46 91.68 20.20L91.68 20.20Q91.25 18.97 90.43 18.28Q89.60 17.59 88.37 17.59L88.37 17.59Q86.88 17.59 86.00 18.33Q85.11 19.08 84.68 20.21L84.68 20.21L84.68 25.93Q85.13 27.04 86.06 27.69Q87 28.34 88.39 28.34ZM99.48 29.54L99.48 29.54Q97.68 29.54 96.66 28.58Q95.64 27.62 95.64 25.98L95.64 25.98Q95.64 24.81 96.32 23.92L96.32 23.92Q97.00 23.04 98.24 22.55Q99.49 22.05 101.20 22.05L101.20 22.05L103.83 22.05L103.83 20.60Q103.83 19.23 103.01 18.39Q102.20 17.55 100.56 17.55L100.56 17.55Q99.63 17.55 98.90 17.85Q98.17 18.15 97.63 18.61L97.63 18.61L97.51 20.54L96.35 20.54L96.35 17.89Q97.17 17.19 98.21 16.79Q99.26 16.38 100.58 16.38L100.58 16.38Q102.82 16.38 104.03 17.51Q105.23 18.63 105.23 20.63L105.23 20.63L105.23 26.74Q105.23 27.12 105.26 27.49Q105.28 27.86 105.34 28.22L105.34 28.22L106.85 28.28L106.85 29.30L104.09 29.30Q103.95 28.61 103.89 28.18Q103.84 27.76 103.83 27.23L103.83 27.23Q103.14 28.25 102 28.90Q100.86 29.54 99.48 29.54ZM99.64 28.31L99.64 28.31Q100.95 28.31 102.11 27.63Q103.28 26.94 103.83 25.80L103.83 25.80L103.83 23.13L101.19 23.13Q99.25 23.13 98.14 23.97Q97.04 24.81 97.04 26.03L97.04 26.03Q97.04 27.05 97.75 27.68Q98.45 28.31 99.64 28.31ZM112.00 28.13L113.91 28.28L113.91 29.30L108.68 29.30L108.68 28.28L110.59 28.13L110.59 17.80L108.68 17.65L108.68 16.62L111.83 16.62L111.95 18.89Q112.56 17.70 113.59 17.04Q114.62 16.38 116.05 16.38L116.05 16.38Q118.11 16.38 119.19 17.64Q120.27 18.90 120.27 21.59L120.27 21.59L120.27 28.13L122.18 28.28L122.18 29.30L116.95 29.30L116.95 28.28L118.86 28.13L118.86 21.60Q118.86 19.39 118.05 18.49Q117.25 17.59 115.75 17.59L115.75 17.59Q114.18 17.59 113.26 18.47Q112.35 19.35 112.00 20.77L112.00 20.77L112.00 28.13ZM133.42 16.62L136.23 16.62L136.23 17.64L134.60 17.80L134.60 29.13Q134.60 30.75 134.02 31.95L134.02 31.95Q133.42 33.13 132.29 33.77Q131.17 34.42 129.60 34.42L129.60 34.42Q128.67 34.42 127.64 34.20Q126.61 33.97 125.84 33.60L125.84 33.60L126.21 32.43Q126.96 32.79 127.80 32.99Q128.64 33.19 129.57 33.19L129.57 33.19Q131.38 33.19 132.29 32.12Q133.20 31.04 133.20 29.13L133.20 29.13L133.20 27.59Q132.56 28.51 131.57 29.03Q130.58 29.54 129.27 29.54L129.27 29.54Q127.75 29.54 126.66 28.77L126.66 28.77Q125.57 28.00 124.98 26.60Q124.39 25.20 124.39 23.31L124.39 23.31L124.39 23.06Q124.39 21.05 124.98 19.54L124.98 19.54Q125.57 18.04 126.66 17.21Q127.76 16.38 129.29 16.38L129.29 16.38Q130.65 16.38 131.65 16.97Q132.64 17.55 133.27 18.61L133.27 18.61L133.42 16.62ZM133.20 25.97L133.20 25.97L133.20 20.17Q132.75 19.05 131.88 18.32Q131.02 17.59 129.55 17.59L129.55 17.59Q128.32 17.59 127.49 18.28L127.49 18.28Q126.66 18.98 126.23 20.21Q125.81 21.45 125.81 23.06L125.81 23.06L125.81 23.31Q125.81 25.61 126.74 26.97Q127.68 28.34 129.53 28.34L129.53 28.34Q130.91 28.34 131.82 27.70Q132.73 27.07 133.20 25.97ZM151.34 29.54L151.34 29.54Q149.82 29.54 148.59 28.97L148.59 28.97Q147.35 28.39 146.63 27.32Q145.91 26.25 145.95 24.74L145.95 24.74L145.97 24.67L147.28 24.67Q147.28 25.76 147.80 26.59L147.80 26.59Q148.31 27.43 149.23 27.90Q150.14 28.37 151.34 28.37L151.34 28.37Q153.14 28.37 154.16 27.42Q155.18 26.46 155.18 24.71L155.18 24.71Q155.18 22.91 154.11 22.05Q153.05 21.19 151.08 21.19L151.08 21.19L149.45 21.19L149.45 20.00L151.08 20.00Q152.33 20.00 153.16 19.57L153.16 19.57Q154.85 18.71 154.85 16.68L154.85 16.68Q154.85 15.07 153.95 14.12Q153.05 13.17 151.28 13.17L151.28 13.17Q150.16 13.17 149.33 13.61L149.33 13.61Q148.49 14.04 148.01 14.84Q147.53 15.63 147.53 16.70L147.53 16.70L146.21 16.70L146.19 16.63Q146.16 15.30 146.81 14.24L146.81 14.24Q147.47 13.20 148.63 12.59Q149.79 11.99 151.28 11.99L151.28 11.99Q153.55 11.99 154.90 13.24Q156.26 14.50 156.26 16.72L156.26 16.72Q156.26 17.93 155.51 18.99Q154.76 20.05 153.39 20.55L153.39 20.55Q154.99 21.01 155.79 22.09Q156.59 23.17 156.59 24.67L156.59 24.67Q156.59 26.19 155.92 27.28L155.92 27.28Q155.25 28.37 154.06 28.96Q152.87 29.54 151.34 29.54ZM164.72 29.54L164.72 29.54Q162.22 29.54 160.81 27.76Q159.40 25.97 159.40 22.68L159.40 22.68L159.40 18.87Q159.40 15.56 160.80 13.78Q162.20 11.99 164.70 11.99L164.70 11.99Q167.19 11.99 168.60 13.78Q170.00 15.56 170.00 18.87L170.00 18.87L170.00 22.68Q170.00 25.98 168.61 27.76Q167.21 29.54 164.72 29.54ZM164.72 28.37L164.72 28.37Q166.62 28.37 167.61 26.94Q168.60 25.50 168.60 22.88L168.60 22.88L168.60 18.63Q168.60 16.01 167.60 14.59Q166.61 13.17 164.70 13.17L164.70 13.17Q162.80 13.17 161.80 14.59Q160.80 16.01 160.80 18.63L160.80 18.63L160.80 22.88Q160.80 25.49 161.81 26.93Q162.82 28.37 164.72 28.37ZM178.29 29.54L178.29 29.54Q175.79 29.54 174.38 27.76Q172.97 25.97 172.97 22.68L172.97 22.68L172.97 18.87Q172.97 15.56 174.37 13.78Q175.77 11.99 178.27 11.99L178.27 11.99Q180.76 11.99 182.17 13.78Q183.57 15.56 183.57 18.87L183.57 18.87L183.57 22.68Q183.57 25.98 182.18 27.76Q180.79 29.54 178.29 29.54ZM178.29 28.37L178.29 28.37Q180.19 28.37 181.18 26.94Q182.17 25.50 182.17 22.88L182.17 22.88L182.17 18.63Q182.17 16.01 181.17 14.59Q180.18 13.17 178.27 13.17L178.27 13.17Q176.37 13.17 175.37 14.59Q174.38 16.01 174.38 18.63L174.38 18.63L174.38 22.88Q174.38 25.49 175.38 26.93Q176.39 28.37 178.29 28.37ZM197.60 28.13L199.51 28.28L199.51 29.30L194.29 29.30L194.29 28.28L196.20 28.13L196.20 17.80L194.29 17.65L194.29 16.62L197.44 16.62L197.55 18.89Q198.16 17.70 199.20 17.04Q200.23 16.38 201.66 16.38L201.66 16.38Q203.72 16.38 204.80 17.64Q205.88 18.90 205.88 21.59L205.88 21.59L205.88 28.13L207.79 28.28L207.79 29.30L202.56 29.30L202.56 28.28L204.47 28.13L204.47 21.60Q204.47 19.39 203.66 18.49Q202.85 17.59 201.35 17.59L201.35 17.59Q199.78 17.59 198.87 18.47Q197.95 19.35 197.60 20.77L197.60 20.77L197.60 28.13ZM215.63 29.54L215.63 29.54Q213.90 29.54 212.66 28.72L212.66 28.72Q211.39 27.91 210.70 26.47Q210 25.02 210 23.16L210 23.16L210 22.77Q210 20.91 210.70 19.46L210.70 19.46Q211.39 18.02 212.65 17.20Q213.91 16.38 215.60 16.38L215.60 16.38Q217.31 16.38 218.57 17.20L218.57 17.20Q219.82 18.02 220.52 19.46Q221.21 20.89 221.21 22.77L221.21 22.77L221.21 23.16Q221.21 25.02 220.52 26.47L220.52 26.47Q219.82 27.91 218.56 28.73Q217.30 29.54 215.63 29.54ZM215.63 28.37L215.63 28.37Q216.93 28.37 217.86 27.68L217.86 27.68Q218.80 26.99 219.30 25.80Q219.81 24.62 219.81 23.16L219.81 23.16L219.81 22.77Q219.81 21.29 219.30 20.13L219.30 20.13Q218.80 18.95 217.86 18.26Q216.91 17.57 215.60 17.57L215.60 17.57Q214.29 17.57 213.35 18.26L213.35 18.26Q212.40 18.95 211.90 20.13Q211.41 21.32 211.41 22.77L211.41 22.77L211.41 23.16Q211.41 24.64 211.91 25.80L211.91 25.80Q212.40 26.98 213.35 27.67Q214.29 28.37 215.63 28.37ZM226.56 28.13L228.47 28.28L228.47 29.30L223.24 29.30L223.24 28.28L225.15 28.13L225.15 17.80L223.24 17.65L223.24 16.62L226.38 16.62L226.54 18.55L226.55 18.89Q227.09 17.71 228.01 17.04Q228.94 16.38 230.23 16.38L230.23 16.38Q230.98 16.38 231.42 16.55L231.42 16.55L231.25 17.84L229.95 17.75Q228.60 17.72 227.74 18.53Q226.89 19.34 226.56 20.67L226.56 20.67L226.56 28.13ZM236.39 28.13L238.30 28.28L238.30 29.30L233.06 29.30L233.06 28.28L234.97 28.13L234.97 17.80L233.06 17.65L233.06 16.62L236.23 16.62L236.34 18.79Q236.93 17.65 237.96 17.02Q238.98 16.38 240.40 16.38L240.40 16.38Q243.40 16.38 244.23 19.31L244.23 19.31Q244.77 17.94 245.84 17.16Q246.91 16.37 248.44 16.37L248.44 16.37Q250.46 16.37 251.57 17.72Q252.68 19.08 252.68 21.90L252.68 21.90L252.68 28.11L254.59 28.27L254.59 29.29L249.35 29.29L249.35 28.27L251.26 28.11L251.26 21.88Q251.26 19.52 250.44 18.55Q249.61 17.58 248.14 17.58L248.14 17.58Q246.49 17.58 245.60 18.63Q244.71 19.68 244.54 21.28L244.54 21.28L244.54 28.13L246.45 28.28L246.45 29.30L241.21 29.30L241.21 28.28L243.12 28.13L243.12 21.88Q243.12 19.57 242.28 18.58Q241.44 17.59 239.98 17.59L239.98 17.59Q238.43 17.59 237.57 18.41Q236.71 19.23 236.39 20.59L236.39 20.59L236.39 28.13ZM260.21 29.54L260.21 29.54Q258.41 29.54 257.39 28.58Q256.37 27.62 256.37 25.98L256.37 25.98Q256.37 24.81 257.05 23.92L257.05 23.92Q257.73 23.04 258.98 22.55Q260.23 22.05 261.94 22.05L261.94 22.05L264.56 22.05L264.56 20.60Q264.56 19.23 263.75 18.39Q262.93 17.55 261.29 17.55L261.29 17.55Q260.37 17.55 259.63 17.85Q258.90 18.15 258.36 18.61L258.36 18.61L258.25 20.54L257.09 20.54L257.09 17.89Q257.91 17.19 258.95 16.79Q259.99 16.38 261.32 16.38L261.32 16.38Q263.55 16.38 264.76 17.51Q265.97 18.63 265.97 20.63L265.97 20.63L265.97 26.74Q265.97 27.12 265.99 27.49Q266.02 27.86 266.07 28.22L266.07 28.22L267.59 28.28L267.59 29.30L264.82 29.30Q264.68 28.61 264.63 28.18Q264.57 27.76 264.56 27.23L264.56 27.23Q263.87 28.25 262.73 28.90Q261.60 29.54 260.21 29.54ZM260.38 28.31L260.38 28.31Q261.68 28.31 262.85 27.63Q264.01 26.94 264.56 25.80L264.56 25.80L264.56 23.13L261.93 23.13Q259.98 23.13 258.88 23.97Q257.78 24.81 257.78 26.03L257.78 26.03Q257.78 27.05 258.48 27.68Q259.18 28.31 260.38 28.31ZM272.64 28.13L274.55 28.28L274.55 29.30L269.32 29.30L269.32 28.28L271.23 28.13L271.23 12.20L269.32 12.05L269.32 11.02L272.64 11.02L272.64 28.13Z"/></svg>