<svg xmlns="http://www.w3.org/2000/svg" xmlns:xlink="http://www.w3.org/1999/xlink" width="170.99999999999997" height="36.528"><path fill="black" d="M4.61 25.66L4.61 25.66Q3.34 25.66 2.46 25.37Q1.58 25.08 0.72 24.55L0.72 24.55L1.18 21.10L1.56 21.10L2.06 23.95Q2.50 24.41 3.34 24.68Q4.18 24.96 5.02 24.96L5.02 24.96Q6.72 24.96 7.68 23.95Q8.64 22.94 8.64 21.34L8.64 21.34Q8.64 20.42 8.23 19.80Q7.82 19.18 7.09 18.66Q6.36 18.14 5.38 17.50L5.38 17.50Q3.91 16.54 3.30 15.73Q2.69 14.93 2.69 13.75L2.69 13.75Q2.69 12.67 3.31 11.65Q3.94 10.63 4.97 9.98Q6 9.34 7.27 9.34L7.27 9.34Q8.23 9.34 9.08 9.60Q9.94 9.86 10.70 10.34L10.70 10.34L10.27 13.70L9.89 13.70L9.50 11.06Q9.19 10.68 8.58 10.36Q7.97 10.03 7.13 10.03L7.13 10.03Q5.62 10.03 4.70 10.84Q3.79 11.64 3.79 13.06L3.79 13.06Q3.79 13.75 4.02 14.33Q4.25 14.90 4.86 15.48Q5.47 16.06 6.62 16.78L6.62 16.78Q7.66 17.40 8.36 17.99Q9.07 18.58 9.43 19.30Q9.79 20.02 9.79 21.05L9.79 21.05Q9.79 22.10 9.14 23.17Q8.50 24.24 7.33 24.95Q6.17 25.66 4.61 25.66ZM15.43 30.94L11.33 30.94L11.33 30.70L12.60 30.17L15.22 15.41L13.70 15.19L13.70 14.95L16.15 14.38L16.34 14.38L15.96 17.18L16.06 17.18Q17.33 15.74 18.26 15.06Q19.20 14.38 20.26 14.38L20.26 14.38Q21.29 14.38 21.91 15.26Q22.54 16.15 22.54 17.86L22.54 17.86Q22.54 19.37 22.04 20.77Q21.55 22.18 20.72 23.27Q19.90 24.36 18.85 25.01Q17.81 25.66 16.73 25.66L16.73 25.66Q16.20 25.66 15.64 25.48Q15.07 25.30 14.59 24.98L14.59 24.98L13.68 30.17L15.43 30.70L15.43 30.94ZM19.78 15.24L19.78 15.24Q18.77 15.24 17.78 16.01Q16.80 16.78 15.86 17.83L15.86 17.83L14.76 24.05Q15.38 24.67 16.02 24.85Q16.66 25.03 17.26 25.03L17.26 25.03Q18.38 25.03 19.34 24.22Q20.30 23.40 20.88 21.82Q21.46 20.23 21.46 17.95L21.46 17.95Q21.46 16.63 21.02 15.94Q20.59 15.24 19.78 15.24ZM27.91 25.66L27.91 25.66Q26.14 25.66 25.30 24.50Q24.46 23.35 24.46 21.58L24.46 21.58Q24.46 20.18 24.96 18.89Q25.46 17.59 26.30 16.57Q27.14 15.55 28.18 14.96Q29.21 14.38 30.24 14.38L30.24 14.38Q31.51 14.38 32.11 14.98Q32.71 15.58 32.71 16.25L32.71 16.25Q32.71 17.33 31.06 18.19Q29.40 19.06 25.63 19.54L25.63 19.54Q25.46 20.38 25.46 21.26L25.46 21.26Q25.46 23.02 26.28 23.95Q27.10 24.89 28.42 24.89L28.42 24.89Q29.54 24.89 30.43 24.23Q31.32 23.57 31.97 22.32L31.97 22.32L32.02 22.32L32.16 22.44Q31.85 23.28 31.25 24.01Q30.65 24.74 29.81 25.20Q28.97 25.66 27.91 25.66ZM29.88 14.90L29.88 14.90Q28.46 14.90 27.31 16.07Q26.16 17.23 25.70 19.15L25.70 19.15Q28.75 18.74 30.18 18.11Q31.61 17.47 31.61 16.34L31.61 16.34Q31.61 15.72 31.19 15.31Q30.77 14.90 29.88 14.90ZM37.87 25.66L37.87 25.66Q36.10 25.66 35.26 24.50Q34.42 23.35 34.42 21.58L34.42 21.58Q34.42 20.18 34.91 18.89Q35.40 17.59 36.23 16.57Q37.06 15.55 38.06 14.96Q39.07 14.38 40.13 14.38L40.13 14.38Q40.99 14.38 41.60 14.64Q42.22 14.90 42.60 15.22L42.60 15.22Q43.13 15.70 43.13 16.08L43.13 16.08Q43.13 16.30 42.91 16.44L42.91 16.44L42.29 16.85L42.19 16.85L42 16.49Q41.62 15.79 41.16 15.35Q40.70 14.90 39.84 14.90L39.84 14.90Q38.64 14.90 37.64 15.66Q36.65 16.42 36.04 17.84Q35.42 19.27 35.42 21.26L35.42 21.26Q35.42 23.02 36.24 23.95Q37.06 24.89 38.38 24.89L38.38 24.89Q39.50 24.89 40.39 24.11Q41.28 23.33 41.93 22.08L41.93 22.08L41.98 22.08L42.12 22.20Q41.81 23.04 41.21 23.83Q40.61 24.62 39.77 25.14Q38.93 25.66 37.87 25.66ZM46.44 25.66L46.44 25.66Q45.74 25.66 45.40 25.22Q45.05 24.79 45.05 24.02L45.05 24.02Q45.05 23.69 45.12 23.28L45.12 23.28L46.49 15.31L44.64 15.31L44.64 15.14L46.82 14.54L47.98 11.98L48.19 11.98L47.71 14.62L50.54 14.62L50.54 15.31L47.57 15.31L46.34 22.44Q46.30 22.82 46.26 23.11Q46.22 23.40 46.22 23.64L46.22 23.64Q46.22 24.24 46.40 24.48Q46.58 24.72 46.94 24.72L46.94 24.72Q47.54 24.72 48.20 24.05Q48.86 23.38 49.42 22.08L49.42 22.08L49.75 22.20Q49.01 24.02 48.18 24.84Q47.35 25.66 46.44 25.66ZM53.52 25.42L52.44 25.42L54.22 15.41L52.66 15.19L52.66 14.95L55.22 14.38L55.34 14.38L55.01 17.04L55.08 17.04Q55.94 15.91 56.53 15.34Q57.12 14.76 57.55 14.57Q57.98 14.38 58.39 14.38L58.39 14.38Q58.82 14.38 59.10 14.54Q59.38 14.71 59.38 14.93L59.38 14.93Q59.38 15.10 59.28 15.26L59.28 15.26L58.97 15.82L58.90 15.82L58.54 15.60Q58.42 15.53 58.26 15.48Q58.10 15.43 57.89 15.43L57.89 15.43Q57.22 15.43 56.48 16.02Q55.75 16.61 54.86 17.88L54.86 17.88L53.52 25.42ZM61.75 25.66L61.75 25.66Q60.79 25.66 60.12 24.86Q59.45 24.07 59.45 22.58L59.45 22.58Q59.45 21.22 59.96 19.78Q60.48 18.34 61.37 17.11Q62.26 15.89 63.40 15.13Q64.54 14.38 65.76 14.38L65.76 14.38Q66.29 14.38 66.88 14.60Q67.46 14.83 67.90 15.14L67.90 15.14L68.40 14.62L68.57 14.62L67.18 22.56Q66.98 23.71 67.06 24.13Q67.13 24.55 67.51 24.55L67.51 24.55Q68.50 24.55 69.36 22.58L69.36 22.58L69.70 22.70Q69.07 24.26 68.35 24.96Q67.63 25.66 66.89 25.66L66.89 25.66Q66.31 25.66 66.05 25.13Q65.78 24.60 66.02 23.14L66.02 23.14L66.10 22.75L66.05 22.75Q64.73 24.24 63.77 24.95Q62.81 25.66 61.75 25.66ZM60.55 22.39L60.55 22.39Q60.55 23.57 61.01 24.18Q61.46 24.79 62.23 24.79L62.23 24.79Q63.29 24.79 64.28 23.99Q65.28 23.18 66.19 22.15L66.19 22.15L67.30 15.74Q66.91 15.46 66.44 15.23Q65.98 15 65.23 15L65.23 15Q64.18 15 63.31 15.64Q62.45 16.27 61.84 17.34Q61.22 18.41 60.89 19.73Q60.55 21.05 60.55 22.39ZM72.91 25.66L72.91 25.66Q72.34 25.66 72.06 25.13Q71.78 24.60 72.05 23.14L72.05 23.14L74.66 8.45L73.15 8.23L73.15 7.99L75.60 7.42L75.91 7.42L73.20 22.56Q73.01 23.71 73.08 24.13Q73.15 24.55 73.54 24.55L73.54 24.55Q74.52 24.55 75.38 22.58L75.38 22.58L75.72 22.70Q75.10 24.26 74.38 24.96Q73.66 25.66 72.91 25.66ZM91.66 25.42L82.66 25.42L82.75 24.96Q85.30 22.49 87 20.75Q88.70 19.01 89.74 17.82Q90.77 16.63 91.30 15.82Q91.82 15 92.00 14.40Q92.18 13.80 92.18 13.22L92.18 13.22Q92.18 11.83 91.49 10.92Q90.79 10.01 89.33 10.01L89.33 10.01Q88.25 10.01 87.44 10.73Q86.64 11.45 86.40 12.84L86.40 12.84L86.23 13.82L86.16 13.90L85.44 13.90Q85.18 13.90 85.01 13.82Q84.84 13.75 84.96 13.08L84.96 13.08Q85.06 12.53 85.42 11.99Q85.78 11.45 86.45 10.82L86.45 10.82Q87.17 10.15 88.02 9.74Q88.87 9.34 89.86 9.34L89.86 9.34Q90.91 9.34 91.73 9.82Q92.54 10.30 93 11.09Q93.46 11.88 93.46 12.82L93.46 12.82Q93.46 13.37 93.40 13.86Q93.34 14.35 93.08 14.92Q92.83 15.48 92.26 16.24Q91.68 16.99 90.65 18.07Q89.62 19.15 88.01 20.70Q86.40 22.25 84.07 24.38L84.07 24.38L90.82 24.38L91.97 22.13L92.38 22.13L91.66 25.42ZM99.02 25.66L99.02 25.66Q97.30 25.66 96.43 24.24Q95.57 22.82 95.57 20.40L95.57 20.40Q95.57 18.24 96.07 16.25Q96.58 14.26 97.46 12.70Q98.35 11.14 99.49 10.24Q100.63 9.34 101.90 9.34L101.90 9.34Q103.63 9.34 104.52 10.74Q105.41 12.14 105.41 14.52L105.41 14.52Q105.41 16.70 104.89 18.71Q104.38 20.71 103.49 22.27Q102.60 23.83 101.45 24.74Q100.30 25.66 99.02 25.66ZM99.24 25.13L99.24 25.13Q100.18 25.13 101.05 24.28Q101.93 23.42 102.62 21.96Q103.32 20.50 103.72 18.61Q104.11 16.73 104.11 14.66L104.11 14.66Q104.11 12.41 103.49 11.14Q102.86 9.86 101.69 9.86L101.69 9.86Q100.75 9.86 99.88 10.72Q99 11.57 98.32 13.02Q97.63 14.47 97.24 16.34Q96.84 18.22 96.84 20.28L96.84 20.28Q96.84 22.58 97.45 23.86Q98.06 25.13 99.24 25.13ZM111.02 25.66L111.02 25.66Q109.30 25.66 108.43 24.24Q107.57 22.82 107.57 20.40L107.57 20.40Q107.57 18.24 108.07 16.25Q108.58 14.26 109.46 12.70Q110.35 11.14 111.49 10.24Q112.63 9.34 113.90 9.34L113.90 9.34Q115.63 9.34 116.52 10.74Q117.41 12.14 117.41 14.52L117.41 14.52Q117.41 16.70 116.89 18.71Q116.38 20.71 115.49 22.27Q114.60 23.83 113.45 24.74Q112.30 25.66 111.02 25.66ZM111.24 25.13L111.24 25.13Q112.18 25.13 113.05 24.28Q113.93 23.42 114.62 21.96Q115.32 20.50 115.72 18.61Q116.11 16.73 116.11 14.66L116.11 14.66Q116.11 12.41 115.49 11.14Q114.86 9.86 113.69 9.86L113.69 9.86Q112.75 9.86 111.88 10.72Q111 11.57 110.32 13.02Q109.63 14.47 109.24 16.34Q108.84 18.22 108.84 20.28L108.84 20.28Q108.84 22.58 109.45 23.86Q110.06 25.13 111.24 25.13ZM128.50 10.49L128.50 10.49Q128.16 10.49 127.92 10.25Q127.68 10.01 127.68 9.67L127.68 9.67Q127.68 9.34 127.92 9.10Q128.16 8.86 128.50 8.86L128.50 8.86Q128.83 8.86 129.07 9.10Q129.31 9.34 129.31 9.67L129.31 9.67Q129.31 10.01 129.07 10.25Q128.83 10.49 128.50 10.49ZM126.60 25.66L126.60 25.66Q126.02 25.66 125.76 25.13Q125.50 24.60 125.74 23.14L125.74 23.14L127.10 15.41L125.59 15.19L125.59 14.95L128.04 14.38L128.35 14.38L126.89 22.56Q126.70 23.71 126.77 24.13Q126.84 24.55 127.22 24.55L127.22 24.55Q128.21 24.55 129.07 22.58L129.07 22.58L129.41 22.70Q128.78 24.26 128.06 24.96Q127.34 25.66 126.60 25.66ZM133.10 25.66L133.10 25.66Q132.41 25.66 132.06 25.22Q131.71 24.79 131.71 24.02L131.71 24.02Q131.71 23.69 131.78 23.28L131.78 23.28L133.15 15.31L131.30 15.31L131.30 15.14L133.49 14.54L134.64 11.98L134.86 11.98L134.38 14.62L137.21 14.62L137.21 15.31L134.23 15.31L133.01 22.44Q132.96 22.82 132.92 23.11Q132.89 23.40 132.89 23.64L132.89 23.64Q132.89 24.24 133.07 24.48Q133.25 24.72 133.61 24.72L133.61 24.72Q134.21 24.72 134.87 24.05Q135.53 23.38 136.08 22.08L136.08 22.08L136.42 22.20Q135.67 24.02 134.84 24.84Q134.02 25.66 133.10 25.66ZM140.62 25.66L140.62 25.66Q139.66 25.66 138.98 24.86Q138.31 24.07 138.31 22.58L138.31 22.58Q138.31 21.22 138.83 19.78Q139.34 18.34 140.23 17.11Q141.12 15.89 142.26 15.13Q143.40 14.38 144.62 14.38L144.62 14.38Q145.15 14.38 145.74 14.60Q146.33 14.83 146.76 15.14L146.76 15.14L147.26 14.62L147.43 14.62L146.04 22.56Q145.85 23.71 145.92 24.13Q145.99 24.55 146.38 24.55L146.38 24.55Q147.36 24.55 148.22 22.58L148.22 22.58L148.56 22.70Q147.94 24.26 147.22 24.96Q146.50 25.66 145.75 25.66L145.75 25.66Q145.18 25.66 144.91 25.13Q144.65 24.60 144.89 23.14L144.89 23.14L144.96 22.75L144.91 22.75Q143.59 24.24 142.63 24.95Q141.67 25.66 140.62 25.66ZM139.42 22.39L139.42 22.39Q139.42 23.57 139.87 24.18Q140.33 24.79 141.10 24.79L141.10 24.79Q142.15 24.79 143.15 23.99Q144.14 23.18 145.06 22.15L145.06 22.15L146.16 15.74Q145.78 15.46 145.31 15.23Q144.84 15 144.10 15L144.10 15Q143.04 15 142.18 15.64Q141.31 16.27 140.70 17.34Q140.09 18.41 139.75 19.73Q139.42 21.05 139.42 22.39ZM151.78 25.66L151.78 25.66Q151.20 25.66 150.92 25.13Q150.65 24.60 150.91 23.14L150.91 23.14L153.53 8.45L152.02 8.23L152.02 7.99L154.46 7.42L154.78 7.42L152.06 22.56Q151.87 23.71 151.94 24.13Q152.02 24.55 152.40 24.55L152.40 24.55Q153.38 24.55 154.25 22.58L154.25 22.58L154.58 22.70Q153.96 24.26 153.24 24.96Q152.52 25.66 151.78 25.66ZM159.36 10.49L159.36 10.49Q159.02 10.49 158.78 10.25Q158.54 10.01 158.54 9.67L158.54 9.67Q158.54 9.34 158.78 9.10Q159.02 8.86 159.36 8.86L159.36 8.86Q159.70 8.86 159.94 9.10Q160.18 9.34 160.18 9.67L160.18 9.67Q160.18 10.01 159.94 10.25Q159.70 10.49 159.36 10.49ZM157.46 25.66L157.46 25.66Q156.89 25.66 156.62 25.13Q156.36 24.60 156.60 23.14L156.60 23.14L157.97 15.41L156.46 15.19L156.46 14.95L158.90 14.38L159.22 14.38L157.75 22.56Q157.56 23.71 157.63 24.13Q157.70 24.55 158.09 24.55L158.09 24.55Q159.07 24.55 159.94 22.58L159.94 22.58L160.27 22.70Q159.65 24.26 158.93 24.96Q158.21 25.66 157.46 25.66ZM165.41 25.66L165.41 25.66Q163.63 25.66 162.79 24.50Q161.95 23.35 161.95 21.58L161.95 21.58Q161.95 20.18 162.44 18.89Q162.94 17.59 163.76 16.57Q164.59 15.55 165.60 14.96Q166.61 14.38 167.66 14.38L167.66 14.38Q168.53 14.38 169.14 14.64Q169.75 14.90 170.14 15.22L170.14 15.22Q170.66 15.70 170.66 16.08L170.66 16.08Q170.66 16.30 170.45 16.44L170.45 16.44L169.82 16.85L169.73 16.85L169.54 16.49Q169.15 15.79 168.70 15.35Q168.24 14.90 167.38 14.90L167.38 14.90Q166.18 14.90 165.18 15.66Q164.18 16.42 163.57 17.84Q162.96 19.27 162.96 21.26L162.96 21.26Q162.96 23.02 163.78 23.95Q164.59 24.89 165.91 24.89L165.91 24.89Q167.04 24.89 167.93 24.11Q168.82 23.33 169.46 22.08L169.46 22.08L169.51 22.08L169.66 22.20Q169.34 23.04 168.74 23.83Q168.14 24.62 167.30 25.14Q166.46 25.66 165.41 25.66Z"/></svg>