<svg xmlns="http://www.w3.org/2000/svg" xmlns:xlink="http://www.w3.org/1999/xlink" width="128.808" height="34.752"><path fill="black" d="M9.31 17.28L9.31 17.28Q9.43 17.47 9.35 17.70Q9.26 17.93 9.02 18.02L9.02 18.02Q8.74 18.12 8.36 18.12Q7.99 18.12 7.54 18.14L7.54 18.14Q7.27 18.14 7.03 18.24Q6.79 18.34 6.60 18.36L6.60 18.36Q6.14 18.38 5.88 18.24Q5.62 18.10 5.23 18.26L5.23 18.26Q5.14 18.34 5.00 18.47Q4.87 18.60 4.75 18.70L4.75 18.70Q4.44 18.89 4.34 19.20L4.34 19.20Q4.22 19.61 4.51 19.85L4.51 19.85Q4.70 20.06 4.91 20.26Q5.11 20.45 5.28 20.66L5.28 20.66Q5.42 20.86 5.62 20.88L5.62 20.88Q5.71 20.88 5.88 21L5.88 21Q6.24 21.31 6.65 21.62Q7.06 21.94 7.30 22.30L7.30 22.30Q7.34 22.34 7.40 22.43Q7.46 22.51 7.54 22.56L7.54 22.56Q8.04 23.02 8.22 23.78Q8.40 24.55 8.21 25.33Q8.02 26.11 7.39 26.66L7.39 26.66Q7.15 26.90 6.89 27.16Q6.62 27.41 6.24 27.53L6.24 27.53Q6.22 27.55 6.14 27.53Q6.07 27.50 6.02 27.50L6.02 27.50Q5.54 27.60 5.09 27.77Q4.63 27.94 4.03 27.91L4.03 27.91Q3.77 27.91 3.50 27.86Q3.24 27.82 2.95 27.77L2.95 27.77Q2.54 27.74 2.26 27.46L2.26 27.46Q2.23 27.41 2.21 27.41Q2.18 27.41 2.16 27.38L2.16 27.38Q1.99 27.26 1.88 27.12Q1.78 26.98 1.70 26.81L1.70 26.81Q1.66 26.62 1.56 26.44Q1.46 26.26 1.44 26.04L1.44 26.04Q1.42 25.80 1.62 25.70Q1.82 25.61 1.99 25.73L1.99 25.73Q2.26 25.94 2.54 25.94L2.54 25.94Q3.53 26.09 4.31 25.86Q5.09 25.63 5.74 25.13L5.74 25.13Q5.95 24.96 6.10 24.65L6.10 24.65Q6.14 24.55 6.19 24.49Q6.24 24.43 6.26 24.36L6.26 24.36Q6.43 24.14 6.48 23.90L6.48 23.90Q6.60 23.45 6.26 23.09L6.26 23.09Q5.81 22.61 5.21 22.27Q4.61 21.94 3.98 21.58L3.98 21.58Q3.74 21.43 3.55 21.14L3.55 21.14Q3.41 20.95 3.28 20.75Q3.14 20.54 2.98 20.33L2.98 20.33Q2.74 20.09 2.66 19.78L2.66 19.78Q2.52 19.08 2.46 18.46Q2.40 17.83 2.71 17.28L2.71 17.28Q2.86 16.94 3.25 16.57Q3.65 16.20 3.96 16.06L3.96 16.06Q4.27 15.86 4.98 15.76Q5.69 15.65 6.47 15.65Q7.25 15.65 7.75 15.86L7.75 15.86Q7.94 15.96 8.14 16.08Q8.33 16.20 8.50 16.30L8.50 16.30Q8.88 16.46 9.12 16.92L9.12 16.92Q9.14 17.02 9.20 17.10Q9.26 17.18 9.31 17.28ZM16.10 17.74L16.10 17.74Q15.91 18.72 15.60 20.04Q15.29 21.36 14.98 22.73Q14.66 24.10 14.41 25.31Q14.16 26.52 14.06 27.29L14.06 27.29Q14.04 27.62 13.80 27.96L13.80 27.96Q13.56 28.32 13.18 28.20L13.18 28.20Q13.08 28.18 13.01 28.14Q12.94 28.10 12.84 28.08L12.84 28.08Q12.38 27.91 12.24 27.41L12.24 27.41Q12.22 27.36 12.20 27.29Q12.19 27.22 12.14 27.14L12.14 27.14Q11.98 26.76 12.10 26.28L12.10 26.28Q12.34 25.27 12.65 23.86Q12.96 22.44 13.30 20.92Q13.63 19.39 13.96 18Q14.28 16.61 14.54 15.62L14.54 15.62Q14.62 15.41 14.78 15.22Q14.95 15.02 15.19 15L15.19 15Q16.03 14.86 16.31 15.52Q16.58 16.18 16.10 17.74ZM27.84 26.78L27.84 26.78Q27.82 27.02 27.65 27.19Q27.48 27.36 27.22 27.34L27.22 27.34Q26.69 27.29 26.20 27.02Q25.70 26.76 25.39 26.45L25.39 26.45Q25.30 26.33 25.16 26.35Q25.03 26.38 24.96 26.52L24.96 26.52Q24.94 26.64 24.72 26.76L24.72 26.76Q24.62 26.83 24.54 26.92Q24.46 27 24.36 27.10L24.36 27.10Q24.19 27.29 23.99 27.43Q23.78 27.58 23.62 27.82L23.62 27.82Q23.30 28.25 22.78 28.30L22.78 28.30Q22.37 28.37 21.94 28.34Q21.50 28.32 21.12 28.22L21.12 28.22Q20.78 28.15 20.50 27.91L20.50 27.91Q20.45 27.86 20.40 27.82Q20.35 27.77 20.28 27.74L20.28 27.74Q19.97 27.55 19.78 27.24L19.78 27.24Q19.46 26.69 19.22 26.05Q18.98 25.42 19.15 24.70L19.15 24.70Q19.27 24.14 19.57 23.51Q19.87 22.87 20.14 22.44L20.14 22.44Q20.69 21.58 21.60 21.08Q22.51 20.59 23.59 20.78L23.59 20.78Q24.50 20.95 25.19 21.41Q25.87 21.86 26.38 22.61L26.38 22.61Q26.50 22.78 26.44 22.94Q26.38 23.11 26.18 23.16L26.18 23.16Q25.80 23.23 25.54 23.02L25.54 23.02Q24.94 22.46 24.10 22.46Q23.26 22.46 22.56 22.85L22.56 22.85Q22.46 22.90 22.40 22.94Q22.34 22.99 22.30 23.06L22.30 23.06Q22.01 23.33 21.71 23.71Q21.41 24.10 21.22 24.72L21.22 24.72Q21.12 25.03 20.99 25.42Q20.86 25.80 20.88 26.14L20.88 26.14Q20.88 26.38 21.07 26.53Q21.26 26.69 21.50 26.66L21.50 26.66Q22.32 26.54 22.85 26.12Q23.38 25.70 23.82 25.20Q24.26 24.70 24.79 24.29L24.79 24.29Q25.01 24.14 25.27 24.17Q25.54 24.19 25.70 24.38L25.70 24.38Q25.94 24.58 26.06 24.94Q26.18 25.30 26.28 25.68L26.28 25.68Q26.35 25.92 26.56 26.08Q26.76 26.23 27.02 26.21L27.02 26.21L27.26 26.21Q27.53 26.18 27.70 26.35Q27.86 26.52 27.84 26.78ZM37.18 22.13L37.18 22.13Q37.30 22.37 37.16 22.58Q37.03 22.80 36.79 22.85L36.79 22.85Q36.29 22.92 35.64 22.79Q34.99 22.66 34.42 22.80L34.42 22.80Q33.70 22.94 33.19 23.44Q32.69 23.93 32.51 24.58Q32.33 25.22 32.52 25.82L32.52 25.82Q32.71 26.35 33.26 26.40L33.26 26.40Q33.74 26.42 34.24 26.41Q34.73 26.40 35.14 26.30L35.14 26.30Q35.21 26.28 35.39 26.21Q35.57 26.14 35.74 26.06L35.74 26.06Q35.95 25.97 36.18 26.05Q36.41 26.14 36.50 26.38L36.50 26.38Q36.55 26.42 36.60 26.62L36.60 26.62Q36.79 27.12 36.34 27.50L36.34 27.50Q35.83 27.86 35.16 27.97Q34.49 28.08 33.79 28.10L33.79 28.10Q33.72 28.10 33.64 28.09Q33.55 28.08 33.46 28.06L33.46 28.06Q33.34 28.06 33.31 28.03L33.31 28.03Q33.07 27.94 32.88 27.94L32.88 27.94Q32.28 27.86 31.82 27.35Q31.37 26.83 31.06 26.30L31.06 26.30Q30.98 26.18 30.95 26.05Q30.91 25.92 30.86 25.78L30.86 25.78Q30.82 25.15 30.74 24.59Q30.67 24.02 30.79 23.50L30.79 23.50Q30.91 22.94 31.27 22.61Q31.63 22.27 31.99 21.89L31.99 21.89Q32.16 21.67 32.38 21.58L32.38 21.58Q32.86 21.31 33.43 21.19Q34.01 21.07 34.54 20.98L34.54 20.98Q34.92 20.86 35.26 21L35.26 21Q35.88 21.19 36.41 21.42Q36.94 21.65 37.18 22.13ZM43.56 17.38L43.56 17.38Q43.54 17.47 43.51 17.57Q43.49 17.66 43.49 17.76L43.49 17.76Q43.51 18.17 43.45 18.82Q43.39 19.46 43.28 20.18Q43.18 20.90 43.06 21.52Q42.94 22.13 42.84 22.44L42.84 22.44Q42.74 22.78 42.73 23.20Q42.72 23.62 42.65 24L42.65 24Q42.55 24.53 42.40 25.01Q42.24 25.49 42.14 25.92L42.14 25.92Q42.12 26.30 42.11 26.66Q42.10 27.02 42 27.34L42 27.34Q41.83 27.91 41.28 27.96L41.28 27.96Q41.02 28.01 40.78 27.88Q40.54 27.74 40.42 27.50L40.42 27.50Q40.37 27.41 40.33 27.32Q40.30 27.24 40.25 27.14L40.25 27.14Q40.08 26.76 40.10 26.33L40.10 26.33Q40.22 25.51 40.43 24.46Q40.63 23.40 40.86 22.27Q41.09 21.14 41.29 20.10Q41.50 19.06 41.64 18.26L41.64 18.26Q41.76 17.54 41.83 16.85Q41.90 16.15 42.24 15.70L42.24 15.70Q42.41 15.46 42.67 15.44Q42.94 15.43 43.10 15.62L43.10 15.62Q43.18 15.72 43.24 15.79Q43.30 15.86 43.32 15.89L43.32 15.89Q43.51 16.15 43.57 16.63Q43.63 17.11 43.56 17.38ZM47.74 21.29L47.74 21.29Q47.74 21.46 47.36 21.82Q46.99 22.18 46.49 22.70Q45.98 23.23 45.61 23.93Q45.24 24.62 45.26 25.46L45.26 25.46Q45.29 25.92 45.46 26.34Q45.62 26.76 45.70 27.17L45.70 27.17Q45.74 27.43 45.58 27.64Q45.41 27.84 45.14 27.82L45.14 27.82Q44.86 27.82 44.60 27.66Q44.35 27.50 44.14 27.34L44.14 27.34Q43.82 27.02 43.68 26.62L43.68 26.62Q43.54 25.92 43.42 25.21Q43.30 24.50 43.42 23.80Q43.54 23.09 44.04 22.44L44.04 22.44Q44.23 22.18 44.48 21.96Q44.74 21.74 44.98 21.50L44.98 21.50Q45.17 21.29 45.40 21Q45.62 20.71 45.94 20.52L45.94 20.52Q46.34 20.18 46.85 20.42L46.85 20.42Q47.18 20.62 47.45 20.77Q47.71 20.93 47.74 21.29ZM56.02 25.68L56.02 25.68Q56.14 26.26 55.68 26.57L55.68 26.57Q55.58 26.66 55.50 26.75Q55.42 26.83 55.37 26.93L55.37 26.93Q55.25 27.14 55.07 27.28Q54.89 27.41 54.70 27.50L54.70 27.50Q53.81 27.86 52.91 28.02Q52.01 28.18 51.05 27.91L51.05 27.91Q50.81 27.84 50.42 27.58Q50.04 27.31 49.80 27.02L49.80 27.02Q49.75 26.93 49.64 26.77Q49.54 26.62 49.44 26.45L49.44 26.45Q49.39 26.26 49.51 26.09Q49.63 25.92 49.87 25.97L49.87 25.97Q50.21 26.04 50.47 26.16Q50.74 26.28 50.98 26.40L50.98 26.40Q51.26 26.54 51.55 26.54L51.55 26.54Q52.27 26.57 52.96 26.36Q53.64 26.16 53.98 25.68L53.98 25.68Q54.12 25.49 54.02 25.27Q53.93 25.06 53.74 25.01L53.74 25.01Q53.14 24.89 52.52 24.85Q51.91 24.82 51.22 24.48L51.22 24.48Q50.66 24.17 50.57 23.69L50.57 23.69Q50.54 23.64 50.52 23.56Q50.50 23.47 50.45 23.40L50.45 23.40Q50.35 23.21 50.33 22.97Q50.30 22.73 50.38 22.49L50.38 22.49Q50.50 22.08 50.72 21.74Q50.95 21.41 51.19 21.05L51.19 21.05Q51.46 20.69 51.84 20.54L51.84 20.54Q52.32 20.35 52.84 20.38Q53.35 20.40 53.76 20.40L53.76 20.40Q54.02 20.40 54.29 20.50L54.29 20.50Q54.62 20.62 54.96 20.74Q55.30 20.86 55.56 21.12L55.56 21.12Q55.73 21.29 55.79 21.65Q55.85 22.01 55.74 22.25Q55.63 22.49 55.25 22.34L55.25 22.34Q54.98 22.22 54.80 22.07Q54.62 21.91 54.31 21.86L54.31 21.86Q54.07 21.84 53.60 21.80Q53.14 21.77 52.92 21.82L52.92 21.82Q52.51 21.89 52.20 22.22L52.20 22.22Q52.18 22.27 52.16 22.52Q52.15 22.78 52.18 23.02Q52.20 23.26 52.25 23.28L52.25 23.28Q52.46 23.40 52.98 23.41Q53.50 23.42 53.88 23.38L53.88 23.38Q53.98 23.38 54.05 23.45L54.05 23.45Q54.07 23.54 54.22 23.54L54.22 23.54Q54.77 23.62 55.08 23.94Q55.39 24.26 55.68 24.60L55.68 24.60Q55.94 24.91 55.99 25.34L55.99 25.34Q55.99 25.44 56.00 25.51Q56.02 25.58 56.02 25.68ZM62.54 20.04L62.54 20.04Q62.54 20.06 62.54 20.14Q62.54 20.21 62.52 20.26L62.52 20.26Q62.50 20.30 62.44 20.36Q62.38 20.42 62.30 20.45L62.30 20.45Q61.63 20.78 60.94 20.64L60.94 20.64Q60.58 20.62 60.31 20.38L60.31 20.38Q60.17 20.28 60.04 20.21Q59.90 20.14 59.76 20.04L59.76 20.04Q59.54 19.87 59.50 19.61Q59.45 19.34 59.62 19.10L59.62 19.10Q59.81 18.84 60.08 18.71Q60.36 18.58 60.67 18.53L60.67 18.53Q61.15 18.48 61.54 18.72L61.54 18.72Q61.61 18.74 61.66 18.78Q61.70 18.82 61.78 18.84L61.78 18.84Q62.23 19.03 62.42 19.49L62.42 19.49Q62.54 19.70 62.54 20.04ZM61.56 22.32L61.56 22.32Q61.51 22.78 61.45 23.48Q61.39 24.19 61.33 24.96Q61.27 25.73 61.16 26.41Q61.06 27.10 60.91 27.53L60.91 27.53Q60.70 28.10 60.14 27.98L60.14 27.98Q60 27.96 59.87 27.96Q59.74 27.96 59.62 27.94L59.62 27.94Q59.06 27.77 59.02 27.24L59.02 27.24Q58.97 26.98 58.93 26.72Q58.90 26.47 58.92 26.28L58.92 26.28Q58.97 26.06 59.08 25.46Q59.18 24.86 59.33 24.14Q59.47 23.42 59.59 22.84Q59.71 22.25 59.74 22.06L59.74 22.06L59.74 21.98Q59.74 21.72 59.90 21.55Q60.07 21.38 60.31 21.36L60.31 21.36Q60.55 21.36 60.76 21.37Q60.96 21.38 61.10 21.48L61.10 21.48Q61.68 21.72 61.56 22.32ZM74.42 17.21L74.42 17.21Q74.40 17.35 74.30 17.48Q74.21 17.62 74.16 17.78L74.16 17.78Q73.92 18.79 73.79 20.00Q73.66 21.22 73.46 22.49Q73.27 23.76 72.82 24.96L72.82 24.96Q72.77 25.06 72.76 25.15Q72.74 25.25 72.72 25.34L72.72 25.34Q72.70 25.94 72.43 26.42Q72.17 26.90 71.93 27.46L71.93 27.46Q71.86 27.67 71.66 27.86L71.66 27.86Q71.62 27.96 71.54 27.96L71.54 27.96Q71.21 28.01 71.00 27.97Q70.80 27.94 70.66 27.84L70.66 27.84Q70.18 27.50 70.30 26.98L70.30 26.98Q70.92 24.10 71.44 21.14Q71.95 18.19 72.50 15.74L72.50 15.74Q72.62 15.36 73.01 15.36L73.01 15.36Q73.30 15.36 73.56 15.58L73.56 15.58Q73.87 15.79 74.11 15.95Q74.35 16.10 74.45 16.38Q74.54 16.66 74.42 17.21ZM70.06 23.42L70.06 23.42Q70.06 23.66 69.90 23.78Q69.74 23.90 69.50 23.88L69.50 23.88Q69.12 23.78 68.62 23.65Q68.11 23.52 67.80 23.64L67.80 23.64Q67.56 23.74 67.33 23.76Q67.10 23.78 66.84 23.88L66.84 23.88Q66.29 24.02 66.14 24.58L66.14 24.58Q66.02 25.01 65.98 25.70L65.98 25.70Q65.98 25.85 66.18 26.10Q66.38 26.35 66.46 26.40L66.46 26.40Q66.77 26.62 67.21 26.59Q67.66 26.57 68.14 26.45L68.14 26.45Q68.35 26.40 68.58 26.51Q68.81 26.62 68.90 26.81L68.90 26.81Q68.93 26.88 68.96 26.95Q69.00 27.02 69.02 27.12L69.02 27.12Q69.12 27.34 69.04 27.58Q68.95 27.82 68.74 27.94L68.74 27.94Q68.33 28.13 67.93 28.09Q67.54 28.06 67.08 28.10L67.08 28.10Q66.79 28.18 66.58 28.08L66.58 28.08Q65.71 27.84 65.22 27.24Q64.73 26.64 64.37 25.90L64.37 25.90Q64.25 25.58 64.25 25.30L64.25 25.30Q64.25 25.08 64.22 24.86Q64.20 24.65 64.20 24.41L64.20 24.41Q64.20 24.17 64.32 23.81L64.32 23.81Q64.63 23.16 65.22 22.76Q65.81 22.37 66.53 22.08L66.53 22.08Q66.86 21.94 67.22 21.98L67.22 21.98Q67.85 22.06 68.50 22.18Q69.14 22.30 69.58 22.56L69.58 22.56Q70.06 22.85 70.06 23.42ZM83.69 22.58L83.69 22.58Q84.02 23.09 83.64 23.52L83.64 23.52Q83.62 23.52 83.60 23.53Q83.59 23.54 83.57 23.54L83.57 23.54Q83.38 23.74 83.30 23.98L83.30 23.98Q83.11 24.36 82.73 24.52Q82.34 24.67 81.89 24.72Q81.43 24.77 81.02 24.84L81.02 24.84Q80.76 24.91 80.54 25.00Q80.33 25.08 80.09 25.13L80.09 25.13Q79.51 25.27 79.13 24.89L79.13 24.89Q79.03 24.79 78.94 24.71Q78.84 24.62 78.74 24.53L78.74 24.53Q78.60 24.41 78.43 24.47Q78.26 24.53 78.26 24.72L78.26 24.72Q78.22 25.18 78.47 25.64Q78.72 26.11 79.03 26.30L79.03 26.30Q79.49 26.52 80.09 26.50Q80.69 26.47 81.31 26.33Q81.94 26.18 82.44 26.09L82.44 26.09Q82.63 26.04 82.86 26.11Q83.09 26.18 83.21 26.38L83.21 26.38Q83.23 26.40 83.27 26.45Q83.30 26.50 83.30 26.54L83.30 26.54Q83.42 26.78 83.34 27.02Q83.26 27.26 83.04 27.38L83.04 27.38Q83.04 27.41 83.02 27.41Q82.99 27.41 82.97 27.46L82.97 27.46Q82.87 27.55 82.73 27.61Q82.58 27.67 82.46 27.72L82.46 27.72Q82.06 27.82 81.68 27.88Q81.31 27.94 80.83 27.98L80.83 27.98Q80.64 28.06 80.45 27.98L80.45 27.98Q79.85 27.89 79.20 27.82Q78.55 27.74 78.01 27.49Q77.47 27.24 77.16 26.62L77.16 26.62Q77.14 26.57 77.10 26.52Q77.06 26.47 77.04 26.40L77.04 26.40Q76.66 25.87 76.63 25.07Q76.61 24.26 76.85 23.47Q77.09 22.68 77.45 22.22L77.45 22.22Q77.71 21.91 78.05 21.78Q78.38 21.65 78.77 21.41L78.77 21.41Q79.56 20.95 80.52 20.99Q81.48 21.02 82.34 21.44Q83.21 21.86 83.69 22.58ZM82.13 22.54L82.13 22.54Q82.10 22.46 82.03 22.43Q81.96 22.39 81.89 22.37L81.89 22.37Q81.53 22.37 81.04 22.40Q80.54 22.44 80.47 22.49L80.47 22.49Q80.42 22.54 80.28 22.58L80.28 22.58Q79.97 22.73 79.64 22.81Q79.32 22.90 79.08 23.06L79.08 23.06Q78.91 23.16 78.97 23.35Q79.03 23.54 79.22 23.57L79.22 23.57Q79.85 23.66 80.52 23.53Q81.19 23.40 81.72 23.16L81.72 23.16Q81.94 23.02 82.13 22.82L82.13 22.82Q82.25 22.66 82.13 22.54ZM104.86 19.32L104.86 19.32Q105.10 21.34 104.56 22.80Q104.02 24.26 103.01 25.34Q102.00 26.42 100.78 27.34L100.78 27.34Q100.68 27.38 100.56 27.44Q100.44 27.50 100.30 27.53L100.30 27.53Q99.12 27.84 98.22 28.01Q97.32 28.18 96.26 28.08L96.26 28.08Q95.90 28.08 95.66 27.91L95.66 27.91Q95.18 27.60 94.72 27.38Q94.25 27.17 93.86 26.66L93.86 26.66Q93.34 25.99 93.16 25.30Q92.98 24.60 92.74 23.78L92.74 23.78Q92.71 23.66 92.71 23.57Q92.71 23.47 92.71 23.38L92.71 23.38Q92.74 22.97 92.74 22.60Q92.74 22.22 92.83 21.70L92.83 21.70Q92.93 21.17 93.24 20.40Q93.55 19.63 93.86 19.08L93.86 19.08Q94.22 18.41 94.78 17.63Q95.33 16.85 96.00 16.25Q96.67 15.65 97.42 15.48Q98.16 15.31 98.90 15.86L98.90 15.86Q99.17 16.06 99.17 16.42L99.17 16.42Q99.17 16.70 98.98 16.94L98.98 16.94Q98.95 16.97 98.94 17.00Q98.93 17.04 98.90 17.06L98.90 17.06Q98.78 17.26 98.54 17.45L98.54 17.45Q97.32 18.34 96.43 19.74Q95.54 21.14 95.18 22.73L95.18 22.73Q95.09 23.14 95.04 23.75Q94.99 24.36 95.09 25.06L95.09 25.06Q95.11 25.20 95.14 25.32Q95.16 25.44 95.23 25.56L95.23 25.56Q95.45 26.04 95.95 26.09L95.95 26.09Q96.41 26.16 96.84 26.15Q97.27 26.14 97.78 26.04L97.78 26.04Q97.94 25.99 98.10 25.87Q98.26 25.75 98.42 25.68L98.42 25.68Q98.54 25.63 98.66 25.67Q98.78 25.70 98.90 25.68L98.90 25.68Q99.74 25.39 100.46 24.67Q101.18 23.95 101.70 23.02Q102.22 22.08 102.46 21.12Q102.70 20.16 102.55 19.37L102.55 19.37Q102.43 18.70 102.13 18.28Q101.83 17.86 101.38 17.45L101.38 17.45Q101.26 17.35 101.11 17.28Q100.97 17.21 100.82 17.18L100.82 17.18Q100.68 17.16 100.54 17.02L100.54 17.02Q100.42 16.80 100.52 16.57Q100.63 16.34 100.90 16.32L100.90 16.32Q101.23 16.32 101.56 16.33Q101.88 16.34 102.14 16.37L102.14 16.37Q102.29 16.39 102.43 16.44Q102.58 16.49 102.70 16.56L102.70 16.56Q102.86 16.66 103.00 16.75Q103.13 16.85 103.34 16.92L103.34 16.92Q103.54 16.97 103.73 17.18L103.73 17.18Q104.14 17.54 104.34 17.98Q104.54 18.41 104.78 18.98L104.78 18.98Q104.86 19.13 104.86 19.32ZM116.78 23.52L116.78 23.52Q117.14 24.84 117.13 25.90Q117.12 26.95 116.87 27.53Q116.62 28.10 116.18 27.98L116.18 27.98Q116.06 27.94 115.78 27.92Q115.49 27.91 115.25 27.77Q115.01 27.62 114.96 27.22L114.96 27.22Q114.94 26.93 114.94 26.74Q114.94 26.54 114.94 26.21Q114.94 25.87 114.89 25.22L114.89 25.22Q114.84 24.41 114.37 23.86Q113.90 23.30 113.14 23.22Q112.37 23.14 111.38 23.78L111.38 23.78Q110.90 24.12 110.53 24.70Q110.16 25.27 109.90 25.86Q109.63 26.45 109.46 26.88L109.46 26.88Q109.32 27.19 109.13 27.46Q108.94 27.72 108.50 27.70L108.50 27.70Q108.24 27.70 107.89 27.76Q107.54 27.82 107.57 27.50L107.57 27.50Q107.66 25.99 107.90 24.44Q108.14 22.90 108.38 21.72L108.38 21.72Q108.43 21.48 108.61 21.36Q108.79 21.24 108.98 21.26L108.98 21.26Q109.54 21.36 109.82 21.60Q110.11 21.84 110.06 22.78L110.06 22.78Q110.04 22.90 110.17 22.96Q110.30 23.02 110.40 22.92L110.40 22.92Q111.07 22.30 112.12 21.89Q113.16 21.48 114.48 21.74L114.48 21.74Q115.22 21.91 115.75 22.24Q116.28 22.56 116.66 23.26L116.66 23.26Q116.76 23.38 116.78 23.52ZM127.22 22.58L127.22 22.58Q127.56 23.09 127.18 23.52L127.18 23.52Q127.15 23.52 127.14 23.53Q127.13 23.54 127.10 23.54L127.10 23.54Q126.91 23.74 126.84 23.98L126.84 23.98Q126.65 24.36 126.26 24.52Q125.88 24.67 125.42 24.72Q124.97 24.77 124.56 24.84L124.56 24.84Q124.30 24.91 124.08 25.00Q123.86 25.08 123.62 25.13L123.62 25.13Q123.05 25.27 122.66 24.89L122.66 24.89Q122.57 24.79 122.47 24.71Q122.38 24.62 122.28 24.53L122.28 24.53Q122.14 24.41 121.97 24.47Q121.80 24.53 121.80 24.72L121.80 24.72Q121.75 25.18 122.00 25.64Q122.26 26.11 122.57 26.30L122.57 26.30Q123.02 26.52 123.62 26.50Q124.22 26.47 124.85 26.33Q125.47 26.18 125.98 26.09L125.98 26.09Q126.17 26.04 126.40 26.11Q126.62 26.18 126.74 26.38L126.74 26.38Q126.77 26.40 126.80 26.45Q126.84 26.50 126.84 26.54L126.84 26.54Q126.96 26.78 126.88 27.02Q126.79 27.26 126.58 27.38L126.58 27.38Q126.58 27.41 126.55 27.41Q126.53 27.41 126.50 27.46L126.50 27.46Q126.41 27.55 126.26 27.61Q126.12 27.67 126 27.72L126 27.72Q125.59 27.82 125.22 27.88Q124.85 27.94 124.37 27.98L124.37 27.98Q124.18 28.06 123.98 27.98L123.98 27.98Q123.38 27.89 122.74 27.82Q122.09 27.74 121.55 27.49Q121.01 27.24 120.70 26.62L120.70 26.62Q120.67 26.57 120.64 26.52Q120.60 26.47 120.58 26.40L120.58 26.40Q120.19 25.87 120.17 25.07Q120.14 24.26 120.38 23.47Q120.62 22.68 120.98 22.22L120.98 22.22Q121.25 21.91 121.58 21.78Q121.92 21.65 122.30 21.41L122.30 21.41Q123.10 20.95 124.06 20.99Q125.02 21.02 125.88 21.44Q126.74 21.86 127.22 22.58ZM125.66 22.54L125.66 22.54Q125.64 22.46 125.57 22.43Q125.50 22.39 125.42 22.37L125.42 22.37Q125.06 22.37 124.57 22.40Q124.08 22.44 124.01 22.49L124.01 22.49Q123.96 22.54 123.82 22.58L123.82 22.58Q123.50 22.73 123.18 22.81Q122.86 22.90 122.62 23.06L122.62 23.06Q122.45 23.16 122.51 23.35Q122.57 23.54 122.76 23.57L122.76 23.57Q123.38 23.66 124.06 23.53Q124.73 23.40 125.26 23.16L125.26 23.16Q125.47 23.02 125.66 22.82L125.66 22.82Q125.78 22.66 125.66 22.54Z"/></svg>