<svg xmlns="http://www.w3.org/2000/svg" xmlns:xlink="http://www.w3.org/1999/xlink" width="374.39999999999986" height="30.168"><path fill="black" d="M7.15 23.90L7.15 23.90Q5.57 23.90 4.02 23.33Q2.47 22.75 1.20 21.65L1.20 21.65L3.24 19.22Q4.13 19.94 5.20 20.40Q6.26 20.86 7.39 20.86L7.39 20.86Q8.52 20.86 9.06 20.47Q9.60 20.09 9.60 19.49L9.60 19.49Q9.60 18.94 9.31 18.61Q9.02 18.29 8.47 18.04Q7.92 17.78 7.18 17.47L7.18 17.47L5.16 16.61Q4.30 16.27 3.53 15.71Q2.76 15.14 2.29 14.32Q1.82 13.49 1.82 12.34L1.82 12.34Q1.82 11.04 2.56 10.00Q3.29 8.95 4.57 8.32Q5.86 7.68 7.56 7.68L7.56 7.68Q8.98 7.68 10.34 8.21Q11.71 8.74 12.77 9.74L12.77 9.74L10.97 11.98Q10.15 11.38 9.34 11.05Q8.52 10.73 7.37 10.73L7.37 10.73Q6.50 10.73 5.95 11.09Q5.40 11.45 5.40 12.14L5.40 12.14Q5.40 12.60 5.74 12.91Q6.07 13.22 6.65 13.46Q7.22 13.70 7.97 13.99L7.97 13.99L9.86 14.81Q10.92 15.19 11.66 15.76Q12.41 16.32 12.82 17.14Q13.22 17.95 13.22 19.06L13.22 19.06Q13.22 20.35 12.52 21.46Q11.81 22.56 10.45 23.23Q9.10 23.90 7.15 23.90ZM21.60 23.90L21.60 23.90Q20.04 23.90 18.65 23.17Q17.26 22.44 16.39 21.04Q15.53 19.63 15.53 17.66L15.53 17.66Q15.53 15.70 16.39 14.29Q17.26 12.89 18.65 12.16Q20.04 11.42 21.60 11.42L21.60 11.42Q23.16 11.42 24.55 12.16Q25.94 12.89 26.81 14.29Q27.67 15.70 27.67 17.66L27.67 17.66Q27.67 19.63 26.81 21.04Q25.94 22.44 24.55 23.17Q23.16 23.90 21.60 23.90ZM21.60 21.05L21.60 21.05Q22.42 21.05 22.96 20.64Q23.50 20.23 23.77 19.46Q24.05 18.70 24.05 17.66L24.05 17.66Q24.05 16.63 23.77 15.86Q23.50 15.10 22.96 14.69Q22.42 14.28 21.60 14.28L21.60 14.28Q20.78 14.28 20.24 14.69Q19.70 15.10 19.43 15.86Q19.15 16.63 19.15 17.66L19.15 17.66Q19.15 18.70 19.43 19.46Q19.70 20.23 20.24 20.64Q20.78 21.05 21.60 21.05ZM34.15 23.90L34.15 23.90Q32.11 23.90 31.20 22.61Q30.29 21.31 30.29 19.06L30.29 19.06L30.29 11.71L33.82 11.71L33.82 18.60Q33.82 19.80 34.19 20.35Q34.56 20.90 35.54 20.90L35.54 20.90Q36.22 20.90 36.74 20.62Q37.27 20.33 37.87 19.54L37.87 19.54L37.87 11.71L41.40 11.71L41.40 23.62L38.52 23.62L38.26 21.91L38.16 21.91Q37.37 22.80 36.41 23.35Q35.45 23.90 34.15 23.90ZM49.51 23.62L45.98 23.62L45.98 11.71L48.86 11.71L49.15 14.30L49.22 14.30Q50.11 12.84 51.37 12.13Q52.63 11.42 54.05 11.42L54.05 11.42Q54.84 11.42 55.33 11.54Q55.82 11.66 56.35 11.90L56.35 11.90L55.63 14.86Q55.08 14.69 54.64 14.60Q54.19 14.52 53.52 14.52L53.52 14.52Q52.42 14.52 51.35 15.17Q50.28 15.82 49.51 17.42L49.51 17.42L49.51 23.62ZM65.83 23.90L65.83 23.90Q63.96 23.90 62.46 23.17Q60.96 22.44 60.08 21.04Q59.21 19.63 59.21 17.66L59.21 17.66Q59.21 15.70 60.17 14.29Q61.13 12.89 62.70 12.16Q64.27 11.42 66.10 11.42L66.10 11.42Q67.51 11.42 68.66 11.87Q69.82 12.31 70.56 13.03L70.56 13.03L68.93 15.22Q68.23 14.74 67.60 14.51Q66.96 14.28 66.29 14.28L66.29 14.28Q65.28 14.28 64.49 14.69Q63.70 15.10 63.26 15.86Q62.83 16.63 62.83 17.66L62.83 17.66Q62.83 18.70 63.25 19.46Q63.67 20.23 64.43 20.64Q65.18 21.05 66.17 21.05L66.17 21.05Q67.10 21.05 67.88 20.71Q68.66 20.38 69.31 19.92L69.31 19.92L70.73 22.15Q69.67 23.04 68.36 23.47Q67.06 23.90 65.83 23.90ZM79.92 23.90L79.92 23.90Q78.07 23.90 76.57 23.17Q75.07 22.44 74.20 21.04Q73.32 19.63 73.32 17.66L73.32 17.66Q73.32 15.72 74.21 14.32Q75.10 12.91 76.51 12.17Q77.93 11.42 79.51 11.42L79.51 11.42Q81.36 11.42 82.61 12.18Q83.86 12.94 84.49 14.22Q85.13 15.50 85.13 17.14L85.13 17.14Q85.13 17.62 85.07 18.06Q85.01 18.50 84.96 18.72L84.96 18.72L75.94 18.72L75.94 16.34L82.58 16.34L82.03 17.02Q82.03 15.58 81.42 14.84Q80.81 14.11 79.63 14.11L79.63 14.11Q78.77 14.11 78.12 14.50Q77.47 14.88 77.11 15.67Q76.75 16.46 76.75 17.66L76.75 17.66Q76.75 18.89 77.18 19.67Q77.62 20.45 78.43 20.83Q79.25 21.22 80.40 21.22L80.40 21.22Q81.22 21.22 81.95 21Q82.68 20.78 83.47 20.38L83.47 20.38L84.65 22.51Q83.62 23.16 82.37 23.53Q81.12 23.90 79.92 23.90ZM109.34 23.90L109.34 23.90Q107.88 23.90 106.57 23.40Q105.26 22.90 104.26 21.88Q103.25 20.86 102.67 19.36Q102.10 17.86 102.10 15.89L102.10 15.89Q102.10 13.30 103.09 11.46Q104.09 9.62 105.78 8.65Q107.47 7.68 109.56 7.68L109.56 7.68Q111.05 7.68 112.25 8.29Q113.45 8.90 114.24 9.67L114.24 9.67L112.30 11.86Q111.74 11.33 111.08 11.03Q110.42 10.73 109.56 10.73L109.56 10.73Q108.46 10.73 107.59 11.34Q106.73 11.95 106.22 13.08Q105.72 14.21 105.72 15.77L105.72 15.77Q105.72 17.38 106.22 18.52Q106.73 19.66 107.63 20.26Q108.53 20.86 109.70 20.86L109.70 20.86Q110.57 20.86 111.26 20.47Q111.96 20.09 112.54 19.46L112.54 19.46L114.48 21.60Q113.52 22.73 112.22 23.32Q110.93 23.90 109.34 23.90ZM122.40 23.90L122.40 23.90Q120.84 23.90 119.45 23.17Q118.06 22.44 117.19 21.04Q116.33 19.63 116.33 17.66L116.33 17.66Q116.33 15.70 117.19 14.29Q118.06 12.89 119.45 12.16Q120.84 11.42 122.40 11.42L122.40 11.42Q123.96 11.42 125.35 12.16Q126.74 12.89 127.61 14.29Q128.47 15.70 128.47 17.66L128.47 17.66Q128.47 19.63 127.61 21.04Q126.74 22.44 125.35 23.17Q123.96 23.90 122.40 23.90ZM122.40 21.05L122.40 21.05Q123.22 21.05 123.76 20.64Q124.30 20.23 124.57 19.46Q124.85 18.70 124.85 17.66L124.85 17.66Q124.85 16.63 124.57 15.86Q124.30 15.10 123.76 14.69Q123.22 14.28 122.40 14.28L122.40 14.28Q121.58 14.28 121.04 14.69Q120.50 15.10 120.23 15.86Q119.95 16.63 119.95 17.66L119.95 17.66Q119.95 18.70 120.23 19.46Q120.50 20.23 121.04 20.64Q121.58 21.05 122.40 21.05ZM135.74 23.90L135.74 23.90Q133.49 23.90 132.11 22.24Q130.73 20.57 130.73 17.66L130.73 17.66Q130.73 15.72 131.46 14.33Q132.19 12.94 133.37 12.18Q134.54 11.42 135.82 11.42L135.82 11.42Q136.80 11.42 137.52 11.76Q138.24 12.10 138.82 12.70L138.82 12.70L138.91 12.70L138.74 10.85L138.74 6.79L142.27 6.79L142.27 23.62L139.39 23.62L139.13 22.39L139.06 22.39Q138.41 23.04 137.53 23.47Q136.66 23.90 135.74 23.90ZM136.66 21.02L136.66 21.02Q137.26 21.02 137.77 20.77Q138.29 20.52 138.74 19.92L138.74 19.92L138.74 15.10Q138.26 14.66 137.77 14.48Q137.28 14.30 136.75 14.30L136.75 14.30Q136.10 14.30 135.55 14.66Q135.00 15.02 134.68 15.76Q134.35 16.49 134.35 17.62L134.35 17.62Q134.35 19.37 134.95 20.20Q135.55 21.02 136.66 21.02ZM151.92 23.90L151.92 23.90Q150.07 23.90 148.57 23.17Q147.07 22.44 146.20 21.04Q145.32 19.63 145.32 17.66L145.32 17.66Q145.32 15.72 146.21 14.32Q147.10 12.91 148.51 12.17Q149.93 11.42 151.51 11.42L151.51 11.42Q153.36 11.42 154.61 12.18Q155.86 12.94 156.49 14.22Q157.13 15.50 157.13 17.14L157.13 17.14Q157.13 17.62 157.07 18.06Q157.01 18.50 156.96 18.72L156.96 18.72L147.94 18.72L147.94 16.34L154.58 16.34L154.03 17.02Q154.03 15.58 153.42 14.84Q152.81 14.11 151.63 14.11L151.63 14.11Q150.77 14.11 150.12 14.50Q149.47 14.88 149.11 15.67Q148.75 16.46 148.75 17.66L148.75 17.66Q148.75 18.89 149.18 19.67Q149.62 20.45 150.43 20.83Q151.25 21.22 152.40 21.22L152.40 21.22Q153.22 21.22 153.95 21Q154.68 20.78 155.47 20.38L155.47 20.38L156.65 22.51Q155.62 23.16 154.37 23.53Q153.12 23.90 151.92 23.90ZM178.13 23.62L174.60 23.62L174.60 7.97L180.14 7.97Q181.85 7.97 183.23 8.44Q184.61 8.90 185.44 10.01Q186.26 11.11 186.26 13.01L186.26 13.01Q186.26 14.83 185.42 16.01Q184.58 17.18 183.19 17.75Q181.80 18.31 180.14 18.31L180.14 18.31L178.13 18.31L178.13 23.62ZM178.13 10.78L178.13 15.50L179.93 15.50Q181.39 15.50 182.10 14.86Q182.81 14.21 182.81 13.01L182.81 13.01Q182.81 11.76 182.08 11.27Q181.34 10.78 179.93 10.78L179.93 10.78L178.13 10.78ZM193.51 23.62L189.98 23.62L189.98 11.71L192.86 11.71L193.15 14.30L193.22 14.30Q194.11 12.84 195.37 12.13Q196.63 11.42 198.05 11.42L198.05 11.42Q198.84 11.42 199.33 11.54Q199.82 11.66 200.35 11.90L200.35 11.90L199.63 14.86Q199.08 14.69 198.64 14.60Q198.19 14.52 197.52 14.52L197.52 14.52Q196.42 14.52 195.35 15.17Q194.28 15.82 193.51 17.42L193.51 17.42L193.51 23.62ZM208.80 23.90L208.80 23.90Q207.24 23.90 205.85 23.17Q204.46 22.44 203.59 21.04Q202.73 19.63 202.73 17.66L202.73 17.66Q202.73 15.70 203.59 14.29Q204.46 12.89 205.85 12.16Q207.24 11.42 208.80 11.42L208.80 11.42Q210.36 11.42 211.75 12.16Q213.14 12.89 214.01 14.29Q214.87 15.70 214.87 17.66L214.87 17.66Q214.87 19.63 214.01 21.04Q213.14 22.44 211.75 23.17Q210.36 23.90 208.80 23.90ZM208.80 21.05L208.80 21.05Q209.62 21.05 210.16 20.64Q210.70 20.23 210.97 19.46Q211.25 18.70 211.25 17.66L211.25 17.66Q211.25 16.63 210.97 15.86Q210.70 15.10 210.16 14.69Q209.62 14.28 208.80 14.28L208.80 14.28Q207.98 14.28 207.44 14.69Q206.90 15.10 206.63 15.86Q206.35 16.63 206.35 17.66L206.35 17.66Q206.35 18.70 206.63 19.46Q206.90 20.23 207.44 20.64Q207.98 21.05 208.80 21.05ZM238.58 23.62L235.03 23.62Q235.13 21.72 235.40 20.11Q235.68 18.50 236.20 17.08Q236.71 15.65 237.53 14.24Q238.34 12.84 239.54 11.35L239.54 11.35L231.89 11.35L231.89 8.38L243.34 8.38L243.34 10.54Q241.90 12.14 241.01 13.56Q240.12 14.98 239.63 16.44Q239.14 17.90 238.91 19.64Q238.68 21.38 238.58 23.62L238.58 23.62ZM252.00 23.90L252.00 23.90Q250.25 23.90 248.93 22.98Q247.61 22.06 246.88 20.28Q246.14 18.50 246.14 15.94L246.14 15.94Q246.14 12.02 247.75 10.06Q249.36 8.09 252.00 8.09L252.00 8.09Q254.66 8.09 256.26 10.06Q257.86 12.02 257.86 15.94L257.86 15.94Q257.86 18.50 257.12 20.28Q256.39 22.06 255.08 22.98Q253.78 23.90 252.00 23.90ZM252.00 21.17L252.00 21.17Q252.77 21.17 253.38 20.69Q253.99 20.21 254.35 19.06Q254.71 17.90 254.71 15.94L254.71 15.94Q254.71 13.94 254.35 12.83Q253.99 11.71 253.38 11.27Q252.77 10.82 252.00 10.82L252.00 10.82Q251.26 10.82 250.63 11.27Q250.01 11.71 249.65 12.83Q249.29 13.94 249.29 15.94L249.29 15.94Q249.29 17.90 249.65 19.06Q250.01 20.21 250.63 20.69Q251.26 21.17 252.00 21.17ZM252.00 17.71L252.00 17.71Q251.26 17.71 250.73 17.21Q250.20 16.70 250.20 15.89L250.20 15.89Q250.20 15.05 250.73 14.56Q251.26 14.06 252.00 14.06L252.00 14.06Q252.77 14.06 253.28 14.56Q253.80 15.05 253.80 15.89L253.80 15.89Q253.80 16.70 253.28 17.21Q252.77 17.71 252.00 17.71ZM266.40 23.90L266.40 23.90Q264.65 23.90 263.33 22.98Q262.01 22.06 261.28 20.28Q260.54 18.50 260.54 15.94L260.54 15.94Q260.54 12.02 262.15 10.06Q263.76 8.09 266.40 8.09L266.40 8.09Q269.06 8.09 270.66 10.06Q272.26 12.02 272.26 15.94L272.26 15.94Q272.26 18.50 271.52 20.28Q270.79 22.06 269.48 22.98Q268.18 23.90 266.40 23.90ZM266.40 21.17L266.40 21.17Q267.17 21.17 267.78 20.69Q268.39 20.21 268.75 19.06Q269.11 17.90 269.11 15.94L269.11 15.94Q269.11 13.94 268.75 12.83Q268.39 11.71 267.78 11.27Q267.17 10.82 266.40 10.82L266.40 10.82Q265.66 10.82 265.03 11.27Q264.41 11.71 264.05 12.83Q263.69 13.94 263.69 15.94L263.69 15.94Q263.69 17.90 264.05 19.06Q264.41 20.21 265.03 20.69Q265.66 21.17 266.40 21.17ZM266.40 17.71L266.40 17.71Q265.66 17.71 265.13 17.21Q264.60 16.70 264.60 15.89L264.60 15.89Q264.60 15.05 265.13 14.56Q265.66 14.06 266.40 14.06L266.40 14.06Q267.17 14.06 267.68 14.56Q268.20 15.05 268.20 15.89L268.20 15.89Q268.20 16.70 267.68 17.21Q267.17 17.71 266.40 17.71ZM293.26 23.62L289.73 23.62L289.73 11.71L292.61 11.71L292.87 13.30L292.97 13.30Q293.74 12.53 294.73 11.98Q295.73 11.42 297.07 11.42L297.07 11.42Q299.09 11.42 300.02 12.72Q300.96 14.02 300.96 16.27L300.96 16.27L300.96 23.62L297.43 23.62L297.43 16.73Q297.43 15.53 297.04 14.98Q296.64 14.42 295.68 14.42L295.68 14.42Q294.96 14.42 294.42 14.75Q293.88 15.07 293.26 15.67L293.26 15.67L293.26 23.62ZM309.60 23.90L309.60 23.90Q308.04 23.90 306.65 23.17Q305.26 22.44 304.39 21.04Q303.53 19.63 303.53 17.66L303.53 17.66Q303.53 15.70 304.39 14.29Q305.26 12.89 306.65 12.16Q308.04 11.42 309.60 11.42L309.60 11.42Q311.16 11.42 312.55 12.16Q313.94 12.89 314.81 14.29Q315.67 15.70 315.67 17.66L315.67 17.66Q315.67 19.63 314.81 21.04Q313.94 22.44 312.55 23.17Q311.16 23.90 309.60 23.90ZM309.60 21.05L309.60 21.05Q310.42 21.05 310.96 20.64Q311.50 20.23 311.77 19.46Q312.05 18.70 312.05 17.66L312.05 17.66Q312.05 16.63 311.77 15.86Q311.50 15.10 310.96 14.69Q310.42 14.28 309.60 14.28L309.60 14.28Q308.78 14.28 308.24 14.69Q307.70 15.10 307.43 15.86Q307.15 16.63 307.15 17.66L307.15 17.66Q307.15 18.70 307.43 19.46Q307.70 20.23 308.24 20.64Q308.78 21.05 309.60 21.05ZM323.11 23.62L319.58 23.62L319.58 11.71L322.46 11.71L322.75 14.30L322.82 14.30Q323.71 12.84 324.97 12.13Q326.23 11.42 327.65 11.42L327.65 11.42Q328.44 11.42 328.93 11.54Q329.42 11.66 329.95 11.90L329.95 11.90L329.23 14.86Q328.68 14.69 328.24 14.60Q327.79 14.52 327.12 14.52L327.12 14.52Q326.02 14.52 324.95 15.17Q323.88 15.82 323.11 17.42L323.11 17.42L323.11 23.62ZM335.40 23.62L332.04 23.62L332.04 11.71L334.70 11.71L334.94 13.18L335.04 13.18Q335.38 12.46 335.98 11.94Q336.58 11.42 337.61 11.42L337.61 11.42Q338.38 11.42 338.93 11.92Q339.48 12.41 339.67 13.37L339.67 13.37Q340.01 12.55 340.64 11.99Q341.28 11.42 342.31 11.42L342.31 11.42Q343.58 11.42 344.28 12.46Q344.98 13.49 344.98 15.26L344.98 15.26L344.98 23.62L341.62 23.62L341.62 15.50Q341.62 14.42 340.97 14.42L340.97 14.42Q340.63 14.42 340.38 14.70Q340.13 14.98 339.89 15.58L339.89 15.58L339.89 23.62L337.13 23.62L337.13 15.50Q337.13 14.95 336.96 14.69Q336.79 14.42 336.46 14.42L336.46 14.42Q336.12 14.42 335.88 14.70Q335.64 14.98 335.40 15.58L335.40 15.58L335.40 23.62ZM350.98 23.90L350.98 23.90Q349.78 23.90 348.90 23.42Q348.02 22.94 347.54 22.13Q347.06 21.31 347.06 20.30L347.06 20.30Q347.06 18.31 348.88 17.26Q350.69 16.20 354.91 15.96L354.91 15.96Q354.84 15.41 354.55 15.02Q354.26 14.64 353.72 14.44Q353.18 14.23 352.37 14.23L352.37 14.23Q351.79 14.23 351.22 14.36Q350.64 14.50 350.03 14.75Q349.42 15 348.74 15.34L348.74 15.34L347.50 13.03Q348.31 12.55 349.21 12.19Q350.11 11.83 351.08 11.63Q352.06 11.42 353.06 11.42L353.06 11.42Q354.74 11.42 355.94 12.01Q357.14 12.60 357.79 13.79Q358.44 14.98 358.44 16.80L358.44 16.80L358.44 23.62L355.56 23.62L355.30 22.27L355.20 22.27Q354.31 22.94 353.23 23.42Q352.15 23.90 350.98 23.90ZM352.10 21.17L352.10 21.17Q352.90 21.17 353.59 20.84Q354.29 20.52 354.91 20.04L354.91 20.04L354.91 18.07Q353.16 18.17 352.19 18.43Q351.22 18.70 350.83 19.10Q350.45 19.51 350.45 20.04L350.45 20.04Q350.45 20.40 350.65 20.66Q350.86 20.93 351.23 21.05Q351.60 21.17 352.10 21.17ZM369.48 23.90L369.48 23.90Q367.25 23.90 366.10 22.56Q364.94 21.22 364.94 18.96L364.94 18.96L364.94 9.58L361.22 9.58L361.22 6.82L368.47 6.82L368.47 19.10Q368.47 20.21 369.07 20.63Q369.67 21.05 370.39 21.05L370.39 21.05Q370.82 21.05 371.27 20.95Q371.71 20.86 372.26 20.66L372.26 20.66L373.03 23.26Q372.12 23.54 371.36 23.72Q370.61 23.90 369.48 23.90Z"/></svg>