<svg xmlns="http://www.w3.org/2000/svg" xmlns:xlink="http://www.w3.org/1999/xlink" width="274.7578125" height="29.58984375"><path fill="black" d="M4.41 24.20L2.58 24.20L2.58 7.31L6.05 7.31L10.85 20.14L11.26 20.14L16.09 7.31L19.57 7.31L19.57 24.20L17.74 24.20L17.74 9.13L17.32 9.13L12.41 22.16L9.70 22.16L4.83 9.13L4.41 9.13L4.41 24.20ZM28.88 24.47L28.88 24.47Q26.96 24.47 25.79 23.85Q24.62 23.23 24.09 21.87Q23.55 20.51 23.55 18.28L23.55 18.28Q23.55 15.18 24.70 13.63Q25.84 12.08 28.71 12.08L28.71 12.08Q30.69 12.08 31.80 12.78Q32.92 13.48 33.38 14.92Q33.83 16.36 33.83 18.57L33.83 18.57L25.38 18.57Q25.38 20.95 26.20 21.98Q27.01 23.00 28.92 23.00L28.92 23.00Q30.48 23.00 31.17 22.54Q31.85 22.08 31.90 20.94L31.90 20.94L33.74 20.94Q33.74 22.75 32.55 23.61Q31.36 24.47 28.88 24.47ZM25.41 17.24L25.41 17.24L32.00 17.24Q31.96 15.82 31.63 15.01Q31.31 14.20 30.61 13.86Q29.91 13.52 28.71 13.52L28.71 13.52Q27.52 13.52 26.81 13.86Q26.10 14.20 25.78 15.01Q25.45 15.82 25.41 17.24ZM42.49 12.32L42.49 13.75L39.59 13.75L39.59 21.06Q39.59 22.05 40.01 22.48Q40.44 22.91 41.39 22.91L41.39 22.91Q41.77 22.91 42.11 22.87Q42.46 22.83 42.75 22.78L42.75 22.78L42.75 24.34Q42.45 24.40 42.04 24.45Q41.63 24.50 41.04 24.50L41.04 24.50Q37.78 24.50 37.78 20.81L37.78 20.81L37.78 13.75L35.65 13.75L35.65 12.32L37.78 12.32L37.78 9.07L39.57 9.07L39.57 12.32L42.49 12.32ZM45.68 12.35L47.16 12.35L47.38 14.19Q48 12.94 49.05 12.51Q50.11 12.08 51.21 12.08L51.21 12.08L51.43 12.08L51.43 13.88L51.18 13.88Q49.90 13.88 48.88 14.38Q47.86 14.88 47.48 16.02L47.48 16.02L47.48 24.20L45.68 24.20L45.68 12.35ZM58.90 24.47L58.90 24.47Q56.94 24.47 55.74 23.85Q54.54 23.23 53.99 21.86Q53.45 20.50 53.45 18.27L53.45 18.27Q53.45 16.04 53.99 14.68Q54.54 13.32 55.74 12.70Q56.94 12.08 58.90 12.08L58.90 12.08Q60.88 12.08 62.09 12.70Q63.29 13.31 63.84 14.67Q64.39 16.02 64.39 18.23L64.39 18.23Q64.39 20.47 63.84 21.85Q63.29 23.23 62.09 23.85Q60.88 24.47 58.90 24.47ZM58.97 23.00L58.97 23.00Q60.34 23.00 61.12 22.57Q61.90 22.14 62.23 21.11Q62.55 20.09 62.55 18.29L62.55 18.29Q62.55 16.49 62.22 15.45Q61.89 14.41 61.09 13.98Q60.29 13.55 58.90 13.55L58.90 13.55Q57.53 13.55 56.74 13.99Q55.96 14.43 55.62 15.46Q55.29 16.50 55.29 18.32L55.29 18.32Q55.29 20.10 55.62 21.12Q55.96 22.15 56.77 22.58Q57.57 23.00 58.97 23.00ZM69.71 28.76L67.91 28.76L67.91 12.35L69.35 12.35L69.56 13.92Q69.84 13.48 70.30 13.05Q70.76 12.63 71.55 12.36Q72.34 12.08 73.62 12.08L73.62 12.08Q76.03 12.08 77.19 13.48Q78.35 14.88 78.35 18.18L78.35 18.18Q78.35 21.63 77.19 23.05Q76.02 24.47 73.59 24.47L73.59 24.47Q72.09 24.47 71.20 24.10Q70.30 23.73 69.71 22.88L69.71 22.88L69.71 28.76ZM73.17 23.00L73.17 23.00Q74.45 23.00 75.18 22.56Q75.90 22.11 76.21 21.05Q76.52 19.99 76.52 18.15L76.52 18.15Q76.52 16.39 76.22 15.39Q75.91 14.39 75.19 13.97Q74.47 13.55 73.21 13.55L73.21 13.55Q71.88 13.55 71.12 13.98Q70.36 14.41 70.04 15.45Q69.71 16.48 69.71 18.27L69.71 18.27Q69.71 20.16 70.00 21.19Q70.29 22.22 71.04 22.61Q71.79 23.00 73.17 23.00ZM83.67 24.20L81.87 24.20L81.87 7.30L83.67 7.30L83.67 13.77Q84.26 12.89 85.12 12.49Q85.98 12.08 87.64 12.08L87.64 12.08Q89.92 12.08 90.88 13.21Q91.85 14.34 91.85 17.00L91.85 17.00L91.85 24.20L90.05 24.20L90.05 17.00Q90.05 15.16 89.37 14.38Q88.70 13.59 87.12 13.59L87.12 13.59Q85.25 13.59 84.46 14.40Q83.67 15.21 83.67 17.10L83.67 17.10L83.67 24.20ZM100.76 24.47L100.76 24.47Q98.80 24.47 97.60 23.85Q96.40 23.23 95.85 21.86Q95.31 20.50 95.31 18.27L95.31 18.27Q95.31 16.04 95.85 14.68Q96.40 13.32 97.60 12.70Q98.80 12.08 100.76 12.08L100.76 12.08Q102.74 12.08 103.95 12.70Q105.15 13.31 105.70 14.67Q106.25 16.02 106.25 18.23L106.25 18.23Q106.25 20.47 105.70 21.85Q105.15 23.23 103.95 23.85Q102.74 24.47 100.76 24.47ZM100.83 23.00L100.83 23.00Q102.20 23.00 102.98 22.57Q103.76 22.14 104.09 21.11Q104.41 20.09 104.41 18.29L104.41 18.29Q104.41 16.49 104.08 15.45Q103.75 14.41 102.95 13.98Q102.15 13.55 100.76 13.55L100.76 13.55Q99.39 13.55 98.60 13.99Q97.82 14.43 97.48 15.46Q97.15 16.50 97.15 18.32L97.15 18.32Q97.15 20.10 97.48 21.12Q97.82 22.15 98.63 22.58Q99.43 23.00 100.83 23.00ZM115.48 24.47L115.48 24.47Q114.20 24.47 113.41 24.19Q112.62 23.92 112.16 23.49Q111.70 23.06 111.42 22.63L111.42 22.63L111.21 24.20L109.77 24.20L109.77 7.31L111.57 7.31L111.57 13.68Q112.16 12.82 113.06 12.45Q113.95 12.08 115.45 12.08L115.45 12.08Q117.88 12.08 119.04 13.49Q120.21 14.91 120.21 18.38L120.21 18.38Q120.21 21.66 119.05 23.06Q117.89 24.47 115.48 24.47ZM115.07 23.00L115.07 23.00Q116.33 23.00 117.05 22.58Q117.77 22.16 118.08 21.15Q118.38 20.14 118.38 18.40L118.38 18.40Q118.38 16.55 118.07 15.49Q117.76 14.44 117.04 13.99Q116.31 13.55 115.03 13.55L115.03 13.55Q113.65 13.55 112.90 13.94Q112.15 14.33 111.86 15.36Q111.57 16.38 111.57 18.28L111.57 18.28Q111.57 20.07 111.90 21.11Q112.22 22.14 112.98 22.57Q113.74 23.00 115.07 23.00ZM123.43 10.21L123.43 7.96L125.85 7.96L125.85 10.21L123.43 10.21ZM125.54 12.35L125.54 24.20L123.74 24.20L123.74 12.35L125.54 12.35ZM137.31 20.57L137.31 20.57L139.15 20.57Q139.14 22.68 138.07 23.57Q137.00 24.47 134.52 24.47L134.52 24.47Q132.55 24.47 131.35 23.85Q130.15 23.23 129.60 21.85Q129.06 20.47 129.06 18.23L129.06 18.23Q129.06 16.01 129.61 14.65Q130.16 13.30 131.36 12.69Q132.56 12.07 134.53 12.07L134.53 12.07Q136.85 12.07 137.98 13.03Q139.11 13.98 139.15 15.97L139.15 15.97L137.31 15.97Q137.21 14.65 136.56 14.09Q135.91 13.54 134.48 13.54L134.48 13.54Q133.13 13.54 132.34 13.97Q131.55 14.40 131.23 15.43Q130.90 16.46 130.90 18.26L130.90 18.26Q130.90 20.06 131.23 21.10Q131.57 22.14 132.38 22.57Q133.18 23.00 134.58 23.00L134.58 23.00Q136.04 23.00 136.66 22.46Q137.29 21.91 137.31 20.57ZM157.43 24.21L155.39 24.21L155.39 20.29L148.03 20.29L148.03 18.43L154.95 7.31L157.43 7.31L157.43 18.56L159.57 18.56L159.57 20.29L157.43 20.29L157.43 24.21ZM149.84 18.59L155.39 18.59L155.39 9.55L149.84 18.59ZM168.27 24.47L168.27 24.47Q165.91 24.47 164.55 23.56Q163.20 22.65 162.62 20.70Q162.04 18.74 162.04 15.56L162.04 15.56Q162.04 12.53 162.62 10.63Q163.20 8.73 164.55 7.84Q165.91 6.95 168.27 6.95L168.27 6.95Q170.63 6.95 171.98 7.84Q173.33 8.73 173.89 10.63Q174.46 12.53 174.46 15.56L174.46 15.56Q174.46 18.74 173.89 20.70Q173.33 22.65 171.98 23.56Q170.63 24.47 168.27 24.47ZM168.27 22.76L168.27 22.76Q169.48 22.76 170.27 22.44Q171.06 22.11 171.52 21.32Q171.98 20.52 172.18 19.12Q172.37 17.72 172.37 15.56L172.37 15.56Q172.37 12.93 172.01 11.42Q171.66 9.91 170.77 9.29Q169.88 8.66 168.27 8.66L168.27 8.66Q166.66 8.66 165.76 9.29Q164.86 9.93 164.49 11.43Q164.12 12.94 164.12 15.56L164.12 15.56Q164.12 17.73 164.32 19.13Q164.52 20.53 164.99 21.32Q165.46 22.11 166.26 22.44Q167.06 22.76 168.27 22.76ZM183.97 24.47L183.97 24.47Q181.62 24.47 180.26 23.56Q178.90 22.65 178.32 20.70Q177.74 18.74 177.74 15.56L177.74 15.56Q177.74 12.53 178.32 10.63Q178.90 8.73 180.26 7.84Q181.62 6.95 183.97 6.95L183.97 6.95Q186.33 6.95 187.68 7.84Q189.04 8.73 189.60 10.63Q190.16 12.53 190.16 15.56L190.16 15.56Q190.16 18.74 189.60 20.70Q189.04 22.65 187.68 23.56Q186.33 24.47 183.97 24.47ZM183.97 22.76L183.97 22.76Q185.18 22.76 185.97 22.44Q186.76 22.11 187.22 21.32Q187.69 20.52 187.88 19.12Q188.07 17.72 188.07 15.56L188.07 15.56Q188.07 12.93 187.72 11.42Q187.36 9.91 186.47 9.29Q185.58 8.66 183.97 8.66L183.97 8.66Q182.37 8.66 181.46 9.29Q180.56 9.93 180.19 11.43Q179.82 12.94 179.82 15.56L179.82 15.56Q179.82 17.73 180.02 19.13Q180.22 20.53 180.69 21.32Q181.16 22.11 181.96 22.44Q182.77 22.76 183.97 22.76ZM202.04 24.20L200.24 24.20L200.24 12.35L201.71 12.35L201.86 14.06Q202.44 12.98 203.40 12.53Q204.36 12.08 206.03 12.08L206.03 12.08Q208.30 12.08 209.27 13.21Q210.23 14.34 210.23 17.00L210.23 17.00L210.23 24.20L208.43 24.20L208.43 17.00Q208.43 15.15 207.76 14.37Q207.08 13.59 205.50 13.59L205.50 13.59Q203.64 13.59 202.84 14.40Q202.04 15.21 202.04 17.10L202.04 17.10L202.04 24.20ZM219.14 24.47L219.14 24.47Q217.18 24.47 215.98 23.85Q214.78 23.23 214.24 21.86Q213.69 20.50 213.69 18.27L213.69 18.27Q213.69 16.04 214.24 14.68Q214.78 13.32 215.98 12.70Q217.18 12.08 219.14 12.08L219.14 12.08Q221.12 12.08 222.33 12.70Q223.54 13.31 224.09 14.67Q224.64 16.02 224.64 18.23L224.64 18.23Q224.64 20.47 224.09 21.85Q223.54 23.23 222.33 23.85Q221.12 24.47 219.14 24.47ZM219.21 23.00L219.21 23.00Q220.58 23.00 221.36 22.57Q222.14 22.14 222.47 21.11Q222.80 20.09 222.80 18.29L222.80 18.29Q222.80 16.49 222.46 15.45Q222.13 14.41 221.33 13.98Q220.54 13.55 219.14 13.55L219.14 13.55Q217.77 13.55 216.98 13.99Q216.20 14.43 215.87 15.46Q215.53 16.50 215.53 18.32L215.53 18.32Q215.53 20.10 215.87 21.12Q216.20 22.15 217.01 22.58Q217.82 23.00 219.21 23.00ZM228.15 12.35L229.63 12.35L229.85 14.19Q230.47 12.94 231.53 12.51Q232.58 12.08 233.68 12.08L233.68 12.08L233.91 12.08L233.91 13.88L233.65 13.88Q232.37 13.88 231.35 14.38Q230.33 14.88 229.96 16.02L229.96 16.02L229.96 24.20L228.15 24.20L228.15 12.35ZM238.55 24.20L236.74 24.20L236.74 12.35L238.22 12.35L238.37 14.03Q238.86 13.09 239.85 12.59Q240.83 12.08 242.14 12.08L242.14 12.08Q243.52 12.08 244.34 12.54Q245.16 13.00 245.63 14.06L245.63 14.06Q246.54 12.08 249.60 12.08L249.60 12.08Q251.66 12.08 252.54 13.20Q253.43 14.31 253.43 16.55L253.43 16.55L253.43 24.20L251.63 24.20L251.63 16.65Q251.63 15.07 251.03 14.33Q250.43 13.59 249.04 13.59L249.04 13.59Q247.39 13.59 246.69 14.37Q245.99 15.15 245.99 16.86L245.99 16.86L245.99 24.20L244.18 24.20L244.18 16.65Q244.18 15.07 243.59 14.33Q242.99 13.59 241.59 13.59L241.59 13.59Q239.95 13.59 239.25 14.37Q238.55 15.15 238.55 16.86L238.55 16.86L238.55 24.20ZM258.90 15.55L258.90 15.55L257.27 15.55Q257.27 13.78 258.41 12.94Q259.55 12.09 261.91 12.09L261.91 12.09Q264.32 12.09 265.47 12.97Q266.63 13.85 266.63 15.68L266.63 15.68L266.63 21.73Q266.63 22.51 266.86 22.76Q267.09 23.00 267.80 22.95L267.80 22.95L267.80 24.38Q267.57 24.46 267.40 24.47Q267.22 24.48 266.98 24.48L266.98 24.48Q266.12 24.48 265.60 24.02Q265.08 23.57 265.08 22.82L265.08 22.82Q264.49 23.60 263.43 24.04Q262.37 24.47 260.99 24.47L260.99 24.47Q259.01 24.47 257.94 23.54Q256.88 22.61 256.88 20.89L256.88 20.89Q256.88 18.93 258.13 18.09Q259.39 17.25 262.36 17.25L262.36 17.25L264.82 17.25L264.82 15.67Q264.82 14.52 264.15 14.03Q263.48 13.55 261.91 13.55L261.91 13.55Q260.29 13.55 259.59 14.01Q258.90 14.47 258.90 15.55ZM264.83 20.63L264.83 20.63L264.83 18.59L262.35 18.59Q260.40 18.59 259.56 19.11Q258.73 19.63 258.73 20.86L258.73 20.86Q258.73 21.90 259.43 22.45Q260.13 23.00 261.42 23.00L261.42 23.00Q263.06 23.00 263.95 22.39Q264.83 21.79 264.83 20.63ZM272.65 24.20L270.84 24.20L270.84 7.31L272.65 7.31L272.65 24.20Z"/></svg>