<svg xmlns="http://www.w3.org/2000/svg" xmlns:xlink="http://www.w3.org/1999/xlink" width="187.344" height="28.656000000000002"><path fill="black" d="M7.25 23.47L7.25 23.47Q5.88 23.47 4.75 23.12Q3.62 22.78 2.82 22.07Q2.02 21.36 1.57 20.29Q1.13 19.22 1.13 17.78L1.13 17.78Q1.13 15.77 1.50 14.00Q1.87 12.24 2.58 10.80Q3.29 9.36 4.32 8.33Q5.35 7.30 6.67 6.74Q7.99 6.19 9.58 6.19L9.58 6.19Q10.73 6.19 11.80 6.36Q12.86 6.53 13.78 6.84L13.78 6.84L13.34 7.99Q12.70 7.80 12.08 7.68Q11.47 7.56 10.86 7.49Q10.25 7.42 9.55 7.42L9.55 7.42Q7.97 7.42 6.67 8.18Q5.38 8.95 4.45 10.33Q3.53 11.71 3.04 13.58Q2.54 15.46 2.54 17.66L2.54 17.66Q2.54 18.89 2.90 19.75Q3.26 20.62 3.91 21.19Q4.56 21.77 5.45 22.03Q6.34 22.30 7.42 22.30L7.42 22.30Q8.35 22.30 9.16 22.15Q9.96 22.01 10.51 21.79L10.51 21.79L11.42 16.06L7.42 16.06L7.58 14.93L12.89 14.93L11.66 22.68Q10.90 23.02 9.76 23.24Q8.62 23.47 7.25 23.47ZM15.70 17.47L15.82 16.49Q16.56 16.51 17.39 16.46Q18.22 16.42 19.03 16.27L19.03 16.27Q21.12 15.91 22.31 15.10Q23.50 14.28 23.50 13.03L23.50 13.03Q23.50 12.17 22.88 11.74Q22.27 11.30 21.10 11.30L21.10 11.30Q19.63 11.30 18.48 12.20Q17.33 13.10 16.67 14.71Q16.01 16.32 16.01 18.46L16.01 18.46Q16.01 19.68 16.42 20.53Q16.82 21.38 17.59 21.84Q18.36 22.30 19.46 22.30L19.46 22.30Q20.04 22.30 20.66 22.20Q21.29 22.10 21.95 21.92Q22.61 21.74 23.26 21.48L23.26 21.48L23.50 22.61Q22.56 23.02 21.44 23.24Q20.33 23.47 19.25 23.47L19.25 23.47Q17.81 23.47 16.78 22.88Q15.74 22.30 15.19 21.20Q14.64 20.11 14.64 18.58L14.64 18.58Q14.64 16.70 15.11 15.17Q15.58 13.63 16.44 12.52Q17.30 11.40 18.55 10.79Q19.80 10.18 21.34 10.18L21.34 10.18Q22.42 10.18 23.21 10.50Q24 10.82 24.42 11.41Q24.84 12.00 24.84 12.82L24.84 12.82Q24.84 14.54 23.38 15.68Q21.91 16.82 19.30 17.28L19.30 17.28Q18.36 17.45 17.42 17.48Q16.49 17.52 15.70 17.47L15.70 17.47ZM30.10 23.47L30.10 23.47Q28.68 23.47 27.72 22.98Q26.76 22.49 26.27 21.52Q25.78 20.54 25.78 19.06L25.78 19.06Q25.78 17.88 25.94 16.79Q26.11 15.70 26.44 14.71Q26.76 13.73 27.24 12.90Q27.72 12.07 28.36 11.45Q28.99 10.82 29.78 10.50Q30.58 10.18 31.54 10.18L31.54 10.18Q32.88 10.18 33.84 10.67Q34.80 11.16 35.30 12.16Q35.81 13.15 35.81 14.64L35.81 14.64Q35.81 15.82 35.65 16.93Q35.50 18.05 35.17 19.03Q34.85 20.02 34.37 20.83Q33.89 21.65 33.26 22.25Q32.64 22.85 31.84 23.16Q31.03 23.47 30.10 23.47ZM30.05 22.34L30.05 22.34Q30.77 22.34 31.38 22.04Q31.99 21.74 32.47 21.22Q32.95 20.69 33.32 19.97Q33.70 19.25 33.94 18.38Q34.18 17.52 34.31 16.57Q34.44 15.62 34.44 14.62L34.44 14.62Q34.44 12.94 33.67 12.12Q32.90 11.30 31.54 11.30L31.54 11.30Q30.84 11.30 30.24 11.60Q29.64 11.90 29.15 12.46Q28.66 13.01 28.28 13.74Q27.91 14.47 27.65 15.34Q27.38 16.20 27.26 17.12Q27.14 18.05 27.14 19.01L27.14 19.01Q27.14 20.74 27.88 21.54Q28.61 22.34 30.05 22.34ZM39.34 10.42L40.58 10.42L40.34 12.02Q41.09 11.38 41.76 10.97Q42.43 10.56 43.07 10.37Q43.70 10.18 44.33 10.18L44.33 10.18Q44.83 10.18 45.28 10.25Q45.72 10.32 46.03 10.44L46.03 10.44L45.62 11.76Q45.24 11.64 44.82 11.58Q44.40 11.52 43.99 11.52L43.99 11.52Q43.18 11.52 42.25 11.93Q41.33 12.34 40.25 13.30L40.25 13.30L38.66 23.23L37.32 23.23L39.34 10.42ZM54.74 23.47L54.74 23.47Q54.36 23.47 54.04 23.33Q53.71 23.18 53.50 22.90Q53.28 22.61 53.18 22.25L53.18 22.25Q52.70 22.61 52.09 22.88Q51.48 23.16 50.82 23.32Q50.16 23.47 49.49 23.47L49.49 23.47Q48.31 23.47 47.48 22.98Q46.66 22.49 46.22 21.52Q45.79 20.54 45.79 19.13L45.79 19.13Q45.79 16.42 46.63 14.41Q47.47 12.41 49.01 11.29Q50.54 10.18 52.63 10.18L52.63 10.18Q53.09 10.18 53.58 10.22Q54.07 10.27 54.53 10.37Q54.98 10.46 55.40 10.60Q55.82 10.73 56.18 10.90L56.18 10.90Q55.80 13.30 55.52 15.04Q55.25 16.78 55.06 17.96Q54.86 19.15 54.74 19.87Q54.62 20.59 54.58 20.94Q54.53 21.29 54.53 21.34L54.53 21.34Q54.53 21.82 54.72 22.04Q54.91 22.27 55.30 22.27L55.30 22.27Q55.49 22.27 55.66 22.24Q55.82 22.20 56.02 22.13L56.02 22.13L56.02 23.21Q55.75 23.33 55.43 23.40Q55.10 23.47 54.74 23.47ZM53.14 21.24L53.14 21.24L54.62 11.74Q54.19 11.52 53.64 11.41Q53.09 11.30 52.44 11.30L52.44 11.30Q50.93 11.30 49.74 12.28Q48.55 13.25 47.87 14.95Q47.18 16.66 47.18 18.91L47.18 18.91Q47.18 20.54 47.93 21.40Q48.67 22.25 49.97 22.25L49.97 22.25Q50.50 22.25 51.06 22.12Q51.62 21.98 52.16 21.77Q52.70 21.55 53.14 21.24ZM72.98 23.47L72.98 23.47Q72.53 23.47 72.14 23.29Q71.76 23.11 71.54 22.76Q71.33 22.42 71.33 21.91L71.33 21.91Q71.33 21.65 71.41 21Q71.50 20.35 71.64 19.46Q71.78 18.58 71.94 17.62Q72.10 16.66 72.24 15.77Q72.38 14.88 72.47 14.21Q72.55 13.54 72.55 13.25L72.55 13.25Q72.55 12.41 72.12 11.90Q71.69 11.40 70.61 11.40L70.61 11.40Q69.70 11.40 68.86 11.75Q68.02 12.10 67.20 12.62L67.20 12.62Q67.22 12.74 67.22 12.91Q67.22 13.08 67.22 13.22L67.22 13.22Q67.20 13.44 67.13 13.93Q67.06 14.42 66.96 15.11Q66.86 15.79 66.74 16.61Q66.62 17.42 66.48 18.31Q66.34 19.20 66.20 20.08Q66.07 20.95 65.95 21.76Q65.83 22.56 65.71 23.23L65.71 23.23L64.34 23.23Q64.46 22.54 64.58 21.68Q64.70 20.83 64.85 19.92Q64.99 19.01 65.14 18.11Q65.28 17.21 65.41 16.39Q65.54 15.58 65.64 14.90Q65.74 14.23 65.80 13.80Q65.86 13.37 65.86 13.27L65.86 13.27Q65.86 12.74 65.68 12.32Q65.50 11.90 65.09 11.65Q64.68 11.40 63.94 11.40L63.94 11.40Q63.14 11.40 62.33 11.71Q61.51 12.02 60.62 12.58L60.62 12.58L58.94 23.23L57.58 23.23L59.59 10.42L60.86 10.42L60.70 11.52Q61.70 10.92 62.66 10.55Q63.62 10.18 64.61 10.18L64.61 10.18Q65.62 10.18 66.22 10.58Q66.82 10.99 67.06 11.66L67.06 11.66Q67.78 11.21 68.46 10.87Q69.14 10.54 69.84 10.36Q70.54 10.18 71.23 10.18L71.23 10.18Q72.19 10.18 72.80 10.50Q73.42 10.82 73.72 11.40Q74.02 11.98 74.02 12.74L74.02 12.74Q74.02 13.01 73.92 13.68Q73.82 14.35 73.68 15.26Q73.54 16.18 73.38 17.16Q73.22 18.14 73.08 19.03Q72.94 19.92 72.84 20.57Q72.74 21.22 72.74 21.46L72.74 21.46Q72.74 21.84 72.95 22.06Q73.15 22.27 73.54 22.27L73.54 22.27Q73.70 22.27 73.88 22.24Q74.06 22.20 74.26 22.13L74.26 22.13L74.28 23.21Q73.97 23.35 73.63 23.41Q73.30 23.47 72.98 23.47ZM84.82 23.47L84.82 23.47Q84.43 23.47 84.11 23.33Q83.78 23.18 83.57 22.90Q83.35 22.61 83.26 22.25L83.26 22.25Q82.78 22.61 82.16 22.88Q81.55 23.16 80.89 23.32Q80.23 23.47 79.56 23.47L79.56 23.47Q78.38 23.47 77.56 22.98Q76.73 22.49 76.30 21.52Q75.86 20.54 75.86 19.13L75.86 19.13Q75.86 16.42 76.70 14.41Q77.54 12.41 79.08 11.29Q80.62 10.18 82.70 10.18L82.70 10.18Q83.16 10.18 83.65 10.22Q84.14 10.27 84.60 10.37Q85.06 10.46 85.48 10.60Q85.90 10.73 86.26 10.90L86.26 10.90Q85.87 13.30 85.60 15.04Q85.32 16.78 85.13 17.96Q84.94 19.15 84.82 19.87Q84.70 20.59 84.65 20.94Q84.60 21.29 84.60 21.34L84.60 21.34Q84.60 21.82 84.79 22.04Q84.98 22.27 85.37 22.27L85.37 22.27Q85.56 22.27 85.73 22.24Q85.90 22.20 86.09 22.13L86.09 22.13L86.09 23.21Q85.82 23.33 85.50 23.40Q85.18 23.47 84.82 23.47ZM83.21 21.24L83.21 21.24L84.70 11.74Q84.26 11.52 83.71 11.41Q83.16 11.30 82.51 11.30L82.51 11.30Q81 11.30 79.81 12.28Q78.62 13.25 77.94 14.95Q77.26 16.66 77.26 18.91L77.26 18.91Q77.26 20.54 78 21.40Q78.74 22.25 80.04 22.25L80.04 22.25Q80.57 22.25 81.13 22.12Q81.70 21.98 82.24 21.77Q82.78 21.55 83.21 21.24ZM93.62 21.98L93.62 21.98L94.27 20.95Q94.92 21.38 95.65 21.67Q96.38 21.96 97.26 22.10Q98.14 22.25 99.19 22.25L99.19 22.25Q100.66 22.25 101.78 21.73Q102.91 21.22 103.55 20.27Q104.18 19.32 104.18 18L104.18 18Q104.18 16.44 103.32 15.72Q102.46 15 100.75 15L100.75 15L97.90 15L98.06 13.92L100.75 13.92Q101.57 13.92 102.26 13.68Q102.96 13.44 103.50 12.98Q104.04 12.53 104.34 11.86Q104.64 11.18 104.64 10.32L104.64 10.32Q104.64 8.95 103.62 8.18Q102.60 7.42 100.87 7.42L100.87 7.42Q100.27 7.42 99.60 7.50Q98.93 7.58 98.28 7.75Q97.63 7.92 97.01 8.26L97.01 8.26L96.62 7.18Q97.30 6.79 98.08 6.59Q98.86 6.38 99.65 6.29Q100.44 6.19 101.14 6.19L101.14 6.19Q103.51 6.19 104.76 7.24Q106.01 8.28 106.01 10.01L106.01 10.01Q106.01 11.18 105.58 12.06Q105.14 12.94 104.44 13.50Q103.73 14.06 102.91 14.33L102.91 14.33Q103.70 14.50 104.32 14.93Q104.93 15.36 105.26 16.09Q105.60 16.82 105.60 17.93L105.60 17.93Q105.60 18.98 105.28 19.86Q104.95 20.74 104.36 21.41Q103.78 22.08 102.96 22.54Q102.14 22.99 101.16 23.23Q100.18 23.47 99.07 23.47L99.07 23.47Q97.37 23.47 96.01 23.10Q94.66 22.73 93.62 21.98ZM113.86 23.50L113.86 23.50Q112.06 23.50 110.88 22.85Q109.70 22.20 109.13 20.94Q108.55 19.68 108.55 17.78L108.55 17.78Q108.55 16.49 108.76 15.14Q108.96 13.80 109.37 12.49Q109.78 11.18 110.39 10.04Q111.00 8.90 111.82 8.04Q112.63 7.18 113.65 6.68Q114.67 6.19 115.90 6.19L115.90 6.19Q117.70 6.19 118.86 6.82Q120.02 7.44 120.60 8.70Q121.18 9.96 121.18 11.86L121.18 11.86Q121.18 13.18 120.97 14.53Q120.77 15.89 120.35 17.20Q119.93 18.50 119.32 19.64Q118.70 20.78 117.89 21.65Q117.07 22.51 116.06 23.00Q115.06 23.50 113.86 23.50ZM113.93 22.25L113.93 22.25Q114.89 22.25 115.69 21.80Q116.50 21.36 117.14 20.57Q117.79 19.78 118.28 18.74Q118.78 17.71 119.10 16.55Q119.42 15.38 119.59 14.18Q119.76 12.98 119.76 11.86L119.76 11.86Q119.78 10.37 119.35 9.38Q118.92 8.40 118.04 7.91Q117.17 7.42 115.82 7.42L115.82 7.42Q114.84 7.42 114.05 7.86Q113.26 8.30 112.60 9.08Q111.94 9.86 111.46 10.88Q110.98 11.90 110.64 13.07Q110.30 14.23 110.15 15.43Q109.99 16.63 109.99 17.78L109.99 17.78Q109.99 19.25 110.41 20.24Q110.83 21.24 111.71 21.74Q112.58 22.25 113.93 22.25ZM127.92 23.50L127.92 23.50Q126.12 23.50 124.94 22.85Q123.77 22.20 123.19 20.94Q122.62 19.68 122.62 17.78L122.62 17.78Q122.62 16.49 122.82 15.14Q123.02 13.80 123.43 12.49Q123.84 11.18 124.45 10.04Q125.06 8.90 125.88 8.04Q126.70 7.18 127.72 6.68Q128.74 6.19 129.96 6.19L129.96 6.19Q131.76 6.19 132.92 6.82Q134.09 7.44 134.66 8.70Q135.24 9.96 135.24 11.86L135.24 11.86Q135.24 13.18 135.04 14.53Q134.83 15.89 134.41 17.20Q133.99 18.50 133.38 19.64Q132.77 20.78 131.95 21.65Q131.14 22.51 130.13 23.00Q129.12 23.50 127.92 23.50ZM127.99 22.25L127.99 22.25Q128.95 22.25 129.76 21.80Q130.56 21.36 131.21 20.57Q131.86 19.78 132.35 18.74Q132.84 17.71 133.16 16.55Q133.49 15.38 133.66 14.18Q133.82 12.98 133.82 11.86L133.82 11.86Q133.85 10.37 133.42 9.38Q132.98 8.40 132.11 7.91Q131.23 7.42 129.89 7.42L129.89 7.42Q128.90 7.42 128.11 7.86Q127.32 8.30 126.66 9.08Q126 9.86 125.52 10.88Q125.04 11.90 124.70 13.07Q124.37 14.23 124.21 15.43Q124.06 16.63 124.06 17.78L124.06 17.78Q124.06 19.25 124.48 20.24Q124.90 21.24 125.77 21.74Q126.65 22.25 127.99 22.25ZM144.17 23.23L142.80 23.23L144.84 10.42L146.21 10.42L144.17 23.23ZM146.26 5.81L146.26 5.81Q146.64 5.81 146.82 5.93Q147 6.05 146.98 6.36L146.98 6.36Q146.95 6.79 146.84 7.04Q146.74 7.30 146.52 7.40Q146.30 7.51 145.94 7.51L145.94 7.51Q145.61 7.51 145.42 7.39Q145.22 7.27 145.22 6.96L145.22 6.96Q145.27 6.53 145.37 6.28Q145.46 6.02 145.68 5.92Q145.90 5.81 146.26 5.81ZM153.82 21.82L153.82 21.82L153.86 22.94Q153.07 23.23 152.35 23.35Q151.63 23.47 151.01 23.47L151.01 23.47Q150.17 23.47 149.59 23.21Q149.02 22.94 148.72 22.40Q148.42 21.86 148.42 21L148.42 21Q148.42 20.74 148.44 20.36Q148.46 19.99 148.54 19.63L148.54 19.63L149.81 11.54L147.72 11.54L147.89 10.58L150 10.42L150.74 7.30L151.87 7.30L151.37 10.42L155.57 10.42L155.38 11.54L151.20 11.54L149.90 19.56Q149.88 19.82 149.86 20.05Q149.83 20.28 149.83 20.50L149.83 20.50Q149.83 21.31 150.24 21.77Q150.65 22.22 151.63 22.22L151.63 22.22Q152.16 22.22 152.71 22.10Q153.26 21.98 153.82 21.82ZM164.57 23.47L164.57 23.47Q164.18 23.47 163.86 23.33Q163.54 23.18 163.32 22.90Q163.10 22.61 163.01 22.25L163.01 22.25Q162.53 22.61 161.92 22.88Q161.30 23.16 160.64 23.32Q159.98 23.47 159.31 23.47L159.31 23.47Q158.14 23.47 157.31 22.98Q156.48 22.49 156.05 21.52Q155.62 20.54 155.62 19.13L155.62 19.13Q155.62 16.42 156.46 14.41Q157.30 12.41 158.83 11.29Q160.37 10.18 162.46 10.18L162.46 10.18Q162.91 10.18 163.40 10.22Q163.90 10.27 164.35 10.37Q164.81 10.46 165.23 10.60Q165.65 10.73 166.01 10.90L166.01 10.90Q165.62 13.30 165.35 15.04Q165.07 16.78 164.88 17.96Q164.69 19.15 164.57 19.87Q164.45 20.59 164.40 20.94Q164.35 21.29 164.35 21.34L164.35 21.34Q164.35 21.82 164.54 22.04Q164.74 22.27 165.12 22.27L165.12 22.27Q165.31 22.27 165.48 22.24Q165.65 22.20 165.84 22.13L165.84 22.13L165.84 23.21Q165.58 23.33 165.25 23.40Q164.93 23.47 164.57 23.47ZM162.96 21.24L162.96 21.24L164.45 11.74Q164.02 11.52 163.46 11.41Q162.91 11.30 162.26 11.30L162.26 11.30Q160.75 11.30 159.56 12.28Q158.38 13.25 157.69 14.95Q157.01 16.66 157.01 18.91L157.01 18.91Q157.01 20.54 157.75 21.40Q158.50 22.25 159.79 22.25L159.79 22.25Q160.32 22.25 160.88 22.12Q161.45 21.98 161.99 21.77Q162.53 21.55 162.96 21.24ZM167.81 20.59L170.21 5.47L171.60 5.47L169.27 20.06Q169.25 20.35 169.20 20.65Q169.15 20.95 169.15 21.22L169.15 21.22Q169.15 21.48 169.25 21.71Q169.34 21.94 169.58 22.08Q169.82 22.22 170.26 22.22L170.26 22.22Q170.57 22.22 170.87 22.18Q171.17 22.13 171.53 22.01L171.53 22.01L171.53 23.14Q171.12 23.28 170.63 23.38Q170.14 23.47 169.63 23.47L169.63 23.47Q168.62 23.47 168.17 22.97Q167.71 22.46 167.71 21.62L167.71 21.62Q167.71 21.36 167.75 21.08Q167.78 20.81 167.81 20.59L167.81 20.59ZM174.31 23.23L172.94 23.23L174.98 10.42L176.35 10.42L174.31 23.23ZM176.40 5.81L176.40 5.81Q176.78 5.81 176.96 5.93Q177.14 6.05 177.12 6.36L177.12 6.36Q177.10 6.79 176.99 7.04Q176.88 7.30 176.66 7.40Q176.45 7.51 176.09 7.51L176.09 7.51Q175.75 7.51 175.56 7.39Q175.37 7.27 175.37 6.96L175.37 6.96Q175.42 6.53 175.51 6.28Q175.61 6.02 175.82 5.92Q176.04 5.81 176.40 5.81ZM182.33 23.47L182.33 23.47Q180.86 23.47 179.84 22.96Q178.82 22.44 178.30 21.49Q177.77 20.54 177.77 19.20L177.77 19.20Q177.77 17.23 178.22 15.59Q178.68 13.94 179.56 12.73Q180.43 11.52 181.64 10.85Q182.86 10.18 184.34 10.18L184.34 10.18Q184.90 10.18 185.45 10.22Q186 10.27 186.54 10.37Q187.08 10.46 187.61 10.66L187.61 10.66L187.20 11.83Q186.43 11.59 185.71 11.51Q184.99 11.42 184.27 11.42L184.27 11.42Q183.17 11.42 182.23 12.00Q181.30 12.58 180.60 13.62Q179.90 14.66 179.52 16.03Q179.14 17.40 179.14 18.96L179.14 18.96Q179.14 20.02 179.57 20.75Q180 21.48 180.79 21.86Q181.58 22.25 182.66 22.25L182.66 22.25Q183.29 22.25 183.82 22.20Q184.34 22.15 184.84 22.04Q185.33 21.94 185.78 21.82L185.78 21.82L185.93 22.92Q185.45 23.06 184.88 23.20Q184.32 23.33 183.67 23.40Q183.02 23.47 182.33 23.47Z"/></svg>