<svg xmlns="http://www.w3.org/2000/svg" xmlns:xlink="http://www.w3.org/1999/xlink" width="346.125" height="30"><path fill="black" d="M5.18 14.99L5.18 21.68Q4.05 21.61 2.51 21.61L2.51 21.61L2.13 21.61L2.13 5.96Q2.86 6.02 3.16 6.02L3.16 6.02L3.64 6.02Q4.57 6.02 5.18 5.93L5.18 5.93L5.18 12.18L10.69 12.18L10.69 5.96Q11.66 6.02 12.58 6.02Q13.50 6.02 13.73 5.93L13.73 5.93L13.73 21.68Q13.17 21.61 11.51 21.61L11.51 21.61L10.69 21.61L10.69 14.99L5.18 14.99ZM25.79 20.88L25.79 20.88Q24.13 21.79 22.78 21.79Q21.43 21.79 20.47 21.53Q19.51 21.28 18.84 20.79L18.84 20.79Q17.48 19.79 17.48 17.91L17.48 17.91Q17.48 16.22 19.15 15.09L19.15 15.09Q20.95 13.88 24.05 13.88L24.05 13.88L24.52 13.89Q24.66 13.90 24.83 13.90Q25.01 13.91 25.15 13.93L25.15 13.93Q25.05 12.06 23.53 11.74L23.53 11.74Q23.03 11.64 22.46 11.64Q21.89 11.64 21.35 11.74Q20.80 11.84 20.29 12L20.29 12Q19.15 12.36 18.66 12.83L18.66 12.83L18.62 12.81L18.27 10.22Q20.34 9.13 22.80 9.13L22.80 9.13Q26.63 9.13 27.69 11.88L27.69 11.88Q28.03 12.76 28.03 13.86L28.03 13.86L28.03 18.11Q28.03 19.46 28.99 19.96L28.99 19.96L26.87 21.90Q26.20 21.55 25.79 20.88ZM25.16 18.49L25.16 16.04Q24.84 15.98 24.50 15.98L24.50 15.98L24.04 15.98Q21.45 15.98 20.74 17.13L20.74 17.13Q20.53 17.47 20.53 17.85Q20.53 18.22 20.67 18.51Q20.80 18.80 21.12 18.98L21.12 18.98Q21.73 19.34 22.93 19.34Q24.13 19.34 25.17 18.76L25.17 18.76Q25.16 18.63 25.16 18.49L25.16 18.49ZM34.85 13.37L34.85 18.22Q34.85 20.86 34.95 21.61L34.95 21.61L31.89 21.61L31.89 9.36L34.85 9.36L34.85 10.42Q36.46 9.13 38.14 9.13L38.14 9.13Q40.14 9.13 41.04 10.85L41.04 10.85Q41.94 9.93 42.54 9.63L42.54 9.63Q43.54 9.13 44.54 9.13Q45.54 9.13 46.24 9.47Q46.95 9.81 47.40 10.43L47.40 10.43Q48.33 11.68 48.33 13.88L48.33 13.88L48.33 18.54Q48.33 20.52 48.39 20.92Q48.45 21.32 48.54 21.43Q48.64 21.55 48.71 21.64L48.71 21.64L48.69 21.69Q47.75 21.61 47.31 21.61L47.31 21.61L46.43 21.61Q46.00 21.61 45.36 21.64L45.36 21.64L45.36 15.30Q45.36 12.56 44.52 12.05L44.52 12.05Q44.24 11.88 43.86 11.88Q43.48 11.88 43.18 11.97Q42.89 12.06 42.63 12.26L42.63 12.26Q42.20 12.57 41.65 13.50L41.65 13.50Q41.66 13.59 41.66 13.69Q41.66 13.78 41.66 16.78Q41.66 19.78 41.80 21.61L41.80 21.61Q40.80 21.61 40.11 21.61Q39.41 21.61 38.78 21.64L38.78 21.64L38.78 15.29Q38.78 13.38 38.55 12.81Q38.32 12.23 38.06 12.06Q37.80 11.88 37.43 11.88L37.43 11.88Q35.88 11.88 34.85 13.37L34.85 13.37ZM54.89 13.37L54.89 18.22Q54.89 20.86 54.98 21.61L54.98 21.61L51.93 21.61L51.93 9.36L54.89 9.36L54.89 10.42Q56.50 9.13 58.18 9.13L58.18 9.13Q60.18 9.13 61.08 10.85L61.08 10.85Q61.98 9.93 62.58 9.63L62.58 9.63Q63.57 9.13 64.58 9.13Q65.58 9.13 66.28 9.47Q66.98 9.81 67.44 10.43L67.44 10.43Q68.37 11.68 68.37 13.88L68.37 13.88L68.37 18.54Q68.37 20.52 68.43 20.92Q68.48 21.32 68.58 21.43Q68.68 21.55 68.75 21.64L68.75 21.64L68.73 21.69Q67.79 21.61 67.35 21.61L67.35 21.61L66.47 21.61Q66.04 21.61 65.40 21.64L65.40 21.64L65.40 15.30Q65.40 12.56 64.56 12.05L64.56 12.05Q64.28 11.88 63.90 11.88Q63.52 11.88 63.22 11.97Q62.93 12.06 62.67 12.26L62.67 12.26Q62.24 12.57 61.69 13.50L61.69 13.50Q61.70 13.59 61.70 13.69Q61.70 13.78 61.70 16.78Q61.70 19.78 61.84 21.61L61.84 21.61Q60.84 21.61 60.15 21.61Q59.45 21.61 58.82 21.64L58.82 21.64L58.82 15.29Q58.82 13.38 58.59 12.81Q58.36 12.23 58.10 12.06Q57.84 11.88 57.47 11.88L57.47 11.88Q55.92 11.88 54.89 13.37L54.89 13.37ZM71.18 15.59L71.18 15.59Q71.18 14.21 71.65 13.04Q72.12 11.87 72.97 10.99L72.97 10.99Q74.80 9.13 77.75 9.13L77.75 9.13Q80.25 9.13 81.76 10.78L81.76 10.78Q83.25 12.38 83.25 14.79L83.25 14.79Q83.25 15.71 83.11 16.05L83.11 16.05Q81.94 16.38 78.34 16.38L78.34 16.38L74.21 16.38Q74.52 17.64 75.63 18.33Q76.75 19.03 78.53 19.03L78.53 19.03Q80.39 19.03 81.73 18.36L81.73 18.36Q82.08 18.19 82.25 18.04L82.25 18.04Q82.23 18.53 82.20 19.04L82.20 19.04L82.07 20.87Q81.18 21.48 79.18 21.71L79.18 21.71Q78.60 21.79 78.06 21.79L78.06 21.79Q75.08 21.79 73.14 20.05L73.14 20.05Q71.18 18.30 71.18 15.59ZM80.13 14.11L80.13 14.11Q79.65 11.59 77.39 11.59L77.39 11.59Q75.61 11.59 74.68 13.13L74.68 13.13Q74.40 13.59 74.25 14.16L74.25 14.16Q74.53 14.17 74.94 14.18L74.94 14.18L75.81 14.18Q76.24 14.19 76.64 14.19L76.64 14.19L77.31 14.19Q77.91 14.19 78.48 14.18L78.48 14.18L79.44 14.14Q79.83 14.13 80.13 14.11ZM88.56 13.08L88.56 20.30Q88.56 21.30 88.61 21.61L88.61 21.61L85.69 21.61L85.69 9.36L88.56 9.36L88.56 10.27Q89.55 9.13 90.65 9.13Q91.75 9.13 92.38 9.40L92.38 9.40L92.17 12.55L92.12 12.59Q91.71 11.86 90.42 11.86L90.42 11.86Q89.93 11.86 89.42 12.19Q88.91 12.53 88.56 13.08L88.56 13.08ZM97.93 21.79L97.93 21.79Q94.63 21.79 92.95 20.58L92.95 20.58Q92.98 20.23 93.02 19.78L93.02 19.78L93.13 18.94Q93.22 18.11 93.25 17.90Q93.27 17.70 93.28 17.68Q93.29 17.66 93.47 17.87Q93.64 18.07 94.14 18.36Q94.63 18.66 95.27 18.88L95.27 18.88Q96.67 19.36 98.18 19.36L98.18 19.36Q100.21 19.36 100.21 18.01L100.21 18.01Q100.21 17.58 99.82 17.37L99.82 17.37Q99.13 17.02 97.79 16.83Q96.45 16.65 95.59 16.30Q94.73 15.95 94.20 15.46L94.20 15.46Q93.20 14.53 93.20 13.03L93.20 13.03Q93.20 11.20 94.61 10.16L94.61 10.16Q96 9.13 98.46 9.13L98.46 9.13Q100.90 9.13 102.62 10.51L102.62 10.51Q102.54 10.82 102.45 11.10L102.45 11.10Q102.18 11.87 102.05 12.21L102.05 12.21L101.78 12.90Q101.75 13.00 101.74 13.00L101.74 13.00Q101.72 13.00 101.55 12.75L101.55 12.75Q100.82 11.89 99.26 11.63L99.26 11.63Q98.78 11.53 98.27 11.53L98.27 11.53Q96.14 11.53 96.14 12.82L96.14 12.82Q96.14 13.27 96.59 13.50L96.59 13.50Q97.42 13.95 98.87 14.16Q100.31 14.37 101.06 14.72Q101.81 15.08 102.27 15.59L102.27 15.59Q103.11 16.50 103.11 18.01L103.11 18.01Q103.11 19.66 101.79 20.70L101.79 20.70Q100.41 21.79 97.93 21.79ZM109.00 13.37L109.00 18.22Q109.00 20.86 109.09 21.61L109.09 21.61L106.03 21.61L106.03 9.36L109.00 9.36L109.00 10.42Q110.60 9.13 112.29 9.13L112.29 9.13Q114.28 9.13 115.18 10.85L115.18 10.85Q116.09 9.93 116.68 9.63L116.68 9.63Q117.68 9.13 118.68 9.13Q119.68 9.13 120.39 9.47Q121.09 9.81 121.55 10.43L121.55 10.43Q122.47 11.68 122.47 13.88L122.47 13.88L122.47 18.54Q122.47 20.52 122.53 20.92Q122.59 21.32 122.69 21.43Q122.79 21.55 122.86 21.64L122.86 21.64L122.84 21.69Q121.90 21.61 121.45 21.61L121.45 21.61L120.57 21.61Q120.14 21.61 119.51 21.64L119.51 21.64L119.51 15.30Q119.51 12.56 118.66 12.05L118.66 12.05Q118.38 11.88 118.00 11.88Q117.62 11.88 117.33 11.97Q117.04 12.06 116.78 12.26L116.78 12.26Q116.34 12.57 115.79 13.50L115.79 13.50Q115.80 13.59 115.80 13.69Q115.80 13.78 115.80 16.78Q115.80 19.78 115.95 21.61L115.95 21.61Q114.95 21.61 114.25 21.61Q113.55 21.61 112.92 21.64L112.92 21.64L112.92 15.29Q112.92 13.38 112.69 12.81Q112.46 12.23 112.21 12.06Q111.95 11.88 111.57 11.88L111.57 11.88Q110.03 11.88 109.00 13.37L109.00 13.37ZM128.13 7.77L125.50 5.87Q126.43 4.41 127.45 3.29L127.45 3.29L129.97 5.27Q129.47 5.89 129.04 6.49L129.04 6.49Q129.04 6.49 128.13 7.77L128.13 7.77ZM128.58 9.36L128.58 20.30Q128.58 21.30 128.63 21.61L128.63 21.61L125.65 21.61L125.65 9.36L128.58 9.36ZM137.32 19.03L137.32 19.03Q138.83 19.03 139.39 18.25L139.39 18.25L139.49 18.25L139.52 20.96Q138.95 21.54 137.39 21.73L137.39 21.73Q136.97 21.79 136.34 21.79Q135.71 21.79 134.98 21.55Q134.25 21.32 133.73 20.79L133.73 20.79Q132.67 19.70 132.67 17.38L132.67 17.38L132.67 12.06L130.90 12.06Q130.89 11.72 130.89 11.37L130.89 11.37L130.89 9.56Q130.89 9.36 130.90 9.36L130.90 9.36L132.67 9.36L132.67 6.02L135.54 6.02L135.54 9.36L138.76 9.36L138.76 12.06L135.54 12.06L135.54 16.84Q135.54 18.68 136.56 18.94L136.56 18.94Q136.89 19.03 137.32 19.03ZM145.08 13.46L145.08 20.30Q145.08 21.30 145.13 21.61L145.13 21.61L142.21 21.61L142.21 4.85L145.08 4.85L145.08 10.28Q146.59 9.13 148.20 9.13L148.20 9.13Q150.16 9.13 151.36 10.43L151.36 10.43Q152.53 11.73 152.53 13.88L152.53 13.88L152.53 18.54Q152.53 20.52 152.59 20.92Q152.65 21.32 152.75 21.43Q152.85 21.55 152.92 21.64L152.92 21.64L152.89 21.69Q151.95 21.61 151.51 21.61L151.51 21.61L150.68 21.61Q150.29 21.61 149.66 21.64L149.66 21.64L149.66 14.86Q149.66 13.24 148.95 12.47L148.95 12.47Q148.41 11.88 147.48 11.88L147.48 11.88Q146.11 11.88 145.08 13.46L145.08 13.46ZM165.41 19.76Q164.34 18.74 163.73 17.31Q163.11 15.88 163.11 14.17Q163.11 12.47 163.69 10.95Q164.26 9.42 165.33 8.26Q166.39 7.10 167.91 6.42Q169.42 5.73 171.29 5.73L171.29 5.73Q174.53 5.73 176.74 7.77L176.74 7.77Q179.11 9.95 179.11 13.65L179.11 13.65Q179.11 17.24 176.67 19.62L176.67 19.62Q175.17 21.08 173.10 21.63L173.10 21.63Q172.08 21.90 170.71 21.90Q169.35 21.90 167.91 21.34Q166.48 20.78 165.41 19.76ZM166.37 14.02L166.37 14.02Q166.37 15.11 166.73 16.02Q167.10 16.93 167.74 17.59L167.74 17.59Q169.11 18.97 171.27 18.97L171.27 18.97Q173.32 18.97 174.56 17.65L174.56 17.65Q175.83 16.28 175.83 13.91L175.83 13.91Q175.83 11.68 174.62 10.20L174.62 10.20Q173.32 8.60 171.06 8.60L171.06 8.60Q168.87 8.60 167.58 10.22L167.58 10.22Q166.37 11.73 166.37 14.02ZM184.91 13.42L184.91 20.11Q184.91 21.14 185.00 21.61L185.00 21.61L182.06 21.61L182.06 9.36L184.91 9.36L184.91 10.41Q186.46 9.13 188.21 9.13L188.21 9.13Q190.14 9.13 191.29 10.44Q192.43 11.74 192.43 13.88L192.43 13.88L192.43 18.54Q192.43 20.52 192.49 20.92Q192.55 21.32 192.65 21.43Q192.75 21.55 192.82 21.64L192.82 21.64L192.80 21.69Q191.85 21.61 191.41 21.61L191.41 21.61L190.59 21.61Q190.22 21.61 189.59 21.64L189.59 21.64L189.59 15.26Q189.59 11.82 187.50 11.82L187.50 11.82Q185.95 11.82 184.91 13.42L184.91 13.42ZM195.27 15.59L195.27 15.59Q195.27 14.21 195.74 13.04Q196.21 11.87 197.06 10.99L197.06 10.99Q198.89 9.13 201.84 9.13L201.84 9.13Q204.34 9.13 205.85 10.78L205.85 10.78Q207.34 12.38 207.34 14.79L207.34 14.79Q207.34 15.71 207.20 16.05L207.20 16.05Q206.03 16.38 202.43 16.38L202.43 16.38L198.30 16.38Q198.61 17.64 199.72 18.33Q200.84 19.03 202.62 19.03L202.62 19.03Q204.48 19.03 205.82 18.36L205.82 18.36Q206.17 18.19 206.34 18.04L206.34 18.04Q206.32 18.53 206.29 19.04L206.29 19.04L206.16 20.87Q205.27 21.48 203.27 21.71L203.27 21.71Q202.69 21.79 202.15 21.79L202.15 21.79Q199.17 21.79 197.23 20.05L197.23 20.05Q195.27 18.30 195.27 15.59ZM204.22 14.11L204.22 14.11Q203.74 11.59 201.48 11.59L201.48 11.59Q199.70 11.59 198.77 13.13L198.77 13.13Q198.49 13.59 198.34 14.16L198.34 14.16Q198.62 14.17 199.03 14.18L199.03 14.18L199.90 14.18Q200.33 14.19 200.73 14.19L200.73 14.19L201.40 14.19Q202.00 14.19 202.57 14.18L202.57 14.18L203.53 14.14Q203.92 14.13 204.22 14.11ZM226.92 6.02L226.92 15.01Q228.70 15.01 229.88 14.71L229.88 14.71L229.93 14.79L229.08 17.51L226.92 17.51L226.92 21.61L223.93 21.61L223.93 17.51L216.71 17.51L216.67 16.64L223.15 6.05L226.92 6.02ZM220.73 15.01L223.93 15.01L223.93 9.46L220.73 15.01ZM231.34 14.04L231.34 14.04Q231.34 12.27 231.86 10.73Q232.38 9.20 233.32 8.09L233.32 8.09Q235.32 5.73 238.39 5.73L238.39 5.73Q241.34 5.73 243.11 7.95L243.11 7.95Q244.83 10.10 244.83 13.65L244.83 13.65Q244.83 17.66 242.74 19.90L242.74 19.90Q240.88 21.90 237.96 21.90L237.96 21.90Q235.14 21.90 233.25 19.72L233.25 19.72Q231.34 17.51 231.34 14.04ZM235.44 17.74Q235.96 18.41 236.67 18.78Q237.39 19.15 238.13 19.15Q238.88 19.15 239.52 18.82Q240.16 18.49 240.68 17.84L240.68 17.84Q241.84 16.34 241.84 13.91L241.84 13.91Q241.84 11.43 240.86 9.94L240.86 9.94Q239.86 8.47 238.16 8.47L238.16 8.47Q236.45 8.47 235.39 10.00L235.39 10.00Q234.33 11.53 234.33 13.97L234.33 13.97Q234.33 16.30 235.44 17.74L235.44 17.74ZM247.32 14.04L247.32 14.04Q247.32 12.27 247.85 10.73Q248.37 9.20 249.30 8.09L249.30 8.09Q251.31 5.73 254.38 5.73L254.38 5.73Q257.32 5.73 259.09 7.95L259.09 7.95Q260.81 10.10 260.81 13.65L260.81 13.65Q260.81 17.66 258.73 19.90L258.73 19.90Q256.86 21.90 253.95 21.90L253.95 21.90Q251.12 21.90 249.23 19.72L249.23 19.72Q247.32 17.51 247.32 14.04ZM251.43 17.74Q251.94 18.41 252.66 18.78Q253.37 19.15 254.12 19.15Q254.86 19.15 255.50 18.82Q256.15 18.49 256.66 17.84L256.66 17.84Q257.82 16.34 257.82 13.91L257.82 13.91Q257.82 11.43 256.84 9.94L256.84 9.94Q255.84 8.47 254.14 8.47L254.14 8.47Q252.43 8.47 251.38 10.00L251.38 10.00Q250.31 11.53 250.31 13.97L250.31 13.97Q250.31 16.30 251.43 17.74L251.43 17.74ZM274.83 13.42L274.83 20.11Q274.83 21.14 274.92 21.61L274.92 21.61L271.98 21.61L271.98 9.36L274.83 9.36L274.83 10.41Q276.38 9.13 278.13 9.13L278.13 9.13Q280.05 9.13 281.20 10.44Q282.35 11.74 282.35 13.88L282.35 13.88L282.35 18.54Q282.35 20.52 282.41 20.92Q282.47 21.32 282.57 21.43Q282.67 21.55 282.74 21.64L282.74 21.64L282.71 21.69Q281.77 21.61 281.33 21.61L281.33 21.61L280.51 21.61Q280.14 21.61 279.50 21.64L279.50 21.64L279.50 15.26Q279.50 11.82 277.42 11.82L277.42 11.82Q275.87 11.82 274.83 13.42L274.83 13.42ZM284.88 15.55L284.88 15.55Q284.88 14.26 285.32 13.08Q285.76 11.91 286.58 11.03L286.58 11.03Q288.38 9.13 291.23 9.13L291.23 9.13Q294.08 9.13 295.76 10.92L295.76 10.92Q297.36 12.63 297.36 15.36L297.36 15.36Q297.36 18.09 295.71 19.89L295.71 19.89Q293.96 21.79 291.08 21.79L291.08 21.79Q288.11 21.79 286.42 19.92L286.42 19.92Q284.88 18.22 284.88 15.55ZM287.73 15.48L287.73 15.48Q287.73 16.22 287.98 16.91Q288.22 17.60 288.68 18.09L288.68 18.09Q289.65 19.16 291.23 19.16L291.23 19.16Q292.70 19.16 293.54 18.12L293.54 18.12Q294.36 17.11 294.36 15.49L294.36 15.49Q294.36 13.85 293.52 12.84L293.52 12.84Q292.62 11.77 291.05 11.77L291.05 11.77Q289.45 11.77 288.55 12.91L288.55 12.91Q287.73 13.97 287.73 15.48ZM302.57 13.08L302.57 20.30Q302.57 21.30 302.61 21.61L302.61 21.61L299.70 21.61L299.70 9.36L302.57 9.36L302.57 10.27Q303.56 9.13 304.66 9.13Q305.75 9.13 306.39 9.40L306.39 9.40L306.18 12.55L306.13 12.59Q305.72 11.86 304.43 11.86L304.43 11.86Q303.94 11.86 303.43 12.19Q302.92 12.53 302.57 13.08L302.57 13.08ZM310.98 13.37L310.98 18.22Q310.98 20.86 311.07 21.61L311.07 21.61L308.02 21.61L308.02 9.36L310.98 9.36L310.98 10.42Q312.59 9.13 314.27 9.13L314.27 9.13Q316.27 9.13 317.17 10.85L317.17 10.85Q318.07 9.93 318.67 9.63L318.67 9.63Q319.66 9.13 320.67 9.13Q321.67 9.13 322.37 9.47Q323.07 9.81 323.53 10.43L323.53 10.43Q324.46 11.68 324.46 13.88L324.46 13.88L324.46 18.54Q324.46 20.52 324.52 20.92Q324.57 21.32 324.67 21.43Q324.77 21.55 324.84 21.64L324.84 21.64L324.82 21.69Q323.88 21.61 323.44 21.61L323.44 21.61L322.56 21.61Q322.13 21.61 321.49 21.64L321.49 21.64L321.49 15.30Q321.49 12.56 320.65 12.05L320.65 12.05Q320.37 11.88 319.99 11.88Q319.61 11.88 319.31 11.97Q319.02 12.06 318.76 12.26L318.76 12.26Q318.33 12.57 317.78 13.50L317.78 13.50Q317.79 13.59 317.79 13.69Q317.79 13.78 317.79 16.78Q317.79 19.78 317.93 21.61L317.93 21.61Q316.93 21.61 316.24 21.61Q315.54 21.61 314.91 21.64L314.91 21.64L314.91 15.29Q314.91 13.38 314.68 12.81Q314.45 12.23 314.19 12.06Q313.93 11.88 313.56 11.88L313.56 11.88Q312.01 11.88 310.98 13.37L310.98 13.37ZM335.94 20.88L335.94 20.88Q334.28 21.79 332.93 21.79Q331.58 21.79 330.62 21.53Q329.66 21.28 328.99 20.79L328.99 20.79Q327.63 19.79 327.63 17.91L327.63 17.91Q327.63 16.22 329.30 15.09L329.30 15.09Q331.10 13.88 334.20 13.88L334.20 13.88L334.66 13.89Q334.80 13.90 334.98 13.90Q335.16 13.91 335.30 13.93L335.30 13.93Q335.20 12.06 333.68 11.74L333.68 11.74Q333.18 11.64 332.61 11.64Q332.04 11.64 331.49 11.74Q330.95 11.84 330.43 12L330.43 12Q329.30 12.36 328.80 12.83L328.80 12.83L328.77 12.81L328.42 10.22Q330.49 9.13 332.95 9.13L332.95 9.13Q336.77 9.13 337.84 11.88L337.84 11.88Q338.18 12.76 338.18 13.86L338.18 13.86L338.18 18.11Q338.18 19.46 339.14 19.96L339.14 19.96L337.02 21.90Q336.35 21.55 335.94 20.88ZM335.31 18.49L335.31 16.04Q334.99 15.98 334.65 15.98L334.65 15.98L334.18 15.98Q331.59 15.98 330.89 17.13L330.89 17.13Q330.68 17.47 330.68 17.85Q330.68 18.22 330.81 18.51Q330.95 18.80 331.27 18.98L331.27 18.98Q331.88 19.34 333.08 19.34Q334.28 19.34 335.32 18.76L335.32 18.76Q335.31 18.63 335.31 18.49L335.31 18.49ZM344.55 4.15L344.55 20.30Q344.55 21.30 344.60 21.61L344.60 21.61L341.63 21.61L341.63 4.15L344.55 4.15Z"/></svg>