<svg xmlns="http://www.w3.org/2000/svg" xmlns:xlink="http://www.w3.org/1999/xlink" width="339.69140625" height="28.5234375"><path fill="black" d="M2.23 22.50L2.23 5.09L10.61 5.09Q12.93 5.07 14.61 5.49Q16.29 5.91 17.38 6.68Q18.47 7.45 18.99 8.54Q19.51 9.62 19.51 10.95L19.51 10.95Q19.51 12.11 19.03 13.17Q18.54 14.23 17.53 15.04Q16.51 15.84 14.95 16.32Q13.38 16.80 11.23 16.80L11.23 16.80L9 16.80L9 22.50L2.23 22.50ZM9 7.64L9 14.25Q9.81 14.24 10.44 14.00Q11.07 13.76 11.51 13.33Q11.94 12.90 12.17 12.30Q12.40 11.70 12.40 10.95L12.40 10.95Q12.40 10.21 12.16 9.61Q11.93 9.01 11.49 8.58Q11.05 8.16 10.42 7.91Q9.80 7.66 9 7.64L9 7.64ZM20.96 16.70L20.96 16.70Q20.96 15.32 21.53 14.20Q22.10 13.09 23.17 12.30Q24.25 11.52 25.79 11.09Q27.34 10.66 29.31 10.66L29.31 10.66Q31.28 10.66 32.82 11.09Q34.37 11.52 35.44 12.30Q36.52 13.09 37.08 14.20Q37.65 15.32 37.65 16.70L37.65 16.70Q37.65 18.07 37.08 19.18Q36.52 20.30 35.44 21.08Q34.37 21.87 32.82 22.29Q31.28 22.72 29.31 22.72L29.31 22.72Q27.34 22.72 25.79 22.29Q24.25 21.87 23.17 21.08Q22.10 20.30 21.53 19.18Q20.96 18.07 20.96 16.70ZM29.31 20.58L29.31 20.58Q29.74 20.58 30.08 20.40Q30.42 20.23 30.64 19.79Q30.87 19.35 30.98 18.60Q31.10 17.85 31.10 16.70L31.10 16.70Q31.10 15.54 30.98 14.79Q30.87 14.04 30.64 13.60Q30.42 13.16 30.08 12.98Q29.74 12.81 29.31 12.81L29.31 12.81Q28.86 12.81 28.53 12.98Q28.20 13.16 27.97 13.60Q27.75 14.04 27.63 14.79Q27.52 15.54 27.52 16.70L27.52 16.70Q27.52 17.85 27.63 18.60Q27.75 19.35 27.97 19.79Q28.20 20.23 28.53 20.40Q28.86 20.58 29.31 20.58ZM40.17 22.50L40.17 3.15L46.54 3.15L46.54 22.50L40.17 22.50ZM49.82 22.50L49.82 3.15L56.18 3.15L56.18 22.50L49.82 22.50ZM58.70 16.63L58.70 16.63Q58.70 15.62 59.02 14.79Q59.33 13.96 59.89 13.29Q60.45 12.63 61.21 12.14Q61.97 11.65 62.86 11.32Q63.75 10.99 64.72 10.83Q65.70 10.66 66.69 10.66L66.69 10.66Q68.00 10.66 69.08 10.93Q70.15 11.19 70.99 11.65Q71.82 12.11 72.44 12.71Q73.05 13.32 73.46 14.01Q73.86 14.70 74.06 15.42Q74.25 16.15 74.25 16.84L74.25 16.84L65.39 17.91Q65.65 19.21 66.42 19.92Q67.20 20.64 68.59 20.64L68.59 20.64Q69.35 20.64 70.01 20.45Q70.68 20.26 71.05 19.99L71.05 19.99L71.99 21.63Q71.55 21.86 71.04 22.05Q70.54 22.25 69.92 22.40Q69.30 22.55 68.56 22.63Q67.82 22.72 66.93 22.72L66.93 22.72Q64.79 22.72 63.25 22.22Q61.70 21.73 60.69 20.89Q59.67 20.05 59.19 18.95Q58.70 17.85 58.70 16.63ZM65.25 16.05L68.57 15.64Q68.57 14.12 68.19 13.43Q67.80 12.74 67.05 12.74L67.05 12.74Q66.67 12.74 66.34 12.93Q66.01 13.11 65.78 13.51Q65.54 13.91 65.40 14.54Q65.26 15.16 65.25 16.05L65.25 16.05ZM76.44 22.50L76.44 10.89L82.05 10.89L82.62 12.57Q83.29 12.08 83.88 11.72Q84.47 11.37 85.03 11.13Q85.58 10.89 86.10 10.78Q86.63 10.66 87.14 10.66L87.14 10.66Q87.89 10.66 88.49 10.88Q89.10 11.09 89.53 11.47Q89.95 11.86 90.18 12.39Q90.41 12.93 90.41 13.57L90.41 13.57Q90.41 14.21 90.13 14.75Q89.86 15.29 89.33 15.69Q88.80 16.08 88.04 16.29Q87.27 16.51 86.29 16.51L86.29 16.51L84.22 13.76Q83.88 13.76 83.48 13.90Q83.09 14.04 82.80 14.34L82.80 14.34L82.80 22.50L76.44 22.50ZM99.07 13.76L99.07 13.76Q99.07 11.78 99.70 10.13Q100.34 8.48 101.59 7.30Q102.84 6.12 104.72 5.46Q106.59 4.80 109.08 4.80L109.08 4.80Q111.56 4.80 113.44 5.46Q115.31 6.12 116.57 7.30Q117.82 8.48 118.45 10.13Q119.09 11.78 119.09 13.76L119.09 13.76Q119.09 15.76 118.45 17.43Q117.82 19.09 116.57 20.27Q115.31 21.46 113.44 22.11Q111.56 22.77 109.08 22.77L109.08 22.77Q106.59 22.77 104.72 22.11Q102.84 21.46 101.59 20.27Q100.34 19.09 99.70 17.43Q99.07 15.76 99.07 13.76ZM109.08 20.34L109.08 20.34Q109.78 20.34 110.32 20.10Q110.86 19.85 111.22 19.14Q111.59 18.42 111.77 17.13Q111.96 15.84 111.96 13.76L111.96 13.76Q111.96 11.70 111.77 10.42Q111.59 9.14 111.22 8.44Q110.86 7.73 110.32 7.49Q109.78 7.24 109.08 7.24L109.08 7.24Q108.38 7.24 107.83 7.49Q107.29 7.73 106.92 8.44Q106.56 9.14 106.37 10.42Q106.18 11.70 106.18 13.76L106.18 13.76Q106.18 15.84 106.37 17.13Q106.56 18.42 106.92 19.14Q107.29 19.85 107.83 20.10Q108.38 20.34 109.08 20.34ZM121.93 22.50L121.93 10.89L127.55 10.89L128.11 12.57Q129.35 11.63 130.63 11.14Q131.92 10.66 133.34 10.66L133.34 10.66Q134.14 10.66 134.84 10.93Q135.54 11.20 136.05 11.77Q136.57 12.33 136.86 13.21Q137.16 14.10 137.16 15.33L137.16 15.33L137.16 22.50L130.79 22.50L130.79 14.93Q130.79 14.32 130.52 14.04Q130.25 13.76 129.74 13.76L129.74 13.76Q129.40 13.76 128.99 13.90Q128.58 14.04 128.30 14.34L128.30 14.34L128.30 22.50L121.93 22.50ZM139.56 16.63L139.56 16.63Q139.56 15.62 139.88 14.79Q140.19 13.96 140.75 13.29Q141.30 12.63 142.07 12.14Q142.83 11.65 143.72 11.32Q144.61 10.99 145.58 10.83Q146.55 10.66 147.55 10.66L147.55 10.66Q148.86 10.66 149.94 10.93Q151.01 11.19 151.85 11.65Q152.68 12.11 153.30 12.71Q153.91 13.32 154.32 14.01Q154.72 14.70 154.92 15.42Q155.11 16.15 155.11 16.84L155.11 16.84L146.25 17.91Q146.51 19.21 147.28 19.92Q148.05 20.64 149.45 20.64L149.45 20.64Q150.21 20.64 150.87 20.45Q151.54 20.26 151.91 19.99L151.91 19.99L152.85 21.63Q152.41 21.86 151.90 22.05Q151.39 22.25 150.78 22.40Q150.16 22.55 149.42 22.63Q148.68 22.72 147.79 22.72L147.79 22.72Q145.65 22.72 144.11 22.22Q142.56 21.73 141.54 20.89Q140.53 20.05 140.04 18.95Q139.56 17.85 139.56 16.63ZM146.11 16.05L149.43 15.64Q149.43 14.12 149.04 13.43Q148.66 12.74 147.91 12.74L147.91 12.74Q147.53 12.74 147.20 12.93Q146.87 13.11 146.64 13.51Q146.40 13.91 146.26 14.54Q146.12 15.16 146.11 16.05L146.11 16.05ZM164.25 19.22L164.25 16.69L172.23 5.09L178.72 5.09L178.72 16.69L181.52 16.69L181.52 19.23L178.72 19.23L178.72 22.50L172.38 22.50L172.38 19.23L165.70 19.22L164.25 19.22ZM167.36 16.69L172.38 16.69L172.38 8.99L167.36 16.69ZM184.69 13.76L184.69 13.76Q184.69 11.64 185.26 9.97Q185.82 8.31 186.93 7.16Q188.04 6.01 189.68 5.41Q191.32 4.80 193.46 4.80L193.46 4.80Q195.61 4.80 197.25 5.41Q198.89 6.01 200.00 7.16Q201.11 8.31 201.67 9.97Q202.24 11.64 202.24 13.76L202.24 13.76Q202.24 15.88 201.67 17.54Q201.11 19.21 200.00 20.36Q198.89 21.50 197.25 22.11Q195.61 22.71 193.46 22.71L193.46 22.71Q191.32 22.71 189.68 22.11Q188.04 21.50 186.93 20.36Q185.82 19.21 185.26 17.54Q184.69 15.88 184.69 13.76ZM193.46 20.54L193.46 20.54Q193.76 20.54 194.04 20.44Q194.32 20.34 194.57 20.07Q194.81 19.80 195.02 19.33Q195.22 18.86 195.37 18.10Q195.52 17.34 195.60 16.28Q195.68 15.21 195.68 13.76L195.68 13.76Q195.68 12.30 195.60 11.24Q195.52 10.17 195.37 9.42Q195.22 8.66 195.02 8.19Q194.81 7.71 194.57 7.44Q194.32 7.17 194.04 7.07Q193.76 6.97 193.46 6.97L193.46 6.97Q193.17 6.97 192.89 7.07Q192.61 7.17 192.36 7.44Q192.12 7.71 191.91 8.19Q191.71 8.66 191.56 9.42Q191.41 10.17 191.33 11.24Q191.25 12.30 191.25 13.76L191.25 13.76Q191.25 15.21 191.33 16.28Q191.41 17.34 191.56 18.10Q191.71 18.86 191.91 19.33Q192.12 19.80 192.36 20.07Q192.61 20.34 192.89 20.44Q193.17 20.54 193.46 20.54ZM205.57 13.76L205.57 13.76Q205.57 11.64 206.14 9.97Q206.71 8.31 207.81 7.16Q208.92 6.01 210.56 5.41Q212.20 4.80 214.35 4.80L214.35 4.80Q216.49 4.80 218.13 5.41Q219.77 6.01 220.88 7.16Q221.99 8.31 222.56 9.97Q223.13 11.64 223.13 13.76L223.13 13.76Q223.13 15.88 222.56 17.54Q221.99 19.21 220.88 20.36Q219.77 21.50 218.13 22.11Q216.49 22.71 214.35 22.71L214.35 22.71Q212.20 22.71 210.56 22.11Q208.92 21.50 207.81 20.36Q206.71 19.21 206.14 17.54Q205.57 15.88 205.57 13.76ZM214.35 20.54L214.35 20.54Q214.64 20.54 214.92 20.44Q215.20 20.34 215.45 20.07Q215.70 19.80 215.90 19.33Q216.11 18.86 216.25 18.10Q216.40 17.34 216.48 16.28Q216.56 15.21 216.56 13.76L216.56 13.76Q216.56 12.30 216.48 11.24Q216.40 10.17 216.25 9.42Q216.11 8.66 215.90 8.19Q215.70 7.71 215.45 7.44Q215.20 7.17 214.92 7.07Q214.64 6.97 214.35 6.97L214.35 6.97Q214.05 6.97 213.77 7.07Q213.49 7.17 213.25 7.44Q213 7.71 212.79 8.19Q212.59 8.66 212.44 9.42Q212.30 10.17 212.21 11.24Q212.13 12.30 212.13 13.76L212.13 13.76Q212.13 15.21 212.21 16.28Q212.30 17.34 212.44 18.10Q212.59 18.86 212.79 19.33Q213 19.80 213.25 20.07Q213.49 20.34 213.77 20.44Q214.05 20.54 214.35 20.54ZM233.71 22.50L233.71 10.89L239.32 10.89L239.88 12.57Q241.13 11.63 242.41 11.14Q243.69 10.66 245.11 10.66L245.11 10.66Q245.92 10.66 246.62 10.93Q247.31 11.20 247.83 11.77Q248.34 12.33 248.64 13.21Q248.93 14.10 248.93 15.33L248.93 15.33L248.93 22.50L242.57 22.50L242.57 14.93Q242.57 14.32 242.30 14.04Q242.03 13.76 241.51 13.76L241.51 13.76Q241.17 13.76 240.76 13.90Q240.35 14.04 240.07 14.34L240.07 14.34L240.07 22.50L233.71 22.50ZM251.33 16.70L251.33 16.70Q251.33 15.32 251.90 14.20Q252.47 13.09 253.54 12.30Q254.61 11.52 256.16 11.09Q257.71 10.66 259.68 10.66L259.68 10.66Q261.64 10.66 263.19 11.09Q264.74 11.52 265.81 12.30Q266.88 13.09 267.45 14.20Q268.02 15.32 268.02 16.70L268.02 16.70Q268.02 18.07 267.45 19.18Q266.88 20.30 265.81 21.08Q264.74 21.87 263.19 22.29Q261.64 22.72 259.68 22.72L259.68 22.72Q257.71 22.72 256.16 22.29Q254.61 21.87 253.54 21.08Q252.47 20.30 251.90 19.18Q251.33 18.07 251.33 16.70ZM259.68 20.58L259.68 20.58Q260.11 20.58 260.45 20.40Q260.79 20.23 261.01 19.79Q261.23 19.35 261.35 18.60Q261.47 17.85 261.47 16.70L261.47 16.70Q261.47 15.54 261.35 14.79Q261.23 14.04 261.01 13.60Q260.79 13.16 260.45 12.98Q260.11 12.81 259.68 12.81L259.68 12.81Q259.23 12.81 258.90 12.98Q258.56 13.16 258.34 13.60Q258.12 14.04 258 14.79Q257.88 15.54 257.88 16.70L257.88 16.70Q257.88 17.85 258 18.60Q258.12 19.35 258.34 19.79Q258.56 20.23 258.90 20.40Q259.23 20.58 259.68 20.58ZM270.54 22.50L270.54 10.89L276.15 10.89L276.71 12.57Q277.38 12.08 277.97 11.72Q278.57 11.37 279.12 11.13Q279.68 10.89 280.20 10.78Q280.72 10.66 281.24 10.66L281.24 10.66Q281.99 10.66 282.59 10.88Q283.20 11.09 283.62 11.47Q284.05 11.86 284.28 12.39Q284.51 12.93 284.51 13.57L284.51 13.57Q284.51 14.21 284.23 14.75Q283.96 15.29 283.43 15.69Q282.90 16.08 282.13 16.29Q281.37 16.51 280.38 16.51L280.38 16.51L278.32 13.76Q277.98 13.76 277.58 13.90Q277.18 14.04 276.90 14.34L276.90 14.34L276.90 22.50L270.54 22.50ZM286.32 22.50L286.32 10.89L291.94 10.89L292.50 12.57Q293.74 11.63 295.03 11.14Q296.31 10.66 297.73 10.66L297.73 10.66Q298.79 10.66 299.66 11.13Q300.53 11.60 301.02 12.62L301.02 12.62Q301.56 12.23 302.18 11.88Q302.80 11.53 303.49 11.26Q304.17 10.98 304.91 10.82Q305.65 10.66 306.45 10.66L306.45 10.66Q307.25 10.66 307.96 10.93Q308.66 11.20 309.18 11.77Q309.69 12.33 309.98 13.21Q310.28 14.10 310.28 15.33L310.28 15.33L310.28 22.50L303.91 22.50L303.91 14.93Q303.91 14.32 303.64 14.04Q303.36 13.76 302.85 13.76L302.85 13.76Q302.58 13.76 302.24 13.88Q301.90 14.00 301.55 14.24L301.55 14.24L301.55 22.50L295.18 22.50L295.18 14.93Q295.18 14.32 294.91 14.04Q294.64 13.76 294.13 13.76L294.13 13.76Q293.79 13.76 293.38 13.90Q292.97 14.04 292.69 14.34L292.69 14.34L292.69 22.50L286.32 22.50ZM312.68 18.84L312.68 18.84Q312.68 18 313.05 17.27Q313.43 16.55 314.13 16.01Q314.84 15.47 315.83 15.16Q316.83 14.85 318.06 14.85L318.06 14.85Q319.29 14.85 320.36 15.13Q321.43 15.42 322.16 15.87L322.16 15.87L322.16 15.77Q322.16 14.95 321.98 14.38Q321.80 13.80 321.42 13.44Q321.05 13.08 320.47 12.91Q319.89 12.75 319.10 12.75L319.10 12.75Q318.39 12.75 317.63 12.87Q316.86 13.00 316.22 13.23L316.22 13.23L315.36 11.65Q316.64 11.12 318.01 10.89Q319.37 10.66 320.82 10.66L320.82 10.66Q322.69 10.66 324.12 11.02Q325.56 11.38 326.54 12.09Q327.52 12.80 328.02 13.87Q328.52 14.94 328.52 16.38L328.52 16.38L328.52 22.50L322.58 22.50L322.18 21.38Q321.83 21.64 321.35 21.89Q320.87 22.14 320.30 22.32Q319.72 22.51 319.08 22.62Q318.43 22.72 317.73 22.72L317.73 22.72Q316.58 22.72 315.65 22.42Q314.72 22.13 314.06 21.61Q313.41 21.09 313.04 20.38Q312.68 19.68 312.68 18.84ZM319.24 18.60L319.24 18.60Q319.24 19.23 319.65 19.62Q320.06 20.02 320.75 20.02L320.75 20.02Q321.13 20.02 321.49 19.89Q321.86 19.77 322.16 19.52L322.16 19.52L322.16 17.54Q321.57 17.19 320.87 17.19L320.87 17.19Q320.07 17.19 319.66 17.58Q319.24 17.98 319.24 18.60ZM331.69 22.50L331.69 3.15L338.05 3.15L338.05 22.50L331.69 22.50Z"/></svg>