<svg xmlns="http://www.w3.org/2000/svg" xmlns:xlink="http://www.w3.org/1999/xlink" width="397.08" height="31.296"><path fill="black" d="M16.80 4.37L16.80 21.50L12.98 21.50L4.87 8.06L4.78 8.06Q4.82 8.78 4.86 9.58Q4.90 10.37 4.93 11.20Q4.97 12.02 4.99 12.86L4.99 12.86L4.99 21.50L2.23 21.50L2.23 4.37L6.02 4.37L14.11 17.71L14.18 17.71Q14.16 17.09 14.14 16.30Q14.11 15.50 14.08 14.68Q14.04 13.85 14.02 13.08L14.02 13.08L14.02 4.37L16.80 4.37ZM32.59 14.98L32.59 14.98Q32.59 16.61 32.16 17.86Q31.73 19.10 30.92 19.98Q30.12 20.86 28.96 21.30Q27.79 21.74 26.38 21.74L26.38 21.74Q25.03 21.74 23.90 21.30Q22.78 20.86 21.95 19.98Q21.12 19.10 20.66 17.86Q20.21 16.61 20.21 14.98L20.21 14.98Q20.21 12.82 20.95 11.32Q21.70 9.82 23.10 9.04Q24.50 8.26 26.42 8.26L26.42 8.26Q28.25 8.26 29.63 9.04Q31.01 9.82 31.80 11.32Q32.59 12.82 32.59 14.98ZM23.30 14.98L23.30 14.98Q23.30 16.34 23.63 17.32Q23.95 18.29 24.64 18.79Q25.32 19.30 26.40 19.30L26.40 19.30Q27.50 19.30 28.19 18.79Q28.87 18.29 29.18 17.32Q29.50 16.34 29.50 14.98L29.50 14.98Q29.50 13.58 29.17 12.64Q28.85 11.69 28.16 11.20Q27.48 10.70 26.40 10.70L26.40 10.70Q24.77 10.70 24.04 11.81Q23.30 12.91 23.30 14.98ZM40.75 19.32L40.75 19.32Q41.33 19.32 41.86 19.21Q42.38 19.10 42.84 18.96L42.84 18.96L42.84 21.22Q42.36 21.43 41.59 21.59Q40.82 21.74 39.98 21.74L39.98 21.74Q38.88 21.74 37.98 21.37Q37.08 21 36.54 20.09Q36 19.18 36 17.54L36 17.54L36 10.78L34.25 10.78L34.25 9.46L36.17 8.40L37.13 5.64L39.02 5.64L39.02 8.50L42.72 8.50L42.72 10.78L39.02 10.78L39.02 17.52Q39.02 18.43 39.50 18.88Q39.98 19.32 40.75 19.32ZM57.07 14.98L57.07 14.98Q57.07 16.61 56.64 17.86Q56.21 19.10 55.40 19.98Q54.60 20.86 53.44 21.30Q52.27 21.74 50.86 21.74L50.86 21.74Q49.51 21.74 48.38 21.30Q47.26 20.86 46.43 19.98Q45.60 19.10 45.14 17.86Q44.69 16.61 44.69 14.98L44.69 14.98Q44.69 12.82 45.43 11.32Q46.18 9.82 47.58 9.04Q48.98 8.26 50.90 8.26L50.90 8.26Q52.73 8.26 54.11 9.04Q55.49 9.82 56.28 11.32Q57.07 12.82 57.07 14.98ZM47.78 14.98L47.78 14.98Q47.78 16.34 48.11 17.32Q48.43 18.29 49.12 18.79Q49.80 19.30 50.88 19.30L50.88 19.30Q51.98 19.30 52.67 18.79Q53.35 18.29 53.66 17.32Q53.98 16.34 53.98 14.98L53.98 14.98Q53.98 13.58 53.65 12.64Q53.33 11.69 52.64 11.20Q51.96 10.70 50.88 10.70L50.88 10.70Q49.25 10.70 48.52 11.81Q47.78 12.91 47.78 14.98ZM76.68 16.82L76.68 16.82Q76.68 18.34 75.94 19.44Q75.19 20.54 73.79 21.14Q72.38 21.74 70.44 21.74L70.44 21.74Q69.50 21.74 68.65 21.64Q67.80 21.53 67.04 21.31Q66.29 21.10 65.64 20.78L65.64 20.78L65.64 17.90Q66.72 18.38 68.02 18.78Q69.31 19.18 70.66 19.18L70.66 19.18Q71.69 19.18 72.35 18.90Q73.01 18.62 73.32 18.13Q73.63 17.64 73.63 16.99L73.63 16.99Q73.63 16.27 73.22 15.77Q72.82 15.26 72.02 14.83Q71.23 14.40 70.06 13.92L70.06 13.92Q69.26 13.58 68.51 13.16Q67.75 12.74 67.15 12.14Q66.55 11.54 66.19 10.73Q65.83 9.91 65.83 8.81L65.83 8.81Q65.83 7.34 66.54 6.29Q67.25 5.23 68.53 4.68Q69.82 4.13 71.52 4.13L71.52 4.13Q72.89 4.13 74.09 4.42Q75.29 4.70 76.46 5.23L76.46 5.23L75.48 7.70Q74.42 7.25 73.44 6.98Q72.46 6.72 71.42 6.72L71.42 6.72Q70.61 6.72 70.03 6.97Q69.46 7.22 69.17 7.68Q68.88 8.14 68.88 8.74L68.88 8.74Q68.88 9.43 69.24 9.91Q69.60 10.39 70.36 10.81Q71.11 11.23 72.31 11.76L72.31 11.76Q73.70 12.36 74.66 13.01Q75.62 13.66 76.15 14.57Q76.68 15.48 76.68 16.82ZM84.82 8.26L84.82 8.26Q87.34 8.26 88.64 9.35Q89.95 10.44 89.95 12.77L89.95 12.77L89.95 21.50L87.82 21.50L87.22 19.70L87.12 19.70Q86.57 20.40 85.98 20.87Q85.39 21.34 84.64 21.54Q83.88 21.74 82.80 21.74L82.80 21.74Q81.65 21.74 80.72 21.31Q79.80 20.88 79.27 19.98Q78.74 19.08 78.74 17.71L78.74 17.71Q78.74 15.70 80.22 14.68Q81.70 13.66 84.70 13.56L84.70 13.56L86.95 13.49L86.95 12.84Q86.95 11.59 86.35 11.06Q85.75 10.54 84.67 10.54L84.67 10.54Q83.69 10.54 82.78 10.82Q81.86 11.11 81 11.50L81 11.50L80.04 9.38Q81 8.88 82.24 8.57Q83.47 8.26 84.82 8.26ZM86.95 15.36L85.37 15.41Q83.38 15.48 82.61 16.09Q81.84 16.70 81.84 17.74L81.84 17.74Q81.84 18.65 82.39 19.06Q82.94 19.46 83.81 19.46L83.81 19.46Q85.13 19.46 86.04 18.71Q86.95 17.95 86.95 16.46L86.95 16.46L86.95 15.36ZM100.70 8.26L100.70 8.26Q102.89 8.26 104.12 9.38Q105.36 10.51 105.36 13.03L105.36 13.03L105.36 21.50L102.34 21.50L102.34 13.63Q102.34 12.17 101.76 11.44Q101.18 10.70 99.94 10.70L99.94 10.70Q98.11 10.70 97.44 11.84Q96.77 12.98 96.77 15.14L96.77 15.14L96.77 21.50L93.74 21.50L93.74 8.50L96.07 8.50L96.50 10.20L96.67 10.20Q97.10 9.53 97.73 9.10Q98.35 8.66 99.12 8.46Q99.89 8.26 100.70 8.26ZM118.01 17.74L118.01 17.74Q118.01 19.03 117.38 19.93Q116.76 20.83 115.55 21.29Q114.34 21.74 112.58 21.74L112.58 21.74Q111.22 21.74 110.23 21.55Q109.25 21.36 108.36 20.95L108.36 20.95L108.36 18.38Q109.32 18.84 110.50 19.15Q111.67 19.46 112.68 19.46L112.68 19.46Q113.93 19.46 114.48 19.08Q115.03 18.70 115.03 18.05L115.03 18.05Q115.03 17.66 114.82 17.35Q114.60 17.04 113.98 16.69Q113.35 16.34 112.08 15.82L112.08 15.82Q110.83 15.31 110.00 14.81Q109.18 14.30 108.76 13.60Q108.34 12.89 108.34 11.81L108.34 11.81Q108.34 10.06 109.73 9.16Q111.12 8.26 113.40 8.26L113.40 8.26Q114.60 8.26 115.67 8.48Q116.74 8.71 117.82 9.22L117.82 9.22L116.86 11.45Q115.97 11.06 115.09 10.80Q114.22 10.54 113.30 10.54L113.30 10.54Q112.32 10.54 111.82 10.84Q111.31 11.14 111.31 11.66L111.31 11.66Q111.31 12.07 111.56 12.37Q111.82 12.67 112.45 12.97Q113.09 13.27 114.26 13.75L114.26 13.75Q115.44 14.21 116.27 14.70Q117.10 15.19 117.55 15.91Q118.01 16.63 118.01 17.74ZM141.46 12.77L141.46 12.77Q141.46 15.65 140.36 17.59Q139.27 19.54 137.22 20.52Q135.17 21.50 132.26 21.50L132.26 21.50L127.44 21.50L127.44 4.37L132.77 4.37Q135.43 4.37 137.38 5.33Q139.32 6.29 140.39 8.15Q141.46 10.01 141.46 12.77ZM138.24 12.86L138.24 12.86Q138.24 10.82 137.62 9.50Q136.99 8.18 135.77 7.55Q134.54 6.91 132.77 6.91L132.77 6.91L130.51 6.91L130.51 18.94L132.36 18.94Q135.34 18.94 136.79 17.41Q138.24 15.89 138.24 12.86ZM150.05 8.26L150.05 8.26Q151.80 8.26 153.06 8.96Q154.32 9.67 155.02 10.98Q155.71 12.29 155.71 14.16L155.71 14.16L155.71 15.70L147.12 15.70Q147.17 17.47 148.10 18.44Q149.04 19.42 150.70 19.42L150.70 19.42Q151.97 19.42 152.96 19.16Q153.96 18.91 155.02 18.43L155.02 18.43L155.02 20.86Q154.06 21.31 153.02 21.53Q151.99 21.74 150.55 21.74L150.55 21.74Q148.66 21.74 147.18 21.01Q145.70 20.28 144.88 18.79Q144.05 17.30 144.05 15.10L144.05 15.10Q144.05 12.86 144.80 11.34Q145.56 9.82 146.90 9.04Q148.25 8.26 150.05 8.26ZM150.05 10.49L150.05 10.49Q148.85 10.49 148.09 11.27Q147.34 12.05 147.19 13.58L147.19 13.58L152.78 13.58Q152.78 12.67 152.48 11.98Q152.18 11.28 151.58 10.88Q150.98 10.49 150.05 10.49ZM164.98 21.50L161.76 21.50L156.82 8.50L160.01 8.50L162.60 16.01Q162.77 16.46 162.91 17.00Q163.06 17.54 163.16 18.06Q163.27 18.58 163.30 18.96L163.30 18.96L163.39 18.96Q163.44 18.55 163.56 18.04Q163.68 17.52 163.84 16.99Q163.99 16.46 164.14 16.01L164.14 16.01L166.73 8.50L169.92 8.50L164.98 21.50ZM177.05 8.26L177.05 8.26Q179.57 8.26 180.88 9.35Q182.18 10.44 182.18 12.77L182.18 12.77L182.18 21.50L180.05 21.50L179.45 19.70L179.35 19.70Q178.80 20.40 178.21 20.87Q177.62 21.34 176.87 21.54Q176.11 21.74 175.03 21.74L175.03 21.74Q173.88 21.74 172.96 21.31Q172.03 20.88 171.50 19.98Q170.98 19.08 170.98 17.71L170.98 17.71Q170.98 15.70 172.45 14.68Q173.93 13.66 176.93 13.56L176.93 13.56L179.18 13.49L179.18 12.84Q179.18 11.59 178.58 11.06Q177.98 10.54 176.90 10.54L176.90 10.54Q175.92 10.54 175.01 10.82Q174.10 11.11 173.23 11.50L173.23 11.50L172.27 9.38Q173.23 8.88 174.47 8.57Q175.70 8.26 177.05 8.26ZM179.18 15.36L177.60 15.41Q175.61 15.48 174.84 16.09Q174.07 16.70 174.07 17.74L174.07 17.74Q174.07 18.65 174.62 19.06Q175.18 19.46 176.04 19.46L176.04 19.46Q177.36 19.46 178.27 18.71Q179.18 17.95 179.18 16.46L179.18 16.46L179.18 15.36ZM192.94 8.26L192.94 8.26Q195.12 8.26 196.36 9.38Q197.59 10.51 197.59 13.03L197.59 13.03L197.59 21.50L194.57 21.50L194.57 13.63Q194.57 12.17 193.99 11.44Q193.42 10.70 192.17 10.70L192.17 10.70Q190.34 10.70 189.67 11.84Q189 12.98 189 15.14L189 15.14L189 21.50L185.98 21.50L185.98 8.50L188.30 8.50L188.74 10.20L188.90 10.20Q189.34 9.53 189.96 9.10Q190.58 8.66 191.35 8.46Q192.12 8.26 192.94 8.26ZM206.57 8.26L206.57 8.26Q209.09 8.26 210.40 9.35Q211.70 10.44 211.70 12.77L211.70 12.77L211.70 21.50L209.57 21.50L208.97 19.70L208.87 19.70Q208.32 20.40 207.73 20.87Q207.14 21.34 206.39 21.54Q205.63 21.74 204.55 21.74L204.55 21.74Q203.40 21.74 202.48 21.31Q201.55 20.88 201.02 19.98Q200.50 19.08 200.50 17.71L200.50 17.71Q200.50 15.70 201.97 14.68Q203.45 13.66 206.45 13.56L206.45 13.56L208.70 13.49L208.70 12.84Q208.70 11.59 208.10 11.06Q207.50 10.54 206.42 10.54L206.42 10.54Q205.44 10.54 204.53 10.82Q203.62 11.11 202.75 11.50L202.75 11.50L201.79 9.38Q202.75 8.88 203.99 8.57Q205.22 8.26 206.57 8.26ZM208.70 15.36L207.12 15.41Q205.13 15.48 204.36 16.09Q203.59 16.70 203.59 17.74L203.59 17.74Q203.59 18.65 204.14 19.06Q204.70 19.46 205.56 19.46L205.56 19.46Q206.88 19.46 207.79 18.71Q208.70 17.95 208.70 16.46L208.70 16.46L208.70 15.36ZM219.86 8.26L219.86 8.26Q221.09 8.26 222.07 8.74Q223.06 9.22 223.73 10.18L223.73 10.18L223.85 10.18L224.14 8.50L226.66 8.50L226.66 21.60Q226.66 23.45 225.96 24.71Q225.26 25.97 223.87 26.62Q222.48 27.26 220.39 27.26L220.39 27.26Q219 27.26 217.82 27.08Q216.65 26.90 215.59 26.47L215.59 26.47L215.59 23.98Q216.70 24.46 217.96 24.72Q219.22 24.98 220.58 24.98L220.58 24.98Q222.07 24.98 222.85 24.14Q223.63 23.30 223.63 21.74L223.63 21.74L223.63 21.41Q223.63 21.05 223.67 20.57Q223.70 20.09 223.73 19.80L223.73 19.80L223.63 19.80Q222.96 20.81 222 21.28Q221.04 21.74 219.79 21.74L219.79 21.74Q217.42 21.74 216.07 19.97Q214.73 18.19 214.73 15.02L214.73 15.02Q214.73 11.86 216.10 10.06Q217.46 8.26 219.86 8.26ZM220.66 10.73L220.66 10.73Q219.74 10.73 219.11 11.22Q218.47 11.71 218.15 12.67Q217.82 13.63 217.82 15.07L217.82 15.07Q217.82 17.18 218.54 18.26Q219.26 19.34 220.70 19.34L220.70 19.34Q221.52 19.34 222.10 19.14Q222.67 18.94 223.04 18.47Q223.42 18 223.61 17.27Q223.80 16.54 223.80 15.50L223.80 15.50L223.80 15.05Q223.80 13.49 223.46 12.54Q223.13 11.59 222.44 11.16Q221.76 10.73 220.66 10.73ZM235.70 8.26L235.70 8.26Q238.22 8.26 239.53 9.35Q240.84 10.44 240.84 12.77L240.84 12.77L240.84 21.50L238.70 21.50L238.10 19.70L238.01 19.70Q237.46 20.40 236.87 20.87Q236.28 21.34 235.52 21.54Q234.77 21.74 233.69 21.74L233.69 21.74Q232.54 21.74 231.61 21.31Q230.69 20.88 230.16 19.98Q229.63 19.08 229.63 17.71L229.63 17.71Q229.63 15.70 231.11 14.68Q232.58 13.66 235.58 13.56L235.58 13.56L237.84 13.49L237.84 12.84Q237.84 11.59 237.24 11.06Q236.64 10.54 235.56 10.54L235.56 10.54Q234.58 10.54 233.66 10.82Q232.75 11.11 231.89 11.50L231.89 11.50L230.93 9.38Q231.89 8.88 233.12 8.57Q234.36 8.26 235.70 8.26ZM237.84 15.36L236.26 15.41Q234.26 15.48 233.50 16.09Q232.73 16.70 232.73 17.74L232.73 17.74Q232.73 18.65 233.28 19.06Q233.83 19.46 234.70 19.46L234.70 19.46Q236.02 19.46 236.93 18.71Q237.84 17.95 237.84 16.46L237.84 16.46L237.84 15.36ZM251.45 8.26L251.45 8.26Q251.74 8.26 252.12 8.28Q252.50 8.30 252.77 8.38L252.77 8.38L252.50 11.18Q252.29 11.14 251.94 11.10Q251.59 11.06 251.33 11.06L251.33 11.06Q250.61 11.06 249.95 11.29Q249.29 11.52 248.77 11.96Q248.26 12.41 247.96 13.10Q247.66 13.80 247.66 14.76L247.66 14.76L247.66 21.50L244.63 21.50L244.63 8.50L246.96 8.50L247.39 10.75L247.54 10.75Q247.92 10.06 248.50 9.49Q249.07 8.93 249.83 8.59Q250.58 8.26 251.45 8.26ZM255.17 8.50L258.19 8.50L258.19 21.50L255.17 21.50L255.17 8.50ZM256.68 3.48L256.68 3.48Q257.35 3.48 257.86 3.83Q258.36 4.18 258.36 5.06L258.36 5.06Q258.36 5.93 257.86 6.30Q257.35 6.67 256.68 6.67L256.68 6.67Q255.98 6.67 255.49 6.30Q255 5.93 255 5.06L255 5.06Q255 4.18 255.49 3.83Q255.98 3.48 256.68 3.48ZM273.26 21.74L273.26 21.74Q271.63 21.74 270.30 20.93Q268.97 20.11 268.19 18.44Q267.41 16.78 267.41 14.21L267.41 14.21Q267.41 12.72 267.60 11.28Q267.79 9.84 268.30 8.56Q268.80 7.27 269.70 6.28Q270.60 5.28 271.98 4.72Q273.36 4.15 275.33 4.15L275.33 4.15Q275.81 4.15 276.43 4.20Q277.06 4.25 277.46 4.34L277.46 4.34L277.46 6.84Q277.03 6.72 276.53 6.65Q276.02 6.58 275.52 6.58L275.52 6.58Q273.94 6.58 272.92 7.03Q271.90 7.49 271.31 8.29Q270.72 9.10 270.46 10.16Q270.19 11.23 270.14 12.50L270.14 12.50L270.29 12.50Q270.77 11.66 271.63 11.09Q272.50 10.51 273.89 10.51L273.89 10.51Q275.38 10.51 276.46 11.15Q277.54 11.78 278.12 12.97Q278.71 14.16 278.71 15.86L278.71 15.86Q278.71 17.69 278.04 19.01Q277.37 20.33 276.16 21.04Q274.94 21.74 273.26 21.74ZM273.22 19.25L273.22 19.25Q274.34 19.25 275.05 18.43Q275.76 17.62 275.76 15.89L275.76 15.89Q275.76 14.50 275.14 13.69Q274.51 12.89 273.26 12.89L273.26 12.89Q272.42 12.89 271.79 13.28Q271.15 13.68 270.80 14.29Q270.46 14.90 270.46 15.55L270.46 15.55Q270.46 16.42 270.76 17.28Q271.06 18.14 271.67 18.70Q272.28 19.25 273.22 19.25ZM286.18 21.74L286.18 21.74Q283.30 21.74 281.88 19.40Q280.46 17.06 280.46 12.94L280.46 12.94Q280.46 10.15 281.04 8.18Q281.62 6.22 282.86 5.16Q284.11 4.10 286.18 4.10L286.18 4.10Q289.06 4.10 290.48 6.43Q291.91 8.76 291.91 12.91L291.91 12.91Q291.91 15 291.60 16.63Q291.29 18.26 290.60 19.40Q289.92 20.54 288.82 21.14Q287.71 21.74 286.18 21.74ZM286.18 19.22L286.18 19.22Q287.62 19.22 288.24 17.66Q288.86 16.10 288.86 12.94L288.86 12.94Q288.86 9.77 288.24 8.20Q287.62 6.62 286.18 6.62L286.18 6.62Q284.71 6.62 284.12 8.21Q283.54 9.79 283.54 12.94L283.54 12.94Q283.54 16.08 284.14 17.65Q284.74 19.22 286.18 19.22ZM299.40 21.74L299.40 21.74Q296.52 21.74 295.10 19.40Q293.69 17.06 293.69 12.94L293.69 12.94Q293.69 10.15 294.26 8.18Q294.84 6.22 296.09 5.16Q297.34 4.10 299.40 4.10L299.40 4.10Q302.28 4.10 303.71 6.43Q305.14 8.76 305.14 12.91L305.14 12.91Q305.14 15 304.82 16.63Q304.51 18.26 303.83 19.40Q303.14 20.54 302.04 21.14Q300.94 21.74 299.40 21.74ZM299.40 19.22L299.40 19.22Q300.84 19.22 301.46 17.66Q302.09 16.10 302.09 12.94L302.09 12.94Q302.09 9.77 301.46 8.20Q300.84 6.62 299.40 6.62L299.40 6.62Q297.94 6.62 297.35 8.21Q296.76 9.79 296.76 12.94L296.76 12.94Q296.76 16.08 297.36 17.65Q297.96 19.22 299.40 19.22ZM321.17 8.26L321.17 8.26Q323.35 8.26 324.59 9.38Q325.82 10.51 325.82 13.03L325.82 13.03L325.82 21.50L322.80 21.50L322.80 13.63Q322.80 12.17 322.22 11.44Q321.65 10.70 320.40 10.70L320.40 10.70Q318.58 10.70 317.90 11.84Q317.23 12.98 317.23 15.14L317.23 15.14L317.23 21.50L314.21 21.50L314.21 8.50L316.54 8.50L316.97 10.20L317.14 10.20Q317.57 9.53 318.19 9.10Q318.82 8.66 319.58 8.46Q320.35 8.26 321.17 8.26ZM341.23 14.98L341.23 14.98Q341.23 16.61 340.80 17.86Q340.37 19.10 339.56 19.98Q338.76 20.86 337.60 21.30Q336.43 21.74 335.02 21.74L335.02 21.74Q333.67 21.74 332.54 21.30Q331.42 20.86 330.59 19.98Q329.76 19.10 329.30 17.86Q328.85 16.61 328.85 14.98L328.85 14.98Q328.85 12.82 329.59 11.32Q330.34 9.82 331.74 9.04Q333.14 8.26 335.06 8.26L335.06 8.26Q336.89 8.26 338.27 9.04Q339.65 9.82 340.44 11.32Q341.23 12.82 341.23 14.98ZM331.94 14.98L331.94 14.98Q331.94 16.34 332.27 17.32Q332.59 18.29 333.28 18.79Q333.96 19.30 335.04 19.30L335.04 19.30Q336.14 19.30 336.83 18.79Q337.51 18.29 337.82 17.32Q338.14 16.34 338.14 14.98L338.14 14.98Q338.14 13.58 337.81 12.64Q337.49 11.69 336.80 11.20Q336.12 10.70 335.04 10.70L335.04 10.70Q333.41 10.70 332.68 11.81Q331.94 12.91 331.94 14.98ZM351.17 8.26L351.17 8.26Q351.46 8.26 351.84 8.28Q352.22 8.30 352.49 8.38L352.49 8.38L352.22 11.18Q352.01 11.14 351.66 11.10Q351.31 11.06 351.05 11.06L351.05 11.06Q350.33 11.06 349.67 11.29Q349.01 11.52 348.49 11.96Q347.98 12.41 347.68 13.10Q347.38 13.80 347.38 14.76L347.38 14.76L347.38 21.50L344.35 21.50L344.35 8.50L346.68 8.50L347.11 10.75L347.26 10.75Q347.64 10.06 348.22 9.49Q348.79 8.93 349.55 8.59Q350.30 8.26 351.17 8.26ZM369.79 8.26L369.79 8.26Q372.00 8.26 373.12 9.38Q374.23 10.51 374.23 13.03L374.23 13.03L374.23 21.50L371.21 21.50L371.21 13.61Q371.21 12.17 370.68 11.44Q370.15 10.70 369.00 10.70L369.00 10.70Q367.42 10.70 366.74 11.74Q366.07 12.77 366.07 14.74L366.07 14.74L366.07 21.50L363.05 21.50L363.05 13.61Q363.05 12.65 362.81 12.00Q362.57 11.35 362.08 11.03Q361.58 10.70 360.82 10.70L360.82 10.70Q359.74 10.70 359.09 11.22Q358.44 11.74 358.18 12.72Q357.91 13.70 357.91 15.14L357.91 15.14L357.91 21.50L354.89 21.50L354.89 8.50L357.22 8.50L357.65 10.20L357.82 10.20Q358.22 9.53 358.81 9.10Q359.40 8.66 360.13 8.46Q360.86 8.26 361.61 8.26L361.61 8.26Q363.07 8.26 364.08 8.75Q365.09 9.24 365.59 10.27L365.59 10.27L365.83 10.27Q366.43 9.22 367.52 8.74Q368.62 8.26 369.79 8.26ZM383.21 8.26L383.21 8.26Q385.73 8.26 387.04 9.35Q388.34 10.44 388.34 12.77L388.34 12.77L388.34 21.50L386.21 21.50L385.61 19.70L385.51 19.70Q384.96 20.40 384.37 20.87Q383.78 21.34 383.03 21.54Q382.27 21.74 381.19 21.74L381.19 21.74Q380.04 21.74 379.12 21.31Q378.19 20.88 377.66 19.98Q377.14 19.08 377.14 17.71L377.14 17.71Q377.14 15.70 378.61 14.68Q380.09 13.66 383.09 13.56L383.09 13.56L385.34 13.49L385.34 12.84Q385.34 11.59 384.74 11.06Q384.14 10.54 383.06 10.54L383.06 10.54Q382.08 10.54 381.17 10.82Q380.26 11.11 379.39 11.50L379.39 11.50L378.43 9.38Q379.39 8.88 380.63 8.57Q381.86 8.26 383.21 8.26ZM385.34 15.36L383.76 15.41Q381.77 15.48 381 16.09Q380.23 16.70 380.23 17.74L380.23 17.74Q380.23 18.65 380.78 19.06Q381.34 19.46 382.20 19.46L382.20 19.46Q383.52 19.46 384.43 18.71Q385.34 17.95 385.34 16.46L385.34 16.46L385.34 15.36ZM395.16 3.26L395.16 21.50L392.14 21.50L392.14 3.26L395.16 3.26Z"/></svg>