<svg xmlns="http://www.w3.org/2000/svg" xmlns:xlink="http://www.w3.org/1999/xlink" width="276.47999999999996" height="29.088"><path fill="black" d="M2.74 5.62L2.74 5.62Q2.74 5.38 2.95 5.38L2.95 5.38L3.62 5.38Q3.84 5.38 3.84 5.62L3.84 5.62L3.84 22.01Q3.84 22.22 4.06 22.22L4.06 22.22L12.77 22.22Q12.96 22.22 12.96 22.39L12.96 22.39L12.96 23.02Q12.96 23.11 12.92 23.15Q12.89 23.18 12.79 23.18L12.79 23.18L2.95 23.18Q2.83 23.18 2.78 23.12Q2.74 23.06 2.74 22.94L2.74 22.94L2.74 5.62ZM17.23 10.70L17.23 22.90Q17.23 23.06 17.18 23.12Q17.14 23.18 16.94 23.18L16.94 23.18L16.54 23.18Q16.37 23.18 16.32 23.14Q16.27 23.09 16.27 22.94L16.27 22.94L16.27 10.70Q16.27 10.46 16.49 10.46L16.49 10.46L17.02 10.46Q17.23 10.46 17.23 10.70L17.23 10.70ZM17.35 5.69L17.35 7.34Q17.35 7.73 17.06 7.73L17.06 7.73L16.42 7.73Q16.25 7.73 16.20 7.63Q16.15 7.54 16.15 7.39L16.15 7.39L16.15 5.69Q16.15 5.38 16.44 5.38L16.44 5.38L17.06 5.38Q17.35 5.38 17.35 5.69L17.35 5.69ZM22.13 23.18L21.86 23.18Q21.72 23.18 21.66 23.11Q21.60 23.04 21.60 22.87L21.60 22.87L21.60 5.62Q21.60 5.38 21.82 5.38L21.82 5.38L22.37 5.38Q22.56 5.38 22.56 5.64L22.56 5.64L22.56 11.71Q22.56 11.95 22.63 11.96Q22.70 11.98 22.87 11.83L22.87 11.83Q22.99 11.71 23.48 11.33Q23.98 10.94 24.85 10.58Q25.73 10.22 27 10.22L27 10.22Q28.85 10.22 29.99 11.11Q31.13 12 31.67 13.49Q32.21 14.98 32.21 16.78L32.21 16.78Q32.21 19.85 30.77 21.64Q29.33 23.42 26.74 23.42L26.74 23.42Q25.51 23.42 24.68 23.05Q23.86 22.68 23.39 22.22Q22.92 21.77 22.78 21.58L22.78 21.58Q22.68 21.46 22.61 21.47Q22.54 21.48 22.54 21.65L22.54 21.65L22.49 22.87Q22.49 23.18 22.13 23.18L22.13 23.18ZM22.56 13.22L22.56 18.94Q22.56 19.90 23.16 20.71Q23.76 21.53 24.70 22.02Q25.63 22.51 26.64 22.51L26.64 22.51Q27.89 22.51 28.92 21.90Q29.95 21.29 30.56 20.02Q31.18 18.74 31.18 16.78L31.18 16.78Q31.18 14.21 30.07 12.67Q28.97 11.14 26.83 11.14L26.83 11.14Q25.51 11.14 24.40 11.75Q23.28 12.36 22.56 13.22L22.56 13.22ZM36.02 23.18L36.02 23.18Q35.93 23.18 35.87 23.12Q35.81 23.06 35.81 22.97L35.81 22.97L35.81 10.68Q35.81 10.46 36 10.46L36 10.46L36.50 10.46Q36.70 10.46 36.70 10.66L36.70 10.66L36.70 12.29Q36.70 12.41 36.74 12.43Q36.79 12.46 36.89 12.36L36.89 12.36Q37.61 11.57 38.23 11.10Q38.86 10.63 39.46 10.43Q40.06 10.22 40.70 10.22L40.70 10.22Q41.54 10.22 41.54 10.46L41.54 10.46L41.54 11.09Q41.54 11.21 41.42 11.21L41.42 11.21Q41.33 11.21 41.17 11.20Q41.02 11.18 40.70 11.18L40.70 11.18Q40.13 11.18 39.44 11.46Q38.76 11.74 38.16 12.20Q37.56 12.67 37.16 13.25Q36.77 13.82 36.77 14.42L36.77 14.42L36.77 22.97Q36.77 23.18 36.55 23.18L36.55 23.18L36.02 23.18ZM44.28 17.42L44.28 17.42Q44.28 18.77 44.93 19.93Q45.58 21.10 46.67 21.80Q47.76 22.51 49.10 22.51L49.10 22.51Q50.54 22.51 51.60 21.94Q52.66 21.36 53.30 20.28L53.30 20.28Q53.38 20.16 53.44 20.15Q53.50 20.14 53.57 20.18L53.57 20.18L54.12 20.54Q54.26 20.64 54.14 20.78L54.14 20.78Q53.59 21.65 52.85 22.24Q52.10 22.82 51.17 23.12Q50.23 23.42 49.10 23.42L49.10 23.42Q47.38 23.42 46.07 22.61Q44.76 21.79 44.02 20.32Q43.27 18.84 43.27 16.92L43.27 16.92Q43.27 14.81 44.03 13.32Q44.78 11.83 46.10 11.03Q47.42 10.22 49.10 10.22L49.10 10.22Q50.81 10.22 52.03 10.98Q53.26 11.74 53.93 13.16Q54.60 14.59 54.60 16.61L54.60 16.61Q54.60 16.75 54.58 16.92Q54.55 17.09 54.29 17.09L54.29 17.09L44.42 17.09Q44.35 17.09 44.32 17.20Q44.28 17.30 44.28 17.42L44.28 17.42ZM44.30 16.22L53.18 16.22Q53.45 16.22 53.52 16.15Q53.59 16.08 53.59 15.89L53.59 15.89Q53.59 14.57 53.04 13.49Q52.49 12.41 51.48 11.77Q50.47 11.14 49.08 11.14L49.08 11.14Q47.50 11.14 46.43 11.90Q45.36 12.67 44.83 13.85Q44.30 15.02 44.30 16.22L44.30 16.22ZM63.79 5.62L63.79 5.62Q63.79 5.38 64.01 5.38L64.01 5.38L73.73 5.38Q73.90 5.38 73.90 5.54L73.90 5.54L73.90 6.17Q73.90 6.34 73.70 6.34L73.70 6.34L65.11 6.34Q64.90 6.34 64.90 6.55L64.90 6.55L64.90 13.85Q64.90 14.02 65.11 14.02L65.11 14.02L72.29 14.02Q72.46 14.02 72.46 14.18L72.46 14.18L72.46 14.81Q72.46 14.98 72.26 14.98L72.26 14.98L65.11 14.98Q64.90 14.98 64.90 15.19L64.90 15.19L64.90 23.02Q64.90 23.18 64.73 23.18L64.73 23.18L64.01 23.18Q63.89 23.18 63.84 23.14Q63.79 23.09 63.79 22.94L63.79 22.94L63.79 5.62ZM76.25 23.18L76.25 23.18Q76.15 23.18 76.09 23.12Q76.03 23.06 76.03 22.97L76.03 22.97L76.03 10.68Q76.03 10.46 76.22 10.46L76.22 10.46L76.73 10.46Q76.92 10.46 76.92 10.66L76.92 10.66L76.92 12.29Q76.92 12.41 76.97 12.43Q77.02 12.46 77.11 12.36L77.11 12.36Q77.83 11.57 78.46 11.10Q79.08 10.63 79.68 10.43Q80.28 10.22 80.93 10.22L80.93 10.22Q81.77 10.22 81.77 10.46L81.77 10.46L81.77 11.09Q81.77 11.21 81.65 11.21L81.65 11.21Q81.55 11.21 81.40 11.20Q81.24 11.18 80.93 11.18L80.93 11.18Q80.35 11.18 79.67 11.46Q78.98 11.74 78.38 12.20Q77.78 12.67 77.39 13.25Q76.99 13.82 76.99 14.42L76.99 14.42L76.99 22.97Q76.99 23.18 76.78 23.18L76.78 23.18L76.25 23.18ZM92.18 21.46L92.18 21.46Q91.20 22.44 90.08 22.93Q88.97 23.42 87.62 23.42L87.62 23.42Q85.73 23.42 84.64 22.49Q83.54 21.55 83.54 19.94L83.54 19.94Q83.54 18.72 84.20 17.86Q84.86 16.99 86.18 16.48Q87.50 15.96 89.47 15.79L89.47 15.79L91.99 15.58Q92.18 15.55 92.29 15.47Q92.40 15.38 92.40 15.22L92.40 15.22L92.40 14.47Q92.40 12.94 91.43 12.04Q90.46 11.14 88.82 11.14L88.82 11.14Q87.58 11.14 86.59 11.70Q85.61 12.26 84.79 13.34L84.79 13.34Q84.72 13.44 84.67 13.46Q84.62 13.49 84.55 13.44L84.55 13.44L83.98 13.08Q83.93 13.03 83.92 12.98Q83.90 12.94 83.98 12.84L83.98 12.84Q84.74 11.71 85.96 10.97Q87.17 10.22 88.87 10.22L88.87 10.22Q90.24 10.22 91.25 10.72Q92.26 11.21 92.81 12.14Q93.36 13.08 93.36 14.38L93.36 14.38L93.36 22.94Q93.36 23.09 93.30 23.14Q93.24 23.18 93.12 23.18L93.12 23.18L92.69 23.18Q92.59 23.18 92.53 23.14Q92.47 23.09 92.47 22.97L92.47 22.97L92.42 21.50Q92.38 21.22 92.18 21.46L92.18 21.46ZM92.40 16.80L92.40 16.80Q92.40 16.42 92.06 16.46L92.06 16.46L89.93 16.63Q88.51 16.73 87.49 16.99Q86.47 17.26 85.82 17.66Q85.18 18.07 84.86 18.62Q84.55 19.18 84.55 19.87L84.55 19.87Q84.55 21.12 85.43 21.82Q86.30 22.51 87.77 22.51L87.77 22.51Q88.66 22.51 89.51 22.19Q90.36 21.86 91.03 21.34L91.03 21.34Q91.70 20.78 92.05 20.20Q92.40 19.61 92.40 19.08L92.40 19.08L92.40 16.80ZM97.70 23.18L97.70 23.18Q97.49 23.18 97.49 22.97L97.49 22.97L97.49 10.68Q97.49 10.46 97.68 10.46L97.68 10.46L98.18 10.46Q98.38 10.46 98.38 10.66L98.38 10.66L98.38 12.14Q98.38 12.26 98.42 12.29Q98.47 12.31 98.57 12.22L98.57 12.22Q99.48 11.57 100.20 11.12Q100.92 10.68 101.64 10.45Q102.36 10.22 103.22 10.22L103.22 10.22Q105.14 10.22 106.13 11.21Q107.11 12.19 107.11 13.75L107.11 13.75L107.11 22.94Q107.11 23.18 106.90 23.18L106.90 23.18L106.37 23.18Q106.27 23.18 106.21 23.12Q106.15 23.06 106.15 22.97L106.15 22.97L106.15 14.14Q106.15 12.72 105.46 11.93Q104.76 11.14 103.20 11.14L103.20 11.14Q102.36 11.14 101.64 11.39Q100.92 11.64 100.16 12.12Q99.41 12.60 98.45 13.34L98.45 13.34L98.45 22.97Q98.45 23.18 98.23 23.18L98.23 23.18L97.70 23.18ZM121.22 22.90L121.22 22.90Q121.32 23.04 121.30 23.11Q121.27 23.18 121.10 23.18L121.10 23.18L120.36 23.18Q120.26 23.18 120.19 23.15Q120.12 23.11 120.07 23.02L120.07 23.02L115.70 16.01Q115.68 15.96 115.64 15.94Q115.61 15.91 115.51 16.01L115.51 16.01L112.44 19.13Q112.34 19.22 112.31 19.32Q112.27 19.42 112.27 19.54L112.27 19.54L112.27 22.90Q112.27 23.06 112.22 23.12Q112.18 23.18 111.98 23.18L111.98 23.18L111.58 23.18Q111.41 23.18 111.36 23.14Q111.31 23.09 111.31 22.94L111.31 22.94L111.31 5.62Q111.31 5.38 111.53 5.38L111.53 5.38L112.06 5.38Q112.27 5.38 112.27 5.62L112.27 5.62L112.27 17.57Q112.27 17.78 112.32 17.81Q112.37 17.83 112.51 17.69L112.51 17.69L119.33 10.70Q119.54 10.46 119.74 10.46L119.74 10.46L120.50 10.46Q120.70 10.46 120.71 10.56Q120.72 10.66 120.55 10.82L120.55 10.82L116.50 14.98Q116.45 15.02 116.44 15.08Q116.42 15.14 116.47 15.24L116.47 15.24L121.22 22.90ZM125.18 5.62L125.18 22.90Q125.18 23.06 125.14 23.12Q125.09 23.18 124.90 23.18L124.90 23.18L124.49 23.18Q124.22 23.18 124.22 22.94L124.22 22.94L124.22 5.62Q124.22 5.38 124.44 5.38L124.44 5.38L124.97 5.38Q125.18 5.38 125.18 5.62L125.18 5.62ZM130.51 10.70L130.51 22.90Q130.51 23.06 130.46 23.12Q130.42 23.18 130.22 23.18L130.22 23.18L129.82 23.18Q129.65 23.18 129.60 23.14Q129.55 23.09 129.55 22.94L129.55 22.94L129.55 10.70Q129.55 10.46 129.77 10.46L129.77 10.46L130.30 10.46Q130.51 10.46 130.51 10.70L130.51 10.70ZM130.63 5.69L130.63 7.34Q130.63 7.73 130.34 7.73L130.34 7.73L129.70 7.73Q129.53 7.73 129.48 7.63Q129.43 7.54 129.43 7.39L129.43 7.39L129.43 5.69Q129.43 5.38 129.72 5.38L129.72 5.38L130.34 5.38Q130.63 5.38 130.63 5.69L130.63 5.69ZM135.10 23.18L135.10 23.18Q134.88 23.18 134.88 22.97L134.88 22.97L134.88 10.68Q134.88 10.46 135.07 10.46L135.07 10.46L135.58 10.46Q135.77 10.46 135.77 10.66L135.77 10.66L135.77 12.14Q135.77 12.26 135.82 12.29Q135.86 12.31 135.96 12.22L135.96 12.22Q136.87 11.57 137.59 11.12Q138.31 10.68 139.03 10.45Q139.75 10.22 140.62 10.22L140.62 10.22Q142.54 10.22 143.52 11.21Q144.50 12.19 144.50 13.75L144.50 13.75L144.50 22.94Q144.50 23.18 144.29 23.18L144.29 23.18L143.76 23.18Q143.66 23.18 143.60 23.12Q143.54 23.06 143.54 22.97L143.54 22.97L143.54 14.14Q143.54 12.72 142.85 11.93Q142.15 11.14 140.59 11.14L140.59 11.14Q139.75 11.14 139.03 11.39Q138.31 11.64 137.56 12.12Q136.80 12.60 135.84 13.34L135.84 13.34L135.84 22.97Q135.84 23.18 135.62 23.18L135.62 23.18L135.10 23.18ZM161.02 22.18L161.02 22.18Q161.18 22.18 161.18 22.32L161.18 22.32L161.18 23.04Q161.18 23.06 161.15 23.12Q161.11 23.18 161.02 23.18L161.02 23.18L153.29 23.18Q153.14 23.18 153.14 23.04L153.14 23.04L153.14 22.32Q153.14 22.18 153.29 22.18L153.29 22.18L156.67 22.18Q156.82 22.18 156.82 22.08L156.82 22.08L156.82 6.91Q156.82 6.72 156.67 6.77L156.67 6.77L153.31 8.11Q153.12 8.18 153.12 7.94L153.12 7.94L153.12 7.37Q153.12 7.25 153.14 7.22Q153.17 7.20 153.26 7.15L153.26 7.15L156.55 5.52Q156.72 5.42 156.83 5.40Q156.94 5.38 157.08 5.38L157.08 5.38L157.73 5.38Q157.92 5.38 157.92 5.59L157.92 5.59L157.92 22.03Q157.92 22.18 158.04 22.18L158.04 22.18L161.02 22.18ZM170.42 5.14L170.42 5.14Q171.72 5.14 172.85 5.70Q173.98 6.26 174.83 7.40Q175.68 8.54 176.15 10.27Q176.62 12 176.62 14.33L176.62 14.33Q176.62 17.42 175.79 19.44Q174.96 21.46 173.56 22.44Q172.15 23.42 170.40 23.42L170.40 23.42Q168.65 23.42 167.24 22.44Q165.84 21.46 165.02 19.45Q164.21 17.45 164.21 14.38L164.21 14.38Q164.21 12.02 164.69 10.30Q165.17 8.57 166.02 7.42Q166.87 6.26 168 5.70Q169.13 5.14 170.42 5.14L170.42 5.14ZM170.45 22.42L170.45 22.42Q171.94 22.42 173.06 21.58Q174.19 20.74 174.83 18.95Q175.46 17.16 175.46 14.33L175.46 14.33Q175.46 11.45 174.82 9.65Q174.17 7.85 173.03 7.00Q171.89 6.14 170.42 6.14L170.42 6.14Q168.96 6.14 167.82 7.00Q166.68 7.85 166.02 9.66Q165.36 11.47 165.36 14.33L165.36 14.33Q165.36 17.16 166.02 18.95Q166.68 20.74 167.83 21.58Q168.98 22.42 170.45 22.42L170.45 22.42ZM186.62 5.14L186.62 5.14Q187.92 5.14 189.05 5.70Q190.18 6.26 191.03 7.40Q191.88 8.54 192.35 10.27Q192.82 12 192.82 14.33L192.82 14.33Q192.82 17.42 191.99 19.44Q191.16 21.46 189.76 22.44Q188.35 23.42 186.60 23.42L186.60 23.42Q184.85 23.42 183.44 22.44Q182.04 21.46 181.22 19.45Q180.41 17.45 180.41 14.38L180.41 14.38Q180.41 12.02 180.89 10.30Q181.37 8.57 182.22 7.42Q183.07 6.26 184.20 5.70Q185.33 5.14 186.62 5.14L186.62 5.14ZM186.65 22.42L186.65 22.42Q188.14 22.42 189.26 21.58Q190.39 20.74 191.03 18.95Q191.66 17.16 191.66 14.33L191.66 14.33Q191.66 11.45 191.02 9.65Q190.37 7.85 189.23 7.00Q188.09 6.14 186.62 6.14L186.62 6.14Q185.16 6.14 184.02 7.00Q182.88 7.85 182.22 9.66Q181.56 11.47 181.56 14.33L181.56 14.33Q181.56 17.16 182.22 18.95Q182.88 20.74 184.03 21.58Q185.18 22.42 186.65 22.42L186.65 22.42ZM202.39 23.18L202.39 23.18Q202.18 23.18 202.18 22.97L202.18 22.97L202.18 10.68Q202.18 10.46 202.37 10.46L202.37 10.46L202.87 10.46Q203.06 10.46 203.06 10.66L203.06 10.66L203.06 12.14Q203.06 12.26 203.11 12.29Q203.16 12.31 203.26 12.22L203.26 12.22Q204.17 11.57 204.89 11.12Q205.61 10.68 206.33 10.45Q207.05 10.22 207.91 10.22L207.91 10.22Q209.83 10.22 210.82 11.21Q211.80 12.19 211.80 13.75L211.80 13.75L211.80 22.94Q211.80 23.18 211.58 23.18L211.58 23.18L211.06 23.18Q210.96 23.18 210.90 23.12Q210.84 23.06 210.84 22.97L210.84 22.97L210.84 14.14Q210.84 12.72 210.14 11.93Q209.45 11.14 207.89 11.14L207.89 11.14Q207.05 11.14 206.33 11.39Q205.61 11.64 204.85 12.12Q204.10 12.60 203.14 13.34L203.14 13.34L203.14 22.97Q203.14 23.18 202.92 23.18L202.92 23.18L202.39 23.18ZM220.99 23.42L220.99 23.42Q219.24 23.42 217.92 22.60Q216.60 21.77 215.88 20.29Q215.16 18.82 215.16 16.90L215.16 16.90Q215.16 14.93 215.89 13.43Q216.62 11.93 217.94 11.08Q219.26 10.22 221.02 10.22L221.02 10.22Q222.77 10.22 224.06 11.06Q225.36 11.90 226.09 13.40Q226.82 14.90 226.82 16.85L226.82 16.85Q226.82 18.79 226.09 20.27Q225.36 21.74 224.05 22.58Q222.74 23.42 220.99 23.42L220.99 23.42ZM221.04 22.51L221.04 22.51Q222.53 22.51 223.60 21.80Q224.66 21.10 225.24 19.82Q225.82 18.55 225.82 16.85L225.82 16.85Q225.82 15.14 225.23 13.86Q224.64 12.58 223.56 11.86Q222.48 11.14 221.02 11.14L221.02 11.14Q219.55 11.14 218.46 11.86Q217.37 12.58 216.77 13.86Q216.17 15.14 216.17 16.85L216.17 16.85Q216.17 18.53 216.77 19.81Q217.37 21.10 218.46 21.80Q219.55 22.51 221.04 22.51L221.04 22.51ZM230.57 23.18L230.57 23.18Q230.47 23.18 230.41 23.12Q230.35 23.06 230.35 22.97L230.35 22.97L230.35 10.68Q230.35 10.46 230.54 10.46L230.54 10.46L231.05 10.46Q231.24 10.46 231.24 10.66L231.24 10.66L231.24 12.29Q231.24 12.41 231.29 12.43Q231.34 12.46 231.43 12.36L231.43 12.36Q232.15 11.57 232.78 11.10Q233.40 10.63 234 10.43Q234.60 10.22 235.25 10.22L235.25 10.22Q236.09 10.22 236.09 10.46L236.09 10.46L236.09 11.09Q236.09 11.21 235.97 11.21L235.97 11.21Q235.87 11.21 235.72 11.20Q235.56 11.18 235.25 11.18L235.25 11.18Q234.67 11.18 233.99 11.46Q233.30 11.74 232.70 12.20Q232.10 12.67 231.71 13.25Q231.31 13.82 231.31 14.42L231.31 14.42L231.31 22.97Q231.31 23.18 231.10 23.18L231.10 23.18L230.57 23.18ZM239.11 23.18L239.11 23.18Q238.90 23.18 238.90 22.97L238.90 22.97L238.90 10.68Q238.90 10.46 239.09 10.46L239.09 10.46L239.59 10.46Q239.78 10.46 239.78 10.66L239.78 10.66L239.78 12.14Q239.78 12.26 239.83 12.29Q239.88 12.31 239.98 12.22L239.98 12.22Q240.84 11.57 241.52 11.12Q242.21 10.68 242.89 10.45Q243.58 10.22 244.39 10.22L244.39 10.22Q245.90 10.22 246.73 10.90Q247.56 11.57 247.80 12.29L247.80 12.29Q247.85 12.38 247.96 12.35Q248.06 12.31 248.16 12.22L248.16 12.22Q249.02 11.57 249.71 11.12Q250.39 10.68 251.08 10.45Q251.76 10.22 252.58 10.22L252.58 10.22Q254.38 10.22 255.30 11.21Q256.22 12.19 256.22 13.75L256.22 13.75L256.22 22.94Q256.22 23.18 256.01 23.18L256.01 23.18L255.48 23.18Q255.38 23.18 255.32 23.12Q255.26 23.06 255.26 22.97L255.26 22.97L255.26 14.14Q255.26 12.72 254.63 11.93Q253.99 11.14 252.55 11.14L252.55 11.14Q251.69 11.14 250.92 11.45Q250.15 11.76 249.54 12.20Q248.93 12.65 248.45 13.03L248.45 13.03Q248.23 13.20 248.14 13.34Q248.04 13.49 248.04 13.75L248.04 13.75L248.04 22.94Q248.04 23.18 247.82 23.18L247.82 23.18L247.30 23.18Q247.20 23.18 247.14 23.12Q247.08 23.06 247.08 22.97L247.08 22.97L247.08 14.14Q247.08 12.72 246.44 11.93Q245.81 11.14 244.37 11.14L244.37 11.14Q243.17 11.14 242.20 11.69Q241.22 12.24 239.86 13.34L239.86 13.34L239.86 22.97Q239.86 23.18 239.64 23.18L239.64 23.18L239.11 23.18ZM268.03 21.46L268.03 21.46Q267.05 22.44 265.93 22.93Q264.82 23.42 263.47 23.42L263.47 23.42Q261.58 23.42 260.48 22.49Q259.39 21.55 259.39 19.94L259.39 19.94Q259.39 18.72 260.05 17.86Q260.71 16.99 262.03 16.48Q263.35 15.96 265.32 15.79L265.32 15.79L267.84 15.58Q268.03 15.55 268.14 15.47Q268.25 15.38 268.25 15.22L268.25 15.22L268.25 14.47Q268.25 12.94 267.28 12.04Q266.30 11.14 264.67 11.14L264.67 11.14Q263.42 11.14 262.44 11.70Q261.46 12.26 260.64 13.34L260.64 13.34Q260.57 13.44 260.52 13.46Q260.47 13.49 260.40 13.44L260.40 13.44L259.82 13.08Q259.78 13.03 259.76 12.98Q259.75 12.94 259.82 12.84L259.82 12.84Q260.59 11.71 261.80 10.97Q263.02 10.22 264.72 10.22L264.72 10.22Q266.09 10.22 267.10 10.72Q268.10 11.21 268.66 12.14Q269.21 13.08 269.21 14.38L269.21 14.38L269.21 22.94Q269.21 23.09 269.15 23.14Q269.09 23.18 268.97 23.18L268.97 23.18L268.54 23.18Q268.44 23.18 268.38 23.14Q268.32 23.09 268.32 22.97L268.32 22.97L268.27 21.50Q268.22 21.22 268.03 21.46L268.03 21.46ZM268.25 16.80L268.25 16.80Q268.25 16.42 267.91 16.46L267.91 16.46L265.78 16.63Q264.36 16.73 263.34 16.99Q262.32 17.26 261.67 17.66Q261.02 18.07 260.71 18.62Q260.40 19.18 260.40 19.87L260.40 19.87Q260.40 21.12 261.28 21.82Q262.15 22.51 263.62 22.51L263.62 22.51Q264.50 22.51 265.36 22.19Q266.21 21.86 266.88 21.34L266.88 21.34Q267.55 20.78 267.90 20.20Q268.25 19.61 268.25 19.08L268.25 19.08L268.25 16.80ZM274.30 5.62L274.30 22.90Q274.30 23.06 274.25 23.12Q274.20 23.18 274.01 23.18L274.01 23.18L273.60 23.18Q273.34 23.18 273.34 22.94L273.34 22.94L273.34 5.62Q273.34 5.38 273.55 5.38L273.55 5.38L274.08 5.38Q274.30 5.38 274.30 5.62L274.30 5.62Z"/></svg>