<svg xmlns="http://www.w3.org/2000/svg" xmlns:xlink="http://www.w3.org/1999/xlink" width="290.08799999999997" height="36.6"><path fill="black" d="M8.80 27L0.62 27L0.62 26.53L8.26 26.53Q9.25 26.53 10.06 25.99Q10.87 25.44 11.34 24.41Q11.81 23.39 11.81 21.96L11.81 21.96Q11.81 20.53 11.34 19.66Q10.87 18.79 10.06 18.39Q9.25 17.99 8.26 17.99L8.26 17.99L5.52 17.99L5.52 17.69L8.80 17.69Q10.60 17.69 12.08 18.11Q13.56 18.54 14.44 19.51Q15.31 20.47 15.31 22.10L15.31 22.10Q15.31 24.74 13.58 25.87Q11.86 27 8.80 27L8.80 27ZM5.94 26.80L2.78 26.80L2.78 9.20L5.94 9.20L5.94 26.80ZM8.32 17.83L5.52 17.83L5.52 17.52L8.02 17.52Q8.89 17.52 9.65 17.15Q10.42 16.79 10.88 15.95Q11.34 15.12 11.34 13.69L11.34 13.69Q11.34 12.26 10.88 11.33Q10.42 10.39 9.65 9.93Q8.89 9.47 8.02 9.47L8.02 9.47L0.62 9.47L0.62 9L8.32 9Q11.20 9 12.90 10.05Q14.60 11.10 14.60 13.44L14.60 13.44Q14.60 15.73 12.99 16.78Q11.38 17.83 8.32 17.83L8.32 17.83ZM23.30 27.24L23.30 27.24Q21.54 27.24 20.26 26.45Q18.98 25.66 18.29 24.35Q17.59 23.04 17.59 21.48L17.59 21.48Q17.59 19.92 18.29 18.61Q18.98 17.30 20.26 16.52Q21.54 15.73 23.30 15.73L23.30 15.73Q25.07 15.73 26.35 16.52Q27.62 17.30 28.32 18.61Q29.02 19.92 29.02 21.48L29.02 21.48Q29.02 23.04 28.32 24.35Q27.62 25.66 26.35 26.45Q25.07 27.24 23.30 27.24ZM23.30 26.77L23.30 26.77Q24.08 26.77 24.59 26.32Q25.10 25.86 25.39 25.10Q25.67 24.35 25.78 23.40Q25.90 22.45 25.90 21.48L25.90 21.48Q25.90 20.50 25.78 19.55Q25.67 18.61 25.39 17.86Q25.10 17.10 24.59 16.64Q24.08 16.19 23.30 16.19L23.30 16.19Q22.52 16.19 22.02 16.64Q21.52 17.10 21.23 17.86Q20.94 18.61 20.83 19.55Q20.72 20.50 20.72 21.48L20.72 21.48Q20.72 22.45 20.83 23.40Q20.94 24.35 21.23 25.10Q21.52 25.86 22.02 26.32Q22.52 26.77 23.30 26.77ZM36.12 27.23L36.12 27.23Q34.85 27.23 33.71 26.54Q32.57 25.86 31.85 24.58Q31.14 23.29 31.14 21.49L31.14 21.49Q31.14 19.69 31.85 18.40Q32.57 17.11 33.71 16.42Q34.85 15.73 36.12 15.73L36.12 15.73Q37.58 15.73 38.56 16.70Q39.53 17.68 39.92 19.37L39.92 19.37L39.92 9.47L38.32 9.47L38.32 9L42.82 9L42.82 26.53L44.41 26.53L44.41 27L39.92 27L39.92 23.62Q39.53 25.31 38.56 26.27Q37.58 27.23 36.12 27.23ZM36.79 26.51L36.79 26.51Q37.57 26.51 38.29 25.93Q39.01 25.34 39.47 24.23Q39.92 23.11 39.92 21.49L39.92 21.49Q39.92 19.87 39.47 18.74Q39.01 17.62 38.29 17.03Q37.57 16.45 36.79 16.45L36.79 16.45Q36.01 16.45 35.48 17.02Q34.94 17.59 34.68 18.71Q34.42 19.82 34.42 21.49L34.42 21.49Q34.42 23.16 34.68 24.27Q34.94 25.38 35.48 25.94Q36.01 26.51 36.79 26.51ZM51.88 27.24L51.88 27.24Q50.11 27.24 48.83 26.45Q47.56 25.66 46.86 24.35Q46.16 23.04 46.16 21.48L46.16 21.48Q46.16 19.92 46.86 18.61Q47.56 17.30 48.83 16.52Q50.11 15.73 51.88 15.73L51.88 15.73Q53.64 15.73 54.92 16.52Q56.20 17.30 56.89 18.61Q57.59 19.92 57.59 21.48L57.59 21.48Q57.59 23.04 56.89 24.35Q56.20 25.66 54.92 26.45Q53.64 27.24 51.88 27.24ZM51.88 26.77L51.88 26.77Q52.66 26.77 53.17 26.32Q53.68 25.86 53.96 25.10Q54.24 24.35 54.35 23.40Q54.47 22.45 54.47 21.48L54.47 21.48Q54.47 20.50 54.35 19.55Q54.24 18.61 53.96 17.86Q53.68 17.10 53.17 16.64Q52.66 16.19 51.88 16.19L51.88 16.19Q51.10 16.19 50.59 16.64Q50.09 17.10 49.80 17.86Q49.51 18.61 49.40 19.55Q49.30 20.50 49.30 21.48L49.30 21.48Q49.30 22.45 49.40 23.40Q49.51 24.35 49.80 25.10Q50.09 25.86 50.59 26.32Q51.10 26.77 51.88 26.77ZM59.34 15.96L63.79 15.96L63.79 26.53L65.16 26.53L65.16 27L59.34 27L59.34 26.53L60.95 26.53L60.95 16.43L59.34 16.43L59.34 15.96ZM71.11 19.33L71.11 19.33L71.11 26.53L72.71 26.53L72.71 27L66.89 27L66.89 26.53L68.27 26.53L68.27 19.66Q68.27 18.65 68.18 17.97Q68.09 17.29 67.82 16.95Q67.55 16.61 66.98 16.61L66.98 16.61Q66.18 16.61 65.59 17.08Q64.99 17.56 64.59 18.31Q64.19 19.07 63.99 19.95Q63.79 20.83 63.79 21.62L63.79 21.62L63.46 21.67Q63.46 20.83 63.66 19.82Q63.86 18.80 64.34 17.87Q64.82 16.93 65.66 16.33Q66.49 15.73 67.78 15.73L67.78 15.73Q69.14 15.73 69.86 16.20Q70.58 16.67 70.85 17.48Q71.11 18.29 71.11 19.33ZM77.26 12.41L77.26 12.41Q76.50 12.41 75.98 11.89Q75.46 11.36 75.46 10.60L75.46 10.60Q75.46 9.85 75.98 9.32Q76.50 8.80 77.26 8.80L77.26 8.80Q78.01 8.80 78.53 9.32Q79.06 9.85 79.06 10.60L79.06 10.60Q79.06 11.36 78.54 11.89Q78.02 12.41 77.26 12.41ZM74.22 15.96L78.70 15.96L78.70 26.53L80.29 26.53L80.29 27L74.22 27L74.22 26.53L75.82 26.53L75.82 16.43L74.22 16.43L74.22 15.96ZM96.95 27.24L96.37 27.24L89.70 9L92.87 9L97.98 22.76L102.73 9L103.24 9L96.95 27.24ZM87.62 9L89.95 9L89.95 26.53L91.72 26.53L91.72 27L87.74 27L87.74 26.53L89.45 26.53L89.45 9.47L87.62 9.47L87.62 9ZM103.10 9L107.93 9L107.93 9.47L106.25 9.47L106.25 26.53L107.93 26.53L107.93 27L101.18 27L101.18 26.53L103.10 26.53L103.10 9ZM115.32 27.24L115.32 27.24Q113.56 27.24 112.28 26.45Q111.00 25.66 110.30 24.35Q109.61 23.04 109.61 21.48L109.61 21.48Q109.61 19.92 110.30 18.61Q111.00 17.30 112.28 16.52Q113.56 15.73 115.32 15.73L115.32 15.73Q117.08 15.73 118.36 16.52Q119.64 17.30 120.34 18.61Q121.03 19.92 121.03 21.48L121.03 21.48Q121.03 23.04 120.34 24.35Q119.64 25.66 118.36 26.45Q117.08 27.24 115.32 27.24ZM115.32 26.77L115.32 26.77Q116.10 26.77 116.61 26.32Q117.12 25.86 117.40 25.10Q117.68 24.35 117.80 23.40Q117.91 22.45 117.91 21.48L117.91 21.48Q117.91 20.50 117.80 19.55Q117.68 18.61 117.40 17.86Q117.12 17.10 116.61 16.64Q116.10 16.19 115.32 16.19L115.32 16.19Q114.54 16.19 114.04 16.64Q113.53 17.10 113.24 17.86Q112.96 18.61 112.85 19.55Q112.74 20.50 112.74 21.48L112.74 21.48Q112.74 22.45 112.85 23.40Q112.96 24.35 113.24 25.10Q113.53 25.86 114.04 26.32Q114.54 26.77 115.32 26.77ZM128.14 27.23L128.14 27.23Q126.86 27.23 125.72 26.54Q124.58 25.86 123.87 24.58Q123.16 23.29 123.16 21.49L123.16 21.49Q123.16 19.69 123.87 18.40Q124.58 17.11 125.72 16.42Q126.86 15.73 128.14 15.73L128.14 15.73Q129.60 15.73 130.57 16.70Q131.54 17.68 131.94 19.37L131.94 19.37L131.94 9.47L130.33 9.47L130.33 9L134.83 9L134.83 26.53L136.43 26.53L136.43 27L131.94 27L131.94 23.62Q131.54 25.31 130.57 26.27Q129.60 27.23 128.14 27.23ZM128.81 26.51L128.81 26.51Q129.59 26.51 130.31 25.93Q131.03 25.34 131.48 24.23Q131.94 23.11 131.94 21.49L131.94 21.49Q131.94 19.87 131.48 18.74Q131.03 17.62 130.31 17.03Q129.59 16.45 128.81 16.45L128.81 16.45Q128.03 16.45 127.49 17.02Q126.96 17.59 126.70 18.71Q126.43 19.82 126.43 21.49L126.43 21.49Q126.43 23.16 126.70 24.27Q126.96 25.38 127.49 25.94Q128.03 26.51 128.81 26.51ZM147.58 27.24L147.58 27.24Q146.89 27.24 146.33 27.03Q145.78 26.82 145.45 26.35Q145.13 25.88 145.13 25.13L145.13 25.13L145.13 19.69Q145.13 18.83 144.97 18.04Q144.82 17.24 144.34 16.74Q143.87 16.24 142.91 16.24L142.91 16.24Q142.38 16.24 141.80 16.35Q141.22 16.46 140.71 16.72Q140.20 16.97 139.87 17.35Q139.55 17.74 139.55 18.29L139.55 18.29L138.98 18.29Q138.98 17.59 139.48 17.17Q139.98 16.75 140.63 16.75L140.63 16.75Q141.30 16.75 141.83 17.14Q142.36 17.52 142.36 18.24L142.36 18.24Q142.36 19.04 141.82 19.43Q141.28 19.82 140.63 19.82L140.63 19.82Q139.91 19.82 139.43 19.42Q138.96 19.02 138.96 18.29L138.96 18.29Q138.96 17.66 139.34 17.19Q139.73 16.72 140.37 16.40Q141.01 16.09 141.80 15.93Q142.60 15.77 143.41 15.77L143.41 15.77Q145.18 15.77 146.17 16.31Q147.16 16.85 147.56 17.74Q147.97 18.64 147.97 19.69L147.97 19.69L147.97 25.51Q147.97 25.91 148.12 26.18Q148.27 26.46 148.72 26.46L148.72 26.46Q149.02 26.46 149.42 26.22Q149.82 25.98 150.05 25.54L150.05 25.54L150.30 25.88Q149.98 26.51 149.26 26.87Q148.55 27.24 147.58 27.24ZM141.54 27.24L141.54 27.24Q139.98 27.24 139.05 26.44Q138.12 25.64 138.12 24.28L138.12 24.28Q138.12 22.67 139.51 21.75Q140.89 20.83 143.45 20.83L143.45 20.83L146.24 20.83L146.24 21.24L143.90 21.24Q142.94 21.24 142.36 21.67Q141.77 22.09 141.50 22.73Q141.23 23.36 141.23 23.99L141.23 23.99Q141.23 24.56 141.39 25.06Q141.55 25.56 141.89 25.88Q142.24 26.20 142.78 26.20L142.78 26.20Q143.34 26.20 143.89 25.81Q144.43 25.42 144.78 24.62Q145.13 23.83 145.13 22.62L145.13 22.62L145.42 22.62Q145.42 24.01 144.95 25.05Q144.49 26.09 143.62 26.66Q142.75 27.24 141.54 27.24ZM163.90 27.24L163.90 27.24Q162.01 27.24 160.61 26.37Q159.22 25.50 158.45 23.79Q157.68 22.08 157.68 19.56L157.68 19.56Q157.68 17.38 158.47 15.43Q159.25 13.48 160.67 11.98Q162.10 10.48 164.00 9.62Q165.90 8.76 168.12 8.76L168.12 8.76L168.12 9.19Q166.52 9.19 165.22 9.98Q163.92 10.76 162.99 12.11Q162.06 13.45 161.56 15.13Q161.05 16.81 161.05 18.60L161.05 18.60L161.02 20.27Q161.02 21.59 161.17 22.76Q161.33 23.94 161.67 24.84Q162.01 25.74 162.58 26.26Q163.14 26.77 163.97 26.77L163.97 26.77Q164.78 26.77 165.30 26.30Q165.82 25.84 166.09 25.03Q166.37 24.22 166.47 23.18Q166.57 22.14 166.57 21L166.57 21Q166.57 19.25 166.25 18.11Q165.92 16.98 165.30 16.44Q164.68 15.90 163.79 15.90L163.79 15.90Q162.85 15.90 162.23 16.40Q161.62 16.90 161.32 17.87Q161.02 18.84 161.02 20.27L161.02 20.27L160.62 20.27Q160.62 18.79 160.96 17.65Q161.30 16.51 162.13 15.86Q162.96 15.20 164.45 15.20L164.45 15.20Q165.41 15.20 166.37 15.54Q167.34 15.88 168.15 16.57Q168.96 17.27 169.45 18.37Q169.93 19.46 169.93 21L169.93 21Q169.93 22.80 169.21 24.21Q168.48 25.62 167.13 26.43Q165.78 27.24 163.90 27.24ZM178.36 27.24L178.36 27.24Q176.83 27.24 175.59 26.53Q174.35 25.82 173.45 24.56Q172.56 23.30 172.07 21.62Q171.59 19.94 171.59 18L171.59 18Q171.59 16.06 172.10 14.38Q172.62 12.70 173.54 11.43Q174.46 10.16 175.69 9.46Q176.92 8.76 178.36 8.76L178.36 8.76Q179.78 8.76 181.02 9.46Q182.26 10.16 183.17 11.43Q184.09 12.70 184.61 14.38Q185.12 16.06 185.12 18L185.12 18Q185.12 19.94 184.64 21.62Q184.15 23.30 183.26 24.56Q182.36 25.82 181.12 26.53Q179.87 27.24 178.36 27.24ZM178.36 26.81L178.36 26.81Q179.40 26.81 180.02 26.11Q180.65 25.40 180.97 24.17Q181.30 22.94 181.40 21.35Q181.50 19.76 181.50 18L181.50 18Q181.50 16.24 181.37 14.65Q181.25 13.06 180.91 11.83Q180.58 10.60 179.96 9.89Q179.34 9.19 178.36 9.19L178.36 9.19Q177.40 9.19 176.78 9.89Q176.17 10.60 175.83 11.83Q175.49 13.06 175.36 14.65Q175.22 16.24 175.22 18L175.22 18Q175.22 19.76 175.33 21.35Q175.43 22.94 175.75 24.17Q176.06 25.40 176.69 26.11Q177.31 26.81 178.36 26.81ZM193.80 27.24L193.80 27.24Q192.28 27.24 191.03 26.53Q189.79 25.82 188.90 24.56Q188.00 23.30 187.52 21.62Q187.03 19.94 187.03 18L187.03 18Q187.03 16.06 187.55 14.38Q188.06 12.70 188.98 11.43Q189.90 10.16 191.13 9.46Q192.36 8.76 193.80 8.76L193.80 8.76Q195.23 8.76 196.46 9.46Q197.70 10.16 198.62 11.43Q199.54 12.70 200.05 14.38Q200.57 16.06 200.57 18L200.57 18Q200.57 19.94 200.08 21.62Q199.60 23.30 198.70 24.56Q197.81 25.82 196.56 26.53Q195.31 27.24 193.80 27.24ZM193.80 26.81L193.80 26.81Q194.84 26.81 195.47 26.11Q196.09 25.40 196.42 24.17Q196.74 22.94 196.84 21.35Q196.94 19.76 196.94 18L196.94 18Q196.94 16.24 196.82 14.65Q196.69 13.06 196.36 11.83Q196.02 10.60 195.40 9.89Q194.78 9.19 193.80 9.19L193.80 9.19Q192.84 9.19 192.23 9.89Q191.62 10.60 191.27 11.83Q190.93 13.06 190.80 14.65Q190.67 16.24 190.67 18L190.67 18Q190.67 19.76 190.77 21.35Q190.87 22.94 191.19 24.17Q191.51 25.40 192.13 26.11Q192.76 26.81 193.80 26.81ZM208.21 15.96L212.66 15.96L212.66 26.53L214.03 26.53L214.03 27L208.21 27L208.21 26.53L209.82 26.53L209.82 16.43L208.21 16.43L208.21 15.96ZM219.98 19.33L219.98 19.33L219.98 26.53L221.58 26.53L221.58 27L215.76 27L215.76 26.53L217.14 26.53L217.14 19.66Q217.14 18.65 217.05 17.97Q216.96 17.29 216.69 16.95Q216.42 16.61 215.86 16.61L215.86 16.61Q215.05 16.61 214.46 17.08Q213.86 17.56 213.46 18.31Q213.06 19.07 212.86 19.95Q212.66 20.83 212.66 21.62L212.66 21.62L212.33 21.67Q212.33 20.83 212.53 19.82Q212.74 18.80 213.22 17.87Q213.70 16.93 214.53 16.33Q215.36 15.73 216.65 15.73L216.65 15.73Q218.02 15.73 218.74 16.20Q219.46 16.67 219.72 17.48Q219.98 18.29 219.98 19.33ZM229.04 27.24L229.04 27.24Q227.28 27.24 226.00 26.45Q224.72 25.66 224.03 24.35Q223.33 23.04 223.33 21.48L223.33 21.48Q223.33 19.92 224.03 18.61Q224.72 17.30 226.00 16.52Q227.28 15.73 229.04 15.73L229.04 15.73Q230.81 15.73 232.09 16.52Q233.36 17.30 234.06 18.61Q234.76 19.92 234.76 21.48L234.76 21.48Q234.76 23.04 234.06 24.35Q233.36 25.66 232.09 26.45Q230.81 27.24 229.04 27.24ZM229.04 26.77L229.04 26.77Q229.82 26.77 230.33 26.32Q230.84 25.86 231.13 25.10Q231.41 24.35 231.52 23.40Q231.64 22.45 231.64 21.48L231.64 21.48Q231.64 20.50 231.52 19.55Q231.41 18.61 231.13 17.86Q230.84 17.10 230.33 16.64Q229.82 16.19 229.04 16.19L229.04 16.19Q228.26 16.19 227.76 16.64Q227.26 17.10 226.97 17.86Q226.68 18.61 226.57 19.55Q226.46 20.50 226.46 21.48L226.46 21.48Q226.46 22.45 226.57 23.40Q226.68 24.35 226.97 25.10Q227.26 25.86 227.76 26.32Q228.26 26.77 229.04 26.77ZM240.96 21.86L240.68 21.86Q240.68 20.72 240.89 19.63Q241.10 18.54 241.55 17.66Q241.99 16.78 242.68 16.25Q243.36 15.73 244.31 15.73L244.31 15.73Q245.08 15.73 245.60 16.04Q246.13 16.36 246.40 16.86Q246.67 17.36 246.67 17.93L246.67 17.93Q246.67 18.67 246.20 19.21Q245.72 19.75 244.94 19.75L244.94 19.75Q244.15 19.75 243.67 19.28Q243.18 18.80 243.18 18.13L243.18 18.13Q243.18 17.34 243.69 16.88Q244.20 16.42 244.93 16.42L244.93 16.42Q245.42 16.42 245.81 16.63Q246.20 16.84 246.43 17.18Q246.65 17.52 246.65 17.93L246.65 17.93L246.18 17.93Q246.18 17.46 245.93 17.07Q245.69 16.68 245.26 16.45Q244.82 16.21 244.26 16.21L244.26 16.21Q243.53 16.21 242.92 16.67Q242.30 17.14 241.87 17.93Q241.43 18.73 241.19 19.75Q240.96 20.77 240.96 21.86L240.96 21.86ZM236.51 15.96L240.96 15.96L240.96 26.53L242.76 26.53L242.76 27L236.51 27L236.51 26.53L238.12 26.53L238.12 16.43L236.51 16.43L236.51 15.96ZM247.87 15.96L252.32 15.96L252.32 26.53L253.66 26.53L253.66 27L247.87 27L247.87 26.53L249.48 26.53L249.48 16.43L247.87 16.43L247.87 15.96ZM259.16 19.33L259.16 19.33L259.16 26.53L260.50 26.53L260.50 27L254.98 27L254.98 26.53L256.32 26.53L256.32 19.60Q256.32 18.59 256.24 17.91Q256.16 17.23 255.91 16.90Q255.66 16.57 255.16 16.57L255.16 16.57Q254.47 16.57 253.94 17.05Q253.40 17.52 253.04 18.28Q252.68 19.04 252.50 19.91Q252.32 20.78 252.32 21.56L252.32 21.56L252.04 21.61Q252.04 20.78 252.22 19.77Q252.41 18.76 252.86 17.83Q253.31 16.91 254.09 16.32Q254.88 15.73 256.09 15.73L256.09 15.73Q257.27 15.73 257.94 16.20Q258.61 16.67 258.89 17.48Q259.16 18.29 259.16 19.33ZM265.99 19.33L265.99 19.33L265.99 26.53L267.60 26.53L267.60 27L261.82 27L261.82 26.53L263.16 26.53L263.16 19.60Q263.16 18.59 263.06 17.91Q262.97 17.23 262.70 16.90Q262.43 16.57 261.91 16.57L261.91 16.57Q261.20 16.57 260.69 17.05Q260.17 17.52 259.83 18.28Q259.49 19.04 259.33 19.91Q259.16 20.78 259.16 21.56L259.16 21.56L258.86 21.61Q258.86 20.78 259.02 19.77Q259.18 18.76 259.61 17.83Q260.04 16.91 260.82 16.32Q261.60 15.73 262.84 15.73L262.84 15.73Q264.02 15.73 264.71 16.20Q265.39 16.67 265.69 17.48Q265.99 18.29 265.99 19.33ZM278.75 27.24L278.75 27.24Q278.06 27.24 277.51 27.03Q276.95 26.82 276.62 26.35Q276.30 25.88 276.30 25.13L276.30 25.13L276.30 19.69Q276.30 18.83 276.14 18.04Q275.99 17.24 275.51 16.74Q275.04 16.24 274.08 16.24L274.08 16.24Q273.55 16.24 272.97 16.35Q272.39 16.46 271.88 16.72Q271.37 16.97 271.04 17.35Q270.72 17.74 270.72 18.29L270.72 18.29L270.16 18.29Q270.16 17.59 270.65 17.17Q271.15 16.75 271.80 16.75L271.80 16.75Q272.47 16.75 273 17.14Q273.53 17.52 273.53 18.24L273.53 18.24Q273.53 19.04 272.99 19.43Q272.45 19.82 271.80 19.82L271.80 19.82Q271.08 19.82 270.61 19.42Q270.13 19.02 270.13 18.29L270.13 18.29Q270.13 17.66 270.52 17.19Q270.90 16.72 271.54 16.40Q272.18 16.09 272.98 15.93Q273.77 15.77 274.58 15.77L274.58 15.77Q276.35 15.77 277.34 16.31Q278.33 16.85 278.74 17.74Q279.14 18.64 279.14 19.69L279.14 19.69L279.14 25.51Q279.14 25.91 279.29 26.18Q279.44 26.46 279.89 26.46L279.89 26.46Q280.19 26.46 280.59 26.22Q280.99 25.98 281.22 25.54L281.22 25.54L281.47 25.88Q281.15 26.51 280.43 26.87Q279.72 27.24 278.75 27.24ZM272.71 27.24L272.71 27.24Q271.15 27.24 270.22 26.44Q269.29 25.64 269.29 24.28L269.29 24.28Q269.29 22.67 270.68 21.75Q272.06 20.83 274.62 20.83L274.62 20.83L277.42 20.83L277.42 21.24L275.08 21.24Q274.12 21.24 273.53 21.67Q272.94 22.09 272.67 22.73Q272.40 23.36 272.40 23.99L272.40 23.99Q272.40 24.56 272.56 25.06Q272.72 25.56 273.07 25.88Q273.41 26.20 273.95 26.20L273.95 26.20Q274.51 26.20 275.06 25.81Q275.60 25.42 275.95 24.62Q276.30 23.83 276.30 22.62L276.30 22.62L276.59 22.62Q276.59 24.01 276.13 25.05Q275.66 26.09 274.79 26.66Q273.92 27.24 272.71 27.24ZM282.35 9L287.32 9L287.32 26.53L289.39 26.53L289.39 27L282.35 27L282.35 26.53L284.44 26.53L284.44 9.47L282.35 9.47L282.35 9Z"/></svg>