<svg xmlns="http://www.w3.org/2000/svg" xmlns:xlink="http://www.w3.org/1999/xlink" width="204.864" height="38.448"><path fill="black" d="M3.79 17.26L9.60 17.26L9.60 19.49L3.79 19.49L3.79 17.26ZM7.46 19.49L7.46 19.49L7.92 17.78Q9.77 17.78 11.00 18.29Q12.24 18.79 12.86 19.67Q13.49 20.54 13.49 21.72L13.49 21.72Q13.49 24 11.81 25.09Q10.13 26.18 7.06 26.18L7.06 26.18Q6.46 26.18 5.75 26.15Q5.04 26.11 4.33 25.99Q3.62 25.87 3.02 25.70L3.02 25.70Q1.85 25.30 1.85 24.29L1.85 24.29L1.85 12.50Q1.85 12.07 2.10 11.82Q2.35 11.57 2.76 11.45L2.76 11.45Q3.58 11.18 4.66 11.08Q5.74 10.97 6.89 10.97L6.89 10.97Q9.77 10.97 11.35 11.98Q12.94 12.98 12.94 15.05L12.94 15.05Q12.94 16.15 12.32 16.98Q11.71 17.81 10.50 18.26Q9.29 18.72 7.46 18.72L7.46 18.72L7.27 17.26Q8.59 17.26 9.24 16.73Q9.89 16.20 9.89 15.24L9.89 15.24Q9.89 14.30 9.14 13.81Q8.40 13.32 6.91 13.32L6.91 13.32Q6.31 13.32 5.76 13.37Q5.21 13.42 4.82 13.49L4.82 13.49L4.82 23.59Q5.28 23.71 5.93 23.76Q6.58 23.81 7.20 23.81L7.20 23.81Q8.69 23.81 9.54 23.27Q10.39 22.73 10.39 21.60L10.39 21.60Q10.39 20.57 9.65 20.03Q8.90 19.49 7.46 19.49ZM20.62 23.98L20.62 23.98Q21.34 23.98 21.91 23.83Q22.49 23.69 22.75 23.52L22.75 23.52L22.75 20.78L20.38 21.02Q19.39 21.10 18.88 21.44Q18.36 21.79 18.36 22.46L18.36 22.46Q18.36 23.16 18.91 23.57Q19.46 23.98 20.62 23.98ZM20.50 14.18L20.50 14.18Q22.85 14.18 24.24 15.18Q25.63 16.18 25.63 18.31L25.63 18.31L25.63 23.83Q25.63 24.41 25.36 24.74Q25.08 25.08 24.65 25.34L24.65 25.34Q23.98 25.73 22.94 25.98Q21.91 26.23 20.62 26.23L20.62 26.23Q18.22 26.23 16.85 25.31Q15.48 24.38 15.48 22.56L15.48 22.56Q15.48 20.95 16.50 20.10Q17.52 19.25 19.46 19.06L19.46 19.06L22.73 18.72L22.73 18.29Q22.73 17.33 22.07 16.90Q21.41 16.46 20.21 16.46L20.21 16.46Q19.27 16.46 18.38 16.70Q17.50 16.94 16.80 17.28L16.80 17.28Q16.56 17.09 16.37 16.75Q16.18 16.42 16.18 16.06L16.18 16.06Q16.18 15.19 17.14 14.78L17.14 14.78Q17.81 14.47 18.71 14.33Q19.61 14.18 20.50 14.18ZM28.82 24.65L28.82 19.54L31.78 19.68L31.78 25.82Q31.58 25.90 31.22 25.96Q30.86 26.02 30.43 26.02L30.43 26.02Q29.62 26.02 29.22 25.72Q28.82 25.42 28.82 24.65L28.82 24.65ZM31.78 11.45L31.78 21.19L28.82 21.05L28.82 10.27Q28.99 10.22 29.36 10.15Q29.74 10.08 30.14 10.08L30.14 10.08Q31.01 10.08 31.39 10.38Q31.78 10.68 31.78 11.45L31.78 11.45ZM46.13 20.18L46.13 20.18Q46.13 22.03 45.41 23.39Q44.69 24.74 43.38 25.48Q42.07 26.21 40.30 26.21L40.30 26.21Q38.52 26.21 37.20 25.48Q35.88 24.74 35.15 23.40Q34.42 22.06 34.42 20.18L34.42 20.18Q34.42 18.34 35.16 16.99Q35.90 15.65 37.22 14.92Q38.54 14.18 40.30 14.18L40.30 14.18Q42.05 14.18 43.36 14.92Q44.66 15.65 45.40 17.00Q46.13 18.36 46.13 20.18ZM40.30 16.54L40.30 16.54Q38.98 16.54 38.22 17.50Q37.46 18.46 37.46 20.18L37.46 20.18Q37.46 21.96 38.21 22.91Q38.95 23.86 40.30 23.86L40.30 23.86Q41.62 23.86 42.36 22.90Q43.10 21.94 43.10 20.18L43.10 20.18Q43.10 18.48 42.36 17.51Q41.62 16.54 40.30 16.54ZM59.78 20.18L59.78 20.18Q59.78 22.03 59.06 23.39Q58.34 24.74 57.04 25.48Q55.73 26.21 53.95 26.21L53.95 26.21Q52.18 26.21 50.86 25.48Q49.54 24.74 48.80 23.40Q48.07 22.06 48.07 20.18L48.07 20.18Q48.07 18.34 48.82 16.99Q49.56 15.65 50.88 14.92Q52.20 14.18 53.95 14.18L53.95 14.18Q55.70 14.18 57.01 14.92Q58.32 15.65 59.05 17.00Q59.78 18.36 59.78 20.18ZM53.95 16.54L53.95 16.54Q52.63 16.54 51.88 17.50Q51.12 18.46 51.12 20.18L51.12 20.18Q51.12 21.96 51.86 22.91Q52.61 23.86 53.95 23.86L53.95 23.86Q55.27 23.86 56.02 22.90Q56.76 21.94 56.76 20.18L56.76 20.18Q56.76 18.48 56.02 17.51Q55.27 16.54 53.95 16.54ZM66.96 13.08L66.96 13.08Q66.96 12.46 67.51 11.98Q68.06 11.50 69.01 11.23Q69.96 10.97 71.18 10.97L71.18 10.97Q72.89 10.97 74.08 11.51Q75.26 12.05 75.89 13.02Q76.51 13.99 76.51 15.26L76.51 15.26Q76.51 16.56 75.79 17.80Q75.07 19.03 73.44 20.42L73.44 20.42L69.91 23.52L76.37 23.52Q76.49 23.69 76.60 24Q76.70 24.31 76.70 24.67L76.70 24.67Q76.70 25.30 76.40 25.58Q76.10 25.87 75.65 25.87L75.65 25.87L67.25 25.87Q66.86 25.61 66.66 25.20Q66.46 24.79 66.46 24.29L66.46 24.29Q66.46 23.69 66.70 23.27Q66.94 22.85 67.27 22.54L67.27 22.54L71.09 19.03Q72.48 17.81 72.98 17.00Q73.49 16.20 73.49 15.41L73.49 15.41Q73.49 14.50 72.83 13.93Q72.17 13.37 70.90 13.37L70.90 13.37Q69.89 13.37 69.10 13.70Q68.30 14.04 67.78 14.40L67.78 14.40Q67.44 14.21 67.20 13.87Q66.96 13.54 66.96 13.08ZM93.96 12.72L93.96 12.72Q93.96 13.10 93.78 13.46Q93.60 13.82 93.31 13.99L93.31 13.99Q92.74 13.73 92.05 13.55Q91.37 13.37 90.67 13.37L90.67 13.37Q89.02 13.37 87.97 14.42Q86.93 15.48 86.76 17.64L86.76 17.64Q87.24 17.23 88.14 16.82Q89.04 16.42 90.19 16.42L90.19 16.42Q92.35 16.42 93.70 17.65Q95.04 18.89 95.04 21.24L95.04 21.24Q95.04 22.68 94.40 23.81Q93.77 24.94 92.57 25.57Q91.37 26.21 89.64 26.21L89.64 26.21Q87.91 26.21 86.59 25.43Q85.27 24.65 84.54 23.04Q83.81 21.43 83.81 19.01L83.81 19.01Q83.81 16.87 84.32 15.34Q84.84 13.80 85.75 12.84Q86.66 11.88 87.85 11.42Q89.04 10.97 90.41 10.97L90.41 10.97Q91.44 10.97 92.24 11.16Q93.05 11.35 93.50 11.75Q93.96 12.14 93.96 12.72ZM89.64 23.83L89.64 23.83Q90.74 23.83 91.40 23.14Q92.06 22.44 92.06 21.24L92.06 21.24Q92.06 20.02 91.39 19.39Q90.72 18.77 89.66 18.77L89.66 18.77Q88.75 18.77 88.01 19.15Q87.26 19.54 86.81 20.11L86.81 20.11L86.86 20.30Q86.86 21.98 87.61 22.91Q88.37 23.83 89.64 23.83ZM106.20 18.58L106.20 18.58Q106.20 16.78 105.80 15.62Q105.41 14.47 104.72 13.92Q104.04 13.37 103.13 13.37L103.13 13.37Q102.26 13.37 101.57 13.93Q100.87 14.50 100.49 15.65Q100.10 16.80 100.10 18.58L100.10 18.58Q100.10 21.17 100.90 22.49Q101.69 23.81 103.13 23.81L103.13 23.81Q104.59 23.81 105.40 22.49Q106.20 21.17 106.20 18.58ZM103.15 26.21L103.15 26.21Q101.35 26.21 100.00 25.37Q98.64 24.53 97.87 22.84Q97.10 21.14 97.10 18.58L97.10 18.58Q97.10 15.96 97.92 14.28Q98.74 12.60 100.10 11.78Q101.47 10.97 103.15 10.97L103.15 10.97Q104.81 10.97 106.19 11.78Q107.57 12.60 108.38 14.29Q109.20 15.98 109.20 18.58L109.20 18.58Q109.20 21.12 108.43 22.81Q107.66 24.50 106.30 25.36Q104.93 26.21 103.15 26.21ZM120.46 18.58L120.46 18.58Q120.46 16.78 120.06 15.62Q119.66 14.47 118.98 13.92Q118.30 13.37 117.38 13.37L117.38 13.37Q116.52 13.37 115.82 13.93Q115.13 14.50 114.74 15.65Q114.36 16.80 114.36 18.58L114.36 18.58Q114.36 21.17 115.15 22.49Q115.94 23.81 117.38 23.81L117.38 23.81Q118.85 23.81 119.65 22.49Q120.46 21.17 120.46 18.58ZM117.41 26.21L117.41 26.21Q115.61 26.21 114.25 25.37Q112.90 24.53 112.13 22.84Q111.36 21.14 111.36 18.58L111.36 18.58Q111.36 15.96 112.18 14.28Q112.99 12.60 114.36 11.78Q115.73 10.97 117.41 10.97L117.41 10.97Q119.06 10.97 120.44 11.78Q121.82 12.60 122.64 14.29Q123.46 15.98 123.46 18.58L123.46 18.58Q123.46 21.12 122.69 22.81Q121.92 24.50 120.55 25.36Q119.18 26.21 117.41 26.21ZM141.36 18.46L141.36 18.46L141.36 20.78L138.41 20.78L138.41 18.58Q138.41 17.52 137.81 17.03Q137.21 16.54 136.20 16.54L136.20 16.54Q135.46 16.54 134.87 16.72Q134.28 16.90 133.82 17.14L133.82 17.14L133.82 20.78L130.87 20.78L130.87 16.94Q130.87 16.37 131.11 16.00Q131.35 15.62 131.83 15.31L131.83 15.31Q132.55 14.83 133.69 14.51Q134.83 14.18 136.22 14.18L136.22 14.18Q138.65 14.18 140.00 15.26Q141.36 16.34 141.36 18.46ZM130.87 24.65L130.87 19.61L133.82 19.61L133.82 25.82Q133.63 25.90 133.27 25.96Q132.91 26.02 132.48 26.02L132.48 26.02Q131.66 26.02 131.27 25.72Q130.87 25.42 130.87 24.65L130.87 24.65ZM138.41 24.65L138.41 19.61L141.36 19.61L141.36 25.82Q141.19 25.90 140.82 25.96Q140.45 26.02 140.04 26.02L140.04 26.02Q139.20 26.02 138.80 25.72Q138.41 25.42 138.41 24.65L138.41 24.65ZM155.59 20.18L155.59 20.18Q155.59 22.03 154.87 23.39Q154.15 24.74 152.84 25.48Q151.54 26.21 149.76 26.21L149.76 26.21Q147.98 26.21 146.66 25.48Q145.34 24.74 144.61 23.40Q143.88 22.06 143.88 20.18L143.88 20.18Q143.88 18.34 144.62 16.99Q145.37 15.65 146.69 14.92Q148.01 14.18 149.76 14.18L149.76 14.18Q151.51 14.18 152.82 14.92Q154.13 15.65 154.86 17.00Q155.59 18.36 155.59 20.18ZM149.76 16.54L149.76 16.54Q148.44 16.54 147.68 17.50Q146.93 18.46 146.93 20.18L146.93 20.18Q146.93 21.96 147.67 22.91Q148.42 23.86 149.76 23.86L149.76 23.86Q151.08 23.86 151.82 22.90Q152.57 21.94 152.57 20.18L152.57 20.18Q152.57 18.48 151.82 17.51Q151.08 16.54 149.76 16.54ZM161.06 17.23L161.06 17.23L161.06 20.52L158.11 20.52L158.11 16.99Q158.11 16.39 158.40 15.97Q158.69 15.55 159.22 15.19L159.22 15.19Q159.94 14.76 161.04 14.47Q162.14 14.18 163.42 14.18L163.42 14.18Q165.67 14.18 165.67 15.58L165.67 15.58Q165.67 15.91 165.58 16.19Q165.48 16.46 165.34 16.68L165.34 16.68Q165.10 16.63 164.74 16.60Q164.38 16.56 163.97 16.56L163.97 16.56Q163.10 16.56 162.35 16.74Q161.59 16.92 161.06 17.23ZM158.11 24.65L158.11 19.54L161.06 19.68L161.06 25.82Q160.87 25.90 160.51 25.96Q160.15 26.02 159.72 26.02L159.72 26.02Q158.90 26.02 158.51 25.72Q158.11 25.42 158.11 24.65L158.11 24.65ZM177.53 18.02L177.53 18.02L177.53 20.76L174.58 20.76L174.58 18.36Q174.58 17.42 174.01 16.98Q173.45 16.54 172.58 16.54L172.58 16.54Q171.96 16.54 171.44 16.72Q170.93 16.90 170.57 17.14L170.57 17.14L170.57 20.76L167.62 20.76L167.62 16.94Q167.62 16.37 167.86 16.00Q168.10 15.62 168.58 15.31L168.58 15.31Q169.32 14.81 170.41 14.50Q171.50 14.18 172.68 14.18L172.68 14.18Q173.86 14.18 174.84 14.54Q175.82 14.90 176.45 15.60L176.45 15.60Q176.62 15.74 176.76 15.89Q176.90 16.03 177 16.22L177 16.22Q177.22 16.58 177.37 17.05Q177.53 17.52 177.53 18.02ZM184.46 18.26L184.46 18.26L184.46 20.76L181.51 20.76L181.51 18.36Q181.51 17.42 180.98 16.98Q180.46 16.54 179.57 16.54L179.57 16.54Q178.92 16.54 178.31 16.80Q177.70 17.06 177.26 17.50L177.26 17.50L175.78 15.70Q176.52 15.07 177.53 14.63Q178.54 14.18 179.93 14.18L179.93 14.18Q181.20 14.18 182.23 14.59Q183.26 15 183.86 15.91Q184.46 16.82 184.46 18.26ZM167.62 24.65L167.62 19.61L170.57 19.61L170.57 25.82Q170.38 25.90 170.02 25.96Q169.66 26.02 169.22 26.02L169.22 26.02Q168.41 26.02 168.01 25.72Q167.62 25.42 167.62 24.65L167.62 24.65ZM174.58 24.65L174.58 19.61L177.53 19.61L177.53 25.82Q177.34 25.90 176.96 25.96Q176.59 26.02 176.18 26.02L176.18 26.02Q175.34 26.02 174.96 25.72Q174.58 25.42 174.58 24.65L174.58 24.65ZM181.51 24.65L181.51 19.61L184.46 19.61L184.46 25.82Q184.30 25.90 183.92 25.96Q183.55 26.02 183.14 26.02L183.14 26.02Q182.30 26.02 181.91 25.72Q181.51 25.42 181.51 24.65L181.51 24.65ZM192.02 23.98L192.02 23.98Q192.74 23.98 193.32 23.83Q193.90 23.69 194.16 23.52L194.16 23.52L194.16 20.78L191.78 21.02Q190.80 21.10 190.28 21.44Q189.77 21.79 189.77 22.46L189.77 22.46Q189.77 23.16 190.32 23.57Q190.87 23.98 192.02 23.98ZM191.90 14.18L191.90 14.18Q194.26 14.18 195.65 15.18Q197.04 16.18 197.04 18.31L197.04 18.31L197.04 23.83Q197.04 24.41 196.76 24.74Q196.49 25.08 196.06 25.34L196.06 25.34Q195.38 25.73 194.35 25.98Q193.32 26.23 192.02 26.23L192.02 26.23Q189.62 26.23 188.26 25.31Q186.89 24.38 186.89 22.56L186.89 22.56Q186.89 20.95 187.91 20.10Q188.93 19.25 190.87 19.06L190.87 19.06L194.14 18.72L194.14 18.29Q194.14 17.33 193.48 16.90Q192.82 16.46 191.62 16.46L191.62 16.46Q190.68 16.46 189.79 16.70Q188.90 16.94 188.21 17.28L188.21 17.28Q187.97 17.09 187.78 16.75Q187.58 16.42 187.58 16.06L187.58 16.06Q187.58 15.19 188.54 14.78L188.54 14.78Q189.22 14.47 190.12 14.33Q191.02 14.18 191.90 14.18ZM200.23 24.65L200.23 19.54L203.18 19.68L203.18 25.82Q202.99 25.90 202.63 25.96Q202.27 26.02 201.84 26.02L201.84 26.02Q201.02 26.02 200.63 25.72Q200.23 25.42 200.23 24.65L200.23 24.65ZM203.18 11.45L203.18 21.19L200.23 21.05L200.23 10.27Q200.40 10.22 200.77 10.15Q201.14 10.08 201.55 10.08L201.55 10.08Q202.42 10.08 202.80 10.38Q203.18 10.68 203.18 11.45L203.18 11.45Z"/></svg>