<svg xmlns="http://www.w3.org/2000/svg" xmlns:xlink="http://www.w3.org/1999/xlink" width="173.27999999999994" height="31.104"><path fill="black" d="M8.23 17.40L8.23 17.40Q7.37 17.26 6.49 17.26Q5.62 17.26 4.85 17.26Q4.08 17.26 3.41 17.40L3.41 17.40Q2.78 19.75 2.78 21.36L2.78 21.36Q2.78 22.01 2.95 22.85L2.95 22.85Q1.30 22.85 0.14 23.18L0.14 23.18L-0.02 22.99L5.30 7.92Q4.08 7.73 3.07 7.27L3.07 7.27L3.12 6.98Q4.63 7.20 7.09 7.20Q9.55 7.20 10.58 7.01L10.58 7.01L10.73 7.13Q10.39 8.54 10.15 11.83Q9.91 15.12 9.91 18.28Q9.91 21.43 10.18 22.82L10.18 22.82Q8.69 22.92 7.73 23.18L7.73 23.18L7.58 23.06Q7.97 21.29 8.23 17.40ZM5.52 10.75L3.74 16.20Q4.37 16.37 5.94 16.37Q7.51 16.37 8.30 16.18L8.30 16.18Q8.42 13.58 8.42 11.70Q8.42 9.82 8.28 8.14L8.28 8.14Q7.99 8.06 7.51 8.06Q7.03 8.06 6.67 8.14L6.67 8.14Q6.12 8.86 5.52 10.75L5.52 10.75ZM14.45 21L14.45 21L14.71 12.22Q14.71 8.66 14.62 7.75L14.62 7.75Q13.70 7.68 12.74 7.42L12.74 7.42L12.74 7.08Q15.31 7.08 17.47 5.95L17.47 5.95L17.66 6.26Q16.90 6.96 16.66 7.94L16.66 7.94Q16.20 10.01 16.20 20.76L16.20 20.76L16.20 21.14Q16.92 20.52 17.62 19.26Q18.31 18 18.67 16.90L18.67 16.90L19.01 16.97Q18.55 18.84 17.69 20.56Q16.82 22.27 15.60 23.18L15.60 23.18Q14.45 22.80 14.45 21ZM34.03 14.50L34.03 14.50Q34.03 15.67 33.73 17.65Q33.43 19.63 33.43 20.81L33.43 20.81L33.43 21.19Q34.15 20.57 34.86 19.28Q35.57 18 35.93 16.90L35.93 16.90L36.26 16.97Q35.81 18.84 34.94 20.56Q34.08 22.27 32.86 23.18L32.86 23.18Q31.70 22.78 31.70 21L31.70 21Q31.70 20.26 32.02 18.08Q32.33 15.91 32.33 15.17L32.33 15.17Q32.33 13.37 31.44 13.08L31.44 13.08Q30.29 13.90 29.34 16.49Q28.39 19.08 28.39 20.88L28.39 20.88Q28.39 21.82 28.58 22.82L28.58 22.82Q27.70 22.90 26.62 23.18L26.62 23.18L26.47 23.06Q27.10 19.42 27.10 15.17L27.10 15.17Q27.10 13.37 26.21 13.08L26.21 13.08Q25.06 13.90 24.10 16.55Q23.14 19.20 23.14 20.88L23.14 20.88Q23.14 21.82 23.33 22.82L23.33 22.82Q22.63 22.87 21.34 23.18L21.34 23.18L21.19 23.06Q21.67 21.41 21.67 17.68Q21.67 13.94 21.53 12.22L21.53 12.22Q20.62 12.14 19.66 11.88L19.66 11.88L19.66 11.54Q21.79 11.54 23.57 11.18L23.57 11.18L23.74 11.50Q23.33 12.55 23.33 15.55L23.33 15.55Q23.21 16.54 22.99 17.33L22.99 17.33L23.23 17.35Q24.55 12.58 26.83 11.18L26.83 11.18Q27.86 11.38 28.38 12.31Q28.90 13.25 28.90 14.50L28.90 14.50Q28.70 15.60 28.22 17.33L28.22 17.33L28.46 17.35Q29.78 12.58 32.06 11.18L32.06 11.18Q34.03 11.54 34.03 14.50ZM45.60 15.89L45.60 16.22Q42.65 16.22 39.24 17.16L39.24 17.16Q39.24 20.54 40.99 21.36L40.99 21.36Q42.79 20.06 43.68 17.69L43.68 17.69L44.23 17.90Q43.70 19.49 42.70 20.93Q41.69 22.37 40.39 23.18L40.39 23.18Q37.54 22.51 37.54 18.58L37.54 18.58Q37.54 15.70 39.06 13.57Q40.58 11.45 43.20 11.30L43.20 11.30L43.46 11.47Q43.56 13.37 43.94 15.65L43.94 15.65L45.60 15.89ZM39.24 16.66L39.24 16.66Q40.56 16.15 42.10 15.84L42.10 15.84Q41.95 14.16 41.95 12.24L41.95 12.24Q40.70 12.58 39.97 13.88Q39.24 15.19 39.24 16.66ZM55.01 14.50L55.01 14.50Q55.01 15.72 54.71 17.81Q54.41 19.90 54.41 21.19L54.41 21.19Q55.13 20.57 55.84 19.28Q56.54 18 56.90 16.90L56.90 16.90L57.24 16.97Q56.78 18.84 55.92 20.56Q55.06 22.27 53.83 23.18L53.83 23.18Q52.68 22.78 52.68 21L52.68 21Q52.68 20.26 52.99 18.08Q53.30 15.91 53.30 15.17L53.30 15.17Q53.30 13.39 52.42 13.08L52.42 13.08Q51.24 13.92 50.21 16.57Q49.18 19.22 49.18 20.88L49.18 20.88Q49.18 21.82 49.37 22.82L49.37 22.82Q48.67 22.87 47.38 23.18L47.38 23.18L47.23 23.06Q47.71 21.41 47.71 17.68Q47.71 13.94 47.57 12.22L47.57 12.22Q46.66 12.14 45.70 11.88L45.70 11.88L45.70 11.54Q47.83 11.54 49.61 11.18L49.61 11.18L49.78 11.50Q49.37 12.55 49.37 15.55L49.37 15.55Q49.25 16.54 49.03 17.33L49.03 17.33L49.27 17.35Q49.70 15.50 50.69 13.75Q51.67 12.00 53.04 11.18L53.04 11.18Q55.01 11.54 55.01 14.50ZM66.14 12.79L66.14 12.79Q66.14 15.43 64.79 18.41Q63.43 21.38 61.46 23.18L61.46 23.18Q58.58 22.54 58.58 18.67L58.58 18.67Q58.58 16.58 59.58 14.52Q60.58 12.46 62.23 11.21L62.23 11.21Q60.36 9.96 57.89 9.17L57.89 9.17L57.26 8.95Q57.48 7.99 57.48 7.42Q57.48 6.84 57.43 6.12L57.43 6.12L57.82 6.07Q57.91 6.41 58.18 6.85Q58.44 7.30 60.14 8.26L60.14 8.26L65.93 11.52Q66.14 12.10 66.14 12.79ZM62.57 11.45L61.32 13.01Q60.29 15.31 60.29 17.88Q60.29 20.45 62.06 21.31L62.06 21.31Q63.12 20.21 63.77 18.06Q64.42 15.91 64.42 14.53Q64.42 13.15 64.30 12.77L64.30 12.77Q63.05 11.76 62.57 11.45L62.57 11.45ZM73.92 13.68L73.92 13.68Q73.32 13.32 72.98 13.22L72.98 13.22Q71.98 14.78 71.17 17.09Q70.37 19.39 70.37 21.05L70.37 21.05Q70.37 21.82 70.56 22.82L70.56 22.82Q69.86 22.87 68.57 23.18L68.57 23.18L68.42 23.06Q68.81 21.74 68.81 17.84Q68.81 13.94 68.66 12.22L68.66 12.22Q67.75 12.14 66.79 11.88L66.79 11.88L66.79 11.54Q68.93 11.54 70.70 11.18L70.70 11.18L70.87 11.50Q70.46 12.55 70.46 15.72L70.46 15.72Q70.42 16.42 70.18 17.50L70.18 17.50L70.42 17.52Q70.75 15.74 71.51 13.99Q72.26 12.24 73.32 11.18L73.32 11.18L73.63 11.35Q74.98 12.10 75.70 12.10L75.70 12.10L75.79 12.46Q74.57 13.46 74.50 15.62L74.50 15.62L74.16 15.62Q73.92 14.71 73.92 13.68ZM76.61 19.39L76.61 19.39Q76.61 16.80 77.75 14.45Q78.89 12.10 80.98 11.18L80.98 11.18Q82.18 11.18 83.47 12.02L83.47 12.02Q83.86 11.09 84.34 10.42L84.34 10.42L84.67 10.51Q83.90 12.55 83.90 17.21L83.90 17.21Q83.90 20.02 84.10 21.14L84.10 21.14Q84.82 20.52 85.51 19.26Q86.21 18 86.57 16.90L86.57 16.90L86.90 16.97Q86.45 18.82 85.56 20.54Q84.67 22.27 83.45 23.18L83.45 23.18Q82.73 22.92 82.49 22.07Q82.25 21.22 82.25 18.82L82.25 18.82Q82.37 17.83 82.58 17.04L82.58 17.04L82.34 17.02Q81.91 18.89 80.94 20.63Q79.97 22.37 78.62 23.18L78.62 23.18Q77.62 23.02 77.11 21.86Q76.61 20.71 76.61 19.39ZM78.31 18.65L78.31 18.65Q78.31 19.44 78.52 20.24Q78.72 21.05 79.20 21.22L79.20 21.22Q80.38 20.38 81.41 17.76Q82.44 15.14 82.44 13.51L82.44 13.51Q81.60 12.67 80.38 12.67L80.38 12.67Q79.73 12.67 79.39 13.01L79.39 13.01Q78.31 15.26 78.31 18.65ZM97.99 21.41L97.99 21.41Q97.99 23.23 98.14 24.26L98.14 24.26Q98.76 24.79 99.48 25.06L99.48 25.06L99.36 25.44Q98.33 25.22 97.00 25.22Q95.66 25.22 94.30 25.51L94.30 25.51L94.22 25.15Q95.02 24.77 96.07 24.46L96.07 24.46Q96.34 22.73 96.38 21.41L96.38 21.41L90.84 21.41L90.74 21.07Q94.06 17.30 96.70 11.78L96.70 11.78Q97.92 11.59 98.76 11.18L98.76 11.18L98.95 11.28Q98.62 12.31 98.48 12.88Q98.35 13.44 98.20 15.32Q98.04 17.21 98.02 20.26L98.02 20.26Q99.34 20.26 100.34 19.82L100.34 19.82L100.46 19.97Q100.18 20.69 100.06 21.55L100.06 21.55Q99 21.41 97.99 21.41ZM96.62 13.73L96.46 13.73Q94.80 17.71 93.12 20.04L93.12 20.04Q94.63 20.21 96.41 20.23L96.41 20.23L96.62 13.73ZM106.22 11.95Q105 12.36 104.40 14.22Q103.80 16.08 103.80 17.66Q103.80 19.25 104.27 20.59Q104.74 21.94 105.70 22.42L105.70 22.42Q106.92 22.01 107.53 20.23Q108.14 18.46 108.14 16.88Q108.14 15.31 107.66 13.87Q107.18 12.43 106.22 11.95L106.22 11.95ZM101.74 17.52Q102.22 14.54 103.56 12.86Q104.90 11.18 106.28 11.18Q107.66 11.18 108.82 12.88Q109.97 14.57 110.21 16.87L110.21 16.87Q109.73 19.85 108.37 21.52Q107.02 23.18 105.64 23.18Q104.26 23.18 103.12 21.50Q101.98 19.82 101.74 17.52L101.74 17.52ZM116.23 11.95Q115.01 12.36 114.41 14.22Q113.81 16.08 113.81 17.66Q113.81 19.25 114.28 20.59Q114.74 21.94 115.70 22.42L115.70 22.42Q116.93 22.01 117.54 20.23Q118.15 18.46 118.15 16.88Q118.15 15.31 117.67 13.87Q117.19 12.43 116.23 11.95L116.23 11.95ZM111.74 17.52Q112.22 14.54 113.57 12.86Q114.91 11.18 116.29 11.18Q117.67 11.18 118.82 12.88Q119.98 14.57 120.22 16.87L120.22 16.87Q119.74 19.85 118.38 21.52Q117.02 23.18 115.64 23.18Q114.26 23.18 113.12 21.50Q111.98 19.82 111.74 17.52L111.74 17.52ZM129.62 11.18L129.79 11.50Q128.98 13.66 128.98 20.76L128.98 20.76L128.98 21.14Q129.70 20.52 130.39 19.26Q131.09 18 131.45 16.90L131.45 16.90L131.78 16.97Q131.33 18.84 130.46 20.56Q129.60 22.27 128.38 23.18L128.38 23.18Q127.22 22.80 127.22 21L127.22 21Q127.22 19.99 127.34 17.54Q127.46 15.10 127.46 13.99Q127.46 12.89 127.42 12.22L127.42 12.22Q126.50 12.14 125.54 11.88L125.54 11.88L125.54 11.54Q127.85 11.54 129.62 11.18L129.62 11.18ZM129.84 7.94L129.84 7.94Q129.62 8.30 129.18 8.83Q128.74 9.36 128.40 9.58L128.40 9.58Q127.82 9.17 127.25 7.94L127.25 7.94Q127.42 7.63 127.87 7.22Q128.33 6.82 128.66 6.62L128.66 6.62Q129.26 7.01 129.84 7.94ZM136.03 12.70L136.03 12.70Q135.62 16.10 135.62 20.95L135.62 20.95L135.62 21.34Q137.42 20.04 138.31 17.66L138.31 17.66L138.65 17.76Q137.35 21.72 135.02 23.16L135.02 23.16Q133.87 22.78 133.87 20.98L133.87 20.98Q133.87 19.68 133.99 17.47Q134.11 15.26 134.11 14.16Q134.11 13.06 134.04 12.55L134.04 12.55Q133.61 12.48 133.22 12.48L133.22 12.48L133.18 12.10Q134.52 10.85 135.22 9.29L135.22 9.29Q135.84 9.05 136.20 8.78L136.20 8.78L136.34 8.90Q136.08 10.08 136.08 10.70Q136.08 11.33 136.08 11.50L136.08 11.50Q137.09 11.42 138.02 11.16L138.02 11.16L138.14 11.30Q137.88 12.07 137.78 12.89L137.78 12.89Q136.85 12.72 136.03 12.70ZM140.14 19.39L140.14 19.39Q140.14 16.80 141.28 14.45Q142.42 12.10 144.50 11.18L144.50 11.18Q145.70 11.18 147.00 12.02L147.00 12.02Q147.38 11.09 147.86 10.42L147.86 10.42L148.20 10.51Q147.43 12.55 147.43 17.21L147.43 17.21Q147.43 20.02 147.62 21.14L147.62 21.14Q148.34 20.52 149.04 19.26Q149.74 18 150.10 16.90L150.10 16.90L150.43 16.97Q149.98 18.82 149.09 20.54Q148.20 22.27 146.98 23.18L146.98 23.18Q146.26 22.92 146.02 22.07Q145.78 21.22 145.78 18.82L145.78 18.82Q145.90 17.83 146.11 17.04L146.11 17.04L145.87 17.02Q145.44 18.89 144.47 20.63Q143.50 22.37 142.15 23.18L142.15 23.18Q141.14 23.02 140.64 21.86Q140.14 20.71 140.14 19.39ZM141.84 18.65L141.84 18.65Q141.84 19.44 142.04 20.24Q142.25 21.05 142.73 21.22L142.73 21.22Q143.90 20.38 144.94 17.76Q145.97 15.14 145.97 13.51L145.97 13.51Q145.13 12.67 143.90 12.67L143.90 12.67Q143.26 12.67 142.92 13.01L142.92 13.01Q141.84 15.26 141.84 18.65ZM152.52 21L152.52 21L152.78 12.22Q152.78 8.66 152.69 7.75L152.69 7.75Q151.78 7.68 150.82 7.42L150.82 7.42L150.82 7.08Q153.38 7.08 155.54 5.95L155.54 5.95L155.74 6.26Q154.97 6.96 154.73 7.94L154.73 7.94Q154.27 10.01 154.27 20.76L154.27 20.76L154.27 21.14Q154.99 20.52 155.69 19.26Q156.38 18 156.74 16.90L156.74 16.90L157.08 16.97Q156.62 18.84 155.76 20.56Q154.90 22.27 153.67 23.18L153.67 23.18Q152.52 22.80 152.52 21ZM162.10 11.18L162.26 11.50Q161.45 13.66 161.45 20.76L161.45 20.76L161.45 21.14Q162.17 20.52 162.86 19.26Q163.56 18 163.92 16.90L163.92 16.90L164.26 16.97Q163.80 18.84 162.94 20.56Q162.07 22.27 160.85 23.18L160.85 23.18Q159.70 22.80 159.70 21L159.70 21Q159.70 19.99 159.82 17.54Q159.94 15.10 159.94 13.99Q159.94 12.89 159.89 12.22L159.89 12.22Q158.98 12.14 158.02 11.88L158.02 11.88L158.02 11.54Q160.32 11.54 162.10 11.18L162.10 11.18ZM162.31 7.94L162.31 7.94Q162.10 8.30 161.65 8.83Q161.21 9.36 160.87 9.58L160.87 9.58Q160.30 9.17 159.72 7.94L159.72 7.94Q159.89 7.63 160.34 7.22Q160.80 6.82 161.14 6.62L161.14 6.62Q161.74 7.01 162.31 7.94ZM165.72 19.06L165.72 19.06Q165.72 16.63 166.70 14.50Q167.69 12.36 169.58 11.18L169.58 11.18Q170.76 11.62 171.62 11.62Q172.49 11.62 172.80 11.52L172.80 11.52L172.94 11.88Q171.96 12.70 171.96 15.31L171.96 15.31L171.62 15.31Q171.36 14.35 171.29 13.46L171.29 13.46L170.64 13.20Q169.51 12.74 168.65 12.62L168.65 12.62Q167.42 14.95 167.42 17.81Q167.42 20.66 169.15 21.36L169.15 21.36Q170.95 20.06 171.84 17.69L171.84 17.69L172.39 17.90Q171.86 19.49 170.86 20.93Q169.85 22.37 168.55 23.18L168.55 23.18Q167.18 22.92 166.45 21.76Q165.72 20.59 165.72 19.06Z"/></svg>