<svg xmlns="http://www.w3.org/2000/svg" xmlns:xlink="http://www.w3.org/1999/xlink" width="269.68359375" height="28.125"><path fill="black" d="M-0.08 22.27L2.86 5.20L8.32 5.21Q9.83 5.25 10.93 5.87Q12.02 6.48 12.57 7.60Q13.13 8.72 13.02 10.25L13.02 10.25Q12.93 11.55 12.53 12.53Q12.13 13.50 11.37 14.22Q10.62 14.94 9.47 15.49L9.47 15.49L8.06 16.24L3.42 16.24L3.95 13.07L6.90 13.10Q7.63 13.08 8.07 12.73Q8.52 12.39 8.75 11.83Q8.99 11.27 9.06 10.63L9.06 10.63Q9.13 10.20 9.16 9.69Q9.20 9.18 9 8.81Q8.80 8.44 8.19 8.39L8.19 8.39L6.23 8.38L3.81 22.27L-0.08 22.27ZM11.51 22.27L7.32 22.27L5.71 14.72L9.67 14.70L11.51 22.07L11.51 22.27ZM13.64 16.52L13.64 16.52L13.78 15.35Q13.95 14.12 14.38 13.03Q14.81 11.94 15.54 11.10Q16.28 10.25 17.30 9.78Q18.33 9.30 19.69 9.35L19.69 9.35Q20.96 9.39 21.84 9.88Q22.71 10.38 23.23 11.23Q23.74 12.07 23.92 13.13Q24.11 14.19 24 15.34L24 15.34L23.85 16.54Q23.70 17.74 23.26 18.84Q22.82 19.93 22.08 20.77Q21.35 21.61 20.33 22.08Q19.30 22.55 17.95 22.50L17.95 22.50Q16.68 22.48 15.80 21.97Q14.93 21.47 14.41 20.63Q13.89 19.79 13.71 18.73Q13.52 17.67 13.64 16.52ZM17.55 15.34L17.55 15.34L17.40 16.54Q17.39 16.86 17.32 17.34Q17.25 17.82 17.27 18.31Q17.29 18.80 17.50 19.13Q17.71 19.45 18.23 19.49L18.23 19.49Q18.86 19.54 19.21 19.25Q19.56 18.96 19.73 18.50Q19.91 18.04 19.98 17.51Q20.05 16.99 20.10 16.52L20.10 16.52L20.25 15.33Q20.26 15.01 20.33 14.53Q20.40 14.05 20.38 13.57Q20.37 13.09 20.15 12.75Q19.93 12.41 19.39 12.38L19.39 12.38Q18.83 12.35 18.49 12.64Q18.14 12.94 17.95 13.41Q17.77 13.89 17.68 14.40Q17.60 14.92 17.55 15.34ZM24.48 22.27L27.61 4.27L31.36 4.27L28.73 19.36L27.88 22.27L24.48 22.27ZM35.53 15.32L35.53 15.32L35.38 16.50Q35.26 17.55 34.98 18.64Q34.70 19.73 34.18 20.63Q33.66 21.52 32.78 22.03Q31.91 22.55 30.62 22.50L30.62 22.50Q29.54 22.45 28.96 21.79Q28.37 21.13 28.13 20.14Q27.88 19.16 27.84 18.14Q27.80 17.12 27.82 16.36L27.82 16.36L27.93 15.55Q28.07 14.72 28.35 13.65Q28.64 12.57 29.13 11.58Q29.63 10.58 30.39 9.95Q31.15 9.32 32.24 9.34L32.24 9.34Q33.49 9.36 34.21 9.91Q34.93 10.46 35.26 11.36Q35.58 12.26 35.61 13.29Q35.65 14.32 35.53 15.32ZM31.66 16.51L31.66 16.51L31.78 15.32Q31.80 14.96 31.89 14.48Q31.98 13.99 31.99 13.52Q32.00 13.04 31.79 12.71Q31.58 12.39 31.04 12.36L31.04 12.36Q30.45 12.34 30.08 12.60Q29.72 12.87 29.53 13.29Q29.33 13.72 29.25 14.23Q29.17 14.73 29.14 15.20L29.14 15.20L28.96 16.64Q28.89 17.17 28.80 17.82Q28.71 18.47 28.92 18.96Q29.12 19.44 29.91 19.46L29.91 19.46Q30.54 19.49 30.88 19.21Q31.23 18.94 31.38 18.48Q31.52 18.02 31.56 17.51Q31.61 16.99 31.66 16.51ZM36.63 16.52L36.63 16.52L36.77 15.35Q36.94 14.12 37.37 13.03Q37.80 11.94 38.54 11.10Q39.27 10.25 40.29 9.78Q41.32 9.30 42.68 9.35L42.68 9.35Q43.96 9.39 44.83 9.88Q45.70 10.38 46.22 11.23Q46.73 12.07 46.92 13.13Q47.10 14.19 46.99 15.34L46.99 15.34L46.84 16.54Q46.69 17.74 46.25 18.84Q45.81 19.93 45.08 20.77Q44.34 21.61 43.32 22.08Q42.29 22.55 40.95 22.50L40.95 22.50Q39.67 22.48 38.79 21.97Q37.92 21.47 37.40 20.63Q36.88 19.79 36.70 18.73Q36.52 17.67 36.63 16.52ZM40.55 15.34L40.55 15.34L40.39 16.54Q40.38 16.86 40.31 17.34Q40.24 17.82 40.26 18.31Q40.28 18.80 40.49 19.13Q40.70 19.45 41.23 19.49L41.23 19.49Q41.85 19.54 42.20 19.25Q42.55 18.96 42.73 18.50Q42.90 18.04 42.97 17.51Q43.04 16.99 43.09 16.52L43.09 16.52L43.24 15.33Q43.25 15.01 43.32 14.53Q43.39 14.05 43.38 13.57Q43.36 13.09 43.14 12.75Q42.93 12.41 42.39 12.38L42.39 12.38Q41.82 12.35 41.48 12.64Q41.13 12.94 40.95 13.41Q40.76 13.89 40.68 14.40Q40.59 14.92 40.55 15.34ZM48.96 9.59L55.48 9.59L55.00 12.33L48.47 12.33L48.96 9.59ZM48.63 18.62L50.67 6.43L54.45 6.43L52.43 18.15Q52.38 18.46 52.38 18.73Q52.38 19.01 52.51 19.18Q52.64 19.36 53.02 19.38L53.02 19.38Q53.21 19.39 53.42 19.37Q53.63 19.35 53.81 19.32L53.81 19.32L53.52 22.18Q53.07 22.36 52.61 22.43Q52.15 22.50 51.66 22.50L51.66 22.50Q50.52 22.48 49.82 21.96Q49.11 21.45 48.83 20.57Q48.54 19.69 48.63 18.62L48.63 18.62ZM55.39 16.52L55.39 16.52L55.54 15.35Q55.70 14.12 56.13 13.03Q56.57 11.94 57.30 11.10Q58.03 10.25 59.06 9.78Q60.08 9.30 61.44 9.35L61.44 9.35Q62.72 9.39 63.59 9.88Q64.46 10.38 64.98 11.23Q65.50 12.07 65.68 13.13Q65.86 14.19 65.75 15.34L65.75 15.34L65.60 16.54Q65.45 17.74 65.01 18.84Q64.57 19.93 63.84 20.77Q63.11 21.61 62.08 22.08Q61.05 22.55 59.71 22.50L59.71 22.50Q58.43 22.48 57.56 21.97Q56.68 21.47 56.16 20.63Q55.64 19.79 55.46 18.73Q55.28 17.67 55.39 16.52ZM59.31 15.34L59.31 15.34L59.16 16.54Q59.14 16.86 59.07 17.34Q59.00 17.82 59.02 18.31Q59.04 18.80 59.25 19.13Q59.46 19.45 59.99 19.49L59.99 19.49Q60.61 19.54 60.96 19.25Q61.31 18.96 61.49 18.50Q61.66 18.04 61.73 17.51Q61.80 16.99 61.85 16.52L61.85 16.52L62.00 15.33Q62.02 15.01 62.09 14.53Q62.16 14.05 62.14 13.57Q62.12 13.09 61.90 12.75Q61.69 12.41 61.15 12.38L61.15 12.38Q60.59 12.35 60.24 12.64Q59.89 12.94 59.71 13.41Q59.52 13.89 59.44 14.40Q59.36 14.92 59.31 15.34ZM80.45 16.50L80.45 16.50L84.26 16.45Q84.21 18.29 83.34 19.67Q82.46 21.05 81.02 21.79Q79.57 22.54 77.74 22.50L77.74 22.50Q76.15 22.46 75.12 21.80Q74.09 21.14 73.52 20.04Q72.96 18.95 72.81 17.61Q72.67 16.28 72.83 14.92L72.83 14.92L73.21 12.54Q73.42 11.12 73.93 9.76Q74.44 8.39 75.29 7.29Q76.15 6.19 77.37 5.55Q78.60 4.92 80.20 4.96L80.20 4.96Q82.07 4.99 83.23 5.81Q84.39 6.63 84.93 8.02Q85.46 9.40 85.45 11.12L85.45 11.12L81.53 11.10Q81.63 10.35 81.59 9.70Q81.55 9.05 81.19 8.63Q80.84 8.20 79.93 8.17L79.93 8.17Q79.08 8.13 78.56 8.55Q78.05 8.98 77.78 9.66Q77.51 10.35 77.38 11.11Q77.26 11.87 77.18 12.52L77.18 12.52L76.83 14.93Q76.77 15.43 76.65 16.16Q76.52 16.89 76.54 17.59Q76.56 18.29 76.87 18.78Q77.18 19.27 77.99 19.31L77.99 19.31Q78.88 19.34 79.41 18.97Q79.93 18.60 80.17 17.95Q80.41 17.30 80.45 16.50ZM85.69 16.52L85.69 16.52L85.83 15.35Q85.99 14.12 86.43 13.03Q86.86 11.94 87.59 11.10Q88.32 10.25 89.35 9.78Q90.38 9.30 91.73 9.35L91.73 9.35Q93.01 9.39 93.88 9.88Q94.76 10.38 95.27 11.23Q95.79 12.07 95.97 13.13Q96.15 14.19 96.05 15.34L96.05 15.34L95.89 16.54Q95.74 17.74 95.30 18.84Q94.86 19.93 94.13 20.77Q93.40 21.61 92.37 22.08Q91.35 22.55 90 22.50L90 22.50Q88.72 22.48 87.85 21.97Q86.98 21.47 86.46 20.63Q85.93 19.79 85.75 18.73Q85.57 17.67 85.69 16.52ZM89.60 15.34L89.60 15.34L89.45 16.54Q89.44 16.86 89.37 17.34Q89.30 17.82 89.31 18.31Q89.33 18.80 89.54 19.13Q89.75 19.45 90.28 19.49L90.28 19.49Q90.90 19.54 91.25 19.25Q91.61 18.96 91.78 18.50Q91.96 18.04 92.03 17.51Q92.10 16.99 92.14 16.52L92.14 16.52L92.30 15.33Q92.31 15.01 92.38 14.53Q92.45 14.05 92.43 13.57Q92.41 13.09 92.20 12.75Q91.98 12.41 91.44 12.38L91.44 12.38Q90.88 12.35 90.53 12.64Q90.19 12.94 90 13.41Q89.81 13.89 89.73 14.40Q89.65 14.92 89.60 15.34ZM102.12 9.59L101.87 12.50L100.17 22.27L96.41 22.27L98.61 9.59L102.12 9.59ZM100.96 15.54L100.96 15.54L100.29 15.57Q100.36 14.58 100.61 13.47Q100.85 12.36 101.36 11.41Q101.86 10.46 102.70 9.88Q103.54 9.30 104.79 9.33L104.79 9.33Q105.79 9.38 106.37 9.85Q106.95 10.32 107.20 11.06Q107.45 11.80 107.48 12.65Q107.51 13.50 107.44 14.29L107.44 14.29L106.10 22.27L102.33 22.27L103.66 14.25Q103.70 13.85 103.71 13.42Q103.71 12.98 103.54 12.68Q103.36 12.38 102.82 12.36L102.82 12.36Q102.22 12.35 101.87 12.68Q101.52 13.01 101.34 13.52Q101.17 14.03 101.09 14.57Q101.02 15.12 100.96 15.54ZM114.22 22.27L114.35 19.14L116.93 4.27L120.69 4.27L117.57 22.27L114.22 22.27ZM108.69 16.55L108.69 16.55L108.83 15.36Q108.96 14.32 109.25 13.24Q109.55 12.15 110.08 11.26Q110.61 10.36 111.49 9.83Q112.36 9.29 113.64 9.35L113.64 9.35Q114.69 9.40 115.27 10.10Q115.85 10.79 116.10 11.79Q116.34 12.80 116.39 13.83Q116.44 14.86 116.41 15.59L116.41 15.59L116.30 16.41Q116.17 17.20 115.87 18.26Q115.57 19.31 115.05 20.30Q114.53 21.28 113.77 21.91Q113.02 22.55 111.97 22.51L111.97 22.51Q110.74 22.49 110.04 21.92Q109.34 21.35 109.01 20.46Q108.69 19.56 108.64 18.53Q108.59 17.50 108.69 16.55ZM112.57 15.36L112.57 15.36L112.43 16.56Q112.41 16.89 112.34 17.36Q112.27 17.84 112.27 18.32Q112.28 18.80 112.48 19.13Q112.68 19.45 113.20 19.48L113.20 19.48Q113.94 19.51 114.34 19.07Q114.74 18.62 114.90 17.97Q115.05 17.32 115.09 16.73L115.09 16.73L115.28 15.29Q115.31 14.94 115.39 14.46Q115.46 13.98 115.43 13.51Q115.39 13.04 115.17 12.73Q114.94 12.41 114.38 12.38L114.38 12.38Q113.79 12.35 113.44 12.64Q113.09 12.93 112.92 13.40Q112.75 13.88 112.68 14.40Q112.61 14.92 112.57 15.36ZM125.03 22.50L125.03 22.50Q123.79 22.48 122.84 22.04Q121.90 21.61 121.29 20.84Q120.69 20.07 120.45 19.05Q120.20 18.02 120.30 16.82L120.30 16.82L120.48 15.43Q120.64 14.14 121.07 13.03Q121.49 11.92 122.21 11.07Q122.93 10.23 123.97 9.77Q125.02 9.30 126.43 9.35L126.43 9.35Q127.71 9.39 128.55 9.89Q129.39 10.39 129.85 11.24Q130.31 12.08 130.45 13.14Q130.59 14.19 130.46 15.33L130.46 15.33L130.20 17.17L121.62 17.17L122.05 14.70L126.84 14.71L126.93 14.24Q126.98 13.82 127.01 13.40Q127.03 12.98 126.85 12.70Q126.67 12.41 126.13 12.36L126.13 12.36Q125.47 12.34 125.12 12.63Q124.77 12.91 124.60 13.39Q124.43 13.86 124.36 14.41Q124.29 14.95 124.24 15.43L124.24 15.43L124.07 16.83Q124.02 17.30 124.01 17.75Q124.00 18.20 124.12 18.58Q124.24 18.96 124.54 19.19Q124.84 19.42 125.44 19.44L125.44 19.44Q126.16 19.46 126.81 19.20Q127.45 18.94 127.97 18.42L127.97 18.42L129.35 20.85Q128.87 21.48 128.14 21.84Q127.41 22.20 126.59 22.35Q125.78 22.51 125.03 22.50ZM136.45 9.59L136.21 12.50L134.51 22.27L130.75 22.27L132.95 9.59L136.45 9.59ZM135.29 15.54L135.29 15.54L134.63 15.57Q134.70 14.58 134.94 13.47Q135.19 12.36 135.69 11.41Q136.20 10.46 137.03 9.88Q137.87 9.30 139.13 9.33L139.13 9.33Q140.12 9.38 140.70 9.85Q141.28 10.32 141.53 11.06Q141.79 11.80 141.81 12.65Q141.84 13.50 141.77 14.29L141.77 14.29L140.44 22.27L136.66 22.27L138 14.25Q138.04 13.85 138.04 13.42Q138.05 12.98 137.87 12.68Q137.70 12.38 137.16 12.36L137.16 12.36Q136.56 12.35 136.21 12.68Q135.86 13.01 135.68 13.52Q135.50 14.03 135.43 14.57Q135.35 15.12 135.29 15.54ZM148.27 18.73L148.27 18.73Q148.34 18.38 148.04 18.12Q147.74 17.86 147.35 17.66Q146.95 17.46 146.75 17.30L146.75 17.30Q146.13 16.98 145.58 16.61Q145.02 16.24 144.60 15.77Q144.18 15.30 143.94 14.71Q143.71 14.11 143.75 13.35L143.75 13.35Q143.79 12.39 144.20 11.64Q144.61 10.89 145.28 10.37Q145.96 9.86 146.79 9.59Q147.63 9.32 148.55 9.35L148.55 9.35Q149.78 9.36 150.76 9.84Q151.73 10.31 152.30 11.21Q152.86 12.11 152.86 13.37L152.86 13.37L149.12 13.36Q149.13 13.03 149.13 12.71Q149.13 12.39 148.98 12.18Q148.83 11.98 148.38 11.98L148.38 11.98Q148.07 11.99 147.83 12.16Q147.60 12.33 147.46 12.59Q147.32 12.86 147.26 13.14L147.26 13.14Q147.20 13.38 147.28 13.59Q147.35 13.79 147.50 13.96Q147.64 14.13 147.84 14.27Q148.03 14.40 148.23 14.51L148.23 14.51Q149.18 14.91 150.02 15.40Q150.86 15.90 151.38 16.66Q151.91 17.41 151.88 18.61L151.88 18.61Q151.83 19.61 151.38 20.34Q150.93 21.08 150.19 21.56Q149.46 22.04 148.58 22.28Q147.70 22.52 146.80 22.50L146.80 22.50Q145.57 22.48 144.60 21.95Q143.63 21.42 143.06 20.48Q142.50 19.55 142.48 18.29L142.48 18.29L145.96 18.30Q145.95 18.74 146.00 19.09Q146.06 19.44 146.29 19.65Q146.52 19.86 147.02 19.86L147.02 19.86Q147.39 19.85 147.63 19.71Q147.88 19.57 148.04 19.32Q148.20 19.07 148.27 18.73ZM158.39 22.50L158.39 22.50Q157.15 22.48 156.21 22.04Q155.26 21.61 154.66 20.84Q154.05 20.07 153.81 19.05Q153.56 18.02 153.67 16.82L153.67 16.82L153.84 15.43Q154.01 14.14 154.43 13.03Q154.85 11.92 155.57 11.07Q156.29 10.23 157.34 9.77Q158.38 9.30 159.80 9.35L159.80 9.35Q161.07 9.39 161.91 9.89Q162.75 10.39 163.21 11.24Q163.68 12.08 163.82 13.14Q163.96 14.19 163.83 15.33L163.83 15.33L163.56 17.17L154.98 17.17L155.41 14.70L160.21 14.71L160.29 14.24Q160.35 13.82 160.37 13.40Q160.39 12.98 160.21 12.70Q160.03 12.41 159.49 12.36L159.49 12.36Q158.84 12.34 158.48 12.63Q158.13 12.91 157.96 13.39Q157.79 13.86 157.72 14.41Q157.65 14.95 157.61 15.43L157.61 15.43L157.43 16.83Q157.38 17.30 157.37 17.75Q157.36 18.20 157.48 18.58Q157.61 18.96 157.90 19.19Q158.20 19.42 158.80 19.44L158.80 19.44Q159.53 19.46 160.17 19.20Q160.82 18.94 161.33 18.42L161.33 18.42L162.71 20.85Q162.23 21.48 161.50 21.84Q160.77 22.20 159.96 22.35Q159.14 22.51 158.39 22.50ZM170.37 22.27L170.50 19.14L173.07 4.27L176.84 4.27L173.72 22.27L170.37 22.27ZM164.84 16.55L164.84 16.55L164.98 15.36Q165.11 14.32 165.40 13.24Q165.69 12.15 166.22 11.26Q166.76 10.36 167.63 9.83Q168.50 9.29 169.78 9.35L169.78 9.35Q170.84 9.40 171.42 10.10Q172.00 10.79 172.24 11.79Q172.49 12.80 172.54 13.83Q172.58 14.86 172.56 15.59L172.56 15.59L172.44 16.41Q172.31 17.20 172.01 18.26Q171.71 19.31 171.19 20.30Q170.67 21.28 169.92 21.91Q169.16 22.55 168.12 22.51L168.12 22.51Q166.89 22.49 166.18 21.92Q165.48 21.35 165.16 20.46Q164.84 19.56 164.78 18.53Q164.73 17.50 164.84 16.55ZM168.71 15.36L168.71 15.36L168.57 16.56Q168.55 16.89 168.48 17.36Q168.41 17.84 168.42 18.32Q168.42 18.80 168.62 19.13Q168.82 19.45 169.35 19.48L169.35 19.48Q170.09 19.51 170.48 19.07Q170.88 18.62 171.04 17.97Q171.20 17.32 171.23 16.73L171.23 16.73L171.42 15.29Q171.46 14.94 171.53 14.46Q171.61 13.98 171.57 13.51Q171.54 13.04 171.31 12.73Q171.08 12.41 170.52 12.38L170.52 12.38Q169.93 12.35 169.58 12.64Q169.23 12.93 169.06 13.40Q168.89 13.88 168.82 14.40Q168.75 14.92 168.71 15.36ZM183.54 22.52L183.82 19.34L183.95 19.34Q185.02 19.37 185.83 19.04Q186.64 18.70 187.22 18.06Q187.80 17.43 188.16 16.58Q188.52 15.73 188.66 14.74L188.66 14.74L189.14 11.20Q189.15 10.96 189.22 10.45Q189.28 9.94 189.27 9.37Q189.26 8.80 189.07 8.40Q188.88 8.00 188.41 7.98L188.41 7.98Q187.92 7.97 187.62 8.33Q187.31 8.70 187.14 9.23Q186.97 9.77 186.90 10.30Q186.83 10.83 186.80 11.14L186.80 11.14Q186.77 11.43 186.74 11.89Q186.71 12.36 186.77 12.84Q186.83 13.31 187.06 13.65Q187.29 13.98 187.75 13.99L187.75 13.99Q188.14 13.99 188.41 13.78Q188.67 13.57 188.85 13.22Q189.02 12.87 189.12 12.49Q189.22 12.11 189.25 11.81L189.25 11.81L190.20 12.71Q190.14 13.41 189.84 14.13Q189.55 14.86 189.08 15.48Q188.61 16.10 187.97 16.47Q187.32 16.84 186.54 16.83L186.54 16.83Q185.41 16.83 184.69 16.29Q183.96 15.75 183.57 14.89Q183.19 14.03 183.06 13.04Q182.94 12.05 183.01 11.13L183.01 11.13Q183.12 10.01 183.55 8.91Q183.98 7.80 184.73 6.90Q185.47 6 186.48 5.46Q187.49 4.92 188.71 4.96L188.71 4.96Q190.07 4.98 190.92 5.66Q191.77 6.34 192.22 7.41Q192.68 8.47 192.81 9.68Q192.95 10.89 192.84 11.98L192.84 11.98L192.66 13.31Q192.47 14.75 191.99 16.10Q191.52 17.45 190.78 18.61Q190.04 19.77 189.03 20.64Q188.02 21.52 186.72 22.01Q185.43 22.50 183.84 22.52L183.84 22.52L183.54 22.52ZM204.76 12.18L204.76 12.18L204.29 15.28Q204.13 16.50 203.71 17.78Q203.30 19.07 202.59 20.15Q201.89 21.23 200.85 21.88Q199.80 22.54 198.32 22.50L198.32 22.50Q197.19 22.48 196.43 22.01Q195.67 21.54 195.20 20.78Q194.73 20.03 194.50 19.08Q194.27 18.14 194.25 17.16Q194.23 16.18 194.33 15.29L194.33 15.29L194.80 12.18Q194.99 10.96 195.39 9.67Q195.80 8.39 196.51 7.30Q197.21 6.21 198.26 5.57Q199.31 4.93 200.80 4.97L200.80 4.97Q201.91 4.99 202.68 5.47Q203.45 5.94 203.91 6.70Q204.38 7.45 204.60 8.38Q204.82 9.32 204.84 10.30Q204.87 11.29 204.76 12.18ZM200.50 15.79L200.50 15.79L201.09 11.66Q201.12 11.46 201.19 11.05Q201.26 10.64 201.30 10.13Q201.34 9.61 201.30 9.13Q201.27 8.66 201.09 8.34Q200.91 8.02 200.51 7.99L200.51 7.99Q199.91 7.95 199.55 8.36Q199.20 8.78 199.01 9.41Q198.82 10.04 198.74 10.68Q198.67 11.31 198.62 11.66L198.62 11.66L198.01 15.79Q198 15.98 197.93 16.40Q197.86 16.82 197.81 17.33Q197.77 17.85 197.80 18.32Q197.84 18.80 198.02 19.12Q198.20 19.44 198.60 19.48L198.60 19.48Q199.20 19.52 199.55 19.10Q199.91 18.68 200.10 18.05Q200.29 17.41 200.37 16.78Q200.45 16.15 200.50 15.79ZM216.67 12.18L216.67 12.18L216.20 15.28Q216.04 16.50 215.62 17.78Q215.20 19.07 214.50 20.15Q213.80 21.23 212.75 21.88Q211.71 22.54 210.22 22.50L210.22 22.50Q209.10 22.48 208.34 22.01Q207.57 21.54 207.11 20.78Q206.64 20.03 206.41 19.08Q206.18 18.14 206.16 17.16Q206.13 16.18 206.24 15.29L206.24 15.29L206.71 12.18Q206.89 10.96 207.30 9.67Q207.70 8.39 208.41 7.30Q209.12 6.21 210.17 5.57Q211.22 4.93 212.71 4.97L212.71 4.97Q213.82 4.99 214.59 5.47Q215.36 5.94 215.82 6.70Q216.28 7.45 216.50 8.38Q216.73 9.32 216.75 10.30Q216.77 11.29 216.67 12.18ZM212.40 15.79L212.40 15.79L213 11.66Q213.02 11.46 213.09 11.05Q213.16 10.64 213.21 10.13Q213.25 9.61 213.21 9.13Q213.18 8.66 212.99 8.34Q212.81 8.02 212.41 7.99L212.41 7.99Q211.82 7.95 211.46 8.36Q211.10 8.78 210.91 9.41Q210.73 10.04 210.65 10.68Q210.57 11.31 210.53 11.66L210.53 11.66L209.92 15.79Q209.91 15.98 209.84 16.40Q209.77 16.82 209.72 17.33Q209.67 17.85 209.71 18.32Q209.74 18.80 209.92 19.12Q210.11 19.44 210.50 19.48L210.50 19.48Q211.10 19.52 211.46 19.10Q211.82 18.68 212.00 18.05Q212.19 17.41 212.27 16.78Q212.36 16.15 212.40 15.79ZM224.79 9.59L228.54 9.59L226.35 22.27L222.59 22.27L224.79 9.59ZM225.18 6.38L225.18 6.38Q225.18 5.50 225.77 4.95Q226.37 4.39 227.21 4.38L227.21 4.38Q228.05 4.37 228.64 4.89Q229.23 5.41 229.23 6.27L229.23 6.27Q229.23 7.14 228.63 7.69Q228.04 8.24 227.19 8.25L227.19 8.25Q226.36 8.26 225.77 7.74Q225.19 7.22 225.18 6.38ZM230.00 9.59L236.52 9.59L236.04 12.33L229.51 12.33L230.00 9.59ZM229.68 18.62L231.71 6.43L235.49 6.43L233.47 18.15Q233.43 18.46 233.43 18.73Q233.43 19.01 233.55 19.18Q233.68 19.36 234.06 19.38L234.06 19.38Q234.26 19.39 234.46 19.37Q234.67 19.35 234.86 19.32L234.86 19.32L234.56 22.18Q234.12 22.36 233.65 22.43Q233.19 22.50 232.70 22.50L232.70 22.50Q231.56 22.48 230.86 21.96Q230.16 21.45 229.87 20.57Q229.58 19.69 229.68 18.62L229.68 18.62ZM241.49 19.08L241.49 19.08L242.37 13.45Q242.39 13.15 242.43 12.85Q242.47 12.55 242.36 12.33Q242.25 12.12 241.83 12.13L241.83 12.13Q241.42 12.12 241.25 12.32Q241.08 12.53 241.04 12.84Q241.00 13.16 240.94 13.48L240.94 13.48L237.18 13.50Q237.22 12.49 237.65 11.71Q238.08 10.92 238.78 10.39Q239.48 9.87 240.37 9.60Q241.25 9.33 242.21 9.35L242.21 9.35Q243.47 9.36 244.41 9.86Q245.34 10.36 245.81 11.30Q246.28 12.23 246.15 13.52L246.15 13.52L245.26 19.08Q245.16 19.80 245.12 20.57Q245.07 21.33 245.26 22.04L245.26 22.04L245.25 22.27L241.61 22.28Q241.36 21.52 241.37 20.70Q241.37 19.88 241.49 19.08ZM241.57 14.51L242.71 14.52L242.36 16.63L241.56 16.62Q241.13 16.63 240.81 16.81Q240.49 16.99 240.29 17.28Q240.08 17.57 239.96 17.93Q239.85 18.29 239.80 18.69L239.80 18.69Q239.75 18.95 239.74 19.19Q239.72 19.43 239.81 19.59Q239.91 19.75 240.25 19.75L240.25 19.75Q240.60 19.75 240.89 19.58Q241.18 19.42 241.38 19.16Q241.58 18.90 241.63 18.57L241.63 18.57L241.85 20.17Q241.63 20.61 241.41 21.04Q241.18 21.46 240.90 21.80Q240.62 22.14 240.22 22.33Q239.81 22.52 239.20 22.52L239.20 22.52Q238.16 22.52 237.42 22.02Q236.67 21.52 236.30 20.70Q235.93 19.88 235.97 18.86L235.97 18.86Q236.00 17.70 236.49 16.86Q236.98 16.03 237.77 15.52Q238.57 15 239.54 14.75Q240.52 14.51 241.57 14.51L241.57 14.51ZM249.93 4.27L253.68 4.27L250.56 22.27L246.80 22.27L249.93 4.27ZM255.08 9.59L258.83 9.59L256.64 22.27L252.88 22.27L255.08 9.59ZM255.47 6.38L255.47 6.38Q255.47 5.50 256.07 4.95Q256.66 4.39 257.51 4.38L257.51 4.38Q258.34 4.37 258.93 4.89Q259.52 5.41 259.52 6.27L259.52 6.27Q259.52 7.14 258.93 7.69Q258.33 8.24 257.48 8.25L257.48 8.25Q256.65 8.26 256.07 7.74Q255.48 7.22 255.47 6.38ZM263.78 19.49L263.78 19.49Q264.32 19.51 264.58 19.26Q264.84 19.01 264.94 18.60Q265.04 18.20 265.07 17.74L265.07 17.74L268.57 17.73Q268.51 19.15 267.88 20.24Q267.26 21.33 266.17 21.94Q265.09 22.55 263.65 22.51L263.65 22.51Q262.34 22.49 261.46 21.99Q260.59 21.49 260.10 20.66Q259.62 19.83 259.46 18.77Q259.30 17.71 259.43 16.52L259.43 16.52L259.61 15.32Q259.76 14.10 260.16 13.00Q260.57 11.89 261.26 11.06Q261.95 10.23 262.96 9.77Q263.96 9.30 265.34 9.35L265.34 9.35Q266.85 9.39 267.74 10.08Q268.64 10.78 269.00 11.92Q269.37 13.07 269.29 14.45L269.29 14.45L265.76 14.44Q265.82 14.03 265.86 13.56Q265.90 13.09 265.73 12.75Q265.57 12.41 265.00 12.39L265.00 12.39Q264.39 12.35 264.07 12.64Q263.75 12.94 263.63 13.40Q263.50 13.86 263.46 14.38Q263.43 14.91 263.38 15.33L263.38 15.33L263.24 16.55Q263.19 16.85 263.08 17.34Q262.97 17.82 262.93 18.31Q262.89 18.80 263.06 19.13Q263.24 19.46 263.78 19.49Z"/></svg>