<svg xmlns="http://www.w3.org/2000/svg" xmlns:xlink="http://www.w3.org/1999/xlink" width="261.4560000000001" height="39.888"><path fill="black" d="M1.54 27.12L2.74 12L6.05 12L8.71 20.16Q9.05 21.19 9.30 22.02Q9.55 22.85 9.82 23.88L9.82 23.88L9.89 23.88Q10.15 23.02 10.43 22.03Q10.70 21.05 10.97 20.16L10.97 20.16L13.54 12L16.85 12L18.10 27.12L15.60 27.12Q15.41 24.72 15.23 22.28Q15.05 19.85 14.95 17.40L14.95 17.40L14.86 14.64L14.81 14.64Q14.40 16.13 13.96 17.66Q13.51 19.20 13.03 20.62L13.03 20.62L10.90 27.12L8.71 27.12L6.55 20.59Q6.22 19.56 5.96 18.72Q5.71 17.88 5.51 17.17Q5.30 16.46 5.14 15.84Q4.97 15.22 4.82 14.64L4.82 14.64L4.75 14.64Q4.68 16.68 4.54 18.79Q4.39 20.90 4.27 22.85L4.27 22.85L3.98 27.12L1.54 27.12ZM28.46 24L28.46 15.79L30.94 15.79L30.94 27.12L29.04 27.12L28.73 25.75L28.63 25.75Q28.03 26.38 27.12 26.87Q26.21 27.36 24.91 27.36L24.91 27.36Q23.11 27.36 22.03 26.35Q20.95 25.34 20.95 23.33L20.95 23.33L20.95 15.79L23.42 15.79L23.42 23.06Q23.42 24.38 24.04 24.91Q24.65 25.44 25.51 25.44L25.51 25.44Q26.45 25.44 27.17 25.04Q27.89 24.65 28.46 24L28.46 24ZM37.61 22.03L36.55 23.09L36.55 27.12L34.10 27.12L34.10 10.06L36.55 10.06L36.55 20.52L40.85 15.79L43.87 15.79L39.31 20.57L44.09 27.12L41.18 27.12L37.61 22.03ZM52.22 15.79L52.22 17.62L49.01 17.62L49.01 23.74Q49.01 24.58 49.40 24.86Q49.80 25.15 50.47 25.15L50.47 25.15Q50.95 25.15 51.49 25.04Q52.03 24.94 52.44 24.79L52.44 24.79L52.82 26.62Q52.34 26.81 51.59 26.96Q50.83 27.12 49.99 27.12L49.99 27.12Q48.17 27.12 47.36 26.36Q46.56 25.61 46.56 24.12L46.56 24.12L46.56 17.62L44.83 17.62L44.83 15.79L46.56 15.79L46.56 12.22L49.01 12.22L49.01 15.79L52.22 15.79ZM55.92 18.53L55.01 16.80Q56.11 16.20 57.13 15.90Q58.15 15.60 59.40 15.60L59.40 15.60Q60.36 15.60 61.16 15.82Q61.97 16.03 62.54 16.51Q63.12 16.99 63.44 17.80Q63.77 18.60 63.77 19.75L63.77 19.75L63.77 27.12L61.78 27.12L61.51 25.90L61.44 25.90Q60.77 26.66 59.88 27.01Q58.99 27.36 57.91 27.36L57.91 27.36Q56.21 27.36 55.16 26.45Q54.12 25.54 54.12 24.02L54.12 24.02Q54.12 23.09 54.50 22.40Q54.89 21.72 55.58 21.26Q56.28 20.81 57.24 20.58Q58.20 20.35 59.35 20.35L59.35 20.35L61.27 20.35L61.27 19.49Q61.27 18.41 60.70 17.99Q60.12 17.57 59.11 17.57L59.11 17.57Q58.49 17.57 57.71 17.77Q56.93 17.98 55.92 18.53L55.92 18.53ZM61.30 24.12L61.30 21.98L59.78 22.01Q58.08 22.06 57.38 22.61Q56.69 23.16 56.69 23.90L56.69 23.90Q56.69 24.38 56.84 24.70Q57.00 25.01 57.26 25.20Q57.53 25.39 57.88 25.48Q58.22 25.56 58.58 25.56L58.58 25.56Q59.33 25.56 60.06 25.19Q60.79 24.82 61.30 24.12L61.30 24.12ZM72.14 27.12L73.34 12L76.66 12L79.32 20.16Q79.66 21.19 79.91 22.02Q80.16 22.85 80.42 23.88L80.42 23.88L80.50 23.88Q80.76 23.02 81.04 22.03Q81.31 21.05 81.58 20.16L81.58 20.16L84.14 12L87.46 12L88.70 27.12L86.21 27.12Q86.02 24.72 85.84 22.28Q85.66 19.85 85.56 17.40L85.56 17.40L85.46 14.64L85.42 14.64Q85.01 16.13 84.56 17.66Q84.12 19.20 83.64 20.62L83.64 20.62L81.50 27.12L79.32 27.12L77.16 20.59Q76.82 19.56 76.57 18.72Q76.32 17.88 76.12 17.17Q75.91 16.46 75.74 15.84Q75.58 15.22 75.43 14.64L75.43 14.64L75.36 14.64Q75.29 16.68 75.14 18.79Q75.00 20.90 74.88 22.85L74.88 22.85L74.59 27.12L72.14 27.12ZM92.86 18.53L91.94 16.80Q93.05 16.20 94.07 15.90Q95.09 15.60 96.34 15.60L96.34 15.60Q97.30 15.60 98.10 15.82Q98.90 16.03 99.48 16.51Q100.06 16.99 100.38 17.80Q100.70 18.60 100.70 19.75L100.70 19.75L100.70 27.12L98.71 27.12L98.45 25.90L98.38 25.90Q97.70 26.66 96.82 27.01Q95.93 27.36 94.85 27.36L94.85 27.36Q93.14 27.36 92.10 26.45Q91.06 25.54 91.06 24.02L91.06 24.02Q91.06 23.09 91.44 22.40Q91.82 21.72 92.52 21.26Q93.22 20.81 94.18 20.58Q95.14 20.35 96.29 20.35L96.29 20.35L98.21 20.35L98.21 19.49Q98.21 18.41 97.63 17.99Q97.06 17.57 96.05 17.57L96.05 17.57Q95.42 17.57 94.64 17.77Q93.86 17.98 92.86 18.53L92.86 18.53ZM98.23 24.12L98.23 21.98L96.72 22.01Q95.02 22.06 94.32 22.61Q93.62 23.16 93.62 23.90L93.62 23.90Q93.62 24.38 93.78 24.70Q93.94 25.01 94.20 25.20Q94.46 25.39 94.81 25.48Q95.16 25.56 95.52 25.56L95.52 25.56Q96.26 25.56 97.00 25.19Q97.73 24.82 98.23 24.12L98.23 24.12ZM106.20 18.96L106.20 27.12L103.73 27.12L103.73 10.06L106.20 10.06L106.20 17.09Q106.97 16.46 107.89 16.03Q108.82 15.60 109.94 15.60L109.94 15.60Q110.90 15.60 111.62 15.89Q112.34 16.18 112.81 16.68Q113.28 17.18 113.51 17.88Q113.74 18.58 113.74 19.39L113.74 19.39L113.74 27.12L111.26 27.12L111.26 19.94Q111.26 18.67 110.74 18.12Q110.21 17.57 109.20 17.57L109.20 17.57Q108.46 17.57 107.68 17.94Q106.90 18.31 106.20 18.96L106.20 18.96ZM126.70 20.69L126.70 21.89L118.75 21.89L118.75 21.98Q118.75 23.71 119.76 24.60Q120.77 25.49 122.42 25.49L122.42 25.49Q123.34 25.49 124.07 25.33Q124.80 25.18 125.54 24.84L125.54 24.84L126.02 26.64Q125.33 26.95 124.37 27.16Q123.41 27.36 122.26 27.36L122.26 27.36Q121.03 27.36 119.93 27.02Q118.82 26.69 118.00 25.97Q117.17 25.25 116.69 24.14Q116.21 23.04 116.21 21.50L116.21 21.50Q116.21 20.18 116.60 19.09Q117.00 18 117.73 17.22Q118.46 16.44 119.51 16.02Q120.55 15.60 121.82 15.60L121.82 15.60Q122.93 15.60 123.83 15.96Q124.73 16.32 125.36 16.98Q126.00 17.64 126.35 18.59Q126.70 19.54 126.70 20.69L126.70 20.69ZM118.82 20.21L124.15 20.16Q124.15 19.58 124.01 19.08Q123.86 18.58 123.58 18.20Q123.29 17.83 122.82 17.60Q122.35 17.38 121.70 17.38L121.70 17.38Q120.50 17.38 119.75 18.14Q118.99 18.91 118.82 20.21L118.82 20.21ZM138.91 20.69L138.91 21.89L130.97 21.89L130.97 21.98Q130.97 23.71 131.98 24.60Q132.98 25.49 134.64 25.49L134.64 25.49Q135.55 25.49 136.28 25.33Q137.02 25.18 137.76 24.84L137.76 24.84L138.24 26.64Q137.54 26.95 136.58 27.16Q135.62 27.36 134.47 27.36L134.47 27.36Q133.25 27.36 132.14 27.02Q131.04 26.69 130.21 25.97Q129.38 25.25 128.90 24.14Q128.42 23.04 128.42 21.50L128.42 21.50Q128.42 20.18 128.82 19.09Q129.22 18 129.95 17.22Q130.68 16.44 131.72 16.02Q132.77 15.60 134.04 15.60L134.04 15.60Q135.14 15.60 136.04 15.96Q136.94 16.32 137.58 16.98Q138.22 17.64 138.56 18.59Q138.91 19.54 138.91 20.69L138.91 20.69ZM131.04 20.21L136.37 20.16Q136.37 19.58 136.22 19.08Q136.08 18.58 135.79 18.20Q135.50 17.83 135.04 17.60Q134.57 17.38 133.92 17.38L133.92 17.38Q132.72 17.38 131.96 18.14Q131.21 18.91 131.04 20.21L131.04 20.21ZM147.94 13.06L154.82 13.06L154.82 14.86L149.74 14.86L149.33 18.34Q149.62 18.29 149.90 18.26Q150.19 18.24 150.55 18.24L150.55 18.24Q151.42 18.24 152.28 18.47Q153.14 18.70 153.83 19.21Q154.51 19.73 154.94 20.54Q155.38 21.36 155.38 22.51L155.38 22.51Q155.38 23.52 155.02 24.40Q154.66 25.27 153.96 25.92Q153.26 26.57 152.21 26.95Q151.15 27.34 149.76 27.34L149.76 27.34Q148.85 27.34 148.00 27.14Q147.14 26.95 146.52 26.64L146.52 26.64L147.02 24.86Q147.58 25.13 148.22 25.31Q148.87 25.49 149.62 25.49L149.62 25.49Q151.22 25.49 152.10 24.74Q152.98 24 152.98 22.63L152.98 22.63Q152.98 21.24 152.04 20.57Q151.10 19.90 149.69 19.90L149.69 19.90Q148.51 19.90 147.24 20.16L147.24 20.16L147.94 13.06ZM163.32 12.84L163.32 12.84Q164.52 12.84 165.54 13.25Q166.56 13.66 167.29 14.53Q168.02 15.41 168.44 16.79Q168.86 18.17 168.86 20.09L168.86 20.09Q168.86 22.01 168.41 23.38Q167.95 24.74 167.18 25.62Q166.42 26.50 165.41 26.92Q164.40 27.34 163.30 27.34L163.30 27.34Q162.10 27.34 161.08 26.93Q160.06 26.52 159.30 25.64Q158.54 24.77 158.12 23.39Q157.70 22.01 157.70 20.09L157.70 20.09Q157.70 18.24 158.16 16.88Q158.62 15.53 159.40 14.63Q160.18 13.73 161.18 13.28Q162.19 12.84 163.32 12.84ZM160.10 20.09L160.10 20.09Q160.10 21.74 160.37 22.81Q160.63 23.88 161.08 24.49Q161.52 25.10 162.11 25.34Q162.70 25.58 163.32 25.58L163.32 25.58Q163.94 25.58 164.52 25.33Q165.10 25.08 165.53 24.44Q165.96 23.81 166.22 22.75Q166.49 21.70 166.49 20.09L166.49 20.09Q166.49 18.43 166.22 17.36Q165.96 16.30 165.52 15.68Q165.07 15.07 164.50 14.83Q163.92 14.59 163.30 14.59L163.30 14.59Q162.67 14.59 162.10 14.84Q161.52 15.10 161.08 15.73Q160.63 16.37 160.37 17.42Q160.10 18.48 160.10 20.09ZM176.50 12.84L176.50 12.84Q177.70 12.84 178.72 13.25Q179.74 13.66 180.47 14.53Q181.20 15.41 181.62 16.79Q182.04 18.17 182.04 20.09L182.04 20.09Q182.04 22.01 181.58 23.38Q181.13 24.74 180.36 25.62Q179.59 26.50 178.58 26.92Q177.58 27.34 176.47 27.34L176.47 27.34Q175.27 27.34 174.25 26.93Q173.23 26.52 172.48 25.64Q171.72 24.77 171.30 23.39Q170.88 22.01 170.88 20.09L170.88 20.09Q170.88 18.24 171.34 16.88Q171.79 15.53 172.57 14.63Q173.35 13.73 174.36 13.28Q175.37 12.84 176.50 12.84ZM173.28 20.09L173.28 20.09Q173.28 21.74 173.54 22.81Q173.81 23.88 174.25 24.49Q174.70 25.10 175.28 25.34Q175.87 25.58 176.50 25.58L176.50 25.58Q177.12 25.58 177.70 25.33Q178.27 25.08 178.70 24.44Q179.14 23.81 179.40 22.75Q179.66 21.70 179.66 20.09L179.66 20.09Q179.66 18.43 179.40 17.36Q179.14 16.30 178.69 15.68Q178.25 15.07 177.67 14.83Q177.10 14.59 176.47 14.59L176.47 14.59Q175.85 14.59 175.27 14.84Q174.70 15.10 174.25 15.73Q173.81 16.37 173.54 17.42Q173.28 18.48 173.28 20.09ZM192.38 19.01L192.38 27.12L189.91 27.12L189.91 15.79L191.86 15.79L192.19 17.30Q193.03 16.49 193.96 16.04Q194.88 15.60 196.06 15.60L196.06 15.60Q197.86 15.60 198.84 16.58Q199.82 17.57 199.82 19.39L199.82 19.39L199.82 27.12L197.35 27.12L197.35 19.70Q197.35 18.72 196.85 18.14Q196.34 17.57 195.34 17.57L195.34 17.57Q194.57 17.57 193.81 17.94Q193.06 18.31 192.38 19.01L192.38 19.01ZM213.58 21.34L213.58 21.34Q213.58 22.75 213.13 23.88Q212.69 25.01 211.92 25.78Q211.15 26.54 210.12 26.95Q209.09 27.36 207.89 27.36L207.89 27.36Q206.69 27.36 205.67 26.98Q204.65 26.59 203.89 25.86Q203.14 25.13 202.72 24.05Q202.30 22.97 202.30 21.58L202.30 21.58Q202.30 20.14 202.74 19.03Q203.18 17.93 203.95 17.16Q204.72 16.39 205.75 16.00Q206.78 15.60 207.98 15.60L207.98 15.60Q209.18 15.60 210.20 15.97Q211.22 16.34 211.98 17.06Q212.74 17.78 213.16 18.86Q213.58 19.94 213.58 21.34ZM211.01 21.46L211.01 21.46Q211.01 20.38 210.74 19.62Q210.48 18.86 210.05 18.38Q209.62 17.90 209.06 17.69Q208.51 17.47 207.91 17.47L207.91 17.47Q207.34 17.47 206.78 17.66Q206.23 17.86 205.80 18.31Q205.37 18.77 205.12 19.54Q204.86 20.30 204.86 21.46L204.86 21.46Q204.86 22.51 205.13 23.28Q205.39 24.05 205.82 24.54Q206.26 25.03 206.82 25.26Q207.38 25.49 207.96 25.49L207.96 25.49Q208.54 25.49 209.09 25.30Q209.64 25.10 210.07 24.64Q210.50 24.17 210.76 23.39Q211.01 22.61 211.01 21.46ZM218.47 27.12L216.02 27.12L216.02 15.79L217.90 15.79L218.26 17.98Q218.66 16.97 219.58 16.28Q220.49 15.60 221.78 15.60L221.78 15.60Q222.36 15.60 222.78 15.70Q223.20 15.79 223.54 15.96L223.54 15.96L223.08 18.02Q222.79 17.88 222.42 17.78Q222.05 17.69 221.57 17.69L221.57 17.69Q220.25 17.69 219.36 18.59Q218.47 19.49 218.47 21.31L218.47 21.31L218.47 27.12ZM227.59 19.01L227.59 27.12L225.12 27.12L225.12 15.79L227.04 15.79L227.38 17.30Q228.17 16.51 229.08 16.06Q229.99 15.60 231.22 15.60L231.22 15.60Q232.44 15.60 233.22 16.08Q234.00 16.56 234.41 17.42L234.41 17.42Q235.22 16.56 236.22 16.08Q237.22 15.60 238.42 15.60L238.42 15.60Q240.19 15.60 241.09 16.57Q241.99 17.54 241.99 19.32L241.99 19.32L241.99 27.12L239.52 27.12L239.52 19.70Q239.52 18.67 239.08 18.12Q238.63 17.57 237.62 17.57L237.62 17.57Q236.09 17.57 234.79 18.94L234.79 18.94L234.79 27.12L232.32 27.12L232.32 19.70Q232.32 18.67 231.88 18.12Q231.43 17.57 230.42 17.57L230.42 17.57Q228.89 17.57 227.59 19.01L227.59 19.01ZM246.19 18.53L245.28 16.80Q246.38 16.20 247.40 15.90Q248.42 15.60 249.67 15.60L249.67 15.60Q250.63 15.60 251.44 15.82Q252.24 16.03 252.82 16.51Q253.39 16.99 253.72 17.80Q254.04 18.60 254.04 19.75L254.04 19.75L254.04 27.12L252.05 27.12L251.78 25.90L251.71 25.90Q251.04 26.66 250.15 27.01Q249.26 27.36 248.18 27.36L248.18 27.36Q246.48 27.36 245.44 26.45Q244.39 25.54 244.39 24.02L244.39 24.02Q244.39 23.09 244.78 22.40Q245.16 21.72 245.86 21.26Q246.55 20.81 247.51 20.58Q248.47 20.35 249.62 20.35L249.62 20.35L251.54 20.35L251.54 19.49Q251.54 18.41 250.97 17.99Q250.39 17.57 249.38 17.57L249.38 17.57Q248.76 17.57 247.98 17.77Q247.20 17.98 246.19 18.53L246.19 18.53ZM251.57 24.12L251.57 21.98L250.06 22.01Q248.35 22.06 247.66 22.61Q246.96 23.16 246.96 23.90L246.96 23.90Q246.96 24.38 247.12 24.70Q247.27 25.01 247.54 25.20Q247.80 25.39 248.15 25.48Q248.50 25.56 248.86 25.56L248.86 25.56Q249.60 25.56 250.33 25.19Q251.06 24.82 251.57 24.12L251.57 24.12ZM259.78 27.12L257.35 27.12L257.35 10.06L259.78 10.06L259.78 27.12Z"/></svg>