<svg xmlns="http://www.w3.org/2000/svg" xmlns:xlink="http://www.w3.org/1999/xlink" width="294.252" height="29.568"><path fill="black" d="M0.77 21.07L0.77 21.07Q0.82 20.54 1.12 20.02Q1.43 19.50 1.80 19.20L1.80 19.20Q2.84 19.90 4.12 20.36Q5.39 20.83 6.62 20.83L6.62 20.83Q8.11 20.83 8.95 20.18Q9.79 19.54 9.79 18.50L9.79 18.50Q9.79 17.60 9.20 16.94Q8.60 16.27 7.54 15.83L7.54 15.83L4.64 14.62Q3.13 13.97 2.24 12.98Q1.36 11.99 1.36 10.46L1.36 10.46Q1.36 9.18 2.03 8.13Q2.70 7.08 3.91 6.47Q5.12 5.86 6.73 5.86L6.73 5.86Q8.21 5.86 9.52 6.23Q10.82 6.61 11.76 7.08L11.76 7.08Q11.75 7.60 11.50 8.12Q11.26 8.65 10.87 8.99L10.87 8.99Q9.92 8.52 8.81 8.19Q7.70 7.86 6.78 7.86L6.78 7.86Q5.42 7.86 4.62 8.53Q3.82 9.20 3.82 10.20L3.82 10.20Q3.82 11.03 4.40 11.54Q4.98 12.06 5.88 12.44L5.88 12.44L8.74 13.63Q9.74 14.05 10.55 14.68Q11.36 15.30 11.84 16.15Q12.32 17.00 12.32 18.10L12.32 18.10Q12.32 19.46 11.69 20.54Q11.05 21.62 9.76 22.25Q8.46 22.87 6.48 22.87L6.48 22.87Q4.99 22.87 3.47 22.39Q1.96 21.90 0.77 21.07ZM17.89 12.70L17.89 22.56Q17.40 22.66 16.73 22.66L16.73 22.66Q16.06 22.66 15.55 22.56L15.55 22.56L15.55 13.68Q15.55 13.03 15.33 12.74Q15.11 12.44 14.52 12.44L14.52 12.44L14.26 12.44Q14.16 12.04 14.16 11.62L14.16 11.62Q14.16 11.40 14.18 11.19Q14.21 10.98 14.26 10.75L14.26 10.75Q14.70 10.69 15.08 10.67Q15.47 10.64 15.72 10.64L15.72 10.64L16.02 10.64Q16.90 10.64 17.39 11.20Q17.89 11.75 17.89 12.70L17.89 12.70ZM14.81 7.54L14.81 7.54Q14.81 6.95 15.02 6.50L15.02 6.50Q15.24 6.38 15.60 6.30Q15.96 6.22 16.30 6.22L16.30 6.22Q16.61 6.22 17.00 6.30Q17.39 6.38 17.57 6.50L17.57 6.50Q17.66 6.71 17.72 7.00Q17.78 7.30 17.78 7.54L17.78 7.54Q17.78 8.14 17.57 8.58L17.57 8.58Q17.40 8.70 17.00 8.78Q16.61 8.87 16.30 8.87L16.30 8.87Q15.96 8.87 15.59 8.78Q15.23 8.70 15.02 8.58L15.02 8.58Q14.81 8.14 14.81 7.54ZM31.21 11.76L31.21 11.76Q30.82 12.12 30.68 12.75Q30.54 13.38 30.54 14.09L30.54 14.09L30.54 21.28Q30.54 22.63 30.41 23.57Q30.29 24.50 30.04 25.15Q29.78 25.80 29.41 26.27L29.41 26.27Q28.85 26.96 27.85 27.41Q26.84 27.85 25.50 27.85L25.50 27.85Q24.40 27.85 23.29 27.61Q22.19 27.37 21.37 27.04L21.37 27.04Q21.38 26.59 21.56 26.08Q21.73 25.57 22.00 25.26L22.00 25.26Q22.75 25.62 23.66 25.82Q24.58 26.02 25.27 26.02L25.27 26.02Q26.52 26.02 27.17 25.55Q27.82 25.08 28.04 24.30Q28.27 23.52 28.27 22.58L28.27 22.58L28.27 13.67Q28.27 12.55 28.72 11.68Q29.17 10.80 30.30 10.55L30.30 10.55Q30.60 10.73 30.86 11.08Q31.13 11.44 31.21 11.76ZM20.87 16.67L20.87 16.67Q20.87 14.53 21.54 13.15Q22.21 11.76 23.26 11.09Q24.31 10.42 25.43 10.42L25.43 10.42Q26.46 10.42 27.22 10.72Q27.98 11.03 28.54 11.50Q29.10 11.98 29.52 12.48L29.52 12.48L29.21 14.50Q28.58 13.55 27.65 12.93Q26.72 12.31 25.79 12.31L25.79 12.31Q25.08 12.31 24.50 12.78Q23.93 13.25 23.59 14.21Q23.26 15.18 23.26 16.68L23.26 16.68Q23.26 18.86 23.91 19.83Q24.56 20.80 25.48 20.80L25.48 20.80Q26.46 20.80 27.37 20.15Q28.27 19.51 28.78 18.54L28.78 18.54L29.12 20.38Q28.80 20.92 28.21 21.46Q27.61 22.01 26.80 22.39Q25.99 22.76 25.02 22.76L25.02 22.76Q23.64 22.76 22.72 22.00Q21.79 21.24 21.33 19.87Q20.87 18.49 20.87 16.67ZM34.51 10.62L35.39 10.62Q36.13 10.62 36.41 11.06Q36.70 11.50 36.70 12.29L36.70 12.29L36.70 22.56Q36.22 22.66 35.54 22.66L35.54 22.66Q34.86 22.66 34.36 22.56L34.36 22.56L34.36 10.78L34.51 10.62ZM43.73 14.41L43.73 20.08Q43.73 20.70 43.81 21.25Q43.88 21.80 44.10 22.21L44.10 22.21Q43.84 22.43 43.44 22.57Q43.04 22.72 42.62 22.72L42.62 22.72Q41.94 22.72 41.66 22.34Q41.38 21.96 41.38 21.22L41.38 21.22L41.38 15.00Q41.38 13.75 41.06 13.19Q40.75 12.64 39.84 12.64L39.84 12.64Q39.20 12.64 38.48 12.93Q37.76 13.22 37.13 13.76Q36.49 14.30 36.10 15.01L36.10 15.01L36.10 12.73Q36.90 11.80 38.08 11.15Q39.26 10.51 40.56 10.51L40.56 10.51Q41.69 10.51 42.38 11.03Q43.08 11.56 43.40 12.44Q43.73 13.32 43.73 14.41L43.73 14.41ZM50.09 12.70L50.09 22.56Q49.60 22.66 48.92 22.66L48.92 22.66Q48.25 22.66 47.75 22.56L47.75 22.56L47.75 13.68Q47.75 13.03 47.53 12.74Q47.30 12.44 46.72 12.44L46.72 12.44L46.45 12.44Q46.36 12.04 46.36 11.62L46.36 11.62Q46.36 11.40 46.38 11.19Q46.40 10.98 46.45 10.75L46.45 10.75Q46.90 10.69 47.28 10.67Q47.66 10.64 47.92 10.64L47.92 10.64L48.22 10.64Q49.09 10.64 49.59 11.20Q50.09 11.75 50.09 12.70L50.09 12.70ZM47.00 7.54L47.00 7.54Q47.00 6.95 47.22 6.50L47.22 6.50Q47.44 6.38 47.80 6.30Q48.16 6.22 48.49 6.22L48.49 6.22Q48.80 6.22 49.19 6.30Q49.58 6.38 49.76 6.50L49.76 6.50Q49.86 6.71 49.92 7.00Q49.98 7.30 49.98 7.54L49.98 7.54Q49.98 8.14 49.76 8.58L49.76 8.58Q49.60 8.70 49.20 8.78Q48.80 8.87 48.49 8.87L48.49 8.87Q48.16 8.87 47.79 8.78Q47.42 8.70 47.22 8.58L47.22 8.58Q47.00 8.14 47.00 7.54ZM56.18 6.43L56.18 22.56Q55.70 22.66 55.03 22.66L55.03 22.66Q54.40 22.66 53.89 22.56L53.89 22.56L53.89 5.06L54.05 4.91L54.92 4.91Q55.68 4.91 55.93 5.27Q56.18 5.64 56.18 6.43L56.18 6.43ZM61.54 18.12L62.38 20.14Q62.66 20.86 62.93 21.31Q63.20 21.77 63.53 22.00L63.53 22.00Q63.29 22.28 62.85 22.50Q62.41 22.72 61.97 22.72L61.97 22.72Q61.31 22.72 61.00 22.37Q60.70 22.02 60.43 21.35L60.43 21.35L59.44 18.97Q59.04 18.02 58.61 17.69Q58.19 17.35 57.32 17.35L57.32 17.35Q57 17.35 56.64 17.38Q56.28 17.40 55.85 17.45L55.85 17.45L55.01 17.53L55.01 15.82L58.15 15.82Q59.46 15.82 60.25 16.36Q61.03 16.90 61.54 18.12L61.54 18.12ZM62.76 10.87L60.05 15.08Q59.58 15.88 58.88 16.22Q58.19 16.57 57.22 16.57L57.22 16.57L55.24 16.57L55.24 15.49L57.04 15.41Q57.24 15.41 57.37 15.33Q57.50 15.25 57.61 15.07L57.61 15.07L59.81 11.66Q60.10 11.17 60.43 10.91Q60.77 10.64 61.38 10.64L61.38 10.64Q61.73 10.64 62.01 10.65Q62.29 10.66 62.62 10.68L62.62 10.68L62.76 10.87ZM65.04 19.34L65.04 19.34Q65.04 17.98 65.64 17.10Q66.24 16.22 67.27 15.81Q68.30 15.40 69.61 15.40L69.61 15.40Q70.30 15.40 71.15 15.46Q72.01 15.52 72.73 15.70L72.73 15.70L72.73 17.28Q72.08 17.12 71.27 17.08Q70.45 17.03 69.74 17.03L69.74 17.03Q68.62 17.03 68.00 17.60Q67.38 18.17 67.38 19.18L67.38 19.18Q67.38 19.94 67.81 20.47Q68.23 21 69.05 21L69.05 21Q69.94 21 70.94 20.38Q71.94 19.75 72.61 18.54L72.61 18.54L72.98 20.39Q72.55 20.89 71.92 21.47Q71.28 22.04 70.44 22.46Q69.60 22.87 68.56 22.87L68.56 22.87Q67.37 22.87 66.59 22.34Q65.81 21.82 65.42 21.01Q65.04 20.20 65.04 19.34ZM74.96 21.53L74.96 21.53Q74.87 21.84 74.61 22.20Q74.35 22.56 74.05 22.74L74.05 22.74Q73.32 22.57 72.88 22.16Q72.44 21.76 72.23 21.20Q72.01 20.64 71.98 20.00L71.98 20.00L71.98 14.57Q71.98 13.39 71.45 12.89Q70.92 12.38 69.98 12.38L69.98 12.38Q69.06 12.38 68.09 12.66Q67.13 12.94 66.18 13.32L66.18 13.32Q65.89 13.03 65.69 12.53Q65.50 12.04 65.47 11.58L65.47 11.58Q66.13 11.29 66.97 11.04Q67.80 10.79 68.69 10.63Q69.59 10.48 70.40 10.48L70.40 10.48Q71.59 10.48 72.47 10.91Q73.34 11.35 73.82 12.24Q74.29 13.13 74.29 14.50L74.29 14.50L74.29 19.42Q74.29 20.11 74.42 20.63Q74.54 21.14 74.96 21.53ZM83.60 22.56L83.60 6.19Q83.90 6.13 84.34 6.10Q84.77 6.07 85.04 6.07L85.04 6.07Q85.36 6.07 85.75 6.10Q86.15 6.12 86.50 6.17L86.50 6.17L85.86 9.00L85.67 9.02Q85.72 9.84 85.76 10.84Q85.80 11.84 85.83 12.87Q85.86 13.90 85.86 14.78L85.86 14.78L85.86 22.56Q85.55 22.61 85.26 22.63Q84.97 22.66 84.73 22.66L84.73 22.66Q84.50 22.66 84.20 22.63Q83.90 22.61 83.60 22.56L83.60 22.56ZM92.54 22.56L87.30 12.34Q86.84 11.45 86.47 10.61Q86.09 9.78 85.74 9.01L85.74 9.01L84.61 7.63L86.50 6.17L91.72 16.38Q92.18 17.32 92.59 18.20Q92.99 19.09 93.34 19.84L93.34 19.84L94.54 21.08L92.54 22.56ZM95.32 6.07L95.46 6.20L95.46 22.54Q95.17 22.60 94.76 22.63Q94.36 22.66 94.00 22.66L94.00 22.66Q93.65 22.66 93.27 22.63Q92.89 22.61 92.54 22.56L92.54 22.56L93.22 19.85L93.42 19.82Q93.36 18.88 93.31 17.82Q93.26 16.76 93.25 15.74Q93.23 14.72 93.23 13.90L93.23 13.90L93.23 7.58Q93.23 6.78 93.50 6.43Q93.78 6.07 94.52 6.07L94.52 6.07L95.32 6.07ZM108.31 17.38L100.24 17.38L100.24 15.66L106.21 15.66L106.21 15.35Q106.21 14.48 105.97 13.76Q105.72 13.03 105.17 12.60Q104.63 12.17 103.74 12.17L103.74 12.17Q102.47 12.17 101.83 13.23Q101.20 14.29 101.20 16.13L101.20 16.13L101.20 16.85Q101.20 18.01 101.44 18.94Q101.69 19.87 102.30 20.41Q102.91 20.94 104.03 20.94L104.03 20.94Q104.95 20.94 105.79 20.67Q106.63 20.40 107.40 20.00L107.40 20.00Q107.70 20.28 107.90 20.72Q108.10 21.16 108.14 21.52L108.14 21.52Q107.29 22.13 106.11 22.50Q104.93 22.87 103.68 22.87L103.68 22.87Q102.28 22.87 101.33 22.36Q100.38 21.85 99.82 20.98Q99.25 20.11 99.01 19.00Q98.77 17.88 98.77 16.66L98.77 16.66Q98.77 14.87 99.33 13.46Q99.89 12.05 100.99 11.23Q102.10 10.42 103.74 10.42L103.74 10.42Q105.29 10.42 106.34 11.11Q107.40 11.80 107.94 12.95Q108.48 14.11 108.48 15.54L108.48 15.54Q108.48 16.09 108.44 16.49Q108.41 16.90 108.31 17.38L108.31 17.38ZM121.14 11.76L121.14 11.76Q120.74 12.12 120.61 12.75Q120.47 13.38 120.47 14.09L120.47 14.09L120.47 21.28Q120.47 22.63 120.34 23.57Q120.22 24.50 119.96 25.15Q119.71 25.80 119.34 26.27L119.34 26.27Q118.78 26.96 117.77 27.41Q116.77 27.85 115.43 27.85L115.43 27.85Q114.32 27.85 113.22 27.61Q112.12 27.37 111.30 27.04L111.30 27.04Q111.31 26.59 111.49 26.08Q111.66 25.57 111.92 25.26L111.92 25.26Q112.68 25.62 113.59 25.82Q114.50 26.02 115.20 26.02L115.20 26.02Q116.45 26.02 117.10 25.55Q117.74 25.08 117.97 24.30Q118.20 23.52 118.20 22.58L118.20 22.58L118.20 13.67Q118.20 12.55 118.65 11.68Q119.10 10.80 120.23 10.55L120.23 10.55Q120.53 10.73 120.79 11.08Q121.06 11.44 121.14 11.76ZM110.80 16.67L110.80 16.67Q110.80 14.53 111.47 13.15Q112.14 11.76 113.19 11.09Q114.24 10.42 115.36 10.42L115.36 10.42Q116.39 10.42 117.15 10.72Q117.91 11.03 118.47 11.50Q119.03 11.98 119.45 12.48L119.45 12.48L119.14 14.50Q118.51 13.55 117.58 12.93Q116.65 12.31 115.72 12.31L115.72 12.31Q115.01 12.31 114.43 12.78Q113.86 13.25 113.52 14.21Q113.18 15.18 113.18 16.68L113.18 16.68Q113.18 18.86 113.84 19.83Q114.49 20.80 115.40 20.80L115.40 20.80Q116.39 20.80 117.29 20.15Q118.20 19.51 118.70 18.54L118.70 18.54L119.05 20.38Q118.73 20.92 118.13 21.46Q117.54 22.01 116.73 22.39Q115.92 22.76 114.95 22.76L114.95 22.76Q113.57 22.76 112.64 22.00Q111.72 21.24 111.26 19.87Q110.80 18.49 110.80 16.67ZM123.44 19.34L123.44 19.34Q123.44 17.98 124.04 17.10Q124.64 16.22 125.68 15.81Q126.71 15.40 128.02 15.40L128.02 15.40Q128.70 15.40 129.56 15.46Q130.42 15.52 131.14 15.70L131.14 15.70L131.14 17.28Q130.49 17.12 129.67 17.08Q128.86 17.03 128.15 17.03L128.15 17.03Q127.02 17.03 126.40 17.60Q125.78 18.17 125.78 19.18L125.78 19.18Q125.78 19.94 126.21 20.47Q126.64 21 127.45 21L127.45 21Q128.34 21 129.34 20.38Q130.34 19.75 131.02 18.54L131.02 18.54L131.39 20.39Q130.96 20.89 130.32 21.47Q129.68 22.04 128.84 22.46Q128.00 22.87 126.96 22.87L126.96 22.87Q125.77 22.87 124.99 22.34Q124.21 21.82 123.83 21.01Q123.44 20.20 123.44 19.34ZM133.37 21.53L133.37 21.53Q133.27 21.84 133.01 22.20Q132.76 22.56 132.46 22.74L132.46 22.74Q131.72 22.57 131.29 22.16Q130.85 21.76 130.63 21.20Q130.42 20.64 130.38 20.00L130.38 20.00L130.38 14.57Q130.38 13.39 129.85 12.89Q129.32 12.38 128.39 12.38L128.39 12.38Q127.46 12.38 126.50 12.66Q125.53 12.94 124.58 13.32L124.58 13.32Q124.30 13.03 124.10 12.53Q123.90 12.04 123.88 11.58L123.88 11.58Q124.54 11.29 125.37 11.04Q126.20 10.79 127.10 10.63Q127.99 10.48 128.81 10.48L128.81 10.48Q130.00 10.48 130.87 10.91Q131.75 11.35 132.22 12.24Q132.70 13.13 132.70 14.50L132.70 14.50L132.70 19.42Q132.70 20.11 132.82 20.63Q132.95 21.14 133.37 21.53ZM136.88 20.28L136.88 8.56Q136.88 7.76 137.14 7.40Q137.40 7.04 138.14 7.04L138.14 7.04L139.02 7.04L139.18 7.20L139.18 19.76Q139.18 20.23 139.40 20.51Q139.62 20.80 140.15 20.80L140.15 20.80L141.84 20.80Q142.03 21.32 142.03 21.98L142.03 21.98Q142.03 22.12 142.03 22.25Q142.02 22.38 141.98 22.49L141.98 22.49Q141.40 22.57 140.73 22.62Q140.06 22.67 139.36 22.67L139.36 22.67Q138.17 22.67 137.53 22.07Q136.88 21.47 136.88 20.28L136.88 20.28ZM138.30 10.76L142.15 10.70Q142.26 11.16 142.26 11.57L142.26 11.57Q142.26 12.02 142.15 12.44L142.15 12.44L138.29 12.40L135.13 12.44Q135.04 12.02 135.04 11.57L135.04 11.57Q135.04 11.16 135.13 10.70L135.13 10.70L138.30 10.76ZM147.43 12.70L147.43 22.56Q146.94 22.66 146.27 22.66L146.27 22.66Q145.60 22.66 145.09 22.56L145.09 22.56L145.09 13.68Q145.09 13.03 144.87 12.74Q144.65 12.44 144.06 12.44L144.06 12.44L143.80 12.44Q143.70 12.04 143.70 11.62L143.70 11.62Q143.70 11.40 143.72 11.19Q143.75 10.98 143.80 10.75L143.80 10.75Q144.24 10.69 144.62 10.67Q145.01 10.64 145.26 10.64L145.26 10.64L145.56 10.64Q146.44 10.64 146.93 11.20Q147.43 11.75 147.43 12.70L147.43 12.70ZM144.35 7.54L144.35 7.54Q144.35 6.95 144.56 6.50L144.56 6.50Q144.78 6.38 145.14 6.30Q145.50 6.22 145.84 6.22L145.84 6.22Q146.15 6.22 146.54 6.30Q146.93 6.38 147.11 6.50L147.11 6.50Q147.20 6.71 147.26 7.00Q147.32 7.30 147.32 7.54L147.32 7.54Q147.32 8.14 147.11 8.58L147.11 8.58Q146.94 8.70 146.54 8.78Q146.15 8.87 145.84 8.87L145.84 8.87Q145.50 8.87 145.13 8.78Q144.77 8.70 144.56 8.58L144.56 8.58Q144.35 8.14 144.35 7.54ZM154.96 20.64L157.85 10.72Q158.10 10.66 158.32 10.64Q158.54 10.62 158.75 10.62L158.75 10.62Q159.06 10.62 159.36 10.66Q159.66 10.70 159.94 10.80L159.94 10.80L160.00 10.91Q159.58 12.29 159.07 13.91Q158.56 15.53 158.03 17.14Q157.51 18.76 157.05 20.17Q156.59 21.58 156.25 22.56L156.25 22.56Q155.87 22.63 155.42 22.66Q154.98 22.69 154.56 22.69L154.56 22.69Q153.86 22.69 153.49 22.45Q153.12 22.21 152.86 21.35L152.86 21.35L149.47 10.91Q149.88 10.72 150.22 10.63Q150.55 10.55 150.84 10.55L150.84 10.55Q151.33 10.55 151.64 10.76Q151.96 10.98 152.10 11.54L152.10 11.54L153.77 16.90Q153.96 17.51 154.15 18.19Q154.33 18.88 154.49 19.48Q154.64 20.08 154.73 20.45L154.73 20.45Q154.78 20.64 154.96 20.64L154.96 20.64ZM170.82 17.38L162.74 17.38L162.74 15.66L168.72 15.66L168.72 15.35Q168.72 14.48 168.47 13.76Q168.23 13.03 167.68 12.60Q167.14 12.17 166.25 12.17L166.25 12.17Q164.98 12.17 164.34 13.23Q163.70 14.29 163.70 16.13L163.70 16.13L163.70 16.85Q163.70 18.01 163.95 18.94Q164.20 19.87 164.81 20.41Q165.42 20.94 166.54 20.94L166.54 20.94Q167.46 20.94 168.30 20.67Q169.14 20.40 169.91 20.00L169.91 20.00Q170.21 20.28 170.41 20.72Q170.60 21.16 170.65 21.52L170.65 21.52Q169.80 22.13 168.62 22.50Q167.44 22.87 166.19 22.87L166.19 22.87Q164.78 22.87 163.84 22.36Q162.89 21.85 162.32 20.98Q161.76 20.11 161.52 19.00Q161.28 17.88 161.28 16.66L161.28 16.66Q161.28 14.87 161.84 13.46Q162.40 12.05 163.50 11.23Q164.60 10.42 166.25 10.42L166.25 10.42Q167.80 10.42 168.85 11.11Q169.91 11.80 170.45 12.95Q170.99 14.11 170.99 15.54L170.99 15.54Q170.99 16.09 170.95 16.49Q170.92 16.90 170.82 17.38L170.82 17.38ZM183.55 19.20L179.11 19.20Q178.87 18.84 178.73 18.47Q178.58 18.11 178.58 17.77L178.58 17.77Q178.58 17.51 178.72 17.13Q178.86 16.75 179.06 16.30L179.06 16.30L183.18 7.22Q183.52 7.15 183.94 7.19Q184.37 7.22 184.76 7.34Q185.16 7.46 185.39 7.66L185.39 7.66L182.47 13.98Q182.27 14.45 181.99 15.06Q181.70 15.67 181.42 16.25Q181.13 16.82 180.89 17.22L180.89 17.22L180.95 17.30Q181.40 17.27 181.93 17.25Q182.46 17.23 182.92 17.23Q183.38 17.22 183.65 17.22L183.65 17.22L187.02 17.22Q187.30 17.22 187.56 17.21Q187.82 17.20 188.10 17.20L188.10 17.20L189.44 17.20Q189.48 17.44 189.49 17.66Q189.50 17.89 189.50 18.10L189.50 18.10Q189.50 18.32 189.47 18.62Q189.44 18.91 189.35 19.19L189.35 19.19L188.10 19.19Q187.82 19.19 187.56 19.18Q187.30 19.18 187.02 19.18L187.02 19.18L184.78 19.18Q184.50 19.18 184.16 19.19Q183.83 19.20 183.55 19.20L183.55 19.20ZM184.75 22.56L184.75 20.40Q184.75 20.12 184.76 19.79Q184.78 19.45 184.78 19.18L184.78 19.18L184.78 17.41Q184.78 17.26 184.76 16.91Q184.75 16.57 184.75 16.40L184.75 16.40L184.75 14.41Q184.75 13.56 185.17 13.09Q185.59 12.62 186.29 12.62L186.29 12.62L186.95 12.62L187.04 12.72L187.04 15.98Q187.04 16.26 187.03 16.60Q187.02 16.94 187.02 17.22L187.02 17.22L187.02 19.18Q187.02 19.45 187.03 19.79Q187.04 20.12 187.04 20.40L187.04 20.40L187.04 22.56Q186.77 22.61 186.48 22.63Q186.19 22.66 185.89 22.66L185.89 22.66Q185.60 22.66 185.32 22.63Q185.03 22.61 184.75 22.56L184.75 22.56ZM191.71 14.96L191.71 14.96Q191.71 12.73 192.05 11.14Q192.38 9.54 193.48 8.40L193.48 8.40Q194.09 7.79 194.90 7.42Q195.72 7.06 196.94 7.06L196.94 7.06Q198.18 7.06 198.97 7.42Q199.76 7.79 200.39 8.40L200.39 8.40Q201.48 9.54 201.82 11.14Q202.15 12.73 202.15 14.96L202.15 14.96Q202.15 17.20 201.82 18.79Q201.48 20.39 200.39 21.53L200.39 21.53Q199.76 22.14 198.96 22.51Q198.16 22.87 196.93 22.87L196.93 22.87Q195.72 22.87 194.92 22.51Q194.11 22.14 193.48 21.53L193.48 21.53Q192.38 20.39 192.05 18.79Q191.71 17.20 191.71 14.96ZM194.20 14.96L194.20 14.96Q194.20 17.02 194.41 18.26Q194.63 19.50 195.16 20.17L195.16 20.17Q195.47 20.58 195.91 20.79Q196.36 21 196.93 21L196.93 21Q197.52 21 197.96 20.80Q198.41 20.59 198.71 20.17L198.71 20.17Q199.24 19.50 199.45 18.26Q199.67 17.02 199.67 14.96L199.67 14.96Q199.67 12.90 199.45 11.66Q199.24 10.42 198.71 9.76L198.71 9.76Q198.40 9.35 197.96 9.14Q197.52 8.93 196.93 8.93L196.93 8.93Q196.36 8.93 195.91 9.14Q195.47 9.35 195.16 9.76L195.16 9.76Q194.63 10.42 194.41 11.66Q194.20 12.90 194.20 14.96ZM204.67 14.96L204.67 14.96Q204.67 12.73 205.01 11.14Q205.34 9.54 206.44 8.40L206.44 8.40Q207.05 7.79 207.86 7.42Q208.68 7.06 209.90 7.06L209.90 7.06Q211.14 7.06 211.93 7.42Q212.72 7.79 213.35 8.40L213.35 8.40Q214.44 9.54 214.78 11.14Q215.11 12.73 215.11 14.96L215.11 14.96Q215.11 17.20 214.78 18.79Q214.44 20.39 213.35 21.53L213.35 21.53Q212.72 22.14 211.92 22.51Q211.12 22.87 209.89 22.87L209.89 22.87Q208.68 22.87 207.88 22.51Q207.07 22.14 206.44 21.53L206.44 21.53Q205.34 20.39 205.01 18.79Q204.67 17.20 204.67 14.96ZM207.16 14.96L207.16 14.96Q207.16 17.02 207.37 18.26Q207.59 19.50 208.12 20.17L208.12 20.17Q208.43 20.58 208.87 20.79Q209.32 21 209.89 21L209.89 21Q210.48 21 210.92 20.80Q211.37 20.59 211.67 20.17L211.67 20.17Q212.20 19.50 212.41 18.26Q212.63 17.02 212.63 14.96L212.63 14.96Q212.63 12.90 212.41 11.66Q212.20 10.42 211.67 9.76L211.67 9.76Q211.36 9.35 210.92 9.14Q210.48 8.93 209.89 8.93L209.89 8.93Q209.32 8.93 208.87 9.14Q208.43 9.35 208.12 9.76L208.12 9.76Q207.59 10.42 207.37 11.66Q207.16 12.90 207.16 14.96ZM223.73 10.62L224.60 10.62Q225.35 10.62 225.63 11.06Q225.91 11.50 225.91 12.29L225.91 12.29L225.91 22.56Q225.43 22.66 224.76 22.66L224.76 22.66Q224.08 22.66 223.57 22.56L223.57 22.56L223.57 10.78L223.73 10.62ZM232.94 14.41L232.94 20.08Q232.94 20.70 233.02 21.25Q233.10 21.80 233.32 22.21L233.32 22.21Q233.05 22.43 232.66 22.57Q232.26 22.72 231.84 22.72L231.84 22.72Q231.16 22.72 230.87 22.34Q230.59 21.96 230.59 21.22L230.59 21.22L230.59 15.00Q230.59 13.75 230.28 13.19Q229.97 12.64 229.06 12.64L229.06 12.64Q228.42 12.64 227.70 12.93Q226.98 13.22 226.34 13.76Q225.71 14.30 225.31 15.01L225.31 15.01L225.31 12.73Q226.12 11.80 227.30 11.15Q228.48 10.51 229.78 10.51L229.78 10.51Q230.90 10.51 231.60 11.03Q232.30 11.56 232.62 12.44Q232.94 13.32 232.94 14.41L232.94 14.41ZM246.13 16.64L246.13 16.64Q246.13 18.47 245.55 19.87Q244.97 21.28 243.82 22.07Q242.68 22.87 240.97 22.87L240.97 22.87Q239.27 22.87 238.13 22.07Q236.99 21.26 236.41 19.85Q235.84 18.44 235.84 16.64L235.84 16.64Q235.84 14.82 236.42 13.42Q237.00 12.01 238.15 11.21Q239.29 10.42 240.97 10.42L240.97 10.42Q242.69 10.42 243.83 11.22Q244.98 12.02 245.56 13.43Q246.13 14.83 246.13 16.64ZM238.26 16.64L238.26 16.64Q238.26 17.77 238.50 18.79Q238.74 19.80 239.33 20.43Q239.93 21.06 241.00 21.06L241.00 21.06Q242.05 21.06 242.64 20.43Q243.23 19.80 243.47 18.79Q243.71 17.77 243.71 16.64L243.71 16.64Q243.71 15.52 243.47 14.50Q243.23 13.49 242.64 12.85Q242.05 12.20 241.00 12.20L241.00 12.20Q239.93 12.20 239.33 12.85Q238.74 13.49 238.50 14.50Q238.26 15.52 238.26 16.64ZM255.85 10.69L255.85 10.69Q255.85 11.17 255.72 11.80Q255.59 12.43 255.29 12.90L255.29 12.90Q255.06 12.85 254.82 12.83Q254.58 12.82 254.34 12.80L254.34 12.80Q253.63 12.80 253.11 13.10Q252.59 13.39 252.23 13.86Q251.87 14.33 251.62 14.87Q251.38 15.41 251.22 15.91L251.22 15.91L250.87 15.47Q250.90 14.64 251.10 13.78Q251.30 12.91 251.74 12.18Q252.18 11.45 252.88 11.00Q253.58 10.56 254.62 10.56L254.62 10.56Q254.92 10.56 255.22 10.59Q255.52 10.62 255.85 10.69ZM248.47 11.81L248.47 11.81Q248.56 11.48 248.81 11.11Q249.07 10.74 249.35 10.55L249.35 10.55Q250.50 10.82 251.06 11.75Q251.62 12.68 251.70 14.08L251.70 14.08L251.70 22.56Q251.21 22.66 250.54 22.66L250.54 22.66Q249.85 22.66 249.36 22.56L249.36 22.56L249.36 14.28Q249.36 13.33 249.08 12.71Q248.80 12.10 248.47 11.81ZM258.07 10.62L258.95 10.62Q259.68 10.62 259.97 11.06Q260.26 11.50 260.26 12.29L260.26 12.29L260.26 22.56Q259.78 22.66 259.10 22.66L259.10 22.66Q258.42 22.66 257.92 22.56L257.92 22.56L257.92 10.79L258.07 10.62ZM264.42 22.56L264.42 15.01Q264.42 13.72 264.07 13.18Q263.71 12.64 262.96 12.64L262.96 12.64Q262.36 12.64 261.67 13.01Q260.99 13.38 260.39 14.02Q259.79 14.65 259.45 15.43L259.45 15.43L259.45 13.10Q259.97 12.35 260.65 11.77Q261.32 11.18 262.10 10.85Q262.87 10.51 263.68 10.51L263.68 10.51Q264.72 10.51 265.41 11.01Q266.10 11.51 266.44 12.35Q266.77 13.20 266.77 14.23L266.77 14.23L266.77 22.56Q266.28 22.66 265.61 22.66L265.61 22.66Q264.92 22.66 264.42 22.56L264.42 22.56ZM270.95 21.22L270.95 14.99Q270.95 13.69 270.58 13.16Q270.22 12.64 269.47 12.64L269.47 12.64Q268.88 12.64 268.21 12.99Q267.54 13.34 266.93 13.99Q266.32 14.63 265.91 15.48L265.91 15.48L265.91 12.79Q266.50 12.14 267.20 11.63Q267.90 11.11 268.67 10.81Q269.44 10.51 270.23 10.51L270.23 10.51Q271.27 10.51 271.95 11.02Q272.63 11.52 272.96 12.37Q273.30 13.21 273.30 14.26L273.30 14.26L273.30 20.08Q273.30 20.70 273.38 21.25Q273.46 21.80 273.67 22.21L273.67 22.21Q273.41 22.43 273.01 22.57Q272.62 22.72 272.20 22.72L272.20 22.72Q271.51 22.72 271.23 22.34Q270.95 21.96 270.95 21.22L270.95 21.22ZM276.18 19.34L276.18 19.34Q276.18 17.98 276.78 17.10Q277.38 16.22 278.41 15.81Q279.44 15.40 280.75 15.40L280.75 15.40Q281.44 15.40 282.29 15.46Q283.15 15.52 283.87 15.70L283.87 15.70L283.87 17.28Q283.22 17.12 282.41 17.08Q281.59 17.03 280.88 17.03L280.88 17.03Q279.76 17.03 279.14 17.60Q278.52 18.17 278.52 19.18L278.52 19.18Q278.52 19.94 278.95 20.47Q279.37 21 280.19 21L280.19 21Q281.08 21 282.08 20.38Q283.08 19.75 283.75 18.54L283.75 18.54L284.12 20.39Q283.69 20.89 283.06 21.47Q282.42 22.04 281.58 22.46Q280.74 22.87 279.70 22.87L279.70 22.87Q278.51 22.87 277.73 22.34Q276.95 21.82 276.56 21.01Q276.18 20.20 276.18 19.34ZM286.10 21.53L286.10 21.53Q286.01 21.84 285.75 22.20Q285.49 22.56 285.19 22.74L285.19 22.74Q284.46 22.57 284.02 22.16Q283.58 21.76 283.37 21.20Q283.15 20.64 283.12 20.00L283.12 20.00L283.12 14.57Q283.12 13.39 282.59 12.89Q282.06 12.38 281.12 12.38L281.12 12.38Q280.20 12.38 279.23 12.66Q278.27 12.94 277.32 13.32L277.32 13.32Q277.03 13.03 276.83 12.53Q276.64 12.04 276.61 11.58L276.61 11.58Q277.27 11.29 278.11 11.04Q278.94 10.79 279.83 10.63Q280.73 10.48 281.54 10.48L281.54 10.48Q282.73 10.48 283.61 10.91Q284.48 11.35 284.96 12.24Q285.43 13.13 285.43 14.50L285.43 14.50L285.43 19.42Q285.43 20.11 285.56 20.63Q285.68 21.14 286.10 21.53ZM292.37 20.80L293.28 20.80Q293.47 21.31 293.47 21.98L293.47 21.98Q293.47 22.12 293.47 22.25Q293.46 22.38 293.42 22.49L293.42 22.49Q293.03 22.55 292.46 22.61Q291.90 22.67 291.44 22.67L291.44 22.67Q290.33 22.67 289.73 22.07Q289.14 21.47 289.14 20.28L289.14 20.28L289.14 5.06L289.28 4.91L290.17 4.91Q290.92 4.91 291.17 5.27Q291.43 5.64 291.43 6.43L291.43 6.43L291.43 19.74Q291.43 20.27 291.67 20.53Q291.90 20.80 292.37 20.80L292.37 20.80Z"/></svg>