<svg xmlns="http://www.w3.org/2000/svg" xmlns:xlink="http://www.w3.org/1999/xlink" width="344.2265625" height="33.10546875"><path fill="black" d="M2.58 22.69L2.58 22.69Q2.58 20.91 3.09 19.17Q3.61 17.43 4.01 15.73L4.01 15.73Q4.28 14.54 4.48 13.35Q4.68 12.16 4.68 10.96L4.68 10.96Q4.68 10.03 4.47 9.11Q4.27 8.18 3.70 7.43L3.70 7.43Q4.10 7.23 4.62 7.04Q5.13 6.86 5.57 6.86L5.57 6.86Q6.56 6.86 6.91 7.51Q7.25 8.16 7.25 9.01L7.25 9.01Q7.25 10.68 6.79 12.38Q6.32 14.09 5.98 15.73L5.98 15.73Q5.98 15.74 5.97 15.75Q5.96 15.76 5.96 15.77L5.96 15.77Q5.66 17.23 5.32 18.70Q4.98 20.18 4.98 21.68L4.98 21.68Q4.98 22.11 5.00 22.46L5.00 22.46Q6.46 22.52 7.90 22.54Q9.35 22.56 10.80 22.56L10.80 22.56Q11.19 22.56 11.81 22.56Q12.42 22.56 13.10 22.54Q13.78 22.51 14.37 22.45Q14.96 22.39 15.29 22.29L15.29 22.29Q15.18 23.46 14.65 23.99Q14.13 24.53 13.32 24.67Q12.52 24.81 11.53 24.81L11.53 24.81Q10.18 24.81 8.83 24.69Q7.48 24.57 6.12 24.43L6.12 24.43Q5.96 24.41 5.79 24.39Q5.61 24.36 5.48 24.34L5.48 24.34Q4.88 24.76 4.21 24.76L4.21 24.76Q3.25 24.76 2.91 24.14Q2.58 23.52 2.58 22.69ZM20.95 24.91L20.95 24.91Q19.22 24.91 18.45 24.04Q17.68 23.16 17.68 21.49L17.68 21.49Q17.68 20.37 17.91 19.27Q18.14 18.16 18.37 17.06Q18.60 15.96 18.60 14.84L18.60 14.84Q18.60 13.97 18.36 13.21Q18.12 12.45 17.55 11.78L17.55 11.78Q17.96 11.58 18.48 11.38Q19.00 11.19 19.46 11.19L19.46 11.19Q20.30 11.19 20.67 11.62Q21.05 12.05 21.05 12.84L21.05 12.84Q21.05 13.22 20.99 13.59Q20.93 13.97 20.86 14.34L20.86 14.34Q20.58 15.81 20.19 17.44Q19.80 19.08 19.80 20.55L19.80 20.55Q19.80 21.79 20.31 22.17Q20.81 22.56 21.98 22.56L21.98 22.56Q23.00 22.56 23.96 21.96Q24.91 21.36 25.76 20.44Q26.60 19.51 27.27 18.52Q27.94 17.52 28.36 16.71L28.36 16.71Q28.55 16.35 28.80 15.80Q29.06 15.26 29.26 14.70Q29.45 14.13 29.45 13.73L29.45 13.73Q29.45 13.20 29.20 12.69Q28.96 12.18 28.65 11.74L28.65 11.74Q29.05 11.55 29.57 11.37Q30.08 11.19 30.52 11.19L30.52 11.19Q31.38 11.19 31.76 11.65Q32.14 12.11 32.14 12.94L32.14 12.94Q32.14 13.92 31.89 14.92Q31.63 15.93 31.38 16.95Q31.13 17.96 31.13 19.01L31.13 19.01Q31.13 20.34 31.60 21.57Q32.07 22.80 33.04 23.74L33.04 23.74Q32.72 24 32.14 24.37Q31.56 24.74 31.15 24.74L31.15 24.74Q30.23 24.74 29.74 24.16Q29.25 23.58 29.07 22.66Q28.89 21.74 28.90 20.70Q28.92 19.66 29.04 18.73Q29.16 17.80 29.24 17.21L29.24 17.21Q28.78 17.92 28.10 18.91Q27.41 19.90 26.56 20.94Q25.71 21.98 24.77 22.89Q23.82 23.79 22.85 24.35Q21.88 24.91 20.95 24.91ZM37.58 24.74L37.58 24.74Q36.94 24.74 36.64 24.38Q36.34 24.01 36.26 23.48Q36.19 22.96 36.19 22.46L36.19 22.46Q36.19 21.21 36.43 19.99Q36.67 18.76 36.90 17.54Q37.14 16.31 37.14 15.06L37.14 15.06Q37.14 14.19 36.94 13.34Q36.75 12.49 36.23 11.78L36.23 11.78Q36.62 11.54 37.09 11.37Q37.56 11.19 38.02 11.19L38.02 11.19Q38.96 11.19 39.30 11.82Q39.63 12.46 39.63 13.28L39.63 13.28Q39.63 14.48 39.42 15.67Q39.21 16.85 39.02 18.04L39.02 18.04Q39.39 17.46 39.96 16.58Q40.54 15.70 41.25 14.75Q41.96 13.79 42.77 12.95Q43.57 12.11 44.40 11.58Q45.22 11.05 46.01 11.05L46.01 11.05Q47.12 11.05 47.73 11.55Q48.34 12.05 48.59 12.87Q48.83 13.69 48.83 14.65L48.83 14.65Q48.83 15.45 48.82 16.25Q48.81 17.06 48.64 17.85L48.64 17.85Q48.98 17.20 49.52 16.32Q50.05 15.45 50.74 14.53Q51.43 13.61 52.23 12.81Q53.03 12.02 53.89 11.54Q54.75 11.05 55.63 11.05L55.63 11.05Q56.72 11.05 57.30 11.50Q57.88 11.95 58.10 12.72Q58.32 13.49 58.32 14.44L58.32 14.44Q58.32 15.82 58.11 17.18Q57.89 18.54 57.89 19.92L57.89 19.92Q57.89 21.02 58.21 22.01Q58.54 23.00 59.43 23.73L59.43 23.73Q59.09 24 58.52 24.37Q57.95 24.74 57.50 24.74L57.50 24.74Q56.84 24.74 56.44 24.38Q56.04 24.02 55.84 23.47Q55.64 22.91 55.58 22.30Q55.51 21.69 55.51 21.19L55.51 21.19Q55.50 19.80 55.72 18.67Q55.95 17.54 56.17 16.64Q56.40 15.74 56.38 15.05L56.38 15.05Q56.37 14.17 55.77 13.89Q55.17 13.61 54.43 13.61L54.43 13.61Q53.68 13.61 52.96 14.06Q52.23 14.52 51.57 15.26Q50.91 16.01 50.35 16.87Q49.79 17.73 49.37 18.56Q48.95 19.38 48.70 19.99L48.70 19.99Q48.23 21.14 48.22 22.22Q48.21 23.30 48.98 24.41L48.98 24.41Q48.55 24.54 48.10 24.64Q47.65 24.74 47.19 24.74L47.19 24.74Q46.56 24.74 46.27 24.38Q45.97 24.01 45.89 23.48Q45.81 22.96 45.81 22.48L45.81 22.48Q45.81 21.28 46.05 20.10Q46.29 18.93 46.52 17.74Q46.76 16.56 46.76 15.35L46.76 15.35Q46.76 14.19 46.34 13.90Q45.93 13.61 44.84 13.61L44.84 13.61Q44.09 13.61 43.36 14.07Q42.63 14.53 41.97 15.28Q41.31 16.02 40.75 16.89Q40.18 17.75 39.76 18.58Q39.33 19.41 39.08 20.02L39.08 20.02Q38.59 21.21 38.59 22.22Q38.59 23.24 39.36 24.41L39.36 24.41Q38.93 24.54 38.48 24.64Q38.04 24.74 37.58 24.74ZM73.55 20.68L73.55 20.68L73.55 18.53Q73.11 19.16 72.47 19.99Q71.82 20.81 71.01 21.67Q70.20 22.52 69.26 23.25Q68.32 23.98 67.30 24.43Q66.28 24.88 65.24 24.88L65.24 24.88Q63.75 24.88 62.79 24.18Q61.84 23.48 61.38 22.33Q60.93 21.18 60.93 19.82L60.93 19.82Q60.93 18 61.56 16.40Q62.19 14.80 63.34 13.58Q64.49 12.36 66.05 11.67Q67.62 10.98 69.48 10.98L69.48 10.98Q70.36 10.98 71.31 11.21Q72.27 11.45 73.12 11.83Q73.97 12.21 74.53 12.67L74.53 12.67Q74.71 12.06 75.01 11.61Q75.30 11.17 75.81 11.17L75.81 11.17Q76.14 11.17 76.48 11.34Q76.82 11.51 77.07 11.68L77.07 11.68Q76.29 13.10 76.04 14.85Q75.79 16.59 75.79 18.20L75.79 18.20Q75.79 19.35 75.92 20.29Q76.05 21.23 76.48 22.07Q76.91 22.90 77.77 23.73L77.77 23.73Q77.44 23.99 76.86 24.36Q76.28 24.74 75.86 24.74L75.86 24.74Q75.08 24.74 74.63 24.33Q74.17 23.93 73.93 23.29Q73.70 22.65 73.62 21.96Q73.55 21.26 73.55 20.68ZM63.15 18.59L63.15 18.59Q63.15 19.63 63.47 20.48Q63.80 21.33 64.50 21.83Q65.20 22.32 66.35 22.32L66.35 22.32Q67.30 22.32 68.27 21.81Q69.23 21.29 70.14 20.45Q71.05 19.61 71.83 18.61Q72.61 17.61 73.18 16.63Q73.76 15.66 74.05 14.89L74.05 14.89Q74.10 14.66 74.15 14.43Q74.20 14.19 74.25 13.95L74.25 13.95Q73.66 13.44 72.87 13.20Q72.07 12.96 71.20 12.89Q70.34 12.82 69.56 12.82L69.56 12.82Q67.78 12.82 66.33 13.48Q64.88 14.14 64.01 15.43Q63.15 16.72 63.15 18.59ZM84.62 13.65L84.62 13.65Q84.62 14.68 84.46 15.69Q84.29 16.69 84.11 17.70L84.11 17.70Q84.86 16.55 85.82 15.38Q86.78 14.21 87.89 13.24Q89.00 12.26 90.20 11.66Q91.39 11.06 92.61 11.05L92.61 11.05Q94.31 11.04 95.00 12.01Q95.70 12.97 95.70 14.54L95.70 14.54Q95.70 15.83 95.43 17.11Q95.16 18.39 95.16 19.68L95.16 19.68Q95.16 20.86 95.55 21.93Q95.94 22.99 96.91 23.74L96.91 23.74Q96.69 23.91 96.32 24.14Q95.95 24.38 95.57 24.56Q95.18 24.74 94.90 24.74L94.90 24.74Q94.20 24.74 93.78 24.38Q93.36 24.02 93.15 23.46Q92.93 22.89 92.86 22.27Q92.79 21.64 92.79 21.12L92.79 21.12Q92.79 19.96 93.01 18.90Q93.22 17.84 93.45 16.88Q93.67 15.93 93.67 15.08L93.67 15.08Q93.67 14.44 93.32 14.13Q92.98 13.82 92.46 13.71Q91.95 13.61 91.44 13.61L91.44 13.61Q90.40 13.61 89.29 14.22Q88.17 14.84 87.13 15.84Q86.09 16.85 85.27 18.04Q84.46 19.23 84.02 20.40Q83.58 21.57 83.66 22.49L83.66 22.49Q83.75 23.03 84.06 23.54Q84.38 24.05 84.71 24.43L84.71 24.43Q84.25 24.55 83.76 24.64Q83.27 24.74 82.78 24.74L82.78 24.74Q82.14 24.74 81.81 24.36Q81.49 23.99 81.39 23.44Q81.28 22.89 81.28 22.38L81.28 22.38Q81.28 21.22 81.50 20.06Q81.73 18.90 81.94 17.73Q82.16 16.56 82.16 15.36L82.16 15.36Q82.16 14.38 81.92 13.46Q81.68 12.54 81.04 11.77L81.04 11.77Q81.45 11.57 81.97 11.38Q82.49 11.19 82.93 11.19L82.93 11.19Q83.64 11.19 84 11.57Q84.36 11.94 84.49 12.51Q84.62 13.08 84.62 13.65ZM105.01 24.93L105.01 24.93Q103.38 24.93 102.08 24.28Q100.78 23.64 100.03 22.44Q99.28 21.23 99.28 19.55L99.28 19.55Q99.28 17.79 99.98 16.24Q100.68 14.70 101.89 13.51Q103.10 12.33 104.67 11.65Q106.23 10.98 107.96 10.98L107.96 10.98Q109.59 10.98 110.88 11.62Q112.17 12.26 112.92 13.46Q113.67 14.67 113.67 16.36L113.67 16.36Q113.67 18.12 112.98 19.66Q112.29 21.21 111.08 22.39Q109.88 23.58 108.32 24.25Q106.76 24.93 105.01 24.93ZM106.46 22.99L106.46 22.99Q108.08 22.99 109.19 22.23Q110.30 21.47 110.86 20.20Q111.42 18.94 111.42 17.41L111.42 17.41Q111.42 15.90 110.76 14.91Q110.10 13.92 108.97 13.43Q107.84 12.94 106.42 12.94L106.42 12.94Q104.87 12.94 103.78 13.68Q102.69 14.43 102.12 15.66Q101.55 16.89 101.55 18.36L101.55 18.36Q101.55 20.65 102.91 21.82Q104.27 22.99 106.46 22.99ZM118.62 24.86L118.62 24.86Q118.08 24.86 117.41 24.75Q116.74 24.64 116.13 24.39Q115.51 24.13 115.11 23.68Q114.71 23.23 114.71 22.54L114.71 22.54Q114.71 22.04 114.93 21.52Q115.14 20.99 115.61 20.77L115.61 20.77Q115.95 21.95 116.99 22.52Q118.03 23.09 119.18 23.09L119.18 23.09Q119.61 23.09 120.20 22.97Q120.79 22.85 121.23 22.55Q121.68 22.24 121.68 21.69L121.68 21.69Q121.68 21.12 121.23 20.60Q120.79 20.07 120.20 19.65Q119.61 19.22 119.18 18.94L119.18 18.94Q118.45 18.45 117.76 17.92Q117.07 17.39 116.63 16.69Q116.18 16.00 116.18 15.01L116.18 15.01Q116.18 13.52 116.95 12.64Q117.71 11.75 118.91 11.37Q120.11 10.98 121.38 10.98L121.38 10.98Q121.97 10.98 122.61 11.12Q123.26 11.25 123.71 11.63Q124.16 12.01 124.16 12.75L124.16 12.75Q124.16 13.22 123.95 13.76Q123.74 14.30 123.27 14.50L123.27 14.50Q122.85 13.58 122.00 13.21Q121.15 12.84 120.20 12.84L120.20 12.84Q119.84 12.84 119.33 12.94Q118.83 13.03 118.44 13.28Q118.05 13.54 118.05 14.02L118.05 14.02Q118.05 14.54 118.51 15.06Q118.96 15.57 119.54 16.00Q120.13 16.42 120.53 16.69L120.53 16.69Q121.27 17.18 121.97 17.72Q122.68 18.27 123.15 18.98Q123.61 19.69 123.61 20.70L123.61 20.70Q123.61 22.13 122.90 23.05Q122.19 23.98 121.05 24.42Q119.91 24.86 118.62 24.86ZM128.70 12.63L128.70 12.63Q128.33 12.81 127.83 12.97Q127.34 13.14 126.81 13.13Q126.29 13.11 125.85 12.76Q125.40 12.40 125.13 11.53L125.13 11.53Q126.47 11.58 127.45 11.38Q128.44 11.19 129.52 11.19L129.52 11.19Q130.14 11.19 130.44 11.47Q130.75 11.75 130.84 12.18Q130.93 12.61 130.90 13.08Q130.88 13.55 130.84 13.93L130.84 13.93Q130.76 14.68 130.54 15.70Q130.32 16.72 130.10 17.77L130.10 17.77Q130.02 18.13 129.87 18.76Q129.73 19.39 129.62 20.12Q129.52 20.84 129.56 21.49Q129.60 22.15 129.88 22.56Q130.17 22.98 130.82 22.98L130.82 22.98Q131.30 22.98 131.96 22.94Q132.63 22.90 133.27 22.73Q133.90 22.57 134.26 22.21L134.26 22.21L134.29 22.18L134.29 22.22Q134.29 23.26 133.68 23.84Q133.07 24.42 132.18 24.66Q131.29 24.89 130.43 24.89L130.43 24.89Q129.01 24.89 128.29 24.39Q127.56 23.89 127.34 23.07Q127.11 22.25 127.21 21.26Q127.31 20.26 127.56 19.25Q127.82 18.23 128.03 17.37L128.03 17.37Q128.30 16.25 128.51 15.09Q128.73 13.92 128.70 12.63ZM129.87 10.13L129.87 10.13Q129.14 10.13 128.78 9.82Q128.43 9.52 128.43 8.77L128.43 8.77Q128.43 8.26 128.53 7.77Q128.63 7.28 128.75 6.80L128.75 6.80Q129.20 6.63 129.67 6.51Q130.15 6.39 130.63 6.39L130.63 6.39Q131.33 6.39 131.76 6.70Q132.19 7.02 132.19 7.78L132.19 7.78Q132.19 8.30 132.02 8.78Q131.86 9.27 131.66 9.74L131.66 9.74Q131.23 9.90 130.78 10.01Q130.34 10.13 129.87 10.13ZM138.76 24.74L138.76 24.74Q138.12 24.74 137.82 24.38Q137.52 24.01 137.44 23.48Q137.37 22.96 137.37 22.46L137.37 22.46Q137.37 21.21 137.61 19.99Q137.85 18.76 138.08 17.54Q138.32 16.31 138.32 15.06L138.32 15.06Q138.32 14.19 138.12 13.34Q137.93 12.49 137.41 11.78L137.41 11.78Q137.80 11.54 138.27 11.37Q138.74 11.19 139.20 11.19L139.20 11.19Q140.14 11.19 140.48 11.82Q140.81 12.46 140.81 13.28L140.81 13.28Q140.81 14.48 140.60 15.67Q140.39 16.85 140.20 18.04L140.20 18.04Q140.57 17.46 141.14 16.58Q141.71 15.70 142.43 14.75Q143.14 13.79 143.95 12.95Q144.75 12.11 145.58 11.58Q146.40 11.05 147.19 11.05L147.19 11.05Q148.30 11.05 148.91 11.55Q149.52 12.05 149.77 12.87Q150.01 13.69 150.01 14.65L150.01 14.65Q150.01 15.45 150 16.25Q149.99 17.06 149.82 17.85L149.82 17.85Q150.16 17.20 150.70 16.32Q151.23 15.45 151.92 14.53Q152.61 13.61 153.41 12.81Q154.21 12.02 155.07 11.54Q155.93 11.05 156.81 11.05L156.81 11.05Q157.90 11.05 158.48 11.50Q159.06 11.95 159.28 12.72Q159.50 13.49 159.50 14.44L159.50 14.44Q159.50 15.82 159.29 17.18Q159.07 18.54 159.07 19.92L159.07 19.92Q159.07 21.02 159.39 22.01Q159.71 23.00 160.61 23.73L160.61 23.73Q160.27 24 159.70 24.37Q159.13 24.74 158.68 24.74L158.68 24.74Q158.02 24.74 157.62 24.38Q157.22 24.02 157.02 23.47Q156.82 22.91 156.76 22.30Q156.69 21.69 156.69 21.19L156.69 21.19Q156.68 19.80 156.90 18.67Q157.13 17.54 157.35 16.64Q157.58 15.74 157.56 15.05L157.56 15.05Q157.55 14.17 156.95 13.89Q156.35 13.61 155.61 13.61L155.61 13.61Q154.86 13.61 154.14 14.06Q153.41 14.52 152.75 15.26Q152.09 16.01 151.53 16.87Q150.97 17.73 150.55 18.56Q150.13 19.38 149.88 19.99L149.88 19.99Q149.41 21.14 149.40 22.22Q149.39 23.30 150.16 24.41L150.16 24.41Q149.73 24.54 149.28 24.64Q148.83 24.74 148.37 24.74L148.37 24.74Q147.74 24.74 147.45 24.38Q147.15 24.01 147.07 23.48Q146.99 22.96 146.99 22.48L146.99 22.48Q146.99 21.28 147.23 20.10Q147.47 18.93 147.70 17.74Q147.94 16.56 147.94 15.35L147.94 15.35Q147.94 14.19 147.52 13.90Q147.11 13.61 146.02 13.61L146.02 13.61Q145.27 13.61 144.54 14.07Q143.81 14.53 143.15 15.28Q142.49 16.02 141.93 16.89Q141.36 17.75 140.94 18.58Q140.51 19.41 140.26 20.02L140.26 20.02Q139.77 21.21 139.77 22.22Q139.77 23.24 140.54 24.41L140.54 24.41Q140.11 24.54 139.66 24.64Q139.22 24.74 138.76 24.74ZM167.84 24.93L167.84 24.93Q166.21 24.93 164.91 24.28Q163.61 23.64 162.86 22.44Q162.11 21.23 162.11 19.55L162.11 19.55Q162.11 17.79 162.80 16.24Q163.50 14.70 164.71 13.51Q165.93 12.33 167.49 11.65Q169.05 10.98 170.79 10.98L170.79 10.98Q172.42 10.98 173.71 11.62Q175.00 12.26 175.75 13.46Q176.50 14.67 176.50 16.36L176.50 16.36Q176.50 18.12 175.80 19.66Q175.11 21.21 173.91 22.39Q172.70 23.58 171.14 24.25Q169.58 24.93 167.84 24.93ZM169.29 22.99L169.29 22.99Q170.91 22.99 172.01 22.23Q173.12 21.47 173.68 20.20Q174.25 18.94 174.25 17.41L174.25 17.41Q174.25 15.90 173.58 14.91Q172.92 13.92 171.79 13.43Q170.66 12.94 169.24 12.94L169.24 12.94Q167.70 12.94 166.61 13.68Q165.52 14.43 164.95 15.66Q164.38 16.89 164.38 18.36L164.38 18.36Q164.38 20.65 165.74 21.82Q167.10 22.99 169.29 22.99ZM195.83 22.75L195.83 22.75Q195.83 22.27 195.89 21.80Q195.95 21.33 196.04 20.87L196.04 20.87Q195.27 20.85 194.50 20.84Q193.73 20.82 192.96 20.82L192.96 20.82Q192.60 20.82 191.91 20.84Q191.23 20.85 190.39 20.87Q189.56 20.89 188.75 20.94Q187.95 20.98 187.31 21.05Q186.68 21.12 186.41 21.22L186.41 21.22L185.48 21.56Q185.04 21.50 184.71 21.18Q184.38 20.86 184.13 20.53L184.13 20.53Q185.36 19.63 186.75 18.40Q188.14 17.18 189.44 15.74Q190.73 14.31 191.70 12.77Q192.66 11.24 193.02 9.73L193.02 9.73Q193.08 9.43 193.08 9.20L193.08 9.20Q193.08 8.79 192.93 8.42Q192.79 8.05 192.57 7.72L192.57 7.72Q193.02 7.48 193.67 7.18Q194.32 6.89 194.84 6.89L194.84 6.89Q195.41 6.89 195.61 7.25Q195.81 7.62 195.81 8.12L195.81 8.12Q195.81 9.28 195.30 10.51Q194.79 11.74 193.95 12.97Q193.11 14.20 192.10 15.36Q191.09 16.52 190.06 17.55Q189.04 18.59 188.17 19.39L188.17 19.39Q189.41 19.21 190.58 19.07Q191.74 18.93 193.03 18.88Q194.31 18.84 195.89 18.97L195.89 18.97Q196.05 18.98 196.21 19.00Q196.37 19.01 196.50 19.02L196.50 19.02Q196.61 18.64 196.69 18.26Q196.77 17.88 196.77 17.51L196.77 17.51Q196.77 17.04 196.60 16.61Q196.43 16.17 195.97 15.80L195.97 15.80Q196.42 15.62 196.92 15.47Q197.41 15.33 197.89 15.33L197.89 15.33Q199.28 15.33 199.28 16.75L199.28 16.75Q199.28 17.19 199.19 17.80Q199.10 18.41 198.98 19.00L198.98 19.00Q199.09 18.98 199.21 18.96L199.21 18.96Q199.97 18.86 200.37 19.31Q200.77 19.77 200.77 20.53L200.77 20.53Q200.77 20.86 200.71 21.27L200.71 21.27Q200.70 21.27 200.68 21.28Q200.66 21.28 200.64 21.28L200.64 21.28Q199.62 21.13 198.54 21.02L198.54 21.02Q198.49 21.26 198.46 21.49Q198.43 21.73 198.43 21.95L198.43 21.95Q198.43 22.54 198.73 23.03Q199.02 23.53 199.84 23.84L199.84 23.84Q199.43 24.08 198.79 24.40Q198.14 24.73 197.66 24.73L197.66 24.73Q196.69 24.73 196.26 24.20Q195.83 23.67 195.83 22.75ZM208.52 24.91L208.52 24.91Q206.29 24.91 204.81 23.95Q203.34 22.98 202.62 21.31Q201.90 19.64 201.90 17.54L201.90 17.54Q201.90 15.50 202.56 13.60Q203.21 11.70 204.45 10.18Q205.69 8.67 207.43 7.78Q209.18 6.89 211.36 6.89L211.36 6.89Q213.61 6.89 215.07 7.89Q216.53 8.88 217.24 10.57Q217.96 12.26 217.96 14.36L217.96 14.36Q217.96 16.39 217.30 18.28Q216.64 20.17 215.40 21.67Q214.16 23.17 212.43 24.04Q210.69 24.91 208.52 24.91ZM209.78 22.90L209.78 22.90Q211.35 22.90 212.48 22.20Q213.61 21.50 214.34 20.35Q215.06 19.20 215.41 17.82Q215.75 16.44 215.75 15.08L215.75 15.08Q215.75 13.24 215.14 11.85Q214.52 10.46 213.26 9.69Q212.00 8.91 210.07 8.91L210.07 8.91Q208.51 8.91 207.39 9.61Q206.26 10.31 205.54 11.46Q204.81 12.61 204.46 13.98Q204.11 15.35 204.11 16.70L204.11 16.70Q204.11 18.53 204.72 19.93Q205.34 21.33 206.59 22.11Q207.84 22.90 209.78 22.90ZM224.72 24.91L224.72 24.91Q222.48 24.91 221.01 23.95Q219.54 22.98 218.82 21.31Q218.10 19.64 218.10 17.54L218.10 17.54Q218.10 15.50 218.75 13.60Q219.41 11.70 220.65 10.18Q221.88 8.67 223.63 7.78Q225.38 6.89 227.55 6.89L227.55 6.89Q229.80 6.89 231.26 7.89Q232.72 8.88 233.44 10.57Q234.15 12.26 234.15 14.36L234.15 14.36Q234.15 16.39 233.50 18.28Q232.84 20.17 231.60 21.67Q230.36 23.17 228.62 24.04Q226.89 24.91 224.72 24.91ZM225.97 22.90L225.97 22.90Q227.54 22.90 228.67 22.20Q229.80 21.50 230.53 20.35Q231.26 19.20 231.60 17.82Q231.95 16.44 231.95 15.08L231.95 15.08Q231.95 13.24 231.33 11.85Q230.72 10.46 229.46 9.69Q228.20 8.91 226.27 8.91L226.27 8.91Q224.71 8.91 223.58 9.61Q222.46 10.31 221.73 11.46Q221.00 12.61 220.65 13.98Q220.30 15.35 220.30 16.70L220.30 16.70Q220.30 18.53 220.92 19.93Q221.53 21.33 222.79 22.11Q224.04 22.90 225.97 22.90ZM247.68 13.65L247.68 13.65Q247.68 14.68 247.51 15.69Q247.35 16.69 247.16 17.70L247.16 17.70Q247.91 16.55 248.87 15.38Q249.83 14.21 250.95 13.24Q252.06 12.26 253.25 11.66Q254.45 11.06 255.67 11.05L255.67 11.05Q257.37 11.04 258.06 12.01Q258.75 12.97 258.75 14.54L258.75 14.54Q258.75 15.83 258.48 17.11Q258.21 18.39 258.21 19.68L258.21 19.68Q258.21 20.86 258.60 21.93Q259.00 22.99 259.97 23.74L259.97 23.74Q259.75 23.91 259.38 24.14Q259.01 24.38 258.62 24.56Q258.23 24.74 257.95 24.74L257.95 24.74Q257.25 24.74 256.83 24.38Q256.42 24.02 256.20 23.46Q255.98 22.89 255.91 22.27Q255.84 21.64 255.84 21.12L255.84 21.12Q255.84 19.96 256.06 18.90Q256.28 17.84 256.50 16.88Q256.72 15.93 256.72 15.08L256.72 15.08Q256.72 14.44 256.38 14.13Q256.03 13.82 255.52 13.71Q255 13.61 254.50 13.61L254.50 13.61Q253.45 13.61 252.34 14.22Q251.23 14.84 250.18 15.84Q249.14 16.85 248.33 18.04Q247.51 19.23 247.07 20.40Q246.63 21.57 246.71 22.49L246.71 22.49Q246.81 23.03 247.12 23.54Q247.43 24.05 247.77 24.43L247.77 24.43Q247.30 24.55 246.81 24.64Q246.33 24.74 245.84 24.74L245.84 24.74Q245.19 24.74 244.87 24.36Q244.55 23.99 244.44 23.44Q244.34 22.89 244.34 22.38L244.34 22.38Q244.34 21.22 244.56 20.06Q244.78 18.90 245.00 17.73Q245.21 16.56 245.21 15.36L245.21 15.36Q245.21 14.38 244.97 13.46Q244.73 12.54 244.09 11.77L244.09 11.77Q244.50 11.57 245.02 11.38Q245.54 11.19 245.99 11.19L245.99 11.19Q246.69 11.19 247.05 11.57Q247.42 11.94 247.55 12.51Q247.68 13.08 247.68 13.65ZM268.07 24.93L268.07 24.93Q266.44 24.93 265.14 24.28Q263.84 23.64 263.09 22.44Q262.34 21.23 262.34 19.55L262.34 19.55Q262.34 17.79 263.03 16.24Q263.73 14.70 264.94 13.51Q266.16 12.33 267.72 11.65Q269.29 10.98 271.02 10.98L271.02 10.98Q272.65 10.98 273.94 11.62Q275.23 12.26 275.98 13.46Q276.73 14.67 276.73 16.36L276.73 16.36Q276.73 18.12 276.04 19.66Q275.34 21.21 274.14 22.39Q272.93 23.58 271.37 24.25Q269.81 24.93 268.07 24.93ZM269.52 22.99L269.52 22.99Q271.14 22.99 272.24 22.23Q273.35 21.47 273.91 20.20Q274.48 18.94 274.48 17.41L274.48 17.41Q274.48 15.90 273.81 14.91Q273.15 13.92 272.02 13.43Q270.89 12.94 269.47 12.94L269.47 12.94Q267.93 12.94 266.84 13.68Q265.75 14.43 265.18 15.66Q264.61 16.89 264.61 18.36L264.61 18.36Q264.61 20.65 265.97 21.82Q267.33 22.99 269.52 22.99ZM281.85 24.74L281.85 24.74Q281.05 24.74 280.61 24.36Q280.17 23.98 280.00 23.37Q279.82 22.76 279.82 22.08L279.82 22.08Q279.82 20.87 280.10 19.71Q280.37 18.54 280.65 17.37Q280.92 16.20 280.92 14.99L280.92 14.99Q280.92 14.11 280.67 13.28Q280.42 12.45 279.82 11.78L279.82 11.78Q280.27 11.55 280.76 11.37Q281.25 11.19 281.75 11.19L281.75 11.19Q282.60 11.19 282.98 11.64Q283.37 12.08 283.37 12.90L283.37 12.90Q283.37 13.96 283.16 15.08Q282.95 16.21 282.60 17.00L282.60 17.00Q283.27 16.11 284.11 15.08Q284.95 14.04 285.94 13.11Q286.93 12.18 288.06 11.58Q289.18 10.98 290.41 10.98L290.41 10.98Q291.04 10.98 291.23 11.50Q291.43 12.01 291.43 12.52L291.43 12.52Q291.43 13.17 291.20 13.80L291.20 13.80Q289.93 13.77 288.53 14.24Q287.13 14.72 285.77 15.74Q284.40 16.77 283.22 18.39L283.22 18.39Q282.84 18.91 282.50 19.58Q282.16 20.25 282.16 20.92L282.16 20.92Q282.16 21.81 282.68 22.52Q283.20 23.23 283.91 23.71L283.91 23.71Q283.68 23.88 283.31 24.13Q282.94 24.38 282.54 24.56Q282.15 24.74 281.85 24.74ZM293.86 24.74L293.86 24.74Q293.21 24.74 292.92 24.38Q292.62 24.01 292.54 23.48Q292.46 22.96 292.46 22.46L292.46 22.46Q292.46 21.21 292.71 19.99Q292.95 18.76 293.18 17.54Q293.41 16.31 293.41 15.06L293.41 15.06Q293.41 14.19 293.22 13.34Q293.03 12.49 292.51 11.78L292.51 11.78Q292.90 11.54 293.37 11.37Q293.84 11.19 294.29 11.19L294.29 11.19Q295.24 11.19 295.58 11.82Q295.91 12.46 295.91 13.28L295.91 13.28Q295.91 14.48 295.70 15.67Q295.49 16.85 295.30 18.04L295.30 18.04Q295.66 17.46 296.24 16.58Q296.81 15.70 297.53 14.75Q298.24 13.79 299.04 12.95Q299.85 12.11 300.67 11.58Q301.50 11.05 302.29 11.05L302.29 11.05Q303.40 11.05 304.01 11.55Q304.62 12.05 304.86 12.87Q305.11 13.69 305.11 14.65L305.11 14.65Q305.11 15.45 305.10 16.25Q305.09 17.06 304.92 17.85L304.92 17.85Q305.26 17.20 305.79 16.32Q306.33 15.45 307.02 14.53Q307.71 13.61 308.51 12.81Q309.30 12.02 310.17 11.54Q311.03 11.05 311.91 11.05L311.91 11.05Q313.00 11.05 313.58 11.50Q314.16 11.95 314.38 12.72Q314.60 13.49 314.60 14.44L314.60 14.44Q314.60 15.82 314.38 17.18Q314.17 18.54 314.17 19.92L314.17 19.92Q314.17 21.02 314.49 22.01Q314.81 23.00 315.70 23.73L315.70 23.73Q315.36 24 314.79 24.37Q314.23 24.74 313.78 24.74L313.78 24.74Q313.11 24.74 312.71 24.38Q312.32 24.02 312.12 23.47Q311.92 22.91 311.85 22.30Q311.79 21.69 311.79 21.19L311.79 21.19Q311.78 19.80 312 18.67Q312.22 17.54 312.45 16.64Q312.68 15.74 312.66 15.05L312.66 15.05Q312.64 14.17 312.05 13.89Q311.45 13.61 310.71 13.61L310.71 13.61Q309.96 13.61 309.23 14.06Q308.51 14.52 307.85 15.26Q307.18 16.01 306.63 16.87Q306.07 17.73 305.65 18.56Q305.23 19.38 304.98 19.99L304.98 19.99Q304.51 21.14 304.50 22.22Q304.49 23.30 305.26 24.41L305.26 24.41Q304.83 24.54 304.38 24.64Q303.93 24.74 303.47 24.74L303.47 24.74Q302.84 24.74 302.54 24.38Q302.25 24.01 302.17 23.48Q302.09 22.96 302.09 22.48L302.09 22.48Q302.09 21.28 302.33 20.10Q302.57 18.93 302.80 17.74Q303.04 16.56 303.04 15.35L303.04 15.35Q303.04 14.19 302.62 13.90Q302.20 13.61 301.11 13.61L301.11 13.61Q300.36 13.61 299.64 14.07Q298.91 14.53 298.25 15.28Q297.59 16.02 297.02 16.89Q296.46 17.75 296.03 18.58Q295.61 19.41 295.36 20.02L295.36 20.02Q294.87 21.21 294.87 22.22Q294.87 23.24 295.64 24.41L295.64 24.41Q295.21 24.54 294.76 24.64Q294.32 24.74 293.86 24.74ZM329.82 20.68L329.82 20.68L329.82 18.53Q329.39 19.16 328.75 19.99Q328.10 20.81 327.29 21.67Q326.47 22.52 325.54 23.25Q324.60 23.98 323.58 24.43Q322.56 24.88 321.52 24.88L321.52 24.88Q320.03 24.88 319.07 24.18Q318.12 23.48 317.66 22.33Q317.20 21.18 317.20 19.82L317.20 19.82Q317.20 18 317.84 16.40Q318.47 14.80 319.62 13.58Q320.77 12.36 322.33 11.67Q323.89 10.98 325.76 10.98L325.76 10.98Q326.64 10.98 327.59 11.21Q328.55 11.45 329.40 11.83Q330.25 12.21 330.81 12.67L330.81 12.67Q330.98 12.06 331.28 11.61Q331.58 11.17 332.09 11.17L332.09 11.17Q332.41 11.17 332.75 11.34Q333.09 11.51 333.35 11.68L333.35 11.68Q332.57 13.10 332.31 14.85Q332.06 16.59 332.06 18.20L332.06 18.20Q332.06 19.35 332.20 20.29Q332.33 21.23 332.76 22.07Q333.19 22.90 334.04 23.73L334.04 23.73Q333.71 23.99 333.13 24.36Q332.55 24.74 332.13 24.74L332.13 24.74Q331.36 24.74 330.90 24.33Q330.45 23.93 330.21 23.29Q329.98 22.65 329.90 21.96Q329.82 21.26 329.82 20.68ZM319.43 18.59L319.43 18.59Q319.43 19.63 319.75 20.48Q320.07 21.33 320.78 21.83Q321.48 22.32 322.63 22.32L322.63 22.32Q323.58 22.32 324.54 21.81Q325.51 21.29 326.42 20.45Q327.33 19.61 328.11 18.61Q328.89 17.61 329.46 16.63Q330.04 15.66 330.33 14.89L330.33 14.89Q330.38 14.66 330.43 14.43Q330.48 14.19 330.53 13.95L330.53 13.95Q329.94 13.44 329.14 13.20Q328.35 12.96 327.48 12.89Q326.61 12.82 325.84 12.82L325.84 12.82Q324.06 12.82 322.61 13.48Q321.15 14.14 320.29 15.43Q319.43 16.72 319.43 18.59ZM340.37 24.74L340.37 24.74Q339.56 24.74 339.11 24.37Q338.66 24 338.48 23.40Q338.30 22.79 338.30 22.09L338.30 22.09Q338.30 20.87 338.57 19.68Q338.84 18.48 339.09 17.31L339.09 17.31Q339.47 15.67 339.79 14.02Q340.10 12.36 340.10 10.69L340.10 10.69Q340.10 9.63 339.88 8.57Q339.66 7.50 338.96 6.66L338.96 6.66Q339.40 6.47 339.93 6.30Q340.45 6.13 340.92 6.13L340.92 6.13Q341.93 6.13 342.31 6.77Q342.69 7.41 342.69 8.31L342.69 8.31Q342.69 9.61 342.38 10.89Q342.06 12.16 341.77 13.42L341.77 13.42Q341.37 15.14 341.01 16.89Q340.65 18.63 340.65 20.41L340.65 20.41Q340.65 21.66 341.04 22.34Q341.43 23.03 342.46 23.71L342.46 23.71Q342.23 23.87 341.84 24.12Q341.45 24.36 341.05 24.55Q340.65 24.74 340.37 24.74Z"/></svg>