<svg xmlns="http://www.w3.org/2000/svg" xmlns:xlink="http://www.w3.org/1999/xlink" width="342.24" height="47.448"><path fill="black" d="M11.26 25.42L11.26 25.42Q10.87 25.44 10.70 25.22Q10.54 25.01 10.63 24.55L10.63 24.55Q10.70 24.17 10.90 23.99Q11.09 23.81 11.45 23.81L11.45 23.81Q13.87 23.66 15.90 22.97Q17.93 22.27 19.42 21.10Q20.90 19.92 21.71 18.38Q22.51 16.85 22.51 15.02L22.51 15.02Q22.51 13.44 21.67 12.53Q20.83 11.62 19.30 11.62L19.30 11.62Q18.36 11.62 17.36 12.04Q16.37 12.46 15.38 13.24Q14.40 14.02 13.46 15.14Q12.53 16.27 11.72 17.70Q10.92 19.13 10.30 20.81L10.30 20.81L5.83 34.61Q5.74 34.90 5.51 35.04Q5.28 35.18 4.82 35.18L4.82 35.18Q4.39 35.18 4.20 35.04Q4.01 34.90 4.08 34.58L4.08 34.58L10.54 14.71Q9.89 15.43 9.13 16.07Q8.38 16.70 7.52 17.23Q6.67 17.76 5.71 18.26L5.71 18.26Q5.28 18.46 5.03 18.31Q4.78 18.17 4.63 17.78L4.63 17.78Q4.51 17.42 4.62 17.17Q4.73 16.92 5.09 16.78L5.09 16.78Q6.70 16.01 7.93 15.13Q9.17 14.26 10.13 13.13Q11.09 12 11.81 10.58L11.81 10.58Q11.98 10.27 12.19 10.15Q12.41 10.03 12.86 10.03L12.86 10.03Q13.27 10.03 13.48 10.18Q13.68 10.32 13.58 10.63L13.58 10.63L12.36 14.47Q13.44 12.98 14.66 12Q15.89 11.02 17.17 10.51Q18.46 10.01 19.73 10.01L19.73 10.01Q21.12 10.01 22.14 10.61Q23.16 11.21 23.74 12.30Q24.31 13.39 24.31 14.86L24.31 14.86Q24.31 17.09 23.34 18.96Q22.37 20.83 20.62 22.22Q18.86 23.62 16.49 24.46Q14.11 25.30 11.26 25.42ZM17.62 35.26L17.62 35.26Q17.26 35.26 17.15 35.03Q17.04 34.80 17.10 34.51Q17.16 34.22 17.41 34.00Q17.66 33.77 18.02 33.77L18.02 33.77Q18.77 33.77 19.75 33.26Q20.74 32.76 21.84 31.82Q22.94 30.89 24.12 29.68Q25.30 28.46 26.44 27.01Q27.58 25.56 28.66 24.01Q29.74 22.46 30.64 20.92Q31.54 19.37 32.22 17.92Q32.90 16.46 33.29 15.18Q33.67 13.90 33.67 12.89L33.67 12.89Q33.67 12.58 33.92 12.42Q34.18 12.26 34.51 12.26Q34.85 12.26 35.10 12.42Q35.35 12.58 35.35 12.89L35.35 12.89Q35.35 13.92 34.96 15.29Q34.56 16.66 33.80 18.22Q33.05 19.78 32.04 21.44Q31.03 23.11 29.84 24.78Q28.66 26.45 27.36 27.98Q26.06 29.52 24.74 30.84Q23.42 32.16 22.15 33.16Q20.88 34.15 19.73 34.70Q18.58 35.26 17.62 35.26ZM25.20 35.23L25.20 35.23Q24.34 35.23 23.86 34.92Q23.38 34.61 23.22 34.07Q23.06 33.53 23.14 32.81Q23.21 32.09 23.45 31.30L23.45 31.30L29.06 13.99Q29.76 11.86 30.70 10.88Q31.63 9.91 32.93 9.91L32.93 9.91Q33.70 9.91 34.24 10.28Q34.78 10.66 35.06 11.32Q35.35 11.98 35.35 12.89L35.35 12.89Q35.35 13.27 35.10 13.45Q34.85 13.63 34.51 13.63Q34.18 13.63 33.92 13.45Q33.67 13.27 33.67 12.89L33.67 12.89Q33.67 12.46 33.55 12.16Q33.43 11.86 33.22 11.70Q33 11.54 32.66 11.54L32.66 11.54Q32.33 11.54 31.99 11.81Q31.66 12.07 31.33 12.66Q31.01 13.25 30.67 14.28L30.67 14.28L24.96 32.11Q24.82 32.57 24.78 32.95Q24.74 33.34 24.90 33.55Q25.06 33.77 25.39 33.77L25.39 33.77Q25.78 33.77 26.11 33.58Q26.45 33.38 26.74 33.06Q27.02 32.74 27.24 32.45L27.24 32.45Q27.34 32.23 27.55 32.16Q27.77 32.09 28.08 32.30L28.08 32.30Q28.42 32.50 28.43 32.70Q28.44 32.90 28.32 33.14L28.32 33.14Q28.06 33.58 27.61 34.07Q27.17 34.56 26.57 34.90Q25.97 35.23 25.20 35.23ZM35.02 35.26L35.02 35.26Q33.98 35.26 33.25 34.79Q32.52 34.32 32.12 33.43Q31.73 32.54 31.73 31.34L31.73 31.34Q31.73 30.26 32.03 29.04Q32.33 27.82 32.95 26.64Q33.58 25.46 34.50 24.50Q35.42 23.54 36.67 22.97Q37.92 22.39 39.48 22.39L39.48 22.39Q40.27 22.39 41.08 22.64Q41.88 22.90 42.58 23.33L42.58 23.33L42.65 23.06Q42.79 22.73 42.98 22.61Q43.18 22.49 43.54 22.49L43.54 22.49Q44.14 22.49 44.29 22.69Q44.45 22.90 44.33 23.28L44.33 23.28L41.42 32.14Q41.28 32.59 41.26 32.96Q41.23 33.34 41.39 33.55Q41.54 33.77 41.90 33.77L41.90 33.77Q42.26 33.77 42.59 33.58Q42.91 33.38 43.20 33.07Q43.49 32.76 43.70 32.45L43.70 32.45Q43.82 32.23 44.04 32.17Q44.26 32.11 44.57 32.30L44.57 32.30Q44.88 32.50 44.90 32.71Q44.93 32.93 44.81 33.17L44.81 33.17Q44.57 33.60 44.12 34.09Q43.68 34.58 43.07 34.91Q42.46 35.23 41.69 35.23L41.69 35.23Q41.04 35.23 40.63 35.04Q40.22 34.85 40.00 34.51Q39.77 34.18 39.70 33.73Q39.62 33.29 39.67 32.78L39.67 32.78Q39.70 32.64 39.73 32.50Q39.77 32.35 39.82 32.21L39.82 32.21Q38.95 33.36 38.08 34.03Q37.20 34.70 36.42 34.98Q35.64 35.26 35.02 35.26ZM33.50 31.15L33.50 31.15Q33.50 31.97 33.72 32.52Q33.94 33.07 34.39 33.38Q34.85 33.70 35.52 33.70L35.52 33.70Q36.34 33.70 37.22 33.16Q38.11 32.62 39.01 31.54Q39.91 30.46 40.78 28.90L40.78 28.90L42.12 24.67Q41.40 24.22 40.74 24.07Q40.08 23.93 39.46 23.93L39.46 23.93Q38.21 23.93 37.22 24.41Q36.24 24.89 35.54 25.68Q34.85 26.47 34.39 27.43Q33.94 28.39 33.72 29.36Q33.50 30.34 33.50 31.15ZM55.39 37.08L55.61 35.35Q56.06 35.06 56.52 34.81Q56.98 34.56 57.44 34.31Q57.91 34.06 58.34 33.85Q58.78 33.65 59.16 33.50L59.16 33.50Q59.45 33.36 59.64 33.50Q59.83 33.65 59.88 33.91Q59.93 34.18 59.84 34.43Q59.76 34.68 59.50 34.82L59.50 34.82Q59.04 35.02 58.54 35.29Q58.03 35.57 57.49 35.84Q56.95 36.12 56.44 36.44Q55.92 36.77 55.39 37.08L55.39 37.08ZM48.58 47.78L48.58 47.78Q47.21 47.78 46.44 47.02Q45.67 46.25 45.67 45.02L45.67 45.02Q45.67 43.97 46.09 43.01Q46.51 42.05 47.32 41.14Q48.12 40.22 49.22 39.36Q50.33 38.50 51.67 37.63L51.67 37.63Q52.15 37.34 52.61 37.06Q53.06 36.77 53.53 36.49Q54.00 36.22 54.46 35.98L54.46 35.98L55.70 32.16Q55.08 32.95 54.43 33.55Q53.78 34.15 53.11 34.51Q52.44 34.87 51.80 35.05Q51.17 35.23 50.59 35.23L50.59 35.23Q49.37 35.23 48.61 34.69Q47.86 34.15 47.66 33.10Q47.47 32.04 47.98 30.55L47.98 30.55L49.66 25.42Q49.87 24.67 49.73 24.30Q49.58 23.93 49.08 23.93L49.08 23.93Q48.67 23.93 48.29 24.18Q47.90 24.43 47.50 24.95Q47.09 25.46 46.63 26.26L46.63 26.26Q46.46 26.52 46.30 26.62Q46.13 26.71 45.77 26.66L45.77 26.66Q45.36 26.57 45.29 26.30Q45.22 26.04 45.36 25.75L45.36 25.75Q45.82 24.79 46.40 24.05Q46.99 23.30 47.71 22.88Q48.43 22.46 49.30 22.46L49.30 22.46Q49.99 22.46 50.48 22.72Q50.98 22.97 51.22 23.44Q51.46 23.90 51.44 24.53Q51.43 25.15 51.19 25.92L51.19 25.92L49.63 30.74Q49.34 31.70 49.37 32.36Q49.39 33.02 49.82 33.36Q50.26 33.70 51.12 33.70L51.12 33.70Q51.77 33.70 52.51 33.37Q53.26 33.05 54.02 32.39Q54.79 31.73 55.51 30.76Q56.23 29.78 56.88 28.49L56.88 28.49L58.61 23.11Q58.75 22.73 58.93 22.61Q59.11 22.49 59.50 22.49L59.50 22.49Q60.10 22.49 60.26 22.69Q60.43 22.90 60.29 23.28L60.29 23.28L54.31 41.62Q53.78 43.22 53.20 44.39Q52.61 45.55 51.91 46.31Q51.22 47.06 50.40 47.42Q49.58 47.78 48.58 47.78ZM48.84 46.27L48.84 46.27Q49.61 46.27 50.30 45.74Q51.00 45.22 51.60 44.16Q52.20 43.10 52.66 41.54L52.66 41.54L53.81 37.97Q53.54 38.14 53.24 38.32Q52.94 38.50 52.67 38.66Q52.39 38.83 52.13 39L52.13 39Q51.02 39.74 50.14 40.48Q49.25 41.21 48.64 41.93Q48.02 42.65 47.71 43.36Q47.40 44.06 47.40 44.81L47.40 44.81Q47.40 45.26 47.56 45.60Q47.71 45.94 48.05 46.10Q48.38 46.27 48.84 46.27ZM65.90 35.30L65.90 35.30Q64.82 35.30 64.18 34.90Q63.53 34.49 63.25 33.80Q62.98 33.12 63.01 32.23Q63.05 31.34 63.36 30.38L63.36 30.38L65.74 23.11Q65.88 22.75 66.06 22.62Q66.24 22.49 66.65 22.49L66.65 22.49Q67.22 22.49 67.38 22.67Q67.54 22.85 67.42 23.21L67.42 23.21L65.06 30.46Q64.78 31.30 64.73 32.06Q64.68 32.83 65.03 33.30Q65.38 33.77 66.26 33.77L66.26 33.77Q66.84 33.77 67.45 33.50Q68.06 33.24 68.65 32.72Q69.24 32.21 69.76 31.46Q70.27 30.72 70.63 29.76L70.63 29.76L72.79 23.11Q72.94 22.75 73.13 22.62Q73.32 22.49 73.70 22.49L73.70 22.49Q74.30 22.49 74.45 22.67Q74.59 22.85 74.47 23.21L74.47 23.21L72.46 29.54Q72.19 30.36 72.01 31.12Q71.83 31.87 71.88 32.47Q71.93 33.07 72.31 33.41Q72.70 33.74 73.49 33.74L73.49 33.74Q74.38 33.74 75.14 33.32Q75.91 32.90 76.54 32.17Q77.16 31.44 77.65 30.53Q78.14 29.62 78.43 28.66Q78.72 27.70 78.79 26.81L78.79 26.81Q78.89 26.23 78.90 25.67Q78.91 25.10 78.84 24.55Q78.77 24 78.58 23.47L78.58 23.47Q78.50 23.11 78.58 22.88Q78.65 22.66 78.86 22.52Q79.08 22.39 79.39 22.39L79.39 22.39Q79.73 22.39 79.93 22.61Q80.14 22.82 80.26 23.33L80.26 23.33Q80.45 23.83 80.53 24.42Q80.62 25.01 80.60 25.62Q80.59 26.23 80.50 26.83L80.50 26.83Q80.40 27.86 80.04 29.03Q79.68 30.19 79.04 31.31Q78.41 32.42 77.56 33.32Q76.70 34.22 75.61 34.76Q74.52 35.30 73.22 35.30L73.22 35.30Q72.26 35.30 71.60 34.99Q70.94 34.68 70.61 34.10Q70.27 33.53 70.22 32.74L70.22 32.74Q69.70 33.58 69 34.16Q68.30 34.75 67.52 35.03Q66.74 35.30 65.90 35.30ZM78.53 35.26L78.53 35.26Q78.17 35.26 78.05 35.03Q77.93 34.80 77.99 34.51Q78.05 34.22 78.30 34.00Q78.55 33.77 78.94 33.77L78.94 33.77Q79.75 33.77 80.58 33.24Q81.41 32.71 82.32 31.55Q83.23 30.38 84.18 28.52Q85.13 26.66 86.16 24L86.16 24L87.29 24.60Q86.11 27.65 85.03 29.71Q83.95 31.78 82.91 33Q81.86 34.22 80.78 34.74Q79.70 35.26 78.53 35.26ZM91.80 35.23L91.80 35.23Q91.03 35.23 90.55 34.98Q90.07 34.73 89.87 34.26Q89.66 33.79 89.71 33.17Q89.76 32.54 89.98 31.82L89.98 31.82Q90.17 31.25 90.49 30.50Q90.82 29.76 91.16 28.96Q91.51 28.15 91.84 27.34Q92.16 26.52 92.38 25.80L92.38 25.80Q92.62 24.91 92.36 24.59Q92.11 24.26 91.61 24.26L91.61 24.26Q91.01 24.26 90.26 24.48Q89.52 24.70 88.74 24.91Q87.96 25.13 87.24 25.13L87.24 25.13Q86.76 25.13 86.44 24.85Q86.11 24.58 85.96 24.13Q85.80 23.69 85.80 23.11L85.80 23.11Q85.80 22.61 85.97 22.15Q86.14 21.70 86.47 21.40Q86.81 21.10 87.26 21.10L87.26 21.10Q87.72 21.10 87.94 21.37Q88.15 21.65 88.15 22.03L88.15 22.03Q88.15 22.39 88.02 22.84Q87.89 23.28 87.67 23.62L87.67 23.62Q88.22 23.64 88.97 23.39Q89.71 23.14 90.55 22.88Q91.39 22.63 92.21 22.63L92.21 22.63Q92.90 22.63 93.42 22.96Q93.94 23.28 94.12 24.02Q94.30 24.77 93.96 25.99L93.96 25.99Q93.79 26.66 93.47 27.47Q93.14 28.27 92.78 29.11Q92.42 29.95 92.09 30.74Q91.75 31.54 91.54 32.23L91.54 32.23Q91.27 33.05 91.42 33.41Q91.56 33.77 92.02 33.77L92.02 33.77Q92.38 33.77 92.71 33.58Q93.05 33.38 93.34 33.06Q93.62 32.74 93.84 32.45L93.84 32.45Q93.96 32.23 94.18 32.17Q94.39 32.11 94.70 32.30L94.70 32.30Q95.02 32.50 95.04 32.70Q95.06 32.90 94.92 33.14L94.92 33.14Q94.68 33.58 94.24 34.07Q93.79 34.56 93.18 34.90Q92.57 35.23 91.80 35.23ZM99.00 35.23L99.00 35.23Q97.63 35.23 97.14 34.27Q96.65 33.31 97.25 31.46L97.25 31.46L99.96 23.11Q100.10 22.73 100.28 22.61Q100.46 22.49 100.85 22.49L100.85 22.49Q101.42 22.49 101.60 22.67Q101.78 22.85 101.64 23.23L101.64 23.23L98.78 32.04Q98.50 32.90 98.63 33.34Q98.76 33.77 99.24 33.77L99.24 33.77Q99.60 33.77 99.94 33.56Q100.27 33.36 100.55 33.05Q100.82 32.74 101.06 32.45L101.06 32.45Q101.18 32.23 101.40 32.16Q101.62 32.09 101.93 32.30L101.93 32.30Q102.24 32.50 102.26 32.71Q102.29 32.93 102.14 33.14L102.14 33.14Q101.86 33.67 101.39 34.15Q100.92 34.63 100.32 34.93Q99.72 35.23 99.00 35.23ZM102.29 18.62L102.29 18.62Q101.83 18.62 101.53 18.36Q101.23 18.10 101.23 17.57L101.23 17.57Q101.23 16.97 101.62 16.45Q102.00 15.94 102.79 15.94L102.79 15.94Q103.25 15.94 103.55 16.19Q103.85 16.44 103.85 16.97L103.85 16.97Q103.85 17.57 103.46 18.10Q103.08 18.62 102.29 18.62ZM106.92 35.23L106.92 35.23Q105.82 35.23 105.30 34.73Q104.78 34.22 104.77 33.30Q104.76 32.38 105.14 31.08L105.14 31.08L107.33 24.38L105.36 24.38Q105.10 24.38 105.02 24.19Q104.95 24 105.05 23.62L105.05 23.62Q105.17 23.23 105.36 23.04Q105.55 22.85 105.82 22.85L105.82 22.85L107.83 22.85L109.42 17.95Q109.54 17.57 109.73 17.45Q109.92 17.33 110.33 17.33L110.33 17.33Q110.88 17.33 111.06 17.51Q111.24 17.69 111.10 18.07L111.10 18.07L109.54 22.85L112.58 22.85Q112.85 22.85 112.94 23.03Q113.04 23.21 112.92 23.62L112.92 23.62Q112.80 24 112.61 24.19Q112.42 24.38 112.18 24.38L112.18 24.38L109.06 24.38L106.66 31.78Q106.32 32.83 106.49 33.30Q106.66 33.77 107.23 33.77L107.23 33.77Q107.98 33.77 108.59 33.26Q109.20 32.76 109.63 32.18L109.63 32.18Q109.75 31.99 109.96 31.92Q110.16 31.85 110.47 32.04L110.47 32.04Q110.81 32.23 110.84 32.44Q110.88 32.64 110.74 32.88L110.74 32.88Q110.42 33.41 109.90 33.97Q109.37 34.54 108.64 34.88Q107.90 35.23 106.92 35.23ZM118.22 35.28L118.22 35.28Q117.43 35.28 116.70 35.00Q115.97 34.73 115.38 34.21Q114.79 33.70 114.36 32.98Q113.93 32.26 113.70 31.38Q113.47 30.50 113.47 29.52L113.47 29.52Q113.47 28.58 113.69 27.60Q113.90 26.62 114.35 25.68Q114.79 24.74 115.45 24.01Q116.11 23.28 116.99 22.84Q117.86 22.39 118.99 22.39L118.99 22.39Q119.90 22.39 120.52 22.75Q121.13 23.11 121.44 23.72Q121.75 24.34 121.75 25.10L121.75 25.10Q121.75 26.47 121.10 27.73Q120.46 28.99 119.38 30.12Q118.30 31.25 117.00 32.16L117.00 32.16Q115.73 33.10 114.30 33.79Q112.87 34.49 111.49 34.87Q110.11 35.26 108.86 35.26L108.86 35.26Q108.58 35.26 108.47 35.03Q108.36 34.80 108.41 34.51Q108.46 34.22 108.68 34.00Q108.91 33.77 109.32 33.77L109.32 33.77Q110.40 33.77 111.60 33.40Q112.80 33.02 114.00 32.38Q115.20 31.73 116.23 30.91L116.23 30.91Q117.22 30.19 118.07 29.30Q118.92 28.42 119.46 27.43Q120.00 26.45 120.00 25.44L120.00 25.44Q120.00 24.72 119.68 24.34Q119.35 23.95 118.61 23.95L118.61 23.95Q117.77 23.95 117.13 24.50Q116.50 25.06 116.06 25.91Q115.63 26.76 115.42 27.71Q115.20 28.66 115.20 29.42L115.20 29.42Q115.20 30.41 115.45 31.20Q115.70 31.99 116.16 32.57Q116.62 33.14 117.23 33.43Q117.84 33.72 118.54 33.72L118.54 33.72Q119.21 33.72 119.84 33.49Q120.48 33.26 121.07 32.83Q121.66 32.40 122.26 31.87L122.26 31.87Q122.52 31.63 122.77 31.68Q123.02 31.73 123.24 31.92L123.24 31.92Q123.48 32.14 123.53 32.41Q123.58 32.69 123.31 32.95L123.31 32.95Q122.64 33.65 121.82 34.19Q121.01 34.73 120.11 35.00Q119.21 35.28 118.22 35.28ZM141.34 35.30L141.34 35.30Q139.61 35.30 138.23 34.72Q136.85 34.13 135.86 33Q134.88 31.87 134.35 30.30Q133.82 28.73 133.82 26.76L133.82 26.76Q133.82 24.89 134.26 22.94Q134.69 21 135.52 19.12Q136.34 17.23 137.54 15.59Q138.74 13.94 140.30 12.70Q141.86 11.45 143.76 10.73Q145.66 10.01 147.86 10.01L147.86 10.01Q149.30 10.01 150.50 10.33Q151.70 10.66 152.65 11.29Q153.60 11.93 154.22 12.89L154.22 12.89Q154.42 13.13 154.32 13.34Q154.22 13.56 153.91 13.78L153.91 13.78Q153.62 13.97 153.41 13.94Q153.19 13.92 152.90 13.63L152.90 13.63Q152.04 12.67 150.72 12.17Q149.40 11.66 147.62 11.66L147.62 11.66Q145.87 11.66 144.30 12.29Q142.73 12.91 141.40 14.00Q140.06 15.10 139.01 16.54Q137.95 17.98 137.21 19.64Q136.46 21.31 136.07 23.08Q135.67 24.84 135.67 26.54L135.67 26.54Q135.67 28.25 136.04 29.56Q136.42 30.86 137.17 31.78Q137.93 32.69 139.03 33.17Q140.14 33.65 141.58 33.65L141.58 33.65Q142.58 33.65 143.51 33.38Q144.43 33.12 145.30 32.62Q146.16 32.11 147.04 31.38Q147.91 30.65 148.80 29.71L148.80 29.71Q149.06 29.47 149.29 29.51Q149.52 29.54 149.76 29.81L149.76 29.81Q150.02 30.10 150.05 30.31Q150.07 30.53 149.83 30.82L149.83 30.82Q148.34 32.42 146.88 33.42Q145.42 34.42 144.04 34.86Q142.66 35.30 141.34 35.30ZM162.62 35.30L162.62 35.30Q160.70 35.30 159.22 34.70Q157.73 34.10 156.71 32.95Q155.69 31.80 155.15 30.17Q154.61 28.54 154.61 26.50L154.61 26.50Q154.61 24.84 154.96 23.11Q155.30 21.38 155.96 19.73Q156.62 18.07 157.56 16.57Q158.50 15.07 159.65 13.84Q160.80 12.60 162.19 11.74L162.19 11.74Q162.72 11.38 162.98 11.44Q163.25 11.50 163.44 11.78L163.44 11.78Q163.68 12.12 163.61 12.41Q163.54 12.70 163.06 12.98L163.06 12.98Q161.83 13.80 160.80 14.94Q159.77 16.08 158.96 17.44Q158.16 18.79 157.60 20.29Q157.03 21.79 156.73 23.38Q156.43 24.96 156.43 26.50L156.43 26.50Q156.43 28.15 156.85 29.47Q157.27 30.79 158.08 31.73Q158.88 32.66 160.06 33.16Q161.23 33.65 162.79 33.65L162.79 33.65Q164.45 33.65 166.00 33.02Q167.54 32.40 168.90 31.28Q170.26 30.17 171.37 28.69Q172.49 27.22 173.28 25.46Q174.07 23.71 174.50 21.83Q174.94 19.94 174.94 18.05L174.94 18.05Q174.94 16.39 174.65 15.18Q174.36 13.97 173.78 13.18Q173.21 12.38 172.34 12.01Q171.48 11.64 170.35 11.64L170.35 11.64Q169.39 11.64 168.53 11.96Q167.66 12.29 166.86 12.91Q166.06 13.54 165.32 14.39Q164.59 15.24 163.97 16.27L163.97 16.27Q163.73 16.63 163.43 16.68Q163.13 16.73 162.77 16.51L162.77 16.51Q162.50 16.34 162.49 16.04Q162.48 15.74 162.72 15.41L162.72 15.41Q163.49 14.16 164.40 13.16Q165.31 12.17 166.33 11.46Q167.35 10.75 168.47 10.38Q169.58 10.01 170.78 10.01L170.78 10.01Q172.27 10.01 173.39 10.54Q174.50 11.06 175.25 12.10Q175.99 13.13 176.38 14.62Q176.76 16.10 176.76 18.05L176.76 18.05Q176.76 20.18 176.26 22.31Q175.75 24.43 174.84 26.36Q173.93 28.30 172.64 29.92Q171.36 31.54 169.79 32.75Q168.22 33.96 166.40 34.63Q164.59 35.30 162.62 35.30ZM191.59 35.30L191.59 35.30Q190.18 35.30 188.82 34.85Q187.46 34.39 186.32 33.54Q185.18 32.69 184.37 31.42L184.37 31.42Q184.06 30.96 184.03 30.68Q184.01 30.41 184.39 30.17L184.39 30.17Q184.80 29.88 185.03 29.93Q185.26 29.98 185.52 30.36L185.52 30.36Q186.31 31.49 187.24 32.22Q188.16 32.95 189.28 33.32Q190.39 33.70 191.83 33.70L191.83 33.70Q193.46 33.70 194.74 33.22Q196.01 32.74 196.90 31.86Q197.78 30.98 198.23 29.80Q198.67 28.61 198.67 27.24L198.67 27.24Q198.67 25.80 198.10 24.73Q197.52 23.66 196.42 23.09Q195.31 22.51 193.75 22.51L193.75 22.51L192.10 22.51Q191.88 22.51 191.80 22.32Q191.71 22.13 191.81 21.72L191.81 21.72Q191.90 21.34 192.11 21.14Q192.31 20.95 192.53 20.95L192.53 20.95L194.14 20.95Q195.65 20.95 196.93 20.59Q198.22 20.23 199.16 19.52Q200.11 18.82 200.65 17.75Q201.19 16.68 201.19 15.31L201.19 15.31Q201.19 14.42 200.90 13.73Q200.62 13.03 200.05 12.55Q199.49 12.07 198.72 11.83Q197.95 11.59 196.99 11.59L196.99 11.59Q195.98 11.59 195.06 11.83Q194.14 12.07 193.25 12.54Q192.36 13.01 191.40 13.73L191.40 13.73Q191.02 14.02 190.75 14.02Q190.49 14.02 190.18 13.68L190.18 13.68Q189.89 13.39 189.95 13.13Q190.01 12.86 190.42 12.50L190.42 12.50Q191.28 11.78 192.37 11.22Q193.46 10.66 194.71 10.33Q195.96 10.01 197.28 10.01L197.28 10.01Q198.46 10.01 199.49 10.36Q200.52 10.70 201.31 11.38Q202.10 12.05 202.55 13.01Q202.99 13.97 202.99 15.19L202.99 15.19Q202.99 16.46 202.61 17.57Q202.22 18.67 201.46 19.55Q200.69 20.42 199.55 21.01Q198.41 21.60 196.90 21.89L196.90 21.89Q198.05 22.22 198.84 23.00Q199.63 23.78 200.08 24.86Q200.52 25.94 200.52 27.14L200.52 27.14Q200.52 28.87 199.88 30.36Q199.25 31.85 198.10 32.96Q196.94 34.08 195.30 34.69Q193.66 35.30 191.59 35.30ZM210.82 35.30L210.82 35.30Q208.99 35.30 207.59 34.52Q206.18 33.74 205.38 32.11Q204.58 30.48 204.58 27.94L204.58 27.94Q204.58 25.97 205.00 23.88Q205.42 21.79 206.20 19.78Q206.98 17.76 208.13 16.01Q209.28 14.26 210.73 12.90Q212.18 11.54 213.94 10.78Q215.69 10.01 217.68 10.01L217.68 10.01Q219.50 10.01 220.88 10.80Q222.26 11.59 223.07 13.19Q223.87 14.78 223.87 17.26L223.87 17.26Q223.87 19.25 223.45 21.36Q223.03 23.47 222.24 25.49Q221.45 27.50 220.32 29.29Q219.19 31.08 217.74 32.42Q216.29 33.77 214.55 34.54Q212.81 35.30 210.82 35.30ZM211.20 33.62L211.20 33.62Q212.76 33.62 214.16 32.93Q215.57 32.23 216.76 31.02Q217.94 29.81 218.93 28.24Q219.91 26.66 220.60 24.88Q221.28 23.09 221.65 21.24Q222.02 19.39 222.02 17.64L222.02 17.64Q222.02 15.46 221.44 14.15Q220.85 12.84 219.79 12.26Q218.74 11.69 217.30 11.69L217.30 11.69Q215.74 11.69 214.33 12.36Q212.93 13.03 211.72 14.24Q210.50 15.46 209.52 17.04Q208.54 18.62 207.85 20.40Q207.17 22.18 206.80 24.01Q206.42 25.85 206.42 27.55L206.42 27.55Q206.42 29.81 207.01 31.14Q207.60 32.47 208.68 33.05Q209.76 33.62 211.20 33.62ZM231.43 35.30L231.43 35.30Q229.61 35.30 228.20 34.52Q226.80 33.74 226.00 32.11Q225.19 30.48 225.19 27.94L225.19 27.94Q225.19 25.97 225.61 23.88Q226.03 21.79 226.81 19.78Q227.59 17.76 228.74 16.01Q229.90 14.26 231.35 12.90Q232.80 11.54 234.55 10.78Q236.30 10.01 238.30 10.01L238.30 10.01Q240.12 10.01 241.50 10.80Q242.88 11.59 243.68 13.19Q244.49 14.78 244.49 17.26L244.49 17.26Q244.49 19.25 244.07 21.36Q243.65 23.47 242.86 25.49Q242.06 27.50 240.94 29.29Q239.81 31.08 238.36 32.42Q236.90 33.77 235.16 34.54Q233.42 35.30 231.43 35.30ZM231.82 33.62L231.82 33.62Q233.38 33.62 234.78 32.93Q236.18 32.23 237.37 31.02Q238.56 29.81 239.54 28.24Q240.53 26.66 241.21 24.88Q241.90 23.09 242.27 21.24Q242.64 19.39 242.64 17.64L242.64 17.64Q242.64 15.46 242.05 14.15Q241.46 12.84 240.41 12.26Q239.35 11.69 237.91 11.69L237.91 11.69Q236.35 11.69 234.95 12.36Q233.54 13.03 232.33 14.24Q231.12 15.46 230.14 17.04Q229.15 18.62 228.47 20.40Q227.78 22.18 227.41 24.01Q227.04 25.85 227.04 27.55L227.04 27.55Q227.04 29.81 227.63 31.14Q228.22 32.47 229.30 33.05Q230.38 33.62 231.82 33.62ZM252.19 35.21L252.19 35.21Q251.88 35.21 251.62 35.06Q251.35 34.92 251.47 34.56L251.47 34.56L254.45 25.42Q254.66 24.67 254.52 24.30Q254.38 23.93 253.87 23.93L253.87 23.93Q253.46 23.93 253.08 24.18Q252.70 24.43 252.29 24.95Q251.88 25.46 251.42 26.26L251.42 26.26Q251.26 26.52 251.09 26.62Q250.92 26.71 250.56 26.66L250.56 26.66Q250.15 26.57 250.08 26.30Q250.01 26.04 250.15 25.75L250.15 25.75Q250.61 24.79 251.20 24.05Q251.78 23.30 252.50 22.88Q253.22 22.46 254.09 22.46L254.09 22.46Q254.71 22.46 255.14 22.64Q255.58 22.82 255.82 23.18Q256.06 23.54 256.15 24.02Q256.25 24.50 256.15 25.06L256.15 25.06L255.96 25.73Q256.61 24.84 257.29 24.23Q257.98 23.62 258.68 23.20Q259.39 22.78 260.10 22.58Q260.81 22.39 261.46 22.39L261.46 22.39Q262.73 22.39 263.44 22.97Q264.14 23.54 264.28 24.64Q264.41 25.73 263.93 27.24L263.93 27.24L262.32 32.11Q262.18 32.59 262.14 32.96Q262.10 33.34 262.26 33.55Q262.42 33.77 262.80 33.77L262.80 33.77Q263.14 33.77 263.47 33.58Q263.81 33.38 264.11 33.06Q264.41 32.74 264.60 32.45L264.60 32.45Q264.72 32.23 264.92 32.16Q265.13 32.09 265.46 32.30L265.46 32.30Q265.78 32.50 265.80 32.70Q265.82 32.90 265.70 33.14L265.70 33.14Q265.44 33.58 265.00 34.07Q264.55 34.56 263.94 34.90Q263.33 35.23 262.56 35.23L262.56 35.23Q261.72 35.23 261.24 34.92Q260.76 34.61 260.60 34.07Q260.45 33.53 260.52 32.82Q260.59 32.11 260.86 31.30L260.86 31.30L262.42 26.64Q262.70 25.80 262.63 25.19Q262.56 24.58 262.14 24.25Q261.72 23.93 260.90 23.93L260.90 23.93Q260.18 23.93 259.40 24.26Q258.62 24.60 257.83 25.26Q257.04 25.92 256.31 26.90Q255.58 27.89 254.95 29.18L254.95 29.18L253.15 34.68Q253.08 34.94 252.88 35.08Q252.67 35.21 252.19 35.21ZM272.04 35.30L272.04 35.30Q270.62 35.30 269.64 34.72Q268.66 34.13 268.16 33.08Q267.67 32.04 267.67 30.72L267.67 30.72Q267.67 29.42 268.16 28.04Q268.66 26.66 269.62 25.48Q270.58 24.29 271.98 23.57Q273.38 22.85 275.21 22.85L275.21 22.85L275.16 23.74Q273.72 23.74 272.65 24.40Q271.58 25.06 270.86 26.11Q270.14 27.17 269.78 28.36Q269.42 29.54 269.42 30.60L269.42 30.60Q269.42 31.58 269.76 32.29Q270.10 33 270.73 33.37Q271.37 33.74 272.23 33.74L272.23 33.74Q273.53 33.74 274.51 33.07Q275.50 32.40 276.14 31.34Q276.79 30.29 277.13 29.14Q277.46 27.98 277.46 26.98L277.46 26.98Q277.46 25.94 277.12 25.27Q276.77 24.60 276.18 24.25Q275.59 23.90 274.85 23.90L274.85 23.90Q273.91 23.90 273.34 24.25Q272.76 24.60 272.76 25.20L272.76 25.20Q272.76 25.56 272.99 25.81Q273.22 26.06 273.66 26.20Q274.10 26.33 274.78 26.33L274.78 26.33Q275.64 26.33 276.64 26.04Q277.63 25.75 278.87 25.14Q280.10 24.53 281.64 23.59L281.64 23.59Q281.90 23.42 282.10 23.51Q282.29 23.59 282.37 23.82Q282.46 24.05 282.42 24.28Q282.38 24.50 282.19 24.62L282.19 24.62Q280.63 25.68 279.30 26.35Q277.97 27.02 276.82 27.32Q275.66 27.62 274.58 27.62L274.58 27.62Q273.48 27.62 272.72 27.34Q271.97 27.05 271.56 26.51Q271.15 25.97 271.15 25.30L271.15 25.30Q271.15 24.46 271.67 23.81Q272.18 23.16 273.06 22.78Q273.94 22.39 274.99 22.39L274.99 22.39Q276.29 22.39 277.25 22.92Q278.21 23.45 278.74 24.43Q279.26 25.42 279.26 26.81L279.26 26.81Q279.26 27.79 278.99 28.93Q278.71 30.07 278.15 31.20Q277.58 32.33 276.72 33.25Q275.86 34.18 274.68 34.74Q273.50 35.30 272.04 35.30ZM276.94 35.26L276.94 35.26Q276.58 35.26 276.46 35.03Q276.34 34.80 276.40 34.51Q276.46 34.22 276.71 34.00Q276.96 33.77 277.34 33.77L277.34 33.77Q278.16 33.77 278.99 33.24Q279.82 32.71 280.73 31.55Q281.64 30.38 282.59 28.52Q283.54 26.66 284.57 24L284.57 24L285.70 24.60Q284.52 27.65 283.44 29.71Q282.36 31.78 281.32 33Q280.27 34.22 279.19 34.74Q278.11 35.26 276.94 35.26ZM290.21 35.23L290.21 35.23Q289.44 35.23 288.96 34.98Q288.48 34.73 288.28 34.26Q288.07 33.79 288.12 33.17Q288.17 32.54 288.38 31.82L288.38 31.82Q288.58 31.25 288.90 30.50Q289.22 29.76 289.57 28.96Q289.92 28.15 290.24 27.34Q290.57 26.52 290.78 25.80L290.78 25.80Q291.02 24.91 290.77 24.59Q290.52 24.26 290.02 24.26L290.02 24.26Q289.42 24.26 288.67 24.48Q287.93 24.70 287.15 24.91Q286.37 25.13 285.65 25.13L285.65 25.13Q285.17 25.13 284.84 24.85Q284.52 24.58 284.36 24.13Q284.21 23.69 284.21 23.11L284.21 23.11Q284.21 22.61 284.38 22.15Q284.54 21.70 284.88 21.40Q285.22 21.10 285.67 21.10L285.67 21.10Q286.13 21.10 286.34 21.37Q286.56 21.65 286.56 22.03L286.56 22.03Q286.56 22.39 286.43 22.84Q286.30 23.28 286.08 23.62L286.08 23.62Q286.63 23.64 287.38 23.39Q288.12 23.14 288.96 22.88Q289.80 22.63 290.62 22.63L290.62 22.63Q291.31 22.63 291.83 22.96Q292.34 23.28 292.52 24.02Q292.70 24.77 292.37 25.99L292.37 25.99Q292.20 26.66 291.88 27.47Q291.55 28.27 291.19 29.11Q290.83 29.95 290.50 30.74Q290.16 31.54 289.94 32.23L289.94 32.23Q289.68 33.05 289.82 33.41Q289.97 33.77 290.42 33.77L290.42 33.77Q290.78 33.77 291.12 33.58Q291.46 33.38 291.74 33.06Q292.03 32.74 292.25 32.45L292.25 32.45Q292.37 32.23 292.58 32.17Q292.80 32.11 293.11 32.30L293.11 32.30Q293.42 32.50 293.45 32.70Q293.47 32.90 293.33 33.14L293.33 33.14Q293.09 33.58 292.64 34.07Q292.20 34.56 291.59 34.90Q290.98 35.23 290.21 35.23ZM295.99 35.21L295.99 35.21Q295.66 35.21 295.40 35.06Q295.15 34.92 295.27 34.56L295.27 34.56L298.25 25.42Q298.46 24.67 298.32 24.30Q298.18 23.93 297.67 23.93L297.67 23.93Q297.26 23.93 296.88 24.18Q296.50 24.43 296.09 24.95Q295.68 25.46 295.22 26.26L295.22 26.26Q295.06 26.52 294.89 26.62Q294.72 26.71 294.36 26.66L294.36 26.66Q293.95 26.57 293.88 26.30Q293.81 26.04 293.95 25.75L293.95 25.75Q294.41 24.79 295.00 24.05Q295.58 23.30 296.30 22.88Q297.02 22.46 297.89 22.46L297.89 22.46Q298.51 22.46 298.93 22.64Q299.35 22.82 299.60 23.17Q299.86 23.52 299.95 24Q300.05 24.48 299.95 25.06L299.95 25.06L299.78 25.68Q300.41 24.79 301.08 24.18Q301.75 23.57 302.45 23.17Q303.14 22.78 303.82 22.58Q304.49 22.39 305.14 22.39L305.14 22.39Q306.36 22.39 307.02 23.02Q307.68 23.64 307.76 24.73Q307.85 25.82 307.37 27.24L307.37 27.24L304.97 34.68Q304.85 34.94 304.66 35.08Q304.46 35.21 304.01 35.21L304.01 35.21Q303.67 35.21 303.42 35.06Q303.17 34.92 303.29 34.56L303.29 34.56L305.86 26.64Q306.12 25.87 306.12 25.27Q306.12 24.67 305.75 24.30Q305.38 23.93 304.54 23.93L304.54 23.93Q303.84 23.93 303.08 24.26Q302.33 24.60 301.57 25.27Q300.82 25.94 300.10 26.92Q299.38 27.89 298.75 29.16L298.75 29.16L296.95 34.68Q296.88 34.94 296.66 35.08Q296.45 35.21 295.99 35.21ZM313.99 35.23L313.99 35.23Q313.13 35.23 312.65 34.92Q312.17 34.61 312.01 34.07Q311.86 33.53 311.95 32.82Q312.05 32.11 312.29 31.30L312.29 31.30L313.82 26.64Q314.09 25.87 314.08 25.27Q314.06 24.67 313.70 24.30Q313.34 23.93 312.53 23.93L312.53 23.93Q311.83 23.93 311.05 24.28Q310.27 24.62 309.50 25.32Q308.74 26.02 308.00 27.04Q307.27 28.06 306.62 29.40L306.62 29.40L305.90 29.40Q306.53 27.62 307.38 26.30Q308.23 24.98 309.20 24.11Q310.18 23.23 311.18 22.81Q312.19 22.39 313.10 22.39L313.10 22.39Q314.38 22.39 315 23.02Q315.62 23.64 315.72 24.73Q315.82 25.82 315.36 27.24L315.36 27.24L313.78 32.11Q313.61 32.59 313.57 32.96Q313.54 33.34 313.69 33.55Q313.85 33.77 314.21 33.77L314.21 33.77Q314.57 33.77 314.90 33.58Q315.24 33.38 315.54 33.06Q315.84 32.74 316.03 32.45L316.03 32.45Q316.15 32.23 316.36 32.16Q316.56 32.09 316.87 32.30L316.87 32.30Q317.21 32.50 317.22 32.71Q317.23 32.93 317.14 33.14L317.14 33.14Q316.87 33.58 316.43 34.07Q315.98 34.56 315.37 34.90Q314.76 35.23 313.99 35.23ZM322.27 35.26L322.27 35.26Q321.24 35.26 320.51 34.79Q319.78 34.32 319.38 33.43Q318.98 32.54 318.98 31.34L318.98 31.34Q318.98 30.26 319.28 29.04Q319.58 27.82 320.21 26.64Q320.83 25.46 321.76 24.50Q322.68 23.54 323.93 22.97Q325.18 22.39 326.74 22.39L326.74 22.39Q327.53 22.39 328.33 22.64Q329.14 22.90 329.83 23.33L329.83 23.33L329.90 23.06Q330.05 22.73 330.24 22.61Q330.43 22.49 330.79 22.49L330.79 22.49Q331.39 22.49 331.55 22.69Q331.70 22.90 331.58 23.28L331.58 23.28L328.68 32.14Q328.54 32.59 328.51 32.96Q328.49 33.34 328.64 33.55Q328.80 33.77 329.16 33.77L329.16 33.77Q329.52 33.77 329.84 33.58Q330.17 33.38 330.46 33.07Q330.74 32.76 330.96 32.45L330.96 32.45Q331.08 32.23 331.30 32.17Q331.51 32.11 331.82 32.30L331.82 32.30Q332.14 32.50 332.16 32.71Q332.18 32.93 332.06 33.17L332.06 33.17Q331.82 33.60 331.38 34.09Q330.94 34.58 330.32 34.91Q329.71 35.23 328.94 35.23L328.94 35.23Q328.30 35.23 327.89 35.04Q327.48 34.85 327.25 34.51Q327.02 34.18 326.95 33.73Q326.88 33.29 326.93 32.78L326.93 32.78Q326.95 32.64 326.99 32.50Q327.02 32.35 327.07 32.21L327.07 32.21Q326.21 33.36 325.33 34.03Q324.46 34.70 323.68 34.98Q322.90 35.26 322.27 35.26ZM320.76 31.15L320.76 31.15Q320.76 31.97 320.98 32.52Q321.19 33.07 321.65 33.38Q322.10 33.70 322.78 33.70L322.78 33.70Q323.59 33.70 324.48 33.16Q325.37 32.62 326.27 31.54Q327.17 30.46 328.03 28.90L328.03 28.90L329.38 24.67Q328.66 24.22 328.00 24.07Q327.34 23.93 326.71 23.93L326.71 23.93Q325.46 23.93 324.48 24.41Q323.50 24.89 322.80 25.68Q322.10 26.47 321.65 27.43Q321.19 28.39 320.98 29.36Q320.76 30.34 320.76 31.15ZM329.26 35.26L329.26 35.26Q328.90 35.26 328.79 35.03Q328.68 34.80 328.74 34.51Q328.80 34.22 329.05 34.00Q329.30 33.77 329.66 33.77L329.66 33.77Q330.41 33.77 331.39 33.26Q332.38 32.76 333.48 31.82Q334.58 30.89 335.76 29.68Q336.94 28.46 338.08 27.01Q339.22 25.56 340.30 24.01Q341.38 22.46 342.28 20.92Q343.18 19.37 343.86 17.92Q344.54 16.46 344.93 15.18Q345.31 13.90 345.31 12.89L345.31 12.89Q345.31 12.58 345.56 12.42Q345.82 12.26 346.15 12.26Q346.49 12.26 346.74 12.42Q346.99 12.58 346.99 12.89L346.99 12.89Q346.99 13.92 346.60 15.29Q346.20 16.66 345.44 18.22Q344.69 19.78 343.68 21.44Q342.67 23.11 341.48 24.78Q340.30 26.45 339 27.98Q337.70 29.52 336.38 30.84Q335.06 32.16 333.79 33.16Q332.52 34.15 331.37 34.70Q330.22 35.26 329.26 35.26ZM336.84 35.23L336.84 35.23Q335.98 35.23 335.50 34.92Q335.02 34.61 334.86 34.07Q334.70 33.53 334.78 32.81Q334.85 32.09 335.09 31.30L335.09 31.30L340.70 13.99Q341.40 11.86 342.34 10.88Q343.27 9.91 344.57 9.91L344.57 9.91Q345.34 9.91 345.88 10.28Q346.42 10.66 346.70 11.32Q346.99 11.98 346.99 12.89L346.99 12.89Q346.99 13.27 346.74 13.45Q346.49 13.63 346.15 13.63Q345.82 13.63 345.56 13.45Q345.31 13.27 345.31 12.89L345.31 12.89Q345.31 12.46 345.19 12.16Q345.07 11.86 344.86 11.70Q344.64 11.54 344.30 11.54L344.30 11.54Q343.97 11.54 343.63 11.81Q343.30 12.07 342.97 12.66Q342.65 13.25 342.31 14.28L342.31 14.28L336.60 32.11Q336.46 32.57 336.42 32.95Q336.38 33.34 336.54 33.55Q336.70 33.77 337.03 33.77L337.03 33.77Q337.42 33.77 337.75 33.58Q338.09 33.38 338.38 33.06Q338.66 32.74 338.88 32.45L338.88 32.45Q338.98 32.23 339.19 32.16Q339.41 32.09 339.72 32.30L339.72 32.30Q340.06 32.50 340.07 32.70Q340.08 32.90 339.96 33.14L339.96 33.14Q339.70 33.58 339.25 34.07Q338.81 34.56 338.21 34.90Q337.61 35.23 336.84 35.23Z"/></svg>