<svg xmlns="http://www.w3.org/2000/svg" xmlns:xlink="http://www.w3.org/1999/xlink" width="405.9839999999999" height="36.72"><path fill="black" d="M7.85 25.68L1.51 25.68L1.51 24.48L3.96 24.48L3.96 10.13L1.51 10.13L1.51 8.93L7.85 8.93L7.85 10.13L5.40 10.13L5.40 24.48L7.85 24.48L7.85 25.68ZM11.74 25.68L11.74 8.93L18.29 8.93Q20.26 8.93 21.37 10.04Q22.49 11.16 22.49 13.15L22.49 13.15Q22.49 14.02 22.26 14.66Q22.03 15.31 21.67 15.74Q21.31 16.18 20.84 16.44Q20.38 16.70 19.92 16.80L19.92 16.80L19.92 16.90Q20.50 16.97 21.07 17.24Q21.65 17.52 22.10 18.01Q22.56 18.50 22.85 19.24Q23.14 19.97 23.14 20.95L23.14 20.95Q23.14 21.98 22.84 22.85Q22.54 23.71 21.97 24.35Q21.41 24.98 20.63 25.33Q19.85 25.68 18.89 25.68L18.89 25.68L11.74 25.68ZM13.18 17.59L13.18 24.41L18.50 24.41Q20.02 24.41 20.81 23.58Q21.60 22.75 21.60 21.43L21.60 21.43L21.60 20.54Q21.60 19.25 20.81 18.42Q20.02 17.59 18.50 17.59L18.50 17.59L13.18 17.59ZM13.18 10.20L13.18 16.34L18.14 16.34Q19.51 16.34 20.23 15.61Q20.95 14.88 20.95 13.73L20.95 13.73L20.95 12.82Q20.95 11.66 20.23 10.93Q19.51 10.20 18.14 10.20L18.14 10.20L13.18 10.20ZM40.20 25.68L40.20 10.78L40.10 10.78L34.32 21.02L28.54 10.78L28.44 10.78L28.44 25.68L27.05 25.68L27.05 8.93L29.02 8.93L34.32 18.36L34.39 18.36L39.70 8.93L41.59 8.93L41.59 25.68L40.20 25.68ZM53.45 25.68L52.01 25.68L52.01 8.93L58.58 8.93Q60.77 8.93 61.92 10.19Q63.07 11.45 63.07 13.61L63.07 13.61Q63.07 15.79 61.92 17.05Q60.77 18.31 58.58 18.31L58.58 18.31L53.45 18.31L53.45 25.68ZM53.45 10.20L53.45 17.04L58.58 17.04Q60.02 17.04 60.78 16.24Q61.54 15.43 61.54 14.18L61.54 14.18L61.54 13.03Q61.54 11.81 60.78 11.00Q60.02 10.20 58.58 10.20L58.58 10.20L53.45 10.20ZM69.55 25.68L67.80 25.68Q67.06 25.68 66.67 25.27Q66.29 24.86 66.29 24.19L66.29 24.19L66.29 7.92L67.66 7.92L67.66 24.48L69.55 24.48L69.55 25.68ZM77.02 25.97L77.02 25.97Q75.79 25.97 74.80 25.54Q73.80 25.10 73.09 24.28Q72.38 23.45 72.01 22.25Q71.64 21.05 71.64 19.54L71.64 19.54Q71.64 18.02 72.01 16.84Q72.38 15.65 73.09 14.82Q73.80 13.99 74.78 13.55Q75.77 13.10 76.99 13.10L76.99 13.10Q78.17 13.10 79.13 13.55Q80.09 13.99 80.76 14.78Q81.43 15.58 81.80 16.69Q82.18 17.81 82.18 19.15L82.18 19.15L82.18 19.80L73.08 19.80L73.08 20.40Q73.08 21.36 73.36 22.16Q73.63 22.97 74.15 23.54Q74.66 24.12 75.41 24.44Q76.15 24.77 77.09 24.77L77.09 24.77Q79.78 24.77 80.81 22.30L80.81 22.30L81.82 22.97Q81.24 24.34 80.00 25.15Q78.77 25.97 77.02 25.97ZM76.99 14.26L76.99 14.26Q76.10 14.26 75.38 14.58Q74.66 14.90 74.15 15.48Q73.63 16.06 73.36 16.86Q73.08 17.66 73.08 18.62L73.08 18.62L73.08 18.74L80.69 18.74L80.69 18.55Q80.69 17.59 80.42 16.79Q80.16 15.98 79.67 15.43Q79.18 14.88 78.49 14.57Q77.81 14.26 76.99 14.26ZM85.32 25.68L83.78 25.68L88.34 19.49L83.95 13.39L85.56 13.39L89.06 18.41L89.14 18.41L92.71 13.39L94.25 13.39L89.88 19.39L94.37 25.68L92.76 25.68L89.14 20.50L89.09 20.50L85.32 25.68ZM107.47 25.97L107.47 25.97Q105.41 25.97 104.03 25.19Q102.65 24.41 101.66 23.11L101.66 23.11L102.74 22.22Q103.63 23.40 104.75 24.05Q105.86 24.70 107.52 24.70L107.52 24.70Q109.46 24.70 110.51 23.77Q111.55 22.85 111.55 21.19L111.55 21.19Q111.55 19.66 110.66 18.94Q109.78 18.22 108.17 17.88L108.17 17.88L106.68 17.57Q104.28 17.09 103.20 15.96Q102.12 14.83 102.12 13.08L102.12 13.08Q102.12 11.98 102.50 11.15Q102.89 10.32 103.60 9.77Q104.30 9.22 105.30 8.93Q106.30 8.64 107.50 8.64L107.50 8.64Q109.37 8.64 110.66 9.31Q111.96 9.98 112.80 11.21L112.80 11.21L111.72 12Q111.02 10.99 109.98 10.45Q108.94 9.91 107.42 9.91L107.42 9.91Q105.62 9.91 104.58 10.69Q103.54 11.47 103.54 13.03L103.54 13.03Q103.54 14.52 104.47 15.22Q105.41 15.91 106.97 16.22L106.97 16.22L108.46 16.54Q110.95 17.09 111.96 18.24Q112.97 19.39 112.97 21.12L112.97 21.12Q112.97 23.42 111.50 24.70Q110.04 25.97 107.47 25.97ZM126.36 25.68L124.97 25.68Q124.18 25.68 123.82 25.27Q123.46 24.86 123.41 24.17L123.41 24.17L123.41 23.74L123.29 23.74Q122.88 24.77 121.94 25.37Q121.01 25.97 119.57 25.97L119.57 25.97Q117.62 25.97 116.57 25.02Q115.51 24.07 115.51 22.34L115.51 22.34Q115.51 20.71 116.68 19.75Q117.84 18.79 120.50 18.79L120.50 18.79L123.34 18.79L123.34 17.35Q123.34 14.30 120.19 14.30L120.19 14.30Q118.97 14.30 118.15 14.82Q117.34 15.34 116.83 16.30L116.83 16.30L115.97 15.58Q116.47 14.50 117.52 13.80Q118.56 13.10 120.24 13.10L120.24 13.10Q122.40 13.10 123.55 14.18Q124.70 15.26 124.70 17.21L124.70 17.21L124.70 24.48L126.36 24.48L126.36 25.68ZM119.76 24.79L119.76 24.79Q120.50 24.79 121.15 24.60Q121.80 24.41 122.29 24.06Q122.78 23.71 123.06 23.22Q123.34 22.73 123.34 22.10L123.34 22.10L123.34 19.82L120.46 19.82Q118.61 19.82 117.78 20.41Q116.95 21 116.95 22.03L116.95 22.03L116.95 22.61Q116.95 23.69 117.72 24.24Q118.49 24.79 119.76 24.79ZM130.54 25.68L129.17 25.68L129.17 13.39L130.54 13.39L130.54 15.34L130.61 15.34Q131.02 14.38 131.88 13.74Q132.74 13.10 134.23 13.10L134.23 13.10Q136.20 13.10 137.29 14.32Q138.38 15.53 138.38 17.78L138.38 17.78L138.38 25.68L137.02 25.68L137.02 18.02Q137.02 16.15 136.21 15.24Q135.41 14.33 133.87 14.33L133.87 14.33Q133.22 14.33 132.62 14.50Q132.02 14.66 131.56 15Q131.09 15.34 130.81 15.85Q130.54 16.37 130.54 17.04L130.54 17.04L130.54 25.68ZM146.16 25.97L146.16 25.97Q144.55 25.97 143.41 25.37Q142.27 24.77 141.43 23.62L141.43 23.62L142.44 22.82Q143.21 23.83 144.12 24.31Q145.03 24.79 146.26 24.79L146.26 24.79Q147.67 24.79 148.44 24.19Q149.21 23.59 149.21 22.46L149.21 22.46Q149.21 21.48 148.62 20.92Q148.03 20.35 146.69 20.16L146.69 20.16L145.68 19.99Q144.84 19.87 144.14 19.63Q143.45 19.39 142.96 18.98Q142.46 18.58 142.19 17.99Q141.91 17.40 141.91 16.56L141.91 16.56Q141.91 15.70 142.24 15.05Q142.56 14.40 143.11 13.97Q143.66 13.54 144.43 13.32Q145.20 13.10 146.09 13.10L146.09 13.10Q147.62 13.10 148.61 13.63Q149.59 14.16 150.29 15L150.29 15L149.38 15.84Q148.90 15.26 148.09 14.77Q147.29 14.28 146.02 14.28L146.02 14.28Q144.70 14.28 143.96 14.86Q143.23 15.43 143.23 16.49L143.23 16.49Q143.23 17.57 143.89 18.05Q144.55 18.53 145.87 18.74L145.87 18.74L146.86 18.89Q148.73 19.18 149.63 20.00Q150.53 20.83 150.53 22.32L150.53 22.32Q150.53 24.05 149.36 25.01Q148.20 25.97 146.16 25.97ZM159.94 25.68L159.94 8.93L165.26 8.93Q168.50 8.93 170.27 11.02Q172.03 13.10 172.03 17.30L172.03 17.30Q172.03 21.50 170.27 23.59Q168.50 25.68 165.26 25.68L165.26 25.68L159.94 25.68ZM161.38 24.41L165.29 24.41Q167.76 24.41 169.13 22.81Q170.50 21.22 170.50 18.41L170.50 18.41L170.50 16.20Q170.50 13.39 169.13 11.80Q167.76 10.20 165.29 10.20L165.29 10.20L161.38 10.20L161.38 24.41ZM180.17 25.97L180.17 25.97Q178.94 25.97 177.95 25.54Q176.95 25.10 176.24 24.28Q175.54 23.45 175.16 22.25Q174.79 21.05 174.79 19.54L174.79 19.54Q174.79 18.02 175.16 16.84Q175.54 15.65 176.24 14.82Q176.95 13.99 177.94 13.55Q178.92 13.10 180.14 13.10L180.14 13.10Q181.32 13.10 182.28 13.55Q183.24 13.99 183.91 14.78Q184.58 15.58 184.96 16.69Q185.33 17.81 185.33 19.15L185.33 19.15L185.33 19.80L176.23 19.80L176.23 20.40Q176.23 21.36 176.51 22.16Q176.78 22.97 177.30 23.54Q177.82 24.12 178.56 24.44Q179.30 24.77 180.24 24.77L180.24 24.77Q182.93 24.77 183.96 22.30L183.96 22.30L184.97 22.97Q184.39 24.34 183.16 25.15Q181.92 25.97 180.17 25.97ZM180.14 14.26L180.14 14.26Q179.26 14.26 178.54 14.58Q177.82 14.90 177.30 15.48Q176.78 16.06 176.51 16.86Q176.23 17.66 176.23 18.62L176.23 18.62L176.23 18.74L183.84 18.74L183.84 18.55Q183.84 17.59 183.58 16.79Q183.31 15.98 182.82 15.43Q182.33 14.88 181.64 14.57Q180.96 14.26 180.14 14.26ZM191.40 25.68L186.96 13.39L188.40 13.39L192.17 24.22L192.26 24.22L196.01 13.39L197.40 13.39L192.96 25.68L191.40 25.68ZM209.74 25.68L208.34 25.68Q207.55 25.68 207.19 25.27Q206.83 24.86 206.78 24.17L206.78 24.17L206.78 23.74L206.66 23.74Q206.26 24.77 205.32 25.37Q204.38 25.97 202.94 25.97L202.94 25.97Q201.00 25.97 199.94 25.02Q198.89 24.07 198.89 22.34L198.89 22.34Q198.89 20.71 200.05 19.75Q201.22 18.79 203.88 18.79L203.88 18.79L206.71 18.79L206.71 17.35Q206.71 14.30 203.57 14.30L203.57 14.30Q202.34 14.30 201.53 14.82Q200.71 15.34 200.21 16.30L200.21 16.30L199.34 15.58Q199.85 14.50 200.89 13.80Q201.94 13.10 203.62 13.10L203.62 13.10Q205.78 13.10 206.93 14.18Q208.08 15.26 208.08 17.21L208.08 17.21L208.08 24.48L209.74 24.48L209.74 25.68ZM203.14 24.79L203.14 24.79Q203.88 24.79 204.53 24.60Q205.18 24.41 205.67 24.06Q206.16 23.71 206.44 23.22Q206.71 22.73 206.71 22.10L206.71 22.10L206.71 19.82L203.83 19.82Q201.98 19.82 201.16 20.41Q200.33 21 200.33 22.03L200.33 22.03L200.33 22.61Q200.33 23.69 201.10 24.24Q201.86 24.79 203.14 24.79ZM213.91 25.68L212.54 25.68L212.54 13.39L213.91 13.39L213.91 15.34L213.98 15.34Q214.39 14.38 215.26 13.74Q216.12 13.10 217.61 13.10L217.61 13.10Q219.58 13.10 220.67 14.32Q221.76 15.53 221.76 17.78L221.76 17.78L221.76 25.68L220.39 25.68L220.39 18.02Q220.39 16.15 219.59 15.24Q218.78 14.33 217.25 14.33L217.25 14.33Q216.60 14.33 216.00 14.50Q215.40 14.66 214.93 15Q214.46 15.34 214.19 15.85Q213.91 16.37 213.91 17.04L213.91 17.04L213.91 25.68ZM235.90 25.68L234.50 25.68Q233.71 25.68 233.35 25.27Q232.99 24.86 232.94 24.17L232.94 24.17L232.94 23.74L232.82 23.74Q232.42 24.77 231.48 25.37Q230.54 25.97 229.10 25.97L229.10 25.97Q227.16 25.97 226.10 25.02Q225.05 24.07 225.05 22.34L225.05 22.34Q225.05 20.71 226.21 19.75Q227.38 18.79 230.04 18.79L230.04 18.79L232.87 18.79L232.87 17.35Q232.87 14.30 229.73 14.30L229.73 14.30Q228.50 14.30 227.69 14.82Q226.87 15.34 226.37 16.30L226.37 16.30L225.50 15.58Q226.01 14.50 227.05 13.80Q228.10 13.10 229.78 13.10L229.78 13.10Q231.94 13.10 233.09 14.18Q234.24 15.26 234.24 17.21L234.24 17.21L234.24 24.48L235.90 24.48L235.90 25.68ZM229.30 24.79L229.30 24.79Q230.04 24.79 230.69 24.60Q231.34 24.41 231.83 24.06Q232.32 23.71 232.60 23.22Q232.87 22.73 232.87 22.10L232.87 22.10L232.87 19.82L229.99 19.82Q228.14 19.82 227.32 20.41Q226.49 21 226.49 22.03L226.49 22.03L226.49 22.61Q226.49 23.69 227.26 24.24Q228.02 24.79 229.30 24.79ZM248.78 27.12L248.78 27.12Q248.78 28.99 247.28 29.88Q245.78 30.77 242.88 30.77L242.88 30.77Q240.07 30.77 238.82 29.95Q237.58 29.14 237.58 27.70L237.58 27.70Q237.58 26.64 238.13 26.02Q238.68 25.39 239.69 25.10L239.69 25.10L239.69 24.91Q238.54 24.46 238.54 23.23L238.54 23.23Q238.54 22.32 239.14 21.84Q239.74 21.36 240.62 21.12L240.62 21.12L240.62 21.02Q239.54 20.54 238.94 19.58Q238.34 18.62 238.34 17.28L238.34 17.28Q238.34 16.34 238.66 15.58Q238.97 14.81 239.56 14.26Q240.14 13.70 240.97 13.40Q241.80 13.10 242.81 13.10L242.81 13.10Q244.22 13.10 245.28 13.70L245.28 13.70L245.28 13.10Q245.28 12.55 245.54 12.20Q245.81 11.86 246.41 11.86L246.41 11.86L248.52 11.86L248.52 13.06L246.02 13.06L246.02 14.23Q246.65 14.78 246.98 15.56Q247.32 16.34 247.32 17.28L247.32 17.28Q247.32 18.22 247.00 18.98Q246.67 19.75 246.08 20.32Q245.50 20.88 244.67 21.18Q243.84 21.48 242.83 21.48L242.83 21.48Q242.50 21.48 242.18 21.43Q241.87 21.38 241.56 21.34L241.56 21.34Q240.77 21.55 240.25 21.92Q239.74 22.30 239.74 22.92L239.74 22.92Q239.74 24.02 241.70 24.02L241.70 24.02L244.56 24.02Q246.79 24.02 247.79 24.85Q248.78 25.68 248.78 27.12ZM247.46 27.22L247.46 27.22Q247.46 26.33 246.83 25.81Q246.19 25.30 244.56 25.30L244.56 25.30L240.58 25.30Q239.78 25.56 239.33 26.09Q238.87 26.62 238.87 27.41L238.87 27.41Q238.87 28.37 239.66 29.00Q240.46 29.64 242.06 29.64L242.06 29.64L243.60 29.64Q245.40 29.64 246.43 29.05Q247.46 28.46 247.46 27.22ZM242.83 20.38L242.83 20.38Q244.25 20.38 245.05 19.67Q245.86 18.96 245.86 17.66L245.86 17.66L245.86 16.90Q245.86 15.62 245.05 14.92Q244.25 14.21 242.83 14.21L242.83 14.21Q241.39 14.21 240.60 14.92Q239.81 15.62 239.81 16.90L239.81 16.90L239.81 17.66Q239.81 18.96 240.61 19.67Q241.42 20.38 242.83 20.38ZM261.19 25.68L259.80 25.68Q259.01 25.68 258.65 25.27Q258.29 24.86 258.24 24.17L258.24 24.17L258.24 23.74L258.12 23.74Q257.71 24.77 256.78 25.37Q255.84 25.97 254.40 25.97L254.40 25.97Q252.46 25.97 251.40 25.02Q250.34 24.07 250.34 22.34L250.34 22.34Q250.34 20.71 251.51 19.75Q252.67 18.79 255.34 18.79L255.34 18.79L258.17 18.79L258.17 17.35Q258.17 14.30 255.02 14.30L255.02 14.30Q253.80 14.30 252.98 14.82Q252.17 15.34 251.66 16.30L251.66 16.30L250.80 15.58Q251.30 14.50 252.35 13.80Q253.39 13.10 255.07 13.10L255.07 13.10Q257.23 13.10 258.38 14.18Q259.54 15.26 259.54 17.21L259.54 17.21L259.54 24.48L261.19 24.48L261.19 25.68ZM254.59 24.79L254.59 24.79Q255.34 24.79 255.98 24.60Q256.63 24.41 257.12 24.06Q257.62 23.71 257.89 23.22Q258.17 22.73 258.17 22.10L258.17 22.10L258.17 19.82L255.29 19.82Q253.44 19.82 252.61 20.41Q251.78 21 251.78 22.03L251.78 22.03L251.78 22.61Q251.78 23.69 252.55 24.24Q253.32 24.79 254.59 24.79ZM265.37 25.68L264.00 25.68L264.00 13.39L265.37 13.39L265.37 15.60L265.46 15.60Q265.82 14.74 266.69 14.06Q267.55 13.39 269.14 13.39L269.14 13.39L269.95 13.39L269.95 14.74L268.87 14.74Q267.34 14.74 266.35 15.41Q265.37 16.08 265.37 17.28L265.37 17.28L265.37 25.68ZM273.24 10.06L273.24 10.06Q272.76 10.06 272.53 9.82Q272.30 9.58 272.30 9.19L272.30 9.19L272.30 8.95Q272.30 8.57 272.53 8.33Q272.76 8.09 273.24 8.09L273.24 8.09Q273.72 8.09 273.95 8.33Q274.18 8.57 274.18 8.95L274.18 8.95L274.18 9.19Q274.18 9.58 273.95 9.82Q273.72 10.06 273.24 10.06ZM272.57 25.68L272.57 13.39L273.94 13.39L273.94 25.68L272.57 25.68ZM286.27 16.27L288.26 16.27Q289.99 16.27 290.96 15.42Q291.94 14.57 291.94 13.20L291.94 13.20L291.94 12.89Q291.94 11.47 291 10.70Q290.06 9.94 288.60 9.94L288.60 9.94Q287.14 9.94 286.26 10.52Q285.38 11.11 284.86 12.12L284.86 12.12L283.78 11.35Q284.06 10.82 284.50 10.33Q284.93 9.84 285.52 9.46Q286.10 9.07 286.87 8.86Q287.64 8.64 288.62 8.64L288.62 8.64Q289.66 8.64 290.54 8.93Q291.43 9.22 292.08 9.76Q292.73 10.30 293.10 11.08Q293.47 11.86 293.47 12.84L293.47 12.84Q293.47 14.54 292.54 15.50Q291.60 16.46 290.21 16.80L290.21 16.80L290.21 16.90Q290.95 17.02 291.60 17.34Q292.25 17.66 292.74 18.19Q293.23 18.72 293.52 19.46Q293.81 20.21 293.81 21.14L293.81 21.14Q293.81 22.22 293.42 23.12Q293.04 24.02 292.33 24.65Q291.62 25.27 290.63 25.62Q289.63 25.97 288.41 25.97L288.41 25.97Q286.39 25.97 285.14 25.19Q283.90 24.41 283.10 23.23L283.10 23.23L284.18 22.42Q284.88 23.50 285.85 24.08Q286.82 24.67 288.38 24.67L288.38 24.67Q290.21 24.67 291.24 23.77Q292.27 22.87 292.27 21.29L292.27 21.29L292.27 20.90Q292.27 19.32 291.26 18.42Q290.26 17.52 288.38 17.52L288.38 17.52L286.27 17.52L286.27 16.27ZM303.43 25.97L303.43 25.97Q297.77 25.97 297.77 17.30L297.77 17.30Q297.77 8.64 303.43 8.64L303.43 8.64Q309.10 8.64 309.10 17.30L309.10 17.30Q309.10 25.97 303.43 25.97ZM303.43 24.72L303.43 24.72Q305.54 24.72 306.56 23.04Q307.58 21.36 307.58 18.43L307.58 18.43L307.58 16.18Q307.58 13.25 306.56 11.57Q305.54 9.89 303.43 9.89L303.43 9.89Q301.30 9.89 300.29 11.57Q299.28 13.25 299.28 16.18L299.28 16.18L299.28 18.43Q299.28 21.36 300.29 23.04Q301.30 24.72 303.43 24.72ZM317.83 25.97L317.83 25.97Q312.17 25.97 312.17 17.30L312.17 17.30Q312.17 8.64 317.83 8.64L317.83 8.64Q323.50 8.64 323.50 17.30L323.50 17.30Q323.50 25.97 317.83 25.97ZM317.83 24.72L317.83 24.72Q319.94 24.72 320.96 23.04Q321.98 21.36 321.98 18.43L321.98 18.43L321.98 16.18Q321.98 13.25 320.96 11.57Q319.94 9.89 317.83 9.89L317.83 9.89Q315.70 9.89 314.69 11.57Q313.68 13.25 313.68 16.18L313.68 16.18L313.68 18.43Q313.68 21.36 314.69 23.04Q315.70 24.72 317.83 24.72ZM334.30 25.68L332.93 25.68L332.93 13.39L334.30 13.39L334.30 15.34L334.37 15.34Q334.78 14.38 335.64 13.74Q336.50 13.10 337.99 13.10L337.99 13.10Q339.96 13.10 341.05 14.32Q342.14 15.53 342.14 17.78L342.14 17.78L342.14 25.68L340.78 25.68L340.78 18.02Q340.78 16.15 339.97 15.24Q339.17 14.33 337.63 14.33L337.63 14.33Q336.98 14.33 336.38 14.50Q335.78 14.66 335.32 15Q334.85 15.34 334.57 15.85Q334.30 16.37 334.30 17.04L334.30 17.04L334.30 25.68ZM350.81 25.97L350.81 25.97Q349.58 25.97 348.60 25.54Q347.62 25.10 346.92 24.28Q346.22 23.45 345.84 22.25Q345.46 21.05 345.46 19.54L345.46 19.54Q345.46 18.02 345.84 16.84Q346.22 15.65 346.92 14.82Q347.62 13.99 348.60 13.55Q349.58 13.10 350.81 13.10L350.81 13.10Q352.03 13.10 353.02 13.55Q354.00 13.99 354.70 14.82Q355.39 15.65 355.78 16.84Q356.16 18.02 356.16 19.54L356.16 19.54Q356.16 21.05 355.78 22.25Q355.39 23.45 354.70 24.28Q354.00 25.10 353.02 25.54Q352.03 25.97 350.81 25.97ZM350.81 24.74L350.81 24.74Q352.61 24.74 353.65 23.62Q354.70 22.49 354.70 20.30L354.70 20.30L354.70 18.77Q354.70 16.61 353.65 15.47Q352.61 14.33 350.81 14.33L350.81 14.33Q349.01 14.33 347.96 15.46Q346.92 16.58 346.92 18.77L346.92 18.77L346.92 20.30Q346.92 22.46 347.96 23.60Q349.01 24.74 350.81 24.74ZM361.01 25.68L359.64 25.68L359.64 13.39L361.01 13.39L361.01 15.60L361.10 15.60Q361.46 14.74 362.33 14.06Q363.19 13.39 364.78 13.39L364.78 13.39L365.59 13.39L365.59 14.74L364.51 14.74Q362.98 14.74 361.99 15.41Q361.01 16.08 361.01 17.28L361.01 17.28L361.01 25.68ZM369.58 25.68L368.21 25.68L368.21 13.39L369.58 13.39L369.58 15.34L369.65 15.34Q369.84 14.88 370.13 14.48Q370.42 14.09 370.82 13.78Q371.23 13.46 371.80 13.28Q372.36 13.10 373.13 13.10L373.13 13.10Q374.45 13.10 375.46 13.73Q376.46 14.35 376.92 15.70L376.92 15.70L376.99 15.70Q377.33 14.62 378.28 13.86Q379.22 13.10 380.86 13.10L380.86 13.10Q382.82 13.10 383.88 14.32Q384.94 15.53 384.94 17.78L384.94 17.78L384.94 25.68L383.57 25.68L383.57 18.02Q383.57 14.33 380.47 14.33L380.47 14.33Q379.82 14.33 379.25 14.50Q378.67 14.66 378.23 15.01Q377.78 15.36 377.52 15.88Q377.26 16.39 377.26 17.06L377.26 17.06L377.26 25.68L375.89 25.68L375.89 18.02Q375.89 14.33 372.82 14.33L372.82 14.33Q372.19 14.33 371.60 14.50Q371.02 14.66 370.56 15Q370.10 15.34 369.84 15.85Q369.58 16.37 369.58 17.04L369.58 17.04L369.58 25.68ZM399.07 25.68L397.68 25.68Q396.89 25.68 396.53 25.27Q396.17 24.86 396.12 24.17L396.12 24.17L396.12 23.74L396.00 23.74Q395.59 24.77 394.66 25.37Q393.72 25.97 392.28 25.97L392.28 25.97Q390.34 25.97 389.28 25.02Q388.22 24.07 388.22 22.34L388.22 22.34Q388.22 20.71 389.39 19.75Q390.55 18.79 393.22 18.79L393.22 18.79L396.05 18.79L396.05 17.35Q396.05 14.30 392.90 14.30L392.90 14.30Q391.68 14.30 390.86 14.82Q390.05 15.34 389.54 16.30L389.54 16.30L388.68 15.58Q389.18 14.50 390.23 13.80Q391.27 13.10 392.95 13.10L392.95 13.10Q395.11 13.10 396.26 14.18Q397.42 15.26 397.42 17.21L397.42 17.21L397.42 24.48L399.07 24.48L399.07 25.68ZM392.47 24.79L392.47 24.79Q393.22 24.79 393.86 24.60Q394.51 24.41 395.00 24.06Q395.50 23.71 395.77 23.22Q396.05 22.73 396.05 22.10L396.05 22.10L396.05 19.82L393.17 19.82Q391.32 19.82 390.49 20.41Q389.66 21 389.66 22.03L389.66 22.03L389.66 22.61Q389.66 23.69 390.43 24.24Q391.20 24.79 392.47 24.79ZM405.14 25.68L403.39 25.68Q402.65 25.68 402.26 25.27Q401.88 24.86 401.88 24.19L401.88 24.19L401.88 7.92L403.25 7.92L403.25 24.48L405.14 24.48L405.14 25.68Z"/></svg>