<svg xmlns="http://www.w3.org/2000/svg" xmlns:xlink="http://www.w3.org/1999/xlink" width="203.016" height="32.232"><path fill="black" d="M8.52 18.14L6.82 19.68L0.46 9.50L3.62 9.50L8.52 18.14ZM8.90 25.30L6.29 25.30L6.29 18.17L8.90 18.17L8.90 25.30ZM14.78 9.50L8.47 19.56L7.08 18.14L12.02 9.50L14.78 9.50ZM19.66 25.58L19.66 25.58Q18.94 25.58 18.25 25.46Q17.57 25.34 16.99 25.14Q16.42 24.94 16.03 24.70L16.03 24.70L16.66 22.80Q17.28 23.35 18.16 23.68Q19.03 24 19.80 24L19.80 24Q20.64 24 21.04 23.59Q21.43 23.18 21.43 22.70L21.43 22.70Q21.43 22.15 21.07 21.84Q20.71 21.53 20.14 21.30Q19.56 21.07 18.94 20.87Q18.31 20.66 17.74 20.33Q17.16 19.99 16.81 19.46Q16.46 18.94 16.46 18.07L16.46 18.07Q16.46 17.04 16.97 16.36Q17.47 15.67 18.34 15.31Q19.20 14.95 20.23 14.95L20.23 14.95Q21 14.95 21.79 15.14Q22.58 15.34 23.18 15.67L23.18 15.67L22.54 17.45Q22.06 16.94 21.31 16.72Q20.57 16.49 20.11 16.49L20.11 16.49Q19.30 16.49 18.94 16.81Q18.58 17.14 18.58 17.57L18.58 17.57Q18.58 18.07 18.95 18.37Q19.32 18.67 19.88 18.89Q20.45 19.10 21.10 19.33Q21.74 19.56 22.32 19.90Q22.90 20.23 23.27 20.78Q23.64 21.34 23.64 22.20L23.64 22.20Q23.64 22.87 23.39 23.48Q23.14 24.10 22.63 24.56Q22.13 25.03 21.38 25.31Q20.64 25.58 19.66 25.58ZM33.41 25.46L33.41 25.46Q32.40 25.46 31.80 24.74Q31.20 24.02 31.22 22.66L31.22 22.66L31.32 18.41Q31.34 17.74 31.20 17.33Q31.06 16.92 30.78 16.73Q30.50 16.54 30.12 16.54L30.12 16.54Q29.69 16.54 29.22 16.72Q28.75 16.90 28.42 17.34Q28.08 17.78 28.01 18.50L28.01 18.50L25.73 18.24Q25.87 17.54 26.30 16.96Q26.74 16.37 27.38 15.92Q28.03 15.48 28.84 15.25Q29.64 15.02 30.50 15.02L30.50 15.02Q32.11 15.02 32.82 15.85Q33.53 16.68 33.50 18.07L33.50 18.07L33.46 23.09Q33.46 23.45 33.61 23.64Q33.77 23.83 34.01 23.83L34.01 23.83Q34.22 23.83 34.44 23.75Q34.66 23.66 34.80 23.50L34.80 23.50L35.50 24.60Q35.16 24.98 34.62 25.22Q34.08 25.46 33.41 25.46ZM28.10 25.46L28.10 25.46Q26.95 25.46 26.23 24.80Q25.51 24.14 25.51 23.11L25.51 23.11Q25.51 22.51 25.78 21.97Q26.04 21.43 26.71 20.99Q27.38 20.54 28.61 20.26L28.61 20.26L32.54 19.32L32.66 20.42L29.16 21.46Q28.34 21.70 28.09 22.04Q27.84 22.39 27.84 22.75L27.84 22.75Q27.84 23.21 28.16 23.47Q28.49 23.74 28.99 23.74L28.99 23.74Q29.64 23.74 30.52 23.29Q31.39 22.85 32.47 22.20L32.47 22.20L32.62 23.02Q31.56 24.02 30.46 24.74Q29.35 25.46 28.10 25.46ZM41.57 25.49L41.57 25.49Q40.27 25.49 39.08 25.15Q37.90 24.82 37.39 24.22L37.39 24.22L39.72 22.99Q40.20 23.50 40.88 23.74Q41.57 23.98 42.29 23.98L42.29 23.98Q43.25 23.98 43.86 23.51Q44.47 23.04 44.77 22.28Q45.07 21.53 45.07 20.64L45.07 20.64Q45.07 19.42 44.70 18.56Q44.33 17.71 43.68 17.28Q43.03 16.85 42.22 16.85L42.22 16.85Q41.33 16.85 40.50 17.34Q39.67 17.83 39.12 18.77L39.12 18.77L38.35 18.02Q38.90 17.21 39.62 16.54Q40.34 15.86 41.23 15.46Q42.12 15.05 43.18 15.05L43.18 15.05Q44.06 15.05 44.84 15.37Q45.62 15.70 46.26 16.30Q46.90 16.90 47.26 17.80Q47.62 18.70 47.62 19.85L47.62 19.85Q47.62 21.29 46.96 22.58Q46.30 23.88 44.96 24.68Q43.63 25.49 41.57 25.49ZM39.72 22.99L37.39 24.22L37.39 8.45L39.72 8.04L39.72 22.99ZM54.38 25.56L54.38 25.56Q52.97 25.56 51.85 24.97Q50.74 24.38 50.11 23.28Q49.49 22.18 49.49 20.62L49.49 20.62Q49.49 18.94 50.20 17.66Q50.90 16.39 52.10 15.68Q53.30 14.98 54.82 14.98L54.82 14.98Q56.69 14.98 57.64 16.09Q58.58 17.21 58.58 19.13L58.58 19.13Q58.58 19.37 58.58 19.67Q58.58 19.97 58.54 20.23L58.54 20.23L56.52 20.23L56.52 19.08Q56.52 17.90 56.09 17.27Q55.66 16.63 54.60 16.63L54.60 16.63Q53.74 16.63 53.08 17.08Q52.42 17.52 52.07 18.35Q51.72 19.18 51.72 20.26L51.72 20.26Q51.72 21.89 52.60 22.81Q53.47 23.74 54.89 23.74L54.89 23.74Q55.66 23.74 56.38 23.46Q57.10 23.18 57.77 22.61L57.77 22.61L58.54 23.83Q57.86 24.50 57.16 24.89Q56.45 25.27 55.75 25.42Q55.06 25.56 54.38 25.56ZM58.25 20.23L50.69 20.23L50.95 18.79L58.25 18.79L58.25 20.23ZM68.45 25.46L68.45 25.46Q67.44 25.46 66.84 24.74Q66.24 24.02 66.26 22.66L66.26 22.66L66.36 18.41Q66.38 17.74 66.24 17.33Q66.10 16.92 65.82 16.73Q65.54 16.54 65.16 16.54L65.16 16.54Q64.73 16.54 64.26 16.72Q63.79 16.90 63.46 17.34Q63.12 17.78 63.05 18.50L63.05 18.50L60.77 18.24Q60.91 17.54 61.34 16.96Q61.78 16.37 62.42 15.92Q63.07 15.48 63.88 15.25Q64.68 15.02 65.54 15.02L65.54 15.02Q67.15 15.02 67.86 15.85Q68.57 16.68 68.54 18.07L68.54 18.07L68.50 23.09Q68.50 23.45 68.65 23.64Q68.81 23.83 69.05 23.83L69.05 23.83Q69.26 23.83 69.48 23.75Q69.70 23.66 69.84 23.50L69.84 23.50L70.54 24.60Q70.20 24.98 69.66 25.22Q69.12 25.46 68.45 25.46ZM63.14 25.46L63.14 25.46Q61.99 25.46 61.27 24.80Q60.55 24.14 60.55 23.11L60.55 23.11Q60.55 22.51 60.82 21.97Q61.08 21.43 61.75 20.99Q62.42 20.54 63.65 20.26L63.65 20.26L67.58 19.32L67.70 20.42L64.20 21.46Q63.38 21.70 63.13 22.04Q62.88 22.39 62.88 22.75L62.88 22.75Q62.88 23.21 63.20 23.47Q63.53 23.74 64.03 23.74L64.03 23.74Q64.68 23.74 65.56 23.29Q66.43 22.85 67.51 22.20L67.51 22.20L67.66 23.02Q66.60 24.02 65.50 24.74Q64.39 25.46 63.14 25.46ZM75.77 25.44L75.77 25.44Q74.23 25.44 73.22 24.46Q72.22 23.47 72.22 21.74L72.22 21.74L72.22 15.46L74.59 15.02L74.59 20.90Q74.59 22.22 75.14 22.97Q75.70 23.71 76.75 23.71L76.75 23.71Q77.30 23.71 77.89 23.50Q78.48 23.28 79.00 22.86Q79.51 22.44 79.85 21.79L79.85 21.79L80.62 22.37Q80.02 23.38 79.24 24.06Q78.46 24.74 77.57 25.09Q76.68 25.44 75.77 25.44ZM81.60 25.08L79.66 25.51L79.25 23.30L79.25 15.46L81.60 15.02L81.60 25.08ZM96.24 16.13L96.24 16.13Q97.58 16.13 98.42 16.74Q99.26 17.35 99.67 18.30Q100.08 19.25 100.08 20.30L100.08 20.30Q100.08 21.72 99.38 22.88Q98.69 24.05 97.49 24.74Q96.29 25.44 94.80 25.44L94.80 25.44Q93.43 25.44 92.36 24.80Q91.30 24.17 90.70 22.94Q90.10 21.72 90.10 20.02L90.10 20.02Q90.10 18.38 90.67 16.80Q91.25 15.22 92.36 13.80Q93.48 12.38 95.08 11.28Q96.67 10.18 98.69 9.50L98.69 9.50L99.31 10.99Q97.61 11.64 96.34 12.60Q95.06 13.56 94.21 14.71Q93.36 15.86 92.93 17.15Q92.50 18.43 92.50 19.75L92.50 19.75Q92.50 21 92.83 21.90Q93.17 22.80 93.78 23.26Q94.39 23.71 95.16 23.71L95.16 23.71Q95.93 23.71 96.47 23.34Q97.01 22.97 97.32 22.33Q97.63 21.70 97.63 20.90L97.63 20.90Q97.63 20.09 97.36 19.42Q97.08 18.74 96.56 18.32Q96.05 17.90 95.23 17.90L95.23 17.90Q94.46 17.90 93.62 18.26Q92.78 18.62 92.16 19.37L92.16 19.37L91.68 18.74Q92.23 18 92.90 17.41Q93.58 16.82 94.42 16.48Q95.26 16.13 96.24 16.13ZM107.47 25.44L107.47 25.44Q105.91 25.44 104.68 24.76Q103.44 24.07 102.73 22.90Q102.02 21.72 102.02 20.23L102.02 20.23Q102.02 18.72 102.73 17.57Q103.44 16.42 104.66 15.76Q105.89 15.10 107.45 15.10L107.45 15.10Q109.01 15.10 110.24 15.78Q111.48 16.46 112.18 17.63Q112.87 18.79 112.87 20.30L112.87 20.30Q112.87 21.79 112.18 22.96Q111.48 24.12 110.27 24.78Q109.06 25.44 107.47 25.44ZM107.50 23.57L107.50 23.57Q108.38 23.57 109.08 23.15Q109.78 22.73 110.16 22.00Q110.54 21.26 110.54 20.33L110.54 20.33Q110.54 19.37 110.16 18.61Q109.78 17.86 109.07 17.41Q108.36 16.97 107.45 16.97L107.45 16.97Q106.58 16.97 105.86 17.39Q105.14 17.81 104.72 18.53Q104.30 19.25 104.30 20.21L104.30 20.21Q104.30 21.14 104.72 21.91Q105.14 22.68 105.88 23.12Q106.61 23.57 107.50 23.57ZM120.17 25.44L120.17 25.44Q118.61 25.44 117.37 24.76Q116.14 24.07 115.43 22.90Q114.72 21.72 114.72 20.23L114.72 20.23Q114.72 18.72 115.43 17.57Q116.14 16.42 117.36 15.76Q118.58 15.10 120.14 15.10L120.14 15.10Q121.70 15.10 122.94 15.78Q124.18 16.46 124.87 17.63Q125.57 18.79 125.57 20.30L125.57 20.30Q125.57 21.79 124.87 22.96Q124.18 24.12 122.96 24.78Q121.75 25.44 120.17 25.44ZM120.19 23.57L120.19 23.57Q121.08 23.57 121.78 23.15Q122.47 22.73 122.86 22.00Q123.24 21.26 123.24 20.33L123.24 20.33Q123.24 19.37 122.86 18.61Q122.47 17.86 121.76 17.41Q121.06 16.97 120.14 16.97L120.14 16.97Q119.28 16.97 118.56 17.39Q117.84 17.81 117.42 18.53Q117 19.25 117 20.21L117 20.21Q117 21.14 117.42 21.91Q117.84 22.68 118.57 23.12Q119.30 23.57 120.19 23.57ZM143.57 25.30L141.19 25.30L141.19 19.63Q141.19 18.34 140.63 17.59Q140.06 16.85 138.98 16.85L138.98 16.85Q138.43 16.85 137.81 17.06Q137.18 17.28 136.67 17.70Q136.15 18.12 135.79 18.77L135.79 18.77L135.02 18.17Q135.65 17.14 136.45 16.45Q137.26 15.77 138.17 15.43Q139.08 15.10 140.02 15.10L140.02 15.10Q141.02 15.10 141.83 15.53Q142.63 15.96 143.10 16.80Q143.57 17.64 143.57 18.79L143.57 18.79L143.57 25.30ZM136.42 25.30L134.04 25.30L134.04 15.46L135.98 15.02L136.42 17.21L136.42 25.30ZM151.34 25.56L151.34 25.56Q149.83 25.56 148.64 24.90Q147.46 24.24 146.78 23.08Q146.11 21.91 146.11 20.42L146.11 20.42Q146.11 18.84 146.86 17.60Q147.60 16.37 148.87 15.67Q150.14 14.98 151.75 14.98L151.75 14.98Q153.26 14.98 154.44 15.64Q155.62 16.30 156.29 17.45Q156.96 18.60 156.96 20.09L156.96 20.09Q156.96 21.67 156.24 22.91Q155.52 24.14 154.25 24.85Q152.98 25.56 151.34 25.56ZM151.68 23.93L151.68 23.93Q152.62 23.93 153.23 23.42Q153.84 22.92 154.14 22.10Q154.44 21.29 154.44 20.35L154.44 20.35Q154.44 19.18 154.04 18.34Q153.65 17.50 152.96 17.05Q152.28 16.61 151.42 16.61L151.42 16.61Q150.53 16.61 149.89 17.10Q149.26 17.59 148.94 18.38Q148.63 19.18 148.63 20.16L148.63 20.16Q148.63 21.34 149.04 22.19Q149.45 23.04 150.14 23.48Q150.84 23.93 151.68 23.93ZM161.90 25.30L159.53 25.30L159.53 15.46L161.47 15.02L161.90 17.26L161.90 25.30ZM161.50 18.98L161.50 18.98L160.94 18.38Q161.71 16.90 162.76 16.00Q163.80 15.10 165.02 15.10L165.02 15.10Q165.58 15.10 166.04 15.24Q166.51 15.38 166.87 15.67L166.87 15.67L165.94 17.69Q165.62 17.45 165.20 17.32Q164.78 17.18 164.33 17.18L164.33 17.18Q163.54 17.18 162.79 17.63Q162.05 18.07 161.50 18.98ZM184.20 25.30L181.85 25.30L181.85 19.44Q181.85 18.22 181.36 17.53Q180.86 16.85 179.90 16.85L179.90 16.85Q179.16 16.85 178.33 17.33Q177.50 17.81 177.02 18.77L177.02 18.77L176.26 18.17Q176.86 17.14 177.61 16.45Q178.37 15.77 179.22 15.43Q180.07 15.10 180.96 15.10L180.96 15.10Q182.35 15.10 183.28 16.08Q184.20 17.06 184.20 18.79L184.20 18.79L184.20 25.30ZM177.67 25.30L175.30 25.30L175.30 19.44Q175.30 18.22 174.79 17.53Q174.29 16.85 173.35 16.85L173.35 16.85Q172.85 16.85 172.27 17.06Q171.70 17.28 171.20 17.70Q170.71 18.12 170.38 18.77L170.38 18.77L169.61 18.17Q170.21 17.14 170.98 16.45Q171.74 15.77 172.62 15.43Q173.50 15.10 174.41 15.10L174.41 15.10Q175.78 15.10 176.72 16.08Q177.67 17.06 177.67 18.79L177.67 18.79L177.67 25.30ZM171 25.30L168.62 25.30L168.62 15.46L170.57 15.02L171 17.21L171 25.30ZM194.74 25.46L194.74 25.46Q193.73 25.46 193.13 24.74Q192.53 24.02 192.55 22.66L192.55 22.66L192.65 18.41Q192.67 17.74 192.53 17.33Q192.38 16.92 192.11 16.73Q191.83 16.54 191.45 16.54L191.45 16.54Q191.02 16.54 190.55 16.72Q190.08 16.90 189.74 17.34Q189.41 17.78 189.34 18.50L189.34 18.50L187.06 18.24Q187.20 17.54 187.63 16.96Q188.06 16.37 188.71 15.92Q189.36 15.48 190.16 15.25Q190.97 15.02 191.83 15.02L191.83 15.02Q193.44 15.02 194.15 15.85Q194.86 16.68 194.83 18.07L194.83 18.07L194.78 23.09Q194.78 23.45 194.94 23.64Q195.10 23.83 195.34 23.83L195.34 23.83Q195.55 23.83 195.77 23.75Q195.98 23.66 196.13 23.50L196.13 23.50L196.82 24.60Q196.49 24.98 195.95 25.22Q195.41 25.46 194.74 25.46ZM189.43 25.46L189.43 25.46Q188.28 25.46 187.56 24.80Q186.84 24.14 186.84 23.11L186.84 23.11Q186.84 22.51 187.10 21.97Q187.37 21.43 188.04 20.99Q188.71 20.54 189.94 20.26L189.94 20.26L193.87 19.32L193.99 20.42L190.49 21.46Q189.67 21.70 189.42 22.04Q189.17 22.39 189.17 22.75L189.17 22.75Q189.17 23.21 189.49 23.47Q189.82 23.74 190.32 23.74L190.32 23.74Q190.97 23.74 191.84 23.29Q192.72 22.85 193.80 22.20L193.80 22.20L193.94 23.02Q192.89 24.02 191.78 24.74Q190.68 25.46 189.43 25.46ZM201.12 25.30L198.79 25.30L198.79 8.45L201.12 8.04L201.12 25.30Z"/></svg>