<svg xmlns="http://www.w3.org/2000/svg" xmlns:xlink="http://www.w3.org/1999/xlink" width="322.632" height="32.688"><path fill="black" d="M15.91 8.52L15.91 25.66L13.39 25.66L4.22 11.42L4.13 11.42Q4.18 12.26 4.25 13.51Q4.32 14.76 4.32 16.08L4.32 16.08L4.32 25.66L2.33 25.66L2.33 8.52L4.82 8.52L13.97 22.70L14.06 22.70Q14.04 22.32 14.00 21.55Q13.97 20.78 13.93 19.87Q13.90 18.96 13.90 18.19L13.90 18.19L13.90 8.52L15.91 8.52ZM31.46 19.20L31.46 19.20Q31.46 22.39 29.84 24.14Q28.22 25.90 25.46 25.90L25.46 25.90Q23.76 25.90 22.43 25.12Q21.10 24.34 20.33 22.84Q19.56 21.34 19.56 19.20L19.56 19.20Q19.56 16.01 21.17 14.28Q22.78 12.55 25.54 12.55L25.54 12.55Q27.29 12.55 28.62 13.33Q29.95 14.11 30.71 15.59Q31.46 17.06 31.46 19.20ZM21.74 19.20L21.74 19.20Q21.74 21.48 22.64 22.81Q23.54 24.14 25.51 24.14L25.51 24.14Q27.46 24.14 28.37 22.81Q29.28 21.48 29.28 19.20L29.28 19.20Q29.28 16.92 28.37 15.62Q27.46 14.33 25.49 14.33L25.49 14.33Q23.52 14.33 22.63 15.62Q21.74 16.92 21.74 19.20ZM39.10 24.17L39.10 24.17Q39.58 24.17 40.08 24.08Q40.58 24 40.90 23.90L40.90 23.90L40.90 25.51Q40.56 25.68 39.94 25.79Q39.31 25.90 38.74 25.90L38.74 25.90Q37.73 25.90 36.88 25.55Q36.02 25.20 35.50 24.34Q34.97 23.47 34.97 21.91L34.97 21.91L34.97 14.42L33.14 14.42L33.14 13.42L34.99 12.58L35.83 9.84L37.08 9.84L37.08 12.79L40.80 12.79L40.80 14.42L37.08 14.42L37.08 21.86Q37.08 23.04 37.64 23.60Q38.21 24.17 39.10 24.17ZM54.65 19.20L54.65 19.20Q54.65 22.39 53.03 24.14Q51.41 25.90 48.65 25.90L48.65 25.90Q46.94 25.90 45.61 25.12Q44.28 24.34 43.51 22.84Q42.74 21.34 42.74 19.20L42.74 19.20Q42.74 16.01 44.35 14.28Q45.96 12.55 48.72 12.55L48.72 12.55Q50.47 12.55 51.80 13.33Q53.14 14.11 53.89 15.59Q54.65 17.06 54.65 19.20ZM44.93 19.20L44.93 19.20Q44.93 21.48 45.83 22.81Q46.73 24.14 48.70 24.14L48.70 24.14Q50.64 24.14 51.55 22.81Q52.46 21.48 52.46 19.20L52.46 19.20Q52.46 16.92 51.55 15.62Q50.64 14.33 48.67 14.33L48.67 14.33Q46.70 14.33 45.82 15.62Q44.93 16.92 44.93 19.20ZM74.23 21.07L74.23 21.07Q74.23 23.35 72.58 24.62Q70.92 25.90 68.11 25.90L68.11 25.90Q66.67 25.90 65.45 25.68Q64.22 25.46 63.41 25.08L63.41 25.08L63.41 23.02Q64.27 23.40 65.56 23.71Q66.84 24.02 68.21 24.02L68.21 24.02Q70.13 24.02 71.10 23.28Q72.07 22.54 72.07 21.26L72.07 21.26Q72.07 20.42 71.71 19.85Q71.35 19.27 70.48 18.78Q69.60 18.29 68.04 17.74L68.04 17.74Q65.86 16.94 64.74 15.79Q63.62 14.64 63.62 12.65L63.62 12.65Q63.62 11.28 64.32 10.31Q65.02 9.34 66.25 8.81Q67.49 8.28 69.10 8.28L69.10 8.28Q70.51 8.28 71.69 8.54Q72.86 8.81 73.82 9.24L73.82 9.24L73.15 11.09Q72.26 10.70 71.22 10.44Q70.18 10.18 69.05 10.18L69.05 10.18Q67.44 10.18 66.62 10.86Q65.81 11.54 65.81 12.67L65.81 12.67Q65.81 13.54 66.17 14.11Q66.53 14.69 67.34 15.14Q68.16 15.60 69.55 16.13L69.55 16.13Q71.06 16.68 72.11 17.32Q73.15 17.95 73.69 18.84Q74.23 19.73 74.23 21.07ZM82.27 12.58L82.27 12.58Q84.62 12.58 85.75 13.61Q86.88 14.64 86.88 16.90L86.88 16.90L86.88 25.66L85.34 25.66L84.94 23.83L84.84 23.83Q84 24.89 83.08 25.39Q82.15 25.90 80.52 25.90L80.52 25.90Q78.77 25.90 77.62 24.97Q76.46 24.05 76.46 22.08L76.46 22.08Q76.46 20.16 77.98 19.12Q79.49 18.07 82.63 17.98L82.63 17.98L84.82 17.90L84.82 17.14Q84.82 15.53 84.12 14.90Q83.42 14.28 82.15 14.28L82.15 14.28Q81.14 14.28 80.23 14.58Q79.32 14.88 78.53 15.26L78.53 15.26L77.88 13.68Q78.72 13.22 79.87 12.90Q81.02 12.58 82.27 12.58ZM84.79 19.37L82.90 19.44Q80.50 19.54 79.57 20.21Q78.65 20.88 78.65 22.10L78.65 22.10Q78.65 23.18 79.31 23.69Q79.97 24.19 81 24.19L81 24.19Q82.63 24.19 83.71 23.29Q84.79 22.39 84.79 20.52L84.79 20.52L84.79 19.37ZM97.06 12.55L97.06 12.55Q99.36 12.55 100.54 13.67Q101.71 14.78 101.71 17.28L101.71 17.28L101.71 25.66L99.62 25.66L99.62 17.42Q99.62 14.33 96.74 14.33L96.74 14.33Q94.61 14.33 93.79 15.53Q92.98 16.73 92.98 18.98L92.98 18.98L92.98 25.66L90.86 25.66L90.86 12.79L92.57 12.79L92.88 14.54L93 14.54Q93.62 13.54 94.73 13.04Q95.83 12.55 97.06 12.55ZM114.07 22.10L114.07 22.10Q114.07 23.98 112.68 24.94Q111.29 25.90 108.94 25.90L108.94 25.90Q107.59 25.90 106.62 25.68Q105.65 25.46 104.90 25.08L104.90 25.08L104.90 23.16Q105.67 23.54 106.76 23.87Q107.86 24.19 108.98 24.19L108.98 24.19Q110.59 24.19 111.31 23.68Q112.03 23.16 112.03 22.30L112.03 22.30Q112.03 21.82 111.77 21.43Q111.50 21.05 110.82 20.66Q110.14 20.28 108.86 19.80L108.86 19.80Q107.62 19.32 106.73 18.84Q105.84 18.36 105.36 17.69Q104.88 17.02 104.88 15.96L104.88 15.96Q104.88 14.33 106.21 13.44Q107.54 12.55 109.70 12.55L109.70 12.55Q110.88 12.55 111.90 12.78Q112.92 13.01 113.81 13.42L113.81 13.42L113.09 15.10Q112.27 14.76 111.38 14.52Q110.50 14.28 109.56 14.28L109.56 14.28Q108.26 14.28 107.58 14.70Q106.90 15.12 106.90 15.84L106.90 15.84Q106.90 16.37 107.21 16.74Q107.52 17.11 108.25 17.46Q108.98 17.81 110.21 18.29L110.21 18.29Q111.43 18.74 112.30 19.22Q113.16 19.70 113.62 20.39Q114.07 21.07 114.07 22.10ZM123.72 8.52L128.62 8.52Q131.83 8.52 133.48 9.47Q135.12 10.42 135.12 12.77L135.12 12.77Q135.12 14.28 134.28 15.28Q133.44 16.27 131.86 16.56L131.86 16.56L131.86 16.68Q132.94 16.85 133.81 17.30Q134.69 17.76 135.19 18.60Q135.70 19.44 135.70 20.78L135.70 20.78Q135.70 23.11 134.10 24.38Q132.50 25.66 129.74 25.66L129.74 25.66L123.72 25.66L123.72 8.52ZM125.88 15.82L129.05 15.82Q131.26 15.82 132.07 15.11Q132.89 14.40 132.89 13.01L132.89 13.01Q132.89 11.59 131.89 10.98Q130.90 10.37 128.71 10.37L128.71 10.37L125.88 10.37L125.88 15.82ZM129.17 17.62L125.88 17.62L125.88 23.83L129.34 23.83Q131.62 23.83 132.50 22.94Q133.39 22.06 133.39 20.62L133.39 20.62Q133.39 19.27 132.47 18.44Q131.54 17.62 129.17 17.62L129.17 17.62ZM147.67 12.79L149.78 12.79L149.78 25.66L148.06 25.66L147.74 23.95L147.65 23.95Q147.02 24.96 145.92 25.43Q144.82 25.90 143.57 25.90L143.57 25.90Q141.24 25.90 140.06 24.78Q138.89 23.66 138.89 21.22L138.89 21.22L138.89 12.79L141.02 12.79L141.02 21.07Q141.02 24.14 143.88 24.14L143.88 24.14Q146.02 24.14 146.84 22.94Q147.67 21.74 147.67 19.49L147.67 19.49L147.67 12.79ZM155.98 7.42L155.98 12.77Q155.98 13.73 155.86 14.57L155.86 14.57L156.00 14.57Q156.62 13.58 157.69 13.08Q158.76 12.58 160.01 12.58L160.01 12.58Q162.36 12.58 163.54 13.69Q164.71 14.81 164.71 17.28L164.71 17.28L164.71 25.66L162.62 25.66L162.62 17.42Q162.62 14.33 159.74 14.33L159.74 14.33Q157.58 14.33 156.78 15.54Q155.98 16.75 155.98 19.01L155.98 19.01L155.98 25.66L153.86 25.66L153.86 7.42L155.98 7.42ZM169.78 7.97L169.78 7.97Q170.26 7.97 170.63 8.29Q171.00 8.62 171.00 9.31L171.00 9.31Q171.00 9.98 170.63 10.32Q170.26 10.66 169.78 10.66L169.78 10.66Q169.25 10.66 168.89 10.32Q168.53 9.98 168.53 9.31L168.53 9.31Q168.53 8.62 168.89 8.29Q169.25 7.97 169.78 7.97ZM168.70 12.79L170.81 12.79L170.81 25.66L168.70 25.66L168.70 12.79ZM179.45 25.90L179.45 25.90Q177.05 25.90 175.61 24.23Q174.17 22.56 174.17 19.25L174.17 19.25Q174.17 15.94 175.62 14.24Q177.07 12.55 179.47 12.55L179.47 12.55Q180.96 12.55 181.91 13.10Q182.86 13.66 183.46 14.45L183.46 14.45L183.60 14.45Q183.58 14.14 183.52 13.52Q183.46 12.91 183.46 12.55L183.46 12.55L183.46 7.42L185.57 7.42L185.57 25.66L183.86 25.66L183.55 23.93L183.46 23.93Q182.88 24.74 181.92 25.32Q180.96 25.90 179.45 25.90ZM179.78 24.14L179.78 24.14Q181.82 24.14 182.65 23.03Q183.48 21.91 183.48 19.66L183.48 19.66L183.48 19.27Q183.48 16.87 182.69 15.59Q181.90 14.30 179.76 14.30L179.76 14.30Q178.06 14.30 177.20 15.66Q176.35 17.02 176.35 19.30L176.35 19.30Q176.35 21.60 177.20 22.87Q178.06 24.14 179.78 24.14ZM207.10 19.87L207.10 21.77L204.60 21.77L204.60 25.66L202.56 25.66L202.56 21.77L194.35 21.77L194.35 19.97L202.42 8.42L204.60 8.42L204.60 19.87L207.10 19.87ZM202.56 19.87L202.56 14.47Q202.56 13.22 202.61 12.35Q202.66 11.47 202.68 10.68L202.68 10.68L202.58 10.68Q202.39 11.14 202.10 11.66Q201.82 12.19 201.55 12.55L201.55 12.55L196.42 19.87L202.56 19.87ZM220.13 17.06L220.13 17.06Q220.13 19.82 219.55 21.80Q218.98 23.78 217.73 24.84Q216.48 25.90 214.42 25.90L214.42 25.90Q211.51 25.90 210.13 23.56Q208.75 21.22 208.75 17.06L208.75 17.06Q208.75 14.28 209.32 12.31Q209.88 10.34 211.13 9.30Q212.38 8.26 214.42 8.26L214.42 8.26Q217.30 8.26 218.71 10.57Q220.13 12.89 220.13 17.06ZM210.86 17.06L210.86 17.06Q210.86 20.59 211.67 22.34Q212.47 24.10 214.42 24.10L214.42 24.10Q216.34 24.10 217.16 22.36Q217.99 20.62 217.99 17.06L217.99 17.06Q217.99 13.56 217.16 11.81Q216.34 10.06 214.42 10.06L214.42 10.06Q212.47 10.06 211.67 11.81Q210.86 13.56 210.86 17.06ZM233.86 17.06L233.86 17.06Q233.86 19.82 233.28 21.80Q232.70 23.78 231.46 24.84Q230.21 25.90 228.14 25.90L228.14 25.90Q225.24 25.90 223.86 23.56Q222.48 21.22 222.48 17.06L222.48 17.06Q222.48 14.28 223.04 12.31Q223.61 10.34 224.86 9.30Q226.10 8.26 228.14 8.26L228.14 8.26Q231.02 8.26 232.44 10.57Q233.86 12.89 233.86 17.06ZM224.59 17.06L224.59 17.06Q224.59 20.59 225.40 22.34Q226.20 24.10 228.14 24.10L228.14 24.10Q230.06 24.10 230.89 22.36Q231.72 20.62 231.72 17.06L231.72 17.06Q231.72 13.56 230.89 11.81Q230.06 10.06 228.14 10.06L228.14 10.06Q226.20 10.06 225.40 11.81Q224.59 13.56 224.59 17.06ZM249.50 12.55L249.50 12.55Q251.81 12.55 252.98 13.67Q254.16 14.78 254.16 17.28L254.16 17.28L254.16 25.66L252.07 25.66L252.07 17.42Q252.07 14.33 249.19 14.33L249.19 14.33Q247.06 14.33 246.24 15.53Q245.42 16.73 245.42 18.98L245.42 18.98L245.42 25.66L243.31 25.66L243.31 12.79L245.02 12.79L245.33 14.54L245.45 14.54Q246.07 13.54 247.18 13.04Q248.28 12.55 249.50 12.55ZM269.33 19.20L269.33 19.20Q269.33 22.39 267.71 24.14Q266.09 25.90 263.33 25.90L263.33 25.90Q261.62 25.90 260.29 25.12Q258.96 24.34 258.19 22.84Q257.42 21.34 257.42 19.20L257.42 19.20Q257.42 16.01 259.03 14.28Q260.64 12.55 263.40 12.55L263.40 12.55Q265.15 12.55 266.48 13.33Q267.82 14.11 268.57 15.59Q269.33 17.06 269.33 19.20ZM259.61 19.20L259.61 19.20Q259.61 21.48 260.51 22.81Q261.41 24.14 263.38 24.14L263.38 24.14Q265.32 24.14 266.23 22.81Q267.14 21.48 267.14 19.20L267.14 19.20Q267.14 16.92 266.23 15.62Q265.32 14.33 263.35 14.33L263.35 14.33Q261.38 14.33 260.50 15.62Q259.61 16.92 259.61 19.20ZM278.66 12.55L278.66 12.55Q279.02 12.55 279.44 12.59Q279.86 12.62 280.18 12.70L280.18 12.70L279.91 14.64Q279.60 14.57 279.23 14.52Q278.86 14.47 278.52 14.47L278.52 14.47Q277.54 14.47 276.67 15.01Q275.81 15.55 275.29 16.52Q274.78 17.50 274.78 18.79L274.78 18.79L274.78 25.66L272.66 25.66L272.66 12.79L274.39 12.79L274.63 15.14L274.73 15.14Q275.35 14.09 276.34 13.32Q277.32 12.55 278.66 12.55ZM296.69 12.55L296.69 12.55Q298.87 12.55 299.95 13.67Q301.03 14.78 301.03 17.28L301.03 17.28L301.03 25.66L298.94 25.66L298.94 17.38Q298.94 14.33 296.33 14.33L296.33 14.33Q294.46 14.33 293.65 15.41Q292.85 16.49 292.85 18.55L292.85 18.55L292.85 25.66L290.76 25.66L290.76 17.38Q290.76 14.33 288.12 14.33L288.12 14.33Q286.18 14.33 285.43 15.53Q284.69 16.73 284.69 18.98L284.69 18.98L284.69 25.66L282.58 25.66L282.58 12.79L284.28 12.79L284.59 14.54L284.71 14.54Q285.31 13.54 286.33 13.04Q287.35 12.55 288.50 12.55L288.50 12.55Q291.53 12.55 292.44 14.71L292.44 14.71L292.56 14.71Q293.21 13.61 294.32 13.08Q295.44 12.55 296.69 12.55ZM309.89 12.58L309.89 12.58Q312.24 12.58 313.37 13.61Q314.50 14.64 314.50 16.90L314.50 16.90L314.50 25.66L312.96 25.66L312.55 23.83L312.46 23.83Q311.62 24.89 310.69 25.39Q309.77 25.90 308.14 25.90L308.14 25.90Q306.38 25.90 305.23 24.97Q304.08 24.05 304.08 22.08L304.08 22.08Q304.08 20.16 305.59 19.12Q307.10 18.07 310.25 17.98L310.25 17.98L312.43 17.90L312.43 17.14Q312.43 15.53 311.74 14.90Q311.04 14.28 309.77 14.28L309.77 14.28Q308.76 14.28 307.85 14.58Q306.94 14.88 306.14 15.26L306.14 15.26L305.50 13.68Q306.34 13.22 307.49 12.90Q308.64 12.58 309.89 12.58ZM312.41 19.37L310.51 19.44Q308.11 19.54 307.19 20.21Q306.26 20.88 306.26 22.10L306.26 22.10Q306.26 23.18 306.92 23.69Q307.58 24.19 308.62 24.19L308.62 24.19Q310.25 24.19 311.33 23.29Q312.41 22.39 312.41 20.52L312.41 20.52L312.41 19.37ZM320.59 7.42L320.59 25.66L318.48 25.66L318.48 7.42L320.59 7.42Z"/></svg>