<svg xmlns="http://www.w3.org/2000/svg" xmlns:xlink="http://www.w3.org/1999/xlink" width="291.456" height="42.024"><path fill="black" d="M3.74 17.30L9.70 17.30L9.70 19.42L3.74 19.42L3.74 17.30ZM7.44 19.42L7.44 19.42L7.94 17.81Q9.77 17.81 10.97 18.31Q12.17 18.82 12.78 19.69Q13.39 20.57 13.39 21.74L13.39 21.74Q13.39 24 11.74 25.09Q10.08 26.18 7.03 26.18L7.03 26.18Q6.41 26.18 5.71 26.15Q5.02 26.11 4.33 25.99Q3.65 25.87 3.05 25.70L3.05 25.70Q1.90 25.32 1.90 24.34L1.90 24.34L1.90 12.48Q1.90 12.05 2.14 11.81Q2.38 11.57 2.78 11.45L2.78 11.45Q3.60 11.18 4.66 11.08Q5.71 10.97 6.84 10.97L6.84 10.97Q9.70 10.97 11.27 11.98Q12.84 12.98 12.84 15.02L12.84 15.02Q12.84 16.10 12.25 16.94Q11.66 17.78 10.48 18.25Q9.29 18.72 7.44 18.72L7.44 18.72L7.27 17.30Q8.62 17.30 9.30 16.75Q9.98 16.20 9.98 15.19L9.98 15.19Q9.98 14.23 9.19 13.72Q8.40 13.20 6.86 13.20L6.86 13.20Q6.24 13.20 5.68 13.25Q5.11 13.30 4.68 13.37L4.68 13.37L4.68 23.71Q5.16 23.81 5.83 23.87Q6.50 23.93 7.15 23.93L7.15 23.93Q8.74 23.93 9.61 23.36Q10.49 22.80 10.49 21.65L10.49 21.65Q10.49 20.57 9.71 19.99Q8.93 19.42 7.44 19.42ZM20.52 24.10L20.52 24.10L20.52 24.10Q21.29 24.10 21.88 23.94Q22.46 23.78 22.75 23.59L22.75 23.59L22.75 20.74L20.26 21Q19.25 21.07 18.72 21.44Q18.19 21.82 18.19 22.51L18.19 22.51Q18.19 23.23 18.76 23.66Q19.32 24.10 20.52 24.10ZM20.42 14.23L20.42 14.23L20.42 14.23Q22.73 14.23 24.10 15.22Q25.46 16.20 25.46 18.31L25.46 18.31L25.46 23.88Q25.46 24.43 25.20 24.76Q24.94 25.08 24.50 25.34L24.50 25.34Q23.83 25.73 22.82 25.98Q21.82 26.23 20.52 26.23L20.52 26.23Q18.17 26.23 16.81 25.31Q15.46 24.38 15.46 22.58L15.46 22.58Q15.46 21 16.48 20.15Q17.50 19.30 19.44 19.10L19.44 19.10L22.73 18.77L22.73 18.29Q22.73 17.30 22.06 16.85Q21.38 16.39 20.18 16.39L20.18 16.39Q19.25 16.39 18.35 16.64Q17.45 16.90 16.75 17.23L16.75 17.23Q16.51 17.04 16.33 16.73Q16.15 16.42 16.15 16.08L16.15 16.08Q16.15 15.24 17.06 14.83L17.06 14.83Q17.74 14.54 18.62 14.39Q19.51 14.23 20.42 14.23ZM28.73 24.74L28.73 19.54L31.51 19.70L31.51 25.82Q31.32 25.90 30.98 25.96Q30.65 26.02 30.24 26.02L30.24 26.02Q29.47 26.02 29.10 25.73Q28.73 25.44 28.73 24.74L28.73 24.74ZM31.51 11.38L31.51 21.12L28.73 20.95L28.73 10.27Q28.90 10.22 29.24 10.16Q29.59 10.10 29.98 10.10L29.98 10.10Q30.77 10.10 31.14 10.38Q31.51 10.66 31.51 11.38L31.51 11.38ZM45.82 20.21L45.82 20.21L45.82 20.21Q45.82 22.06 45.11 23.40Q44.40 24.74 43.10 25.48Q41.81 26.21 40.03 26.21L40.03 26.21Q38.28 26.21 36.97 25.48Q35.66 24.74 34.96 23.40Q34.25 22.06 34.25 20.21L34.25 20.21Q34.25 18.36 34.97 17.03Q35.69 15.70 37.00 14.96Q38.30 14.23 40.06 14.23L40.06 14.23Q41.78 14.23 43.08 14.96Q44.38 15.70 45.10 17.04Q45.82 18.38 45.82 20.21ZM40.03 16.44L40.03 16.44L40.03 16.44Q38.69 16.44 37.90 17.44Q37.10 18.43 37.10 20.21L37.10 20.21Q37.10 22.01 37.87 22.99Q38.64 23.98 40.03 23.98L40.03 23.98Q41.42 23.98 42.20 22.98Q42.98 21.98 42.98 20.21L42.98 20.21Q42.98 18.46 42.20 17.45Q41.42 16.44 40.03 16.44ZM59.40 20.21L59.40 20.21L59.40 20.21Q59.40 22.06 58.69 23.40Q57.98 24.74 56.69 25.48Q55.39 26.21 53.62 26.21L53.62 26.21Q51.86 26.21 50.56 25.48Q49.25 24.74 48.54 23.40Q47.83 22.06 47.83 20.21L47.83 20.21Q47.83 18.36 48.55 17.03Q49.27 15.70 50.58 14.96Q51.89 14.23 53.64 14.23L53.64 14.23Q55.37 14.23 56.66 14.96Q57.96 15.70 58.68 17.04Q59.40 18.38 59.40 20.21ZM53.62 16.44L53.62 16.44L53.62 16.44Q52.27 16.44 51.48 17.44Q50.69 18.43 50.69 20.21L50.69 20.21Q50.69 22.01 51.46 22.99Q52.22 23.98 53.62 23.98L53.62 23.98Q55.01 23.98 55.79 22.98Q56.57 21.98 56.57 20.21L56.57 20.21Q56.57 18.46 55.79 17.45Q55.01 16.44 53.62 16.44ZM77.93 13.63L72.19 13.63L72.12 11.30L78.67 11.30Q78.77 11.47 78.86 11.77Q78.96 12.07 78.96 12.41L78.96 12.41Q78.96 13.01 78.68 13.32Q78.41 13.63 77.93 13.63L77.93 13.63ZM68.21 11.30L73.97 11.30L74.04 13.63L67.49 13.63Q67.37 13.46 67.27 13.16Q67.18 12.86 67.18 12.50L67.18 12.50Q67.18 11.90 67.45 11.60Q67.73 11.30 68.21 11.30L68.21 11.30ZM71.62 24.70L71.62 12.98L74.47 12.98L74.47 25.82Q74.30 25.90 73.93 25.96Q73.56 26.02 73.15 26.02L73.15 26.02Q72.34 26.02 71.98 25.72Q71.62 25.42 71.62 24.70L71.62 24.70ZM84.70 24.10L84.70 24.10L84.70 24.10Q85.46 24.10 86.05 23.94Q86.64 23.78 86.93 23.59L86.93 23.59L86.93 20.74L84.43 21Q83.42 21.07 82.90 21.44Q82.37 21.82 82.37 22.51L82.37 22.51Q82.37 23.23 82.93 23.66Q83.50 24.10 84.70 24.10ZM84.60 14.23L84.60 14.23L84.60 14.23Q86.90 14.23 88.27 15.22Q89.64 16.20 89.64 18.31L89.64 18.31L89.64 23.88Q89.64 24.43 89.38 24.76Q89.11 25.08 88.68 25.34L88.68 25.34Q88.01 25.73 87 25.98Q85.99 26.23 84.70 26.23L84.70 26.23Q82.34 26.23 80.99 25.31Q79.63 24.38 79.63 22.58L79.63 22.58Q79.63 21 80.65 20.15Q81.67 19.30 83.62 19.10L83.62 19.10L86.90 18.77L86.90 18.29Q86.90 17.30 86.23 16.85Q85.56 16.39 84.36 16.39L84.36 16.39Q83.42 16.39 82.52 16.64Q81.62 16.90 80.93 17.23L80.93 17.23Q80.69 17.04 80.51 16.73Q80.33 16.42 80.33 16.08L80.33 16.08Q80.33 15.24 81.24 14.83L81.24 14.83Q81.91 14.54 82.80 14.39Q83.69 14.23 84.60 14.23ZM102.48 18.05L102.48 18.05L102.48 20.81L99.70 20.81L99.70 18.36Q99.70 17.38 99.12 16.91Q98.54 16.44 97.63 16.44L97.63 16.44Q96.98 16.44 96.43 16.64Q95.88 16.85 95.52 17.09L95.52 17.09L95.52 20.81L92.74 20.81L92.74 16.94Q92.74 16.39 92.96 16.02Q93.19 15.65 93.70 15.34L93.70 15.34Q94.42 14.86 95.50 14.54Q96.58 14.23 97.70 14.23L97.70 14.23Q98.88 14.23 99.86 14.59Q100.85 14.95 101.45 15.65L101.45 15.65Q101.62 15.79 101.75 15.94Q101.88 16.08 101.98 16.27L101.98 16.27Q102.19 16.61 102.34 17.08Q102.48 17.54 102.48 18.05ZM109.44 18.26L109.44 18.26L109.44 20.81L106.66 20.81L106.66 18.36Q106.66 17.38 106.10 16.91Q105.55 16.44 104.62 16.44L104.62 16.44Q103.94 16.44 103.31 16.73Q102.67 17.02 102.19 17.50L102.19 17.50L100.85 15.74Q101.54 15.12 102.56 14.68Q103.58 14.23 104.95 14.23L104.95 14.23Q106.22 14.23 107.24 14.64Q108.26 15.05 108.85 15.95Q109.44 16.85 109.44 18.26ZM92.74 24.74L92.74 19.63L95.52 19.63L95.52 25.82Q95.33 25.90 94.99 25.96Q94.66 26.02 94.25 26.02L94.25 26.02Q93.48 26.02 93.11 25.73Q92.74 25.44 92.74 24.74L92.74 24.74ZM99.70 24.74L99.70 19.63L102.48 19.63L102.48 25.82Q102.31 25.90 101.96 25.96Q101.62 26.02 101.21 26.02L101.21 26.02Q100.44 26.02 100.07 25.73Q99.70 25.44 99.70 24.74L99.70 24.74ZM106.66 24.74L106.66 19.63L109.44 19.63L109.44 25.82Q109.27 25.90 108.92 25.96Q108.58 26.02 108.19 26.02L108.19 26.02Q107.40 26.02 107.03 25.73Q106.66 25.44 106.66 24.74L106.66 24.74ZM122.35 18.05L122.35 18.05L122.35 20.81L119.57 20.81L119.57 18.36Q119.57 17.38 118.99 16.91Q118.42 16.44 117.50 16.44L117.50 16.44Q116.86 16.44 116.30 16.64Q115.75 16.85 115.39 17.09L115.39 17.09L115.39 20.81L112.61 20.81L112.61 16.94Q112.61 16.39 112.84 16.02Q113.06 15.65 113.57 15.34L113.57 15.34Q114.29 14.86 115.37 14.54Q116.45 14.23 117.58 14.23L117.58 14.23Q118.75 14.23 119.74 14.59Q120.72 14.95 121.32 15.65L121.32 15.65Q121.49 15.79 121.62 15.94Q121.75 16.08 121.85 16.27L121.85 16.27Q122.06 16.61 122.21 17.08Q122.35 17.54 122.35 18.05ZM129.31 18.26L129.31 18.26L129.31 20.81L126.53 20.81L126.53 18.36Q126.53 17.38 125.98 16.91Q125.42 16.44 124.49 16.44L124.49 16.44Q123.82 16.44 123.18 16.73Q122.54 17.02 122.06 17.50L122.06 17.50L120.72 15.74Q121.42 15.12 122.44 14.68Q123.46 14.23 124.82 14.23L124.82 14.23Q126.10 14.23 127.12 14.64Q128.14 15.05 128.72 15.95Q129.31 16.85 129.31 18.26ZM112.61 24.74L112.61 19.63L115.39 19.63L115.39 25.82Q115.20 25.90 114.86 25.96Q114.53 26.02 114.12 26.02L114.12 26.02Q113.35 26.02 112.98 25.73Q112.61 25.44 112.61 24.74L112.61 24.74ZM119.57 24.74L119.57 19.63L122.35 19.63L122.35 25.82Q122.18 25.90 121.84 25.96Q121.49 26.02 121.08 26.02L121.08 26.02Q120.31 26.02 119.94 25.73Q119.57 25.44 119.57 24.74L119.57 24.74ZM126.53 24.74L126.53 19.63L129.31 19.63L129.31 25.82Q129.14 25.90 128.80 25.96Q128.45 26.02 128.06 26.02L128.06 26.02Q127.27 26.02 126.90 25.73Q126.53 25.44 126.53 24.74L126.53 24.74ZM136.85 24.10L136.85 24.10L136.85 24.10Q137.62 24.10 138.20 23.94Q138.79 23.78 139.08 23.59L139.08 23.59L139.08 20.74L136.58 21Q135.58 21.07 135.05 21.44Q134.52 21.82 134.52 22.51L134.52 22.51Q134.52 23.23 135.08 23.66Q135.65 24.10 136.85 24.10ZM136.75 14.23L136.75 14.23L136.75 14.23Q139.06 14.23 140.42 15.22Q141.79 16.20 141.79 18.31L141.79 18.31L141.79 23.88Q141.79 24.43 141.53 24.76Q141.26 25.08 140.83 25.34L140.83 25.34Q140.16 25.73 139.15 25.98Q138.14 26.23 136.85 26.23L136.85 26.23Q134.50 26.23 133.14 25.31Q131.78 24.38 131.78 22.58L131.78 22.58Q131.78 21 132.80 20.15Q133.82 19.30 135.77 19.10L135.77 19.10L139.06 18.77L139.06 18.29Q139.06 17.30 138.38 16.85Q137.71 16.39 136.51 16.39L136.51 16.39Q135.58 16.39 134.68 16.64Q133.78 16.90 133.08 17.23L133.08 17.23Q132.84 17.04 132.66 16.73Q132.48 16.42 132.48 16.08L132.48 16.08Q132.48 15.24 133.39 14.83L133.39 14.83Q134.06 14.54 134.95 14.39Q135.84 14.23 136.75 14.23ZM150.94 12.72L150.94 12.72L150.94 12.72Q150.94 12.14 151.50 11.68Q152.06 11.21 153.02 10.93Q153.98 10.66 155.16 10.66L155.16 10.66Q156.84 10.66 158.03 11.22Q159.22 11.78 159.84 12.76Q160.46 13.73 160.46 15.02L160.46 15.02Q160.46 16.37 159.73 17.63Q159 18.89 157.30 20.42L157.30 20.42L153.53 23.76L160.37 23.76Q160.49 23.93 160.58 24.20Q160.68 24.48 160.68 24.79L160.68 24.79Q160.68 25.32 160.42 25.60Q160.15 25.87 159.70 25.87L159.70 25.87L151.13 25.87Q150.79 25.63 150.61 25.28Q150.43 24.94 150.43 24.50L150.43 24.50Q150.43 24 150.64 23.59Q150.84 23.18 151.15 22.90L151.15 22.90L155.28 19.08Q156.70 17.76 157.25 16.88Q157.80 16.01 157.80 15.10L157.80 15.10Q157.80 14.09 157.07 13.46Q156.34 12.84 154.94 12.84L154.94 12.84Q153.91 12.84 153.08 13.19Q152.26 13.54 151.70 13.92L151.70 13.92Q151.42 13.75 151.18 13.45Q150.94 13.15 150.94 12.72ZM179.50 12.34L179.50 12.34L179.50 12.34Q179.50 12.70 179.32 13.02Q179.14 13.34 178.87 13.49L178.87 13.49Q178.32 13.22 177.62 13.03Q176.93 12.84 176.18 12.84L176.18 12.84Q175.01 12.84 174.08 13.37Q173.16 13.90 172.61 14.96Q172.06 16.03 171.98 17.69L171.98 17.69Q172.44 17.26 173.40 16.79Q174.36 16.32 175.66 16.32L175.66 16.32Q177.84 16.32 179.22 17.57Q180.60 18.82 180.60 21.22L180.60 21.22Q180.60 22.68 179.95 23.82Q179.30 24.96 178.10 25.58Q176.90 26.21 175.20 26.21L175.20 26.21Q173.47 26.21 172.15 25.43Q170.83 24.65 170.09 23.03Q169.34 21.41 169.34 18.86L169.34 18.86Q169.34 16.66 169.88 15.08Q170.42 13.51 171.35 12.54Q172.27 11.57 173.47 11.11Q174.67 10.66 175.99 10.66L175.99 10.66Q176.98 10.66 177.78 10.86Q178.58 11.06 179.04 11.42Q179.50 11.78 179.50 12.34ZM175.20 24.07L175.20 24.07L175.20 24.07Q176.45 24.07 177.20 23.30Q177.96 22.54 177.96 21.17L177.96 21.17Q177.96 19.82 177.19 19.12Q176.42 18.41 175.22 18.41L175.22 18.41Q174.14 18.41 173.30 18.88Q172.46 19.34 171.96 20.02L171.96 20.02L172.01 20.09Q172.01 21.94 172.87 23.00Q173.74 24.07 175.20 24.07ZM192.17 18.43L192.17 18.43L192.17 18.43Q192.17 16.46 191.72 15.23Q191.28 13.99 190.51 13.42Q189.74 12.84 188.78 12.84L188.78 12.84Q187.85 12.84 187.08 13.44Q186.31 14.04 185.86 15.28Q185.40 16.51 185.40 18.43L185.40 18.43Q185.40 21.17 186.29 22.61Q187.18 24.05 188.78 24.05L188.78 24.05Q190.39 24.05 191.28 22.61Q192.17 21.17 192.17 18.43ZM188.78 26.21L188.78 26.21L188.78 26.21Q187.01 26.21 185.64 25.36Q184.27 24.50 183.52 22.78Q182.76 21.05 182.76 18.43L182.76 18.43Q182.76 15.70 183.59 13.99Q184.42 12.29 185.78 11.47Q187.15 10.66 188.78 10.66L188.78 10.66Q190.42 10.66 191.80 11.48Q193.18 12.31 194.00 14.03Q194.83 15.74 194.83 18.43L194.83 18.43Q194.83 21.02 194.06 22.75Q193.30 24.48 191.94 25.34Q190.58 26.21 188.78 26.21ZM206.50 18.43L206.50 18.43L206.50 18.43Q206.50 16.46 206.05 15.23Q205.61 13.99 204.84 13.42Q204.07 12.84 203.11 12.84L203.11 12.84Q202.18 12.84 201.41 13.44Q200.64 14.04 200.18 15.28Q199.73 16.51 199.73 18.43L199.73 18.43Q199.73 21.17 200.62 22.61Q201.50 24.05 203.11 24.05L203.11 24.05Q204.72 24.05 205.61 22.61Q206.50 21.17 206.50 18.43ZM203.11 26.21L203.11 26.21L203.11 26.21Q201.34 26.21 199.97 25.36Q198.60 24.50 197.84 22.78Q197.09 21.05 197.09 18.43L197.09 18.43Q197.09 15.70 197.92 13.99Q198.74 12.29 200.11 11.47Q201.48 10.66 203.11 10.66L203.11 10.66Q204.74 10.66 206.12 11.48Q207.50 12.31 208.33 14.03Q209.16 15.74 209.16 18.43L209.16 18.43Q209.16 21.02 208.39 22.75Q207.62 24.48 206.27 25.34Q204.91 26.21 203.11 26.21ZM228.46 18.48L228.46 18.48L228.46 20.83L225.67 20.83L225.67 18.58Q225.67 17.47 225.04 16.96Q224.40 16.44 223.37 16.44L223.37 16.44Q222.60 16.44 221.98 16.63Q221.35 16.82 220.90 17.09L220.90 17.09L220.90 20.83L218.11 20.83L218.11 16.94Q218.11 16.37 218.34 16.01Q218.57 15.65 219.07 15.34L219.07 15.34Q219.77 14.88 220.88 14.56Q222.00 14.23 223.37 14.23L223.37 14.23Q225.77 14.23 227.11 15.30Q228.46 16.37 228.46 18.48ZM218.11 24.74L218.11 19.63L220.90 19.63L220.90 25.82Q220.70 25.90 220.37 25.96Q220.03 26.02 219.62 26.02L219.62 26.02Q218.86 26.02 218.48 25.73Q218.11 25.44 218.11 24.74L218.11 24.74ZM225.67 24.74L225.67 19.63L228.46 19.63L228.46 25.82Q228.29 25.90 227.94 25.96Q227.59 26.02 227.18 26.02L227.18 26.02Q226.42 26.02 226.04 25.73Q225.67 25.44 225.67 24.74L225.67 24.74ZM242.62 20.21L242.62 20.21L242.62 20.21Q242.62 22.06 241.91 23.40Q241.20 24.74 239.90 25.48Q238.61 26.21 236.83 26.21L236.83 26.21Q235.08 26.21 233.77 25.48Q232.46 24.74 231.76 23.40Q231.05 22.06 231.05 20.21L231.05 20.21Q231.05 18.36 231.77 17.03Q232.49 15.70 233.80 14.96Q235.10 14.23 236.86 14.23L236.86 14.23Q238.58 14.23 239.88 14.96Q241.18 15.70 241.90 17.04Q242.62 18.38 242.62 20.21ZM236.83 16.44L236.83 16.44L236.83 16.44Q235.49 16.44 234.70 17.44Q233.90 18.43 233.90 20.21L233.90 20.21Q233.90 22.01 234.67 22.99Q235.44 23.98 236.83 23.98L236.83 23.98Q238.22 23.98 239.00 22.98Q239.78 21.98 239.78 20.21L239.78 20.21Q239.78 18.46 239.00 17.45Q238.22 16.44 236.83 16.44ZM247.99 17.16L247.99 17.16L247.99 20.54L245.21 20.54L245.21 16.99Q245.21 16.39 245.47 16.00Q245.74 15.60 246.26 15.24L246.26 15.24Q246.98 14.81 248.09 14.52Q249.19 14.23 250.46 14.23L250.46 14.23Q252.65 14.23 252.65 15.55L252.65 15.55Q252.65 15.86 252.56 16.14Q252.48 16.42 252.34 16.61L252.34 16.61Q252.10 16.56 251.72 16.51Q251.35 16.46 250.97 16.46L250.97 16.46Q250.06 16.46 249.29 16.67Q248.52 16.87 247.99 17.16ZM245.21 24.74L245.21 19.54L247.99 19.70L247.99 25.82Q247.80 25.90 247.46 25.96Q247.13 26.02 246.72 26.02L246.72 26.02Q245.95 26.02 245.58 25.73Q245.21 25.44 245.21 24.74L245.21 24.74ZM264.24 18.05L264.24 18.05L264.24 20.81L261.46 20.81L261.46 18.36Q261.46 17.38 260.88 16.91Q260.30 16.44 259.39 16.44L259.39 16.44Q258.74 16.44 258.19 16.64Q257.64 16.85 257.28 17.09L257.28 17.09L257.28 20.81L254.50 20.81L254.50 16.94Q254.50 16.39 254.72 16.02Q254.95 15.65 255.46 15.34L255.46 15.34Q256.18 14.86 257.26 14.54Q258.34 14.23 259.46 14.23L259.46 14.23Q260.64 14.23 261.62 14.59Q262.61 14.95 263.21 15.65L263.21 15.65Q263.38 15.79 263.51 15.94Q263.64 16.08 263.74 16.27L263.74 16.27Q263.95 16.61 264.10 17.08Q264.24 17.54 264.24 18.05ZM271.20 18.26L271.20 18.26L271.20 20.81L268.42 20.81L268.42 18.36Q268.42 17.38 267.86 16.91Q267.31 16.44 266.38 16.44L266.38 16.44Q265.70 16.44 265.07 16.73Q264.43 17.02 263.95 17.50L263.95 17.50L262.61 15.74Q263.30 15.12 264.32 14.68Q265.34 14.23 266.71 14.23L266.71 14.23Q267.98 14.23 269.00 14.64Q270.02 15.05 270.61 15.95Q271.20 16.85 271.20 18.26ZM254.50 24.74L254.50 19.63L257.28 19.63L257.28 25.82Q257.09 25.90 256.75 25.96Q256.42 26.02 256.01 26.02L256.01 26.02Q255.24 26.02 254.87 25.73Q254.50 25.44 254.50 24.74L254.50 24.74ZM261.46 24.74L261.46 19.63L264.24 19.63L264.24 25.82Q264.07 25.90 263.72 25.96Q263.38 26.02 262.97 26.02L262.97 26.02Q262.20 26.02 261.83 25.73Q261.46 25.44 261.46 24.74L261.46 24.74ZM268.42 24.74L268.42 19.63L271.20 19.63L271.20 25.82Q271.03 25.90 270.68 25.96Q270.34 26.02 269.95 26.02L269.95 26.02Q269.16 26.02 268.79 25.73Q268.42 25.44 268.42 24.74L268.42 24.74ZM278.74 24.10L278.74 24.10L278.74 24.10Q279.50 24.10 280.09 23.94Q280.68 23.78 280.97 23.59L280.97 23.59L280.97 20.74L278.47 21Q277.46 21.07 276.94 21.44Q276.41 21.82 276.41 22.51L276.41 22.51Q276.41 23.23 276.97 23.66Q277.54 24.10 278.74 24.10ZM278.64 14.23L278.64 14.23L278.64 14.23Q280.94 14.23 282.31 15.22Q283.68 16.20 283.68 18.31L283.68 18.31L283.68 23.88Q283.68 24.43 283.42 24.76Q283.15 25.08 282.72 25.34L282.72 25.34Q282.05 25.73 281.04 25.98Q280.03 26.23 278.74 26.23L278.74 26.23Q276.38 26.23 275.03 25.31Q273.67 24.38 273.67 22.58L273.67 22.58Q273.67 21 274.69 20.15Q275.71 19.30 277.66 19.10L277.66 19.10L280.94 18.77L280.94 18.29Q280.94 17.30 280.27 16.85Q279.60 16.39 278.40 16.39L278.40 16.39Q277.46 16.39 276.56 16.64Q275.66 16.90 274.97 17.23L274.97 17.23Q274.73 17.04 274.55 16.73Q274.37 16.42 274.37 16.08L274.37 16.08Q274.37 15.24 275.28 14.83L275.28 14.83Q275.95 14.54 276.84 14.39Q277.73 14.23 278.64 14.23ZM286.94 24.74L286.94 19.54L289.73 19.70L289.73 25.82Q289.54 25.90 289.20 25.96Q288.86 26.02 288.46 26.02L288.46 26.02Q287.69 26.02 287.32 25.73Q286.94 25.44 286.94 24.74L286.94 24.74ZM289.73 11.38L289.73 21.12L286.94 20.95L286.94 10.27Q287.11 10.22 287.46 10.16Q287.81 10.10 288.19 10.10L288.19 10.10Q288.98 10.10 289.36 10.38Q289.73 10.66 289.73 11.38L289.73 11.38Z"/></svg>