<svg xmlns="http://www.w3.org/2000/svg" xmlns:xlink="http://www.w3.org/1999/xlink" width="261.88800000000003" height="39.888"><path fill="black" d="M1.54 27.12L2.57 12L7.13 12L8.76 17.30Q8.93 17.78 9.11 18.42Q9.29 19.06 9.47 19.74Q9.65 20.42 9.80 21.12Q9.96 21.82 10.06 22.42L10.06 22.42L10.18 22.42Q10.27 21.77 10.45 21.01Q10.63 20.26 10.81 19.55Q10.99 18.84 11.16 18.24Q11.33 17.64 11.42 17.30L11.42 17.30L13.01 12L17.57 12L18.65 27.12L15.24 27.12L14.98 22.01Q14.93 21.29 14.90 20.44Q14.88 19.58 14.87 18.70Q14.86 17.81 14.86 16.94Q14.86 16.08 14.86 15.36L14.86 15.36L14.78 15.36Q14.62 16.15 14.41 16.99Q14.21 17.83 13.99 18.66Q13.78 19.49 13.56 20.27Q13.34 21.05 13.13 21.70L13.13 21.70L11.45 27.12L8.71 27.12L6.96 21.72Q6.74 21.05 6.53 20.27Q6.31 19.49 6.11 18.66Q5.90 17.83 5.71 16.99Q5.52 16.15 5.38 15.36L5.38 15.36L5.30 15.36Q5.33 16.13 5.32 17.03Q5.30 17.93 5.28 18.83Q5.26 19.73 5.22 20.56Q5.18 21.38 5.16 22.01L5.16 22.01L4.90 27.12L1.54 27.12ZM28.66 23.66L28.66 15.60L32.21 15.60L32.21 27.12L29.59 27.12L29.23 25.87L29.14 25.87Q28.90 26.11 28.56 26.38Q28.22 26.64 27.76 26.87Q27.29 27.10 26.69 27.24Q26.09 27.38 25.32 27.38L25.32 27.38Q23.45 27.38 22.39 26.35Q21.34 25.32 21.34 23.30L21.34 23.30L21.34 15.60L24.89 15.60L24.89 23.02Q24.89 23.90 25.33 24.32Q25.78 24.74 26.47 24.74L26.47 24.74Q27.31 24.74 27.85 24.40Q28.39 24.05 28.66 23.66L28.66 23.66ZM39.43 22.49L38.57 23.38L38.57 27.12L35.04 27.12L35.04 9.96L38.57 9.96L38.57 19.97L42.17 15.60L46.46 15.60L42.12 20.45L46.66 27.12L42.48 27.12L39.43 22.49ZM55.51 15.60L55.51 18.14L52.56 18.14L52.56 23.02Q52.56 23.81 52.91 24.12Q53.26 24.43 53.88 24.43L53.88 24.43Q54.36 24.43 54.84 24.34Q55.32 24.24 55.58 24.07L55.58 24.07L56.11 26.50Q55.70 26.71 54.88 26.92Q54.05 27.12 53.11 27.12L53.11 27.12Q50.88 27.12 49.96 26.26Q49.03 25.39 49.03 23.64L49.03 23.64L49.03 18.14L47.23 18.14L47.23 15.60L49.03 15.60L49.03 12.10L52.56 12.10L52.56 15.60L55.51 15.60ZM59.11 18.94L57.91 16.61Q58.90 16.03 60.13 15.68Q61.37 15.34 62.66 15.34L62.66 15.34Q64.80 15.34 66.10 16.37Q67.39 17.40 67.39 19.66L67.39 19.66L67.39 27.12L64.68 27.12L64.37 25.97L64.27 25.97Q63.79 26.59 62.94 26.99Q62.09 27.38 60.94 27.38L60.94 27.38Q59.95 27.38 59.22 27.10Q58.49 26.81 58.01 26.33Q57.53 25.85 57.28 25.19Q57.02 24.53 57.02 23.78L57.02 23.78Q57.02 22.78 57.47 22.06Q57.91 21.34 58.67 20.88Q59.42 20.42 60.44 20.21Q61.46 19.99 62.62 19.99L62.62 19.99L63.82 19.99L63.82 19.37Q63.82 18.72 63.36 18.37Q62.90 18.02 62.06 18.02L62.06 18.02Q61.34 18.02 60.65 18.24Q59.95 18.46 59.11 18.94L59.11 18.94ZM63.84 23.78L63.84 22.15L63.05 22.18Q62.38 22.20 61.92 22.32Q61.46 22.44 61.19 22.62Q60.91 22.80 60.79 23.05Q60.67 23.30 60.67 23.57L60.67 23.57Q60.67 24.31 61.12 24.59Q61.56 24.86 62.14 24.86L62.14 24.86Q62.71 24.86 63.18 24.53Q63.65 24.19 63.84 23.78L63.84 23.78ZM76.85 27.12L77.88 12L82.44 12L84.07 17.30Q84.24 17.78 84.42 18.42Q84.60 19.06 84.78 19.74Q84.96 20.42 85.12 21.12Q85.27 21.82 85.37 22.42L85.37 22.42L85.49 22.42Q85.58 21.77 85.76 21.01Q85.94 20.26 86.12 19.55Q86.30 18.84 86.47 18.24Q86.64 17.64 86.74 17.30L86.74 17.30L88.32 12L92.88 12L93.96 27.12L90.55 27.12L90.29 22.01Q90.24 21.29 90.22 20.44Q90.19 19.58 90.18 18.70Q90.17 17.81 90.17 16.94Q90.17 16.08 90.17 15.36L90.17 15.36L90.10 15.36Q89.93 16.15 89.72 16.99Q89.52 17.83 89.30 18.66Q89.09 19.49 88.87 20.27Q88.66 21.05 88.44 21.70L88.44 21.70L86.76 27.12L84.02 27.12L82.27 21.72Q82.06 21.05 81.84 20.27Q81.62 19.49 81.42 18.66Q81.22 17.83 81.02 16.99Q80.83 16.15 80.69 15.36L80.69 15.36L80.62 15.36Q80.64 16.13 80.63 17.03Q80.62 17.93 80.59 18.83Q80.57 19.73 80.53 20.56Q80.50 21.38 80.47 22.01L80.47 22.01L80.21 27.12L76.85 27.12ZM98.30 18.94L97.10 16.61Q98.09 16.03 99.32 15.68Q100.56 15.34 101.86 15.34L101.86 15.34Q103.99 15.34 105.29 16.37Q106.58 17.40 106.58 19.66L106.58 19.66L106.58 27.12L103.87 27.12L103.56 25.97L103.46 25.97Q102.98 26.59 102.13 26.99Q101.28 27.38 100.13 27.38L100.13 27.38Q99.14 27.38 98.41 27.10Q97.68 26.81 97.20 26.33Q96.72 25.85 96.47 25.19Q96.22 24.53 96.22 23.78L96.22 23.78Q96.22 22.78 96.66 22.06Q97.10 21.34 97.86 20.88Q98.62 20.42 99.64 20.21Q100.66 19.99 101.81 19.99L101.81 19.99L103.01 19.99L103.01 19.37Q103.01 18.72 102.55 18.37Q102.10 18.02 101.26 18.02L101.26 18.02Q100.54 18.02 99.84 18.24Q99.14 18.46 98.30 18.94L98.30 18.94ZM103.03 23.78L103.03 22.15L102.24 22.18Q101.57 22.20 101.11 22.32Q100.66 22.44 100.38 22.62Q100.10 22.80 99.98 23.05Q99.86 23.30 99.86 23.57L99.86 23.57Q99.86 24.31 100.31 24.59Q100.75 24.86 101.33 24.86L101.33 24.86Q101.90 24.86 102.37 24.53Q102.84 24.19 103.03 23.78L103.03 23.78ZM112.99 27.12L109.49 27.12L109.49 9.96L112.99 9.96L112.99 27.12ZM117.29 18.94L116.09 16.61Q117.07 16.03 118.31 15.68Q119.54 15.34 120.84 15.34L120.84 15.34Q122.98 15.34 124.27 16.37Q125.57 17.40 125.57 19.66L125.57 19.66L125.57 27.12L122.86 27.12L122.54 25.97L122.45 25.97Q121.97 26.59 121.12 26.99Q120.26 27.38 119.11 27.38L119.11 27.38Q118.13 27.38 117.40 27.10Q116.66 26.81 116.18 26.33Q115.70 25.85 115.45 25.19Q115.20 24.53 115.20 23.78L115.20 23.78Q115.20 22.78 115.64 22.06Q116.09 21.34 116.84 20.88Q117.60 20.42 118.62 20.21Q119.64 19.99 120.79 19.99L120.79 19.99L121.99 19.99L121.99 19.37Q121.99 18.72 121.54 18.37Q121.08 18.02 120.24 18.02L120.24 18.02Q119.52 18.02 118.82 18.24Q118.13 18.46 117.29 18.94L117.29 18.94ZM122.02 23.78L122.02 22.15L121.22 22.18Q120.55 22.20 120.10 22.32Q119.64 22.44 119.36 22.62Q119.09 22.80 118.97 23.05Q118.85 23.30 118.85 23.57L118.85 23.57Q118.85 24.31 119.29 24.59Q119.74 24.86 120.31 24.86L120.31 24.86Q120.89 24.86 121.36 24.53Q121.82 24.19 122.02 23.78L122.02 23.78ZM131.69 27.12L128.16 27.12L128.16 15.60L130.94 15.60L131.30 17.62Q131.52 17.18 131.83 16.76Q132.14 16.34 132.58 16.03Q133.01 15.72 133.57 15.53Q134.14 15.34 134.83 15.34L134.83 15.34Q135.36 15.34 135.80 15.47Q136.25 15.60 136.51 15.77L136.51 15.77L135.94 18.53Q135.67 18.38 135.26 18.26Q134.86 18.14 134.26 18.14L134.26 18.14Q133.15 18.14 132.42 18.86Q131.69 19.58 131.69 21.36L131.69 21.36L131.69 27.12ZM148.56 14.45L148.56 14.45Q150.53 14.45 151.72 15.34Q152.90 16.22 152.90 17.69L152.90 17.69Q152.90 18.72 152.29 19.42Q151.68 20.11 150.70 20.52L150.70 20.52Q151.18 20.66 151.63 20.92Q152.09 21.17 152.44 21.53Q152.78 21.89 153 22.38Q153.22 22.87 153.22 23.50L153.22 23.50Q153.22 24.36 152.87 25.07Q152.52 25.78 151.88 26.28Q151.25 26.78 150.35 27.06Q149.45 27.34 148.34 27.34L148.34 27.34Q147.29 27.34 146.41 27.07Q145.54 26.81 144.92 26.34Q144.31 25.87 143.98 25.21Q143.64 24.55 143.64 23.74L143.64 23.74Q143.64 22.54 144.35 21.82Q145.06 21.10 146.04 20.74L146.04 20.74Q145.20 20.38 144.62 19.67Q144.05 18.96 144.05 18L144.05 18Q144.05 17.21 144.37 16.55Q144.70 15.89 145.28 15.42Q145.87 14.95 146.71 14.70Q147.55 14.45 148.56 14.45ZM148.46 16.87L148.46 16.87Q147.89 16.87 147.53 17.18Q147.17 17.50 147.17 18L147.17 18Q147.17 18.60 147.59 19.01Q148.01 19.42 148.58 19.56L148.58 19.56Q149.06 19.37 149.41 18.97Q149.76 18.58 149.76 18.10L149.76 18.10Q149.76 17.54 149.40 17.21Q149.04 16.87 148.46 16.87ZM148.30 21.94L148.30 21.94Q147.67 22.13 147.28 22.52Q146.88 22.92 146.88 23.50L146.88 23.50Q146.88 24.12 147.32 24.49Q147.77 24.86 148.49 24.86L148.49 24.86Q149.18 24.86 149.59 24.50Q150 24.14 150 23.52L150 23.52Q150 22.92 149.51 22.50Q149.02 22.08 148.30 21.94ZM160.10 14.45L160.10 14.45Q161.26 14.45 162.24 14.82Q163.22 15.19 163.94 15.96Q164.66 16.73 165.07 17.95Q165.48 19.18 165.48 20.86L165.48 20.86Q165.48 22.51 165.04 23.74Q164.59 24.96 163.85 25.76Q163.10 26.57 162.13 26.95Q161.16 27.34 160.08 27.34L160.08 27.34Q158.93 27.34 157.93 26.96Q156.94 26.59 156.22 25.80Q155.50 25.01 155.09 23.78Q154.68 22.56 154.68 20.86L154.68 20.86Q154.68 19.22 155.12 18.02Q155.57 16.82 156.32 16.03Q157.08 15.24 158.05 14.84Q159.02 14.45 160.10 14.45ZM157.97 20.86L157.97 20.86Q157.97 21.98 158.15 22.74Q158.33 23.50 158.62 23.94Q158.90 24.38 159.29 24.58Q159.67 24.77 160.10 24.77L160.10 24.77Q160.51 24.77 160.90 24.58Q161.28 24.38 161.57 23.94Q161.86 23.50 162.02 22.74Q162.19 21.98 162.19 20.86L162.19 20.86Q162.19 19.75 162.02 19.01Q161.86 18.26 161.57 17.81Q161.28 17.35 160.90 17.17Q160.51 16.99 160.10 16.99L160.10 16.99Q159.67 16.99 159.29 17.17Q158.90 17.35 158.62 17.80Q158.33 18.24 158.15 18.98Q157.97 19.73 157.97 20.86ZM172.44 14.45L172.44 14.45Q173.59 14.45 174.58 14.82Q175.56 15.19 176.28 15.96Q177.00 16.73 177.41 17.95Q177.82 19.18 177.82 20.86L177.82 20.86Q177.82 22.51 177.37 23.74Q176.93 24.96 176.18 25.76Q175.44 26.57 174.47 26.95Q173.50 27.34 172.42 27.34L172.42 27.34Q171.26 27.34 170.27 26.96Q169.27 26.59 168.55 25.80Q167.83 25.01 167.42 23.78Q167.02 22.56 167.02 20.86L167.02 20.86Q167.02 19.22 167.46 18.02Q167.90 16.82 168.66 16.03Q169.42 15.24 170.39 14.84Q171.36 14.45 172.44 14.45ZM170.30 20.86L170.30 20.86Q170.30 21.98 170.48 22.74Q170.66 23.50 170.95 23.94Q171.24 24.38 171.62 24.58Q172.01 24.77 172.44 24.77L172.44 24.77Q172.85 24.77 173.23 24.58Q173.62 24.38 173.90 23.94Q174.19 23.50 174.36 22.74Q174.53 21.98 174.53 20.86L174.53 20.86Q174.53 19.75 174.36 19.01Q174.19 18.26 173.90 17.81Q173.62 17.35 173.23 17.17Q172.85 16.99 172.44 16.99L172.44 16.99Q172.01 16.99 171.62 17.17Q171.24 17.35 170.95 17.80Q170.66 18.24 170.48 18.98Q170.30 19.73 170.30 20.86ZM190.25 19.25L190.25 27.12L186.70 27.12L186.70 15.60L189.46 15.60L189.86 17.04Q190.63 16.25 191.59 15.79Q192.55 15.34 193.68 15.34L193.68 15.34Q195.62 15.34 196.66 16.39Q197.69 17.45 197.69 19.49L197.69 19.49L197.69 27.12L194.14 27.12L194.14 19.85Q194.14 19.01 193.74 18.52Q193.34 18.02 192.58 18.02L192.58 18.02Q192.00 18.02 191.36 18.36Q190.73 18.70 190.25 19.25L190.25 19.25ZM211.87 21.29L211.87 21.29Q211.87 22.70 211.40 23.83Q210.94 24.96 210.12 25.75Q209.30 26.54 208.20 26.96Q207.10 27.38 205.82 27.38L205.82 27.38Q204.55 27.38 203.46 26.99Q202.37 26.59 201.58 25.85Q200.78 25.10 200.33 24.01Q199.87 22.92 199.87 21.53L199.87 21.53Q199.87 20.06 200.34 18.91Q200.81 17.76 201.62 16.97Q202.44 16.18 203.54 15.76Q204.65 15.34 205.92 15.34L205.92 15.34Q207.19 15.34 208.28 15.72Q209.38 16.10 210.17 16.86Q210.96 17.62 211.42 18.72Q211.87 19.82 211.87 21.29ZM208.22 21.41L208.22 21.41Q208.22 20.47 208.03 19.81Q207.84 19.15 207.50 18.73Q207.17 18.31 206.74 18.12Q206.30 17.93 205.85 17.93L205.85 17.93Q205.39 17.93 204.97 18.10Q204.55 18.26 204.23 18.67Q203.90 19.08 203.71 19.74Q203.52 20.40 203.52 21.41L203.52 21.41Q203.52 23.16 204.24 23.98Q204.96 24.79 205.90 24.79L205.90 24.79Q206.35 24.79 206.77 24.61Q207.19 24.43 207.52 24.04Q207.84 23.64 208.03 22.99Q208.22 22.34 208.22 21.41ZM217.58 27.12L214.06 27.12L214.06 15.60L216.84 15.60L217.20 17.62Q217.42 17.18 217.73 16.76Q218.04 16.34 218.47 16.03Q218.90 15.72 219.47 15.53Q220.03 15.34 220.73 15.34L220.73 15.34Q221.26 15.34 221.70 15.47Q222.14 15.60 222.41 15.77L222.41 15.77L221.83 18.53Q221.57 18.38 221.16 18.26Q220.75 18.14 220.15 18.14L220.15 18.14Q219.05 18.14 218.32 18.86Q217.58 19.58 217.58 21.36L217.58 21.36L217.58 27.12ZM227.11 19.25L227.11 27.12L223.56 27.12L223.56 15.60L226.32 15.60L226.73 17.04Q227.50 16.25 228.41 15.79Q229.32 15.34 230.45 15.34L230.45 15.34Q232.92 15.34 233.83 17.09L233.83 17.09Q234.60 16.30 235.57 15.82Q236.54 15.34 237.65 15.34L237.65 15.34Q239.50 15.34 240.50 16.33Q241.51 17.33 241.51 19.25L241.51 19.25L241.51 27.12L237.96 27.12L237.96 19.61Q237.96 18.89 237.58 18.46Q237.19 18.02 236.54 18.02L236.54 18.02Q235.97 18.02 235.34 18.31Q234.72 18.60 234.31 19.15L234.31 19.15L234.31 27.12L230.76 27.12L230.76 19.61Q230.76 18.89 230.38 18.46Q229.99 18.02 229.34 18.02L229.34 18.02Q228.77 18.02 228.14 18.36Q227.52 18.70 227.11 19.25L227.11 19.25ZM245.71 18.94L244.51 16.61Q245.50 16.03 246.73 15.68Q247.97 15.34 249.26 15.34L249.26 15.34Q251.40 15.34 252.70 16.37Q253.99 17.40 253.99 19.66L253.99 19.66L253.99 27.12L251.28 27.12L250.97 25.97L250.87 25.97Q250.39 26.59 249.54 26.99Q248.69 27.38 247.54 27.38L247.54 27.38Q246.55 27.38 245.82 27.10Q245.09 26.81 244.61 26.33Q244.13 25.85 243.88 25.19Q243.62 24.53 243.62 23.78L243.62 23.78Q243.62 22.78 244.07 22.06Q244.51 21.34 245.27 20.88Q246.02 20.42 247.04 20.21Q248.06 19.99 249.22 19.99L249.22 19.99L250.42 19.99L250.42 19.37Q250.42 18.72 249.96 18.37Q249.50 18.02 248.66 18.02L248.66 18.02Q247.94 18.02 247.25 18.24Q246.55 18.46 245.71 18.94L245.71 18.94ZM250.44 23.78L250.44 22.15L249.65 22.18Q248.98 22.20 248.52 22.32Q248.06 22.44 247.79 22.62Q247.51 22.80 247.39 23.05Q247.27 23.30 247.27 23.57L247.27 23.57Q247.27 24.31 247.72 24.59Q248.16 24.86 248.74 24.86L248.74 24.86Q249.31 24.86 249.78 24.53Q250.25 24.19 250.44 23.78L250.44 23.78ZM260.40 27.12L256.90 27.12L256.90 9.96L260.40 9.96L260.40 27.12Z"/></svg>