<svg xmlns="http://www.w3.org/2000/svg" xmlns:xlink="http://www.w3.org/1999/xlink" width="66.2578125" height="44.71875"><path fill="black" d="M0.84 11.81L7.10 11.81L7.10 12.87L6.26 12.87Q5.84 12.87 5.47 13.14Q5.11 13.41 5.11 14.20L5.11 14.20L5.11 23.74Q5.11 24.96 5.36 25.79Q5.60 26.63 6.15 27.14Q6.70 27.66 7.56 27.88Q8.41 28.10 9.66 28.10L9.66 28.10Q10.64 28.10 11.41 27.76Q12.19 27.42 12.73 26.80Q13.27 26.18 13.55 25.34Q13.83 24.49 13.83 23.48L13.83 23.48L13.83 14.20Q13.83 13.41 13.48 13.14Q13.13 12.87 12.70 12.87L12.70 12.87L11.74 12.87L11.74 11.81L17.25 11.81L17.25 12.87L16.29 12.87Q15.87 12.87 15.52 13.14Q15.16 13.41 15.16 14.20L15.16 14.20L15.16 22.22Q15.16 24.05 14.86 25.43Q14.55 26.81 13.84 27.74Q13.13 28.66 11.96 29.14Q10.80 29.63 9.09 29.63L9.09 29.63Q6.02 29.63 4.43 28.28Q2.84 26.93 2.84 24.52L2.84 24.52L2.84 14.20Q2.84 13.41 2.48 13.14Q2.13 12.87 1.71 12.87L1.71 12.87L0.84 12.87L0.84 11.81ZM26.74 26.04L27.54 26.39Q26.93 28.22 25.99 28.92Q25.05 29.63 23.53 29.63L23.53 29.63Q22.52 29.63 21.68 29.19Q20.84 28.76 20.23 28.01Q19.62 27.26 19.28 26.24Q18.94 25.22 18.94 24.05L18.94 24.05Q18.94 22.55 19.28 21.34Q19.62 20.13 20.26 19.28Q20.91 18.42 21.84 17.96Q22.78 17.51 23.98 17.51L23.98 17.51Q24.77 17.51 25.45 17.80Q26.13 18.09 26.63 18.55Q27.12 19.01 27.39 19.58Q27.66 20.16 27.66 20.72L27.66 20.72Q27.66 21.40 27.35 21.73Q27.05 22.05 26.53 22.05L26.53 22.05Q25.97 22.05 25.54 21.70Q25.10 21.35 25.10 20.72L25.10 20.72Q25.10 20.20 25.31 19.89Q25.52 19.57 25.52 19.50L25.52 19.50Q25.52 19.43 25.39 19.28Q25.27 19.13 25.05 18.98Q24.84 18.84 24.55 18.74Q24.26 18.63 23.93 18.63L23.93 18.63Q23.25 18.63 22.72 18.98Q22.20 19.34 21.81 19.97Q21.42 20.60 21.22 21.49Q21.02 22.38 21.02 23.46L21.02 23.46Q21.02 25.73 21.89 27.02Q22.76 28.31 24.30 28.31L24.30 28.31Q25.13 28.31 25.73 27.73Q26.34 27.14 26.74 26.04L26.74 26.04ZM32.60 11.44L32.60 19.92L32.67 19.92Q33.12 18.91 34.14 18.30Q35.16 17.70 36.28 17.70L36.28 17.70Q37.85 17.70 38.82 18.77Q39.80 19.85 39.80 22.24L39.80 22.24L39.80 27.05Q39.80 27.82 40.15 28.10Q40.50 28.38 40.95 28.38L40.95 28.38L41.37 28.38L41.37 29.25L36.23 29.25L36.23 28.36L36.68 28.36Q37.08 28.36 37.44 28.11Q37.80 27.87 37.80 27.12L37.80 27.12L37.80 22.22Q37.80 20.58 37.18 19.89Q36.56 19.20 35.72 19.20L35.72 19.20Q35.09 19.20 34.51 19.55Q33.94 19.90 33.52 20.48Q33.09 21.07 32.85 21.84Q32.60 22.62 32.60 23.44L32.60 23.44L32.60 27.05Q32.60 27.82 32.95 28.10Q33.30 28.38 33.73 28.38L33.73 28.38L34.17 28.38L34.17 29.25L29.04 29.25L29.04 28.36L29.46 28.36Q29.91 28.36 30.26 28.09Q30.61 27.82 30.61 27.05L30.61 27.05L30.61 14.23Q30.61 13.55 30.50 13.20Q30.40 12.84 29.81 12.80L29.81 12.80L28.71 12.70L28.71 11.81L32.60 11.44ZM50.70 26.04L51.49 26.39Q50.88 28.22 49.75 28.92Q48.61 29.63 47.06 29.63L47.06 29.63Q46.05 29.63 45.21 29.19Q44.37 28.76 43.76 28.01Q43.15 27.26 42.81 26.24Q42.47 25.22 42.47 24.05L42.47 24.05Q42.47 22.55 42.81 21.34Q43.15 20.13 43.79 19.28Q44.44 18.42 45.38 17.96Q46.31 17.51 47.51 17.51L47.51 17.51Q48.52 17.51 49.36 18.07Q50.20 18.63 50.80 19.51Q51.40 20.39 51.73 21.47Q52.05 22.55 52.05 23.55L52.05 23.55L52.05 23.86L44.55 23.86Q44.65 25.97 45.50 27.14Q46.36 28.31 47.84 28.31L47.84 28.31Q48.26 28.31 48.68 28.16Q49.10 28.01 49.49 27.71Q49.88 27.42 50.19 27Q50.51 26.58 50.70 26.04L50.70 26.04ZM49.97 21.73L49.97 21.73Q49.97 20.37 49.30 19.50Q48.63 18.63 47.51 18.63L47.51 18.63Q46.29 18.63 45.52 19.71Q44.74 20.79 44.60 22.62L44.60 22.62L48.82 22.62Q49.24 22.62 49.48 22.58Q49.71 22.55 49.82 22.45Q49.92 22.36 49.95 22.18Q49.97 22.01 49.97 21.73ZM56.98 17.48L56.98 19.92L57.05 19.92Q57.49 18.91 58.51 18.30Q59.53 17.70 60.66 17.70L60.66 17.70Q62.23 17.70 63.20 18.77Q64.17 19.85 64.17 22.24L64.17 22.24L64.17 27.05Q64.17 27.82 64.52 28.10Q64.88 28.38 65.32 28.38L65.32 28.38L65.60 28.38L65.60 29.25L60.61 29.25L60.61 28.36L61.05 28.36Q61.45 28.36 61.82 28.11Q62.18 27.87 62.18 27.12L62.18 27.12L62.18 22.22Q62.18 20.58 61.56 19.89Q60.94 19.20 60.09 19.20L60.09 19.20Q59.46 19.20 58.89 19.55Q58.31 19.90 57.89 20.48Q57.47 21.07 57.22 21.84Q56.98 22.62 56.98 23.44L56.98 23.44L56.98 27.05Q56.98 27.82 57.33 28.10Q57.68 28.38 58.10 28.38L58.10 28.38L58.55 28.38L58.55 29.25L53.41 29.25L53.41 28.36L53.84 28.36Q54.28 28.36 54.63 28.09Q54.98 27.82 54.98 27.05L54.98 27.05L54.98 20.27Q54.98 19.59 54.88 19.24Q54.77 18.89 54.19 18.84L54.19 18.84L53.37 18.77L53.37 17.88L56.98 17.48Z"/></svg>