<svg xmlns="http://www.w3.org/2000/svg" xmlns:xlink="http://www.w3.org/1999/xlink" width="349.1953125" height="31.171875"><path fill="black" d="M5.94 17.67L3.59 17.67L3.59 15.26L6.29 15.26Q7.45 15.26 8.16 14.43Q8.86 13.61 8.86 12.27L8.86 12.27Q8.86 11.00 8.15 10.26Q7.44 9.52 6.20 9.52L6.20 9.52L3.59 9.52L3.59 6.96L6.63 6.96Q8.10 6.96 9.24 7.57Q10.38 8.18 11.03 9.31Q11.67 10.44 11.67 12L11.67 12Q11.67 13.62 10.97 14.90Q10.27 16.18 8.98 16.93Q7.69 17.67 5.94 17.67L5.94 17.67ZM4.44 24.23L1.62 24.23L1.62 6.96L4.44 6.96L4.44 24.23ZM12.74 24.23L9.62 24.23L6.11 17.24L8.16 15.55L12.74 24.23ZM19.89 24.42L19.89 24.42Q18.20 24.42 16.97 23.61Q15.74 22.79 15.07 21.30Q14.40 19.80 14.40 17.75L14.40 17.75Q14.40 15.82 15.01 14.37Q15.61 12.93 16.74 12.12Q17.87 11.31 19.44 11.31L19.44 11.31Q20.92 11.31 22.00 12.03Q23.09 12.75 23.68 14.07Q24.27 15.39 24.27 17.18L24.27 17.18Q24.27 17.66 24.23 18.10Q24.20 18.54 24.15 18.86L24.15 18.86L16.52 18.86L16.52 16.91L21.73 16.91Q21.73 15.36 21.11 14.48Q20.50 13.59 19.42 13.59L19.42 13.59Q18.60 13.59 18.03 14.12Q17.46 14.65 17.17 15.58Q16.89 16.51 16.89 17.77L16.89 17.77Q16.89 19.11 17.24 20.08Q17.60 21.05 18.29 21.57Q18.97 22.10 19.96 22.10L19.96 22.10Q20.64 22.10 21.33 21.85Q22.03 21.60 22.51 21.15L22.51 21.15L23.48 23.38Q22.78 23.87 21.82 24.15Q20.86 24.42 19.89 24.42ZM37.34 22.08L36.27 24.42Q35.54 24.09 35.05 23.74Q34.56 23.38 34.28 22.96Q34.01 22.54 33.93 22.00L33.93 22.00L34.37 22.36L33.45 22.36L33.91 20.91L33.91 14.32L33.41 12.94L33.68 12.94L33.68 6.19L36.40 6.19L36.40 20.64Q36.40 21.25 36.63 21.54Q36.87 21.83 37.34 22.08L37.34 22.08ZM30.53 24.42L30.53 24.42Q28.41 24.42 27.16 22.71Q25.91 21 25.91 17.85L25.91 17.85Q25.91 14.72 27.16 13.01Q28.42 11.31 30.56 11.31L30.56 11.31Q32.71 11.31 33.81 13.04Q34.91 14.78 34.91 17.82L34.91 17.82Q34.91 20.89 33.79 22.66Q32.67 24.42 30.53 24.42ZM31.21 22.02L31.21 22.02Q32.47 22.02 33.16 20.92Q33.84 19.83 33.84 17.85L33.84 17.85Q33.84 15.89 33.16 14.80Q32.47 13.71 31.22 13.71L31.22 13.71Q29.96 13.71 29.26 14.80Q28.55 15.89 28.55 17.85L28.55 17.85Q28.55 19.80 29.25 20.91Q29.95 22.02 31.21 22.02ZM50.32 22.08L49.25 24.42Q48.53 24.09 48.04 23.74Q47.54 23.38 47.27 22.96Q46.99 22.54 46.91 22.00L46.91 22.00L47.36 22.36L46.43 22.36L46.90 20.91L46.90 14.32L46.39 12.94L46.66 12.94L46.66 6.19L49.38 6.19L49.38 20.64Q49.38 21.25 49.62 21.54Q49.85 21.83 50.32 22.08L50.32 22.08ZM43.51 24.42L43.51 24.42Q41.39 24.42 40.14 22.71Q38.89 21 38.89 17.85L38.89 17.85Q38.89 14.72 40.15 13.01Q41.40 11.31 43.55 11.31L43.55 11.31Q45.69 11.31 46.79 13.04Q47.89 14.78 47.89 17.82L47.89 17.82Q47.89 20.89 46.78 22.66Q45.66 24.42 43.51 24.42ZM44.19 22.02L44.19 22.02Q45.46 22.02 46.14 20.92Q46.83 19.83 46.83 17.85L46.83 17.85Q46.83 15.89 46.14 14.80Q45.46 13.71 44.20 13.71L44.20 13.71Q42.95 13.71 42.24 14.80Q41.53 15.89 41.53 17.85L41.53 17.85Q41.53 19.80 42.23 20.91Q42.94 22.02 44.19 22.02ZM55.21 24.23L52.49 24.23L52.49 11.50L55.21 11.50L55.21 24.23ZM53.85 9.97L53.85 9.97Q53.06 9.97 52.53 9.44Q52.00 8.91 52.00 8.12L52.00 8.12Q52.00 7.35 52.53 6.81Q53.06 6.28 53.85 6.28L53.85 6.28Q54.63 6.28 55.17 6.81Q55.70 7.35 55.70 8.12L55.70 8.12Q55.70 8.91 55.17 9.44Q54.63 9.97 53.85 9.97ZM62.93 24.42L62.93 24.42Q61.03 24.42 60.08 23.27Q59.12 22.13 59.12 20.31L59.12 20.31L59.12 7.90L61.84 7.90L61.84 20.19Q61.84 21.07 62.23 21.54Q62.63 22.02 63.21 22.02L63.21 22.02Q63.45 22.02 63.68 21.94Q63.91 21.86 64.11 21.74L64.11 21.74L65.04 24Q64.65 24.16 64.11 24.29Q63.56 24.42 62.93 24.42ZM64.58 13.91L57.09 13.91L57.09 11.50L64.58 11.50L64.58 13.91ZM77.10 24.42L77.10 24.42Q76.08 24.42 75.09 24.09Q74.11 23.77 73.27 23.23Q72.43 22.69 71.85 22.05L71.85 22.05L73.01 19.30Q73.48 19.95 74.12 20.51Q74.75 21.07 75.48 21.42Q76.21 21.76 76.96 21.76L76.96 21.76Q77.65 21.76 78.19 21.45Q78.73 21.13 79.04 20.58Q79.35 20.03 79.35 19.35L79.35 19.35Q79.35 18.66 79.01 18.15Q78.67 17.64 78.03 17.24Q77.39 16.84 76.46 16.50L76.46 16.50Q75.29 16.04 74.33 15.35Q73.36 14.65 72.80 13.67Q72.23 12.69 72.23 11.40L72.23 11.40Q72.23 10.03 72.86 8.99Q73.49 7.95 74.58 7.36Q75.68 6.77 77.06 6.77L77.06 6.77Q78.32 6.77 79.54 7.30Q80.75 7.83 81.62 8.75L81.62 8.75L80.57 11.31Q80.16 10.77 79.59 10.35Q79.02 9.93 78.39 9.68Q77.77 9.43 77.17 9.43L77.17 9.43Q76.24 9.43 75.64 10.02Q75.05 10.61 75.05 11.48L75.05 11.48Q75.05 12.48 75.78 13.13Q76.51 13.77 77.85 14.29L77.85 14.29Q79.01 14.72 79.99 15.37Q80.96 16.02 81.56 16.99Q82.16 17.96 82.16 19.37L82.16 19.37Q82.16 20.89 81.48 22.03Q80.80 23.16 79.65 23.79Q78.50 24.42 77.10 24.42ZM87.61 24.42L87.61 24.42Q86.48 24.42 85.64 23.90Q84.80 23.38 84.33 22.50Q83.86 21.62 83.86 20.55L83.86 20.55Q83.86 18.71 85.19 17.68Q86.52 16.64 88.68 16.64L88.68 16.64L90.83 16.64L90.83 18.55L88.93 18.55Q87.81 18.55 87.11 19.04Q86.41 19.52 86.41 20.43L86.41 20.43Q86.41 21.26 86.92 21.76Q87.43 22.27 88.18 22.27L88.18 22.27Q88.76 22.27 89.29 21.96Q89.81 21.64 90.15 21.08Q90.48 20.51 90.48 19.72L90.48 19.72L90.48 18.21L90.40 17.60L90.40 15.50Q90.40 14.63 89.82 14.14Q89.24 13.65 88.37 13.65L88.37 13.65Q87.61 13.65 86.75 13.96Q85.90 14.27 85.32 14.75L85.32 14.75L84.40 12.55Q85.21 12.02 86.37 11.67Q87.53 11.31 88.69 11.31L88.69 11.31Q90.63 11.31 91.79 12.33Q92.94 13.36 92.94 15.20L92.94 15.20L92.94 20.54Q92.94 21.12 93.12 21.47Q93.30 21.82 93.64 21.98L93.64 21.98L93.87 22.09L92.88 24.42L92.55 24.28Q91.76 23.94 91.26 23.34Q90.76 22.75 90.69 22.20L90.69 22.20L91.28 22.69L90.18 22.69L91.01 22.30Q90.61 23.23 89.71 23.82Q88.82 24.42 87.61 24.42ZM98.60 24.23L95.88 24.23L95.88 11.50L98.54 11.50L98.54 13.01L99.02 13.01L98.26 13.76Q98.58 12.61 99.56 11.96Q100.54 11.31 101.80 11.31L101.80 11.31Q103.39 11.31 104.36 12.44Q105.32 13.57 105.32 15.41L105.32 15.41L105.32 24.23L102.60 24.23L102.60 15.86Q102.60 14.87 102.08 14.26Q101.55 13.65 100.69 13.65L100.69 13.65Q100.07 13.65 99.60 13.93Q99.14 14.21 98.87 14.72Q98.60 15.22 98.60 15.88L98.60 15.88L98.60 24.23ZM111.66 24.42L111.66 24.42Q110.44 24.42 109.25 23.89Q108.06 23.37 107.27 22.58L107.27 22.58L108.30 20.24Q109.00 21.06 109.87 21.57Q110.74 22.08 111.49 22.08L111.49 22.08Q112.22 22.08 112.65 21.64Q113.09 21.20 113.09 20.58L113.09 20.58Q113.09 19.90 112.52 19.44Q111.96 18.98 110.93 18.66L110.93 18.66Q109.98 18.34 109.25 17.81Q108.52 17.29 108.09 16.54Q107.67 15.80 107.67 14.84L107.67 14.84Q107.67 13.75 108.21 12.96Q108.74 12.16 109.63 11.74Q110.52 11.31 111.60 11.31L111.60 11.31Q112.64 11.31 113.63 11.69Q114.62 12.07 115.29 12.69L115.29 12.69L114.26 14.91Q113.81 14.38 113.10 14.00Q112.38 13.63 111.70 13.63L111.70 13.63Q111.09 13.63 110.67 13.99Q110.24 14.34 110.24 14.95L110.24 14.95Q110.24 15.55 110.72 15.97Q111.21 16.39 112.38 16.78L112.38 16.78Q113.23 17.06 113.98 17.57Q114.74 18.08 115.21 18.84Q115.68 19.61 115.68 20.66L115.68 20.66Q115.68 21.77 115.14 22.62Q114.61 23.46 113.70 23.94Q112.78 24.42 111.66 24.42ZM130.31 24.42L130.31 24.42Q128.02 24.42 126.32 23.33Q124.62 22.24 123.67 20.25Q122.73 18.26 122.73 15.57L122.73 15.57Q122.73 12.91 123.67 10.93Q124.61 8.95 126.31 7.86Q128.02 6.77 130.31 6.77L130.31 6.77Q131.54 6.77 132.79 7.17Q134.04 7.56 134.94 8.25L134.94 8.25L133.86 10.82Q133.29 10.14 132.36 9.75Q131.43 9.36 130.48 9.36L130.48 9.36Q128.98 9.36 127.88 10.14Q126.77 10.91 126.16 12.30Q125.55 13.70 125.55 15.57L125.55 15.57Q125.55 17.47 126.16 18.87Q126.76 20.27 127.86 21.05Q128.96 21.83 130.46 21.83L130.46 21.83Q131.46 21.83 132.40 21.39Q133.34 20.94 133.90 20.23L133.90 20.23L134.98 22.82Q134.04 23.58 132.80 24Q131.55 24.42 130.31 24.42ZM141.77 24.42L141.77 24.42Q140.16 24.42 138.97 23.61Q137.78 22.79 137.13 21.31Q136.48 19.83 136.48 17.82L136.48 17.82Q136.48 15.83 137.13 14.37Q137.78 12.91 138.97 12.11Q140.16 11.31 141.77 11.31L141.77 11.31Q143.39 11.31 144.58 12.11Q145.77 12.91 146.42 14.37Q147.07 15.83 147.07 17.82L147.07 17.82Q147.07 19.83 146.42 21.31Q145.77 22.79 144.58 23.61Q143.39 24.42 141.77 24.42ZM141.77 22.02L141.77 22.02Q143.00 22.02 143.72 20.89Q144.43 19.77 144.43 17.82L144.43 17.82Q144.43 15.93 143.72 14.82Q143.00 13.71 141.77 13.71L141.77 13.71Q140.54 13.71 139.83 14.82Q139.11 15.93 139.11 17.82L139.11 17.82Q139.11 19.75 139.83 20.88Q140.54 22.02 141.77 22.02ZM151.91 24.23L149.19 24.23L149.19 11.50L151.85 11.50L151.85 13.01L152.33 13.01L151.57 13.76Q151.89 12.61 152.87 11.96Q153.84 11.31 155.11 11.31L155.11 11.31Q156.70 11.31 157.66 12.44Q158.63 13.57 158.63 15.41L158.63 15.41L158.63 24.23L155.91 24.23L155.91 15.86Q155.91 14.87 155.38 14.26Q154.86 13.65 154.00 13.65L154.00 13.65Q153.38 13.65 152.91 13.93Q152.45 14.21 152.18 14.72Q151.91 15.22 151.91 15.88L151.91 15.88L151.91 24.23ZM172.13 22.08L171.06 24.42Q170.33 24.09 169.84 23.74Q169.35 23.38 169.07 22.96Q168.80 22.54 168.71 22.00L168.71 22.00L169.16 22.36L168.23 22.36L168.70 20.91L168.70 14.32L168.20 12.94L168.47 12.94L168.47 6.19L171.19 6.19L171.19 20.64Q171.19 21.25 171.42 21.54Q171.66 21.83 172.13 22.08L172.13 22.08ZM165.32 24.42L165.32 24.42Q163.20 24.42 161.95 22.71Q160.70 21 160.70 17.85L160.70 17.85Q160.70 14.72 161.95 13.01Q163.21 11.31 165.35 11.31L165.35 11.31Q167.50 11.31 168.60 13.04Q169.70 14.78 169.70 17.82L169.70 17.82Q169.70 20.89 168.58 22.66Q167.46 24.42 165.32 24.42ZM166.00 22.02L166.00 22.02Q167.26 22.02 167.95 20.92Q168.63 19.83 168.63 17.85L168.63 17.85Q168.63 15.89 167.95 14.80Q167.26 13.71 166.01 13.71L166.01 13.71Q164.75 13.71 164.04 14.80Q163.34 15.89 163.34 17.85L163.34 17.85Q163.34 19.80 164.04 20.91Q164.74 22.02 166.00 22.02ZM179.17 24.42L179.17 24.42Q177.48 24.42 176.25 23.61Q175.02 22.79 174.35 21.30Q173.68 19.80 173.68 17.75L173.68 17.75Q173.68 15.82 174.29 14.37Q174.89 12.93 176.02 12.12Q177.15 11.31 178.72 11.31L178.72 11.31Q180.20 11.31 181.28 12.03Q182.37 12.75 182.96 14.07Q183.55 15.39 183.55 17.18L183.55 17.18Q183.55 17.66 183.52 18.10Q183.48 18.54 183.43 18.86L183.43 18.86L175.80 18.86L175.80 16.91L181.01 16.91Q181.01 15.36 180.39 14.48Q179.78 13.59 178.70 13.59L178.70 13.59Q177.88 13.59 177.31 14.12Q176.74 14.65 176.46 15.58Q176.17 16.51 176.17 17.77L176.17 17.77Q176.17 19.11 176.53 20.08Q176.88 21.05 177.57 21.57Q178.25 22.10 179.24 22.10L179.24 22.10Q179.92 22.10 180.62 21.85Q181.31 21.60 181.79 21.15L181.79 21.15L182.77 23.38Q182.06 23.87 181.10 24.15Q180.14 24.42 179.17 24.42ZM188.39 24.23L185.67 24.23L185.67 11.50L188.33 11.50L188.33 13.01L188.81 13.01L188.05 13.76Q188.37 12.61 189.35 11.96Q190.32 11.31 191.59 11.31L191.59 11.31Q193.18 11.31 194.14 12.44Q195.11 13.57 195.11 15.41L195.11 15.41L195.11 24.23L192.39 24.23L192.39 15.86Q192.39 14.87 191.87 14.26Q191.34 13.65 190.48 13.65L190.48 13.65Q189.86 13.65 189.39 13.93Q188.93 14.21 188.66 14.72Q188.39 15.22 188.39 15.88L188.39 15.88L188.39 24.23ZM201.45 24.42L201.45 24.42Q200.23 24.42 199.04 23.89Q197.85 23.37 197.06 22.58L197.06 22.58L198.09 20.24Q198.79 21.06 199.66 21.57Q200.53 22.08 201.28 22.08L201.28 22.08Q202.01 22.08 202.44 21.64Q202.88 21.20 202.88 20.58L202.88 20.58Q202.88 19.90 202.31 19.44Q201.75 18.98 200.72 18.66L200.72 18.66Q199.77 18.34 199.04 17.81Q198.30 17.29 197.88 16.54Q197.46 15.80 197.46 14.84L197.46 14.84Q197.46 13.75 197.99 12.96Q198.53 12.16 199.42 11.74Q200.31 11.31 201.39 11.31L201.39 11.31Q202.43 11.31 203.42 11.69Q204.41 12.07 205.08 12.69L205.08 12.69L204.05 14.91Q203.60 14.38 202.89 14.00Q202.17 13.63 201.49 13.63L201.49 13.63Q200.88 13.63 200.46 13.99Q200.03 14.34 200.03 14.95L200.03 14.95Q200.03 15.55 200.51 15.97Q201 16.39 202.17 16.78L202.17 16.78Q203.02 17.06 203.77 17.57Q204.53 18.08 205.00 18.84Q205.46 19.61 205.46 20.66L205.46 20.66Q205.46 21.77 204.93 22.62Q204.40 23.46 203.48 23.94Q202.57 24.42 201.45 24.42ZM212.52 24.42L212.52 24.42Q210.83 24.42 209.60 23.61Q208.37 22.79 207.70 21.30Q207.04 19.80 207.04 17.75L207.04 17.75Q207.04 15.82 207.64 14.37Q208.24 12.93 209.37 12.12Q210.50 11.31 212.07 11.31L212.07 11.31Q213.55 11.31 214.63 12.03Q215.72 12.75 216.31 14.07Q216.90 15.39 216.90 17.18L216.90 17.18Q216.90 17.66 216.87 18.10Q216.83 18.54 216.79 18.86L216.79 18.86L209.16 18.86L209.16 16.91L214.36 16.91Q214.36 15.36 213.74 14.48Q213.13 13.59 212.05 13.59L212.05 13.59Q211.23 13.59 210.66 14.12Q210.09 14.65 209.81 15.58Q209.52 16.51 209.52 17.77L209.52 17.77Q209.52 19.11 209.88 20.08Q210.23 21.05 210.92 21.57Q211.61 22.10 212.59 22.10L212.59 22.10Q213.27 22.10 213.97 21.85Q214.66 21.60 215.14 21.15L215.14 21.15L216.12 23.38Q215.41 23.87 214.45 24.15Q213.49 24.42 212.52 24.42ZM229.97 22.08L228.90 24.42Q228.18 24.09 227.68 23.74Q227.19 23.38 226.92 22.96Q226.64 22.54 226.56 22.00L226.56 22.00L227.00 22.36L226.08 22.36L226.55 20.91L226.55 14.32L226.04 12.94L226.31 12.94L226.31 6.19L229.03 6.19L229.03 20.64Q229.03 21.25 229.27 21.54Q229.50 21.83 229.97 22.08L229.97 22.08ZM223.16 24.42L223.16 24.42Q221.04 24.42 219.79 22.71Q218.54 21 218.54 17.85L218.54 17.85Q218.54 14.72 219.80 13.01Q221.05 11.31 223.20 11.31L223.20 11.31Q225.34 11.31 226.44 13.04Q227.54 14.78 227.54 17.82L227.54 17.82Q227.54 20.89 226.42 22.66Q225.30 24.42 223.16 24.42ZM223.84 22.02L223.84 22.02Q225.11 22.02 225.79 20.92Q226.48 19.83 226.48 17.85L226.48 17.85Q226.48 15.89 225.79 14.80Q225.11 13.71 223.85 13.71L223.85 13.71Q222.60 13.71 221.89 14.80Q221.18 15.89 221.18 17.85L221.18 17.85Q221.18 19.80 221.88 20.91Q222.59 22.02 223.84 22.02ZM242.38 24.42L242.38 24.42Q240.89 24.42 239.71 23.74Q238.52 23.06 237.84 21.84Q237.15 20.63 237.15 19.00L237.15 19.00Q237.15 17.74 237.55 16.57Q237.95 15.40 238.55 14.32L238.55 14.32L242.61 6.96L245.75 6.96L241.63 14.37L240.84 14.37Q241.09 14.03 241.67 13.80Q242.25 13.57 242.98 13.56L242.98 13.56Q244.29 13.52 245.34 14.21Q246.40 14.89 247.01 16.10Q247.62 17.31 247.62 18.87L247.62 18.87Q247.62 20.48 246.95 21.74Q246.28 22.99 245.10 23.71Q243.91 24.42 242.38 24.42ZM242.41 21.89L242.41 21.89Q243.15 21.89 243.71 21.50Q244.28 21.11 244.60 20.42Q244.92 19.73 244.92 18.84L244.92 18.84Q244.92 17.96 244.60 17.27Q244.28 16.58 243.71 16.20Q243.14 15.81 242.41 15.81L242.41 15.81Q241.68 15.81 241.10 16.20Q240.52 16.58 240.18 17.27Q239.85 17.96 239.85 18.84L239.85 18.84Q239.85 19.73 240.18 20.43Q240.52 21.12 241.10 21.50Q241.68 21.89 242.41 21.89ZM255.35 24.42L255.35 24.42Q252.73 24.42 251.27 22.42Q249.82 20.43 249.82 16.78L249.82 16.78L249.82 14.41Q249.82 10.77 251.27 8.77Q252.73 6.77 255.35 6.77L255.35 6.77Q257.99 6.77 259.42 8.77Q260.86 10.77 260.86 14.41L260.86 14.41L260.86 16.78Q260.86 20.41 259.42 22.42Q257.99 24.42 255.35 24.42ZM255.35 21.89L255.35 21.89Q256.63 21.89 257.33 20.78Q258.04 19.66 258.04 17.64L258.04 17.64L258.04 13.57Q258.04 11.53 257.33 10.42Q256.63 9.30 255.35 9.30L255.35 9.30Q254.06 9.30 253.36 10.42Q252.66 11.54 252.66 13.57L252.66 13.57L252.66 17.64Q252.66 19.65 253.36 20.77Q254.06 21.89 255.35 21.89ZM268.91 24.42L268.91 24.42Q266.29 24.42 264.83 22.42Q263.38 20.43 263.38 16.78L263.38 16.78L263.38 14.41Q263.38 10.77 264.83 8.77Q266.29 6.77 268.91 6.77L268.91 6.77Q271.55 6.77 272.98 8.77Q274.42 10.77 274.42 14.41L274.42 14.41L274.42 16.78Q274.42 20.41 272.98 22.42Q271.55 24.42 268.91 24.42ZM268.91 21.89L268.91 21.89Q270.19 21.89 270.89 20.78Q271.59 19.66 271.59 17.64L271.59 17.64L271.59 13.57Q271.59 11.53 270.89 10.42Q270.19 9.30 268.91 9.30L268.91 9.30Q267.62 9.30 266.92 10.42Q266.21 11.54 266.21 13.57L266.21 13.57L266.21 17.64Q266.21 19.65 266.92 20.77Q267.62 21.89 268.91 21.89ZM285.23 24.23L282.52 24.23L282.52 11.50L285.18 11.50L285.18 13.01L285.66 13.01L284.89 13.76Q285.21 12.61 286.19 11.96Q287.17 11.31 288.43 11.31L288.43 11.31Q290.03 11.31 290.99 12.44Q291.95 13.57 291.95 15.41L291.95 15.41L291.95 24.23L289.23 24.23L289.23 15.86Q289.23 14.87 288.71 14.26Q288.19 13.65 287.32 13.65L287.32 13.65Q286.70 13.65 286.24 13.93Q285.77 14.21 285.50 14.72Q285.23 15.22 285.23 15.88L285.23 15.88L285.23 24.23ZM299.32 24.42L299.32 24.42Q297.70 24.42 296.51 23.61Q295.32 22.79 294.67 21.31Q294.02 19.83 294.02 17.82L294.02 17.82Q294.02 15.83 294.67 14.37Q295.32 12.91 296.51 12.11Q297.70 11.31 299.32 11.31L299.32 11.31Q300.94 11.31 302.13 12.11Q303.32 12.91 303.97 14.37Q304.62 15.83 304.62 17.82L304.62 17.82Q304.62 19.83 303.97 21.31Q303.32 22.79 302.13 23.61Q300.94 24.42 299.32 24.42ZM299.32 22.02L299.32 22.02Q300.55 22.02 301.27 20.89Q301.98 19.77 301.98 17.82L301.98 17.82Q301.98 15.93 301.27 14.82Q300.55 13.71 299.32 13.71L299.32 13.71Q298.09 13.71 297.38 14.82Q296.66 15.93 296.66 17.82L296.66 17.82Q296.66 19.75 297.38 20.88Q298.09 22.02 299.32 22.02ZM309.46 24.23L306.74 24.23L306.74 11.50L309.40 11.50L309.40 13.22L309.74 13.22L309.09 14.05Q309.32 13.34 309.79 12.71Q310.27 12.09 310.97 11.70Q311.67 11.31 312.63 11.31L312.63 11.31Q313.01 11.31 313.37 11.37Q313.73 11.44 313.86 11.52L313.86 11.52L312.74 14.20Q312.64 14.14 312.39 14.09Q312.13 14.03 311.87 14.03L311.87 14.03Q311.33 14.03 310.78 14.36Q310.22 14.68 309.84 15.39Q309.46 16.10 309.46 17.26L309.46 17.26L309.46 24.23ZM317.91 24.23L315.19 24.23L315.19 11.50L317.80 11.50L317.80 13.01L318.20 13.01L317.50 13.89Q317.77 12.76 318.64 12.04Q319.51 11.31 320.74 11.31L320.74 11.31Q321.77 11.31 322.57 11.97Q323.37 12.63 323.67 13.72L323.67 13.72L323.09 13.11L323.79 13.11L323.20 13.72Q323.57 12.62 324.55 11.96Q325.54 11.31 326.75 11.31L326.75 11.31Q328.35 11.31 329.30 12.52Q330.26 13.72 330.26 15.70L330.26 15.70L330.26 24.23L327.54 24.23L327.54 15.70Q327.54 14.78 327.06 14.21Q326.59 13.64 325.82 13.64L325.82 13.64Q325.03 13.64 324.56 14.22Q324.08 14.80 324.08 15.70L324.08 15.70L324.08 24.23L321.36 24.23L321.36 15.70Q321.36 14.78 320.89 14.21Q320.43 13.64 319.64 13.64L319.64 13.64Q318.87 13.64 318.39 14.23Q317.91 14.82 317.91 15.75L317.91 15.75L317.91 24.23ZM336.13 24.42L336.13 24.42Q335.00 24.42 334.16 23.90Q333.32 23.38 332.85 22.50Q332.38 21.62 332.38 20.55L332.38 20.55Q332.38 18.71 333.71 17.68Q335.04 16.64 337.20 16.64L337.20 16.64L339.35 16.64L339.35 18.55L337.45 18.55Q336.33 18.55 335.63 19.04Q334.93 19.52 334.93 20.43L334.93 20.43Q334.93 21.26 335.44 21.76Q335.95 22.27 336.70 22.27L336.70 22.27Q337.28 22.27 337.80 21.96Q338.33 21.64 338.67 21.08Q339 20.51 339 19.72L339 19.72L339 18.21L338.92 17.60L338.92 15.50Q338.92 14.63 338.34 14.14Q337.76 13.65 336.89 13.65L336.89 13.65Q336.13 13.65 335.27 13.96Q334.42 14.27 333.84 14.75L333.84 14.75L332.92 12.55Q333.73 12.02 334.89 11.67Q336.05 11.31 337.21 11.31L337.21 11.31Q339.15 11.31 340.31 12.33Q341.46 13.36 341.46 15.20L341.46 15.20L341.46 20.54Q341.46 21.12 341.64 21.47Q341.82 21.82 342.16 21.98L342.16 21.98L342.39 22.09L341.40 24.42L341.07 24.28Q340.28 23.94 339.78 23.34Q339.28 22.75 339.21 22.20L339.21 22.20L339.80 22.69L338.70 22.69L339.53 22.30Q339.13 23.23 338.23 23.82Q337.34 24.42 336.13 24.42ZM347.19 24.42L347.19 24.42Q346.27 24.42 345.66 24Q345.06 23.58 344.76 22.83Q344.46 22.09 344.46 21.13L344.46 21.13L344.46 6.19L347.18 6.19L347.18 20.91Q347.18 21.14 347.24 21.40Q347.30 21.66 347.47 21.85Q347.65 22.04 348.01 22.04L348.01 22.04Q348.30 22.04 348.53 21.95L348.53 21.95L348.53 24.21Q348.25 24.32 347.89 24.37Q347.53 24.42 347.19 24.42Z"/></svg>