<svg xmlns="http://www.w3.org/2000/svg" xmlns:xlink="http://www.w3.org/1999/xlink" width="419.06399999999996" height="46.368"><path fill="black" d="M11.95 24.98L11.95 24.98Q11.57 24.98 11.45 24.77Q11.33 24.55 11.40 24.22L11.40 24.22Q11.47 23.88 11.66 23.66Q11.86 23.45 12.19 23.45L12.19 23.45Q13.90 23.40 15.52 23.09Q17.14 22.78 18.54 22.16Q19.94 21.55 21 20.66Q22.06 19.78 22.67 18.58Q23.28 17.38 23.28 15.89L23.28 15.89Q23.28 14.76 22.79 13.93Q22.30 13.10 21.43 12.56Q20.57 12.02 19.37 11.76Q18.17 11.50 16.78 11.50L16.78 11.50Q14.90 11.50 13.18 11.86Q11.45 12.22 9.91 12.95Q8.38 13.68 7.03 14.81L7.03 14.81Q6.70 15.12 6.42 15.02Q6.14 14.93 5.90 14.64L5.90 14.64Q5.74 14.42 5.76 14.15Q5.78 13.87 6.07 13.61L6.07 13.61Q7.13 12.70 8.36 12.00Q9.60 11.30 10.97 10.84Q12.34 10.37 13.84 10.14Q15.34 9.91 16.90 9.91L16.90 9.91Q18.86 9.91 20.38 10.32Q21.89 10.73 22.93 11.51Q23.98 12.29 24.52 13.37Q25.06 14.45 25.06 15.84L25.06 15.84Q25.06 17.64 24.35 19.07Q23.64 20.50 22.39 21.58Q21.14 22.66 19.49 23.39Q17.83 24.12 15.91 24.52Q13.99 24.91 11.95 24.98ZM3.36 34.68L3.36 34.68Q2.47 34.68 1.74 34.31Q1.01 33.94 0.49 33.30Q-0.02 32.66-0.29 31.87L-0.29 31.87Q-0.38 31.54-0.29 31.28Q-0.19 31.03 0.10 30.89L0.10 30.89Q0.46 30.77 0.68 30.85Q0.91 30.94 1.10 31.27L1.10 31.27Q1.39 31.92 1.76 32.32Q2.14 32.71 2.58 32.87Q3.02 33.02 3.50 33.02L3.50 33.02Q4.46 33.02 5.14 32.26Q5.81 31.49 6.43 29.57L6.43 29.57L11.35 14.42Q11.45 14.14 11.69 13.99Q11.93 13.85 12.36 13.85L12.36 13.85Q12.79 13.85 13.01 13.99Q13.22 14.14 13.10 14.45L13.10 14.45L8.18 29.59Q7.68 31.22 7.01 32.36Q6.34 33.50 5.45 34.09Q4.56 34.68 3.36 34.68ZM18.67 34.68L18.67 34.68Q18.31 34.68 18.20 34.45Q18.10 34.22 18.16 33.94Q18.22 33.65 18.47 33.42Q18.72 33.19 19.08 33.19L19.08 33.19Q19.82 33.19 20.80 32.70Q21.77 32.21 22.87 31.31Q23.98 30.41 25.13 29.22Q26.28 28.03 27.42 26.63Q28.56 25.22 29.62 23.71Q30.67 22.20 31.57 20.68Q32.47 19.15 33.13 17.72Q33.79 16.30 34.18 15.02Q34.56 13.75 34.56 12.79L34.56 12.79Q34.56 12.48 34.81 12.32Q35.06 12.17 35.40 12.17Q35.74 12.17 35.99 12.32Q36.24 12.48 36.24 12.79L36.24 12.79Q36.24 13.82 35.84 15.17Q35.45 16.51 34.70 18.05Q33.96 19.58 32.96 21.20Q31.97 22.82 30.79 24.44Q29.62 26.06 28.33 27.58Q27.05 29.09 25.74 30.37Q24.43 31.66 23.17 32.63Q21.91 33.60 20.76 34.14Q19.61 34.68 18.67 34.68ZM26.26 34.66L26.26 34.66Q25.39 34.66 24.91 34.34Q24.43 34.03 24.28 33.49Q24.12 32.95 24.19 32.23Q24.26 31.51 24.50 30.72L24.50 30.72L29.98 13.90Q30.67 11.76 31.60 10.79Q32.52 9.82 33.84 9.82L33.84 9.82Q34.58 9.82 35.12 10.19Q35.66 10.56 35.95 11.22Q36.24 11.88 36.24 12.79L36.24 12.79Q36.24 13.18 35.99 13.36Q35.74 13.54 35.40 13.54Q35.06 13.54 34.81 13.36Q34.56 13.18 34.56 12.79L34.56 12.79Q34.56 12.36 34.44 12.06Q34.32 11.76 34.12 11.60Q33.91 11.45 33.55 11.45L33.55 11.45Q33.22 11.45 32.88 11.71Q32.54 11.98 32.23 12.56Q31.92 13.15 31.58 14.18L31.58 14.18L26.02 31.54Q25.87 31.99 25.84 32.38Q25.80 32.76 25.96 32.98Q26.11 33.19 26.45 33.19L26.45 33.19Q26.83 33.19 27.17 33Q27.50 32.81 27.79 32.48Q28.08 32.16 28.30 31.87L28.30 31.87Q28.39 31.66 28.61 31.58Q28.82 31.51 29.14 31.73L29.14 31.73Q29.47 31.92 29.48 32.12Q29.50 32.33 29.38 32.57L29.38 32.57Q29.11 33 28.67 33.49Q28.22 33.98 27.62 34.32Q27.02 34.66 26.26 34.66ZM36.07 34.68L36.07 34.68Q35.04 34.68 34.31 34.21Q33.58 33.74 33.18 32.86Q32.78 31.97 32.78 30.77L32.78 30.77Q32.78 29.69 33.08 28.46Q33.38 27.24 34.01 26.06Q34.63 24.89 35.56 23.93Q36.48 22.97 37.73 22.39Q38.98 21.82 40.54 21.82L40.54 21.82Q41.33 21.82 42.13 22.07Q42.94 22.32 43.63 22.75L43.63 22.75L43.70 22.49Q43.85 22.15 44.04 22.03Q44.23 21.91 44.59 21.91L44.59 21.91Q45.19 21.91 45.35 22.12Q45.50 22.32 45.38 22.70L45.38 22.70L42.48 31.56Q42.34 32.02 42.31 32.39Q42.29 32.76 42.44 32.98Q42.60 33.19 42.96 33.19L42.96 33.19Q43.32 33.19 43.64 33Q43.97 32.81 44.26 32.50Q44.54 32.18 44.76 31.87L44.76 31.87Q44.88 31.66 45.10 31.60Q45.31 31.54 45.62 31.73L45.62 31.73Q45.94 31.92 45.96 32.14Q45.98 32.35 45.86 32.59L45.86 32.59Q45.62 33.02 45.18 33.52Q44.74 34.01 44.12 34.33Q43.51 34.66 42.74 34.66L42.74 34.66Q42.10 34.66 41.69 34.46Q41.28 34.27 41.05 33.94Q40.82 33.60 40.75 33.16Q40.68 32.71 40.73 32.21L40.73 32.21Q40.75 32.06 40.79 31.92Q40.82 31.78 40.87 31.63L40.87 31.63Q40.01 32.78 39.13 33.46Q38.26 34.13 37.48 34.40Q36.70 34.68 36.07 34.68ZM34.56 30.58L34.56 30.58Q34.56 31.39 34.78 31.94Q34.99 32.50 35.45 32.81Q35.90 33.12 36.58 33.12L36.58 33.12Q37.39 33.12 38.28 32.58Q39.17 32.04 40.07 30.96Q40.97 29.88 41.83 28.32L41.83 28.32L43.18 24.10Q42.46 23.64 41.80 23.50Q41.14 23.35 40.51 23.35L40.51 23.35Q39.26 23.35 38.28 23.83Q37.30 24.31 36.60 25.10Q35.90 25.90 35.45 26.86Q34.99 27.82 34.78 28.79Q34.56 29.76 34.56 30.58ZM55.70 36.60L55.97 34.87Q56.40 34.61 56.88 34.37Q57.36 34.13 57.83 33.90Q58.30 33.67 58.73 33.48Q59.16 33.29 59.54 33.14L59.54 33.14Q59.88 33.02 60.05 33.17Q60.22 33.31 60.26 33.59Q60.31 33.86 60.22 34.12Q60.12 34.37 59.86 34.46L59.86 34.46Q59.38 34.68 58.86 34.93Q58.34 35.18 57.80 35.46Q57.26 35.74 56.74 36.01Q56.21 36.29 55.70 36.60L55.70 36.60ZM49.20 46.73L49.20 46.73Q48.29 46.73 47.63 46.37Q46.97 46.01 46.63 45.40Q46.30 44.78 46.30 43.97L46.30 43.97Q46.30 42.94 46.73 41.98Q47.16 41.02 47.98 40.12Q48.79 39.22 49.92 38.36Q51.05 37.51 52.44 36.70L52.44 36.70Q53.04 36.34 53.68 35.99Q54.31 35.64 54.96 35.28L54.96 35.28L56.16 31.58Q55.54 32.40 54.89 32.98Q54.24 33.55 53.58 33.94Q52.92 34.32 52.27 34.49Q51.62 34.66 51.05 34.66L51.05 34.66Q49.82 34.66 49.06 34.12Q48.29 33.58 48.12 32.52Q47.95 31.46 48.43 29.98L48.43 29.98L50.88 22.54Q51 22.15 51.19 22.03Q51.38 21.91 51.77 21.91L51.77 21.91Q52.34 21.91 52.52 22.09Q52.70 22.27 52.56 22.66L52.56 22.66L50.09 30.17Q49.80 31.13 49.84 31.79Q49.87 32.45 50.29 32.78Q50.71 33.12 51.58 33.12L51.58 33.12Q52.22 33.12 52.97 32.80Q53.71 32.47 54.48 31.82Q55.25 31.18 55.98 30.19Q56.71 29.21 57.34 27.91L57.34 27.91L59.06 22.54Q59.18 22.15 59.38 22.03Q59.57 21.91 59.95 21.91L59.95 21.91Q60.55 21.91 60.72 22.12Q60.89 22.32 60.74 22.70L60.74 22.70L54.91 40.58Q54.41 42.17 53.83 43.33Q53.26 44.50 52.55 45.25Q51.84 46.01 51.02 46.37Q50.21 46.73 49.20 46.73ZM49.44 45.22L49.44 45.22Q50.04 45.22 50.57 44.92Q51.10 44.62 51.56 44.04Q52.03 43.46 52.46 42.58Q52.90 41.69 53.28 40.49L53.28 40.49L54.31 37.27Q53.95 37.49 53.58 37.68Q53.21 37.87 52.82 38.09L52.82 38.09Q51.70 38.81 50.80 39.52Q49.90 40.22 49.28 40.93Q48.67 41.64 48.35 42.34Q48.02 43.03 48.02 43.75L48.02 43.75Q48.02 44.21 48.19 44.53Q48.36 44.86 48.68 45.04Q49.01 45.22 49.44 45.22ZM66.98 34.73L66.98 34.73Q65.90 34.73 65.24 34.32Q64.58 33.91 64.32 33.23Q64.06 32.54 64.09 31.66Q64.13 30.77 64.44 29.81L64.44 29.81L66.07 24.84Q66.29 24.10 66.16 23.72Q66.02 23.35 65.50 23.35L65.50 23.35Q65.09 23.35 64.70 23.60Q64.32 23.86 63.91 24.37Q63.50 24.89 63.05 25.68L63.05 25.68Q62.88 25.94 62.71 26.04Q62.54 26.14 62.18 26.09L62.18 26.09Q61.78 25.99 61.70 25.73Q61.63 25.46 61.78 25.18L61.78 25.18Q62.23 24.22 62.82 23.47Q63.41 22.73 64.13 22.31Q64.85 21.89 65.71 21.89L65.71 21.89Q66.41 21.89 66.88 22.14Q67.34 22.39 67.58 22.85Q67.82 23.30 67.82 23.94Q67.82 24.58 67.58 25.32L67.58 25.32L66.14 29.88Q65.86 30.72 65.81 31.49Q65.76 32.26 66.11 32.72Q66.46 33.19 67.32 33.19L67.32 33.19Q67.94 33.19 68.58 32.90Q69.22 32.62 69.83 32.05Q70.44 31.49 70.96 30.70Q71.47 29.90 71.88 28.87L71.88 28.87L73.92 22.54Q74.06 22.18 74.26 22.04Q74.45 21.91 74.83 21.91L74.83 21.91Q75.43 21.91 75.56 22.09Q75.70 22.27 75.60 22.63L75.60 22.63L73.54 28.97Q73.30 29.78 73.15 30.54Q73.01 31.30 73.08 31.90Q73.15 32.50 73.54 32.83Q73.92 33.17 74.69 33.17L74.69 33.17Q75.65 33.17 76.48 32.68Q77.30 32.18 77.96 31.33Q78.62 30.48 79.12 29.45Q79.61 28.42 79.85 27.36Q80.09 26.30 80.09 25.39L80.09 25.39Q80.09 24.96 80.05 24.54Q80.02 24.12 79.96 23.70Q79.90 23.28 79.75 22.87L79.75 22.87Q79.70 22.54 79.78 22.31Q79.85 22.08 80.06 21.95Q80.28 21.82 80.59 21.82L80.59 21.82Q80.90 21.82 81.11 22.03Q81.31 22.25 81.46 22.75L81.46 22.75Q81.58 23.16 81.65 23.59Q81.72 24.02 81.76 24.46Q81.79 24.89 81.79 25.32L81.79 25.32Q81.79 26.45 81.48 27.72Q81.17 28.99 80.52 30.24Q79.87 31.49 78.98 32.51Q78.10 33.53 76.94 34.13Q75.79 34.73 74.42 34.73L74.42 34.73Q73.44 34.73 72.77 34.39Q72.10 34.06 71.75 33.47Q71.40 32.88 71.33 32.09L71.33 32.09Q70.80 32.95 70.09 33.54Q69.38 34.13 68.60 34.43Q67.82 34.73 66.98 34.73ZM79.70 34.68L79.70 34.68Q79.34 34.68 79.22 34.45Q79.10 34.22 79.16 33.94Q79.22 33.65 79.48 33.42Q79.73 33.19 80.11 33.19L80.11 33.19Q80.93 33.19 81.76 32.66Q82.58 32.14 83.50 30.97Q84.41 29.81 85.36 27.95Q86.30 26.09 87.34 23.42L87.34 23.42L88.46 24.02Q87.29 27.07 86.21 29.14Q85.13 31.20 84.08 32.42Q83.04 33.65 81.96 34.16Q80.88 34.68 79.70 34.68ZM92.98 34.66L92.98 34.66Q92.21 34.66 91.73 34.40Q91.25 34.15 91.04 33.68Q90.84 33.22 90.89 32.59Q90.94 31.97 91.15 31.25L91.15 31.25Q91.34 30.67 91.67 29.93Q91.99 29.18 92.34 28.38Q92.69 27.58 93.01 26.76Q93.34 25.94 93.55 25.22L93.55 25.22Q93.79 24.34 93.54 24.01Q93.29 23.69 92.78 23.69L92.78 23.69Q92.18 23.69 91.44 23.90Q90.70 24.12 89.92 24.34Q89.14 24.55 88.42 24.55L88.42 24.55Q87.94 24.55 87.61 24.28Q87.29 24 87.13 23.56Q86.98 23.11 86.98 22.54L86.98 22.54Q86.98 22.03 87.14 21.58Q87.31 21.12 87.65 20.82Q87.98 20.52 88.44 20.52L88.44 20.52Q88.90 20.52 89.11 20.80Q89.33 21.07 89.33 21.46L89.33 21.46Q89.33 21.82 89.20 22.26Q89.06 22.70 88.85 23.04L88.85 23.04Q89.40 23.06 90.14 22.81Q90.89 22.56 91.73 22.31Q92.57 22.06 93.38 22.06L93.38 22.06Q94.08 22.06 94.60 22.38Q95.11 22.70 95.29 23.45Q95.47 24.19 95.14 25.42L95.14 25.42Q94.97 26.09 94.64 26.89Q94.32 27.70 93.96 28.54Q93.60 29.38 93.26 30.17Q92.93 30.96 92.71 31.66L92.71 31.66Q92.45 32.47 92.59 32.83Q92.74 33.19 93.19 33.19L93.19 33.19Q93.55 33.19 93.89 33Q94.22 32.81 94.51 32.48Q94.80 32.16 95.02 31.87L95.02 31.87Q95.14 31.66 95.35 31.60Q95.57 31.54 95.88 31.73L95.88 31.73Q96.19 31.92 96.22 32.12Q96.24 32.33 96.10 32.57L96.10 32.57Q95.86 33 95.41 33.49Q94.97 33.98 94.36 34.32Q93.74 34.66 92.98 34.66ZM100.18 34.66L100.18 34.66Q98.81 34.66 98.32 33.70Q97.82 32.74 98.42 30.89L98.42 30.89L101.14 22.54Q101.28 22.15 101.46 22.03Q101.64 21.91 102.02 21.91L102.02 21.91Q102.60 21.91 102.78 22.09Q102.96 22.27 102.82 22.66L102.82 22.66L99.96 31.46Q99.67 32.33 99.80 32.76Q99.94 33.19 100.42 33.19L100.42 33.19Q100.78 33.19 101.11 32.99Q101.45 32.78 101.72 32.47Q102 32.16 102.24 31.87L102.24 31.87Q102.36 31.66 102.58 31.58Q102.79 31.51 103.10 31.73L103.10 31.73Q103.42 31.92 103.44 32.14Q103.46 32.35 103.32 32.57L103.32 32.57Q103.03 33.10 102.56 33.58Q102.10 34.06 101.50 34.36Q100.90 34.66 100.18 34.66ZM103.46 18.05L103.46 18.05Q103.01 18.05 102.71 17.78Q102.41 17.52 102.41 16.99L102.41 16.99Q102.41 16.39 102.79 15.88Q103.18 15.36 103.97 15.36L103.97 15.36Q104.42 15.36 104.72 15.61Q105.02 15.86 105.02 16.39L105.02 16.39Q105.02 16.99 104.64 17.52Q104.26 18.05 103.46 18.05ZM108.10 34.66L108.10 34.66Q106.99 34.66 106.48 34.15Q105.96 33.65 105.95 32.72Q105.94 31.80 106.32 30.50L106.32 30.50L110.59 17.38Q110.71 16.99 110.90 16.87Q111.10 16.75 111.50 16.75L111.50 16.75Q112.06 16.75 112.24 16.93Q112.42 17.11 112.27 17.50L112.27 17.50L110.71 22.27L113.76 22.27Q114.02 22.27 114.12 22.45Q114.22 22.63 114.10 23.04L114.10 23.04Q113.98 23.42 113.78 23.62Q113.59 23.81 113.35 23.81L113.35 23.81L110.23 23.81L107.83 31.20Q107.50 32.26 107.66 32.72Q107.83 33.19 108.41 33.19L108.41 33.19Q109.15 33.19 109.76 32.69Q110.38 32.18 110.81 31.61L110.81 31.61Q110.93 31.42 111.13 31.34Q111.34 31.27 111.65 31.46L111.65 31.46Q111.98 31.66 112.02 31.86Q112.06 32.06 111.91 32.30L111.91 32.30Q111.60 32.83 111.07 33.40Q110.54 33.96 109.81 34.31Q109.08 34.66 108.10 34.66ZM119.40 34.70L119.40 34.70Q118.61 34.70 117.88 34.43Q117.14 34.15 116.56 33.64Q115.97 33.12 115.54 32.40Q115.10 31.68 114.88 30.80Q114.65 29.93 114.65 28.94L114.65 28.94Q114.65 28.01 114.86 27.02Q115.08 26.04 115.52 25.10Q115.97 24.17 116.63 23.44Q117.29 22.70 118.16 22.26Q119.04 21.82 120.17 21.82L120.17 21.82Q121.08 21.82 121.69 22.18Q122.30 22.54 122.62 23.15Q122.93 23.76 122.93 24.53L122.93 24.53Q122.93 25.90 122.28 27.16Q121.63 28.42 120.55 29.56Q119.47 30.70 118.18 31.61L118.18 31.61Q116.90 32.52 115.48 33.22Q114.05 33.91 112.67 34.30Q111.29 34.68 110.04 34.68L110.04 34.68Q109.75 34.68 109.64 34.45Q109.54 34.22 109.58 33.94Q109.63 33.65 109.86 33.42Q110.09 33.19 110.50 33.19L110.50 33.19Q111.58 33.19 112.78 32.82Q113.98 32.45 115.18 31.80Q116.38 31.15 117.43 30.34L117.43 30.34Q118.39 29.62 119.24 28.73Q120.10 27.84 120.64 26.86Q121.18 25.87 121.18 24.86L121.18 24.86Q121.18 24.14 120.85 23.76Q120.53 23.38 119.78 23.38L119.78 23.38Q118.94 23.38 118.31 23.93Q117.67 24.48 117.24 25.33Q116.81 26.18 116.59 27.13Q116.38 28.08 116.38 28.85L116.38 28.85Q116.38 29.83 116.63 30.62Q116.88 31.42 117.34 31.99Q117.79 32.57 118.40 32.86Q119.02 33.14 119.71 33.14L119.71 33.14Q120.38 33.14 121.02 32.92Q121.66 32.69 122.24 32.26Q122.83 31.82 123.43 31.30L123.43 31.30Q123.70 31.06 123.95 31.10Q124.20 31.15 124.42 31.34L124.42 31.34Q124.66 31.56 124.70 31.84Q124.75 32.11 124.49 32.38L124.49 32.38Q123.82 33.07 123 33.61Q122.18 34.15 121.28 34.43Q120.38 34.70 119.40 34.70ZM144.19 34.58L144.19 34.58Q143.35 34.58 142.60 34.42Q141.84 34.25 141.22 33.95Q140.59 33.65 140.14 33.24L140.14 33.24Q139.85 33 139.80 32.76Q139.75 32.52 139.99 32.18L139.99 32.18Q140.23 31.92 140.45 31.87Q140.66 31.82 140.93 31.99L140.93 31.99Q141.43 32.33 141.96 32.57Q142.49 32.81 143.08 32.90Q143.66 33 144.26 33L144.26 33Q145.70 33 147.08 32.53Q148.46 32.06 149.57 31.18Q150.67 30.29 151.33 28.98Q151.99 27.67 151.99 26.02L151.99 26.02Q151.99 24.82 151.36 23.95Q150.72 23.09 149.62 22.61Q148.51 22.13 147.12 22.10L147.12 22.10Q146.66 22.27 146.22 22.40Q145.78 22.54 145.34 22.54L145.34 22.54Q144.82 22.54 144.54 22.30Q144.26 22.06 144.29 21.70L144.29 21.70Q144.29 21.38 144.49 21.04Q144.70 20.69 145.12 20.46Q145.54 20.23 146.18 20.23L146.18 20.23Q146.62 20.23 146.98 20.32Q147.34 20.40 147.58 20.50L147.58 20.50Q148.87 20.30 150.05 19.80Q151.22 19.30 152.12 18.55Q153.02 17.81 153.54 16.88Q154.06 15.96 154.06 14.98L154.06 14.98Q154.06 13.78 153.38 13.02Q152.71 12.26 151.39 11.88Q150.07 11.50 148.10 11.50L148.10 11.50Q146.21 11.50 144.46 11.86Q142.70 12.22 141.14 12.94Q139.58 13.66 138.24 14.81L138.24 14.81Q137.93 15.12 137.63 15.02Q137.33 14.93 137.11 14.64L137.11 14.64Q136.94 14.40 136.96 14.15Q136.97 13.90 137.26 13.61L137.26 13.61Q138.34 12.70 139.57 11.99Q140.81 11.28 142.20 10.82Q143.59 10.37 145.10 10.14Q146.62 9.91 148.22 9.91L148.22 9.91Q150.74 9.91 152.44 10.50Q154.13 11.09 154.99 12.18Q155.86 13.27 155.86 14.78L155.86 14.78Q155.86 15.98 155.33 17.04Q154.80 18.10 153.91 18.96Q153.02 19.82 151.85 20.41Q150.67 21 149.30 21.24L149.30 21.24L149.28 21.29Q150.31 21.43 151.13 21.84Q151.94 22.25 152.54 22.86Q153.14 23.47 153.47 24.26Q153.79 25.06 153.79 25.99L153.79 25.99Q153.79 27.50 153.31 28.82Q152.83 30.14 151.94 31.22Q151.06 32.30 149.84 33.05Q148.63 33.79 147.20 34.19Q145.78 34.58 144.19 34.58ZM134.59 34.68L134.59 34.68Q133.70 34.68 132.97 34.31Q132.24 33.94 131.71 33.30Q131.18 32.66 130.94 31.87L130.94 31.87Q130.85 31.54 130.94 31.28Q131.04 31.03 131.33 30.89L131.33 30.89Q131.69 30.77 131.92 30.85Q132.14 30.94 132.34 31.27L132.34 31.27Q132.62 31.92 133.00 32.32Q133.37 32.71 133.81 32.87Q134.26 33.02 134.76 33.02L134.76 33.02Q135.72 33.02 136.40 32.26Q137.09 31.49 137.71 29.57L137.71 29.57L142.61 14.42Q142.70 14.14 142.94 13.99Q143.18 13.85 143.62 13.85L143.62 13.85Q144.05 13.85 144.25 13.99Q144.46 14.14 144.36 14.45L144.36 14.45L139.46 29.59Q138.94 31.22 138.26 32.36Q137.59 33.50 136.70 34.09Q135.82 34.68 134.59 34.68ZM163.51 34.73L163.51 34.73Q161.57 34.73 160.16 34.08Q158.76 33.43 158.02 32.24Q157.27 31.06 157.27 29.50L157.27 29.50Q157.27 28.08 157.79 26.80Q158.30 25.51 159.23 24.44Q160.15 23.38 161.41 22.62Q162.67 21.86 164.14 21.58L164.14 21.58Q163.27 21.31 162.65 20.69Q162.02 20.06 161.69 19.22Q161.35 18.38 161.35 17.42L161.35 17.42Q161.35 16.18 161.74 15.05Q162.12 13.92 162.85 12.98Q163.58 12.05 164.60 11.35Q165.62 10.66 166.88 10.28Q168.14 9.91 169.63 9.91L169.63 9.91Q170.95 9.91 172.07 10.25Q173.18 10.58 174.08 11.21Q174.98 11.83 175.56 12.70L175.56 12.70Q175.78 12.98 175.75 13.25Q175.73 13.51 175.42 13.73L175.42 13.73Q175.13 13.97 174.86 13.93Q174.60 13.90 174.29 13.58L174.29 13.58Q173.69 12.96 172.92 12.52Q172.15 12.07 171.23 11.83Q170.30 11.59 169.25 11.59L169.25 11.59Q167.86 11.59 166.73 12.06Q165.60 12.53 164.80 13.34Q163.99 14.16 163.56 15.19Q163.13 16.22 163.13 17.35L163.13 17.35Q163.13 18.38 163.56 19.19Q163.99 19.99 164.87 20.46Q165.74 20.93 167.11 20.93L167.11 20.93L170.28 20.93Q170.59 20.93 170.68 21.10Q170.76 21.26 170.62 21.70L170.62 21.70Q170.50 22.10 170.30 22.30Q170.11 22.49 169.85 22.49L169.85 22.49L166.73 22.49Q165.17 22.49 163.78 23.02Q162.38 23.54 161.33 24.49Q160.27 25.44 159.68 26.66Q159.10 27.89 159.10 29.28L159.10 29.28Q159.10 30.46 159.67 31.30Q160.25 32.14 161.34 32.58Q162.43 33.02 163.94 33.02L163.94 33.02Q165.12 33.02 166.32 32.63Q167.52 32.23 168.66 31.45Q169.80 30.67 170.88 29.47L170.88 29.47Q171.19 29.11 171.46 29.11Q171.72 29.11 172.03 29.38L172.03 29.38Q172.34 29.69 172.30 29.94Q172.25 30.19 171.89 30.58L171.89 30.58Q170.57 32.04 169.18 32.96Q167.78 33.89 166.37 34.31Q164.95 34.73 163.51 34.73ZM192.58 34.68L192.58 34.68Q192.07 34.68 191.88 34.50Q191.69 34.32 191.71 33.86L191.71 33.86Q192.12 29.38 192.31 25.94Q192.50 22.51 192.53 20.05Q192.55 17.59 192.41 15.94Q192.26 14.28 191.95 13.31Q191.64 12.34 191.17 11.92Q190.70 11.50 190.10 11.50L190.10 11.50Q189.38 11.50 188.94 12.00Q188.50 12.50 188.28 13.31Q188.06 14.11 188.06 15.00L188.06 15.00Q188.06 15.14 188.06 15.30Q188.06 15.46 188.09 15.60L188.09 15.60Q188.11 15.94 187.93 16.10Q187.75 16.27 187.32 16.30L187.32 16.30Q186.89 16.30 186.73 16.16Q186.58 16.03 186.53 15.70L186.53 15.70Q186.53 15.48 186.50 15.31Q186.48 15.14 186.48 15.02L186.48 15.02Q186.48 14.02 186.72 13.08Q186.96 12.14 187.40 11.44Q187.85 10.73 188.54 10.32Q189.24 9.91 190.18 9.91L190.18 9.91Q191.11 9.91 191.82 10.31Q192.53 10.70 193.04 11.60Q193.56 12.50 193.84 14.09Q194.11 15.67 194.17 18.00Q194.23 20.33 194.06 23.57Q193.90 26.81 193.51 31.08L193.51 31.08Q195.26 27.43 196.72 24.53Q198.17 21.62 199.42 19.40Q200.66 17.18 201.72 15.58Q202.78 13.97 203.71 12.88Q204.65 11.78 205.50 11.14Q206.35 10.49 207.16 10.20Q207.96 9.91 208.75 9.91L208.75 9.91Q209.35 9.91 209.88 10.06Q210.41 10.20 210.88 10.45Q211.34 10.70 211.68 11.04L211.68 11.04Q211.92 11.26 211.91 11.50Q211.90 11.74 211.68 12.00L211.68 12.00Q211.49 12.24 211.25 12.31Q211.01 12.38 210.77 12.22L210.77 12.22Q210.50 12.02 210.19 11.86Q209.88 11.69 209.51 11.59Q209.14 11.50 208.68 11.50L208.68 11.50Q208.08 11.50 207.42 11.78Q206.76 12.07 206.00 12.76Q205.25 13.44 204.36 14.60Q203.47 15.77 202.42 17.47Q201.36 19.18 200.06 21.52Q198.77 23.86 197.23 26.94Q195.70 30.02 193.82 33.91L193.82 33.91Q193.61 34.39 193.31 34.54Q193.01 34.68 192.58 34.68ZM220.44 34.63L220.44 34.63Q219.22 34.63 218.09 34.27Q216.96 33.91 215.92 33.38Q214.87 32.86 213.92 32.32Q212.98 31.78 212.10 31.42Q211.22 31.06 210.41 31.06L210.41 31.06Q209.71 31.06 209.34 31.36Q208.97 31.66 208.97 32.14L208.97 32.14Q208.97 32.57 209.34 32.87Q209.71 33.17 210.34 33.17L210.34 33.17Q210.98 33.17 211.49 32.75Q211.99 32.33 212.42 31.49Q212.86 30.65 213.26 29.35L213.26 29.35L216.82 18.62Q217.49 16.54 218.32 14.93Q219.14 13.32 220.16 12.19Q221.18 11.06 222.38 10.49Q223.58 9.91 225.02 9.91L225.02 9.91Q226.18 9.91 227.09 10.37Q228.00 10.82 228.52 11.65Q229.03 12.48 229.03 13.54L229.03 13.54Q229.03 14.78 228.46 15.83Q227.88 16.87 226.88 17.62Q225.89 18.36 224.53 18.76Q223.18 19.15 221.66 19.15L221.66 19.15Q219.89 19.15 218.29 18.79Q216.70 18.43 215.27 17.74Q213.84 17.04 212.57 16.01L212.57 16.01Q212.28 15.79 212.26 15.54Q212.23 15.29 212.47 14.95L212.47 14.95Q212.74 14.59 212.99 14.57Q213.24 14.54 213.50 14.78L213.50 14.78Q214.61 15.67 215.89 16.30Q217.18 16.92 218.66 17.26Q220.15 17.59 221.88 17.59L221.88 17.59Q222.96 17.59 223.92 17.30Q224.88 17.02 225.62 16.50Q226.37 15.98 226.80 15.26Q227.23 14.54 227.23 13.63L227.23 13.63Q227.23 12.98 226.94 12.50Q226.66 12.02 226.10 11.78Q225.55 11.54 224.81 11.54L224.81 11.54Q223.75 11.54 222.85 12.04Q221.95 12.53 221.15 13.48Q220.34 14.42 219.66 15.83Q218.98 17.23 218.38 19.03L218.38 19.03L214.90 29.62Q214.30 31.44 213.61 32.56Q212.93 33.67 212.08 34.19Q211.22 34.70 210.14 34.70L210.14 34.70Q209.30 34.70 208.64 34.38Q207.98 34.06 207.59 33.52Q207.19 32.98 207.19 32.28L207.19 32.28Q207.19 31.46 207.60 30.85Q208.01 30.24 208.73 29.87Q209.45 29.50 210.41 29.50L210.41 29.50Q211.46 29.50 212.46 29.86Q213.46 30.22 214.43 30.74Q215.40 31.27 216.38 31.79Q217.37 32.30 218.40 32.68Q219.43 33.05 220.54 33.05L220.54 33.05Q221.88 33.05 222.92 32.59Q223.97 32.14 224.78 31.22Q225.60 30.31 226.22 28.94L226.22 28.94Q226.37 28.63 226.62 28.57Q226.87 28.51 227.26 28.66L227.26 28.66Q227.66 28.82 227.77 29.06Q227.88 29.30 227.71 29.64L227.71 29.64Q226.87 31.32 225.82 32.42Q224.76 33.53 223.42 34.08Q222.07 34.63 220.44 34.63ZM239.28 46.73L239.28 46.73Q238.32 46.73 237.60 46.37Q236.88 46.01 236.50 45.32Q236.11 44.64 236.11 43.75L236.11 43.75Q236.11 42.62 236.70 41.47Q237.29 40.32 238.50 39.07Q239.71 37.82 241.63 36.44Q243.55 35.06 246.22 33.49Q248.88 31.92 252.34 30.10L252.34 30.10Q252.60 29.95 252.85 30.01Q253.10 30.07 253.27 30.43L253.27 30.43Q253.49 30.79 253.42 31.06Q253.34 31.32 253.01 31.49L253.01 31.49Q249.79 33.19 247.31 34.63Q244.82 36.07 243.04 37.33Q241.25 38.59 240.10 39.68Q238.94 40.78 238.42 41.74Q237.89 42.70 237.89 43.58L237.89 43.58Q237.89 44.28 238.32 44.69Q238.75 45.10 239.47 45.10L239.47 45.10Q240.84 45.10 241.93 43.87Q243.02 42.65 243.79 40.27L243.79 40.27L248.02 27.31Q247.20 28.42 246.25 29.45Q245.30 30.48 244.25 31.31Q243.19 32.14 242.10 32.74Q241.01 33.34 239.92 33.67Q238.82 34.01 237.77 34.01L237.77 34.01Q236.16 34.01 235.01 33.38Q233.86 32.76 233.23 31.54Q232.61 30.31 232.61 28.54L232.61 28.54Q232.61 26.98 233.02 25.22Q233.42 23.47 234.17 21.67Q234.91 19.87 235.93 18.17Q236.95 16.46 238.19 14.96Q239.42 13.46 240.83 12.32Q242.23 11.18 243.74 10.55Q245.26 9.91 246.79 9.91L246.79 9.91Q247.99 9.91 248.84 10.34Q249.70 10.78 250.16 11.56Q250.63 12.34 250.63 13.44L250.63 13.44Q250.63 14.98 249.62 16.72Q248.62 18.46 246.78 20.30Q244.94 22.15 242.44 24Q239.93 25.85 236.90 27.62Q233.88 29.40 230.50 30.98L230.50 30.98Q230.18 31.13 229.93 31.03Q229.68 30.94 229.51 30.58L229.51 30.58Q229.37 30.22 229.44 29.96Q229.51 29.71 229.85 29.59L229.85 29.59Q232.97 28.10 235.81 26.44Q238.66 24.77 241.03 23.04Q243.41 21.31 245.15 19.62Q246.89 17.93 247.86 16.38Q248.83 14.83 248.83 13.51L248.83 13.51Q248.83 12.86 248.58 12.44Q248.33 12.02 247.84 11.80Q247.34 11.57 246.67 11.57L246.67 11.57Q245.38 11.57 244.10 12.17Q242.83 12.77 241.62 13.80Q240.41 14.83 239.33 16.20Q238.25 17.57 237.35 19.12Q236.45 20.66 235.79 22.31Q235.13 23.95 234.77 25.51Q234.41 27.07 234.41 28.46L234.41 28.46Q234.41 29.71 234.83 30.58Q235.25 31.44 236.09 31.87Q236.93 32.30 238.10 32.30L238.10 32.30Q239.42 32.30 240.92 31.61Q242.42 30.91 243.96 29.66Q245.50 28.42 246.90 26.69Q248.30 24.96 249.43 22.90L249.43 22.90Q249.55 22.61 249.77 22.46Q249.98 22.32 250.44 22.32L250.44 22.32Q251.35 22.32 251.16 22.90L251.16 22.90L245.47 40.46Q244.80 42.53 243.88 43.93Q242.95 45.34 241.80 46.03Q240.65 46.73 239.28 46.73ZM269.16 34.73L269.16 34.73Q267.74 34.73 266.41 34.28Q265.08 33.84 263.96 32.99Q262.85 32.14 262.06 30.91L262.06 30.91Q261.74 30.46 261.72 30.18Q261.70 29.90 262.08 29.64L262.08 29.64Q262.49 29.35 262.72 29.41Q262.94 29.47 263.21 29.86L263.21 29.86Q263.98 30.94 264.88 31.67Q265.78 32.40 266.87 32.76Q267.96 33.12 269.38 33.12L269.38 33.12Q270.98 33.12 272.23 32.64Q273.48 32.16 274.33 31.31Q275.18 30.46 275.63 29.29Q276.07 28.13 276.07 26.81L276.07 26.81Q276.07 25.39 275.51 24.35Q274.94 23.30 273.86 22.74Q272.78 22.18 271.27 22.18L271.27 22.18L269.64 22.18Q269.42 22.18 269.34 22.00Q269.26 21.82 269.35 21.38L269.35 21.38Q269.45 21 269.66 20.81Q269.88 20.62 270.10 20.62L270.10 20.62L271.63 20.62Q273.12 20.62 274.38 20.27Q275.64 19.92 276.58 19.22Q277.51 18.53 278.04 17.48Q278.57 16.44 278.57 15.10L278.57 15.10Q278.57 14.21 278.28 13.54Q277.99 12.86 277.44 12.42Q276.89 11.98 276.14 11.74Q275.40 11.50 274.46 11.50L274.46 11.50Q273.46 11.50 272.56 11.72Q271.66 11.95 270.79 12.42Q269.93 12.89 268.99 13.58L268.99 13.58Q268.61 13.87 268.34 13.87Q268.08 13.87 267.77 13.54L267.77 13.54Q267.48 13.25 267.54 13.00Q267.60 12.74 268.01 12.36L268.01 12.36Q268.87 11.66 269.94 11.10Q271.01 10.54 272.23 10.22Q273.46 9.91 274.75 9.91L274.75 9.91Q275.88 9.91 276.90 10.26Q277.92 10.61 278.70 11.26Q279.48 11.90 279.92 12.84Q280.37 13.78 280.37 14.98L280.37 14.98Q280.37 16.22 279.98 17.32Q279.60 18.41 278.84 19.26Q278.09 20.11 276.97 20.70Q275.86 21.29 274.37 21.55L274.37 21.55Q275.47 21.89 276.25 22.66Q277.03 23.42 277.46 24.46Q277.90 25.49 277.90 26.69L277.90 26.69Q277.90 28.39 277.28 29.86Q276.67 31.32 275.53 32.42Q274.39 33.53 272.78 34.13Q271.18 34.73 269.16 34.73ZM288.02 34.73L288.02 34.73Q286.25 34.73 284.86 33.96Q283.46 33.19 282.67 31.60Q281.88 30 281.88 27.53L281.88 27.53Q281.88 25.58 282.29 23.54Q282.70 21.50 283.46 19.52Q284.23 17.54 285.36 15.82Q286.49 14.09 287.92 12.76Q289.34 11.42 291.07 10.67Q292.80 9.91 294.79 9.91L294.79 9.91Q296.57 9.91 297.94 10.68Q299.30 11.45 300.10 13.02Q300.89 14.59 300.89 17.02L300.89 17.02Q300.89 18.96 300.48 21.04Q300.07 23.11 299.30 25.09Q298.54 27.07 297.42 28.80Q296.30 30.53 294.88 31.86Q293.45 33.19 291.73 33.96Q290.02 34.73 288.02 34.73ZM288.43 33.05L288.43 33.05Q289.94 33.05 291.32 32.38Q292.70 31.70 293.89 30.52Q295.08 29.33 296.03 27.78Q296.98 26.23 297.65 24.48Q298.32 22.73 298.68 20.93Q299.04 19.13 299.04 17.42L299.04 17.42Q299.04 15.26 298.46 13.99Q297.89 12.72 296.84 12.16Q295.80 11.59 294.38 11.59L294.38 11.59Q292.87 11.59 291.48 12.26Q290.09 12.94 288.90 14.11Q287.71 15.29 286.75 16.84Q285.79 18.38 285.12 20.12Q284.45 21.86 284.09 23.66Q283.73 25.46 283.73 27.12L283.73 27.12Q283.73 29.33 284.32 30.64Q284.90 31.94 285.96 32.50Q287.02 33.05 288.43 33.05ZM308.33 34.73L308.33 34.73Q306.55 34.73 305.16 33.96Q303.77 33.19 302.98 31.60Q302.18 30 302.18 27.53L302.18 27.53Q302.18 25.58 302.59 23.54Q303 21.50 303.77 19.52Q304.54 17.54 305.66 15.82Q306.79 14.09 308.22 12.76Q309.65 11.42 311.38 10.67Q313.10 9.91 315.10 9.91L315.10 9.91Q316.87 9.91 318.24 10.68Q319.61 11.45 320.40 13.02Q321.19 14.59 321.19 17.02L321.19 17.02Q321.19 18.96 320.78 21.04Q320.38 23.11 319.61 25.09Q318.84 27.07 317.72 28.80Q316.61 30.53 315.18 31.86Q313.75 33.19 312.04 33.96Q310.32 34.73 308.33 34.73ZM308.74 33.05L308.74 33.05Q310.25 33.05 311.63 32.38Q313.01 31.70 314.20 30.52Q315.38 29.33 316.33 27.78Q317.28 26.23 317.95 24.48Q318.62 22.73 318.98 20.93Q319.34 19.13 319.34 17.42L319.34 17.42Q319.34 15.26 318.77 13.99Q318.19 12.72 317.15 12.16Q316.10 11.59 314.69 11.59L314.69 11.59Q313.18 11.59 311.78 12.26Q310.39 12.94 309.20 14.11Q308.02 15.29 307.06 16.84Q306.10 18.38 305.42 20.12Q304.75 21.86 304.39 23.66Q304.03 25.46 304.03 27.12L304.03 27.12Q304.03 29.33 304.62 30.64Q305.21 31.94 306.26 32.50Q307.32 33.05 308.74 33.05ZM328.97 34.63L328.97 34.63Q328.66 34.63 328.39 34.49Q328.13 34.34 328.25 33.98L328.25 33.98L331.22 24.84Q331.44 24.10 331.30 23.72Q331.15 23.35 330.65 23.35L330.65 23.35Q330.24 23.35 329.86 23.60Q329.47 23.86 329.06 24.37Q328.66 24.89 328.20 25.68L328.20 25.68Q328.03 25.94 327.86 26.04Q327.70 26.14 327.34 26.09L327.34 26.09Q326.93 25.99 326.86 25.73Q326.78 25.46 326.93 25.18L326.93 25.18Q327.38 24.22 327.97 23.47Q328.56 22.73 329.28 22.31Q330.00 21.89 330.86 21.89L330.86 21.89Q331.49 21.89 331.92 22.07Q332.35 22.25 332.59 22.61Q332.83 22.97 332.93 23.45Q333.02 23.93 332.93 24.48L332.93 24.48L332.74 25.15Q333.38 24.26 334.07 23.65Q334.75 23.04 335.46 22.62Q336.17 22.20 336.88 22.01Q337.58 21.82 338.23 21.82L338.23 21.82Q339.50 21.82 340.21 22.39Q340.92 22.97 341.05 24.06Q341.18 25.15 340.70 26.66L340.70 26.66L339.10 31.54Q338.95 32.02 338.92 32.39Q338.88 32.76 339.04 32.98Q339.19 33.19 339.58 33.19L339.58 33.19Q339.91 33.19 340.25 33Q340.58 32.81 340.88 32.48Q341.18 32.16 341.38 31.87L341.38 31.87Q341.50 31.66 341.70 31.58Q341.90 31.51 342.24 31.73L342.24 31.73Q342.55 31.92 342.58 32.12Q342.60 32.33 342.48 32.57L342.48 32.57Q342.22 33 341.77 33.49Q341.33 33.98 340.72 34.32Q340.10 34.66 339.34 34.66L339.34 34.66Q338.50 34.66 338.02 34.34Q337.54 34.03 337.38 33.49Q337.22 32.95 337.30 32.24Q337.37 31.54 337.63 30.72L337.63 30.72L339.19 26.06Q339.48 25.22 339.41 24.61Q339.34 24 338.92 23.68Q338.50 23.35 337.68 23.35L337.68 23.35Q336.96 23.35 336.18 23.69Q335.40 24.02 334.61 24.68Q333.82 25.34 333.08 26.33Q332.35 27.31 331.73 28.61L331.73 28.61L329.93 34.10Q329.86 34.37 329.65 34.50Q329.45 34.63 328.97 34.63ZM348.86 34.73L348.86 34.73Q347.45 34.73 346.46 34.14Q345.48 33.55 344.99 32.51Q344.50 31.46 344.50 30.14L344.50 30.14Q344.50 28.85 344.95 27.40Q345.41 25.94 346.32 24.67Q347.23 23.40 348.59 22.61Q349.94 21.82 351.77 21.82L351.77 21.82Q353.16 21.82 354.13 22.37Q355.10 22.92 355.60 23.92Q356.09 24.91 356.09 26.23L356.09 26.23Q356.09 27.22 355.81 28.36Q355.54 29.50 354.97 30.62Q354.41 31.75 353.54 32.68Q352.68 33.60 351.50 34.16Q350.33 34.73 348.86 34.73ZM349.06 33.17L349.06 33.17Q350.35 33.17 351.34 32.50Q352.32 31.82 352.98 30.77Q353.64 29.71 353.98 28.56Q354.31 27.41 354.31 26.40L354.31 26.40Q354.31 25.44 353.99 24.77Q353.66 24.10 353.05 23.74Q352.44 23.38 351.58 23.38L351.58 23.38Q350.28 23.38 349.28 24.04Q348.29 24.70 347.62 25.73Q346.94 26.76 346.61 27.91Q346.27 29.06 346.27 30.02L346.27 30.02Q346.27 31.01 346.60 31.72Q346.92 32.42 347.56 32.80Q348.19 33.17 349.06 33.17ZM353.76 34.68L353.76 34.68Q353.40 34.68 353.28 34.45Q353.16 34.22 353.22 33.94Q353.28 33.65 353.53 33.42Q353.78 33.19 354.17 33.19L354.17 33.19Q354.98 33.19 355.81 32.66Q356.64 32.14 357.55 30.97Q358.46 29.81 359.41 27.95Q360.36 26.09 361.39 23.42L361.39 23.42L362.52 24.02Q361.34 27.07 360.26 29.14Q359.18 31.20 358.14 32.42Q357.10 33.65 356.02 34.16Q354.94 34.68 353.76 34.68ZM367.03 34.66L367.03 34.66Q366.26 34.66 365.78 34.40Q365.30 34.15 365.10 33.68Q364.90 33.22 364.94 32.59Q364.99 31.97 365.21 31.25L365.21 31.25Q365.40 30.67 365.72 29.93Q366.05 29.18 366.40 28.38Q366.74 27.58 367.07 26.76Q367.39 25.94 367.61 25.22L367.61 25.22Q367.85 24.34 367.60 24.01Q367.34 23.69 366.84 23.69L366.84 23.69Q366.24 23.69 365.50 23.90Q364.75 24.12 363.97 24.34Q363.19 24.55 362.47 24.55L362.47 24.55Q361.99 24.55 361.67 24.28Q361.34 24 361.19 23.56Q361.03 23.11 361.03 22.54L361.03 22.54Q361.03 22.03 361.20 21.58Q361.37 21.12 361.70 20.82Q362.04 20.52 362.50 20.52L362.50 20.52Q362.95 20.52 363.17 20.80Q363.38 21.07 363.38 21.46L363.38 21.46Q363.38 21.82 363.25 22.26Q363.12 22.70 362.90 23.04L362.90 23.04Q363.46 23.06 364.20 22.81Q364.94 22.56 365.78 22.31Q366.62 22.06 367.44 22.06L367.44 22.06Q368.14 22.06 368.65 22.38Q369.17 22.70 369.35 23.45Q369.53 24.19 369.19 25.42L369.19 25.42Q369.02 26.09 368.70 26.89Q368.38 27.70 368.02 28.54Q367.66 29.38 367.32 30.17Q366.98 30.96 366.77 31.66L366.77 31.66Q366.50 32.47 366.65 32.83Q366.79 33.19 367.25 33.19L367.25 33.19Q367.61 33.19 367.94 33Q368.28 32.81 368.57 32.48Q368.86 32.16 369.07 31.87L369.07 31.87Q369.19 31.66 369.41 31.60Q369.62 31.54 369.94 31.73L369.94 31.73Q370.25 31.92 370.27 32.12Q370.30 32.33 370.15 32.57L370.15 32.57Q369.91 33 369.47 33.49Q369.02 33.98 368.41 34.32Q367.80 34.66 367.03 34.66ZM372.82 34.63L372.82 34.63Q372.48 34.63 372.23 34.49Q371.98 34.34 372.10 33.98L372.10 33.98L375.07 24.84Q375.29 24.10 375.14 23.72Q375.00 23.35 374.50 23.35L374.50 23.35Q374.09 23.35 373.70 23.60Q373.32 23.86 372.91 24.37Q372.50 24.89 372.05 25.68L372.05 25.68Q371.88 25.94 371.71 26.04Q371.54 26.14 371.18 26.09L371.18 26.09Q370.78 25.99 370.70 25.73Q370.63 25.46 370.78 25.18L370.78 25.18Q371.23 24.22 371.82 23.47Q372.41 22.73 373.13 22.31Q373.85 21.89 374.71 21.89L374.71 21.89Q375.34 21.89 375.76 22.07Q376.18 22.25 376.43 22.60Q376.68 22.94 376.78 23.42Q376.87 23.90 376.78 24.48L376.78 24.48L376.61 25.10Q377.23 24.22 377.90 23.60Q378.58 22.99 379.27 22.60Q379.97 22.20 380.64 22.01Q381.31 21.82 381.96 21.82L381.96 21.82Q383.18 21.82 383.84 22.44Q384.50 23.06 384.59 24.16Q384.67 25.25 384.19 26.66L384.19 26.66L381.79 34.10Q381.67 34.37 381.48 34.50Q381.29 34.63 380.83 34.63L380.83 34.63Q380.50 34.63 380.24 34.49Q379.99 34.34 380.11 33.98L380.11 33.98L382.68 26.06Q382.94 25.30 382.94 24.70Q382.94 24.10 382.57 23.72Q382.20 23.35 381.36 23.35L381.36 23.35Q380.66 23.35 379.91 23.69Q379.15 24.02 378.40 24.70Q377.64 25.37 376.92 26.34Q376.20 27.31 375.58 28.58L375.58 28.58L373.78 34.10Q373.70 34.37 373.49 34.50Q373.27 34.63 372.82 34.63ZM390.82 34.66L390.82 34.66Q389.95 34.66 389.47 34.34Q388.99 34.03 388.84 33.49Q388.68 32.95 388.78 32.24Q388.87 31.54 389.11 30.72L389.11 30.72L390.65 26.06Q390.91 25.30 390.90 24.70Q390.89 24.10 390.53 23.72Q390.17 23.35 389.35 23.35L389.35 23.35Q388.66 23.35 387.88 23.70Q387.10 24.05 386.33 24.74Q385.56 25.44 384.83 26.46Q384.10 27.48 383.45 28.82L383.45 28.82L382.73 28.82Q383.35 27.05 384.20 25.73Q385.06 24.41 386.03 23.53Q387.00 22.66 388.01 22.24Q389.02 21.82 389.93 21.82L389.93 21.82Q391.20 21.82 391.82 22.44Q392.45 23.06 392.54 24.16Q392.64 25.25 392.18 26.66L392.18 26.66L390.60 31.54Q390.43 32.02 390.40 32.39Q390.36 32.76 390.52 32.98Q390.67 33.19 391.03 33.19L391.03 33.19Q391.39 33.19 391.73 33Q392.06 32.81 392.36 32.48Q392.66 32.16 392.86 31.87L392.86 31.87Q392.98 31.66 393.18 31.58Q393.38 31.51 393.70 31.73L393.70 31.73Q394.03 31.92 394.04 32.14Q394.06 32.35 393.96 32.57L393.96 32.57Q393.70 33 393.25 33.49Q392.81 33.98 392.20 34.32Q391.58 34.66 390.82 34.66ZM399.10 34.68L399.10 34.68Q398.06 34.68 397.33 34.21Q396.60 33.74 396.20 32.86Q395.81 31.97 395.81 30.77L395.81 30.77Q395.81 29.69 396.11 28.46Q396.41 27.24 397.03 26.06Q397.66 24.89 398.58 23.93Q399.50 22.97 400.75 22.39Q402.00 21.82 403.56 21.82L403.56 21.82Q404.35 21.82 405.16 22.07Q405.96 22.32 406.66 22.75L406.66 22.75L406.73 22.49Q406.87 22.15 407.06 22.03Q407.26 21.91 407.62 21.91L407.62 21.91Q408.22 21.91 408.37 22.12Q408.53 22.32 408.41 22.70L408.41 22.70L405.50 31.56Q405.36 32.02 405.34 32.39Q405.31 32.76 405.47 32.98Q405.62 33.19 405.98 33.19L405.98 33.19Q406.34 33.19 406.67 33Q406.99 32.81 407.28 32.50Q407.57 32.18 407.78 31.87L407.78 31.87Q407.90 31.66 408.12 31.60Q408.34 31.54 408.65 31.73L408.65 31.73Q408.96 31.92 408.98 32.14Q409.01 32.35 408.89 32.59L408.89 32.59Q408.65 33.02 408.20 33.52Q407.76 34.01 407.15 34.33Q406.54 34.66 405.77 34.66L405.77 34.66Q405.12 34.66 404.71 34.46Q404.30 34.27 404.08 33.94Q403.85 33.60 403.78 33.16Q403.70 32.71 403.75 32.21L403.75 32.21Q403.78 32.06 403.81 31.92Q403.85 31.78 403.90 31.63L403.90 31.63Q403.03 32.78 402.16 33.46Q401.28 34.13 400.50 34.40Q399.72 34.68 399.10 34.68ZM397.58 30.58L397.58 30.58Q397.58 31.39 397.80 31.94Q398.02 32.50 398.47 32.81Q398.93 33.12 399.60 33.12L399.60 33.12Q400.42 33.12 401.30 32.58Q402.19 32.04 403.09 30.96Q403.99 29.88 404.86 28.32L404.86 28.32L406.20 24.10Q405.48 23.64 404.82 23.50Q404.16 23.35 403.54 23.35L403.54 23.35Q402.29 23.35 401.30 23.83Q400.32 24.31 399.62 25.10Q398.93 25.90 398.47 26.86Q398.02 27.82 397.80 28.79Q397.58 29.76 397.58 30.58ZM406.08 34.68L406.08 34.68Q405.72 34.68 405.61 34.45Q405.50 34.22 405.56 33.94Q405.62 33.65 405.88 33.42Q406.13 33.19 406.49 33.19L406.49 33.19Q407.23 33.19 408.20 32.70Q409.18 32.21 410.28 31.31Q411.38 30.41 412.54 29.22Q413.69 28.03 414.83 26.63Q415.97 25.22 417.02 23.71Q418.08 22.20 418.98 20.68Q419.88 19.15 420.54 17.72Q421.20 16.30 421.58 15.02Q421.97 13.75 421.97 12.79L421.97 12.79Q421.97 12.48 422.22 12.32Q422.47 12.17 422.81 12.17Q423.14 12.17 423.40 12.32Q423.65 12.48 423.65 12.79L423.65 12.79Q423.65 13.82 423.25 15.17Q422.86 16.51 422.11 18.05Q421.37 19.58 420.37 21.20Q419.38 22.82 418.20 24.44Q417.02 26.06 415.74 27.58Q414.46 29.09 413.15 30.37Q411.84 31.66 410.58 32.63Q409.32 33.60 408.17 34.14Q407.02 34.68 406.08 34.68ZM413.66 34.66L413.66 34.66Q412.80 34.66 412.32 34.34Q411.84 34.03 411.68 33.49Q411.53 32.95 411.60 32.23Q411.67 31.51 411.91 30.72L411.91 30.72L417.38 13.90Q418.08 11.76 419.00 10.79Q419.93 9.82 421.25 9.82L421.25 9.82Q421.99 9.82 422.53 10.19Q423.07 10.56 423.36 11.22Q423.65 11.88 423.65 12.79L423.65 12.79Q423.65 13.18 423.40 13.36Q423.14 13.54 422.81 13.54Q422.47 13.54 422.22 13.36Q421.97 13.18 421.97 12.79L421.97 12.79Q421.97 12.36 421.85 12.06Q421.73 11.76 421.52 11.60Q421.32 11.45 420.96 11.45L420.96 11.45Q420.62 11.45 420.29 11.71Q419.95 11.98 419.64 12.56Q419.33 13.15 418.99 14.18L418.99 14.18L413.42 31.54Q413.28 31.99 413.24 32.38Q413.21 32.76 413.36 32.98Q413.52 33.19 413.86 33.19L413.86 33.19Q414.24 33.19 414.58 33Q414.91 32.81 415.20 32.48Q415.49 32.16 415.70 31.87L415.70 31.87Q415.80 31.66 416.02 31.58Q416.23 31.51 416.54 31.73L416.54 31.73Q416.88 31.92 416.89 32.12Q416.90 32.33 416.78 32.57L416.78 32.57Q416.52 33 416.08 33.49Q415.63 33.98 415.03 34.32Q414.43 34.66 413.66 34.66Z"/></svg>