<svg xmlns="http://www.w3.org/2000/svg" xmlns:xlink="http://www.w3.org/1999/xlink" width="364.48799999999994" height="32.448"><path fill="black" d="M6.94 20.86L0.58 20.86L0.58 19.49L1.27 19.49Q1.73 19.49 2.08 19.38Q2.42 19.27 2.62 18.95Q2.81 18.62 2.81 17.98L2.81 17.98L2.81 6.50Q2.81 5.88 2.62 5.59Q2.42 5.30 2.11 5.20Q1.80 5.09 1.46 5.09L1.46 5.09L0.58 5.09L0.58 3.72L6.29 3.72L14.71 15.17L14.71 6.50Q14.71 5.95 14.53 5.65Q14.35 5.35 14.06 5.22Q13.78 5.09 13.42 5.09L13.42 5.09L12.50 5.09L12.50 3.72L18.86 3.72L18.86 5.09L17.98 5.09Q17.57 5.09 17.27 5.23Q16.97 5.38 16.80 5.70Q16.63 6.02 16.63 6.60L16.63 6.60L16.63 20.86L14.23 20.86L4.73 7.87L4.73 17.98Q4.73 18.62 4.87 18.95Q5.02 19.27 5.32 19.38Q5.62 19.49 6.05 19.49L6.05 19.49L6.94 19.49L6.94 20.86ZM26.64 21.10L26.64 21.10Q23.64 21.10 21.92 19.42Q20.21 17.74 20.21 14.35L20.21 14.35Q20.21 10.99 21.85 9.32Q23.50 7.66 26.71 7.66L26.71 7.66Q29.71 7.66 31.44 9.32Q33.17 10.99 33.17 14.35L33.17 14.35Q33.17 17.74 31.51 19.42Q29.86 21.10 26.64 21.10ZM26.69 19.49L26.69 19.49Q27.50 19.49 27.98 18.90Q28.46 18.31 28.68 17.17Q28.90 16.03 28.90 14.35L28.90 14.35Q28.90 11.83 28.39 10.56Q27.89 9.29 26.66 9.29L26.66 9.29Q25.44 9.29 24.96 10.56Q24.48 11.83 24.48 14.35L24.48 14.35Q24.48 16.87 24.97 18.18Q25.46 19.49 26.69 19.49ZM40.44 21.10L40.44 21.10Q38.62 21.10 37.57 20.24Q36.53 19.39 36.53 17.28L36.53 17.28L36.53 9.72L34.73 9.72L34.73 8.40Q35.66 8.40 36.30 8.04Q36.94 7.68 37.30 7.30L37.30 7.30Q37.63 6.94 37.93 6.36Q38.23 5.78 38.40 4.99L38.40 4.99L40.75 4.99L40.75 7.99L43.80 7.99L43.80 9.72L40.75 9.72L40.75 16.90Q40.75 17.90 41.06 18.38Q41.38 18.86 42.24 18.86L42.24 18.86Q42.70 18.86 43.16 18.80Q43.63 18.74 44.02 18.65L44.02 18.65L44.02 20.40Q43.61 20.59 42.68 20.84Q41.76 21.10 40.44 21.10ZM51.96 21.10L51.96 21.10Q48.96 21.10 47.24 19.42Q45.53 17.74 45.53 14.35L45.53 14.35Q45.53 10.99 47.17 9.32Q48.82 7.66 52.03 7.66L52.03 7.66Q55.03 7.66 56.76 9.32Q58.49 10.99 58.49 14.35L58.49 14.35Q58.49 17.74 56.83 19.42Q55.18 21.10 51.96 21.10ZM52.01 19.49L52.01 19.49Q52.82 19.49 53.30 18.90Q53.78 18.31 54 17.17Q54.22 16.03 54.22 14.35L54.22 14.35Q54.22 11.83 53.71 10.56Q53.21 9.29 51.98 9.29L51.98 9.29Q50.76 9.29 50.28 10.56Q49.80 11.83 49.80 14.35L49.80 14.35Q49.80 16.87 50.29 18.18Q50.78 19.49 52.01 19.49ZM72.98 21.10L72.98 21.10Q71.18 21.10 70.02 20.78Q68.86 20.47 68.20 19.96Q67.54 19.44 67.28 18.85Q67.03 18.26 67.03 17.76L67.03 17.76Q67.03 16.78 67.44 16.25Q67.85 15.72 68.51 15.49Q69.17 15.26 69.94 15.26L69.94 15.26Q69.94 16.78 70.44 17.72Q70.94 18.67 71.75 19.12Q72.55 19.56 73.44 19.56L73.44 19.56Q74.78 19.56 75.52 18.82Q76.25 18.07 76.25 17.14L76.25 17.14Q76.25 16.34 75.76 15.78Q75.26 15.22 74.35 14.72Q73.44 14.23 72.12 13.70L72.12 13.70Q70.34 12.98 69.35 12.17Q68.35 11.35 67.92 10.38Q67.49 9.41 67.49 8.30L67.49 8.30Q67.49 6.82 68.32 5.74Q69.14 4.66 70.55 4.07Q71.95 3.48 73.73 3.48L73.73 3.48Q75.58 3.48 76.76 3.92Q77.95 4.37 78.52 5.04Q79.08 5.71 79.08 6.43L79.08 6.43Q79.08 7.30 78.36 7.88Q77.64 8.47 75.91 8.47L75.91 8.47Q75.91 7.66 75.61 6.88Q75.31 6.10 74.72 5.57Q74.14 5.04 73.25 5.04L73.25 5.04Q72.26 5.04 71.62 5.53Q70.97 6.02 70.97 7.06L70.97 7.06Q70.97 7.61 71.29 8.15Q71.62 8.69 72.52 9.26Q73.42 9.84 75.12 10.54L75.12 10.54Q76.87 11.21 77.89 12.01Q78.91 12.82 79.33 13.75Q79.75 14.69 79.75 15.86L79.75 15.86Q79.75 17.42 78.94 18.60Q78.12 19.78 76.58 20.44Q75.05 21.10 72.98 21.10ZM88.10 21.10L88.10 21.10Q84.84 21.10 83.23 19.36Q81.62 17.62 81.62 14.47L81.62 14.47Q81.62 11.11 83.24 9.38Q84.86 7.66 87.82 7.66L87.82 7.66Q90.55 7.66 92.12 9.12Q93.70 10.58 93.70 13.44L93.70 13.44L93.70 14.74L85.87 14.74Q85.92 17.06 86.74 18.12Q87.55 19.18 89.14 19.18L89.14 19.18Q90.36 19.18 91.12 18.58Q91.87 17.98 92.28 17.06L92.28 17.06Q92.66 17.18 92.94 17.47Q93.22 17.76 93.22 18.22L93.22 18.22Q93.22 18.89 92.70 19.56Q92.18 20.23 91.07 20.66Q89.95 21.10 88.10 21.10ZM85.92 13.10L89.52 13.10Q89.52 11.30 89.14 10.31Q88.75 9.31 87.91 9.31L87.91 9.31Q87.02 9.31 86.48 10.28Q85.94 11.26 85.92 13.10L85.92 13.10ZM103.44 20.86L94.97 20.86L94.97 19.49L95.09 19.49Q95.64 19.49 96.02 19.37Q96.41 19.25 96.62 18.88Q96.84 18.50 96.84 17.76L96.84 17.76L96.84 10.99Q96.84 10.27 96.66 9.92Q96.48 9.58 96.12 9.47Q95.76 9.36 95.23 9.36L95.23 9.36L95.16 9.36L95.16 7.99L100.39 7.99L100.87 10.25L100.99 10.25Q101.40 9.36 101.89 8.78Q102.38 8.21 103.06 7.96Q103.73 7.70 104.69 7.70L104.69 7.70Q106.10 7.70 106.72 8.34Q107.33 8.98 107.33 9.96L107.33 9.96Q107.33 11.18 106.43 11.74Q105.53 12.29 104.02 12.29L104.02 12.29Q104.02 11.30 103.81 10.78Q103.61 10.25 102.94 10.25L102.94 10.25Q102.46 10.25 102.11 10.60Q101.76 10.94 101.53 11.54Q101.30 12.14 101.18 12.84Q101.06 13.54 101.06 14.23L101.06 14.23L101.06 17.88Q101.06 18.58 101.26 18.92Q101.45 19.27 101.81 19.38Q102.17 19.49 102.62 19.49L102.62 19.49L103.44 19.49L103.44 20.86ZM115.99 20.86L108.02 20.86L108.02 19.49L108.31 19.49Q108.79 19.49 109.15 19.33Q109.51 19.18 109.72 18.79Q109.92 18.41 109.92 17.74L109.92 17.74L109.92 10.97Q109.92 10.34 109.70 10.01Q109.49 9.67 109.13 9.52Q108.77 9.36 108.31 9.36L108.31 9.36L107.93 9.36L107.93 7.99L114.12 7.99L114.12 17.78Q114.12 18.43 114.32 18.80Q114.53 19.18 114.90 19.33Q115.27 19.49 115.70 19.49L115.70 19.49L115.99 19.49L115.99 20.86ZM111.91 5.93L111.91 5.93Q110.93 5.93 110.26 5.46Q109.58 4.99 109.58 4.10L109.58 4.10Q109.58 3.14 110.26 2.71Q110.93 2.28 111.91 2.28L111.91 2.28Q112.85 2.28 113.54 2.71Q114.24 3.14 114.24 4.10L114.24 4.10Q114.24 4.99 113.54 5.46Q112.85 5.93 111.91 5.93ZM126.07 20.86L116.83 20.86L116.83 19.49L117.46 19.49Q117.72 19.49 118.10 19.38Q118.49 19.27 118.76 18.95Q119.04 18.62 119.04 17.98L119.04 17.98L119.04 9.82L116.93 9.82L116.93 7.99L119.04 7.99L119.04 7.25Q119.04 4.97 120.23 3.70Q121.42 2.42 124.18 2.42L124.18 2.42Q125.86 2.42 126.73 2.69Q127.61 2.95 127.93 3.36Q128.26 3.77 128.26 4.20L128.26 4.20Q128.26 4.66 128.00 5.06Q127.75 5.47 127.13 5.71Q126.50 5.95 125.35 5.95L125.35 5.95Q125.35 5.59 125.27 5.11Q125.18 4.63 124.99 4.26Q124.80 3.89 124.39 3.89L124.39 3.89Q123.84 3.89 123.54 4.50Q123.24 5.11 123.24 6.72L123.24 6.72L123.24 7.99L126.53 7.99L126.53 9.82L123.24 9.82L123.24 17.98Q123.24 18.62 123.50 18.95Q123.77 19.27 124.15 19.38Q124.54 19.49 124.85 19.49L124.85 19.49L126.07 19.49L126.07 20.86ZM145.92 20.86L136.92 20.86L136.92 19.49L137.64 19.49Q138.10 19.49 138.46 19.38Q138.82 19.27 139.02 18.94Q139.22 18.60 139.22 17.93L139.22 17.93L139.22 5.28L137.45 5.28Q136.39 5.28 135.98 5.69Q135.58 6.10 135.48 6.89L135.48 6.89L135.26 8.57L133.51 8.57L133.63 3.72L149.16 3.72L149.28 8.57L147.53 8.57L147.36 6.89Q147.26 6.10 146.86 5.69Q146.45 5.28 145.37 5.28L145.37 5.28L143.59 5.28L143.59 17.98Q143.59 18.62 143.81 18.95Q144.02 19.27 144.38 19.38Q144.74 19.49 145.18 19.49L145.18 19.49L145.92 19.49L145.92 20.86ZM156.96 21.10L156.96 21.10Q153.70 21.10 152.09 19.36Q150.48 17.62 150.48 14.47L150.48 14.47Q150.48 11.11 152.10 9.38Q153.72 7.66 156.67 7.66L156.67 7.66Q159.41 7.66 160.98 9.12Q162.55 10.58 162.55 13.44L162.55 13.44L162.55 14.74L154.73 14.74Q154.78 17.06 155.59 18.12Q156.41 19.18 157.99 19.18L157.99 19.18Q159.22 19.18 159.97 18.58Q160.73 17.98 161.14 17.06L161.14 17.06Q161.52 17.18 161.80 17.47Q162.07 17.76 162.07 18.22L162.07 18.22Q162.07 18.89 161.56 19.56Q161.04 20.23 159.92 20.66Q158.81 21.10 156.96 21.10ZM154.78 13.10L158.38 13.10Q158.38 11.30 157.99 10.31Q157.61 9.31 156.77 9.31L156.77 9.31Q155.88 9.31 155.34 10.28Q154.80 11.26 154.78 13.10L154.78 13.10ZM171.89 20.86L163.94 20.86L163.94 19.49L164.21 19.49Q164.69 19.49 165.05 19.33Q165.41 19.18 165.61 18.80Q165.82 18.43 165.82 17.78L165.82 17.78L165.82 5.40Q165.82 4.78 165.52 4.49Q165.22 4.20 164.84 4.09Q164.47 3.98 164.21 3.98L164.21 3.98L163.94 3.98L163.94 2.62L170.02 2.62L170.02 17.78Q170.02 18.43 170.23 18.80Q170.45 19.18 170.81 19.33Q171.17 19.49 171.62 19.49L171.62 19.49L171.89 19.49L171.89 20.86ZM178.58 21.10L178.58 21.10Q176.45 21.10 175.49 19.92Q174.53 18.74 174.53 16.34L174.53 16.34L174.53 11.09Q174.53 10.39 174.42 10.03Q174.31 9.67 174 9.52Q173.69 9.36 173.09 9.36L173.09 9.36L172.99 9.36L172.99 7.99L178.75 7.99L178.75 15.43Q178.75 16.44 178.90 17.22Q179.04 18 179.36 18.43Q179.69 18.86 180.26 18.86L180.26 18.86Q180.94 18.86 181.34 18.43Q181.75 18 181.94 17.20Q182.14 16.39 182.14 15.31L182.14 15.31L182.14 10.82Q182.14 10.15 181.96 9.84Q181.78 9.53 181.46 9.44Q181.15 9.36 180.72 9.36L180.72 9.36L180.62 9.36L180.62 7.99L186.34 7.99L186.34 18Q186.34 18.67 186.52 19.00Q186.70 19.32 187.03 19.40Q187.37 19.49 187.80 19.49L187.80 19.49L188.04 19.49L188.04 20.86L182.86 20.86L182.26 19.25L182.14 19.25Q181.58 20.16 180.71 20.63Q179.83 21.10 178.58 21.10ZM194.35 26.47L194.35 26.47Q191.42 26.47 189.96 25.66Q188.50 24.84 188.50 23.28L188.50 23.28Q188.50 22.49 188.92 21.89Q189.34 21.29 190.09 20.93Q190.85 20.57 191.83 20.50L191.83 20.50Q191.14 20.26 190.52 19.78Q189.91 19.30 189.91 18.43L189.91 18.43Q189.91 17.62 190.55 17.02Q191.18 16.42 192.29 15.86L192.29 15.86Q191.11 15.50 190.32 14.58Q189.53 13.66 189.53 12.10L189.53 12.10Q189.53 9.98 190.84 8.82Q192.14 7.66 194.93 7.66L194.93 7.66Q195.86 7.66 196.60 7.81Q197.33 7.97 197.93 8.28L197.93 8.28Q198.48 7.68 199.10 7.27Q199.73 6.86 200.64 6.86L200.64 6.86Q201.46 6.86 201.89 7.30Q202.32 7.73 202.32 8.33L202.32 8.33Q202.32 8.93 201.94 9.38Q201.55 9.84 200.57 9.84L200.57 9.84Q200.57 9.26 200.28 9.02Q199.99 8.78 199.70 8.78L199.70 8.78Q199.44 8.78 199.24 8.86Q199.03 8.93 198.86 8.98L198.86 8.98Q199.46 9.46 199.85 10.20Q200.23 10.94 200.23 11.98L200.23 11.98Q200.23 13.92 198.95 15.13Q197.66 16.34 194.93 16.34L194.93 16.34Q194.66 16.34 194.21 16.32Q193.75 16.30 193.56 16.25L193.56 16.25Q193.27 16.34 193.01 16.68Q192.74 17.02 192.74 17.40L192.74 17.40Q192.74 17.78 193.04 17.94Q193.34 18.10 193.85 18.10L193.85 18.10L196.70 18.10Q199.20 18.10 200.39 19.06Q201.58 20.02 201.58 21.82L201.58 21.82Q201.58 23.98 199.80 25.22Q198.02 26.47 194.35 26.47ZM194.42 24.94L194.42 24.94Q195.72 24.94 196.58 24.68Q197.45 24.43 197.89 23.95Q198.34 23.47 198.34 22.80L198.34 22.80Q198.34 22.22 197.92 21.88Q197.50 21.53 196.61 21.53L196.61 21.53L193.66 21.53Q193.25 21.53 192.79 21.67Q192.34 21.82 192.02 22.20Q191.71 22.58 191.71 23.28L191.71 23.28Q191.71 23.83 192.05 24.20Q192.38 24.58 193.01 24.76Q193.63 24.94 194.42 24.94ZM194.88 14.83L194.88 14.83Q195.58 14.83 195.92 14.47Q196.27 14.11 196.39 13.49Q196.51 12.86 196.51 12.10L196.51 12.10Q196.51 11.28 196.39 10.62Q196.27 9.96 195.91 9.58Q195.55 9.19 194.86 9.19L194.86 9.19Q194.21 9.19 193.84 9.59Q193.46 9.98 193.33 10.64Q193.20 11.30 193.20 12.12L193.20 12.12Q193.20 13.27 193.54 14.05Q193.87 14.83 194.88 14.83ZM208.56 21.10L208.56 21.10Q206.42 21.10 205.46 19.92Q204.50 18.74 204.50 16.34L204.50 16.34L204.50 11.09Q204.50 10.39 204.40 10.03Q204.29 9.67 203.98 9.52Q203.66 9.36 203.06 9.36L203.06 9.36L202.97 9.36L202.97 7.99L208.73 7.99L208.73 15.43Q208.73 16.44 208.87 17.22Q209.02 18 209.34 18.43Q209.66 18.86 210.24 18.86L210.24 18.86Q210.91 18.86 211.32 18.43Q211.73 18 211.92 17.20Q212.11 16.39 212.11 15.31L212.11 15.31L212.11 10.82Q212.11 10.15 211.93 9.84Q211.75 9.53 211.44 9.44Q211.13 9.36 210.70 9.36L210.70 9.36L210.60 9.36L210.60 7.99L216.31 7.99L216.31 18Q216.31 18.67 216.49 19.00Q216.67 19.32 217.01 19.40Q217.34 19.49 217.78 19.49L217.78 19.49L218.02 19.49L218.02 20.86L212.83 20.86L212.23 19.25L212.11 19.25Q211.56 20.16 210.68 20.63Q209.81 21.10 208.56 21.10ZM231.98 21.14L231.98 21.14Q229.87 21.14 228.55 20.59Q227.23 20.04 226.61 19.14Q225.98 18.24 225.98 17.21L225.98 17.21Q225.98 15.53 227.04 14.58Q228.10 13.63 229.66 13.10L229.66 13.10Q228.24 12.41 227.40 11.44Q226.56 10.46 226.56 9.02L226.56 9.02Q226.56 7.92 227.18 7.01Q227.81 6.10 229.08 5.54Q230.35 4.99 232.30 4.99L232.30 4.99Q234.12 4.99 235.32 5.47Q236.52 5.95 237.12 6.77Q237.72 7.58 237.72 8.59L237.72 8.59Q237.72 10.01 236.86 10.85Q235.99 11.69 234.48 12.22L234.48 12.22Q236.52 13.15 237.41 14.18Q238.30 15.22 238.30 16.80L238.30 16.80Q238.30 18.72 236.74 19.93Q235.18 21.14 231.98 21.14ZM232.06 19.78L232.06 19.78Q233.11 19.78 233.74 19.15Q234.36 18.53 234.36 17.47L234.36 17.47Q234.36 16.66 234 16.06Q233.64 15.46 232.93 14.94Q232.22 14.42 231.17 13.97L231.17 13.97Q230.54 14.47 230.08 15.25Q229.61 16.03 229.61 17.04L229.61 17.04Q229.61 18.48 230.30 19.13Q231 19.78 232.06 19.78ZM232.82 11.50L232.82 11.50Q233.42 10.97 233.81 10.30Q234.19 9.62 234.19 8.57L234.19 8.57Q234.19 7.97 233.99 7.48Q233.78 6.98 233.35 6.67Q232.92 6.36 232.25 6.36L232.25 6.36Q231.38 6.36 230.89 6.94Q230.40 7.51 230.40 8.45L230.40 8.45Q230.40 9.19 230.69 9.77Q230.98 10.34 231.53 10.76Q232.08 11.18 232.82 11.50ZM245.57 21.14L245.57 21.14Q243.38 21.14 242.08 20.12Q240.77 19.10 240.18 17.27Q239.59 15.43 239.59 13.03L239.59 13.03Q239.59 10.61 240.18 8.81Q240.77 7.01 242.09 6.00Q243.41 4.99 245.59 4.99L245.59 4.99Q247.73 4.99 249.04 6.00Q250.34 7.01 250.93 8.82Q251.52 10.63 251.52 13.06L251.52 13.06Q251.52 15.46 250.90 17.28Q250.27 19.10 248.96 20.12Q247.66 21.14 245.57 21.14ZM245.57 19.78L245.57 19.78Q246.74 19.78 247.04 18.08Q247.34 16.39 247.34 13.06L247.34 13.06Q247.34 9.70 247.04 8.03Q246.74 6.36 245.59 6.36L245.59 6.36Q244.39 6.36 244.08 8.03Q243.77 9.70 243.77 13.06L243.77 13.06Q243.77 16.39 244.08 18.08Q244.39 19.78 245.57 19.78ZM258.98 21.14L258.98 21.14Q256.80 21.14 255.49 20.12Q254.18 19.10 253.60 17.27Q253.01 15.43 253.01 13.03L253.01 13.03Q253.01 10.61 253.60 8.81Q254.18 7.01 255.50 6.00Q256.82 4.99 259.01 4.99L259.01 4.99Q261.14 4.99 262.45 6.00Q263.76 7.01 264.35 8.82Q264.94 10.63 264.94 13.06L264.94 13.06Q264.94 15.46 264.31 17.28Q263.69 19.10 262.38 20.12Q261.07 21.14 258.98 21.14ZM258.98 19.78L258.98 19.78Q260.16 19.78 260.46 18.08Q260.76 16.39 260.76 13.06L260.76 13.06Q260.76 9.70 260.46 8.03Q260.16 6.36 259.01 6.36L259.01 6.36Q257.81 6.36 257.50 8.03Q257.18 9.70 257.18 13.06L257.18 13.06Q257.18 16.39 257.50 18.08Q257.81 19.78 258.98 19.78ZM280.61 20.86L272.88 20.86L272.88 19.49L272.98 19.49Q273.53 19.49 273.91 19.37Q274.30 19.25 274.50 18.90Q274.70 18.55 274.70 17.86L274.70 17.86L274.70 10.90Q274.70 10.25 274.51 9.91Q274.32 9.58 273.97 9.47Q273.62 9.36 273.10 9.36L273.10 9.36L273 9.36L273 7.99L278.52 7.99L278.83 9.60L278.95 9.60Q279.46 8.74 280.27 8.20Q281.09 7.66 282.60 7.66L282.60 7.66Q284.50 7.66 285.50 8.75Q286.51 9.84 286.51 12.26L286.51 12.26L286.51 17.78Q286.51 18.50 286.66 18.88Q286.80 19.25 287.14 19.37Q287.47 19.49 288 19.49L288 19.49L288.10 19.49L288.10 20.86L282.31 20.86L282.31 13.13Q282.31 11.57 281.99 10.73Q281.66 9.89 280.75 9.89L280.75 9.89Q280.06 9.89 279.66 10.40Q279.26 10.92 279.10 11.75Q278.93 12.58 278.93 13.54L278.93 13.54L278.93 17.93Q278.93 18.58 279.10 18.91Q279.26 19.25 279.62 19.37Q279.98 19.49 280.51 19.49L280.51 19.49L280.61 19.49L280.61 20.86ZM296.18 21.10L296.18 21.10Q293.18 21.10 291.47 19.42Q289.75 17.74 289.75 14.35L289.75 14.35Q289.75 10.99 291.40 9.32Q293.04 7.66 296.26 7.66L296.26 7.66Q299.26 7.66 300.98 9.32Q302.71 10.99 302.71 14.35L302.71 14.35Q302.71 17.74 301.06 19.42Q299.40 21.10 296.18 21.10ZM296.23 19.49L296.23 19.49Q297.05 19.49 297.53 18.90Q298.01 18.31 298.22 17.17Q298.44 16.03 298.44 14.35L298.44 14.35Q298.44 11.83 297.94 10.56Q297.43 9.29 296.21 9.29L296.21 9.29Q294.98 9.29 294.50 10.56Q294.02 11.83 294.02 14.35L294.02 14.35Q294.02 16.87 294.52 18.18Q295.01 19.49 296.23 19.49ZM312.58 20.86L304.10 20.86L304.10 19.49L304.22 19.49Q304.78 19.49 305.16 19.37Q305.54 19.25 305.76 18.88Q305.98 18.50 305.98 17.76L305.98 17.76L305.98 10.99Q305.98 10.27 305.80 9.92Q305.62 9.58 305.26 9.47Q304.90 9.36 304.37 9.36L304.37 9.36L304.30 9.36L304.30 7.99L309.53 7.99L310.01 10.25L310.13 10.25Q310.54 9.36 311.03 8.78Q311.52 8.21 312.19 7.96Q312.86 7.70 313.82 7.70L313.82 7.70Q315.24 7.70 315.85 8.34Q316.46 8.98 316.46 9.96L316.46 9.96Q316.46 11.18 315.56 11.74Q314.66 12.29 313.15 12.29L313.15 12.29Q313.15 11.30 312.95 10.78Q312.74 10.25 312.07 10.25L312.07 10.25Q311.59 10.25 311.24 10.60Q310.90 10.94 310.67 11.54Q310.44 12.14 310.32 12.84Q310.20 13.54 310.20 14.23L310.20 14.23L310.20 17.88Q310.20 18.58 310.39 18.92Q310.58 19.27 310.94 19.38Q311.30 19.49 311.76 19.49L311.76 19.49L312.58 19.49L312.58 20.86ZM324.96 20.86L317.23 20.86L317.23 19.49L317.35 19.49Q317.90 19.49 318.28 19.37Q318.65 19.25 318.85 18.90Q319.06 18.55 319.06 17.86L319.06 17.86L319.06 10.80Q319.06 10.15 318.85 9.82Q318.65 9.48 318.28 9.37Q317.90 9.26 317.38 9.26L317.38 9.26L317.28 9.26L317.28 7.99L322.85 7.99L323.16 9.60L323.28 9.60Q323.81 8.74 324.67 8.20Q325.54 7.66 327.17 7.66L327.17 7.66Q328.06 7.66 328.73 7.86Q329.40 8.06 329.89 8.50Q330.38 8.93 330.65 9.60L330.65 9.60L330.79 9.60Q331.25 8.74 332.18 8.20Q333.12 7.66 334.58 7.66L334.58 7.66Q336.55 7.66 337.63 8.75Q338.71 9.84 338.71 12.26L338.71 12.26L338.71 17.78Q338.71 18.50 338.86 18.88Q339.00 19.25 339.34 19.37Q339.67 19.49 340.20 19.49L340.20 19.49L340.30 19.49L340.30 20.86L334.49 20.86L334.49 13.13Q334.49 11.57 334.12 10.73Q333.74 9.89 332.81 9.89L332.81 9.89Q332.16 9.89 331.75 10.36Q331.34 10.82 331.15 11.59Q330.96 12.36 330.96 13.27L330.96 13.27L330.96 17.78Q330.96 18.50 331.10 18.88Q331.25 19.25 331.58 19.37Q331.92 19.49 332.45 19.49L332.45 19.49L332.54 19.49L332.54 20.86L326.76 20.86L326.76 13.13Q326.76 11.57 326.41 10.73Q326.06 9.89 325.13 9.89L325.13 9.89Q324.43 9.89 324.02 10.40Q323.62 10.92 323.44 11.75Q323.26 12.58 323.26 13.54L323.26 13.54L323.26 17.93Q323.26 18.58 323.45 18.91Q323.64 19.25 323.99 19.37Q324.34 19.49 324.86 19.49L324.86 19.49L324.96 19.49L324.96 20.86ZM345.70 21.10L345.70 21.10Q344.66 21.10 343.80 20.66Q342.94 20.23 342.43 19.37Q341.93 18.50 341.93 17.16L341.93 17.16Q341.93 15.19 343.25 14.26Q344.57 13.32 347.26 13.22L347.26 13.22L349.20 13.15L349.20 11.86Q349.20 10.99 349.07 10.40Q348.94 9.82 348.62 9.52Q348.31 9.22 347.78 9.22L347.78 9.22Q347.28 9.22 346.97 9.52Q346.66 9.82 346.50 10.38Q346.34 10.94 346.34 11.81L346.34 11.81Q344.62 11.81 343.78 11.42Q342.94 11.04 342.94 10.15L342.94 10.15Q342.94 9.26 343.63 8.71Q344.33 8.16 345.52 7.91Q346.70 7.66 348.12 7.66L348.12 7.66Q350.78 7.66 352.10 8.57Q353.42 9.48 353.42 11.71L353.42 11.71L353.42 17.78Q353.42 18.43 353.56 18.80Q353.69 19.18 354.01 19.33Q354.34 19.49 354.86 19.49L354.86 19.49L354.96 19.49L354.96 20.86L349.99 20.86L349.44 19.37L349.20 19.37Q348.70 20.02 348.22 20.39Q347.74 20.76 347.16 20.93Q346.58 21.10 345.70 21.10ZM347.33 19.25L347.33 19.25Q347.90 19.25 348.34 18.88Q348.77 18.50 349.00 17.83Q349.22 17.16 349.22 16.27L349.22 16.27L349.22 14.52L348.34 14.59Q347.52 14.64 347.06 14.95Q346.61 15.26 346.42 15.83Q346.22 16.39 346.22 17.23L346.22 17.23Q346.22 17.88 346.33 18.34Q346.44 18.79 346.70 19.02Q346.97 19.25 347.33 19.25ZM364.03 20.86L356.09 20.86L356.09 19.49L356.35 19.49Q356.83 19.49 357.19 19.33Q357.55 19.18 357.76 18.80Q357.96 18.43 357.96 17.78L357.96 17.78L357.96 5.40Q357.96 4.78 357.66 4.49Q357.36 4.20 356.99 4.09Q356.62 3.98 356.35 3.98L356.35 3.98L356.09 3.98L356.09 2.62L362.16 2.62L362.16 17.78Q362.16 18.43 362.38 18.80Q362.59 19.18 362.95 19.33Q363.31 19.49 363.77 19.49L363.77 19.49L364.03 19.49L364.03 20.86Z"/></svg>