<svg xmlns="http://www.w3.org/2000/svg" xmlns:xlink="http://www.w3.org/1999/xlink" width="232.032" height="30"><path fill="black" d="M19.90 6.62L19.90 21.10Q19.90 21.67 20.16 22.01Q20.42 22.34 20.80 22.50Q21.17 22.66 21.58 22.70Q21.98 22.75 22.27 22.75L22.27 22.75L22.27 23.76Q22.03 23.76 21.54 23.72Q21.05 23.69 20.52 23.64Q19.99 23.59 19.50 23.56Q19.01 23.52 18.77 23.52L18.77 23.52Q18.53 23.52 18.05 23.56Q17.57 23.59 17.05 23.64Q16.54 23.69 16.06 23.72Q15.58 23.76 15.34 23.76L15.34 23.76L15.34 22.75Q15.65 22.75 16.07 22.70Q16.49 22.66 16.85 22.50Q17.21 22.34 17.46 22.01Q17.71 21.67 17.71 21.10L17.71 21.10L17.71 8.57L11.66 23.76L10.56 23.76L4.58 8.54L4.58 21.10Q4.58 21.67 4.85 22.01Q5.11 22.34 5.48 22.50Q5.86 22.66 6.26 22.70Q6.67 22.75 6.96 22.75L6.96 22.75L6.96 23.76Q6.72 23.76 6.31 23.72Q5.90 23.69 5.45 23.64Q4.99 23.59 4.58 23.56Q4.18 23.52 3.94 23.52L3.94 23.52Q3.70 23.52 3.29 23.56Q2.88 23.59 2.42 23.64Q1.97 23.69 1.56 23.72Q1.15 23.76 0.91 23.76L0.91 23.76L0.91 22.75Q1.22 22.75 1.64 22.70Q2.06 22.66 2.42 22.50Q2.78 22.34 3.04 22.01Q3.29 21.67 3.29 21.10L3.29 21.10L3.29 6.62Q3.29 5.88 2.72 5.48Q2.16 5.09 1.15 5.09L1.15 5.09Q1.15 4.68 1.44 4.38Q1.73 4.08 2.52 4.08L2.52 4.08Q3.07 4.08 3.56 4.30Q4.06 4.51 4.37 4.82L4.37 4.82Q4.68 4.51 5.17 4.30Q5.66 4.08 6.22 4.08L6.22 4.08Q7.01 4.08 7.30 4.38Q7.58 4.68 7.58 5.09L7.58 5.09Q6.26 5.09 5.69 5.81L5.69 5.81Q5.93 6.05 6.17 6.42Q6.41 6.79 6.62 7.20Q6.84 7.61 7.01 8.03Q7.18 8.45 7.30 8.76L7.30 8.76L11.74 20.33L16.32 8.23Q16.61 7.46 16.91 6.88Q17.21 6.29 17.52 5.83L17.52 5.83Q16.99 5.09 15.60 5.09L15.60 5.09Q15.60 4.68 15.89 4.38Q16.18 4.08 16.97 4.08L16.97 4.08Q17.52 4.08 18.01 4.30Q18.50 4.51 18.82 4.82L18.82 4.82Q19.13 4.51 19.62 4.30Q20.11 4.08 20.66 4.08L20.66 4.08Q21.46 4.08 21.74 4.38Q22.03 4.68 22.03 5.09L22.03 5.09Q21.05 5.09 20.47 5.48Q19.90 5.88 19.90 6.62L19.90 6.62ZM25.10 8.98L25.10 8.98Q25.10 8.26 25.61 7.76Q26.11 7.27 26.81 7.27L26.81 7.27Q27.50 7.27 28.00 7.76Q28.49 8.26 28.49 8.98L28.49 8.98Q28.49 9.70 28.00 10.19Q27.50 10.68 26.81 10.68L26.81 10.68Q26.11 10.68 25.61 10.19Q25.10 9.70 25.10 8.98ZM27.82 12.53L27.82 21.38Q27.82 21.86 27.97 22.18Q28.13 22.49 28.36 22.68Q28.58 22.87 28.88 22.96Q29.18 23.04 29.47 23.04L29.47 23.04L29.47 23.76Q29.18 23.76 28.84 23.72Q28.49 23.69 28.10 23.64Q27.72 23.59 27.37 23.56Q27.02 23.52 26.74 23.52L26.74 23.52Q26.45 23.52 26.10 23.56Q25.75 23.59 25.37 23.64Q24.98 23.69 24.64 23.72Q24.29 23.76 24 23.76L24 23.76L24 23.04Q24.65 23.04 25.15 22.68Q25.66 22.32 25.66 21.38L25.66 21.38L25.66 17.26Q25.66 16.37 25.62 15.78Q25.58 15.19 25.42 14.87Q25.25 14.54 24.94 14.41Q24.62 14.28 24.07 14.28L24.07 14.28L24.07 13.56Q24.67 13.56 25.09 13.49Q25.51 13.42 25.85 13.27Q26.18 13.13 26.47 12.94Q26.76 12.74 27.10 12.53L27.10 12.53L27.82 12.53ZM34.46 4.34L34.46 21.38Q34.46 21.86 34.62 22.18Q34.78 22.49 35.00 22.68Q35.23 22.87 35.53 22.96Q35.83 23.04 36.12 23.04L36.12 23.04L36.12 23.76Q35.83 23.76 35.48 23.72Q35.14 23.69 34.75 23.64Q34.37 23.59 34.02 23.56Q33.67 23.52 33.38 23.52L33.38 23.52Q33.10 23.52 32.75 23.56Q32.40 23.59 32.02 23.64Q31.63 23.69 31.28 23.72Q30.94 23.76 30.65 23.76L30.65 23.76L30.65 23.04Q31.30 23.04 31.80 22.68Q32.30 22.32 32.30 21.38L32.30 21.38L32.30 8.95Q32.30 8.06 32.27 7.48Q32.23 6.89 32.06 6.56Q31.90 6.24 31.58 6.11Q31.27 5.98 30.72 5.98L30.72 5.98L30.72 5.38Q31.32 5.38 31.76 5.30Q32.21 5.23 32.57 5.09Q32.93 4.94 33.23 4.75Q33.53 4.56 33.86 4.34L33.86 4.34L34.46 4.34ZM43.37 24.10L43.37 24.10Q42.17 24.10 41.15 23.68Q40.13 23.26 39.36 22.49Q38.59 21.72 38.16 20.64Q37.73 19.56 37.73 18.22L37.73 18.22Q37.73 16.85 38.16 15.79Q38.59 14.74 39.36 14.00Q40.13 13.27 41.15 12.90Q42.17 12.53 43.37 12.53L43.37 12.53Q44.54 12.53 45.58 12.90Q46.61 13.27 47.38 14.00Q48.14 14.74 48.58 15.79Q49.01 16.85 49.01 18.22L49.01 18.22Q49.01 19.58 48.58 20.66Q48.14 21.74 47.38 22.51Q46.61 23.28 45.58 23.69Q44.54 24.10 43.37 24.10ZM43.39 22.99L43.39 22.99Q44.28 22.99 44.90 22.61Q45.53 22.22 45.94 21.56Q46.34 20.90 46.54 20.04Q46.73 19.18 46.73 18.22L46.73 18.22Q46.73 17.28 46.54 16.44Q46.34 15.60 45.94 14.99Q45.53 14.38 44.89 14.02Q44.26 13.66 43.37 13.66L43.37 13.66Q42.48 13.66 41.84 14.00Q41.21 14.35 40.80 14.96Q40.39 15.58 40.20 16.42Q40.01 17.26 40.01 18.22L40.01 18.22Q40.01 19.18 40.20 20.04Q40.39 20.90 40.81 21.56Q41.23 22.22 41.87 22.61Q42.50 22.99 43.39 22.99ZM60.22 19.27L60.22 19.27Q60.22 17.66 60.06 16.58Q59.90 15.50 59.59 14.86Q59.28 14.21 58.80 13.93Q58.32 13.66 57.70 13.66L57.70 13.66Q57.07 13.66 56.51 13.90Q55.94 14.14 55.51 14.65Q55.08 15.17 54.83 16.00Q54.58 16.82 54.58 17.98L54.58 17.98L54.58 21.38Q54.58 21.86 54.73 22.18Q54.89 22.49 55.12 22.68Q55.34 22.87 55.64 22.96Q55.94 23.04 56.23 23.04L56.23 23.04L56.23 23.76Q55.94 23.76 55.60 23.72Q55.25 23.69 54.86 23.64Q54.48 23.59 54.13 23.56Q53.78 23.52 53.50 23.52L53.50 23.52Q53.21 23.52 52.86 23.56Q52.51 23.59 52.13 23.64Q51.74 23.69 51.40 23.72Q51.05 23.76 50.76 23.76L50.76 23.76L50.76 23.04Q51.41 23.04 51.91 22.68Q52.42 22.32 52.42 21.38L52.42 21.38L52.42 17.38Q52.42 16.49 52.38 15.90Q52.34 15.31 52.18 14.99Q52.01 14.66 51.70 14.53Q51.38 14.40 50.83 14.40L50.83 14.40L50.83 13.80Q51.43 13.80 51.88 13.73Q52.32 13.66 52.68 13.51Q53.04 13.37 53.34 13.18Q53.64 12.98 53.98 12.77L53.98 12.77L54.58 12.77L54.58 14.45Q55.03 13.61 55.84 13.07Q56.64 12.53 57.74 12.53L57.74 12.53Q60.12 12.53 61.25 13.97Q62.38 15.41 62.38 18.74L62.38 18.74L62.38 21.26Q62.38 21.74 62.53 22.06Q62.69 22.37 62.92 22.56Q63.14 22.75 63.44 22.84Q63.74 22.92 64.03 22.92L64.03 22.92L64.03 23.76Q63.72 23.76 63.48 23.72Q63.24 23.69 62.99 23.65Q62.74 23.62 62.41 23.58Q62.09 23.54 61.63 23.54L61.63 23.54Q61.32 23.54 60.92 23.58Q60.53 23.62 59.98 23.76L59.98 23.76L59.76 23.35Q59.93 23.18 60.02 22.74Q60.12 22.30 60.16 21.72Q60.19 21.14 60.20 20.50Q60.22 19.85 60.22 19.27ZM70.68 24.10L70.68 24.10Q69.38 24.10 68.40 23.66Q67.42 23.23 66.74 22.45Q66.07 21.67 65.74 20.59Q65.40 19.51 65.40 18.22L65.40 18.22Q65.40 16.70 65.87 15.64Q66.34 14.57 67.09 13.87Q67.85 13.18 68.82 12.85Q69.79 12.53 70.80 12.53L70.80 12.53Q71.88 12.53 72.72 12.85Q73.56 13.18 74.28 14.16L74.28 14.16Q74.42 13.63 74.74 13.36Q75.05 13.08 75.46 12.95Q75.86 12.82 76.32 12.79Q76.78 12.77 77.21 12.77L77.21 12.77L77.21 13.49Q76.90 13.49 76.69 13.62Q76.49 13.75 76.38 14.32Q76.27 14.88 76.24 16.00Q76.20 17.11 76.20 19.08L76.20 19.08L76.20 24.55Q76.20 27.29 74.84 28.52Q73.49 29.76 70.58 29.76L70.58 29.76Q68.81 29.76 67.96 29.38Q67.10 28.99 67.10 28.42L67.10 28.42Q66.48 28.42 66.22 28.00Q65.95 27.58 65.95 27.14L65.95 27.14Q65.95 26.74 66.14 26.44Q66.34 26.14 66.62 25.94Q66.91 25.75 67.24 25.66Q67.56 25.56 67.82 25.56L67.82 25.56Q67.82 26.21 67.98 26.77Q68.14 27.34 68.50 27.76Q68.86 28.18 69.42 28.43Q69.98 28.68 70.80 28.68L70.80 28.68Q71.52 28.68 72.12 28.46Q72.72 28.25 73.14 27.74Q73.56 27.24 73.80 26.42Q74.04 25.61 74.04 24.41L74.04 24.41L74.04 22.85Q73.22 23.64 72.36 23.87Q71.50 24.10 70.68 24.10ZM71.04 22.99L71.04 22.99Q71.86 22.99 72.48 22.62Q73.10 22.25 73.50 21.60Q73.90 20.95 74.10 20.10Q74.30 19.25 74.30 18.26L74.30 18.26Q74.30 17.33 74.11 16.50Q73.92 15.67 73.51 15.04Q73.10 14.40 72.49 14.04Q71.88 13.68 71.02 13.68L71.02 13.68Q70.08 13.68 69.43 14.03Q68.78 14.38 68.40 14.99Q68.02 15.60 67.85 16.43Q67.68 17.26 67.68 18.22L67.68 18.22Q67.68 19.15 67.84 20.02Q67.99 20.88 68.39 21.54Q68.78 22.20 69.42 22.60Q70.06 22.99 71.04 22.99ZM88.46 17.86L88.46 21.38Q88.46 21.86 88.62 22.18Q88.78 22.49 89.00 22.68Q89.23 22.87 89.53 22.96Q89.83 23.04 90.12 23.04L90.12 23.04L90.12 23.76Q89.57 23.76 89.17 23.66Q88.78 23.57 88.22 23.57L88.22 23.57Q87.67 23.57 87.26 23.59Q86.86 23.62 86.30 23.76L86.30 23.76L86.30 22.49Q85.75 23.11 84.98 23.60Q84.22 24.10 83.11 24.10L83.11 24.10Q82.22 24.10 81.49 23.86Q80.76 23.62 80.24 23.16Q79.73 22.70 79.44 22.07Q79.15 21.43 79.15 20.64L79.15 20.64Q79.15 19.87 79.45 19.26Q79.75 18.65 80.30 18.23Q80.86 17.81 81.60 17.58Q82.34 17.35 83.26 17.35L83.26 17.35Q84.29 17.35 85.02 17.56Q85.75 17.76 86.30 18.02L86.30 18.02L86.30 17.14Q86.30 16.51 86.22 15.89Q86.14 15.26 85.90 14.76Q85.66 14.26 85.20 13.94Q84.74 13.63 84.02 13.63L84.02 13.63Q83.71 13.63 83.34 13.70Q82.97 13.78 82.66 13.96Q82.34 14.14 82.13 14.44Q81.91 14.74 81.91 15.19L81.91 15.19Q81.91 15.43 81.98 15.74L81.98 15.74Q81.62 15.94 81.19 15.94L81.19 15.94Q80.52 15.94 80.21 15.56Q79.90 15.19 79.90 14.71L79.90 14.71Q79.90 14.23 80.22 13.86Q80.54 13.49 81.14 13.49L81.14 13.49Q81.14 13.22 81.38 13.03Q81.62 12.84 82.02 12.73Q82.42 12.62 82.90 12.58Q83.38 12.53 83.88 12.53L83.88 12.53Q84.96 12.53 85.81 12.78Q86.66 13.03 87.25 13.64Q87.84 14.26 88.15 15.28Q88.46 16.30 88.46 17.86L88.46 17.86ZM83.78 22.99L83.78 22.99Q84.62 22.99 85.25 22.50Q85.87 22.01 86.30 21.31L86.30 21.31L86.30 18.91Q85.75 18.65 85.08 18.47Q84.41 18.29 83.74 18.29L83.74 18.29Q82.78 18.29 82.09 18.86Q81.41 19.44 81.41 20.50L81.41 20.50Q81.41 21.60 82.06 22.30Q82.70 22.99 83.78 22.99ZM110.98 18.07L110.98 18.07Q111.10 18.17 111.20 18.48Q111.31 18.79 111.31 19.08L111.31 19.08Q111.31 19.54 111.06 19.82Q110.81 20.11 110.50 20.30L110.50 20.30Q110.14 20.52 109.68 20.64L109.68 20.64L109.58 20.50Q109.70 20.40 109.80 20.23L109.80 20.23Q109.90 20.09 109.97 19.85Q110.04 19.61 110.04 19.25L110.04 19.25Q110.04 18.53 109.63 18.13Q109.22 17.74 108.07 17.59L108.07 17.59L108.07 21.10Q108.07 21.67 108.37 22.01Q108.67 22.34 109.09 22.50Q109.51 22.66 109.96 22.70Q110.40 22.75 110.69 22.75L110.69 22.75L110.69 23.76Q110.40 23.76 109.90 23.72Q109.39 23.69 108.84 23.64Q108.29 23.59 107.78 23.56Q107.28 23.52 106.99 23.52L106.99 23.52Q106.70 23.52 106.20 23.56Q105.70 23.59 105.14 23.64Q104.59 23.69 104.09 23.72Q103.58 23.76 103.30 23.76L103.30 23.76L103.30 22.75Q103.61 22.75 104.06 22.70Q104.52 22.66 104.93 22.50Q105.34 22.34 105.62 22.01Q105.91 21.67 105.91 21.10L105.91 21.10L105.91 17.50Q104.86 17.50 104.04 17.57Q103.22 17.64 102.34 17.78Q101.45 17.93 100.32 18.13Q99.19 18.34 97.54 18.62L97.54 18.62L96.72 17.33Q97.87 15.89 99.02 14.22Q100.18 12.55 101.27 10.82Q102.36 9.10 103.38 7.43Q104.40 5.76 105.29 4.34L105.29 4.34L108.07 4.34L108.07 15.91Q109.87 16.03 110.64 16.49Q111.41 16.94 111.41 17.47L111.41 17.47Q111.41 17.74 111.25 17.88Q111.10 18.02 110.98 18.07ZM98.95 16.87L98.95 16.87Q99.10 16.85 99.71 16.70Q100.32 16.56 101.27 16.40Q102.22 16.25 103.42 16.09Q104.62 15.94 105.91 15.89L105.91 15.89L105.91 6.22Q105.14 7.44 104.22 8.94Q103.30 10.44 102.36 11.92Q101.42 13.39 100.54 14.70Q99.65 16.01 98.95 16.87ZM121.20 24.10L121.20 24.10Q119.64 24.10 118.26 23.41Q116.88 22.73 115.85 21.38Q114.82 20.04 114.23 18.07Q113.64 16.10 113.64 13.54L113.64 13.54Q113.64 12.43 113.78 11.21Q113.93 9.98 114.29 8.94Q114.65 7.90 115.24 7.21Q115.82 6.53 116.71 6.53L116.71 6.53Q116.71 5.69 117.18 5.21Q117.65 4.73 118.30 4.48Q118.94 4.22 119.63 4.15Q120.31 4.08 120.72 4.08L120.72 4.08Q122.71 4.08 124.25 4.78Q125.78 5.47 126.82 6.76Q127.85 8.04 128.38 9.84Q128.90 11.64 128.90 13.82L128.90 13.82Q128.90 15.12 128.81 16.39Q128.71 17.66 128.45 18.68Q128.18 19.70 127.69 20.33Q127.20 20.95 126.38 20.95L126.38 20.95Q126.38 21.91 125.90 22.52Q125.42 23.14 124.67 23.48Q123.91 23.83 122.99 23.96Q122.06 24.10 121.20 24.10ZM121.25 22.92L121.25 22.92Q122.59 22.92 123.56 22.19Q124.54 21.46 125.16 20.22Q125.78 18.98 126.08 17.34Q126.38 15.70 126.38 13.90L126.38 13.90Q126.38 12.10 126.08 10.52Q125.78 8.95 125.16 7.80Q124.54 6.65 123.58 5.99Q122.62 5.33 121.27 5.33L121.27 5.33Q119.93 5.33 118.96 6Q117.98 6.67 117.36 7.84Q116.74 9.00 116.45 10.56Q116.16 12.12 116.16 13.92L116.16 13.92Q116.16 15.72 116.45 17.35Q116.74 18.98 117.36 20.22Q117.98 21.46 118.94 22.19Q119.90 22.92 121.25 22.92ZM120.07 13.10L120.07 13.10Q120.07 12.48 120.37 12.11Q120.67 11.74 121.15 11.74L121.15 11.74Q121.61 11.74 121.92 12.10Q122.23 12.46 122.23 13.08L122.23 13.08Q122.86 13.08 123.23 13.39Q123.60 13.70 123.60 14.18L123.60 14.18Q123.60 14.64 123.24 14.95Q122.88 15.26 122.26 15.26L122.26 15.26Q122.26 15.89 121.94 16.26Q121.63 16.63 121.15 16.63L121.15 16.63Q120.70 16.63 120.38 16.27Q120.07 15.91 120.07 15.29L120.07 15.29Q119.45 15.29 119.08 14.98Q118.70 14.66 118.70 14.18L118.70 14.18Q118.70 13.73 119.08 13.42Q119.45 13.10 120.07 13.10ZM139.34 24.10L139.34 24.10Q137.78 24.10 136.40 23.41Q135.02 22.73 133.99 21.38Q132.96 20.04 132.37 18.07Q131.78 16.10 131.78 13.54L131.78 13.54Q131.78 12.43 131.93 11.21Q132.07 9.98 132.43 8.94Q132.79 7.90 133.38 7.21Q133.97 6.53 134.86 6.53L134.86 6.53Q134.86 5.69 135.32 5.21Q135.79 4.73 136.44 4.48Q137.09 4.22 137.77 4.15Q138.46 4.08 138.86 4.08L138.86 4.08Q140.86 4.08 142.39 4.78Q143.93 5.47 144.96 6.76Q145.99 8.04 146.52 9.84Q147.05 11.64 147.05 13.82L147.05 13.82Q147.05 15.12 146.95 16.39Q146.86 17.66 146.59 18.68Q146.33 19.70 145.84 20.33Q145.34 20.95 144.53 20.95L144.53 20.95Q144.53 21.91 144.05 22.52Q143.57 23.14 142.81 23.48Q142.06 23.83 141.13 23.96Q140.21 24.10 139.34 24.10ZM139.39 22.92L139.39 22.92Q140.74 22.92 141.71 22.19Q142.68 21.46 143.30 20.22Q143.93 18.98 144.23 17.34Q144.53 15.70 144.53 13.90L144.53 13.90Q144.53 12.10 144.23 10.52Q143.93 8.95 143.30 7.80Q142.68 6.65 141.72 5.99Q140.76 5.33 139.42 5.33L139.42 5.33Q138.07 5.33 137.10 6Q136.13 6.67 135.50 7.84Q134.88 9.00 134.59 10.56Q134.30 12.12 134.30 13.92L134.30 13.92Q134.30 15.72 134.59 17.35Q134.88 18.98 135.50 20.22Q136.13 21.46 137.09 22.19Q138.05 22.92 139.39 22.92ZM138.22 13.10L138.22 13.10Q138.22 12.48 138.52 12.11Q138.82 11.74 139.30 11.74L139.30 11.74Q139.75 11.74 140.06 12.10Q140.38 12.46 140.38 13.08L140.38 13.08Q141.00 13.08 141.37 13.39Q141.74 13.70 141.74 14.18L141.74 14.18Q141.74 14.64 141.38 14.95Q141.02 15.26 140.40 15.26L140.40 15.26Q140.40 15.89 140.09 16.26Q139.78 16.63 139.30 16.63L139.30 16.63Q138.84 16.63 138.53 16.27Q138.22 15.91 138.22 15.29L138.22 15.29Q137.59 15.29 137.22 14.98Q136.85 14.66 136.85 14.18L136.85 14.18Q136.85 13.73 137.22 13.42Q137.59 13.10 138.22 13.10ZM164.74 19.27L164.74 19.27Q164.74 17.66 164.58 16.58Q164.42 15.50 164.11 14.86Q163.80 14.21 163.32 13.93Q162.84 13.66 162.22 13.66L162.22 13.66Q161.59 13.66 161.03 13.90Q160.46 14.14 160.03 14.65Q159.60 15.17 159.35 16.00Q159.10 16.82 159.10 17.98L159.10 17.98L159.10 21.38Q159.10 21.86 159.25 22.18Q159.41 22.49 159.64 22.68Q159.86 22.87 160.16 22.96Q160.46 23.04 160.75 23.04L160.75 23.04L160.75 23.76Q160.46 23.76 160.12 23.72Q159.77 23.69 159.38 23.64Q159.00 23.59 158.65 23.56Q158.30 23.52 158.02 23.52L158.02 23.52Q157.73 23.52 157.38 23.56Q157.03 23.59 156.65 23.64Q156.26 23.69 155.92 23.72Q155.57 23.76 155.28 23.76L155.28 23.76L155.28 23.04Q155.93 23.04 156.43 22.68Q156.94 22.32 156.94 21.38L156.94 21.38L156.94 17.38Q156.94 16.49 156.90 15.90Q156.86 15.31 156.70 14.99Q156.53 14.66 156.22 14.53Q155.90 14.40 155.35 14.40L155.35 14.40L155.35 13.80Q155.95 13.80 156.40 13.73Q156.84 13.66 157.20 13.51Q157.56 13.37 157.86 13.18Q158.16 12.98 158.50 12.77L158.50 12.77L159.10 12.77L159.10 14.45Q159.55 13.61 160.36 13.07Q161.16 12.53 162.26 12.53L162.26 12.53Q164.64 12.53 165.77 13.97Q166.90 15.41 166.90 18.74L166.90 18.74L166.90 21.26Q166.90 21.74 167.05 22.06Q167.21 22.37 167.44 22.56Q167.66 22.75 167.96 22.84Q168.26 22.92 168.55 22.92L168.55 22.92L168.55 23.76Q168.24 23.76 168.00 23.72Q167.76 23.69 167.51 23.65Q167.26 23.62 166.93 23.58Q166.61 23.54 166.15 23.54L166.15 23.54Q165.84 23.54 165.44 23.58Q165.05 23.62 164.50 23.76L164.50 23.76L164.28 23.35Q164.45 23.18 164.54 22.74Q164.64 22.30 164.68 21.72Q164.71 21.14 164.72 20.50Q164.74 19.85 164.74 19.27ZM175.54 24.10L175.54 24.10Q174.34 24.10 173.32 23.68Q172.30 23.26 171.53 22.49Q170.76 21.72 170.33 20.64Q169.90 19.56 169.90 18.22L169.90 18.22Q169.90 16.85 170.33 15.79Q170.76 14.74 171.53 14.00Q172.30 13.27 173.32 12.90Q174.34 12.53 175.54 12.53L175.54 12.53Q176.71 12.53 177.74 12.90Q178.78 13.27 179.54 14.00Q180.31 14.74 180.74 15.79Q181.18 16.85 181.18 18.22L181.18 18.22Q181.18 19.58 180.74 20.66Q180.31 21.74 179.54 22.51Q178.78 23.28 177.74 23.69Q176.71 24.10 175.54 24.10ZM175.56 22.99L175.56 22.99Q176.45 22.99 177.07 22.61Q177.70 22.22 178.10 21.56Q178.51 20.90 178.70 20.04Q178.90 19.18 178.90 18.22L178.90 18.22Q178.90 17.28 178.70 16.44Q178.51 15.60 178.10 14.99Q177.70 14.38 177.06 14.02Q176.42 13.66 175.54 13.66L175.54 13.66Q174.65 13.66 174.01 14.00Q173.38 14.35 172.97 14.96Q172.56 15.58 172.37 16.42Q172.18 17.26 172.18 18.22L172.18 18.22Q172.18 19.18 172.37 20.04Q172.56 20.90 172.98 21.56Q173.40 22.22 174.04 22.61Q174.67 22.99 175.56 22.99ZM186.74 18.91L186.74 21.38Q186.74 21.86 186.90 22.18Q187.06 22.49 187.28 22.68Q187.51 22.87 187.81 22.96Q188.11 23.04 188.40 23.04L188.40 23.04L188.40 23.76Q188.11 23.76 187.76 23.72Q187.42 23.69 187.03 23.64Q186.65 23.59 186.30 23.56Q185.95 23.52 185.66 23.52L185.66 23.52Q185.38 23.52 185.03 23.56Q184.68 23.59 184.30 23.64Q183.91 23.69 183.56 23.72Q183.22 23.76 182.93 23.76L182.93 23.76L182.93 23.04Q183.58 23.04 184.08 22.68Q184.58 22.32 184.58 21.38L184.58 21.38L184.58 17.38Q184.58 16.49 184.55 15.90Q184.51 15.31 184.34 14.99Q184.18 14.66 183.86 14.53Q183.55 14.40 183.00 14.40L183.00 14.40L183.00 13.80Q183.60 13.80 184.04 13.73Q184.49 13.66 184.85 13.51Q185.21 13.37 185.51 13.18Q185.81 12.98 186.14 12.77L186.14 12.77L186.74 12.77L186.74 15.26Q187.32 13.85 188.12 13.19Q188.93 12.53 189.77 12.53L189.77 12.53Q190.30 12.53 190.73 12.70Q191.16 12.86 191.16 13.27L191.16 13.27Q191.64 13.27 191.92 13.58Q192.19 13.90 192.19 14.45L192.19 14.45Q192.19 15.07 191.76 15.54Q191.33 16.01 190.32 16.20L190.32 16.20Q190.42 15.84 190.42 15.48L190.42 15.48Q190.42 14.62 190.02 14.21Q189.62 13.80 189.14 13.80L189.14 13.80Q188.76 13.80 188.34 14.20Q187.92 14.59 187.56 15.29Q187.20 15.98 186.97 16.91Q186.74 17.83 186.74 18.91L186.74 18.91ZM204.24 17.64L204.24 21.38Q204.24 21.86 204.40 22.18Q204.55 22.49 204.78 22.68Q205.01 22.87 205.31 22.96Q205.61 23.04 205.90 23.04L205.90 23.04L205.90 23.76Q205.61 23.76 205.26 23.72Q204.91 23.69 204.53 23.64Q204.14 23.59 203.80 23.56Q203.45 23.52 203.16 23.52L203.16 23.52Q202.87 23.52 202.52 23.56Q202.18 23.59 201.79 23.64Q201.41 23.69 201.06 23.72Q200.71 23.76 200.42 23.76L200.42 23.76L200.42 23.04Q201.07 23.04 201.58 22.68Q202.08 22.32 202.08 21.38L202.08 21.38L202.08 17.66Q202.08 16.49 201.92 15.72Q201.77 14.95 201.48 14.50Q201.19 14.04 200.80 13.85Q200.40 13.66 199.94 13.66L199.94 13.66Q199.39 13.66 198.86 13.90Q198.34 14.14 197.90 14.65Q197.47 15.17 197.21 15.98Q196.94 16.80 196.94 17.98L196.94 17.98L196.94 21.38Q196.94 21.86 197.10 22.18Q197.26 22.49 197.48 22.68Q197.71 22.87 198.01 22.96Q198.31 23.04 198.60 23.04L198.60 23.04L198.60 23.76Q198.31 23.76 197.96 23.72Q197.62 23.69 197.23 23.64Q196.85 23.59 196.50 23.56Q196.15 23.52 195.86 23.52L195.86 23.52Q195.58 23.52 195.23 23.56Q194.88 23.59 194.50 23.64Q194.11 23.69 193.76 23.72Q193.42 23.76 193.13 23.76L193.13 23.76L193.13 23.04Q193.78 23.04 194.28 22.68Q194.78 22.32 194.78 21.38L194.78 21.38L194.78 17.38Q194.78 16.49 194.75 15.90Q194.71 15.31 194.54 14.99Q194.38 14.66 194.06 14.53Q193.75 14.40 193.20 14.40L193.20 14.40L193.20 13.80Q193.80 13.80 194.24 13.73Q194.69 13.66 195.05 13.51Q195.41 13.37 195.71 13.18Q196.01 12.98 196.34 12.77L196.34 12.77L196.94 12.77L196.94 14.45Q197.21 14.04 197.50 13.69Q197.78 13.34 198.20 13.08Q198.62 12.82 199.19 12.67Q199.75 12.53 200.54 12.53L200.54 12.53Q201.62 12.53 202.46 12.91Q203.30 13.30 203.76 14.45L203.76 14.45Q203.95 14.11 204.29 13.76Q204.62 13.42 205.08 13.14Q205.54 12.86 206.11 12.70Q206.69 12.53 207.38 12.53L207.38 12.53Q208.32 12.53 209.09 12.86Q209.86 13.20 210.41 13.93Q210.96 14.66 211.26 15.85Q211.56 17.04 211.56 18.74L211.56 18.74L211.56 21.12Q211.56 22.49 211.67 23.32Q211.78 24.14 211.96 24.59Q212.14 25.03 212.39 25.19Q212.64 25.34 212.90 25.34L212.90 25.34Q213.24 25.34 213.50 25.21Q213.77 25.08 213.96 24.89L213.96 24.89L214.08 24.98Q213.82 25.61 213.32 25.91Q212.83 26.21 212.26 26.21L212.26 26.21Q211.56 26.21 211.09 25.82Q210.62 25.44 210.62 24.79L210.62 24.79Q209.78 24.79 209.53 23.95Q209.28 23.11 209.28 21.48L209.28 21.48L209.28 17.71Q209.28 15.70 208.80 14.68Q208.32 13.66 207.17 13.66L207.17 13.66Q206.83 13.66 206.33 13.81Q205.82 13.97 205.36 14.40Q204.89 14.83 204.56 15.61Q204.24 16.39 204.24 17.64L204.24 17.64ZM223.37 17.86L223.37 21.38Q223.37 21.86 223.52 22.18Q223.68 22.49 223.91 22.68Q224.14 22.87 224.44 22.96Q224.74 23.04 225.02 23.04L225.02 23.04L225.02 23.76Q224.47 23.76 224.08 23.66Q223.68 23.57 223.13 23.57L223.13 23.57Q222.58 23.57 222.17 23.59Q221.76 23.62 221.21 23.76L221.21 23.76L221.21 22.49Q220.66 23.11 219.89 23.60Q219.12 24.10 218.02 24.10L218.02 24.10Q217.13 24.10 216.40 23.86Q215.66 23.62 215.15 23.16Q214.63 22.70 214.34 22.07Q214.06 21.43 214.06 20.64L214.06 20.64Q214.06 19.87 214.36 19.26Q214.66 18.65 215.21 18.23Q215.76 17.81 216.50 17.58Q217.25 17.35 218.16 17.35L218.16 17.35Q219.19 17.35 219.92 17.56Q220.66 17.76 221.21 18.02L221.21 18.02L221.21 17.14Q221.21 16.51 221.12 15.89Q221.04 15.26 220.80 14.76Q220.56 14.26 220.10 13.94Q219.65 13.63 218.93 13.63L218.93 13.63Q218.62 13.63 218.24 13.70Q217.87 13.78 217.56 13.96Q217.25 14.14 217.03 14.44Q216.82 14.74 216.82 15.19L216.82 15.19Q216.82 15.43 216.89 15.74L216.89 15.74Q216.53 15.94 216.10 15.94L216.10 15.94Q215.42 15.94 215.11 15.56Q214.80 15.19 214.80 14.71L214.80 14.71Q214.80 14.23 215.12 13.86Q215.45 13.49 216.05 13.49L216.05 13.49Q216.05 13.22 216.29 13.03Q216.53 12.84 216.92 12.73Q217.32 12.62 217.80 12.58Q218.28 12.53 218.78 12.53L218.78 12.53Q219.86 12.53 220.72 12.78Q221.57 13.03 222.16 13.64Q222.74 14.26 223.06 15.28Q223.37 16.30 223.37 17.86L223.37 17.86ZM218.69 22.99L218.69 22.99Q219.53 22.99 220.15 22.50Q220.78 22.01 221.21 21.31L221.21 21.31L221.21 18.91Q220.66 18.65 219.98 18.47Q219.31 18.29 218.64 18.29L218.64 18.29Q217.68 18.29 217.00 18.86Q216.31 19.44 216.31 20.50L216.31 20.50Q216.31 21.60 216.96 22.30Q217.61 22.99 218.69 22.99ZM229.75 4.34L229.75 21.38Q229.75 21.86 229.91 22.18Q230.06 22.49 230.29 22.68Q230.52 22.87 230.82 22.96Q231.12 23.04 231.41 23.04L231.41 23.04L231.41 23.76Q231.12 23.76 230.77 23.72Q230.42 23.69 230.04 23.64Q229.66 23.59 229.31 23.56Q228.96 23.52 228.67 23.52L228.67 23.52Q228.38 23.52 228.04 23.56Q227.69 23.59 227.30 23.64Q226.92 23.69 226.57 23.72Q226.22 23.76 225.94 23.76L225.94 23.76L225.94 23.04Q226.58 23.04 227.09 22.68Q227.59 22.32 227.59 21.38L227.59 21.38L227.59 8.95Q227.59 8.06 227.56 7.48Q227.52 6.89 227.35 6.56Q227.18 6.24 226.87 6.11Q226.56 5.98 226.01 5.98L226.01 5.98L226.01 5.38Q226.61 5.38 227.05 5.30Q227.50 5.23 227.86 5.09Q228.22 4.94 228.52 4.75Q228.82 4.56 229.15 4.34L229.15 4.34L229.75 4.34Z"/></svg>