<svg xmlns="http://www.w3.org/2000/svg" xmlns:xlink="http://www.w3.org/1999/xlink" width="287.49600000000004" height="34.488"><path fill="black" d="M7.15 27.62L1.13 27.62L1.13 26.93L3.67 26.66L4.13 26.66L7.15 26.93L7.15 27.62ZM4.27 27.62L3.41 27.62L3.41 10.80L4.25 10.80L4.27 19.39L4.27 27.62ZM14.98 11.21L11.93 10.97L11.93 10.27L17.93 10.27L17.93 10.97L15.41 11.21L14.98 11.21ZM15.60 27.82L14.86 27.82L4.06 11.86L4.01 11.83L3.53 11.11L1.03 10.97L1.03 10.27L4.82 10.27L15.19 25.70L14.78 25.85L14.76 18.67L14.76 10.27L15.60 10.27L15.60 27.82ZM25.92 27.96L25.92 27.96Q24.46 27.96 23.14 27.26Q21.82 26.57 20.99 25.14Q20.16 23.71 20.16 21.55L20.16 21.55Q20.16 19.39 21 17.95Q21.84 16.51 23.16 15.80Q24.48 15.10 25.92 15.10L25.92 15.10Q27.38 15.10 28.70 15.80Q30.02 16.51 30.86 17.95Q31.70 19.39 31.70 21.55L31.70 21.55Q31.70 23.71 30.86 25.14Q30.02 26.57 28.70 27.26Q27.38 27.96 25.92 27.96ZM25.92 27.24L25.92 27.24Q27.84 27.24 28.96 25.76Q30.07 24.29 30.07 21.58L30.07 21.58Q30.07 18.86 28.96 17.35Q27.84 15.84 25.92 15.84L25.92 15.84Q24 15.84 22.88 17.35Q21.77 18.86 21.77 21.58L21.77 21.58Q21.77 24.29 22.88 25.76Q24 27.24 25.92 27.24ZM40.85 16.30L36.53 16.30L36.53 15.43L40.85 15.43L40.85 16.30ZM38.52 27.96L38.52 27.96Q37.10 27.96 36.44 27.20Q35.78 26.45 35.78 24.94L35.78 24.94Q35.78 24.38 35.80 23.96Q35.81 23.54 35.81 22.92L35.81 22.92L35.81 16.30L33.29 16.30L33.29 15.58L36.29 15.36L35.81 15.72L36.36 11.71L37.39 11.71L37.27 15.79L37.27 16.08L37.27 24.86Q37.27 26.02 37.69 26.53Q38.11 27.05 38.93 27.05L38.93 27.05Q39.48 27.05 39.90 26.90Q40.32 26.76 40.80 26.50L40.80 26.50L41.14 26.93Q40.66 27.43 40.01 27.70Q39.36 27.96 38.52 27.96ZM48.53 27.96L48.53 27.96Q47.06 27.96 45.74 27.26Q44.42 26.57 43.60 25.14Q42.77 23.71 42.77 21.55L42.77 21.55Q42.77 19.39 43.61 17.95Q44.45 16.51 45.77 15.80Q47.09 15.10 48.53 15.10L48.53 15.10Q49.99 15.10 51.31 15.80Q52.63 16.51 53.47 17.95Q54.31 19.39 54.31 21.55L54.31 21.55Q54.31 23.71 53.47 25.14Q52.63 26.57 51.31 27.26Q49.99 27.96 48.53 27.96ZM48.53 27.24L48.53 27.24Q50.45 27.24 51.56 25.76Q52.68 24.29 52.68 21.58L52.68 21.58Q52.68 18.86 51.56 17.35Q50.45 15.84 48.53 15.84L48.53 15.84Q46.61 15.84 45.49 17.35Q44.38 18.86 44.38 21.58L44.38 21.58Q44.38 24.29 45.49 25.76Q46.61 27.24 48.53 27.24ZM67.99 27.98L67.99 27.98Q66.50 27.98 65.20 27.56Q63.89 27.14 63.07 26.62L63.07 26.62L63.19 23.16L64.08 23.16L64.63 26.88L63.70 26.40L63.62 25.68Q64.78 26.54 65.70 26.86Q66.62 27.17 67.92 27.17L67.92 27.17Q69.91 27.17 71.17 26.27Q72.43 25.37 72.43 23.54L72.43 23.54Q72.43 22.66 72.10 22.00Q71.76 21.34 70.96 20.78Q70.15 20.23 68.74 19.68L68.74 19.68L67.75 19.27Q65.69 18.43 64.62 17.26Q63.55 16.08 63.55 14.33L63.55 14.33Q63.55 12.84 64.28 11.86Q65.02 10.87 66.23 10.38Q67.44 9.89 68.88 9.89L68.88 9.89Q70.25 9.89 71.22 10.22Q72.19 10.56 73.08 11.18L73.08 11.18L72.98 14.45L72.05 14.45L71.50 10.87L72.43 11.35L72.46 12.05Q71.57 11.33 70.76 11.03Q69.96 10.73 68.90 10.73L68.90 10.73Q67.20 10.73 66.07 11.54Q64.94 12.36 64.94 13.99L64.94 13.99Q64.94 15.38 65.78 16.22Q66.62 17.06 68.06 17.66L68.06 17.66L69.12 18.07Q70.94 18.82 71.98 19.56Q73.01 20.30 73.43 21.18Q73.85 22.06 73.85 23.26L73.85 23.26Q73.85 24.72 73.10 25.79Q72.36 26.86 71.04 27.42Q69.72 27.98 67.99 27.98ZM82.25 27.96L82.25 27.96Q80.54 27.96 79.20 27.26Q77.86 26.57 77.10 25.14Q76.34 23.71 76.34 21.58L76.34 21.58Q76.34 19.61 77.12 18.16Q77.90 16.70 79.20 15.90Q80.50 15.10 82.03 15.10L82.03 15.10Q83.52 15.10 84.59 15.73Q85.66 16.37 86.23 17.46Q86.81 18.55 86.81 19.94L86.81 19.94Q86.81 20.83 86.66 21.38L86.66 21.38L77.06 21.38L77.06 20.66L84.38 20.66Q84.96 20.66 85.16 20.36Q85.37 20.06 85.37 19.44L85.37 19.44Q85.37 17.93 84.49 16.88Q83.62 15.84 82.01 15.84L82.01 15.84Q80.86 15.84 79.92 16.51Q78.98 17.18 78.43 18.42Q77.88 19.66 77.88 21.31L77.88 21.31Q77.88 23.23 78.48 24.48Q79.08 25.73 80.14 26.32Q81.19 26.90 82.56 26.90L82.56 26.90Q83.83 26.90 84.80 26.47Q85.78 26.04 86.54 25.18L86.54 25.18L86.90 25.51Q86.11 26.64 84.96 27.30Q83.81 27.96 82.25 27.96ZM94.97 27.62L89.02 27.62L89.02 26.98L91.68 26.69L92.23 26.69L94.97 26.98L94.97 27.62ZM92.71 27.62L91.10 27.62Q91.13 27.05 91.14 26.08Q91.15 25.10 91.16 24.05Q91.18 22.99 91.18 22.20L91.18 22.20L91.18 20.88Q91.18 19.63 91.16 18.61Q91.15 17.59 91.10 16.70L91.10 16.70L88.90 16.61L88.90 15.98L92.18 15.17L92.50 15.36L92.64 18.72L92.64 18.74L92.64 22.20Q92.64 22.99 92.65 24.05Q92.66 25.10 92.68 26.08Q92.69 27.05 92.71 27.62L92.71 27.62ZM92.62 19.99L92.62 19.99L92.21 18.82L92.54 18.82Q92.93 17.71 93.58 16.87Q94.22 16.03 95.03 15.56Q95.83 15.10 96.70 15.10L96.70 15.10Q97.34 15.10 97.84 15.34Q98.33 15.58 98.50 15.96L98.50 15.96Q98.50 16.54 98.23 16.85Q97.97 17.16 97.39 17.16L97.39 17.16Q97.01 17.16 96.68 16.97Q96.36 16.78 95.95 16.39L95.95 16.39L95.40 15.91L96.58 15.91Q95.23 16.18 94.27 17.16Q93.31 18.14 92.62 19.99ZM105.38 27.62L99.74 27.62L99.74 26.98L102.41 26.71L102.86 26.71L105.38 26.98L105.38 27.62ZM103.46 27.62L101.86 27.62Q101.88 27.05 101.90 26.08Q101.93 25.10 101.94 24.05Q101.95 22.99 101.95 22.20L101.95 22.20L101.95 20.88Q101.95 19.66 101.93 18.62Q101.90 17.59 101.86 16.68L101.86 16.68L99.62 16.61L99.62 15.98L103.15 15.17L103.44 15.36L103.39 18.58L103.39 22.20Q103.39 22.99 103.40 24.05Q103.42 25.10 103.43 26.08Q103.44 27.05 103.46 27.62L103.46 27.62ZM102.46 11.90L102.46 11.90Q101.95 11.90 101.60 11.58Q101.26 11.26 101.26 10.73L101.26 10.73Q101.26 10.20 101.60 9.86Q101.95 9.53 102.46 9.53L102.46 9.53Q102.94 9.53 103.31 9.86Q103.68 10.20 103.68 10.73L103.68 10.73Q103.68 11.26 103.31 11.58Q102.94 11.90 102.46 11.90ZM113.74 27.62L107.35 27.62L107.35 26.98L110.16 26.71L110.69 26.71L113.74 26.98L113.74 27.62ZM111.24 27.62L109.61 27.62Q109.66 26.28 109.68 24.91Q109.70 23.54 109.70 22.20L109.70 22.20L109.70 16.30L107.30 16.30L107.30 15.58L110.26 15.34L109.68 15.62L109.68 15.53Q109.78 13.22 110.26 11.80Q110.74 10.37 111.72 9.43L111.72 9.43Q112.42 8.78 113.20 8.47Q113.98 8.16 114.79 8.16L114.79 8.16Q115.61 8.16 116.23 8.46Q116.86 8.76 117.02 9.29L117.02 9.29Q117.00 9.62 116.72 9.86Q116.45 10.10 115.99 10.10L115.99 10.10Q115.58 10.10 115.20 9.89Q114.82 9.67 114.31 9.26L114.31 9.26L113.64 8.69L113.64 8.47L114.58 8.47L114.58 8.69Q113.86 8.74 113.21 9.17Q112.56 9.60 112.15 10.27L112.15 10.27Q111.77 10.85 111.53 11.56Q111.29 12.26 111.20 13.32Q111.12 14.38 111.17 15.98L111.17 15.98L111.17 22.20Q111.17 23.54 111.19 24.91Q111.22 26.28 111.24 27.62L111.24 27.62ZM115.03 16.30L110.45 16.30L110.45 15.43L115.03 15.43L115.03 16.30ZM128.06 27.98L128.06 27.98Q126.58 27.98 125.27 27.56Q123.96 27.14 123.14 26.62L123.14 26.62L123.26 23.16L124.15 23.16L124.70 26.88L123.77 26.40L123.70 25.68Q124.85 26.54 125.77 26.86Q126.70 27.17 127.99 27.17L127.99 27.17Q129.98 27.17 131.24 26.27Q132.50 25.37 132.50 23.54L132.50 23.54Q132.50 22.66 132.17 22.00Q131.83 21.34 131.03 20.78Q130.22 20.23 128.81 19.68L128.81 19.68L127.82 19.27Q125.76 18.43 124.69 17.26Q123.62 16.08 123.62 14.33L123.62 14.33Q123.62 12.84 124.36 11.86Q125.09 10.87 126.30 10.38Q127.51 9.89 128.95 9.89L128.95 9.89Q130.32 9.89 131.29 10.22Q132.26 10.56 133.15 11.18L133.15 11.18L133.06 14.45L132.12 14.45L131.57 10.87L132.50 11.35L132.53 12.05Q131.64 11.33 130.84 11.03Q130.03 10.73 128.98 10.73L128.98 10.73Q127.27 10.73 126.14 11.54Q125.02 12.36 125.02 13.99L125.02 13.99Q125.02 15.38 125.86 16.22Q126.70 17.06 128.14 17.66L128.14 17.66L129.19 18.07Q131.02 18.82 132.05 19.56Q133.08 20.30 133.50 21.18Q133.92 22.06 133.92 23.26L133.92 23.26Q133.92 24.72 133.18 25.79Q132.43 26.86 131.11 27.42Q129.79 27.98 128.06 27.98ZM145.18 27.98L145.18 27.98Q143.26 27.98 141.68 27.35Q140.11 26.71 138.97 25.52Q137.83 24.34 137.22 22.67Q136.61 21 136.61 18.96L136.61 18.96Q136.61 16.94 137.24 15.28Q137.88 13.61 139.03 12.40Q140.18 11.18 141.76 10.54Q143.33 9.89 145.18 9.89L145.18 9.89Q146.59 9.89 147.74 10.20Q148.90 10.51 150.07 11.21L150.07 11.21L150.17 14.93L149.18 14.93L148.56 11.02L149.57 11.35L149.57 12.19Q148.54 11.40 147.56 11.06Q146.59 10.73 145.39 10.73L145.39 10.73Q143.33 10.73 141.74 11.71Q140.16 12.70 139.26 14.53Q138.36 16.37 138.36 18.96L138.36 18.96Q138.36 21.55 139.25 23.40Q140.14 25.25 141.70 26.22Q143.26 27.19 145.25 27.19L145.25 27.19Q146.45 27.19 147.55 26.87Q148.66 26.54 149.69 25.78L149.69 25.78L149.69 26.54L148.73 26.78L149.38 22.97L150.36 22.97L150.29 26.66Q149.04 27.41 147.82 27.70Q146.59 27.98 145.18 27.98ZM169.80 27.62L159.41 27.62L159.41 26.57Q160.66 25.08 161.83 23.65Q163.01 22.22 163.90 21.19L163.90 21.19Q165.17 19.63 165.95 18.48Q166.73 17.33 167.09 16.36Q167.45 15.38 167.45 14.40L167.45 14.40Q167.45 12.60 166.52 11.63Q165.60 10.66 163.92 10.66L163.92 10.66Q163.22 10.66 162.53 10.85Q161.83 11.04 161.02 11.57L161.02 11.57L161.95 10.78L161.26 13.08Q161.09 13.63 160.86 13.87Q160.63 14.11 160.27 14.11L160.27 14.11Q159.96 14.11 159.74 13.93Q159.53 13.75 159.43 13.44L159.43 13.44Q159.67 12.26 160.39 11.50Q161.11 10.73 162.14 10.33Q163.18 9.94 164.30 9.94L164.30 9.94Q166.61 9.94 167.80 11.10Q168.98 12.26 168.98 14.40L168.98 14.40Q168.98 15.46 168.53 16.48Q168.07 17.50 167.05 18.80Q166.03 20.11 164.30 22.03L164.30 22.03Q163.94 22.42 163.32 23.14Q162.70 23.86 161.89 24.77Q161.09 25.68 160.25 26.64L160.25 26.64L160.44 25.94L160.44 26.28L169.80 26.28L169.80 27.62ZM177.41 27.96L177.41 27.96Q176.04 27.96 174.82 27.05Q173.59 26.14 172.82 24.14Q172.06 22.15 172.06 18.91L172.06 18.91Q172.06 15.70 172.82 13.72Q173.59 11.74 174.82 10.84Q176.04 9.94 177.41 9.94L177.41 9.94Q178.80 9.94 180.01 10.84Q181.22 11.74 181.98 13.72Q182.74 15.70 182.74 18.91L182.74 18.91Q182.74 22.15 181.98 24.14Q181.22 26.14 180.01 27.05Q178.80 27.96 177.41 27.96ZM177.41 27.24L177.41 27.24Q178.10 27.24 178.79 26.82Q179.47 26.40 180.01 25.44Q180.55 24.48 180.88 22.87Q181.20 21.26 181.20 18.91L181.20 18.91Q181.20 16.58 180.88 15.00Q180.55 13.42 180.01 12.47Q179.47 11.52 178.79 11.10Q178.10 10.68 177.41 10.68L177.41 10.68Q176.69 10.68 176.02 11.10Q175.34 11.52 174.80 12.47Q174.26 13.42 173.94 15.00Q173.62 16.58 173.62 18.91L173.62 18.91Q173.62 21.26 173.94 22.87Q174.26 24.48 174.80 25.44Q175.34 26.40 176.02 26.82Q176.69 27.24 177.41 27.24ZM190.42 27.96L190.42 27.96Q189.05 27.96 187.82 27.05Q186.60 26.14 185.83 24.14Q185.06 22.15 185.06 18.91L185.06 18.91Q185.06 15.70 185.83 13.72Q186.60 11.74 187.82 10.84Q189.05 9.94 190.42 9.94L190.42 9.94Q191.81 9.94 193.02 10.84Q194.23 11.74 194.99 13.72Q195.74 15.70 195.74 18.91L195.74 18.91Q195.74 22.15 194.99 24.14Q194.23 26.14 193.02 27.05Q191.81 27.96 190.42 27.96ZM190.42 27.24L190.42 27.24Q191.11 27.24 191.80 26.82Q192.48 26.40 193.02 25.44Q193.56 24.48 193.88 22.87Q194.21 21.26 194.21 18.91L194.21 18.91Q194.21 16.58 193.88 15.00Q193.56 13.42 193.02 12.47Q192.48 11.52 191.80 11.10Q191.11 10.68 190.42 10.68L190.42 10.68Q189.70 10.68 189.02 11.10Q188.35 11.52 187.81 12.47Q187.27 13.42 186.95 15.00Q186.62 16.58 186.62 18.91L186.62 18.91Q186.62 21.26 186.95 22.87Q187.27 24.48 187.81 25.44Q188.35 26.40 189.02 26.82Q189.70 27.24 190.42 27.24ZM209.78 27.62L204.19 27.62L204.19 26.98L206.83 26.71L207.31 26.71L209.78 26.98L209.78 27.62ZM207.89 27.62L206.28 27.62Q206.30 27.05 206.32 26.08Q206.33 25.10 206.34 24.05Q206.35 22.99 206.35 22.20L206.35 22.20L206.35 20.88Q206.35 19.63 206.34 18.61Q206.33 17.59 206.28 16.70L206.28 16.70L204.07 16.61L204.07 15.98L207.36 15.17L207.67 15.36L207.82 18.19L207.82 18.22L207.82 22.20Q207.82 22.99 207.83 24.05Q207.84 25.10 207.85 26.08Q207.86 27.05 207.89 27.62L207.89 27.62ZM217.90 27.62L212.30 27.62L212.30 26.98L214.92 26.71L215.42 26.71L217.90 26.98L217.90 27.62ZM215.98 27.62L214.39 27.62Q214.42 27.05 214.43 26.09Q214.44 25.13 214.45 24.07Q214.46 23.02 214.46 22.20L214.46 22.20L214.46 19.61Q214.46 17.74 213.84 16.99Q213.22 16.25 212.11 16.25L212.11 16.25Q211.27 16.25 210.11 16.76Q208.94 17.28 207.55 18.79L207.55 18.79L207.31 18.07L207.50 18.07Q208.80 16.51 210.12 15.80Q211.44 15.10 212.69 15.10L212.69 15.10Q214.22 15.10 215.06 16.12Q215.90 17.14 215.90 19.58L215.90 19.58L215.90 22.20Q215.90 23.02 215.92 24.07Q215.93 25.13 215.94 26.09Q215.95 27.05 215.98 27.62L215.98 27.62ZM225.77 27.96L225.77 27.96Q224.30 27.96 222.98 27.26Q221.66 26.57 220.84 25.14Q220.01 23.71 220.01 21.55L220.01 21.55Q220.01 19.39 220.85 17.95Q221.69 16.51 223.01 15.80Q224.33 15.10 225.77 15.10L225.77 15.10Q227.23 15.10 228.55 15.80Q229.87 16.51 230.71 17.95Q231.55 19.39 231.55 21.55L231.55 21.55Q231.55 23.71 230.71 25.14Q229.87 26.57 228.55 27.26Q227.23 27.96 225.77 27.96ZM225.77 27.24L225.77 27.24Q227.69 27.24 228.80 25.76Q229.92 24.29 229.92 21.58L229.92 21.58Q229.92 18.86 228.80 17.35Q227.69 15.84 225.77 15.84L225.77 15.84Q223.85 15.84 222.73 17.35Q221.62 18.86 221.62 21.58L221.62 21.58Q221.62 24.29 222.73 25.76Q223.85 27.24 225.77 27.24ZM239.81 27.62L233.86 27.62L233.86 26.98L236.52 26.69L237.07 26.69L239.81 26.98L239.81 27.62ZM237.55 27.62L235.94 27.62Q235.97 27.05 235.98 26.08Q235.99 25.10 236.00 24.05Q236.02 22.99 236.02 22.20L236.02 22.20L236.02 20.88Q236.02 19.63 236.00 18.61Q235.99 17.59 235.94 16.70L235.94 16.70L233.74 16.61L233.74 15.98L237.02 15.17L237.34 15.36L237.48 18.72L237.48 18.74L237.48 22.20Q237.48 22.99 237.49 24.05Q237.50 25.10 237.52 26.08Q237.53 27.05 237.55 27.62L237.55 27.62ZM237.46 19.99L237.46 19.99L237.05 18.82L237.38 18.82Q237.77 17.71 238.42 16.87Q239.06 16.03 239.87 15.56Q240.67 15.10 241.54 15.10L241.54 15.10Q242.18 15.10 242.68 15.34Q243.17 15.58 243.34 15.96L243.34 15.96Q243.34 16.54 243.07 16.85Q242.81 17.16 242.23 17.16L242.23 17.16Q241.85 17.16 241.52 16.97Q241.20 16.78 240.79 16.39L240.79 16.39L240.24 15.91L241.42 15.91Q240.07 16.18 239.11 17.16Q238.15 18.14 237.46 19.99ZM250.15 27.62L244.56 27.62L244.56 26.98L247.20 26.71L247.68 26.71L250.15 26.98L250.15 27.62ZM248.26 27.62L246.65 27.62Q246.67 27.05 246.68 26.08Q246.70 25.10 246.71 24.05Q246.72 22.99 246.72 22.20L246.72 22.20L246.72 20.86Q246.72 19.63 246.71 18.61Q246.70 17.59 246.65 16.70L246.65 16.70L244.44 16.61L244.44 15.98L247.73 15.17L248.04 15.36L248.18 18.12L248.18 18.19L248.18 22.20Q248.18 22.99 248.20 24.05Q248.21 25.10 248.22 26.08Q248.23 27.05 248.26 27.62L248.26 27.62ZM257.93 27.62L252.36 27.62L252.36 26.98L254.98 26.71L255.48 26.71L257.93 26.98L257.93 27.62ZM256.01 27.62L254.45 27.62Q254.47 27.05 254.48 26.09Q254.50 25.13 254.51 24.07Q254.52 23.02 254.52 22.20L254.52 22.20L254.52 19.61Q254.52 17.76 253.91 17.00Q253.30 16.25 252.31 16.25L252.31 16.25Q251.40 16.25 250.33 16.79Q249.26 17.33 247.92 18.82L247.92 18.82L247.66 18.07L247.87 18.07Q249.07 16.58 250.31 15.84Q251.54 15.10 252.79 15.10L252.79 15.10Q254.28 15.10 255.11 16.12Q255.94 17.14 255.94 19.58L255.94 19.58L255.94 22.20Q255.94 23.02 255.95 24.07Q255.96 25.13 255.97 26.09Q255.98 27.05 256.01 27.62L256.01 27.62ZM265.73 27.62L260.14 27.62L260.14 26.98L262.75 26.71L263.23 26.71L265.73 26.98L265.73 27.62ZM263.81 27.62L262.20 27.62Q262.25 27.05 262.26 26.09Q262.27 25.13 262.28 24.07Q262.30 23.02 262.30 22.20L262.30 22.20L262.30 19.61Q262.30 17.71 261.67 16.98Q261.05 16.25 259.97 16.25L259.97 16.25Q259.08 16.25 258.01 16.74Q256.94 17.23 255.67 18.65L255.67 18.65L255.38 17.93L255.58 17.93Q256.75 16.46 257.98 15.78Q259.20 15.10 260.47 15.10L260.47 15.10Q262.03 15.10 262.88 16.10Q263.74 17.11 263.74 19.51L263.74 19.51L263.74 22.20Q263.74 23.02 263.75 24.07Q263.76 25.13 263.77 26.09Q263.78 27.05 263.81 27.62L263.81 27.62ZM271.15 27.96L271.15 27.96Q269.76 27.96 268.82 27.17Q267.89 26.38 267.89 24.89L267.89 24.89Q267.89 24.00 268.28 23.29Q268.68 22.58 269.58 22.01Q270.48 21.43 271.97 21L271.97 21Q273.00 20.69 274.07 20.41Q275.14 20.14 276.10 19.92L276.10 19.92L276.10 20.50Q275.14 20.74 274.14 21.02Q273.14 21.31 272.26 21.65L272.26 21.65Q270.65 22.22 270.01 22.97Q269.38 23.71 269.38 24.62L269.38 24.62Q269.38 25.75 270.02 26.33Q270.67 26.90 271.73 26.90L271.73 26.90Q272.33 26.90 272.89 26.68Q273.46 26.45 274.16 25.90Q274.87 25.34 275.83 24.41L275.83 24.41L275.98 25.49L275.52 25.49Q274.75 26.30 274.08 26.86Q273.41 27.41 272.71 27.68Q272.02 27.96 271.15 27.96ZM277.44 27.94L277.44 27.94Q276.43 27.94 275.94 27.20Q275.45 26.47 275.40 25.18L275.40 25.18L275.40 25.08L275.40 19.22Q275.40 17.86 275.09 17.12Q274.78 16.39 274.15 16.10Q273.53 15.82 272.57 15.82L272.57 15.82Q271.85 15.82 271.13 16.03Q270.41 16.25 269.64 16.73L269.64 16.73L270.50 16.06L270.05 17.98Q269.95 18.46 269.71 18.65Q269.47 18.84 269.09 18.84L269.09 18.84Q268.34 18.84 268.20 18.10L268.20 18.10Q268.61 16.68 269.83 15.89Q271.06 15.10 272.88 15.10L272.88 15.10Q274.85 15.10 275.83 16.04Q276.82 16.99 276.82 19.13L276.82 19.13L276.82 24.91Q276.82 26.16 277.10 26.59Q277.39 27.02 277.92 27.02L277.92 27.02Q278.23 27.02 278.47 26.90Q278.71 26.78 279.00 26.52L279.00 26.52L279.36 26.90Q279.00 27.43 278.51 27.68Q278.02 27.94 277.44 27.94ZM286.66 27.62L280.51 27.62L280.51 26.98L283.37 26.71L283.82 26.71L286.66 26.98L286.66 27.62ZM284.42 27.62L282.82 27.62Q282.84 26.90 282.85 25.97Q282.86 25.03 282.88 24.04Q282.89 23.04 282.89 22.20L282.89 22.20L282.89 9.82L280.68 9.72L280.68 9.07L284.06 8.42L284.42 8.64L284.35 12.34L284.35 22.20Q284.35 23.04 284.36 24.04Q284.38 25.03 284.39 25.97Q284.40 26.90 284.42 27.62L284.42 27.62Z"/></svg>