<svg xmlns="http://www.w3.org/2000/svg" xmlns:xlink="http://www.w3.org/1999/xlink" width="185.08800000000002" height="27.648"><path fill="black" d="M7.15 22.27L2.16 22.27L2.16 6.38L6.70 6.38Q8.45 6.38 9.80 6.78Q11.16 7.18 11.94 7.99Q12.72 8.81 12.72 10.13L12.72 10.13Q12.72 11.45 11.78 12.43Q10.85 13.42 9.22 13.90L9.22 13.90Q11.50 14.33 12.56 15.42Q13.63 16.51 13.63 17.81L13.63 17.81Q13.63 19.03 13.00 19.90Q12.36 20.76 11.35 21.28Q10.34 21.79 9.23 22.03Q8.11 22.27 7.15 22.27L7.15 22.27ZM4.49 7.73L4.49 13.66L6.22 13.66Q7.80 13.66 8.69 13.16Q9.58 12.67 9.94 11.88Q10.30 11.09 10.30 10.25L10.30 10.25Q10.30 9.34 9.67 8.51Q9.05 7.68 7.61 7.25L7.61 7.25Q6.94 7.25 6.02 7.39Q5.11 7.54 4.49 7.73L4.49 7.73ZM6.67 21.43L6.67 21.43Q7.78 21.43 8.76 21.06Q9.74 20.69 10.36 19.92Q10.97 19.15 10.97 18L10.97 18Q10.97 16.99 10.34 16.16Q9.72 15.34 8.66 14.84Q7.61 14.35 6.31 14.35L6.31 14.35L4.49 14.35L4.49 21.19Q4.82 21.29 5.46 21.36Q6.10 21.43 6.67 21.43ZM21.29 22.56L21.29 22.56Q19.80 22.56 18.61 21.94Q17.42 21.31 16.75 20.11Q16.08 18.91 16.08 17.18L16.08 17.18Q16.08 15.19 16.85 13.85Q17.62 12.50 18.86 11.82Q20.11 11.14 21.53 11.14L21.53 11.14Q22.66 11.14 23.58 11.72Q24.50 12.31 25.07 13.48Q25.63 14.64 25.63 16.37L25.63 16.37L17.98 16.37Q17.98 18.24 18.56 19.31Q19.15 20.38 20.10 20.81Q21.05 21.24 22.08 21.24L22.08 21.24Q23.02 21.24 23.74 21.05Q24.46 20.86 25.06 20.59L25.06 20.59L25.06 21.43Q24.31 21.86 23.35 22.21Q22.39 22.56 21.29 22.56ZM18.07 15.65L18.07 15.65L23.69 15.65Q23.62 14.57 23.22 13.90Q22.82 13.22 22.28 12.88Q21.74 12.53 21.20 12.40Q20.66 12.26 20.30 12.26L20.30 12.26Q19.49 12.65 18.88 13.55Q18.26 14.45 18.07 15.65ZM30.53 22.27L28.51 22.27L28.51 5.88L30.53 5.88L30.53 22.27ZM36.14 22.27L34.13 22.27L34.13 5.88L36.14 5.88L36.14 22.27ZM43.78 22.56L43.78 22.56Q42.29 22.56 41.10 21.94Q39.91 21.31 39.24 20.11Q38.57 18.91 38.57 17.18L38.57 17.18Q38.57 15.19 39.34 13.85Q40.10 12.50 41.35 11.82Q42.60 11.14 44.02 11.14L44.02 11.14Q45.14 11.14 46.07 11.72Q46.99 12.31 47.56 13.48Q48.12 14.64 48.12 16.37L48.12 16.37L40.46 16.37Q40.46 18.24 41.05 19.31Q41.64 20.38 42.59 20.81Q43.54 21.24 44.57 21.24L44.57 21.24Q45.50 21.24 46.22 21.05Q46.94 20.86 47.54 20.59L47.54 20.59L47.54 21.43Q46.80 21.86 45.84 22.21Q44.88 22.56 43.78 22.56ZM40.56 15.65L40.56 15.65L46.18 15.65Q46.10 14.57 45.71 13.90Q45.31 13.22 44.77 12.88Q44.23 12.53 43.69 12.40Q43.15 12.26 42.79 12.26L42.79 12.26Q41.98 12.65 41.36 13.55Q40.75 14.45 40.56 15.65ZM59.18 22.27L50.28 22.27L50.28 21.55L56.69 12.22L50.78 12.43L50.54 11.42L58.87 11.42L58.87 12.10L52.49 21.41L58.94 21.14L59.18 22.27ZM69.91 21.67L68.66 22.58L66.72 20.83Q65.86 21.62 65.03 22.09Q64.20 22.56 63.22 22.56L63.22 22.56Q62.23 22.56 61.44 21.91Q60.65 21.26 60.65 20.06L60.65 20.06Q60.65 19.13 61.27 18.49Q61.90 17.86 62.86 17.47Q63.82 17.09 64.85 16.90Q65.88 16.70 66.70 16.66L66.70 16.66L66.70 14.40Q66.70 12.41 64.39 12.41L64.39 12.41Q63.79 12.41 63.01 12.54Q62.23 12.67 61.27 12.98L61.27 12.98L61.06 12.38Q61.32 12.17 61.94 11.88Q62.57 11.59 63.38 11.36Q64.20 11.14 65.04 11.14L65.04 11.14Q66.41 11.14 67.15 11.53Q67.90 11.93 68.21 12.54Q68.52 13.15 68.59 13.81Q68.66 14.47 68.66 15.00L68.66 15.00L68.66 19.08Q68.66 19.90 68.89 20.42Q69.12 20.95 69.42 21.24Q69.72 21.53 69.91 21.67L69.91 21.67ZM64.13 21.46L64.13 21.46Q64.70 21.34 65.29 20.99Q65.88 20.64 66.29 20.27Q66.70 19.90 66.70 19.73L66.70 19.73L66.70 17.26Q64.90 17.38 63.83 18.04Q62.76 18.70 62.76 19.44L62.76 19.44Q62.76 20.18 63.16 20.72Q63.55 21.26 64.13 21.46ZM85.39 24.67L83.38 24.67L83.38 20.62L76.49 20.62L76.49 19.58L83.38 8.78L85.39 8.78L85.39 19.10L88.13 19.10L88.13 20.62L85.39 20.62L85.39 24.67ZM83.38 10.30L77.88 19.10L83.38 19.10L83.38 10.30ZM94.01 22.56L94.01 22.56Q92.66 22.56 91.55 21.78Q90.43 21.00 89.78 19.49Q89.14 17.98 89.14 15.82L89.14 15.82Q89.14 13.70 89.69 12.28Q90.24 10.85 91.12 10.01Q91.99 9.17 93 8.80Q94.01 8.42 94.94 8.42L94.94 8.42Q96.31 8.42 97.42 9.17Q98.52 9.91 99.18 11.39Q99.84 12.86 99.84 15.05L99.84 15.05Q99.84 17.16 99.29 18.60Q98.74 20.04 97.86 20.92Q96.98 21.79 95.96 22.18Q94.94 22.56 94.01 22.56ZM94.42 21.43L94.42 21.43Q96 21.43 96.80 19.92Q97.61 18.41 97.61 15.48L97.61 15.48Q97.61 13.82 97.18 12.50Q96.74 11.18 96.02 10.42Q95.30 9.65 94.42 9.65L94.42 9.65Q92.88 9.65 92.06 11.20Q91.25 12.74 91.25 15.48L91.25 15.48Q91.25 17.11 91.68 18.47Q92.11 19.82 92.83 20.63Q93.55 21.43 94.42 21.43ZM106.01 22.56L106.01 22.56Q104.66 22.56 103.55 21.78Q102.43 21.00 101.78 19.49Q101.14 17.98 101.14 15.82L101.14 15.82Q101.14 13.70 101.69 12.28Q102.24 10.85 103.12 10.01Q103.99 9.17 105 8.80Q106.01 8.42 106.94 8.42L106.94 8.42Q108.31 8.42 109.42 9.17Q110.52 9.91 111.18 11.39Q111.84 12.86 111.84 15.05L111.84 15.05Q111.84 17.16 111.29 18.60Q110.74 20.04 109.86 20.92Q108.98 21.79 107.96 22.18Q106.94 22.56 106.01 22.56ZM106.42 21.43L106.42 21.43Q108 21.43 108.80 19.92Q109.61 18.41 109.61 15.48L109.61 15.48Q109.61 13.82 109.18 12.50Q108.74 11.18 108.02 10.42Q107.30 9.65 106.42 9.65L106.42 9.65Q104.88 9.65 104.06 11.20Q103.25 12.74 103.25 15.48L103.25 15.48Q103.25 17.11 103.68 18.47Q104.11 19.82 104.83 20.63Q105.55 21.43 106.42 21.43ZM122.47 22.27L120.43 22.27L120.43 14.74Q120.43 13.90 120.20 13.38Q119.98 12.86 119.69 12.56Q119.40 12.26 119.21 12.12L119.21 12.12L120.43 11.21L122.40 12.96Q123.29 12.12 124.07 11.63Q124.85 11.14 125.90 11.14L125.90 11.14Q126.46 11.14 127.12 11.42Q127.78 11.71 128.26 12.49Q128.74 13.27 128.74 14.76L128.74 14.76L128.74 22.27L126.70 22.27L126.70 15.00Q126.70 13.87 126.30 13.26Q125.90 12.65 124.85 12.65L124.85 12.65Q123.82 12.65 122.47 13.99L122.47 13.99L122.47 22.27ZM136.01 22.56L136.01 22.56Q134.66 22.56 133.56 21.94Q132.46 21.31 131.81 20.10Q131.16 18.89 131.16 17.16L131.16 17.16Q131.16 15.46 131.70 14.30Q132.24 13.15 133.12 12.46Q133.99 11.76 135 11.45Q136.01 11.14 136.94 11.14L136.94 11.14Q138.31 11.14 139.42 11.76Q140.52 12.38 141.17 13.58Q141.82 14.78 141.82 16.54L141.82 16.54Q141.82 18.24 141.26 19.39Q140.71 20.54 139.84 21.24Q138.96 21.94 137.95 22.25Q136.94 22.56 136.01 22.56ZM136.46 21.74L136.46 21.74Q137.30 21.74 137.90 21.29Q138.50 20.83 138.88 20.10Q139.25 19.37 139.43 18.53Q139.61 17.69 139.61 16.90L139.61 16.90Q139.61 15.58 139.28 14.48Q138.96 13.39 138.20 12.72Q137.45 12.05 136.13 12.05L136.13 12.05Q134.69 12.60 134.02 13.97Q133.34 15.34 133.34 16.90L133.34 16.90Q133.34 18.17 133.66 19.28Q133.97 20.40 134.65 21.07Q135.34 21.74 136.46 21.74ZM146.06 22.27L144.05 22.27L144.05 11.42L145.44 11.42L145.99 13.44Q146.30 12.91 146.87 12.38Q147.43 11.86 148.16 11.46Q148.90 11.06 149.66 10.94L149.66 10.94L149.90 12.60Q149.28 12.60 148.56 12.86Q147.84 13.13 147.18 13.54Q146.52 13.94 146.06 14.38L146.06 14.38L146.06 22.27ZM154.15 22.27L152.14 22.27L152.14 14.74Q152.14 13.90 151.91 13.38Q151.68 12.86 151.39 12.56Q151.10 12.26 150.91 12.12L150.91 12.12L152.14 11.21L154.06 12.96Q155.09 12.10 155.95 11.62Q156.82 11.14 157.78 11.14L157.78 11.14Q158.98 11.14 159.58 11.72Q160.18 12.31 160.37 13.08L160.37 13.08Q160.63 12.79 161.17 12.32Q161.71 11.86 162.50 11.50Q163.30 11.14 164.26 11.14L164.26 11.14Q165.19 11.14 165.76 11.54Q166.32 11.95 166.61 12.61Q166.90 13.27 166.99 14.02Q167.09 14.76 167.09 15.43L167.09 15.43L167.09 22.27L165.07 22.27L165.07 15.24Q165.07 14.62 164.99 14.00Q164.90 13.39 164.54 12.98Q164.18 12.58 163.30 12.58L163.30 12.58Q162.55 12.58 161.76 13.00Q160.97 13.42 160.63 13.94L160.63 13.94L160.63 22.27L158.59 22.27L158.59 15.12Q158.59 13.92 158.23 13.25Q157.87 12.58 156.94 12.58L156.94 12.58Q156.29 12.58 155.64 12.90Q154.99 13.22 154.57 13.57Q154.15 13.92 154.15 13.99L154.15 13.99L154.15 22.27ZM178.87 21.67L177.62 22.58L175.68 20.83Q174.82 21.62 173.99 22.09Q173.16 22.56 172.18 22.56L172.18 22.56Q171.19 22.56 170.40 21.91Q169.61 21.26 169.61 20.06L169.61 20.06Q169.61 19.13 170.23 18.49Q170.86 17.86 171.82 17.47Q172.78 17.09 173.81 16.90Q174.84 16.70 175.66 16.66L175.66 16.66L175.66 14.40Q175.66 12.41 173.35 12.41L173.35 12.41Q172.75 12.41 171.97 12.54Q171.19 12.67 170.23 12.98L170.23 12.98L170.02 12.38Q170.28 12.17 170.90 11.88Q171.53 11.59 172.34 11.36Q173.16 11.14 174 11.14L174 11.14Q175.37 11.14 176.11 11.53Q176.86 11.93 177.17 12.54Q177.48 13.15 177.55 13.81Q177.62 14.47 177.62 15.00L177.62 15.00L177.62 19.08Q177.62 19.90 177.85 20.42Q178.08 20.95 178.38 21.24Q178.68 21.53 178.87 21.67L178.87 21.67ZM173.09 21.46L173.09 21.46Q173.66 21.34 174.25 20.99Q174.84 20.64 175.25 20.27Q175.66 19.90 175.66 19.73L175.66 19.73L175.66 17.26Q173.86 17.38 172.79 18.04Q171.72 18.70 171.72 19.44L171.72 19.44Q171.72 20.18 172.12 20.72Q172.51 21.26 173.09 21.46ZM183.29 22.27L181.27 22.27L181.27 5.88L183.29 5.88L183.29 22.27Z"/></svg>