<svg xmlns="http://www.w3.org/2000/svg" xmlns:xlink="http://www.w3.org/1999/xlink" width="359.9999999999999" height="31.68"><path fill="black" d="M6.48 24.74L6.48 24.74Q3.82 24.74 2.27 23.27Q0.72 21.79 0.72 19.30L0.72 19.30L3.72 19.30Q3.72 20.62 4.46 21.36Q5.21 22.10 6.48 22.10L6.48 22.10Q7.75 22.10 8.50 21.37Q9.24 20.64 9.24 19.32L9.24 19.32L9.24 9.74L5.16 9.74L5.16 6.96L12.24 6.96L12.24 19.32Q12.24 21.84 10.69 23.29Q9.14 24.74 6.48 24.74ZM21.62 24.72L21.62 24.72Q19.94 24.72 18.70 24.07Q17.45 23.42 16.76 22.26Q16.08 21.10 16.08 19.54L16.08 19.54L16.08 16.22Q16.08 14.66 16.76 13.50Q17.45 12.34 18.70 11.69Q19.94 11.04 21.62 11.04L21.62 11.04Q23.28 11.04 24.52 11.69Q25.75 12.34 26.44 13.50Q27.12 14.66 27.12 16.22L27.12 16.22L27.12 18.60L18.98 18.60L18.98 19.54Q18.98 20.93 19.66 21.64Q20.33 22.34 21.65 22.34L21.65 22.34Q22.66 22.34 23.28 22.00Q23.90 21.65 24.07 20.98L24.07 20.98L27.02 20.98Q26.69 22.68 25.21 23.70Q23.74 24.72 21.62 24.72ZM24.43 16.68L24.22 16.92L24.22 16.20Q24.22 14.83 23.57 14.10Q22.92 13.37 21.62 13.37L21.62 13.37Q20.33 13.37 19.66 14.11Q18.98 14.86 18.98 16.22L18.98 16.22L18.98 16.73L24.43 16.68ZM41.26 24.48L37.44 24.48Q35.54 24.48 34.48 23.42Q33.41 22.37 33.41 20.52L33.41 20.52L33.41 13.99L29.83 13.99L29.83 11.28L33.41 11.28L33.41 7.56L36.43 7.56L36.43 11.28L41.50 11.28L41.50 13.99L36.43 13.99L36.43 20.52Q36.43 21.77 37.66 21.77L37.66 21.77L41.26 21.77L41.26 24.48ZM50.69 24.48L45.05 24.48L45.05 6.96L50.42 6.96Q52.97 6.96 54.46 8.17Q55.94 9.38 55.94 11.47L55.94 11.47Q55.94 12.65 55.42 13.51Q54.89 14.38 53.99 14.86Q53.09 15.34 51.91 15.34L51.91 15.34L51.91 15.24Q53.18 15.22 54.18 15.71Q55.18 16.20 55.76 17.16Q56.35 18.12 56.35 19.49L56.35 19.49Q56.35 21 55.66 22.13Q54.96 23.26 53.70 23.87Q52.44 24.48 50.69 24.48L50.69 24.48ZM47.98 16.61L47.98 21.98L50.50 21.98Q51.82 21.98 52.57 21.28Q53.33 20.57 53.33 19.34L53.33 19.34Q53.33 18.12 52.57 17.36Q51.82 16.61 50.50 16.61L50.50 16.61L47.98 16.61ZM47.98 9.46L47.98 14.18L50.38 14.18Q51.58 14.18 52.26 13.55Q52.94 12.91 52.94 11.81L52.94 11.81Q52.94 10.70 52.26 10.08Q51.58 9.46 50.38 9.46L50.38 9.46L47.98 9.46ZM62.86 24.48L59.86 24.48L59.86 11.28L62.69 11.28L62.69 13.80L63.43 13.80L62.54 15.34Q62.54 13.20 63.50 12.12Q64.46 11.04 66.34 11.04L66.34 11.04Q68.47 11.04 69.70 12.36Q70.92 13.68 70.92 16.01L70.92 16.01L70.92 16.97L67.78 16.97L67.78 16.22Q67.78 14.95 67.12 14.26Q66.46 13.56 65.30 13.56L65.30 13.56Q64.13 13.56 63.49 14.26Q62.86 14.95 62.86 16.22L62.86 16.22L62.86 24.48ZM77.74 24.72L77.74 24.72Q75.70 24.72 74.52 23.64Q73.34 22.56 73.34 20.74L73.34 20.74Q73.34 18.79 74.64 17.74Q75.94 16.68 78.31 16.68L78.31 16.68L81.60 16.68L81.60 15.55Q81.60 14.59 80.98 14.05Q80.35 13.51 79.27 13.51L79.27 13.51Q78.29 13.51 77.64 13.94Q76.99 14.38 76.87 15.12L76.87 15.12L73.94 15.12Q74.16 13.25 75.62 12.14Q77.09 11.04 79.37 11.04L79.37 11.04Q81.79 11.04 83.20 12.25Q84.60 13.46 84.60 15.53L84.60 15.53L84.60 24.48L81.70 24.48L81.70 22.18L81.22 22.18L81.70 21.53Q81.70 22.99 80.62 23.86Q79.54 24.72 77.74 24.72ZM78.72 22.46L78.72 22.46Q79.99 22.46 80.80 21.82Q81.60 21.17 81.60 20.14L81.60 20.14L81.60 18.53L78.36 18.53Q77.45 18.53 76.90 19.06Q76.34 19.58 76.34 20.45L76.34 20.45Q76.34 21.38 76.98 21.92Q77.62 22.46 78.72 22.46ZM99.79 24.48L88.22 24.48L88.22 21.74L92.83 21.74L92.83 13.99L88.82 13.99L88.82 11.28L95.71 11.28L95.71 21.74L99.79 21.74L99.79 24.48ZM94.03 9.07L94.03 9.07Q93.12 9.07 92.59 8.60Q92.06 8.14 92.06 7.34L92.06 7.34Q92.06 6.55 92.59 6.08Q93.12 5.62 94.03 5.62L94.03 5.62Q94.94 5.62 95.47 6.08Q96 6.55 96 7.34L96 7.34Q96 8.14 95.47 8.60Q94.94 9.07 94.03 9.07ZM105.65 24.48L102.65 24.48L102.65 11.28L105.58 11.28L105.58 13.80L106.39 13.80L105.58 14.50Q105.58 12.86 106.52 11.95Q107.47 11.04 109.13 11.04L109.13 11.04Q111.07 11.04 112.24 12.34Q113.40 13.63 113.40 15.82L113.40 15.82L113.40 24.48L110.40 24.48L110.40 16.13Q110.40 14.93 109.78 14.28Q109.15 13.63 108.02 13.63L108.02 13.63Q106.92 13.63 106.28 14.30Q105.65 14.98 105.65 16.22L105.65 16.22L105.65 24.48ZM122.95 24.70L121.90 24.70Q120.38 24.70 119.26 24.22Q118.13 23.74 117.49 22.88Q116.86 22.03 116.81 20.88L116.81 20.88L119.81 20.88Q119.86 21.50 120.42 21.89Q120.98 22.27 121.90 22.27L121.90 22.27L122.95 22.27Q124.06 22.27 124.61 21.84Q125.16 21.41 125.16 20.66L125.16 20.66Q125.16 19.97 124.67 19.57Q124.18 19.18 123.14 19.06L123.14 19.06L121.51 18.82Q119.26 18.50 118.20 17.62Q117.14 16.73 117.14 14.95L117.14 14.95Q117.14 13.10 118.39 12.08Q119.64 11.06 122.06 11.06L122.06 11.06L122.98 11.06Q125.18 11.06 126.50 12.05Q127.82 13.03 127.92 14.69L127.92 14.69L124.92 14.69Q124.85 14.16 124.33 13.82Q123.82 13.49 122.98 13.49L122.98 13.49L122.06 13.49Q121.03 13.49 120.56 13.86Q120.10 14.23 120.10 14.95L120.10 14.95Q120.10 15.62 120.50 15.95Q120.91 16.27 121.82 16.42L121.82 16.42L123.53 16.66Q125.88 16.99 127.00 17.92Q128.11 18.84 128.11 20.64L128.11 20.64Q128.11 22.56 126.80 23.63Q125.50 24.70 122.95 24.70L122.95 24.70ZM148.15 24.48L145.34 24.48L145.34 6.96L148.90 6.96L150.60 12.53Q150.86 13.37 151.03 14.06Q151.20 14.76 151.25 15.07L151.25 15.07Q151.30 14.76 151.46 14.06Q151.63 13.37 151.87 12.53L151.87 12.53L153.50 6.96L157.06 6.96L157.06 24.48L154.25 24.48L154.25 19.03Q154.25 17.83 154.32 16.42Q154.39 15 154.49 13.58Q154.58 12.17 154.72 10.90Q154.85 9.62 154.94 8.66L154.94 8.66L152.59 16.94L149.86 16.94L147.43 8.66Q147.55 9.58 147.67 10.81Q147.79 12.05 147.90 13.45Q148.01 14.86 148.08 16.30Q148.15 17.74 148.15 19.03L148.15 19.03L148.15 24.48ZM165.60 24.70L165.60 24.70Q163.92 24.70 162.68 24.06Q161.45 23.42 160.76 22.26Q160.08 21.10 160.08 19.51L160.08 19.51L160.08 16.25Q160.08 14.66 160.76 13.50Q161.45 12.34 162.68 11.70Q163.92 11.06 165.60 11.06L165.60 11.06Q167.30 11.06 168.53 11.70Q169.75 12.34 170.44 13.50Q171.12 14.66 171.12 16.22L171.12 16.22L171.12 19.51Q171.12 21.10 170.44 22.26Q169.75 23.42 168.53 24.06Q167.30 24.70 165.60 24.70ZM165.60 22.08L165.60 22.08Q166.80 22.08 167.46 21.42Q168.12 20.76 168.12 19.51L168.12 19.51L168.12 16.25Q168.12 14.98 167.46 14.33Q166.80 13.68 165.60 13.68L165.60 13.68Q164.42 13.68 163.75 14.33Q163.08 14.98 163.08 16.25L163.08 16.25L163.08 19.51Q163.08 20.76 163.75 21.42Q164.42 22.08 165.60 22.08ZM177.65 24.48L174.65 24.48L174.65 11.28L177.58 11.28L177.58 13.80L178.39 13.80L177.58 14.50Q177.58 12.86 178.52 11.95Q179.47 11.04 181.13 11.04L181.13 11.04Q183.07 11.04 184.24 12.34Q185.40 13.63 185.40 15.82L185.40 15.82L185.40 24.48L182.40 24.48L182.40 16.13Q182.40 14.93 181.78 14.28Q181.15 13.63 180.02 13.63L180.02 13.63Q178.92 13.63 178.28 14.30Q177.65 14.98 177.65 16.22L177.65 16.22L177.65 24.48ZM194.40 24.70L194.40 24.70Q192.72 24.70 191.48 24.06Q190.25 23.42 189.56 22.26Q188.88 21.10 188.88 19.51L188.88 19.51L188.88 16.25Q188.88 14.66 189.56 13.50Q190.25 12.34 191.48 11.70Q192.72 11.06 194.40 11.06L194.40 11.06Q196.10 11.06 197.33 11.70Q198.55 12.34 199.24 13.50Q199.92 14.66 199.92 16.22L199.92 16.22L199.92 19.51Q199.92 21.10 199.24 22.26Q198.55 23.42 197.33 24.06Q196.10 24.70 194.40 24.70ZM194.40 22.08L194.40 22.08Q195.60 22.08 196.26 21.42Q196.92 20.76 196.92 19.51L196.92 19.51L196.92 16.25Q196.92 14.98 196.26 14.33Q195.60 13.68 194.40 13.68L194.40 13.68Q193.22 13.68 192.55 14.33Q191.88 14.98 191.88 16.25L191.88 16.25L191.88 19.51Q191.88 20.76 192.55 21.42Q193.22 22.08 194.40 22.08ZM222.94 24.48L219.72 24.48L226.06 9.74L220.44 9.74L220.44 12.29L217.44 12.29L217.44 6.96L229.06 6.96L229.06 9.79L222.94 24.48ZM237.60 24.72L237.60 24.72Q235.90 24.72 234.65 24.07Q233.40 23.42 232.72 22.25Q232.03 21.07 232.03 19.49L232.03 19.49L232.03 11.95Q232.03 10.37 232.72 9.19Q233.40 8.02 234.65 7.37Q235.90 6.72 237.60 6.72L237.60 6.72Q239.33 6.72 240.56 7.37Q241.80 8.02 242.48 9.19Q243.17 10.37 243.17 11.95L243.17 11.95L243.17 19.49Q243.17 21.07 242.48 22.25Q241.80 23.42 240.55 24.07Q239.30 24.72 237.60 24.72ZM237.60 22.13L237.60 22.13Q238.85 22.13 239.59 21.41Q240.34 20.69 240.34 19.49L240.34 19.49L240.34 11.95Q240.34 10.75 239.59 10.03Q238.85 9.31 237.60 9.31L237.60 9.31Q236.35 9.31 235.61 10.03Q234.86 10.75 234.86 11.95L234.86 11.95L234.86 19.49Q234.86 20.69 235.61 21.41Q236.35 22.13 237.60 22.13ZM237.60 17.28L237.60 17.28Q236.90 17.28 236.46 16.82Q236.02 16.37 236.02 15.65L236.02 15.65Q236.02 14.93 236.45 14.50Q236.88 14.06 237.60 14.06L237.60 14.06Q238.32 14.06 238.75 14.50Q239.18 14.93 239.18 15.65L239.18 15.65Q239.18 16.37 238.75 16.82Q238.32 17.28 237.60 17.28ZM252.00 24.72L252.00 24.72Q250.30 24.72 249.05 24.07Q247.80 23.42 247.12 22.25Q246.43 21.07 246.43 19.49L246.43 19.49L246.43 11.95Q246.43 10.37 247.12 9.19Q247.80 8.02 249.05 7.37Q250.30 6.72 252.00 6.72L252.00 6.72Q253.73 6.72 254.96 7.37Q256.20 8.02 256.88 9.19Q257.57 10.37 257.57 11.95L257.57 11.95L257.57 19.49Q257.57 21.07 256.88 22.25Q256.20 23.42 254.95 24.07Q253.70 24.72 252.00 24.72ZM252.00 22.13L252.00 22.13Q253.25 22.13 253.99 21.41Q254.74 20.69 254.74 19.49L254.74 19.49L254.74 11.95Q254.74 10.75 253.99 10.03Q253.25 9.31 252.00 9.31L252.00 9.31Q250.75 9.31 250.01 10.03Q249.26 10.75 249.26 11.95L249.26 11.95L249.26 19.49Q249.26 20.69 250.01 21.41Q250.75 22.13 252.00 22.13ZM252.00 17.28L252.00 17.28Q251.30 17.28 250.86 16.82Q250.42 16.37 250.42 15.65L250.42 15.65Q250.42 14.93 250.85 14.50Q251.28 14.06 252.00 14.06L252.00 14.06Q252.72 14.06 253.15 14.50Q253.58 14.93 253.58 15.65L253.58 15.65Q253.58 16.37 253.15 16.82Q252.72 17.28 252.00 17.28ZM278.45 24.48L275.45 24.48L275.45 11.28L278.38 11.28L278.38 13.80L279.19 13.80L278.38 14.50Q278.38 12.86 279.32 11.95Q280.27 11.04 281.93 11.04L281.93 11.04Q283.87 11.04 285.04 12.34Q286.20 13.63 286.20 15.82L286.20 15.82L286.20 24.48L283.20 24.48L283.20 16.13Q283.20 14.93 282.58 14.28Q281.95 13.63 280.82 13.63L280.82 13.63Q279.72 13.63 279.08 14.30Q278.45 14.98 278.45 16.22L278.45 16.22L278.45 24.48ZM295.20 24.70L295.20 24.70Q293.52 24.70 292.28 24.06Q291.05 23.42 290.36 22.26Q289.68 21.10 289.68 19.51L289.68 19.51L289.68 16.25Q289.68 14.66 290.36 13.50Q291.05 12.34 292.28 11.70Q293.52 11.06 295.20 11.06L295.20 11.06Q296.90 11.06 298.13 11.70Q299.35 12.34 300.04 13.50Q300.72 14.66 300.72 16.22L300.72 16.22L300.72 19.51Q300.72 21.10 300.04 22.26Q299.35 23.42 298.13 24.06Q296.90 24.70 295.20 24.70ZM295.20 22.08L295.20 22.08Q296.40 22.08 297.06 21.42Q297.72 20.76 297.72 19.51L297.72 19.51L297.72 16.25Q297.72 14.98 297.06 14.33Q296.40 13.68 295.20 13.68L295.20 13.68Q294.02 13.68 293.35 14.33Q292.68 14.98 292.68 16.25L292.68 16.25L292.68 19.51Q292.68 20.76 293.35 21.42Q294.02 22.08 295.20 22.08ZM307.66 24.48L304.66 24.48L304.66 11.28L307.49 11.28L307.49 13.80L308.23 13.80L307.34 15.34Q307.34 13.20 308.30 12.12Q309.26 11.04 311.14 11.04L311.14 11.04Q313.27 11.04 314.50 12.36Q315.72 13.68 315.72 16.01L315.72 16.01L315.72 16.97L312.58 16.97L312.58 16.22Q312.58 14.95 311.92 14.26Q311.26 13.56 310.10 13.56L310.10 13.56Q308.93 13.56 308.29 14.26Q307.66 14.95 307.66 16.22L307.66 16.22L307.66 24.48ZM320.69 24.48L318.05 24.48L318.05 11.28L320.50 11.28L320.50 13.06L321.00 13.06L320.59 13.49Q320.59 12.38 321.22 11.71Q321.84 11.04 322.82 11.04L322.82 11.04Q323.88 11.04 324.47 11.90Q325.06 12.77 325.06 14.23L325.06 14.23L324.53 13.06L325.34 13.06L325.03 13.49Q325.03 12.38 325.66 11.71Q326.28 11.04 327.31 11.04L327.31 11.04Q328.54 11.04 329.26 11.95Q329.98 12.86 329.98 14.42L329.98 14.42L329.98 24.48L327.34 24.48L327.34 14.54Q327.34 13.90 327.05 13.52Q326.76 13.15 326.21 13.15L326.21 13.15Q325.68 13.15 325.38 13.51Q325.08 13.87 325.08 14.54L325.08 14.54L325.08 24.48L322.92 24.48L322.92 14.54Q322.92 13.87 322.63 13.51Q322.34 13.15 321.79 13.15L321.79 13.15Q321.24 13.15 320.96 13.51Q320.69 13.87 320.69 14.54L320.69 14.54L320.69 24.48ZM336.94 24.72L336.94 24.72Q334.90 24.72 333.72 23.64Q332.54 22.56 332.54 20.74L332.54 20.74Q332.54 18.79 333.84 17.74Q335.14 16.68 337.51 16.68L337.51 16.68L340.80 16.68L340.80 15.55Q340.80 14.59 340.18 14.05Q339.55 13.51 338.47 13.51L338.47 13.51Q337.49 13.51 336.84 13.94Q336.19 14.38 336.07 15.12L336.07 15.12L333.14 15.12Q333.36 13.25 334.82 12.14Q336.29 11.04 338.57 11.04L338.57 11.04Q340.99 11.04 342.40 12.25Q343.80 13.46 343.80 15.53L343.80 15.53L343.80 24.48L340.90 24.48L340.90 22.18L340.42 22.18L340.90 21.53Q340.90 22.99 339.82 23.86Q338.74 24.72 336.94 24.72ZM337.92 22.46L337.92 22.46Q339.19 22.46 340.00 21.82Q340.80 21.17 340.80 20.14L340.80 20.14L340.80 18.53L337.56 18.53Q336.65 18.53 336.10 19.06Q335.54 19.58 335.54 20.45L335.54 20.45Q335.54 21.38 336.18 21.92Q336.82 22.46 337.92 22.46ZM359.02 24.48L354.82 24.48Q353.52 24.48 352.55 23.95Q351.58 23.42 351.02 22.45Q350.47 21.48 350.47 20.21L350.47 20.21L350.47 9.67L346.25 9.67L346.25 6.96L353.47 6.96L353.47 20.21Q353.47 20.93 353.89 21.35Q354.31 21.77 355.03 21.77L355.03 21.77L359.02 21.77L359.02 24.48Z"/></svg>