<svg xmlns="http://www.w3.org/2000/svg" xmlns:xlink="http://www.w3.org/1999/xlink" width="162.375" height="31.0546875"><path fill="black" d="M2.06 27.71L0.41 27.71L3.73 7.09L5.51 7.09L9.18 27.71L7.49 27.71L6.81 23.47L2.68 23.47L2.06 27.71ZM4.65 10.42L2.91 22.17L6.57 22.17L4.68 10.42L4.65 10.42ZM13.21 27.71L11.46 27.71L11.46 10.14L13.21 10.14L13.21 11.86Q13.44 11.11 14.23 10.51Q15.01 9.91 16.04 9.91L16.04 9.91Q17.18 9.91 17.91 10.78Q18.63 11.64 18.63 13.52L18.63 13.52L18.63 27.71L16.89 27.71L16.89 13.38Q16.89 12.30 16.39 11.88Q15.89 11.46 15.19 11.46L15.19 11.46Q14.71 11.46 14.25 11.63Q13.79 11.79 13.50 12.21Q13.21 12.63 13.21 13.42L13.21 13.42L13.21 27.71ZM26.54 27.82L25.32 27.82Q24.20 27.82 23.64 27.57Q23.09 27.32 22.90 26.74Q22.72 26.16 22.72 25.17L22.72 25.17L22.72 11.50L20.96 11.50L20.96 10.14L22.72 10.14L22.72 7.09L24.48 7.09L24.48 10.14L26.55 10.14L26.55 11.50L24.48 11.50L24.48 25.27Q24.48 25.73 24.59 25.96Q24.70 26.19 25.14 26.26Q25.57 26.33 26.54 26.33L26.54 26.33L26.54 27.82ZM32.21 27.93L32.21 27.93Q31.00 27.93 30.29 27.47Q29.59 27.01 29.25 26.17Q28.91 25.34 28.82 24.19Q28.72 23.05 28.72 21.68L28.72 21.68L28.72 15.79Q28.72 14.13 28.94 12.80Q29.16 11.47 29.90 10.70Q30.64 9.93 32.21 9.93L32.21 9.93Q33.40 9.93 34.09 10.37Q34.78 10.82 35.11 11.61Q35.44 12.41 35.53 13.48Q35.63 14.54 35.63 15.79L35.63 15.79L35.63 21.68Q35.63 23.03 35.54 24.16Q35.46 25.30 35.14 26.14Q34.83 26.99 34.14 27.46Q33.45 27.93 32.21 27.93ZM32.21 26.39L32.21 26.39Q32.94 26.39 33.30 25.88Q33.66 25.36 33.77 24.44Q33.88 23.52 33.88 22.29L33.88 22.29L33.88 15.38Q33.88 14.21 33.77 13.34Q33.66 12.46 33.30 11.96Q32.95 11.46 32.21 11.46L32.21 11.46Q31.43 11.46 31.05 11.96Q30.68 12.46 30.57 13.34Q30.47 14.21 30.47 15.38L30.47 15.38L30.47 22.29Q30.47 23.52 30.58 24.44Q30.69 25.36 31.07 25.88Q31.44 26.39 32.21 26.39ZM40.75 27.71L39 27.71L39 10.14L40.75 10.14L40.75 11.86Q40.98 11.11 41.77 10.51Q42.55 9.91 43.58 9.91L43.58 9.91Q44.72 9.91 45.45 10.78Q46.17 11.64 46.17 13.52L46.17 13.52L46.17 27.71L44.43 27.71L44.43 13.38Q44.43 12.30 43.93 11.88Q43.43 11.46 42.73 11.46L42.73 11.46Q42.25 11.46 41.79 11.63Q41.33 11.79 41.04 12.21Q40.75 12.63 40.75 13.42L40.75 13.42L40.75 27.71ZM51.56 27.71L49.80 27.71L49.80 10.14L51.56 10.14L51.56 27.71ZM51.55 8.52L49.80 8.52L49.80 6.82L51.55 6.82L51.55 8.52ZM58.45 27.93L58.45 27.93Q57.23 27.93 56.53 27.47Q55.83 27.01 55.49 26.17Q55.15 25.34 55.05 24.19Q54.96 23.05 54.96 21.68L54.96 21.68L54.96 15.79Q54.96 14.13 55.18 12.80Q55.39 11.47 56.14 10.70Q56.88 9.93 58.45 9.93L58.45 9.93Q59.64 9.93 60.33 10.37Q61.02 10.82 61.35 11.61Q61.68 12.41 61.77 13.48Q61.86 14.54 61.86 15.79L61.86 15.79L61.86 21.68Q61.86 23.03 61.78 24.16Q61.70 25.30 61.38 26.14Q61.07 26.99 60.38 27.46Q59.68 27.93 58.45 27.93ZM58.45 26.39L58.45 26.39Q59.18 26.39 59.54 25.88Q59.89 25.36 60.01 24.44Q60.12 23.52 60.12 22.29L60.12 22.29L60.12 15.38Q60.12 14.21 60.01 13.34Q59.89 12.46 59.54 11.96Q59.19 11.46 58.45 11.46L58.45 11.46Q57.67 11.46 57.29 11.96Q56.92 12.46 56.81 13.34Q56.71 14.21 56.71 15.38L56.71 15.38L56.71 22.29Q56.71 23.52 56.82 24.44Q56.93 25.36 57.30 25.88Q57.68 26.39 58.45 26.39ZM75.29 27.71L73.55 27.71L73.55 9.74Q73.27 10.07 72.71 10.35Q72.16 10.64 71.56 10.81Q70.96 10.98 70.52 10.98L70.52 10.98L70.52 9.89Q71.14 9.80 71.89 9.43Q72.63 9.06 73.28 8.46Q73.92 7.86 74.25 7.09L74.25 7.09L75.29 7.09L75.29 27.71ZM83.37 27.96L83.37 27.96Q82.09 27.96 81.38 27.36Q80.66 26.75 80.37 25.46Q80.07 24.18 80.07 22.15L80.07 22.15L80.07 12.29Q80.07 10.38 80.37 9.18Q80.66 7.97 81.38 7.39Q82.09 6.82 83.37 6.82L83.37 6.82Q84.67 6.82 85.38 7.39Q86.09 7.97 86.36 9.18Q86.63 10.38 86.63 12.29L86.63 12.29L86.63 22.15Q86.63 23.67 86.48 24.77Q86.33 25.88 85.97 26.58Q85.62 27.28 84.98 27.62Q84.34 27.96 83.37 27.96ZM83.33 26.52L83.33 26.52Q83.86 26.52 84.17 26.27Q84.48 26.02 84.63 25.49Q84.79 24.97 84.83 24.16Q84.88 23.34 84.88 22.21L84.88 22.21L84.88 12.16Q84.88 10.80 84.79 9.96Q84.69 9.11 84.36 8.70Q84.04 8.30 83.33 8.30L83.33 8.30Q82.68 8.30 82.35 8.70Q82.02 9.11 81.91 9.96Q81.81 10.80 81.81 12.15L81.81 12.15L81.81 22.21Q81.81 23.34 81.86 24.16Q81.91 24.97 82.07 25.49Q82.23 26.02 82.54 26.27Q82.84 26.52 83.33 26.52ZM93.09 27.96L93.09 27.96Q91.82 27.96 91.10 27.36Q90.39 26.75 90.09 25.46Q89.80 24.18 89.80 22.15L89.80 22.15L89.80 12.29Q89.80 10.38 90.09 9.18Q90.39 7.97 91.10 7.39Q91.82 6.82 93.09 6.82L93.09 6.82Q94.39 6.82 95.10 7.39Q95.81 7.97 96.08 9.18Q96.35 10.38 96.35 12.29L96.35 12.29L96.35 22.15Q96.35 23.67 96.21 24.77Q96.06 25.88 95.70 26.58Q95.34 27.28 94.71 27.62Q94.07 27.96 93.09 27.96ZM93.06 26.52L93.06 26.52Q93.59 26.52 93.90 26.27Q94.21 26.02 94.36 25.49Q94.51 24.97 94.56 24.16Q94.61 23.34 94.61 22.21L94.61 22.21L94.61 12.16Q94.61 10.80 94.51 9.96Q94.42 9.11 94.09 8.70Q93.76 8.30 93.06 8.30L93.06 8.30Q92.40 8.30 92.07 8.70Q91.75 9.11 91.64 9.96Q91.54 10.80 91.54 12.15L91.54 12.15L91.54 22.21Q91.54 23.34 91.59 24.16Q91.64 24.97 91.80 25.49Q91.96 26.02 92.26 26.27Q92.57 26.52 93.06 26.52ZM106.95 27.71L105.20 27.71L105.20 10.14L106.95 10.14L106.95 11.86Q107.18 11.11 107.96 10.51Q108.75 9.91 109.78 9.91L109.78 9.91Q110.92 9.91 111.64 10.78Q112.37 11.64 112.37 13.52L112.37 13.52L112.37 27.71L110.63 27.71L110.63 13.38Q110.63 12.30 110.13 11.88Q109.63 11.46 108.93 11.46L108.93 11.46Q108.45 11.46 107.99 11.63Q107.53 11.79 107.24 12.21Q106.95 12.63 106.95 13.42L106.95 13.42L106.95 27.71ZM119.10 27.93L119.10 27.93Q117.88 27.93 117.18 27.47Q116.47 27.01 116.13 26.17Q115.79 25.34 115.70 24.19Q115.61 23.05 115.61 21.68L115.61 21.68L115.61 15.79Q115.61 14.13 115.82 12.80Q116.04 11.47 116.78 10.70Q117.53 9.93 119.10 9.93L119.10 9.93Q120.28 9.93 120.97 10.37Q121.66 10.82 121.99 11.61Q122.32 12.41 122.41 13.48Q122.51 14.54 122.51 15.79L122.51 15.79L122.51 21.68Q122.51 23.03 122.43 24.16Q122.34 25.30 122.03 26.14Q121.71 26.99 121.02 27.46Q120.33 27.93 119.10 27.93ZM119.10 26.39L119.10 26.39Q119.82 26.39 120.18 25.88Q120.54 25.36 120.65 24.44Q120.76 23.52 120.76 22.29L120.76 22.29L120.76 15.38Q120.76 14.21 120.65 13.34Q120.54 12.46 120.19 11.96Q119.84 11.46 119.10 11.46L119.10 11.46Q118.31 11.46 117.94 11.96Q117.56 12.46 117.46 13.34Q117.35 14.21 117.35 15.38L117.35 15.38L117.35 22.29Q117.35 23.52 117.46 24.44Q117.57 25.36 117.95 25.88Q118.32 26.39 119.10 26.39ZM127.63 27.71L125.88 27.71L125.88 10.14L127.63 10.14L127.63 12.09Q127.93 11.07 128.69 10.50Q129.45 9.93 130.62 9.93L130.62 9.93Q130.64 9.93 130.65 10.15Q130.65 10.37 130.65 10.67Q130.65 10.97 130.65 11.19Q130.65 11.41 130.65 11.41L130.65 11.41Q130.08 11.41 129.56 11.56Q129.05 11.71 128.58 12.07Q128.11 12.43 127.63 13.11L127.63 13.11L127.63 27.71ZM134.72 27.71L132.97 27.71L132.97 10.14L134.72 10.14L134.72 11.88Q134.94 11.13 135.67 10.52Q136.41 9.91 137.40 9.91L137.40 9.91Q138.23 9.91 138.85 10.35Q139.46 10.79 139.76 11.70L139.76 11.70Q140.18 10.91 140.98 10.41Q141.77 9.91 142.73 9.91L142.73 9.91Q143.82 9.91 144.56 10.75Q145.30 11.59 145.30 13.45L145.30 13.45L145.30 27.71L143.54 27.71L143.54 13.35Q143.54 12.30 143.10 11.92Q142.65 11.53 141.94 11.53L141.94 11.53Q140.86 11.53 140.43 11.92Q140.00 12.32 140.00 13.45L140.00 13.45L140.00 27.71L138.26 27.71L138.26 13.35Q138.26 12.27 137.81 11.90Q137.36 11.53 136.66 11.53L136.66 11.53Q135.74 11.53 135.23 12.04Q134.72 12.54 134.72 13.55L134.72 13.55L134.72 27.71ZM151.32 27.84L151.32 27.84Q149.93 27.84 149.23 26.67Q148.52 25.49 148.52 23.30L148.52 23.30L148.52 21.05Q148.52 20.11 148.92 19.45Q149.31 18.80 150.01 18.30Q150.70 17.81 151.63 17.39Q152.57 16.97 153.63 16.51L153.63 16.51L153.63 15.32Q153.63 13.97 153.56 13.12Q153.49 12.27 153.18 11.87Q152.86 11.46 152.11 11.46L152.11 11.46Q151.38 11.46 151.04 11.85Q150.69 12.25 150.59 13.12Q150.49 13.99 150.49 15.43L150.49 15.43L150.49 15.87L148.73 15.87L148.73 15.40Q148.73 14.34 148.81 13.36Q148.89 12.38 149.20 11.60Q149.51 10.83 150.19 10.38Q150.88 9.93 152.11 9.93L152.11 9.93Q153.35 9.93 154.03 10.34Q154.70 10.75 154.99 11.55Q155.27 12.36 155.33 13.55Q155.38 14.73 155.38 16.28L155.38 16.28L155.38 27.71L153.63 27.71L153.63 26.40Q153.56 26.61 153.29 26.96Q153.02 27.30 152.54 27.57Q152.05 27.84 151.32 27.84ZM151.64 26.39L151.64 26.39Q152.33 26.39 152.88 26.00Q153.43 25.61 153.63 25.24L153.63 25.24L153.63 17.91Q152.54 18.40 151.87 18.75Q151.20 19.10 150.85 19.47Q150.50 19.84 150.38 20.37Q150.26 20.91 150.26 21.75L150.26 21.75L150.26 23.14Q150.26 24.90 150.53 25.65Q150.80 26.39 151.64 26.39ZM160.58 27.71L158.82 27.71L158.82 6.82L160.58 6.82L160.58 27.71Z"/></svg>