<svg xmlns="http://www.w3.org/2000/svg" xmlns:xlink="http://www.w3.org/1999/xlink" width="136.992" height="35.52"><path fill="black" d="M7.15 30.34L7.15 30.34Q6.84 30.34 6.49 30.16Q6.14 29.98 5.66 29.57L5.66 29.57Q5.02 28.99 4.15 27.90Q3.29 26.81 2.47 25.27Q1.66 23.74 1.12 21.84Q0.58 19.94 0.58 17.78L0.58 17.78Q0.58 15.38 1.28 13.75Q1.99 12.12 3.20 11.29Q4.42 10.46 5.93 10.46L5.93 10.46Q7.03 10.46 8.03 11.00Q9.02 11.54 9.70 12.88Q10.37 14.21 10.49 16.63L10.49 16.63Q10.56 17.83 10.60 18.44Q10.63 19.06 10.64 19.36Q10.66 19.66 10.64 19.96Q10.63 20.26 10.63 20.83Q10.63 21.41 10.63 22.58L10.63 22.58Q10.63 23.35 10.70 23.82Q10.78 24.29 11.35 24.29L11.35 24.29Q11.98 24.29 12.01 23.82Q12.05 23.35 12.07 22.58L12.07 22.58Q12.07 22.10 12.07 21.68Q12.07 21.26 12.07 20.68Q12.07 20.09 12.10 19.14Q12.12 18.19 12.22 16.68L12.22 16.68Q12.36 14.26 13.03 12.90Q13.70 11.54 14.69 11.00Q15.67 10.46 16.78 10.46L16.78 10.46Q18.29 10.46 19.50 11.29Q20.71 12.12 21.42 13.75Q22.13 15.38 22.13 17.78L22.13 17.78Q22.13 19.94 21.59 21.84Q21.05 23.74 20.23 25.27Q19.42 26.81 18.55 27.90Q17.69 28.99 17.04 29.57L17.04 29.57Q16.58 29.98 16.22 30.16Q15.86 30.34 15.55 30.34L15.55 30.34Q14.88 30.34 14.57 29.71Q14.26 29.09 14.45 28.32L14.45 28.32Q14.50 28.10 14.68 27.50Q14.86 26.90 15.06 26.08Q15.26 25.25 15.41 24.36Q15.55 23.47 15.55 22.68L15.55 22.68Q15.55 21.65 15.29 21.12Q15.02 20.59 14.66 20.59L14.66 20.59Q14.35 20.59 14.17 20.90Q13.99 21.22 13.91 21.65Q13.82 22.08 13.80 22.48Q13.78 22.87 13.78 23.06L13.78 23.06Q13.78 25.73 13.19 26.78Q12.60 27.84 11.35 27.84L11.35 27.84Q10.10 27.84 9.52 26.78Q8.93 25.73 8.93 23.06L8.93 23.06Q8.93 22.87 8.90 22.48Q8.88 22.08 8.80 21.65Q8.71 21.22 8.53 20.90Q8.35 20.59 8.04 20.59L8.04 20.59Q7.68 20.59 7.42 21.12Q7.15 21.65 7.15 22.68L7.15 22.68Q7.15 23.47 7.30 24.36Q7.44 25.25 7.64 26.08Q7.85 26.90 8.03 27.50Q8.21 28.10 8.26 28.32L8.26 28.32Q8.45 29.09 8.14 29.71Q7.82 30.34 7.15 30.34ZM34.51 30.34L34.51 30.34Q33.55 30.34 33 28.87L33 28.87Q32.83 28.46 32.54 28.46L32.54 28.46Q32.30 28.46 32.17 28.60Q32.04 28.73 31.92 28.85L31.92 28.85Q31.32 29.57 30.83 29.95Q30.34 30.34 29.50 30.34L29.50 30.34Q28.32 30.34 27.23 29.65Q26.14 28.97 25.26 27.74Q24.38 26.52 23.88 24.94Q23.38 23.35 23.38 21.55L23.38 21.55Q23.40 19.87 24.04 18.44Q24.67 17.02 25.86 16.14Q27.05 15.26 28.70 15.26L28.70 15.26Q29.90 15.26 30.74 15.79L30.74 15.79Q31.13 16.03 31.39 16.28Q31.66 16.54 31.82 16.80L31.82 16.80Q31.97 17.02 32.08 17.14Q32.18 17.26 32.38 17.26L32.38 17.26Q32.57 17.26 32.66 17.12Q32.76 16.99 32.86 16.82L32.86 16.82Q33.26 16.13 33.80 15.70Q34.34 15.26 35.06 15.26L35.06 15.26Q36.31 15.26 36.84 16.33Q37.37 17.40 37.37 19.39L37.37 19.39Q37.37 20.42 37.24 21.66Q37.10 22.90 36.91 24.13Q36.72 25.37 36.49 26.44Q36.26 27.50 36.05 28.20L36.05 28.20Q35.76 29.14 35.45 29.74Q35.14 30.34 34.51 30.34ZM30.72 27.19L30.72 27.19Q31.51 27.19 31.96 26.66Q32.40 26.14 32.23 24.94L32.23 24.94Q31.94 22.92 30.22 22.92L30.22 22.92Q29.26 22.92 28.78 23.41Q28.30 23.90 28.30 24.55L28.30 24.55Q28.30 25.03 28.55 25.66Q28.80 26.28 29.34 26.74Q29.88 27.19 30.72 27.19ZM44.47 30.34L44.47 30.34Q43.68 30.34 42.85 30.13Q42.02 29.93 41.26 29.33Q40.49 28.73 39.89 27.55Q39.29 26.38 38.93 24.42Q38.57 22.46 38.57 19.56L38.57 19.56Q38.57 16.63 38.92 14.93Q39.26 13.22 40.15 12.49Q41.04 11.76 42.65 11.76L42.65 11.76Q44.52 11.76 45.24 13.13Q45.96 14.50 45.26 16.80L45.26 16.80Q45.10 17.33 45.35 17.66Q45.60 18 46.20 17.90L46.20 17.90Q47.81 17.66 48.56 18.17Q49.32 18.67 49.32 19.61L49.32 19.61Q49.32 20.71 48.62 21.24Q47.93 21.77 46.70 21.46L46.70 21.46Q46.22 21.34 45.74 21.13Q45.26 20.93 44.83 20.84Q44.40 20.76 44.03 20.96Q43.66 21.17 43.39 21.86L43.39 21.86Q43.20 22.37 43.08 23.15Q42.96 23.93 42.98 24.78Q43.01 25.63 43.22 26.38Q43.44 27.12 43.91 27.59Q44.38 28.06 45.17 28.06L45.17 28.06Q45.65 28.06 46.09 27.88Q46.54 27.70 47.06 27.36L47.06 27.36Q47.50 27.07 47.93 27.11Q48.36 27.14 48.65 27.42Q48.94 27.70 48.94 28.15L48.94 28.15Q48.94 28.51 48.67 29.00Q48.41 29.50 47.71 29.83L47.71 29.83Q46.63 30.34 44.47 30.34ZM57.72 30.34L57.72 30.34Q54.02 30.34 52.22 28.30Q50.42 26.26 50.42 22.51L50.42 22.51Q50.42 21.02 50.74 19.72Q51.05 18.41 51.76 17.40Q52.46 16.39 53.65 15.83Q54.84 15.26 56.59 15.26L56.59 15.26Q58.87 15.26 60.42 16.07Q61.97 16.87 62.76 18.25Q63.55 19.63 63.55 21.34L63.55 21.34Q63.55 22.27 63.11 23.21Q62.66 24.14 61.73 24.90Q60.79 25.66 59.36 26.12Q57.94 26.59 55.94 26.59L55.94 26.59Q55.42 26.59 55.22 26.74Q55.03 26.88 55.03 27.14L55.03 27.14Q55.03 27.70 55.51 27.91Q55.99 28.13 56.64 28.13Q57.29 28.13 57.74 28.08L57.74 28.08Q58.30 28.03 58.79 27.86Q59.28 27.70 59.86 27.31L59.86 27.31Q60.26 27.02 60.78 27.10Q61.30 27.17 61.51 27.70L61.51 27.70Q61.78 28.22 61.43 28.86Q61.08 29.50 60.46 29.78L60.46 29.78Q59.93 30.02 59.35 30.18Q58.78 30.34 57.72 30.34ZM56.45 24.46L56.45 24.46Q56.93 24.46 57.30 24.13Q57.67 23.81 57.90 23.36Q58.13 22.92 58.13 22.54L58.13 22.54Q58.13 21.17 56.64 21.17L56.64 21.17Q56.02 21.17 55.68 21.46Q55.34 21.74 55.24 22.19Q55.13 22.63 55.13 23.11L55.13 23.11Q55.13 23.78 55.49 24.12Q55.85 24.46 56.45 24.46ZM74.78 30.34L74.78 30.34Q74.28 30.34 74.03 30Q73.78 29.66 73.69 29.12Q73.61 28.58 73.61 28.01L73.61 28.01Q73.61 27.17 73.57 26.27Q73.54 25.37 73.34 24.61Q73.15 23.86 72.72 23.39Q72.29 22.92 71.50 22.92L71.50 22.92Q70.63 22.92 70.22 23.46Q69.82 24 69.67 24.86Q69.53 25.73 69.46 26.71Q69.38 27.70 69.17 28.56L69.17 28.56Q68.95 29.47 68.65 29.84Q68.35 30.22 68.09 30.28Q67.82 30.34 67.70 30.34L67.70 30.34Q67.20 30.34 66.84 29.78Q66.48 29.23 66.22 28.49L66.22 28.49Q65.98 27.79 65.74 26.69Q65.50 25.58 65.29 24.34Q65.09 23.09 64.96 21.89Q64.82 20.69 64.82 19.78L64.82 19.78Q64.82 17.45 65.68 16.36Q66.53 15.26 67.87 15.26L67.87 15.26Q68.69 15.26 69.38 15.64Q70.08 16.01 70.54 16.73L70.54 16.73Q70.66 16.92 70.76 17.05Q70.87 17.18 71.04 17.18L71.04 17.18Q71.23 17.18 71.38 17.04Q71.52 16.90 71.83 16.61L71.83 16.61Q72.50 15.98 73.12 15.62Q73.73 15.26 74.52 15.26L74.52 15.26Q75.50 15.26 76.32 15.74Q77.14 16.22 77.54 16.85L77.54 16.85Q77.66 17.02 77.76 17.16Q77.86 17.30 78.05 17.30L78.05 17.30Q78.24 17.30 78.38 17.16Q78.53 17.02 78.84 16.73L78.84 16.73Q79.54 16.08 80.16 15.67Q80.78 15.26 81.62 15.26L81.62 15.26Q82.80 15.26 83.82 15.95Q84.84 16.63 85.46 18.07Q86.09 19.51 86.09 21.79L86.09 21.79Q86.09 23.38 85.78 24.90Q85.46 26.42 84.95 27.65Q84.43 28.87 83.82 29.60Q83.21 30.34 82.61 30.34L82.61 30.34Q82.18 30.34 81.92 29.83Q81.67 29.33 81.67 28.01L81.67 28.01Q81.67 27.22 81.64 26.33Q81.60 25.44 81.42 24.67Q81.24 23.90 80.81 23.41Q80.38 22.92 79.61 22.92L79.61 22.92Q78.91 22.92 78.56 23.32Q78.22 23.71 78.07 24.31Q77.93 24.91 77.78 25.54L77.78 25.54Q77.54 26.64 77.12 27.74Q76.70 28.85 76.12 29.59Q75.53 30.34 74.78 30.34ZM98.54 30.34L98.54 30.34Q97.58 30.34 97.03 28.87L97.03 28.87Q96.86 28.46 96.58 28.46L96.58 28.46Q96.34 28.46 96.20 28.60Q96.07 28.73 95.95 28.85L95.95 28.85Q95.35 29.57 94.86 29.95Q94.37 30.34 93.53 30.34L93.53 30.34Q92.35 30.34 91.26 29.65Q90.17 28.97 89.29 27.74Q88.42 26.52 87.91 24.94Q87.41 23.35 87.41 21.55L87.41 21.55Q87.43 19.87 88.07 18.44Q88.70 17.02 89.89 16.14Q91.08 15.26 92.74 15.26L92.74 15.26Q93.94 15.26 94.78 15.79L94.78 15.79Q95.16 16.03 95.42 16.28Q95.69 16.54 95.86 16.80L95.86 16.80Q96.00 17.02 96.11 17.14Q96.22 17.26 96.41 17.26L96.41 17.26Q96.60 17.26 96.70 17.12Q96.79 16.99 96.89 16.82L96.89 16.82Q97.30 16.13 97.84 15.70Q98.38 15.26 99.10 15.26L99.10 15.26Q100.34 15.26 100.87 16.33Q101.40 17.40 101.40 19.39L101.40 19.39Q101.40 20.42 101.27 21.66Q101.14 22.90 100.94 24.13Q100.75 25.37 100.52 26.44Q100.30 27.50 100.08 28.20L100.08 28.20Q99.79 29.14 99.48 29.74Q99.17 30.34 98.54 30.34ZM94.75 27.19L94.75 27.19Q95.54 27.19 95.99 26.66Q96.43 26.14 96.26 24.94L96.26 24.94Q95.98 22.92 94.25 22.92L94.25 22.92Q93.29 22.92 92.81 23.41Q92.33 23.90 92.33 24.55L92.33 24.55Q92.33 25.03 92.58 25.66Q92.83 26.28 93.37 26.74Q93.91 27.19 94.75 27.19ZM108.79 30.34L108.79 30.34Q107.28 30.34 106.42 30.18Q105.55 30.02 104.86 29.71L104.86 29.71Q104.16 29.38 103.90 28.93Q103.63 28.49 103.63 28.15L103.63 28.15Q103.63 27.72 103.91 27.41Q104.18 27.10 104.62 27.02Q105.05 26.95 105.50 27.26L105.50 27.26Q106.46 27.89 107.40 27.96Q108.34 28.03 109.15 28.01L109.15 28.01Q109.87 27.98 110.50 27.72Q111.12 27.46 111.12 26.95L111.12 26.95Q111.12 26.62 110.75 26.51Q110.38 26.40 109.42 26.40L109.42 26.40Q106.25 26.40 104.39 25.20Q102.53 24 102.53 21.31L102.53 21.31Q102.53 19.58 103.33 18.22Q104.14 16.85 105.70 16.06Q107.26 15.26 109.56 15.26L109.56 15.26Q112.15 15.26 113.60 16.33Q115.06 17.40 115.06 19.42L115.06 19.42Q115.06 22.01 112.58 22.01L112.58 22.01Q112.01 22.01 111.28 21.90Q110.54 21.79 109.88 21.68Q109.22 21.58 108.82 21.58L108.82 21.58Q108.19 21.58 107.92 21.86Q107.64 22.15 107.64 22.58L107.64 22.58Q107.64 23.09 108.04 23.34Q108.43 23.59 109.49 23.59L109.49 23.59Q111.82 23.59 112.92 24.46Q114.02 25.32 114.02 26.90L114.02 26.90Q114.02 28.44 112.62 29.39Q111.22 30.34 108.79 30.34ZM119.02 15.60L119.02 15.60Q117.79 15.60 117.05 14.88Q116.30 14.16 116.30 12.96L116.30 12.96Q116.30 11.76 117.05 11.08Q117.79 10.39 119.02 10.39L119.02 10.39Q120.24 10.39 120.98 11.08Q121.73 11.76 121.73 12.96L121.73 12.96Q121.73 14.16 120.98 14.88Q120.24 15.60 119.02 15.60ZM119.02 30.34L119.02 30.34Q118.30 30.34 117.92 29.89Q117.55 29.45 117.29 28.70L117.29 28.70Q117.12 28.20 116.89 27.32Q116.66 26.45 116.44 25.37Q116.21 24.29 116.06 23.18Q115.92 22.08 115.92 21.14L115.92 21.14Q115.92 19.01 116.75 18.04Q117.58 17.06 119.02 17.06L119.02 17.06Q120.46 17.06 121.28 18.04Q122.11 19.01 122.11 21.14L122.11 21.14Q122.11 22.08 121.97 23.18Q121.82 24.29 121.60 25.37Q121.37 26.45 121.14 27.32Q120.91 28.20 120.74 28.70L120.74 28.70Q120.48 29.50 120.10 29.92Q119.71 30.34 119.02 30.34ZM130.63 30.34L130.63 30.34Q126.94 30.34 125.14 28.30Q123.34 26.26 123.34 22.51L123.34 22.51Q123.34 21.02 123.65 19.72Q123.96 18.41 124.67 17.40Q125.38 16.39 126.56 15.83Q127.75 15.26 129.50 15.26L129.50 15.26Q131.78 15.26 133.33 16.07Q134.88 16.87 135.67 18.25Q136.46 19.63 136.46 21.34L136.46 21.34Q136.46 22.27 136.02 23.21Q135.58 24.14 134.64 24.90Q133.70 25.66 132.28 26.12Q130.85 26.59 128.86 26.59L128.86 26.59Q128.33 26.59 128.14 26.74Q127.94 26.88 127.94 27.14L127.94 27.14Q127.94 27.70 128.42 27.91Q128.90 28.13 129.55 28.13Q130.20 28.13 130.66 28.08L130.66 28.08Q131.21 28.03 131.70 27.86Q132.19 27.70 132.77 27.31L132.77 27.31Q133.18 27.02 133.69 27.10Q134.21 27.17 134.42 27.70L134.42 27.70Q134.69 28.22 134.34 28.86Q133.99 29.50 133.37 29.78L133.37 29.78Q132.84 30.02 132.26 30.18Q131.69 30.34 130.63 30.34ZM129.36 24.46L129.36 24.46Q129.84 24.46 130.21 24.13Q130.58 23.81 130.81 23.36Q131.04 22.92 131.04 22.54L131.04 22.54Q131.04 21.17 129.55 21.17L129.55 21.17Q128.93 21.17 128.59 21.46Q128.26 21.74 128.15 22.19Q128.04 22.63 128.04 23.11L128.04 23.11Q128.04 23.78 128.40 24.12Q128.76 24.46 129.36 24.46Z"/></svg>