<svg xmlns="http://www.w3.org/2000/svg" xmlns:xlink="http://www.w3.org/1999/xlink" width="410.0639999999999" height="39.6"><path fill="black" d="M7.30 26.78L1.63 26.78L1.63 26.33L4.20 26.33L4.20 10.49L1.63 10.49L1.63 10.03L7.30 10.03L7.30 10.49L4.73 10.49L4.73 26.33L7.30 26.33L7.30 26.78ZM11.52 26.78L11.52 10.03L17.57 10.03Q19.37 10.03 20.36 11.06Q21.36 12.10 21.36 14.11L21.36 14.11Q21.36 15.70 20.75 16.61Q20.14 17.52 19.01 17.88L19.01 17.88L19.01 17.93Q20.59 18.22 21.36 19.34Q22.13 20.47 22.13 22.25L22.13 22.25Q22.13 24.34 21.07 25.56Q20.02 26.78 17.95 26.78L17.95 26.78L11.52 26.78ZM12.05 18.19L12.05 26.30L17.95 26.30Q18.89 26.30 19.56 26.00Q20.23 25.70 20.68 25.21Q21.12 24.72 21.34 24.08Q21.55 23.45 21.55 22.75L21.55 22.75L21.55 21.74Q21.55 21.07 21.34 20.42Q21.12 19.78 20.68 19.28Q20.23 18.79 19.56 18.49Q18.89 18.19 17.95 18.19L17.95 18.19L12.05 18.19ZM12.05 10.51L12.05 17.71L17.57 17.71Q18.38 17.71 19.00 17.46Q19.61 17.21 20.00 16.78Q20.40 16.34 20.59 15.78Q20.78 15.22 20.78 14.62L20.78 14.62L20.78 13.61Q20.78 13.01 20.59 12.44Q20.40 11.88 20.00 11.45Q19.61 11.02 19.00 10.76Q18.38 10.51 17.57 10.51L17.57 10.51L12.05 10.51ZM39.70 26.78L39.70 10.63L39.62 10.63L33.24 21.12L26.86 10.63L26.78 10.63L26.78 26.78L26.28 26.78L26.28 10.03L27.07 10.03L33.22 20.11L33.29 20.11L39.41 10.03L40.20 10.03L40.20 26.78L39.70 26.78ZM51.58 26.78L51.05 26.78L51.05 10.03L57.48 10.03Q59.54 10.03 60.60 11.26Q61.66 12.48 61.66 14.54L61.66 14.54Q61.66 16.61 60.60 17.83Q59.54 19.06 57.48 19.06L57.48 19.06L51.58 19.06L51.58 26.78ZM51.58 10.51L51.58 18.58L57.48 18.58Q58.42 18.58 59.09 18.28Q59.76 17.98 60.20 17.50Q60.65 17.02 60.86 16.38Q61.08 15.74 61.08 15.05L61.08 15.05L61.08 14.04Q61.08 13.37 60.86 12.72Q60.65 12.07 60.20 11.59Q59.76 11.11 59.09 10.81Q58.42 10.51 57.48 10.51L57.48 10.51L51.58 10.51ZM67.78 26.78L65.93 26.78Q65.23 26.78 65.23 26.09L65.23 26.09L65.23 9.02L65.74 9.02L65.74 26.33L67.78 26.33L67.78 26.78ZM75.26 27.07L75.26 27.07Q72.86 27.07 71.52 25.48Q70.18 23.88 70.18 20.71L70.18 20.71Q70.18 17.57 71.50 15.96Q72.82 14.35 75.17 14.35L75.17 14.35Q76.27 14.35 77.17 14.77Q78.07 15.19 78.72 15.98Q79.37 16.78 79.73 17.89Q80.09 19.01 80.09 20.40L80.09 20.40L80.09 20.64L70.73 20.64L70.73 21.29Q70.73 23.76 71.90 25.19Q73.08 26.62 75.26 26.62L75.26 26.62Q78.34 26.62 79.46 23.64L79.46 23.64L79.90 23.81Q79.34 25.32 78.18 26.20Q77.02 27.07 75.26 27.07ZM75.17 14.81L75.17 14.81Q73.03 14.81 71.88 16.24Q70.73 17.66 70.73 20.14L70.73 20.14L70.73 20.18L79.54 20.18L79.54 20.09Q79.54 18.89 79.22 17.92Q78.91 16.94 78.34 16.25Q77.76 15.55 76.96 15.18Q76.15 14.81 75.17 14.81ZM82.68 26.78L82.10 26.78L86.62 20.66L82.22 14.64L82.80 14.64L86.90 20.28L86.95 20.28L91.06 14.64L91.63 14.64L87.24 20.66L91.75 26.78L91.18 26.78L86.95 21.05L86.90 21.05L82.68 26.78ZM104.86 27.07L104.86 27.07Q103.80 27.07 102.97 26.87Q102.14 26.66 101.46 26.30Q100.78 25.94 100.24 25.44Q99.70 24.94 99.24 24.34L99.24 24.34L99.67 24.02Q100.10 24.60 100.61 25.07Q101.11 25.54 101.74 25.88Q102.36 26.23 103.13 26.41Q103.90 26.59 104.86 26.59L104.86 26.59Q107.04 26.59 108.24 25.57Q109.44 24.55 109.44 22.56L109.44 22.56Q109.44 21.50 109.12 20.81Q108.79 20.11 108.26 19.67Q107.74 19.22 107.03 18.98Q106.32 18.74 105.58 18.60L105.58 18.60L103.90 18.29Q102.62 18.05 101.81 17.63Q100.99 17.21 100.50 16.63Q100.01 16.06 99.82 15.38Q99.62 14.71 99.62 13.97L99.62 13.97Q99.62 11.83 101.02 10.79Q102.41 9.74 104.74 9.74L104.74 9.74Q106.61 9.74 107.80 10.38Q108.98 11.02 109.68 12.02L109.68 12.02L109.25 12.34Q108.53 11.28 107.42 10.75Q106.32 10.22 104.69 10.22L104.69 10.22Q102.55 10.22 101.35 11.15Q100.15 12.07 100.15 13.97L100.15 13.97Q100.15 14.95 100.46 15.61Q100.78 16.27 101.32 16.70Q101.86 17.14 102.55 17.39Q103.25 17.64 104.04 17.78L104.04 17.78L105.72 18.10Q107.02 18.34 107.83 18.78Q108.65 19.22 109.13 19.81Q109.61 20.40 109.79 21.08Q109.97 21.77 109.97 22.51L109.97 22.51Q109.97 24.79 108.59 25.93Q107.21 27.07 104.86 27.07ZM123.34 26.78L121.49 26.78Q120.79 26.78 120.79 26.09L120.79 26.09L120.79 24.94L120.72 24.94Q120.26 25.80 119.34 26.44Q118.42 27.07 116.74 27.07L116.74 27.07Q114.86 27.07 113.84 26.20Q112.82 25.32 112.82 23.66L112.82 23.66Q112.82 22.92 113.05 22.27Q113.28 21.62 113.81 21.17Q114.34 20.71 115.21 20.45Q116.09 20.18 117.38 20.18L117.38 20.18L120.79 20.18L120.79 18.41Q120.79 16.54 119.92 15.67Q119.04 14.81 117.34 14.81L117.34 14.81Q115.97 14.81 115.07 15.35Q114.17 15.89 113.66 17.09L113.66 17.09L113.23 16.90Q113.74 15.72 114.68 15.04Q115.63 14.35 117.34 14.35L117.34 14.35Q119.33 14.35 120.31 15.37Q121.30 16.39 121.30 18.34L121.30 18.34L121.30 26.33L123.34 26.33L123.34 26.78ZM116.74 26.62L116.74 26.62Q117.55 26.62 118.28 26.40Q119.02 26.18 119.57 25.76Q120.12 25.34 120.46 24.71Q120.79 24.07 120.79 23.23L120.79 23.23L120.79 20.62L117.41 20.62Q115.27 20.62 114.32 21.36Q113.38 22.10 113.38 23.30L113.38 23.30L113.38 24.02Q113.38 25.30 114.31 25.96Q115.25 26.62 116.74 26.62ZM126.84 26.78L126.34 26.78L126.34 14.64L126.84 14.64L126.84 16.46L126.91 16.46Q127.22 15.65 128.15 15.00Q129.07 14.35 130.70 14.35L130.70 14.35Q132.74 14.35 133.81 15.53Q134.88 16.70 134.88 18.98L134.88 18.98L134.88 26.78L134.38 26.78L134.38 19.08Q134.38 16.85 133.42 15.83Q132.46 14.81 130.66 14.81L130.66 14.81Q129.91 14.81 129.22 15.01Q128.52 15.22 127.99 15.62Q127.46 16.03 127.15 16.66Q126.84 17.28 126.84 18.10L126.84 18.10L126.84 26.78ZM142.82 27.07L142.82 27.07Q141.36 27.07 140.27 26.56Q139.18 26.04 138.34 24.84L138.34 24.84L138.77 24.55Q139.58 25.68 140.53 26.15Q141.48 26.62 142.82 26.62L142.82 26.62Q144.55 26.62 145.44 25.90Q146.33 25.18 146.33 23.81L146.33 23.81Q146.33 22.44 145.55 21.79Q144.77 21.14 143.26 20.90L143.26 20.90L142.20 20.74Q140.59 20.50 139.67 19.76Q138.74 19.03 138.74 17.45L138.74 17.45Q138.74 16.68 139.04 16.10Q139.34 15.53 139.86 15.13Q140.38 14.74 141.07 14.54Q141.77 14.35 142.58 14.35L142.58 14.35Q143.38 14.35 143.99 14.50Q144.60 14.64 145.08 14.89Q145.56 15.14 145.93 15.46Q146.30 15.77 146.59 16.10L146.59 16.10L146.21 16.44Q145.92 16.13 145.60 15.83Q145.27 15.53 144.85 15.30Q144.43 15.07 143.88 14.94Q143.33 14.81 142.61 14.81L142.61 14.81Q141.10 14.81 140.17 15.47Q139.25 16.13 139.25 17.42L139.25 17.42Q139.25 18.79 139.99 19.39Q140.74 19.99 142.30 20.26L142.30 20.26L143.35 20.42Q144.14 20.54 144.79 20.78Q145.44 21.02 145.88 21.42Q146.33 21.82 146.58 22.40Q146.83 22.99 146.83 23.78L146.83 23.78Q146.83 25.37 145.76 26.22Q144.70 27.07 142.82 27.07ZM166.94 10.51L160.90 10.51L160.90 26.78L160.37 26.78L160.37 10.51L154.32 10.51L154.32 10.03L166.94 10.03L166.94 10.51ZM169.87 26.78L169.87 9.02L170.38 9.02L170.38 16.46L170.45 16.46Q170.76 15.65 171.68 15.00Q172.61 14.35 174.24 14.35L174.24 14.35Q176.28 14.35 177.35 15.53Q178.42 16.70 178.42 18.98L178.42 18.98L178.42 26.78L177.91 26.78L177.91 19.08Q177.91 16.85 176.95 15.83Q175.99 14.81 174.19 14.81L174.19 14.81Q173.45 14.81 172.75 15.01Q172.06 15.22 171.53 15.62Q171 16.03 170.69 16.66Q170.38 17.28 170.38 18.10L170.38 18.10L170.38 26.78L169.87 26.78ZM192.67 26.78L190.82 26.78Q190.13 26.78 190.13 26.09L190.13 26.09L190.13 24.94L190.06 24.94Q189.60 25.80 188.68 26.44Q187.75 27.07 186.07 27.07L186.07 27.07Q184.20 27.07 183.18 26.20Q182.16 25.32 182.16 23.66L182.16 23.66Q182.16 22.92 182.39 22.27Q182.62 21.62 183.14 21.17Q183.67 20.71 184.55 20.45Q185.42 20.18 186.72 20.18L186.72 20.18L190.13 20.18L190.13 18.41Q190.13 16.54 189.25 15.67Q188.38 14.81 186.67 14.81L186.67 14.81Q185.30 14.81 184.40 15.35Q183.50 15.89 183 17.09L183 17.09L182.57 16.90Q183.07 15.72 184.02 15.04Q184.97 14.35 186.67 14.35L186.67 14.35Q188.66 14.35 189.65 15.37Q190.63 16.39 190.63 18.34L190.63 18.34L190.63 26.33L192.67 26.33L192.67 26.78ZM186.07 26.62L186.07 26.62Q186.89 26.62 187.62 26.40Q188.35 26.18 188.90 25.76Q189.46 25.34 189.79 24.71Q190.13 24.07 190.13 23.23L190.13 23.23L190.13 20.62L186.74 20.62Q184.61 20.62 183.66 21.36Q182.71 22.10 182.71 23.30L182.71 23.30L182.71 24.02Q182.71 25.30 183.65 25.96Q184.58 26.62 186.07 26.62ZM195.91 10.63L195.91 10.63Q195.60 10.63 195.48 10.48Q195.36 10.32 195.36 10.13L195.36 10.13L195.36 9.96Q195.36 9.77 195.48 9.61Q195.60 9.46 195.91 9.46L195.91 9.46Q196.22 9.46 196.34 9.61Q196.46 9.77 196.46 9.96L196.46 9.96L196.46 10.13Q196.46 10.32 196.34 10.48Q196.22 10.63 195.91 10.63ZM195.67 26.78L195.67 14.64L196.18 14.64L196.18 26.78L195.67 26.78ZM215.28 26.78L206.95 26.78L206.95 10.03L207.48 10.03L207.48 26.30L215.28 26.30L215.28 26.78ZM222.12 27.07L222.12 27.07Q219.72 27.07 218.40 25.48Q217.08 23.88 217.08 20.71L217.08 20.71Q217.08 17.54 218.40 15.95Q219.72 14.35 222.12 14.35L222.12 14.35Q224.52 14.35 225.84 15.95Q227.16 17.54 227.16 20.71L227.16 20.71Q227.16 23.88 225.84 25.48Q224.52 27.07 222.12 27.07ZM222.12 26.62L222.12 26.62Q224.30 26.62 225.46 25.19Q226.61 23.76 226.61 21.29L226.61 21.29L226.61 20.14Q226.61 17.66 225.46 16.24Q224.30 14.81 222.12 14.81L222.12 14.81Q219.94 14.81 218.78 16.24Q217.63 17.66 217.63 20.14L217.63 20.14L217.63 21.29Q217.63 23.76 218.78 25.19Q219.94 26.62 222.12 26.62ZM235.08 27.07L235.08 27.07Q232.68 27.07 231.36 25.48Q230.04 23.88 230.04 20.71L230.04 20.71Q230.04 17.54 231.36 15.95Q232.68 14.35 235.08 14.35L235.08 14.35Q237.48 14.35 238.80 15.95Q240.12 17.54 240.12 20.71L240.12 20.71Q240.12 23.88 238.80 25.48Q237.48 27.07 235.08 27.07ZM235.08 26.62L235.08 26.62Q237.26 26.62 238.42 25.19Q239.57 23.76 239.57 21.29L239.57 21.29L239.57 20.14Q239.57 17.66 238.42 16.24Q237.26 14.81 235.08 14.81L235.08 14.81Q232.90 14.81 231.74 16.24Q230.59 17.66 230.59 20.14L230.59 20.14L230.59 21.29Q230.59 23.76 231.74 25.19Q232.90 26.62 235.08 26.62ZM244.08 31.58L244.08 14.64L244.58 14.64L244.58 16.51L244.66 16.51Q244.85 16.13 245.18 15.73Q245.52 15.34 246.01 15.04Q246.50 14.74 247.15 14.54Q247.80 14.35 248.59 14.35L248.59 14.35Q250.99 14.35 252.34 15.94Q253.68 17.52 253.68 20.71L253.68 20.71Q253.68 23.90 252.34 25.49Q250.99 27.07 248.59 27.07L248.59 27.07Q247.80 27.07 247.15 26.88Q246.50 26.69 246.01 26.39Q245.52 26.09 245.18 25.70Q244.85 25.32 244.66 24.91L244.66 24.91L244.58 24.91L244.58 31.58L244.08 31.58ZM248.59 26.62L248.59 26.62Q250.78 26.62 251.95 25.19Q253.13 23.76 253.13 21.29L253.13 21.29L253.13 20.14Q253.13 17.66 251.95 16.24Q250.78 14.81 248.59 14.81L248.59 14.81Q247.80 14.81 247.08 15.05Q246.36 15.29 245.80 15.72Q245.23 16.15 244.91 16.75Q244.58 17.35 244.58 18.07L244.58 18.07L244.58 23.35Q244.58 24.07 244.91 24.67Q245.23 25.27 245.80 25.70Q246.36 26.14 247.08 26.38Q247.80 26.62 248.59 26.62ZM261.65 27.07L261.65 27.07Q259.25 27.07 257.90 25.48Q256.56 23.88 256.56 20.71L256.56 20.71Q256.56 17.57 257.88 15.96Q259.20 14.35 261.55 14.35L261.55 14.35Q262.66 14.35 263.56 14.77Q264.46 15.19 265.10 15.98Q265.75 16.78 266.11 17.89Q266.47 19.01 266.47 20.40L266.47 20.40L266.47 20.64L257.11 20.64L257.11 21.29Q257.11 23.76 258.29 25.19Q259.46 26.62 261.65 26.62L261.65 26.62Q264.72 26.62 265.85 23.64L265.85 23.64L266.28 23.81Q265.73 25.32 264.56 26.20Q263.40 27.07 261.65 27.07ZM261.55 14.81L261.55 14.81Q259.42 14.81 258.26 16.24Q257.11 17.66 257.11 20.14L257.11 20.14L257.11 20.18L265.92 20.18L265.92 20.09Q265.92 18.89 265.61 17.92Q265.30 16.94 264.72 16.25Q264.14 15.55 263.34 15.18Q262.54 14.81 261.55 14.81ZM278.45 26.78L278.45 24.91L278.38 24.91Q278.18 25.32 277.85 25.70Q277.51 26.09 277.02 26.39Q276.53 26.69 275.88 26.88Q275.23 27.07 274.44 27.07L274.44 27.07Q272.04 27.07 270.70 25.49Q269.35 23.90 269.35 20.71L269.35 20.71Q269.35 17.52 270.70 15.94Q272.04 14.35 274.44 14.35L274.44 14.35Q275.23 14.35 275.88 14.54Q276.53 14.74 277.02 15.04Q277.51 15.34 277.85 15.73Q278.18 16.13 278.38 16.51L278.38 16.51L278.45 16.51L278.45 9.02L278.95 9.02L278.95 26.78L278.45 26.78ZM274.44 26.62L274.44 26.62Q275.23 26.62 275.95 26.38Q276.67 26.14 277.24 25.70Q277.80 25.27 278.12 24.67Q278.45 24.07 278.45 23.35L278.45 23.35L278.45 18.07Q278.45 17.35 278.12 16.75Q277.80 16.15 277.24 15.72Q276.67 15.29 275.95 15.05Q275.23 14.81 274.44 14.81L274.44 14.81Q272.26 14.81 271.08 16.24Q269.90 17.66 269.90 20.14L269.90 20.14L269.90 21.29Q269.90 23.76 271.08 25.19Q272.26 26.62 274.44 26.62ZM300.22 26.78L289.37 26.78L289.37 26.30L294.62 26.30L294.62 10.42L294.55 10.42L289.37 14.76L289.06 14.38L294.24 10.03L295.15 10.03L295.15 26.30L300.22 26.30L300.22 26.78ZM308.74 27.07L308.74 27.07Q307.42 27.07 306.40 26.58Q305.38 26.09 304.67 25.04Q303.96 24 303.60 22.36Q303.24 20.71 303.24 18.41L303.24 18.41Q303.24 16.10 303.60 14.46Q303.96 12.82 304.67 11.77Q305.38 10.73 306.40 10.24Q307.42 9.74 308.74 9.74L308.74 9.74Q310.06 9.74 311.08 10.24Q312.10 10.73 312.79 11.77Q313.49 12.82 313.86 14.46Q314.23 16.10 314.23 18.41L314.23 18.41Q314.23 20.71 313.86 22.36Q313.49 24 312.79 25.04Q312.10 26.09 311.08 26.58Q310.06 27.07 308.74 27.07ZM308.74 26.59L308.74 26.59Q311.14 26.59 312.40 24.74Q313.66 22.90 313.66 19.18L313.66 19.18L313.66 17.64Q313.66 13.92 312.40 12.07Q311.14 10.22 308.74 10.22L308.74 10.22Q306.34 10.22 305.08 12.07Q303.82 13.92 303.82 17.64L303.82 17.64L303.82 19.18Q303.82 22.90 305.08 24.74Q306.34 26.59 308.74 26.59ZM323.14 27.07L323.14 27.07Q321.82 27.07 320.80 26.58Q319.78 26.09 319.07 25.04Q318.36 24 318.00 22.36Q317.64 20.71 317.64 18.41L317.64 18.41Q317.64 16.10 318.00 14.46Q318.36 12.82 319.07 11.77Q319.78 10.73 320.80 10.24Q321.82 9.74 323.14 9.74L323.14 9.74Q324.46 9.74 325.48 10.24Q326.50 10.73 327.19 11.77Q327.89 12.82 328.26 14.46Q328.63 16.10 328.63 18.41L328.63 18.41Q328.63 20.71 328.26 22.36Q327.89 24 327.19 25.04Q326.50 26.09 325.48 26.58Q324.46 27.07 323.14 27.07ZM323.14 26.59L323.14 26.59Q325.54 26.59 326.80 24.74Q328.06 22.90 328.06 19.18L328.06 19.18L328.06 17.64Q328.06 13.92 326.80 12.07Q325.54 10.22 323.14 10.22L323.14 10.22Q320.74 10.22 319.48 12.07Q318.22 13.92 318.22 17.64L318.22 17.64L318.22 19.18Q318.22 22.90 319.48 24.74Q320.74 26.59 323.14 26.59ZM339.02 26.78L338.52 26.78L338.52 14.64L339.02 14.64L339.02 16.46L339.10 16.46Q339.41 15.65 340.33 15.00Q341.26 14.35 342.89 14.35L342.89 14.35Q344.93 14.35 346.00 15.53Q347.06 16.70 347.06 18.98L347.06 18.98L347.06 26.78L346.56 26.78L346.56 19.08Q346.56 16.85 345.60 15.83Q344.64 14.81 342.84 14.81L342.84 14.81Q342.10 14.81 341.40 15.01Q340.70 15.22 340.18 15.62Q339.65 16.03 339.34 16.66Q339.02 17.28 339.02 18.10L339.02 18.10L339.02 26.78ZM355.82 27.07L355.82 27.07Q353.42 27.07 352.10 25.48Q350.78 23.88 350.78 20.71L350.78 20.71Q350.78 17.54 352.10 15.95Q353.42 14.35 355.82 14.35L355.82 14.35Q358.22 14.35 359.54 15.95Q360.86 17.54 360.86 20.71L360.86 20.71Q360.86 23.88 359.54 25.48Q358.22 27.07 355.82 27.07ZM355.82 26.62L355.82 26.62Q358.01 26.62 359.16 25.19Q360.31 23.76 360.31 21.29L360.31 21.29L360.31 20.14Q360.31 17.66 359.16 16.24Q358.01 14.81 355.82 14.81L355.82 14.81Q353.64 14.81 352.49 16.24Q351.34 17.66 351.34 20.14L351.34 20.14L351.34 21.29Q351.34 23.76 352.49 25.19Q353.64 26.62 355.82 26.62ZM365.33 26.78L364.82 26.78L364.82 14.64L365.33 14.64L365.33 16.73L365.40 16.73Q365.62 16.30 365.92 15.92Q366.22 15.55 366.66 15.26Q367.10 14.98 367.73 14.81Q368.35 14.64 369.19 14.64L369.19 14.64L370.18 14.64L370.18 15.10L369.12 15.10Q368.38 15.10 367.69 15.30Q367.01 15.50 366.48 15.91Q365.95 16.32 365.64 16.94Q365.33 17.57 365.33 18.41L365.33 18.41L365.33 26.78ZM373.51 26.78L373.01 26.78L373.01 14.64L373.51 14.64L373.51 16.46L373.58 16.46Q373.75 16.06 374.04 15.67Q374.33 15.29 374.78 15.00Q375.24 14.71 375.85 14.53Q376.46 14.35 377.26 14.35L377.26 14.35Q378.74 14.35 379.73 15.04Q380.71 15.72 381.07 17.04L381.07 17.04L381.17 17.04Q381.50 15.86 382.48 15.11Q383.45 14.35 385.15 14.35L385.15 14.35Q387.19 14.35 388.25 15.53Q389.30 16.70 389.30 18.98L389.30 18.98L389.30 26.78L388.80 26.78L388.80 19.06Q388.80 16.85 387.85 15.83Q386.90 14.81 385.10 14.81L385.10 14.81Q384.36 14.81 383.69 15.01Q383.02 15.22 382.51 15.64Q382.01 16.06 381.71 16.68Q381.41 17.30 381.41 18.14L381.41 18.14L381.41 26.78L380.90 26.78L380.90 19.06Q380.90 16.85 379.94 15.83Q378.98 14.81 377.21 14.81L377.21 14.81Q376.49 14.81 375.82 15.01Q375.14 15.22 374.63 15.62Q374.11 16.03 373.81 16.66Q373.51 17.28 373.51 18.10L373.51 18.10L373.51 26.78ZM403.56 26.78L401.71 26.78Q401.02 26.78 401.02 26.09L401.02 26.09L401.02 24.94L400.94 24.94Q400.49 25.80 399.56 26.44Q398.64 27.07 396.96 27.07L396.96 27.07Q395.09 27.07 394.07 26.20Q393.05 25.32 393.05 23.66L393.05 23.66Q393.05 22.92 393.28 22.27Q393.50 21.62 394.03 21.17Q394.56 20.71 395.44 20.45Q396.31 20.18 397.61 20.18L397.61 20.18L401.02 20.18L401.02 18.41Q401.02 16.54 400.14 15.67Q399.26 14.81 397.56 14.81L397.56 14.81Q396.19 14.81 395.29 15.35Q394.39 15.89 393.89 17.09L393.89 17.09L393.46 16.90Q393.96 15.72 394.91 15.04Q395.86 14.35 397.56 14.35L397.56 14.35Q399.55 14.35 400.54 15.37Q401.52 16.39 401.52 18.34L401.52 18.34L401.52 26.33L403.56 26.33L403.56 26.78ZM396.96 26.62L396.96 26.62Q397.78 26.62 398.51 26.40Q399.24 26.18 399.79 25.76Q400.34 25.34 400.68 24.71Q401.02 24.07 401.02 23.23L401.02 23.23L401.02 20.62L397.63 20.62Q395.50 20.62 394.55 21.36Q393.60 22.10 393.60 23.30L393.60 23.30L393.60 24.02Q393.60 25.30 394.54 25.96Q395.47 26.62 396.96 26.62ZM409.10 26.78L407.26 26.78Q406.56 26.78 406.56 26.09L406.56 26.09L406.56 9.02L407.06 9.02L407.06 26.33L409.10 26.33L409.10 26.78Z"/></svg>