<svg xmlns="http://www.w3.org/2000/svg" xmlns:xlink="http://www.w3.org/1999/xlink" width="305.49600000000004" height="43.464"><path fill="black" d="M5.74 31.68L1.80 31.68L1.80 15.36L8.06 15.36Q10.78 15.36 12.73 16.74Q14.69 18.12 14.69 21.02L14.69 21.02Q14.69 23.88 12.60 25.25Q10.51 26.62 7.87 26.62L7.87 26.62L5.74 26.62L5.74 31.68ZM7.94 18.50L7.94 18.50L5.74 18.50L5.74 23.47L7.99 23.47Q9.12 23.47 9.86 22.84Q10.61 22.20 10.61 21.10L10.61 21.10Q10.61 19.85 9.90 19.18Q9.19 18.50 7.94 18.50ZM20.71 28.80L20.71 28.80Q21.17 28.80 21.66 28.58Q22.15 28.37 22.61 27.98L22.61 27.98L22.61 26.81L20.90 26.81Q20.35 26.81 20.02 27.13Q19.68 27.46 19.68 27.91L19.68 27.91Q19.68 28.27 19.98 28.54Q20.28 28.80 20.71 28.80ZM21.65 19.66L21.65 19.66Q23.90 19.66 25.22 20.95Q26.54 22.25 26.54 24.34L26.54 24.34L26.54 31.68L24.72 31.68L23.93 30.77Q23.35 31.27 22.49 31.61Q21.62 31.94 20.69 31.94L20.69 31.94Q18.50 31.94 17.44 30.86Q16.37 29.78 16.37 28.03L16.37 28.03Q16.37 26.16 17.62 25.26Q18.86 24.36 20.88 24.36L20.88 24.36L22.58 24.36Q22.51 23.71 22.07 23.35Q21.62 22.99 20.95 22.99L20.95 22.99Q20.28 22.99 19.40 23.21Q18.53 23.42 17.88 23.71L17.88 23.71L16.82 20.76Q17.66 20.33 19.04 19.99Q20.42 19.66 21.65 19.66ZM29.33 15L33.26 14.74L33.26 31.68L29.33 31.68L29.33 15ZM39.98 28.80L39.98 28.80Q40.44 28.80 40.93 28.58Q41.42 28.37 41.88 27.98L41.88 27.98L41.88 26.81L40.18 26.81Q39.62 26.81 39.29 27.13Q38.95 27.46 38.95 27.91L38.95 27.91Q38.95 28.27 39.25 28.54Q39.55 28.80 39.98 28.80ZM40.92 19.66L40.92 19.66Q43.18 19.66 44.50 20.95Q45.82 22.25 45.82 24.34L45.82 24.34L45.82 31.68L43.99 31.68L43.20 30.77Q42.62 31.27 41.76 31.61Q40.90 31.94 39.96 31.94L39.96 31.94Q37.78 31.94 36.71 30.86Q35.64 29.78 35.64 28.03L35.64 28.03Q35.64 26.16 36.89 25.26Q38.14 24.36 40.15 24.36L40.15 24.36L41.86 24.36Q41.78 23.71 41.34 23.35Q40.90 22.99 40.22 22.99L40.22 22.99Q39.55 22.99 38.68 23.21Q37.80 23.42 37.15 23.71L37.15 23.71L36.10 20.76Q36.94 20.33 38.32 19.99Q39.70 19.66 40.92 19.66ZM55.92 19.61L55.92 19.61Q58.34 19.61 59.39 21Q60.43 22.39 60.43 24.46L60.43 24.46L60.43 31.68L56.50 31.68L56.50 24.55Q56.50 23.74 56.05 23.30Q55.61 22.87 54.86 22.87L54.86 22.87Q54.36 22.87 53.69 23.14Q53.02 23.40 52.49 23.71L52.49 23.71L52.49 31.68L48.55 31.68L48.55 20.06L50.54 20.06L51.46 21.14Q52.22 20.59 53.44 20.10Q54.65 19.61 55.92 19.61ZM72.72 20.06L74.71 20.06L74.71 36.67L70.75 36.94L70.75 31.30Q70.18 31.58 69.47 31.76Q68.76 31.94 68.02 31.94L68.02 31.94Q65.30 31.94 63.91 30.20Q62.52 28.46 62.52 25.85L62.52 25.85Q62.52 23.23 63.92 21.42Q65.33 19.61 68.21 19.61L68.21 19.61Q69.17 19.61 70.19 20.02Q71.21 20.42 71.98 21.02L71.98 21.02L72.72 20.06ZM69.02 28.70L69.02 28.70Q69.38 28.70 69.88 28.56Q70.37 28.42 70.75 28.20L70.75 28.20L70.75 23.64Q70.34 23.30 69.79 23.09Q69.24 22.87 68.78 22.87L68.78 22.87Q67.58 22.87 67.09 23.84Q66.60 24.82 66.60 25.80L66.60 25.80Q66.60 26.95 67.16 27.83Q67.73 28.70 69.02 28.70ZM81.91 32.14L81.91 32.14Q79.49 32.14 78.48 30.74Q77.47 29.35 77.47 27.29L77.47 27.29L77.47 20.06L81.43 20.06L81.43 27.19Q81.43 28.01 81.84 28.44Q82.25 28.87 82.99 28.87L82.99 28.87Q83.45 28.87 84.07 28.63Q84.70 28.39 85.22 28.08L85.22 28.08L85.22 20.06L89.18 20.06L89.18 31.68L87.19 31.68L86.28 30.65Q85.54 31.18 84.37 31.66Q83.21 32.14 81.91 32.14ZM96.24 16.30L96.24 16.30Q96.24 17.18 95.59 17.81Q94.94 18.43 94.06 18.43L94.06 18.43Q93.17 18.43 92.54 17.81Q91.92 17.18 91.92 16.30L91.92 16.30Q91.92 15.41 92.54 14.76Q93.17 14.11 94.06 14.11L94.06 14.11Q94.94 14.11 95.59 14.76Q96.24 15.41 96.24 16.30ZM92.09 20.04L96.05 20.04L96.05 31.68L92.09 31.68L92.09 20.04ZM106.34 19.61L106.34 19.61Q108.77 19.61 109.81 21Q110.86 22.39 110.86 24.46L110.86 24.46L110.86 31.68L106.92 31.68L106.92 24.55Q106.92 23.74 106.48 23.30Q106.03 22.87 105.29 22.87L105.29 22.87Q104.78 22.87 104.11 23.14Q103.44 23.40 102.91 23.71L102.91 23.71L102.91 31.68L98.98 31.68L98.98 20.06L100.97 20.06L101.88 21.14Q102.65 20.59 103.86 20.10Q105.07 19.61 106.34 19.61ZM126 31.68L126 31.68L119.30 31.68L119.30 15.36L126 15.36Q129.82 15.36 131.76 17.63Q133.70 19.90 133.70 23.42L133.70 23.42Q133.70 27.22 131.59 29.45Q129.48 31.68 126 31.68ZM125.95 18.53L125.95 18.53L123.24 18.53L123.24 28.54L125.78 28.54Q127.46 28.54 128.54 27.30Q129.62 26.06 129.62 23.42L129.62 23.42Q129.62 21.24 128.70 19.88Q127.78 18.53 125.95 18.53ZM139.87 28.80L139.87 28.80Q140.33 28.80 140.82 28.58Q141.31 28.37 141.77 27.98L141.77 27.98L141.77 26.81L140.06 26.81Q139.51 26.81 139.18 27.13Q138.84 27.46 138.84 27.91L138.84 27.91Q138.84 28.27 139.14 28.54Q139.44 28.80 139.87 28.80ZM140.81 19.66L140.81 19.66Q143.06 19.66 144.38 20.95Q145.70 22.25 145.70 24.34L145.70 24.34L145.70 31.68L143.88 31.68L143.09 30.77Q142.51 31.27 141.65 31.61Q140.78 31.94 139.85 31.94L139.85 31.94Q137.66 31.94 136.60 30.86Q135.53 29.78 135.53 28.03L135.53 28.03Q135.53 26.16 136.78 25.26Q138.02 24.36 140.04 24.36L140.04 24.36L141.74 24.36Q141.67 23.71 141.23 23.35Q140.78 22.99 140.11 22.99L140.11 22.99Q139.44 22.99 138.56 23.21Q137.69 23.42 137.04 23.71L137.04 23.71L135.98 20.76Q136.82 20.33 138.20 19.99Q139.58 19.66 140.81 19.66ZM155.16 20.04L155.16 20.04L155.95 23.21Q155.11 23.21 154.15 23.53Q153.19 23.86 152.38 24.53L152.38 24.53L152.38 31.68L148.42 31.68L148.42 20.06L150.41 20.06L151.46 21.43Q152.18 20.90 153.19 20.47Q154.20 20.04 155.16 20.04ZM157.66 15L161.59 14.74L161.59 23.69Q162.72 22.70 163.87 21.71Q165.02 20.71 166.15 19.70L166.15 19.70Q166.73 20.40 167.32 21.08Q167.90 21.77 168.46 22.44L168.46 22.44L165.24 25.01L169.37 31.68L165.05 31.68L162.48 27.19Q162.26 27.36 162.04 27.55Q161.81 27.74 161.59 27.91L161.59 27.91L161.59 31.68L157.66 31.68L157.66 15ZM183.74 16.44L185.57 19.13Q184.30 19.44 182.92 20.33Q181.54 21.22 180.67 22.49L180.67 22.49Q181.20 22.18 181.79 22.00Q182.38 21.82 182.83 21.82L182.83 21.82Q185.26 21.82 186.84 23.22Q188.42 24.62 188.42 26.64L188.42 26.64Q188.42 28.73 186.86 30.36Q185.30 31.99 182.74 31.99L182.74 31.99Q179.83 31.99 177.85 30.32Q175.87 28.66 175.87 25.32L175.87 25.32Q175.87 22.54 178.09 19.88Q180.31 17.23 183.74 16.44L183.74 16.44ZM182.38 24.58L182.38 24.58Q181.58 24.58 180.91 25.04Q180.24 25.51 179.88 26.04L179.88 26.04Q180.07 27.36 180.78 28.08Q181.49 28.80 182.57 28.80L182.57 28.80Q183.48 28.80 183.98 28.15Q184.49 27.50 184.49 26.76L184.49 26.76Q184.49 25.87 183.95 25.22Q183.41 24.58 182.38 24.58ZM197.04 17.78L197.04 17.78Q199.87 17.78 201.88 19.60Q203.88 21.41 203.88 24.82L203.88 24.82Q203.88 28.15 201.85 30.08Q199.82 32.02 197.02 32.02L197.02 32.02Q194.33 32.02 192.26 30.14Q190.20 28.27 190.20 24.86L190.20 24.86Q190.20 21.53 192.23 19.66Q194.26 17.78 197.04 17.78ZM197.04 28.75L197.04 28.75Q198.22 28.75 199.08 27.72Q199.94 26.69 199.94 24.89L199.94 24.89Q199.94 23.02 199.09 22.02Q198.24 21.02 197.02 21.02L197.02 21.02Q195.86 21.02 195.01 22.01Q194.16 22.99 194.16 24.79L194.16 24.79Q194.16 26.66 195.00 27.71Q195.84 28.75 197.04 28.75ZM212.86 17.78L212.86 17.78Q215.69 17.78 217.69 19.60Q219.70 21.41 219.70 24.82L219.70 24.82Q219.70 28.15 217.67 30.08Q215.64 32.02 212.83 32.02L212.83 32.02Q210.14 32.02 208.08 30.14Q206.02 28.27 206.02 24.86L206.02 24.86Q206.02 21.53 208.04 19.66Q210.07 17.78 212.86 17.78ZM212.86 28.75L212.86 28.75Q214.03 28.75 214.90 27.72Q215.76 26.69 215.76 24.89L215.76 24.89Q215.76 23.02 214.91 22.02Q214.06 21.02 212.83 21.02L212.83 21.02Q211.68 21.02 210.83 22.01Q209.98 22.99 209.98 24.79L209.98 24.79Q209.98 26.66 210.82 27.71Q211.66 28.75 212.86 28.75ZM235.01 19.61L235.01 19.61Q237.43 19.61 238.48 21Q239.52 22.39 239.52 24.46L239.52 24.46L239.52 31.68L235.58 31.68L235.58 24.55Q235.58 23.74 235.14 23.30Q234.70 22.87 233.95 22.87L233.95 22.87Q233.45 22.87 232.78 23.14Q232.10 23.40 231.58 23.71L231.58 23.71L231.58 31.68L227.64 31.68L227.64 20.06L229.63 20.06L230.54 21.14Q231.31 20.59 232.52 20.10Q233.74 19.61 235.01 19.61ZM248.02 19.66L248.02 19.66Q250.92 19.66 252.68 21.29Q254.45 22.92 254.45 25.92L254.45 25.92Q254.45 28.80 252.58 30.37Q250.70 31.94 247.90 31.94L247.90 31.94Q245.11 31.94 243.36 30.38Q241.61 28.82 241.61 25.80L241.61 25.80Q241.61 22.92 243.43 21.29Q245.26 19.66 248.02 19.66ZM247.94 28.70L247.94 28.70Q249.07 28.70 249.72 28.02Q250.37 27.34 250.37 25.92L250.37 25.92Q250.37 24.60 249.78 23.76Q249.19 22.92 248.09 22.92L248.09 22.92Q246.94 22.92 246.31 23.66Q245.69 24.41 245.69 25.80L245.69 25.80Q245.69 27.17 246.26 27.94Q246.84 28.70 247.94 28.70ZM263.45 20.04L263.45 20.04L264.24 23.21Q263.40 23.21 262.44 23.53Q261.48 23.86 260.66 24.53L260.66 24.53L260.66 31.68L256.70 31.68L256.70 20.06L258.70 20.06L259.75 21.43Q260.47 20.90 261.48 20.47Q262.49 20.04 263.45 20.04ZM280.61 19.61L280.61 19.61Q282.91 19.61 283.94 21Q284.98 22.39 284.98 24.46L284.98 24.46L284.98 31.68L281.02 31.68L281.02 24.55Q281.02 23.74 280.62 23.30Q280.22 22.87 279.55 22.87L279.55 22.87Q279.05 22.87 278.44 23.14Q277.82 23.40 277.30 23.74L277.30 23.74Q277.32 23.90 277.33 24.10Q277.34 24.29 277.34 24.46L277.34 24.46L277.34 31.68L273.38 31.68L273.38 24.55Q273.38 23.74 272.99 23.30Q272.59 22.87 271.92 22.87L271.92 22.87Q271.46 22.87 270.91 23.10Q270.36 23.33 269.83 23.62L269.83 23.62L269.83 31.68L265.90 31.68L265.90 20.06L267.89 20.06L268.75 21.07Q269.50 20.54 270.61 20.08Q271.73 19.61 273 19.61L273 19.61Q274.20 19.61 275.04 20.02Q275.88 20.42 276.41 21.10L276.41 21.10Q277.13 20.54 278.26 20.08Q279.38 19.61 280.61 19.61ZM291.43 28.80L291.43 28.80Q291.89 28.80 292.38 28.58Q292.87 28.37 293.33 27.98L293.33 27.98L293.33 26.81L291.62 26.81Q291.07 26.81 290.74 27.13Q290.40 27.46 290.40 27.91L290.40 27.91Q290.40 28.27 290.70 28.54Q291.00 28.80 291.43 28.80ZM292.37 19.66L292.37 19.66Q294.62 19.66 295.94 20.95Q297.26 22.25 297.26 24.34L297.26 24.34L297.26 31.68L295.44 31.68L294.65 30.77Q294.07 31.27 293.21 31.61Q292.34 31.94 291.41 31.94L291.41 31.94Q289.22 31.94 288.16 30.86Q287.09 29.78 287.09 28.03L287.09 28.03Q287.09 26.16 288.34 25.26Q289.58 24.36 291.60 24.36L291.60 24.36L293.30 24.36Q293.23 23.71 292.79 23.35Q292.34 22.99 291.67 22.99L291.67 22.99Q291.00 22.99 290.12 23.21Q289.25 23.42 288.60 23.71L288.60 23.71L287.54 20.76Q288.38 20.33 289.76 19.99Q291.14 19.66 292.37 19.66ZM300.05 15L303.98 14.74L303.98 31.68L300.05 31.68L300.05 15Z"/></svg>