<svg xmlns="http://www.w3.org/2000/svg" xmlns:xlink="http://www.w3.org/1999/xlink" width="249.67200000000003" height="36"><path fill="black" d="M8.81 25.56L7.51 25.80L4.46 9.55L4.90 10.08L2.30 9.24L2.40 8.76L6.79 8.76L9.34 22.68L9.10 22.66L13.15 15.60L12.89 16.37L11.35 9.58L11.86 10.08L9.24 9.24L9.34 8.76L13.56 8.76L14.66 14.23L14.18 14.23L16.80 9.55L17.04 10.06L15.19 9.24L15.29 8.76L19.97 8.76L19.87 9.22L17.57 10.13L18.36 9.58L14.81 15.74L14.86 14.98L16.18 22.97L15.77 22.99L23.62 9.55L23.78 10.08L21.19 9.24L21.29 8.76L27.46 8.76L27.36 9.22L24.34 10.08L25.25 9.55L15.70 25.56L14.50 25.80L13.08 17.16L13.80 17.16L8.81 25.56ZM27.67 25.94L27.67 25.94Q27.22 25.94 26.90 25.80Q26.59 25.66 26.45 25.36Q26.30 25.06 26.30 24.58L26.30 24.58Q26.30 24.41 26.33 24.23Q26.35 24.05 26.38 23.83L26.38 23.83L27.91 16.01Q27.98 15.65 27.98 15.38L27.98 15.38Q27.98 14.52 27.26 14.52L27.26 14.52Q27 14.52 26.60 14.68Q26.21 14.83 25.87 15.07L25.87 15.07L25.51 14.45Q26.30 13.94 27.25 13.63Q28.20 13.32 28.90 13.32L28.90 13.32Q29.38 13.32 29.68 13.46Q29.98 13.61 30.12 13.91Q30.26 14.21 30.26 14.69L30.26 14.69Q30.26 14.86 30.25 15.04Q30.24 15.22 30.19 15.43L30.19 15.43L28.66 23.26Q28.58 23.62 28.58 23.88L28.58 23.88Q28.58 24.74 29.30 24.74L29.30 24.74Q29.57 24.74 29.96 24.59Q30.36 24.43 30.70 24.19L30.70 24.19L31.06 24.82Q30.26 25.32 29.32 25.63Q28.37 25.94 27.67 25.94ZM29.74 11.14L29.74 11.14Q29.09 11.14 28.63 10.68Q28.18 10.22 28.18 9.60L28.18 9.60Q28.18 8.98 28.63 8.52Q29.09 8.06 29.74 8.06L29.74 8.06Q30.36 8.06 30.80 8.52Q31.25 8.98 31.25 9.60L31.25 9.60Q31.25 10.22 30.80 10.68Q30.36 11.14 29.74 11.14ZM35.23 25.92L35.23 25.92Q34.42 25.92 33.94 25.37Q33.46 24.82 33.46 23.90L33.46 23.90Q33.46 23.71 33.48 23.53Q33.50 23.35 33.53 23.18L33.53 23.18L35.23 14.47L33.10 14.47L33.29 13.51L35.40 13.51L35.83 11.23L38.26 9.72L37.51 13.51L40.97 13.51L40.78 14.47L37.32 14.47L35.78 22.34Q35.76 22.56 35.72 22.75Q35.69 22.94 35.69 23.14L35.69 23.14Q35.69 23.64 35.84 24.00Q36 24.36 36.25 24.55Q36.50 24.74 36.79 24.74L36.79 24.74Q37.22 24.74 37.70 24.60Q38.18 24.46 38.66 24.20Q39.14 23.95 39.60 23.62L39.60 23.62L39.94 24.29Q39.48 24.65 38.90 24.95Q38.33 25.25 37.70 25.46Q37.08 25.68 36.44 25.80Q35.81 25.92 35.23 25.92ZM43.49 25.92L43.49 25.92Q42.67 25.92 42.19 25.37Q41.71 24.82 41.71 23.90L41.71 23.90Q41.71 23.71 41.74 23.53Q41.76 23.35 41.78 23.18L41.78 23.18L43.49 14.47L41.35 14.47L41.54 13.51L43.66 13.51L44.09 11.23L46.51 9.72L45.77 13.51L49.22 13.51L49.03 14.47L45.58 14.47L44.04 22.34Q44.02 22.56 43.98 22.75Q43.94 22.94 43.94 23.14L43.94 23.14Q43.94 23.64 44.10 24.00Q44.26 24.36 44.51 24.55Q44.76 24.74 45.05 24.74L45.05 24.74Q45.48 24.74 45.96 24.60Q46.44 24.46 46.92 24.20Q47.40 23.95 47.86 23.62L47.86 23.62L48.19 24.29Q47.74 24.65 47.16 24.95Q46.58 25.25 45.96 25.46Q45.34 25.68 44.70 25.80Q44.06 25.92 43.49 25.92ZM52.56 30.77L52.56 30.77Q52.03 30.77 51.31 30.65Q50.59 30.53 49.87 30.32Q49.15 30.12 48.58 29.86L48.58 29.86L49.15 26.86L50.21 26.86Q50.18 26.98 50.17 27.12Q50.16 27.26 50.16 27.38L50.16 27.38Q50.16 28.10 50.53 28.75Q50.90 29.40 51.59 29.81Q52.27 30.22 53.23 30.22L53.23 30.22Q53.98 30.22 54.67 29.62Q55.37 29.02 55.90 27.97Q56.42 26.93 56.69 25.56L56.69 25.56L56.86 24.65Q56.02 25.18 55.12 25.50Q54.22 25.82 53.50 25.82L53.50 25.82Q52.42 25.82 51.49 25.21Q50.57 24.60 50.00 23.48Q49.44 22.37 49.44 20.88L49.44 20.88Q49.44 20.52 49.48 20.14Q49.51 19.75 49.58 19.37L49.58 19.37Q49.94 17.54 51.08 16.15Q52.22 14.76 53.93 13.97Q55.63 13.18 57.62 13.18L57.62 13.18Q58.30 13.18 58.96 13.37Q59.62 13.56 59.95 13.90L59.95 13.90L60.98 14.52L58.99 24.84Q58.75 26.14 58.32 27.23Q57.89 28.32 57.18 29.11Q56.47 29.90 55.34 30.34Q54.22 30.77 52.56 30.77ZM51.79 20.66L51.79 20.66Q51.79 22.51 52.57 23.63Q53.35 24.74 54.70 24.74L54.70 24.74Q55.15 24.74 55.76 24.47Q56.38 24.19 57.05 23.71L57.05 23.71L58.73 14.95Q58.27 14.59 57.60 14.42Q56.93 14.26 56.42 14.26L56.42 14.26Q55.39 14.26 54.47 14.82Q53.54 15.38 52.91 16.39Q52.27 17.40 52.01 18.70L52.01 18.70Q51.79 19.73 51.79 20.66ZM66.50 25.87L66.50 25.87Q64.94 25.87 63.90 25.10Q62.86 24.34 62.44 22.99Q62.02 21.65 62.35 19.92L62.35 19.92Q62.74 17.95 63.62 16.43Q64.51 14.90 65.81 14.03Q67.10 13.15 68.71 13.15L68.71 13.15Q69.82 13.15 70.60 13.54Q71.38 13.92 71.82 14.51Q72.26 15.10 72.31 15.72L72.31 15.72Q72.41 16.85 71.59 17.59Q70.78 18.34 69.31 18.68Q67.85 19.03 66.02 19.03L66.02 19.03L64.37 19.03L64.87 18.65Q64.49 20.33 64.70 21.64Q64.92 22.94 65.64 23.69Q66.36 24.43 67.51 24.43L67.51 24.43Q68.28 24.43 69.17 24.02Q70.06 23.62 70.87 22.97L70.87 22.97L71.28 23.64Q70.39 24.60 69.11 25.24Q67.82 25.87 66.50 25.87ZM64.85 18.58L64.85 18.58L64.49 18.19L67.03 18.12Q67.80 18.10 68.48 17.96Q69.17 17.83 69.60 17.50Q70.03 17.16 70.06 16.54L70.06 16.54Q70.08 15.96 69.83 15.40Q69.58 14.83 69.16 14.46Q68.74 14.09 68.23 14.09L68.23 14.09Q67.08 14.09 66.12 15.31Q65.16 16.54 64.85 18.58ZM83.30 25.94L83.30 25.94Q82.85 25.94 82.54 25.80Q82.22 25.66 82.08 25.36Q81.94 25.06 81.94 24.58L81.94 24.58Q81.94 24.41 81.96 24.23Q81.98 24.05 82.01 23.83L82.01 23.83L83.28 17.45Q83.33 17.23 83.34 17.03Q83.35 16.82 83.35 16.63L83.35 16.63Q83.35 15.60 82.92 15.01Q82.49 14.42 81.55 14.42L81.55 14.42Q80.83 14.42 79.99 15.02Q79.15 15.62 78.31 16.37L78.31 16.37L76.49 25.56L74.33 25.56L76.22 16.01Q76.30 15.65 76.30 15.38L76.30 15.38Q76.30 14.52 75.58 14.52L75.58 14.52Q75.31 14.52 74.92 14.68Q74.52 14.83 74.18 15.07L74.18 15.07L73.82 14.45Q74.62 13.94 75.56 13.63Q76.51 13.32 77.21 13.32L77.21 13.32Q77.90 13.32 78.24 13.64Q78.58 13.97 78.58 14.66L78.58 14.66Q78.58 14.78 78.56 14.92Q78.55 15.05 78.53 15.19L78.53 15.19Q79.51 14.42 80.58 13.81Q81.65 13.20 82.54 13.20L82.54 13.20Q84.07 13.20 84.85 13.99Q85.63 14.78 85.63 16.06L85.63 16.06Q85.63 16.22 85.62 16.40Q85.61 16.58 85.56 16.78L85.56 16.78L84.29 23.26Q84.22 23.62 84.22 23.88L84.22 23.88Q84.22 24.74 84.94 24.74L84.94 24.74Q85.20 24.74 85.60 24.59Q85.99 24.43 86.33 24.19L86.33 24.19L86.69 24.82Q85.90 25.32 84.95 25.63Q84 25.94 83.30 25.94ZM90.96 25.94L90.96 25.94Q89.93 25.94 88.90 25.61Q87.86 25.27 87.31 24.74L87.31 24.74L88.03 21.98L88.56 21.98L88.90 23.30Q89.14 24.19 89.71 24.71Q90.29 25.22 91.10 25.22L91.10 25.22Q92.02 25.22 92.74 24.84Q93.46 24.46 93.86 23.87Q94.27 23.28 94.27 22.70L94.27 22.70Q94.27 22.27 93.97 21.96Q93.67 21.65 93.18 21.38Q92.69 21.12 92.09 20.88L92.09 20.88Q91.32 20.52 90.53 20.09Q89.74 19.66 89.21 18.98Q88.68 18.31 88.68 17.26L88.68 17.26Q88.68 16.34 89.05 15.59Q89.42 14.83 90.08 14.29Q90.74 13.75 91.61 13.46Q92.47 13.18 93.46 13.18L93.46 13.18Q94.46 13.18 95.34 13.43Q96.22 13.68 96.74 14.02L96.74 14.02L96.17 16.92L95.62 16.92L95.28 15.58Q95.09 14.78 94.56 14.34Q94.03 13.90 93.31 13.90L93.31 13.90Q92.54 13.90 91.90 14.24Q91.25 14.59 90.88 15.12Q90.50 15.65 90.50 16.20L90.50 16.20Q90.50 16.61 90.79 16.92Q91.08 17.23 91.56 17.48Q92.04 17.74 92.59 18L92.59 18Q93.34 18.34 94.09 18.77Q94.85 19.20 95.36 19.87Q95.88 20.54 95.88 21.60L95.88 21.60Q95.88 22.54 95.50 23.34Q95.11 24.14 94.44 24.72Q93.77 25.30 92.87 25.62Q91.97 25.94 90.96 25.94ZM100.25 25.92L100.25 25.92Q99.43 25.92 98.95 25.37Q98.47 24.82 98.47 23.90L98.47 23.90Q98.47 23.71 98.50 23.53Q98.52 23.35 98.54 23.18L98.54 23.18L100.25 14.47L98.11 14.47L98.30 13.51L100.42 13.51L100.85 11.23L103.27 9.72L102.53 13.51L105.98 13.51L105.79 14.47L102.34 14.47L100.80 22.34Q100.78 22.56 100.74 22.75Q100.70 22.94 100.70 23.14L100.70 23.14Q100.70 23.64 100.86 24.00Q101.02 24.36 101.27 24.55Q101.52 24.74 101.81 24.74L101.81 24.74Q102.24 24.74 102.72 24.60Q103.20 24.46 103.68 24.20Q104.16 23.95 104.62 23.62L104.62 23.62L104.95 24.29Q104.50 24.65 103.92 24.95Q103.34 25.25 102.72 25.46Q102.10 25.68 101.46 25.80Q100.82 25.92 100.25 25.92ZM110.38 25.87L110.38 25.87Q108.82 25.87 107.77 25.10Q106.73 24.34 106.31 22.99Q105.89 21.65 106.22 19.92L106.22 19.92Q106.61 17.95 107.50 16.43Q108.38 14.90 109.68 14.03Q110.98 13.15 112.58 13.15L112.58 13.15Q113.69 13.15 114.47 13.54Q115.25 13.92 115.69 14.51Q116.14 15.10 116.18 15.72L116.18 15.72Q116.28 16.85 115.46 17.59Q114.65 18.34 113.18 18.68Q111.72 19.03 109.90 19.03L109.90 19.03L108.24 19.03L108.74 18.65Q108.36 20.33 108.58 21.64Q108.79 22.94 109.51 23.69Q110.23 24.43 111.38 24.43L111.38 24.43Q112.15 24.43 113.04 24.02Q113.93 23.62 114.74 22.97L114.74 22.97L115.15 23.64Q114.26 24.60 112.98 25.24Q111.70 25.87 110.38 25.87ZM108.72 18.58L108.72 18.58L108.36 18.19L110.90 18.12Q111.67 18.10 112.36 17.96Q113.04 17.83 113.47 17.50Q113.90 17.16 113.93 16.54L113.93 16.54Q113.95 15.96 113.70 15.40Q113.45 14.83 113.03 14.46Q112.61 14.09 112.10 14.09L112.10 14.09Q110.95 14.09 109.99 15.31Q109.03 16.54 108.72 18.58ZM120.05 25.94L120.05 25.94Q119.59 25.94 119.28 25.80Q118.97 25.66 118.82 25.36Q118.68 25.06 118.68 24.58L118.68 24.58Q118.68 24.41 118.70 24.23Q118.73 24.05 118.75 23.83L118.75 23.83L120.29 16.01Q120.36 15.65 120.36 15.38L120.36 15.38Q120.36 14.52 119.64 14.52L119.64 14.52Q119.38 14.52 118.98 14.68Q118.58 14.83 118.25 15.07L118.25 15.07L117.89 14.45Q118.68 13.94 119.63 13.63Q120.58 13.32 121.27 13.32L121.27 13.32Q121.75 13.32 122.05 13.46Q122.35 13.61 122.50 13.91Q122.64 14.21 122.64 14.69L122.64 14.69Q122.64 14.86 122.63 15.04Q122.62 15.22 122.57 15.43L122.57 15.43L121.03 23.26Q120.96 23.62 120.96 23.88L120.96 23.88Q120.96 24.74 121.68 24.74L121.68 24.74Q121.94 24.74 122.34 24.59Q122.74 24.43 123.07 24.19L123.07 24.19L123.43 24.82Q122.64 25.32 121.69 25.63Q120.74 25.94 120.05 25.94ZM122.11 11.14L122.11 11.14Q121.46 11.14 121.01 10.68Q120.55 10.22 120.55 9.60L120.55 9.60Q120.55 8.98 121.01 8.52Q121.46 8.06 122.11 8.06L122.11 8.06Q122.74 8.06 123.18 8.52Q123.62 8.98 123.62 9.60L123.62 9.60Q123.62 10.22 123.18 10.68Q122.74 11.14 122.11 11.14ZM134.95 25.94L134.95 25.94Q134.50 25.94 134.18 25.80Q133.87 25.66 133.73 25.36Q133.58 25.06 133.58 24.58L133.58 24.58Q133.58 24.41 133.61 24.23Q133.63 24.05 133.66 23.83L133.66 23.83L134.93 17.45Q134.98 17.23 134.99 17.03Q135 16.82 135 16.63L135 16.63Q135 15.60 134.57 15.01Q134.14 14.42 133.20 14.42L133.20 14.42Q132.48 14.42 131.64 15.02Q130.80 15.62 129.96 16.37L129.96 16.37L128.14 25.56L125.98 25.56L127.87 16.01Q127.94 15.65 127.94 15.38L127.94 15.38Q127.94 14.52 127.22 14.52L127.22 14.52Q126.96 14.52 126.56 14.68Q126.17 14.83 125.83 15.07L125.83 15.07L125.47 14.45Q126.26 13.94 127.21 13.63Q128.16 13.32 128.86 13.32L128.86 13.32Q129.55 13.32 129.89 13.64Q130.22 13.97 130.22 14.66L130.22 14.66Q130.22 14.78 130.21 14.92Q130.20 15.05 130.18 15.19L130.18 15.19Q131.16 14.42 132.23 13.81Q133.30 13.20 134.18 13.20L134.18 13.20Q135.72 13.20 136.50 13.99Q137.28 14.78 137.28 16.06L137.28 16.06Q137.28 16.22 137.27 16.40Q137.26 16.58 137.21 16.78L137.21 16.78L135.94 23.26Q135.86 23.62 135.86 23.88L135.86 23.88Q135.86 24.74 136.58 24.74L136.58 24.74Q136.85 24.74 137.24 24.59Q137.64 24.43 137.98 24.19L137.98 24.19L138.34 24.82Q137.54 25.32 136.60 25.63Q135.65 25.94 134.95 25.94ZM153.72 25.56L151.56 25.56L152.50 20.69L152.86 21.12L145.06 21.12L145.27 20.04L156.38 8.23L156.98 8.81L154.82 19.85L154.49 19.42L157.39 19.42L157.06 21.12L154.15 21.12L154.66 20.69L153.72 25.56ZM154.51 11.74L147.05 19.78L146.95 19.42L153.19 19.42L152.66 19.85L154.25 11.66L154.51 11.74ZM164.88 25.92L164.88 25.92Q163.03 25.92 161.95 24.83Q160.87 23.74 160.60 21.73Q160.32 19.73 160.85 16.99L160.85 16.99Q161.38 14.33 162.42 12.40Q163.46 10.46 164.95 9.41Q166.44 8.35 168.29 8.35L168.29 8.35Q170.11 8.35 171.11 9.37Q172.10 10.39 172.34 12.28Q172.58 14.16 172.08 16.75L172.08 16.75Q171.53 19.56 170.53 21.62Q169.54 23.69 168.12 24.80Q166.70 25.92 164.88 25.92ZM165.34 25.13L165.34 25.13Q166.90 25.13 167.80 23.23Q168.70 21.34 169.44 17.50L169.44 17.50Q170.26 13.30 169.98 11.23Q169.70 9.17 167.83 9.17L167.83 9.17Q166.22 9.17 165.20 10.94Q164.18 12.72 163.49 16.32L163.49 16.32Q162.62 20.74 163.02 22.93Q163.42 25.13 165.34 25.13ZM179.78 25.92L179.78 25.92Q177.94 25.92 176.86 24.83Q175.78 23.74 175.50 21.73Q175.22 19.73 175.75 16.99L175.75 16.99Q176.28 14.33 177.32 12.40Q178.37 10.46 179.86 9.41Q181.34 8.35 183.19 8.35L183.19 8.35Q185.02 8.35 186.01 9.37Q187.01 10.39 187.25 12.28Q187.49 14.16 186.98 16.75L186.98 16.75Q186.43 19.56 185.44 21.62Q184.44 23.69 183.02 24.80Q181.61 25.92 179.78 25.92ZM180.24 25.13L180.24 25.13Q181.80 25.13 182.70 23.23Q183.60 21.34 184.34 17.50L184.34 17.50Q185.16 13.30 184.88 11.23Q184.61 9.17 182.74 9.17L182.74 9.17Q181.13 9.17 180.11 10.94Q179.09 12.72 178.39 16.32L178.39 16.32Q177.53 20.74 177.92 22.93Q178.32 25.13 180.24 25.13ZM197.18 25.94L197.18 25.94Q196.73 25.94 196.42 25.80Q196.10 25.66 195.96 25.36Q195.82 25.06 195.82 24.58L195.82 24.58Q195.82 24.41 195.84 24.23Q195.86 24.05 195.89 23.83L195.89 23.83L197.42 16.01Q197.50 15.65 197.50 15.38L197.50 15.38Q197.50 14.52 196.78 14.52L196.78 14.52Q196.51 14.52 196.12 14.68Q195.72 14.83 195.38 15.07L195.38 15.07L195.02 14.45Q195.82 13.94 196.76 13.63Q197.71 13.32 198.41 13.32L198.41 13.32Q198.89 13.32 199.19 13.46Q199.49 13.61 199.63 13.91Q199.78 14.21 199.78 14.69L199.78 14.69Q199.78 14.86 199.76 15.04Q199.75 15.22 199.70 15.43L199.70 15.43L198.17 23.26Q198.10 23.62 198.10 23.88L198.10 23.88Q198.10 24.74 198.82 24.74L198.82 24.74Q199.08 24.74 199.48 24.59Q199.87 24.43 200.21 24.19L200.21 24.19L200.57 24.82Q199.78 25.32 198.83 25.63Q197.88 25.94 197.18 25.94ZM199.25 11.14L199.25 11.14Q198.60 11.14 198.14 10.68Q197.69 10.22 197.69 9.60L197.69 9.60Q197.69 8.98 198.14 8.52Q198.60 8.06 199.25 8.06L199.25 8.06Q199.87 8.06 200.32 8.52Q200.76 8.98 200.76 9.60L200.76 9.60Q200.76 10.22 200.32 10.68Q199.87 11.14 199.25 11.14ZM204.74 25.92L204.74 25.92Q203.93 25.92 203.45 25.37Q202.97 24.82 202.97 23.90L202.97 23.90Q202.97 23.71 202.99 23.53Q203.02 23.35 203.04 23.18L203.04 23.18L204.74 14.47L202.61 14.47L202.80 13.51L204.91 13.51L205.34 11.23L207.77 9.72L207.02 13.51L210.48 13.51L210.29 14.47L206.83 14.47L205.30 22.34Q205.27 22.56 205.24 22.75Q205.20 22.94 205.20 23.14L205.20 23.14Q205.20 23.64 205.36 24.00Q205.51 24.36 205.76 24.55Q206.02 24.74 206.30 24.74L206.30 24.74Q206.74 24.74 207.22 24.60Q207.70 24.46 208.18 24.20Q208.66 23.95 209.11 23.62L209.11 23.62L209.45 24.29Q208.99 24.65 208.42 24.95Q207.84 25.25 207.22 25.46Q206.59 25.68 205.96 25.80Q205.32 25.92 204.74 25.92ZM219.31 25.94L219.31 25.94Q218.71 25.94 218.33 25.56Q217.94 25.18 217.94 24.58L217.94 24.58Q217.10 25.10 216.14 25.46Q215.18 25.82 214.49 25.82L214.49 25.82Q213.48 25.82 212.69 25.22Q211.90 24.62 211.45 23.58Q211.01 22.54 211.01 21.17L211.01 21.17Q211.01 18.82 211.99 17.02Q212.98 15.22 214.69 14.20Q216.41 13.18 218.64 13.18L218.64 13.18Q219.31 13.18 219.94 13.40Q220.56 13.63 220.97 13.90L220.97 13.90L222 14.52L220.30 23.26Q220.27 23.42 220.25 23.59Q220.22 23.76 220.22 23.88L220.22 23.88Q220.22 24.26 220.43 24.50Q220.63 24.74 220.94 24.74L220.94 24.74Q221.21 24.74 221.59 24.59Q221.98 24.43 222.34 24.19L222.34 24.19L222.70 24.82Q221.93 25.32 220.97 25.63Q220.01 25.94 219.31 25.94ZM215.69 24.74L215.69 24.74Q216.10 24.74 216.77 24.46Q217.44 24.17 218.06 23.71L218.06 23.71L219.67 15.26Q219.22 14.81 218.59 14.53Q217.97 14.26 217.44 14.26L217.44 14.26Q216.55 14.26 215.81 14.60Q215.06 14.95 214.52 15.72Q213.98 16.49 213.68 17.74Q213.38 18.98 213.38 20.78L213.38 20.78Q213.38 22.54 214.03 23.64Q214.68 24.74 215.69 24.74ZM224.59 23.83L224.59 23.83L227.47 9.05Q227.54 8.69 227.54 8.42L227.54 8.42Q227.54 7.56 226.82 7.56L226.82 7.56Q226.56 7.56 226.16 7.72Q225.77 7.87 225.43 8.11L225.43 8.11L225.07 7.49Q225.86 6.98 226.81 6.67Q227.76 6.36 228.46 6.36L228.46 6.36Q228.94 6.36 229.24 6.50Q229.54 6.65 229.68 6.95Q229.82 7.25 229.82 7.73L229.82 7.73Q229.82 7.90 229.81 8.08Q229.80 8.26 229.75 8.47L229.75 8.47L226.87 23.26Q226.80 23.62 226.80 23.88L226.80 23.88Q226.80 24.74 227.52 24.74L227.52 24.74Q227.78 24.74 228.18 24.59Q228.58 24.43 228.91 24.19L228.91 24.19L229.27 24.82Q228.48 25.32 227.53 25.63Q226.58 25.94 225.89 25.94L225.89 25.94Q225.43 25.94 225.12 25.80Q224.81 25.66 224.66 25.36Q224.52 25.06 224.52 24.58L224.52 24.58Q224.52 24.41 224.54 24.23Q224.57 24.05 224.59 23.83ZM233.69 25.94L233.69 25.94Q233.23 25.94 232.92 25.80Q232.61 25.66 232.46 25.36Q232.32 25.06 232.32 24.58L232.32 24.58Q232.32 24.41 232.34 24.23Q232.37 24.05 232.39 23.83L232.39 23.83L233.93 16.01Q234 15.65 234 15.38L234 15.38Q234 14.52 233.28 14.52L233.28 14.52Q233.02 14.52 232.62 14.68Q232.22 14.83 231.89 15.07L231.89 15.07L231.53 14.45Q232.32 13.94 233.27 13.63Q234.22 13.32 234.91 13.32L234.91 13.32Q235.39 13.32 235.69 13.46Q235.99 13.61 236.14 13.91Q236.28 14.21 236.28 14.69L236.28 14.69Q236.28 14.86 236.27 15.04Q236.26 15.22 236.21 15.43L236.21 15.43L234.67 23.26Q234.60 23.62 234.60 23.88L234.60 23.88Q234.60 24.74 235.32 24.74L235.32 24.74Q235.58 24.74 235.98 24.59Q236.38 24.43 236.71 24.19L236.71 24.19L237.07 24.82Q236.28 25.32 235.33 25.63Q234.38 25.94 233.69 25.94ZM235.75 11.14L235.75 11.14Q235.10 11.14 234.65 10.68Q234.19 10.22 234.19 9.60L234.19 9.60Q234.19 8.98 234.65 8.52Q235.10 8.06 235.75 8.06L235.75 8.06Q236.38 8.06 236.82 8.52Q237.26 8.98 237.26 9.60L237.26 9.60Q237.26 10.22 236.82 10.68Q236.38 11.14 235.75 11.14ZM243.22 25.87L243.22 25.87Q241.63 25.87 240.55 25.12Q239.47 24.36 239.05 23.02Q238.63 21.67 238.97 19.94L238.97 19.94Q239.35 17.95 240.34 16.46Q241.32 14.98 242.75 14.11Q244.18 13.25 245.90 13.18L245.90 13.18Q246.38 13.15 246.86 13.26Q247.34 13.37 247.82 13.49L247.82 13.49Q248.23 13.61 248.64 13.70Q249.05 13.80 249.43 13.80L249.43 13.80L248.74 17.42L247.75 17.42Q247.78 16.51 247.50 15.68Q247.22 14.86 246.71 14.34Q246.19 13.82 245.47 13.82L245.47 13.82Q244.54 13.82 243.70 14.46Q242.86 15.10 242.23 16.25Q241.61 17.40 241.32 18.91L241.32 18.91Q241.01 20.52 241.30 21.76Q241.58 22.99 242.36 23.70Q243.14 24.41 244.30 24.41L244.30 24.41Q244.94 24.41 245.92 24.02Q246.89 23.64 247.75 23.04L247.75 23.04L248.04 23.66Q247.37 24.31 246.52 24.82Q245.66 25.32 244.81 25.60Q243.96 25.87 243.22 25.87Z"/></svg>