<svg xmlns="http://www.w3.org/2000/svg" xmlns:xlink="http://www.w3.org/1999/xlink" width="190.51199999999994" height="28.8"><path fill="black" d="M8.54 23.04L8.54 23.04Q6.53 23.04 4.94 22.18Q3.36 21.31 2.46 19.76Q1.56 18.22 1.56 16.15L1.56 16.15Q1.56 13.20 2.76 11.04Q3.96 8.88 6.07 7.70Q8.18 6.53 10.94 6.53L10.94 6.53Q12.10 6.53 13.15 6.77Q14.21 7.01 15.13 7.45Q16.06 7.90 16.73 8.52L16.73 8.52L15.65 9.94Q14.74 9.19 13.49 8.77Q12.24 8.35 10.75 8.35L10.75 8.35Q8.69 8.35 7.08 9.29Q5.47 10.22 4.56 11.95Q3.65 13.68 3.65 16.10L3.65 16.10Q3.65 17.69 4.30 18.84Q4.94 19.99 6.10 20.60Q7.25 21.22 8.74 21.22L8.74 21.22Q10.30 21.22 11.48 20.72Q12.67 20.23 13.56 19.42L13.56 19.42L14.18 15.91L9.34 15.91L9.65 14.09L16.54 14.09L15.43 20.30Q14.18 21.62 12.46 22.33Q10.73 23.04 8.54 23.04ZM21.94 23.04L21.94 23.04Q20.26 23.04 19.15 22.20Q18.05 21.36 18.05 19.87L18.05 19.87Q18.05 18.79 18.59 18.05Q19.13 17.30 20.21 16.85Q21.29 16.39 22.92 16.20L22.92 16.20L27.10 15.70Q27.19 15.05 27.06 14.54Q26.93 14.04 26.58 13.69Q26.23 13.34 25.68 13.16Q25.13 12.98 24.41 12.98L24.41 12.98Q23.52 12.98 22.56 13.32Q21.60 13.66 20.59 14.33L20.59 14.33L20.06 12.79Q21.10 12.02 22.20 11.65Q23.30 11.28 24.43 11.28L24.43 11.28Q25.54 11.28 26.46 11.57Q27.38 11.86 28.03 12.43Q28.68 13.01 28.96 13.88Q29.23 14.76 29.02 15.94L29.02 15.94L27.82 22.80L25.94 22.80L26.18 21.34Q25.54 22.10 24.50 22.57Q23.47 23.04 21.94 23.04ZM22.51 21.34L22.51 21.34Q23.74 21.34 24.61 20.90Q25.49 20.47 26.00 19.76Q26.52 19.06 26.66 18.26L26.66 18.26L26.83 17.30L23.16 17.76Q21.38 17.98 20.70 18.48Q20.02 18.98 20.02 19.73L20.02 19.73Q20.02 20.45 20.69 20.89Q21.36 21.34 22.51 21.34ZM33.55 22.80L31.61 22.80L33.58 11.52L35.45 11.52L35.18 12.98Q35.90 12.07 36.83 11.68Q37.75 11.28 39.12 11.28L39.12 11.28Q40.42 11.28 41.20 11.64Q41.98 12 42.36 12.64Q42.74 13.27 42.80 14.10Q42.86 14.93 42.72 15.86L42.72 15.86L41.50 22.80L39.55 22.80L40.73 16.08Q40.85 15.55 40.84 15.01Q40.82 14.47 40.62 14.02Q40.42 13.56 39.90 13.27Q39.38 12.98 38.47 12.98L38.47 12.98Q36.91 12.98 35.93 13.93Q34.94 14.88 34.61 16.75L34.61 16.75L33.55 22.80ZM49.56 22.94L49.56 22.94Q48.74 22.94 48.17 22.70Q47.59 22.46 47.26 22.01Q46.92 21.55 46.81 20.95Q46.70 20.35 46.82 19.63L46.82 19.63L47.95 13.20L45.43 13.20L45.72 11.52L48.24 11.52L48.82 8.30L50.76 8.30L50.18 11.52L53.16 11.52L52.87 13.20L49.90 13.20L48.79 19.51Q48.70 20.14 48.83 20.52Q48.96 20.90 49.32 21.08Q49.68 21.26 50.21 21.26L50.21 21.26Q50.52 21.26 50.88 21.24Q51.24 21.22 51.46 21.17L51.46 21.17L51.19 22.75Q50.88 22.85 50.45 22.90Q50.02 22.94 49.56 22.94ZM57.84 23.04L57.84 23.04Q56.16 23.04 55.06 22.20Q53.95 21.36 53.95 19.87L53.95 19.87Q53.95 18.79 54.49 18.05Q55.03 17.30 56.11 16.85Q57.19 16.39 58.82 16.20L58.82 16.20L63 15.70Q63.10 15.05 62.96 14.54Q62.83 14.04 62.48 13.69Q62.14 13.34 61.58 13.16Q61.03 12.98 60.31 12.98L60.31 12.98Q59.42 12.98 58.46 13.32Q57.50 13.66 56.50 14.33L56.50 14.33L55.97 12.79Q57 12.02 58.10 11.65Q59.21 11.28 60.34 11.28L60.34 11.28Q61.44 11.28 62.36 11.57Q63.29 11.86 63.94 12.43Q64.58 13.01 64.86 13.88Q65.14 14.76 64.92 15.94L64.92 15.94L63.72 22.80L61.85 22.80L62.09 21.34Q61.44 22.10 60.41 22.57Q59.38 23.04 57.84 23.04ZM58.42 21.34L58.42 21.34Q59.64 21.34 60.52 20.90Q61.39 20.47 61.91 19.76Q62.42 19.06 62.57 18.26L62.57 18.26L62.74 17.30L59.06 17.76Q57.29 17.98 56.60 18.48Q55.92 18.98 55.92 19.73L55.92 19.73Q55.92 20.45 56.59 20.89Q57.26 21.34 58.42 21.34ZM69.46 22.80L67.51 22.80L69.48 11.52L71.35 11.52L71.04 13.27Q71.69 12.17 72.54 11.77Q73.39 11.38 74.52 11.38L74.52 11.38Q74.78 11.38 75.08 11.41Q75.38 11.45 75.62 11.52L75.62 11.52L75.31 13.34Q75 13.27 74.69 13.24Q74.38 13.20 74.06 13.20L74.06 13.20Q72.72 13.20 71.76 14.14Q70.80 15.07 70.46 17.04L70.46 17.04L69.46 22.80ZM78.29 22.80L76.34 22.80L78.31 11.52L80.26 11.52L78.29 22.80ZM79.78 9.02L79.78 9.02Q79.25 9.02 78.96 8.75Q78.67 8.47 78.67 8.04L78.67 8.04Q78.67 7.44 79.06 7.09Q79.44 6.74 80.06 6.74L80.06 6.74Q80.59 6.74 80.88 7.02Q81.17 7.30 81.17 7.73L81.17 7.73Q81.17 8.33 80.78 8.68Q80.40 9.02 79.78 9.02ZM97.61 22.80L95.62 22.80L96.31 18.91L87.98 18.91L88.34 16.82L98.18 6.77L100.42 6.77L98.59 17.21L100.70 17.21L100.39 18.91L98.30 18.91L97.61 22.80ZM97.99 9.17L90.26 17.21L96.60 17.21L97.99 9.17ZM108.84 23.04L108.84 23.04Q107.06 23.04 105.85 22.22Q104.64 21.41 104.03 19.99Q103.42 18.58 103.42 16.75L103.42 16.75Q103.42 14.93 103.88 13.12Q104.35 11.30 105.30 9.82Q106.25 8.33 107.75 7.43Q109.25 6.53 111.29 6.53L111.29 6.53Q113.06 6.53 114.28 7.34Q115.49 8.16 116.10 9.58Q116.71 10.99 116.71 12.82L116.71 12.82Q116.71 14.64 116.26 16.45Q115.80 18.26 114.84 19.75Q113.88 21.24 112.39 22.14Q110.90 23.04 108.84 23.04ZM108.98 21.34L108.98 21.34Q110.16 21.34 111.07 20.82Q111.98 20.30 112.64 19.43Q113.30 18.55 113.74 17.45Q114.17 16.34 114.38 15.14Q114.60 13.94 114.60 12.79L114.60 12.79Q114.60 10.46 113.65 9.35Q112.70 8.23 111.14 8.23L111.14 8.23Q109.97 8.23 109.06 8.75Q108.14 9.26 107.48 10.14Q106.82 11.02 106.39 12.12Q105.96 13.22 105.74 14.42Q105.53 15.62 105.53 16.78L105.53 16.78Q105.53 19.10 106.48 20.22Q107.42 21.34 108.98 21.34ZM124.25 23.04L124.25 23.04Q122.47 23.04 121.26 22.22Q120.05 21.41 119.44 19.99Q118.82 18.58 118.82 16.75L118.82 16.75Q118.82 14.93 119.29 13.12Q119.76 11.30 120.71 9.82Q121.66 8.33 123.16 7.43Q124.66 6.53 126.70 6.53L126.70 6.53Q128.47 6.53 129.68 7.34Q130.90 8.16 131.51 9.58Q132.12 10.99 132.12 12.82L132.12 12.82Q132.12 14.64 131.66 16.45Q131.21 18.26 130.25 19.75Q129.29 21.24 127.80 22.14Q126.31 23.04 124.25 23.04ZM124.39 21.34L124.39 21.34Q125.57 21.34 126.48 20.82Q127.39 20.30 128.05 19.43Q128.71 18.55 129.14 17.45Q129.58 16.34 129.79 15.14Q130.01 13.94 130.01 12.79L130.01 12.79Q130.01 10.46 129.06 9.35Q128.11 8.23 126.55 8.23L126.55 8.23Q125.38 8.23 124.46 8.75Q123.55 9.26 122.89 10.14Q122.23 11.02 121.80 12.12Q121.37 13.22 121.15 14.42Q120.94 15.62 120.94 16.78L120.94 16.78Q120.94 19.10 121.88 20.22Q122.83 21.34 124.39 21.34ZM141.48 22.80L139.54 22.80L141.50 11.52L143.45 11.52L141.48 22.80ZM142.97 9.02L142.97 9.02Q142.44 9.02 142.15 8.75Q141.86 8.47 141.86 8.04L141.86 8.04Q141.86 7.44 142.25 7.09Q142.63 6.74 143.26 6.74L143.26 6.74Q143.78 6.74 144.07 7.02Q144.36 7.30 144.36 7.73L144.36 7.73Q144.36 8.33 143.98 8.68Q143.59 9.02 142.97 9.02ZM149.78 22.94L149.78 22.94Q148.97 22.94 148.39 22.70Q147.82 22.46 147.48 22.01Q147.14 21.55 147.04 20.95Q146.93 20.35 147.05 19.63L147.05 19.63L148.18 13.20L145.66 13.20L145.94 11.52L148.46 11.52L149.04 8.30L150.98 8.30L150.41 11.52L153.38 11.52L153.10 13.20L150.12 13.20L149.02 19.51Q148.92 20.14 149.05 20.52Q149.18 20.90 149.54 21.08Q149.90 21.26 150.43 21.26L150.43 21.26Q150.74 21.26 151.10 21.24Q151.46 21.22 151.68 21.17L151.68 21.17L151.42 22.75Q151.10 22.85 150.67 22.90Q150.24 22.94 149.78 22.94ZM158.06 23.04L158.06 23.04Q156.38 23.04 155.28 22.20Q154.18 21.36 154.18 19.87L154.18 19.87Q154.18 18.79 154.72 18.05Q155.26 17.30 156.34 16.85Q157.42 16.39 159.05 16.20L159.05 16.20L163.22 15.70Q163.32 15.05 163.19 14.54Q163.06 14.04 162.71 13.69Q162.36 13.34 161.81 13.16Q161.26 12.98 160.54 12.98L160.54 12.98Q159.65 12.98 158.69 13.32Q157.73 13.66 156.72 14.33L156.72 14.33L156.19 12.79Q157.22 12.02 158.33 11.65Q159.43 11.28 160.56 11.28L160.56 11.28Q161.66 11.28 162.59 11.57Q163.51 11.86 164.16 12.43Q164.81 13.01 165.08 13.88Q165.36 14.76 165.14 15.94L165.14 15.94L163.94 22.80L162.07 22.80L162.31 21.34Q161.66 22.10 160.63 22.57Q159.60 23.04 158.06 23.04ZM158.64 21.34L158.64 21.34Q159.86 21.34 160.74 20.90Q161.62 20.47 162.13 19.76Q162.65 19.06 162.79 18.26L162.79 18.26L162.96 17.30L159.29 17.76Q157.51 17.98 156.83 18.48Q156.14 18.98 156.14 19.73L156.14 19.73Q156.14 20.45 156.82 20.89Q157.49 21.34 158.64 21.34ZM169.68 22.80L167.74 22.80L170.54 6.77L172.49 6.77L169.68 22.80ZM175.42 22.80L173.47 22.80L175.44 11.52L177.38 11.52L175.42 22.80ZM176.90 9.02L176.90 9.02Q176.38 9.02 176.09 8.75Q175.80 8.47 175.80 8.04L175.80 8.04Q175.80 7.44 176.18 7.09Q176.57 6.74 177.19 6.74L177.19 6.74Q177.72 6.74 178.01 7.02Q178.30 7.30 178.30 7.73L178.30 7.73Q178.30 8.33 177.91 8.68Q177.53 9.02 176.90 9.02ZM184.56 23.04L184.56 23.04Q182.98 23.04 181.85 22.39Q180.72 21.74 180.11 20.64Q179.50 19.54 179.50 18.17L179.50 18.17Q179.50 16.06 180.35 14.51Q181.20 12.96 182.72 12.12Q184.25 11.28 186.24 11.28L186.24 11.28Q187.54 11.28 188.50 11.64Q189.46 12 190.15 12.70L190.15 12.70L189.14 14.14Q188.50 13.51 187.73 13.25Q186.96 12.98 186.05 12.98L186.05 12.98Q184.70 12.98 183.67 13.61Q182.64 14.23 182.06 15.37Q181.49 16.51 181.49 18.07L181.49 18.07Q181.49 19.51 182.35 20.42Q183.22 21.34 184.75 21.34L184.75 21.34Q185.66 21.34 186.44 21.07Q187.22 20.81 188.09 20.18L188.09 20.18L188.59 21.62Q187.70 22.32 186.70 22.68Q185.69 23.04 184.56 23.04Z"/></svg>