<svg xmlns="http://www.w3.org/2000/svg" xmlns:xlink="http://www.w3.org/1999/xlink" width="331.22400000000005" height="30"><path fill="black" d="M3.55 16.43L3.55 23.08L11.45 23.08L11.45 24.72L1.73 24.72L1.73 6.96L11.33 6.96L11.33 8.60L3.55 8.60L3.55 14.78L10.20 14.78L10.20 16.43L3.55 16.43ZM13.45 24.72L13.45 11.70L14.99 11.70L15.13 13.15L15.25 13.15Q15.91 12.35 16.79 11.92Q17.66 11.50 18.71 11.50L18.71 11.50Q20.33 11.50 21.26 12.46Q22.20 13.43 22.20 15.62L22.20 15.62L22.20 24.72L20.38 24.72L20.38 15.73Q20.38 14.35 19.81 13.76Q19.25 13.16 18.20 13.16L18.20 13.16Q17.40 13.16 16.59 13.58Q15.78 14.00 15.28 14.88L15.28 14.88L15.28 24.72L13.45 24.72ZM29.54 24.95Q27.05 24.95 25.78 23.36Q24.52 21.78 24.52 18.22L24.52 18.22Q24.52 15.79 25.16 14.31Q25.80 12.83 27.02 12.16Q28.24 11.50 30.06 11.50L30.06 11.50Q31.22 11.50 32.23 11.75L32.23 11.75L32.23 13.34Q31.24 13.09 30.34 13.09L30.34 13.09Q28.96 13.09 28.11 13.56Q27.26 14.03 26.84 15.13Q26.42 16.24 26.42 18.16L26.42 18.16Q26.42 20.12 26.81 21.26Q27.19 22.39 27.95 22.87Q28.70 23.35 29.89 23.35L29.89 23.35Q30.88 23.35 32.23 22.90L32.23 22.90L32.23 24.48Q30.90 24.95 29.54 24.95L29.54 24.95ZM38.10 24.95Q33.28 24.95 33.28 18.23L33.28 18.23Q33.28 14.71 34.52 13.10Q35.76 11.50 38.10 11.50L38.10 11.50Q40.40 11.50 41.66 13.12Q42.91 14.74 42.91 18.22L42.91 18.22Q42.91 21.72 41.67 23.33Q40.43 24.95 38.10 24.95L38.10 24.95ZM38.10 23.46Q39.06 23.46 39.70 22.99Q40.33 22.52 40.68 21.38Q41.03 20.24 41.03 18.26L41.03 18.26Q41.03 16.25 40.68 15.08Q40.33 13.92 39.69 13.45Q39.05 12.98 38.10 12.98L38.10 12.98Q37.14 12.98 36.50 13.45Q35.86 13.91 35.51 15.05Q35.16 16.20 35.16 18.18L35.16 18.18Q35.16 20.20 35.51 21.36Q35.86 22.52 36.50 22.99Q37.14 23.46 38.10 23.46L38.10 23.46ZM49.18 24.95Q47.93 24.95 46.94 24.32Q45.95 23.69 45.36 22.24Q44.77 20.80 44.77 18.47L44.77 18.47Q44.77 14.93 46.25 13.22Q47.74 11.51 50.69 11.51L50.69 11.51Q51.32 11.51 52.10 11.59L52.10 11.59L52.10 5.33L53.93 5.33L53.93 24.72L52.36 24.72L52.22 23.40L52.10 23.40Q51.66 24.10 50.90 24.52Q50.15 24.95 49.18 24.95L49.18 24.95ZM49.62 23.34Q50.36 23.34 51.04 22.96Q51.72 22.57 52.10 21.86L52.10 21.86L52.10 13.15Q51.80 13.09 51.37 13.05Q50.93 13.01 50.57 13.01L50.57 13.01Q48.61 13.01 47.63 14.23Q46.66 15.46 46.66 18.29L46.66 18.29Q46.66 20.27 47.03 21.38Q47.41 22.49 48.06 22.91Q48.71 23.34 49.62 23.34L49.62 23.34ZM65.33 18.23L65.33 18.84L58.21 18.84Q58.25 20.56 58.66 21.55Q59.06 22.55 59.87 22.97Q60.67 23.40 61.96 23.40L61.96 23.40Q63.11 23.40 64.73 22.92L64.73 22.92L64.73 24.48Q63.92 24.73 63.22 24.84Q62.51 24.95 61.76 24.95L61.76 24.95Q59.90 24.95 58.72 24.28Q57.53 23.62 56.93 22.13Q56.34 20.64 56.34 18.19L56.34 18.19Q56.34 14.75 57.56 13.12Q58.79 11.50 60.97 11.50L60.97 11.50Q63.10 11.50 64.21 13.10Q65.33 14.71 65.33 18.23L65.33 18.23ZM60.96 12.86Q59.68 12.86 58.96 13.90Q58.25 14.94 58.21 17.53L58.21 17.53L63.55 17.53Q63.53 15.76 63.21 14.72Q62.89 13.69 62.33 13.28Q61.78 12.86 60.96 12.86L60.96 12.86ZM75.78 24.95Q74.90 24.95 73.91 24.78Q72.92 24.61 72.08 24.30L72.08 24.30L72.08 22.67Q73.97 23.32 75.79 23.32L75.79 23.32Q77.68 23.32 78.62 22.51Q79.57 21.70 79.57 20.10L79.57 20.10Q79.57 19.20 79.27 18.59Q78.97 17.98 78.31 17.53Q77.65 17.09 76.51 16.69L76.51 16.69L75.67 16.40Q73.78 15.74 72.79 14.58Q71.81 13.42 71.81 11.58L71.81 11.58Q71.81 10.07 72.46 8.98Q73.10 7.90 74.39 7.31Q75.67 6.73 77.52 6.73L77.52 6.73Q78.35 6.73 79.22 6.85Q80.09 6.97 80.72 7.19L80.72 7.19L80.72 8.82Q79.28 8.36 77.62 8.36L77.62 8.36Q73.69 8.36 73.69 11.45L73.69 11.45Q73.69 12.31 73.98 12.90Q74.27 13.49 74.89 13.92Q75.52 14.35 76.60 14.74L76.60 14.74L77.44 15.02Q79.44 15.71 80.45 16.89Q81.46 18.07 81.46 19.96L81.46 19.96Q81.46 21.53 80.79 22.65Q80.12 23.77 78.85 24.36Q77.58 24.95 75.78 24.95L75.78 24.95ZM87.16 11.50Q88.67 11.50 89.63 11.93Q90.60 12.36 91.09 13.35Q91.58 14.34 91.58 16.02L91.58 16.02L91.58 24.72L90.06 24.72L89.93 23.29L89.81 23.29Q89.27 24.11 88.45 24.52Q87.62 24.94 86.60 24.94L86.60 24.94Q85.56 24.94 84.77 24.52Q83.98 24.10 83.54 23.30Q83.10 22.50 83.10 21.40L83.10 21.40Q83.10 19.64 84.14 18.68Q85.19 17.71 87.38 17.51L87.38 17.51L89.80 17.26L89.80 15.94Q89.80 14.83 89.48 14.20Q89.16 13.57 88.54 13.31Q87.91 13.06 86.89 13.06L86.89 13.06Q86.21 13.06 85.41 13.18Q84.61 13.31 83.86 13.57L83.86 13.57L83.86 12.01Q84.55 11.77 85.46 11.63Q86.36 11.50 87.16 11.50L87.16 11.50ZM87.11 23.46Q87.85 23.46 88.55 23.09Q89.26 22.72 89.80 21.86L89.80 21.86L89.80 18.54L87.52 18.77Q86.21 18.90 85.58 19.50Q84.95 20.10 84.95 21.19L84.95 21.19Q84.95 22.33 85.51 22.90Q86.06 23.46 87.11 23.46L87.11 23.46ZM94.52 24.72L94.52 11.70L96.06 11.70L96.20 13.15L96.32 13.15Q96.98 12.35 97.86 11.92Q98.74 11.50 99.78 11.50L99.78 11.50Q101.40 11.50 102.34 12.46Q103.27 13.43 103.27 15.62L103.27 15.62L103.27 24.72L101.45 24.72L101.45 15.73Q101.45 14.35 100.88 13.76Q100.32 13.16 99.28 13.16L99.28 13.16Q98.47 13.16 97.66 13.58Q96.85 14.00 96.35 14.88L96.35 14.88L96.35 24.72L94.52 24.72ZM108.70 24.95Q107.12 24.95 105.72 24.46L105.72 24.46L105.72 22.91Q107.30 23.41 108.67 23.41L108.67 23.41Q110.03 23.41 110.74 22.84Q111.44 22.27 111.44 21.22L111.44 21.22Q111.44 20.32 111.01 19.83Q110.58 19.34 109.68 19.09L109.68 19.09L108.36 18.74Q106.82 18.32 106.13 17.47Q105.44 16.61 105.44 15.22L105.44 15.22Q105.44 14.12 105.97 13.28Q106.50 12.44 107.53 11.97Q108.55 11.50 109.99 11.50L109.99 11.50Q111.30 11.50 112.52 11.78L112.52 11.78L112.52 13.34Q111.88 13.19 111.30 13.12Q110.72 13.04 110.06 13.04L110.06 13.04Q108.60 13.04 107.88 13.64Q107.16 14.24 107.16 15.19L107.16 15.19Q107.16 16.01 107.57 16.48Q107.99 16.96 108.86 17.21L108.86 17.21L110.18 17.57Q111.79 18 112.48 18.86Q113.16 19.73 113.16 21.16L113.16 21.16Q113.16 22.33 112.63 23.19Q112.09 24.05 111.09 24.50Q110.09 24.95 108.70 24.95L108.70 24.95ZM126.88 24.95Q124.62 24.95 123.08 24.07Q121.54 23.18 120.70 21.18Q119.87 19.18 119.87 15.88L119.87 15.88Q119.87 11.05 121.70 8.89Q123.53 6.73 127.07 6.73L127.07 6.73Q128.72 6.73 130.27 7.19L130.27 7.19L130.27 8.83Q129.48 8.58 128.72 8.47Q127.96 8.36 127.12 8.36L127.12 8.36Q125.33 8.36 124.17 9.06Q123.01 9.76 122.41 11.40Q121.81 13.04 121.81 15.83L121.81 15.83Q121.81 18.67 122.41 20.32Q123.01 21.96 124.15 22.64Q125.29 23.32 127.04 23.32L127.04 23.32Q127.82 23.32 128.59 23.17Q129.36 23.02 130.27 22.70L130.27 22.70L130.27 24.35Q129.54 24.62 128.66 24.79Q127.79 24.95 126.88 24.95L126.88 24.95ZM135.82 24.95Q130.99 24.95 130.99 18.23L130.99 18.23Q130.99 14.71 132.23 13.10Q133.48 11.50 135.82 11.50L135.82 11.50Q138.12 11.50 139.37 13.12Q140.63 14.74 140.63 18.22L140.63 18.22Q140.63 21.72 139.39 23.33Q138.14 24.95 135.82 24.95L135.82 24.95ZM135.82 23.46Q136.78 23.46 137.41 22.99Q138.05 22.52 138.40 21.38Q138.74 20.24 138.74 18.26L138.74 18.26Q138.74 16.25 138.40 15.08Q138.05 13.92 137.41 13.45Q136.76 12.98 135.82 12.98L135.82 12.98Q134.86 12.98 134.21 13.45Q133.57 13.91 133.22 15.05Q132.88 16.20 132.88 18.18L132.88 18.18Q132.88 20.20 133.22 21.36Q133.57 22.52 134.21 22.99Q134.86 23.46 135.82 23.46L135.82 23.46ZM143.05 24.72L143.05 11.70L144.59 11.70L144.73 13.15L144.85 13.15Q145.51 12.35 146.39 11.92Q147.26 11.50 148.31 11.50L148.31 11.50Q149.93 11.50 150.86 12.46Q151.80 13.43 151.80 15.62L151.80 15.62L151.80 24.72L149.98 24.72L149.98 15.73Q149.98 14.35 149.41 13.76Q148.85 13.16 147.80 13.16L147.80 13.16Q147.00 13.16 146.19 13.58Q145.38 14.00 144.88 14.88L144.88 14.88L144.88 24.72L143.05 24.72ZM158.52 24.95Q157.27 24.95 156.28 24.32Q155.29 23.69 154.70 22.24Q154.12 20.80 154.12 18.47L154.12 18.47Q154.12 14.93 155.60 13.22Q157.08 11.51 160.03 11.51L160.03 11.51Q160.67 11.51 161.45 11.59L161.45 11.59L161.45 5.33L163.27 5.33L163.27 24.72L161.70 24.72L161.57 23.40L161.45 23.40Q161.00 24.10 160.25 24.52Q159.49 24.95 158.52 24.95L158.52 24.95ZM158.96 23.34Q159.71 23.34 160.39 22.96Q161.06 22.57 161.45 21.86L161.45 21.86L161.45 13.15Q161.15 13.09 160.71 13.05Q160.27 13.01 159.91 13.01L159.91 13.01Q157.96 13.01 156.98 14.23Q156.00 15.46 156.00 18.29L156.00 18.29Q156.00 20.27 156.38 21.38Q156.76 22.49 157.40 22.91Q158.05 23.34 158.96 23.34L158.96 23.34ZM174.67 18.23L174.67 18.84L167.56 18.84Q167.59 20.56 168.00 21.55Q168.41 22.55 169.21 22.97Q170.02 23.40 171.30 23.40L171.30 23.40Q172.45 23.40 174.07 22.92L174.07 22.92L174.07 24.48Q173.27 24.73 172.56 24.84Q171.85 24.95 171.11 24.95L171.11 24.95Q169.25 24.95 168.06 24.28Q166.87 23.62 166.28 22.13Q165.68 20.64 165.68 18.19L165.68 18.19Q165.68 14.75 166.91 13.12Q168.13 11.50 170.32 11.50L170.32 11.50Q172.44 11.50 173.56 13.10Q174.67 14.71 174.67 18.23L174.67 18.23ZM170.30 12.86Q169.02 12.86 168.31 13.90Q167.59 14.94 167.56 17.53L167.56 17.53L172.90 17.53Q172.87 15.76 172.55 14.72Q172.24 13.69 171.68 13.28Q171.12 12.86 170.30 12.86L170.30 12.86ZM176.96 24.72L176.96 11.70L178.50 11.70L178.64 13.15L178.76 13.15Q179.42 12.35 180.30 11.92Q181.18 11.50 182.22 11.50L182.22 11.50Q183.84 11.50 184.78 12.46Q185.71 13.43 185.71 15.62L185.71 15.62L185.71 24.72L183.89 24.72L183.89 15.73Q183.89 14.35 183.32 13.76Q182.76 13.16 181.72 13.16L181.72 13.16Q180.91 13.16 180.10 13.58Q179.29 14.00 178.79 14.88L178.79 14.88L178.79 24.72L176.96 24.72ZM191.14 24.95Q189.56 24.95 188.16 24.46L188.16 24.46L188.16 22.91Q189.74 23.41 191.11 23.41L191.11 23.41Q192.47 23.41 193.18 22.84Q193.88 22.27 193.88 21.22L193.88 21.22Q193.88 20.32 193.45 19.83Q193.02 19.34 192.12 19.09L192.12 19.09L190.80 18.74Q189.26 18.32 188.57 17.47Q187.88 16.61 187.88 15.22L187.88 15.22Q187.88 14.12 188.41 13.28Q188.94 12.44 189.97 11.97Q190.99 11.50 192.43 11.50L192.43 11.50Q193.74 11.50 194.96 11.78L194.96 11.78L194.96 13.34Q194.32 13.19 193.74 13.12Q193.16 13.04 192.50 13.04L192.50 13.04Q191.04 13.04 190.32 13.64Q189.60 14.24 189.60 15.19L189.60 15.19Q189.60 16.01 190.01 16.48Q190.43 16.96 191.30 17.21L191.30 17.21L192.62 17.57Q194.23 18 194.92 18.86Q195.60 19.73 195.60 21.16L195.60 21.16Q195.60 22.33 195.07 23.19Q194.53 24.05 193.53 24.50Q192.53 24.95 191.14 24.95L191.14 24.95ZM206.11 18.23L206.11 18.84L199.00 18.84Q199.03 20.56 199.44 21.55Q199.85 22.55 200.65 22.97Q201.46 23.40 202.74 23.40L202.74 23.40Q203.89 23.40 205.51 22.92L205.51 22.92L205.51 24.48Q204.71 24.73 204.00 24.84Q203.29 24.95 202.55 24.95L202.55 24.95Q200.69 24.95 199.50 24.28Q198.31 23.62 197.72 22.13Q197.12 20.64 197.12 18.19L197.12 18.19Q197.12 14.75 198.35 13.12Q199.57 11.50 201.76 11.50L201.76 11.50Q203.88 11.50 205.00 13.10Q206.11 14.71 206.11 18.23L206.11 18.23ZM201.74 12.86Q200.46 12.86 199.75 13.90Q199.03 14.94 199.00 17.53L199.00 17.53L204.34 17.53Q204.31 15.76 203.99 14.72Q203.68 13.69 203.12 13.28Q202.56 12.86 201.74 12.86L201.74 12.86ZM212.18 24.95Q210.94 24.95 209.95 24.32Q208.96 23.69 208.37 22.24Q207.78 20.80 207.78 18.47L207.78 18.47Q207.78 14.93 209.26 13.22Q210.74 11.51 213.70 11.51L213.70 11.51Q214.33 11.51 215.11 11.59L215.11 11.59L215.11 5.33L216.94 5.33L216.94 24.72L215.36 24.72L215.23 23.40L215.11 23.40Q214.67 24.10 213.91 24.52Q213.16 24.95 212.18 24.95L212.18 24.95ZM212.63 23.34Q213.37 23.34 214.05 22.96Q214.73 22.57 215.11 21.86L215.11 21.86L215.11 13.15Q214.81 13.09 214.37 13.05Q213.94 13.01 213.58 13.01L213.58 13.01Q211.62 13.01 210.64 14.23Q209.66 15.46 209.66 18.29L209.66 18.29Q209.66 20.27 210.04 21.38Q210.42 22.49 211.07 22.91Q211.72 23.34 212.63 23.34L212.63 23.34ZM233.29 18.91L235.56 18.91L235.56 20.42L233.29 20.42L233.29 24.72L231.59 24.72L231.59 20.42L224.03 20.42L224.03 19.37L230.02 6.96L231.85 6.96L226.10 18.91L231.59 18.91L231.84 12.96L233.29 12.96L233.29 18.91ZM242.51 24.95Q239.89 24.95 238.52 22.81Q237.16 20.66 237.16 15.84L237.16 15.84Q237.16 11.02 238.52 8.87Q239.88 6.73 242.51 6.73L242.51 6.73Q245.14 6.73 246.50 8.87Q247.86 11.02 247.86 15.84L247.86 15.84Q247.86 20.66 246.49 22.81Q245.12 24.95 242.51 24.95L242.51 24.95ZM242.51 23.33Q243.65 23.33 244.41 22.64Q245.17 21.95 245.59 20.30Q246.00 18.66 246.00 15.88L246.00 15.88Q246.00 13.06 245.59 11.40Q245.17 9.74 244.41 9.05Q243.65 8.35 242.51 8.35L242.51 8.35Q241.38 8.35 240.61 9.04Q239.84 9.73 239.43 11.38Q239.02 13.02 239.02 15.80L239.02 15.80Q239.02 18.62 239.43 20.28Q239.84 21.94 240.61 22.63Q241.38 23.33 242.51 23.33L242.51 23.33ZM255.53 24.95Q252.91 24.95 251.54 22.81Q250.18 20.66 250.18 15.84L250.18 15.84Q250.18 11.02 251.54 8.87Q252.90 6.73 255.53 6.73L255.53 6.73Q258.16 6.73 259.52 8.87Q260.88 11.02 260.88 15.84L260.88 15.84Q260.88 20.66 259.51 22.81Q258.14 24.95 255.53 24.95L255.53 24.95ZM255.53 23.33Q256.67 23.33 257.43 22.64Q258.19 21.95 258.61 20.30Q259.02 18.66 259.02 15.88L259.02 15.88Q259.02 13.06 258.61 11.40Q258.19 9.74 257.43 9.05Q256.67 8.35 255.53 8.35L255.53 8.35Q254.40 8.35 253.63 9.04Q252.86 9.73 252.45 11.38Q252.04 13.02 252.04 15.80L252.04 15.80Q252.04 18.62 252.45 20.28Q252.86 21.94 253.63 22.63Q254.40 23.33 255.53 23.33L255.53 23.33ZM268.62 24.72L268.62 11.70L270.16 11.70L270.30 13.15L270.42 13.15Q271.08 12.35 271.96 11.92Q272.83 11.50 273.88 11.50L273.88 11.50Q275.50 11.50 276.43 12.46Q277.37 13.43 277.37 15.62L277.37 15.62L277.37 24.72L275.54 24.72L275.54 15.73Q275.54 14.35 274.98 13.76Q274.42 13.16 273.37 13.16L273.37 13.16Q272.57 13.16 271.76 13.58Q270.95 14.00 270.44 14.88L270.44 14.88L270.44 24.72L268.62 24.72ZM284.51 24.95Q279.68 24.95 279.68 18.23L279.68 18.23Q279.68 14.71 280.93 13.10Q282.17 11.50 284.51 11.50L284.51 11.50Q286.81 11.50 288.07 13.12Q289.32 14.74 289.32 18.22L289.32 18.22Q289.32 21.72 288.08 23.33Q286.84 24.95 284.51 24.95L284.51 24.95ZM284.51 23.46Q285.47 23.46 286.10 22.99Q286.74 22.52 287.09 21.38Q287.44 20.24 287.44 18.26L287.44 18.26Q287.44 16.25 287.09 15.08Q286.74 13.92 286.10 13.45Q285.46 12.98 284.51 12.98L284.51 12.98Q283.55 12.98 282.91 13.45Q282.26 13.91 281.92 15.05Q281.57 16.20 281.57 18.18L281.57 18.18Q281.57 20.20 281.92 21.36Q282.26 22.52 282.91 22.99Q283.55 23.46 284.51 23.46L284.51 23.46ZM291.74 24.72L291.74 11.70L293.27 11.70L293.42 13.48L293.54 13.48Q294.10 12.53 294.95 12.05Q295.81 11.57 296.83 11.57L296.83 11.57Q297.11 11.57 297.56 11.63L297.56 11.63L297.56 13.37Q297.28 13.32 296.72 13.32L296.72 13.32Q295.78 13.32 294.91 13.82Q294.04 14.33 293.57 15.22L293.57 15.22L293.57 24.72L291.74 24.72ZM310.81 11.50Q312.37 11.50 313.30 12.47Q314.23 13.45 314.23 15.68L314.23 15.68L314.23 24.72L312.41 24.72L312.41 15.76Q312.41 13.16 310.32 13.16L310.32 13.16Q309.61 13.16 308.86 13.57Q308.10 13.97 307.60 14.86L307.60 14.86Q307.63 15.22 307.63 15.61L307.63 15.61L307.63 24.72L305.84 24.72L305.84 15.76Q305.84 14.36 305.30 13.76Q304.76 13.16 303.80 13.16L303.80 13.16Q303.06 13.16 302.29 13.60Q301.51 14.03 301.03 14.94L301.03 14.94L301.03 24.72L299.21 24.72L299.21 11.70L300.74 11.70L300.89 13.16L301.01 13.16Q301.67 12.32 302.52 11.91Q303.37 11.50 304.37 11.50L304.37 11.50Q306.53 11.50 307.26 13.33L307.26 13.33Q307.98 12.38 308.91 11.94Q309.84 11.50 310.81 11.50L310.81 11.50ZM320.52 11.50Q322.03 11.50 323.00 11.93Q323.96 12.36 324.46 13.35Q324.95 14.34 324.95 16.02L324.95 16.02L324.95 24.72L323.42 24.72L323.29 23.29L323.17 23.29Q322.63 24.11 321.81 24.52Q320.99 24.94 319.97 24.94L319.97 24.94Q318.92 24.94 318.13 24.52Q317.34 24.10 316.90 23.30Q316.46 22.50 316.46 21.40L316.46 21.40Q316.46 19.64 317.51 18.68Q318.55 17.71 320.75 17.51L320.75 17.51L323.16 17.26L323.16 15.94Q323.16 14.83 322.84 14.20Q322.52 13.57 321.90 13.31Q321.28 13.06 320.26 13.06L320.26 13.06Q319.57 13.06 318.77 13.18Q317.98 13.31 317.22 13.57L317.22 13.57L317.22 12.01Q317.92 11.77 318.82 11.63Q319.73 11.50 320.52 11.50L320.52 11.50ZM320.47 23.46Q321.22 23.46 321.92 23.09Q322.62 22.72 323.16 21.86L323.16 21.86L323.16 18.54L320.88 18.77Q319.57 18.90 318.94 19.50Q318.31 20.10 318.31 21.19L318.31 21.19Q318.31 22.33 318.87 22.90Q319.43 23.46 320.47 23.46L320.47 23.46ZM329.71 24.72L327.89 24.72L327.89 5.33L329.71 5.33L329.71 24.72Z"/></svg>