<svg xmlns="http://www.w3.org/2000/svg" xmlns:xlink="http://www.w3.org/1999/xlink" width="88.70400000000001" height="31.272000000000002"><path fill="black" d="M8.38 14.38Q10.92 15.10 11.96 16.13Q13.01 17.16 13.01 19.31Q13.01 21.46 11.51 22.84Q10.01 24.22 7.16 24.22Q4.32 24.22 3 23.04Q1.68 21.86 1.34 19.66L1.34 19.66L3.07 19.34Q3.53 22.51 6.98 22.51L6.98 22.51Q10.90 22.51 10.90 19.42L10.90 19.42Q10.90 18.07 10.18 17.42Q9.46 16.78 7.78 16.32L7.78 16.32L6.19 15.86Q3.72 15.19 2.71 14.15Q1.70 13.10 1.70 10.96Q1.70 8.81 3.14 7.42Q4.58 6.02 7.33 6.02Q10.08 6.02 11.33 7.20Q12.58 8.38 12.91 10.58L12.91 10.58L11.18 10.90Q10.73 7.73 7.54 7.73L7.54 7.73Q3.82 7.73 3.82 10.82L3.82 10.82Q3.82 12.17 4.48 12.83Q5.14 13.49 6.72 13.92L6.72 13.92L8.38 14.38ZM16.90 23.88L16.90 10.15L18.96 10.15L18.96 23.88L16.90 23.88ZM17.93 7.85L17.93 7.85Q16.70 7.85 16.70 6.52Q16.70 5.18 17.93 5.18L17.93 5.18Q19.20 5.18 19.20 6.52Q19.20 7.85 17.93 7.85ZM25.27 10.15L25.85 11.59Q28.27 9.82 30.62 9.82Q32.98 9.82 33.94 10.88Q34.90 11.95 34.90 14.14L34.90 14.14L34.90 23.88L32.83 23.88L32.83 14.18Q32.83 12.74 32.28 12.12Q31.73 11.50 30.43 11.50L30.43 11.50Q28.20 11.50 26.11 13.10L26.11 13.10L26.11 23.88L24.05 23.88L24.05 10.15L25.27 10.15ZM40.06 11.57L37.70 11.57L37.70 10.15L40.06 10.15L40.06 7.66L42.12 6.84L42.12 10.15L45.02 10.15L45.02 11.57L42.12 11.57L42.12 20.66Q42.12 21.74 42.42 22.19Q42.72 22.63 43.30 22.63Q43.87 22.63 44.71 22.44L44.71 22.44L44.95 23.83Q43.66 24.22 42.76 24.22Q41.86 24.22 41.28 23.93Q40.70 23.64 40.46 23.06L40.46 23.06Q40.06 22.20 40.06 20.74L40.06 20.74L40.06 11.57ZM50.72 22.09Q51.53 22.54 52.73 22.54Q53.93 22.54 54.73 22.09Q55.54 21.65 55.92 20.82Q56.30 19.99 56.46 19.09Q56.62 18.19 56.62 17.02Q56.62 15.84 56.46 14.94Q56.30 14.04 55.92 13.21Q55.54 12.38 54.73 11.94Q53.93 11.50 52.73 11.50Q51.53 11.50 50.72 11.94Q49.92 12.38 49.52 13.21Q49.13 14.04 48.98 14.93Q48.84 15.82 48.84 17.02Q48.84 18.22 48.98 19.10Q49.13 19.99 49.52 20.82Q49.92 21.65 50.72 22.09ZM58.68 17.02Q58.68 24.22 52.73 24.22Q46.78 24.22 46.78 17.02Q46.78 9.82 52.73 9.82Q58.68 9.82 58.68 17.02ZM63.74 10.15L64.32 11.59Q66.74 9.82 69.10 9.82Q71.45 9.82 72.41 10.88Q73.37 11.95 73.37 14.14L73.37 14.14L73.37 23.88L71.30 23.88L71.30 14.18Q71.30 12.74 70.75 12.12Q70.20 11.50 68.90 11.50L68.90 11.50Q66.67 11.50 64.58 13.10L64.58 13.10L64.58 23.88L62.52 23.88L62.52 10.15L63.74 10.15ZM88.30 10.15L81.00 29.76L79.13 29.42L81.24 23.98L76.06 10.15L78.19 10.15L82.25 21.26L86.18 10.15L88.30 10.15Z"/></svg>