<svg xmlns="http://www.w3.org/2000/svg" xmlns:xlink="http://www.w3.org/1999/xlink" width="262.32000000000005" height="30"><path fill="black" d="M1.92 24L1.92 7.20L4.61 7.20L10.66 19.01L16.70 7.20L19.39 7.20L19.39 24L16.70 24L16.70 12.62L11.42 22.80L9.91 22.80L4.61 12.62L4.61 24L1.92 24ZM28.15 24.48L28.15 24.48Q26.28 24.48 24.97 23.71Q23.66 22.94 22.97 21.47Q22.27 19.99 22.27 17.88L22.27 17.88Q22.27 15.89 22.97 14.46Q23.66 13.03 24.98 12.28Q26.30 11.52 28.15 11.52L28.15 11.52Q31.15 11.52 32.70 13.20Q34.25 14.88 34.25 17.88L34.25 17.88Q34.25 21.05 32.70 22.76Q31.15 24.48 28.15 24.48ZM28.18 22.37L28.18 22.37Q29.86 22.37 30.67 21.28Q31.49 20.18 31.49 17.93L31.49 17.93Q31.49 15.77 30.67 14.69Q29.86 13.61 28.22 13.61L28.22 13.61Q26.59 13.61 25.81 14.66Q25.03 15.72 25.03 17.90L25.03 17.90Q25.03 20.14 25.81 21.25Q26.59 22.37 28.18 22.37ZM41.62 24.48L41.62 24.48Q39.94 24.48 38.72 23.60Q37.51 22.73 36.86 21.24Q36.22 19.75 36.22 17.88L36.22 17.88Q36.22 16.01 36.80 14.58Q37.39 13.15 38.57 12.34Q39.74 11.52 41.45 11.52L41.45 11.52Q43.61 11.52 44.76 13.18Q45.91 14.83 45.91 17.88L45.91 17.88Q45.91 21.05 44.80 22.76Q43.68 24.48 41.62 24.48ZM42.10 22.39L42.10 22.39Q43.03 22.39 43.76 21.80Q44.50 21.22 44.89 20.18Q45.29 19.15 45.29 17.83L45.29 17.83Q45.29 16.58 44.88 15.64Q44.47 14.69 43.74 14.15Q43.01 13.61 42.05 13.61L42.05 13.61Q40.56 13.61 39.77 14.72Q38.98 15.84 38.98 17.86L38.98 17.86Q38.98 19.94 39.80 21.17Q40.63 22.39 42.10 22.39ZM48.07 24L45.31 24L45.31 6L48.07 6L48.07 24ZM56.30 24.48L56.30 24.48Q54.58 24.48 53.27 23.74Q51.96 22.99 51.22 21.54Q50.47 20.09 50.47 17.98L50.47 17.98Q50.47 14.83 51.98 13.18Q53.50 11.52 56.11 11.52L56.11 11.52Q58.01 11.52 59.33 12.35Q60.65 13.18 61.27 14.72Q61.90 16.27 61.70 18.48L61.70 18.48L53.23 18.48Q53.23 20.21 54 21.30Q54.77 22.39 56.38 22.39L56.38 22.39Q57.34 22.39 58.18 21.98Q59.02 21.58 59.62 20.83L59.62 20.83L61.10 22.32Q60.31 23.28 59.11 23.88Q57.91 24.48 56.30 24.48ZM53.30 16.82L53.30 16.82L58.92 16.82Q58.78 15.17 58.06 14.35Q57.34 13.54 56.16 13.54L56.16 13.54Q55.01 13.54 54.23 14.35Q53.45 15.17 53.30 16.82ZM64.49 24L64.49 12L67.25 12L67.25 14.64Q67.61 13.70 68.17 13.01Q68.74 12.31 69.61 11.93Q70.49 11.54 71.69 11.52L71.69 11.52L71.69 13.61Q70.42 13.61 69.56 14.04Q68.71 14.47 68.21 15.22Q67.70 15.96 67.48 16.88Q67.25 17.81 67.25 18.79L67.25 18.79L67.25 24L64.49 24ZM74.11 12L76.87 12L76.87 19.22Q76.87 20.90 77.58 21.64Q78.29 22.37 79.54 22.37L79.54 22.37Q80.78 22.37 81.46 21.64Q82.13 20.90 82.13 19.22L82.13 19.22L82.13 12L84.89 12L84.89 19.56Q84.89 21 84.25 22.10Q83.62 23.21 82.40 23.84Q81.19 24.48 79.51 24.48L79.51 24.48Q77.83 24.48 76.62 23.87Q75.41 23.26 74.76 22.14Q74.11 21.02 74.11 19.56L74.11 19.56L74.11 12ZM87.72 22.32L89.21 20.83Q89.78 21.55 90.61 22.00Q91.44 22.44 92.45 22.44L92.45 22.44Q93.38 22.44 93.94 22.04Q94.49 21.65 94.49 20.98L94.49 20.98Q94.49 20.33 93.89 19.85Q93.29 19.37 91.97 19.03L91.97 19.03Q89.98 18.53 88.96 17.54Q87.94 16.56 87.94 15.14L87.94 15.14Q87.94 14.11 88.48 13.30Q89.02 12.48 90.01 12Q91.01 11.52 92.35 11.52L92.35 11.52Q93.91 11.52 95.10 12.13Q96.29 12.74 97.06 13.68L97.06 13.68L95.57 15.14Q95.02 14.45 94.20 14.00Q93.38 13.56 92.57 13.56L92.57 13.56Q91.78 13.56 91.24 13.97Q90.70 14.38 90.70 15.07L90.70 15.07Q90.70 15.74 91.31 16.26Q91.92 16.78 93.41 17.18L93.41 17.18Q95.26 17.69 96.25 18.55Q97.25 19.42 97.25 20.76L97.25 20.76Q97.25 21.84 96.64 22.68Q96.02 23.52 94.97 24Q93.91 24.48 92.52 24.48L92.52 24.48Q90.96 24.48 89.72 23.84Q88.49 23.21 87.72 22.32L87.72 22.32ZM106.27 21.89L106.78 23.83Q105.89 24.22 105.26 24.35Q104.64 24.48 104.04 24.48L104.04 24.48Q102.31 24.48 101.56 23.58Q100.80 22.68 100.80 20.83L100.80 20.83L100.80 9.12L103.56 9.12L103.56 20.21Q103.56 21.48 103.79 21.90Q104.02 22.32 104.57 22.32L104.57 22.32Q104.95 22.32 105.43 22.20Q105.91 22.08 106.27 21.89L106.27 21.89ZM98.42 14.04L98.42 12L106.68 12L106.68 14.04L98.42 14.04ZM109.54 24L109.54 12L112.30 12L112.30 24L109.54 24ZM109.42 8.54L109.42 8.54Q109.39 8.21 109.57 7.87Q109.75 7.54 110.10 7.32Q110.45 7.10 110.95 7.10L110.95 7.10Q111.70 7.10 112.07 7.55Q112.44 7.99 112.44 8.54L112.44 8.54Q112.44 9.10 112.06 9.56Q111.67 10.03 110.93 10.03L110.93 10.03Q110.45 10.03 110.10 9.80Q109.75 9.58 109.58 9.24Q109.42 8.90 109.42 8.54ZM124.18 20.78L125.74 22.32Q124.92 23.28 123.65 23.88Q122.38 24.48 120.70 24.48L120.70 24.48Q118.06 24.48 116.59 22.76Q115.13 21.05 115.13 17.88L115.13 17.88Q115.13 14.88 116.58 13.20Q118.03 11.52 120.67 11.52L120.67 11.52Q122.28 11.52 123.53 12.10Q124.78 12.67 125.59 13.68L125.59 13.68L124.06 15.22Q123.41 14.45 122.62 14.03Q121.82 13.61 120.89 13.61L120.89 13.61Q119.33 13.61 118.61 14.66Q117.89 15.72 117.89 17.90L117.89 17.90Q117.89 20.14 118.61 21.25Q119.33 22.37 120.82 22.37L120.82 22.37Q121.78 22.37 122.68 21.96Q123.58 21.55 124.18 20.78L124.18 20.78ZM132.31 21.55L133.99 19.87Q134.98 20.95 135.89 21.58Q136.80 22.20 138.22 22.20L138.22 22.20Q139.99 22.20 140.94 21.22Q141.89 20.23 141.89 18.48L141.89 18.48Q141.89 16.90 141.10 16.08Q140.30 15.26 138.65 15.26L138.65 15.26Q137.38 15.26 135.97 15.74Q134.57 16.22 132.94 17.14L132.94 17.14L134.47 7.20L143.88 7.20L143.88 9.48L136.66 9.48L136.06 13.90Q136.68 13.56 137.51 13.34Q138.34 13.13 139.32 13.13L139.32 13.13Q140.95 13.13 142.15 13.79Q143.35 14.45 144.00 15.67Q144.65 16.90 144.65 18.58L144.65 18.58Q144.65 20.38 143.88 21.71Q143.11 23.04 141.70 23.76Q140.28 24.48 138.34 24.48L138.34 24.48Q136.49 24.48 135.06 23.76Q133.63 23.04 132.31 21.55L132.31 21.55ZM153.43 24.46L153.43 24.46Q150.36 24.46 148.75 22.19Q147.14 19.92 147.14 15.70L147.14 15.70Q147.14 11.38 148.80 9.05Q150.46 6.72 153.53 6.72L153.53 6.72Q156.53 6.72 158.06 8.98Q159.60 11.23 159.60 15.60L159.60 15.60Q159.60 19.99 158.04 22.22Q156.48 24.46 153.43 24.46ZM153.41 22.18L153.41 22.18Q155.06 22.18 155.95 20.56Q156.84 18.94 156.84 15.55L156.84 15.55Q156.84 13.22 156.44 11.78Q156.05 10.34 155.29 9.67Q154.54 9 153.46 9L153.46 9Q152.35 9 151.56 9.70Q150.77 10.39 150.34 11.86Q149.90 13.32 149.90 15.65L149.90 15.65Q149.90 18.94 150.82 20.56Q151.73 22.18 153.41 22.18ZM168.48 24.46L168.48 24.46Q165.41 24.46 163.80 22.19Q162.19 19.92 162.19 15.70L162.19 15.70Q162.19 11.38 163.85 9.05Q165.50 6.72 168.58 6.72L168.58 6.72Q171.58 6.72 173.11 8.98Q174.65 11.23 174.65 15.60L174.65 15.60Q174.65 19.99 173.09 22.22Q171.53 24.46 168.48 24.46ZM168.46 22.18L168.46 22.18Q170.11 22.18 171.00 20.56Q171.89 18.94 171.89 15.55L171.89 15.55Q171.89 13.22 171.49 11.78Q171.10 10.34 170.34 9.67Q169.58 9 168.50 9L168.50 9Q167.40 9 166.61 9.70Q165.82 10.39 165.38 11.86Q164.95 13.32 164.95 15.65L164.95 15.65Q164.95 18.94 165.86 20.56Q166.78 22.18 168.46 22.18ZM191.18 24L191.18 17.11Q191.18 15.22 190.68 14.41Q190.18 13.61 188.98 13.61L188.98 13.61Q187.25 13.61 186.38 15.04Q185.52 16.46 185.52 18.79L185.52 18.79L185.23 17.38L185.16 15.67Q185.45 14.38 186.12 13.45Q186.79 12.53 187.75 12.02Q188.71 11.52 189.86 11.52L189.86 11.52Q191.86 11.52 192.90 12.78Q193.94 14.04 193.94 16.63L193.94 16.63L193.94 24L191.18 24ZM182.76 24L182.76 12L185.52 12L185.52 24L182.76 24ZM202.37 24.48L202.37 24.48Q200.50 24.48 199.19 23.71Q197.88 22.94 197.18 21.47Q196.49 19.99 196.49 17.88L196.49 17.88Q196.49 15.89 197.18 14.46Q197.88 13.03 199.20 12.28Q200.52 11.52 202.37 11.52L202.37 11.52Q205.37 11.52 206.92 13.20Q208.46 14.88 208.46 17.88L208.46 17.88Q208.46 21.05 206.92 22.76Q205.37 24.48 202.37 24.48ZM202.39 22.37L202.39 22.37Q204.07 22.37 204.89 21.28Q205.70 20.18 205.70 17.93L205.70 17.93Q205.70 15.77 204.89 14.69Q204.07 13.61 202.44 13.61L202.44 13.61Q200.81 13.61 200.03 14.66Q199.25 15.72 199.25 17.90L199.25 17.90Q199.25 20.14 200.03 21.25Q200.81 22.37 202.39 22.37ZM211.18 24L211.18 12L213.94 12L213.94 14.64Q214.30 13.70 214.86 13.01Q215.42 12.31 216.30 11.93Q217.18 11.54 218.38 11.52L218.38 11.52L218.38 13.61Q217.10 13.61 216.25 14.04Q215.40 14.47 214.90 15.22Q214.39 15.96 214.16 16.88Q213.94 17.81 213.94 18.79L213.94 18.79L213.94 24L211.18 24ZM220.85 24L220.85 12L223.61 12L223.61 24L220.85 24ZM228.72 24L228.72 17.11Q228.72 15.22 228.28 14.41Q227.83 13.61 226.75 13.61L226.75 13.61Q225.14 13.61 224.38 15.04Q223.61 16.46 223.61 18.79L223.61 18.79L223.39 17.38L223.34 15.67Q223.63 14.38 224.26 13.45Q224.88 12.53 225.79 12.02Q226.70 11.52 227.86 11.52L227.86 11.52Q229.61 11.52 230.54 12.78Q231.48 14.04 231.48 16.63L231.48 16.63L231.48 24L228.72 24ZM236.57 24L236.57 17.11Q236.57 15.22 236.12 14.41Q235.68 13.61 234.60 13.61L234.60 13.61Q233.02 13.61 232.25 15.04Q231.48 16.46 231.48 18.79L231.48 18.79L231.24 17.38L231.19 15.67Q231.48 14.38 232.10 13.45Q232.73 12.53 233.64 12.02Q234.55 11.52 235.70 11.52L235.70 11.52Q237.46 11.52 238.39 12.78Q239.33 14.04 239.33 16.63L239.33 16.63L239.33 24L236.57 24ZM246.74 24.48L246.74 24.48Q245.14 24.48 243.96 23.64Q242.78 22.80 242.14 21.32Q241.49 19.85 241.49 17.90L241.49 17.90Q241.49 16.10 242.08 14.65Q242.66 13.20 243.79 12.36Q244.92 11.52 246.55 11.52L246.55 11.52Q248.83 11.52 250.02 13.18Q251.21 14.83 251.21 17.98L251.21 17.98Q251.21 21.07 250.07 22.78Q248.93 24.48 246.74 24.48ZM247.34 22.39L247.34 22.39Q248.35 22.39 249.07 21.82Q249.79 21.24 250.20 20.22Q250.61 19.20 250.61 17.93L250.61 17.93Q250.61 16.63 250.20 15.66Q249.79 14.69 249.04 14.15Q248.28 13.61 247.30 13.61L247.30 13.61Q245.88 13.61 245.06 14.74Q244.25 15.86 244.25 17.86L244.25 17.86Q244.25 19.94 245.09 21.17Q245.93 22.39 247.34 22.39ZM253.37 24L250.61 24L250.61 12L253.37 12L253.37 24ZM261.74 21.98L262.27 23.95Q261.48 24.26 260.92 24.37Q260.35 24.48 259.80 24.48L259.80 24.48Q258.07 24.48 257.33 23.58Q256.58 22.68 256.58 20.83L256.58 20.83L256.58 6L259.34 6L259.34 20.21Q259.34 21.48 259.56 21.90Q259.78 22.32 260.33 22.32L260.33 22.32Q260.66 22.32 261.04 22.22Q261.41 22.13 261.74 21.98L261.74 21.98Z"/></svg>