<svg xmlns="http://www.w3.org/2000/svg" xmlns:xlink="http://www.w3.org/1999/xlink" width="329.016" height="30.984"><path fill="black" d="M8.23 22.97L0.79 22.97L0.79 22.18Q1.54 22.18 1.88 22.08Q2.23 21.98 2.34 21.70Q2.45 21.41 2.45 20.83L2.45 20.83L2.45 9.29Q2.45 8.69 2.34 8.40Q2.23 8.11 1.88 8.02Q1.54 7.92 0.79 7.92L0.79 7.92L0.79 7.13L13.25 7.13L13.25 10.90L12.26 10.90Q11.95 9.67 11.52 9.05Q11.09 8.42 10.40 8.22Q9.72 8.02 8.64 8.02L8.64 8.02L7.46 8.02Q6.98 8.02 6.78 8.20Q6.58 8.38 6.58 8.83L6.58 8.83L6.58 14.40L9.07 14.40Q9.70 14.40 10.04 14.23Q10.39 14.06 10.57 13.58Q10.75 13.10 10.85 12.19L10.85 12.19L11.64 12.19L11.64 17.69L10.85 17.69Q10.75 16.75 10.57 16.27Q10.39 15.79 10.04 15.62Q9.70 15.46 9.07 15.46L9.07 15.46L6.58 15.46L6.58 20.83Q6.58 21.38 6.68 21.67Q6.79 21.96 7.14 22.07Q7.49 22.18 8.23 22.18L8.23 22.18L8.23 22.97ZM21.34 22.97L14.26 22.97L14.26 22.18Q14.93 22.18 15.25 22.09Q15.58 22.01 15.68 21.76Q15.79 21.50 15.79 20.98L15.79 20.98L15.79 13.78Q15.79 13.30 15.66 13.14Q15.53 12.98 15.10 12.98L15.10 12.98L14.26 12.98L14.26 12.19L18.22 11.57L19.49 11.57L19.49 13.85L19.61 13.85L19.61 20.98Q19.61 21.48 19.74 21.73Q19.87 21.98 20.24 22.08Q20.62 22.18 21.34 22.18L21.34 22.18L21.34 22.97ZM19.61 16.54L18.86 16.54L18.86 15.67Q18.94 15.38 19.16 14.71Q19.39 14.04 19.82 13.30Q20.26 12.55 20.93 12.01Q21.60 11.47 22.61 11.47L22.61 11.47Q23.57 11.47 24.18 12.04Q24.79 12.60 24.79 13.58L24.79 13.58Q24.79 14.30 24.38 14.93Q23.98 15.55 22.97 15.55L22.97 15.55Q22.22 15.55 21.73 15.16Q21.24 14.76 21.24 14.02L21.24 14.02Q21.24 13.68 21.32 13.51Q21.41 13.34 21.48 13.25Q21.55 13.15 21.55 13.08L21.55 13.08Q21.55 13.01 21.48 12.97Q21.41 12.94 21.31 12.94L21.31 12.94Q21.02 12.94 20.72 13.30Q20.42 13.66 20.17 14.23Q19.92 14.81 19.76 15.42Q19.61 16.03 19.61 16.54L19.61 16.54ZM34.99 23.26L34.99 23.26Q34.08 23.26 33.52 22.96Q32.95 22.66 32.70 22.25Q32.45 21.84 32.45 21.53L32.45 21.53L32.45 14.30Q32.45 13.25 32.14 12.74Q31.82 12.24 30.94 12.24L30.94 12.24Q30.62 12.24 30.35 12.30Q30.07 12.36 29.90 12.50Q29.74 12.65 29.74 12.86L29.74 12.86Q29.74 13.06 29.87 13.22Q30.00 13.39 30.13 13.62Q30.26 13.85 30.26 14.26L30.26 14.26Q30.26 14.86 29.78 15.38Q29.30 15.91 28.39 15.91L28.39 15.91Q27.50 15.91 27.04 15.40Q26.57 14.88 26.57 14.33L26.57 14.33Q26.57 13.70 27.08 13.03Q27.60 12.36 28.82 11.88Q30.05 11.40 32.16 11.40L32.16 11.40Q34.37 11.40 35.33 12.42Q36.29 13.44 36.29 15.43L36.29 15.43L36.29 20.69Q36.29 21.53 36.42 21.77Q36.55 22.01 36.82 22.01L36.82 22.01Q37.15 22.01 37.36 21.91Q37.56 21.82 37.73 21.72L37.73 21.72L38.02 22.46Q37.27 22.94 36.52 23.10Q35.76 23.26 34.99 23.26ZM29.33 23.26L29.33 23.26Q27.50 23.26 26.64 22.57Q25.78 21.89 25.78 20.59L25.78 20.59Q25.78 19.37 26.81 18.48Q27.84 17.59 29.66 16.99Q31.49 16.39 33.89 16.08L33.89 16.08L33.89 16.99Q31.63 17.42 30.62 18.20Q29.62 18.98 29.62 20.23L29.62 20.23Q29.62 21.24 29.96 21.61Q30.31 21.98 30.98 21.98L30.98 21.98Q31.49 21.98 31.96 21.72Q32.42 21.46 32.81 21.12Q33.19 20.78 33.41 20.54L33.41 20.54L33.86 21.19Q33.41 21.67 32.81 22.15Q32.21 22.63 31.37 22.94Q30.53 23.26 29.33 23.26ZM52.49 22.97L46.13 22.97L46.13 22.18Q46.66 22.18 46.90 22.09Q47.14 22.01 47.21 21.77Q47.28 21.53 47.28 21.10L47.28 21.10L47.28 15.34Q47.28 14.38 47.10 13.82Q46.92 13.27 46.57 13.04Q46.22 12.82 45.72 12.82L45.72 12.82Q45.12 12.82 44.65 13.15Q44.18 13.49 43.44 14.23L43.44 14.23L43.30 13.56Q43.63 13.13 44.15 12.62Q44.66 12.12 45.47 11.76Q46.27 11.40 47.47 11.40L47.47 11.40Q49.13 11.40 50.11 12.30Q51.10 13.20 51.10 15.34L51.10 15.34L51.10 20.98Q51.10 21.48 51.19 21.73Q51.29 21.98 51.59 22.08Q51.89 22.18 52.49 22.18L52.49 22.18L52.49 22.97ZM45.02 22.97L38.38 22.97L38.38 22.18Q39.05 22.18 39.37 22.09Q39.70 22.01 39.80 21.76Q39.91 21.50 39.91 20.98L39.91 20.98L39.91 13.78Q39.91 13.30 39.78 13.14Q39.65 12.98 39.22 12.98L39.22 12.98L38.38 12.98L38.38 12.19L42.34 11.57L43.61 11.57L43.61 13.15L43.73 13.15L43.73 20.98Q43.73 21.48 43.82 21.73Q43.92 21.98 44.20 22.08Q44.47 22.18 45.02 22.18L45.02 22.18L45.02 22.97ZM59.98 22.97L53.50 22.97L53.50 22.18Q54.17 22.18 54.49 22.09Q54.82 22.01 54.92 21.76Q55.03 21.50 55.03 20.98L55.03 20.98L55.03 8.62Q55.03 8.14 54.90 7.98Q54.77 7.82 54.34 7.82L54.34 7.82L53.50 7.82L53.50 7.03L57.58 6.41L58.85 6.41L58.85 20.98Q58.85 21.48 58.90 21.73Q58.94 21.98 59.18 22.08Q59.42 22.18 59.98 22.18L59.98 22.18L59.98 22.97ZM67.51 22.97L60.86 22.97L60.86 22.18L61.30 22.18Q61.54 22.18 61.62 22.12Q61.70 22.06 61.70 21.94L61.70 21.94Q61.70 21.82 61.54 21.55Q61.37 21.29 61.18 20.98L61.18 20.98L58.87 17.26L61.42 14.78L65.02 19.92Q65.54 20.66 65.95 21.17Q66.36 21.67 66.68 21.92Q67.01 22.18 67.27 22.18L67.27 22.18L67.51 22.18L67.51 22.97ZM62.40 14.78L56.23 20.21L56.23 19.10L61.92 14.09Q62.81 13.30 62.81 12.88Q62.81 12.46 62.28 12.46L62.28 12.46L61.66 12.46L61.66 11.66L66.34 11.69L66.34 12.48L66.24 12.48Q65.18 12.48 64.34 13.15Q63.50 13.82 62.40 14.78L62.40 14.78ZM80.81 22.97L73.46 22.97L73.46 22.18Q74.26 22.18 74.60 22.08Q74.95 21.98 75.04 21.70Q75.12 21.41 75.12 20.83L75.12 20.83L75.12 9.29Q75.12 8.69 75.01 8.40Q74.90 8.11 74.56 8.02Q74.21 7.92 73.46 7.92L73.46 7.92L73.46 7.13L80.83 7.13Q83.04 7.13 84.41 7.58Q85.78 8.04 86.42 8.90Q87.07 9.77 87.07 11.02L87.07 11.02Q87.07 12.24 86.51 13.07Q85.94 13.90 85.02 14.35Q84.10 14.81 82.99 15L82.99 15L82.99 15.05Q83.98 15.22 84.58 15.56Q85.18 15.91 85.54 16.56Q85.90 17.21 86.11 18.29L86.11 18.29L86.40 19.63Q86.62 20.54 86.83 21.11Q87.05 21.67 87.44 21.92Q87.84 22.18 88.58 22.18L88.58 22.18L88.58 22.97L83.86 22.97Q83.52 22.70 83.21 22.09Q82.90 21.48 82.73 20.76L82.73 20.76L82.01 17.45Q81.84 16.61 81.47 16.12Q81.10 15.62 80.23 15.62L80.23 15.62L79.25 15.62L79.25 20.83Q79.25 21.41 79.36 21.70Q79.46 21.98 79.80 22.08Q80.14 22.18 80.81 22.18L80.81 22.18L80.81 22.97ZM79.25 8.86L79.25 14.66L79.92 14.66Q81.53 14.66 82.27 13.87Q83.02 13.08 83.02 11.30L83.02 11.30Q83.02 9.67 82.36 8.84Q81.70 8.02 80.14 8.02L80.14 8.02Q79.58 8.02 79.42 8.17Q79.25 8.33 79.25 8.86L79.25 8.86ZM94.30 23.26L94.30 23.26Q92.64 23.26 91.66 22.34Q90.67 21.43 90.67 19.32L90.67 19.32L90.67 13.78Q90.67 13.30 90.54 13.14Q90.41 12.98 89.98 12.98L89.98 12.98L89.14 12.98L89.14 12.19L93.17 11.57L94.49 11.57L94.49 19.32Q94.49 20.28 94.67 20.83Q94.85 21.38 95.21 21.61Q95.57 21.84 96.05 21.84L96.05 21.84Q96.46 21.84 96.79 21.70Q97.13 21.55 97.49 21.23Q97.85 20.90 98.33 20.42L98.33 20.42L98.47 21.10Q98.14 21.53 97.62 22.03Q97.10 22.54 96.30 22.90Q95.50 23.26 94.30 23.26ZM103.25 22.97L98.16 22.97L98.16 21.50L98.04 21.50L98.04 13.78Q98.04 13.30 97.91 13.14Q97.78 12.98 97.34 12.98L97.34 12.98L96.50 12.98L96.50 12.19L100.54 11.57L101.86 11.57L101.86 21.43Q101.86 21.77 101.95 21.94Q102.05 22.10 102.35 22.14Q102.65 22.18 103.25 22.18L103.25 22.18L103.25 22.97ZM118.34 22.97L111.98 22.97L111.98 22.18Q112.51 22.18 112.75 22.09Q112.99 22.01 113.06 21.77Q113.14 21.53 113.14 21.10L113.14 21.10L113.14 15.34Q113.14 14.38 112.96 13.82Q112.78 13.27 112.43 13.04Q112.08 12.82 111.58 12.82L111.58 12.82Q110.98 12.82 110.51 13.15Q110.04 13.49 109.30 14.23L109.30 14.23L109.15 13.56Q109.49 13.13 110.00 12.62Q110.52 12.12 111.32 11.76Q112.13 11.40 113.33 11.40L113.33 11.40Q114.98 11.40 115.97 12.30Q116.95 13.20 116.95 15.34L116.95 15.34L116.95 20.98Q116.95 21.48 117.05 21.73Q117.14 21.98 117.44 22.08Q117.74 22.18 118.34 22.18L118.34 22.18L118.34 22.97ZM110.88 22.97L104.23 22.97L104.23 22.18Q104.90 22.18 105.23 22.09Q105.55 22.01 105.66 21.76Q105.77 21.50 105.77 20.98L105.77 20.98L105.77 8.62Q105.77 8.14 105.64 7.98Q105.50 7.82 105.07 7.82L105.07 7.82L104.23 7.82L104.23 7.03L108.31 6.41L109.58 6.41L109.58 20.98Q109.58 21.48 109.68 21.73Q109.78 21.98 110.05 22.08Q110.33 22.18 110.88 22.18L110.88 22.18L110.88 22.97ZM109.73 13.20L108.46 13.20L108.46 13.01L109.73 13.01L109.73 13.20ZM126 22.97L119.35 22.97L119.35 22.18Q120.02 22.18 120.35 22.09Q120.67 22.01 120.78 21.74Q120.89 21.48 120.89 20.98L120.89 20.98L120.89 8.62Q120.89 8.14 120.76 7.98Q120.62 7.82 120.19 7.82L120.19 7.82L119.35 7.82L119.35 7.03L123.43 6.41L124.70 6.41L124.70 20.98Q124.70 21.48 124.80 21.73Q124.90 21.98 125.17 22.08Q125.45 22.18 126 22.18L126 22.18L126 22.97ZM145.20 22.97L132.48 22.97L132.48 22.18Q133.27 22.18 133.62 22.09Q133.97 22.01 134.05 21.72Q134.14 21.43 134.14 20.83L134.14 20.83L134.14 9.31Q134.14 8.69 134.04 8.40Q133.94 8.11 133.60 8.02Q133.25 7.92 132.48 7.92L132.48 7.92L132.48 7.13L139.90 7.13L139.90 7.92Q139.18 7.92 138.83 8.02Q138.48 8.11 138.37 8.40Q138.26 8.69 138.26 9.31L138.26 9.31L138.26 20.74Q138.26 21.31 138.34 21.60Q138.41 21.89 138.73 21.98Q139.06 22.08 139.75 22.08L139.75 22.08Q141.05 22.08 142.01 21.80Q142.97 21.53 143.60 20.82Q144.24 20.11 144.50 18.79L144.50 18.79L145.49 18.79L145.20 22.97ZM153.10 22.97L146.45 22.97L146.45 22.18Q147.12 22.18 147.44 22.09Q147.77 22.01 147.88 21.76Q147.98 21.50 147.98 20.98L147.98 20.98L147.98 13.78Q147.98 13.30 147.85 13.14Q147.72 12.98 147.29 12.98L147.29 12.98L146.45 12.98L146.45 12.19L150.48 11.57L151.80 11.57L151.80 20.98Q151.80 21.48 151.90 21.73Q151.99 21.98 152.27 22.08Q152.54 22.18 153.10 22.18L153.10 22.18L153.10 22.97ZM149.78 10.42L149.78 10.42Q148.92 10.42 148.22 9.79Q147.53 9.17 147.53 8.28L147.53 8.28Q147.53 7.39 148.22 6.77Q148.92 6.14 149.78 6.14L149.78 6.14Q150.36 6.14 150.86 6.43Q151.37 6.72 151.69 7.20Q152.02 7.68 152.02 8.28L152.02 8.28Q152.02 9.17 151.33 9.79Q150.65 10.42 149.78 10.42ZM161.40 23.26L161.40 23.26Q160.63 23.26 160.01 23.11Q159.38 22.97 158.83 22.73Q158.28 22.49 157.75 22.18L157.75 22.18L157.75 19.10Q157.99 19.54 158.30 20.11Q158.62 20.69 159.04 21.22Q159.46 21.74 160.01 22.10Q160.56 22.46 161.28 22.46L161.28 22.46Q162.46 22.46 162.95 21.34Q163.44 20.21 163.44 17.38L163.44 17.38Q163.44 15.17 162.96 13.90Q162.48 12.62 161.30 12.62L161.30 12.62Q160.68 12.62 160.16 13.01Q159.65 13.39 159.30 13.85Q158.95 14.30 158.81 14.52L158.81 14.52L158.81 13.22Q159.29 12.72 159.80 12.31Q160.32 11.90 161.02 11.65Q161.71 11.40 162.67 11.40L162.67 11.40Q164.88 11.40 166.16 12.84Q167.45 14.28 167.45 17.06L167.45 17.06Q167.45 19.06 166.72 20.44Q165.98 21.82 164.64 22.54Q163.30 23.26 161.40 23.26ZM156.96 22.97L155.64 22.97L155.64 8.62Q155.64 8.14 155.51 7.98Q155.38 7.82 154.94 7.82L154.94 7.82L154.10 7.82L154.10 7.01L158.14 6.41L159.46 6.41L159.46 22.18L157.75 22.18L156.96 22.97ZM159.77 12.89L158.59 12.89L158.59 12.58L159.77 12.58L159.77 12.89ZM175.68 22.97L168.60 22.97L168.60 22.18Q169.27 22.18 169.60 22.09Q169.92 22.01 170.03 21.76Q170.14 21.50 170.14 20.98L170.14 20.98L170.14 13.78Q170.14 13.30 170.00 13.14Q169.87 12.98 169.44 12.98L169.44 12.98L168.60 12.98L168.60 12.19L172.56 11.57L173.83 11.57L173.83 13.85L173.95 13.85L173.95 20.98Q173.95 21.48 174.08 21.73Q174.22 21.98 174.59 22.08Q174.96 22.18 175.68 22.18L175.68 22.18L175.68 22.97ZM173.95 16.54L173.21 16.54L173.21 15.67Q173.28 15.38 173.51 14.71Q173.74 14.04 174.17 13.30Q174.60 12.55 175.27 12.01Q175.94 11.47 176.95 11.47L176.95 11.47Q177.91 11.47 178.52 12.04Q179.14 12.60 179.14 13.58L179.14 13.58Q179.14 14.30 178.73 14.93Q178.32 15.55 177.31 15.55L177.31 15.55Q176.57 15.55 176.08 15.16Q175.58 14.76 175.58 14.02L175.58 14.02Q175.58 13.68 175.67 13.51Q175.75 13.34 175.82 13.25Q175.90 13.15 175.90 13.08L175.90 13.08Q175.90 13.01 175.82 12.97Q175.75 12.94 175.66 12.94L175.66 12.94Q175.37 12.94 175.07 13.30Q174.77 13.66 174.52 14.23Q174.26 14.81 174.11 15.42Q173.95 16.03 173.95 16.54L173.95 16.54ZM185.64 23.26L185.64 23.26Q182.93 23.26 181.50 21.77Q180.07 20.28 180.07 17.35L180.07 17.35Q180.07 15.36 180.72 14.04Q181.37 12.72 182.64 12.06Q183.91 11.40 185.76 11.40L185.76 11.40Q187.15 11.40 188.18 11.77Q189.22 12.14 189.89 12.89Q190.56 13.63 190.90 14.71Q191.23 15.79 191.23 17.23L191.23 17.23L191.23 17.38L182.11 17.38L182.11 16.58L187.22 16.58Q187.22 15 187.08 14.04Q186.94 13.08 186.60 12.64Q186.26 12.19 185.66 12.19L185.66 12.19Q185.18 12.19 184.82 12.54Q184.46 12.89 184.27 13.84Q184.08 14.78 184.08 16.61L184.08 16.61Q184.08 18.07 184.22 19.06Q184.37 20.04 184.68 20.64Q184.99 21.24 185.50 21.50Q186 21.77 186.72 21.77L186.72 21.77Q187.56 21.77 188.18 21.48Q188.81 21.19 189.26 20.68Q189.72 20.16 190.01 19.51L190.01 19.51L190.87 19.92Q190.54 20.66 189.98 21.44Q189.43 22.22 188.41 22.74Q187.39 23.26 185.64 23.26ZM200.21 23.69L200.21 23.69L200.21 22.90Q201.17 22.90 202.26 22.49Q203.35 22.08 204.32 21.19Q205.30 20.30 205.91 18.89Q206.52 17.47 206.52 15.43L206.52 15.43L206.50 15.41Q205.99 16.08 205.21 16.61Q204.43 17.14 203.04 17.14L203.04 17.14Q201.60 17.14 200.52 16.49Q199.44 15.84 198.84 14.70Q198.24 13.56 198.24 12.07L198.24 12.07Q198.24 10.44 198.96 9.26Q199.68 8.09 201.02 7.46Q202.37 6.84 204.24 6.84L204.24 6.84Q206.26 6.84 207.67 7.61Q209.09 8.38 209.83 9.92Q210.58 11.47 210.58 13.82L210.58 13.82Q210.58 16.08 209.89 17.89Q209.21 19.70 207.88 21Q206.54 22.30 204.61 22.99Q202.68 23.69 200.21 23.69ZM204.34 15.86L204.34 15.86Q205.32 15.86 205.91 14.83Q206.50 13.80 206.50 11.81L206.50 11.81Q206.50 10.73 206.29 9.77Q206.09 8.81 205.61 8.22Q205.13 7.63 204.29 7.63L204.29 7.63Q203.50 7.63 203.00 8.18Q202.51 8.74 202.30 9.65Q202.08 10.56 202.08 11.66L202.08 11.66Q202.08 13.58 202.68 14.72Q203.28 15.86 204.34 15.86ZM218.95 23.26L218.95 23.26Q217.49 23.26 216.32 22.70Q215.16 22.15 214.37 21.10Q213.58 20.04 213.16 18.52Q212.74 16.99 212.74 15.05L212.74 15.05Q212.74 13.10 213.16 11.58Q213.58 10.06 214.37 9Q215.16 7.94 216.32 7.39Q217.49 6.84 218.95 6.84L218.95 6.84Q220.44 6.84 221.59 7.39Q222.74 7.94 223.54 9Q224.33 10.06 224.75 11.58Q225.17 13.10 225.17 15.05L225.17 15.05Q225.17 16.99 224.75 18.52Q224.33 20.04 223.54 21.10Q222.74 22.15 221.59 22.70Q220.44 23.26 218.95 23.26ZM218.95 22.46L218.95 22.46Q219.48 22.46 219.89 22.16Q220.30 21.86 220.58 21.07Q220.87 20.28 221.02 18.83Q221.16 17.38 221.16 15.10L221.16 15.10Q221.16 12.14 220.91 10.52Q220.66 8.90 220.16 8.27Q219.67 7.63 218.95 7.63L218.95 7.63Q218.23 7.63 217.74 8.27Q217.25 8.90 217.00 10.52Q216.74 12.14 216.74 15.10L216.74 15.10Q216.74 17.38 216.89 18.83Q217.03 20.28 217.32 21.07Q217.61 21.86 218.02 22.16Q218.42 22.46 218.95 22.46ZM233.54 23.26L233.54 23.26Q232.08 23.26 230.92 22.70Q229.75 22.15 228.96 21.10Q228.17 20.04 227.75 18.52Q227.33 16.99 227.33 15.05L227.33 15.05Q227.33 13.10 227.75 11.58Q228.17 10.06 228.96 9Q229.75 7.94 230.92 7.39Q232.08 6.84 233.54 6.84L233.54 6.84Q235.03 6.84 236.18 7.39Q237.34 7.94 238.13 9Q238.92 10.06 239.34 11.58Q239.76 13.10 239.76 15.05L239.76 15.05Q239.76 16.99 239.34 18.52Q238.92 20.04 238.13 21.10Q237.34 22.15 236.18 22.70Q235.03 23.26 233.54 23.26ZM233.54 22.46L233.54 22.46Q234.07 22.46 234.48 22.16Q234.89 21.86 235.18 21.07Q235.46 20.28 235.61 18.83Q235.75 17.38 235.75 15.10L235.75 15.10Q235.75 12.14 235.50 10.52Q235.25 8.90 234.76 8.27Q234.26 7.63 233.54 7.63L233.54 7.63Q232.82 7.63 232.33 8.27Q231.84 8.90 231.59 10.52Q231.34 12.14 231.34 15.10L231.34 15.10Q231.34 17.38 231.48 18.83Q231.62 20.28 231.91 21.07Q232.20 21.86 232.61 22.16Q233.02 22.46 233.54 22.46ZM260.54 22.97L254.18 22.97L254.18 22.18Q254.71 22.18 254.95 22.09Q255.19 22.01 255.26 21.77Q255.34 21.53 255.34 21.10L255.34 21.10L255.34 15.34Q255.34 14.38 255.16 13.82Q254.98 13.27 254.63 13.04Q254.28 12.82 253.78 12.82L253.78 12.82Q253.18 12.82 252.71 13.15Q252.24 13.49 251.50 14.23L251.50 14.23L251.35 13.56Q251.69 13.13 252.20 12.62Q252.72 12.12 253.52 11.76Q254.33 11.40 255.53 11.40L255.53 11.40Q257.18 11.40 258.17 12.30Q259.15 13.20 259.15 15.34L259.15 15.34L259.15 20.98Q259.15 21.48 259.25 21.73Q259.34 21.98 259.64 22.08Q259.94 22.18 260.54 22.18L260.54 22.18L260.54 22.97ZM253.08 22.97L246.43 22.97L246.43 22.18Q247.10 22.18 247.43 22.09Q247.75 22.01 247.86 21.76Q247.97 21.50 247.97 20.98L247.97 20.98L247.97 13.78Q247.97 13.30 247.84 13.14Q247.70 12.98 247.27 12.98L247.27 12.98L246.43 12.98L246.43 12.19L250.39 11.57L251.66 11.57L251.66 13.15L251.78 13.15L251.78 20.98Q251.78 21.48 251.88 21.73Q251.98 21.98 252.25 22.08Q252.53 22.18 253.08 22.18L253.08 22.18L253.08 22.97ZM267.94 23.26L267.94 23.26Q264.82 23.26 263.28 21.79Q261.74 20.33 261.74 17.35L261.74 17.35Q261.74 14.33 263.30 12.86Q264.86 11.40 267.98 11.40L267.98 11.40Q271.08 11.40 272.59 12.85Q274.10 14.30 274.10 17.30L274.10 17.30Q274.10 20.33 272.59 21.79Q271.08 23.26 267.94 23.26ZM267.96 22.49L267.96 22.49Q269.14 22.49 269.64 21.24Q270.14 19.99 270.10 17.30L270.10 17.30Q270.07 14.66 269.59 13.42Q269.11 12.17 267.91 12.17L267.91 12.17Q266.69 12.17 266.22 13.55Q265.75 14.93 265.75 17.42L265.75 17.42Q265.75 20.09 266.23 21.29Q266.71 22.49 267.96 22.49ZM282.31 22.97L275.23 22.97L275.23 22.18Q275.90 22.18 276.23 22.09Q276.55 22.01 276.66 21.76Q276.77 21.50 276.77 20.98L276.77 20.98L276.77 13.78Q276.77 13.30 276.64 13.14Q276.50 12.98 276.07 12.98L276.07 12.98L275.23 12.98L275.23 12.19L279.19 11.57L280.46 11.57L280.46 13.85L280.58 13.85L280.58 20.98Q280.58 21.48 280.72 21.73Q280.85 21.98 281.22 22.08Q281.59 22.18 282.31 22.18L282.31 22.18L282.31 22.97ZM280.58 16.54L279.84 16.54L279.84 15.67Q279.91 15.38 280.14 14.71Q280.37 14.04 280.80 13.30Q281.23 12.55 281.90 12.01Q282.58 11.47 283.58 11.47L283.58 11.47Q284.54 11.47 285.16 12.04Q285.77 12.60 285.77 13.58L285.77 13.58Q285.77 14.30 285.36 14.93Q284.95 15.55 283.94 15.55L283.94 15.55Q283.20 15.55 282.71 15.16Q282.22 14.76 282.22 14.02L282.22 14.02Q282.22 13.68 282.30 13.51Q282.38 13.34 282.46 13.25Q282.53 13.15 282.53 13.08L282.53 13.08Q282.53 13.01 282.46 12.97Q282.38 12.94 282.29 12.94L282.29 12.94Q282 12.94 281.70 13.30Q281.40 13.66 281.15 14.23Q280.90 14.81 280.74 15.42Q280.58 16.03 280.58 16.54L280.58 16.54ZM307.94 22.97L301.54 22.97L301.54 22.18Q302.06 22.18 302.32 22.09Q302.57 22.01 302.65 21.77Q302.74 21.53 302.74 21.10L302.74 21.10L302.74 15.34Q302.74 14.40 302.53 13.85Q302.33 13.30 301.96 13.06Q301.58 12.82 301.08 12.82L301.08 12.82Q300.55 12.82 300.17 13.06Q299.78 13.30 299.54 13.73Q299.30 14.16 299.18 14.74L299.18 14.74L298.39 14.47Q298.85 12.94 299.86 12.17Q300.86 11.40 302.64 11.40L302.64 11.40Q304.46 11.40 305.51 12.29Q306.55 13.18 306.55 15.34L306.55 15.34L306.55 20.98Q306.55 21.48 306.65 21.73Q306.74 21.98 307.04 22.08Q307.34 22.18 307.94 22.18L307.94 22.18L307.94 22.97ZM293.11 22.97L286.46 22.97L286.46 22.18Q287.14 22.18 287.46 22.09Q287.78 22.01 287.89 21.76Q288.00 21.50 288.00 20.98L288.00 20.98L288.00 13.78Q288.00 13.30 287.87 13.14Q287.74 12.98 287.30 12.98L287.30 12.98L286.46 12.98L286.46 12.19L290.42 11.57L291.70 11.57L291.70 13.15L291.82 13.15L291.82 20.98Q291.82 21.48 291.91 21.73Q292.01 21.98 292.28 22.08Q292.56 22.18 293.11 22.18L293.11 22.18L293.11 22.97ZM300.43 22.97L294.22 22.97L294.22 22.18Q294.74 22.18 294.98 22.09Q295.22 22.01 295.30 21.77Q295.37 21.53 295.37 21.10L295.37 21.10L295.37 15.34Q295.37 14.38 295.19 13.82Q295.01 13.27 294.66 13.04Q294.31 12.82 293.81 12.82L293.81 12.82Q293.40 12.82 293.06 12.96Q292.73 13.10 292.38 13.42Q292.03 13.73 291.53 14.23L291.53 14.23L291.38 13.56Q291.77 13.08 292.30 12.59Q292.82 12.10 293.62 11.75Q294.41 11.40 295.56 11.40L295.56 11.40Q296.78 11.40 297.59 11.82Q298.39 12.24 298.79 12.95Q299.18 13.66 299.18 14.57L299.18 14.57L299.18 20.98Q299.18 21.48 299.27 21.73Q299.35 21.98 299.62 22.08Q299.88 22.18 300.43 22.18L300.43 22.18L300.43 22.97ZM318.38 23.26L318.38 23.26Q317.47 23.26 316.91 22.96Q316.34 22.66 316.09 22.25Q315.84 21.84 315.84 21.53L315.84 21.53L315.84 14.30Q315.84 13.25 315.53 12.74Q315.22 12.24 314.33 12.24L314.33 12.24Q314.02 12.24 313.74 12.30Q313.46 12.36 313.30 12.50Q313.13 12.65 313.13 12.86L313.13 12.86Q313.13 13.06 313.26 13.22Q313.39 13.39 313.52 13.62Q313.66 13.85 313.66 14.26L313.66 14.26Q313.66 14.86 313.18 15.38Q312.70 15.91 311.78 15.91L311.78 15.91Q310.90 15.91 310.43 15.40Q309.96 14.88 309.96 14.33L309.96 14.33Q309.96 13.70 310.48 13.03Q310.99 12.36 312.22 11.88Q313.44 11.40 315.55 11.40L315.55 11.40Q317.76 11.40 318.72 12.42Q319.68 13.44 319.68 15.43L319.68 15.43L319.68 20.69Q319.68 21.53 319.81 21.77Q319.94 22.01 320.21 22.01L320.21 22.01Q320.54 22.01 320.75 21.91Q320.95 21.82 321.12 21.72L321.12 21.72L321.41 22.46Q320.66 22.94 319.91 23.10Q319.15 23.26 318.38 23.26ZM312.72 23.26L312.72 23.26Q310.90 23.26 310.03 22.57Q309.17 21.89 309.17 20.59L309.17 20.59Q309.17 19.37 310.20 18.48Q311.23 17.59 313.06 16.99Q314.88 16.39 317.28 16.08L317.28 16.08L317.28 16.99Q315.02 17.42 314.02 18.20Q313.01 18.98 313.01 20.23L313.01 20.23Q313.01 21.24 313.36 21.61Q313.70 21.98 314.38 21.98L314.38 21.98Q314.88 21.98 315.35 21.72Q315.82 21.46 316.20 21.12Q316.58 20.78 316.80 20.54L316.80 20.54L317.26 21.19Q316.80 21.67 316.20 22.15Q315.60 22.63 314.76 22.94Q313.92 23.26 312.72 23.26ZM328.46 22.97L321.82 22.97L321.82 22.18Q322.49 22.18 322.81 22.09Q323.14 22.01 323.24 21.74Q323.35 21.48 323.35 20.98L323.35 20.98L323.35 8.62Q323.35 8.14 323.22 7.98Q323.09 7.82 322.66 7.82L322.66 7.82L321.82 7.82L321.82 7.03L325.90 6.41L327.17 6.41L327.17 20.98Q327.17 21.48 327.26 21.73Q327.36 21.98 327.64 22.08Q327.91 22.18 328.46 22.18L328.46 22.18L328.46 22.97Z"/></svg>