<svg xmlns="http://www.w3.org/2000/svg" xmlns:xlink="http://www.w3.org/1999/xlink" width="232.08" height="27.6"><path fill="black" d="M6.84 21.79Q5.28 21.79 4.02 21.12Q2.76 20.45 2.04 19.19Q1.32 17.93 1.32 16.25L1.32 16.25Q1.32 13.90 2.76 11.33Q4.20 8.76 6.42 7.04Q8.64 5.33 10.78 5.33L10.78 5.33Q11.78 5.33 12.66 5.68Q13.54 6.02 14.04 6.50L14.04 6.50Q14.09 6.24 14.26 6.10Q14.42 5.95 14.64 5.95L14.64 5.95Q14.83 5.95 14.94 6.11Q15.05 6.26 15 6.50L15 6.50L14.69 7.99Q14.64 8.23 14.47 8.38Q14.30 8.52 14.14 8.52L14.14 8.52Q13.92 8.52 13.79 8.38Q13.66 8.23 13.70 8.02L13.70 8.02L13.75 7.73Q13.32 7.06 12.53 6.66Q11.74 6.26 10.66 6.26L10.66 6.26Q8.83 6.26 6.86 7.86Q4.90 9.46 3.60 11.80Q2.30 14.14 2.30 16.13L2.30 16.13Q2.30 17.57 2.95 18.64Q3.60 19.70 4.68 20.28Q5.76 20.86 7.06 20.86L7.06 20.86Q8.47 20.86 9.86 20.26Q11.26 19.66 12.48 18.38L12.48 18.38Q12.72 18.19 12.91 18.19L12.91 18.19Q13.08 18.19 13.20 18.31Q13.32 18.43 13.32 18.60L13.32 18.60Q13.32 18.79 13.10 19.06L13.10 19.06Q11.83 20.35 10.20 21.07Q8.57 21.79 6.84 21.79L6.84 21.79ZM19.39 21.82Q17.66 21.82 16.64 20.63Q15.62 19.44 15.62 17.59L15.62 17.59Q15.62 15.74 16.63 13.90Q17.64 12.05 19.28 10.86Q20.93 9.67 22.68 9.67L22.68 9.67Q23.81 9.67 24.67 10.24Q25.54 10.80 26.00 11.77Q26.47 12.74 26.47 13.94L26.47 13.94Q26.47 15.79 25.45 17.63Q24.43 19.46 22.80 20.64Q21.17 21.82 19.39 21.82L19.39 21.82ZM19.61 20.98Q21.05 20.98 22.42 19.93Q23.78 18.89 24.64 17.27Q25.49 15.65 25.49 14.06L25.49 14.06Q25.49 12.48 24.68 11.53Q23.88 10.58 22.49 10.58L22.49 10.58Q21.05 10.58 19.69 11.63Q18.34 12.67 17.48 14.27Q16.63 15.86 16.63 17.45L16.63 17.45Q16.63 19.03 17.42 20.00Q18.22 20.98 19.61 20.98L19.61 20.98ZM28.94 21.74Q28.75 21.74 28.64 21.61Q28.54 21.48 28.58 21.29L28.58 21.29L30.91 10.25Q30.94 10.06 31.12 9.91Q31.30 9.77 31.49 9.77L31.49 9.77Q31.70 9.77 31.81 9.91Q31.92 10.06 31.87 10.25L31.87 10.25L31.10 13.99Q32.35 12.19 34.03 10.98Q35.71 9.77 37.06 9.77L37.06 9.77Q38.06 9.77 38.71 10.36Q39.36 10.94 39.36 12.31L39.36 12.31Q39.36 12.67 39.34 12.89L39.34 12.89Q39.98 11.90 40.90 11.20Q41.81 10.49 42.72 10.13Q43.63 9.77 44.30 9.77L44.30 9.77Q46.85 9.77 46.85 12.36L46.85 12.36Q46.85 13.18 46.66 14.02L46.66 14.02L45.12 21.29Q45.07 21.48 44.90 21.61Q44.74 21.74 44.54 21.74L44.54 21.74Q44.33 21.74 44.22 21.61Q44.11 21.48 44.16 21.29L44.16 21.29L45.70 13.94Q45.89 13.03 45.89 12.46L45.89 12.46Q45.89 11.52 45.44 11.09Q45 10.66 44.09 10.66L44.09 10.66Q43.30 10.66 42.17 11.28Q41.04 11.90 40.10 13.01Q39.17 14.11 38.86 15.50L38.86 15.50L37.66 21.29Q37.63 21.46 37.44 21.60Q37.25 21.74 37.06 21.74L37.06 21.74Q36.86 21.74 36.74 21.61Q36.62 21.48 36.67 21.29L36.67 21.29L38.21 13.94Q38.40 12.98 38.40 12.43L38.40 12.43Q38.40 10.66 36.82 10.66L36.82 10.66Q35.90 10.66 34.72 11.46Q33.53 12.26 32.59 13.25L32.59 13.25Q31.61 14.30 31.15 15.06Q30.70 15.82 30.46 16.97L30.46 16.97L29.54 21.29Q29.50 21.48 29.33 21.61Q29.16 21.74 28.94 21.74L28.94 21.74ZM52.97 7.20Q52.80 7.20 52.69 7.06Q52.58 6.91 52.61 6.72L52.61 6.72L52.85 5.71Q52.87 5.54 53.06 5.39Q53.26 5.23 53.45 5.23L53.45 5.23Q53.66 5.23 53.76 5.39Q53.86 5.54 53.81 5.74L53.81 5.74L53.57 6.74Q53.52 6.96 53.35 7.08Q53.18 7.20 52.97 7.20L52.97 7.20ZM49.75 21.74Q49.56 21.74 49.43 21.60Q49.30 21.46 49.34 21.24L49.34 21.24L51.79 10.34Q51.84 10.13 52.03 9.98Q52.22 9.84 52.42 9.84L52.42 9.84Q52.63 9.84 52.75 10.00Q52.87 10.15 52.82 10.37L52.82 10.37L50.38 21.24Q50.33 21.46 50.12 21.60Q49.92 21.74 49.75 21.74L49.75 21.74ZM59.06 21.74Q57.89 21.74 56.93 21.22Q55.97 20.69 55.42 19.76Q54.86 18.84 54.86 17.66L54.86 17.66Q54.86 16.01 55.93 14.15Q57 12.29 58.62 11.02Q60.24 9.74 61.75 9.74L61.75 9.74Q63 9.74 63.70 10.15Q64.39 10.56 64.97 11.42L64.97 11.42Q65.02 11.47 65.02 11.62L65.02 11.62Q65.02 11.86 64.85 12.04Q64.68 12.22 64.49 12.22L64.49 12.22Q64.27 12.22 64.18 12.07L64.18 12.07Q63.70 11.35 63.13 10.98Q62.57 10.61 61.63 10.61L61.63 10.61Q60.34 10.61 58.97 11.74Q57.60 12.86 56.70 14.51Q55.80 16.15 55.80 17.57L55.80 17.57Q55.80 18.72 56.38 19.46Q56.95 20.21 57.73 20.54Q58.51 20.88 59.18 20.88L59.18 20.88Q61.51 20.88 63.26 19.03L63.26 19.03Q63.53 18.72 63.82 18.72L63.82 18.72Q63.98 18.72 64.09 18.82Q64.20 18.91 64.20 19.06L64.20 19.06Q64.20 19.25 63.94 19.51L63.94 19.51Q63.05 20.52 61.72 21.13Q60.38 21.74 59.06 21.74L59.06 21.74ZM75.29 21.74Q75.07 21.74 74.95 21.59Q74.83 21.43 74.88 21.22L74.88 21.22L78.14 5.88Q78.17 5.66 78.34 5.53Q78.50 5.40 78.70 5.40L78.70 5.40Q79.03 5.40 79.18 5.74L79.18 5.74L85.82 19.78L88.80 5.86Q88.85 5.62 89.00 5.50Q89.16 5.38 89.35 5.38L89.35 5.38Q89.57 5.38 89.70 5.53Q89.83 5.69 89.78 5.90L89.78 5.90L86.50 21.26Q86.38 21.74 85.97 21.74L85.97 21.74Q85.61 21.74 85.44 21.36L85.44 21.36L78.82 7.37L75.86 21.26Q75.82 21.46 75.66 21.60Q75.50 21.74 75.29 21.74L75.29 21.74ZM96.00 21.74Q94.54 21.74 93.47 21.17Q92.40 20.59 91.84 19.60Q91.27 18.60 91.27 17.33L91.27 17.33Q91.27 15.48 92.22 13.72Q93.17 11.95 94.75 10.86Q96.34 9.77 98.14 9.77L98.14 9.77Q99.41 9.77 100.27 10.22Q101.14 10.68 101.53 11.33Q101.93 11.98 101.93 12.58L101.93 12.58Q101.93 12.94 101.81 13.10Q101.69 13.27 101.35 13.46L101.35 13.46L92.35 18.02Q92.45 19.34 93.54 20.11Q94.63 20.88 96.12 20.88L96.12 20.88Q97.06 20.88 98.11 20.48Q99.17 20.09 99.79 19.56L99.79 19.56Q100.15 19.27 100.34 19.27L100.34 19.27Q100.49 19.27 100.60 19.38Q100.70 19.49 100.70 19.63L100.70 19.63Q100.70 19.87 100.34 20.16L100.34 20.16Q99.50 20.83 98.33 21.29Q97.15 21.74 96.00 21.74L96.00 21.74ZM101.02 12.79Q100.90 11.76 100.14 11.21Q99.38 10.66 97.97 10.66L97.97 10.66Q96.77 10.66 95.66 11.29Q94.56 11.93 93.77 12.98L93.77 12.98Q93.05 13.94 92.64 15.02Q92.23 16.10 92.23 17.16L92.23 17.16L101.02 12.79ZM106.61 21.74Q105.26 21.74 104.59 21.06Q103.92 20.38 103.92 18.86L103.92 18.86Q103.92 17.42 104.50 14.87Q105.07 12.31 105.77 10.39L105.77 10.39Q105.98 9.74 106.39 9.74L106.39 9.74Q106.78 9.74 106.78 10.10L106.78 10.10Q106.78 10.30 106.73 10.39L106.73 10.39Q105.89 12.70 105.36 15.07Q104.83 17.45 104.83 18.65L104.83 18.65Q104.83 20.95 106.75 20.95L106.75 20.95Q107.88 20.95 108.92 20.56Q109.97 20.16 110.66 19.63L110.66 19.63Q111.79 18.82 111.98 17.74L111.98 17.74L113.62 10.18Q113.64 10.01 113.82 9.88Q114.00 9.74 114.19 9.74L114.19 9.74Q114.38 9.74 114.49 9.88Q114.60 10.01 114.58 10.18L114.58 10.18L112.22 21.22Q112.18 21.46 112.02 21.60Q111.86 21.74 111.62 21.74L111.62 21.74Q111.38 21.74 111.29 21.58Q111.19 21.41 111.24 21.14L111.24 21.14L111.58 19.66Q110.83 20.52 109.42 21.13Q108.00 21.74 106.61 21.74L106.61 21.74ZM121.39 21.74Q119.93 21.74 118.86 21.17Q117.79 20.59 117.23 19.60Q116.66 18.60 116.66 17.33L116.66 17.33Q116.66 15.48 117.61 13.72Q118.56 11.95 120.14 10.86Q121.73 9.77 123.53 9.77L123.53 9.77Q124.80 9.77 125.66 10.22Q126.53 10.68 126.92 11.33Q127.32 11.98 127.32 12.58L127.32 12.58Q127.32 12.94 127.20 13.10Q127.08 13.27 126.74 13.46L126.74 13.46L117.74 18.02Q117.84 19.34 118.93 20.11Q120.02 20.88 121.51 20.88L121.51 20.88Q122.45 20.88 123.50 20.48Q124.56 20.09 125.18 19.56L125.18 19.56Q125.54 19.27 125.74 19.27L125.74 19.27Q125.88 19.27 125.99 19.38Q126.10 19.49 126.10 19.63L126.10 19.63Q126.10 19.87 125.74 20.16L125.74 20.16Q124.90 20.83 123.72 21.29Q122.54 21.74 121.39 21.74L121.39 21.74ZM126.41 12.79Q126.29 11.76 125.53 11.21Q124.78 10.66 123.36 10.66L123.36 10.66Q122.16 10.66 121.06 11.29Q119.95 11.93 119.16 12.98L119.16 12.98Q118.44 13.94 118.03 15.02Q117.62 16.10 117.62 17.16L117.62 17.16L126.41 12.79ZM140.33 21.77Q138.91 21.77 137.99 21.23Q137.06 20.69 136.64 20.02Q136.22 19.34 136.22 18.98L136.22 18.98Q136.22 18.70 136.38 18.53Q136.54 18.36 136.80 18.36L136.80 18.36Q137.06 18.36 137.18 18.62L137.18 18.62Q137.45 19.39 138.24 20.10Q139.03 20.81 140.50 20.81L140.50 20.81Q141.82 20.81 142.96 20.15Q144.10 19.49 144.78 18.36Q145.46 17.23 145.46 15.94L145.46 15.94Q145.46 14.78 144.84 14.09Q144.22 13.39 143.36 13.12Q142.51 12.84 141.79 12.84L141.79 12.84Q141.62 12.84 141.53 12.74Q141.43 12.65 141.43 12.48L141.43 12.48Q141.43 12.24 141.61 12.06Q141.79 11.88 142.03 11.88L142.03 11.88Q143.06 11.88 144.18 11.34Q145.30 10.80 146.04 9.95Q146.78 9.10 146.78 8.21L146.78 8.21Q146.78 7.32 145.97 6.67Q145.15 6.02 143.69 6.02L143.69 6.02Q141.82 6.02 140.40 7.01L140.40 7.01Q140.06 7.25 139.94 7.25L139.94 7.25Q139.75 7.25 139.64 7.14Q139.54 7.03 139.54 6.84L139.54 6.84Q139.54 6.48 140.42 5.95L140.42 5.95Q141.12 5.57 142.03 5.30Q142.94 5.04 143.88 5.04L143.88 5.04Q145.61 5.04 146.69 5.87Q147.77 6.70 147.77 7.99L147.77 7.99Q147.77 9.26 146.72 10.43Q145.68 11.59 144.14 12.34L144.14 12.34Q145.27 12.86 145.86 13.79Q146.45 14.71 146.45 15.86L146.45 15.86Q146.45 17.50 145.57 18.85Q144.70 20.21 143.28 20.99Q141.86 21.77 140.33 21.77L140.33 21.77ZM153.50 21.74Q151.63 21.74 150.56 20.18Q149.50 18.62 149.50 16.18L149.50 16.18Q149.50 13.73 150.65 11.11Q151.80 8.50 153.68 6.77Q155.57 5.04 157.61 5.04L157.61 5.04Q159.48 5.04 160.55 6.59Q161.62 8.14 161.62 10.58L161.62 10.58Q161.62 13.03 160.46 15.65Q159.31 18.26 157.43 20.00Q155.54 21.74 153.50 21.74L153.50 21.74ZM153.70 20.81Q155.45 20.81 157.07 19.24Q158.69 17.66 159.68 15.31Q160.68 12.96 160.68 10.85L160.68 10.85Q160.68 8.74 159.80 7.36Q158.93 5.98 157.42 5.98L157.42 5.98Q155.66 5.98 154.04 7.56Q152.42 9.14 151.43 11.51Q150.43 13.87 150.43 15.98L150.43 15.98Q150.43 18.07 151.30 19.44Q152.16 20.81 153.70 20.81L153.70 20.81ZM167.86 21.74Q165.98 21.74 164.92 20.18Q163.85 18.62 163.85 16.18L163.85 16.18Q163.85 13.73 165.00 11.11Q166.15 8.50 168.04 6.77Q169.92 5.04 171.96 5.04L171.96 5.04Q173.83 5.04 174.90 6.59Q175.97 8.14 175.97 10.58L175.97 10.58Q175.97 13.03 174.82 15.65Q173.66 18.26 171.78 20.00Q169.90 21.74 167.86 21.74L167.86 21.74ZM168.05 20.81Q169.80 20.81 171.42 19.24Q173.04 17.66 174.04 15.31Q175.03 12.96 175.03 10.85L175.03 10.85Q175.03 8.74 174.16 7.36Q173.28 5.98 171.77 5.98L171.77 5.98Q170.02 5.98 168.40 7.56Q166.78 9.14 165.78 11.51Q164.78 13.87 164.78 15.98L164.78 15.98Q164.78 18.07 165.65 19.44Q166.51 20.81 168.05 20.81L168.05 20.81ZM188.98 7.20Q188.81 7.20 188.70 7.06Q188.59 6.91 188.62 6.72L188.62 6.72L188.86 5.71Q188.88 5.54 189.07 5.39Q189.26 5.23 189.46 5.23L189.46 5.23Q189.67 5.23 189.77 5.39Q189.86 5.54 189.82 5.74L189.82 5.74L189.58 6.74Q189.53 6.96 189.36 7.08Q189.19 7.20 188.98 7.20L188.98 7.20ZM185.76 21.74Q185.57 21.74 185.44 21.60Q185.30 21.46 185.35 21.24L185.35 21.24L187.80 10.34Q187.85 10.13 188.04 9.98Q188.23 9.84 188.42 9.84L188.42 9.84Q188.64 9.84 188.76 10.00Q188.88 10.15 188.83 10.37L188.83 10.37L186.38 21.24Q186.34 21.46 186.13 21.60Q185.93 21.74 185.76 21.74L185.76 21.74ZM191.93 21.77Q191.74 21.77 191.63 21.62Q191.52 21.48 191.57 21.29L191.57 21.29L193.82 10.61L190.68 10.61Q190.51 10.61 190.40 10.51Q190.30 10.42 190.30 10.27L190.30 10.27Q190.30 10.01 190.49 9.88Q190.68 9.74 190.94 9.74L190.94 9.74L194.02 9.74L194.83 5.98Q194.86 5.78 195.05 5.63Q195.24 5.47 195.41 5.47L195.41 5.47Q195.62 5.47 195.73 5.62Q195.84 5.76 195.79 5.98L195.79 5.98L194.98 9.74L198.12 9.74Q198.34 9.74 198.43 9.86Q198.53 9.98 198.50 10.20L198.50 10.20Q198.48 10.37 198.31 10.49Q198.14 10.61 197.90 10.61L197.90 10.61L194.78 10.61L192.53 21.31Q192.50 21.48 192.31 21.62Q192.12 21.77 191.93 21.77L191.93 21.77ZM201.05 21.74Q199.44 21.74 198.48 20.72Q197.52 19.70 197.52 18.02L197.52 18.02Q197.52 16.10 198.56 14.17Q199.61 12.24 201.30 11.00Q202.99 9.77 204.86 9.77L204.86 9.77Q205.85 9.77 206.72 10.07Q207.60 10.37 208.20 10.70L208.20 10.70L205.94 21.34Q205.90 21.58 205.73 21.72Q205.56 21.86 205.34 21.86L205.34 21.86Q205.13 21.86 205.01 21.72Q204.89 21.58 204.94 21.31L204.94 21.31L205.20 20.28Q204.36 20.86 203.20 21.30Q202.03 21.74 201.05 21.74L201.05 21.74ZM201.22 20.81Q202.22 20.81 203.39 20.30Q204.55 19.80 205.37 19.25L205.37 19.25L207.14 11.33Q206.76 11.11 206.05 10.92Q205.34 10.73 204.74 10.73L204.74 10.73Q203.14 10.73 201.70 11.82Q200.26 12.91 199.39 14.58Q198.53 16.25 198.53 17.86L198.53 17.86Q198.53 19.30 199.27 20.05Q200.02 20.81 201.22 20.81L201.22 20.81ZM210.65 21.74Q210.48 21.74 210.36 21.62Q210.24 21.50 210.26 21.31L210.26 21.31L213.62 5.50Q213.65 5.30 213.83 5.16Q214.01 5.02 214.20 5.02L214.20 5.02Q214.39 5.02 214.49 5.16Q214.58 5.30 214.56 5.50L214.56 5.50L211.20 21.34Q211.15 21.50 211.00 21.62Q210.84 21.74 210.65 21.74L210.65 21.74ZM219.29 7.20Q219.12 7.20 219.01 7.06Q218.90 6.91 218.93 6.72L218.93 6.72L219.17 5.71Q219.19 5.54 219.38 5.39Q219.58 5.23 219.77 5.23L219.77 5.23Q219.98 5.23 220.08 5.39Q220.18 5.54 220.13 5.74L220.13 5.74L219.89 6.74Q219.84 6.96 219.67 7.08Q219.50 7.20 219.29 7.20L219.29 7.20ZM216.07 21.74Q215.88 21.74 215.75 21.60Q215.62 21.46 215.66 21.24L215.66 21.24L218.11 10.34Q218.16 10.13 218.35 9.98Q218.54 9.84 218.74 9.84L218.74 9.84Q218.95 9.84 219.07 10.00Q219.19 10.15 219.14 10.37L219.14 10.37L216.70 21.24Q216.65 21.46 216.44 21.60Q216.24 21.74 216.07 21.74L216.07 21.74ZM225.38 21.74Q224.21 21.74 223.25 21.22Q222.29 20.69 221.74 19.76Q221.18 18.84 221.18 17.66L221.18 17.66Q221.18 16.01 222.25 14.15Q223.32 12.29 224.94 11.02Q226.56 9.74 228.07 9.74L228.07 9.74Q229.32 9.74 230.02 10.15Q230.71 10.56 231.29 11.42L231.29 11.42Q231.34 11.47 231.34 11.62L231.34 11.62Q231.34 11.86 231.17 12.04Q231.00 12.22 230.81 12.22L230.81 12.22Q230.59 12.22 230.50 12.07L230.50 12.07Q230.02 11.35 229.45 10.98Q228.89 10.61 227.95 10.61L227.95 10.61Q226.66 10.61 225.29 11.74Q223.92 12.86 223.02 14.51Q222.12 16.15 222.12 17.57L222.12 17.57Q222.12 18.72 222.70 19.46Q223.27 20.21 224.05 20.54Q224.83 20.88 225.50 20.88L225.50 20.88Q227.83 20.88 229.58 19.03L229.58 19.03Q229.85 18.72 230.14 18.72L230.14 18.72Q230.30 18.72 230.41 18.82Q230.52 18.91 230.52 19.06L230.52 19.06Q230.52 19.25 230.26 19.51L230.26 19.51Q229.37 20.52 228.04 21.13Q226.70 21.74 225.38 21.74L225.38 21.74Z"/></svg>