<svg xmlns="http://www.w3.org/2000/svg" xmlns:xlink="http://www.w3.org/1999/xlink" width="250.65600000000006" height="27.6"><path fill="black" d="M7.97 21.74Q6.05 21.74 4.44 20.88Q2.83 20.02 1.90 18.37Q0.96 16.73 0.96 14.52L0.96 14.52Q0.96 12.19 2.05 10.07Q3.14 7.94 4.88 6.66Q6.62 5.38 8.45 5.38L8.45 5.38Q9.22 5.38 9.97 5.62Q10.73 5.86 11.33 6.22L11.33 6.22Q11.62 5.93 12.05 5.93L12.05 5.93Q12.53 5.93 12.84 6.25Q13.15 6.58 13.15 7.03L13.15 7.03L13.15 8.57Q13.15 9.05 12.80 9.41Q12.46 9.77 11.95 9.77L11.95 9.77Q11.47 9.77 11.15 9.48Q10.82 9.19 10.82 8.81L10.82 8.81L10.82 8.64Q9.94 7.70 8.28 7.70L8.28 7.70Q7.08 7.70 5.93 8.68Q4.78 9.65 4.07 11.23Q3.36 12.82 3.36 14.52L3.36 14.52Q3.36 16.03 3.98 17.15Q4.61 18.26 5.65 18.85Q6.70 19.44 7.97 19.44L7.97 19.44Q10.30 19.44 11.81 17.45L11.81 17.45Q12.02 17.18 12.24 17.08Q12.46 16.97 12.74 16.97L12.74 16.97Q13.25 16.97 13.60 17.29Q13.94 17.62 13.94 18.17L13.94 18.17Q13.94 18.58 13.73 18.89L13.73 18.89Q12.74 20.28 11.24 21.01Q9.74 21.74 7.97 21.74L7.97 21.74ZM20.28 21.74Q18.91 21.74 17.77 21Q16.63 20.26 15.98 18.97Q15.34 17.69 15.34 16.18L15.34 16.18Q15.34 14.47 16.10 13.00Q16.87 11.52 18.17 10.64Q19.46 9.77 20.95 9.77L20.95 9.77Q22.32 9.77 23.46 10.54Q24.60 11.30 25.26 12.58Q25.92 13.85 25.92 15.31L25.92 15.31Q25.92 17.04 25.15 18.52Q24.38 19.99 23.08 20.87Q21.77 21.74 20.28 21.74L20.28 21.74ZM20.28 19.58Q21.12 19.58 21.89 19.01Q22.66 18.43 23.11 17.47Q23.57 16.51 23.57 15.43L23.57 15.43Q23.57 14.52 23.21 13.72Q22.85 12.91 22.22 12.42Q21.60 11.93 20.86 11.93L20.86 11.93Q20.02 11.93 19.28 12.52Q18.55 13.10 18.12 14.08Q17.69 15.05 17.69 16.15L17.69 16.15Q17.69 17.23 18.06 18Q18.43 18.77 19.02 19.18Q19.61 19.58 20.28 19.58L20.28 19.58ZM29.66 21.74Q29.21 21.74 28.86 21.41Q28.51 21.07 28.51 20.62L28.51 20.62L28.51 10.92Q28.51 10.46 28.86 10.12Q29.21 9.77 29.66 9.77L29.66 9.77Q30.14 9.77 30.48 10.12Q30.82 10.46 30.82 10.92L30.82 10.92L30.82 12.60Q32.30 9.77 34.78 9.77L34.78 9.77Q35.76 9.77 36.49 10.34Q37.22 10.92 37.54 12.07L37.54 12.07Q39.07 9.77 41.28 9.77L41.28 9.77Q42.77 9.77 43.63 10.91Q44.50 12.05 44.50 14.33L44.50 14.33L44.50 20.62Q44.50 21.07 44.15 21.41Q43.80 21.74 43.34 21.74L43.34 21.74Q42.86 21.74 42.53 21.41Q42.19 21.07 42.19 20.62L42.19 20.62L42.19 14.18Q42.19 13.08 41.88 12.53Q41.57 11.98 40.90 11.98L40.90 11.98Q40.20 11.98 39.50 12.53Q38.81 13.08 38.36 14.04Q37.92 15 37.92 16.15L37.92 16.15L37.92 20.62Q37.92 21.10 37.58 21.42Q37.25 21.74 36.77 21.74L36.77 21.74Q36.31 21.74 35.96 21.41Q35.62 21.07 35.62 20.62L35.62 20.62L35.62 14.18Q35.62 13.03 35.34 12.50Q35.06 11.98 34.44 11.98L34.44 11.98Q33.67 11.98 32.93 12.59Q32.18 13.20 31.63 14.06L31.63 14.06Q31.20 14.78 31.00 15.50Q30.79 16.22 30.79 17.09L30.79 17.09L30.82 20.62Q30.82 21.07 30.48 21.41Q30.14 21.74 29.66 21.74L29.66 21.74ZM48.91 8.76Q48.46 8.76 48.11 8.40Q47.76 8.04 47.78 7.58L47.78 7.58L47.81 6.70Q47.83 6.24 48.17 5.90Q48.50 5.57 48.96 5.57L48.96 5.57Q49.42 5.57 49.76 5.93Q50.11 6.29 50.09 6.72L50.09 6.72L50.06 7.63Q50.04 8.11 49.72 8.44Q49.39 8.76 48.91 8.76L48.91 8.76ZM48.79 21.74Q48.31 21.74 47.96 21.40Q47.62 21.05 47.62 20.57L47.62 20.57L47.74 11.02Q47.74 10.54 48.08 10.19Q48.43 9.84 48.91 9.84L48.91 9.84Q49.42 9.84 49.75 10.19Q50.09 10.54 50.09 11.02L50.09 11.02L49.97 20.57Q49.97 21.05 49.62 21.40Q49.27 21.74 48.79 21.74L48.79 21.74ZM57.91 21.74Q56.47 21.74 55.27 21.05Q54.07 20.35 53.38 19.14Q52.68 17.93 52.68 16.49L52.68 16.49Q52.68 14.86 53.45 13.30Q54.22 11.74 55.46 10.75Q56.71 9.77 58.10 9.77L58.10 9.77Q59.38 9.77 60.16 10.16Q60.94 10.56 61.68 11.42L61.68 11.42Q62.04 11.81 62.04 12.26L62.04 12.26Q62.04 12.72 61.70 13.04Q61.37 13.37 60.89 13.37L60.89 13.37Q60.58 13.37 60.40 13.27Q60.22 13.18 59.98 12.89L59.98 12.89Q59.57 12.43 59.17 12.19Q58.78 11.95 58.13 11.95L58.13 11.95Q57.38 11.95 56.63 12.60Q55.87 13.25 55.40 14.29Q54.94 15.34 54.94 16.44L54.94 16.44Q54.94 17.40 55.36 18.11Q55.78 18.82 56.45 19.19Q57.12 19.56 57.86 19.56L57.86 19.56Q58.82 19.56 59.44 19.20Q60.05 18.84 60.53 18.22L60.53 18.22Q60.98 17.62 61.56 17.62L61.56 17.62Q62.02 17.62 62.35 17.94Q62.69 18.26 62.69 18.67L62.69 18.67Q62.69 19.15 62.42 19.49L62.42 19.49Q61.73 20.42 60.53 21.08Q59.33 21.74 57.91 21.74L57.91 21.74ZM74.57 21.74Q74.11 21.74 73.75 21.38Q73.39 21.02 73.39 20.57L73.39 20.57L73.42 6.58Q73.42 6.10 73.74 5.75Q74.06 5.40 74.57 5.40L74.57 5.40Q74.86 5.40 75.12 5.53Q75.38 5.66 75.55 5.90L75.55 5.90L83.06 16.78L83.06 6.58Q83.06 6.10 83.41 5.74Q83.76 5.38 84.26 5.38L84.26 5.38Q84.74 5.38 85.09 5.74Q85.44 6.10 85.44 6.58L85.44 6.58L85.44 20.57Q85.44 21.07 85.10 21.41Q84.77 21.74 84.26 21.74L84.26 21.74Q84 21.74 83.72 21.60Q83.45 21.46 83.28 21.22L83.28 21.22L75.79 10.39L75.77 20.57Q75.77 21.07 75.42 21.41Q75.07 21.74 74.57 21.74L74.57 21.74ZM94.10 21.74Q92.40 21.74 91.04 21.01Q89.69 20.28 88.92 18.92Q88.15 17.57 88.15 15.72L88.15 15.72Q88.15 14.21 88.84 12.83Q89.52 11.45 90.76 10.61Q91.99 9.77 93.58 9.77L93.58 9.77Q95.04 9.77 96.08 10.36Q97.13 10.94 97.66 11.76Q98.18 12.58 98.18 13.22L98.18 13.22Q98.18 13.54 97.99 13.82Q97.80 14.11 97.44 14.33L97.44 14.33L91.01 18.02Q91.34 18.77 92.20 19.18Q93.05 19.58 94.10 19.58L94.10 19.58Q95.50 19.58 96.48 18.55L96.48 18.55Q96.86 18.17 97.27 18.17L97.27 18.17Q97.75 18.17 98.08 18.48Q98.40 18.79 98.40 19.25L98.40 19.25Q98.40 19.63 98.11 19.97L98.11 19.97Q97.44 20.71 96.32 21.23Q95.21 21.74 94.10 21.74L94.10 21.74ZM95.81 12.94Q95.52 12.43 94.99 12.18Q94.46 11.93 93.74 11.93L93.74 11.93Q92.38 11.93 91.45 12.86Q90.53 13.80 90.38 15.17L90.38 15.17Q90.34 15.53 90.34 16.03L90.34 16.03L95.81 12.94ZM103.99 21.82Q102.70 21.82 101.93 21.25Q101.16 20.69 100.78 19.20Q100.39 17.71 100.39 14.93L100.39 14.93Q100.39 13.99 100.46 12.86Q100.54 11.74 100.66 10.97L100.66 10.97Q100.75 10.37 101.02 10.06Q101.28 9.74 101.78 9.74L101.78 9.74Q102.26 9.74 102.60 10.03Q102.94 10.32 102.94 10.87L102.94 10.87L102.89 11.54Q102.65 13.58 102.65 15.46L102.65 15.46Q102.65 17.90 103.07 18.78Q103.49 19.66 104.23 19.66L104.23 19.66Q105.10 19.66 106.01 19.19Q106.92 18.72 107.30 18.29L107.30 18.29Q107.45 18.14 107.45 17.69L107.45 17.69L107.50 10.85Q107.50 10.37 107.84 10.06Q108.19 9.74 108.62 9.74L108.62 9.74Q109.08 9.74 109.43 10.06Q109.78 10.37 109.78 10.85L109.78 10.85L109.78 20.59Q109.78 21.05 109.43 21.40Q109.08 21.74 108.62 21.74L108.62 21.74Q108.14 21.74 107.77 21.44Q107.40 21.14 107.40 20.69L107.40 20.69L107.40 20.42Q106.49 21.07 105.71 21.44Q104.93 21.82 103.99 21.82L103.99 21.82ZM118.32 21.74Q116.62 21.74 115.26 21.01Q113.90 20.28 113.14 18.92Q112.37 17.57 112.37 15.72L112.37 15.72Q112.37 14.21 113.05 12.83Q113.74 11.45 114.97 10.61Q116.21 9.77 117.79 9.77L117.79 9.77Q119.26 9.77 120.30 10.36Q121.34 10.94 121.87 11.76Q122.40 12.58 122.40 13.22L122.40 13.22Q122.40 13.54 122.21 13.82Q122.02 14.11 121.66 14.33L121.66 14.33L115.22 18.02Q115.56 18.77 116.41 19.18Q117.26 19.58 118.32 19.58L118.32 19.58Q119.71 19.58 120.70 18.55L120.70 18.55Q121.08 18.17 121.49 18.17L121.49 18.17Q121.97 18.17 122.29 18.48Q122.62 18.79 122.62 19.25L122.62 19.25Q122.62 19.63 122.33 19.97L122.33 19.97Q121.66 20.71 120.54 21.23Q119.42 21.74 118.32 21.74L118.32 21.74ZM120.02 12.94Q119.74 12.43 119.21 12.18Q118.68 11.93 117.96 11.93L117.96 11.93Q116.59 11.93 115.67 12.86Q114.74 13.80 114.60 15.17L114.60 15.17Q114.55 15.53 114.55 16.03L114.55 16.03L120.02 12.94ZM134.45 21.72Q133.97 21.72 133.63 21.37Q133.30 21.02 133.30 20.57L133.30 20.57Q133.30 20.35 133.44 20.06L133.44 20.06L139.34 8.23L133.34 8.23Q132.86 8.23 132.53 7.90Q132.19 7.56 132.19 7.08L132.19 7.08Q132.19 6.62 132.53 6.28Q132.86 5.93 133.34 5.93L133.34 5.93L141.19 5.93Q141.67 5.93 142.01 6.28Q142.34 6.62 142.34 7.10L142.34 7.10Q142.34 7.37 142.06 7.94L142.06 7.94L135.48 21.10Q135.31 21.43 135.02 21.58Q134.74 21.72 134.45 21.72L134.45 21.72ZM149.21 21.74Q147.65 21.74 146.39 20.70Q145.13 19.66 144.42 17.90Q143.71 16.15 143.71 14.14L143.71 14.14Q143.71 11.95 144.52 10.02Q145.32 8.09 146.70 6.92Q148.08 5.76 149.71 5.76L149.71 5.76Q151.27 5.76 152.52 6.80Q153.77 7.85 154.48 9.60Q155.18 11.35 155.18 13.39L155.18 13.39Q155.18 15.60 154.38 17.52Q153.58 19.44 152.20 20.59Q150.82 21.74 149.21 21.74L149.21 21.74ZM149.21 19.44Q150.19 19.44 151.04 18.62Q151.90 17.81 152.41 16.43Q152.93 15.05 152.93 13.44L152.93 13.44Q152.93 12.02 152.51 10.79Q152.09 9.55 151.34 8.81Q150.60 8.06 149.71 8.06L149.71 8.06Q148.73 8.06 147.86 8.88Q147.00 9.70 146.50 11.09Q145.99 12.48 145.99 14.09L145.99 14.09Q145.99 15.48 146.40 16.72Q146.81 17.95 147.55 18.70Q148.30 19.44 149.21 19.44L149.21 19.44ZM162.94 21.74Q161.38 21.74 160.12 20.70Q158.86 19.66 158.15 17.90Q157.44 16.15 157.44 14.14L157.44 14.14Q157.44 11.95 158.24 10.02Q159.05 8.09 160.43 6.92Q161.81 5.76 163.44 5.76L163.44 5.76Q165.00 5.76 166.25 6.80Q167.50 7.85 168.20 9.60Q168.91 11.35 168.91 13.39L168.91 13.39Q168.91 15.60 168.11 17.52Q167.30 19.44 165.92 20.59Q164.54 21.74 162.94 21.74L162.94 21.74ZM162.94 19.44Q163.92 19.44 164.77 18.62Q165.62 17.81 166.14 16.43Q166.66 15.05 166.66 13.44L166.66 13.44Q166.66 12.02 166.24 10.79Q165.82 9.55 165.07 8.81Q164.33 8.06 163.44 8.06L163.44 8.06Q162.46 8.06 161.59 8.88Q160.73 9.70 160.22 11.09Q159.72 12.48 159.72 14.09L159.72 14.09Q159.72 15.48 160.13 16.72Q160.54 17.95 161.28 18.70Q162.02 19.44 162.94 19.44L162.94 19.44ZM181.42 21.74Q180.96 21.74 180.61 21.41Q180.26 21.07 180.26 20.64L180.26 20.64L180.26 10.90Q180.26 10.42 180.62 10.08Q180.98 9.74 181.46 9.74L181.46 9.74Q181.92 9.74 182.24 10.08Q182.57 10.42 182.57 10.90L182.57 10.90L182.57 12.72Q183.24 11.28 184.27 10.52Q185.30 9.77 186.53 9.77L186.53 9.77Q187.87 9.77 188.66 10.39Q189.46 11.02 189.82 12.44Q190.18 13.87 190.18 16.39L190.18 16.39L190.15 20.59Q190.15 21.05 189.84 21.40Q189.53 21.74 189.05 21.74L189.05 21.74Q188.59 21.74 188.24 21.40Q187.90 21.05 187.90 20.62L187.90 20.62L187.90 16.63Q187.90 14.76 187.73 13.75Q187.56 12.74 187.22 12.37Q186.89 12.00 186.31 12.00L186.31 12.00Q185.59 12.00 184.87 12.61Q184.15 13.22 183.53 14.35L183.53 14.35Q182.98 15.34 182.76 16.27Q182.54 17.21 182.54 18.53L182.54 18.53L182.54 20.54Q182.54 21.07 182.24 21.41Q181.94 21.74 181.42 21.74L181.42 21.74ZM197.47 21.74Q196.10 21.74 194.96 21Q193.82 20.26 193.18 18.97Q192.53 17.69 192.53 16.18L192.53 16.18Q192.53 14.47 193.30 13.00Q194.06 11.52 195.36 10.64Q196.66 9.77 198.14 9.77L198.14 9.77Q199.51 9.77 200.65 10.54Q201.79 11.30 202.45 12.58Q203.11 13.85 203.11 15.31L203.11 15.31Q203.11 17.04 202.34 18.52Q201.58 19.99 200.27 20.87Q198.96 21.74 197.47 21.74L197.47 21.74ZM197.47 19.58Q198.31 19.58 199.08 19.01Q199.85 18.43 200.30 17.47Q200.76 16.51 200.76 15.43L200.76 15.43Q200.76 14.52 200.40 13.72Q200.04 12.91 199.42 12.42Q198.79 11.93 198.05 11.93L198.05 11.93Q197.21 11.93 196.48 12.52Q195.74 13.10 195.31 14.08Q194.88 15.05 194.88 16.15L194.88 16.15Q194.88 17.23 195.25 18Q195.62 18.77 196.21 19.18Q196.80 19.58 197.47 19.58L197.47 19.58ZM206.88 21.74Q206.42 21.74 206.06 21.41Q205.70 21.07 205.70 20.64L205.70 20.64L205.70 10.92Q205.70 10.44 206.05 10.10Q206.40 9.77 206.88 9.77L206.88 9.77Q207.36 9.77 207.71 10.10Q208.06 10.44 208.06 10.92L208.06 10.92L208.06 11.64Q209.23 9.72 211.27 9.72L211.27 9.72Q212.50 9.72 213.04 10.39Q213.58 11.06 213.58 12.00L213.58 12.00L213.58 12.72Q213.58 13.20 213.25 13.52Q212.93 13.85 212.45 13.85L212.45 13.85Q211.87 13.85 211.60 13.51Q211.32 13.18 211.32 12.70L211.32 12.70L211.32 12.38Q211.32 12.00 210.79 12.00L210.79 12.00Q210.36 12.00 209.80 12.43Q209.23 12.86 208.87 13.34L208.87 13.34Q208.37 13.97 208.21 14.59Q208.06 15.22 208.06 16.08L208.06 16.08L208.03 20.64Q208.03 21.07 207.67 21.41Q207.31 21.74 206.88 21.74L206.88 21.74ZM216.53 21.74Q216.07 21.74 215.72 21.41Q215.38 21.07 215.38 20.62L215.38 20.62L215.38 10.92Q215.38 10.46 215.72 10.12Q216.07 9.77 216.53 9.77L216.53 9.77Q217.01 9.77 217.34 10.12Q217.68 10.46 217.68 10.92L217.68 10.92L217.68 12.60Q219.17 9.77 221.64 9.77L221.64 9.77Q222.62 9.77 223.36 10.34Q224.09 10.92 224.40 12.07L224.40 12.07Q225.94 9.77 228.14 9.77L228.14 9.77Q229.63 9.77 230.50 10.91Q231.36 12.05 231.36 14.33L231.36 14.33L231.36 20.62Q231.36 21.07 231.01 21.41Q230.66 21.74 230.21 21.74L230.21 21.74Q229.73 21.74 229.39 21.41Q229.06 21.07 229.06 20.62L229.06 20.62L229.06 14.18Q229.06 13.08 228.74 12.53Q228.43 11.98 227.76 11.98L227.76 11.98Q227.06 11.98 226.37 12.53Q225.67 13.08 225.23 14.04Q224.78 15 224.78 16.15L224.78 16.15L224.78 20.62Q224.78 21.10 224.45 21.42Q224.11 21.74 223.63 21.74L223.63 21.74Q223.18 21.74 222.83 21.41Q222.48 21.07 222.48 20.62L222.48 20.62L222.48 14.18Q222.48 13.03 222.20 12.50Q221.93 11.98 221.30 11.98L221.30 11.98Q220.54 11.98 219.79 12.59Q219.05 13.20 218.50 14.06L218.50 14.06Q218.06 14.78 217.86 15.50Q217.66 16.22 217.66 17.09L217.66 17.09L217.68 20.62Q217.68 21.07 217.34 21.41Q217.01 21.74 216.53 21.74L216.53 21.74ZM242.16 21.98Q241.68 21.98 241.38 21.72Q241.08 21.46 241.08 21.02L241.08 21.02L241.08 20.69Q240.10 21.74 238.34 21.74L238.34 21.74Q237.02 21.74 235.97 21.10Q234.91 20.45 234.31 19.26Q233.71 18.07 233.71 16.56L233.71 16.56Q233.71 14.88 234.43 13.31Q235.15 11.74 236.46 10.75Q237.77 9.77 239.47 9.77L239.47 9.77Q240.58 9.77 241.46 10.07Q242.35 10.37 243.31 10.80L243.31 10.80L243.31 20.78Q243.31 21.26 242.98 21.62Q242.64 21.98 242.16 21.98L242.16 21.98ZM238.51 19.51Q239.21 19.51 239.87 19.22Q240.53 18.94 240.96 18.53L240.96 18.53L241.03 12.26Q240.34 11.98 239.52 11.98L239.52 11.98Q238.49 11.98 237.70 12.61Q236.90 13.25 236.47 14.29Q236.04 15.34 236.04 16.51L236.04 16.51Q236.04 17.98 236.69 18.74Q237.34 19.51 238.51 19.51L238.51 19.51ZM247.82 21.74Q247.37 21.74 247.02 21.42Q246.67 21.10 246.67 20.66L246.67 20.66L246.67 6.74Q246.67 6.26 247.00 5.94Q247.32 5.62 247.82 5.62L247.82 5.62Q248.28 5.62 248.63 5.95Q248.98 6.29 248.98 6.74L248.98 6.74L248.98 20.66Q248.98 21.10 248.62 21.42Q248.26 21.74 247.82 21.74L247.82 21.74Z"/></svg>