<svg xmlns="http://www.w3.org/2000/svg" xmlns:xlink="http://www.w3.org/1999/xlink" width="175.18359375" height="29.89453125"><path fill="black" d="M5.65 24.14L5.53 24.14L0.06 5.00L2.45 5.00L5.07 14.99L5.58 17.81L5.60 17.81L6.11 14.99L8.73 5.00L11.12 5.00L5.65 24.14ZM16.61 23.89L16.61 23.89Q14.63 23.89 13.32 22.29Q12.02 20.68 12.02 17.45L12.02 17.45Q12.02 14.21 13.32 12.61Q14.63 11.00 16.61 11.00L16.61 11.00Q18.59 11.00 19.89 12.61Q21.20 14.21 21.20 17.45L21.20 17.45Q21.20 20.68 19.89 22.29Q18.59 23.89 16.61 23.89ZM16.61 21.84L16.61 21.84Q17.24 21.84 17.78 21.45Q18.32 21.05 18.64 20.09Q18.97 19.14 18.97 17.45L18.97 17.45Q18.97 15.76 18.64 14.81Q18.32 13.85 17.78 13.45Q17.24 13.05 16.61 13.05L16.61 13.05Q15.98 13.05 15.45 13.45Q14.91 13.85 14.58 14.81Q14.25 15.76 14.25 17.45L14.25 17.45Q14.25 19.14 14.58 20.09Q14.91 21.05 15.45 21.45Q15.98 21.84 16.61 21.84ZM25.30 23.67L23.18 23.67L23.18 5.00L25.30 5.00L25.30 23.67ZM32.84 21.80L32.84 23.88Q31.16 23.89 30.22 23.44Q29.27 22.99 28.89 22.10Q28.51 21.20 28.51 19.90L28.51 19.90L28.51 13.20L27.56 13.20L27.56 11.23L28.51 11.23L28.51 7.08L30.63 7.08L30.63 11.23L32.66 11.23L32.66 13.20L30.63 13.20L30.63 19.92Q30.63 20.51 30.77 20.95Q30.91 21.39 31.38 21.61Q31.85 21.83 32.84 21.80L32.84 21.80ZM37.76 23.89L37.76 23.89Q36.06 23.89 35.12 22.74Q34.18 21.59 34.18 19.86L34.18 19.86Q34.18 17.98 35.61 16.78Q37.03 15.57 40.05 15.57L40.05 15.57L40.05 15.33Q40.05 14.12 39.66 13.55Q39.26 12.98 38.07 12.98L38.07 12.98Q37.38 12.98 36.63 13.21Q35.88 13.44 35.43 13.75L35.43 13.75L34.62 11.87Q35.26 11.50 36.25 11.25Q37.24 11.00 38.33 11.00L38.33 11.00Q40.32 11.00 41.24 12.04Q42.16 13.08 42.16 15.25L42.16 15.25L42.16 23.89L40.80 23.89L40.24 22.59Q39.88 23.12 39.27 23.51Q38.66 23.89 37.76 23.89ZM38.40 21.97L38.40 21.97Q38.94 21.97 39.42 21.67Q39.89 21.38 40.05 21.01L40.05 21.01L40.05 17.45L39.83 17.45Q38.09 17.45 37.22 18.12Q36.35 18.79 36.35 19.90L36.35 19.90Q36.35 20.77 36.76 21.37Q37.17 21.97 38.40 21.97ZM45.87 9.09L45.87 9.09Q45.18 9.09 44.75 8.65Q44.33 8.21 44.33 7.64L44.33 7.64Q44.33 7.05 44.75 6.62Q45.18 6.19 45.87 6.19L45.87 6.19Q46.57 6.19 46.99 6.62Q47.41 7.05 47.41 7.64L47.41 7.64Q47.41 8.21 46.99 8.65Q46.57 9.09 45.87 9.09ZM46.86 23.67L44.73 23.67L44.73 11.23L46.86 11.23L46.86 23.67ZM52.13 23.67L49.93 23.67L49.93 11.00L51.30 11.00L51.73 12.25Q52.46 11.68 53.32 11.36Q54.18 11.03 55.09 11.03L55.09 11.03L55.09 13.32Q54.14 13.32 53.40 13.53Q52.66 13.73 52.13 14.10L52.13 14.10L52.13 23.67ZM61.64 23.89L61.64 23.89Q60.21 23.89 59.08 23.12Q57.95 22.35 57.30 20.88Q56.65 19.42 56.65 17.37L56.65 17.37Q56.65 15.25 57.32 13.83Q57.98 12.42 59.07 11.71Q60.15 11.00 61.39 11.00L61.39 11.00Q62.87 11.00 63.83 11.91Q64.79 12.82 65.13 14.47Q65.46 16.11 65.04 18.33L65.04 18.33L58.86 18.33Q59.00 19.68 59.48 20.46Q59.95 21.25 60.60 21.58Q61.24 21.91 61.89 21.91L61.89 21.91Q62.51 21.91 63.12 21.70Q63.73 21.49 64.04 21.27L64.04 21.27L64.86 23.05Q64.30 23.38 63.42 23.64Q62.54 23.89 61.64 23.89ZM61.35 13.05L61.35 13.05Q60.40 13.05 59.71 13.89Q59.03 14.73 58.86 16.37L58.86 16.37L63.08 16.37Q63.18 15.06 62.95 14.34Q62.72 13.62 62.30 13.34Q61.88 13.05 61.35 13.05ZM81.33 23.67L79.10 23.67L79.10 19.73L72.73 19.73L76.48 5.00L78.73 5.00L75.45 17.67L79.10 17.67L79.10 13.36L81.26 11.06L81.33 11.06L81.33 17.67L83.07 17.67L83.07 19.73L81.33 19.73L81.33 23.67ZM90.33 23.89L90.33 23.89Q89.33 23.89 88.43 23.42Q87.53 22.95 86.84 21.85Q86.14 20.75 85.75 18.91Q85.35 17.07 85.35 14.34L85.35 14.34Q85.35 11.61 85.75 9.77Q86.14 7.93 86.84 6.84Q87.53 5.74 88.43 5.27Q89.33 4.79 90.33 4.79L90.33 4.79Q91.34 4.79 92.23 5.27Q93.13 5.74 93.82 6.84Q94.51 7.93 94.91 9.77Q95.31 11.61 95.31 14.34L95.31 14.34Q95.31 17.07 94.91 18.91Q94.51 20.75 93.82 21.85Q93.13 22.95 92.23 23.42Q91.34 23.89 90.33 23.89ZM90.33 21.84L90.33 21.84Q90.83 21.84 91.31 21.52Q91.78 21.20 92.17 20.38Q92.55 19.56 92.78 18.09Q93.01 16.63 93.01 14.34L93.01 14.34Q93.01 12.06 92.78 10.59Q92.55 9.13 92.17 8.31Q91.78 7.49 91.31 7.17Q90.83 6.84 90.33 6.84L90.33 6.84Q89.82 6.84 89.35 7.17Q88.88 7.49 88.49 8.31Q88.11 9.13 87.88 10.59Q87.66 12.06 87.66 14.34L87.66 14.34Q87.66 16.63 87.88 18.09Q88.11 19.56 88.49 20.38Q88.88 21.20 89.35 21.52Q89.82 21.84 90.33 21.84ZM103.14 23.89L103.14 23.89Q102.14 23.89 101.24 23.42Q100.34 22.95 99.64 21.85Q98.95 20.75 98.55 18.91Q98.16 17.07 98.16 14.34L98.16 14.34Q98.16 11.61 98.55 9.77Q98.95 7.93 99.64 6.84Q100.34 5.74 101.24 5.27Q102.14 4.79 103.14 4.79L103.14 4.79Q104.14 4.79 105.04 5.27Q105.94 5.74 106.63 6.84Q107.32 7.93 107.72 9.77Q108.12 11.61 108.12 14.34L108.12 14.34Q108.12 17.07 107.72 18.91Q107.32 20.75 106.63 21.85Q105.94 22.95 105.04 23.42Q104.14 23.89 103.14 23.89ZM103.14 21.84L103.14 21.84Q103.64 21.84 104.12 21.52Q104.59 21.20 104.98 20.38Q105.36 19.56 105.59 18.09Q105.82 16.63 105.82 14.34L105.82 14.34Q105.82 12.06 105.59 10.59Q105.36 9.13 104.98 8.31Q104.59 7.49 104.12 7.17Q103.64 6.84 103.14 6.84L103.14 6.84Q102.63 6.84 102.16 7.17Q101.68 7.49 101.30 8.31Q100.92 9.13 100.69 10.59Q100.46 12.06 100.46 14.34L100.46 14.34Q100.46 16.63 100.69 18.09Q100.92 19.56 101.30 20.38Q101.68 21.20 102.16 21.52Q102.63 21.84 103.14 21.84ZM118.68 23.67L116.54 23.67L116.54 11.00L117.97 11.00L118.52 12.18Q119.03 11.66 119.73 11.29Q120.43 10.92 121.28 10.92L121.28 10.92Q123.35 10.92 124.18 12.11Q125.00 13.29 125.00 15.49L125.00 15.49L125.00 23.67L122.87 23.67L122.87 15.52Q122.87 14.32 122.38 13.68Q121.89 13.04 120.91 13.04L120.91 13.04Q120.35 13.04 119.75 13.34Q119.16 13.64 118.68 14.20L118.68 14.20L118.68 23.67ZM131.66 23.89L131.66 23.89Q129.68 23.89 128.38 22.29Q127.08 20.68 127.08 17.45L127.08 17.45Q127.08 14.21 128.38 12.61Q129.68 11.00 131.66 11.00L131.66 11.00Q133.64 11.00 134.95 12.61Q136.25 14.21 136.25 17.45L136.25 17.45Q136.25 20.68 134.95 22.29Q133.64 23.89 131.66 23.89ZM131.66 21.84L131.66 21.84Q132.29 21.84 132.83 21.45Q133.37 21.05 133.70 20.09Q134.03 19.14 134.03 17.45L134.03 17.45Q134.03 15.76 133.70 14.81Q133.37 13.85 132.83 13.45Q132.29 13.05 131.66 13.05L131.66 13.05Q131.04 13.05 130.50 13.45Q129.96 13.85 129.63 14.81Q129.30 15.76 129.30 17.45L129.30 17.45Q129.30 19.14 129.63 20.09Q129.96 21.05 130.50 21.45Q131.04 21.84 131.66 21.84ZM140.64 23.67L138.45 23.67L138.45 11.00L139.82 11.00L140.24 12.25Q140.98 11.68 141.83 11.36Q142.69 11.03 143.60 11.03L143.60 11.03L143.60 13.32Q142.65 13.32 141.91 13.53Q141.18 13.73 140.64 14.10L140.64 14.10L140.64 23.67ZM147.79 23.67L145.66 23.67L145.66 11.00L147.02 11.00L147.57 12.08Q148.10 11.64 148.79 11.34Q149.47 11.04 150.15 11.04L150.15 11.04Q152.33 11.04 153.29 12.59L153.29 12.59Q153.81 11.96 154.67 11.50Q155.53 11.04 156.39 11.04L156.39 11.04Q158.29 11.04 159.26 12.22Q160.23 13.41 160.23 15.61L160.23 15.61L160.23 23.67L158.11 23.67L158.11 15.63Q158.11 14.44 157.61 13.80Q157.11 13.16 156.14 13.16L156.14 13.16Q155.61 13.16 155.04 13.37Q154.48 13.58 154.01 14.07L154.01 14.07L154.01 23.67L151.88 23.67L151.88 15.63Q151.88 14.44 151.38 13.80Q150.89 13.16 149.92 13.16L149.92 13.16Q149.39 13.16 148.82 13.37Q148.25 13.58 147.79 14.06L147.79 14.06L147.79 23.67ZM165.39 23.89L165.39 23.89Q163.69 23.89 162.75 22.74Q161.81 21.59 161.81 19.86L161.81 19.86Q161.81 17.98 163.24 16.78Q164.66 15.57 167.68 15.57L167.68 15.57L167.68 15.33Q167.68 14.12 167.29 13.55Q166.89 12.98 165.70 12.98L165.70 12.98Q165.01 12.98 164.26 13.21Q163.51 13.44 163.05 13.75L163.05 13.75L162.25 11.87Q162.89 11.50 163.88 11.25Q164.87 11.00 165.96 11.00L165.96 11.00Q167.95 11.00 168.87 12.04Q169.79 13.08 169.79 15.25L169.79 15.25L169.79 23.89L168.43 23.89L167.87 22.59Q167.51 23.12 166.90 23.51Q166.29 23.89 165.39 23.89ZM166.03 21.97L166.03 21.97Q166.57 21.97 167.04 21.67Q167.52 21.38 167.68 21.01L167.68 21.01L167.68 17.45L167.46 17.45Q165.71 17.45 164.85 18.12Q163.98 18.79 163.98 19.90L163.98 19.90Q163.98 20.77 164.39 21.37Q164.80 21.97 166.03 21.97ZM174.05 23.67L171.93 23.67L171.93 5.00L174.05 5.00L174.05 23.67Z"/></svg>