<svg xmlns="http://www.w3.org/2000/svg" xmlns:xlink="http://www.w3.org/1999/xlink" width="410.568" height="31.296"><path fill="black" d="M17.74 4.37L17.74 21.50L12.46 21.50L5.54 8.95L5.45 8.95Q5.50 9.65 5.53 10.45Q5.57 11.26 5.60 12.06Q5.64 12.86 5.66 13.58L5.66 13.58L5.66 21.50L2.02 21.50L2.02 4.37L7.27 4.37L14.16 16.78L14.23 16.78Q14.21 16.10 14.17 15.32Q14.14 14.54 14.11 13.78Q14.09 13.01 14.06 12.31L14.06 12.31L14.06 4.37L17.74 4.37ZM33.74 14.88L33.74 14.88Q33.74 16.54 33.30 17.81Q32.86 19.08 32.00 19.97Q31.15 20.86 29.96 21.30Q28.78 21.74 27.24 21.74L27.24 21.74Q25.85 21.74 24.66 21.30Q23.47 20.86 22.62 19.98Q21.77 19.10 21.29 17.82Q20.81 16.54 20.81 14.88L20.81 14.88Q20.81 12.70 21.59 11.18Q22.37 9.67 23.83 8.88Q25.30 8.09 27.31 8.09L27.31 8.09Q29.21 8.09 30.65 8.88Q32.09 9.67 32.92 11.18Q33.74 12.70 33.74 14.88ZM24.91 14.88L24.91 14.88Q24.91 16.10 25.15 16.94Q25.39 17.78 25.92 18.20Q26.45 18.62 27.29 18.62L27.29 18.62Q28.15 18.62 28.66 18.20Q29.16 17.78 29.40 16.94Q29.64 16.10 29.64 14.88L29.64 14.88Q29.64 13.66 29.40 12.84Q29.16 12.02 28.64 11.62Q28.13 11.21 27.26 11.21L27.26 11.21Q26.04 11.21 25.48 12.13Q24.91 13.06 24.91 14.88ZM42.50 18.53L42.50 18.53Q43.13 18.53 43.66 18.41Q44.18 18.29 44.74 18.10L44.74 18.10L44.74 21.07Q44.09 21.36 43.25 21.55Q42.41 21.74 41.26 21.74L41.26 21.74Q40.03 21.74 39.08 21.35Q38.14 20.95 37.60 19.98Q37.06 19.01 37.06 17.28L37.06 17.28L37.06 11.35L35.38 11.35L35.38 9.67L37.39 8.38L38.50 5.59L41.09 5.59L41.09 8.33L44.59 8.33L44.59 11.35L41.09 11.35L41.09 17.14Q41.09 17.83 41.47 18.18Q41.86 18.53 42.50 18.53ZM59.50 14.88L59.50 14.88Q59.50 16.54 59.05 17.81Q58.61 19.08 57.76 19.97Q56.90 20.86 55.72 21.30Q54.53 21.74 52.99 21.74L52.99 21.74Q51.60 21.74 50.41 21.30Q49.22 20.86 48.37 19.98Q47.52 19.10 47.04 17.82Q46.56 16.54 46.56 14.88L46.56 14.88Q46.56 12.70 47.34 11.18Q48.12 9.67 49.58 8.88Q51.05 8.09 53.06 8.09L53.06 8.09Q54.96 8.09 56.40 8.88Q57.84 9.67 58.67 11.18Q59.50 12.70 59.50 14.88ZM50.66 14.88L50.66 14.88Q50.66 16.10 50.90 16.94Q51.14 17.78 51.67 18.20Q52.20 18.62 53.04 18.62L53.04 18.62Q53.90 18.62 54.41 18.20Q54.91 17.78 55.15 16.94Q55.39 16.10 55.39 14.88L55.39 14.88Q55.39 13.66 55.15 12.84Q54.91 12.02 54.40 11.62Q53.88 11.21 53.02 11.21L53.02 11.21Q51.79 11.21 51.23 12.13Q50.66 13.06 50.66 14.88ZM79.42 16.54L79.42 16.54Q79.42 18 78.70 19.19Q77.98 20.38 76.54 21.06Q75.10 21.74 72.91 21.74L72.91 21.74Q71.90 21.74 71.04 21.62Q70.18 21.50 69.40 21.28Q68.62 21.05 67.87 20.69L67.87 20.69L67.87 16.97Q69.17 17.57 70.52 17.98Q71.88 18.38 73.13 18.38L73.13 18.38Q73.92 18.38 74.41 18.18Q74.90 17.98 75.13 17.63Q75.36 17.28 75.36 16.82L75.36 16.82Q75.36 16.27 74.99 15.88Q74.62 15.48 73.90 15.11Q73.18 14.74 72.14 14.26L72.14 14.26Q71.38 13.92 70.64 13.48Q69.91 13.03 69.32 12.44Q68.74 11.86 68.39 11.03Q68.04 10.20 68.04 9.07L68.04 9.07Q68.04 7.46 68.80 6.37Q69.55 5.28 70.92 4.70Q72.29 4.13 74.14 4.13L74.14 4.13Q75.65 4.13 76.92 4.46Q78.19 4.80 79.39 5.33L79.39 5.33L78.10 8.52Q76.94 8.02 75.95 7.74Q74.95 7.46 74.02 7.46L74.02 7.46Q73.37 7.46 72.94 7.64Q72.50 7.82 72.29 8.15Q72.07 8.47 72.07 8.90L72.07 8.90Q72.07 9.41 72.41 9.78Q72.74 10.15 73.46 10.54Q74.18 10.92 75.36 11.47L75.36 11.47Q76.63 12.05 77.54 12.72Q78.46 13.39 78.94 14.29Q79.42 15.19 79.42 16.54ZM87.94 8.06L87.94 8.06Q90.50 8.06 91.92 9.25Q93.34 10.44 93.34 12.77L93.34 12.77L93.34 21.50L90.53 21.50L89.74 19.73L89.64 19.73Q89.09 20.42 88.50 20.88Q87.91 21.34 87.16 21.54Q86.40 21.74 85.30 21.74L85.30 21.74Q84.14 21.74 83.22 21.29Q82.30 20.83 81.77 19.90Q81.24 18.96 81.24 17.52L81.24 17.52Q81.24 15.41 82.72 14.40Q84.19 13.39 87.05 13.27L87.05 13.27L89.30 13.20L89.30 12.82Q89.30 11.86 88.81 11.42Q88.32 10.99 87.46 10.99L87.46 10.99Q86.59 10.99 85.66 11.27Q84.72 11.54 83.76 11.95L83.76 11.95L82.54 9.26Q83.62 8.69 84.98 8.38Q86.35 8.06 87.94 8.06ZM89.30 15.50L88.08 15.55Q86.57 15.60 85.97 16.09Q85.37 16.58 85.37 17.42L85.37 17.42Q85.37 18.17 85.80 18.50Q86.23 18.84 86.90 18.84L86.90 18.84Q87.91 18.84 88.61 18.23Q89.30 17.62 89.30 16.56L89.30 16.56L89.30 15.50ZM104.59 8.09L104.59 8.09Q106.68 8.09 107.96 9.23Q109.25 10.37 109.25 12.91L109.25 12.91L109.25 21.50L105.22 21.50L105.22 14.04Q105.22 12.67 104.76 11.98Q104.30 11.28 103.32 11.28L103.32 11.28Q101.86 11.28 101.33 12.37Q100.80 13.46 100.80 15.50L100.80 15.50L100.80 21.50L96.74 21.50L96.74 8.33L99.82 8.33L100.37 10.03L100.56 10.03Q100.99 9.38 101.59 8.95Q102.19 8.52 102.96 8.30Q103.73 8.09 104.59 8.09ZM122.14 17.52L122.14 17.52Q122.14 18.82 121.55 19.76Q120.96 20.71 119.71 21.23Q118.46 21.74 116.54 21.74L116.54 21.74Q115.15 21.74 114.11 21.58Q113.06 21.41 112.01 20.98L112.01 20.98L112.01 17.71Q113.16 18.22 114.42 18.50Q115.68 18.79 116.52 18.79L116.52 18.79Q117.43 18.79 117.84 18.55Q118.25 18.31 118.25 17.88L118.25 17.88Q118.25 17.57 118.04 17.33Q117.84 17.09 117.23 16.78Q116.62 16.46 115.42 15.98L115.42 15.98Q114.24 15.48 113.48 14.95Q112.73 14.42 112.36 13.68Q111.98 12.94 111.98 11.86L111.98 11.86Q111.98 9.98 113.44 9.04Q114.89 8.09 117.29 8.09L117.29 8.09Q118.56 8.09 119.69 8.35Q120.82 8.62 122.02 9.17L122.02 9.17L120.86 11.90Q119.90 11.47 118.97 11.21Q118.03 10.94 117.29 10.94L117.29 10.94Q116.62 10.94 116.26 11.12Q115.90 11.30 115.90 11.66L115.90 11.66Q115.90 11.93 116.10 12.16Q116.30 12.38 116.89 12.65Q117.48 12.91 118.61 13.39L118.61 13.39Q119.74 13.85 120.53 14.35Q121.32 14.86 121.73 15.60Q122.14 16.34 122.14 17.52ZM145.68 12.67L145.68 12.67Q145.68 15.60 144.58 17.57Q143.47 19.54 141.41 20.52Q139.34 21.50 136.49 21.50L136.49 21.50L131.33 21.50L131.33 4.37L136.97 4.37Q139.68 4.37 141.64 5.33Q143.59 6.29 144.64 8.12Q145.68 9.96 145.68 12.67ZM141.46 12.82L141.46 12.82Q141.46 11.06 140.96 9.94Q140.47 8.81 139.50 8.26Q138.53 7.70 137.09 7.70L137.09 7.70L135.41 7.70L135.41 18.14L136.73 18.14Q139.15 18.14 140.30 16.81Q141.46 15.48 141.46 12.82ZM154.42 8.09L154.42 8.09Q156.29 8.09 157.64 8.77Q159 9.46 159.73 10.79Q160.46 12.12 160.46 14.09L160.46 14.09L160.46 15.96L152.14 15.96Q152.18 17.26 152.98 18.02Q153.77 18.79 155.23 18.79L155.23 18.79Q156.50 18.79 157.54 18.55Q158.57 18.31 159.67 17.78L159.67 17.78L159.67 20.78Q158.71 21.29 157.61 21.52Q156.50 21.74 154.90 21.74L154.90 21.74Q152.90 21.74 151.36 21.02Q149.81 20.30 148.93 18.80Q148.06 17.30 148.06 15L148.06 15Q148.06 12.65 148.85 11.12Q149.64 9.60 151.08 8.84Q152.52 8.09 154.42 8.09ZM154.49 10.90L154.49 10.90Q153.55 10.90 152.94 11.48Q152.33 12.07 152.21 13.34L152.21 13.34L156.74 13.34Q156.74 12.65 156.49 12.10Q156.24 11.54 155.74 11.22Q155.23 10.90 154.49 10.90ZM170.57 21.50L166.49 21.50L161.47 8.33L165.70 8.33L168.10 15.96Q168.17 16.22 168.25 16.60Q168.34 16.97 168.40 17.34Q168.46 17.71 168.46 18.02L168.46 18.02L168.55 18.02Q168.55 17.69 168.61 17.33Q168.67 16.97 168.76 16.62Q168.84 16.27 168.94 15.98L168.94 15.98L171.38 8.33L175.58 8.33L170.57 21.50ZM183.22 8.06L183.22 8.06Q185.78 8.06 187.20 9.25Q188.62 10.44 188.62 12.77L188.62 12.77L188.62 21.50L185.81 21.50L185.02 19.73L184.92 19.73Q184.37 20.42 183.78 20.88Q183.19 21.34 182.44 21.54Q181.68 21.74 180.58 21.74L180.58 21.74Q179.42 21.74 178.50 21.29Q177.58 20.83 177.05 19.90Q176.52 18.96 176.52 17.52L176.52 17.52Q176.52 15.41 178.00 14.40Q179.47 13.39 182.33 13.27L182.33 13.27L184.58 13.20L184.58 12.82Q184.58 11.86 184.09 11.42Q183.60 10.99 182.74 10.99L182.74 10.99Q181.87 10.99 180.94 11.27Q180 11.54 179.04 11.95L179.04 11.95L177.82 9.26Q178.90 8.69 180.26 8.38Q181.63 8.06 183.22 8.06ZM184.58 15.50L183.36 15.55Q181.85 15.60 181.25 16.09Q180.65 16.58 180.65 17.42L180.65 17.42Q180.65 18.17 181.08 18.50Q181.51 18.84 182.18 18.84L182.18 18.84Q183.19 18.84 183.89 18.23Q184.58 17.62 184.58 16.56L184.58 16.56L184.58 15.50ZM199.87 8.09L199.87 8.09Q201.96 8.09 203.24 9.23Q204.53 10.37 204.53 12.91L204.53 12.91L204.53 21.50L200.50 21.50L200.50 14.04Q200.50 12.67 200.04 11.98Q199.58 11.28 198.60 11.28L198.60 11.28Q197.14 11.28 196.61 12.37Q196.08 13.46 196.08 15.50L196.08 15.50L196.08 21.50L192.02 21.50L192.02 8.33L195.10 8.33L195.65 10.03L195.84 10.03Q196.27 9.38 196.87 8.95Q197.47 8.52 198.24 8.30Q199.01 8.09 199.87 8.09ZM213.84 8.06L213.84 8.06Q216.41 8.06 217.82 9.25Q219.24 10.44 219.24 12.77L219.24 12.77L219.24 21.50L216.43 21.50L215.64 19.73L215.54 19.73Q214.99 20.42 214.40 20.88Q213.82 21.34 213.06 21.54Q212.30 21.74 211.20 21.74L211.20 21.74Q210.05 21.74 209.12 21.29Q208.20 20.83 207.67 19.90Q207.14 18.96 207.14 17.52L207.14 17.52Q207.14 15.41 208.62 14.40Q210.10 13.39 212.95 13.27L212.95 13.27L215.21 13.20L215.21 12.82Q215.21 11.86 214.72 11.42Q214.22 10.99 213.36 10.99L213.36 10.99Q212.50 10.99 211.56 11.27Q210.62 11.54 209.66 11.95L209.66 11.95L208.44 9.26Q209.52 8.69 210.89 8.38Q212.26 8.06 213.84 8.06ZM215.21 15.50L213.98 15.55Q212.47 15.60 211.87 16.09Q211.27 16.58 211.27 17.42L211.27 17.42Q211.27 18.17 211.70 18.50Q212.14 18.84 212.81 18.84L212.81 18.84Q213.82 18.84 214.51 18.23Q215.21 17.62 215.21 16.56L215.21 16.56L215.21 15.50ZM226.90 8.09L226.90 8.09Q228.19 8.09 229.10 8.59Q230.02 9.10 230.62 9.98L230.62 9.98L230.71 9.98L231.02 8.33L234.48 8.33L234.48 21.53Q234.48 23.40 233.74 24.67Q232.99 25.94 231.48 26.60Q229.97 27.26 227.69 27.26L227.69 27.26Q226.20 27.26 224.99 27.10Q223.78 26.93 222.65 26.50L222.65 26.50L222.65 23.21Q223.85 23.71 225.05 23.96Q226.25 24.22 227.69 24.22L227.69 24.22Q229.08 24.22 229.76 23.58Q230.45 22.94 230.45 21.70L230.45 21.70L230.45 21.43Q230.45 21.07 230.48 20.64Q230.52 20.21 230.57 19.80L230.57 19.80L230.45 19.80Q229.87 20.74 228.98 21.24Q228.10 21.74 226.82 21.74L226.82 21.74Q224.59 21.74 223.28 19.97Q221.98 18.19 221.98 14.93L221.98 14.93Q221.98 11.64 223.32 9.86Q224.66 8.09 226.90 8.09ZM228.31 11.28L228.31 11.28Q227.57 11.28 227.06 11.70Q226.56 12.12 226.32 12.94Q226.08 13.75 226.08 15L226.08 15Q226.08 16.85 226.63 17.72Q227.18 18.60 228.36 18.60L228.36 18.60Q229.01 18.60 229.45 18.42Q229.90 18.24 230.17 17.84Q230.45 17.45 230.59 16.85Q230.74 16.25 230.74 15.41L230.74 15.41L230.74 14.90Q230.74 13.68 230.50 12.88Q230.26 12.07 229.73 11.68Q229.20 11.28 228.31 11.28ZM243.86 8.06L243.86 8.06Q246.43 8.06 247.85 9.25Q249.26 10.44 249.26 12.77L249.26 12.77L249.26 21.50L246.46 21.50L245.66 19.73L245.57 19.73Q245.02 20.42 244.43 20.88Q243.84 21.34 243.08 21.54Q242.33 21.74 241.22 21.74L241.22 21.74Q240.07 21.74 239.15 21.29Q238.22 20.83 237.70 19.90Q237.17 18.96 237.17 17.52L237.17 17.52Q237.17 15.41 238.64 14.40Q240.12 13.39 242.98 13.27L242.98 13.27L245.23 13.20L245.23 12.82Q245.23 11.86 244.74 11.42Q244.25 10.99 243.38 10.99L243.38 10.99Q242.52 10.99 241.58 11.27Q240.65 11.54 239.69 11.95L239.69 11.95L238.46 9.26Q239.54 8.69 240.91 8.38Q242.28 8.06 243.86 8.06ZM245.23 15.50L244.01 15.55Q242.50 15.60 241.90 16.09Q241.30 16.58 241.30 17.42L241.30 17.42Q241.30 18.17 241.73 18.50Q242.16 18.84 242.83 18.84L242.83 18.84Q243.84 18.84 244.54 18.23Q245.23 17.62 245.23 16.56L245.23 16.56L245.23 15.50ZM260.33 8.09L260.33 8.09Q260.64 8.09 261.02 8.12Q261.41 8.16 261.62 8.21L261.62 8.21L261.29 12.00Q261.07 11.95 260.74 11.92Q260.40 11.88 259.99 11.88L259.99 11.88Q259.42 11.88 258.84 12.01Q258.26 12.14 257.78 12.47Q257.30 12.79 257.02 13.38Q256.73 13.97 256.73 14.90L256.73 14.90L256.73 21.50L252.67 21.50L252.67 8.33L255.72 8.33L256.34 10.49L256.51 10.49Q256.90 9.82 257.47 9.28Q258.05 8.74 258.78 8.41Q259.51 8.09 260.33 8.09ZM263.76 8.33L267.79 8.33L267.79 21.50L263.76 21.50L263.76 8.33ZM265.80 3.10L265.80 3.10Q266.66 3.10 267.31 3.48Q267.96 3.86 267.96 4.97L267.96 4.97Q267.96 6.05 267.31 6.44Q266.66 6.84 265.80 6.84L265.80 6.84Q264.89 6.84 264.25 6.44Q263.62 6.05 263.62 4.97L263.62 4.97Q263.62 3.86 264.25 3.48Q264.89 3.10 265.80 3.10ZM282.55 21.74L282.55 21.74Q279.58 21.74 278.09 20.47Q276.60 19.20 276.60 17.09L276.60 17.09Q276.60 15.91 277.02 15.07Q277.44 14.23 278.16 13.61Q278.88 12.98 279.79 12.55L279.79 12.55Q279.05 12.05 278.45 11.45Q277.85 10.85 277.49 10.06Q277.13 9.26 277.13 8.26L277.13 8.26Q277.13 6.89 277.86 5.98Q278.59 5.06 279.83 4.61Q281.06 4.15 282.58 4.15L282.58 4.15Q284.11 4.15 285.34 4.61Q286.56 5.06 287.28 5.98Q288 6.89 288 8.28L288 8.28Q288 9.31 287.62 10.09Q287.23 10.87 286.56 11.45Q285.89 12.02 285 12.48L285 12.48Q285.89 12.96 286.68 13.58Q287.47 14.21 287.99 15.05Q288.50 15.89 288.50 17.02L288.50 17.02Q288.50 18.41 287.81 19.48Q287.11 20.54 285.78 21.14Q284.45 21.74 282.55 21.74ZM282.50 18.79L282.50 18.79Q283.63 18.79 284.20 18.29Q284.76 17.78 284.76 16.94L284.76 16.94Q284.76 16.18 284.16 15.55Q283.56 14.93 282.46 14.26L282.46 14.26Q281.86 14.57 281.38 14.96Q280.90 15.36 280.62 15.83Q280.34 16.30 280.34 16.87L280.34 16.87Q280.34 17.74 280.91 18.26Q281.47 18.79 282.50 18.79ZM282.55 10.73L282.55 10.73Q282.96 10.51 283.33 10.22Q283.70 9.94 283.93 9.55Q284.16 9.17 284.16 8.62L284.16 8.62Q284.16 7.90 283.69 7.49Q283.22 7.08 282.55 7.08L282.55 7.08Q282.10 7.08 281.72 7.27Q281.35 7.46 281.14 7.80Q280.92 8.14 280.92 8.62L280.92 8.62Q280.92 9.14 281.14 9.53Q281.35 9.91 281.72 10.20Q282.10 10.49 282.55 10.73ZM296.04 21.74L296.04 21.74Q292.99 21.74 291.54 19.40Q290.09 17.06 290.09 12.96L290.09 12.96Q290.09 10.18 290.68 8.20Q291.26 6.22 292.57 5.16Q293.88 4.10 296.04 4.10L296.04 4.10Q299.09 4.10 300.56 6.43Q302.04 8.76 302.04 12.94L302.04 12.94Q302.04 15 301.70 16.63Q301.37 18.26 300.67 19.40Q299.98 20.54 298.84 21.14Q297.70 21.74 296.04 21.74ZM296.04 18.48L296.04 18.48Q297.14 18.48 297.56 17.10Q297.98 15.72 297.98 12.94L297.98 12.94Q297.98 10.18 297.56 8.78Q297.14 7.39 296.04 7.39L296.04 7.39Q294.94 7.39 294.53 8.78Q294.12 10.18 294.12 12.94L294.12 12.94Q294.12 15.70 294.54 17.09Q294.96 18.48 296.04 18.48ZM309.55 21.74L309.55 21.74Q306.50 21.74 305.05 19.40Q303.60 17.06 303.60 12.96L303.60 12.96Q303.60 10.18 304.19 8.20Q304.78 6.22 306.08 5.16Q307.39 4.10 309.55 4.10L309.55 4.10Q312.60 4.10 314.08 6.43Q315.55 8.76 315.55 12.94L315.55 12.94Q315.55 15 315.22 16.63Q314.88 18.26 314.18 19.40Q313.49 20.54 312.35 21.14Q311.21 21.74 309.55 21.74ZM309.55 18.48L309.55 18.48Q310.66 18.48 311.08 17.10Q311.50 15.72 311.50 12.94L311.50 12.94Q311.50 10.18 311.08 8.78Q310.66 7.39 309.55 7.39L309.55 7.39Q308.45 7.39 308.04 8.78Q307.63 10.18 307.63 12.94L307.63 12.94Q307.63 15.70 308.05 17.09Q308.47 18.48 309.55 18.48ZM332.14 8.09L332.14 8.09Q334.22 8.09 335.51 9.23Q336.79 10.37 336.79 12.91L336.79 12.91L336.79 21.50L332.76 21.50L332.76 14.04Q332.76 12.67 332.30 11.98Q331.85 11.28 330.86 11.28L330.86 11.28Q329.40 11.28 328.87 12.37Q328.34 13.46 328.34 15.50L328.34 15.50L328.34 21.50L324.29 21.50L324.29 8.33L327.36 8.33L327.91 10.03L328.10 10.03Q328.54 9.38 329.14 8.95Q329.74 8.52 330.50 8.30Q331.27 8.09 332.14 8.09ZM352.46 14.88L352.46 14.88Q352.46 16.54 352.02 17.81Q351.58 19.08 350.72 19.97Q349.87 20.86 348.68 21.30Q347.50 21.74 345.96 21.74L345.96 21.74Q344.57 21.74 343.38 21.30Q342.19 20.86 341.34 19.98Q340.49 19.10 340.01 17.82Q339.53 16.54 339.53 14.88L339.53 14.88Q339.53 12.70 340.31 11.18Q341.09 9.67 342.55 8.88Q344.02 8.09 346.03 8.09L346.03 8.09Q347.93 8.09 349.37 8.88Q350.81 9.67 351.64 11.18Q352.46 12.70 352.46 14.88ZM343.63 14.88L343.63 14.88Q343.63 16.10 343.87 16.94Q344.11 17.78 344.64 18.20Q345.17 18.62 346.01 18.62L346.01 18.62Q346.87 18.62 347.38 18.20Q347.88 17.78 348.12 16.94Q348.36 16.10 348.36 14.88L348.36 14.88Q348.36 13.66 348.12 12.84Q347.88 12.02 347.36 11.62Q346.85 11.21 345.98 11.21L345.98 11.21Q344.76 11.21 344.20 12.13Q343.63 13.06 343.63 14.88ZM362.90 8.09L362.90 8.09Q363.22 8.09 363.60 8.12Q363.98 8.16 364.20 8.21L364.20 8.21L363.86 12.00Q363.65 11.95 363.31 11.92Q362.98 11.88 362.57 11.88L362.57 11.88Q361.99 11.88 361.42 12.01Q360.84 12.14 360.36 12.47Q359.88 12.79 359.59 13.38Q359.30 13.97 359.30 14.90L359.30 14.90L359.30 21.50L355.25 21.50L355.25 8.33L358.30 8.33L358.92 10.49L359.09 10.49Q359.47 9.82 360.05 9.28Q360.62 8.74 361.36 8.41Q362.09 8.09 362.90 8.09ZM382.08 8.09L382.08 8.09Q384.34 8.09 385.50 9.23Q386.66 10.37 386.66 12.91L386.66 12.91L386.66 21.50L382.63 21.50L382.63 14.04Q382.63 12.60 382.19 11.94Q381.74 11.28 380.83 11.28L380.83 11.28Q379.56 11.28 379.03 12.28Q378.50 13.27 378.50 15.12L378.50 15.12L378.50 21.50L374.47 21.50L374.47 14.04Q374.47 13.10 374.28 12.49Q374.09 11.88 373.70 11.58Q373.32 11.28 372.70 11.28L372.70 11.28Q371.81 11.28 371.29 11.77Q370.78 12.26 370.57 13.20Q370.37 14.14 370.37 15.50L370.37 15.50L370.37 21.50L366.31 21.50L366.31 8.33L369.38 8.33L369.96 9.98L370.13 9.98Q370.51 9.36 371.09 8.94Q371.66 8.52 372.41 8.30Q373.15 8.09 374.02 8.09L374.02 8.09Q375.46 8.09 376.44 8.57Q377.42 9.05 377.98 9.96L377.98 9.96L378.22 9.96Q378.84 9.02 379.87 8.56Q380.90 8.09 382.08 8.09ZM395.98 8.06L395.98 8.06Q398.54 8.06 399.96 9.25Q401.38 10.44 401.38 12.77L401.38 12.77L401.38 21.50L398.57 21.50L397.78 19.73L397.68 19.73Q397.13 20.42 396.54 20.88Q395.95 21.34 395.20 21.54Q394.44 21.74 393.34 21.74L393.34 21.74Q392.18 21.74 391.26 21.29Q390.34 20.83 389.81 19.90Q389.28 18.96 389.28 17.52L389.28 17.52Q389.28 15.41 390.76 14.40Q392.23 13.39 395.09 13.27L395.09 13.27L397.34 13.20L397.34 12.82Q397.34 11.86 396.85 11.42Q396.36 10.99 395.50 10.99L395.50 10.99Q394.63 10.99 393.70 11.27Q392.76 11.54 391.80 11.95L391.80 11.95L390.58 9.26Q391.66 8.69 393.02 8.38Q394.39 8.06 395.98 8.06ZM397.34 15.50L396.12 15.55Q394.61 15.60 394.01 16.09Q393.41 16.58 393.41 17.42L393.41 17.42Q393.41 18.17 393.84 18.50Q394.27 18.84 394.94 18.84L394.94 18.84Q395.95 18.84 396.65 18.23Q397.34 17.62 397.34 16.56L397.34 16.56L397.34 15.50ZM408.84 3.26L408.84 21.50L404.78 21.50L404.78 3.26L408.84 3.26Z"/></svg>