<svg xmlns="http://www.w3.org/2000/svg" xmlns:xlink="http://www.w3.org/1999/xlink" width="175.032" height="42.192"><path fill="black" d="M2.23 23.71L2.23 23.71Q2.23 23.71 2.46 23.12Q2.69 22.54 3.07 21.53Q3.46 20.52 3.95 19.28Q4.44 18.05 4.94 16.74Q5.45 15.43 5.92 14.23Q6.38 13.03 6.74 12.12L6.74 12.12Q6.84 11.93 7.16 11.69Q7.49 11.45 7.66 11.45L7.66 11.45Q7.70 11.45 7.72 11.46Q7.73 11.47 7.78 11.50L7.78 11.50L12.55 24.02Q13.08 25.42 13.15 25.56L13.15 25.56Q13.27 25.82 13.62 26.02Q13.97 26.21 14.32 26.29Q14.66 26.38 14.76 26.38L14.76 26.38Q14.86 26.50 14.83 26.75Q14.81 27 14.78 27.05L14.78 27.05Q14.09 27 13.54 26.96Q12.98 26.93 12.22 26.93L12.22 26.93Q11.40 26.93 10.86 26.96Q10.32 27 9.50 27.05L9.50 27.05Q9.41 26.95 9.42 26.71Q9.43 26.47 9.53 26.38L9.53 26.38Q9.74 26.38 10.20 26.29Q10.66 26.21 10.82 26.06L10.82 26.06Q10.92 25.97 10.92 25.73L10.92 25.73Q10.92 25.51 10.76 25.00Q10.61 24.48 10.37 23.83Q10.13 23.18 9.89 22.57Q9.65 21.96 9.49 21.56Q9.34 21.17 9.34 21.17L9.34 21.17Q9.34 21.17 9.29 21.12Q9.24 21.07 9.19 21.07L9.19 21.07Q8.83 21.05 8.30 21.05Q7.78 21.05 7.32 21.05L7.32 21.05Q7.20 21.05 7.08 21.05Q6.96 21.05 6.86 21.05L6.86 21.05Q6.14 21.05 5.64 21.06Q5.14 21.07 4.34 21.12L4.34 21.12Q4.32 21.12 4.27 21.16Q4.22 21.19 4.22 21.19L4.22 21.19Q4.22 21.19 4.04 21.67Q3.86 22.15 3.61 22.81Q3.36 23.47 3.17 24.05L3.17 24.05Q2.95 24.65 2.89 25.06Q2.83 25.46 2.83 25.70L2.83 25.70Q2.83 25.97 3.20 26.12Q3.58 26.28 3.97 26.33Q4.37 26.38 4.46 26.38L4.46 26.38Q4.51 26.42 4.54 26.68Q4.56 26.93 4.51 27.05L4.51 27.05Q4.06 27.02 3.73 27Q3.41 26.98 3.08 26.95Q2.76 26.93 2.23 26.93L2.23 26.93Q1.70 26.93 1.34 26.95Q0.98 26.98 0.62 27Q0.26 27.02-0.29 27.05L-0.29 27.05Q-0.34 27-0.34 26.75Q-0.34 26.50-0.29 26.38L-0.29 26.38Q-0.07 26.38 0.44 26.27Q0.96 26.16 1.13 25.92L1.13 25.92Q1.49 25.46 1.74 24.90Q1.99 24.34 2.23 23.71ZM8.88 19.94L6.82 14.28L4.68 19.99Q4.68 19.99 4.69 20.04Q4.70 20.09 4.73 20.09L4.73 20.09Q5.18 20.11 5.82 20.12Q6.46 20.14 6.84 20.14L6.84 20.14Q7.39 20.14 7.84 20.11Q8.28 20.09 8.81 20.06L8.81 20.06Q8.86 20.06 8.87 20.00Q8.88 19.94 8.88 19.94L8.88 19.94ZM22.18 16.70L22.18 16.70Q23.23 16.70 23.89 17.15Q24.55 17.59 24.84 18.65L24.84 18.65Q25.61 17.95 26.53 17.33Q27.46 16.70 28.30 16.70L28.30 16.70Q29.57 16.70 30.22 17.23Q30.86 17.76 31.09 18.86Q31.32 19.97 31.32 21.67L31.32 21.67L31.32 24.26Q31.32 24.79 31.33 25.25Q31.34 25.70 31.44 25.99L31.44 25.99Q31.49 26.11 31.79 26.21Q32.09 26.30 32.42 26.34Q32.76 26.38 32.90 26.38L32.90 26.38Q32.98 26.47 32.99 26.71Q33 26.95 32.90 27.05L32.90 27.05Q32.18 27 31.64 26.96Q31.10 26.93 30.41 26.93L30.41 26.93Q29.74 26.93 29.18 26.96Q28.63 27 27.91 27.05L27.91 27.05Q27.82 26.95 27.83 26.71Q27.84 26.47 27.91 26.38L27.91 26.38Q28.06 26.38 28.40 26.34Q28.75 26.30 29.06 26.21Q29.38 26.11 29.40 25.99L29.40 25.99Q29.47 25.75 29.48 25.38Q29.50 25.01 29.50 24.55L29.50 24.55Q29.50 24.48 29.50 24.41Q29.50 24.34 29.50 24.26L29.50 24.26L29.50 21.74Q29.50 20.57 29.34 19.75Q29.18 18.94 28.73 18.50Q28.27 18.07 27.31 18.07L27.31 18.07Q26.74 18.07 26.21 18.37Q25.68 18.67 25.34 19.00Q25.01 19.32 25.01 19.42L25.01 19.42Q25.01 19.44 25.02 19.55Q25.03 19.66 25.03 19.70L25.03 19.70Q25.08 20.04 25.10 20.54Q25.13 21.05 25.13 21.38L25.13 21.38L25.13 24.26Q25.13 24.79 25.14 25.25Q25.15 25.70 25.25 25.99L25.25 25.99Q25.30 26.11 25.60 26.21Q25.90 26.30 26.23 26.34Q26.57 26.38 26.71 26.38L26.71 26.38Q26.78 26.47 26.80 26.71Q26.81 26.95 26.71 27.05L26.71 27.05Q25.99 27 25.45 26.96Q24.91 26.93 24.22 26.93L24.22 26.93Q23.54 26.93 22.99 26.96Q22.44 27 21.72 27.05L21.72 27.05Q21.62 26.95 21.64 26.71Q21.65 26.47 21.72 26.38L21.72 26.38Q21.86 26.38 22.21 26.34Q22.56 26.30 22.87 26.21Q23.18 26.11 23.21 25.99L23.21 25.99Q23.30 25.70 23.32 25.25Q23.33 24.79 23.33 24.26L23.33 24.26L23.33 21.86Q23.33 19.73 22.86 18.90Q22.39 18.07 21.12 18.07L21.12 18.07Q20.59 18.07 20.09 18.34Q19.58 18.60 19.26 18.90Q18.94 19.20 18.94 19.37L18.94 19.37L18.94 24.26Q18.94 24.79 18.95 25.25Q18.96 25.70 19.06 25.99L19.06 25.99Q19.10 26.11 19.40 26.21Q19.70 26.30 20.04 26.34Q20.38 26.38 20.52 26.38L20.52 26.38Q20.59 26.47 20.60 26.71Q20.62 26.95 20.52 27.05L20.52 27.05Q19.80 27 19.26 26.96Q18.72 26.93 18.02 26.93L18.02 26.93Q17.35 26.93 16.80 26.96Q16.25 27 15.53 27.05L15.53 27.05Q15.43 26.95 15.44 26.71Q15.46 26.47 15.53 26.38L15.53 26.38Q15.67 26.38 16.02 26.34Q16.37 26.30 16.68 26.21Q16.99 26.11 17.02 25.99L17.02 25.99Q17.11 25.70 17.12 25.25Q17.14 24.79 17.14 24.26L17.14 24.26L17.14 19.99Q17.14 19.75 17.12 19.32Q17.11 18.89 17.02 18.67L17.02 18.67Q16.94 18.46 16.61 18.37Q16.27 18.29 15.94 18.28Q15.60 18.26 15.50 18.26L15.50 18.26Q15.48 18.22 15.46 17.98Q15.43 17.74 15.50 17.64L15.50 17.64Q16.42 17.52 17.28 17.28Q18.14 17.04 18.84 16.66L18.84 16.66Q18.94 16.66 19.02 16.80Q19.10 16.94 19.10 17.04L19.10 17.04Q19.10 17.11 19.07 17.38Q19.03 17.64 19.00 17.90Q18.96 18.17 18.96 18.26L18.96 18.26Q18.96 18.36 19.01 18.36L19.01 18.36Q19.03 18.36 19.08 18.31L19.08 18.31Q19.37 18.05 19.85 17.68Q20.33 17.30 20.94 17.00Q21.55 16.70 22.18 16.70ZM35.18 13.08L35.18 13.08Q35.18 12.60 35.53 12.25Q35.88 11.90 36.36 11.90L36.36 11.90Q36.84 11.90 37.19 12.25Q37.54 12.60 37.54 13.08L37.54 13.08Q37.54 13.56 37.19 13.91Q36.84 14.26 36.36 14.26L36.36 14.26Q35.88 14.26 35.53 13.91Q35.18 13.56 35.18 13.08ZM37.44 18.58L37.44 24.26Q37.44 24.79 37.45 25.25Q37.46 25.70 37.56 25.99L37.56 25.99Q37.61 26.11 37.91 26.21Q38.21 26.30 38.54 26.34Q38.88 26.38 39.02 26.38L39.02 26.38Q39.10 26.47 39.11 26.71Q39.12 26.95 39.02 27.05L39.02 27.05Q38.30 27 37.76 26.96Q37.22 26.93 36.53 26.93L36.53 26.93Q35.86 26.93 35.30 26.96Q34.75 27 34.03 27.05L34.03 27.05Q33.94 26.95 33.95 26.71Q33.96 26.47 34.03 26.38L34.03 26.38Q34.18 26.38 34.52 26.34Q34.87 26.30 35.18 26.21Q35.50 26.11 35.52 25.99L35.52 25.99Q35.62 25.70 35.63 25.25Q35.64 24.79 35.64 24.26L35.64 24.26L35.64 19.90Q35.64 19.66 35.63 19.27Q35.62 18.89 35.52 18.67L35.52 18.67Q35.45 18.46 35.11 18.37Q34.78 18.29 34.44 18.28Q34.10 18.26 34.01 18.26L34.01 18.26Q33.98 18.22 33.96 17.98Q33.94 17.74 34.01 17.64L34.01 17.64Q34.92 17.52 35.78 17.28Q36.65 17.04 37.34 16.66L37.34 16.66Q37.44 16.66 37.52 16.80Q37.61 16.94 37.61 17.04L37.61 17.04Q37.61 17.11 37.56 17.45Q37.51 17.78 37.48 18.12Q37.44 18.46 37.44 18.58L37.44 18.58ZM46.61 16.73L46.61 16.73Q47.06 16.73 47.47 16.93Q47.88 17.14 48.05 17.42L48.05 17.42Q48.10 17.52 48.12 17.69Q48.14 17.86 48.14 18.05L48.14 18.05Q48.14 18.70 47.84 18.98Q47.54 19.27 47.35 19.27L47.35 19.27Q47.11 19.27 46.90 19.10Q46.68 18.94 46.49 18.82L46.49 18.82Q46.32 18.70 46.14 18.61Q45.96 18.53 45.62 18.53L45.62 18.53Q45.12 18.53 44.70 18.95Q44.28 19.37 44.02 19.87Q43.75 20.38 43.75 20.64L43.75 20.64L43.75 24.26Q43.75 24.79 43.76 25.25Q43.78 25.70 43.87 25.99L43.87 25.99Q43.92 26.11 44.35 26.21Q44.78 26.30 45.26 26.34Q45.74 26.38 45.89 26.38L45.89 26.38Q45.96 26.47 45.97 26.71Q45.98 26.95 45.89 27.05L45.89 27.05Q45.17 27 44.42 26.96Q43.68 26.93 42.98 26.93L42.98 26.93Q42.31 26.93 41.69 26.96Q41.06 27 40.34 27.05L40.34 27.05Q40.25 26.95 40.26 26.71Q40.27 26.47 40.34 26.38L40.34 26.38Q40.49 26.38 40.84 26.34Q41.18 26.30 41.50 26.21Q41.81 26.11 41.83 25.99L41.83 25.99Q41.93 25.70 41.94 25.25Q41.95 24.79 41.95 24.26L41.95 24.26L41.95 19.90Q41.95 19.66 41.94 19.27Q41.93 18.89 41.83 18.67L41.83 18.67Q41.76 18.46 41.42 18.37Q41.09 18.29 40.75 18.28Q40.42 18.26 40.32 18.26L40.32 18.26Q40.30 18.22 40.27 17.98Q40.25 17.74 40.32 17.64L40.32 17.64Q41.23 17.52 42.10 17.28Q42.96 17.04 43.66 16.66L43.66 16.66Q43.75 16.66 43.84 16.80Q43.92 16.94 43.92 17.04L43.92 17.04Q43.92 17.11 43.87 17.59Q43.82 18.07 43.79 18.56Q43.75 19.06 43.75 19.20L43.75 19.20Q43.75 19.27 43.79 19.27Q43.82 19.27 43.85 19.25L43.85 19.25Q44.09 18.74 44.53 18.16Q44.98 17.57 45.53 17.15Q46.08 16.73 46.61 16.73ZM50.47 13.08L50.47 13.08Q50.47 12.60 50.82 12.25Q51.17 11.90 51.65 11.90L51.65 11.90Q52.13 11.90 52.48 12.25Q52.82 12.60 52.82 13.08L52.82 13.08Q52.82 13.56 52.48 13.91Q52.13 14.26 51.65 14.26L51.65 14.26Q51.17 14.26 50.82 13.91Q50.47 13.56 50.47 13.08ZM52.73 18.58L52.73 24.26Q52.73 24.79 52.74 25.25Q52.75 25.70 52.85 25.99L52.85 25.99Q52.90 26.11 53.20 26.21Q53.50 26.30 53.83 26.34Q54.17 26.38 54.31 26.38L54.31 26.38Q54.38 26.47 54.40 26.71Q54.41 26.95 54.31 27.05L54.31 27.05Q53.59 27 53.05 26.96Q52.51 26.93 51.82 26.93L51.82 26.93Q51.14 26.93 50.59 26.96Q50.04 27 49.32 27.05L49.32 27.05Q49.22 26.95 49.24 26.71Q49.25 26.47 49.32 26.38L49.32 26.38Q49.46 26.38 49.81 26.34Q50.16 26.30 50.47 26.21Q50.78 26.11 50.81 25.99L50.81 25.99Q50.90 25.70 50.92 25.25Q50.93 24.79 50.93 24.26L50.93 24.26L50.93 19.90Q50.93 19.66 50.92 19.27Q50.90 18.89 50.81 18.67L50.81 18.67Q50.74 18.46 50.40 18.37Q50.06 18.29 49.73 18.28Q49.39 18.26 49.30 18.26L49.30 18.26Q49.27 18.22 49.25 17.98Q49.22 17.74 49.30 17.64L49.30 17.64Q50.21 17.52 51.07 17.28Q51.94 17.04 52.63 16.66L52.63 16.66Q52.73 16.66 52.81 16.80Q52.90 16.94 52.90 17.04L52.90 17.04Q52.90 17.11 52.85 17.45Q52.80 17.78 52.76 18.12Q52.73 18.46 52.73 18.58L52.73 18.58ZM71.30 11.88L71.30 11.88Q71.50 11.88 71.58 12.02Q71.66 12.17 71.66 12.31L71.66 12.31L71.66 21.55L73.06 21.55Q73.18 21.55 73.27 21.84Q73.37 22.13 73.37 22.51L73.37 22.51Q73.37 22.78 73.30 22.90L73.30 22.90L71.66 22.90L71.66 27Q71.66 27 71.51 27.06Q71.35 27.12 70.66 27.12L70.66 27.12Q69.82 27.12 69.82 26.93L69.82 26.93L69.82 22.90L63.22 22.90Q63.10 22.82 63.04 22.69Q62.98 22.56 62.98 22.46L62.98 22.46L70.61 12.48Q70.73 12.34 70.94 12.11Q71.16 11.88 71.30 11.88ZM69.82 21.55L69.82 14.69L64.56 21.55L69.82 21.55ZM80.95 11.95L80.95 11.95Q82.61 11.95 83.75 12.98Q84.89 14.02 85.48 15.73Q86.06 17.45 86.06 19.49L86.06 19.49Q86.06 21.53 85.46 23.24Q84.86 24.96 83.72 26.00Q82.58 27.05 80.95 27.05L80.95 27.05Q79.37 27.05 78.22 26.00Q77.06 24.96 76.45 23.24Q75.84 21.53 75.84 19.49L75.84 19.49Q75.84 17.45 76.44 15.73Q77.04 14.02 78.19 12.98Q79.34 11.95 80.95 11.95ZM81.07 12.82L81.07 12.82Q80.09 12.82 79.38 13.72Q78.67 14.62 78.29 16.13Q77.90 17.64 77.90 19.49L77.90 19.49Q77.90 21.31 78.29 22.84Q78.67 24.36 79.33 25.27Q79.99 26.18 80.86 26.18L80.86 26.18Q81.91 26.18 82.61 25.25Q83.30 24.31 83.65 22.75Q84 21.19 84 19.37L84 19.37Q84 17.52 83.63 16.04Q83.26 14.57 82.60 13.69Q81.94 12.82 81.07 12.82ZM93.72 11.95L93.72 11.95Q95.38 11.95 96.52 12.98Q97.66 14.02 98.24 15.73Q98.83 17.45 98.83 19.49L98.83 19.49Q98.83 21.53 98.23 23.24Q97.63 24.96 96.49 26.00Q95.35 27.05 93.72 27.05L93.72 27.05Q92.14 27.05 90.98 26.00Q89.83 24.96 89.22 23.24Q88.61 21.53 88.61 19.49L88.61 19.49Q88.61 17.45 89.21 15.73Q89.81 14.02 90.96 12.98Q92.11 11.95 93.72 11.95ZM93.84 12.82L93.84 12.82Q92.86 12.82 92.15 13.72Q91.44 14.62 91.06 16.13Q90.67 17.64 90.67 19.49L90.67 19.49Q90.67 21.31 91.06 22.84Q91.44 24.36 92.10 25.27Q92.76 26.18 93.62 26.18L93.62 26.18Q94.68 26.18 95.38 25.25Q96.07 24.31 96.42 22.75Q96.77 21.19 96.77 19.37L96.77 19.37Q96.77 17.52 96.40 16.04Q96.02 14.57 95.36 13.69Q94.70 12.82 93.84 12.82ZM114.67 16.70L114.67 16.70Q115.94 16.70 116.59 17.23Q117.24 17.76 117.47 18.86Q117.70 19.97 117.70 21.67L117.70 21.67L117.70 24.26Q117.70 24.79 117.71 25.25Q117.72 25.70 117.82 25.99L117.82 25.99Q117.86 26.11 118.16 26.21Q118.46 26.30 118.80 26.34Q119.14 26.38 119.28 26.38L119.28 26.38Q119.35 26.47 119.36 26.71Q119.38 26.95 119.28 27.05L119.28 27.05Q118.56 27 118.02 26.96Q117.48 26.93 116.78 26.93L116.78 26.93Q116.11 26.93 115.56 26.96Q115.01 27 114.29 27.05L114.29 27.05Q114.19 26.95 114.20 26.71Q114.22 26.47 114.29 26.38L114.29 26.38Q114.43 26.38 114.78 26.34Q115.13 26.30 115.44 26.21Q115.75 26.11 115.78 25.99L115.78 25.99Q115.87 25.70 115.88 25.25Q115.90 24.79 115.90 24.26L115.90 24.26L115.90 21.91Q115.90 20.45 115.70 19.62Q115.51 18.79 115.01 18.43Q114.50 18.07 113.59 18.07L113.59 18.07Q113.16 18.07 112.64 18.35Q112.13 18.62 111.74 18.94Q111.36 19.25 111.36 19.37L111.36 19.37L111.36 24.26Q111.36 24.79 111.37 25.25Q111.38 25.70 111.48 25.99L111.48 25.99Q111.53 26.11 111.83 26.21Q112.13 26.30 112.46 26.34Q112.80 26.38 112.94 26.38L112.94 26.38Q113.02 26.47 113.03 26.71Q113.04 26.95 112.94 27.05L112.94 27.05Q112.22 27 111.68 26.96Q111.14 26.93 110.45 26.93L110.45 26.93Q109.78 26.93 109.22 26.96Q108.67 27 107.95 27.05L107.95 27.05Q107.86 26.95 107.87 26.71Q107.88 26.47 107.95 26.38L107.95 26.38Q108.10 26.38 108.44 26.34Q108.79 26.30 109.10 26.21Q109.42 26.11 109.44 25.99L109.44 25.99Q109.54 25.70 109.55 25.25Q109.56 24.79 109.56 24.26L109.56 24.26L109.56 19.99Q109.56 19.75 109.55 19.32Q109.54 18.89 109.44 18.67L109.44 18.67Q109.37 18.46 109.03 18.37Q108.70 18.29 108.36 18.28Q108.02 18.26 107.93 18.26L107.93 18.26Q107.90 18.22 107.88 17.98Q107.86 17.74 107.93 17.64L107.93 17.64Q108.84 17.52 109.70 17.28Q110.57 17.04 111.26 16.66L111.26 16.66Q111.36 16.66 111.44 16.80Q111.53 16.94 111.53 17.04L111.53 17.04Q111.53 17.11 111.49 17.41Q111.46 17.71 111.42 18Q111.38 18.29 111.38 18.38L111.38 18.38Q111.38 18.48 111.43 18.48L111.43 18.48Q111.46 18.48 111.50 18.43L111.50 18.43Q111.74 18.17 112.28 17.76Q112.82 17.35 113.47 17.03Q114.12 16.70 114.67 16.70ZM125.52 16.68L125.52 16.68Q127.08 16.68 128.20 17.35Q129.31 18.02 129.92 19.18Q130.54 20.33 130.54 21.79L130.54 21.79Q130.54 23.30 129.89 24.52Q129.24 25.73 128.11 26.44Q126.98 27.14 125.57 27.14L125.57 27.14Q124.03 27.14 122.89 26.46Q121.75 25.78 121.14 24.61Q120.53 23.45 120.53 21.98L120.53 21.98Q120.53 20.47 121.19 19.27Q121.85 18.07 122.98 17.38Q124.10 16.68 125.52 16.68ZM125.26 17.47L125.26 17.47Q124.27 17.47 123.67 18.06Q123.07 18.65 122.81 19.57Q122.54 20.50 122.54 21.50L122.54 21.50Q122.54 22.63 122.92 23.76Q123.29 24.89 124.02 25.63Q124.75 26.38 125.81 26.38L125.81 26.38Q126.82 26.38 127.40 25.79Q127.99 25.20 128.26 24.26Q128.52 23.33 128.52 22.34L128.52 22.34Q128.52 21.19 128.14 20.08Q127.75 18.96 127.03 18.22Q126.31 17.47 125.26 17.47ZM138.60 16.73L138.60 16.73Q139.06 16.73 139.46 16.93Q139.87 17.14 140.04 17.42L140.04 17.42Q140.09 17.52 140.11 17.69Q140.14 17.86 140.14 18.05L140.14 18.05Q140.14 18.70 139.84 18.98Q139.54 19.27 139.34 19.27L139.34 19.27Q139.10 19.27 138.89 19.10Q138.67 18.94 138.48 18.82L138.48 18.82Q138.31 18.70 138.13 18.61Q137.95 18.53 137.62 18.53L137.62 18.53Q137.11 18.53 136.69 18.95Q136.27 19.37 136.01 19.87Q135.74 20.38 135.74 20.64L135.74 20.64L135.74 24.26Q135.74 24.79 135.76 25.25Q135.77 25.70 135.86 25.99L135.86 25.99Q135.91 26.11 136.34 26.21Q136.78 26.30 137.26 26.34Q137.74 26.38 137.88 26.38L137.88 26.38Q137.95 26.47 137.96 26.71Q137.98 26.95 137.88 27.05L137.88 27.05Q137.16 27 136.42 26.96Q135.67 26.93 134.98 26.93L134.98 26.93Q134.30 26.93 133.68 26.96Q133.06 27 132.34 27.05L132.34 27.05Q132.24 26.95 132.25 26.71Q132.26 26.47 132.34 26.38L132.34 26.38Q132.48 26.38 132.83 26.34Q133.18 26.30 133.49 26.21Q133.80 26.11 133.82 25.99L133.82 25.99Q133.92 25.70 133.93 25.25Q133.94 24.79 133.94 24.26L133.94 24.26L133.94 19.90Q133.94 19.66 133.93 19.27Q133.92 18.89 133.82 18.67L133.82 18.67Q133.75 18.46 133.42 18.37Q133.08 18.29 132.74 18.28Q132.41 18.26 132.31 18.26L132.31 18.26Q132.29 18.22 132.26 17.98Q132.24 17.74 132.31 17.64L132.31 17.64Q133.22 17.52 134.09 17.28Q134.95 17.04 135.65 16.66L135.65 16.66Q135.74 16.66 135.83 16.80Q135.91 16.94 135.91 17.04L135.91 17.04Q135.91 17.11 135.86 17.59Q135.82 18.07 135.78 18.56Q135.74 19.06 135.74 19.20L135.74 19.20Q135.74 19.27 135.78 19.27Q135.82 19.27 135.84 19.25L135.84 19.25Q136.08 18.74 136.52 18.16Q136.97 17.57 137.52 17.15Q138.07 16.73 138.60 16.73ZM147.96 16.70L147.96 16.70Q149.02 16.70 149.68 17.15Q150.34 17.59 150.62 18.65L150.62 18.65Q151.39 17.95 152.32 17.33Q153.24 16.70 154.08 16.70L154.08 16.70Q155.35 16.70 156 17.23Q156.65 17.76 156.88 18.86Q157.10 19.97 157.10 21.67L157.10 21.67L157.10 24.26Q157.10 24.79 157.12 25.25Q157.13 25.70 157.22 25.99L157.22 25.99Q157.27 26.11 157.57 26.21Q157.87 26.30 158.21 26.34Q158.54 26.38 158.69 26.38L158.69 26.38Q158.76 26.47 158.77 26.71Q158.78 26.95 158.69 27.05L158.69 27.05Q157.97 27 157.43 26.96Q156.89 26.93 156.19 26.93L156.19 26.93Q155.52 26.93 154.97 26.96Q154.42 27 153.70 27.05L153.70 27.05Q153.60 26.95 153.61 26.71Q153.62 26.47 153.70 26.38L153.70 26.38Q153.84 26.38 154.19 26.34Q154.54 26.30 154.85 26.21Q155.16 26.11 155.18 25.99L155.18 25.99Q155.26 25.75 155.27 25.38Q155.28 25.01 155.28 24.55L155.28 24.55Q155.28 24.48 155.28 24.41Q155.28 24.34 155.28 24.26L155.28 24.26L155.28 21.74Q155.28 20.57 155.12 19.75Q154.97 18.94 154.51 18.50Q154.06 18.07 153.10 18.07L153.10 18.07Q152.52 18.07 151.99 18.37Q151.46 18.67 151.13 19.00Q150.79 19.32 150.79 19.42L150.79 19.42Q150.79 19.44 150.80 19.55Q150.82 19.66 150.82 19.70L150.82 19.70Q150.86 20.04 150.89 20.54Q150.91 21.05 150.91 21.38L150.91 21.38L150.91 24.26Q150.91 24.79 150.92 25.25Q150.94 25.70 151.03 25.99L151.03 25.99Q151.08 26.11 151.38 26.21Q151.68 26.30 152.02 26.34Q152.35 26.38 152.50 26.38L152.50 26.38Q152.57 26.47 152.58 26.71Q152.59 26.95 152.50 27.05L152.50 27.05Q151.78 27 151.24 26.96Q150.70 26.93 150 26.93L150 26.93Q149.33 26.93 148.78 26.96Q148.22 27 147.50 27.05L147.50 27.05Q147.41 26.95 147.42 26.71Q147.43 26.47 147.50 26.38L147.50 26.38Q147.65 26.38 148.00 26.34Q148.34 26.30 148.66 26.21Q148.97 26.11 148.99 25.99L148.99 25.99Q149.09 25.70 149.10 25.25Q149.11 24.79 149.11 24.26L149.11 24.26L149.11 21.86Q149.11 19.73 148.64 18.90Q148.18 18.07 146.90 18.07L146.90 18.07Q146.38 18.07 145.87 18.34Q145.37 18.60 145.04 18.90Q144.72 19.20 144.72 19.37L144.72 19.37L144.72 24.26Q144.72 24.79 144.73 25.25Q144.74 25.70 144.84 25.99L144.84 25.99Q144.89 26.11 145.19 26.21Q145.49 26.30 145.82 26.34Q146.16 26.38 146.30 26.38L146.30 26.38Q146.38 26.47 146.39 26.71Q146.40 26.95 146.30 27.05L146.30 27.05Q145.58 27 145.04 26.96Q144.50 26.93 143.81 26.93L143.81 26.93Q143.14 26.93 142.58 26.96Q142.03 27 141.31 27.05L141.31 27.05Q141.22 26.95 141.23 26.71Q141.24 26.47 141.31 26.38L141.31 26.38Q141.46 26.38 141.80 26.34Q142.15 26.30 142.46 26.21Q142.78 26.11 142.80 25.99L142.80 25.99Q142.90 25.70 142.91 25.25Q142.92 24.79 142.92 24.26L142.92 24.26L142.92 19.99Q142.92 19.75 142.91 19.32Q142.90 18.89 142.80 18.67L142.80 18.67Q142.73 18.46 142.39 18.37Q142.06 18.29 141.72 18.28Q141.38 18.26 141.29 18.26L141.29 18.26Q141.26 18.22 141.24 17.98Q141.22 17.74 141.29 17.64L141.29 17.64Q142.20 17.52 143.06 17.28Q143.93 17.04 144.62 16.66L144.62 16.66Q144.72 16.66 144.80 16.80Q144.89 16.94 144.89 17.04L144.89 17.04Q144.89 17.11 144.85 17.38Q144.82 17.64 144.78 17.90Q144.74 18.17 144.74 18.26L144.74 18.26Q144.74 18.36 144.79 18.36L144.79 18.36Q144.82 18.36 144.86 18.31L144.86 18.31Q145.15 18.05 145.63 17.68Q146.11 17.30 146.72 17.00Q147.34 16.70 147.96 16.70ZM164.62 16.75L164.62 16.75Q165.29 16.75 165.88 17.18Q166.46 17.62 166.82 18.34Q167.18 19.06 167.18 19.97L167.18 19.97L167.18 24.79Q167.18 25.25 167.35 25.57Q167.52 25.90 167.90 25.90L167.90 25.90Q168.24 25.90 168.43 25.75Q168.62 25.61 168.67 25.58L168.67 25.58Q168.72 25.58 168.74 25.66Q168.77 25.73 168.77 25.78L168.77 25.78Q168.77 26.04 168.65 26.23L168.65 26.23Q168.50 26.35 168.18 26.57Q167.86 26.78 167.51 26.95Q167.16 27.12 166.90 27.12L166.90 27.12Q166.39 27.12 166.00 26.62Q165.60 26.11 165.48 25.58L165.48 25.58Q165.38 25.68 165.04 25.94Q164.69 26.21 164.23 26.48Q163.78 26.76 163.33 26.96Q162.89 27.17 162.58 27.17L162.58 27.17Q161.42 27.17 160.63 26.39Q159.84 25.61 159.84 24.48L159.84 24.48Q159.84 23.76 160.24 23.24Q160.63 22.73 161.02 22.58L161.02 22.58Q161.69 22.34 162.52 22.07Q163.34 21.79 164.06 21.53Q164.78 21.26 165.12 21.12L165.12 21.12Q165.31 21.05 165.36 20.94Q165.41 20.83 165.41 20.52L165.41 20.52L165.41 19.90Q165.41 19.37 165.14 18.85Q164.88 18.34 164.42 17.99Q163.97 17.64 163.39 17.64L163.39 17.64Q162.79 17.64 162.50 18.02Q162.22 18.41 162.10 19.10L162.10 19.10Q161.88 20.23 160.99 20.23L160.99 20.23Q160.61 20.23 160.40 19.92Q160.20 19.61 160.20 19.25L160.20 19.25Q160.20 19.18 160.25 18.97Q160.30 18.77 160.37 18.67L160.37 18.67Q160.73 18.34 161.40 17.88Q162.07 17.42 162.92 17.09Q163.78 16.75 164.62 16.75ZM163.37 25.90L163.37 25.90Q163.78 25.90 164.26 25.70Q164.74 25.51 165.07 25.28Q165.41 25.06 165.41 24.94L165.41 24.94L165.41 21.74Q164.95 21.89 164.26 22.10Q163.56 22.32 163.22 22.44L163.22 22.44Q162.60 22.68 162.19 23.14Q161.78 23.59 161.78 24.26L161.78 24.26Q161.78 24.91 162.24 25.40Q162.70 25.90 163.37 25.90ZM171.14 24.26L171.14 13.90Q171.14 13.63 171.13 13.26Q171.12 12.89 171.02 12.67L171.02 12.67Q170.93 12.41 170.51 12.34Q170.09 12.26 169.61 12.26L169.61 12.26Q169.58 12.26 169.57 11.96Q169.56 11.66 169.63 11.64L169.63 11.64Q170.52 11.54 171.36 11.29Q172.20 11.04 172.94 10.70L172.94 10.70Q173.04 10.70 173.12 10.84Q173.21 10.97 173.21 11.09L173.21 11.09Q173.21 11.09 173.08 11.62Q172.94 12.14 172.94 13.13L172.94 13.13L172.94 24.26Q172.94 24.79 172.96 25.25Q172.97 25.70 173.06 25.99L173.06 25.99Q173.11 26.11 173.41 26.21Q173.71 26.30 174.06 26.34Q174.41 26.38 174.55 26.38L174.55 26.38Q174.62 26.47 174.64 26.71Q174.65 26.95 174.55 27.05L174.55 27.05Q173.83 27 173.28 26.96Q172.73 26.93 172.03 26.93L172.03 26.93Q171.36 26.93 170.82 26.96Q170.28 27 169.56 27.05L169.56 27.05Q169.46 26.95 169.48 26.71Q169.49 26.47 169.56 26.38L169.56 26.38Q169.70 26.38 170.04 26.34Q170.38 26.30 170.69 26.21Q171 26.11 171.02 25.99L171.02 25.99Q171.12 25.70 171.13 25.25Q171.14 24.79 171.14 24.26L171.14 24.26Z"/></svg>