<svg xmlns="http://www.w3.org/2000/svg" xmlns:xlink="http://www.w3.org/1999/xlink" width="218.56800000000004" height="22.44"><path fill="black" d="M8.66 0.84L5.06 12.14L3.79 12.14L0.14 1.18Q0.07 1.01 0.18 0.94Q0.29 0.86 0.83 0.85Q1.37 0.84 2.64 0.84L2.64 0.84L3.50 4.08Q3.65 4.61 3.82 5.32Q3.98 6.02 4.14 6.74Q4.30 7.46 4.40 8.06Q4.51 8.66 4.51 8.98L4.51 8.98Q4.56 8.66 4.67 8.06Q4.78 7.46 4.92 6.74Q5.06 6.02 5.24 5.32Q5.42 4.61 5.57 4.08L5.57 4.08L6.31 1.22Q6.38 1.03 6.49 0.96Q6.60 0.89 7.08 0.86Q7.56 0.84 8.66 0.84L8.66 0.84ZM3.36 17.64L3.36 17.64L3.36 9.24L5.54 9.24L5.54 17.21Q5.54 17.42 5.45 17.51Q5.35 17.59 4.91 17.62Q4.46 17.64 3.36 17.64ZM11.50 17.88L11.50 17.88Q10.82 17.88 10.21 17.77Q9.60 17.66 9.11 17.29Q8.62 16.92 8.34 16.18Q8.06 15.43 8.06 14.21L8.06 14.21Q8.06 12.96 8.32 12.18Q8.57 11.40 9.01 10.98Q9.46 10.56 10.00 10.40Q10.54 10.25 11.11 10.25L11.11 10.25Q11.47 10.25 11.98 10.32Q12.48 10.39 12.82 10.58L12.82 10.58Q12.82 10.58 12.82 10.27Q12.82 9.96 12.82 9.53Q12.82 9.10 12.82 8.76L12.82 8.76Q12.82 8.28 12.67 8.02Q12.53 7.75 12.23 7.63Q11.93 7.51 11.47 7.51L11.47 7.51Q10.63 7.51 9.79 7.67Q8.95 7.82 8.40 8.04L8.40 8.04Q8.21 7.70 8.15 7.37Q8.09 7.03 8.09 6.79L8.09 6.79Q8.09 6.60 8.16 6.38Q8.23 6.17 8.38 6.07L8.38 6.07Q8.69 5.88 9.66 5.64Q10.63 5.40 12.02 5.40L12.02 5.40Q13.61 5.40 14.30 6.05Q15 6.70 15 8.33L15 8.33L15 9.55Q15 10.92 14.99 12.32Q14.98 13.73 14.95 14.95Q14.93 16.18 14.88 17.09L14.88 17.09Q14.35 17.40 13.49 17.64Q12.62 17.88 11.50 17.88ZM11.66 16.06L11.66 16.06Q12 16.06 12.30 15.96Q12.60 15.86 12.74 15.72L12.74 15.72Q12.77 15.36 12.79 14.74Q12.82 14.11 12.82 13.40Q12.82 12.70 12.82 12.10L12.82 12.10Q12.60 11.98 12.34 11.93Q12.07 11.88 11.86 11.88L11.86 11.88Q11.54 11.88 11.27 11.96Q10.99 12.05 10.79 12.29Q10.58 12.53 10.48 12.97Q10.37 13.42 10.37 14.14L10.37 14.14Q10.37 14.74 10.45 15.11Q10.54 15.48 10.70 15.70Q10.87 15.91 11.12 15.98Q11.38 16.06 11.66 16.06ZM16.80 17.64L16.80 17.64L16.80 6.22Q17.26 6 17.90 5.82Q18.55 5.64 19.26 5.52Q19.97 5.40 20.59 5.40L20.59 5.40Q21.84 5.40 22.58 5.70Q23.33 6 23.65 6.70Q23.98 7.39 23.98 8.57L23.98 8.57L23.98 17.21Q23.98 17.42 23.87 17.51Q23.76 17.59 23.29 17.62Q22.82 17.64 21.72 17.64L21.72 17.64L21.72 9.24Q21.72 8.16 21.49 7.73Q21.26 7.30 20.50 7.30L20.50 7.30Q20.16 7.30 19.74 7.39Q19.32 7.49 18.98 7.68L18.98 7.68L18.98 17.21Q18.98 17.42 18.89 17.51Q18.79 17.59 18.34 17.62Q17.88 17.64 16.80 17.64ZM29.45 17.88L29.45 17.88Q28.51 17.88 27.80 17.65Q27.10 17.42 26.62 16.78Q26.14 16.13 25.91 14.89Q25.68 13.66 25.68 11.64L25.68 11.64Q25.68 8.35 26.74 6.88Q27.79 5.40 29.66 5.40L29.66 5.40Q30.94 5.40 31.76 5.92Q32.59 6.43 33 7.78Q33.41 9.12 33.41 11.57L33.41 11.57Q33.41 14.95 32.40 16.42Q31.39 17.88 29.45 17.88ZM29.52 16.03L29.52 16.03Q29.95 16.03 30.29 15.71Q30.62 15.38 30.82 14.41Q31.01 13.44 31.01 11.59L31.01 11.59Q31.01 9.74 30.86 8.81Q30.72 7.87 30.41 7.56Q30.10 7.25 29.59 7.25L29.59 7.25Q29.14 7.25 28.79 7.58Q28.44 7.92 28.25 8.88Q28.06 9.84 28.06 11.66L28.06 11.66Q28.06 13.10 28.15 13.99Q28.25 14.88 28.43 15.31Q28.61 15.74 28.88 15.89Q29.16 16.03 29.52 16.03ZM34.97 17.64L34.97 17.64L34.97 6.22Q35.42 6 36.07 5.82Q36.72 5.64 37.43 5.52Q38.14 5.40 38.76 5.40L38.76 5.40Q40.01 5.40 40.75 5.70Q41.50 6 41.82 6.70Q42.14 7.39 42.14 8.57L42.14 8.57L42.14 17.21Q42.14 17.42 42.04 17.51Q41.93 17.59 41.46 17.62Q40.99 17.64 39.89 17.64L39.89 17.64L39.89 9.24Q39.89 8.16 39.66 7.73Q39.43 7.30 38.66 7.30L38.66 7.30Q38.33 7.30 37.91 7.39Q37.49 7.49 37.15 7.68L37.15 7.68L37.15 17.21Q37.15 17.42 37.06 17.51Q36.96 17.59 36.50 17.62Q36.05 17.64 34.97 17.64ZM47.69 17.88L47.69 17.88Q46.85 17.88 46.15 17.64Q45.46 17.40 44.95 16.80Q44.45 16.20 44.16 15.10Q43.87 13.99 43.87 12.24L43.87 12.24Q43.87 10.01 44.23 8.65Q44.59 7.30 45.19 6.60Q45.79 5.90 46.56 5.65Q47.33 5.40 48.12 5.40L48.12 5.40Q49.61 5.40 50.40 6.35Q51.19 7.30 51.19 9.26L51.19 9.26Q51.19 10.10 51.12 10.97Q51.05 11.83 50.88 12.48L50.88 12.48Q50.11 12.65 49.13 12.72Q48.14 12.79 47.24 12.83Q46.34 12.86 45.77 12.86Q45.19 12.86 45.19 12.86L45.19 12.86L45.24 11.09Q45.24 11.09 45.65 11.10Q46.06 11.11 46.68 11.11Q47.30 11.11 47.92 11.05Q48.53 10.99 48.94 10.87L48.94 10.87Q49.01 10.56 49.03 10.19Q49.06 9.82 49.06 9.48L49.06 9.48Q49.06 8.23 48.80 7.78Q48.55 7.32 47.86 7.32L47.86 7.32Q47.50 7.32 47.17 7.55Q46.85 7.78 46.62 8.33Q46.39 8.88 46.26 9.82Q46.13 10.75 46.13 12.14L46.13 12.14Q46.13 13.18 46.25 13.87Q46.37 14.57 46.60 14.98Q46.82 15.38 47.22 15.56Q47.62 15.74 48.17 15.74L48.17 15.74Q48.86 15.74 49.55 15.55Q50.23 15.36 50.83 15.02L50.83 15.02Q50.95 15.34 50.99 15.76Q51.02 16.18 51.02 16.51L51.02 16.51Q51.02 16.92 50.57 17.23Q50.11 17.54 49.36 17.71Q48.60 17.88 47.69 17.88ZM63.31 17.69L63.31 17.69Q62.95 17.69 62.56 17.66Q62.16 17.64 61.78 17.62L61.78 17.62Q61.58 16.32 61.39 15.19Q61.20 14.06 60.94 13.12Q60.67 12.17 60.30 11.41Q59.93 10.66 59.42 10.10L59.42 10.10Q59.14 9.79 58.78 9.60Q58.42 9.41 58.06 9.34L58.06 9.34L58.06 8.98L61.97 0.98Q62.35 0.89 62.72 0.85Q63.10 0.82 63.36 0.82L63.36 0.82Q64.56 0.82 64.27 1.42L64.27 1.42L60.77 8.06Q62.16 9.19 63.02 11.51Q63.89 13.82 64.20 17.18L64.20 17.18Q64.22 17.45 64.06 17.57Q63.89 17.69 63.31 17.69ZM56.33 17.64L56.33 17.64L56.33 1.27Q56.33 1.06 56.42 0.97Q56.52 0.89 56.98 0.86Q57.43 0.84 58.54 0.84L58.54 0.84L58.54 17.21Q58.54 17.42 58.45 17.51Q58.37 17.59 57.90 17.62Q57.43 17.64 56.33 17.64ZM68.81 17.88L68.81 17.88Q68.14 17.88 67.52 17.77Q66.91 17.66 66.42 17.29Q65.93 16.92 65.65 16.18Q65.38 15.43 65.38 14.21L65.38 14.21Q65.38 12.96 65.63 12.18Q65.88 11.40 66.32 10.98Q66.77 10.56 67.31 10.40Q67.85 10.25 68.42 10.25L68.42 10.25Q68.78 10.25 69.29 10.32Q69.79 10.39 70.13 10.58L70.13 10.58Q70.13 10.58 70.13 10.27Q70.13 9.96 70.13 9.53Q70.13 9.10 70.13 8.76L70.13 8.76Q70.13 8.28 69.98 8.02Q69.84 7.75 69.54 7.63Q69.24 7.51 68.78 7.51L68.78 7.51Q67.94 7.51 67.10 7.67Q66.26 7.82 65.71 8.04L65.71 8.04Q65.52 7.70 65.46 7.37Q65.40 7.03 65.40 6.79L65.40 6.79Q65.40 6.60 65.47 6.38Q65.54 6.17 65.69 6.07L65.69 6.07Q66.00 5.88 66.97 5.64Q67.94 5.40 69.34 5.40L69.34 5.40Q70.92 5.40 71.62 6.05Q72.31 6.70 72.31 8.33L72.31 8.33L72.31 9.55Q72.31 10.92 72.30 12.32Q72.29 13.73 72.26 14.95Q72.24 16.18 72.19 17.09L72.19 17.09Q71.66 17.40 70.80 17.64Q69.94 17.88 68.81 17.88ZM68.98 16.06L68.98 16.06Q69.31 16.06 69.61 15.96Q69.91 15.86 70.06 15.72L70.06 15.72Q70.08 15.36 70.10 14.74Q70.13 14.11 70.13 13.40Q70.13 12.70 70.13 12.10L70.13 12.10Q69.91 11.98 69.65 11.93Q69.38 11.88 69.17 11.88L69.17 11.88Q68.86 11.88 68.58 11.96Q68.30 12.05 68.10 12.29Q67.90 12.53 67.79 12.97Q67.68 13.42 67.68 14.14L67.68 14.14Q67.68 14.74 67.76 15.11Q67.85 15.48 68.02 15.70Q68.18 15.91 68.44 15.98Q68.69 16.06 68.98 16.06ZM76.56 17.64L74.81 17.64L74.81 7.49L73.22 7.49Q73.22 6.60 73.24 6.22Q73.25 5.83 73.38 5.74Q73.51 5.64 73.78 5.64L73.78 5.64L74.81 5.64L74.81 4.22Q74.81 2.83 75.17 1.97Q75.53 1.10 76.13 0.67Q76.73 0.24 77.46 0.08Q78.19-0.07 78.89-0.07L78.89-0.07Q79.99-0.07 80.58 0.20Q81.17 0.48 81.17 0.98L81.17 0.98Q81.17 1.25 81.11 1.57Q81.05 1.90 80.93 2.18L80.93 2.18Q80.47 1.99 80.05 1.93Q79.63 1.87 79.25 1.87L79.25 1.87Q78.79 1.87 78.38 1.96Q77.98 2.04 77.65 2.26Q77.33 2.47 77.16 2.90Q76.99 3.34 76.99 4.01L76.99 4.01L76.99 5.64L79.01 5.64Q79.01 6.48 78.97 6.88Q78.94 7.27 78.85 7.38Q78.77 7.49 78.55 7.49L78.55 7.49L76.99 7.49L76.99 17.21Q76.99 17.26 76.93 17.45Q76.87 17.64 76.56 17.64L76.56 17.64ZM82.73 17.64L80.98 17.64L80.98 7.49L79.39 7.49Q79.39 6.60 79.40 6.22Q79.42 5.83 79.55 5.74Q79.68 5.64 79.94 5.64L79.94 5.64L80.98 5.64L80.98 4.22Q80.98 2.83 81.34 1.97Q81.70 1.10 82.30 0.67Q82.90 0.24 83.63 0.08Q84.36-0.07 85.06-0.07L85.06-0.07Q86.16-0.07 86.75 0.20Q87.34 0.48 87.34 0.98L87.34 0.98Q87.34 1.25 87.28 1.57Q87.22 1.90 87.10 2.18L87.10 2.18Q86.64 1.99 86.22 1.93Q85.80 1.87 85.42 1.87L85.42 1.87Q84.96 1.87 84.55 1.96Q84.14 2.04 83.82 2.26Q83.50 2.47 83.33 2.90Q83.16 3.34 83.16 4.01L83.16 4.01L83.16 5.64L85.18 5.64Q85.18 6.48 85.14 6.88Q85.10 7.27 85.02 7.38Q84.94 7.49 84.72 7.49L84.72 7.49L83.16 7.49L83.16 17.21Q83.16 17.26 83.10 17.45Q83.04 17.64 82.73 17.64L82.73 17.64ZM89.28 17.88L89.28 17.88Q88.44 17.88 87.74 17.64Q87.05 17.40 86.54 16.80Q86.04 16.20 85.75 15.10Q85.46 13.99 85.46 12.24L85.46 12.24Q85.46 10.01 85.82 8.65Q86.18 7.30 86.78 6.60Q87.38 5.90 88.15 5.65Q88.92 5.40 89.71 5.40L89.71 5.40Q91.20 5.40 91.99 6.35Q92.78 7.30 92.78 9.26L92.78 9.26Q92.78 10.10 92.71 10.97Q92.64 11.83 92.47 12.48L92.47 12.48Q91.70 12.65 90.72 12.72Q89.74 12.79 88.84 12.83Q87.94 12.86 87.36 12.86Q86.78 12.86 86.78 12.86L86.78 12.86L86.83 11.09Q86.83 11.09 87.24 11.10Q87.65 11.11 88.27 11.11Q88.90 11.11 89.51 11.05Q90.12 10.99 90.53 10.87L90.53 10.87Q90.60 10.56 90.62 10.19Q90.65 9.82 90.65 9.48L90.65 9.48Q90.65 8.23 90.40 7.78Q90.14 7.32 89.45 7.32L89.45 7.32Q89.09 7.32 88.76 7.55Q88.44 7.78 88.21 8.33Q87.98 8.88 87.85 9.82Q87.72 10.75 87.72 12.14L87.72 12.14Q87.72 13.18 87.84 13.87Q87.96 14.57 88.19 14.98Q88.42 15.38 88.81 15.56Q89.21 15.74 89.76 15.74L89.76 15.74Q90.46 15.74 91.14 15.55Q91.82 15.36 92.42 15.02L92.42 15.02Q92.54 15.34 92.58 15.76Q92.62 16.18 92.62 16.51L92.62 16.51Q92.62 16.92 92.16 17.23Q91.70 17.54 90.95 17.71Q90.19 17.88 89.28 17.88ZM97.80 17.88L97.80 17.88Q96.96 17.88 96.26 17.64Q95.57 17.40 95.06 16.80Q94.56 16.20 94.27 15.10Q93.98 13.99 93.98 12.24L93.98 12.24Q93.98 10.01 94.34 8.65Q94.70 7.30 95.30 6.60Q95.90 5.90 96.67 5.65Q97.44 5.40 98.23 5.40L98.23 5.40Q99.72 5.40 100.51 6.35Q101.30 7.30 101.30 9.26L101.30 9.26Q101.30 10.10 101.23 10.97Q101.16 11.83 100.99 12.48L100.99 12.48Q100.22 12.65 99.24 12.72Q98.26 12.79 97.36 12.83Q96.46 12.86 95.88 12.86Q95.30 12.86 95.30 12.86L95.30 12.86L95.35 11.09Q95.35 11.09 95.76 11.10Q96.17 11.11 96.79 11.11Q97.42 11.11 98.03 11.05Q98.64 10.99 99.05 10.87L99.05 10.87Q99.12 10.56 99.14 10.19Q99.17 9.82 99.17 9.48L99.17 9.48Q99.17 8.23 98.92 7.78Q98.66 7.32 97.97 7.32L97.97 7.32Q97.61 7.32 97.28 7.55Q96.96 7.78 96.73 8.33Q96.50 8.88 96.37 9.82Q96.24 10.75 96.24 12.14L96.24 12.14Q96.24 13.18 96.36 13.87Q96.48 14.57 96.71 14.98Q96.94 15.38 97.33 15.56Q97.73 15.74 98.28 15.74L98.28 15.74Q98.98 15.74 99.66 15.55Q100.34 15.36 100.94 15.02L100.94 15.02Q101.06 15.34 101.10 15.76Q101.14 16.18 101.14 16.51L101.14 16.51Q101.14 16.92 100.68 17.23Q100.22 17.54 99.47 17.71Q98.71 17.88 97.80 17.88ZM105.41 17.88L105.41 17.88Q104.16 17.88 103.33 17.58Q102.50 17.28 102.50 16.61L102.50 16.61Q102.50 16.34 102.59 16.02Q102.67 15.70 102.89 15.34L102.89 15.34Q103.39 15.62 103.97 15.77Q104.54 15.91 105.17 15.91L105.17 15.91Q106.01 15.91 106.45 15.58Q106.90 15.24 106.90 14.59L106.90 14.59Q106.90 14.18 106.73 13.76Q106.56 13.34 106.08 12.89L106.08 12.89L103.82 10.82Q103.08 10.15 102.80 9.50Q102.53 8.86 102.53 8.28L102.53 8.28Q102.53 7.44 102.92 6.79Q103.32 6.14 104.20 5.77Q105.07 5.40 106.46 5.40L106.46 5.40Q107.74 5.40 108.37 5.64Q109.01 5.88 109.22 6.20Q109.44 6.53 109.44 6.79L109.44 6.79Q109.44 7.37 108.98 7.90L108.98 7.90Q108.48 7.58 107.93 7.44Q107.38 7.30 106.73 7.30L106.73 7.30Q105.96 7.30 105.53 7.56Q105.10 7.82 105.10 8.30L105.10 8.30Q105.10 8.59 105.25 8.89Q105.41 9.19 105.96 9.70L105.96 9.70L108.05 11.52Q108.82 12.29 109.10 12.94Q109.39 13.58 109.39 14.50L109.39 14.50Q109.39 16.10 108.32 16.99Q107.26 17.88 105.41 17.88ZM114.00 17.88L114.00 17.88Q113.33 17.88 112.72 17.77Q112.10 17.66 111.61 17.29Q111.12 16.92 110.84 16.18Q110.57 15.43 110.57 14.21L110.57 14.21Q110.57 12.96 110.82 12.18Q111.07 11.40 111.52 10.98Q111.96 10.56 112.50 10.40Q113.04 10.25 113.62 10.25L113.62 10.25Q113.98 10.25 114.48 10.32Q114.98 10.39 115.32 10.58L115.32 10.58Q115.32 10.58 115.32 10.27Q115.32 9.96 115.32 9.53Q115.32 9.10 115.32 8.76L115.32 8.76Q115.32 8.28 115.18 8.02Q115.03 7.75 114.73 7.63Q114.43 7.51 113.98 7.51L113.98 7.51Q113.14 7.51 112.30 7.67Q111.46 7.82 110.90 8.04L110.90 8.04Q110.71 7.70 110.65 7.37Q110.59 7.03 110.59 6.79L110.59 6.79Q110.59 6.60 110.66 6.38Q110.74 6.17 110.88 6.07L110.88 6.07Q111.19 5.88 112.16 5.64Q113.14 5.40 114.53 5.40L114.53 5.40Q116.11 5.40 116.81 6.05Q117.50 6.70 117.50 8.33L117.50 8.33L117.50 9.55Q117.50 10.92 117.49 12.32Q117.48 13.73 117.46 14.95Q117.43 16.18 117.38 17.09L117.38 17.09Q116.86 17.40 115.99 17.64Q115.13 17.88 114.00 17.88ZM114.17 16.06L114.17 16.06Q114.50 16.06 114.80 15.96Q115.10 15.86 115.25 15.72L115.25 15.72Q115.27 15.36 115.30 14.74Q115.32 14.11 115.32 13.40Q115.32 12.70 115.32 12.10L115.32 12.10Q115.10 11.98 114.84 11.93Q114.58 11.88 114.36 11.88L114.36 11.88Q114.05 11.88 113.77 11.96Q113.50 12.05 113.29 12.29Q113.09 12.53 112.98 12.97Q112.87 13.42 112.87 14.14L112.87 14.14Q112.87 14.74 112.96 15.11Q113.04 15.48 113.21 15.70Q113.38 15.91 113.63 15.98Q113.88 16.06 114.17 16.06ZM122.42 17.88L122.42 17.88Q121.39 17.88 120.89 17.46Q120.38 17.04 120.23 16.24Q120.07 15.43 120.07 14.38L120.07 14.38L120.07 7.51L118.49 7.51Q118.49 6.67 118.51 6.28Q118.54 5.88 118.64 5.76Q118.75 5.64 118.97 5.64L118.97 5.64L120.07 5.64L120.07 2.04Q120.07 1.68 120.25 1.54Q120.43 1.39 120.90 1.36Q121.37 1.32 122.26 1.32L122.26 1.32L122.26 5.64L124.56 5.64Q124.56 6.48 124.54 6.88Q124.51 7.27 124.43 7.39Q124.34 7.51 124.13 7.51L124.13 7.51L122.26 7.51L122.26 14.35Q122.26 14.78 122.29 15.17Q122.33 15.55 122.48 15.78Q122.64 16.01 123.02 16.01L123.02 16.01Q123.43 16.01 123.73 15.92Q124.03 15.84 124.39 15.67L124.39 15.67Q124.44 15.86 124.49 16.14Q124.54 16.42 124.54 16.73L124.54 16.73Q124.54 17.21 124.20 17.46Q123.86 17.71 123.38 17.80Q122.90 17.88 122.42 17.88ZM131.50 17.64L125.86 17.64Q125.86 17.64 125.66 17.39Q125.47 17.14 125.47 16.56L125.47 16.56Q125.47 16.34 125.52 16.15Q125.57 15.96 125.66 15.74L125.66 15.74L129.94 7.49L127.66 7.49Q127.06 7.49 126.54 7.51Q126.02 7.54 125.66 7.58L125.66 7.58Q125.59 7.25 125.58 6.98Q125.57 6.72 125.57 6.58L125.57 6.58Q125.57 6.10 125.74 5.87Q125.90 5.64 126.26 5.64L126.26 5.64L132.19 5.64Q132.19 5.64 132.30 5.80Q132.41 5.95 132.41 6.31L132.41 6.31Q132.41 6.46 132.36 6.71Q132.31 6.96 132.14 7.37L132.14 7.37L128.04 15.62L129.89 15.62Q130.85 15.62 131.40 15.53Q131.95 15.43 132.29 15.34L132.29 15.34Q132.34 15.50 132.35 15.80Q132.36 16.10 132.36 16.30L132.36 16.30Q132.34 16.97 132.18 17.30Q132.02 17.64 131.50 17.64L131.50 17.64ZM139.94 20.04L139.94 20.04Q138.50 20.04 137.87 19.67Q137.23 19.30 137.23 19.06L137.23 19.06Q137.23 18.43 137.28 18.05Q137.33 17.66 137.47 17.26L137.47 17.26Q137.88 17.64 138.43 17.82Q138.98 18 139.73 18L139.73 18Q140.95 18 141.71 17.34Q142.46 16.68 142.82 15.62Q143.18 14.57 143.18 13.46L143.18 13.46Q143.18 12.48 142.97 11.83Q142.75 11.18 142.31 10.84Q141.86 10.49 141.20 10.33Q140.54 10.18 139.66 10.18L139.66 10.18Q138.98 10.18 138.38 10.28Q137.78 10.39 137.40 10.49L137.40 10.49L138.12 3.24L145.46 3.24Q145.46 4.03 145.39 4.45Q145.32 4.87 145.08 5.03Q144.84 5.18 144.34 5.18L144.34 5.18Q144.12 5.18 143.72 5.17Q143.33 5.16 142.82 5.16Q142.32 5.16 141.83 5.14Q141.34 5.11 140.92 5.10Q140.50 5.09 140.24 5.09Q139.99 5.09 139.99 5.09L139.99 5.09L139.63 8.47Q139.78 8.45 140.10 8.40Q140.42 8.35 140.90 8.35L140.90 8.35Q141.60 8.35 142.40 8.50Q143.21 8.64 143.92 9.10Q144.62 9.55 145.07 10.49Q145.51 11.42 145.51 12.98L145.51 12.98Q145.51 15.12 144.90 16.72Q144.29 18.31 143.05 19.18Q141.82 20.04 139.94 20.04ZM151.22 17.86L151.22 17.86Q149.54 17.86 148.62 17.00Q147.70 16.15 147.34 14.52Q146.98 12.89 146.98 10.54L146.98 10.54Q146.98 6.96 148.00 5.10Q149.02 3.24 151.32 3.24L151.32 3.24Q153.65 3.24 154.63 4.91Q155.62 6.58 155.62 9.86L155.62 9.86Q155.62 12.50 155.23 14.28Q154.85 16.06 153.89 16.96Q152.93 17.86 151.22 17.86ZM151.30 15.89L151.30 15.89Q152.02 15.89 152.46 15.28Q152.90 14.66 153.11 13.33Q153.31 12 153.31 9.84L153.31 9.84Q153.31 7.56 152.94 6.36Q152.57 5.16 151.44 5.16L151.44 5.16Q150.19 5.16 149.77 6.64Q149.35 8.11 149.35 10.66L149.35 10.66Q149.35 12.58 149.52 13.73Q149.69 14.88 150.11 15.38Q150.53 15.89 151.30 15.89ZM161.11 17.86L161.11 17.86Q159.43 17.86 158.51 17.00Q157.58 16.15 157.22 14.52Q156.86 12.89 156.86 10.54L156.86 10.54Q156.86 6.96 157.88 5.10Q158.90 3.24 161.21 3.24L161.21 3.24Q163.54 3.24 164.52 4.91Q165.50 6.58 165.50 9.86L165.50 9.86Q165.50 12.50 165.12 14.28Q164.74 16.06 163.78 16.96Q162.82 17.86 161.11 17.86ZM161.18 15.89L161.18 15.89Q161.90 15.89 162.35 15.28Q162.79 14.66 163.00 13.33Q163.20 12 163.20 9.84L163.20 9.84Q163.20 7.56 162.83 6.36Q162.46 5.16 161.33 5.16L161.33 5.16Q160.08 5.16 159.66 6.64Q159.24 8.11 159.24 10.66L159.24 10.66Q159.24 12.58 159.41 13.73Q159.58 14.88 160.00 15.38Q160.42 15.89 161.18 15.89ZM170.76 17.64L170.76 17.64L170.76 6.22Q171.22 6 171.86 5.82Q172.51 5.64 173.22 5.52Q173.93 5.40 174.55 5.40L174.55 5.40Q175.80 5.40 176.54 5.70Q177.29 6 177.61 6.70Q177.94 7.39 177.94 8.57L177.94 8.57L177.94 17.21Q177.94 17.42 177.83 17.51Q177.72 17.59 177.25 17.62Q176.78 17.64 175.68 17.64L175.68 17.64L175.68 9.24Q175.68 8.16 175.45 7.73Q175.22 7.30 174.46 7.30L174.46 7.30Q174.12 7.30 173.70 7.39Q173.28 7.49 172.94 7.68L172.94 7.68L172.94 17.21Q172.94 17.42 172.85 17.51Q172.75 17.59 172.30 17.62Q171.84 17.64 170.76 17.64ZM183.41 17.88L183.41 17.88Q182.47 17.88 181.76 17.65Q181.06 17.42 180.58 16.78Q180.10 16.13 179.87 14.89Q179.64 13.66 179.64 11.64L179.64 11.64Q179.64 8.35 180.70 6.88Q181.75 5.40 183.62 5.40L183.62 5.40Q184.90 5.40 185.72 5.92Q186.55 6.43 186.96 7.78Q187.37 9.12 187.37 11.57L187.37 11.57Q187.37 14.95 186.36 16.42Q185.35 17.88 183.41 17.88ZM183.48 16.03L183.48 16.03Q183.91 16.03 184.25 15.71Q184.58 15.38 184.78 14.41Q184.97 13.44 184.97 11.59L184.97 11.59Q184.97 9.74 184.82 8.81Q184.68 7.87 184.37 7.56Q184.06 7.25 183.55 7.25L183.55 7.25Q183.10 7.25 182.75 7.58Q182.40 7.92 182.21 8.88Q182.02 9.84 182.02 11.66L182.02 11.66Q182.02 13.10 182.11 13.99Q182.21 14.88 182.39 15.31Q182.57 15.74 182.84 15.89Q183.12 16.03 183.48 16.03ZM188.93 17.64L188.93 17.64L188.93 6.48Q189.60 6 190.45 5.70Q191.30 5.40 192.22 5.40L192.22 5.40Q193.18 5.40 193.52 5.66Q193.87 5.93 193.87 6.48L193.87 6.48Q193.87 6.67 193.82 7.03Q193.78 7.39 193.63 7.75L193.63 7.75Q193.39 7.61 193.13 7.55Q192.86 7.49 192.58 7.49L192.58 7.49Q192.24 7.49 191.86 7.61Q191.47 7.73 191.16 7.99L191.16 7.99L191.16 17.21Q191.16 17.42 191.06 17.51Q190.97 17.59 190.50 17.62Q190.03 17.64 188.93 17.64ZM195.17 17.64L195.17 17.64L195.17 6.19Q195.94 5.83 196.87 5.62Q197.81 5.40 198.82 5.40L198.82 5.40Q200.23 5.40 200.90 6.06Q201.58 6.72 201.76 7.94Q201.94 9.17 201.94 10.87L201.94 10.87L201.94 17.21Q201.94 17.42 201.84 17.51Q201.74 17.59 201.28 17.62Q200.81 17.64 199.75 17.64L199.75 17.64L199.75 8.69Q199.75 8.16 199.70 7.86Q199.66 7.56 199.44 7.43Q199.22 7.30 198.74 7.30L198.74 7.30Q198.41 7.30 198.05 7.39Q197.69 7.49 197.35 7.66L197.35 7.66L197.35 17.21Q197.35 17.42 197.24 17.51Q197.14 17.59 196.68 17.62Q196.22 17.64 195.17 17.64ZM199.75 17.64L199.75 17.64L199.75 7.30Q199.90 6.74 200.56 6.32Q201.22 5.90 202.12 5.65Q203.02 5.40 203.83 5.40L203.83 5.40Q205.03 5.40 205.61 5.78Q206.18 6.17 206.35 6.92Q206.52 7.68 206.52 8.74L206.52 8.74L206.52 17.21Q206.52 17.42 206.41 17.51Q206.30 17.59 205.85 17.62Q205.39 17.64 204.34 17.64L204.34 17.64L204.34 8.76Q204.34 7.99 204.14 7.66Q203.95 7.32 203.33 7.32L203.33 7.32Q202.97 7.32 202.62 7.40Q202.27 7.49 201.94 7.70L201.94 7.70L201.94 17.21Q201.94 17.42 201.86 17.51Q201.79 17.59 201.32 17.62Q200.86 17.64 199.75 17.64ZM211.49 17.88L211.49 17.88Q210.82 17.88 210.20 17.77Q209.59 17.66 209.10 17.29Q208.61 16.92 208.33 16.18Q208.06 15.43 208.06 14.21L208.06 14.21Q208.06 12.96 208.31 12.18Q208.56 11.40 209.00 10.98Q209.45 10.56 209.99 10.40Q210.53 10.25 211.10 10.25L211.10 10.25Q211.46 10.25 211.97 10.32Q212.47 10.39 212.81 10.58L212.81 10.58Q212.81 10.58 212.81 10.27Q212.81 9.96 212.81 9.53Q212.81 9.10 212.81 8.76L212.81 8.76Q212.81 8.28 212.66 8.02Q212.52 7.75 212.22 7.63Q211.92 7.51 211.46 7.51L211.46 7.51Q210.62 7.51 209.78 7.67Q208.94 7.82 208.39 8.04L208.39 8.04Q208.20 7.70 208.14 7.37Q208.08 7.03 208.08 6.79L208.08 6.79Q208.08 6.60 208.15 6.38Q208.22 6.17 208.37 6.07L208.37 6.07Q208.68 5.88 209.65 5.64Q210.62 5.40 212.02 5.40L212.02 5.40Q213.60 5.40 214.30 6.05Q214.99 6.70 214.99 8.33L214.99 8.33L214.99 9.55Q214.99 10.92 214.98 12.32Q214.97 13.73 214.94 14.95Q214.92 16.18 214.87 17.09L214.87 17.09Q214.34 17.40 213.48 17.64Q212.62 17.88 211.49 17.88ZM211.66 16.06L211.66 16.06Q211.99 16.06 212.29 15.96Q212.59 15.86 212.74 15.72L212.74 15.72Q212.76 15.36 212.78 14.74Q212.81 14.11 212.81 13.40Q212.81 12.70 212.81 12.10L212.81 12.10Q212.59 11.98 212.33 11.93Q212.06 11.88 211.85 11.88L211.85 11.88Q211.54 11.88 211.26 11.96Q210.98 12.05 210.78 12.29Q210.58 12.53 210.47 12.97Q210.36 13.42 210.36 14.14L210.36 14.14Q210.36 14.74 210.44 15.11Q210.53 15.48 210.70 15.70Q210.86 15.91 211.12 15.98Q211.37 16.06 211.66 16.06ZM216.82 17.64L216.82 17.64L216.82 0.98Q216.82 0.48 216.98 0.28Q217.15 0.07 217.63 0.04Q218.11 0 219.00 0L219.00 0L219.00 17.21Q219.00 17.42 218.90 17.51Q218.81 17.59 218.35 17.62Q217.90 17.64 216.82 17.64Z"/></svg>