<svg xmlns="http://www.w3.org/2000/svg" xmlns:xlink="http://www.w3.org/1999/xlink" width="134.928" height="29.04"><path fill="black" d="M6.98 16.46L7.37 16.46L12.38 6.02L14.47 6.02L11.52 22.82L10.22 22.82L12.67 8.86L12.36 8.86L7.97 17.88L5.88 17.88L4.68 8.86L4.39 8.86L1.94 22.82L0.67 22.82L3.62 6.02L5.71 6.02L6.98 16.46ZM20.78 20.93L21.48 16.99Q21.48 16.97 21.29 16.84Q21.10 16.70 20.76 16.55Q20.42 16.39 19.94 16.26Q19.46 16.13 18.91 16.13L18.91 16.13Q18.50 16.13 18.11 16.30Q17.71 16.46 17.39 16.75Q17.06 17.04 16.84 17.41Q16.61 17.78 16.54 18.22L16.54 18.22L16.27 19.73Q16.13 20.57 16.60 21.18Q17.06 21.79 17.88 21.79L17.88 21.79Q18.24 21.79 18.73 21.66Q19.22 21.53 19.68 21.36L19.68 21.36Q20.21 21.17 20.78 20.93L20.78 20.93ZM23.09 14.78L21.89 21.65L22.27 22.08L21.26 22.94L20.71 22.30Q19.87 22.73 19.02 22.90Q18.17 23.06 17.69 23.06L17.69 23.06Q17.02 23.06 16.48 22.79Q15.94 22.51 15.59 22.04Q15.24 21.58 15.11 20.95Q14.98 20.33 15.10 19.63L15.10 19.63L15.34 18.29Q15.46 17.59 15.80 16.98Q16.15 16.37 16.67 15.91Q17.18 15.46 17.82 15.19Q18.46 14.93 19.13 14.93L19.13 14.93Q19.30 14.93 19.63 14.95Q19.97 14.98 20.36 15.05Q20.76 15.12 21.13 15.25Q21.50 15.38 21.77 15.60L21.77 15.60L21.91 14.78Q22.01 14.23 21.91 13.69Q21.82 13.15 21.54 12.72Q21.26 12.29 20.86 12.02Q20.45 11.76 19.92 11.76L19.92 11.76Q19.73 11.76 19.21 11.88Q18.70 12.00 18.14 12.12L18.14 12.12Q17.50 12.26 16.75 12.46L16.75 12.46L16.61 11.33Q17.42 11.14 18.12 10.97L18.12 10.97Q18.72 10.82 19.30 10.70Q19.87 10.58 20.11 10.58L20.11 10.58Q20.88 10.58 21.49 10.94Q22.10 11.30 22.50 11.89Q22.90 12.48 23.06 13.24Q23.23 13.99 23.09 14.78L23.09 14.78ZM32.86 11.54L32.86 11.54L32.02 12.55Q31.66 12.31 31.42 12.18Q31.18 12.05 30.96 11.98Q30.74 11.90 30.54 11.89Q30.34 11.88 30.10 11.88L30.10 11.88Q29.74 11.88 29.08 12.08Q28.42 12.29 27.70 12.86L27.70 12.86L25.94 22.80L24.74 22.80L26.62 12.19L26.09 11.57L27.10 10.70L27.79 11.52Q28.61 10.90 29.26 10.74Q29.90 10.58 30.36 10.58L30.36 10.58Q30.84 10.58 31.39 10.78Q31.94 10.97 32.86 11.54ZM37.25 18L40.10 10.82L41.33 10.82L36.50 22.82L34.46 22.82L33.72 10.82L34.92 10.82L35.45 18.02Q35.47 18.38 35.48 18.92Q35.50 19.46 35.50 19.97Q35.50 20.47 35.51 20.83Q35.52 21.19 35.52 21.19L35.52 21.19L36 21.19Q36.24 20.54 36.48 19.94L36.48 19.94Q36.67 19.44 36.89 18.90Q37.10 18.36 37.25 18L37.25 18ZM43.46 17.02L46.30 17.04L46.34 17.04Q46.78 17.04 47.17 16.86Q47.57 16.68 47.89 16.38Q48.22 16.08 48.43 15.70Q48.65 15.31 48.72 14.88L48.72 14.88L48.89 13.87Q48.98 13.30 48.85 12.90Q48.72 12.50 48.40 12.26Q48.07 12.02 47.63 11.92Q47.18 11.81 46.68 11.81L46.68 11.81Q46.22 11.81 45.78 11.95Q45.34 12.10 44.98 12.36Q44.62 12.62 44.36 13.01Q44.11 13.39 44.02 13.87L44.02 13.87L43.46 17.02ZM41.81 19.30L42.74 13.99Q42.86 13.27 43.22 12.65Q43.58 12.02 44.11 11.57Q44.64 11.11 45.28 10.85Q45.91 10.58 46.61 10.58L46.61 10.58L47.42 10.58Q48.10 10.58 48.66 10.85Q49.22 11.11 49.58 11.57Q49.94 12.02 50.10 12.65Q50.26 13.27 50.11 13.99L50.11 13.99L49.99 14.78Q49.80 15.79 49.32 16.48Q48.84 17.16 48.14 17.59Q47.45 18.02 46.58 18.20Q45.72 18.38 44.78 18.38L44.78 18.38Q44.40 18.38 44.02 18.36Q43.63 18.34 43.25 18.29L43.25 18.29L42.98 19.73Q42.98 20.69 43.62 21.25Q44.26 21.82 45.19 21.82L45.19 21.82Q45.29 21.82 45.82 21.71Q46.34 21.60 46.94 21.48L46.94 21.48Q47.64 21.34 48.50 21.14L48.50 21.14L48.55 22.42Q47.64 22.61 46.90 22.73L46.90 22.73Q46.27 22.85 45.68 22.94Q45.10 23.04 44.98 23.04L44.98 23.04Q44.21 23.04 43.56 22.76Q42.91 22.49 42.48 21.98Q42.05 21.48 41.86 20.80Q41.66 20.11 41.81 19.30L41.81 19.30ZM51.91 19.66L54.31 6.02L55.56 6.02L53.14 19.78Q53.04 20.28 53.11 20.60Q53.18 20.93 53.39 21.13Q53.59 21.34 53.88 21.42Q54.17 21.50 54.50 21.50L54.50 21.50L54.82 21.50L54.60 22.80L54.17 22.80Q53.57 22.80 53.09 22.62Q52.61 22.44 52.30 22.07Q51.98 21.70 51.88 21.10Q51.77 20.50 51.91 19.66L51.91 19.66ZM67.97 22.82L66.70 22.82L67.51 18.14L61.44 18.14L61.68 16.73L66.98 7.22L68.30 7.22L63.05 16.85L67.73 16.85L68.23 14.11L69.50 14.11L67.97 22.82ZM74.38 21.77L74.38 21.77L75.14 21.77Q75.96 21.77 76.64 21.16Q77.33 20.54 77.50 19.68L77.50 19.68L79.13 10.39Q79.20 9.91 79.08 9.54Q78.96 9.17 78.70 8.92Q78.43 8.66 78.05 8.53Q77.66 8.40 77.23 8.40L77.23 8.40Q76.73 8.40 76.27 8.50Q75.82 8.59 75.43 8.83Q75.05 9.07 74.78 9.44Q74.52 9.82 74.42 10.39L74.42 10.39L72.79 19.68Q72.62 20.54 73.08 21.16Q73.54 21.77 74.38 21.77ZM80.35 10.39L80.35 10.39L78.70 19.75Q78.58 20.45 78.22 21.05Q77.86 21.65 77.35 22.09Q76.85 22.54 76.22 22.79Q75.60 23.04 74.93 23.04L74.93 23.04L74.14 23.04Q73.46 23.04 72.94 22.79Q72.41 22.54 72.05 22.09Q71.69 21.65 71.56 21.05Q71.42 20.45 71.54 19.75L71.54 19.75L73.20 10.39Q73.32 9.70 73.68 9.10Q74.04 8.50 74.54 8.05Q75.05 7.61 75.67 7.36Q76.30 7.10 76.97 7.10L76.97 7.10L77.76 7.10Q78.41 7.10 78.95 7.36Q79.49 7.61 79.84 8.05Q80.18 8.50 80.33 9.10Q80.47 9.70 80.35 10.39ZM84.91 21.77L84.91 21.77L85.68 21.77Q86.50 21.77 87.18 21.16Q87.86 20.54 88.03 19.68L88.03 19.68L89.66 10.39Q89.74 9.91 89.62 9.54Q89.50 9.17 89.23 8.92Q88.97 8.66 88.58 8.53Q88.20 8.40 87.77 8.40L87.77 8.40Q87.26 8.40 86.81 8.50Q86.35 8.59 85.97 8.83Q85.58 9.07 85.32 9.44Q85.06 9.82 84.96 10.39L84.96 10.39L83.33 19.68Q83.16 20.54 83.62 21.16Q84.07 21.77 84.91 21.77ZM90.89 10.39L90.89 10.39L89.23 19.75Q89.11 20.45 88.75 21.05Q88.39 21.65 87.89 22.09Q87.38 22.54 86.76 22.79Q86.14 23.04 85.46 23.04L85.46 23.04L84.67 23.04Q84 23.04 83.47 22.79Q82.94 22.54 82.58 22.09Q82.22 21.65 82.09 21.05Q81.96 20.45 82.08 19.75L82.08 19.75L83.74 10.39Q83.86 9.70 84.22 9.10Q84.58 8.50 85.08 8.05Q85.58 7.61 86.21 7.36Q86.83 7.10 87.50 7.10L87.50 7.10L88.30 7.10Q88.94 7.10 89.48 7.36Q90.02 7.61 90.37 8.05Q90.72 8.50 90.86 9.10Q91.01 9.70 90.89 10.39ZM99.65 7.90L99.98 6.02L101.26 6.02L100.92 7.90L99.65 7.90ZM97.03 22.82L99.14 10.82L100.42 10.82L98.30 22.82L97.03 22.82ZM102.86 19.70L102.86 19.70L104.23 12.00L102.19 12.00L102.41 10.80L104.45 10.80L105.29 6.02L106.56 6.02L105.72 10.80L107.93 10.80L107.71 12.00L105.50 12.00L104.14 19.82Q104.04 20.33 104.11 20.65Q104.18 20.98 104.39 21.18Q104.59 21.38 104.88 21.47Q105.17 21.55 105.50 21.55L105.50 21.55L106.03 21.55L105.79 22.85L105.14 22.85Q104.54 22.85 104.06 22.67Q103.58 22.49 103.27 22.12Q102.96 21.74 102.84 21.14Q102.72 20.54 102.86 19.70ZM113.62 20.93L114.31 16.99Q114.31 16.97 114.12 16.84Q113.93 16.70 113.59 16.55Q113.26 16.39 112.78 16.26Q112.30 16.13 111.74 16.13L111.74 16.13Q111.34 16.13 110.94 16.30Q110.54 16.46 110.22 16.75Q109.90 17.04 109.67 17.41Q109.44 17.78 109.37 18.22L109.37 18.22L109.10 19.73Q108.96 20.57 109.43 21.18Q109.90 21.79 110.71 21.79L110.71 21.79Q111.07 21.79 111.56 21.66Q112.06 21.53 112.51 21.36L112.51 21.36Q113.04 21.17 113.62 20.93L113.62 20.93ZM115.92 14.78L114.72 21.65L115.10 22.08L114.10 22.94L113.54 22.30Q112.70 22.73 111.85 22.90Q111 23.06 110.52 23.06L110.52 23.06Q109.85 23.06 109.31 22.79Q108.77 22.51 108.42 22.04Q108.07 21.58 107.94 20.95Q107.81 20.33 107.93 19.63L107.93 19.63L108.17 18.29Q108.29 17.59 108.64 16.98Q108.98 16.37 109.50 15.91Q110.02 15.46 110.65 15.19Q111.29 14.93 111.96 14.93L111.96 14.93Q112.13 14.93 112.46 14.95Q112.80 14.98 113.20 15.05Q113.59 15.12 113.96 15.25Q114.34 15.38 114.60 15.60L114.60 15.60L114.74 14.78Q114.84 14.23 114.74 13.69Q114.65 13.15 114.37 12.72Q114.10 12.29 113.69 12.02Q113.28 11.76 112.75 11.76L112.75 11.76Q112.56 11.76 112.04 11.88Q111.53 12.00 110.98 12.12L110.98 12.12Q110.33 12.26 109.58 12.46L109.58 12.46L109.44 11.33Q110.26 11.14 110.95 10.97L110.95 10.97Q111.55 10.82 112.13 10.70Q112.70 10.58 112.94 10.58L112.94 10.58Q113.71 10.58 114.32 10.94Q114.94 11.30 115.33 11.89Q115.73 12.48 115.90 13.24Q116.06 13.99 115.92 14.78L115.92 14.78ZM118.20 19.66L120.60 6.02L121.85 6.02L119.42 19.78Q119.33 20.28 119.40 20.60Q119.47 20.93 119.68 21.13Q119.88 21.34 120.17 21.42Q120.46 21.50 120.79 21.50L120.79 21.50L121.10 21.50L120.89 22.80L120.46 22.80Q119.86 22.80 119.38 22.62Q118.90 22.44 118.58 22.07Q118.27 21.70 118.16 21.10Q118.06 20.50 118.20 19.66L118.20 19.66ZM125.18 7.90L125.52 6.02L126.79 6.02L126.46 7.90L125.18 7.90ZM122.57 22.82L124.68 10.82L125.95 10.82L123.84 22.82L122.57 22.82ZM129.41 14.26L128.54 19.27Q128.42 19.85 128.56 20.32Q128.69 20.78 128.99 21.12Q129.29 21.46 129.72 21.64Q130.15 21.82 130.68 21.82L130.68 21.82Q130.92 21.82 131.29 21.76Q131.66 21.70 132.02 21.62L132.02 21.62Q132.46 21.53 132.89 21.41L132.89 21.41L133.08 22.51Q132.58 22.68 132.12 22.78L132.12 22.78Q131.71 22.87 131.26 22.94Q130.80 23.02 130.46 23.02L130.46 23.02Q129.67 23.02 129.04 22.74Q128.40 22.46 127.98 21.96Q127.56 21.46 127.38 20.77Q127.20 20.09 127.34 19.27L127.34 19.27L128.21 14.26Q128.35 13.44 128.77 12.76Q129.19 12.07 129.79 11.59Q130.39 11.11 131.12 10.84Q131.86 10.56 132.65 10.56L132.65 10.56Q133.03 10.56 133.44 10.66Q133.85 10.75 134.18 10.87L134.18 10.87Q134.59 10.99 134.95 11.16L134.95 11.16L134.50 12.19Q134.16 12.07 133.80 11.98L133.80 11.98Q133.49 11.88 133.13 11.81Q132.77 11.74 132.43 11.74L132.43 11.74Q131.90 11.74 131.41 11.92Q130.92 12.10 130.51 12.43Q130.10 12.77 129.80 13.22Q129.50 13.68 129.41 14.26L129.41 14.26Z"/></svg>