<svg xmlns="http://www.w3.org/2000/svg" xmlns:xlink="http://www.w3.org/1999/xlink" width="239.93999999999997" height="26.400000000000002"><path fill="black" d="M8.45 21.60L5.06 21.60L5.06 8.20L0.90 8.20L0.90 4.80L12.61 4.80L12.61 8.20L8.45 8.20L8.45 21.60ZM6.67 6.55L6.67 20.02L6.84 20.02L6.84 6.55L11.10 6.55L11.10 6.38L2.41 6.38L2.41 6.55L6.67 6.55ZM22.76 21.60L15.26 21.60L12.79 19.13L12.79 11.11L15.26 8.64L22.76 8.64L25.24 11.11L25.24 19.13L22.76 21.60ZM14.45 18.22L16.22 19.99L21.95 19.99L23.62 18.28L23.62 11.92L21.95 10.24L16.13 10.24L14.45 11.93L14.45 18.22ZM21.89 19.82L16.28 19.82L14.62 18.17L14.62 11.98L16.19 10.40L21.89 10.40L23.45 11.96L23.45 18.23L21.89 19.82ZM16.19 17.47L16.92 18.20L21.11 18.20L21.84 17.47L21.84 12.77L21.11 12.04L16.92 12.04L16.19 12.77L16.19 17.47ZM37.19 21.60L30.35 21.60L27.88 19.13L27.88 8.64L31.27 8.64L31.27 17.47L32.00 18.20L35.53 18.20L36.26 17.47L36.26 8.64L39.66 8.64L39.66 19.13L37.19 21.60ZM29.47 18.13L31.28 19.98L36.36 19.98L38.06 18.14L38.06 10.24L37.90 10.24L37.90 18.10L36.30 19.81L31.34 19.81L29.64 18.08L29.64 10.24L29.47 10.24L29.47 18.13ZM50.35 21.60L42.30 21.60L42.30 18.22L44.63 18.22L44.63 12.20L44.45 12.02L42.32 12.02L42.32 8.64L45.36 8.64L46.18 9.60L47.10 8.64L51.77 8.64L54.40 11.27L51.78 13.81L50.12 12.04L48.76 12.04L48.02 12.77L48.02 18.23L50.35 18.23L50.35 21.60ZM43.78 19.81L43.78 19.98L48.88 19.98L48.88 19.81L46.40 19.81L46.40 11.83L47.81 10.43L51.05 10.43L52.07 11.57L52.19 11.46L51.11 10.26L47.75 10.26L46.31 11.70L44.98 10.26L43.78 10.26L43.78 10.43L44.90 10.43L46.24 11.87L46.24 19.81L43.78 19.81ZM59.46 21.60L56.08 21.60L56.08 11.11L58.55 8.64L65.12 8.64L67.60 11.11L67.60 21.60L64.21 21.60L64.21 12.77L63.48 12.04L60.19 12.04L59.46 12.77L59.46 21.60ZM57.71 12.01L57.71 19.99L57.88 19.99L57.88 12.06L59.54 10.40L64.20 10.40L65.84 12.04L65.84 19.99L66.01 19.99L66.01 11.99L64.26 10.24L59.48 10.24L57.71 12.01ZM72.71 8.64L80.16 8.64L82.63 11.11L82.63 14.53L80.16 17.00L73.63 17.00L73.63 17.47L74.36 18.20L82.46 18.20L82.46 21.60L72.71 21.60L70.24 19.13L70.24 11.11L72.71 8.64ZM73.58 10.39L79.25 10.39L80.78 11.90L80.78 13.93L79.45 15.26L71.93 15.26L71.93 12.02L73.58 10.39ZM80.95 11.86L79.31 10.22L73.52 10.22L71.76 11.98L71.76 18.31L73.43 19.97L80.90 19.97L80.90 19.80L73.49 19.80L71.93 18.26L71.93 15.43L79.50 15.43L80.95 13.99L80.95 11.86ZM79.25 12.77L78.50 12.04L74.36 12.04L73.63 12.77L73.63 13.73L78.74 13.73L79.25 13.22L79.25 12.77ZM93.30 21.60L87.74 21.60L85.27 19.13L85.27 8.64L88.67 8.64L88.67 17.47L89.40 18.20L92.34 18.20L93.54 17.00L93.54 8.64L96.92 8.64L96.92 23.93L94.45 26.40L85.87 26.40L85.87 23.02L92.57 23.02L93.54 22.04L93.54 21.36L93.30 21.60ZM87.46 24.66L87.46 24.83L93.43 24.83L95.35 22.85L95.35 10.24L95.18 10.24L95.18 17.46L92.83 19.80L88.62 19.80L87.04 18.19L87.04 10.24L86.87 10.24L86.87 18.24L88.56 19.97L92.89 19.97L95.18 17.68L95.18 22.80L93.37 24.66L87.46 24.66ZM114.61 21.60L108.40 21.60L105.92 19.13L105.92 14.00L107.00 12.97L105.92 11.90L105.92 7.27L108.40 4.80L114.61 4.80L117.08 7.27L117.08 11.90L116.00 13.00L117.08 14.00L117.08 19.13L114.61 21.60ZM113.78 19.80L109.27 19.80L107.74 18.26L107.74 14.62L109.32 13.04L113.74 13.04L115.32 14.62L115.32 18.26L113.78 19.80ZM107.57 18.31L109.21 19.97L113.84 19.97L115.49 18.31L115.49 14.57L113.88 12.96L115.49 11.35L115.49 8.08L113.84 6.42L109.21 6.42L107.57 8.08L107.57 11.35L109.18 12.96L107.57 14.57L107.57 18.31ZM113.74 12.88L109.32 12.88L107.74 11.30L107.74 8.12L109.27 6.59L113.78 6.59L115.32 8.12L115.32 11.30L113.74 12.88ZM109.31 17.47L110.04 18.20L112.97 18.20L113.70 17.47L113.70 15.41L112.97 14.68L110.04 14.68L109.31 15.41L109.31 17.47ZM109.31 10.49L110.05 11.28L112.96 11.28L113.70 10.49L113.70 8.93L112.97 8.20L110.04 8.20L109.31 8.93L109.31 10.49ZM128.11 21.60L121.36 21.60L118.88 19.13L118.88 7.27L121.36 4.80L128.11 4.80L130.58 7.27L130.58 19.13L128.11 21.60ZM127.43 11.78L123.49 18.20L126.70 18.20L127.43 17.47L127.43 11.78ZM127.30 19.78L122.10 19.78L121.32 19.01L128.16 7.37L128.87 8.09L128.87 18.20L127.30 19.78ZM120.35 18.25L122.04 19.94L127.36 19.94L129.04 18.25L129.04 8.04L127.36 6.37L122.04 6.37L120.35 8.04L120.35 18.25ZM121.19 18.89L120.52 18.20L120.52 8.09L122.10 6.54L127.30 6.54L128.04 7.25L121.19 18.89ZM122.04 8.93L122.04 14.35L125.82 8.20L122.78 8.20L122.04 8.93ZM141.61 21.60L134.86 21.60L132.38 19.13L132.38 7.27L134.86 4.80L141.61 4.80L144.08 7.27L144.08 19.13L141.61 21.60ZM140.93 11.78L136.99 18.20L140.20 18.20L140.93 17.47L140.93 11.78ZM140.80 19.78L135.60 19.78L134.82 19.01L141.66 7.37L142.37 8.09L142.37 18.20L140.80 19.78ZM133.85 18.25L135.54 19.94L140.86 19.94L142.54 18.25L142.54 8.04L140.86 6.37L135.54 6.37L133.85 8.04L133.85 18.25ZM134.69 18.89L134.02 18.20L134.02 8.09L135.60 6.54L140.80 6.54L141.54 7.25L134.69 18.89ZM135.54 8.93L135.54 14.35L139.32 8.20L136.28 8.20L135.54 8.93ZM156.29 21.60L152.90 21.60L152.90 11.11L155.38 8.64L161.95 8.64L164.42 11.11L164.42 21.60L161.04 21.60L161.04 12.77L160.31 12.04L157.02 12.04L156.29 12.77L156.29 21.60ZM154.54 12.01L154.54 19.99L154.70 19.99L154.70 12.06L156.37 10.40L161.03 10.40L162.67 12.04L162.67 19.99L162.84 19.99L162.84 11.99L161.09 10.24L156.31 10.24L154.54 12.01ZM177.04 21.60L169.54 21.60L167.06 19.13L167.06 11.11L169.54 8.64L177.04 8.64L179.51 11.11L179.51 19.13L177.04 21.60ZM168.72 18.22L170.50 19.99L176.22 19.99L177.89 18.28L177.89 11.92L176.22 10.24L170.40 10.24L168.72 11.93L168.72 18.22ZM176.16 19.82L170.56 19.82L168.89 18.17L168.89 11.98L170.46 10.40L176.16 10.40L177.72 11.96L177.72 18.23L176.16 19.82ZM170.46 17.47L171.19 18.20L175.38 18.20L176.11 17.47L176.11 12.77L175.38 12.04L171.19 12.04L170.46 12.77L170.46 17.47ZM190.20 21.60L182.15 21.60L182.15 18.22L184.48 18.22L184.48 12.20L184.30 12.02L182.17 12.02L182.17 8.64L185.21 8.64L186.02 9.60L186.95 8.64L191.62 8.64L194.24 11.27L191.63 13.81L189.97 12.04L188.60 12.04L187.87 12.77L187.87 18.23L190.20 18.23L190.20 21.60ZM183.62 19.81L183.62 19.98L188.72 19.98L188.72 19.81L186.25 19.81L186.25 11.83L187.66 10.43L190.90 10.43L191.92 11.57L192.04 11.46L190.96 10.26L187.60 10.26L186.16 11.70L184.82 10.26L183.62 10.26L183.62 10.43L184.75 10.43L186.08 11.87L186.08 19.81L183.62 19.81ZM199.32 21.60L195.92 21.60L195.92 11.11L198.40 8.64L203.04 8.64L204.29 9.86L205.52 8.64L210.17 8.64L212.64 11.11L212.64 21.60L209.24 21.60L209.24 12.77L208.51 12.04L206.71 12.04L205.98 12.77L205.98 20.88L202.58 20.88L202.58 12.77L201.85 12.04L200.05 12.04L199.32 12.77L199.32 21.60ZM197.53 11.93L197.53 19.99L197.69 19.99L197.69 11.98L199.30 10.38L202.50 10.38L204.20 12.07L204.20 19.33L204.37 19.33L204.37 12.07L206.08 10.38L209.28 10.38L210.89 11.98L210.89 19.99L211.06 19.99L211.06 11.93L209.34 10.21L206.02 10.21L204.29 11.94L202.56 10.21L199.24 10.21L197.53 11.93ZM225.20 21.60L217.75 21.60L215.28 19.13L215.28 15.71L217.75 13.24L224.28 13.24L224.28 12.77L223.55 12.04L215.45 12.04L215.45 8.64L225.20 8.64L227.68 11.11L227.68 19.13L225.20 21.60ZM224.33 19.85L218.66 19.85L217.13 18.34L217.13 16.31L218.46 14.98L225.98 14.98L225.98 18.22L224.33 19.85ZM216.96 18.38L218.60 20.02L224.39 20.02L226.15 18.26L226.15 11.93L224.48 10.27L217.01 10.27L217.01 10.44L224.42 10.44L225.98 11.98L225.98 14.81L218.41 14.81L216.96 16.25L216.96 18.38ZM218.66 17.47L219.41 18.20L223.55 18.20L224.28 17.47L224.28 16.51L219.17 16.51L218.66 17.02L218.66 17.47ZM239.40 21.60L229.54 21.60L229.54 18.20L232.78 18.20L232.78 7.00L229.54 7.00L229.54 3.60L236.16 3.60L236.16 18.20L239.40 18.20L239.40 21.60ZM231.05 19.82L231.05 19.99L237.90 19.99L237.90 19.82L234.49 19.82L234.49 5.18L231.05 5.18L231.05 5.35L234.32 5.35L234.32 19.82L231.05 19.82Z"/></svg>