<svg xmlns="http://www.w3.org/2000/svg" xmlns:xlink="http://www.w3.org/1999/xlink" width="382.15200000000004" height="33.168"><path fill="black" d="M6.94 25.66L0.91 25.66L0.91 24.65L1.22 24.65Q2.04 24.65 2.62 24.35Q3.19 24.05 3.19 22.92L3.19 22.92L3.19 11.16Q3.19 10.10 2.60 9.82Q2.02 9.53 1.22 9.53L1.22 9.53L0.91 9.53L0.91 8.52L5.30 8.52L13.90 21.79L13.90 11.16Q13.90 10.10 13.31 9.82Q12.72 9.53 11.93 9.53L11.93 9.53L11.62 9.53L11.62 8.52L17.64 8.52L17.64 9.53L17.33 9.53Q16.51 9.53 15.94 9.83Q15.36 10.13 15.36 11.26L15.36 11.26L15.36 25.66L13.66 25.66L4.66 11.83L4.66 22.92Q4.66 24.05 5.23 24.35Q5.81 24.65 6.62 24.65L6.62 24.65L6.94 24.65L6.94 25.66ZM25.20 25.90L25.20 25.90Q22.61 25.90 21.12 24.24Q19.63 22.58 19.63 19.20L19.63 19.20Q19.63 15.84 21.06 14.20Q22.49 12.55 25.27 12.55L25.27 12.55Q27.86 12.55 29.35 14.20Q30.84 15.84 30.84 19.20L30.84 19.20Q30.84 22.58 29.41 24.24Q27.98 25.90 25.20 25.90ZM25.25 24.65L25.25 24.65Q27.05 24.65 27.78 23.27Q28.51 21.89 28.51 19.20L28.51 19.20Q28.51 16.51 27.77 15.17Q27.02 13.82 25.22 13.82L25.22 13.82Q23.42 13.82 22.69 15.17Q21.96 16.51 21.96 19.20L21.96 19.20Q21.96 21.89 22.70 23.27Q23.45 24.65 25.25 24.65ZM37.92 25.90L37.92 25.90Q36.10 25.90 35.27 25.07Q34.44 24.24 34.44 22.18L34.44 22.18L34.44 14.16L32.62 14.16L32.62 13.20Q33.05 13.20 33.58 13.02Q34.10 12.84 34.49 12.43L34.49 12.43Q34.90 12.00 35.16 11.38Q35.42 10.75 35.59 9.84L35.59 9.84L36.70 9.84L36.70 12.79L39.84 12.79L39.84 14.16L36.70 14.16L36.70 22.25Q36.70 23.47 37.20 24.05Q37.70 24.62 38.52 24.62L38.52 24.62Q38.95 24.62 39.31 24.58Q39.67 24.53 40.06 24.46L40.06 24.46L40.06 25.51Q39.74 25.66 39.12 25.78Q38.50 25.90 37.92 25.90ZM47.50 25.90L47.50 25.90Q44.90 25.90 43.42 24.24Q41.93 22.58 41.93 19.20L41.93 19.20Q41.93 15.84 43.36 14.20Q44.78 12.55 47.57 12.55L47.57 12.55Q50.16 12.55 51.65 14.20Q53.14 15.84 53.14 19.20L53.14 19.20Q53.14 22.58 51.71 24.24Q50.28 25.90 47.50 25.90ZM47.54 24.65L47.54 24.65Q49.34 24.65 50.08 23.27Q50.81 21.89 50.81 19.20L50.81 19.20Q50.81 16.51 50.06 15.17Q49.32 13.82 47.52 13.82L47.52 13.82Q45.72 13.82 44.99 15.17Q44.26 16.51 44.26 19.20L44.26 19.20Q44.26 21.89 45.00 23.27Q45.74 24.65 47.54 24.65ZM65.18 25.90L65.18 25.90Q62.83 25.90 61.62 24.96Q60.41 24.02 60.41 22.51L60.41 22.51Q60.41 21.79 60.86 21.35Q61.32 20.90 62.14 20.90L62.14 20.90Q62.18 21.89 62.52 22.76Q62.86 23.64 63.55 24.18Q64.25 24.72 65.38 24.72L65.38 24.72Q66.98 24.72 67.90 23.94Q68.81 23.16 68.81 21.70L68.81 21.70Q68.81 20.81 68.46 20.20Q68.11 19.58 67.31 19.06Q66.50 18.53 65.09 17.95L65.09 17.95Q62.86 17.04 61.76 15.82Q60.67 14.59 60.67 12.62L60.67 12.62Q60.67 11.26 61.36 10.28Q62.04 9.31 63.23 8.80Q64.42 8.28 65.93 8.28L65.93 8.28Q68.06 8.28 69.24 9.10Q70.42 9.91 70.42 10.97L70.42 10.97Q70.42 11.74 69.90 12.13Q69.38 12.53 68.52 12.53L68.52 12.53Q68.52 11.78 68.27 11.09Q68.02 10.39 67.43 9.94Q66.84 9.48 65.83 9.48L65.83 9.48Q64.44 9.48 63.67 10.22Q62.90 10.97 62.90 12.22L62.90 12.22Q62.90 13.18 63.25 13.84Q63.60 14.50 64.42 15.01Q65.23 15.53 66.62 16.10L66.62 16.10Q68.74 16.97 69.91 18.10Q71.09 19.22 71.09 21.07L71.09 21.07Q71.09 23.35 69.49 24.62Q67.90 25.90 65.18 25.90ZM79.20 25.90L79.20 25.90Q76.58 25.90 75.11 24.17Q73.63 22.44 73.63 19.32L73.63 19.32Q73.63 15.96 75.02 14.26Q76.42 12.55 78.96 12.55L78.96 12.55Q81.29 12.55 82.62 13.99Q83.95 15.43 83.95 18.29L83.95 18.29L83.95 19.39L75.96 19.39Q76.01 22.01 76.91 23.20Q77.81 24.38 79.54 24.38L79.54 24.38Q80.78 24.38 81.66 23.87Q82.54 23.35 82.97 22.70L82.97 22.70Q83.14 22.78 83.28 22.99Q83.42 23.21 83.42 23.52L83.42 23.52Q83.42 24 82.97 24.55Q82.51 25.10 81.58 25.50Q80.64 25.90 79.20 25.90ZM76.01 18.10L81.53 18.10Q81.53 16.18 80.94 15.01Q80.35 13.85 78.91 13.85L78.91 13.85Q77.59 13.85 76.86 14.94Q76.13 16.03 76.01 18.10L76.01 18.10ZM92.88 25.66L85.94 25.66L85.94 24.65L86.02 24.65Q86.83 24.65 87.41 24.35Q87.98 24.05 87.98 22.92L87.98 22.92L87.98 15.43Q87.98 14.38 87.40 14.09Q86.81 13.80 86.02 13.80L86.02 13.80L85.94 13.80L85.94 12.79L89.64 12.79L90.10 15.17L90.22 15.17Q90.53 14.45 90.89 13.85Q91.25 13.25 91.85 12.90Q92.45 12.55 93.50 12.55L93.50 12.55Q94.82 12.55 95.46 13.01Q96.10 13.46 96.10 14.30L96.10 14.30Q96.10 15.05 95.58 15.53Q95.06 16.01 93.86 16.01L93.86 16.01Q93.86 15.02 93.58 14.58Q93.29 14.14 92.59 14.14L92.59 14.14Q91.92 14.14 91.46 14.66Q91.01 15.19 90.74 16.01Q90.48 16.82 90.36 17.70Q90.24 18.58 90.24 19.27L90.24 19.27L90.24 23.04Q90.24 24.10 90.83 24.37Q91.42 24.65 92.21 24.65L92.21 24.65L92.88 24.65L92.88 25.66ZM100.32 10.39L100.32 10.39Q99.74 10.39 99.35 10.06Q98.95 9.72 98.95 8.90L98.95 8.90Q98.95 8.06 99.35 7.74Q99.74 7.42 100.32 7.42L100.32 7.42Q100.87 7.42 101.28 7.74Q101.69 8.06 101.69 8.90L101.69 8.90Q101.69 9.72 101.28 10.06Q100.87 10.39 100.32 10.39ZM103.82 25.66L97.01 25.66L97.01 24.65L97.32 24.65Q98.11 24.65 98.70 24.37Q99.29 24.10 99.29 23.04L99.29 23.04L99.29 15.43Q99.29 14.38 98.70 14.09Q98.11 13.80 97.32 13.80L97.32 13.80L97.25 13.80L97.25 12.79L101.54 12.79L101.54 22.92Q101.54 24.05 102.12 24.35Q102.70 24.65 103.51 24.65L103.51 24.65L103.82 24.65L103.82 25.66ZM112.20 25.66L104.78 25.66L104.78 24.65L105.10 24.65Q105.91 24.65 106.49 24.35Q107.06 24.05 107.06 22.92L107.06 22.92L107.06 13.92L104.88 13.92L104.88 12.79L107.06 12.79L107.06 11.59Q107.06 9.46 108.20 8.32Q109.34 7.18 111.31 7.18L111.31 7.18Q113.18 7.18 113.93 7.64Q114.67 8.11 114.67 8.86L114.67 8.86Q114.67 9.50 114.12 9.85Q113.57 10.20 112.70 10.20L112.70 10.20Q112.70 9.48 112.37 8.88Q112.03 8.28 111.12 8.28L111.12 8.28Q110.09 8.28 109.70 9.07Q109.32 9.86 109.32 11.38L109.32 11.38L109.32 12.79L112.70 12.79L112.70 13.92L109.32 13.92L109.32 22.92Q109.32 24.05 109.90 24.35Q110.47 24.65 111.29 24.65L111.29 24.65L112.20 24.65L112.20 25.66ZM126.70 25.90L126.70 25.90Q124.15 25.90 122.47 24.79Q120.79 23.69 119.96 21.70Q119.14 19.70 119.14 17.04L119.14 17.04Q119.14 14.38 119.96 12.41Q120.79 10.44 122.48 9.35Q124.18 8.26 126.72 8.26L126.72 8.26Q129.14 8.26 130.81 9.35Q132.48 10.44 133.36 12.42Q134.23 14.40 134.23 17.06L134.23 17.06Q134.23 19.73 133.36 21.71Q132.48 23.69 130.80 24.79Q129.12 25.90 126.70 25.90ZM126.70 24.60L126.70 24.60Q129.38 24.60 130.48 22.61Q131.57 20.62 131.57 17.06L131.57 17.06Q131.57 13.49 130.48 11.52Q129.38 9.55 126.72 9.55L126.72 9.55Q124.03 9.55 122.92 11.52Q121.80 13.49 121.80 17.06L121.80 17.06Q121.80 20.62 122.92 22.61Q124.03 24.60 126.70 24.60ZM142.73 25.66L135.91 25.66L135.91 24.65L136.22 24.65Q137.04 24.65 137.62 24.35Q138.19 24.05 138.19 22.92L138.19 22.92L138.19 10.06Q138.19 9 137.60 8.71Q137.02 8.42 136.22 8.42L136.22 8.42L135.91 8.42L135.91 7.42L140.45 7.42L140.45 22.92Q140.45 24.05 141.02 24.35Q141.60 24.65 142.42 24.65L142.42 24.65L142.73 24.65L142.73 25.66ZM149.26 25.90L149.26 25.90Q146.88 25.90 145.62 24.30Q144.36 22.70 144.36 19.25L144.36 19.25Q144.36 15.77 145.62 14.16Q146.88 12.55 149.26 12.55L149.26 12.55Q150.65 12.55 151.52 13.14Q152.40 13.73 152.93 14.66L152.93 14.66L153.07 14.66Q153 14.06 152.96 13.33Q152.93 12.60 152.93 12.02L152.93 12.02L152.93 10.06Q152.93 9 152.34 8.71Q151.75 8.42 150.96 8.42L150.96 8.42L150.77 8.42L150.77 7.42L155.18 7.42L155.18 23.02Q155.18 24.07 155.77 24.36Q156.36 24.65 157.15 24.65L157.15 24.65L157.34 24.65L157.34 25.66L153.29 25.66L153.02 23.50L152.93 23.50Q152.40 24.60 151.54 25.25Q150.67 25.90 149.26 25.90ZM149.66 24.36L149.66 24.36Q151.54 24.36 152.23 23.10Q152.93 21.84 152.93 19.25L152.93 19.25Q152.93 16.75 152.23 15.42Q151.54 14.09 149.64 14.09L149.64 14.09Q148.06 14.09 147.37 15.42Q146.69 16.75 146.69 19.27L146.69 19.27Q146.69 21.82 147.37 23.09Q148.06 24.36 149.66 24.36ZM171.26 25.90L171.26 25.90Q168.43 25.90 166.82 24.65Q165.22 23.40 165.22 20.47L165.22 20.47L165.22 11.16Q165.22 10.10 164.63 9.82Q164.04 9.53 163.25 9.53L163.25 9.53L162.94 9.53L162.94 8.52L169.92 8.52L169.92 9.53L169.61 9.53Q168.79 9.53 168.22 9.83Q167.64 10.13 167.64 11.26L167.64 11.26L167.64 20.62Q167.64 22.70 168.77 23.58Q169.90 24.46 171.65 24.46L171.65 24.46Q173.71 24.46 174.70 23.40Q175.68 22.34 175.68 20.71L175.68 20.71L175.68 11.16Q175.68 10.10 175.09 9.82Q174.50 9.53 173.71 9.53L173.71 9.53L173.40 9.53L173.40 8.52L179.42 8.52L179.42 9.53L179.11 9.53Q178.30 9.53 177.72 9.83Q177.14 10.13 177.14 11.26L177.14 11.26L177.14 20.76Q177.14 23.16 175.63 24.53Q174.12 25.90 171.26 25.90ZM180.70 31.42L180.70 30.29Q182.33 30.29 183.37 29.66Q184.42 29.04 185.06 27.97Q185.71 26.90 186.10 25.56L186.10 25.56L181.66 15.07Q181.34 14.33 181.00 14.06Q180.65 13.80 179.95 13.80L179.95 13.80L179.88 13.80L179.88 12.79L185.64 12.79L185.64 13.80L185.57 13.80Q184.13 13.80 184.13 14.95L184.13 14.95Q184.13 15.36 184.32 15.84L184.32 15.84L186.07 20.11Q186.31 20.66 186.54 21.32Q186.77 21.98 186.96 22.58Q187.15 23.18 187.22 23.59L187.22 23.59Q187.39 22.90 187.67 22.15Q187.94 21.41 188.18 20.69L188.18 20.69L189.79 16.01Q190.01 15.43 190.01 14.98L190.01 14.98Q190.01 13.80 188.42 13.80L188.42 13.80L188.35 13.80L188.35 12.79L193.34 12.79L193.34 13.80L193.27 13.80Q192.58 13.80 192.22 14.16Q191.86 14.52 191.45 15.67L191.45 15.67L187.80 25.75Q187.18 27.50 186.60 28.61Q186.02 29.71 185.32 30.32Q184.61 30.94 183.55 31.18Q182.50 31.42 180.91 31.42L180.91 31.42L180.70 31.42ZM198.89 31.42L198.89 31.42Q196.39 31.42 195.14 30.49Q193.90 29.57 193.90 27.91L193.90 27.91Q193.90 26.50 194.81 25.78Q195.72 25.06 196.90 24.84L196.90 24.84Q196.42 24.62 196.00 24.13Q195.58 23.64 195.58 22.87L195.58 22.87Q195.58 22.15 195.95 21.62Q196.32 21.10 197.14 20.62L197.14 20.62Q196.10 20.18 195.54 19.19Q194.98 18.19 194.98 16.99L194.98 16.99Q194.98 14.93 196.10 13.74Q197.23 12.55 199.49 12.55L199.49 12.55Q200.35 12.55 201.12 12.79Q201.89 13.03 202.22 13.34L202.22 13.34Q202.56 12.96 203.16 12.50Q203.76 12.05 204.55 12.05L204.55 12.05Q205.27 12.05 205.62 12.42Q205.97 12.79 205.97 13.30L205.97 13.30Q205.97 13.80 205.67 14.17Q205.37 14.54 204.70 14.54L204.70 14.54Q204.70 14.28 204.54 14.00Q204.38 13.73 203.90 13.73L203.90 13.73Q203.35 13.73 202.87 14.02L202.87 14.02Q203.28 14.52 203.54 15.20Q203.81 15.89 203.81 16.92L203.81 16.92Q203.81 18.70 202.74 19.87Q201.67 21.05 199.49 21.05L199.49 21.05Q199.20 21.05 198.83 21.01Q198.46 20.98 198.22 20.93L198.22 20.93Q197.76 21.17 197.42 21.53Q197.09 21.89 197.09 22.44L197.09 22.44Q197.09 22.87 197.36 23.11Q197.64 23.35 198.58 23.35L198.58 23.35L201.29 23.35Q203.42 23.35 204.34 24.36Q205.25 25.37 205.25 26.93L205.25 26.93Q205.25 28.99 203.70 30.20Q202.15 31.42 198.89 31.42ZM199.42 19.90L199.42 19.90Q200.59 19.90 201.07 19.18Q201.55 18.46 201.55 16.90L201.55 16.90Q201.55 15.26 201.06 14.50Q200.57 13.73 199.39 13.73L199.39 13.73Q198.24 13.73 197.74 14.52Q197.23 15.31 197.23 16.92L197.23 16.92Q197.23 18.46 197.75 19.18Q198.26 19.90 199.42 19.90ZM198.94 30.24L198.94 30.24Q200.66 30.24 201.60 29.87Q202.54 29.50 202.91 28.84Q203.28 28.18 203.28 27.34L203.28 27.34Q203.28 26.23 202.66 25.86Q202.03 25.49 200.83 25.49L200.83 25.49L198.48 25.49Q197.81 25.49 197.21 25.67Q196.61 25.85 196.22 26.33Q195.84 26.81 195.84 27.77L195.84 27.77Q195.84 28.46 196.10 29.03Q196.37 29.59 197.04 29.92Q197.71 30.24 198.94 30.24ZM213.14 25.66L206.69 25.66L206.69 24.65L206.88 24.65Q207.70 24.65 208.27 24.35Q208.85 24.05 208.85 22.92L208.85 22.92L208.85 10.06Q208.85 9 208.26 8.71Q207.67 8.42 206.88 8.42L206.88 8.42L206.69 8.42L206.69 7.42L211.10 7.42L211.10 12.70Q211.10 13.13 211.08 13.60Q211.06 14.06 211.03 14.40Q211.01 14.74 211.01 14.74L211.01 14.74L211.13 14.74Q212.23 12.55 214.66 12.55L214.66 12.55Q216.72 12.55 217.81 13.67Q218.90 14.78 218.90 17.26L218.90 17.26L218.90 22.92Q218.90 24.05 219.42 24.35Q219.94 24.65 220.75 24.65L220.75 24.65L220.82 24.65L220.82 25.66L216.65 25.66L216.65 17.38Q216.65 15.82 216.06 14.95Q215.47 14.09 214.01 14.09L214.01 14.09Q212.52 14.09 211.81 15.14Q211.10 16.20 211.10 17.98L211.10 17.98L211.10 23.04Q211.10 24.10 211.69 24.37Q212.28 24.65 213.07 24.65L213.07 24.65L213.14 24.65L213.14 25.66ZM228.05 25.90L228.05 25.90Q226.15 25.90 225.12 24.78Q224.09 23.66 224.09 21.19L224.09 21.19L224.09 15.43Q224.09 14.38 223.50 14.09Q222.91 13.80 222.12 13.80L222.12 13.80L222.05 13.80L222.05 12.79L226.34 12.79L226.34 21.07Q226.34 22.63 226.87 23.50Q227.40 24.36 228.86 24.36L228.86 24.36Q230.45 24.36 231.17 23.29Q231.89 22.22 231.89 20.47L231.89 20.47L231.89 15.53Q231.89 14.40 231.31 14.10Q230.74 13.80 229.92 13.80L229.92 13.80L229.85 13.80L229.85 12.79L234.14 12.79L234.14 23.04Q234.14 24.10 234.73 24.37Q235.32 24.65 236.11 24.65L236.11 24.65L236.18 24.65L236.18 25.66L232.37 25.66L232.06 23.71L231.94 23.71Q231.19 25.06 230.21 25.48Q229.22 25.90 228.05 25.90ZM244.46 25.66L237.53 25.66L237.53 24.65L237.60 24.65Q238.42 24.65 238.99 24.35Q239.57 24.05 239.57 22.92L239.57 22.92L239.57 15.43Q239.57 14.38 238.98 14.09Q238.39 13.80 237.60 13.80L237.60 13.80L237.53 13.80L237.53 12.79L241.22 12.79L241.68 15.17L241.80 15.17Q242.11 14.45 242.47 13.85Q242.83 13.25 243.43 12.90Q244.03 12.55 245.09 12.55L245.09 12.55Q246.41 12.55 247.04 13.01Q247.68 13.46 247.68 14.30L247.68 14.30Q247.68 15.05 247.16 15.53Q246.65 16.01 245.45 16.01L245.45 16.01Q245.45 15.02 245.16 14.58Q244.87 14.14 244.18 14.14L244.18 14.14Q243.50 14.14 243.05 14.66Q242.59 15.19 242.33 16.01Q242.06 16.82 241.94 17.70Q241.82 18.58 241.82 19.27L241.82 19.27L241.82 23.04Q241.82 24.10 242.41 24.37Q243.00 24.65 243.79 24.65L243.79 24.65L244.46 24.65L244.46 25.66ZM265.22 25.66L258.00 25.66L258.00 24.65L258.67 24.65Q259.49 24.65 260.06 24.35Q260.64 24.05 260.64 22.92L260.64 22.92L260.64 20.95L253.25 20.95L253.25 19.97L260.66 8.52L262.94 8.52L262.94 19.61L265.92 19.61L265.92 20.95L262.94 20.95L262.94 22.92Q262.94 24.05 263.52 24.35Q264.10 24.65 264.91 24.65L264.91 24.65L265.22 24.65L265.22 25.66ZM258.65 13.90L254.98 19.61L260.64 19.61L260.64 15.17Q260.64 14.47 260.65 13.60Q260.66 12.72 260.71 11.83Q260.76 10.94 260.81 10.20L260.81 10.20Q260.69 10.44 260.42 10.92Q260.16 11.40 259.82 11.96Q259.49 12.53 259.18 13.04Q258.86 13.56 258.65 13.90L258.65 13.90ZM272.98 25.90L272.98 25.90Q271.01 25.90 269.76 24.79Q268.51 23.69 267.92 21.70Q267.34 19.70 267.34 17.04L267.34 17.04Q267.34 14.38 267.92 12.41Q268.51 10.44 269.76 9.36Q271.01 8.28 273 8.28L273 8.28Q274.87 8.28 276.12 9.36Q277.37 10.44 277.98 12.42Q278.59 14.40 278.59 17.06L278.59 17.06Q278.59 19.73 277.97 21.71Q277.34 23.69 276.11 24.79Q274.87 25.90 272.98 25.90ZM272.98 24.60L272.98 24.60Q274.73 24.60 275.41 22.61Q276.10 20.62 276.10 17.06L276.10 17.06Q276.10 13.49 275.41 11.53Q274.73 9.58 273 9.58L273 9.58Q271.25 9.58 270.54 11.53Q269.83 13.49 269.83 17.06L269.83 17.06Q269.83 20.62 270.53 22.61Q271.22 24.60 272.98 24.60ZM286.39 25.90L286.39 25.90Q284.42 25.90 283.18 24.79Q281.93 23.69 281.34 21.70Q280.75 19.70 280.75 17.04L280.75 17.04Q280.75 14.38 281.34 12.41Q281.93 10.44 283.18 9.36Q284.42 8.28 286.42 8.28L286.42 8.28Q288.29 8.28 289.54 9.36Q290.78 10.44 291.40 12.42Q292.01 14.40 292.01 17.06L292.01 17.06Q292.01 19.73 291.38 21.71Q290.76 23.69 289.52 24.79Q288.29 25.90 286.39 25.90ZM286.39 24.60L286.39 24.60Q288.14 24.60 288.83 22.61Q289.51 20.62 289.51 17.06L289.51 17.06Q289.51 13.49 288.83 11.53Q288.14 9.58 286.42 9.58L286.42 9.58Q284.66 9.58 283.96 11.53Q283.25 13.49 283.25 17.06L283.25 17.06Q283.25 20.62 283.94 22.61Q284.64 24.60 286.39 24.60ZM305.02 25.66L298.56 25.66L298.56 24.65L298.75 24.65Q299.57 24.65 300.14 24.35Q300.72 24.05 300.72 22.92L300.72 22.92L300.72 15.43Q300.72 14.38 300.16 14.09Q299.59 13.80 298.80 13.80L298.80 13.80L298.68 13.80L298.68 12.79L302.57 12.79L302.88 14.74L303.00 14.74Q303.74 13.39 304.67 12.97Q305.59 12.55 306.74 12.55L306.74 12.55Q308.64 12.55 309.71 13.67Q310.78 14.78 310.78 17.26L310.78 17.26L310.78 22.92Q310.78 24.05 311.27 24.35Q311.76 24.65 312.58 24.65L312.58 24.65L312.70 24.65L312.70 25.66L308.52 25.66L308.52 17.38Q308.52 15.82 307.93 14.95Q307.34 14.09 305.88 14.09L305.88 14.09Q304.80 14.09 304.16 14.63Q303.53 15.17 303.25 16.06Q302.98 16.94 302.98 17.98L302.98 17.98L302.98 23.04Q302.98 24.10 303.54 24.37Q304.10 24.65 304.90 24.65L304.90 24.65L305.02 24.65L305.02 25.66ZM320.26 25.90L320.26 25.90Q317.66 25.90 316.18 24.24Q314.69 22.58 314.69 19.20L314.69 19.20Q314.69 15.84 316.12 14.20Q317.54 12.55 320.33 12.55L320.33 12.55Q322.92 12.55 324.41 14.20Q325.90 15.84 325.90 19.20L325.90 19.20Q325.90 22.58 324.47 24.24Q323.04 25.90 320.26 25.90ZM320.30 24.65L320.30 24.65Q322.10 24.65 322.84 23.27Q323.57 21.89 323.57 19.20L323.57 19.20Q323.57 16.51 322.82 15.17Q322.08 13.82 320.28 13.82L320.28 13.82Q318.48 13.82 317.75 15.17Q317.02 16.51 317.02 19.20L317.02 19.20Q317.02 21.89 317.76 23.27Q318.50 24.65 320.30 24.65ZM334.94 25.66L328.01 25.66L328.01 24.65L328.08 24.65Q328.90 24.65 329.47 24.35Q330.05 24.05 330.05 22.92L330.05 22.92L330.05 15.43Q330.05 14.38 329.46 14.09Q328.87 13.80 328.08 13.80L328.08 13.80L328.01 13.80L328.01 12.79L331.70 12.79L332.16 15.17L332.28 15.17Q332.59 14.45 332.95 13.85Q333.31 13.25 333.91 12.90Q334.51 12.55 335.57 12.55L335.57 12.55Q336.89 12.55 337.52 13.01Q338.16 13.46 338.16 14.30L338.16 14.30Q338.16 15.05 337.64 15.53Q337.13 16.01 335.93 16.01L335.93 16.01Q335.93 15.02 335.64 14.58Q335.35 14.14 334.66 14.14L334.66 14.14Q333.98 14.14 333.53 14.66Q333.07 15.19 332.81 16.01Q332.54 16.82 332.42 17.70Q332.30 18.58 332.30 19.27L332.30 19.27L332.30 23.04Q332.30 24.10 332.89 24.37Q333.48 24.65 334.27 24.65L334.27 24.65L334.94 24.65L334.94 25.66ZM345.65 25.66L339.19 25.66L339.19 24.65L339.50 24.65Q340.32 24.65 340.84 24.35Q341.35 24.05 341.35 22.92L341.35 22.92L341.35 15.43Q341.35 14.38 340.82 14.09Q340.30 13.80 339.50 13.80L339.50 13.80L339.43 13.80L339.43 12.79L343.20 12.79L343.51 14.74L343.63 14.74Q344.35 13.39 345.25 12.97Q346.15 12.55 347.26 12.55L347.26 12.55Q348.41 12.55 349.34 13.04Q350.28 13.54 350.74 14.74L350.74 14.74L350.93 14.74Q351.65 13.39 352.62 12.97Q353.59 12.55 354.70 12.55L354.70 12.55Q356.54 12.55 357.58 13.67Q358.61 14.78 358.61 17.26L358.61 17.26L358.61 22.92Q358.61 24.05 359.12 24.35Q359.64 24.65 360.46 24.65L360.46 24.65L360.53 24.65L360.53 25.66L356.35 25.66L356.35 17.38Q356.35 15.82 355.79 14.95Q355.22 14.09 353.83 14.09L353.83 14.09Q352.85 14.09 352.26 14.58Q351.67 15.07 351.42 15.89Q351.17 16.70 351.17 17.66L351.17 17.66L351.17 22.92Q351.17 24.05 351.68 24.35Q352.20 24.65 353.02 24.65L353.02 24.65L353.09 24.65L353.09 25.66L348.91 25.66L348.91 17.38Q348.91 15.82 348.35 14.95Q347.78 14.09 346.39 14.09L346.39 14.09Q345.36 14.09 344.75 14.63Q344.14 15.17 343.87 16.06Q343.61 16.94 343.61 17.98L343.61 17.98L343.61 23.04Q343.61 24.10 344.20 24.37Q344.78 24.65 345.58 24.65L345.58 24.65L345.65 24.65L345.65 25.66ZM366.12 25.90L366.12 25.90Q364.51 25.90 363.46 24.96Q362.40 24.02 362.40 22.06L362.40 22.06Q362.40 20.14 363.76 19.22Q365.11 18.31 367.87 18.22L367.87 18.22L369.86 18.14L369.86 16.70Q369.86 15.84 369.72 15.18Q369.58 14.52 369.10 14.14Q368.62 13.75 367.63 13.75L367.63 13.75Q366.72 13.75 366.24 14.09Q365.76 14.42 365.60 15.01Q365.45 15.60 365.45 16.37L365.45 16.37Q364.44 16.37 363.92 16.02Q363.41 15.67 363.41 14.86L363.41 14.86Q363.41 14.02 364.00 13.51Q364.58 13.01 365.57 12.78Q366.55 12.55 367.73 12.55L367.73 12.55Q369.94 12.55 371.03 13.49Q372.12 14.42 372.12 16.70L372.12 16.70L372.12 22.92Q372.12 23.93 372.46 24.29Q372.79 24.65 373.61 24.65L373.61 24.65L373.68 24.65L373.68 25.66L370.44 25.66L370.06 23.59L369.86 23.59Q369.36 24.26 368.88 24.78Q368.40 25.30 367.76 25.60Q367.13 25.90 366.12 25.90ZM366.67 24.41L366.67 24.41Q368.14 24.41 369.00 23.51Q369.86 22.61 369.86 21.07L369.86 21.07L369.86 19.13L368.33 19.20Q366.29 19.30 365.51 20.03Q364.73 20.76 364.73 22.18L364.73 22.18Q364.73 24.41 366.67 24.41ZM381.84 25.66L375.02 25.66L375.02 24.65L375.34 24.65Q376.15 24.65 376.73 24.35Q377.30 24.05 377.30 22.92L377.30 22.92L377.30 10.06Q377.30 9 376.72 8.71Q376.13 8.42 375.34 8.42L375.34 8.42L375.02 8.42L375.02 7.42L379.56 7.42L379.56 22.92Q379.56 24.05 380.14 24.35Q380.71 24.65 381.53 24.65L381.53 24.65L381.84 24.65L381.84 25.66Z"/></svg>