<svg xmlns="http://www.w3.org/2000/svg" xmlns:xlink="http://www.w3.org/1999/xlink" width="242.85599999999997" height="32.232"><path fill="black" d="M16.70 9.50L8.45 19.87L7.13 18.05L13.30 9.50L16.70 9.50ZM7.82 25.30L4.90 25.30L6.46 18.10L9.38 18.10L7.82 25.30ZM8.71 18.05L6.62 19.73L2.86 9.50L6.31 9.50L8.71 18.05ZM17.95 25.58L17.95 25.58Q16.85 25.58 16.03 25.20Q15.22 24.82 14.74 24.41L14.74 24.41L16.44 22.68Q16.73 22.99 17.24 23.28Q17.76 23.57 18.34 23.57L18.34 23.57Q18.86 23.57 19.20 23.27Q19.54 22.97 19.61 22.58L19.61 22.58Q19.70 22.10 19.37 21.77Q19.03 21.43 18.49 21.08Q17.95 20.74 17.44 20.29Q16.92 19.85 16.66 19.20Q16.39 18.55 16.58 17.57L16.58 17.57Q16.85 16.27 17.93 15.58Q19.01 14.88 20.40 14.88L20.40 14.88Q21.29 14.88 21.98 15.12Q22.68 15.36 23.21 15.67L23.21 15.67L21.74 17.59Q21.46 17.21 21.01 17.00Q20.57 16.80 20.09 16.80L20.09 16.80Q19.56 16.80 19.21 17.06Q18.86 17.33 18.82 17.66L18.82 17.66Q18.74 18.07 19.10 18.41Q19.46 18.74 20.02 19.09Q20.57 19.44 21.10 19.90Q21.62 20.35 21.91 21.01Q22.20 21.67 21.98 22.66L21.98 22.66Q21.72 23.90 20.65 24.74Q19.58 25.58 17.95 25.58ZM26.47 25.51L26.47 25.51Q24.86 25.51 24.23 24.37Q23.59 23.23 23.90 21.60L23.90 21.60Q24.17 20.30 24.95 19.13Q25.73 17.95 26.94 17.04Q28.15 16.13 29.69 15.60Q31.22 15.07 33 15.07L33 15.07Q33.48 15.07 33.79 15.11Q34.10 15.14 34.37 15.19L34.37 15.19L32.86 22.32Q32.66 23.33 33.22 23.33L33.22 23.33Q33.43 23.33 33.72 23.20Q34.01 23.06 34.34 22.82L34.34 22.82L35.14 23.90Q34.25 24.72 33.54 25.09Q32.83 25.46 32.11 25.46L32.11 25.46Q31.54 25.46 31.12 25.22Q30.70 24.98 30.54 24.47Q30.38 23.95 30.58 23.09L30.58 23.09L31.37 19.46L32.66 18.65Q32.30 20.23 31.64 21.50Q30.98 22.78 30.14 23.68Q29.30 24.58 28.36 25.04Q27.41 25.51 26.47 25.51ZM27.50 23.35L27.50 23.35Q28.08 23.35 28.67 22.97Q29.26 22.58 29.77 21.92Q30.29 21.26 30.68 20.41Q31.08 19.56 31.27 18.62L31.27 18.62L31.75 16.25L33.07 17.28Q32.86 17.23 32.64 17.22Q32.42 17.21 32.21 17.21L32.21 17.21Q30.96 17.21 29.98 17.53Q28.99 17.86 28.28 18.43Q27.58 19.01 27.13 19.81Q26.69 20.62 26.52 21.60L26.52 21.60Q26.35 22.63 26.66 22.99Q26.98 23.35 27.50 23.35ZM39.94 25.61L39.94 25.61Q38.71 25.61 37.93 25.06Q37.15 24.50 36.86 23.60Q36.58 22.70 36.82 21.62L36.82 21.62L39.74 8.23L42.24 8.23L40.25 17.04Q40.87 16.42 41.57 15.96Q42.26 15.50 43.00 15.26Q43.73 15.02 44.42 15.02L44.42 15.02Q45.62 15.02 46.22 15.67Q46.82 16.32 46.93 17.35Q47.04 18.38 46.75 19.51L46.75 19.51Q46.32 21.24 45.29 22.62Q44.26 24 42.86 24.80Q41.47 25.61 39.94 25.61ZM39.41 20.81L39.31 21.24Q39.14 21.96 39.28 22.48Q39.41 22.99 39.79 23.27Q40.18 23.54 40.73 23.54L40.73 23.54Q41.45 23.54 42.06 23.12Q42.67 22.70 43.15 21.96Q43.63 21.22 43.90 20.26L43.90 20.26Q44.06 19.66 44.12 18.98Q44.18 18.31 43.97 17.82Q43.75 17.33 43.08 17.33L43.08 17.33Q42.60 17.33 42.02 17.62Q41.45 17.90 40.91 18.38Q40.37 18.86 39.96 19.49Q39.55 20.11 39.41 20.81L39.41 20.81ZM51.77 25.61L51.77 25.61Q50.45 25.61 49.55 25.00Q48.65 24.38 48.31 23.28Q47.98 22.18 48.29 20.71L48.29 20.71Q48.62 19.15 49.58 17.83Q50.54 16.51 51.91 15.70Q53.28 14.88 54.86 14.88L54.86 14.88Q55.92 14.88 56.51 15.25Q57.10 15.62 57.29 16.26Q57.48 16.90 57.31 17.66L57.31 17.66Q57.02 18.96 55.96 19.74Q54.89 20.52 53.40 20.92Q51.91 21.31 50.35 21.48L50.35 21.48L50.47 19.94Q51.67 19.75 52.63 19.44Q53.59 19.13 54.20 18.71Q54.82 18.29 54.94 17.81L54.94 17.81Q55.01 17.59 54.96 17.33Q54.91 17.06 54.68 16.87Q54.46 16.68 53.98 16.68L53.98 16.68Q53.16 16.68 52.54 17.24Q51.91 17.81 51.50 18.68Q51.10 19.56 50.88 20.52L50.88 20.52Q50.66 21.46 50.72 22.15Q50.78 22.85 51.18 23.22Q51.58 23.59 52.32 23.59L52.32 23.59Q52.87 23.59 53.59 23.35Q54.31 23.11 54.98 22.58L54.98 22.58L55.87 23.93Q55.30 24.43 54.62 24.82Q53.95 25.20 53.23 25.40Q52.51 25.61 51.77 25.61ZM60.74 25.51L60.74 25.51Q59.14 25.51 58.50 24.37Q57.86 23.23 58.18 21.60L58.18 21.60Q58.44 20.30 59.22 19.13Q60 17.95 61.21 17.04Q62.42 16.13 63.96 15.60Q65.50 15.07 67.27 15.07L67.27 15.07Q67.75 15.07 68.06 15.11Q68.38 15.14 68.64 15.19L68.64 15.19L67.13 22.32Q66.94 23.33 67.49 23.33L67.49 23.33Q67.70 23.33 67.99 23.20Q68.28 23.06 68.62 22.82L68.62 22.82L69.41 23.90Q68.52 24.72 67.81 25.09Q67.10 25.46 66.38 25.46L66.38 25.46Q65.81 25.46 65.39 25.22Q64.97 24.98 64.81 24.47Q64.66 23.95 64.85 23.09L64.85 23.09L65.64 19.46L66.94 18.65Q66.58 20.23 65.92 21.50Q65.26 22.78 64.42 23.68Q63.58 24.58 62.63 25.04Q61.68 25.51 60.74 25.51ZM61.78 23.35L61.78 23.35Q62.35 23.35 62.94 22.97Q63.53 22.58 64.04 21.92Q64.56 21.26 64.96 20.41Q65.35 19.56 65.54 18.62L65.54 18.62L66.02 16.25L67.34 17.28Q67.13 17.23 66.91 17.22Q66.70 17.21 66.48 17.21L66.48 17.21Q65.23 17.21 64.25 17.53Q63.26 17.86 62.56 18.43Q61.85 19.01 61.40 19.81Q60.96 20.62 60.79 21.60L60.79 21.60Q60.62 22.63 60.94 22.99Q61.25 23.35 61.78 23.35ZM73.44 25.51L73.44 25.51Q72.94 25.51 72.42 25.36Q71.90 25.20 71.52 24.79Q71.14 24.38 70.99 23.62Q70.85 22.85 71.11 21.65L71.11 21.65L72.50 15.19L75 15.19L73.66 21.36Q73.49 22.15 73.52 22.74Q73.56 23.33 74.26 23.33L74.26 23.33Q74.76 23.33 75.40 22.91Q76.03 22.49 76.67 21.54Q77.30 20.59 77.87 19.03Q78.43 17.47 78.79 15.19L78.79 15.19L80.21 15.19Q79.66 18.02 78.90 20.00Q78.14 21.98 77.26 23.20Q76.37 24.41 75.41 24.96Q74.45 25.51 73.44 25.51ZM78.74 25.46L78.74 25.46Q78.26 25.46 77.90 25.20Q77.54 24.94 77.40 24.41Q77.26 23.88 77.42 23.09L77.42 23.09L79.10 15.19L81.14 15.19L79.68 22.32Q79.58 22.78 79.64 23.03Q79.70 23.28 80.04 23.28L80.04 23.28Q80.23 23.28 80.46 23.18Q80.69 23.09 81.05 22.82L81.05 22.82L81.86 23.88Q81.07 24.70 80.27 25.08Q79.46 25.46 78.74 25.46ZM96.02 25.61L96.02 25.61Q93.98 25.61 92.60 24.86Q91.22 24.12 90.47 22.87Q89.71 21.62 89.52 20.08Q89.33 18.53 89.66 16.94L89.66 16.94Q89.98 15.46 90.72 14.08Q91.46 12.70 92.60 11.59Q93.74 10.49 95.27 9.84Q96.79 9.19 98.69 9.19L98.69 9.19Q100.73 9.19 102.11 9.94Q103.49 10.68 104.26 11.94Q105.02 13.20 105.20 14.75Q105.38 16.30 105.05 17.88L105.05 17.88Q104.74 19.34 103.99 20.74Q103.25 22.13 102.11 23.22Q100.97 24.31 99.44 24.96Q97.92 25.61 96.02 25.61ZM96.65 23.42L96.65 23.42Q97.73 23.42 98.59 22.99Q99.46 22.56 100.12 21.84Q100.78 21.12 101.22 20.21Q101.66 19.30 101.86 18.34L101.86 18.34Q102.12 17.11 102.05 15.89Q101.98 14.66 101.53 13.64Q101.09 12.62 100.24 12.00Q99.38 11.38 98.09 11.38L98.09 11.38Q97.01 11.38 96.14 11.81Q95.28 12.24 94.62 12.96Q93.96 13.68 93.52 14.59Q93.07 15.50 92.88 16.46L92.88 16.46Q92.62 17.69 92.69 18.91Q92.76 20.14 93.20 21.16Q93.65 22.18 94.50 22.80Q95.35 23.42 96.65 23.42ZM104.33 32.23L104.33 32.23Q103.68 32.23 103.20 32.04Q102.72 31.85 102.46 31.54L102.46 31.54L104.02 29.54Q104.21 29.78 104.47 29.93Q104.74 30.07 105.07 30.07L105.07 30.07Q105.38 30.07 105.67 29.89Q105.96 29.71 106.22 29.12Q106.49 28.54 106.70 27.31L106.70 27.31L108.79 15.55Q109.20 13.25 109.93 11.81Q110.66 10.37 111.56 9.59Q112.46 8.81 113.41 8.52Q114.36 8.23 115.18 8.23L115.18 8.23Q115.92 8.23 116.50 8.42Q117.07 8.62 117.41 9.07L117.41 9.07L115.75 11.09Q115.44 10.73 115.08 10.56Q114.72 10.39 114.24 10.39L114.24 10.39Q113.57 10.39 113.05 10.75Q112.54 11.11 112.15 12.06Q111.77 13.01 111.43 14.83L111.43 14.83L109.32 26.59Q109.01 28.42 108.40 29.53Q107.78 30.65 107.05 31.24Q106.32 31.82 105.60 32.03Q104.88 32.23 104.33 32.23ZM114.43 17.30L106.66 17.02L107.02 15.43L114.91 15.24L114.43 17.30ZM112.39 32.23L112.39 32.23Q111.74 32.23 111.26 32.04Q110.78 31.85 110.52 31.54L110.52 31.54L112.08 29.54Q112.27 29.78 112.54 29.93Q112.80 30.07 113.14 30.07L113.14 30.07Q113.45 30.07 113.74 29.89Q114.02 29.71 114.29 29.12Q114.55 28.54 114.77 27.31L114.77 27.31L116.86 15.55Q117.26 13.25 118.00 11.81Q118.73 10.37 119.63 9.59Q120.53 8.81 121.48 8.52Q122.42 8.23 123.24 8.23L123.24 8.23Q123.98 8.23 124.56 8.42Q125.14 8.62 125.47 9.07L125.47 9.07L123.82 11.09Q123.50 10.73 123.14 10.56Q122.78 10.39 122.30 10.39L122.30 10.39Q121.63 10.39 121.12 10.75Q120.60 11.11 120.22 12.06Q119.83 13.01 119.50 14.83L119.50 14.83L117.38 26.59Q117.07 28.42 116.46 29.53Q115.85 30.65 115.12 31.24Q114.38 31.82 113.66 32.03Q112.94 32.23 112.39 32.23ZM122.50 17.30L114.72 17.02L115.08 15.43L122.98 15.24L122.50 17.30ZM124.63 25.46L124.63 25.46Q124.06 25.46 123.61 25.21Q123.17 24.96 123.00 24.42Q122.83 23.88 123.02 23.02L123.02 23.02L124.82 15.19L127.30 15.19L125.66 22.32Q125.57 22.75 125.63 23.02Q125.69 23.28 126.02 23.28L126.02 23.28Q126.22 23.28 126.44 23.18Q126.67 23.09 127.03 22.82L127.03 22.82L127.85 23.88Q127.03 24.67 126.22 25.07Q125.40 25.46 124.63 25.46ZM126.62 13.03L126.62 13.03Q126.07 13.03 125.70 12.78Q125.33 12.53 125.18 12.10Q125.04 11.66 125.16 11.14L125.16 11.14Q125.30 10.46 125.80 10.03Q126.29 9.60 127.01 9.60L127.01 9.60Q127.56 9.60 127.92 9.86Q128.28 10.13 128.42 10.57Q128.57 11.02 128.45 11.57L128.45 11.57Q128.30 12.24 127.81 12.64Q127.32 13.03 126.62 13.03ZM132.72 25.61L132.72 25.61Q131.42 25.61 130.54 25.00Q129.65 24.38 129.30 23.28Q128.95 22.18 129.24 20.71L129.24 20.71Q129.55 19.15 130.45 17.83Q131.35 16.51 132.65 15.70Q133.94 14.88 135.46 14.88L135.46 14.88Q136.27 14.88 136.92 15.16Q137.57 15.43 137.95 16.01L137.95 16.01L136.15 17.71Q135.84 17.30 135.47 17.15Q135.10 16.99 134.71 16.99L134.71 16.99Q133.92 16.99 133.34 17.52Q132.77 18.05 132.42 18.86Q132.07 19.68 131.90 20.52L131.90 20.52Q131.62 21.98 131.99 22.79Q132.36 23.59 133.30 23.59L133.30 23.59Q133.97 23.59 134.58 23.34Q135.19 23.09 135.60 22.73L135.60 22.73L136.56 24Q135.82 24.70 134.81 25.15Q133.80 25.61 132.72 25.61ZM141.67 25.61L141.67 25.61Q140.35 25.61 139.45 25.00Q138.55 24.38 138.22 23.28Q137.88 22.18 138.19 20.71L138.19 20.71Q138.53 19.15 139.49 17.83Q140.45 16.51 141.82 15.70Q143.18 14.88 144.77 14.88L144.77 14.88Q145.82 14.88 146.41 15.25Q147.00 15.62 147.19 16.26Q147.38 16.90 147.22 17.66L147.22 17.66Q146.93 18.96 145.86 19.74Q144.79 20.52 143.30 20.92Q141.82 21.31 140.26 21.48L140.26 21.48L140.38 19.94Q141.58 19.75 142.54 19.44Q143.50 19.13 144.11 18.71Q144.72 18.29 144.84 17.81L144.84 17.81Q144.91 17.59 144.86 17.33Q144.82 17.06 144.59 16.87Q144.36 16.68 143.88 16.68L143.88 16.68Q143.06 16.68 142.44 17.24Q141.82 17.81 141.41 18.68Q141.00 19.56 140.78 20.52L140.78 20.52Q140.57 21.46 140.63 22.15Q140.69 22.85 141.08 23.22Q141.48 23.59 142.22 23.59L142.22 23.59Q142.78 23.59 143.50 23.35Q144.22 23.11 144.89 22.58L144.89 22.58L145.78 23.93Q145.20 24.43 144.53 24.82Q143.86 25.20 143.14 25.40Q142.42 25.61 141.67 25.61ZM162.62 9.26L164.90 9.50L161.66 25.30L159.07 25.30L162.05 11.50L163.32 11.45L155.38 20.52L154.75 19.27L164.76 19.27L164.28 21.55L153.82 21.55L153.19 19.87L162.62 9.26ZM170.16 25.61L170.16 25.61Q168.58 25.61 167.60 24.58Q166.63 23.54 166.38 21.70Q166.13 19.85 166.66 17.40L166.66 17.40Q167.18 14.93 168.25 13.09Q169.32 11.26 170.76 10.22Q172.20 9.19 173.83 9.19L173.83 9.19Q175.44 9.19 176.40 10.22Q177.36 11.26 177.61 13.09Q177.86 14.93 177.34 17.38L177.34 17.38Q176.81 19.85 175.73 21.71Q174.65 23.57 173.22 24.59Q171.79 25.61 170.16 25.61ZM170.88 23.23L170.88 23.23Q171.60 23.23 172.26 22.50Q172.92 21.77 173.46 20.47Q174.00 19.18 174.36 17.47L174.36 17.47Q174.77 15.65 174.72 14.33Q174.67 13.01 174.26 12.29Q173.86 11.57 173.11 11.57L173.11 11.57Q172.39 11.57 171.73 12.29Q171.07 13.01 170.54 14.30Q170.02 15.60 169.63 17.30L169.63 17.30Q169.25 19.13 169.28 20.46Q169.32 21.79 169.74 22.51Q170.16 23.23 170.88 23.23ZM182.57 25.61L182.57 25.61Q180.98 25.61 180.01 24.58Q179.04 23.54 178.79 21.70Q178.54 19.85 179.06 17.40L179.06 17.40Q179.59 14.93 180.66 13.09Q181.73 11.26 183.17 10.22Q184.61 9.19 186.24 9.19L186.24 9.19Q187.85 9.19 188.81 10.22Q189.77 11.26 190.02 13.09Q190.27 14.93 189.74 17.38L189.74 17.38Q189.22 19.85 188.14 21.71Q187.06 23.57 185.63 24.59Q184.20 25.61 182.57 25.61ZM183.29 23.23L183.29 23.23Q184.01 23.23 184.67 22.50Q185.33 21.77 185.87 20.47Q186.41 19.18 186.77 17.47L186.77 17.47Q187.18 15.65 187.13 14.33Q187.08 13.01 186.67 12.29Q186.26 11.57 185.52 11.57L185.52 11.57Q184.80 11.57 184.14 12.29Q183.48 13.01 182.95 14.30Q182.42 15.60 182.04 17.30L182.04 17.30Q181.66 19.13 181.69 20.46Q181.73 21.79 182.15 22.51Q182.57 23.23 183.29 23.23ZM197.98 25.46L197.98 25.46Q197.40 25.46 196.96 25.21Q196.51 24.96 196.34 24.42Q196.18 23.88 196.37 23.02L196.37 23.02L198.17 15.19L200.64 15.19L199.01 22.32Q198.91 22.75 198.97 23.02Q199.03 23.28 199.37 23.28L199.37 23.28Q199.56 23.28 199.79 23.18Q200.02 23.09 200.38 22.82L200.38 22.82L201.19 23.88Q200.38 24.67 199.56 25.07Q198.74 25.46 197.98 25.46ZM199.97 13.03L199.97 13.03Q199.42 13.03 199.04 12.78Q198.67 12.53 198.53 12.10Q198.38 11.66 198.50 11.14L198.50 11.14Q198.65 10.46 199.14 10.03Q199.63 9.60 200.35 9.60L200.35 9.60Q200.90 9.60 201.26 9.86Q201.62 10.13 201.77 10.57Q201.91 11.02 201.79 11.57L201.79 11.57Q201.65 12.24 201.16 12.64Q200.66 13.03 199.97 13.03ZM205.54 25.51L205.54 25.51Q204.36 25.51 203.68 24.64Q202.99 23.76 203.38 22.13L203.38 22.13L204.82 16.13L205.87 13.15L208.08 12.67L205.94 21.84Q205.75 22.70 205.92 23.08Q206.09 23.45 206.47 23.45L206.47 23.45Q206.81 23.45 207.30 23.21Q207.79 22.97 208.39 22.54L208.39 22.54L209.28 23.57Q208.37 24.53 207.38 25.02Q206.40 25.51 205.54 25.51ZM210.12 17.16L202.85 17.02L203.23 15.43L210.58 15.24L210.12 17.16ZM213.43 25.51L213.43 25.51Q211.82 25.51 211.19 24.37Q210.55 23.23 210.86 21.60L210.86 21.60Q211.13 20.30 211.91 19.13Q212.69 17.95 213.90 17.04Q215.11 16.13 216.65 15.60Q218.18 15.07 219.96 15.07L219.96 15.07Q220.44 15.07 220.75 15.11Q221.06 15.14 221.33 15.19L221.33 15.19L219.82 22.32Q219.62 23.33 220.18 23.33L220.18 23.33Q220.39 23.33 220.68 23.20Q220.97 23.06 221.30 22.82L221.30 22.82L222.10 23.90Q221.21 24.72 220.50 25.09Q219.79 25.46 219.07 25.46L219.07 25.46Q218.50 25.46 218.08 25.22Q217.66 24.98 217.50 24.47Q217.34 23.95 217.54 23.09L217.54 23.09L218.33 19.46L219.62 18.65Q219.26 20.23 218.60 21.50Q217.94 22.78 217.10 23.68Q216.26 24.58 215.32 25.04Q214.37 25.51 213.43 25.51ZM214.46 23.35L214.46 23.35Q215.04 23.35 215.63 22.97Q216.22 22.58 216.73 21.92Q217.25 21.26 217.64 20.41Q218.04 19.56 218.23 18.62L218.23 18.62L218.71 16.25L220.03 17.28Q219.82 17.23 219.60 17.22Q219.38 17.21 219.17 17.21L219.17 17.21Q217.92 17.21 216.94 17.53Q215.95 17.86 215.24 18.43Q214.54 19.01 214.09 19.81Q213.65 20.62 213.48 21.60L213.48 21.60Q213.31 22.63 213.62 22.99Q213.94 23.35 214.46 23.35ZM225.26 25.46L225.26 25.46Q224.66 25.46 224.23 25.22Q223.80 24.98 223.64 24.46Q223.49 23.93 223.66 23.09L223.66 23.09L226.92 8.23L229.39 8.23L226.30 22.32Q226.20 22.75 226.26 23.02Q226.32 23.28 226.66 23.28L226.66 23.28Q226.85 23.28 227.08 23.18Q227.30 23.09 227.66 22.82L227.66 22.82L228.48 23.88Q227.66 24.67 226.85 25.07Q226.03 25.46 225.26 25.46ZM231.74 25.46L231.74 25.46Q231.17 25.46 230.72 25.21Q230.28 24.96 230.11 24.42Q229.94 23.88 230.14 23.02L230.14 23.02L231.94 15.19L234.41 15.19L232.78 22.32Q232.68 22.75 232.74 23.02Q232.80 23.28 233.14 23.28L233.14 23.28Q233.33 23.28 233.56 23.18Q233.78 23.09 234.14 22.82L234.14 22.82L234.96 23.88Q234.14 24.67 233.33 25.07Q232.51 25.46 231.74 25.46ZM233.74 13.03L233.74 13.03Q233.18 13.03 232.81 12.78Q232.44 12.53 232.30 12.10Q232.15 11.66 232.27 11.14L232.27 11.14Q232.42 10.46 232.91 10.03Q233.40 9.60 234.12 9.60L234.12 9.60Q234.67 9.60 235.03 9.86Q235.39 10.13 235.54 10.57Q235.68 11.02 235.56 11.57L235.56 11.57Q235.42 12.24 234.92 12.64Q234.43 13.03 233.74 13.03ZM239.83 25.61L239.83 25.61Q238.54 25.61 237.65 25.00Q236.76 24.38 236.41 23.28Q236.06 22.18 236.35 20.71L236.35 20.71Q236.66 19.15 237.56 17.83Q238.46 16.51 239.76 15.70Q241.06 14.88 242.57 14.88L242.57 14.88Q243.38 14.88 244.03 15.16Q244.68 15.43 245.06 16.01L245.06 16.01L243.26 17.71Q242.95 17.30 242.58 17.15Q242.21 16.99 241.82 16.99L241.82 16.99Q241.03 16.99 240.46 17.52Q239.88 18.05 239.53 18.86Q239.18 19.68 239.02 20.52L239.02 20.52Q238.73 21.98 239.10 22.79Q239.47 23.59 240.41 23.59L240.41 23.59Q241.08 23.59 241.69 23.34Q242.30 23.09 242.71 22.73L242.71 22.73L243.67 24Q242.93 24.70 241.92 25.15Q240.91 25.61 239.83 25.61Z"/></svg>