<svg xmlns="http://www.w3.org/2000/svg" xmlns:xlink="http://www.w3.org/1999/xlink" width="109.584" height="28.8"><path fill="black" d="M13.22 21.60L6.07 21.60Q4.37 21.60 3.41 21.12Q2.45 20.64 2.06 19.68Q1.68 18.72 1.68 17.30L1.68 17.30L1.68 11.95Q1.68 9.65 2.71 8.56Q3.74 7.46 6.07 7.46L6.07 7.46L13.30 7.46Q14.95 7.46 15.83 7.64Q16.70 7.82 16.70 8.02L16.70 8.02L16.22 10.01Q15.82 9.94 13.81 9.85Q11.81 9.77 7.99 9.77L7.99 9.77L6.77 9.77Q4.85 9.77 4.85 11.47L4.85 11.47L4.85 17.59Q4.85 18.41 5.27 18.85Q5.69 19.30 6.77 19.30L6.77 19.30L7.75 19.30Q10.06 19.30 11.64 19.26Q13.22 19.22 14.26 19.20L14.26 19.20L14.26 15.94L12.82 15.96L9.67 16.20L9.67 13.85L17.40 13.85L17.40 20.59L17.64 21.10Q17.64 21.29 16.63 21.44Q15.62 21.60 13.22 21.60L13.22 21.60ZM30.07 21.60L23.45 21.60Q21.84 21.60 21.06 20.95Q20.28 20.30 20.28 18.84L20.28 18.84L20.28 13.92Q20.28 13.56 20.34 13.04Q20.40 12.53 20.68 12.02Q20.95 11.52 21.61 11.18Q22.27 10.85 23.45 10.85L23.45 10.85L30.07 10.85Q31.27 10.85 31.92 11.18Q32.57 11.52 32.84 12.02Q33.12 12.53 33.18 13.04Q33.24 13.56 33.24 13.92L33.24 13.92L33.24 18.53Q33.24 18.96 33.18 19.49Q33.12 20.02 32.83 20.50Q32.54 20.98 31.90 21.29Q31.25 21.60 30.07 21.60L30.07 21.60ZM24.36 19.54L24.36 19.54L29.16 19.54Q30.34 19.54 30.34 18.58L30.34 18.58L30.34 13.87Q30.34 12.91 29.16 12.91L29.16 12.91L24.36 12.91Q23.21 12.91 23.21 13.87L23.21 13.87L23.21 18.58Q23.21 19.54 24.36 19.54ZM39.05 21.60L36.12 21.60L36.12 8.30L35.88 6.38L39.05 6.38L39.05 21.60ZM46.06 21.60L44.86 21.60Q43.66 21.60 43.01 21.29Q42.36 20.98 42.08 20.50Q41.81 20.02 41.75 19.49Q41.69 18.96 41.69 18.53L41.69 18.53L41.69 13.92Q41.69 13.56 41.75 13.04Q41.81 12.53 42.08 12.02Q42.36 11.52 43.02 11.18Q43.68 10.85 44.86 10.85L44.86 10.85L46.08 10.85Q48.29 10.85 49.64 10.93Q51 11.02 51.72 11.11L51.72 11.11L51.72 6.38L54.65 6.38L54.65 21.60L52.68 21.60L51.74 21.12Q50.74 21.29 49.32 21.44Q47.90 21.60 46.06 21.60L46.06 21.60ZM45.77 19.54L45.77 19.54L50.98 19.54Q51.48 19.54 51.60 19.42Q51.72 19.30 51.72 18.82L51.72 18.82L51.72 13.08Q50.90 13.03 49.66 12.97Q48.41 12.91 46.99 12.91L46.99 12.91L45.77 12.91Q44.62 12.91 44.62 13.87L44.62 13.87L44.62 18.58Q44.62 19.54 45.77 19.54ZM60.70 21.60L57.77 21.60L57.77 10.85L59.74 10.85L60.34 11.14Q61.03 11.02 62.04 10.93Q63.05 10.85 64.44 10.85L64.44 10.85L65.64 10.85Q66.34 10.85 66.98 11.03Q67.63 11.21 67.94 11.54L67.94 11.54Q68.57 11.23 69.67 11.04Q70.78 10.85 72.55 10.85L72.55 10.85L73.75 10.85Q74.95 10.85 75.60 11.18Q76.25 11.52 76.52 12.02Q76.80 12.53 76.86 13.04Q76.92 13.56 76.92 13.92L76.92 13.92L76.92 21.60L73.99 21.60L73.99 13.87Q73.99 12.91 72.84 12.91L72.84 12.91L69.48 12.91Q69.10 12.91 68.95 13.01Q68.81 13.10 68.81 13.44L68.81 13.44L68.81 21.60L65.88 21.60L65.88 13.87Q65.88 12.91 64.73 12.91L64.73 12.91L61.42 12.91Q60.96 12.91 60.83 13.00Q60.70 13.08 60.70 13.44L60.70 13.44L60.70 21.60ZM83.98 21.60L82.78 21.60Q80.95 21.60 80.14 20.75Q79.32 19.90 79.32 18.41L79.32 18.41Q79.32 16.85 80.17 16.01Q81.02 15.17 82.78 15.17L82.78 15.17L84.00 15.17Q85.80 15.17 87.24 15.26Q88.68 15.36 89.62 15.46L89.62 15.46L89.62 13.87Q89.62 13.66 89.57 13.43Q89.52 13.20 89.28 13.06Q89.04 12.91 88.46 12.91L88.46 12.91L87.26 12.91Q84.65 12.91 82.90 13.00Q81.14 13.08 80.52 13.15L80.52 13.15L80.26 11.33Q80.26 10.99 82.08 10.92Q83.90 10.85 88.18 10.85L88.18 10.85L89.38 10.85Q90.58 10.85 91.22 11.18Q91.87 11.52 92.15 12.02Q92.42 12.53 92.48 13.04Q92.54 13.56 92.54 13.92L92.54 13.92L92.54 21.60L90.58 21.60L89.64 21.12Q88.63 21.29 87.22 21.44Q85.80 21.60 83.98 21.60L83.98 21.60ZM83.40 19.54L83.40 19.54L88.90 19.54Q89.42 19.54 89.52 19.44Q89.62 19.34 89.62 18.84L89.62 18.84L89.62 16.99L83.40 16.99Q82.75 16.99 82.50 17.30Q82.25 17.62 82.25 18.29L82.25 18.29Q82.25 18.96 82.54 19.25Q82.82 19.54 83.40 19.54ZM98.23 21.60L95.30 21.60L95.30 10.85L97.27 10.85L98.23 11.33Q99.24 11.14 100.66 10.99Q102.07 10.85 103.90 10.85L103.90 10.85L105.10 10.85Q106.30 10.85 106.94 11.18Q107.59 11.52 107.87 12.02Q108.14 12.53 108.20 13.04Q108.26 13.56 108.26 13.92L108.26 13.92L108.26 21.60L105.34 21.60L105.34 13.87Q105.34 12.91 104.18 12.91L104.18 12.91L98.95 12.91Q98.50 12.91 98.36 13.00Q98.23 13.08 98.23 13.44L98.23 13.44L98.23 21.60Z"/></svg>