<svg xmlns="http://www.w3.org/2000/svg" xmlns:xlink="http://www.w3.org/1999/xlink" width="345.5999999999999" height="31.2"><path fill="black" d="M11.28 24.60L1.06 24.60L1.25 23.45L5.66 23.45L8.09 9.00L3.67 9.00L3.86 7.85L14.09 7.85L13.90 9.00L9.48 9.00L7.06 23.45L11.47 23.45L11.28 24.60ZM15.62 24.60L18.41 7.85L23.62 7.85Q25.54 7.85 26.53 8.84Q27.53 9.84 27.53 11.59L27.53 11.59Q27.53 13.25 26.71 14.38Q25.90 15.50 24.41 15.91L24.41 15.91L24.41 15.98Q25.56 16.30 26.24 17.10Q26.93 17.90 26.93 19.32L26.93 19.32Q26.93 20.45 26.57 21.42Q26.21 22.39 25.55 23.10Q24.89 23.81 23.95 24.20Q23.02 24.60 21.84 24.60L21.84 24.60L15.62 24.60ZM17.23 23.35L21.60 23.35Q23.18 23.35 24.13 22.63Q25.08 21.91 25.30 20.59L25.30 20.59L25.42 19.85Q25.46 19.61 25.49 19.40Q25.51 19.20 25.51 18.98L25.51 18.98Q25.51 17.93 24.80 17.26Q24.10 16.58 22.68 16.58L22.68 16.58L18.36 16.58L17.23 23.35ZM18.55 15.41L22.56 15.41Q24.05 15.41 24.89 14.70Q25.73 13.99 25.92 12.82L25.92 12.82L26.04 12.07Q26.09 11.83 26.09 11.68Q26.09 11.52 26.09 11.33L26.09 11.33Q26.09 10.25 25.42 9.67Q24.74 9.10 23.42 9.10L23.42 9.10L19.61 9.10L18.55 15.41ZM39.05 24.60L41.50 9.96L41.38 9.96L35.86 19.18L33.43 9.96L33.29 9.96L30.86 24.60L29.57 24.60L32.35 7.85L34.10 7.85L36.29 16.15L36.38 16.15L41.28 7.85L43.13 7.85L40.34 24.60L39.05 24.60ZM60.31 24.60L58.90 24.60L61.68 7.85L67.54 7.85Q69.50 7.85 70.50 8.92Q71.50 9.98 71.50 11.66L71.50 11.66Q71.50 14.26 70.15 15.76Q68.81 17.26 66.26 17.26L66.26 17.26L61.54 17.26L60.31 24.60ZM62.88 9.10L61.73 16.01L66.38 16.01Q67.94 16.01 68.81 15.23Q69.67 14.45 69.86 13.22L69.86 13.22L70.01 12.34Q70.03 12.14 70.06 11.94Q70.08 11.74 70.08 11.52L70.08 11.52Q70.08 10.44 69.40 9.77Q68.71 9.10 67.39 9.10L67.39 9.10L62.88 9.10ZM77.64 24.89L77.64 24.89Q77.02 24.89 76.69 24.55Q76.37 24.22 76.37 23.66L76.37 23.66Q76.37 23.33 76.46 22.87L76.46 22.87L79.32 7.99L74.74 7.99L74.93 6.84L80.90 6.84L77.69 23.50L78.10 23.64L83.59 19.44L84.31 20.28L80.57 23.18Q79.94 23.66 79.51 24Q79.08 24.34 78.74 24.53Q78.41 24.72 78.16 24.80Q77.90 24.89 77.64 24.89ZM93 24.89L93 24.89Q90.70 24.89 89.47 23.56Q88.25 22.22 88.25 19.56L88.25 19.56Q88.25 17.93 88.73 16.54Q89.21 15.14 90.08 14.11Q90.96 13.08 92.17 12.50Q93.38 11.93 94.85 11.93L94.85 11.93Q96.67 11.93 97.79 12.76Q98.90 13.58 98.90 15.12L98.90 15.12Q98.90 15.74 98.60 16.44Q98.30 17.14 97.34 17.74Q96.38 18.34 94.55 18.77Q92.71 19.20 89.66 19.27L89.66 19.27Q89.64 19.46 89.64 19.63Q89.64 19.80 89.64 19.85L89.64 19.85Q89.64 20.64 89.80 21.34Q89.95 22.03 90.35 22.57Q90.74 23.11 91.42 23.42Q92.09 23.74 93.12 23.74L93.12 23.74Q94.56 23.74 95.57 22.99Q96.58 22.25 97.51 20.71L97.51 20.71L98.50 21.31Q97.46 23.11 96.17 24Q94.87 24.89 93 24.89ZM94.70 13.06L94.70 13.06Q92.81 13.06 91.49 14.29Q90.17 15.53 89.83 17.86L89.83 17.86L89.76 18.29Q92.26 18.22 93.78 17.93Q95.30 17.64 96.14 17.20Q96.98 16.75 97.26 16.22Q97.54 15.70 97.54 15.17L97.54 15.17Q97.54 14.28 96.89 13.67Q96.24 13.06 94.70 13.06ZM103.58 24.89L103.58 24.89Q102.46 24.89 101.80 24.18Q101.14 23.47 101.14 21.96L101.14 21.96Q101.14 21.62 101.17 21.23Q101.21 20.83 101.30 20.42L101.30 20.42L102.55 20.35Q102.50 20.69 102.46 21.08Q102.41 21.48 102.41 21.86L102.41 21.86Q102.41 23.81 103.82 23.81L103.82 23.81Q104.76 23.81 105.46 23.05Q106.15 22.30 106.60 21.23Q107.04 20.16 107.26 19.00Q107.47 17.83 107.47 16.99L107.47 16.99Q107.47 16.49 107.40 15.90Q107.33 15.31 107.21 14.75Q107.09 14.18 106.92 13.73Q106.75 13.27 106.58 13.03L106.58 13.03L106.32 13.01L102.41 15.19L101.88 14.38L104.26 12.84Q105.12 12.29 105.54 12.11Q105.96 11.93 106.34 11.93L106.34 11.93Q106.99 11.93 107.40 12.28Q107.81 12.62 108.04 13.21Q108.26 13.80 108.36 14.60Q108.46 15.41 108.53 16.30L108.53 16.30L108.65 16.30Q109.18 14.02 110.16 12.97Q111.14 11.93 112.49 11.93L112.49 11.93Q113.62 11.93 114.28 12.64Q114.94 13.34 114.94 14.86L114.94 14.86Q114.94 15.19 114.90 15.59Q114.86 15.98 114.77 16.39L114.77 16.39L113.52 16.46Q113.57 16.13 113.62 15.73Q113.66 15.34 113.66 14.95L113.66 14.95Q113.66 13.01 112.25 13.01L112.25 13.01Q111.62 13.01 111.11 13.36Q110.59 13.70 110.18 14.28Q109.78 14.86 109.48 15.59Q109.18 16.32 108.98 17.08Q108.79 17.83 108.70 18.56Q108.60 19.30 108.60 19.85L108.60 19.85Q108.60 20.33 108.67 20.90Q108.74 21.48 108.86 22.03Q108.98 22.58 109.14 23.05Q109.30 23.52 109.49 23.76L109.49 23.76L109.78 23.81L113.50 21.43L114.07 22.25L111.89 23.81Q110.90 24.50 110.40 24.70Q109.90 24.89 109.58 24.89L109.58 24.89Q109.01 24.89 108.64 24.54Q108.26 24.19 108.04 23.60Q107.81 23.02 107.70 22.22Q107.59 21.43 107.54 20.52L107.54 20.52L107.42 20.52Q106.90 22.80 105.91 23.84Q104.93 24.89 103.58 24.89ZM139.85 24.60L142.30 9.96L142.18 9.96L136.66 19.18L134.23 9.96L134.09 9.96L131.66 24.60L130.37 24.60L133.15 7.85L134.90 7.85L137.09 16.15L137.18 16.15L142.08 7.85L143.93 7.85L141.14 24.60L139.85 24.60ZM150.36 24.89L150.36 24.89Q149.21 24.89 148.33 24.52Q147.46 24.14 146.88 23.48Q146.30 22.82 146.00 21.90Q145.70 20.98 145.70 19.90L145.70 19.90Q145.70 18.05 146.18 16.57Q146.66 15.10 147.50 14.06Q148.34 13.03 149.51 12.48Q150.67 11.93 152.04 11.93L152.04 11.93Q153.19 11.93 154.07 12.30Q154.94 12.67 155.52 13.33Q156.10 13.99 156.40 14.92Q156.70 15.84 156.70 16.92L156.70 16.92Q156.70 18.77 156.22 20.24Q155.74 21.72 154.90 22.75Q154.06 23.78 152.89 24.34Q151.73 24.89 150.36 24.89ZM150.46 23.71L150.46 23.71Q152.35 23.71 153.52 22.51Q154.68 21.31 155.02 19.20L155.02 19.20L155.23 17.86Q155.30 17.45 155.33 17.18Q155.35 16.92 155.35 16.61L155.35 16.61Q155.35 14.95 154.49 14.03Q153.62 13.10 151.94 13.10L151.94 13.10Q150.05 13.10 148.88 14.30Q147.72 15.50 147.38 17.62L147.38 17.62L147.17 18.96Q147.10 19.37 147.07 19.63Q147.05 19.90 147.05 20.21L147.05 20.21Q147.05 21.86 147.91 22.79Q148.78 23.71 150.46 23.71ZM161.42 24.60L160.08 24.60L162.14 12.22L163.49 12.22L163.01 15.07L163.10 15.07Q163.80 13.61 164.80 12.77Q165.79 11.93 167.33 11.93L167.33 11.93Q168.91 11.93 169.79 12.85Q170.66 13.78 170.66 15.43L170.66 15.43Q170.66 15.77 170.63 16.16Q170.59 16.56 170.52 16.94L170.52 16.94L169.25 24.60L167.90 24.60L169.15 17.09Q169.22 16.68 169.25 16.32Q169.27 15.96 169.27 15.70L169.27 15.70Q169.27 14.45 168.68 13.79Q168.10 13.13 166.92 13.13L166.92 13.13Q165.26 13.13 164.06 14.54L164.06 14.54Q163.70 14.98 163.25 15.71Q162.79 16.44 162.60 17.50L162.60 17.50L161.42 24.60ZM179.16 24.89L179.16 24.89Q178.01 24.89 177.13 24.52Q176.26 24.14 175.68 23.48Q175.10 22.82 174.80 21.90Q174.50 20.98 174.50 19.90L174.50 19.90Q174.50 18.05 174.98 16.57Q175.46 15.10 176.30 14.06Q177.14 13.03 178.31 12.48Q179.47 11.93 180.84 11.93L180.84 11.93Q181.99 11.93 182.87 12.30Q183.74 12.67 184.32 13.33Q184.90 13.99 185.20 14.92Q185.50 15.84 185.50 16.92L185.50 16.92Q185.50 18.77 185.02 20.24Q184.54 21.72 183.70 22.75Q182.86 23.78 181.69 24.34Q180.53 24.89 179.16 24.89ZM179.26 23.71L179.26 23.71Q181.15 23.71 182.32 22.51Q183.48 21.31 183.82 19.20L183.82 19.20L184.03 17.86Q184.10 17.45 184.13 17.18Q184.15 16.92 184.15 16.61L184.15 16.61Q184.15 14.95 183.29 14.03Q182.42 13.10 180.74 13.10L180.74 13.10Q178.85 13.10 177.68 14.30Q176.52 15.50 176.18 17.62L176.18 17.62L175.97 18.96Q175.90 19.37 175.87 19.63Q175.85 19.90 175.85 20.21L175.85 20.21Q175.85 21.86 176.71 22.79Q177.58 23.71 179.26 23.71ZM206.74 15.22L208.73 15.22Q210.55 15.22 211.64 14.42Q212.74 13.63 213.00 12.22L213.00 12.22Q213.05 11.90 213.07 11.70Q213.10 11.50 213.10 11.33L213.10 11.33Q213.10 10.13 212.24 9.46Q211.39 8.78 209.98 8.78L209.98 8.78Q208.46 8.78 207.50 9.40Q206.54 10.01 205.90 11.04L205.90 11.04L204.91 10.27Q205.68 9.10 206.92 8.33Q208.15 7.56 210.12 7.56L210.12 7.56Q211.08 7.56 211.91 7.81Q212.74 8.06 213.32 8.53Q213.91 9.00 214.25 9.68Q214.58 10.37 214.58 11.26L214.58 11.26Q214.58 12.98 213.55 14.18Q212.52 15.38 210.60 15.77L210.60 15.77L210.58 15.86Q211.85 16.06 212.70 16.99Q213.55 17.93 213.55 19.46L213.55 19.46Q213.55 20.64 213.13 21.64Q212.71 22.63 211.93 23.35Q211.15 24.07 210.02 24.48Q208.90 24.89 207.50 24.89L207.50 24.89Q206.45 24.89 205.63 24.67Q204.82 24.46 204.20 24.08Q203.59 23.71 203.15 23.20Q202.70 22.68 202.39 22.08L202.39 22.08L203.54 21.38Q204.07 22.44 205.01 23.05Q205.94 23.66 207.65 23.66L207.65 23.66Q209.47 23.66 210.60 22.81Q211.73 21.96 211.99 20.38L211.99 20.38Q212.04 19.99 212.06 19.76Q212.09 19.54 212.09 19.34L212.09 19.34Q212.09 17.98 211.22 17.20Q210.36 16.42 208.63 16.42L208.63 16.42L206.52 16.42L206.74 15.22ZM222.29 24.89L222.29 24.89Q217.61 24.89 217.61 19.25L217.61 19.25Q217.61 18.05 217.75 16.72Q217.90 15.38 218.24 14.08Q218.59 12.77 219.13 11.59Q219.67 10.42 220.48 9.52Q221.28 8.62 222.36 8.09Q223.44 7.56 224.83 7.56L224.83 7.56Q229.51 7.56 229.51 13.20L229.51 13.20Q229.51 14.40 229.37 15.73Q229.22 17.06 228.88 18.37Q228.53 19.68 227.99 20.86Q227.45 22.03 226.64 22.93Q225.84 23.83 224.76 24.36Q223.68 24.89 222.29 24.89ZM222.36 23.64L222.36 23.64Q224.45 23.64 225.77 22.01Q227.09 20.38 227.57 17.45L227.57 17.45L227.95 15.22Q228.05 14.59 228.08 14.03Q228.12 13.46 228.12 12.98L228.12 12.98Q228.12 10.94 227.33 9.88Q226.54 8.81 224.76 8.81L224.76 8.81Q222.67 8.81 221.35 10.44Q220.03 12.07 219.55 15.00L219.55 15.00L219.17 17.23Q219.07 17.86 219.04 18.42Q219.00 18.98 219.00 19.46L219.00 19.46Q219.00 21.50 219.79 22.57Q220.58 23.64 222.36 23.64ZM223.39 17.30L223.39 17.30Q222.84 17.30 222.60 17.10Q222.36 16.90 222.36 16.61L222.36 16.61Q222.36 16.44 222.43 16.08L222.43 16.08Q222.50 15.65 222.79 15.40Q223.08 15.14 223.73 15.14L223.73 15.14Q224.28 15.14 224.52 15.35Q224.76 15.55 224.76 15.84L224.76 15.84Q224.76 16.01 224.69 16.37L224.69 16.37Q224.62 16.80 224.33 17.05Q224.04 17.30 223.39 17.30ZM236.69 24.89L236.69 24.89Q232.01 24.89 232.01 19.25L232.01 19.25Q232.01 18.05 232.15 16.72Q232.30 15.38 232.64 14.08Q232.99 12.77 233.53 11.59Q234.07 10.42 234.88 9.52Q235.68 8.62 236.76 8.09Q237.84 7.56 239.23 7.56L239.23 7.56Q243.91 7.56 243.91 13.20L243.91 13.20Q243.91 14.40 243.77 15.73Q243.62 17.06 243.28 18.37Q242.93 19.68 242.39 20.86Q241.85 22.03 241.04 22.93Q240.24 23.83 239.16 24.36Q238.08 24.89 236.69 24.89ZM236.76 23.64L236.76 23.64Q238.85 23.64 240.17 22.01Q241.49 20.38 241.97 17.45L241.97 17.45L242.35 15.22Q242.45 14.59 242.48 14.03Q242.52 13.46 242.52 12.98L242.52 12.98Q242.52 10.94 241.73 9.88Q240.94 8.81 239.16 8.81L239.16 8.81Q237.07 8.81 235.75 10.44Q234.43 12.07 233.95 15.00L233.95 15.00L233.57 17.23Q233.47 17.86 233.44 18.42Q233.40 18.98 233.40 19.46L233.40 19.46Q233.40 21.50 234.19 22.57Q234.98 23.64 236.76 23.64ZM237.79 17.30L237.79 17.30Q237.24 17.30 237.00 17.10Q236.76 16.90 236.76 16.61L236.76 16.61Q236.76 16.44 236.83 16.08L236.83 16.08Q236.90 15.65 237.19 15.40Q237.48 15.14 238.13 15.14L238.13 15.14Q238.68 15.14 238.92 15.35Q239.16 15.55 239.16 15.84L239.16 15.84Q239.16 16.01 239.09 16.37L239.09 16.37Q239.02 16.80 238.73 17.05Q238.44 17.30 237.79 17.30ZM267.50 8.90L267.50 8.90Q266.88 8.90 266.64 8.66Q266.40 8.42 266.40 8.14L266.40 8.14Q266.40 8.02 266.42 7.86Q266.45 7.70 266.47 7.58L266.47 7.58Q266.54 7.18 266.82 6.92Q267.10 6.67 267.70 6.67L267.70 6.67Q268.32 6.67 268.56 6.91Q268.80 7.15 268.80 7.44L268.80 7.44Q268.80 7.56 268.78 7.72Q268.75 7.87 268.73 7.99L268.73 7.99Q268.66 8.40 268.38 8.65Q268.10 8.90 267.50 8.90ZM265.27 24.89L265.27 24.89Q264.65 24.89 264.31 24.55Q263.98 24.22 263.98 23.69L263.98 23.69Q263.98 23.52 264.01 23.32Q264.05 23.11 264.10 22.78L264.10 22.78L265.92 13.37L261.26 13.37L261.46 12.22L267.48 12.22L265.30 23.52L265.66 23.66L271.06 19.51L271.78 20.38L268.22 23.11Q267.60 23.59 267.18 23.93Q266.76 24.26 266.42 24.48Q266.09 24.70 265.82 24.79Q265.56 24.89 265.27 24.89ZM279.10 24.89L279.10 24.89Q277.85 24.89 277.85 23.64L277.85 23.64Q277.85 23.30 277.92 22.73L277.92 22.73L279.53 13.37L275.47 13.37L275.66 12.22L278.81 12.22Q279.31 12.22 279.58 12.00Q279.84 11.78 279.94 11.26L279.94 11.26L280.51 7.85L281.78 7.85L281.06 12.22L286.66 12.22L286.46 13.37L280.87 13.37L279.17 23.47L279.50 23.66L285.43 19.90L286.10 20.76L282.05 23.42Q280.90 24.22 280.26 24.55Q279.62 24.89 279.10 24.89ZM293.40 24.89L293.40 24.89Q291.46 24.89 290.47 23.63Q289.49 22.37 289.49 20.11L289.49 20.11Q289.49 18.65 289.82 17.20Q290.16 15.74 290.87 14.57Q291.58 13.39 292.67 12.66Q293.76 11.93 295.25 11.93L295.25 11.93Q296.71 11.93 297.65 12.58Q298.58 13.22 298.97 14.38L298.97 14.38L299.04 14.38L299.40 12.22L300.74 12.22L298.90 23.40L300.72 23.40L300.50 24.60L298.94 24.60Q298.10 24.60 297.79 24.17Q297.48 23.74 297.60 23.06L297.60 23.06L297.82 21.74L297.74 21.74Q297.02 23.16 296.02 24.02Q295.01 24.89 293.40 24.89ZM293.78 23.69L293.78 23.69Q294.55 23.69 295.27 23.41Q295.99 23.14 296.62 22.49L296.62 22.49Q297.17 21.91 297.61 21.11Q298.06 20.30 298.22 19.30L298.22 19.30L298.75 16.20Q298.85 15.58 298.69 15.01Q298.54 14.45 298.14 14.03Q297.74 13.61 297.10 13.37Q296.45 13.13 295.58 13.13L295.58 13.13Q294.65 13.13 293.90 13.46Q293.16 13.80 292.62 14.39Q292.08 14.98 291.72 15.79Q291.36 16.61 291.19 17.57L291.19 17.57L290.93 19.08Q290.88 19.42 290.86 19.69Q290.83 19.97 290.83 20.23L290.83 20.23Q290.83 21.74 291.54 22.72Q292.25 23.69 293.78 23.69ZM308.04 24.89L308.04 24.89Q307.42 24.89 307.09 24.55Q306.77 24.22 306.77 23.66L306.77 23.66Q306.77 23.33 306.86 22.87L306.86 22.87L309.72 7.99L305.14 7.99L305.33 6.84L311.30 6.84L308.09 23.50L308.50 23.64L313.99 19.44L314.71 20.28L310.97 23.18Q310.34 23.66 309.91 24Q309.48 24.34 309.14 24.53Q308.81 24.72 308.56 24.80Q308.30 24.89 308.04 24.89ZM325.10 8.90L325.10 8.90Q324.48 8.90 324.24 8.66Q324.00 8.42 324.00 8.14L324.00 8.14Q324.00 8.02 324.02 7.86Q324.05 7.70 324.07 7.58L324.07 7.58Q324.14 7.18 324.42 6.92Q324.70 6.67 325.30 6.67L325.30 6.67Q325.92 6.67 326.16 6.91Q326.40 7.15 326.40 7.44L326.40 7.44Q326.40 7.56 326.38 7.72Q326.35 7.87 326.33 7.99L326.33 7.99Q326.26 8.40 325.98 8.65Q325.70 8.90 325.10 8.90ZM322.87 24.89L322.87 24.89Q322.25 24.89 321.91 24.55Q321.58 24.22 321.58 23.69L321.58 23.69Q321.58 23.52 321.61 23.32Q321.65 23.11 321.70 22.78L321.70 22.78L323.52 13.37L318.86 13.37L319.06 12.22L325.08 12.22L322.90 23.52L323.26 23.66L328.66 19.51L329.38 20.38L325.82 23.11Q325.20 23.59 324.78 23.93Q324.36 24.26 324.02 24.48Q323.69 24.70 323.42 24.79Q323.16 24.89 322.87 24.89ZM337.63 24.89L337.63 24.89Q336.50 24.89 335.65 24.50Q334.80 24.12 334.22 23.44Q333.65 22.75 333.36 21.80Q333.07 20.86 333.07 19.70L333.07 19.70Q333.07 17.90 333.55 16.46Q334.03 15.02 334.88 14.02Q335.74 13.01 336.88 12.47Q338.02 11.93 339.34 11.93L339.34 11.93Q341.11 11.93 342.12 12.76Q343.13 13.58 343.44 14.81L343.44 14.81L342.29 15.24Q341.95 14.09 341.17 13.60Q340.39 13.10 339.19 13.10L339.19 13.10Q337.42 13.10 336.25 14.24Q335.09 15.38 334.75 17.47L334.75 17.47L334.54 18.82Q334.46 19.22 334.44 19.48Q334.42 19.73 334.42 20.02L334.42 20.02Q334.42 21.74 335.28 22.73Q336.14 23.71 337.78 23.71L337.78 23.71Q338.33 23.71 338.84 23.57Q339.36 23.42 339.89 23.06Q340.42 22.70 340.97 22.09Q341.52 21.48 342.14 20.57L342.14 20.57L343.13 21.12Q342.58 22.01 342.00 22.70Q341.42 23.40 340.76 23.89Q340.10 24.38 339.34 24.64Q338.57 24.89 337.63 24.89Z"/></svg>