<svg xmlns="http://www.w3.org/2000/svg" xmlns:xlink="http://www.w3.org/1999/xlink" width="177.096" height="47.616"><path fill="black" d="M12.07 25.58L12.07 25.58Q11.66 25.61 11.53 25.33Q11.40 25.06 11.50 24.65L11.50 24.65Q11.62 24.26 11.84 24.01Q12.07 23.76 12.48 23.74L12.48 23.74Q14.14 23.69 15.74 23.35Q17.35 23.02 18.74 22.40Q20.14 21.79 21.22 20.89Q22.30 19.99 22.90 18.82Q23.50 17.64 23.50 16.20L23.50 16.20Q23.50 15.12 23.05 14.34Q22.61 13.56 21.79 13.03Q20.98 12.50 19.86 12.24Q18.74 11.98 17.38 11.98L17.38 11.98Q15.72 11.98 13.92 12.37Q12.12 12.77 10.33 13.66Q8.54 14.54 6.89 16.06L6.89 16.06Q6.43 16.49 6.11 16.45Q5.78 16.42 5.45 16.13L5.45 16.13Q5.21 15.89 5.20 15.53Q5.18 15.17 5.54 14.78L5.54 14.78Q6.82 13.49 8.33 12.59Q9.84 11.69 11.45 11.12Q13.06 10.56 14.62 10.30Q16.18 10.03 17.52 10.03L17.52 10.03Q19.56 10.03 21.10 10.48Q22.63 10.92 23.65 11.74Q24.67 12.55 25.19 13.67Q25.70 14.78 25.70 16.15L25.70 16.15Q25.70 17.98 24.96 19.43Q24.22 20.88 22.91 22.00Q21.60 23.11 19.87 23.88Q18.14 24.65 16.15 25.07Q14.16 25.49 12.07 25.58ZM3.67 35.35L3.67 35.35Q2.64 35.35 1.84 34.86Q1.03 34.37 0.49 33.56Q-0.05 32.76-0.24 31.85L-0.24 31.85Q-0.36 31.39-0.25 31.06Q-0.14 30.72 0.34 30.60L0.34 30.60Q0.82 30.46 1.08 30.61Q1.34 30.77 1.49 31.18L1.49 31.18Q1.75 31.90 2.09 32.38Q2.42 32.86 2.83 33.08Q3.24 33.31 3.74 33.31L3.74 33.31Q4.58 33.31 5.18 32.63Q5.78 31.94 6.36 30.14L6.36 30.14L11.26 14.93Q11.38 14.59 11.68 14.44Q11.98 14.28 12.50 14.28L12.50 14.28Q13.06 14.28 13.31 14.44Q13.56 14.59 13.42 15.00L13.42 15.00L8.52 30.24Q8.02 31.75 7.34 32.92Q6.67 34.08 5.77 34.72Q4.87 35.35 3.67 35.35ZM18.41 35.35L18.41 35.35Q17.95 35.35 17.82 35.08Q17.69 34.80 17.78 34.45Q17.88 34.10 18.17 33.83Q18.46 33.55 18.86 33.55L18.86 33.55Q19.49 33.55 20.40 33.08Q21.31 32.62 22.42 31.76Q23.52 30.91 24.72 29.76Q25.92 28.61 27.14 27.25Q28.37 25.90 29.52 24.42Q30.67 22.94 31.67 21.43Q32.66 19.92 33.41 18.46Q34.15 16.99 34.58 15.65Q35.02 14.30 35.02 13.20L35.02 13.20Q35.02 12.84 35.32 12.66Q35.62 12.48 36.02 12.48Q36.43 12.48 36.74 12.66Q37.06 12.84 37.06 13.20L37.06 13.20Q37.06 14.38 36.59 15.80Q36.12 17.23 35.28 18.82Q34.44 20.40 33.32 22.04Q32.21 23.69 30.90 25.31Q29.59 26.93 28.20 28.42Q26.81 29.90 25.43 31.16Q24.05 32.42 22.75 33.37Q21.46 34.32 20.34 34.84Q19.22 35.35 18.41 35.35ZM26.26 35.30L26.26 35.30Q25.32 35.30 24.88 34.92Q24.43 34.54 24.34 33.92Q24.24 33.31 24.37 32.62Q24.50 31.92 24.70 31.27L24.70 31.27L30.05 14.86Q30.86 12.26 31.92 11.10Q32.98 9.94 34.46 9.94L34.46 9.94Q35.26 9.94 35.83 10.34Q36.41 10.75 36.73 11.48Q37.06 12.22 37.06 13.20L37.06 13.20Q37.06 13.66 36.74 13.87Q36.43 14.09 36.02 14.09Q35.62 14.09 35.32 13.87Q35.02 13.66 35.02 13.20L35.02 13.20Q35.02 12.82 34.93 12.52Q34.85 12.22 34.67 12.05Q34.49 11.88 34.18 11.88L34.18 11.88Q33.82 11.88 33.48 12.17Q33.14 12.46 32.80 13.19Q32.45 13.92 31.99 15.26L31.99 15.26L26.45 32.38Q26.33 32.76 26.30 33.01Q26.28 33.26 26.38 33.38Q26.47 33.50 26.66 33.50L26.66 33.50Q26.93 33.50 27.20 33.34Q27.48 33.17 27.76 32.88Q28.03 32.59 28.32 32.23L28.32 32.23Q28.49 31.99 28.69 31.94Q28.90 31.90 29.21 32.11L29.21 32.11Q29.62 32.35 29.66 32.59Q29.71 32.83 29.59 33.10L29.59 33.10Q29.38 33.46 28.91 34.00Q28.44 34.54 27.77 34.92Q27.10 35.30 26.26 35.30ZM35.81 35.35L35.81 35.35Q34.92 35.35 34.26 34.91Q33.60 34.46 33.24 33.64Q32.88 32.81 32.88 31.70L32.88 31.70Q32.88 30.60 33.20 29.35Q33.53 28.10 34.19 26.89Q34.85 25.68 35.80 24.68Q36.74 23.69 37.99 23.09Q39.24 22.49 40.80 22.49L40.80 22.49Q41.52 22.49 42.29 22.69Q43.06 22.90 43.75 23.26L43.75 23.26L43.78 23.16Q43.92 22.78 44.15 22.68Q44.38 22.58 44.81 22.58L44.81 22.58Q45.55 22.58 45.76 22.81Q45.96 23.04 45.79 23.52L45.79 23.52L42.84 32.38Q42.72 32.76 42.70 33.01Q42.67 33.26 42.77 33.38Q42.86 33.50 43.08 33.50L43.08 33.50Q43.34 33.50 43.61 33.34Q43.87 33.17 44.15 32.88Q44.42 32.59 44.71 32.23L44.71 32.23Q44.90 31.99 45.11 31.94Q45.31 31.90 45.62 32.11L45.62 32.11Q46.01 32.35 46.07 32.59Q46.13 32.83 46.01 33.10L46.01 33.10Q45.79 33.46 45.32 34.00Q44.86 34.54 44.18 34.92Q43.51 35.30 42.67 35.30L42.67 35.30Q41.83 35.30 41.40 34.97Q40.97 34.63 40.84 34.12Q40.70 33.60 40.78 33Q40.85 32.40 40.99 31.85L40.99 31.85Q41.02 31.80 41.03 31.74Q41.04 31.68 41.06 31.61L41.06 31.61Q40.10 32.90 39.18 33.74Q38.26 34.58 37.40 34.97Q36.55 35.35 35.81 35.35ZM35.06 31.34L35.06 31.34Q35.06 31.99 35.23 32.46Q35.40 32.93 35.72 33.18Q36.05 33.43 36.48 33.43L36.48 33.43Q37.30 33.43 38.30 32.65Q39.31 31.87 40.39 30.37Q41.47 28.87 42.60 26.74L42.60 26.74L43.20 24.91Q42.46 24.60 41.81 24.49Q41.16 24.38 40.58 24.38L40.58 24.38Q39.50 24.38 38.62 24.85Q37.73 25.32 37.07 26.10Q36.41 26.88 35.96 27.82Q35.52 28.75 35.29 29.68Q35.06 30.60 35.06 31.34ZM56.14 37.27L56.42 35.11Q56.90 34.80 57.38 34.51Q57.86 34.22 58.31 33.97Q58.75 33.72 59.17 33.49Q59.59 33.26 59.93 33.10L59.93 33.10Q60.31 32.93 60.53 33.08Q60.74 33.24 60.83 33.56Q60.91 33.89 60.82 34.20Q60.72 34.51 60.46 34.66L60.46 34.66Q59.98 34.92 59.46 35.23Q58.94 35.54 58.38 35.87Q57.82 36.19 57.25 36.55Q56.69 36.91 56.14 37.27L56.14 37.27ZM49.37 47.95L49.37 47.95Q48.50 47.95 47.83 47.59Q47.16 47.23 46.79 46.62Q46.42 46.01 46.42 45.24L46.42 45.24Q46.42 44.30 46.79 43.38Q47.16 42.46 47.89 41.54Q48.62 40.63 49.68 39.70Q50.74 38.76 52.13 37.75L52.13 37.75Q52.87 37.27 53.63 36.77Q54.38 36.26 55.15 35.76L55.15 35.76L56.66 31.13Q55.97 32.14 55.25 32.92Q54.53 33.70 53.78 34.24Q53.04 34.78 52.28 35.04Q51.53 35.30 50.78 35.30L50.78 35.30Q49.61 35.30 48.95 34.75Q48.29 34.20 48.20 33.13Q48.12 32.06 48.60 30.58L48.60 30.58L51 23.35Q51.17 22.87 51.40 22.73Q51.62 22.58 52.08 22.58L52.08 22.58Q52.82 22.58 53.03 22.81Q53.23 23.04 53.06 23.52L53.06 23.52L50.57 30.98Q50.33 31.68 50.29 32.23Q50.26 32.78 50.54 33.10Q50.83 33.41 51.53 33.41L51.53 33.41Q52.30 33.41 53.20 32.81Q54.10 32.21 55.03 31.13Q55.97 30.05 56.87 28.56Q57.77 27.07 58.54 25.30L58.54 25.30L59.16 23.35Q59.33 22.87 59.56 22.73Q59.78 22.58 60.24 22.58L60.24 22.58Q60.98 22.58 61.19 22.81Q61.39 23.04 61.22 23.52L61.22 23.52L55.37 41.50Q54.82 43.22 54.20 44.46Q53.59 45.70 52.88 46.46Q52.18 47.23 51.31 47.59Q50.45 47.95 49.37 47.95ZM49.68 46.10L49.68 46.10Q50.28 46.10 50.80 45.78Q51.31 45.46 51.74 44.87Q52.18 44.28 52.58 43.40Q52.99 42.53 53.33 41.42L53.33 41.42L54.31 38.38Q53.93 38.64 53.52 38.90Q53.11 39.17 52.70 39.43L52.70 39.43Q51.62 40.25 50.83 40.99Q50.04 41.74 49.54 42.41Q49.03 43.08 48.78 43.70Q48.53 44.33 48.53 44.90L48.53 44.90Q48.53 45.26 48.67 45.53Q48.82 45.79 49.07 45.95Q49.32 46.10 49.68 46.10ZM67.03 35.40L67.03 35.40Q65.93 35.40 65.30 34.94Q64.68 34.49 64.45 33.72Q64.22 32.95 64.32 32.00Q64.42 31.06 64.75 30.07L64.75 30.07L66.41 25.03Q66.50 24.72 66.41 24.52Q66.31 24.31 66.02 24.31L66.02 24.31Q65.76 24.31 65.47 24.47Q65.18 24.62 64.81 25.00Q64.44 25.37 63.94 26.02L63.94 26.02Q63.65 26.33 63.42 26.40Q63.19 26.47 62.78 26.28L62.78 26.28Q62.33 26.02 62.35 25.72Q62.38 25.42 62.54 25.15L62.54 25.15Q63.07 24.41 63.64 23.81Q64.20 23.21 64.90 22.86Q65.59 22.51 66.46 22.51L66.46 22.51Q67.32 22.51 67.78 22.82Q68.23 23.14 68.38 23.64Q68.52 24.14 68.45 24.76Q68.38 25.37 68.21 25.92L68.21 25.92L66.74 30.48Q66.50 31.25 66.41 31.93Q66.31 32.62 66.56 33.05Q66.82 33.48 67.58 33.48L67.58 33.48Q68.23 33.48 68.93 33.04Q69.62 32.59 70.28 31.82Q70.94 31.06 71.51 30.10Q72.07 29.14 72.46 28.10L72.46 28.10L74.02 23.33Q74.14 22.94 74.35 22.75Q74.57 22.56 75.10 22.56L75.10 22.56Q75.89 22.56 76.03 22.79Q76.18 23.02 76.03 23.47L76.03 23.47L74.06 29.86Q73.90 30.34 73.76 30.95Q73.63 31.56 73.67 32.15Q73.70 32.74 73.99 33.11Q74.28 33.48 75 33.48L75 33.48Q75.82 33.48 76.60 32.98Q77.38 32.47 78.04 31.63Q78.70 30.79 79.19 29.76Q79.68 28.73 79.96 27.64Q80.23 26.54 80.23 25.58L80.23 25.58Q80.23 25.32 80.22 25.02Q80.21 24.72 80.17 24.41Q80.14 24.10 80.09 23.78L80.09 23.78Q80.02 23.35 80.10 23.06Q80.18 22.78 80.42 22.63Q80.66 22.49 81.02 22.49L81.02 22.49Q81.48 22.49 81.74 22.75Q82.01 23.02 82.13 23.64L82.13 23.64Q82.20 23.90 82.24 24.18Q82.27 24.46 82.28 24.74Q82.30 25.03 82.30 25.34L82.30 25.34Q82.30 26.59 81.94 27.96Q81.58 29.33 80.89 30.65Q80.21 31.97 79.25 33.05Q78.29 34.13 77.10 34.76Q75.91 35.40 74.52 35.40L74.52 35.40Q73.42 35.40 72.74 34.98Q72.07 34.56 71.80 33.89Q71.52 33.22 71.50 32.42L71.50 32.42Q70.92 33.34 70.22 34.01Q69.53 34.68 68.74 35.04Q67.94 35.40 67.03 35.40ZM79.51 35.35L79.51 35.35Q79.06 35.35 78.90 35.08Q78.74 34.80 78.83 34.45Q78.91 34.10 79.20 33.83Q79.49 33.55 79.94 33.55L79.94 33.55Q80.62 33.55 81.31 33.22Q82.01 32.88 82.76 32.18Q83.52 31.49 84.34 30.41Q85.15 29.33 86.03 27.83Q86.90 26.33 87.84 24.38L87.84 24.38L89.18 25.01Q87.84 27.91 86.64 29.90Q85.44 31.90 84.29 33.10Q83.14 34.30 81.96 34.82Q80.78 35.35 79.51 35.35ZM92.95 35.30L92.95 35.30Q92.04 35.30 91.58 34.98Q91.13 34.66 91.00 34.14Q90.86 33.62 90.94 33.02Q91.01 32.42 91.20 31.92L91.20 31.92Q91.34 31.44 91.63 30.73Q91.92 30.02 92.28 29.17Q92.64 28.32 92.96 27.47Q93.29 26.62 93.50 25.90L93.50 25.90Q93.70 25.20 93.55 24.94Q93.41 24.67 92.95 24.67L92.95 24.67Q92.40 24.67 91.76 24.80Q91.13 24.94 90.49 25.13Q89.86 25.32 89.29 25.45Q88.73 25.58 88.32 25.58L88.32 25.58Q87.26 25.58 86.58 25.20Q85.90 24.82 85.55 24.22Q85.20 23.62 85.20 22.97L85.20 22.97Q85.20 21.86 85.86 21.17Q86.52 20.47 87.65 20.47L87.65 20.47Q88.51 20.47 89.03 20.93Q89.54 21.38 89.69 22.12Q89.83 22.85 89.54 23.69L89.54 23.69Q89.76 23.69 90.25 23.53Q90.74 23.38 91.38 23.16Q92.02 22.94 92.69 22.79Q93.36 22.63 93.91 22.63L93.91 22.63Q94.66 22.63 95.12 22.98Q95.59 23.33 95.71 24.06Q95.83 24.79 95.52 25.99L95.52 25.99Q95.35 26.66 95.02 27.53Q94.68 28.39 94.32 29.30Q93.96 30.22 93.62 31.03Q93.29 31.85 93.10 32.42L93.10 32.42Q92.88 33.07 93 33.29Q93.12 33.50 93.41 33.50L93.41 33.50Q93.67 33.50 93.94 33.34Q94.20 33.17 94.46 32.88Q94.73 32.59 94.99 32.23L94.99 32.23Q95.18 31.99 95.39 31.94Q95.59 31.90 95.90 32.11L95.90 32.11Q96.29 32.35 96.35 32.59Q96.41 32.83 96.29 33.10L96.29 33.10Q96.07 33.46 95.60 34.00Q95.14 34.54 94.46 34.92Q93.79 35.30 92.95 35.30ZM87.98 24L87.98 24Q88.18 23.42 88.16 22.94Q88.15 22.46 87.98 22.18Q87.82 21.89 87.43 21.89L87.43 21.89Q87.07 21.89 86.88 22.13Q86.69 22.37 86.69 22.75L86.69 22.75Q86.69 23.30 87.07 23.65Q87.46 24 87.98 24ZM100.27 35.30L100.27 35.30Q98.86 35.30 98.46 34.24Q98.06 33.17 98.71 31.18L98.71 31.18L101.28 23.35Q101.45 22.87 101.68 22.73Q101.90 22.58 102.36 22.58L102.36 22.58Q103.10 22.58 103.31 22.81Q103.51 23.04 103.34 23.52L103.34 23.52L100.46 32.35Q100.27 32.90 100.34 33.20Q100.42 33.50 100.75 33.50L100.75 33.50Q101.02 33.50 101.26 33.35Q101.50 33.19 101.76 32.90Q102.02 32.62 102.34 32.23L102.34 32.23Q102.53 31.99 102.73 31.94Q102.94 31.90 103.25 32.11L103.25 32.11Q103.63 32.35 103.69 32.59Q103.75 32.83 103.61 33.10L103.61 33.10Q103.18 33.79 102.66 34.30Q102.14 34.80 101.54 35.05Q100.94 35.30 100.27 35.30ZM103.85 18.89L103.85 18.89Q103.37 18.89 103.03 18.58Q102.70 18.26 102.70 17.66L102.70 17.66Q102.70 17.02 103.12 16.44Q103.54 15.86 104.42 15.86L104.42 15.86Q104.93 15.86 105.26 16.16Q105.60 16.46 105.60 17.09L105.60 17.09Q105.60 17.74 105.18 18.31Q104.76 18.89 103.85 18.89ZM108.22 35.30L108.22 35.30Q107.16 35.30 106.61 34.81Q106.06 34.32 106.01 33.40Q105.96 32.47 106.37 31.20L106.37 31.20L108.43 24.86L106.58 24.86Q106.32 24.86 106.22 24.62Q106.13 24.38 106.25 23.90L106.25 23.90Q106.39 23.42 106.63 23.18Q106.87 22.94 107.14 22.94L107.14 22.94L109.06 22.94L110.62 18.19Q110.76 17.71 110.99 17.57Q111.22 17.42 111.70 17.42L111.70 17.42Q112.44 17.42 112.64 17.65Q112.85 17.88 112.68 18.36L112.68 18.36L111.17 22.94L114.19 22.94Q114.46 22.94 114.56 23.17Q114.67 23.40 114.53 23.90L114.53 23.90Q114.41 24.36 114.17 24.61Q113.93 24.86 113.66 24.86L113.66 24.86L110.54 24.86L108.22 31.92Q107.95 32.74 108.07 33.12Q108.19 33.50 108.65 33.50L108.65 33.50Q109.22 33.50 109.85 33.06Q110.47 32.62 111.07 31.85L111.07 31.85Q111.26 31.63 111.49 31.58Q111.72 31.54 112.08 31.78L112.08 31.78Q112.44 31.99 112.49 32.22Q112.54 32.45 112.42 32.66L112.42 32.66Q112.15 33.14 111.56 33.77Q110.98 34.39 110.15 34.85Q109.32 35.30 108.22 35.30ZM119.14 35.40L119.14 35.40Q117.72 35.40 116.78 34.80Q115.85 34.20 115.38 33.18Q114.91 32.16 114.91 30.91L114.91 30.91Q114.91 29.52 115.42 28.03Q115.92 26.54 116.88 25.30Q117.84 24.05 119.24 23.27Q120.65 22.49 122.50 22.49L122.50 22.49Q123.62 22.49 124.39 22.84Q125.16 23.18 125.56 23.81Q125.95 24.43 125.95 25.32L125.95 25.32Q125.95 26.30 125.36 27.10Q124.78 27.89 123.79 28.52Q122.81 29.16 121.52 29.60Q120.24 30.05 118.84 30.34Q117.43 30.62 116.02 30.77L116.02 30.77L116.30 29.06Q117.24 28.97 118.27 28.78Q119.30 28.58 120.29 28.30Q121.27 28.01 122.06 27.60Q122.86 27.19 123.31 26.69Q123.77 26.18 123.77 25.56L123.77 25.56Q123.77 24.94 123.37 24.66Q122.98 24.38 122.26 24.38L122.26 24.38Q121.03 24.38 120.06 25.00Q119.09 25.61 118.43 26.58Q117.77 27.55 117.42 28.67Q117.07 29.78 117.07 30.79L117.07 30.79Q117.07 31.61 117.34 32.22Q117.60 32.83 118.13 33.16Q118.66 33.48 119.42 33.48L119.42 33.48Q120.19 33.48 120.82 33.18Q121.44 32.88 121.99 32.39Q122.54 31.90 123.10 31.32L123.10 31.32Q123.41 30.98 123.77 31.07Q124.13 31.15 124.37 31.42L124.37 31.42Q124.63 31.68 124.68 31.98Q124.73 32.28 124.42 32.64L124.42 32.64Q123.55 33.67 122.66 34.28Q121.78 34.90 120.90 35.15Q120.02 35.40 119.14 35.40ZM138.89 35.40L138.89 35.40Q137.74 35.40 136.82 34.91Q135.91 34.42 135.25 33.58Q134.59 32.74 134.16 31.73L134.16 31.73Q134.04 31.44 134.14 31.12Q134.23 30.79 134.66 30.60L134.66 30.60Q135.05 30.41 135.32 30.49Q135.60 30.58 135.84 30.96L135.84 30.96Q136.51 32.06 137.23 32.71Q137.95 33.36 139.01 33.36L139.01 33.36Q139.90 33.36 140.60 32.89Q141.31 32.42 141.95 31.34Q142.58 30.26 143.16 28.46L143.16 28.46L148.30 12.74Q147.89 12.89 147.53 13.01Q147.17 13.13 146.71 13.13L146.71 13.13Q146.28 13.13 145.91 13.02Q145.54 12.91 145.21 12.77Q144.89 12.62 144.56 12.52Q144.24 12.41 143.88 12.41L143.88 12.41Q143.42 12.41 143.04 12.56Q142.66 12.72 142.22 13.09Q141.79 13.46 141.17 14.06L141.17 14.06Q140.90 14.38 140.60 14.39Q140.30 14.40 139.92 14.14L139.92 14.14Q139.56 13.90 139.50 13.61Q139.44 13.32 139.66 13.03L139.66 13.03Q140.38 12.10 141.11 11.51Q141.84 10.92 142.57 10.66Q143.30 10.39 144 10.39L144 10.39Q144.62 10.39 145.08 10.50Q145.54 10.61 145.90 10.78Q146.26 10.94 146.58 11.05Q146.90 11.16 147.29 11.16L147.29 11.16Q147.86 11.16 148.33 10.93Q148.80 10.70 149.16 10.39L149.16 10.39Q149.42 10.18 149.64 10.10Q149.86 10.03 150.14 10.03L150.14 10.03Q150.70 10.03 150.95 10.20Q151.20 10.37 151.08 10.75L151.08 10.75L145.22 28.75Q144.43 31.27 143.45 32.72Q142.46 34.18 141.34 34.79Q140.21 35.40 138.89 35.40ZM150.96 35.35L150.96 35.35Q149.93 35.35 149.22 34.93Q148.51 34.51 148.16 33.77Q147.82 33.02 147.82 32.11L147.82 32.11Q147.82 30.98 148.25 29.76Q148.68 28.54 149.42 27.24L149.42 27.24Q149.69 26.78 149.98 26.69Q150.26 26.59 150.70 26.81L150.70 26.81Q151.15 26.98 151.26 27.28Q151.37 27.58 151.15 28.03L151.15 28.03Q150.65 29.09 150.29 30.07Q149.93 31.06 149.93 31.92L149.93 31.92Q149.93 32.35 150.06 32.68Q150.19 33 150.47 33.19Q150.74 33.38 151.13 33.38L151.13 33.38Q151.73 33.38 152.33 32.90Q152.93 32.42 153.59 31.40Q154.25 30.38 154.97 28.75Q155.69 27.12 156.53 24.83Q157.37 22.54 158.35 19.51L158.35 19.51L161.18 10.78Q161.30 10.44 161.60 10.27Q161.90 10.10 162.43 10.10L162.43 10.10Q162.89 10.10 163.14 10.32Q163.39 10.54 163.49 11.06L163.49 11.06L167.57 30.77L170.76 21.02Q171.79 17.88 172.70 15.76Q173.62 13.63 174.53 12.37Q175.44 11.11 176.45 10.57Q177.46 10.03 178.73 10.03L178.73 10.03Q179.35 10.03 179.99 10.16Q180.62 10.30 181.26 10.55Q181.90 10.80 182.45 11.18L182.45 11.18Q182.83 11.42 182.90 11.70Q182.98 11.98 182.76 12.43L182.76 12.43Q182.57 12.82 182.29 12.89Q182.02 12.96 181.61 12.77L181.61 12.77Q180.82 12.41 180.06 12.20Q179.30 12.00 178.63 12.00L178.63 12.00Q177.86 12.00 177.19 12.46Q176.52 12.91 175.85 13.96Q175.18 15.00 174.44 16.81Q173.71 18.62 172.82 21.36L172.82 21.36L168.48 34.58Q168.38 34.92 168.08 35.10Q167.78 35.28 167.23 35.28L167.23 35.28Q166.92 35.28 166.72 35.20Q166.51 35.11 166.39 34.81Q166.27 34.51 166.13 33.91L166.13 33.91L162.12 14.52L160.42 19.82Q159.29 23.35 158.32 25.94Q157.34 28.54 156.44 30.35Q155.54 32.16 154.68 33.26Q153.82 34.37 152.90 34.86Q151.99 35.35 150.96 35.35Z"/></svg>