<svg xmlns="http://www.w3.org/2000/svg" xmlns:xlink="http://www.w3.org/1999/xlink" width="160.656" height="24"><path fill="black" d="M7.61 17.47L0.77 17.47L0.77 16.22L2.14 15.96Q2.54 15.89 2.54 15.48L2.54 15.48L2.54 5.78Q2.54 5.38 2.14 5.30L2.14 5.30L0.77 5.04L0.77 3.72L4.10 3.72Q4.87 3.72 5.57 3.67Q6.26 3.62 7.20 3.62L7.20 3.62Q10.13 3.62 11.40 4.46Q12.67 5.30 12.67 7.30L12.67 7.30Q12.67 8.45 12.32 9.18Q11.98 9.91 11.42 10.32Q10.87 10.73 10.24 10.93Q9.60 11.14 9.02 11.28L9.02 11.28L8.18 11.64Q7.56 11.64 6.85 11.64Q6.14 11.64 5.42 11.64L5.42 11.64L5.42 10.32Q5.69 10.39 6.02 10.42Q6.36 10.44 6.68 10.44Q7.01 10.44 7.18 10.44L7.18 10.44Q8.04 10.42 8.62 9.71Q9.19 9.00 9.19 7.44L9.19 7.44Q9.19 6.48 8.94 5.92Q8.69 5.35 8.18 5.10Q7.68 4.85 6.91 4.85L6.91 4.85Q6.62 4.85 6.35 4.87Q6.07 4.90 5.83 4.94L5.83 4.94L5.83 15.53Q5.83 15.91 6.26 15.98L6.26 15.98L7.61 16.22L7.61 17.47ZM14.21 17.47L10.46 17.47Q10.08 17.47 9.78 16.99Q9.48 16.51 9.17 15.72L9.17 15.72L8.28 13.37Q7.94 12.46 7.58 11.92Q7.22 11.38 6.77 11.21L6.77 11.21L8.66 10.75Q9.86 11.04 10.58 11.58Q11.30 12.12 11.81 13.27L11.81 13.27L12.77 15.43Q12.89 15.72 13.02 15.84Q13.15 15.96 13.39 16.01L13.39 16.01L14.21 16.22L14.21 17.47ZM17.93 17.66L17.93 17.66Q16.61 17.66 15.82 16.97Q15.02 16.27 15.02 15.12L15.02 15.12Q15.02 14.16 15.56 13.51Q16.10 12.86 16.99 12.52Q17.88 12.17 18.89 12.12L18.89 12.12L21.17 12L21.17 13.15L19.70 13.25Q18.86 13.27 18.55 13.70Q18.24 14.14 18.24 14.76L18.24 14.76Q18.24 15.36 18.48 15.65Q18.72 15.94 19.27 15.94L19.27 15.94Q19.82 15.94 20.30 15.71Q20.78 15.48 21.10 15.10L21.10 15.10L21.34 15.77Q20.88 16.68 19.99 17.17Q19.10 17.66 17.93 17.66ZM16.03 10.15L15.31 9.53Q15.74 8.40 16.84 7.74Q17.93 7.08 19.70 7.08L19.70 7.08Q21.84 7.08 22.78 8.05Q23.71 9.02 23.71 10.94L23.71 10.94L23.71 15.48Q23.71 15.96 24.17 16.01L24.17 16.01L25.03 16.13L25.03 17.30Q24.67 17.40 24.08 17.52Q23.50 17.64 22.97 17.64L22.97 17.64Q22.06 17.64 21.46 17.24Q20.86 16.85 20.66 15.82L20.66 15.82L20.66 10.99Q20.66 9.94 20.17 9.53Q19.68 9.12 18.77 9.12L18.77 9.12Q17.98 9.12 17.29 9.37Q16.61 9.62 16.03 10.15L16.03 10.15ZM26.28 16.94L26.28 16.94Q26.18 16.25 26.21 15.50Q26.23 14.76 26.33 14.09L26.33 14.09L27.91 14.09L28.27 15.38Q28.39 15.86 28.68 16.08L28.68 16.08Q28.87 16.20 29.21 16.34Q29.54 16.49 30 16.49L30 16.49Q30.65 16.49 31.00 16.13Q31.34 15.77 31.34 15.29L31.34 15.29Q31.34 14.81 30.98 14.50Q30.62 14.18 30.02 13.90Q29.42 13.61 28.68 13.25L28.68 13.25Q27.62 12.70 26.96 12.02Q26.30 11.35 26.30 10.20L26.30 10.20Q26.30 8.83 27.31 7.96Q28.32 7.08 30.43 7.08L30.43 7.08Q31.30 7.08 32.24 7.25Q33.19 7.42 33.86 7.68L33.86 7.68Q33.91 8.30 33.88 9.02Q33.84 9.74 33.72 10.39L33.72 10.39L32.26 10.39L31.87 9.17Q31.80 8.90 31.72 8.77Q31.63 8.64 31.44 8.54L31.44 8.54Q31.20 8.40 30.95 8.33Q30.70 8.26 30.43 8.26L30.43 8.26Q29.90 8.26 29.57 8.56Q29.23 8.86 29.23 9.38L29.23 9.38Q29.23 9.84 29.52 10.15Q29.81 10.46 30.28 10.70Q30.74 10.94 31.30 11.18L31.30 11.18Q32.14 11.54 32.87 11.96Q33.60 12.38 34.04 13.00Q34.49 13.61 34.49 14.57L34.49 14.57Q34.49 16.13 33.24 16.92Q31.99 17.71 30.10 17.71L30.10 17.71Q28.99 17.71 28.01 17.47Q27.02 17.23 26.28 16.94ZM38.62 17.66L38.62 17.66Q37.30 17.66 36.50 16.97Q35.71 16.27 35.71 15.12L35.71 15.12Q35.71 14.16 36.25 13.51Q36.79 12.86 37.68 12.52Q38.57 12.17 39.58 12.12L39.58 12.12L41.86 12L41.86 13.15L40.39 13.25Q39.55 13.27 39.24 13.70Q38.93 14.14 38.93 14.76L38.93 14.76Q38.93 15.36 39.17 15.65Q39.41 15.94 39.96 15.94L39.96 15.94Q40.51 15.94 40.99 15.71Q41.47 15.48 41.78 15.10L41.78 15.10L42.02 15.77Q41.57 16.68 40.68 17.17Q39.79 17.66 38.62 17.66ZM36.72 10.15L36 9.53Q36.43 8.40 37.52 7.74Q38.62 7.08 40.39 7.08L40.39 7.08Q42.53 7.08 43.46 8.05Q44.40 9.02 44.40 10.94L44.40 10.94L44.40 15.48Q44.40 15.96 44.86 16.01L44.86 16.01L45.72 16.13L45.72 17.30Q45.36 17.40 44.77 17.52Q44.18 17.64 43.66 17.64L43.66 17.64Q42.74 17.64 42.14 17.24Q41.54 16.85 41.35 15.82L41.35 15.82L41.35 10.99Q41.35 9.94 40.86 9.53Q40.37 9.12 39.46 9.12L39.46 9.12Q38.66 9.12 37.98 9.37Q37.30 9.62 36.72 10.15L36.72 10.15ZM58.63 7.25L56.16 7.25Q55.61 7.25 55.07 7.30Q54.53 7.34 54.24 7.44L54.24 7.44Q54.00 7.49 53.90 7.58Q53.81 7.68 53.71 7.90L53.71 7.90L52.94 9.96L51.34 9.96Q51.24 8.83 51.29 7.63Q51.34 6.43 51.46 5.38L51.46 5.38L59.83 5.38L60.55 6.94Q59.45 8.45 58.61 10.01Q57.77 11.57 57.26 13.38Q56.76 15.19 56.62 17.47L56.62 17.47L53.76 17.47L53.33 16.99Q53.42 15.12 54.18 13.34Q54.94 11.57 56.11 10.01Q57.29 8.45 58.63 7.25L58.63 7.25ZM66.79 6.48L66.79 6.48Q67.70 6.48 68.10 7.68Q68.50 8.88 68.50 11.81L68.50 11.81Q68.50 13.49 68.32 14.48Q68.14 15.48 67.78 15.92Q67.42 16.37 66.86 16.37L66.86 16.37Q65.98 16.37 65.58 15.13Q65.18 13.90 65.18 10.99L65.18 10.99Q65.18 9.31 65.36 8.33Q65.54 7.34 65.90 6.91Q66.26 6.48 66.79 6.48ZM66.67 17.71L66.67 17.71Q68.23 17.71 69.42 17.03Q70.61 16.34 71.28 14.92Q71.95 13.49 71.95 11.26L71.95 11.26Q71.95 9.46 71.47 8.08Q70.99 6.70 69.91 5.92Q68.83 5.14 67.01 5.14L67.01 5.14Q65.47 5.14 64.27 5.81Q63.07 6.48 62.39 7.90Q61.70 9.31 61.70 11.54L61.70 11.54Q61.70 13.32 62.18 14.72Q62.66 16.13 63.76 16.92Q64.85 17.71 66.67 17.71ZM78.96 6.48L78.96 6.48Q79.87 6.48 80.27 7.68Q80.66 8.88 80.66 11.81L80.66 11.81Q80.66 13.49 80.48 14.48Q80.30 15.48 79.94 15.92Q79.58 16.37 79.03 16.37L79.03 16.37Q78.14 16.37 77.75 15.13Q77.35 13.90 77.35 10.99L77.35 10.99Q77.35 9.31 77.53 8.33Q77.71 7.34 78.07 6.91Q78.43 6.48 78.96 6.48ZM78.84 17.71L78.84 17.71Q80.40 17.71 81.59 17.03Q82.78 16.34 83.45 14.92Q84.12 13.49 84.12 11.26L84.12 11.26Q84.12 9.46 83.64 8.08Q83.16 6.70 82.08 5.92Q81 5.14 79.18 5.14L79.18 5.14Q77.64 5.14 76.44 5.81Q75.24 6.48 74.56 7.90Q73.87 9.31 73.87 11.54L73.87 11.54Q73.87 13.32 74.35 14.72Q74.83 16.13 75.92 16.92Q77.02 17.71 78.84 17.71ZM102.29 17.47L96.79 17.47L96.79 16.22L97.39 16.06Q97.58 16.01 97.68 15.89Q97.78 15.77 97.78 15.55L97.78 15.55L97.78 11.21Q97.78 9.96 97.42 9.46Q97.06 8.95 96.29 8.95L96.29 8.95Q95.78 8.95 95.24 9.16Q94.70 9.36 94.22 9.77L94.22 9.77L94.25 8.88Q94.90 7.97 95.81 7.52Q96.72 7.08 97.87 7.08L97.87 7.08Q99.65 7.08 100.28 8.06Q100.92 9.05 100.92 10.87L100.92 10.87L100.92 15.55Q100.92 15.98 101.33 16.06L101.33 16.06L102.29 16.22L102.29 17.47ZM95.76 17.47L90.29 17.47L90.29 16.22L91.25 16.06Q91.63 15.98 91.63 15.55L91.63 15.55L91.63 9.62Q91.63 9.19 91.25 9.12L91.25 9.12L90.19 8.90L90.19 7.61Q91.10 7.37 92.11 7.25Q93.12 7.13 94.01 7.10L94.01 7.10L94.46 7.49L94.80 9.29L94.80 15.55Q94.80 15.94 95.18 16.06L95.18 16.06L95.76 16.22L95.76 17.47ZM110.02 12.53L110.02 12.53Q110.02 11.02 109.87 10.10Q109.73 9.19 109.36 8.80Q108.98 8.40 108.34 8.40L108.34 8.40Q107.54 8.40 107.15 9.24Q106.75 10.08 106.75 12.26L106.75 12.26Q106.75 13.78 106.91 14.69Q107.06 15.60 107.42 16.01Q107.78 16.42 108.43 16.42L108.43 16.42Q109.22 16.42 109.62 15.56Q110.02 14.71 110.02 12.53ZM103.34 12.50L103.34 12.50Q103.34 10.51 104.03 9.32Q104.71 8.14 105.89 7.61Q107.06 7.08 108.53 7.08L108.53 7.08Q110.06 7.08 111.14 7.64Q112.22 8.21 112.81 9.36Q113.40 10.51 113.40 12.29L113.40 12.29Q113.40 14.30 112.73 15.49Q112.06 16.68 110.89 17.20Q109.73 17.71 108.24 17.71L108.24 17.71Q106.73 17.71 105.62 17.15Q104.52 16.58 103.93 15.43Q103.34 14.28 103.34 12.50ZM118.92 10.63L118.63 10.20Q119.06 9.24 119.60 8.53Q120.14 7.82 120.78 7.44Q121.42 7.06 122.11 7.06L122.11 7.06Q122.40 7.06 122.83 7.14Q123.26 7.22 123.50 7.34L123.50 7.34Q123.60 8.09 123.53 9.14Q123.46 10.20 123.24 11.18L123.24 11.18L121.87 11.18L121.56 10.18Q121.46 9.84 121.31 9.74Q121.15 9.65 120.84 9.65L120.84 9.65Q120.46 9.65 119.93 9.86Q119.40 10.08 118.92 10.63L118.92 10.63ZM118.82 7.46L119.33 10.15L119.33 15.55Q119.33 15.98 119.76 16.06L119.76 16.06L121.22 16.22L121.22 17.47L114.82 17.47L114.82 16.22L115.75 16.06Q116.16 15.98 116.16 15.55L116.16 15.55L116.16 9.60Q116.16 9.17 115.78 9.10L115.78 9.10L114.72 8.88L114.72 7.58Q115.56 7.34 116.53 7.22Q117.50 7.10 118.32 7.08L118.32 7.08L118.82 7.46ZM142.54 17.47L137.09 17.47L137.09 16.22L137.62 16.06Q137.83 15.98 137.93 15.88Q138.02 15.77 138.02 15.55L138.02 15.55L138.02 11.28Q138.02 10.03 137.66 9.49Q137.30 8.95 136.51 8.95L136.51 8.95Q136.06 8.95 135.53 9.14Q135 9.34 134.50 9.77L134.50 9.77L134.47 8.81Q135.12 7.92 136.07 7.50Q137.02 7.08 138.12 7.08L138.12 7.08Q139.90 7.08 140.53 8.09Q141.17 9.10 141.17 10.92L141.17 10.92L141.17 15.55Q141.17 15.98 141.58 16.06L141.58 16.06L142.54 16.22L142.54 17.47ZM130.10 17.47L124.66 17.47L124.66 16.22L125.62 16.06Q126.00 15.98 126.00 15.55L126.00 15.55L126.00 9.62Q126.00 9.19 125.62 9.12L125.62 9.12L124.56 8.90L124.56 7.61Q125.47 7.37 126.48 7.25Q127.49 7.13 128.38 7.10L128.38 7.10L128.83 7.49L129.17 9.26L129.17 15.55Q129.17 15.94 129.53 16.06L129.53 16.06L130.10 16.22L130.10 17.47ZM136.10 17.47L131.09 17.47L131.09 16.22L131.62 16.06Q131.81 15.98 131.92 15.88Q132.02 15.77 132.02 15.55L132.02 15.55L132.02 11.18Q132.02 9.96 131.68 9.46Q131.33 8.95 130.54 8.95L130.54 8.95Q130.08 8.95 129.54 9.14Q129 9.34 128.59 9.74L128.59 9.74L128.59 8.88Q129.19 7.97 130.09 7.52Q130.99 7.08 132.12 7.08L132.12 7.08Q133.90 7.08 134.53 8.06Q135.17 9.05 135.17 10.85L135.17 10.85L135.17 15.55Q135.17 15.91 135.55 16.06L135.55 16.06L136.10 16.22L136.10 17.47ZM146.38 17.66L146.38 17.66Q145.06 17.66 144.26 16.97Q143.47 16.27 143.47 15.12L143.47 15.12Q143.47 14.16 144.01 13.51Q144.55 12.86 145.44 12.52Q146.33 12.17 147.34 12.12L147.34 12.12L149.62 12L149.62 13.15L148.15 13.25Q147.31 13.27 147.00 13.70Q146.69 14.14 146.69 14.76L146.69 14.76Q146.69 15.36 146.93 15.65Q147.17 15.94 147.72 15.94L147.72 15.94Q148.27 15.94 148.75 15.71Q149.23 15.48 149.54 15.10L149.54 15.10L149.78 15.77Q149.33 16.68 148.44 17.17Q147.55 17.66 146.38 17.66ZM144.48 10.15L143.76 9.53Q144.19 8.40 145.28 7.74Q146.38 7.08 148.15 7.08L148.15 7.08Q150.29 7.08 151.22 8.05Q152.16 9.02 152.16 10.94L152.16 10.94L152.16 15.48Q152.16 15.96 152.62 16.01L152.62 16.01L153.48 16.13L153.48 17.30Q153.12 17.40 152.53 17.52Q151.94 17.64 151.42 17.64L151.42 17.64Q150.50 17.64 149.90 17.24Q149.30 16.85 149.11 15.82L149.11 15.82L149.11 10.99Q149.11 9.94 148.62 9.53Q148.13 9.12 147.22 9.12L147.22 9.12Q146.42 9.12 145.74 9.37Q145.06 9.62 144.48 10.15L144.48 10.15ZM158.81 2.16L158.81 15.55Q158.81 15.98 159.22 16.06L159.22 16.06L160.27 16.22L160.27 17.47L154.20 17.47L154.20 16.22L155.26 16.06Q155.66 15.98 155.66 15.58L155.66 15.58L155.66 4.22Q155.66 3.79 155.26 3.72L155.26 3.72L154.13 3.55L154.13 2.33Q155.06 2.06 156.25 1.92Q157.44 1.78 158.40 1.75L158.40 1.75L158.81 2.16Z"/></svg>