<svg xmlns="http://www.w3.org/2000/svg" xmlns:xlink="http://www.w3.org/1999/xlink" width="135.515625" height="36.796875"><path fill="black" d="M21.84 28.54L21.84 28.54Q20.93 29.05 20.24 29.33Q19.55 29.61 19.07 29.74L19.07 29.74Q18.50 29.89 18.12 29.93L18.12 29.93Q17.39 29.93 16.48 29.63Q15.56 29.33 14.62 28.90Q13.68 28.48 12.78 28.00Q11.88 27.52 11.18 27.14L11.18 27.14Q10.35 27.41 9.54 27.56Q8.74 27.70 8.04 27.70L8.04 27.70Q7.32 27.70 6.52 27.49Q5.72 27.27 4.93 26.84Q4.14 26.41 3.41 25.78Q2.68 25.14 2.13 24.30Q1.57 23.46 1.24 22.42Q0.91 21.39 0.91 20.16L0.91 20.16Q0.91 18.67 1.22 17.47Q1.52 16.27 2.04 15.30Q2.57 14.33 3.25 13.60Q3.94 12.87 4.71 12.32Q5.47 11.78 6.27 11.41Q7.07 11.05 7.80 10.83Q8.54 10.61 9.18 10.51Q9.81 10.42 10.24 10.42L10.24 10.42Q11.07 10.42 11.95 10.59Q12.83 10.77 13.67 11.16Q14.51 11.54 15.26 12.16Q16.01 12.77 16.57 13.65Q17.13 14.53 17.46 15.70Q17.79 16.86 17.79 18.34L17.79 18.34Q17.79 19.71 17.46 20.87Q17.12 22.03 16.55 22.98Q15.98 23.93 15.22 24.68Q14.45 25.43 13.58 25.99L13.58 25.99Q14.37 26.50 15.15 26.99Q15.93 27.49 16.72 27.89Q17.51 28.29 18.33 28.54Q19.15 28.78 20.02 28.78L20.02 28.78Q20.41 28.78 20.87 28.72Q21.33 28.66 21.84 28.54ZM15.64 19.05L15.64 19.05Q15.64 17.11 15.09 15.72Q14.54 14.33 13.61 13.44Q12.68 12.55 11.44 12.13Q10.20 11.72 8.81 11.72L8.81 11.72Q8.02 11.72 7.27 11.86Q6.52 12 5.85 12.33Q5.19 12.66 4.65 13.20Q4.10 13.75 3.71 14.56Q3.32 15.38 3.10 16.49Q2.88 17.60 2.88 19.05L2.88 19.05Q2.88 20.36 3.21 21.40Q3.53 22.45 4.07 23.27Q4.62 24.08 5.34 24.67Q6.07 25.25 6.88 25.63Q7.70 26.02 8.55 26.20Q9.40 26.38 10.20 26.38L10.20 26.38Q11.24 26.38 12.22 25.96Q13.21 25.55 13.97 24.66Q14.73 23.78 15.19 22.39Q15.64 21 15.64 19.05ZM32.52 23.43L32.52 24.41Q31.96 24.90 31.59 25.24Q31.23 25.57 31.00 25.77L31.00 25.77Q30.73 26.00 30.57 26.16L30.57 26.16Q30.40 26.33 30.10 26.60Q29.80 26.86 29.46 27.11Q29.11 27.35 28.75 27.52Q28.39 27.69 28.10 27.67L28.10 27.67Q27.62 27.64 27.40 26.82Q27.19 25.99 27.19 24.57L27.19 24.57L27.19 23.45Q26.78 24 26.41 24.44Q26.04 24.88 25.76 25.18L25.76 25.18Q25.43 25.55 25.15 25.83L25.15 25.83Q24.56 26.40 24.06 26.78Q23.55 27.16 23.13 27.38Q22.71 27.59 22.38 27.65Q22.05 27.71 21.81 27.67L21.81 27.67Q21.57 27.62 21.38 27.45Q21.18 27.27 21.04 26.89Q20.89 26.52 20.82 25.92Q20.74 25.31 20.75 24.41L20.75 24.41Q20.77 23.51 20.81 22.61Q20.85 21.71 20.89 20.91Q20.93 20.10 20.98 19.42Q21.04 18.75 21.07 18.29L21.07 18.29Q21.11 17.71 20.95 17.35Q20.79 16.99 20.39 16.99L20.39 16.99Q20.16 16.99 19.86 17.13Q19.57 17.26 19.20 17.57L19.20 17.57Q19.48 17.30 19.85 16.92Q20.23 16.54 20.64 16.18Q21.06 15.83 21.48 15.59Q21.90 15.34 22.27 15.34L22.27 15.34Q22.55 15.34 22.69 15.49Q22.84 15.63 22.90 15.84Q22.97 16.05 22.97 16.29Q22.98 16.54 22.98 16.71L22.98 16.71Q22.98 17.55 22.92 18.38Q22.86 19.21 22.79 20.02Q22.72 20.84 22.66 21.64Q22.61 22.45 22.61 23.26L22.61 23.26Q22.61 23.82 22.66 24.35Q22.71 24.87 22.85 25.25Q22.99 25.64 23.23 25.86Q23.47 26.07 23.85 26.04L23.85 26.04Q24.34 25.99 24.83 25.63Q25.31 25.27 25.75 24.69Q26.18 24.11 26.53 23.37Q26.88 22.63 27.09 21.84L27.09 21.84Q27.12 21.75 27.15 21.62L27.15 21.62Q27.18 21.52 27.22 21.39Q27.26 21.26 27.30 21.09L27.30 21.09Q27.38 19.96 27.50 18.86Q27.62 17.75 27.79 16.65L27.79 16.65L30.07 15.02Q29.64 17.17 29.38 19.14Q29.13 21.11 29.13 23.06L29.13 23.06Q29.13 23.99 29.22 24.56Q29.31 25.14 29.47 25.44Q29.63 25.75 29.85 25.82Q30.07 25.89 30.33 25.80L30.33 25.80Q30.56 25.70 30.88 25.41L30.88 25.41Q31.15 25.16 31.56 24.69Q31.97 24.22 32.52 23.43L32.52 23.43ZM19.13 17.61L19.20 17.57L19.13 17.61ZM38.48 23.79L38.48 23.79L38.23 24.75Q38.03 24.95 37.74 25.25Q37.45 25.55 37.11 25.88Q36.76 26.21 36.39 26.54Q36.01 26.87 35.65 27.13Q35.29 27.39 34.95 27.53Q34.62 27.68 34.36 27.64L34.36 27.64Q33.96 27.59 33.79 27.06Q33.62 26.54 33.62 25.37L33.62 25.37Q33.62 25.16 33.64 24.69Q33.66 24.21 33.69 23.58Q33.71 22.95 33.76 22.19Q33.80 21.43 33.84 20.67Q33.89 19.90 33.94 19.15Q34.00 18.41 34.05 17.79L34.05 17.79Q34.09 17.38 33.89 17.20Q33.69 17.02 33.40 17.02L33.40 17.02Q33.15 17.02 32.88 17.13Q32.61 17.25 32.39 17.45L32.39 17.45Q32.86 16.99 33.22 16.68Q33.59 16.37 33.84 16.17L33.84 16.17Q34.15 15.95 34.36 15.80L34.36 15.80Q34.65 15.62 34.93 15.62Q35.20 15.61 35.42 15.75Q35.64 15.89 35.76 16.16Q35.88 16.43 35.87 16.80L35.87 16.80Q35.86 17.06 35.82 17.63Q35.78 18.20 35.72 18.93Q35.67 19.65 35.61 20.46Q35.54 21.27 35.49 22.02Q35.44 22.77 35.40 23.38Q35.36 23.99 35.34 24.32L35.34 24.32Q35.32 24.98 35.49 25.39Q35.66 25.80 36.04 25.80L36.04 25.80Q36.32 25.80 36.69 25.56Q37.05 25.31 37.42 24.98Q37.78 24.66 38.07 24.32Q38.36 23.98 38.48 23.79ZM34.58 8.16L36.49 6.50Q36.52 7.08 36.46 7.53Q36.41 7.98 36.34 8.30L36.34 8.30Q36.26 8.67 36.14 8.95L36.14 8.95Q36 9.23 35.71 9.56L35.71 9.56Q35.46 9.84 35.03 10.21Q34.61 10.58 33.93 10.99L33.93 10.99Q34.15 10.55 34.28 10.05Q34.41 9.55 34.48 9.13L34.48 9.13Q34.56 8.64 34.58 8.16L34.58 8.16ZM42.18 15.89L42.18 15.89Q42.26 16.10 42.28 16.51Q42.30 16.92 42.30 17.45L42.30 17.45Q42.30 17.82 42.29 18.25Q42.28 18.67 42.26 19.10L42.26 19.10Q42.60 18.61 43.00 18.09Q43.39 17.57 43.83 17.09Q44.27 16.62 44.75 16.22Q45.23 15.82 45.74 15.57Q46.25 15.32 46.79 15.24Q47.32 15.16 47.87 15.34L47.87 15.34Q48.18 15.43 48.37 15.62Q48.56 15.81 48.68 16.08Q48.80 16.36 48.84 16.71Q48.88 17.06 48.88 17.47L48.88 17.47Q48.88 18.39 48.81 19.28Q48.74 20.17 48.65 21.04Q48.56 21.91 48.49 22.78Q48.42 23.65 48.42 24.50L48.42 24.50Q48.42 25.09 48.52 25.43Q48.62 25.77 48.88 25.83L48.88 25.83Q49.14 25.82 49.45 25.61L49.45 25.61Q49.72 25.44 50.10 25.07Q50.47 24.69 50.92 24L50.92 24L50.82 24.89Q50.51 25.24 50.09 25.73Q49.68 26.23 49.22 26.67Q48.77 27.11 48.31 27.40Q47.85 27.69 47.44 27.64L47.44 27.64Q46.99 27.59 46.71 27.13Q46.43 26.68 46.43 25.71L46.43 25.71Q46.43 25.23 46.46 24.58Q46.50 23.93 46.56 23.21Q46.62 22.50 46.68 21.76Q46.75 21.02 46.81 20.36Q46.88 19.69 46.93 19.13Q46.98 18.57 47.00 18.22L47.00 18.22Q47.03 17.87 46.94 17.58Q46.85 17.30 46.67 17.09Q46.49 16.88 46.24 16.76Q46.00 16.65 45.70 16.65L45.70 16.65Q45.39 16.65 45.04 16.81Q44.68 16.97 44.32 17.31L44.32 17.31Q44.14 17.48 43.89 17.79Q43.64 18.11 43.35 18.60Q43.05 19.10 42.73 19.79Q42.41 20.48 42.11 21.41L42.11 21.41Q42.08 21.68 42.07 21.94Q42.06 22.20 42.06 22.42L42.06 22.42Q42.04 22.98 41.99 23.61L41.99 23.61Q41.95 24.15 41.91 24.83Q41.86 25.51 41.80 26.21L41.80 26.21L39.95 27.84Q40.08 25.00 40.18 23.14Q40.28 21.28 40.34 20.20L40.34 20.20Q40.41 18.94 40.45 18.27L40.45 18.27Q40.49 17.48 40.24 17.16Q40.00 16.83 39.63 16.83L39.63 16.83Q39.35 16.83 39.03 17.00Q38.71 17.18 38.41 17.45L38.41 17.45Q38.71 17.12 39.06 16.75Q39.42 16.37 39.82 16.05Q40.22 15.74 40.63 15.53Q41.05 15.32 41.46 15.32L41.46 15.32Q41.72 15.32 41.90 15.45Q42.08 15.59 42.18 15.89ZM58.72 23.54L58.72 23.54L58.48 24.75Q58.21 24.97 57.85 25.31Q57.49 25.64 57.08 26.00Q56.66 26.37 56.21 26.71Q55.77 27.06 55.32 27.30Q54.88 27.54 54.45 27.64Q54.02 27.74 53.66 27.60L53.66 27.60Q53.43 27.52 53.26 27.35Q53.09 27.19 52.97 26.88Q52.86 26.58 52.80 26.10Q52.75 25.63 52.75 24.94L52.75 24.94Q52.75 22.85 52.83 20.89Q52.92 18.93 53.05 16.99L53.05 16.99Q52.56 17.03 52.08 17.12Q51.61 17.20 51.35 17.40L51.35 17.40Q52.09 16.75 52.51 16.19Q52.93 15.63 53.16 15.20L53.16 15.20L53.30 13.05L55.31 11.38L55.07 15.57Q55.32 15.60 55.55 15.60Q55.77 15.60 55.98 15.60L55.98 15.60Q57 15.60 57.87 15.42Q58.75 15.23 59.55 14.93L59.55 14.93Q58.80 15.53 58.12 15.90Q57.43 16.28 56.85 16.51Q56.26 16.73 55.78 16.83Q55.30 16.93 54.97 16.97L54.97 16.97Q54.86 19.08 54.79 20.38Q54.73 21.69 54.69 22.41L54.69 22.41Q54.64 23.25 54.64 23.64L54.64 23.64Q54.61 24.21 54.71 24.66Q54.82 25.10 55.04 25.39Q55.25 25.69 55.56 25.80Q55.88 25.92 56.25 25.83L56.25 25.83Q56.54 25.73 56.93 25.45L56.93 25.45Q57.26 25.22 57.71 24.77Q58.16 24.32 58.72 23.54ZM51.28 17.45L51.35 17.40L51.28 17.45ZM66.28 22.73L66.28 24.02Q65.66 24.73 65.14 25.26Q64.62 25.79 64.22 26.16L64.22 26.16Q63.75 26.58 63.38 26.88L63.38 26.88Q62.34 27.70 61.58 27.70L61.58 27.70Q61.15 27.70 60.84 27.47Q60.53 27.25 60.30 26.88Q60.08 26.52 59.94 26.06Q59.80 25.61 59.72 25.14Q59.65 24.68 59.62 24.26Q59.59 23.84 59.59 23.54L59.59 23.54Q59.59 22.76 59.77 21.84Q59.95 20.93 60.30 20.02Q60.64 19.11 61.15 18.28Q61.65 17.44 62.30 16.79Q62.95 16.14 63.73 15.75Q64.51 15.36 65.41 15.36L65.41 15.36Q65.66 15.36 65.82 15.45Q65.99 15.54 66.09 15.69Q66.20 15.84 66.24 16.03Q66.28 16.22 66.28 16.42L66.28 16.42Q66.28 16.93 66.05 17.45Q65.81 17.96 65.42 18.46Q65.03 18.96 64.52 19.44Q64.02 19.91 63.47 20.34Q62.93 20.77 62.39 21.14Q61.85 21.52 61.41 21.82L61.41 21.82L61.41 22.08Q61.41 22.37 61.44 22.79Q61.46 23.20 61.54 23.65Q61.62 24.11 61.75 24.55Q61.88 25.00 62.07 25.35Q62.27 25.70 62.55 25.92Q62.82 26.13 63.19 26.13L63.19 26.13Q63.35 26.13 63.53 26.08Q63.70 26.03 63.88 25.90L63.88 25.90Q64.18 25.65 64.57 25.22L64.57 25.22Q64.90 24.84 65.33 24.25Q65.77 23.65 66.28 22.73L66.28 22.73ZM64.10 17.11L64.10 17.11Q63.96 16.95 63.74 16.90Q63.52 16.85 63.26 16.92Q63.01 16.99 62.77 17.19Q62.53 17.39 62.37 17.72L62.37 17.72Q62.13 18.19 61.85 19.06Q61.57 19.93 61.45 21.07L61.45 21.07Q61.83 20.85 62.23 20.55Q62.63 20.26 62.99 19.93Q63.36 19.61 63.66 19.25Q63.96 18.89 64.13 18.52Q64.30 18.15 64.31 17.79Q64.32 17.44 64.10 17.11ZM73.86 15.75L73.86 15.75Q73.80 15.89 73.59 16.10L73.59 16.10Q73.42 16.29 73.07 16.59Q72.73 16.89 72.11 17.33L72.11 17.33Q72.12 17.13 72.05 17.00Q71.99 16.86 71.89 16.79L71.89 16.79Q71.79 16.71 71.66 16.68L71.66 16.68Q70.91 16.54 70.48 16.68L70.48 16.68Q70.37 16.72 70.32 16.90Q70.27 17.09 70.27 17.36L70.27 17.36Q70.27 18 70.51 18.51Q70.75 19.02 71.11 19.46Q71.47 19.90 71.89 20.30Q72.32 20.70 72.68 21.11Q73.04 21.53 73.28 21.98Q73.52 22.44 73.52 22.99L73.52 22.99Q73.52 23.46 73.33 23.96Q73.14 24.46 72.74 24.87L72.74 24.87Q72.40 25.22 72.01 25.59Q71.61 25.97 71.20 26.31Q70.78 26.65 70.35 26.93Q69.91 27.21 69.49 27.39L69.49 27.39Q68.78 27.64 68.12 27.64L68.12 27.64Q67.68 27.64 67.35 27.52Q67.02 27.39 66.95 27.12L66.95 27.12Q66.89 26.91 67.08 26.60Q67.27 26.29 67.55 25.97Q67.83 25.66 68.14 25.39Q68.45 25.11 68.63 24.96L68.63 24.96Q68.60 25.52 68.89 25.76Q69.18 26.00 69.81 26.04L69.81 26.04Q70.13 26.06 70.48 26.00Q70.83 25.93 71.13 25.80Q71.43 25.66 71.62 25.45Q71.81 25.24 71.80 24.96L71.80 24.96Q71.78 24.30 71.53 23.76Q71.27 23.21 70.90 22.73Q70.54 22.24 70.12 21.78Q69.70 21.32 69.35 20.84Q68.99 20.36 68.75 19.82Q68.51 19.28 68.51 18.64L68.51 18.64Q68.51 18.38 68.57 18.13Q68.63 17.88 68.78 17.66L68.78 17.66Q69.05 17.26 69.52 16.83Q69.98 16.39 70.51 16.03Q71.04 15.67 71.55 15.42Q72.07 15.16 72.45 15.12L72.45 15.12Q72.81 15.07 73.10 15.11Q73.38 15.15 73.57 15.25Q73.76 15.34 73.83 15.47Q73.91 15.61 73.86 15.75ZM81.35 15.75L81.35 15.75Q81.29 15.89 81.08 16.10L81.08 16.10Q80.91 16.29 80.56 16.59Q80.21 16.89 79.59 17.33L79.59 17.33Q79.61 17.13 79.54 17.00Q79.48 16.86 79.38 16.79L79.38 16.79Q79.28 16.71 79.15 16.68L79.15 16.68Q78.40 16.54 77.96 16.68L77.96 16.68Q77.86 16.72 77.81 16.90Q77.75 17.09 77.75 17.36L77.75 17.36Q77.75 18 77.99 18.51Q78.23 19.02 78.60 19.46Q78.96 19.90 79.38 20.30Q79.80 20.70 80.17 21.11Q80.53 21.53 80.77 21.98Q81.01 22.44 81.01 22.99L81.01 22.99Q81.01 23.46 80.82 23.96Q80.63 24.46 80.23 24.87L80.23 24.87Q79.89 25.22 79.49 25.59Q79.10 25.97 78.69 26.31Q78.27 26.65 77.84 26.93Q77.40 27.21 76.98 27.39L76.98 27.39Q76.27 27.64 75.61 27.64L75.61 27.64Q75.16 27.64 74.84 27.52Q74.51 27.39 74.44 27.12L74.44 27.12Q74.38 26.91 74.57 26.60Q74.75 26.29 75.04 25.97Q75.32 25.66 75.63 25.39Q75.94 25.11 76.11 24.96L76.11 24.96Q76.09 25.52 76.38 25.76Q76.66 26.00 77.30 26.04L77.30 26.04Q77.61 26.06 77.96 26.00Q78.32 25.93 78.62 25.80Q78.91 25.66 79.11 25.45Q79.30 25.24 79.29 24.96L79.29 24.96Q79.27 24.30 79.01 23.76Q78.76 23.21 78.39 22.73Q78.02 22.24 77.61 21.78Q77.19 21.32 76.83 20.84Q76.48 20.36 76.24 19.82Q76.00 19.28 76.00 18.64L76.00 18.64Q76.00 18.38 76.05 18.13Q76.11 17.88 76.27 17.66L76.27 17.66Q76.54 17.26 77.00 16.83Q77.47 16.39 78 16.03Q78.53 15.67 79.04 15.42Q79.56 15.16 79.93 15.12L79.93 15.12Q80.30 15.07 80.58 15.11Q80.87 15.15 81.06 15.25Q81.25 15.34 81.32 15.47Q81.40 15.61 81.35 15.75ZM89.46 22.73L89.46 24.02Q88.84 24.73 88.32 25.26Q87.80 25.79 87.40 26.16L87.40 26.16Q86.93 26.58 86.55 26.88L86.55 26.88Q85.52 27.70 84.76 27.70L84.76 27.70Q84.33 27.70 84.02 27.47Q83.71 27.25 83.48 26.88Q83.26 26.52 83.12 26.06Q82.98 25.61 82.90 25.14Q82.83 24.68 82.80 24.26Q82.77 23.84 82.77 23.54L82.77 23.54Q82.77 22.76 82.95 21.84Q83.13 20.93 83.48 20.02Q83.82 19.11 84.33 18.28Q84.83 17.44 85.48 16.79Q86.13 16.14 86.91 15.75Q87.69 15.36 88.59 15.36L88.59 15.36Q88.84 15.36 89.00 15.45Q89.17 15.54 89.27 15.69Q89.38 15.84 89.42 16.03Q89.46 16.22 89.46 16.42L89.46 16.42Q89.46 16.93 89.23 17.45Q88.99 17.96 88.60 18.46Q88.21 18.96 87.70 19.44Q87.20 19.91 86.65 20.34Q86.11 20.77 85.57 21.14Q85.03 21.52 84.59 21.82L84.59 21.82L84.59 22.08Q84.59 22.37 84.62 22.79Q84.64 23.20 84.72 23.65Q84.80 24.11 84.93 24.55Q85.05 25.00 85.25 25.35Q85.45 25.70 85.73 25.92Q86.00 26.13 86.37 26.13L86.37 26.13Q86.53 26.13 86.71 26.08Q86.88 26.03 87.06 25.90L87.06 25.90Q87.36 25.65 87.75 25.22L87.75 25.22Q88.08 24.84 88.51 24.25Q88.95 23.65 89.46 22.73L89.46 22.73ZM87.28 17.11L87.28 17.11Q87.14 16.95 86.92 16.90Q86.70 16.85 86.44 16.92Q86.19 16.99 85.95 17.19Q85.71 17.39 85.55 17.72L85.55 17.72Q85.31 18.19 85.03 19.06Q84.75 19.93 84.63 21.07L84.63 21.07Q85.01 20.85 85.41 20.55Q85.80 20.26 86.17 19.93Q86.54 19.61 86.84 19.25Q87.14 18.89 87.31 18.52Q87.48 18.15 87.49 17.79Q87.50 17.44 87.28 17.11ZM94.28 15.89L94.28 15.89Q94.36 16.10 94.38 16.51Q94.41 16.92 94.41 17.45L94.41 17.45Q94.41 17.82 94.39 18.25Q94.38 18.67 94.36 19.10L94.36 19.10Q94.70 18.61 95.10 18.09Q95.50 17.57 95.94 17.09Q96.38 16.62 96.86 16.22Q97.34 15.82 97.85 15.57Q98.36 15.32 98.89 15.24Q99.42 15.16 99.97 15.34L99.97 15.34Q100.28 15.43 100.47 15.62Q100.66 15.81 100.78 16.08Q100.90 16.36 100.94 16.71Q100.98 17.06 100.98 17.47L100.98 17.47Q100.98 18.39 100.91 19.28Q100.84 20.17 100.75 21.04Q100.66 21.91 100.59 22.78Q100.52 23.65 100.52 24.50L100.52 24.50Q100.52 25.09 100.62 25.43Q100.72 25.77 100.98 25.83L100.98 25.83Q101.24 25.82 101.55 25.61L101.55 25.61Q101.82 25.44 102.20 25.07Q102.57 24.69 103.02 24L103.02 24L102.93 24.89Q102.61 25.24 102.19 25.73Q101.78 26.23 101.33 26.67Q100.88 27.11 100.41 27.40Q99.95 27.69 99.54 27.64L99.54 27.64Q99.09 27.59 98.81 27.13Q98.53 26.68 98.53 25.71L98.53 25.71Q98.53 25.23 98.57 24.58Q98.60 23.93 98.66 23.21Q98.72 22.50 98.78 21.76Q98.85 21.02 98.91 20.36Q98.98 19.69 99.03 19.13Q99.08 18.57 99.11 18.22L99.11 18.22Q99.13 17.87 99.04 17.58Q98.95 17.30 98.77 17.09Q98.59 16.88 98.34 16.76Q98.10 16.65 97.80 16.65L97.80 16.65Q97.49 16.65 97.14 16.81Q96.79 16.97 96.42 17.31L96.42 17.31Q96.25 17.48 95.99 17.79Q95.74 18.11 95.45 18.60Q95.16 19.10 94.83 19.79Q94.51 20.48 94.21 21.41L94.21 21.41Q94.18 21.68 94.17 21.94Q94.16 22.20 94.16 22.42L94.16 22.42Q94.14 22.98 94.09 23.61L94.09 23.61Q94.05 24.15 94.01 24.83Q93.96 25.51 93.90 26.21L93.90 26.21L92.05 27.84Q92.18 25.00 92.28 23.14Q92.38 21.28 92.44 20.20L92.44 20.20Q92.51 18.94 92.55 18.27L92.55 18.27Q92.59 17.48 92.34 17.16Q92.10 16.83 91.73 16.83L91.73 16.83Q91.45 16.83 91.13 17.00Q90.81 17.18 90.52 17.45L90.52 17.45Q90.81 17.12 91.17 16.75Q91.52 16.37 91.92 16.05Q92.32 15.74 92.74 15.53Q93.15 15.32 93.56 15.32L93.56 15.32Q93.82 15.32 94.00 15.45Q94.18 15.59 94.28 15.89ZM110.82 23.54L110.82 23.54L110.58 24.75Q110.31 24.97 109.95 25.31Q109.59 25.64 109.18 26.00Q108.76 26.37 108.32 26.71Q107.87 27.06 107.43 27.30Q106.98 27.54 106.55 27.64Q106.13 27.74 105.76 27.60L105.76 27.60Q105.53 27.52 105.36 27.35Q105.19 27.19 105.08 26.88Q104.96 26.58 104.91 26.10Q104.85 25.63 104.85 24.94L104.85 24.94Q104.85 22.85 104.94 20.89Q105.02 18.93 105.15 16.99L105.15 16.99Q104.66 17.03 104.19 17.12Q103.71 17.20 103.45 17.40L103.45 17.40Q104.19 16.75 104.61 16.19Q105.04 15.63 105.26 15.20L105.26 15.20L105.40 13.05L107.41 11.38L107.17 15.57Q107.43 15.60 107.65 15.60Q107.87 15.60 108.08 15.60L108.08 15.60Q109.10 15.60 109.97 15.42Q110.85 15.23 111.66 14.93L111.66 14.93Q110.91 15.53 110.22 15.90Q109.54 16.28 108.95 16.51Q108.36 16.73 107.88 16.83Q107.40 16.93 107.07 16.97L107.07 16.97Q106.96 19.08 106.89 20.38Q106.83 21.69 106.79 22.41L106.79 22.41Q106.75 23.25 106.75 23.64L106.75 23.64Q106.71 24.21 106.82 24.66Q106.92 25.10 107.14 25.39Q107.36 25.69 107.67 25.80Q107.98 25.92 108.35 25.83L108.35 25.83Q108.64 25.73 109.03 25.45L109.03 25.45Q109.36 25.22 109.81 24.77Q110.26 24.32 110.82 23.54ZM103.38 17.45L103.45 17.40L103.38 17.45ZM117.59 23.79L117.59 23.79L117.33 24.75Q117.13 24.95 116.84 25.25Q116.55 25.55 116.21 25.88Q115.86 26.21 115.49 26.54Q115.11 26.87 114.75 27.13Q114.39 27.39 114.05 27.53Q113.72 27.68 113.46 27.64L113.46 27.64Q113.06 27.59 112.89 27.06Q112.72 26.54 112.72 25.37L112.72 25.37Q112.72 25.16 112.74 24.69Q112.76 24.21 112.79 23.58Q112.82 22.95 112.86 22.19Q112.90 21.43 112.95 20.67Q112.99 19.90 113.04 19.15Q113.10 18.41 113.16 17.79L113.16 17.79Q113.19 17.38 112.99 17.20Q112.79 17.02 112.50 17.02L112.50 17.02Q112.25 17.02 111.98 17.13Q111.71 17.25 111.49 17.45L111.49 17.45Q111.96 16.99 112.32 16.68Q112.69 16.37 112.95 16.17L112.95 16.17Q113.25 15.95 113.46 15.80L113.46 15.80Q113.75 15.62 114.03 15.62Q114.30 15.61 114.52 15.75Q114.74 15.89 114.86 16.16Q114.98 16.43 114.97 16.80L114.97 16.80Q114.96 17.06 114.92 17.63Q114.88 18.20 114.83 18.93Q114.77 19.65 114.71 20.46Q114.64 21.27 114.59 22.02Q114.54 22.77 114.50 23.38Q114.46 23.99 114.45 24.32L114.45 24.32Q114.42 24.98 114.59 25.39Q114.76 25.80 115.14 25.80L115.14 25.80Q115.42 25.80 115.79 25.56Q116.16 25.31 116.52 24.98Q116.88 24.66 117.17 24.32Q117.46 23.98 117.59 23.79ZM113.68 8.16L115.59 6.50Q115.62 7.08 115.56 7.53Q115.51 7.98 115.44 8.30L115.44 8.30Q115.36 8.67 115.24 8.95L115.24 8.95Q115.10 9.23 114.81 9.56L114.81 9.56Q114.56 9.84 114.13 10.21Q113.71 10.58 113.03 10.99L113.03 10.99Q113.25 10.55 113.38 10.05Q113.51 9.55 113.58 9.13L113.58 9.13Q113.66 8.64 113.68 8.16L113.68 8.16ZM129.15 23.47L129.15 24.39Q129.05 24.55 128.86 24.78Q128.67 25.01 128.48 25.23L128.48 25.23Q128.27 25.49 128.03 25.76L128.03 25.76Q127.72 26.13 127.37 26.48Q127.02 26.84 126.67 27.11Q126.33 27.39 126 27.55Q125.67 27.71 125.41 27.70L125.41 27.70Q124.92 27.68 124.73 27.10Q124.55 26.52 124.55 25.42L124.55 25.42Q124.55 24.83 124.58 24.15Q124.62 23.47 124.69 22.63L124.69 22.63Q124.43 23.04 124.20 23.38Q123.96 23.72 123.77 23.98L123.77 23.98Q123.56 24.28 123.35 24.53L123.35 24.53Q122.73 25.29 122.15 25.88Q121.57 26.46 121.08 26.86Q120.60 27.26 120.23 27.47Q119.86 27.68 119.65 27.70L119.65 27.70Q119.44 27.73 119.14 27.56Q118.84 27.40 118.57 26.93Q118.30 26.46 118.11 25.62Q117.91 24.77 117.93 23.43L117.93 23.43Q117.94 22.08 118.21 21.05Q118.49 20.03 118.93 19.26Q119.37 18.49 119.91 17.94Q120.45 17.38 120.97 16.97L120.97 16.97Q122.06 16.14 123.06 15.64Q124.07 15.14 125.03 15.12L125.03 15.12Q125.34 15.11 125.65 15.13L125.65 15.13Q125.92 15.15 126.23 15.21Q126.54 15.26 126.82 15.36L126.82 15.36L127.16 15.09Q127.09 15.42 127.01 15.98Q126.94 16.55 126.87 17.25Q126.80 17.95 126.73 18.75Q126.66 19.55 126.60 20.35Q126.55 21.15 126.50 21.91Q126.46 22.66 126.43 23.29Q126.40 23.91 126.39 24.34Q126.39 24.77 126.40 24.94L126.40 24.94Q126.46 25.61 126.71 25.85Q126.96 26.10 127.41 25.80L127.41 25.80Q127.58 25.66 127.84 25.36L127.84 25.36Q128.06 25.10 128.38 24.65Q128.71 24.20 129.15 23.47L129.15 23.47ZM124.91 19.68L125.14 16.92Q124.03 16.78 123.32 16.78L123.32 16.78Q122.55 16.78 121.99 17.03Q121.43 17.27 121.03 17.69Q120.63 18.11 120.38 18.65Q120.12 19.20 119.97 19.80Q119.82 20.41 119.77 21.05Q119.72 21.68 119.72 22.25L119.72 22.25Q119.72 22.45 119.74 22.79Q119.77 23.13 119.83 23.52Q119.89 23.91 119.99 24.30Q120.09 24.70 120.25 25.03Q120.41 25.35 120.62 25.55Q120.83 25.76 121.11 25.76L121.11 25.76Q121.42 25.76 121.86 25.42Q122.30 25.09 122.92 24.29L122.92 24.29Q123.28 23.80 123.64 23.11L123.64 23.11Q123.95 22.52 124.29 21.67Q124.64 20.81 124.91 19.68L124.91 19.68ZM136.02 23.04L135.81 24.36Q135.57 24.67 135.29 25.04Q135 25.41 134.67 25.79Q134.34 26.18 133.98 26.54Q133.62 26.89 133.22 27.17Q132.83 27.45 132.42 27.60Q132.01 27.75 131.60 27.73L131.60 27.73Q131.25 27.69 131.03 27.40Q130.80 27.12 130.68 26.67Q130.55 26.21 130.51 25.63Q130.48 25.04 130.50 24.41L130.50 24.41Q130.51 24.09 130.56 23.29Q130.61 22.49 130.67 21.39Q130.73 20.29 130.81 18.97Q130.89 17.66 130.96 16.31Q131.03 14.96 131.10 13.67Q131.17 12.38 131.22 11.32Q131.27 10.27 131.31 9.53Q131.34 8.80 131.34 8.57L131.34 8.57Q131.34 7.93 131.24 7.58Q131.14 7.23 130.75 7.23L130.75 7.23Q130.36 7.23 129.61 7.58L129.61 7.58Q130.13 7.14 130.50 6.82Q130.88 6.50 131.12 6.30L131.12 6.30Q131.41 6.08 131.60 5.93L131.60 5.93Q131.95 5.64 132.38 5.64L132.38 5.64Q132.74 5.64 133.00 5.91Q133.27 6.18 133.22 6.75L133.22 6.75Q133.21 6.97 133.17 7.71Q133.13 8.44 133.08 9.51Q133.03 10.58 132.97 11.90Q132.90 13.22 132.84 14.62Q132.79 16.02 132.72 17.41Q132.66 18.80 132.61 19.99Q132.56 21.19 132.53 22.11Q132.50 23.04 132.49 23.52L132.49 23.52Q132.48 24.18 132.56 24.64Q132.64 25.11 132.79 25.41Q132.93 25.70 133.13 25.83Q133.32 25.97 133.55 25.97L133.55 25.97Q133.82 25.97 134.09 25.80Q134.36 25.64 134.60 25.38Q134.85 25.13 135.07 24.80Q135.29 24.47 135.48 24.14Q135.67 23.81 135.80 23.52Q135.94 23.23 136.02 23.04L136.02 23.04Z"/></svg>