<svg xmlns="http://www.w3.org/2000/svg" xmlns:xlink="http://www.w3.org/1999/xlink" width="185.99999999999997" height="38.256"><path fill="black" d="M2.54 25.03L2.52 25.03Q2.18 25.03 1.74 24.47Q1.30 23.90 1.30 23.29Q1.30 22.68 2.86 16.63Q4.42 10.58 4.42 9.05L4.42 9.05Q4.42 8.62 4.51 8.45Q4.61 8.28 4.96 8.28Q5.30 8.28 5.78 9.02Q6.26 9.77 6.26 10.73Q6.26 11.69 5.02 16.42L5.02 16.42Q7.20 13.44 9.62 10.93Q12.05 8.42 12.70 8.42L12.70 8.42Q13.18 8.42 13.60 8.74Q14.02 9.05 14.02 9.35Q14.02 9.65 12.88 10.69Q11.74 11.74 9.82 13.61Q7.90 15.48 6.53 17.35L6.53 17.35Q6.53 18.34 7.06 19.49L7.06 19.49Q7.90 21.41 10.51 22.68L10.51 22.68Q11.64 23.23 12.28 23.62Q12.91 24 12.91 24.41L12.91 24.41Q12.91 25.03 11.98 25.03Q11.04 25.03 10.01 24.64Q8.98 24.24 7.94 23.52Q6.91 22.80 6.06 21.61Q5.21 20.42 4.90 19.01L4.90 19.01Q4.15 20.33 3.50 22.49L3.50 22.49Q2.71 25.03 2.54 25.03L2.54 25.03ZM21.31 13.25Q22.39 13.25 23.30 14.34Q24.22 15.43 24.22 16.31Q24.22 17.18 23.62 18.10L23.62 18.10Q23.90 18.46 23.90 18.72L23.90 18.72Q23.90 19.39 23.60 21.02Q23.30 22.66 23.24 23.16Q23.18 23.66 23.14 23.96Q23.09 24.26 23.02 24.55L23.02 24.55Q22.92 25.15 22.58 25.15L22.58 25.15Q22.15 25.15 21.88 24.40Q21.60 23.64 21.55 22.44L21.55 22.44Q19.42 25.15 17.59 25.15L17.59 25.15Q16.49 25.15 15.42 24.20Q14.35 23.26 14.35 22.25L14.35 22.25Q14.35 20.81 15.41 18.68Q16.46 16.56 18.14 14.90Q19.82 13.25 21.31 13.25L21.31 13.25ZM22.42 17.50L22.42 17.47Q22.42 15.24 21.53 15.24L21.53 15.24Q20.59 15.24 19.34 16.57Q18.10 17.90 17.23 19.58Q16.37 21.26 16.37 22.25L16.37 22.25Q16.37 22.66 16.70 22.91Q17.04 23.16 17.50 23.16L17.50 23.16Q18.62 23.16 20.04 21.64Q21.46 20.11 22.01 17.93L22.01 17.93Q22.08 17.57 22.42 17.50L22.42 17.50ZM30.91 8.54L30.91 8.54Q30.91 13.06 29.04 20.26L29.04 20.26Q27.84 25.15 27.36 25.15L27.36 25.15Q27.02 25.15 26.58 24.62Q26.14 24.10 26.14 23.81Q26.14 23.52 26.83 20.83Q27.53 18.14 28.22 14.22Q28.92 10.30 28.92 7.15L28.92 7.15Q28.92 6.82 29.02 6.67Q29.11 6.53 29.42 6.53Q29.74 6.53 30.32 7.21Q30.91 7.90 30.91 8.54ZM38.45 13.25Q39.53 13.25 40.44 14.34Q41.35 15.43 41.35 16.31Q41.35 17.18 40.75 18.10L40.75 18.10Q41.04 18.46 41.04 18.72L41.04 18.72Q41.04 19.39 40.74 21.02Q40.44 22.66 40.38 23.16Q40.32 23.66 40.27 23.96Q40.22 24.26 40.15 24.55L40.15 24.55Q40.06 25.15 39.72 25.15L39.72 25.15Q39.29 25.15 39.01 24.40Q38.74 23.64 38.69 22.44L38.69 22.44Q36.55 25.15 34.73 25.15L34.73 25.15Q33.62 25.15 32.56 24.20Q31.49 23.26 31.49 22.25L31.49 22.25Q31.49 20.81 32.54 18.68Q33.60 16.56 35.28 14.90Q36.96 13.25 38.45 13.25L38.45 13.25ZM39.55 17.50L39.55 17.47Q39.55 15.24 38.66 15.24L38.66 15.24Q37.73 15.24 36.48 16.57Q35.23 17.90 34.37 19.58Q33.50 21.26 33.50 22.25L33.50 22.25Q33.50 22.66 33.84 22.91Q34.18 23.16 34.63 23.16L34.63 23.16Q35.76 23.16 37.18 21.64Q38.59 20.11 39.14 17.93L39.14 17.93Q39.22 17.57 39.55 17.50L39.55 17.50ZM58.85 13.25L58.85 13.25Q59.57 13.25 60.13 14.24Q60.70 15.24 60.70 16.50Q60.70 17.76 60.25 19.78Q59.81 21.79 59.06 23.47Q58.32 25.15 57.60 25.15L57.60 25.15Q57.10 25.15 57.10 24.49Q57.10 23.83 57.92 21.25Q58.75 18.67 58.75 17.15Q58.75 15.62 58.27 15.62L58.27 15.62Q57.67 15.62 56.89 16.68Q56.11 17.74 55.22 19.22Q54.34 20.71 54.26 20.82Q54.19 20.93 54.08 21.12Q53.98 21.31 53.84 21.53Q53.71 21.74 53.17 22.82Q52.63 23.90 52.22 24.52Q51.82 25.13 51.52 25.13Q51.22 25.13 50.86 24.74Q50.50 24.36 50.50 24.02Q50.50 23.69 50.93 22.63L50.93 22.63Q52.18 19.51 52.18 16.82L52.18 16.82Q52.18 16.32 51.96 15.97Q51.74 15.62 51.48 15.62Q51.22 15.62 50.93 15.85Q50.64 16.08 50.21 16.67Q49.78 17.26 49.44 17.78Q49.10 18.31 48.42 19.43Q47.74 20.54 47.39 21.08Q47.04 21.62 46.58 22.33Q46.13 23.04 45.88 23.42Q45.62 23.81 45.31 24.26L45.31 24.26Q44.66 25.15 44.36 25.15Q44.06 25.15 43.58 24.61Q43.10 24.07 43.10 23.80Q43.10 23.52 43.20 23.11Q43.30 22.70 43.40 22.32Q43.51 21.94 43.74 21.18Q43.97 20.42 44.27 19.40Q44.57 18.38 44.72 16.60Q44.88 14.81 44.95 13.98Q45.02 13.15 45.36 13.15L45.36 13.15Q45.89 13.15 46.40 13.70Q46.92 14.26 46.92 14.81L46.92 14.81Q46.92 16.92 45.34 21.77L45.34 21.77Q48.02 16.73 48.72 15.79Q49.42 14.86 49.92 14.28L49.92 14.28Q50.86 13.25 51.82 13.25L51.82 13.25Q52.39 13.25 53.20 14.24Q54 15.24 54 16.25Q54 17.26 53.71 18.74L53.71 18.74Q56.54 13.25 58.85 13.25ZM81.89 12.74L81.89 12.74Q82.27 12.74 82.90 13.31Q83.52 13.87 83.52 14.35L83.52 14.35Q83.52 16.51 82.13 21.16Q80.74 25.80 79.94 25.80L79.94 25.80Q79.68 25.80 79.43 25.45Q79.18 25.10 79.18 24.71Q79.18 24.31 79.39 23.57Q79.61 22.82 80.00 21.60Q80.40 20.38 80.66 19.32L80.66 19.32Q78.38 20.35 76.32 20.35L76.32 20.35Q74.93 20.35 73.98 19.52Q73.03 18.70 73.03 17.23L73.03 17.23Q73.03 16.18 73.84 14.56Q74.64 12.94 75.67 11.56Q76.70 10.18 77.71 9.16Q78.72 8.14 79.12 8.14Q79.51 8.14 79.88 8.42Q80.26 8.71 80.26 9.06Q80.26 9.41 78.98 10.91Q77.71 12.41 76.44 14.23Q75.17 16.06 75.17 17.14L75.17 17.14Q75.17 18.46 76.51 18.46L76.51 18.46Q77.66 18.46 79.36 17.83Q81.05 17.21 81.10 17.18L81.10 17.18Q81.38 15.24 81.38 13.51L81.38 13.51Q81.38 12.74 81.89 12.74ZM93.67 13.80L93.67 13.80Q93.67 10.03 92.57 10.03L92.57 10.03Q92.06 10.03 91.28 11.03Q90.50 12.02 89.77 13.51Q89.04 15 88.52 16.91Q88.01 18.82 88.01 20.42L88.01 20.42Q88.01 23.18 89.47 23.18L89.47 23.18Q90.17 23.18 91.16 21.65Q92.16 20.11 92.92 17.86Q93.67 15.60 93.67 13.80ZM94.91 18.70Q93.98 21.36 92.45 23.22Q90.91 25.08 89.44 25.08Q87.96 25.08 86.87 23.72Q85.78 22.37 85.78 20.69L85.78 20.69Q85.78 17.78 86.84 14.81Q87.91 11.83 89.53 9.95Q91.15 8.06 92.66 8.06Q94.18 8.06 95.00 9.49Q95.83 10.92 95.83 13.48Q95.83 16.03 94.91 18.70ZM105.67 13.80L105.67 13.80Q105.67 10.03 104.57 10.03L104.57 10.03Q104.06 10.03 103.28 11.03Q102.50 12.02 101.77 13.51Q101.04 15 100.52 16.91Q100.01 18.82 100.01 20.42L100.01 20.42Q100.01 23.18 101.47 23.18L101.47 23.18Q102.17 23.18 103.16 21.65Q104.16 20.11 104.92 17.86Q105.67 15.60 105.67 13.80ZM106.91 18.70Q105.98 21.36 104.45 23.22Q102.91 25.08 101.44 25.08Q99.96 25.08 98.87 23.72Q97.78 22.37 97.78 20.69L97.78 20.69Q97.78 17.78 98.84 14.81Q99.91 11.83 101.53 9.95Q103.15 8.06 104.66 8.06Q106.18 8.06 107.00 9.49Q107.83 10.92 107.83 13.48Q107.83 16.03 106.91 18.70ZM121.25 20.98Q123.55 17.06 125.00 15.16Q126.46 13.25 127.38 13.25Q128.30 13.25 129.13 14.23Q129.96 15.22 129.96 16.32L129.96 16.32Q129.96 18.05 129.17 20.54L129.17 20.54Q127.73 25.15 126.58 25.15L126.58 25.15Q126.05 25.15 126.05 24.43L126.05 24.43Q126.05 23.93 126.56 22.38Q127.08 20.83 127.52 19.33Q127.97 17.83 127.97 17.08Q127.97 16.32 127.74 15.96Q127.51 15.60 127.28 15.60Q127.06 15.60 126.82 15.74Q126.58 15.89 126.28 16.22Q125.98 16.56 125.71 16.88Q125.45 17.21 125.05 17.81Q124.66 18.41 124.39 18.83Q124.13 19.25 123.62 20.04Q123.12 20.83 122.86 21.24Q122.59 21.65 122.16 22.34Q121.73 23.04 121.48 23.42Q121.22 23.81 120.91 24.26L120.91 24.26Q120.31 25.15 119.96 25.15Q119.62 25.15 119.16 24.61Q118.70 24.07 118.70 23.66L118.70 23.66Q118.70 23.54 118.87 23.02L118.87 23.02Q119.33 21.62 119.88 19.57Q120.43 17.52 120.48 14.90L120.48 14.90Q120.55 13.15 120.98 13.15L120.98 13.15Q121.51 13.15 122.04 13.70Q122.57 14.26 122.57 14.92Q122.57 15.58 122.17 17.46Q121.78 19.34 121.25 20.98L121.25 20.98ZM138.94 17.33L138.94 17.33Q138.94 16.51 138.67 15.78Q138.41 15.05 137.90 14.71L137.90 14.71Q136.25 15.17 135.06 17.27Q133.87 19.37 133.87 21.22Q133.87 23.06 134.78 23.52L134.78 23.52Q136.51 23.18 137.72 21.16Q138.94 19.13 138.94 17.33ZM132.64 17.54Q133.46 15.67 134.82 14.46Q136.18 13.25 137.60 13.25Q139.03 13.25 139.99 14.46Q140.95 15.67 140.95 17.41Q140.95 19.15 140.11 20.96Q139.27 22.78 137.80 23.96Q136.32 25.15 134.66 25.15L134.66 25.15Q133.44 25.15 132.62 24.02Q131.81 22.90 131.81 21.16Q131.81 19.42 132.64 17.54ZM144.00 16.18L144.00 16.18L143.93 14.38Q143.93 13.25 144.46 13.25L144.46 13.25Q144.91 13.25 145.33 13.84Q145.75 14.42 145.75 15.23Q145.75 16.03 145.70 16.44L145.70 16.44Q147.79 13.27 149.66 13.27L149.66 13.27Q150.84 13.27 150.84 13.85L150.84 13.85Q150.84 14.14 150.58 14.38Q150.31 14.62 149.74 14.93L149.74 14.93Q148.46 15.48 147.59 16.62Q146.71 17.76 146.16 19.20Q145.61 20.64 145.28 21.62Q144.96 22.61 144.79 23.16Q144.62 23.71 144.41 24.24L144.41 24.24Q144.02 25.20 143.52 25.20L143.52 25.20Q143.11 25.20 142.86 24.73Q142.61 24.26 142.61 23.82Q142.61 23.38 143.02 22.06L143.02 22.06Q144.00 19.03 144.00 16.18ZM166.03 13.25L166.03 13.25Q166.75 13.25 167.32 14.24Q167.88 15.24 167.88 16.50Q167.88 17.76 167.44 19.78Q166.99 21.79 166.25 23.47Q165.50 25.15 164.78 25.15L164.78 25.15Q164.28 25.15 164.28 24.49Q164.28 23.83 165.11 21.25Q165.94 18.67 165.94 17.15Q165.94 15.62 165.46 15.62L165.46 15.62Q164.86 15.62 164.08 16.68Q163.30 17.74 162.41 19.22Q161.52 20.71 161.45 20.82Q161.38 20.93 161.27 21.12Q161.16 21.31 161.03 21.53Q160.90 21.74 160.36 22.82Q159.82 23.90 159.41 24.52Q159.00 25.13 158.70 25.13Q158.40 25.13 158.04 24.74Q157.68 24.36 157.68 24.02Q157.68 23.69 158.11 22.63L158.11 22.63Q159.36 19.51 159.36 16.82L159.36 16.82Q159.36 16.32 159.14 15.97Q158.93 15.62 158.66 15.62Q158.40 15.62 158.11 15.85Q157.82 16.08 157.39 16.67Q156.96 17.26 156.62 17.78Q156.29 18.31 155.60 19.43Q154.92 20.54 154.57 21.08Q154.22 21.62 153.77 22.33Q153.31 23.04 153.06 23.42Q152.81 23.81 152.50 24.26L152.50 24.26Q151.85 25.15 151.55 25.15Q151.25 25.15 150.77 24.61Q150.29 24.07 150.29 23.80Q150.29 23.52 150.38 23.11Q150.48 22.70 150.59 22.32Q150.70 21.94 150.92 21.18Q151.15 20.42 151.45 19.40Q151.75 18.38 151.91 16.60Q152.06 14.81 152.14 13.98Q152.21 13.15 152.54 13.15L152.54 13.15Q153.07 13.15 153.59 13.70Q154.10 14.26 154.10 14.81L154.10 14.81Q154.10 16.92 152.52 21.77L152.52 21.77Q155.21 16.73 155.90 15.79Q156.60 14.86 157.10 14.28L157.10 14.28Q158.04 13.25 159.00 13.25L159.00 13.25Q159.58 13.25 160.38 14.24Q161.18 15.24 161.18 16.25Q161.18 17.26 160.90 18.74L160.90 18.74Q163.73 13.25 166.03 13.25ZM175.99 13.25Q177.07 13.25 177.98 14.34Q178.90 15.43 178.90 16.31Q178.90 17.18 178.30 18.10L178.30 18.10Q178.58 18.46 178.58 18.72L178.58 18.72Q178.58 19.39 178.28 21.02Q177.98 22.66 177.92 23.16Q177.86 23.66 177.82 23.96Q177.77 24.26 177.70 24.55L177.70 24.55Q177.60 25.15 177.26 25.15L177.26 25.15Q176.83 25.15 176.56 24.40Q176.28 23.64 176.23 22.44L176.23 22.44Q174.10 25.15 172.27 25.15L172.27 25.15Q171.17 25.15 170.10 24.20Q169.03 23.26 169.03 22.25L169.03 22.25Q169.03 20.81 170.09 18.68Q171.14 16.56 172.82 14.90Q174.50 13.25 175.99 13.25L175.99 13.25ZM177.10 17.50L177.10 17.47Q177.10 15.24 176.21 15.24L176.21 15.24Q175.27 15.24 174.02 16.57Q172.78 17.90 171.91 19.58Q171.05 21.26 171.05 22.25L171.05 22.25Q171.05 22.66 171.38 22.91Q171.72 23.16 172.18 23.16L172.18 23.16Q173.30 23.16 174.72 21.64Q176.14 20.11 176.69 17.93L176.69 17.93Q176.76 17.57 177.10 17.50L177.10 17.50ZM185.59 8.54L185.59 8.54Q185.59 13.06 183.72 20.26L183.72 20.26Q182.52 25.15 182.04 25.15L182.04 25.15Q181.70 25.15 181.26 24.62Q180.82 24.10 180.82 23.81Q180.82 23.52 181.51 20.83Q182.21 18.14 182.90 14.22Q183.60 10.30 183.60 7.15L183.60 7.15Q183.60 6.82 183.70 6.67Q183.79 6.53 184.10 6.53Q184.42 6.53 185.00 7.21Q185.59 7.90 185.59 8.54Z"/></svg>