<svg xmlns="http://www.w3.org/2000/svg" xmlns:xlink="http://www.w3.org/1999/xlink" width="224.01600000000002" height="44.976"><path fill="black" d="M7.46 31.51L7.46 31.51Q5.59 31.51 4.38 30.98Q3.17 30.46 2.50 29.39Q1.82 28.32 1.56 26.72Q1.30 25.13 1.30 23.04L1.30 23.04Q1.30 20.90 1.56 19.30Q1.82 17.69 2.51 16.62Q3.19 15.55 4.39 15.01Q5.59 14.47 7.49 14.47L7.49 14.47Q8.33 14.47 9.19 14.56Q10.06 14.64 10.81 14.77Q11.57 14.90 12.12 15.02L12.12 15.02L12.02 16.92Q11.52 16.82 10.76 16.74Q10.01 16.66 9.23 16.58Q8.45 16.51 7.80 16.51L7.80 16.51Q6.50 16.51 5.69 16.90Q4.87 17.28 4.43 18.07Q3.98 18.86 3.83 20.09Q3.67 21.31 3.67 23.04L3.67 23.04Q3.67 24.72 3.83 25.94Q3.98 27.17 4.42 27.95Q4.85 28.73 5.68 29.10Q6.50 29.47 7.82 29.47L7.82 29.47Q8.83 29.47 10.02 29.35Q11.21 29.23 12.05 29.09L12.05 29.09L12.12 31.01Q11.54 31.13 10.76 31.25Q9.98 31.37 9.13 31.44Q8.28 31.51 7.46 31.51ZM17.40 31.51L17.40 31.51Q15.70 31.51 14.81 30.58Q13.92 29.64 13.92 27.82L13.92 27.82Q13.92 26.59 14.35 25.84Q14.78 25.08 15.64 24.70Q16.49 24.31 17.76 24.24L17.76 24.24L21.24 23.90L21.24 22.97Q21.24 21.84 20.74 21.37Q20.23 20.90 19.22 20.90L19.22 20.90Q18.60 20.90 17.76 20.95Q16.92 21 16.10 21.07Q15.29 21.14 14.64 21.22L14.64 21.22L14.54 19.58Q15.14 19.44 15.97 19.32Q16.80 19.20 17.71 19.10Q18.62 19.01 19.39 19.01L19.39 19.01Q20.81 19.01 21.72 19.42Q22.63 19.82 23.06 20.69Q23.50 21.55 23.50 22.92L23.50 22.92L23.50 28.82Q23.54 29.30 23.89 29.53Q24.24 29.76 24.77 29.83L24.77 29.83L24.70 31.49Q24.36 31.49 24.02 31.48Q23.69 31.46 23.40 31.42Q23.11 31.37 22.85 31.30L22.85 31.30Q22.46 31.20 22.16 31.02Q21.86 30.84 21.60 30.60L21.60 30.60Q21.17 30.79 20.47 31.01Q19.78 31.22 18.98 31.37Q18.19 31.51 17.40 31.51ZM17.86 29.74L17.86 29.74Q18.46 29.74 19.09 29.62Q19.73 29.50 20.30 29.34Q20.88 29.18 21.24 29.06L21.24 29.06L21.24 25.46L18.05 25.78Q17.04 25.85 16.61 26.34Q16.18 26.83 16.18 27.74L16.18 27.74Q16.18 28.68 16.60 29.21Q17.02 29.74 17.86 29.74ZM29.06 31.27L26.83 31.27L26.83 19.25L29.06 19.25L29.06 31.27ZM29.06 16.82L26.83 16.82L26.83 14.50L29.06 14.50L29.06 16.82ZM34.51 31.27L32.28 31.27L32.28 19.25L34.51 19.25L34.51 20.81Q34.94 20.50 35.62 20.14Q36.29 19.78 37.09 19.45Q37.90 19.13 38.69 18.98L38.69 18.98L38.69 21.22Q37.92 21.36 37.12 21.62Q36.31 21.89 35.63 22.19Q34.94 22.49 34.51 22.73L34.51 22.73L34.51 31.27ZM45.43 31.51L45.43 31.51Q43.42 31.51 42.26 30.83Q41.11 30.14 40.63 28.73Q40.15 27.31 40.15 25.13L40.15 25.13Q40.15 23.04 40.67 21.70Q41.18 20.35 42.35 19.68Q43.51 19.01 45.43 19.01L45.43 19.01Q47.38 19.01 48.53 19.68Q49.68 20.35 50.20 21.70Q50.71 23.04 50.71 25.13L50.71 25.13Q50.71 27.31 50.24 28.73Q49.78 30.14 48.62 30.83Q47.47 31.51 45.43 31.51ZM45.43 29.62L45.43 29.62Q46.70 29.62 47.35 29.16Q48 28.70 48.22 27.71Q48.43 26.71 48.43 25.13L48.43 25.13Q48.43 23.57 48.17 22.64Q47.90 21.72 47.26 21.31Q46.61 20.90 45.43 20.90L45.43 20.90Q44.28 20.90 43.62 21.31Q42.96 21.72 42.70 22.64Q42.43 23.57 42.43 25.13L42.43 25.13Q42.43 26.71 42.65 27.71Q42.86 28.70 43.50 29.16Q44.14 29.62 45.43 29.62ZM61.27 31.27L58.97 31.27L58.97 14.74L65.06 14.74Q66.96 14.74 68.18 15.32Q69.41 15.91 70.01 17.11Q70.61 18.31 70.61 20.21L70.61 20.21Q70.61 22.08 70.01 23.35Q69.41 24.62 68.18 25.27Q66.96 25.92 65.06 25.92L65.06 25.92L61.27 25.92L61.27 31.27ZM61.27 16.70L61.27 23.98L65.04 23.98Q66.74 23.98 67.50 23.00Q68.26 22.03 68.26 20.21L68.26 20.21Q68.26 18.38 67.50 17.54Q66.74 16.70 65.04 16.70L65.04 16.70L61.27 16.70ZM75.31 31.27L73.10 31.27L73.10 14.14L75.31 14.14L75.31 31.27ZM81.43 31.51L81.43 31.51Q79.73 31.51 78.84 30.58Q77.95 29.64 77.95 27.82L77.95 27.82Q77.95 26.59 78.38 25.84Q78.82 25.08 79.67 24.70Q80.52 24.31 81.79 24.24L81.79 24.24L85.27 23.90L85.27 22.97Q85.27 21.84 84.77 21.37Q84.26 20.90 83.26 20.90L83.26 20.90Q82.63 20.90 81.79 20.95Q80.95 21 80.14 21.07Q79.32 21.14 78.67 21.22L78.67 21.22L78.58 19.58Q79.18 19.44 80.00 19.32Q80.83 19.20 81.74 19.10Q82.66 19.01 83.42 19.01L83.42 19.01Q84.84 19.01 85.75 19.42Q86.66 19.82 87.10 20.69Q87.53 21.55 87.53 22.92L87.53 22.92L87.53 28.82Q87.58 29.30 87.92 29.53Q88.27 29.76 88.80 29.83L88.80 29.83L88.73 31.49Q88.39 31.49 88.06 31.48Q87.72 31.46 87.43 31.42Q87.14 31.37 86.88 31.30L86.88 31.30Q86.50 31.20 86.20 31.02Q85.90 30.84 85.63 30.60L85.63 30.60Q85.20 30.79 84.50 31.01Q83.81 31.22 83.02 31.37Q82.22 31.51 81.43 31.51ZM81.89 29.74L81.89 29.74Q82.49 29.74 83.12 29.62Q83.76 29.50 84.34 29.34Q84.91 29.18 85.27 29.06L85.27 29.06L85.27 25.46L82.08 25.78Q81.07 25.85 80.64 26.34Q80.21 26.83 80.21 27.74L80.21 27.74Q80.21 28.68 80.63 29.21Q81.05 29.74 81.89 29.74ZM95.78 36.50L93.50 36.50L95.04 31.27L93.05 31.27L89.78 19.25L92.06 19.25L94.78 29.35L95.54 29.35L98.28 19.25L100.51 19.25L95.78 36.50ZM113.16 31.51L113.16 31.51Q111.17 31.51 109.88 30.54Q108.60 29.57 108 27.72Q107.40 25.87 107.40 23.30L107.40 23.30Q107.40 21.12 107.83 19.57Q108.26 18.02 109.09 17.05Q109.92 16.08 111.08 15.64Q112.25 15.19 113.66 15.19L113.66 15.19Q114.41 15.19 115.24 15.26Q116.06 15.34 116.83 15.44Q117.60 15.55 118.13 15.65L118.13 15.65L117.91 17.45Q117.46 17.40 116.74 17.34Q116.02 17.28 115.22 17.23Q114.43 17.18 113.69 17.18L113.69 17.18Q111.77 17.18 110.76 18.47Q109.75 19.75 109.70 22.15L109.70 22.15Q109.94 22.10 110.34 21.96Q110.74 21.82 111.28 21.66Q111.82 21.50 112.37 21.40Q112.92 21.29 113.45 21.29L113.45 21.29Q116.06 21.29 117.41 22.50Q118.75 23.71 118.75 26.28L118.75 26.28Q118.75 27.96 118.09 29.15Q117.43 30.34 116.18 30.92Q114.94 31.51 113.16 31.51ZM113.16 29.54L113.16 29.54Q114.77 29.54 115.62 28.69Q116.47 27.84 116.47 26.26L116.47 26.26Q116.47 24.74 115.62 24Q114.77 23.26 113.26 23.26L113.26 23.26Q112.63 23.26 111.96 23.40Q111.29 23.54 110.69 23.72Q110.09 23.90 109.68 24.10L109.68 24.10Q109.70 25.63 110.04 26.88Q110.38 28.13 111.13 28.84Q111.89 29.54 113.16 29.54ZM126.41 31.51L126.41 31.51Q124.99 31.51 123.91 31.12Q122.83 30.72 122.09 29.81Q121.34 28.90 120.95 27.36Q120.55 25.82 120.55 23.57L120.55 23.57Q120.55 21.17 120.94 19.55Q121.32 17.93 122.08 16.97Q122.83 16.01 123.91 15.59Q124.99 15.17 126.38 15.17L126.38 15.17Q127.85 15.17 128.94 15.59Q130.03 16.01 130.76 16.97Q131.50 17.93 131.87 19.54Q132.24 21.14 132.24 23.57L132.24 23.57Q132.24 26.57 131.57 28.31Q130.90 30.05 129.60 30.78Q128.30 31.51 126.41 31.51ZM126.41 29.52L126.41 29.52Q127.27 29.52 127.92 29.24Q128.57 28.97 129.01 28.31Q129.46 27.65 129.67 26.48Q129.89 25.32 129.89 23.57L129.89 23.57Q129.89 21.65 129.68 20.41Q129.48 19.18 129.05 18.47Q128.62 17.76 127.97 17.46Q127.32 17.16 126.41 17.16L126.41 17.16Q125.54 17.16 124.87 17.46Q124.20 17.76 123.78 18.46Q123.36 19.15 123.14 20.40Q122.93 21.65 122.93 23.59L122.93 23.59Q122.93 25.34 123.16 26.51Q123.38 27.67 123.83 28.32Q124.27 28.97 124.92 29.24Q125.57 29.52 126.41 29.52ZM139.82 31.51L139.82 31.51Q138.41 31.51 137.33 31.12Q136.25 30.72 135.50 29.81Q134.76 28.90 134.36 27.36Q133.97 25.82 133.97 23.57L133.97 23.57Q133.97 21.17 134.35 19.55Q134.74 17.93 135.49 16.97Q136.25 16.01 137.33 15.59Q138.41 15.17 139.80 15.17L139.80 15.17Q141.26 15.17 142.36 15.59Q143.45 16.01 144.18 16.97Q144.91 17.93 145.28 19.54Q145.66 21.14 145.66 23.57L145.66 23.57Q145.66 26.57 144.98 28.31Q144.31 30.05 143.02 30.78Q141.72 31.51 139.82 31.51ZM139.82 29.52L139.82 29.52Q140.69 29.52 141.34 29.24Q141.98 28.97 142.43 28.31Q142.87 27.65 143.09 26.48Q143.30 25.32 143.30 23.57L143.30 23.57Q143.30 21.65 143.10 20.41Q142.90 19.18 142.46 18.47Q142.03 17.76 141.38 17.46Q140.74 17.16 139.82 17.16L139.82 17.16Q138.96 17.16 138.29 17.46Q137.62 17.76 137.20 18.46Q136.78 19.15 136.56 20.40Q136.34 21.65 136.34 23.59L136.34 23.59Q136.34 25.34 136.57 26.51Q136.80 27.67 137.24 28.32Q137.69 28.97 138.34 29.24Q138.98 29.52 139.82 29.52ZM155.64 31.27L153.41 31.27L153.41 19.25L155.64 19.25L155.64 20.09Q156.02 19.85 156.62 19.61Q157.22 19.37 157.90 19.19Q158.57 19.01 159.19 19.01L159.19 19.01Q160.44 19.01 161.24 19.33Q162.05 19.66 162.50 20.36Q162.96 21.07 163.15 22.20Q163.34 23.33 163.34 24.94L163.34 24.94L163.34 31.27L161.09 31.27L161.09 25.06Q161.09 23.57 160.92 22.68Q160.75 21.79 160.25 21.40Q159.74 21 158.74 21L158.74 21Q158.18 21 157.60 21.12Q157.01 21.24 156.49 21.43Q155.98 21.62 155.64 21.79L155.64 21.79L155.64 31.27ZM171.19 31.51L171.19 31.51Q169.18 31.51 168.02 30.83Q166.87 30.14 166.39 28.73Q165.91 27.31 165.91 25.13L165.91 25.13Q165.91 23.04 166.43 21.70Q166.94 20.35 168.11 19.68Q169.27 19.01 171.19 19.01L171.19 19.01Q173.14 19.01 174.29 19.68Q175.44 20.35 175.96 21.70Q176.47 23.04 176.47 25.13L176.47 25.13Q176.47 27.31 176.00 28.73Q175.54 30.14 174.38 30.83Q173.23 31.51 171.19 31.51ZM171.19 29.62L171.19 29.62Q172.46 29.62 173.11 29.16Q173.76 28.70 173.98 27.71Q174.19 26.71 174.19 25.13L174.19 25.13Q174.19 23.57 173.93 22.64Q173.66 21.72 173.02 21.31Q172.37 20.90 171.19 20.90L171.19 20.90Q170.04 20.90 169.38 21.31Q168.72 21.72 168.46 22.64Q168.19 23.57 168.19 25.13L168.19 25.13Q168.19 26.71 168.41 27.71Q168.62 28.70 169.26 29.16Q169.90 29.62 171.19 29.62ZM181.44 31.27L179.21 31.27L179.21 19.25L181.44 19.25L181.44 20.81Q181.87 20.50 182.54 20.14Q183.22 19.78 184.02 19.45Q184.82 19.13 185.62 18.98L185.62 18.98L185.62 21.22Q184.85 21.36 184.04 21.62Q183.24 21.89 182.56 22.19Q181.87 22.49 181.44 22.73L181.44 22.73L181.44 31.27ZM189.82 31.27L187.58 31.27L187.58 19.25L189.82 19.25L189.82 20.09Q190.20 19.85 190.76 19.61Q191.33 19.37 191.98 19.19Q192.62 19.01 193.22 19.01L193.22 19.01Q194.40 19.01 195.12 19.30Q195.84 19.58 196.30 20.23L196.30 20.23Q196.75 19.97 197.44 19.68Q198.12 19.39 198.91 19.20Q199.70 19.01 200.47 19.01L200.47 19.01Q201.72 19.01 202.52 19.33Q203.33 19.66 203.78 20.36Q204.24 21.07 204.42 22.19Q204.60 23.30 204.60 24.94L204.60 24.94L204.60 31.27L202.39 31.27L202.39 25.08Q202.39 23.59 202.22 22.70Q202.06 21.82 201.56 21.41Q201.07 21 200.06 21L200.06 21Q199.49 21 198.90 21.12Q198.31 21.24 197.81 21.43Q197.30 21.62 196.99 21.79L196.99 21.79Q197.16 22.37 197.22 23.27Q197.28 24.17 197.28 25.10L197.28 25.10L197.28 31.27L195.05 31.27L195.05 25.15Q195.05 23.62 194.89 22.72Q194.74 21.82 194.23 21.41Q193.73 21 192.74 21L192.74 21Q192.19 21 191.63 21.12Q191.06 21.24 190.60 21.43Q190.13 21.62 189.82 21.79L189.82 21.79L189.82 31.27ZM210.48 31.51L210.48 31.51Q208.78 31.51 207.89 30.58Q207.00 29.64 207.00 27.82L207.00 27.82Q207.00 26.59 207.43 25.84Q207.86 25.08 208.72 24.70Q209.57 24.31 210.84 24.24L210.84 24.24L214.32 23.90L214.32 22.97Q214.32 21.84 213.82 21.37Q213.31 20.90 212.30 20.90L212.30 20.90Q211.68 20.90 210.84 20.95Q210.00 21 209.18 21.07Q208.37 21.14 207.72 21.22L207.72 21.22L207.62 19.58Q208.22 19.44 209.05 19.32Q209.88 19.20 210.79 19.10Q211.70 19.01 212.47 19.01L212.47 19.01Q213.89 19.01 214.80 19.42Q215.71 19.82 216.14 20.69Q216.58 21.55 216.58 22.92L216.58 22.92L216.58 28.82Q216.62 29.30 216.97 29.53Q217.32 29.76 217.85 29.83L217.85 29.83L217.78 31.49Q217.44 31.49 217.10 31.48Q216.77 31.46 216.48 31.42Q216.19 31.37 215.93 31.30L215.93 31.30Q215.54 31.20 215.24 31.02Q214.94 30.84 214.68 30.60L214.68 30.60Q214.25 30.79 213.55 31.01Q212.86 31.22 212.06 31.37Q211.27 31.51 210.48 31.51ZM210.94 29.74L210.94 29.74Q211.54 29.74 212.17 29.62Q212.81 29.50 213.38 29.34Q213.96 29.18 214.32 29.06L214.32 29.06L214.32 25.46L211.13 25.78Q210.12 25.85 209.69 26.34Q209.26 26.83 209.26 27.74L209.26 27.74Q209.26 28.68 209.68 29.21Q210.10 29.74 210.94 29.74ZM222.26 31.27L220.06 31.27L220.06 14.14L222.26 14.14L222.26 31.27Z"/></svg>