<svg xmlns="http://www.w3.org/2000/svg" xmlns:xlink="http://www.w3.org/1999/xlink" width="204.144" height="25.2"><path fill="black" d="M8.11 20.04Q4.92 20.04 3.12 18.08Q1.32 16.13 1.32 12.62Q1.32 9.12 3.46 6.97Q5.59 4.82 9.14 4.82L9.14 4.82Q11.09 4.82 13.15 5.54L13.15 5.54L12.38 8.06L9.19 6.48Q6.14 6.48 4.94 7.78Q3.74 9.07 3.74 12.12Q3.74 15.17 4.94 16.81Q6.14 18.46 8.18 18.46L8.18 18.46Q9.86 18.46 11.35 17.57L11.35 17.57L11.26 14.81L10.87 13.34L13.56 13.20L13.25 18.89Q11.26 19.97 8.76 20.02L8.76 20.02Q8.59 20.04 8.11 20.04L8.11 20.04ZM19.28 20.04Q17.74 20.04 16.91 19.21Q16.08 18.38 16.08 16.94Q16.08 15.50 17.26 14.81Q18.43 14.11 22.20 13.42L22.20 13.42Q22.20 11.59 21.79 10.90Q21.38 10.20 20.33 10.20L20.33 10.20Q19.75 10.20 19.42 10.25L19.42 10.25L17.40 12.02L16.32 10.22Q18.17 8.76 20.45 8.76L20.45 8.76Q24.22 8.76 24.22 12.55L24.22 12.55L24.22 16.99L24.65 19.70L22.42 20.04L22.32 18.84Q20.83 20.04 19.28 20.04ZM18.12 16.85L18.12 16.85Q18.12 17.64 18.61 18.10Q19.10 18.55 20.15 18.55Q21.19 18.55 22.20 17.81L22.20 17.81L22.20 14.78Q19.90 15.12 18.29 15.82L18.29 15.82Q18.12 16.46 18.12 16.85ZM30.17 19.68L27.60 19.68L27.94 14.93L27.94 6.07L27.58 3.60L30.17 3.36L29.90 8.06L29.90 14.95L30.17 19.68ZM39.96 20.04L39.86 18.84Q38.33 20.04 36.66 20.04Q34.99 20.04 34.01 18.70Q33.02 17.35 33.02 15.05L33.02 15.05Q33.02 12.22 34.52 10.50Q36.02 8.78 38.50 8.78L38.50 8.78Q39.19 8.78 39.79 8.88L39.79 8.88L39.79 6.12L39.43 3.60L42.02 3.36L41.76 8.11L41.76 16.99L42.19 19.70L39.96 20.04ZM37.37 18.38L37.37 18.38Q38.47 18.38 39.74 17.81L39.74 17.81L39.74 10.51Q38.95 10.25 38.06 10.25Q37.18 10.25 36.14 10.49L36.14 10.49Q35.23 11.71 35.23 14.28L35.23 14.28Q35.23 18.38 37.37 18.38ZM49.79 20.04Q47.62 20.04 46.25 18.60Q44.88 17.16 44.88 14.63Q44.88 12.10 46.27 10.44Q47.66 8.78 49.67 8.78Q51.67 8.78 52.68 9.77Q53.69 10.75 53.69 12.53L53.69 12.53Q53.69 13.18 53.57 14.09L53.57 14.09L47.09 14.30Q47.09 16.34 47.80 17.46Q48.50 18.58 49.80 18.58L49.80 18.58Q51.50 18.58 52.94 17.35L52.94 17.35L53.59 19.13Q51.96 20.04 49.79 20.04ZM47.14 13.06L47.14 13.06L51.50 12.86Q51.48 11.40 51.02 10.82Q50.57 10.25 49.54 10.25Q48.50 10.25 47.93 10.46L47.93 10.46Q47.33 11.11 47.14 13.06ZM59.05 20.04Q57.50 20.04 56.68 19.21Q55.85 18.38 55.85 16.94Q55.85 15.50 57.02 14.81Q58.20 14.11 61.97 13.42L61.97 13.42Q61.97 11.59 61.56 10.90Q61.15 10.20 60.10 10.20L60.10 10.20Q59.52 10.20 59.18 10.25L59.18 10.25L57.17 12.02L56.09 10.22Q57.94 8.76 60.22 8.76L60.22 8.76Q63.98 8.76 63.98 12.55L63.98 12.55L63.98 16.99L64.42 19.70L62.18 20.04L62.09 18.84Q60.60 20.04 59.05 20.04ZM57.89 16.85L57.89 16.85Q57.89 17.64 58.38 18.10Q58.87 18.55 59.92 18.55Q60.96 18.55 61.97 17.81L61.97 17.81L61.97 14.78Q59.66 15.12 58.06 15.82L58.06 15.82Q57.89 16.46 57.89 16.85ZM69.67 19.68L67.37 19.68L67.70 14.93L67.70 11.54L67.34 9.07L69.67 8.83L69.67 10.06Q71.62 8.78 73.58 8.78L73.58 8.78Q74.81 8.78 75.46 9.64Q76.10 10.49 76.10 12.10L76.10 12.10L76.10 19.68L73.75 19.80L74.09 14.64L74.09 12.07Q74.09 11.18 73.80 10.81Q73.51 10.44 72.84 10.44L72.84 10.44Q71.38 10.44 69.67 11.33L69.67 11.33L69.67 19.68ZM83.82 20.04Q81.58 20.04 80.34 18.62Q79.10 17.21 79.10 14.58Q79.10 11.95 80.42 10.37Q81.74 8.78 83.99 8.78Q86.23 8.78 87.47 10.19Q88.70 11.59 88.70 14.22Q88.70 16.85 87.38 18.44Q86.06 20.04 83.82 20.04ZM84.17 18.58L84.17 18.58Q84.89 18.58 85.70 18.34L85.70 18.34Q86.50 17.21 86.50 14.77Q86.50 12.34 85.79 11.29Q85.08 10.25 83.59 10.25L83.59 10.25Q83.04 10.25 82.10 10.49L82.10 10.49Q81.31 11.59 81.31 14.04Q81.31 16.49 82.00 17.53Q82.68 18.58 84.17 18.58ZM102.12 17.45L95.88 17.45L95.71 16.34L103.10 6.55L104.04 6.55L104.04 15.91L106.56 15.58L106.39 17.45L104.04 17.45L104.04 22.25L101.74 22.54L102.12 18.24L102.12 17.45ZM102.12 10.06L97.70 15.96L102.12 15.96L102.12 10.06ZM113.47 20.04Q110.88 20.04 109.51 18.18Q108.14 16.32 108.14 13.36Q108.14 10.39 109.55 8.47Q110.95 6.55 113.56 6.55Q116.16 6.55 117.53 8.42Q118.90 10.30 118.90 13.25Q118.90 16.20 117.48 18.12Q116.06 20.04 113.47 20.04ZM113.56 8.14Q111.89 8.14 111.01 9.59Q110.14 11.04 110.14 13.34Q110.14 15.65 110.98 17.05Q111.82 18.46 113.48 18.46Q115.15 18.46 116.03 17.02Q116.90 15.58 116.90 13.25Q116.90 10.92 116.06 9.53Q115.22 8.14 113.56 8.14ZM125.86 20.04Q123.26 20.04 121.90 18.18Q120.53 16.32 120.53 13.36Q120.53 10.39 121.93 8.47Q123.34 6.55 125.94 6.55Q128.54 6.55 129.91 8.42Q131.28 10.30 131.28 13.25Q131.28 16.20 129.86 18.12Q128.45 20.04 125.86 20.04ZM125.94 8.14Q124.27 8.14 123.40 9.59Q122.52 11.04 122.52 13.34Q122.52 15.65 123.36 17.05Q124.20 18.46 125.87 18.46Q127.54 18.46 128.41 17.02Q129.29 15.58 129.29 13.25Q129.29 10.92 128.45 9.53Q127.61 8.14 125.94 8.14ZM141.02 19.68L138.72 19.68L139.06 14.93L139.06 11.54L138.70 9.07L141.02 8.83L141.02 10.06Q142.97 8.78 144.94 8.78L144.94 8.78Q146.16 8.78 146.81 9.64Q147.46 10.49 147.46 12.10L147.46 12.10L147.46 19.68L145.10 19.80L145.44 14.64L145.44 12.07Q145.44 11.18 145.15 10.81Q144.86 10.44 144.19 10.44L144.19 10.44Q142.73 10.44 141.02 11.33L141.02 11.33L141.02 19.68ZM155.17 20.04Q152.93 20.04 151.69 18.62Q150.46 17.21 150.46 14.58Q150.46 11.95 151.78 10.37Q153.10 8.78 155.34 8.78Q157.58 8.78 158.82 10.19Q160.06 11.59 160.06 14.22Q160.06 16.85 158.74 18.44Q157.42 20.04 155.17 20.04ZM155.52 18.58L155.52 18.58Q156.24 18.58 157.06 18.34L157.06 18.34Q157.85 17.21 157.85 14.77Q157.85 12.34 157.14 11.29Q156.43 10.25 154.94 10.25L154.94 10.25Q154.39 10.25 153.46 10.49L153.46 10.49Q152.66 11.59 152.66 14.04Q152.66 16.49 153.35 17.53Q154.03 18.58 155.52 18.58ZM165.29 19.68L162.84 19.68L163.18 14.93L163.18 11.57L162.82 9.10L165.24 8.86L165.14 10.66Q165.98 9.65 166.63 9.22Q167.28 8.78 167.99 8.78Q168.70 8.78 169.39 9.10L169.39 9.10L168.74 11.16L166.58 10.51Q165.70 11.30 165.02 12.53L165.02 12.53L165.02 14.95L165.29 19.68ZM179.38 11.33L179.38 11.33L179.42 12.10L179.42 19.68L177.07 19.80L177.41 14.59L177.41 12.07Q177.41 11.18 177.13 10.81Q176.86 10.44 176.21 10.44L176.21 10.44Q174.74 10.44 173.16 11.33L173.16 11.33L173.16 19.68L170.86 19.68L171.19 14.93L171.19 11.54L170.83 9.07L173.16 8.83L173.16 10.06Q175.08 8.78 176.98 8.78L176.98 8.78Q178.51 8.78 179.11 10.20L179.11 10.20Q181.22 8.78 183.19 8.78L183.19 8.78Q184.39 8.78 185.02 9.64Q185.64 10.49 185.64 12.10L185.64 12.10L185.64 19.68L183.29 19.80L183.62 14.59L183.62 12.07Q183.62 11.18 183.35 10.81Q183.07 10.44 182.42 10.44L182.42 10.44Q180.96 10.44 179.38 11.33ZM191.60 20.04Q190.06 20.04 189.23 19.21Q188.40 18.38 188.40 16.94Q188.40 15.50 189.58 14.81Q190.75 14.11 194.52 13.42L194.52 13.42Q194.52 11.59 194.11 10.90Q193.70 10.20 192.65 10.20L192.65 10.20Q192.07 10.20 191.74 10.25L191.74 10.25L189.72 12.02L188.64 10.22Q190.49 8.76 192.77 8.76L192.77 8.76Q196.54 8.76 196.54 12.55L196.54 12.55L196.54 16.99L196.97 19.70L194.74 20.04L194.64 18.84Q193.15 20.04 191.60 20.04ZM190.44 16.85L190.44 16.85Q190.44 17.64 190.93 18.10Q191.42 18.55 192.47 18.55Q193.51 18.55 194.52 17.81L194.52 17.81L194.52 14.78Q192.22 15.12 190.61 15.82L190.61 15.82Q190.44 16.46 190.44 16.85ZM202.49 19.68L199.92 19.68L200.26 14.93L200.26 6.07L199.90 3.60L202.49 3.36L202.22 8.06L202.22 14.95L202.49 19.68Z"/></svg>