<svg xmlns="http://www.w3.org/2000/svg" xmlns:xlink="http://www.w3.org/1999/xlink" width="333.19200000000006" height="32.64"><path fill="black" d="M6.94 25.63L0.84 25.63L0.84 24.55L1.34 24.55Q2.06 24.55 2.59 24.26Q3.12 23.98 3.12 22.87L3.12 22.87L3.12 11.16Q3.12 10.13 2.59 9.85Q2.06 9.58 1.34 9.58L1.34 9.58L0.84 9.58L0.84 8.50L5.50 8.50L14.06 21.41L14.06 11.16Q14.06 10.13 13.54 9.85Q13.01 9.58 12.29 9.58L12.29 9.58L11.78 9.58L11.78 8.50L17.88 8.50L17.88 9.58L17.38 9.58Q16.66 9.58 16.13 9.86Q15.60 10.15 15.60 11.26L15.60 11.26L15.60 25.63L13.78 25.63L4.68 11.98L4.68 22.87Q4.68 23.98 5.20 24.26Q5.71 24.55 6.43 24.55L6.43 24.55L6.94 24.55L6.94 25.63ZM25.49 25.87L25.49 25.87Q22.82 25.87 21.29 24.22Q19.75 22.56 19.75 19.18L19.75 19.18Q19.75 15.79 21.22 14.15Q22.68 12.50 25.56 12.50L25.56 12.50Q28.22 12.50 29.76 14.15Q31.30 15.79 31.30 19.18L31.30 19.18Q31.30 22.56 29.82 24.22Q28.34 25.87 25.49 25.87ZM25.54 24.55L25.54 24.55Q27.22 24.55 27.90 23.18Q28.58 21.82 28.58 19.18L28.58 19.18Q28.58 16.51 27.89 15.18Q27.19 13.85 25.51 13.85L25.51 13.85Q23.83 13.85 23.15 15.18Q22.46 16.51 22.46 19.18L22.46 19.18Q22.46 21.82 23.16 23.18Q23.86 24.55 25.54 24.55ZM38.35 25.87L38.35 25.87Q36.58 25.87 35.71 25.04Q34.85 24.22 34.85 22.13L34.85 22.13L34.85 14.21L33.05 14.21L33.05 13.18Q33.55 13.18 34.10 12.96Q34.66 12.74 35.04 12.34L35.04 12.34Q35.45 11.93 35.71 11.32Q35.98 10.70 36.14 9.82L36.14 9.82L37.49 9.82L37.49 12.77L40.61 12.77L40.61 14.21L37.49 14.21L37.49 22.13Q37.49 23.30 37.96 23.86Q38.42 24.41 39.26 24.41L39.26 24.41Q39.70 24.41 40.08 24.36Q40.46 24.31 40.82 24.24L40.82 24.24L40.82 25.44Q40.51 25.58 39.82 25.73Q39.12 25.87 38.35 25.87ZM48.38 25.87L48.38 25.87Q45.72 25.87 44.18 24.22Q42.65 22.56 42.65 19.18L42.65 19.18Q42.65 15.79 44.11 14.15Q45.58 12.50 48.46 12.50L48.46 12.50Q51.12 12.50 52.66 14.15Q54.19 15.79 54.19 19.18L54.19 19.18Q54.19 22.56 52.72 24.22Q51.24 25.87 48.38 25.87ZM48.43 24.55L48.43 24.55Q50.11 24.55 50.80 23.18Q51.48 21.82 51.48 19.18L51.48 19.18Q51.48 16.51 50.78 15.18Q50.09 13.85 48.41 13.85L48.41 13.85Q46.73 13.85 46.04 15.18Q45.36 16.51 45.36 19.18L45.36 19.18Q45.36 21.82 46.06 23.18Q46.75 24.55 48.43 24.55ZM67.75 25.87L67.75 25.87Q66.02 25.87 64.91 25.42Q63.79 24.96 63.26 24.20Q62.74 23.45 62.74 22.49L62.74 22.49Q62.74 21.91 62.99 21.52Q63.24 21.12 63.70 20.92Q64.15 20.71 64.73 20.71L64.73 20.71Q64.78 21.82 65.14 22.70Q65.50 23.59 66.20 24.11Q66.91 24.62 67.99 24.62L67.99 24.62Q69.53 24.62 70.42 23.86Q71.30 23.09 71.30 21.72L71.30 21.72Q71.30 20.86 70.93 20.24Q70.56 19.63 69.72 19.12Q68.88 18.60 67.49 18.02L67.49 18.02Q65.95 17.40 64.97 16.66Q63.98 15.91 63.53 14.96Q63.07 14.02 63.07 12.74L63.07 12.74Q63.07 11.33 63.77 10.33Q64.46 9.34 65.70 8.80Q66.94 8.26 68.50 8.26L68.50 8.26Q70.78 8.26 71.96 9.07Q73.15 9.89 73.15 10.97L73.15 10.97Q73.15 11.76 72.58 12.20Q72 12.65 70.97 12.65L70.97 12.65Q70.97 11.93 70.72 11.21Q70.46 10.49 69.88 10.01Q69.29 9.53 68.30 9.53L68.30 9.53Q67.03 9.53 66.29 10.22Q65.54 10.92 65.54 12.12L65.54 12.12Q65.54 13.01 65.88 13.64Q66.22 14.28 67.04 14.81Q67.87 15.34 69.31 15.94L69.31 15.94Q71.52 16.82 72.67 17.96Q73.82 19.10 73.82 20.93L73.82 20.93Q73.82 22.46 73.08 23.57Q72.34 24.67 70.97 25.27Q69.60 25.87 67.75 25.87ZM82.06 25.87L82.06 25.87Q79.32 25.87 77.82 24.14Q76.32 22.42 76.32 19.30L76.32 19.30Q76.32 15.91 77.75 14.21Q79.18 12.50 81.82 12.50L81.82 12.50Q84.22 12.50 85.60 13.96Q86.98 15.41 86.98 18.26L86.98 18.26L86.98 19.39L79.03 19.39Q79.08 21.96 79.96 23.12Q80.83 24.29 82.49 24.29L82.49 24.29Q83.74 24.29 84.61 23.76Q85.49 23.23 85.92 22.54L85.92 22.54Q86.11 22.63 86.27 22.87Q86.42 23.11 86.42 23.45L86.42 23.45Q86.42 23.98 85.96 24.54Q85.49 25.10 84.52 25.49Q83.54 25.87 82.06 25.87ZM79.08 18.02L84.22 18.02Q84.22 16.15 83.66 15.01Q83.11 13.87 81.79 13.87L81.79 13.87Q80.54 13.87 79.86 14.94Q79.18 16.01 79.08 18.02L79.08 18.02ZM96.07 25.63L88.82 25.63L88.82 24.55L88.90 24.55Q89.71 24.55 90.28 24.25Q90.84 23.95 90.84 22.82L90.84 22.82L90.84 15.48Q90.84 14.42 90.29 14.14Q89.74 13.85 88.94 13.85L88.94 13.85L88.87 13.85L88.87 12.77L92.88 12.77L93.34 15.00L93.46 15.00Q93.77 14.28 94.14 13.72Q94.51 13.15 95.12 12.83Q95.74 12.50 96.77 12.50L96.77 12.50Q98.11 12.50 98.76 12.98Q99.41 13.46 99.41 14.33L99.41 14.33Q99.41 15.17 98.82 15.68Q98.23 16.20 96.96 16.20L96.96 16.20Q96.96 15.22 96.68 14.75Q96.41 14.28 95.71 14.28L95.71 14.28Q95.04 14.28 94.61 14.78Q94.18 15.29 93.94 16.06Q93.70 16.82 93.59 17.64Q93.48 18.46 93.48 19.08L93.48 19.08L93.48 22.94Q93.48 24 94.04 24.28Q94.61 24.55 95.38 24.55L95.38 24.55L96.07 24.55L96.07 25.63ZM107.33 25.63L100.27 25.63L100.27 24.55L100.58 24.55Q101.06 24.55 101.50 24.44Q101.93 24.34 102.20 24Q102.48 23.66 102.48 22.97L102.48 22.97L102.48 15.43Q102.48 14.74 102.20 14.40Q101.93 14.06 101.50 13.96Q101.06 13.85 100.58 13.85L100.58 13.85L100.46 13.85L100.46 12.77L105.12 12.77L105.12 22.87Q105.12 23.62 105.40 23.96Q105.67 24.31 106.10 24.43Q106.54 24.55 107.02 24.55L107.02 24.55L107.33 24.55L107.33 25.63ZM103.70 10.44L103.70 10.44Q103.03 10.44 102.59 10.08Q102.14 9.72 102.14 8.88L102.14 8.88Q102.14 8.02 102.59 7.67Q103.03 7.32 103.70 7.32L103.70 7.32Q104.33 7.32 104.80 7.67Q105.26 8.02 105.26 8.88L105.26 8.88Q105.26 9.72 104.80 10.08Q104.33 10.44 103.70 10.44ZM116.04 25.63L108.26 25.63L108.26 24.55L108.62 24.55Q109.13 24.55 109.56 24.43Q109.99 24.31 110.26 23.96Q110.52 23.62 110.52 22.87L110.52 22.87L110.52 14.04L108.36 14.04L108.36 12.77L110.52 12.77L110.52 11.66Q110.52 9.48 111.67 8.32Q112.82 7.15 114.96 7.15L114.96 7.15Q116.28 7.15 117.06 7.38Q117.84 7.61 118.16 7.99Q118.49 8.38 118.49 8.86L118.49 8.86Q118.49 9.55 117.89 9.91Q117.29 10.27 116.26 10.27L116.26 10.27Q116.26 9.82 116.12 9.37Q115.99 8.93 115.67 8.63Q115.34 8.33 114.77 8.33L114.77 8.33Q113.86 8.33 113.51 9.08Q113.16 9.84 113.16 11.38L113.16 11.38L113.16 12.77L116.52 12.77L116.52 14.04L113.16 14.04L113.16 22.87Q113.16 23.62 113.44 23.96Q113.71 24.31 114.14 24.43Q114.58 24.55 115.06 24.55L115.06 24.55L116.04 24.55L116.04 25.63ZM134.69 25.63L126.84 25.63L126.84 24.55L127.56 24.55Q128.30 24.55 128.83 24.29Q129.36 24.02 129.36 22.99L129.36 22.99L129.36 18.77L124.92 10.85Q124.54 10.15 124.20 9.86Q123.86 9.58 123.22 9.58L123.22 9.58L122.90 9.58L122.90 8.50L129.91 8.50L129.91 9.58L129.14 9.58Q128.50 9.58 128.24 9.83Q127.99 10.08 127.99 10.44L127.99 10.44Q127.99 10.75 128.12 11.10Q128.26 11.45 128.40 11.71L128.40 11.71L130.18 15.02Q130.58 15.77 130.86 16.45Q131.14 17.14 131.35 17.69L131.35 17.69Q131.57 17.16 131.95 16.42Q132.34 15.67 132.74 14.90L132.74 14.90L134.23 12.10Q134.47 11.66 134.57 11.29Q134.66 10.92 134.66 10.66L134.66 10.66Q134.66 9.58 133.18 9.58L133.18 9.58L132.53 9.58L132.53 8.50L138.50 8.50L138.50 9.58L138.17 9.58Q137.64 9.58 137.23 9.97Q136.82 10.37 136.22 11.45L136.22 11.45L132.17 18.79L132.17 22.90Q132.17 24 132.70 24.28Q133.22 24.55 133.97 24.55L133.97 24.55L134.69 24.55L134.69 25.63ZM145.46 25.87L145.46 25.87Q142.73 25.87 141.23 24.14Q139.73 22.42 139.73 19.30L139.73 19.30Q139.73 15.91 141.16 14.21Q142.58 12.50 145.22 12.50L145.22 12.50Q147.62 12.50 149.00 13.96Q150.38 15.41 150.38 18.26L150.38 18.26L150.38 19.39L142.44 19.39Q142.49 21.96 143.36 23.12Q144.24 24.29 145.90 24.29L145.90 24.29Q147.14 24.29 148.02 23.76Q148.90 23.23 149.33 22.54L149.33 22.54Q149.52 22.63 149.68 22.87Q149.83 23.11 149.83 23.45L149.83 23.45Q149.83 23.98 149.36 24.54Q148.90 25.10 147.92 25.49Q146.95 25.87 145.46 25.87ZM142.49 18.02L147.62 18.02Q147.62 16.15 147.07 15.01Q146.52 13.87 145.20 13.87L145.20 13.87Q143.95 13.87 143.27 14.94Q142.58 16.01 142.49 18.02L142.49 18.02ZM162.62 25.63L152.38 25.63L152.38 24.67L159.38 14.21L155.71 14.21Q154.87 14.21 154.56 14.66Q154.25 15.12 153.98 16.08L153.98 16.08L153.94 16.32L152.81 16.32L153.05 12.77L162.58 12.77L162.58 13.78L155.54 24.19L159.89 24.19Q160.68 24.19 161.00 23.64Q161.33 23.09 161.50 22.22L161.50 22.22L161.62 21.62L162.74 21.62L162.62 25.63ZM171.48 25.63L164.42 25.63L164.42 24.55L164.74 24.55Q165.22 24.55 165.65 24.44Q166.08 24.34 166.36 24Q166.63 23.66 166.63 22.97L166.63 22.97L166.63 15.43Q166.63 14.74 166.36 14.40Q166.08 14.06 165.65 13.96Q165.22 13.85 164.74 13.85L164.74 13.85L164.62 13.85L164.62 12.77L169.27 12.77L169.27 22.87Q169.27 23.62 169.55 23.96Q169.82 24.31 170.26 24.43Q170.69 24.55 171.17 24.55L171.17 24.55L171.48 24.55L171.48 25.63ZM167.86 10.44L167.86 10.44Q167.18 10.44 166.74 10.08Q166.30 9.72 166.30 8.88L166.30 8.88Q166.30 8.02 166.74 7.67Q167.18 7.32 167.86 7.32L167.86 7.32Q168.48 7.32 168.95 7.67Q169.42 8.02 169.42 8.88L169.42 8.88Q169.42 9.72 168.95 10.08Q168.48 10.44 167.86 10.44ZM177.98 25.87L177.98 25.87Q175.61 25.87 174.35 24.28Q173.09 22.68 173.09 19.22L173.09 19.22Q173.09 15.74 174.35 14.12Q175.61 12.50 177.96 12.50L177.96 12.50Q179.33 12.50 180.20 13.08Q181.08 13.66 181.61 14.57L181.61 14.57L181.75 14.57Q181.68 13.97 181.64 13.20Q181.61 12.43 181.61 11.86L181.61 11.86L181.61 10.06Q181.61 9.02 181.02 8.75Q180.43 8.47 179.64 8.47L179.64 8.47L179.45 8.47L179.45 7.39L184.25 7.39L184.25 22.90Q184.25 23.62 184.51 23.98Q184.78 24.34 185.23 24.44Q185.69 24.55 186.22 24.55L186.22 24.55L186.38 24.55L186.38 25.63L182.16 25.63L181.78 23.54L181.66 23.54Q181.10 24.62 180.24 25.25Q179.38 25.87 177.98 25.87ZM178.56 24.26L178.56 24.26Q180.31 24.26 180.96 23.02Q181.61 21.77 181.61 19.20L181.61 19.20Q181.61 16.75 180.95 15.43Q180.29 14.11 178.54 14.11L178.54 14.11Q177.05 14.11 176.41 15.43Q175.78 16.75 175.78 19.22L175.78 19.22Q175.78 21.77 176.41 23.02Q177.05 24.26 178.56 24.26ZM194.35 25.63L187.30 25.63L187.30 24.55L187.61 24.55Q188.09 24.55 188.52 24.44Q188.95 24.34 189.23 24Q189.50 23.66 189.50 22.97L189.50 22.97L189.50 15.43Q189.50 14.74 189.23 14.40Q188.95 14.06 188.52 13.96Q188.09 13.85 187.61 13.85L187.61 13.85L187.49 13.85L187.49 12.77L192.14 12.77L192.14 22.87Q192.14 23.62 192.42 23.96Q192.70 24.31 193.13 24.43Q193.56 24.55 194.04 24.55L194.04 24.55L194.35 24.55L194.35 25.63ZM190.73 10.44L190.73 10.44Q190.06 10.44 189.61 10.08Q189.17 9.72 189.17 8.88L189.17 8.88Q189.17 8.02 189.61 7.67Q190.06 7.32 190.73 7.32L190.73 7.32Q191.35 7.32 191.82 7.67Q192.29 8.02 192.29 8.88L192.29 8.88Q192.29 9.72 191.82 10.08Q191.35 10.44 190.73 10.44ZM206.78 25.87L206.78 25.87Q205.01 25.87 204 25.48Q202.99 25.08 202.57 24.49Q202.15 23.90 202.15 23.30L202.15 23.30Q202.15 22.61 202.56 22.22Q202.97 21.84 203.78 21.84L203.78 21.84Q203.78 22.51 204.08 23.10Q204.38 23.69 205.01 24.04Q205.63 24.38 206.62 24.38L206.62 24.38Q207.53 24.38 208.28 24.01Q209.04 23.64 209.47 22.76Q209.90 21.89 209.90 20.38L209.90 20.38Q209.90 18.53 208.94 17.62Q207.98 16.70 206.35 16.70L206.35 16.70Q205.20 16.70 204.59 16.86Q203.98 17.02 203.50 17.21L203.50 17.21L202.78 16.97L203.54 8.50L211.85 8.50L211.97 12.34L210.86 12.34L210.74 11.57Q210.65 11.09 210.42 10.85Q210.19 10.61 209.50 10.61L209.50 10.61L204.74 10.61L204.31 15.67Q204.67 15.55 205.38 15.43Q206.09 15.31 207.07 15.31L207.07 15.31Q208.70 15.31 209.98 15.88Q211.25 16.44 211.99 17.57Q212.74 18.70 212.74 20.38L212.74 20.38Q212.74 21.70 212.29 22.72Q211.85 23.74 211.06 24.44Q210.26 25.15 209.17 25.51Q208.08 25.87 206.78 25.87ZM221.06 25.87L221.06 25.87Q219.02 25.87 217.76 24.77Q216.50 23.66 215.93 21.67Q215.35 19.68 215.35 17.02L215.35 17.02Q215.35 14.35 215.93 12.38Q216.50 10.42 217.78 9.34Q219.05 8.26 221.09 8.26L221.09 8.26Q223.01 8.26 224.27 9.34Q225.53 10.42 226.14 12.40Q226.75 14.38 226.75 17.04L226.75 17.04Q226.75 19.70 226.14 21.68Q225.53 23.66 224.27 24.77Q223.01 25.87 221.06 25.87ZM221.06 24.50L221.06 24.50Q222.70 24.50 223.31 22.54Q223.92 20.57 223.92 17.04L223.92 17.04Q223.92 13.51 223.31 11.57Q222.70 9.62 221.09 9.62L221.09 9.62Q219.43 9.62 218.81 11.57Q218.18 13.51 218.18 17.04L218.18 17.04Q218.18 20.57 218.81 22.54Q219.43 24.50 221.06 24.50ZM234.48 25.87L234.48 25.87Q232.44 25.87 231.18 24.77Q229.92 23.66 229.34 21.67Q228.77 19.68 228.77 17.02L228.77 17.02Q228.77 14.35 229.34 12.38Q229.92 10.42 231.19 9.34Q232.46 8.26 234.50 8.26L234.50 8.26Q236.42 8.26 237.68 9.34Q238.94 10.42 239.56 12.40Q240.17 14.38 240.17 17.04L240.17 17.04Q240.17 19.70 239.56 21.68Q238.94 23.66 237.68 24.77Q236.42 25.87 234.48 25.87ZM234.48 24.50L234.48 24.50Q236.11 24.50 236.72 22.54Q237.34 20.57 237.34 17.04L237.34 17.04Q237.34 13.51 236.72 11.57Q236.11 9.62 234.50 9.62L234.50 9.62Q232.85 9.62 232.22 11.57Q231.60 13.51 231.60 17.04L231.60 17.04Q231.60 20.57 232.22 22.54Q232.85 24.50 234.48 24.50ZM254.74 25.63L248.04 25.63L248.04 24.55L248.18 24.55Q249 24.55 249.56 24.25Q250.13 23.95 250.13 22.85L250.13 22.85L250.13 15.46Q250.13 14.42 249.59 14.14Q249.05 13.85 248.26 13.85L248.26 13.85L248.16 13.85L248.16 12.77L252.36 12.77L252.67 14.64L252.79 14.64Q253.27 13.75 253.85 13.28Q254.42 12.82 255.08 12.66Q255.74 12.50 256.51 12.50L256.51 12.50Q258.41 12.50 259.46 13.62Q260.52 14.74 260.52 17.18L260.52 17.18L260.52 22.82Q260.52 23.95 260.99 24.25Q261.46 24.55 262.27 24.55L262.27 24.55L262.39 24.55L262.39 25.63L257.88 25.63L257.88 17.45Q257.88 15.89 257.34 15.04Q256.80 14.18 255.46 14.18L255.46 14.18Q254.45 14.18 253.86 14.72Q253.27 15.26 253.02 16.14Q252.77 17.02 252.77 18.02L252.77 18.02L252.77 22.97Q252.77 24 253.31 24.28Q253.85 24.55 254.64 24.55L254.64 24.55L254.74 24.55L254.74 25.63ZM270.05 25.87L270.05 25.87Q267.38 25.87 265.85 24.22Q264.31 22.56 264.31 19.18L264.31 19.18Q264.31 15.79 265.78 14.15Q267.24 12.50 270.12 12.50L270.12 12.50Q272.78 12.50 274.32 14.15Q275.86 15.79 275.86 19.18L275.86 19.18Q275.86 22.56 274.38 24.22Q272.90 25.87 270.05 25.87ZM270.10 24.55L270.10 24.55Q271.78 24.55 272.46 23.18Q273.14 21.82 273.14 19.18L273.14 19.18Q273.14 16.51 272.45 15.18Q271.75 13.85 270.07 13.85L270.07 13.85Q268.39 13.85 267.71 15.18Q267.02 16.51 267.02 19.18L267.02 19.18Q267.02 21.82 267.72 23.18Q268.42 24.55 270.10 24.55ZM285.07 25.63L277.82 25.63L277.82 24.55L277.90 24.55Q278.71 24.55 279.28 24.25Q279.84 23.95 279.84 22.82L279.84 22.82L279.84 15.48Q279.84 14.42 279.29 14.14Q278.74 13.85 277.94 13.85L277.94 13.85L277.87 13.85L277.87 12.77L281.88 12.77L282.34 15.00L282.46 15.00Q282.77 14.28 283.14 13.72Q283.51 13.15 284.12 12.83Q284.74 12.50 285.77 12.50L285.77 12.50Q287.11 12.50 287.76 12.98Q288.41 13.46 288.41 14.33L288.41 14.33Q288.41 15.17 287.82 15.68Q287.23 16.20 285.96 16.20L285.96 16.20Q285.96 15.22 285.68 14.75Q285.41 14.28 284.71 14.28L284.71 14.28Q284.04 14.28 283.61 14.78Q283.18 15.29 282.94 16.06Q282.70 16.82 282.59 17.64Q282.48 18.46 282.48 19.08L282.48 19.08L282.48 22.94Q282.48 24 283.04 24.28Q283.61 24.55 284.38 24.55L284.38 24.55L285.07 24.55L285.07 25.63ZM296.09 25.63L289.39 25.63L289.39 24.55L289.63 24.55Q290.45 24.55 290.96 24.25Q291.48 23.95 291.48 22.85L291.48 22.85L291.48 15.43Q291.48 14.40 290.96 14.11Q290.45 13.82 289.66 13.82L289.66 13.82L289.58 13.82L289.58 12.77L293.71 12.77L294.02 14.64L294.14 14.64Q294.62 13.75 295.19 13.28Q295.75 12.82 296.39 12.66Q297.02 12.50 297.79 12.50L297.79 12.50Q298.97 12.50 299.92 13.00Q300.86 13.49 301.30 14.64L301.30 14.64L301.51 14.64Q301.99 13.75 302.58 13.28Q303.17 12.82 303.85 12.66Q304.54 12.50 305.28 12.50L305.28 12.50Q307.13 12.50 308.17 13.62Q309.22 14.74 309.22 17.18L309.22 17.18L309.22 22.82Q309.22 23.95 309.70 24.25Q310.18 24.55 310.99 24.55L310.99 24.55L311.06 24.55L311.06 25.63L306.58 25.63L306.58 17.45Q306.58 15.89 306.05 15.04Q305.52 14.18 304.22 14.18L304.22 14.18Q303.29 14.18 302.74 14.68Q302.18 15.17 301.94 15.97Q301.70 16.78 301.70 17.71L301.70 17.71L301.70 22.82Q301.70 23.95 302.20 24.25Q302.69 24.55 303.48 24.55L303.48 24.55L303.55 24.55L303.55 25.63L299.06 25.63L299.06 17.45Q299.06 15.89 298.54 15.04Q298.01 14.18 296.71 14.18L296.71 14.18Q295.73 14.18 295.16 14.72Q294.60 15.26 294.36 16.14Q294.12 17.02 294.12 18.02L294.12 18.02L294.12 22.97Q294.12 24 294.67 24.28Q295.22 24.55 296.02 24.55L296.02 24.55L296.09 24.55L296.09 25.63ZM316.61 25.87L316.61 25.87Q315.02 25.87 313.96 24.92Q312.89 23.98 312.89 22.01L312.89 22.01Q312.89 20.09 314.23 19.16Q315.58 18.24 318.34 18.14L318.34 18.14L320.30 18.07L320.30 16.68Q320.30 15.82 320.17 15.17Q320.04 14.52 319.61 14.15Q319.18 13.78 318.29 13.78L318.29 13.78Q317.45 13.78 317.02 14.11Q316.58 14.45 316.42 15.05Q316.25 15.65 316.25 16.39L316.25 16.39Q315.10 16.39 314.50 16.04Q313.90 15.70 313.90 14.86L313.90 14.86Q313.90 14.02 314.50 13.50Q315.10 12.98 316.12 12.74Q317.14 12.50 318.38 12.50L318.38 12.50Q320.66 12.50 321.80 13.44Q322.94 14.38 322.94 16.63L322.94 16.63L322.94 22.82Q322.94 23.83 323.28 24.19Q323.62 24.55 324.43 24.55L324.43 24.55L324.50 24.55L324.50 25.63L320.93 25.63L320.52 23.69L320.30 23.69Q319.80 24.34 319.32 24.83Q318.84 25.32 318.22 25.60Q317.59 25.87 316.61 25.87ZM317.38 24.31L317.38 24.31Q318.72 24.31 319.51 23.42Q320.30 22.54 320.30 21.05L320.30 21.05L320.30 19.15L318.89 19.22Q317.04 19.30 316.32 20.03Q315.60 20.76 315.60 22.13L315.60 22.13Q315.60 24.31 317.38 24.31ZM332.83 25.63L325.80 25.63L325.80 24.55L326.11 24.55Q326.59 24.55 327.02 24.43Q327.46 24.31 327.73 23.96Q328.01 23.62 328.01 22.87L328.01 22.87L328.01 10.06Q328.01 9.36 327.73 9.02Q327.46 8.69 327.02 8.58Q326.59 8.47 326.11 8.47L326.11 8.47L325.80 8.47L325.80 7.39L330.65 7.39L330.65 22.87Q330.65 23.62 330.91 23.96Q331.18 24.31 331.61 24.43Q332.04 24.55 332.54 24.55L332.54 24.55L332.83 24.55L332.83 25.63Z"/></svg>