<svg xmlns="http://www.w3.org/2000/svg" xmlns:xlink="http://www.w3.org/1999/xlink" width="39.3515625" height="28.875"><path fill="black" d="M5.70 22.78L5.70 22.78Q4.34 22.78 3.19 22.31Q2.04 21.84 1.20 21.26L1.20 21.26L1.20 19.08Q2.11 19.71 3.29 20.21Q4.48 20.72 5.98 20.72L5.98 20.72Q7.15 20.72 8.04 20.13Q8.93 19.55 8.93 18.52L8.93 18.52Q8.93 17.93 8.57 17.51Q8.20 17.09 7.69 16.78Q7.17 16.48 6.68 16.27L6.68 16.27L4.08 15.09Q2.95 14.58 2.32 13.97Q1.69 13.36 1.43 12.62Q1.17 11.88 1.17 11.02L1.17 11.02Q1.17 9.77 1.89 8.78Q2.60 7.78 3.80 7.20Q4.99 6.61 6.38 6.61L6.38 6.61Q7.76 6.61 8.66 7.01Q9.56 7.41 10.24 7.85L10.24 7.85L10.24 10.03Q9.59 9.54 8.65 9.11Q7.71 8.67 6.61 8.67L6.61 8.67Q5.91 8.67 5.14 8.92Q4.38 9.16 3.87 9.70Q3.35 10.24 3.35 11.09L3.35 11.09Q3.35 12.02 4.03 12.52Q4.71 13.01 5.67 13.45L5.67 13.45L7.83 14.44Q9.45 15.16 10.27 16.05Q11.09 16.95 11.09 18.42L11.09 18.42Q11.09 19.71 10.34 20.68Q9.59 21.66 8.37 22.22Q7.15 22.78 5.70 22.78ZM19.55 22.90L19.55 22.90Q18.21 22.90 17.10 22.42Q15.98 21.94 15.15 21.08Q14.32 20.23 13.88 19.11Q13.43 18 13.43 16.76L13.43 16.76Q13.43 15.09 14.16 13.69Q14.88 12.28 16.16 11.44Q17.44 10.59 19.08 10.59L19.08 10.59Q20.88 10.59 22.08 11.34Q23.27 12.09 23.87 13.38Q24.47 14.67 24.47 16.29L24.47 16.29L24.47 17.44L15.23 17.44L15.23 15.80L22.57 15.80Q22.45 14.65 21.93 13.92Q21.40 13.20 20.65 12.83Q19.90 12.47 19.08 12.47L19.08 12.47Q17.95 12.47 17.13 13.07Q16.31 13.66 15.87 14.64Q15.42 15.61 15.42 16.76L15.42 16.76Q15.42 17.88 15.93 18.86Q16.43 19.83 17.37 20.43Q18.30 21.02 19.55 21.02L19.55 21.02Q20.81 21.02 21.90 20.38Q22.99 19.73 23.74 18.96L23.74 18.96L23.74 21.05Q23.41 21.45 22.77 21.88Q22.13 22.31 21.29 22.61Q20.46 22.90 19.55 22.90ZM37.71 22.55L35.79 22.55L35.77 15.59Q35.77 14.06 35.10 13.27Q34.43 12.47 33.05 12.47L33.05 12.47Q32.11 12.47 31.18 13.16Q30.26 13.85 29.55 14.77L29.55 14.77L29.55 12.68Q29.93 12.21 30.52 11.73Q31.10 11.25 31.84 10.92Q32.58 10.59 33.38 10.59L33.38 10.59Q34.57 10.59 35.55 11.12Q36.54 11.65 37.13 12.71Q37.71 13.78 37.71 15.40L37.71 15.40L37.71 22.55ZM29.55 22.55L27.63 22.55L27.63 10.83L29.55 10.83L29.55 22.55Z"/></svg>