<svg xmlns="http://www.w3.org/2000/svg" xmlns:xlink="http://www.w3.org/1999/xlink" width="203.928" height="28.560000000000002"><path fill="black" d="M8.95 22.80L8.28 22.80Q6.70 22.80 5.33 22.32Q3.96 21.84 2.93 20.92Q1.90 19.99 1.32 18.65Q0.74 17.30 0.74 15.60L0.74 15.60L0.74 13.06Q0.74 11.42 1.34 10.10Q1.94 8.78 3 7.84Q4.06 6.89 5.41 6.37Q6.77 5.86 8.26 5.86L8.26 5.86L8.93 5.86Q10.39 5.86 11.65 6.29Q12.91 6.72 13.85 7.60Q14.78 8.47 15.30 9.78Q15.82 11.09 15.82 12.84L15.82 12.84L11.09 12.84Q11.09 11.62 10.82 10.91Q10.56 10.20 10.00 9.90Q9.43 9.60 8.54 9.60L8.54 9.60Q7.99 9.60 7.55 9.78Q7.10 9.96 6.79 10.27Q6.48 10.58 6.31 11.03Q6.14 11.47 6.14 12.00L6.14 12.00L6.14 16.66Q6.14 17.35 6.42 17.90Q6.70 18.46 7.24 18.76Q7.78 19.06 8.54 19.06L8.54 19.06Q9.58 19.06 10.18 18.77Q10.78 18.48 11.04 17.78Q11.30 17.09 11.30 15.86L11.30 15.86L15.82 15.84Q15.82 17.45 15.30 18.74Q14.78 20.04 13.85 20.94Q12.91 21.84 11.66 22.32Q10.42 22.80 8.95 22.80L8.95 22.80ZM22.34 22.56L17.59 22.56L17.59 5.28L22.34 5.28L22.34 11.74Q23.04 10.92 23.84 10.49Q24.65 10.06 25.82 10.06L25.82 10.06Q27 10.06 27.85 10.54Q28.70 11.02 29.17 11.83Q29.64 12.65 29.64 13.66L29.64 13.66L29.64 22.56L24.89 22.56L24.89 14.88Q24.89 14.28 24.52 13.86Q24.14 13.44 23.62 13.44L23.62 13.44Q23.28 13.44 22.98 13.63Q22.68 13.82 22.51 14.15Q22.34 14.47 22.34 14.88L22.34 14.88L22.34 22.56ZM36.72 22.56L31.97 22.56L31.97 10.32L36.72 10.32L36.72 22.56ZM36.72 8.71L31.97 8.71L31.97 5.28L36.72 5.28L36.72 8.71ZM47.35 22.56L41.86 22.56L37.90 10.30L42.96 10.30L44.76 17.30L44.93 17.30L46.73 10.30L51.36 10.30L47.35 22.56ZM59.09 22.80L58.32 22.80Q56.50 22.80 55.06 22.02Q53.62 21.24 52.79 19.86Q51.96 18.48 51.96 16.68L51.96 16.68L51.96 16.18Q51.96 14.35 52.79 12.98Q53.62 11.62 55.06 10.84Q56.50 10.06 58.32 10.06L58.32 10.06L59.09 10.06Q60.91 10.06 62.35 10.84Q63.79 11.62 64.62 12.98Q65.45 14.35 65.45 16.18L65.45 16.18L65.45 16.68Q65.45 18.50 64.62 19.88Q63.79 21.26 62.35 22.03Q60.91 22.80 59.09 22.80L59.09 22.80ZM58.70 19.90L58.70 19.90Q59.18 19.90 59.56 19.67Q59.93 19.44 60.14 19.06Q60.36 18.67 60.36 18.22L60.36 18.22L60.36 14.64Q60.36 14.16 60.14 13.79Q59.93 13.42 59.56 13.19Q59.18 12.96 58.70 12.96L58.70 12.96Q58.25 12.96 57.86 13.19Q57.48 13.42 57.26 13.79Q57.05 14.16 57.05 14.64L57.05 14.64L57.05 18.22Q57.05 18.67 57.26 19.06Q57.48 19.44 57.86 19.67Q58.25 19.90 58.70 19.90ZM77.98 22.80L77.98 22.80Q76.08 22.80 74.70 22.14Q73.32 21.48 72.58 20.24Q71.83 19.01 71.83 17.28L71.83 17.28L76.10 17.28Q76.10 18.12 76.58 18.66Q77.06 19.20 77.88 19.20L77.88 19.20Q78.41 19.20 78.84 18.96Q79.27 18.72 79.54 18.31Q79.80 17.90 79.80 17.40L79.80 17.40L79.80 15.34Q79.18 16.01 78.32 16.30Q77.47 16.58 76.80 16.58L76.80 16.58Q75.31 16.58 74.09 16.03Q72.86 15.48 72.14 14.36Q71.42 13.25 71.42 11.62L71.42 11.62Q71.42 9.84 72.26 8.54Q73.10 7.25 74.58 6.55Q76.06 5.86 77.95 5.86L77.95 5.86Q79.87 5.86 81.36 6.62Q82.85 7.39 83.69 8.74Q84.53 10.08 84.53 11.86L84.53 11.86L84.53 16.80Q84.53 18.58 83.68 19.93Q82.82 21.29 81.35 22.04Q79.87 22.80 77.98 22.80ZM77.93 13.80L77.93 13.80Q78.60 13.80 79.01 13.52Q79.42 13.25 79.61 12.72Q79.80 12.19 79.80 11.50L79.80 11.50Q79.80 10.75 79.60 10.25Q79.39 9.74 78.97 9.48Q78.55 9.22 77.93 9.22L77.93 9.22Q77.28 9.22 76.86 9.49Q76.44 9.77 76.25 10.28Q76.06 10.80 76.06 11.52L76.06 11.52Q76.06 12.22 76.25 12.73Q76.44 13.25 76.86 13.52Q77.28 13.80 77.93 13.80ZM93.38 22.80L92.30 22.80Q90.65 22.80 89.28 22.00Q87.91 21.19 87.11 19.82Q86.30 18.46 86.30 16.80L86.30 16.80L86.30 11.86Q86.30 10.18 87.11 8.82Q87.91 7.46 89.28 6.66Q90.65 5.86 92.30 5.86L92.30 5.86L93.38 5.86Q95.06 5.86 96.42 6.66Q97.78 7.46 98.58 8.82Q99.38 10.18 99.38 11.86L99.38 11.86L99.38 16.80Q99.38 18.46 98.58 19.82Q97.78 21.19 96.42 22.00Q95.06 22.80 93.38 22.80L93.38 22.80ZM92.83 19.32L92.83 19.32Q93.36 19.32 93.76 19.06Q94.15 18.79 94.39 18.36Q94.63 17.93 94.63 17.40L94.63 17.40L94.63 11.23Q94.63 10.70 94.39 10.27Q94.15 9.84 93.76 9.58Q93.36 9.31 92.86 9.31L92.86 9.31Q92.35 9.31 91.94 9.58Q91.54 9.84 91.30 10.27Q91.06 10.70 91.06 11.23L91.06 11.23L91.06 17.40Q91.06 17.93 91.30 18.36Q91.54 18.79 91.94 19.06Q92.35 19.32 92.83 19.32ZM108.14 22.80L107.06 22.80Q105.41 22.80 104.04 22.00Q102.67 21.19 101.87 19.82Q101.06 18.46 101.06 16.80L101.06 16.80L101.06 11.86Q101.06 10.18 101.87 8.82Q102.67 7.46 104.04 6.66Q105.41 5.86 107.06 5.86L107.06 5.86L108.14 5.86Q109.82 5.86 111.18 6.66Q112.54 7.46 113.34 8.82Q114.14 10.18 114.14 11.86L114.14 11.86L114.14 16.80Q114.14 18.46 113.34 19.82Q112.54 21.19 111.18 22.00Q109.82 22.80 108.14 22.80L108.14 22.80ZM107.59 19.32L107.59 19.32Q108.12 19.32 108.52 19.06Q108.91 18.79 109.15 18.36Q109.39 17.93 109.39 17.40L109.39 17.40L109.39 11.23Q109.39 10.70 109.15 10.27Q108.91 9.84 108.52 9.58Q108.12 9.31 107.62 9.31L107.62 9.31Q107.11 9.31 106.70 9.58Q106.30 9.84 106.06 10.27Q105.82 10.70 105.82 11.23L105.82 11.23L105.82 17.40Q105.82 17.93 106.06 18.36Q106.30 18.79 106.70 19.06Q107.11 19.32 107.59 19.32ZM125.57 22.56L120.82 22.56L120.82 10.30L124.39 10.30L124.87 12.07Q125.66 11.02 126.61 10.54Q127.56 10.06 128.93 10.06L128.93 10.06Q130.15 10.06 131.04 10.52Q131.93 10.99 132.40 11.80Q132.86 12.60 132.86 13.66L132.86 13.66L132.86 22.56L128.11 22.56L128.11 14.88Q128.11 14.28 127.74 13.86Q127.37 13.44 126.84 13.44L126.84 13.44Q126.50 13.44 126.20 13.63Q125.90 13.82 125.74 14.15Q125.57 14.47 125.57 14.88L125.57 14.88L125.57 22.56ZM141.74 22.80L140.98 22.80Q139.15 22.80 137.71 22.02Q136.27 21.24 135.44 19.86Q134.62 18.48 134.62 16.68L134.62 16.68L134.62 16.18Q134.62 14.35 135.44 12.98Q136.27 11.62 137.71 10.84Q139.15 10.06 140.98 10.06L140.98 10.06L141.74 10.06Q143.57 10.06 145.01 10.84Q146.45 11.62 147.28 12.98Q148.10 14.35 148.10 16.18L148.10 16.18L148.10 16.68Q148.10 18.50 147.28 19.88Q146.45 21.26 145.01 22.03Q143.57 22.80 141.74 22.80L141.74 22.80ZM141.36 19.90L141.36 19.90Q141.84 19.90 142.21 19.67Q142.58 19.44 142.80 19.06Q143.02 18.67 143.02 18.22L143.02 18.22L143.02 14.64Q143.02 14.16 142.80 13.79Q142.58 13.42 142.21 13.19Q141.84 12.96 141.36 12.96L141.36 12.96Q140.90 12.96 140.52 13.19Q140.14 13.42 139.92 13.79Q139.70 14.16 139.70 14.64L139.70 14.64L139.70 18.22Q139.70 18.67 139.92 19.06Q140.14 19.44 140.52 19.67Q140.90 19.90 141.36 19.90ZM154.56 22.56L149.93 22.56L149.93 10.30L153.48 10.30L154.01 12.07Q154.08 11.93 154.31 11.60Q154.54 11.28 154.94 10.92Q155.35 10.56 155.93 10.31Q156.50 10.06 157.25 10.06L157.25 10.06Q158.42 10.06 159.16 10.48Q159.89 10.90 160.24 11.72Q160.58 12.55 160.58 13.75L160.58 13.75Q160.58 14.04 160.56 14.45Q160.54 14.86 160.49 15.26L160.49 15.26L156.60 15.26L156.60 14.69Q156.60 14.35 156.48 14.08Q156.36 13.80 156.14 13.64Q155.93 13.49 155.59 13.49L155.59 13.49Q155.35 13.49 155.15 13.58Q154.94 13.68 154.82 13.84Q154.70 13.99 154.63 14.21Q154.56 14.42 154.56 14.69L154.56 14.69L154.56 22.56ZM166.75 22.56L162.10 22.56L162.10 10.30L165.65 10.30L166.15 12.07Q166.85 11.16 167.64 10.61Q168.43 10.06 169.78 10.06L169.78 10.06Q170.98 10.06 171.85 10.48Q172.73 10.90 173.26 11.93L173.26 11.93Q173.88 10.87 174.74 10.46Q175.61 10.06 176.76 10.06L176.76 10.06Q177.98 10.06 178.86 10.52Q179.74 10.99 180.20 11.80Q180.67 12.60 180.67 13.66L180.67 13.66L180.67 22.56L176.02 22.56L176.02 14.78Q176.02 14.18 175.68 13.82Q175.34 13.46 174.86 13.46L174.86 13.46Q174.55 13.46 174.29 13.63Q174.02 13.80 173.87 14.09Q173.71 14.38 173.71 14.78L173.71 14.78L173.71 22.56L169.06 22.56L169.06 14.78Q169.06 14.18 168.72 13.82Q168.38 13.46 167.90 13.46L167.90 13.46Q167.59 13.46 167.33 13.63Q167.06 13.80 166.91 14.09Q166.75 14.38 166.75 14.78L166.75 14.78L166.75 22.56ZM186.24 22.80L186.24 22.80Q185.26 22.80 184.37 22.45Q183.48 22.10 182.93 21.34Q182.38 20.57 182.38 19.27L182.38 19.27Q182.38 18 182.93 17.16Q183.48 16.32 184.52 15.84Q185.57 15.36 187.06 15.17Q188.54 14.98 190.42 14.98L190.42 14.98L190.42 14.14Q190.42 13.44 189.96 13.14Q189.50 12.84 188.86 12.84L188.86 12.84Q188.16 12.84 187.74 13.15Q187.32 13.46 187.32 13.97L187.32 13.97L187.32 14.06L182.76 14.06Q182.74 14.02 182.74 13.92Q182.74 13.82 182.74 13.73L182.74 13.73Q182.74 12.70 183.43 11.87Q184.13 11.04 185.42 10.55Q186.72 10.06 188.50 10.06L188.50 10.06L189.29 10.06Q192.19 10.06 193.61 11.17Q195.02 12.29 195.02 13.94L195.02 13.94L195.02 19.01Q195.02 19.49 195.26 19.69Q195.50 19.90 195.77 19.90L195.77 19.90Q195.98 19.90 196.20 19.84Q196.42 19.78 196.61 19.68L196.61 19.68L196.61 22.25Q196.30 22.49 195.71 22.64Q195.12 22.80 194.18 22.80L194.18 22.80Q193.13 22.80 192.38 22.55Q191.64 22.30 191.22 21.86Q190.80 21.43 190.66 20.86L190.66 20.86Q190.03 21.58 188.96 22.19Q187.90 22.80 186.24 22.80ZM188.78 19.90L188.78 19.90Q189.22 19.90 189.59 19.69Q189.96 19.49 190.19 19.10Q190.42 18.72 190.42 18.22L190.42 18.22L190.42 17.16Q189.31 17.16 188.64 17.36Q187.97 17.57 187.66 17.92Q187.34 18.26 187.34 18.74L187.34 18.74Q187.34 19.44 187.79 19.67Q188.23 19.90 188.78 19.90ZM202.73 22.56L197.98 22.56L197.98 5.28L202.73 5.28L202.73 22.56Z"/></svg>