<svg xmlns="http://www.w3.org/2000/svg" xmlns:xlink="http://www.w3.org/1999/xlink" width="208.48800000000003" height="28.8"><path fill="black" d="M6.19 21.89L6.19 21.89Q4.49 21.89 3.24 21.41Q1.99 20.93 1.44 19.91Q0.89 18.89 1.25 17.26L1.25 17.26Q1.32 16.99 1.58 16.99L1.58 16.99L2.95 16.99Q3.26 16.99 3.19 17.28L3.19 17.28Q2.98 18.36 3.34 18.97Q3.70 19.58 4.50 19.85Q5.30 20.11 6.36 20.11L6.36 20.11Q8.16 20.11 9.10 19.43Q10.03 18.74 10.03 17.47L10.03 17.47Q10.03 16.87 9.83 16.45Q9.62 16.03 9.16 15.67Q8.69 15.31 7.90 14.95L7.90 14.95L5.06 13.61Q4.22 13.20 3.67 12.70Q3.12 12.19 2.84 11.51Q2.57 10.82 2.57 9.96L2.57 9.96Q2.57 7.85 4.08 6.73Q5.59 5.62 8.16 5.62L8.16 5.62Q9.72 5.62 10.92 6.10Q12.12 6.58 12.68 7.57Q13.25 8.57 12.94 10.13L12.94 10.13Q12.86 10.39 12.67 10.39L12.67 10.39L11.16 10.39Q10.94 10.39 10.97 10.10L10.97 10.10Q11.16 8.62 10.28 8.00Q9.41 7.39 7.94 7.39L7.94 7.39Q6.38 7.39 5.50 8.03Q4.61 8.66 4.61 9.79L4.61 9.79Q4.61 10.27 4.81 10.69Q5.02 11.11 5.42 11.45Q5.83 11.78 6.48 12.10L6.48 12.10L9.14 13.32Q10.18 13.78 10.84 14.36Q11.50 14.95 11.81 15.68Q12.12 16.42 12.12 17.35L12.12 17.35Q12.12 19.44 10.56 20.66Q9 21.89 6.19 21.89ZM19.01 21.89L19.01 21.89Q16.61 21.89 15.53 20.63Q14.45 19.37 14.83 16.97L14.83 16.97L15.31 14.06Q15.70 11.78 17.02 10.69Q18.34 9.60 20.69 9.60L20.69 9.60Q22.97 9.60 24.11 10.81Q25.25 12.02 24.89 14.45L24.89 14.45L24.46 17.30Q24.10 19.70 22.76 20.80Q21.43 21.89 19.01 21.89ZM19.20 20.09L19.20 20.09Q20.69 20.09 21.47 19.39Q22.25 18.70 22.49 17.11L22.49 17.11L22.87 14.69Q23.14 12.98 22.52 12.19Q21.91 11.40 20.50 11.40L20.50 11.40Q19.01 11.40 18.26 12.10Q17.52 12.79 17.26 14.35L17.26 14.35L16.85 16.82Q16.58 18.43 17.14 19.26Q17.69 20.09 19.20 20.09ZM31.78 8.62L31.58 9.89L34.99 9.89Q35.23 9.89 35.21 10.13L35.21 10.13L34.99 11.40Q34.94 11.64 34.73 11.64L34.73 11.64L31.32 11.64L29.95 20.18Q29.74 21.50 29.38 22.69Q29.02 23.88 28.49 24.80Q27.96 25.73 27.19 26.30L27.19 26.30Q27.05 26.42 26.88 26.26L26.88 26.26L25.80 25.37Q25.61 25.20 25.85 24.96L25.85 24.96Q26.38 24.46 26.80 23.74Q27.22 23.02 27.52 22.09Q27.82 21.17 27.98 20.04L27.98 20.04L29.30 11.64L27.50 11.64Q27.29 11.64 27.31 11.40L27.31 11.40L27.50 10.13Q27.55 9.89 27.77 9.89L27.77 9.89L29.59 9.89L29.81 8.52Q30.07 6.74 31.13 5.83Q32.18 4.92 34.01 4.92L34.01 4.92Q34.61 4.92 35.27 5.04Q35.93 5.16 36.46 5.42L36.46 5.42Q36.65 5.52 36.60 5.74L36.60 5.74L36.41 7.06Q36.36 7.30 36.12 7.18L36.12 7.18Q35.62 6.91 35.14 6.80Q34.66 6.70 33.98 6.70L33.98 6.70Q33.02 6.70 32.47 7.16Q31.92 7.63 31.78 8.62L31.78 8.62ZM37.39 21.60L35.86 21.60Q35.62 21.60 35.66 21.36L35.66 21.36L37.44 10.13Q37.49 9.89 37.73 9.89L37.73 9.89L39.22 9.89Q39.48 9.89 39.46 10.13L39.46 10.13L37.66 21.36Q37.61 21.60 37.39 21.60L37.39 21.60ZM38.74 7.92L38.74 7.92Q38.06 7.92 37.79 7.56Q37.51 7.20 37.56 6.60L37.56 6.60L37.58 6.36Q37.66 5.71 37.97 5.38Q38.28 5.04 38.95 5.04L38.95 5.04Q39.65 5.04 39.91 5.40Q40.18 5.76 40.13 6.36L40.13 6.36L40.10 6.60Q40.03 7.25 39.72 7.58Q39.41 7.92 38.74 7.92ZM44.26 21.89L44.26 21.89Q43.01 21.89 42.36 21.29Q41.71 20.69 41.53 19.63Q41.35 18.58 41.57 17.23L41.57 17.23L42.05 14.21Q42.46 11.71 43.70 10.66Q44.95 9.60 47.35 9.60L47.35 9.60Q48.60 9.60 49.67 9.85Q50.74 10.10 52.13 10.20L52.13 10.20L50.78 18.67Q50.69 19.32 50.60 20.00Q50.52 20.69 50.52 21.36L50.52 21.36Q50.52 21.60 50.23 21.60L50.23 21.60L48.91 21.60Q48.67 21.60 48.67 21.36L48.67 21.36Q48.67 20.98 48.70 20.57Q48.72 20.16 48.74 19.75L48.74 19.75Q47.64 20.81 46.48 21.35Q45.31 21.89 44.26 21.89ZM45.02 20.09L45.02 20.09Q45.84 20.09 46.74 19.62Q47.64 19.15 48.89 18.05L48.89 18.05L49.90 11.66Q49.32 11.54 48.60 11.47Q47.88 11.40 47.35 11.40L47.35 11.40Q45.74 11.40 45.01 12.12Q44.28 12.84 44.02 14.38L44.02 14.38L43.54 17.30Q43.34 18.55 43.63 19.32Q43.92 20.09 45.02 20.09ZM64.03 21.89L64.03 21.89Q62.33 21.89 61.08 21.41Q59.83 20.93 59.28 19.91Q58.73 18.89 59.09 17.26L59.09 17.26Q59.16 16.99 59.42 16.99L59.42 16.99L60.79 16.99Q61.10 16.99 61.03 17.28L61.03 17.28Q60.82 18.36 61.18 18.97Q61.54 19.58 62.34 19.85Q63.14 20.11 64.20 20.11L64.20 20.11Q66 20.11 66.94 19.43Q67.87 18.74 67.87 17.47L67.87 17.47Q67.87 16.87 67.67 16.45Q67.46 16.03 67.00 15.67Q66.53 15.31 65.74 14.95L65.74 14.95L62.90 13.61Q62.06 13.20 61.51 12.70Q60.96 12.19 60.68 11.51Q60.41 10.82 60.41 9.96L60.41 9.96Q60.41 7.85 61.92 6.73Q63.43 5.62 66 5.62L66 5.62Q67.56 5.62 68.76 6.10Q69.96 6.58 70.52 7.57Q71.09 8.57 70.78 10.13L70.78 10.13Q70.70 10.39 70.51 10.39L70.51 10.39L69 10.39Q68.78 10.39 68.81 10.10L68.81 10.10Q69 8.62 68.12 8.00Q67.25 7.39 65.78 7.39L65.78 7.39Q64.22 7.39 63.34 8.03Q62.45 8.66 62.45 9.79L62.45 9.79Q62.45 10.27 62.65 10.69Q62.86 11.11 63.26 11.45Q63.67 11.78 64.32 12.10L64.32 12.10L66.98 13.32Q68.02 13.78 68.68 14.36Q69.34 14.95 69.65 15.68Q69.96 16.42 69.96 17.35L69.96 17.35Q69.96 19.44 68.40 20.66Q66.84 21.89 64.03 21.89ZM75.31 21.89L75.31 21.89Q74.06 21.89 73.42 21.29Q72.77 20.69 72.59 19.63Q72.41 18.58 72.62 17.23L72.62 17.23L73.10 14.21Q73.51 11.71 74.76 10.66Q76.01 9.60 78.41 9.60L78.41 9.60Q79.66 9.60 80.72 9.85Q81.79 10.10 83.18 10.20L83.18 10.20L81.84 18.67Q81.74 19.32 81.66 20.00Q81.58 20.69 81.58 21.36L81.58 21.36Q81.58 21.60 81.29 21.60L81.29 21.60L79.97 21.60Q79.73 21.60 79.73 21.36L79.73 21.36Q79.73 20.98 79.75 20.57Q79.78 20.16 79.80 19.75L79.80 19.75Q78.70 20.81 77.53 21.35Q76.37 21.89 75.31 21.89ZM76.08 20.09L76.08 20.09Q76.90 20.09 77.80 19.62Q78.70 19.15 79.94 18.05L79.94 18.05L80.95 11.66Q80.38 11.54 79.66 11.47Q78.94 11.40 78.41 11.40L78.41 11.40Q76.80 11.40 76.07 12.12Q75.34 12.84 75.07 14.38L75.07 14.38L74.59 17.30Q74.40 18.55 74.69 19.32Q74.98 20.09 76.08 20.09ZM94.22 21.60L92.69 21.60Q92.45 21.60 92.50 21.36L92.50 21.36L93.70 13.75Q94.06 11.40 92.09 11.40L92.09 11.40Q91.46 11.40 90.84 11.63Q90.22 11.86 89.47 12.40Q88.73 12.94 87.70 13.85L87.70 13.85L88.01 12.00Q89.18 10.85 90.36 10.22Q91.54 9.60 92.86 9.60L92.86 9.60Q94.51 9.60 95.28 10.63Q96.05 11.66 95.71 13.66L95.71 13.66L94.49 21.36Q94.44 21.60 94.22 21.60L94.22 21.60ZM86.66 21.60L85.13 21.60Q84.89 21.60 84.94 21.36L84.94 21.36L86.28 12.82Q86.40 12.19 86.47 11.39Q86.54 10.58 86.54 10.15L86.54 10.15Q86.54 9.89 86.83 9.89L86.83 9.89L88.22 9.89Q88.46 9.89 88.49 10.13L88.49 10.13Q88.51 10.32 88.49 10.73Q88.46 11.14 88.44 11.58Q88.42 12.02 88.37 12.34L88.37 12.34L88.30 12.77L86.93 21.36Q86.90 21.46 86.84 21.53Q86.78 21.60 86.66 21.60L86.66 21.60ZM101.76 21.89L101.76 21.89Q99.65 21.89 98.63 20.98Q97.61 20.06 97.97 18.17L97.97 18.17Q98.02 17.88 98.26 17.88L98.26 17.88L99.79 17.88Q100.03 17.88 99.98 18.17L99.98 18.17Q99.82 19.25 100.34 19.68Q100.87 20.11 102.05 20.11L102.05 20.11Q104.54 20.11 104.54 18.41L104.54 18.41Q104.54 17.93 104.29 17.59Q104.04 17.26 103.42 16.97L103.42 16.97L100.94 15.82Q99.94 15.34 99.46 14.63Q98.98 13.92 98.98 12.94L98.98 12.94Q98.98 11.35 100.13 10.48Q101.28 9.60 103.34 9.60L103.34 9.60Q105.31 9.60 106.37 10.40Q107.42 11.21 107.16 12.84L107.16 12.84Q107.11 13.08 106.92 13.08L106.92 13.08L105.34 13.08Q105.12 13.08 105.14 12.84L105.14 12.84Q105.24 12.10 104.71 11.74Q104.18 11.38 103.13 11.38L103.13 11.38Q100.99 11.38 100.99 12.77L100.99 12.77Q100.99 13.25 101.27 13.57Q101.54 13.90 102.22 14.21L102.22 14.21L104.62 15.36Q105.65 15.86 106.12 16.54Q106.58 17.21 106.58 18.19L106.58 18.19Q106.58 19.92 105.30 20.90Q104.02 21.89 101.76 21.89ZM122.14 21.60L120.67 21.60Q120.43 21.60 120.48 21.36L120.48 21.36L120.91 18.50L113.11 18.50Q112.87 18.50 112.92 18.26L112.92 18.26L112.94 18.10Q112.97 18.02 112.99 17.94Q113.02 17.86 113.06 17.78L113.06 17.78L121.25 6.07Q121.37 5.88 121.58 5.88L121.58 5.88L123.26 5.88Q123.38 5.88 123.44 5.96Q123.50 6.05 123.43 6.14L123.43 6.14L116.06 16.66L121.25 16.66L122.06 11.40Q122.11 11.16 122.35 11.16L122.35 11.16L123.77 11.16Q124.03 11.16 123.98 11.40L123.98 11.40L123.14 16.66L124.92 16.66Q125.18 16.66 125.14 16.90L125.14 16.90L124.92 18.26Q124.87 18.50 124.63 18.50L124.63 18.50L122.86 18.50L122.40 21.36Q122.35 21.60 122.14 21.60L122.14 21.60ZM132 21.89L132 21.89Q129.53 21.89 128.35 20.42Q127.18 18.96 127.56 16.39L127.56 16.39L128.40 10.99Q128.83 8.23 130.37 6.91Q131.90 5.59 134.38 5.59L134.38 5.59Q136.85 5.59 138.05 7.06Q139.25 8.52 138.84 11.09L138.84 11.09L138 16.49Q137.57 19.25 136.02 20.57Q134.47 21.89 132 21.89ZM132.26 20.09L132.26 20.09Q133.78 20.09 134.75 19.19Q135.72 18.29 135.96 16.68L135.96 16.68L136.87 10.90Q137.14 9.26 136.39 8.33Q135.65 7.39 134.14 7.39L134.14 7.39Q132.60 7.39 131.65 8.28Q130.70 9.17 130.44 10.80L130.44 10.80L129.53 16.58Q129.29 18.19 130.01 19.14Q130.73 20.09 132.26 20.09ZM146.02 21.89L146.02 21.89Q143.54 21.89 142.37 20.42Q141.19 18.96 141.58 16.39L141.58 16.39L142.42 10.99Q142.85 8.23 144.38 6.91Q145.92 5.59 148.39 5.59L148.39 5.59Q150.86 5.59 152.06 7.06Q153.26 8.52 152.86 11.09L152.86 11.09L152.02 16.49Q151.58 19.25 150.04 20.57Q148.49 21.89 146.02 21.89ZM146.28 20.09L146.28 20.09Q147.79 20.09 148.76 19.19Q149.74 18.29 149.98 16.68L149.98 16.68L150.89 10.90Q151.15 9.26 150.41 8.33Q149.66 7.39 148.15 7.39L148.15 7.39Q146.62 7.39 145.67 8.28Q144.72 9.17 144.46 10.80L144.46 10.80L143.54 16.58Q143.30 18.19 144.02 19.14Q144.74 20.09 146.28 20.09ZM161.54 21.60L160.01 21.60Q159.77 21.60 159.82 21.36L159.82 21.36L161.59 10.13Q161.64 9.89 161.88 9.89L161.88 9.89L163.37 9.89Q163.63 9.89 163.61 10.13L163.61 10.13L161.81 21.36Q161.76 21.60 161.54 21.60L161.54 21.60ZM162.89 7.92L162.89 7.92Q162.22 7.92 161.94 7.56Q161.66 7.20 161.71 6.60L161.71 6.60L161.74 6.36Q161.81 5.71 162.12 5.38Q162.43 5.04 163.10 5.04L163.10 5.04Q163.80 5.04 164.06 5.40Q164.33 5.76 164.28 6.36L164.28 6.36L164.26 6.60Q164.18 7.25 163.87 7.58Q163.56 7.92 162.89 7.92ZM169.32 21.89L169.32 21.89Q167.52 21.89 166.93 20.90Q166.34 19.92 166.63 18.12L166.63 18.12L167.66 11.64L165.84 11.64Q165.60 11.64 165.65 11.40L165.65 11.40L165.84 10.13Q165.89 9.89 166.13 9.89L166.13 9.89L167.98 9.89L168.70 7.01Q168.77 6.77 168.98 6.77L168.98 6.77L170.16 6.77Q170.42 6.77 170.35 7.01L170.35 7.01L169.92 9.89L173.42 9.89Q173.69 9.89 173.64 10.13L173.64 10.13L173.42 11.40Q173.38 11.64 173.16 11.64L173.16 11.64L169.66 11.64L168.62 18.07Q168.46 19.20 168.74 19.66Q169.03 20.11 169.97 20.11L169.97 20.11Q170.47 20.11 170.98 20.00Q171.48 19.90 171.86 19.73L171.86 19.73Q172.15 19.61 172.10 19.90L172.10 19.90L171.89 21.22Q171.86 21.38 171.67 21.48L171.67 21.48Q171.22 21.67 170.64 21.78Q170.06 21.89 169.32 21.89ZM177.50 21.89L177.50 21.89Q176.26 21.89 175.61 21.29Q174.96 20.69 174.78 19.63Q174.60 18.58 174.82 17.23L174.82 17.23L175.30 14.21Q175.70 11.71 176.95 10.66Q178.20 9.60 180.60 9.60L180.60 9.60Q181.85 9.60 182.92 9.85Q183.98 10.10 185.38 10.20L185.38 10.20L184.03 18.67Q183.94 19.32 183.85 20.00Q183.77 20.69 183.77 21.36L183.77 21.36Q183.77 21.60 183.48 21.60L183.48 21.60L182.16 21.60Q181.92 21.60 181.92 21.36L181.92 21.36Q181.92 20.98 181.94 20.57Q181.97 20.16 181.99 19.75L181.99 19.75Q180.89 20.81 179.72 21.35Q178.56 21.89 177.50 21.89ZM178.27 20.09L178.27 20.09Q179.09 20.09 179.99 19.62Q180.89 19.15 182.14 18.05L182.14 18.05L183.14 11.66Q182.57 11.54 181.85 11.47Q181.13 11.40 180.60 11.40L180.60 11.40Q178.99 11.40 178.26 12.12Q177.53 12.84 177.26 14.38L177.26 14.38L176.78 17.30Q176.59 18.55 176.88 19.32Q177.17 20.09 178.27 20.09ZM188.86 21.60L187.32 21.60Q187.08 21.60 187.13 21.36L187.13 21.36L189.65 5.45Q189.70 5.21 189.91 5.21L189.91 5.21L191.45 5.21Q191.69 5.21 191.64 5.45L191.64 5.45L189.12 21.36Q189.10 21.46 189.04 21.53Q188.98 21.60 188.86 21.60L188.86 21.60ZM194.38 21.60L192.84 21.60Q192.60 21.60 192.65 21.36L192.65 21.36L194.42 10.13Q194.47 9.89 194.71 9.89L194.71 9.89L196.20 9.89Q196.46 9.89 196.44 10.13L196.44 10.13L194.64 21.36Q194.59 21.60 194.38 21.60L194.38 21.60ZM195.72 7.92L195.72 7.92Q195.05 7.92 194.77 7.56Q194.50 7.20 194.54 6.60L194.54 6.60L194.57 6.36Q194.64 5.71 194.95 5.38Q195.26 5.04 195.94 5.04L195.94 5.04Q196.63 5.04 196.90 5.40Q197.16 5.76 197.11 6.36L197.11 6.36L197.09 6.60Q197.02 7.25 196.70 7.58Q196.39 7.92 195.72 7.92ZM202.78 21.89L202.78 21.89Q200.38 21.89 199.30 20.65Q198.22 19.42 198.58 17.16L198.58 17.16L199.06 14.21Q199.44 11.93 200.71 10.76Q201.98 9.60 204.46 9.60L204.46 9.60Q205.82 9.60 206.82 10.03Q207.82 10.46 208.27 11.28Q208.73 12.10 208.46 13.30L208.46 13.30Q208.39 13.56 208.18 13.56L208.18 13.56L206.69 13.56Q206.45 13.56 206.50 13.30L206.50 13.30Q206.64 12.34 205.99 11.87Q205.34 11.40 204.22 11.40L204.22 11.40Q202.68 11.40 201.97 12.14Q201.26 12.89 201.00 14.45L201.00 14.45L200.59 17.04Q200.35 18.60 200.95 19.34Q201.55 20.09 202.99 20.09L202.99 20.09Q204.26 20.09 204.90 19.57Q205.54 19.06 205.68 18.22L205.68 18.22Q205.70 17.95 205.94 17.95L205.94 17.95L207.46 17.95Q207.70 17.95 207.65 18.22L207.65 18.22Q207.48 19.94 206.20 20.92Q204.91 21.89 202.78 21.89Z"/></svg>