<svg xmlns="http://www.w3.org/2000/svg" xmlns:xlink="http://www.w3.org/1999/xlink" width="68.856" height="27.84"><path fill="black" d="M8.52 22.46L8.52 22.46Q7.15 22.46 6.32 21.55Q5.50 20.64 5.50 19.18L5.50 19.18Q5.50 17.71 6.48 15.92Q7.46 14.14 9.72 12.38L9.72 12.38Q10.82 11.54 11.99 10.99Q13.15 10.44 13.97 10.08L13.97 10.08Q13.44 9.89 12.92 9.67Q12.41 9.46 11.98 9.29L11.98 9.29Q10.58 8.71 9.14 8.23Q7.70 7.75 6.22 7.75L6.22 7.75Q5.83 7.75 5.44 7.80Q5.04 7.85 4.63 7.94L4.63 7.94Q3.07 8.33 2.24 9.37Q1.42 10.42 1.42 11.62L1.42 11.62Q1.42 12.79 2.23 13.85Q3.05 14.90 4.73 15.41L4.73 15.41Q4.80 15.43 4.80 15.53L4.80 15.53Q4.80 15.70 4.66 15.67L4.66 15.67Q2.74 15.10 1.79 13.84Q0.84 12.58 0.84 11.26L0.84 11.26Q0.84 9.91 1.76 8.77Q2.69 7.63 4.51 7.30L4.51 7.30Q4.85 7.22 5.20 7.20Q5.54 7.18 5.88 7.18L5.88 7.18Q7.44 7.18 8.93 7.72Q10.42 8.26 11.93 8.88L11.93 8.88Q12.55 9.14 13.15 9.40Q13.75 9.65 14.35 9.89L14.35 9.89Q14.47 9.86 14.56 9.86Q14.64 9.86 14.71 9.86L14.71 9.86Q15.14 9.86 15.37 10.01Q15.60 10.15 15.60 10.27L15.60 10.27Q15.60 10.44 15.26 10.44L15.26 10.44Q15.10 10.44 14.88 10.39Q14.66 10.34 14.38 10.22L14.38 10.22Q13.51 10.68 12.30 11.30Q11.09 11.93 9.94 12.86L9.94 12.86Q7.99 14.45 7.12 16.12Q6.24 17.78 6.24 19.13L6.24 19.13Q6.24 20.38 6.91 21.18Q7.58 21.98 8.76 21.98L8.76 21.98Q9.67 21.98 10.75 21.46L10.75 21.46Q12.31 20.69 13.48 19.31Q14.64 17.93 16.03 15.89L16.03 15.89Q16.01 15.24 16.13 14.71Q16.25 14.18 16.49 13.87L16.49 13.87Q16.61 13.73 16.81 13.62Q17.02 13.51 17.14 13.61L17.14 13.61Q17.30 13.75 17.30 13.97L17.30 13.97Q17.30 14.33 17.04 14.81Q16.78 15.29 16.56 15.62L16.56 15.62Q16.51 15.86 16.49 16.13Q16.46 16.39 16.46 16.66L16.46 16.66Q16.46 17.52 16.69 18.40Q16.92 19.27 17.34 20.02Q17.76 20.76 18.34 21.22Q18.91 21.67 19.61 21.67L19.61 21.67Q20.21 21.67 20.87 21.30Q21.53 20.93 22.22 20.06L22.22 20.06Q22.99 19.15 23.57 17.89Q24.14 16.63 24.46 15.38L24.46 15.38Q24.82 13.94 24.82 12.70L24.82 12.70Q24.82 11.02 24.24 10.06L24.24 10.06Q23.90 9.98 23.60 9.79Q23.30 9.60 23.11 9.29L23.11 9.29Q23.09 9.26 23.09 9.19L23.09 9.19Q23.09 9.07 23.17 9.01Q23.26 8.95 23.35 9L23.35 9Q24 9.17 24.43 9.65L24.43 9.65Q24.70 9.72 24.95 9.74Q25.20 9.77 25.44 9.77L25.44 9.77Q25.66 9.77 25.86 9.74Q26.06 9.72 26.30 9.72L26.30 9.72L26.33 9.72Q26.47 9.72 26.47 9.82L26.47 9.82Q26.47 9.94 26.30 9.96L26.30 9.96Q25.94 10.06 25.55 10.10Q25.15 10.15 24.77 10.13L24.77 10.13Q25.13 10.75 25.30 11.54Q25.46 12.34 25.46 13.20L25.46 13.20Q25.46 14.28 25.20 15.46L25.20 15.46Q24.89 16.87 24.20 18.20Q23.52 19.54 22.58 20.47L22.58 20.47Q21.77 21.29 20.96 21.66Q20.16 22.03 19.44 22.03L19.44 22.03Q18.41 22.03 17.58 21.35Q16.75 20.66 16.30 19.48Q15.84 18.29 15.84 16.80L15.84 16.80Q15.14 17.76 14.48 18.68Q13.82 19.61 12.95 20.42Q12.07 21.24 10.73 21.89L10.73 21.89Q9.55 22.46 8.52 22.46ZM30.17 21.29L30.17 21.29Q29.74 21.29 29.53 21Q29.33 20.71 29.33 20.26L29.33 20.26Q29.33 19.94 29.40 19.63L29.40 19.63Q29.42 19.58 29.47 19.40Q29.52 19.22 29.62 18.98L29.62 18.98Q29.28 19.51 28.76 20.15Q28.25 20.78 27.62 21.10L27.62 21.10Q27.26 21.26 26.90 21.26L26.90 21.26Q26.42 21.26 26.14 20.89Q25.85 20.52 25.85 19.85L25.85 19.85Q25.85 19.30 26.09 18.66Q26.33 18.02 26.78 17.35L26.78 17.35Q27.07 16.92 27.53 16.51Q27.98 16.10 28.51 15.84Q29.04 15.58 29.52 15.58L29.52 15.58Q30 15.58 30.34 15.84Q30.67 16.10 30.70 16.63L30.70 16.63Q30.70 16.70 30.64 16.74Q30.58 16.78 30.53 16.68L30.53 16.68Q30.24 16.03 29.59 16.03L29.59 16.03Q29.16 16.03 28.68 16.43Q28.20 16.82 27.74 17.42Q27.29 18.02 26.95 18.62L26.95 18.62Q26.66 19.15 26.53 19.58Q26.40 20.02 26.40 20.33L26.40 20.33Q26.40 20.98 26.90 20.98L26.90 20.98Q27.17 20.98 27.48 20.81L27.48 20.81Q27.77 20.64 28.19 20.21Q28.61 19.78 29.03 19.25Q29.45 18.72 29.80 18.22Q30.14 17.71 30.31 17.42L30.31 17.42Q30.67 16.82 31.06 16.37Q31.44 15.91 31.82 15.91L31.82 15.91Q32.02 15.91 32.02 16.01L32.02 16.01Q32.02 16.10 31.92 16.20L31.92 16.20Q31.44 16.78 31.02 17.56Q30.60 18.34 30.32 19.03Q30.05 19.73 30 20.09L30 20.09Q29.93 20.86 30.46 20.86L30.46 20.86Q30.53 20.86 30.60 20.84Q30.67 20.83 30.77 20.81L30.77 20.81Q31.27 20.64 31.75 20.18Q32.23 19.73 32.64 19.19Q33.05 18.65 33.31 18.24L33.31 18.24Q33.38 18.14 33.43 18.14L33.43 18.14Q33.50 18.14 33.50 18.26L33.50 18.26Q33.50 18.34 33.43 18.46L33.43 18.46Q33.26 18.70 33.12 18.92Q32.98 19.15 32.83 19.34L32.83 19.34Q32.78 19.44 32.71 19.51Q32.64 19.58 32.57 19.68L32.57 19.68Q32.26 20.06 31.76 20.51Q31.27 20.95 30.79 21.14L30.79 21.14Q30.43 21.29 30.17 21.29ZM33.46 21.29L33.46 21.29Q33.02 21.29 32.83 21Q32.64 20.71 32.64 20.28L32.64 20.28Q32.64 19.94 32.71 19.63L32.71 19.63Q32.78 19.30 33.17 18.52Q33.55 17.74 34.01 16.87L34.01 16.87Q33.77 16.97 33.49 17.08Q33.22 17.18 33.10 17.30L33.10 17.30Q33 17.35 32.98 17.35L32.98 17.35Q32.90 17.35 32.90 17.26L32.90 17.26Q32.90 17.04 33.17 16.85L33.17 16.85Q33.43 16.66 33.68 16.58Q33.94 16.51 34.27 16.42L34.27 16.42Q34.54 15.94 34.84 15.42Q35.14 14.90 35.38 14.52L35.38 14.52Q35.54 14.28 35.86 13.91Q36.17 13.54 36.55 13.30L36.55 13.30Q36.77 13.15 37.13 13.15L37.13 13.15Q37.39 13.15 37.42 13.25L37.42 13.25Q37.06 13.34 36.68 13.73Q36.31 14.11 35.98 14.62Q35.64 15.12 35.40 15.56Q35.16 16.01 35.04 16.25L35.04 16.25Q35.54 16.18 35.88 16.18L35.88 16.18Q36.07 16.18 36.22 16.19Q36.36 16.20 36.46 16.22L36.46 16.22Q36.65 16.25 36.65 16.34L36.65 16.34Q36.65 16.44 36.41 16.44L36.41 16.44Q36.22 16.44 35.96 16.44Q35.71 16.44 35.42 16.49L35.42 16.49Q35.21 16.51 34.98 16.63Q34.75 16.75 34.68 16.90L34.68 16.90Q34.15 17.86 33.74 18.74Q33.34 19.63 33.29 20.09L33.29 20.09Q33.22 20.86 33.74 20.86L33.74 20.86Q34.27 20.86 34.81 20.39Q35.35 19.92 35.83 19.30Q36.31 18.67 36.60 18.24L36.60 18.24Q36.70 18.14 36.72 18.14L36.72 18.14Q36.79 18.14 36.79 18.26L36.79 18.26Q36.79 18.36 36.72 18.48L36.72 18.48Q36.31 19.10 35.78 19.75Q35.26 20.40 34.67 20.84Q34.08 21.29 33.46 21.29ZM38.16 21.31L38.16 21.31Q37.18 21.31 36.72 20.87Q36.26 20.42 36.26 19.68L36.26 19.68Q36.26 19.49 36.30 19.28Q36.34 19.08 36.38 18.86L36.38 18.86Q36.50 18.43 36.78 17.86Q37.06 17.28 37.46 16.73Q37.87 16.18 38.35 15.82Q38.83 15.46 39.36 15.46L39.36 15.46Q39.79 15.46 40.02 15.77Q40.25 16.08 40.25 16.51L40.25 16.51Q40.25 16.97 39.97 17.44Q39.70 17.90 39.24 18.19L39.24 18.19Q38.71 18.55 38.04 18.55L38.04 18.55Q37.61 18.55 37.25 18.38L37.25 18.38Q36.89 19.10 36.89 19.80L36.89 19.80Q36.89 20.30 37.18 20.66Q37.46 21.02 38.14 21.02L38.14 21.02Q38.95 21.02 39.58 20.63Q40.20 20.23 40.74 19.58Q41.28 18.94 41.78 18.19L41.78 18.19Q41.86 18.12 41.88 18.12L41.88 18.12Q41.95 18.12 41.95 18.24L41.95 18.24Q41.95 18.36 41.88 18.48L41.88 18.48Q41.45 19.15 40.91 19.80Q40.37 20.45 39.70 20.88Q39.02 21.31 38.16 21.31ZM37.80 18.22L37.80 18.22Q38.42 18.22 38.98 17.78L38.98 17.78Q39.24 17.59 39.43 17.33Q39.62 17.06 39.70 16.80L39.70 16.80Q39.77 16.54 39.77 16.34L39.77 16.34Q39.77 15.79 39.36 15.79L39.36 15.79Q39.10 15.79 38.76 16.10L38.76 16.10Q38.47 16.37 38.17 16.78Q37.87 17.18 37.66 17.56Q37.44 17.93 37.37 18.10L37.37 18.10Q37.54 18.22 37.80 18.22ZM43.68 21.26L43.68 21.26Q43.27 21.26 43.04 20.99Q42.82 20.71 42.82 20.33L42.82 20.33Q42.82 19.97 42.98 19.63L42.98 19.63Q43.25 19.08 43.67 18.54Q44.09 18 44.45 17.59L44.45 17.59Q44.69 17.28 44.69 17.06L44.69 17.06Q44.69 16.78 44.33 16.49L44.33 16.49Q44.04 16.30 43.80 15.98L43.80 15.98Q43.63 15.74 43.56 15.50L43.56 15.50Q43.18 16.30 42.59 17.34Q42 18.38 41.38 19.20L41.38 19.20Q41.28 19.34 41.18 19.34L41.18 19.34Q41.11 19.34 41.11 19.25L41.11 19.25Q41.11 19.20 41.14 19.15Q41.16 19.10 41.28 18.94L41.28 18.94Q41.90 18.07 42.29 17.33Q42.67 16.58 42.96 15.94L42.96 15.94L43.49 14.76Q43.51 14.71 43.55 14.63Q43.58 14.54 43.61 14.52L43.61 14.52Q43.66 14.47 43.70 14.47L43.70 14.47Q43.80 14.47 43.85 14.57Q43.90 14.66 43.85 14.81L43.85 14.81Q43.80 15.07 43.92 15.34Q44.04 15.60 44.23 15.82L44.23 15.82Q44.42 16.01 44.78 16.18Q45.14 16.34 45.43 16.56Q45.72 16.78 45.65 17.11L45.65 17.11Q45.55 17.57 45.14 18Q44.74 18.43 44.33 18.91L44.33 18.91Q44.04 19.22 43.81 19.54Q43.58 19.85 43.46 20.18L43.46 20.18Q43.44 20.26 43.43 20.33Q43.42 20.40 43.42 20.47L43.42 20.47Q43.42 20.90 43.87 20.90L43.87 20.90Q44.02 20.90 44.23 20.83L44.23 20.83Q44.83 20.62 45.35 20.11Q45.86 19.61 46.24 19.10Q46.61 18.60 46.73 18.41L46.73 18.41Q46.92 18.12 46.97 18.12L46.97 18.12Q47.04 18.12 47.04 18.24L47.04 18.24Q47.04 18.36 46.97 18.48L46.97 18.48Q46.44 19.32 45.77 20.06Q45.10 20.81 44.33 21.12L44.33 21.12Q43.97 21.26 43.68 21.26ZM47.54 27.94L47.54 27.94Q47.02 27.94 46.61 27.44Q46.20 26.95 46.10 25.92L46.10 25.92Q46.08 25.73 46.08 25.52Q46.08 25.32 46.08 25.13L46.08 25.13Q46.08 24.24 46.22 23.27Q46.37 22.30 46.66 21.34L46.66 21.34Q46.99 20.21 47.51 19.00Q48.02 17.78 48.46 16.92L48.46 16.92Q48.07 16.87 47.59 17.06Q47.11 17.26 46.85 17.52L46.85 17.52Q46.78 17.59 46.73 17.59L46.73 17.59Q46.66 17.59 46.66 17.47L46.66 17.47Q46.66 17.21 46.87 17.04L46.87 17.04Q47.23 16.68 47.64 16.52Q48.05 16.37 48.82 16.22L48.82 16.22Q48.98 15.91 49.26 15.43Q49.54 14.95 49.70 14.64L49.70 14.64Q50.50 13.39 51.53 12.38Q52.56 11.38 53.69 11.14L53.69 11.14Q53.81 11.11 53.90 11.10Q54 11.09 54.10 11.09L54.10 11.09Q54.50 11.09 54.74 11.24Q54.98 11.40 55.03 11.64L55.03 11.64Q55.06 11.69 55.06 11.76L55.06 11.76Q55.06 11.88 54.98 11.88L54.98 11.88Q54.89 11.88 54.86 11.71L54.86 11.71Q54.84 11.59 54.65 11.53Q54.46 11.47 54.22 11.47L54.22 11.47Q53.62 11.47 52.96 11.92Q52.30 12.36 51.67 13.09Q51.05 13.82 50.50 14.69L50.50 14.69Q50.28 15 50.06 15.37Q49.85 15.74 49.66 16.06L49.66 16.06Q50.28 15.98 50.90 15.94Q51.53 15.89 52.06 15.89L52.06 15.89Q52.25 15.89 52.42 15.89Q52.58 15.89 52.73 15.91L52.73 15.91Q52.99 15.96 52.99 16.08L52.99 16.08Q52.99 16.22 52.78 16.22L52.78 16.22Q51.82 16.22 51.02 16.30Q50.23 16.37 49.39 16.56L49.39 16.56Q49.37 16.66 49.32 16.74Q49.27 16.82 49.22 16.90L49.22 16.90Q49.87 17.04 50.29 17.64Q50.71 18.24 50.92 19.13Q51.12 20.02 51.12 21L51.12 21Q51.12 21.58 51.05 22.20L51.05 22.20Q50.88 23.62 50.46 24.79Q50.04 25.97 49.51 26.66L49.51 26.66Q48.53 27.94 47.54 27.94ZM47.64 27.36L47.64 27.36Q48.05 27.36 48.54 26.94Q49.03 26.52 49.49 25.68L49.49 25.68Q49.78 25.13 50.14 24.23Q50.50 23.33 50.66 22.18L50.66 22.18Q50.71 21.82 50.75 21.46Q50.78 21.10 50.78 20.76L50.78 20.76Q50.78 19.44 50.36 18.42Q49.94 17.40 49.10 17.16L49.10 17.16Q48.48 18.26 47.95 19.63Q47.42 21 47.08 22.42Q46.73 23.83 46.63 25.06L46.63 25.06Q46.56 26.21 46.86 26.78Q47.16 27.36 47.64 27.36ZM56.74 21.29L56.74 21.29Q56.30 21.29 56.10 21Q55.90 20.71 55.90 20.26L55.90 20.26Q55.90 19.94 55.97 19.63L55.97 19.63Q55.99 19.58 56.04 19.40Q56.09 19.22 56.18 18.98L56.18 18.98Q55.85 19.51 55.33 20.15Q54.82 20.78 54.19 21.10L54.19 21.10Q53.83 21.26 53.47 21.26L53.47 21.26Q52.99 21.26 52.70 20.89Q52.42 20.52 52.42 19.85L52.42 19.85Q52.42 19.30 52.66 18.66Q52.90 18.02 53.35 17.35L53.35 17.35Q53.64 16.92 54.10 16.51Q54.55 16.10 55.08 15.84Q55.61 15.58 56.09 15.58L56.09 15.58Q56.57 15.58 56.90 15.84Q57.24 16.10 57.26 16.63L57.26 16.63Q57.26 16.70 57.20 16.74Q57.14 16.78 57.10 16.68L57.10 16.68Q56.81 16.03 56.16 16.03L56.16 16.03Q55.73 16.03 55.25 16.43Q54.77 16.82 54.31 17.42Q53.86 18.02 53.52 18.62L53.52 18.62Q53.23 19.15 53.10 19.58Q52.97 20.02 52.97 20.33L52.97 20.33Q52.97 20.98 53.47 20.98L53.47 20.98Q53.74 20.98 54.05 20.81L54.05 20.81Q54.34 20.64 54.76 20.21Q55.18 19.78 55.60 19.25Q56.02 18.72 56.36 18.22Q56.71 17.71 56.88 17.42L56.88 17.42Q57.24 16.82 57.62 16.37Q58.01 15.91 58.39 15.91L58.39 15.91Q58.58 15.91 58.58 16.01L58.58 16.01Q58.58 16.10 58.49 16.20L58.49 16.20Q58.01 16.78 57.59 17.56Q57.17 18.34 56.89 19.03Q56.62 19.73 56.57 20.09L56.57 20.09Q56.50 20.86 57.02 20.86L57.02 20.86Q57.10 20.86 57.17 20.84Q57.24 20.83 57.34 20.81L57.34 20.81Q57.84 20.64 58.32 20.18Q58.80 19.73 59.21 19.19Q59.62 18.65 59.88 18.24L59.88 18.24Q59.95 18.14 60.00 18.14L60.00 18.14Q60.07 18.14 60.07 18.26L60.07 18.26Q60.07 18.34 60.00 18.46L60.00 18.46Q59.83 18.70 59.69 18.92Q59.54 19.15 59.40 19.34L59.40 19.34Q59.35 19.44 59.28 19.51Q59.21 19.58 59.14 19.68L59.14 19.68Q58.82 20.06 58.33 20.51Q57.84 20.95 57.36 21.14L57.36 21.14Q57.00 21.29 56.74 21.29ZM61.30 21.31L61.30 21.31Q60.72 21.31 60.38 20.94Q60.05 20.57 59.93 19.99Q59.81 19.42 59.83 18.82L59.83 18.82Q59.90 17.78 60.29 16.46Q60.67 15.14 61.28 13.76Q61.90 12.38 62.65 11.16Q63.41 9.94 64.25 9.05Q65.09 8.16 65.90 7.82L65.90 7.82Q66.17 7.70 66.36 7.67Q66.55 7.63 66.72 7.63L66.72 7.63Q67.30 7.63 67.49 8.18L67.49 8.18Q67.58 8.38 67.58 8.66L67.58 8.66Q67.58 9.24 67.20 10.01L67.20 10.01Q66.86 10.70 66.24 11.58Q65.62 12.46 64.84 13.36Q64.06 14.26 63.26 15.08Q62.47 15.91 61.80 16.56Q61.13 17.21 60.72 17.54L60.72 17.54Q60.58 18.34 60.58 19.03L60.58 19.03Q60.58 19.78 60.83 20.33Q61.08 20.88 61.68 20.88L61.68 20.88Q62.26 20.88 62.81 20.42Q63.36 19.97 63.83 19.34Q64.30 18.72 64.61 18.24L64.61 18.24Q64.70 18.14 64.73 18.14L64.73 18.14Q64.80 18.14 64.80 18.26L64.80 18.26Q64.80 18.36 64.73 18.48L64.73 18.48Q64.30 19.15 63.77 19.80Q63.24 20.45 62.62 20.88Q61.99 21.31 61.30 21.31ZM60.82 17.14L60.82 17.14Q61.34 16.66 62.20 15.77Q63.05 14.88 63.97 13.80Q64.90 12.72 65.66 11.68Q66.43 10.63 66.79 9.82L66.79 9.82Q66.94 9.53 67.03 9.19Q67.13 8.86 67.13 8.57L67.13 8.57Q67.13 8.04 66.74 8.04L66.74 8.04Q66.22 8.04 65.33 8.88L65.33 8.88Q64.34 9.79 63.43 11.20Q62.52 12.60 61.84 14.15Q61.15 15.70 60.82 17.14ZM66.02 21.31L66.02 21.31Q65.45 21.31 65.11 20.94Q64.78 20.57 64.66 19.99Q64.54 19.42 64.56 18.82L64.56 18.82Q64.63 17.78 65.02 16.46Q65.40 15.14 66.01 13.76Q66.62 12.38 67.38 11.16Q68.14 9.94 68.98 9.05Q69.82 8.16 70.63 7.82L70.63 7.82Q70.90 7.70 71.09 7.67Q71.28 7.63 71.45 7.63L71.45 7.63Q72.02 7.63 72.22 8.18L72.22 8.18Q72.31 8.38 72.31 8.66L72.31 8.66Q72.31 9.24 71.93 10.01L71.93 10.01Q71.59 10.70 70.97 11.58Q70.34 12.46 69.56 13.36Q68.78 14.26 67.99 15.08Q67.20 15.91 66.53 16.56Q65.86 17.21 65.45 17.54L65.45 17.54Q65.30 18.34 65.30 19.03L65.30 19.03Q65.30 19.78 65.56 20.33Q65.81 20.88 66.41 20.88L66.41 20.88Q66.98 20.88 67.54 20.42Q68.09 19.97 68.56 19.34Q69.02 18.72 69.34 18.24L69.34 18.24Q69.43 18.14 69.46 18.14L69.46 18.14Q69.53 18.14 69.53 18.26L69.53 18.26Q69.53 18.36 69.46 18.48L69.46 18.48Q69.02 19.15 68.50 19.80Q67.97 20.45 67.34 20.88Q66.72 21.31 66.02 21.31ZM65.54 17.14L65.54 17.14Q66.07 16.66 66.92 15.77Q67.78 14.88 68.70 13.80Q69.62 12.72 70.39 11.68Q71.16 10.63 71.52 9.82L71.52 9.82Q71.66 9.53 71.76 9.19Q71.86 8.86 71.86 8.57L71.86 8.57Q71.86 8.04 71.47 8.04L71.47 8.04Q70.94 8.04 70.06 8.88L70.06 8.88Q69.07 9.79 68.16 11.20Q67.25 12.60 66.56 14.15Q65.88 15.70 65.54 17.14Z"/></svg>