<svg xmlns="http://www.w3.org/2000/svg" xmlns:xlink="http://www.w3.org/1999/xlink" width="336.12" height="32.448"><path fill="black" d="M15.91 3.72L15.91 20.86L13.39 20.86L4.22 6.62L4.13 6.62Q4.18 7.18 4.21 7.93Q4.25 8.69 4.28 9.54Q4.32 10.39 4.32 11.28L4.32 11.28L4.32 20.86L2.33 20.86L2.33 3.72L4.82 3.72L13.97 17.90L14.06 17.90Q14.04 17.52 14.00 16.75Q13.97 15.98 13.93 15.07Q13.90 14.16 13.90 13.39L13.90 13.39L13.90 3.72L15.91 3.72ZM31.46 14.40L31.46 14.40Q31.46 16.01 31.04 17.24Q30.62 18.48 29.84 19.34Q29.06 20.21 27.95 20.65Q26.83 21.10 25.46 21.10L25.46 21.10Q24.19 21.10 23.11 20.65Q22.03 20.21 21.24 19.34Q20.45 18.48 20.00 17.24Q19.56 16.01 19.56 14.40L19.56 14.40Q19.56 12.26 20.28 10.79Q21.00 9.31 22.34 8.53Q23.69 7.75 25.54 7.75L25.54 7.75Q27.29 7.75 28.62 8.53Q29.95 9.31 30.71 10.79Q31.46 12.26 31.46 14.40ZM21.74 14.40L21.74 14.40Q21.74 15.91 22.14 17.03Q22.54 18.14 23.38 18.74Q24.22 19.34 25.51 19.34L25.51 19.34Q26.81 19.34 27.65 18.74Q28.49 18.14 28.88 17.03Q29.28 15.91 29.28 14.40L29.28 14.40Q29.28 12.86 28.87 11.78Q28.46 10.70 27.64 10.12Q26.81 9.53 25.49 9.53L25.49 9.53Q23.52 9.53 22.63 10.82Q21.74 12.12 21.74 14.40ZM39.10 19.37L39.10 19.37Q39.58 19.37 40.08 19.28Q40.58 19.20 40.90 19.10L40.90 19.10L40.90 20.71Q40.56 20.88 39.94 20.99Q39.31 21.10 38.74 21.10L38.74 21.10Q37.73 21.10 36.88 20.75Q36.02 20.40 35.50 19.54Q34.97 18.67 34.97 17.11L34.97 17.11L34.97 9.62L33.14 9.62L33.14 8.62L34.99 7.78L35.83 5.04L37.08 5.04L37.08 7.99L40.80 7.99L40.80 9.62L37.08 9.62L37.08 17.06Q37.08 18.24 37.64 18.80Q38.21 19.37 39.10 19.37ZM54.65 14.40L54.65 14.40Q54.65 16.01 54.23 17.24Q53.81 18.48 53.03 19.34Q52.25 20.21 51.13 20.65Q50.02 21.10 48.65 21.10L48.65 21.10Q47.38 21.10 46.30 20.65Q45.22 20.21 44.42 19.34Q43.63 18.48 43.19 17.24Q42.74 16.01 42.74 14.40L42.74 14.40Q42.74 12.26 43.46 10.79Q44.18 9.31 45.53 8.53Q46.87 7.75 48.72 7.75L48.72 7.75Q50.47 7.75 51.80 8.53Q53.14 9.31 53.89 10.79Q54.65 12.26 54.65 14.40ZM44.93 14.40L44.93 14.40Q44.93 15.91 45.32 17.03Q45.72 18.14 46.56 18.74Q47.40 19.34 48.70 19.34L48.70 19.34Q49.99 19.34 50.83 18.74Q51.67 18.14 52.07 17.03Q52.46 15.91 52.46 14.40L52.46 14.40Q52.46 12.86 52.06 11.78Q51.65 10.70 50.82 10.12Q49.99 9.53 48.67 9.53L48.67 9.53Q46.70 9.53 45.82 10.82Q44.93 12.12 44.93 14.40ZM74.78 16.27L74.78 16.27Q74.78 17.81 74.04 18.88Q73.30 19.94 71.92 20.52Q70.54 21.10 68.66 21.10L68.66 21.10Q67.70 21.10 66.83 21Q65.95 20.90 65.23 20.72Q64.51 20.54 63.96 20.28L63.96 20.28L63.96 18.22Q64.82 18.60 66.11 18.91Q67.39 19.22 68.76 19.22L68.76 19.22Q70.03 19.22 70.90 18.89Q71.76 18.55 72.19 17.93Q72.62 17.30 72.62 16.46L72.62 16.46Q72.62 15.62 72.26 15.05Q71.90 14.47 71.03 13.98Q70.15 13.49 68.59 12.94L68.59 12.94Q67.49 12.53 66.66 12.06Q65.83 11.59 65.28 10.99Q64.73 10.39 64.45 9.62Q64.18 8.86 64.18 7.85L64.18 7.85Q64.18 6.48 64.87 5.51Q65.57 4.54 66.80 4.01Q68.04 3.48 69.65 3.48L69.65 3.48Q71.06 3.48 72.24 3.74Q73.42 4.01 74.38 4.44L74.38 4.44L73.70 6.29Q72.82 5.90 71.77 5.64Q70.73 5.38 69.60 5.38L69.60 5.38Q68.52 5.38 67.80 5.69Q67.08 6.00 66.72 6.56Q66.36 7.13 66.36 7.87L66.36 7.87Q66.36 8.74 66.72 9.31Q67.08 9.89 67.90 10.34Q68.71 10.80 70.10 11.33L70.10 11.33Q71.62 11.88 72.66 12.52Q73.70 13.15 74.24 14.04Q74.78 14.93 74.78 16.27ZM82.82 7.78L82.82 7.78Q85.18 7.78 86.30 8.81Q87.43 9.84 87.43 12.10L87.43 12.10L87.43 20.86L85.90 20.86L85.49 19.03L85.39 19.03Q84.84 19.73 84.25 20.20Q83.66 20.66 82.91 20.88Q82.15 21.10 81.07 21.10L81.07 21.10Q79.92 21.10 79.00 20.69Q78.07 20.28 77.54 19.43Q77.02 18.58 77.02 17.28L77.02 17.28Q77.02 15.36 78.53 14.32Q80.04 13.27 83.18 13.18L83.18 13.18L85.37 13.10L85.37 12.34Q85.37 10.73 84.67 10.10Q83.98 9.48 82.70 9.48L82.70 9.48Q81.70 9.48 80.78 9.78Q79.87 10.08 79.08 10.46L79.08 10.46L78.43 8.88Q79.27 8.42 80.42 8.10Q81.58 7.78 82.82 7.78ZM85.34 14.57L83.45 14.64Q81.05 14.74 80.12 15.41Q79.20 16.08 79.20 17.30L79.20 17.30Q79.20 18.38 79.86 18.89Q80.52 19.39 81.55 19.39L81.55 19.39Q83.18 19.39 84.26 18.49Q85.34 17.59 85.34 15.72L85.34 15.72L85.34 14.57ZM97.61 7.75L97.61 7.75Q99.91 7.75 101.09 8.87Q102.26 9.98 102.26 12.48L102.26 12.48L102.26 20.86L100.18 20.86L100.18 12.62Q100.18 11.06 99.48 10.30Q98.78 9.53 97.30 9.53L97.30 9.53Q95.16 9.53 94.34 10.73Q93.53 11.93 93.53 14.18L93.53 14.18L93.53 20.86L91.42 20.86L91.42 7.99L93.12 7.99L93.43 9.74L93.55 9.74Q93.98 9.07 94.62 8.63Q95.26 8.18 96.02 7.97Q96.79 7.75 97.61 7.75ZM114.62 17.30L114.62 17.30Q114.62 18.55 114 19.39Q113.38 20.23 112.22 20.66Q111.07 21.10 109.49 21.10L109.49 21.10Q108.14 21.10 107.17 20.88Q106.20 20.66 105.46 20.28L105.46 20.28L105.46 18.36Q106.22 18.74 107.32 19.07Q108.41 19.39 109.54 19.39L109.54 19.39Q111.14 19.39 111.86 18.88Q112.58 18.36 112.58 17.50L112.58 17.50Q112.58 17.02 112.32 16.63Q112.06 16.25 111.37 15.86Q110.69 15.48 109.42 15.00L109.42 15.00Q108.17 14.52 107.28 14.04Q106.39 13.56 105.91 12.89Q105.43 12.22 105.43 11.16L105.43 11.16Q105.43 9.53 106.76 8.64Q108.10 7.75 110.26 7.75L110.26 7.75Q111.43 7.75 112.45 7.98Q113.47 8.21 114.36 8.62L114.36 8.62L113.64 10.30Q112.82 9.96 111.94 9.72Q111.05 9.48 110.11 9.48L110.11 9.48Q108.82 9.48 108.13 9.90Q107.45 10.32 107.45 11.04L107.45 11.04Q107.45 11.57 107.76 11.94Q108.07 12.31 108.80 12.66Q109.54 13.01 110.76 13.49L110.76 13.49Q111.98 13.94 112.85 14.42Q113.71 14.90 114.17 15.59Q114.62 16.27 114.62 17.30ZM130.25 5.62L130.25 20.86L128.09 20.86L128.09 5.62L122.74 5.62L122.74 3.72L135.58 3.72L135.58 5.62L130.25 5.62ZM142.85 7.75L142.85 7.75Q144.50 7.75 145.69 8.47Q146.88 9.19 147.52 10.50Q148.15 11.81 148.15 13.56L148.15 13.56L148.15 14.83L139.34 14.83Q139.39 17.02 140.46 18.16Q141.53 19.30 143.45 19.30L143.45 19.30Q144.67 19.30 145.62 19.07Q146.57 18.84 147.58 18.41L147.58 18.41L147.58 20.26Q146.59 20.69 145.63 20.89Q144.67 21.10 143.35 21.10L143.35 21.10Q141.53 21.10 140.12 20.35Q138.72 19.61 137.94 18.13Q137.16 16.66 137.16 14.52L137.16 14.52Q137.16 12.41 137.87 10.90Q138.58 9.38 139.86 8.57Q141.14 7.75 142.85 7.75ZM142.82 9.48L142.82 9.48Q141.31 9.48 140.44 10.45Q139.56 11.42 139.39 13.15L139.39 13.15L145.94 13.15Q145.94 12.05 145.61 11.23Q145.27 10.42 144.59 9.95Q143.90 9.48 142.82 9.48ZM153.53 2.62L153.53 20.86L151.42 20.86L151.42 2.62L153.53 2.62ZM166.25 7.99L168.36 7.99L168.36 20.86L166.63 20.86L166.32 19.15L166.22 19.15Q165.82 19.82 165.17 20.26Q164.52 20.69 163.75 20.89Q162.98 21.10 162.14 21.10L162.14 21.10Q160.61 21.10 159.56 20.60Q158.52 20.11 157.99 19.08Q157.46 18.05 157.46 16.42L157.46 16.42L157.46 7.99L159.60 7.99L159.60 16.27Q159.60 17.81 160.30 18.58Q160.99 19.34 162.46 19.34L162.46 19.34Q163.90 19.34 164.72 18.80Q165.55 18.26 165.90 17.22Q166.25 16.18 166.25 14.69L166.25 14.69L166.25 7.99ZM177 7.75L177 7.75Q178.27 7.75 179.29 8.23Q180.31 8.71 181.03 9.70L181.03 9.70L181.15 9.70L181.44 7.99L183.12 7.99L183.12 21.07Q183.12 22.90 182.50 24.13Q181.87 25.37 180.60 25.99Q179.33 26.62 177.36 26.62L177.36 26.62Q175.97 26.62 174.80 26.41Q173.64 26.21 172.73 25.80L172.73 25.80L172.73 23.86Q173.64 24.34 174.86 24.60Q176.09 24.86 177.48 24.86L177.48 24.86Q179.14 24.86 180.08 23.89Q181.03 22.92 181.03 21.24L181.03 21.24L181.03 20.74Q181.03 20.45 181.06 19.91Q181.08 19.37 181.10 19.15L181.10 19.15L181.01 19.15Q180.34 20.14 179.34 20.62Q178.34 21.10 177.02 21.10L177.02 21.10Q174.53 21.10 173.12 19.34Q171.72 17.59 171.72 14.45L171.72 14.45Q171.72 11.38 173.12 9.56Q174.53 7.75 177 7.75ZM177.29 9.53L177.29 9.53Q176.21 9.53 175.45 10.10Q174.70 10.68 174.30 11.78Q173.90 12.89 173.90 14.47L173.90 14.47Q173.90 16.85 174.78 18.11Q175.66 19.37 177.34 19.37L177.34 19.37Q178.32 19.37 179.02 19.12Q179.71 18.86 180.17 18.32Q180.62 17.78 180.84 16.94Q181.06 16.10 181.06 14.95L181.06 14.95L181.06 14.45Q181.06 12.70 180.66 11.62Q180.26 10.54 179.42 10.03Q178.58 9.53 177.29 9.53ZM195.84 7.99L197.95 7.99L197.95 20.86L196.22 20.86L195.91 19.15L195.82 19.15Q195.41 19.82 194.76 20.26Q194.11 20.69 193.34 20.89Q192.58 21.10 191.74 21.10L191.74 21.10Q190.20 21.10 189.16 20.60Q188.11 20.11 187.58 19.08Q187.06 18.05 187.06 16.42L187.06 16.42L187.06 7.99L189.19 7.99L189.19 16.27Q189.19 17.81 189.89 18.58Q190.58 19.34 192.05 19.34L192.05 19.34Q193.49 19.34 194.32 18.80Q195.14 18.26 195.49 17.22Q195.84 16.18 195.84 14.69L195.84 14.69L195.84 7.99ZM220.03 15.58L220.03 17.35L217.49 17.35L217.49 20.86L215.50 20.86L215.50 17.35L207.29 17.35L207.29 15.58L215.35 5.14L217.49 5.14L217.49 15.58L220.03 15.58ZM209.42 15.46L215.50 15.46L215.50 10.73Q215.50 9.98 215.51 9.41Q215.52 8.83 215.56 8.34Q215.59 7.85 215.62 7.39L215.62 7.39L215.52 7.39Q215.30 7.78 214.97 8.29Q214.63 8.81 214.22 9.36L214.22 9.36L209.42 15.46ZM233.06 13.03L233.06 13.03Q233.06 14.93 232.74 16.43Q232.42 17.93 231.72 18.97Q231.02 20.02 229.94 20.56Q228.86 21.10 227.35 21.10L227.35 21.10Q225.43 21.10 224.17 20.14Q222.91 19.18 222.30 17.36Q221.69 15.55 221.69 13.03L221.69 13.03Q221.69 10.49 222.26 8.70Q222.84 6.91 224.10 5.95Q225.36 4.99 227.35 4.99L227.35 4.99Q229.27 4.99 230.54 5.94Q231.82 6.89 232.44 8.69Q233.06 10.49 233.06 13.03ZM223.75 13.03L223.75 13.03Q223.75 15.12 224.10 16.51Q224.45 17.90 225.24 18.60Q226.03 19.30 227.35 19.30L227.35 19.30Q228.67 19.30 229.46 18.61Q230.26 17.93 230.62 16.54Q230.98 15.14 230.98 13.03L230.98 13.03Q230.98 10.94 230.62 9.55Q230.26 8.16 229.46 7.48Q228.67 6.79 227.35 6.79L227.35 6.79Q226.03 6.79 225.24 7.48Q224.45 8.16 224.10 9.55Q223.75 10.94 223.75 13.03ZM246.79 13.03L246.79 13.03Q246.79 14.93 246.47 16.43Q246.14 17.93 245.45 18.97Q244.75 20.02 243.67 20.56Q242.59 21.10 241.08 21.10L241.08 21.10Q239.16 21.10 237.90 20.14Q236.64 19.18 236.03 17.36Q235.42 15.55 235.42 13.03L235.42 13.03Q235.42 10.49 235.99 8.70Q236.57 6.91 237.83 5.95Q239.09 4.99 241.08 4.99L241.08 4.99Q243 4.99 244.27 5.94Q245.54 6.89 246.17 8.69Q246.79 10.49 246.79 13.03ZM237.48 13.03L237.48 13.03Q237.48 15.12 237.83 16.51Q238.18 17.90 238.97 18.60Q239.76 19.30 241.08 19.30L241.08 19.30Q242.40 19.30 243.19 18.61Q243.98 17.93 244.34 16.54Q244.70 15.14 244.70 13.03L244.70 13.03Q244.70 10.94 244.34 9.55Q243.98 8.16 243.19 7.48Q242.40 6.79 241.08 6.79L241.08 6.79Q239.76 6.79 238.97 7.48Q238.18 8.16 237.83 9.55Q237.48 10.94 237.48 13.03ZM262.99 7.75L262.99 7.75Q265.30 7.75 266.47 8.87Q267.65 9.98 267.65 12.48L267.65 12.48L267.65 20.86L265.56 20.86L265.56 12.62Q265.56 11.06 264.86 10.30Q264.17 9.53 262.68 9.53L262.68 9.53Q260.54 9.53 259.73 10.73Q258.91 11.93 258.91 14.18L258.91 14.18L258.91 20.86L256.80 20.86L256.80 7.99L258.50 7.99L258.82 9.74L258.94 9.74Q259.37 9.07 260.00 8.63Q260.64 8.18 261.41 7.97Q262.18 7.75 262.99 7.75ZM282.82 14.40L282.82 14.40Q282.82 16.01 282.40 17.24Q281.98 18.48 281.20 19.34Q280.42 20.21 279.30 20.65Q278.18 21.10 276.82 21.10L276.82 21.10Q275.54 21.10 274.46 20.65Q273.38 20.21 272.59 19.34Q271.80 18.48 271.36 17.24Q270.91 16.01 270.91 14.40L270.91 14.40Q270.91 12.26 271.63 10.79Q272.35 9.31 273.70 8.53Q275.04 7.75 276.89 7.75L276.89 7.75Q278.64 7.75 279.97 8.53Q281.30 9.31 282.06 10.79Q282.82 12.26 282.82 14.40ZM273.10 14.40L273.10 14.40Q273.10 15.91 273.49 17.03Q273.89 18.14 274.73 18.74Q275.57 19.34 276.86 19.34L276.86 19.34Q278.16 19.34 279.00 18.74Q279.84 18.14 280.24 17.03Q280.63 15.91 280.63 14.40L280.63 14.40Q280.63 12.86 280.22 11.78Q279.82 10.70 278.99 10.12Q278.16 9.53 276.84 9.53L276.84 9.53Q274.87 9.53 273.98 10.82Q273.10 12.12 273.10 14.40ZM292.15 7.75L292.15 7.75Q292.51 7.75 292.93 7.79Q293.35 7.82 293.66 7.90L293.66 7.90L293.40 9.84Q293.09 9.77 292.72 9.72Q292.34 9.67 292.01 9.67L292.01 9.67Q291.26 9.67 290.59 9.98Q289.92 10.30 289.39 10.86Q288.86 11.42 288.56 12.22Q288.26 13.01 288.26 13.99L288.26 13.99L288.26 20.86L286.15 20.86L286.15 7.99L287.88 7.99L288.12 10.34L288.22 10.34Q288.62 9.62 289.20 9.04Q289.78 8.45 290.52 8.10Q291.26 7.75 292.15 7.75ZM310.18 7.75L310.18 7.75Q312.36 7.75 313.44 8.87Q314.52 9.98 314.52 12.48L314.52 12.48L314.52 20.86L312.43 20.86L312.43 12.58Q312.43 11.06 311.80 10.30Q311.16 9.53 309.82 9.53L309.82 9.53Q307.94 9.53 307.14 10.61Q306.34 11.69 306.34 13.75L306.34 13.75L306.34 20.86L304.25 20.86L304.25 12.58Q304.25 11.57 303.96 10.88Q303.67 10.20 303.10 9.86Q302.52 9.53 301.61 9.53L301.61 9.53Q300.31 9.53 299.57 10.07Q298.82 10.61 298.50 11.64Q298.18 12.67 298.18 14.18L298.18 14.18L298.18 20.86L296.06 20.86L296.06 7.99L297.77 7.99L298.08 9.74L298.20 9.74Q298.61 9.07 299.20 8.63Q299.78 8.18 300.50 7.97Q301.22 7.75 301.99 7.75L301.99 7.75Q303.48 7.75 304.48 8.28Q305.47 8.81 305.93 9.91L305.93 9.91L306.05 9.91Q306.70 8.81 307.81 8.28Q308.93 7.75 310.18 7.75ZM323.38 7.78L323.38 7.78Q325.73 7.78 326.86 8.81Q327.98 9.84 327.98 12.10L327.98 12.10L327.98 20.86L326.45 20.86L326.04 19.03L325.94 19.03Q325.39 19.73 324.80 20.20Q324.22 20.66 323.46 20.88Q322.70 21.10 321.62 21.10L321.62 21.10Q320.47 21.10 319.55 20.69Q318.62 20.28 318.10 19.43Q317.57 18.58 317.57 17.28L317.57 17.28Q317.57 15.36 319.08 14.32Q320.59 13.27 323.74 13.18L323.74 13.18L325.92 13.10L325.92 12.34Q325.92 10.73 325.22 10.10Q324.53 9.48 323.26 9.48L323.26 9.48Q322.25 9.48 321.34 9.78Q320.42 10.08 319.63 10.46L319.63 10.46L318.98 8.88Q319.82 8.42 320.98 8.10Q322.13 7.78 323.38 7.78ZM325.90 14.57L324 14.64Q321.60 14.74 320.68 15.41Q319.75 16.08 319.75 17.30L319.75 17.30Q319.75 18.38 320.41 18.89Q321.07 19.39 322.10 19.39L322.10 19.39Q323.74 19.39 324.82 18.49Q325.90 17.59 325.90 15.72L325.90 15.72L325.90 14.57ZM334.08 2.62L334.08 20.86L331.97 20.86L331.97 2.62L334.08 2.62Z"/></svg>