<svg xmlns="http://www.w3.org/2000/svg" xmlns:xlink="http://www.w3.org/1999/xlink" width="341.016" height="32.448"><path fill="black" d="M16.34 3.72L16.34 20.86L13.20 20.86L4.54 7.01L4.44 7.01Q4.49 7.63 4.52 8.40Q4.56 9.17 4.60 10.01Q4.63 10.85 4.63 11.74L4.63 11.74L4.63 20.86L2.28 20.86L2.28 3.72L5.40 3.72L14.04 17.50L14.11 17.50Q14.09 16.99 14.06 16.22Q14.04 15.46 14.00 14.58Q13.97 13.70 13.94 12.94L13.94 12.94L13.94 3.72L16.34 3.72ZM32.02 14.38L32.02 14.38Q32.02 15.98 31.58 17.23Q31.15 18.48 30.36 19.34Q29.57 20.21 28.44 20.65Q27.31 21.10 25.90 21.10L25.90 21.10Q24.60 21.10 23.50 20.65Q22.39 20.21 21.59 19.34Q20.78 18.48 20.33 17.23Q19.87 15.98 19.87 14.38L19.87 14.38Q19.87 12.22 20.60 10.73Q21.34 9.24 22.72 8.46Q24.10 7.68 25.97 7.68L25.97 7.68Q27.74 7.68 29.10 8.46Q30.46 9.24 31.24 10.73Q32.02 12.22 32.02 14.38ZM22.49 14.38L22.49 14.38Q22.49 15.82 22.85 16.86Q23.21 17.90 23.98 18.46Q24.74 19.01 25.94 19.01L25.94 19.01Q27.14 19.01 27.91 18.46Q28.68 17.90 29.04 16.86Q29.40 15.82 29.40 14.38L29.40 14.38Q29.40 12.89 29.03 11.88Q28.66 10.87 27.90 10.33Q27.14 9.79 25.92 9.79L25.92 9.79Q24.12 9.79 23.30 10.99Q22.49 12.19 22.49 14.38ZM39.89 19.03L39.89 19.03Q40.39 19.03 40.92 18.94Q41.45 18.84 41.83 18.72L41.83 18.72L41.83 20.64Q41.42 20.83 40.73 20.96Q40.03 21.10 39.34 21.10L39.34 21.10Q38.28 21.10 37.40 20.74Q36.53 20.38 36.00 19.49Q35.47 18.60 35.47 17.02L35.47 17.02L35.47 9.86L33.67 9.86L33.67 8.71L35.57 7.75L36.46 5.02L38.02 5.02L38.02 7.92L41.71 7.92L41.71 9.86L38.02 9.86L38.02 16.97Q38.02 18.02 38.53 18.53Q39.05 19.03 39.89 19.03ZM55.82 14.38L55.82 14.38Q55.82 15.98 55.39 17.23Q54.96 18.48 54.17 19.34Q53.38 20.21 52.25 20.65Q51.12 21.10 49.70 21.10L49.70 21.10Q48.41 21.10 47.30 20.65Q46.20 20.21 45.40 19.34Q44.59 18.48 44.14 17.23Q43.68 15.98 43.68 14.38L43.68 14.38Q43.68 12.22 44.41 10.73Q45.14 9.24 46.52 8.46Q47.90 7.68 49.78 7.68L49.78 7.68Q51.55 7.68 52.91 8.46Q54.26 9.24 55.04 10.73Q55.82 12.22 55.82 14.38ZM46.30 14.38L46.30 14.38Q46.30 15.82 46.66 16.86Q47.02 17.90 47.78 18.46Q48.55 19.01 49.75 19.01L49.75 19.01Q50.95 19.01 51.72 18.46Q52.49 17.90 52.85 16.86Q53.21 15.82 53.21 14.38L53.21 14.38Q53.21 12.89 52.84 11.88Q52.46 10.87 51.71 10.33Q50.95 9.79 49.73 9.79L49.73 9.79Q47.93 9.79 47.11 10.99Q46.30 12.19 46.30 14.38ZM75.96 16.22L75.96 16.22Q75.96 17.76 75.22 18.84Q74.47 19.92 73.08 20.51Q71.69 21.10 69.77 21.10L69.77 21.10Q68.83 21.10 67.97 20.99Q67.10 20.88 66.36 20.69Q65.62 20.50 65.04 20.21L65.04 20.21L65.04 17.76Q66 18.19 67.30 18.54Q68.59 18.89 69.94 18.89L69.94 18.89Q71.09 18.89 71.86 18.58Q72.62 18.26 73.01 17.71Q73.39 17.16 73.39 16.42L73.39 16.42Q73.39 15.62 73.00 15.08Q72.60 14.54 71.77 14.08Q70.94 13.61 69.55 13.08L69.55 13.08Q68.59 12.72 67.81 12.28Q67.03 11.83 66.44 11.23Q65.86 10.63 65.54 9.84Q65.23 9.05 65.23 7.99L65.23 7.99Q65.23 6.58 65.94 5.57Q66.65 4.56 67.90 4.02Q69.14 3.48 70.80 3.48L70.80 3.48Q72.19 3.48 73.38 3.76Q74.57 4.03 75.65 4.51L75.65 4.51L74.83 6.65Q73.85 6.24 72.84 5.98Q71.83 5.71 70.73 5.71L70.73 5.71Q69.77 5.71 69.12 6.00Q68.47 6.29 68.15 6.79Q67.82 7.30 67.82 7.97L67.82 7.97Q67.82 8.76 68.18 9.29Q68.54 9.82 69.34 10.26Q70.13 10.70 71.42 11.23L71.42 11.23Q72.86 11.78 73.88 12.43Q74.90 13.08 75.43 13.98Q75.96 14.88 75.96 16.22ZM84.05 7.68L84.05 7.68Q86.50 7.68 87.70 8.75Q88.90 9.82 88.90 12.10L88.90 12.10L88.90 20.86L87.10 20.86L86.59 19.06L86.50 19.06Q85.94 19.75 85.36 20.21Q84.77 20.66 84.01 20.88Q83.26 21.10 82.18 21.10L82.18 21.10Q81.02 21.10 80.10 20.68Q79.18 20.26 78.65 19.38Q78.12 18.50 78.12 17.18L78.12 17.18Q78.12 15.22 79.62 14.18Q81.12 13.15 84.19 13.06L84.19 13.06L86.40 12.98L86.40 12.26Q86.40 10.82 85.75 10.25Q85.10 9.67 83.93 9.67L83.93 9.67Q82.92 9.67 82.01 9.96Q81.10 10.25 80.28 10.66L80.28 10.66L79.46 8.81Q80.38 8.33 81.56 8.00Q82.75 7.68 84.05 7.68ZM86.38 14.64L84.65 14.69Q82.44 14.78 81.59 15.42Q80.74 16.06 80.74 17.21L80.74 17.21Q80.74 18.22 81.35 18.67Q81.96 19.13 82.90 19.13L82.90 19.13Q84.41 19.13 85.39 18.29Q86.38 17.45 86.38 15.77L86.38 15.77L86.38 14.64ZM99.36 7.68L99.36 7.68Q101.62 7.68 102.82 8.81Q104.02 9.94 104.02 12.43L104.02 12.43L104.02 20.86L101.50 20.86L101.50 12.79Q101.50 11.28 100.86 10.52Q100.22 9.77 98.83 9.77L98.83 9.77Q96.86 9.77 96.11 10.94Q95.35 12.12 95.35 14.33L95.35 14.33L95.35 20.86L92.81 20.86L92.81 7.92L94.82 7.92L95.18 9.65L95.33 9.65Q95.76 8.98 96.38 8.54Q97.01 8.11 97.78 7.90Q98.54 7.68 99.36 7.68ZM116.52 17.21L116.52 17.21Q116.52 18.48 115.90 19.34Q115.27 20.21 114.10 20.65Q112.92 21.10 111.26 21.10L111.26 21.10Q109.90 21.10 108.92 20.89Q107.95 20.69 107.14 20.30L107.14 20.30L107.14 18.07Q108 18.48 109.13 18.80Q110.26 19.13 111.34 19.13L111.34 19.13Q112.78 19.13 113.41 18.67Q114.05 18.22 114.05 17.45L114.05 17.45Q114.05 17.02 113.81 16.67Q113.57 16.32 112.91 15.95Q112.25 15.58 110.98 15.10L110.98 15.10Q109.75 14.59 108.89 14.10Q108.02 13.61 107.57 12.92Q107.11 12.24 107.11 11.16L107.11 11.16Q107.11 9.48 108.47 8.58Q109.82 7.68 112.06 7.68L112.06 7.68Q113.23 7.68 114.28 7.91Q115.32 8.14 116.30 8.59L116.30 8.59L115.46 10.54Q114.62 10.18 113.74 9.92Q112.85 9.67 111.94 9.67L111.94 9.67Q110.78 9.67 110.18 10.03Q109.58 10.39 109.58 11.04L109.58 11.04Q109.58 11.50 109.86 11.83Q110.14 12.17 110.83 12.50Q111.53 12.84 112.73 13.32L112.73 13.32Q113.93 13.78 114.78 14.26Q115.63 14.74 116.08 15.43Q116.52 16.13 116.52 17.21ZM132.38 5.95L132.38 20.86L129.79 20.86L129.79 5.95L124.66 5.95L124.66 3.72L137.52 3.72L137.52 5.95L132.38 5.95ZM144.94 7.68L144.94 7.68Q146.64 7.68 147.86 8.39Q149.09 9.10 149.75 10.42Q150.41 11.74 150.41 13.54L150.41 13.54L150.41 14.93L141.72 14.93Q141.77 16.92 142.76 17.98Q143.76 19.03 145.56 19.03L145.56 19.03Q146.81 19.03 147.78 18.80Q148.75 18.58 149.78 18.12L149.78 18.12L149.78 20.23Q148.82 20.66 147.83 20.88Q146.83 21.10 145.46 21.10L145.46 21.10Q143.59 21.10 142.15 20.35Q140.71 19.61 139.91 18.13Q139.10 16.66 139.10 14.50L139.10 14.50Q139.10 12.31 139.84 10.80Q140.57 9.29 141.88 8.48Q143.18 7.68 144.94 7.68ZM144.94 9.65L144.94 9.65Q143.57 9.65 142.74 10.54Q141.91 11.42 141.77 13.06L141.77 13.06L147.86 13.06Q147.86 12.05 147.55 11.28Q147.24 10.51 146.59 10.08Q145.94 9.65 144.94 9.65ZM156.12 2.62L156.12 20.86L153.58 20.86L153.58 2.62L156.12 2.62ZM168.70 7.92L171.24 7.92L171.24 20.86L169.20 20.86L168.84 19.15L168.72 19.15Q168.31 19.82 167.66 20.26Q167.02 20.69 166.25 20.89Q165.48 21.10 164.66 21.10L164.66 21.10Q163.15 21.10 162.11 20.60Q161.06 20.11 160.52 19.07Q159.98 18.02 159.98 16.39L159.98 16.39L159.98 7.92L162.55 7.92L162.55 16.01Q162.55 17.52 163.19 18.26Q163.82 19.01 165.17 19.01L165.17 19.01Q166.51 19.01 167.28 18.48Q168.05 17.95 168.37 16.93Q168.70 15.91 168.70 14.47L168.70 14.47L168.70 7.92ZM179.69 7.68L179.69 7.68Q180.94 7.68 181.94 8.16Q182.95 8.64 183.65 9.62L183.65 9.62L183.77 9.62L184.06 7.92L186.12 7.92L186.12 21.02Q186.12 22.85 185.47 24.10Q184.82 25.34 183.49 25.98Q182.16 26.62 180.14 26.62L180.14 26.62Q178.75 26.62 177.58 26.42Q176.40 26.23 175.42 25.82L175.42 25.82L175.42 23.59Q176.42 24.10 177.66 24.35Q178.90 24.60 180.29 24.60L180.29 24.60Q181.87 24.60 182.74 23.70Q183.60 22.80 183.60 21.17L183.60 21.17L183.60 20.74Q183.60 20.42 183.62 19.91Q183.65 19.39 183.67 19.15L183.67 19.15L183.58 19.15Q182.90 20.16 181.93 20.63Q180.96 21.10 179.69 21.10L179.69 21.10Q177.24 21.10 175.86 19.33Q174.48 17.57 174.48 14.42L174.48 14.42Q174.48 11.30 175.87 9.49Q177.26 7.68 179.69 7.68ZM180.22 9.79L180.22 9.79Q179.21 9.79 178.51 10.33Q177.82 10.87 177.46 11.90Q177.10 12.94 177.10 14.45L177.10 14.45Q177.10 16.70 177.90 17.88Q178.70 19.06 180.26 19.06L180.26 19.06Q181.18 19.06 181.81 18.82Q182.45 18.58 182.87 18.07Q183.29 17.57 183.49 16.79Q183.70 16.01 183.70 14.90L183.70 14.90L183.70 14.42Q183.70 12.77 183.32 11.75Q182.95 10.73 182.18 10.26Q181.42 9.79 180.22 9.79ZM198.70 7.92L201.24 7.92L201.24 20.86L199.20 20.86L198.84 19.15L198.72 19.15Q198.31 19.82 197.66 20.26Q197.02 20.69 196.25 20.89Q195.48 21.10 194.66 21.10L194.66 21.10Q193.15 21.10 192.11 20.60Q191.06 20.11 190.52 19.07Q189.98 18.02 189.98 16.39L189.98 16.39L189.98 7.92L192.55 7.92L192.55 16.01Q192.55 17.52 193.19 18.26Q193.82 19.01 195.17 19.01L195.17 19.01Q196.51 19.01 197.28 18.48Q198.05 17.95 198.37 16.93Q198.70 15.91 198.70 14.47L198.70 14.47L198.70 7.92ZM216.74 11.09L216.74 11.09Q218.47 11.09 219.76 11.63Q221.04 12.17 221.75 13.21Q222.46 14.26 222.46 15.77L222.46 15.77Q222.46 17.42 221.70 18.61Q220.94 19.80 219.49 20.45Q218.04 21.10 215.93 21.10L215.93 21.10Q214.61 21.10 213.43 20.86Q212.26 20.62 211.44 20.16L211.44 20.16L211.44 17.86Q212.30 18.36 213.56 18.66Q214.82 18.96 215.95 18.96L215.95 18.96Q217.18 18.96 218.06 18.65Q218.95 18.34 219.42 17.68Q219.89 17.02 219.89 16.01L219.89 16.01Q219.89 14.62 218.94 13.91Q217.99 13.20 215.90 13.20L215.90 13.20Q215.18 13.20 214.34 13.32Q213.50 13.44 213 13.56L213 13.56L211.82 12.86L212.47 5.23L221.28 5.23L221.28 7.49L214.58 7.49L214.25 11.33Q214.66 11.26 215.28 11.17Q215.90 11.09 216.74 11.09ZM236.40 13.03L236.40 13.03Q236.40 14.93 236.08 16.43Q235.75 17.93 235.04 18.97Q234.34 20.02 233.24 20.56Q232.15 21.10 230.59 21.10L230.59 21.10Q228.62 21.10 227.35 20.14Q226.08 19.18 225.46 17.36Q224.83 15.55 224.83 13.03L224.83 13.03Q224.83 10.49 225.41 8.70Q225.98 6.91 227.27 5.95Q228.55 4.99 230.59 4.99L230.59 4.99Q232.56 4.99 233.84 5.94Q235.13 6.89 235.76 8.69Q236.40 10.49 236.40 13.03ZM227.35 13.03L227.35 13.03Q227.35 15.02 227.66 16.34Q227.98 17.66 228.68 18.31Q229.39 18.96 230.59 18.96L230.59 18.96Q231.79 18.96 232.50 18.31Q233.21 17.66 233.53 16.36Q233.86 15.05 233.86 13.03L233.86 13.03Q233.86 11.06 233.53 9.74Q233.21 8.42 232.50 7.76Q231.79 7.10 230.59 7.10L230.59 7.10Q229.39 7.10 228.68 7.76Q227.98 8.42 227.66 9.74Q227.35 11.06 227.35 13.03ZM250.13 13.03L250.13 13.03Q250.13 14.93 249.80 16.43Q249.48 17.93 248.77 18.97Q248.06 20.02 246.97 20.56Q245.88 21.10 244.32 21.10L244.32 21.10Q242.35 21.10 241.08 20.14Q239.81 19.18 239.18 17.36Q238.56 15.55 238.56 13.03L238.56 13.03Q238.56 10.49 239.14 8.70Q239.71 6.91 241.00 5.95Q242.28 4.99 244.32 4.99L244.32 4.99Q246.29 4.99 247.57 5.94Q248.86 6.89 249.49 8.69Q250.13 10.49 250.13 13.03ZM241.08 13.03L241.08 13.03Q241.08 15.02 241.39 16.34Q241.70 17.66 242.41 18.31Q243.12 18.96 244.32 18.96L244.32 18.96Q245.52 18.96 246.23 18.31Q246.94 17.66 247.26 16.36Q247.58 15.05 247.58 13.03L247.58 13.03Q247.58 11.06 247.26 9.74Q246.94 8.42 246.23 7.76Q245.52 7.10 244.32 7.10L244.32 7.10Q243.12 7.10 242.41 7.76Q241.70 8.42 241.39 9.74Q241.08 11.06 241.08 13.03ZM266.54 7.68L266.54 7.68Q268.80 7.68 270 8.81Q271.20 9.94 271.20 12.43L271.20 12.43L271.20 20.86L268.68 20.86L268.68 12.79Q268.68 11.28 268.04 10.52Q267.41 9.77 266.02 9.77L266.02 9.77Q264.05 9.77 263.29 10.94Q262.54 12.12 262.54 14.33L262.54 14.33L262.54 20.86L259.99 20.86L259.99 7.92L262.01 7.92L262.37 9.65L262.51 9.65Q262.94 8.98 263.57 8.54Q264.19 8.11 264.96 7.90Q265.73 7.68 266.54 7.68ZM286.51 14.38L286.51 14.38Q286.51 15.98 286.08 17.23Q285.65 18.48 284.86 19.34Q284.06 20.21 282.94 20.65Q281.81 21.10 280.39 21.10L280.39 21.10Q279.10 21.10 277.99 20.65Q276.89 20.21 276.08 19.34Q275.28 18.48 274.82 17.23Q274.37 15.98 274.37 14.38L274.37 14.38Q274.37 12.22 275.10 10.73Q275.83 9.24 277.21 8.46Q278.59 7.68 280.46 7.68L280.46 7.68Q282.24 7.68 283.60 8.46Q284.95 9.24 285.73 10.73Q286.51 12.22 286.51 14.38ZM276.98 14.38L276.98 14.38Q276.98 15.82 277.34 16.86Q277.70 17.90 278.47 18.46Q279.24 19.01 280.44 19.01L280.44 19.01Q281.64 19.01 282.41 18.46Q283.18 17.90 283.54 16.86Q283.90 15.82 283.90 14.38L283.90 14.38Q283.90 12.89 283.52 11.88Q283.15 10.87 282.40 10.33Q281.64 9.79 280.42 9.79L280.42 9.79Q278.62 9.79 277.80 10.99Q276.98 12.19 276.98 14.38ZM296.11 7.68L296.11 7.68Q296.45 7.68 296.86 7.72Q297.26 7.75 297.53 7.80L297.53 7.80L297.26 10.18Q297 10.10 296.64 10.06Q296.28 10.01 295.97 10.01L295.97 10.01Q295.25 10.01 294.59 10.28Q293.93 10.56 293.40 11.08Q292.87 11.59 292.57 12.34Q292.27 13.08 292.27 14.04L292.27 14.04L292.27 20.86L289.73 20.86L289.73 7.92L291.74 7.92L292.08 10.22L292.18 10.22Q292.58 9.53 293.16 8.95Q293.74 8.38 294.48 8.03Q295.22 7.68 296.11 7.68ZM314.42 7.68L314.42 7.68Q316.61 7.68 317.71 8.81Q318.82 9.94 318.82 12.43L318.82 12.43L318.82 20.86L316.27 20.86L316.27 12.77Q316.27 11.28 315.68 10.52Q315.10 9.77 313.85 9.77L313.85 9.77Q312.12 9.77 311.38 10.84Q310.63 11.90 310.63 13.90L310.63 13.90L310.63 20.86L308.11 20.86L308.11 12.77Q308.11 11.78 307.84 11.11Q307.56 10.44 307.03 10.10Q306.50 9.77 305.66 9.77L305.66 9.77Q304.46 9.77 303.77 10.30Q303.07 10.82 302.77 11.84Q302.47 12.86 302.47 14.33L302.47 14.33L302.47 20.86L299.93 20.86L299.93 7.92L301.94 7.92L302.30 9.65L302.45 9.65Q302.86 8.98 303.44 8.54Q304.03 8.11 304.75 7.90Q305.47 7.68 306.24 7.68L306.24 7.68Q307.70 7.68 308.71 8.20Q309.72 8.71 310.18 9.77L310.18 9.77L310.37 9.77Q310.99 8.69 312.10 8.18Q313.20 7.68 314.42 7.68ZM327.72 7.68L327.72 7.68Q330.17 7.68 331.37 8.75Q332.57 9.82 332.57 12.10L332.57 12.10L332.57 20.86L330.77 20.86L330.26 19.06L330.17 19.06Q329.62 19.75 329.03 20.21Q328.44 20.66 327.68 20.88Q326.93 21.10 325.85 21.10L325.85 21.10Q324.70 21.10 323.77 20.68Q322.85 20.26 322.32 19.38Q321.79 18.50 321.79 17.18L321.79 17.18Q321.79 15.22 323.29 14.18Q324.79 13.15 327.86 13.06L327.86 13.06L330.07 12.98L330.07 12.26Q330.07 10.82 329.42 10.25Q328.78 9.67 327.60 9.67L327.60 9.67Q326.59 9.67 325.68 9.96Q324.77 10.25 323.95 10.66L323.95 10.66L323.14 8.81Q324.05 8.33 325.24 8.00Q326.42 7.68 327.72 7.68ZM330.05 14.64L328.32 14.69Q326.11 14.78 325.26 15.42Q324.41 16.06 324.41 17.21L324.41 17.21Q324.41 18.22 325.02 18.67Q325.63 19.13 326.57 19.13L326.57 19.13Q328.08 19.13 329.06 18.29Q330.05 17.45 330.05 15.77L330.05 15.77L330.05 14.64ZM339.02 2.62L339.02 20.86L336.48 20.86L336.48 2.62L339.02 2.62Z"/></svg>