<svg xmlns="http://www.w3.org/2000/svg" xmlns:xlink="http://www.w3.org/1999/xlink" width="347.448" height="45.576"><path fill="black" d="M11.74 24.70L11.74 24.70Q11.35 24.70 11.23 24.48Q11.11 24.26 11.18 23.93L11.18 23.93Q11.26 23.59 11.45 23.38Q11.64 23.16 11.98 23.16L11.98 23.16Q13.68 23.11 15.30 22.79Q16.92 22.46 18.31 21.86Q19.70 21.26 20.75 20.39Q21.79 19.51 22.38 18.35Q22.97 17.18 22.97 15.72L22.97 15.72Q22.97 14.62 22.50 13.81Q22.03 13.01 21.19 12.48Q20.35 11.95 19.20 11.69Q18.05 11.42 16.66 11.42L16.66 11.42Q14.93 11.42 13.21 11.77Q11.50 12.12 9.90 12.86Q8.30 13.61 6.82 14.78L6.82 14.78Q6.48 15.10 6.20 15.02Q5.93 14.95 5.71 14.69L5.71 14.69Q5.50 14.47 5.52 14.20Q5.54 13.92 5.86 13.66L5.86 13.66Q6.96 12.65 8.28 11.94Q9.60 11.23 11.00 10.76Q12.41 10.30 13.87 10.07Q15.34 9.84 16.78 9.84L16.78 9.84Q18.70 9.84 20.18 10.24Q21.67 10.63 22.68 11.40Q23.69 12.17 24.23 13.25Q24.77 14.33 24.77 15.67L24.77 15.67Q24.77 17.42 24.07 18.84Q23.38 20.26 22.14 21.31Q20.90 22.37 19.26 23.09Q17.62 23.81 15.70 24.20Q13.78 24.60 11.74 24.70ZM3.43 34.25L3.43 34.25Q2.52 34.25 1.79 33.84Q1.06 33.43 0.55 32.72Q0.05 32.02-0.19 31.18L-0.19 31.18Q-0.31 30.82-0.22 30.56Q-0.12 30.31 0.24 30.19L0.24 30.19Q0.62 30.05 0.84 30.16Q1.06 30.26 1.20 30.60L1.20 30.60Q1.49 31.32 1.85 31.78Q2.21 32.23 2.63 32.41Q3.05 32.59 3.55 32.59L3.55 32.59Q4.44 32.59 5.08 31.85Q5.71 31.10 6.31 29.26L6.31 29.26L11.16 14.30Q11.28 14.02 11.51 13.88Q11.74 13.75 12.17 13.75L12.17 13.75Q12.62 13.75 12.83 13.88Q13.03 14.02 12.91 14.35L12.91 14.35L8.06 29.33Q7.54 30.89 6.90 31.99Q6.26 33.10 5.41 33.67Q4.56 34.25 3.43 34.25ZM18.14 34.25L18.14 34.25Q17.78 34.25 17.68 34.02Q17.57 33.79 17.64 33.50Q17.71 33.22 17.95 32.99Q18.19 32.76 18.53 32.76L18.53 32.76Q19.22 32.76 20.16 32.28Q21.10 31.80 22.19 30.94Q23.28 30.07 24.44 28.91Q25.61 27.74 26.78 26.38Q27.96 25.01 29.05 23.54Q30.14 22.08 31.09 20.58Q32.04 19.08 32.74 17.66Q33.43 16.25 33.83 14.98Q34.22 13.70 34.22 12.67L34.22 12.67Q34.22 12.36 34.49 12.20Q34.75 12.05 35.08 12.05Q35.40 12.05 35.66 12.20Q35.93 12.36 35.93 12.67L35.93 12.67Q35.93 13.75 35.50 15.10Q35.06 16.44 34.30 17.96Q33.53 19.49 32.48 21.11Q31.44 22.73 30.22 24.31Q28.99 25.90 27.68 27.36Q26.38 28.82 25.04 30.07Q23.71 31.32 22.45 32.26Q21.19 33.19 20.10 33.72Q19.01 34.25 18.14 34.25ZM25.80 34.22L25.80 34.22Q25.01 34.22 24.56 33.91Q24.12 33.60 23.98 33.05Q23.83 32.50 23.93 31.81Q24.02 31.13 24.24 30.41L24.24 30.41L29.47 14.26Q30.24 11.88 31.21 10.81Q32.18 9.74 33.53 9.74L33.53 9.74Q34.27 9.74 34.81 10.12Q35.35 10.49 35.64 11.14Q35.93 11.78 35.93 12.70L35.93 12.70Q35.93 13.06 35.66 13.25Q35.40 13.44 35.08 13.44Q34.75 13.44 34.49 13.25Q34.22 13.06 34.22 12.70L34.22 12.70Q34.22 12.26 34.13 11.96Q34.03 11.66 33.83 11.50Q33.62 11.33 33.31 11.33L33.31 11.33Q32.90 11.33 32.54 11.64Q32.18 11.95 31.84 12.67Q31.49 13.39 31.06 14.64L31.06 14.64L25.73 31.18Q25.58 31.66 25.55 32.02Q25.51 32.38 25.64 32.56Q25.78 32.74 26.09 32.74L26.09 32.74Q26.42 32.74 26.77 32.52Q27.12 32.30 27.42 31.98Q27.72 31.66 27.96 31.32L27.96 31.32Q28.13 31.13 28.32 31.07Q28.51 31.01 28.80 31.20L28.80 31.20Q29.14 31.39 29.15 31.61Q29.16 31.82 29.04 32.04L29.04 32.04Q28.80 32.47 28.33 32.98Q27.86 33.48 27.24 33.85Q26.62 34.22 25.80 34.22ZM35.57 34.25L35.57 34.25Q34.63 34.25 33.94 33.79Q33.24 33.34 32.87 32.48Q32.50 31.63 32.50 30.46L32.50 30.46Q32.50 29.35 32.81 28.12Q33.12 26.88 33.76 25.69Q34.39 24.50 35.34 23.53Q36.29 22.56 37.54 21.97Q38.78 21.38 40.32 21.38L40.32 21.38Q41.11 21.38 41.90 21.61Q42.70 21.84 43.39 22.27L43.39 22.27L43.46 22.01Q43.58 21.67 43.79 21.58Q43.99 21.48 44.35 21.48L44.35 21.48Q44.93 21.48 45.10 21.68Q45.26 21.89 45.12 22.27L45.12 22.27L42.17 31.25Q42.02 31.68 42 32.03Q41.98 32.38 42.12 32.56Q42.26 32.74 42.55 32.74L42.55 32.74Q42.91 32.74 43.25 32.53Q43.58 32.33 43.88 32.00Q44.18 31.68 44.42 31.34L44.42 31.34Q44.59 31.15 44.78 31.08Q44.98 31.01 45.24 31.22L45.24 31.22Q45.58 31.42 45.60 31.63Q45.62 31.85 45.53 32.04L45.53 32.04Q45.26 32.47 44.80 32.98Q44.33 33.48 43.70 33.85Q43.08 34.22 42.29 34.22L42.29 34.22Q41.62 34.22 41.22 34.00Q40.82 33.77 40.63 33.37Q40.44 32.98 40.42 32.47Q40.39 31.97 40.51 31.42L40.51 31.42Q40.58 31.22 40.64 31.01Q40.70 30.79 40.75 30.58L40.75 30.58Q39.82 31.92 38.90 32.72Q37.99 33.53 37.15 33.89Q36.31 34.25 35.57 34.25ZM34.27 30.26L34.27 30.26Q34.27 30.98 34.48 31.54Q34.68 32.09 35.09 32.39Q35.50 32.69 36.10 32.69L36.10 32.69Q36.94 32.69 37.90 32.02Q38.86 31.34 39.89 30.02Q40.92 28.70 41.90 26.74L41.90 26.74L42.96 23.62Q42.17 23.18 41.51 23.05Q40.85 22.92 40.20 22.92L40.20 22.92Q39 22.92 38.05 23.41Q37.10 23.90 36.40 24.71Q35.69 25.51 35.22 26.48Q34.75 27.46 34.51 28.44Q34.27 29.42 34.27 30.26ZM56.28 35.76L56.52 34.03Q57 33.72 57.46 33.46Q57.91 33.19 58.38 32.94Q58.85 32.69 59.28 32.47Q59.71 32.26 60.07 32.11L60.07 32.11Q60.38 31.97 60.58 32.09Q60.77 32.21 60.83 32.47Q60.89 32.74 60.79 33Q60.70 33.26 60.46 33.38L60.46 33.38Q59.98 33.62 59.46 33.91Q58.94 34.20 58.40 34.49Q57.86 34.78 57.34 35.11Q56.81 35.45 56.28 35.76L56.28 35.76ZM49.66 45.94L49.66 45.94Q48.31 45.94 47.57 45.20Q46.82 44.47 46.82 43.34L46.82 43.34Q46.82 42.38 47.22 41.52Q47.62 40.66 48.34 39.82Q49.06 38.98 50.09 38.15Q51.12 37.32 52.42 36.50L52.42 36.50Q52.92 36.17 53.40 35.86Q53.88 35.54 54.37 35.26Q54.86 34.97 55.37 34.66L55.37 34.66L56.78 30.29Q56.09 31.32 55.36 32.06Q54.62 32.81 53.89 33.29Q53.16 33.77 52.46 34.00Q51.77 34.22 51.12 34.22L51.12 34.22Q49.97 34.22 49.27 33.70Q48.58 33.17 48.41 32.14Q48.24 31.10 48.77 29.59L48.77 29.59L50.52 24.24Q50.74 23.57 50.62 23.23Q50.50 22.90 50.04 22.90L50.04 22.90Q49.68 22.90 49.28 23.15Q48.89 23.40 48.47 23.89Q48.05 24.38 47.54 25.13L47.54 25.13Q47.35 25.37 47.17 25.45Q46.99 25.54 46.66 25.44L46.66 25.44Q46.27 25.27 46.24 25.03Q46.20 24.79 46.34 24.50L46.34 24.50Q46.85 23.64 47.45 22.94Q48.05 22.25 48.77 21.84Q49.49 21.43 50.33 21.43L50.33 21.43Q51.05 21.43 51.49 21.68Q51.94 21.94 52.14 22.39Q52.34 22.85 52.32 23.46Q52.30 24.07 52.06 24.79L52.06 24.79L50.40 29.81Q50.11 30.72 50.12 31.37Q50.14 32.02 50.51 32.35Q50.88 32.69 51.65 32.69L51.65 32.69Q52.37 32.69 53.18 32.26Q54 31.82 54.88 30.97Q55.75 30.12 56.60 28.85Q57.46 27.58 58.20 25.90L58.20 25.90L59.45 22.10Q59.57 21.72 59.76 21.60Q59.95 21.48 60.34 21.48L60.34 21.48Q60.91 21.48 61.08 21.67Q61.25 21.86 61.13 22.27L61.13 22.27L55.39 39.79Q54.89 41.35 54.31 42.52Q53.74 43.68 53.04 44.45Q52.34 45.22 51.52 45.58Q50.69 45.94 49.66 45.94ZM49.92 44.42L49.92 44.42Q50.71 44.42 51.40 43.87Q52.08 43.32 52.68 42.28Q53.28 41.23 53.74 39.70L53.74 39.70L54.72 36.67Q54.41 36.86 54.11 37.07Q53.81 37.27 53.50 37.45Q53.18 37.63 52.90 37.85L52.90 37.85Q51.84 38.57 51.04 39.24Q50.23 39.91 49.68 40.56Q49.13 41.21 48.85 41.83Q48.58 42.46 48.58 43.08L48.58 43.08Q48.58 43.49 48.72 43.79Q48.86 44.09 49.18 44.26Q49.49 44.42 49.92 44.42ZM67.20 34.30L67.20 34.30Q66.17 34.30 65.53 33.90Q64.90 33.50 64.64 32.80Q64.39 32.09 64.44 31.19Q64.49 30.29 64.80 29.35L64.80 29.35L66.48 24.22Q66.70 23.57 66.58 23.23Q66.46 22.90 66 22.90L66 22.90Q65.64 22.90 65.24 23.15Q64.85 23.40 64.43 23.89Q64.01 24.38 63.50 25.13L63.50 25.13Q63.31 25.37 63.13 25.45Q62.95 25.54 62.62 25.44L62.62 25.44Q62.23 25.27 62.20 25.03Q62.16 24.79 62.30 24.50L62.30 24.50Q62.81 23.64 63.41 22.94Q64.01 22.25 64.73 21.84Q65.45 21.43 66.29 21.43L66.29 21.43Q66.98 21.43 67.43 21.68Q67.87 21.94 68.06 22.39Q68.26 22.85 68.23 23.46Q68.21 24.07 67.99 24.77L67.99 24.77L66.46 29.52Q66.19 30.36 66.14 31.10Q66.10 31.85 66.42 32.29Q66.74 32.74 67.58 32.74L67.58 32.74Q68.26 32.74 68.95 32.36Q69.65 31.99 70.30 31.31Q70.94 30.62 71.51 29.70Q72.07 28.78 72.46 27.74L72.46 27.74L74.30 22.10Q74.40 21.77 74.59 21.61Q74.78 21.46 75.19 21.46L75.19 21.46Q75.77 21.46 75.92 21.65Q76.08 21.84 75.96 22.20L75.96 22.20L73.87 28.75Q73.63 29.47 73.50 30.19Q73.37 30.91 73.44 31.49Q73.51 32.06 73.86 32.40Q74.21 32.74 74.95 32.74L74.95 32.74Q75.89 32.74 76.73 32.21Q77.57 31.68 78.26 30.82Q78.96 29.95 79.45 28.91Q79.94 27.86 80.23 26.76Q80.52 25.66 80.52 24.70L80.52 24.70Q80.52 24.34 80.48 23.95Q80.45 23.57 80.40 23.20Q80.35 22.82 80.23 22.44L80.23 22.44Q80.16 22.08 80.23 21.85Q80.30 21.62 80.52 21.50Q80.74 21.38 81.02 21.38L81.02 21.38Q81.36 21.38 81.56 21.59Q81.77 21.79 81.89 22.30L81.89 22.30Q81.98 22.66 82.06 23.04Q82.13 23.42 82.16 23.80Q82.20 24.17 82.20 24.58L82.20 24.58Q82.20 25.73 81.84 27.06Q81.48 28.39 80.83 29.66Q80.18 30.94 79.25 31.99Q78.31 33.05 77.16 33.67Q76.01 34.30 74.64 34.30L74.64 34.30Q73.63 34.30 72.97 33.92Q72.31 33.55 72 32.90Q71.69 32.26 71.69 31.39L71.69 31.39Q71.11 32.30 70.39 32.96Q69.67 33.62 68.88 33.96Q68.09 34.30 67.20 34.30ZM79.80 34.25L79.80 34.25Q79.44 34.25 79.32 34.02Q79.20 33.79 79.27 33.50Q79.34 33.22 79.57 32.99Q79.80 32.76 80.18 32.76L80.18 32.76Q81.02 32.76 81.89 32.23Q82.75 31.70 83.68 30.58Q84.60 29.45 85.64 27.56Q86.69 25.68 87.86 22.99L87.86 22.99L88.97 23.59Q87.70 26.64 86.54 28.69Q85.39 30.74 84.30 31.97Q83.21 33.19 82.10 33.72Q81 34.25 79.80 34.25ZM93.10 34.22L93.10 34.22Q92.35 34.22 91.91 33.96Q91.46 33.70 91.30 33.23Q91.13 32.76 91.18 32.16Q91.22 31.56 91.44 30.89L91.44 30.89Q91.63 30.34 91.93 29.59Q92.23 28.85 92.59 28.02Q92.95 27.19 93.29 26.36Q93.62 25.54 93.82 24.82L93.82 24.82Q94.06 23.90 93.84 23.58Q93.62 23.26 93.07 23.26L93.07 23.26Q92.47 23.26 91.74 23.47Q91.01 23.69 90.26 23.90Q89.52 24.12 88.82 24.12L88.82 24.12Q88.42 24.12 88.10 23.84Q87.79 23.57 87.64 23.10Q87.48 22.63 87.48 22.08L87.48 22.08Q87.48 21.58 87.65 21.13Q87.82 20.69 88.14 20.41Q88.46 20.14 88.94 20.14L88.94 20.14Q89.40 20.14 89.60 20.40Q89.81 20.66 89.81 21.07L89.81 21.07Q89.81 21.41 89.70 21.80Q89.59 22.20 89.40 22.61L89.40 22.61Q89.88 22.61 90.59 22.36Q91.30 22.10 92.11 21.86Q92.93 21.62 93.74 21.62L93.74 21.62Q94.46 21.62 94.96 21.96Q95.45 22.30 95.60 23.03Q95.76 23.76 95.42 24.96L95.42 24.96Q95.26 25.63 94.92 26.45Q94.58 27.26 94.22 28.14Q93.86 29.02 93.53 29.82Q93.19 30.62 93 31.27L93 31.27Q92.74 32.06 92.86 32.40Q92.98 32.74 93.41 32.74L93.41 32.74Q93.74 32.74 94.08 32.52Q94.42 32.30 94.72 31.98Q95.02 31.66 95.28 31.32L95.28 31.32Q95.42 31.13 95.60 31.07Q95.78 31.01 96.07 31.20L96.07 31.20Q96.41 31.39 96.43 31.61Q96.46 31.82 96.34 32.04L96.34 32.04Q96.07 32.47 95.62 32.98Q95.16 33.48 94.52 33.85Q93.89 34.22 93.10 34.22ZM100.37 34.22L100.37 34.22Q99.05 34.22 98.60 33.28Q98.16 32.33 98.78 30.46L98.78 30.46L101.52 22.10Q101.62 21.72 101.81 21.60Q102 21.48 102.41 21.48L102.41 21.48Q102.98 21.48 103.16 21.66Q103.34 21.84 103.20 22.22L103.20 22.22L100.30 31.13Q100.03 31.94 100.13 32.34Q100.22 32.74 100.68 32.74L100.68 32.74Q101.02 32.74 101.34 32.53Q101.66 32.33 101.98 32.00Q102.29 31.68 102.55 31.32L102.55 31.32Q102.70 31.13 102.89 31.07Q103.08 31.01 103.34 31.20L103.34 31.20Q103.68 31.39 103.70 31.61Q103.73 31.82 103.61 32.04L103.61 32.04Q103.27 32.62 102.77 33.12Q102.26 33.62 101.66 33.92Q101.06 34.22 100.37 34.22ZM103.85 17.62L103.85 17.62Q103.42 17.62 103.09 17.35Q102.77 17.09 102.77 16.56L102.77 16.56Q102.77 15.96 103.18 15.44Q103.58 14.93 104.35 14.93L104.35 14.93Q104.78 14.93 105.11 15.18Q105.43 15.43 105.43 15.96L105.43 15.96Q105.43 16.56 105.04 17.09Q104.64 17.62 103.85 17.62ZM101.47 34.25L101.47 34.25Q101.18 34.25 101.05 34.02Q100.92 33.79 100.97 33.50Q101.02 33.22 101.22 32.99Q101.42 32.76 101.78 32.76L101.78 32.76Q102.43 32.76 103.39 32.06Q104.35 31.37 105.50 30.14Q106.66 28.92 107.92 27.32Q109.18 25.73 110.45 23.92Q111.72 22.10 112.91 20.21Q114.10 18.31 115.14 16.52Q116.18 14.74 116.98 13.19Q117.77 11.64 118.20 10.51L118.20 10.51Q118.34 10.08 118.55 9.97Q118.75 9.86 119.11 9.86L119.11 9.86Q119.71 9.86 119.87 10.04Q120.02 10.22 119.90 10.61L119.90 10.61L113.18 31.34Q114.29 31.06 115.50 30.38Q116.71 29.71 118.02 28.68Q119.33 27.65 120.74 26.30L120.74 26.30Q120.86 26.18 121.07 26.14Q121.27 26.09 121.51 26.33L121.51 26.33Q121.75 26.57 121.74 26.75Q121.73 26.93 121.58 27.07L121.58 27.07Q120.17 28.49 118.68 29.66Q117.19 30.84 115.70 31.64Q114.22 32.45 112.73 32.74L112.73 32.74L112.44 33.65Q112.34 33.91 112.14 34.06Q111.94 34.20 111.50 34.20L111.50 34.20Q111.17 34.20 110.93 34.06Q110.69 33.91 110.78 33.55L110.78 33.55L111.00 32.83Q110.35 32.76 109.81 32.54Q109.27 32.33 108.95 31.90Q108.62 31.46 108.62 30.91L108.62 30.91Q108.62 30.24 109.04 29.78Q109.46 29.33 110.21 29.33L110.21 29.33Q110.74 29.33 111.18 29.57Q111.62 29.81 111.86 30.19L111.86 30.19L116.06 17.11Q114.98 19.10 113.74 21.16Q112.49 23.21 111.18 25.13Q109.87 27.05 108.55 28.70Q107.23 30.36 105.97 31.61Q104.71 32.86 103.57 33.55Q102.43 34.25 101.47 34.25ZM110.04 30.86L110.04 30.86Q110.04 31.08 110.21 31.24Q110.38 31.39 110.68 31.46Q110.98 31.54 111.34 31.56L111.34 31.56Q111.36 31.08 111.05 30.82Q110.74 30.55 110.42 30.55L110.42 30.55Q110.04 30.55 110.04 30.86ZM125.47 34.27L125.47 34.27Q124.61 34.27 123.90 33.98Q123.19 33.70 122.63 33.19Q122.06 32.69 121.67 31.99Q121.27 31.30 121.06 30.46Q120.84 29.62 120.84 28.68L120.84 28.68Q120.84 27.77 121.04 26.77Q121.25 25.78 121.69 24.82Q122.14 23.86 122.80 23.08Q123.46 22.30 124.34 21.84Q125.23 21.38 126.36 21.38L126.36 21.38Q127.22 21.38 127.82 21.72Q128.42 22.06 128.72 22.64Q129.02 23.23 129.02 24.00L129.02 24.00Q129.02 25.27 128.38 26.51Q127.73 27.74 126.62 28.86Q125.52 29.98 124.15 30.98L124.15 30.98Q122.83 31.94 121.40 32.68Q119.98 33.41 118.60 33.83Q117.22 34.25 116.02 34.25L116.02 34.25Q115.73 34.25 115.61 34.02Q115.49 33.79 115.54 33.50Q115.58 33.22 115.81 32.99Q116.04 32.76 116.45 32.76L116.45 32.76Q117.46 32.76 118.66 32.36Q119.86 31.97 121.08 31.30Q122.30 30.62 123.41 29.76L123.41 29.76Q124.46 28.97 125.33 28.08Q126.19 27.19 126.73 26.23Q127.27 25.27 127.27 24.34L127.27 24.34Q127.27 23.66 126.96 23.30Q126.65 22.94 126.00 22.94L126.00 22.94Q125.16 22.94 124.51 23.52Q123.86 24.10 123.43 24.97Q123.00 25.85 122.77 26.83Q122.54 27.82 122.54 28.63L122.54 28.63Q122.54 29.52 122.77 30.28Q123.00 31.03 123.43 31.57Q123.86 32.11 124.45 32.41Q125.04 32.71 125.78 32.71L125.78 32.71Q126.50 32.71 127.19 32.44Q127.87 32.16 128.52 31.67Q129.17 31.18 129.72 30.65L129.72 30.65Q129.96 30.41 130.24 30.44Q130.51 30.48 130.70 30.70L130.70 30.70Q130.94 30.91 130.99 31.16Q131.04 31.42 130.78 31.70L130.78 31.70Q130.06 32.52 129.22 33.08Q128.38 33.65 127.43 33.96Q126.48 34.27 125.47 34.27ZM143.98 34.30L143.98 34.30Q142.54 34.30 141.32 33.52Q140.11 32.74 139.22 31.37L139.22 31.37Q139.03 31.06 139.08 30.79Q139.13 30.53 139.44 30.31L139.44 30.31Q139.75 30.10 140.00 30.12Q140.26 30.14 140.50 30.43L140.50 30.43Q141.29 31.42 142.14 32.03Q142.99 32.64 144.07 32.64L144.07 32.64Q144.91 32.64 145.58 32.23Q146.26 31.82 146.81 30.98Q147.36 30.14 147.79 28.80L147.79 28.80L151.22 18.26Q151.87 16.30 152.63 14.74Q153.38 13.18 154.27 12.08Q155.16 10.99 156.25 10.42Q157.34 9.84 158.69 9.84L158.69 9.84Q159.82 9.84 160.73 10.28Q161.64 10.73 162.16 11.56Q162.67 12.38 162.67 13.58L162.67 13.58Q162.67 15.00 162.07 16.26Q161.47 17.52 160.39 18.56Q159.31 19.61 157.88 20.36Q156.46 21.12 154.78 21.54Q153.10 21.96 151.30 21.96L151.30 21.96Q149.93 21.96 148.61 21.76Q147.29 21.55 146.08 21.20Q144.86 20.86 143.78 20.38Q142.70 19.90 141.77 19.34L141.77 19.34Q141.46 19.18 141.41 18.90Q141.36 18.62 141.55 18.31L141.55 18.31Q141.77 17.93 142.04 17.87Q142.32 17.81 142.63 18.00L142.63 18.00Q143.50 18.53 144.52 18.97Q145.54 19.42 146.69 19.74Q147.84 20.06 149.12 20.24Q150.41 20.42 151.75 20.42L151.75 20.42Q153.17 20.42 154.51 20.08Q155.86 19.73 157.02 19.12Q158.18 18.50 159.05 17.65Q159.91 16.80 160.40 15.79Q160.90 14.78 160.90 13.68L160.90 13.68Q160.90 12.94 160.61 12.46Q160.32 11.98 159.80 11.71Q159.29 11.45 158.57 11.45L158.57 11.45Q157.61 11.45 156.78 11.96Q155.95 12.48 155.27 13.43Q154.58 14.38 153.97 15.68Q153.36 16.99 152.86 18.58L152.86 18.58L149.38 29.28Q148.80 31.01 148.04 32.12Q147.29 33.24 146.28 33.77Q145.27 34.30 143.98 34.30ZM177.60 34.30L177.60 34.30Q176.81 34.30 176.16 34.02Q175.51 33.74 174.92 33.12Q174.34 32.50 173.80 31.45Q173.26 30.41 172.70 28.90L172.70 28.90L170.35 22.37L168.10 29.33Q167.59 30.89 166.96 32.00Q166.32 33.12 165.46 33.68Q164.59 34.25 163.46 34.25L163.46 34.25Q162.55 34.25 161.82 33.84Q161.09 33.43 160.60 32.72Q160.10 32.02 159.84 31.18L159.84 31.18Q159.74 30.82 159.83 30.56Q159.91 30.31 160.27 30.19L160.27 30.19Q160.66 30.05 160.88 30.16Q161.11 30.26 161.26 30.60L161.26 30.60Q161.52 31.32 161.84 31.76Q162.17 32.21 162.59 32.40Q163.01 32.59 163.54 32.59L163.54 32.59Q164.16 32.59 164.65 32.28Q165.14 31.97 165.55 31.24Q165.96 30.50 166.37 29.26L166.37 29.26L171.36 13.97Q171.74 12.70 171.50 12.10Q171.26 11.50 170.42 11.50L170.42 11.50Q169.90 11.50 169.31 11.75Q168.72 12.00 167.99 12.56Q167.26 13.13 166.34 14.09L166.34 14.09Q166.13 14.30 165.89 14.30Q165.65 14.30 165.36 14.04L165.36 14.04Q165.12 13.78 165.11 13.56Q165.10 13.34 165.34 13.08L165.34 13.08Q166.20 12.10 167.10 11.39Q168 10.68 168.90 10.30Q169.80 9.91 170.69 9.91L170.69 9.91Q172.39 9.91 173.03 11.06Q173.66 12.22 172.97 14.30L172.97 14.30L170.93 20.64L183.86 10.18Q184.22 9.86 184.50 9.91Q184.78 9.96 184.99 10.30L184.99 10.30Q185.21 10.61 185.20 10.87Q185.18 11.14 184.87 11.40L184.87 11.40L171.91 21.84L174.07 27.79Q174.60 29.26 175.07 30.20Q175.54 31.15 175.97 31.70Q176.40 32.26 176.86 32.48Q177.31 32.71 177.79 32.71L177.79 32.71Q178.49 32.71 179.22 32.12Q179.95 31.54 180.86 30.31L180.86 30.31Q181.08 30.07 181.32 30.00Q181.56 29.93 181.90 30.17L181.90 30.17Q182.16 30.38 182.22 30.64Q182.28 30.89 182.06 31.20L182.06 31.20Q181.54 32.02 180.84 32.72Q180.14 33.43 179.32 33.86Q178.49 34.30 177.60 34.30ZM198.12 34.30L198.12 34.30Q196.66 34.30 195.34 33.79Q194.02 33.29 192.96 32.36Q191.90 31.44 191.23 30.17L191.23 30.17Q190.99 29.66 190.98 29.40Q190.97 29.14 191.40 28.90L191.40 28.90Q191.81 28.63 192.01 28.72Q192.22 28.80 192.48 29.18L192.48 29.18Q193.13 30.36 193.97 31.14Q194.81 31.92 195.88 32.32Q196.94 32.71 198.38 32.71L198.38 32.71Q199.94 32.71 201.17 32.23Q202.39 31.75 203.24 30.89Q204.10 30.02 204.53 28.88Q204.96 27.74 204.96 26.42L204.96 26.42Q204.96 25.03 204.41 24.04Q203.86 23.04 202.80 22.49Q201.74 21.94 200.26 21.94L200.26 21.94L198.65 21.94Q198.43 21.94 198.35 21.74Q198.26 21.55 198.36 21.14L198.36 21.14Q198.46 20.76 198.67 20.57Q198.89 20.38 199.10 20.38L199.10 20.38L200.64 20.38Q202.08 20.38 203.33 20.03Q204.58 19.68 205.49 19.00Q206.40 18.31 206.92 17.29Q207.43 16.27 207.43 14.95L207.43 14.95Q207.43 14.09 207.14 13.43Q206.86 12.77 206.33 12.32Q205.80 11.88 205.07 11.64Q204.34 11.40 203.42 11.40L203.42 11.40Q202.42 11.40 201.52 11.65Q200.62 11.90 199.76 12.38Q198.91 12.86 198.05 13.58L198.05 13.58Q197.64 13.92 197.39 13.91Q197.14 13.90 196.80 13.56L196.80 13.56Q196.54 13.27 196.60 13.02Q196.66 12.77 197.06 12.36L197.06 12.36Q197.88 11.62 198.94 11.04Q199.99 10.46 201.20 10.15Q202.42 9.84 203.69 9.84L203.69 9.84Q204.82 9.84 205.81 10.18Q206.81 10.51 207.59 11.15Q208.37 11.78 208.80 12.72Q209.23 13.66 209.23 14.81L209.23 14.81Q209.23 16.06 208.86 17.12Q208.49 18.19 207.76 19.03Q207.02 19.87 205.92 20.46Q204.82 21.05 203.38 21.34L203.38 21.34Q204.43 21.67 205.20 22.40Q205.97 23.14 206.39 24.14Q206.81 25.15 206.81 26.30L206.81 26.30Q206.81 27.98 206.20 29.42Q205.58 30.86 204.43 31.97Q203.28 33.07 201.70 33.68Q200.11 34.30 198.12 34.30ZM216.74 34.30L216.74 34.30Q214.99 34.30 213.62 33.54Q212.26 32.78 211.46 31.21Q210.67 29.64 210.67 27.19L210.67 27.19Q210.67 25.30 211.07 23.29Q211.46 21.29 212.23 19.34Q213 17.40 214.10 15.68Q215.21 13.97 216.61 12.65Q218.02 11.33 219.73 10.58Q221.45 9.84 223.44 9.84L223.44 9.84Q225.19 9.84 226.54 10.60Q227.88 11.35 228.67 12.91Q229.46 14.47 229.46 16.85L229.46 16.85Q229.46 18.74 229.07 20.78Q228.67 22.82 227.90 24.77Q227.14 26.71 226.04 28.43Q224.95 30.14 223.54 31.46Q222.12 32.78 220.42 33.54Q218.71 34.30 216.74 34.30ZM217.18 32.62L217.18 32.62Q218.69 32.62 220.04 31.94Q221.40 31.27 222.56 30.11Q223.73 28.94 224.65 27.42Q225.58 25.90 226.25 24.18Q226.92 22.46 227.27 20.70Q227.62 18.94 227.62 17.28L227.62 17.28Q227.62 15.14 227.04 13.88Q226.46 12.62 225.44 12.07Q224.42 11.52 223.03 11.52L223.03 11.52Q221.52 11.52 220.15 12.18Q218.78 12.84 217.61 14.02Q216.43 15.19 215.50 16.70Q214.56 18.22 213.89 19.92Q213.22 21.62 212.87 23.39Q212.52 25.15 212.52 26.78L212.52 26.78Q212.52 28.97 213.10 30.25Q213.67 31.54 214.74 32.08Q215.81 32.62 217.18 32.62ZM236.81 34.30L236.81 34.30Q235.06 34.30 233.69 33.54Q232.32 32.78 231.53 31.21Q230.74 29.64 230.74 27.19L230.74 27.19Q230.74 25.30 231.13 23.29Q231.53 21.29 232.30 19.34Q233.06 17.40 234.17 15.68Q235.27 13.97 236.68 12.65Q238.08 11.33 239.80 10.58Q241.51 9.84 243.50 9.84L243.50 9.84Q245.26 9.84 246.60 10.60Q247.94 11.35 248.74 12.91Q249.53 14.47 249.53 16.85L249.53 16.85Q249.53 18.74 249.13 20.78Q248.74 22.82 247.97 24.77Q247.20 26.71 246.11 28.43Q245.02 30.14 243.60 31.46Q242.18 32.78 240.48 33.54Q238.78 34.30 236.81 34.30ZM237.24 32.62L237.24 32.62Q238.75 32.62 240.11 31.94Q241.46 31.27 242.63 30.11Q243.79 28.94 244.72 27.42Q245.64 25.90 246.31 24.18Q246.98 22.46 247.33 20.70Q247.68 18.94 247.68 17.28L247.68 17.28Q247.68 15.14 247.10 13.88Q246.53 12.62 245.51 12.07Q244.49 11.52 243.10 11.52L243.10 11.52Q241.58 11.52 240.22 12.18Q238.85 12.84 237.67 14.02Q236.50 15.19 235.56 16.70Q234.62 18.22 233.95 19.92Q233.28 21.62 232.93 23.39Q232.58 25.15 232.58 26.78L232.58 26.78Q232.58 28.97 233.16 30.25Q233.74 31.54 234.80 32.08Q235.87 32.62 237.24 32.62ZM257.38 34.20L257.38 34.20Q257.04 34.20 256.78 34.06Q256.51 33.91 256.63 33.55L256.63 33.55L259.66 24.24Q259.87 23.57 259.75 23.23Q259.63 22.90 259.18 22.90L259.18 22.90Q258.82 22.90 258.42 23.15Q258.02 23.40 257.60 23.89Q257.18 24.38 256.68 25.13L256.68 25.13Q256.49 25.37 256.31 25.45Q256.13 25.54 255.79 25.44L255.79 25.44Q255.41 25.27 255.37 25.03Q255.34 24.79 255.48 24.50L255.48 24.50Q255.98 23.64 256.58 22.94Q257.18 22.25 257.90 21.84Q258.62 21.43 259.46 21.43L259.46 21.43Q260.14 21.43 260.54 21.65Q260.95 21.86 261.16 22.25Q261.36 22.63 261.40 23.12Q261.43 23.62 261.31 24.19L261.31 24.19L260.93 25.42Q261.65 24.36 262.39 23.59Q263.14 22.82 263.89 22.33Q264.65 21.84 265.39 21.61Q266.14 21.38 266.83 21.38L266.83 21.38Q268.01 21.38 268.68 21.94Q269.35 22.49 269.48 23.53Q269.62 24.58 269.11 26.11L269.11 26.11L267.43 31.18Q267.29 31.66 267.25 32.02Q267.22 32.38 267.35 32.56Q267.48 32.74 267.77 32.74L267.77 32.74Q268.15 32.74 268.49 32.52Q268.82 32.30 269.12 31.98Q269.42 31.66 269.69 31.32L269.69 31.32Q269.83 31.13 270.01 31.07Q270.19 31.01 270.48 31.20L270.48 31.20Q270.82 31.39 270.84 31.61Q270.86 31.82 270.74 32.04L270.74 32.04Q270.50 32.47 270.04 32.98Q269.57 33.48 268.93 33.85Q268.30 34.22 267.50 34.22L267.50 34.22Q266.69 34.22 266.26 33.91Q265.82 33.60 265.68 33.06Q265.54 32.52 265.62 31.85Q265.70 31.18 265.97 30.43L265.97 30.43L267.58 25.61Q267.84 24.77 267.82 24.17Q267.79 23.57 267.42 23.24Q267.05 22.92 266.28 22.92L266.28 22.92Q265.54 22.92 264.70 23.35Q263.86 23.78 262.97 24.64Q262.08 25.49 261.23 26.74Q260.38 27.98 259.61 29.66L259.61 29.66L258.31 33.67Q258.24 33.94 258.04 34.07Q257.83 34.20 257.38 34.20ZM277.25 34.30L277.25 34.30Q275.83 34.30 274.85 33.71Q273.86 33.12 273.37 32.08Q272.88 31.03 272.88 29.71L272.88 29.71Q272.88 28.42 273.34 26.98Q273.79 25.54 274.70 24.25Q275.62 22.97 276.97 22.18Q278.33 21.38 280.15 21.38L280.15 21.38Q281.54 21.38 282.52 21.94Q283.49 22.49 283.98 23.48Q284.47 24.48 284.47 25.80L284.47 25.80Q284.47 26.76 284.20 27.91Q283.92 29.06 283.36 30.19Q282.79 31.32 281.93 32.24Q281.06 33.17 279.89 33.73Q278.71 34.30 277.25 34.30ZM277.44 32.74L277.44 32.74Q278.74 32.74 279.72 32.06Q280.70 31.39 281.36 30.35Q282.02 29.30 282.36 28.14Q282.70 26.98 282.70 25.99L282.70 25.99Q282.70 25.01 282.37 24.34Q282.05 23.66 281.44 23.30Q280.82 22.94 279.96 22.94L279.96 22.94Q278.66 22.94 277.67 23.60Q276.67 24.26 276.00 25.30Q275.33 26.33 274.99 27.47Q274.66 28.61 274.66 29.59L274.66 29.59Q274.66 30.58 274.98 31.28Q275.30 31.99 275.94 32.36Q276.58 32.74 277.44 32.74ZM281.88 34.25L281.88 34.25Q281.52 34.25 281.40 34.02Q281.28 33.79 281.35 33.50Q281.42 33.22 281.65 32.99Q281.88 32.76 282.26 32.76L282.26 32.76Q283.10 32.76 283.97 32.23Q284.83 31.70 285.76 30.58Q286.68 29.45 287.72 27.56Q288.77 25.68 289.94 22.99L289.94 22.99L291.05 23.59Q289.78 26.64 288.62 28.69Q287.47 30.74 286.38 31.97Q285.29 33.19 284.18 33.72Q283.08 34.25 281.88 34.25ZM295.18 34.22L295.18 34.22Q294.43 34.22 293.99 33.96Q293.54 33.70 293.38 33.23Q293.21 32.76 293.26 32.16Q293.30 31.56 293.52 30.89L293.52 30.89Q293.71 30.34 294.01 29.59Q294.31 28.85 294.67 28.02Q295.03 27.19 295.37 26.36Q295.70 25.54 295.90 24.82L295.90 24.82Q296.14 23.90 295.92 23.58Q295.70 23.26 295.15 23.26L295.15 23.26Q294.55 23.26 293.82 23.47Q293.09 23.69 292.34 23.90Q291.60 24.12 290.90 24.12L290.90 24.12Q290.50 24.12 290.18 23.84Q289.87 23.57 289.72 23.10Q289.56 22.63 289.56 22.08L289.56 22.08Q289.56 21.58 289.73 21.13Q289.90 20.69 290.22 20.41Q290.54 20.14 291.02 20.14L291.02 20.14Q291.48 20.14 291.68 20.40Q291.89 20.66 291.89 21.07L291.89 21.07Q291.89 21.41 291.78 21.80Q291.67 22.20 291.48 22.61L291.48 22.61Q291.96 22.61 292.67 22.36Q293.38 22.10 294.19 21.86Q295.01 21.62 295.82 21.62L295.82 21.62Q296.54 21.62 297.04 21.96Q297.53 22.30 297.68 23.03Q297.84 23.76 297.50 24.96L297.50 24.96Q297.34 25.63 297.00 26.45Q296.66 27.26 296.30 28.14Q295.94 29.02 295.61 29.82Q295.27 30.62 295.08 31.27L295.08 31.27Q294.82 32.06 294.94 32.40Q295.06 32.74 295.49 32.74L295.49 32.74Q295.82 32.74 296.16 32.52Q296.50 32.30 296.80 31.98Q297.10 31.66 297.36 31.32L297.36 31.32Q297.50 31.13 297.68 31.07Q297.86 31.01 298.15 31.20L298.15 31.20Q298.49 31.39 298.51 31.61Q298.54 31.82 298.42 32.04L298.42 32.04Q298.15 32.47 297.70 32.98Q297.24 33.48 296.60 33.85Q295.97 34.22 295.18 34.22ZM301.22 34.20L301.22 34.20Q300.89 34.20 300.62 34.06Q300.36 33.91 300.48 33.55L300.48 33.55L303.50 24.24Q303.72 23.57 303.60 23.23Q303.48 22.90 303.02 22.90L303.02 22.90Q302.66 22.90 302.27 23.15Q301.87 23.40 301.45 23.89Q301.03 24.38 300.53 25.13L300.53 25.13Q300.34 25.37 300.16 25.45Q299.98 25.54 299.64 25.44L299.64 25.44Q299.26 25.27 299.22 25.03Q299.18 24.79 299.33 24.50L299.33 24.50Q299.83 23.64 300.43 22.94Q301.03 22.25 301.75 21.84Q302.47 21.43 303.31 21.43L303.31 21.43Q303.96 21.43 304.38 21.65Q304.80 21.86 305.00 22.24Q305.21 22.61 305.24 23.11Q305.28 23.62 305.16 24.22L305.16 24.22L304.80 25.34Q305.50 24.31 306.22 23.56Q306.94 22.80 307.67 22.32Q308.40 21.84 309.12 21.61Q309.84 21.38 310.51 21.38L310.51 21.38Q311.71 21.38 312.34 21.97Q312.96 22.56 313.03 23.64Q313.10 24.72 312.62 26.11L312.62 26.11L310.15 33.67Q310.06 33.94 309.86 34.07Q309.67 34.20 309.22 34.20L309.22 34.20Q308.88 34.20 308.62 34.06Q308.35 33.91 308.47 33.55L308.47 33.55L311.09 25.61Q311.35 24.82 311.36 24.22Q311.38 23.62 311.04 23.27Q310.70 22.92 309.94 22.92L309.94 22.92Q309.24 22.92 308.42 23.35Q307.61 23.78 306.76 24.62Q305.90 25.46 305.08 26.72Q304.25 27.98 303.48 29.64L303.48 29.64L302.16 33.67Q302.09 33.94 301.87 34.07Q301.66 34.20 301.22 34.20ZM318.98 34.22L318.98 34.22Q318.17 34.22 317.72 33.91Q317.28 33.60 317.15 33.06Q317.02 32.52 317.10 31.85Q317.18 31.18 317.45 30.43L317.45 30.43L319.03 25.61Q319.32 24.82 319.32 24.22Q319.32 23.62 319.01 23.27Q318.70 22.92 317.90 22.92L317.90 22.92Q317.18 22.92 316.36 23.38Q315.53 23.83 314.65 24.71Q313.78 25.58 312.94 26.88Q312.10 28.18 311.35 29.90L311.35 29.90L310.61 29.90Q311.35 27.79 312.29 26.20Q313.22 24.60 314.28 23.52Q315.34 22.44 316.42 21.91Q317.50 21.38 318.50 21.38L318.50 21.38Q319.68 21.38 320.29 21.98Q320.90 22.58 320.98 23.65Q321.05 24.72 320.57 26.11L320.57 26.11L318.91 31.18Q318.74 31.66 318.71 32.02Q318.67 32.38 318.80 32.56Q318.94 32.74 319.25 32.74L319.25 32.74Q319.61 32.74 319.94 32.52Q320.28 32.30 320.58 31.98Q320.88 31.66 321.14 31.32L321.14 31.32Q321.29 31.13 321.48 31.07Q321.67 31.01 321.94 31.20L321.94 31.20Q322.27 31.39 322.31 31.61Q322.34 31.82 322.22 32.04L322.22 32.04Q321.96 32.47 321.49 32.98Q321.02 33.48 320.39 33.85Q319.75 34.22 318.98 34.22ZM327.22 34.25L327.22 34.25Q326.28 34.25 325.58 33.79Q324.89 33.34 324.52 32.48Q324.14 31.63 324.14 30.46L324.14 30.46Q324.14 29.35 324.46 28.12Q324.77 26.88 325.40 25.69Q326.04 24.50 326.99 23.53Q327.94 22.56 329.18 21.97Q330.43 21.38 331.97 21.38L331.97 21.38Q332.76 21.38 333.55 21.61Q334.34 21.84 335.04 22.27L335.04 22.27L335.11 22.01Q335.23 21.67 335.44 21.58Q335.64 21.48 336.00 21.48L336.00 21.48Q336.58 21.48 336.74 21.68Q336.91 21.89 336.77 22.27L336.77 22.27L333.82 31.25Q333.67 31.68 333.65 32.03Q333.62 32.38 333.77 32.56Q333.91 32.74 334.20 32.74L334.20 32.74Q334.56 32.74 334.90 32.53Q335.23 32.33 335.53 32.00Q335.83 31.68 336.07 31.34L336.07 31.34Q336.24 31.15 336.43 31.08Q336.62 31.01 336.89 31.22L336.89 31.22Q337.22 31.42 337.25 31.63Q337.27 31.85 337.18 32.04L337.18 32.04Q336.91 32.47 336.44 32.98Q335.98 33.48 335.35 33.85Q334.73 34.22 333.94 34.22L333.94 34.22Q333.26 34.22 332.87 34.00Q332.47 33.77 332.28 33.37Q332.09 32.98 332.06 32.47Q332.04 31.97 332.16 31.42L332.16 31.42Q332.23 31.22 332.29 31.01Q332.35 30.79 332.40 30.58L332.40 30.58Q331.46 31.92 330.55 32.72Q329.64 33.53 328.80 33.89Q327.96 34.25 327.22 34.25ZM325.92 30.26L325.92 30.26Q325.92 30.98 326.12 31.54Q326.33 32.09 326.74 32.39Q327.14 32.69 327.74 32.69L327.74 32.69Q328.58 32.69 329.54 32.02Q330.50 31.34 331.54 30.02Q332.57 28.70 333.55 26.74L333.55 26.74L334.61 23.62Q333.82 23.18 333.16 23.05Q332.50 22.92 331.85 22.92L331.85 22.92Q330.65 22.92 329.70 23.41Q328.75 23.90 328.04 24.71Q327.34 25.51 326.87 26.48Q326.40 27.46 326.16 28.44Q325.92 29.42 325.92 30.26ZM334.18 34.25L334.18 34.25Q333.82 34.25 333.71 34.02Q333.60 33.79 333.67 33.50Q333.74 33.22 333.98 32.99Q334.22 32.76 334.56 32.76L334.56 32.76Q335.26 32.76 336.19 32.28Q337.13 31.80 338.22 30.94Q339.31 30.07 340.48 28.91Q341.64 27.74 342.82 26.38Q343.99 25.01 345.08 23.54Q346.18 22.08 347.12 20.58Q348.07 19.08 348.77 17.66Q349.46 16.25 349.86 14.98Q350.26 13.70 350.26 12.67L350.26 12.67Q350.26 12.36 350.52 12.20Q350.78 12.05 351.11 12.05Q351.43 12.05 351.70 12.20Q351.96 12.36 351.96 12.67L351.96 12.67Q351.96 13.75 351.53 15.10Q351.10 16.44 350.33 17.96Q349.56 19.49 348.52 21.11Q347.47 22.73 346.25 24.31Q345.02 25.90 343.72 27.36Q342.41 28.82 341.08 30.07Q339.74 31.32 338.48 32.26Q337.22 33.19 336.13 33.72Q335.04 34.25 334.18 34.25ZM341.83 34.22L341.83 34.22Q341.04 34.22 340.60 33.91Q340.15 33.60 340.01 33.05Q339.86 32.50 339.96 31.81Q340.06 31.13 340.27 30.41L340.27 30.41L345.50 14.26Q346.27 11.88 347.24 10.81Q348.22 9.74 349.56 9.74L349.56 9.74Q350.30 9.74 350.84 10.12Q351.38 10.49 351.67 11.14Q351.96 11.78 351.96 12.70L351.96 12.70Q351.96 13.06 351.70 13.25Q351.43 13.44 351.11 13.44Q350.78 13.44 350.52 13.25Q350.26 13.06 350.26 12.70L350.26 12.70Q350.26 12.26 350.16 11.96Q350.06 11.66 349.86 11.50Q349.66 11.33 349.34 11.33L349.34 11.33Q348.94 11.33 348.58 11.64Q348.22 11.95 347.87 12.67Q347.52 13.39 347.09 14.64L347.09 14.64L341.76 31.18Q341.62 31.66 341.58 32.02Q341.54 32.38 341.68 32.56Q341.81 32.74 342.12 32.74L342.12 32.74Q342.46 32.74 342.80 32.52Q343.15 32.30 343.45 31.98Q343.75 31.66 343.99 31.32L343.99 31.32Q344.16 31.13 344.35 31.07Q344.54 31.01 344.83 31.20L344.83 31.20Q345.17 31.39 345.18 31.61Q345.19 31.82 345.07 32.04L345.07 32.04Q344.83 32.47 344.36 32.98Q343.90 33.48 343.27 33.85Q342.65 34.22 341.83 34.22Z"/></svg>