<svg xmlns="http://www.w3.org/2000/svg" xmlns:xlink="http://www.w3.org/1999/xlink" width="183" height="45.576"><path fill="black" d="M11.71 24.86L11.71 24.86Q11.30 24.89 11.18 24.60Q11.06 24.31 11.16 23.93L11.16 23.93Q11.28 23.54 11.50 23.28Q11.71 23.02 12.12 23.02L12.12 23.02Q13.68 22.97 15.20 22.67Q16.73 22.37 18.07 21.79Q19.42 21.22 20.45 20.38Q21.48 19.54 22.07 18.41Q22.66 17.28 22.66 15.86L22.66 15.86Q22.66 14.83 22.21 14.06Q21.77 13.30 20.96 12.79Q20.16 12.29 19.03 12.04Q17.90 11.78 16.54 11.78L16.54 11.78Q14.88 11.78 13.15 12.17Q11.42 12.55 9.79 13.37Q8.16 14.18 6.70 15.53L6.70 15.53Q6.29 15.91 5.94 15.83Q5.59 15.74 5.33 15.46L5.33 15.46Q5.09 15.22 5.09 14.88Q5.09 14.54 5.45 14.18L5.45 14.18Q6.55 13.03 7.92 12.22Q9.29 11.40 10.78 10.87Q12.26 10.34 13.78 10.09Q15.29 9.84 16.68 9.84L16.68 9.84Q18.74 9.84 20.28 10.27Q21.82 10.70 22.82 11.51Q23.83 12.31 24.35 13.40Q24.86 14.50 24.86 15.84L24.86 15.84Q24.86 17.62 24.14 19.03Q23.42 20.45 22.15 21.50Q20.88 22.56 19.20 23.28Q17.52 24.00 15.61 24.38Q13.70 24.77 11.71 24.86ZM3.38 34.25L3.38 34.25Q2.40 34.25 1.62 33.80Q0.84 33.36 0.32 32.64Q-0.19 31.92-0.41 31.15L-0.41 31.15Q-0.55 30.70-0.44 30.38Q-0.34 30.07 0.12 29.93L0.12 29.93Q0.58 29.76 0.84 29.90Q1.10 30.05 1.30 30.46L1.30 30.46Q1.56 31.03 1.90 31.44Q2.23 31.85 2.63 32.03Q3.02 32.21 3.50 32.21L3.50 32.21Q4.37 32.21 4.96 31.54Q5.54 30.86 6.12 29.09L6.12 29.09L10.75 14.64Q10.87 14.30 11.16 14.15Q11.45 13.99 11.98 13.99L11.98 13.99Q12.53 13.99 12.79 14.15Q13.06 14.30 12.91 14.71L12.91 14.71L8.30 29.06Q7.78 30.65 7.10 31.82Q6.43 33 5.52 33.62Q4.61 34.25 3.38 34.25ZM18.05 34.25L18.05 34.25Q17.59 34.25 17.45 33.97Q17.30 33.70 17.40 33.35Q17.50 33 17.78 32.72Q18.07 32.45 18.48 32.45L18.48 32.45Q19.18 32.45 20.10 31.99Q21.02 31.54 22.10 30.73Q23.18 29.93 24.34 28.82Q25.49 27.72 26.64 26.42Q27.79 25.13 28.87 23.72Q29.95 22.32 30.88 20.88Q31.80 19.44 32.48 18.05Q33.17 16.66 33.56 15.38Q33.96 14.11 33.96 13.06L33.96 13.06Q33.96 12.70 34.27 12.52Q34.58 12.34 34.99 12.34Q35.40 12.34 35.71 12.52Q36.02 12.70 36.02 13.06L36.02 13.06Q36.02 14.16 35.59 15.53Q35.16 16.90 34.38 18.41Q33.60 19.92 32.54 21.50Q31.49 23.09 30.25 24.64Q29.02 26.18 27.70 27.60Q26.38 29.02 25.03 30.23Q23.69 31.44 22.42 32.34Q21.14 33.24 20.03 33.74Q18.91 34.25 18.05 34.25ZM25.78 34.22L25.78 34.22Q24.82 34.22 24.34 33.84Q23.86 33.46 23.72 32.83Q23.59 32.21 23.72 31.48Q23.86 30.74 24.07 30.05L24.07 30.05L29.18 14.23Q29.95 11.86 30.97 10.80Q31.99 9.74 33.43 9.74L33.43 9.74Q34.22 9.74 34.81 10.16Q35.40 10.58 35.71 11.32Q36.02 12.05 36.02 13.06L36.02 13.06Q36.02 13.51 35.71 13.73Q35.40 13.94 34.99 13.94Q34.58 13.94 34.27 13.73Q33.96 13.51 33.96 13.06L33.96 13.06Q33.96 12.65 33.88 12.35Q33.79 12.05 33.61 11.88Q33.43 11.71 33.12 11.71L33.12 11.71Q32.81 11.71 32.50 11.96Q32.18 12.22 31.87 12.84Q31.56 13.46 31.18 14.59L31.18 14.59L25.82 31.18Q25.73 31.51 25.69 31.80Q25.66 32.09 25.75 32.24Q25.85 32.40 26.14 32.40L26.14 32.40Q26.42 32.40 26.71 32.23Q27 32.06 27.25 31.79Q27.50 31.51 27.74 31.20L27.74 31.20Q27.91 30.98 28.14 30.91Q28.37 30.84 28.70 31.08L28.70 31.08Q29.11 31.32 29.14 31.57Q29.16 31.82 29.04 32.06L29.04 32.06Q28.82 32.47 28.36 32.98Q27.89 33.48 27.25 33.85Q26.62 34.22 25.78 34.22ZM35.38 34.25L35.38 34.25Q34.42 34.25 33.72 33.79Q33.02 33.34 32.65 32.48Q32.28 31.63 32.28 30.46L32.28 30.46Q32.28 29.38 32.59 28.14Q32.90 26.90 33.53 25.72Q34.15 24.53 35.10 23.54Q36.05 22.56 37.30 21.97Q38.54 21.38 40.10 21.38L40.10 21.38Q40.87 21.38 41.64 21.60Q42.41 21.82 43.08 22.20L43.08 22.20L43.10 22.10Q43.25 21.70 43.49 21.59Q43.73 21.48 44.16 21.48L44.16 21.48Q44.90 21.48 45.11 21.71Q45.31 21.94 45.14 22.42L45.14 22.42L42.24 31.18Q42.14 31.51 42.11 31.80Q42.07 32.09 42.18 32.24Q42.29 32.40 42.55 32.40L42.55 32.40Q42.86 32.40 43.14 32.23Q43.42 32.06 43.68 31.79Q43.94 31.51 44.18 31.20L44.18 31.20Q44.35 30.98 44.58 30.91Q44.81 30.84 45.12 31.08L45.12 31.08Q45.53 31.32 45.56 31.57Q45.60 31.82 45.48 32.06L45.48 32.06Q45.24 32.47 44.78 32.98Q44.33 33.48 43.69 33.85Q43.06 34.22 42.22 34.22L42.22 34.22Q41.45 34.22 41.00 33.95Q40.56 33.67 40.38 33.23Q40.20 32.78 40.19 32.26Q40.18 31.73 40.27 31.20L40.27 31.20Q40.30 31.15 40.31 31.09Q40.32 31.03 40.32 30.96L40.32 30.96Q39.43 32.16 38.56 32.88Q37.68 33.60 36.88 33.92Q36.07 34.25 35.38 34.25ZM34.44 30.17L34.44 30.17Q34.44 30.84 34.63 31.33Q34.82 31.82 35.18 32.08Q35.54 32.33 36.07 32.33L36.07 32.33Q36.89 32.33 37.80 31.67Q38.71 31.01 39.68 29.75Q40.66 28.49 41.59 26.69L41.59 26.69L42.55 23.83Q41.86 23.50 41.23 23.39Q40.61 23.28 40.01 23.28L40.01 23.28Q38.86 23.28 37.96 23.75Q37.06 24.22 36.40 24.98Q35.74 25.75 35.30 26.68Q34.87 27.60 34.66 28.51Q34.44 29.42 34.44 30.17ZM56.26 35.98L56.47 33.89Q56.95 33.58 57.41 33.31Q57.86 33.05 58.31 32.80Q58.75 32.54 59.16 32.34Q59.57 32.14 59.90 31.99L59.90 31.99Q60.26 31.82 60.48 31.98Q60.70 32.14 60.77 32.46Q60.84 32.78 60.74 33.11Q60.65 33.43 60.38 33.58L60.38 33.58Q59.93 33.82 59.41 34.10Q58.90 34.39 58.37 34.69Q57.84 34.99 57.31 35.33Q56.78 35.66 56.26 35.98L56.26 35.98ZM49.58 45.94L49.58 45.94Q48.19 45.94 47.36 45.17Q46.54 44.40 46.54 43.22L46.54 43.22Q46.54 42.24 46.93 41.38Q47.33 40.51 48.06 39.68Q48.79 38.86 49.84 38.04Q50.88 37.22 52.20 36.41L52.20 36.41Q52.70 36.07 53.17 35.77Q53.64 35.47 54.12 35.18Q54.60 34.90 55.10 34.58L55.10 34.58L56.33 30.74Q55.70 31.58 55.06 32.23Q54.41 32.88 53.72 33.32Q53.04 33.77 52.36 34.00Q51.67 34.22 50.98 34.22L50.98 34.22Q49.75 34.22 49.04 33.66Q48.34 33.10 48.19 32.03Q48.05 30.96 48.55 29.47L48.55 29.47L50.30 24.10Q50.45 23.69 50.33 23.46Q50.21 23.23 49.87 23.23L49.87 23.23Q49.58 23.23 49.27 23.41Q48.96 23.59 48.61 23.99Q48.26 24.38 47.78 25.03L47.78 25.03Q47.54 25.34 47.33 25.45Q47.11 25.56 46.70 25.42L46.70 25.42Q46.22 25.22 46.19 24.92Q46.15 24.62 46.34 24.29L46.34 24.29Q46.80 23.50 47.38 22.85Q47.95 22.20 48.66 21.82Q49.37 21.43 50.23 21.43L50.23 21.43Q51.05 21.43 51.53 21.72Q52.01 22.01 52.21 22.51Q52.42 23.02 52.38 23.65Q52.34 24.29 52.13 24.96L52.13 24.96L50.57 29.76Q50.30 30.55 50.30 31.14Q50.30 31.73 50.64 32.03Q50.98 32.33 51.72 32.33L51.72 32.33Q52.44 32.33 53.24 31.85Q54.05 31.37 54.88 30.49Q55.70 29.62 56.50 28.42Q57.29 27.22 57.94 25.75L57.94 25.75L59.09 22.25Q59.26 21.77 59.48 21.62Q59.71 21.48 60.17 21.48L60.17 21.48Q60.91 21.48 61.12 21.71Q61.32 21.94 61.15 22.42L61.15 22.42L55.58 39.50Q55.01 41.23 54.41 42.47Q53.81 43.70 53.09 44.47Q52.37 45.24 51.50 45.59Q50.64 45.94 49.58 45.94ZM49.92 44.09L49.92 44.09Q50.64 44.09 51.29 43.57Q51.94 43.06 52.51 42.04Q53.09 41.02 53.54 39.43L53.54 39.43L54.31 37.06Q54.02 37.22 53.76 37.40Q53.50 37.58 53.23 37.74Q52.97 37.90 52.70 38.09L52.70 38.09Q51.72 38.76 50.96 39.38Q50.21 40.01 49.69 40.60Q49.18 41.18 48.92 41.75Q48.67 42.31 48.67 42.89L48.67 42.89Q48.67 43.27 48.82 43.54Q48.96 43.80 49.25 43.94Q49.54 44.09 49.92 44.09ZM67.08 34.30L67.08 34.30Q65.95 34.30 65.30 33.85Q64.66 33.41 64.42 32.65Q64.18 31.90 64.24 30.98Q64.30 30.07 64.61 29.16L64.61 29.16L66.26 24.10Q66.41 23.69 66.29 23.46Q66.17 23.23 65.83 23.23L65.83 23.23Q65.54 23.23 65.23 23.41Q64.92 23.59 64.57 23.99Q64.22 24.38 63.74 25.03L63.74 25.03Q63.50 25.34 63.29 25.45Q63.07 25.56 62.66 25.42L62.66 25.42Q62.18 25.22 62.15 24.92Q62.11 24.62 62.30 24.29L62.30 24.29Q62.76 23.50 63.34 22.85Q63.91 22.20 64.62 21.82Q65.33 21.43 66.19 21.43L66.19 21.43Q67.01 21.43 67.50 21.72Q67.99 22.01 68.18 22.51Q68.38 23.02 68.34 23.65Q68.30 24.29 68.09 24.96L68.09 24.96L66.65 29.42Q66.43 30.12 66.35 30.80Q66.26 31.49 66.54 31.93Q66.82 32.38 67.63 32.38L67.63 32.38Q68.23 32.38 68.87 32.03Q69.50 31.68 70.10 31.04Q70.70 30.41 71.24 29.54Q71.78 28.68 72.17 27.70L72.17 27.70L73.94 22.22Q74.06 21.82 74.28 21.64Q74.50 21.46 75.02 21.46L75.02 21.46Q75.79 21.46 75.96 21.68Q76.13 21.91 75.98 22.37L75.98 22.37L74.06 28.49Q73.87 29.06 73.72 29.75Q73.56 30.43 73.58 31.03Q73.61 31.63 73.92 32.00Q74.23 32.38 74.98 32.38L74.98 32.38Q75.84 32.38 76.62 31.88Q77.40 31.39 78.04 30.58Q78.67 29.76 79.13 28.76Q79.58 27.77 79.85 26.71Q80.11 25.66 80.11 24.72L80.11 24.72Q80.11 24.38 80.09 24.04Q80.06 23.69 80.03 23.35Q79.99 23.02 79.92 22.70L79.92 22.70Q79.82 22.25 79.92 21.96Q80.02 21.67 80.27 21.53Q80.52 21.38 80.90 21.38L80.90 21.38Q81.34 21.38 81.59 21.65Q81.84 21.91 81.98 22.54L81.98 22.54Q82.06 22.85 82.10 23.18Q82.15 23.52 82.18 23.87Q82.20 24.22 82.20 24.60L82.20 24.60Q82.20 25.75 81.85 27.07Q81.50 28.39 80.86 29.66Q80.21 30.94 79.27 31.99Q78.34 33.05 77.16 33.67Q75.98 34.30 74.57 34.30L74.57 34.30Q73.46 34.30 72.79 33.91Q72.12 33.53 71.80 32.92Q71.47 32.30 71.42 31.56L71.42 31.56Q70.87 32.40 70.20 33.02Q69.53 33.65 68.76 33.97Q67.99 34.30 67.08 34.30ZM79.70 34.25L79.70 34.25Q79.25 34.25 79.10 33.97Q78.96 33.70 79.04 33.35Q79.13 33 79.42 32.72Q79.70 32.45 80.16 32.45L80.16 32.45Q80.98 32.45 81.85 31.90Q82.73 31.34 83.65 30.23Q84.58 29.11 85.56 27.37Q86.54 25.63 87.60 23.26L87.60 23.26L88.97 23.88Q87.72 26.81 86.60 28.79Q85.49 30.77 84.38 31.98Q83.28 33.19 82.14 33.72Q81.00 34.25 79.70 34.25ZM93.10 34.22L93.10 34.22Q92.21 34.22 91.72 33.91Q91.22 33.60 91.06 33.08Q90.89 32.57 90.95 31.97Q91.01 31.37 91.20 30.77L91.20 30.77Q91.37 30.26 91.67 29.53Q91.97 28.80 92.32 27.97Q92.66 27.14 93.00 26.32Q93.34 25.49 93.53 24.77L93.53 24.77Q93.72 24.05 93.56 23.80Q93.41 23.54 92.95 23.54L92.95 23.54Q92.38 23.54 91.67 23.78Q90.96 24.02 90.22 24.25Q89.47 24.48 88.73 24.48L88.73 24.48Q88.25 24.48 87.90 24.13Q87.55 23.78 87.37 23.23Q87.19 22.68 87.19 22.08L87.19 22.08Q87.19 21.53 87.37 21.02Q87.55 20.52 87.92 20.20Q88.30 19.87 88.87 19.87L88.87 19.87Q89.42 19.87 89.69 20.20Q89.95 20.52 89.95 21.00L89.95 21.00Q89.95 21.36 89.83 21.78Q89.71 22.20 89.52 22.58L89.52 22.58Q89.88 22.58 90.58 22.32Q91.27 22.06 92.15 21.79Q93.02 21.53 93.86 21.53L93.86 21.53Q94.58 21.53 95.08 21.86Q95.57 22.20 95.72 22.93Q95.88 23.66 95.54 24.91L95.54 24.91Q95.38 25.58 95.04 26.41Q94.70 27.24 94.33 28.13Q93.96 29.02 93.62 29.83Q93.29 30.65 93.10 31.30L93.10 31.30Q92.88 31.92 93.01 32.16Q93.14 32.40 93.48 32.40L93.48 32.40Q93.77 32.40 94.04 32.23Q94.32 32.06 94.57 31.79Q94.82 31.51 95.06 31.20L95.06 31.20Q95.23 30.98 95.45 30.91Q95.66 30.84 96.00 31.08L96.00 31.08Q96.41 31.32 96.44 31.57Q96.48 31.82 96.36 32.06L96.36 32.06Q96.12 32.47 95.66 32.98Q95.21 33.48 94.57 33.85Q93.94 34.22 93.10 34.22ZM100.39 34.22L100.39 34.22Q98.90 34.22 98.45 33.16Q97.99 32.09 98.64 30.12L98.64 30.12L101.21 22.25Q101.35 21.77 101.58 21.62Q101.81 21.48 102.29 21.48L102.29 21.48Q103.03 21.48 103.24 21.71Q103.44 21.94 103.27 22.42L103.27 22.42L100.44 31.10Q100.22 31.75 100.31 32.08Q100.39 32.40 100.80 32.40L100.80 32.40Q101.09 32.40 101.35 32.24Q101.62 32.09 101.87 31.81Q102.12 31.54 102.38 31.20L102.38 31.20Q102.55 30.98 102.78 30.91Q103.01 30.84 103.32 31.08L103.32 31.08Q103.73 31.32 103.76 31.57Q103.80 31.82 103.66 32.06L103.66 32.06Q103.30 32.69 102.79 33.18Q102.29 33.67 101.69 33.95Q101.09 34.22 100.39 34.22ZM103.78 17.78L103.78 17.78Q103.30 17.78 102.95 17.47Q102.60 17.16 102.60 16.56L102.60 16.56Q102.60 15.91 103.03 15.34Q103.46 14.76 104.35 14.76L104.35 14.76Q104.83 14.76 105.18 15.06Q105.53 15.36 105.53 15.98L105.53 15.98Q105.53 16.63 105.11 17.21Q104.69 17.78 103.78 17.78ZM101.26 34.25L101.26 34.25Q100.90 34.25 100.74 33.97Q100.58 33.70 100.64 33.35Q100.70 33 100.97 32.72Q101.23 32.45 101.66 32.45L101.66 32.45Q102.24 32.45 103.14 31.78Q104.04 31.10 105.14 29.93Q106.25 28.75 107.47 27.20Q108.70 25.66 109.94 23.89Q111.19 22.13 112.38 20.28Q113.57 18.43 114.61 16.67Q115.66 14.90 116.46 13.36Q117.26 11.81 117.74 10.63L117.74 10.63Q117.91 10.10 118.15 9.97Q118.39 9.84 118.82 9.84L118.82 9.84Q119.59 9.84 119.80 10.07Q120.00 10.30 119.83 10.78L119.83 10.78L113.23 31.22Q114.31 30.91 115.48 30.25Q116.64 29.59 117.92 28.56Q119.21 27.53 120.67 26.16L120.67 26.16Q120.79 26.02 121.02 25.97Q121.25 25.92 121.51 26.18L121.51 26.18Q121.80 26.45 121.79 26.66Q121.78 26.88 121.63 27.02L121.63 27.02Q120.22 28.44 118.75 29.65Q117.29 30.86 115.79 31.70Q114.29 32.54 112.70 32.83L112.70 32.83L112.46 33.58Q112.37 33.89 112.13 34.04Q111.89 34.20 111.34 34.20L111.34 34.20Q110.95 34.20 110.63 34.03Q110.30 33.86 110.42 33.41L110.42 33.41L110.57 32.93Q109.94 32.83 109.43 32.59Q108.91 32.35 108.61 31.92Q108.31 31.49 108.31 30.94L108.31 30.94Q108.31 30.24 108.77 29.74Q109.22 29.23 110.04 29.23L110.04 29.23Q110.52 29.23 110.92 29.41Q111.31 29.59 111.55 29.88L111.55 29.88L115.39 17.95Q114.26 19.97 113.04 21.96Q111.82 23.95 110.54 25.78Q109.27 27.60 108.01 29.15Q106.75 30.70 105.55 31.84Q104.35 32.98 103.27 33.61Q102.19 34.25 101.26 34.25ZM109.99 30.91L109.99 30.91Q109.99 31.06 110.11 31.16Q110.23 31.27 110.46 31.34Q110.69 31.42 111.00 31.44L111.00 31.44Q111.05 31.08 110.81 30.86Q110.57 30.65 110.30 30.65L110.30 30.65Q109.99 30.65 109.99 30.91ZM125.30 34.27L125.30 34.27Q124.44 34.27 123.72 33.98Q123.00 33.70 122.42 33.19Q121.85 32.69 121.44 31.99Q121.03 31.30 120.82 30.46Q120.60 29.62 120.60 28.68L120.60 28.68Q120.60 27.77 120.80 26.77Q121.01 25.78 121.45 24.82Q121.90 23.86 122.57 23.08Q123.24 22.30 124.15 21.84Q125.06 21.38 126.24 21.38L126.24 21.38Q127.13 21.38 127.76 21.73Q128.40 22.08 128.74 22.69Q129.07 23.30 129.07 24.12L129.07 24.12Q129.07 25.39 128.41 26.64Q127.75 27.89 126.66 29.00Q125.57 30.12 124.27 31.03L124.27 31.03Q122.95 31.99 121.49 32.71Q120.02 33.43 118.62 33.84Q117.22 34.25 116.04 34.25L116.04 34.25Q115.70 34.25 115.55 33.97Q115.39 33.70 115.44 33.35Q115.49 33 115.76 32.72Q116.04 32.45 116.54 32.45L116.54 32.45Q117.50 32.45 118.67 32.06Q119.83 31.68 121.04 31.03Q122.26 30.38 123.31 29.57L123.31 29.57Q124.25 28.87 125.06 28.04Q125.88 27.22 126.40 26.33Q126.91 25.44 126.91 24.60L126.91 24.60Q126.91 23.98 126.64 23.64Q126.36 23.30 125.78 23.30L125.78 23.30Q125.04 23.30 124.46 23.84Q123.89 24.38 123.50 25.20Q123.12 26.02 122.92 26.93Q122.71 27.84 122.71 28.61L122.71 28.61Q122.71 29.42 122.93 30.11Q123.14 30.79 123.55 31.30Q123.96 31.80 124.50 32.08Q125.04 32.35 125.71 32.35L125.71 32.35Q126.36 32.35 126.98 32.09Q127.61 31.82 128.21 31.37Q128.81 30.91 129.34 30.41L129.34 30.41Q129.65 30.10 130.00 30.16Q130.34 30.22 130.58 30.48L130.58 30.48Q130.87 30.77 130.92 31.08Q130.97 31.39 130.66 31.73L130.66 31.73Q129.82 32.66 128.94 33.22Q128.06 33.77 127.15 34.02Q126.24 34.27 125.30 34.27ZM144 34.30L144 34.30Q142.54 34.30 141.25 33.50Q139.97 32.71 139.06 31.30L139.06 31.30Q138.82 30.91 138.88 30.59Q138.94 30.26 139.30 30.02L139.30 30.02Q139.66 29.76 139.98 29.80Q140.30 29.83 140.59 30.17L140.59 30.17Q141.41 31.08 142.24 31.67Q143.06 32.26 144.10 32.26L144.10 32.26Q144.89 32.26 145.50 31.88Q146.11 31.51 146.62 30.73Q147.12 29.95 147.50 28.73L147.50 28.73L150.89 18.36Q151.54 16.34 152.32 14.77Q153.10 13.20 154.02 12.10Q154.94 10.99 156.07 10.42Q157.20 9.84 158.59 9.84L158.59 9.84Q159.82 9.84 160.79 10.31Q161.76 10.78 162.32 11.65Q162.89 12.53 162.89 13.78L162.89 13.78Q162.89 15.19 162.29 16.46Q161.69 17.74 160.58 18.79Q159.48 19.85 158.00 20.63Q156.53 21.41 154.75 21.83Q152.98 22.25 151.03 22.25L151.03 22.25Q149.74 22.25 148.45 22.04Q147.17 21.84 145.97 21.48Q144.77 21.12 143.68 20.64Q142.58 20.16 141.65 19.61L141.65 19.61Q141.29 19.42 141.22 19.08Q141.14 18.74 141.38 18.36L141.38 18.36Q141.62 17.93 141.96 17.83Q142.30 17.74 142.68 17.98L142.68 17.98Q143.54 18.48 144.55 18.92Q145.56 19.37 146.71 19.68Q147.86 19.99 149.12 20.17Q150.38 20.35 151.68 20.35L151.68 20.35Q153.14 20.35 154.48 20.02Q155.81 19.68 156.95 19.08Q158.09 18.48 158.93 17.66Q159.77 16.85 160.24 15.89Q160.70 14.93 160.70 13.87L160.70 13.87Q160.70 13.20 160.43 12.76Q160.15 12.31 159.66 12.07Q159.17 11.83 158.47 11.83L158.47 11.83Q157.54 11.83 156.74 12.32Q155.95 12.82 155.28 13.72Q154.61 14.62 154.02 15.88Q153.43 17.14 152.93 18.67L152.93 18.67L149.47 29.28Q148.92 31.01 148.15 32.12Q147.38 33.24 146.35 33.77Q145.32 34.30 144 34.30ZM177.46 34.30L177.46 34.30Q176.62 34.30 175.93 34.04Q175.25 33.79 174.66 33.19Q174.07 32.59 173.54 31.62Q173.02 30.65 172.54 29.21L172.54 29.21L170.30 22.73L168.24 29.06Q167.74 30.65 167.06 31.82Q166.39 33 165.48 33.62Q164.57 34.25 163.34 34.25L163.34 34.25Q162.34 34.25 161.57 33.80Q160.80 33.36 160.28 32.64Q159.77 31.92 159.55 31.15L159.55 31.15Q159.43 30.70 159.53 30.38Q159.62 30.07 160.08 29.93L160.08 29.93Q160.54 29.76 160.82 29.89Q161.11 30.02 161.28 30.46L161.28 30.46Q161.52 31.08 161.82 31.46Q162.12 31.85 162.50 32.03Q162.89 32.21 163.37 32.21L163.37 32.21Q163.99 32.21 164.46 31.92Q164.93 31.63 165.31 30.95Q165.70 30.26 166.08 29.09L166.08 29.09L170.86 14.38Q171.26 13.08 171.04 12.49Q170.81 11.90 170.02 11.90L170.02 11.90Q169.56 11.90 169.00 12.13Q168.43 12.36 167.71 12.90Q166.99 13.44 166.06 14.35L166.06 14.35Q165.79 14.62 165.50 14.60Q165.22 14.59 164.90 14.28L164.90 14.28Q164.62 13.97 164.60 13.69Q164.59 13.42 164.86 13.13L164.86 13.13Q165.70 12.19 166.63 11.48Q167.57 10.78 168.52 10.37Q169.46 9.96 170.38 9.96L170.38 9.96Q172.27 9.96 172.96 11.21Q173.64 12.46 172.90 14.74L172.90 14.74L171.12 20.21L183.53 10.13Q183.96 9.77 184.28 9.83Q184.61 9.89 184.90 10.30L184.90 10.30Q185.16 10.68 185.15 11.02Q185.14 11.35 184.73 11.69L184.73 11.69L172.15 21.89L174.24 27.89Q174.70 29.21 175.12 30.07Q175.54 30.94 175.96 31.44Q176.38 31.94 176.81 32.16Q177.24 32.38 177.70 32.38L177.70 32.38Q178.32 32.38 179.05 31.82Q179.78 31.27 180.74 30.02L180.74 30.02Q181.01 29.71 181.31 29.64Q181.61 29.57 181.99 29.88L181.99 29.88Q182.30 30.14 182.38 30.44Q182.45 30.74 182.18 31.13L182.18 31.13Q181.63 31.97 180.88 32.69Q180.12 33.41 179.24 33.85Q178.37 34.30 177.46 34.30Z"/></svg>