<svg xmlns="http://www.w3.org/2000/svg" xmlns:xlink="http://www.w3.org/1999/xlink" width="334.536" height="32.688"><path fill="black" d="M15.91 8.52L15.91 25.66L13.39 25.66L4.22 11.42L4.13 11.42Q4.18 12.26 4.25 13.51Q4.32 14.76 4.32 16.08L4.32 16.08L4.32 25.66L2.33 25.66L2.33 8.52L4.82 8.52L13.97 22.70L14.06 22.70Q14.04 22.32 14.00 21.55Q13.97 20.78 13.93 19.87Q13.90 18.96 13.90 18.19L13.90 18.19L13.90 8.52L15.91 8.52ZM31.46 19.20L31.46 19.20Q31.46 22.39 29.84 24.14Q28.22 25.90 25.46 25.90L25.46 25.90Q23.76 25.90 22.43 25.12Q21.10 24.34 20.33 22.84Q19.56 21.34 19.56 19.20L19.56 19.20Q19.56 16.01 21.17 14.28Q22.78 12.55 25.54 12.55L25.54 12.55Q27.29 12.55 28.62 13.33Q29.95 14.11 30.71 15.59Q31.46 17.06 31.46 19.20ZM21.74 19.20L21.74 19.20Q21.74 21.48 22.64 22.81Q23.54 24.14 25.51 24.14L25.51 24.14Q27.46 24.14 28.37 22.81Q29.28 21.48 29.28 19.20L29.28 19.20Q29.28 16.92 28.37 15.62Q27.46 14.33 25.49 14.33L25.49 14.33Q23.52 14.33 22.63 15.62Q21.74 16.92 21.74 19.20ZM39.10 24.17L39.10 24.17Q39.58 24.17 40.08 24.08Q40.58 24 40.90 23.90L40.90 23.90L40.90 25.51Q40.56 25.68 39.94 25.79Q39.31 25.90 38.74 25.90L38.74 25.90Q37.73 25.90 36.88 25.55Q36.02 25.20 35.50 24.34Q34.97 23.47 34.97 21.91L34.97 21.91L34.97 14.42L33.14 14.42L33.14 13.42L34.99 12.58L35.83 9.84L37.08 9.84L37.08 12.79L40.80 12.79L40.80 14.42L37.08 14.42L37.08 21.86Q37.08 23.04 37.64 23.60Q38.21 24.17 39.10 24.17ZM54.65 19.20L54.65 19.20Q54.65 22.39 53.03 24.14Q51.41 25.90 48.65 25.90L48.65 25.90Q46.94 25.90 45.61 25.12Q44.28 24.34 43.51 22.84Q42.74 21.34 42.74 19.20L42.74 19.20Q42.74 16.01 44.35 14.28Q45.96 12.55 48.72 12.55L48.72 12.55Q50.47 12.55 51.80 13.33Q53.14 14.11 53.89 15.59Q54.65 17.06 54.65 19.20ZM44.93 19.20L44.93 19.20Q44.93 21.48 45.83 22.81Q46.73 24.14 48.70 24.14L48.70 24.14Q50.64 24.14 51.55 22.81Q52.46 21.48 52.46 19.20L52.46 19.20Q52.46 16.92 51.55 15.62Q50.64 14.33 48.67 14.33L48.67 14.33Q46.70 14.33 45.82 15.62Q44.93 16.92 44.93 19.20ZM74.23 21.07L74.23 21.07Q74.23 23.35 72.58 24.62Q70.92 25.90 68.11 25.90L68.11 25.90Q66.67 25.90 65.45 25.68Q64.22 25.46 63.41 25.08L63.41 25.08L63.41 23.02Q64.27 23.40 65.56 23.71Q66.84 24.02 68.21 24.02L68.21 24.02Q70.13 24.02 71.10 23.28Q72.07 22.54 72.07 21.26L72.07 21.26Q72.07 20.42 71.71 19.85Q71.35 19.27 70.48 18.78Q69.60 18.29 68.04 17.74L68.04 17.74Q65.86 16.94 64.74 15.79Q63.62 14.64 63.62 12.65L63.62 12.65Q63.62 11.28 64.32 10.31Q65.02 9.34 66.25 8.81Q67.49 8.28 69.10 8.28L69.10 8.28Q70.51 8.28 71.69 8.54Q72.86 8.81 73.82 9.24L73.82 9.24L73.15 11.09Q72.26 10.70 71.22 10.44Q70.18 10.18 69.05 10.18L69.05 10.18Q67.44 10.18 66.62 10.86Q65.81 11.54 65.81 12.67L65.81 12.67Q65.81 13.54 66.17 14.11Q66.53 14.69 67.34 15.14Q68.16 15.60 69.55 16.13L69.55 16.13Q71.06 16.68 72.11 17.32Q73.15 17.95 73.69 18.84Q74.23 19.73 74.23 21.07ZM82.27 12.58L82.27 12.58Q84.62 12.58 85.75 13.61Q86.88 14.64 86.88 16.90L86.88 16.90L86.88 25.66L85.34 25.66L84.94 23.83L84.84 23.83Q84 24.89 83.08 25.39Q82.15 25.90 80.52 25.90L80.52 25.90Q78.77 25.90 77.62 24.97Q76.46 24.05 76.46 22.08L76.46 22.08Q76.46 20.16 77.98 19.12Q79.49 18.07 82.63 17.98L82.63 17.98L84.82 17.90L84.82 17.14Q84.82 15.53 84.12 14.90Q83.42 14.28 82.15 14.28L82.15 14.28Q81.14 14.28 80.23 14.58Q79.32 14.88 78.53 15.26L78.53 15.26L77.88 13.68Q78.72 13.22 79.87 12.90Q81.02 12.58 82.27 12.58ZM84.79 19.37L82.90 19.44Q80.50 19.54 79.57 20.21Q78.65 20.88 78.65 22.10L78.65 22.10Q78.65 23.18 79.31 23.69Q79.97 24.19 81 24.19L81 24.19Q82.63 24.19 83.71 23.29Q84.79 22.39 84.79 20.52L84.79 20.52L84.79 19.37ZM97.06 12.55L97.06 12.55Q99.36 12.55 100.54 13.67Q101.71 14.78 101.71 17.28L101.71 17.28L101.71 25.66L99.62 25.66L99.62 17.42Q99.62 14.33 96.74 14.33L96.74 14.33Q94.61 14.33 93.79 15.53Q92.98 16.73 92.98 18.98L92.98 18.98L92.98 25.66L90.86 25.66L90.86 12.79L92.57 12.79L92.88 14.54L93 14.54Q93.62 13.54 94.73 13.04Q95.83 12.55 97.06 12.55ZM114.07 22.10L114.07 22.10Q114.07 23.98 112.68 24.94Q111.29 25.90 108.94 25.90L108.94 25.90Q107.59 25.90 106.62 25.68Q105.65 25.46 104.90 25.08L104.90 25.08L104.90 23.16Q105.67 23.54 106.76 23.87Q107.86 24.19 108.98 24.19L108.98 24.19Q110.59 24.19 111.31 23.68Q112.03 23.16 112.03 22.30L112.03 22.30Q112.03 21.82 111.77 21.43Q111.50 21.05 110.82 20.66Q110.14 20.28 108.86 19.80L108.86 19.80Q107.62 19.32 106.73 18.84Q105.84 18.36 105.36 17.69Q104.88 17.02 104.88 15.96L104.88 15.96Q104.88 14.33 106.21 13.44Q107.54 12.55 109.70 12.55L109.70 12.55Q110.88 12.55 111.90 12.78Q112.92 13.01 113.81 13.42L113.81 13.42L113.09 15.10Q112.27 14.76 111.38 14.52Q110.50 14.28 109.56 14.28L109.56 14.28Q108.26 14.28 107.58 14.70Q106.90 15.12 106.90 15.84L106.90 15.84Q106.90 16.37 107.21 16.74Q107.52 17.11 108.25 17.46Q108.98 17.81 110.21 18.29L110.21 18.29Q111.43 18.74 112.30 19.22Q113.16 19.70 113.62 20.39Q114.07 21.07 114.07 22.10ZM136.82 8.52L136.82 25.66L134.66 25.66L134.66 17.66L125.88 17.66L125.88 25.66L123.72 25.66L123.72 8.52L125.88 8.52L125.88 15.77L134.66 15.77L134.66 8.52L136.82 8.52ZM146.09 12.58L146.09 12.58Q148.44 12.58 149.57 13.61Q150.70 14.64 150.70 16.90L150.70 16.90L150.70 25.66L149.16 25.66L148.75 23.83L148.66 23.83Q147.82 24.89 146.89 25.39Q145.97 25.90 144.34 25.90L144.34 25.90Q142.58 25.90 141.43 24.97Q140.28 24.05 140.28 22.08L140.28 22.08Q140.28 20.16 141.79 19.12Q143.30 18.07 146.45 17.98L146.45 17.98L148.63 17.90L148.63 17.14Q148.63 15.53 147.94 14.90Q147.24 14.28 145.97 14.28L145.97 14.28Q144.96 14.28 144.05 14.58Q143.14 14.88 142.34 15.26L142.34 15.26L141.70 13.68Q142.54 13.22 143.69 12.90Q144.84 12.58 146.09 12.58ZM148.61 19.37L146.71 19.44Q144.31 19.54 143.39 20.21Q142.46 20.88 142.46 22.10L142.46 22.10Q142.46 23.18 143.12 23.69Q143.78 24.19 144.82 24.19L144.82 24.19Q146.45 24.19 147.53 23.29Q148.61 22.39 148.61 20.52L148.61 20.52L148.61 19.37ZM158.98 24.17L158.98 24.17Q159.46 24.17 159.96 24.08Q160.46 24 160.78 23.90L160.78 23.90L160.78 25.51Q160.44 25.68 159.82 25.79Q159.19 25.90 158.62 25.90L158.62 25.90Q157.61 25.90 156.76 25.55Q155.90 25.20 155.38 24.34Q154.85 23.47 154.85 21.91L154.85 21.91L154.85 14.42L153.02 14.42L153.02 13.42L154.87 12.58L155.71 9.84L156.96 9.84L156.96 12.79L160.68 12.79L160.68 14.42L156.96 14.42L156.96 21.86Q156.96 23.04 157.52 23.60Q158.09 24.17 158.98 24.17ZM169.34 12.55L169.34 12.55Q169.70 12.55 170.12 12.59Q170.54 12.62 170.86 12.70L170.86 12.70L170.59 14.64Q170.28 14.57 169.91 14.52Q169.54 14.47 169.20 14.47L169.20 14.47Q168.22 14.47 167.35 15.01Q166.49 15.55 165.97 16.52Q165.46 17.50 165.46 18.79L165.46 18.79L165.46 25.66L163.34 25.66L163.34 12.79L165.07 12.79L165.31 15.14L165.41 15.14Q166.03 14.09 167.02 13.32Q168.00 12.55 169.34 12.55ZM178.13 12.58L178.13 12.58Q180.48 12.58 181.61 13.61Q182.74 14.64 182.74 16.90L182.74 16.90L182.74 25.66L181.20 25.66L180.79 23.83L180.70 23.83Q179.86 24.89 178.93 25.39Q178.01 25.90 176.38 25.90L176.38 25.90Q174.62 25.90 173.47 24.97Q172.32 24.05 172.32 22.08L172.32 22.08Q172.32 20.16 173.83 19.12Q175.34 18.07 178.49 17.98L178.49 17.98L180.67 17.90L180.67 17.14Q180.67 15.53 179.98 14.90Q179.28 14.28 178.01 14.28L178.01 14.28Q177.00 14.28 176.09 14.58Q175.18 14.88 174.38 15.26L174.38 15.26L173.74 13.68Q174.58 13.22 175.73 12.90Q176.88 12.58 178.13 12.58ZM180.65 19.37L178.75 19.44Q176.35 19.54 175.43 20.21Q174.50 20.88 174.50 22.10L174.50 22.10Q174.50 23.18 175.16 23.69Q175.82 24.19 176.86 24.19L176.86 24.19Q178.49 24.19 179.57 23.29Q180.65 22.39 180.65 20.52L180.65 20.52L180.65 19.37ZM192.91 12.55L192.91 12.55Q195.22 12.55 196.39 13.67Q197.57 14.78 197.57 17.28L197.57 17.28L197.57 25.66L195.48 25.66L195.48 17.42Q195.48 14.33 192.60 14.33L192.60 14.33Q190.46 14.33 189.65 15.53Q188.83 16.73 188.83 18.98L188.83 18.98L188.83 25.66L186.72 25.66L186.72 12.79L188.42 12.79L188.74 14.54L188.86 14.54Q189.48 13.54 190.58 13.04Q191.69 12.55 192.91 12.55ZM219.00 19.87L219.00 21.77L216.50 21.77L216.50 25.66L214.46 25.66L214.46 21.77L206.26 21.77L206.26 19.97L214.32 8.42L216.50 8.42L216.50 19.87L219.00 19.87ZM214.46 19.87L214.46 14.47Q214.46 13.22 214.51 12.35Q214.56 11.47 214.58 10.68L214.58 10.68L214.49 10.68Q214.30 11.14 214.01 11.66Q213.72 12.19 213.46 12.55L213.46 12.55L208.32 19.87L214.46 19.87ZM232.03 17.06L232.03 17.06Q232.03 19.82 231.46 21.80Q230.88 23.78 229.63 24.84Q228.38 25.90 226.32 25.90L226.32 25.90Q223.42 25.90 222.04 23.56Q220.66 21.22 220.66 17.06L220.66 17.06Q220.66 14.28 221.22 12.31Q221.78 10.34 223.03 9.30Q224.28 8.26 226.32 8.26L226.32 8.26Q229.20 8.26 230.62 10.57Q232.03 12.89 232.03 17.06ZM222.77 17.06L222.77 17.06Q222.77 20.59 223.57 22.34Q224.38 24.10 226.32 24.10L226.32 24.10Q228.24 24.10 229.07 22.36Q229.90 20.62 229.90 17.06L229.90 17.06Q229.90 13.56 229.07 11.81Q228.24 10.06 226.32 10.06L226.32 10.06Q224.38 10.06 223.57 11.81Q222.77 13.56 222.77 17.06ZM245.76 17.06L245.76 17.06Q245.76 19.82 245.18 21.80Q244.61 23.78 243.36 24.84Q242.11 25.90 240.05 25.90L240.05 25.90Q237.14 25.90 235.76 23.56Q234.38 21.22 234.38 17.06L234.38 17.06Q234.38 14.28 234.95 12.31Q235.51 10.34 236.76 9.30Q238.01 8.26 240.05 8.26L240.05 8.26Q242.93 8.26 244.34 10.57Q245.76 12.89 245.76 17.06ZM236.50 17.06L236.50 17.06Q236.50 20.59 237.30 22.34Q238.10 24.10 240.05 24.10L240.05 24.10Q241.97 24.10 242.80 22.36Q243.62 20.62 243.62 17.06L243.62 17.06Q243.62 13.56 242.80 11.81Q241.97 10.06 240.05 10.06L240.05 10.06Q238.10 10.06 237.30 11.81Q236.50 13.56 236.50 17.06ZM261.41 12.55L261.41 12.55Q263.71 12.55 264.89 13.67Q266.06 14.78 266.06 17.28L266.06 17.28L266.06 25.66L263.98 25.66L263.98 17.42Q263.98 14.33 261.10 14.33L261.10 14.33Q258.96 14.33 258.14 15.53Q257.33 16.73 257.33 18.98L257.33 18.98L257.33 25.66L255.22 25.66L255.22 12.79L256.92 12.79L257.23 14.54L257.35 14.54Q257.98 13.54 259.08 13.04Q260.18 12.55 261.41 12.55ZM281.23 19.20L281.23 19.20Q281.23 22.39 279.61 24.14Q277.99 25.90 275.23 25.90L275.23 25.90Q273.53 25.90 272.20 25.12Q270.86 24.34 270.10 22.84Q269.33 21.34 269.33 19.20L269.33 19.20Q269.33 16.01 270.94 14.28Q272.54 12.55 275.30 12.55L275.30 12.55Q277.06 12.55 278.39 13.33Q279.72 14.11 280.48 15.59Q281.23 17.06 281.23 19.20ZM271.51 19.20L271.51 19.20Q271.51 21.48 272.41 22.81Q273.31 24.14 275.28 24.14L275.28 24.14Q277.22 24.14 278.14 22.81Q279.05 21.48 279.05 19.20L279.05 19.20Q279.05 16.92 278.14 15.62Q277.22 14.33 275.26 14.33L275.26 14.33Q273.29 14.33 272.40 15.62Q271.51 16.92 271.51 19.20ZM290.57 12.55L290.57 12.55Q290.93 12.55 291.35 12.59Q291.77 12.62 292.08 12.70L292.08 12.70L291.82 14.64Q291.50 14.57 291.13 14.52Q290.76 14.47 290.42 14.47L290.42 14.47Q289.44 14.47 288.58 15.01Q287.71 15.55 287.20 16.52Q286.68 17.50 286.68 18.79L286.68 18.79L286.68 25.66L284.57 25.66L284.57 12.79L286.30 12.79L286.54 15.14L286.63 15.14Q287.26 14.09 288.24 13.32Q289.22 12.55 290.57 12.55ZM308.59 12.55L308.59 12.55Q310.78 12.55 311.86 13.67Q312.94 14.78 312.94 17.28L312.94 17.28L312.94 25.66L310.85 25.66L310.85 17.38Q310.85 14.33 308.23 14.33L308.23 14.33Q306.36 14.33 305.56 15.41Q304.75 16.49 304.75 18.55L304.75 18.55L304.75 25.66L302.66 25.66L302.66 17.38Q302.66 14.33 300.02 14.33L300.02 14.33Q298.08 14.33 297.34 15.53Q296.59 16.73 296.59 18.98L296.59 18.98L296.59 25.66L294.48 25.66L294.48 12.79L296.18 12.79L296.50 14.54L296.62 14.54Q297.22 13.54 298.24 13.04Q299.26 12.55 300.41 12.55L300.41 12.55Q303.43 12.55 304.34 14.71L304.34 14.71L304.46 14.71Q305.11 13.61 306.23 13.08Q307.34 12.55 308.59 12.55ZM321.79 12.58L321.79 12.58Q324.14 12.58 325.27 13.61Q326.40 14.64 326.40 16.90L326.40 16.90L326.40 25.66L324.86 25.66L324.46 23.83L324.36 23.83Q323.52 24.89 322.60 25.39Q321.67 25.90 320.04 25.90L320.04 25.90Q318.29 25.90 317.14 24.97Q315.98 24.05 315.98 22.08L315.98 22.08Q315.98 20.16 317.50 19.12Q319.01 18.07 322.15 17.98L322.15 17.98L324.34 17.90L324.34 17.14Q324.34 15.53 323.64 14.90Q322.94 14.28 321.67 14.28L321.67 14.28Q320.66 14.28 319.75 14.58Q318.84 14.88 318.05 15.26L318.05 15.26L317.40 13.68Q318.24 13.22 319.39 12.90Q320.54 12.58 321.79 12.58ZM324.31 19.37L322.42 19.44Q320.02 19.54 319.09 20.21Q318.17 20.88 318.17 22.10L318.17 22.10Q318.17 23.18 318.83 23.69Q319.49 24.19 320.52 24.19L320.52 24.19Q322.15 24.19 323.23 23.29Q324.31 22.39 324.31 20.52L324.31 20.52L324.31 19.37ZM332.50 7.42L332.50 25.66L330.38 25.66L330.38 7.42L332.50 7.42Z"/></svg>