<svg xmlns="http://www.w3.org/2000/svg" xmlns:xlink="http://www.w3.org/1999/xlink" width="243.1875" height="31.125"><path fill="black" d="M7.16 16.92L7.16 22.54L5.91 22.54L5.91 16.85L0.35 7.18L1.82 7.18L6.54 15.71L11.30 7.18L12.76 7.18L7.16 16.92ZM17.05 22.79L17.05 22.79Q15.40 22.79 14.47 21.92Q13.55 21.05 13.55 19.49Q13.55 17.94 14.91 17.00Q16.28 16.05 18.60 16.05L18.60 16.05L21.12 16.05L21.12 14.64Q21.12 13.41 20.33 12.71Q19.55 12.02 18.18 12.02Q16.82 12.02 15.94 12.68Q15.07 13.34 15.07 14.31L15.07 14.31L13.91 14.30L13.89 14.24Q13.83 12.93 15.08 11.94Q16.32 10.95 18.22 10.95Q20.12 10.95 21.25 11.92Q22.37 12.89 22.37 14.66L22.37 14.66L22.37 20.27Q22.37 21.46 22.66 22.56L22.66 22.56L21.34 22.58Q21.11 21.55 21.11 20.72L21.11 20.72Q20.44 21.66 19.38 22.22Q18.33 22.79 17.05 22.79ZM14.80 19.56L14.80 19.56Q14.80 20.51 15.45 21.09Q16.09 21.67 17.31 21.67Q18.54 21.67 19.59 21.04Q20.64 20.41 21.12 19.39L21.12 19.39L21.12 17.02L18.57 17.02Q16.88 17.02 15.84 17.74Q14.80 18.46 14.80 19.56ZM25.73 22.54L25.73 11.12L26.86 11.12L26.96 13.11Q28.11 10.91 30.67 10.91L30.67 10.91Q32.55 10.91 33.51 12.05Q34.46 13.20 34.46 15.59L34.46 15.59L34.46 22.54L33.20 22.54L33.20 15.60Q33.20 13.69 32.49 12.85Q31.78 12.01 30.43 12.01Q29.09 12.01 28.24 12.69Q27.39 13.36 27 14.57L27 14.57L27 22.54L25.73 22.54ZM38.47 11.14L38.47 8.23L39.74 8.23L39.74 11.14L42.26 11.14L42.26 12.18L39.74 12.18L39.74 19.62Q39.74 21.67 41.23 21.67L41.23 21.67Q41.85 21.67 42.49 21.56L42.49 21.56L42.69 22.50Q42.01 22.78 41.00 22.78L41.00 22.78Q38.47 22.78 38.47 19.62L38.47 19.62L38.47 12.18L36.49 12.18L36.49 11.14L38.47 11.14ZM46.21 14.66L46.21 22.54L44.94 22.54L44.94 11.12L46.05 11.12L46.21 13.02L46.21 13.15Q47.29 10.91 49.52 10.91L49.52 10.91Q49.96 10.91 50.36 11.03L50.36 11.03L50.19 12.21L49.25 12.14Q48.09 12.14 47.32 12.80Q46.55 13.45 46.21 14.66L46.21 14.66ZM55.21 22.79L55.21 22.79Q53.55 22.79 52.63 21.92Q51.70 21.05 51.70 19.49Q51.70 17.94 53.07 17.00Q54.43 16.05 56.75 16.05L56.75 16.05L59.27 16.05L59.27 14.64Q59.27 13.41 58.49 12.71Q57.70 12.02 56.34 12.02Q54.97 12.02 54.10 12.68Q53.23 13.34 53.23 14.31L53.23 14.31L52.07 14.30L52.04 14.24Q51.98 12.93 53.23 11.94Q54.48 10.95 56.38 10.95Q58.28 10.95 59.40 11.92Q60.53 12.89 60.53 14.66L60.53 14.66L60.53 20.27Q60.53 21.46 60.82 22.56L60.82 22.56L59.50 22.58Q59.26 21.55 59.26 20.72L59.26 20.72Q58.59 21.66 57.54 22.22Q56.48 22.79 55.21 22.79ZM52.96 19.56L52.96 19.56Q52.96 20.51 53.60 21.09Q54.25 21.67 55.47 21.67Q56.70 21.67 57.74 21.04Q58.79 20.41 59.27 19.39L59.27 19.39L59.27 17.02L56.73 17.02Q55.03 17.02 53.99 17.74Q52.96 18.46 52.96 19.56ZM72.42 15.28L72.42 15.28L72.43 15.69L72.43 22.54L71.16 22.54L71.16 15.86Q71.16 13.85 70.44 12.93Q69.71 12.01 68.33 12.01L68.33 12.01Q65.80 12.01 65.11 14.52L65.11 14.52L65.11 22.54L63.83 22.54L63.83 11.12L64.97 11.12L65.09 13.01Q66.25 10.91 68.73 10.91L68.73 10.91Q71.41 10.91 72.18 13.48L72.18 13.48Q73.28 10.91 75.97 10.91L75.97 10.91Q79.78 10.91 79.78 15.88L79.78 15.88L79.78 22.54L78.52 22.54L78.52 15.86Q78.52 13.80 77.81 12.91Q77.10 12.01 75.69 12.01Q74.27 12.01 73.45 12.88Q72.63 13.76 72.42 15.28ZM85.97 22.79L85.97 22.79Q84.32 22.79 83.39 21.92Q82.46 21.05 82.46 19.49Q82.46 17.94 83.83 17.00Q85.20 16.05 87.52 16.05L87.52 16.05L90.04 16.05L90.04 14.64Q90.04 13.41 89.25 12.71Q88.46 12.02 87.10 12.02Q85.73 12.02 84.86 12.68Q83.99 13.34 83.99 14.31L83.99 14.31L82.83 14.30L82.80 14.24Q82.75 12.93 83.99 11.94Q85.24 10.95 87.14 10.95Q89.04 10.95 90.16 11.92Q91.29 12.89 91.29 14.66L91.29 14.66L91.29 20.27Q91.29 21.46 91.58 22.56L91.58 22.56L90.26 22.58Q90.02 21.55 90.02 20.72L90.02 20.72Q89.36 21.66 88.30 22.22Q87.25 22.79 85.97 22.79ZM83.72 19.56L83.72 19.56Q83.72 20.51 84.36 21.09Q85.01 21.67 86.23 21.67Q87.46 21.67 88.51 21.04Q89.55 20.41 90.04 19.39L90.04 19.39L90.04 17.02L87.49 17.02Q85.79 17.02 84.76 17.74Q83.72 18.46 83.72 19.56ZM94.65 22.54L94.65 11.12L95.78 11.12L95.88 13.11Q97.03 10.91 99.59 10.91L99.59 10.91Q101.47 10.91 102.43 12.05Q103.38 13.20 103.38 15.59L103.38 15.59L103.38 22.54L102.12 22.54L102.12 15.60Q102.12 13.69 101.41 12.85Q100.70 12.01 99.35 12.01Q98.00 12.01 97.15 12.69Q96.30 13.36 95.92 14.57L95.92 14.57L95.92 22.54L94.65 22.54ZM109.61 22.79L109.61 22.79Q107.95 22.79 107.03 21.92Q106.10 21.05 106.10 19.49Q106.10 17.94 107.47 17.00Q108.83 16.05 111.15 16.05L111.15 16.05L113.67 16.05L113.67 14.64Q113.67 13.41 112.89 12.71Q112.10 12.02 110.74 12.02Q109.37 12.02 108.50 12.68Q107.63 13.34 107.63 14.31L107.63 14.31L106.46 14.30L106.44 14.24Q106.38 12.93 107.63 11.94Q108.88 10.95 110.78 10.95Q112.68 10.95 113.80 11.92Q114.93 12.89 114.93 14.66L114.93 14.66L114.93 20.27Q114.93 21.46 115.22 22.56L115.22 22.56L113.89 22.58Q113.66 21.55 113.66 20.72L113.66 20.72Q112.99 21.66 111.94 22.22Q110.88 22.79 109.61 22.79ZM107.36 19.56L107.36 19.56Q107.36 20.51 108 21.09Q108.64 21.67 109.87 21.67Q111.09 21.67 112.14 21.04Q113.19 20.41 113.67 19.39L113.67 19.39L113.67 17.02L111.13 17.02Q109.43 17.02 108.39 17.74Q107.36 18.46 107.36 19.56ZM116.93 11.12L118.23 11.12L121.37 19.68L121.75 21.01L121.80 21.01L122.21 19.68L125.31 11.12L126.62 11.12L122.29 22.54L121.27 22.54L116.93 11.12ZM137.24 14.17L138.70 14.17Q140.34 14.17 141.23 13.35Q142.11 12.54 142.11 11.12Q142.11 9.70 141.29 8.87Q140.46 8.04 138.92 8.04Q137.38 8.04 136.45 8.91Q135.52 9.77 135.52 11.20L135.52 11.20L134.33 11.20L134.31 11.13Q134.26 9.33 135.56 8.14Q136.86 6.96 138.91 6.96Q140.96 6.96 142.17 8.09Q143.38 9.21 143.38 11.21L143.38 11.21Q143.38 12.33 142.69 13.28Q142.01 14.23 140.80 14.70L140.80 14.70Q142.21 15.11 142.93 16.06Q143.66 17.02 143.66 18.39L143.66 18.39Q143.66 20.40 142.35 21.59Q141.05 22.77 138.94 22.77Q136.84 22.77 135.44 21.60Q134.04 20.43 134.10 18.45L134.10 18.45L134.11 18.39L135.29 18.39Q135.29 19.86 136.31 20.79Q137.32 21.71 138.96 21.71Q140.59 21.71 141.50 20.87Q142.42 20.02 142.42 18.43L142.42 18.43Q142.42 15.27 138.71 15.27L138.71 15.27L137.25 15.27L137.24 14.17ZM154.86 16.79L154.86 16.79L154.86 12.96Q154.86 10.57 153.94 9.32Q153.01 8.06 151.25 8.06Q149.48 8.06 148.57 9.32Q147.66 10.57 147.66 12.96L147.66 12.96L147.66 16.79Q147.66 19.16 148.59 20.44Q149.52 21.71 151.27 21.71Q153.02 21.71 153.94 20.44Q154.86 19.16 154.86 16.79ZM156.13 13.17L156.13 13.17L156.13 16.61Q156.13 19.57 154.86 21.18Q153.59 22.78 151.28 22.78Q148.97 22.78 147.68 21.17Q146.39 19.56 146.39 16.61L146.39 16.61L146.39 13.17Q146.39 10.21 147.66 8.60Q148.93 6.98 151.25 6.98Q153.56 6.98 154.85 8.60Q156.13 10.21 156.13 13.17ZM167.46 16.79L167.46 16.79L167.46 12.96Q167.46 10.57 166.54 9.32Q165.61 8.06 163.85 8.06Q162.08 8.06 161.17 9.32Q160.25 10.57 160.25 12.96L160.25 12.96L160.25 16.79Q160.25 19.16 161.19 20.44Q162.12 21.71 163.87 21.71Q165.62 21.71 166.54 20.44Q167.46 19.16 167.46 16.79ZM168.73 13.17L168.73 13.17L168.73 16.61Q168.73 19.57 167.46 21.18Q166.18 22.78 163.88 22.78Q161.57 22.78 160.28 21.17Q158.99 19.56 158.99 16.61L158.99 16.61L158.99 13.17Q158.99 10.21 160.26 8.60Q161.53 6.98 163.85 6.98Q166.16 6.98 167.44 8.60Q168.73 10.21 168.73 13.17ZM177.79 22.54L177.79 11.12L178.91 11.12L179.02 13.11Q180.16 10.91 182.72 10.91L182.72 10.91Q184.61 10.91 185.56 12.05Q186.52 13.20 186.52 15.59L186.52 15.59L186.52 22.54L185.25 22.54L185.25 15.60Q185.25 13.69 184.54 12.85Q183.83 12.01 182.48 12.01Q181.14 12.01 180.29 12.69Q179.44 13.36 179.05 14.57L179.05 14.57L179.05 22.54L177.79 22.54ZM190.37 16.69L190.37 16.69L190.37 17.03Q190.37 19.09 191.39 20.40Q192.41 21.71 194.16 21.71Q195.90 21.71 196.92 20.40Q197.94 19.08 197.94 17.03L197.94 17.03L197.94 16.69Q197.94 14.67 196.91 13.34Q195.88 12.01 194.14 12.01Q192.41 12.01 191.39 13.34Q190.37 14.66 190.37 16.69ZM189.11 17.03L189.11 17.03L189.11 16.69Q189.11 14.13 190.49 12.53Q191.87 10.93 194.14 10.93Q196.42 10.93 197.81 12.53Q199.20 14.13 199.20 16.69L199.20 16.69L199.20 17.03Q199.20 19.58 197.82 21.18Q196.44 22.78 194.16 22.78Q191.87 22.78 190.49 21.19Q189.11 19.59 189.11 17.03ZM203.11 14.66L203.11 22.54L201.84 22.54L201.84 11.12L202.96 11.12L203.11 13.02L203.11 13.15Q204.19 10.91 206.43 10.91L206.43 10.91Q206.86 10.91 207.26 11.03L207.26 11.03L207.09 12.21L206.16 12.14Q205.00 12.14 204.22 12.80Q203.45 13.45 203.11 14.66L203.11 14.66ZM217.71 15.28L217.71 15.28L217.72 15.69L217.72 22.54L216.45 22.54L216.45 15.86Q216.45 13.85 215.72 12.93Q215.00 12.01 213.62 12.01L213.62 12.01Q211.09 12.01 210.40 14.52L210.40 14.52L210.40 22.54L209.12 22.54L209.12 11.12L210.26 11.12L210.38 13.01Q211.54 10.91 214.02 10.91L214.02 10.91Q216.70 10.91 217.46 13.48L217.46 13.48Q218.57 10.91 221.26 10.91L221.26 10.91Q225.07 10.91 225.07 15.88L225.07 15.88L225.07 22.54L223.80 22.54L223.80 15.86Q223.80 13.80 223.10 12.91Q222.39 12.01 220.97 12.01Q219.56 12.01 218.74 12.88Q217.92 13.76 217.71 15.28ZM231.26 22.79L231.26 22.79Q229.61 22.79 228.68 21.92Q227.75 21.05 227.75 19.49Q227.75 17.94 229.12 17.00Q230.48 16.05 232.80 16.05L232.80 16.05L235.32 16.05L235.32 14.64Q235.32 13.41 234.54 12.71Q233.75 12.02 232.39 12.02Q231.02 12.02 230.15 12.68Q229.28 13.34 229.28 14.31L229.28 14.31L228.12 14.30L228.09 14.24Q228.04 12.93 229.28 11.94Q230.53 10.95 232.43 10.95Q234.33 10.95 235.45 11.92Q236.58 12.89 236.58 14.66L236.58 14.66L236.58 20.27Q236.58 21.46 236.87 22.56L236.87 22.56L235.55 22.58Q235.31 21.55 235.31 20.72L235.31 20.72Q234.64 21.66 233.59 22.22Q232.54 22.79 231.26 22.79ZM229.01 19.56L229.01 19.56Q229.01 20.51 229.65 21.09Q230.30 21.67 231.52 21.67Q232.75 21.67 233.79 21.04Q234.84 20.41 235.32 19.39L235.32 19.39L235.32 17.02L232.78 17.02Q231.08 17.02 230.04 17.74Q229.01 18.46 229.01 19.56ZM240.11 6.08L241.36 6.08L241.36 22.54L240.11 22.54L240.11 6.08Z"/></svg>