<svg xmlns="http://www.w3.org/2000/svg" xmlns:xlink="http://www.w3.org/1999/xlink" width="256.318359375" height="24.005859375"><path fill="black" d="M5.97 4.77Q6.92 4.55 7.97 4.55Q9.02 4.55 9.97 4.77Q10.92 4.99 11.69 5.38Q12.46 5.77 13.11 6.32Q13.76 6.86 14.24 7.52Q14.71 8.18 15.04 8.92Q15.38 9.66 15.54 10.45Q15.70 11.24 15.70 12.05Q15.70 12.86 15.54 13.64Q15.38 14.43 15.04 15.17Q14.71 15.91 14.24 16.57Q13.76 17.23 13.11 17.78Q12.46 18.32 11.69 18.71Q10.92 19.11 9.97 19.33Q9.02 19.55 7.97 19.55Q6.92 19.55 5.97 19.33Q5.02 19.11 4.25 18.71Q3.47 18.32 2.82 17.78Q2.17 17.23 1.70 16.57Q1.22 15.91 0.89 15.17Q0.56 14.43 0.40 13.64Q0.23 12.86 0.23 12.05Q0.23 11.24 0.40 10.45Q0.56 9.66 0.89 8.92Q1.22 8.18 1.70 7.52Q2.17 6.86 2.82 6.32Q3.47 5.77 4.25 5.38Q5.02 4.99 5.97 4.77ZM9.26 6.71Q8.68 6.42 7.97 6.42Q7.26 6.42 6.68 6.71Q6.09 7.00 5.69 7.51Q5.28 8.02 5.00 8.73Q4.72 9.45 4.58 10.28Q4.45 11.11 4.45 12.05L4.45 12.05Q4.45 13.22 4.68 14.23Q4.90 15.24 5.33 16.01Q5.76 16.79 6.44 17.23Q7.11 17.67 7.97 17.67Q8.82 17.67 9.50 17.23Q10.18 16.79 10.61 16.01Q11.03 15.24 11.26 14.23Q11.48 13.22 11.48 12.05L11.48 12.05Q11.48 11.11 11.35 10.28Q11.22 9.45 10.94 8.73Q10.66 8.02 10.25 7.51Q9.84 7.00 9.26 6.71ZM16.88 10.41L16.88 8.53L20.51 8.53L21.25 9.96Q22.29 8.30 24.19 8.30L24.19 8.30Q25.46 8.30 26.21 9.08Q26.95 9.86 26.95 11.11L26.95 11.11Q26.95 11.89 26.41 12.44Q25.86 12.98 25.08 12.98Q24.30 12.98 23.75 12.44Q23.20 11.89 23.20 11.11L23.20 11.11Q23.20 10.79 23.30 10.50L23.30 10.50Q23.14 10.41 22.97 10.41L22.97 10.41Q22.58 10.41 22.16 10.92Q21.74 11.43 21.35 12.45L21.35 12.45L21.33 17.44L23.91 17.44L23.91 19.31L16.88 19.31L16.88 17.44L18.05 17.44L18.05 10.41L16.88 10.41ZM38.62 14.63L31.04 14.63Q31.10 15.30 31.27 15.84Q31.44 16.37 31.68 16.71Q31.92 17.05 32.24 17.27Q32.57 17.49 32.91 17.58Q33.25 17.67 33.63 17.67L33.63 17.67Q34.87 17.67 35.56 17.19Q36.26 16.72 36.67 15.72L36.67 15.72L38.23 16.26Q38.02 16.83 37.70 17.33Q37.37 17.83 36.91 18.25Q36.46 18.67 35.90 18.98Q35.34 19.28 34.63 19.45Q33.93 19.62 33.15 19.62L33.15 19.62Q32.00 19.62 30.97 19.21Q29.94 18.81 29.18 18.08Q28.42 17.36 27.98 16.30Q27.54 15.24 27.54 13.99Q27.54 12.74 27.98 11.67Q28.42 10.60 29.18 9.86Q29.94 9.13 30.97 8.71Q32.00 8.30 33.15 8.30Q34.31 8.30 35.33 8.71Q36.36 9.13 37.12 9.86Q37.88 10.60 38.32 11.67Q38.77 12.74 38.77 13.99L38.77 13.99L38.62 14.63ZM31.08 12.75L31.08 12.75L35.22 12.75Q35.07 11.40 34.55 10.79Q34.03 10.17 33.16 10.17L33.16 10.17Q32.74 10.17 32.40 10.31Q32.06 10.45 31.79 10.75Q31.52 11.05 31.34 11.55Q31.16 12.05 31.08 12.75ZM39.23 6.66L39.23 4.78L43.69 4.78L43.69 17.44L44.86 17.44L44.86 19.31L39.23 19.31L39.23 17.44L40.41 17.44L40.41 6.66L39.23 6.66ZM56.76 14.63L49.18 14.63Q49.24 15.30 49.41 15.84Q49.58 16.37 49.82 16.71Q50.06 17.05 50.38 17.27Q50.71 17.49 51.05 17.58Q51.39 17.67 51.77 17.67L51.77 17.67Q53.01 17.67 53.70 17.19Q54.40 16.72 54.81 15.72L54.81 15.72L56.37 16.26Q56.16 16.83 55.84 17.33Q55.51 17.83 55.05 18.25Q54.60 18.67 54.04 18.98Q53.48 19.28 52.78 19.45Q52.07 19.62 51.29 19.62L51.29 19.62Q50.14 19.62 49.11 19.21Q48.08 18.81 47.32 18.08Q46.56 17.36 46.12 16.30Q45.68 15.24 45.68 13.99Q45.68 12.74 46.12 11.67Q46.56 10.60 47.32 9.86Q48.08 9.13 49.11 8.71Q50.14 8.30 51.29 8.30Q52.45 8.30 53.48 8.71Q54.50 9.13 55.26 9.86Q56.02 10.60 56.46 11.67Q56.91 12.74 56.91 13.99L56.91 13.99L56.76 14.63ZM49.22 12.75L49.22 12.75L53.36 12.75Q53.21 11.40 52.69 10.79Q52.17 10.17 51.30 10.17L51.30 10.17Q50.88 10.17 50.54 10.31Q50.20 10.45 49.93 10.75Q49.66 11.05 49.48 11.55Q49.30 12.05 49.22 12.75ZM65.11 6.42L65.11 6.42Q65.11 5.64 65.66 5.09Q66.21 4.55 66.98 4.55L66.98 4.55Q67.28 4.55 67.56 4.63L67.56 4.63Q67.92 4.75 68.19 4.93Q68.47 5.11 68.64 5.33Q68.81 5.54 68.91 5.83Q69.02 6.11 69.06 6.40Q69.09 6.68 69.09 7.03L69.09 7.03Q69.09 7.38 68.95 7.78Q68.81 8.17 68.58 8.52Q68.35 8.87 68.08 9.17Q67.80 9.47 67.52 9.70L67.52 9.70Q68.39 10.56 68.39 11.81L68.39 11.81Q68.39 12.75 67.98 13.48Q67.58 14.21 66.86 14.66Q66.15 15.11 65.23 15.33Q64.31 15.56 63.23 15.56L63.23 15.56Q62.34 15.56 61.53 15.36L61.53 15.36Q61.00 15.45 60.71 15.65Q60.42 15.86 60.42 16.03L60.42 16.03Q60.42 16.21 60.57 16.35Q60.71 16.50 60.89 16.50L60.89 16.50L64.17 16.50Q66.65 16.50 67.75 17.21Q68.86 17.92 68.86 19.55L68.86 19.55Q68.86 20.33 68.67 20.97Q68.47 21.62 68.14 22.07Q67.81 22.52 67.32 22.87Q66.84 23.22 66.30 23.43Q65.77 23.64 65.12 23.77Q64.46 23.90 63.84 23.95Q63.23 24 62.53 24L62.53 24Q61.42 24 60.52 23.76Q59.62 23.51 59.04 23.09Q58.46 22.67 58.15 22.12Q57.84 21.57 57.84 20.95L57.84 20.95Q57.84 19.68 59.30 18.97L59.30 18.97Q58.73 18.68 58.41 18.18Q58.08 17.68 58.08 16.97L58.08 16.97Q58.08 16.18 58.54 15.53Q58.99 14.89 59.77 14.60L59.77 14.60Q59.08 14.11 58.70 13.41Q58.31 12.71 58.31 11.81L58.31 11.81Q58.31 11.06 58.58 10.46Q58.85 9.87 59.30 9.47Q59.75 9.08 60.39 8.82Q61.03 8.55 61.73 8.44Q62.43 8.33 63.23 8.33L63.23 8.33Q65.09 8.33 66.39 8.94L66.39 8.94Q66.69 8.60 66.86 8.29L66.86 8.29Q66.12 8.24 65.62 7.71Q65.11 7.17 65.11 6.42ZM63.35 10.17L63.35 10.17Q62.53 10.17 62.06 10.65Q61.59 11.12 61.59 12.02L61.59 12.02Q61.59 12.92 62.06 13.42Q62.53 13.92 63.35 13.92L63.35 13.92Q64.17 13.92 64.64 13.42Q65.11 12.91 65.11 12.02L65.11 12.02Q65.11 11.13 64.64 10.65Q64.17 10.17 63.35 10.17ZM64.88 19.31L61.56 19.31Q60.89 19.79 60.89 20.48L60.89 20.48Q60.89 21.18 61.32 21.42Q61.76 21.66 63 21.66L63 21.66Q65.81 21.66 65.81 20.25L65.81 20.25Q65.81 19.90 65.52 19.61Q65.23 19.31 64.88 19.31L64.88 19.31ZM79.76 12.25L79.76 12.25L79.76 17.44L80.93 17.44L80.93 19.31L77.28 19.31L76.76 18.09Q76.16 18.95 75.37 19.27Q74.58 19.58 73.17 19.58L73.17 19.58Q72.44 19.58 71.81 19.33Q71.18 19.07 70.74 18.63Q70.29 18.19 70.05 17.58Q69.80 16.96 69.80 16.26L69.80 16.26Q69.80 15.05 70.75 14.25Q71.70 13.45 73.17 13.45L73.17 13.45Q74.36 13.45 75.14 13.67Q75.92 13.90 76.48 14.39L76.48 14.39L76.48 11.91Q76.48 11.38 76.33 11.02Q76.19 10.67 75.90 10.48Q75.62 10.29 75.26 10.21Q74.90 10.14 74.40 10.14L74.40 10.14Q74.00 10.14 73.68 10.31L73.68 10.31Q73.86 10.69 73.86 11.11L73.86 11.11Q73.86 11.89 73.32 12.44Q72.77 12.98 71.99 12.98Q71.21 12.98 70.66 12.44Q70.11 11.89 70.11 11.11L70.11 11.11Q70.11 10.71 70.27 10.36Q70.42 10.01 70.70 9.74L70.70 9.74Q70.93 9.50 71.19 9.30Q71.44 9.11 71.82 8.91Q72.21 8.71 72.66 8.58Q73.11 8.46 73.74 8.38Q74.37 8.30 75.12 8.30L75.12 8.30Q76.09 8.30 76.95 8.58Q77.80 8.87 78.42 9.38Q79.04 9.89 79.40 10.63Q79.76 11.38 79.76 12.25ZM76.48 16.71L76.48 16.71L76.48 15.90Q76.11 15.56 75.66 15.32Q75.21 15.08 74.82 15.08L74.82 15.08Q73.99 15.08 73.65 15.36Q73.31 15.64 73.31 16.26L73.31 16.26Q73.31 17.00 73.60 17.36Q73.89 17.71 74.69 17.71L74.69 17.71Q75.14 17.71 75.63 17.42Q76.12 17.13 76.48 16.71ZM93.81 4.77Q94.76 4.55 95.81 4.55Q96.86 4.55 97.81 4.77Q98.77 4.99 99.54 5.38Q100.31 5.77 100.96 6.32Q101.61 6.86 102.08 7.52Q102.56 8.18 102.89 8.92Q103.22 9.66 103.38 10.45Q103.55 11.24 103.55 12.05Q103.55 12.86 103.38 13.64Q103.22 14.43 102.89 15.17Q102.56 15.91 102.08 16.57Q101.61 17.23 100.96 17.78Q100.31 18.32 99.54 18.71Q98.77 19.11 97.81 19.33Q96.86 19.55 95.81 19.55Q94.76 19.55 93.81 19.33Q92.86 19.11 92.09 18.71Q91.32 18.32 90.67 17.78Q90.02 17.23 89.54 16.57Q89.07 15.91 88.74 15.17Q88.41 14.43 88.24 13.64Q88.08 12.86 88.08 12.05Q88.08 11.24 88.24 10.45Q88.41 9.66 88.74 8.92Q89.07 8.18 89.54 7.52Q90.02 6.86 90.67 6.32Q91.32 5.77 92.09 5.38Q92.86 4.99 93.81 4.77ZM97.10 6.71Q96.52 6.42 95.81 6.42Q95.10 6.42 94.52 6.71Q93.94 7.00 93.53 7.51Q93.12 8.02 92.84 8.73Q92.56 9.45 92.43 10.28Q92.30 11.11 92.30 12.05L92.30 12.05Q92.30 13.22 92.52 14.23Q92.75 15.24 93.18 16.01Q93.60 16.79 94.28 17.23Q94.96 17.67 95.81 17.67Q96.67 17.67 97.34 17.23Q98.02 16.79 98.45 16.01Q98.88 15.24 99.10 14.23Q99.33 13.22 99.33 12.05L99.33 12.05Q99.33 11.11 99.20 10.28Q99.06 9.45 98.78 8.73Q98.50 8.02 98.09 7.51Q97.69 7.00 97.10 6.71ZM112.45 8.30L112.45 8.30Q113.27 8.30 113.89 8.52Q114.50 8.74 114.90 9.13Q115.29 9.52 115.53 10.12Q115.78 10.72 115.87 11.41Q115.97 12.10 115.97 12.98L115.97 12.98L115.97 17.44L117.14 17.44L117.14 19.31L111.52 19.31L111.52 17.44L112.69 17.44L112.69 12.75Q112.69 11.82 112.52 11.31Q112.35 10.79 112.04 10.60Q111.73 10.41 111.19 10.41L111.19 10.41Q110.70 10.41 110.18 10.82Q109.66 11.24 109.20 11.98L109.20 11.98L109.17 17.44L110.34 17.44L110.34 19.31L104.72 19.31L104.72 17.44L105.89 17.44L105.89 10.41L104.72 10.41L104.72 8.53L108.36 8.53L109.18 10.12Q109.39 9.73 109.68 9.41Q109.96 9.10 110.36 8.84Q110.75 8.58 111.29 8.44Q111.82 8.30 112.45 8.30ZM128.81 14.63L121.23 14.63Q121.28 15.30 121.45 15.84Q121.62 16.37 121.87 16.71Q122.11 17.05 122.43 17.27Q122.75 17.49 123.09 17.58Q123.43 17.67 123.82 17.67L123.82 17.67Q125.06 17.67 125.75 17.19Q126.45 16.72 126.86 15.72L126.86 15.72L128.42 16.26Q128.21 16.83 127.88 17.33Q127.56 17.83 127.10 18.25Q126.64 18.67 126.08 18.98Q125.53 19.28 124.82 19.45Q124.12 19.62 123.34 19.62L123.34 19.62Q122.19 19.62 121.16 19.21Q120.13 18.81 119.37 18.08Q118.61 17.36 118.17 16.30Q117.73 15.24 117.73 13.99Q117.73 12.74 118.17 11.67Q118.61 10.60 119.37 9.86Q120.13 9.13 121.16 8.71Q122.19 8.30 123.34 8.30Q124.49 8.30 125.52 8.71Q126.55 9.13 127.31 9.86Q128.07 10.60 128.51 11.67Q128.95 12.74 128.95 13.99L128.95 13.99L128.81 14.63ZM121.27 12.75L121.27 12.75L125.41 12.75Q125.26 11.40 124.73 10.79Q124.21 10.17 123.35 10.17L123.35 10.17Q122.92 10.17 122.58 10.31Q122.24 10.45 121.97 10.75Q121.71 11.05 121.53 11.55Q121.35 12.05 121.27 12.75ZM140.32 4.78L140.32 4.78L144.07 4.78Q144.07 5.88 143.79 6.91Q143.51 7.93 143.04 8.79Q142.58 9.65 141.83 10.52Q141.09 11.40 140.30 12.13Q139.50 12.86 138.45 13.69L138.45 13.69L142.43 13.69L142.43 11.44Q143.92 9.97 144.46 8.53L144.46 8.53L146.18 8.53L146.18 13.69L148.05 13.69L148.05 15.56L146.18 15.56L146.18 17.44L148.05 17.44L148.05 19.31L140.09 19.31L140.09 17.44L142.43 17.44L142.43 15.56L136.57 15.56L136.57 13.69Q137.25 13.01 137.81 12.24Q138.36 11.47 138.74 10.69Q139.13 9.91 139.41 9.16Q139.69 8.40 139.87 7.60Q140.05 6.80 140.15 6.15Q140.26 5.50 140.32 4.78ZM153.82 4.79Q154.60 4.55 155.44 4.55Q156.28 4.55 157.06 4.79Q157.84 5.03 158.51 5.48Q159.19 5.94 159.75 6.60Q160.31 7.27 160.70 8.09Q161.09 8.92 161.31 9.93Q161.53 10.95 161.53 12.06Q161.53 13.18 161.31 14.19Q161.09 15.21 160.70 16.03Q160.31 16.86 159.75 17.53Q159.19 18.19 158.51 18.64Q157.84 19.10 157.06 19.34Q156.28 19.58 155.44 19.58Q154.60 19.58 153.82 19.34Q153.04 19.10 152.36 18.64Q151.69 18.19 151.13 17.53Q150.57 16.86 150.18 16.03Q149.78 15.21 149.56 14.19Q149.34 13.18 149.34 12.06Q149.34 10.95 149.56 9.93Q149.78 8.92 150.18 8.09Q150.57 7.27 151.13 6.60Q151.69 5.94 152.36 5.48Q153.04 5.03 153.82 4.79ZM155.44 6.42L155.44 6.42Q155.03 6.42 154.71 6.60Q154.39 6.77 154.13 7.18Q153.87 7.59 153.69 8.23Q153.52 8.88 153.42 9.84Q153.33 10.80 153.33 12.06Q153.33 13.33 153.42 14.29Q153.52 15.25 153.69 15.90Q153.87 16.54 154.13 16.95Q154.39 17.36 154.71 17.53Q155.03 17.71 155.44 17.71L155.44 17.71Q155.95 17.71 156.33 17.41Q156.70 17.12 156.98 16.46Q157.26 15.81 157.40 14.71Q157.55 13.61 157.55 12.06Q157.55 10.52 157.40 9.42Q157.26 8.32 156.98 7.67Q156.70 7.01 156.33 6.72Q155.95 6.42 155.44 6.42ZM166.94 4.79Q167.72 4.55 168.56 4.55Q169.40 4.55 170.18 4.79Q170.96 5.03 171.64 5.48Q172.31 5.94 172.87 6.60Q173.43 7.27 173.82 8.09Q174.22 8.92 174.44 9.93Q174.66 10.95 174.66 12.06Q174.66 13.18 174.44 14.19Q174.22 15.21 173.82 16.03Q173.43 16.86 172.87 17.53Q172.31 18.19 171.64 18.64Q170.96 19.10 170.18 19.34Q169.40 19.58 168.56 19.58Q167.72 19.58 166.94 19.34Q166.16 19.10 165.49 18.64Q164.81 18.19 164.25 17.53Q163.69 16.86 163.30 16.03Q162.91 15.21 162.69 14.19Q162.47 13.18 162.47 12.06Q162.47 10.95 162.69 9.93Q162.91 8.92 163.30 8.09Q163.69 7.27 164.25 6.60Q164.81 5.94 165.49 5.48Q166.16 5.03 166.94 4.79ZM168.56 6.42L168.56 6.42Q168.16 6.42 167.84 6.60Q167.52 6.77 167.26 7.18Q166.99 7.59 166.82 8.23Q166.64 8.88 166.55 9.84Q166.45 10.80 166.45 12.06Q166.45 13.33 166.55 14.29Q166.64 15.25 166.82 15.90Q166.99 16.54 167.26 16.95Q167.52 17.36 167.84 17.53Q168.16 17.71 168.56 17.71L168.56 17.71Q169.07 17.71 169.45 17.41Q169.83 17.12 170.11 16.46Q170.38 15.81 170.53 14.71Q170.67 13.61 170.67 12.06Q170.67 10.52 170.53 9.42Q170.38 8.32 170.11 7.67Q169.83 7.01 169.45 6.72Q169.07 6.42 168.56 6.42ZM189.66 8.30L189.66 8.30Q190.48 8.30 191.09 8.52Q191.71 8.74 192.10 9.13Q192.49 9.52 192.74 10.12Q192.98 10.72 193.08 11.41Q193.17 12.10 193.17 12.98L193.17 12.98L193.17 17.44L194.34 17.44L194.34 19.31L188.72 19.31L188.72 17.44L189.89 17.44L189.89 12.75Q189.89 11.82 189.72 11.31Q189.56 10.79 189.24 10.60Q188.93 10.41 188.39 10.41L188.39 10.41Q187.90 10.41 187.38 10.82Q186.87 11.24 186.40 11.98L186.40 11.98L186.38 17.44L187.55 17.44L187.55 19.31L181.92 19.31L181.92 17.44L183.09 17.44L183.09 10.41L181.92 10.41L181.92 8.53L185.56 8.53L186.38 10.12Q186.60 9.73 186.88 9.41Q187.17 9.10 187.56 8.84Q187.96 8.58 188.49 8.44Q189.02 8.30 189.66 8.30ZM198.36 8.74Q199.39 8.33 200.54 8.33Q201.70 8.33 202.73 8.74Q203.75 9.14 204.52 9.86Q205.28 10.59 205.72 11.65Q206.16 12.71 206.16 13.96Q206.16 15.21 205.72 16.27Q205.28 17.33 204.52 18.05Q203.75 18.77 202.73 19.18Q201.70 19.58 200.54 19.58Q199.39 19.58 198.36 19.18Q197.33 18.77 196.57 18.05Q195.81 17.33 195.37 16.27Q194.93 15.21 194.93 13.96Q194.93 12.71 195.37 11.65Q195.81 10.59 196.57 9.86Q197.33 9.14 198.36 8.74ZM200.54 10.21L200.54 10.21Q200.13 10.21 199.81 10.32Q199.49 10.44 199.22 10.71Q198.95 10.98 198.78 11.41Q198.60 11.84 198.51 12.47Q198.41 13.11 198.41 13.96Q198.41 14.80 198.51 15.44Q198.60 16.08 198.78 16.51Q198.95 16.93 199.22 17.20Q199.49 17.47 199.81 17.59Q200.13 17.71 200.54 17.71L200.54 17.71Q201.06 17.71 201.44 17.51Q201.82 17.31 202.10 16.88Q202.39 16.45 202.53 15.71Q202.68 14.98 202.68 13.96Q202.68 12.93 202.53 12.20Q202.39 11.47 202.10 11.03Q201.82 10.60 201.44 10.40Q201.06 10.21 200.54 10.21ZM207.22 10.41L207.22 8.53L210.86 8.53L211.59 9.96Q212.63 8.30 214.53 8.30L214.53 8.30Q215.80 8.30 216.55 9.08Q217.29 9.86 217.29 11.11L217.29 11.11Q217.29 11.89 216.75 12.44Q216.20 12.98 215.42 12.98Q214.64 12.98 214.09 12.44Q213.54 11.89 213.54 11.11L213.54 11.11Q213.54 10.79 213.64 10.50L213.64 10.50Q213.49 10.41 213.31 10.41L213.31 10.41Q212.92 10.41 212.50 10.92Q212.08 11.43 211.69 12.45L211.69 12.45L211.67 17.44L214.25 17.44L214.25 19.31L207.22 19.31L207.22 17.44L208.39 17.44L208.39 10.41L207.22 10.41ZM232.76 8.30L232.76 8.30Q233.58 8.30 234.20 8.52Q234.81 8.74 235.21 9.13Q235.60 9.52 235.84 10.12Q236.09 10.72 236.18 11.41Q236.28 12.10 236.28 12.98L236.28 12.98L236.28 17.44L237.45 17.44L237.45 19.31L231.83 19.31L231.83 17.44L233.00 17.44L233.00 12.75Q233.00 11.82 232.83 11.31Q232.66 10.79 232.35 10.60Q232.04 10.41 231.50 10.41L231.50 10.41Q230.99 10.41 230.46 10.85Q229.93 11.29 229.45 12.08L229.45 12.08Q229.48 12.50 229.48 12.98L229.48 12.98L229.48 17.44L230.65 17.44L230.65 19.31L225.03 19.31L225.03 17.44L226.20 17.44L226.20 12.75Q226.20 11.82 226.03 11.31Q225.87 10.79 225.55 10.60Q225.24 10.41 224.70 10.41L224.70 10.41Q224.21 10.41 223.69 10.82Q223.18 11.24 222.71 11.98L222.71 11.98L222.69 17.44L223.86 17.44L223.86 19.31L218.23 19.31L218.23 17.44L219.40 17.44L219.40 10.41L218.23 10.41L218.23 8.53L221.87 8.53L222.69 10.12Q222.91 9.73 223.19 9.41Q223.48 9.10 223.87 8.84Q224.27 8.58 224.80 8.44Q225.33 8.30 225.97 8.30L225.97 8.30Q226.68 8.30 227.23 8.46Q227.79 8.62 228.18 8.93Q228.57 9.25 228.83 9.68Q229.08 10.11 229.24 10.68L229.24 10.68Q229.38 10.29 229.58 9.96Q229.78 9.63 230.08 9.31Q230.38 9 230.76 8.78Q231.13 8.56 231.64 8.43Q232.16 8.30 232.76 8.30ZM248.00 12.25L248.00 12.25L248.00 17.44L249.17 17.44L249.17 19.31L245.52 19.31L245.00 18.09Q244.40 18.95 243.61 19.27Q242.82 19.58 241.41 19.58L241.41 19.58Q240.68 19.58 240.05 19.33Q239.42 19.07 238.98 18.63Q238.54 18.19 238.29 17.58Q238.04 16.96 238.04 16.26L238.04 16.26Q238.04 15.05 238.99 14.25Q239.94 13.45 241.41 13.45L241.41 13.45Q242.60 13.45 243.38 13.67Q244.16 13.90 244.72 14.39L244.72 14.39L244.72 11.91Q244.72 11.38 244.57 11.02Q244.43 10.67 244.14 10.48Q243.86 10.29 243.50 10.21Q243.14 10.14 242.64 10.14L242.64 10.14Q242.24 10.14 241.92 10.31L241.92 10.31Q242.10 10.69 242.10 11.11L242.10 11.11Q242.10 11.89 241.56 12.44Q241.01 12.98 240.23 12.98Q239.45 12.98 238.90 12.44Q238.35 11.89 238.35 11.11L238.35 11.11Q238.35 10.71 238.51 10.36Q238.66 10.01 238.94 9.74L238.94 9.74Q239.17 9.50 239.43 9.30Q239.68 9.11 240.06 8.91Q240.45 8.71 240.90 8.58Q241.35 8.46 241.98 8.38Q242.61 8.30 243.36 8.30L243.36 8.30Q244.33 8.30 245.19 8.58Q246.04 8.87 246.66 9.38Q247.28 9.89 247.64 10.63Q248.00 11.38 248.00 12.25ZM244.72 16.71L244.72 16.71L244.72 15.90Q244.35 15.56 243.90 15.32Q243.45 15.08 243.06 15.08L243.06 15.08Q242.23 15.08 241.89 15.36Q241.55 15.64 241.55 16.26L241.55 16.26Q241.55 17.00 241.84 17.36Q242.13 17.71 242.93 17.71L242.93 17.71Q243.38 17.71 243.87 17.42Q244.36 17.13 244.72 16.71ZM250.22 6.66L250.22 4.78L254.68 4.78L254.68 17.44L255.85 17.44L255.85 19.31L250.22 19.31L250.22 17.44L251.40 17.44L251.40 6.66L250.22 6.66Z"/></svg>