<svg xmlns="http://www.w3.org/2000/svg" xmlns:xlink="http://www.w3.org/1999/xlink" width="127.828125" height="30"><path fill="black" d="M3.04 14.70Q3.04 17.80 4.91 19.85Q6.79 21.89 9.89 21.89Q13.00 21.89 14.96 19.94Q16.93 17.99 16.93 14.59Q16.93 11.19 14.98 9.30Q13.03 7.41 10.00 7.41Q6.96 7.41 5.00 9.50Q3.04 11.59 3.04 14.70ZM3.34 21.28Q2.17 20.07 1.53 18.42Q0.89 16.77 0.89 15.11L0.89 15.11Q0.89 12.13 2.13 9.98Q3.38 7.83 5.49 6.64Q7.61 5.45 10.10 5.45L10.10 5.45Q11.89 5.45 13.53 6.06Q15.16 6.67 16.41 7.82Q17.66 8.96 18.40 10.62Q19.14 12.27 19.14 14.34L19.14 14.34Q19.14 18.55 16.62 21.20Q14.11 23.85 9.98 23.85Q5.85 23.85 3.34 21.28L3.34 21.28ZM27.02 21.16L27.02 21.16Q27.79 21.16 27.79 22.05L27.79 22.05Q27.79 22.72 26.92 23.29Q26.06 23.85 24.90 23.85L24.90 23.85Q22.95 23.85 22.29 22.00L22.29 22.00Q22.07 21.36 22.07 20.50L22.07 20.50L22.07 7.82Q22.07 7.36 21.99 7.24Q21.91 7.13 21.77 7.13L21.77 7.13L20.75 7.27Q20.30 7.27 20.00 7.03Q19.70 6.80 19.70 6.38L19.70 6.38Q19.70 5.48 20.96 5.36L20.96 5.36Q21.79 5.29 22.25 5.14Q22.71 4.99 23.19 4.99L23.19 4.99Q24.11 4.99 24.11 6.12L24.11 6.12L24.11 19.16Q24.11 20.80 24.27 21.25Q24.43 21.70 24.63 21.84Q24.83 21.98 25.25 21.98Q25.66 21.98 26.00 21.69Q26.33 21.40 26.52 21.28Q26.71 21.16 27.02 21.16ZM38.00 20.65L38.00 14.26Q36.87 13.39 35.21 13.39Q33.55 13.39 32.41 14.60Q31.27 15.81 31.27 17.76Q31.27 19.71 32.31 20.85Q33.35 22.00 35.10 22.00Q36.84 22.00 38.00 20.65L38.00 20.65ZM38.31 22.37L38.31 22.37Q36.98 23.85 34.75 23.85Q32.51 23.85 30.87 22.22Q29.23 20.60 29.23 17.87Q29.23 15.13 31.02 13.34Q32.81 11.54 35.52 11.54L35.52 11.54Q36.90 11.54 38.00 12.14L38.00 12.14L38.00 7.82Q38.00 7.36 37.93 7.24Q37.85 7.13 37.71 7.13L37.71 7.13L36.70 7.27Q36.23 7.27 35.94 7.03Q35.64 6.80 35.64 6.38L35.64 6.38Q35.64 5.48 36.91 5.36L36.91 5.36Q37.78 5.27 38.21 5.13Q38.64 4.99 39.13 4.99L39.13 4.99Q40.03 4.99 40.03 6.12L40.03 6.12L40.03 19.04Q40.03 20.64 40.16 21.18Q40.29 21.73 40.64 21.95L40.64 21.95Q41.25 22.35 41.25 22.85L41.25 22.85Q41.25 23.85 40.05 23.85Q38.85 23.85 38.31 22.37ZM45.48 16.59L45.48 16.59L46.29 16.62Q46.69 16.63 48.84 16.63Q51 16.63 51.67 16.28Q52.34 15.93 52.34 15.21Q52.34 14.50 51.53 13.95Q50.72 13.39 49.73 13.39L49.73 13.39Q48.01 13.39 46.90 14.27Q45.79 15.15 45.48 16.59ZM53.34 19.98L53.34 19.98Q54.38 19.98 54.38 20.91L54.38 20.91Q54.38 21.33 54.05 21.85Q53.73 22.37 53.11 22.82L53.11 22.82Q51.66 23.85 49.31 23.85Q46.96 23.85 45.23 22.27L45.23 22.27Q44.38 21.48 43.86 20.33Q43.35 19.18 43.35 17.81L43.35 17.81Q43.35 15.14 45.11 13.34Q46.86 11.54 49.54 11.54L49.54 11.54Q51.76 11.54 53.07 12.63Q54.38 13.71 54.38 15.29Q54.38 16.88 53.10 17.65Q51.82 18.43 48.25 18.43L48.25 18.43Q47.30 18.43 45.43 18.36L45.43 18.36Q45.64 20.18 46.84 21.09Q48.04 22.00 49.34 22.00Q50.64 22.00 51.39 21.71Q52.15 21.42 52.48 20.70Q52.82 19.98 53.34 19.98ZM60.21 23.60L57.98 23.67Q56.86 23.67 56.86 22.80L56.86 22.80Q56.86 22.38 57.21 22.15Q57.56 21.91 58.18 21.91L58.18 21.91L59.23 21.91L59.23 14.27Q59.23 13.57 58.92 13.57L58.92 13.57Q58.76 13.57 58.49 13.65Q58.22 13.73 57.83 13.73Q57.45 13.73 57.15 13.49Q56.86 13.24 56.86 12.82L56.86 12.82Q56.86 11.93 58.13 11.80L58.13 11.80Q58.79 11.74 59.37 11.60Q59.95 11.45 60.40 11.45L60.40 11.45Q61.25 11.45 61.25 12.57L61.25 12.57L61.25 14.11Q61.76 12.98 62.91 12.26Q64.05 11.54 65.33 11.54L65.33 11.54Q67.61 11.54 68.55 12.69Q69.50 13.84 69.50 15.79L69.50 15.79L69.50 21.91L70.29 21.91Q71.77 21.91 71.77 22.84L71.77 22.84Q71.77 23.17 71.48 23.42Q71.20 23.67 70.52 23.67L70.52 23.67L68.46 23.60L66.23 23.67Q65.11 23.67 65.11 22.80L65.11 22.80Q65.11 22.38 65.46 22.15Q65.81 21.91 66.43 21.91L66.43 21.91L67.45 21.91L67.45 16.55Q67.45 14.09 66.21 13.59L66.21 13.59Q65.78 13.42 65.17 13.42L65.17 13.42Q63.91 13.42 62.77 14.38Q61.63 15.34 61.25 16.82L61.25 16.82L61.25 21.91L62.04 21.91Q63.52 21.91 63.52 22.84L63.52 22.84Q63.52 23.17 63.23 23.42Q62.95 23.67 62.27 23.67L62.27 23.67L60.21 23.60ZM76.10 21.11L76.10 21.11Q77.24 22.00 78.87 22.00Q80.50 22.00 81.69 20.83Q82.88 19.66 82.88 17.69Q82.88 15.71 81.84 14.58Q80.80 13.44 79.05 13.44Q77.31 13.44 76.14 14.80L76.14 14.80L76.14 20.38Q76.14 20.78 76.10 21.11ZM75.60 22.89L75.60 22.89Q75.05 23.85 73.97 23.85Q72.90 23.85 72.90 22.85L72.90 22.85Q72.90 22.36 73.38 22.04Q73.85 21.73 73.98 21.18Q74.11 20.64 74.11 19.04L74.11 19.04L74.11 7.82Q74.11 7.36 74.03 7.24Q73.95 7.13 73.79 7.13L73.79 7.13L72.80 7.27Q72.33 7.27 72.04 7.03Q71.74 6.80 71.74 6.38L71.74 6.38Q71.74 5.48 73.01 5.36L73.01 5.36Q73.85 5.29 74.30 5.14Q74.75 4.99 75.23 4.99L75.23 4.99Q76.14 4.99 76.14 6.12L76.14 6.12L76.14 12.74Q77.40 11.54 79.24 11.54L79.24 11.54Q81.68 11.54 83.31 13.11Q84.94 14.68 84.94 17.48Q84.94 20.29 83.16 22.07Q81.38 23.85 78.62 23.85L78.62 23.85Q77.32 23.85 76.22 23.31L76.22 23.31Q75.87 23.13 75.60 22.89ZM95.80 21.47L95.80 21.47Q94.64 23.85 91.91 23.85L91.91 23.85Q91.02 23.85 90.26 23.53L90.26 23.53Q88.14 22.64 88.14 19.63L88.14 19.63L88.14 14.37Q88.14 13.69 87.83 13.69L87.83 13.69L86.96 13.83Q85.92 13.83 85.92 12.87L85.92 12.87Q85.92 12.01 87.05 11.91L87.05 11.91Q87.71 11.85 88.09 11.74L88.09 11.74L88.69 11.60Q88.91 11.54 89.32 11.54Q89.73 11.54 89.95 11.86Q90.18 12.18 90.18 12.67L90.18 12.67L90.18 18.87Q90.18 21.22 91.36 21.77L91.36 21.77Q91.79 21.97 92.38 21.97L92.38 21.97Q93.48 21.97 94.43 20.89Q95.38 19.82 95.77 18.26L95.77 18.26L95.77 14.37Q95.77 13.92 95.68 13.80Q95.60 13.69 95.45 13.69L95.45 13.69L94.63 13.83Q93.59 13.83 93.59 12.87L93.59 12.87Q93.59 12.01 94.73 11.91L94.73 11.91Q95.34 11.85 95.73 11.75L95.73 11.75L96.32 11.60Q96.53 11.54 96.94 11.54Q97.36 11.54 97.58 11.86Q97.79 12.18 97.79 12.67L97.79 12.67L97.79 19.04Q97.79 21.25 98.33 21.75L98.33 21.75Q98.50 21.90 98.77 22.01L98.77 22.01Q99.23 22.20 99.23 22.75L99.23 22.75Q99.23 23.85 97.93 23.85Q96.62 23.85 96.07 22.55L96.07 22.55Q95.87 22.09 95.80 21.47ZM107.89 23.67L107.89 23.67L104.86 23.60Q104.33 23.60 104.09 23.61L104.09 23.61L103.57 23.64Q102.98 23.67 102.54 23.67L102.54 23.67Q101.40 23.67 101.40 22.80L101.40 22.80Q101.40 22.38 101.76 22.15Q102.12 21.91 102.71 21.91L102.71 21.91L103.77 21.91L103.77 14.27Q103.77 13.57 103.46 13.57L103.46 13.57Q103.32 13.57 103.03 13.65Q102.73 13.73 102.36 13.73Q101.99 13.73 101.70 13.49Q101.40 13.24 101.40 12.82L101.40 12.82Q101.40 11.93 102.67 11.80L102.67 11.80Q103.45 11.73 103.95 11.59Q104.45 11.45 104.92 11.45L104.92 11.45Q105.80 11.45 105.80 12.57L105.80 12.57L105.80 14.38Q106.71 12.36 108.80 11.74L108.80 11.74Q109.46 11.54 110.13 11.54L110.13 11.54Q111.39 11.54 112.15 12.13Q112.92 12.73 112.92 13.83Q112.92 14.93 112.54 15.52Q112.15 16.10 111.50 16.10L111.50 16.10Q110.50 16.10 110.50 15.19L110.50 15.19Q110.50 15 110.53 14.88L110.53 14.88L110.63 14.63Q110.73 14.33 110.73 14.03L110.73 14.03Q110.73 13.36 109.59 13.36Q108.46 13.36 107.37 14.65Q106.29 15.94 105.80 18.05L105.80 18.05L105.80 21.91L107.70 21.91Q109.20 21.91 109.20 22.84L109.20 22.84Q109.20 23.17 108.91 23.42Q108.62 23.67 107.89 23.67ZM123.89 20.64L123.89 20.64L123.89 14.65Q123.89 14.47 123.91 14.31L123.91 14.31Q122.71 13.35 121.08 13.35Q119.45 13.35 118.28 14.63Q117.11 15.90 117.11 17.57L117.11 17.57Q117.11 19.72 118.17 20.86Q119.24 22.00 120.97 22.00Q122.71 22.00 123.89 20.64ZM124.42 12.52L124.42 12.52Q124.97 11.54 126.05 11.54Q127.13 11.54 127.13 12.56L127.13 12.56Q127.13 13.05 126.65 13.37Q126.18 13.68 126.05 14.23Q125.93 14.79 125.93 16.36L125.93 16.36L125.93 23.57Q125.93 26.46 124.49 28.15Q123.05 29.85 120.64 29.85L120.64 29.85Q118.68 29.85 117.53 28.98Q116.38 28.11 116.38 26.84L116.38 26.84Q116.38 25.92 116.87 25.29Q117.36 24.67 118.14 24.67L118.14 24.67Q118.59 24.67 118.97 24.97Q119.36 25.28 119.36 25.63Q119.36 25.98 119.24 26.13Q119.12 26.29 118.99 26.41Q118.85 26.54 118.69 26.65Q118.52 26.77 118.52 26.95L118.52 26.95Q118.52 27.39 119.03 27.67Q119.54 27.95 120.47 27.95L120.47 27.95Q122.14 27.95 123.02 26.84Q123.89 25.73 123.89 23.72L123.89 23.72L123.89 22.68Q122.59 23.85 120.77 23.85L120.77 23.85Q118.36 23.85 116.71 22.22Q115.05 20.59 115.05 17.81Q115.05 15.02 116.81 13.28Q118.57 11.54 121.28 11.54L121.28 11.54Q122.66 11.54 123.77 12.09L123.77 12.09Q124.14 12.27 124.42 12.52Z"/></svg>