<svg xmlns="http://www.w3.org/2000/svg" xmlns:xlink="http://www.w3.org/1999/xlink" width="278.808" height="30.096"><path fill="black" d="M4.63 15.05L6.79 8.45L7.25 6.34L8.42 6.14L11.78 15.02L14.88 22.42L16.90 22.90L16.78 23.86L13.85 23.62L10.20 23.86L10.25 22.90L12.22 22.42L10.54 17.86L7.63 17.76L4.87 17.86L3.31 22.42L5.14 22.90L5.02 23.86L2.09 23.62L-0.12 23.86L-0.07 22.90L1.80 22.42L4.63 15.05ZM7.54 9.29L7.49 9.29L5.30 16.54L7.63 16.63L10.06 16.54L8.52 12.70L7.54 9.29ZM21.12 5.74L20.95 8.90L20.81 17.30L20.88 19.63L21.07 22.42L22.82 22.90L22.70 23.74L19.78 23.62L16.85 23.74L16.90 22.90L18.48 22.42L18.60 19.90L18.70 14.64L18.55 9.29L18.43 6.89L16.73 6.96L16.61 6.12L19.92 5.47L21.12 5.74ZM24.60 7.56L25.18 6.62L26.28 6.10L27.43 6.48L27.96 7.78L27.29 8.83L26.16 9.29L25.10 8.64L24.60 7.56ZM28.06 11.64L27.89 14.90L27.74 17.30L27.82 19.63L27.91 22.42L29.66 22.90L29.54 23.74L26.71 23.62L23.78 23.74L23.83 22.90L25.42 22.42L25.54 19.90L25.49 15.29L25.37 12.79L23.66 12.86L23.54 12.02L26.86 11.38L28.06 11.64ZM35.21 16.99L37.73 14.21L38.83 12.60L37.22 12.34L37.34 11.50L39.86 11.62L42.07 11.50L42.02 12.34L40.34 12.86L36.91 16.56L38.90 19.37L41.38 22.42L42.79 22.90L42.67 23.74L40.18 23.62L37.90 23.74L37.94 22.90L39.10 22.82L38.45 21.62L35.66 17.93L34.49 17.93L34.54 19.63L34.58 22.42L36.24 22.90L36.10 23.74L33.43 23.62L30.36 23.74L30.46 22.90L32.14 22.49L32.21 19.90L32.30 14.64L32.21 9.29L32.09 6.89L30.38 6.96L30.26 6.12L33.58 5.47L34.78 5.74L34.61 8.90L34.46 16.99L35.21 16.99ZM49.49 17.42L45.34 17.16L45.31 17.38L45.96 20.76L47.86 22.63L50.06 22.87L52.32 21.67L52.75 22.30L50.86 23.81L48.60 24.10L46.25 23.54L44.21 21.84L42.98 18.24L43.39 15.02L44.64 12.77L47.16 11.38L49.27 11.11L50.95 11.64L52.25 12.82L52.99 14.95L53.02 16.94L52.68 17.21L49.49 17.42ZM48.36 12.19L46.54 13.27L45.60 15.10L45.46 16.18L49.10 16.22L50.76 15.86L50.62 13.63L49.90 12.41L48.36 12.19ZM64.20 15.05L66.36 8.45L66.82 6.34L67.99 6.14L71.35 15.02L74.45 22.42L76.46 22.90L76.34 23.86L73.42 23.62L69.77 23.86L69.82 22.90L71.78 22.42L70.10 17.86L67.20 17.76L64.44 17.86L62.88 22.42L64.70 22.90L64.58 23.86L61.66 23.62L59.45 23.86L59.50 22.90L61.37 22.42L64.20 15.05ZM67.10 9.29L67.06 9.29L64.87 16.54L67.20 16.63L69.62 16.54L68.09 12.70L67.10 9.29ZM88.39 19.63L88.58 22.44L90.29 22.90L90.17 23.74L87.34 23.62L84.41 23.74L84.46 22.90L86.04 22.42L86.21 19.90L86.11 14.66L85.46 13.08L83.42 12.72L80.81 14.06L80.76 14.90L80.62 17.30L80.66 19.63L80.78 22.42L82.54 22.90L82.42 23.74L79.58 23.62L76.66 23.74L76.70 22.90L78.29 22.42L78.46 19.90L78.24 12.79L76.54 12.86L76.42 12.02L79.73 11.38L80.93 11.64L80.86 12.86L83.42 11.30L85.87 11.14L88.08 12.65L88.44 14.57L88.39 19.63ZM99.10 11.86L102.17 9.84L102.94 11.45L101.93 12.07L99.94 12.34L101.62 14.40L101.59 16.73L100.25 18.72L97.32 19.68L94.78 19.32L94.34 19.94L94.25 20.62L94.92 21.05L99.05 21.70L100.66 22.06L102.26 23.21L102.46 26.06L101.35 27.72L98.66 28.94L94.87 29.06L93.22 28.56L91.85 27.36L91.34 25.63L92.06 23.54L93.70 22.78L92.83 21.96L92.83 20.30L93.91 19.03L91.87 17.45L91.63 14.40L93.62 12.10L96.67 11.38L99.10 11.86ZM94.42 17.78L96 18.65L97.97 18.38L99.24 17.02L99.43 14.66L98.38 12.86L96.62 12.34L94.32 13.30L93.65 15.41L94.42 17.78ZM100.63 24.60L97.30 23.47L94.51 23.09L93.43 24.26L93.29 26.04L94.37 27.60L97.08 28.01L99.94 26.93L100.63 24.60ZM107.52 11.64L107.38 15.34L107.38 20.57L108.02 22.15L110.04 22.42L112.66 20.86L112.66 18.31L112.63 15.31L112.51 12.82L110.81 12.89L110.69 12.05L114.00 11.40L115.20 11.66L115.03 14.93L115.01 16.85L115.06 18.31L115.06 22.63L116.74 23.11L116.62 23.95L113.33 23.95L112.78 21.94L110.06 23.93L107.62 24.10L105.41 22.58L105.05 20.66L105.07 15.53L104.83 12.79L103.13 12.86L103.01 12.02L106.32 11.38L107.52 11.64ZM121.85 5.74L121.68 8.90L121.54 17.30L121.61 19.63L121.80 22.42L123.55 22.90L123.43 23.74L120.50 23.62L117.58 23.74L117.62 22.90L119.21 22.42L119.33 19.90L119.42 14.64L119.28 9.29L119.16 6.89L117.46 6.96L117.34 6.12L120.65 5.47L121.85 5.74ZM126.82 20.33L127.46 22.27L129.26 22.73L131.69 21.34L131.59 18.10L129.50 18.10L127.66 18.84L126.82 20.33ZM133.63 14.11L133.66 19.25L133.82 22.63L135.48 22.87L135.31 23.66L131.98 23.95L131.66 22.54L131.54 22.54L129.17 23.95L126.67 23.95L124.99 22.73L124.49 20.38L125.54 18.50L128.42 17.26L131.59 17.14L131.50 14.14L131.04 12.65L129.10 12.10L126.77 12.65L126.70 15.19L125.76 15.38L125.14 12.10L127.90 11.28L130.99 11.14L132.86 12.05L133.63 14.11ZM140.69 11.64L140.59 13.58L140.69 13.58L142.18 11.88L143.81 11.16L145.61 11.62L145.20 15.19L144.36 15.02L143.76 12.55L142.20 13.06L140.50 15.05L140.38 17.30L140.45 19.63L140.54 22.42L142.94 22.90L142.82 23.74L139.34 23.62L136.42 23.74L136.46 22.90L138.05 22.42L138.17 19.90L138.12 15.29L138 12.79L136.30 12.86L136.18 12.02L139.49 11.38L140.69 11.64ZM160.03 9.29L159.96 9.29L158.52 11.64L156.05 15.34L154.42 17.21L160.06 17.18L159.91 12.14L160.03 9.29ZM159.84 22.49L160.01 21.05L160.01 18.62L152.76 18.86L152.47 17.81L155.23 14.21L160.51 6.34L162.17 5.90L162.43 6.77L162.19 8.11L162.19 14.66L162.31 17.09L164.81 16.94L164.57 18.94L162.19 18.77L162.19 21.24L162.31 22.42L164.04 22.90L163.92 23.74L160.99 23.62L158.04 23.74L158.09 22.90L159.84 22.49ZM177.36 21.14L176.02 22.90L173.59 23.90L171.53 23.90L168.62 22.61L166.87 19.54L166.44 16.94L166.44 12.96L168.19 8.90L170.95 6.58L173.50 6.48L175.56 7.37L177.72 9.86L178.61 14.69L178.44 18.41L177.36 21.14ZM173.45 7.49L171.34 7.68L169.82 9.91L168.86 14.23L169.32 18.74L170.14 21.58L171.67 22.92L173.38 22.92L174.89 21.79L175.61 19.61L176.09 15.26L175.32 9.58L173.45 7.49ZM192 21.14L190.66 22.90L188.23 23.90L186.17 23.90L183.26 22.61L181.51 19.54L181.08 16.94L181.08 12.96L182.83 8.90L185.59 6.58L188.14 6.48L190.20 7.37L192.36 9.86L193.25 14.69L193.08 18.41L192 21.14ZM188.09 7.49L185.98 7.68L184.46 9.91L183.50 14.23L183.96 18.74L184.78 21.58L186.31 22.92L188.02 22.92L189.53 21.79L190.25 19.61L190.73 15.26L189.96 9.58L188.09 7.49ZM212.59 19.63L212.78 22.44L214.49 22.90L214.37 23.74L211.54 23.62L208.61 23.74L208.66 22.90L210.24 22.42L210.41 19.90L210.31 14.66L209.66 13.08L207.62 12.72L205.01 14.06L204.96 14.90L204.82 17.30L204.86 19.63L204.98 22.42L206.74 22.90L206.62 23.74L203.78 23.62L200.86 23.74L200.90 22.90L202.49 22.42L202.66 19.90L202.44 12.79L200.74 12.86L200.62 12.02L203.93 11.38L205.13 11.64L205.06 12.86L207.62 11.30L210.07 11.14L212.28 12.65L212.64 14.57L212.59 19.63ZM216.38 21.43L215.59 19.06L215.59 15.91L217.01 13.06L219.72 11.26L223.01 11.14L226.01 12.94L227.57 15.82L227.28 20.21L225.50 23.04L221.78 24.10L218.66 23.50L216.38 21.43ZM219.74 12.48L218.23 15.10L218.11 17.78L218.40 20.57L219.43 22.37L221.98 22.99L224.33 21.96L225.02 18.22L224.78 15.10L223.90 13.10L222.14 12.22L219.74 12.48ZM233.42 11.64L233.33 13.58L233.42 13.58L234.91 11.88L236.54 11.16L238.34 11.62L237.94 15.19L237.10 15.02L236.50 12.55L234.94 13.06L233.23 15.05L233.11 17.30L233.18 19.63L233.28 22.42L235.68 22.90L235.56 23.74L232.08 23.62L229.15 23.74L229.20 22.90L230.78 22.42L230.90 19.90L230.86 15.29L230.74 12.79L229.03 12.86L228.91 12.02L232.22 11.38L233.42 11.64ZM250.99 19.63L251.18 22.44L252.89 22.90L252.77 23.74L249.94 23.62L247.01 23.74L247.06 22.90L248.64 22.42L248.81 19.90L248.71 14.66L248.06 13.08L246.02 12.72L243.65 13.99L243.60 14.90L243.46 17.30L243.50 19.63L243.62 22.42L245.38 22.90L245.26 23.74L242.42 23.62L239.50 23.74L239.54 22.90L241.13 22.42L241.30 19.90L241.20 15.29L241.08 12.79L239.38 12.86L239.26 12.02L242.57 11.38L243.77 11.64L243.70 12.77L246.02 11.30L248.47 11.14L250.68 12.65L250.80 13.30L253.20 11.30L255.65 11.14L257.86 12.65L258.22 14.57L258.17 19.63L258.36 22.44L260.06 22.90L259.94 23.74L257.11 23.62L254.18 23.74L254.23 22.90L255.82 22.42L255.98 19.90L255.89 14.66L255.24 13.08L253.20 12.72L250.99 14.33L251.04 14.57L250.99 19.63ZM263.18 20.33L263.83 22.27L265.63 22.73L268.06 21.34L267.96 18.10L265.87 18.10L264.02 18.84L263.18 20.33ZM270.00 14.11L270.02 19.25L270.19 22.63L271.85 22.87L271.68 23.66L268.34 23.95L268.03 22.54L267.91 22.54L265.54 23.95L263.04 23.95L261.36 22.73L260.86 20.38L261.91 18.50L264.79 17.26L267.96 17.14L267.86 14.14L267.41 12.65L265.46 12.10L263.14 12.65L263.06 15.19L262.13 15.38L261.50 12.10L264.26 11.28L267.36 11.14L269.23 12.05L270.00 14.11ZM276.82 5.74L276.65 8.90L276.50 17.30L276.58 19.63L276.77 22.42L278.52 22.90L278.40 23.74L275.47 23.62L272.54 23.74L272.59 22.90L274.18 22.42L274.30 19.90L274.39 14.64L274.25 9.29L274.13 6.89L272.42 6.96L272.30 6.12L275.62 5.47L276.82 5.74Z"/></svg>