<svg xmlns="http://www.w3.org/2000/svg" xmlns:xlink="http://www.w3.org/1999/xlink" width="353.99999999999994" height="50.688"><path fill="black" d="M11.81 32.98L2.57 32.98L2.57 15.84L11.81 15.84L11.81 32.98ZM3.14 16.42L3.14 32.40L11.23 32.40L11.23 16.42L3.14 16.42ZM26.21 32.98L16.97 32.98L16.97 15.84L26.21 15.84L26.21 32.98ZM17.54 16.42L17.54 32.40L25.63 32.40L25.63 16.42L17.54 16.42ZM40.61 32.98L31.37 32.98L31.37 15.84L40.61 15.84L40.61 32.98ZM31.94 16.42L31.94 32.40L40.03 32.40L40.03 16.42L31.94 16.42ZM55.01 32.98L45.77 32.98L45.77 15.84L55.01 15.84L55.01 32.98ZM46.34 16.42L46.34 32.40L54.43 32.40L54.43 16.42L46.34 16.42ZM75.65 32.98L66.41 32.98L66.41 15.84L75.65 15.84L75.65 32.98ZM66.98 16.42L66.98 32.40L75.07 32.40L75.07 16.42L66.98 16.42ZM90.05 32.98L80.81 32.98L80.81 15.84L90.05 15.84L90.05 32.98ZM81.38 16.42L81.38 32.40L89.47 32.40L89.47 16.42L81.38 16.42ZM104.45 32.98L95.21 32.98L95.21 15.84L104.45 15.84L104.45 32.98ZM95.78 16.42L95.78 32.40L103.87 32.40L103.87 16.42L95.78 16.42ZM118.85 32.98L109.61 32.98L109.61 15.84L118.85 15.84L118.85 32.98ZM110.18 16.42L110.18 32.40L118.27 32.40L118.27 16.42L110.18 16.42ZM139.49 32.98L130.25 32.98L130.25 15.84L139.49 15.84L139.49 32.98ZM130.82 16.42L130.82 32.40L138.91 32.40L138.91 16.42L130.82 16.42ZM153.89 32.98L144.65 32.98L144.65 15.84L153.89 15.84L153.89 32.98ZM145.22 16.42L145.22 32.40L153.31 32.40L153.31 16.42L145.22 16.42ZM168.29 32.98L159.05 32.98L159.05 15.84L168.29 15.84L168.29 32.98ZM159.62 16.42L159.62 32.40L167.71 32.40L167.71 16.42L159.62 16.42ZM182.69 32.98L173.45 32.98L173.45 15.84L182.69 15.84L182.69 32.98ZM174.02 16.42L174.02 32.40L182.11 32.40L182.11 16.42L174.02 16.42ZM197.09 32.98L187.85 32.98L187.85 15.84L197.09 15.84L197.09 32.98ZM188.42 16.42L188.42 32.40L196.51 32.40L196.51 16.42L188.42 16.42ZM211.49 32.98L202.25 32.98L202.25 15.84L211.49 15.84L211.49 32.98ZM202.82 16.42L202.82 32.40L210.91 32.40L210.91 16.42L202.82 16.42ZM228.00 15.84L228.00 32.98L227.38 32.98L227.38 19.46Q227.38 18.77 227.38 18.24Q227.38 17.71 227.39 17.28Q227.40 16.85 227.40 16.54L227.40 16.54Q227.11 16.78 226.84 17.00Q226.56 17.23 226.10 17.57L226.10 17.57L223.15 19.75L222.77 19.25L227.45 15.84L228.00 15.84ZM246.17 24.34L246.17 24.34Q246.17 26.57 245.84 28.24Q245.52 29.90 244.86 31.01Q244.20 32.11 243.20 32.66Q242.21 33.22 240.84 33.22L240.84 33.22Q239.11 33.22 237.91 32.27Q236.71 31.32 236.10 29.35Q235.49 27.38 235.49 24.34L235.49 24.34Q235.49 21.79 235.99 19.82Q236.50 17.86 237.67 16.72Q238.85 15.58 240.86 15.58L240.86 15.58Q242.95 15.58 244.10 16.68Q245.26 17.78 245.71 19.75Q246.17 21.72 246.17 24.34ZM236.14 24.34L236.14 24.34Q236.14 27.14 236.66 28.98Q237.19 30.82 238.24 31.72Q239.28 32.62 240.84 32.62L240.84 32.62Q242.50 32.62 243.53 31.72Q244.56 30.82 245.04 28.98Q245.52 27.14 245.52 24.34L245.52 24.34Q245.52 21.89 245.12 20.05Q244.73 18.22 243.72 17.20Q242.71 16.18 240.86 16.18L240.86 16.18Q239.06 16.18 238.03 17.23Q237.00 18.29 236.57 20.12Q236.14 21.96 236.14 24.34ZM259.85 24.34L259.85 24.34Q259.85 26.57 259.52 28.24Q259.20 29.90 258.54 31.01Q257.88 32.11 256.88 32.66Q255.89 33.22 254.52 33.22L254.52 33.22Q252.79 33.22 251.59 32.27Q250.39 31.32 249.78 29.35Q249.17 27.38 249.17 24.34L249.17 24.34Q249.17 21.79 249.67 19.82Q250.18 17.86 251.35 16.72Q252.53 15.58 254.54 15.58L254.54 15.58Q256.63 15.58 257.78 16.68Q258.94 17.78 259.39 19.75Q259.85 21.72 259.85 24.34ZM249.82 24.34L249.82 24.34Q249.82 27.14 250.34 28.98Q250.87 30.82 251.92 31.72Q252.96 32.62 254.52 32.62L254.52 32.62Q256.18 32.62 257.21 31.72Q258.24 30.82 258.72 28.98Q259.20 27.14 259.20 24.34L259.20 24.34Q259.20 21.89 258.80 20.05Q258.41 18.22 257.40 17.20Q256.39 16.18 254.54 16.18L254.54 16.18Q252.74 16.18 251.71 17.23Q250.68 18.29 250.25 20.12Q249.82 21.96 249.82 24.34ZM279.41 32.98L270.17 32.98L270.17 15.84L279.41 15.84L279.41 32.98ZM270.74 16.42L270.74 32.40L278.83 32.40L278.83 16.42L270.74 16.42ZM293.81 32.98L284.57 32.98L284.57 15.84L293.81 15.84L293.81 32.98ZM285.14 16.42L285.14 32.40L293.23 32.40L293.23 16.42L285.14 16.42ZM308.21 32.98L298.97 32.98L298.97 15.84L308.21 15.84L308.21 32.98ZM299.54 16.42L299.54 32.40L307.63 32.40L307.63 16.42L299.54 16.42ZM322.61 32.98L313.37 32.98L313.37 15.84L322.61 15.84L322.61 32.98ZM313.94 16.42L313.94 32.40L322.03 32.40L322.03 16.42L313.94 16.42ZM337.01 32.98L327.77 32.98L327.77 15.84L337.01 15.84L337.01 32.98ZM328.34 16.42L328.34 32.40L336.43 32.40L336.43 16.42L328.34 16.42ZM351.41 32.98L342.17 32.98L342.17 15.84L351.41 15.84L351.41 32.98ZM342.74 16.42L342.74 32.40L350.83 32.40L350.83 16.42L342.74 16.42Z"/></svg>