<svg xmlns="http://www.w3.org/2000/svg" xmlns:xlink="http://www.w3.org/1999/xlink" width="378.9840000000001" height="45.216"><path fill="black" d="M3.36 33.98L3.36 33.98Q2.23 33.98 2.35 33.29L2.35 33.29L6.38 10.85Q6.46 10.51 6.74 10.36Q7.03 10.20 7.56 10.20L7.56 10.20L12.07 10.20Q14.54 10.20 16.20 10.78Q17.86 11.35 18.70 12.55Q19.54 13.75 19.54 15.65L19.54 15.65Q19.54 17.62 18.79 19.08Q18.05 20.54 16.74 21.54Q15.43 22.54 13.70 23.14Q11.98 23.74 10.01 24.00L10.01 24.00Q9 24.14 7.98 24.20Q6.96 24.26 6.10 24.29L6.10 24.29L4.46 33.31Q4.42 33.65 4.15 33.82Q3.89 33.98 3.36 33.98ZM8.28 12.12L6.43 22.37Q7.01 22.37 7.67 22.33Q8.33 22.30 9 22.24Q9.67 22.18 10.32 22.08L10.32 22.08Q12.41 21.74 13.99 20.99Q15.58 20.23 16.46 18.95Q17.35 17.66 17.35 15.79L17.35 15.79Q17.35 14.47 16.76 13.67Q16.18 12.86 14.96 12.49Q13.75 12.12 11.88 12.12L11.88 12.12L8.28 12.12ZM14.78 34.06L14.78 34.06Q14.33 34.06 14.16 33.78Q13.99 33.50 14.05 33.16Q14.11 32.81 14.36 32.53Q14.62 32.26 15.02 32.26L15.02 32.26Q15.62 32.26 16.40 31.86Q17.18 31.46 18.10 30.73Q19.01 30.00 19.99 28.99Q20.98 27.98 21.97 26.78Q22.97 25.58 23.89 24.24Q24.82 22.90 25.60 21.48Q26.38 20.06 26.98 18.64Q27.58 17.21 27.91 15.83Q28.25 14.45 28.25 13.20L28.25 13.20Q28.25 12.84 28.55 12.66Q28.85 12.48 29.26 12.48Q29.66 12.48 29.96 12.66Q30.26 12.84 30.26 13.20L30.26 13.20Q30.26 14.42 29.89 15.84Q29.52 17.26 28.86 18.78Q28.20 20.30 27.30 21.85Q26.40 23.40 25.34 24.90Q24.29 26.40 23.15 27.77Q22.01 29.14 20.86 30.28Q19.70 31.42 18.61 32.27Q17.52 33.12 16.55 33.59Q15.58 34.06 14.78 34.06ZM22.58 34.03L22.58 34.03Q21.84 34.03 21.43 33.73Q21.02 33.43 20.86 32.96Q20.69 32.50 20.71 31.90Q20.74 31.30 20.83 30.67L20.83 30.67L23.54 15.14Q24.05 12.29 25.03 10.99Q26.02 9.70 27.60 9.70L27.60 9.70Q28.42 9.70 29.02 10.13Q29.62 10.56 29.94 11.34Q30.26 12.12 30.26 13.20L30.26 13.20Q30.26 13.66 29.96 13.87Q29.66 14.09 29.26 14.09Q28.85 14.09 28.55 13.87Q28.25 13.66 28.25 13.20L28.25 13.20Q28.25 12.70 28.16 12.35Q28.08 12.00 27.90 11.81Q27.72 11.62 27.38 11.62L27.38 11.62Q27 11.62 26.68 11.98Q26.35 12.34 26.09 13.20Q25.82 14.06 25.54 15.62L25.54 15.62L22.70 31.15Q22.66 31.56 22.66 31.79Q22.66 32.02 22.75 32.10Q22.85 32.18 22.99 32.18L22.99 32.18Q23.21 32.18 23.42 32.04Q23.64 31.90 23.88 31.62Q24.12 31.34 24.38 30.91L24.38 30.91Q24.55 30.70 24.74 30.64Q24.94 30.58 25.22 30.74L25.22 30.74Q25.61 30.94 25.70 31.16Q25.80 31.39 25.70 31.61L25.70 31.61Q25.44 32.16 25.01 32.72Q24.58 33.29 23.96 33.66Q23.35 34.03 22.58 34.03ZM32.18 34.06L32.18 34.06Q31.20 34.06 30.46 33.52Q29.71 32.98 29.32 31.96Q28.92 30.94 28.92 29.54L28.92 29.54Q28.92 28.37 29.21 27.18Q29.50 25.99 30.07 24.92Q30.65 23.86 31.48 23.02Q32.30 22.18 33.38 21.68Q34.46 21.19 35.78 21.19L35.78 21.19Q36.53 21.19 37.26 21.37Q37.99 21.55 38.71 21.89L38.71 21.89L38.71 21.82Q38.78 21.53 39.04 21.41Q39.29 21.29 39.74 21.29L39.74 21.29Q40.39 21.29 40.62 21.48Q40.85 21.67 40.75 22.08L40.75 22.08L39.10 31.15Q39 31.56 39.02 31.79Q39.05 32.02 39.14 32.10Q39.24 32.18 39.38 32.18L39.38 32.18Q39.62 32.18 39.83 32.04Q40.03 31.90 40.27 31.62Q40.51 31.34 40.78 30.91L40.78 30.91Q40.92 30.70 41.12 30.64Q41.33 30.58 41.62 30.74L41.62 30.74Q41.98 30.94 42.10 31.16Q42.22 31.39 42.10 31.66L42.10 31.66Q41.88 32.16 41.45 32.71Q41.02 33.26 40.40 33.65Q39.79 34.03 39 34.03L39 34.03Q38.26 34.03 37.84 33.73Q37.42 33.43 37.24 32.94Q37.06 32.45 37.07 31.86Q37.08 31.27 37.20 30.67L37.20 30.67Q37.22 30.48 37.22 30.25Q37.22 30.02 37.25 29.78L37.25 29.78Q36.48 31.18 35.64 32.14Q34.80 33.10 33.92 33.58Q33.05 34.06 32.18 34.06ZM31.08 29.30L31.08 29.30Q31.08 30.14 31.25 30.78Q31.42 31.42 31.79 31.78Q32.16 32.14 32.71 32.14L32.71 32.14Q33.58 32.14 34.54 31.24Q35.50 30.34 36.44 28.64Q37.39 26.95 38.23 24.58L38.23 24.58L38.40 23.69Q37.63 23.33 36.96 23.21Q36.29 23.09 35.74 23.09L35.74 23.09Q34.87 23.09 34.13 23.45Q33.38 23.81 32.82 24.43Q32.26 25.06 31.87 25.86Q31.49 26.66 31.28 27.55Q31.08 28.44 31.08 29.30ZM53.16 35.47L53.30 33.31Q53.76 32.98 54.20 32.65Q54.65 32.33 55.06 32.05Q55.46 31.78 55.82 31.55Q56.18 31.32 56.45 31.15L56.45 31.15Q56.83 30.94 57.08 31.06Q57.34 31.18 57.44 31.49Q57.55 31.80 57.47 32.12Q57.38 32.45 57.12 32.64L57.12 32.64Q56.69 32.90 56.21 33.25Q55.73 33.60 55.21 33.97Q54.70 34.34 54.18 34.73Q53.66 35.11 53.16 35.47L53.16 35.47ZM47.78 45.60L47.78 45.60Q46.90 45.60 46.22 45.24Q45.55 44.88 45.17 44.24Q44.78 43.61 44.78 42.82L44.78 42.82Q44.78 42 45.07 41.20Q45.36 40.39 45.94 39.58Q46.51 38.76 47.39 37.87Q48.26 36.98 49.49 35.98L49.49 35.98Q50.11 35.52 50.72 35.08Q51.34 34.63 51.96 34.15L51.96 34.15L52.85 29.14Q52.25 30.38 51.55 31.31Q50.86 32.23 50.11 32.83Q49.37 33.43 48.62 33.73Q47.88 34.03 47.16 34.03L47.16 34.03Q46.15 34.03 45.49 33.58Q44.83 33.12 44.59 32.15Q44.35 31.18 44.64 29.66L44.64 29.66L45.98 21.98Q46.08 21.58 46.31 21.43Q46.54 21.29 47.02 21.29L47.02 21.29Q47.66 21.29 47.90 21.48Q48.14 21.67 48.05 22.08L48.05 22.08L46.63 29.86Q46.51 30.53 46.54 31.04Q46.56 31.56 46.84 31.85Q47.11 32.14 47.74 32.14L47.74 32.14Q48.58 32.14 49.44 31.46Q50.30 30.79 51.13 29.57Q51.96 28.34 52.70 26.69Q53.45 25.03 54.05 23.06L54.05 23.06L54.12 21.98Q54.22 21.58 54.46 21.43Q54.70 21.29 55.18 21.29L55.18 21.29Q55.82 21.29 56.05 21.48Q56.28 21.67 56.18 22.08L56.18 22.08L53.14 39.29Q52.82 40.90 52.36 42.08Q51.89 43.27 51.23 44.05Q50.57 44.83 49.70 45.22Q48.84 45.60 47.78 45.60ZM48.05 43.73L48.05 43.73Q48.60 43.73 49.08 43.44Q49.56 43.15 49.93 42.59Q50.30 42.02 50.59 41.16Q50.88 40.30 51.07 39.19L51.07 39.19L51.50 36.70Q51.17 36.94 50.82 37.20Q50.47 37.46 50.11 37.70L50.11 37.70Q49.25 38.45 48.64 39.10Q48.02 39.74 47.65 40.33Q47.28 40.92 47.10 41.46Q46.92 42 46.92 42.53L46.92 42.53Q46.92 42.86 47.05 43.14Q47.18 43.42 47.44 43.57Q47.69 43.73 48.05 43.73ZM62.71 34.10L62.71 34.10Q61.80 34.10 61.21 33.74Q60.62 33.38 60.31 32.74Q60 32.09 59.96 31.22Q59.93 30.36 60.12 29.38L60.12 29.38L61.32 21.98Q61.39 21.67 61.61 21.47Q61.82 21.26 62.40 21.26L62.40 21.26Q63.10 21.26 63.29 21.48Q63.48 21.70 63.41 22.06L63.41 22.06L62.14 29.30Q61.99 30.10 61.98 30.76Q61.97 31.42 62.22 31.80Q62.47 32.18 63.14 32.18L63.14 32.18Q63.82 32.18 64.48 31.67Q65.14 31.15 65.70 30.29Q66.26 29.42 66.73 28.40Q67.20 27.38 67.49 26.35L67.49 26.35L68.30 21.98Q68.38 21.67 68.59 21.47Q68.81 21.26 69.36 21.26L69.36 21.26Q70.06 21.26 70.24 21.48Q70.42 21.70 70.34 22.06L70.34 22.06L69.22 28.94Q69.14 29.50 69.12 30.07Q69.10 30.65 69.20 31.13Q69.31 31.61 69.61 31.90Q69.91 32.18 70.49 32.18L70.49 32.18Q71.16 32.18 71.82 31.74Q72.48 31.30 73.04 30.54Q73.61 29.78 74.03 28.85Q74.45 27.91 74.69 26.92Q74.93 25.92 74.93 25.01L74.93 25.01Q74.93 24.62 74.88 24.23Q74.83 23.83 74.72 23.41Q74.62 22.99 74.42 22.58L74.42 22.58Q74.26 22.15 74.34 21.84Q74.42 21.53 74.69 21.36Q74.95 21.19 75.34 21.19L75.34 21.19Q75.77 21.19 76.04 21.48Q76.32 21.77 76.49 22.30L76.49 22.30Q76.68 22.70 76.80 23.09Q76.92 23.47 76.97 23.87Q77.02 24.26 77.02 24.70L77.02 24.70Q77.02 25.90 76.69 27.19Q76.37 28.49 75.76 29.72Q75.14 30.96 74.30 31.94Q73.46 32.93 72.40 33.52Q71.33 34.10 70.08 34.10L70.08 34.10Q69.05 34.10 68.38 33.70Q67.70 33.29 67.37 32.53Q67.03 31.78 66.94 30.79L66.94 30.79Q66.41 31.78 65.76 32.52Q65.11 33.26 64.36 33.68Q63.60 34.10 62.71 34.10ZM80.76 34.01L80.76 34.01Q80.30 34.01 80.00 33.84Q79.70 33.67 79.80 33.29L79.80 33.29L81.82 21.98Q81.91 21.58 82.14 21.43Q82.37 21.29 82.85 21.29L82.85 21.29Q83.50 21.29 83.74 21.48Q83.98 21.67 83.88 22.08L83.88 22.08L83.18 26.04Q83.78 24.82 84.44 23.90Q85.10 22.99 85.75 22.39Q86.40 21.79 87.01 21.49Q87.62 21.19 88.15 21.19L88.15 21.19Q88.78 21.19 89.32 21.49Q89.86 21.79 90.14 22.22L90.14 22.22Q90.31 22.44 90.26 22.70Q90.22 22.97 90 23.23L90 23.23Q89.76 23.54 89.51 23.64Q89.26 23.74 89.04 23.54L89.04 23.54Q88.78 23.38 88.50 23.24Q88.22 23.11 87.91 23.11L87.91 23.11Q87.31 23.11 86.52 23.77Q85.73 24.43 84.90 25.64Q84.07 26.86 83.32 28.50Q82.56 30.14 81.98 32.11L81.98 32.11L81.86 33.38Q81.82 33.70 81.55 33.85Q81.29 34.01 80.76 34.01ZM93.05 34.03L93.05 34.03Q91.80 34.03 91.36 33.14Q90.91 32.26 91.30 30.53L91.30 30.53L92.71 21.98Q92.81 21.58 93.04 21.43Q93.26 21.29 93.74 21.29L93.74 21.29Q94.39 21.29 94.63 21.48Q94.87 21.67 94.78 22.08L94.78 22.08L93.14 31.15Q93.05 31.70 93.13 31.94Q93.22 32.18 93.53 32.18L93.53 32.18Q93.72 32.18 93.89 32.05Q94.06 31.92 94.28 31.64Q94.51 31.37 94.80 30.91L94.80 30.91Q94.94 30.70 95.15 30.65Q95.35 30.60 95.64 30.74L95.64 30.74Q96 30.94 96.12 31.16Q96.24 31.39 96.10 31.61L96.10 31.61Q95.69 32.40 95.22 32.94Q94.75 33.48 94.21 33.76Q93.67 34.03 93.05 34.03ZM94.54 17.59L94.54 17.59Q93.96 17.59 93.62 17.26Q93.29 16.92 93.29 16.25L93.29 16.25Q93.29 15.55 93.67 15.06Q94.06 14.57 94.85 14.57L94.85 14.57Q95.42 14.57 95.76 14.90Q96.10 15.24 96.10 15.94L96.10 15.94Q96.10 16.63 95.71 17.11Q95.33 17.59 94.54 17.59ZM94.32 34.06L94.32 34.06Q93.98 34.06 93.84 33.78Q93.70 33.50 93.74 33.16Q93.79 32.81 94.02 32.53Q94.25 32.26 94.63 32.26L94.63 32.26Q95.18 32.26 95.95 31.58Q96.72 30.91 97.63 29.71Q98.54 28.51 99.53 26.95Q100.51 25.39 101.50 23.62Q102.48 21.84 103.39 20.00Q104.30 18.17 105.10 16.40Q105.89 14.64 106.48 13.13Q107.06 11.62 107.38 10.51L107.38 10.51Q107.47 10.08 107.70 9.94Q107.93 9.79 108.43 9.79L108.43 9.79Q109.08 9.79 109.31 9.98Q109.54 10.18 109.44 10.58L109.44 10.58L105.79 31.03Q106.75 30.77 107.74 30.14Q108.72 29.52 109.92 28.45Q111.12 27.38 112.61 25.80L112.61 25.80Q112.73 25.66 112.94 25.60Q113.16 25.54 113.45 25.78L113.45 25.78Q113.76 26.02 113.77 26.23Q113.78 26.45 113.62 26.59L113.62 26.59Q112.42 27.89 111.14 29.12Q109.87 30.36 108.49 31.31Q107.11 32.26 105.53 32.62L105.53 32.62L105.38 33.38Q105.34 33.70 105.08 33.85Q104.83 34.01 104.28 34.01L104.28 34.01Q103.85 34.01 103.56 33.84Q103.27 33.67 103.34 33.29L103.34 33.29L103.42 32.76Q102.72 32.69 102.12 32.45Q101.52 32.21 101.16 31.78Q100.80 31.34 100.80 30.72L100.80 30.72Q100.80 30.02 101.30 29.54Q101.81 29.06 102.60 29.06L102.60 29.06Q103.01 29.06 103.36 29.20Q103.70 29.33 103.97 29.54L103.97 29.54L106.10 17.45Q105.26 19.49 104.32 21.50Q103.37 23.52 102.36 25.37Q101.35 27.22 100.31 28.80Q99.26 30.38 98.24 31.56Q97.22 32.74 96.23 33.40Q95.23 34.06 94.32 34.06ZM102.46 30.74L102.46 30.74Q102.46 30.86 102.58 30.98Q102.70 31.10 102.96 31.18Q103.22 31.25 103.66 31.27L103.66 31.27Q103.63 30.86 103.36 30.66Q103.08 30.46 102.84 30.46L102.84 30.46Q102.46 30.46 102.46 30.74ZM117.60 34.10L117.60 34.10Q116.14 34.10 115.13 33.47Q114.12 32.83 113.60 31.68Q113.09 30.53 113.09 29.09L113.09 29.09Q113.09 27.65 113.56 26.24Q114.02 24.84 114.91 23.70Q115.80 22.56 117.10 21.88Q118.39 21.19 120.05 21.19L120.05 21.19Q121.15 21.19 121.93 21.54Q122.71 21.89 123.13 22.54Q123.55 23.18 123.55 24.14L123.55 24.14Q123.55 25.10 123.01 25.90Q122.47 26.69 121.55 27.31Q120.62 27.94 119.44 28.40Q118.25 28.87 116.98 29.20Q115.70 29.52 114.43 29.74L114.43 29.74L114.50 28.06Q115.32 27.89 116.26 27.67Q117.19 27.46 118.10 27.14Q119.02 26.83 119.76 26.42Q120.50 26.02 120.95 25.50Q121.39 24.98 121.39 24.34L121.39 24.34Q121.39 23.66 120.92 23.38Q120.46 23.09 119.76 23.09L119.76 23.09Q118.75 23.09 117.91 23.58Q117.07 24.07 116.48 24.91Q115.90 25.75 115.56 26.77Q115.22 27.79 115.22 28.85L115.22 28.85Q115.22 29.88 115.52 30.64Q115.82 31.39 116.41 31.79Q117 32.18 117.86 32.18L117.86 32.18Q118.70 32.18 119.33 31.86Q119.95 31.54 120.48 31.02Q121.01 30.50 121.51 29.90L121.51 29.90Q121.78 29.57 122.14 29.63Q122.50 29.69 122.76 29.95L122.76 29.95Q123.05 30.22 123.11 30.49Q123.17 30.77 122.93 31.10L122.93 31.10Q122.11 32.18 121.25 32.86Q120.38 33.53 119.47 33.82Q118.56 34.10 117.60 34.10ZM139.06 33.65L134.93 33.65Q133.87 33.65 133.99 32.98L133.99 32.98L138.00 10.85Q138.07 10.51 138.36 10.36Q138.65 10.20 139.18 10.20L139.18 10.20L143.54 10.20Q146.09 10.20 147.98 10.88Q149.88 11.57 151.13 12.77Q152.38 13.97 153 15.55Q153.62 17.14 153.62 18.94L153.62 18.94Q153.62 21.58 152.95 23.83Q152.28 26.09 151.01 27.89Q149.74 29.69 147.95 30.98Q146.16 32.28 143.92 32.96Q141.67 33.65 139.06 33.65L139.06 33.65ZM139.85 12.24L136.34 31.61L139.06 31.61Q141.19 31.61 143.06 31.06Q144.94 30.50 146.45 29.44Q147.96 28.37 149.04 26.82Q150.12 25.27 150.70 23.29Q151.27 21.31 151.27 18.94L151.27 18.94Q151.27 17.42 150.76 16.20Q150.24 14.98 149.23 14.09Q148.22 13.20 146.78 12.72Q145.34 12.24 143.52 12.24L143.52 12.24L139.85 12.24ZM163.03 34.10L163.03 34.10Q160.97 34.10 159.47 33.40Q157.97 32.69 157.15 31.37Q156.34 30.05 156.34 28.25L156.34 28.25Q156.34 26.98 156.78 25.84Q157.22 24.70 158.03 23.75Q158.83 22.80 159.94 22.15Q161.04 21.50 162.36 21.24L162.36 21.24Q161.26 20.88 160.51 20.20Q159.77 19.51 159.38 18.60Q159 17.69 159 16.66L159 16.66Q159 15.46 159.36 14.40Q159.72 13.34 160.37 12.50Q161.02 11.66 161.93 11.05Q162.84 10.44 163.97 10.12Q165.10 9.79 166.37 9.79L166.37 9.79Q167.71 9.79 168.94 10.15Q170.16 10.51 171.13 11.17Q172.10 11.83 172.73 12.70L172.73 12.70Q173.04 13.13 173.02 13.46Q172.99 13.80 172.61 14.06L172.61 14.06Q172.27 14.35 171.94 14.32Q171.60 14.28 171.24 13.92L171.24 13.92Q170.69 13.30 169.91 12.83Q169.13 12.36 168.17 12.12Q167.21 11.88 166.08 11.88L166.08 11.88Q165 11.88 164.10 12.23Q163.20 12.58 162.54 13.20Q161.88 13.82 161.53 14.70Q161.18 15.58 161.18 16.61L161.18 16.61Q161.18 17.74 161.71 18.58Q162.24 19.42 163.20 19.90Q164.16 20.38 165.48 20.38L165.48 20.38L168.58 20.38Q168.96 20.38 169.07 20.58Q169.18 20.78 169.08 21.34L169.08 21.34Q169.01 21.84 168.82 22.07Q168.62 22.30 168.26 22.30L168.26 22.30L165.14 22.30Q163.75 22.30 162.55 22.73Q161.35 23.16 160.46 23.96Q159.58 24.77 159.07 25.82Q158.57 26.88 158.57 28.08L158.57 28.08Q158.57 29.35 159.14 30.23Q159.72 31.10 160.80 31.55Q161.88 31.99 163.32 31.99L163.32 31.99Q164.62 31.99 165.77 31.55Q166.92 31.10 167.93 30.24Q168.94 29.38 169.73 28.18L169.73 28.18Q170.06 27.67 170.39 27.65Q170.71 27.62 171.12 27.91L171.12 27.91Q171.50 28.15 171.50 28.49Q171.50 28.82 171.22 29.30L171.22 29.30Q170.23 30.82 169.00 31.88Q167.76 32.95 166.26 33.53Q164.76 34.10 163.03 34.10ZM188.26 33.98L188.26 33.98Q187.75 33.98 187.48 33.76Q187.20 33.53 187.10 32.86L187.10 32.86L183.36 10.87Q183.31 10.44 183.54 10.18Q183.77 9.91 184.34 9.82L184.34 9.82Q184.87 9.74 185.10 9.88Q185.33 10.01 185.38 10.42L185.38 10.42L188.78 30.67L199.27 10.49Q199.56 9.98 199.85 9.86Q200.14 9.74 200.69 9.82L200.69 9.82Q201.26 9.91 201.44 10.22Q201.62 10.54 201.38 10.97L201.38 10.97L189.77 33.02Q189.48 33.55 189.17 33.77Q188.86 33.98 188.26 33.98ZM199.32 33.98L199.32 33.98Q198.70 33.98 198.49 33.65Q198.29 33.31 198.55 32.81L198.55 32.81L210.14 10.75Q210.43 10.20 210.76 10.00Q211.08 9.79 211.66 9.79L211.66 9.79Q212.16 9.79 212.44 10.01Q212.71 10.22 212.81 10.90L212.81 10.90L216.91 32.90Q217.01 33.38 216.74 33.68Q216.48 33.98 215.86 33.98L215.86 33.98Q215.33 33.98 215.12 33.78Q214.92 33.58 214.82 33.10L214.82 33.10L213.79 27.19L203.81 27.19L200.71 33.05Q200.40 33.62 200.15 33.80Q199.90 33.98 199.32 33.98ZM211.15 13.08L204.82 25.27L213.43 25.27L211.15 13.08ZM238.03 33.98L238.03 33.98Q237.50 33.98 237.23 33.82Q236.95 33.65 237.05 33.29L237.05 33.29L238.10 27.43L227.57 27.43Q227.06 27.43 226.88 27.00Q226.70 26.57 227.02 26.09L227.02 26.09L237.65 10.46Q237.91 10.08 238.21 9.92Q238.51 9.77 239.06 9.79L239.06 9.79Q239.45 9.82 239.70 9.94Q239.95 10.06 240.01 10.28Q240.07 10.51 239.81 10.87L239.81 10.87L229.73 25.51L238.44 25.51L239.83 17.78Q239.95 17.14 240.98 17.14L240.98 17.14Q241.54 17.14 241.79 17.29Q242.04 17.45 241.97 17.83L241.97 17.83L240.60 25.51L243 25.51Q243.29 25.51 243.42 25.67Q243.55 25.82 243.55 26.18L243.55 26.18Q243.55 26.76 243.34 27.10Q243.12 27.43 242.74 27.43L242.74 27.43L240.24 27.43L239.18 33.31Q239.06 33.98 238.03 33.98ZM253.03 34.10L253.03 34.10Q250.94 34.10 249.30 33.10Q247.66 32.09 246.71 30.00Q245.76 27.91 245.76 24.72L245.76 24.72Q245.76 22.80 246.11 20.94Q246.46 19.08 247.12 17.41Q247.78 15.74 248.72 14.35Q249.67 12.96 250.90 11.94Q252.12 10.92 253.58 10.36Q255.05 9.79 256.73 9.79L256.73 9.79Q258.79 9.79 260.41 10.81Q262.03 11.83 262.97 13.88Q263.90 15.94 263.90 19.08L263.90 19.08Q263.90 21.05 263.57 22.91Q263.23 24.77 262.57 26.45Q261.91 28.13 260.96 29.53Q260.02 30.94 258.80 31.96Q257.59 32.98 256.14 33.54Q254.69 34.10 253.03 34.10ZM253.30 32.06L253.30 32.06Q254.50 32.06 255.59 31.57Q256.68 31.08 257.62 30.20Q258.55 29.33 259.30 28.14Q260.04 26.95 260.57 25.54Q261.10 24.12 261.37 22.56Q261.65 21.00 261.65 19.39L261.65 19.39Q261.65 16.75 260.99 15.10Q260.33 13.44 259.16 12.64Q258 11.83 256.42 11.83L256.42 11.83Q255.19 11.83 254.09 12.31Q252.98 12.79 252.05 13.67Q251.11 14.54 250.37 15.72Q249.62 16.90 249.11 18.30Q248.59 19.70 248.32 21.25Q248.04 22.80 248.04 24.41L248.04 24.41Q248.04 27.10 248.70 28.79Q249.36 30.48 250.55 31.27Q251.74 32.06 253.30 32.06ZM273 34.10L273 34.10Q270.91 34.10 269.27 33.10Q267.62 32.09 266.68 30.00Q265.73 27.91 265.73 24.72L265.73 24.72Q265.73 22.80 266.08 20.94Q266.42 19.08 267.08 17.41Q267.74 15.74 268.69 14.35Q269.64 12.96 270.86 11.94Q272.09 10.92 273.55 10.36Q275.02 9.79 276.70 9.79L276.70 9.79Q278.76 9.79 280.38 10.81Q282 11.83 282.94 13.88Q283.87 15.94 283.87 19.08L283.87 19.08Q283.87 21.05 283.54 22.91Q283.20 24.77 282.54 26.45Q281.88 28.13 280.93 29.53Q279.98 30.94 278.77 31.96Q277.56 32.98 276.11 33.54Q274.66 34.10 273 34.10ZM273.26 32.06L273.26 32.06Q274.46 32.06 275.56 31.57Q276.65 31.08 277.58 30.20Q278.52 29.33 279.26 28.14Q280.01 26.95 280.54 25.54Q281.06 24.12 281.34 22.56Q281.62 21.00 281.62 19.39L281.62 19.39Q281.62 16.75 280.96 15.10Q280.30 13.44 279.13 12.64Q277.97 11.83 276.38 11.83L276.38 11.83Q275.16 11.83 274.06 12.31Q272.95 12.79 272.02 13.67Q271.08 14.54 270.34 15.72Q269.59 16.90 269.08 18.30Q268.56 19.70 268.28 21.25Q268.01 22.80 268.01 24.41L268.01 24.41Q268.01 27.10 268.67 28.79Q269.33 30.48 270.52 31.27Q271.70 32.06 273.26 32.06ZM302.71 34.03L302.71 34.03Q301.97 34.03 301.55 33.73Q301.13 33.43 300.96 32.96Q300.79 32.50 300.80 31.90Q300.82 31.30 300.94 30.67L300.94 30.67L301.82 25.22Q301.94 24.58 301.92 24.11Q301.90 23.64 301.62 23.38Q301.34 23.11 300.70 23.11L300.70 23.11Q299.88 23.11 299.02 23.76Q298.15 24.41 297.31 25.60Q296.47 26.78 295.73 28.45Q294.98 30.12 294.38 32.16L294.38 32.16L294.26 33.38Q294.22 33.70 293.95 33.85Q293.69 34.01 293.16 34.01L293.16 34.01Q292.70 34.01 292.40 33.84Q292.10 33.67 292.20 33.29L292.20 33.29L294.22 21.98Q294.31 21.58 294.54 21.43Q294.77 21.29 295.25 21.29L295.25 21.29Q295.90 21.29 296.14 21.48Q296.38 21.67 296.28 22.08L296.28 22.08L295.58 25.99Q296.18 24.72 296.88 23.82Q297.58 22.92 298.32 22.33Q299.06 21.74 299.80 21.47Q300.53 21.19 301.25 21.19L301.25 21.19Q302.28 21.19 302.95 21.64Q303.62 22.08 303.86 23.02Q304.10 23.95 303.82 25.44L303.82 25.44L302.81 31.13Q302.74 31.56 302.75 31.79Q302.76 32.02 302.87 32.10Q302.98 32.18 303.12 32.18L303.12 32.18Q303.34 32.18 303.55 32.04Q303.77 31.90 304.01 31.62Q304.25 31.34 304.51 30.91L304.51 30.91Q304.66 30.70 304.86 30.65Q305.06 30.60 305.35 30.74L305.35 30.74Q305.71 30.94 305.82 31.16Q305.93 31.39 305.81 31.61L305.81 31.61Q305.57 32.16 305.14 32.72Q304.70 33.29 304.09 33.66Q303.48 34.03 302.71 34.03ZM312.82 34.10L312.82 34.10Q311.28 34.10 310.14 33.43Q309 32.76 308.40 31.52Q307.80 30.29 307.80 28.63L307.80 28.63Q307.80 27.29 308.23 25.98Q308.66 24.67 309.50 23.58Q310.34 22.49 311.54 21.84Q312.74 21.19 314.28 21.19L314.28 21.19Q315.82 21.19 316.94 21.88Q318.07 22.56 318.67 23.76Q319.27 24.96 319.27 26.52L319.27 26.52Q319.27 27.55 319.01 28.63Q318.74 29.71 318.20 30.70Q317.66 31.68 316.88 32.45Q316.10 33.22 315.08 33.66Q314.06 34.10 312.82 34.10ZM312.96 32.18L312.96 32.18Q313.94 32.18 314.71 31.69Q315.48 31.20 316.02 30.38Q316.56 29.57 316.85 28.60Q317.14 27.62 317.14 26.64L317.14 26.64Q317.14 25.56 316.76 24.77Q316.39 23.98 315.73 23.54Q315.07 23.11 314.18 23.11L314.18 23.11Q313.18 23.11 312.38 23.60Q311.59 24.10 311.05 24.90Q310.51 25.70 310.22 26.65Q309.94 27.60 309.94 28.54L309.94 28.54Q309.94 29.64 310.31 30.47Q310.68 31.30 311.36 31.74Q312.05 32.18 312.96 32.18ZM322.78 34.01L322.78 34.01Q322.32 34.01 322.02 33.84Q321.72 33.67 321.82 33.29L321.82 33.29L323.83 21.98Q323.93 21.58 324.16 21.43Q324.38 21.29 324.86 21.29L324.86 21.29Q325.51 21.29 325.75 21.48Q325.99 21.67 325.90 22.08L325.90 22.08L325.20 26.04Q325.80 24.82 326.46 23.90Q327.12 22.99 327.77 22.39Q328.42 21.79 329.03 21.49Q329.64 21.19 330.17 21.19L330.17 21.19Q330.79 21.19 331.33 21.49Q331.87 21.79 332.16 22.22L332.16 22.22Q332.33 22.44 332.28 22.70Q332.23 22.97 332.02 23.23L332.02 23.23Q331.78 23.54 331.52 23.64Q331.27 23.74 331.06 23.54L331.06 23.54Q330.79 23.38 330.52 23.24Q330.24 23.11 329.93 23.11L329.93 23.11Q329.33 23.11 328.54 23.77Q327.74 24.43 326.92 25.64Q326.09 26.86 325.33 28.50Q324.58 30.14 324.00 32.11L324.00 32.11L323.88 33.38Q323.83 33.70 323.57 33.85Q323.30 34.01 322.78 34.01ZM350.83 34.03L350.83 34.03Q350.11 34.03 349.70 33.74Q349.30 33.46 349.12 32.98Q348.94 32.50 348.95 31.90Q348.96 31.30 349.08 30.67L349.08 30.67L349.97 25.22Q350.09 24.58 350.06 24.11Q350.04 23.64 349.78 23.38Q349.51 23.11 348.86 23.11L348.86 23.11Q348.05 23.11 347.18 23.84Q346.32 24.58 345.50 25.92Q344.69 27.26 343.98 29.04Q343.27 30.82 342.72 32.88L342.72 32.88L341.83 32.88Q342.36 29.88 343.20 27.67Q344.04 25.46 345.08 24.02Q346.13 22.58 347.26 21.89Q348.38 21.19 349.44 21.19L349.44 21.19Q350.54 21.19 351.19 21.68Q351.84 22.18 352.03 23.11Q352.22 24.05 351.94 25.44L351.94 25.44L350.95 31.13Q350.86 31.56 350.88 31.79Q350.90 32.02 351.01 32.10Q351.12 32.18 351.26 32.18L351.26 32.18Q351.48 32.18 351.70 32.04Q351.91 31.90 352.14 31.62Q352.37 31.34 352.66 30.91L352.66 30.91Q352.80 30.70 353.00 30.65Q353.21 30.60 353.50 30.74L353.50 30.74Q353.88 30.94 353.96 31.16Q354.05 31.39 353.95 31.66L353.95 31.66Q353.69 32.18 353.26 32.74Q352.82 33.29 352.21 33.66Q351.60 34.03 350.83 34.03ZM333.67 34.01L333.67 34.01Q333.22 34.01 332.92 33.84Q332.62 33.67 332.71 33.29L332.71 33.29L334.73 21.98Q334.82 21.58 335.05 21.43Q335.28 21.29 335.76 21.29L335.76 21.29Q336.41 21.29 336.65 21.48Q336.89 21.67 336.79 22.08L336.79 22.08L336.14 25.92Q336.74 24.70 337.40 23.80Q338.06 22.90 338.75 22.32Q339.43 21.74 340.14 21.47Q340.85 21.19 341.52 21.19L341.52 21.19Q342.62 21.19 343.26 21.67Q343.90 22.15 344.09 23.10Q344.28 24.05 344.02 25.44L344.02 25.44L342.67 33.38Q342.60 33.70 342.35 33.85Q342.10 34.01 341.57 34.01L341.57 34.01Q341.11 34.01 340.81 33.84Q340.51 33.67 340.61 33.29L340.61 33.29L342.05 25.22Q342.17 24.58 342.14 24.11Q342.12 23.64 341.86 23.38Q341.59 23.11 340.94 23.11L340.94 23.11Q340.18 23.11 339.35 23.78Q338.52 24.46 337.73 25.67Q336.94 26.88 336.22 28.52Q335.50 30.17 334.92 32.11L334.92 32.11L334.78 33.38Q334.73 33.70 334.46 33.85Q334.20 34.01 333.67 34.01ZM358.99 34.06L358.99 34.06Q358.01 34.06 357.26 33.52Q356.52 32.98 356.12 31.96Q355.73 30.94 355.73 29.54L355.73 29.54Q355.73 28.37 356.02 27.18Q356.30 25.99 356.88 24.92Q357.46 23.86 358.28 23.02Q359.11 22.18 360.19 21.68Q361.27 21.19 362.59 21.19L362.59 21.19Q363.34 21.19 364.07 21.37Q364.80 21.55 365.52 21.89L365.52 21.89L365.52 21.82Q365.59 21.53 365.84 21.41Q366.10 21.29 366.55 21.29L366.55 21.29Q367.20 21.29 367.43 21.48Q367.66 21.67 367.56 22.08L367.56 22.08L365.90 31.15Q365.81 31.56 365.83 31.79Q365.86 32.02 365.95 32.10Q366.05 32.18 366.19 32.18L366.19 32.18Q366.43 32.18 366.64 32.04Q366.84 31.90 367.08 31.62Q367.32 31.34 367.58 30.91L367.58 30.91Q367.73 30.70 367.93 30.64Q368.14 30.58 368.42 30.74L368.42 30.74Q368.78 30.94 368.90 31.16Q369.02 31.39 368.90 31.66L368.90 31.66Q368.69 32.16 368.26 32.71Q367.82 33.26 367.21 33.65Q366.60 34.03 365.81 34.03L365.81 34.03Q365.06 34.03 364.64 33.73Q364.22 33.43 364.04 32.94Q363.86 32.45 363.88 31.86Q363.89 31.27 364.01 30.67L364.01 30.67Q364.03 30.48 364.03 30.25Q364.03 30.02 364.06 29.78L364.06 29.78Q363.29 31.18 362.45 32.14Q361.61 33.10 360.73 33.58Q359.86 34.06 358.99 34.06ZM357.89 29.30L357.89 29.30Q357.89 30.14 358.06 30.78Q358.22 31.42 358.60 31.78Q358.97 32.14 359.52 32.14L359.52 32.14Q360.38 32.14 361.34 31.24Q362.30 30.34 363.25 28.64Q364.20 26.95 365.04 24.58L365.04 24.58L365.21 23.69Q364.44 23.33 363.77 23.21Q363.10 23.09 362.54 23.09L362.54 23.09Q361.68 23.09 360.94 23.45Q360.19 23.81 359.63 24.43Q359.06 25.06 358.68 25.86Q358.30 26.66 358.09 27.55Q357.89 28.44 357.89 29.30ZM365.98 34.06L365.98 34.06Q365.52 34.06 365.35 33.78Q365.18 33.50 365.24 33.16Q365.30 32.81 365.56 32.53Q365.81 32.26 366.22 32.26L366.22 32.26Q366.82 32.26 367.60 31.86Q368.38 31.46 369.29 30.73Q370.20 30.00 371.18 28.99Q372.17 27.98 373.16 26.78Q374.16 25.58 375.08 24.24Q376.01 22.90 376.79 21.48Q377.57 20.06 378.17 18.64Q378.77 17.21 379.10 15.83Q379.44 14.45 379.44 13.20L379.44 13.20Q379.44 12.84 379.74 12.66Q380.04 12.48 380.45 12.48Q380.86 12.48 381.16 12.66Q381.46 12.84 381.46 13.20L381.46 13.20Q381.46 14.42 381.08 15.84Q380.71 17.26 380.05 18.78Q379.39 20.30 378.49 21.85Q377.59 23.40 376.54 24.90Q375.48 26.40 374.34 27.77Q373.20 29.14 372.05 30.28Q370.90 31.42 369.80 32.27Q368.71 33.12 367.74 33.59Q366.77 34.06 365.98 34.06ZM373.78 34.03L373.78 34.03Q373.03 34.03 372.62 33.73Q372.22 33.43 372.05 32.96Q371.88 32.50 371.90 31.90Q371.93 31.30 372.02 30.67L372.02 30.67L374.74 15.14Q375.24 12.29 376.22 10.99Q377.21 9.70 378.79 9.70L378.79 9.70Q379.61 9.70 380.21 10.13Q380.81 10.56 381.13 11.34Q381.46 12.12 381.46 13.20L381.46 13.20Q381.46 13.66 381.16 13.87Q380.86 14.09 380.45 14.09Q380.04 14.09 379.74 13.87Q379.44 13.66 379.44 13.20L379.44 13.20Q379.44 12.70 379.36 12.35Q379.27 12.00 379.09 11.81Q378.91 11.62 378.58 11.62L378.58 11.62Q378.19 11.62 377.87 11.98Q377.54 12.34 377.28 13.20Q377.02 14.06 376.73 15.62L376.73 15.62L373.90 31.15Q373.85 31.56 373.85 31.79Q373.85 32.02 373.94 32.10Q374.04 32.18 374.18 32.18L374.18 32.18Q374.40 32.18 374.62 32.04Q374.83 31.90 375.07 31.62Q375.31 31.34 375.58 30.91L375.58 30.91Q375.74 30.70 375.94 30.64Q376.13 30.58 376.42 30.74L376.42 30.74Q376.80 30.94 376.90 31.16Q376.99 31.39 376.90 31.61L376.90 31.61Q376.63 32.16 376.20 32.72Q375.77 33.29 375.16 33.66Q374.54 34.03 373.78 34.03Z"/></svg>