<svg xmlns="http://www.w3.org/2000/svg" xmlns:xlink="http://www.w3.org/1999/xlink" width="258.864" height="31.2"><path fill="black" d="M3.34 23.81L1.01 20.98L3.05 9.55L6 7.01L13.49 7.01L15.79 9.79L15.48 11.50L13.18 11.50L13.37 10.42L12.22 9.02L6.91 9.02L5.16 10.51L3.43 20.30L4.68 21.79L9.96 21.79L11.62 20.40L11.81 19.32L14.11 19.32L13.73 21.36L10.85 23.81L3.34 23.81ZM15.96 23.81L19.06 6.67L21.29 6.67L19.90 14.09L22.54 11.86L26.21 11.86L28.27 14.33L26.59 23.81L24.36 23.81L25.94 14.88L25.03 13.80L22.73 13.80L19.46 16.58L18.19 23.81L15.96 23.81ZM31.63 23.81L29.86 21.67L30.36 18.74L32.71 16.78L39.02 16.78L39.36 14.76L38.52 13.73L34.61 13.73L33.36 14.76L33.22 15.65L30.98 15.65L31.27 14.11L33.91 11.86L39.70 11.86L41.69 14.28L40.01 23.81L37.92 23.81L38.26 21.84L35.86 23.81L31.63 23.81ZM32.86 21.96L35.86 21.96L38.50 19.80L38.71 18.55L33.46 18.55L32.47 19.39L32.16 21.14L32.86 21.96ZM43.25 23.81L46.32 6.67L48.58 6.67L46.75 16.61L49.18 16.61L53.38 11.86L55.99 11.86L50.95 17.62L54.12 23.81L51.79 23.81L49.10 18.58L46.42 18.58L45.48 23.81L43.25 23.81ZM56.16 23.81L58.27 11.86L60.41 11.86L60.02 13.94L62.47 11.86L65.66 11.86L65.30 13.80L62.69 13.80L59.71 16.34L58.39 23.81L56.16 23.81ZM66.79 23.81L65.02 21.67L65.52 18.74L67.87 16.78L74.18 16.78L74.52 14.76L73.68 13.73L69.77 13.73L68.52 14.76L68.38 15.65L66.14 15.65L66.43 14.11L69.07 11.86L74.86 11.86L76.85 14.28L75.17 23.81L73.08 23.81L73.42 21.84L71.02 23.81L66.79 23.81ZM68.02 21.96L71.02 21.96L73.66 19.80L73.87 18.55L68.62 18.55L67.63 19.39L67.32 21.14L68.02 21.96ZM84.62 23.81L87.58 7.01L97.32 7.01L99.36 9.48L98.38 15.10L95.83 17.26L88.08 17.26L86.93 23.81L84.62 23.81ZM88.44 15.29L94.97 15.29L96.24 14.23L96.98 10.03L96.10 8.98L89.54 8.98L88.44 15.29ZM101.14 23.81L99.19 21.43L100.49 13.97L102.98 11.86L109.32 11.86L111.31 14.28L110.57 18.53L101.95 18.53L101.54 20.83L102.41 21.89L106.70 21.89L107.93 20.86L108.07 20.04L110.30 20.04L109.99 21.72L107.54 23.81L101.14 23.81ZM102.26 16.78L108.65 16.78L108.98 14.83L108.12 13.78L103.87 13.78L102.60 14.83L102.26 16.78ZM116.11 23.81L114.14 21.43L115.49 13.78L113.33 13.78L113.66 11.86L115.87 11.86L116.57 7.97L118.75 7.97L118.06 11.86L121.75 11.86L121.42 13.80L117.72 13.80L116.50 20.81L117.38 21.86L120.00 21.86L119.66 23.81L116.11 23.81ZM123.94 23.81L121.99 21.43L123.31 13.94L125.78 11.86L131.86 11.86L133.85 14.30L133.58 15.86L131.35 15.86L131.52 14.88L130.63 13.80L126.67 13.80L125.40 14.88L124.34 20.78L125.23 21.86L129.22 21.86L130.49 20.78L130.66 19.80L132.91 19.80L132.55 21.70L130.08 23.81L123.94 23.81ZM134.83 23.81L137.93 6.67L140.16 6.67L138.77 14.09L141.41 11.86L145.08 11.86L147.14 14.33L145.46 23.81L143.23 23.81L144.82 14.88L143.90 13.80L141.60 13.80L138.34 16.58L137.06 23.81L134.83 23.81ZM156.89 23.81L154.85 21.34L155.21 19.32L157.51 19.32L157.25 20.74L158.14 21.79L162.91 21.79L164.16 20.74L164.95 16.27L164.06 15.24L156.17 15.24L157.61 7.01L168.55 7.01L168.19 9L159.50 9L158.76 13.22L165.26 13.22L167.35 15.72L166.30 21.67L163.80 23.81L156.89 23.81ZM171.48 23.81L169.30 21.14L171.36 9.38L174.14 7.01L181.22 7.01L183.46 9.70L181.37 21.50L178.66 23.81L171.48 23.81ZM172.75 21.79L177.72 21.79L179.23 20.52L181.03 10.30L179.98 9.02L175.01 9.02L173.52 10.30L171.70 20.52L172.75 21.79ZM186.74 23.81L184.56 21.14L186.62 9.38L189.41 7.01L196.49 7.01L198.72 9.70L196.63 21.50L193.92 23.81L186.74 23.81ZM188.02 21.79L192.98 21.79L194.50 20.52L196.30 10.30L195.24 9.02L190.27 9.02L188.78 10.30L186.96 20.52L188.02 21.79ZM208.70 10.06L208.01 9.19L208.22 7.99L209.21 7.13L210.48 7.13L211.18 7.99L210.96 9.24L210 10.06L208.70 10.06ZM205.78 23.81L207.89 11.86L210.14 11.86L208.03 23.81L205.78 23.81ZM215.09 23.81L213.12 21.43L214.46 13.78L212.30 13.78L212.64 11.86L214.85 11.86L215.54 7.97L217.73 7.97L217.03 11.86L220.73 11.86L220.39 13.80L216.70 13.80L215.47 20.81L216.36 21.86L218.98 21.86L218.64 23.81L215.09 23.81ZM222.96 23.81L221.18 21.67L221.69 18.74L224.04 16.78L230.35 16.78L230.69 14.76L229.85 13.73L225.94 13.73L224.69 14.76L224.54 15.65L222.31 15.65L222.60 14.11L225.24 11.86L231.02 11.86L233.02 14.28L231.34 23.81L229.25 23.81L229.58 21.84L227.18 23.81L222.96 23.81ZM224.18 21.96L227.18 21.96L229.82 19.80L230.04 18.55L224.78 18.55L223.80 19.39L223.49 21.14L224.18 21.96ZM234.70 23.81L237.74 6.67L239.98 6.67L236.93 23.81L234.70 23.81ZM243.58 10.06L242.88 9.19L243.10 7.99L244.08 7.13L245.35 7.13L246.05 7.99L245.83 9.24L244.87 10.06L243.58 10.06ZM240.65 23.81L242.76 11.86L245.02 11.86L242.90 23.81L240.65 23.81ZM248.59 23.81L246.65 21.43L247.97 13.94L250.44 11.86L256.51 11.86L258.50 14.30L258.24 15.86L256.01 15.86L256.18 14.88L255.29 13.80L251.33 13.80L250.06 14.88L249 20.78L249.89 21.86L253.87 21.86L255.14 20.78L255.31 19.80L257.57 19.80L257.21 21.70L254.74 23.81L248.59 23.81Z"/></svg>