<svg xmlns="http://www.w3.org/2000/svg" xmlns:xlink="http://www.w3.org/1999/xlink" width="227.496" height="30"><path fill="black" d="M13.13 24L2.26 24L2.26 7.20L5.38 7.20L5.38 21.12L13.13 21.12L13.13 24ZM21.62 24.24L21.62 24.24Q19.63 24.24 18.11 23.40Q16.58 22.56 15.73 21.11Q14.88 19.66 14.88 17.78L14.88 17.78Q14.88 16.30 15.36 15.07Q15.84 13.85 16.69 12.95Q17.54 12.05 18.73 11.56Q19.92 11.06 21.34 11.06L21.34 11.06Q22.58 11.06 23.66 11.54Q24.74 12.02 25.54 12.85Q26.33 13.68 26.75 14.82Q27.17 15.96 27.14 17.30L27.14 17.30L27.12 18.34L16.87 18.34L16.32 16.32L24.65 16.32L24.26 16.73L24.26 16.20Q24.19 15.46 23.78 14.89Q23.38 14.33 22.74 14.00Q22.10 13.68 21.34 13.68L21.34 13.68Q20.16 13.68 19.36 14.14Q18.55 14.59 18.14 15.44Q17.74 16.30 17.74 17.57L17.74 17.57Q17.74 18.79 18.25 19.70Q18.77 20.62 19.72 21.11Q20.66 21.60 21.94 21.60L21.94 21.60Q22.82 21.60 23.57 21.31Q24.31 21.02 25.18 20.28L25.18 20.28L26.64 22.32Q25.99 22.92 25.16 23.34Q24.34 23.76 23.42 24Q22.51 24.24 21.62 24.24ZM41.45 24L37.87 24L34.27 19.13L33.60 18.22L28.39 11.35L32.04 11.35L35.54 16.10L36.29 17.11L41.45 24ZM31.85 24L28.37 24L33.38 17.28L35.06 19.30L31.85 24ZM41.06 11.35L36.29 18.10L34.68 16.10L37.58 11.35L41.06 11.35ZM48.77 24.24L48.77 24.24Q46.78 24.24 45.25 23.40Q43.73 22.56 42.88 21.11Q42.02 19.66 42.02 17.78L42.02 17.78Q42.02 16.30 42.50 15.07Q42.98 13.85 43.84 12.95Q44.69 12.05 45.88 11.56Q47.06 11.06 48.48 11.06L48.48 11.06Q49.73 11.06 50.81 11.54Q51.89 12.02 52.68 12.85Q53.47 13.68 53.89 14.82Q54.31 15.96 54.29 17.30L54.29 17.30L54.26 18.34L44.02 18.34L43.46 16.32L51.79 16.32L51.41 16.73L51.41 16.20Q51.34 15.46 50.93 14.89Q50.52 14.33 49.88 14.00Q49.25 13.68 48.48 13.68L48.48 13.68Q47.30 13.68 46.50 14.14Q45.70 14.59 45.29 15.44Q44.88 16.30 44.88 17.57L44.88 17.57Q44.88 18.79 45.40 19.70Q45.91 20.62 46.86 21.11Q47.81 21.60 49.08 21.60L49.08 21.60Q49.97 21.60 50.71 21.31Q51.46 21.02 52.32 20.28L52.32 20.28L53.78 22.32Q53.14 22.92 52.31 23.34Q51.48 23.76 50.57 24Q49.66 24.24 48.77 24.24ZM56.90 24L56.90 24L56.90 11.35L59.78 11.35L59.83 13.94L59.28 14.23Q59.52 13.37 60.22 12.66Q60.91 11.95 61.87 11.52Q62.83 11.09 63.84 11.09L63.84 11.09Q65.28 11.09 66.25 11.66Q67.22 12.24 67.72 13.39Q68.21 14.54 68.21 16.27L68.21 16.27L68.21 24L65.26 24L65.26 16.49Q65.26 15.53 64.99 14.89Q64.73 14.26 64.18 13.96Q63.62 13.66 62.83 13.68L62.83 13.68Q62.18 13.68 61.64 13.88Q61.10 14.09 60.71 14.46Q60.31 14.83 60.08 15.31Q59.86 15.79 59.86 16.37L59.86 16.37L59.86 24L58.39 24Q57.96 24 57.59 24Q57.22 24 56.90 24ZM76.61 24.24L76.61 24.24Q74.93 24.24 73.60 23.39Q72.26 22.54 71.48 21.06Q70.70 19.58 70.70 17.66L70.70 17.66Q70.70 15.77 71.47 14.28Q72.24 12.79 73.57 11.94Q74.90 11.09 76.58 11.09L76.58 11.09Q77.50 11.09 78.35 11.38Q79.20 11.66 79.87 12.16Q80.54 12.65 80.94 13.25Q81.34 13.85 81.38 14.50L81.38 14.50L80.59 14.59L80.59 6.24L83.54 6.24L83.54 24L80.69 24L80.62 21.02L81.19 21.07Q81.17 21.67 80.77 22.22Q80.38 22.78 79.75 23.23Q79.13 23.69 78.30 23.96Q77.47 24.24 76.61 24.24ZM77.18 21.74L77.18 21.74Q78.22 21.74 79.01 21.22Q79.80 20.69 80.24 19.78Q80.69 18.86 80.69 17.66L80.69 17.66Q80.69 16.49 80.24 15.56Q79.80 14.64 79.01 14.12Q78.22 13.61 77.18 13.61L77.18 13.61Q76.15 13.61 75.36 14.12Q74.57 14.64 74.12 15.56Q73.68 16.49 73.68 17.66L73.68 17.66Q73.68 18.86 74.12 19.78Q74.57 20.69 75.36 21.22Q76.15 21.74 77.18 21.74ZM98.62 24.17L98.62 24.17Q96.86 24.17 95.45 23.41Q94.03 22.66 93.10 21.22L93.10 21.22L94.82 19.34Q95.88 20.52 96.72 20.96Q97.56 21.41 98.57 21.41L98.57 21.41Q99.48 21.41 100.20 21.01Q100.92 20.62 101.35 19.93Q101.78 19.25 101.78 18.43L101.78 18.43Q101.78 17.54 101.38 16.86Q100.97 16.18 100.27 15.77Q99.58 15.36 98.69 15.36L98.69 15.36Q98.21 15.36 97.78 15.43Q97.34 15.50 96.78 15.72Q96.22 15.94 95.35 16.39L95.35 16.39L93.86 14.38L94.85 7.15L104.14 7.15L104.14 9.91L96.60 9.91L97.30 9.14L96.50 14.47L95.62 13.85Q95.93 13.56 96.54 13.30Q97.15 13.03 97.87 12.86Q98.59 12.70 99.29 12.70L99.29 12.70Q100.85 12.70 102.07 13.42Q103.30 14.14 104.02 15.40Q104.74 16.66 104.74 18.29L104.74 18.29Q104.74 19.94 103.93 21.28Q103.13 22.61 101.74 23.39Q100.34 24.17 98.62 24.17ZM113.66 24.24L113.66 24.24Q111.62 24.24 110.17 23.20Q108.72 22.15 107.94 20.22Q107.16 18.29 107.16 15.60L107.16 15.60Q107.16 12.91 107.94 10.98Q108.72 9.05 110.17 8.00Q111.62 6.96 113.66 6.96L113.66 6.96Q115.70 6.96 117.17 8.00Q118.63 9.05 119.41 10.98Q120.19 12.91 120.19 15.60L120.19 15.60Q120.19 18.29 119.41 20.22Q118.63 22.15 117.17 23.20Q115.70 24.24 113.66 24.24ZM113.66 21.50L113.66 21.50Q115.34 21.50 116.27 19.96Q117.19 18.41 117.19 15.60L117.19 15.60Q117.19 12.77 116.27 11.21Q115.34 9.65 113.66 9.65L113.66 9.65Q111.98 9.65 111.06 11.21Q110.14 12.77 110.14 15.60L110.14 15.60Q110.14 18.41 111.06 19.96Q111.98 21.50 113.66 21.50ZM128.81 24.24L128.81 24.24Q126.77 24.24 125.32 23.20Q123.86 22.15 123.08 20.22Q122.30 18.29 122.30 15.60L122.30 15.60Q122.30 12.91 123.08 10.98Q123.86 9.05 125.32 8.00Q126.77 6.96 128.81 6.96L128.81 6.96Q130.85 6.96 132.31 8.00Q133.78 9.05 134.56 10.98Q135.34 12.91 135.34 15.60L135.34 15.60Q135.34 18.29 134.56 20.22Q133.78 22.15 132.31 23.20Q130.85 24.24 128.81 24.24ZM128.81 21.50L128.81 21.50Q130.49 21.50 131.41 19.96Q132.34 18.41 132.34 15.60L132.34 15.60Q132.34 12.77 131.41 11.21Q130.49 9.65 128.81 9.65L128.81 9.65Q127.13 9.65 126.20 11.21Q125.28 12.77 125.28 15.60L125.28 15.60Q125.28 18.41 126.20 19.96Q127.13 21.50 128.81 21.50ZM145.18 24L145.18 24L145.18 11.35L148.06 11.35L148.10 13.94L147.55 14.23Q147.79 13.37 148.49 12.66Q149.18 11.95 150.14 11.52Q151.10 11.09 152.11 11.09L152.11 11.09Q153.55 11.09 154.52 11.66Q155.50 12.24 155.99 13.39Q156.48 14.54 156.48 16.27L156.48 16.27L156.48 24L153.53 24L153.53 16.49Q153.53 15.53 153.26 14.89Q153 14.26 152.45 13.96Q151.90 13.66 151.10 13.68L151.10 13.68Q150.46 13.68 149.92 13.88Q149.38 14.09 148.98 14.46Q148.58 14.83 148.36 15.31Q148.13 15.79 148.13 16.37L148.13 16.37L148.13 24L146.66 24Q146.23 24 145.86 24Q145.49 24 145.18 24ZM165.58 24.24L165.58 24.24Q163.68 24.24 162.19 23.39Q160.70 22.54 159.84 21.05Q158.98 19.56 158.98 17.66L158.98 17.66Q158.98 15.77 159.84 14.28Q160.70 12.79 162.19 11.94Q163.68 11.09 165.58 11.09L165.58 11.09Q167.45 11.09 168.94 11.94Q170.42 12.79 171.28 14.28Q172.13 15.77 172.13 17.66L172.13 17.66Q172.13 19.56 171.28 21.05Q170.42 22.54 168.94 23.39Q167.45 24.24 165.58 24.24ZM165.58 21.62L165.58 21.62Q166.61 21.62 167.41 21.10Q168.22 20.57 168.68 19.68Q169.15 18.79 169.13 17.66L169.13 17.66Q169.15 16.51 168.68 15.62Q168.22 14.74 167.41 14.22Q166.61 13.70 165.58 13.70L165.58 13.70Q164.54 13.70 163.72 14.22Q162.89 14.74 162.43 15.64Q161.98 16.54 161.98 17.66L161.98 17.66Q161.98 18.79 162.43 19.68Q162.89 20.57 163.72 21.10Q164.54 21.62 165.58 21.62ZM177.74 24L174.77 24L174.77 11.35L177.67 11.35L177.72 15.38L177.31 14.47Q177.58 13.51 178.22 12.74Q178.87 11.98 179.72 11.53Q180.58 11.09 181.51 11.09L181.51 11.09Q181.92 11.09 182.29 11.16Q182.66 11.23 182.90 11.33L182.90 11.33L182.11 14.57Q181.85 14.42 181.46 14.33Q181.08 14.23 180.70 14.23L180.70 14.23Q180.10 14.23 179.56 14.46Q179.02 14.69 178.61 15.10Q178.20 15.50 177.97 16.04Q177.74 16.58 177.74 17.26L177.74 17.26L177.74 24ZM187.80 24L184.82 24L184.82 11.35L187.73 11.35L187.78 13.90L187.30 14.09Q187.51 13.46 187.94 12.92Q188.38 12.38 188.98 11.99Q189.58 11.59 190.25 11.36Q190.92 11.14 191.62 11.14L191.62 11.14Q192.65 11.14 193.45 11.46Q194.26 11.78 194.80 12.48Q195.34 13.18 195.60 14.26L195.60 14.26L195.14 14.16L195.34 13.78Q195.60 13.20 196.08 12.73Q196.56 12.26 197.16 11.89Q197.76 11.52 198.42 11.33Q199.08 11.14 199.73 11.14L199.73 11.14Q201.17 11.14 202.13 11.71Q203.09 12.29 203.57 13.46Q204.05 14.64 204.05 16.37L204.05 16.37L204.05 24L201.07 24L201.07 16.56Q201.07 15.60 200.82 14.98Q200.57 14.35 200.05 14.05Q199.54 13.75 198.77 13.75L198.77 13.75Q198.17 13.75 197.63 13.96Q197.09 14.16 196.70 14.53Q196.32 14.90 196.10 15.38Q195.89 15.86 195.89 16.44L195.89 16.44L195.89 24L192.91 24L192.91 16.54Q192.91 15.62 192.65 15.01Q192.38 14.40 191.88 14.08Q191.38 13.75 190.66 13.75L190.66 13.75Q190.06 13.75 189.53 13.96Q189.00 14.16 188.62 14.52Q188.23 14.88 188.02 15.36Q187.80 15.84 187.80 16.42L187.80 16.42L187.80 24ZM212.11 24.24L212.11 24.24Q210.55 24.24 209.28 23.38Q208.01 22.51 207.24 21.02Q206.47 19.54 206.47 17.64L206.47 17.64Q206.47 15.74 207.24 14.26Q208.01 12.77 209.33 11.93Q210.65 11.09 212.30 11.09L212.30 11.09Q213.26 11.09 214.06 11.36Q214.85 11.64 215.45 12.14Q216.05 12.65 216.44 13.30Q216.84 13.94 216.98 14.69L216.98 14.69L216.34 14.52L216.34 11.35L219.31 11.35L219.31 24L216.31 24L216.31 20.98L217.01 20.86Q216.84 21.50 216.40 22.12Q215.95 22.73 215.29 23.20Q214.63 23.66 213.83 23.95Q213.02 24.24 212.11 24.24ZM212.93 21.62L212.93 21.62Q213.96 21.62 214.75 21.12Q215.54 20.62 215.99 19.72Q216.43 18.82 216.43 17.64L216.43 17.64Q216.43 16.49 215.99 15.60Q215.54 14.71 214.75 14.21Q213.96 13.70 212.93 13.70L212.93 13.70Q211.90 13.70 211.12 14.21Q210.34 14.71 209.90 15.60Q209.47 16.49 209.47 17.64L209.47 17.64Q209.47 18.82 209.90 19.72Q210.34 20.62 211.12 21.12Q211.90 21.62 212.93 21.62ZM225.74 24L222.77 24L222.77 6.24L225.74 6.24L225.74 24Z"/></svg>