<svg xmlns="http://www.w3.org/2000/svg" xmlns:xlink="http://www.w3.org/1999/xlink" width="222.28800000000004" height="28.2"><path fill="black" d="M2.72 22.80L1.79 22.80L4.21 5.45L9.13 5.45Q10.81 5.45 12.02 6.04Q13.24 6.64 13.81 7.81Q14.39 8.99 14.15 10.73L14.15 10.73Q13.90 12.47 13.00 13.68Q12.11 14.89 10.75 15.52Q9.40 16.15 7.75 16.15L7.75 16.15L3.66 16.15L2.72 22.80ZM5.03 6.46L3.80 15.12L7.91 15.12Q9.29 15.12 10.41 14.60Q11.53 14.09 12.26 13.09Q12.98 12.10 13.19 10.66L13.19 10.66Q13.48 8.50 12.32 7.48Q11.16 6.46 8.96 6.46L8.96 6.46L5.03 6.46ZM19.37 23.04L19.37 23.04Q18.37 23.03 17.59 22.75Q16.81 22.48 16.30 21.94Q15.79 21.40 15.59 20.57Q15.38 19.75 15.54 18.65L15.54 18.65L16.69 10.39L17.57 10.39L16.40 18.65Q16.18 20.21 16.91 21.17Q17.64 22.13 19.44 22.13L19.44 22.13Q21.04 22.13 22.13 21.23Q23.23 20.33 23.50 18.46L23.50 18.46L24.64 10.39L25.50 10.39L23.75 22.80L22.96 22.80L23.21 20.52Q22.90 21.29 22.36 21.86Q21.82 22.43 21.07 22.74Q20.32 23.05 19.37 23.04ZM33.43 23.04L33.43 23.04Q32.27 23.04 31.54 22.70Q30.82 22.36 30.43 21.86Q30.04 21.37 29.88 20.92Q29.72 20.47 29.69 20.26L29.69 20.26L29.29 22.80L28.50 22.80L30.82 4.97L31.70 4.97L30.71 12.65Q30.82 12.43 31.13 12.02Q31.44 11.62 31.98 11.18Q32.52 10.75 33.30 10.45Q34.08 10.15 35.11 10.15L35.11 10.15Q37.27 10.15 38.39 11.72Q39.50 13.30 39.08 16.56L39.08 16.56Q38.71 19.48 37.30 21.26Q35.88 23.04 33.43 23.04ZM33.53 22.15L33.53 22.15Q35.27 22.15 36.52 20.74Q37.78 19.33 38.15 16.40L38.15 16.40Q38.46 14.00 37.69 12.53Q36.91 11.06 34.90 11.06L34.90 11.06Q32.69 11.06 31.63 12.51Q30.56 13.96 30.22 16.40L30.22 16.40Q29.83 19.40 30.55 20.78Q31.27 22.15 33.53 22.15ZM43.80 22.90L43.80 22.90Q43.24 22.90 42.86 22.67Q42.49 22.44 42.29 22.03Q42.10 21.62 42.05 21.08Q42.01 20.53 42.10 19.90L42.10 19.90L44.21 4.97L45.08 4.97L42.96 19.90Q42.80 21.10 43.14 21.60Q43.48 22.10 43.94 22.10L43.94 22.10L44.64 22.10L44.56 22.80Q44.33 22.85 44.12 22.87Q43.91 22.90 43.80 22.90ZM48.98 22.80L48.10 22.80L49.85 10.39L50.72 10.39L48.98 22.80ZM51.31 6.89L50.26 6.89L50.45 5.45L51.50 5.45L51.31 6.89ZM57.54 23.04L57.54 23.04Q56.04 23.04 55.01 22.35Q53.98 21.66 53.55 20.24Q53.12 18.82 53.42 16.63L53.42 16.63Q53.70 14.69 54.44 13.23Q55.19 11.77 56.42 10.96Q57.65 10.15 59.35 10.15L59.35 10.15Q60.40 10.15 61.25 10.54Q62.11 10.93 62.65 11.72Q63.19 12.52 63.25 13.73L63.25 13.73L62.30 13.73Q62.29 12.91 61.90 12.31Q61.51 11.71 60.83 11.39Q60.14 11.06 59.23 11.06L59.23 11.06Q57.42 11.06 56.08 12.43Q54.74 13.79 54.35 16.63L54.35 16.63Q54 19.10 54.80 20.63Q55.60 22.15 57.67 22.15L57.67 22.15Q58.58 22.15 59.36 21.83Q60.14 21.50 60.70 20.90Q61.26 20.30 61.50 19.49L61.50 19.49L62.45 19.49Q62.05 20.69 61.29 21.48Q60.53 22.27 59.56 22.66Q58.58 23.04 57.54 23.04ZM76.96 23.04L76.96 23.04Q75.88 23.04 74.93 22.75Q73.99 22.45 73.27 21.88Q72.55 21.31 72.14 20.48Q71.72 19.64 71.69 18.55L71.69 18.55L72.66 18.55Q72.76 19.73 73.37 20.52Q73.98 21.31 74.95 21.71Q75.92 22.10 77.08 22.10L77.08 22.10Q78.46 22.10 79.56 21.65Q80.66 21.20 81.36 20.41Q82.06 19.62 82.19 18.60L82.19 18.60Q82.31 17.68 82.10 16.96Q81.90 16.24 81.34 15.73Q80.77 15.23 79.80 14.95L79.80 14.95L76.42 13.99Q74.74 13.51 73.91 12.55Q73.09 11.58 73.30 10.03L73.30 10.03Q73.48 8.66 74.27 7.58Q75.06 6.49 76.33 5.86Q77.60 5.23 79.19 5.23L79.19 5.23Q80.98 5.23 82.08 5.95Q83.18 6.66 83.64 7.76Q84.10 8.87 83.94 10.03L83.94 10.03L82.96 10.03Q83.02 8.59 82.47 7.76Q81.92 6.92 81.01 6.57Q80.09 6.22 79.02 6.22L79.02 6.22Q78.08 6.22 77.03 6.61Q75.98 7.01 75.19 7.85Q74.40 8.69 74.22 10.01L74.22 10.01Q74.08 11.12 74.71 11.83Q75.34 12.54 77.11 13.07L77.11 13.07L80.35 14.03Q81.25 14.29 81.83 14.75Q82.42 15.22 82.73 15.82Q83.05 16.42 83.14 17.11Q83.22 17.81 83.12 18.55L83.12 18.55Q82.97 19.78 82.22 20.80Q81.47 21.82 80.15 22.43Q78.83 23.04 76.96 23.04ZM89.42 23.04L89.42 23.04Q88.30 23.04 87.53 22.63Q86.76 22.21 86.42 21.45Q86.09 20.69 86.22 19.63L86.22 19.63Q86.51 17.54 87.89 16.59Q89.27 15.64 92.12 15.53L92.12 15.53L94.76 15.43L94.94 14.23Q95.15 12.73 94.34 11.90Q93.54 11.06 92.08 11.06L92.08 11.06Q90.84 11.06 89.83 11.74Q88.82 12.42 88.46 13.70L88.46 13.70L87.53 13.70Q87.71 12.83 88.31 12.01Q88.92 11.20 89.92 10.67Q90.91 10.15 92.24 10.15L92.24 10.15Q93.46 10.15 94.32 10.64Q95.18 11.14 95.58 12.04Q95.98 12.95 95.80 14.21L95.80 14.21L94.60 22.80L93.80 22.80L94.09 20.40Q93.12 21.95 91.90 22.49Q90.67 23.04 89.42 23.04ZM89.68 22.15L89.68 22.15Q90.38 22.15 91.15 21.87Q91.92 21.59 92.60 21.10Q93.28 20.62 93.74 20.02Q94.20 19.42 94.28 18.79L94.28 18.79L94.62 16.37L92.42 16.42Q90.60 16.45 89.50 16.79Q88.39 17.12 87.85 17.80Q87.30 18.48 87.13 19.56L87.13 19.56Q86.98 20.78 87.67 21.47Q88.37 22.15 89.68 22.15ZM99.54 22.80L98.69 22.80L100.43 10.39L101.21 10.39L100.98 12.24Q101.35 11.65 101.96 11.18Q102.58 10.70 103.37 10.43Q104.17 10.15 105.10 10.15L105.10 10.15Q106.25 10.15 107.08 10.64Q107.92 11.14 108.29 12.16Q108.67 13.18 108.44 14.76L108.44 14.76L107.32 22.80L106.45 22.80L107.59 14.76Q107.86 12.96 107.14 12.01Q106.43 11.06 104.99 11.06L104.99 11.06Q103.97 11.06 103.06 11.40Q102.14 11.74 101.53 12.42Q100.91 13.10 100.76 14.16L100.76 14.16L99.54 22.80ZM114.72 23.04L114.72 23.04Q113.52 23.04 112.63 22.66Q111.73 22.27 111.26 21.48Q110.78 20.69 110.82 19.49L110.82 19.49L111.74 19.49Q111.78 20.28 112.13 20.87Q112.48 21.47 113.15 21.80Q113.83 22.13 114.85 22.13L114.85 22.13Q116.24 22.13 117.18 21.51Q118.12 20.89 118.30 19.61L118.30 19.61Q118.42 18.74 118.08 18.22Q117.74 17.70 116.99 17.46L116.99 17.46L114.36 16.64Q113.16 16.26 112.53 15.56Q111.90 14.87 112.07 13.63L112.07 13.63Q112.21 12.59 112.75 11.81Q113.28 11.03 114.22 10.59Q115.15 10.15 116.48 10.15L116.48 10.15Q118.10 10.15 119.02 10.96Q119.94 11.76 119.78 13.44L119.78 13.44L118.86 13.44Q118.90 12.37 118.28 11.72Q117.67 11.06 116.36 11.06L116.36 11.06Q115.01 11.06 114.08 11.69Q113.16 12.31 112.98 13.63L112.98 13.63Q112.86 14.47 113.33 14.95Q113.81 15.42 114.73 15.71L114.73 15.71L117.35 16.52Q117.95 16.72 118.34 17.03Q118.74 17.34 118.96 17.74Q119.17 18.13 119.23 18.60Q119.28 19.07 119.21 19.56L119.21 19.56Q119.06 20.60 118.52 21.38Q117.98 22.16 117.04 22.60Q116.09 23.04 114.72 23.04ZM136.04 22.80L135.13 22.80L135.83 17.78L128.15 17.78L128.32 16.61L137.48 5.45L138.47 5.45L136.90 16.80L139.72 16.80L139.57 17.78L136.74 17.78L136.04 22.80ZM137.27 7.06L129.23 16.80L135.89 16.80L137.27 7.06ZM146.15 23.06L146.15 23.06Q143.78 23.06 142.65 20.89Q141.52 18.71 142.14 14.21L142.14 14.21Q142.57 11.17 143.51 9.17Q144.46 7.18 145.78 6.19Q147.11 5.21 148.68 5.21L148.68 5.21Q151.03 5.21 152.18 7.42Q153.32 9.62 152.69 14.16L152.69 14.16Q152.05 18.67 150.28 20.87Q148.51 23.06 146.15 23.06ZM146.33 22.08L146.33 22.08Q148.33 22.08 149.69 20.20Q151.06 18.31 151.64 14.16L151.64 14.16Q152.23 9.96 151.37 8.08Q150.52 6.19 148.54 6.19L148.54 6.19Q146.56 6.19 145.15 8.09Q143.74 9.98 143.15 14.16L143.15 14.16Q142.57 18.30 143.45 20.19Q144.34 22.08 146.33 22.08ZM158.96 23.06L158.96 23.06Q156.60 23.06 155.47 20.89Q154.33 18.71 154.96 14.21L154.96 14.21Q155.39 11.17 156.33 9.17Q157.27 7.18 158.60 6.19Q159.92 5.21 161.50 5.21L161.50 5.21Q163.85 5.21 164.99 7.42Q166.14 9.62 165.50 14.16L165.50 14.16Q164.87 18.67 163.10 20.87Q161.33 23.06 158.96 23.06ZM159.14 22.08L159.14 22.08Q161.15 22.08 162.51 20.20Q163.87 18.31 164.46 14.16L164.46 14.16Q165.05 9.96 164.19 8.08Q163.33 6.19 161.35 6.19L161.35 6.19Q159.37 6.19 157.96 8.09Q156.55 9.98 155.96 14.16L155.96 14.16Q155.39 18.30 156.27 20.19Q157.15 22.08 159.14 22.08ZM174.92 22.80L174.04 22.80L175.79 10.39L176.66 10.39L174.92 22.80ZM177.25 6.89L176.20 6.89L176.39 5.45L177.44 5.45L177.25 6.89ZM182.80 22.80L182.80 22.80Q181.93 22.80 181.48 22.52Q181.03 22.24 180.92 21.62Q180.80 21.01 180.94 20.02L180.94 20.02L182.17 11.21L180.30 11.21L180.43 10.39L182.27 10.39L183.00 6.91L183.66 6.91L183.18 10.39L185.82 10.39L185.70 11.21L183.06 11.21L181.84 19.90Q181.66 21.19 182.00 21.53Q182.35 21.86 183.35 21.86L183.35 21.86L184.31 21.86L184.19 22.68Q183.98 22.75 183.60 22.78Q183.22 22.80 182.80 22.80ZM190.42 23.04L190.42 23.04Q189.29 23.04 188.52 22.63Q187.75 22.21 187.42 21.45Q187.08 20.69 187.21 19.63L187.21 19.63Q187.50 17.54 188.88 16.59Q190.26 15.64 193.12 15.53L193.12 15.53L195.76 15.43L195.94 14.23Q196.14 12.73 195.34 11.90Q194.53 11.06 193.07 11.06L193.07 11.06Q191.83 11.06 190.82 11.74Q189.82 12.42 189.46 13.70L189.46 13.70L188.52 13.70Q188.70 12.83 189.31 12.01Q189.91 11.20 190.91 10.67Q191.90 10.15 193.24 10.15L193.24 10.15Q194.45 10.15 195.31 10.64Q196.18 11.14 196.57 12.04Q196.97 12.95 196.79 14.21L196.79 14.21L195.59 22.80L194.80 22.80L195.08 20.40Q194.11 21.95 192.89 22.49Q191.66 23.04 190.42 23.04ZM190.67 22.15L190.67 22.15Q191.38 22.15 192.14 21.87Q192.91 21.59 193.59 21.10Q194.27 20.62 194.73 20.02Q195.19 19.42 195.28 18.79L195.28 18.79L195.61 16.37L193.42 16.42Q191.59 16.45 190.49 16.79Q189.38 17.12 188.84 17.80Q188.29 18.48 188.12 19.56L188.12 19.56Q187.97 20.78 188.66 21.47Q189.36 22.15 190.67 22.15ZM201.78 22.90L201.78 22.90Q201.22 22.90 200.84 22.67Q200.47 22.44 200.27 22.03Q200.08 21.62 200.03 21.08Q199.99 20.53 200.08 19.90L200.08 19.90L202.19 4.97L203.06 4.97L200.94 19.90Q200.78 21.10 201.12 21.60Q201.46 22.10 201.92 22.10L201.92 22.10L202.62 22.10L202.54 22.80Q202.31 22.85 202.10 22.87Q201.89 22.90 201.78 22.90ZM206.96 22.80L206.08 22.80L207.83 10.39L208.70 10.39L206.96 22.80ZM209.29 6.89L208.24 6.89L208.43 5.45L209.48 5.45L209.29 6.89ZM215.52 23.04L215.52 23.04Q214.02 23.04 212.99 22.35Q211.96 21.66 211.53 20.24Q211.10 18.82 211.40 16.63L211.40 16.63Q211.68 14.69 212.42 13.23Q213.17 11.77 214.40 10.96Q215.63 10.15 217.33 10.15L217.33 10.15Q218.38 10.15 219.23 10.54Q220.09 10.93 220.63 11.72Q221.17 12.52 221.23 13.73L221.23 13.73L220.28 13.73Q220.27 12.91 219.88 12.31Q219.49 11.71 218.81 11.39Q218.12 11.06 217.21 11.06L217.21 11.06Q215.40 11.06 214.06 12.43Q212.72 13.79 212.33 16.63L212.33 16.63Q211.98 19.10 212.78 20.63Q213.58 22.15 215.65 22.15L215.65 22.15Q216.56 22.15 217.34 21.83Q218.12 21.50 218.68 20.90Q219.24 20.30 219.48 19.49L219.48 19.49L220.43 19.49Q220.03 20.69 219.27 21.48Q218.51 22.27 217.54 22.66Q216.56 23.04 215.52 23.04Z"/></svg>