<svg xmlns="http://www.w3.org/2000/svg" xmlns:xlink="http://www.w3.org/1999/xlink" width="212.51999999999998" height="30"><path fill="black" d="M17.11 24L3.96 24L3.96 7.20L6.55 7.20L6.55 21.50L17.11 21.50L17.11 24ZM30.70 24.24L30.70 24.24Q28.32 24.24 26.46 23.41Q24.60 22.58 23.56 21.13Q22.51 19.68 22.51 17.83L22.51 17.83Q22.51 16.27 23.14 15.04Q23.76 13.80 24.86 12.92Q25.97 12.05 27.41 11.58Q28.85 11.11 30.48 11.11L30.48 11.11Q31.99 11.11 33.31 11.56Q34.63 12 35.64 12.82Q36.65 13.63 37.20 14.75Q37.75 15.86 37.73 17.23L37.73 17.23L37.70 18.48L24.72 18.48L24.17 16.51L35.57 16.51L35.21 16.73L35.21 16.15Q35.09 15.34 34.39 14.71Q33.70 14.09 32.66 13.74Q31.63 13.39 30.48 13.39L30.48 13.39Q28.92 13.39 27.66 13.81Q26.40 14.23 25.68 15.18Q24.96 16.13 24.96 17.66L24.96 17.66Q24.96 18.96 25.74 19.92Q26.52 20.88 27.91 21.41Q29.30 21.94 31.13 21.94L31.13 21.94Q32.88 21.94 34.06 21.48Q35.23 21.02 36.05 20.50L36.05 20.50L37.15 22.34Q36.48 22.82 35.44 23.27Q34.39 23.71 33.17 23.98Q31.94 24.24 30.70 24.24ZM59.42 24L55.92 24L50.64 18.46L50.18 17.98L43.97 11.40L47.57 11.40L52.22 16.73L52.66 17.18L59.42 24ZM46.99 24L43.61 24L49.73 17.33L51.38 18.86L46.99 24ZM59.18 11.40L52.80 18.02L51.34 16.30L55.78 11.40L59.18 11.40ZM72.34 24.24L72.34 24.24Q69.96 24.24 68.10 23.41Q66.24 22.58 65.20 21.13Q64.15 19.68 64.15 17.83L64.15 17.83Q64.15 16.27 64.78 15.04Q65.40 13.80 66.50 12.92Q67.61 12.05 69.05 11.58Q70.49 11.11 72.12 11.11L72.12 11.11Q73.63 11.11 74.95 11.56Q76.27 12 77.28 12.82Q78.29 13.63 78.84 14.75Q79.39 15.86 79.37 17.23L79.37 17.23L79.34 18.48L66.36 18.48L65.81 16.51L77.21 16.51L76.85 16.73L76.85 16.15Q76.73 15.34 76.03 14.71Q75.34 14.09 74.30 13.74Q73.27 13.39 72.12 13.39L72.12 13.39Q70.56 13.39 69.30 13.81Q68.04 14.23 67.32 15.18Q66.60 16.13 66.60 17.66L66.60 17.66Q66.60 18.96 67.38 19.92Q68.16 20.88 69.55 21.41Q70.94 21.94 72.77 21.94L72.77 21.94Q74.52 21.94 75.70 21.48Q76.87 21.02 77.69 20.50L77.69 20.50L78.79 22.34Q78.12 22.82 77.08 23.27Q76.03 23.71 74.81 23.98Q73.58 24.24 72.34 24.24ZM86.90 24L86.90 24L86.90 11.40L89.38 11.40L89.38 14.76L88.56 14.86Q89.06 13.97 89.90 13.12Q90.74 12.26 91.91 11.70Q93.07 11.14 94.46 11.14L94.46 11.14Q96.36 11.14 97.62 11.83Q98.88 12.53 99.50 13.75Q100.13 14.98 100.13 16.51L100.13 16.51L100.13 24L97.66 24L97.66 16.87Q97.66 15.82 97.15 15.04Q96.65 14.26 95.78 13.84Q94.92 13.42 93.84 13.44L93.84 13.44Q92.88 13.44 92.06 13.78Q91.25 14.11 90.65 14.66Q90.05 15.22 89.71 15.86Q89.38 16.51 89.38 17.14L89.38 17.14L89.38 24L88.15 24Q87.60 24 87.29 24Q86.98 24 86.90 24ZM114.38 24.24L114.38 24.24Q112.20 24.24 110.58 23.40Q108.96 22.56 108.07 21.07Q107.18 19.58 107.18 17.69L107.18 17.69Q107.18 15.77 108.12 14.29Q109.06 12.82 110.70 11.98Q112.34 11.14 114.48 11.14L114.48 11.14Q115.78 11.14 116.92 11.46Q118.06 11.78 118.91 12.30Q119.76 12.82 120.23 13.43Q120.70 14.04 120.70 14.62L120.70 14.62L119.98 14.66L119.98 6.24L122.45 6.24L122.45 24L119.98 24L119.98 20.62L120.46 20.76Q120.46 21.34 119.95 21.94Q119.45 22.54 118.61 23.06Q117.77 23.59 116.66 23.92Q115.56 24.24 114.38 24.24ZM114.89 21.98L114.89 21.98Q116.42 21.98 117.59 21.42Q118.75 20.86 119.41 19.88Q120.07 18.91 120.07 17.69L120.07 17.69Q120.07 16.46 119.41 15.50Q118.75 14.54 117.59 13.98Q116.42 13.42 114.89 13.42L114.89 13.42Q113.38 13.42 112.20 13.97Q111.02 14.52 110.36 15.49Q109.70 16.46 109.70 17.69L109.70 17.69Q109.70 18.91 110.36 19.88Q111.02 20.86 112.20 21.42Q113.38 21.98 114.89 21.98ZM147.62 24L145.03 24L145.03 9.70L138.98 9.70L138.98 7.20L153.82 7.20L153.82 9.70L147.62 9.70L147.62 24ZM164.18 24.24L164.18 24.24Q161.81 24.24 159.95 23.41Q158.09 22.58 157.04 21.13Q156 19.68 156 17.83L156 17.83Q156 16.27 156.62 15.04Q157.25 13.80 158.35 12.92Q159.46 12.05 160.90 11.58Q162.34 11.11 163.97 11.11L163.97 11.11Q165.48 11.11 166.80 11.56Q168.12 12 169.13 12.82Q170.14 13.63 170.69 14.75Q171.24 15.86 171.22 17.23L171.22 17.23L171.19 18.48L158.21 18.48L157.66 16.51L169.06 16.51L168.70 16.73L168.70 16.15Q168.58 15.34 167.88 14.71Q167.18 14.09 166.15 13.74Q165.12 13.39 163.97 13.39L163.97 13.39Q162.41 13.39 161.15 13.81Q159.89 14.23 159.17 15.18Q158.45 16.13 158.45 17.66L158.45 17.66Q158.45 18.96 159.23 19.92Q160.01 20.88 161.40 21.41Q162.79 21.94 164.62 21.94L164.62 21.94Q166.37 21.94 167.54 21.48Q168.72 21.02 169.54 20.50L169.54 20.50L170.64 22.34Q169.97 22.82 168.92 23.27Q167.88 23.71 166.66 23.98Q165.43 24.24 164.18 24.24ZM181.25 24L178.75 24L178.75 11.40L181.25 11.40L181.25 15.86L180.62 15.55Q180.98 14.33 181.82 13.33Q182.66 12.34 183.77 11.74Q184.87 11.14 186.05 11.14L186.05 11.14Q186.84 11.14 187.60 11.30Q188.35 11.47 188.76 11.76L188.76 11.76L188.11 14.33Q187.63 14.06 186.95 13.90Q186.26 13.73 185.64 13.73L185.64 13.73Q184.66 13.73 183.85 14.08Q183.05 14.42 182.46 14.98Q181.87 15.53 181.56 16.21Q181.25 16.90 181.25 17.62L181.25 17.62L181.25 24ZM200.18 24.24L200.18 24.24Q198.05 24.24 196.44 23.40Q194.83 22.56 193.96 21.07Q193.08 19.58 193.08 17.69L193.08 17.69Q193.08 15.77 194.00 14.29Q194.93 12.82 196.58 11.98Q198.24 11.14 200.35 11.14L200.35 11.14Q201.67 11.14 202.79 11.45Q203.90 11.76 204.74 12.29Q205.58 12.82 206.05 13.43Q206.52 14.04 206.54 14.66L206.54 14.66L205.85 14.66L205.85 11.40L208.32 11.40L208.32 24L205.85 24L205.85 20.62L206.35 20.74Q206.33 21.31 205.81 21.92Q205.30 22.54 204.44 23.06Q203.59 23.59 202.49 23.92Q201.38 24.24 200.18 24.24ZM200.76 21.96L200.76 21.96Q202.30 21.96 203.47 21.40Q204.65 20.83 205.30 19.86Q205.94 18.89 205.94 17.69L205.94 17.69Q205.94 16.49 205.30 15.53Q204.65 14.57 203.47 14.00Q202.30 13.44 200.76 13.44L200.76 13.44Q199.25 13.44 198.08 14.00Q196.92 14.57 196.26 15.53Q195.60 16.49 195.60 17.69L195.60 17.69Q195.60 18.89 196.26 19.86Q196.92 20.83 198.08 21.40Q199.25 21.96 200.76 21.96Z"/></svg>