<svg xmlns="http://www.w3.org/2000/svg" xmlns:xlink="http://www.w3.org/1999/xlink" width="228.96" height="28.8"><path fill="black" d="M5.11 22.44L1.94 22.44L1.94 5.86L11.33 5.86L10.99 8.21L5.11 8.21L5.11 13.18L10.22 13.18L10.22 15.53L5.11 15.53L5.11 22.44ZM13.58 9.74L16.66 9.74L16.66 22.44L13.58 22.44L13.58 9.74ZM15.10 3.31Q15.96 3.31 16.50 3.85Q17.04 4.39 17.04 5.18L17.04 5.18Q17.04 5.98 16.50 6.50Q15.96 7.03 15.10 7.03L15.10 7.03Q14.26 7.03 13.72 6.50Q13.18 5.98 13.18 5.18L13.18 5.18Q13.18 4.39 13.72 3.85Q14.26 3.31 15.10 3.31L15.10 3.31ZM26.62 9.41Q27.31 9.41 27.89 9.58L27.89 9.58L27.36 12.55Q26.78 12.41 26.23 12.41L26.23 12.41Q25.10 12.41 24.46 13.21Q23.81 14.02 23.42 15.67L23.42 15.67L23.42 22.44L20.35 22.44L20.35 9.74L23.02 9.74L23.30 12.24Q23.76 10.87 24.62 10.14Q25.49 9.41 26.62 9.41L26.62 9.41ZM39.19 19.08Q39.19 19.82 39.42 20.17Q39.65 20.52 40.15 20.71L40.15 20.71L39.50 22.75Q38.42 22.66 37.74 22.22Q37.06 21.79 36.70 20.90L36.70 20.90Q36.05 21.86 35.08 22.33Q34.10 22.80 32.90 22.80L32.90 22.80Q31.01 22.80 29.90 21.72Q28.80 20.64 28.80 18.89L28.80 18.89Q28.80 16.82 30.30 15.73Q31.80 14.64 34.58 14.64L34.58 14.64L36.17 14.64L36.17 13.92Q36.17 12.70 35.60 12.20Q35.04 11.71 33.79 11.71L33.79 11.71Q32.40 11.71 30.43 12.38L30.43 12.38L29.71 10.30Q32.09 9.38 34.32 9.38L34.32 9.38Q39.19 9.38 39.19 13.75L39.19 13.75L39.19 19.08ZM33.72 20.57Q35.28 20.57 36.17 19.01L36.17 19.01L36.17 16.44L34.90 16.44Q31.92 16.44 31.92 18.65L31.92 18.65Q31.92 19.56 32.38 20.06Q32.83 20.57 33.72 20.57L33.72 20.57ZM53.78 5.50Q55.54 5.50 56.83 6Q58.13 6.50 59.26 7.54L59.26 7.54L57.70 9.34Q56.81 8.59 55.91 8.26Q55.01 7.92 53.98 7.92L53.98 7.92Q52.82 7.92 52.12 8.44Q51.41 8.95 51.41 9.89L51.41 9.89Q51.41 10.51 51.68 10.92Q51.96 11.33 52.68 11.69Q53.40 12.05 54.82 12.48L54.82 12.48Q57.26 13.25 58.50 14.39Q59.74 15.53 59.74 17.71L59.74 17.71Q59.74 19.20 58.98 20.35Q58.22 21.50 56.81 22.15Q55.39 22.80 53.45 22.80L53.45 22.80Q51.55 22.80 50.05 22.19Q48.55 21.58 47.47 20.52L47.47 20.52L49.10 18.70Q50.06 19.51 51.10 19.93Q52.13 20.35 53.38 20.35L53.38 20.35Q54.74 20.35 55.58 19.70Q56.42 19.06 56.42 17.88L56.42 17.88Q56.42 17.16 56.14 16.69Q55.85 16.22 55.15 15.85Q54.46 15.48 53.14 15.07L53.14 15.07Q50.50 14.26 49.32 13.10Q48.14 11.95 48.14 10.08L48.14 10.08Q48.14 8.71 48.86 7.68Q49.58 6.65 50.87 6.07Q52.15 5.50 53.78 5.50L53.78 5.50ZM71.74 19.08Q71.74 19.82 71.96 20.17Q72.19 20.52 72.70 20.71L72.70 20.71L72.05 22.75Q70.97 22.66 70.28 22.22Q69.60 21.79 69.24 20.90L69.24 20.90Q68.59 21.86 67.62 22.33Q66.65 22.80 65.45 22.80L65.45 22.80Q63.55 22.80 62.45 21.72Q61.34 20.64 61.34 18.89L61.34 18.89Q61.34 16.82 62.84 15.73Q64.34 14.64 67.13 14.64L67.13 14.64L68.71 14.64L68.71 13.92Q68.71 12.70 68.15 12.20Q67.58 11.71 66.34 11.71L66.34 11.71Q64.94 11.71 62.98 12.38L62.98 12.38L62.26 10.30Q64.63 9.38 66.86 9.38L66.86 9.38Q71.74 9.38 71.74 13.75L71.74 13.75L71.74 19.08ZM66.26 20.57Q67.82 20.57 68.71 19.01L68.71 19.01L68.71 16.44L67.44 16.44Q64.46 16.44 64.46 18.65L64.46 18.65Q64.46 19.56 64.92 20.06Q65.38 20.57 66.26 20.57L66.26 20.57ZM82.22 9.38Q83.93 9.38 84.88 10.40Q85.82 11.42 85.82 13.25L85.82 13.25L85.82 22.44L82.75 22.44L82.75 13.73Q82.75 12.60 82.36 12.14Q81.96 11.69 81.19 11.69L81.19 11.69Q80.40 11.69 79.76 12.18Q79.13 12.67 78.53 13.61L78.53 13.61L78.53 22.44L75.46 22.44L75.46 9.74L78.12 9.74L78.36 11.40Q79.92 9.38 82.22 9.38L82.22 9.38ZM93.41 9.38Q95.98 9.38 97.92 10.90L97.92 10.90L96.72 12.70Q95.09 11.66 93.53 11.66L93.53 11.66Q92.62 11.66 92.11 12.01Q91.61 12.36 91.61 12.94L91.61 12.94Q91.61 13.37 91.82 13.66Q92.04 13.94 92.60 14.20Q93.17 14.45 94.27 14.76L94.27 14.76Q96.34 15.31 97.33 16.22Q98.33 17.14 98.33 18.77L98.33 18.77Q98.33 20.66 96.79 21.73Q95.26 22.80 92.98 22.80L92.98 22.80Q91.42 22.80 90.13 22.32Q88.85 21.84 87.91 21L87.91 21L89.45 19.27Q91.10 20.52 92.90 20.52L92.90 20.52Q93.94 20.52 94.55 20.11Q95.16 19.70 95.16 18.98L95.16 18.98Q95.16 18.43 94.93 18.11Q94.70 17.78 94.12 17.53Q93.53 17.28 92.28 16.92L92.28 16.92Q90.34 16.39 89.42 15.44Q88.51 14.50 88.51 13.08L88.51 13.08Q88.51 12.02 89.12 11.18Q89.74 10.34 90.85 9.86Q91.97 9.38 93.41 9.38L93.41 9.38ZM115.87 6.29L115.51 8.57L109.46 8.57L109.46 12.58Q110.66 11.98 111.91 11.98L111.91 11.98Q113.26 11.98 114.31 12.60Q115.37 13.22 115.96 14.40Q116.54 15.58 116.54 17.18L116.54 17.18Q116.54 18.84 115.80 20.11Q115.06 21.38 113.69 22.09Q112.32 22.80 110.52 22.80L110.52 22.80Q108.91 22.80 107.68 22.21Q106.44 21.62 105.43 20.52L105.43 20.52L107.18 18.89Q108.58 20.42 110.45 20.42L110.45 20.42Q111.82 20.42 112.60 19.58Q113.38 18.74 113.38 17.18L113.38 17.18Q113.38 14.18 110.78 14.18L110.78 14.18Q110.23 14.18 109.75 14.32Q109.27 14.45 108.70 14.74L108.70 14.74L106.51 14.74L106.51 6.29L115.87 6.29ZM124.32 6Q127.15 6 128.63 8.16Q130.10 10.32 130.10 14.38L130.10 14.38Q130.10 18.46 128.63 20.63Q127.15 22.80 124.32 22.80L124.32 22.80Q121.49 22.80 120.01 20.63Q118.54 18.46 118.54 14.38L118.54 14.38Q118.54 10.32 120.01 8.16Q121.49 6 124.32 6L124.32 6ZM124.32 8.33Q122.95 8.33 122.33 9.71Q121.70 11.09 121.70 14.38L121.70 14.38Q121.70 17.69 122.33 19.08Q122.95 20.47 124.32 20.47L124.32 20.47Q125.69 20.47 126.31 19.09Q126.94 17.71 126.94 14.38L126.94 14.38Q126.94 11.06 126.31 9.70Q125.69 8.33 124.32 8.33L124.32 8.33ZM138.07 6Q140.90 6 142.38 8.16Q143.86 10.32 143.86 14.38L143.86 14.38Q143.86 18.46 142.38 20.63Q140.90 22.80 138.07 22.80L138.07 22.80Q135.24 22.80 133.76 20.63Q132.29 18.46 132.29 14.38L132.29 14.38Q132.29 10.32 133.76 8.16Q135.24 6 138.07 6L138.07 6ZM138.07 8.33Q136.70 8.33 136.08 9.71Q135.46 11.09 135.46 14.38L135.46 14.38Q135.46 17.69 136.08 19.08Q136.70 20.47 138.07 20.47L138.07 20.47Q139.44 20.47 140.06 19.09Q140.69 17.71 140.69 14.38L140.69 14.38Q140.69 11.06 140.06 9.70Q139.44 8.33 138.07 8.33L138.07 8.33ZM159.58 9.38Q161.28 9.38 162.23 10.40Q163.18 11.42 163.18 13.25L163.18 13.25L163.18 22.44L160.10 22.44L160.10 13.73Q160.10 12.60 159.71 12.14Q159.31 11.69 158.54 11.69L158.54 11.69Q157.75 11.69 157.12 12.18Q156.48 12.67 155.88 13.61L155.88 13.61L155.88 22.44L152.81 22.44L152.81 9.74L155.47 9.74L155.71 11.40Q157.27 9.38 159.58 9.38L159.58 9.38ZM171.94 9.38Q174.74 9.38 176.32 11.17Q177.89 12.96 177.89 16.08L177.89 16.08Q177.89 18.07 177.17 19.60Q176.45 21.12 175.10 21.96Q173.76 22.80 171.91 22.80L171.91 22.80Q169.10 22.80 167.52 21.01Q165.94 19.22 165.94 16.08L165.94 16.08Q165.94 14.09 166.66 12.58Q167.38 11.06 168.73 10.22Q170.09 9.38 171.94 9.38L171.94 9.38ZM171.94 11.71Q169.18 11.71 169.18 16.08L169.18 16.08Q169.18 18.34 169.86 19.40Q170.54 20.47 171.91 20.47L171.91 20.47Q173.28 20.47 173.96 19.39Q174.65 18.31 174.65 16.08L174.65 16.08Q174.65 13.85 173.96 12.78Q173.28 11.71 171.94 11.71L171.94 11.71ZM187.03 9.41Q187.73 9.41 188.30 9.58L188.30 9.58L187.78 12.55Q187.20 12.41 186.65 12.41L186.65 12.41Q185.52 12.41 184.87 13.21Q184.22 14.02 183.84 15.67L183.84 15.67L183.84 22.44L180.77 22.44L180.77 9.74L183.43 9.74L183.72 12.24Q184.18 10.87 185.04 10.14Q185.90 9.41 187.03 9.41L187.03 9.41ZM203.69 9.38Q205.22 9.38 206.14 10.43Q207.05 11.47 207.05 13.25L207.05 13.25L207.05 22.44L203.98 22.44L203.98 13.73Q203.98 11.69 202.58 11.69L202.58 11.69Q201.84 11.69 201.30 12.16Q200.76 12.62 200.18 13.61L200.18 13.61L200.18 22.44L197.11 22.44L197.11 13.73Q197.11 11.69 195.72 11.69L195.72 11.69Q194.95 11.69 194.41 12.16Q193.87 12.62 193.30 13.61L193.30 13.61L193.30 22.44L190.22 22.44L190.22 9.74L192.89 9.74L193.13 11.40Q194.57 9.38 196.80 9.38L196.80 9.38Q197.90 9.38 198.71 9.95Q199.51 10.51 199.87 11.52L199.87 11.52Q200.64 10.49 201.56 9.94Q202.49 9.38 203.69 9.38L203.69 9.38ZM220.01 19.08Q220.01 19.82 220.24 20.17Q220.46 20.52 220.97 20.71L220.97 20.71L220.32 22.75Q219.24 22.66 218.56 22.22Q217.87 21.79 217.51 20.90L217.51 20.90Q216.86 21.86 215.89 22.33Q214.92 22.80 213.72 22.80L213.72 22.80Q211.82 22.80 210.72 21.72Q209.62 20.64 209.62 18.89L209.62 18.89Q209.62 16.82 211.12 15.73Q212.62 14.64 215.40 14.64L215.40 14.64L216.98 14.64L216.98 13.92Q216.98 12.70 216.42 12.20Q215.86 11.71 214.61 11.71L214.61 11.71Q213.22 11.71 211.25 12.38L211.25 12.38L210.53 10.30Q212.90 9.38 215.14 9.38L215.14 9.38Q220.01 9.38 220.01 13.75L220.01 13.75L220.01 19.08ZM214.54 20.57Q216.10 20.57 216.98 19.01L216.98 19.01L216.98 16.44L215.71 16.44Q212.74 16.44 212.74 18.65L212.74 18.65Q212.74 19.56 213.19 20.06Q213.65 20.57 214.54 20.57L214.54 20.57ZM226.73 22.80Q225.26 22.80 224.44 21.95Q223.61 21.10 223.61 19.54L223.61 19.54L223.61 4.66L226.68 4.32L226.68 19.44Q226.68 20.33 227.40 20.33L227.40 20.33Q227.76 20.33 228.12 20.21L228.12 20.21L228.77 22.37Q227.81 22.80 226.73 22.80L226.73 22.80Z"/></svg>