<svg xmlns="http://www.w3.org/2000/svg" xmlns:xlink="http://www.w3.org/1999/xlink" width="110.6484375" height="32.26171875"><path fill="black" d="M18.39 22.71L18.39 22.71Q18.39 22.89 18.34 23.06Q18.29 23.23 18.25 23.40Q18.21 23.58 18.19 23.75Q18.16 23.93 18.21 24.11L18.21 24.11Q17.96 24.21 17.74 24.35Q17.52 24.49 17.29 24.66L17.29 24.66Q17.14 24.64 17.00 24.60Q16.85 24.56 16.71 24.52Q16.57 24.47 16.42 24.45Q16.28 24.43 16.13 24.48L16.13 24.48Q15.95 24.34 15.77 24.21Q15.60 24.07 15.36 24.02L15.36 24.02Q15.36 23.50 15.29 22.95L15.29 22.95Q15.23 22.71 15.14 22.49Q15.05 22.27 15.05 22.01L15.05 22.01Q15.05 21.81 15.09 21.63Q15.14 21.45 15.14 21.25L15.14 21.25Q15.14 21.05 15.06 20.88Q14.99 20.71 14.88 20.54L14.88 20.54Q14.86 20.27 14.88 19.99Q14.91 19.71 14.91 19.44L14.91 19.44Q14.91 19.21 14.87 18.91Q14.82 18.61 14.59 18.46L14.59 18.46L14.59 18.32Q14.59 18.19 14.54 18.08Q14.50 17.96 14.50 17.84L14.50 17.84Q14.44 17.77 14.35 17.55Q14.26 17.33 14.16 17.08Q14.06 16.83 13.99 16.60Q13.91 16.37 13.90 16.28L13.90 16.28Q13.84 16.02 13.85 15.76Q13.85 15.49 13.85 15.22L13.85 15.22Q13.85 14.98 13.80 14.75Q13.75 14.53 13.67 14.31Q13.59 14.10 13.52 13.88Q13.45 13.65 13.42 13.42L13.42 13.42Q13.28 13.44 13.23 13.56Q13.18 13.69 13.17 13.83Q13.15 13.97 13.12 14.10Q13.09 14.24 12.96 14.29L12.96 14.29L12.94 14.36Q12.94 14.43 12.98 14.48Q13.03 14.54 13.03 14.63L13.03 14.63Q13.03 14.75 12.98 14.82Q12.93 14.89 12.86 14.95Q12.79 15 12.70 15.05Q12.62 15.11 12.57 15.20L12.57 15.20Q12.57 15.23 12.59 15.28Q12.60 15.32 12.60 15.34L12.60 15.34Q12.60 15.50 12.50 15.63Q12.41 15.76 12.41 15.94L12.41 15.94Q12.41 16.07 12.46 16.19Q12.50 16.31 12.50 16.44L12.50 16.44Q12.50 16.55 12.39 16.86Q12.27 17.18 12.11 17.54Q11.95 17.91 11.79 18.22Q11.64 18.53 11.57 18.61L11.57 18.61Q11.50 18.89 11.51 19.19Q11.53 19.49 11.50 19.78L11.50 19.78Q11.46 19.96 11.39 20.13Q11.32 20.30 11.26 20.47L11.26 20.47Q11.20 20.64 11.19 20.82Q11.18 21.01 11.09 21.18L11.09 21.18Q11.03 21.28 10.94 21.36Q10.85 21.43 10.75 21.51Q10.65 21.59 10.55 21.67Q10.45 21.75 10.39 21.87L10.39 21.87Q10.10 21.90 9.81 21.98Q9.52 22.05 9.21 22.05L9.21 22.05Q9.11 22.05 9 22.04Q8.89 22.03 8.79 22.01L8.79 22.01Q8.64 21.87 8.53 21.68Q8.43 21.49 8.23 21.39L8.23 21.39Q8.17 20.95 8.00 20.53Q7.84 20.11 7.46 19.85L7.46 19.85Q7.54 19.75 7.54 19.64L7.54 19.64Q7.54 19.44 7.40 19.28Q7.27 19.11 7.22 18.91L7.22 18.91Q7.20 18.77 7.21 18.64Q7.22 18.50 7.22 18.36L7.22 18.36Q7.22 18.27 7.18 18.21Q7.15 18.15 7.15 18.08L7.15 18.08Q7.22 18 7.22 17.91L7.22 17.91Q7.22 17.89 7.08 17.65Q6.94 17.40 6.77 17.07Q6.61 16.73 6.47 16.38Q6.33 16.03 6.32 15.82L6.32 15.82L6.39 15.77Q6.39 15.74 6.35 15.70Q6.32 15.67 6.32 15.61L6.32 15.61Q6.32 15.52 6.37 15.40Q6.42 15.29 6.46 15.20L6.46 15.20Q6.43 15.04 6.38 14.90Q6.33 14.77 6.27 14.64Q6.21 14.51 6.17 14.36Q6.13 14.21 6.14 14.04L6.14 14.04Q6.08 14.11 5.92 14.33Q5.77 14.54 5.61 14.79Q5.45 15.04 5.33 15.25Q5.20 15.46 5.20 15.53L5.20 15.53Q5.20 15.62 5.26 15.71Q5.31 15.80 5.31 15.89L5.31 15.89Q5.31 16.00 5.27 16.10Q5.23 16.20 5.19 16.29Q5.14 16.39 5.10 16.50Q5.06 16.61 5.06 16.73L5.06 16.73Q5.06 17.00 5.11 17.27Q5.16 17.54 5.16 17.81L5.16 17.81Q5.16 18.19 5.09 18.35Q5.02 18.50 4.90 18.57Q4.79 18.64 4.67 18.70Q4.55 18.75 4.44 18.91L4.44 18.91Q4.37 19.36 4.35 19.80Q4.34 20.25 4.30 20.70L4.30 20.70Q4.29 20.80 4.25 20.85Q4.21 20.89 4.15 20.92Q4.09 20.95 4.03 20.98Q3.96 21.01 3.91 21.08L3.91 21.08Q3.94 21.15 3.95 21.21Q3.96 21.27 3.96 21.34L3.96 21.34Q3.96 21.50 3.87 21.63Q3.79 21.76 3.67 21.87L3.67 21.87Q3.69 21.96 3.70 22.05Q3.71 22.15 3.71 22.25L3.71 22.25Q3.71 22.38 3.66 22.50Q3.61 22.62 3.50 22.71L3.50 22.71L3.50 22.80Q3.50 22.95 3.55 23.10Q3.60 23.26 3.60 23.40L3.60 23.40Q3.60 23.51 3.47 23.54Q3.35 23.57 3.29 23.65L3.29 23.65Q3.21 23.72 3.20 23.82Q3.19 23.93 3.12 24.02L3.12 24.02Q3.01 24.19 2.84 24.31Q2.66 24.43 2.52 24.59L2.52 24.59L2.29 24.59Q2.03 24.59 1.78 24.56Q1.52 24.54 1.28 24.59L1.28 24.59Q1.10 24.48 0.97 24.33Q0.84 24.18 0.73 24.02Q0.62 23.86 0.51 23.70Q0.40 23.54 0.27 23.40L0.27 23.40Q0.30 23.16 0.30 22.89Q0.29 22.62 0.29 22.35L0.29 22.35Q0.29 22.04 0.35 21.89Q0.40 21.74 0.48 21.63Q0.56 21.53 0.66 21.42Q0.75 21.30 0.82 21.08L0.82 21.08Q0.84 20.99 0.84 20.90Q0.84 20.81 0.84 20.72Q0.84 20.64 0.87 20.55Q0.89 20.46 0.96 20.38L0.96 20.38Q0.97 20.23 1.08 20.14Q1.18 20.06 1.30 20.00Q1.42 19.95 1.52 19.88Q1.63 19.82 1.65 19.69L1.65 19.69Q1.73 19.43 1.72 19.13Q1.70 18.82 1.70 18.55L1.70 18.55Q1.70 18.36 1.72 18.22Q1.75 18.07 1.79 17.94Q1.83 17.81 1.88 17.68Q1.92 17.54 1.97 17.38L1.97 17.38Q2.02 17.13 2.02 17.03Q2.03 16.92 2.04 16.85Q2.05 16.77 2.10 16.65Q2.14 16.54 2.29 16.28L2.29 16.28Q2.33 16.17 2.35 16.14Q2.37 16.11 2.38 16.10Q2.39 16.08 2.41 16.07Q2.44 16.05 2.52 15.98L2.52 15.98Q2.57 15.94 2.60 15.84Q2.64 15.75 2.67 15.65Q2.71 15.55 2.76 15.45Q2.81 15.35 2.91 15.29L2.91 15.29Q2.84 15.12 2.84 14.93L2.84 14.93Q2.84 14.64 2.98 14.39Q3.12 14.14 3.21 13.88L3.21 13.88Q3.07 13.52 3.07 13.14L3.07 13.14Q3.07 12.80 3.15 12.56Q3.23 12.32 3.35 12.12Q3.47 11.92 3.60 11.72Q3.73 11.52 3.82 11.26L3.82 11.26Q3.89 11.05 3.91 10.83Q3.93 10.61 3.94 10.39Q3.95 10.17 3.97 9.96Q3.98 9.74 4.05 9.55L4.05 9.55Q4.09 9.45 4.23 9.39Q4.37 9.34 4.44 9.25L4.44 9.25Q4.50 9.22 4.53 9.16Q4.56 9.09 4.58 9.04Q4.61 8.98 4.64 8.92Q4.68 8.87 4.76 8.86L4.76 8.86Q4.73 8.79 4.73 8.72Q4.72 8.65 4.72 8.58L4.72 8.58Q4.72 8.32 4.82 8.11Q4.92 7.90 5.09 7.76Q5.26 7.62 5.48 7.54Q5.71 7.46 5.95 7.46L5.95 7.46Q6.20 7.46 6.38 7.54Q6.55 7.62 6.71 7.72Q6.87 7.83 7.03 7.93Q7.18 8.04 7.39 8.10L7.39 8.10Q7.46 8.38 7.47 8.70Q7.48 9.01 7.54 9.32L7.54 9.32Q7.59 9.55 7.69 9.79Q7.78 10.02 7.78 10.25L7.78 10.25Q7.78 10.39 7.73 10.52Q7.68 10.65 7.68 10.78L7.68 10.78Q7.68 10.97 7.75 11.14Q7.83 11.31 7.93 11.47Q8.03 11.63 8.13 11.78Q8.24 11.94 8.31 12.11L8.31 12.11Q8.31 12.30 8.27 12.49Q8.23 12.67 8.23 12.84L8.23 12.84Q8.23 13.05 8.29 13.26Q8.34 13.46 8.42 13.66Q8.50 13.85 8.55 14.06Q8.61 14.26 8.61 14.47L8.61 14.47Q8.61 14.63 8.58 14.75Q8.54 14.88 8.54 15.02L8.54 15.02Q8.54 15.14 8.61 15.28Q8.67 15.41 8.77 15.54Q8.86 15.68 8.95 15.81Q9.04 15.94 9.09 16.05L9.09 16.05Q9.16 16.21 9.21 16.38Q9.26 16.55 9.31 16.71Q9.36 16.86 9.43 17.02Q9.49 17.17 9.62 17.29L9.62 17.29Q9.74 17.21 9.84 17.00Q9.94 16.79 10.03 16.51Q10.11 16.23 10.19 15.92Q10.27 15.61 10.34 15.33Q10.42 15.06 10.49 14.86Q10.56 14.66 10.63 14.60L10.63 14.60Q10.63 14.54 10.62 14.50Q10.61 14.46 10.61 14.43L10.61 14.43Q10.61 14.16 10.74 13.92Q10.88 13.68 10.95 13.42L10.95 13.42Q11.04 13.11 11.06 12.80Q11.07 12.49 11.18 12.20L11.18 12.20Q11.24 12.01 11.37 11.88Q11.50 11.74 11.57 11.58L11.57 11.58Q11.67 11.32 11.74 11.00Q11.81 10.69 11.81 10.39L11.81 10.39Q11.81 10.29 11.76 10.18Q11.71 10.07 11.71 9.94L11.71 9.94Q11.71 9.81 11.81 9.54Q11.92 9.28 12.07 9.01Q12.22 8.73 12.38 8.50Q12.54 8.26 12.64 8.17L12.64 8.17Q12.87 8.13 13.08 8.10Q13.29 8.07 13.51 8.07L13.51 8.07Q13.58 8.07 13.65 8.07Q13.72 8.07 13.80 8.10L13.80 8.10Q13.97 8.12 14.09 8.23Q14.20 8.33 14.36 8.40L14.36 8.40Q14.48 8.46 14.65 8.48Q14.81 8.51 14.88 8.63L14.88 8.63L14.88 8.79Q14.88 9.08 15.01 9.32Q15.13 9.56 15.29 9.80L15.29 9.80L15.27 10.01Q15.25 10.34 15.36 10.61Q15.47 10.89 15.60 11.19L15.60 11.19Q15.68 11.41 15.71 11.65Q15.74 11.89 15.74 12.14Q15.75 12.39 15.76 12.63Q15.77 12.88 15.82 13.11L15.82 13.11Q15.88 13.43 15.97 13.64Q16.05 13.85 16.05 14.19L16.05 14.19Q16.05 14.34 16.10 14.47Q16.14 14.59 16.17 14.71Q16.21 14.82 16.22 14.96Q16.24 15.11 16.20 15.29L16.20 15.29Q16.24 15.43 16.33 15.54Q16.42 15.64 16.51 15.75Q16.61 15.86 16.69 15.96Q16.78 16.07 16.83 16.21L16.83 16.21Q16.89 16.37 16.88 16.53Q16.86 16.69 16.90 16.83L16.90 16.83Q16.96 16.99 17.04 17.14Q17.13 17.29 17.13 17.45L17.13 17.45L17.13 17.72Q17.13 17.89 17.18 18.05Q17.23 18.20 17.29 18.35Q17.36 18.50 17.40 18.65Q17.45 18.80 17.45 18.96L17.45 18.96Q17.45 19.15 17.40 19.31Q17.36 19.48 17.36 19.66L17.36 19.66Q17.36 19.91 17.51 20.31Q17.67 20.72 17.87 21.16Q18.06 21.60 18.22 22.01Q18.39 22.43 18.39 22.71ZM30.41 22.64L30.41 22.64Q30.38 22.82 30.32 22.94Q30.27 23.06 30.23 23.19Q30.19 23.31 30.17 23.45Q30.15 23.59 30.18 23.79L30.18 23.79Q30.07 23.85 30.02 23.95Q29.98 24.05 29.95 24.16Q29.92 24.27 29.89 24.39Q29.86 24.50 29.79 24.59L29.79 24.59Q29.53 24.50 29.27 24.52Q29.02 24.53 28.76 24.53L28.76 24.53Q28.49 24.53 28.35 24.49Q28.21 24.45 28.01 24.27L28.01 24.27Q27.87 24.13 27.73 24.15Q27.60 24.18 27.49 24.16Q27.38 24.15 27.31 24.01Q27.25 23.86 27.25 23.40L27.25 23.40Q27.25 23.33 27.23 23.25Q27.22 23.17 27.15 23.10L27.15 23.10Q26.85 23.17 26.59 23.35Q26.33 23.53 26.10 23.72Q25.86 23.92 25.63 24.06Q25.39 24.20 25.14 24.18L25.14 24.18Q25.01 24.30 24.89 24.43Q24.77 24.56 24.61 24.66L24.61 24.66Q24.53 24.69 24.33 24.74Q24.14 24.79 23.93 24.82Q23.72 24.86 23.52 24.88Q23.32 24.91 23.24 24.91L23.24 24.91Q22.99 24.91 22.66 24.76Q22.34 24.60 22.01 24.42Q21.69 24.25 21.41 24.11Q21.13 23.98 20.95 24.02L20.95 24.02Q20.82 23.92 20.77 23.76Q20.71 23.60 20.58 23.47L20.58 23.47Q20.43 23.34 20.25 23.26Q20.07 23.18 19.95 23.02L19.95 23.02Q19.86 22.90 19.82 22.76Q19.78 22.63 19.74 22.48Q19.70 22.34 19.65 22.20Q19.59 22.05 19.49 21.94L19.49 21.94Q19.54 21.74 19.55 21.45Q19.56 21.15 19.59 20.85Q19.62 20.55 19.69 20.30Q19.77 20.04 19.95 19.92L19.95 19.92L19.95 19.83Q19.95 19.46 20.06 19.24Q20.18 19.01 20.36 18.83Q20.53 18.64 20.74 18.48Q20.95 18.32 21.13 18.08L21.13 18.08Q21.23 18 21.35 18.02Q21.47 18.04 21.59 17.98L21.59 17.98L21.66 17.84Q21.71 17.81 21.76 17.82Q21.81 17.84 21.84 17.84L21.84 17.84Q21.90 17.84 21.96 17.79Q22.02 17.74 22.08 17.69Q22.14 17.64 22.20 17.59Q22.27 17.54 22.35 17.54L22.35 17.54Q22.38 17.54 22.43 17.56Q22.48 17.58 22.51 17.60L22.51 17.60Q22.59 17.47 22.71 17.37Q22.82 17.27 22.93 17.18Q23.05 17.09 23.16 16.99Q23.27 16.89 23.36 16.76L23.36 16.76Q23.40 16.78 23.50 16.78L23.50 16.78Q23.60 16.78 23.66 16.73Q23.72 16.68 23.78 16.61Q23.85 16.55 23.93 16.49Q24.01 16.44 24.18 16.44L24.18 16.44Q24.21 16.44 24.32 16.39Q24.42 16.35 24.54 16.28Q24.66 16.22 24.76 16.15Q24.87 16.09 24.91 16.05L24.91 16.05L25.04 16.03Q25.15 16.03 25.24 16.07Q25.34 16.11 25.44 16.14L25.44 16.14Q25.59 15.98 25.75 15.84Q25.90 15.70 25.99 15.50L25.99 15.50Q26.14 15.46 26.34 15.33Q26.54 15.20 26.72 15.04Q26.91 14.87 27.03 14.68Q27.15 14.48 27.15 14.31L27.15 14.31Q27.15 14.12 27.05 13.95Q26.95 13.77 26.82 13.60Q26.70 13.43 26.57 13.25Q26.44 13.08 26.38 12.89L26.38 12.89L26.33 12.89Q26.19 12.89 26.08 12.76Q25.97 12.62 25.83 12.59L25.83 12.59Q25.71 12.54 25.58 12.54Q25.45 12.54 25.32 12.54Q25.20 12.54 25.07 12.52Q24.95 12.49 24.84 12.41L24.84 12.41Q24.61 12.46 24.47 12.58Q24.33 12.70 24.19 12.83Q24.05 12.96 23.86 13.05Q23.67 13.14 23.36 13.11L23.36 13.11Q23.14 13.55 22.97 14.02Q22.80 14.48 22.51 14.88L22.51 14.88Q22.44 15.14 22.38 15.39Q22.31 15.64 22.14 15.82L22.14 15.82Q21.90 15.89 21.66 15.89L21.66 15.89Q21.40 15.89 21.09 15.79Q20.78 15.69 20.51 15.52Q20.24 15.34 20.06 15.10Q19.88 14.86 19.88 14.58L19.88 14.58Q19.88 14.27 20.00 13.97Q20.12 13.68 20.12 13.35L20.12 13.35Q20.29 13.29 20.38 13.16Q20.47 13.03 20.55 12.88Q20.63 12.74 20.71 12.61Q20.80 12.48 20.95 12.41L20.95 12.41L20.95 12.32Q20.95 12.21 21.01 12.16Q21.07 12.11 21.04 11.95L21.04 11.95Q21.57 11.64 21.89 11.10L21.89 11.10Q22.09 11.00 22.31 10.95Q22.54 10.89 22.73 10.78L22.73 10.78Q22.91 10.71 23.07 10.58Q23.23 10.45 23.43 10.39L23.43 10.39Q23.72 10.34 24.01 10.38Q24.29 10.42 24.56 10.42L24.56 10.42Q24.80 10.42 24.97 10.32Q25.14 10.23 25.37 10.23L25.37 10.23Q25.61 10.23 25.84 10.26Q26.07 10.29 26.31 10.32L26.31 10.32Q26.41 10.35 26.50 10.40Q26.59 10.45 26.70 10.49L26.70 10.49Q27.06 10.56 27.22 10.56Q27.39 10.57 27.50 10.62Q27.62 10.66 27.75 10.80Q27.88 10.93 28.16 11.26L28.16 11.26L28.21 11.26Q28.36 11.26 28.52 11.37Q28.69 11.48 28.83 11.64Q28.98 11.80 29.09 11.97Q29.19 12.14 29.24 12.27L29.24 12.27Q29.31 12.45 29.32 12.65Q29.33 12.86 29.40 13.03L29.40 13.03Q29.47 13.20 29.58 13.34Q29.68 13.48 29.78 13.62Q29.88 13.76 29.96 13.91Q30.04 14.06 30.04 14.24L30.04 14.24Q30.04 14.47 29.98 14.69Q29.93 14.91 29.93 15.13L29.93 15.13Q29.93 15.33 30.02 15.51Q30.11 15.69 30.11 15.89L30.11 15.89Q30.11 16.15 30.02 16.38Q29.93 16.62 29.93 16.88L29.93 16.88Q29.93 17.21 30.02 17.55Q30.11 17.89 30.25 18.22L30.25 18.22Q30.18 18.43 30.18 18.68L30.18 18.68Q30.18 19.02 30.25 19.34Q30.32 19.66 30.32 19.99L30.32 19.99Q30.32 20.16 30.28 20.30Q30.25 20.44 30.20 20.58Q30.15 20.72 30.12 20.86Q30.08 21 30.08 21.18L30.08 21.18Q30.08 21.55 30.18 21.91Q30.27 22.28 30.41 22.64ZM27.63 18.82L27.63 18.82Q27.63 18.60 27.60 18.40Q27.56 18.20 27.56 17.98L27.56 17.98Q27.56 17.73 27.48 17.61Q27.40 17.50 27.15 17.52L27.15 17.52L27 17.52Q26.84 17.67 26.70 17.85Q26.57 18.02 26.38 18.15L26.38 18.15Q26.21 18.26 26.02 18.30Q25.82 18.35 25.69 18.53L25.69 18.53L25.64 18.53Q25.48 18.53 25.36 18.58Q25.24 18.63 25.13 18.69Q25.01 18.74 24.87 18.77Q24.74 18.81 24.54 18.77L24.54 18.77Q24.35 19.07 24.18 19.38Q24 19.69 23.67 19.85L23.67 19.85L23.47 19.83Q23.26 19.82 23.04 19.88Q22.83 19.93 22.66 20.05Q22.49 20.17 22.38 20.34Q22.28 20.52 22.28 20.77L22.28 20.77Q22.28 21.08 22.37 21.24Q22.46 21.40 22.61 21.50Q22.75 21.60 22.91 21.68Q23.07 21.76 23.21 21.94L23.21 21.94Q23.34 21.96 23.48 21.95Q23.63 21.94 23.77 21.94L23.77 21.94Q23.86 21.94 23.96 21.94Q24.06 21.95 24.13 22.01L24.13 22.01Q24.27 21.88 24.36 21.81Q24.46 21.75 24.68 21.77L24.68 21.77Q24.95 21.43 25.35 21.25Q25.75 21.06 26.14 20.93L26.14 20.93Q26.17 20.80 26.26 20.71Q26.34 20.61 26.45 20.54Q26.55 20.46 26.66 20.40Q26.77 20.33 26.84 20.24L26.84 20.24Q26.91 20.17 27.04 19.97Q27.18 19.77 27.31 19.54Q27.45 19.31 27.54 19.11Q27.63 18.91 27.63 18.82ZM42.36 13.88L42.36 13.88Q42.36 14.10 42.29 14.31Q42.21 14.52 42.21 14.74L42.21 14.74Q42.19 14.92 42.20 15.10Q42.21 15.28 42.21 15.46L42.21 15.46Q42.21 15.60 42.16 15.77Q42.12 15.95 42.06 16.12Q42.01 16.29 41.98 16.44Q41.95 16.58 41.98 16.69L41.98 16.69Q41.81 16.82 41.72 16.94Q41.64 17.06 41.66 17.29L41.66 17.29Q41.52 17.34 41.44 17.41Q41.37 17.47 41.20 17.45L41.20 17.45Q41.11 17.66 40.97 17.82Q40.83 17.99 40.66 18.13Q40.49 18.27 40.31 18.40Q40.13 18.54 39.96 18.68L39.96 18.68Q39.70 18.62 39.46 18.62Q39.21 18.62 38.95 18.53L38.95 18.53Q38.68 18.16 38.56 17.68Q38.44 17.19 38.33 16.76L38.33 16.76Q38.37 16.66 38.52 16.46Q38.67 16.25 38.87 16.03Q39.06 15.81 39.23 15.63Q39.41 15.46 39.50 15.43L39.50 15.43Q39.56 15.16 39.66 14.91Q39.75 14.65 39.75 14.36L39.75 14.36Q39.75 14.02 39.50 13.80L39.50 13.80Q39.23 13.86 39.08 14.04Q38.93 14.23 38.73 14.36L38.73 14.36Q38.53 14.36 38.38 14.40Q38.23 14.45 38.04 14.43L38.04 14.43Q37.92 14.45 37.86 14.53Q37.80 14.60 37.75 14.68Q37.69 14.77 37.59 14.85Q37.50 14.93 37.32 14.98L37.32 14.98Q37.31 15 37.28 15.06Q37.25 15.12 37.21 15.19Q37.17 15.26 37.14 15.33Q37.11 15.40 37.10 15.43L37.10 15.43L36.94 15.43Q36.84 15.56 36.79 15.70Q36.74 15.84 36.62 15.98L36.62 15.98Q36.52 16.14 36.38 16.32Q36.23 16.50 36.10 16.70Q35.96 16.90 35.88 17.10Q35.79 17.31 35.79 17.52L35.79 17.52Q35.79 17.65 35.82 17.76Q35.86 17.87 35.86 17.98L35.86 17.98Q35.86 18.23 35.78 18.49Q35.71 18.74 35.71 18.98L35.71 18.98Q35.71 19.15 35.75 19.31Q35.79 19.48 35.79 19.64L35.79 19.64Q35.79 19.89 35.70 20.12Q35.61 20.36 35.61 20.63L35.61 20.63Q35.61 20.93 35.65 21.23Q35.70 21.53 35.75 21.83Q35.80 22.14 35.84 22.45Q35.88 22.76 35.88 23.07L35.88 23.07Q35.88 23.47 35.76 23.79Q35.64 24.11 35.54 24.48L35.54 24.48Q35.31 24.64 34.99 24.81Q34.66 24.98 34.37 24.98L34.37 24.98Q34.14 24.98 34.01 24.84Q33.88 24.70 33.84 24.48L33.84 24.48Q33.55 24.38 33.32 24.18L33.32 24.18Q33.30 24.02 33.23 23.89Q33.15 23.77 33.06 23.64Q32.98 23.51 32.91 23.36Q32.84 23.21 32.84 23.02L32.84 23.02Q32.84 22.80 32.89 22.59Q32.95 22.37 32.95 22.14L32.95 22.14Q32.95 22.05 32.94 21.99Q32.93 21.93 32.93 21.87L32.93 21.87Q32.93 21.79 32.96 21.73Q33 21.67 33.04 21.62Q33.07 21.56 33.11 21.50Q33.14 21.45 33.14 21.34L33.14 21.34Q33.14 21.27 33.11 21.22Q33.07 21.16 33.02 21.11Q32.98 21.06 32.94 20.99Q32.91 20.93 32.91 20.84L32.91 20.84Q32.91 20.37 32.96 19.92Q33.02 19.46 33.02 18.98L33.02 18.98Q33.02 18.70 32.98 18.42Q32.94 18.14 32.77 17.91L32.77 17.91Q32.84 17.81 32.86 17.70Q32.88 17.59 32.88 17.47L32.88 17.47Q32.88 17.19 32.82 16.90Q32.77 16.62 32.77 16.32L32.77 16.32Q32.77 16.05 32.85 15.82Q32.93 15.59 32.93 15.18L32.93 15.18Q32.93 15.06 32.96 14.95Q33 14.85 33 14.74L33 14.74Q33 14.70 32.95 14.55Q32.91 14.41 32.84 14.21Q32.78 14.02 32.73 13.78Q32.68 13.54 32.68 13.28L32.68 13.28Q32.68 13.02 32.76 12.73Q32.84 12.45 32.84 12.02L32.84 12.02Q32.84 11.73 33.01 11.52Q33.18 11.31 33.43 11.18Q33.69 11.05 33.98 10.99Q34.27 10.92 34.51 10.92L34.51 10.92Q34.84 10.92 35.12 11.06Q35.40 11.19 35.54 11.50L35.54 11.50Q35.52 11.86 35.48 12.23Q35.45 12.60 35.47 12.96L35.47 12.96L35.47 13.35Q35.65 13.35 35.76 13.26Q35.87 13.17 35.96 13.06Q36.05 12.95 36.15 12.85Q36.25 12.75 36.41 12.73L36.41 12.73Q36.48 12.53 36.61 12.36Q36.74 12.19 36.87 12.02L36.87 12.02Q37.20 11.88 37.48 11.68Q37.76 11.47 38.04 11.28Q38.32 11.09 38.63 10.95Q38.94 10.80 39.34 10.80L39.34 10.80Q39.67 10.80 39.93 10.96Q40.20 11.11 40.42 11.33L40.42 11.33L40.54 11.33Q40.88 11.33 41.18 11.49Q41.48 11.65 41.73 11.88L41.73 11.88Q41.95 12.08 42.06 12.23Q42.16 12.38 42.21 12.53Q42.25 12.68 42.25 12.87Q42.26 13.07 42.29 13.35L42.29 13.35Q42.32 13.49 42.34 13.62Q42.36 13.75 42.36 13.88ZM54.14 23.47L54.14 23.47Q54.20 23.53 54.22 23.60Q54.23 23.67 54.23 23.74L54.23 23.74Q54.23 23.87 54.19 24Q54.14 24.13 54.14 24.27L54.14 24.27Q54.14 24.41 54.19 24.54Q54.23 24.68 54.23 24.82L54.23 24.82Q54.23 25.03 54.15 25.23Q54.07 25.43 53.97 25.62Q53.87 25.80 53.79 25.99Q53.71 26.18 53.71 26.38L53.71 26.38Q53.71 26.43 53.58 26.67Q53.45 26.92 53.29 27.22Q53.12 27.52 52.96 27.79Q52.80 28.05 52.75 28.14L52.75 28.14Q52.59 28.20 52.48 28.29Q52.36 28.38 52.24 28.48Q52.11 28.58 51.98 28.66Q51.84 28.73 51.67 28.76L51.67 28.76Q51.62 28.91 51.50 28.99Q51.38 29.06 51.23 29.13Q51.09 29.19 50.96 29.27Q50.84 29.36 50.80 29.52L50.80 29.52L50.71 29.52Q50.55 29.51 50.41 29.55Q50.26 29.59 50.11 29.65Q49.96 29.71 49.81 29.77Q49.66 29.82 49.51 29.84L49.51 29.84Q49.24 29.86 48.97 29.87Q48.70 29.88 48.43 29.88L48.43 29.88Q48.26 29.88 48.05 29.88Q47.85 29.87 47.64 29.84Q47.44 29.80 47.25 29.73Q47.06 29.66 46.95 29.52L46.95 29.52Q46.79 29.46 46.63 29.44Q46.48 29.43 46.31 29.36L46.31 29.36L46.17 29.21Q45.76 29.09 45.42 28.97Q45.08 28.85 44.81 28.67Q44.54 28.49 44.32 28.21Q44.10 27.94 43.92 27.50L43.92 27.50Q43.89 27.38 43.76 27.33Q43.63 27.29 43.54 27.20L43.54 27.20Q43.52 27.04 43.45 26.89Q43.38 26.75 43.30 26.61Q43.22 26.47 43.15 26.33Q43.08 26.19 43.08 26.02L43.08 26.02Q43.08 25.89 43.11 25.76Q43.15 25.64 43.15 25.49L43.15 25.49Q43.15 25.36 43.14 25.22Q43.13 25.09 43.13 24.96L43.13 24.96Q43.13 24.75 43.21 24.60Q43.29 24.46 43.41 24.33Q43.52 24.21 43.66 24.10Q43.80 23.99 43.92 23.86L43.92 23.86Q44.03 23.86 44.12 23.85Q44.21 23.84 44.33 23.84L44.33 23.84Q44.88 23.84 45.25 24.05Q45.62 24.27 45.86 24.63Q46.09 24.98 46.22 25.44Q46.35 25.89 46.42 26.36L46.42 26.36Q46.44 26.48 46.53 26.50Q46.62 26.52 46.72 26.58L46.72 26.58Q46.79 26.64 46.86 26.71Q46.92 26.78 47.02 26.81L47.02 26.81Q47.32 26.92 47.64 26.90Q47.95 26.88 48.26 26.95L48.26 26.95Q48.48 27.02 48.68 27.15Q48.88 27.27 49.10 27.27L49.10 27.27Q49.27 27.27 49.51 27.14Q49.75 27.01 49.98 26.84Q50.21 26.66 50.41 26.46Q50.60 26.26 50.66 26.12L50.66 26.12Q50.70 26.04 50.70 25.96Q50.70 25.88 50.73 25.80L50.73 25.80L50.91 25.73L50.91 25.56L51.05 25.49Q51.19 25.21 51.38 24.96Q51.56 24.70 51.81 24.48L51.81 24.48L51.81 24.27Q51.81 24.07 51.88 23.91Q51.95 23.74 52.05 23.58L52.05 23.58Q52.00 23.44 51.96 23.36Q51.91 23.29 51.88 23.21Q51.86 23.13 51.86 23.04Q51.87 22.95 51.91 22.78L51.91 22.78Q51.57 22.91 51.36 23.03Q51.15 23.16 50.95 23.26Q50.75 23.36 50.50 23.41Q50.25 23.47 49.82 23.47L49.82 23.47Q49.75 23.47 49.71 23.51Q49.68 23.55 49.64 23.60Q49.61 23.65 49.56 23.69Q49.51 23.73 49.42 23.72L49.42 23.72Q49.15 23.70 48.88 23.72Q48.61 23.74 48.34 23.74L48.34 23.74Q48.18 23.74 48.09 23.72Q48 23.71 47.93 23.67Q47.86 23.64 47.78 23.59Q47.71 23.54 47.57 23.47L47.57 23.47Q47.26 23.33 46.94 23.21Q46.62 23.10 46.31 22.95L46.31 22.95Q46.03 22.80 45.77 22.58Q45.50 22.35 45.26 22.09Q45.01 21.83 44.78 21.57Q44.55 21.30 44.33 21.08L44.33 21.08L44.33 20.91Q44.36 20.53 44.18 20.29Q44.00 20.05 43.77 19.78L43.77 19.78Q43.75 19.34 43.68 18.86Q43.61 18.38 43.61 17.93L43.61 17.93Q43.61 17.63 43.65 17.31Q43.70 16.99 43.70 16.69L43.70 16.69Q43.70 16.54 43.65 16.39Q43.61 16.25 43.61 16.11L43.61 16.11Q43.61 16.02 43.63 15.94Q43.65 15.86 43.68 15.76Q43.70 15.66 43.72 15.52Q43.75 15.39 43.75 15.18L43.75 15.18Q43.75 15.15 43.80 14.97Q43.86 14.79 43.93 14.57Q44.00 14.34 44.07 14.13Q44.13 13.91 44.16 13.80L44.16 13.80Q44.39 13.62 44.55 13.40Q44.72 13.18 44.78 12.89L44.78 12.89Q44.95 12.84 45.08 12.73Q45.21 12.62 45.32 12.49Q45.43 12.36 45.56 12.25Q45.69 12.14 45.87 12.11L45.87 12.11Q45.84 12.11 45.84 12.05L45.84 12.05Q45.84 11.94 45.94 11.93Q46.03 11.92 46.10 11.88L46.10 11.88Q46.24 11.79 46.37 11.68Q46.49 11.58 46.63 11.50L46.63 11.50Q46.80 11.39 47.05 11.31Q47.30 11.24 47.57 11.17Q47.85 11.10 48.13 11.01Q48.41 10.92 48.64 10.78L48.64 10.78Q48.84 10.82 49.04 10.81Q49.23 10.80 49.42 10.80Q49.62 10.79 49.81 10.80Q50.00 10.82 50.20 10.88L50.20 10.88Q50.43 11.17 50.73 11.36Q51.04 11.55 51.36 11.72L51.36 11.72L51.36 11.38Q51.34 10.98 51.42 10.59Q51.49 10.21 51.67 9.87L51.67 9.87Q51.90 9.76 52.17 9.70Q52.43 9.63 52.68 9.63L52.68 9.63Q52.85 9.63 52.97 9.72Q53.10 9.81 53.20 9.92Q53.31 10.03 53.42 10.15Q53.53 10.27 53.68 10.32L53.68 10.32Q53.70 10.48 53.77 10.62Q53.85 10.76 53.93 10.89Q54.01 11.02 54.08 11.16Q54.14 11.30 54.14 11.45L54.14 11.45Q54.14 11.74 54.11 12.03Q54.07 12.32 54.07 12.61L54.07 12.61Q54.07 12.75 54.04 12.89Q54 13.03 54 13.18L54 13.18Q54 13.24 54.05 13.31Q54.11 13.38 54.14 13.42L54.14 13.42Q54.18 13.54 54.18 13.67Q54.18 13.80 54.19 13.93Q54.20 14.05 54.24 14.16Q54.28 14.27 54.39 14.36L54.39 14.36Q54.27 14.70 54.24 15.04Q54.21 15.39 54.21 15.75L54.21 15.75Q54.21 15.95 54.26 16.13Q54.30 16.31 54.30 16.51L54.30 16.51Q54.30 16.66 54.22 16.79Q54.14 16.92 54.14 17.07L54.14 17.07Q54.14 17.36 54.22 17.64Q54.30 17.93 54.39 18.22L54.39 18.22Q54.48 18.60 54.47 18.99Q54.46 19.38 54.46 19.78L54.46 19.78Q54.46 19.89 54.49 20.00Q54.53 20.11 54.53 20.24L54.53 20.24Q54.53 20.34 54.49 20.44Q54.46 20.53 54.46 20.65L54.46 20.65Q54.46 20.95 54.54 21.26Q54.62 21.56 54.62 21.89L54.62 21.89Q54.62 22.30 54.53 22.73Q54.45 23.17 54.14 23.47ZM51.81 17.19L51.81 17.19Q51.81 16.99 51.86 16.79Q51.91 16.59 51.91 16.39L51.91 16.39Q51.91 16.25 51.87 16.13Q51.82 16.00 51.78 15.87Q51.74 15.75 51.71 15.63Q51.69 15.50 51.74 15.36L51.74 15.36Q51.62 15.32 51.53 15.22Q51.45 15.13 51.36 15.02Q51.28 14.91 51.21 14.79Q51.13 14.68 51.05 14.60L51.05 14.60Q50.98 14.51 50.87 14.47Q50.75 14.43 50.66 14.36L50.66 14.36Q50.57 14.29 50.51 14.20Q50.45 14.12 50.36 14.04L50.36 14.04Q50.05 13.80 49.69 13.67Q49.34 13.54 48.96 13.54L48.96 13.54Q48.70 13.54 48.50 13.59Q48.30 13.64 48.13 13.70Q47.96 13.76 47.81 13.81Q47.66 13.86 47.50 13.88L47.50 13.88Q47.31 14.13 47.14 14.39Q46.98 14.65 46.72 14.81L46.72 14.81Q46.66 15.19 46.58 15.49Q46.49 15.79 46.41 16.07Q46.32 16.36 46.26 16.69Q46.20 17.02 46.20 17.45L46.20 17.45Q46.20 17.82 46.20 18.07Q46.21 18.32 46.26 18.53Q46.31 18.74 46.42 18.95Q46.52 19.16 46.72 19.46L46.72 19.46Q46.82 19.62 46.90 19.79Q46.98 19.96 47.11 20.07L47.11 20.07Q47.21 20.18 47.36 20.24Q47.51 20.31 47.64 20.38L47.64 20.38Q47.74 20.45 47.88 20.59Q48.01 20.73 48.12 20.77L48.12 20.77Q48.13 20.78 48.28 20.81Q48.43 20.85 48.62 20.89Q48.81 20.93 48.97 20.96Q49.13 21 49.15 21L49.15 21Q49.48 21 49.79 20.93Q50.10 20.86 50.43 20.93L50.43 20.93Q50.53 20.92 50.59 20.85Q50.65 20.79 50.71 20.73Q50.77 20.67 50.84 20.63Q50.91 20.59 51.05 20.63L51.05 20.63Q51.09 20.48 51.19 20.38Q51.29 20.27 51.40 20.18Q51.52 20.09 51.62 19.99Q51.73 19.90 51.81 19.78L51.81 19.78Q51.89 19.69 51.90 19.58Q51.91 19.46 51.98 19.37L51.98 19.37Q52.04 19.31 52.13 19.28Q52.22 19.24 52.22 19.14L52.22 19.14Q52.22 18.81 52.15 18.53Q52.09 18.25 52.01 18.01Q51.94 17.77 51.87 17.57Q51.81 17.37 51.81 17.19ZM67.38 22.64L67.38 22.64Q67.35 22.82 67.29 22.94Q67.24 23.06 67.20 23.19Q67.16 23.31 67.14 23.45Q67.13 23.59 67.15 23.79L67.15 23.79Q67.04 23.85 67.00 23.95Q66.95 24.05 66.92 24.16Q66.89 24.27 66.86 24.39Q66.83 24.50 66.76 24.59L66.76 24.59Q66.50 24.50 66.25 24.52Q65.99 24.53 65.73 24.53L65.73 24.53Q65.46 24.53 65.32 24.49Q65.18 24.45 64.98 24.27L64.98 24.27Q64.84 24.13 64.71 24.15Q64.57 24.18 64.46 24.16Q64.35 24.15 64.28 24.01Q64.22 23.86 64.22 23.40L64.22 23.40Q64.22 23.33 64.21 23.25Q64.20 23.17 64.13 23.10L64.13 23.10Q63.82 23.17 63.56 23.35Q63.30 23.53 63.07 23.72Q62.84 23.92 62.60 24.06Q62.37 24.20 62.11 24.18L62.11 24.18Q61.98 24.30 61.86 24.43Q61.75 24.56 61.58 24.66L61.58 24.66Q61.50 24.69 61.31 24.74Q61.11 24.79 60.90 24.82Q60.69 24.86 60.49 24.88Q60.29 24.91 60.21 24.91L60.21 24.91Q59.96 24.91 59.64 24.76Q59.31 24.60 58.99 24.42Q58.66 24.25 58.38 24.11Q58.10 23.98 57.93 24.02L57.93 24.02Q57.80 23.92 57.74 23.76Q57.68 23.60 57.55 23.47L57.55 23.47Q57.40 23.34 57.22 23.26Q57.05 23.18 56.92 23.02L56.92 23.02Q56.84 22.90 56.79 22.76Q56.75 22.63 56.71 22.48Q56.67 22.34 56.62 22.20Q56.57 22.05 56.46 21.94L56.46 21.94Q56.51 21.74 56.52 21.45Q56.53 21.15 56.56 20.85Q56.59 20.55 56.67 20.30Q56.74 20.04 56.92 19.92L56.92 19.92L56.92 19.83Q56.92 19.46 57.04 19.24Q57.15 19.01 57.33 18.83Q57.50 18.64 57.71 18.48Q57.93 18.32 58.10 18.08L58.10 18.08Q58.21 18 58.32 18.02Q58.44 18.04 58.56 17.98L58.56 17.98L58.63 17.84Q58.69 17.81 58.73 17.82Q58.78 17.84 58.82 17.84L58.82 17.84Q58.88 17.84 58.93 17.79Q58.99 17.74 59.05 17.69Q59.11 17.64 59.17 17.59Q59.24 17.54 59.32 17.54L59.32 17.54Q59.36 17.54 59.40 17.56Q59.45 17.58 59.48 17.60L59.48 17.60Q59.57 17.47 59.68 17.37Q59.79 17.27 59.91 17.18Q60.02 17.09 60.13 16.99Q60.25 16.89 60.33 16.76L60.33 16.76Q60.38 16.78 60.47 16.78L60.47 16.78Q60.57 16.78 60.63 16.73Q60.69 16.68 60.76 16.61Q60.82 16.55 60.90 16.49Q60.98 16.44 61.15 16.44L61.15 16.44Q61.18 16.44 61.29 16.39Q61.39 16.35 61.51 16.28Q61.63 16.22 61.73 16.15Q61.84 16.09 61.89 16.05L61.89 16.05L62.02 16.03Q62.12 16.03 62.21 16.07Q62.31 16.11 62.41 16.14L62.41 16.14Q62.57 15.98 62.72 15.84Q62.87 15.70 62.96 15.50L62.96 15.50Q63.12 15.46 63.32 15.33Q63.52 15.20 63.70 15.04Q63.88 14.87 64.00 14.68Q64.13 14.48 64.13 14.31L64.13 14.31Q64.13 14.12 64.03 13.95Q63.93 13.77 63.80 13.60Q63.67 13.43 63.54 13.25Q63.41 13.08 63.35 12.89L63.35 12.89L63.30 12.89Q63.16 12.89 63.05 12.76Q62.94 12.62 62.80 12.59L62.80 12.59Q62.68 12.54 62.55 12.54Q62.43 12.54 62.30 12.54Q62.17 12.54 62.04 12.52Q61.92 12.49 61.82 12.41L61.82 12.41Q61.58 12.46 61.44 12.58Q61.30 12.70 61.16 12.83Q61.02 12.96 60.83 13.05Q60.64 13.14 60.33 13.11L60.33 13.11Q60.12 13.55 59.95 14.02Q59.78 14.48 59.48 14.88L59.48 14.88Q59.41 15.14 59.35 15.39Q59.29 15.64 59.11 15.82L59.11 15.82Q58.88 15.89 58.63 15.89L58.63 15.89Q58.37 15.89 58.06 15.79Q57.75 15.69 57.48 15.52Q57.21 15.34 57.03 15.10Q56.85 14.86 56.85 14.58L56.85 14.58Q56.85 14.27 56.97 13.97Q57.09 13.68 57.09 13.35L57.09 13.35Q57.26 13.29 57.35 13.16Q57.45 13.03 57.52 12.88Q57.60 12.74 57.69 12.61Q57.77 12.48 57.93 12.41L57.93 12.41L57.93 12.32Q57.93 12.21 57.98 12.16Q58.04 12.11 58.01 11.95L58.01 11.95Q58.55 11.64 58.86 11.10L58.86 11.10Q59.06 11.00 59.29 10.95Q59.51 10.89 59.71 10.78L59.71 10.78Q59.88 10.71 60.04 10.58Q60.20 10.45 60.40 10.39L60.40 10.39Q60.69 10.34 60.98 10.38Q61.27 10.42 61.54 10.42L61.54 10.42Q61.77 10.42 61.94 10.32Q62.11 10.23 62.34 10.23L62.34 10.23Q62.58 10.23 62.81 10.26Q63.05 10.29 63.28 10.32L63.28 10.32Q63.39 10.35 63.47 10.40Q63.56 10.45 63.67 10.49L63.67 10.49Q64.03 10.56 64.20 10.56Q64.36 10.57 64.48 10.62Q64.59 10.66 64.72 10.80Q64.85 10.93 65.13 11.26L65.13 11.26L65.18 11.26Q65.33 11.26 65.50 11.37Q65.66 11.48 65.81 11.64Q65.95 11.80 66.06 11.97Q66.16 12.14 66.21 12.27L66.21 12.27Q66.28 12.45 66.29 12.65Q66.30 12.86 66.38 13.03L66.38 13.03Q66.45 13.20 66.55 13.34Q66.66 13.48 66.76 13.62Q66.86 13.76 66.93 13.91Q67.01 14.06 67.01 14.24L67.01 14.24Q67.01 14.47 66.96 14.69Q66.90 14.91 66.90 15.13L66.90 15.13Q66.90 15.33 66.99 15.51Q67.08 15.69 67.08 15.89L67.08 15.89Q67.08 16.15 66.99 16.38Q66.90 16.62 66.90 16.88L66.90 16.88Q66.90 17.21 66.99 17.55Q67.08 17.89 67.22 18.22L67.22 18.22Q67.15 18.43 67.15 18.68L67.15 18.68Q67.15 19.02 67.22 19.34Q67.29 19.66 67.29 19.99L67.29 19.99Q67.29 20.16 67.25 20.30Q67.22 20.44 67.17 20.58Q67.13 20.72 67.09 20.86Q67.05 21 67.05 21.18L67.05 21.18Q67.05 21.55 67.15 21.91Q67.24 22.28 67.38 22.64ZM64.61 18.82L64.61 18.82Q64.61 18.60 64.57 18.40Q64.54 18.20 64.54 17.98L64.54 17.98Q64.54 17.73 64.45 17.61Q64.37 17.50 64.13 17.52L64.13 17.52L63.97 17.52Q63.81 17.67 63.67 17.85Q63.54 18.02 63.35 18.15L63.35 18.15Q63.19 18.26 62.99 18.30Q62.79 18.35 62.66 18.53L62.66 18.53L62.61 18.53Q62.45 18.53 62.33 18.58Q62.21 18.63 62.10 18.69Q61.98 18.74 61.85 18.77Q61.71 18.81 61.51 18.77L61.51 18.77Q61.32 19.07 61.15 19.38Q60.97 19.69 60.64 19.85L60.64 19.85L60.45 19.83Q60.23 19.82 60.02 19.88Q59.80 19.93 59.63 20.05Q59.46 20.17 59.36 20.34Q59.25 20.52 59.25 20.77L59.25 20.77Q59.25 21.08 59.34 21.24Q59.44 21.40 59.58 21.50Q59.72 21.60 59.88 21.68Q60.05 21.76 60.19 21.94L60.19 21.94Q60.32 21.96 60.46 21.95Q60.60 21.94 60.74 21.94L60.74 21.94Q60.83 21.94 60.93 21.94Q61.03 21.95 61.10 22.01L61.10 22.01Q61.24 21.88 61.34 21.81Q61.43 21.75 61.65 21.77L61.65 21.77Q61.92 21.43 62.32 21.25Q62.72 21.06 63.12 20.93L63.12 20.93Q63.14 20.80 63.23 20.71Q63.32 20.61 63.42 20.54Q63.53 20.46 63.63 20.40Q63.74 20.33 63.81 20.24L63.81 20.24Q63.88 20.17 64.01 19.97Q64.15 19.77 64.28 19.54Q64.42 19.31 64.51 19.11Q64.61 18.91 64.61 18.82ZM79.34 13.88L79.34 13.88Q79.34 14.10 79.26 14.31Q79.18 14.52 79.18 14.74L79.18 14.74Q79.16 14.92 79.17 15.10Q79.18 15.28 79.18 15.46L79.18 15.46Q79.18 15.60 79.14 15.77Q79.09 15.95 79.04 16.12Q78.98 16.29 78.96 16.44Q78.93 16.58 78.95 16.69L78.95 16.69Q78.79 16.82 78.70 16.94Q78.61 17.06 78.63 17.29L78.63 17.29Q78.49 17.34 78.42 17.41Q78.34 17.47 78.18 17.45L78.18 17.45Q78.08 17.66 77.94 17.82Q77.80 17.99 77.63 18.13Q77.46 18.27 77.28 18.40Q77.10 18.54 76.93 18.68L76.93 18.68Q76.68 18.62 76.43 18.62Q76.18 18.62 75.93 18.53L75.93 18.53Q75.66 18.16 75.53 17.68Q75.41 17.19 75.30 16.76L75.30 16.76Q75.34 16.66 75.49 16.46Q75.64 16.25 75.84 16.03Q76.03 15.81 76.21 15.63Q76.38 15.46 76.48 15.43L76.48 15.43Q76.54 15.16 76.63 14.91Q76.72 14.65 76.72 14.36L76.72 14.36Q76.72 14.02 76.48 13.80L76.48 13.80Q76.21 13.86 76.05 14.04Q75.90 14.23 75.70 14.36L75.70 14.36Q75.50 14.36 75.35 14.40Q75.20 14.45 75.01 14.43L75.01 14.43Q74.89 14.45 74.84 14.53Q74.78 14.60 74.72 14.68Q74.66 14.77 74.57 14.85Q74.47 14.93 74.30 14.98L74.30 14.98Q74.29 15 74.26 15.06Q74.23 15.12 74.19 15.19Q74.14 15.26 74.12 15.33Q74.09 15.40 74.07 15.43L74.07 15.43L73.91 15.43Q73.82 15.56 73.76 15.70Q73.71 15.84 73.59 15.98L73.59 15.98Q73.49 16.14 73.35 16.32Q73.21 16.50 73.07 16.70Q72.94 16.90 72.85 17.10Q72.76 17.31 72.76 17.52L72.76 17.52Q72.76 17.65 72.80 17.76Q72.83 17.87 72.83 17.98L72.83 17.98Q72.83 18.23 72.76 18.49Q72.68 18.74 72.68 18.98L72.68 18.98Q72.68 19.15 72.72 19.31Q72.76 19.48 72.76 19.64L72.76 19.64Q72.76 19.89 72.67 20.12Q72.59 20.36 72.59 20.63L72.59 20.63Q72.59 20.93 72.63 21.23Q72.67 21.53 72.72 21.83Q72.77 22.14 72.81 22.45Q72.86 22.76 72.86 23.07L72.86 23.07Q72.86 23.47 72.73 23.79Q72.61 24.11 72.52 24.48L72.52 24.48Q72.28 24.64 71.96 24.81Q71.64 24.98 71.34 24.98L71.34 24.98Q71.11 24.98 70.98 24.84Q70.85 24.70 70.82 24.48L70.82 24.48Q70.52 24.38 70.29 24.18L70.29 24.18Q70.28 24.02 70.20 23.89Q70.13 23.77 70.04 23.64Q69.95 23.51 69.88 23.36Q69.81 23.21 69.81 23.02L69.81 23.02Q69.81 22.80 69.87 22.59Q69.93 22.37 69.93 22.14L69.93 22.14Q69.93 22.05 69.91 21.99Q69.90 21.93 69.90 21.87L69.90 21.87Q69.90 21.79 69.94 21.73Q69.97 21.67 70.01 21.62Q70.04 21.56 70.08 21.50Q70.11 21.45 70.11 21.34L70.11 21.34Q70.11 21.27 70.08 21.22Q70.04 21.16 70.00 21.11Q69.95 21.06 69.91 20.99Q69.88 20.93 69.88 20.84L69.88 20.84Q69.88 20.37 69.94 19.92Q70.00 19.46 70.00 18.98L70.00 18.98Q70.00 18.70 69.96 18.42Q69.91 18.14 69.74 17.91L69.74 17.91Q69.81 17.81 69.83 17.70Q69.86 17.59 69.86 17.47L69.86 17.47Q69.86 17.19 69.80 16.90Q69.74 16.62 69.74 16.32L69.74 16.32Q69.74 16.05 69.82 15.82Q69.90 15.59 69.90 15.18L69.90 15.18Q69.90 15.06 69.94 14.95Q69.97 14.85 69.97 14.74L69.97 14.74Q69.97 14.70 69.93 14.55Q69.88 14.41 69.81 14.21Q69.75 14.02 69.70 13.78Q69.66 13.54 69.66 13.28L69.66 13.28Q69.66 13.02 69.73 12.73Q69.81 12.45 69.81 12.02L69.81 12.02Q69.81 11.73 69.98 11.52Q70.15 11.31 70.41 11.18Q70.66 11.05 70.95 10.99Q71.24 10.92 71.48 10.92L71.48 10.92Q71.81 10.92 72.09 11.06Q72.38 11.19 72.52 11.50L72.52 11.50Q72.49 11.86 72.46 12.23Q72.42 12.60 72.45 12.96L72.45 12.96L72.45 13.35Q72.62 13.35 72.73 13.26Q72.84 13.17 72.93 13.06Q73.02 12.95 73.12 12.85Q73.22 12.75 73.38 12.73L73.38 12.73Q73.45 12.53 73.58 12.36Q73.71 12.19 73.84 12.02L73.84 12.02Q74.17 11.88 74.45 11.68Q74.73 11.47 75.01 11.28Q75.29 11.09 75.60 10.95Q75.91 10.80 76.31 10.80L76.31 10.80Q76.64 10.80 76.90 10.96Q77.17 11.11 77.39 11.33L77.39 11.33L77.51 11.33Q77.85 11.33 78.15 11.49Q78.46 11.65 78.70 11.88L78.70 11.88Q78.93 12.08 79.03 12.23Q79.14 12.38 79.18 12.53Q79.22 12.68 79.22 12.87Q79.23 13.07 79.27 13.35L79.27 13.35Q79.29 13.49 79.31 13.62Q79.34 13.75 79.34 13.88ZM84.04 7.30L84.04 7.30Q84.04 7.43 83.98 7.45Q83.93 7.46 83.89 7.54L83.89 7.54Q83.79 7.76 83.79 8.04Q83.80 8.32 83.73 8.57Q83.66 8.81 83.41 8.98Q83.16 9.15 82.55 9.15L82.55 9.15Q82.28 9.15 81.97 9.08Q81.67 9.01 81.49 8.79L81.49 8.79L81.38 8.79Q81.11 8.79 80.89 8.69Q80.68 8.59 80.48 8.40L80.48 8.40Q80.54 7.90 80.62 7.44Q80.70 6.97 80.63 6.46L80.63 6.46Q80.74 6.28 80.89 6.15Q81.05 6.02 81.22 5.91Q81.39 5.80 81.56 5.69Q81.73 5.58 81.88 5.45L81.88 5.45Q81.97 5.47 82.07 5.48Q82.16 5.50 82.25 5.50L82.25 5.50Q82.44 5.50 82.61 5.47Q82.77 5.45 82.96 5.45L82.96 5.45Q83.06 5.58 83.14 5.65Q83.23 5.73 83.19 5.91L83.19 5.91Q83.32 5.95 83.40 6.04Q83.48 6.13 83.56 6.23Q83.64 6.34 83.71 6.44Q83.79 6.54 83.89 6.61L83.89 6.61L83.89 6.66Q83.89 6.83 83.96 6.98Q84.04 7.14 84.04 7.30ZM83.99 13.03L83.99 13.03Q83.99 13.23 83.92 13.42Q83.85 13.61 83.82 13.80L83.82 13.80Q83.74 14.21 83.73 14.63Q83.72 15.04 83.58 15.43L83.58 15.43Q83.55 15.49 83.54 15.54Q83.53 15.60 83.53 15.66L83.53 15.66Q83.53 15.79 83.55 15.90Q83.58 16.01 83.58 16.14L83.58 16.14Q83.58 16.24 83.54 16.33Q83.51 16.42 83.51 16.51L83.51 16.51Q83.51 16.64 83.58 16.79Q83.65 16.93 83.65 17.12L83.65 17.12Q83.65 17.30 83.61 17.48Q83.58 17.66 83.58 17.84L83.58 17.84Q83.58 18.02 83.61 18.19Q83.65 18.35 83.65 18.53L83.65 18.53Q83.65 19.13 83.60 19.72Q83.55 20.31 83.55 20.88L83.55 20.88Q83.55 21.22 83.61 21.56Q83.67 21.89 83.67 22.23L83.67 22.23Q83.67 22.70 83.48 23.11Q83.29 23.52 82.96 23.86L82.96 23.86Q82.77 23.93 82.61 23.92Q82.44 23.92 82.25 23.95L82.25 23.95Q82.13 23.98 82.00 24.05Q81.88 24.13 81.75 24.13L81.75 24.13Q81.57 24.13 81.40 23.92Q81.22 23.71 81.09 23.43Q80.95 23.14 80.87 22.86Q80.79 22.58 80.79 22.44L80.79 22.44Q80.79 22.00 80.87 21.57Q80.94 21.14 80.94 20.70L80.94 20.70Q80.94 20.46 81.02 20.24Q81.11 20.02 81.11 19.76L81.11 19.76Q81.11 19.29 80.99 18.80Q80.87 18.30 80.87 17.84L80.87 17.84Q80.87 17.57 80.99 17.29Q81.11 17.02 81.11 16.71L81.11 16.71Q81.11 16.41 81.07 16.11Q81.04 15.81 81.04 15.50L81.04 15.50Q81 15.07 81.02 14.64Q81.04 14.21 81.04 13.78L81.04 13.78Q81.04 13.56 80.99 13.34Q80.94 13.11 80.94 12.89L80.94 12.89Q80.94 12.80 80.99 12.73Q81.04 12.66 81.04 12.59L81.04 12.59Q81.04 12.39 81 12.19Q80.96 11.99 80.96 11.81L80.96 11.81Q80.96 11.61 81.04 11.40L81.04 11.40L81.18 11.33L81.18 11.19Q81.26 11.09 81.45 11.00Q81.63 10.91 81.85 10.85Q82.07 10.78 82.28 10.75Q82.49 10.71 82.62 10.71L82.62 10.71Q82.85 10.71 83.06 10.90Q83.27 11.10 83.44 11.26L83.44 11.26Q83.70 11.51 83.81 11.68Q83.93 11.85 83.97 12.02Q84.01 12.20 84 12.43Q83.99 12.67 83.99 13.03ZM97.73 17.60L97.73 17.60Q97.68 17.86 97.56 18.11Q97.45 18.35 97.34 18.60Q97.23 18.84 97.14 19.10Q97.05 19.35 97.04 19.62L97.04 19.62Q97.02 19.77 96.97 19.81Q96.93 19.85 96.87 19.90Q96.81 19.95 96.77 20.04Q96.73 20.13 96.73 20.38L96.73 20.38Q96.73 20.53 96.69 20.81Q96.66 21.09 96.59 21.44Q96.52 21.79 96.43 22.15Q96.34 22.52 96.23 22.85Q96.13 23.17 96.02 23.40Q95.91 23.64 95.79 23.72L95.79 23.72Q95.75 23.81 95.75 23.91Q95.74 24.01 95.72 24.11L95.72 24.11Q95.70 24.20 95.64 24.27Q95.59 24.34 95.55 24.41L95.55 24.41Q95.45 24.71 95.42 24.85Q95.39 24.98 95.35 25.06Q95.31 25.14 95.19 25.22Q95.07 25.30 94.78 25.49L94.78 25.49Q94.68 25.58 94.50 25.69Q94.32 25.80 94.18 25.80L94.18 25.80Q93.97 25.80 93.79 25.73Q93.60 25.65 93.42 25.54Q93.25 25.43 93.06 25.31Q92.88 25.20 92.70 25.11L92.70 25.11L92.70 25.05Q92.70 24.96 92.63 24.86Q92.55 24.75 92.55 24.66L92.55 24.66L92.63 24.59Q92.60 24.43 92.57 24.29Q92.53 24.15 92.53 24L92.53 24Q92.53 23.89 92.66 23.57Q92.79 23.25 92.96 22.89Q93.14 22.52 93.31 22.20Q93.48 21.88 93.56 21.77L93.56 21.77Q93.67 21.63 93.81 21.52Q93.95 21.41 94.02 21.25L94.02 21.25Q94.11 21.01 94.11 20.74Q94.10 20.47 94.16 20.24L94.16 20.24Q94.20 20.11 94.28 20.01Q94.36 19.91 94.41 19.78L94.41 19.78Q94.48 19.52 94.45 19.27Q94.42 19.01 94.48 18.77L94.48 18.77Q94.51 18.59 94.61 18.39Q94.71 18.19 94.71 18L94.71 18Q94.71 17.84 94.68 17.69Q94.64 17.54 94.64 17.38L94.64 17.38Q94.64 17.09 94.65 16.82Q94.66 16.55 94.66 16.28L94.66 16.28Q94.66 15.75 94.53 15.31Q94.39 14.87 93.95 14.60L93.95 14.60L93.84 14.43Q93.81 14.40 93.77 14.43Q93.74 14.45 93.68 14.45L93.68 14.45Q93.61 14.45 93.56 14.37Q93.50 14.30 93.40 14.21Q93.30 14.12 93.13 14.04Q92.96 13.97 92.67 13.97L92.67 13.97Q92.29 13.97 92.01 14.13Q91.73 14.29 91.50 14.51Q91.27 14.74 91.04 14.99Q90.82 15.25 90.54 15.43L90.54 15.43Q90.55 15.61 90.49 15.73Q90.43 15.84 90.35 15.94Q90.26 16.04 90.16 16.14Q90.06 16.24 89.99 16.37L89.99 16.37Q89.95 16.44 89.95 16.53Q89.95 16.62 89.92 16.69L89.92 16.69Q89.82 16.83 89.68 16.93Q89.53 17.03 89.46 17.21L89.46 17.21Q89.38 17.39 89.38 17.60Q89.38 17.80 89.36 17.98L89.36 17.98Q89.36 18.07 89.33 18.13Q89.30 18.19 89.26 18.24Q89.23 18.29 89.19 18.34Q89.16 18.39 89.14 18.46L89.14 18.46Q89.11 18.73 89.11 19.00Q89.11 19.27 88.98 19.54L88.98 19.54Q89.07 19.80 89.18 20.07Q89.29 20.33 89.29 20.63L89.29 20.63Q89.29 20.96 89.18 21.29Q89.07 21.62 89.07 21.96L89.07 21.96Q89.07 22.25 89.21 22.46L89.21 22.46Q89.05 22.92 88.97 23.40Q88.89 23.87 88.76 24.34L88.76 24.34Q88.62 24.47 88.43 24.53Q88.24 24.59 88.07 24.59L88.07 24.59Q87.73 24.59 87.40 24.51Q87.07 24.43 86.74 24.41L86.74 24.41Q86.71 24.27 86.61 24.17Q86.51 24.07 86.40 23.98Q86.29 23.88 86.20 23.76Q86.12 23.64 86.12 23.45L86.12 23.45Q86.12 23.29 86.22 23.09Q86.32 22.89 86.36 22.71L86.36 22.71Q86.38 22.55 86.36 22.37Q86.33 22.20 86.33 22.01L86.33 22.01Q86.33 21.69 86.44 21.36Q86.55 21.04 86.58 20.70L86.58 20.70Q86.59 20.52 86.59 20.33Q86.59 20.13 86.60 19.94Q86.61 19.75 86.65 19.56Q86.70 19.37 86.81 19.23L86.81 19.23Q86.78 19.10 86.75 18.97Q86.72 18.83 86.72 18.70L86.72 18.70Q86.72 18.57 86.77 18.46Q86.81 18.35 86.81 18.25L86.81 18.25Q86.81 18.14 86.74 18.08Q86.67 18.01 86.67 17.91L86.67 17.91L86.74 17.84Q86.72 17.70 86.70 17.56Q86.67 17.43 86.67 17.29L86.67 17.29Q86.67 16.96 86.78 16.66Q86.89 16.36 86.89 16.03L86.89 16.03Q86.89 15.76 86.85 15.51Q86.81 15.26 86.81 15L86.81 15Q86.81 14.82 86.85 14.65Q86.89 14.48 86.94 14.32Q86.98 14.16 87.02 13.99Q87.06 13.82 87.06 13.64L87.06 13.64Q87.06 13.50 87.02 13.37Q86.98 13.24 86.92 13.11Q86.87 12.98 86.83 12.86Q86.79 12.73 86.79 12.59L86.79 12.59Q86.79 12.02 87.07 11.52Q87.35 11.02 87.75 10.64L87.75 10.64Q87.77 10.64 87.80 10.65Q87.82 10.66 87.84 10.66L87.84 10.66Q87.97 10.66 88.07 10.61Q88.17 10.56 88.28 10.56L88.28 10.56Q88.58 10.56 88.81 10.71Q89.04 10.85 89.29 10.95L89.29 10.95Q89.45 11.39 89.56 11.85Q89.67 12.30 89.67 12.80L89.67 12.80Q89.80 12.76 89.91 12.70Q90.02 12.63 90.13 12.56Q90.25 12.49 90.36 12.43Q90.47 12.36 90.61 12.34L90.61 12.34Q90.73 12.26 90.81 12.15Q90.89 12.04 90.97 11.92Q91.04 11.80 91.12 11.69Q91.20 11.58 91.30 11.50L91.30 11.50Q91.44 11.39 91.75 11.27Q92.06 11.16 92.41 11.06Q92.75 10.96 93.08 10.89Q93.41 10.83 93.59 10.83L93.59 10.83Q93.80 10.83 93.97 10.87Q94.14 10.91 94.29 10.97Q94.45 11.04 94.61 11.12Q94.77 11.19 94.96 11.26L94.96 11.26Q95.03 11.29 95.10 11.29Q95.17 11.30 95.26 11.33L95.26 11.33Q95.40 11.39 95.51 11.49Q95.63 11.59 95.74 11.70Q95.86 11.80 95.98 11.89Q96.11 11.98 96.25 12.02L96.25 12.02Q96.32 12.22 96.44 12.38Q96.56 12.53 96.73 12.66L96.73 12.66Q96.76 12.90 96.86 13.12Q96.96 13.34 97.06 13.55Q97.16 13.77 97.24 13.99Q97.32 14.20 97.32 14.45L97.32 14.45Q97.32 14.60 97.29 14.71Q97.25 14.82 97.25 14.95L97.25 14.95Q97.25 15.06 97.29 15.12Q97.34 15.18 97.38 15.23Q97.42 15.28 97.46 15.35Q97.50 15.41 97.50 15.50L97.50 15.50Q97.50 15.77 97.48 16.03Q97.45 16.29 97.45 16.56L97.45 16.56Q97.45 16.83 97.51 17.10Q97.57 17.37 97.73 17.60ZM109.96 21.22L109.96 21.22L109.96 21.32Q109.97 21.64 109.86 21.86Q109.75 22.07 109.57 22.22Q109.39 22.37 109.17 22.50Q108.95 22.63 108.73 22.78L108.73 22.78L108.73 22.88Q108.73 23.07 108.66 23.26Q108.60 23.44 108.56 23.63L108.56 23.63L108.52 23.63Q108.34 23.60 108.21 23.68Q108.07 23.77 107.94 23.77L107.94 23.77Q107.84 23.77 107.72 23.70L107.72 23.70Q107.60 23.72 107.57 23.78Q107.53 23.84 107.50 23.91Q107.46 23.98 107.39 24.03Q107.32 24.08 107.14 24.08L107.14 24.08Q107.09 24.08 107.01 24.15Q106.93 24.21 106.85 24.29Q106.76 24.38 106.68 24.45Q106.59 24.53 106.55 24.55L106.55 24.55Q106.49 24.59 106.39 24.59Q106.30 24.60 106.19 24.60Q106.08 24.61 105.97 24.62Q105.87 24.62 105.79 24.63L105.79 24.63Q105.69 24.66 105.62 24.73Q105.54 24.80 105.47 24.80L105.47 24.80Q105.38 24.80 105.30 24.75Q105.22 24.70 105.13 24.70L105.13 24.70Q105.05 24.70 104.93 24.75Q104.81 24.80 104.67 24.86Q104.53 24.91 104.37 24.96Q104.20 25.01 104.03 25.01L104.03 25.01Q103.79 25.01 103.62 24.94L103.62 24.94Q103.61 24.94 103.48 24.86Q103.36 24.79 103.18 24.67Q103.00 24.55 102.79 24.42Q102.57 24.28 102.39 24.16Q102.20 24.04 102.07 23.95Q101.94 23.87 101.92 23.86L101.92 23.86L101.85 23.70Q101.68 23.63 101.56 23.52Q101.44 23.41 101.37 23.24L101.37 23.24Q101.25 23.17 101.17 23.06Q101.09 22.95 101.00 22.83Q100.92 22.71 100.83 22.61Q100.73 22.51 100.59 22.46L100.59 22.46Q100.49 22.23 100.39 22.00Q100.30 21.76 100.21 21.53L100.21 21.53L100.04 21.39Q100.02 21.32 100.04 21.25Q100.07 21.19 100.07 21.13L100.07 21.13Q100.07 21.08 99.99 20.93Q99.91 20.78 99.83 20.60Q99.74 20.41 99.66 20.24Q99.59 20.06 99.59 19.97L99.59 19.97Q99.59 19.79 99.62 19.63Q99.66 19.46 99.66 19.30L99.66 19.30Q99.66 19.16 99.60 19.03Q99.54 18.89 99.52 18.75L99.52 18.75Q99.48 18.56 99.50 18.36Q99.52 18.16 99.52 17.98L99.52 17.98Q99.52 17.84 99.47 17.70Q99.42 17.55 99.42 17.40L99.42 17.40Q99.42 17.26 99.50 17.14Q99.59 17.03 99.59 16.90L99.59 16.90Q99.59 16.52 99.48 16.15Q99.38 15.79 99.38 15.41L99.38 15.41Q99.38 15.12 99.53 14.78Q99.68 14.44 99.90 14.26L99.90 14.26L99.90 13.71Q100.01 13.69 100.06 13.61Q100.11 13.52 100.15 13.42Q100.18 13.31 100.21 13.20Q100.24 13.09 100.29 13.01L100.29 13.01Q100.35 12.90 100.41 12.83Q100.46 12.75 100.51 12.67Q100.56 12.60 100.58 12.50Q100.61 12.40 100.59 12.25L100.59 12.25Q100.79 12.18 100.96 12.05Q101.12 11.92 101.28 11.78Q101.44 11.64 101.61 11.51Q101.78 11.38 101.99 11.31L101.99 11.31Q102.14 11.11 102.49 10.92Q102.84 10.72 103.21 10.56Q103.57 10.39 103.85 10.27Q104.13 10.15 104.14 10.09L104.14 10.09Q104.47 10.13 104.82 10.13Q105.18 10.13 105.53 10.14Q105.88 10.15 106.22 10.20Q106.56 10.25 106.86 10.39L106.86 10.39Q106.90 10.46 106.95 10.52Q107.00 10.58 107.05 10.63Q107.10 10.69 107.13 10.76Q107.17 10.83 107.17 10.92L107.17 10.92Q107.59 11.09 107.91 11.47Q108.23 11.85 108.45 12.32Q108.67 12.80 108.77 13.31Q108.88 13.82 108.88 14.24L108.88 14.24Q108.88 14.37 108.83 14.45Q108.77 14.53 108.73 14.65L108.73 14.65Q108.67 14.75 108.68 14.88Q108.69 15.01 108.63 15.11L108.63 15.11Q108.57 15.28 108.46 15.42Q108.34 15.56 108.25 15.73L108.25 15.73Q108.04 16.22 107.80 16.69Q107.57 17.16 107.24 17.60L107.24 17.60Q107.11 17.77 106.93 17.92Q106.76 18.07 106.71 18.29L106.71 18.29Q106.50 18.29 106.38 18.39Q106.27 18.49 106.17 18.60Q106.08 18.71 105.96 18.81Q105.84 18.90 105.63 18.89L105.63 18.89Q105.54 19.05 105.44 19.18Q105.34 19.30 105.22 19.44L105.22 19.44Q105.11 19.44 105.03 19.49Q104.95 19.55 104.87 19.61Q104.79 19.68 104.70 19.72Q104.60 19.77 104.46 19.76L104.46 19.76Q104.36 19.91 104.21 20.02Q104.07 20.13 103.93 20.24Q103.78 20.34 103.65 20.47Q103.52 20.59 103.45 20.77L103.45 20.77Q103.32 20.80 103.15 20.83Q102.98 20.86 102.93 21L102.93 21Q102.93 21.22 103.02 21.42Q103.11 21.61 103.38 21.61L103.38 21.61Q103.48 21.79 103.63 21.91Q103.78 22.03 103.93 22.16L103.93 22.16Q104.23 22.14 104.52 22.16Q104.81 22.18 105.11 22.18L105.11 22.18Q105.46 22.18 105.66 22.13Q105.86 22.07 105.98 21.99Q106.10 21.91 106.19 21.85Q106.28 21.79 106.41 21.77L106.41 21.77Q106.57 21.48 106.75 21.21Q106.92 20.94 107.24 20.84L107.24 20.84Q107.33 20.66 107.45 20.48Q107.57 20.30 107.67 20.10Q107.77 19.91 107.81 19.71Q107.85 19.51 107.80 19.30L107.80 19.30Q107.91 19.16 108.04 18.94Q108.18 18.73 108.34 18.53Q108.50 18.33 108.69 18.19Q108.87 18.05 109.07 18.05L109.07 18.05Q109.25 18.05 109.39 18.17Q109.54 18.29 109.64 18.43L109.64 18.43Q109.88 18.47 110.03 18.60Q110.19 18.74 110.28 18.92Q110.37 19.10 110.40 19.32Q110.44 19.54 110.44 19.73L110.44 19.73Q110.44 20.10 110.33 20.53Q110.21 20.96 109.96 21.22ZM106.09 13.25L106.09 13.25Q106.03 13.27 106.01 13.24Q106.00 13.21 105.98 13.17Q105.97 13.13 105.96 13.08Q105.95 13.04 105.93 13.01L105.93 13.01Q105.87 12.94 105.69 12.84Q105.50 12.75 105.29 12.67Q105.07 12.60 104.85 12.54Q104.64 12.48 104.53 12.48L104.53 12.48Q104.30 12.48 104.15 12.56Q104.00 12.64 103.89 12.74Q103.77 12.83 103.66 12.91Q103.55 13.00 103.38 13.01L103.38 13.01Q103.38 13.11 103.33 13.21Q103.28 13.30 103.20 13.38Q103.13 13.46 103.05 13.55Q102.97 13.63 102.93 13.71L102.93 13.71Q102.83 13.89 102.80 14.09Q102.76 14.30 102.68 14.50L102.68 14.50Q102.59 14.72 102.48 14.91Q102.38 15.11 102.30 15.34L102.30 15.34L102.13 15.50Q102.07 15.73 102.06 15.97Q102.06 16.21 102.06 16.44L102.06 16.44Q102.06 16.75 102.13 17.02Q102.20 17.30 102.22 17.60L102.22 17.60Q102.22 17.71 102.20 17.83Q102.18 17.95 102.18 18.08L102.18 18.08Q102.18 18.14 102.18 18.19Q102.19 18.23 102.22 18.29L102.22 18.29L102.28 18.29Q102.41 18.30 102.50 18.26Q102.60 18.21 102.68 18.14Q102.76 18.07 102.83 17.98Q102.90 17.89 103.00 17.81L103.00 17.81Q103.07 17.75 103.15 17.74Q103.23 17.73 103.31 17.67L103.31 17.67Q103.37 17.61 103.38 17.55Q103.39 17.48 103.45 17.43L103.45 17.43Q103.56 17.33 103.72 17.26Q103.88 17.19 104.00 17.12L104.00 17.12Q104.14 17.05 104.24 16.95Q104.34 16.84 104.44 16.73Q104.54 16.63 104.66 16.54Q104.78 16.45 104.94 16.42L104.94 16.42Q105.01 16.34 105.12 16.15Q105.22 15.97 105.33 15.76Q105.43 15.55 105.52 15.35Q105.61 15.14 105.63 15.02L105.63 15.02L105.68 15.02Q105.80 15.02 105.86 14.95Q105.93 14.87 106.02 14.81L106.02 14.81Q106.08 14.68 106.10 14.55Q106.11 14.41 106.11 14.29L106.11 14.29Q106.11 14.02 106.07 13.77Q106.03 13.52 106.09 13.25Z"/></svg>