<svg xmlns="http://www.w3.org/2000/svg" xmlns:xlink="http://www.w3.org/1999/xlink" width="246.72" height="31.248"><path fill="black" d="M3.19 23.81L0.46 23.81L3.43 7.01L8.98 7.01Q10.54 7.01 11.64 7.51Q12.74 8.02 13.34 8.93Q13.94 9.84 13.94 11.09L13.94 11.09Q13.94 12.34 13.45 13.36Q12.96 14.38 11.96 15.10Q10.97 15.82 9.43 16.15L9.43 16.15L12.79 23.81L9.55 23.81L6.62 16.61L4.46 16.61L3.19 23.81ZM5.74 9.31L4.87 14.30L7.63 14.30Q9.43 14.30 10.28 13.60Q11.14 12.89 11.14 11.42L11.14 11.42Q11.14 10.85 10.88 10.37Q10.63 9.89 10.06 9.60Q9.48 9.31 8.50 9.31L8.50 9.31L5.74 9.31ZM19.27 24.10L19.27 24.10Q16.94 24.10 15.56 22.73Q14.18 21.36 14.18 19.03L14.18 19.03Q14.18 17.42 14.75 16.06Q15.31 14.69 16.31 13.69Q17.30 12.70 18.62 12.16Q19.94 11.62 21.46 11.62L21.46 11.62Q23.09 11.62 24.19 12.24Q25.30 12.86 25.86 13.92Q26.42 14.98 26.42 16.27L26.42 16.27Q26.42 16.82 26.32 17.44Q26.21 18.05 26.09 18.50L26.09 18.50L16.90 18.50Q16.87 18.62 16.87 18.76Q16.87 18.89 16.87 19.01L16.87 19.01Q16.87 20.38 17.66 21.11Q18.46 21.84 19.66 21.84L19.66 21.84Q20.69 21.84 21.48 21.37Q22.27 20.90 22.75 20.14L22.75 20.14L25.49 20.14Q24.89 21.41 23.92 22.28Q22.94 23.16 21.74 23.63Q20.54 24.10 19.27 24.10ZM17.26 16.70L17.26 16.70L23.71 16.70Q23.74 16.58 23.74 16.50Q23.74 16.42 23.74 16.34L23.74 16.34Q23.76 15.19 23.03 14.52Q22.30 13.85 21.10 13.85L21.10 13.85Q19.87 13.85 18.79 14.57Q17.71 15.29 17.26 16.70ZM34.01 23.81L31.97 23.81Q30.38 23.81 29.46 23.16Q28.54 22.51 28.54 20.95L28.54 20.95Q28.54 20.69 28.57 20.40Q28.61 20.11 28.66 19.80L28.66 19.80L29.64 14.18L27.74 14.18L28.15 11.90L30.05 11.90L30.55 9.02L33.31 9.02L32.78 11.90L36.12 11.90L35.69 14.18L32.40 14.18L31.37 19.80Q31.34 19.94 31.33 20.09Q31.32 20.23 31.32 20.35L31.32 20.35Q31.32 20.98 31.67 21.23Q32.02 21.48 32.81 21.48L32.81 21.48L34.42 21.48L34.01 23.81ZM38.76 23.81L36.05 23.81L39 7.01L41.71 7.01L40.54 13.80Q41.28 12.79 42.42 12.20Q43.56 11.62 44.90 11.62L44.90 11.62Q46.73 11.62 47.74 12.59Q48.74 13.56 48.74 15.48L48.74 15.48Q48.74 16.18 48.60 17.02L48.60 17.02L47.38 23.81L44.66 23.81L45.82 17.28Q45.86 16.97 45.90 16.70Q45.94 16.44 45.94 16.18L45.94 16.18Q45.94 15.05 45.38 14.48Q44.83 13.92 43.66 13.92L43.66 13.92Q42.31 13.92 41.23 14.90Q40.15 15.89 39.84 17.66L39.84 17.66L38.76 23.81ZM52.61 23.81L49.87 23.81L51.96 11.90L54.70 11.90L52.61 23.81ZM54 9.91L54 9.91Q53.28 9.91 52.76 9.41Q52.25 8.90 52.25 8.16L52.25 8.16Q52.25 7.42 52.76 6.92Q53.28 6.43 54 6.43L54 6.43Q54.72 6.43 55.24 6.92Q55.75 7.42 55.75 8.16L55.75 8.16Q55.75 8.90 55.24 9.41Q54.72 9.91 54 9.91ZM58.06 23.81L55.34 23.81L57.43 11.90L59.86 11.90L59.71 13.94Q60.48 12.86 61.63 12.24Q62.78 11.62 64.15 11.62L64.15 11.62Q65.98 11.62 67.01 12.62Q68.04 13.63 68.04 15.53L68.04 15.53Q68.04 15.86 68.00 16.24Q67.97 16.61 67.90 17.02L67.90 17.02L66.67 23.81L63.96 23.81L65.11 17.28Q65.16 17.04 65.20 16.73Q65.23 16.42 65.23 16.22L65.23 16.22Q65.23 13.92 62.95 13.92L62.95 13.92Q62.06 13.92 61.26 14.36Q60.46 14.81 59.92 15.60Q59.38 16.39 59.18 17.52L59.18 17.52L58.06 23.81ZM71.71 23.81L69.00 23.81L71.98 7.01L74.69 7.01L72.94 16.94L78.10 11.90L81.58 11.90L75.29 17.66L79.80 23.81L76.46 23.81L72.67 18.34L71.71 23.81ZM93.38 24.10L93.38 24.10Q91.68 24.10 90.42 23.56Q89.16 23.02 88.48 22.02Q87.79 21.02 87.79 19.70L87.79 19.70Q87.79 19.49 87.82 19.24Q87.84 18.98 87.86 18.74L87.86 18.74L90.74 18.74Q90.72 18.91 90.71 19.03Q90.70 19.15 90.70 19.30L90.70 19.30Q90.70 20.40 91.51 21.11Q92.33 21.82 93.72 21.82L93.72 21.82Q95.28 21.82 96.14 21.04Q97.01 20.26 97.01 18.96L97.01 18.96Q97.01 18.31 96.70 17.87Q96.38 17.42 95.82 17.11Q95.26 16.80 94.48 16.52Q93.70 16.25 92.76 15.91L92.76 15.91Q91.18 15.34 90.36 14.33Q89.54 13.32 89.54 11.98L89.54 11.98Q89.54 10.42 90.34 9.23Q91.13 8.04 92.54 7.38Q93.96 6.72 95.83 6.72L95.83 6.72Q98.09 6.72 99.44 7.82Q100.80 8.93 100.80 10.75L100.80 10.75Q100.80 10.92 100.79 11.11Q100.78 11.30 100.75 11.50L100.75 11.50L97.85 11.50Q97.87 11.38 97.87 11.28Q97.87 11.18 97.87 11.09L97.87 11.09Q97.87 10.27 97.25 9.65Q96.62 9.02 95.40 9.02L95.40 9.02Q94.06 9.02 93.25 9.73Q92.45 10.44 92.45 11.52L92.45 11.52Q92.45 12.31 92.98 12.77L92.98 12.77Q93.50 13.27 94.37 13.61Q95.23 13.94 96.29 14.33L96.29 14.33Q97.85 14.88 98.90 15.92Q99.96 16.97 99.96 18.62L99.96 18.62Q99.96 20.28 99.12 21.50Q98.28 22.73 96.80 23.41Q95.33 24.10 93.38 24.10ZM105.05 24.10L105.05 24.10Q104.04 24.10 103.22 23.72Q102.41 23.35 101.92 22.64Q101.42 21.94 101.42 20.98L101.42 20.98Q101.42 19.56 102.22 18.61Q103.01 17.66 104.32 17.18Q105.62 16.70 107.16 16.70L107.16 16.70L110.18 16.70Q110.21 16.46 110.22 16.28Q110.23 16.10 110.23 15.94L110.23 15.94Q110.23 14.98 109.73 14.45Q109.22 13.92 108.14 13.92L108.14 13.92Q107.21 13.92 106.43 14.38Q105.65 14.83 105.26 15.74L105.26 15.74L102.58 15.74Q103.03 14.40 103.92 13.49Q104.81 12.58 106.00 12.10Q107.18 11.62 108.58 11.62L108.58 11.62Q109.97 11.62 110.94 12.07Q111.91 12.53 112.44 13.39Q112.97 14.26 112.97 15.53L112.97 15.53Q112.97 15.82 112.93 16.09Q112.90 16.37 112.85 16.70L112.85 16.70L112.25 20.06Q112.22 20.23 112.21 20.40Q112.20 20.57 112.20 20.66L112.20 20.66Q112.20 21.12 112.46 21.32Q112.73 21.53 113.28 21.53L113.28 21.53L112.87 23.81Q111.31 23.81 110.51 23.34Q109.70 22.87 109.49 21.89L109.49 21.89Q108.98 22.54 108.32 23.04Q107.66 23.54 106.85 23.82Q106.03 24.10 105.05 24.10ZM106.03 21.89L106.03 21.89Q106.94 21.89 107.72 21.43Q108.50 20.98 109.04 20.22Q109.58 19.46 109.80 18.53L109.80 18.53L107.02 18.53Q106.30 18.53 105.66 18.74Q105.02 18.96 104.63 19.42Q104.23 19.87 104.23 20.57L104.23 20.57Q104.23 21.26 104.75 21.58Q105.26 21.89 106.03 21.89ZM117.38 23.81L114.67 23.81L116.76 11.90L119.18 11.90L119.04 13.94Q119.81 12.86 120.96 12.24Q122.11 11.62 123.48 11.62L123.48 11.62Q125.30 11.62 126.34 12.62Q127.37 13.63 127.37 15.53L127.37 15.53Q127.37 15.86 127.33 16.24Q127.30 16.61 127.22 17.02L127.22 17.02L126 23.81L123.29 23.81L124.44 17.28Q124.49 17.04 124.52 16.73Q124.56 16.42 124.56 16.22L124.56 16.22Q124.56 13.92 122.28 13.92L122.28 13.92Q121.39 13.92 120.59 14.36Q119.78 14.81 119.24 15.60Q118.70 16.39 118.51 17.52L118.51 17.52L117.38 23.81ZM133.30 24.10L133.30 24.10Q131.74 24.10 130.61 23.56Q129.48 23.02 128.93 22.07Q128.38 21.12 128.47 19.85L128.47 19.85L131.18 19.85Q131.16 20.76 131.76 21.36Q132.36 21.96 133.66 21.96L133.66 21.96Q134.74 21.96 135.37 21.48Q136.01 21 136.01 20.23L136.01 20.23Q136.01 19.56 135.37 19.26Q134.74 18.96 133.73 18.72L133.73 18.72Q133.25 18.62 132.78 18.47Q132.31 18.31 131.86 18.12L131.86 18.12Q130.97 17.76 130.37 17.14Q129.77 16.51 129.77 15.53L129.77 15.53Q129.77 14.40 130.44 13.51Q131.11 12.62 132.28 12.12Q133.44 11.62 134.93 11.62L134.93 11.62Q136.97 11.62 138.17 12.60Q139.37 13.58 139.30 15.34L139.30 15.34L136.66 15.34Q136.66 14.62 136.10 14.18Q135.55 13.75 134.64 13.75L134.64 13.75Q133.68 13.75 133.09 14.17Q132.50 14.59 132.50 15.22L132.50 15.22Q132.50 15.79 133.15 16.10Q133.80 16.42 134.88 16.66L134.88 16.66Q135.91 16.90 136.81 17.26Q137.71 17.62 138.26 18.25Q138.82 18.89 138.82 19.87L138.82 19.87Q138.82 21.12 138.12 22.07Q137.42 23.02 136.19 23.56Q134.95 24.10 133.30 24.10ZM152.78 24.10L152.78 24.10Q151.20 24.10 150.19 23.54Q149.18 22.99 148.61 22.12Q148.03 21.24 147.80 20.21Q147.58 19.18 147.58 18.22L147.58 18.22Q147.58 15.36 148.27 13.21Q148.97 11.06 150.12 9.62Q151.27 8.18 152.65 7.45Q154.03 6.72 155.42 6.72L155.42 6.72Q156.72 6.72 157.58 7.15Q158.45 7.58 158.95 8.30Q159.46 9.02 159.65 9.85Q159.84 10.68 159.77 11.50L159.77 11.50L157.39 11.50Q157.39 10.37 156.83 9.68Q156.26 9 155.11 9L155.11 9Q153.89 9 152.95 9.79Q152.02 10.58 151.36 11.99Q150.70 13.39 150.31 15.26L150.31 15.26Q151.08 14.23 152.16 13.61Q153.24 12.98 154.68 12.98L154.68 12.98Q155.62 12.98 156.42 13.32Q157.22 13.66 157.81 14.27Q158.40 14.88 158.75 15.74Q159.10 16.61 159.10 17.66L159.10 17.66Q159.10 19.51 158.23 20.98Q157.37 22.44 155.93 23.27Q154.49 24.10 152.78 24.10ZM152.98 21.74L152.98 21.74Q154.10 21.74 154.90 21.23Q155.69 20.71 156.12 19.87Q156.55 19.03 156.55 18.07L156.55 18.07Q156.55 16.87 155.83 16.09Q155.11 15.31 153.86 15.31L153.86 15.31Q152.83 15.31 152.02 15.79Q151.20 16.27 150.72 17.10Q150.24 17.93 150.24 18.96L150.24 18.96Q150.24 20.21 150.98 20.98Q151.73 21.74 152.98 21.74ZM166.18 24.10L166.18 24.10Q164.40 24.10 163.28 23.33Q162.17 22.56 161.65 21.20Q161.14 19.85 161.14 18.10L161.14 18.10Q161.14 16.80 161.40 15.25Q161.66 13.70 162.23 12.20Q162.79 10.70 163.74 9.46Q164.69 8.21 166.06 7.46Q167.42 6.72 169.25 6.72L169.25 6.72Q171.07 6.72 172.18 7.46Q173.28 8.21 173.78 9.54Q174.29 10.87 174.29 12.60L174.29 12.60Q174.29 13.90 174.05 15.43Q173.81 16.97 173.26 18.49Q172.70 20.02 171.78 21.29Q170.86 22.56 169.48 23.33Q168.10 24.10 166.18 24.10ZM166.61 21.67L166.61 21.67Q167.71 21.67 168.53 21.04Q169.34 20.40 169.92 19.38Q170.50 18.36 170.83 17.16Q171.17 15.96 171.34 14.82Q171.50 13.68 171.50 12.84L171.50 12.84Q171.50 11.09 170.86 10.12Q170.21 9.14 168.84 9.14L168.84 9.14Q167.71 9.14 166.88 9.73Q166.06 10.32 165.49 11.29Q164.93 12.26 164.58 13.43Q164.23 14.59 164.08 15.78Q163.92 16.97 163.92 17.93L163.92 17.93Q163.92 19.70 164.57 20.69Q165.22 21.67 166.61 21.67ZM180.26 24.10L180.26 24.10Q178.49 24.10 177.37 23.33Q176.26 22.56 175.74 21.20Q175.22 19.85 175.22 18.10L175.22 18.10Q175.22 16.80 175.49 15.25Q175.75 13.70 176.32 12.20Q176.88 10.70 177.83 9.46Q178.78 8.21 180.14 7.46Q181.51 6.72 183.34 6.72L183.34 6.72Q185.16 6.72 186.26 7.46Q187.37 8.21 187.87 9.54Q188.38 10.87 188.38 12.60L188.38 12.60Q188.38 13.90 188.14 15.43Q187.90 16.97 187.34 18.49Q186.79 20.02 185.87 21.29Q184.94 22.56 183.56 23.33Q182.18 24.10 180.26 24.10ZM180.70 21.67L180.70 21.67Q181.80 21.67 182.62 21.04Q183.43 20.40 184.01 19.38Q184.58 18.36 184.92 17.16Q185.26 15.96 185.42 14.82Q185.59 13.68 185.59 12.84L185.59 12.84Q185.59 11.09 184.94 10.12Q184.30 9.14 182.93 9.14L182.93 9.14Q181.80 9.14 180.97 9.73Q180.14 10.32 179.58 11.29Q179.02 12.26 178.67 13.43Q178.32 14.59 178.16 15.78Q178.01 16.97 178.01 17.93L178.01 17.93Q178.01 19.70 178.66 20.69Q179.30 21.67 180.70 21.67ZM197.62 23.81L194.88 23.81L196.97 11.90L199.70 11.90L197.62 23.81ZM199.01 9.91L199.01 9.91Q198.29 9.91 197.77 9.41Q197.26 8.90 197.26 8.16L197.26 8.16Q197.26 7.42 197.77 6.92Q198.29 6.43 199.01 6.43L199.01 6.43Q199.73 6.43 200.24 6.92Q200.76 7.42 200.76 8.16L200.76 8.16Q200.76 8.90 200.24 9.41Q199.73 9.91 199.01 9.91ZM207.22 23.81L205.18 23.81Q203.59 23.81 202.67 23.16Q201.74 22.51 201.74 20.95L201.74 20.95Q201.74 20.69 201.78 20.40Q201.82 20.11 201.86 19.80L201.86 19.80L202.85 14.18L200.95 14.18L201.36 11.90L203.26 11.90L203.76 9.02L206.52 9.02L205.99 11.90L209.33 11.90L208.90 14.18L205.61 14.18L204.58 19.80Q204.55 19.94 204.54 20.09Q204.53 20.23 204.53 20.35L204.53 20.35Q204.53 20.98 204.88 21.23Q205.22 21.48 206.02 21.48L206.02 21.48L207.62 21.48L207.22 23.81ZM212.93 24.10L212.93 24.10Q211.92 24.10 211.10 23.72Q210.29 23.35 209.80 22.64Q209.30 21.94 209.30 20.98L209.30 20.98Q209.30 19.56 210.10 18.61Q210.89 17.66 212.20 17.18Q213.50 16.70 215.04 16.70L215.04 16.70L218.06 16.70Q218.09 16.46 218.10 16.28Q218.11 16.10 218.11 15.94L218.11 15.94Q218.11 14.98 217.61 14.45Q217.10 13.92 216.02 13.92L216.02 13.92Q215.09 13.92 214.31 14.38Q213.53 14.83 213.14 15.74L213.14 15.74L210.46 15.74Q210.91 14.40 211.80 13.49Q212.69 12.58 213.88 12.10Q215.06 11.62 216.46 11.62L216.46 11.62Q217.85 11.62 218.82 12.07Q219.79 12.53 220.32 13.39Q220.85 14.26 220.85 15.53L220.85 15.53Q220.85 15.82 220.81 16.09Q220.78 16.37 220.73 16.70L220.73 16.70L220.13 20.06Q220.10 20.23 220.09 20.40Q220.08 20.57 220.08 20.66L220.08 20.66Q220.08 21.12 220.34 21.32Q220.61 21.53 221.16 21.53L221.16 21.53L220.75 23.81Q219.19 23.81 218.39 23.34Q217.58 22.87 217.37 21.89L217.37 21.89Q216.86 22.54 216.20 23.04Q215.54 23.54 214.73 23.82Q213.91 24.10 212.93 24.10ZM213.91 21.89L213.91 21.89Q214.82 21.89 215.60 21.43Q216.38 20.98 216.92 20.22Q217.46 19.46 217.68 18.53L217.68 18.53L214.90 18.53Q214.18 18.53 213.54 18.74Q212.90 18.96 212.51 19.42Q212.11 19.87 212.11 20.57L212.11 20.57Q212.11 21.26 212.63 21.58Q213.14 21.89 213.91 21.89ZM225.24 23.81L222.53 23.81L225.50 7.01L228.22 7.01L225.24 23.81ZM230.74 23.81L228.00 23.81L230.09 11.90L232.82 11.90L230.74 23.81ZM232.13 9.91L232.13 9.91Q231.41 9.91 230.89 9.41Q230.38 8.90 230.38 8.16L230.38 8.16Q230.38 7.42 230.89 6.92Q231.41 6.43 232.13 6.43L232.13 6.43Q232.85 6.43 233.36 6.92Q233.88 7.42 233.88 8.16L233.88 8.16Q233.88 8.90 233.36 9.41Q232.85 9.91 232.13 9.91ZM239.09 24.10L239.09 24.10Q237.43 24.10 236.28 23.40Q235.13 22.70 234.54 21.54Q233.95 20.38 233.95 19.01L233.95 19.01Q233.95 17.42 234.52 16.09Q235.08 14.76 236.06 13.75Q237.05 12.74 238.38 12.18Q239.71 11.62 241.27 11.62L241.27 11.62Q243.53 11.62 244.87 12.80Q246.22 13.99 246.22 16.08L246.22 16.08L243.38 16.08Q243.38 15.02 242.66 14.48Q241.94 13.94 240.86 13.94L240.86 13.94Q239.86 13.94 239.08 14.38Q238.30 14.81 237.79 15.53Q237.29 16.25 237.02 17.09Q236.76 17.93 236.76 18.74L236.76 18.74Q236.76 20.16 237.54 20.98Q238.32 21.79 239.50 21.79L239.50 21.79Q240.55 21.79 241.46 21.24Q242.38 20.69 242.76 19.63L242.76 19.63L245.59 19.63Q245.04 21.19 243.98 22.18Q242.93 23.16 241.64 23.63Q240.36 24.10 239.09 24.10Z"/></svg>