<svg xmlns="http://www.w3.org/2000/svg" xmlns:xlink="http://www.w3.org/1999/xlink" width="248.11199999999997" height="31.248"><path fill="black" d="M3.07 23.81L0.53 23.81L3.50 7.01L8.90 7.01Q10.46 7.01 11.57 7.50Q12.67 7.99 13.26 8.89Q13.85 9.79 13.85 11.04L13.85 11.04Q13.85 12.34 13.34 13.37Q12.84 14.40 11.84 15.10Q10.85 15.79 9.31 16.10L9.31 16.10L12.70 23.81L9.62 23.81L6.70 16.54L4.37 16.54L3.07 23.81ZM5.66 9.14L4.75 14.38L7.54 14.38Q9.41 14.38 10.32 13.64Q11.23 12.91 11.23 11.35L11.23 11.35Q11.23 10.73 10.97 10.24Q10.70 9.74 10.09 9.44Q9.48 9.14 8.45 9.14L8.45 9.14L5.66 9.14ZM19.34 24.10L19.34 24.10Q17.06 24.10 15.70 22.73Q14.33 21.36 14.33 19.03L14.33 19.03Q14.33 17.38 14.90 16.01Q15.48 14.64 16.48 13.66Q17.47 12.67 18.78 12.14Q20.09 11.62 21.53 11.62L21.53 11.62Q23.18 11.62 24.28 12.25Q25.37 12.89 25.91 13.94Q26.45 15 26.45 16.25L26.45 16.25Q26.45 16.78 26.34 17.39Q26.23 18 26.11 18.46L26.11 18.46L16.85 18.46Q16.82 18.60 16.82 18.73Q16.82 18.86 16.82 19.01L16.82 19.01Q16.82 20.47 17.66 21.23Q18.50 21.98 19.73 21.98L19.73 21.98Q20.81 21.98 21.64 21.48Q22.46 20.98 22.94 20.16L22.94 20.16L25.51 20.16Q24.94 21.38 23.99 22.26Q23.04 23.14 21.85 23.62Q20.66 24.10 19.34 24.10ZM17.21 16.70L17.21 16.70L23.90 16.70Q23.93 16.58 23.94 16.49Q23.95 16.39 23.95 16.32L23.95 16.32Q23.95 15.10 23.20 14.40Q22.44 13.70 21.19 13.70L21.19 13.70Q19.92 13.70 18.79 14.46Q17.66 15.22 17.21 16.70ZM34.03 23.81L32.04 23.81Q30.48 23.81 29.58 23.17Q28.68 22.54 28.68 21L28.68 21Q28.68 20.76 28.72 20.47Q28.75 20.18 28.80 19.87L28.80 19.87L29.83 14.04L27.94 14.04L28.32 11.90L30.22 11.90L30.72 9.02L33.29 9.02L32.76 11.90L36.14 11.90L35.74 14.04L32.40 14.04L31.34 19.87Q31.32 20.04 31.31 20.18Q31.30 20.33 31.30 20.45L31.30 20.45Q31.30 21.12 31.66 21.37Q32.02 21.62 32.83 21.62L32.83 21.62L34.42 21.62L34.03 23.81ZM38.78 23.81L36.24 23.81L39.19 7.01L41.74 7.01L40.54 13.82Q41.30 12.82 42.46 12.22Q43.61 11.62 44.93 11.62L44.93 11.62Q46.75 11.62 47.76 12.56Q48.77 13.51 48.77 15.43L48.77 15.43Q48.77 16.15 48.62 16.97L48.62 16.97L47.42 23.81L44.88 23.81L46.03 17.21Q46.08 16.90 46.12 16.62Q46.15 16.34 46.15 16.10L46.15 16.10Q46.15 14.93 45.58 14.35Q45 13.78 43.82 13.78L43.82 13.78Q42.41 13.78 41.30 14.78Q40.20 15.79 39.86 17.64L39.86 17.64L38.78 23.81ZM52.66 23.81L50.11 23.81L52.20 11.90L54.74 11.90L52.66 23.81ZM54.17 9.74L54.17 9.74Q53.47 9.74 52.99 9.26Q52.51 8.78 52.51 8.09L52.51 8.09Q52.51 7.39 52.99 6.92Q53.47 6.46 54.17 6.46L54.17 6.46Q54.84 6.46 55.33 6.92Q55.82 7.39 55.82 8.09L55.82 8.09Q55.82 8.78 55.33 9.26Q54.84 9.74 54.17 9.74ZM58.15 23.81L55.61 23.81L57.70 11.90L59.98 11.90L59.81 13.97Q60.58 12.86 61.74 12.24Q62.90 11.62 64.27 11.62L64.27 11.62Q66.10 11.62 67.12 12.62Q68.14 13.63 68.14 15.50L68.14 15.50Q68.14 15.84 68.10 16.21Q68.06 16.58 67.99 16.97L67.99 16.97L66.79 23.81L64.25 23.81L65.40 17.21Q65.45 16.97 65.48 16.66Q65.52 16.34 65.52 16.13L65.52 16.13Q65.52 13.78 63.19 13.78L63.19 13.78Q62.26 13.78 61.43 14.23Q60.60 14.69 60.04 15.52Q59.47 16.34 59.28 17.50L59.28 17.50L58.15 23.81ZM71.83 23.81L69.29 23.81L72.26 7.01L74.81 7.01L73.06 16.92L78.36 11.90L81.65 11.90L75.34 17.57L79.97 23.81L76.85 23.81L72.84 18.14L71.83 23.81ZM93.84 24.10L93.84 24.10Q92.14 24.10 90.88 23.54Q89.62 22.99 88.93 22.01Q88.25 21.02 88.25 19.70L88.25 19.70Q88.25 19.49 88.27 19.24Q88.30 18.98 88.34 18.74L88.34 18.74L91.03 18.74Q91.01 18.91 91.00 19.04Q90.98 19.18 90.98 19.32L90.98 19.32Q90.98 20.47 91.84 21.22Q92.69 21.96 94.13 21.96L94.13 21.96Q95.78 21.96 96.68 21.13Q97.58 20.30 97.58 18.96L97.58 18.96Q97.58 18.26 97.26 17.81Q96.94 17.35 96.35 17.04Q95.76 16.73 94.97 16.44Q94.18 16.15 93.24 15.82L93.24 15.82Q91.66 15.24 90.85 14.24Q90.05 13.25 90.05 11.93L90.05 11.93Q90.05 10.37 90.83 9.19Q91.61 8.02 93.01 7.37Q94.42 6.72 96.24 6.72L96.24 6.72Q98.50 6.72 99.84 7.82Q101.18 8.93 101.18 10.73L101.18 10.73Q101.18 10.90 101.17 11.09Q101.16 11.28 101.11 11.47L101.11 11.47L98.42 11.47Q98.45 11.35 98.45 11.24Q98.45 11.14 98.45 11.04L98.45 11.04Q98.45 10.20 97.80 9.54Q97.15 8.88 95.86 8.88L95.86 8.88Q94.44 8.88 93.60 9.62Q92.76 10.37 92.76 11.50L92.76 11.50Q92.76 12.31 93.31 12.79L93.31 12.79Q93.86 13.32 94.75 13.66Q95.64 13.99 96.72 14.38L96.72 14.38Q98.26 14.95 99.30 15.98Q100.34 17.02 100.34 18.65L100.34 18.65Q100.34 20.28 99.52 21.50Q98.69 22.73 97.22 23.41Q95.76 24.10 93.84 24.10ZM105.65 24.10L105.65 24.10Q104.62 24.10 103.79 23.72Q102.96 23.35 102.47 22.64Q101.98 21.94 101.98 20.95L101.98 20.95Q101.98 19.51 102.77 18.56Q103.56 17.62 104.88 17.15Q106.20 16.68 107.76 16.68L107.76 16.68L110.81 16.68Q110.86 16.42 110.87 16.22Q110.88 16.03 110.88 15.86L110.88 15.86Q110.88 14.86 110.34 14.30Q109.80 13.75 108.70 13.75L108.70 13.75Q107.71 13.75 106.88 14.24Q106.06 14.74 105.65 15.72L105.65 15.72L103.10 15.72Q103.56 14.38 104.45 13.46Q105.34 12.55 106.52 12.08Q107.71 11.62 109.08 11.62L109.08 11.62Q110.45 11.62 111.42 12.06Q112.39 12.50 112.92 13.36Q113.45 14.21 113.45 15.48L113.45 15.48Q113.45 15.77 113.41 16.03Q113.38 16.30 113.33 16.63L113.33 16.63L112.73 20.09Q112.68 20.26 112.67 20.44Q112.66 20.62 112.66 20.76L112.66 20.76Q112.66 21.19 112.91 21.42Q113.16 21.65 113.74 21.65L113.74 21.65L113.35 23.81Q111.86 23.81 111.08 23.32Q110.30 22.82 110.14 21.79L110.14 21.79Q109.66 22.44 109.01 22.97Q108.36 23.50 107.52 23.80Q106.68 24.10 105.65 24.10ZM106.54 22.01L106.54 22.01Q107.52 22.01 108.34 21.52Q109.15 21.02 109.70 20.21Q110.26 19.39 110.45 18.43L110.45 18.43L107.62 18.43Q106.85 18.43 106.16 18.66Q105.48 18.89 105.05 19.36Q104.62 19.82 104.62 20.59L104.62 20.59Q104.62 21.34 105.17 21.67Q105.72 22.01 106.54 22.01ZM117.82 23.81L115.27 23.81L117.36 11.90L119.64 11.90L119.47 13.97Q120.24 12.86 121.40 12.24Q122.57 11.62 123.94 11.62L123.94 11.62Q125.76 11.62 126.78 12.62Q127.80 13.63 127.80 15.50L127.80 15.50Q127.80 15.84 127.76 16.21Q127.73 16.58 127.66 16.97L127.66 16.97L126.46 23.81L123.91 23.81L125.06 17.21Q125.11 16.97 125.15 16.66Q125.18 16.34 125.18 16.13L125.18 16.13Q125.18 13.78 122.86 13.78L122.86 13.78Q121.92 13.78 121.09 14.23Q120.26 14.69 119.70 15.52Q119.14 16.34 118.94 17.50L118.94 17.50L117.82 23.81ZM133.85 24.10L133.85 24.10Q132.31 24.10 131.21 23.56Q130.10 23.02 129.55 22.07Q129 21.12 129.10 19.85L129.10 19.85L131.64 19.85Q131.62 20.78 132.23 21.42Q132.84 22.06 134.18 22.06L134.18 22.06Q135.34 22.06 136.00 21.56Q136.66 21.07 136.66 20.23L136.66 20.23Q136.66 19.54 136.01 19.21Q135.36 18.89 134.30 18.67L134.30 18.67Q133.82 18.55 133.37 18.41Q132.91 18.26 132.48 18.07L132.48 18.07Q131.59 17.71 131.00 17.09Q130.42 16.46 130.42 15.50L130.42 15.50Q130.42 14.38 131.08 13.50Q131.74 12.62 132.89 12.12Q134.04 11.62 135.48 11.62L135.48 11.62Q137.50 11.62 138.67 12.59Q139.85 13.56 139.78 15.31L139.78 15.31L137.30 15.31Q137.30 14.54 136.74 14.09Q136.18 13.63 135.22 13.63L135.22 13.63Q134.23 13.63 133.61 14.08Q132.98 14.52 132.98 15.17L132.98 15.17Q132.98 15.79 133.64 16.12Q134.30 16.44 135.38 16.68L135.38 16.68Q136.39 16.90 137.28 17.26Q138.17 17.62 138.73 18.25Q139.30 18.89 139.30 19.90L139.30 19.90Q139.30 21.12 138.61 22.07Q137.93 23.02 136.70 23.56Q135.48 24.10 133.85 24.10ZM153.10 24.10L153.10 24.10Q151.42 24.10 150.24 23.47Q149.06 22.85 148.45 21.79Q147.84 20.74 147.84 19.44L147.84 19.44Q147.84 19.37 147.84 19.28Q147.84 19.20 147.86 19.18L147.86 19.18L150.36 19.18Q150.36 20.02 150.78 20.64Q151.20 21.26 151.90 21.59Q152.59 21.91 153.43 21.91L153.43 21.91Q154.85 21.91 155.78 21.23Q156.72 20.54 157.19 19.51Q157.66 18.48 157.66 17.45L157.66 17.45Q157.66 16.10 156.89 15.23Q156.12 14.35 154.80 14.35L154.80 14.35Q153.36 14.35 152.42 15.02Q151.49 15.70 151.06 16.42L151.06 16.42L148.63 16.42L151.73 7.01L160.78 7.01L160.39 9.22L153.24 9.22L151.58 13.73Q152.21 13.15 153.17 12.71Q154.13 12.26 155.45 12.26L155.45 12.26Q156.58 12.26 157.45 12.64Q158.33 13.01 158.93 13.67Q159.53 14.33 159.84 15.18Q160.15 16.03 160.15 17.04L160.15 17.04Q160.15 19.08 159.22 20.68Q158.28 22.27 156.67 23.18Q155.06 24.10 153.10 24.10ZM167.06 24.10L167.06 24.10Q165.26 24.10 164.15 23.33Q163.03 22.56 162.53 21.22Q162.02 19.87 162.02 18.14L162.02 18.14Q162.02 16.82 162.28 15.29Q162.53 13.75 163.10 12.24Q163.68 10.73 164.63 9.47Q165.58 8.21 166.93 7.46Q168.29 6.72 170.14 6.72L170.14 6.72Q171.96 6.72 173.06 7.45Q174.17 8.18 174.67 9.50Q175.18 10.82 175.18 12.58L175.18 12.58Q175.18 13.85 174.94 15.38Q174.70 16.92 174.14 18.44Q173.59 19.97 172.67 21.25Q171.74 22.54 170.36 23.32Q168.98 24.10 167.06 24.10ZM167.47 21.82L167.47 21.82Q168.60 21.82 169.45 21.17Q170.30 20.52 170.90 19.49Q171.50 18.46 171.86 17.24Q172.22 16.03 172.39 14.86Q172.56 13.68 172.56 12.82L172.56 12.82Q172.56 11.02 171.89 10.00Q171.22 8.98 169.75 8.98L169.75 8.98Q168.58 8.98 167.71 9.59Q166.85 10.20 166.26 11.20Q165.67 12.19 165.31 13.39Q164.95 14.59 164.78 15.78Q164.62 16.97 164.62 17.95L164.62 17.95Q164.62 19.78 165.31 20.80Q166.01 21.82 167.47 21.82ZM181.22 24.10L181.22 24.10Q179.42 24.10 178.31 23.33Q177.19 22.56 176.69 21.22Q176.18 19.87 176.18 18.14L176.18 18.14Q176.18 16.82 176.44 15.29Q176.69 13.75 177.26 12.24Q177.84 10.73 178.79 9.47Q179.74 8.21 181.09 7.46Q182.45 6.72 184.30 6.72L184.30 6.72Q186.12 6.72 187.22 7.45Q188.33 8.18 188.83 9.50Q189.34 10.82 189.34 12.58L189.34 12.58Q189.34 13.85 189.10 15.38Q188.86 16.92 188.30 18.44Q187.75 19.97 186.83 21.25Q185.90 22.54 184.52 23.32Q183.14 24.10 181.22 24.10ZM181.63 21.82L181.63 21.82Q182.76 21.82 183.61 21.17Q184.46 20.52 185.06 19.49Q185.66 18.46 186.02 17.24Q186.38 16.03 186.55 14.86Q186.72 13.68 186.72 12.82L186.72 12.82Q186.72 11.02 186.05 10.00Q185.38 8.98 183.91 8.98L183.91 8.98Q182.74 8.98 181.87 9.59Q181.01 10.20 180.42 11.20Q179.83 12.19 179.47 13.39Q179.11 14.59 178.94 15.78Q178.78 16.97 178.78 17.95L178.78 17.95Q178.78 19.78 179.47 20.80Q180.17 21.82 181.63 21.82ZM198.72 23.81L196.18 23.81L198.26 11.90L200.81 11.90L198.72 23.81ZM200.23 9.74L200.23 9.74Q199.54 9.74 199.06 9.26Q198.58 8.78 198.58 8.09L198.58 8.09Q198.58 7.39 199.06 6.92Q199.54 6.46 200.23 6.46L200.23 6.46Q200.90 6.46 201.40 6.92Q201.89 7.39 201.89 8.09L201.89 8.09Q201.89 8.78 201.40 9.26Q200.90 9.74 200.23 9.74ZM208.37 23.81L206.38 23.81Q204.82 23.81 203.92 23.17Q203.02 22.54 203.02 21L203.02 21Q203.02 20.76 203.05 20.47Q203.09 20.18 203.14 19.87L203.14 19.87L204.17 14.04L202.27 14.04L202.66 11.90L204.55 11.90L205.06 9.02L207.62 9.02L207.10 11.90L210.48 11.90L210.07 14.04L206.74 14.04L205.68 19.87Q205.66 20.04 205.64 20.18Q205.63 20.33 205.63 20.45L205.63 20.45Q205.63 21.12 205.99 21.37Q206.35 21.62 207.17 21.62L207.17 21.62L208.75 21.62L208.37 23.81ZM214.30 24.10L214.30 24.10Q213.26 24.10 212.44 23.72Q211.61 23.35 211.12 22.64Q210.62 21.94 210.62 20.95L210.62 20.95Q210.62 19.51 211.42 18.56Q212.21 17.62 213.53 17.15Q214.85 16.68 216.41 16.68L216.41 16.68L219.46 16.68Q219.50 16.42 219.52 16.22Q219.53 16.03 219.53 15.86L219.53 15.86Q219.53 14.86 218.99 14.30Q218.45 13.75 217.34 13.75L217.34 13.75Q216.36 13.75 215.53 14.24Q214.70 14.74 214.30 15.72L214.30 15.72L211.75 15.72Q212.21 14.38 213.10 13.46Q213.98 12.55 215.17 12.08Q216.36 11.62 217.73 11.62L217.73 11.62Q219.10 11.62 220.07 12.06Q221.04 12.50 221.57 13.36Q222.10 14.21 222.10 15.48L222.10 15.48Q222.10 15.77 222.06 16.03Q222.02 16.30 221.98 16.63L221.98 16.63L221.38 20.09Q221.33 20.26 221.32 20.44Q221.30 20.62 221.30 20.76L221.30 20.76Q221.30 21.19 221.56 21.42Q221.81 21.65 222.38 21.65L222.38 21.65L222.00 23.81Q220.51 23.81 219.73 23.32Q218.95 22.82 218.78 21.79L218.78 21.79Q218.30 22.44 217.66 22.97Q217.01 23.50 216.17 23.80Q215.33 24.10 214.30 24.10ZM215.18 22.01L215.18 22.01Q216.17 22.01 216.98 21.52Q217.80 21.02 218.35 20.21Q218.90 19.39 219.10 18.43L219.10 18.43L216.26 18.43Q215.50 18.43 214.81 18.66Q214.13 18.89 213.70 19.36Q213.26 19.82 213.26 20.59L213.26 20.59Q213.26 21.34 213.82 21.67Q214.37 22.01 215.18 22.01ZM226.44 23.81L223.90 23.81L226.87 7.01L229.42 7.01L226.44 23.81ZM231.96 23.81L229.42 23.81L231.50 11.90L234.05 11.90L231.96 23.81ZM233.47 9.74L233.47 9.74Q232.78 9.74 232.30 9.26Q231.82 8.78 231.82 8.09L231.82 8.09Q231.82 7.39 232.30 6.92Q232.78 6.46 233.47 6.46L233.47 6.46Q234.14 6.46 234.64 6.92Q235.13 7.39 235.13 8.09L235.13 8.09Q235.13 8.78 234.64 9.26Q234.14 9.74 233.47 9.74ZM240.48 24.10L240.48 24.10Q238.80 24.10 237.67 23.39Q236.54 22.68 235.97 21.52Q235.39 20.35 235.39 19.01L235.39 19.01Q235.39 17.42 235.94 16.09Q236.50 14.76 237.48 13.75Q238.46 12.74 239.78 12.18Q241.10 11.62 242.66 11.62L242.66 11.62Q244.90 11.62 246.22 12.79Q247.54 13.97 247.56 16.01L247.56 16.01L244.90 16.01Q244.90 14.90 244.14 14.34Q243.38 13.78 242.28 13.78L242.28 13.78Q241.22 13.78 240.42 14.23Q239.62 14.69 239.09 15.43Q238.56 16.18 238.28 17.04Q238.01 17.90 238.01 18.74L238.01 18.74Q238.01 20.23 238.82 21.08Q239.64 21.94 240.86 21.94L240.86 21.94Q241.97 21.94 242.92 21.36Q243.86 20.78 244.27 19.70L244.27 19.70L246.91 19.70Q246.36 21.22 245.32 22.19Q244.27 23.16 243.00 23.63Q241.73 24.10 240.48 24.10Z"/></svg>