<svg xmlns="http://www.w3.org/2000/svg" xmlns:xlink="http://www.w3.org/1999/xlink" width="212.592" height="38.592"><path fill="black" d="M7.68 4.97L7.68 4.97Q9.41 4.97 10.52 5.57Q11.64 6.17 12.19 7.12Q12.74 8.06 12.74 9.14L12.74 9.14Q12.74 10.34 12.17 11.45Q11.59 12.55 10.38 13.26Q9.17 13.97 7.30 13.97L7.30 13.97Q6.60 13.97 6.04 13.91Q5.47 13.85 4.68 13.70L4.68 13.70L4.68 12.38Q5.38 12.58 5.99 12.67Q6.60 12.77 7.20 12.77L7.20 12.77Q7.68 12.77 8.30 12.70L8.30 12.70Q9.05 12.29 9.49 11.46Q9.94 10.63 9.94 9.31L9.94 9.31Q9.94 8.02 9.14 7.09Q8.35 6.17 7.03 6.17L7.03 6.17Q6.07 6.17 5.33 6.43L5.33 6.43Q5.33 8.59 5.32 10.28Q5.30 11.98 5.30 13.68L5.30 13.68Q5.30 15.14 5.30 16.49Q5.30 17.83 5.33 19.51L5.33 19.51L7.44 20.02L7.15 20.81Q6.48 20.76 5.72 20.75Q4.97 20.74 3.91 20.74L3.91 20.74Q2.98 20.74 2.22 20.76Q1.46 20.78 0.82 20.81L0.82 20.81L0.53 20.02L2.64 19.51Q2.71 17.57 2.75 15.62Q2.78 13.68 2.78 11.88L2.78 11.88Q2.78 10.54 2.75 9.07Q2.71 7.61 2.64 6.31L2.64 6.31L0.53 5.76L0.77 4.97Q1.51 4.99 2.44 5.03Q3.36 5.06 3.94 5.06L3.94 5.06Q4.68 5.06 5.22 5.04Q5.76 5.02 6.31 4.99Q6.86 4.97 7.68 4.97ZM8.90 13.22L8.90 13.22Q9.17 13.70 9.67 14.45Q10.18 15.19 10.82 16.07Q11.47 16.94 12.17 17.84Q12.86 18.74 13.49 19.51L13.49 19.51L15.70 20.02L15.31 20.81Q14.88 20.76 14.26 20.76Q13.63 20.76 12.98 20.76L12.98 20.76Q12.41 20.76 11.84 20.76Q11.28 20.76 10.80 20.81L10.80 20.81Q10.30 19.90 9.66 18.85Q9.02 17.81 8.38 16.79Q7.73 15.77 7.20 14.95Q6.67 14.14 6.41 13.73L6.41 13.73Q6.70 13.42 7.25 13.32Q7.80 13.22 8.30 13.22Q8.81 13.22 8.90 13.22ZM21.05 21.10L21.05 21.10Q19.66 21.10 18.84 20.04Q18.02 18.98 17.95 17.18L17.95 17.18Q17.88 16.34 17.87 15.04Q17.86 13.73 17.90 11.88L17.90 11.88L16.20 11.62L15.94 10.78Q16.97 10.78 18.17 10.67Q19.37 10.56 20.45 10.39L20.45 10.39Q20.35 11.86 20.29 13.30Q20.23 14.74 20.35 16.75L20.35 16.75Q20.42 17.93 20.96 18.56Q21.50 19.20 22.30 19.20L22.30 19.20Q22.73 19.10 23.33 18.54Q23.93 17.98 24.38 17.08Q24.84 16.18 24.84 15.07L24.84 15.07L25.46 16.44Q25.32 17.62 24.70 18.67Q24.07 19.73 23.14 20.41Q22.20 21.10 21.05 21.10ZM24.86 20.81L24.86 20.81Q24.86 20.11 24.84 19.62Q24.82 19.13 24.82 18.62Q24.82 18.12 24.86 17.33L24.86 17.33L24.72 11.90L22.99 11.62L22.75 10.78Q23.78 10.78 25.02 10.66Q26.26 10.54 27.22 10.39L27.22 10.39Q27.22 10.85 27.19 11.58Q27.17 12.31 27.14 13.13Q27.12 13.94 27.11 14.68Q27.10 15.41 27.10 15.84L27.10 15.84Q27.12 16.66 27.18 17.47Q27.24 18.29 27.34 19.58L27.34 19.58L29.14 20.09L28.78 20.81Q28.15 20.76 27.71 20.76Q27.26 20.76 26.42 20.76L26.42 20.76Q26.06 20.76 25.63 20.78Q25.20 20.81 24.86 20.81ZM35.30 10.75L35.30 10.75L35.62 11.47L34.01 11.98Q34.39 13.27 34.72 14.21Q35.04 15.14 35.44 16.09Q35.83 17.04 36.38 18.36L36.38 18.36Q36.41 18.60 36.24 19.04Q36.07 19.49 35.81 19.94Q35.54 20.40 35.27 20.71Q34.99 21.02 34.78 21.02L34.78 21.02Q34.30 19.63 33.88 18.50Q33.46 17.38 33.05 16.36Q32.64 15.34 32.20 14.28Q31.75 13.22 31.20 11.98L31.20 11.98L29.47 11.47L29.76 10.75Q30.41 10.78 31.07 10.80Q31.73 10.82 32.47 10.82L32.47 10.82Q33.96 10.82 35.30 10.75ZM38.38 10.61L38.38 10.61L39.58 10.61L39.50 12.46Q38.59 14.64 37.73 16.80Q36.86 18.96 36.12 21.02L36.12 21.02L34.78 21.02Q35.40 19.56 36.04 17.77Q36.67 15.98 37.27 14.14Q37.87 12.29 38.38 10.61ZM38.02 13.34L39.58 10.61Q40.20 12.26 40.72 13.60Q41.23 14.93 41.74 16.14Q42.24 17.35 42.86 18.67L42.86 18.67Q42.89 18.94 42.72 19.32Q42.55 19.70 42.29 20.10Q42.02 20.50 41.75 20.76Q41.47 21.02 41.28 21.02L41.28 21.02Q40.66 19.46 40.14 18.18Q39.62 16.90 39.11 15.73Q38.59 14.57 38.02 13.34L38.02 13.34ZM47.40 10.75L47.40 10.75L47.71 11.47L45.89 11.98Q45.24 13.61 44.70 15.07Q44.16 16.54 43.66 17.99Q43.15 19.44 42.60 21.02L42.60 21.02L41.28 21.02Q42.12 19.01 42.84 16.69Q43.56 14.38 44.18 11.98L44.18 11.98L42.36 11.47L42.65 10.75Q43.39 10.78 43.99 10.80Q44.59 10.82 45.24 10.82L45.24 10.82Q45.91 10.82 46.37 10.80Q46.82 10.78 47.40 10.75ZM53.11 21.10L53.11 21.10Q51.72 21.10 50.90 20.04Q50.09 18.98 50.02 17.18L50.02 17.18Q49.94 16.34 49.93 15.04Q49.92 13.73 49.97 11.88L49.97 11.88L48.26 11.62L48 10.78Q49.03 10.78 50.23 10.67Q51.43 10.56 52.51 10.39L52.51 10.39Q52.42 11.86 52.36 13.30Q52.30 14.74 52.42 16.75L52.42 16.75Q52.49 17.93 53.03 18.56Q53.57 19.20 54.36 19.20L54.36 19.20Q54.79 19.10 55.39 18.54Q55.99 17.98 56.45 17.08Q56.90 16.18 56.90 15.07L56.90 15.07L57.53 16.44Q57.38 17.62 56.76 18.67Q56.14 19.73 55.20 20.41Q54.26 21.10 53.11 21.10ZM56.93 20.81L56.93 20.81Q56.93 20.11 56.90 19.62Q56.88 19.13 56.88 18.62Q56.88 18.12 56.93 17.33L56.93 17.33L56.78 11.90L55.06 11.62L54.82 10.78Q55.85 10.78 57.08 10.66Q58.32 10.54 59.28 10.39L59.28 10.39Q59.28 10.85 59.26 11.58Q59.23 12.31 59.21 13.13Q59.18 13.94 59.17 14.68Q59.16 15.41 59.16 15.84L59.16 15.84Q59.18 16.66 59.24 17.47Q59.30 18.29 59.40 19.58L59.40 19.58L61.20 20.09L60.84 20.81Q60.22 20.76 59.77 20.76Q59.33 20.76 58.49 20.76L58.49 20.76Q58.13 20.76 57.70 20.78Q57.26 20.81 56.93 20.81ZM72.24 2.90L72.24 2.90Q72.22 4.63 72.20 6.47Q72.19 8.30 72.19 10.46L72.19 10.46Q72.19 12.36 72.20 14.12Q72.22 15.89 72.24 17.29Q72.26 18.70 72.31 19.58L72.31 19.58L74.16 20.09L73.87 20.81Q73.22 20.76 72.70 20.76Q72.17 20.76 71.54 20.76L71.54 20.76Q71.11 20.76 70.75 20.78Q70.39 20.81 70.06 20.83L70.06 20.83Q70.01 20.28 69.92 19.80Q69.84 19.32 69.79 18.82L69.79 18.82Q69.82 17.64 69.83 16.49Q69.84 15.34 69.84 14.18L69.84 14.18Q69.84 13.68 69.83 13.14Q69.82 12.60 69.82 12.02L69.82 12.02Q69.79 10.39 69.78 8.56Q69.77 6.72 69.65 4.51L69.65 4.51L67.85 4.20L67.61 3.36Q68.14 3.36 68.95 3.30Q69.77 3.24 70.64 3.14Q71.52 3.05 72.24 2.90ZM66.74 10.37L66.74 10.37Q67.99 10.37 69.06 11.09Q70.13 11.81 70.58 13.22L70.58 13.22L69.84 14.47Q69.77 13.75 69.29 13.10Q68.81 12.46 68.10 12.05Q67.39 11.64 66.65 11.64L66.65 11.64Q65.76 12.05 65.30 13.10Q64.85 14.16 64.85 15.43L64.85 15.43Q64.85 16.54 65.16 17.45Q65.47 18.36 66.06 18.91Q66.65 19.46 67.46 19.46L67.46 19.46Q68.62 19.46 69.48 18.38Q70.34 17.30 70.73 15.50L70.73 15.50L71.30 16.61Q70.75 18.55 69.58 19.76Q68.40 20.98 66.67 20.98L66.67 20.98Q65.57 20.98 64.54 20.40Q63.50 19.82 62.84 18.62Q62.18 17.42 62.18 15.58L62.18 15.58Q62.18 13.87 62.87 12.71Q63.55 11.54 64.60 10.96Q65.64 10.37 66.74 10.37ZM79.66 21.10L79.66 21.10Q78.26 21.10 77.45 20.04Q76.63 18.98 76.56 17.18L76.56 17.18Q76.49 16.34 76.48 15.04Q76.46 13.73 76.51 11.88L76.51 11.88L74.81 11.62L74.54 10.78Q75.58 10.78 76.78 10.67Q77.98 10.56 79.06 10.39L79.06 10.39Q78.96 11.86 78.90 13.30Q78.84 14.74 78.96 16.75L78.96 16.75Q79.03 17.93 79.57 18.56Q80.11 19.20 80.90 19.20L80.90 19.20Q81.34 19.10 81.94 18.54Q82.54 17.98 82.99 17.08Q83.45 16.18 83.45 15.07L83.45 15.07L84.07 16.44Q83.93 17.62 83.30 18.67Q82.68 19.73 81.74 20.41Q80.81 21.10 79.66 21.10ZM83.47 20.81L83.47 20.81Q83.47 20.11 83.45 19.62Q83.42 19.13 83.42 18.62Q83.42 18.12 83.47 17.33L83.47 17.33L83.33 11.90L81.60 11.62L81.36 10.78Q82.39 10.78 83.63 10.66Q84.86 10.54 85.82 10.39L85.82 10.39Q85.82 10.85 85.80 11.58Q85.78 12.31 85.75 13.13Q85.73 13.94 85.72 14.68Q85.70 15.41 85.70 15.84L85.70 15.84Q85.73 16.66 85.79 17.47Q85.85 18.29 85.94 19.58L85.94 19.58L87.74 20.09L87.38 20.81Q86.76 20.76 86.32 20.76Q85.87 20.76 85.03 20.76L85.03 20.76Q84.67 20.76 84.24 20.78Q83.81 20.81 83.47 20.81ZM95.74 13.49L95.16 12.79Q95.35 11.66 95.47 10.43Q95.59 9.19 95.66 8.02Q95.74 6.84 95.74 5.93L95.74 5.93Q96.43 5.93 97.02 5.94Q97.61 5.95 98.29 5.96Q98.98 5.98 99.96 5.98L99.96 5.98Q100.54 5.98 101.32 5.96Q102.10 5.95 102.85 5.94Q103.61 5.93 104.09 5.93L104.09 5.93L103.99 8.57Q103.27 8.33 102.30 8.21Q101.33 8.09 100.32 8.04Q99.31 7.99 98.45 7.98Q97.58 7.97 97.10 7.97L97.10 7.97Q96.94 8.64 96.84 9.46Q96.74 10.27 96.70 10.92L96.70 10.92Q97.42 10.82 98.30 10.82L98.30 10.82Q100.25 10.82 101.66 11.47Q103.08 12.12 103.86 13.25Q104.64 14.38 104.64 15.77L104.64 15.77Q104.64 17.06 104.10 18.04Q103.56 19.01 102.65 19.67Q101.74 20.33 100.58 20.66Q99.43 21 98.23 21L98.23 21Q97.44 21 96.60 20.88Q95.76 20.76 94.94 20.45L94.94 20.45L95.09 19.49Q96.50 19.92 98.06 19.92L98.06 19.92Q99.17 19.92 100.09 19.52Q101.02 19.13 101.58 18.41Q102.14 17.69 102.14 16.68L102.14 16.68Q102.14 15.58 101.57 14.82Q100.99 14.06 100.02 13.68Q99.05 13.30 97.82 13.30L97.82 13.30Q97.18 13.30 96.67 13.34Q96.17 13.39 95.74 13.49L95.74 13.49ZM112.78 5.81L112.78 5.81Q114.43 5.81 115.75 6.66Q117.07 7.51 117.84 9.23Q118.61 10.94 118.61 13.54L118.61 13.54Q118.61 15.98 117.84 17.64Q117.07 19.30 115.75 20.12Q114.43 20.95 112.78 20.95L112.78 20.95Q111.14 20.95 109.82 20.12Q108.50 19.30 107.74 17.64Q106.97 15.98 106.97 13.54L106.97 13.54Q106.97 10.94 107.74 9.23Q108.50 7.51 109.82 6.66Q111.14 5.81 112.78 5.81ZM112.73 6.96L112.73 6.96Q111.43 6.96 110.52 8.54Q109.61 10.13 109.61 13.54L109.61 13.54Q109.61 16.75 110.53 18.28Q111.46 19.80 112.85 19.80L112.85 19.80Q114.17 19.80 115.08 18.29Q115.99 16.78 115.99 13.54L115.99 13.54Q115.99 10.15 115.06 8.56Q114.12 6.96 112.73 6.96ZM125.78 5.81L125.78 5.81Q127.44 5.81 128.76 6.66Q130.08 7.51 130.85 9.23Q131.62 10.94 131.62 13.54L131.62 13.54Q131.62 15.98 130.85 17.64Q130.08 19.30 128.76 20.12Q127.44 20.95 125.78 20.95L125.78 20.95Q124.15 20.95 122.83 20.12Q121.51 19.30 120.74 17.64Q119.98 15.98 119.98 13.54L119.98 13.54Q119.98 10.94 120.74 9.23Q121.51 7.51 122.83 6.66Q124.15 5.81 125.78 5.81ZM125.74 6.96L125.74 6.96Q124.44 6.96 123.53 8.54Q122.62 10.13 122.62 13.54L122.62 13.54Q122.62 16.75 123.54 18.28Q124.46 19.80 125.86 19.80L125.86 19.80Q127.18 19.80 128.09 18.29Q129 16.78 129 13.54L129 13.54Q129 10.15 128.06 8.56Q127.13 6.96 125.74 6.96ZM146.11 10.34L146.11 10.34Q147.53 10.34 148.40 11.38Q149.28 12.41 149.33 14.09L149.33 14.09Q149.33 15.34 149.30 16.72Q149.28 18.10 149.28 19.58L149.28 19.58L151.15 20.09L150.84 20.81Q149.45 20.74 148.06 20.74L148.06 20.74Q147.29 20.74 146.65 20.76Q146.02 20.78 145.30 20.81L145.30 20.81L145.01 20.09L146.83 19.58Q146.88 18.60 146.90 17.89Q146.93 17.18 146.93 16.48Q146.93 15.77 146.93 14.83L146.93 14.83Q146.93 13.61 146.34 12.92Q145.75 12.24 144.77 12.17L144.77 12.17Q144.41 12.31 143.83 12.85Q143.26 13.39 142.82 14.32Q142.39 15.24 142.39 16.51L142.39 16.51L141.53 15.46Q141.60 14.57 142.00 13.68Q142.39 12.79 143.03 12.04Q143.66 11.28 144.46 10.81Q145.25 10.34 146.11 10.34ZM142.37 10.32L142.37 10.32Q142.37 11.14 142.37 11.64Q142.37 12.14 142.37 12.62Q142.37 13.10 142.37 13.85L142.37 13.85L142.46 19.58L144.29 20.09L144 20.81Q142.63 20.74 141.24 20.74L141.24 20.74Q140.42 20.74 139.79 20.76Q139.15 20.78 138.41 20.81L138.41 20.81L138.12 20.09L139.97 19.58Q139.99 18.53 140.05 17.51Q140.11 16.49 140.09 15.46L140.09 15.46Q140.09 14.86 140.06 14.40Q140.04 13.94 139.99 13.39Q139.94 12.84 139.87 11.95L139.87 11.95L138.10 11.59L137.83 10.78Q138.86 10.75 140.02 10.64Q141.17 10.54 142.37 10.32ZM157.37 21.07L157.37 21.07Q155.64 21.07 154.48 20.30Q153.31 19.54 152.72 18.31Q152.14 17.09 152.14 15.72L152.14 15.72Q152.14 14.35 152.72 13.13Q153.31 11.90 154.49 11.14Q155.66 10.37 157.42 10.37L157.42 10.37Q159.12 10.37 160.26 11.14Q161.40 11.90 161.98 13.12Q162.55 14.33 162.55 15.67L162.55 15.67Q162.55 17.04 161.96 18.28Q161.38 19.51 160.24 20.29Q159.10 21.07 157.37 21.07ZM157.68 19.99L157.68 19.99Q158.42 19.99 158.92 19.46Q159.41 18.94 159.65 18.07Q159.89 17.21 159.89 16.20L159.89 16.20Q159.89 15.05 159.56 13.97Q159.24 12.89 158.62 12.18Q157.99 11.47 157.06 11.47L157.06 11.47Q156.31 11.47 155.82 12Q155.33 12.53 155.08 13.39Q154.82 14.26 154.82 15.26L154.82 15.26Q154.82 16.42 155.15 17.51Q155.47 18.60 156.11 19.30Q156.74 19.99 157.68 19.99ZM167.83 10.39L167.83 10.39Q167.93 11.26 168.01 12.22Q168.10 13.18 168.02 13.87L168.02 13.87L168.17 19.49L170.57 20.09L170.28 20.81Q169.66 20.76 168.71 20.75Q167.76 20.74 166.92 20.74L166.92 20.74Q166.18 20.74 165.46 20.76Q164.74 20.78 164.02 20.81L164.02 20.81L163.73 20.09L165.65 19.58Q165.67 18.43 165.71 17.47Q165.74 16.51 165.72 15.46L165.72 15.46Q165.72 14.90 165.70 14.44Q165.67 13.97 165.64 13.38Q165.60 12.79 165.53 11.95L165.53 11.95L163.82 11.64L163.54 10.80Q164.38 10.78 165.56 10.69Q166.75 10.61 167.83 10.39ZM171.22 10.34L171.22 10.34Q171.82 10.34 172.32 10.56Q172.82 10.78 173.14 11.23L173.14 11.23Q173.04 11.98 172.91 12.73Q172.78 13.49 172.58 14.45L172.58 14.45L171.62 14.47Q171.46 13.56 171.08 12.96Q170.71 12.36 170.14 12.24L170.14 12.24Q169.75 12.38 169.27 12.90Q168.79 13.42 168.43 14.39Q168.07 15.36 168.07 16.82L168.07 16.82L167.38 15.43Q167.45 13.94 168.05 12.79Q168.65 11.64 169.51 10.99Q170.38 10.34 171.22 10.34ZM182.11 10.34L182.11 10.34Q183.55 10.34 184.39 11.38Q185.23 12.41 185.28 14.11L185.28 14.11Q185.35 15.36 185.32 16.73Q185.28 18.10 185.33 19.58L185.33 19.58L187.18 20.09L186.89 20.81Q186.26 20.76 185.60 20.75Q184.94 20.74 184.06 20.74L184.06 20.74Q183.31 20.74 182.66 20.76Q182.02 20.78 181.32 20.81L181.32 20.81L181.03 20.09L182.86 19.58Q182.90 18.60 182.93 17.89Q182.95 17.18 182.94 16.49Q182.93 15.79 182.88 14.86L182.88 14.86Q182.86 13.54 182.27 12.86Q181.68 12.19 180.72 12.19L180.72 12.19Q180.36 12.36 179.80 12.90Q179.23 13.44 178.81 14.35Q178.39 15.26 178.39 16.54L178.39 16.54L177.53 15.50Q177.60 14.62 178.00 13.72Q178.39 12.82 179.04 12.05Q179.69 11.28 180.48 10.81Q181.27 10.34 182.11 10.34ZM178.37 10.37L178.37 10.37Q178.37 11.16 178.37 11.64Q178.37 12.12 178.37 12.60Q178.37 13.08 178.37 13.90L178.37 13.90L178.46 19.58L180.29 20.09L179.98 20.81Q179.30 20.76 178.68 20.75Q178.06 20.74 177.22 20.74L177.22 20.74Q176.45 20.74 175.80 20.76Q175.15 20.78 174.43 20.81L174.43 20.81L174.12 20.09L175.99 19.58Q176.04 18.34 176.08 17.42Q176.11 16.51 176.11 15.50L176.11 15.50Q176.09 14.90 176.06 14.40Q176.04 13.90 176.00 13.32Q175.97 12.74 175.90 11.93L175.90 11.93L174.14 11.62L173.88 10.80Q174.84 10.78 175.99 10.68Q177.14 10.58 178.37 10.37ZM189 10.34L189 10.34Q190.46 10.34 191.35 11.38Q192.24 12.41 192.24 14.11L192.24 14.11Q192.24 15.36 192.22 16.73Q192.19 18.10 192.22 19.58L192.22 19.58L194.09 20.09L193.78 20.81Q193.15 20.76 192.48 20.75Q191.81 20.74 190.94 20.74L190.94 20.74Q190.18 20.74 189.52 20.76Q188.86 20.78 188.16 20.81L188.16 20.81L187.90 20.09L189.74 19.58Q189.79 18.60 189.82 17.89Q189.84 17.18 189.84 16.49Q189.84 15.79 189.82 14.86L189.82 14.86Q189.77 12.19 187.58 12.19L187.58 12.19Q187.22 12.36 186.68 12.90Q186.14 13.44 185.72 14.35Q185.30 15.26 185.30 16.54L185.30 16.54L184.46 15.50Q184.54 14.62 184.93 13.72Q185.33 12.82 185.96 12.05Q186.60 11.28 187.38 10.81Q188.16 10.34 189 10.34ZM200.66 10.37L200.66 10.37Q201.98 10.37 202.82 11.27Q203.66 12.17 203.66 13.61L203.66 13.61Q203.66 14.69 203.59 15.60Q203.52 16.51 203.52 17.40L203.52 17.40Q203.52 18.36 203.64 18.76Q203.76 19.15 204.14 19.15L204.14 19.15Q204.34 19.15 204.60 19.07Q204.86 18.98 205.18 18.84L205.18 18.84L205.54 19.63Q204.96 20.06 204.14 20.48Q203.33 20.90 202.66 20.90L202.66 20.90Q201.82 20.90 201.46 20.12Q201.10 19.34 201.10 18.19L201.10 18.19Q201.10 17.06 201.16 16.04Q201.22 15.02 201.22 14.30L201.22 14.30Q201.22 13.42 200.94 12.78Q200.66 12.14 199.94 11.95L199.94 11.95Q198.96 12.05 198.01 12.41Q197.06 12.77 196.03 13.32L196.03 13.32L195.50 12.46Q196.78 11.47 198.11 10.92Q199.44 10.37 200.66 10.37ZM202.39 14.59L202.39 14.59L201.48 16.08Q200.78 16.22 200.23 16.36Q199.68 16.49 199.25 16.61L199.25 16.61Q198.46 16.80 198.08 17.05Q197.71 17.30 197.71 17.95L197.71 17.95Q197.71 18.50 198.01 18.84Q198.31 19.18 198.82 19.18L198.82 19.18Q199.54 19.18 200.39 18.66Q201.24 18.14 202.01 17.30L202.01 17.30L202.01 18.53Q201.55 19.08 200.83 19.63Q200.11 20.18 199.28 20.57Q198.46 20.95 197.66 20.95L197.66 20.95Q196.66 20.95 195.96 20.18Q195.26 19.42 195.26 18.26L195.26 18.26Q195.26 17.06 196.07 16.52Q196.87 15.98 198.46 15.60L198.46 15.60Q199.22 15.41 200.20 15.18Q201.17 14.95 202.39 14.59ZM210.41 2.93L210.41 2.93Q210.38 5.64 210.38 8.50Q210.38 11.35 210.41 14.16Q210.43 16.97 210.48 19.58L210.48 19.58L212.38 20.09L212.04 20.81Q211.46 20.78 210.82 20.77Q210.17 20.76 209.23 20.76L209.23 20.76Q208.34 20.76 207.66 20.77Q206.98 20.78 206.35 20.81L206.35 20.81L206.04 20.09L207.94 19.58Q207.98 17.66 208.00 15.60Q208.01 13.54 208.00 11.52Q207.98 9.50 207.95 7.70Q207.91 5.90 207.84 4.51L207.84 4.51L206.02 4.18L205.75 3.41Q206.59 3.36 207.86 3.25Q209.14 3.14 210.41 2.93Z"/></svg>