<svg xmlns="http://www.w3.org/2000/svg" xmlns:xlink="http://www.w3.org/1999/xlink" width="201.38400000000001" height="24.432000000000002"><path fill="black" d="M1.44 18.62L2.16 18.46L2.45 14.35L2.45 9.31L2.16 5.23L1.44 5.06L1.46 4.61Q5.52 4.51 6.26 4.51L6.26 4.51Q11.21 4.51 11.21 8.38L11.21 8.38Q11.21 10.61 9.26 11.57L9.26 11.57Q11.81 12.60 11.81 15.06Q11.81 17.52 10.30 18.36Q8.78 19.20 5.50 19.20L5.50 19.20Q3.94 19.20 1.46 19.08L1.46 19.08L1.44 18.62ZM4.34 12.34L4.34 14.38L4.56 17.59Q5.62 17.74 6.31 17.74L6.31 17.74Q9.58 17.74 9.58 15L9.58 15Q9.58 13.54 8.74 12.90Q7.90 12.26 5.95 12.26L5.95 12.26Q5.81 12.26 4.34 12.34L4.34 12.34ZM4.56 6.10L4.34 9.34L4.34 10.94Q5.11 11.02 5.76 11.02L5.76 11.02Q7.51 11.02 8.26 10.39L8.26 10.39Q8.98 9.79 8.98 8.47L8.98 8.47Q8.98 5.95 6.07 5.95L6.07 5.95Q5.47 5.95 4.56 6.10L4.56 6.10ZM14.66 8.90L15.05 8.90L15.26 9.43Q16.80 9.17 17.88 9.17L17.88 9.17Q19.92 9.17 21.01 10.02Q22.10 10.87 22.10 12.48L22.10 12.48L22.06 14.86L22.27 18.46L23.09 18.62L23.06 19.08L20.09 19.30L20.09 18.31Q18.67 19.46 17.21 19.46Q15.74 19.46 14.92 18.67Q14.09 17.88 14.09 16.49Q14.09 15.10 15.29 14.41Q16.49 13.73 20.26 13.10L20.26 13.10L20.26 12.48Q20.26 11.54 19.72 11.03Q19.18 10.51 18.12 10.51Q17.06 10.51 15.41 11.21L15.41 11.21L15.31 12.10L14.90 12.12L14.66 8.90ZM20.21 14.47Q17.74 14.93 16.93 15.30Q16.13 15.67 16.13 16.42Q16.13 17.16 16.63 17.64Q17.14 18.12 18.08 18.12Q19.03 18.12 20.09 17.06L20.09 17.06L20.21 14.47ZM25.13 5.09L25.15 4.63L28.25 4.37L28.01 8.88L28.01 14.86L28.20 18.48L28.92 18.65L28.90 19.10L25.25 19.10L25.22 18.65L25.94 18.48L26.16 14.86L26.16 8.88L25.94 5.26L25.13 5.09ZM31.75 16.51L31.75 16.51L31.85 10.70L30.60 10.75L30.60 9.96L31.85 9.53L33.17 7.13L33.55 7.13L33.70 9.53L36.12 9.53L36 10.56L33.70 10.66L33.70 16.06Q33.70 17.59 34.01 18.04Q34.32 18.48 35.42 18.48L35.42 18.48L36.36 18.48L36.41 18.89Q35.52 19.46 34.20 19.46Q32.88 19.46 32.32 18.79Q31.75 18.12 31.75 16.51ZM41.40 19.10L37.37 19.10L37.34 18.65L38.06 18.48L38.28 14.78L38.28 8.88L38.06 5.26L37.25 5.09L37.27 4.63L40.37 4.37L40.13 8.88L40.13 10.54Q41.81 9.17 43.38 9.17Q44.95 9.17 45.73 10.08Q46.51 10.99 46.51 12.62L46.51 12.62L46.51 14.83L46.70 18.48L47.42 18.65L47.40 19.10L43.44 19.10L43.42 18.60L44.45 18.48L44.66 14.83L44.66 12.72Q44.66 11.81 44.15 11.32Q43.63 10.82 42.53 10.82Q41.42 10.82 40.13 11.78L40.13 11.78L40.13 14.78L40.34 18.48L41.42 18.60L41.40 19.10ZM49.92 8.90L50.30 8.90L50.52 9.43Q52.06 9.17 53.14 9.17L53.14 9.17Q55.18 9.17 56.27 10.02Q57.36 10.87 57.36 12.48L57.36 12.48L57.31 14.86L57.53 18.46L58.34 18.62L58.32 19.08L55.34 19.30L55.34 18.31Q53.93 19.46 52.46 19.46Q51 19.46 50.17 18.67Q49.34 17.88 49.34 16.49Q49.34 15.10 50.54 14.41Q51.74 13.73 55.51 13.10L55.51 13.10L55.51 12.48Q55.51 11.54 54.97 11.03Q54.43 10.51 53.38 10.51Q52.32 10.51 50.66 11.21L50.66 11.21L50.57 12.10L50.16 12.12L49.92 8.90ZM55.46 14.47Q52.99 14.93 52.19 15.30Q51.38 15.67 51.38 16.42Q51.38 17.16 51.89 17.64Q52.39 18.12 53.34 18.12Q54.29 18.12 55.34 17.06L55.34 17.06L55.46 14.47ZM60.53 8.78L60.91 8.78L61.13 9.31L66.05 9.53L68.14 9.38L68.21 9.72L63.07 17.78L65.71 17.78L67.34 17.62L67.73 16.73L68.16 16.82L67.49 19.73L67.01 19.73L67.03 19.20L62.16 18.98L60.24 19.20L60.14 18.82L65.28 10.73L63.24 10.73L61.27 10.97L61.18 11.83L60.77 11.86L60.53 8.78ZM70.46 8.90L70.85 8.90L71.06 9.43Q72.60 9.17 73.68 9.17L73.68 9.17Q75.72 9.17 76.81 10.02Q77.90 10.87 77.90 12.48L77.90 12.48L77.86 14.86L78.07 18.46L78.89 18.62L78.86 19.08L75.89 19.30L75.89 18.31Q74.47 19.46 73.01 19.46Q71.54 19.46 70.72 18.67Q69.89 17.88 69.89 16.49Q69.89 15.10 71.09 14.41Q72.29 13.73 76.06 13.10L76.06 13.10L76.06 12.48Q76.06 11.54 75.52 11.03Q74.98 10.51 73.92 10.51Q72.86 10.51 71.21 11.21L71.21 11.21L71.11 12.10L70.70 12.12L70.46 8.90ZM76.01 14.47Q73.54 14.93 72.73 15.30Q71.93 15.67 71.93 16.42Q71.93 17.16 72.43 17.64Q72.94 18.12 73.88 18.12Q74.83 18.12 75.89 17.06L75.89 17.06L76.01 14.47ZM80.93 10.01L80.95 9.55L84.05 9.29L83.95 10.87Q84.58 9.86 85.08 9.52Q85.58 9.17 86.30 9.17Q87.02 9.17 87.72 9.29L87.72 9.29L87.60 12.07L87.19 12.07L87.02 11.04Q86.33 10.80 85.86 10.80Q85.39 10.80 84.98 11.04Q84.58 11.28 83.90 12.02L83.90 12.02L83.81 13.80L83.81 14.86L84 18.48L85.44 18.65L85.42 19.10L81.05 19.10L81.02 18.65L81.74 18.48L81.96 14.86L81.96 13.80L81.74 10.18L80.93 10.01ZM99.14 17.21L92.93 17.21L92.76 16.25L99.91 6.94L100.85 6.94L100.85 15.84L102.72 15.62L102.94 15.10L103.32 15.10L103.18 18.17L102.77 18.14L102.65 17.23L100.85 17.23L100.85 20.86L98.88 20.95L99.14 17.21ZM99.14 9.91L94.51 15.84L99.14 15.84L99.14 9.91ZM110.53 8.40Q108.94 8.40 108.02 9.70Q107.11 10.99 107.11 13.26Q107.11 15.53 107.99 16.76Q108.86 18 110.46 18Q112.06 18 112.97 16.72Q113.88 15.43 113.88 13.15Q113.88 10.87 113.00 9.64Q112.13 8.40 110.53 8.40ZM110.45 19.46Q107.98 19.46 106.55 17.81Q105.12 16.15 105.12 13.26Q105.12 10.37 106.58 8.65Q108.05 6.94 110.52 6.94Q112.99 6.94 114.43 8.60Q115.87 10.27 115.87 13.15Q115.87 16.03 114.40 17.75Q112.92 19.46 110.45 19.46ZM123.44 8.40Q121.85 8.40 120.94 9.70Q120.02 10.99 120.02 13.26Q120.02 15.53 120.90 16.76Q121.78 18 123.37 18Q124.97 18 125.88 16.72Q126.79 15.43 126.79 13.15Q126.79 10.87 125.92 9.64Q125.04 8.40 123.44 8.40ZM123.36 19.46Q120.89 19.46 119.46 17.81Q118.03 16.15 118.03 13.26Q118.03 10.37 119.50 8.65Q120.96 6.94 123.43 6.94Q125.90 6.94 127.34 8.60Q128.78 10.27 128.78 13.15Q128.78 16.03 127.31 17.75Q125.83 19.46 123.36 19.46ZM139.87 19.10L135.86 19.10L135.84 18.65L136.56 18.48L136.78 14.86L136.78 13.80L136.56 10.18L135.74 10.01L135.77 9.55L138.86 9.29L138.79 10.39Q140.42 9.17 141.94 9.17Q143.45 9.17 144.23 10.08Q145.01 10.99 145.01 12.62L145.01 12.62L145.01 14.86L145.20 18.48L145.92 18.65L145.90 19.10L141.94 19.10L141.91 18.60L142.94 18.48L143.16 14.86L143.16 12.72Q143.16 11.81 142.64 11.32Q142.13 10.82 141.04 10.82Q139.94 10.82 138.74 11.69L138.74 11.69L138.62 13.80L138.62 14.86L138.82 18.48L139.90 18.60L139.87 19.10ZM152.81 18.12L152.81 18.12Q155.35 18.12 155.35 14.59L155.35 14.59Q155.35 10.51 152.40 10.51L152.40 10.51Q151.08 10.51 150.49 11.34Q149.90 12.17 149.90 14.16L149.90 14.16Q149.90 18.12 152.81 18.12ZM152.57 19.46Q150.34 19.46 149.09 18.16Q147.84 16.85 147.84 14.46Q147.84 12.07 149.16 10.62Q150.48 9.17 152.72 9.17Q154.97 9.17 156.20 10.45Q157.44 11.74 157.44 14.15Q157.44 16.56 156.12 18.01Q154.80 19.46 152.57 19.46ZM159.48 10.01L159.50 9.55L162.60 9.29L162.50 10.87Q163.13 9.86 163.63 9.52Q164.14 9.17 164.86 9.17Q165.58 9.17 166.27 9.29L166.27 9.29L166.15 12.07L165.74 12.07L165.58 11.04Q164.88 10.80 164.41 10.80Q163.94 10.80 163.54 11.04Q163.13 11.28 162.46 12.02L162.46 12.02L162.36 13.80L162.36 14.86L162.55 18.48L163.99 18.65L163.97 19.10L159.60 19.10L159.58 18.65L160.30 18.48L160.51 14.86L160.51 13.80L160.30 10.18L159.48 10.01ZM183.55 18.65L183.53 19.10L179.57 19.10L179.54 18.60L180.58 18.48L180.79 14.86L180.79 12.72Q180.79 11.81 180.30 11.32Q179.81 10.82 178.70 10.82Q177.60 10.82 176.50 11.69L176.50 11.69L176.50 14.86L176.69 18.48L176.71 18.48L177.74 18.60L177.72 19.10L173.42 19.10L173.40 18.60L174.43 18.48L174.65 14.86L174.65 12.72Q174.65 11.81 174.16 11.32Q173.66 10.82 172.61 10.82Q171.55 10.82 170.47 11.69L170.47 11.69L170.35 13.80L170.35 14.86L170.54 18.48L170.57 18.48L171.60 18.60L171.58 19.10L167.59 19.10L167.57 18.65L168.29 18.48L168.50 14.86L168.50 13.80L168.29 10.18L167.47 10.01L167.50 9.55L170.59 9.29L170.52 10.39Q172.10 9.17 173.66 9.17Q175.22 9.17 176.04 10.54L176.04 10.54Q177.94 9.17 179.74 9.17L179.74 9.17Q181.08 9.17 181.86 10.09Q182.64 11.02 182.64 12.62L182.64 12.62L182.64 14.86L182.83 18.48L182.86 18.48L183.55 18.65ZM186.05 8.90L186.43 8.90L186.65 9.43Q188.18 9.17 189.26 9.17L189.26 9.17Q191.30 9.17 192.40 10.02Q193.49 10.87 193.49 12.48L193.49 12.48L193.44 14.86L193.66 18.46L194.47 18.62L194.45 19.08L191.47 19.30L191.47 18.31Q190.06 19.46 188.59 19.46Q187.13 19.46 186.30 18.67Q185.47 17.88 185.47 16.49Q185.47 15.10 186.67 14.41Q187.87 13.73 191.64 13.10L191.64 13.10L191.64 12.48Q191.64 11.54 191.10 11.03Q190.56 10.51 189.50 10.51Q188.45 10.51 186.79 11.21L186.79 11.21L186.70 12.10L186.29 12.12L186.05 8.90ZM191.59 14.47Q189.12 14.93 188.32 15.30Q187.51 15.67 187.51 16.42Q187.51 17.16 188.02 17.64Q188.52 18.12 189.47 18.12Q190.42 18.12 191.47 17.06L191.47 17.06L191.59 14.47ZM196.51 5.09L196.54 4.63L199.63 4.37L199.39 8.88L199.39 14.86L199.58 18.48L200.30 18.65L200.28 19.10L196.63 19.10L196.61 18.65L197.33 18.48L197.54 14.86L197.54 8.88L197.33 5.26L196.51 5.09Z"/></svg>