<svg xmlns="http://www.w3.org/2000/svg" xmlns:xlink="http://www.w3.org/1999/xlink" width="360.57599999999996" height="32.544000000000004"><path fill="black" d="M1.94 25.68L1.94 8.88L7.90 8.88Q10.63 8.88 12.01 10.16Q13.39 11.45 13.39 13.94L13.39 13.94L13.39 15.07Q13.39 17.50 12 18.74Q10.61 19.99 7.90 19.99L7.90 19.99L4.34 19.99L4.34 18.14L7.27 18.14Q9.19 18.14 10.06 17.35Q10.92 16.56 10.92 14.90L10.92 14.90L10.92 14.11Q10.92 12.34 10.06 11.53Q9.19 10.73 7.27 10.73L7.27 10.73L3.89 10.73L4.46 10.10L4.46 25.68L1.94 25.68ZM24.72 25.68L24 21.29L24 17.33Q24 15.82 23.15 15.14Q22.30 14.47 20.47 14.47L20.47 14.47Q19.30 14.47 18.17 14.78Q17.04 15.10 16.03 15.70L16.03 15.70L15.65 13.85Q16.34 13.46 17.26 13.16Q18.17 12.86 19.16 12.70Q20.16 12.53 21.07 12.53L21.07 12.53Q23.81 12.53 25.19 13.72Q26.57 14.90 26.57 17.33L26.57 17.33L26.57 25.68L24.72 25.68ZM19.85 25.87L19.85 25.87Q17.71 25.87 16.50 24.91Q15.29 23.95 15.29 22.22L15.29 22.22L15.29 21.58Q15.29 19.82 16.51 18.86Q17.74 17.90 19.94 17.90L19.94 17.90Q22.30 17.90 23.64 18.83Q24.98 19.75 24.98 21.48L24.98 21.48L24.98 22.15Q24.98 23.90 23.62 24.89Q22.25 25.87 19.85 25.87ZM20.54 24.36L20.54 24.36Q22.10 24.36 23.03 23.70Q23.95 23.04 23.95 21.94L23.95 21.94L23.95 21.62Q23.95 20.57 23.08 19.98Q22.20 19.39 20.64 19.39L20.64 19.39Q19.22 19.39 18.44 19.93Q17.66 20.47 17.66 21.72L17.66 21.72L17.66 22.01Q17.66 23.16 18.42 23.76Q19.18 24.36 20.54 24.36ZM34.58 25.87L34.58 25.87Q32.74 25.87 31.87 24.95Q31.01 24.02 31.01 22.08L31.01 22.08L31.01 12.96L31.75 9.60L33.53 9.60L33.53 21.74Q33.53 22.94 33.95 23.41Q34.37 23.88 35.45 23.88L35.45 23.88Q35.81 23.88 36.18 23.82Q36.55 23.76 36.91 23.64L36.91 23.64L37.27 25.39Q36.89 25.54 36.44 25.64Q36 25.75 35.52 25.81Q35.04 25.87 34.58 25.87ZM28.68 14.57L28.68 12.72L36.82 12.72L36.82 14.57L28.68 14.57ZM49.27 25.68L49.27 18.19Q49.27 16.25 48.50 15.36Q47.74 14.47 46.08 14.47L46.08 14.47Q44.16 14.47 43.13 15.79Q42.10 17.11 42.10 19.61L42.10 19.61L41.04 21.36L41.06 19.75Q41.06 16.25 42.61 14.39Q44.16 12.53 47.02 12.53L47.02 12.53Q49.46 12.53 50.63 13.85Q51.79 15.17 51.79 17.93L51.79 17.93L51.79 25.68L49.27 25.68ZM39.58 25.68L39.58 7.92L42.10 7.92L42.10 16.87L42.10 25.68L39.58 25.68ZM56.95 25.68L53.64 12.72L56.11 12.72L59.14 24.05L59.23 24.05L62.45 12.72L65.62 12.72L68.83 24.05L68.90 24.05L71.95 12.72L74.42 12.72L71.11 25.68L67.03 25.68L64.06 15.53L63.98 15.53L61.03 25.68L56.95 25.68ZM85.27 25.68L84.55 21.29L84.55 17.33Q84.55 15.82 83.70 15.14Q82.85 14.47 81.02 14.47L81.02 14.47Q79.85 14.47 78.72 14.78Q77.59 15.10 76.58 15.70L76.58 15.70L76.20 13.85Q76.90 13.46 77.81 13.16Q78.72 12.86 79.72 12.70Q80.71 12.53 81.62 12.53L81.62 12.53Q84.36 12.53 85.74 13.72Q87.12 14.90 87.12 17.33L87.12 17.33L87.12 25.68L85.27 25.68ZM80.40 25.87L80.40 25.87Q78.26 25.87 77.05 24.91Q75.84 23.95 75.84 22.22L75.84 22.22L75.84 21.58Q75.84 19.82 77.06 18.86Q78.29 17.90 80.50 17.90L80.50 17.90Q82.85 17.90 84.19 18.83Q85.54 19.75 85.54 21.48L85.54 21.48L85.54 22.15Q85.54 23.90 84.17 24.89Q82.80 25.87 80.40 25.87ZM81.10 24.36L81.10 24.36Q82.66 24.36 83.58 23.70Q84.50 23.04 84.50 21.94L84.50 21.94L84.50 21.62Q84.50 20.57 83.63 19.98Q82.75 19.39 81.19 19.39L81.19 19.39Q79.78 19.39 79.00 19.93Q78.22 20.47 78.22 21.72L78.22 21.72L78.22 22.01Q78.22 23.16 78.97 23.76Q79.73 24.36 81.10 24.36ZM95.35 30.29L92.74 29.81L94.61 25.03L94.37 26.42L89.04 12.72L91.56 12.72L95.54 23.09L95.64 23.09L99.36 12.72L101.86 12.72L95.35 30.29ZM112.58 25.25L112.01 23.76L120.60 23.76L120.60 25.68L110.06 25.68L110.06 8.88L120.50 8.88L120.50 10.80L112.01 10.80L112.58 9.31L112.58 17.33L112.01 16.37L120.05 16.37L120.05 18.24L112.01 18.24L112.58 17.28L112.58 25.25ZM132 25.68L121.99 12.72L125.09 12.72L135.10 25.68L132 25.68ZM121.87 25.68L127.49 18.46L129.79 19.15L124.78 25.68L121.87 25.68ZM129.46 19.82L127.13 19.15L132.10 12.72L135 12.72L129.46 19.82ZM141.58 25.87L141.58 25.87Q139.73 25.87 138.86 24.95Q138 24.02 138 22.08L138 22.08L138 12.96L138.74 9.60L140.52 9.60L140.52 21.74Q140.52 22.94 140.94 23.41Q141.36 23.88 142.44 23.88L142.44 23.88Q142.80 23.88 143.17 23.82Q143.54 23.76 143.90 23.64L143.90 23.64L144.26 25.39Q143.88 25.54 143.44 25.64Q142.99 25.75 142.51 25.81Q142.03 25.87 141.58 25.87ZM135.67 14.57L135.67 12.72L143.81 12.72L143.81 14.57L135.67 14.57ZM146.57 25.68L146.57 12.72L148.39 12.72L149.09 17.54L149.09 25.68L146.57 25.68ZM149.09 19.39L148.37 18.67Q148.37 15.65 149.53 14.09Q150.70 12.53 152.90 12.53L152.90 12.53Q153.29 12.53 153.70 12.58Q154.10 12.62 154.49 12.72L154.49 12.72L154.34 14.88Q153.60 14.69 152.76 14.69L152.76 14.69Q150.94 14.69 150.01 15.86Q149.09 17.04 149.09 19.39L149.09 19.39ZM161.95 25.87L161.95 25.87Q160.03 25.87 158.68 25.22Q157.32 24.58 156.60 23.32Q155.88 22.06 155.88 20.28L155.88 20.28L155.88 18.12Q155.88 16.37 156.64 15.12Q157.39 13.87 158.81 13.20Q160.22 12.53 162.19 12.53L162.19 12.53Q165.19 12.53 166.80 14.09Q168.41 15.65 168.41 18.55L168.41 18.55L168.41 19.92L157.92 19.92L157.92 18.43L166.39 18.43L166.03 19.01L166.03 17.98Q166.03 16.32 165.01 15.37Q163.99 14.42 162.24 14.42L162.24 14.42Q160.39 14.42 159.40 15.38Q158.40 16.34 158.40 18.07L158.40 18.07L158.40 20.54Q158.40 22.25 159.37 23.16Q160.34 24.07 162.12 24.07L162.12 24.07Q163.68 24.07 164.64 23.45Q165.60 22.82 165.86 21.67L165.86 21.67L168.24 21.82Q167.78 23.76 166.14 24.82Q164.50 25.87 161.95 25.87ZM190.87 25.68L190.87 18.14Q190.87 16.27 190.12 15.37Q189.36 14.47 187.75 14.47L187.75 14.47Q185.88 14.47 184.87 15.79Q183.86 17.11 183.86 19.61L183.86 19.61L182.81 21.36L182.81 19.75Q182.81 16.25 184.34 14.39Q185.88 12.53 188.74 12.53L188.74 12.53Q191.11 12.53 192.25 13.84Q193.39 15.14 193.39 17.90L193.39 17.90L193.39 25.68L190.87 25.68ZM171.82 25.68L171.82 12.72L173.64 12.72L174.34 17.06L174.34 25.68L171.82 25.68ZM181.34 25.68L181.34 18.14Q181.34 16.27 180.59 15.37Q179.83 14.47 178.22 14.47L178.22 14.47Q176.35 14.47 175.34 15.79Q174.34 17.11 174.34 19.61L174.34 19.61L173.30 21.36L173.30 19.75Q173.30 16.25 174.82 14.39Q176.33 12.53 179.18 12.53L179.18 12.53Q181.58 12.53 182.72 13.85Q183.86 15.17 183.86 17.90L183.86 17.90L183.86 25.68L181.34 25.68ZM202.70 25.87L202.70 25.87Q200.78 25.87 199.43 25.22Q198.07 24.58 197.35 23.32Q196.63 22.06 196.63 20.28L196.63 20.28L196.63 18.12Q196.63 16.37 197.39 15.12Q198.14 13.87 199.56 13.20Q200.98 12.53 202.94 12.53L202.94 12.53Q205.94 12.53 207.55 14.09Q209.16 15.65 209.16 18.55L209.16 18.55L209.16 19.92L198.67 19.92L198.67 18.43L207.14 18.43L206.78 19.01L206.78 17.98Q206.78 16.32 205.76 15.37Q204.74 14.42 202.99 14.42L202.99 14.42Q201.14 14.42 200.15 15.38Q199.15 16.34 199.15 18.07L199.15 18.07L199.15 20.54Q199.15 22.25 200.12 23.16Q201.10 24.07 202.87 24.07L202.87 24.07Q204.43 24.07 205.39 23.45Q206.35 22.82 206.62 21.67L206.62 21.67L208.99 21.82Q208.54 23.76 206.89 24.82Q205.25 25.87 202.70 25.87ZM224.54 25.87L224.54 25.87Q221.66 25.87 220.01 24.65Q218.35 23.42 217.90 21.02L217.90 21.02L220.34 20.78Q220.68 22.39 221.70 23.21Q222.72 24.02 224.54 24.02L224.54 24.02Q226.03 24.02 226.96 23.70Q227.88 23.38 228.31 22.73Q228.74 22.08 228.74 21.17L228.74 21.17L228.74 20.59Q228.74 19.10 227.63 18.32Q226.51 17.54 224.35 17.54L224.35 17.54L218.40 17.54L220.10 15.82L224.35 15.82Q225.79 15.82 226.92 16.04Q228.05 16.27 228.86 16.69Q229.68 17.11 230.21 17.70Q230.74 18.29 231 19.02Q231.26 19.75 231.26 20.59L231.26 20.59L231.26 21.17Q231.26 23.47 229.55 24.67Q227.83 25.87 224.54 25.87ZM218.40 17.54L219.02 8.88L230.50 8.88L230.28 10.82L220.37 10.82L221.35 9.34L220.82 16.85L218.40 17.54ZM240.96 25.87L240.96 25.87Q238.70 25.87 237.12 25.09Q235.54 24.31 234.72 22.79Q233.90 21.26 233.90 19.08L233.90 19.08L233.90 15.48Q233.90 13.27 234.72 11.76Q235.54 10.25 237.12 9.47Q238.70 8.69 240.96 8.69L240.96 8.69Q243.24 8.69 244.81 9.47Q246.38 10.25 247.20 11.76Q248.02 13.27 248.02 15.48L248.02 15.48L248.02 19.08Q248.02 21.26 247.20 22.79Q246.38 24.31 244.81 25.09Q243.24 25.87 240.96 25.87ZM240.96 23.95L240.96 23.95Q243.24 23.95 244.37 22.73Q245.50 21.50 245.50 19.03L245.50 19.03L245.50 15.53Q245.50 13.03 244.36 11.82Q243.22 10.61 240.96 10.61L240.96 10.61Q238.68 10.61 237.55 11.83Q236.42 13.06 236.42 15.53L236.42 15.53L236.42 19.03Q236.42 21.50 237.55 22.73Q238.68 23.95 240.96 23.95ZM258.29 25.87L258.29 25.87Q256.03 25.87 254.45 25.09Q252.86 24.31 252.05 22.79Q251.23 21.26 251.23 19.08L251.23 19.08L251.23 15.48Q251.23 13.27 252.05 11.76Q252.86 10.25 254.45 9.47Q256.03 8.69 258.29 8.69L258.29 8.69Q260.57 8.69 262.14 9.47Q263.71 10.25 264.53 11.76Q265.34 13.27 265.34 15.48L265.34 15.48L265.34 19.08Q265.34 21.26 264.53 22.79Q263.71 24.31 262.14 25.09Q260.57 25.87 258.29 25.87ZM258.29 23.95L258.29 23.95Q260.57 23.95 261.70 22.73Q262.82 21.50 262.82 19.03L262.82 19.03L262.82 15.53Q262.82 13.03 261.68 11.82Q260.54 10.61 258.29 10.61L258.29 10.61Q256.01 10.61 254.88 11.83Q253.75 13.06 253.75 15.53L253.75 15.53L253.75 19.03Q253.75 21.50 254.88 22.73Q256.01 23.95 258.29 23.95ZM284.66 25.68L284.66 18.19Q284.66 16.25 283.90 15.36Q283.13 14.47 281.47 14.47L281.47 14.47Q279.55 14.47 278.52 15.79Q277.49 17.11 277.49 19.61L277.49 19.61L276.46 21.36L276.46 19.75Q276.46 16.25 278.00 14.39Q279.55 12.53 282.41 12.53L282.41 12.53Q284.86 12.53 286.02 13.85Q287.18 15.17 287.18 17.93L287.18 17.93L287.18 25.68L284.66 25.68ZM274.97 25.68L274.97 12.72L276.79 12.72L277.49 16.87L277.49 25.68L274.97 25.68ZM296.88 25.87L296.88 25.87Q294.86 25.87 293.41 25.20Q291.96 24.53 291.18 23.27Q290.40 22.01 290.40 20.26L290.40 20.26L290.40 18.14Q290.40 16.39 291.18 15.13Q291.96 13.87 293.41 13.20Q294.86 12.53 296.88 12.53L296.88 12.53Q298.90 12.53 300.35 13.20Q301.80 13.87 302.57 15.13Q303.34 16.39 303.34 18.14L303.34 18.14L303.34 20.26Q303.34 22.01 302.57 23.27Q301.80 24.53 300.35 25.20Q298.90 25.87 296.88 25.87ZM296.88 23.88L296.88 23.88Q298.70 23.88 299.77 22.90Q300.84 21.91 300.84 20.23L300.84 20.23L300.84 18.17Q300.84 16.46 299.77 15.49Q298.70 14.52 296.88 14.52L296.88 14.52Q295.06 14.52 293.99 15.50Q292.92 16.49 292.92 18.17L292.92 18.17L292.92 20.23Q292.92 21.91 293.99 22.90Q295.06 23.88 296.88 23.88ZM306.77 25.68L306.77 12.72L308.59 12.72L309.29 17.54L309.29 25.68L306.77 25.68ZM309.29 19.39L308.57 18.67Q308.57 15.65 309.73 14.09Q310.90 12.53 313.10 12.53L313.10 12.53Q313.49 12.53 313.90 12.58Q314.30 12.62 314.69 12.72L314.69 12.72L314.54 14.88Q313.80 14.69 312.96 14.69L312.96 14.69Q311.14 14.69 310.21 15.86Q309.29 17.04 309.29 19.39L309.29 19.39ZM335.59 25.68L335.59 18.14Q335.59 16.27 334.84 15.37Q334.08 14.47 332.47 14.47L332.47 14.47Q330.60 14.47 329.59 15.79Q328.58 17.11 328.58 19.61L328.58 19.61L327.53 21.36L327.53 19.75Q327.53 16.25 329.06 14.39Q330.60 12.53 333.46 12.53L333.46 12.53Q335.83 12.53 336.97 13.84Q338.11 15.14 338.11 17.90L338.11 17.90L338.11 25.68L335.59 25.68ZM316.54 25.68L316.54 12.72L318.36 12.72L319.06 17.06L319.06 25.68L316.54 25.68ZM326.06 25.68L326.06 18.14Q326.06 16.27 325.31 15.37Q324.55 14.47 322.94 14.47L322.94 14.47Q321.07 14.47 320.06 15.79Q319.06 17.11 319.06 19.61L319.06 19.61L318.02 21.36L318.02 19.75Q318.02 16.25 319.54 14.39Q321.05 12.53 323.90 12.53L323.90 12.53Q326.30 12.53 327.44 13.85Q328.58 15.17 328.58 17.90L328.58 17.90L328.58 25.68L326.06 25.68ZM350.59 25.68L349.87 21.29L349.87 17.33Q349.87 15.82 349.02 15.14Q348.17 14.47 346.34 14.47L346.34 14.47Q345.17 14.47 344.04 14.78Q342.91 15.10 341.90 15.70L341.90 15.70L341.52 13.85Q342.22 13.46 343.13 13.16Q344.04 12.86 345.04 12.70Q346.03 12.53 346.94 12.53L346.94 12.53Q349.68 12.53 351.06 13.72Q352.44 14.90 352.44 17.33L352.44 17.33L352.44 25.68L350.59 25.68ZM345.72 25.87L345.72 25.87Q343.58 25.87 342.37 24.91Q341.16 23.95 341.16 22.22L341.16 22.22L341.16 21.58Q341.16 19.82 342.38 18.86Q343.61 17.90 345.82 17.90L345.82 17.90Q348.17 17.90 349.51 18.83Q350.86 19.75 350.86 21.48L350.86 21.48L350.86 22.15Q350.86 23.90 349.49 24.89Q348.12 25.87 345.72 25.87ZM346.42 24.36L346.42 24.36Q347.98 24.36 348.90 23.70Q349.82 23.04 349.82 21.94L349.82 21.94L349.82 21.62Q349.82 20.57 348.95 19.98Q348.07 19.39 346.51 19.39L346.51 19.39Q345.10 19.39 344.32 19.93Q343.54 20.47 343.54 21.72L343.54 21.72L343.54 22.01Q343.54 23.16 344.29 23.76Q345.05 24.36 346.42 24.36ZM356.11 7.92L358.63 7.92L358.63 25.68L356.11 25.68L356.11 7.92Z"/></svg>