<svg xmlns="http://www.w3.org/2000/svg" xmlns:xlink="http://www.w3.org/1999/xlink" width="246.75" height="35.15625"><path fill="black" d="M3.38 22.80L5.29 22.80L5.29 23.44L0.83 23.44L0.83 22.80L2.74 22.80L2.74 7.01L0.83 7.01L0.83 6.38L5.29 6.38L5.29 7.01L3.38 7.01L3.38 14.66L14.27 14.66L14.27 7.01L12.36 7.01L12.36 6.38L16.82 6.38L16.82 7.01L14.91 7.01L14.91 22.80L16.82 22.80L16.82 23.44L12.36 23.44L12.36 22.80L14.27 22.80L14.27 15.29L3.38 15.29L3.38 22.80ZM22.54 23.68L22.54 23.68Q20.87 23.68 19.87 22.73Q18.87 21.77 18.87 20.23L18.87 20.23Q18.87 19.10 19.56 18.21L19.56 18.21Q20.25 17.34 21.49 16.85Q22.73 16.36 24.42 16.36L24.42 16.36L27.34 16.36L27.34 14.74Q27.34 13.16 26.43 12.15Q25.51 11.14 23.55 11.14L23.55 11.14Q22.52 11.14 21.67 11.53Q20.81 11.92 20.21 12.47L20.21 12.47L20.21 14.54L19.58 14.54L19.58 12.13Q20.37 11.40 21.33 10.96Q22.30 10.52 23.57 10.52L23.57 10.52Q25.76 10.52 26.87 11.67Q27.97 12.81 27.97 14.77L27.97 14.77L27.97 20.88Q27.97 21.38 28.01 21.86Q28.05 22.34 28.15 22.80L28.15 22.80L29.91 22.80L29.91 23.44L27.60 23.44Q27.45 22.61 27.39 22.17Q27.34 21.73 27.34 21.11L27.34 21.11Q26.63 22.25 25.38 22.97Q24.13 23.68 22.54 23.68ZM22.54 23.06L22.54 23.06Q23.98 23.06 25.32 22.25Q26.67 21.45 27.34 20.02L27.34 20.02L27.34 17.00L24.46 17.00Q22.22 17.00 20.86 17.91Q19.50 18.82 19.50 20.27L19.50 20.27Q19.50 21.46 20.36 22.26Q21.21 23.06 22.54 23.06ZM34.31 22.80L36.22 22.80L36.22 23.44L31.77 23.44L31.77 22.80L33.68 22.80L33.68 11.39L31.77 11.39L31.77 10.76L34.22 10.76L34.30 13.37Q34.88 12.01 35.98 11.27Q37.08 10.52 38.70 10.52L38.70 10.52Q40.77 10.52 41.81 11.83Q42.84 13.14 42.84 15.97L42.84 15.97L42.84 22.80L44.75 22.80L44.75 23.44L40.30 23.44L40.30 22.80L42.21 22.80L42.21 15.95Q42.21 13.31 41.27 12.23Q40.32 11.16 38.71 11.16L38.71 11.16Q36.66 11.16 35.61 12.38Q34.57 13.61 34.31 15.52L34.31 15.52L34.31 22.80ZM52.44 23.68L52.44 23.68Q50.52 23.68 49.45 22.29Q48.39 20.91 48.39 17.99L48.39 17.99L48.39 11.39L46.71 11.39L46.71 10.76L49.02 10.76L49.02 18.01Q49.02 20.59 49.93 21.82Q50.84 23.05 52.42 23.05L52.42 23.05Q54.40 23.05 55.40 22.08Q56.40 21.11 56.70 19.50L56.70 19.50L56.70 11.39L54.79 11.39L54.79 10.76L57.34 10.76L57.34 22.80L59.25 22.80L59.25 23.44L56.81 23.44L56.72 21.16Q56.12 22.37 55.07 23.03Q54.02 23.68 52.44 23.68ZM63.88 22.80L65.79 22.80L65.79 23.44L61.32 23.44L61.32 22.80L63.23 22.80L63.23 11.39L61.32 11.39L61.32 10.76L63.79 10.76L63.87 13.37Q64.44 12.02 65.52 11.27Q66.60 10.52 68.14 10.52L68.14 10.52Q69.79 10.52 70.81 11.36Q71.84 12.20 72.22 13.95L72.22 13.95Q72.73 12.33 73.87 11.42Q75.01 10.51 76.72 10.51L76.72 10.51Q78.82 10.51 79.91 11.88Q81 13.25 81 16.20L81 16.20L81 22.79L82.91 22.79L82.91 23.43L78.45 23.43L78.45 22.79L80.36 22.79L80.36 16.17Q80.36 13.42 79.37 12.28Q78.39 11.14 76.75 11.14L76.75 11.14Q74.73 11.14 73.70 12.36Q72.67 13.57 72.43 15.45L72.43 15.45L72.43 22.80L74.34 22.80L74.34 23.44L69.88 23.44L69.88 22.80L71.79 22.80L71.79 16.18Q71.79 13.42 70.80 12.29Q69.82 11.16 68.17 11.16L68.17 11.16Q66.20 11.16 65.18 12.31Q64.16 13.46 63.88 15.30L63.88 15.30L63.88 22.80ZM88.37 23.68L88.37 23.68Q86.71 23.68 85.71 22.73Q84.70 21.77 84.70 20.23L84.70 20.23Q84.70 19.10 85.39 18.21L85.39 18.21Q86.09 17.34 87.33 16.85Q88.57 16.36 90.26 16.36L90.26 16.36L93.18 16.36L93.18 14.74Q93.18 13.16 92.26 12.15Q91.35 11.14 89.39 11.14L89.39 11.14Q88.36 11.14 87.50 11.53Q86.65 11.92 86.05 12.47L86.05 12.47L86.05 14.54L85.42 14.54L85.42 12.13Q86.20 11.40 87.17 10.96Q88.14 10.52 89.40 10.52L89.40 10.52Q91.59 10.52 92.70 11.67Q93.81 12.81 93.81 14.77L93.81 14.77L93.81 20.88Q93.81 21.38 93.85 21.86Q93.89 22.34 93.98 22.80L93.98 22.80L95.74 22.80L95.74 23.44L93.43 23.44Q93.28 22.61 93.23 22.17Q93.18 21.73 93.18 21.11L93.18 21.11Q92.46 22.25 91.21 22.97Q89.96 23.68 88.37 23.68ZM88.37 23.06L88.37 23.06Q89.81 23.06 91.16 22.25Q92.51 21.45 93.18 20.02L93.18 20.02L93.18 17.00L90.29 17.00Q88.05 17.00 86.70 17.91Q85.34 18.82 85.34 20.27L85.34 20.27Q85.34 21.46 86.19 22.26Q87.05 23.06 88.37 23.06ZM100.15 22.80L102.06 22.80L102.06 23.44L97.61 23.44L97.61 22.80L99.52 22.80L99.52 11.39L97.61 11.39L97.61 10.76L100.05 10.76L100.14 13.37Q100.71 12.01 101.81 11.27Q102.91 10.52 104.53 10.52L104.53 10.52Q106.61 10.52 107.64 11.83Q108.68 13.14 108.68 15.97L108.68 15.97L108.68 22.80L110.59 22.80L110.59 23.44L106.14 23.44L106.14 22.80L108.05 22.80L108.05 15.95Q108.05 13.31 107.10 12.23Q106.16 11.16 104.54 11.16L104.54 11.16Q102.49 11.16 101.45 12.38Q100.41 13.61 100.15 15.52L100.15 15.52L100.15 22.80ZM125.57 22.80L129 22.80L129 23.44L121.50 23.44L121.50 22.80L124.93 22.80L124.93 6.96L120.97 7.85L120.97 7.27L125.57 6.28L125.57 22.80ZM136.49 23.68L136.49 23.68Q134.02 23.68 132.64 21.86Q131.27 20.04 131.27 16.71L131.27 16.71L131.27 13.10Q131.27 9.77 132.63 7.95Q133.99 6.13 136.46 6.13L136.46 6.13Q138.94 6.13 140.30 7.95Q141.67 9.77 141.67 13.10L141.67 13.10L141.67 16.71Q141.67 20.05 140.31 21.87Q138.96 23.68 136.49 23.68ZM136.49 23.05L136.49 23.05Q138.70 23.05 139.87 21.35Q141.04 19.65 141.04 16.69L141.04 16.69L141.04 13.10Q141.04 10.13 139.86 8.44Q138.69 6.76 136.46 6.76L136.46 6.76Q134.24 6.76 133.07 8.44Q131.91 10.13 131.91 13.10L131.91 13.10L131.91 16.69Q131.91 19.64 133.08 21.35Q134.26 23.05 136.49 23.05ZM149.96 23.68L149.96 23.68Q147.49 23.68 146.12 21.86Q144.75 20.04 144.75 16.71L144.75 16.71L144.75 13.10Q144.75 9.77 146.11 7.95Q147.47 6.13 149.94 6.13L149.94 6.13Q152.41 6.13 153.78 7.95Q155.14 9.77 155.14 13.10L155.14 13.10L155.14 16.71Q155.14 20.05 153.79 21.87Q152.44 23.68 149.96 23.68ZM149.96 23.05L149.96 23.05Q152.18 23.05 153.35 21.35Q154.51 19.65 154.51 16.69L154.51 16.69L154.51 13.10Q154.51 10.13 153.34 8.44Q152.17 6.76 149.94 6.76L149.94 6.76Q147.71 6.76 146.55 8.44Q145.38 10.13 145.38 13.10L145.38 13.10L145.38 16.69Q145.38 19.64 146.56 21.35Q147.74 23.05 149.96 23.05ZM168.60 22.80L170.51 22.80L170.51 23.44L166.05 23.44L166.05 22.80L167.96 22.80L167.96 11.39L166.05 11.39L166.05 10.76L168.50 10.76L168.59 13.37Q169.16 12.01 170.26 11.27Q171.36 10.52 172.98 10.52L172.98 10.52Q175.05 10.52 176.09 11.83Q177.13 13.14 177.13 15.97L177.13 15.97L177.13 22.80L179.04 22.80L179.04 23.44L174.59 23.44L174.59 22.80L176.50 22.80L176.50 15.95Q176.50 13.31 175.55 12.23Q174.61 11.16 172.99 11.16L172.99 11.16Q170.94 11.16 169.90 12.38Q168.86 13.61 168.60 15.52L168.60 15.52L168.60 22.80ZM187.27 23.68L187.27 23.68Q185.61 23.68 184.36 22.88L184.36 22.88Q183.11 22.07 182.40 20.64Q181.70 19.21 181.70 17.34L181.70 17.34L181.70 16.85Q181.70 14.98 182.40 13.56L182.40 13.56Q183.11 12.13 184.35 11.33Q185.60 10.52 187.24 10.52L187.24 10.52Q188.91 10.52 190.15 11.33L190.15 11.33Q191.40 12.14 192.10 13.56Q192.80 14.99 192.80 16.85L192.80 16.85L192.80 17.34Q192.80 19.21 192.09 20.64L192.09 20.64Q191.39 22.07 190.14 22.88Q188.89 23.68 187.27 23.68ZM187.27 23.05L187.27 23.05Q188.75 23.05 189.86 22.28L189.86 22.28Q190.96 21.52 191.56 20.22Q192.16 18.93 192.16 17.34L192.16 17.34L192.16 16.85Q192.16 15.28 191.55 13.99L191.55 13.99Q190.95 12.70 189.84 11.93Q188.73 11.16 187.24 11.16L187.24 11.16Q185.77 11.16 184.65 11.93L184.65 11.93Q183.55 12.70 182.94 14.00Q182.33 15.29 182.33 16.85L182.33 16.85L182.33 17.34Q182.33 18.96 182.94 20.23L182.94 20.23Q183.54 21.53 184.65 22.29Q185.75 23.05 187.27 23.05ZM197.60 22.80L199.51 22.80L199.51 23.44L195.06 23.44L195.06 22.80L196.97 22.80L196.97 11.39L195.06 11.39L195.06 10.76L197.48 10.76L197.60 12.96L197.60 13.39Q198.13 12.04 199.17 11.28Q200.21 10.52 201.74 10.52L201.74 10.52Q202.01 10.52 202.35 10.57Q202.70 10.62 202.86 10.66L202.86 10.66L202.79 11.23L201.74 11.14Q200.04 11.14 198.98 12.24Q197.92 13.34 197.60 15.13L197.60 15.13L197.60 22.80ZM207.26 22.80L209.17 22.80L209.17 23.44L204.70 23.44L204.70 22.80L206.61 22.80L206.61 11.39L204.70 11.39L204.70 10.76L207.16 10.76L207.25 13.37Q207.82 12.02 208.90 11.27Q209.98 10.52 211.52 10.52L211.52 10.52Q213.16 10.52 214.19 11.36Q215.21 12.20 215.60 13.95L215.60 13.95Q216.11 12.33 217.25 11.42Q218.39 10.51 220.10 10.51L220.10 10.51Q222.20 10.51 223.29 11.88Q224.38 13.25 224.38 16.20L224.38 16.20L224.38 22.79L226.29 22.79L226.29 23.43L221.82 23.43L221.82 22.79L223.73 22.79L223.73 16.17Q223.73 13.42 222.75 12.28Q221.77 11.14 220.13 11.14L220.13 11.14Q218.11 11.14 217.08 12.36Q216.05 13.57 215.81 15.45L215.81 15.45L215.81 22.80L217.72 22.80L217.72 23.44L213.26 23.44L213.26 22.80L215.17 22.80L215.17 16.18Q215.17 13.42 214.18 12.29Q213.20 11.16 211.55 11.16L211.55 11.16Q209.58 11.16 208.56 12.31Q207.54 13.46 207.26 15.30L207.26 15.30L207.26 22.80ZM231.75 23.68L231.75 23.68Q230.09 23.68 229.08 22.73Q228.08 21.77 228.08 20.23L228.08 20.23Q228.08 19.10 228.77 18.21L228.77 18.21Q229.46 17.34 230.71 16.85Q231.95 16.36 233.64 16.36L233.64 16.36L236.55 16.36L236.55 14.74Q236.55 13.16 235.64 12.15Q234.73 11.14 232.77 11.14L232.77 11.14Q231.74 11.14 230.88 11.53Q230.03 11.92 229.43 12.47L229.43 12.47L229.43 14.54L228.80 14.54L228.80 12.13Q229.58 11.40 230.55 10.96Q231.52 10.52 232.78 10.52L232.78 10.52Q234.97 10.52 236.08 11.67Q237.19 12.81 237.19 14.77L237.19 14.77L237.19 20.88Q237.19 21.38 237.23 21.86Q237.27 22.34 237.36 22.80L237.36 22.80L239.12 22.80L239.12 23.44L236.81 23.44Q236.66 22.61 236.61 22.17Q236.55 21.73 236.55 21.11L236.55 21.11Q235.84 22.25 234.59 22.97Q233.34 23.68 231.75 23.68ZM231.75 23.06L231.75 23.06Q233.19 23.06 234.54 22.25Q235.89 21.45 236.55 20.02L236.55 20.02L236.55 17.00L233.67 17.00Q231.43 17.00 230.07 17.91Q228.71 18.82 228.71 20.27L228.71 20.27Q228.71 21.46 229.57 22.26Q230.43 23.06 231.75 23.06ZM243.45 22.80L245.36 22.80L245.36 23.44L240.90 23.44L240.90 22.80L242.81 22.80L242.81 5.79L240.90 5.79L240.90 5.16L243.45 5.16L243.45 22.80Z"/></svg>