<svg xmlns="http://www.w3.org/2000/svg" xmlns:xlink="http://www.w3.org/1999/xlink" width="288.35999999999996" height="28.104"><path fill="black" d="M10.99 22.25L9.10 14.59L14.52 13.54L16.20 19.03Q16.34 19.46 16.50 19.69Q16.66 19.92 16.87 20.00Q17.09 20.09 17.38 20.09L17.38 20.09L17.62 20.09L17.14 22.25L10.99 22.25ZM7.90 20.09L8.16 20.09L7.68 22.25L-0.96 22.25L-0.48 20.09L-0.22 20.09Q0.26 20.09 0.60 19.92Q0.94 19.75 1.06 19.22L1.06 19.22L3.38 8.21Q3.50 7.68 3.23 7.51Q2.95 7.34 2.47 7.34L2.47 7.34L2.21 7.34L2.69 5.21L12.29 5.21Q14.23 5.21 15.62 5.71Q17.02 6.22 17.76 7.21Q18.50 8.21 18.50 9.67L18.50 9.67Q18.50 10.92 18.02 11.89Q17.54 12.86 16.62 13.56Q15.70 14.26 14.35 14.62Q13.01 14.98 11.30 15L11.30 15Q11.11 15.12 11.02 15.19Q10.92 15.26 10.87 15.34Q10.82 15.41 10.70 15.48L10.70 15.48L7.78 15.48L6.86 19.85Q6.86 19.92 6.98 19.98Q7.10 20.04 7.33 20.06Q7.56 20.09 7.90 20.09L7.90 20.09ZM10.75 7.37L10.75 7.37L9.50 7.37L8.23 13.32L9.94 13.32Q10.54 13.32 11.00 12.96Q11.47 12.60 11.80 12.01Q12.12 11.42 12.29 10.72Q12.46 10.01 12.46 9.36L12.46 9.36Q12.46 8.66 12.28 8.23Q12.10 7.80 11.72 7.58Q11.35 7.37 10.75 7.37ZM28.97 16.49L28.97 16.49Q29.14 15.86 29.23 15.26Q29.33 14.66 29.38 14.11Q29.42 13.56 29.42 13.10L29.42 13.10Q29.42 12.55 29.30 12.16Q29.18 11.76 28.90 11.54Q28.61 11.33 28.06 11.33L28.06 11.33Q27.55 11.33 27.19 11.63Q26.83 11.93 26.56 12.46Q26.28 12.98 26.10 13.66Q25.92 14.33 25.75 15.07L25.75 15.07Q25.61 15.70 25.50 16.30Q25.39 16.90 25.34 17.44Q25.30 17.98 25.30 18.46L25.30 18.46Q25.30 18.98 25.42 19.39Q25.54 19.80 25.84 20.02Q26.14 20.23 26.66 20.23L26.66 20.23Q27.17 20.23 27.53 19.92Q27.89 19.61 28.16 19.09Q28.44 18.58 28.62 17.89Q28.80 17.21 28.97 16.49ZM19.75 16.75L19.75 16.75Q19.75 15.60 20.05 14.46Q20.35 13.32 20.98 12.34Q21.60 11.35 22.57 10.58Q23.54 9.82 24.89 9.38Q26.23 8.95 27.98 8.95L27.98 8.95Q30.10 8.95 31.66 9.64Q33.22 10.32 34.09 11.63Q34.97 12.94 34.97 14.78L34.97 14.78Q34.97 15.96 34.67 17.09Q34.37 18.22 33.74 19.21Q33.12 20.21 32.15 20.96Q31.18 21.72 29.83 22.15Q28.49 22.58 26.74 22.58L26.74 22.58Q24.65 22.58 23.08 21.90Q21.50 21.22 20.63 19.91Q19.75 18.60 19.75 16.75ZM43.22 20.04L43.22 20.04Q43.87 20.04 44.36 19.61Q44.86 19.18 45.22 18.46Q45.58 17.74 45.79 16.87Q46.01 16.01 46.12 15.17Q46.22 14.33 46.22 13.66L46.22 13.66Q46.22 13.03 46.08 12.64Q45.94 12.24 45.67 12.06Q45.41 11.88 45 11.88L45 11.88Q44.50 11.88 44.04 12.20Q43.58 12.53 43.06 13.19Q42.53 13.85 41.78 14.88L41.78 14.88L41.74 14.14Q42.62 12.50 43.48 11.35Q44.33 10.20 45.32 9.59Q46.32 8.98 47.62 8.98L47.62 8.98Q48.86 8.98 49.81 9.56Q50.76 10.15 51.31 11.29Q51.86 12.43 51.86 14.06L51.86 14.06Q51.86 15.34 51.54 16.57Q51.22 17.81 50.57 18.89Q49.92 19.97 48.92 20.80Q47.93 21.62 46.58 22.09Q45.24 22.56 43.54 22.56L43.54 22.56Q41.74 22.56 40.31 22.18Q38.88 21.79 37.82 21.18Q36.77 20.57 36.07 19.90L36.07 19.90L38.83 6.74Q38.88 6.60 38.78 6.49Q38.69 6.38 38.51 6.31Q38.33 6.24 38.04 6.17L38.04 6.17L37.85 6.12L38.28 4.06L45 4.06L41.57 20.50Q41.26 20.26 41.08 19.96Q40.90 19.66 40.85 19.33Q40.80 19.01 40.88 18.68Q40.97 18.36 41.21 18.05L41.21 18.05Q41.38 18.65 41.60 19.09Q41.83 19.54 42.23 19.79Q42.62 20.04 43.22 20.04ZM62.38 16.49L62.38 16.49Q62.54 15.86 62.64 15.26Q62.74 14.66 62.78 14.11Q62.83 13.56 62.83 13.10L62.83 13.10Q62.83 12.55 62.71 12.16Q62.59 11.76 62.30 11.54Q62.02 11.33 61.46 11.33L61.46 11.33Q60.96 11.33 60.60 11.63Q60.24 11.93 59.96 12.46Q59.69 12.98 59.51 13.66Q59.33 14.33 59.16 15.07L59.16 15.07Q59.02 15.70 58.91 16.30Q58.80 16.90 58.75 17.44Q58.70 17.98 58.70 18.46L58.70 18.46Q58.70 18.98 58.82 19.39Q58.94 19.80 59.24 20.02Q59.54 20.23 60.07 20.23L60.07 20.23Q60.58 20.23 60.94 19.92Q61.30 19.61 61.57 19.09Q61.85 18.58 62.03 17.89Q62.21 17.21 62.38 16.49ZM53.16 16.75L53.16 16.75Q53.16 15.60 53.46 14.46Q53.76 13.32 54.38 12.34Q55.01 11.35 55.98 10.58Q56.95 9.82 58.30 9.38Q59.64 8.95 61.39 8.95L61.39 8.95Q63.50 8.95 65.06 9.64Q66.62 10.32 67.50 11.63Q68.38 12.94 68.38 14.78L68.38 14.78Q68.38 15.96 68.08 17.09Q67.78 18.22 67.15 19.21Q66.53 20.21 65.56 20.96Q64.58 21.72 63.24 22.15Q61.90 22.58 60.14 22.58L60.14 22.58Q58.06 22.58 56.48 21.90Q54.91 21.22 54.04 19.91Q53.16 18.60 53.16 16.75ZM74.30 22.37L74.30 22.37Q73.06 22.37 72.13 22.03Q71.21 21.70 70.69 20.98Q70.18 20.26 70.18 19.13L70.18 19.13Q70.18 18.77 70.21 18.36Q70.25 17.95 70.33 17.50Q70.42 17.04 70.49 16.54L70.49 16.54L72 9.72L74.21 9.22L80.83 9.22L80.33 11.47L69.96 11.47L70.42 9.34L70.56 9.34Q71.06 9.34 71.46 9.25Q71.86 9.17 72.13 8.89Q72.41 8.62 72.53 8.09L72.53 8.09L73.06 5.57L78.50 5.57L76.08 16.56Q75.98 17.04 75.91 17.46Q75.84 17.88 75.80 18.19Q75.77 18.50 75.77 18.74L75.77 18.74Q75.77 19.27 76.07 19.50Q76.37 19.73 76.85 19.73L76.85 19.73Q77.35 19.73 77.75 19.69Q78.14 19.66 78.41 19.63Q78.67 19.61 78.74 19.61L78.74 19.61L78.29 22.13Q77.71 22.22 76.74 22.30Q75.77 22.37 74.30 22.37ZM90.05 16.49L90.05 16.49Q90.22 15.86 90.31 15.26Q90.41 14.66 90.46 14.11Q90.50 13.56 90.50 13.10L90.50 13.10Q90.50 12.55 90.38 12.16Q90.26 11.76 89.98 11.54Q89.69 11.33 89.14 11.33L89.14 11.33Q88.63 11.33 88.27 11.63Q87.91 11.93 87.64 12.46Q87.36 12.98 87.18 13.66Q87 14.33 86.83 15.07L86.83 15.07Q86.69 15.70 86.58 16.30Q86.47 16.90 86.42 17.44Q86.38 17.98 86.38 18.46L86.38 18.46Q86.38 18.98 86.50 19.39Q86.62 19.80 86.92 20.02Q87.22 20.23 87.74 20.23L87.74 20.23Q88.25 20.23 88.61 19.92Q88.97 19.61 89.24 19.09Q89.52 18.58 89.70 17.89Q89.88 17.21 90.05 16.49ZM80.83 16.75L80.83 16.75Q80.83 15.60 81.13 14.46Q81.43 13.32 82.06 12.34Q82.68 11.35 83.65 10.58Q84.62 9.82 85.97 9.38Q87.31 8.95 89.06 8.95L89.06 8.95Q91.18 8.95 92.74 9.64Q94.30 10.32 95.17 11.63Q96.05 12.94 96.05 14.78L96.05 14.78Q96.05 15.96 95.75 17.09Q95.45 18.22 94.82 19.21Q94.20 20.21 93.23 20.96Q92.26 21.72 90.91 22.15Q89.57 22.58 87.82 22.58L87.82 22.58Q85.73 22.58 84.16 21.90Q82.58 21.22 81.71 19.91Q80.83 18.60 80.83 16.75ZM110.90 22.66L110.90 22.66Q109.44 22.66 108.32 22.36Q107.21 22.06 106.45 21.46Q105.70 20.86 105.24 19.97Q104.78 19.08 104.62 17.95L104.62 17.95Q104.83 18 105.06 18.04Q105.29 18.07 105.44 18.17Q105.60 18.26 105.60 18.50L105.60 18.50L104.23 22.25L102.07 22.25L103.27 16.70L106.03 16.70Q106.20 17.64 106.58 18.34Q106.97 19.03 107.54 19.48Q108.12 19.92 108.88 20.15Q109.63 20.38 110.52 20.38L110.52 20.38Q111.36 20.38 111.85 20.20Q112.34 20.02 112.56 19.63Q112.78 19.25 112.78 18.70L112.78 18.70Q112.78 18.19 112.48 17.83Q112.18 17.47 111.64 17.17Q111.10 16.87 110.36 16.56Q109.63 16.25 108.77 15.84L108.77 15.84Q107.62 15.26 106.72 14.58Q105.82 13.90 105.31 12.94Q104.81 11.98 104.81 10.61L104.81 10.61Q104.81 8.90 105.53 7.60Q106.25 6.29 107.71 5.53Q109.18 4.78 111.43 4.78L111.43 4.78Q113.02 4.78 114.06 5.24Q115.10 5.71 115.69 6.58Q116.28 7.44 116.45 8.64L116.45 8.64Q116.23 8.64 116.03 8.68Q115.82 8.71 115.68 8.64Q115.54 8.57 115.44 8.28L115.44 8.28L116.66 5.16L118.78 5.16L117.72 9.94L115.25 9.94Q115.10 9.05 114.67 8.40Q114.24 7.75 113.53 7.40Q112.82 7.06 111.82 7.06L111.82 7.06Q111.07 7.06 110.59 7.24Q110.11 7.42 109.88 7.76Q109.66 8.11 109.66 8.59L109.66 8.59Q109.66 9.07 109.91 9.40Q110.16 9.72 110.62 9.97Q111.07 10.22 111.71 10.48Q112.34 10.73 113.11 11.06L113.11 11.06Q114.10 11.50 114.92 11.99Q115.75 12.48 116.39 13.10Q117.02 13.73 117.37 14.51Q117.72 15.29 117.72 16.32L117.72 16.32Q117.72 17.66 117.32 18.83Q116.93 19.99 116.10 20.84Q115.27 21.70 113.99 22.18Q112.70 22.66 110.90 22.66ZM125.95 22.58L125.95 22.58Q123.82 22.58 122.30 21.89Q120.79 21.19 120.00 19.94Q119.21 18.70 119.21 17.04L119.21 17.04Q119.21 15.43 119.80 13.97Q120.38 12.50 121.50 11.38Q122.62 10.25 124.21 9.60Q125.81 8.95 127.82 8.95L127.82 8.95Q129.55 8.95 130.68 9.43Q131.81 9.91 132.35 10.72Q132.89 11.52 132.89 12.53L132.89 12.53Q132.89 13.75 132.20 14.63Q131.52 15.50 130.20 16.06Q128.88 16.61 126.97 16.91Q125.06 17.21 122.59 17.33L122.59 17.33L122.66 15.58Q124.10 15.53 125.17 15.35Q126.24 15.17 126.95 14.83Q127.66 14.50 128.00 13.96Q128.35 13.42 128.35 12.60L128.35 12.60Q128.35 12.17 128.26 11.88Q128.16 11.59 127.93 11.45Q127.70 11.30 127.34 11.30L127.34 11.30Q126.72 11.30 126.24 11.71Q125.76 12.12 125.42 12.86Q125.09 13.61 124.91 14.62Q124.73 15.62 124.73 16.82L124.73 16.82Q124.73 18 124.99 18.70Q125.26 19.39 125.80 19.69Q126.34 19.99 127.13 19.99L127.13 19.99Q127.92 19.99 128.52 19.67Q129.12 19.34 129.60 18.80Q130.08 18.26 130.46 17.64L130.46 17.64L132.24 18.96Q131.69 19.99 130.84 20.81Q129.98 21.62 128.78 22.10Q127.58 22.58 125.95 22.58ZM135.74 11.90L133.49 22.25L139.10 22.25L141 13.49L140.86 13.54L141.31 9.22L135.22 9.22L134.76 11.28L134.98 11.33Q135.24 11.40 135.42 11.47Q135.60 11.54 135.68 11.65Q135.77 11.76 135.74 11.90L135.74 11.90ZM145.30 14.26L146.35 9.26Q146.26 9.19 145.94 9.11Q145.63 9.02 145.08 9.02L145.08 9.02Q144.29 9.02 143.65 9.40Q143.02 9.77 142.49 10.46Q141.96 11.16 141.46 12.11Q140.95 13.06 140.40 14.21L140.40 14.21L140.35 14.59Q140.59 14.42 140.88 14.30Q141.17 14.18 141.49 14.12Q141.82 14.06 142.19 14.04Q142.56 14.02 142.94 14.02L142.94 14.02Q143.76 14.02 144.36 14.10Q144.96 14.18 145.30 14.26L145.30 14.26ZM146.54 19.63L146.54 19.63Q146.54 19.27 146.62 18.85Q146.69 18.43 146.82 17.83Q146.95 17.23 147.14 16.34L147.14 16.34L148.15 11.90Q148.18 11.76 148.09 11.65Q148.01 11.54 147.83 11.47Q147.65 11.40 147.36 11.33L147.36 11.33L147.17 11.28L147.60 9.22L154.30 9.22L152.69 16.66Q152.52 17.35 152.40 17.86Q152.28 18.36 152.22 18.67Q152.16 18.98 152.16 19.18L152.16 19.18Q152.16 19.49 152.33 19.62Q152.50 19.75 152.83 19.75L152.83 19.75Q153.02 19.75 153.17 19.73Q153.31 19.70 153.44 19.69Q153.58 19.68 153.67 19.68L153.67 19.68L153.19 22.03Q152.76 22.10 152.21 22.19Q151.66 22.27 151.03 22.33Q150.41 22.39 149.74 22.39L149.74 22.39Q148.80 22.39 148.08 22.07Q147.36 21.74 146.95 21.14Q146.54 20.54 146.54 19.63ZM148.75 5.86L148.75 5.86Q148.75 4.66 149.57 4.02Q150.38 3.38 151.85 3.38L151.85 3.38Q153.26 3.38 154.02 3.98Q154.78 4.58 154.78 5.71L154.78 5.71Q154.78 6.89 153.97 7.54Q153.17 8.18 151.70 8.18L151.70 8.18Q150.29 8.18 149.52 7.58Q148.75 6.98 148.75 5.86ZM155.47 11.38L155.90 9.22L167.18 9.22L166.73 11.38L155.47 11.38ZM166.10 6.10L166.10 6.10Q165.43 6.10 165.01 6.30Q164.59 6.50 164.36 6.92Q164.14 7.34 163.97 8.04L163.97 8.04L159.50 27.91L155.40 27.91L158.18 8.90Q158.45 7.01 159.36 5.90Q160.27 4.80 161.74 4.33Q163.20 3.86 165.10 3.86L165.10 3.86Q166.03 3.86 166.73 3.95Q167.42 4.03 167.90 4.14Q168.38 4.25 168.67 4.37L168.67 4.37L168.17 6.50Q167.98 6.46 167.40 6.28Q166.82 6.10 166.10 6.10ZM180.24 6.50L180.24 6.50Q178.49 6.50 177.19 7.07Q175.90 7.63 175.04 8.62Q174.19 9.60 173.77 10.87Q173.35 12.14 173.35 13.58L173.35 13.58Q173.35 14.74 173.81 15.62Q174.26 16.51 175.12 17.00Q175.97 17.50 177.12 17.50L177.12 17.50Q178.15 17.50 178.90 17.05Q179.64 16.61 180.20 15.91Q180.77 15.22 181.20 14.45L181.20 14.45L181.27 13.58Q180.86 14.16 180.53 14.54Q180.19 14.93 179.89 15.13Q179.59 15.34 179.28 15.34L179.28 15.34Q179.02 15.34 178.81 15.19Q178.61 15.05 178.50 14.78Q178.39 14.52 178.39 14.14L178.39 14.14Q178.39 13.85 178.42 13.52Q178.44 13.20 178.51 12.80Q178.58 12.41 178.68 11.93L178.68 11.93Q178.85 11.02 179.02 10.39Q179.18 9.77 179.35 9.38Q179.52 9 179.75 8.83Q179.98 8.66 180.26 8.66L180.26 8.66Q180.58 8.66 180.76 8.80Q180.94 8.93 181.02 9.20Q181.10 9.48 181.10 9.91L181.10 9.91Q181.10 10.34 181.04 10.96Q180.98 11.57 180.86 12.35Q180.74 13.13 180.55 14.09L180.55 14.09Q180.19 15.84 179.66 17.15Q179.14 18.46 178.44 19.38Q177.74 20.30 176.84 20.90Q175.94 21.50 174.86 21.83Q173.78 22.15 172.49 22.25L172.49 22.25L172.32 24.53Q175.22 24.43 177.44 23.71Q179.66 22.99 181.26 21.78Q182.86 20.57 183.86 19.00Q184.87 17.42 185.35 15.64Q185.83 13.85 185.83 11.95L185.83 11.95Q185.83 10.58 185.48 9.55Q185.14 8.52 184.44 7.85Q183.74 7.18 182.69 6.84Q181.63 6.50 180.24 6.50ZM191.83 22.51L191.83 22.51Q190.82 22.51 189.98 22.25Q189.14 21.98 188.48 21.48Q187.82 20.98 187.37 20.26Q186.91 19.54 186.67 18.62Q186.43 17.71 186.43 16.63L186.43 16.63Q186.43 15.41 186.68 14.02Q186.94 12.62 187.49 11.29Q188.04 9.96 188.92 8.88Q189.79 7.80 191.06 7.15Q192.34 6.50 194.04 6.50L194.04 6.50Q195.05 6.50 195.88 6.77Q196.70 7.03 197.35 7.54Q198.00 8.04 198.46 8.76Q198.91 9.48 199.15 10.39Q199.39 11.30 199.39 12.36L199.39 12.36Q199.39 13.61 199.14 15Q198.89 16.39 198.35 17.72Q197.81 19.06 196.92 20.14Q196.03 21.22 194.77 21.86Q193.51 22.51 191.83 22.51ZM191.78 20.23L191.78 20.23Q192.07 20.23 192.32 20.00Q192.58 19.78 192.82 19.20Q193.06 18.62 193.34 17.56Q193.63 16.49 194.02 14.78L194.02 14.78Q194.30 13.51 194.47 12.58Q194.64 11.64 194.71 10.96Q194.78 10.27 194.78 9.82L194.78 9.82Q194.78 9.46 194.71 9.23Q194.64 9 194.48 8.89Q194.33 8.78 194.04 8.78L194.04 8.78Q193.75 8.78 193.50 9Q193.25 9.22 193.01 9.80Q192.77 10.39 192.48 11.46Q192.19 12.53 191.81 14.23L191.81 14.23Q191.54 15.48 191.36 16.43Q191.18 17.38 191.11 18.05Q191.04 18.72 191.04 19.18L191.04 19.18Q191.04 19.54 191.11 19.78Q191.18 20.02 191.35 20.12Q191.52 20.23 191.78 20.23ZM205.27 22.51L205.27 22.51Q204.26 22.51 203.42 22.25Q202.58 21.98 201.92 21.48Q201.26 20.98 200.81 20.26Q200.35 19.54 200.11 18.62Q199.87 17.71 199.87 16.63L199.87 16.63Q199.87 15.41 200.12 14.02Q200.38 12.62 200.93 11.29Q201.48 9.96 202.36 8.88Q203.23 7.80 204.50 7.15Q205.78 6.50 207.48 6.50L207.48 6.50Q208.49 6.50 209.32 6.77Q210.14 7.03 210.79 7.54Q211.44 8.04 211.90 8.76Q212.35 9.48 212.59 10.39Q212.83 11.30 212.83 12.36L212.83 12.36Q212.83 13.61 212.58 15Q212.33 16.39 211.79 17.72Q211.25 19.06 210.36 20.14Q209.47 21.22 208.21 21.86Q206.95 22.51 205.27 22.51ZM205.22 20.23L205.22 20.23Q205.51 20.23 205.76 20.00Q206.02 19.78 206.26 19.20Q206.50 18.62 206.78 17.56Q207.07 16.49 207.46 14.78L207.46 14.78Q207.74 13.51 207.91 12.58Q208.08 11.64 208.15 10.96Q208.22 10.27 208.22 9.82L208.22 9.82Q208.22 9.46 208.15 9.23Q208.08 9 207.92 8.89Q207.77 8.78 207.48 8.78L207.48 8.78Q207.19 8.78 206.94 9Q206.69 9.22 206.45 9.80Q206.21 10.39 205.92 11.46Q205.63 12.53 205.25 14.23L205.25 14.23Q204.98 15.48 204.80 16.43Q204.62 17.38 204.55 18.05Q204.48 18.72 204.48 19.18L204.48 19.18Q204.48 19.54 204.55 19.78Q204.62 20.02 204.79 20.12Q204.96 20.23 205.22 20.23ZM220.03 19.63L220.03 19.63Q220.03 19.27 220.10 18.85Q220.18 18.43 220.31 17.83Q220.44 17.23 220.63 16.34L220.63 16.34L221.64 11.90Q221.66 11.76 221.58 11.65Q221.50 11.54 221.32 11.47Q221.14 11.40 220.85 11.33L220.85 11.33L220.66 11.28L221.09 9.22L227.78 9.22L226.18 16.66Q226.01 17.35 225.89 17.86Q225.77 18.36 225.71 18.67Q225.65 18.98 225.65 19.18L225.65 19.18Q225.65 19.49 225.82 19.62Q225.98 19.75 226.32 19.75L226.32 19.75Q226.51 19.75 226.66 19.73Q226.80 19.70 226.93 19.69Q227.06 19.68 227.16 19.68L227.16 19.68L226.68 22.03Q226.25 22.10 225.70 22.19Q225.14 22.27 224.52 22.33Q223.90 22.39 223.22 22.39L223.22 22.39Q222.29 22.39 221.57 22.07Q220.85 21.74 220.44 21.14Q220.03 20.54 220.03 19.63ZM222.24 5.86L222.24 5.86Q222.24 4.66 223.06 4.02Q223.87 3.38 225.34 3.38L225.34 3.38Q226.75 3.38 227.51 3.98Q228.26 4.58 228.26 5.71L228.26 5.71Q228.26 6.89 227.46 7.54Q226.66 8.18 225.19 8.18L225.19 8.18Q223.78 8.18 223.01 7.58Q222.24 6.98 222.24 5.86ZM233.40 22.37L233.40 22.37Q232.15 22.37 231.23 22.03Q230.30 21.70 229.79 20.98Q229.27 20.26 229.27 19.13L229.27 19.13Q229.27 18.77 229.31 18.36Q229.34 17.95 229.43 17.50Q229.51 17.04 229.58 16.54L229.58 16.54L231.10 9.72L233.30 9.22L239.93 9.22L239.42 11.47L229.06 11.47L229.51 9.34L229.66 9.34Q230.16 9.34 230.56 9.25Q230.95 9.17 231.23 8.89Q231.50 8.62 231.62 8.09L231.62 8.09L232.15 5.57L237.60 5.57L235.18 16.56Q235.08 17.04 235.01 17.46Q234.94 17.88 234.90 18.19Q234.86 18.50 234.86 18.74L234.86 18.74Q234.86 19.27 235.16 19.50Q235.46 19.73 235.94 19.73L235.94 19.73Q236.45 19.73 236.84 19.69Q237.24 19.66 237.50 19.63Q237.77 19.61 237.84 19.61L237.84 19.61L237.38 22.13Q236.81 22.22 235.84 22.30Q234.86 22.37 233.40 22.37ZM251.71 14.64L251.71 14.64L250.30 14.14Q250.15 13.37 249.96 12.77Q249.77 12.17 249.44 11.82Q249.12 11.47 248.54 11.47L248.54 11.47Q247.94 11.47 247.48 11.93Q247.01 12.38 246.65 13.12Q246.29 13.85 246.05 14.71Q245.81 15.58 245.70 16.39Q245.59 17.21 245.59 17.83L245.59 17.83Q245.59 18.50 245.71 18.91Q245.83 19.32 246.07 19.50Q246.31 19.68 246.65 19.68L246.65 19.68Q247.08 19.68 247.49 19.34Q247.90 19.01 248.40 18.31Q248.90 17.62 249.58 16.56L249.58 16.56L250.01 17.50Q249.10 19.15 248.28 20.27Q247.46 21.38 246.54 21.97Q245.62 22.56 244.34 22.56L244.34 22.56Q242.98 22.56 241.98 21.97Q240.98 21.38 240.46 20.27Q239.93 19.15 239.93 17.59L239.93 17.59Q239.93 16.30 240.25 15.05Q240.58 13.80 241.19 12.71Q241.80 11.62 242.69 10.76Q243.58 9.91 244.73 9.44Q245.88 8.98 247.27 8.98L247.27 8.98Q248.90 8.98 249.89 9.68Q250.87 10.39 251.30 11.65Q251.74 12.91 251.71 14.64ZM252.48 9.10L256.13 9.10L254.50 16.63Q254.35 17.35 254.23 17.84Q254.11 18.34 254.05 18.66Q253.99 18.98 253.99 19.18L253.99 19.18Q253.99 19.49 254.17 19.62Q254.35 19.75 254.64 19.75L254.64 19.75Q254.93 19.75 255.14 19.72Q255.36 19.68 255.50 19.68L255.50 19.68L255.00 22.03Q254.59 22.10 254.08 22.19Q253.56 22.27 252.98 22.33Q252.41 22.39 251.76 22.39L251.76 22.39Q250.78 22.39 250.06 22.08Q249.34 21.77 248.96 21.17Q248.59 20.57 248.59 19.66L248.59 19.66Q248.59 19.51 248.59 19.37Q248.59 19.22 248.59 18.98L248.59 18.98L248.35 19.27L249.86 11.98L250.18 11.69L252.48 9.10ZM257.64 16.34L259.70 6.74Q259.75 6.60 259.67 6.49Q259.58 6.38 259.39 6.31Q259.20 6.24 258.94 6.17L258.94 6.17L258.72 6.12L259.18 4.06L265.82 4.06L263.16 16.66Q262.99 17.35 262.88 17.86Q262.78 18.36 262.70 18.67Q262.63 18.98 262.63 19.18L262.63 19.18Q262.63 19.49 262.80 19.62Q262.97 19.75 263.30 19.75L263.30 19.75Q263.50 19.75 263.64 19.73Q263.78 19.70 263.92 19.69Q264.05 19.68 264.14 19.68L264.14 19.68L263.66 22.03Q263.23 22.10 262.68 22.19Q262.13 22.27 261.52 22.33Q260.90 22.39 260.23 22.39L260.23 22.39Q259.27 22.39 258.55 22.07Q257.83 21.74 257.44 21.14Q257.04 20.54 257.04 19.63L257.04 19.63Q257.04 19.27 257.11 18.85Q257.18 18.43 257.32 17.83Q257.45 17.23 257.64 16.34L257.64 16.34ZM265.80 19.63L265.80 19.63Q265.80 19.27 265.87 18.85Q265.94 18.43 266.08 17.83Q266.21 17.23 266.40 16.34L266.40 16.34L267.41 11.90Q267.43 11.76 267.35 11.65Q267.26 11.54 267.08 11.47Q266.90 11.40 266.62 11.33L266.62 11.33L266.42 11.28L266.86 9.22L273.55 9.22L271.94 16.66Q271.78 17.35 271.66 17.86Q271.54 18.36 271.48 18.67Q271.42 18.98 271.42 19.18L271.42 19.18Q271.42 19.49 271.58 19.62Q271.75 19.75 272.09 19.75L272.09 19.75Q272.28 19.75 272.42 19.73Q272.57 19.70 272.70 19.69Q272.83 19.68 272.93 19.68L272.93 19.68L272.45 22.03Q272.02 22.10 271.46 22.19Q270.91 22.27 270.29 22.33Q269.66 22.39 268.99 22.39L268.99 22.39Q268.06 22.39 267.34 22.07Q266.62 21.74 266.21 21.14Q265.80 20.54 265.80 19.63ZM268.01 5.86L268.01 5.86Q268.01 4.66 268.82 4.02Q269.64 3.38 271.10 3.38L271.10 3.38Q272.52 3.38 273.28 3.98Q274.03 4.58 274.03 5.71L274.03 5.71Q274.03 6.89 273.23 7.54Q272.42 8.18 270.96 8.18L270.96 8.18Q269.54 8.18 268.78 7.58Q268.01 6.98 268.01 5.86ZM282.43 20.09L282.43 20.09Q283.22 20.09 283.81 19.74Q284.40 19.39 284.84 18.83Q285.29 18.26 285.65 17.62L285.65 17.62L287.47 18.84Q286.94 19.92 286.15 20.76Q285.36 21.60 284.22 22.08Q283.08 22.56 281.47 22.56L281.47 22.56Q279.96 22.56 278.70 22.16Q277.44 21.77 276.50 21.01Q275.57 20.26 275.05 19.16Q274.54 18.07 274.54 16.68L274.54 16.68Q274.54 15.07 275.09 13.68Q275.64 12.29 276.72 11.22Q277.80 10.15 279.38 9.56Q280.97 8.98 283.03 8.98L283.03 8.98Q284.62 8.98 285.73 9.24Q286.85 9.50 287.54 9.83Q288.24 10.15 288.50 10.37L288.50 10.37L287.69 14.21L283.61 14.21L284.45 10.39Q284.81 10.42 284.98 10.66Q285.14 10.90 285.16 11.20Q285.17 11.50 285.08 11.76Q285 12.02 284.86 12.10L284.86 12.10Q284.74 11.86 284.52 11.69Q284.30 11.52 284.02 11.42Q283.73 11.33 283.34 11.33L283.34 11.33Q282.67 11.33 282.16 11.72Q281.64 12.12 281.27 12.78Q280.90 13.44 280.67 14.24Q280.44 15.05 280.33 15.85Q280.22 16.66 280.22 17.35L280.22 17.35Q280.22 18.19 280.45 18.80Q280.68 19.42 281.17 19.75Q281.66 20.09 282.43 20.09Z"/></svg>