<svg xmlns="http://www.w3.org/2000/svg" xmlns:xlink="http://www.w3.org/1999/xlink" width="188.256" height="28.8"><path fill="black" d="M3.53 21.72L0.96 21.72L7.78 4.34L11.16 4.34L17.98 21.72L15.41 21.72Q14.98 21.72 14.69 21.50Q14.40 21.29 14.30 20.98L14.30 20.98L10.13 9.43Q9.98 8.98 9.80 8.47Q9.62 7.97 9.48 7.34L9.48 7.34Q9.29 7.97 9.12 8.46Q8.95 8.95 8.81 9.46L8.81 9.46L4.63 20.98Q4.54 21.26 4.25 21.49Q3.96 21.72 3.53 21.72L3.53 21.72ZM5.30 21.72L3.10 21.72L3.10 20.11L5.30 20.11L5.30 21.72ZM13.56 16.94L5.23 16.94L5.64 14.64L13.15 14.64L13.56 16.94ZM15.74 21.72L13.39 21.72L13.39 20.11L15.74 20.11L15.74 21.72ZM2.62 21.72L0.24 21.72L0.24 20.33Q0.24 19.99 0.43 19.82Q0.62 19.66 0.94 19.58L0.94 19.58L2.33 19.30L2.62 21.72ZM6.65 21.72L4.27 21.72L4.58 19.30L5.95 19.58Q6.29 19.66 6.47 19.82Q6.65 19.99 6.65 20.33L6.65 20.33L6.65 21.72ZM14.64 21.72L12.26 21.72L12.26 20.33Q12.26 19.99 12.46 19.82Q12.65 19.66 12.96 19.58L12.96 19.58L14.35 19.30L14.64 21.72ZM18.67 21.72L16.30 21.72L16.61 19.30L17.98 19.58Q18.31 19.66 18.49 19.82Q18.67 19.99 18.67 20.33L18.67 20.33L18.67 21.72ZM24.38 21.72L21.36 21.72L21.36 3.86L24.38 3.86L24.38 21.72ZM21.94 21.72L19.56 21.72L19.56 20.33Q19.56 19.99 19.74 19.82Q19.92 19.66 20.26 19.58L20.26 19.58L21.62 19.30L21.94 21.72ZM26.18 21.72L23.81 21.72L24.12 19.30L25.49 19.58Q25.82 19.66 26.00 19.82Q26.18 19.99 26.18 20.33L26.18 20.33L26.18 21.72ZM19.56 3.86L21.94 3.86L21.62 6.29L20.26 6.00Q19.92 5.93 19.74 5.76Q19.56 5.59 19.56 5.26L19.56 5.26L19.56 3.86ZM33.34 21.91L33.34 21.91Q31.49 21.91 30.12 21.08Q28.75 20.26 28.00 18.76Q27.24 17.26 27.24 15.29L27.24 15.29Q27.24 13.56 27.98 12.18Q28.73 10.80 30.07 10.00Q31.42 9.19 33.19 9.19L33.19 9.19Q34.80 9.19 36.01 9.88Q37.22 10.56 37.88 11.81Q38.54 13.06 38.54 14.78L38.54 14.78Q38.54 15.43 38.42 15.68Q38.30 15.94 37.85 15.94L37.85 15.94L30.29 15.94Q30.29 16.01 30.29 16.08Q30.29 16.15 30.31 16.22L30.31 16.22Q30.50 17.90 31.36 18.74Q32.21 19.58 33.60 19.58L33.60 19.58Q34.25 19.58 34.91 19.32Q35.57 19.06 36.12 18.78Q36.67 18.50 37.01 18.50L37.01 18.50Q37.34 18.50 37.56 18.77L37.56 18.77L38.45 19.87Q37.80 20.62 36.95 21.07Q36.10 21.53 35.17 21.72Q34.25 21.91 33.34 21.91ZM30.34 14.14L30.34 14.14L35.83 14.14Q35.83 12.94 35.18 12.14Q34.54 11.35 33.26 11.35L33.26 11.35Q31.99 11.35 31.26 12.07Q30.53 12.79 30.34 14.14ZM45.91 9.19L45.91 9.19Q47.78 9.19 49.15 9.97Q50.52 10.75 51.26 12.18Q52.01 13.61 52.01 15.53L52.01 15.53Q52.01 17.45 51.26 18.88Q50.52 20.30 49.15 21.11Q47.78 21.91 45.91 21.91L45.91 21.91Q44.06 21.91 42.68 21.11Q41.30 20.30 40.54 18.88Q39.77 17.45 39.77 15.53L39.77 15.53Q39.77 13.61 40.54 12.18Q41.30 10.75 42.68 9.97Q44.06 9.19 45.91 9.19ZM45.91 19.61L45.91 19.61Q47.42 19.61 48.14 18.58Q48.86 17.54 48.86 15.55L48.86 15.55Q48.86 14.21 48.55 13.31Q48.24 12.41 47.58 11.95Q46.92 11.50 45.91 11.50L45.91 11.50Q44.90 11.50 44.23 11.96Q43.56 12.43 43.24 13.33Q42.91 14.23 42.91 15.55L42.91 15.55Q42.91 17.50 43.64 18.55Q44.38 19.61 45.91 19.61ZM63.14 21.72L60.96 21.72L67.61 8.47Q67.85 8.06 68.08 7.72Q68.30 7.37 68.59 7.06L68.59 7.06L60.34 7.06Q60.07 7.06 59.86 6.85Q59.64 6.65 59.64 6.38L59.64 6.38L59.64 4.34L71.66 4.34L71.66 5.64Q71.66 6.22 71.54 6.56Q71.42 6.91 71.33 7.15L71.33 7.15L64.78 20.69Q64.56 21.12 64.18 21.42Q63.79 21.72 63.14 21.72L63.14 21.72ZM60.74 7.70L59.64 7.70L59.64 6.10L60.74 6.10L60.74 7.70ZM59.64 7.06L61.97 6.50L61.61 8.47Q61.54 8.83 61.37 9.01Q61.20 9.19 60.86 9.19L60.86 9.19L59.64 9.19L59.64 7.06ZM85.70 13.03L85.70 13.03Q85.70 15.31 85.21 16.98Q84.72 18.65 83.86 19.73L83.86 19.73Q83.02 20.83 81.84 21.37Q80.66 21.91 79.30 21.91L79.30 21.91Q77.95 21.91 76.79 21.37Q75.62 20.83 74.76 19.73L74.76 19.73Q73.92 18.65 73.43 16.98Q72.94 15.31 72.94 13.03L72.94 13.03Q72.94 10.75 73.43 9.08Q73.92 7.42 74.76 6.31L74.76 6.31Q75.62 5.23 76.79 4.69Q77.95 4.15 79.30 4.15L79.30 4.15Q80.66 4.15 81.84 4.69Q83.02 5.23 83.86 6.31L83.86 6.31Q84.72 7.42 85.21 9.08Q85.70 10.75 85.70 13.03ZM82.56 13.03L82.56 13.03Q82.56 11.16 82.28 9.92Q82.01 8.69 81.58 7.94L81.58 7.94Q81.10 7.22 80.52 6.94Q79.94 6.65 79.30 6.65L79.30 6.65Q78.70 6.65 78.11 6.94Q77.52 7.22 77.06 7.94L77.06 7.94Q76.63 8.69 76.36 9.92Q76.08 11.16 76.08 13.03L76.08 13.03Q76.08 14.93 76.36 16.15Q76.63 17.38 77.06 18.12L77.06 18.12Q77.52 18.84 78.11 19.13Q78.70 19.42 79.32 19.42L79.32 19.42Q79.92 19.42 80.51 19.13Q81.10 18.84 81.55 18.12L81.55 18.12Q82.01 17.38 82.28 16.15Q82.56 14.93 82.56 13.03ZM99.48 13.03L99.48 13.03Q99.48 15.31 98.99 16.98Q98.50 18.65 97.63 19.73L97.63 19.73Q96.79 20.83 95.62 21.37Q94.44 21.91 93.07 21.91L93.07 21.91Q91.73 21.91 90.56 21.37Q89.40 20.83 88.54 19.73L88.54 19.73Q87.70 18.65 87.20 16.98Q86.71 15.31 86.71 13.03L86.71 13.03Q86.71 10.75 87.20 9.08Q87.70 7.42 88.54 6.31L88.54 6.31Q89.40 5.23 90.56 4.69Q91.73 4.15 93.07 4.15L93.07 4.15Q94.44 4.15 95.62 4.69Q96.79 5.23 97.63 6.31L97.63 6.31Q98.50 7.42 98.99 9.08Q99.48 10.75 99.48 13.03ZM96.34 13.03L96.34 13.03Q96.34 11.16 96.06 9.92Q95.78 8.69 95.35 7.94L95.35 7.94Q94.87 7.22 94.30 6.94Q93.72 6.65 93.07 6.65L93.07 6.65Q92.47 6.65 91.88 6.94Q91.30 7.22 90.84 7.94L90.84 7.94Q90.41 8.69 90.13 9.92Q89.86 11.16 89.86 13.03L89.86 13.03Q89.86 14.93 90.13 16.15Q90.41 17.38 90.84 18.12L90.84 18.12Q91.30 18.84 91.88 19.13Q92.47 19.42 93.10 19.42L93.10 19.42Q93.70 19.42 94.28 19.13Q94.87 18.84 95.33 18.12L95.33 18.12Q95.78 17.38 96.06 16.15Q96.34 14.93 96.34 13.03ZM111.38 21.72L108.36 21.72L108.36 9.38L110.21 9.38Q110.83 9.38 110.98 9.94L110.98 9.94L111.17 10.92Q111.94 10.13 112.85 9.66Q113.76 9.19 114.98 9.19L114.98 9.19Q116.33 9.19 117.25 9.79Q118.18 10.39 118.66 11.45Q119.14 12.50 119.14 13.87L119.14 13.87L119.14 21.72L116.09 21.72L116.09 13.87Q116.09 12.77 115.58 12.14Q115.08 11.52 114.05 11.52L114.05 11.52Q113.30 11.52 112.64 11.87Q111.98 12.22 111.38 12.82L111.38 12.82L111.38 21.72ZM108.94 21.72L106.56 21.72L106.56 20.33Q106.56 19.99 106.74 19.82Q106.92 19.66 107.26 19.58L107.26 19.58L108.62 19.30L108.94 21.72ZM113.18 21.72L110.81 21.72L111.12 19.30L112.49 19.58Q112.82 19.66 113.00 19.82Q113.18 19.99 113.18 20.33L113.18 20.33L113.18 21.72ZM120.94 21.72L118.56 21.72L118.85 19.30L120.24 19.58Q120.55 19.66 120.74 19.82Q120.94 19.99 120.94 20.33L120.94 20.33L120.94 21.72ZM106.56 9.38L108.94 9.38L108.62 11.81L107.26 11.52Q106.92 11.45 106.74 11.28Q106.56 11.11 106.56 10.78L106.56 10.78L106.56 9.38ZM128.09 9.19L128.09 9.19Q129.96 9.19 131.33 9.97Q132.70 10.75 133.44 12.18Q134.18 13.61 134.18 15.53L134.18 15.53Q134.18 17.45 133.44 18.88Q132.70 20.30 131.33 21.11Q129.96 21.91 128.09 21.91L128.09 21.91Q126.24 21.91 124.86 21.11Q123.48 20.30 122.71 18.88Q121.94 17.45 121.94 15.53L121.94 15.53Q121.94 13.61 122.71 12.18Q123.48 10.75 124.86 9.97Q126.24 9.19 128.09 9.19ZM128.09 19.61L128.09 19.61Q129.60 19.61 130.32 18.58Q131.04 17.54 131.04 15.55L131.04 15.55Q131.04 14.21 130.73 13.31Q130.42 12.41 129.76 11.95Q129.10 11.50 128.09 11.50L128.09 11.50Q127.08 11.50 126.41 11.96Q125.74 12.43 125.41 13.33Q125.09 14.23 125.09 15.55L125.09 15.55Q125.09 17.50 125.82 18.55Q126.55 19.61 128.09 19.61ZM140.28 21.72L137.26 21.72L137.26 9.38L139.03 9.38Q139.51 9.38 139.69 9.56Q139.87 9.74 139.94 10.15L139.94 10.15L140.11 11.62Q140.78 10.46 141.66 9.82Q142.54 9.17 143.64 9.17L143.64 9.17Q144.10 9.17 144.47 9.28Q144.84 9.38 145.13 9.58L145.13 9.58L144.74 11.83Q144.72 12.05 144.59 12.13Q144.46 12.22 144.26 12.22L144.26 12.22Q144.14 12.22 143.71 12.14Q143.28 12.07 142.94 12.07L142.94 12.07Q142.03 12.07 141.38 12.58Q140.74 13.08 140.28 14.04L140.28 14.04L140.28 21.72ZM142.08 21.72L139.70 21.72L140.02 19.30L141.38 19.58Q141.72 19.66 141.90 19.82Q142.08 19.99 142.08 20.33L142.08 20.33L142.08 21.72ZM137.83 21.72L135.46 21.72L135.46 20.33Q135.46 19.99 135.64 19.82Q135.82 19.66 136.15 19.58L136.15 19.58L137.52 19.30L137.83 21.72ZM135.46 9.38L137.83 9.38L137.52 11.81L136.15 11.52Q135.82 11.45 135.64 11.28Q135.46 11.11 135.46 10.78L135.46 10.78L135.46 9.38ZM150.79 21.72L147.77 21.72L147.77 9.38L149.62 9.38Q150.22 9.38 150.38 9.94L150.38 9.94L150.58 10.85Q151.22 10.15 152.02 9.67Q152.81 9.19 153.89 9.19L153.89 9.19Q155.06 9.19 155.81 9.83Q156.55 10.46 156.91 11.50L156.91 11.50Q157.49 10.30 158.57 9.74Q159.65 9.19 160.87 9.19L160.87 9.19Q162.94 9.19 164.03 10.44Q165.12 11.69 165.12 13.87L165.12 13.87L165.12 21.72L162.10 21.72L162.10 13.87Q162.10 12.72 161.59 12.12Q161.09 11.52 160.08 11.52L160.08 11.52Q159.19 11.52 158.58 12.14Q157.97 12.77 157.97 13.87L157.97 13.87L157.97 21.72L154.92 21.72L154.92 13.87Q154.92 12.65 154.43 12.08Q153.94 11.52 153 11.52L153 11.52Q152.35 11.52 151.81 11.84Q151.27 12.17 150.79 12.70L150.79 12.70L150.79 21.72ZM148.34 21.72L145.97 21.72L145.97 20.33Q145.97 19.99 146.15 19.82Q146.33 19.66 146.66 19.58L146.66 19.58L148.03 19.30L148.34 21.72ZM152.59 21.72L150.22 21.72L150.53 19.30L151.90 19.58Q152.23 19.66 152.41 19.82Q152.59 19.99 152.59 20.33L152.59 20.33L152.59 21.72ZM159.77 21.72L157.39 21.72L157.68 19.30L159.07 19.58Q159.38 19.66 159.58 19.82Q159.77 19.99 159.77 20.33L159.77 20.33L159.77 21.72ZM145.97 9.38L148.34 9.38L148.03 11.81L146.66 11.52Q146.33 11.45 146.15 11.28Q145.97 11.11 145.97 10.78L145.97 10.78L145.97 9.38ZM166.92 21.72L164.54 21.72L164.86 19.30L166.22 19.58Q166.56 19.66 166.74 19.82Q166.92 19.99 166.92 20.33L166.92 20.33L166.92 21.72ZM171.58 21.91L171.58 21.91Q170.52 21.91 169.70 21.53Q168.89 21.14 168.43 20.40Q167.98 19.66 167.98 18.55L167.98 18.55Q167.98 17.88 168.35 17.20Q168.72 16.51 169.56 15.96L169.56 15.96Q170.42 15.43 171.84 15.06Q173.26 14.69 175.34 14.64L175.34 14.64L175.34 13.94Q175.34 12.70 174.83 12.11Q174.31 11.52 173.33 11.52L173.33 11.52Q172.63 11.52 172.04 11.80Q171.46 12.07 170.96 12.35Q170.47 12.62 170.02 12.62L170.02 12.62Q169.70 12.62 169.48 12.46Q169.25 12.29 169.13 12.07L169.13 12.07L168.58 11.11Q169.66 10.13 170.94 9.65Q172.22 9.17 173.71 9.17L173.71 9.17Q175.15 9.17 176.18 9.77Q177.22 10.37 177.77 11.45Q178.32 12.53 178.32 13.94L178.32 13.94L178.32 21.72L176.95 21.72Q176.50 21.72 176.27 21.60Q176.04 21.48 175.90 21.07L175.90 21.07L175.66 20.21Q174.72 21.02 173.80 21.47Q172.87 21.91 171.58 21.91ZM172.54 19.85L172.54 19.85Q173.40 19.85 174.06 19.52Q174.72 19.20 175.34 18.55L175.34 18.55L175.34 16.49Q174.29 16.51 173.46 16.64Q172.63 16.78 172.07 17.00Q171.50 17.23 171.20 17.58Q170.90 17.93 170.90 18.41L170.90 18.41Q170.90 19.20 171.35 19.52Q171.79 19.85 172.54 19.85ZM180.12 21.72L177.72 21.72L178.03 19.30L179.42 19.58Q179.74 19.66 179.93 19.82Q180.12 19.99 180.12 20.33L180.12 20.33L180.12 21.72ZM186 21.72L182.98 21.72L182.98 3.86L186 3.86L186 21.72ZM183.55 21.72L181.18 21.72L181.18 20.33Q181.18 19.99 181.36 19.82Q181.54 19.66 181.87 19.58L181.87 19.58L183.24 19.30L183.55 21.72ZM187.80 21.72L185.42 21.72L185.74 19.30L187.10 19.58Q187.44 19.66 187.62 19.82Q187.80 19.99 187.80 20.33L187.80 20.33L187.80 21.72ZM181.18 3.86L183.55 3.86L183.24 6.29L181.87 6.00Q181.54 5.93 181.36 5.76Q181.18 5.59 181.18 5.26L181.18 5.26L181.18 3.86Z"/></svg>