<svg xmlns="http://www.w3.org/2000/svg" xmlns:xlink="http://www.w3.org/1999/xlink" width="237.68399999999997" height="44.784"><path fill="black" d="M2.22 30L0.70 30L5.62 14.66L8.06 14.66L12.98 30L11.47 30L7.00 15.70L6.68 15.70L2.22 30ZM10.34 25.18L3.32 25.18L3.32 23.93L10.34 23.93L10.34 25.18ZM24.73 30L23.28 30L23.28 22.66Q23.28 21.61 23.00 20.86Q22.72 20.10 22.07 19.69Q21.42 19.28 20.33 19.28L20.33 19.28Q19.32 19.28 18.58 19.67Q17.83 20.05 17.38 20.72Q16.92 21.40 16.75 22.26L16.75 22.26L16.45 21.18L16.78 21.18Q16.93 20.32 17.43 19.61Q17.93 18.91 18.77 18.49Q19.62 18.06 20.83 18.06L20.83 18.06Q22.25 18.06 23.10 18.59Q23.95 19.12 24.34 20.11Q24.73 21.10 24.73 22.51L24.73 22.51L24.73 30ZM16.84 30L15.38 30L15.38 18.30L16.84 18.30L16.76 21.19L16.84 21.26L16.84 30ZM32.64 30.25L32.64 30.25Q30.11 30.25 28.80 28.98Q27.49 27.71 27.49 25.36L27.49 25.36L27.49 23.08Q27.49 20.63 28.71 19.32Q29.93 18.01 32.26 18.01L32.26 18.01Q33.82 18.01 34.87 18.60Q35.93 19.19 36.46 20.29Q37.00 21.40 37.00 22.94L37.00 22.94L37.00 23.36Q37.00 23.71 36.97 24.06Q36.95 24.41 36.91 24.76L36.91 24.76L35.57 24.76Q35.59 24.23 35.59 23.75Q35.59 23.28 35.59 22.88L35.59 22.88Q35.59 21.71 35.21 20.89Q34.84 20.06 34.10 19.63Q33.36 19.20 32.26 19.20L32.26 19.20Q30.61 19.20 29.77 20.17Q28.93 21.13 28.93 22.96L28.93 22.96L28.93 24.10L28.94 24.29L28.94 25.50Q28.94 26.30 29.18 26.95Q29.41 27.60 29.90 28.06Q30.38 28.52 31.12 28.76Q31.86 29.00 32.84 29.00L32.84 29.00Q33.98 29.00 34.96 28.69Q35.94 28.37 36.79 27.80L36.79 27.80L36.65 29.11Q35.90 29.63 34.88 29.94Q33.86 30.25 32.64 30.25ZM36.59 24.76L28.25 24.76L28.25 23.64L36.59 23.64L36.59 24.76ZM49.16 30L47.39 30L42.36 24.35L41.04 24.35L41.04 23.18L42.36 23.18L47.17 18.30L48.92 18.30L43.42 23.92L43.42 23.51L49.16 30ZM41.23 30L39.78 30L39.78 14.09L41.23 14.09L41.23 30ZM62.15 30L56.93 30L56.93 28.75L62.02 28.75Q63.71 28.75 64.40 28.00Q65.10 27.25 65.10 25.97L65.10 25.97L65.10 25.48Q65.10 24.17 64.38 23.43Q63.66 22.69 61.87 22.69L61.87 22.69L56.96 22.69L56.96 21.49L61.86 21.49Q63.44 21.49 64.13 20.77Q64.81 20.05 64.81 18.80L64.81 18.80L64.81 18.56Q64.81 17.33 64.15 16.61Q63.49 15.90 61.84 15.90L61.84 15.90L56.90 15.90L56.90 14.66L61.97 14.66Q64.31 14.66 65.31 15.65Q66.31 16.63 66.31 18.36L66.31 18.36L66.31 18.61Q66.31 20.05 65.60 20.90Q64.88 21.74 63.36 21.89L63.36 21.89L63.32 21.89Q65.08 22.07 65.85 22.98Q66.62 23.89 66.62 25.50L66.62 25.50L66.62 26.04Q66.62 27.86 65.57 28.93Q64.52 30 62.15 30L62.15 30ZM57.42 30L55.94 30L55.94 14.66L57.42 14.66L57.42 30ZM77.94 30L76.49 30L76.56 27.08L76.50 26.86L76.50 23.08L76.50 22.30Q76.50 20.78 75.74 20.03Q74.98 19.28 73.34 19.28L73.34 19.28Q72.07 19.28 71.03 19.67Q69.98 20.05 69.19 20.54L69.19 20.54L69.34 19.26Q69.77 18.98 70.38 18.70Q70.99 18.42 71.79 18.23Q72.59 18.05 73.55 18.05L73.55 18.05Q74.72 18.05 75.56 18.34Q76.39 18.62 76.92 19.18Q77.45 19.73 77.69 20.51Q77.94 21.29 77.94 22.26L77.94 22.26L77.94 30ZM72.38 30.25L72.38 30.25Q70.64 30.25 69.71 29.41Q68.78 28.57 68.78 27L68.78 27L68.78 26.69Q68.78 25.14 69.74 24.35Q70.69 23.57 72.83 23.26L72.83 23.26L76.74 22.68L76.81 23.78L73.01 24.32Q71.52 24.54 70.87 25.06Q70.22 25.58 70.22 26.60L70.22 26.60L70.22 26.82Q70.22 27.90 70.88 28.46Q71.54 29.03 72.82 29.03L72.82 29.03Q73.91 29.03 74.68 28.63Q75.46 28.24 75.93 27.57Q76.40 26.90 76.56 26.08L76.56 26.08L76.85 27.11L76.55 27.11Q76.40 27.94 75.92 28.66Q75.43 29.38 74.56 29.81Q73.69 30.25 72.38 30.25ZM90.50 30L89.05 30L89.05 22.66Q89.05 21.61 88.77 20.86Q88.49 20.10 87.84 19.69Q87.19 19.28 86.10 19.28L86.10 19.28Q85.09 19.28 84.35 19.67Q83.60 20.05 83.15 20.72Q82.69 21.40 82.52 22.26L82.52 22.26L82.22 21.18L82.55 21.18Q82.70 20.32 83.20 19.61Q83.70 18.91 84.55 18.49Q85.39 18.06 86.60 18.06L86.60 18.06Q88.02 18.06 88.87 18.59Q89.72 19.12 90.11 20.11Q90.50 21.10 90.50 22.51L90.50 22.51L90.50 30ZM82.61 30L81.16 30L81.16 18.30L82.61 18.30L82.54 21.19L82.61 21.26L82.61 30ZM98.14 26.56L98.14 26.56Q95.83 26.56 94.60 25.53Q93.37 24.50 93.37 22.56L93.37 22.56L93.37 22.15Q93.37 20.95 93.85 20.06Q94.32 19.18 95.36 18.66Q96.41 18.14 98.10 18.11L98.10 18.11L103.92 17.95L103.92 19.12L100.08 19.02L100.08 19.06Q101.05 19.21 101.65 19.66Q102.25 20.10 102.53 20.77Q102.80 21.44 102.80 22.31L102.80 22.31L102.80 22.72Q102.80 24.60 101.62 25.58Q100.44 26.56 98.14 26.56ZM98.06 33.30L98.06 33.30L98.32 33.30Q99.47 33.30 100.31 33.13Q101.15 32.95 101.62 32.56Q102.08 32.16 102.08 31.50L102.08 31.50L102.08 31.46Q102.08 30.71 101.54 30.29Q101.00 29.88 99.71 29.77L99.71 29.77L96.47 29.48L96.97 29.47Q96.19 29.58 95.60 29.81Q95.00 30.04 94.66 30.43Q94.32 30.83 94.32 31.43L94.32 31.43L94.32 31.45Q94.32 32.15 94.79 32.56Q95.26 32.96 96.10 33.13Q96.94 33.30 98.06 33.30ZM98.29 34.49L97.98 34.49Q96.46 34.49 95.33 34.22Q94.20 33.96 93.58 33.37Q92.96 32.77 92.96 31.76L92.96 31.76L92.96 31.72Q92.96 30.96 93.34 30.46Q93.72 29.96 94.37 29.69Q95.02 29.41 95.78 29.33L95.78 29.33L95.77 29.29Q94.66 29.15 94.14 28.75Q93.62 28.34 93.62 27.67L93.62 27.67L93.62 27.66Q93.62 27.22 93.83 26.89Q94.04 26.57 94.49 26.39Q94.93 26.21 95.64 26.17L95.64 26.17L95.64 25.96L97.57 26.47L96.66 26.45Q95.71 26.46 95.35 26.68Q94.98 26.90 94.98 27.32L94.98 27.32L94.98 27.34Q94.98 27.79 95.47 28.03Q95.96 28.26 97.18 28.38L97.18 28.38L100.00 28.67Q101.82 28.85 102.64 29.53Q103.46 30.20 103.46 31.46L103.46 31.46L103.46 31.51Q103.46 32.57 102.83 33.22Q102.19 33.88 101.03 34.18Q99.86 34.49 98.29 34.49L98.29 34.49ZM98.12 25.46L98.12 25.46Q99.22 25.46 99.95 25.13Q100.68 24.80 101.05 24.14Q101.42 23.48 101.42 22.54L101.42 22.54L101.42 22.12Q101.42 21.18 101.06 20.53Q100.69 19.87 99.98 19.54Q99.26 19.20 98.18 19.20L98.18 19.20L98.10 19.20Q96.91 19.20 96.17 19.57Q95.44 19.93 95.10 20.59Q94.76 21.25 94.76 22.13L94.76 22.13L94.76 22.52Q94.76 23.48 95.14 24.14Q95.51 24.79 96.25 25.13Q97.00 25.46 98.12 25.46ZM107.41 30L105.96 30L105.96 14.09L107.41 14.09L107.41 30ZM119.33 30L117.88 30L117.95 27.08L117.89 26.86L117.89 23.08L117.89 22.30Q117.89 20.78 117.13 20.03Q116.36 19.28 114.73 19.28L114.73 19.28Q113.46 19.28 112.42 19.67Q111.37 20.05 110.58 20.54L110.58 20.54L110.72 19.26Q111.16 18.98 111.77 18.70Q112.38 18.42 113.18 18.23Q113.98 18.05 114.94 18.05L114.94 18.05Q116.11 18.05 116.95 18.34Q117.78 18.62 118.31 19.18Q118.84 19.73 119.08 20.51Q119.33 21.29 119.33 22.26L119.33 22.26L119.33 30ZM113.77 30.25L113.77 30.25Q112.03 30.25 111.10 29.41Q110.17 28.57 110.17 27L110.17 27L110.17 26.69Q110.17 25.14 111.13 24.35Q112.08 23.57 114.22 23.26L114.22 23.26L118.13 22.68L118.20 23.78L114.40 24.32Q112.91 24.54 112.26 25.06Q111.61 25.58 111.61 26.60L111.61 26.60L111.61 26.82Q111.61 27.90 112.27 28.46Q112.93 29.03 114.20 29.03L114.20 29.03Q115.30 29.03 116.07 28.63Q116.84 28.24 117.32 27.57Q117.79 26.90 117.95 26.08L117.95 26.08L118.24 27.11L117.94 27.11Q117.79 27.94 117.31 28.66Q116.82 29.38 115.95 29.81Q115.08 30.25 113.77 30.25ZM130.61 30.25L130.61 30.25Q129.64 30.25 128.81 30.09Q127.99 29.93 127.37 29.69Q126.74 29.46 126.35 29.26L126.35 29.26L126.19 27.77Q126.98 28.24 128.09 28.58Q129.20 28.92 130.50 28.92L130.50 28.92Q131.81 28.92 132.62 28.56Q133.43 28.20 133.81 27.53Q134.20 26.86 134.20 25.91L134.20 25.91L134.20 25.56Q134.20 24.62 133.85 24.01Q133.51 23.39 132.76 23.07Q132.01 22.75 130.75 22.74L130.75 22.74L128.18 22.70L128.18 21.52L130.80 21.48Q132.01 21.46 132.73 21.12Q133.45 20.78 133.76 20.18Q134.08 19.57 134.08 18.77L134.08 18.77L134.08 18.50Q134.08 17.14 133.28 16.42Q132.49 15.71 130.66 15.71L130.66 15.71Q129.30 15.71 128.20 16.07Q127.09 16.43 126.29 16.91L126.29 16.91L126.43 15.56Q127.10 15.13 128.23 14.78Q129.35 14.42 130.87 14.42L130.87 14.42Q133.32 14.42 134.45 15.44Q135.59 16.46 135.59 18.31L135.59 18.31L135.59 18.60Q135.59 19.54 135.27 20.26Q134.95 20.99 134.26 21.44Q133.56 21.89 132.44 22.00L132.44 22.00L132.41 22.16L132.40 22.00Q134.16 22.18 134.94 23.07Q135.72 23.96 135.72 25.55L135.72 25.55L135.72 26.00Q135.72 27.97 134.48 29.11Q133.24 30.25 130.61 30.25ZM143.54 30.26L143.54 30.26Q140.93 30.26 139.60 28.76Q138.28 27.26 138.28 24.46L138.28 24.46L138.28 20.22Q138.28 17.40 139.60 15.90Q140.93 14.40 143.54 14.40L143.54 14.40Q146.17 14.40 147.50 15.90Q148.84 17.40 148.84 20.22L148.84 20.22L148.84 24.46Q148.84 27.26 147.50 28.76Q146.17 30.26 143.54 30.26ZM143.54 29.00L143.54 29.00Q145.46 29.00 146.39 27.84Q147.31 26.68 147.31 24.52L147.31 24.52L147.31 20.16Q147.31 17.99 146.39 16.82Q145.46 15.66 143.54 15.66L143.54 15.66Q141.65 15.66 140.72 16.82Q139.79 17.99 139.79 20.16L139.79 20.16L139.79 24.52Q139.79 26.68 140.72 27.84Q141.65 29.00 143.54 29.00ZM156.85 30.26L156.85 30.26Q154.24 30.26 152.91 28.76Q151.58 27.26 151.58 24.46L151.58 24.46L151.58 20.22Q151.58 17.40 152.91 15.90Q154.24 14.40 156.85 14.40L156.85 14.40Q159.48 14.40 160.81 15.90Q162.14 17.40 162.14 20.22L162.14 20.22L162.14 24.46Q162.14 27.26 160.81 28.76Q159.48 30.26 156.85 30.26ZM156.85 29.00L156.85 29.00Q158.77 29.00 159.70 27.84Q160.62 26.68 160.62 24.52L160.62 24.52L160.62 20.16Q160.62 17.99 159.70 16.82Q158.77 15.66 156.85 15.66L156.85 15.66Q154.96 15.66 154.03 16.82Q153.10 17.99 153.10 20.16L153.10 20.16L153.10 24.52Q153.10 26.68 154.03 27.84Q154.96 29.00 156.85 29.00ZM178.94 30L177.49 30L177.49 22.66Q177.49 21.61 177.21 20.86Q176.93 20.10 176.28 19.69Q175.63 19.28 174.54 19.28L174.54 19.28Q173.53 19.28 172.79 19.67Q172.04 20.05 171.59 20.72Q171.13 21.40 170.96 22.26L170.96 22.26L170.66 21.18L170.99 21.18Q171.14 20.32 171.64 19.61Q172.14 18.91 172.99 18.49Q173.83 18.06 175.04 18.06L175.04 18.06Q176.46 18.06 177.31 18.59Q178.16 19.12 178.55 20.11Q178.94 21.10 178.94 22.51L178.94 22.51L178.94 30ZM171.05 30L169.60 30L169.60 18.30L171.05 18.30L170.98 21.19L171.05 21.26L171.05 30ZM186.65 30.29L186.65 30.29Q184.22 30.29 182.96 28.95Q181.70 27.61 181.70 25.09L181.70 25.09L181.70 23.18Q181.70 20.68 182.96 19.34Q184.22 18.01 186.65 18.01L186.65 18.01Q189.07 18.01 190.33 19.34Q191.59 20.68 191.59 23.18L191.59 23.18L191.59 25.09Q191.59 27.61 190.33 28.95Q189.07 30.29 186.65 30.29ZM186.65 29.09L186.65 29.09Q188.35 29.09 189.25 28.08Q190.14 27.07 190.14 25.18L190.14 25.18L190.14 23.10Q190.14 21.22 189.25 20.21Q188.35 19.20 186.65 19.20L186.65 19.20Q184.94 19.20 184.06 20.21Q183.17 21.22 183.17 23.10L183.17 23.10L183.17 25.18Q183.17 27.07 184.06 28.08Q184.94 29.09 186.65 29.09ZM195.88 22.76L195.88 22.76L195.50 21.65L195.86 21.60Q196.25 19.99 197.26 19.06Q198.26 18.13 199.86 18.13L199.86 18.13Q200.28 18.13 200.62 18.20Q200.95 18.26 201.19 18.36L201.19 18.36L201.29 19.78Q200.99 19.67 200.60 19.60Q200.22 19.52 199.76 19.52L199.76 19.52Q198.40 19.52 197.36 20.35Q196.33 21.17 195.88 22.76ZM195.96 30L194.51 30L194.51 18.30L195.92 18.30L195.84 21.82L195.96 21.94L195.96 30ZM219.49 30L218.04 30L218.04 22.63Q218.04 21.59 217.78 20.84Q217.52 20.09 216.94 19.69Q216.35 19.28 215.35 19.28L215.35 19.28Q214.44 19.28 213.75 19.66Q213.06 20.04 212.64 20.70Q212.22 21.36 212.06 22.19L212.06 22.19L211.79 21.10L211.99 21.10Q212.15 20.29 212.62 19.60Q213.10 18.91 213.90 18.49Q214.70 18.06 215.86 18.06L215.86 18.06Q217.16 18.06 217.97 18.58Q218.77 19.10 219.13 20.09Q219.49 21.08 219.49 22.48L219.49 22.48L219.49 30ZM204.82 30L203.36 30L203.36 18.30L204.82 18.30L204.74 21.20L204.82 21.28L204.82 30ZM212.15 30L210.71 30L210.71 22.63Q210.71 21.60 210.45 20.84Q210.19 20.09 209.60 19.69Q209.02 19.28 208.03 19.28L208.03 19.28Q207.10 19.28 206.41 19.67Q205.72 20.05 205.30 20.72Q204.89 21.40 204.73 22.26L204.73 22.26L204.41 21.18L204.76 21.18Q204.91 20.32 205.37 19.61Q205.82 18.91 206.62 18.49Q207.41 18.06 208.52 18.06L208.52 18.06Q210.14 18.06 210.99 18.89Q211.84 19.72 212.06 21.35L212.06 21.35Q212.11 21.60 212.13 21.87Q212.15 22.14 212.15 22.42L212.15 22.42L212.15 30ZM231.19 30L229.74 30L229.81 27.08L229.75 26.86L229.75 23.08L229.75 22.30Q229.75 20.78 228.99 20.03Q228.23 19.28 226.60 19.28L226.60 19.28Q225.32 19.28 224.28 19.67Q223.24 20.05 222.44 20.54L222.44 20.54L222.59 19.26Q223.02 18.98 223.63 18.70Q224.24 18.42 225.04 18.23Q225.84 18.05 226.80 18.05L226.80 18.05Q227.98 18.05 228.81 18.34Q229.64 18.62 230.17 19.18Q230.70 19.73 230.95 20.51Q231.19 21.29 231.19 22.26L231.19 22.26L231.19 30ZM225.64 30.25L225.64 30.25Q223.90 30.25 222.97 29.41Q222.04 28.57 222.04 27L222.04 27L222.04 26.69Q222.04 25.14 222.99 24.35Q223.94 23.57 226.08 23.26L226.08 23.26L229.99 22.68L230.06 23.78L226.26 24.32Q224.77 24.54 224.12 25.06Q223.48 25.58 223.48 26.60L223.48 26.60L223.48 26.82Q223.48 27.90 224.14 28.46Q224.80 29.03 226.07 29.03L226.07 29.03Q227.16 29.03 227.93 28.63Q228.71 28.24 229.18 27.57Q229.66 26.90 229.81 26.08L229.81 26.08L230.10 27.11L229.80 27.11Q229.66 27.94 229.17 28.66Q228.68 29.38 227.81 29.81Q226.94 30.25 225.64 30.25ZM235.92 30L234.47 30L234.47 14.09L235.92 14.09L235.92 30Z"/></svg>