<svg xmlns="http://www.w3.org/2000/svg" xmlns:xlink="http://www.w3.org/1999/xlink" width="378.4560000000001" height="30.240000000000002"><path fill="black" d="M24.91 7.03L19.97 24.19L16.44 24.19L12.65 11.06L13.08 11.06L9.29 24.19L5.74 24.19L0.82 7.03L4.30 7.03L7.97 21.41L7.25 21.41L11.40 7.03L14.35 7.03L18.50 21.41L17.83 21.41L21.53 7.03L24.91 7.03ZM30.29 12.12L30.29 24.19L27.12 24.19L27.12 12.12L30.29 12.12ZM28.70 10.03L28.70 10.03Q27.91 10.03 27.35 9.49Q26.78 8.95 26.78 8.18L26.78 8.18Q26.78 7.37 27.35 6.84Q27.91 6.31 28.70 6.31L28.70 6.31Q29.52 6.31 30.07 6.85Q30.62 7.39 30.62 8.18L30.62 8.18Q30.62 8.95 30.07 9.49Q29.52 10.03 28.70 10.03ZM38.57 19.82L35.54 24.19L31.97 24.19L36.58 17.93L32.35 12.12L35.90 12.12L38.57 16.08L41.26 12.12L44.83 12.12L40.58 17.93L45.19 24.19L41.59 24.19L38.57 19.82ZM69.05 8.35L62.35 22.34L59.95 22.34L53.26 8.35L54.94 8.33L54.94 24.19L51.82 24.19L51.82 7.03L55.56 7.03L61.82 20.18L60.50 20.18L66.77 7.03L70.46 7.03L70.46 24.19L67.30 24.19L67.30 8.33L69.05 8.35ZM84.70 16.78L84.70 24.19L81.82 24.19L81.82 21.77L81.67 21.38L81.67 16.85Q81.67 15.58 80.86 14.88Q80.04 14.18 78.62 14.18L78.62 14.18Q77.59 14.18 76.69 14.58Q75.79 14.98 75.12 15.70L75.12 15.70L73.46 13.78Q74.42 12.82 75.79 12.28Q77.16 11.74 78.77 11.74L78.77 11.74Q80.52 11.74 81.86 12.34Q83.21 12.94 83.95 14.05Q84.70 15.17 84.70 16.78L84.70 16.78ZM77.71 24.58L77.71 24.58Q76.32 24.58 75.26 24.07Q74.21 23.57 73.62 22.68Q73.03 21.79 73.03 20.62L73.03 20.62Q73.03 19.37 73.75 18.49Q74.47 17.62 75.80 17.14Q77.14 16.66 78.89 16.66L78.89 16.66L81.98 16.66L81.98 18.72L79.13 18.72Q77.83 18.72 77.04 19.18Q76.25 19.63 76.25 20.50L76.25 20.50Q76.25 21.29 76.86 21.74Q77.47 22.20 78.46 22.20L78.46 22.20Q79.39 22.20 80.16 21.80Q80.93 21.41 81.41 20.71Q81.89 20.02 81.96 19.13L81.96 19.13L82.87 19.56Q82.87 21.05 82.22 22.18Q81.58 23.30 80.41 23.94Q79.25 24.58 77.71 24.58ZM100.15 6.91L100.15 24.19L97.01 24.19L97.01 21.34L96.98 21.17L96.98 18.24Q96.98 17.04 96.55 16.19Q96.12 15.34 95.34 14.86Q94.56 14.38 93.55 14.38L93.55 14.38Q92.54 14.38 91.76 14.86Q90.98 15.34 90.56 16.19Q90.14 17.04 90.14 18.17L90.14 18.17Q90.14 19.25 90.60 20.11Q91.06 20.98 91.85 21.46Q92.64 21.94 93.70 21.94L93.70 21.94Q94.58 21.94 95.33 21.59Q96.07 21.24 96.55 20.60Q97.03 19.97 97.15 19.15L97.15 19.15L97.85 19.58Q97.92 20.95 97.33 22.09Q96.74 23.23 95.63 23.90Q94.51 24.58 92.93 24.58L92.93 24.58Q91.25 24.58 89.87 23.76Q88.49 22.94 87.68 21.50Q86.88 20.06 86.88 18.17L86.88 18.17Q86.88 16.25 87.68 14.81Q88.49 13.37 89.86 12.55Q91.22 11.74 92.90 11.74L92.90 11.74Q94.30 11.74 95.32 12.26Q96.34 12.79 96.97 13.73Q97.61 14.66 97.75 15.86L97.75 15.86L96.98 15.86L96.98 6.91L100.15 6.91ZM113.35 20.42L113.35 20.42L115.03 22.37Q114.12 23.40 112.69 23.99Q111.26 24.58 109.54 24.58L109.54 24.58Q107.45 24.58 105.86 23.76Q104.28 22.94 103.39 21.50Q102.50 20.06 102.50 18.17L102.50 18.17Q102.50 16.27 103.36 14.82Q104.21 13.37 105.68 12.55Q107.16 11.74 109.01 11.74L109.01 11.74Q110.81 11.74 112.21 12.54Q113.62 13.34 114.41 14.76Q115.20 16.18 115.20 18.05L115.20 18.05L115.20 18.19L112.10 18.19L112.10 17.86Q112.10 16.75 111.71 15.94Q111.31 15.12 110.63 14.66Q109.94 14.21 109.01 14.21L109.01 14.21Q108.02 14.21 107.28 14.68Q106.54 15.14 106.12 16.02Q105.70 16.90 105.70 18.10L105.70 18.10Q105.70 19.37 106.21 20.27Q106.73 21.17 107.63 21.64Q108.53 22.10 109.70 22.10L109.70 22.10Q111.86 22.10 113.35 20.42ZM115.20 18.05L115.20 19.13L104.54 19.13L104.54 17.11L114.82 17.11L115.20 18.05ZM122.28 10.70L122.28 24.19L119.11 24.19L119.11 10.30Q119.11 6.91 122.50 6.91L122.50 6.91L125.28 6.91L125.28 9.38L123.60 9.38Q122.88 9.38 122.58 9.68Q122.28 9.98 122.28 10.70L122.28 10.70ZM125.28 12.12L125.28 14.66L117 14.66L117 12.12L125.28 12.12ZM133.68 24.58L133.68 24.58Q131.71 24.58 130.20 23.75Q128.69 22.92 127.85 21.47Q127.01 20.02 127.01 18.17L127.01 18.17Q127.01 16.27 127.85 14.83Q128.69 13.39 130.20 12.56Q131.71 11.74 133.68 11.74L133.68 11.74Q135.65 11.74 137.16 12.56Q138.67 13.39 139.51 14.83Q140.35 16.27 140.35 18.14L140.35 18.14Q140.35 20.02 139.51 21.47Q138.67 22.92 137.16 23.75Q135.65 24.58 133.68 24.58ZM133.68 21.94L133.68 21.94Q134.69 21.94 135.46 21.46Q136.22 20.98 136.66 20.12Q137.09 19.27 137.09 18.17L137.09 18.17Q137.09 17.04 136.66 16.19Q136.22 15.34 135.46 14.86Q134.69 14.38 133.68 14.38L133.68 14.38Q132.67 14.38 131.90 14.86Q131.14 15.34 130.70 16.19Q130.27 17.04 130.27 18.17L130.27 18.17Q130.27 19.27 130.70 20.12Q131.14 20.98 131.90 21.46Q132.67 21.94 133.68 21.94ZM149.78 11.90L150.22 11.90L150.22 14.78L149.57 14.78Q148.44 14.78 147.62 15.23Q146.81 15.67 146.34 16.61Q145.87 17.54 145.87 19.03L145.87 19.03L145.87 24.19L142.70 24.19L142.70 12.12L145.85 12.12L145.85 16.03L145.46 16.03Q145.68 14.42 146.36 13.54Q147.05 12.65 147.97 12.28Q148.90 11.90 149.78 11.90L149.78 11.90ZM163.25 24.19L157.25 24.19L157.25 7.03L163.25 7.03Q166.01 7.03 168.08 8.12Q170.16 9.22 171.32 11.15Q172.49 13.08 172.49 15.60L172.49 15.60Q172.49 18.12 171.32 20.05Q170.16 21.98 168.08 23.09Q166.01 24.19 163.25 24.19L163.25 24.19ZM160.49 9.79L160.49 21.43L163.25 21.43Q165.05 21.43 166.36 20.71Q167.66 19.99 168.37 18.68Q169.08 17.38 169.08 15.60L169.08 15.60Q169.08 13.82 168.37 12.52Q167.66 11.21 166.36 10.50Q165.05 9.79 163.25 9.79L163.25 9.79L160.49 9.79ZM178.22 12.12L178.22 24.19L175.06 24.19L175.06 12.12L178.22 12.12ZM176.64 10.03L176.64 10.03Q175.85 10.03 175.28 9.49Q174.72 8.95 174.72 8.18L174.72 8.18Q174.72 7.37 175.28 6.84Q175.85 6.31 176.64 6.31L176.64 6.31Q177.46 6.31 178.01 6.85Q178.56 7.39 178.56 8.18L178.56 8.18Q178.56 8.95 178.01 9.49Q177.46 10.03 176.64 10.03ZM180.19 22.39L180.19 22.39L181.92 20.42Q182.74 21.24 183.88 21.72Q185.02 22.20 186.22 22.20L186.22 22.20Q187.32 22.20 187.98 21.79Q188.64 21.38 188.64 20.78L188.64 20.78Q188.64 20.16 188.05 19.86Q187.46 19.56 185.88 19.34L185.88 19.34Q183.24 18.96 182.02 18.11Q180.79 17.26 180.79 15.74L180.79 15.74Q180.79 14.54 181.46 13.64Q182.14 12.74 183.34 12.24Q184.54 11.74 186.05 11.74L186.05 11.74Q187.85 11.74 189.23 12.31Q190.61 12.89 191.59 13.82L191.59 13.82L189.86 15.79Q189.12 15.02 188.15 14.57Q187.18 14.11 186.07 14.11L186.07 14.11Q185.04 14.11 184.43 14.50Q183.82 14.88 183.82 15.46L183.82 15.46Q183.82 15.96 184.42 16.22Q185.02 16.49 186.53 16.68L186.53 16.68Q189.12 17.06 190.42 17.95Q191.71 18.84 191.71 20.52L191.71 20.52Q191.71 21.74 190.99 22.67Q190.27 23.59 189.01 24.08Q187.75 24.58 186.07 24.58L186.07 24.58Q184.27 24.58 182.76 23.98Q181.25 23.38 180.19 22.39ZM197.18 18.24L197.18 28.85L194.02 28.85L194.02 12.12L197.16 12.12L197.16 15.86L196.49 15.86Q196.66 14.69 197.29 13.75Q197.93 12.82 198.96 12.28Q199.99 11.74 201.31 11.74L201.31 11.74Q202.97 11.74 204.34 12.55Q205.70 13.37 206.51 14.81Q207.31 16.25 207.31 18.17L207.31 18.17Q207.31 20.06 206.50 21.50Q205.68 22.94 204.31 23.76Q202.94 24.58 201.24 24.58L201.24 24.58Q199.68 24.58 198.55 23.90Q197.42 23.23 196.85 22.09Q196.27 20.95 196.34 19.58L196.34 19.58L197.02 19.15Q197.14 19.97 197.62 20.60Q198.10 21.24 198.85 21.59Q199.61 21.94 200.50 21.94L200.50 21.94Q201.55 21.94 202.34 21.46Q203.14 20.98 203.58 20.11Q204.02 19.25 204.02 18.17L204.02 18.17Q204.02 17.04 203.60 16.19Q203.18 15.34 202.43 14.86Q201.67 14.38 200.64 14.38L200.64 14.38Q199.63 14.38 198.85 14.86Q198.07 15.34 197.63 16.19Q197.18 17.04 197.18 18.24L197.18 18.24ZM212.81 6.91L212.81 24.19L209.64 24.19L209.64 6.91L212.81 6.91ZM226.78 16.78L226.78 24.19L223.90 24.19L223.90 21.77L223.75 21.38L223.75 16.85Q223.75 15.58 222.94 14.88Q222.12 14.18 220.70 14.18L220.70 14.18Q219.67 14.18 218.77 14.58Q217.87 14.98 217.20 15.70L217.20 15.70L215.54 13.78Q216.50 12.82 217.87 12.28Q219.24 11.74 220.85 11.74L220.85 11.74Q222.60 11.74 223.94 12.34Q225.29 12.94 226.03 14.05Q226.78 15.17 226.78 16.78L226.78 16.78ZM219.79 24.58L219.79 24.58Q218.40 24.58 217.34 24.07Q216.29 23.57 215.70 22.68Q215.11 21.79 215.11 20.62L215.11 20.62Q215.11 19.37 215.83 18.49Q216.55 17.62 217.88 17.14Q219.22 16.66 220.97 16.66L220.97 16.66L224.06 16.66L224.06 18.72L221.21 18.72Q219.91 18.72 219.12 19.18Q218.33 19.63 218.33 20.50L218.33 20.50Q218.33 21.29 218.94 21.74Q219.55 22.20 220.54 22.20L220.54 22.20Q221.47 22.20 222.24 21.80Q223.01 21.41 223.49 20.71Q223.97 20.02 224.04 19.13L224.04 19.13L224.95 19.56Q224.95 21.05 224.30 22.18Q223.66 23.30 222.49 23.94Q221.33 24.58 219.79 24.58ZM234.60 22.42L238.58 12.12L241.78 12.12L236.04 25.58Q235.34 27.19 234.29 28.02Q233.23 28.85 231.48 28.85L231.48 28.85L229.92 28.85L229.92 26.26L231.31 26.26Q232.03 26.26 232.52 25.93Q233.02 25.61 233.30 24.91L233.30 24.91L233.57 24.22L228.41 12.12L231.70 12.12L235.63 22.42L234.60 22.42ZM247.97 7.03L260.23 7.03L260.23 9.65L252.12 24.19L248.64 24.19L256.92 9.65L247.97 9.65L247.97 7.03ZM269.18 24.58L269.18 24.58Q267.05 24.58 265.51 23.52Q263.98 22.46 263.16 20.46Q262.34 18.46 262.34 15.62L262.34 15.62Q262.34 11.35 264.17 9Q265.99 6.65 269.18 6.65L269.18 6.65Q272.40 6.65 274.21 9Q276.02 11.35 276.02 15.62L276.02 15.62Q276.02 18.46 275.21 20.46Q274.39 22.46 272.87 23.52Q271.34 24.58 269.18 24.58ZM269.18 21.94L269.18 21.94Q270.89 21.94 271.82 20.34Q272.76 18.74 272.76 15.62L272.76 15.62Q272.76 12.48 271.82 10.88Q270.89 9.29 269.18 9.29L269.18 9.29Q267.50 9.29 266.57 10.88Q265.63 12.48 265.63 15.62L265.63 15.62Q265.63 18.74 266.57 20.34Q267.50 21.94 269.18 21.94ZM284.90 24.58L284.90 24.58Q282.77 24.58 281.23 23.52Q279.70 22.46 278.88 20.46Q278.06 18.46 278.06 15.62L278.06 15.62Q278.06 11.35 279.89 9Q281.71 6.65 284.90 6.65L284.90 6.65Q288.12 6.65 289.93 9Q291.74 11.35 291.74 15.62L291.74 15.62Q291.74 18.46 290.93 20.46Q290.11 22.46 288.59 23.52Q287.06 24.58 284.90 24.58ZM284.90 21.94L284.90 21.94Q286.61 21.94 287.54 20.34Q288.48 18.74 288.48 15.62L288.48 15.62Q288.48 12.48 287.54 10.88Q286.61 9.29 284.90 9.29L284.90 9.29Q283.22 9.29 282.29 10.88Q281.35 12.48 281.35 15.62L281.35 15.62Q281.35 18.74 282.29 20.34Q283.22 21.94 284.90 21.94ZM310.61 16.90L310.61 24.19L307.44 24.19L307.44 17.21Q307.44 15.79 306.79 15.08Q306.14 14.38 305.04 14.38L305.04 14.38Q304.27 14.38 303.58 14.78Q302.88 15.19 302.45 16.06Q302.02 16.92 302.02 18.34L302.02 18.34L302.02 24.19L298.85 24.19L298.85 12.12L301.99 12.12L301.99 15.86L301.61 15.86Q301.82 14.26 302.51 13.36Q303.19 12.46 304.12 12.10Q305.04 11.74 305.95 11.74L305.95 11.74Q308.11 11.74 309.36 13.06Q310.61 14.38 310.61 16.90L310.61 16.90ZM319.49 24.58L319.49 24.58Q317.52 24.58 316.01 23.75Q314.50 22.92 313.66 21.47Q312.82 20.02 312.82 18.17L312.82 18.17Q312.82 16.27 313.66 14.83Q314.50 13.39 316.01 12.56Q317.52 11.74 319.49 11.74L319.49 11.74Q321.46 11.74 322.97 12.56Q324.48 13.39 325.32 14.83Q326.16 16.27 326.16 18.14L326.16 18.14Q326.16 20.02 325.32 21.47Q324.48 22.92 322.97 23.75Q321.46 24.58 319.49 24.58ZM319.49 21.94L319.49 21.94Q320.50 21.94 321.26 21.46Q322.03 20.98 322.46 20.12Q322.90 19.27 322.90 18.17L322.90 18.17Q322.90 17.04 322.46 16.19Q322.03 15.34 321.26 14.86Q320.50 14.38 319.49 14.38L319.49 14.38Q318.48 14.38 317.71 14.86Q316.94 15.34 316.51 16.19Q316.08 17.04 316.08 18.17L316.08 18.17Q316.08 19.27 316.51 20.12Q316.94 20.98 317.71 21.46Q318.48 21.94 319.49 21.94ZM335.59 11.90L336.02 11.90L336.02 14.78L335.38 14.78Q334.25 14.78 333.43 15.23Q332.62 15.67 332.15 16.61Q331.68 17.54 331.68 19.03L331.68 19.03L331.68 24.19L328.51 24.19L328.51 12.12L331.66 12.12L331.66 16.03L331.27 16.03Q331.49 14.42 332.17 13.54Q332.86 12.65 333.78 12.28Q334.70 11.90 335.59 11.90L335.59 11.90ZM357.43 16.90L357.43 24.19L354.26 24.19L354.26 17.14Q354.26 15.74 353.69 15.06Q353.11 14.38 352.13 14.38L352.13 14.38Q351.41 14.38 350.77 14.77Q350.14 15.17 349.74 16.02Q349.34 16.87 349.34 18.24L349.34 18.24L349.34 24.19L346.18 24.19L346.18 17.14Q346.18 15.74 345.60 15.06Q345.02 14.38 344.02 14.38L344.02 14.38Q343.30 14.38 342.66 14.77Q342.02 15.17 341.63 16.02Q341.23 16.87 341.23 18.24L341.23 18.24L341.23 24.19L338.06 24.19L338.06 12.12L341.21 12.12L341.21 14.76L341.04 14.74Q341.38 13.56 342.01 12.92Q342.65 12.29 343.43 12.01Q344.21 11.74 344.98 11.74L344.98 11.74Q346.49 11.74 347.51 12.55Q348.53 13.37 348.86 14.98L348.86 14.98L348.55 15Q348.91 13.75 349.62 13.04Q350.33 12.34 351.22 12.04Q352.10 11.74 352.97 11.74L352.97 11.74Q355.08 11.74 356.26 13.06Q357.43 14.38 357.43 16.90L357.43 16.90ZM371.26 16.78L371.26 24.19L368.38 24.19L368.38 21.77L368.23 21.38L368.23 16.85Q368.23 15.58 367.42 14.88Q366.60 14.18 365.18 14.18L365.18 14.18Q364.15 14.18 363.25 14.58Q362.35 14.98 361.68 15.70L361.68 15.70L360.02 13.78Q360.98 12.82 362.35 12.28Q363.72 11.74 365.33 11.74L365.33 11.74Q367.08 11.74 368.42 12.34Q369.77 12.94 370.51 14.05Q371.26 15.17 371.26 16.78L371.26 16.78ZM364.27 24.58L364.27 24.58Q362.88 24.58 361.82 24.07Q360.77 23.57 360.18 22.68Q359.59 21.79 359.59 20.62L359.59 20.62Q359.59 19.37 360.31 18.49Q361.03 17.62 362.36 17.14Q363.70 16.66 365.45 16.66L365.45 16.66L368.54 16.66L368.54 18.72L365.69 18.72Q364.39 18.72 363.60 19.18Q362.81 19.63 362.81 20.50L362.81 20.50Q362.81 21.29 363.42 21.74Q364.03 22.20 365.02 22.20L365.02 22.20Q365.95 22.20 366.72 21.80Q367.49 21.41 367.97 20.71Q368.45 20.02 368.52 19.13L368.52 19.13L369.43 19.56Q369.43 21.05 368.78 22.18Q368.14 23.30 366.97 23.94Q365.81 24.58 364.27 24.58ZM377.04 6.91L377.04 24.19L373.87 24.19L373.87 6.91L377.04 6.91Z"/></svg>