<svg xmlns="http://www.w3.org/2000/svg" xmlns:xlink="http://www.w3.org/1999/xlink" width="309.94921875" height="30.46875"><path fill="black" d="M15.32 7.24L15.32 7.24Q15.79 6.69 15.81 5.98L15.81 5.98L16.77 5.98L16.77 10.89L15.77 10.89Q15.43 8.94 13.92 7.83Q12.40 6.71 10.62 6.71L10.62 6.71Q4.69 6.71 4.73 15L4.73 15Q4.77 18.29 6.05 20.47L6.05 20.47Q7.52 22.99 10.34 22.99L10.34 22.99Q12.48 22.99 13.96 22.24Q15.45 21.48 16.29 20.19L16.29 20.19L16.90 20.75Q16.45 21.82 15.05 22.79L15.05 22.79Q13.11 24.14 10.20 24.14L10.20 24.14Q6.05 24.14 3.59 21.56Q1.13 18.97 1.13 14.98Q1.13 10.98 3.58 8.36Q6.04 5.74 10.41 5.74L10.41 5.74Q12.77 5.74 14.53 6.70L14.53 6.70Q15.02 6.97 15.32 7.24ZM26.94 22.58L26.94 22.58Q25.58 24.14 23.30 24.14L23.30 24.14Q21.56 24.14 20.31 23.17Q19.05 22.21 19.05 20.64Q19.05 19.08 20.29 18.18Q21.52 17.29 23.46 17.29Q25.39 17.29 26.70 18.26L26.70 18.26L26.70 15.47Q26.70 14.05 26.34 13.55Q25.99 13.04 25.52 12.84Q25.04 12.64 24.47 12.64L24.47 12.64Q23.57 12.64 22.95 12.85Q22.32 13.05 22.11 13.27L22.11 13.27Q22.65 13.43 22.95 14.09L22.95 14.09Q23.04 14.32 23.04 14.65L23.04 14.65Q23.04 15.29 22.57 15.72Q22.10 16.15 21.63 16.15L21.63 16.15Q20.81 16.15 20.36 15.71Q19.90 15.28 19.90 14.67Q19.90 14.06 20.12 13.67Q20.34 13.28 20.72 12.96L20.72 12.96Q21.43 12.36 22.52 12.05Q23.60 11.73 24.55 11.73L24.55 11.73Q27.19 11.73 28.45 12.80Q29.72 13.86 29.72 15.77L29.72 15.77L29.72 22.02Q29.72 22.99 30.20 22.99Q30.68 22.99 31.13 22.41L31.13 22.41L31.73 22.91Q30.94 24.12 29.13 24.12L29.13 24.12Q28.50 24.12 27.85 23.72Q27.20 23.32 26.94 22.58ZM26.73 21.64L26.73 19.30Q25.73 18.33 24.55 18.33Q23.37 18.33 22.77 18.88Q22.17 19.44 22.17 20.67L22.17 20.67Q22.17 22.49 23.45 22.88L23.45 22.88Q23.81 22.99 24.19 22.99L24.19 22.99Q25.25 22.99 26.23 22.17L26.23 22.17Q26.51 21.93 26.73 21.64L26.73 21.64ZM41.05 12.83L41.05 12.83Q39.14 12.83 37.59 14.60L37.59 14.60L37.59 22.99L39.73 22.99L39.73 23.91L32.65 23.91L32.65 22.99L34.55 22.99L34.55 12.83L32.64 12.83L32.64 11.92L37.59 11.92L37.59 13.42Q39.35 11.72 41.61 11.72L41.61 11.72Q43.17 11.72 44.38 12.52L44.38 12.52Q45.94 13.55 45.94 15.80L45.94 15.80L45.94 22.99L47.84 22.99L47.84 23.91L40.76 23.91L40.76 22.99L42.89 22.99L42.89 15.56Q42.89 14.19 42.60 13.70Q42.32 13.21 41.96 13.02Q41.60 12.83 41.05 12.83ZM54.25 24.14L54.25 24.14Q50.06 24.14 50.06 20.25L50.06 20.25L50.06 12.83L48.64 12.83L48.64 11.92L50.06 11.92L50.06 8.33Q51.13 8.33 52.66 7.78L52.66 7.78Q53.02 7.65 53.17 7.56L53.17 7.56L53.17 11.92L57.02 11.92L57.02 12.83L53.17 12.83L53.17 21.09Q53.17 22.17 53.62 22.65Q54.07 23.12 54.82 23.12L54.82 23.12Q55.99 23.12 56.93 22.08L56.93 22.08L57.55 22.63Q56.71 23.67 55.25 24.02L55.25 24.02Q54.77 24.14 54.25 24.14ZM66.94 22.58L66.94 22.58Q65.58 24.14 63.29 24.14L63.29 24.14Q61.56 24.14 60.30 23.17Q59.05 22.21 59.05 20.64Q59.05 19.08 60.28 18.18Q61.51 17.29 63.45 17.29Q65.39 17.29 66.69 18.26L66.69 18.26L66.69 15.47Q66.69 14.05 66.34 13.55Q65.99 13.04 65.51 12.84Q65.04 12.64 64.46 12.64L64.46 12.64Q63.56 12.64 62.94 12.85Q62.32 13.05 62.11 13.27L62.11 13.27Q62.65 13.43 62.94 14.09L62.94 14.09Q63.04 14.32 63.04 14.65L63.04 14.65Q63.04 15.29 62.57 15.72Q62.10 16.15 61.63 16.15L61.63 16.15Q60.81 16.15 60.35 15.71Q59.89 15.28 59.89 14.67Q59.89 14.06 60.12 13.67Q60.34 13.28 60.71 12.96L60.71 12.96Q61.43 12.36 62.51 12.05Q63.60 11.73 64.55 11.73L64.55 11.73Q67.18 11.73 68.45 12.80Q69.71 13.86 69.71 15.77L69.71 15.77L69.71 22.02Q69.71 22.99 70.20 22.99Q70.68 22.99 71.12 22.41L71.12 22.41L71.73 22.91Q70.93 24.12 69.13 24.12L69.13 24.12Q68.50 24.12 67.85 23.72Q67.20 23.32 66.94 22.58ZM66.73 21.64L66.73 19.30Q65.73 18.33 64.55 18.33Q63.36 18.33 62.77 18.88Q62.17 19.44 62.17 20.67L62.17 20.67Q62.17 22.49 63.45 22.88L63.45 22.88Q63.81 22.99 64.18 22.99L64.18 22.99Q65.25 22.99 66.22 22.17L66.22 22.17Q66.50 21.93 66.73 21.64L66.73 21.64ZM78.25 24.14L78.25 24.14Q74.06 24.14 74.06 20.25L74.06 20.25L74.06 12.83L72.64 12.83L72.64 11.92L74.06 11.92L74.06 8.33Q75.13 8.33 76.66 7.78L76.66 7.78Q77.02 7.65 77.17 7.56L77.17 7.56L77.17 11.92L81.02 11.92L81.02 12.83L77.17 12.83L77.17 21.09Q77.17 22.17 77.62 22.65Q78.07 23.12 78.82 23.12L78.82 23.12Q79.99 23.12 80.93 22.08L80.93 22.08L81.55 22.63Q80.71 23.67 79.25 24.02L79.25 24.02Q78.77 24.14 78.25 24.14ZM90.94 22.58L90.94 22.58Q89.58 24.14 87.29 24.14L87.29 24.14Q85.56 24.14 84.30 23.17Q83.05 22.21 83.05 20.64Q83.05 19.08 84.28 18.18Q85.51 17.29 87.45 17.29Q89.39 17.29 90.69 18.26L90.69 18.26L90.69 15.47Q90.69 14.05 90.34 13.55Q89.99 13.04 89.51 12.84Q89.04 12.64 88.46 12.64L88.46 12.64Q87.56 12.64 86.94 12.85Q86.32 13.05 86.11 13.27L86.11 13.27Q86.65 13.43 86.94 14.09L86.94 14.09Q87.04 14.32 87.04 14.65L87.04 14.65Q87.04 15.29 86.57 15.72Q86.10 16.15 85.63 16.15L85.63 16.15Q84.81 16.15 84.35 15.71Q83.89 15.28 83.89 14.67Q83.89 14.06 84.12 13.67Q84.34 13.28 84.71 12.96L84.71 12.96Q85.43 12.36 86.51 12.05Q87.60 11.73 88.55 11.73L88.55 11.73Q91.18 11.73 92.45 12.80Q93.71 13.86 93.71 15.77L93.71 15.77L93.71 22.02Q93.71 22.99 94.20 22.99Q94.68 22.99 95.12 22.41L95.12 22.41L95.73 22.91Q94.93 24.12 93.13 24.12L93.13 24.12Q92.50 24.12 91.85 23.72Q91.20 23.32 90.94 22.58ZM90.73 21.64L90.73 19.30Q89.73 18.33 88.55 18.33Q87.36 18.33 86.77 18.88Q86.17 19.44 86.17 20.67L86.17 20.67Q86.17 22.49 87.45 22.88L87.45 22.88Q87.81 22.99 88.18 22.99L88.18 22.99Q89.25 22.99 90.22 22.17L90.22 22.17Q90.50 21.93 90.73 21.64L90.73 21.64ZM106.11 19.46Q105.62 18.43 105.37 17.28Q105.12 16.13 105.12 14.95Q105.12 13.77 105.37 12.64Q105.62 11.51 106.11 10.49L106.11 10.49Q107.14 8.34 109.15 7.04Q111.16 5.74 113.99 5.74L113.99 5.74Q118.28 5.74 120.70 8.60L120.70 8.60Q122.87 11.18 122.87 14.98Q122.87 18.77 120.68 21.35L120.68 21.35Q119.18 23.11 116.73 23.79L116.73 23.79Q115.49 24.14 114.01 24.14Q112.52 24.14 111.29 23.79Q110.06 23.45 109.08 22.83Q108.09 22.21 107.35 21.35Q106.61 20.48 106.11 19.46ZM118.22 20.44L118.22 20.44Q118.66 19.63 119.08 18.27Q119.50 16.91 119.50 15.42Q119.50 13.92 119.36 12.92Q119.23 11.92 118.95 11.02L118.95 11.02Q118.32 9.07 117.09 7.89Q115.85 6.71 113.99 6.71L113.99 6.71Q111.08 6.71 109.66 9.32L109.66 9.32Q108.46 11.55 108.50 14.88Q108.54 18.20 109.71 20.44L109.71 20.44Q111.16 23.17 113.94 23.17Q116.72 23.17 118.22 20.44ZM133.09 12.83L133.09 12.83Q131.18 12.83 129.63 14.60L129.63 14.60L129.63 22.99L131.77 22.99L131.77 23.91L124.69 23.91L124.69 22.99L126.59 22.99L126.59 12.83L124.68 12.83L124.68 11.92L129.63 11.92L129.63 13.42Q131.39 11.72 133.65 11.72L133.65 11.72Q135.21 11.72 136.42 12.52L136.42 12.52Q137.98 13.55 137.98 15.80L137.98 15.80L137.98 22.99L139.88 22.99L139.88 23.91L132.80 23.91L132.80 22.99L134.93 22.99L134.93 15.56Q134.93 14.19 134.64 13.70Q134.36 13.21 134.00 13.02Q133.64 12.83 133.09 12.83ZM151.96 21.29L152.58 21.86Q150.74 24.14 147.34 24.14L147.34 24.14Q146.21 24.14 145.00 23.67Q143.78 23.19 142.92 22.36L142.92 22.36Q141.15 20.60 141.15 17.88Q141.15 15.15 142.93 13.44Q144.71 11.73 147.46 11.73L147.46 11.73Q151.49 11.73 152.53 15.11L152.53 15.11Q152.87 16.18 152.87 17.53L152.87 17.53L144.39 17.53L144.39 17.88Q144.39 21.50 146.44 22.64L146.44 22.64Q147.13 23.03 148.09 23.03L148.09 23.03Q150.22 23.03 151.96 21.29L151.96 21.29ZM144.45 16.57L149.72 16.57Q149.70 14.70 149.14 13.71Q148.59 12.71 147.34 12.71L147.34 12.71Q144.80 12.71 144.45 16.57L144.45 16.57ZM162.47 19.23L162.47 18.45L171.56 5.98L173.75 5.98L173.75 18.22L177.43 18.22L177.41 19.23L173.75 19.23L173.75 22.99L176.44 22.99L176.44 23.91L167.50 23.91L167.50 22.99L170.64 22.99L170.64 19.23L162.47 19.23ZM164.07 18.22L170.64 18.22L170.64 9.06L164.07 18.22ZM192.26 21.64Q191.29 22.84 189.94 23.49Q188.59 24.14 187.03 24.14L187.03 24.14Q183.89 24.14 181.78 21.60Q179.67 19.07 179.67 14.99L179.67 14.99Q179.67 10.91 181.79 8.33Q183.90 5.74 187.01 5.74L187.01 5.74Q188.58 5.74 189.93 6.41Q191.27 7.08 192.26 8.30L192.26 8.30Q194.36 10.88 194.36 14.98Q194.36 19.09 192.26 21.64L192.26 21.64ZM187.01 23.17L187.01 23.17Q190.41 23.17 190.82 17.16L190.82 17.16Q190.89 16.11 190.89 14.65L190.89 14.65Q190.89 10.98 190.13 9.05L190.13 9.05Q189.21 6.71 187.01 6.71L187.01 6.71Q183.83 6.71 183.30 11.67L183.30 11.67Q183.15 13.18 183.15 14.65Q183.15 16.11 183.22 17.16Q183.29 18.20 183.46 19.10L183.46 19.10Q183.81 21.05 184.66 22.11Q185.51 23.17 187.01 23.17ZM210.27 21.64Q209.30 22.84 207.95 23.49Q206.60 24.14 205.04 24.14L205.04 24.14Q201.90 24.14 199.79 21.60Q197.68 19.07 197.68 14.99L197.68 14.99Q197.68 10.91 199.80 8.33Q201.91 5.74 205.02 5.74L205.02 5.74Q206.59 5.74 207.94 6.41Q209.29 7.08 210.27 8.30L210.27 8.30Q212.37 10.88 212.37 14.98Q212.37 19.09 210.27 21.64L210.27 21.64ZM205.02 23.17L205.02 23.17Q208.42 23.17 208.83 17.16L208.83 17.16Q208.90 16.11 208.90 14.65L208.90 14.65Q208.90 10.98 208.14 9.05L208.14 9.05Q207.22 6.71 205.02 6.71L205.02 6.71Q201.84 6.71 201.32 11.67L201.32 11.67Q201.16 13.18 201.16 14.65Q201.16 16.11 201.23 17.16Q201.30 18.20 201.47 19.10L201.47 19.10Q201.82 21.05 202.67 22.11Q203.52 23.17 205.02 23.17ZM231.09 12.83L231.09 12.83Q229.18 12.83 227.64 14.60L227.64 14.60L227.64 22.99L229.77 22.99L229.77 23.91L222.69 23.91L222.69 22.99L224.59 22.99L224.59 12.83L222.68 12.83L222.68 11.92L227.64 11.92L227.64 13.42Q229.39 11.72 231.66 11.72L231.66 11.72Q233.21 11.72 234.42 12.52L234.42 12.52Q235.98 13.55 235.98 15.80L235.98 15.80L235.98 22.99L237.88 22.99L237.88 23.91L230.80 23.91L230.80 22.99L232.93 22.99L232.93 15.56Q232.93 14.19 232.65 13.70Q232.36 13.21 232.00 13.02Q231.64 12.83 231.09 12.83ZM238.86 17.91Q238.86 15.14 240.62 13.43Q242.38 11.72 245.04 11.72Q247.71 11.72 249.44 13.42Q251.17 15.13 251.17 17.90Q251.17 20.67 249.45 22.41Q247.73 24.14 245.05 24.14Q242.37 24.14 240.62 22.41Q238.86 20.67 238.86 17.91ZM245.02 23.17L245.02 23.17Q247.38 23.17 247.79 19.95L247.79 19.95Q247.91 18.98 247.91 17.88L247.91 17.88Q247.91 15.41 247.35 14.18L247.35 14.18Q246.66 12.70 245.02 12.70L245.02 12.70Q242.65 12.70 242.24 15.82L242.24 15.82Q242.12 16.77 242.12 17.88L242.12 17.88Q242.12 20.37 242.68 21.63L242.68 21.63Q243.39 23.17 245.02 23.17ZM257.85 11.92L257.85 13.54Q259.73 11.72 261.93 11.72L261.93 11.72Q262.63 11.72 263.17 12.19Q263.71 12.66 263.71 13.39Q263.71 14.12 263.25 14.58Q262.79 15.04 262.14 15.04L262.14 15.04Q261.48 15.04 261.03 14.58Q260.58 14.13 260.58 13.46L260.58 13.46Q260.58 13.20 260.67 12.91L260.67 12.91Q258.97 13.43 257.85 14.66L257.85 14.66L257.85 23.00L260.41 23.00L260.41 23.91L253.03 23.91L253.03 23.00L254.78 23.00L254.78 12.83L253.02 12.83L253.02 11.92L257.85 11.92ZM272.82 12.84L272.82 12.84Q271.02 12.84 269.66 14.45L269.66 14.45L269.66 22.99L271.57 22.99L271.57 23.91L264.71 23.91L264.71 22.99L266.61 22.99L266.61 12.81L264.70 12.81L264.70 11.92L269.66 11.92L269.66 13.25Q271.34 11.72 273.29 11.72Q275.24 11.72 276.47 12.79L276.47 12.79Q276.91 13.17 277.21 13.75L277.21 13.75Q279.06 11.72 281.41 11.72L281.41 11.72Q282.97 11.72 284.19 12.52L284.19 12.52Q285.74 13.55 285.74 15.80L285.74 15.80L285.74 22.99L287.65 22.99L287.65 23.91L280.68 23.91L280.68 22.99L282.69 22.99L282.69 15.45Q282.69 14.17 282.39 13.69Q282.08 13.21 281.72 13.03Q281.37 12.84 280.84 12.84L280.84 12.84Q279.82 12.84 278.96 13.36Q278.11 13.88 277.55 14.73L277.55 14.73Q277.63 15.22 277.63 15.63L277.63 15.63L277.63 22.99L279.54 22.99L279.54 23.91L272.68 23.91L272.68 22.99L274.58 22.99L274.58 15.36Q274.58 14.13 274.31 13.67Q274.04 13.21 273.70 13.03Q273.35 12.84 272.82 12.84ZM296.91 22.58L296.91 22.58Q295.55 24.14 293.26 24.14L293.26 24.14Q291.53 24.14 290.27 23.17Q289.02 22.21 289.02 20.64Q289.02 19.08 290.25 18.18Q291.48 17.29 293.42 17.29Q295.36 17.29 296.66 18.26L296.66 18.26L296.66 15.47Q296.66 14.05 296.31 13.55Q295.96 13.04 295.48 12.84Q295.01 12.64 294.43 12.64L294.43 12.64Q293.53 12.64 292.91 12.85Q292.29 13.05 292.08 13.27L292.08 13.27Q292.62 13.43 292.91 14.09L292.91 14.09Q293.00 14.32 293.00 14.65L293.00 14.65Q293.00 15.29 292.54 15.72Q292.07 16.15 291.60 16.15L291.60 16.15Q290.78 16.15 290.32 15.71Q289.86 15.28 289.86 14.67Q289.86 14.06 290.09 13.67Q290.31 13.28 290.68 12.96L290.68 12.96Q291.40 12.36 292.48 12.05Q293.57 11.73 294.52 11.73L294.52 11.73Q297.15 11.73 298.42 12.80Q299.68 13.86 299.68 15.77L299.68 15.77L299.68 22.02Q299.68 22.99 300.16 22.99Q300.64 22.99 301.09 22.41L301.09 22.41L301.70 22.91Q300.90 24.12 299.10 24.12L299.10 24.12Q298.46 24.12 297.81 23.72Q297.16 23.32 296.91 22.58ZM296.70 21.64L296.70 19.30Q295.70 18.33 294.52 18.33Q293.33 18.33 292.73 18.88Q292.14 19.44 292.14 20.67L292.14 20.67Q292.14 22.49 293.41 22.88L293.41 22.88Q293.78 22.99 294.15 22.99L294.15 22.99Q295.22 22.99 296.19 22.17L296.19 22.17Q296.47 21.93 296.70 21.64L296.70 21.64ZM302.65 23.91L302.65 22.99L304.48 22.99L304.48 5.10L302.57 5.10L302.57 4.17L307.58 4.17L307.58 22.99L309.55 22.99L309.55 23.91L302.65 23.91Z"/></svg>