<svg xmlns="http://www.w3.org/2000/svg" xmlns:xlink="http://www.w3.org/1999/xlink" width="79.67999999999999" height="31.056"><path fill="black" d="M2.04 24.43L2.04 7.80Q2.95 7.58 4.01 7.51Q5.06 7.44 6.10 7.44L6.10 7.44Q7.20 7.44 8.34 7.66Q9.48 7.87 10.42 8.45Q11.35 9.02 11.94 10.03Q12.53 11.04 12.53 12.60L12.53 12.60Q12.53 14.14 11.98 15.19Q11.42 16.25 10.51 16.91Q9.60 17.57 8.42 17.86Q7.25 18.14 6 18.14L6 18.14Q5.88 18.14 5.60 18.14Q5.33 18.14 5.03 18.13Q4.73 18.12 4.44 18.10Q4.15 18.07 4.03 18.05L4.03 18.05L4.03 24.43L2.04 24.43ZM6.14 9.17L6.14 9.17Q5.52 9.17 4.94 9.19Q4.37 9.22 4.03 9.31L4.03 9.31L4.03 16.27Q4.15 16.32 4.42 16.33Q4.68 16.34 4.97 16.36Q5.26 16.37 5.52 16.37Q5.78 16.37 5.90 16.37L5.90 16.37Q6.72 16.37 7.52 16.21Q8.33 16.06 8.98 15.65Q9.62 15.24 10.02 14.50Q10.42 13.75 10.42 12.60L10.42 12.60Q10.42 11.62 10.04 10.96Q9.67 10.30 9.06 9.90Q8.45 9.50 7.68 9.34Q6.91 9.17 6.14 9.17ZM25.92 7.63L25.92 9.41L20.69 9.41L20.69 24.43L18.70 24.43L18.70 9.41L13.46 9.41L13.46 7.63L25.92 7.63ZM41.42 20.16L41.42 20.16Q41.42 19.15 40.82 18.52Q40.22 17.88 39.32 17.39Q38.42 16.90 37.37 16.46Q36.31 16.03 35.41 15.42Q34.51 14.81 33.91 13.91Q33.31 13.01 33.31 11.62L33.31 11.62Q33.31 9.65 34.68 8.50Q36.05 7.34 38.57 7.34L38.57 7.34Q40.03 7.34 41.23 7.56Q42.43 7.78 43.10 8.11L43.10 8.11L42.50 9.86Q41.95 9.60 40.88 9.36Q39.82 9.12 38.47 9.12L38.47 9.12Q36.89 9.12 36.10 9.83Q35.30 10.54 35.30 11.50L35.30 11.50Q35.30 12.43 35.90 13.06Q36.50 13.68 37.40 14.17Q38.30 14.66 39.36 15.14Q40.42 15.62 41.32 16.26Q42.22 16.90 42.82 17.78Q43.42 18.67 43.42 19.99L43.42 19.99Q43.42 21.07 43.03 21.94Q42.65 22.80 41.90 23.42Q41.16 24.05 40.10 24.38Q39.05 24.72 37.70 24.72L37.70 24.72Q35.90 24.72 34.73 24.44Q33.55 24.17 32.90 23.83L32.90 23.83L33.58 22.03Q34.13 22.34 35.21 22.64Q36.29 22.94 37.63 22.94L37.63 22.94Q38.42 22.94 39.12 22.79Q39.82 22.63 40.32 22.28Q40.82 21.94 41.12 21.41Q41.42 20.88 41.42 20.16ZM46.80 14.76L46.20 13.32Q47.11 12.77 48.32 12.50Q49.54 12.24 50.86 12.24L50.86 12.24Q52.10 12.24 52.86 12.58Q53.62 12.91 54.01 13.45Q54.41 13.99 54.54 14.64Q54.67 15.29 54.67 15.94L54.67 15.94Q54.67 17.38 54.60 18.74Q54.53 20.11 54.53 21.34L54.53 21.34Q54.53 22.22 54.60 23.02Q54.67 23.81 54.86 24.48L54.86 24.48L53.45 24.48L52.94 22.80L52.82 22.80Q52.61 23.14 52.28 23.46Q51.96 23.78 51.50 24.04Q51.05 24.29 50.45 24.46Q49.85 24.62 49.08 24.62L49.08 24.62Q48.31 24.62 47.65 24.38Q46.99 24.14 46.51 23.70Q46.03 23.26 45.76 22.63Q45.48 22.01 45.48 21.22L45.48 21.22Q45.48 20.16 45.91 19.45Q46.34 18.74 47.12 18.32Q47.90 17.90 49.00 17.72Q50.09 17.54 51.41 17.54L51.41 17.54Q51.74 17.54 52.07 17.54Q52.39 17.54 52.73 17.59L52.73 17.59Q52.80 16.87 52.80 16.30L52.80 16.30Q52.80 14.98 52.27 14.45Q51.74 13.92 50.35 13.92L50.35 13.92Q49.94 13.92 49.48 13.98Q49.01 14.04 48.52 14.15Q48.02 14.26 47.58 14.41Q47.14 14.57 46.80 14.76L46.80 14.76ZM49.61 22.94L49.61 22.94Q50.28 22.94 50.81 22.76Q51.34 22.58 51.72 22.31Q52.10 22.03 52.36 21.70Q52.61 21.36 52.73 21.05L52.73 21.05L52.73 19.06Q52.39 19.03 52.04 19.02Q51.70 19.01 51.36 19.01L51.36 19.01Q50.62 19.01 49.91 19.09Q49.20 19.18 48.66 19.40Q48.12 19.63 47.80 20.03Q47.47 20.42 47.47 21.02L47.47 21.02Q47.47 21.86 48.07 22.40Q48.67 22.94 49.61 22.94ZM67.92 24.43L66 24.43L66 17.59Q66 15.72 65.46 14.77Q64.92 13.82 63.48 13.82L63.48 13.82Q62.21 13.82 61.38 14.51Q60.55 15.19 60.22 16.22L60.22 16.22L60.22 24.43L58.30 24.43L58.30 12.43L59.64 12.43L60.00 13.90L60.10 13.90Q60.67 13.13 61.64 12.64Q62.62 12.14 63.96 12.14L63.96 12.14Q64.94 12.14 65.69 12.37Q66.43 12.60 66.92 13.18Q67.42 13.75 67.67 14.72Q67.92 15.70 67.92 17.18L67.92 17.18L67.92 24.43ZM76.70 21.17L76.70 21.17Q76.70 20.45 76.27 20.04Q75.84 19.63 75.20 19.36Q74.57 19.08 73.81 18.83Q73.06 18.58 72.42 18.18Q71.78 17.78 71.35 17.16Q70.92 16.54 70.92 15.48L70.92 15.48Q70.92 13.75 71.90 12.95Q72.89 12.14 74.64 12.14L74.64 12.14Q75.94 12.14 76.81 12.37Q77.69 12.60 78.34 12.91L78.34 12.91L77.88 14.50Q77.33 14.23 76.55 14.03Q75.77 13.82 74.88 13.82L74.88 13.82Q73.82 13.82 73.33 14.18Q72.84 14.54 72.84 15.43L72.84 15.43Q72.84 16.06 73.27 16.40Q73.70 16.75 74.34 17.03Q74.98 17.30 75.73 17.57Q76.49 17.83 77.12 18.26Q77.76 18.70 78.19 19.36Q78.62 20.02 78.62 21.10L78.62 21.10Q78.62 21.86 78.37 22.54Q78.12 23.21 77.59 23.69Q77.06 24.17 76.28 24.44Q75.50 24.72 74.45 24.72L74.45 24.72Q73.08 24.72 72.12 24.46Q71.16 24.19 70.51 23.83L70.51 23.83L71.09 22.20Q71.64 22.51 72.53 22.78Q73.42 23.04 74.33 23.04L74.33 23.04Q75.36 23.04 76.03 22.63Q76.70 22.22 76.70 21.17Z"/></svg>