<svg xmlns="http://www.w3.org/2000/svg" xmlns:xlink="http://www.w3.org/1999/xlink" width="321.52799999999996" height="34.752"><path fill="black" d="M17.23 27.50L17.23 27.50Q17.23 27.70 17.08 27.77Q16.92 27.84 16.75 27.84L16.75 27.84Q16.30 27.84 15.79 27.88Q15.29 27.91 14.81 27.91L14.81 27.91Q14.42 27.91 14.04 27.90Q13.66 27.89 13.25 27.89L13.25 27.89Q12.58 27.89 12.19 27.65Q11.81 27.41 11.42 26.88L11.42 26.88Q10.10 24.96 8.75 23.02Q7.39 21.07 6.07 19.18L6.07 19.18L5.95 19.27Q5.98 21.05 5.98 22.84Q5.98 24.62 5.98 26.40L5.98 26.40Q5.98 26.57 6.01 26.80Q6.05 27.02 6.29 27.02L6.29 27.02Q6.60 27.02 6.91 27.01Q7.22 27 7.54 27L7.54 27Q7.73 27 7.84 27.13Q7.94 27.26 7.94 27.46L7.94 27.46Q7.94 27.60 7.82 27.76Q7.70 27.91 7.54 27.91L7.54 27.91Q7.20 27.91 6.86 27.89Q6.53 27.86 6.19 27.84L6.19 27.84Q5.71 27.82 5.23 27.80Q4.75 27.79 4.27 27.79L4.27 27.79Q3.74 27.79 3.23 27.79Q2.71 27.79 2.18 27.84L2.18 27.84Q1.92 27.86 1.61 27.89Q1.30 27.91 1.01 27.91L1.01 27.91Q0.48 27.91 0.48 27.41L0.48 27.41Q0.48 27.17 0.65 27.08Q0.82 27 1.01 27L1.01 27Q1.25 27 1.51 27.01Q1.78 27.02 2.02 27.02L2.02 27.02Q2.45 27.02 2.51 26.65Q2.57 26.28 2.57 25.97L2.57 25.97L2.57 12.26Q2.57 12.05 2.54 11.75Q2.52 11.45 2.41 11.23Q2.30 11.02 2.02 11.02L2.02 11.02L0.94 11.02Q0.77 11.02 0.62 10.93Q0.48 10.85 0.48 10.68L0.48 10.68Q0.48 10.20 0.89 10.20L0.89 10.20Q1.18 10.20 1.55 10.21Q1.92 10.22 2.18 10.25L2.18 10.25Q2.66 10.27 3.35 10.27Q4.03 10.27 4.70 10.27L4.70 10.27Q5.06 10.27 5.40 10.27Q5.74 10.27 6.10 10.25L6.10 10.25Q6.43 10.22 6.83 10.21Q7.22 10.20 7.54 10.20L7.54 10.20Q7.70 10.20 7.81 10.33Q7.92 10.46 7.92 10.61L7.92 10.61Q7.92 10.75 7.80 10.88Q7.68 11.02 7.54 11.02L7.54 11.02L6.36 11.02Q6.12 11.02 6.05 11.22Q5.98 11.42 5.98 11.59L5.98 11.59Q5.98 12.43 5.96 13.26Q5.95 14.09 5.95 14.93L5.95 14.93L5.95 18.10Q6.94 17.16 7.88 16.19Q8.83 15.22 9.74 14.26L9.74 14.26Q10.08 13.92 10.52 13.42Q10.97 12.91 11.39 12.41Q11.81 11.90 12.05 11.54L12.05 11.54Q12.12 11.45 12.32 11.14Q12.53 10.82 12.62 10.66L12.62 10.66Q12.86 10.20 13.15 10.20L13.15 10.20Q13.49 10.20 13.61 10.20Q13.73 10.20 13.85 10.20Q13.97 10.20 14.30 10.20L14.30 10.20Q14.86 10.20 15.13 10.20Q15.41 10.20 15.94 10.20L15.94 10.20Q16.39 10.20 16.39 10.58L16.39 10.58Q16.39 10.97 16.18 11.02Q15.96 11.06 15.62 11.06L15.62 11.06Q15.19 11.09 14.75 11.30Q14.30 11.52 14.02 11.81L14.02 11.81L8.45 17.26Q10.13 19.58 11.92 21.91Q13.70 24.24 15.46 26.52L15.46 26.52Q15.65 26.76 15.95 26.89Q16.25 27.02 16.56 27.07L16.56 27.07Q16.75 27.10 16.99 27.17Q17.23 27.24 17.23 27.50ZM25.27 25.15L25.27 25.15Q25.20 24.02 25.18 22.92Q25.15 21.82 25.18 20.71L25.18 20.71Q24.22 20.88 23.32 21.32Q22.42 21.77 21.85 22.51Q21.29 23.26 21.29 24.36L21.29 24.36Q21.29 24.82 21.42 25.34Q21.55 25.87 21.88 26.24Q22.20 26.62 22.78 26.62L22.78 26.62Q23.18 26.62 23.66 26.36Q24.14 26.11 24.58 25.76Q25.01 25.42 25.27 25.15ZM30.36 26.50L30.36 26.50Q30.36 26.59 30.28 26.76Q30.19 26.93 30.12 27.02L30.12 27.02Q29.33 27.89 28.13 27.89L28.13 27.89Q26.18 27.89 25.49 26.09L25.49 26.09Q24.70 26.90 23.83 27.36Q22.97 27.82 21.82 27.82L21.82 27.82Q20.95 27.82 20.09 27.44Q19.22 27.07 18.65 26.38Q18.07 25.68 18.07 24.77L18.07 24.77Q18.07 23.86 18.54 23.14Q19.01 22.42 19.74 21.89Q20.47 21.36 21.22 21.02L21.22 21.02Q22.15 20.62 23.17 20.40Q24.19 20.18 25.18 19.94L25.18 19.94Q25.18 19.54 25.15 18.80Q25.13 18.07 25.01 17.32Q24.89 16.56 24.56 16.04Q24.24 15.53 23.62 15.53L23.62 15.53Q22.87 15.53 22.32 15.96Q21.77 16.39 21.55 17.06L21.55 17.06Q21.48 17.28 21.47 17.50Q21.46 17.71 21.41 17.93L21.41 17.93Q21.34 18.31 20.93 18.47Q20.52 18.62 20.18 18.62L20.18 18.62Q19.73 18.62 19.32 18.42Q18.91 18.22 18.91 17.71L18.91 17.71Q18.91 17.52 18.97 17.35Q19.03 17.18 19.10 17.02L19.10 17.02Q19.49 16.10 20.24 15.66Q21 15.22 21.95 15.07Q22.90 14.93 23.76 14.93L23.76 14.93Q25.78 14.93 27.06 16.00Q28.34 17.06 28.34 19.13L28.34 19.13Q28.34 20.16 28.34 21.20Q28.34 22.25 28.34 23.30L28.34 23.30Q28.34 23.86 28.36 24.40Q28.37 24.94 28.39 25.49L28.39 25.49Q28.42 25.85 28.56 26.23Q28.70 26.62 29.16 26.62L29.16 26.62Q29.35 26.62 29.50 26.56Q29.64 26.50 29.78 26.40L29.78 26.40Q29.88 26.35 29.96 26.30Q30.05 26.26 30.14 26.26L30.14 26.26Q30.36 26.26 30.36 26.50ZM38.06 27.48L38.06 27.48Q38.06 27.89 37.61 27.89L37.61 27.89Q36.89 27.89 36.13 27.83Q35.38 27.77 34.66 27.77L34.66 27.77Q33.94 27.77 33.17 27.83Q32.40 27.89 31.68 27.89L31.68 27.89Q31.51 27.89 31.40 27.74Q31.30 27.60 31.30 27.46L31.30 27.46Q31.30 27.05 31.73 27.05L31.73 27.05Q31.94 27.05 32.17 27.06Q32.40 27.07 32.62 27.07L32.62 27.07Q32.88 27.07 32.98 26.88Q33.07 26.69 33.07 26.50L33.07 26.50L33.07 16.94Q33.07 16.75 33.02 16.50Q32.98 16.25 32.71 16.25L32.71 16.25Q32.40 16.25 32.06 16.30Q31.73 16.34 31.39 16.34L31.39 16.34Q31.22 16.34 31.07 16.27Q30.91 16.20 30.91 16.01L30.91 16.01Q30.91 15.65 31.27 15.58L31.27 15.58Q31.54 15.50 31.84 15.48Q32.14 15.46 32.40 15.43L32.40 15.43Q33.24 15.31 34.04 15.13Q34.85 14.95 35.66 14.76L35.66 14.76Q35.74 14.74 35.81 14.72Q35.88 14.71 35.95 14.71L35.95 14.71Q36.12 14.71 36.25 14.80Q36.38 14.88 36.38 15.07L36.38 15.07Q36.38 17.90 36.36 20.77Q36.34 23.64 36.34 26.50L36.34 26.50Q36.34 26.71 36.44 26.89Q36.55 27.07 36.82 27.07L36.82 27.07Q37.03 27.07 37.24 27.06Q37.44 27.05 37.66 27.05L37.66 27.05Q38.06 27.05 38.06 27.48ZM36.50 11.04L36.50 11.04Q36.50 11.83 35.95 12.38Q35.40 12.94 34.61 12.94L34.61 12.94Q33.82 12.94 33.26 12.38Q32.71 11.83 32.71 11.04L32.71 11.04Q32.71 10.25 33.26 9.70Q33.82 9.14 34.61 9.14L34.61 9.14Q35.40 9.14 35.95 9.70Q36.50 10.25 36.50 11.04ZM48.77 24.38L48.77 24.38Q48.77 25.49 48.30 26.18Q47.83 26.88 47.05 27.26Q46.27 27.65 45.34 27.79Q44.40 27.94 43.46 27.94L43.46 27.94Q42.89 27.94 42.28 27.80Q41.66 27.67 41.11 27.55L41.11 27.55Q40.85 27.50 40.57 27.44Q40.30 27.38 40.03 27.36L40.03 27.36Q39.96 26.95 39.78 26.22Q39.60 25.49 39.41 24.84L39.41 24.84Q39.29 24.36 39.29 24.17L39.29 24.17Q39.29 23.90 39.46 23.82Q39.62 23.74 39.86 23.74L39.86 23.74Q40.06 23.74 40.18 23.77Q40.30 23.81 40.37 23.98L40.37 23.98Q40.66 24.58 40.91 25.07Q41.16 25.56 41.59 26.04L41.59 26.04Q41.81 26.26 42.17 26.50Q42.53 26.74 42.94 26.92Q43.34 27.10 43.66 27.10L43.66 27.10Q44.71 27.10 45.20 26.58Q45.70 26.06 45.70 25.03L45.70 25.03Q45.70 24.31 45.23 23.81Q44.76 23.30 44.06 22.90L44.06 22.90Q43.39 22.49 42.60 22.09Q41.81 21.70 41.12 21.22Q40.44 20.74 40.00 20.05Q39.55 19.37 39.55 18.41L39.55 18.41Q39.55 17.18 40.25 16.42Q40.94 15.65 42 15.29Q43.06 14.93 44.16 14.93L44.16 14.93Q44.64 14.93 45.14 15Q45.65 15.07 46.10 15.26L46.10 15.26Q46.30 15.34 46.63 15.41Q46.97 15.48 47.14 15.48L47.14 15.48Q47.33 15.48 47.51 15.48Q47.69 15.48 47.86 15.38L47.86 15.38Q47.90 15.86 47.96 16.48Q48.02 17.09 48.08 17.60Q48.14 18.12 48.14 18.34L48.14 18.34Q48.14 18.58 47.99 18.74Q47.83 18.91 47.57 18.91L47.57 18.91Q47.11 18.91 46.96 18.52Q46.80 18.12 46.58 17.50L46.58 17.50Q46.34 16.85 45.86 16.28Q45.38 15.72 44.21 15.72L44.21 15.72Q43.61 15.72 43.20 16.08Q42.79 16.44 42.58 16.93Q42.36 17.42 42.36 17.88L42.36 17.88Q42.36 18.55 42.83 19.06Q43.30 19.56 43.82 19.85L43.82 19.85Q44.47 20.18 45.31 20.60Q46.15 21.02 46.90 21.50L46.90 21.50Q47.74 22.03 48.25 22.75Q48.77 23.47 48.77 24.38ZM58.39 19.37L58.39 19.37Q58.37 18.94 58.32 18.29Q58.27 17.64 58.10 17.00Q57.94 16.37 57.58 15.95Q57.22 15.53 56.57 15.53L56.57 15.53Q55.92 15.53 55.45 15.94Q54.98 16.34 54.66 16.97Q54.34 17.59 54.13 18.25Q53.93 18.91 53.86 19.42L53.86 19.42Q54.24 19.44 54.61 19.44Q54.98 19.44 55.37 19.44L55.37 19.44Q56.88 19.44 58.39 19.37ZM62.09 24.67L62.09 24.67Q62.09 24.77 62.05 24.86Q62.02 24.96 61.97 25.08L61.97 25.08Q61.51 25.99 60.67 26.63Q59.83 27.26 58.79 27.60Q57.74 27.94 56.74 27.94L56.74 27.94Q54.77 27.94 53.34 27.12Q51.91 26.30 51.14 24.88Q50.38 23.45 50.38 21.60L50.38 21.60Q50.38 19.75 51.11 18.23Q51.84 16.70 53.24 15.79Q54.65 14.88 56.64 14.88L56.64 14.88Q58.92 14.88 60.29 16.12Q61.66 17.35 61.66 19.61L61.66 19.61Q61.66 20.26 61.01 20.26L61.01 20.26Q60.38 20.26 59.76 20.24Q59.14 20.23 58.51 20.23L58.51 20.23Q57.34 20.23 56.14 20.23Q54.94 20.23 53.74 20.26L53.74 20.26Q53.66 20.98 53.66 21.67L53.66 21.67Q53.66 22.42 53.86 23.32Q54.05 24.22 54.43 25.04Q54.82 25.87 55.43 26.41Q56.04 26.95 56.88 26.95L56.88 26.95Q58.08 26.95 58.97 26.50Q59.86 26.04 60.58 25.15L60.58 25.15Q60.72 24.96 60.84 24.78Q60.96 24.60 61.10 24.43L61.10 24.43Q61.20 24.31 61.28 24.25Q61.37 24.19 61.54 24.19L61.54 24.19Q61.73 24.19 61.91 24.32Q62.09 24.46 62.09 24.67ZM70.10 27.48L70.10 27.48Q70.10 27.89 69.65 27.89L69.65 27.89Q68.93 27.89 68.17 27.83Q67.42 27.77 66.70 27.77L66.70 27.77Q65.98 27.77 65.21 27.83Q64.44 27.89 63.72 27.89L63.72 27.89Q63.55 27.89 63.44 27.74Q63.34 27.60 63.34 27.46L63.34 27.46Q63.34 27.05 63.77 27.05L63.77 27.05Q63.98 27.05 64.21 27.06Q64.44 27.07 64.66 27.07L64.66 27.07Q64.92 27.07 65.02 26.88Q65.11 26.69 65.11 26.50L65.11 26.50L65.11 16.94Q65.11 16.75 65.06 16.50Q65.02 16.25 64.75 16.25L64.75 16.25Q64.44 16.25 64.10 16.30Q63.77 16.34 63.43 16.34L63.43 16.34Q63.26 16.34 63.11 16.27Q62.95 16.20 62.95 16.01L62.95 16.01Q62.95 15.65 63.31 15.58L63.31 15.58Q63.58 15.50 63.88 15.48Q64.18 15.46 64.44 15.43L64.44 15.43Q65.28 15.31 66.08 15.13Q66.89 14.95 67.70 14.76L67.70 14.76Q67.78 14.74 67.85 14.72Q67.92 14.71 67.99 14.71L67.99 14.71Q68.16 14.71 68.29 14.80Q68.42 14.88 68.42 15.07L68.42 15.07Q68.42 17.90 68.40 20.77Q68.38 23.64 68.38 26.50L68.38 26.50Q68.38 26.71 68.48 26.89Q68.59 27.07 68.86 27.07L68.86 27.07Q69.07 27.07 69.28 27.06Q69.48 27.05 69.70 27.05L69.70 27.05Q70.10 27.05 70.10 27.48ZM68.54 11.04L68.54 11.04Q68.54 11.83 67.99 12.38Q67.44 12.94 66.65 12.94L66.65 12.94Q65.86 12.94 65.30 12.38Q64.75 11.83 64.75 11.04L64.75 11.04Q64.75 10.25 65.30 9.70Q65.86 9.14 66.65 9.14L66.65 9.14Q67.44 9.14 67.99 9.70Q68.54 10.25 68.54 11.04ZM93.12 14.54L93.12 14.54Q93.12 14.81 92.99 15.01Q92.86 15.22 92.54 15.22L92.54 15.22Q92.16 15.22 91.99 15.06Q91.82 14.90 91.73 14.54L91.73 14.54Q91.66 14.23 91.49 13.74Q91.32 13.25 91.14 12.77Q90.96 12.29 90.79 12.02L90.79 12.02Q90.70 11.88 90.58 11.75Q90.46 11.62 90.34 11.50L90.34 11.50Q90.14 11.28 89.69 11.20Q89.23 11.11 88.75 11.10Q88.27 11.09 87.98 11.09L87.98 11.09Q87.79 11.09 87.58 11.10Q87.36 11.11 87.17 11.18L87.17 11.18Q86.76 11.35 86.74 11.81L86.74 11.81Q86.71 12.34 86.71 12.85Q86.71 13.37 86.71 13.90L86.71 13.90L86.71 16.22Q86.71 18.70 86.72 21.17Q86.74 23.64 86.74 26.11L86.74 26.11Q86.74 26.35 86.80 26.70Q86.86 27.05 87.22 27.05L87.22 27.05Q87.58 27.05 87.92 27.02Q88.27 27 88.63 27L88.63 27Q88.82 27 88.96 27.14Q89.09 27.29 89.09 27.48L89.09 27.48Q89.09 27.67 88.94 27.80Q88.80 27.94 88.61 27.94L88.61 27.94Q88.34 27.94 88.07 27.90Q87.79 27.86 87.53 27.84L87.53 27.84Q87.19 27.82 86.86 27.82Q86.52 27.82 86.18 27.82L86.18 27.82Q85.30 27.82 84.36 27.82Q83.42 27.82 82.51 27.86L82.51 27.86Q82.22 27.89 81.92 27.91Q81.62 27.94 81.34 27.94L81.34 27.94Q80.81 27.94 80.81 27.41L80.81 27.41Q80.81 27.12 81.06 27.06Q81.31 27 81.53 27L81.53 27Q81.77 27 82.00 27.02Q82.22 27.05 82.46 27.05L82.46 27.05Q83.06 27.05 83.12 26.74Q83.18 26.42 83.18 25.97L83.18 25.97L83.18 12.17Q83.18 11.57 83.08 11.36Q82.97 11.16 82.67 11.14Q82.37 11.11 81.82 11.11L81.82 11.11L80.90 11.11Q80.64 11.11 80.28 11.14Q79.92 11.16 79.66 11.30L79.66 11.30Q79.06 11.62 78.86 12.31L78.86 12.31Q78.70 12.86 78.50 13.43Q78.31 13.99 78.12 14.54L78.12 14.54Q78 14.90 77.84 15.06Q77.69 15.22 77.28 15.22L77.28 15.22Q76.75 15.22 76.75 14.71L76.75 14.71Q76.75 14.66 76.76 14.63Q76.78 14.59 76.78 14.54L76.78 14.54Q76.82 14.35 76.82 14.15Q76.82 13.94 76.85 13.75L76.85 13.75Q76.90 13.27 76.96 12.78Q77.02 12.29 77.04 11.81L77.04 11.81Q77.06 11.45 77.04 11.04Q77.02 10.63 77.11 10.27L77.11 10.27Q77.14 10.08 77.35 10.08L77.35 10.08Q77.64 10.08 77.92 10.15Q78.19 10.22 78.46 10.27L78.46 10.27Q78.74 10.32 79.04 10.32Q79.34 10.32 79.63 10.34L79.63 10.34Q80.86 10.37 82.30 10.38Q83.74 10.39 84.96 10.39L84.96 10.39Q86.38 10.39 87.94 10.37Q89.50 10.34 90.89 10.34L90.89 10.34Q91.01 10.34 91.16 10.34Q91.32 10.34 91.44 10.32L91.44 10.32Q91.70 10.27 91.97 10.18Q92.23 10.08 92.50 10.08L92.50 10.08Q92.69 10.08 92.74 10.25L92.74 10.25Q92.81 10.70 92.84 11.18Q92.88 11.66 92.90 12.12L92.90 12.12Q92.98 12.72 93.05 13.33Q93.12 13.94 93.12 14.54ZM103.61 21.50L103.61 21.50Q103.61 20.76 103.51 19.75Q103.42 18.74 103.12 17.80Q102.82 16.85 102.20 16.21Q101.59 15.58 100.54 15.58L100.54 15.58Q99.58 15.58 99.00 16.20Q98.42 16.82 98.12 17.76Q97.82 18.70 97.72 19.66Q97.61 20.62 97.61 21.31L97.61 21.31Q97.61 22.06 97.70 23.06Q97.80 24.07 98.11 25.02Q98.42 25.97 99.05 26.59Q99.67 27.22 100.73 27.22L100.73 27.22Q101.74 27.22 102.31 26.60Q102.89 25.99 103.16 25.07Q103.44 24.14 103.52 23.17Q103.61 22.20 103.61 21.50ZM107.09 21.62L107.09 21.62Q107.09 23.45 106.25 24.88Q105.41 26.30 103.96 27.13Q102.50 27.96 100.61 27.96L100.61 27.96Q98.71 27.96 97.28 27.10Q95.86 26.23 95.06 24.76Q94.27 23.28 94.27 21.48L94.27 21.48Q94.27 19.61 95.06 18.11Q95.86 16.61 97.30 15.72Q98.74 14.83 100.70 14.83L100.70 14.83Q102.86 14.83 104.28 15.70Q105.70 16.56 106.39 18.10Q107.09 19.63 107.09 21.62ZM122.42 27.48L122.42 27.48Q122.42 27.70 122.28 27.74Q122.14 27.79 121.94 27.82L121.94 27.82Q120.79 27.89 119.66 27.89L119.66 27.89Q119.35 27.89 118.99 27.88Q118.63 27.86 118.34 27.77L118.34 27.77Q118.01 27.65 117.78 27.40Q117.55 27.14 117.38 26.86L117.38 26.86Q116.50 25.32 115.63 23.78Q114.77 22.25 113.93 20.71L113.93 20.71L113.47 21.05L113.47 26.59Q113.47 26.78 113.52 26.93Q113.57 27.07 113.83 27.07L113.83 27.07Q114.05 27.07 114.28 27.06Q114.50 27.05 114.72 27.05L114.72 27.05Q115.13 27.05 115.13 27.48L115.13 27.48Q115.13 27.89 114.67 27.89L114.67 27.89Q114 27.89 113.30 27.83Q112.61 27.77 111.91 27.77L111.91 27.77Q111.22 27.77 110.50 27.83Q109.78 27.89 109.08 27.89L109.08 27.89Q108.91 27.89 108.80 27.74Q108.70 27.60 108.70 27.46L108.70 27.46Q108.70 27.26 108.84 27.16Q108.98 27.05 109.15 27.05L109.15 27.05Q109.39 27.05 109.61 27.06Q109.82 27.07 110.06 27.07L110.06 27.07Q110.23 27.07 110.33 26.90L110.33 26.90Q110.38 26.83 110.39 26.47Q110.40 26.11 110.41 25.64Q110.42 25.18 110.42 24.78Q110.42 24.38 110.42 24.24L110.42 24.24Q110.42 21.50 110.42 18.76Q110.42 16.01 110.42 13.25L110.42 13.25Q110.42 13.03 110.42 12.55Q110.42 12.07 110.40 11.60Q110.38 11.14 110.30 10.99L110.30 10.99Q110.18 10.70 109.94 10.70L109.94 10.70Q109.70 10.70 109.45 10.74Q109.20 10.78 109.01 10.78L109.01 10.78Q108.55 10.78 108.55 10.42L108.55 10.42Q108.55 10.13 108.86 10.08L108.86 10.08Q109.15 10.01 109.45 9.97Q109.75 9.94 110.06 9.89L110.06 9.89Q110.76 9.77 111.43 9.60Q112.10 9.43 112.78 9.26L112.78 9.26Q112.85 9.24 112.92 9.24Q112.99 9.24 113.06 9.24L113.06 9.24Q113.23 9.24 113.36 9.30Q113.50 9.36 113.50 9.55L113.50 9.55Q113.50 12.19 113.47 14.84Q113.45 17.50 113.45 20.14L113.45 20.14Q114.19 19.58 115.04 18.89Q115.90 18.19 116.68 17.45Q117.46 16.70 117.96 16.03L117.96 16.03Q118.06 15.91 118.15 15.74Q118.25 15.58 118.25 15.43L118.25 15.43Q118.25 15.14 118.36 15.04Q118.46 14.93 118.75 14.93L118.75 14.93L121.22 14.93Q121.66 14.93 121.66 15.26L121.66 15.26Q121.66 15.58 121.49 15.64Q121.32 15.70 121.06 15.70L121.06 15.70Q120.34 15.70 119.71 16.15L119.71 16.15Q118.82 16.82 117.96 17.59Q117.10 18.36 116.23 19.08L116.23 19.08Q116.50 19.54 116.98 20.36Q117.46 21.19 118.06 22.19Q118.66 23.18 119.27 24.14Q119.88 25.10 120.42 25.84Q120.96 26.57 121.32 26.83L121.32 26.83Q121.54 27 121.72 27.06Q121.90 27.12 122.14 27.17L122.14 27.17Q122.26 27.19 122.34 27.25Q122.42 27.31 122.42 27.48ZM137.16 26.88L137.16 26.88Q137.16 27.12 136.92 27.26L136.92 27.26Q136.25 27.70 135.71 27.79Q135.17 27.89 134.35 27.89L134.35 27.89Q133.61 27.89 133.12 27.30Q132.62 26.71 132.46 26.06L132.46 26.06Q131.04 27.96 128.59 27.96L128.59 27.96Q126.24 27.96 125.33 26.84Q124.42 25.73 124.44 23.54L124.44 23.54L124.49 17.11Q124.49 16.87 124.44 16.56Q124.39 16.25 124.06 16.25L124.06 16.25Q123.91 16.25 123.78 16.27Q123.65 16.30 123.50 16.30L123.50 16.30Q123.34 16.30 123.08 16.25Q122.83 16.20 122.83 15.96L122.83 15.96Q122.83 15.77 122.93 15.70Q123.02 15.62 123.19 15.60L123.19 15.60Q123.74 15.48 124.43 15.40Q125.11 15.31 125.71 15.22L125.71 15.22Q126.05 15.17 126.54 15.04Q127.03 14.90 127.34 14.90L127.34 14.90Q127.51 14.90 127.63 14.98Q127.75 15.05 127.75 15.22L127.75 15.22Q127.75 17.40 127.69 19.60Q127.63 21.79 127.63 23.95L127.63 23.95Q127.63 24.62 127.74 25.31Q127.85 25.99 128.26 26.45Q128.66 26.90 129.55 26.90L129.55 26.90Q130.08 26.90 130.56 26.62Q131.04 26.33 131.42 25.88Q131.81 25.44 132 25.03L132 25.03Q132.02 24.98 132.10 24.80Q132.17 24.62 132.17 24.60L132.17 24.60Q132.17 22.70 132.18 20.80Q132.19 18.89 132.19 17.02L132.19 17.02Q132.19 16.78 132.14 16.51Q132.10 16.25 131.76 16.25L131.76 16.25Q131.62 16.25 131.46 16.27Q131.30 16.30 131.16 16.30L131.16 16.30Q130.99 16.30 130.73 16.25Q130.46 16.20 130.46 15.96L130.46 15.96Q130.46 15.77 130.58 15.70Q130.70 15.62 130.87 15.60L130.87 15.60Q131.16 15.53 131.46 15.49Q131.76 15.46 132.05 15.43L132.05 15.43Q132.74 15.31 133.42 15.20Q134.09 15.10 134.76 14.93L134.76 14.93Q134.83 14.90 134.90 14.90Q134.98 14.90 135.05 14.90L135.05 14.90Q135.22 14.90 135.35 14.96Q135.48 15.02 135.48 15.22L135.48 15.22Q135.48 17.83 135.43 20.47Q135.38 23.11 135.38 25.75L135.38 25.75Q135.38 26.06 135.47 26.42Q135.55 26.78 135.98 26.78L135.98 26.78Q136.18 26.78 136.39 26.72Q136.61 26.66 136.78 26.59L136.78 26.59Q136.92 26.52 137.04 26.60Q137.16 26.69 137.16 26.88ZM158.90 27.53L158.90 27.53Q158.90 27.94 158.45 27.94L158.45 27.94Q157.78 27.94 157.08 27.88Q156.38 27.82 155.69 27.82L155.69 27.82Q154.99 27.82 154.30 27.88Q153.60 27.94 152.90 27.94L152.90 27.94Q152.74 27.94 152.63 27.79Q152.52 27.65 152.52 27.50L152.52 27.50Q152.52 27.26 152.68 27.18Q152.83 27.10 153.02 27.10L153.02 27.10Q153.22 27.10 153.41 27.11Q153.60 27.12 153.77 27.12L153.77 27.12Q153.98 27.12 154.03 27.01Q154.08 26.90 154.08 26.74L154.08 26.74L154.13 19.49Q154.13 18.86 154.10 18.08Q154.08 17.30 153.82 16.73L153.82 16.73Q153.62 16.25 153.35 16.04Q153.07 15.84 152.52 15.84L152.52 15.84Q152.09 15.84 151.62 16.08Q151.15 16.32 150.74 16.67Q150.34 17.02 150.10 17.33L150.10 17.33Q150.17 17.78 150.18 18.28Q150.19 18.77 150.19 19.25L150.19 19.25L150.19 26.57Q150.19 26.81 150.26 26.98Q150.34 27.14 150.62 27.14L150.62 27.14Q150.79 27.14 150.95 27.12Q151.10 27.10 151.27 27.10L151.27 27.10Q151.68 27.10 151.68 27.53L151.68 27.53Q151.68 27.94 151.22 27.94L151.22 27.94Q150.55 27.94 149.89 27.88Q149.23 27.82 148.56 27.82L148.56 27.82Q147.89 27.82 147.20 27.88Q146.52 27.94 145.82 27.94L145.82 27.94Q145.66 27.94 145.55 27.79Q145.44 27.65 145.44 27.50L145.44 27.50Q145.44 27.24 145.66 27.17Q145.87 27.10 146.15 27.12Q146.42 27.14 146.59 27.14L146.59 27.14Q146.88 27.14 146.94 26.99Q147 26.83 147 26.57L147 26.57Q147 24.79 146.99 23.03Q146.98 21.26 146.98 19.49L146.98 19.49Q146.98 18.86 146.94 18.08Q146.90 17.30 146.66 16.73L146.66 16.73Q146.45 16.18 146.15 16.03Q145.85 15.89 145.30 15.89L145.30 15.89Q145.01 15.89 144.56 16.19Q144.12 16.49 143.74 16.85Q143.35 17.21 143.16 17.45L143.16 17.45Q143.16 19.73 143.15 22.01Q143.14 24.29 143.14 26.57L143.14 26.57Q143.14 26.83 143.23 26.99Q143.33 27.14 143.59 27.14L143.59 27.14Q143.76 27.14 143.92 27.12Q144.07 27.10 144.24 27.10L144.24 27.10Q144.65 27.10 144.65 27.53L144.65 27.53Q144.65 27.94 144.19 27.94L144.19 27.94Q143.52 27.94 142.85 27.88Q142.18 27.82 141.48 27.82L141.48 27.82Q140.78 27.82 140.06 27.88Q139.34 27.94 138.65 27.94L138.65 27.94Q138.48 27.94 138.37 27.79Q138.26 27.65 138.26 27.50L138.26 27.50Q138.26 27.31 138.41 27.20Q138.55 27.10 138.72 27.10L138.72 27.10Q138.91 27.10 139.12 27.11Q139.32 27.12 139.51 27.12L139.51 27.12Q139.82 27.12 139.86 26.80Q139.90 26.47 139.90 26.26L139.90 26.26Q139.90 24 139.88 21.73Q139.87 19.46 139.87 17.21L139.87 17.21Q139.87 16.97 139.82 16.67Q139.78 16.37 139.44 16.37L139.44 16.37Q139.20 16.37 138.94 16.40Q138.67 16.44 138.41 16.44L138.41 16.44Q138.24 16.44 138.08 16.36Q137.93 16.27 137.93 16.08L137.93 16.08Q137.93 15.91 138.04 15.83Q138.14 15.74 138.29 15.72L138.29 15.72Q138.60 15.62 138.91 15.59Q139.22 15.55 139.54 15.50L139.54 15.50Q140.09 15.38 140.66 15.25Q141.24 15.12 141.77 14.95L141.77 14.95Q141.89 14.93 141.97 14.90Q142.06 14.88 142.15 14.88L142.15 14.88Q142.44 14.88 142.61 15.17L142.61 15.17Q142.75 15.41 142.82 15.73Q142.90 16.06 142.97 16.34L142.97 16.34Q143.78 15.67 144.68 15.31Q145.58 14.95 146.66 14.95L146.66 14.95Q147.55 14.95 148.40 15.31Q149.26 15.67 149.71 16.44L149.71 16.44Q150.48 15.72 151.44 15.32Q152.40 14.93 153.48 14.93L153.48 14.93Q155.11 14.93 155.96 15.38Q156.82 15.84 157.13 16.79Q157.44 17.74 157.42 19.25L157.42 19.25L157.37 26.57Q157.37 26.76 157.43 26.94Q157.49 27.12 157.73 27.12L157.73 27.12Q157.92 27.12 158.11 27.11Q158.30 27.10 158.50 27.10L158.50 27.10Q158.90 27.10 158.90 27.53ZM167.16 27.48L167.16 27.48Q167.16 27.89 166.70 27.89L166.70 27.89Q165.98 27.89 165.23 27.83Q164.47 27.77 163.75 27.77L163.75 27.77Q163.03 27.77 162.26 27.83Q161.50 27.89 160.78 27.89L160.78 27.89Q160.61 27.89 160.50 27.74Q160.39 27.60 160.39 27.46L160.39 27.46Q160.39 27.05 160.82 27.05L160.82 27.05Q161.04 27.05 161.27 27.06Q161.50 27.07 161.71 27.07L161.71 27.07Q161.98 27.07 162.07 26.88Q162.17 26.69 162.17 26.50L162.17 26.50L162.17 16.94Q162.17 16.75 162.12 16.50Q162.07 16.25 161.81 16.25L161.81 16.25Q161.50 16.25 161.16 16.30Q160.82 16.34 160.49 16.34L160.49 16.34Q160.32 16.34 160.16 16.27Q160.01 16.20 160.01 16.01L160.01 16.01Q160.01 15.65 160.37 15.58L160.37 15.58Q160.63 15.50 160.93 15.48Q161.23 15.46 161.50 15.43L161.50 15.43Q162.34 15.31 163.14 15.13Q163.94 14.95 164.76 14.76L164.76 14.76Q164.83 14.74 164.90 14.72Q164.98 14.71 165.05 14.71L165.05 14.71Q165.22 14.71 165.35 14.80Q165.48 14.88 165.48 15.07L165.48 15.07Q165.48 17.90 165.46 20.77Q165.43 23.64 165.43 26.50L165.43 26.50Q165.43 26.71 165.54 26.89Q165.65 27.07 165.91 27.07L165.91 27.07Q166.13 27.07 166.33 27.06Q166.54 27.05 166.75 27.05L166.75 27.05Q167.16 27.05 167.16 27.48ZM165.60 11.04L165.60 11.04Q165.60 11.83 165.05 12.38Q164.50 12.94 163.70 12.94L163.70 12.94Q162.91 12.94 162.36 12.38Q161.81 11.83 161.81 11.04L161.81 11.04Q161.81 10.25 162.36 9.70Q162.91 9.14 163.70 9.14L163.70 9.14Q164.50 9.14 165.05 9.70Q165.60 10.25 165.60 11.04ZM182.45 27.50L182.45 27.50Q182.45 27.91 181.99 27.91L181.99 27.91Q181.30 27.91 180.58 27.88Q179.86 27.84 179.16 27.84L179.16 27.84Q178.49 27.84 177.78 27.88Q177.07 27.91 176.38 27.91L176.38 27.91Q176.21 27.91 176.10 27.78Q175.99 27.65 175.99 27.50L175.99 27.50Q175.99 27.07 176.45 27.07L176.45 27.07Q176.66 27.07 176.88 27.10Q177.10 27.12 177.31 27.12L177.31 27.12Q177.60 27.12 177.60 26.83L177.60 26.83L177.60 18.77Q177.60 18.17 177.50 17.48Q177.41 16.80 177.05 16.31Q176.69 15.82 175.87 15.82L175.87 15.82Q175.37 15.82 174.82 16.20Q174.26 16.58 173.83 17.10Q173.40 17.62 173.21 18.05L173.21 18.05L173.21 26.57Q173.21 26.74 173.24 26.93Q173.28 27.12 173.52 27.12L173.52 27.12Q173.71 27.12 173.92 27.11Q174.12 27.10 174.31 27.10L174.31 27.10Q174.46 27.10 174.60 27.19Q174.74 27.29 174.74 27.46L174.74 27.46Q174.74 27.91 174.29 27.91L174.29 27.91Q173.62 27.91 172.94 27.86Q172.27 27.82 171.60 27.82L171.60 27.82Q170.86 27.82 170.12 27.86Q169.39 27.91 168.65 27.91L168.65 27.91Q168.48 27.91 168.37 27.78Q168.26 27.65 168.26 27.50L168.26 27.50Q168.26 27.07 168.72 27.07L168.72 27.07Q168.94 27.07 169.15 27.10Q169.37 27.12 169.58 27.12L169.58 27.12Q169.87 27.12 169.92 26.99Q169.97 26.86 169.97 26.57L169.97 26.57L169.97 17.11Q169.97 16.87 169.92 16.61Q169.87 16.34 169.54 16.34L169.54 16.34Q169.30 16.34 169.07 16.37Q168.84 16.39 168.60 16.39L168.60 16.39Q168.43 16.39 168.23 16.33Q168.02 16.27 168.02 16.06L168.02 16.06Q168.02 15.89 168.13 15.80Q168.24 15.72 168.38 15.70L168.38 15.70Q168.62 15.62 168.89 15.60Q169.15 15.58 169.39 15.55L169.39 15.55Q169.58 15.50 170.02 15.40Q170.45 15.29 170.94 15.16Q171.43 15.02 171.82 14.93Q172.20 14.83 172.27 14.83L172.27 14.83Q172.51 14.83 172.67 15.16Q172.82 15.48 172.92 15.86Q173.02 16.25 173.06 16.44L173.06 16.44Q173.76 15.84 174.78 15.40Q175.80 14.95 176.74 14.95L176.74 14.95Q178.37 14.95 179.29 15.36Q180.22 15.77 180.59 16.70Q180.96 17.64 180.96 19.22L180.96 19.22Q180.96 21.10 180.94 22.97Q180.91 24.84 180.91 26.71L180.91 26.71Q180.91 27.02 181.10 27.07Q181.30 27.12 181.54 27.12L181.54 27.12Q181.66 27.12 181.79 27.11Q181.92 27.10 182.04 27.10L182.04 27.10Q182.45 27.10 182.45 27.50ZM198.84 23.14L198.84 23.14Q198.84 21.22 197.80 20.20Q196.75 19.18 195.00 18.65L195.00 18.65Q193.87 19.39 193.31 20.56Q192.74 21.72 192.74 23.04L192.74 23.04Q192.74 24 193.02 24.92Q193.30 25.85 193.97 26.45Q194.64 27.05 195.82 27.05L195.82 27.05Q196.13 27.05 196.43 26.95Q196.73 26.86 196.99 26.71L196.99 26.71Q198.02 26.16 198.43 25.18Q198.84 24.19 198.84 23.14ZM198.38 13.92L198.38 13.92Q198.38 13.08 198.13 12.37Q197.88 11.66 197.32 11.23Q196.75 10.80 195.79 10.80L195.79 10.80Q194.98 10.80 194.53 11.28Q194.09 11.76 193.91 12.44Q193.73 13.13 193.73 13.78L193.73 13.78Q193.73 15.17 194.42 16.00Q195.12 16.82 196.39 17.35L196.39 17.35Q197.35 16.87 197.87 15.90Q198.38 14.93 198.38 13.92ZM202.27 22.25L202.27 22.25Q202.27 24.02 201.43 25.28Q200.59 26.54 199.19 27.20Q197.78 27.86 196.03 27.86L196.03 27.86Q194.88 27.86 193.76 27.61Q192.65 27.36 191.72 26.81Q190.80 26.26 190.26 25.36Q189.72 24.46 189.72 23.16L189.72 23.16Q189.72 22.25 190.14 21.36Q190.56 20.47 191.23 19.85L191.23 19.85Q191.78 19.37 192.43 18.97Q193.08 18.58 193.73 18.24L193.73 18.24Q193.27 18.05 192.79 17.78Q192.31 17.52 191.93 17.18L191.93 17.18Q191.40 16.70 190.98 16.01Q190.56 15.31 190.56 14.57L190.56 14.57Q190.56 13.03 191.41 12.04Q192.26 11.04 193.58 10.54Q194.90 10.03 196.30 10.03L196.30 10.03Q197.16 10.03 198.04 10.24Q198.91 10.44 199.64 10.87Q200.38 11.30 200.83 12Q201.29 12.70 201.29 13.68L201.29 13.68Q201.29 15.19 200.38 16.25Q199.46 17.30 198.05 17.83L198.05 17.83Q199.06 18.19 200.03 18.77Q201.00 19.34 201.64 20.20Q202.27 21.05 202.27 22.25ZM212.66 19.18L212.66 19.18Q212.66 18.65 212.65 17.66Q212.64 16.68 212.56 15.55Q212.47 14.42 212.21 13.40Q211.94 12.38 211.45 11.74Q210.96 11.09 210.14 11.09L210.14 11.09Q209.35 11.09 208.86 11.76Q208.37 12.43 208.10 13.49Q207.84 14.54 207.73 15.70Q207.62 16.85 207.61 17.83Q207.60 18.82 207.60 19.34L207.60 19.34Q207.60 19.85 207.61 20.77Q207.62 21.70 207.71 22.75Q207.79 23.81 208.03 24.78Q208.27 25.75 208.74 26.36Q209.21 26.98 209.98 26.98L209.98 26.98Q210.79 26.98 211.25 26.53Q211.70 26.09 211.96 25.42Q212.21 24.74 212.33 24.12L212.33 24.12Q212.57 22.90 212.62 21.66Q212.66 20.42 212.66 19.18ZM216.07 18.98L216.07 18.98Q216.07 20.42 215.77 21.97Q215.47 23.52 214.78 24.83Q214.08 26.14 212.87 26.95Q211.66 27.77 209.86 27.77L209.86 27.77Q208.51 27.77 207.55 27.25Q206.59 26.74 205.94 25.86Q205.30 24.98 204.92 23.89Q204.55 22.80 204.40 21.65Q204.24 20.50 204.24 19.46L204.24 19.46Q204.24 18.31 204.41 17.05Q204.58 15.79 204.97 14.59Q205.37 13.39 206.06 12.43Q206.76 11.47 207.82 10.90Q208.87 10.32 210.34 10.32L210.34 10.32Q211.78 10.32 212.78 10.86Q213.79 11.40 214.44 12.30Q215.09 13.20 215.44 14.33Q215.78 15.46 215.93 16.66Q216.07 17.86 216.07 18.98ZM226.82 19.18L226.82 19.18Q226.82 18.65 226.81 17.66Q226.80 16.68 226.72 15.55Q226.63 14.42 226.37 13.40Q226.10 12.38 225.61 11.74Q225.12 11.09 224.30 11.09L224.30 11.09Q223.51 11.09 223.02 11.76Q222.53 12.43 222.26 13.49Q222.00 14.54 221.89 15.70Q221.78 16.85 221.77 17.83Q221.76 18.82 221.76 19.34L221.76 19.34Q221.76 19.85 221.77 20.77Q221.78 21.70 221.87 22.75Q221.95 23.81 222.19 24.78Q222.43 25.75 222.90 26.36Q223.37 26.98 224.14 26.98L224.14 26.98Q224.95 26.98 225.41 26.53Q225.86 26.09 226.12 25.42Q226.37 24.74 226.49 24.12L226.49 24.12Q226.73 22.90 226.78 21.66Q226.82 20.42 226.82 19.18ZM230.23 18.98L230.23 18.98Q230.23 20.42 229.93 21.97Q229.63 23.52 228.94 24.83Q228.24 26.14 227.03 26.95Q225.82 27.77 224.02 27.77L224.02 27.77Q222.67 27.77 221.71 27.25Q220.75 26.74 220.10 25.86Q219.46 24.98 219.08 23.89Q218.71 22.80 218.56 21.65Q218.40 20.50 218.40 19.46L218.40 19.46Q218.40 18.31 218.57 17.05Q218.74 15.79 219.13 14.59Q219.53 13.39 220.22 12.43Q220.92 11.47 221.98 10.90Q223.03 10.32 224.50 10.32L224.50 10.32Q225.94 10.32 226.94 10.86Q227.95 11.40 228.60 12.30Q229.25 13.20 229.60 14.33Q229.94 15.46 230.09 16.66Q230.23 17.86 230.23 18.98ZM252.10 27.50L252.10 27.50Q252.10 27.91 251.64 27.91L251.64 27.91Q250.94 27.91 250.22 27.88Q249.50 27.84 248.81 27.84L248.81 27.84Q248.14 27.84 247.43 27.88Q246.72 27.91 246.02 27.91L246.02 27.91Q245.86 27.91 245.75 27.78Q245.64 27.65 245.64 27.50L245.64 27.50Q245.64 27.07 246.10 27.07L246.10 27.07Q246.31 27.07 246.53 27.10Q246.74 27.12 246.96 27.12L246.96 27.12Q247.25 27.12 247.25 26.83L247.25 26.83L247.25 18.77Q247.25 18.17 247.15 17.48Q247.06 16.80 246.70 16.31Q246.34 15.82 245.52 15.82L245.52 15.82Q245.02 15.82 244.46 16.20Q243.91 16.58 243.48 17.10Q243.05 17.62 242.86 18.05L242.86 18.05L242.86 26.57Q242.86 26.74 242.89 26.93Q242.93 27.12 243.17 27.12L243.17 27.12Q243.36 27.12 243.56 27.11Q243.77 27.10 243.96 27.10L243.96 27.10Q244.10 27.10 244.25 27.19Q244.39 27.29 244.39 27.46L244.39 27.46Q244.39 27.91 243.94 27.91L243.94 27.91Q243.26 27.91 242.59 27.86Q241.92 27.82 241.25 27.82L241.25 27.82Q240.50 27.82 239.77 27.86Q239.04 27.91 238.30 27.91L238.30 27.91Q238.13 27.91 238.02 27.78Q237.91 27.65 237.91 27.50L237.91 27.50Q237.91 27.07 238.37 27.07L238.37 27.07Q238.58 27.07 238.80 27.10Q239.02 27.12 239.23 27.12L239.23 27.12Q239.52 27.12 239.57 26.99Q239.62 26.86 239.62 26.57L239.62 26.57L239.62 17.11Q239.62 16.87 239.57 16.61Q239.52 16.34 239.18 16.34L239.18 16.34Q238.94 16.34 238.72 16.37Q238.49 16.39 238.25 16.39L238.25 16.39Q238.08 16.39 237.88 16.33Q237.67 16.27 237.67 16.06L237.67 16.06Q237.67 15.89 237.78 15.80Q237.89 15.72 238.03 15.70L238.03 15.70Q238.27 15.62 238.54 15.60Q238.80 15.58 239.04 15.55L239.04 15.55Q239.23 15.50 239.66 15.40Q240.10 15.29 240.59 15.16Q241.08 15.02 241.46 14.93Q241.85 14.83 241.92 14.83L241.92 14.83Q242.16 14.83 242.32 15.16Q242.47 15.48 242.57 15.86Q242.66 16.25 242.71 16.44L242.71 16.44Q243.41 15.84 244.43 15.40Q245.45 14.95 246.38 14.95L246.38 14.95Q248.02 14.95 248.94 15.36Q249.86 15.77 250.24 16.70Q250.61 17.64 250.61 19.22L250.61 19.22Q250.61 21.10 250.58 22.97Q250.56 24.84 250.56 26.71L250.56 26.71Q250.56 27.02 250.75 27.07Q250.94 27.12 251.18 27.12L251.18 27.12Q251.30 27.12 251.44 27.11Q251.57 27.10 251.69 27.10L251.69 27.10Q252.10 27.10 252.10 27.50ZM262.92 21.50L262.92 21.50Q262.92 20.76 262.82 19.75Q262.73 18.74 262.43 17.80Q262.13 16.85 261.52 16.21Q260.90 15.58 259.85 15.58L259.85 15.58Q258.89 15.58 258.31 16.20Q257.74 16.82 257.44 17.76Q257.14 18.70 257.03 19.66Q256.92 20.62 256.92 21.31L256.92 21.31Q256.92 22.06 257.02 23.06Q257.11 24.07 257.42 25.02Q257.74 25.97 258.36 26.59Q258.98 27.22 260.04 27.22L260.04 27.22Q261.05 27.22 261.62 26.60Q262.20 25.99 262.48 25.07Q262.75 24.14 262.84 23.17Q262.92 22.20 262.92 21.50ZM266.40 21.62L266.40 21.62Q266.40 23.45 265.56 24.88Q264.72 26.30 263.27 27.13Q261.82 27.96 259.92 27.96L259.92 27.96Q258.02 27.96 256.60 27.10Q255.17 26.23 254.38 24.76Q253.58 23.28 253.58 21.48L253.58 21.48Q253.58 19.61 254.38 18.11Q255.17 16.61 256.61 15.72Q258.05 14.83 260.02 14.83L260.02 14.83Q262.18 14.83 263.59 15.70Q265.01 16.56 265.70 18.10Q266.40 19.63 266.40 21.62ZM278.04 17.83L278.04 17.83Q278.04 18.07 277.88 18.28Q277.73 18.48 277.44 18.48L277.44 18.48Q276.96 18.48 276.82 18.14L276.82 18.14Q276.70 17.83 276.53 17.42Q276.36 17.02 276.11 16.70Q275.86 16.39 275.47 16.39L275.47 16.39Q275.26 16.39 275.06 16.49Q274.87 16.58 274.68 16.70L274.68 16.70Q273.94 17.23 273.41 18.22Q272.88 19.20 272.88 20.11L272.88 20.11L272.88 26.52Q272.88 27.10 273.34 27.10L273.34 27.10Q273.58 27.10 273.78 27.08Q273.98 27.07 274.15 27.07L274.15 27.07Q274.58 27.07 274.58 27.48L274.58 27.48Q274.58 27.89 274.13 27.89L274.13 27.89Q273.41 27.89 272.69 27.85Q271.97 27.82 271.25 27.82L271.25 27.82Q270.50 27.82 269.76 27.85Q269.02 27.89 268.25 27.89L268.25 27.89Q268.08 27.89 267.97 27.74Q267.86 27.60 267.86 27.46L267.86 27.46Q267.86 27.26 268.01 27.16Q268.15 27.05 268.32 27.05L268.32 27.05Q268.56 27.05 268.79 27.06Q269.02 27.07 269.26 27.07L269.26 27.07Q269.52 27.07 269.59 26.89Q269.66 26.71 269.66 26.50L269.66 26.50L269.66 17.90Q269.66 17.66 269.63 17.30Q269.59 16.94 269.45 16.66Q269.30 16.37 268.97 16.37L268.97 16.37Q268.73 16.37 268.50 16.43Q268.27 16.49 268.01 16.49L268.01 16.49Q267.58 16.49 267.58 16.10L267.58 16.10Q267.58 15.79 267.89 15.72L267.89 15.72Q268.22 15.62 268.58 15.58Q268.94 15.53 269.28 15.46L269.28 15.46Q269.64 15.36 270.12 15.24Q270.60 15.12 271.08 15.01Q271.56 14.90 271.87 14.90L271.87 14.90Q272.06 14.90 272.22 14.95Q272.38 15 272.47 15.17L272.47 15.17Q272.54 15.29 272.60 15.71Q272.66 16.13 272.71 16.56Q272.76 16.99 272.76 17.18L272.76 17.18Q273.58 16.18 274.50 15.50Q275.42 14.83 276.55 14.83L276.55 14.83Q276.89 14.83 277.33 14.94Q277.78 15.05 277.85 15.46L277.85 15.46Q277.90 15.74 277.94 16.25Q277.99 16.75 278.02 17.21Q278.04 17.66 278.04 17.83ZM299.59 27.53L299.59 27.53Q299.59 27.94 299.14 27.94L299.14 27.94Q298.46 27.94 297.77 27.88Q297.07 27.82 296.38 27.82L296.38 27.82Q295.68 27.82 294.98 27.88Q294.29 27.94 293.59 27.94L293.59 27.94Q293.42 27.94 293.32 27.79Q293.21 27.65 293.21 27.50L293.21 27.50Q293.21 27.26 293.36 27.18Q293.52 27.10 293.71 27.10L293.71 27.10Q293.90 27.10 294.10 27.11Q294.29 27.12 294.46 27.12L294.46 27.12Q294.67 27.12 294.72 27.01Q294.77 26.90 294.77 26.74L294.77 26.74L294.82 19.49Q294.82 18.86 294.79 18.08Q294.77 17.30 294.50 16.73L294.50 16.73Q294.31 16.25 294.04 16.04Q293.76 15.84 293.21 15.84L293.21 15.84Q292.78 15.84 292.31 16.08Q291.84 16.32 291.43 16.67Q291.02 17.02 290.78 17.33L290.78 17.33Q290.86 17.78 290.87 18.28Q290.88 18.77 290.88 19.25L290.88 19.25L290.88 26.57Q290.88 26.81 290.95 26.98Q291.02 27.14 291.31 27.14L291.31 27.14Q291.48 27.14 291.64 27.12Q291.79 27.10 291.96 27.10L291.96 27.10Q292.37 27.10 292.37 27.53L292.37 27.53Q292.37 27.94 291.91 27.94L291.91 27.94Q291.24 27.94 290.58 27.88Q289.92 27.82 289.25 27.82L289.25 27.82Q288.58 27.82 287.89 27.88Q287.21 27.94 286.51 27.94L286.51 27.94Q286.34 27.94 286.24 27.79Q286.13 27.65 286.13 27.50L286.13 27.50Q286.13 27.24 286.34 27.17Q286.56 27.10 286.84 27.12Q287.11 27.14 287.28 27.14L287.28 27.14Q287.57 27.14 287.63 26.99Q287.69 26.83 287.69 26.57L287.69 26.57Q287.69 24.79 287.68 23.03Q287.66 21.26 287.66 19.49L287.66 19.49Q287.66 18.86 287.63 18.08Q287.59 17.30 287.35 16.73L287.35 16.73Q287.14 16.18 286.84 16.03Q286.54 15.89 285.98 15.89L285.98 15.89Q285.70 15.89 285.25 16.19Q284.81 16.49 284.42 16.85Q284.04 17.21 283.85 17.45L283.85 17.45Q283.85 19.73 283.84 22.01Q283.82 24.29 283.82 26.57L283.82 26.57Q283.82 26.83 283.92 26.99Q284.02 27.14 284.28 27.14L284.28 27.14Q284.45 27.14 284.60 27.12Q284.76 27.10 284.93 27.10L284.93 27.10Q285.34 27.10 285.34 27.53L285.34 27.53Q285.34 27.94 284.88 27.94L284.88 27.94Q284.21 27.94 283.54 27.88Q282.86 27.82 282.17 27.82L282.17 27.82Q281.47 27.82 280.75 27.88Q280.03 27.94 279.34 27.94L279.34 27.94Q279.17 27.94 279.06 27.79Q278.95 27.65 278.95 27.50L278.95 27.50Q278.95 27.31 279.10 27.20Q279.24 27.10 279.41 27.10L279.41 27.10Q279.60 27.10 279.80 27.11Q280.01 27.12 280.20 27.12L280.20 27.12Q280.51 27.12 280.55 26.80Q280.58 26.47 280.58 26.26L280.58 26.26Q280.58 24 280.57 21.73Q280.56 19.46 280.56 17.21L280.56 17.21Q280.56 16.97 280.51 16.67Q280.46 16.37 280.13 16.37L280.13 16.37Q279.89 16.37 279.62 16.40Q279.36 16.44 279.10 16.44L279.10 16.44Q278.93 16.44 278.77 16.36Q278.62 16.27 278.62 16.08L278.62 16.08Q278.62 15.91 278.72 15.83Q278.83 15.74 278.98 15.72L278.98 15.72Q279.29 15.62 279.60 15.59Q279.91 15.55 280.22 15.50L280.22 15.50Q280.78 15.38 281.35 15.25Q281.93 15.12 282.46 14.95L282.46 14.95Q282.58 14.93 282.66 14.90Q282.74 14.88 282.84 14.88L282.84 14.88Q283.13 14.88 283.30 15.17L283.30 15.17Q283.44 15.41 283.51 15.73Q283.58 16.06 283.66 16.34L283.66 16.34Q284.47 15.67 285.37 15.31Q286.27 14.95 287.35 14.95L287.35 14.95Q288.24 14.95 289.09 15.31Q289.94 15.67 290.40 16.44L290.40 16.44Q291.17 15.72 292.13 15.32Q293.09 14.93 294.17 14.93L294.17 14.93Q295.80 14.93 296.65 15.38Q297.50 15.84 297.82 16.79Q298.13 17.74 298.10 19.25L298.10 19.25L298.06 26.57Q298.06 26.76 298.12 26.94Q298.18 27.12 298.42 27.12L298.42 27.12Q298.61 27.12 298.80 27.11Q298.99 27.10 299.18 27.10L299.18 27.10Q299.59 27.10 299.59 27.53ZM308.11 25.15L308.11 25.15Q308.04 24.02 308.02 22.92Q307.99 21.82 308.02 20.71L308.02 20.71Q307.06 20.88 306.16 21.32Q305.26 21.77 304.69 22.51Q304.13 23.26 304.13 24.36L304.13 24.36Q304.13 24.82 304.26 25.34Q304.39 25.87 304.72 26.24Q305.04 26.62 305.62 26.62L305.62 26.62Q306.02 26.62 306.50 26.36Q306.98 26.11 307.42 25.76Q307.85 25.42 308.11 25.15ZM313.20 26.50L313.20 26.50Q313.20 26.59 313.12 26.76Q313.03 26.93 312.96 27.02L312.96 27.02Q312.17 27.89 310.97 27.89L310.97 27.89Q309.02 27.89 308.33 26.09L308.33 26.09Q307.54 26.90 306.67 27.36Q305.81 27.82 304.66 27.82L304.66 27.82Q303.79 27.82 302.93 27.44Q302.06 27.07 301.49 26.38Q300.91 25.68 300.91 24.77L300.91 24.77Q300.91 23.86 301.38 23.14Q301.85 22.42 302.58 21.89Q303.31 21.36 304.06 21.02L304.06 21.02Q304.99 20.62 306.01 20.40Q307.03 20.18 308.02 19.94L308.02 19.94Q308.02 19.54 307.99 18.80Q307.97 18.07 307.85 17.32Q307.73 16.56 307.40 16.04Q307.08 15.53 306.46 15.53L306.46 15.53Q305.71 15.53 305.16 15.96Q304.61 16.39 304.39 17.06L304.39 17.06Q304.32 17.28 304.31 17.50Q304.30 17.71 304.25 17.93L304.25 17.93Q304.18 18.31 303.77 18.47Q303.36 18.62 303.02 18.62L303.02 18.62Q302.57 18.62 302.16 18.42Q301.75 18.22 301.75 17.71L301.75 17.71Q301.75 17.52 301.81 17.35Q301.87 17.18 301.94 17.02L301.94 17.02Q302.33 16.10 303.08 15.66Q303.84 15.22 304.79 15.07Q305.74 14.93 306.60 14.93L306.60 14.93Q308.62 14.93 309.90 16.00Q311.18 17.06 311.18 19.13L311.18 19.13Q311.18 20.16 311.18 21.20Q311.18 22.25 311.18 23.30L311.18 23.30Q311.18 23.86 311.20 24.40Q311.21 24.94 311.23 25.49L311.23 25.49Q311.26 25.85 311.40 26.23Q311.54 26.62 312 26.62L312 26.62Q312.19 26.62 312.34 26.56Q312.48 26.50 312.62 26.40L312.62 26.40Q312.72 26.35 312.80 26.30Q312.89 26.26 312.98 26.26L312.98 26.26Q313.20 26.26 313.20 26.50ZM321.02 27.48L321.02 27.48Q321.02 27.89 320.57 27.89L320.57 27.89Q319.82 27.89 319.07 27.84Q318.31 27.79 317.57 27.79L317.57 27.79Q316.80 27.79 315.97 27.85Q315.14 27.91 314.38 27.91L314.38 27.91Q314.21 27.91 314.10 27.77Q313.99 27.62 313.99 27.48L313.99 27.48Q313.99 27.29 314.14 27.18Q314.28 27.07 314.45 27.07L314.45 27.07Q314.69 27.07 314.96 27.08Q315.24 27.10 315.48 27.10L315.48 27.10Q315.74 27.10 315.84 26.92Q315.94 26.74 315.94 26.54L315.94 26.54L315.94 11.81Q315.94 11.57 315.86 11.24Q315.79 10.92 315.46 10.92L315.46 10.92Q315.24 10.92 314.93 10.98Q314.62 11.04 314.28 11.09L314.28 11.09Q314.09 11.11 313.99 10.98Q313.90 10.85 313.90 10.68L313.90 10.68Q313.90 10.51 314.02 10.43Q314.14 10.34 314.28 10.32L314.28 10.32Q314.90 10.18 315.53 10.06L315.53 10.06Q316.18 9.91 316.96 9.70Q317.74 9.48 318.46 9.31L318.46 9.31Q318.65 9.26 318.79 9.26L318.79 9.26Q318.96 9.26 319.10 9.34Q319.25 9.41 319.25 9.60L319.25 9.60Q319.25 13.85 319.22 18.07Q319.20 22.30 319.20 26.52L319.20 26.52Q319.20 26.74 319.32 26.90Q319.44 27.07 319.68 27.07L319.68 27.07Q319.92 27.07 320.15 27.06Q320.38 27.05 320.62 27.05L320.62 27.05Q321.02 27.05 321.02 27.48Z"/></svg>