<svg xmlns="http://www.w3.org/2000/svg" xmlns:xlink="http://www.w3.org/1999/xlink" width="131.28" height="24.288"><path fill="black" d="M2.88 20.62L0.60 20.62L0.60 6.05L0.24 6.05L0.48 3.82L2.88 3.82L2.88 8.50L4.97 3.82L7.49 3.82L4.46 10.58L7.73 20.62L5.21 20.62L2.88 13.46L2.88 20.62ZM11.28 20.62L10.63 20.62Q9.53 20.62 8.87 19.98Q8.21 19.34 8.21 18.38L8.21 18.38L8.21 10.85Q8.21 9.86 8.87 9.24Q9.53 8.62 10.63 8.62L10.63 8.62L10.73 8.62Q11.38 8.62 11.88 8.93L11.88 8.93L11.88 8.62L14.16 8.62L14.16 18.38L14.50 18.38L14.74 20.62L11.88 20.62L11.88 19.68L11.28 20.62ZM11.88 10.85L10.61 10.85Q10.49 10.85 10.49 10.97L10.49 10.97L10.49 18.26Q10.49 18.38 10.61 18.38L10.61 18.38L11.88 18.38L11.88 10.85ZM15.46 8.62L18.07 8.62L18.07 9.67L18.72 8.62L20.33 8.62L20.33 10.94L18.07 10.94L18.07 20.62L15.79 20.62L15.79 10.85L15.22 10.85L15.46 8.62ZM24.00 20.62L23.35 20.62Q22.25 20.62 21.59 19.98Q20.93 19.34 20.93 18.38L20.93 18.38L20.93 10.85Q20.93 9.86 21.59 9.24Q22.25 8.62 23.35 8.62L23.35 8.62L23.45 8.62Q24.10 8.62 24.60 8.93L24.60 8.93L24.60 8.62L26.88 8.62L26.88 18.38L27.22 18.38L27.46 20.62L24.60 20.62L24.60 19.68L24.00 20.62ZM24.60 10.85L23.33 10.85Q23.21 10.85 23.21 10.97L23.21 10.97L23.21 18.26Q23.21 18.38 23.33 18.38L23.33 18.38L24.60 18.38L24.60 10.85ZM30.67 20.62L28.39 20.62L28.39 10.85L27.82 10.85L28.06 8.62L30.67 8.62L30.67 9.55L31.27 8.62L31.92 8.62Q33.02 8.62 33.68 9.24Q34.34 9.86 34.34 10.85L34.34 10.85L34.34 18.38L34.94 18.38L34.70 20.62L32.06 20.62L32.06 10.97Q32.06 10.85 31.94 10.85L31.94 10.85L30.67 10.85L30.67 20.62ZM38.23 18.38L39.60 18.38L39.60 20.62L38.21 20.62Q37.20 20.62 36.58 20.00Q35.95 19.39 35.95 18.38L35.95 18.38L35.95 10.85L34.94 10.85L35.14 8.62L35.95 8.62L35.95 6.05L35.35 6.05L35.54 3.82L38.23 3.82L38.23 8.62L39.60 8.62L39.41 10.85L38.23 10.85L38.23 18.38ZM40.44 5.42L42.48 5.42L42.72 7.66L40.44 7.66L40.44 5.42ZM40.32 8.62L42.72 8.62L42.72 20.62L40.44 20.62L40.44 10.85L40.08 10.85L40.32 8.62ZM46.30 20.62L44.02 20.62L44.02 10.85L43.44 10.85L43.68 8.62L46.30 8.62L46.30 9.55L46.90 8.62L47.54 8.62Q48.65 8.62 49.31 9.24Q49.97 9.86 49.97 10.85L49.97 10.85L49.97 18.38L50.57 18.38L50.33 20.62L47.69 20.62L47.69 10.97Q47.69 10.85 47.57 10.85L47.57 10.85L46.30 10.85L46.30 20.62ZM54.24 20.62L53.59 20.62Q52.49 20.62 51.83 19.98Q51.17 19.34 51.17 18.38L51.17 18.38L51.17 10.85Q51.17 9.86 51.83 9.24Q52.49 8.62 53.59 8.62L53.59 8.62L53.69 8.62Q54.34 8.62 54.84 8.93L54.84 8.93L54.84 8.62L57.12 8.62L57.12 18.38L57.46 18.38L57.70 20.62L54.84 20.62L54.84 19.68L54.24 20.62ZM54.84 10.85L53.57 10.85Q53.45 10.85 53.45 10.97L53.45 10.97L53.45 18.26Q53.45 18.38 53.57 18.38L53.57 18.38L54.84 18.38L54.84 10.85ZM69.41 18.38L70.10 18.38L70.10 20.62L66.41 20.62L66.41 18.38L67.13 18.38L67.13 16.68L65.02 16.68Q63.82 16.68 63.20 15.95Q62.59 15.22 62.78 14.04L62.78 14.04L64.06 6.22L66.29 6.22L65.11 14.45L67.13 14.45L67.13 6.22L69.41 6.22L69.41 14.45L70.10 14.45L70.10 16.68L69.41 16.68L69.41 18.38ZM73.32 6.12L74.59 6.12Q75.58 6.12 76.21 6.74Q76.85 7.37 76.85 8.35L76.85 8.35L76.85 18.38Q76.85 19.34 76.21 19.98Q75.58 20.62 74.59 20.62L74.59 20.62L73.32 20.62Q72.34 20.62 71.70 19.98Q71.06 19.34 71.06 18.38L71.06 18.38L71.06 8.35Q71.06 7.37 71.69 6.73Q72.31 6.10 73.32 6.12L73.32 6.12ZM73.34 8.47L73.30 18.26Q73.30 18.38 73.42 18.38L73.42 18.38L74.54 18.38Q74.66 18.38 74.66 18.26L74.66 18.26L74.66 8.47Q74.66 8.35 74.54 8.35L74.54 8.35L73.46 8.35Q73.34 8.35 73.34 8.47L73.34 8.47ZM80.06 6.12L81.34 6.12Q82.32 6.12 82.96 6.74Q83.59 7.37 83.59 8.35L83.59 8.35L83.59 18.38Q83.59 19.34 82.96 19.98Q82.32 20.62 81.34 20.62L81.34 20.62L80.06 20.62Q79.08 20.62 78.44 19.98Q77.81 19.34 77.81 18.38L77.81 18.38L77.81 8.35Q77.81 7.37 78.43 6.73Q79.06 6.10 80.06 6.12L80.06 6.12ZM80.09 8.47L80.04 18.26Q80.04 18.38 80.16 18.38L80.16 18.38L81.29 18.38Q81.41 18.38 81.41 18.26L81.41 18.26L81.41 8.47Q81.41 8.35 81.29 8.35L81.29 8.35L80.21 8.35Q80.09 8.35 80.09 8.47L80.09 8.47ZM91.49 20.62L89.21 20.62L89.21 10.85L88.63 10.85L88.87 8.62L91.49 8.62L91.49 9.55L92.09 8.62L92.74 8.62Q93.84 8.62 94.50 9.24Q95.16 9.86 95.16 10.85L95.16 10.85L95.16 18.38L95.76 18.38L95.52 20.62L92.88 20.62L92.88 10.97Q92.88 10.85 92.76 10.85L92.76 10.85L91.49 10.85L91.49 20.62ZM100.20 18.38L100.20 10.87Q100.20 10.75 100.08 10.75L100.08 10.75L98.64 10.75Q98.52 10.75 98.52 10.87L98.52 10.87L98.52 18.36Q98.52 18.48 98.64 18.48L98.64 18.48L100.08 18.48Q100.20 18.48 100.20 18.38L100.20 18.38ZM96.24 18.48L96.24 18.48L96.24 10.75Q96.24 9.74 96.86 9.13Q97.49 8.52 98.50 8.52L98.50 8.52L100.22 8.52Q101.23 8.52 101.86 9.13Q102.48 9.74 102.48 10.75L102.48 10.75L102.48 18.48Q102.48 19.49 101.86 20.10Q101.23 20.71 100.22 20.71L100.22 20.71L98.50 20.71Q97.49 20.71 96.86 20.10Q96.24 19.49 96.24 18.48ZM103.44 8.62L106.06 8.62L106.06 9.67L106.70 8.62L108.31 8.62L108.31 10.94L106.06 10.94L106.06 20.62L103.78 20.62L103.78 10.85L103.20 10.85L103.44 8.62ZM115.56 10.85L115.56 20.62L113.28 20.62L113.28 10.97Q113.28 10.85 113.16 10.85L113.16 10.85L111.89 10.85L111.89 20.62L109.61 20.62L109.61 10.85L109.03 10.85L109.27 8.62L111.89 8.62L111.89 9.55L112.49 8.62L113.14 8.62Q113.93 8.62 114.50 8.95Q115.08 9.29 115.34 9.86L115.34 9.86L116.16 8.62L116.81 8.62Q117.91 8.62 118.57 9.24Q119.23 9.86 119.23 10.85L119.23 10.85L119.23 18.38L119.81 18.38L119.57 20.62L116.95 20.62L116.95 10.97Q116.95 10.85 116.83 10.85L116.83 10.85L115.56 10.85ZM123.60 20.62L122.95 20.62Q121.85 20.62 121.19 19.98Q120.53 19.34 120.53 18.38L120.53 18.38L120.53 10.85Q120.53 9.86 121.19 9.24Q121.85 8.62 122.95 8.62L122.95 8.62L123.05 8.62Q123.70 8.62 124.20 8.93L124.20 8.93L124.20 8.62L126.48 8.62L126.48 18.38L126.82 18.38L127.06 20.62L124.20 20.62L124.20 19.68L123.60 20.62ZM124.20 10.85L122.93 10.85Q122.81 10.85 122.81 10.97L122.81 10.97L122.81 18.26Q122.81 18.38 122.93 18.38L122.93 18.38L124.20 18.38L124.20 10.85ZM127.66 3.82L130.18 3.82L130.20 18.38L130.80 18.38L131.04 20.62L127.92 20.62L127.90 6.05L127.42 6.05L127.66 3.82Z"/></svg>