<svg xmlns="http://www.w3.org/2000/svg" xmlns:xlink="http://www.w3.org/1999/xlink" width="212.976" height="28.8"><path fill="black" d="M9.36 23.04L9.36 23.04Q6.89 23.04 5.10 21.97Q3.31 20.90 2.36 19.04Q1.42 17.18 1.42 14.78L1.42 14.78Q1.42 12.38 2.36 10.52Q3.31 8.66 5.10 7.60Q6.89 6.53 9.36 6.53L9.36 6.53Q11.09 6.53 12.60 7.03Q14.11 7.54 15.19 8.45L15.19 8.45L14.54 9.53Q13.51 8.74 12.19 8.27Q10.87 7.80 9.36 7.80L9.36 7.80Q7.34 7.80 5.89 8.68Q4.44 9.55 3.66 11.12Q2.88 12.70 2.88 14.78L2.88 14.78Q2.88 16.87 3.66 18.44Q4.44 20.02 5.89 20.89Q7.34 21.77 9.36 21.77L9.36 21.77Q11.06 21.77 12.34 21.16Q13.61 20.54 14.45 19.42L14.45 19.42L14.45 15.65L9.12 15.65L9.12 14.38L15.86 14.38L15.86 19.90Q14.83 21.38 13.19 22.21Q11.54 23.04 9.36 23.04ZM22.97 23.04L22.97 23.04Q21.62 23.04 20.66 22.63Q19.70 22.22 19.20 21.47Q18.70 20.71 18.70 19.70L18.70 19.70Q18.70 18.67 19.21 18Q19.73 17.33 20.69 16.92Q21.65 16.51 22.97 16.34L22.97 16.34L27.29 15.82Q27.22 14.11 26.27 13.30Q25.32 12.48 23.66 12.48L23.66 12.48Q22.73 12.48 21.89 12.83Q21.05 13.18 20.11 13.94L20.11 13.94L19.51 12.94Q20.28 12.19 21.35 11.74Q22.42 11.28 23.66 11.28L23.66 11.28Q26.14 11.28 27.37 12.48Q28.61 13.68 28.61 15.94L28.61 15.94L28.61 22.80L27.31 22.80L27.31 20.78Q26.66 21.91 25.54 22.48Q24.41 23.04 22.97 23.04ZM23.16 21.86L23.16 21.86Q24.50 21.86 25.42 21.30Q26.33 20.74 26.81 19.85Q27.29 18.96 27.29 18.02L27.29 18.02L27.29 16.94L23.23 17.45Q21.72 17.62 20.89 18.12Q20.06 18.62 20.06 19.68L20.06 19.68Q20.06 20.69 20.88 21.28Q21.70 21.86 23.16 21.86ZM34.15 22.80L32.81 22.80L32.81 11.52L34.10 11.52L34.10 13.66Q34.61 12.55 35.64 11.92Q36.67 11.28 38.14 11.28L38.14 11.28Q40.10 11.28 41.20 12.40Q42.29 13.51 42.29 15.91L42.29 15.91L42.29 22.80L40.97 22.80L40.97 16.01Q40.97 14.14 40.20 13.31Q39.43 12.48 37.90 12.48L37.90 12.48Q36.07 12.48 35.11 13.73Q34.15 14.98 34.15 17.09L34.15 17.09L34.15 22.80ZM50.50 22.94L50.50 22.94Q48.98 22.94 48.20 22.19Q47.42 21.43 47.42 19.82L47.42 19.82L47.42 12.70L44.81 12.70L44.81 11.52L47.42 11.52L47.42 8.30L48.77 8.30L48.77 11.52L51.84 11.52L51.84 12.70L48.77 12.70L48.77 19.75Q48.77 20.81 49.26 21.29Q49.75 21.77 50.69 21.77L50.69 21.77Q50.98 21.77 51.31 21.74Q51.65 21.72 51.84 21.67L51.84 21.67L51.84 22.78Q51.62 22.87 51.24 22.91Q50.86 22.94 50.50 22.94ZM58.58 23.04L58.58 23.04Q57.24 23.04 56.28 22.63Q55.32 22.22 54.82 21.47Q54.31 20.71 54.31 19.70L54.31 19.70Q54.31 18.67 54.83 18Q55.34 17.33 56.30 16.92Q57.26 16.51 58.58 16.34L58.58 16.34L62.90 15.82Q62.83 14.11 61.88 13.30Q60.94 12.48 59.28 12.48L59.28 12.48Q58.34 12.48 57.50 12.83Q56.66 13.18 55.73 13.94L55.73 13.94L55.13 12.94Q55.90 12.19 56.96 11.74Q58.03 11.28 59.28 11.28L59.28 11.28Q61.75 11.28 62.99 12.48Q64.22 13.68 64.22 15.94L64.22 15.94L64.22 22.80L62.93 22.80L62.93 20.78Q62.28 21.91 61.15 22.48Q60.02 23.04 58.58 23.04ZM58.78 21.86L58.78 21.86Q60.12 21.86 61.03 21.30Q61.94 20.74 62.42 19.85Q62.90 18.96 62.90 18.02L62.90 18.02L62.90 16.94L58.85 17.45Q57.34 17.62 56.51 18.12Q55.68 18.62 55.68 19.68L55.68 19.68Q55.68 20.69 56.50 21.28Q57.31 21.86 58.78 21.86ZM69.77 22.80L68.42 22.80L68.42 11.52L69.72 11.52L69.72 13.92Q70.18 12.70 71.05 12.04Q71.93 11.38 73.08 11.38L73.08 11.38Q73.42 11.38 73.70 11.41Q73.99 11.45 74.16 11.52L74.16 11.52L74.16 12.74Q73.87 12.67 73.58 12.65Q73.30 12.62 72.98 12.62L72.98 12.62Q71.59 12.62 70.68 13.87Q69.77 15.12 69.77 17.35L69.77 17.35L69.77 22.80ZM78.46 22.80L77.11 22.80L77.11 11.52L78.46 11.52L78.46 22.80ZM77.78 8.69L77.78 8.69Q77.38 8.69 77.12 8.46Q76.87 8.23 76.87 7.85L76.87 7.85Q76.87 7.46 77.12 7.24Q77.38 7.01 77.78 7.01L77.78 7.01Q78.19 7.01 78.44 7.24Q78.70 7.46 78.70 7.85L78.70 7.85Q78.70 8.23 78.44 8.46Q78.19 8.69 77.78 8.69ZM93.22 23.04L93.22 23.04Q91.56 23.04 90.31 22.51Q89.06 21.98 87.96 20.83L87.96 20.83L88.61 19.80Q89.69 20.93 90.85 21.40Q92.02 21.86 93.22 21.86L93.22 21.86Q95.11 21.86 96.28 20.94Q97.44 20.02 97.44 18.48L97.44 18.48Q97.44 16.97 96.28 16.04Q95.11 15.12 93.22 15.12L93.22 15.12L91.49 15.12L91.49 13.97L93.22 13.97Q94.94 13.97 96.07 13.16Q97.20 12.36 97.20 10.85L97.20 10.85Q97.20 9.34 96.07 8.53Q94.94 7.73 93.22 7.73L93.22 7.73Q91.97 7.73 90.95 8.18Q89.93 8.64 88.85 9.77L88.85 9.77L88.20 8.76Q89.30 7.58 90.47 7.06Q91.63 6.53 93.22 6.53L93.22 6.53Q94.85 6.53 96.07 7.08Q97.30 7.63 97.98 8.59Q98.66 9.55 98.66 10.78L98.66 10.78Q98.66 12.14 97.76 13.14Q96.86 14.14 95.33 14.54L95.33 14.54Q97.01 14.95 97.96 16.01Q98.90 17.06 98.90 18.55L98.90 18.55Q98.90 19.87 98.21 20.88Q97.51 21.89 96.24 22.46Q94.97 23.04 93.22 23.04ZM108.02 23.04L108.02 23.04Q106.01 23.04 104.60 21.97Q103.20 20.90 102.47 19.04Q101.74 17.18 101.74 14.78L101.74 14.78Q101.74 12.38 102.47 10.52Q103.20 8.66 104.60 7.60Q106.01 6.53 108.02 6.53L108.02 6.53Q110.04 6.53 111.44 7.60Q112.85 8.66 113.58 10.52Q114.31 12.38 114.31 14.78L114.31 14.78Q114.31 17.18 113.58 19.04Q112.85 20.90 111.44 21.97Q110.04 23.04 108.02 23.04ZM108.02 21.86L108.02 21.86Q109.42 21.86 110.51 21.07Q111.60 20.28 112.22 18.71Q112.85 17.14 112.85 14.78L112.85 14.78Q112.85 12.43 112.22 10.87Q111.60 9.31 110.51 8.52Q109.42 7.73 108.02 7.73L108.02 7.73Q106.63 7.73 105.54 8.52Q104.45 9.31 103.82 10.87Q103.20 12.43 103.20 14.78L103.20 14.78Q103.20 17.14 103.82 18.71Q104.45 20.28 105.54 21.07Q106.63 21.86 108.02 21.86ZM123.43 23.04L123.43 23.04Q121.42 23.04 120.01 21.97Q118.61 20.90 117.88 19.04Q117.14 17.18 117.14 14.78L117.14 14.78Q117.14 12.38 117.88 10.52Q118.61 8.66 120.01 7.60Q121.42 6.53 123.43 6.53L123.43 6.53Q125.45 6.53 126.85 7.60Q128.26 8.66 128.99 10.52Q129.72 12.38 129.72 14.78L129.72 14.78Q129.72 17.18 128.99 19.04Q128.26 20.90 126.85 21.97Q125.45 23.04 123.43 23.04ZM123.43 21.86L123.43 21.86Q124.82 21.86 125.92 21.07Q127.01 20.28 127.63 18.71Q128.26 17.14 128.26 14.78L128.26 14.78Q128.26 12.43 127.63 10.87Q127.01 9.31 125.92 8.52Q124.82 7.73 123.43 7.73L123.43 7.73Q122.04 7.73 120.95 8.52Q119.86 9.31 119.23 10.87Q118.61 12.43 118.61 14.78L118.61 14.78Q118.61 17.14 119.23 18.71Q119.86 20.28 120.95 21.07Q122.04 21.86 123.43 21.86ZM140.57 22.80L139.22 22.80L139.22 11.52L140.52 11.52L140.52 13.66Q141.02 12.55 142.06 11.92Q143.09 11.28 144.55 11.28L144.55 11.28Q146.52 11.28 147.61 12.40Q148.70 13.51 148.70 15.91L148.70 15.91L148.70 22.80L147.38 22.80L147.38 16.01Q147.38 14.14 146.62 13.31Q145.85 12.48 144.31 12.48L144.31 12.48Q142.49 12.48 141.53 13.73Q140.57 14.98 140.57 17.09L140.57 17.09L140.57 22.80ZM157.90 23.04L157.90 23.04Q156.22 23.04 154.94 22.32Q153.67 21.60 152.95 20.28Q152.23 18.96 152.23 17.16L152.23 17.16Q152.23 15.38 152.95 14.06Q153.67 12.74 154.94 12.01Q156.22 11.28 157.90 11.28L157.90 11.28Q159.58 11.28 160.85 12.01Q162.12 12.74 162.84 14.06Q163.56 15.38 163.56 17.16L163.56 17.16Q163.56 18.96 162.84 20.28Q162.12 21.60 160.85 22.32Q159.58 23.04 157.90 23.04ZM157.90 21.86L157.90 21.86Q159.19 21.86 160.15 21.30Q161.11 20.74 161.64 19.68Q162.17 18.62 162.17 17.16L162.17 17.16Q162.17 15.70 161.63 14.65Q161.09 13.61 160.13 13.04Q159.17 12.48 157.90 12.48L157.90 12.48Q156.60 12.48 155.64 13.04Q154.68 13.61 154.14 14.65Q153.60 15.70 153.60 17.16L153.60 17.16Q153.60 18.62 154.14 19.68Q154.68 20.74 155.64 21.30Q156.60 21.86 157.90 21.86ZM168.41 22.80L167.06 22.80L167.06 11.52L168.36 11.52L168.36 13.92Q168.82 12.70 169.69 12.04Q170.57 11.38 171.72 11.38L171.72 11.38Q172.06 11.38 172.34 11.41Q172.63 11.45 172.80 11.52L172.80 11.52L172.80 12.74Q172.51 12.67 172.22 12.65Q171.94 12.62 171.62 12.62L171.62 12.62Q170.23 12.62 169.32 13.87Q168.41 15.12 168.41 17.35L168.41 17.35L168.41 22.80ZM177.10 22.80L175.75 22.80L175.75 11.52L177.05 11.52L177.05 13.44Q177.53 12.43 178.39 11.86Q179.26 11.28 180.53 11.28L180.53 11.28Q181.92 11.28 182.83 11.94Q183.74 12.60 184.10 13.75L184.10 13.75Q184.63 12.50 185.62 11.89Q186.60 11.28 187.87 11.28L187.87 11.28Q189.70 11.28 190.80 12.40Q191.90 13.51 191.90 15.91L191.90 15.91L191.90 22.80L190.58 22.80L190.58 16.01Q190.58 14.14 189.82 13.31Q189.05 12.48 187.68 12.48L187.68 12.48Q186.10 12.48 185.29 13.73Q184.49 14.98 184.49 17.09L184.49 17.09L184.49 22.80L183.17 22.80L183.17 16.01Q183.17 14.14 182.41 13.31Q181.66 12.48 180.29 12.48L180.29 12.48Q178.70 12.48 177.90 13.73Q177.10 14.98 177.10 17.09L177.10 17.09L177.10 22.80ZM199.70 23.04L199.70 23.04Q198.36 23.04 197.40 22.63Q196.44 22.22 195.94 21.47Q195.43 20.71 195.43 19.70L195.43 19.70Q195.43 18.67 195.95 18Q196.46 17.33 197.42 16.92Q198.38 16.51 199.70 16.34L199.70 16.34L204.02 15.82Q203.95 14.11 203.00 13.30Q202.06 12.48 200.40 12.48L200.40 12.48Q199.46 12.48 198.62 12.83Q197.78 13.18 196.85 13.94L196.85 13.94L196.25 12.94Q197.02 12.19 198.08 11.74Q199.15 11.28 200.40 11.28L200.40 11.28Q202.87 11.28 204.11 12.48Q205.34 13.68 205.34 15.94L205.34 15.94L205.34 22.80L204.05 22.80L204.05 20.78Q203.40 21.91 202.27 22.48Q201.14 23.04 199.70 23.04ZM199.90 21.86L199.90 21.86Q201.24 21.86 202.15 21.30Q203.06 20.74 203.54 19.85Q204.02 18.96 204.02 18.02L204.02 18.02L204.02 16.94L199.97 17.45Q198.46 17.62 197.63 18.12Q196.80 18.62 196.80 19.68L196.80 19.68Q196.80 20.69 197.62 21.28Q198.43 21.86 199.90 21.86ZM210.89 22.80L209.54 22.80L209.54 6.77L210.89 6.77L210.89 22.80Z"/></svg>