<svg xmlns="http://www.w3.org/2000/svg" xmlns:xlink="http://www.w3.org/1999/xlink" width="271.6640625" height="29.765625"><path fill="black" d="M3.89 19.61L3.89 23.67L1.82 23.67L1.82 6.09L3.88 6.09L3.88 16.69Q4.25 16.14 4.61 15.65Q4.97 15.16 5.24 14.82L5.24 14.82L12.18 6.09L14.64 6.09L8.23 14.14L15.96 23.67L13.28 23.67L6.90 15.81L3.89 19.61ZM28.69 11.95L28.69 23.67L27 23.67L26.93 21.77Q26.29 22.80 25.24 23.36Q24.19 23.91 22.76 23.91L22.76 23.91Q20.43 23.91 19.07 22.49Q17.72 21.08 17.72 18.63L17.72 18.63L17.72 11.95L19.64 11.95L19.64 18.49Q19.64 20.16 20.58 21.15Q21.53 22.15 23.10 22.15L23.10 22.15Q24.74 22.15 25.75 21.07Q26.77 19.99 26.77 18.26L26.77 18.26L26.77 11.95L28.69 11.95ZM50.87 16.98L50.87 23.67L48.95 23.67L48.95 17.43Q48.95 15.54 48.12 14.49Q47.30 13.44 45.80 13.44L45.80 13.44Q44.29 13.44 43.42 14.50Q42.56 15.56 42.56 17.43L42.56 17.43L42.56 23.67L40.64 23.67L40.64 17.43Q40.64 15.54 39.81 14.49Q38.98 13.44 37.48 13.44L37.48 13.44Q35.96 13.44 35.10 14.50Q34.24 15.56 34.24 17.43L34.24 17.43L34.24 23.67L32.32 23.67L32.32 11.95L33.89 11.95L33.97 14.05Q34.56 12.90 35.57 12.31Q36.59 11.72 37.97 11.72L37.97 11.72Q39.45 11.72 40.49 12.38Q41.54 13.04 42.06 14.27L42.06 14.27Q42.63 13.02 43.69 12.37Q44.75 11.72 46.23 11.72L46.23 11.72Q48.42 11.72 49.65 13.11Q50.87 14.50 50.87 16.98L50.87 16.98ZM56.07 21.96L55.98 23.67L54.27 23.67L54.27 6.09L56.19 6.09L56.19 13.54Q57.01 12.68 58.14 12.20Q59.26 11.72 60.59 11.72L60.59 11.72Q62.32 11.72 63.68 12.52Q65.04 13.31 65.83 14.69Q66.62 16.07 66.62 17.81L66.62 17.81Q66.62 19.55 65.83 20.93Q65.04 22.31 63.68 23.11Q62.32 23.91 60.59 23.91L60.59 23.91Q59.20 23.91 58.05 23.38Q56.89 22.86 56.07 21.96L56.07 21.96ZM60.42 22.17L60.42 22.17Q61.63 22.17 62.58 21.60Q63.54 21.04 64.10 20.05Q64.65 19.07 64.65 17.82L64.65 17.82Q64.65 16.57 64.10 15.58Q63.54 14.59 62.58 14.02Q61.63 13.44 60.42 13.44L60.42 13.44Q59.27 13.44 58.34 13.97Q57.41 14.50 56.84 15.41Q56.27 16.32 56.19 17.48L56.19 17.48L56.19 18.13Q56.27 19.29 56.84 20.20Q57.40 21.12 58.33 21.64Q59.26 22.17 60.42 22.17ZM71.24 23.67L69.32 23.67L69.32 6.09L71.24 6.09L71.24 13.71Q72.56 11.72 75.34 11.72L75.34 11.72Q77.67 11.72 78.98 13.11Q80.29 14.50 80.29 16.98L80.29 16.98L80.29 23.67L78.36 23.67L78.36 17.43Q78.36 15.54 77.43 14.49Q76.50 13.44 74.84 13.44L74.84 13.44Q73.16 13.44 72.20 14.51Q71.24 15.57 71.24 17.43L71.24 17.43L71.24 23.67ZM88.72 21.96L88.72 21.96L89.72 20.38Q90.48 21 91.24 21.41Q92.00 21.82 92.79 22.02Q93.59 22.22 94.41 22.22L94.41 22.22Q95.60 22.22 96.50 21.82Q97.39 21.42 97.90 20.71Q98.40 20.00 98.40 19.08L98.40 19.08Q98.40 18.07 97.83 17.41Q97.27 16.75 96.36 16.28Q95.46 15.81 94.44 15.39L94.44 15.39Q93.59 15.02 92.74 14.61Q91.90 14.20 91.21 13.66Q90.53 13.11 90.12 12.34Q89.71 11.57 89.71 10.48L89.71 10.48Q89.71 9.08 90.41 8.02Q91.11 6.95 92.36 6.35Q93.61 5.75 95.24 5.75L95.24 5.75Q96.34 5.75 97.45 6.04Q98.57 6.33 99.61 6.88L99.61 6.88L98.77 8.57Q97.95 8.09 97.05 7.83Q96.15 7.57 95.29 7.57L95.29 7.57Q94.25 7.57 93.47 7.92Q92.70 8.26 92.26 8.88Q91.82 9.49 91.82 10.31L91.82 10.31Q91.82 11.23 92.35 11.85Q92.88 12.47 93.73 12.92Q94.58 13.37 95.53 13.79L95.53 13.79Q96.43 14.19 97.32 14.63Q98.20 15.07 98.92 15.66Q99.64 16.25 100.08 17.07Q100.51 17.89 100.51 19.05L100.51 19.05Q100.51 20.54 99.76 21.66Q99.01 22.78 97.66 23.40Q96.30 24.02 94.49 24.02L94.49 24.02Q92.89 24.02 91.45 23.51Q90.01 22.99 88.72 21.96ZM113.02 16.76L113.02 23.67L111.36 23.67L111.23 22.13Q110.59 22.96 109.59 23.43Q108.60 23.91 107.37 23.91L107.37 23.91Q106.10 23.91 105.11 23.41Q104.11 22.91 103.54 22.04Q102.97 21.18 102.97 20.07L102.97 20.07Q102.97 18.91 103.59 18.03Q104.20 17.14 105.26 16.64Q106.32 16.14 107.67 16.14L107.67 16.14Q108.55 16.14 109.46 16.35Q110.38 16.57 111.09 16.95L111.09 16.95L111.09 16.45Q111.09 15.52 110.63 14.85Q110.16 14.19 109.37 13.83Q108.59 13.48 107.64 13.48L107.64 13.48Q106.82 13.48 105.96 13.78Q105.11 14.07 104.32 14.70L104.32 14.70L103.69 13.04Q104.71 12.39 105.83 12.05Q106.96 11.72 108.06 11.72L108.06 11.72Q109.58 11.72 110.69 12.33Q111.80 12.95 112.41 14.08Q113.02 15.21 113.02 16.76L113.02 16.76ZM107.71 22.15L107.71 22.15Q108.61 22.15 109.36 21.77Q110.11 21.40 110.58 20.69Q111.05 19.98 111.09 19.01L111.09 19.01L111.09 18.81Q110.45 18.30 109.65 18.03Q108.84 17.75 108.01 17.75L108.01 17.75Q106.71 17.75 105.84 18.39Q104.96 19.02 104.96 19.99L104.96 19.99Q104.96 20.60 105.32 21.09Q105.68 21.59 106.30 21.87Q106.92 22.15 107.71 22.15ZM127.38 16.70L127.38 23.67L125.46 23.67L125.46 16.91Q125.46 15.33 124.58 14.40Q123.69 13.48 122.17 13.48L122.17 13.48Q121.08 13.48 120.21 13.96Q119.34 14.45 118.84 15.33Q118.34 16.21 118.34 17.37L118.34 17.37L118.34 23.67L116.41 23.67L116.41 11.95L118.09 11.95L118.16 13.85Q118.80 12.82 119.95 12.27Q121.09 11.72 122.52 11.72L122.52 11.72Q124.76 11.72 126.07 13.07Q127.38 14.41 127.38 16.70L127.38 16.70ZM129.96 22.65L129.96 22.65L130.46 20.85Q130.89 21.25 131.43 21.54Q131.96 21.83 132.56 21.99Q133.16 22.15 133.77 22.15L133.77 22.15Q134.86 22.15 135.53 21.67Q136.20 21.19 136.20 20.41L136.20 20.41Q136.20 19.85 135.85 19.48Q135.50 19.11 134.94 18.84Q134.38 18.57 133.73 18.33L133.73 18.33Q132.95 18.02 132.18 17.64Q131.40 17.25 130.89 16.62Q130.38 15.98 130.38 14.95L130.38 14.95Q130.38 13.97 130.88 13.24Q131.37 12.52 132.25 12.12Q133.14 11.72 134.29 11.72L134.29 11.72Q136.02 11.72 137.70 12.59L137.70 12.59L137.12 14.32Q136.75 14.07 136.25 13.88Q135.76 13.69 135.25 13.58Q134.73 13.48 134.27 13.48L134.27 13.48Q133.42 13.48 132.89 13.87Q132.36 14.26 132.36 14.92L132.36 14.92Q132.36 15.29 132.58 15.60Q132.80 15.91 133.31 16.22Q133.83 16.52 134.74 16.90L134.74 16.90Q135.55 17.23 136.34 17.64Q137.12 18.06 137.64 18.71Q138.16 19.36 138.16 20.40L138.16 20.40Q138.16 21.43 137.62 22.22Q137.07 23.02 136.11 23.46Q135.14 23.91 133.88 23.91L133.88 23.91Q131.78 23.91 129.96 22.65ZM156.81 19.48L156.81 23.67L154.75 23.67L154.75 19.48L145.90 19.48L145.90 17.85L154.76 6.09L156.81 6.09L156.81 17.66L158.95 17.66L158.95 19.48L156.81 19.48ZM154.75 9.02L148.24 17.66L154.75 17.66L154.75 9.02ZM166.78 24.02L166.78 24.02Q164.93 24.02 163.59 22.95Q162.26 21.88 161.54 19.83Q160.83 17.79 160.83 14.87L160.83 14.87Q160.83 11.96 161.54 9.93Q162.26 7.89 163.59 6.81Q164.93 5.74 166.78 5.74L166.78 5.74Q168.64 5.74 169.97 6.81Q171.30 7.89 172.02 9.93Q172.73 11.96 172.73 14.87L172.73 14.87Q172.73 17.79 172.03 19.83Q171.32 21.88 169.98 22.95Q168.64 24.02 166.78 24.02ZM166.78 22.20L166.78 22.20Q168.60 22.20 169.61 20.26Q170.63 18.33 170.63 14.87L170.63 14.87Q170.63 11.41 169.61 9.49Q168.60 7.57 166.78 7.57L166.78 7.57Q164.98 7.57 163.96 9.49Q162.94 11.41 162.94 14.87L162.94 14.87Q162.94 18.33 163.96 20.26Q164.98 22.20 166.78 22.20ZM180.68 24.02L180.68 24.02Q178.83 24.02 177.49 22.95Q176.16 21.88 175.44 19.83Q174.73 17.79 174.73 14.87L174.73 14.87Q174.73 11.96 175.44 9.93Q176.16 7.89 177.49 6.81Q178.83 5.74 180.68 5.74L180.68 5.74Q182.54 5.74 183.87 6.81Q185.20 7.89 185.92 9.93Q186.63 11.96 186.63 14.87L186.63 14.87Q186.63 17.79 185.92 19.83Q185.21 21.88 183.88 22.95Q182.54 24.02 180.68 24.02ZM180.68 22.20L180.68 22.20Q182.50 22.20 183.51 20.26Q184.52 18.33 184.52 14.87L184.52 14.87Q184.52 11.41 183.51 9.49Q182.50 7.57 180.68 7.57L180.68 7.57Q178.88 7.57 177.86 9.49Q176.84 11.41 176.84 14.87L176.84 14.87Q176.84 18.33 177.86 20.26Q178.88 22.20 180.68 22.20ZM206.27 16.70L206.27 23.67L204.35 23.67L204.35 16.91Q204.35 15.33 203.47 14.40Q202.58 13.48 201.06 13.48L201.06 13.48Q199.97 13.48 199.10 13.96Q198.23 14.45 197.73 15.33Q197.23 16.21 197.23 17.37L197.23 17.37L197.23 23.67L195.30 23.67L195.30 11.95L196.98 11.95L197.05 13.85Q197.70 12.82 198.84 12.27Q199.98 11.72 201.41 11.72L201.41 11.72Q203.65 11.72 204.96 13.07Q206.27 14.41 206.27 16.70L206.27 16.70ZM214.88 23.91L214.88 23.91Q213.13 23.91 211.73 23.11Q210.34 22.31 209.54 20.94Q208.73 19.56 208.73 17.81L208.73 17.81Q208.73 16.08 209.54 14.70Q210.34 13.32 211.73 12.52Q213.13 11.72 214.88 11.72L214.88 11.72Q216.62 11.72 218.00 12.52Q219.39 13.32 220.18 14.70Q220.98 16.08 220.98 17.81L220.98 17.81Q220.98 19.56 220.18 20.94Q219.39 22.31 218.00 23.11Q216.62 23.91 214.88 23.91ZM214.86 22.17L214.86 22.17Q216.05 22.17 216.98 21.60Q217.92 21.02 218.47 20.04Q219.01 19.05 219.01 17.81L219.01 17.81Q219.01 16.57 218.47 15.59Q217.92 14.60 216.98 14.03Q216.05 13.45 214.86 13.45L214.86 13.45Q213.68 13.45 212.74 14.03Q211.79 14.60 211.25 15.59Q210.70 16.57 210.70 17.81L210.70 17.81Q210.70 19.05 211.25 20.04Q211.79 21.02 212.74 21.60Q213.68 22.17 214.86 22.17ZM225.60 17.81L225.60 23.67L223.68 23.67L223.68 11.95L225.36 11.95L225.45 14.27Q226.05 13.07 227.16 12.39Q228.27 11.72 229.71 11.72L229.71 11.72Q230.03 11.72 230.36 11.75Q230.68 11.79 231.01 11.86L231.01 11.86L230.78 13.59Q230.13 13.44 229.50 13.44L229.50 13.44Q228.35 13.44 227.47 14.00Q226.58 14.57 226.09 15.55Q225.60 16.54 225.60 17.81L225.60 17.81ZM251.55 16.98L251.55 23.67L249.63 23.67L249.63 17.43Q249.63 15.54 248.81 14.49Q247.98 13.44 246.48 13.44L246.48 13.44Q244.97 13.44 244.11 14.50Q243.25 15.56 243.25 17.43L243.25 17.43L243.25 23.67L241.32 23.67L241.32 17.43Q241.32 15.54 240.49 14.49Q239.66 13.44 238.16 13.44L238.16 13.44Q236.65 13.44 235.79 14.50Q234.93 15.56 234.93 17.43L234.93 17.43L234.93 23.67L233.00 23.67L233.00 11.95L234.57 11.95L234.66 14.05Q235.24 12.90 236.26 12.31Q237.27 11.72 238.65 11.72L238.65 11.72Q240.13 11.72 241.18 12.38Q242.23 13.04 242.74 14.27L242.74 14.27Q243.32 13.02 244.38 12.37Q245.44 11.72 246.91 11.72L246.91 11.72Q249.11 11.72 250.33 13.11Q251.55 14.50 251.55 16.98L251.55 16.98ZM264.41 16.76L264.41 23.67L262.76 23.67L262.63 22.13Q261.98 22.96 260.99 23.43Q259.99 23.91 258.76 23.91L258.76 23.91Q257.50 23.91 256.50 23.41Q255.50 22.91 254.94 22.04Q254.37 21.18 254.37 20.07L254.37 20.07Q254.37 18.91 254.98 18.03Q255.60 17.14 256.66 16.64Q257.72 16.14 259.07 16.14L259.07 16.14Q259.95 16.14 260.86 16.35Q261.77 16.57 262.49 16.95L262.49 16.95L262.49 16.45Q262.49 15.52 262.02 14.85Q261.55 14.19 260.77 13.83Q259.98 13.48 259.03 13.48L259.03 13.48Q258.21 13.48 257.36 13.78Q256.50 14.07 255.71 14.70L255.71 14.70L255.08 13.04Q256.10 12.39 257.23 12.05Q258.35 11.72 259.45 11.72L259.45 11.72Q260.98 11.72 262.08 12.33Q263.19 12.95 263.80 14.08Q264.41 15.21 264.41 16.76L264.41 16.76ZM259.10 22.15L259.10 22.15Q260.00 22.15 260.75 21.77Q261.50 21.40 261.97 20.69Q262.44 19.98 262.49 19.01L262.49 19.01L262.49 18.81Q261.84 18.30 261.04 18.03Q260.24 17.75 259.41 17.75L259.41 17.75Q258.11 17.75 257.23 18.39Q256.36 19.02 256.36 19.99L256.36 19.99Q256.36 20.60 256.72 21.09Q257.07 21.59 257.70 21.87Q258.32 22.15 259.10 22.15ZM269.85 6.09L269.85 23.67L267.81 23.67L267.81 6.09L269.85 6.09Z"/></svg>