<svg xmlns="http://www.w3.org/2000/svg" xmlns:xlink="http://www.w3.org/1999/xlink" width="311.448" height="68.304"><path fill="black" d="M14.33 33.07L14.33 33.07Q13.92 33.10 13.69 32.83Q13.46 32.57 13.46 32.11L13.46 32.11Q13.46 31.61 13.64 31.40Q13.82 31.20 14.21 31.18L14.21 31.18Q16.27 31.08 18.04 30.56Q19.80 30.05 21.20 29.16Q22.61 28.27 23.59 27.06Q24.58 25.85 25.10 24.35Q25.63 22.85 25.63 21.10L25.63 21.10Q25.63 19.44 24.98 18.13Q24.34 16.82 23.10 15.94Q21.86 15.05 20.06 14.58Q18.26 14.11 15.94 14.11L15.94 14.11Q12.84 14.11 10.39 14.75Q7.94 15.38 6.04 16.64Q4.13 17.90 2.57 19.82L2.57 19.82Q2.35 20.09 2.02 20.09Q1.68 20.09 1.32 19.80L1.32 19.80Q0.96 19.51 0.95 19.19Q0.94 18.86 1.15 18.60L1.15 18.60Q2.33 17.06 3.85 15.85Q5.38 14.64 7.25 13.81Q9.12 12.98 11.30 12.54Q13.49 12.10 15.98 12.10L15.98 12.10Q18.84 12.10 21.05 12.71Q23.26 13.32 24.77 14.46Q26.28 15.60 27.07 17.27Q27.86 18.94 27.86 21.05L27.86 21.05Q27.86 23.11 27.25 24.89Q26.64 26.66 25.46 28.12Q24.29 29.57 22.63 30.62Q20.98 31.68 18.89 32.32Q16.80 32.95 14.33 33.07ZM6.55 46.63L6.55 46.63Q5.33 46.63 4.31 46.19Q3.29 45.74 2.53 45.01Q1.78 44.28 1.30 43.49L1.30 43.49Q1.06 43.06 1.08 42.71Q1.10 42.36 1.49 42.12L1.49 42.12Q1.92 41.86 2.22 41.89Q2.52 41.93 2.83 42.34L2.83 42.34Q3.38 43.08 3.96 43.58Q4.54 44.09 5.18 44.35Q5.83 44.62 6.65 44.62L6.65 44.62Q8.06 44.62 8.75 43.50Q9.43 42.38 9.43 40.08L9.43 40.08L9.43 17.95Q9.43 17.62 9.70 17.46Q9.96 17.30 10.46 17.30L10.46 17.30Q10.99 17.30 11.26 17.46Q11.52 17.62 11.52 17.95L11.52 17.95L11.52 40.34Q11.52 42.34 10.96 43.74Q10.39 45.14 9.30 45.89Q8.21 46.63 6.55 46.63ZM27.89 46.58L27.89 46.58Q27.43 46.58 27.22 46.31Q27 46.03 27 45.68Q27 45.34 27.22 45.06Q27.43 44.78 27.89 44.78L27.89 44.78Q28.68 44.78 29.42 44.32Q30.17 43.85 30.90 42.96Q31.63 42.07 32.30 40.82Q32.98 39.58 33.58 37.99Q34.18 36.41 34.69 34.55Q35.21 32.69 35.63 30.60Q36.05 28.51 36.35 26.24Q36.65 23.98 36.79 21.56Q36.94 19.15 36.94 16.66L36.94 16.66Q36.94 16.22 37.25 16.01Q37.56 15.79 37.98 15.79Q38.40 15.79 38.71 16.01Q39.02 16.22 39.02 16.66L39.02 16.66Q39.02 19.30 38.83 21.84Q38.64 24.38 38.29 26.80Q37.94 29.21 37.44 31.44Q36.94 33.67 36.31 35.64Q35.69 37.61 34.93 39.30Q34.18 40.99 33.36 42.34Q32.54 43.68 31.64 44.63Q30.74 45.58 29.80 46.08Q28.85 46.58 27.89 46.58ZM34.56 46.58L34.56 46.58Q33.94 46.58 33.48 46.42Q33.02 46.25 32.75 45.94Q32.47 45.62 32.34 45.16Q32.21 44.69 32.21 44.11L32.21 44.11L32.21 16.75Q32.21 14.40 33.12 13.20Q34.03 12 35.76 12L35.76 12Q36.84 12 37.57 12.53Q38.30 13.06 38.66 14.10Q39.02 15.14 39.02 16.66L39.02 16.66Q39.02 17.11 38.71 17.33Q38.40 17.54 37.98 17.54Q37.56 17.54 37.25 17.33Q36.94 17.11 36.94 16.66L36.94 16.66Q36.94 15.72 36.80 15.12Q36.67 14.52 36.38 14.22Q36.10 13.92 35.66 13.92L35.66 13.92Q35.18 13.92 34.87 14.22Q34.56 14.52 34.42 15.14Q34.27 15.77 34.27 16.75L34.27 16.75L34.27 43.87Q34.27 44.18 34.37 44.39Q34.46 44.59 34.63 44.69Q34.80 44.78 35.02 44.78L35.02 44.78Q35.23 44.78 35.41 44.71Q35.59 44.64 35.76 44.51Q35.93 44.38 36.10 44.26L36.10 44.26Q36.29 44.09 36.53 44.20Q36.77 44.30 36.94 44.50L36.94 44.50Q37.13 44.74 37.14 44.98Q37.15 45.22 37.03 45.43L37.03 45.43Q36.77 45.79 36.36 46.06Q35.95 46.32 35.50 46.45Q35.04 46.58 34.56 46.58ZM44.90 46.58L44.90 46.58Q43.54 46.58 42.48 45.92Q41.42 45.26 40.82 43.92Q40.22 42.58 40.22 40.54L40.22 40.54Q40.22 39.29 40.45 38.23Q40.68 37.18 41.14 36.34Q41.59 35.50 42.24 34.92Q42.89 34.34 43.73 34.03Q44.57 33.72 45.58 33.72L45.58 33.72Q46.34 33.72 47.16 33.97Q47.98 34.22 48.70 34.63L48.70 34.63L48.70 34.51Q48.70 34.15 48.96 33.98Q49.22 33.82 49.75 33.82L49.75 33.82Q50.28 33.82 50.53 33.97Q50.78 34.13 50.78 34.46L50.78 34.46L50.78 43.87Q50.78 44.18 50.88 44.39Q50.98 44.59 51.14 44.69Q51.31 44.78 51.53 44.78L51.53 44.78Q51.77 44.78 51.92 44.72Q52.08 44.66 52.24 44.54Q52.39 44.42 52.61 44.26L52.61 44.26Q52.78 44.11 52.99 44.17Q53.21 44.23 53.42 44.42L53.42 44.42Q53.64 44.66 53.66 44.93Q53.69 45.19 53.57 45.38L53.57 45.38Q53.30 45.77 52.90 46.03Q52.49 46.30 52.02 46.44Q51.55 46.58 51.07 46.58L51.07 46.58Q50.52 46.58 50.11 46.46Q49.70 46.34 49.42 46.09Q49.13 45.84 48.97 45.48Q48.82 45.12 48.74 44.66L48.74 44.66Q48.74 44.64 48.72 44.56Q48.70 44.47 48.70 44.38L48.70 44.38Q48.14 45.26 47.51 45.74Q46.87 46.22 46.20 46.40Q45.53 46.58 44.90 46.58ZM42.34 40.44L42.34 40.44Q42.34 41.76 42.65 42.71Q42.96 43.66 43.60 44.16Q44.23 44.66 45.19 44.66L45.19 44.66Q45.89 44.66 46.52 44.42Q47.16 44.18 47.71 43.63Q48.26 43.08 48.70 42.19L48.70 42.19L48.70 36.38Q47.95 35.93 47.26 35.77Q46.56 35.62 45.79 35.62L45.79 35.62Q45.17 35.62 44.64 35.81Q44.11 36 43.68 36.38Q43.25 36.77 42.95 37.34Q42.65 37.92 42.49 38.69Q42.34 39.46 42.34 40.44ZM65.71 50.02L65.18 48.14Q65.57 47.74 65.95 47.36Q66.34 46.99 66.72 46.64Q67.10 46.30 67.45 46.02Q67.80 45.74 68.06 45.55L68.06 45.55Q68.40 45.31 68.69 45.42Q68.98 45.53 69.16 45.82Q69.34 46.10 69.31 46.44Q69.29 46.78 68.95 47.02L68.95 47.02Q68.66 47.21 68.28 47.56Q67.90 47.90 67.45 48.32Q67.01 48.74 66.56 49.19Q66.12 49.63 65.71 50.02L65.71 50.02ZM61.73 68.35L61.73 68.35Q60.50 68.35 59.63 67.80Q58.75 67.25 58.27 66.18Q57.79 65.11 57.79 63.55L57.79 63.55Q57.79 62.14 58.07 60.58Q58.34 59.02 58.91 57.36Q59.47 55.70 60.34 54.07Q61.20 52.44 62.40 50.90L62.40 50.90Q62.78 50.42 63.20 49.94Q63.62 49.46 64.08 49.03L64.08 49.03L64.08 44.33Q63.77 44.86 63.35 45.28Q62.93 45.70 62.42 45.98Q61.92 46.27 61.33 46.43Q60.74 46.58 60.10 46.58L60.10 46.58Q58.70 46.58 57.77 46.09Q56.83 45.60 56.36 44.63Q55.90 43.66 55.90 42.19L55.90 42.19L55.90 34.44Q55.90 34.13 56.15 33.97Q56.40 33.82 56.90 33.82L56.90 33.82Q57.43 33.82 57.70 33.97Q57.96 34.13 57.96 34.44L57.96 34.44L57.96 42.19Q57.96 43.03 58.22 43.61Q58.49 44.18 59.03 44.47Q59.57 44.76 60.36 44.76L60.36 44.76Q61.03 44.76 61.61 44.54Q62.18 44.33 62.65 43.96Q63.12 43.58 63.48 43.06Q63.84 42.53 64.08 41.93L64.08 41.93L64.08 34.44Q64.08 34.13 64.33 33.97Q64.58 33.82 65.11 33.82L65.11 33.82Q65.62 33.82 65.88 33.97Q66.14 34.13 66.14 34.44L66.14 34.44L66.14 62.69Q66.14 64.03 65.86 65.08Q65.57 66.12 65.00 66.85Q64.44 67.58 63.61 67.97Q62.78 68.35 61.73 68.35ZM61.87 66.55L61.87 66.55Q62.40 66.55 62.81 66.28Q63.22 66 63.50 65.51Q63.79 65.02 63.94 64.30Q64.08 63.58 64.08 62.69L64.08 62.69L64.08 51.72Q63.86 51.94 63.65 52.16Q63.43 52.39 63.22 52.66L63.22 52.66Q62.45 53.76 61.85 55.09Q61.25 56.42 60.82 57.85Q60.38 59.28 60.16 60.72Q59.93 62.16 59.93 63.50L59.93 63.50Q59.93 64.44 60.16 65.14Q60.38 65.83 60.82 66.19Q61.25 66.55 61.87 66.55ZM75.70 46.58L75.70 46.58Q74.76 46.58 74.08 46.30Q73.39 46.01 72.92 45.42Q72.46 44.83 72.23 43.93Q72 43.03 72 41.78L72 41.78L72 37.32Q72 36.31 71.69 35.96Q71.38 35.62 70.82 35.62L70.82 35.62Q70.44 35.62 70.15 35.83Q69.86 36.05 69.71 36.46Q69.55 36.86 69.50 37.42L69.50 37.42Q69.48 37.80 69.29 37.98Q69.10 38.16 68.66 38.16L68.66 38.16Q68.28 38.16 68.04 37.99Q67.80 37.82 67.82 37.20L67.82 37.20Q67.87 36.17 68.24 35.41Q68.62 34.66 69.29 34.24Q69.96 33.82 70.82 33.82L70.82 33.82Q71.66 33.82 72.28 34.06Q72.89 34.30 73.28 34.80Q73.68 35.30 73.87 36.05Q74.06 36.79 74.06 37.80L74.06 37.80L74.06 41.23Q74.06 42.17 74.14 42.84Q74.21 43.51 74.42 43.93Q74.64 44.35 75.04 44.56Q75.43 44.76 76.06 44.76L76.06 44.76Q76.54 44.76 77.06 44.58Q77.59 44.40 78.05 43.94Q78.50 43.49 78.78 42.68Q79.06 41.88 79.06 40.66L79.06 40.66L79.75 43.54Q79.46 44.28 79.04 44.86Q78.62 45.43 78.08 45.82Q77.54 46.20 76.94 46.39Q76.34 46.58 75.70 46.58ZM83.02 46.63L83.02 46.63Q82.06 46.63 81.32 46.32Q80.59 46.01 80.09 45.38Q79.58 44.76 79.32 43.82Q79.06 42.89 79.06 41.64L79.06 41.64L79.06 34.44Q79.06 34.13 79.31 33.97Q79.56 33.82 80.06 33.82L80.06 33.82Q80.59 33.82 80.86 33.97Q81.12 34.13 81.12 34.44L81.12 34.44L81.12 41.23Q81.12 42.17 81.20 42.84Q81.29 43.51 81.52 43.92Q81.74 44.33 82.15 44.52Q82.56 44.71 83.23 44.71L83.23 44.71Q83.69 44.71 84.10 44.60Q84.50 44.50 84.85 44.24Q85.20 43.99 85.48 43.60Q85.75 43.20 85.94 42.64Q86.14 42.07 86.24 41.32Q86.35 40.56 86.35 39.60L86.35 39.60Q86.35 37.66 86.15 36.60Q85.94 35.54 85.61 35.12Q85.27 34.70 84.82 34.70L84.82 34.70Q84.38 34.70 84.23 34.96Q84.07 35.21 84.07 35.50L84.07 35.50Q84.07 35.81 84.31 36.12Q84.55 36.43 85.16 36.62Q85.78 36.82 86.86 36.82L86.86 36.82Q87.77 36.82 88.58 36.43Q89.40 36.05 90.26 35.50L90.26 35.50Q90.55 35.30 90.79 35.45Q91.03 35.59 91.19 35.88Q91.34 36.17 91.33 36.47Q91.32 36.77 91.10 36.91L91.10 36.91Q90.07 37.63 89.10 38.02Q88.13 38.40 86.86 38.40L86.86 38.40Q85.39 38.40 84.43 38.03Q83.47 37.66 83.02 37.00Q82.56 36.34 82.56 35.50L82.56 35.50Q82.56 34.85 82.82 34.36Q83.09 33.86 83.59 33.59Q84.10 33.31 84.82 33.31L84.82 33.31Q86.09 33.31 86.88 34.13Q87.67 34.94 88.04 36.36Q88.42 37.78 88.42 39.60L88.42 39.60Q88.42 40.70 88.26 41.65Q88.10 42.60 87.80 43.38Q87.50 44.16 87.06 44.76Q86.62 45.36 86.02 45.78Q85.42 46.20 84.66 46.42Q83.90 46.63 83.02 46.63ZM88.99 46.58L88.99 46.58Q88.54 46.58 88.31 46.31Q88.08 46.03 88.07 45.68Q88.06 45.34 88.27 45.06Q88.49 44.78 88.94 44.78L88.94 44.78Q89.54 44.78 90.06 44.41Q90.58 44.04 91.02 43.31Q91.46 42.58 91.82 41.50Q92.18 40.42 92.47 38.98Q92.76 37.54 92.95 35.78L92.95 35.78L94.39 36Q94.18 38.69 93.73 40.68Q93.29 42.67 92.62 43.98Q91.94 45.29 91.04 45.94Q90.14 46.58 88.99 46.58ZM101.35 46.58L101.35 46.58Q100.73 46.58 100.27 46.42Q99.82 46.25 99.53 45.92Q99.24 45.60 99.10 45.11Q98.95 44.62 98.95 43.99L98.95 43.99Q98.95 43.32 99.01 42.46Q99.07 41.59 99.13 40.68Q99.19 39.77 99.25 38.94Q99.31 38.11 99.31 37.51L99.31 37.51Q99.31 36.58 99.08 36.23Q98.86 35.88 98.23 35.88L98.23 35.88Q97.73 35.88 97.12 36.02Q96.50 36.17 95.87 36.35Q95.23 36.53 94.61 36.67Q93.98 36.82 93.43 36.82L93.43 36.82Q92.35 36.82 91.58 36.43Q90.82 36.05 90.42 35.36Q90.02 34.68 90.02 33.84L90.02 33.84Q90.02 32.86 90.58 32.28Q91.13 31.70 92.06 31.70L92.06 31.70Q92.93 31.70 93.46 32.16Q93.98 32.62 94.22 33.35Q94.46 34.08 94.46 34.92L94.46 34.92Q94.66 34.92 95.09 34.76Q95.52 34.61 96.11 34.39Q96.70 34.18 97.36 34.02Q98.02 33.86 98.66 33.86L98.66 33.86Q99.62 33.86 100.22 34.22Q100.82 34.58 101.10 35.34Q101.38 36.10 101.38 37.32L101.38 37.32Q101.38 37.87 101.32 38.72Q101.26 39.58 101.20 40.52Q101.14 41.47 101.08 42.31Q101.02 43.15 101.02 43.70L101.02 43.70Q101.02 44.33 101.20 44.56Q101.38 44.78 101.74 44.78L101.74 44.78Q101.98 44.78 102.17 44.71Q102.36 44.64 102.54 44.51Q102.72 44.38 102.89 44.26L102.89 44.26Q103.08 44.11 103.32 44.21Q103.56 44.30 103.73 44.50L103.73 44.50Q103.92 44.74 103.93 44.98Q103.94 45.22 103.82 45.43L103.82 45.43Q103.56 45.79 103.16 46.06Q102.77 46.32 102.30 46.45Q101.83 46.58 101.35 46.58ZM92.95 35.23L92.95 35.23Q92.95 34.66 92.86 34.18Q92.76 33.70 92.57 33.41Q92.38 33.12 92.09 33.12L92.09 33.12Q91.82 33.12 91.67 33.31Q91.51 33.50 91.51 33.86L91.51 33.86Q91.51 34.34 91.90 34.79Q92.28 35.23 92.95 35.23ZM108.58 46.58L108.58 46.58Q107.33 46.58 106.76 45.94Q106.20 45.29 106.20 44.11L106.20 44.11L106.20 34.44Q106.20 34.13 106.45 33.97Q106.70 33.82 107.21 33.82L107.21 33.82Q107.74 33.82 108 33.97Q108.26 34.13 108.26 34.44L108.26 34.44L108.26 43.87Q108.26 44.35 108.48 44.57Q108.70 44.78 109.01 44.78L109.01 44.78Q109.27 44.78 109.45 44.70Q109.63 44.62 109.79 44.50Q109.94 44.38 110.14 44.23L110.14 44.23Q110.28 44.11 110.53 44.21Q110.78 44.30 110.93 44.50L110.93 44.50Q111.12 44.71 111.14 44.95Q111.17 45.19 111.02 45.38L111.02 45.38Q110.76 45.77 110.36 46.03Q109.97 46.30 109.50 46.44Q109.03 46.58 108.58 46.58ZM107.26 30.12L107.26 30.12Q106.58 30.12 106.24 29.75Q105.89 29.38 105.89 28.63L105.89 28.63Q105.89 27.86 106.24 27.48Q106.58 27.10 107.26 27.10L107.26 27.10Q107.90 27.10 108.24 27.48Q108.58 27.86 108.58 28.63L108.58 28.63Q108.60 29.38 108.25 29.75Q107.90 30.12 107.26 30.12ZM116.98 46.58L116.98 46.58Q115.97 46.58 115.31 46.21Q114.65 45.84 114.32 45.16Q114 44.47 114 43.51L114 43.51L114 29.28Q114 28.97 114.25 28.81Q114.50 28.66 115.01 28.66L115.01 28.66Q115.54 28.66 115.80 28.81Q116.06 28.97 116.06 29.28L116.06 29.28L116.06 34.18L119.09 34.18Q119.45 34.18 119.60 34.38Q119.76 34.58 119.76 35.14L119.76 35.14Q119.76 35.66 119.60 35.88Q119.45 36.10 119.09 36.10L119.09 36.10L116.06 36.10L116.06 43.27Q116.06 44.09 116.29 44.44Q116.52 44.78 117.12 44.78L117.12 44.78Q117.67 44.78 118.07 44.52Q118.46 44.26 118.90 43.87L118.90 43.87Q119.18 43.61 119.44 43.69Q119.69 43.78 119.90 43.99L119.90 43.99Q120.17 44.23 120.18 44.48Q120.19 44.74 120.05 44.95L120.05 44.95Q119.64 45.55 119.14 45.91Q118.63 46.27 118.08 46.43Q117.53 46.58 116.98 46.58ZM127.66 46.58L127.66 46.58Q126.70 46.58 125.80 46.18Q124.90 45.77 124.14 45.02Q123.38 44.28 122.82 43.26Q122.26 42.24 121.94 41.03Q121.63 39.82 121.63 38.47L121.63 38.47Q121.63 37.66 121.82 36.92Q122.02 36.19 122.38 35.60Q122.74 35.02 123.24 34.60Q123.74 34.18 124.37 33.95Q124.99 33.72 125.71 33.72L125.71 33.72Q127.08 33.72 127.93 34.27Q128.78 34.82 129.17 35.72Q129.55 36.62 129.55 37.66L129.55 37.66Q129.55 38.47 129.25 39.34Q128.95 40.20 128.42 41.03Q127.90 41.86 127.20 42.62L127.20 42.62Q126.17 43.78 124.85 44.68Q123.53 45.58 122.05 46.08Q120.58 46.58 119.02 46.58L119.02 46.58Q118.68 46.58 118.51 46.31Q118.34 46.03 118.38 45.68Q118.42 45.34 118.68 45.06Q118.94 44.78 119.47 44.78L119.47 44.78Q120.58 44.78 121.74 44.35Q122.90 43.92 123.96 43.20Q125.02 42.48 125.76 41.64L125.76 41.64Q126.29 41.04 126.66 40.40Q127.03 39.77 127.22 39.12Q127.42 38.47 127.42 37.87L127.42 37.87Q127.42 36.60 126.94 36.11Q126.46 35.62 125.64 35.62L125.64 35.62Q125.23 35.62 124.88 35.80Q124.54 35.98 124.27 36.35Q124.01 36.72 123.86 37.25Q123.72 37.78 123.72 38.47L123.72 38.47Q123.72 39.84 124.12 40.98Q124.51 42.12 125.16 42.94Q125.81 43.75 126.54 44.21Q127.27 44.66 127.92 44.66L127.92 44.66Q128.38 44.66 128.81 44.48Q129.24 44.30 129.71 43.94Q130.18 43.58 130.66 43.06L130.66 43.06Q130.99 42.67 131.30 42.68Q131.62 42.70 131.95 42.96L131.95 42.96Q132.29 43.22 132.35 43.51Q132.41 43.80 132.19 44.14L132.19 44.14Q131.59 45.05 130.79 45.59Q129.98 46.13 129.17 46.36Q128.35 46.58 127.66 46.58ZM156.70 46.61L156.70 46.61Q155.86 46.61 155.02 46.46Q154.18 46.32 153.37 46.06Q152.57 45.79 151.87 45.41L151.87 45.41Q151.46 45.17 151.33 44.87Q151.20 44.57 151.44 44.14L151.44 44.14Q151.66 43.70 151.93 43.61Q152.21 43.51 152.69 43.73L152.69 43.73Q153.31 44.02 153.97 44.21Q154.63 44.40 155.32 44.50Q156.00 44.59 156.70 44.59L156.70 44.59Q158.57 44.59 160.13 43.94Q161.69 43.30 162.85 42.13Q164.02 40.97 164.65 39.38Q165.29 37.80 165.29 35.90L165.29 35.90Q165.29 33.72 164.29 32.18Q163.30 30.65 161.44 29.83Q159.58 29.02 156.98 29.02L156.98 29.02Q156.41 29.33 155.88 29.48Q155.35 29.64 154.82 29.64L154.82 29.64Q153.98 29.64 153.54 29.24Q153.10 28.85 153.10 28.27L153.10 28.27Q153.10 27.86 153.30 27.49Q153.50 27.12 153.94 26.88Q154.37 26.64 154.99 26.64L154.99 26.64Q155.59 26.64 156.08 26.76Q156.58 26.88 156.91 27.05L156.91 27.05Q158.47 26.78 159.68 26.16Q160.90 25.54 161.75 24.61Q162.60 23.69 163.04 22.48Q163.49 21.26 163.49 19.82L163.49 19.82Q163.49 17.95 162.41 16.69Q161.33 15.43 159.20 14.78Q157.08 14.14 153.96 14.14L153.96 14.14Q150.96 14.14 148.58 14.76Q146.21 15.38 144.31 16.66Q142.42 17.93 140.88 19.85L140.88 19.85Q140.64 20.09 140.30 20.09Q139.97 20.09 139.61 19.80L139.61 19.80Q139.25 19.51 139.24 19.19Q139.22 18.86 139.44 18.60L139.44 18.60Q140.64 17.06 142.15 15.86Q143.66 14.66 145.49 13.82Q147.31 12.98 149.45 12.54Q151.58 12.10 154.01 12.10L154.01 12.10Q157.70 12.10 160.32 13.01Q162.94 13.92 164.33 15.64Q165.72 17.35 165.72 19.78L165.72 19.78Q165.72 21.22 165.26 22.50Q164.81 23.78 163.97 24.83Q163.13 25.87 161.96 26.63Q160.80 27.38 159.36 27.77L159.36 27.77L159.36 27.84Q161.11 27.84 162.61 28.43Q164.11 29.02 165.22 30.08Q166.32 31.15 166.92 32.60Q167.52 34.06 167.52 35.78L167.52 35.78Q167.52 37.66 167.00 39.32Q166.49 40.99 165.52 42.31Q164.54 43.63 163.20 44.60Q161.86 45.58 160.21 46.09Q158.57 46.61 156.70 46.61ZM144.86 46.63L144.86 46.63Q143.64 46.63 142.62 46.19Q141.60 45.74 140.84 45.01Q140.09 44.28 139.61 43.49L139.61 43.49Q139.37 43.06 139.39 42.71Q139.42 42.36 139.80 42.12L139.80 42.12Q140.23 41.86 140.53 41.89Q140.83 41.93 141.14 42.34L141.14 42.34Q141.70 43.08 142.27 43.58Q142.85 44.09 143.50 44.35Q144.14 44.62 144.96 44.62L144.96 44.62Q146.38 44.62 147.06 43.50Q147.74 42.38 147.74 40.08L147.74 40.08L147.74 17.95Q147.74 17.62 148.01 17.46Q148.27 17.30 148.78 17.30L148.78 17.30Q149.30 17.30 149.57 17.46Q149.83 17.62 149.83 17.95L149.83 17.95L149.83 40.34Q149.83 42.34 149.27 43.74Q148.70 45.14 147.61 45.89Q146.52 46.63 144.86 46.63ZM182.88 46.63L182.88 46.63Q179.86 46.63 177.60 45.49Q175.34 44.35 174.10 42.28Q172.85 40.20 172.85 37.42L172.85 37.42Q172.85 35.81 173.35 34.34Q173.86 32.88 174.77 31.67Q175.68 30.46 176.93 29.62Q178.18 28.78 179.66 28.44L179.66 28.44Q178.01 27.96 176.78 26.82Q175.56 25.68 174.88 24.07Q174.19 22.46 174.19 20.59L174.19 20.59Q174.19 19.10 174.62 17.81Q175.06 16.51 175.87 15.47Q176.69 14.42 177.80 13.67Q178.92 12.91 180.30 12.50Q181.68 12.10 183.26 12.10L183.26 12.10Q184.85 12.10 186.31 12.48Q187.78 12.86 189.06 13.63Q190.34 14.40 191.40 15.53L191.40 15.53Q191.76 15.86 191.83 16.25Q191.90 16.63 191.50 17.02L191.50 17.02Q191.09 17.38 190.76 17.32Q190.44 17.26 190.03 16.87L190.03 16.87Q189.07 15.98 187.98 15.38Q186.89 14.78 185.68 14.46Q184.46 14.14 183.14 14.14L183.14 14.14Q181.68 14.14 180.43 14.62Q179.18 15.10 178.28 15.94Q177.38 16.78 176.90 17.96Q176.42 19.15 176.42 20.54L176.42 20.54Q176.42 22.56 177.26 24.14Q178.10 25.73 179.60 26.64Q181.10 27.55 183.02 27.55L183.02 27.55L187.22 27.55Q187.58 27.55 187.73 27.76Q187.87 27.96 187.87 28.51L187.87 28.51Q187.87 29.04 187.73 29.26Q187.58 29.47 187.22 29.47L187.22 29.47L183.05 29.47Q181.30 29.47 179.84 30.05Q178.39 30.62 177.34 31.68Q176.28 32.74 175.69 34.16Q175.10 35.59 175.10 37.27L175.10 37.27Q175.10 39.50 176.06 41.15Q177.02 42.79 178.79 43.69Q180.55 44.59 182.90 44.59L182.90 44.59Q184.42 44.59 185.83 44.10Q187.25 43.61 188.53 42.65Q189.82 41.69 190.92 40.25L190.92 40.25Q191.28 39.84 191.58 39.78Q191.88 39.72 192.24 40.03L192.24 40.03Q192.65 40.37 192.71 40.69Q192.77 41.02 192.36 41.54L192.36 41.54Q191.11 43.20 189.60 44.34Q188.09 45.48 186.41 46.06Q184.73 46.63 182.88 46.63ZM217.06 46.63L217.06 46.63Q214.30 46.63 212.71 44.30Q211.13 41.98 210.48 37.42L210.48 37.42Q210.17 35.28 209.94 33.07Q209.71 30.86 209.52 28.45Q209.33 26.04 209.17 23.35Q209.02 20.66 208.87 17.54L208.87 17.54Q208.80 16.27 208.61 15.48Q208.42 14.69 208.03 14.33Q207.65 13.97 207.02 13.97L207.02 13.97Q206.26 13.97 205.66 14.36Q205.06 14.76 204.47 15.65Q203.88 16.54 203.11 17.98L203.11 17.98Q202.94 18.31 202.64 18.41Q202.34 18.50 201.94 18.34L201.94 18.34Q201.53 18.14 201.43 17.80Q201.34 17.45 201.50 17.06L201.50 17.06Q202.37 15.31 203.21 14.20Q204.05 13.08 205.01 12.54Q205.97 12 207.12 12L207.12 12Q208.37 12 209.18 12.60Q210.00 13.20 210.44 14.41Q210.89 15.62 210.98 17.47L210.98 17.47Q211.08 19.73 211.18 21.68Q211.27 23.64 211.39 25.33Q211.51 27.02 211.63 28.56Q211.75 30.10 211.90 31.51Q212.04 32.93 212.20 34.31Q212.35 35.69 212.57 37.10L212.57 37.10Q212.90 39.58 213.55 41.27Q214.20 42.96 215.14 43.82Q216.07 44.69 217.32 44.69L217.32 44.69Q218.28 44.69 219.11 44.17Q219.94 43.66 220.61 42.61Q221.28 41.57 221.86 40.00Q222.43 38.42 222.85 36.29Q223.27 34.15 223.57 31.44Q223.87 28.73 224.06 25.46L224.06 25.46Q223.85 24.89 223.69 24.25Q223.54 23.62 223.54 23.11L223.54 23.11Q223.54 22.54 223.72 22.10Q223.90 21.67 224.24 21.40Q224.59 21.12 225.07 21.12L225.07 21.12Q225.86 21.12 226.30 21.76Q226.73 22.39 226.73 23.38L226.73 23.38Q226.73 23.95 226.67 24.46Q226.61 24.96 226.42 25.42L226.42 25.42Q226.58 27.31 226.75 29.03Q226.92 30.74 227.12 32.26Q227.33 33.77 227.57 35.10Q227.81 36.43 228.10 37.56L228.10 37.56Q228.72 40.01 229.48 41.59Q230.23 43.18 231.17 43.94Q232.10 44.71 233.23 44.71L233.23 44.71Q234.31 44.71 235.24 43.87Q236.16 43.03 236.90 41.44Q237.65 39.84 238.16 37.56Q238.68 35.28 238.96 32.41Q239.23 29.54 239.23 26.16L239.23 26.16Q239.23 24.53 239.18 23.00Q239.14 21.48 239.03 20.10Q238.92 18.72 238.79 17.56Q238.66 16.39 238.49 15.48L238.49 15.48Q237.38 15.17 236.88 14.56Q236.38 13.94 236.38 13.34L236.38 13.34Q236.38 12.79 236.76 12.37Q237.14 11.95 237.84 11.95L237.84 11.95Q238.75 11.95 239.33 12.46Q239.90 12.96 240.31 13.73L240.31 13.73Q240.62 14.06 241.45 14.47Q242.28 14.88 243.38 15.23Q244.49 15.58 245.66 15.79L245.66 15.79Q246.02 15.86 246.12 16.10Q246.22 16.34 246.22 16.61L246.22 16.61Q246.22 16.97 246.00 17.27Q245.78 17.57 245.38 17.54L245.38 17.54Q244.97 17.50 244.44 17.40Q243.91 17.30 243.37 17.15Q242.83 16.99 242.32 16.81Q241.80 16.63 241.37 16.43Q240.94 16.22 240.67 16.06L240.67 16.06Q240.86 17.23 241.02 18.72Q241.18 20.21 241.25 22.10Q241.32 24 241.32 26.45L241.32 26.45Q241.32 29.50 241.06 32.18Q240.79 34.87 240.29 37.13Q239.78 39.38 239.06 41.15Q238.34 42.91 237.43 44.12Q236.52 45.34 235.43 45.98Q234.34 46.63 233.09 46.63L233.09 46.63Q231.43 46.63 230.17 45.74Q228.91 44.86 227.98 43.01Q227.04 41.16 226.39 38.28L226.39 38.28Q226.22 37.49 226.08 36.62Q225.94 35.76 225.82 34.81Q225.70 33.86 225.58 32.84Q225.46 31.82 225.38 30.72L225.38 30.72L225.29 30.72Q225.02 33.94 224.56 36.49Q224.09 39.05 223.39 40.94Q222.70 42.84 221.76 44.11Q220.82 45.38 219.65 46.01Q218.47 46.63 217.06 46.63ZM251.30 46.58L251.30 46.58Q250.61 46.58 250.01 46.50Q249.41 46.42 248.92 46.28Q248.42 46.15 248.11 45.98L248.11 45.98Q247.80 45.82 247.66 45.53Q247.51 45.24 247.66 44.86L247.66 44.86Q247.78 44.42 248.03 44.26Q248.28 44.09 248.54 44.18L248.54 44.18Q249.00 44.35 249.74 44.50Q250.49 44.64 251.30 44.64L251.30 44.64Q252.31 44.64 253.25 44.23Q254.18 43.82 255.11 42.88Q256.03 41.93 256.94 40.32Q257.86 38.71 258.78 36.32Q259.70 33.94 260.65 30.62Q261.60 27.31 262.58 23.00Q263.57 18.70 264.60 13.22L264.60 13.22Q264.72 12.55 265.15 12.32Q265.58 12.10 266.23 12.10L266.23 12.10Q266.93 12.10 267.32 12.30Q267.72 12.50 267.86 13.22L267.86 13.22Q268.30 15.46 268.78 17.82Q269.26 20.18 269.84 22.70Q270.43 25.22 271.13 27.97Q271.82 30.72 272.65 33.70Q273.48 36.67 274.49 39.96L274.49 39.96Q274.87 41.23 275.24 42.12Q275.62 43.01 276.04 43.57Q276.46 44.14 276.94 44.40Q277.42 44.66 277.99 44.66L277.99 44.66Q278.88 44.66 279.59 43.80Q280.30 42.94 280.85 41.21Q281.40 39.48 281.76 36.91L281.76 36.91Q281.81 36.53 282.07 36.36Q282.34 36.19 282.84 36.29L282.84 36.29Q283.32 36.36 283.51 36.59Q283.70 36.82 283.66 37.18L283.66 37.18Q283.27 40.30 282.49 42.38Q281.71 44.47 280.58 45.53Q279.46 46.58 277.99 46.58L277.99 46.58Q277.03 46.58 276.26 46.27Q275.50 45.96 274.87 45.25Q274.25 44.54 273.68 43.39Q273.12 42.24 272.57 40.56L272.57 40.56Q272.23 39.41 271.90 38.32Q271.56 37.22 271.25 36.17L271.25 36.17L260.93 36.17Q260.04 38.57 259.15 40.32Q258.26 42.07 257.33 43.28Q256.39 44.50 255.42 45.23Q254.45 45.96 253.43 46.27Q252.41 46.58 251.30 46.58ZM261.58 34.32L261.58 34.32L270.72 34.32Q269.71 30.70 268.90 27.42Q268.08 24.14 267.41 21.11Q266.74 18.07 266.18 15.19L266.18 15.19Q265.03 21.38 263.88 26.11Q262.73 30.84 261.58 34.32ZM301.87 46.44L301.87 46.44Q299.95 46.44 298.40 45.95Q296.86 45.46 295.56 44.71Q294.26 43.97 293.16 43.22Q292.06 42.48 291.06 41.99Q290.06 41.50 289.10 41.50L289.10 41.50Q288.24 41.50 287.70 41.94Q287.16 42.38 287.16 43.10L287.16 43.10Q287.16 43.78 287.70 44.22Q288.24 44.66 289.03 44.66L289.03 44.66Q290.02 44.66 290.70 44.04Q291.38 43.42 291.74 42.19Q292.10 40.97 292.10 39.17L292.10 39.17L292.10 24.50Q292.10 21.62 292.69 19.32Q293.28 17.02 294.37 15.41Q295.46 13.80 297.02 12.95Q298.58 12.10 300.58 12.10L300.58 12.10Q302.26 12.10 303.64 12.79Q305.02 13.49 305.86 14.77Q306.70 16.06 306.70 17.88L306.70 17.88Q306.70 19.49 306.11 20.77Q305.52 22.06 304.40 22.97Q303.29 23.88 301.69 24.36Q300.10 24.84 298.10 24.84L298.10 24.84Q295.46 24.84 293.22 24.25Q290.98 23.66 289.07 22.66Q287.16 21.65 285.50 20.40L285.50 20.40Q285.17 20.16 285.12 19.82Q285.07 19.49 285.34 19.10L285.34 19.10Q285.62 18.67 285.95 18.61Q286.27 18.55 286.61 18.82L286.61 18.82Q288.10 19.99 289.86 20.92Q291.62 21.84 293.68 22.36Q295.73 22.87 298.10 22.87L298.10 22.87Q299.59 22.87 300.79 22.52Q301.99 22.18 302.82 21.54Q303.65 20.90 304.08 19.97Q304.51 19.03 304.51 17.88L304.51 17.88Q304.51 16.66 304.00 15.83Q303.48 15 302.58 14.56Q301.68 14.11 300.48 14.11L300.48 14.11Q299.02 14.11 297.85 14.82Q296.69 15.53 295.87 16.88Q295.06 18.24 294.62 20.17Q294.19 22.10 294.19 24.55L294.19 24.55L294.19 39.17Q294.19 41.57 293.56 43.22Q292.92 44.88 291.76 45.73Q290.59 46.58 288.96 46.58L288.96 46.58Q287.81 46.58 286.91 46.14Q286.01 45.70 285.49 44.90Q284.98 44.11 284.98 43.10L284.98 43.10Q284.98 42.07 285.49 41.27Q286.01 40.46 286.92 40.02Q287.83 39.58 288.98 39.58L288.98 39.58Q290.23 39.58 291.40 40.06Q292.56 40.54 293.74 41.27Q294.91 42 296.18 42.73Q297.46 43.46 298.90 43.94Q300.34 44.42 302.02 44.42L302.02 44.42Q303.74 44.42 305.09 43.82Q306.43 43.22 307.33 42.10Q308.23 40.97 308.62 39.41L308.62 39.41Q308.71 39 309.04 38.88Q309.36 38.76 309.86 38.95L309.86 38.95Q310.27 39.05 310.43 39.31Q310.58 39.58 310.49 39.94L310.49 39.94Q310.06 41.95 308.87 43.42Q307.68 44.88 305.90 45.66Q304.13 46.44 301.87 46.44Z"/></svg>