<svg xmlns="http://www.w3.org/2000/svg" xmlns:xlink="http://www.w3.org/1999/xlink" width="156" height="29.64"><path fill="black" d="M2.83 24L0.96 24L0.96 6.48L4.22 6.48L5.95 18.50L6.05 18.50L7.78 6.48L11.04 6.48L11.04 24L9.17 24L9.17 8.98L9.07 8.98L7.32 20.64L4.68 20.64L2.93 8.98L2.83 8.98L2.83 24ZM25.80 24L25.80 6.53Q26.86 6.36 27.66 6.30Q28.46 6.24 29.14 6.24L29.14 6.24Q31.32 6.24 32.64 6.83Q33.96 7.42 34.56 8.70Q35.16 9.98 35.16 12.12L35.16 12.12Q35.16 14.23 34.56 15.53Q33.96 16.82 32.64 17.41Q31.32 18 29.14 18L29.14 18Q28.46 18 27.86 17.95Q27.26 17.90 26.59 17.81L26.59 17.81L27.22 16.08Q27.79 16.18 28.27 16.22Q28.75 16.27 29.30 16.27L29.30 16.27Q30.74 16.27 31.60 15.86Q32.45 15.46 32.83 14.54Q33.22 13.63 33.22 12.12L33.22 12.12Q33.22 10.58 32.83 9.68Q32.45 8.78 31.60 8.38Q30.74 7.97 29.30 7.97L29.30 7.97Q28.75 7.97 28.22 8.02Q27.70 8.06 27.14 8.16L27.14 8.16L27.77 7.49L27.77 24L25.80 24ZM46.80 24L37.92 24L37.92 6.48L39.89 6.48L39.89 22.27L46.80 22.27L46.80 24ZM54 24.24L54 24.24Q51.60 24.24 50.46 23.05Q49.32 21.86 49.32 19.32L49.32 19.32L49.32 6.48L51.24 6.48L51.24 19.13Q51.24 20.93 51.89 21.72Q52.54 22.51 54 22.51L54 22.51Q55.49 22.51 56.12 21.72Q56.76 20.93 56.76 19.13L56.76 19.13L56.76 6.48L58.68 6.48L58.68 19.32Q58.68 21.86 57.55 23.05Q56.42 24.24 54 24.24ZM65.38 24.24L65.38 24.24Q64.44 24.24 63.52 24.08Q62.59 23.93 61.68 23.62L61.68 23.62L61.68 21.77Q62.57 22.13 63.43 22.32Q64.30 22.51 65.21 22.51L65.21 22.51Q66.84 22.51 67.74 21.84Q68.64 21.17 68.64 19.70L68.64 19.70Q68.64 18.94 68.34 18.32Q68.04 17.71 67.33 17.14Q66.62 16.56 65.35 15.86L65.35 15.86Q63.79 14.98 62.89 14.21Q61.99 13.44 61.62 12.56Q61.25 11.69 61.25 10.56L61.25 10.56Q61.25 8.33 62.56 7.28Q63.86 6.24 66.67 6.24L66.67 6.24Q67.51 6.24 68.36 6.34Q69.22 6.43 70.15 6.65L70.15 6.65L70.15 11.76L68.23 11.76L68.23 7.39L69 8.26Q68.35 8.11 67.79 8.04Q67.22 7.97 66.62 7.97L66.62 7.97Q64.90 7.97 64.06 8.60Q63.22 9.24 63.22 10.58L63.22 10.58Q63.22 11.33 63.52 11.94Q63.82 12.55 64.55 13.14Q65.28 13.73 66.53 14.42L66.53 14.42Q68.06 15.29 68.95 16.07Q69.84 16.85 70.22 17.72Q70.61 18.60 70.61 19.75L70.61 19.75Q70.61 22.01 69.30 23.12Q67.99 24.24 65.38 24.24ZM92.54 24L90.58 24L90.58 8.81L90.50 8.81L84.86 13.37L84.86 11.09L90.58 6.48L92.54 6.48L92.54 24ZM115.44 24.24L115.44 24.24Q112.32 24.24 110.72 22.15Q109.13 20.06 109.13 15.96L109.13 15.96L109.13 14.52Q109.13 10.42 110.66 8.33Q112.20 6.24 115.20 6.24L115.20 6.24Q116.04 6.24 116.83 6.40Q117.62 6.55 118.25 6.86L118.25 6.86L118.25 12.72L116.33 12.72L116.33 7.15L117.29 8.64Q116.38 7.97 115.15 7.97L115.15 7.97Q113.16 7.97 112.13 9.65Q111.10 11.33 111.10 14.64L111.10 14.64L111.10 15.84Q111.10 19.27 112.21 20.89Q113.33 22.51 115.63 22.51L115.63 22.51Q116.28 22.51 116.98 22.39Q117.67 22.27 118.25 22.08L118.25 22.08L118.25 23.88Q117.65 24.05 116.89 24.14Q116.14 24.24 115.44 24.24ZM126 24.24L126 24.24Q123.53 24.24 122.36 22.79Q121.20 21.34 121.20 18.24L121.20 18.24L121.20 17.28Q121.20 14.18 122.36 12.73Q123.53 11.28 126 11.28L126 11.28Q128.50 11.28 129.65 12.73Q130.80 14.18 130.80 17.28L130.80 17.28L130.80 18.24Q130.80 21.34 129.65 22.79Q128.50 24.24 126 24.24ZM126 22.56L126 22.56Q127.56 22.56 128.22 21.53Q128.88 20.50 128.88 18.12L128.88 18.12L128.88 17.40Q128.88 15.02 128.22 13.99Q127.56 12.96 126 12.96L126 12.96Q124.46 12.96 123.79 13.99Q123.12 15.02 123.12 17.40L123.12 17.40L123.12 18.12Q123.12 20.50 123.79 21.53Q124.46 22.56 126 22.56ZM138.34 24.24L138.34 24.24Q136.46 24.24 135.32 23.58Q134.18 22.92 133.67 21.43Q133.15 19.94 133.15 17.52L133.15 17.52Q133.15 15.22 133.58 13.85Q134.02 12.48 135 11.88Q135.98 11.28 137.62 11.28L137.62 11.28Q138.65 11.28 139.60 11.50Q140.54 11.71 141.34 12.17L141.34 12.17L140.74 13.75Q139.99 13.34 139.26 13.15Q138.53 12.96 137.76 12.96L137.76 12.96Q136.73 12.96 136.13 13.38Q135.53 13.80 135.28 14.80Q135.02 15.79 135.02 17.54L135.02 17.54Q135.02 19.42 135.31 20.52Q135.60 21.62 136.28 22.09Q136.97 22.56 138.14 22.56L138.14 22.56Q139.70 22.56 140.83 21.86L140.83 21.86L140.40 22.90L140.40 6.48L142.27 6.48L142.27 23.47Q141.53 23.81 140.52 24.02Q139.51 24.24 138.34 24.24ZM150.86 24.24L150.86 24.24Q148.06 24.24 146.69 22.76Q145.32 21.29 145.32 18.24L145.32 18.24L145.32 17.28Q145.32 14.18 146.46 12.73Q147.60 11.28 150 11.28L150 11.28Q152.42 11.28 153.55 12.73Q154.68 14.18 154.68 17.28L154.68 17.28L154.68 18.58L146.26 18.58L146.26 17.02L153.24 17.02L152.81 17.57L152.81 17.35Q152.81 15 152.15 13.96Q151.49 12.91 150 12.91L150 12.91Q148.51 12.91 147.85 13.96Q147.19 15 147.19 17.35L147.19 17.35L147.19 18.17Q147.19 19.82 147.55 20.80Q147.91 21.77 148.75 22.19Q149.59 22.61 151.01 22.61L151.01 22.61Q151.70 22.61 152.44 22.51Q153.17 22.42 154.01 22.20L154.01 22.20L154.01 23.86Q153.29 24.02 152.46 24.13Q151.63 24.24 150.86 24.24Z"/></svg>