<svg xmlns="http://www.w3.org/2000/svg" xmlns:xlink="http://www.w3.org/1999/xlink" width="145.56" height="28.056"><path fill="black" d="M2.28 22.01L3.67 7.16L4.94 7.16L4.27 14.47L11.32 7.16L13.04 7.16L6.59 13.81L11.99 22.01L10.37 22.01L5.68 14.81L4.06 16.44L3.55 22.01L2.28 22.01ZM17.78 22.22L17.78 22.22Q16.66 22.22 15.92 21.73Q15.19 21.24 14.87 20.47Q14.56 19.70 14.63 18.89L14.63 18.89Q14.76 17.70 15.37 16.96Q15.97 16.22 16.88 15.88Q17.80 15.53 18.83 15.53L18.83 15.53Q19.57 15.53 20.37 15.71Q21.17 15.89 21.85 16.24L21.85 16.24L22.01 14.60Q22.19 12.89 21.58 12.16Q20.96 11.42 19.72 11.42L19.72 11.42Q19.02 11.42 18.41 11.65Q17.80 11.87 17.40 12.36Q17.00 12.85 16.94 13.64L16.94 13.64L15.54 13.64Q15.65 12.41 16.28 11.69Q16.92 10.97 17.84 10.67Q18.76 10.37 19.72 10.37L19.72 10.37Q21.49 10.37 22.46 11.35Q23.44 12.34 23.22 14.63L23.22 14.63L22.52 22.01L21.47 22.01Q21.48 21.47 21.50 20.95Q21.52 20.44 21.53 19.91L21.53 19.91Q20.95 21.10 19.93 21.66Q18.90 22.22 17.78 22.22ZM17.89 21.14L17.89 21.14Q18.84 21.14 19.73 20.66Q20.63 20.17 21.21 19.27Q21.79 18.36 21.76 17.11L21.76 17.11Q21.01 16.86 20.27 16.72Q19.52 16.58 18.84 16.58L18.84 16.58Q17.70 16.58 16.88 17.09Q16.07 17.59 15.94 18.89L15.94 18.89Q15.85 19.82 16.31 20.48Q16.76 21.14 17.89 21.14ZM27.92 22.01L26.68 22.01L27.74 10.61L28.99 10.61L28.78 12.73Q29.29 11.53 30.01 10.97Q30.73 10.42 31.75 10.42L31.75 10.42Q32.02 10.42 32.36 10.46Q32.70 10.51 33.01 10.67L33.01 10.67L32.77 11.98Q32.44 11.84 32.08 11.77Q31.72 11.69 31.37 11.69L31.37 11.69Q30.41 11.69 29.80 12.34Q29.18 13.00 28.84 14.14Q28.50 15.29 28.38 16.78L28.38 16.78L27.92 22.01ZM35.80 22.01L34.55 22.01L36.08 5.72L37.32 5.72L35.80 22.01ZM43.19 22.22L43.19 22.22Q42.06 22.22 41.33 21.73Q40.60 21.24 40.28 20.47Q39.96 19.70 40.03 18.89L40.03 18.89Q40.16 17.70 40.77 16.96Q41.38 16.22 42.29 15.88Q43.20 15.53 44.23 15.53L44.23 15.53Q44.98 15.53 45.77 15.71Q46.57 15.89 47.26 16.24L47.26 16.24L47.41 14.60Q47.59 12.89 46.98 12.16Q46.37 11.42 45.12 11.42L45.12 11.42Q44.42 11.42 43.81 11.65Q43.20 11.87 42.80 12.36Q42.41 12.85 42.35 13.64L42.35 13.64L40.94 13.64Q41.05 12.41 41.69 11.69Q42.32 10.97 43.24 10.67Q44.16 10.37 45.12 10.37L45.12 10.37Q46.90 10.37 47.87 11.35Q48.84 12.34 48.62 14.63L48.62 14.63L47.93 22.01L46.87 22.01Q46.88 21.47 46.90 20.95Q46.92 20.44 46.93 19.91L46.93 19.91Q46.36 21.10 45.33 21.66Q44.30 22.22 43.19 22.22ZM43.30 21.14L43.30 21.14Q44.24 21.14 45.14 20.66Q46.03 20.17 46.61 19.27Q47.20 18.36 47.16 17.11L47.16 17.11Q46.42 16.86 45.67 16.72Q44.93 16.58 44.24 16.58L44.24 16.58Q43.10 16.58 42.29 17.09Q41.47 17.59 41.34 18.89L41.34 18.89Q41.26 19.82 41.71 20.48Q42.17 21.14 43.30 21.14ZM61.00 22.22L61.00 22.22Q60.02 22.22 59.15 21.92Q58.27 21.62 57.62 21.03Q56.98 20.44 56.65 19.55Q56.33 18.67 56.45 17.52L56.45 17.52L57.70 17.52Q57.59 18.66 58.03 19.43Q58.46 20.21 59.29 20.60Q60.12 20.99 61.16 20.99L61.16 20.99Q62.72 20.99 63.68 20.09Q64.63 19.19 64.76 17.89L64.76 17.89Q64.85 17.06 64.54 16.40Q64.22 15.74 63.45 15.35Q62.68 14.95 61.34 14.95L61.34 14.95L59.95 14.95L60.10 13.84L60.85 13.84Q62.58 13.84 63.67 13.09Q64.75 12.34 64.87 11.05L64.87 11.05Q65.00 9.84 64.27 9.02Q63.53 8.21 62.09 8.21L62.09 8.21Q61.02 8.21 60.13 8.69Q59.23 9.18 58.82 10.52L58.82 10.52L57.54 10.52Q58.00 8.58 59.30 7.76Q60.60 6.94 62.23 6.94L62.23 6.94Q63.48 6.94 64.43 7.46Q65.38 7.98 65.87 8.89Q66.36 9.79 66.26 10.94L66.26 10.94Q66.13 12.13 65.43 12.96Q64.73 13.79 63.52 14.26L63.52 14.26Q64.76 14.63 65.50 15.55Q66.23 16.48 66.10 17.98L66.10 17.98Q65.96 19.24 65.32 20.20Q64.67 21.16 63.58 21.69Q62.48 22.22 61.00 22.22ZM73.33 22.22L73.33 22.22Q71.81 22.22 70.77 21.37Q69.73 20.52 69.28 18.82Q68.82 17.11 69.07 14.57L69.07 14.57Q69.29 12.04 70.06 10.34Q70.84 8.64 72.06 7.79Q73.28 6.94 74.83 6.94L74.83 6.94Q76.36 6.94 77.41 7.79Q78.46 8.64 78.92 10.34Q79.38 12.04 79.15 14.57L79.15 14.57Q78.92 17.11 78.13 18.82Q77.34 20.52 76.11 21.37Q74.88 22.22 73.33 22.22ZM73.50 20.99L73.50 20.99Q75.37 20.99 76.45 19.31Q77.53 17.64 77.84 14.57L77.84 14.57Q78.16 11.52 77.36 9.86Q76.56 8.21 74.66 8.21L74.66 8.21Q72.85 8.21 71.75 9.86Q70.66 11.52 70.33 14.57L70.33 14.57Q70.04 17.64 70.85 19.31Q71.65 20.99 73.50 20.99ZM85.72 22.22L85.72 22.22Q84.19 22.22 83.15 21.37Q82.12 20.52 81.66 18.82Q81.20 17.11 81.46 14.57L81.46 14.57Q81.67 12.04 82.45 10.34Q83.22 8.64 84.44 7.79Q85.67 6.94 87.22 6.94L87.22 6.94Q88.74 6.94 89.79 7.79Q90.84 8.64 91.30 10.34Q91.76 12.04 91.54 14.57L91.54 14.57Q91.31 17.11 90.52 18.82Q89.72 20.52 88.49 21.37Q87.26 22.22 85.72 22.22ZM85.88 20.99L85.88 20.99Q87.76 20.99 88.84 19.31Q89.92 17.64 90.23 14.57L90.23 14.57Q90.54 11.52 89.74 9.86Q88.94 8.21 87.05 8.21L87.05 8.21Q85.24 8.21 84.14 9.86Q83.04 11.52 82.72 14.57L82.72 14.57Q82.43 17.64 83.23 19.31Q84.04 20.99 85.88 20.99ZM101.23 7.60L101.23 7.60Q100.84 7.60 100.63 7.34Q100.43 7.08 100.46 6.68L100.46 6.68Q100.50 6.34 100.73 6.04Q100.97 5.74 101.41 5.74L101.41 5.74Q101.82 5.74 102.03 6.01Q102.24 6.29 102.20 6.68L102.20 6.68Q102.16 7.12 101.89 7.36Q101.62 7.60 101.23 7.60ZM100.48 22.01L99.23 22.01L100.30 10.61L101.54 10.61L100.48 22.01ZM108.29 22.22L108.29 22.22Q107.47 22.22 106.89 21.89Q106.31 21.56 106.04 20.89Q105.77 20.21 105.85 19.18L105.85 19.18L106.57 11.29L107.06 11.59L104.72 11.59L104.88 10.63L107.15 10.63L106.55 11.17L106.93 7.38L108.18 7.38L107.80 11.17L107.32 10.63L111.30 10.63L111.18 11.59L107.20 11.59L107.78 11.29L107.03 19.19Q106.94 20.14 107.32 20.62Q107.70 21.11 108.48 21.11L108.48 21.11Q108.94 21.11 109.40 20.99Q109.86 20.87 110.39 20.65L110.39 20.65L110.47 21.65Q109.91 21.94 109.36 22.08Q108.82 22.22 108.29 22.22ZM116.10 22.22L116.10 22.22Q114.97 22.22 114.24 21.73Q113.51 21.24 113.19 20.47Q112.87 19.70 112.94 18.89L112.94 18.89Q113.08 17.70 113.68 16.96Q114.29 16.22 115.20 15.88Q116.11 15.53 117.14 15.53L117.14 15.53Q117.89 15.53 118.69 15.71Q119.48 15.89 120.17 16.24L120.17 16.24L120.32 14.60Q120.50 12.89 119.89 12.16Q119.28 11.42 118.03 11.42L118.03 11.42Q117.34 11.42 116.72 11.65Q116.11 11.87 115.72 12.36Q115.32 12.85 115.26 13.64L115.26 13.64L113.86 13.64Q113.96 12.41 114.60 11.69Q115.24 10.97 116.15 10.67Q117.07 10.37 118.03 10.37L118.03 10.37Q119.81 10.37 120.78 11.35Q121.75 12.34 121.54 14.63L121.54 14.63L120.84 22.01L119.78 22.01Q119.80 21.47 119.81 20.95Q119.83 20.44 119.84 19.91L119.84 19.91Q119.27 21.10 118.24 21.66Q117.22 22.22 116.10 22.22ZM116.21 21.14L116.21 21.14Q117.16 21.14 118.05 20.66Q118.94 20.17 119.53 19.27Q120.11 18.36 120.07 17.11L120.07 17.11Q119.33 16.86 118.58 16.72Q117.84 16.58 117.16 16.58L117.16 16.58Q116.02 16.58 115.20 17.09Q114.38 17.59 114.25 18.89L114.25 18.89Q114.17 19.82 114.62 20.48Q115.08 21.14 116.21 21.14ZM126.28 22.01L125.03 22.01L126.56 5.72L127.80 5.72L126.28 22.01ZM132.82 7.60L132.82 7.60Q132.42 7.60 132.22 7.34Q132.01 7.08 132.05 6.68L132.05 6.68Q132.08 6.34 132.32 6.04Q132.55 5.74 133.00 5.74L133.00 5.74Q133.40 5.74 133.61 6.01Q133.82 6.29 133.79 6.68L133.79 6.68Q133.74 7.12 133.47 7.36Q133.20 7.60 132.82 7.60ZM132.06 22.01L130.81 22.01L131.88 10.61L133.13 10.61L132.06 22.01ZM140.36 22.22L140.36 22.22Q139.10 22.22 138.11 21.52Q137.12 20.81 136.61 19.48Q136.10 18.14 136.27 16.28L136.27 16.28Q136.45 14.41 137.21 13.09Q137.96 11.77 139.08 11.07Q140.20 10.37 141.44 10.37L141.44 10.37Q142.21 10.37 142.83 10.62Q143.45 10.87 143.91 11.32Q144.37 11.77 144.67 12.37Q144.96 12.97 145.08 13.68L145.08 13.68L143.82 13.91Q143.60 12.79 142.93 12.18Q142.26 11.57 141.31 11.57L141.31 11.57Q140.41 11.57 139.61 12.13Q138.82 12.68 138.26 13.73Q137.71 14.78 137.58 16.28L137.58 16.28Q137.45 17.68 137.75 18.75Q138.06 19.82 138.77 20.43Q139.48 21.04 140.52 21.04L140.52 21.04Q141.68 21.04 142.48 20.33Q143.28 19.62 143.35 18.30L143.35 18.30L144.67 18.30Q144.58 19.46 143.97 20.35Q143.36 21.24 142.42 21.73Q141.48 22.22 140.36 22.22Z"/></svg>