<svg xmlns="http://www.w3.org/2000/svg" xmlns:xlink="http://www.w3.org/1999/xlink" width="314.73599999999993" height="31.752"><path fill="black" d="M4.99 24.43L1.51 24.43L1.51 7.63L9.72 7.63Q11.42 7.63 12.73 8.29Q14.04 8.95 14.77 10.13Q15.50 11.30 15.50 12.84L15.50 12.84Q15.50 14.45 14.62 15.67Q13.73 16.90 12.24 17.50L12.24 17.50L15.96 24.43L12.07 24.43L8.78 18L4.99 18L4.99 24.43ZM4.99 10.63L4.99 15.14L9.41 15.14Q10.58 15.14 11.29 14.52Q12 13.90 12 12.89L12 12.89Q12 11.88 11.29 11.26Q10.58 10.63 9.41 10.63L9.41 10.63L4.99 10.63ZM22.99 24.67L22.99 24.67Q21.12 24.67 19.60 23.81Q18.07 22.94 17.18 21.48Q16.30 20.02 16.30 18.19L16.30 18.19Q16.30 16.37 17.15 14.90Q18 13.44 19.46 12.58Q20.93 11.71 22.73 11.71L22.73 11.71Q24.53 11.71 25.92 12.60Q27.31 13.49 28.12 15.00Q28.92 16.51 28.92 18.43L28.92 18.43L28.92 19.30L19.66 19.30Q19.87 20.04 20.36 20.64Q20.86 21.24 21.59 21.58Q22.32 21.91 23.16 21.91L23.16 21.91Q24 21.91 24.71 21.65Q25.42 21.38 25.92 20.90L25.92 20.90L28.08 22.87Q26.93 23.81 25.72 24.24Q24.50 24.67 22.99 24.67ZM19.61 16.94L19.61 16.94L25.68 16.94Q25.51 16.20 25.07 15.64Q24.62 15.07 24.01 14.75Q23.40 14.42 22.66 14.42L22.66 14.42Q21.89 14.42 21.26 14.74Q20.64 15.05 20.22 15.61Q19.80 16.18 19.61 16.94ZM36.82 24.60L36.82 24.60Q35.04 24.60 33.60 23.74Q32.16 22.87 31.31 21.42Q30.46 19.97 30.46 18.17L30.46 18.17Q30.46 16.37 31.31 14.92Q32.16 13.46 33.62 12.61Q35.09 11.76 36.91 11.76L36.91 11.76Q37.85 11.76 38.71 12.01Q39.58 12.26 40.32 12.74L40.32 12.74L40.32 7.63L43.61 7.08L43.61 24.43L40.37 24.43L40.37 23.40Q38.83 24.60 36.82 24.60ZM37.34 21.79L37.34 21.79Q38.26 21.79 39.01 21.49Q39.77 21.19 40.32 20.59L40.32 20.59L40.32 15.72Q39.77 15.17 39 14.86Q38.23 14.54 37.34 14.54L37.34 14.54Q36.31 14.54 35.48 15.01Q34.66 15.48 34.18 16.31Q33.70 17.14 33.70 18.17L33.70 18.17Q33.70 19.20 34.18 20.02Q34.66 20.83 35.48 21.31Q36.31 21.79 37.34 21.79ZM54.70 24.43L51.22 24.43L51.22 7.63L54.70 7.63L54.70 14.40L62.42 14.40L62.42 7.63L65.90 7.63L65.90 24.43L62.42 24.43L62.42 17.54L54.70 17.54L54.70 24.43ZM72.48 24.65L72.48 24.65Q71.14 24.65 70.10 24.16Q69.07 23.66 68.50 22.80Q67.92 21.94 67.92 20.81L67.92 20.81Q67.92 19.01 69.28 18.01Q70.63 17.02 73.01 17.02L73.01 17.02Q74.64 17.02 76.08 17.52L76.08 17.52L76.08 16.61Q76.08 15.53 75.41 14.98Q74.74 14.42 73.44 14.42L73.44 14.42Q72.65 14.42 71.74 14.68Q70.82 14.93 69.62 15.46L69.62 15.46L68.42 13.03Q69.91 12.36 71.27 12.02Q72.62 11.69 73.99 11.69L73.99 11.69Q76.51 11.69 77.92 12.90Q79.32 14.11 79.32 16.32L79.32 16.32L79.32 24.43L76.08 24.43L76.08 23.54Q75.31 24.12 74.42 24.38Q73.54 24.65 72.48 24.65ZM71.04 20.74L71.04 20.74Q71.04 21.46 71.66 21.88Q72.29 22.30 73.32 22.30L73.32 22.30Q74.14 22.30 74.83 22.09Q75.53 21.89 76.08 21.48L76.08 21.48L76.08 19.66Q75.48 19.42 74.83 19.30Q74.18 19.18 73.44 19.18L73.44 19.18Q72.31 19.18 71.68 19.60Q71.04 20.02 71.04 20.74ZM87.38 24.62L87.38 24.62Q85.30 24.62 84.23 23.68Q83.16 22.73 83.16 20.90L83.16 20.90L83.16 14.66L80.59 14.66L80.59 11.93L83.16 11.93L83.16 8.74L86.45 7.99L86.45 11.93L90.02 11.93L90.02 14.66L86.45 14.66L86.45 20.23Q86.45 21.10 86.83 21.47Q87.22 21.84 88.18 21.84L88.18 21.84Q88.66 21.84 89.05 21.78Q89.45 21.72 89.93 21.55L89.93 21.55L89.93 24.26Q89.42 24.43 88.67 24.53Q87.91 24.62 87.38 24.62ZM100.15 10.73L100.15 21.34L103.08 21.34Q104.21 21.34 105.18 20.94Q106.15 20.54 106.88 19.82Q107.62 19.10 108.01 18.14Q108.41 17.18 108.41 16.06L108.41 16.06Q108.41 14.93 108.00 13.96Q107.59 12.98 106.87 12.26Q106.15 11.54 105.18 11.14Q104.21 10.73 103.08 10.73L103.08 10.73L100.15 10.73ZM103.13 24.43L96.67 24.43L96.67 7.63L103.13 7.63Q105.02 7.63 106.63 8.27Q108.24 8.90 109.44 10.06Q110.64 11.21 111.32 12.74Q112.01 14.28 112.01 16.06L112.01 16.06Q112.01 17.86 111.34 19.37Q110.66 20.88 109.45 22.02Q108.24 23.16 106.63 23.80Q105.02 24.43 103.13 24.43L103.13 24.43ZM117.46 24.43L114.17 24.43L114.17 11.93L117.46 11.93L117.46 24.43ZM115.80 10.44L115.80 10.44Q115.03 10.44 114.48 9.89Q113.93 9.34 113.93 8.57L113.93 8.57Q113.93 7.78 114.48 7.24Q115.03 6.70 115.80 6.70L115.80 6.70Q116.59 6.70 117.13 7.24Q117.67 7.78 117.67 8.57L117.67 8.57Q117.67 9.34 117.13 9.89Q116.59 10.44 115.80 10.44ZM124.70 24.67L124.70 24.67Q122.98 24.67 121.51 24.23Q120.05 23.78 118.97 22.94L118.97 22.94L120.60 20.76Q121.68 21.48 122.68 21.84Q123.67 22.20 124.66 22.20L124.66 22.20Q125.76 22.20 126.42 21.83Q127.08 21.46 127.08 20.86L127.08 20.86Q127.08 20.38 126.71 20.09Q126.34 19.80 125.52 19.68L125.52 19.68L123.12 19.32Q121.25 19.03 120.29 18.11Q119.33 17.18 119.33 15.67L119.33 15.67Q119.33 14.45 119.96 13.57Q120.60 12.70 121.76 12.20Q122.93 11.71 124.54 11.71L124.54 11.71Q125.90 11.71 127.21 12.10Q128.52 12.48 129.67 13.27L129.67 13.27L128.09 15.41Q127.06 14.76 126.12 14.47Q125.18 14.18 124.22 14.18L124.22 14.18Q123.34 14.18 122.80 14.52Q122.26 14.86 122.26 15.41L122.26 15.41Q122.26 15.91 122.64 16.20Q123.02 16.49 123.96 16.61L123.96 16.61L126.34 16.97Q128.21 17.23 129.19 18.16Q130.18 19.08 130.18 20.54L130.18 20.54Q130.18 21.74 129.46 22.67Q128.74 23.59 127.51 24.13Q126.29 24.67 124.70 24.67ZM135.10 29.33L131.81 29.33L131.81 11.93L135.05 11.93L135.05 12.96Q136.58 11.76 138.60 11.76L138.60 11.76Q140.38 11.76 141.82 12.62Q143.26 13.49 144.11 14.94Q144.96 16.39 144.96 18.19L144.96 18.19Q144.96 19.99 144.10 21.44Q143.23 22.90 141.77 23.75Q140.30 24.60 138.50 24.60L138.50 24.60Q137.57 24.60 136.70 24.35Q135.84 24.10 135.10 23.62L135.10 23.62L135.10 29.33ZM138.07 21.82L138.07 21.82Q139.10 21.82 139.93 21.34Q140.76 20.86 141.24 20.04Q141.72 19.22 141.72 18.19L141.72 18.19Q141.72 17.16 141.24 16.33Q140.76 15.50 139.93 15.04Q139.10 14.57 138.07 14.57L138.07 14.57Q137.16 14.57 136.40 14.87Q135.65 15.17 135.10 15.77L135.10 15.77L135.10 20.64Q135.62 21.19 136.40 21.50Q137.18 21.82 138.07 21.82ZM150.24 24.43L146.95 24.43L146.95 7.63L150.24 7.08L150.24 24.43ZM156.79 24.65L156.79 24.65Q155.45 24.65 154.42 24.16Q153.38 23.66 152.81 22.80Q152.23 21.94 152.23 20.81L152.23 20.81Q152.23 19.01 153.59 18.01Q154.94 17.02 157.32 17.02L157.32 17.02Q158.95 17.02 160.39 17.52L160.39 17.52L160.39 16.61Q160.39 15.53 159.72 14.98Q159.05 14.42 157.75 14.42L157.75 14.42Q156.96 14.42 156.05 14.68Q155.14 14.93 153.94 15.46L153.94 15.46L152.74 13.03Q154.22 12.36 155.58 12.02Q156.94 11.69 158.30 11.69L158.30 11.69Q160.82 11.69 162.23 12.90Q163.63 14.11 163.63 16.32L163.63 16.32L163.63 24.43L160.39 24.43L160.39 23.54Q159.62 24.12 158.74 24.38Q157.85 24.65 156.79 24.65ZM155.35 20.74L155.35 20.74Q155.35 21.46 155.98 21.88Q156.60 22.30 157.63 22.30L157.63 22.30Q158.45 22.30 159.14 22.09Q159.84 21.89 160.39 21.48L160.39 21.48L160.39 19.66Q159.79 19.42 159.14 19.30Q158.50 19.18 157.75 19.18L157.75 19.18Q156.62 19.18 155.99 19.60Q155.35 20.02 155.35 20.74ZM167.11 29.59L167.11 29.59Q166.68 29.59 166.28 29.56Q165.89 29.52 165.62 29.47L165.62 29.47L165.62 26.64Q166.10 26.74 166.78 26.74L166.78 26.74Q168.58 26.74 169.27 25.03L169.27 25.03L169.46 24.55L164.59 11.93L168.22 11.93L171.34 20.45L174.86 11.93L178.42 11.93L172.66 25.44Q172.01 26.95 171.24 27.86Q170.47 28.78 169.48 29.18Q168.48 29.59 167.11 29.59ZM189.53 24.43L185.78 24.43L193.32 10.39L183.91 10.39L183.91 7.63L196.70 7.63L196.70 9.98L189.53 24.43ZM205.54 24.70L205.54 24.70Q203.35 24.70 201.68 23.60Q200.02 22.51 199.09 20.56Q198.17 18.60 198.17 16.03L198.17 16.03Q198.17 13.44 199.09 11.50Q200.02 9.55 201.68 8.46Q203.35 7.37 205.54 7.37L205.54 7.37Q207.74 7.37 209.41 8.46Q211.08 9.55 212.00 11.50Q212.93 13.44 212.93 16.03L212.93 16.03Q212.93 18.60 212.00 20.56Q211.08 22.51 209.41 23.60Q207.74 24.70 205.54 24.70ZM205.54 21.84L205.54 21.84Q206.83 21.84 207.77 21.14Q208.70 20.45 209.22 19.13Q209.74 17.81 209.74 16.03L209.74 16.03Q209.74 14.23 209.22 12.92Q208.70 11.62 207.77 10.92Q206.83 10.22 205.54 10.22L205.54 10.22Q204.26 10.22 203.33 10.92Q202.39 11.62 201.88 12.92Q201.36 14.23 201.36 16.03L201.36 16.03Q201.36 17.81 201.88 19.13Q202.39 20.45 203.33 21.14Q204.26 21.84 205.54 21.84ZM221.98 24.70L221.98 24.70Q219.79 24.70 218.12 23.60Q216.46 22.51 215.53 20.56Q214.61 18.60 214.61 16.03L214.61 16.03Q214.61 13.44 215.53 11.50Q216.46 9.55 218.12 8.46Q219.79 7.37 221.98 7.37L221.98 7.37Q224.18 7.37 225.85 8.46Q227.52 9.55 228.44 11.50Q229.37 13.44 229.37 16.03L229.37 16.03Q229.37 18.60 228.44 20.56Q227.52 22.51 225.85 23.60Q224.18 24.70 221.98 24.70ZM221.98 21.84L221.98 21.84Q223.27 21.84 224.21 21.14Q225.14 20.45 225.66 19.13Q226.18 17.81 226.18 16.03L226.18 16.03Q226.18 14.23 225.66 12.92Q225.14 11.62 224.21 10.92Q223.27 10.22 221.98 10.22L221.98 10.22Q220.70 10.22 219.77 10.92Q218.83 11.62 218.32 12.92Q217.80 14.23 217.80 16.03L217.80 16.03Q217.80 17.81 218.32 19.13Q218.83 20.45 219.77 21.14Q220.70 21.84 221.98 21.84ZM239.62 24.43L236.33 24.43L236.33 11.93L239.62 11.93L239.62 12.96Q241.03 11.69 243.12 11.69L243.12 11.69Q244.58 11.69 245.70 12.32Q246.82 12.96 247.44 14.08Q248.06 15.19 248.06 16.68L248.06 16.68L248.06 24.43L244.78 24.43L244.78 17.16Q244.78 15.94 244.08 15.23Q243.38 14.52 242.18 14.52L242.18 14.52Q241.34 14.52 240.70 14.84Q240.05 15.17 239.62 15.77L239.62 15.77L239.62 24.43ZM256.66 24.67L256.66 24.67Q254.78 24.67 253.27 23.81Q251.76 22.94 250.87 21.48Q249.98 20.02 249.98 18.19L249.98 18.19Q249.98 16.37 250.86 14.89Q251.74 13.42 253.26 12.55Q254.78 11.69 256.66 11.69L256.66 11.69Q258.53 11.69 260.05 12.55Q261.58 13.42 262.45 14.89Q263.33 16.37 263.33 18.19L263.33 18.19Q263.33 20.02 262.45 21.48Q261.58 22.94 260.06 23.81Q258.55 24.67 256.66 24.67ZM256.66 21.82L256.66 21.82Q257.64 21.82 258.42 21.34Q259.20 20.86 259.67 20.03Q260.14 19.20 260.14 18.19L260.14 18.19Q260.14 17.16 259.67 16.34Q259.20 15.53 258.42 15.04Q257.64 14.54 256.66 14.54L256.66 14.54Q255.70 14.54 254.90 15.04Q254.11 15.53 253.66 16.34Q253.20 17.16 253.20 18.19L253.20 18.19Q253.20 19.20 253.66 20.03Q254.11 20.86 254.90 21.34Q255.70 21.82 256.66 21.82ZM268.63 24.43L265.34 24.43L265.34 11.93L268.63 11.93L268.63 13.32Q269.23 12.50 270.07 12.07Q270.91 11.64 271.97 11.64L271.97 11.64Q272.88 11.66 273.34 11.93L273.34 11.93L273.34 14.81Q272.98 14.64 272.54 14.56Q272.11 14.47 271.66 14.47L271.66 14.47Q270.70 14.47 269.90 14.95Q269.11 15.43 268.63 16.32L268.63 16.32L268.63 24.43ZM278.42 24.43L275.14 24.43L275.14 11.93L278.42 11.93L278.42 12.89Q279.77 11.69 281.69 11.69L281.69 11.69Q282.91 11.69 283.87 12.18Q284.83 12.67 285.46 13.56L285.46 13.56Q286.22 12.65 287.27 12.17Q288.31 11.69 289.58 11.69L289.58 11.69Q291 11.69 292.07 12.32Q293.14 12.96 293.75 14.08Q294.36 15.19 294.36 16.68L294.36 16.68L294.36 24.43L291.10 24.43L291.10 17.16Q291.10 15.94 290.45 15.23Q289.80 14.52 288.72 14.52L288.72 14.52Q287.98 14.52 287.36 14.83Q286.75 15.14 286.32 15.77L286.32 15.77Q286.34 15.98 286.37 16.20Q286.39 16.42 286.39 16.68L286.39 16.68L286.39 24.43L283.10 24.43L283.10 17.16Q283.10 15.94 282.47 15.23Q281.83 14.52 280.75 14.52L280.75 14.52Q280.01 14.52 279.42 14.81Q278.83 15.10 278.42 15.67L278.42 15.67L278.42 24.43ZM300.84 24.65L300.84 24.65Q299.50 24.65 298.46 24.16Q297.43 23.66 296.86 22.80Q296.28 21.94 296.28 20.81L296.28 20.81Q296.28 19.01 297.64 18.01Q298.99 17.02 301.37 17.02L301.37 17.02Q303.00 17.02 304.44 17.52L304.44 17.52L304.44 16.61Q304.44 15.53 303.77 14.98Q303.10 14.42 301.80 14.42L301.80 14.42Q301.01 14.42 300.10 14.68Q299.18 14.93 297.98 15.46L297.98 15.46L296.78 13.03Q298.27 12.36 299.63 12.02Q300.98 11.69 302.35 11.69L302.35 11.69Q304.87 11.69 306.28 12.90Q307.68 14.11 307.68 16.32L307.68 16.32L307.68 24.43L304.44 24.43L304.44 23.54Q303.67 24.12 302.78 24.38Q301.90 24.65 300.84 24.65ZM299.40 20.74L299.40 20.74Q299.40 21.46 300.02 21.88Q300.65 22.30 301.68 22.30L301.68 22.30Q302.50 22.30 303.19 22.09Q303.89 21.89 304.44 21.48L304.44 21.48L304.44 19.66Q303.84 19.42 303.19 19.30Q302.54 19.18 301.80 19.18L301.80 19.18Q300.67 19.18 300.04 19.60Q299.40 20.02 299.40 20.74ZM313.46 24.43L310.18 24.43L310.18 7.63L313.46 7.08L313.46 24.43Z"/></svg>