<svg xmlns="http://www.w3.org/2000/svg" xmlns:xlink="http://www.w3.org/1999/xlink" width="152.70703125" height="43.359375"><path fill="black" d="M4.08 12.49L4.08 12.49Q6.80 10.89 7.00 10.89L7.00 10.89Q7.20 10.89 7.68 11.26L7.68 11.26Q8.16 11.64 8.64 12.29Q9.12 12.95 9.12 13.58L9.12 13.58L9.12 17.61Q9.12 18.16 7.15 19.00L7.15 19.00Q7.49 19.09 7.96 19.56Q8.43 20.04 8.78 20.64Q9.14 21.23 9.14 21.74L9.14 21.74L9.14 27.07Q9.14 27.14 8.62 27.39Q8.10 27.63 7.31 27.96Q6.53 28.28 5.69 28.58Q4.85 28.89 4.19 29.09Q3.53 29.30 3.29 29.30L3.29 29.30Q2.91 29.30 2.41 28.82Q1.92 28.35 1.56 27.55Q1.20 26.75 1.20 25.79L1.20 25.79L1.20 14.27Q1.20 12.97 0.21 12.76L0.21 12.76L0.21 12.23L2.64 10.86Q3.16 11.09 3.62 11.58Q4.08 12.07 4.08 12.49ZM6.23 16.41L6.23 14.89Q6.23 14.26 5.96 13.78L5.96 13.78Q5.65 13.24 5.12 13.32Q4.59 13.39 4.08 14.03L4.08 14.03L4.08 19.00Q6.23 18.40 6.23 16.41L6.23 16.41ZM5.30 27.09L5.30 27.09Q5.77 27.09 6.23 26.71L6.23 26.71L6.23 22.98Q6.23 21.21 5.02 21.21L5.02 21.21Q4.52 21.21 4.08 21.57L4.08 21.57L4.08 25.31Q4.08 27.09 5.30 27.09ZM11.30 25.79L11.30 25.79L11.30 17.82Q11.30 17.75 11.84 17.51Q12.39 17.27 13.21 16.96Q14.03 16.64 14.88 16.33Q15.73 16.02 16.37 15.82Q17.02 15.62 17.18 15.62L17.18 15.62Q17.39 15.62 17.73 15.90Q18.07 16.17 18.42 16.61Q18.76 17.04 19.00 17.51Q19.24 17.99 19.24 18.38L19.24 18.38L19.24 27.07Q19.24 27.14 18.72 27.39Q18.20 27.63 17.41 27.96Q16.63 28.28 15.79 28.58Q14.95 28.89 14.29 29.09Q13.63 29.30 13.39 29.30L13.39 29.30Q13.01 29.30 12.52 28.82Q12.02 28.35 11.66 27.55Q11.30 26.75 11.30 25.79ZM15.40 27.09L15.40 27.09Q15.87 27.09 16.34 26.71L16.34 26.71L16.34 19.63Q16.34 17.85 15.12 17.85L15.12 17.85Q14.63 17.85 14.18 18.21L14.18 18.21L14.18 25.31Q14.18 27.09 15.40 27.09ZM24.52 23.06L24.52 23.06L24.52 25.75Q24.52 27.20 25.50 27.40L25.50 27.40L25.50 27.93L23.07 29.30Q22.55 29.09 22.09 28.59Q21.63 28.10 21.63 27.67L21.63 27.67L21.63 15.79Q21.63 15.14 21.42 14.87Q21.20 14.59 20.67 14.59L20.67 14.59L20.67 13.91Q22.23 13.09 23.63 12.32Q25.02 11.55 26.24 10.84L26.24 10.84L26.63 11.61Q26.38 11.73 25.95 12.08Q25.52 12.42 25.23 12.79L25.23 12.79Q24.52 13.69 24.52 14.85L24.52 14.85L24.52 17.06Q26.75 15.62 27.15 15.62L27.15 15.62Q27.60 15.62 28.14 16.03Q28.68 16.43 29.07 17.07Q29.46 17.72 29.46 18.45L29.46 18.45L29.46 21.07Q29.46 21.32 26.96 22.29L26.96 22.29Q28.48 26.30 29.91 26.89L29.91 26.89Q30.33 27.11 30.91 27.16L30.91 27.16L30.91 27.86Q28.69 29.30 28.11 29.30L28.11 29.30Q27.81 29.30 27.41 28.86Q27.01 28.42 26.58 27.70Q26.14 26.99 25.75 26.15Q25.35 25.31 25.03 24.50Q24.70 23.68 24.52 23.06ZM25.28 17.94L25.28 17.94L24.52 18.07L24.52 21.88Q25.00 21.88 26.24 21.28L26.24 21.28L26.67 21.07L26.67 19.98Q26.67 17.94 25.28 17.94ZM31.46 25.79L31.46 25.79L31.46 17.82Q31.46 17.75 32.01 17.51Q32.55 17.27 33.38 16.96Q34.20 16.64 35.04 16.33Q35.89 16.02 36.54 15.82Q37.18 15.62 37.35 15.62L37.35 15.62Q37.56 15.62 37.90 15.90Q38.24 16.17 38.58 16.61Q38.93 17.04 39.17 17.51Q39.41 17.99 39.41 18.38L39.41 18.38L39.41 27.07Q39.41 27.14 38.89 27.39Q38.37 27.63 37.58 27.96Q36.80 28.28 35.96 28.58Q35.12 28.89 34.46 29.09Q33.80 29.30 33.56 29.30L33.56 29.30Q33.18 29.30 32.68 28.82Q32.19 28.35 31.83 27.55Q31.46 26.75 31.46 25.79ZM35.57 27.09L35.57 27.09Q36.04 27.09 36.50 26.71L36.50 26.71L36.50 19.63Q36.50 17.85 35.29 17.85L35.29 17.85Q34.79 17.85 34.35 18.21L34.35 18.21L34.35 25.31Q34.35 27.09 35.57 27.09ZM40.63 17.59L40.63 17.59L40.63 17.06L43.27 15.62Q43.36 15.64 43.46 15.67Q43.56 15.70 43.68 15.75L43.68 15.75Q43.91 15.83 44.30 16.22Q44.68 16.61 44.68 17.09L44.68 17.09Q44.77 17.05 45.82 16.32L45.82 16.32Q46.84 15.62 47.13 15.62L47.13 15.62Q47.65 15.62 48.13 16.10Q48.62 16.58 48.93 17.24Q49.24 17.91 49.24 18.47L49.24 18.47L49.24 19.65L46.77 21.04L46.36 20.71Q46.36 18.70 45.98 18.40L45.98 18.40Q45.54 18.09 44.68 18.09L44.68 18.09L44.68 25.75Q44.68 27.20 45.67 27.40L45.67 27.40L45.67 27.93L43.24 29.30Q42.71 29.09 42.26 28.59Q41.80 28.10 41.80 27.67L41.80 27.67L41.80 19.70Q41.80 18.64 41.43 18.12Q41.06 17.59 40.63 17.59ZM61.48 26.23L61.48 26.23L61.48 22.63L56.53 22.63Q56.47 22.63 56.34 22.42Q56.20 22.21 56.09 21.94Q55.98 21.67 55.98 21.50L55.98 21.50Q55.98 21.45 56.11 21.14Q56.24 20.84 56.63 20.01Q57.02 19.18 57.81 17.60Q58.61 16.02 59.93 13.41L59.93 13.41Q61.39 10.82 61.82 10.82L61.82 10.82Q63.42 11.21 64.11 11.92L64.11 11.92Q64.38 12.19 64.38 12.45L64.38 12.45L64.38 21.21L65.34 21.21L65.34 22.02L64.38 22.63L64.38 25.29Q64.38 25.93 64.60 26.21Q64.82 26.48 65.34 26.48L65.34 26.48L65.34 27.16Q60.46 29.30 60.45 29.30L60.45 29.30L60.06 28.52Q60.22 28.52 60.52 28.36Q60.81 28.20 61.00 27.97L61.00 27.97Q61.48 27.36 61.48 26.23ZM61.50 21.21L61.50 21.21L61.50 14.78L58.27 21.26Q61.46 21.25 61.50 21.21ZM66.77 25.79L66.77 25.79L66.77 13.02Q66.77 12.95 67.32 12.71Q67.86 12.47 68.68 12.15Q69.50 11.84 70.35 11.53Q71.20 11.21 71.85 11.02Q72.49 10.82 72.66 10.82L72.66 10.82Q72.87 10.82 73.21 11.09Q73.55 11.37 73.89 11.80Q74.24 12.23 74.48 12.71Q74.72 13.18 74.72 13.58L74.72 13.58L74.72 27.07Q74.72 27.14 74.20 27.39Q73.68 27.63 72.89 27.96Q72.11 28.28 71.27 28.58Q70.43 28.89 69.77 29.09Q69.11 29.30 68.87 29.30L68.87 29.30Q68.48 29.30 67.99 28.82Q67.50 28.35 67.14 27.55Q66.77 26.75 66.77 25.79ZM70.88 27.09L70.88 27.09Q71.34 27.09 71.81 26.71L71.81 26.71L71.81 14.82Q71.81 13.05 70.59 13.05L70.59 13.05Q70.11 13.05 69.66 13.41L69.66 13.41L69.66 25.31Q69.66 27.09 70.88 27.09ZM70.21 21.40L70.21 21.40L70.21 19.45Q70.21 19.24 70.47 19.20Q70.73 19.15 71.00 19.25Q71.26 19.35 71.26 19.61L71.26 19.61L71.26 21.67Q71.26 21.89 71.00 21.93Q70.73 21.97 70.47 21.84Q70.21 21.70 70.21 21.40ZM77.11 25.79L77.11 25.79L77.11 13.02Q77.11 12.95 77.65 12.71Q78.20 12.47 79.02 12.15Q79.84 11.84 80.69 11.53Q81.54 11.21 82.18 11.02Q82.83 10.82 82.99 10.82L82.99 10.82Q83.20 10.82 83.54 11.09Q83.88 11.37 84.23 11.80Q84.57 12.23 84.81 12.71Q85.05 13.18 85.05 13.58L85.05 13.58L85.05 27.07Q85.05 27.14 84.53 27.39Q84.01 27.63 83.23 27.96Q82.44 28.28 81.60 28.58Q80.77 28.89 80.10 29.09Q79.44 29.30 79.21 29.30L79.21 29.30Q78.82 29.30 78.33 28.82Q77.84 28.35 77.47 27.55Q77.11 26.75 77.11 25.79ZM81.21 27.09L81.21 27.09Q81.68 27.09 82.15 26.71L82.15 26.71L82.15 14.82Q82.15 13.05 80.93 13.05L80.93 13.05Q80.45 13.05 79.99 13.41L79.99 13.41L79.99 25.31Q79.99 27.09 81.21 27.09ZM80.54 21.40L80.54 21.40L80.54 19.45Q80.54 19.24 80.81 19.20Q81.07 19.15 81.33 19.25Q81.60 19.35 81.60 19.61L81.60 19.61L81.60 21.67Q81.60 21.89 81.33 21.93Q81.07 21.97 80.81 21.84Q80.54 21.70 80.54 21.40ZM93.68 27.67L93.68 27.67L93.68 19.52Q93.68 18.74 93.35 18.16Q93.01 17.59 92.51 17.59L92.51 17.59L92.51 17.06Q92.67 17.03 95.12 15.60L95.12 15.60Q95.21 15.62 95.32 15.65Q95.43 15.68 95.54 15.73L95.54 15.73Q95.78 15.81 96.17 16.20Q96.56 16.58 96.56 17.09L96.56 17.09Q96.74 16.98 97.38 16.63L97.38 16.63Q99.16 15.62 99.49 15.62L99.49 15.62Q100.01 15.62 100.49 16.10Q100.98 16.58 101.29 17.24Q101.60 17.91 101.60 18.47L101.60 18.47L101.60 25.75Q101.60 27.07 102.79 27.30L102.79 27.30L102.79 27.83L100.16 29.30Q99.63 29.09 99.18 28.59Q98.72 28.10 98.72 27.67L98.72 27.67L98.72 20.71Q98.72 19.36 98.42 18.65Q98.12 17.94 97.36 17.94L97.36 17.94L96.56 18.09L96.56 25.75Q96.56 27.20 97.55 27.40L97.55 27.40L97.55 27.93L95.12 29.30Q94.59 29.09 94.14 28.59Q93.68 28.10 93.68 27.67ZM103.99 25.79L103.99 25.79L103.99 17.82Q103.99 17.75 104.54 17.51Q105.08 17.27 105.90 16.96Q106.72 16.64 107.57 16.33Q108.42 16.02 109.07 15.82Q109.71 15.62 109.88 15.62L109.88 15.62Q110.09 15.62 110.43 15.90Q110.77 16.17 111.11 16.61Q111.46 17.04 111.70 17.51Q111.94 17.99 111.94 18.38L111.94 18.38L111.94 27.07Q111.94 27.14 111.42 27.39Q110.89 27.63 110.11 27.96Q109.32 28.28 108.49 28.58Q107.65 28.89 106.99 29.09Q106.32 29.30 106.09 29.30L106.09 29.30Q105.70 29.30 105.21 28.82Q104.72 28.35 104.36 27.55Q103.99 26.75 103.99 25.79ZM108.09 27.09L108.09 27.09Q108.56 27.09 109.03 26.71L109.03 26.71L109.03 19.63Q109.03 17.85 107.81 17.85L107.81 17.85Q107.32 17.85 106.88 18.21L106.88 18.21L106.88 25.31Q106.88 27.09 108.09 27.09ZM113.16 17.59L113.16 17.59L113.16 17.06L115.79 15.62Q115.89 15.64 115.99 15.67Q116.09 15.70 116.20 15.75L116.20 15.75Q116.44 15.83 116.82 16.22Q117.21 16.61 117.21 17.09L117.21 17.09Q117.29 17.05 118.35 16.32L118.35 16.32Q119.37 15.62 119.66 15.62L119.66 15.62Q120.18 15.62 120.66 16.10Q121.15 16.58 121.46 17.24Q121.77 17.91 121.77 18.47L121.77 18.47L121.77 19.65L119.30 21.04L118.89 20.71Q118.89 18.70 118.51 18.40L118.51 18.40Q118.07 18.09 117.21 18.09L117.21 18.09L117.21 25.75Q117.21 27.20 118.20 27.40L118.20 27.40L118.20 27.93L115.77 29.30Q115.24 29.09 114.79 28.59Q114.33 28.10 114.33 27.67L114.33 27.67L114.33 19.70Q114.33 18.64 113.96 18.12Q113.59 17.59 113.16 17.59ZM123.45 27.67L123.45 27.67L123.45 19.52Q123.45 18.74 123.11 18.16Q122.78 17.59 122.27 17.59L122.27 17.59L122.27 17.06Q122.44 17.03 124.89 15.60L124.89 15.60Q124.98 15.62 125.09 15.65Q125.19 15.68 125.31 15.73L125.31 15.73Q125.54 15.81 125.94 16.20Q126.33 16.58 126.33 17.09L126.33 17.09Q126.50 16.98 127.15 16.63L127.15 16.63Q128.93 15.62 129.34 15.62L129.34 15.62Q129.76 15.62 130.28 16.05Q130.79 16.48 131.06 17.09L131.06 17.09Q131.09 17.07 131.33 16.95Q131.58 16.82 132.05 16.58L132.05 16.58Q133.90 15.62 134.30 15.62L134.30 15.62Q134.81 15.62 135.30 16.10Q135.79 16.58 136.10 17.24Q136.41 17.91 136.41 18.47L136.41 18.47L136.41 25.75Q136.41 27.07 137.59 27.30L137.59 27.30L137.59 27.83L134.96 29.30Q134.44 29.09 133.99 28.59Q133.54 28.10 133.54 27.67L133.54 27.67L133.54 20.59Q133.54 19.02 133.13 18.50L133.13 18.50Q132.71 17.99 132.07 17.99L132.07 17.99L131.37 18.14L131.37 25.75Q131.37 27.07 132.55 27.30L132.55 27.30L132.55 27.83L129.93 29.30Q129.40 29.09 128.94 28.59Q128.48 28.10 128.48 27.67L128.48 27.67L128.48 20.71Q128.48 17.94 127.17 17.94L127.17 17.94L126.33 18.09L126.33 25.75Q126.33 27.20 127.31 27.40L127.31 27.40L127.31 27.93L124.89 29.30Q124.36 29.09 123.90 28.59Q123.45 28.10 123.45 27.67ZM146.24 18.79L146.24 18.79L146.24 25.58Q146.24 26.46 146.53 26.81Q146.81 27.16 147.41 27.30L147.41 27.30L147.41 27.83L144.80 29.30Q144.27 29.09 143.81 28.59Q143.36 28.10 143.36 27.69L143.36 27.69L140.36 29.30Q140.32 29.27 140.27 29.24Q140.21 29.21 140.14 29.17L140.14 29.17Q139.99 29.09 139.65 28.80Q139.30 28.52 139.03 28.22L139.03 28.22Q138.32 27.43 138.32 26.41L138.32 26.41L138.32 22.48Q138.32 22.22 138.91 21.86Q139.50 21.49 140.37 21.13Q141.23 20.77 142.05 20.51L142.05 20.51L143.33 20.11Q143.33 19.20 143.03 18.66Q142.72 18.13 141.97 17.89Q141.21 17.66 139.83 17.66L139.83 17.66L139.83 16.93Q143.52 15.62 144 15.62L144 15.62Q144.54 15.62 145.05 16.11Q145.56 16.59 145.90 17.32Q146.24 18.05 146.24 18.79ZM141.20 23.99L141.20 25.56Q141.20 26.17 141.57 26.57L141.57 26.57Q141.95 26.96 142.41 26.96Q142.86 26.95 143.36 26.61L143.36 26.61L143.36 21.19Q142.76 21.40 142.46 21.54Q142.16 21.69 141.82 22.00L141.82 22.00Q141.20 22.58 141.20 23.99L141.20 23.99ZM151.51 12.47L151.51 12.47L151.51 25.75Q151.51 27.20 152.50 27.40L152.50 27.40L152.50 27.93L150.07 29.30Q149.54 29.09 149.09 28.59Q148.63 28.10 148.63 27.67L148.63 27.67L148.63 14.39Q148.63 12.93 147.64 12.74L147.64 12.74L147.64 12.21L150.07 10.84Q150.60 11.06 151.05 11.55Q151.51 12.04 151.51 12.47Z"/></svg>