<svg xmlns="http://www.w3.org/2000/svg" xmlns:xlink="http://www.w3.org/1999/xlink" width="161.232" height="30.72"><path fill="black" d="M13.03 24.14L0.91 24.14L0.98 23.09Q1.78 23.04 2.14 22.75Q2.50 22.46 2.62 21.89Q2.74 21.31 2.78 20.42L2.78 20.42L3.34 10.44Q3.38 9.91 3.42 9.42Q3.46 8.93 3.50 8.57L3.50 8.57Q3.10 8.59 2.63 8.62Q2.16 8.64 1.78 8.66L1.78 8.66L1.80 7.34L7.61 7.34L7.56 8.40Q6.82 8.42 6.44 8.72Q6.07 9.02 5.94 9.59Q5.81 10.15 5.76 11.06L5.76 11.06L5.23 21Q5.21 21.65 5.15 22.14Q5.09 22.63 5.04 22.94L5.04 22.94L9.12 22.90Q10.58 22.87 11.44 21.94Q12.29 21 12.38 18.91L12.38 18.91L13.46 18.91L13.03 24.14ZM20.90 11.88L20.90 11.88Q22.20 11.88 23.26 12.49Q24.31 13.10 24.92 14.29Q25.54 15.48 25.54 17.16L25.54 17.16Q25.54 19.08 24.83 20.74Q24.12 22.39 22.80 23.40Q21.48 24.41 19.61 24.41L19.61 24.41Q18.02 24.41 16.98 23.69Q15.94 22.97 15.43 21.73Q14.93 20.50 14.93 19.01L14.93 19.01Q14.93 17.06 15.65 15.44Q16.37 13.82 17.71 12.85Q19.06 11.88 20.90 11.88ZM20.54 13.01L20.54 13.01Q19.58 12.98 18.90 13.69Q18.22 14.40 17.83 15.60Q17.45 16.80 17.42 18.26L17.42 18.26Q17.42 19.03 17.53 19.91Q17.64 20.78 17.92 21.54Q18.19 22.30 18.67 22.78Q19.15 23.26 19.90 23.28L19.90 23.28Q20.74 23.28 21.32 22.76Q21.91 22.25 22.28 21.42Q22.66 20.59 22.84 19.66Q23.02 18.72 23.04 17.90L23.04 17.90Q23.06 17.11 22.97 16.27Q22.87 15.43 22.60 14.69Q22.32 13.94 21.83 13.48Q21.34 13.01 20.54 13.01ZM31.27 24.14L28.90 24.14Q28.87 23.86 28.86 23.70Q28.85 23.54 28.85 23.35L28.85 23.35Q28.85 22.90 28.88 22.28Q28.92 21.67 29.02 20.78Q29.11 19.90 29.26 18.62L29.26 18.62Q29.40 17.28 29.50 16.50Q29.59 15.72 29.65 15.26Q29.71 14.81 29.71 14.57L29.71 14.57Q29.71 14.11 29.63 13.76Q29.54 13.42 29.16 13.42L29.16 13.42Q28.82 13.42 28.39 13.91Q27.96 14.40 27.60 15.60L27.60 15.60L26.71 15.38Q26.81 14.93 27.04 14.34Q27.26 13.75 27.65 13.19Q28.03 12.62 28.58 12.25Q29.14 11.88 29.88 11.88L29.88 11.88Q30.84 11.88 31.30 12.53Q31.75 13.18 31.70 14.42L31.70 14.42Q31.70 14.90 31.61 15.50Q31.51 16.10 31.39 16.80L31.39 16.80L31.44 16.80Q32.14 14.81 32.87 13.75Q33.60 12.70 34.34 12.29Q35.09 11.88 35.78 11.88L35.78 11.88Q36.58 11.88 37.08 12.29Q37.58 12.70 37.58 13.42L37.58 13.42Q37.58 13.92 37.24 14.33Q36.89 14.74 36.31 14.74L36.31 14.74Q35.83 14.74 35.50 14.45Q35.16 14.16 35.14 13.63L35.14 13.63Q34.54 13.54 33.97 14.09Q33.41 14.64 32.92 15.65Q32.42 16.66 32.04 17.90Q31.66 19.15 31.44 20.45Q31.22 21.74 31.22 22.87L31.22 22.87Q31.22 23.23 31.24 23.53Q31.25 23.83 31.27 24.14L31.27 24.14ZM45.36 11.88L45.36 11.88Q46.08 11.88 46.96 12.00Q47.83 12.12 48.67 12.31L48.67 12.31Q48.50 13.58 48.31 14.96Q48.12 16.34 47.96 17.65Q47.81 18.96 47.70 20.02Q47.59 21.07 47.59 21.67L47.59 21.67Q47.59 22.13 47.68 22.50Q47.76 22.87 48.14 22.87L48.14 22.87Q48.53 22.87 48.96 22.38Q49.39 21.89 49.73 20.69L49.73 20.69L50.62 20.90Q50.52 21.36 50.29 21.95Q50.06 22.54 49.68 23.10Q49.30 23.66 48.73 24.04Q48.17 24.41 47.42 24.41L47.42 24.41Q46.51 24.41 46.06 23.86Q45.60 23.30 45.60 22.25L45.60 22.25Q45.60 21.67 45.70 21Q45.79 20.33 45.91 19.63L45.91 19.63L45.86 19.63Q45.34 21.17 44.76 22.10Q44.18 23.04 43.61 23.54Q43.03 24.05 42.47 24.23Q41.90 24.41 41.38 24.41L41.38 24.41Q40.08 24.41 39.18 23.41Q38.28 22.42 38.28 20.16L38.28 20.16Q38.28 18.50 38.72 17.00Q39.17 15.50 40.07 14.35Q40.97 13.20 42.30 12.54Q43.63 11.88 45.36 11.88ZM44.57 12.98L44.57 12.98Q43.63 12.98 42.91 13.52Q42.19 14.06 41.70 15.02Q41.21 15.98 40.97 17.24Q40.73 18.50 40.73 19.94L40.73 19.94Q40.73 21.29 41.03 22.14Q41.33 22.99 42.07 22.99L42.07 22.99Q42.67 22.99 43.26 22.38Q43.85 21.77 44.36 20.74Q44.88 19.70 45.28 18.42Q45.67 17.14 45.90 15.79Q46.13 14.45 46.15 13.22L46.15 13.22Q45.86 13.10 45.44 13.04Q45.02 12.98 44.57 12.98ZM67.66 5.78L68.57 5.78L68.21 9.14L60.67 9.31L60.14 14.26Q60.70 14.02 61.55 13.84Q62.40 13.66 63.31 13.66L63.31 13.66Q64.80 13.66 65.82 14.11Q66.84 14.57 67.46 15.35Q68.09 16.13 68.35 17.09Q68.62 18.05 68.57 19.06L68.57 19.06Q68.47 20.86 67.57 22.08Q66.67 23.30 65.28 23.92Q63.89 24.53 62.33 24.53L62.33 24.53Q60.79 24.53 59.75 24.01Q58.70 23.50 58.20 22.72Q57.70 21.94 57.77 21.12L57.77 21.12Q57.82 20.52 58.19 20.14Q58.56 19.75 59.11 19.73L59.11 19.73Q59.54 19.73 59.81 19.91Q60.07 20.09 60.20 20.36Q60.34 20.64 60.34 20.95L60.34 20.95Q60.34 21.17 60.26 21.44Q60.19 21.72 60 21.94L60 21.94Q60.05 22.42 60.44 22.74Q60.84 23.06 61.38 23.21Q61.92 23.35 62.40 23.33L62.40 23.33Q63.50 23.28 64.24 22.73Q64.97 22.18 65.34 21.31Q65.71 20.45 65.74 19.51L65.74 19.51Q65.78 18.89 65.71 18.11Q65.64 17.33 65.34 16.61Q65.04 15.89 64.36 15.42Q63.67 14.95 62.50 14.95L62.50 14.95Q61.92 14.95 61.14 15.14Q60.36 15.34 59.59 15.79L59.59 15.79L58.82 15.14L59.45 7.34L65.33 7.34Q66.50 7.34 67.06 7.01Q67.61 6.67 67.66 5.78L67.66 5.78ZM77.38 6.96L77.38 6.96Q79.10 6.96 80.23 7.75Q81.36 8.54 82.02 9.84Q82.68 11.14 82.91 12.67Q83.14 14.21 83.06 15.72L83.06 15.72Q82.99 17.21 82.57 18.77Q82.15 20.33 81.36 21.64Q80.57 22.94 79.37 23.74Q78.17 24.53 76.51 24.53L76.51 24.53Q74.71 24.53 73.55 23.74Q72.38 22.94 71.75 21.65Q71.11 20.35 70.90 18.82Q70.68 17.28 70.75 15.77L70.75 15.77Q70.82 14.26 71.26 12.71Q71.69 11.16 72.49 9.85Q73.30 8.54 74.52 7.75Q75.74 6.96 77.38 6.96ZM77.38 8.11L77.38 8.11Q76.39 8.11 75.70 8.72Q75 9.34 74.53 10.37Q74.06 11.40 73.81 12.68Q73.56 13.97 73.49 15.31L73.49 15.31Q73.44 16.32 73.48 17.42Q73.51 18.53 73.68 19.58Q73.85 20.64 74.21 21.49Q74.57 22.34 75.17 22.85Q75.77 23.35 76.66 23.35L76.66 23.35Q77.64 23.35 78.30 22.74Q78.96 22.13 79.38 21.10Q79.80 20.06 80.03 18.79Q80.26 17.52 80.33 16.20L80.33 16.20Q80.40 14.74 80.33 13.31Q80.26 11.88 79.94 10.70Q79.63 9.53 79.01 8.82Q78.38 8.11 77.38 8.11ZM91.92 6.96L91.92 6.96Q93.65 6.96 94.78 7.75Q95.90 8.54 96.56 9.84Q97.22 11.14 97.45 12.67Q97.68 14.21 97.61 15.72L97.61 15.72Q97.54 17.21 97.12 18.77Q96.70 20.33 95.90 21.64Q95.11 22.94 93.91 23.74Q92.71 24.53 91.06 24.53L91.06 24.53Q89.26 24.53 88.09 23.74Q86.93 22.94 86.29 21.65Q85.66 20.35 85.44 18.82Q85.22 17.28 85.30 15.77L85.30 15.77Q85.37 14.26 85.80 12.71Q86.23 11.16 87.04 9.85Q87.84 8.54 89.06 7.75Q90.29 6.96 91.92 6.96ZM91.92 8.11L91.92 8.11Q90.94 8.11 90.24 8.72Q89.54 9.34 89.08 10.37Q88.61 11.40 88.36 12.68Q88.10 13.97 88.03 15.31L88.03 15.31Q87.98 16.32 88.02 17.42Q88.06 18.53 88.22 19.58Q88.39 20.64 88.75 21.49Q89.11 22.34 89.71 22.85Q90.31 23.35 91.20 23.35L91.20 23.35Q92.18 23.35 92.84 22.74Q93.50 22.13 93.92 21.10Q94.34 20.06 94.57 18.79Q94.80 17.52 94.87 16.20L94.87 16.20Q94.94 14.74 94.87 13.31Q94.80 11.88 94.49 10.70Q94.18 9.53 93.55 8.82Q92.93 8.11 91.92 8.11ZM108.34 11.88L108.34 11.88Q109.42 11.88 109.92 12.59Q110.42 13.30 110.42 14.47L110.42 14.47Q110.42 15.14 110.29 16.09Q110.16 17.04 109.98 18.10Q109.80 19.15 109.68 20.16Q109.56 21.17 109.56 21.98L109.56 21.98Q109.56 22.44 109.72 22.66Q109.87 22.87 110.16 22.87L110.16 22.87Q110.54 22.87 110.96 22.38Q111.38 21.89 111.72 20.69L111.72 20.69L112.61 20.90Q112.51 21.41 112.27 22.02Q112.03 22.63 111.64 23.17Q111.24 23.71 110.69 24.06Q110.14 24.41 109.42 24.41L109.42 24.41Q108.24 24.41 107.72 23.78Q107.21 23.16 107.21 22.01L107.21 22.01Q107.21 21.07 107.34 20.09Q107.47 19.10 107.64 18.12Q107.81 17.14 107.95 16.19Q108.10 15.24 108.10 14.35L108.10 14.35Q108.10 14.02 107.96 13.72Q107.83 13.42 107.52 13.42L107.52 13.42Q107.16 13.42 106.73 13.91Q106.30 14.40 105.96 15.60L105.96 15.60L105.07 15.38Q105.17 14.93 105.41 14.34Q105.65 13.75 106.04 13.19Q106.44 12.62 107.00 12.25Q107.57 11.88 108.34 11.88ZM109.54 6.41L109.54 6.41Q110.16 6.41 110.57 6.85Q110.98 7.30 110.95 7.99L110.95 7.99Q110.95 8.66 110.52 9.10Q110.09 9.53 109.46 9.53L109.46 9.53Q108.84 9.53 108.43 9.10Q108.02 8.66 108.02 7.99L108.02 7.99Q108.05 7.30 108.49 6.85Q108.94 6.41 109.54 6.41ZM117.24 8.69L118.39 8.69L117.94 12.14L121.49 12.14L121.39 13.30L117.84 13.34Q117.74 14.30 117.61 15.35Q117.48 16.39 117.38 17.41Q117.29 18.43 117.23 19.33Q117.17 20.23 117.17 20.90L117.17 20.90Q117.17 21.31 117.23 21.77Q117.29 22.22 117.53 22.52Q117.77 22.82 118.30 22.82L118.30 22.82Q118.51 22.82 118.87 22.73Q119.23 22.63 119.66 22.28Q120.10 21.94 120.53 21.19L120.53 21.19L121.34 21.72Q120.60 23.06 119.68 23.74Q118.75 24.41 117.53 24.41L117.53 24.41Q116.47 24.41 115.90 23.96Q115.32 23.52 115.08 22.79Q114.84 22.06 114.86 21.22L114.86 21.22Q114.86 20.35 114.94 19.10Q115.01 17.86 115.15 16.38Q115.30 14.90 115.46 13.37L115.46 13.37L113.40 13.39L113.52 12.14Q115.20 12.14 116.02 11.24Q116.83 10.34 117.24 8.69L117.24 8.69ZM129.74 11.88L129.74 11.88Q130.46 11.88 131.34 12.00Q132.22 12.12 133.06 12.31L133.06 12.31Q132.89 13.58 132.70 14.96Q132.50 16.34 132.35 17.65Q132.19 18.96 132.08 20.02Q131.98 21.07 131.98 21.67L131.98 21.67Q131.98 22.13 132.06 22.50Q132.14 22.87 132.53 22.87L132.53 22.87Q132.91 22.87 133.34 22.38Q133.78 21.89 134.11 20.69L134.11 20.69L135 20.90Q134.90 21.36 134.68 21.95Q134.45 22.54 134.06 23.10Q133.68 23.66 133.12 24.04Q132.55 24.41 131.81 24.41L131.81 24.41Q130.90 24.41 130.44 23.86Q129.98 23.30 129.98 22.25L129.98 22.25Q129.98 21.67 130.08 21Q130.18 20.33 130.30 19.63L130.30 19.63L130.25 19.63Q129.72 21.17 129.14 22.10Q128.57 23.04 127.99 23.54Q127.42 24.05 126.85 24.23Q126.29 24.41 125.76 24.41L125.76 24.41Q124.46 24.41 123.56 23.41Q122.66 22.42 122.66 20.16L122.66 20.16Q122.66 18.50 123.11 17.00Q123.55 15.50 124.45 14.35Q125.35 13.20 126.68 12.54Q128.02 11.88 129.74 11.88ZM128.95 12.98L128.95 12.98Q128.02 12.98 127.30 13.52Q126.58 14.06 126.08 15.02Q125.59 15.98 125.35 17.24Q125.11 18.50 125.11 19.94L125.11 19.94Q125.11 21.29 125.41 22.14Q125.71 22.99 126.46 22.99L126.46 22.99Q127.06 22.99 127.64 22.38Q128.23 21.77 128.75 20.74Q129.26 19.70 129.66 18.42Q130.06 17.14 130.28 15.79Q130.51 14.45 130.54 13.22L130.54 13.22Q130.25 13.10 129.83 13.04Q129.41 12.98 128.95 12.98ZM139.51 6.02L140.40 6.02Q140.33 6.67 140.21 7.40Q140.09 8.14 139.99 8.83Q139.90 9.53 139.82 10.10L139.82 10.10Q139.63 11.54 139.48 12.97Q139.32 14.40 139.18 15.73Q139.03 17.06 138.94 18.23Q138.84 19.39 138.78 20.30Q138.72 21.22 138.72 21.79L138.72 21.79Q138.72 22.25 138.82 22.56Q138.91 22.87 139.27 22.87L139.27 22.87Q139.63 22.87 140.05 22.39Q140.47 21.91 140.83 20.69L140.83 20.69L141.70 20.93Q141.60 21.38 141.36 22.00Q141.12 22.61 140.72 23.15Q140.33 23.69 139.75 24.05Q139.18 24.41 138.41 24.41L138.41 24.41Q137.47 24.41 136.94 23.90Q136.42 23.40 136.42 22.34L136.42 22.34Q136.39 21.65 136.46 20.52Q136.54 19.39 136.66 18.01Q136.78 16.63 136.93 15.13Q137.09 13.63 137.27 12.18Q137.45 10.73 137.62 9.46L137.62 9.46Q137.71 8.88 137.76 8.53Q137.81 8.18 137.86 7.85L137.86 7.85Q137.45 7.87 136.99 7.90Q136.54 7.92 136.15 7.94L136.15 7.94L136.27 6.70Q137.35 6.70 137.99 6.59Q138.62 6.48 138.97 6.34Q139.32 6.19 139.51 6.02L139.51 6.02ZM145.37 11.88L145.37 11.88Q146.45 11.88 146.95 12.59Q147.46 13.30 147.46 14.47L147.46 14.47Q147.46 15.14 147.32 16.09Q147.19 17.04 147.01 18.10Q146.83 19.15 146.71 20.16Q146.59 21.17 146.59 21.98L146.59 21.98Q146.59 22.44 146.75 22.66Q146.90 22.87 147.19 22.87L147.19 22.87Q147.58 22.87 148.00 22.38Q148.42 21.89 148.75 20.69L148.75 20.69L149.64 20.90Q149.54 21.41 149.30 22.02Q149.06 22.63 148.67 23.17Q148.27 23.71 147.72 24.06Q147.17 24.41 146.45 24.41L146.45 24.41Q145.27 24.41 144.76 23.78Q144.24 23.16 144.24 22.01L144.24 22.01Q144.24 21.07 144.37 20.09Q144.50 19.10 144.67 18.12Q144.84 17.14 144.98 16.19Q145.13 15.24 145.13 14.35L145.13 14.35Q145.13 14.02 145.00 13.72Q144.86 13.42 144.55 13.42L144.55 13.42Q144.19 13.42 143.76 13.91Q143.33 14.40 142.99 15.60L142.99 15.60L142.10 15.38Q142.20 14.93 142.44 14.34Q142.68 13.75 143.08 13.19Q143.47 12.62 144.04 12.25Q144.60 11.88 145.37 11.88ZM146.57 6.41L146.57 6.41Q147.19 6.41 147.60 6.85Q148.01 7.30 147.98 7.99L147.98 7.99Q147.98 8.66 147.55 9.10Q147.12 9.53 146.50 9.53L146.50 9.53Q145.87 9.53 145.46 9.10Q145.06 8.66 145.06 7.99L145.06 7.99Q145.08 7.30 145.52 6.85Q145.97 6.41 146.57 6.41ZM156.55 11.88L156.55 11.88Q157.61 11.88 158.45 12.25Q159.29 12.62 159.77 13.26Q160.25 13.90 160.25 14.71L160.25 14.71Q160.25 15.31 159.94 15.67Q159.62 16.03 159.07 16.06L159.07 16.06Q158.42 16.08 158.16 15.66Q157.90 15.24 157.90 14.93L157.90 14.93Q157.90 14.71 157.96 14.46Q158.02 14.21 158.18 13.99L158.18 13.99Q158.06 13.46 157.60 13.21Q157.13 12.96 156.53 12.96L156.53 12.96Q155.59 12.96 154.96 13.50Q154.32 14.04 153.96 14.90Q153.60 15.77 153.44 16.74Q153.29 17.71 153.26 18.58L153.26 18.58Q153.26 20.14 153.60 21.08Q153.94 22.03 154.55 22.45Q155.16 22.87 155.88 22.90L155.88 22.90Q156.46 22.90 157.09 22.66Q157.73 22.42 158.35 21.80Q158.98 21.19 159.43 20.04L159.43 20.04L160.44 20.54Q159.82 21.98 159.01 22.84Q158.21 23.69 157.30 24.05Q156.38 24.41 155.42 24.41L155.42 24.41Q153.31 24.41 152.04 23.12Q150.77 21.84 150.77 19.15L150.77 19.15Q150.77 18 151.12 16.73Q151.46 15.46 152.17 14.35Q152.88 13.25 153.97 12.56Q155.06 11.88 156.55 11.88Z"/></svg>