<svg xmlns="http://www.w3.org/2000/svg" xmlns:xlink="http://www.w3.org/1999/xlink" width="187.36800000000002" height="30.72"><path fill="black" d="M13.49 24.14L1.27 24.14L1.27 23.09Q2.06 23.04 2.41 22.75Q2.76 22.46 2.86 21.89Q2.95 21.31 2.95 20.42L2.95 20.42L2.95 10.44Q2.95 9.91 2.98 9.42Q3 8.93 3.02 8.57L3.02 8.57Q2.62 8.59 2.14 8.62Q1.66 8.64 1.27 8.66L1.27 8.66L1.27 7.34L7.18 7.34L7.18 8.40Q6.41 8.42 6.05 8.72Q5.69 9.02 5.59 9.59Q5.50 10.15 5.50 11.06L5.50 11.06L5.50 21Q5.50 21.65 5.48 22.14Q5.47 22.63 5.42 22.94L5.42 22.94L9.48 22.90Q10.97 22.87 11.76 21.92Q12.55 20.98 12.55 18.91L12.55 18.91L13.63 18.91L13.49 24.14ZM21.05 24.53L21.05 24.53Q19.34 24.53 17.98 23.76Q16.61 22.99 15.80 21.61Q15.00 20.23 15.00 18.43L15.00 18.43Q15.00 16.49 15.80 14.99Q16.61 13.49 17.98 12.62Q19.34 11.76 21.02 11.76L21.02 11.76Q22.73 11.76 24.10 12.54Q25.46 13.32 26.27 14.70Q27.07 16.08 27.07 17.88L27.07 17.88Q27.07 19.78 26.28 21.29Q25.49 22.80 24.13 23.66Q22.78 24.53 21.05 24.53ZM21.22 23.33L21.22 23.33Q22.37 23.30 23.03 22.61Q23.69 21.91 23.98 20.82Q24.26 19.73 24.26 18.55L24.26 18.55Q24.26 17.52 24.08 16.52Q23.90 15.53 23.52 14.71Q23.14 13.90 22.51 13.40Q21.89 12.91 21 12.94L21 12.94Q19.87 12.94 19.16 13.63Q18.46 14.33 18.13 15.42Q17.81 16.51 17.81 17.74L17.81 17.74Q17.81 19.15 18.17 20.42Q18.53 21.70 19.28 22.51Q20.04 23.33 21.22 23.33ZM29.02 24.14L29.02 23.14Q29.74 23.14 30.02 22.80Q30.31 22.46 30.37 21.86Q30.43 21.26 30.43 20.47L30.43 20.47L30.43 15.48Q30.43 15.10 30.44 14.65Q30.46 14.21 30.53 13.78L30.53 13.78Q30.12 13.80 29.66 13.81Q29.21 13.82 28.82 13.85L28.82 13.85L28.82 12.58L29.64 12.58Q30.65 12.58 31.18 12.36Q31.70 12.14 31.94 11.90L31.94 11.90L32.81 11.90Q32.86 12.24 32.88 12.84Q32.90 13.44 32.93 14.18L32.93 14.18Q33.38 13.51 33.98 12.97Q34.58 12.43 35.29 12.10Q36 11.76 36.77 11.76L36.77 11.76Q37.51 11.76 38.05 12.16Q38.59 12.55 38.59 13.44L38.59 13.44Q38.59 13.68 38.46 13.99Q38.33 14.30 38.03 14.53Q37.73 14.76 37.22 14.76L37.22 14.76Q36.72 14.74 36.35 14.38Q35.98 14.02 36 13.39L36 13.39Q35.42 13.39 34.85 13.74Q34.27 14.09 33.78 14.66Q33.29 15.24 32.95 15.91L32.95 15.91L32.95 21.17Q32.95 21.60 32.94 22.04Q32.93 22.49 32.86 22.94L32.86 22.94Q33.24 22.92 33.65 22.91Q34.06 22.90 34.39 22.87L34.39 22.87L34.39 24.14L29.02 24.14ZM50.69 24.14L46.87 24.14Q46.82 23.76 46.80 23.47Q46.78 23.18 46.73 22.87L46.73 22.87Q45.91 23.69 44.98 24.11Q44.04 24.53 43.03 24.53L43.03 24.53Q41.30 24.53 40.43 23.68Q39.55 22.82 39.55 21.55L39.55 21.55Q39.55 20.45 40.20 19.63Q40.85 18.82 41.90 18.30Q42.96 17.78 44.21 17.53Q45.46 17.28 46.66 17.28L46.66 17.28L46.66 15.86Q46.66 15.10 46.51 14.44Q46.37 13.78 45.92 13.36Q45.48 12.94 44.54 12.94L44.54 12.94Q43.92 12.91 43.30 13.16Q42.67 13.42 42.34 13.99L42.34 13.99Q42.53 14.18 42.59 14.44Q42.65 14.69 42.65 14.90L42.65 14.90Q42.65 15.24 42.36 15.66Q42.07 16.08 41.38 16.06L41.38 16.06Q40.80 16.06 40.50 15.66Q40.20 15.26 40.20 14.74L40.20 14.74Q40.20 13.87 40.84 13.20Q41.47 12.53 42.58 12.14Q43.68 11.76 45.05 11.76L45.05 11.76Q47.11 11.76 48.13 12.84Q49.15 13.92 49.15 16.25L49.15 16.25Q49.15 17.11 49.15 17.90Q49.15 18.70 49.14 19.49Q49.13 20.28 49.13 21.17L49.13 21.17Q49.13 21.53 49.10 21.98Q49.08 22.44 49.03 22.94L49.03 22.94Q49.44 22.92 49.87 22.90Q50.30 22.87 50.69 22.87L50.69 22.87L50.69 24.14ZM46.66 18.38L46.66 18.38Q45.89 18.43 45.08 18.60Q44.28 18.77 43.63 19.10Q42.98 19.44 42.59 19.97Q42.19 20.50 42.19 21.24L42.19 21.24Q42.24 22.06 42.73 22.44Q43.22 22.82 43.90 22.82L43.90 22.82Q44.74 22.82 45.38 22.50Q46.03 22.18 46.66 21.60L46.66 21.60Q46.63 21.34 46.63 21.06Q46.63 20.78 46.63 20.47L46.63 20.47Q46.63 20.26 46.64 19.67Q46.66 19.08 46.66 18.38ZM63.60 24.53L63.60 24.53Q62.04 24.53 60.96 24.01Q59.88 23.50 59.29 22.74Q58.70 21.98 58.70 21.26L58.70 21.26Q58.70 20.66 59.04 20.23Q59.38 19.80 59.98 19.78L59.98 19.78Q60.48 19.75 60.76 19.96Q61.03 20.16 61.14 20.45Q61.25 20.74 61.25 21L61.25 21Q61.25 21.22 61.19 21.47Q61.13 21.72 60.98 21.96L60.98 21.96Q61.10 22.42 61.54 22.74Q61.97 23.06 62.54 23.21Q63.12 23.35 63.60 23.33L63.60 23.33Q64.70 23.30 65.38 22.74Q66.05 22.18 66.37 21.31Q66.70 20.45 66.70 19.49L66.70 19.49Q66.70 18.86 66.60 18.08Q66.50 17.30 66.17 16.60Q65.83 15.89 65.14 15.42Q64.44 14.95 63.26 14.95L63.26 14.95Q62.88 14.95 62.33 15.05Q61.78 15.14 61.21 15.34Q60.65 15.53 60.19 15.82L60.19 15.82L59.40 15.14L59.33 7.34L65.54 7.34Q66.74 7.34 67.25 7.01Q67.75 6.67 67.75 5.78L67.75 5.78L68.69 5.78L68.54 9.19L60.67 9.36L60.67 14.30Q61.25 14.06 62.14 13.86Q63.02 13.66 63.96 13.66L63.96 13.66Q65.45 13.66 66.52 14.11Q67.58 14.57 68.27 15.34Q68.95 16.10 69.28 17.06Q69.60 18.02 69.60 19.03L69.60 19.03Q69.60 20.83 68.75 22.07Q67.90 23.30 66.53 23.92Q65.16 24.53 63.60 24.53ZM78.07 24.53L78.07 24.53Q76.25 24.53 75.02 23.75Q73.80 22.97 73.10 21.68Q72.41 20.40 72.11 18.86Q71.81 17.33 71.81 15.82L71.81 15.82Q71.81 14.30 72.18 12.74Q72.55 11.18 73.32 9.88Q74.09 8.57 75.29 7.76Q76.49 6.96 78.17 6.96L78.17 6.96Q79.92 6.96 81.11 7.75Q82.30 8.54 83.02 9.83Q83.74 11.11 84.05 12.65Q84.36 14.18 84.36 15.70L84.36 15.70Q84.36 17.18 84 18.74Q83.64 20.30 82.88 21.61Q82.13 22.92 80.94 23.72Q79.75 24.53 78.07 24.53ZM78.22 23.33L78.22 23.33Q79.20 23.33 79.82 22.73Q80.45 22.13 80.82 21.10Q81.19 20.06 81.34 18.79Q81.48 17.52 81.48 16.20L81.48 16.20Q81.48 14.74 81.34 13.31Q81.19 11.88 80.82 10.70Q80.45 9.53 79.80 8.83Q79.15 8.14 78.12 8.14L78.12 8.14Q77.16 8.14 76.49 8.74Q75.82 9.34 75.42 10.37Q75.02 11.40 74.84 12.68Q74.66 13.97 74.66 15.31L74.66 15.31Q74.66 16.32 74.75 17.42Q74.83 18.53 75.06 19.58Q75.29 20.64 75.68 21.48Q76.08 22.32 76.70 22.82Q77.33 23.33 78.22 23.33ZM93.10 24.53L93.10 24.53Q91.27 24.53 90.05 23.75Q88.82 22.97 88.13 21.68Q87.43 20.40 87.13 18.86Q86.83 17.33 86.83 15.82L86.83 15.82Q86.83 14.30 87.20 12.74Q87.58 11.18 88.34 9.88Q89.11 8.57 90.31 7.76Q91.51 6.96 93.19 6.96L93.19 6.96Q94.94 6.96 96.13 7.75Q97.32 8.54 98.04 9.83Q98.76 11.11 99.07 12.65Q99.38 14.18 99.38 15.70L99.38 15.70Q99.38 17.18 99.02 18.74Q98.66 20.30 97.91 21.61Q97.15 22.92 95.96 23.72Q94.78 24.53 93.10 24.53ZM93.24 23.33L93.24 23.33Q94.22 23.33 94.85 22.73Q95.47 22.13 95.84 21.10Q96.22 20.06 96.36 18.79Q96.50 17.52 96.50 16.20L96.50 16.20Q96.50 14.74 96.36 13.31Q96.22 11.88 95.84 10.70Q95.47 9.53 94.82 8.83Q94.18 8.14 93.14 8.14L93.14 8.14Q92.18 8.14 91.51 8.74Q90.84 9.34 90.44 10.37Q90.05 11.40 89.87 12.68Q89.69 13.97 89.69 15.31L89.69 15.31Q89.69 16.32 89.77 17.42Q89.86 18.53 90.08 19.58Q90.31 20.64 90.71 21.48Q91.10 22.32 91.73 22.82Q92.35 23.33 93.24 23.33ZM113.30 24.14L107.95 24.14L107.95 23.14Q108.67 23.14 108.96 22.80Q109.25 22.46 109.31 21.86Q109.37 21.26 109.37 20.47L109.37 20.47L109.39 15.48Q109.39 15.10 109.40 14.65Q109.42 14.21 109.49 13.78L109.49 13.78Q109.06 13.80 108.61 13.81Q108.17 13.82 107.78 13.85L107.78 13.85L107.78 12.58Q108.86 12.58 109.48 12.47Q110.09 12.36 110.41 12.22Q110.74 12.07 110.90 11.90L110.90 11.90L111.77 11.90Q111.79 12.12 111.80 12.31Q111.82 12.50 111.83 12.72Q111.84 12.94 111.86 13.27L111.86 13.27Q112.39 12.84 113.02 12.50Q113.64 12.17 114.32 11.96Q115.01 11.76 115.63 11.76L115.63 11.76Q117.77 11.76 118.72 13.06Q119.66 14.35 119.66 17.11L119.66 17.11L119.66 21.17Q119.66 21.60 119.64 22.04Q119.62 22.49 119.57 22.94L119.57 22.94Q119.95 22.92 120.35 22.91Q120.74 22.90 121.08 22.87L121.08 22.87L121.08 24.14L115.73 24.14L115.73 23.14Q116.45 23.14 116.74 22.80Q117.02 22.46 117.08 21.86Q117.14 21.26 117.14 20.47L117.14 20.47L117.14 17.11Q117.12 15.22 116.53 14.26Q115.94 13.30 114.65 13.32L114.65 13.32Q113.88 13.32 113.14 13.70Q112.39 14.09 111.89 14.64L111.89 14.64Q111.89 14.88 111.89 15.16Q111.89 15.43 111.89 15.72L111.89 15.72L111.89 21.17Q111.89 21.60 111.86 22.04Q111.84 22.49 111.79 22.94L111.79 22.94Q112.18 22.92 112.57 22.91Q112.97 22.90 113.30 22.87L113.30 22.87L113.30 24.14ZM128.69 24.53L128.69 24.53Q126.98 24.53 125.62 23.76Q124.25 22.99 123.44 21.61Q122.64 20.23 122.64 18.43L122.64 18.43Q122.64 16.49 123.44 14.99Q124.25 13.49 125.62 12.62Q126.98 11.76 128.66 11.76L128.66 11.76Q130.37 11.76 131.74 12.54Q133.10 13.32 133.91 14.70Q134.71 16.08 134.71 17.88L134.71 17.88Q134.71 19.78 133.92 21.29Q133.13 22.80 131.77 23.66Q130.42 24.53 128.69 24.53ZM128.86 23.33L128.86 23.33Q130.01 23.30 130.67 22.61Q131.33 21.91 131.62 20.82Q131.90 19.73 131.90 18.55L131.90 18.55Q131.90 17.52 131.72 16.52Q131.54 15.53 131.16 14.71Q130.78 13.90 130.15 13.40Q129.53 12.91 128.64 12.94L128.64 12.94Q127.51 12.94 126.80 13.63Q126.10 14.33 125.77 15.42Q125.45 16.51 125.45 17.74L125.45 17.74Q125.45 19.15 125.81 20.42Q126.17 21.70 126.92 22.51Q127.68 23.33 128.86 23.33ZM136.66 24.14L136.66 23.14Q137.38 23.14 137.66 22.80Q137.95 22.46 138.01 21.86Q138.07 21.26 138.07 20.47L138.07 20.47L138.07 15.48Q138.07 15.10 138.08 14.65Q138.10 14.21 138.17 13.78L138.17 13.78Q137.76 13.80 137.30 13.81Q136.85 13.82 136.46 13.85L136.46 13.85L136.46 12.58L137.28 12.58Q138.29 12.58 138.82 12.36Q139.34 12.14 139.58 11.90L139.58 11.90L140.45 11.90Q140.50 12.24 140.52 12.84Q140.54 13.44 140.57 14.18L140.57 14.18Q141.02 13.51 141.62 12.97Q142.22 12.43 142.93 12.10Q143.64 11.76 144.41 11.76L144.41 11.76Q145.15 11.76 145.69 12.16Q146.23 12.55 146.23 13.44L146.23 13.44Q146.23 13.68 146.10 13.99Q145.97 14.30 145.67 14.53Q145.37 14.76 144.86 14.76L144.86 14.76Q144.36 14.74 143.99 14.38Q143.62 14.02 143.64 13.39L143.64 13.39Q143.06 13.39 142.49 13.74Q141.91 14.09 141.42 14.66Q140.93 15.24 140.59 15.91L140.59 15.91L140.59 21.17Q140.59 21.60 140.58 22.04Q140.57 22.49 140.50 22.94L140.50 22.94Q140.88 22.92 141.29 22.91Q141.70 22.90 142.03 22.87L142.03 22.87L142.03 24.14L136.66 24.14ZM152.76 24.14L147.43 24.14L147.43 23.14Q148.15 23.14 148.44 22.80Q148.73 22.46 148.79 21.86Q148.85 21.26 148.85 20.47L148.85 20.47L148.85 15.48Q148.85 15.10 148.86 14.65Q148.87 14.21 148.94 13.78L148.94 13.78Q148.54 13.80 148.08 13.81Q147.62 13.82 147.24 13.85L147.24 13.85L147.24 12.58Q148.32 12.58 148.93 12.47Q149.54 12.36 149.87 12.22Q150.19 12.07 150.36 11.90L150.36 11.90L151.22 11.90Q151.27 12.14 151.28 12.47Q151.30 12.79 151.32 13.15L151.32 13.15Q152.06 12.53 153.01 12.14Q153.96 11.76 154.85 11.76L154.85 11.76Q156.02 11.76 156.80 12.18Q157.58 12.60 158.04 13.37L158.04 13.37Q158.88 12.67 159.94 12.22Q160.99 11.76 162.00 11.76L162.00 11.76Q164.04 11.76 165.02 12.97Q166.01 14.18 165.98 17.02L165.98 17.02L165.96 21.17Q165.96 21.60 165.95 22.04Q165.94 22.49 165.86 22.94L165.86 22.94Q166.25 22.92 166.66 22.91Q167.06 22.90 167.40 22.87L167.40 22.87L167.40 24.14L162.12 24.14L162.12 23.14Q162.79 23.14 163.07 22.80Q163.34 22.46 163.40 21.86Q163.46 21.26 163.46 20.47L163.46 20.47L163.46 17.02Q163.44 15.12 162.84 14.23Q162.24 13.34 161.02 13.34L161.02 13.34Q160.32 13.34 159.65 13.64Q158.98 13.94 158.45 14.40L158.45 14.40Q158.57 14.81 158.63 15.30Q158.69 15.79 158.69 16.32L158.69 16.32Q158.66 17.52 158.66 18.73Q158.66 19.94 158.66 21.17L158.66 21.17Q158.66 21.60 158.64 22.04Q158.62 22.49 158.57 22.94L158.57 22.94Q158.95 22.92 159.35 22.91Q159.74 22.90 160.08 22.87L160.08 22.87L160.08 24.14L154.75 24.14L154.75 23.14Q155.47 23.14 155.75 22.80Q156.02 22.46 156.08 21.86Q156.14 21.26 156.14 20.47L156.14 20.47L156.14 16.99Q156.17 15.10 155.60 14.20Q155.04 13.30 153.82 13.32L153.82 13.32Q153.12 13.32 152.47 13.62Q151.82 13.92 151.34 14.38L151.34 14.38Q151.34 14.66 151.36 14.98Q151.37 15.29 151.37 15.65L151.37 15.65L151.37 21.17Q151.37 21.60 151.34 22.04Q151.32 22.49 151.27 22.94L151.27 22.94Q151.66 22.92 152.04 22.91Q152.42 22.90 152.76 22.87L152.76 22.87L152.76 24.14ZM180.00 24.14L176.18 24.14Q176.14 23.76 176.11 23.47Q176.09 23.18 176.04 22.87L176.04 22.87Q175.22 23.69 174.29 24.11Q173.35 24.53 172.34 24.53L172.34 24.53Q170.62 24.53 169.74 23.68Q168.86 22.82 168.86 21.55L168.86 21.55Q168.86 20.45 169.51 19.63Q170.16 18.82 171.22 18.30Q172.27 17.78 173.52 17.53Q174.77 17.28 175.97 17.28L175.97 17.28L175.97 15.86Q175.97 15.10 175.82 14.44Q175.68 13.78 175.24 13.36Q174.79 12.94 173.86 12.94L173.86 12.94Q173.23 12.91 172.61 13.16Q171.98 13.42 171.65 13.99L171.65 13.99Q171.84 14.18 171.90 14.44Q171.96 14.69 171.96 14.90L171.96 14.90Q171.96 15.24 171.67 15.66Q171.38 16.08 170.69 16.06L170.69 16.06Q170.11 16.06 169.81 15.66Q169.51 15.26 169.51 14.74L169.51 14.74Q169.51 13.87 170.15 13.20Q170.78 12.53 171.89 12.14Q172.99 11.76 174.36 11.76L174.36 11.76Q176.42 11.76 177.44 12.84Q178.46 13.92 178.46 16.25L178.46 16.25Q178.46 17.11 178.46 17.90Q178.46 18.70 178.45 19.49Q178.44 20.28 178.44 21.17L178.44 21.17Q178.44 21.53 178.42 21.98Q178.39 22.44 178.34 22.94L178.34 22.94Q178.75 22.92 179.18 22.90Q179.62 22.87 180.00 22.87L180.00 22.87L180.00 24.14ZM175.97 18.38L175.97 18.38Q175.20 18.43 174.40 18.60Q173.59 18.77 172.94 19.10Q172.30 19.44 171.90 19.97Q171.50 20.50 171.50 21.24L171.50 21.24Q171.55 22.06 172.04 22.44Q172.54 22.82 173.21 22.82L173.21 22.82Q174.05 22.82 174.70 22.50Q175.34 22.18 175.97 21.60L175.97 21.60Q175.94 21.34 175.94 21.06Q175.94 20.78 175.94 20.47L175.94 20.47Q175.94 20.26 175.96 19.67Q175.97 19.08 175.97 18.38ZM181.27 24.14L181.27 23.14Q181.99 23.14 182.28 22.80Q182.57 22.46 182.63 21.86Q182.69 21.26 182.69 20.47L182.69 20.47L182.69 9.62Q182.69 9.22 182.70 8.80Q182.71 8.38 182.76 7.90L182.76 7.90Q182.35 7.92 181.90 7.93Q181.44 7.94 181.08 7.97L181.08 7.97L181.08 6.70Q182.16 6.70 182.80 6.59Q183.43 6.48 183.78 6.34Q184.13 6.19 184.30 6.02L184.30 6.02L185.21 6.02L185.21 21.17Q185.21 21.60 185.18 22.04Q185.16 22.49 185.11 22.94L185.11 22.94Q185.50 22.92 185.89 22.91Q186.29 22.90 186.62 22.87L186.62 22.87L186.62 24.14L181.27 24.14Z"/></svg>