<svg xmlns="http://www.w3.org/2000/svg" xmlns:xlink="http://www.w3.org/1999/xlink" width="194.18399999999997" height="24"><path fill="black" d="M3.22 19.20L0.17 19.20L0.36 18.19L3.22 17.86L3.46 17.86L3.22 19.20ZM4.56 19.20L1.97 19.20L3.43 11.40Q3.77 9.70 4.06 7.97Q4.34 6.24 4.61 4.54L4.61 4.54L7.25 4.54L5.76 12.36Q5.45 14.06 5.15 15.78Q4.85 17.50 4.56 19.20L4.56 19.20ZM5.38 5.90L2.54 5.59L2.76 4.54L9.26 4.54L9.02 5.59L6.10 5.90L5.38 5.90ZM11.33 19.20L3.22 19.20L3.41 18.02L10.82 18.02L9.24 19.20L10.78 14.98L12.19 14.98L11.33 19.20ZM14.26 18.24L14.26 18.24Q14.26 17.90 14.33 17.45Q14.40 16.99 14.52 16.39L14.52 16.39L15.86 10.06L16.30 10.51L13.87 10.25L13.97 9.50L18.12 8.33L18.48 8.59L16.85 16.18Q16.68 16.92 16.68 17.30L16.68 17.30Q16.68 17.54 16.81 17.66Q16.94 17.78 17.11 17.78L17.11 17.78Q17.78 17.78 18.98 16.30L18.98 16.30L19.58 16.73Q19.13 17.42 18.54 18.05Q17.95 18.67 17.24 19.08Q16.54 19.49 15.67 19.49L15.67 19.49Q15.07 19.49 14.66 19.18Q14.26 18.86 14.26 18.24ZM17.86 5.74L17.86 5.74Q17.28 5.74 16.86 5.36Q16.44 4.99 16.44 4.32L16.44 4.32Q16.44 3.67 16.93 3.20Q17.42 2.74 18.02 2.74L18.02 2.74Q18.62 2.74 19.01 3.12Q19.39 3.50 19.39 4.15L19.39 4.15Q19.39 4.80 18.92 5.27Q18.46 5.74 17.86 5.74ZM22.42 17.57L22.78 19.13L21.70 18.50Q22.06 18.58 22.32 18.61Q22.58 18.65 22.90 18.65L22.90 18.65Q23.90 18.65 24.46 18.17Q25.01 17.69 25.01 16.92L25.01 16.92Q25.01 16.42 24.71 15.92Q24.41 15.43 23.52 14.76L23.52 14.76Q22.66 14.09 22.10 13.39Q21.55 12.70 21.55 11.64L21.55 11.64Q21.55 10.27 22.56 9.30Q23.57 8.33 25.34 8.33L25.34 8.33Q27.82 8.33 28.27 10.39L28.27 10.39Q28.08 11.21 27.26 11.21L27.26 11.21Q26.83 11.21 26.48 10.92Q26.14 10.63 25.94 10.06L25.94 10.06L25.49 8.71L26.45 9.31Q26.28 9.26 26.06 9.24Q25.85 9.22 25.58 9.22L25.58 9.22Q24.55 9.22 24.13 9.73Q23.71 10.25 23.71 10.94L23.71 10.94Q23.71 11.62 24.10 12.11Q24.48 12.60 25.39 13.27L25.39 13.27Q26.38 14.04 26.81 14.69Q27.24 15.34 27.24 16.27L27.24 16.27Q27.24 17.64 26.15 18.56Q25.06 19.49 23.09 19.49L23.09 19.49Q21.74 19.49 21 18.90Q20.26 18.31 20.11 17.26L20.11 17.26Q20.18 16.90 20.46 16.66Q20.74 16.42 21.12 16.42L21.12 16.42Q22.15 16.42 22.42 17.57L22.42 17.57ZM31.46 19.49L31.46 19.49Q30.77 19.49 30.26 19.09Q29.76 18.70 29.76 17.78L29.76 17.78Q29.76 17.26 29.89 16.58Q30.02 15.91 30.14 15.29L30.14 15.29L31.34 9.91L31.63 10.49L29.30 10.25L29.42 9.50L33.62 8.33L33.96 8.59L32.52 14.90Q32.38 15.50 32.29 15.95Q32.21 16.39 32.21 16.75L32.21 16.75Q32.21 17.23 32.44 17.45Q32.66 17.66 33.02 17.66L33.02 17.66Q33.70 17.66 34.52 17.16Q35.35 16.66 36.65 15.50L36.65 15.50L36.72 16.18Q35.26 17.76 33.95 18.62Q32.64 19.49 31.46 19.49ZM37.10 19.49L37.10 19.49Q36.53 19.49 36.10 19.12Q35.66 18.74 35.66 18L35.66 18Q35.66 17.66 35.72 17.32Q35.78 16.97 35.90 16.39L35.90 16.39L36.65 12.79Q36.84 11.86 37.02 10.90Q37.20 9.94 37.39 9.00L37.39 9.00L39.50 8.33L39.84 8.59L38.21 16.18Q38.14 16.56 38.09 16.85Q38.04 17.14 38.04 17.30L38.04 17.30Q38.04 17.54 38.17 17.66Q38.30 17.78 38.47 17.78L38.47 17.78Q38.86 17.78 39.31 17.41Q39.77 17.04 40.42 16.30L40.42 16.30L41.02 16.73Q40.51 17.42 39.94 18.05Q39.36 18.67 38.65 19.08Q37.94 19.49 37.10 19.49ZM51.84 19.20L48.79 19.20L48.98 18.19L51.86 17.86L52.10 17.86L51.84 19.20ZM53.18 19.20L50.59 19.20L52.06 11.40Q52.39 9.70 52.68 7.97Q52.97 6.24 53.23 4.54L53.23 4.54L55.87 4.54L54.38 12.36Q54.07 14.06 53.77 15.78Q53.47 17.50 53.18 19.20L53.18 19.20ZM54 5.90L51.17 5.59L51.38 4.54L54.58 4.54L54.31 5.90L54 5.90ZM55.25 19.20L51.86 19.20L52.08 18.10L54.94 18.10Q57 18.10 57.95 17.16Q58.90 16.22 58.90 14.78L58.90 14.78Q58.90 13.49 58.06 12.78Q57.22 12.07 55.82 12.07L55.82 12.07L53.18 12.07L53.38 10.99L55.61 10.99Q57.46 10.99 58.33 10.18Q59.21 9.36 59.21 8.04L59.21 8.04Q59.21 6.96 58.60 6.31Q57.98 5.66 56.71 5.66L56.71 5.66L54.38 5.66L54.60 4.54L57.19 4.54Q58.82 4.54 59.82 4.99Q60.82 5.45 61.27 6.19Q61.73 6.94 61.73 7.82L61.73 7.82Q61.73 8.90 61.08 9.77Q60.43 10.63 59.23 11.15Q58.03 11.66 56.40 11.69L56.40 11.69L56.78 11.33Q59.16 11.40 60.35 12.50Q61.54 13.61 61.54 15.12L61.54 15.12Q61.54 16.85 59.94 18.02Q58.34 19.20 55.25 19.20L55.25 19.20ZM67.56 19.49L67.56 19.49Q66.46 19.49 65.56 19.04Q64.66 18.60 64.13 17.71Q63.60 16.82 63.60 15.48L63.60 15.48Q63.60 14.04 64.07 12.76Q64.54 11.47 65.38 10.48Q66.22 9.48 67.31 8.90Q68.40 8.33 69.67 8.33L69.67 8.33Q71.33 8.33 72.43 9.34Q73.54 10.34 73.54 12.36L73.54 12.36Q73.54 13.78 73.08 15.06Q72.62 16.34 71.81 17.34Q70.99 18.34 69.90 18.91Q68.81 19.49 67.56 19.49ZM67.80 18.48L67.80 18.48Q68.54 18.48 69.16 17.94Q69.77 17.40 70.21 16.50Q70.66 15.60 70.90 14.50Q71.14 13.39 71.14 12.24L71.14 12.24Q71.14 10.66 70.66 10.01Q70.18 9.36 69.41 9.36L69.41 9.36Q68.69 9.36 68.06 9.89Q67.44 10.42 66.98 11.30Q66.53 12.19 66.28 13.30Q66.02 14.40 66.02 15.60L66.02 15.60Q66.02 17.21 66.53 17.84Q67.03 18.48 67.80 18.48ZM76.73 17.57L77.09 19.13L76.01 18.50Q76.37 18.58 76.63 18.61Q76.90 18.65 77.21 18.65L77.21 18.65Q78.22 18.65 78.77 18.17Q79.32 17.69 79.32 16.92L79.32 16.92Q79.32 16.42 79.02 15.92Q78.72 15.43 77.83 14.76L77.83 14.76Q76.97 14.09 76.42 13.39Q75.86 12.70 75.86 11.64L75.86 11.64Q75.86 10.27 76.87 9.30Q77.88 8.33 79.66 8.33L79.66 8.33Q82.13 8.33 82.58 10.39L82.58 10.39Q82.39 11.21 81.58 11.21L81.58 11.21Q81.14 11.21 80.80 10.92Q80.45 10.63 80.26 10.06L80.26 10.06L79.80 8.71L80.76 9.31Q80.59 9.26 80.38 9.24Q80.16 9.22 79.90 9.22L79.90 9.22Q78.86 9.22 78.44 9.73Q78.02 10.25 78.02 10.94L78.02 10.94Q78.02 11.62 78.41 12.11Q78.79 12.60 79.70 13.27L79.70 13.27Q80.69 14.04 81.12 14.69Q81.55 15.34 81.55 16.27L81.55 16.27Q81.55 17.64 80.46 18.56Q79.37 19.49 77.40 19.49L77.40 19.49Q76.06 19.49 75.31 18.90Q74.57 18.31 74.42 17.26L74.42 17.26Q74.50 16.90 74.77 16.66Q75.05 16.42 75.43 16.42L75.43 16.42Q76.46 16.42 76.73 17.57L76.73 17.57ZM85.42 19.49L85.42 19.49Q84.55 19.49 83.88 18.85Q83.21 18.22 83.21 16.70L83.21 16.70Q83.21 15.55 83.64 14.36Q84.07 13.18 84.83 12.10Q85.58 11.02 86.51 10.16Q87.43 9.31 88.42 8.82Q89.40 8.33 90.31 8.33L90.31 8.33Q90.98 8.33 91.49 8.76Q91.99 9.19 92.45 9.86L92.45 9.86L91.32 10.68Q90.91 10.37 90.43 10.13Q89.95 9.89 89.42 9.89L89.42 9.89Q88.42 9.89 87.38 10.92L87.38 10.92Q86.62 11.69 86.09 13.02Q85.56 14.35 85.56 15.70L85.56 15.70Q85.56 16.73 85.91 17.20Q86.26 17.66 86.86 17.66L86.86 17.66Q87.46 17.66 88.24 17.11Q89.02 16.56 90.07 15.29L90.07 15.29L90.24 15.89Q89.54 16.92 88.70 17.72Q87.86 18.53 87.01 19.01Q86.16 19.49 85.42 19.49ZM90.65 19.49L90.65 19.49Q90.02 19.49 89.62 19.12Q89.21 18.74 89.21 17.93L89.21 17.93Q89.21 17.47 89.27 17.06Q89.33 16.66 89.42 16.13L89.42 16.13L90.86 9.53L93.07 8.18L93.46 8.45L91.68 16.18Q91.51 16.92 91.51 17.30L91.51 17.30Q91.51 17.78 91.97 17.78L91.97 17.78Q92.33 17.78 92.83 17.38Q93.34 16.97 93.89 16.27L93.89 16.27L94.46 16.70Q94.06 17.38 93.46 18.01Q92.86 18.65 92.14 19.07Q91.42 19.49 90.65 19.49ZM104.86 7.85L104.86 7.85Q104.71 7.58 104.68 7.42Q104.64 7.25 104.64 7.08L104.64 7.08Q104.64 6.84 104.81 6.62Q104.98 6.41 105.36 6.41L105.36 6.41Q105.84 6.41 106.57 6.41Q107.30 6.41 108.11 6.42Q108.91 6.43 109.61 6.43L109.61 6.43Q110.47 6.43 111.05 6.42Q111.62 6.41 112.13 6.41L112.13 6.41Q112.61 6.41 112.87 6.44Q113.14 6.48 113.28 6.53L113.28 6.53Q113.42 6.60 113.62 6.74Q113.81 6.89 113.98 7.20L113.98 7.20Q114.24 7.63 114.24 8.06L114.24 8.06Q114.24 8.26 114.13 8.39Q114.02 8.52 113.93 8.57L113.93 8.57Q113.83 8.64 113.62 8.68Q113.40 8.71 113.28 8.71L113.28 8.71Q112.49 8.71 111.96 8.69Q111.43 8.66 110.64 8.66L110.64 8.66Q110.04 8.66 109.21 8.66Q108.38 8.66 107.57 8.68Q106.75 8.69 106.18 8.69L106.18 8.69Q105.67 8.69 105.35 8.45Q105.02 8.21 104.86 7.85ZM105.65 19.39L105.65 19.39Q104.98 19.39 104.65 19.22Q104.33 19.06 104.33 18.82L104.33 18.82Q104.33 18.67 104.46 18.34Q104.59 18 104.78 17.57L104.78 17.57Q105.96 14.88 107.81 12.19Q109.66 9.50 111.94 7.25L111.94 7.25Q112.32 6.86 112.87 6.86L112.87 6.86Q113.18 6.86 113.48 7.08Q113.78 7.30 113.99 7.60Q114.19 7.90 114.19 8.11L114.19 8.11Q114.19 8.18 114.17 8.28Q114.14 8.38 114.05 8.47L114.05 8.47Q113.95 8.57 113.78 8.72Q113.62 8.88 113.42 9.07L113.42 9.07Q111.94 10.46 110.82 11.98Q109.70 13.49 108.90 14.90Q108.10 16.32 107.62 17.42L107.62 17.42Q107.45 17.78 107.30 18.19Q107.16 18.60 107.04 18.84L107.04 18.84Q106.90 19.13 106.49 19.26Q106.08 19.39 105.65 19.39ZM118.63 19.39L118.63 19.39Q119.88 19.39 120.89 18.82Q121.90 18.24 122.63 17.28Q123.36 16.32 123.84 15.13Q124.32 13.94 124.56 12.70Q124.80 11.45 124.80 10.32L124.80 10.32Q124.80 9.24 124.42 8.32Q124.03 7.39 123.29 6.83Q122.54 6.26 121.46 6.26L121.46 6.26Q120.19 6.26 119.20 6.84Q118.20 7.42 117.47 8.39Q116.74 9.36 116.26 10.55Q115.78 11.74 115.55 12.98Q115.32 14.23 115.32 15.36L115.32 15.36Q115.32 16.44 115.69 17.35Q116.06 18.26 116.81 18.83Q117.55 19.39 118.63 19.39ZM122.23 10.39L122.23 10.39Q122.23 10.97 122.10 11.81Q121.97 12.65 121.70 13.55Q121.44 14.45 121.06 15.24Q120.67 16.03 120.16 16.52Q119.64 17.02 119.02 17.02L119.02 17.02Q118.44 17.02 118.16 16.55Q117.89 16.08 117.89 15.31L117.89 15.31Q117.89 14.76 118.02 13.92Q118.15 13.08 118.40 12.17Q118.66 11.26 119.04 10.46Q119.42 9.67 119.94 9.17Q120.46 8.66 121.10 8.66L121.10 8.66Q121.70 8.66 121.97 9.14Q122.23 9.62 122.23 10.39ZM130.32 19.39L130.32 19.39Q131.57 19.39 132.58 18.82Q133.58 18.24 134.32 17.28Q135.05 16.32 135.53 15.13Q136.01 13.94 136.25 12.70Q136.49 11.45 136.49 10.32L136.49 10.32Q136.49 9.24 136.10 8.32Q135.72 7.39 134.98 6.83Q134.23 6.26 133.15 6.26L133.15 6.26Q131.88 6.26 130.88 6.84Q129.89 7.42 129.16 8.39Q128.42 9.36 127.94 10.55Q127.46 11.74 127.24 12.98Q127.01 14.23 127.01 15.36L127.01 15.36Q127.01 16.44 127.38 17.35Q127.75 18.26 128.50 18.83Q129.24 19.39 130.32 19.39ZM133.92 10.39L133.92 10.39Q133.92 10.97 133.79 11.81Q133.66 12.65 133.39 13.55Q133.13 14.45 132.74 15.24Q132.36 16.03 131.84 16.52Q131.33 17.02 130.70 17.02L130.70 17.02Q130.13 17.02 129.85 16.55Q129.58 16.08 129.58 15.31L129.58 15.31Q129.58 14.76 129.71 13.92Q129.84 13.08 130.09 12.17Q130.34 11.26 130.73 10.46Q131.11 9.67 131.63 9.17Q132.14 8.66 132.79 8.66L132.79 8.66Q133.39 8.66 133.66 9.14Q133.92 9.62 133.92 10.39ZM146.83 18.24L146.83 18.24Q146.83 17.90 146.90 17.45Q146.98 16.99 147.10 16.39L147.10 16.39L148.44 10.06L148.87 10.51L146.45 10.25L146.54 9.50L150.70 8.33L151.06 8.59L149.42 16.18Q149.26 16.92 149.26 17.30L149.26 17.30Q149.26 17.54 149.39 17.66Q149.52 17.78 149.69 17.78L149.69 17.78Q150.36 17.78 151.56 16.30L151.56 16.30L152.16 16.73Q151.70 17.42 151.12 18.05Q150.53 18.67 149.82 19.08Q149.11 19.49 148.25 19.49L148.25 19.49Q147.65 19.49 147.24 19.18Q146.83 18.86 146.83 18.24ZM150.43 5.74L150.43 5.74Q149.86 5.74 149.44 5.36Q149.02 4.99 149.02 4.32L149.02 4.32Q149.02 3.67 149.51 3.20Q150.00 2.74 150.60 2.74L150.60 2.74Q151.20 2.74 151.58 3.12Q151.97 3.50 151.97 4.15L151.97 4.15Q151.97 4.80 151.50 5.27Q151.03 5.74 150.43 5.74ZM156.26 9.82L153.36 9.82L153.55 8.86L156.38 8.54L156.38 8.64L160.42 8.64L160.20 9.94L156.26 9.82ZM153.94 16.34L153.94 16.34L155.50 9.19L156.94 5.64L158.47 5.64L156.29 16.15Q156.10 16.97 156.10 17.30L156.10 17.30Q156.10 17.54 156.24 17.66Q156.38 17.78 156.55 17.78L156.55 17.78Q157.22 17.78 158.50 16.30L158.50 16.30L159.10 16.73Q158.64 17.42 158.03 18.05Q157.42 18.67 156.70 19.08Q155.98 19.49 155.14 19.49L155.14 19.49Q154.51 19.49 154.10 19.18Q153.70 18.86 153.70 18.22L153.70 18.22Q153.70 17.88 153.77 17.44Q153.84 16.99 153.94 16.34ZM162.55 19.49L162.55 19.49Q161.69 19.49 161.02 18.85Q160.34 18.22 160.34 16.70L160.34 16.70Q160.34 15.55 160.78 14.36Q161.21 13.18 161.96 12.10Q162.72 11.02 163.64 10.16Q164.57 9.31 165.55 8.82Q166.54 8.33 167.45 8.33L167.45 8.33Q168.12 8.33 168.62 8.76Q169.13 9.19 169.58 9.86L169.58 9.86L168.46 10.68Q168.05 10.37 167.57 10.13Q167.09 9.89 166.56 9.89L166.56 9.89Q165.55 9.89 164.52 10.92L164.52 10.92Q163.75 11.69 163.22 13.02Q162.70 14.35 162.70 15.70L162.70 15.70Q162.70 16.73 163.04 17.20Q163.39 17.66 163.99 17.66L163.99 17.66Q164.59 17.66 165.37 17.11Q166.15 16.56 167.21 15.29L167.21 15.29L167.38 15.89Q166.68 16.92 165.84 17.72Q165.00 18.53 164.15 19.01Q163.30 19.49 162.55 19.49ZM167.78 19.49L167.78 19.49Q167.16 19.49 166.75 19.12Q166.34 18.74 166.34 17.93L166.34 17.93Q166.34 17.47 166.40 17.06Q166.46 16.66 166.56 16.13L166.56 16.13L168.00 9.53L170.21 8.18L170.59 8.45L168.82 16.18Q168.65 16.92 168.65 17.30L168.65 17.30Q168.65 17.78 169.10 17.78L169.10 17.78Q169.46 17.78 169.97 17.38Q170.47 16.97 171.02 16.27L171.02 16.27L171.60 16.70Q171.19 17.38 170.59 18.01Q169.99 18.65 169.27 19.07Q168.55 19.49 167.78 19.49ZM174.24 19.49L174.24 19.49Q173.59 19.49 173.18 19.15Q172.78 18.82 172.78 18.12L172.78 18.12Q172.78 17.81 172.85 17.35Q172.92 16.90 173.09 16.15L173.09 16.15L174.46 9.19Q174.72 8.04 174.94 6.88Q175.15 5.71 175.32 4.54L175.32 4.54L176.09 5.28L173.45 4.97L173.54 4.22L177.74 3.07L177.98 3.31L175.34 16.15Q175.15 16.92 175.15 17.30L175.15 17.30Q175.15 17.54 175.30 17.66Q175.44 17.78 175.63 17.78L175.63 17.78Q176.26 17.78 177.50 16.30L177.50 16.30L178.08 16.73Q177.62 17.42 177.06 18.05Q176.50 18.67 175.79 19.08Q175.08 19.49 174.24 19.49ZM179.50 18.24L179.50 18.24Q179.50 17.90 179.57 17.45Q179.64 16.99 179.76 16.39L179.76 16.39L181.10 10.06L181.54 10.51L179.11 10.25L179.21 9.50L183.36 8.33L183.72 8.59L182.09 16.18Q181.92 16.92 181.92 17.30L181.92 17.30Q181.92 17.54 182.05 17.66Q182.18 17.78 182.35 17.78L182.35 17.78Q183.02 17.78 184.22 16.30L184.22 16.30L184.82 16.73Q184.37 17.42 183.78 18.05Q183.19 18.67 182.48 19.08Q181.78 19.49 180.91 19.49L180.91 19.49Q180.31 19.49 179.90 19.18Q179.50 18.86 179.50 18.24ZM183.10 5.74L183.10 5.74Q182.52 5.74 182.10 5.36Q181.68 4.99 181.68 4.32L181.68 4.32Q181.68 3.67 182.17 3.20Q182.66 2.74 183.26 2.74L183.26 2.74Q183.86 2.74 184.25 3.12Q184.63 3.50 184.63 4.15L184.63 4.15Q184.63 4.80 184.16 5.27Q183.70 5.74 183.10 5.74ZM189.29 19.49L189.29 19.49Q187.73 19.49 186.73 18.43Q185.74 17.38 185.74 15.36L185.74 15.36Q185.74 13.94 186.23 12.68Q186.72 11.42 187.57 10.44Q188.42 9.46 189.50 8.89Q190.58 8.33 191.78 8.33L191.78 8.33Q192.89 8.33 193.56 8.83Q194.23 9.34 194.47 10.15L194.47 10.15Q194.42 10.66 194.08 10.93Q193.73 11.21 193.27 11.21L193.27 11.21Q192.82 11.21 192.48 10.92Q192.14 10.63 191.88 10.25L191.88 10.25L190.87 8.88L191.90 9.05Q190.78 9.36 189.91 10.25Q189.05 11.14 188.56 12.37Q188.06 13.61 188.06 14.93L188.06 14.93Q188.06 16.32 188.72 16.98Q189.38 17.64 190.46 17.64L190.46 17.64Q191.28 17.64 191.99 17.17Q192.70 16.70 193.22 16.03L193.22 16.03L193.78 16.46Q193.08 17.71 191.88 18.60Q190.68 19.49 189.29 19.49Z"/></svg>