<svg xmlns="http://www.w3.org/2000/svg" xmlns:xlink="http://www.w3.org/1999/xlink" width="499.24799999999993" height="32.88"><path fill="black" d="M15.91 8.52L15.91 25.66L13.39 25.66L4.22 11.42L4.13 11.42Q4.18 12.26 4.25 13.51Q4.32 14.76 4.32 16.08L4.32 16.08L4.32 25.66L2.33 25.66L2.33 8.52L4.82 8.52L13.97 22.70L14.06 22.70Q14.04 22.32 14.00 21.55Q13.97 20.78 13.93 19.87Q13.90 18.96 13.90 18.19L13.90 18.19L13.90 8.52L15.91 8.52ZM31.46 19.20L31.46 19.20Q31.46 22.39 29.84 24.14Q28.22 25.90 25.46 25.90L25.46 25.90Q23.76 25.90 22.43 25.12Q21.10 24.34 20.33 22.84Q19.56 21.34 19.56 19.20L19.56 19.20Q19.56 16.01 21.17 14.28Q22.78 12.55 25.54 12.55L25.54 12.55Q27.29 12.55 28.62 13.33Q29.95 14.11 30.71 15.59Q31.46 17.06 31.46 19.20ZM21.74 19.20L21.74 19.20Q21.74 21.48 22.64 22.81Q23.54 24.14 25.51 24.14L25.51 24.14Q27.46 24.14 28.37 22.81Q29.28 21.48 29.28 19.20L29.28 19.20Q29.28 16.92 28.37 15.62Q27.46 14.33 25.49 14.33L25.49 14.33Q23.52 14.33 22.63 15.62Q21.74 16.92 21.74 19.20ZM39.10 24.17L39.10 24.17Q39.58 24.17 40.08 24.08Q40.58 24 40.90 23.90L40.90 23.90L40.90 25.51Q40.56 25.68 39.94 25.79Q39.31 25.90 38.74 25.90L38.74 25.90Q37.73 25.90 36.88 25.55Q36.02 25.20 35.50 24.34Q34.97 23.47 34.97 21.91L34.97 21.91L34.97 14.42L33.14 14.42L33.14 13.42L34.99 12.58L35.83 9.84L37.08 9.84L37.08 12.79L40.80 12.79L40.80 14.42L37.08 14.42L37.08 21.86Q37.08 23.04 37.64 23.60Q38.21 24.17 39.10 24.17ZM54.65 19.20L54.65 19.20Q54.65 22.39 53.03 24.14Q51.41 25.90 48.65 25.90L48.65 25.90Q46.94 25.90 45.61 25.12Q44.28 24.34 43.51 22.84Q42.74 21.34 42.74 19.20L42.74 19.20Q42.74 16.01 44.35 14.28Q45.96 12.55 48.72 12.55L48.72 12.55Q50.47 12.55 51.80 13.33Q53.14 14.11 53.89 15.59Q54.65 17.06 54.65 19.20ZM44.93 19.20L44.93 19.20Q44.93 21.48 45.83 22.81Q46.73 24.14 48.70 24.14L48.70 24.14Q50.64 24.14 51.55 22.81Q52.46 21.48 52.46 19.20L52.46 19.20Q52.46 16.92 51.55 15.62Q50.64 14.33 48.67 14.33L48.67 14.33Q46.70 14.33 45.82 15.62Q44.93 16.92 44.93 19.20ZM74.23 21.07L74.23 21.07Q74.23 23.35 72.58 24.62Q70.92 25.90 68.11 25.90L68.11 25.90Q66.67 25.90 65.45 25.68Q64.22 25.46 63.41 25.08L63.41 25.08L63.41 23.02Q64.27 23.40 65.56 23.71Q66.84 24.02 68.21 24.02L68.21 24.02Q70.13 24.02 71.10 23.28Q72.07 22.54 72.07 21.26L72.07 21.26Q72.07 20.42 71.71 19.85Q71.35 19.27 70.48 18.78Q69.60 18.29 68.04 17.74L68.04 17.74Q65.86 16.94 64.74 15.79Q63.62 14.64 63.62 12.65L63.62 12.65Q63.62 11.28 64.32 10.31Q65.02 9.34 66.25 8.81Q67.49 8.28 69.10 8.28L69.10 8.28Q70.51 8.28 71.69 8.54Q72.86 8.81 73.82 9.24L73.82 9.24L73.15 11.09Q72.26 10.70 71.22 10.44Q70.18 10.18 69.05 10.18L69.05 10.18Q67.44 10.18 66.62 10.86Q65.81 11.54 65.81 12.67L65.81 12.67Q65.81 13.54 66.17 14.11Q66.53 14.69 67.34 15.14Q68.16 15.60 69.55 16.13L69.55 16.13Q71.06 16.68 72.11 17.32Q73.15 17.95 73.69 18.84Q74.23 19.73 74.23 21.07ZM82.27 12.58L82.27 12.58Q84.62 12.58 85.75 13.61Q86.88 14.64 86.88 16.90L86.88 16.90L86.88 25.66L85.34 25.66L84.94 23.83L84.84 23.83Q84 24.89 83.08 25.39Q82.15 25.90 80.52 25.90L80.52 25.90Q78.77 25.90 77.62 24.97Q76.46 24.05 76.46 22.08L76.46 22.08Q76.46 20.16 77.98 19.12Q79.49 18.07 82.63 17.98L82.63 17.98L84.82 17.90L84.82 17.14Q84.82 15.53 84.12 14.90Q83.42 14.28 82.15 14.28L82.15 14.28Q81.14 14.28 80.23 14.58Q79.32 14.88 78.53 15.26L78.53 15.26L77.88 13.68Q78.72 13.22 79.87 12.90Q81.02 12.58 82.27 12.58ZM84.79 19.37L82.90 19.44Q80.50 19.54 79.57 20.21Q78.65 20.88 78.65 22.10L78.65 22.10Q78.65 23.18 79.31 23.69Q79.97 24.19 81 24.19L81 24.19Q82.63 24.19 83.71 23.29Q84.79 22.39 84.79 20.52L84.79 20.52L84.79 19.37ZM97.06 12.55L97.06 12.55Q99.36 12.55 100.54 13.67Q101.71 14.78 101.71 17.28L101.71 17.28L101.71 25.66L99.62 25.66L99.62 17.42Q99.62 14.33 96.74 14.33L96.74 14.33Q94.61 14.33 93.79 15.53Q92.98 16.73 92.98 18.98L92.98 18.98L92.98 25.66L90.86 25.66L90.86 12.79L92.57 12.79L92.88 14.54L93 14.54Q93.62 13.54 94.73 13.04Q95.83 12.55 97.06 12.55ZM114.07 22.10L114.07 22.10Q114.07 23.98 112.68 24.94Q111.29 25.90 108.94 25.90L108.94 25.90Q107.59 25.90 106.62 25.68Q105.65 25.46 104.90 25.08L104.90 25.08L104.90 23.16Q105.67 23.54 106.76 23.87Q107.86 24.19 108.98 24.19L108.98 24.19Q110.59 24.19 111.31 23.68Q112.03 23.16 112.03 22.30L112.03 22.30Q112.03 21.82 111.77 21.43Q111.50 21.05 110.82 20.66Q110.14 20.28 108.86 19.80L108.86 19.80Q107.62 19.32 106.73 18.84Q105.84 18.36 105.36 17.69Q104.88 17.02 104.88 15.96L104.88 15.96Q104.88 14.33 106.21 13.44Q107.54 12.55 109.70 12.55L109.70 12.55Q110.88 12.55 111.90 12.78Q112.92 13.01 113.81 13.42L113.81 13.42L113.09 15.10Q112.27 14.76 111.38 14.52Q110.50 14.28 109.56 14.28L109.56 14.28Q108.26 14.28 107.58 14.70Q106.90 15.12 106.90 15.84L106.90 15.84Q106.90 16.37 107.21 16.74Q107.52 17.11 108.25 17.46Q108.98 17.81 110.21 18.29L110.21 18.29Q111.43 18.74 112.30 19.22Q113.16 19.70 113.62 20.39Q114.07 21.07 114.07 22.10ZM128.54 24.41L128.54 25.66L122.35 25.66L122.35 24.41L124.37 23.95L124.37 10.25L122.35 9.77L122.35 8.52L128.54 8.52L128.54 9.77L126.53 10.25L126.53 23.95L128.54 24.41ZM137.76 12.55L137.76 12.55Q140.06 12.55 141.24 13.67Q142.42 14.78 142.42 17.28L142.42 17.28L142.42 25.66L140.33 25.66L140.33 17.42Q140.33 14.33 137.45 14.33L137.45 14.33Q135.31 14.33 134.50 15.53Q133.68 16.73 133.68 18.98L133.68 18.98L133.68 25.66L131.57 25.66L131.57 12.79L133.27 12.79L133.58 14.54L133.70 14.54Q134.33 13.54 135.43 13.04Q136.54 12.55 137.76 12.55ZM154.78 22.10L154.78 22.10Q154.78 23.98 153.38 24.94Q151.99 25.90 149.64 25.90L149.64 25.90Q148.30 25.90 147.32 25.68Q146.35 25.46 145.61 25.08L145.61 25.08L145.61 23.16Q146.38 23.54 147.47 23.87Q148.56 24.19 149.69 24.19L149.69 24.19Q151.30 24.19 152.02 23.68Q152.74 23.16 152.74 22.30L152.74 22.30Q152.74 21.82 152.47 21.43Q152.21 21.05 151.52 20.66Q150.84 20.28 149.57 19.80L149.57 19.80Q148.32 19.32 147.43 18.84Q146.54 18.36 146.06 17.69Q145.58 17.02 145.58 15.96L145.58 15.96Q145.58 14.33 146.92 13.44Q148.25 12.55 150.41 12.55L150.41 12.55Q151.58 12.55 152.60 12.78Q153.62 13.01 154.51 13.42L154.51 13.42L153.79 15.10Q152.98 14.76 152.09 14.52Q151.20 14.28 150.26 14.28L150.26 14.28Q148.97 14.28 148.28 14.70Q147.60 15.12 147.60 15.84L147.60 15.84Q147.60 16.37 147.91 16.74Q148.22 17.11 148.96 17.46Q149.69 17.81 150.91 18.29L150.91 18.29Q152.14 18.74 153 19.22Q153.86 19.70 154.32 20.39Q154.78 21.07 154.78 22.10ZM163.06 25.90L163.06 25.90Q161.35 25.90 160.02 25.20Q158.69 24.50 157.93 23.04Q157.18 21.58 157.18 19.30L157.18 19.30Q157.18 16.92 157.97 15.43Q158.76 13.94 160.12 13.25Q161.47 12.55 163.20 12.55L163.20 12.55Q164.18 12.55 165.10 12.76Q166.01 12.96 166.58 13.25L166.58 13.25L165.94 15.00Q165.36 14.78 164.59 14.59Q163.82 14.40 163.15 14.40L163.15 14.40Q159.36 14.40 159.36 19.27L159.36 19.27Q159.36 21.60 160.28 22.84Q161.21 24.07 163.03 24.07L163.03 24.07Q164.09 24.07 164.89 23.86Q165.70 23.64 166.37 23.33L166.37 23.33L166.37 25.20Q165.72 25.54 164.94 25.72Q164.16 25.90 163.06 25.90ZM175.42 12.55L175.42 12.55Q175.78 12.55 176.20 12.59Q176.62 12.62 176.93 12.70L176.93 12.70L176.66 14.64Q176.35 14.57 175.98 14.52Q175.61 14.47 175.27 14.47L175.27 14.47Q174.29 14.47 173.42 15.01Q172.56 15.55 172.04 16.52Q171.53 17.50 171.53 18.79L171.53 18.79L171.53 25.66L169.42 25.66L169.42 12.79L171.14 12.79L171.38 15.14L171.48 15.14Q172.10 14.09 173.09 13.32Q174.07 12.55 175.42 12.55ZM180.41 7.97L180.41 7.97Q180.89 7.97 181.26 8.29Q181.63 8.62 181.63 9.31L181.63 9.31Q181.63 9.98 181.26 10.32Q180.89 10.66 180.41 10.66L180.41 10.66Q179.88 10.66 179.52 10.32Q179.16 9.98 179.16 9.31L179.16 9.31Q179.16 8.62 179.52 8.29Q179.88 7.97 180.41 7.97ZM179.33 12.79L181.44 12.79L181.44 25.66L179.33 25.66L179.33 12.79ZM191.64 12.55L191.64 12.55Q194.02 12.55 195.47 14.21Q196.92 15.86 196.92 19.20L196.92 19.20Q196.92 22.49 195.47 24.19Q194.02 25.90 191.62 25.90L191.62 25.90Q190.13 25.90 189.16 25.33Q188.18 24.77 187.63 24.02L187.63 24.02L187.49 24.02Q187.54 24.43 187.58 25.06Q187.63 25.68 187.63 26.14L187.63 26.14L187.63 31.42L185.52 31.42L185.52 12.79L187.25 12.79L187.54 14.54L187.63 14.54Q188.21 13.70 189.14 13.13Q190.08 12.55 191.64 12.55ZM191.26 14.33L191.26 14.33Q189.29 14.33 188.48 15.43Q187.68 16.54 187.63 18.79L187.63 18.79L187.63 19.20Q187.63 21.58 188.41 22.86Q189.19 24.14 191.30 24.14L191.30 24.14Q192.48 24.14 193.24 23.50Q193.99 22.85 194.36 21.73Q194.74 20.62 194.74 19.18L194.74 19.18Q194.74 16.97 193.88 15.65Q193.03 14.33 191.26 14.33ZM204.58 24.17L204.58 24.17Q205.06 24.17 205.56 24.08Q206.06 24 206.38 23.90L206.38 23.90L206.38 25.51Q206.04 25.68 205.42 25.79Q204.79 25.90 204.22 25.90L204.22 25.90Q203.21 25.90 202.36 25.55Q201.50 25.20 200.98 24.34Q200.45 23.47 200.45 21.91L200.45 21.91L200.45 14.42L198.62 14.42L198.62 13.42L200.47 12.58L201.31 9.84L202.56 9.84L202.56 12.79L206.28 12.79L206.28 14.42L202.56 14.42L202.56 21.86Q202.56 23.04 203.12 23.60Q203.69 24.17 204.58 24.17ZM210.02 7.97L210.02 7.97Q210.50 7.97 210.88 8.29Q211.25 8.62 211.25 9.31L211.25 9.31Q211.25 9.98 210.88 10.32Q210.50 10.66 210.02 10.66L210.02 10.66Q209.50 10.66 209.14 10.32Q208.78 9.98 208.78 9.31L208.78 9.31Q208.78 8.62 209.14 8.29Q209.50 7.97 210.02 7.97ZM208.94 12.79L211.06 12.79L211.06 25.66L208.94 25.66L208.94 12.79ZM226.32 19.20L226.32 19.20Q226.32 22.39 224.70 24.14Q223.08 25.90 220.32 25.90L220.32 25.90Q218.62 25.90 217.28 25.12Q215.95 24.34 215.18 22.84Q214.42 21.34 214.42 19.20L214.42 19.20Q214.42 16.01 216.02 14.28Q217.63 12.55 220.39 12.55L220.39 12.55Q222.14 12.55 223.48 13.33Q224.81 14.11 225.56 15.59Q226.32 17.06 226.32 19.20ZM216.60 19.20L216.60 19.20Q216.60 21.48 217.50 22.81Q218.40 24.14 220.37 24.14L220.37 24.14Q222.31 24.14 223.22 22.81Q224.14 21.48 224.14 19.20L224.14 19.20Q224.14 16.92 223.22 15.62Q222.31 14.33 220.34 14.33L220.34 14.33Q218.38 14.33 217.49 15.62Q216.60 16.92 216.60 19.20ZM235.85 12.55L235.85 12.55Q238.15 12.55 239.33 13.67Q240.50 14.78 240.50 17.28L240.50 17.28L240.50 25.66L238.42 25.66L238.42 17.42Q238.42 14.33 235.54 14.33L235.54 14.33Q233.40 14.33 232.58 15.53Q231.77 16.73 231.77 18.98L231.77 18.98L231.77 25.66L229.66 25.66L229.66 12.79L231.36 12.79L231.67 14.54L231.79 14.54Q232.42 13.54 233.52 13.04Q234.62 12.55 235.85 12.55ZM249.36 12.58L249.36 12.58Q251.71 12.58 252.84 13.61Q253.97 14.64 253.97 16.90L253.97 16.90L253.97 25.66L252.43 25.66L252.02 23.83L251.93 23.83Q251.09 24.89 250.16 25.39Q249.24 25.90 247.61 25.90L247.61 25.90Q245.86 25.90 244.70 24.97Q243.55 24.05 243.55 22.08L243.55 22.08Q243.55 20.16 245.06 19.12Q246.58 18.07 249.72 17.98L249.72 17.98L251.90 17.90L251.90 17.14Q251.90 15.53 251.21 14.90Q250.51 14.28 249.24 14.28L249.24 14.28Q248.23 14.28 247.32 14.58Q246.41 14.88 245.62 15.26L245.62 15.26L244.97 13.68Q245.81 13.22 246.96 12.90Q248.11 12.58 249.36 12.58ZM251.88 19.37L249.98 19.44Q247.58 19.54 246.66 20.21Q245.74 20.88 245.74 22.10L245.74 22.10Q245.74 23.18 246.40 23.69Q247.06 24.19 248.09 24.19L248.09 24.19Q249.72 24.19 250.80 23.29Q251.88 22.39 251.88 20.52L251.88 20.52L251.88 19.37ZM260.06 7.42L260.06 25.66L257.95 25.66L257.95 7.42L260.06 7.42ZM270.67 8.52L275.21 8.52Q278.57 8.52 280.10 9.84Q281.64 11.16 281.64 13.56L281.64 13.56Q281.64 14.98 281.00 16.21Q280.37 17.45 278.87 18.22Q277.37 18.98 274.80 18.98L274.80 18.98L272.83 18.98L272.83 25.66L270.67 25.66L270.67 8.52ZM275.02 10.37L275.02 10.37L272.83 10.37L272.83 17.14L274.56 17.14Q277.01 17.14 278.21 16.34Q279.41 15.55 279.41 13.66L279.41 13.66Q279.41 12.00 278.35 11.18Q277.30 10.37 275.02 10.37ZM289.78 12.58L289.78 12.58Q292.13 12.58 293.26 13.61Q294.38 14.64 294.38 16.90L294.38 16.90L294.38 25.66L292.85 25.66L292.44 23.83L292.34 23.83Q291.50 24.89 290.58 25.39Q289.66 25.90 288.02 25.90L288.02 25.90Q286.27 25.90 285.12 24.97Q283.97 24.05 283.97 22.08L283.97 22.08Q283.97 20.16 285.48 19.12Q286.99 18.07 290.14 17.98L290.14 17.98L292.32 17.90L292.32 17.14Q292.32 15.53 291.62 14.90Q290.93 14.28 289.66 14.28L289.66 14.28Q288.65 14.28 287.74 14.58Q286.82 14.88 286.03 15.26L286.03 15.26L285.38 13.68Q286.22 13.22 287.38 12.90Q288.53 12.58 289.78 12.58ZM292.30 19.37L290.40 19.44Q288 19.54 287.08 20.21Q286.15 20.88 286.15 22.10L286.15 22.10Q286.15 23.18 286.81 23.69Q287.47 24.19 288.50 24.19L288.50 24.19Q290.14 24.19 291.22 23.29Q292.30 22.39 292.30 20.52L292.30 20.52L292.30 19.37ZM304.37 12.55L304.37 12.55Q304.73 12.55 305.15 12.59Q305.57 12.62 305.88 12.70L305.88 12.70L305.62 14.64Q305.30 14.57 304.93 14.52Q304.56 14.47 304.22 14.47L304.22 14.47Q303.24 14.47 302.38 15.01Q301.51 15.55 301.00 16.52Q300.48 17.50 300.48 18.79L300.48 18.79L300.48 25.66L298.37 25.66L298.37 12.79L300.10 12.79L300.34 15.14L300.43 15.14Q301.06 14.09 302.04 13.32Q303.02 12.55 304.37 12.55ZM312.58 24.17L312.58 24.17Q313.06 24.17 313.56 24.08Q314.06 24 314.38 23.90L314.38 23.90L314.38 25.51Q314.04 25.68 313.42 25.79Q312.79 25.90 312.22 25.90L312.22 25.90Q311.21 25.90 310.36 25.55Q309.50 25.20 308.98 24.34Q308.45 23.47 308.45 21.91L308.45 21.91L308.45 14.42L306.62 14.42L306.62 13.42L308.47 12.58L309.31 9.84L310.56 9.84L310.56 12.79L314.28 12.79L314.28 14.42L310.56 14.42L310.56 21.86Q310.56 23.04 311.12 23.60Q311.69 24.17 312.58 24.17ZM319.06 7.42L319.06 12.77Q319.06 13.73 318.94 14.57L318.94 14.57L319.08 14.57Q319.70 13.58 320.77 13.08Q321.84 12.58 323.09 12.58L323.09 12.58Q325.44 12.58 326.62 13.69Q327.79 14.81 327.79 17.28L327.79 17.28L327.79 25.66L325.70 25.66L325.70 17.42Q325.70 14.33 322.82 14.33L322.82 14.33Q320.66 14.33 319.86 15.54Q319.06 16.75 319.06 19.01L319.06 19.01L319.06 25.66L316.94 25.66L316.94 7.42L319.06 7.42ZM332.86 7.97L332.86 7.97Q333.34 7.97 333.71 8.29Q334.08 8.62 334.08 9.31L334.08 9.31Q334.08 9.98 333.71 10.32Q333.34 10.66 332.86 10.66L332.86 10.66Q332.33 10.66 331.97 10.32Q331.61 9.98 331.61 9.31L331.61 9.31Q331.61 8.62 331.97 8.29Q332.33 7.97 332.86 7.97ZM331.78 12.79L333.89 12.79L333.89 25.66L331.78 25.66L331.78 12.79ZM342.84 12.58L342.84 12.58Q345.19 12.58 346.32 13.61Q347.45 14.64 347.45 16.90L347.45 16.90L347.45 25.66L345.91 25.66L345.50 23.83L345.41 23.83Q344.57 24.89 343.64 25.39Q342.72 25.90 341.09 25.90L341.09 25.90Q339.34 25.90 338.18 24.97Q337.03 24.05 337.03 22.08L337.03 22.08Q337.03 20.16 338.54 19.12Q340.06 18.07 343.20 17.98L343.20 17.98L345.38 17.90L345.38 17.14Q345.38 15.53 344.69 14.90Q343.99 14.28 342.72 14.28L342.72 14.28Q341.71 14.28 340.80 14.58Q339.89 14.88 339.10 15.26L339.10 15.26L338.45 13.68Q339.29 13.22 340.44 12.90Q341.59 12.58 342.84 12.58ZM345.36 19.37L343.46 19.44Q341.06 19.54 340.14 20.21Q339.22 20.88 339.22 22.10L339.22 22.10Q339.22 23.18 339.88 23.69Q340.54 24.19 341.57 24.19L341.57 24.19Q343.20 24.19 344.28 23.29Q345.36 22.39 345.36 20.52L345.36 20.52L345.36 19.37ZM357.62 12.55L357.62 12.55Q359.93 12.55 361.10 13.67Q362.28 14.78 362.28 17.28L362.28 17.28L362.28 25.66L360.19 25.66L360.19 17.42Q360.19 14.33 357.31 14.33L357.31 14.33Q355.18 14.33 354.36 15.53Q353.54 16.73 353.54 18.98L353.54 18.98L353.54 25.66L351.43 25.66L351.43 12.79L353.14 12.79L353.45 14.54L353.57 14.54Q354.19 13.54 355.30 13.04Q356.40 12.55 357.62 12.55ZM383.71 19.87L383.71 21.77L381.22 21.77L381.22 25.66L379.18 25.66L379.18 21.77L370.97 21.77L370.97 19.97L379.03 8.42L381.22 8.42L381.22 19.87L383.71 19.87ZM379.18 19.87L379.18 14.47Q379.18 13.22 379.22 12.35Q379.27 11.47 379.30 10.68L379.30 10.68L379.20 10.68Q379.01 11.14 378.72 11.66Q378.43 12.19 378.17 12.55L378.17 12.55L373.03 19.87L379.18 19.87ZM396.74 17.06L396.74 17.06Q396.74 19.82 396.17 21.80Q395.59 23.78 394.34 24.84Q393.10 25.90 391.03 25.90L391.03 25.90Q388.13 25.90 386.75 23.56Q385.37 21.22 385.37 17.06L385.37 17.06Q385.37 14.28 385.93 12.31Q386.50 10.34 387.74 9.30Q388.99 8.26 391.03 8.26L391.03 8.26Q393.91 8.26 395.33 10.57Q396.74 12.89 396.74 17.06ZM387.48 17.06L387.48 17.06Q387.48 20.59 388.28 22.34Q389.09 24.10 391.03 24.10L391.03 24.10Q392.95 24.10 393.78 22.36Q394.61 20.62 394.61 17.06L394.61 17.06Q394.61 13.56 393.78 11.81Q392.95 10.06 391.03 10.06L391.03 10.06Q389.09 10.06 388.28 11.81Q387.48 13.56 387.48 17.06ZM410.47 17.06L410.47 17.06Q410.47 19.82 409.90 21.80Q409.32 23.78 408.07 24.84Q406.82 25.90 404.76 25.90L404.76 25.90Q401.86 25.90 400.48 23.56Q399.10 21.22 399.10 17.06L399.10 17.06Q399.10 14.28 399.66 12.31Q400.22 10.34 401.47 9.30Q402.72 8.26 404.76 8.26L404.76 8.26Q407.64 8.26 409.06 10.57Q410.47 12.89 410.47 17.06ZM401.21 17.06L401.21 17.06Q401.21 20.59 402.01 22.34Q402.82 24.10 404.76 24.10L404.76 24.10Q406.68 24.10 407.51 22.36Q408.34 20.62 408.34 17.06L408.34 17.06Q408.34 13.56 407.51 11.81Q406.68 10.06 404.76 10.06L404.76 10.06Q402.82 10.06 402.01 11.81Q401.21 13.56 401.21 17.06ZM426.12 12.55L426.12 12.55Q428.42 12.55 429.60 13.67Q430.78 14.78 430.78 17.28L430.78 17.28L430.78 25.66L428.69 25.66L428.69 17.42Q428.69 14.33 425.81 14.33L425.81 14.33Q423.67 14.33 422.86 15.53Q422.04 16.73 422.04 18.98L422.04 18.98L422.04 25.66L419.93 25.66L419.93 12.79L421.63 12.79L421.94 14.54L422.06 14.54Q422.69 13.54 423.79 13.04Q424.90 12.55 426.12 12.55ZM445.94 19.20L445.94 19.20Q445.94 22.39 444.32 24.14Q442.70 25.90 439.94 25.90L439.94 25.90Q438.24 25.90 436.91 25.12Q435.58 24.34 434.81 22.84Q434.04 21.34 434.04 19.20L434.04 19.20Q434.04 16.01 435.65 14.28Q437.26 12.55 440.02 12.55L440.02 12.55Q441.77 12.55 443.10 13.33Q444.43 14.11 445.19 15.59Q445.94 17.06 445.94 19.20ZM436.22 19.20L436.22 19.20Q436.22 21.48 437.12 22.81Q438.02 24.14 439.99 24.14L439.99 24.14Q441.94 24.14 442.85 22.81Q443.76 21.48 443.76 19.20L443.76 19.20Q443.76 16.92 442.85 15.62Q441.94 14.33 439.97 14.33L439.97 14.33Q438.00 14.33 437.11 15.62Q436.22 16.92 436.22 19.20ZM455.28 12.55L455.28 12.55Q455.64 12.55 456.06 12.59Q456.48 12.62 456.79 12.70L456.79 12.70L456.53 14.64Q456.22 14.57 455.84 14.52Q455.47 14.47 455.14 14.47L455.14 14.47Q454.15 14.47 453.29 15.01Q452.42 15.55 451.91 16.52Q451.39 17.50 451.39 18.79L451.39 18.79L451.39 25.66L449.28 25.66L449.28 12.79L451.01 12.79L451.25 15.14L451.34 15.14Q451.97 14.09 452.95 13.32Q453.94 12.55 455.28 12.55ZM473.30 12.55L473.30 12.55Q475.49 12.55 476.57 13.67Q477.65 14.78 477.65 17.28L477.65 17.28L477.65 25.66L475.56 25.66L475.56 17.38Q475.56 14.33 472.94 14.33L472.94 14.33Q471.07 14.33 470.27 15.41Q469.46 16.49 469.46 18.55L469.46 18.55L469.46 25.66L467.38 25.66L467.38 17.38Q467.38 14.33 464.74 14.33L464.74 14.33Q462.79 14.33 462.05 15.53Q461.30 16.73 461.30 18.98L461.30 18.98L461.30 25.66L459.19 25.66L459.19 12.79L460.90 12.79L461.21 14.54L461.33 14.54Q461.93 13.54 462.95 13.04Q463.97 12.55 465.12 12.55L465.12 12.55Q468.14 12.55 469.06 14.71L469.06 14.71L469.18 14.71Q469.82 13.61 470.94 13.08Q472.06 12.55 473.30 12.55ZM486.50 12.58L486.50 12.58Q488.86 12.58 489.98 13.61Q491.11 14.64 491.11 16.90L491.11 16.90L491.11 25.66L489.58 25.66L489.17 23.83L489.07 23.83Q488.23 24.89 487.31 25.39Q486.38 25.90 484.75 25.90L484.75 25.90Q483.00 25.90 481.85 24.97Q480.70 24.05 480.70 22.08L480.70 22.08Q480.70 20.16 482.21 19.12Q483.72 18.07 486.86 17.98L486.86 17.98L489.05 17.90L489.05 17.14Q489.05 15.53 488.35 14.90Q487.66 14.28 486.38 14.28L486.38 14.28Q485.38 14.28 484.46 14.58Q483.55 14.88 482.76 15.26L482.76 15.26L482.11 13.68Q482.95 13.22 484.10 12.90Q485.26 12.58 486.50 12.58ZM489.02 19.37L487.13 19.44Q484.73 19.54 483.80 20.21Q482.88 20.88 482.88 22.10L482.88 22.10Q482.88 23.18 483.54 23.69Q484.20 24.19 485.23 24.19L485.23 24.19Q486.86 24.19 487.94 23.29Q489.02 22.39 489.02 20.52L489.02 20.52L489.02 19.37ZM497.21 7.42L497.21 25.66L495.10 25.66L495.10 7.42L497.21 7.42Z"/></svg>