<svg xmlns="http://www.w3.org/2000/svg" xmlns:xlink="http://www.w3.org/1999/xlink" width="161.06400000000005" height="28.8"><path fill="black" d="M8.88 13.94L8.88 13.94L8.95 13.85Q10.87 13.92 11.80 14.83Q12.72 15.74 12.72 17.38L12.72 17.38Q12.72 18.94 11.99 20.08Q11.26 21.22 9.90 21.83Q8.54 22.44 6.67 22.44L6.67 22.44L0.53 22.44L0.58 22.08L3.10 21.74L2.88 21.94L5.35 6.34L5.50 6.53L3.07 6.31L3.12 5.95L5.93 5.83L9.24 5.83Q10.10 5.83 10.79 5.98Q11.47 6.12 11.96 6.41Q12.46 6.70 12.77 7.10Q13.08 7.51 13.24 8.04Q13.39 8.57 13.39 9.19L13.39 9.19Q13.39 10.44 12.84 11.42Q12.29 12.41 11.27 13.04Q10.25 13.68 8.88 13.94ZM9.10 6.29L9.10 6.29L5.66 6.29L5.86 6.17L4.63 13.92L4.51 13.70L7.25 13.70Q8.52 13.70 9.56 13.39Q10.61 13.08 11.35 12.50Q12.10 11.93 12.49 11.11Q12.89 10.30 12.89 9.26L12.89 9.26Q12.89 8.33 12.52 7.67Q12.14 7.01 11.32 6.65Q10.49 6.29 9.10 6.29ZM3.19 21.98L6.72 21.98Q9.26 21.98 10.74 20.75Q12.22 19.51 12.22 17.40L12.22 17.40Q12.22 16.42 11.83 15.70Q11.45 14.98 10.62 14.57Q9.79 14.16 8.47 14.16L8.47 14.16L4.44 14.16L4.63 13.92L3.34 22.08L3.19 21.98ZM18.98 22.39L16.42 22.49L18.34 10.39L18.53 10.63L16.30 10.32L16.34 9.96L18.91 9.84L16.99 21.91L16.87 21.74L19.03 22.03L18.98 22.39ZM19.20 6.53L19.20 6.53Q18.96 6.53 18.80 6.36Q18.65 6.19 18.65 5.90L18.65 5.90Q18.65 5.57 18.84 5.34Q19.03 5.11 19.34 5.11L19.34 5.11Q19.61 5.11 19.75 5.28Q19.90 5.45 19.90 5.74L19.90 5.74Q19.90 6.07 19.70 6.30Q19.51 6.53 19.20 6.53ZM26.95 21.46L27.17 21.84Q26.47 22.22 25.85 22.40Q25.22 22.58 24.72 22.58L24.72 22.58Q23.95 22.58 23.50 22.14Q23.04 21.70 23.04 20.81L23.04 20.81Q23.04 20.62 23.05 20.48Q23.06 20.35 23.09 20.23L23.09 20.23L24.67 10.20L24.79 10.37L22.27 10.37L22.32 10.03L24.89 9.91L24.70 10.08L25.18 7.03L25.66 7.01L25.18 10.08L25.03 9.91L28.70 9.91L28.63 10.37L24.94 10.37L25.15 10.20L23.57 20.16Q23.54 20.26 23.53 20.41Q23.52 20.57 23.52 20.74L23.52 20.74Q23.52 21.48 23.87 21.80Q24.22 22.13 24.77 22.13L24.77 22.13Q25.25 22.13 25.80 21.95Q26.35 21.77 26.95 21.46L26.95 21.46ZM34.63 21.46L34.85 21.84Q34.15 22.22 33.53 22.40Q32.90 22.58 32.40 22.58L32.40 22.58Q31.63 22.58 31.18 22.14Q30.72 21.70 30.72 20.81L30.72 20.81Q30.72 20.62 30.73 20.48Q30.74 20.35 30.77 20.23L30.77 20.23L32.35 10.20L32.47 10.37L29.95 10.37L30 10.03L32.57 9.91L32.38 10.08L32.86 7.03L33.34 7.01L32.86 10.08L32.71 9.91L36.38 9.91L36.31 10.37L32.62 10.37L32.83 10.20L31.25 20.16Q31.22 20.26 31.21 20.41Q31.20 20.57 31.20 20.74L31.20 20.74Q31.20 21.48 31.55 21.80Q31.90 22.13 32.45 22.13L32.45 22.13Q32.93 22.13 33.48 21.95Q34.03 21.77 34.63 21.46L34.63 21.46ZM41.28 22.58L41.28 22.58Q40.10 22.58 39.18 22.06Q38.26 21.53 37.73 20.45Q37.20 19.37 37.20 17.74L37.20 17.74Q37.20 16.25 37.64 14.83Q38.09 13.42 38.93 12.28Q39.77 11.14 40.96 10.45Q42.14 9.77 43.61 9.77L43.61 9.77Q45.14 9.77 46.00 10.49Q46.85 11.21 46.85 12.29L46.85 12.29Q46.85 13.32 46.10 14.15Q45.36 14.98 44.14 15.56Q42.91 16.15 41.47 16.46Q40.03 16.78 38.64 16.78L38.64 16.78Q38.33 16.78 38.08 16.76Q37.82 16.75 37.56 16.73L37.56 16.73L37.66 16.25Q37.92 16.27 38.22 16.30Q38.52 16.32 38.83 16.32L38.83 16.32Q40.06 16.32 41.38 16.03Q42.70 15.74 43.82 15.22Q44.95 14.69 45.65 13.96Q46.34 13.22 46.34 12.31L46.34 12.31Q46.34 11.40 45.60 10.81Q44.86 10.22 43.54 10.22L43.54 10.22Q42.17 10.22 41.09 10.87Q40.01 11.52 39.25 12.60Q38.50 13.68 38.10 15.02Q37.70 16.37 37.70 17.76L37.70 17.76Q37.70 19.99 38.72 21.06Q39.74 22.13 41.33 22.13L41.33 22.13Q42.17 22.13 43.14 21.83Q44.11 21.53 45.10 20.93L45.10 20.93L45.31 21.31Q44.26 21.94 43.22 22.26Q42.19 22.58 41.28 22.58ZM49.90 22.44L49.42 22.44L51.34 10.39L51.48 10.63L49.30 10.32L49.34 9.96L51.91 9.84L51.02 15.19L50.93 15.24Q51.48 13.61 52.42 12.38Q53.35 11.16 54.46 10.46Q55.56 9.77 56.62 9.77L56.62 9.77Q57.02 9.77 57.34 9.86L57.34 9.86L56.88 12.60L56.47 12.60L56.62 10.06L56.74 10.25Q55.99 10.20 55.08 10.63Q54.17 11.06 53.27 12.00Q52.37 12.94 51.66 14.41Q50.95 15.89 50.62 17.95L50.62 17.95L49.90 22.44ZM69.19 22.44L69.96 17.57L70.08 17.74L61.87 17.74L61.82 17.33L71.74 5.62L72.26 5.83L70.44 17.42L70.30 17.26L73.63 17.26L73.56 17.74L70.22 17.74L70.42 17.57L69.65 22.44L69.19 22.44ZM62.28 17.26L70.18 17.26L69.98 17.42L71.78 6.07L71.86 6.10L62.33 17.40L62.28 17.26ZM80.81 22.58L80.81 22.58Q79.44 22.58 78.49 22.00Q77.54 21.41 77.05 20.14Q76.56 18.86 76.56 16.85L76.56 16.85Q76.56 15.38 76.81 13.82Q77.06 12.26 77.60 10.81Q78.14 9.36 79.00 8.21Q79.85 7.06 81.07 6.37Q82.30 5.69 83.90 5.69L83.90 5.69Q85.87 5.69 86.95 6.90Q88.03 8.11 88.03 11.04L88.03 11.04Q88.03 12.48 87.79 14.06Q87.55 15.65 87.02 17.16Q86.50 18.67 85.64 19.90Q84.79 21.12 83.59 21.85Q82.39 22.58 80.81 22.58ZM80.83 22.10L80.83 22.10Q82.32 22.10 83.44 21.40Q84.55 20.69 85.33 19.50Q86.11 18.31 86.59 16.86Q87.07 15.41 87.30 13.88Q87.53 12.36 87.53 11.02L87.53 11.02Q87.53 9.12 87.08 8.08Q86.64 7.03 85.82 6.60Q85.01 6.17 83.90 6.17L83.90 6.17Q82.37 6.17 81.23 6.83Q80.09 7.49 79.30 8.62Q78.50 9.74 78.01 11.14Q77.52 12.53 77.29 14.00Q77.06 15.48 77.06 16.85L77.06 16.85Q77.06 19.68 78.05 20.89Q79.03 22.10 80.83 22.10ZM96.00 22.58L96.00 22.58Q94.63 22.58 93.68 22.00Q92.74 21.41 92.24 20.14Q91.75 18.86 91.75 16.85L91.75 16.85Q91.75 15.38 92.00 13.82Q92.26 12.26 92.80 10.81Q93.34 9.36 94.19 8.21Q95.04 7.06 96.26 6.37Q97.49 5.69 99.10 5.69L99.10 5.69Q101.06 5.69 102.14 6.90Q103.22 8.11 103.22 11.04L103.22 11.04Q103.22 12.48 102.98 14.06Q102.74 15.65 102.22 17.16Q101.69 18.67 100.84 19.90Q99.98 21.12 98.78 21.85Q97.58 22.58 96.00 22.58ZM96.02 22.10L96.02 22.10Q97.51 22.10 98.63 21.40Q99.74 20.69 100.52 19.50Q101.30 18.31 101.78 16.86Q102.26 15.41 102.49 13.88Q102.72 12.36 102.72 11.02L102.72 11.02Q102.72 9.12 102.28 8.08Q101.83 7.03 101.02 6.60Q100.20 6.17 99.10 6.17L99.10 6.17Q97.56 6.17 96.42 6.83Q95.28 7.49 94.49 8.62Q93.70 9.74 93.20 11.14Q92.71 12.53 92.48 14.00Q92.26 15.48 92.26 16.85L92.26 16.85Q92.26 19.68 93.24 20.89Q94.22 22.10 96.02 22.10ZM114.29 22.39L111.72 22.49L113.64 10.39L113.83 10.63L111.60 10.32L111.65 9.96L114.22 9.84L112.30 21.91L112.18 21.74L114.34 22.03L114.29 22.39ZM114.50 6.53L114.50 6.53Q114.26 6.53 114.11 6.36Q113.95 6.19 113.95 5.90L113.95 5.90Q113.95 5.57 114.14 5.34Q114.34 5.11 114.65 5.11L114.65 5.11Q114.91 5.11 115.06 5.28Q115.20 5.45 115.20 5.74L115.20 5.74Q115.20 6.07 115.01 6.30Q114.82 6.53 114.50 6.53ZM122.26 21.46L122.47 21.84Q121.78 22.22 121.15 22.40Q120.53 22.58 120.02 22.58L120.02 22.58Q119.26 22.58 118.80 22.14Q118.34 21.70 118.34 20.81L118.34 20.81Q118.34 20.62 118.36 20.48Q118.37 20.35 118.39 20.23L118.39 20.23L119.98 10.20L120.10 10.37L117.58 10.37L117.62 10.03L120.19 9.91L120.00 10.08L120.48 7.03L120.96 7.01L120.48 10.08L120.34 9.91L124.01 9.91L123.94 10.37L120.24 10.37L120.46 10.20L118.87 20.16Q118.85 20.26 118.84 20.41Q118.82 20.57 118.82 20.74L118.82 20.74Q118.82 21.48 119.17 21.80Q119.52 22.13 120.07 22.13L120.07 22.13Q120.55 22.13 121.10 21.95Q121.66 21.77 122.26 21.46L122.26 21.46ZM128.04 22.58L128.04 22.58Q127.15 22.58 126.42 22.10Q125.69 21.62 125.26 20.62Q124.82 19.61 124.82 18L124.82 18Q124.82 16.32 125.33 14.83Q125.83 13.34 126.73 12.20Q127.63 11.06 128.86 10.42Q130.08 9.77 131.52 9.77L131.52 9.77Q132.29 9.77 133.15 10.00Q134.02 10.22 134.98 10.80L134.98 10.80L134.78 10.87L135.10 9.91L135.43 9.91L133.51 21.98L133.34 21.74L135.58 22.03L135.53 22.39L132.96 22.49L133.80 17.16L133.94 17.14Q133.25 19.06 132.22 20.27Q131.18 21.48 130.08 22.03Q128.98 22.58 128.04 22.58ZM128.06 22.13L128.06 22.13Q128.86 22.13 129.79 21.67Q130.73 21.22 131.62 20.28Q132.50 19.34 133.21 17.88Q133.92 16.42 134.23 14.40L134.23 14.40L134.78 10.94L134.90 11.23Q134.02 10.70 133.16 10.46Q132.31 10.22 131.50 10.22L131.50 10.22Q130.15 10.22 129.02 10.84Q127.90 11.45 127.07 12.52Q126.24 13.58 125.78 14.99Q125.33 16.39 125.33 17.98L125.33 17.98Q125.33 20.16 126.13 21.14Q126.94 22.13 128.06 22.13ZM141.50 22.39L138.94 22.49L141.77 4.66L141.91 4.87L139.73 4.56L139.78 4.20L142.34 4.08L139.51 21.91L139.39 21.74L141.55 22.03L141.50 22.39ZM147.82 22.39L145.25 22.49L147.17 10.39L147.36 10.63L145.13 10.32L145.18 9.96L147.74 9.84L145.82 21.91L145.70 21.74L147.86 22.03L147.82 22.39ZM148.03 6.53L148.03 6.53Q147.79 6.53 147.64 6.36Q147.48 6.19 147.48 5.90L147.48 5.90Q147.48 5.57 147.67 5.34Q147.86 5.11 148.18 5.11L148.18 5.11Q148.44 5.11 148.58 5.28Q148.73 5.45 148.73 5.74L148.73 5.74Q148.73 6.07 148.54 6.30Q148.34 6.53 148.03 6.53ZM155.02 22.58L155.02 22.58Q153.89 22.58 152.99 22.08Q152.09 21.58 151.56 20.50Q151.03 19.42 151.03 17.71L151.03 17.71Q151.03 16.08 151.52 14.64Q152.02 13.20 152.88 12.11Q153.74 11.02 154.90 10.39Q156.05 9.77 157.37 9.77L157.37 9.77Q158.14 9.77 158.98 10.01Q159.82 10.25 160.63 10.78L160.63 10.78L160.20 13.27L159.77 13.27L159.86 10.73L159.96 10.94Q158.59 10.22 157.32 10.22L157.32 10.22Q156.07 10.22 155.02 10.82Q153.96 11.42 153.18 12.48Q152.40 13.54 151.97 14.87Q151.54 16.20 151.54 17.69L151.54 17.69Q151.54 20.02 152.56 21.06Q153.58 22.10 155.11 22.10L155.11 22.10Q155.95 22.10 156.89 21.80Q157.82 21.50 158.76 20.93L158.76 20.93L158.98 21.31Q157.97 21.94 156.95 22.26Q155.93 22.58 155.02 22.58Z"/></svg>