<svg xmlns="http://www.w3.org/2000/svg" xmlns:xlink="http://www.w3.org/1999/xlink" width="239.66015625" height="30"><path fill="black" d="M1.30 22.73L1.20 21.68Q1.42 21.60 1.68 21.54Q1.95 21.49 2.22 21.45Q2.50 21.40 2.77 21.37Q3.04 21.34 3.27 21.30L3.27 21.30L3.27 7.17L1.38 6.81Q1.36 6.75 1.35 6.62Q1.35 6.48 1.35 6.40L1.35 6.40Q1.35 6.22 1.39 6.04Q1.44 5.85 1.50 5.77L1.50 5.77L12.76 5.77L12.93 5.95Q12.94 6.40 12.89 6.96Q12.84 7.51 12.77 8.06Q12.70 8.60 12.62 9.08Q12.53 9.55 12.47 9.81L12.47 9.81Q12.20 9.87 11.85 9.86Q11.50 9.84 11.16 9.81L11.16 9.81L10.95 7.14L5.37 7.14L5.37 13.65L10.75 13.59Q10.80 13.93 10.76 14.37Q10.72 14.80 10.65 15.18L10.65 15.18L5.37 15.04L5.37 21.30L8.51 21.68Q8.53 21.74 8.53 21.85Q8.53 21.96 8.53 22.04L8.53 22.04Q8.53 22.21 8.48 22.43Q8.44 22.65 8.40 22.73L8.40 22.73L1.30 22.73ZM17.05 8.61L17.05 8.61Q16.77 8.61 16.53 8.55Q16.29 8.48 16.10 8.33Q15.91 8.17 15.81 7.90Q15.70 7.64 15.70 7.25L15.70 7.25Q15.70 6.87 15.81 6.61Q15.91 6.35 16.10 6.19Q16.29 6.04 16.53 5.97Q16.77 5.91 17.05 5.91L17.05 5.91Q17.33 5.91 17.58 5.97Q17.82 6.04 18.01 6.19Q18.19 6.35 18.29 6.61Q18.40 6.87 18.40 7.25L18.40 7.25Q18.40 7.64 18.29 7.90Q18.19 8.17 18.01 8.33Q17.82 8.48 17.58 8.55Q17.33 8.61 17.05 8.61ZM16.31 22.42L16.31 12.88L14.31 12.88L14.17 11.87Q14.39 11.79 14.75 11.68Q15.11 11.57 15.50 11.48Q15.89 11.39 16.27 11.33Q16.64 11.26 16.91 11.26L16.91 11.26Q17.41 11.26 17.70 11.39Q17.98 11.52 18.10 11.71Q18.22 11.89 18.25 12.12Q18.27 12.34 18.27 12.52L18.27 12.52L18.27 22.42Q18.27 23.06 18.25 23.74Q18.23 24.41 18.14 25.08Q18.05 25.75 17.84 26.41Q17.63 27.07 17.24 27.70Q16.85 28.32 16.26 28.90Q15.67 29.48 14.80 30L14.80 30L13.98 29.13Q14.41 28.64 14.75 28.23Q15.08 27.82 15.33 27.45Q15.57 27.08 15.74 26.75Q15.91 26.41 16.02 26.09L16.02 26.09Q16.16 25.69 16.22 25.27Q16.28 24.86 16.30 24.41Q16.32 23.96 16.32 23.47Q16.31 22.98 16.31 22.42L16.31 22.42ZM21.21 17.17L21.21 17.17Q21.21 15.94 21.56 14.87Q21.90 13.79 22.62 12.99Q23.34 12.19 24.44 11.72Q25.54 11.26 27.05 11.26L27.05 11.26Q28.56 11.26 29.52 11.72Q30.48 12.19 31.04 12.99Q31.59 13.79 31.80 14.87Q32.02 15.94 32.02 17.17L32.02 17.17Q32.02 18.40 31.66 19.47Q31.31 20.54 30.59 21.35Q29.87 22.15 28.77 22.61Q27.67 23.07 26.17 23.07L26.17 23.07Q24.66 23.07 23.70 22.61Q22.73 22.15 22.18 21.35Q21.63 20.54 21.42 19.47Q21.21 18.40 21.21 17.17ZM23.37 17.17L23.37 17.17Q23.37 18.60 23.59 19.50Q23.81 20.40 24.23 20.92Q24.64 21.43 25.24 21.63Q25.84 21.82 26.60 21.82L26.60 21.82Q27.28 21.82 27.87 21.63Q28.46 21.43 28.90 20.92Q29.34 20.40 29.60 19.50Q29.85 18.60 29.85 17.17L29.85 17.17Q29.85 15.75 29.63 14.84Q29.40 13.93 28.99 13.42Q28.57 12.90 27.97 12.71Q27.36 12.52 26.60 12.52L26.60 12.52Q25.93 12.52 25.34 12.71Q24.75 12.90 24.31 13.42Q23.87 13.93 23.62 14.84Q23.37 15.75 23.37 17.17ZM34.44 22.73L34.34 21.82Q34.78 21.67 35.28 21.59Q35.78 21.52 36.22 21.43L36.22 21.43L36.22 12.88L34.13 12.88L33.97 11.87Q34.23 11.77 34.61 11.66Q34.98 11.55 35.37 11.47Q35.77 11.38 36.13 11.32Q36.50 11.26 36.75 11.26L36.75 11.26Q37.24 11.26 37.52 11.39Q37.79 11.52 37.93 11.74Q38.06 11.95 38.09 12.25Q38.11 12.55 38.11 12.88L38.11 12.88L38.11 13.78Q38.16 13.68 38.27 13.46Q38.39 13.25 38.53 13.03Q38.66 12.80 38.79 12.59Q38.93 12.38 39.02 12.27L39.02 12.27Q39.40 11.79 39.97 11.50Q40.54 11.21 41.37 11.21L41.37 11.21Q41.45 11.21 41.59 11.22Q41.73 11.23 41.88 11.24Q42.04 11.25 42.19 11.27Q42.34 11.29 42.46 11.32L42.46 11.32Q42.47 11.46 42.47 11.68Q42.48 11.91 42.47 12.16Q42.47 12.42 42.45 12.69Q42.43 12.95 42.40 13.17L42.40 13.17Q42.20 13.14 41.91 13.10Q41.61 13.07 41.24 13.07L41.24 13.07Q40.79 13.07 40.36 13.14Q39.93 13.22 39.57 13.37L39.57 13.37Q39.13 13.56 38.81 13.88Q38.50 14.19 38.19 14.57L38.19 14.57L38.19 21.43L40.90 21.70Q40.92 21.76 40.92 21.90Q40.92 22.04 40.92 22.13L40.92 22.13Q40.92 22.29 40.90 22.47Q40.89 22.65 40.84 22.73L40.84 22.73L34.44 22.73ZM47.92 23.07L47.92 23.07Q46.65 23.07 45.87 22.63Q45.09 22.18 44.67 21.43Q44.24 20.67 44.10 19.66Q43.96 18.66 43.96 17.53L43.96 17.53Q43.96 15.88 44.33 14.70Q44.70 13.51 45.39 12.74Q46.09 11.98 47.10 11.62Q48.12 11.26 49.41 11.26L49.41 11.26Q49.65 11.26 49.98 11.29Q50.31 11.31 50.67 11.37Q51.04 11.43 51.42 11.53Q51.80 11.63 52.15 11.77L52.15 11.77L52.15 5.51L49.90 5.51L49.77 4.50Q49.91 4.44 50.27 4.34Q50.64 4.24 51.08 4.14Q51.52 4.04 51.97 3.97Q52.43 3.89 52.76 3.89L52.76 3.89Q53.25 3.89 53.51 4.02Q53.78 4.15 53.91 4.34Q54.05 4.54 54.08 4.76Q54.11 4.98 54.12 5.16L54.12 5.16L54.12 21.49L56.38 21.49L56.47 22.46Q56.33 22.52 56.00 22.63Q55.66 22.73 55.26 22.83Q54.86 22.93 54.43 23.00Q54 23.07 53.67 23.07L53.67 23.07Q53.19 23.07 52.92 22.94Q52.64 22.80 52.51 22.61Q52.37 22.42 52.34 22.19Q52.31 21.96 52.31 21.79L52.31 21.79L52.31 21.39L52.28 21.39Q51.95 21.67 51.44 21.97Q50.93 22.27 50.34 22.51Q49.75 22.76 49.11 22.92Q48.48 23.07 47.92 23.07ZM48.45 21.52L48.45 21.52Q48.89 21.52 49.39 21.41Q49.89 21.30 50.38 21.13Q50.87 20.95 51.33 20.73Q51.79 20.51 52.15 20.27L52.15 20.27L52.15 12.93Q51.80 12.84 51.18 12.75Q50.57 12.66 49.85 12.66L49.85 12.66Q48.61 12.66 47.86 13.01Q47.11 13.37 46.71 14.02Q46.30 14.67 46.17 15.57Q46.03 16.48 46.03 17.55L46.03 17.55Q46.03 18.47 46.13 19.20Q46.22 19.93 46.48 20.45Q46.75 20.96 47.22 21.24Q47.70 21.52 48.45 21.52ZM71.45 23.20L70.62 23.20Q69.25 23.20 68.23 22.88Q67.21 22.56 66.48 21.97Q65.75 21.38 65.29 20.56Q64.83 19.75 64.56 18.76Q64.29 17.77 64.19 16.65Q64.09 15.53 64.09 14.33L64.09 14.33L64.09 14.31Q64.09 13.08 64.25 11.94Q64.42 10.79 64.78 9.81Q65.13 8.82 65.71 8.02Q66.28 7.21 67.09 6.63Q67.90 6.06 68.97 5.74Q70.04 5.43 71.40 5.43L71.40 5.43L72.22 5.43Q73.61 5.43 74.61 5.74Q75.62 6.05 76.33 6.62Q77.04 7.18 77.47 7.98Q77.91 8.78 78.15 9.76Q78.40 10.73 78.48 11.87Q78.56 13.00 78.56 14.23L78.56 14.23L78.56 14.38Q78.56 16.23 78.18 17.84Q77.79 19.44 76.94 20.64Q76.09 21.83 74.74 22.52Q73.38 23.20 71.45 23.20L71.45 23.20ZM71.27 21.76L71.27 21.76Q72.88 21.76 73.87 21.20Q74.86 20.64 75.40 19.64Q75.95 18.64 76.14 17.28Q76.32 15.91 76.32 14.31L76.32 14.31Q76.32 13.35 76.28 12.42Q76.23 11.50 76.06 10.67Q75.89 9.84 75.57 9.15Q75.25 8.46 74.70 7.96Q74.14 7.46 73.32 7.18Q72.50 6.90 71.34 6.90L71.34 6.90Q70.28 6.90 69.49 7.15Q68.71 7.41 68.15 7.88Q67.59 8.34 67.25 9.01Q66.90 9.68 66.70 10.50Q66.50 11.32 66.43 12.28Q66.35 13.24 66.35 14.31L66.35 14.31Q66.35 15.22 66.40 16.13Q66.46 17.03 66.63 17.85Q66.80 18.68 67.13 19.39Q67.45 20.11 68.00 20.64Q68.54 21.16 69.35 21.46Q70.15 21.76 71.27 21.76ZM81.61 22.73L81.50 21.82Q81.94 21.69 82.42 21.60Q82.91 21.52 83.33 21.43L83.33 21.43L83.33 12.88L81.32 12.88L81.18 11.87Q81.32 11.81 81.64 11.71Q81.96 11.60 82.37 11.50Q82.77 11.40 83.19 11.33Q83.60 11.26 83.94 11.26L83.94 11.26Q84.43 11.26 84.70 11.39Q84.97 11.52 85.10 11.71Q85.23 11.89 85.26 12.12Q85.29 12.34 85.30 12.52L85.30 12.52L85.30 12.71Q86.30 11.98 87.26 11.62Q88.22 11.26 89.29 11.26L89.29 11.26Q90.21 11.26 90.84 11.43Q91.46 11.59 91.85 12.01Q92.23 12.43 92.39 13.17Q92.55 13.90 92.55 15.04L92.55 15.04L92.55 21.47L94.39 21.79Q94.42 21.86 94.42 21.95Q94.42 22.04 94.42 22.13L94.42 22.13Q94.42 22.29 94.37 22.47Q94.31 22.65 94.27 22.73L94.27 22.73L89.09 22.73L89.00 21.82Q89.43 21.69 89.80 21.62Q90.18 21.55 90.59 21.47L90.59 21.47L90.59 15.15Q90.59 14.48 90.50 14.04Q90.41 13.59 90.20 13.33Q89.99 13.07 89.65 12.96Q89.31 12.84 88.82 12.84L88.82 12.84Q88.29 12.84 87.83 12.89Q87.36 12.94 86.94 13.03Q86.52 13.13 86.12 13.27Q85.72 13.41 85.30 13.59L85.30 13.59L85.30 21.43L87.15 21.79Q87.18 21.86 87.18 21.95Q87.18 22.04 87.18 22.13L87.18 22.13Q87.18 22.29 87.13 22.47Q87.09 22.65 87.05 22.73L87.05 22.73L81.61 22.73ZM96.21 17.70L96.21 17.70Q96.20 15.98 96.56 14.77Q96.91 13.55 97.57 12.77Q98.23 11.99 99.17 11.63Q100.11 11.26 101.29 11.26L101.29 11.26Q102.56 11.26 103.38 11.56Q104.20 11.86 104.67 12.50Q105.14 13.14 105.32 14.13Q105.50 15.13 105.49 16.52L105.49 16.52L98.23 16.58Q98.23 17.41 98.26 18.11Q98.29 18.80 98.41 19.35Q98.53 19.91 98.77 20.33Q99 20.74 99.42 21.02Q99.83 21.29 100.45 21.43Q101.06 21.57 101.94 21.57L101.94 21.57Q102.39 21.57 102.91 21.49Q103.43 21.41 103.89 21.30Q104.36 21.20 104.69 21.10Q105.02 21 105.12 20.96L105.12 20.96L105.52 21.96Q105.43 22.02 105.09 22.20Q104.75 22.38 104.21 22.58Q103.66 22.77 102.93 22.92Q102.19 23.07 101.31 23.07L101.31 23.07Q100.22 23.07 99.29 22.88Q98.36 22.69 97.68 22.11Q97.00 21.54 96.61 20.48Q96.22 19.43 96.21 17.70ZM98.30 15.45L103.48 15.26Q103.45 14.26 103.22 13.70Q103.00 13.14 102.66 12.86Q102.33 12.59 101.94 12.52Q101.55 12.46 101.20 12.46L101.20 12.46Q100.44 12.46 99.92 12.63Q99.40 12.80 99.06 13.16Q98.72 13.52 98.54 14.09Q98.37 14.66 98.30 15.45L98.30 15.45ZM113.48 21.84L112.91 20.68Q113.85 19.09 114.67 17.70Q115.50 16.31 116.29 15.02Q117.08 13.72 117.88 12.48Q118.69 11.24 119.57 9.91L119.57 9.91Q119.77 9.93 120.01 10.01Q120.25 10.09 120.49 10.23Q120.74 10.37 120.97 10.57Q121.20 10.77 121.36 10.99L121.36 10.99Q120.41 12.26 119.55 13.45Q118.70 14.64 117.88 15.80Q117.07 16.97 116.28 18.15Q115.49 19.32 114.66 20.57L114.66 20.57L119.78 20.44L119.78 15.68L121.52 15.26L121.78 15.50L121.78 20.44L123.47 20.38Q123.50 20.50 123.52 20.70Q123.53 20.91 123.52 21.13Q123.52 21.35 123.50 21.55Q123.49 21.75 123.47 21.84L123.47 21.84L121.78 21.84L121.78 25.20Q121.62 25.23 121.33 25.24Q121.04 25.25 120.74 25.25Q120.43 25.24 120.16 25.23Q119.89 25.22 119.78 25.20L119.78 25.20L119.78 21.84L113.48 21.84ZM126.49 16.76L126.49 16.76Q126.49 15.45 126.88 14.29Q127.28 13.13 128.07 12.27Q128.87 11.41 130.07 10.92Q131.27 10.42 132.88 10.42L132.88 10.42Q134.50 10.42 135.57 10.90Q136.64 11.38 137.28 12.22Q137.92 13.07 138.18 14.21Q138.43 15.36 138.43 16.70L138.43 16.70Q138.43 18.04 138.02 19.20Q137.61 20.36 136.80 21.22Q135.98 22.08 134.77 22.58Q133.56 23.07 131.94 23.07L131.94 23.07Q130.32 23.07 129.27 22.58Q128.21 22.08 127.60 21.22Q126.98 20.37 126.74 19.22Q126.49 18.07 126.49 16.76ZM128.63 16.73L128.63 16.73Q128.63 18.26 128.92 19.24Q129.21 20.21 129.72 20.78Q130.23 21.34 130.93 21.55Q131.63 21.76 132.43 21.76L132.43 21.76Q133.17 21.76 133.86 21.55Q134.55 21.34 135.09 20.78Q135.63 20.21 135.96 19.24Q136.29 18.26 136.29 16.73L136.29 16.73Q136.29 15.21 135.99 14.23Q135.69 13.25 135.18 12.69Q134.66 12.13 133.95 11.92Q133.24 11.71 132.43 11.71L132.43 11.71Q131.71 11.71 131.02 11.92Q130.34 12.13 129.80 12.69Q129.27 13.25 128.95 14.23Q128.63 15.21 128.63 16.73ZM141.75 16.76L141.75 16.76Q141.75 15.45 142.14 14.29Q142.54 13.13 143.33 12.27Q144.13 11.41 145.33 10.92Q146.53 10.42 148.14 10.42L148.14 10.42Q149.75 10.42 150.83 10.90Q151.90 11.38 152.54 12.22Q153.18 13.07 153.43 14.21Q153.69 15.36 153.69 16.70L153.69 16.70Q153.69 18.04 153.28 19.20Q152.87 20.36 152.06 21.22Q151.24 22.08 150.03 22.58Q148.82 23.07 147.20 23.07L147.20 23.07Q145.58 23.07 144.53 22.58Q143.47 22.08 142.86 21.22Q142.24 20.37 142.00 19.22Q141.75 18.07 141.75 16.76ZM143.88 16.73L143.88 16.73Q143.88 18.26 144.18 19.24Q144.47 20.21 144.98 20.78Q145.49 21.34 146.19 21.55Q146.88 21.76 147.69 21.76L147.69 21.76Q148.43 21.76 149.12 21.55Q149.81 21.34 150.35 20.78Q150.89 20.21 151.22 19.24Q151.55 18.26 151.55 16.73L151.55 16.73Q151.55 15.21 151.25 14.23Q150.95 13.25 150.43 12.69Q149.92 12.13 149.21 11.92Q148.50 11.71 147.69 11.71L147.69 11.71Q146.96 11.71 146.28 11.92Q145.59 12.13 145.06 12.69Q144.53 13.25 144.21 14.23Q143.88 15.21 143.88 16.73ZM162.32 22.73L162.21 21.82Q162.64 21.69 163.13 21.60Q163.62 21.52 164.04 21.43L164.04 21.43L164.04 12.88L162.02 12.88L161.88 11.87Q162.02 11.81 162.35 11.71Q162.67 11.60 163.07 11.50Q163.48 11.40 163.89 11.33Q164.31 11.26 164.65 11.26L164.65 11.26Q165.14 11.26 165.41 11.39Q165.68 11.52 165.81 11.71Q165.94 11.89 165.97 12.12Q166.00 12.34 166.01 12.52L166.01 12.52L166.01 12.71Q167.00 11.98 167.96 11.62Q168.93 11.26 169.99 11.26L169.99 11.26Q170.92 11.26 171.54 11.43Q172.17 11.59 172.55 12.01Q172.93 12.43 173.10 13.17Q173.26 13.90 173.26 15.04L173.26 15.04L173.26 21.47L175.10 21.79Q175.13 21.86 175.13 21.95Q175.13 22.04 175.13 22.13L175.13 22.13Q175.13 22.29 175.07 22.47Q175.02 22.65 174.97 22.73L174.97 22.73L169.79 22.73L169.71 21.82Q170.13 21.69 170.51 21.62Q170.88 21.55 171.29 21.47L171.29 21.47L171.29 15.15Q171.29 14.48 171.21 14.04Q171.12 13.59 170.91 13.33Q170.70 13.07 170.36 12.96Q170.02 12.84 169.52 12.84L169.52 12.84Q169.00 12.84 168.53 12.89Q168.07 12.94 167.65 13.03Q167.23 13.13 166.83 13.27Q166.43 13.41 166.01 13.59L166.01 13.59L166.01 21.43L167.86 21.79Q167.88 21.86 167.88 21.95Q167.88 22.04 167.88 22.13L167.88 22.13Q167.88 22.29 167.84 22.47Q167.80 22.65 167.75 22.73L167.75 22.73L162.32 22.73ZM176.89 17.17L176.89 17.17Q176.89 15.94 177.24 14.87Q177.59 13.79 178.31 12.99Q179.03 12.19 180.12 11.72Q181.22 11.26 182.73 11.26L182.73 11.26Q184.24 11.26 185.20 11.72Q186.16 12.19 186.72 12.99Q187.28 13.79 187.49 14.87Q187.70 15.94 187.70 17.17L187.70 17.17Q187.70 18.40 187.35 19.47Q187.00 20.54 186.28 21.35Q185.55 22.15 184.45 22.61Q183.35 23.07 181.85 23.07L181.85 23.07Q180.34 23.07 179.38 22.61Q178.42 22.15 177.87 21.35Q177.32 20.54 177.11 19.47Q176.89 18.40 176.89 17.17ZM179.05 17.17L179.05 17.17Q179.05 18.60 179.27 19.50Q179.50 20.40 179.91 20.92Q180.33 21.43 180.93 21.63Q181.52 21.82 182.29 21.82L182.29 21.82Q182.96 21.82 183.56 21.63Q184.15 21.43 184.59 20.92Q185.03 20.40 185.28 19.50Q185.53 18.60 185.53 17.17L185.53 17.17Q185.53 15.75 185.31 14.84Q185.09 13.93 184.67 13.42Q184.25 12.90 183.65 12.71Q183.05 12.52 182.29 12.52L182.29 12.52Q181.62 12.52 181.03 12.71Q180.43 12.90 179.99 13.42Q179.55 13.93 179.30 14.84Q179.05 15.75 179.05 17.17ZM190.13 22.73L190.02 21.82Q190.46 21.67 190.96 21.59Q191.46 21.52 191.91 21.43L191.91 21.43L191.91 12.88L189.81 12.88L189.66 11.87Q189.91 11.77 190.29 11.66Q190.66 11.55 191.06 11.47Q191.45 11.38 191.82 11.32Q192.19 11.26 192.43 11.26L192.43 11.26Q192.93 11.26 193.20 11.39Q193.48 11.52 193.61 11.74Q193.75 11.95 193.77 12.25Q193.79 12.55 193.79 12.88L193.79 12.88L193.79 13.78Q193.84 13.68 193.96 13.46Q194.07 13.25 194.21 13.03Q194.34 12.80 194.48 12.59Q194.61 12.38 194.71 12.27L194.71 12.27Q195.08 11.79 195.65 11.50Q196.22 11.21 197.05 11.21L197.05 11.21Q197.13 11.21 197.27 11.22Q197.41 11.23 197.57 11.24Q197.72 11.25 197.87 11.27Q198.02 11.29 198.14 11.32L198.14 11.32Q198.15 11.46 198.16 11.68Q198.16 11.91 198.16 12.16Q198.15 12.42 198.13 12.69Q198.12 12.95 198.08 13.17L198.08 13.17Q197.88 13.14 197.59 13.10Q197.30 13.07 196.92 13.07L196.92 13.07Q196.48 13.07 196.04 13.14Q195.61 13.22 195.26 13.37L195.26 13.37Q194.81 13.56 194.50 13.88Q194.18 14.19 193.88 14.57L193.88 14.57L193.88 21.43L196.58 21.70Q196.61 21.76 196.61 21.90Q196.61 22.04 196.61 22.13L196.61 22.13Q196.61 22.29 196.59 22.47Q196.57 22.65 196.52 22.73L196.52 22.73L190.13 22.73ZM199.93 22.73L199.83 21.82Q200.26 21.67 200.74 21.59Q201.21 21.52 201.66 21.43L201.66 21.43L201.66 12.88L199.64 12.88L199.50 11.87Q199.64 11.81 199.96 11.71Q200.29 11.60 200.69 11.50Q201.09 11.40 201.51 11.33Q201.93 11.26 202.27 11.26L202.27 11.26Q202.76 11.26 203.02 11.39Q203.29 11.52 203.41 11.71Q203.53 11.89 203.55 12.12Q203.57 12.34 203.57 12.52L203.57 12.52L203.57 12.71Q204.07 12.35 204.53 12.08Q205.00 11.80 205.46 11.62Q205.92 11.44 206.40 11.35Q206.88 11.26 207.41 11.26L207.41 11.26Q208.04 11.26 208.54 11.34Q209.04 11.41 209.41 11.60Q209.78 11.78 210.02 12.08Q210.27 12.38 210.42 12.83L210.42 12.83L210.68 12.66Q211.18 12.32 211.67 12.05Q212.16 11.79 212.64 11.61Q213.12 11.44 213.62 11.35Q214.11 11.26 214.65 11.26L214.65 11.26Q215.58 11.26 216.21 11.43Q216.83 11.59 217.21 12.01Q217.59 12.43 217.76 13.17Q217.92 13.90 217.92 15.04L217.92 15.04L217.92 21.47L219.75 21.79Q219.77 21.86 219.77 21.95Q219.77 22.04 219.77 22.13L219.77 22.13Q219.77 22.29 219.73 22.47Q219.68 22.65 219.63 22.73L219.63 22.73L214.45 22.73L214.36 21.82Q214.78 21.67 215.16 21.61Q215.53 21.55 215.94 21.47L215.94 21.47L215.94 15.15Q215.94 14.53 215.85 14.09Q215.77 13.65 215.55 13.38Q215.34 13.10 215.00 12.97Q214.66 12.84 214.17 12.84L214.17 12.84Q213.64 12.84 213.21 12.89Q212.77 12.94 212.37 13.03Q211.97 13.13 211.59 13.27Q211.21 13.42 210.80 13.62L210.80 13.62L210.61 13.71Q210.68 14.30 210.68 15.04L210.68 15.04L210.68 21.47L212.51 21.79Q212.53 21.86 212.54 21.95Q212.54 22.04 212.54 22.13L212.54 22.13Q212.54 22.29 212.50 22.47Q212.45 22.65 212.40 22.73L212.40 22.73L207.22 22.73L207.14 21.82Q207.55 21.67 207.93 21.61Q208.31 21.55 208.72 21.47L208.72 21.47L208.72 15.15Q208.72 14.54 208.63 14.10Q208.55 13.66 208.34 13.38Q208.13 13.10 207.79 12.97Q207.45 12.84 206.95 12.84L206.95 12.84Q206.43 12.84 205.99 12.89Q205.55 12.94 205.15 13.03Q204.75 13.13 204.37 13.27Q203.99 13.41 203.57 13.59L203.57 13.59L203.57 21.43L205.48 21.79Q205.50 21.86 205.50 21.95Q205.50 22.04 205.50 22.13L205.50 22.13Q205.50 22.29 205.46 22.47Q205.42 22.65 205.37 22.73L205.37 22.73L199.93 22.73ZM221.34 20.36L221.34 20.12Q221.39 19.09 221.85 18.43Q222.30 17.77 223.07 17.37Q223.83 16.98 224.87 16.80Q225.90 16.63 227.13 16.56L227.13 16.56L227.93 16.50L227.93 15.28Q227.92 14.50 227.80 14.02Q227.68 13.55 227.41 13.29Q227.13 13.03 226.67 12.96Q226.21 12.88 225.53 12.88L225.53 12.88Q224.73 12.88 223.99 13.06Q223.25 13.24 222.52 13.51L222.52 13.51L222.04 12.38Q222.19 12.29 222.54 12.11Q222.90 11.93 223.42 11.74Q223.93 11.55 224.60 11.41Q225.26 11.26 226.03 11.26L226.03 11.26Q227.16 11.26 227.90 11.47Q228.64 11.68 229.08 12.16Q229.51 12.64 229.69 13.43Q229.86 14.21 229.86 15.36L229.86 15.36L229.86 21.49L232.05 21.49L232.14 22.46Q232.00 22.52 231.68 22.63Q231.36 22.73 230.98 22.83Q230.59 22.93 230.18 23.00Q229.77 23.07 229.44 23.07L229.44 23.07Q228.95 23.07 228.67 22.94Q228.40 22.80 228.26 22.61Q228.13 22.42 228.10 22.19Q228.07 21.96 228.07 21.79L228.07 21.79L228.07 21.23L228.05 21.23Q227.77 21.52 227.36 21.84Q226.96 22.17 226.46 22.44Q225.97 22.71 225.40 22.89Q224.82 23.07 224.20 23.07L224.20 23.07Q223.72 23.07 223.21 22.96Q222.70 22.85 222.29 22.55Q221.87 22.24 221.61 21.71Q221.34 21.19 221.34 20.36L221.34 20.36ZM223.36 20.10L223.36 20.10Q223.36 20.52 223.48 20.79Q223.61 21.06 223.82 21.22Q224.03 21.39 224.29 21.45Q224.55 21.52 224.84 21.52L224.84 21.52Q225.13 21.52 225.48 21.45Q225.83 21.39 226.23 21.25Q226.63 21.11 227.06 20.87Q227.48 20.64 227.93 20.30L227.93 20.30L227.93 17.53L227.02 17.61Q225.14 17.78 224.25 18.37Q223.36 18.96 223.36 20.10ZM233.31 22.73L233.20 21.82Q233.65 21.69 234.15 21.60Q234.64 21.52 235.09 21.43L235.09 21.43L235.09 5.51L232.92 5.51L232.78 4.48Q232.92 4.42 233.28 4.31Q233.64 4.21 234.06 4.11Q234.49 4.01 234.94 3.94Q235.38 3.87 235.72 3.87L235.72 3.87Q236.21 3.87 236.48 4.00Q236.75 4.14 236.88 4.33Q237.01 4.52 237.04 4.75Q237.07 4.98 237.07 5.16L237.07 5.16L237.07 21.43L239.10 21.79Q239.14 22.04 239.11 22.29Q239.07 22.54 239.02 22.73L239.02 22.73L233.31 22.73Z"/></svg>