<svg xmlns="http://www.w3.org/2000/svg" xmlns:xlink="http://www.w3.org/1999/xlink" width="360.96" height="32.448"><path fill="black" d="M18.17 3.72L18.17 20.86L12.10 20.86L5.83 8.78L5.74 8.78Q5.78 9.34 5.83 10.12Q5.88 10.90 5.92 11.69Q5.95 12.48 5.95 13.13L5.95 13.13L5.95 20.86L1.85 20.86L1.85 3.72L7.90 3.72L14.14 15.62L14.21 15.62Q14.18 15.07 14.14 14.33Q14.09 13.58 14.06 12.82Q14.04 12.05 14.04 11.47L14.04 11.47L14.04 3.72L18.17 3.72ZM34.27 14.18L34.27 14.18Q34.27 15.84 33.82 17.14Q33.36 18.43 32.50 19.31Q31.63 20.18 30.41 20.64Q29.18 21.10 27.62 21.10L27.62 21.10Q26.18 21.10 24.97 20.64Q23.76 20.18 22.88 19.31Q22.01 18.43 21.52 17.14Q21.02 15.84 21.02 14.18L21.02 14.18Q21.02 11.98 21.83 10.45Q22.63 8.93 24.12 8.14Q25.61 7.34 27.70 7.34L27.70 7.34Q29.62 7.34 31.09 8.14Q32.57 8.93 33.42 10.45Q34.27 11.98 34.27 14.18ZM25.68 14.18L25.68 14.18Q25.68 15.31 25.87 16.10Q26.06 16.90 26.51 17.29Q26.95 17.69 27.67 17.69L27.67 17.69Q28.39 17.69 28.81 17.29Q29.23 16.90 29.42 16.10Q29.62 15.31 29.62 14.18L29.62 14.18Q29.62 13.06 29.42 12.29Q29.23 11.52 28.80 11.14Q28.37 10.75 27.65 10.75L27.65 10.75Q26.62 10.75 26.15 11.62Q25.68 12.48 25.68 14.18ZM43.39 17.47L43.39 17.47Q44.02 17.47 44.53 17.34Q45.05 17.21 45.60 17.02L45.60 17.02L45.60 20.35Q44.86 20.66 44.02 20.88Q43.18 21.10 41.88 21.10L41.88 21.10Q40.58 21.10 39.61 20.69Q38.64 20.28 38.09 19.28Q37.54 18.29 37.54 16.49L37.54 16.49L37.54 11.02L35.93 11.02L35.93 9.14L37.97 7.70L39.14 4.92L42.14 4.92L42.14 7.58L45.41 7.58L45.41 11.02L42.14 11.02L42.14 16.18Q42.14 16.82 42.47 17.15Q42.79 17.47 43.39 17.47ZM60.60 14.18L60.60 14.18Q60.60 15.84 60.14 17.14Q59.69 18.43 58.82 19.31Q57.96 20.18 56.74 20.64Q55.51 21.10 53.95 21.10L53.95 21.10Q52.51 21.10 51.30 20.64Q50.09 20.18 49.21 19.31Q48.34 18.43 47.84 17.14Q47.35 15.84 47.35 14.18L47.35 14.18Q47.35 11.98 48.16 10.45Q48.96 8.93 50.45 8.14Q51.94 7.34 54.02 7.34L54.02 7.34Q55.94 7.34 57.42 8.14Q58.90 8.93 59.75 10.45Q60.60 11.98 60.60 14.18ZM52.01 14.18L52.01 14.18Q52.01 15.31 52.20 16.10Q52.39 16.90 52.84 17.29Q53.28 17.69 54 17.69L54 17.69Q54.72 17.69 55.14 17.29Q55.56 16.90 55.75 16.10Q55.94 15.31 55.94 14.18L55.94 14.18Q55.94 13.06 55.75 12.29Q55.56 11.52 55.13 11.14Q54.70 10.75 53.98 10.75L53.98 10.75Q52.94 10.75 52.48 11.62Q52.01 12.48 52.01 14.18ZM81.48 15.65L81.48 15.65Q81.48 17.04 80.77 18.29Q80.06 19.54 78.59 20.32Q77.11 21.10 74.76 21.10L74.76 21.10Q73.58 21.10 72.71 20.99Q71.83 20.88 71.06 20.64Q70.30 20.40 69.48 20.02L69.48 20.02L69.48 15.89Q70.87 16.58 72.29 16.96Q73.70 17.33 74.86 17.33L74.86 17.33Q75.55 17.33 75.98 17.16Q76.42 16.99 76.63 16.70Q76.85 16.42 76.85 16.06L76.85 16.06Q76.85 15.60 76.54 15.29Q76.22 14.98 75.55 14.64Q74.88 14.30 73.75 13.80L73.75 13.80Q72.79 13.37 72.02 12.89Q71.26 12.41 70.72 11.81Q70.18 11.21 69.89 10.40Q69.60 9.60 69.60 8.50L69.60 8.50Q69.60 6.84 70.42 5.72Q71.23 4.61 72.68 4.04Q74.14 3.48 76.06 3.48L76.06 3.48Q77.74 3.48 79.08 3.85Q80.42 4.22 81.48 4.70L81.48 4.70L80.06 8.28Q78.96 7.78 77.89 7.48Q76.82 7.18 75.91 7.18L75.91 7.18Q75.31 7.18 74.93 7.32Q74.54 7.46 74.36 7.72Q74.18 7.97 74.18 8.28L74.18 8.28Q74.18 8.69 74.50 9.00Q74.81 9.31 75.54 9.68Q76.27 10.06 77.54 10.63L77.54 10.63Q78.79 11.18 79.67 11.84Q80.54 12.50 81.01 13.40Q81.48 14.30 81.48 15.65ZM90.34 7.34L90.34 7.34Q92.86 7.34 94.27 8.59Q95.69 9.84 95.69 12.14L95.69 12.14L95.69 20.86L92.52 20.86L91.63 19.10L91.54 19.10Q90.98 19.80 90.40 20.24Q89.81 20.69 89.04 20.89Q88.27 21.10 87.17 21.10L87.17 21.10Q86.02 21.10 85.10 20.63Q84.19 20.16 83.66 19.21Q83.14 18.26 83.14 16.80L83.14 16.80Q83.14 14.66 84.61 13.63Q86.09 12.60 88.90 12.48L88.90 12.48L91.10 12.41L91.10 12.22Q91.10 11.33 90.67 10.96Q90.24 10.58 89.50 10.58L89.50 10.58Q88.70 10.58 87.74 10.86Q86.78 11.14 85.80 11.57L85.80 11.57L84.48 8.54Q85.63 7.94 87.08 7.64Q88.54 7.34 90.34 7.34ZM91.13 14.93L90.07 14.98Q88.82 15.02 88.31 15.42Q87.79 15.82 87.79 16.54L87.79 16.54Q87.79 17.21 88.15 17.53Q88.51 17.86 89.11 17.86L89.11 17.86Q89.95 17.86 90.54 17.33Q91.13 16.80 91.13 15.96L91.13 15.96L91.13 14.93ZM107.11 7.34L107.11 7.34Q109.18 7.34 110.47 8.50Q111.77 9.65 111.77 12.22L111.77 12.22L111.77 20.86L107.18 20.86L107.18 13.61Q107.18 12.29 106.80 11.62Q106.42 10.94 105.58 10.94L105.58 10.94Q104.28 10.94 103.84 12.00Q103.39 13.06 103.39 15.05L103.39 15.05L103.39 20.86L98.81 20.86L98.81 7.58L102.26 7.58L102.89 9.34L103.06 9.34Q103.49 8.71 104.08 8.27Q104.66 7.82 105.42 7.58Q106.18 7.34 107.11 7.34ZM124.75 16.78L124.75 16.78Q124.75 18.02 124.19 19.01Q123.62 19.99 122.39 20.54Q121.15 21.10 119.14 21.10L119.14 21.10Q117.72 21.10 116.60 20.94Q115.49 20.78 114.34 20.35L114.34 20.35L114.34 16.68Q115.61 17.26 116.90 17.51Q118.20 17.76 118.94 17.76L118.94 17.76Q119.71 17.76 120.07 17.59Q120.43 17.42 120.43 17.09L120.43 17.09Q120.43 16.80 120.19 16.58Q119.95 16.37 119.34 16.10Q118.73 15.84 117.60 15.38L117.60 15.38Q116.50 14.93 115.76 14.39Q115.03 13.85 114.67 13.09Q114.31 12.34 114.31 11.26L114.31 11.26Q114.31 9.31 115.81 8.33Q117.31 7.34 119.78 7.34L119.78 7.34Q121.10 7.34 122.26 7.63Q123.41 7.92 124.66 8.47L124.66 8.47L123.41 11.42Q122.42 10.97 121.42 10.70Q120.41 10.44 119.81 10.44L119.81 10.44Q119.28 10.44 118.98 10.58Q118.68 10.73 118.68 10.99L118.68 10.99Q118.68 11.23 118.88 11.42Q119.09 11.62 119.66 11.86Q120.24 12.10 121.34 12.55L121.34 12.55Q122.50 13.01 123.25 13.55Q124.01 14.09 124.38 14.84Q124.75 15.60 124.75 16.78ZM141.91 7.51L141.91 20.86L137.28 20.86L137.28 7.51L133.10 7.51L133.10 3.72L146.09 3.72L146.09 7.51L141.91 7.51ZM154.25 7.34L154.25 7.34Q156.19 7.34 157.60 8.02Q159 8.69 159.76 10.03Q160.51 11.38 160.51 13.42L160.51 13.42L160.51 15.46L152.33 15.46Q152.38 16.49 153.11 17.16Q153.84 17.83 155.23 17.83L155.23 17.83Q156.48 17.83 157.51 17.59Q158.54 17.35 159.65 16.82L159.65 16.82L159.65 20.11Q158.69 20.62 157.55 20.86Q156.41 21.10 154.68 21.10L154.68 21.10Q152.66 21.10 151.09 20.39Q149.52 19.68 148.61 18.17Q147.70 16.66 147.70 14.30L147.70 14.30Q147.70 11.90 148.52 10.37Q149.35 8.83 150.83 8.09Q152.30 7.34 154.25 7.34ZM154.42 10.46L154.42 10.46Q153.60 10.46 153.06 10.97Q152.52 11.47 152.42 12.58L152.42 12.58L156.36 12.58Q156.36 11.98 156.13 11.51Q155.90 11.04 155.47 10.75Q155.04 10.46 154.42 10.46ZM167.69 2.62L167.69 20.86L163.10 20.86L163.10 2.62L167.69 2.62ZM179.18 7.58L183.77 7.58L183.77 20.86L180.31 20.86L179.74 19.20L179.47 19.20Q179.06 19.87 178.43 20.29Q177.79 20.71 177.04 20.90Q176.28 21.10 175.46 21.10L175.46 21.10Q174.17 21.10 173.11 20.59Q172.06 20.09 171.44 19.01Q170.83 17.93 170.83 16.22L170.83 16.22L170.83 7.58L175.42 7.58L175.42 14.83Q175.42 16.13 175.79 16.80Q176.16 17.47 177 17.47L177 17.47Q177.86 17.47 178.34 17.00Q178.82 16.54 179.00 15.62Q179.18 14.71 179.18 13.39L179.18 13.39L179.18 7.58ZM191.18 7.34L191.18 7.34Q192.58 7.34 193.43 7.88Q194.28 8.42 194.81 9.22L194.81 9.22L194.90 9.22L195.24 7.58L199.20 7.58L199.20 20.88Q199.20 22.75 198.43 24.02Q197.66 25.30 196.09 25.96Q194.52 26.62 192.12 26.62L192.12 26.62Q190.51 26.62 189.29 26.45Q188.06 26.28 186.94 25.85L186.94 25.85L186.94 22.03Q188.14 22.54 189.22 22.79Q190.30 23.04 191.86 23.04L191.86 23.04Q193.25 23.04 193.93 22.54Q194.62 22.03 194.62 21.07L194.62 21.07L194.62 20.83Q194.62 20.52 194.65 20.09Q194.69 19.66 194.76 19.18L194.76 19.18L194.62 19.18Q194.16 19.97 193.32 20.53Q192.48 21.10 191.11 21.10L191.11 21.10Q189 21.10 187.68 19.34Q186.36 17.59 186.36 14.23L186.36 14.23Q186.36 10.87 187.70 9.11Q189.05 7.34 191.18 7.34ZM192.91 10.90L192.91 10.90Q192.29 10.90 191.86 11.28Q191.42 11.66 191.22 12.42Q191.02 13.18 191.02 14.30L191.02 14.30Q191.02 16.03 191.50 16.79Q191.98 17.54 192.98 17.54L192.98 17.54Q193.54 17.54 193.92 17.36Q194.30 17.18 194.53 16.84Q194.76 16.49 194.87 15.96Q194.98 15.43 194.98 14.71L194.98 14.71L194.98 14.16Q194.98 13.13 194.80 12.40Q194.62 11.66 194.17 11.28Q193.73 10.90 192.91 10.90ZM210.70 7.58L215.28 7.58L215.28 20.86L211.82 20.86L211.25 19.20L210.98 19.20Q210.58 19.87 209.94 20.29Q209.30 20.71 208.55 20.90Q207.79 21.10 206.98 21.10L206.98 21.10Q205.68 21.10 204.62 20.59Q203.57 20.09 202.96 19.01Q202.34 17.93 202.34 16.22L202.34 16.22L202.34 7.58L206.93 7.58L206.93 14.83Q206.93 16.13 207.30 16.80Q207.67 17.47 208.51 17.47L208.51 17.47Q209.38 17.47 209.86 17.00Q210.34 16.54 210.52 15.62Q210.70 14.71 210.70 13.39L210.70 13.39L210.70 7.58ZM236.69 12.34L236.69 12.34Q236.69 13.54 236.47 14.78Q236.26 16.03 235.72 17.17Q235.18 18.31 234.19 19.20Q233.21 20.09 231.66 20.62Q230.11 21.14 227.90 21.14L227.90 21.14Q227.23 21.14 226.62 21.10Q226.01 21.05 225.38 20.95L225.38 20.95L225.38 17.52Q225.98 17.62 226.61 17.68Q227.23 17.74 227.90 17.74L227.90 17.74Q229.15 17.74 229.99 17.48Q230.83 17.23 231.36 16.74Q231.89 16.25 232.16 15.56Q232.44 14.88 232.56 14.02L232.56 14.02L232.44 14.02Q232.18 14.50 231.71 14.90Q231.24 15.31 230.56 15.54Q229.87 15.77 228.96 15.77L228.96 15.77Q227.52 15.77 226.48 15.16Q225.43 14.54 224.87 13.39Q224.30 12.24 224.30 10.63L224.30 10.63Q224.30 8.86 225.05 7.60Q225.79 6.34 227.12 5.66Q228.46 4.99 230.26 4.99L230.26 4.99Q231.65 4.99 232.82 5.41Q234 5.83 234.86 6.72Q235.73 7.61 236.21 9.00Q236.69 10.39 236.69 12.34ZM230.40 8.40L230.40 8.40Q229.61 8.40 229.16 8.89Q228.72 9.38 228.72 10.42L228.72 10.42Q228.72 11.09 228.89 11.54Q229.06 12.00 229.43 12.23Q229.80 12.46 230.42 12.46L230.42 12.46Q231 12.46 231.38 12.23Q231.77 12.00 231.96 11.60Q232.15 11.21 232.15 10.73L232.15 10.73Q232.15 10.25 232.06 9.83Q231.96 9.41 231.74 9.08Q231.53 8.76 231.20 8.58Q230.88 8.40 230.40 8.40ZM250.27 13.03L250.27 13.03Q250.27 14.93 249.92 16.43Q249.58 17.93 248.83 18.98Q248.09 20.04 246.95 20.59Q245.81 21.14 244.22 21.14L244.22 21.14Q242.14 21.14 240.82 20.20Q239.50 19.25 238.86 17.45Q238.22 15.65 238.22 13.10L238.22 13.10Q238.22 10.58 238.86 8.77Q239.50 6.96 240.83 5.98Q242.16 4.99 244.27 4.99L244.27 4.99Q246.38 4.99 247.70 5.94Q249.02 6.89 249.65 8.69Q250.27 10.49 250.27 13.03ZM242.69 13.08L242.69 13.08Q242.69 14.62 242.83 15.64Q242.98 16.66 243.32 17.16Q243.67 17.66 244.25 17.66L244.25 17.66Q244.85 17.66 245.18 17.16Q245.52 16.66 245.66 15.62Q245.81 14.59 245.81 13.06L245.81 13.06Q245.81 11.50 245.66 10.49Q245.52 9.48 245.18 8.98Q244.85 8.47 244.25 8.47L244.25 8.47Q243.67 8.47 243.32 8.98Q242.98 9.48 242.83 10.50Q242.69 11.52 242.69 13.08ZM264 13.03L264 13.03Q264 14.93 263.65 16.43Q263.30 17.93 262.56 18.98Q261.82 20.04 260.68 20.59Q259.54 21.14 257.95 21.14L257.95 21.14Q255.86 21.14 254.54 20.20Q253.22 19.25 252.59 17.45Q251.95 15.65 251.95 13.10L251.95 13.10Q251.95 10.58 252.59 8.77Q253.22 6.96 254.56 5.98Q255.89 4.99 258 4.99L258 4.99Q260.11 4.99 261.43 5.94Q262.75 6.89 263.38 8.69Q264 10.49 264 13.03ZM256.42 13.08L256.42 13.08Q256.42 14.62 256.56 15.64Q256.70 16.66 257.05 17.16Q257.40 17.66 257.98 17.66L257.98 17.66Q258.58 17.66 258.91 17.16Q259.25 16.66 259.39 15.62Q259.54 14.59 259.54 13.06L259.54 13.06Q259.54 11.50 259.39 10.49Q259.25 9.48 258.91 8.98Q258.58 8.47 257.98 8.47L257.98 8.47Q257.40 8.47 257.05 8.98Q256.70 9.48 256.56 10.50Q256.42 11.52 256.42 13.08ZM281.52 7.34L281.52 7.34Q283.58 7.34 284.88 8.50Q286.18 9.65 286.18 12.22L286.18 12.22L286.18 20.86L281.59 20.86L281.59 13.61Q281.59 12.29 281.21 11.62Q280.82 10.94 279.98 10.94L279.98 10.94Q278.69 10.94 278.24 12.00Q277.80 13.06 277.80 15.05L277.80 15.05L277.80 20.86L273.22 20.86L273.22 7.58L276.67 7.58L277.30 9.34L277.46 9.34Q277.90 8.71 278.48 8.27Q279.07 7.82 279.83 7.58Q280.58 7.34 281.52 7.34ZM301.97 14.18L301.97 14.18Q301.97 15.84 301.51 17.14Q301.06 18.43 300.19 19.31Q299.33 20.18 298.10 20.64Q296.88 21.10 295.32 21.10L295.32 21.10Q293.88 21.10 292.67 20.64Q291.46 20.18 290.58 19.31Q289.70 18.43 289.21 17.14Q288.72 15.84 288.72 14.18L288.72 14.18Q288.72 11.98 289.52 10.45Q290.33 8.93 291.82 8.14Q293.30 7.34 295.39 7.34L295.39 7.34Q297.31 7.34 298.79 8.14Q300.26 8.93 301.12 10.45Q301.97 11.98 301.97 14.18ZM293.38 14.18L293.38 14.18Q293.38 15.31 293.57 16.10Q293.76 16.90 294.20 17.29Q294.65 17.69 295.37 17.69L295.37 17.69Q296.09 17.69 296.51 17.29Q296.93 16.90 297.12 16.10Q297.31 15.31 297.31 14.18L297.31 14.18Q297.31 13.06 297.12 12.29Q296.93 11.52 296.50 11.14Q296.06 10.75 295.34 10.75L295.34 10.75Q294.31 10.75 293.84 11.62Q293.38 12.48 293.38 14.18ZM312.60 7.34L312.60 7.34Q312.98 7.34 313.39 7.39Q313.80 7.44 313.99 7.49L313.99 7.49L313.58 11.81Q313.34 11.76 313.00 11.71Q312.65 11.66 312.02 11.66L312.02 11.66Q311.59 11.66 311.10 11.75Q310.61 11.83 310.16 12.10Q309.72 12.36 309.44 12.89Q309.17 13.42 309.17 14.33L309.17 14.33L309.17 20.86L304.58 20.86L304.58 7.58L307.99 7.58L308.71 9.70L308.93 9.70Q309.29 9.05 309.86 8.51Q310.44 7.97 311.15 7.66Q311.86 7.34 312.60 7.34ZM332.04 7.34L332.04 7.34Q334.32 7.34 335.52 8.50Q336.72 9.65 336.72 12.22L336.72 12.22L336.72 20.86L332.14 20.86L332.14 13.63Q332.14 12.12 331.73 11.53Q331.32 10.94 330.53 10.94L330.53 10.94Q329.42 10.94 328.99 11.92Q328.56 12.89 328.56 14.66L328.56 14.66L328.56 20.86L323.98 20.86L323.98 13.63Q323.98 12.67 323.81 12.08Q323.64 11.50 323.30 11.22Q322.97 10.94 322.44 10.94L322.44 10.94Q321.65 10.94 321.20 11.42Q320.76 11.90 320.59 12.82Q320.42 13.73 320.42 15.05L320.42 15.05L320.42 20.86L315.84 20.86L315.84 7.58L319.30 7.58L319.97 9.22L320.09 9.22Q320.45 8.66 321 8.24Q321.55 7.82 322.32 7.58Q323.09 7.34 324.07 7.34L324.07 7.34Q325.54 7.34 326.48 7.84Q327.43 8.33 328.03 9.19L328.03 9.19L328.18 9.19Q328.80 8.30 329.80 7.82Q330.79 7.34 332.04 7.34ZM346.32 7.34L346.32 7.34Q348.84 7.34 350.26 8.59Q351.67 9.84 351.67 12.14L351.67 12.14L351.67 20.86L348.50 20.86L347.62 19.10L347.52 19.10Q346.97 19.80 346.38 20.24Q345.79 20.69 345.02 20.89Q344.26 21.10 343.15 21.10L343.15 21.10Q342 21.10 341.09 20.63Q340.18 20.16 339.65 19.21Q339.12 18.26 339.12 16.80L339.12 16.80Q339.12 14.66 340.60 13.63Q342.07 12.60 344.88 12.48L344.88 12.48L347.09 12.41L347.09 12.22Q347.09 11.33 346.66 10.96Q346.22 10.58 345.48 10.58L345.48 10.58Q344.69 10.58 343.73 10.86Q342.77 11.14 341.78 11.57L341.78 11.57L340.46 8.54Q341.62 7.94 343.07 7.64Q344.52 7.34 346.32 7.34ZM347.11 14.93L346.06 14.98Q344.81 15.02 344.29 15.42Q343.78 15.82 343.78 16.54L343.78 16.54Q343.78 17.21 344.14 17.53Q344.50 17.86 345.10 17.86L345.10 17.86Q345.94 17.86 346.52 17.33Q347.11 16.80 347.11 15.96L347.11 15.96L347.11 14.93ZM359.38 2.62L359.38 20.86L354.79 20.86L354.79 2.62L359.38 2.62Z"/></svg>