<svg xmlns="http://www.w3.org/2000/svg" xmlns:xlink="http://www.w3.org/1999/xlink" width="429.23999999999995" height="34.752"><path fill="black" d="M3.79 29.66L3.79 29.66Q3.07 29.78 2.93 29.09L2.93 29.09Q2.40 26.42 2.16 23.89Q1.92 21.36 1.92 18.67L1.92 18.67Q1.92 17.21 1.98 15.67Q2.04 14.14 2.14 12.48L2.14 12.48Q2.14 12.10 2.40 11.93Q2.66 11.76 2.90 11.81L2.90 11.81Q3.22 11.83 3.42 12.04Q3.62 12.24 3.58 12.58L3.58 12.58Q3.53 13.37 3.48 14.57Q3.43 15.77 3.40 17.03Q3.36 18.29 3.36 19.25L3.36 19.25Q3.36 19.56 3.36 19.85Q3.36 20.14 3.38 20.33L3.38 20.33L16.27 20.33Q16.68 20.33 16.84 20.56Q16.99 20.78 16.99 21.05L16.99 21.05Q16.99 21.36 16.80 21.56Q16.61 21.77 16.27 21.77L16.27 21.77L3.46 21.77Q3.58 23.52 3.80 25.43Q4.03 27.34 4.34 28.80L4.34 28.80Q4.42 29.16 4.22 29.38Q4.03 29.59 3.79 29.66ZM17.95 29.66L17.95 29.66Q17.66 29.62 17.45 29.40Q17.23 29.18 17.30 28.87L17.30 28.87Q17.52 26.21 17.62 23.42Q17.71 20.64 17.71 17.59L17.71 17.59Q17.71 16.44 17.70 15.24Q17.69 14.04 17.66 12.79L17.66 12.79Q17.66 12.43 17.90 12.25Q18.14 12.07 18.38 12.05L18.38 12.05Q18.70 12.05 18.90 12.24Q19.10 12.43 19.10 12.77L19.10 12.77Q19.13 14.02 19.14 15.23Q19.15 16.44 19.15 17.57L19.15 17.57Q19.15 20.64 19.06 23.44Q18.96 26.23 18.72 28.99L18.72 28.99Q18.72 29.38 18.47 29.52Q18.22 29.66 17.95 29.66ZM30.24 29.78L30.24 29.78Q30.05 29.81 29.84 29.81Q29.64 29.81 29.45 29.81L29.45 29.81Q27.31 29.81 25.63 28.91Q23.95 28.01 22.99 26.42Q22.03 24.84 22.03 22.80L22.03 22.80Q22.03 20.88 22.79 19.26Q23.54 17.64 24.94 16.56Q26.33 15.48 28.22 15.19L28.22 15.19Q28.49 15.14 28.80 15.12Q29.11 15.10 29.42 15.10L29.42 15.10Q30.72 15.10 32.12 15.44Q33.53 15.79 34.49 16.42L34.49 16.42Q34.61 16.15 34.87 16.09Q35.14 16.03 35.30 16.08L35.30 16.08Q35.57 16.10 35.71 16.32Q35.86 16.54 35.86 16.82L35.86 16.82Q35.83 17.38 35.82 17.90Q35.81 18.43 35.81 18.96L35.81 18.96Q35.81 21.65 36.20 23.74Q36.60 25.82 37.70 27.38L37.70 27.38Q37.85 27.60 37.85 27.82L37.85 27.82Q37.85 28.10 37.62 28.30Q37.39 28.49 37.13 28.49L37.13 28.49Q36.77 28.49 36.53 28.18L36.53 28.18Q36.29 27.84 36.06 27.43Q35.83 27.02 35.69 26.71L35.69 26.71Q34.70 28.08 33.29 28.84Q31.87 29.59 30.24 29.78ZM29.76 28.39L29.76 28.39Q31.39 28.39 32.77 27.48Q34.15 26.57 35.02 24.98L35.02 24.98Q34.66 23.64 34.49 21.86Q34.32 20.09 34.34 18.17L34.34 18.17Q33.86 17.64 33.07 17.28Q32.28 16.92 31.34 16.73Q30.41 16.54 29.50 16.54L29.50 16.54Q28.90 16.54 28.37 16.61Q27.84 16.68 27.38 16.87L27.38 16.87Q25.56 17.54 24.49 19.12Q23.42 20.69 23.42 22.70L23.42 22.70Q23.42 24.48 24.28 25.75Q25.13 27.02 26.57 27.71Q28.01 28.39 29.76 28.39ZM45 29.71L45 29.71Q43.32 29.18 42.14 28.12Q40.97 27.05 40.37 25.64Q39.77 24.24 39.77 22.68L39.77 22.68Q39.77 20.98 40.48 19.32Q41.18 17.66 42.48 16.63L42.48 16.63Q43.51 15.77 45 15.32Q46.49 14.88 48.02 14.88L48.02 14.88Q49.51 14.88 50.88 15.29Q52.25 15.70 53.18 16.54L53.18 16.54Q53.45 16.80 53.45 17.09L53.45 17.09Q53.45 17.30 53.23 17.57L53.23 17.57Q52.99 17.81 52.70 17.81L52.70 17.81Q52.42 17.81 52.20 17.59L52.20 17.59Q51.58 16.97 50.35 16.64Q49.13 16.32 47.86 16.32L47.86 16.32Q46.97 16.32 46.14 16.48Q45.31 16.63 44.71 16.94L44.71 16.94Q43.03 17.76 42.13 19.33Q41.23 20.90 41.23 22.68L41.23 22.68Q41.23 24.50 42.28 26.03Q43.32 27.55 45.22 28.22L45.22 28.22Q46.44 28.66 47.71 28.66L47.71 28.66Q48.98 28.66 50.20 28.24Q51.41 27.82 52.30 27.05L52.30 27.05Q52.56 26.86 52.80 26.86L52.80 26.86Q53.11 26.86 53.35 27.10L53.35 27.10Q53.54 27.36 53.54 27.60L53.54 27.60Q53.54 27.89 53.28 28.10L53.28 28.10Q52.13 29.11 50.69 29.62Q49.25 30.12 47.74 30.12L47.74 30.12Q46.37 30.12 45 29.71ZM57.67 29.83L57.67 29.83Q57 29.83 56.86 29.18L56.86 29.18Q56.62 28.06 56.52 26.35Q56.42 24.65 56.42 22.70L56.42 22.70Q56.42 20.95 56.50 19.16Q56.57 17.38 56.70 15.77Q56.83 14.16 57 12.98L57 12.98Q57.05 12.60 57.30 12.46Q57.55 12.31 57.79 12.36L57.79 12.36Q58.10 12.38 58.30 12.60Q58.49 12.82 58.44 13.15L58.44 13.15Q58.34 13.97 58.25 15.08Q58.15 16.20 58.07 17.41Q57.98 18.62 57.94 19.73Q57.89 20.83 57.89 21.62L57.89 21.62Q58.68 19.94 60.13 18.91Q61.58 17.88 63.36 17.88L63.36 17.88Q65.66 17.90 67.21 18.88Q68.76 19.85 69.53 21.56Q70.30 23.28 70.30 25.54L70.30 25.54Q70.30 27.43 69.82 29.23L69.82 29.23Q69.65 29.78 69.14 29.78L69.14 29.78Q68.81 29.78 68.57 29.53Q68.33 29.28 68.42 28.90L68.42 28.90Q68.83 27.34 68.83 25.75L68.83 25.75Q68.83 22.97 67.52 21.25Q66.22 19.54 63.55 19.49L63.55 19.49Q62.09 19.49 61.04 20.28Q60 21.07 59.35 22.34L59.35 22.34Q58.75 23.54 58.46 24.74Q58.18 25.94 58.18 27.24L58.18 27.24Q58.18 27.65 58.21 28.09Q58.25 28.54 58.30 28.99L58.30 28.99Q58.34 29.38 58.13 29.58Q57.91 29.78 57.67 29.83ZM75.62 20.64L75.62 20.64Q74.09 20.64 73.15 19.68Q72.22 18.72 72.22 17.33L72.22 17.33Q72.22 15.84 73.15 14.93Q74.09 14.02 75.62 14.02L75.62 14.02Q76.63 14.02 77.40 14.46Q78.17 14.90 78.59 15.65Q79.01 16.39 79.01 17.33L79.01 17.33Q79.01 18.26 78.58 19.01Q78.14 19.75 77.38 20.20Q76.61 20.64 75.62 20.64ZM75.62 19.20L75.62 19.20Q76.58 19.20 77.09 18.67Q77.59 18.14 77.59 17.33L77.59 17.33Q77.59 16.44 77.06 15.95Q76.54 15.46 75.62 15.46L75.62 15.46Q74.66 15.46 74.16 15.97Q73.66 16.49 73.66 17.33L73.66 17.33Q73.66 18.19 74.18 18.70Q74.71 19.20 75.62 19.20ZM75.62 29.47L75.62 29.47Q75.24 29.47 75.07 29.27Q74.90 29.06 74.88 28.80L74.88 28.80Q74.81 27.02 74.81 25.15L74.81 25.15Q74.81 23.57 74.88 22.20L74.88 22.20Q74.90 21.82 75.16 21.66Q75.41 21.50 75.65 21.55L75.65 21.55Q75.94 21.55 76.13 21.77Q76.32 21.98 76.32 22.32L76.32 22.32Q76.27 22.56 76.25 23.35Q76.22 24.14 76.22 25.10L76.22 25.10Q76.22 25.87 76.24 26.63Q76.25 27.38 76.27 27.94Q76.30 28.49 76.32 28.68L76.32 28.68Q76.32 29.09 76.10 29.28Q75.89 29.47 75.62 29.47ZM113.54 29.40L113.54 29.40Q113.38 29.40 113.30 29.35L113.30 29.35Q112.80 29.16 112.80 28.70L112.80 28.70Q112.80 28.66 112.81 28.58Q112.82 28.51 112.85 28.44L112.85 28.44Q113.54 26.38 114.00 24.17Q114.46 21.96 114.46 19.99L114.46 19.99Q114.46 19.78 114.46 19.56Q114.46 19.34 114.43 19.15L114.43 19.15Q114.36 17.78 113.94 16.63Q113.52 15.48 112.79 14.72Q112.06 13.97 111.00 13.85L111.00 13.85Q110.04 13.75 109.24 14.21Q108.43 14.66 107.89 15.49Q107.35 16.32 107.14 17.38L107.14 17.38Q107.06 17.71 106.86 17.88Q106.66 18.05 106.44 18.02L106.44 18.02Q106.18 18.02 105.97 17.81Q105.77 17.59 105.72 17.28L105.72 17.28Q105.46 16.13 104.87 15.20Q104.28 14.28 103.48 13.74Q102.67 13.20 101.69 13.20L101.69 13.20Q100.54 13.20 99.73 13.99Q98.93 14.78 98.47 16.02Q98.02 17.26 97.87 18.58L97.87 18.58Q97.82 18.98 97.80 19.40Q97.78 19.82 97.78 20.28L97.78 20.28Q97.78 22.18 98.17 24.29Q98.57 26.40 99.17 28.46L99.17 28.46Q99.19 28.54 99.20 28.60Q99.22 28.66 99.22 28.70L99.22 28.70Q99.22 28.97 99.05 29.14Q98.88 29.30 98.69 29.35L98.69 29.35Q98.64 29.38 98.57 29.38Q98.50 29.38 98.45 29.38L98.45 29.38Q97.99 29.38 97.80 28.87L97.80 28.87Q97.13 26.74 96.71 24.47Q96.29 22.20 96.29 20.11L96.29 20.11Q96.29 19.58 96.32 19.08Q96.36 18.58 96.41 18.12L96.41 18.12Q96.58 16.58 97.16 15.20Q97.75 13.82 98.72 12.89Q99.70 11.95 100.97 11.78L100.97 11.78Q101.38 11.71 101.78 11.71L101.78 11.71Q103.34 11.71 104.63 12.62Q105.91 13.54 106.58 14.95L106.58 14.95Q107.21 13.63 108.34 12.92Q109.46 12.22 110.71 12.22L110.71 12.22Q111.94 12.22 113.08 12.92Q114.22 13.63 115.00 15.11Q115.78 16.58 115.90 18.94L115.90 18.94Q115.92 19.15 115.92 19.38Q115.92 19.61 115.92 19.85L115.92 19.85Q115.92 21.98 115.44 24.38Q114.96 26.78 114.19 28.92L114.19 28.92Q114.12 29.16 113.93 29.28Q113.74 29.40 113.54 29.40ZM127.01 29.78L127.01 29.78Q126.82 29.81 126.61 29.81Q126.41 29.81 126.22 29.81L126.22 29.81Q124.08 29.81 122.40 28.91Q120.72 28.01 119.76 26.42Q118.80 24.84 118.80 22.80L118.80 22.80Q118.80 20.88 119.56 19.26Q120.31 17.64 121.70 16.56Q123.10 15.48 124.99 15.19L124.99 15.19Q125.26 15.14 125.57 15.12Q125.88 15.10 126.19 15.10L126.19 15.10Q127.49 15.10 128.89 15.44Q130.30 15.79 131.26 16.42L131.26 16.42Q131.38 16.15 131.64 16.09Q131.90 16.03 132.07 16.08L132.07 16.08Q132.34 16.10 132.48 16.32Q132.62 16.54 132.62 16.82L132.62 16.82Q132.60 17.38 132.59 17.90Q132.58 18.43 132.58 18.96L132.58 18.96Q132.58 21.65 132.97 23.74Q133.37 25.82 134.47 27.38L134.47 27.38Q134.62 27.60 134.62 27.82L134.62 27.82Q134.62 28.10 134.39 28.30Q134.16 28.49 133.90 28.49L133.90 28.49Q133.54 28.49 133.30 28.18L133.30 28.18Q133.06 27.84 132.83 27.43Q132.60 27.02 132.46 26.71L132.46 26.71Q131.47 28.08 130.06 28.84Q128.64 29.59 127.01 29.78ZM126.53 28.39L126.53 28.39Q128.16 28.39 129.54 27.48Q130.92 26.57 131.78 24.98L131.78 24.98Q131.42 23.64 131.26 21.86Q131.09 20.09 131.11 18.17L131.11 18.17Q130.63 17.64 129.84 17.28Q129.05 16.92 128.11 16.73Q127.18 16.54 126.26 16.54L126.26 16.54Q125.66 16.54 125.14 16.61Q124.61 16.68 124.15 16.87L124.15 16.87Q122.33 17.54 121.26 19.12Q120.19 20.69 120.19 22.70L120.19 22.70Q120.19 24.48 121.04 25.75Q121.90 27.02 123.34 27.71Q124.78 28.39 126.53 28.39ZM139.99 29.47L139.99 29.47Q139.68 29.47 139.48 29.27Q139.27 29.06 139.27 28.75L139.27 28.75Q139.20 27.43 139.04 25.90Q138.89 24.36 138.66 22.76Q138.43 21.17 138.14 19.72Q137.86 18.26 137.54 17.14L137.54 17.14Q137.50 16.94 137.50 16.87L137.50 16.87Q137.50 16.56 137.72 16.39Q137.95 16.22 138.22 16.22L138.22 16.22Q138.46 16.22 138.66 16.36Q138.86 16.49 138.94 16.73L138.94 16.73Q139.20 17.57 139.44 18.72Q139.68 19.87 139.87 21.04Q140.06 22.20 140.16 23.09L140.16 23.09Q140.62 21.19 141.71 19.81Q142.80 18.43 144.37 17.69Q145.94 16.94 147.79 16.94L147.79 16.94Q149.30 16.94 150.84 17.50L150.84 17.50Q151.32 17.71 151.32 18.14L151.32 18.14Q151.32 18.86 150.62 18.86L150.62 18.86Q150.46 18.86 150.36 18.84L150.36 18.84Q149.21 18.46 147.84 18.46L147.84 18.46Q145.87 18.46 144.53 19.25Q143.18 20.04 142.36 21.46Q141.53 22.87 141.14 24.72Q140.76 26.57 140.71 28.70L140.71 28.70Q140.71 29.09 140.48 29.28Q140.26 29.47 139.99 29.47ZM167.47 29.47L167.47 29.47Q167.28 29.47 167.09 29.36Q166.90 29.26 166.80 29.02L166.80 29.02Q166.42 28.13 166.20 27.07Q165.98 26.02 165.86 25.06L165.86 25.06Q165.34 26.26 164.45 27.23Q163.56 28.20 162.43 28.78Q161.30 29.35 160.01 29.42L160.01 29.42Q157.56 29.54 156.01 28.64Q154.46 27.74 153.73 26.10Q153 24.46 153 22.39L153 22.39Q153 20.90 153.34 19.31Q153.67 17.71 154.30 16.10L154.30 16.10Q154.46 15.65 154.94 15.65L154.94 15.65Q155.28 15.65 155.50 15.84Q155.71 16.03 155.71 16.32L155.71 16.32Q155.71 16.44 155.64 16.63L155.64 16.63Q155.04 18.17 154.72 19.66Q154.39 21.14 154.39 22.49L154.39 22.49Q154.39 24.10 154.92 25.37Q155.45 26.64 156.58 27.35Q157.70 28.06 159.50 27.98L159.50 27.98Q161.28 27.91 162.66 26.81Q164.04 25.70 164.83 23.77Q165.62 21.84 165.62 19.37L165.62 19.37Q165.62 18.94 165.59 18.48Q165.55 18.02 165.50 17.57L165.50 17.57Q165.46 17.16 165.71 17.02Q165.96 16.87 166.22 16.87L166.22 16.87Q166.56 16.90 166.79 17.10Q167.02 17.30 167.02 17.64L167.02 17.64Q167.02 18.60 167.08 19.82Q167.14 21.05 167.24 22.37Q167.35 23.69 167.50 24.91Q167.64 26.14 167.83 27.08Q168.02 28.03 168.26 28.51L168.26 28.51Q168.31 28.58 168.31 28.66Q168.31 28.73 168.31 28.80L168.31 28.80Q168.31 29.11 168.05 29.29Q167.78 29.47 167.47 29.47ZM186.86 29.59L186.86 29.59Q186.55 29.59 186.35 29.41Q186.14 29.23 186.14 28.90L186.14 28.90L185.59 12.55Q185.59 11.81 186.36 11.81L186.36 11.81Q186.86 11.81 187.01 12.31L187.01 12.31Q189.82 11.18 192.05 11.04L192.05 11.04Q192.31 11.02 192.59 11.00Q192.86 10.99 193.13 10.99L193.13 10.99Q195.77 10.99 197.84 12.05Q199.92 13.10 201.07 15.24L201.07 15.24Q201.96 16.97 201.96 18.77L201.96 18.77Q201.96 20.06 201.49 21.29Q201.02 22.51 200.11 23.54L200.11 23.54Q198.79 25.06 196.82 25.70Q194.86 26.35 192.65 26.35L192.65 26.35Q191.52 26.35 190.38 26.20Q189.24 26.04 188.11 25.78L188.11 25.78Q187.82 25.73 187.69 25.52Q187.56 25.32 187.56 25.13L187.56 25.13Q187.56 25.03 187.61 24.89L187.61 24.89Q187.75 24.36 188.35 24.36L188.35 24.36Q188.45 24.36 188.52 24.37Q188.59 24.38 188.69 24.41L188.69 24.41Q189.74 24.70 190.85 24.85Q191.95 25.01 192.98 25.01L192.98 25.01Q194.81 25.01 196.39 24.48Q197.98 23.95 199.08 22.73L199.08 22.73Q200.62 20.98 200.62 18.79L200.62 18.79Q200.62 17.16 199.75 15.70L199.75 15.70Q198.72 13.99 197.00 13.18Q195.29 12.36 193.22 12.36L193.22 12.36Q192.84 12.36 192.42 12.40Q192 12.43 191.59 12.48L191.59 12.48Q189.55 12.74 187.08 13.85L187.08 13.85L187.58 28.85Q187.58 29.23 187.36 29.41Q187.13 29.59 186.86 29.59ZM211.54 29.93L211.54 29.93Q209.21 29.93 207.49 28.97Q205.78 28.01 204.83 26.32Q203.88 24.62 203.88 22.39L203.88 22.39Q203.88 20.09 204.82 18.40Q205.75 16.70 207.47 15.77Q209.18 14.83 211.54 14.83L211.54 14.83Q213.94 14.83 215.65 15.76Q217.37 16.68 218.28 18.37Q219.19 20.06 219.19 22.39L219.19 22.39Q219.19 24.67 218.26 26.38Q217.32 28.08 215.60 29.00Q213.89 29.93 211.54 29.93ZM211.54 28.42L211.54 28.42Q214.49 28.42 216.08 26.81Q217.68 25.20 217.68 22.39L217.68 22.39Q217.68 19.46 216.02 17.90Q214.37 16.34 211.54 16.34L211.54 16.34Q208.70 16.34 207.05 17.95Q205.39 19.56 205.39 22.39L205.39 22.39Q205.39 24.26 206.18 25.61Q206.98 26.95 208.37 27.68Q209.76 28.42 211.54 28.42ZM223.22 32.35L223.22 32.35Q222.98 32.35 222.77 32.18Q222.55 32.02 222.55 31.70L222.55 31.70Q222.36 28.94 222.22 26.44Q222.07 23.93 222.07 21.65L222.07 21.65Q222.07 20.16 222.14 18.76Q222.22 17.35 222.38 16.03L222.38 16.03Q222.43 15.65 222.68 15.50Q222.94 15.36 223.18 15.41L223.18 15.41Q223.49 15.43 223.67 15.65Q223.85 15.86 223.80 16.20L223.80 16.20Q223.66 17.30 223.58 19.10Q223.51 20.90 223.51 22.75L223.51 22.75Q223.51 24.05 223.55 25.22Q223.58 26.40 223.68 27.19L223.68 27.19Q224.83 27.58 225.98 27.82Q227.14 28.06 228.24 28.06L228.24 28.06Q230.04 28.06 231.49 27.37Q232.94 26.69 233.78 25.40Q234.62 24.12 234.62 22.34L234.62 22.34Q234.62 20.64 233.86 19.37Q233.09 18.10 231.78 17.39Q230.47 16.68 228.84 16.68L228.84 16.68Q227.88 16.68 226.90 16.93Q225.91 17.18 225.05 17.59L225.05 17.59Q224.88 17.69 224.66 17.69L224.66 17.69Q224.26 17.69 224.09 17.30L224.09 17.30Q223.99 17.14 223.99 16.94L223.99 16.94Q223.99 16.58 224.38 16.32L224.38 16.32Q225.29 15.82 226.49 15.56Q227.69 15.31 228.91 15.31L228.91 15.31Q231.05 15.31 232.68 16.24Q234.31 17.16 235.24 18.74Q236.16 20.33 236.16 22.34L236.16 22.34Q236.16 24.55 235.06 26.16Q233.95 27.77 232.07 28.63Q230.18 29.50 227.86 29.50L227.86 29.50Q225.74 29.50 223.78 28.73L223.78 28.73L223.97 31.58Q224.02 31.99 223.75 32.17Q223.49 32.35 223.22 32.35ZM264.24 30.77L264.24 30.77Q263.93 30.72 263.74 30.52Q263.54 30.31 263.57 30L263.57 30L263.71 27.07Q263.14 27.10 262.60 27.10Q262.06 27.10 261.50 27.10L261.50 27.10Q260.26 27.10 259.12 27.04Q257.98 26.98 256.92 26.83L256.92 26.83Q254.64 26.45 253.56 25.56Q252.48 24.67 252.48 23.16L252.48 23.16Q252.48 21.82 253.32 19.85L253.32 19.85Q254.28 17.57 255.95 15.35Q257.62 13.13 259.56 10.92L259.56 10.92Q259.78 10.68 260.06 10.68L260.06 10.68Q260.38 10.68 260.59 10.90L260.59 10.90Q260.86 11.14 260.86 11.38L260.86 11.38Q260.86 11.69 260.62 11.88L260.62 11.88Q259.78 12.62 258.86 13.72Q257.95 14.81 257.09 16.04Q256.22 17.28 255.53 18.53Q254.83 19.78 254.40 20.83L254.40 20.83Q253.85 22.20 253.85 23.04L253.85 23.04Q253.85 23.83 254.33 24.34Q254.81 24.84 255.86 25.18L255.86 25.18Q256.87 25.49 258.29 25.62Q259.70 25.75 261.14 25.75L261.14 25.75Q261.84 25.75 262.51 25.73Q263.18 25.70 263.78 25.66L263.78 25.66L264.24 16.54Q264.29 16.13 264.52 15.98Q264.74 15.84 265.01 15.84L265.01 15.84Q265.42 15.89 265.55 16.10Q265.68 16.32 265.68 16.61L265.68 16.61L265.22 25.54Q265.68 25.51 265.94 25.49Q266.21 25.46 266.48 25.42Q266.76 25.37 267.26 25.28Q267.77 25.20 268.73 25.06L268.73 25.06Q269.09 24.98 269.32 25.19Q269.54 25.39 269.57 25.63L269.57 25.63Q269.69 26.33 268.99 26.47L268.99 26.47Q268.42 26.57 268.12 26.62Q267.82 26.66 267.61 26.69Q267.41 26.71 267.16 26.75Q266.90 26.78 266.45 26.83Q265.99 26.88 265.15 26.98L265.15 26.98L265.01 30.07Q264.98 30.46 264.74 30.61Q264.50 30.77 264.24 30.77ZM279.94 30.22L279.94 30.22Q277.13 30.22 275.20 28.94Q273.26 27.67 272.27 25.46Q271.27 23.26 271.27 20.45L271.27 20.45Q271.27 17.52 272.23 15.31Q273.19 13.10 275.11 11.88Q277.03 10.66 279.94 10.66L279.94 10.66Q282.86 10.66 284.78 11.89Q286.70 13.13 287.65 15.34Q288.60 17.54 288.60 20.45L288.60 20.45Q288.60 23.30 287.56 25.51Q286.51 27.72 284.58 28.97Q282.65 30.22 279.94 30.22ZM279.94 28.78L279.94 28.78Q282.29 28.78 283.90 27.71Q285.50 26.64 286.33 24.76Q287.16 22.87 287.16 20.45L287.16 20.45Q287.16 17.93 286.39 16.04Q285.62 14.16 284.03 13.13Q282.43 12.10 279.94 12.10L279.94 12.10Q277.49 12.10 275.89 13.12Q274.30 14.14 273.50 16.01Q272.71 17.88 272.71 20.45L272.71 20.45Q272.71 22.92 273.53 24.79Q274.34 26.66 275.95 27.72Q277.56 28.78 279.94 28.78ZM299.18 30.22L299.18 30.22Q296.38 30.22 294.44 28.94Q292.51 27.67 291.52 25.46Q290.52 23.26 290.52 20.45L290.52 20.45Q290.52 17.52 291.48 15.31Q292.44 13.10 294.36 11.88Q296.28 10.66 299.18 10.66L299.18 10.66Q302.11 10.66 304.03 11.89Q305.95 13.13 306.90 15.34Q307.85 17.54 307.85 20.45L307.85 20.45Q307.85 23.30 306.80 25.51Q305.76 27.72 303.83 28.97Q301.90 30.22 299.18 30.22ZM299.18 28.78L299.18 28.78Q301.54 28.78 303.14 27.71Q304.75 26.64 305.58 24.76Q306.41 22.87 306.41 20.45L306.41 20.45Q306.41 17.93 305.64 16.04Q304.87 14.16 303.28 13.13Q301.68 12.10 299.18 12.10L299.18 12.10Q296.74 12.10 295.14 13.12Q293.54 14.14 292.75 16.01Q291.96 17.88 291.96 20.45L291.96 20.45Q291.96 22.92 292.78 24.79Q293.59 26.66 295.20 27.72Q296.81 28.78 299.18 28.78ZM337.94 29.62L337.94 29.62Q337.63 29.62 337.40 29.41Q337.18 29.21 337.18 28.90L337.18 28.90Q337.18 28.80 337.22 28.66L337.22 28.66Q337.63 27.38 337.88 25.98Q338.14 24.58 338.14 23.28L338.14 23.28Q338.14 20.71 337.07 19.19Q336.00 17.66 333.70 17.50L333.70 17.50Q331.97 17.42 330.72 18.36Q329.47 19.30 328.63 20.83L328.63 20.83Q327.89 22.25 327.52 24.05Q327.14 25.85 327.14 27.55L327.14 27.55Q327.14 27.79 327.14 28.04Q327.14 28.30 327.17 28.54L327.17 28.54Q327.17 28.97 326.92 29.15Q326.66 29.33 326.40 29.33L326.40 29.33Q325.80 29.33 325.73 28.63L325.73 28.63Q325.56 27.12 325.43 25.26Q325.30 23.40 325.21 21.52Q325.13 19.63 325.13 18.05L325.13 18.05Q325.13 17.59 325.13 17.18Q325.13 16.78 325.15 16.42L325.15 16.42Q325.15 16.01 325.40 15.84Q325.66 15.67 325.90 15.72L325.90 15.72Q326.18 15.72 326.39 15.91Q326.59 16.10 326.59 16.44L326.59 16.44Q326.62 17.38 326.62 18.07Q326.62 18.77 326.63 19.51Q326.64 20.26 326.64 21.41L326.64 21.41Q327.14 19.78 328.14 18.53Q329.14 17.28 330.48 16.57Q331.82 15.86 333.36 15.86L333.36 15.86Q335.35 15.86 336.76 16.75Q338.16 17.64 338.90 19.24Q339.65 20.83 339.65 22.92L339.65 22.92Q339.65 24.53 339.36 26.04Q339.07 27.55 338.59 29.11L338.59 29.11Q338.52 29.38 338.34 29.50Q338.16 29.62 337.94 29.62ZM350.18 29.93L350.18 29.93Q347.86 29.93 346.14 28.97Q344.42 28.01 343.48 26.32Q342.53 24.62 342.53 22.39L342.53 22.39Q342.53 20.09 343.46 18.40Q344.40 16.70 346.12 15.77Q347.83 14.83 350.18 14.83L350.18 14.83Q352.58 14.83 354.30 15.76Q356.02 16.68 356.93 18.37Q357.84 20.06 357.84 22.39L357.84 22.39Q357.84 24.67 356.90 26.38Q355.97 28.08 354.25 29.00Q352.54 29.93 350.18 29.93ZM350.18 28.42L350.18 28.42Q353.14 28.42 354.73 26.81Q356.33 25.20 356.33 22.39L356.33 22.39Q356.33 19.46 354.67 17.90Q353.02 16.34 350.18 16.34L350.18 16.34Q347.35 16.34 345.70 17.95Q344.04 19.56 344.04 22.39L344.04 22.39Q344.04 24.26 344.83 25.61Q345.62 26.95 347.02 27.68Q348.41 28.42 350.18 28.42ZM363.22 29.47L363.22 29.47Q362.90 29.47 362.70 29.27Q362.50 29.06 362.50 28.75L362.50 28.75Q362.42 27.43 362.27 25.90Q362.11 24.36 361.88 22.76Q361.66 21.17 361.37 19.72Q361.08 18.26 360.77 17.14L360.77 17.14Q360.72 16.94 360.72 16.87L360.72 16.87Q360.72 16.56 360.95 16.39Q361.18 16.22 361.44 16.22L361.44 16.22Q361.68 16.22 361.88 16.36Q362.09 16.49 362.16 16.73L362.16 16.73Q362.42 17.57 362.66 18.72Q362.90 19.87 363.10 21.04Q363.29 22.20 363.38 23.09L363.38 23.09Q363.84 21.19 364.93 19.81Q366.02 18.43 367.60 17.69Q369.17 16.94 371.02 16.94L371.02 16.94Q372.53 16.94 374.06 17.50L374.06 17.50Q374.54 17.71 374.54 18.14L374.54 18.14Q374.54 18.86 373.85 18.86L373.85 18.86Q373.68 18.86 373.58 18.84L373.58 18.84Q372.43 18.46 371.06 18.46L371.06 18.46Q369.10 18.46 367.75 19.25Q366.41 20.04 365.58 21.46Q364.75 22.87 364.37 24.72Q363.98 26.57 363.94 28.70L363.94 28.70Q363.94 29.09 363.71 29.28Q363.48 29.47 363.22 29.47ZM392.26 29.33L392.26 29.33Q391.94 29.33 391.69 29.14Q391.44 28.94 391.44 28.63L391.44 28.63Q391.44 28.54 391.49 28.39L391.49 28.39Q391.97 26.83 392.24 25.18Q392.52 23.52 392.52 22.06L392.52 22.06Q392.52 20.74 392.24 19.70Q391.97 18.67 391.36 18.06Q390.74 17.45 389.69 17.45L389.69 17.45Q388.44 17.45 387.74 18.28Q387.05 19.10 386.72 20.57Q386.40 22.03 386.23 23.95L386.23 23.95Q386.23 24.31 385.99 24.49Q385.75 24.67 385.49 24.67L385.49 24.67Q385.18 24.62 384.98 24.41Q384.79 24.19 384.79 23.88L384.79 23.88Q384.84 23.54 384.86 23.22Q384.89 22.90 384.89 22.56L384.89 22.56Q384.89 21.19 384.50 19.96Q384.12 18.72 383.39 17.94Q382.66 17.16 381.60 17.21L381.60 17.21Q380.74 17.21 380.12 17.70Q379.51 18.19 379.15 18.98Q378.79 19.78 378.62 20.74L378.62 20.74Q378.65 21.82 378.76 23.14Q378.86 24.46 379.03 25.78Q379.20 27.10 379.39 28.18L379.39 28.18Q379.46 28.54 379.26 28.75Q379.06 28.97 378.82 29.02L378.82 29.02Q378.50 29.04 378.28 28.91Q378.05 28.78 377.98 28.44L377.98 28.44Q377.54 25.94 377.36 23.75Q377.18 21.55 377.18 19.08L377.18 19.08Q377.18 18.41 377.20 17.71Q377.21 17.02 377.23 16.27L377.23 16.27Q377.28 15.86 377.52 15.71Q377.76 15.55 378.00 15.60L378.00 15.60Q378.29 15.60 378.50 15.80Q378.72 16.01 378.67 16.34L378.67 16.34L378.65 17.09Q379.30 16.39 380.03 16.10Q380.76 15.82 381.58 15.82L381.58 15.82Q383.23 15.82 384.23 16.68Q385.22 17.54 385.70 18.94L385.70 18.94Q386.26 17.59 387.20 16.81Q388.15 16.03 389.54 16.03L389.54 16.03Q391.15 16.03 392.14 16.90Q393.12 17.76 393.56 19.20Q394.01 20.64 394.01 22.39L394.01 22.39Q394.01 23.93 393.71 25.58Q393.41 27.24 392.88 28.80L392.88 28.80Q392.69 29.33 392.26 29.33ZM405.10 29.78L405.10 29.78Q404.90 29.81 404.70 29.81Q404.50 29.81 404.30 29.81L404.30 29.81Q402.17 29.81 400.49 28.91Q398.81 28.01 397.85 26.42Q396.89 24.84 396.89 22.80L396.89 22.80Q396.89 20.88 397.64 19.26Q398.40 17.64 399.79 16.56Q401.18 15.48 403.08 15.19L403.08 15.19Q403.34 15.14 403.66 15.12Q403.97 15.10 404.28 15.10L404.28 15.10Q405.58 15.10 406.98 15.44Q408.38 15.79 409.34 16.42L409.34 16.42Q409.46 16.15 409.73 16.09Q409.99 16.03 410.16 16.08L410.16 16.08Q410.42 16.10 410.57 16.32Q410.71 16.54 410.71 16.82L410.71 16.82Q410.69 17.38 410.68 17.90Q410.66 18.43 410.66 18.96L410.66 18.96Q410.66 21.65 411.06 23.74Q411.46 25.82 412.56 27.38L412.56 27.38Q412.70 27.60 412.70 27.82L412.70 27.82Q412.70 28.10 412.48 28.30Q412.25 28.49 411.98 28.49L411.98 28.49Q411.62 28.49 411.38 28.18L411.38 28.18Q411.14 27.84 410.92 27.43Q410.69 27.02 410.54 26.71L410.54 26.71Q409.56 28.08 408.14 28.84Q406.73 29.59 405.10 29.78ZM404.62 28.39L404.62 28.39Q406.25 28.39 407.63 27.48Q409.01 26.57 409.87 24.98L409.87 24.98Q409.51 23.64 409.34 21.86Q409.18 20.09 409.20 18.17L409.20 18.17Q408.72 17.64 407.93 17.28Q407.14 16.92 406.20 16.73Q405.26 16.54 404.35 16.54L404.35 16.54Q403.75 16.54 403.22 16.61Q402.70 16.68 402.24 16.87L402.24 16.87Q400.42 17.54 399.35 19.12Q398.28 20.69 398.28 22.70L398.28 22.70Q398.28 24.48 399.13 25.75Q399.98 27.02 401.42 27.71Q402.86 28.39 404.62 28.39ZM415.30 29.71L415.30 29.71Q414.94 29.71 414.78 29.50Q414.62 29.28 414.62 29.06L414.62 29.06Q414.62 28.46 415.25 28.39L415.25 28.39Q416.35 28.34 417.58 28.07Q418.80 27.79 419.86 27.36L419.86 27.36Q418.58 26.40 417.82 25.37Q417.05 24.34 416.71 23.04Q416.38 21.74 416.38 20.06L416.38 20.06Q416.38 18.65 416.71 17.29Q417.05 15.94 417.70 14.86Q418.34 13.78 419.32 13.14Q420.29 12.50 421.54 12.50L421.54 12.50Q423.29 12.50 424.38 13.43Q425.47 14.35 425.99 15.85Q426.50 17.35 426.50 19.10L426.50 19.10Q426.50 20.69 426.10 22.30Q425.69 23.90 424.90 25.25Q424.10 26.59 422.93 27.36L422.93 27.36Q425.18 28.25 427.66 28.39L427.66 28.39Q428.28 28.46 428.28 29.09L428.28 29.09Q428.28 29.38 428.09 29.56Q427.90 29.74 427.61 29.71L427.61 29.71Q426.12 29.64 424.49 29.23Q422.86 28.82 421.46 28.22L421.46 28.22Q420.02 28.90 418.44 29.28Q416.86 29.66 415.30 29.71ZM421.27 26.59L421.27 26.59Q422.52 25.97 423.35 24.79Q424.18 23.62 424.60 22.15Q425.02 20.69 425.02 19.22L425.02 19.22Q425.02 17.78 424.62 16.61Q424.22 15.43 423.44 14.72Q422.66 14.02 421.49 14.06L421.49 14.06Q420.65 14.06 419.99 14.63Q419.33 15.19 418.86 16.12Q418.39 17.04 418.14 18.17Q417.89 19.30 417.89 20.42L417.89 20.42Q417.89 22.44 418.78 24.08Q419.66 25.73 421.27 26.59Z"/></svg>