<svg xmlns="http://www.w3.org/2000/svg" xmlns:xlink="http://www.w3.org/1999/xlink" width="181.89600000000002" height="25.536"><path fill="black" d="M1.63 21.29L1.63 21.29Q0.74 21.29-0.02 21.14L-0.02 21.14Q1.13 16.94 1.81 12.68Q2.50 8.42 3.12 4.10L3.12 4.10Q4.37 3.84 5.71 3.64Q7.06 3.43 8.50 3.43L8.50 3.43Q9.29 3.43 10.18 3.71Q11.06 3.98 11.68 4.69Q12.29 5.40 12.29 6.70L12.29 6.70Q12.29 7.90 11.78 8.90Q11.28 9.91 10.51 10.63Q9.74 11.35 8.93 11.66L8.93 11.66Q9.26 11.83 9.72 12.26Q10.18 12.70 10.51 13.42Q10.85 14.14 10.85 15.17L10.85 15.17Q10.85 16.61 10.00 17.77Q9.14 18.94 7.73 19.70L7.73 19.70Q6.36 20.47 4.78 20.88Q3.19 21.29 1.63 21.29ZM5.90 9.70L5.90 9.70Q6.65 9.55 7.32 9.31Q7.99 9.07 8.41 8.76Q8.83 8.45 8.83 8.09L8.83 8.09Q8.83 7.63 8.47 7.37Q8.11 7.10 7.61 6.98Q7.10 6.86 6.67 6.86L6.67 6.86L6.43 6.86Q6.26 7.82 6.12 8.53Q5.98 9.24 5.90 9.70ZM4.68 16.44L4.68 16.44Q5.16 16.39 5.74 16.27Q6.31 16.15 6.84 15.90Q7.37 15.65 7.72 15.23Q8.06 14.81 8.06 14.21L8.06 14.21Q8.06 13.63 7.68 13.30Q7.30 12.96 6.76 12.80Q6.22 12.65 5.74 12.65L5.74 12.65L5.54 12.65Q5.42 12.65 5.35 12.67L5.35 12.67Q5.21 13.56 5.02 14.54Q4.82 15.53 4.68 16.44ZM16.49 21.14L16.49 21.14Q16.54 20.74 16.58 20.35Q16.63 19.97 16.68 19.58L16.68 19.58L16.82 18.24Q16.85 17.90 16.87 17.62Q16.90 17.33 16.92 17.09L16.92 17.09L14.83 17.09L13.87 20.54Q13.34 20.62 12.62 20.70Q11.90 20.78 11.28 20.86L11.28 20.86Q10.90 20.90 10.52 20.95Q10.15 21 9.77 21.05L9.77 21.05L11.66 14.76Q12 13.63 12.43 12.19Q12.86 10.75 13.31 9.24Q13.75 7.73 14.15 6.40Q14.54 5.06 14.78 4.15L14.78 4.15Q16.42 4.03 18.11 3.86Q19.80 3.70 21.41 3.41L21.41 3.41Q21.29 4.75 21.18 6.44Q21.07 8.14 20.99 9.94Q20.90 11.74 20.81 13.49L20.81 13.49Q20.76 15.14 20.69 16.91Q20.62 18.67 20.54 20.52L20.54 20.52Q20.18 20.57 19.82 20.62Q19.46 20.66 19.10 20.71L19.10 20.71Q18.50 20.81 17.78 20.93Q17.06 21.05 16.49 21.14ZM16.90 8.66L15.41 14.69Q15.55 14.69 15.95 14.66Q16.34 14.64 16.70 14.62Q17.06 14.59 17.14 14.59L17.14 14.59Q17.14 14.28 17.23 13.32Q17.33 12.36 17.42 11.30L17.42 11.30Q17.47 10.68 17.53 10.02Q17.59 9.36 17.66 8.66L17.66 8.66L17.81 6.58L17.45 6.60L16.90 8.66ZM24.29 20.50L20.78 21.31Q21.50 17.86 22.15 14.62L22.15 14.62Q22.68 11.57 23.18 8.76Q23.69 5.95 23.90 3.60L23.90 3.60Q24.07 3.62 24.20 3.62Q24.34 3.62 24.43 3.62L24.43 3.62L24.94 3.62Q25.56 3.62 26.33 3.59Q27.10 3.55 27.74 3.53L27.74 3.53Q27.91 4.37 28.07 5.18Q28.22 6 28.34 6.77L28.34 6.77Q28.46 7.44 28.61 8.15Q28.75 8.86 28.90 9.58L28.90 9.58Q29.02 10.30 29.15 10.91Q29.28 11.52 29.38 12.02L29.38 12.02Q29.66 10.61 29.92 9.24Q30.17 7.87 30.41 6.77L30.41 6.77L31.10 3.55L34.03 3.19Q33.62 5.02 33.26 6.77Q32.90 8.52 32.59 10.15L32.59 10.15Q31.99 13.08 31.54 15.67Q31.08 18.26 30.84 20.18L30.84 20.18Q31.10 20.18 30.76 20.24Q30.41 20.30 29.74 20.41Q29.06 20.52 28.30 20.69Q27.53 20.86 26.93 21.10L26.93 21.10Q26.86 20.14 26.78 19.22Q26.71 18.31 26.62 17.45L26.62 17.45Q26.47 15.91 26.28 14.40Q26.09 12.89 25.90 12L25.90 12Q25.73 13.06 25.49 14.41Q25.25 15.77 24.96 17.14L24.96 17.14L24.29 20.50ZM36.86 21.77L36.86 21.77Q35.98 21.77 35.17 21.38Q34.37 21 33.79 20.21L33.79 20.21Q33.19 19.44 32.86 18.26Q32.52 17.09 32.52 15.50L32.52 15.50Q32.52 12.41 33.41 10.10Q34.30 7.80 35.66 6.26L35.66 6.26Q37.01 4.73 38.56 3.98Q40.10 3.24 41.45 3.24L41.45 3.24Q42.74 3.24 43.56 3.80Q44.38 4.37 44.76 5.30Q45.14 6.24 45.14 7.39L45.14 7.39L41.86 8.02Q41.64 7.06 41.28 6.65Q40.92 6.24 40.46 6.24L40.46 6.24Q39.94 6.24 39.37 6.82Q38.81 7.39 38.27 8.36Q37.73 9.34 37.30 10.54Q36.86 11.74 36.59 13.01Q36.31 14.28 36.26 15.41L36.26 15.41Q36.26 16.90 36.71 17.53Q37.15 18.17 37.85 18.17L37.85 18.17Q38.52 18.17 39.18 17.74Q39.84 17.30 40.28 16.57Q40.73 15.84 40.75 14.93L40.75 14.93L38.18 15.31L38.64 12.94L40.85 12.65Q41.76 12.53 42.78 12.36Q43.80 12.19 44.57 12.05L44.57 12.05Q44.40 14.50 43.62 16.33Q42.84 18.17 41.69 19.37Q40.54 20.57 39.28 21.17Q38.02 21.77 36.86 21.77ZM51.43 20.02L43.68 21.22L46.82 4.15L54.41 3.50Q54.24 4.03 54.12 4.58L54.12 4.58Q54 5.04 53.89 5.53Q53.78 6.02 53.71 6.41L53.71 6.41Q53.40 6.43 52.82 6.44Q52.25 6.46 51.65 6.47Q51.05 6.48 50.62 6.48Q50.18 6.48 50.16 6.48L50.16 6.48L49.32 10.78L50.71 10.70Q50.98 10.68 51.25 10.68Q51.53 10.68 51.79 10.68L51.79 10.68Q52.06 10.68 52.27 10.68Q52.49 10.68 52.61 10.66L52.61 10.66Q52.56 10.99 52.52 11.32Q52.49 11.64 52.44 11.98L52.44 11.98L52.22 13.30Q52.10 13.32 51.91 13.32Q51.72 13.32 51.46 13.32L51.46 13.32Q51.19 13.34 50.90 13.34Q50.62 13.34 50.35 13.37L50.35 13.37Q50.04 13.39 49.70 13.39Q49.37 13.39 48.98 13.42L48.98 13.42L48.17 17.83L51.67 17.28L51.43 20.02ZM55.66 20.21L51.77 21.22L53.02 14.98Q53.30 13.25 53.64 11.42Q53.98 9.60 54.28 7.82Q54.58 6.05 54.74 4.49L54.74 4.49Q56.11 4.06 57.70 3.85Q59.28 3.65 60.84 3.65L60.84 3.65Q62.66 3.65 63.32 4.44Q63.98 5.23 63.98 6.58L63.98 6.58Q63.98 7.80 63.41 9.04Q62.83 10.27 61.91 11.27Q60.98 12.26 59.88 12.84L59.88 12.84Q60.31 13.80 60.80 14.94Q61.30 16.08 61.73 17.11L61.73 17.11Q61.97 17.71 62.22 18.31Q62.47 18.91 62.71 19.51L62.71 19.51L58.99 20.81L58.13 17.93Q57.77 16.73 57.47 15.61Q57.17 14.50 57.12 14.04L57.12 14.04L56.81 14.14Q56.74 14.52 56.65 14.96Q56.57 15.41 56.47 15.94L56.47 15.94Q56.38 16.46 56.28 16.96Q56.18 17.45 56.09 17.93L56.09 17.93L55.66 20.21ZM58.18 6.98L57.41 10.80Q57.84 10.75 58.48 10.43Q59.11 10.10 59.75 9.62Q60.38 9.14 60.82 8.64Q61.25 8.14 61.25 7.75L61.25 7.75Q61.25 7.27 60.68 7.12Q60.12 6.96 59.21 6.96L59.21 6.96L58.68 6.96Q58.54 6.98 58.42 6.98Q58.30 6.98 58.18 6.98L58.18 6.98ZM66.43 21.24L66.43 21.24Q65.47 21.24 64.51 20.72Q63.55 20.21 62.66 19.08L62.66 19.08L64.44 15.60Q64.70 16.06 65.22 16.46Q65.74 16.87 66.31 17.11Q66.89 17.35 67.30 17.35L67.30 17.35Q67.92 17.35 68.48 16.97Q69.05 16.58 69.05 15.94L69.05 15.94Q69.05 15.10 68.28 14.40Q67.51 13.70 66.55 13.03L66.55 13.03Q65.62 12.36 64.84 11.51Q64.06 10.66 64.06 9.55L64.06 9.55Q64.06 8.30 64.78 7.24Q65.50 6.17 66.65 5.36Q67.80 4.56 69.11 4.12Q70.42 3.67 71.59 3.67L71.59 3.67Q72.43 3.67 73.15 3.95Q73.87 4.22 74.30 4.85Q74.74 5.47 74.74 6.53L74.74 6.53Q74.74 6.70 74.72 6.86Q74.71 7.03 74.69 7.20L74.69 7.20Q74.66 7.37 74.63 7.55Q74.59 7.73 74.57 7.92L74.57 7.92L71.09 8.93Q71.14 8.74 71.17 8.54Q71.21 8.35 71.21 8.16L71.21 8.16Q71.21 7.44 70.96 7.12Q70.70 6.79 70.30 6.79L70.30 6.79Q70.08 6.79 69.67 7.02Q69.26 7.25 68.94 7.64Q68.62 8.04 68.62 8.52L68.62 8.52Q68.62 9.31 69.28 9.83Q69.94 10.34 70.80 10.87L70.80 10.87Q71.21 11.11 71.71 11.63Q72.22 12.14 72.59 13.02Q72.96 13.90 72.96 15.26L72.96 15.26Q72.96 17.04 72.08 18.38Q71.21 19.73 69.72 20.48Q68.23 21.24 66.43 21.24ZM86.98 20.47L82.56 21.24L83.04 17.40L78.91 17.71L77.86 15.55L79.37 11.02Q80.06 8.98 80.64 7.14Q81.22 5.30 81.65 4.10L81.65 4.10Q82.66 4.10 83.56 4.04Q84.46 3.98 85.49 3.84L85.49 3.84Q84.60 6.07 83.84 8.33Q83.09 10.58 82.37 12.91L82.37 12.91Q82.34 13.22 82.25 13.49L82.25 13.49L83.95 13.49Q84.10 12.50 84.29 11.60Q84.48 10.70 84.65 9.74L84.65 9.74Q84.77 9.05 84.91 8.28Q85.06 7.51 85.22 6.70L85.22 6.70L86.78 6.48Q87.43 6.38 88.13 6.31Q88.82 6.24 89.33 6.19L89.33 6.19Q89.30 6.58 89.11 7.52Q88.92 8.47 88.70 9.84L88.70 9.84Q88.56 10.68 88.38 11.68Q88.20 12.67 88.03 13.49L88.03 13.49L89.40 13.49L88.42 17.33L87.19 17.33L86.98 20.47ZM93.72 21.17L93.72 21.17Q92.26 21.17 91.34 20.46Q90.43 19.75 90.01 18.56Q89.59 17.38 89.59 15.94L89.59 15.94Q89.59 14.09 90.20 11.93Q90.82 9.77 92.02 7.80L92.02 7.80Q93.17 5.95 94.66 4.75Q96.14 3.55 97.75 3.55L97.75 3.55Q98.95 3.55 99.72 4.33Q100.49 5.11 100.86 6.43Q101.23 7.75 101.23 9.38L101.23 9.38Q101.23 11.40 100.74 13.42Q100.25 15.43 99.29 17.21L99.29 17.21Q98.33 18.96 96.90 20.06Q95.47 21.17 93.72 21.17ZM94.44 17.14L94.44 17.14Q95.35 17.14 96.08 16.55Q96.82 15.96 97.34 15.02Q97.87 14.09 98.16 13.03Q98.45 11.98 98.45 11.04L98.45 11.04Q98.45 10.01 98.05 9.29Q97.66 8.57 96.79 8.57L96.79 8.57Q96.10 8.57 95.45 9.23Q94.80 9.89 94.30 10.91Q93.79 11.93 93.49 13.07Q93.19 14.21 93.19 15.14L93.19 15.14Q93.19 16.03 93.48 16.58Q93.77 17.14 94.44 17.14ZM105.10 21.17L105.10 21.17Q103.63 21.17 102.72 20.46Q101.81 19.75 101.39 18.56Q100.97 17.38 100.97 15.94L100.97 15.94Q100.97 14.09 101.58 11.93Q102.19 9.77 103.39 7.80L103.39 7.80Q104.54 5.95 106.03 4.75Q107.52 3.55 109.13 3.55L109.13 3.55Q110.33 3.55 111.10 4.33Q111.86 5.11 112.24 6.43Q112.61 7.75 112.61 9.38L112.61 9.38Q112.61 11.40 112.12 13.42Q111.62 15.43 110.66 17.21L110.66 17.21Q109.70 18.96 108.28 20.06Q106.85 21.17 105.10 21.17ZM105.82 17.14L105.82 17.14Q106.73 17.14 107.46 16.55Q108.19 15.96 108.72 15.02Q109.25 14.09 109.54 13.03Q109.82 11.98 109.82 11.04L109.82 11.04Q109.82 10.01 109.43 9.29Q109.03 8.57 108.17 8.57L108.17 8.57Q107.47 8.57 106.82 9.23Q106.18 9.89 105.67 10.91Q105.17 11.93 104.87 13.07Q104.57 14.21 104.57 15.14L104.57 15.14Q104.57 16.03 104.86 16.58Q105.14 17.14 105.82 17.14ZM119.69 20.50L116.18 21.31Q116.90 17.86 117.55 14.62L117.55 14.62Q118.08 11.57 118.58 8.76Q119.09 5.95 119.30 3.60L119.30 3.60Q119.47 3.62 119.60 3.62Q119.74 3.62 119.83 3.62L119.83 3.62L120.34 3.62Q120.96 3.62 121.73 3.59Q122.50 3.55 123.14 3.53L123.14 3.53Q123.31 4.37 123.47 5.18Q123.62 6 123.74 6.77L123.74 6.77Q123.86 7.44 124.01 8.15Q124.15 8.86 124.30 9.58L124.30 9.58Q124.42 10.30 124.55 10.91Q124.68 11.52 124.78 12.02L124.78 12.02Q125.06 10.61 125.32 9.24Q125.57 7.87 125.81 6.77L125.81 6.77L126.50 3.55L129.43 3.19Q129.02 5.02 128.66 6.77Q128.30 8.52 127.99 10.15L127.99 10.15Q127.39 13.08 126.94 15.67Q126.48 18.26 126.24 20.18L126.24 20.18Q126.50 20.18 126.16 20.24Q125.81 20.30 125.14 20.41Q124.46 20.52 123.70 20.69Q122.93 20.86 122.33 21.10L122.33 21.10Q122.26 20.14 122.18 19.22Q122.11 18.31 122.02 17.45L122.02 17.45Q121.87 15.91 121.68 14.40Q121.49 12.89 121.30 12L121.30 12Q121.13 13.06 120.89 14.41Q120.65 15.77 120.36 17.14L120.36 17.14L119.69 20.50ZM131.26 21.29L131.26 21.29Q129.67 21.29 128.66 20.06Q127.66 18.84 127.66 16.37L127.66 16.37Q127.66 15 127.99 13.49Q128.33 11.98 128.93 10.51Q129.53 9.05 130.32 7.80L130.32 7.80Q131.59 5.78 133.25 4.51Q134.90 3.24 136.73 3.24L136.73 3.24Q138.17 3.24 138.95 3.97Q139.73 4.70 140.04 5.84Q140.35 6.98 140.35 8.21L140.35 8.21Q140.35 11.06 139.48 13.52Q138.60 15.98 137.21 17.69L137.21 17.69Q135.82 19.44 134.24 20.36Q132.67 21.29 131.26 21.29ZM132.55 17.33L132.55 17.33Q133.63 17.33 134.46 16.61Q135.29 15.89 135.86 14.77Q136.44 13.66 136.73 12.43Q137.02 11.21 137.02 10.22L137.02 10.22Q137.02 9.84 136.94 9.40Q136.87 8.95 136.63 8.62Q136.39 8.28 135.89 8.28L135.89 8.28Q134.78 8.28 133.90 9.08Q133.01 9.89 132.41 11.11L132.41 11.11Q131.81 12.36 131.52 13.56Q131.23 14.76 131.23 15.74L131.23 15.74Q131.23 16.25 131.59 16.79Q131.95 17.33 132.55 17.33ZM142.73 20.21L138.84 21.22L140.09 14.98Q140.38 13.25 140.71 11.42Q141.05 9.60 141.35 7.82Q141.65 6.05 141.82 4.49L141.82 4.49Q143.18 4.06 144.77 3.85Q146.35 3.65 147.91 3.65L147.91 3.65Q149.74 3.65 150.40 4.44Q151.06 5.23 151.06 6.58L151.06 6.58Q151.06 7.80 150.48 9.04Q149.90 10.27 148.98 11.27Q148.06 12.26 146.95 12.84L146.95 12.84Q147.38 13.80 147.88 14.94Q148.37 16.08 148.80 17.11L148.80 17.11Q149.04 17.71 149.29 18.31Q149.54 18.91 149.78 19.51L149.78 19.51L146.06 20.81L145.20 17.93Q144.84 16.73 144.54 15.61Q144.24 14.50 144.19 14.04L144.19 14.04L143.88 14.14Q143.81 14.52 143.72 14.96Q143.64 15.41 143.54 15.94L143.54 15.94Q143.45 16.46 143.35 16.96Q143.26 17.45 143.16 17.93L143.16 17.93L142.73 20.21ZM145.25 6.98L144.48 10.80Q144.91 10.75 145.55 10.43Q146.18 10.10 146.82 9.62Q147.46 9.14 147.89 8.64Q148.32 8.14 148.32 7.75L148.32 7.75Q148.32 7.27 147.76 7.12Q147.19 6.96 146.28 6.96L146.28 6.96L145.75 6.96Q145.61 6.98 145.49 6.98Q145.37 6.98 145.25 6.98L145.25 6.98ZM152.64 20.78L148.68 21.05Q149.74 17.83 150.70 14.78L150.70 14.78Q151.10 13.54 151.54 12.12Q151.97 10.70 152.40 9.28Q152.83 7.85 153.22 6.53Q153.60 5.21 153.86 4.18L153.86 4.18Q155.18 4.18 156.36 4.03L156.36 4.03Q156.96 3.96 157.60 3.89Q158.23 3.82 158.90 3.77L158.90 3.77L158.76 4.94Q158.71 5.28 158.66 5.63Q158.62 5.98 158.57 6.34L158.57 6.34Q158.52 6.70 158.45 7.07Q158.38 7.44 158.33 7.82L158.33 7.82Q158.23 8.57 158.04 9.90Q157.85 11.23 157.58 12.79L157.58 12.79L157.90 12.79Q158.59 10.97 159.05 9.76Q159.50 8.54 159.79 7.78L159.79 7.78Q160.20 6.65 160.68 5.50Q161.16 4.34 161.47 3.72L161.47 3.72Q162.05 3.67 162.85 3.56Q163.66 3.46 164.48 3.31Q165.31 3.17 165.91 3.07L165.91 3.07Q165.58 5.09 165.30 7.14Q165.02 9.19 164.82 11.05Q164.62 12.91 164.47 14.40L164.47 14.40Q164.33 15.89 164.21 17.34Q164.09 18.79 163.97 20.21L163.97 20.21L159.79 20.95Q159.79 20.90 159.86 19.87Q159.94 18.84 160.10 17.30L160.10 17.30Q160.27 15.77 160.44 14.39Q160.61 13.01 160.78 12.12L160.78 12.12L160.56 12.12Q159.96 13.94 159.11 16.10Q158.26 18.26 157.44 20.88L157.44 20.88Q156.60 20.90 156.00 20.94Q155.40 20.98 154.61 21.02L154.61 21.02L155.38 12.12L155.02 12.12Q154.99 12.38 154.80 13.14Q154.61 13.90 154.34 14.87Q154.08 15.84 153.79 16.80L153.79 16.80Q152.71 20.57 152.64 20.78L152.64 20.78ZM170.47 21.14L170.47 21.14Q170.52 20.74 170.57 20.35Q170.62 19.97 170.66 19.58L170.66 19.58L170.81 18.24Q170.83 17.90 170.86 17.62Q170.88 17.33 170.90 17.09L170.90 17.09L168.82 17.09L167.86 20.54Q167.33 20.62 166.61 20.70Q165.89 20.78 165.26 20.86L165.26 20.86Q164.88 20.90 164.51 20.95Q164.14 21 163.75 21.05L163.75 21.05L165.65 14.76Q165.98 13.63 166.42 12.19Q166.85 10.75 167.29 9.24Q167.74 7.73 168.13 6.40Q168.53 5.06 168.77 4.15L168.77 4.15Q170.40 4.03 172.09 3.86Q173.78 3.70 175.39 3.41L175.39 3.41Q175.27 4.75 175.16 6.44Q175.06 8.14 174.97 9.94Q174.89 11.74 174.79 13.49L174.79 13.49Q174.74 15.14 174.67 16.91Q174.60 18.67 174.53 20.52L174.53 20.52Q174.17 20.57 173.81 20.62Q173.45 20.66 173.09 20.71L173.09 20.71Q172.49 20.81 171.77 20.93Q171.05 21.05 170.47 21.14ZM170.88 8.66L169.39 14.69Q169.54 14.69 169.93 14.66Q170.33 14.64 170.69 14.62Q171.05 14.59 171.12 14.59L171.12 14.59Q171.12 14.28 171.22 13.32Q171.31 12.36 171.41 11.30L171.41 11.30Q171.46 10.68 171.52 10.02Q171.58 9.36 171.65 8.66L171.65 8.66L171.79 6.58L171.43 6.60L170.88 8.66ZM174.94 21.24L174.94 21.24Q175.20 19.34 175.50 17.42Q175.80 15.50 176.12 13.72Q176.45 11.93 176.74 10.49L176.74 10.49Q177.05 8.93 177.36 7.32Q177.67 5.71 178.01 4.08L178.01 4.08L182.21 3.53L180.96 8.95Q180.62 10.37 180.28 11.99Q179.93 13.61 179.64 15.12Q179.35 16.63 179.18 17.81L179.18 17.81Q179.78 17.76 180.47 17.75Q181.15 17.74 181.68 17.74L181.68 17.74Q181.70 18.29 181.78 18.90Q181.85 19.51 181.93 19.96Q182.02 20.40 182.02 20.45L182.02 20.45Q181.92 20.45 181.84 20.45Q181.75 20.45 181.66 20.42L181.66 20.42L181.27 20.42Q180.34 20.42 179.20 20.51Q178.06 20.59 176.94 20.77Q175.82 20.95 174.94 21.24Z"/></svg>