<svg xmlns="http://www.w3.org/2000/svg" xmlns:xlink="http://www.w3.org/1999/xlink" width="349.53600000000006" height="32.688"><path fill="black" d="M16.34 8.52L16.34 25.66L13.20 25.66L4.54 11.81L4.44 11.81Q4.49 12.74 4.56 13.99Q4.63 15.24 4.63 16.54L4.63 16.54L4.63 25.66L2.28 25.66L2.28 8.52L5.40 8.52L14.04 22.30L14.11 22.30Q14.09 21.79 14.06 21.02Q14.04 20.26 14.00 19.38Q13.97 18.50 13.94 17.74L13.94 17.74L13.94 8.52L16.34 8.52ZM32.02 19.18L32.02 19.18Q32.02 22.37 30.36 24.13Q28.70 25.90 25.90 25.90L25.90 25.90Q24.17 25.90 22.80 25.12Q21.43 24.34 20.65 22.82Q19.87 21.31 19.87 19.18L19.87 19.18Q19.87 15.96 21.50 14.22Q23.14 12.48 25.97 12.48L25.97 12.48Q27.74 12.48 29.10 13.26Q30.46 14.04 31.24 15.53Q32.02 17.02 32.02 19.18ZM22.49 19.18L22.49 19.18Q22.49 21.34 23.32 22.57Q24.14 23.81 25.94 23.81L25.94 23.81Q27.74 23.81 28.57 22.57Q29.40 21.34 29.40 19.18L29.40 19.18Q29.40 16.99 28.57 15.79Q27.74 14.59 25.92 14.59L25.92 14.59Q24.12 14.59 23.30 15.79Q22.49 16.99 22.49 19.18ZM39.89 23.83L39.89 23.83Q40.39 23.83 40.92 23.74Q41.45 23.64 41.83 23.52L41.83 23.52L41.83 25.44Q41.42 25.63 40.73 25.76Q40.03 25.90 39.34 25.90L39.34 25.90Q38.28 25.90 37.40 25.54Q36.53 25.18 36.00 24.29Q35.47 23.40 35.47 21.82L35.47 21.82L35.47 14.66L33.67 14.66L33.67 13.51L35.57 12.55L36.46 9.82L38.02 9.82L38.02 12.72L41.71 12.72L41.71 14.66L38.02 14.66L38.02 21.77Q38.02 22.82 38.53 23.33Q39.05 23.83 39.89 23.83ZM55.82 19.18L55.82 19.18Q55.82 22.37 54.17 24.13Q52.51 25.90 49.70 25.90L49.70 25.90Q47.98 25.90 46.61 25.12Q45.24 24.34 44.46 22.82Q43.68 21.31 43.68 19.18L43.68 19.18Q43.68 15.96 45.31 14.22Q46.94 12.48 49.78 12.48L49.78 12.48Q51.55 12.48 52.91 13.26Q54.26 14.04 55.04 15.53Q55.82 17.02 55.82 19.18ZM46.30 19.18L46.30 19.18Q46.30 21.34 47.12 22.57Q47.95 23.81 49.75 23.81L49.75 23.81Q51.55 23.81 52.38 22.57Q53.21 21.34 53.21 19.18L53.21 19.18Q53.21 16.99 52.38 15.79Q51.55 14.59 49.73 14.59L49.73 14.59Q47.93 14.59 47.11 15.79Q46.30 16.99 46.30 19.18ZM75.26 21.02L75.26 21.02Q75.26 23.30 73.61 24.60Q71.95 25.90 69.07 25.90L69.07 25.90Q67.68 25.90 66.44 25.67Q65.21 25.44 64.34 25.01L64.34 25.01L64.34 22.56Q65.30 22.99 66.60 23.34Q67.90 23.69 69.24 23.69L69.24 23.69Q70.99 23.69 71.84 23.02Q72.70 22.34 72.70 21.22L72.70 21.22Q72.70 20.42 72.30 19.88Q71.90 19.34 71.08 18.88Q70.25 18.41 68.86 17.88L68.86 17.88Q67.90 17.52 67.12 17.08Q66.34 16.63 65.75 16.03Q65.16 15.43 64.85 14.64Q64.54 13.85 64.54 12.79L64.54 12.79Q64.54 11.38 65.24 10.37Q65.95 9.36 67.20 8.82Q68.45 8.28 70.10 8.28L70.10 8.28Q71.50 8.28 72.68 8.56Q73.87 8.83 74.95 9.31L74.95 9.31L74.14 11.45Q73.15 11.04 72.14 10.78Q71.14 10.51 70.03 10.51L70.03 10.51Q68.62 10.51 67.87 11.14Q67.13 11.76 67.13 12.77L67.13 12.77Q67.13 13.56 67.49 14.09Q67.85 14.62 68.64 15.06Q69.43 15.50 70.73 16.03L70.73 16.03Q72.17 16.58 73.19 17.23Q74.21 17.88 74.74 18.78Q75.26 19.68 75.26 21.02ZM83.35 12.48L83.35 12.48Q85.80 12.48 87 13.55Q88.20 14.62 88.20 16.90L88.20 16.90L88.20 25.66L86.40 25.66L85.90 23.86L85.80 23.86Q84.96 24.91 84.04 25.40Q83.11 25.90 81.48 25.90L81.48 25.90Q79.73 25.90 78.58 24.95Q77.42 24 77.42 21.98L77.42 21.98Q77.42 20.02 78.92 18.98Q80.42 17.95 83.50 17.86L83.50 17.86L85.70 17.78L85.70 17.06Q85.70 15.62 85.06 15.05Q84.41 14.47 83.23 14.47L83.23 14.47Q82.22 14.47 81.31 14.76Q80.40 15.05 79.58 15.46L79.58 15.46L78.77 13.61Q79.68 13.13 80.87 12.80Q82.06 12.48 83.35 12.48ZM85.68 19.44L83.95 19.49Q81.74 19.58 80.89 20.22Q80.04 20.86 80.04 22.01L80.04 22.01Q80.04 23.02 80.65 23.47Q81.26 23.93 82.20 23.93L82.20 23.93Q83.71 23.93 84.70 23.09Q85.68 22.25 85.68 20.57L85.68 20.57L85.68 19.44ZM98.66 12.48L98.66 12.48Q100.92 12.48 102.12 13.61Q103.32 14.74 103.32 17.23L103.32 17.23L103.32 25.66L100.80 25.66L100.80 17.59Q100.80 16.08 100.16 15.32Q99.53 14.57 98.14 14.57L98.14 14.57Q96.17 14.57 95.41 15.74Q94.66 16.92 94.66 19.13L94.66 19.13L94.66 25.66L92.11 25.66L92.11 12.72L94.13 12.72L94.49 14.45L94.63 14.45Q95.26 13.44 96.35 12.96Q97.44 12.48 98.66 12.48ZM115.82 22.01L115.82 22.01Q115.82 23.90 114.43 24.90Q113.04 25.90 110.57 25.90L110.57 25.90Q109.20 25.90 108.23 25.69Q107.26 25.49 106.44 25.10L106.44 25.10L106.44 22.87Q107.30 23.28 108.43 23.60Q109.56 23.93 110.64 23.93L110.64 23.93Q112.08 23.93 112.72 23.47Q113.35 23.02 113.35 22.25L113.35 22.25Q113.35 21.82 113.11 21.47Q112.87 21.12 112.21 20.75Q111.55 20.38 110.28 19.90L110.28 19.90Q109.06 19.39 108.19 18.90Q107.33 18.41 106.87 17.72Q106.42 17.04 106.42 15.96L106.42 15.96Q106.42 14.28 107.77 13.38Q109.13 12.48 111.36 12.48L111.36 12.48Q112.54 12.48 113.58 12.71Q114.62 12.94 115.61 13.39L115.61 13.39L114.77 15.34Q113.93 14.98 113.04 14.72Q112.15 14.47 111.24 14.47L111.24 14.47Q110.09 14.47 109.49 14.83Q108.89 15.19 108.89 15.84L108.89 15.84Q108.89 16.30 109.16 16.63Q109.44 16.97 110.14 17.30Q110.83 17.64 112.03 18.12L112.03 18.12Q113.23 18.58 114.08 19.06Q114.94 19.54 115.38 20.23Q115.82 20.93 115.82 22.01ZM125.23 8.52L130.25 8.52Q133.54 8.52 135.22 9.47Q136.90 10.42 136.90 12.79L136.90 12.79Q136.90 14.30 136.09 15.30Q135.29 16.30 133.80 16.56L133.80 16.56L133.80 16.68Q134.83 16.85 135.65 17.29Q136.46 17.74 136.94 18.58Q137.42 19.42 137.42 20.76L137.42 20.76Q137.42 23.09 135.80 24.37Q134.18 25.66 131.38 25.66L131.38 25.66L125.23 25.66L125.23 8.52ZM127.82 15.67L130.68 15.67Q132.70 15.67 133.45 15.02Q134.21 14.38 134.21 13.10L134.21 13.10Q134.21 11.81 133.30 11.26Q132.38 10.70 130.39 10.70L130.39 10.70L127.82 10.70L127.82 15.67ZM130.80 17.78L127.82 17.78L127.82 23.50L130.97 23.50Q133.06 23.50 133.87 22.68Q134.69 21.86 134.69 20.52L134.69 20.52Q134.69 19.30 133.84 18.54Q132.98 17.78 130.80 17.78L130.80 17.78ZM145.70 12.48L145.70 12.48Q148.15 12.48 149.35 13.55Q150.55 14.62 150.55 16.90L150.55 16.90L150.55 25.66L148.75 25.66L148.25 23.86L148.15 23.86Q147.31 24.91 146.39 25.40Q145.46 25.90 143.83 25.90L143.83 25.90Q142.08 25.90 140.93 24.95Q139.78 24 139.78 21.98L139.78 21.98Q139.78 20.02 141.28 18.98Q142.78 17.95 145.85 17.86L145.85 17.86L148.06 17.78L148.06 17.06Q148.06 15.62 147.41 15.05Q146.76 14.47 145.58 14.47L145.58 14.47Q144.58 14.47 143.66 14.76Q142.75 15.05 141.94 15.46L141.94 15.46L141.12 13.61Q142.03 13.13 143.22 12.80Q144.41 12.48 145.70 12.48ZM148.03 19.44L146.30 19.49Q144.10 19.58 143.24 20.22Q142.39 20.86 142.39 22.01L142.39 22.01Q142.39 23.02 143.00 23.47Q143.62 23.93 144.55 23.93L144.55 23.93Q146.06 23.93 147.05 23.09Q148.03 22.25 148.03 20.57L148.03 20.57L148.03 19.44ZM168.96 12.48L168.96 12.48Q171.14 12.48 172.25 13.61Q173.35 14.74 173.35 17.23L173.35 17.23L173.35 25.66L170.81 25.66L170.81 17.57Q170.81 14.57 168.38 14.57L168.38 14.57Q166.66 14.57 165.91 15.64Q165.17 16.70 165.17 18.72L165.17 18.72L165.17 25.66L162.65 25.66L162.65 17.57Q162.65 14.57 160.20 14.57L160.20 14.57Q158.40 14.57 157.70 15.74Q157.01 16.92 157.01 19.13L157.01 19.13L157.01 25.66L154.46 25.66L154.46 12.72L156.48 12.72L156.84 14.45L156.98 14.45Q157.58 13.44 158.60 12.96Q159.62 12.48 160.78 12.48L160.78 12.48Q162.24 12.48 163.25 13.00Q164.26 13.51 164.71 14.57L164.71 14.57L164.90 14.57Q165.53 13.49 166.63 12.98Q167.74 12.48 168.96 12.48ZM185.83 12.72L188.38 12.72L188.38 25.66L186.34 25.66L185.98 23.95L185.86 23.95Q185.23 24.96 184.13 25.43Q183.02 25.90 181.80 25.90L181.80 25.90Q179.52 25.90 178.32 24.77Q177.12 23.64 177.12 21.19L177.12 21.19L177.12 12.72L179.69 12.72L179.69 20.81Q179.69 22.32 180.32 23.06Q180.96 23.81 182.30 23.81L182.30 23.81Q184.30 23.81 185.06 22.63Q185.83 21.46 185.83 19.27L185.83 19.27L185.83 12.72ZM206.86 12.48L206.86 12.48Q209.04 12.48 210.14 13.61Q211.25 14.74 211.25 17.23L211.25 17.23L211.25 25.66L208.70 25.66L208.70 17.57Q208.70 14.57 206.28 14.57L206.28 14.57Q204.55 14.57 203.81 15.64Q203.06 16.70 203.06 18.72L203.06 18.72L203.06 25.66L200.54 25.66L200.54 17.57Q200.54 14.57 198.10 14.57L198.10 14.57Q196.30 14.57 195.60 15.74Q194.90 16.92 194.90 19.13L194.90 19.13L194.90 25.66L192.36 25.66L192.36 12.72L194.38 12.72L194.74 14.45L194.88 14.45Q195.48 13.44 196.50 12.96Q197.52 12.48 198.67 12.48L198.67 12.48Q200.14 12.48 201.14 13.00Q202.15 13.51 202.61 14.57L202.61 14.57L202.80 14.57Q203.42 13.49 204.53 12.98Q205.63 12.48 206.86 12.48ZM226.01 15.02L226.01 15.02Q227.71 15.02 228.98 15.62Q230.26 16.22 230.96 17.35Q231.67 18.48 231.67 20.11L231.67 20.11Q231.67 22.80 229.97 24.35Q228.26 25.90 225.14 25.90L225.14 25.90Q223.82 25.90 222.65 25.66Q221.47 25.42 220.66 24.96L220.66 24.96L220.66 22.63Q221.52 23.14 222.76 23.45Q223.99 23.76 225.12 23.76L225.12 23.76Q226.94 23.76 228.01 22.93Q229.08 22.10 229.08 20.35L229.08 20.35Q229.08 18.79 228.11 17.96Q227.14 17.14 225.05 17.14L225.05 17.14Q224.38 17.14 223.55 17.26Q222.72 17.38 222.22 17.50L222.22 17.50L221.04 16.80L221.69 8.52L230.50 8.52L230.50 10.78L223.90 10.78L223.51 15.26Q223.92 15.19 224.54 15.11Q225.17 15.02 226.01 15.02ZM245.62 17.06L245.62 17.06Q245.62 19.82 245.03 21.80Q244.44 23.78 243.18 24.84Q241.92 25.90 239.81 25.90L239.81 25.90Q236.86 25.90 235.45 23.56Q234.05 21.22 234.05 17.06L234.05 17.06Q234.05 14.28 234.61 12.31Q235.18 10.34 236.45 9.30Q237.72 8.26 239.81 8.26L239.81 8.26Q242.74 8.26 244.18 10.57Q245.62 12.89 245.62 17.06ZM236.59 17.06L236.59 17.06Q236.59 20.42 237.31 22.09Q238.03 23.76 239.81 23.76L239.81 23.76Q241.56 23.76 242.30 22.10Q243.05 20.45 243.05 17.06L243.05 17.06Q243.05 13.73 242.30 12.06Q241.56 10.39 239.81 10.39L239.81 10.39Q238.03 10.39 237.31 12.06Q236.59 13.73 236.59 17.06ZM259.34 17.06L259.34 17.06Q259.34 19.82 258.76 21.80Q258.17 23.78 256.91 24.84Q255.65 25.90 253.54 25.90L253.54 25.90Q250.58 25.90 249.18 23.56Q247.78 21.22 247.78 17.06L247.78 17.06Q247.78 14.28 248.34 12.31Q248.90 10.34 250.18 9.30Q251.45 8.26 253.54 8.26L253.54 8.26Q256.46 8.26 257.90 10.57Q259.34 12.89 259.34 17.06ZM250.32 17.06L250.32 17.06Q250.32 20.42 251.04 22.09Q251.76 23.76 253.54 23.76L253.54 23.76Q255.29 23.76 256.03 22.10Q256.78 20.45 256.78 17.06L256.78 17.06Q256.78 13.73 256.03 12.06Q255.29 10.39 253.54 10.39L253.54 10.39Q251.76 10.39 251.04 12.06Q250.32 13.73 250.32 17.06ZM275.06 12.48L275.06 12.48Q277.32 12.48 278.52 13.61Q279.72 14.74 279.72 17.23L279.72 17.23L279.72 25.66L277.20 25.66L277.20 17.59Q277.20 16.08 276.56 15.32Q275.93 14.57 274.54 14.57L274.54 14.57Q272.57 14.57 271.81 15.74Q271.06 16.92 271.06 19.13L271.06 19.13L271.06 25.66L268.51 25.66L268.51 12.72L270.53 12.72L270.89 14.45L271.03 14.45Q271.66 13.44 272.75 12.96Q273.84 12.48 275.06 12.48ZM295.03 19.18L295.03 19.18Q295.03 22.37 293.38 24.13Q291.72 25.90 288.91 25.90L288.91 25.90Q287.18 25.90 285.82 25.12Q284.45 24.34 283.67 22.82Q282.89 21.31 282.89 19.18L282.89 19.18Q282.89 15.96 284.52 14.22Q286.15 12.48 288.98 12.48L288.98 12.48Q290.76 12.48 292.12 13.26Q293.47 14.04 294.25 15.53Q295.03 17.02 295.03 19.18ZM285.50 19.18L285.50 19.18Q285.50 21.34 286.33 22.57Q287.16 23.81 288.96 23.81L288.96 23.81Q290.76 23.81 291.59 22.57Q292.42 21.34 292.42 19.18L292.42 19.18Q292.42 16.99 291.59 15.79Q290.76 14.59 288.94 14.59L288.94 14.59Q287.14 14.59 286.32 15.79Q285.50 16.99 285.50 19.18ZM304.63 12.48L304.63 12.48Q304.97 12.48 305.38 12.52Q305.78 12.55 306.05 12.60L306.05 12.60L305.78 14.98Q305.52 14.90 305.16 14.86Q304.80 14.81 304.49 14.81L304.49 14.81Q303.53 14.81 302.68 15.29Q301.82 15.77 301.31 16.67Q300.79 17.57 300.79 18.84L300.79 18.84L300.79 25.66L298.25 25.66L298.25 12.72L300.26 12.72L300.60 15.02L300.70 15.02Q301.32 13.99 302.30 13.24Q303.29 12.48 304.63 12.48ZM322.94 12.48L322.94 12.48Q325.13 12.48 326.23 13.61Q327.34 14.74 327.34 17.23L327.34 17.23L327.34 25.66L324.79 25.66L324.79 17.57Q324.79 14.57 322.37 14.57L322.37 14.57Q320.64 14.57 319.90 15.64Q319.15 16.70 319.15 18.72L319.15 18.72L319.15 25.66L316.63 25.66L316.63 17.57Q316.63 14.57 314.18 14.57L314.18 14.57Q312.38 14.57 311.69 15.74Q310.99 16.92 310.99 19.13L310.99 19.13L310.99 25.66L308.45 25.66L308.45 12.72L310.46 12.72L310.82 14.45L310.97 14.45Q311.57 13.44 312.59 12.96Q313.61 12.48 314.76 12.48L314.76 12.48Q316.22 12.48 317.23 13.00Q318.24 13.51 318.70 14.57L318.70 14.57L318.89 14.57Q319.51 13.49 320.62 12.98Q321.72 12.48 322.94 12.48ZM336.24 12.48L336.24 12.48Q338.69 12.48 339.89 13.55Q341.09 14.62 341.09 16.90L341.09 16.90L341.09 25.66L339.29 25.66L338.78 23.86L338.69 23.86Q337.85 24.91 336.92 25.40Q336 25.90 334.37 25.90L334.37 25.90Q332.62 25.90 331.46 24.95Q330.31 24 330.31 21.98L330.31 21.98Q330.31 20.02 331.81 18.98Q333.31 17.95 336.38 17.86L336.38 17.86L338.59 17.78L338.59 17.06Q338.59 15.62 337.94 15.05Q337.30 14.47 336.12 14.47L336.12 14.47Q335.11 14.47 334.20 14.76Q333.29 15.05 332.47 15.46L332.47 15.46L331.66 13.61Q332.57 13.13 333.76 12.80Q334.94 12.48 336.24 12.48ZM338.57 19.44L336.84 19.49Q334.63 19.58 333.78 20.22Q332.93 20.86 332.93 22.01L332.93 22.01Q332.93 23.02 333.54 23.47Q334.15 23.93 335.09 23.93L335.09 23.93Q336.60 23.93 337.58 23.09Q338.57 22.25 338.57 20.57L338.57 20.57L338.57 19.44ZM347.54 7.42L347.54 25.66L345.00 25.66L345.00 7.42L347.54 7.42Z"/></svg>