<svg xmlns="http://www.w3.org/2000/svg" xmlns:xlink="http://www.w3.org/1999/xlink" width="179.736" height="28.8"><path fill="black" d="M8.52 8.16Q10.37 8.16 11.57 8.83Q12.77 9.50 12.77 11.02L12.77 11.02Q12.77 12.22 12.01 12.88Q11.26 13.54 10.22 13.54L10.22 13.54Q9.58 13.54 8.95 13.25L8.95 13.25Q9.12 12.86 9.22 12.36Q9.31 11.86 9.31 11.42L9.31 11.42Q9.31 10.61 8.93 10.14Q8.54 9.67 7.80 9.67L7.80 9.67Q6.84 9.67 6.17 10.36Q5.50 11.04 5.50 12L5.50 12Q5.50 12.96 6.17 13.63Q6.84 14.30 8.16 15.12L8.16 15.12Q8.21 15.17 8.62 15.43L8.62 15.43Q10.06 16.42 10.84 17.36Q11.62 18.31 11.62 19.78L11.62 19.78Q11.62 21.34 10.66 22.52Q9.70 23.71 8.10 24.35Q6.50 24.98 4.66 24.98L4.66 24.98Q2.78 24.98 1.44 24.25Q0.10 23.52 0.10 21.91L0.10 21.91Q0.10 20.78 0.78 20.12Q1.46 19.46 2.57 19.46L2.57 19.46Q3.31 19.46 4.01 19.78L4.01 19.78Q3.65 20.66 3.65 21.70L3.65 21.70Q3.65 22.51 4.07 22.94Q4.49 23.38 5.30 23.38L5.30 23.38Q6.34 23.38 7.08 22.75Q7.82 22.13 7.82 21.14L7.82 21.14Q7.82 20.23 7.20 19.58Q6.58 18.94 5.28 18.05L5.28 18.05Q5.14 17.93 5.02 17.86Q4.90 17.78 4.80 17.71L4.80 17.71Q3.36 16.73 2.57 15.74Q1.78 14.76 1.78 13.25L1.78 13.25Q1.78 11.71 2.66 10.56Q3.55 9.41 5.09 8.78Q6.62 8.16 8.52 8.16L8.52 8.16ZM26.09 11.86L24.26 21.43Q24.14 22.15 24.14 22.44L24.14 22.44Q24.14 22.90 24.37 23.18Q24.60 23.47 25.06 23.50L25.06 23.50Q24.86 24.22 24.17 24.59Q23.47 24.96 22.66 24.96L22.66 24.96Q21.91 24.96 21.36 24.61Q20.81 24.26 20.64 23.59L20.64 23.59Q20.09 24.26 19.16 24.61Q18.24 24.96 17.16 24.96L17.16 24.96Q15.22 24.96 14.35 23.78Q13.49 22.61 13.49 20.35L13.49 20.35Q13.49 18.05 14.29 16.09Q15.10 14.14 16.70 12.95Q18.31 11.76 20.57 11.76L20.57 11.76Q21.86 11.76 22.99 12.24L22.99 12.24L26.09 11.86ZM22.03 13.78Q21.70 13.49 21.24 13.34Q20.78 13.20 20.38 13.20L20.38 13.20Q19.25 13.20 18.60 14.34Q17.95 15.48 17.54 17.86L17.54 17.86Q17.11 19.97 17.11 21.46L17.11 21.46Q17.11 22.39 17.40 22.93Q17.69 23.47 18.43 23.47L18.43 23.47Q19.46 23.47 20.06 22.45Q20.66 21.43 20.90 20.04L20.90 20.04L22.03 13.78ZM32.02 14.11Q32.66 12.91 33.76 12.34Q34.85 11.76 36.26 11.76L36.26 11.76Q39.46 11.76 39.46 14.69L39.46 14.69Q39.46 15.53 39.25 16.61Q39.05 17.69 38.66 19.22L38.66 19.22Q38.35 20.50 38.21 21.19Q38.06 21.89 38.06 22.37L38.06 22.37Q38.06 22.87 38.27 23.16Q38.47 23.45 38.98 23.50L38.98 23.50Q38.76 24.22 38.08 24.59Q37.39 24.96 36.53 24.96L36.53 24.96Q35.52 24.96 34.94 24.42Q34.37 23.88 34.37 22.82L34.37 22.82Q34.37 22.18 34.54 21.34Q34.70 20.50 35.11 18.77L35.11 18.77Q35.81 15.94 35.81 15L35.81 15Q35.81 14.35 35.51 13.98Q35.21 13.61 34.61 13.61L34.61 13.61Q33.53 13.61 32.88 14.75Q32.23 15.89 31.92 17.50L31.92 17.50L30.55 24.48L26.81 24.86L29.28 12.24L32.35 11.86L32.02 14.11ZM46.39 22.03Q46.39 21.34 45.88 20.84Q45.36 20.35 44.16 19.54L44.16 19.54Q42.84 18.67 42.22 17.90Q41.59 17.14 41.59 16.03L41.59 16.03Q41.59 14.78 42.35 13.81Q43.10 12.84 44.41 12.30Q45.72 11.76 47.33 11.76L47.33 11.76Q48.89 11.76 49.86 12.30Q50.83 12.84 50.83 14.06L50.83 14.06Q50.83 15.05 50.20 15.60Q49.56 16.15 48.53 16.15L48.53 16.15Q47.83 16.15 47.52 15.89L47.52 15.89Q47.86 15 47.86 14.33L47.86 14.33Q47.86 13.68 47.53 13.33Q47.21 12.98 46.63 12.98L46.63 12.98Q45.86 12.98 45.37 13.50Q44.88 14.02 44.88 14.69L44.88 14.69Q44.88 15.38 45.40 15.89Q45.91 16.39 47.14 17.21L47.14 17.21Q48.43 18.07 49.06 18.82Q49.68 19.56 49.68 20.71L49.68 20.71Q49.68 21.94 48.95 22.91Q48.22 23.88 46.93 24.43Q45.65 24.98 44.06 24.98L44.06 24.98Q42.38 24.98 41.15 24.37Q39.91 23.76 39.91 22.54L39.91 22.54Q39.91 21.62 40.61 21.13Q41.30 20.64 42.26 20.64L42.26 20.64Q43.06 20.64 43.56 20.98L43.56 20.98Q43.22 21.77 43.22 22.34L43.22 22.34Q43.22 22.99 43.56 23.36Q43.90 23.74 44.54 23.74L44.54 23.74Q45.34 23.74 45.86 23.24Q46.39 22.75 46.39 22.03L46.39 22.03ZM55.97 6.79Q56.93 6.79 57.52 7.24Q58.10 7.68 58.10 8.50L58.10 8.50Q58.10 9.34 57.49 9.78Q56.88 10.22 55.90 10.22L55.90 10.22Q54.94 10.22 54.34 9.79Q53.74 9.36 53.74 8.54L53.74 8.54Q53.74 7.70 54.36 7.25Q54.98 6.79 55.97 6.79L55.97 6.79ZM57.14 11.86L55.25 21.43Q55.13 22.08 55.13 22.44L55.13 22.44Q55.13 22.90 55.36 23.18Q55.58 23.47 56.04 23.50L56.04 23.50Q55.82 24.22 55.15 24.59Q54.48 24.96 53.62 24.96L53.62 24.96Q52.61 24.96 52.02 24.43Q51.43 23.90 51.43 22.92L51.43 22.92Q51.43 22.30 51.67 20.93Q51.91 19.56 52.10 18.62L52.10 18.62L53.38 12.24L57.14 11.86ZM64.80 9.74L64.27 12.24L66.14 12.24L65.93 13.32L64.06 13.32L62.47 21.43Q62.35 22.08 62.35 22.44L62.35 22.44Q62.35 22.90 62.58 23.18Q62.81 23.47 63.26 23.50L63.26 23.50Q63.05 24.22 62.38 24.59Q61.70 24.96 60.84 24.96L60.84 24.96Q59.83 24.96 59.24 24.43Q58.66 23.90 58.66 22.90L58.66 22.90Q58.66 21.98 59.04 20.04Q59.42 18.10 59.50 17.74L59.50 17.74L59.69 16.82L60.36 13.32L58.80 13.32L58.90 12.60Q61.51 11.74 63.84 9.74L63.84 9.74L64.80 9.74ZM78.14 11.86L76.32 21.43Q76.20 22.15 76.20 22.44L76.20 22.44Q76.20 22.90 76.43 23.18Q76.66 23.47 77.11 23.50L77.11 23.50Q76.92 24.22 76.22 24.59Q75.53 24.96 74.71 24.96L74.71 24.96Q73.97 24.96 73.42 24.61Q72.86 24.26 72.70 23.59L72.70 23.59Q72.14 24.26 71.22 24.61Q70.30 24.96 69.22 24.96L69.22 24.96Q67.27 24.96 66.41 23.78Q65.54 22.61 65.54 20.35L65.54 20.35Q65.54 18.05 66.35 16.09Q67.15 14.14 68.76 12.95Q70.37 11.76 72.62 11.76L72.62 11.76Q73.92 11.76 75.05 12.24L75.05 12.24L78.14 11.86ZM74.09 13.78Q73.75 13.49 73.30 13.34Q72.84 13.20 72.43 13.20L72.43 13.20Q71.30 13.20 70.66 14.34Q70.01 15.48 69.60 17.86L69.60 17.86Q69.17 19.97 69.17 21.46L69.17 21.46Q69.17 22.39 69.46 22.93Q69.74 23.47 70.49 23.47L70.49 23.47Q71.52 23.47 72.12 22.45Q72.72 21.43 72.96 20.04L72.96 20.04L74.09 13.78ZM96.29 8.64L96.50 10.51Q94.66 12.77 93.55 14.47L93.55 14.47Q91.01 18.36 90.25 20.50Q89.50 22.63 89.50 23.95L89.50 23.95Q89.50 24.31 89.52 24.53L89.52 24.53Q89.02 24.72 88.40 24.84Q87.79 24.96 87.31 24.96L87.31 24.96Q86.30 24.96 85.74 24.42Q85.18 23.88 85.18 22.90L85.18 22.90Q85.18 22.22 85.46 21.50Q85.75 20.78 86.21 20.16L86.21 20.16L92.33 11.64L86.83 11.64Q85.46 11.64 84.67 11.22Q83.88 10.80 83.88 9.72L83.88 9.72Q83.88 8.98 84.38 8.30L84.38 8.30Q84.72 8.50 85.26 8.57Q85.80 8.64 86.69 8.64L86.69 8.64L96.29 8.64ZM104.59 8.16Q107.09 8.16 108.14 9.66Q109.20 11.16 109.20 14.02L109.20 14.02Q109.20 16.78 108.35 19.30Q107.50 21.82 105.72 23.40Q103.94 24.98 101.35 24.98L101.35 24.98Q98.86 24.98 97.80 23.47Q96.74 21.96 96.74 19.10L96.74 19.10Q96.74 16.34 97.60 13.84Q98.45 11.33 100.22 9.74Q102 8.16 104.59 8.16L104.59 8.16ZM104.09 10.03Q102.86 10.03 102.14 11.44Q101.42 12.84 100.90 15.94L100.90 15.94Q100.37 18.70 100.37 20.59L100.37 20.59Q100.37 21.79 100.68 22.44Q100.99 23.09 101.88 23.09L101.88 23.09Q103.10 23.09 103.82 21.68Q104.54 20.28 105.07 17.18L105.07 17.18Q105.60 14.38 105.60 12.50L105.60 12.50Q105.60 11.30 105.29 10.67Q104.98 10.03 104.09 10.03L104.09 10.03ZM118.10 8.16Q120.60 8.16 121.66 9.66Q122.71 11.16 122.71 14.02L122.71 14.02Q122.71 16.78 121.86 19.30Q121.01 21.82 119.23 23.40Q117.46 24.98 114.86 24.98L114.86 24.98Q112.37 24.98 111.31 23.47Q110.26 21.96 110.26 19.10L110.26 19.10Q110.26 16.34 111.11 13.84Q111.96 11.33 113.74 9.74Q115.51 8.16 118.10 8.16L118.10 8.16ZM117.60 10.03Q116.38 10.03 115.66 11.44Q114.94 12.84 114.41 15.94L114.41 15.94Q113.88 18.70 113.88 20.59L113.88 20.59Q113.88 21.79 114.19 22.44Q114.50 23.09 115.39 23.09L115.39 23.09Q116.62 23.09 117.34 21.68Q118.06 20.28 118.58 17.18L118.58 17.18Q119.11 14.38 119.11 12.50L119.11 12.50Q119.11 11.30 118.80 10.67Q118.49 10.03 117.60 10.03L117.60 10.03ZM132.60 6.79Q133.56 6.79 134.15 7.24Q134.74 7.68 134.74 8.50L134.74 8.50Q134.74 9.34 134.12 9.78Q133.51 10.22 132.53 10.22L132.53 10.22Q131.57 10.22 130.97 9.79Q130.37 9.36 130.37 8.54L130.37 8.54Q130.37 7.70 130.99 7.25Q131.62 6.79 132.60 6.79L132.60 6.79ZM133.78 11.86L131.88 21.43Q131.76 22.08 131.76 22.44L131.76 22.44Q131.76 22.90 131.99 23.18Q132.22 23.47 132.67 23.50L132.67 23.50Q132.46 24.22 131.78 24.59Q131.11 24.96 130.25 24.96L130.25 24.96Q129.24 24.96 128.65 24.43Q128.06 23.90 128.06 22.92L128.06 22.92Q128.06 22.30 128.30 20.93Q128.54 19.56 128.74 18.62L128.74 18.62L130.01 12.24L133.78 11.86ZM141.43 9.74L140.90 12.24L142.78 12.24L142.56 13.32L140.69 13.32L139.10 21.43Q138.98 22.08 138.98 22.44L138.98 22.44Q138.98 22.90 139.21 23.18Q139.44 23.47 139.90 23.50L139.90 23.50Q139.68 24.22 139.01 24.59Q138.34 24.96 137.47 24.96L137.47 24.96Q136.46 24.96 135.88 24.43Q135.29 23.90 135.29 22.90L135.29 22.90Q135.29 21.98 135.67 20.04Q136.06 18.10 136.13 17.74L136.13 17.74L136.32 16.82L136.99 13.32L135.43 13.32L135.53 12.60Q138.14 11.74 140.47 9.74L140.47 9.74L141.43 9.74ZM154.78 11.86L152.95 21.43Q152.83 22.15 152.83 22.44L152.83 22.44Q152.83 22.90 153.06 23.18Q153.29 23.47 153.74 23.50L153.74 23.50Q153.55 24.22 152.86 24.59Q152.16 24.96 151.34 24.96L151.34 24.96Q150.60 24.96 150.05 24.61Q149.50 24.26 149.33 23.59L149.33 23.59Q148.78 24.26 147.85 24.61Q146.93 24.96 145.85 24.96L145.85 24.96Q143.90 24.96 143.04 23.78Q142.18 22.61 142.18 20.35L142.18 20.35Q142.18 18.05 142.98 16.09Q143.78 14.14 145.39 12.95Q147 11.76 149.26 11.76L149.26 11.76Q150.55 11.76 151.68 12.24L151.68 12.24L154.78 11.86ZM150.72 13.78Q150.38 13.49 149.93 13.34Q149.47 13.20 149.06 13.20L149.06 13.20Q147.94 13.20 147.29 14.34Q146.64 15.48 146.23 17.86L146.23 17.86Q145.80 19.97 145.80 21.46L145.80 21.46Q145.80 22.39 146.09 22.93Q146.38 23.47 147.12 23.47L147.12 23.47Q148.15 23.47 148.75 22.45Q149.35 21.43 149.59 20.04L149.59 20.04L150.72 13.78ZM162.29 7.30L159.50 21.43Q159.38 22.08 159.38 22.44L159.38 22.44Q159.38 22.90 159.61 23.18Q159.84 23.47 160.30 23.50L160.30 23.50Q160.08 24.22 159.41 24.59Q158.74 24.96 157.87 24.96L157.87 24.96Q156.86 24.96 156.28 24.43Q155.69 23.90 155.69 22.92L155.69 22.92Q155.69 22.30 155.93 20.93Q156.17 19.56 156.36 18.62L156.36 18.62L158.50 7.68L162.29 7.30ZM167.14 6.79Q168.10 6.79 168.68 7.24Q169.27 7.68 169.27 8.50L169.27 8.50Q169.27 9.34 168.66 9.78Q168.05 10.22 167.06 10.22L167.06 10.22Q166.10 10.22 165.50 9.79Q164.90 9.36 164.90 8.54L164.90 8.54Q164.90 7.70 165.53 7.25Q166.15 6.79 167.14 6.79L167.14 6.79ZM168.31 11.86L166.42 21.43Q166.30 22.08 166.30 22.44L166.30 22.44Q166.30 22.90 166.52 23.18Q166.75 23.47 167.21 23.50L167.21 23.50Q166.99 24.22 166.32 24.59Q165.65 24.96 164.78 24.96L164.78 24.96Q163.78 24.96 163.19 24.43Q162.60 23.90 162.60 22.92L162.60 22.92Q162.60 22.30 162.84 20.93Q163.08 19.56 163.27 18.62L163.27 18.62L164.54 12.24L168.31 11.86ZM176.54 11.76Q178.20 11.76 179.18 12.38Q180.17 13.01 180.17 14.30L180.17 14.30Q180.17 15.41 179.47 15.98Q178.78 16.56 177.74 16.56L177.74 16.56Q177.02 16.56 176.71 16.30L176.71 16.30Q176.88 15.86 176.99 15.29Q177.10 14.71 177.10 14.28L177.10 14.28Q177.10 13.18 176.16 13.18L176.16 13.18Q175.18 13.18 174.42 14.34Q173.66 15.50 173.27 17.10Q172.87 18.70 172.87 19.92L172.87 19.92Q172.87 21.12 173.34 21.78Q173.81 22.44 174.89 22.44L174.89 22.44Q175.90 22.44 176.70 21.86Q177.50 21.29 177.86 20.33L177.86 20.33Q178.32 20.52 178.52 20.84Q178.73 21.17 178.73 21.67L178.73 21.67Q178.73 22.63 178.06 23.38Q177.38 24.12 176.26 24.54Q175.13 24.96 173.78 24.96L173.78 24.96Q171.55 24.96 170.39 23.70Q169.22 22.44 169.22 19.92L169.22 19.92Q169.22 17.71 170.10 15.84Q170.98 13.97 172.63 12.86Q174.29 11.76 176.54 11.76L176.54 11.76Z"/></svg>