<svg xmlns="http://www.w3.org/2000/svg" xmlns:xlink="http://www.w3.org/1999/xlink" width="187.82399999999996" height="31.2"><path fill="black" d="M5.42 25.87Q3.77 25.87 2.41 25.19Q1.06 24.50 0.41 23.38L0.41 23.38L1.68 22.30Q2.28 23.23 3.31 23.81Q4.34 24.38 5.47 24.38L5.47 24.38Q7.20 24.38 8.33 23.45Q9.46 22.51 9.46 21.02L9.46 21.02Q9.46 19.94 8.72 19.15Q7.99 18.36 6.53 17.57L6.53 17.57Q4.63 16.54 3.68 15.47Q2.74 14.40 2.74 13.06L2.74 13.06Q2.74 11.71 3.43 10.70Q4.13 9.70 5.35 9.14Q6.58 8.59 8.14 8.59L8.14 8.59Q9.77 8.59 11.04 9.30Q12.31 10.01 12.72 11.14L12.72 11.14L11.38 11.98Q10.97 11.11 10.09 10.60Q9.22 10.08 8.14 10.08L8.14 10.08Q6.58 10.08 5.56 10.87Q4.54 11.66 4.54 12.94L4.54 12.94Q4.54 13.82 5.28 14.52Q6.02 15.22 7.94 16.30L7.94 16.30Q11.28 18.12 11.28 20.86L11.28 20.86Q11.28 22.37 10.54 23.50Q9.79 24.62 8.47 25.25Q7.15 25.87 5.42 25.87L5.42 25.87ZM17.54 25.87Q15.60 25.87 14.48 24.61Q13.37 23.35 13.37 21.17L13.37 21.17Q13.37 18.94 14.15 17.16Q14.93 15.38 16.33 14.39Q17.74 13.39 19.51 13.39L19.51 13.39Q20.76 13.39 21.70 13.93Q22.63 14.47 23.02 15.43L23.02 15.43L23.06 15.43L23.62 13.63L24.98 13.63L23.40 22.66Q23.06 24.41 22.92 25.63L22.92 25.63L21.43 25.63Q21.62 24.17 21.72 23.62L21.72 23.62L21.67 23.62Q20.93 24.67 19.84 25.27Q18.74 25.87 17.54 25.87L17.54 25.87ZM17.83 24.50Q19.44 24.50 20.60 23.48Q21.77 22.46 22.06 20.83L22.06 20.83L22.42 18.74Q22.51 18.26 22.51 17.74L22.51 17.74Q22.51 16.32 21.73 15.52Q20.95 14.71 19.58 14.71L19.58 14.71Q18.31 14.71 17.27 15.54Q16.22 16.37 15.64 17.82Q15.05 19.27 15.05 21.05L15.05 21.05Q15.05 22.68 15.78 23.59Q16.51 24.50 17.83 24.50L17.83 24.50ZM26.18 25.63L27.79 16.56Q28.15 14.47 28.22 13.63L28.22 13.63L29.76 13.63Q29.69 14.69 29.50 15.74L29.50 15.74L29.42 16.03L29.50 16.03Q30.84 13.39 33.65 13.39L33.65 13.39Q34.08 13.39 34.32 13.46L34.32 13.46L34.08 14.86Q33.70 14.81 33.31 14.81L33.31 14.81Q32.33 14.81 31.40 15.41Q30.48 16.01 29.83 17.06Q29.18 18.12 28.94 19.39L28.94 19.39L27.84 25.63L26.18 25.63ZM38.47 25.87Q36.53 25.87 35.41 24.61Q34.30 23.35 34.30 21.17L34.30 21.17Q34.30 18.94 35.08 17.16Q35.86 15.38 37.26 14.39Q38.66 13.39 40.44 13.39L40.44 13.39Q41.69 13.39 42.62 13.93Q43.56 14.47 43.94 15.43L43.94 15.43L43.99 15.43L44.54 13.63L45.91 13.63L44.33 22.66Q43.99 24.41 43.85 25.63L43.85 25.63L42.36 25.63Q42.55 24.17 42.65 23.62L42.65 23.62L42.60 23.62Q41.86 24.67 40.76 25.27Q39.67 25.87 38.47 25.87L38.47 25.87ZM38.76 24.50Q40.37 24.50 41.53 23.48Q42.70 22.46 42.98 20.83L42.98 20.83L43.34 18.74Q43.44 18.26 43.44 17.74L43.44 17.74Q43.44 16.32 42.66 15.52Q41.88 14.71 40.51 14.71L40.51 14.71Q39.24 14.71 38.20 15.54Q37.15 16.37 36.56 17.82Q35.98 19.27 35.98 21.05L35.98 21.05Q35.98 22.68 36.71 23.59Q37.44 24.50 38.76 24.50L38.76 24.50ZM52.42 25.87Q51.19 25.87 50.20 25.24Q49.20 24.60 48.86 23.62L48.86 23.62L48.82 23.62Q48.65 24.72 48.41 25.63L48.41 25.63L46.92 25.63Q47.33 23.71 47.50 22.66L47.50 22.66L50.14 7.82L51.79 7.82L50.45 15.38L50.50 15.38Q51.84 13.39 54.46 13.39L54.46 13.39Q56.38 13.39 57.52 14.63Q58.66 15.86 58.66 18L58.66 18Q58.66 20.16 57.85 21.96Q57.05 23.76 55.62 24.82Q54.19 25.87 52.42 25.87L52.42 25.87ZM52.32 24.50Q53.64 24.50 54.70 23.63Q55.75 22.75 56.35 21.28Q56.95 19.80 56.95 18.10L56.95 18.10Q56.95 16.46 56.21 15.59Q55.46 14.71 54.10 14.71L54.10 14.71Q52.51 14.71 51.34 15.82Q50.16 16.92 49.85 18.74L49.85 18.74L49.49 20.83Q49.42 21.26 49.42 21.65L49.42 21.65Q49.42 22.97 50.21 23.74Q51 24.50 52.32 24.50L52.32 24.50ZM64.08 25.87Q62.38 25.87 61.48 24.98Q60.58 24.10 60.58 22.32L60.58 22.32Q60.58 21.77 60.74 20.71L60.74 20.71L61.99 13.63L63.65 13.63L62.42 20.69Q62.28 21.43 62.28 22.03L62.28 22.03Q62.28 24.50 64.56 24.50L64.56 24.50Q65.64 24.50 66.60 23.95Q67.56 23.40 68.22 22.42Q68.88 21.43 69.10 20.21L69.10 20.21L70.25 13.63L71.90 13.63L70.22 23.23Q70.01 24.38 70.01 25.63L70.01 25.63L68.52 25.63L68.50 25.15Q68.50 24.67 68.66 23.38L68.66 23.38L68.57 23.38Q67.82 24.55 66.62 25.21Q65.42 25.87 64.08 25.87L64.08 25.87ZM73.06 25.63L74.66 16.61Q75.05 14.26 75.10 13.63L75.10 13.63L76.61 13.63Q76.56 14.52 76.30 15.91L76.30 15.91L76.37 15.91Q77.06 14.74 78.25 14.06Q79.44 13.39 80.81 13.39L80.81 13.39Q82.56 13.39 83.46 14.34Q84.36 15.29 84.36 17.11L84.36 17.11Q84.36 17.95 84.19 18.82L84.19 18.82L82.99 25.63L81.34 25.63L82.54 18.79Q82.68 17.95 82.68 17.28L82.68 17.28Q82.68 14.76 80.45 14.76L80.45 14.76Q79.37 14.76 78.40 15.31Q77.42 15.86 76.76 16.85Q76.10 17.83 75.89 19.08L75.89 19.08L74.74 25.63L73.06 25.63ZM96.96 25.87Q95.21 25.87 93.89 25.21Q92.57 24.55 92.09 23.45L92.09 23.45L93.22 22.37Q93.65 23.28 94.68 23.83Q95.71 24.38 97.01 24.38L97.01 24.38Q98.26 24.38 99.26 23.87Q100.27 23.35 100.86 22.45Q101.45 21.55 101.45 20.50L101.45 20.50Q101.45 19.13 100.32 18.36Q99.19 17.59 97.18 17.59L97.18 17.59L96.50 17.59L96.77 16.08L97.42 16.08Q98.76 16.08 99.89 15.55Q101.02 15.02 101.66 14.12Q102.31 13.22 102.31 12.17L102.31 12.17Q102.31 11.16 101.63 10.62Q100.94 10.08 99.67 10.08L99.67 10.08Q98.40 10.08 97.21 10.62Q96.02 11.16 95.23 12.10L95.23 12.10L94.51 11.02Q95.38 9.89 96.82 9.24Q98.26 8.59 99.89 8.59L99.89 8.59Q101.81 8.59 102.96 9.49Q104.11 10.39 104.11 11.90L104.11 11.90Q104.11 13.51 102.95 14.87Q101.78 16.22 99.91 16.78L99.91 16.78Q101.52 17.09 102.38 18.05Q103.25 19.01 103.25 20.42L103.25 20.42Q103.25 21.96 102.44 23.21Q101.64 24.46 100.21 25.16Q98.78 25.87 96.96 25.87L96.96 25.87ZM110.26 25.87Q108.94 25.87 107.92 25.20Q106.90 24.53 106.33 23.27Q105.77 22.01 105.77 20.28L105.77 20.28Q105.77 16.92 106.68 14.26Q107.59 11.59 109.22 10.09Q110.86 8.59 112.94 8.59L112.94 8.59Q114.26 8.59 115.28 9.26Q116.30 9.94 116.87 11.20Q117.43 12.46 117.43 14.14L117.43 14.14Q117.43 17.52 116.52 20.18Q115.61 22.85 113.98 24.36Q112.34 25.87 110.26 25.87L110.26 25.87ZM110.33 24.48Q111.84 24.48 113.05 23.14Q114.26 21.79 114.96 19.43Q115.66 17.06 115.66 14.16L115.66 14.16Q115.66 12.24 114.91 11.11Q114.17 9.98 112.90 9.98L112.90 9.98Q111.38 9.98 110.16 11.32Q108.94 12.65 108.24 14.99Q107.54 17.33 107.54 20.26L107.54 20.26Q107.54 22.22 108.30 23.35Q109.06 24.48 110.33 24.48L110.33 24.48ZM123.34 25.87Q122.02 25.87 121.00 25.20Q119.98 24.53 119.41 23.27Q118.85 22.01 118.85 20.28L118.85 20.28Q118.85 16.92 119.76 14.26Q120.67 11.59 122.30 10.09Q123.94 8.59 126.02 8.59L126.02 8.59Q127.34 8.59 128.36 9.26Q129.38 9.94 129.95 11.20Q130.51 12.46 130.51 14.14L130.51 14.14Q130.51 17.52 129.60 20.18Q128.69 22.85 127.06 24.36Q125.42 25.87 123.34 25.87L123.34 25.87ZM123.41 24.48Q124.92 24.48 126.13 23.14Q127.34 21.79 128.04 19.43Q128.74 17.06 128.74 14.16L128.74 14.16Q128.74 12.24 127.99 11.11Q127.25 9.98 125.98 9.98L125.98 9.98Q124.46 9.98 123.24 11.32Q122.02 12.65 121.32 14.99Q120.62 17.33 120.62 20.26L120.62 20.26Q120.62 22.22 121.38 23.35Q122.14 24.48 123.41 24.48L123.41 24.48ZM141.02 11.30Q140.54 11.30 140.24 11.03Q139.94 10.75 139.94 10.34L139.94 10.34Q139.94 9.70 140.36 9.26Q140.78 8.83 141.46 8.83L141.46 8.83Q141.94 8.83 142.25 9.10Q142.56 9.36 142.56 9.82L142.56 9.82Q142.56 10.44 142.13 10.87Q141.70 11.30 141.02 11.30L141.02 11.30ZM137.66 25.63L139.78 13.63L141.46 13.63L139.34 25.63L137.66 25.63ZM147.00 25.87Q145.68 25.87 144.95 25.18Q144.22 24.48 144.22 23.16L144.22 23.16Q144.22 22.90 144.31 22.22L144.31 22.22L145.61 14.95L143.45 14.95L143.69 13.63L145.85 13.63L146.42 10.39L148.08 9.89L148.18 9.89L147.53 13.63L150.91 13.63L150.67 14.95L147.29 14.95L146.04 21.94Q145.94 22.42 145.94 22.90L145.94 22.90Q145.94 23.69 146.30 24.10Q146.66 24.50 147.48 24.50L147.48 24.50Q148.42 24.50 149.16 24.22L149.16 24.22L149.09 25.49Q148.22 25.87 147.00 25.87L147.00 25.87ZM156.05 25.87Q154.10 25.87 152.99 24.61Q151.87 23.35 151.87 21.17L151.87 21.17Q151.87 18.94 152.65 17.16Q153.43 15.38 154.84 14.39Q156.24 13.39 158.02 13.39L158.02 13.39Q159.26 13.39 160.20 13.93Q161.14 14.47 161.52 15.43L161.52 15.43L161.57 15.43L162.12 13.63L163.49 13.63L161.90 22.66Q161.57 24.41 161.42 25.63L161.42 25.63L159.94 25.63Q160.13 24.17 160.22 23.62L160.22 23.62L160.18 23.62Q159.43 24.67 158.34 25.27Q157.25 25.87 156.05 25.87L156.05 25.87ZM156.34 24.50Q157.94 24.50 159.11 23.48Q160.27 22.46 160.56 20.83L160.56 20.83L160.92 18.74Q161.02 18.26 161.02 17.74L161.02 17.74Q161.02 16.32 160.24 15.52Q159.46 14.71 158.09 14.71L158.09 14.71Q156.82 14.71 155.77 15.54Q154.73 16.37 154.14 17.82Q153.55 19.27 153.55 21.05L153.55 21.05Q153.55 22.68 154.28 23.59Q155.02 24.50 156.34 24.50L156.34 24.50ZM167.16 25.87Q165.14 25.87 165.14 23.86L165.14 23.86Q165.14 23.62 165.24 22.94L165.24 22.94L167.90 7.82L169.56 7.82L166.92 22.85Q166.85 23.28 166.85 23.57L166.85 23.57Q166.85 24.12 167.09 24.35Q167.33 24.58 167.88 24.58L167.88 24.58Q168.36 24.58 169.08 24.31L169.08 24.31L169.18 25.34Q168.77 25.58 168.23 25.73Q167.69 25.87 167.16 25.87L167.16 25.87ZM175.25 11.30Q174.77 11.30 174.47 11.03Q174.17 10.75 174.17 10.34L174.17 10.34Q174.17 9.70 174.59 9.26Q175.01 8.83 175.68 8.83L175.68 8.83Q176.16 8.83 176.47 9.10Q176.78 9.36 176.78 9.82L176.78 9.82Q176.78 10.44 176.35 10.87Q175.92 11.30 175.25 11.30L175.25 11.30ZM171.89 25.63L174.00 13.63L175.68 13.63L173.57 25.63L171.89 25.63ZM182.06 25.87Q179.86 25.87 178.61 24.64Q177.36 23.40 177.36 21.22L177.36 21.22Q177.36 18.94 178.19 17.16Q179.02 15.38 180.52 14.39Q182.02 13.39 183.96 13.39L183.96 13.39Q185.42 13.39 186.52 13.98Q187.61 14.57 188.11 15.62L188.11 15.62L186.94 16.56Q186.55 15.72 185.75 15.24Q184.94 14.76 183.91 14.76L183.91 14.76Q182.54 14.76 181.43 15.58Q180.31 16.39 179.68 17.83Q179.04 19.27 179.04 21.02L179.04 21.02Q179.04 22.68 179.87 23.59Q180.70 24.50 182.18 24.50L182.18 24.50Q183.24 24.50 184.20 24.04Q185.16 23.57 185.83 22.70L185.83 22.70L186.67 23.64Q184.87 25.87 182.06 25.87L182.06 25.87Z"/></svg>