<svg xmlns="http://www.w3.org/2000/svg" xmlns:xlink="http://www.w3.org/1999/xlink" width="168.84000000000003" height="27.072"><path fill="black" d="M4.03 13.75L4.13 13.34Q4.37 13.44 5.08 13.54Q5.78 13.63 6.53 13.63L6.53 13.63Q7.99 13.63 9.11 13.02Q10.22 12.41 10.86 11.32Q11.50 10.22 11.50 8.83L11.50 8.83Q11.50 7.27 10.60 6.46Q9.70 5.64 7.99 5.64L7.99 5.64Q7.42 5.64 6.64 5.74Q5.86 5.83 5.28 5.98L5.28 5.98L5.54 5.69L3.26 20.06L3.07 19.78L4.99 20.16Q4.92 20.59 4.54 20.59L4.54 20.59L0.91 20.59Q0.94 20.40 1.03 20.28Q1.13 20.16 1.34 20.11L1.34 20.11L2.86 19.78L2.52 20.04L4.80 5.74L4.99 6.02L3.31 5.64Q3.36 5.38 3.44 5.29Q3.53 5.21 3.74 5.21L3.74 5.21L8.59 5.21Q10.39 5.21 11.42 6.10Q12.46 6.98 12.46 8.54L12.46 8.54Q12.46 10.06 11.64 11.30Q10.82 12.55 9.44 13.30Q8.06 14.04 6.36 14.04L6.36 14.04Q5.76 14.04 5.08 13.96Q4.39 13.87 4.03 13.75L4.03 13.75ZM16.82 20.88L16.82 20.88Q15.17 20.88 14.44 19.80Q13.70 18.72 13.70 16.87L13.70 16.87Q13.70 15.58 14.12 14.27Q14.54 12.96 15.32 11.88Q16.10 10.80 17.17 10.15Q18.24 9.50 19.51 9.50L19.51 9.50Q20.74 9.50 21.38 10.10Q22.03 10.70 22.03 11.69L22.03 11.69Q22.03 12.82 21.13 13.76Q20.23 14.71 18.48 15.28Q16.73 15.84 14.21 15.84L14.21 15.84L14.26 15.53Q15.48 15.53 16.69 15.31Q17.90 15.10 18.92 14.64Q19.94 14.18 20.56 13.44Q21.17 12.70 21.17 11.62L21.17 11.62Q21.17 10.80 20.63 10.34Q20.09 9.89 19.22 9.89L19.22 9.89Q18.05 9.89 17.16 10.51Q16.27 11.14 15.67 12.14Q15.07 13.15 14.77 14.35Q14.47 15.55 14.47 16.70L14.47 16.70Q14.47 18.34 15.20 19.34Q15.94 20.35 17.21 20.35L17.21 20.35Q18.12 20.35 18.95 19.81Q19.78 19.27 20.66 18.14L20.66 18.14L20.88 18.36Q19.99 19.61 19.01 20.24Q18.02 20.88 16.82 20.88ZM25.92 20.88L25.92 20.88Q25.32 20.88 24.98 20.42Q24.65 19.97 24.65 19.13L24.65 19.13Q24.65 18.82 24.77 17.90Q24.89 16.99 25.10 15.71Q25.32 14.42 25.56 12.96Q25.80 11.50 26.05 10.04Q26.30 8.59 26.50 7.39L26.50 7.39Q26.69 7.20 26.84 7.09Q27 6.98 27.24 6.94L27.24 6.94Q27.05 8.06 26.80 9.52Q26.54 10.97 26.29 12.50Q26.04 14.04 25.81 15.41Q25.58 16.78 25.45 17.74Q25.32 18.70 25.32 18.98L25.32 18.98Q25.32 20.18 26.21 20.18L26.21 20.18Q26.81 20.18 27.48 19.82Q28.15 19.46 28.70 18.84L28.70 18.84L28.92 19.10Q28.46 19.66 27.95 20.05Q27.43 20.45 26.92 20.66Q26.40 20.88 25.92 20.88ZM29.50 10.56L29.50 10.56L24.19 10.44Q24.22 10.32 24.28 10.21Q24.34 10.10 24.38 10.08L24.38 10.08L29.88 9.82Q29.88 9.94 29.83 10.09Q29.78 10.25 29.70 10.38Q29.62 10.51 29.50 10.56ZM32.40 20.88L32.40 20.88Q32.23 20.88 32.17 20.81Q32.11 20.74 32.11 20.59L32.11 20.59Q32.11 20.26 32.27 19.37Q32.42 18.48 32.65 17.27Q32.88 16.06 33.11 14.72Q33.34 13.39 33.49 12.13Q33.65 10.87 33.65 9.91L33.65 9.91L34.01 10.34Q33.79 10.22 33.59 10.19Q33.38 10.15 33.19 10.15L33.19 10.15Q32.81 10.15 32.46 10.25Q32.11 10.34 31.78 10.54L31.78 10.54L31.68 10.27Q32.11 9.86 32.52 9.68Q32.93 9.50 33.31 9.50L33.31 9.50Q33.86 9.50 34.06 9.73Q34.25 9.96 34.25 10.37L34.25 10.37Q34.25 10.87 34.21 11.24Q34.18 11.62 34.06 12.24L34.06 12.24L34.15 12.24Q34.63 11.18 35.46 10.33Q36.29 9.48 37.39 9.48L37.39 9.48Q38.06 9.48 38.41 9.84Q38.76 10.20 38.76 10.82L38.76 10.82Q38.76 11.38 38.48 11.71Q38.21 12.05 37.85 12.05L37.85 12.05Q37.90 11.86 37.93 11.63Q37.97 11.40 37.97 11.18L37.97 11.18Q37.97 10.78 37.78 10.46Q37.58 10.15 37.01 10.15L37.01 10.15Q35.93 10.15 35.02 11.34Q34.10 12.53 33.74 14.71L33.74 14.71L32.88 20.09L32.88 19.15L33.26 20.69Q33.07 20.78 32.83 20.83Q32.59 20.88 32.40 20.88ZM42.70 20.88L42.70 20.88Q41.28 20.88 40.51 19.84Q39.74 18.79 39.74 16.85L39.74 16.85Q39.74 15.36 40.19 14.04Q40.63 12.72 41.41 11.70Q42.19 10.68 43.20 10.09Q44.21 9.50 45.34 9.50L45.34 9.50Q46.82 9.50 47.64 10.60Q48.46 11.69 48.46 13.66L48.46 13.66Q48.46 15.10 47.99 16.39Q47.52 17.69 46.72 18.70Q45.91 19.70 44.88 20.29Q43.85 20.88 42.70 20.88ZM43.06 20.42L43.06 20.42Q44.33 20.42 45.38 19.51Q46.44 18.60 47.08 17.09Q47.71 15.58 47.71 13.80L47.71 13.80Q47.71 12.02 46.98 10.98Q46.25 9.94 45 9.94L45 9.94Q44.11 9.94 43.30 10.48Q42.48 11.02 41.84 11.96Q41.21 12.91 40.85 14.12Q40.49 15.34 40.49 16.70L40.49 16.70Q40.49 18.46 41.17 19.44Q41.86 20.42 43.06 20.42ZM52.18 20.88L52.18 20.88Q52.01 20.88 51.95 20.81Q51.89 20.74 51.89 20.59L51.89 20.59Q51.89 20.26 52.04 19.37Q52.20 18.48 52.43 17.27Q52.66 16.06 52.88 14.72Q53.11 13.39 53.27 12.13Q53.42 10.87 53.42 9.91L53.42 9.91L53.78 10.34Q53.57 10.22 53.36 10.19Q53.16 10.15 52.97 10.15L52.97 10.15Q52.58 10.15 52.24 10.25Q51.89 10.34 51.55 10.54L51.55 10.54L51.46 10.27Q51.89 9.86 52.30 9.68Q52.70 9.50 53.09 9.50L53.09 9.50Q53.64 9.50 53.83 9.73Q54.02 9.96 54.02 10.37L54.02 10.37Q54.02 10.73 54.01 10.97Q54 11.21 53.95 11.69L53.95 11.69L54.07 11.69Q54.98 10.68 56.03 10.09Q57.07 9.50 57.84 9.50L57.84 9.50Q58.63 9.50 59.17 9.84Q59.71 10.18 60 10.74Q60.29 11.30 60.29 12.05L60.29 12.05Q60.29 13.13 60.07 14.16Q59.86 15.19 59.57 16.15Q59.28 17.11 59.06 17.94Q58.85 18.77 58.85 19.46L58.85 19.46Q58.85 20.14 59.40 20.14L59.40 20.14Q59.74 20.14 59.99 20.03Q60.24 19.92 60.55 19.73L60.55 19.73L60.67 19.99Q60.26 20.40 59.96 20.59Q59.66 20.78 59.44 20.83Q59.21 20.88 58.99 20.88L58.99 20.88Q58.63 20.88 58.39 20.54Q58.15 20.21 58.15 19.54L58.15 19.54Q58.15 18.55 58.52 17.38Q58.90 16.20 59.27 14.87Q59.64 13.54 59.64 12.10L59.64 12.10Q59.64 11.30 59.16 10.69Q58.68 10.08 57.72 10.08L57.72 10.08Q56.78 10.08 55.91 10.62Q55.03 11.16 53.93 12.17L53.93 12.17L52.66 20.09L52.66 19.15L53.04 20.69Q52.85 20.78 52.61 20.83Q52.37 20.88 52.18 20.88ZM66.65 20.88L66.65 20.88Q65.21 20.88 64.44 19.84Q63.67 18.79 63.67 16.82L63.67 16.82Q63.67 15.26 64.13 13.93Q64.58 12.60 65.41 11.60Q66.24 10.61 67.36 10.06Q68.47 9.50 69.77 9.50L69.77 9.50Q70.46 9.50 71.05 9.66Q71.64 9.82 72.14 10.15L72.14 10.15L72.10 10.44Q71.76 10.25 71.18 10.09Q70.61 9.94 69.86 9.94L69.86 9.94Q68.74 9.94 67.75 10.43Q66.77 10.92 66.02 11.81Q65.28 12.70 64.86 13.93Q64.44 15.17 64.44 16.68L64.44 16.68Q64.44 17.42 64.66 18.29Q64.87 19.15 65.40 19.75Q65.93 20.35 66.86 20.35L66.86 20.35Q67.78 20.35 68.45 19.82Q69.12 19.30 69.66 18.11Q70.20 16.92 70.70 14.95Q71.21 12.98 71.76 10.10L71.76 10.10L72.12 9.50Q72.31 9.50 72.42 9.54Q72.53 9.58 72.53 9.70L72.53 9.70Q72.53 9.82 72.36 10.56Q72.19 11.30 71.95 12.43Q71.71 13.56 71.46 14.83Q71.21 16.10 71.04 17.33Q70.87 18.55 70.87 19.46L70.87 19.46Q70.87 19.82 70.99 19.98Q71.11 20.14 71.42 20.14L71.42 20.14Q71.76 20.14 72.01 20.03Q72.26 19.92 72.58 19.73L72.58 19.73L72.70 19.99Q72.10 20.59 71.72 20.74Q71.35 20.88 71.02 20.88L71.02 20.88Q70.66 20.88 70.42 20.54Q70.18 20.21 70.18 19.54L70.18 19.54Q70.18 19.06 70.22 18.58Q70.27 18.10 70.34 17.64L70.34 17.64L70.20 17.64Q69.67 19.20 68.76 20.04Q67.85 20.88 66.65 20.88ZM85.22 20.59L80.93 20.59Q80.98 20.38 81.07 20.26Q81.17 20.14 81.36 20.11L81.36 20.11L83.28 19.78L82.94 20.04L85.22 5.66L85.58 5.81L82.27 6.53Q82.22 6.48 82.22 6.36L82.22 6.36Q82.22 6.26 82.27 6.17L82.27 6.17L85.87 4.87L86.09 4.87L83.69 20.06L83.50 19.78L85.68 20.16Q85.66 20.40 85.56 20.50Q85.46 20.59 85.22 20.59L85.22 20.59ZM93.26 20.88L93.26 20.88Q91.30 20.88 90.18 19.43Q89.06 17.98 89.06 15.43L89.06 15.43Q89.06 13.37 89.69 11.47Q90.31 9.58 91.38 8.09Q92.45 6.60 93.80 5.74Q95.16 4.87 96.65 4.87L96.65 4.87Q98.64 4.87 99.73 6.30Q100.82 7.73 100.82 10.30L100.82 10.30Q100.82 12.36 100.20 14.27Q99.58 16.18 98.52 17.66Q97.46 19.15 96.11 20.02Q94.75 20.88 93.26 20.88ZM93.50 20.30L93.50 20.30Q94.87 20.30 96.05 19.56Q97.22 18.82 98.09 17.46Q98.95 16.10 99.43 14.29Q99.91 12.48 99.91 10.37L99.91 10.37Q99.91 7.94 99.02 6.70Q98.14 5.45 96.41 5.45L96.41 5.45Q95.04 5.45 93.88 6.19Q92.71 6.94 91.84 8.28Q90.96 9.62 90.48 11.42Q90 13.22 90 15.34L90 15.34Q90 17.81 90.89 19.06Q91.78 20.30 93.50 20.30ZM107.64 20.88L107.64 20.88Q105.67 20.88 104.56 19.43Q103.44 17.98 103.44 15.43L103.44 15.43Q103.44 13.37 104.06 11.47Q104.69 9.58 105.76 8.09Q106.82 6.60 108.18 5.74Q109.54 4.87 111.02 4.87L111.02 4.87Q113.02 4.87 114.11 6.30Q115.20 7.73 115.20 10.30L115.20 10.30Q115.20 12.36 114.58 14.27Q113.95 16.18 112.90 17.66Q111.84 19.15 110.48 20.02Q109.13 20.88 107.64 20.88ZM107.88 20.30L107.88 20.30Q109.25 20.30 110.42 19.56Q111.60 18.82 112.46 17.46Q113.33 16.10 113.81 14.29Q114.29 12.48 114.29 10.37L114.29 10.37Q114.29 7.94 113.40 6.70Q112.51 5.45 110.78 5.45L110.78 5.45Q109.42 5.45 108.25 6.19Q107.09 6.94 106.21 8.28Q105.34 9.62 104.86 11.42Q104.38 13.22 104.38 15.34L104.38 15.34Q104.38 17.81 105.26 19.06Q106.15 20.30 107.88 20.30ZM124.49 20.88L124.49 20.88Q124.13 20.88 123.89 20.54Q123.65 20.21 123.65 19.54L123.65 19.54Q123.65 19.22 123.78 18.47Q123.91 17.71 124.14 16.68Q124.37 15.65 124.63 14.48Q124.90 13.32 125.15 12.16Q125.40 10.99 125.59 9.98L125.59 9.98L125.74 10.34Q125.52 10.22 125.32 10.19Q125.11 10.15 124.92 10.15L124.92 10.15Q124.54 10.15 124.19 10.25Q123.84 10.34 123.50 10.54L123.50 10.54L123.41 10.27Q123.84 9.86 124.25 9.68Q124.66 9.50 125.04 9.50L125.04 9.50Q125.66 9.50 125.88 9.73Q126.10 9.96 126.10 10.37L126.10 10.37Q126.10 10.63 125.92 11.45Q125.74 12.26 125.48 13.36Q125.23 14.45 124.97 15.61Q124.70 16.78 124.52 17.81Q124.34 18.84 124.34 19.46L124.34 19.46Q124.34 20.14 124.90 20.14L124.90 20.14Q125.23 20.14 125.48 20.03Q125.74 19.92 126.05 19.73L126.05 19.73L126.17 19.99Q125.76 20.40 125.46 20.59Q125.16 20.78 124.93 20.83Q124.70 20.88 124.49 20.88ZM126.05 7.06L126.05 7.06Q125.76 7.06 125.62 6.90Q125.47 6.74 125.47 6.53L125.47 6.53Q125.47 6.26 125.60 6.08Q125.74 5.90 125.92 5.81Q126.10 5.71 126.26 5.71L126.26 5.71Q126.58 5.71 126.72 5.86Q126.86 6.00 126.86 6.24L126.86 6.24Q126.86 6.48 126.74 6.67Q126.62 6.86 126.43 6.96Q126.24 7.06 126.05 7.06ZM130.80 20.88L130.80 20.88Q130.20 20.88 129.86 20.42Q129.53 19.97 129.53 19.13L129.53 19.13Q129.53 18.82 129.65 17.90Q129.77 16.99 129.98 15.71Q130.20 14.42 130.44 12.96Q130.68 11.50 130.93 10.04Q131.18 8.59 131.38 7.39L131.38 7.39Q131.57 7.20 131.72 7.09Q131.88 6.98 132.12 6.94L132.12 6.94Q131.93 8.06 131.68 9.52Q131.42 10.97 131.17 12.50Q130.92 14.04 130.69 15.41Q130.46 16.78 130.33 17.74Q130.20 18.70 130.20 18.98L130.20 18.98Q130.20 20.18 131.09 20.18L131.09 20.18Q131.69 20.18 132.36 19.82Q133.03 19.46 133.58 18.84L133.58 18.84L133.80 19.10Q133.34 19.66 132.83 20.05Q132.31 20.45 131.80 20.66Q131.28 20.88 130.80 20.88ZM134.38 10.56L134.38 10.56L129.07 10.44Q129.10 10.32 129.16 10.21Q129.22 10.10 129.26 10.08L129.26 10.08L134.76 9.82Q134.76 9.94 134.71 10.09Q134.66 10.25 134.58 10.38Q134.50 10.51 134.38 10.56ZM139.13 20.88L139.13 20.88Q137.69 20.88 136.92 19.84Q136.15 18.79 136.15 16.82L136.15 16.82Q136.15 15.26 136.61 13.93Q137.06 12.60 137.89 11.60Q138.72 10.61 139.84 10.06Q140.95 9.50 142.25 9.50L142.25 9.50Q142.94 9.50 143.53 9.66Q144.12 9.82 144.62 10.15L144.62 10.15L144.58 10.44Q144.24 10.25 143.66 10.09Q143.09 9.94 142.34 9.94L142.34 9.94Q141.22 9.94 140.23 10.43Q139.25 10.92 138.50 11.81Q137.76 12.70 137.34 13.93Q136.92 15.17 136.92 16.68L136.92 16.68Q136.92 17.42 137.14 18.29Q137.35 19.15 137.88 19.75Q138.41 20.35 139.34 20.35L139.34 20.35Q140.26 20.35 140.93 19.82Q141.60 19.30 142.14 18.11Q142.68 16.92 143.18 14.95Q143.69 12.98 144.24 10.10L144.24 10.10L144.60 9.50Q144.79 9.50 144.90 9.54Q145.01 9.58 145.01 9.70L145.01 9.70Q145.01 9.82 144.84 10.56Q144.67 11.30 144.43 12.43Q144.19 13.56 143.94 14.83Q143.69 16.10 143.52 17.33Q143.35 18.55 143.35 19.46L143.35 19.46Q143.35 19.82 143.47 19.98Q143.59 20.14 143.90 20.14L143.90 20.14Q144.24 20.14 144.49 20.03Q144.74 19.92 145.06 19.73L145.06 19.73L145.18 19.99Q144.58 20.59 144.20 20.74Q143.83 20.88 143.50 20.88L143.50 20.88Q143.14 20.88 142.90 20.54Q142.66 20.21 142.66 19.54L142.66 19.54Q142.66 19.06 142.70 18.58Q142.75 18.10 142.82 17.64L142.82 17.64L142.68 17.64Q142.15 19.20 141.24 20.04Q140.33 20.88 139.13 20.88ZM149.71 20.88L149.71 20.88Q149.35 20.88 149.11 20.54Q148.87 20.21 148.87 19.54L148.87 19.54Q148.87 19.01 149.04 17.75Q149.21 16.49 149.50 14.76Q149.78 13.03 150.11 11.08Q150.43 9.12 150.76 7.15Q151.08 5.18 151.32 3.48L151.32 3.48L151.46 3.84Q151.25 3.72 151.04 3.68Q150.84 3.65 150.65 3.65L150.65 3.65Q150.26 3.65 149.92 3.74Q149.57 3.84 149.23 4.03L149.23 4.03L149.14 3.77Q149.57 3.36 149.98 3.18Q150.38 3 150.77 3L150.77 3Q151.39 3 151.61 3.23Q151.82 3.46 151.82 3.86L151.82 3.86Q151.82 4.25 151.66 5.29Q151.49 6.34 151.24 7.79Q150.98 9.24 150.70 10.88Q150.41 12.53 150.16 14.15Q149.90 15.77 149.74 17.16Q149.57 18.55 149.57 19.46L149.57 19.46Q149.57 20.14 150.12 20.14L150.12 20.14Q150.46 20.14 150.71 20.03Q150.96 19.92 151.27 19.73L151.27 19.73L151.39 19.99Q150.98 20.40 150.68 20.59Q150.38 20.78 150.16 20.83Q149.93 20.88 149.71 20.88ZM155.52 20.88L155.52 20.88Q155.16 20.88 154.92 20.54Q154.68 20.21 154.68 19.54L154.68 19.54Q154.68 19.22 154.81 18.47Q154.94 17.71 155.17 16.68Q155.40 15.65 155.66 14.48Q155.93 13.32 156.18 12.16Q156.43 10.99 156.62 9.98L156.62 9.98L156.77 10.34Q156.55 10.22 156.35 10.19Q156.14 10.15 155.95 10.15L155.95 10.15Q155.57 10.15 155.22 10.25Q154.87 10.34 154.54 10.54L154.54 10.54L154.44 10.27Q154.87 9.86 155.28 9.68Q155.69 9.50 156.07 9.50L156.07 9.50Q156.70 9.50 156.91 9.73Q157.13 9.96 157.13 10.37L157.13 10.37Q157.13 10.63 156.95 11.45Q156.77 12.26 156.52 13.36Q156.26 14.45 156.00 15.61Q155.74 16.78 155.56 17.81Q155.38 18.84 155.38 19.46L155.38 19.46Q155.38 20.14 155.93 20.14L155.93 20.14Q156.26 20.14 156.52 20.03Q156.77 19.92 157.08 19.73L157.08 19.73L157.20 19.99Q156.79 20.40 156.49 20.59Q156.19 20.78 155.96 20.83Q155.74 20.88 155.52 20.88ZM157.08 7.06L157.08 7.06Q156.79 7.06 156.65 6.90Q156.50 6.74 156.50 6.53L156.50 6.53Q156.50 6.26 156.64 6.08Q156.77 5.90 156.95 5.81Q157.13 5.71 157.30 5.71L157.30 5.71Q157.61 5.71 157.75 5.86Q157.90 6.00 157.90 6.24L157.90 6.24Q157.90 6.48 157.78 6.67Q157.66 6.86 157.46 6.96Q157.27 7.06 157.08 7.06ZM163.22 20.88L163.22 20.88Q161.69 20.88 160.86 19.87Q160.03 18.86 160.03 16.97L160.03 16.97Q160.03 15.48 160.49 14.14Q160.94 12.79 161.75 11.75Q162.55 10.70 163.58 10.10Q164.62 9.50 165.74 9.50L165.74 9.50Q166.87 9.50 167.52 10.09Q168.17 10.68 168.17 11.69L168.17 11.69Q168.17 12.22 167.99 12.54Q167.81 12.86 167.50 12.86L167.50 12.86Q167.35 12.86 167.16 12.79L167.16 12.79Q167.35 12.22 167.35 11.74L167.35 11.74Q167.35 9.89 165.60 9.89L165.60 9.89Q164.28 9.89 163.19 10.79Q162.10 11.69 161.45 13.20Q160.80 14.71 160.80 16.54L160.80 16.54Q160.80 18.36 161.56 19.36Q162.31 20.35 163.66 20.35L163.66 20.35Q164.59 20.35 165.41 19.84Q166.22 19.32 167.18 18.14L167.18 18.14L167.40 18.36Q165.67 20.88 163.22 20.88Z"/></svg>