<svg xmlns="http://www.w3.org/2000/svg" xmlns:xlink="http://www.w3.org/1999/xlink" width="260.3999999999999" height="30"><path fill="black" d="M2.54 24Q1.82 24 1.42 23.62Q1.01 23.23 1.01 22.58L1.01 22.58Q1.01 22.32 1.03 22.20L1.03 22.20L3.67 7.20L11.02 7.20Q13.06 7.20 14.24 8.05Q15.43 8.90 15.43 10.37L15.43 10.37Q15.43 10.80 15.38 11.02L15.38 11.02L15.14 12.26Q14.98 13.13 14.44 13.90Q13.90 14.66 13.10 15.14L13.10 15.14L13.10 15.17Q14.06 15.48 14.62 16.21Q15.17 16.94 15.17 17.90L15.17 17.90Q15.17 18.10 15.12 18.48L15.12 18.48L14.90 19.68Q14.52 21.72 13.13 22.86Q11.74 24 9.58 24L9.58 24L2.54 24ZM4.66 14.57L10.22 14.57Q11.21 14.57 11.94 13.93Q12.67 13.30 12.86 12.24L12.86 12.24L13.08 11.14Q13.10 11.02 13.10 10.80L13.10 10.80Q13.10 10.08 12.52 9.65Q11.93 9.22 10.90 9.22L10.90 9.22L5.62 9.22L4.66 14.57ZM3.36 21.98L9.41 21.98Q10.70 21.98 11.56 21.36Q12.41 20.74 12.62 19.61L12.62 19.61L12.82 18.48Q12.84 18.36 12.84 18.10L12.84 18.10Q12.84 17.38 12.30 16.93Q11.76 16.49 10.82 16.49L10.82 16.49L4.32 16.49L3.36 21.98ZM20.54 24.19Q18.86 24.19 17.86 23.42Q16.85 22.66 16.85 21.38L16.85 21.38Q16.85 21.19 16.90 20.81L16.90 20.81L17.06 19.97Q17.35 18.41 18.50 17.53Q19.66 16.66 21.43 16.66L21.43 16.66L22.92 16.66Q23.69 16.66 24.59 16.88Q25.49 17.11 26.02 17.47L26.02 17.47L26.33 15.72Q26.35 15.58 26.35 15.34L26.35 15.34Q26.35 14.62 25.91 14.18Q25.46 13.75 24.67 13.75L24.67 13.75L22.70 13.75Q21.79 13.75 21.17 14.17Q20.54 14.59 20.42 15.31L20.42 15.31L18.22 15.31Q18.50 13.70 19.73 12.77Q20.95 11.83 22.75 11.83L22.75 11.83L24.72 11.83Q26.52 11.83 27.56 12.70Q28.61 13.56 28.61 15L28.61 15Q28.61 15.31 28.54 15.72L28.54 15.72L27.07 24L24.98 24L25.25 22.39Q24.53 23.26 23.68 23.72Q22.82 24.19 21.96 24.19L21.96 24.19L20.54 24.19ZM20.71 22.34L22.13 22.34Q23.18 22.34 24.13 21.72Q25.08 21.10 25.56 20.09L25.56 20.09L25.68 19.37Q25.30 18.96 24.55 18.72Q23.81 18.48 22.94 18.48L22.94 18.48L21.43 18.48Q20.54 18.48 19.97 18.90Q19.39 19.32 19.25 20.06L19.25 20.06L19.13 20.78Q19.10 20.90 19.10 21.10L19.10 21.10Q19.10 21.70 19.54 22.02Q19.97 22.34 20.71 22.34L20.71 22.34ZM34.22 10.44Q33.65 10.44 33.29 10.10Q32.93 9.77 32.93 9.24L32.93 9.24Q32.93 8.40 33.43 7.91Q33.94 7.42 34.75 7.42L34.75 7.42Q35.35 7.42 35.71 7.74Q36.07 8.06 36.07 8.62L36.07 8.62Q36.07 9.43 35.57 9.94Q35.06 10.44 34.22 10.44L34.22 10.44ZM30.72 24L32.83 12.02L35.06 12.02L32.95 24L30.72 24ZM47.35 24.19Q45.41 24.19 44.22 22.99Q43.03 21.79 43.03 19.78L43.03 19.78Q43.03 19.25 43.15 18.53L43.15 18.53L45.43 18.53Q45.34 19.01 45.34 19.56L45.34 19.56Q45.34 20.76 45.89 21.46Q46.44 22.15 47.40 22.15L47.40 22.15L49.42 22.15Q50.66 22.15 51.53 21.13Q52.39 20.11 52.73 18.29L52.73 18.29L54.70 7.20L56.98 7.20L55.01 18.34Q54.53 21.12 53.09 22.66Q51.65 24.19 49.42 24.19L49.42 24.19L47.35 24.19ZM61.10 24.19Q59.42 24.19 58.42 23.42Q57.41 22.66 57.41 21.38L57.41 21.38Q57.41 21.19 57.46 20.81L57.46 20.81L57.62 19.97Q57.91 18.41 59.06 17.53Q60.22 16.66 61.99 16.66L61.99 16.66L63.48 16.66Q64.25 16.66 65.15 16.88Q66.05 17.11 66.58 17.47L66.58 17.47L66.89 15.72Q66.91 15.58 66.91 15.34L66.91 15.34Q66.91 14.62 66.47 14.18Q66.02 13.75 65.23 13.75L65.23 13.75L63.26 13.75Q62.35 13.75 61.73 14.17Q61.10 14.59 60.98 15.31L60.98 15.31L58.78 15.31Q59.06 13.70 60.29 12.77Q61.51 11.83 63.31 11.83L63.31 11.83L65.28 11.83Q67.08 11.83 68.12 12.70Q69.17 13.56 69.17 15L69.17 15Q69.17 15.31 69.10 15.72L69.10 15.72L67.63 24L65.54 24L65.81 22.39Q65.09 23.26 64.24 23.72Q63.38 24.19 62.52 24.19L62.52 24.19L61.10 24.19ZM61.27 22.34L62.69 22.34Q63.74 22.34 64.69 21.72Q65.64 21.10 66.12 20.09L66.12 20.09L66.24 19.37Q65.86 18.96 65.11 18.72Q64.37 18.48 63.50 18.48L63.50 18.48L61.99 18.48Q61.10 18.48 60.53 18.90Q59.95 19.32 59.81 20.06L59.81 20.06L59.69 20.78Q59.66 20.90 59.66 21.10L59.66 21.10Q59.66 21.70 60.10 22.02Q60.53 22.34 61.27 22.34L61.27 22.34ZM86.02 11.83Q87.53 11.83 88.42 12.67Q89.30 13.51 89.30 14.95L89.30 14.95Q89.30 15.34 89.23 15.82L89.23 15.82L87.79 24L85.56 24L87 15.79Q87.05 15.41 87.05 15.24L87.05 15.24Q87.05 14.57 86.72 14.18Q86.40 13.80 85.80 13.80L85.80 13.80L84.55 13.80Q83.66 13.80 82.92 14.45Q82.18 15.10 81.82 16.18L81.82 16.18L80.45 24L78.19 24L79.63 15.89Q79.68 15.50 79.68 15.34L79.68 15.34Q79.68 14.64 79.37 14.22Q79.06 13.80 78.53 13.80L78.53 13.80L77.30 13.80Q76.39 13.80 75.59 14.58Q74.78 15.36 74.38 16.63L74.38 16.63L73.08 24L70.85 24L72.96 12.02L75.10 12.02L74.81 13.63Q75.38 12.84 76.15 12.34Q76.92 11.83 77.57 11.83L77.57 11.83L78.96 11.83Q79.92 11.83 80.63 12.34Q81.34 12.84 81.60 13.70L81.60 13.70Q82.22 12.82 83.03 12.32Q83.83 11.83 84.62 11.83L84.62 11.83L86.02 11.83ZM95.14 10.44Q94.56 10.44 94.20 10.10Q93.84 9.77 93.84 9.24L93.84 9.24Q93.84 8.40 94.34 7.91Q94.85 7.42 95.66 7.42L95.66 7.42Q96.26 7.42 96.62 7.74Q96.98 8.06 96.98 8.62L96.98 8.62Q96.98 9.43 96.48 9.94Q95.98 10.44 95.14 10.44L95.14 10.44ZM87.62 28.78L87.96 26.83L88.99 26.83Q90.12 26.83 90.73 26.20Q91.34 25.56 91.58 24.14L91.58 24.14L93.72 12.02L95.98 12.02L93.84 24.02Q93.38 26.57 92.18 27.67Q90.98 28.78 88.66 28.78L88.66 28.78L87.62 28.78ZM101.64 24.19Q100.01 24.19 99.08 23.29Q98.16 22.39 98.16 20.83L98.16 20.83Q98.16 20.38 98.23 19.92L98.23 19.92L99.62 12.02L101.86 12.02L100.49 19.97Q100.42 20.28 100.42 20.59L100.42 20.59Q100.42 21.34 100.81 21.78Q101.21 22.22 101.88 22.22L101.88 22.22L103.34 22.22Q104.38 22.22 105.31 21.43Q106.25 20.64 106.78 19.34L106.78 19.34L108.07 12.02L110.30 12.02L108.19 24L106.08 24L106.39 22.27Q105.65 23.14 104.77 23.66Q103.90 24.19 103.15 24.19L103.15 24.19L101.64 24.19ZM111.55 24L113.66 12.02L115.78 12.02L115.49 13.78Q116.16 12.94 117.08 12.46Q118.01 11.98 118.97 11.98L118.97 11.98L120.38 11.98L120.05 13.97L118.82 13.97Q117.36 13.97 116.30 14.87Q115.25 15.77 114.98 17.23L114.98 17.23L113.78 24L111.55 24ZM124.37 24.19Q122.40 24.19 121.25 23.22Q120.10 22.25 120.10 20.62L120.10 20.62Q120.10 20.23 120.17 19.80L120.17 19.80L120.77 16.49Q121.15 14.30 122.53 13.07Q123.91 11.83 125.98 11.83L125.98 11.83L127.94 11.83Q129.79 11.83 130.91 12.85Q132.02 13.87 132.02 15.55L132.02 15.55Q132.02 15.96 131.95 16.39L131.95 16.39L131.54 18.65L122.62 18.65L122.42 19.80Q122.38 20.18 122.38 20.33L122.38 20.33Q122.38 21.22 122.92 21.73Q123.46 22.25 124.42 22.25L124.42 22.25L126.24 22.25Q127.39 22.25 128.12 21.71Q128.86 21.17 129.02 20.18L129.02 20.18L131.23 20.18Q130.90 22.08 129.58 23.14Q128.26 24.19 126.22 24.19L126.22 24.19L124.37 24.19ZM122.90 16.87L129.62 16.87L129.72 16.42Q129.79 16.08 129.79 15.77L129.79 15.77Q129.79 14.86 129.28 14.30Q128.76 13.75 127.90 13.75L127.90 13.75L125.93 13.75Q124.80 13.75 124.02 14.48Q123.24 15.22 122.98 16.49L122.98 16.49L122.90 16.87ZM137.83 24.19Q135.86 24.19 134.71 23.22Q133.56 22.25 133.56 20.62L133.56 20.62Q133.56 20.23 133.63 19.80L133.63 19.80L134.23 16.49Q134.62 14.30 136.00 13.07Q137.38 11.83 139.44 11.83L139.44 11.83L141.41 11.83Q143.26 11.83 144.37 12.85Q145.49 13.87 145.49 15.55L145.49 15.55Q145.49 15.96 145.42 16.39L145.42 16.39L145.01 18.65L136.08 18.65L135.89 19.80Q135.84 20.18 135.84 20.33L135.84 20.33Q135.84 21.22 136.38 21.73Q136.92 22.25 137.88 22.25L137.88 22.25L139.70 22.25Q140.86 22.25 141.59 21.71Q142.32 21.17 142.49 20.18L142.49 20.18L144.70 20.18Q144.36 22.08 143.04 23.14Q141.72 24.19 139.68 24.19L139.68 24.19L137.83 24.19ZM136.37 16.87L143.09 16.87L143.18 16.42Q143.26 16.08 143.26 15.77L143.26 15.77Q143.26 14.86 142.74 14.30Q142.22 13.75 141.36 13.75L141.36 13.75L139.39 13.75Q138.26 13.75 137.48 14.48Q136.70 15.22 136.44 16.49L136.44 16.49L136.37 16.87ZM157.87 24.19Q155.88 24.19 154.70 23.15Q153.53 22.10 153.53 20.38L153.53 20.38Q153.53 20.09 153.62 19.42L153.62 19.42L155.86 19.42Q155.81 19.63 155.81 20.06L155.81 20.06Q155.81 21.05 156.37 21.60Q156.94 22.15 157.92 22.15L157.92 22.15L160.22 22.15Q161.57 22.15 162.44 21.43Q163.32 20.71 163.54 19.44L163.54 19.44L163.78 18.02Q163.82 17.69 163.82 17.54L163.82 17.54Q163.82 16.61 163.15 16.06Q162.48 15.50 161.30 15.50L161.30 15.50L154.90 15.50L156.38 7.20L167.35 7.20L166.99 9.24L158.30 9.24L157.56 13.49L161.50 13.49Q163.66 13.49 164.90 14.48Q166.15 15.48 166.15 17.18L166.15 17.18Q166.15 17.59 166.08 18.02L166.08 18.02L165.82 19.44Q165.43 21.70 163.93 22.94Q162.43 24.19 160.15 24.19L160.15 24.19L157.87 24.19ZM173.06 24.19Q171 24.19 169.73 22.99Q168.46 21.79 168.46 19.78L168.46 19.78Q168.46 19.15 168.55 18.65L168.55 18.65L169.63 12.55Q170.09 9.94 171.65 8.47Q173.21 7.01 175.54 7.01L175.54 7.01L178.08 7.01Q180.17 7.01 181.38 8.17Q182.59 9.34 182.59 11.33L182.59 11.33Q182.59 11.83 182.47 12.55L182.47 12.55L181.42 18.65Q180.94 21.26 179.42 22.73Q177.91 24.19 175.61 24.19L175.61 24.19L173.06 24.19ZM173.16 22.15L175.61 22.15Q176.93 22.15 177.88 21.20Q178.82 20.26 179.11 18.65L179.11 18.65L180.19 12.55Q180.26 12.07 180.26 11.66L180.26 11.66Q180.26 10.44 179.65 9.74Q179.04 9.05 177.94 9.05L177.94 9.05L175.49 9.05Q174.10 9.05 173.16 9.97Q172.22 10.90 171.91 12.55L171.91 12.55L170.86 18.65Q170.76 19.27 170.76 19.54L170.76 19.54Q170.76 20.74 171.41 21.44Q172.06 22.15 173.16 22.15L173.16 22.15ZM188.78 24.19Q186.72 24.19 185.45 22.99Q184.18 21.79 184.18 19.78L184.18 19.78Q184.18 19.15 184.27 18.65L184.27 18.65L185.35 12.55Q185.81 9.94 187.37 8.47Q188.93 7.01 191.26 7.01L191.26 7.01L193.80 7.01Q195.89 7.01 197.10 8.17Q198.31 9.34 198.31 11.33L198.31 11.33Q198.31 11.83 198.19 12.55L198.19 12.55L197.14 18.65Q196.66 21.26 195.14 22.73Q193.63 24.19 191.33 24.19L191.33 24.19L188.78 24.19ZM188.88 22.15L191.33 22.15Q192.65 22.15 193.60 21.20Q194.54 20.26 194.83 18.65L194.83 18.65L195.91 12.55Q195.98 12.07 195.98 11.66L195.98 11.66Q195.98 10.44 195.37 9.74Q194.76 9.05 193.66 9.05L193.66 9.05L191.21 9.05Q189.82 9.05 188.88 9.97Q187.94 10.90 187.63 12.55L187.63 12.55L186.58 18.65Q186.48 19.27 186.48 19.54L186.48 19.54Q186.48 20.74 187.13 21.44Q187.78 22.15 188.88 22.15L188.88 22.15ZM209.69 10.44Q209.11 10.44 208.75 10.10Q208.39 9.77 208.39 9.24L208.39 9.24Q208.39 8.40 208.90 7.91Q209.40 7.42 210.22 7.42L210.22 7.42Q210.82 7.42 211.18 7.74Q211.54 8.06 211.54 8.62L211.54 8.62Q211.54 9.43 211.03 9.94Q210.53 10.44 209.69 10.44L209.69 10.44ZM206.18 24L208.30 12.02L210.53 12.02L208.42 24L206.18 24ZM217.08 24Q215.42 24 214.66 23.40Q213.89 22.80 213.89 21.48L213.89 21.48Q213.89 21.02 214.01 20.35L214.01 20.35L215.14 13.97L213.02 13.97L213.36 12.02L215.50 12.02L216.14 8.40L218.35 8.40L217.70 12.02L220.82 12.02L220.49 13.97L217.37 13.97L216.26 20.30Q216.22 20.54 216.22 20.93L216.22 20.93Q216.22 21.53 216.53 21.79Q216.84 22.06 217.54 22.06L217.54 22.06L219.05 22.06L218.69 24L217.08 24ZM225.12 24.19Q223.44 24.19 222.43 23.42Q221.42 22.66 221.42 21.38L221.42 21.38Q221.42 21.19 221.47 20.81L221.47 20.81L221.64 19.97Q221.93 18.41 223.08 17.53Q224.23 16.66 226.01 16.66L226.01 16.66L227.50 16.66Q228.26 16.66 229.16 16.88Q230.06 17.11 230.59 17.47L230.59 17.47L230.90 15.72Q230.93 15.58 230.93 15.34L230.93 15.34Q230.93 14.62 230.48 14.18Q230.04 13.75 229.25 13.75L229.25 13.75L227.28 13.75Q226.37 13.75 225.74 14.17Q225.12 14.59 225.00 15.31L225.00 15.31L222.79 15.31Q223.08 13.70 224.30 12.77Q225.53 11.83 227.33 11.83L227.33 11.83L229.30 11.83Q231.10 11.83 232.14 12.70Q233.18 13.56 233.18 15L233.18 15Q233.18 15.31 233.11 15.72L233.11 15.72L231.65 24L229.56 24L229.82 22.39Q229.10 23.26 228.25 23.72Q227.40 24.19 226.54 24.19L226.54 24.19L225.12 24.19ZM225.29 22.34L226.70 22.34Q227.76 22.34 228.71 21.72Q229.66 21.10 230.14 20.09L230.14 20.09L230.26 19.37Q229.87 18.96 229.13 18.72Q228.38 18.48 227.52 18.48L227.52 18.48L226.01 18.48Q225.12 18.48 224.54 18.90Q223.97 19.32 223.82 20.06L223.82 20.06L223.70 20.78Q223.68 20.90 223.68 21.10L223.68 21.10Q223.68 21.70 224.11 22.02Q224.54 22.34 225.29 22.34L225.29 22.34ZM238.44 24Q236.88 24 236.12 23.45Q235.37 22.90 235.37 21.62L235.37 21.62Q235.37 21.10 235.46 20.59L235.46 20.59L237.82 7.20L240.05 7.20L237.72 20.52Q237.67 20.74 237.67 21.07L237.67 21.07Q237.67 21.60 237.95 21.83Q238.22 22.06 238.87 22.06L238.87 22.06L239.83 22.06L239.50 24L238.44 24ZM245.45 10.44Q244.87 10.44 244.51 10.10Q244.15 9.77 244.15 9.24L244.15 9.24Q244.15 8.40 244.66 7.91Q245.16 7.42 245.98 7.42L245.98 7.42Q246.58 7.42 246.94 7.74Q247.30 8.06 247.30 8.62L247.30 8.62Q247.30 9.43 246.79 9.94Q246.29 10.44 245.45 10.44L245.45 10.44ZM241.94 24L244.06 12.02L246.29 12.02L244.18 24L241.94 24ZM252.31 24.19Q250.39 24.19 249.28 23.22Q248.16 22.25 248.16 20.59L248.16 20.59Q248.16 20.18 248.23 19.73L248.23 19.73L248.83 16.49Q249.24 14.28 250.58 13.06Q251.93 11.83 253.94 11.83L253.94 11.83L255.89 11.83Q257.74 11.83 258.82 12.72Q259.90 13.61 259.90 15.12L259.90 15.12Q259.90 15.46 259.82 15.86L259.82 15.86L257.62 15.86Q257.66 15.58 257.66 15.43L257.66 15.43Q257.66 14.66 257.17 14.23Q256.68 13.80 255.82 13.80L255.82 13.80L253.90 13.80Q252.77 13.80 252.02 14.52Q251.28 15.24 251.04 16.56L251.04 16.56L250.49 19.63Q250.44 19.85 250.44 20.23L250.44 20.23Q250.44 21.14 250.97 21.68Q251.50 22.22 252.43 22.22L252.43 22.22L254.35 22.22Q255.41 22.22 256.12 21.54Q256.82 20.86 257.04 19.63L257.04 19.63L259.25 19.63Q258.86 21.77 257.56 22.98Q256.25 24.19 254.33 24.19L254.33 24.19L252.31 24.19Z"/></svg>