<svg xmlns="http://www.w3.org/2000/svg" xmlns:xlink="http://www.w3.org/1999/xlink" width="375.59999999999997" height="31.68"><path fill="black" d="M11.74 24.48L11.74 24.48L2.52 24.48Q1.66 24.48 1.66 23.62L1.66 23.62L1.66 8.06Q1.66 7.20 2.52 7.20L2.52 7.20L10.18 7.20Q12.53 7.20 13.66 8.09Q14.78 8.98 14.78 10.87L14.78 10.87L14.78 12.02Q14.78 14.02 13.37 14.62L13.37 14.62Q14.93 14.76 15.66 15.66Q16.39 16.56 16.39 18.34L16.39 18.34L16.39 20.54Q16.39 22.56 15.26 23.52Q14.14 24.48 11.74 24.48ZM9.19 9.36L4.32 9.36L4.32 22.32L10.78 22.32Q12.12 22.32 12.79 22.02Q13.46 21.72 13.69 21.17Q13.92 20.62 13.92 19.92L13.92 19.92L13.92 18.38Q13.92 17.59 13.69 16.97Q13.46 16.34 12.80 15.98Q12.14 15.62 10.80 15.62L10.80 15.62Q11.83 15.36 12.08 14.76Q12.34 14.16 12.34 13.44L12.34 13.44L12.34 11.90Q12.34 11.21 12.11 10.63Q11.88 10.06 11.21 9.71Q10.54 9.36 9.19 9.36L9.19 9.36ZM4.56 22.08L4.56 15.86L10.80 15.86Q12.02 15.86 12.64 16.20Q13.25 16.54 13.46 17.10Q13.68 17.66 13.68 18.38L13.68 18.38L13.68 19.92Q13.68 20.57 13.45 21.06Q13.22 21.55 12.60 21.82Q11.98 22.08 10.78 22.08L10.78 22.08L4.56 22.08ZM9.19 15.62L9.19 15.62L4.56 15.62L4.56 9.60L9.19 9.60Q10.42 9.60 11.04 9.90Q11.66 10.20 11.88 10.73Q12.10 11.26 12.10 11.90L12.10 11.90L12.10 13.44Q12.10 14.02 11.92 14.51Q11.74 15 11.12 15.31Q10.51 15.62 9.19 15.62ZM10.18 17.57L7.06 17.57L7.06 20.40L10.18 20.40Q11.09 20.40 11.09 19.44L11.09 19.44L11.09 18.50Q11.09 17.57 10.18 17.57L10.18 17.57ZM9.10 11.28L7.06 11.28L7.06 13.87L9.10 13.87Q10.01 13.87 10.01 12.91L10.01 12.91L10.01 12.24Q10.01 11.28 9.10 11.28L9.10 11.28ZM33.77 8.06L33.77 19.94Q33.77 21.05 33.44 21.95Q33.12 22.85 32.29 23.50Q31.46 24.14 30.02 24.49Q28.58 24.84 26.35 24.84L26.35 24.84Q24.12 24.84 22.68 24.49Q21.24 24.14 20.41 23.50Q19.58 22.85 19.26 21.95Q18.94 21.05 18.94 19.94L18.94 19.94L18.94 8.06Q18.94 7.20 19.80 7.20L19.80 7.20L23.57 7.20Q24.43 7.20 24.43 8.06L24.43 8.06L24.43 19.01Q24.43 19.49 24.79 19.81Q25.15 20.14 26.40 20.14L26.40 20.14Q27.67 20.14 28.03 19.81Q28.39 19.49 28.39 19.01L28.39 19.01L28.39 8.06Q28.39 7.20 29.26 7.20L29.26 7.20L32.90 7.20Q33.77 7.20 33.77 8.06L33.77 8.06ZM21.82 9.36L21.58 9.36L21.58 19.37Q21.58 20.33 22.00 21.06Q22.42 21.79 23.46 22.20Q24.50 22.61 26.38 22.61L26.38 22.61Q28.27 22.61 29.32 22.20Q30.36 21.79 30.78 21.06Q31.20 20.33 31.20 19.37L31.20 19.37L31.20 9.36L30.96 9.36L30.96 19.37Q30.96 20.26 30.56 20.94Q30.17 21.62 29.17 22.00Q28.18 22.37 26.38 22.37L26.38 22.37Q24.60 22.37 23.60 22.00Q22.61 21.62 22.21 20.94Q21.82 20.26 21.82 19.37L21.82 19.37L21.82 9.36ZM41.42 24.48L41.42 24.48L37.82 24.48Q36.96 24.48 36.96 23.62L36.96 23.62L36.96 8.06Q36.96 7.20 37.82 7.20L37.82 7.20L40.32 7.20Q41.18 7.20 41.74 7.85L41.74 7.85L46.39 13.18L46.39 8.06Q46.39 7.20 47.26 7.20L47.26 7.20L50.86 7.20Q51.72 7.20 51.72 8.06L51.72 8.06L51.72 23.62Q51.72 24.48 50.86 24.48L50.86 24.48L47.26 24.48Q46.39 24.48 46.39 23.62L46.39 23.62L46.39 20.66L42.29 15.70L42.29 23.62Q42.29 24.48 41.42 24.48ZM48.96 19.49L40.13 9.55Q39.91 9.34 39.77 9.34L39.77 9.34Q39.48 9.34 39.48 9.62L39.48 9.62L39.48 22.32L39.72 22.32L39.72 9.67Q39.72 9.60 39.77 9.60L39.77 9.60Q39.82 9.60 39.89 9.67L39.89 9.67L48.96 19.85L48.96 22.32L49.20 22.32L49.20 9.36L48.96 9.36L48.96 19.49ZM68.23 24.48L68.23 24.48L60.67 24.48Q57.65 24.48 56.21 23.28Q54.77 22.08 54.77 19.58L54.77 19.58L54.77 12.10Q54.77 9.60 56.21 8.40Q57.65 7.20 60.67 7.20L60.67 7.20L66.67 7.20Q67.54 7.20 67.54 8.06L67.54 8.06L67.54 10.97Q67.54 11.83 66.67 11.83L66.67 11.83L61.68 11.83Q60.22 11.83 60.22 13.03L60.22 13.03L60.22 18.77Q60.22 19.94 61.32 19.94L61.32 19.94L63.65 19.94L63.65 16.20Q63.65 15.34 64.51 15.34L64.51 15.34L68.23 15.34Q69.10 15.34 69.10 16.20L69.10 16.20L69.10 23.62Q69.10 24.48 68.23 24.48ZM66.48 22.32L66.48 17.50L66.24 17.50L66.24 22.08L61.70 22.08Q60.10 22.08 59.21 21.80Q58.32 21.53 57.97 20.89Q57.62 20.26 57.62 19.22L57.62 19.22L57.62 12.50Q57.62 11.42 57.94 10.79Q58.25 10.15 59.03 9.88Q59.81 9.60 61.22 9.60L61.22 9.60L65.38 9.60L65.38 9.36L61.22 9.36Q59.69 9.36 58.86 9.67Q58.03 9.98 57.71 10.67Q57.38 11.35 57.38 12.50L57.38 12.50L57.38 19.22Q57.38 20.33 57.73 21.01Q58.08 21.70 59.02 22.01Q59.95 22.32 61.70 22.32L61.70 22.32L66.48 22.32ZM84.02 24.48L84.02 24.48L72.89 24.48Q72.02 24.48 72.02 23.62L72.02 23.62L72.02 8.06Q72.02 7.20 72.89 7.20L72.89 7.20L84.02 7.20Q84.89 7.20 84.89 8.06L84.89 8.06L84.89 10.87Q84.89 11.74 84.02 11.74L84.02 11.74L77.40 11.74L77.40 13.58L82.08 13.58Q82.94 13.58 82.94 14.45L82.94 14.45L82.94 17.02Q82.94 17.88 82.08 17.88L82.08 17.88L77.40 17.88L77.40 19.94L84.02 19.94Q84.89 19.94 84.89 20.81L84.89 20.81L84.89 23.62Q84.89 24.48 84.02 24.48ZM82.73 22.32L82.73 22.08L74.88 22.08L74.88 15.86L80.78 15.86L80.78 15.62L74.88 15.62L74.88 9.60L82.73 9.60L82.73 9.36L74.64 9.36L74.64 22.32L82.73 22.32ZM99.72 24.48L99.72 24.48L88.58 24.48Q87.72 24.48 87.72 23.62L87.72 23.62L87.72 8.06Q87.72 7.20 88.58 7.20L88.58 7.20L99.72 7.20Q100.58 7.20 100.58 8.06L100.58 8.06L100.58 10.87Q100.58 11.74 99.72 11.74L99.72 11.74L93.10 11.74L93.10 13.58L97.78 13.58Q98.64 13.58 98.64 14.45L98.64 14.45L98.64 17.02Q98.64 17.88 97.78 17.88L97.78 17.88L93.10 17.88L93.10 19.94L99.72 19.94Q100.58 19.94 100.58 20.81L100.58 20.81L100.58 23.62Q100.58 24.48 99.72 24.48ZM98.42 22.32L98.42 22.08L90.58 22.08L90.58 15.86L96.48 15.86L96.48 15.62L90.58 15.62L90.58 9.60L98.42 9.60L98.42 9.36L90.34 9.36L90.34 22.32L98.42 22.32ZM119.52 24.48L109.30 24.48Q108.43 24.48 108.43 23.62L108.43 23.62L108.43 20.76Q108.43 19.90 109.30 19.90L109.30 19.90L111.67 19.90L111.67 11.83L109.30 11.83Q108.43 11.83 108.43 10.97L108.43 10.97L108.43 8.06Q108.43 7.20 109.30 7.20L109.30 7.20L119.52 7.20Q120.38 7.20 120.38 8.06L120.38 8.06L120.38 10.97Q120.38 11.83 119.52 11.83L119.52 11.83L117.19 11.83L117.19 19.90L119.52 19.90Q120.38 19.90 120.38 20.76L120.38 20.76L120.38 23.62Q120.38 24.48 119.52 24.48L119.52 24.48ZM118.22 9.36L110.59 9.36L110.59 9.60L114.31 9.60L114.31 22.08L110.59 22.08L110.59 22.32L118.22 22.32L118.22 22.08L114.55 22.08L114.55 9.60L118.22 9.60L118.22 9.36ZM127.80 24.48L127.80 24.48L124.20 24.48Q123.34 24.48 123.34 23.62L123.34 23.62L123.34 8.06Q123.34 7.20 124.20 7.20L124.20 7.20L126.70 7.20Q127.56 7.20 128.11 7.85L128.11 7.85L132.77 13.18L132.77 8.06Q132.77 7.20 133.63 7.20L133.63 7.20L137.23 7.20Q138.10 7.20 138.10 8.06L138.10 8.06L138.10 23.62Q138.10 24.48 137.23 24.48L137.23 24.48L133.63 24.48Q132.77 24.48 132.77 23.62L132.77 23.62L132.77 20.66L128.66 15.70L128.66 23.62Q128.66 24.48 127.80 24.48ZM135.34 19.49L126.50 9.55Q126.29 9.34 126.14 9.34L126.14 9.34Q125.86 9.34 125.86 9.62L125.86 9.62L125.86 22.32L126.10 22.32L126.10 9.67Q126.10 9.60 126.14 9.60L126.14 9.60Q126.19 9.60 126.26 9.67L126.26 9.67L135.34 19.85L135.34 22.32L135.58 22.32L135.58 9.36L135.34 9.36L135.34 19.49ZM154.49 24.48L154.49 24.48L142.27 24.48Q141.41 24.48 141.41 23.62L141.41 23.62L141.41 8.06Q141.41 7.20 142.27 7.20L142.27 7.20L145.99 7.20Q146.86 7.20 146.86 8.06L146.86 8.06L146.86 19.94L150.14 19.94L150.14 16.06Q150.14 15.19 151.01 15.19L151.01 15.19L154.49 15.19Q155.35 15.19 155.35 16.06L155.35 16.06L155.35 23.62Q155.35 24.48 154.49 24.48ZM152.86 22.32L152.86 17.35L152.62 17.35L152.62 22.08L144.26 22.08L144.26 9.36L144.02 9.36L144.02 22.32L152.86 22.32ZM168.79 24.48L158.57 24.48Q157.70 24.48 157.70 23.62L157.70 23.62L157.70 20.76Q157.70 19.90 158.57 19.90L158.57 19.90L160.94 19.90L160.94 11.83L158.57 11.83Q157.70 11.83 157.70 10.97L157.70 10.97L157.70 8.06Q157.70 7.20 158.57 7.20L158.57 7.20L168.79 7.20Q169.66 7.20 169.66 8.06L169.66 8.06L169.66 10.97Q169.66 11.83 168.79 11.83L168.79 11.83L166.46 11.83L166.46 19.90L168.79 19.90Q169.66 19.90 169.66 20.76L169.66 20.76L169.66 23.62Q169.66 24.48 168.79 24.48L168.79 24.48ZM167.50 9.36L159.86 9.36L159.86 9.60L163.58 9.60L163.58 22.08L159.86 22.08L159.86 22.32L167.50 22.32L167.50 22.08L163.82 22.08L163.82 9.60L167.50 9.60L167.50 9.36ZM177.07 24.48L177.07 24.48L173.47 24.48Q172.61 24.48 172.61 23.62L172.61 23.62L172.61 8.06Q172.61 7.20 173.47 7.20L173.47 7.20L175.97 7.20Q176.83 7.20 177.38 7.85L177.38 7.85L182.04 13.18L182.04 8.06Q182.04 7.20 182.90 7.20L182.90 7.20L186.50 7.20Q187.37 7.20 187.37 8.06L187.37 8.06L187.37 23.62Q187.37 24.48 186.50 24.48L186.50 24.48L182.90 24.48Q182.04 24.48 182.04 23.62L182.04 23.62L182.04 20.66L177.94 15.70L177.94 23.62Q177.94 24.48 177.07 24.48ZM184.61 19.49L175.78 9.55Q175.56 9.34 175.42 9.34L175.42 9.34Q175.13 9.34 175.13 9.62L175.13 9.62L175.13 22.32L175.37 22.32L175.37 9.67Q175.37 9.60 175.42 9.60L175.42 9.60Q175.46 9.60 175.54 9.67L175.54 9.67L184.61 19.85L184.61 22.32L184.85 22.32L184.85 9.36L184.61 9.36L184.61 19.49ZM202.68 24.48L202.68 24.48L191.54 24.48Q190.68 24.48 190.68 23.62L190.68 23.62L190.68 8.06Q190.68 7.20 191.54 7.20L191.54 7.20L202.68 7.20Q203.54 7.20 203.54 8.06L203.54 8.06L203.54 10.87Q203.54 11.74 202.68 11.74L202.68 11.74L196.06 11.74L196.06 13.58L200.74 13.58Q201.60 13.58 201.60 14.45L201.60 14.45L201.60 17.02Q201.60 17.88 200.74 17.88L200.74 17.88L196.06 17.88L196.06 19.94L202.68 19.94Q203.54 19.94 203.54 20.81L203.54 20.81L203.54 23.62Q203.54 24.48 202.68 24.48ZM201.38 22.32L201.38 22.08L193.54 22.08L193.54 15.86L199.44 15.86L199.44 15.62L193.54 15.62L193.54 9.60L201.38 9.60L201.38 9.36L193.30 9.36L193.30 22.32L201.38 22.32ZM220.06 23.62L220.06 20.47L216.00 20.47Q213.67 20.47 212.65 19.50Q211.63 18.53 211.63 16.49L211.63 16.49L211.63 8.06Q211.63 7.20 212.50 7.20L212.50 7.20L216.22 7.20Q217.08 7.20 217.08 8.06L217.08 8.06L217.08 14.64Q217.08 15.46 217.82 15.46L217.82 15.46L220.06 15.46L220.06 8.06Q220.06 7.20 220.92 7.20L220.92 7.20L224.62 7.20Q225.48 7.20 225.48 8.06L225.48 8.06L225.48 23.62Q225.48 24.48 224.62 24.48L224.62 24.48L220.92 24.48Q220.06 24.48 220.06 23.62L220.06 23.62ZM222.89 22.32L222.89 9.36L222.65 9.36L222.65 17.83L216.91 17.83Q214.49 17.83 214.49 15.55L214.49 15.55L214.49 9.36L214.25 9.36L214.25 15.55Q214.25 16.80 214.88 17.44Q215.52 18.07 216.91 18.07L216.91 18.07L222.65 18.07L222.65 22.32L222.89 22.32ZM243.19 11.76L243.19 19.94Q243.19 21.05 242.87 21.95Q242.54 22.85 241.74 23.50Q240.94 24.14 239.51 24.49Q238.08 24.84 235.87 24.84L235.87 24.84Q233.66 24.84 232.22 24.49Q230.78 24.14 229.98 23.50Q229.18 22.85 228.85 21.95Q228.53 21.05 228.53 19.94L228.53 19.94L228.53 11.76Q228.53 10.66 228.85 9.76Q229.18 8.86 229.98 8.21Q230.78 7.56 232.22 7.20Q233.66 6.84 235.87 6.84L235.87 6.84Q238.08 6.84 239.51 7.20Q240.94 7.56 241.74 8.21Q242.54 8.86 242.87 9.76Q243.19 10.66 243.19 11.76L243.19 11.76ZM231.12 12.31L231.12 12.31L231.12 19.39Q231.12 20.35 231.52 21.08Q231.91 21.82 232.94 22.22Q233.98 22.63 235.85 22.63L235.85 22.63Q237.72 22.63 238.76 22.22Q239.81 21.82 240.22 21.08Q240.62 20.35 240.62 19.39L240.62 19.39L240.62 12.31Q240.62 11.35 240.22 10.63Q239.81 9.91 238.76 9.49Q237.72 9.07 235.85 9.07L235.85 9.07Q233.98 9.07 232.94 9.48Q231.91 9.89 231.52 10.62Q231.12 11.35 231.12 12.31ZM231.36 19.39L231.36 12.31Q231.36 11.40 231.77 10.73Q232.18 10.06 233.15 9.68Q234.12 9.31 235.85 9.31L235.85 9.31Q237.58 9.31 238.57 9.68Q239.57 10.06 239.98 10.73Q240.38 11.40 240.38 12.31L240.38 12.31L240.38 19.39Q240.38 20.30 239.98 20.98Q239.57 21.65 238.57 22.02Q237.58 22.39 235.85 22.39L235.85 22.39Q234.12 22.39 233.15 22.02Q232.18 21.65 231.77 20.98Q231.36 20.30 231.36 19.39L231.36 19.39ZM233.95 12.62L233.95 19.08Q233.95 19.56 234.30 19.88Q234.65 20.21 235.87 20.21L235.87 20.21Q237.12 20.21 237.46 19.88Q237.79 19.56 237.79 19.08L237.79 19.08L237.79 12.62Q237.79 12.14 237.46 11.83Q237.12 11.52 235.87 11.52L235.87 11.52Q234.65 11.52 234.30 11.83Q233.95 12.14 233.95 12.62L233.95 12.62ZM260.64 11.76L260.64 19.94Q260.64 21.05 260.32 21.95Q259.99 22.85 259.19 23.50Q258.38 24.14 256.96 24.49Q255.53 24.84 253.32 24.84L253.32 24.84Q251.11 24.84 249.67 24.49Q248.23 24.14 247.43 23.50Q246.62 22.85 246.30 21.95Q245.98 21.05 245.98 19.94L245.98 19.94L245.98 11.76Q245.98 10.66 246.30 9.76Q246.62 8.86 247.43 8.21Q248.23 7.56 249.67 7.20Q251.11 6.84 253.32 6.84L253.32 6.84Q255.53 6.84 256.96 7.20Q258.38 7.56 259.19 8.21Q259.99 8.86 260.32 9.76Q260.64 10.66 260.64 11.76L260.64 11.76ZM248.57 12.31L248.57 12.31L248.57 19.39Q248.57 20.35 248.96 21.08Q249.36 21.82 250.39 22.22Q251.42 22.63 253.30 22.63L253.30 22.63Q255.17 22.63 256.21 22.22Q257.26 21.82 257.66 21.08Q258.07 20.35 258.07 19.39L258.07 19.39L258.07 12.31Q258.07 11.35 257.66 10.63Q257.26 9.91 256.21 9.49Q255.17 9.07 253.30 9.07L253.30 9.07Q251.42 9.07 250.39 9.48Q249.36 9.89 248.96 10.62Q248.57 11.35 248.57 12.31ZM248.81 19.39L248.81 12.31Q248.81 11.40 249.22 10.73Q249.62 10.06 250.60 9.68Q251.57 9.31 253.30 9.31L253.30 9.31Q255.02 9.31 256.02 9.68Q257.02 10.06 257.42 10.73Q257.83 11.40 257.83 12.31L257.83 12.31L257.83 19.39Q257.83 20.30 257.42 20.98Q257.02 21.65 256.02 22.02Q255.02 22.39 253.30 22.39L253.30 22.39Q251.57 22.39 250.60 22.02Q249.62 21.65 249.22 20.98Q248.81 20.30 248.81 19.39L248.81 19.39ZM251.40 12.62L251.40 19.08Q251.40 19.56 251.75 19.88Q252.10 20.21 253.32 20.21L253.32 20.21Q254.57 20.21 254.90 19.88Q255.24 19.56 255.24 19.08L255.24 19.08L255.24 12.62Q255.24 12.14 254.90 11.83Q254.57 11.52 253.32 11.52L253.32 11.52Q252.10 11.52 251.75 11.83Q251.40 12.14 251.40 12.62L251.40 12.62ZM273.55 24.48L273.55 24.48L269.95 24.48Q269.09 24.48 269.09 23.62L269.09 23.62L269.09 8.06Q269.09 7.20 269.95 7.20L269.95 7.20L272.45 7.20Q273.31 7.20 273.86 7.85L273.86 7.85L278.52 13.18L278.52 8.06Q278.52 7.20 279.38 7.20L279.38 7.20L282.98 7.20Q283.85 7.20 283.85 8.06L283.85 8.06L283.85 23.62Q283.85 24.48 282.98 24.48L282.98 24.48L279.38 24.48Q278.52 24.48 278.52 23.62L278.52 23.62L278.52 20.66L274.42 15.70L274.42 23.62Q274.42 24.48 273.55 24.48ZM281.09 19.49L272.26 9.55Q272.04 9.34 271.90 9.34L271.90 9.34Q271.61 9.34 271.61 9.62L271.61 9.62L271.61 22.32L271.85 22.32L271.85 9.67Q271.85 9.60 271.90 9.60L271.90 9.60Q271.94 9.60 272.02 9.67L272.02 9.67L281.09 19.85L281.09 22.32L281.33 22.32L281.33 9.36L281.09 9.36L281.09 19.49ZM301.80 11.76L301.80 19.94Q301.80 21.05 301.48 21.95Q301.15 22.85 300.34 23.50Q299.52 24.14 298.07 24.49Q296.62 24.84 294.36 24.84L294.36 24.84Q292.10 24.84 290.65 24.49Q289.20 24.14 288.38 23.50Q287.57 22.85 287.23 21.95Q286.90 21.05 286.90 19.94L286.90 19.94L286.90 11.76Q286.90 10.66 287.23 9.76Q287.57 8.86 288.38 8.21Q289.20 7.56 290.65 7.20Q292.10 6.84 294.36 6.84L294.36 6.84Q296.62 6.84 298.07 7.20Q299.52 7.56 300.34 8.21Q301.15 8.86 301.48 9.76Q301.80 10.66 301.80 11.76L301.80 11.76ZM294.31 22.63L294.31 22.63Q296.21 22.63 297.26 22.22Q298.32 21.82 298.75 21.08Q299.18 20.35 299.18 19.39L299.18 19.39L299.18 12.31Q299.18 11.33 298.75 10.61Q298.32 9.89 297.26 9.48Q296.21 9.07 294.31 9.07L294.31 9.07Q292.44 9.07 291.38 9.48Q290.33 9.89 289.91 10.61Q289.49 11.33 289.49 12.31L289.49 12.31L289.49 19.39Q289.49 20.35 289.91 21.08Q290.33 21.82 291.38 22.22Q292.44 22.63 294.31 22.63ZM294.31 22.39L294.31 22.39Q292.54 22.39 291.53 22.02Q290.52 21.65 290.12 20.96Q289.73 20.28 289.73 19.39L289.73 19.39L289.73 12.31Q289.73 11.40 290.12 10.73Q290.52 10.06 291.53 9.68Q292.54 9.31 294.31 9.31L294.31 9.31Q296.11 9.31 297.12 9.68Q298.13 10.06 298.54 10.73Q298.94 11.40 298.94 12.31L298.94 12.31L298.94 19.39Q298.94 20.28 298.54 20.96Q298.13 21.65 297.12 22.02Q296.11 22.39 294.31 22.39ZM292.34 12.62L292.34 19.08Q292.34 19.56 292.70 19.88Q293.06 20.21 294.36 20.21L294.36 20.21Q295.68 20.21 296.03 19.88Q296.38 19.56 296.38 19.08L296.38 19.08L296.38 12.62Q296.38 12.14 296.03 11.83Q295.68 11.52 294.36 11.52L294.36 11.52Q293.06 11.52 292.70 11.83Q292.34 12.14 292.34 12.62L292.34 12.62ZM309.41 24.48L309.41 24.48L305.71 24.48Q304.85 24.48 304.85 23.62L304.85 23.62L304.85 8.06Q304.85 7.20 305.71 7.20L305.71 7.20L313.70 7.20Q315.50 7.20 316.54 7.70Q317.57 8.21 318 9.11Q318.43 10.01 318.43 11.21L318.43 11.21L318.43 12.31Q318.43 13.32 318.14 14.02Q317.86 14.71 317.09 15.05L317.09 15.05Q318.41 15.19 319.20 16.10Q319.99 17.02 319.99 18.53L319.99 18.53L319.99 23.62Q319.99 24.48 319.13 24.48L319.13 24.48L315.41 24.48Q314.54 24.48 314.54 23.62L314.54 23.62L314.54 19.94Q314.54 19.39 314.34 19.15Q314.14 18.91 313.63 18.91L313.63 18.91L310.27 18.91L310.27 23.62Q310.27 24.48 309.41 24.48ZM317.14 19.10L317.14 22.32L317.38 22.32L317.38 19.10Q317.38 16.54 314.47 16.54L314.47 16.54L314.21 16.54Q315.07 16.27 315.36 15.55Q315.65 14.83 315.65 13.75L315.65 13.75L315.65 12.10Q315.65 10.90 314.99 10.13Q314.33 9.36 312.91 9.36L312.91 9.36L307.44 9.36L307.44 22.32L307.68 22.32L307.68 16.75L314.47 16.75Q317.14 16.75 317.14 19.10L317.14 19.10ZM312.91 16.54L307.68 16.54L307.68 9.60L312.91 9.60Q314.18 9.60 314.80 10.28Q315.41 10.97 315.41 12.10L315.41 12.10L315.41 13.78Q315.41 15.10 314.90 15.82Q314.40 16.54 312.91 16.54L312.91 16.54ZM312.07 11.52L310.27 11.52L310.27 14.59L312.07 14.59Q312.70 14.59 312.91 14.27Q313.13 13.94 313.13 13.46L313.13 13.46L313.13 12.65Q313.13 12.17 312.91 11.84Q312.70 11.52 312.07 11.52L312.07 11.52ZM327.12 24.48L327.12 24.48L323.54 24.48Q322.68 24.48 322.68 23.62L322.68 23.62L322.68 8.06Q322.68 7.20 323.54 7.20L323.54 7.20L327.41 7.20Q328.13 7.20 328.51 7.92L328.51 7.92L330.67 11.83Q330.79 12.05 330.88 12.14Q330.96 12.24 331.10 12.24L331.10 12.24L331.32 12.24Q331.46 12.24 331.55 12.14Q331.63 12.05 331.75 11.83L331.75 11.83L333.89 7.92Q334.27 7.20 334.99 7.20L334.99 7.20L338.88 7.20Q339.74 7.20 339.74 8.06L339.74 8.06L339.74 23.62Q339.74 24.48 338.88 24.48L338.88 24.48L335.18 24.48Q334.32 24.48 334.32 23.62L334.32 23.62L334.32 15.17L332.90 17.78Q332.50 18.55 331.63 18.55L331.63 18.55L330.67 18.55Q329.81 18.55 329.40 17.78L329.40 17.78L327.98 15.17L327.98 23.62Q327.98 24.48 327.12 24.48ZM331.13 15.24L331.13 15.24Q330.70 15.24 330.50 15.05Q330.31 14.86 329.90 14.23L329.90 14.23L326.98 9.77Q326.83 9.53 326.64 9.44Q326.45 9.36 326.26 9.36L326.26 9.36L325.85 9.36Q325.22 9.36 325.22 10.10L325.22 10.10L325.22 22.32L325.46 22.32L325.46 10.10Q325.46 9.91 325.54 9.76Q325.61 9.60 325.85 9.60L325.85 9.60L326.21 9.60Q326.38 9.60 326.51 9.65Q326.64 9.70 326.78 9.94L326.78 9.94L329.71 14.35Q330.14 15 330.37 15.24Q330.60 15.48 331.13 15.48L331.13 15.48Q331.66 15.48 331.88 15.24Q332.11 15 332.54 14.35L332.54 14.35L335.47 9.94Q335.62 9.70 335.74 9.65Q335.86 9.60 336.02 9.60L336.02 9.60L336.38 9.60Q336.65 9.60 336.72 9.76Q336.79 9.91 336.79 10.10L336.79 10.10L336.79 22.32L337.03 22.32L337.03 10.10Q337.03 9.36 336.38 9.36L336.38 9.36L335.98 9.36Q335.78 9.36 335.60 9.44Q335.42 9.53 335.28 9.77L335.28 9.77L332.35 14.23Q331.94 14.86 331.75 15.05Q331.56 15.24 331.13 15.24ZM347.95 20.26L347.95 23.62Q347.95 24.48 347.09 24.48L347.09 24.48L343.56 24.48Q342.70 24.48 342.70 23.62L342.70 23.62L342.70 17.28Q342.70 16.56 342.92 15.62Q343.15 14.69 343.63 13.44L343.63 13.44L345.72 7.99Q345.98 7.20 346.94 7.20L346.94 7.20L353.40 7.20Q354.34 7.20 354.60 7.99L354.60 7.99L356.69 13.44Q357.17 14.69 357.40 15.62Q357.62 16.56 357.62 17.28L357.62 17.28L357.62 23.62Q357.62 24.48 356.76 24.48L356.76 24.48L353.14 24.48Q352.20 24.48 352.20 23.62L352.20 23.62L352.20 20.26L347.95 20.26ZM354.84 22.32L355.08 22.32L355.08 17.21Q355.08 16.54 354.97 15.97Q354.86 15.41 354.67 14.88L354.67 14.88L353.02 10.97Q352.73 10.27 352.40 9.82Q352.08 9.36 351.29 9.36L351.29 9.36L348.94 9.36Q348.12 9.36 347.78 9.82Q347.45 10.27 347.18 10.94L347.18 10.94L345.65 14.88Q345.46 15.41 345.35 15.97Q345.24 16.54 345.24 17.21L345.24 17.21L345.24 22.32L345.48 22.32L345.48 18.19L354.84 18.19L354.84 22.32ZM354.84 17.95L345.48 17.95L345.48 17.21Q345.48 16.56 345.59 16.01Q345.70 15.46 345.86 14.98L345.86 14.98L347.40 11.04Q347.64 10.42 347.93 10.01Q348.22 9.60 348.94 9.60L348.94 9.60L351.29 9.60Q351.96 9.60 352.25 10.02Q352.54 10.44 352.80 11.06L352.80 11.06L354.46 14.98Q354.65 15.46 354.74 16.01Q354.84 16.56 354.84 17.21L354.84 17.21L354.84 17.95ZM349.32 12.24L349.32 12.24L348.19 15.89L351.96 15.89L350.83 12.24Q350.66 11.83 350.38 11.83L350.38 11.83L349.78 11.83Q349.49 11.83 349.32 12.24ZM373.66 24.48L373.66 24.48L361.44 24.48Q360.58 24.48 360.58 23.62L360.58 23.62L360.58 8.06Q360.58 7.20 361.44 7.20L361.44 7.20L365.16 7.20Q366.02 7.20 366.02 8.06L366.02 8.06L366.02 19.94L369.31 19.94L369.31 16.06Q369.31 15.19 370.18 15.19L370.18 15.19L373.66 15.19Q374.52 15.19 374.52 16.06L374.52 16.06L374.52 23.62Q374.52 24.48 373.66 24.48ZM372.02 22.32L372.02 17.35L371.78 17.35L371.78 22.08L363.43 22.08L363.43 9.36L363.19 9.36L363.19 22.32L372.02 22.32Z"/></svg>