<svg xmlns="http://www.w3.org/2000/svg" xmlns:xlink="http://www.w3.org/1999/xlink" width="67.16015625" height="30.59765625"><path fill="black" d="M5.73 21.83L5.73 21.83Q6.69 21.83 7.39 21.62Q8.09 21.41 8.54 21.04Q8.99 20.67 9.21 20.17Q9.42 19.68 9.42 19.09L9.42 19.09Q9.42 18.50 9.22 18.06Q9.02 17.63 8.60 17.27Q8.17 16.92 7.49 16.61Q6.81 16.29 5.86 15.95L5.86 15.95Q4.62 15.50 3.77 15.01Q2.92 14.51 2.39 13.92Q1.86 13.32 1.63 12.62Q1.41 11.91 1.41 11.04L1.41 11.04Q1.41 9.97 1.80 9.16Q2.20 8.34 2.90 7.79Q3.60 7.24 4.54 6.96Q5.48 6.68 6.57 6.68L6.57 6.68Q7.71 6.68 8.93 7.06Q10.15 7.44 11.43 8.29L11.43 8.29L10.52 10.00Q9.46 9.32 8.48 9.02Q7.50 8.72 6.62 8.72L6.62 8.72Q5.19 8.72 4.42 9.32Q3.64 9.93 3.64 10.99L3.64 10.99Q3.64 11.59 3.81 12.01Q3.97 12.43 4.35 12.77Q4.72 13.10 5.33 13.38Q5.93 13.65 6.82 13.96L6.82 13.96Q8.38 14.48 9.33 15.02Q10.28 15.56 10.79 16.15Q11.31 16.73 11.48 17.40Q11.65 18.07 11.65 18.88L11.65 18.88Q11.65 20.04 11.26 20.96Q10.86 21.89 10.13 22.54Q9.39 23.19 8.31 23.54Q7.24 23.88 5.87 23.88L5.87 23.88Q4.80 23.88 3.59 23.55Q2.37 23.21 1.02 22.49L1.02 22.49L1.77 20.66Q2.91 21.25 3.88 21.54Q4.86 21.83 5.73 21.83ZM16.91 23.58L14.70 23.58L14.70 7.03L16.91 7.03L16.91 10.83L16.93 13.09Q17.67 12.28 18.59 11.83Q19.50 11.38 20.47 11.38L20.47 11.38Q22.57 11.38 23.57 12.58Q24.57 13.78 24.57 15.97L24.57 15.97L24.57 23.58L22.39 23.58L22.39 16.09Q22.39 15.56 22.30 15.03Q22.21 14.50 21.94 14.07Q21.67 13.64 21.19 13.37Q20.72 13.09 19.96 13.09L19.96 13.09Q19.43 13.09 19.02 13.21Q18.61 13.32 18.30 13.52Q18 13.71 17.78 13.95Q17.57 14.18 17.43 14.40L17.43 14.40Q17.12 14.91 17.02 15.65Q16.91 16.39 16.91 17.17L16.91 17.17L16.91 23.58ZM28.75 14.29L28.10 12.81Q28.57 12.49 29.12 12.23Q29.66 11.98 30.24 11.78Q30.82 11.59 31.41 11.48Q31.99 11.38 32.54 11.38L32.54 11.38Q33.39 11.38 34.14 11.60Q34.90 11.81 35.47 12.28Q36.04 12.74 36.36 13.46Q36.69 14.19 36.69 15.22L36.69 15.22L36.69 20.05Q36.69 20.85 36.73 21.49Q36.76 22.14 36.82 22.61L36.82 22.61Q36.88 23.16 36.96 23.58L36.96 23.58L34.98 23.58Q34.95 23.38 34.92 22.84Q34.89 22.30 34.86 21.63L34.86 21.63Q34.48 22.29 34.02 22.71Q33.56 23.12 33.07 23.37Q32.58 23.61 32.06 23.71Q31.55 23.80 31.04 23.80L31.04 23.80Q30.16 23.80 29.45 23.56Q28.73 23.32 28.24 22.86Q27.74 22.41 27.47 21.76Q27.20 21.12 27.20 20.31L27.20 20.31Q27.20 19.92 27.29 19.49Q27.38 19.05 27.57 18.63Q27.77 18.21 28.10 17.82Q28.43 17.44 28.91 17.13L28.91 17.13Q29.43 16.80 30.05 16.62Q30.67 16.44 31.33 16.35Q31.99 16.27 32.66 16.25Q33.33 16.23 33.95 16.23L33.95 16.23L34.58 16.23L34.58 15.36Q34.58 14.72 34.42 14.28Q34.25 13.84 33.96 13.58Q33.67 13.31 33.28 13.20Q32.89 13.08 32.46 13.08L32.46 13.08Q31.98 13.08 31.46 13.19Q30.95 13.30 30.46 13.48Q29.96 13.65 29.53 13.86Q29.09 14.07 28.75 14.29L28.75 14.29ZM33.87 21.12L33.87 21.12Q34.09 20.86 34.22 20.54Q34.36 20.23 34.44 19.83Q34.51 19.43 34.54 18.94Q34.57 18.45 34.57 17.82L34.57 17.82L34.23 17.82Q33.42 17.82 32.56 17.88Q31.70 17.94 30.98 18.19Q30.26 18.43 29.79 18.94Q29.33 19.45 29.33 20.34L29.33 20.34Q29.33 20.67 29.44 20.98Q29.54 21.29 29.77 21.54Q30 21.79 30.35 21.94Q30.69 22.09 31.18 22.09L31.18 22.09Q32.03 22.09 32.74 21.84Q33.46 21.60 33.87 21.12ZM50.75 23.58L48.57 23.58L48.57 15.84Q48.57 14.52 47.92 13.80Q47.27 13.09 46.09 13.09L46.09 13.09Q44.67 13.09 43.87 14.07Q43.07 15.05 43.07 16.92L43.07 16.92L43.07 23.58L40.85 23.58L40.85 13.32L39.07 13.32L39.07 11.58L42.90 11.58L43.02 13.34Q43.37 12.86 43.73 12.49Q44.10 12.12 44.53 11.87Q44.96 11.63 45.48 11.50Q46.00 11.37 46.63 11.37L46.63 11.37Q47.27 11.37 47.99 11.56Q48.71 11.75 49.33 12.24Q49.95 12.73 50.35 13.55Q50.75 14.37 50.75 15.63L50.75 15.63L50.75 23.58ZM58.57 22.09L58.57 22.09Q58.90 22.09 59.29 22.04Q59.68 22.00 59.95 21.94L59.95 21.94L59.95 23.55Q59.59 23.65 59.07 23.72Q58.55 23.80 58.02 23.80L58.02 23.80Q57.30 23.80 56.72 23.65Q56.14 23.51 55.74 23.14Q55.34 22.78 55.12 22.17Q54.90 21.55 54.90 20.63L54.90 20.63L54.90 13.31L53.06 13.31L53.06 11.57L54.96 11.57L55.35 8.71L57.12 8.32L57.12 11.57L59.91 11.57L59.91 13.31L57.12 13.31L57.12 20.37Q57.12 20.71 57.17 21.02Q57.22 21.34 57.38 21.57Q57.54 21.81 57.82 21.95Q58.10 22.09 58.57 22.09ZM65.30 11.58L65.30 23.58L63.12 23.58L63.12 13.32L61.34 13.32L61.34 11.58L65.30 11.58ZM62.91 7.44L65.51 7.44L65.51 9.46L62.91 9.46L62.91 7.44Z"/></svg>