<svg xmlns="http://www.w3.org/2000/svg" xmlns:xlink="http://www.w3.org/1999/xlink" width="256.152" height="29.256"><path fill="black" d="M0.24 23.23L7.92 6.46L8.45 6.46L16.22 23.23L15.67 23.23L8.18 7.01L0.82 23.23L0.24 23.23ZM3 18.12L3 17.64L13.42 17.64L13.42 18.12L3 18.12ZM19.22 23.23L19.22 5.42L19.70 5.42L19.70 23.23L19.22 23.23ZM24 16.54L34.97 16.54Q34.87 14.98 34.20 13.80Q33.53 12.62 32.38 11.96Q31.22 11.30 29.69 11.30L29.69 11.30Q28.10 11.30 26.86 12.04Q25.61 12.77 24.90 14.05Q24.19 15.34 24.19 17.02L24.19 17.02Q24.19 18.70 24.90 19.99Q25.61 21.29 26.86 22.02Q28.10 22.75 29.69 22.75L29.69 22.75Q32.47 22.75 34.08 20.95L34.08 20.95L34.42 21.29Q33.58 22.20 32.35 22.72Q31.13 23.23 29.69 23.23L29.69 23.23Q27.98 23.23 26.63 22.43Q25.27 21.62 24.49 20.22Q23.71 18.82 23.71 17.02L23.71 17.02Q23.71 15.22 24.49 13.81Q25.27 12.41 26.63 11.62Q27.98 10.82 29.69 10.82L29.69 10.82Q31.42 10.82 32.71 11.62Q34.01 12.41 34.73 13.81Q35.45 15.22 35.45 17.02L35.45 17.02L24 17.02L24 16.54ZM42.12 16.80L37.70 10.82L38.28 10.82L42.43 16.42L46.58 10.82L47.16 10.82L42.72 16.80L47.50 23.23L46.90 23.23L42.41 17.21L37.94 23.23L37.34 23.23L42.12 16.80ZM59.33 16.94L54.46 16.94Q52.49 16.94 51.41 17.65Q50.33 18.36 50.33 19.66L50.33 19.66Q50.33 21.02 51.30 21.89Q52.27 22.75 53.90 22.75L53.90 22.75Q55.13 22.75 56.12 22.40Q57.12 22.06 57.88 21.30Q58.63 20.54 59.11 19.30L59.11 19.30L59.54 19.49Q58.78 21.46 57.29 22.34Q55.80 23.23 53.88 23.23L53.88 23.23Q52.68 23.23 51.77 22.76Q50.86 22.30 50.35 21.49Q49.85 20.69 49.85 19.66L49.85 19.66Q49.85 18.14 51.10 17.30Q52.34 16.46 54.46 16.46L54.46 16.46L59.33 16.46L59.33 16.94ZM59.11 23.23L59.06 14.95Q59.04 13.25 58.07 12.28Q57.10 11.30 55.13 11.30L55.13 11.30Q53.88 11.30 52.84 11.77Q51.79 12.24 50.78 13.03L50.78 13.03L50.50 12.65Q51.19 12.10 51.92 11.69Q52.66 11.28 53.46 11.05Q54.26 10.82 55.13 10.82L55.13 10.82Q57.26 10.82 58.39 11.94Q59.52 13.06 59.54 14.95L59.54 14.95L59.59 23.23L59.11 23.23ZM74.57 23.23L74.57 15.72Q74.57 13.63 73.40 12.47Q72.24 11.30 70.18 11.30L70.18 11.30Q67.70 11.35 66.31 12.90Q64.92 14.45 64.92 17.16L64.92 17.16L64.49 17.16Q64.49 15.19 65.16 13.79Q65.83 12.38 67.12 11.62Q68.40 10.85 70.18 10.82L70.18 10.82Q71.71 10.82 72.80 11.41Q73.90 12.00 74.47 13.09Q75.05 14.18 75.05 15.72L75.05 15.72L75.05 23.23L74.57 23.23ZM64.46 23.23L64.46 10.82L64.94 10.82L64.94 23.23L64.46 23.23ZM84.60 10.78L84.60 10.78Q86.35 10.78 87.72 11.59Q89.09 12.41 89.88 13.81Q90.67 15.22 90.67 17.04L90.67 17.04Q90.67 18.84 89.88 20.24Q89.09 21.65 87.72 22.46Q86.35 23.28 84.60 23.28L84.60 23.28Q82.85 23.28 81.48 22.46Q80.11 21.65 79.32 20.24Q78.53 18.84 78.53 17.04L78.53 17.04Q78.53 15.22 79.32 13.81Q80.11 12.41 81.48 11.59Q82.85 10.78 84.60 10.78ZM84.60 11.26L84.60 11.26Q82.99 11.26 81.72 12.01Q80.45 12.77 79.73 14.06Q79.01 15.36 79.01 17.04L79.01 17.04Q79.01 18.70 79.73 20.00Q80.45 21.31 81.72 22.06Q82.99 22.80 84.60 22.80L84.60 22.80Q86.23 22.80 87.49 22.06Q88.75 21.31 89.47 20.00Q90.19 18.70 90.19 17.04L90.19 17.04Q90.19 15.36 89.47 14.06Q88.75 12.77 87.49 12.01Q86.23 11.26 84.60 11.26ZM90.19 23.23L90.19 5.42L90.67 5.42L90.67 23.23L90.19 23.23ZM101.30 10.82L101.30 11.30Q99.79 11.33 98.72 12.05Q97.66 12.77 97.09 14.06Q96.53 15.36 96.53 17.16L96.53 17.16L96.10 17.16Q96.10 15.19 96.71 13.79Q97.32 12.38 98.50 11.62Q99.67 10.85 101.30 10.82L101.30 10.82ZM96.07 23.23L96.07 10.82L96.55 10.82L96.55 23.23L96.07 23.23ZM104.18 23.23L104.18 10.82L104.66 10.82L104.66 23.23L104.18 23.23ZM104.42 6.62L104.42 6.62Q104.69 6.62 104.87 6.80Q105.05 6.98 105.05 7.25L105.05 7.25Q105.05 7.49 104.87 7.68Q104.69 7.87 104.42 7.87L104.42 7.87Q104.18 7.87 103.99 7.68Q103.80 7.49 103.80 7.25L103.80 7.25Q103.80 6.98 103.99 6.80Q104.18 6.62 104.42 6.62ZM118.30 16.94L113.42 16.94Q111.46 16.94 110.38 17.65Q109.30 18.36 109.30 19.66L109.30 19.66Q109.30 21.02 110.27 21.89Q111.24 22.75 112.87 22.75L112.87 22.75Q114.10 22.75 115.09 22.40Q116.09 22.06 116.84 21.30Q117.60 20.54 118.08 19.30L118.08 19.30L118.51 19.49Q117.74 21.46 116.26 22.34Q114.77 23.23 112.85 23.23L112.85 23.23Q111.65 23.23 110.74 22.76Q109.82 22.30 109.32 21.49Q108.82 20.69 108.82 19.66L108.82 19.66Q108.82 18.14 110.06 17.30Q111.31 16.46 113.42 16.46L113.42 16.46L118.30 16.46L118.30 16.94ZM118.08 23.23L118.03 14.95Q118.01 13.25 117.04 12.28Q116.06 11.30 114.10 11.30L114.10 11.30Q112.85 11.30 111.80 11.77Q110.76 12.24 109.75 13.03L109.75 13.03L109.46 12.65Q110.16 12.10 110.89 11.69Q111.62 11.28 112.43 11.05Q113.23 10.82 114.10 10.82L114.10 10.82Q116.23 10.82 117.36 11.94Q118.49 13.06 118.51 14.95L118.51 14.95L118.56 23.23L118.08 23.23ZM125.74 6.94L125.74 6.46L130.68 6.46L130.68 23.23L130.22 23.23L130.22 6.72L130.44 6.94L125.74 6.94ZM143.23 6.41L143.23 6.41Q146.45 6.41 148.16 8.59Q149.88 10.78 149.88 14.83L149.88 14.83Q149.88 18.89 148.16 21.08Q146.45 23.28 143.23 23.28L143.23 23.28Q140.04 23.28 138.32 21.08Q136.61 18.89 136.61 14.83L136.61 14.83Q136.61 10.78 138.32 8.59Q140.04 6.41 143.23 6.41ZM143.23 6.89L143.23 6.89Q140.26 6.89 138.67 8.94Q137.09 10.99 137.09 14.83L137.09 14.83Q137.09 18.67 138.67 20.74Q140.26 22.80 143.23 22.80L143.23 22.80Q146.21 22.80 147.80 20.74Q149.40 18.67 149.40 14.83L149.40 14.83Q149.40 10.99 147.80 8.94Q146.21 6.89 143.23 6.89ZM160.58 6.41L160.58 6.41Q163.80 6.41 165.52 8.59Q167.23 10.78 167.23 14.83L167.23 14.83Q167.23 18.89 165.52 21.08Q163.80 23.28 160.58 23.28L160.58 23.28Q157.39 23.28 155.68 21.08Q153.96 18.89 153.96 14.83L153.96 14.83Q153.96 10.78 155.68 8.59Q157.39 6.41 160.58 6.41ZM160.58 6.89L160.58 6.89Q157.61 6.89 156.02 8.94Q154.44 10.99 154.44 14.83L154.44 14.83Q154.44 18.67 156.02 20.74Q157.61 22.80 160.58 22.80L160.58 22.80Q163.56 22.80 165.16 20.74Q166.75 18.67 166.75 14.83L166.75 14.83Q166.75 10.99 165.16 8.94Q163.56 6.89 160.58 6.89ZM186.19 23.23L186.19 15.72Q186.19 13.63 185.03 12.47Q183.86 11.30 181.80 11.30L181.80 11.30Q179.33 11.35 177.94 12.90Q176.54 14.45 176.54 17.16L176.54 17.16L176.11 17.16Q176.11 15.19 176.78 13.79Q177.46 12.38 178.74 11.62Q180.02 10.85 181.80 10.82L181.80 10.82Q183.34 10.82 184.43 11.41Q185.52 12.00 186.10 13.09Q186.67 14.18 186.67 15.72L186.67 15.72L186.67 23.23L186.19 23.23ZM176.09 23.23L176.09 10.82L176.57 10.82L176.57 23.23L176.09 23.23ZM196.18 10.82L196.18 10.82Q197.90 10.82 199.27 11.62Q200.64 12.41 201.42 13.81Q202.20 15.22 202.20 17.02L202.20 17.02Q202.20 18.82 201.42 20.22Q200.64 21.62 199.27 22.43Q197.90 23.23 196.18 23.23L196.18 23.23Q194.45 23.23 193.09 22.43Q191.74 21.62 190.94 20.22Q190.15 18.82 190.15 17.02L190.15 17.02Q190.15 15.22 190.94 13.81Q191.74 12.41 193.09 11.62Q194.45 10.82 196.18 10.82ZM196.18 11.30L196.18 11.30Q194.57 11.30 193.32 12.04Q192.07 12.77 191.35 14.05Q190.63 15.34 190.63 17.02L190.63 17.02Q190.63 18.70 191.35 19.99Q192.07 21.29 193.32 22.02Q194.57 22.75 196.18 22.75L196.18 22.75Q197.78 22.75 199.03 22.02Q200.28 21.29 201 19.99Q201.72 18.70 201.72 17.02L201.72 17.02Q201.72 15.34 201 14.05Q200.28 12.77 199.03 12.04Q197.78 11.30 196.18 11.30ZM211.32 10.82L211.32 11.30Q209.81 11.33 208.74 12.05Q207.67 12.77 207.11 14.06Q206.54 15.36 206.54 17.16L206.54 17.16L206.11 17.16Q206.11 15.19 206.72 13.79Q207.34 12.38 208.51 11.62Q209.69 10.85 211.32 10.82L211.32 10.82ZM206.09 23.23L206.09 10.82L206.57 10.82L206.57 23.23L206.09 23.23ZM224.09 23.23L224.09 15.72Q224.09 13.63 222.95 12.47Q221.81 11.30 219.79 11.30L219.79 11.30Q217.39 11.35 216.04 12.90Q214.68 14.45 214.68 17.16L214.68 17.16L214.25 17.16Q214.25 15.19 214.91 13.79Q215.57 12.38 216.82 11.62Q218.06 10.85 219.82 10.82L219.82 10.82Q221.30 10.82 222.37 11.41Q223.44 12.00 224.00 13.09Q224.57 14.18 224.57 15.72L224.57 15.72L224.57 23.23L224.09 23.23ZM233.95 23.23L233.95 15.72Q233.95 13.63 232.82 12.47Q231.70 11.30 229.68 11.30L229.68 11.30Q227.26 11.35 225.91 12.90Q224.57 14.45 224.57 17.16L224.57 17.16L224.14 17.16Q224.14 15.19 224.80 13.79Q225.46 12.38 226.70 11.62Q227.95 10.85 229.68 10.82L229.68 10.82Q231.19 10.82 232.25 11.41Q233.30 12.00 233.87 13.09Q234.43 14.18 234.43 15.72L234.43 15.72L234.43 23.23L233.95 23.23ZM214.20 23.23L214.20 10.82L214.68 10.82L214.68 23.23L214.20 23.23ZM247.66 16.94L242.78 16.94Q240.82 16.94 239.74 17.65Q238.66 18.36 238.66 19.66L238.66 19.66Q238.66 21.02 239.63 21.89Q240.60 22.75 242.23 22.75L242.23 22.75Q243.46 22.75 244.45 22.40Q245.45 22.06 246.20 21.30Q246.96 20.54 247.44 19.30L247.44 19.30L247.87 19.49Q247.10 21.46 245.62 22.34Q244.13 23.23 242.21 23.23L242.21 23.23Q241.01 23.23 240.10 22.76Q239.18 22.30 238.68 21.49Q238.18 20.69 238.18 19.66L238.18 19.66Q238.18 18.14 239.42 17.30Q240.67 16.46 242.78 16.46L242.78 16.46L247.66 16.46L247.66 16.94ZM247.44 23.23L247.39 14.95Q247.37 13.25 246.40 12.28Q245.42 11.30 243.46 11.30L243.46 11.30Q242.21 11.30 241.16 11.77Q240.12 12.24 239.11 13.03L239.11 13.03L238.82 12.65Q239.52 12.10 240.25 11.69Q240.98 11.28 241.79 11.05Q242.59 10.82 243.46 10.82L243.46 10.82Q245.59 10.82 246.72 11.94Q247.85 13.06 247.87 14.95L247.87 14.95L247.92 23.23L247.44 23.23ZM252.91 23.23L252.91 5.42L253.39 5.42L253.39 23.23L252.91 23.23Z"/></svg>