<svg xmlns="http://www.w3.org/2000/svg" xmlns:xlink="http://www.w3.org/1999/xlink" width="328.8960000000001" height="31.296"><path fill="black" d="M14.59 4.37L14.59 21.50L13.73 21.50L3.34 6.10L3.29 6.10Q3.31 6.74 3.32 7.38Q3.34 8.02 3.34 8.64Q3.34 9.26 3.34 9.96L3.34 9.96L3.34 21.50L2.45 21.50L2.45 4.37L3.34 4.37L13.68 19.73L13.73 19.73Q13.73 19.18 13.72 18.53Q13.70 17.88 13.69 17.22Q13.68 16.56 13.68 15.96L13.68 15.96L13.68 4.37L14.59 4.37ZM29.59 15.14L29.59 15.14Q29.59 16.58 29.26 17.78Q28.92 18.98 28.21 19.87Q27.50 20.76 26.46 21.25Q25.42 21.74 24 21.74L24 21.74Q22.66 21.74 21.62 21.26Q20.59 20.78 19.88 19.90Q19.18 19.01 18.82 17.81Q18.46 16.61 18.46 15.14L18.46 15.14Q18.46 13.10 19.13 11.63Q19.80 10.15 21.08 9.35Q22.37 8.54 24.12 8.54L24.12 8.54Q26.02 8.54 27.23 9.41Q28.44 10.27 29.02 11.76Q29.59 13.25 29.59 15.14ZM19.42 15.14L19.42 15.14Q19.42 16.85 19.92 18.16Q20.42 19.46 21.44 20.18Q22.46 20.90 24 20.90L24 20.90Q25.61 20.90 26.63 20.17Q27.65 19.44 28.14 18.13Q28.63 16.82 28.63 15.14L28.63 15.14Q28.63 13.51 28.18 12.22Q27.72 10.92 26.74 10.15Q25.75 9.38 24.12 9.38L24.12 9.38Q21.82 9.38 20.62 10.91Q19.42 12.43 19.42 15.14ZM36.36 20.90L36.36 20.90Q36.94 20.90 37.39 20.82Q37.85 20.74 38.23 20.62L38.23 20.62L38.23 21.41Q37.85 21.55 37.37 21.65Q36.89 21.74 36.29 21.74L36.29 21.74Q35.18 21.74 34.51 21.32Q33.84 20.90 33.52 20.09Q33.19 19.27 33.19 18.07L33.19 18.07L33.19 9.60L31.27 9.60L31.27 8.98L33.19 8.76L33.48 5.69L34.13 5.69L34.13 8.78L38.16 8.78L38.16 9.60L34.13 9.60L34.13 18Q34.13 19.42 34.62 20.16Q35.11 20.90 36.36 20.90ZM51.41 15.14L51.41 15.14Q51.41 16.58 51.07 17.78Q50.74 18.98 50.03 19.87Q49.32 20.76 48.28 21.25Q47.23 21.74 45.82 21.74L45.82 21.74Q44.47 21.74 43.44 21.26Q42.41 20.78 41.70 19.90Q40.99 19.01 40.63 17.81Q40.27 16.61 40.27 15.14L40.27 15.14Q40.27 13.10 40.94 11.63Q41.62 10.15 42.90 9.35Q44.18 8.54 45.94 8.54L45.94 8.54Q47.83 8.54 49.04 9.41Q50.26 10.27 50.83 11.76Q51.41 13.25 51.41 15.14ZM41.23 15.14L41.23 15.14Q41.23 16.85 41.74 18.16Q42.24 19.46 43.26 20.18Q44.28 20.90 45.82 20.90L45.82 20.90Q47.42 20.90 48.44 20.17Q49.46 19.44 49.96 18.13Q50.45 16.82 50.45 15.14L50.45 15.14Q50.45 13.51 49.99 12.22Q49.54 10.92 48.55 10.15Q47.57 9.38 45.94 9.38L45.94 9.38Q43.63 9.38 42.43 10.91Q41.23 12.43 41.23 15.14ZM70.87 17.14L70.87 17.14Q70.87 18.67 70.09 19.70Q69.31 20.74 67.99 21.24Q66.67 21.74 65.04 21.74L65.04 21.74Q63.98 21.74 63.14 21.64Q62.30 21.53 61.63 21.37Q60.96 21.22 60.38 21.02L60.38 21.02L60.38 20.04Q61.32 20.40 62.50 20.64Q63.67 20.88 65.11 20.88L65.11 20.88Q66.46 20.88 67.54 20.48Q68.62 20.09 69.26 19.26Q69.91 18.43 69.91 17.16L69.91 17.16Q69.91 16.03 69.38 15.32Q68.86 14.62 67.82 14.12Q66.79 13.63 65.28 13.15L65.28 13.15Q64.25 12.82 63.37 12.43Q62.50 12.05 61.87 11.52Q61.25 10.99 60.91 10.26Q60.58 9.53 60.58 8.45L60.58 8.45Q60.58 7.03 61.31 6.07Q62.04 5.11 63.28 4.62Q64.51 4.13 66.02 4.13L66.02 4.13Q67.22 4.13 68.32 4.34Q69.41 4.56 70.44 5.04L70.44 5.04L70.08 5.86Q69.02 5.38 68.00 5.18Q66.98 4.99 65.98 4.99L65.98 4.99Q64.75 4.99 63.74 5.36Q62.74 5.74 62.14 6.49Q61.54 7.25 61.54 8.42L61.54 8.42Q61.54 9.62 62.09 10.36Q62.64 11.09 63.62 11.53Q64.61 11.98 65.86 12.41L65.86 12.41Q67.39 12.89 68.51 13.45Q69.62 14.02 70.25 14.87Q70.87 15.72 70.87 17.14ZM78.58 8.57L78.58 8.57Q80.62 8.57 81.64 9.64Q82.66 10.70 82.66 13.03L82.66 13.03L82.66 21.50L81.91 21.50L81.74 19.15L81.70 19.15Q81.31 19.87 80.72 20.47Q80.14 21.07 79.27 21.41Q78.41 21.74 77.14 21.74L77.14 21.74Q75.89 21.74 75.02 21.32Q74.16 20.90 73.72 20.14Q73.27 19.37 73.27 18.31L73.27 18.31Q73.27 16.42 74.84 15.44Q76.42 14.47 79.32 14.33L79.32 14.33L81.72 14.18L81.72 13.22Q81.72 11.16 80.93 10.28Q80.14 9.41 78.55 9.41L78.55 9.41Q77.57 9.41 76.67 9.64Q75.77 9.86 74.78 10.37L74.78 10.37L74.50 9.55Q75.43 9.12 76.45 8.84Q77.47 8.57 78.58 8.57ZM81.72 14.98L79.42 15.07Q76.97 15.19 75.60 15.96Q74.23 16.73 74.23 18.31L74.23 18.31Q74.23 19.56 75.02 20.24Q75.82 20.93 77.23 20.93L77.23 20.93Q79.49 20.93 80.59 19.66Q81.70 18.38 81.72 16.25L81.72 16.25L81.72 14.98ZM92.21 8.54L92.21 8.54Q94.32 8.54 95.46 9.67Q96.60 10.80 96.60 13.18L96.60 13.18L96.60 21.50L95.66 21.50L95.66 13.22Q95.66 11.23 94.75 10.31Q93.84 9.38 92.14 9.38L92.14 9.38Q90.07 9.38 88.88 10.62Q87.70 11.86 87.70 14.38L87.70 14.38L87.70 21.50L86.76 21.50L86.76 8.78L87.50 8.78L87.65 11.28L87.72 11.28Q88.03 10.54 88.61 9.92Q89.18 9.31 90.07 8.93Q90.96 8.54 92.21 8.54ZM108.58 18.22L108.58 18.22Q108.58 19.32 108.02 20.11Q107.47 20.90 106.39 21.32Q105.31 21.74 103.73 21.74L103.73 21.74Q102.41 21.74 101.35 21.50Q100.30 21.26 99.60 20.93L99.60 20.93L99.60 19.97Q100.51 20.40 101.58 20.66Q102.65 20.93 103.75 20.93L103.75 20.93Q105.82 20.93 106.73 20.21Q107.64 19.49 107.64 18.26L107.64 18.26Q107.64 17.42 107.17 16.90Q106.70 16.37 105.86 16.01Q105.02 15.65 103.94 15.31L103.94 15.31Q102.79 14.93 101.88 14.56Q100.97 14.18 100.44 13.55Q99.91 12.91 99.91 11.76L99.91 11.76Q99.91 10.22 101.12 9.38Q102.34 8.54 104.38 8.54L104.38 8.54Q105.50 8.54 106.50 8.76Q107.50 8.98 108.26 9.31L108.26 9.31L107.90 10.13Q107.21 9.79 106.25 9.59Q105.29 9.38 104.35 9.38L104.35 9.38Q102.70 9.38 101.77 9.97Q100.85 10.56 100.85 11.74L100.85 11.74Q100.85 12.62 101.30 13.10Q101.76 13.58 102.56 13.88Q103.37 14.18 104.38 14.54L104.38 14.54Q105.48 14.90 106.44 15.30Q107.40 15.70 107.99 16.37Q108.58 17.04 108.58 18.22ZM124.92 13.85L124.92 12.98L131.33 12.98L131.33 20.69Q130.13 21.22 128.74 21.48Q127.34 21.74 125.86 21.74L125.86 21.74Q123.12 21.74 121.24 20.71Q119.35 19.68 118.39 17.72Q117.43 15.77 117.43 12.98L117.43 12.98Q117.43 10.39 118.48 8.40Q119.52 6.41 121.46 5.24Q123.41 4.08 126.12 4.08L126.12 4.08Q127.51 4.08 128.76 4.34Q130.01 4.61 131.14 5.14L131.14 5.14L130.73 6.00Q129.58 5.42 128.41 5.18Q127.25 4.94 126.10 4.94L126.10 4.94Q123.70 4.94 121.97 5.98Q120.24 7.01 119.32 8.82Q118.39 10.63 118.39 12.96L118.39 12.96Q118.39 15.67 119.30 17.44Q120.22 19.20 121.92 20.04Q123.62 20.88 126 20.88L126 20.88Q127.34 20.88 128.42 20.68Q129.50 20.47 130.39 20.14L130.39 20.14L130.39 13.85L124.92 13.85ZM144.12 8.78L145.06 8.78L145.06 21.50L144.29 21.50L144.14 19.03L144.10 19.03Q143.81 19.75 143.22 20.38Q142.63 21 141.73 21.37Q140.83 21.74 139.58 21.74L139.58 21.74Q138.14 21.74 137.17 21.23Q136.20 20.71 135.70 19.68Q135.19 18.65 135.19 17.11L135.19 17.11L135.19 8.78L136.13 8.78L136.13 17.02Q136.13 19.01 137.04 19.96Q137.95 20.90 139.66 20.90L139.66 20.90Q141.05 20.90 142.04 20.35Q143.04 19.80 143.58 18.71Q144.12 17.62 144.12 15.94L144.12 15.94L144.12 8.78ZM147.53 27.26L147.53 27.26Q147.05 27.26 146.66 27.19Q146.28 27.12 145.99 27.02L145.99 27.02L145.99 26.16Q146.35 26.33 146.72 26.38Q147.10 26.42 147.48 26.42L147.48 26.42Q148.39 26.42 148.87 25.84Q149.35 25.25 149.35 24.12L149.35 24.12L149.35 8.78L150.29 8.78L150.29 24.19Q150.29 25.20 149.93 25.90Q149.57 26.59 148.96 26.93Q148.34 27.26 147.53 27.26ZM149.09 4.99L149.09 4.99Q149.09 4.61 149.26 4.37Q149.42 4.13 149.81 4.13L149.81 4.13Q150.26 4.13 150.42 4.37Q150.58 4.61 150.58 4.99L150.58 4.99Q150.58 5.38 150.42 5.62Q150.26 5.86 149.81 5.86L149.81 5.86Q149.42 5.86 149.26 5.62Q149.09 5.38 149.09 4.99ZM158.88 8.57L158.88 8.57Q160.92 8.57 161.94 9.64Q162.96 10.70 162.96 13.03L162.96 13.03L162.96 21.50L162.22 21.50L162.05 19.15L162.00 19.15Q161.62 19.87 161.03 20.47Q160.44 21.07 159.58 21.41Q158.71 21.74 157.44 21.74L157.44 21.74Q156.19 21.74 155.33 21.32Q154.46 20.90 154.02 20.14Q153.58 19.37 153.58 18.31L153.58 18.31Q153.58 16.42 155.15 15.44Q156.72 14.47 159.62 14.33L159.62 14.33L162.02 14.18L162.02 13.22Q162.02 11.16 161.23 10.28Q160.44 9.41 158.86 9.41L158.86 9.41Q157.87 9.41 156.97 9.64Q156.07 9.86 155.09 10.37L155.09 10.37L154.80 9.55Q155.74 9.12 156.76 8.84Q157.78 8.57 158.88 8.57ZM162.02 14.98L159.72 15.07Q157.27 15.19 155.90 15.96Q154.54 16.73 154.54 18.31L154.54 18.31Q154.54 19.56 155.33 20.24Q156.12 20.93 157.54 20.93L157.54 20.93Q159.79 20.93 160.90 19.66Q162.00 18.38 162.02 16.25L162.02 16.25L162.02 14.98ZM171.89 8.59L171.89 8.59Q172.42 8.59 172.87 8.65Q173.33 8.71 173.74 8.83L173.74 8.83L173.57 9.70Q173.14 9.58 172.75 9.52Q172.37 9.46 171.84 9.46L171.84 9.46Q170.90 9.46 170.18 9.80Q169.46 10.15 168.98 10.80Q168.50 11.45 168.25 12.37Q168.00 13.30 168.00 14.42L168.00 14.42L168.00 21.50L167.09 21.50L167.09 8.78L167.90 8.78L167.98 11.21L168.05 11.21Q168.31 10.46 168.83 9.88Q169.34 9.29 170.12 8.94Q170.90 8.59 171.89 8.59ZM180.58 8.57L180.58 8.57Q182.62 8.57 183.64 9.64Q184.66 10.70 184.66 13.03L184.66 13.03L184.66 21.50L183.91 21.50L183.74 19.15L183.70 19.15Q183.31 19.87 182.72 20.47Q182.14 21.07 181.27 21.41Q180.41 21.74 179.14 21.74L179.14 21.74Q177.89 21.74 177.02 21.32Q176.16 20.90 175.72 20.14Q175.27 19.37 175.27 18.31L175.27 18.31Q175.27 16.42 176.84 15.44Q178.42 14.47 181.32 14.33L181.32 14.33L183.72 14.18L183.72 13.22Q183.72 11.16 182.93 10.28Q182.14 9.41 180.55 9.41L180.55 9.41Q179.57 9.41 178.67 9.64Q177.77 9.86 176.78 10.37L176.78 10.37L176.50 9.55Q177.43 9.12 178.45 8.84Q179.47 8.57 180.58 8.57ZM183.72 14.98L181.42 15.07Q178.97 15.19 177.60 15.96Q176.23 16.73 176.23 18.31L176.23 18.31Q176.23 19.56 177.02 20.24Q177.82 20.93 179.23 20.93L179.23 20.93Q181.49 20.93 182.59 19.66Q183.70 18.38 183.72 16.25L183.72 16.25L183.72 14.98ZM191.98 20.90L191.98 20.90Q192.55 20.90 193.01 20.82Q193.46 20.74 193.85 20.62L193.85 20.62L193.85 21.41Q193.46 21.55 192.98 21.65Q192.50 21.74 191.90 21.74L191.90 21.74Q190.80 21.74 190.13 21.32Q189.46 20.90 189.13 20.09Q188.81 19.27 188.81 18.07L188.81 18.07L188.81 9.60L186.89 9.60L186.89 8.98L188.81 8.76L189.10 5.69L189.74 5.69L189.74 8.78L193.78 8.78L193.78 9.60L189.74 9.60L189.74 18Q189.74 19.42 190.24 20.16Q190.73 20.90 191.98 20.90ZM196.63 8.78L197.57 8.78L197.57 21.50L196.63 21.50L196.63 8.78ZM197.09 4.13L197.09 4.13Q197.54 4.13 197.70 4.37Q197.86 4.61 197.86 4.99L197.86 4.99Q197.86 5.38 197.70 5.62Q197.54 5.86 197.09 5.86L197.09 5.86Q196.70 5.86 196.54 5.62Q196.37 5.38 196.37 4.99L196.37 4.99Q196.37 4.61 196.54 4.37Q196.70 4.13 197.09 4.13ZM217.87 20.64L217.87 21.50L207.31 21.50L207.31 20.71L212.50 15.26Q213.70 14.02 214.50 13.00Q215.30 11.98 215.72 10.94Q216.14 9.91 216.14 8.62L216.14 8.62Q216.14 6.89 215.15 5.93Q214.15 4.97 212.40 4.97L212.40 4.97Q211.34 4.97 210.29 5.36Q209.23 5.76 208.27 6.53L208.27 6.53L207.74 5.86Q208.49 5.26 209.27 4.88Q210.05 4.51 210.85 4.32Q211.66 4.13 212.40 4.13L212.40 4.13Q213.82 4.13 214.87 4.69Q215.93 5.26 216.52 6.25Q217.10 7.25 217.10 8.59L217.10 8.59Q217.10 10.01 216.64 11.15Q216.17 12.29 215.30 13.36Q214.44 14.42 213.24 15.67L213.24 15.67L208.54 20.59L208.54 20.64L217.87 20.64ZM231.86 12.86L231.86 12.86Q231.86 15.05 231.54 16.70Q231.22 18.36 230.54 19.48Q229.87 20.59 228.86 21.17Q227.86 21.74 226.46 21.74L226.46 21.74Q224.74 21.74 223.52 20.76Q222.31 19.78 221.68 17.81Q221.04 15.84 221.04 12.86L221.04 12.86Q221.04 10.32 221.57 8.34Q222.10 6.36 223.30 5.23Q224.50 4.10 226.49 4.10L226.49 4.10Q228.50 4.10 229.68 5.21Q230.86 6.31 231.36 8.29Q231.86 10.27 231.86 12.86ZM222 12.86L222 12.86Q222 15.60 222.49 17.38Q222.98 19.15 223.97 20.03Q224.95 20.90 226.46 20.90L226.46 20.90Q228.05 20.90 229.03 20.03Q230.02 19.15 230.47 17.38Q230.93 15.60 230.93 12.86L230.93 12.86Q230.93 10.44 230.53 8.66Q230.14 6.89 229.18 5.92Q228.22 4.94 226.49 4.94L226.49 4.94Q224.78 4.94 223.80 5.94Q222.82 6.94 222.41 8.72Q222 10.51 222 12.86ZM245.54 12.86L245.54 12.86Q245.54 15.05 245.22 16.70Q244.90 18.36 244.22 19.48Q243.55 20.59 242.54 21.17Q241.54 21.74 240.14 21.74L240.14 21.74Q238.42 21.74 237.20 20.76Q235.99 19.78 235.36 17.81Q234.72 15.84 234.72 12.86L234.72 12.86Q234.72 10.32 235.25 8.34Q235.78 6.36 236.98 5.23Q238.18 4.10 240.17 4.10L240.17 4.10Q242.18 4.10 243.36 5.21Q244.54 6.31 245.04 8.29Q245.54 10.27 245.54 12.86ZM235.68 12.86L235.68 12.86Q235.68 15.60 236.17 17.38Q236.66 19.15 237.65 20.03Q238.63 20.90 240.14 20.90L240.14 20.90Q241.73 20.90 242.71 20.03Q243.70 19.15 244.15 17.38Q244.61 15.60 244.61 12.86L244.61 12.86Q244.61 10.44 244.21 8.66Q243.82 6.89 242.86 5.92Q241.90 4.94 240.17 4.94L240.17 4.94Q238.46 4.94 237.48 5.94Q236.50 6.94 236.09 8.72Q235.68 10.51 235.68 12.86ZM260.81 8.54L260.81 8.54Q262.92 8.54 264.06 9.67Q265.20 10.80 265.20 13.18L265.20 13.18L265.20 21.50L264.26 21.50L264.26 13.22Q264.26 11.23 263.35 10.31Q262.44 9.38 260.74 9.38L260.74 9.38Q258.67 9.38 257.48 10.62Q256.30 11.86 256.30 14.38L256.30 14.38L256.30 21.50L255.36 21.50L255.36 8.78L256.10 8.78L256.25 11.28L256.32 11.28Q256.63 10.54 257.21 9.92Q257.78 9.31 258.67 8.93Q259.56 8.54 260.81 8.54ZM279.72 15.14L279.72 15.14Q279.72 16.58 279.38 17.78Q279.05 18.98 278.34 19.87Q277.63 20.76 276.59 21.25Q275.54 21.74 274.13 21.74L274.13 21.74Q272.78 21.74 271.75 21.26Q270.72 20.78 270.01 19.90Q269.30 19.01 268.94 17.81Q268.58 16.61 268.58 15.14L268.58 15.14Q268.58 13.10 269.26 11.63Q269.93 10.15 271.21 9.35Q272.50 8.54 274.25 8.54L274.25 8.54Q276.14 8.54 277.36 9.41Q278.57 10.27 279.14 11.76Q279.72 13.25 279.72 15.14ZM269.54 15.14L269.54 15.14Q269.54 16.85 270.05 18.16Q270.55 19.46 271.57 20.18Q272.59 20.90 274.13 20.90L274.13 20.90Q275.74 20.90 276.76 20.17Q277.78 19.44 278.27 18.13Q278.76 16.82 278.76 15.14L278.76 15.14Q278.76 13.51 278.30 12.22Q277.85 10.92 276.86 10.15Q275.88 9.38 274.25 9.38L274.25 9.38Q271.94 9.38 270.74 10.91Q269.54 12.43 269.54 15.14ZM288.10 8.59L288.10 8.59Q288.62 8.59 289.08 8.65Q289.54 8.71 289.94 8.83L289.94 8.83L289.78 9.70Q289.34 9.58 288.96 9.52Q288.58 9.46 288.05 9.46L288.05 9.46Q287.11 9.46 286.39 9.80Q285.67 10.15 285.19 10.80Q284.71 11.45 284.46 12.37Q284.21 13.30 284.21 14.42L284.21 14.42L284.21 21.50L283.30 21.50L283.30 8.78L284.11 8.78L284.18 11.21L284.26 11.21Q284.52 10.46 285.04 9.88Q285.55 9.29 286.33 8.94Q287.11 8.59 288.10 8.59ZM305.35 8.54L305.35 8.54Q307.10 8.54 308.16 9.60Q309.22 10.66 309.22 12.89L309.22 12.89L309.22 21.50L308.30 21.50L308.30 12.94Q308.30 11.09 307.45 10.24Q306.60 9.38 305.28 9.38L305.28 9.38Q303.46 9.38 302.38 10.44Q301.30 11.50 301.30 13.85L301.30 13.85L301.30 21.50L300.38 21.50L300.38 12.94Q300.38 11.69 299.99 10.92Q299.59 10.15 298.92 9.77Q298.25 9.38 297.36 9.38L297.36 9.38Q296.21 9.38 295.32 9.86Q294.43 10.34 293.92 11.34Q293.40 12.34 293.40 13.94L293.40 13.94L293.40 21.50L292.46 21.50L292.46 8.78L293.21 8.78L293.35 10.99L293.42 10.99Q293.71 10.37 294.22 9.82Q294.72 9.26 295.51 8.90Q296.30 8.54 297.43 8.54L297.43 8.54Q298.80 8.54 299.75 9.19Q300.70 9.84 301.03 11.09L301.03 11.09L301.08 11.09Q301.58 9.91 302.66 9.23Q303.74 8.54 305.35 8.54ZM317.64 8.57L317.64 8.57Q319.68 8.57 320.70 9.64Q321.72 10.70 321.72 13.03L321.72 13.03L321.72 21.50L320.98 21.50L320.81 19.15L320.76 19.15Q320.38 19.87 319.79 20.47Q319.20 21.07 318.34 21.41Q317.47 21.74 316.20 21.74L316.20 21.74Q314.95 21.74 314.09 21.32Q313.22 20.90 312.78 20.14Q312.34 19.37 312.34 18.31L312.34 18.31Q312.34 16.42 313.91 15.44Q315.48 14.47 318.38 14.33L318.38 14.33L320.78 14.18L320.78 13.22Q320.78 11.16 319.99 10.28Q319.20 9.41 317.62 9.41L317.62 9.41Q316.63 9.41 315.73 9.64Q314.83 9.86 313.85 10.37L313.85 10.37L313.56 9.55Q314.50 9.12 315.52 8.84Q316.54 8.57 317.64 8.57ZM320.78 14.98L318.48 15.07Q316.03 15.19 314.66 15.96Q313.30 16.73 313.30 18.31L313.30 18.31Q313.30 19.56 314.09 20.24Q314.88 20.93 316.30 20.93L316.30 20.93Q318.55 20.93 319.66 19.66Q320.76 18.38 320.78 16.25L320.78 16.25L320.78 14.98ZM326.76 3.26L326.76 21.50L325.85 21.50L325.85 3.26L326.76 3.26Z"/></svg>