<svg xmlns="http://www.w3.org/2000/svg" xmlns:xlink="http://www.w3.org/1999/xlink" width="51.432" height="44.976"><path fill="black" d="M7.49 31.51L7.49 31.51Q5.62 31.51 4.43 30.96Q3.24 30.41 2.57 29.33Q1.90 28.25 1.64 26.66Q1.39 25.08 1.39 23.02L1.39 23.02Q1.39 20.90 1.64 19.30Q1.90 17.69 2.57 16.61Q3.24 15.53 4.43 14.98Q5.62 14.42 7.49 14.42L7.49 14.42Q8.35 14.42 9.20 14.51Q10.06 14.59 10.80 14.72Q11.54 14.86 12.07 14.98L12.07 14.98L12 16.58Q11.47 16.49 10.70 16.39Q9.94 16.30 9.14 16.22Q8.35 16.15 7.70 16.15L7.70 16.15Q6.34 16.15 5.48 16.56Q4.63 16.97 4.18 17.82Q3.72 18.67 3.55 19.96Q3.38 21.24 3.38 23.02L3.38 23.02Q3.38 24.74 3.55 26.03Q3.72 27.31 4.16 28.14Q4.61 28.97 5.47 29.38Q6.34 29.78 7.73 29.78L7.73 29.78Q8.74 29.78 9.95 29.65Q11.16 29.52 12 29.38L12 29.38L12.07 31.01Q11.50 31.13 10.73 31.25Q9.96 31.37 9.12 31.44Q8.28 31.51 7.49 31.51ZM17.40 31.51L17.40 31.51Q15.74 31.51 14.88 30.58Q14.02 29.64 14.02 27.84L14.02 27.84Q14.02 26.66 14.42 25.92Q14.83 25.18 15.66 24.78Q16.49 24.38 17.71 24.29L17.71 24.29L21.41 23.93L21.41 22.90Q21.41 21.67 20.87 21.17Q20.33 20.66 19.27 20.66L19.27 20.66Q18.67 20.66 17.84 20.71Q17.02 20.76 16.20 20.83Q15.38 20.90 14.76 20.98L14.76 20.98L14.66 19.56Q15.24 19.44 16.06 19.32Q16.87 19.20 17.76 19.12Q18.65 19.03 19.39 19.03L19.39 19.03Q20.76 19.03 21.62 19.45Q22.49 19.87 22.88 20.72Q23.28 21.58 23.28 22.90L23.28 22.90L23.28 28.97Q23.33 29.50 23.70 29.74Q24.07 29.98 24.65 30.05L24.65 30.05L24.58 31.51Q24.24 31.51 23.93 31.49Q23.62 31.46 23.34 31.40Q23.06 31.34 22.80 31.27L22.80 31.27Q22.49 31.15 22.21 30.98Q21.94 30.82 21.67 30.58L21.67 30.58Q21.22 30.77 20.51 30.98Q19.80 31.20 19.00 31.36Q18.19 31.51 17.40 31.51ZM17.71 29.95L17.71 29.95Q18.36 29.95 19.06 29.83Q19.75 29.71 20.38 29.54Q21 29.38 21.41 29.23L21.41 29.23L21.41 25.32L17.93 25.66Q16.85 25.75 16.38 26.28Q15.91 26.81 15.91 27.79L15.91 27.79Q15.91 28.80 16.37 29.38Q16.82 29.95 17.71 29.95ZM28.68 31.27L26.83 31.27L26.83 19.27L28.68 19.27L28.68 31.27ZM28.68 16.63L26.83 16.63L26.83 14.47L28.68 14.47L28.68 16.63ZM33.98 31.27L32.14 31.27L32.14 19.27L33.98 19.27L33.98 20.88Q34.44 20.57 35.14 20.20Q35.83 19.82 36.67 19.49Q37.51 19.15 38.35 19.01L38.35 19.01L38.35 20.90Q37.54 21.07 36.70 21.35Q35.86 21.62 35.15 21.94Q34.44 22.25 33.98 22.49L33.98 22.49L33.98 31.27ZM45.07 31.51L45.07 31.51Q43.06 31.51 41.94 30.82Q40.82 30.12 40.38 28.70Q39.94 27.29 39.94 25.13L39.94 25.13Q39.94 23.06 40.43 21.72Q40.92 20.38 42.05 19.70Q43.18 19.03 45.07 19.03L45.07 19.03Q46.99 19.03 48.12 19.70Q49.25 20.38 49.74 21.72Q50.23 23.06 50.23 25.13L50.23 25.13Q50.23 27.29 49.79 28.70Q49.34 30.12 48.23 30.82Q47.11 31.51 45.07 31.51ZM45.07 29.90L45.07 29.90Q46.46 29.90 47.16 29.41Q47.86 28.92 48.08 27.86Q48.31 26.81 48.31 25.13L48.31 25.13Q48.31 23.47 48.02 22.49Q47.74 21.50 47.04 21.07Q46.34 20.64 45.07 20.64L45.07 20.64Q43.82 20.64 43.12 21.07Q42.41 21.50 42.12 22.49Q41.83 23.47 41.83 25.13L41.83 25.13Q41.83 26.81 42.06 27.86Q42.29 28.92 42.98 29.41Q43.68 29.90 45.07 29.90Z"/></svg>