<svg xmlns="http://www.w3.org/2000/svg" xmlns:xlink="http://www.w3.org/1999/xlink" width="190.032" height="28.8"><path fill="black" d="M12.60 18.02L11.52 22.66L0.12 22.66L0.14 21.60L10.49 8.66L10.49 8.59L3.84 8.59L2.86 11.78L1.44 11.57L2.50 7.06L12.91 7.06L13.03 8.02L2.64 21.05L2.62 21.12L10.13 21.12L11.14 17.81L12.60 18.02ZM18 9.22L16.22 9.22L16.44 7.03L18.22 7.03L18 9.22ZM13.97 13.34L14.09 12.43L14.59 11.98L17.62 11.98L16.49 21.29L18.29 21.29L18.17 22.25L17.64 22.66L14.69 22.66L15.82 13.34L13.97 13.34ZM20.47 7.51L20.59 6.60L21.07 6.14L24.12 6.14L22.27 21.29L24.05 21.29L23.93 22.25L23.42 22.66L20.47 22.66L22.32 7.51L20.47 7.51ZM26.21 7.51L26.33 6.60L26.81 6.14L29.86 6.14L28.01 21.29L29.78 21.29L29.66 22.25L29.16 22.66L26.21 22.66L28.06 7.51L26.21 7.51ZM40.18 11.98L41.76 11.98Q41.52 12.82 41.33 13.63Q41.14 14.45 41.04 15.29L41.04 15.29L40.27 21.29L41.88 21.29L41.78 22.25L41.28 22.66L38.76 22.66L38.81 20.50Q38.28 21.46 37.43 22.18Q36.58 22.90 35.16 22.90L35.16 22.90Q33.41 22.90 32.50 21.67Q31.58 20.45 31.58 18.38L31.58 18.38Q31.58 17.02 32.05 15.47Q32.52 13.92 33.60 12.84Q34.68 11.76 36.53 11.76L36.53 11.76Q38.98 11.76 39.70 13.78L39.70 13.78Q39.79 13.32 39.91 12.88Q40.03 12.43 40.18 11.98L40.18 11.98ZM36.70 13.13L36.70 13.13Q35.38 13.13 34.66 13.94Q33.94 14.76 33.64 15.92Q33.34 17.09 33.34 18.12L33.34 18.12Q33.34 21.53 35.66 21.53L35.66 21.53Q36.98 21.53 37.86 20.45Q38.74 19.37 39 18.26L39 18.26L39.31 15.91Q39.29 14.71 38.57 13.92Q37.85 13.13 36.70 13.13ZM59.45 18L59.45 18Q59.45 20.35 57.95 21.62Q56.45 22.90 53.69 22.90L53.69 22.90Q52.20 22.90 50.83 22.55Q49.46 22.20 48.79 21.62L48.79 21.62L49.42 18.55L50.78 18.70L50.52 20.66Q51.19 21.05 52.07 21.20Q52.94 21.36 53.69 21.36L53.69 21.36Q55.42 21.36 56.51 20.63Q57.60 19.90 57.60 18.22L57.60 18.22Q57.60 16.51 56.56 16.06Q55.51 15.60 54.14 15.26L54.14 15.26Q52.68 14.93 51.35 14.16Q50.02 13.39 50.02 11.28L50.02 11.28Q50.02 8.93 51.70 7.87Q53.38 6.82 55.32 6.82L55.32 6.82Q56.57 6.82 57.84 7.18Q59.11 7.54 59.74 8.11L59.74 8.11L59.57 11.21L58.13 11.35L58.13 9.02Q57.43 8.64 56.70 8.51Q55.97 8.38 55.39 8.38L55.39 8.38Q53.76 8.38 52.80 9.10Q51.84 9.82 51.84 11.14L51.84 11.14Q51.84 12.48 52.75 12.94Q53.66 13.39 54.94 13.73L54.94 13.73Q56.74 14.16 58.09 14.90Q59.45 15.65 59.45 18ZM61.90 7.51L62.02 6.60L62.50 6.14L65.54 6.14L63.70 21.29L65.47 21.29L65.35 22.25L64.85 22.66L61.90 22.66L63.74 7.51L61.90 7.51ZM75.86 11.98L77.45 11.98Q77.21 12.82 77.02 13.63Q76.82 14.45 76.73 15.29L76.73 15.29L75.96 21.29L77.57 21.29L77.47 22.25L76.97 22.66L74.45 22.66L74.50 20.50Q73.97 21.46 73.12 22.18Q72.26 22.90 70.85 22.90L70.85 22.90Q69.10 22.90 68.18 21.67Q67.27 20.45 67.27 18.38L67.27 18.38Q67.27 17.02 67.74 15.47Q68.21 13.92 69.29 12.84Q70.37 11.76 72.22 11.76L72.22 11.76Q74.66 11.76 75.38 13.78L75.38 13.78Q75.48 13.32 75.60 12.88Q75.72 12.43 75.86 11.98L75.86 11.98ZM72.38 13.13L72.38 13.13Q71.06 13.13 70.34 13.94Q69.62 14.76 69.32 15.92Q69.02 17.09 69.02 18.12L69.02 18.12Q69.02 21.53 71.35 21.53L71.35 21.53Q72.67 21.53 73.55 20.45Q74.42 19.37 74.69 18.26L74.69 18.26L75 15.91Q74.98 14.71 74.26 13.92Q73.54 13.13 72.38 13.13ZM79.68 7.51L79.80 6.58L80.30 6.14L83.28 6.14L82.30 14.09Q82.85 13.13 83.69 12.44Q84.53 11.76 85.90 11.76L85.90 11.76Q87.74 11.76 88.72 13.01Q89.69 14.26 89.69 16.30L89.69 16.30Q89.69 17.66 89.22 19.20Q88.75 20.74 87.65 21.82Q86.54 22.90 84.67 22.90L84.67 22.90Q82.10 22.90 81.36 20.90L81.36 20.90Q81.26 21.34 81.14 21.77Q81.02 22.20 80.90 22.66L80.90 22.66L79.30 22.66Q79.49 21.96 79.69 21.14Q79.90 20.33 79.99 19.54L79.99 19.54L81.46 7.51L79.68 7.51ZM84.53 21.53L84.53 21.53Q85.82 21.53 86.57 20.70Q87.31 19.87 87.62 18.70Q87.94 17.52 87.94 16.54L87.94 16.54Q87.94 13.13 85.46 13.13L85.46 13.13Q84.10 13.13 83.20 14.18Q82.30 15.24 82.03 16.37L82.03 16.37L81.74 18.70Q81.74 19.90 82.52 20.71Q83.30 21.53 84.53 21.53ZM105.07 21.79L104.64 25.80L102.94 25.80L103.37 21.79L96.10 21.79L96.07 20.30L102.62 10.15L106.27 10.15L105.22 20.30L107.71 20.30L107.35 21.79L105.07 21.79ZM97.70 20.30L103.51 20.30L104.42 11.66L103.22 11.66L97.70 20.30ZM109.70 17.28L109.70 17.28Q109.70 14.30 111.37 12.12Q113.04 9.94 116.14 9.94L116.14 9.94Q118.73 9.94 119.95 11.53Q121.18 13.13 121.18 15.67L121.18 15.67Q121.18 18.84 119.47 20.87Q117.77 22.90 114.77 22.90L114.77 22.90Q112.30 22.90 111.00 21.40Q109.70 19.90 109.70 17.28ZM111.53 17.09L111.53 17.09Q111.53 19.06 112.32 20.20Q113.11 21.34 114.94 21.34L114.94 21.34Q117.00 21.34 118.18 19.82Q119.35 18.31 119.35 15.67L119.35 15.67Q119.35 13.78 118.58 12.64Q117.82 11.50 115.94 11.50L115.94 11.50Q113.78 11.50 112.66 13.02Q111.53 14.54 111.53 17.09ZM123.29 17.28L123.29 17.28Q123.29 14.30 124.96 12.12Q126.62 9.94 129.72 9.94L129.72 9.94Q132.31 9.94 133.54 11.53Q134.76 13.13 134.76 15.67L134.76 15.67Q134.76 18.84 133.06 20.87Q131.35 22.90 128.35 22.90L128.35 22.90Q125.88 22.90 124.58 21.40Q123.29 19.90 123.29 17.28ZM125.11 17.09L125.11 17.09Q125.11 19.06 125.90 20.20Q126.70 21.34 128.52 21.34L128.52 21.34Q130.58 21.34 131.76 19.82Q132.94 18.31 132.94 15.67L132.94 15.67Q132.94 13.78 132.17 12.64Q131.40 11.50 129.53 11.50L129.53 11.50Q127.37 11.50 126.24 13.02Q125.11 14.54 125.11 17.09ZM145.92 9.22L144.14 9.22L144.36 7.03L146.14 7.03L145.92 9.22ZM141.89 13.34L142.01 12.43L142.51 11.98L145.54 11.98L144.41 21.29L146.21 21.29L146.09 22.25L145.56 22.66L142.61 22.66L143.74 13.34L141.89 13.34ZM147.82 13.34L147.94 12.46L148.49 11.98L149.81 11.98L150.14 9.10L150.72 8.54L151.85 8.54L151.42 11.98L155.06 11.98L154.94 12.84L154.39 13.34L151.25 13.34L150.53 19.37Q150.29 21.53 151.85 21.53L151.85 21.53Q152.38 21.53 152.82 21.18Q153.26 20.83 153.65 19.49L153.65 19.49L154.85 19.90Q154.44 21.46 153.71 22.18Q152.98 22.90 151.66 22.90L151.66 22.90Q150.17 22.90 149.44 21.98Q148.70 21.07 148.90 19.51L148.90 19.51L149.64 13.34L147.82 13.34ZM164.86 11.98L166.44 11.98Q166.20 12.82 166.01 13.63Q165.82 14.45 165.72 15.29L165.72 15.29L164.95 21.29L166.56 21.29L166.46 22.25L165.96 22.66L163.44 22.66L163.49 20.50Q162.96 21.46 162.11 22.18Q161.26 22.90 159.84 22.90L159.84 22.90Q158.09 22.90 157.18 21.67Q156.26 20.45 156.26 18.38L156.26 18.38Q156.26 17.02 156.73 15.47Q157.20 13.92 158.28 12.84Q159.36 11.76 161.21 11.76L161.21 11.76Q163.66 11.76 164.38 13.78L164.38 13.78Q164.47 13.32 164.59 12.88Q164.71 12.43 164.86 11.98L164.86 11.98ZM161.38 13.13L161.38 13.13Q160.06 13.13 159.34 13.94Q158.62 14.76 158.32 15.92Q158.02 17.09 158.02 18.12L158.02 18.12Q158.02 21.53 160.34 21.53L160.34 21.53Q161.66 21.53 162.54 20.45Q163.42 19.37 163.68 18.26L163.68 18.26L163.99 15.91Q163.97 14.71 163.25 13.92Q162.53 13.13 161.38 13.13ZM168.74 7.51L168.86 6.60L169.34 6.14L172.39 6.14L170.54 21.29L172.32 21.29L172.20 22.25L171.70 22.66L168.74 22.66L170.59 7.51L168.74 7.51ZM178.13 9.22L176.35 9.22L176.57 7.03L178.34 7.03L178.13 9.22ZM174.10 13.34L174.22 12.43L174.72 11.98L177.74 11.98L176.62 21.29L178.42 21.29L178.30 22.25L177.77 22.66L174.82 22.66L175.94 13.34L174.10 13.34ZM185.47 13.13L185.47 13.13Q183.55 13.13 182.76 14.70Q181.97 16.27 181.97 18.10L181.97 18.10Q181.97 19.68 182.56 20.60Q183.14 21.53 184.49 21.53L184.49 21.53Q186.67 21.53 187.51 18.74L187.51 18.74L188.83 19.06Q188.50 20.47 187.42 21.68Q186.34 22.90 184.30 22.90L184.30 22.90Q182.35 22.90 181.28 21.65Q180.22 20.40 180.22 18.19L180.22 18.19Q180.22 16.78 180.73 15.29Q181.25 13.80 182.40 12.78Q183.55 11.76 185.45 11.76L185.45 11.76Q187.49 11.76 188.88 12.84L188.88 12.84L189.02 15.41L187.61 15.58L187.39 13.75Q186.58 13.13 185.47 13.13Z"/></svg>