<svg xmlns="http://www.w3.org/2000/svg" xmlns:xlink="http://www.w3.org/1999/xlink" width="227.66015625" height="41.42578125"><path fill="black" d="M2.86 7.82L2.86 7.82L3.50 8.32L3 10.58L3.09 15.39L3.09 17.80Q3.09 21.62 2.45 26.40L2.45 26.40L2.45 26.54L2.77 26.88L5.68 26.88L7.30 26.40L7.63 26.88Q7.63 28.34 1.61 28.34L1.61 28.34Q0.96 28.34 0.96 27.69L0.96 27.69L0.82 27.69Q2.11 24.33 2.11 17.80L2.11 17.80L2.04 8.47Q2.20 7.82 2.86 7.82ZM12.29 15.46L12.29 15.46Q13.80 15.46 14.40 19.79L14.40 19.79L14.24 19.99L14.24 20.95Q13.83 28.42 11.65 28.42L11.65 28.42L11.47 28.56L11.31 28.56Q8.88 28.01 8.88 22.39L8.88 22.39Q8.88 15.46 12.29 15.46ZM9.87 21.60L9.87 21.60Q10.23 27.26 11.31 27.26L11.31 27.26L11.47 27.26Q12.84 27.26 13.25 21.43L13.25 21.43L13.25 19.15Q13.25 16.97 11.81 16.75L11.81 16.75Q9.87 17.32 9.87 21.60ZM20.72 15.62L20.72 15.62Q21.02 15.69 21.36 16.44L21.36 16.44Q20.86 17.43 18.43 26.95L18.43 26.95Q17.81 28.24 17.14 28.44L17.14 28.44Q16.18 28.44 16.18 23.91L16.18 23.91L15.53 17.09Q15.75 16.13 16.49 16.13L16.49 16.13L16.97 16.77L16.83 18.07Q16.90 25.65 17.63 25.65L17.63 25.65Q19.73 19.22 19.73 17.43L19.73 17.43L19.57 16.13Q20.17 15.62 20.72 15.62ZM24.95 14.57L24.95 14.57Q27.54 15.33 27.54 17.16L27.54 17.16L27.54 17.64Q27.54 21.26 24.29 22.65L24.29 22.65L23.19 22.65L23.19 22.99Q23.19 25.90 24.63 27.05L24.63 27.05L25.14 27.05Q26.05 27.05 27.73 24.46L27.73 24.46L27.87 24.60L28.04 24.60Q26.88 28.34 24.80 28.34L24.80 28.34Q22.90 28.34 21.70 21.69L21.70 21.69Q21.45 21.69 21.39 20.88L21.39 20.88Q22.04 20.38 22.55 16.68L22.55 16.68Q23.79 14.57 24.95 14.57ZM23.00 20.57L23.00 20.57Q23.14 21.36 23.51 21.36L23.51 21.36L24.49 21.36Q26.44 20.45 26.44 17.64L26.44 17.64L26.44 17.47Q26.19 15.87 24.95 15.87L24.95 15.87Q23.00 15.87 23.00 20.57ZM34.78 10.22L34.78 10.22Q35.70 10.22 35.91 11.02L35.91 11.02L35.58 12.16Q35.98 28.61 36.32 28.22L36.32 28.22L35.79 28.61Q35.12 28.31 35.07 28.31L35.07 28.31L34.92 21.55L34.78 21.39L34.62 21.39Q33.63 28.20 31.69 28.20L31.69 28.20L31.37 28.20Q29.43 28.20 29.43 24.30L29.43 24.30Q29.43 21.48 32.19 18.79L32.19 18.79Q34.46 18.26 34.46 17.02L34.46 17.02L34.46 14.75L34.14 11.02Q34.44 10.29 34.78 10.22ZM30.73 23.66L30.73 23.66L30.73 25.27Q30.73 26.52 31.55 26.91L31.55 26.91L31.69 26.91Q32.65 26.91 33.96 19.77L33.96 19.77L33.82 19.61L33.18 19.61Q30.73 21.09 30.73 23.66ZM50.00 8.71L50.00 8.71L50.81 9.21L50.65 10.65L51.29 18.74L51.47 18.74Q52.88 16.79 53.88 16.79L53.88 16.79L54.39 16.79Q56.33 18.46 56.33 20.23L56.33 20.23Q55.23 25.61 52.45 28.31L52.45 28.31L52.25 28.46Q51.61 28.31 51.61 27.67L51.61 27.67L51.29 27.67Q50.10 27.67 50.00 27.16L50.00 27.16L50.00 27.02L50.31 25.72Q50.31 14.66 49.21 9.53L49.21 9.53Q49.21 9.09 50.00 8.71ZM51.80 27.02L51.80 27.02L51.95 27.16Q53.46 26.27 54.70 22.17L54.70 22.17L55.04 20.88Q55.04 18.09 53.55 18.09L53.55 18.09Q52.02 18.09 51.80 27.02ZM62.14 17.11L62.79 16.13L63.29 16.13L63.95 16.77Q63.63 17.43 63.63 18.55L63.63 18.55L63.63 19.70L63.45 23.91L63.63 24.07L63.63 24.23L63.45 25.84Q63.45 37.68 62.33 37.68L62.33 37.68L61.69 37.68L61.04 36.87Q62.00 36.12 62.00 33.79L62.00 33.79Q62.48 29.34 62.48 21.30L62.48 21.30L62.33 21.30Q62.10 21.39 60.06 26.66L60.06 26.66Q59.36 27.30 58.59 27.48L58.59 27.48Q57.15 27.48 57.15 22.61L57.15 22.61Q57.15 18.74 58.59 17.91L58.59 17.91L59.10 18.07L59.10 18.71Q58.25 19.72 58.25 21.79L58.25 21.79L58.25 22.77Q58.25 25.68 58.91 25.68L58.91 25.68L59.10 25.68Q62.14 20.50 62.14 17.11L62.14 17.11ZM78.40 8.98L78.95 8.78L79.31 8.75L79.38 9.91L79.38 10.08Q79.38 13.79 79.86 13.79L79.86 13.79L81.45 13.27Q81.61 13.61 81.76 13.97L81.76 13.97Q81.47 14.23 81.63 14.30L81.63 14.30L79.69 15.26L80.03 23.68L80.03 24.33Q79.98 26.71 79.69 28.15L79.69 28.15L78.93 28.10L78.88 25.58L78.88 21.57L78.88 19.79Q78.88 15.60 78.40 15.60L78.40 15.60L76.91 15.71L76.38 15.50L76.43 15.12L76.71 15.05L77.03 15.05Q78.56 14.82 78.56 13.97L78.56 13.97L78.22 9.12L78.40 8.98ZM82.66 8.80L82.66 8.80L83.14 8.80L83.63 9.28L83.63 9.46L83.31 10.75L83.31 11.88L83.63 19.99L83.79 20.47L84.11 20.47Q85.18 16.42 87.35 16.42L87.35 16.42Q88.91 16.42 89.14 25.34L89.14 25.34L89.46 27.12L88.98 27.94Q88.14 27.94 88.00 26.30L88.00 26.30L88.00 25.17Q88.00 17.88 86.70 17.88L86.70 17.88Q84.70 18.64 84.27 25.65L84.27 25.65Q84.38 27.94 84.61 27.94L84.61 27.94Q84.27 28.65 83.96 28.72L83.96 28.72L83.46 28.72Q82.66 28.27 82.66 27.43L82.66 27.43L82.98 26.64Q82.30 9.94 81.68 9.94L81.68 9.94Q81.95 9.21 82.66 8.80ZM93.79 14.57L93.79 14.57Q96.38 15.33 96.38 17.16L96.38 17.16L96.38 17.64Q96.38 21.26 93.13 22.65L93.13 22.65L92.03 22.65L92.03 22.99Q92.03 25.90 93.47 27.05L93.47 27.05L93.97 27.05Q94.89 27.05 96.56 24.46L96.56 24.46L96.70 24.60L96.88 24.60Q95.72 28.34 93.63 28.34L93.63 28.34Q91.73 28.34 90.54 21.69L90.54 21.69Q90.28 21.69 90.22 20.88L90.22 20.88Q90.88 20.38 91.38 16.68L91.38 16.68Q92.63 14.57 93.79 14.57ZM91.84 20.57L91.84 20.57Q91.98 21.36 92.34 21.36L92.34 21.36L93.33 21.36Q95.27 20.45 95.27 17.64L95.27 17.64L95.27 17.47Q95.03 15.87 93.79 15.87L93.79 15.87Q91.84 15.87 91.84 20.57ZM111.23 8.82L112.04 8.34Q112.57 8.52 112.70 9L112.70 9L112.36 11.43L112.36 19.84L112.84 19.84Q116.73 13.03 116.73 10.46L116.73 10.46Q117.42 9.81 118.02 9.81L118.02 9.81L118.68 10.63Q117.54 12.19 113.48 21L113.48 21L113.48 21.48Q114.88 27.48 117.23 27.48L117.23 27.48L117.23 28.13L116.41 28.27Q114.47 28.27 112.52 22.61L112.52 22.61L112.36 22.61L111.54 29.57L111.40 29.73L110.75 29.73Q110.34 29.73 110.25 29.09L110.25 29.09Q110.82 29.09 111.40 17.75L111.40 17.75L111.23 8.82ZM119.96 12.98L119.96 12.98Q120.59 12.98 121.11 13.63L121.11 13.63Q121.11 14.11 119.96 14.75L119.96 14.75Q119.53 14.75 119.17 13.97L119.17 13.97Q119.48 13.08 119.96 12.98ZM119.65 17.20L119.96 17.20L120.47 17.86Q119.82 18.50 119.82 21.41L119.82 21.41Q119.89 24.48 120.77 27.39L120.77 27.39L120.77 27.71L120.30 28.22L119.82 28.22Q119.05 28.22 118.66 20.59L118.66 20.59Q118.66 17.20 119.65 17.20L119.65 17.20ZM125.71 13.88L125.71 13.88L125.85 13.88Q127.77 13.88 128.12 21.14L128.12 21.14L128.12 24.07L128.30 25.84L128.12 26.50L128.30 27.96L127.79 28.27Q127.00 28.05 127.00 27.14L127.00 27.14L127.00 21.79Q127.00 16.13 125.85 15.64L125.85 15.64L125.71 15.64Q123.97 16.54 123.59 22.77L123.59 22.77L123.59 27.30L123.76 27.96Q123.42 28.92 123.11 28.92L123.11 28.92Q122.30 28.92 122.12 28.27L122.12 28.27L122.30 23.91L121.82 16.61L121.82 15.64L122.46 15Q123.11 15.23 123.11 15.48L123.11 15.48L122.94 17.91L123.11 18.07L123.42 18.07Q123.42 15.69 125.71 13.88ZM135.76 15.05L135.76 15.05L136.07 15.05L136.57 15.53L136.57 16.34Q135.42 18.50 135.42 21.69L135.42 21.69L135.62 31.24Q135.62 38.54 133.34 38.54L133.34 38.54Q133.34 38.86 132.52 38.86L132.52 38.86Q130.57 38.45 130.57 37.08L130.57 37.08L130.57 36.91L130.89 36.91Q131.96 37.72 132.69 37.72L132.69 37.72Q134.46 37.72 134.46 32.38L134.46 32.38L134.46 24.46L134.32 23.30L133.98 23.30Q132.76 27.83 130.43 27.83L130.43 27.83L130.24 27.83Q129.69 27.76 129.14 25.42L129.14 25.42Q129.14 20.54 132.19 16.82L132.19 16.82L134.64 15.87Q134.64 15.05 135.76 15.05ZM130.57 22.17L130.43 23.47L130.43 26.06Q130.43 26.54 131.07 26.54L131.07 26.54Q132.40 26.54 134.32 18.76L134.32 18.76L134.32 17.32Q131.55 17.32 130.57 22.17L130.57 22.17ZM154.15 8.73L154.15 8.73Q154.52 8.73 154.63 9.55L154.63 9.55L154.31 12.79L154.31 20.06L154.48 20.06Q155.78 20.40 154.15 22.01L154.15 22.01L154.15 23.80L153.97 26.40L154.48 27.19Q154.15 28.17 153.83 28.17L153.83 28.17L153.49 28.17Q152.85 27.83 152.85 27.19L152.85 27.19L153.07 22.27L150.74 22.51L150.09 22.01Q150.26 12.19 149.94 11.32L149.94 11.32Q150.21 10.51 150.74 10.51L150.74 10.51Q151.17 10.51 151.56 11.32L151.56 11.32L151.24 12.28L151.38 20.71L151.89 21.21L152.68 21.21L153.19 20.71Q153.19 8.73 154.15 8.73ZM159.38 10.54L159.38 10.54Q162.49 9.87 163.50 17.13L163.50 17.13Q163.50 26.78 160.27 28.31L160.27 28.31L160.13 28.31Q157.24 28.31 156.71 20.88L156.71 20.88L156.71 20.04Q156.28 11.40 159.38 10.54ZM157.68 17.95L157.68 17.95L157.68 19.24Q157.68 25.27 159.47 27.02L159.47 27.02L159.81 27.02Q162.14 27.02 162.55 18.28L162.55 18.28Q162.55 12.83 160.77 11.95L160.77 11.95L160.13 11.61Q158.11 12.07 157.68 17.95ZM167.46 10.54L167.46 10.54Q170.58 9.87 171.59 17.13L171.59 17.13Q171.59 26.78 168.35 28.31L168.35 28.31L168.21 28.31Q165.33 28.31 164.80 20.88L164.80 20.88L164.80 20.04Q164.37 11.40 167.46 10.54ZM165.76 17.95L165.76 17.95L165.76 19.24Q165.76 25.27 167.55 27.02L167.55 27.02L167.89 27.02Q170.23 27.02 170.64 18.28L170.64 18.28Q170.64 12.83 168.86 11.95L168.86 11.95L168.21 11.61Q166.20 12.07 165.76 17.95ZM189.05 13.88L189.05 13.88L189.19 13.88Q191.11 13.88 191.46 21.14L191.46 21.14L191.46 24.07L191.64 25.84L191.46 26.50L191.64 27.96L191.13 28.27Q190.34 28.05 190.34 27.14L190.34 27.14L190.34 21.79Q190.34 16.13 189.19 15.64L189.19 15.64L189.05 15.64Q187.31 16.54 186.93 22.77L186.93 22.77L186.93 27.30L187.10 27.96Q186.76 28.92 186.45 28.92L186.45 28.92Q185.64 28.92 185.46 28.27L185.46 28.27L185.64 23.91L185.16 16.61L185.16 15.64L185.80 15Q186.45 15.23 186.45 15.48L186.45 15.48L186.28 17.91L186.45 18.07L186.76 18.07Q186.76 15.69 189.05 13.88ZM196.15 15.46L196.15 15.46Q197.66 15.46 198.26 19.79L198.26 19.79L198.09 19.99L198.09 20.95Q197.68 28.42 195.50 28.42L195.50 28.42L195.33 28.56L195.16 28.56Q192.74 28.01 192.74 22.39L192.74 22.39Q192.74 15.46 196.15 15.46ZM193.72 21.60L193.72 21.60Q194.09 27.26 195.16 27.26L195.16 27.26L195.33 27.26Q196.70 27.26 197.11 21.43L197.11 21.43L197.11 19.15Q197.11 16.97 195.67 16.75L195.67 16.75Q193.72 17.32 193.72 21.60ZM203.89 15.26L203.89 15.26L204.38 15.26L205.03 15.91L205.03 16.24L204.69 16.56L203.89 16.39Q201.30 19.82 201.30 22.88L201.30 22.88L201.30 25.46L201.46 27.26Q201.46 27.91 200.66 27.91L200.66 27.91L200.66 28.05Q200.02 27.81 200.02 27.57L200.02 27.57L200.02 25.79Q199.41 18.02 199.03 18.02L199.03 18.02Q199.36 17.04 199.68 17.04L199.68 17.04L199.84 17.04Q200.50 17.30 200.50 18.19L200.50 18.19L200.50 19.97L200.66 19.97Q202.27 16.46 203.89 15.26ZM212.40 14.82L213.36 14.34Q214.88 14.34 215.50 24.21L215.50 24.21L215.50 27.46L214.99 27.96Q214.30 27.96 214.01 27.30L214.01 27.30L214.35 23.91Q213.98 16.65 213.22 16.44L213.22 16.44L212.91 16.44Q211.42 20.47 211.42 26.80L211.42 26.80L210.96 27.14L210.32 27.14Q210.02 27.14 209.81 26.32L209.81 26.32Q210.46 25.20 210.46 20.66L210.46 20.66Q210.25 17.59 209.66 17.59L209.66 17.59L209.47 17.59Q208.17 17.59 208.17 24.87L208.17 24.87L208.17 26.16L208.37 27.14Q208.01 28.10 207.07 28.10L207.07 28.10L206.43 27.30L206.74 25.20L206.74 24.39L206.24 17.09Q206.24 16.17 207.07 15.96L207.07 15.96Q207.73 16.13 207.73 16.95L207.73 16.95L207.39 17.91L207.39 18.23L207.53 18.23Q208.80 15.79 209.47 15.79L209.47 15.79Q210.34 15.79 211.28 17.59L211.28 17.59Q211.61 17.59 212.40 14.82L212.40 14.82ZM220.99 15.33L220.99 15.33L221.50 15.33L221.98 15.67L221.80 18.07Q222.26 26.68 223.27 26.68L223.27 26.68L223.58 26.68L223.58 26.82Q223.58 27.71 222.94 27.98L222.94 27.98L222.28 27.98Q221.64 27.98 221.16 24.41L221.16 24.41L220.99 24.41Q220.05 29.93 218.09 29.93L218.09 29.93Q216.96 29.93 216.96 26.50L216.96 26.50L216.96 24.74Q216.96 17.27 219.69 16.31L219.69 16.31Q220.15 16.31 220.99 15.33ZM218.09 24.23L218.09 24.23L218.09 26.50Q218.09 28.29 218.57 28.29L218.57 28.29Q219.62 28.29 220.68 19.88L220.68 19.88L220.68 19.70Q220.56 17.43 220.20 17.43L220.20 17.43L219.69 17.43Q218.09 17.43 218.09 24.23ZM226.03 9.19L226.03 9.19L226.58 9.05L226.45 12L226.41 14.64L226.54 22.22L226.38 25.46L226.72 27.41Q226.72 27.71 225.88 28.39L225.88 28.39L225.09 27.74Q225.42 26.91 225.42 24.33L225.42 24.33L225.42 24.02L225.67 9.71Q225.95 9.19 226.03 9.19Z"/></svg>