<svg xmlns="http://www.w3.org/2000/svg" xmlns:xlink="http://www.w3.org/1999/xlink" width="161.66400000000002" height="33.12"><path fill="black" d="M1.13 23.66L1.13 23.66Q0.67 23.66 0.46 23.39Q0.24 23.11 0.24 22.66L0.24 22.66Q0.24 21.96 0.59 21.02Q0.94 20.09 1.42 19.18Q1.90 18.26 2.23 17.66L2.23 17.66L1.92 17.69Q1.75 17.71 1.44 17.64Q1.13 17.57 1.13 17.33L1.13 17.33Q1.13 17.02 1.50 16.79Q1.87 16.56 2.33 16.43Q2.78 16.30 3 16.27L3 16.27Q3.19 15.96 3.64 15.25Q4.08 14.54 4.67 13.63Q5.26 12.72 5.90 11.77Q6.55 10.82 7.16 10.01Q7.78 9.19 8.28 8.69Q8.78 8.18 9.05 8.18L9.05 8.18Q9.31 8.18 9.56 8.45Q9.82 8.71 9.84 8.98L9.84 8.98Q8.40 10.73 6.94 12.55Q5.47 14.38 4.34 16.34L4.34 16.34Q5.69 16.30 7.06 16.25Q8.42 16.20 9.77 16.20L9.77 16.20Q11.16 16.20 12.48 16.27L12.48 16.27Q12.58 16.01 12.97 15.34Q13.37 14.66 13.96 13.74Q14.54 12.82 15.20 11.86Q15.86 10.90 16.51 10.07Q17.16 9.24 17.69 8.72Q18.22 8.21 18.50 8.21L18.50 8.21Q18.82 8.21 19.07 8.52Q19.32 8.83 19.32 9.12L19.32 9.12Q19.32 9.29 19.15 9.46L19.15 9.46Q17.57 10.92 16.19 12.74Q14.81 14.57 13.63 16.39L13.63 16.39Q13.80 16.42 14.15 16.52Q14.50 16.63 14.50 16.87L14.50 16.87Q14.50 16.97 14.15 17.11Q13.80 17.26 13.39 17.46Q12.98 17.66 12.79 18L12.79 18Q12.62 18.31 12.31 18.96Q12 19.61 11.68 20.36Q11.35 21.12 11.14 21.78Q10.92 22.44 10.92 22.78L10.92 22.78Q10.92 22.87 10.96 22.98Q10.99 23.09 11.11 23.09L11.11 23.09Q11.54 23.09 11.54 23.26L11.54 23.26Q11.54 23.45 11.26 23.45L11.26 23.45Q10.70 23.45 10.49 23.17Q10.27 22.90 10.27 22.37L10.27 22.37Q10.27 21.50 10.61 20.56Q10.94 19.61 11.39 18.68Q11.83 17.76 12.14 16.99L12.14 16.99Q12.05 16.94 11.94 16.94Q11.83 16.94 11.71 16.94L11.71 16.94Q10.27 16.94 8.80 17.04Q7.32 17.14 5.88 17.28L5.88 17.28Q5.09 17.38 4.60 17.44Q4.10 17.50 3.78 17.64Q3.46 17.78 3.18 18.14Q2.90 18.50 2.50 19.20L2.50 19.20Q2.33 19.49 2.06 19.98Q1.80 20.47 1.52 21.05Q1.25 21.62 1.07 22.13Q0.89 22.63 0.89 22.97L0.89 22.97Q0.89 23.06 0.92 23.16Q0.96 23.26 1.08 23.26L1.08 23.26Q1.32 23.26 1.58 23.03Q1.85 22.80 1.92 22.80L1.92 22.80Q1.97 22.80 1.97 22.85L1.97 22.85Q1.97 23.14 1.70 23.40Q1.44 23.66 1.13 23.66ZM20.83 22.97L20.83 22.97Q20.35 22.97 19.82 22.56Q19.30 22.15 19.30 21.62L19.30 21.62Q19.30 21.14 19.54 20.50Q19.78 19.85 20.09 19.32L20.09 19.32Q19.34 20.11 18.59 20.90Q17.83 21.70 17.11 22.51L17.11 22.51Q16.87 22.80 16.54 22.80L16.54 22.80Q16.08 22.80 15.68 22.32Q15.29 21.84 15.29 21.41L15.29 21.41Q15.29 21.29 15.31 21.22L15.31 21.22Q15.48 20.76 15.71 20.32Q15.94 19.87 16.18 19.46L16.18 19.46Q16.44 19.01 16.74 18.59Q17.04 18.17 17.35 17.74L17.35 17.74Q17.47 17.59 17.58 17.44Q17.69 17.28 17.78 17.11L17.78 17.11Q17.86 16.99 17.86 16.82Q17.86 16.66 17.83 16.54L17.83 16.54Q18.07 16.22 18.48 15.92Q18.89 15.62 19.27 15.62L19.27 15.62Q19.37 15.62 19.60 15.68Q19.82 15.74 20.03 15.83Q20.23 15.91 20.23 16.01L20.23 16.01Q20.23 16.10 20.14 16.20L20.14 16.20Q20.02 16.32 19.87 16.44Q19.73 16.56 19.61 16.70L19.61 16.70Q19.06 17.26 18.55 17.87Q18.05 18.48 17.59 19.10L17.59 19.10Q17.45 19.32 17.15 19.74Q16.85 20.16 16.61 20.59Q16.37 21.02 16.37 21.29L16.37 21.29Q16.37 21.53 16.58 21.53L16.58 21.53Q16.82 21.53 17.29 21.20Q17.76 20.88 18.31 20.36Q18.86 19.85 19.40 19.30Q19.94 18.74 20.36 18.29Q20.78 17.83 20.95 17.62L20.95 17.62Q21.46 17.02 21.94 16.27L21.94 16.27Q22.13 15.98 22.40 15.76Q22.68 15.53 23.02 15.53L23.02 15.53Q23.21 15.53 23.51 15.56Q23.81 15.60 23.81 15.86L23.81 15.86Q23.81 15.96 23.75 16.06Q23.69 16.15 23.62 16.22L23.62 16.22Q22.82 17.04 22.12 17.94Q21.41 18.84 20.93 19.90L20.93 19.90Q20.76 20.26 20.59 20.84Q20.42 21.43 20.42 21.84L20.42 21.84Q20.42 22.25 20.74 22.25L20.74 22.25Q20.95 22.25 21.17 22.10L21.17 22.10Q21.43 21.96 21.89 21.52Q22.34 21.07 22.86 20.51Q23.38 19.94 23.83 19.43Q24.29 18.91 24.53 18.62L24.53 18.62Q24.58 18.58 24.62 18.54Q24.67 18.50 24.72 18.50L24.72 18.50Q24.89 18.50 24.89 18.70L24.89 18.70Q24.89 18.79 24.84 18.84Q24.79 18.89 24.74 18.96L24.74 18.96Q24 19.82 23.27 20.71Q22.54 21.60 21.79 22.46L21.79 22.46Q21.62 22.68 21.38 22.82Q21.14 22.97 20.83 22.97ZM26.57 23.09L26.57 23.09Q26.18 23.09 25.76 22.69Q25.34 22.30 25.34 21.91L25.34 21.91Q25.34 21.43 25.68 20.82Q26.02 20.21 26.47 19.63Q26.93 19.06 27.26 18.64Q27.60 18.22 27.60 18.07L27.60 18.07L27.60 18.02Q27.38 17.83 27.19 17.65Q27 17.47 26.66 17.47L26.66 17.47Q26.42 17.47 26.05 17.76Q25.68 18.05 25.30 18.43Q24.91 18.82 24.60 19.15Q24.29 19.49 24.14 19.61L24.14 19.61Q24.05 19.70 23.96 19.73Q23.88 19.75 23.83 19.75L23.83 19.75Q23.74 19.75 23.74 19.66L23.74 19.66Q23.74 19.56 23.83 19.46L23.83 19.46Q24.22 18.96 24.72 18.43Q25.22 17.90 25.63 17.46Q26.04 17.02 26.11 16.82L26.11 16.82Q26.30 16.27 26.51 15.84Q26.71 15.41 27.17 15.02L27.17 15.02Q27.36 14.83 27.62 14.71Q27.89 14.59 28.15 14.59L28.15 14.59Q28.39 14.59 28.55 14.72Q28.70 14.86 28.70 15.12L28.70 15.12Q28.70 15.41 28.45 15.70Q28.20 15.98 27.86 16.24Q27.53 16.49 27.28 16.68Q27.02 16.87 27.05 16.99L27.05 16.99Q27.19 17.09 27.61 17.23Q28.03 17.38 28.20 17.38L28.20 17.38Q28.39 17.38 28.56 17.30Q28.73 17.23 28.90 17.23L28.90 17.23Q29.14 17.23 29.38 17.38Q29.62 17.52 29.62 17.81L29.62 17.81Q29.62 18.05 29.44 18.25Q29.26 18.46 29.06 18.60L29.06 18.60Q28.78 18.82 28.30 19.25Q27.82 19.68 27.32 20.21Q26.83 20.74 26.48 21.25Q26.14 21.77 26.14 22.15L26.14 22.15Q26.14 22.25 26.18 22.34L26.18 22.34Q26.21 22.37 26.28 22.37L26.28 22.37Q26.76 22.37 27.36 21.94Q27.96 21.50 28.57 20.88Q29.18 20.26 29.72 19.64Q30.26 19.03 30.65 18.70L30.65 18.70Q30.70 18.65 30.77 18.60Q30.84 18.55 30.91 18.55L30.91 18.55Q31.03 18.55 31.03 18.72L31.03 18.72Q31.03 18.82 30.71 19.20Q30.38 19.58 29.88 20.11Q29.38 20.64 28.84 21.19Q28.30 21.74 27.84 22.16Q27.38 22.58 27.19 22.75L27.19 22.75Q26.93 22.97 26.81 23.03Q26.69 23.09 26.57 23.09ZM32.71 23.09L32.71 23.09Q32.33 23.09 31.91 22.69Q31.49 22.30 31.49 21.91L31.49 21.91Q31.49 21.43 31.82 20.82Q32.16 20.21 32.62 19.63Q33.07 19.06 33.41 18.64Q33.74 18.22 33.74 18.07L33.74 18.07L33.74 18.02Q33.53 17.83 33.34 17.65Q33.14 17.47 32.81 17.47L32.81 17.47Q32.57 17.47 32.20 17.76Q31.82 18.05 31.44 18.43Q31.06 18.82 30.74 19.15Q30.43 19.49 30.29 19.61L30.29 19.61Q30.19 19.70 30.11 19.73Q30.02 19.75 29.98 19.75L29.98 19.75Q29.88 19.75 29.88 19.66L29.88 19.66Q29.88 19.56 29.98 19.46L29.98 19.46Q30.36 18.96 30.86 18.43Q31.37 17.90 31.78 17.46Q32.18 17.02 32.26 16.82L32.26 16.82Q32.45 16.27 32.65 15.84Q32.86 15.41 33.31 15.02L33.31 15.02Q33.50 14.83 33.77 14.71Q34.03 14.59 34.30 14.59L34.30 14.59Q34.54 14.59 34.69 14.72Q34.85 14.86 34.85 15.12L34.85 15.12Q34.85 15.41 34.60 15.70Q34.34 15.98 34.01 16.24Q33.67 16.49 33.42 16.68Q33.17 16.87 33.19 16.99L33.19 16.99Q33.34 17.09 33.76 17.23Q34.18 17.38 34.34 17.38L34.34 17.38Q34.54 17.38 34.70 17.30Q34.87 17.23 35.04 17.23L35.04 17.23Q35.28 17.23 35.52 17.38Q35.76 17.52 35.76 17.81L35.76 17.81Q35.76 18.05 35.58 18.25Q35.40 18.46 35.21 18.60L35.21 18.60Q34.92 18.82 34.44 19.25Q33.96 19.68 33.47 20.21Q32.98 20.74 32.63 21.25Q32.28 21.77 32.28 22.15L32.28 22.15Q32.28 22.25 32.33 22.34L32.33 22.34Q32.35 22.37 32.42 22.37L32.42 22.37Q32.90 22.37 33.50 21.94Q34.10 21.50 34.72 20.88Q35.33 20.26 35.87 19.64Q36.41 19.03 36.79 18.70L36.79 18.70Q36.84 18.65 36.91 18.60Q36.98 18.55 37.06 18.55L37.06 18.55Q37.18 18.55 37.18 18.72L37.18 18.72Q37.18 18.82 36.85 19.20Q36.53 19.58 36.02 20.11Q35.52 20.64 34.98 21.19Q34.44 21.74 33.98 22.16Q33.53 22.58 33.34 22.75L33.34 22.75Q33.07 22.97 32.95 23.03Q32.83 23.09 32.71 23.09ZM41.47 13.75L41.47 13.75Q40.92 13.75 40.92 13.34L40.92 13.34Q40.92 13.06 41.23 12.72Q41.54 12.38 42.14 12.24L42.14 12.24Q42.50 12.14 42.73 12.13Q42.96 12.12 43.18 12.05L43.18 12.05Q43.08 12.50 42.78 13.03Q42.48 13.56 42 13.68L42 13.68Q41.76 13.75 41.47 13.75ZM37.63 23.30L37.63 23.30Q37.25 23.30 36.92 22.99Q36.60 22.68 36.53 22.32L36.53 22.32Q36.60 21.86 36.85 21.20Q37.10 20.54 37.44 19.82Q37.78 19.10 38.11 18.47Q38.45 17.83 38.69 17.45L38.69 17.45Q38.23 17.86 37.72 18.36Q37.20 18.86 36.74 19.30L36.74 19.30Q36.72 19.32 36.64 19.39Q36.55 19.46 36.48 19.46L36.48 19.46Q36.31 19.46 36.31 19.32L36.31 19.32Q36.31 19.20 36.41 19.10L36.41 19.10Q37.06 18.38 37.76 17.66Q38.47 16.94 39.14 16.18L39.14 16.18Q39.36 15.91 39.52 15.76Q39.67 15.60 40.01 15.60L40.01 15.60Q40.15 15.60 40.45 15.66Q40.75 15.72 40.96 15.86Q41.16 16.01 41.02 16.22L41.02 16.22Q40.85 16.49 40.44 17.09Q40.03 17.69 39.52 18.46Q39 19.22 38.51 20.00Q38.02 20.78 37.70 21.41Q37.39 22.03 37.39 22.34L37.39 22.34Q37.39 22.49 37.49 22.49L37.49 22.49Q37.63 22.49 37.98 22.22Q38.33 21.96 38.68 21.66Q39.02 21.36 39.14 21.26L39.14 21.26Q39.84 20.66 40.51 20.03Q41.18 19.39 41.78 18.70L41.78 18.70Q41.83 18.65 41.92 18.55Q42 18.46 42.10 18.46L42.10 18.46Q42.22 18.46 42.22 18.60L42.22 18.60Q42.22 18.77 42.10 18.94L42.10 18.94Q41.78 19.32 41.40 19.69Q41.02 20.06 40.68 20.42L40.68 20.42Q40.06 21.05 39.47 21.66Q38.88 22.27 38.30 22.92L38.30 22.92Q38.18 23.06 38.00 23.18Q37.82 23.30 37.63 23.30ZM42.38 23.14L42.38 23.14Q41.59 23.14 41.12 22.61Q40.66 22.08 40.66 21.26L40.66 21.26Q40.66 20.50 41.15 19.58Q41.64 18.67 42.42 17.81Q43.20 16.94 44.04 16.30Q44.88 15.65 45.55 15.41L45.55 15.41Q45.86 15.29 46.13 15.29L46.13 15.29Q46.44 15.29 46.54 15.43Q46.63 15.58 46.69 15.74Q46.75 15.91 46.90 16.01L46.90 16.01Q47.16 16.15 47.16 16.51L47.16 16.51Q47.16 16.78 47.03 17.15Q46.90 17.52 46.66 17.80Q46.42 18.07 46.08 18.07L46.08 18.07Q45.77 18.07 45.77 17.81L45.77 17.81Q45.77 17.64 45.94 17.45Q46.10 17.26 46.27 17.03Q46.44 16.80 46.44 16.58L46.44 16.58Q46.44 16.37 46.22 16.37L46.22 16.37Q45.82 16.37 45.22 16.79Q44.62 17.21 43.99 17.88Q43.37 18.55 42.82 19.31Q42.26 20.06 41.93 20.74Q41.59 21.41 41.59 21.84L41.59 21.84Q41.59 22.15 41.75 22.36Q41.90 22.56 42.22 22.56L42.22 22.56Q42.72 22.56 43.34 22.27Q43.97 21.98 44.53 21.58Q45.10 21.17 45.46 20.86L45.46 20.86Q46.13 20.26 46.76 19.64Q47.40 19.03 48.02 18.41L48.02 18.41Q48.10 18.34 48.19 18.34L48.19 18.34Q48.41 18.34 48.41 18.53L48.41 18.53Q48.41 18.62 48.02 19.04Q47.64 19.46 47.11 19.99Q46.58 20.52 46.13 20.95Q45.67 21.38 45.53 21.50L45.53 21.50Q45.14 21.84 44.60 22.22Q44.06 22.61 43.49 22.87Q42.91 23.14 42.38 23.14ZM51.50 23.02L51.50 23.02Q51.29 23.02 51.01 22.82Q50.74 22.63 50.54 22.38Q50.35 22.13 50.35 21.91L50.35 21.91Q50.35 21.55 50.62 20.94Q50.88 20.33 51.23 19.73Q51.58 19.13 51.77 18.84L51.77 18.84Q51.43 19.13 50.92 19.76Q50.40 20.40 49.81 21.11Q49.22 21.82 48.68 22.32Q48.14 22.82 47.76 22.82L47.76 22.82Q47.23 22.82 46.91 22.45Q46.58 22.08 46.58 21.55L46.58 21.55Q46.58 20.83 46.99 20.00Q47.40 19.18 48.06 18.40Q48.72 17.62 49.50 16.97Q50.28 16.32 51.04 15.94Q51.79 15.55 52.39 15.55L52.39 15.55Q53.04 15.55 53.45 15.85Q53.86 16.15 53.86 16.75L53.86 16.75Q53.86 16.85 53.82 17.11Q53.78 17.38 53.64 17.38L53.64 17.38Q53.57 17.38 53.41 17.16Q53.26 16.94 52.99 16.73Q52.73 16.51 52.32 16.51L52.32 16.51Q51.65 16.51 50.92 17.00Q50.18 17.50 49.51 18.25Q48.84 19.01 48.34 19.80Q47.83 20.59 47.57 21.17L47.57 21.17Q47.50 21.34 47.44 21.53Q47.38 21.72 47.38 21.91L47.38 21.91Q47.38 22.13 47.50 22.13L47.50 22.13Q47.62 22.13 48.01 21.86Q48.41 21.60 48.58 21.48L48.58 21.48Q49.42 20.88 50.17 20.11Q50.93 19.34 51.53 18.53L51.53 18.53Q51.72 18.26 51.89 18Q52.06 17.74 52.22 17.50L52.22 17.50Q52.34 17.33 52.46 17.33L52.46 17.33Q52.73 17.33 52.98 17.69Q53.23 18.05 53.23 18.31L53.23 18.31Q53.23 18.43 53.20 18.46Q53.16 18.48 53.04 18.60L53.04 18.60Q52.68 18.96 52.33 19.61Q51.98 20.26 51.73 20.92Q51.48 21.58 51.36 22.03L51.36 22.03Q51.34 22.10 51.32 22.21Q51.31 22.32 51.43 22.30L51.43 22.30Q51.67 22.22 52.21 21.76Q52.75 21.29 53.39 20.68Q54.02 20.06 54.54 19.54Q55.06 19.01 55.22 18.79L55.22 18.79Q55.27 18.74 55.33 18.68Q55.39 18.62 55.46 18.62L55.46 18.62Q55.63 18.62 55.63 18.79L55.63 18.79Q55.63 18.89 55.25 19.36Q54.86 19.82 54.29 20.44Q53.71 21.05 53.11 21.64Q52.51 22.22 52.07 22.62Q51.62 23.02 51.50 23.02ZM59.52 23.06L59.52 23.06Q59.16 23.06 58.72 22.86Q58.27 22.66 58.27 22.22L58.27 22.22Q58.27 21.72 58.66 21.02Q59.04 20.33 59.57 19.57Q60.10 18.82 60.59 18.12Q61.08 17.42 61.30 16.94L61.30 16.94Q61.15 17.02 60.83 17.22Q60.50 17.42 60.19 17.63Q59.88 17.83 59.74 17.95L59.74 17.95Q58.70 18.72 57.95 19.54Q57.19 20.35 56.42 21.41L56.42 21.41Q56.23 21.70 56.03 22.01Q55.82 22.32 55.61 22.61L55.61 22.61Q55.51 22.73 55.28 22.85Q55.06 22.97 54.86 22.97L54.86 22.97Q54.55 22.97 54.55 22.63L54.55 22.63Q54.55 22.34 54.85 21.74Q55.15 21.14 55.61 20.38Q56.06 19.61 56.57 18.85Q57.07 18.10 57.48 17.48Q57.89 16.87 58.06 16.61L58.06 16.61Q58.01 16.68 57.79 16.86Q57.58 17.04 57.37 17.22Q57.17 17.40 57.07 17.47L57.07 17.47Q56.62 17.90 56.18 18.36Q55.75 18.82 55.32 19.27L55.32 19.27Q55.27 19.32 55.14 19.42Q55.01 19.51 54.91 19.51L54.91 19.51Q54.79 19.51 54.79 19.39L54.79 19.39Q54.79 19.27 55.13 18.89Q55.46 18.50 55.97 17.98Q56.47 17.45 57.01 16.90Q57.55 16.34 57.96 15.91Q58.37 15.48 58.51 15.31L58.51 15.31Q58.75 15 59.03 14.81Q59.30 14.62 59.69 14.62L59.69 14.62Q59.90 14.62 60.22 14.82Q60.53 15.02 60.53 15.29L60.53 15.29Q60.53 15.38 60.48 15.41L60.48 15.41Q59.76 16.01 59.08 16.82Q58.39 17.64 57.79 18.50Q57.19 19.37 56.69 20.11L56.69 20.11Q57.26 19.46 57.98 18.83Q58.70 18.19 59.38 17.64L59.38 17.64L61.08 16.25Q61.25 16.10 61.43 15.94Q61.61 15.77 61.78 15.65L61.78 15.65Q61.97 15.53 62.20 15.54Q62.42 15.55 62.66 15.55L62.66 15.55Q62.93 15.55 63.18 15.70Q63.43 15.84 63.43 16.15L63.43 16.15Q63.43 16.46 63.28 16.62Q63.12 16.78 62.93 16.97L62.93 16.97Q62.52 17.35 61.93 17.98Q61.34 18.60 60.77 19.32Q60.19 20.04 59.81 20.77Q59.42 21.50 59.42 22.13L59.42 22.13Q59.42 22.20 59.42 22.27Q59.42 22.34 59.45 22.42L59.45 22.42Q59.95 22.22 60.56 21.78Q61.18 21.34 61.80 20.78Q62.42 20.23 62.96 19.68Q63.50 19.13 63.86 18.70L63.86 18.70Q63.91 18.65 63.97 18.58Q64.03 18.50 64.13 18.50L64.13 18.50Q64.25 18.50 64.25 18.67L64.25 18.67Q64.25 18.77 64.18 18.89L64.18 18.89Q63.72 19.49 62.95 20.30Q62.18 21.12 61.37 21.85Q60.55 22.58 59.90 22.97L59.90 22.97Q59.74 23.06 59.52 23.06ZM64.44 22.58L64.44 22.58Q63.00 22.58 63.00 21.17L63.00 21.17Q63.00 20.62 63.30 19.88Q63.60 19.15 64.10 18.41Q64.61 17.66 65.23 17.03Q65.86 16.39 66.52 16.00Q67.18 15.60 67.75 15.60L67.75 15.60Q67.94 15.60 68.03 15.68Q68.11 15.77 68.16 15.96L68.16 15.96Q68.21 16.06 68.23 16.18Q68.26 16.30 68.30 16.42L68.30 16.42Q68.40 16.58 68.47 16.75Q68.54 16.92 68.54 17.11L68.54 17.11Q68.54 17.35 68.42 17.53Q68.30 17.71 68.14 17.86L68.14 17.86Q67.90 18.07 67.42 18.40Q66.94 18.72 66.37 19.04Q65.81 19.37 65.29 19.61Q64.78 19.85 64.46 19.90L64.46 19.90Q64.25 20.23 64.02 20.72Q63.79 21.22 63.79 21.62L63.79 21.62Q63.79 21.84 63.90 22.01Q64.01 22.18 64.25 22.18L64.25 22.18Q64.63 22.18 65.27 21.80Q65.90 21.43 66.60 20.89Q67.30 20.35 67.88 19.84Q68.47 19.32 68.76 19.03L68.76 19.03L69.53 18.22Q69.67 18.07 69.84 18.07L69.84 18.07Q69.98 18.07 69.98 18.19L69.98 18.19Q69.98 18.34 69.58 18.78Q69.17 19.22 68.60 19.76Q68.04 20.30 67.56 20.75Q67.08 21.19 66.94 21.31L66.94 21.31Q66.43 21.74 65.78 22.16Q65.14 22.58 64.44 22.58ZM64.87 19.27L64.87 19.27Q65.11 19.13 65.60 18.82Q66.10 18.50 66.62 18.12Q67.15 17.74 67.52 17.35Q67.90 16.97 67.90 16.68L67.90 16.68Q67.90 16.61 67.87 16.56L67.87 16.56Q67.85 16.54 67.78 16.54L67.78 16.54Q67.46 16.54 67.03 16.87Q66.60 17.21 66.17 17.68Q65.74 18.14 65.39 18.59Q65.04 19.03 64.87 19.27ZM79.18 22.94L79.18 22.94Q78.96 22.94 78.84 22.54Q78.72 22.13 78.72 21.96L78.72 21.96Q78.72 21.55 78.92 20.90Q79.13 20.26 79.38 19.61Q79.63 18.96 79.80 18.58L79.80 18.58Q79.34 18.55 78.95 18.54Q78.55 18.53 78.19 18.53L78.19 18.53Q76.27 18.53 75.25 18.71Q74.23 18.89 73.73 18.89L73.73 18.89Q73.49 18.89 73.37 18.68Q73.25 18.48 73.25 18.29L73.25 18.29Q73.25 17.88 73.54 17.74Q73.82 17.59 74.20 17.56Q74.57 17.52 74.81 17.42L74.81 17.42Q75.24 17.23 75.88 16.90Q76.51 16.56 76.97 16.32L76.97 16.32Q77.54 16.03 78.38 15.48Q79.22 14.93 80.18 14.26Q81.14 13.58 82.07 12.89Q82.99 12.19 83.74 11.62Q84.48 11.04 84.86 10.68L84.86 10.68Q85.03 10.54 85.21 10.37Q85.39 10.20 85.63 10.20L85.63 10.20Q85.80 10.20 86.08 10.30Q86.35 10.39 86.35 10.58L86.35 10.58Q86.35 10.58 86.30 10.68L86.30 10.68Q85.54 11.74 84.60 12.98Q83.66 14.23 82.75 15.49Q81.84 16.75 81.10 17.86L81.10 17.86Q81.55 17.86 82.20 17.96Q82.85 18.07 83.42 18.07L83.42 18.07Q83.95 18.07 84.43 17.74Q84.91 17.40 84.91 16.82L84.91 16.82Q84.91 16.70 84.88 16.58Q84.84 16.46 84.84 16.37L84.84 16.37Q84.84 16.15 85.06 16.15L85.06 16.15Q85.27 16.15 85.43 16.40Q85.58 16.66 85.68 16.96Q85.78 17.26 85.78 17.45L85.78 17.45Q85.78 18 85.33 18.25Q84.89 18.50 84.32 18.58Q83.76 18.65 83.35 18.65L83.35 18.65Q82.94 18.65 82.39 18.62Q81.84 18.60 81.36 18.59Q80.88 18.58 80.66 18.58L80.66 18.58Q79.99 19.51 79.76 20.54Q79.54 21.58 79.54 22.63L79.54 22.63Q79.54 22.94 79.18 22.94ZM75.12 17.93L75.12 17.93Q75.62 17.86 76.39 17.82Q77.16 17.78 77.90 17.78L77.90 17.78Q79.32 17.78 80.04 17.90L80.04 17.90Q80.45 17.14 81.01 16.18Q81.58 15.22 82.20 14.30Q82.82 13.39 83.38 12.74L83.38 12.74Q82.06 13.75 80.53 14.80Q79.01 15.84 77.59 16.68Q76.18 17.52 75.12 17.93ZM88.63 22.61L88.63 22.61Q87.43 22.61 86.83 22.06Q86.23 21.50 86.23 20.26L86.23 20.26Q86.23 19.13 86.71 17.92Q87.19 16.70 87.77 15.74L87.77 15.74Q88.42 14.69 89.40 13.69Q90.38 12.70 91.52 11.87Q92.66 11.04 93.77 10.54L93.77 10.54Q93.72 10.49 93.72 10.37L93.72 10.37Q93.72 10.22 93.97 10.18Q94.22 10.13 94.51 10.13Q94.80 10.13 94.90 10.15L94.90 10.15Q95.21 10.03 95.60 10.00Q96.00 9.96 96.31 9.96L96.31 9.96Q96.48 9.96 96.86 10.00Q97.25 10.03 97.58 10.15Q97.92 10.27 97.92 10.56L97.92 10.56Q97.92 10.80 97.70 10.80L97.70 10.80Q97.54 10.80 97.21 10.67Q96.89 10.54 96.58 10.51L96.58 10.51Q97.54 10.90 98.03 11.80Q98.52 12.70 98.52 13.70L98.52 13.70Q98.52 15.02 97.91 16.32Q97.30 17.62 96.25 18.74Q95.21 19.87 93.92 20.75Q92.64 21.62 91.27 22.12Q89.90 22.61 88.63 22.61ZM88.51 22.03L88.51 22.03Q89.54 22.03 90.61 21.60Q91.68 21.17 92.65 20.52Q93.62 19.87 94.37 19.20L94.37 19.20Q95.59 18.10 96.48 16.64Q97.37 15.19 97.37 13.51L97.37 13.51Q97.37 13.10 97.25 12.49Q97.13 11.88 96.77 11.59L96.77 11.59Q96.38 11.28 95.94 11.04Q95.50 10.80 95.02 10.70L95.02 10.70Q94.01 11.02 92.93 11.76Q91.85 12.50 90.84 13.55Q89.83 14.59 89.02 15.79Q88.20 16.99 87.72 18.22Q87.24 19.44 87.24 20.54L87.24 20.54Q87.24 21.26 87.49 21.65Q87.74 22.03 88.51 22.03ZM100.15 22.61L100.15 22.61Q98.95 22.61 98.35 22.06Q97.75 21.50 97.75 20.26L97.75 20.26Q97.75 19.13 98.23 17.92Q98.71 16.70 99.29 15.74L99.29 15.74Q99.94 14.69 100.92 13.69Q101.90 12.70 103.04 11.87Q104.18 11.04 105.29 10.54L105.29 10.54Q105.24 10.49 105.24 10.37L105.24 10.37Q105.24 10.22 105.49 10.18Q105.74 10.13 106.03 10.13Q106.32 10.13 106.42 10.15L106.42 10.15Q106.73 10.03 107.12 10.00Q107.52 9.96 107.83 9.96L107.83 9.96Q108 9.96 108.38 10.00Q108.77 10.03 109.10 10.15Q109.44 10.27 109.44 10.56L109.44 10.56Q109.44 10.80 109.22 10.80L109.22 10.80Q109.06 10.80 108.73 10.67Q108.41 10.54 108.10 10.51L108.10 10.51Q109.06 10.90 109.55 11.80Q110.04 12.70 110.04 13.70L110.04 13.70Q110.04 15.02 109.43 16.32Q108.82 17.62 107.77 18.74Q106.73 19.87 105.44 20.75Q104.16 21.62 102.79 22.12Q101.42 22.61 100.15 22.61ZM100.03 22.03L100.03 22.03Q101.06 22.03 102.13 21.60Q103.20 21.17 104.17 20.52Q105.14 19.87 105.89 19.20L105.89 19.20Q107.11 18.10 108 16.64Q108.89 15.19 108.89 13.51L108.89 13.51Q108.89 13.10 108.77 12.49Q108.65 11.88 108.29 11.59L108.29 11.59Q107.90 11.28 107.46 11.04Q107.02 10.80 106.54 10.70L106.54 10.70Q105.53 11.02 104.45 11.76Q103.37 12.50 102.36 13.55Q101.35 14.59 100.54 15.79Q99.72 16.99 99.24 18.22Q98.76 19.44 98.76 20.54L98.76 20.54Q98.76 21.26 99.01 21.65Q99.26 22.03 100.03 22.03ZM120.12 23.06L120.12 23.06Q119.76 23.06 119.32 22.86Q118.87 22.66 118.87 22.22L118.87 22.22Q118.87 21.72 119.26 21.02Q119.64 20.33 120.17 19.57Q120.70 18.82 121.19 18.12Q121.68 17.42 121.90 16.94L121.90 16.94Q121.75 17.02 121.43 17.22Q121.10 17.42 120.79 17.63Q120.48 17.83 120.34 17.95L120.34 17.95Q119.30 18.72 118.55 19.54Q117.79 20.35 117.02 21.41L117.02 21.41Q116.83 21.70 116.63 22.01Q116.42 22.32 116.21 22.61L116.21 22.61Q116.11 22.73 115.88 22.85Q115.66 22.97 115.46 22.97L115.46 22.97Q115.15 22.97 115.15 22.63L115.15 22.63Q115.15 22.34 115.45 21.74Q115.75 21.14 116.21 20.38Q116.66 19.61 117.17 18.85Q117.67 18.10 118.08 17.48Q118.49 16.87 118.66 16.61L118.66 16.61Q118.61 16.68 118.39 16.86Q118.18 17.04 117.97 17.22Q117.77 17.40 117.67 17.47L117.67 17.47Q117.22 17.90 116.78 18.36Q116.35 18.82 115.92 19.27L115.92 19.27Q115.87 19.32 115.74 19.42Q115.61 19.51 115.51 19.51L115.51 19.51Q115.39 19.51 115.39 19.39L115.39 19.39Q115.39 19.27 115.73 18.89Q116.06 18.50 116.57 17.98Q117.07 17.45 117.61 16.90Q118.15 16.34 118.56 15.91Q118.97 15.48 119.11 15.31L119.11 15.31Q119.35 15 119.63 14.81Q119.90 14.62 120.29 14.62L120.29 14.62Q120.50 14.62 120.82 14.82Q121.13 15.02 121.13 15.29L121.13 15.29Q121.13 15.38 121.08 15.41L121.08 15.41Q120.36 16.01 119.68 16.82Q118.99 17.64 118.39 18.50Q117.79 19.37 117.29 20.11L117.29 20.11Q117.86 19.46 118.58 18.83Q119.30 18.19 119.98 17.64L119.98 17.64L121.68 16.25Q121.85 16.10 122.03 15.94Q122.21 15.77 122.38 15.65L122.38 15.65Q122.57 15.53 122.80 15.54Q123.02 15.55 123.26 15.55L123.26 15.55Q123.53 15.55 123.78 15.70Q124.03 15.84 124.03 16.15L124.03 16.15Q124.03 16.46 123.88 16.62Q123.72 16.78 123.53 16.97L123.53 16.97Q123.12 17.35 122.53 17.98Q121.94 18.60 121.37 19.32Q120.79 20.04 120.41 20.77Q120.02 21.50 120.02 22.13L120.02 22.13Q120.02 22.20 120.02 22.27Q120.02 22.34 120.05 22.42L120.05 22.42Q120.55 22.22 121.16 21.78Q121.78 21.34 122.40 20.78Q123.02 20.23 123.56 19.68Q124.10 19.13 124.46 18.70L124.46 18.70Q124.51 18.65 124.57 18.58Q124.63 18.50 124.73 18.50L124.73 18.50Q124.85 18.50 124.85 18.67L124.85 18.67Q124.85 18.77 124.78 18.89L124.78 18.89Q124.32 19.49 123.55 20.30Q122.78 21.12 121.97 21.85Q121.15 22.58 120.50 22.97L120.50 22.97Q120.34 23.06 120.12 23.06ZM124.97 23.06L124.97 23.06Q124.27 23.06 123.94 22.50Q123.60 21.94 123.60 21.34L123.60 21.34Q123.60 20.52 124.03 19.57Q124.46 18.62 125.08 17.76Q125.69 16.90 126.17 16.34L126.17 16.34Q126.29 16.20 126.48 16.20L126.48 16.20Q126.70 16.20 126.91 16.37L126.91 16.37Q127.42 16.01 128.08 15.72Q128.74 15.43 129.36 15.43L129.36 15.43Q130.44 15.43 130.44 16.54L130.44 16.54Q130.44 17.59 129.92 18.48Q129.41 19.37 128.78 20.21L128.78 20.21Q128.62 20.42 128.46 20.62Q128.30 20.81 128.11 21L128.11 21Q129.17 20.71 129.96 20.04Q130.75 19.37 131.52 18.65L131.52 18.65Q131.62 18.55 131.70 18.49Q131.78 18.43 131.93 18.43L131.93 18.43Q132.05 18.43 132.05 18.60L132.05 18.60Q132.05 18.62 131.98 18.72Q131.90 18.82 131.88 18.86L131.88 18.86Q131.09 19.82 129.92 20.65Q128.76 21.48 127.49 21.67L127.49 21.67Q127.03 22.13 126.34 22.60Q125.64 23.06 124.97 23.06ZM126.84 21.17L126.84 21.17Q126.94 21.17 127.02 21.17Q127.10 21.17 127.20 21.14L127.20 21.14Q127.68 20.57 128.20 19.78Q128.71 18.98 129.07 18.13Q129.43 17.28 129.43 16.58L129.43 16.58Q129.43 16.15 129.02 16.15L129.02 16.15Q128.62 16.15 128.09 16.39Q127.56 16.63 127.20 16.90L127.20 16.90L127.20 16.97Q127.20 17.21 126.83 17.65Q126.46 18.10 126.04 18.55Q125.62 19.01 125.42 19.32L125.42 19.32Q125.35 20.11 125.74 20.64Q126.12 21.17 126.84 21.17ZM124.99 22.66L124.99 22.66Q125.45 22.66 125.89 22.32Q126.34 21.98 126.65 21.70L126.65 21.70Q126.07 21.65 125.60 21.30Q125.14 20.95 124.75 20.52L124.75 20.52Q124.68 20.66 124.56 21.07Q124.44 21.48 124.44 21.89L124.44 21.89Q124.44 22.20 124.56 22.43Q124.68 22.66 124.99 22.66ZM133.58 23.09L133.58 23.09Q133.20 23.09 132.78 22.69Q132.36 22.30 132.36 21.91L132.36 21.91Q132.36 21.43 132.70 20.82Q133.03 20.21 133.49 19.63Q133.94 19.06 134.28 18.64Q134.62 18.22 134.62 18.07L134.62 18.07L134.62 18.02Q134.40 17.83 134.21 17.65Q134.02 17.47 133.68 17.47L133.68 17.47Q133.44 17.47 133.07 17.76Q132.70 18.05 132.31 18.43Q131.93 18.82 131.62 19.15Q131.30 19.49 131.16 19.61L131.16 19.61Q131.06 19.70 130.98 19.73Q130.90 19.75 130.85 19.75L130.85 19.75Q130.75 19.75 130.75 19.66L130.75 19.66Q130.75 19.56 130.85 19.46L130.85 19.46Q131.23 18.96 131.74 18.43Q132.24 17.90 132.65 17.46Q133.06 17.02 133.13 16.82L133.13 16.82Q133.32 16.27 133.52 15.84Q133.73 15.41 134.18 15.02L134.18 15.02Q134.38 14.83 134.64 14.71Q134.90 14.59 135.17 14.59L135.17 14.59Q135.41 14.59 135.56 14.72Q135.72 14.86 135.72 15.12L135.72 15.12Q135.72 15.41 135.47 15.70Q135.22 15.98 134.88 16.24Q134.54 16.49 134.29 16.68Q134.04 16.87 134.06 16.99L134.06 16.99Q134.21 17.09 134.63 17.23Q135.05 17.38 135.22 17.38L135.22 17.38Q135.41 17.38 135.58 17.30Q135.74 17.23 135.91 17.23L135.91 17.23Q136.15 17.23 136.39 17.38Q136.63 17.52 136.63 17.81L136.63 17.81Q136.63 18.05 136.45 18.25Q136.27 18.46 136.08 18.60L136.08 18.60Q135.79 18.82 135.31 19.25Q134.83 19.68 134.34 20.21Q133.85 20.74 133.50 21.25Q133.15 21.77 133.15 22.15L133.15 22.15Q133.15 22.25 133.20 22.34L133.20 22.34Q133.22 22.37 133.30 22.37L133.30 22.37Q133.78 22.37 134.38 21.94Q134.98 21.50 135.59 20.88Q136.20 20.26 136.74 19.64Q137.28 19.03 137.66 18.70L137.66 18.70Q137.71 18.65 137.78 18.60Q137.86 18.55 137.93 18.55L137.93 18.55Q138.05 18.55 138.05 18.72L138.05 18.72Q138.05 18.82 137.72 19.20Q137.40 19.58 136.90 20.11Q136.39 20.64 135.85 21.19Q135.31 21.74 134.86 22.16Q134.40 22.58 134.21 22.75L134.21 22.75Q133.94 22.97 133.82 23.03Q133.70 23.09 133.58 23.09ZM146.40 23.09L146.40 23.09Q146.14 23.09 145.78 22.88Q145.42 22.68 145.14 22.38Q144.86 22.08 144.86 21.77L144.86 21.77Q144.86 21.36 145.20 20.74Q145.54 20.11 146.03 19.44Q146.52 18.77 146.99 18.18Q147.46 17.59 147.74 17.23L147.74 17.23Q148.08 16.80 148.06 16.74Q148.03 16.68 148.03 16.61L148.03 16.61Q147.36 16.94 146.52 17.60Q145.68 18.26 144.91 18.98Q144.14 19.70 143.66 20.28L143.66 20.28Q143.33 20.66 143.03 21.08Q142.73 21.50 142.44 21.94L142.44 21.94Q142.27 22.18 142.02 22.44Q141.77 22.70 141.46 22.70L141.46 22.70Q141.29 22.70 141.16 22.58Q141.02 22.46 141.02 22.30L141.02 22.30Q141.02 21.96 141.47 21.28Q141.91 20.59 142.39 19.78L142.39 19.78Q142.70 19.25 143.08 18.68Q143.45 18.12 143.72 17.66Q144 17.21 144 17.04L144 17.04L143.98 17.04Q143.90 17.04 143.65 17.16Q143.40 17.28 143.38 17.30L143.38 17.30Q142.20 18.10 141.13 19.27Q140.06 20.45 139.18 21.50L139.18 21.50Q139.01 21.72 138.82 21.95Q138.62 22.18 138.43 22.39L138.43 22.39Q138.34 22.49 138.17 22.55Q138 22.61 137.86 22.61L137.86 22.61Q137.71 22.61 137.46 22.51Q137.21 22.42 137.21 22.18L137.21 22.18Q137.21 21.89 137.47 21.34Q137.74 20.78 138.13 20.09Q138.53 19.39 138.97 18.71Q139.42 18.02 139.79 17.46Q140.16 16.90 140.33 16.63L140.33 16.63Q139.58 17.28 139.00 17.82Q138.41 18.36 137.66 19.27L137.66 19.27Q137.62 19.32 137.47 19.46Q137.33 19.61 137.18 19.63L137.18 19.63Q137.14 19.63 137.08 19.56Q137.02 19.49 137.04 19.44L137.04 19.44Q137.06 19.32 137.38 18.95Q137.69 18.58 138.14 18.10Q138.60 17.62 139.06 17.14Q139.51 16.66 139.86 16.30Q140.21 15.94 140.28 15.84L140.28 15.84Q140.81 15.29 141.23 14.95Q141.65 14.62 142.03 14.62L142.03 14.62Q142.25 14.62 142.54 14.81Q142.82 15 142.82 15.26L142.82 15.26Q142.82 15.36 142.78 15.38L142.78 15.38Q141.70 16.27 140.86 17.41Q140.02 18.55 139.27 19.68L139.27 19.68Q139.25 19.70 139.12 19.94Q138.98 20.18 138.82 20.47Q138.65 20.76 138.53 20.98Q138.41 21.19 138.43 21.17L138.43 21.17Q139.70 19.97 141.11 18.61Q142.51 17.26 143.83 16.15L143.83 16.15Q144.02 15.98 144.26 15.86Q144.50 15.74 144.77 15.74L144.77 15.74Q145.06 15.74 145.24 15.92Q145.42 16.10 145.42 16.39L145.42 16.39Q145.42 16.70 145.22 17.02Q145.03 17.33 144.86 17.59L144.86 17.59Q144.62 18.02 144.35 18.46Q144.07 18.89 143.95 19.15L143.95 19.15Q145.06 18.17 146.06 17.24Q147.07 16.32 148.10 15.65L148.10 15.65Q148.34 15.48 148.68 15.48L148.68 15.48Q148.90 15.48 149.24 15.55Q149.59 15.62 149.87 15.77Q150.14 15.91 150.14 16.18L150.14 16.18Q150.14 16.32 150.05 16.45Q149.95 16.58 149.83 16.68L149.83 16.68L148.70 17.64Q148.39 17.93 147.95 18.44Q147.50 18.96 147.08 19.57Q146.66 20.18 146.39 20.83Q146.11 21.48 146.11 22.03L146.11 22.03Q146.11 22.37 146.28 22.37L146.28 22.37Q146.38 22.37 146.50 22.31Q146.62 22.25 146.76 22.18L146.76 22.18Q147.26 21.89 147.84 21.34Q148.42 20.78 148.98 20.16Q149.54 19.54 149.98 19.06Q150.41 18.58 150.62 18.46L150.62 18.46Q150.67 18.41 150.76 18.43Q150.84 18.46 150.84 18.53L150.84 18.53Q150.84 18.62 150.74 18.74Q150.65 18.86 150.60 18.94L150.60 18.94Q150.19 19.42 149.84 19.86Q149.50 20.30 149.06 20.78L149.06 20.78Q148.56 21.36 147.95 22.00Q147.34 22.63 146.66 23.02L146.66 23.02Q146.57 23.09 146.40 23.09ZM154.06 23.02L154.06 23.02Q153.84 23.02 153.56 22.82Q153.29 22.63 153.10 22.38Q152.90 22.13 152.90 21.91L152.90 21.91Q152.90 21.55 153.17 20.94Q153.43 20.33 153.78 19.73Q154.13 19.13 154.32 18.84L154.32 18.84Q153.98 19.13 153.47 19.76Q152.95 20.40 152.36 21.11Q151.78 21.82 151.24 22.32Q150.70 22.82 150.31 22.82L150.31 22.82Q149.78 22.82 149.46 22.45Q149.14 22.08 149.14 21.55L149.14 21.55Q149.14 20.83 149.54 20.00Q149.95 19.18 150.61 18.40Q151.27 17.62 152.05 16.97Q152.83 16.32 153.59 15.94Q154.34 15.55 154.94 15.55L154.94 15.55Q155.59 15.55 156 15.85Q156.41 16.15 156.41 16.75L156.41 16.75Q156.41 16.85 156.37 17.11Q156.34 17.38 156.19 17.38L156.19 17.38Q156.12 17.38 155.96 17.16Q155.81 16.94 155.54 16.73Q155.28 16.51 154.87 16.51L154.87 16.51Q154.20 16.51 153.47 17.00Q152.74 17.50 152.06 18.25Q151.39 19.01 150.89 19.80Q150.38 20.59 150.12 21.17L150.12 21.17Q150.05 21.34 149.99 21.53Q149.93 21.72 149.93 21.91L149.93 21.91Q149.93 22.13 150.05 22.13L150.05 22.13Q150.17 22.13 150.56 21.86Q150.96 21.60 151.13 21.48L151.13 21.48Q151.97 20.88 152.72 20.11Q153.48 19.34 154.08 18.53L154.08 18.53Q154.27 18.26 154.44 18Q154.61 17.74 154.78 17.50L154.78 17.50Q154.90 17.33 155.02 17.33L155.02 17.33Q155.28 17.33 155.53 17.69Q155.78 18.05 155.78 18.31L155.78 18.31Q155.78 18.43 155.75 18.46Q155.71 18.48 155.59 18.60L155.59 18.60Q155.23 18.96 154.88 19.61Q154.54 20.26 154.28 20.92Q154.03 21.58 153.91 22.03L153.91 22.03Q153.89 22.10 153.88 22.21Q153.86 22.32 153.98 22.30L153.98 22.30Q154.22 22.22 154.76 21.76Q155.30 21.29 155.94 20.68Q156.58 20.06 157.09 19.54Q157.61 19.01 157.78 18.79L157.78 18.79Q157.82 18.74 157.88 18.68Q157.94 18.62 158.02 18.62L158.02 18.62Q158.18 18.62 158.18 18.79L158.18 18.79Q158.18 18.89 157.80 19.36Q157.42 19.82 156.84 20.44Q156.26 21.05 155.66 21.64Q155.06 22.22 154.62 22.62Q154.18 23.02 154.06 23.02ZM158.93 23.04L158.93 23.04Q158.52 23.04 157.94 22.73Q157.37 22.42 157.15 22.06L157.15 22.06Q157.01 21.82 157.01 21.48L157.01 21.48Q157.01 20.71 157.57 19.43Q158.14 18.14 159 16.66L159 16.66Q159.38 15.98 160.00 15.10Q160.61 14.21 161.38 13.26Q162.14 12.31 163.00 11.45Q163.85 10.58 164.70 9.94Q165.55 9.29 166.32 9.02L166.32 9.02Q166.63 8.90 166.87 8.90L166.87 8.90Q167.33 8.90 167.51 9.20Q167.69 9.50 168 9.70L168 9.70Q168.19 9.82 168.19 10.08L168.19 10.08Q168.19 10.63 167.59 11.40Q166.99 12.17 166.03 13.03Q165.07 13.90 163.97 14.75Q162.86 15.60 161.84 16.32Q160.82 17.04 160.10 17.52Q159.38 18 159.19 18.12L159.19 18.12Q158.83 18.79 158.52 19.66Q158.21 20.52 158.21 21.29L158.21 21.29Q158.21 21.58 158.29 21.92Q158.38 22.27 158.76 22.27L158.76 22.27Q159.12 22.27 159.60 22.01Q160.08 21.74 160.54 21.42Q160.99 21.10 161.26 20.88L161.26 20.88Q161.88 20.38 162.36 19.85Q162.84 19.32 163.49 18.65L163.49 18.65Q163.54 18.60 163.58 18.56Q163.63 18.53 163.70 18.53L163.70 18.53Q163.85 18.53 163.85 18.70L163.85 18.70Q163.85 18.84 163.73 18.96L163.73 18.96Q162.77 20.02 161.72 21.14Q160.68 22.27 159.41 22.92L159.41 22.92Q159.17 23.04 158.93 23.04ZM159.96 16.87L159.96 16.87Q160.32 16.75 160.97 16.28Q161.62 15.82 162.42 15.17Q163.22 14.52 164.05 13.79Q164.88 13.06 165.59 12.37Q166.30 11.69 166.76 11.20Q167.23 10.70 167.30 10.51L167.30 10.51Q167.35 10.37 167.35 10.32L167.35 10.32Q167.35 10.13 167.17 10.06Q166.99 9.98 166.78 9.98L166.78 9.98Q166.66 9.98 166.54 10.01Q166.42 10.03 166.32 10.06L166.32 10.06Q165.91 10.20 165.24 10.76Q164.57 11.33 163.80 12.13Q163.03 12.94 162.28 13.82Q161.52 14.71 160.91 15.52Q160.30 16.32 159.96 16.87Z"/></svg>