<svg xmlns="http://www.w3.org/2000/svg" xmlns:xlink="http://www.w3.org/1999/xlink" width="218.01600000000002" height="24"><path fill="black" d="M4.15 19.20L0.89 19.20L0.89 18.22L3.86 17.90L4.15 17.90L4.15 19.20ZM5.52 19.20L2.76 19.20Q2.81 17.52 2.82 15.82Q2.83 14.11 2.83 12.53L2.83 12.53L2.83 11.38Q2.83 9.65 2.82 7.92Q2.81 6.19 2.76 4.51L2.76 4.51L5.52 4.51Q5.47 6.22 5.46 7.93Q5.45 9.65 5.45 11.38L5.45 11.38L5.45 12.77Q5.45 14.21 5.46 15.88Q5.47 17.54 5.52 19.20L5.52 19.20ZM12.02 19.20L4.15 19.20L4.15 18.05L10.78 18.05L9.98 18.70L10.75 15L12.24 15L12.02 19.20ZM3.86 5.83L0.89 5.52L0.89 4.51L7.46 4.51L7.46 5.52L4.46 5.83L3.86 5.83ZM19.13 19.20L13.75 19.20L13.75 18.34L16.03 17.90L16.92 17.90L19.13 18.34L19.13 19.20ZM17.74 19.20L15.22 19.20Q15.24 18.70 15.26 17.87Q15.29 17.04 15.29 16.14Q15.29 15.24 15.29 14.57L15.29 14.57L15.29 13.54Q15.29 12.62 15.28 12.02Q15.26 11.42 15.22 10.75L15.22 10.75L13.58 10.56L13.58 9.74L17.40 8.38L17.74 8.59L17.69 11.66L17.69 14.57Q17.69 15.24 17.69 16.14Q17.69 17.04 17.70 17.87Q17.71 18.70 17.74 19.20L17.74 19.20ZM16.46 6.19L16.46 6.19Q15.79 6.19 15.32 5.76Q14.86 5.33 14.86 4.66L14.86 4.66Q14.86 3.98 15.32 3.56Q15.79 3.14 16.46 3.14L16.46 3.14Q17.14 3.14 17.60 3.56Q18.07 3.98 18.07 4.66L18.07 4.66Q18.07 5.33 17.60 5.76Q17.14 6.19 16.46 6.19ZM24.19 19.46L24.19 19.46Q23.21 19.46 22.38 19.26Q21.55 19.06 20.74 18.62L20.74 18.62L20.69 16.08L22.06 16.08L22.63 18.82L21.48 18.36L21.48 17.54Q22.10 18 22.75 18.22Q23.40 18.43 24.22 18.43L24.22 18.43Q25.37 18.43 25.96 18.02Q26.54 17.62 26.54 16.90L26.54 16.90Q26.54 16.25 26.08 15.84Q25.61 15.43 24.55 15.07L24.55 15.07L23.47 14.71Q22.22 14.28 21.50 13.55Q20.78 12.82 20.78 11.64L20.78 11.64Q20.78 10.32 21.84 9.35Q22.90 8.38 24.89 8.38L24.89 8.38Q25.82 8.38 26.58 8.60Q27.34 8.83 28.13 9.26L28.13 9.26L28.01 11.54L26.64 11.54L26.14 9.14L27.10 9.58L27.10 10.22Q26.54 9.82 26.02 9.64Q25.49 9.46 24.84 9.46L24.84 9.46Q23.93 9.46 23.42 9.83Q22.92 10.20 22.92 10.85L22.92 10.85Q22.92 11.50 23.35 11.87Q23.78 12.24 24.89 12.62L24.89 12.62L25.73 12.89Q27.36 13.46 28.04 14.28Q28.73 15.10 28.73 16.18L28.73 16.18Q28.73 17.59 27.56 18.53Q26.40 19.46 24.19 19.46ZM34.32 19.46L34.32 19.46Q32.95 19.46 32.15 18.59Q31.34 17.71 31.37 15.53L31.37 15.53L31.44 9.67L31.99 10.20L29.98 9.77L29.98 8.93L33.62 8.52L33.89 8.74L33.79 11.83L33.79 15.41Q33.79 16.73 34.19 17.23Q34.58 17.74 35.35 17.74L35.35 17.74Q36.14 17.74 36.95 17.28Q37.75 16.82 38.47 16.03L38.47 16.03L38.86 16.97L38.47 16.97Q37.61 18.24 36.54 18.85Q35.47 19.46 34.32 19.46ZM41.86 19.20L38.30 19.39L38.06 16.80L38.14 10.06L36.67 9.77L36.67 8.95L40.27 8.52L40.54 8.74L40.49 11.83L40.49 18.05L41.86 18.34L41.86 19.20ZM54.36 19.20L51.10 19.20L51.10 18.22L54.07 17.90L54.36 17.90L54.36 19.20ZM55.70 19.20L52.97 19.20Q53.02 17.54 53.03 15.82Q53.04 14.09 53.04 12.34L53.04 12.34L53.04 11.40Q53.04 9.70 53.03 7.97Q53.02 6.24 52.97 4.51L52.97 4.51L55.70 4.51Q55.66 6.19 55.66 7.92Q55.66 9.65 55.66 11.40L55.66 11.40L55.66 12.07Q55.66 13.99 55.66 15.74Q55.66 17.50 55.70 19.20L55.70 19.20ZM57.24 19.20L54.36 19.20L54.36 18.10L56.83 18.10Q58.75 18.10 59.74 17.34Q60.72 16.58 60.72 15.14L60.72 15.14Q60.72 13.63 59.75 12.88Q58.78 12.12 56.69 12.12L56.69 12.12L54.36 12.12L54.36 11.06L56.64 11.06Q58.42 11.06 59.26 10.38Q60.10 9.70 60.10 8.26L60.10 8.26Q60.10 6.84 59.30 6.24Q58.51 5.64 56.98 5.64L56.98 5.64L54.36 5.64L54.36 4.51L57.74 4.51Q60.22 4.51 61.44 5.52Q62.66 6.53 62.66 8.09L62.66 8.09Q62.66 9.34 61.69 10.33Q60.72 11.33 58.37 11.62L58.37 11.62L58.37 11.42Q61.08 11.62 62.26 12.65Q63.43 13.68 63.43 15.17L63.43 15.17Q63.43 16.13 62.86 17.06Q62.28 18 60.92 18.60Q59.57 19.20 57.24 19.20L57.24 19.20ZM54.07 5.83L51.10 5.52L51.10 4.51L54.36 4.51L54.36 5.83L54.07 5.83ZM70.37 19.46L70.37 19.46Q68.93 19.46 67.73 18.83Q66.53 18.19 65.82 16.97Q65.11 15.74 65.11 13.94L65.11 13.94Q65.11 12.17 65.84 10.92Q66.58 9.67 67.78 9.02Q68.98 8.38 70.37 8.38L70.37 8.38Q71.71 8.38 72.91 9.02Q74.11 9.67 74.86 10.92Q75.60 12.17 75.60 13.94L75.60 13.94Q75.60 15.74 74.88 16.97Q74.16 18.19 72.97 18.83Q71.78 19.46 70.37 19.46ZM70.37 18.46L70.37 18.46Q71.59 18.46 72.28 17.35Q72.96 16.25 72.96 13.97L72.96 13.97Q72.96 11.71 72.28 10.56Q71.59 9.41 70.37 9.41L70.37 9.41Q67.75 9.41 67.75 13.97L67.75 13.97Q67.75 18.46 70.37 18.46ZM80.93 19.46L80.93 19.46Q79.94 19.46 79.12 19.26Q78.29 19.06 77.47 18.62L77.47 18.62L77.42 16.08L78.79 16.08L79.37 18.82L78.22 18.36L78.22 17.54Q78.84 18 79.49 18.22Q80.14 18.43 80.95 18.43L80.95 18.43Q82.10 18.43 82.69 18.02Q83.28 17.62 83.28 16.90L83.28 16.90Q83.28 16.25 82.81 15.84Q82.34 15.43 81.29 15.07L81.29 15.07L80.21 14.71Q78.96 14.28 78.24 13.55Q77.52 12.82 77.52 11.64L77.52 11.64Q77.52 10.32 78.58 9.35Q79.63 8.38 81.62 8.38L81.62 8.38Q82.56 8.38 83.32 8.60Q84.07 8.83 84.86 9.26L84.86 9.26L84.74 11.54L83.38 11.54L82.87 9.14L83.83 9.58L83.83 10.22Q83.28 9.82 82.75 9.64Q82.22 9.46 81.58 9.46L81.58 9.46Q80.66 9.46 80.16 9.83Q79.66 10.20 79.66 10.85L79.66 10.85Q79.66 11.50 80.09 11.87Q80.52 12.24 81.62 12.62L81.62 12.62L82.46 12.89Q84.10 13.46 84.78 14.28Q85.46 15.10 85.46 16.18L85.46 16.18Q85.46 17.59 84.30 18.53Q83.14 19.46 80.93 19.46ZM90.02 19.46L90.02 19.46Q88.78 19.46 87.94 18.78Q87.10 18.10 87.10 16.73L87.10 16.73Q87.10 16.06 87.41 15.47Q87.72 14.88 88.56 14.35Q89.40 13.82 90.96 13.27L90.96 13.27Q91.63 13.06 92.62 12.79Q93.60 12.53 94.42 12.36L94.42 12.36L94.42 13.20Q93.67 13.37 92.82 13.62Q91.97 13.87 91.49 14.09L91.49 14.09Q90.26 14.57 89.87 15.16Q89.47 15.74 89.47 16.32L89.47 16.32Q89.47 17.18 89.94 17.57Q90.41 17.95 91.08 17.95L91.08 17.95Q91.42 17.95 91.73 17.84Q92.04 17.74 92.53 17.41Q93.02 17.09 93.89 16.44L93.89 16.44L94.18 17.62L93.43 17.62Q92.52 18.58 91.81 19.02Q91.10 19.46 90.02 19.46ZM95.38 19.44L95.38 19.44Q94.39 19.44 93.80 18.86Q93.22 18.29 93.17 17.28L93.17 17.28L93.17 12.05Q93.17 10.49 92.72 9.95Q92.28 9.41 91.20 9.41L91.20 9.41Q90.82 9.41 90.32 9.48Q89.83 9.55 89.18 9.77L89.18 9.77L90.29 9.02L89.88 10.80Q89.66 12.17 88.58 12.17L88.58 12.17Q87.55 12.17 87.41 11.23L87.41 11.23Q87.65 9.94 88.85 9.16Q90.05 8.38 91.97 8.38L91.97 8.38Q93.82 8.38 94.68 9.28Q95.54 10.18 95.54 12.31L95.54 12.31L95.54 17.09Q95.54 17.69 95.74 17.93Q95.93 18.17 96.26 18.17L96.26 18.17Q96.67 18.17 97.06 17.69L97.06 17.69L97.54 18.14Q97.13 18.86 96.61 19.15Q96.10 19.44 95.38 19.44ZM114.94 15.26L114.94 15.26Q114.94 14.02 114.43 13.07Q113.93 12.12 113.04 11.58Q112.15 11.04 111.00 11.04L111.00 11.04Q110.28 11.04 109.67 11.34Q109.06 11.64 108.58 12.14L108.58 12.14Q108.67 10.39 109.25 9.30Q109.82 8.21 110.95 8.21L110.95 8.21Q111.58 8.21 112.01 8.63Q112.44 9.05 112.61 9.70L112.61 9.70L114.74 9.05Q114.38 7.75 113.39 7.02Q112.39 6.29 111.05 6.29L111.05 6.29Q109.34 6.29 108.30 7.21Q107.26 8.14 106.79 9.77Q106.32 11.40 106.32 13.51L106.32 13.51Q106.32 16.20 107.34 17.80Q108.36 19.39 110.64 19.39L110.64 19.39Q112.54 19.39 113.74 18.28Q114.94 17.16 114.94 15.26ZM112.63 15.22L112.63 15.22Q112.63 16.20 112.12 16.85Q111.60 17.50 110.71 17.50L110.71 17.50Q109.90 17.50 109.38 16.90Q108.86 16.30 108.86 15.26L108.86 15.26Q108.86 14.21 109.39 13.57Q109.92 12.94 110.76 12.94L110.76 12.94Q111.60 12.94 112.12 13.61Q112.63 14.28 112.63 15.22ZM121.15 19.39L121.15 19.39Q119.95 19.39 119.11 18.84Q118.27 18.29 117.74 17.36Q117.22 16.44 116.98 15.26Q116.74 14.09 116.74 12.84L116.74 12.84Q116.74 11.14 117.19 9.64Q117.65 8.14 118.61 7.21Q119.57 6.29 121.13 6.29L121.13 6.29Q122.71 6.29 123.67 7.19Q124.63 8.09 125.09 9.56Q125.54 11.04 125.54 12.82L125.54 12.82Q125.54 14.54 125.10 16.04Q124.66 17.54 123.68 18.47Q122.71 19.39 121.15 19.39ZM121.13 17.45L121.13 17.45Q122.14 17.45 122.69 16.34Q123.24 15.24 123.24 12.84L123.24 12.84Q123.24 10.44 122.69 9.34Q122.14 8.23 121.10 8.23L121.10 8.23Q120.12 8.23 119.58 9.34Q119.04 10.44 119.04 12.84L119.04 12.84Q119.04 15.24 119.59 16.34Q120.14 17.45 121.13 17.45ZM131.71 19.39L131.71 19.39Q130.51 19.39 129.67 18.84Q128.83 18.29 128.30 17.36Q127.78 16.44 127.54 15.26Q127.30 14.09 127.30 12.84L127.30 12.84Q127.30 11.14 127.75 9.64Q128.21 8.14 129.17 7.21Q130.13 6.29 131.69 6.29L131.69 6.29Q133.27 6.29 134.23 7.19Q135.19 8.09 135.65 9.56Q136.10 11.04 136.10 12.82L136.10 12.82Q136.10 14.54 135.66 16.04Q135.22 17.54 134.24 18.47Q133.27 19.39 131.71 19.39ZM131.69 17.45L131.69 17.45Q132.70 17.45 133.25 16.34Q133.80 15.24 133.80 12.84L133.80 12.84Q133.80 10.44 133.25 9.34Q132.70 8.23 131.66 8.23L131.66 8.23Q130.68 8.23 130.14 9.34Q129.60 10.44 129.60 12.84L129.60 12.84Q129.60 15.24 130.15 16.34Q130.70 17.45 131.69 17.45ZM156.14 19.20L153.58 19.20Q153.60 18.70 153.61 17.88Q153.62 17.06 153.64 16.16Q153.65 15.26 153.65 14.57L153.65 14.57L153.65 12.55Q153.65 11.18 153.28 10.66Q152.90 10.13 152.04 10.13L152.04 10.13Q150.62 10.13 148.94 11.69L148.94 11.69L148.73 10.63L149.02 10.63Q149.88 9.55 150.95 8.96Q152.02 8.38 153.12 8.38L153.12 8.38Q154.54 8.38 155.30 9.32Q156.07 10.27 156.07 12.34L156.07 12.34L156.07 14.57Q156.07 15.26 156.08 16.16Q156.10 17.06 156.11 17.88Q156.12 18.70 156.14 19.20L156.14 19.20ZM150.79 19.20L145.44 19.20L145.44 18.34L147.72 17.90L148.63 17.90L150.79 18.34L150.79 19.20ZM149.45 19.20L146.90 19.20Q146.93 18.70 146.94 17.87Q146.95 17.04 146.96 16.14Q146.98 15.24 146.98 14.57L146.98 14.57L146.98 13.44Q146.98 12.53 146.96 11.98Q146.95 11.42 146.90 10.75L146.90 10.75L145.27 10.56L145.27 9.74L148.78 8.38L149.14 8.59L149.38 11.11L149.38 14.57Q149.38 15.24 149.38 16.14Q149.38 17.04 149.40 17.87Q149.42 18.70 149.45 19.20L149.45 19.20ZM157.49 19.20L152.16 19.20L152.16 18.34L154.42 17.90L155.30 17.90L157.49 18.34L157.49 19.20ZM164.21 19.46L164.21 19.46Q162.77 19.46 161.57 18.83Q160.37 18.19 159.66 16.97Q158.95 15.74 158.95 13.94L158.95 13.94Q158.95 12.17 159.68 10.92Q160.42 9.67 161.62 9.02Q162.82 8.38 164.21 8.38L164.21 8.38Q165.55 8.38 166.75 9.02Q167.95 9.67 168.70 10.92Q169.44 12.17 169.44 13.94L169.44 13.94Q169.44 15.74 168.72 16.97Q168.00 18.19 166.81 18.83Q165.62 19.46 164.21 19.46ZM164.21 18.46L164.21 18.46Q165.43 18.46 166.12 17.35Q166.80 16.25 166.80 13.97L166.80 13.97Q166.80 11.71 166.12 10.56Q165.43 9.41 164.21 9.41L164.21 9.41Q161.59 9.41 161.59 13.97L161.59 13.97Q161.59 18.46 164.21 18.46ZM176.88 19.20L171.12 19.20L171.12 18.34L173.45 17.90L174.60 17.90L176.88 18.34L176.88 19.20ZM175.13 19.20L172.58 19.20Q172.61 18.70 172.62 17.87Q172.63 17.04 172.64 16.14Q172.66 15.24 172.66 14.57L172.66 14.57L172.66 13.44Q172.66 12.53 172.64 11.98Q172.63 11.42 172.58 10.75L172.58 10.75L170.95 10.56L170.95 9.74L174.46 8.38L174.82 8.59L175.06 11.33L175.06 14.57Q175.06 15.24 175.06 16.14Q175.06 17.04 175.08 17.87Q175.10 18.70 175.13 19.20L175.13 19.20ZM175.01 13.10L175.01 13.10L174.55 11.59L174.94 11.59Q175.39 10.03 176.32 9.20Q177.24 8.38 178.15 8.38L178.15 8.38Q178.73 8.38 179.21 8.65Q179.69 8.93 179.86 9.43L179.86 9.43Q179.83 11.11 178.46 11.11L178.46 11.11Q177.67 11.11 177.00 10.42L177.00 10.42L176.40 9.79L177.41 9.74Q175.68 10.75 175.01 13.10ZM197.93 19.20L195.41 19.20Q195.43 18.70 195.44 17.88Q195.46 17.06 195.47 16.16Q195.48 15.26 195.48 14.57L195.48 14.57L195.48 12.58Q195.48 11.14 195.08 10.63Q194.69 10.13 193.82 10.13L193.82 10.13Q192.41 10.13 190.85 11.69L190.85 11.69L190.54 10.78L190.75 10.78Q191.69 9.50 192.74 8.94Q193.80 8.38 194.93 8.38L194.93 8.38Q196.37 8.38 197.12 9.29Q197.88 10.20 197.88 12.24L197.88 12.24L197.88 14.57Q197.88 15.26 197.88 16.16Q197.88 17.06 197.89 17.88Q197.90 18.70 197.93 19.20L197.93 19.20ZM186.10 19.20L180.74 19.20L180.74 18.34L183.02 17.90L183.94 17.90L186.10 18.34L186.10 19.20ZM184.75 19.20L182.21 19.20Q182.23 18.70 182.24 17.87Q182.26 17.04 182.27 16.14Q182.28 15.24 182.28 14.57L182.28 14.57L182.28 13.44Q182.28 12.53 182.27 11.98Q182.26 11.42 182.21 10.75L182.21 10.75L180.58 10.56L180.58 9.74L184.08 8.38L184.44 8.59L184.68 11.11L184.68 14.57Q184.68 15.24 184.68 16.14Q184.68 17.04 184.70 17.87Q184.73 18.70 184.75 19.20L184.75 19.20ZM192.70 19.20L187.37 19.20L187.37 18.34L189.65 17.90L190.54 17.90L192.70 18.34L192.70 19.20ZM191.35 19.20L188.83 19.20Q188.86 18.70 188.87 17.88Q188.88 17.06 188.89 16.16Q188.90 15.26 188.90 14.57L188.90 14.57L188.90 12.62Q188.90 11.23 188.52 10.68Q188.14 10.13 187.25 10.13L187.25 10.13Q186.48 10.13 185.76 10.54Q185.04 10.94 184.27 11.69L184.27 11.69L184.01 10.75L184.25 10.75Q185.06 9.67 186.13 9.02Q187.20 8.38 188.33 8.38L188.33 8.38Q189.82 8.38 190.55 9.32Q191.28 10.27 191.28 12.34L191.28 12.34L191.28 14.57Q191.28 15.26 191.29 16.16Q191.30 17.06 191.32 17.88Q191.33 18.70 191.35 19.20L191.35 19.20ZM199.32 19.20L193.99 19.20L193.99 18.34L196.22 17.90L197.14 17.90L199.32 18.34L199.32 19.20ZM203.69 19.46L203.69 19.46Q202.44 19.46 201.60 18.78Q200.76 18.10 200.76 16.73L200.76 16.73Q200.76 16.06 201.07 15.47Q201.38 14.88 202.22 14.35Q203.06 13.82 204.62 13.27L204.62 13.27Q205.30 13.06 206.28 12.79Q207.26 12.53 208.08 12.36L208.08 12.36L208.08 13.20Q207.34 13.37 206.48 13.62Q205.63 13.87 205.15 14.09L205.15 14.09Q203.93 14.57 203.53 15.16Q203.14 15.74 203.14 16.32L203.14 16.32Q203.14 17.18 203.60 17.57Q204.07 17.95 204.74 17.95L204.74 17.95Q205.08 17.95 205.39 17.84Q205.70 17.74 206.20 17.41Q206.69 17.09 207.55 16.44L207.55 16.44L207.84 17.62L207.10 17.62Q206.18 18.58 205.48 19.02Q204.77 19.46 203.69 19.46ZM209.04 19.44L209.04 19.44Q208.06 19.44 207.47 18.86Q206.88 18.29 206.83 17.28L206.83 17.28L206.83 12.05Q206.83 10.49 206.39 9.95Q205.94 9.41 204.86 9.41L204.86 9.41Q204.48 9.41 203.99 9.48Q203.50 9.55 202.85 9.77L202.85 9.77L203.95 9.02L203.54 10.80Q203.33 12.17 202.25 12.17L202.25 12.17Q201.22 12.17 201.07 11.23L201.07 11.23Q201.31 9.94 202.51 9.16Q203.71 8.38 205.63 8.38L205.63 8.38Q207.48 8.38 208.34 9.28Q209.21 10.18 209.21 12.31L209.21 12.31L209.21 17.09Q209.21 17.69 209.40 17.93Q209.59 18.17 209.93 18.17L209.93 18.17Q210.34 18.17 210.72 17.69L210.72 17.69L211.20 18.14Q210.79 18.86 210.28 19.15Q209.76 19.44 209.04 19.44ZM217.49 19.20L211.82 19.20L211.82 18.34L214.18 17.90L215.06 17.90L217.49 18.34L217.49 19.20ZM215.93 19.20L213.36 19.20Q213.43 16.90 213.43 14.57L213.43 14.57L213.43 5.02L211.78 4.80L211.78 3.96L215.62 2.98L215.95 3.19L215.86 6.29L215.86 14.57Q215.86 16.90 215.93 19.20L215.93 19.20Z"/></svg>