<svg xmlns="http://www.w3.org/2000/svg" xmlns:xlink="http://www.w3.org/1999/xlink" width="210.12890625" height="30.46875"><path fill="black" d="M9.43 22.62L9.43 22.62Q7.71 22.62 6.24 22.14Q4.77 21.67 3.67 20.71Q2.57 19.76 1.96 18.33Q1.35 16.90 1.35 14.98L1.35 14.98Q1.35 12.60 2.21 10.79Q3.08 8.98 4.54 7.75Q5.99 6.53 7.78 5.91Q9.57 5.29 11.44 5.29L11.44 5.29Q13.36 5.29 14.54 5.47Q15.73 5.65 16.41 5.89Q17.10 6.13 17.53 6.32L17.53 6.32L16.99 9.95Q16.98 10.22 16.72 10.32Q16.45 10.43 16.31 10.43L16.31 10.43Q16.04 10.43 15.84 10.38Q15.63 10.34 15.61 10.10L15.61 10.10Q15.49 8.94 15.09 8.21Q14.70 7.49 14.09 7.10Q13.49 6.70 12.74 6.56Q11.99 6.41 11.17 6.41L11.17 6.41Q9.91 6.41 8.94 6.96Q7.97 7.50 7.27 8.44Q6.56 9.38 6.12 10.54Q5.67 11.71 5.46 12.96Q5.25 14.20 5.26 15.36L5.26 15.36Q5.29 17.39 5.84 18.75Q6.40 20.11 7.32 20.79Q8.25 21.48 9.38 21.48L9.38 21.48Q10.44 21.48 11.10 21.28Q11.75 21.08 12.09 20.79Q12.43 20.51 12.54 20.27L12.54 20.27L13.15 16.70Q13.14 16.30 12.78 16.12Q12.42 15.94 11.94 15.88Q11.46 15.82 11.04 15.79L11.04 15.79Q10.66 15.77 10.66 15.52L10.66 15.52Q10.66 15.38 10.75 15.06Q10.83 14.75 11.19 14.75L11.19 14.75L18.33 14.75Q18.49 14.75 18.56 14.91Q18.63 15.07 18.63 15.23L18.63 15.23Q18.64 15.75 18.16 15.79L18.16 15.79Q17.63 15.82 17.13 15.98Q16.63 16.15 16.62 16.54L16.62 16.54L15.95 20.82Q15.75 21.08 14.88 21.51Q14.02 21.94 12.62 22.28Q11.21 22.62 9.43 22.62ZM30.81 12.98L30.81 12.98Q30.81 13.95 30.18 14.70Q29.54 15.46 28.45 16.01Q27.35 16.56 25.95 16.93Q24.55 17.31 23.02 17.50L23.02 17.50Q23.00 17.63 23.00 17.77Q23.00 17.91 23.00 18.05L23.00 18.05Q23.00 19.17 23.40 19.82Q23.80 20.47 24.42 20.75Q25.04 21.02 25.70 21.02L25.70 21.02Q26.79 21.02 27.67 20.67Q28.56 20.32 29.50 19.66L29.50 19.66Q29.55 19.63 29.60 19.59Q29.65 19.56 29.71 19.58L29.71 19.58Q29.80 19.61 29.98 19.80Q30.16 19.99 30.19 20.12L30.19 20.12Q30.19 20.14 30.20 20.16Q30.21 20.17 30.21 20.19L30.21 20.19Q30.21 20.24 30.18 20.27Q30.15 20.31 30.13 20.34L30.13 20.34Q29.11 21.41 27.73 22.01Q26.34 22.61 24.76 22.61L24.76 22.61Q22.30 22.61 20.94 21.28Q19.58 19.96 19.58 17.75L19.58 17.75Q19.58 16.18 20.17 14.84Q20.75 13.50 21.76 12.50Q22.77 11.50 24.07 10.94Q25.37 10.38 26.81 10.38L26.81 10.38Q28.32 10.38 29.20 10.80Q30.08 11.21 30.45 11.82Q30.81 12.43 30.81 12.98ZM26.39 11.33L26.39 11.33Q25.24 11.33 24.27 12.71Q23.30 14.10 23.06 16.59L23.06 16.59Q25.21 16.14 26.43 15.19Q27.66 14.24 27.64 12.62L27.64 12.62Q27.64 12.07 27.35 11.70Q27.05 11.33 26.39 11.33ZM33.02 20.30L33.02 20.30Q33.08 19.91 33.23 18.98Q33.39 18.05 33.59 16.77Q33.79 15.49 34.01 14.07Q34.24 12.64 34.46 11.27Q34.69 9.90 34.86 8.78Q35.04 7.65 35.14 6.97Q35.25 6.29 35.25 6.27L35.25 6.27Q35.25 5.85 34.96 5.68Q34.66 5.52 34.28 5.46Q33.90 5.39 33.60 5.28Q33.30 5.17 33.30 4.86L33.30 4.86Q33.30 4.76 33.40 4.51Q33.50 4.25 33.69 4.24L33.69 4.24Q35.20 4.17 36.47 4.15Q37.73 4.13 38.38 4.13L38.38 4.13Q38.47 4.13 38.57 4.20Q38.67 4.27 38.67 4.48L38.67 4.48Q38.67 4.50 38.57 5.18Q38.46 5.86 38.29 7.00Q38.11 8.13 37.90 9.54Q37.69 10.96 37.45 12.46Q37.22 13.97 37.00 15.39Q36.79 16.80 36.61 17.95Q36.43 19.10 36.33 19.79Q36.23 20.48 36.23 20.53L36.23 20.53Q36.23 20.79 36.38 20.96Q36.53 21.13 36.93 21.13L36.93 21.13Q37.17 21.13 37.46 21.06Q37.76 20.99 37.93 20.99L37.93 20.99Q38.04 20.99 38.14 21.04Q38.24 21.09 38.24 21.35L38.24 21.35Q38.24 21.49 38.17 21.64Q38.11 21.79 37.95 21.84L37.95 21.84Q37.18 22.08 36.34 22.25Q35.50 22.42 34.58 22.42L34.58 22.42Q33.87 22.42 33.52 22.16Q33.18 21.90 33.06 21.56Q32.95 21.21 32.95 20.95L32.95 20.95Q32.95 20.77 32.98 20.61Q33 20.45 33.02 20.30ZM43.83 22.57L43.83 22.57Q42.61 22.58 41.80 22.06Q40.99 21.54 40.59 20.65Q40.20 19.76 40.20 18.69L40.20 18.69Q40.20 17.33 40.76 15.88Q41.32 14.44 42.38 13.20Q43.43 11.95 44.88 11.18Q46.34 10.41 48.12 10.41L48.12 10.41Q49.16 10.41 50.02 10.65Q50.87 10.90 51.42 11.30L51.42 11.30Q52.01 10.97 52.47 10.72Q52.93 10.46 53.19 10.46L53.19 10.46Q53.34 10.46 53.46 10.52Q53.57 10.58 53.57 10.75L53.57 10.75L51.94 20.12Q51.90 20.38 51.90 20.54L51.90 20.54Q51.90 20.85 52.13 20.97Q52.36 21.09 52.59 21.09L52.59 21.09Q52.85 21.09 53.17 21.01Q53.50 20.93 53.58 20.93L53.58 20.93Q53.73 20.93 53.81 21.04Q53.89 21.15 53.89 21.34L53.89 21.34Q53.89 21.59 53.79 21.70Q53.70 21.81 53.60 21.84L53.60 21.84Q53.26 21.97 52.35 22.24Q51.45 22.51 50.31 22.51L50.31 22.51Q49.42 22.51 49.00 22.08Q48.59 21.66 48.59 20.96L48.59 20.96Q48.59 20.86 48.67 20.44Q48.75 20.02 48.86 19.47Q48.97 18.93 49.07 18.44Q49.17 17.95 49.22 17.71L49.22 17.71Q48.95 18.34 48.43 19.17Q47.92 19.99 47.21 20.77Q46.51 21.54 45.65 22.05Q44.79 22.56 43.83 22.57ZM45.02 20.64L45.02 20.64Q45.57 20.64 46.14 20.23Q46.71 19.83 47.25 19.17Q47.79 18.52 48.25 17.79Q48.71 17.06 49.06 16.41Q49.41 15.75 49.59 15.34L49.59 15.34L50.11 12.70Q50.06 12.23 49.53 11.84Q49.00 11.44 48.09 11.44L48.09 11.44Q47.02 11.44 46.18 12.04Q45.34 12.64 44.77 13.63Q44.19 14.61 43.89 15.77Q43.59 16.92 43.59 18.02L43.59 18.02Q43.59 19.54 43.99 20.09Q44.39 20.64 45.02 20.64ZM60.14 22.55L60.14 22.55Q58.86 22.55 57.77 22.29Q56.68 22.04 56.02 21.50Q55.36 20.95 55.36 20.05L55.36 20.05Q55.36 19.45 55.77 19.07Q56.18 18.68 56.94 18.68L56.94 18.68L58.80 21.26Q59.04 21.46 59.39 21.54Q59.74 21.62 60.18 21.62L60.18 21.62Q60.67 21.62 61.13 21.44Q61.58 21.26 61.86 20.89Q62.14 20.53 62.13 20.04L62.13 20.04Q62.13 19.45 61.68 19.02Q61.22 18.59 60.53 18.18Q59.84 17.78 59.07 17.32L59.07 17.32Q58.39 16.89 57.82 16.39Q57.25 15.90 56.89 15.23Q56.54 14.57 56.54 13.65L56.54 13.65Q56.54 12.87 56.92 12.26Q57.30 11.66 57.97 11.24Q58.63 10.83 59.50 10.61Q60.36 10.39 61.34 10.39L61.34 10.39Q63.67 10.39 64.80 11.05Q65.93 11.71 65.94 12.62L65.94 12.62Q65.94 13.02 65.64 13.31Q65.33 13.59 64.95 13.75Q64.57 13.90 64.34 13.90L64.34 13.90L62.65 11.68Q62.41 11.50 62.14 11.39Q61.86 11.29 61.49 11.29L61.49 11.29Q60.89 11.29 60.42 11.47Q59.95 11.65 59.69 11.98Q59.43 12.32 59.44 12.80L59.44 12.80Q59.44 13.50 60.16 14.00Q60.88 14.51 61.93 15.13L61.93 15.13Q62.81 15.62 63.53 16.17Q64.25 16.72 64.69 17.40Q65.12 18.08 65.12 18.98L65.12 18.98Q65.12 19.89 64.56 20.70Q64.01 21.52 62.89 22.03Q61.78 22.55 60.14 22.55ZM69.80 22.42L69.80 22.42Q69.12 22.42 68.78 22.18Q68.45 21.95 68.34 21.64Q68.23 21.34 68.23 21.12L68.23 21.12Q68.23 20.67 68.29 20.34L68.29 20.34L69.55 13.07Q69.57 12.96 69.58 12.88Q69.59 12.80 69.59 12.71L69.59 12.71Q69.59 12.19 69.32 12Q69.06 11.81 68.72 11.78Q68.38 11.75 68.12 11.68L68.12 11.68Q68.00 11.63 67.95 11.53Q67.89 11.44 67.91 11.21L67.91 11.21Q67.93 11.07 68.03 10.89Q68.12 10.71 68.26 10.70L68.26 10.70Q69.75 10.61 70.95 10.59Q72.14 10.58 72.77 10.58L72.77 10.58Q72.87 10.58 72.97 10.68Q73.08 10.77 73.05 11.05L73.05 11.05L71.51 20.59Q71.51 20.93 71.71 21.04Q71.92 21.14 72.22 21.14L72.22 21.14Q72.48 21.14 72.79 21.06Q73.09 20.99 73.24 20.99L73.24 20.99Q73.39 20.99 73.46 21.14Q73.52 21.29 73.52 21.48L73.52 21.48Q73.52 21.77 73.24 21.88L73.24 21.88Q72.45 22.13 71.70 22.27Q70.96 22.42 69.80 22.42ZM71.67 8.43L71.67 8.43Q70.93 8.43 70.46 7.97Q70.00 7.51 70.00 6.77L70.00 6.77Q70.00 6.11 70.31 5.58Q70.62 5.05 71.14 4.75Q71.67 4.44 72.27 4.44L72.27 4.44Q73.02 4.44 73.49 4.90Q73.97 5.37 73.97 6.11L73.97 6.11Q73.97 6.75 73.65 7.28Q73.34 7.80 72.81 8.12Q72.29 8.43 71.67 8.43ZM75.80 17.32L75.80 17.32Q75.77 16.05 76.21 14.82Q76.64 13.59 77.51 12.59Q78.38 11.59 79.65 10.99Q80.92 10.38 82.57 10.38L82.57 10.38Q84.63 10.38 85.89 11.07Q87.14 11.75 87.71 12.97Q88.29 14.19 88.29 15.79L88.29 15.79Q88.29 17.61 87.49 19.16Q86.68 20.71 85.16 21.65Q83.64 22.59 81.46 22.59L81.46 22.59Q79.48 22.59 78.23 21.93Q76.99 21.26 76.41 20.07Q75.83 18.89 75.80 17.32ZM81.41 21.57L81.41 21.57Q82.32 21.57 82.96 21.01Q83.60 20.44 84 19.49Q84.40 18.55 84.58 17.39Q84.76 16.23 84.76 15.05L84.76 15.05Q84.76 13.43 84.32 12.42Q83.87 11.41 82.61 11.41L82.61 11.41Q81.70 11.41 81.08 11.98Q80.45 12.55 80.06 13.50Q79.68 14.45 79.49 15.62Q79.31 16.78 79.31 17.95L79.31 17.95Q79.31 19.55 79.73 20.56Q80.16 21.57 81.41 21.57ZM102.18 22.61L102.18 22.61Q100.24 22.61 98.98 21.79Q97.72 20.98 97.11 19.63Q96.50 18.28 96.50 16.70L96.50 16.70Q96.50 14.55 97.27 12.54Q98.04 10.52 99.51 8.81Q100.98 7.10 103.09 5.89Q105.20 4.69 107.89 4.20L107.89 4.20L107.72 5.27Q105.69 5.84 104.31 7.01Q102.93 8.19 102.09 9.67Q101.25 11.14 100.84 12.64L100.84 12.64Q101.21 12.27 101.84 11.91Q102.47 11.55 103.22 11.31Q103.98 11.07 104.74 11.07L104.74 11.07Q106.37 11.07 107.43 11.64Q108.48 12.21 108.98 13.18Q109.49 14.16 109.49 15.39L109.49 15.39Q109.49 17.38 108.57 19.02Q107.66 20.66 106.02 21.63Q104.38 22.61 102.18 22.61ZM102.28 21.49L102.28 21.49Q103.51 21.49 104.36 20.63Q105.20 19.77 105.64 18.40Q106.08 17.03 106.08 15.48L106.08 15.48Q106.08 14.21 105.57 13.40Q105.06 12.59 103.86 12.59L103.86 12.59Q103.17 12.59 102.43 12.86Q101.68 13.14 101.12 13.52Q100.56 13.90 100.36 14.20L100.36 14.20Q100.00 15.21 99.86 16.29Q99.71 17.37 99.71 18.43L99.71 18.43Q99.71 19.82 100.27 20.65Q100.83 21.49 102.28 21.49ZM117.56 22.61L117.56 22.61Q114.77 22.61 113.33 20.99Q111.88 19.37 111.88 16.52L111.88 16.52Q111.88 14.81 112.38 13.29Q112.89 11.78 113.87 10.62Q114.84 9.47 116.27 8.81Q117.69 8.14 119.51 8.14L119.51 8.14Q122.31 8.14 123.76 9.74Q125.20 11.33 125.20 14.11L125.20 14.11Q125.20 15.87 124.69 17.41Q124.17 18.95 123.19 20.12Q122.21 21.28 120.80 21.94Q119.38 22.61 117.56 22.61ZM117.76 21.49L117.76 21.49Q118.85 21.49 119.60 20.78Q120.35 20.06 120.81 18.88Q121.27 17.70 121.46 16.26Q121.66 14.82 121.66 13.39L121.66 13.39Q121.66 12.15 121.46 11.22Q121.25 10.29 120.73 9.77Q120.21 9.26 119.27 9.26L119.27 9.26Q118.20 9.26 117.46 9.94Q116.72 10.63 116.26 11.79Q115.80 12.95 115.61 14.38Q115.41 15.82 115.41 17.33L115.41 17.33Q115.41 18.55 115.59 19.49Q115.78 20.43 116.29 20.96Q116.80 21.49 117.76 21.49ZM133.75 22.61L133.75 22.61Q130.96 22.61 129.51 20.99Q128.06 19.37 128.06 16.52L128.06 16.52Q128.06 14.81 128.57 13.29Q129.07 11.78 130.05 10.62Q131.03 9.47 132.45 8.81Q133.88 8.14 135.69 8.14L135.69 8.14Q138.49 8.14 139.94 9.74Q141.39 11.33 141.39 14.11L141.39 14.11Q141.39 15.87 140.87 17.41Q140.36 18.95 139.38 20.12Q138.40 21.28 136.98 21.94Q135.56 22.61 133.75 22.61ZM133.95 21.49L133.95 21.49Q135.04 21.49 135.79 20.78Q136.54 20.06 136.99 18.88Q137.45 17.70 137.65 16.26Q137.85 14.82 137.85 13.39L137.85 13.39Q137.85 12.15 137.64 11.22Q137.44 10.29 136.92 9.77Q136.39 9.26 135.46 9.26L135.46 9.26Q134.38 9.26 133.64 9.94Q132.90 10.63 132.45 11.79Q131.99 12.95 131.79 14.38Q131.59 15.82 131.59 17.33L131.59 17.33Q131.59 18.55 131.78 19.49Q131.96 20.43 132.47 20.96Q132.98 21.49 133.95 21.49ZM151.92 22.42L151.92 22.42Q151.24 22.42 150.91 22.18Q150.57 21.95 150.46 21.64Q150.35 21.34 150.35 21.12L150.35 21.12Q150.35 20.67 150.41 20.34L150.41 20.34L151.68 13.07Q151.70 12.96 151.71 12.88Q151.71 12.80 151.71 12.71L151.71 12.71Q151.71 12.19 151.45 12Q151.18 11.81 150.84 11.78Q150.50 11.75 150.25 11.68L150.25 11.68Q150.13 11.63 150.07 11.53Q150.01 11.44 150.04 11.21L150.04 11.21Q150.06 11.07 150.15 10.89Q150.25 10.71 150.39 10.70L150.39 10.70Q151.88 10.61 153.07 10.59Q154.27 10.58 154.90 10.58L154.90 10.58Q154.99 10.58 155.10 10.68Q155.20 10.77 155.18 11.05L155.18 11.05L153.63 20.59Q153.63 20.93 153.84 21.04Q154.04 21.14 154.35 21.14L154.35 21.14Q154.61 21.14 154.91 21.06Q155.21 20.99 155.37 20.99L155.37 20.99Q155.52 20.99 155.58 21.14Q155.65 21.29 155.65 21.48L155.65 21.48Q155.65 21.77 155.37 21.88L155.37 21.88Q154.57 22.13 153.83 22.27Q153.08 22.42 151.92 22.42ZM153.80 8.43L153.80 8.43Q153.06 8.43 152.59 7.97Q152.12 7.51 152.12 6.77L152.12 6.77Q152.12 6.11 152.43 5.58Q152.74 5.05 153.27 4.75Q153.80 4.44 154.39 4.44L154.39 4.44Q155.14 4.44 155.62 4.90Q156.09 5.37 156.09 6.11L156.09 6.11Q156.09 6.75 155.78 7.28Q155.46 7.80 154.94 8.12Q154.42 8.43 153.80 8.43ZM160.73 22.57L160.73 22.57Q160.08 22.57 159.56 22.39Q159.05 22.21 158.75 21.74Q158.46 21.27 158.46 20.40L158.46 20.40Q158.46 20.23 158.47 20.04Q158.48 19.85 158.51 19.65L158.51 19.65L159.71 11.81L158.20 11.81Q158.09 11.80 158.04 11.65Q157.99 11.50 157.99 11.36L157.99 11.36Q157.99 11.09 158.14 10.89Q158.29 10.69 158.44 10.65L158.44 10.65Q159.27 10.54 159.84 10.22Q160.41 9.91 160.89 9.23Q161.37 8.55 161.94 7.35L161.94 7.35Q162.11 7.02 162.36 6.88Q162.61 6.75 163.02 6.75L163.02 6.75L163.48 6.75Q163.62 6.75 163.69 6.83Q163.76 6.91 163.73 7.01L163.73 7.01L163.11 10.62L166.08 10.62Q166.22 10.63 166.26 10.74Q166.30 10.85 166.30 10.99L166.30 10.99Q166.30 11.26 166.18 11.51Q166.05 11.75 165.91 11.81L165.91 11.81L162.95 11.81L161.82 18.97Q161.79 19.21 161.77 19.40Q161.75 19.59 161.75 19.77L161.75 19.77Q161.75 20.57 162.08 20.74Q162.40 20.91 162.76 20.91L162.76 20.91Q163.35 20.91 163.78 20.72Q164.21 20.54 164.50 20.36Q164.79 20.17 164.92 20.17L164.92 20.17Q165.08 20.17 165.18 20.35Q165.28 20.53 165.28 20.73L165.28 20.73Q165.28 20.93 165.15 21.02L165.15 21.02Q164.53 21.48 163.95 21.83Q163.36 22.17 162.60 22.37Q161.85 22.57 160.73 22.57ZM170.70 22.57L170.70 22.57Q169.48 22.58 168.67 22.06Q167.86 21.54 167.46 20.65Q167.06 19.76 167.06 18.69L167.06 18.69Q167.06 17.33 167.63 15.88Q168.19 14.44 169.24 13.20Q170.30 11.95 171.75 11.18Q173.20 10.41 174.98 10.41L174.98 10.41Q176.03 10.41 176.88 10.65Q177.74 10.90 178.29 11.30L178.29 11.30Q178.88 10.97 179.34 10.72Q179.80 10.46 180.06 10.46L180.06 10.46Q180.21 10.46 180.32 10.52Q180.43 10.58 180.43 10.75L180.43 10.75L178.80 20.12Q178.77 20.38 178.77 20.54L178.77 20.54Q178.77 20.85 179.00 20.97Q179.23 21.09 179.46 21.09L179.46 21.09Q179.72 21.09 180.04 21.01Q180.36 20.93 180.45 20.93L180.45 20.93Q180.60 20.93 180.68 21.04Q180.76 21.15 180.76 21.34L180.76 21.34Q180.76 21.59 180.66 21.70Q180.56 21.81 180.47 21.84L180.47 21.84Q180.13 21.97 179.22 22.24Q178.31 22.51 177.18 22.51L177.18 22.51Q176.29 22.51 175.87 22.08Q175.45 21.66 175.45 20.96L175.45 20.96Q175.45 20.86 175.54 20.44Q175.62 20.02 175.73 19.47Q175.84 18.93 175.94 18.44Q176.04 17.95 176.09 17.71L176.09 17.71Q175.82 18.34 175.30 19.17Q174.79 19.99 174.08 20.77Q173.38 21.54 172.52 22.05Q171.66 22.56 170.70 22.57ZM171.89 20.64L171.89 20.64Q172.44 20.64 173.01 20.23Q173.58 19.83 174.12 19.17Q174.66 18.52 175.12 17.79Q175.58 17.06 175.93 16.41Q176.27 15.75 176.46 15.34L176.46 15.34L176.98 12.70Q176.93 12.23 176.40 11.84Q175.86 11.44 174.96 11.44L174.96 11.44Q173.88 11.44 173.04 12.04Q172.21 12.64 171.63 13.63Q171.06 14.61 170.76 15.77Q170.46 16.92 170.46 18.02L170.46 18.02Q170.46 19.54 170.86 20.09Q171.26 20.64 171.89 20.64ZM183.09 20.30L183.09 20.30Q183.15 19.91 183.30 18.98Q183.46 18.05 183.66 16.77Q183.86 15.49 184.08 14.07Q184.31 12.64 184.54 11.27Q184.76 9.90 184.93 8.78Q185.11 7.65 185.21 6.97Q185.32 6.29 185.32 6.27L185.32 6.27Q185.32 5.85 185.03 5.68Q184.73 5.52 184.35 5.46Q183.97 5.39 183.67 5.28Q183.38 5.17 183.38 4.86L183.38 4.86Q183.38 4.76 183.47 4.51Q183.57 4.25 183.76 4.24L183.76 4.24Q185.27 4.17 186.54 4.15Q187.80 4.13 188.45 4.13L188.45 4.13Q188.54 4.13 188.64 4.20Q188.74 4.27 188.74 4.48L188.74 4.48Q188.74 4.50 188.64 5.18Q188.53 5.86 188.36 7.00Q188.18 8.13 187.97 9.54Q187.76 10.96 187.52 12.46Q187.29 13.97 187.07 15.39Q186.86 16.80 186.68 17.95Q186.50 19.10 186.40 19.79Q186.30 20.48 186.30 20.53L186.30 20.53Q186.30 20.79 186.45 20.96Q186.60 21.13 187.00 21.13L187.00 21.13Q187.24 21.13 187.54 21.06Q187.83 20.99 188.00 20.99L188.00 20.99Q188.11 20.99 188.21 21.04Q188.31 21.09 188.31 21.35L188.31 21.35Q188.31 21.49 188.24 21.64Q188.18 21.79 188.02 21.84L188.02 21.84Q187.25 22.08 186.41 22.25Q185.57 22.42 184.65 22.42L184.65 22.42Q183.94 22.42 183.59 22.16Q183.25 21.90 183.13 21.56Q183.02 21.21 183.02 20.95L183.02 20.95Q183.02 20.77 183.05 20.61Q183.07 20.45 183.09 20.30ZM192.89 22.42L192.89 22.42Q192.21 22.42 191.88 22.18Q191.54 21.95 191.43 21.64Q191.32 21.34 191.32 21.12L191.32 21.12Q191.32 20.67 191.38 20.34L191.38 20.34L192.64 13.07Q192.67 12.96 192.67 12.88Q192.68 12.80 192.68 12.71L192.68 12.71Q192.68 12.19 192.42 12Q192.15 11.81 191.81 11.78Q191.47 11.75 191.21 11.68L191.21 11.68Q191.10 11.63 191.04 11.53Q190.98 11.44 191.00 11.21L191.00 11.21Q191.03 11.07 191.12 10.89Q191.21 10.71 191.36 10.70L191.36 10.70Q192.84 10.61 194.04 10.59Q195.23 10.58 195.87 10.58L195.87 10.58Q195.96 10.58 196.07 10.68Q196.17 10.77 196.15 11.05L196.15 11.05L194.60 20.59Q194.60 20.93 194.81 21.04Q195.01 21.14 195.32 21.14L195.32 21.14Q195.57 21.14 195.88 21.06Q196.18 20.99 196.34 20.99L196.34 20.99Q196.49 20.99 196.55 21.14Q196.62 21.29 196.62 21.48L196.62 21.48Q196.62 21.77 196.34 21.88L196.34 21.88Q195.54 22.13 194.79 22.27Q194.05 22.42 192.89 22.42ZM194.77 8.43L194.77 8.43Q194.03 8.43 193.56 7.97Q193.09 7.51 193.09 6.77L193.09 6.77Q193.09 6.11 193.40 5.58Q193.71 5.05 194.24 4.75Q194.77 4.44 195.36 4.44L195.36 4.44Q196.11 4.44 196.59 4.90Q197.06 5.37 197.06 6.11L197.06 6.11Q197.06 6.75 196.75 7.28Q196.43 7.80 195.91 8.12Q195.39 8.43 194.77 8.43ZM205.73 10.38L205.73 10.38Q207.73 10.38 208.76 11.06Q209.80 11.73 209.80 13.09L209.80 13.09Q209.80 13.84 209.16 14.22Q208.51 14.60 207.69 14.60L207.69 14.60Q207.35 14.60 207.20 14.54Q207.05 14.48 206.94 14.07L206.94 14.07L206.31 11.52Q206.21 11.45 206.01 11.39Q205.80 11.33 205.38 11.33L205.38 11.33Q204.52 11.33 203.81 12.10Q203.11 12.87 202.69 14.31Q202.28 15.76 202.28 17.80L202.28 17.80Q202.28 18.96 202.64 19.66Q203.00 20.37 203.58 20.67Q204.16 20.98 204.82 20.98L204.82 20.98Q205.83 20.98 206.58 20.57Q207.34 20.16 208.00 19.55L208.00 19.55Q208.05 19.48 208.11 19.42Q208.17 19.37 208.25 19.43L208.25 19.43L208.69 19.82Q208.75 19.86 208.75 19.92L208.75 19.92Q208.75 19.98 208.69 20.03Q208.64 20.09 208.62 20.14L208.62 20.14Q207.74 21.22 206.60 21.91Q205.46 22.59 203.80 22.59L203.80 22.59Q201.35 22.59 200.02 21.22Q198.68 19.84 198.68 17.55L198.68 17.55Q198.68 16.03 199.23 14.73Q199.78 13.43 200.76 12.45Q201.74 11.47 203.02 10.93Q204.29 10.38 205.73 10.38Z"/></svg>