<svg xmlns="http://www.w3.org/2000/svg" xmlns:xlink="http://www.w3.org/1999/xlink" width="201.38400000000001" height="42.144"><path fill="black" d="M19.75 16.97Q19.75 19.01 18.70 20.71Q17.64 22.42 15.62 23.50Q13.61 24.58 10.82 24.77L10.82 24.77L9.79 30.55Q9.19 33.89 6.53 33.89L6.53 33.89Q5.06 33.89 3.83 33.02Q2.59 32.16 1.85 30.38Q1.10 28.61 1.10 26.02L1.10 26.02Q1.10 21.14 2.68 17.75Q4.25 14.35 6.90 12.66Q9.55 10.97 12.74 10.97L12.74 10.97Q15 10.97 16.57 11.76Q18.14 12.55 18.95 13.91Q19.75 15.26 19.75 16.97L19.75 16.97ZM11.26 22.30Q16.18 21.67 16.18 17.18L16.18 17.18Q16.18 15.60 15.13 14.60Q14.09 13.61 11.90 13.61L11.90 13.61Q9.43 13.61 7.60 15.17Q5.76 16.73 4.76 19.50Q3.77 22.27 3.77 25.82L3.77 25.82Q3.77 27.31 4.07 28.46Q4.37 29.62 4.84 30.25Q5.30 30.89 5.74 30.89L5.74 30.89Q6.34 30.89 6.65 29.23L6.65 29.23L7.44 24.70Q6.50 24.55 6.62 24.58L6.62 24.58Q5.90 24.46 5.69 24.13Q5.47 23.81 5.47 23.30L5.47 23.30Q5.47 22.78 5.77 22.46Q6.07 22.15 6.60 22.15L6.60 22.15Q6.84 22.15 6.96 22.18L6.96 22.18Q7.54 22.27 7.85 22.30L7.85 22.30Q8.16 20.42 8.74 17.28L8.74 17.28Q8.88 16.46 9.40 16.12Q9.91 15.77 10.61 15.77L10.61 15.77Q11.40 15.77 11.75 16.07Q12.10 16.37 12.10 17.02L12.10 17.02Q12.10 17.40 12.05 17.64L12.05 17.64L11.26 22.30ZM21.38 31.39Q19.90 31.39 19.01 30.31Q18.12 29.23 18.12 27.48L18.12 27.48Q18.12 25.56 19.01 23.84Q19.90 22.13 21.37 21.08Q22.85 20.04 24.50 20.04L24.50 20.04Q25.03 20.04 25.21 20.24Q25.39 20.45 25.51 20.98L25.51 20.98Q26.02 20.88 26.57 20.88L26.57 20.88Q27.74 20.88 27.74 21.72L27.74 21.72Q27.74 22.22 27.38 24.12L27.38 24.12Q26.83 26.88 26.83 27.96L26.83 27.96Q26.83 28.32 27.01 28.54Q27.19 28.75 27.48 28.75L27.48 28.75Q27.94 28.75 28.58 28.16Q29.23 27.58 30.34 26.26L30.34 26.26Q30.62 25.92 30.98 25.92L30.98 25.92Q31.30 25.92 31.48 26.21Q31.66 26.50 31.66 27L31.66 27Q31.66 27.96 31.20 28.49L31.20 28.49Q30.22 29.71 29.11 30.55Q28.01 31.39 26.98 31.39L26.98 31.39Q26.18 31.39 25.52 30.85Q24.86 30.31 24.53 29.38L24.53 29.38Q23.28 31.39 21.38 31.39L21.38 31.39ZM22.25 28.97Q22.78 28.97 23.26 28.34Q23.74 27.72 23.95 26.69L23.95 26.69L24.84 22.27Q23.83 22.30 22.98 23.03Q22.13 23.76 21.62 24.96Q21.12 26.16 21.12 27.50L21.12 27.50Q21.12 28.25 21.42 28.61Q21.72 28.97 22.25 28.97L22.25 28.97ZM34.30 31.39Q31.94 31.39 30.64 30.06Q29.33 28.73 29.33 26.54L29.33 26.54Q29.33 24.60 30.10 23.14Q30.86 21.67 32.09 20.88Q33.31 20.09 34.66 20.09L34.66 20.09Q35.98 20.09 36.71 20.87Q37.44 21.65 37.44 22.87L37.44 22.87Q37.44 23.88 37.00 24.58Q36.55 25.27 35.83 25.27L35.83 25.27Q35.38 25.27 35.10 25.06Q34.82 24.84 34.82 24.46L34.82 24.46Q34.82 24.29 34.87 24.07Q34.92 23.86 34.94 23.76L34.94 23.76Q35.06 23.40 35.06 23.09L35.06 23.09Q35.06 22.78 34.91 22.61Q34.75 22.44 34.46 22.44L34.46 22.44Q33.91 22.44 33.43 22.93Q32.95 23.42 32.66 24.26Q32.38 25.10 32.38 26.11L32.38 26.11Q32.38 28.90 34.80 28.90L34.80 28.90Q35.78 28.90 36.92 28.24Q38.06 27.58 39.17 26.26L39.17 26.26Q39.46 25.92 39.82 25.92L39.82 25.92Q40.13 25.92 40.31 26.21Q40.49 26.50 40.49 27L40.49 27Q40.49 27.91 40.03 28.49L40.03 28.49Q38.90 29.88 37.33 30.64Q35.76 31.39 34.30 31.39L34.30 31.39ZM41.69 18.50Q40.68 18.50 40.18 18.04Q39.67 17.57 39.67 16.73L39.67 16.73Q39.67 15.89 40.33 15.32Q40.99 14.76 41.98 14.76L41.98 14.76Q42.86 14.76 43.42 15.19Q43.97 15.62 43.97 16.42L43.97 16.42Q43.97 17.38 43.34 17.94Q42.72 18.50 41.69 18.50L41.69 18.50ZM41.50 31.39Q39.94 31.39 39.23 30.29Q38.52 29.18 38.52 27.36L38.52 27.36Q38.52 26.28 38.80 24.59Q39.07 22.90 39.50 21.43L39.50 21.43Q39.72 20.66 40.08 20.38Q40.44 20.09 41.23 20.09L41.23 20.09Q42.46 20.09 42.46 20.90L42.46 20.90Q42.46 21.50 42 23.69L42 23.69Q41.42 26.33 41.42 27.26L41.42 27.26Q41.42 27.98 41.62 28.37Q41.81 28.75 42.26 28.75L42.26 28.75Q42.70 28.75 43.34 28.15Q43.99 27.55 45.07 26.26L45.07 26.26Q45.36 25.92 45.72 25.92L45.72 25.92Q46.03 25.92 46.21 26.21Q46.39 26.50 46.39 27L46.39 27Q46.39 27.96 45.94 28.49L45.94 28.49Q43.56 31.39 41.50 31.39L41.50 31.39ZM53.78 24.55Q54.46 24.55 54.46 25.56L54.46 25.56Q54.46 27.46 51.48 27.46L51.48 27.46Q50.90 27.46 49.82 27.24L49.82 27.24Q50.14 28.73 50.34 30.54Q50.54 32.35 50.54 33.53L50.54 33.53Q50.54 36.12 49.70 37.49Q48.86 38.86 47.50 38.86L47.50 38.86Q45.77 38.86 45.04 36.41Q44.30 33.96 44.30 29.02L44.30 29.02Q44.30 24.41 45.30 19.67Q46.30 14.93 48.04 11.82Q49.78 8.71 51.86 8.71L51.86 8.71Q52.99 8.71 53.63 9.72Q54.26 10.73 54.26 12.43L54.26 12.43Q54.26 18.07 47.52 24.72L47.52 24.72Q47.28 27.07 47.28 28.85L47.28 28.85Q47.28 31.32 47.45 33.92Q47.62 36.53 48.00 36.53L48.00 36.53Q48.72 36.53 48.72 34.03L48.72 34.03Q48.72 32.16 48.47 30.41Q48.22 28.66 47.78 26.71L47.78 26.71Q47.76 26.40 47.99 25.92Q48.22 25.44 48.55 25.08Q48.89 24.72 49.15 24.72L49.15 24.72Q49.63 24.72 50.30 24.77L50.30 24.77Q50.52 24.79 50.81 24.79L50.81 24.79Q51.77 24.79 52.94 24.62L52.94 24.62Q53.14 24.60 53.35 24.58Q53.57 24.55 53.78 24.55L53.78 24.55ZM51.36 11.09Q50.93 11.09 50.29 12.55Q49.66 14.02 49.03 16.43Q48.41 18.84 47.95 21.53L47.95 21.53Q49.87 19.34 50.90 16.98Q51.94 14.62 51.96 12.55L51.96 12.55Q51.96 11.09 51.36 11.09L51.36 11.09ZM55.78 18.50Q54.77 18.50 54.26 18.04Q53.76 17.57 53.76 16.73L53.76 16.73Q53.76 15.89 54.42 15.32Q55.08 14.76 56.06 14.76L56.06 14.76Q56.95 14.76 57.50 15.19Q58.06 15.62 58.06 16.42L58.06 16.42Q58.06 17.38 57.43 17.94Q56.81 18.50 55.78 18.50L55.78 18.50ZM55.58 31.39Q54.02 31.39 53.32 30.29Q52.61 29.18 52.61 27.36L52.61 27.36Q52.61 26.28 52.88 24.59Q53.16 22.90 53.59 21.43L53.59 21.43Q53.81 20.66 54.17 20.38Q54.53 20.09 55.32 20.09L55.32 20.09Q56.54 20.09 56.54 20.90L56.54 20.90Q56.54 21.50 56.09 23.69L56.09 23.69Q55.51 26.33 55.51 27.26L55.51 27.26Q55.51 27.98 55.70 28.37Q55.90 28.75 56.35 28.75L56.35 28.75Q56.78 28.75 57.43 28.15Q58.08 27.55 59.16 26.26L59.16 26.26Q59.45 25.92 59.81 25.92L59.81 25.92Q60.12 25.92 60.30 26.21Q60.48 26.50 60.48 27L60.48 27Q60.48 27.96 60.02 28.49L60.02 28.49Q57.65 31.39 55.58 31.39L55.58 31.39ZM63.12 31.39Q60.77 31.39 59.46 30.06Q58.15 28.73 58.15 26.54L58.15 26.54Q58.15 24.60 58.92 23.14Q59.69 21.67 60.91 20.88Q62.14 20.09 63.48 20.09L63.48 20.09Q64.80 20.09 65.53 20.87Q66.26 21.65 66.26 22.87L66.26 22.87Q66.26 23.88 65.82 24.58Q65.38 25.27 64.66 25.27L64.66 25.27Q64.20 25.27 63.92 25.06Q63.65 24.84 63.65 24.46L63.65 24.46Q63.65 24.29 63.70 24.07Q63.74 23.86 63.77 23.76L63.77 23.76Q63.89 23.40 63.89 23.09L63.89 23.09Q63.89 22.78 63.73 22.61Q63.58 22.44 63.29 22.44L63.29 22.44Q62.74 22.44 62.26 22.93Q61.78 23.42 61.49 24.26Q61.20 25.10 61.20 26.11L61.20 26.11Q61.20 28.90 63.62 28.90L63.62 28.90Q64.61 28.90 65.75 28.24Q66.89 27.58 67.99 26.26L67.99 26.26Q68.28 25.92 68.64 25.92L68.64 25.92Q68.95 25.92 69.13 26.21Q69.31 26.50 69.31 27L69.31 27Q69.31 27.91 68.86 28.49L68.86 28.49Q67.73 29.88 66.16 30.64Q64.58 31.39 63.12 31.39L63.12 31.39ZM79.61 23.90Q79.92 23.90 80.09 24.22Q80.26 24.53 80.26 25.01L80.26 25.01Q80.26 26.16 79.56 26.38L79.56 26.38Q78.12 26.88 76.39 26.95L76.39 26.95Q75.94 28.97 74.59 30.18Q73.25 31.39 71.54 31.39L71.54 31.39Q70.10 31.39 69.08 30.70Q68.06 30.00 67.54 28.85Q67.01 27.70 67.01 26.35L67.01 26.35Q67.01 24.53 67.70 23.10Q68.40 21.67 69.62 20.87Q70.85 20.06 72.34 20.06L72.34 20.06Q74.16 20.06 75.28 21.32Q76.39 22.58 76.58 24.43L76.58 24.43Q77.71 24.36 79.27 23.95L79.27 23.95Q79.46 23.90 79.61 23.90L79.61 23.90ZM71.74 28.85Q72.50 28.85 73.07 28.22Q73.63 27.60 73.82 26.42L73.82 26.42Q73.08 25.92 72.68 25.10Q72.29 24.29 72.29 23.38L72.29 23.38Q72.29 22.99 72.36 22.61L72.36 22.61L72.24 22.61Q71.28 22.61 70.64 23.53Q70.01 24.46 70.01 26.14L70.01 26.14Q70.01 27.46 70.52 28.15Q71.04 28.85 71.74 28.85L71.74 28.85ZM95.38 25.87Q96.65 25.87 96.65 26.95L96.65 26.95Q96.65 27.82 96.17 28.15Q95.69 28.49 94.66 28.49L94.66 28.49L94.15 28.49L94.06 29.76Q93.98 30.86 93.59 31.25Q93.19 31.63 92.30 31.63L92.30 31.63Q91.03 31.63 91.03 30.07L91.03 30.07Q91.03 29.81 91.06 29.66L91.06 29.66L91.18 28.49Q87.70 28.49 85.90 28.46L85.90 28.46Q85.37 28.46 84.96 27.98Q84.55 27.50 84.55 26.74L84.55 26.74Q84.55 26.28 84.72 25.78L84.72 25.78Q85.78 22.70 87.89 18.79L87.89 18.79Q88.34 17.95 88.81 17.60Q89.28 17.26 90.26 17.26L90.26 17.26Q90.79 17.26 91.07 17.50Q91.34 17.74 91.34 18.12L91.34 18.12Q91.34 18.53 91.10 18.94L91.10 18.94Q88.75 23.23 87.79 25.87L87.79 25.87L91.49 25.87Q91.78 23.64 92.28 21.62L92.28 21.62Q92.47 20.88 92.90 20.48Q93.34 20.09 94.10 20.09L94.10 20.09Q95.33 20.09 95.33 21.14L95.33 21.14Q95.33 21.46 95.28 21.62L95.28 21.62Q94.85 23.66 94.51 25.87L94.51 25.87L95.38 25.87ZM103.39 31.39Q101.04 31.39 99.76 29.86Q98.47 28.32 98.47 25.46L98.47 25.46Q98.47 23.04 99.23 21.18Q99.98 19.32 101.34 18.29Q102.70 17.26 104.50 17.26L104.50 17.26Q106.85 17.26 108.13 18.79Q109.42 20.33 109.42 23.18L109.42 23.18Q109.42 25.61 108.66 27.47Q107.90 29.33 106.55 30.36Q105.19 31.39 103.39 31.39L103.39 31.39ZM103.63 28.70Q104.93 28.70 105.67 27.26Q106.42 25.82 106.42 23.35L106.42 23.35Q106.42 21.70 105.86 20.82Q105.31 19.94 104.26 19.94L104.26 19.94Q102.96 19.94 102.22 21.40Q101.47 22.85 101.47 25.32L101.47 25.32Q101.47 26.98 102.01 27.84Q102.55 28.70 103.63 28.70L103.63 28.70ZM116.42 31.39Q114.07 31.39 112.79 29.86Q111.50 28.32 111.50 25.46L111.50 25.46Q111.50 23.04 112.26 21.18Q113.02 19.32 114.37 18.29Q115.73 17.26 117.53 17.26L117.53 17.26Q119.88 17.26 121.16 18.79Q122.45 20.33 122.45 23.18L122.45 23.18Q122.45 25.61 121.69 27.47Q120.94 29.33 119.58 30.36Q118.22 31.39 116.42 31.39L116.42 31.39ZM116.66 28.70Q117.96 28.70 118.70 27.26Q119.45 25.82 119.45 23.35L119.45 23.35Q119.45 21.70 118.90 20.82Q118.34 19.94 117.29 19.94L117.29 19.94Q115.99 19.94 115.25 21.40Q114.50 22.85 114.50 25.32L114.50 25.32Q114.50 26.98 115.04 27.84Q115.58 28.70 116.66 28.70L116.66 28.70ZM132.53 31.39Q131.62 31.39 131.24 30.43Q130.87 29.47 130.87 27.36L130.87 27.36Q130.87 24.24 131.76 21.43L131.76 21.43Q131.98 20.74 132.47 20.41Q132.96 20.09 133.85 20.09L133.85 20.09Q134.33 20.09 134.52 20.21Q134.71 20.33 134.71 20.66L134.71 20.66Q134.71 21.05 134.35 22.39L134.35 22.39Q134.11 23.35 133.97 24.07Q133.82 24.79 133.73 25.85L133.73 25.85Q134.52 23.78 135.50 22.49Q136.49 21.19 137.44 20.64Q138.38 20.09 139.18 20.09L139.18 20.09Q140.74 20.09 140.74 21.65L140.74 21.65Q140.74 22.58 140.21 25.03L140.21 25.03Q139.75 27.12 139.75 27.79L139.75 27.79Q139.75 28.75 140.45 28.75L140.45 28.75Q140.93 28.75 141.59 28.16Q142.25 27.58 143.35 26.26L143.35 26.26Q143.64 25.92 144 25.92L144 25.92Q144.31 25.92 144.49 26.21Q144.67 26.50 144.67 27L144.67 27Q144.67 27.96 144.22 28.49L144.22 28.49Q143.18 29.76 142.00 30.58Q140.81 31.39 139.30 31.39L139.30 31.39Q138.07 31.39 137.45 30.68Q136.82 29.98 136.82 28.63L136.82 28.63Q136.82 27.96 137.16 26.23L137.16 26.23Q137.47 24.72 137.47 24.14L137.47 24.14Q137.47 23.76 137.21 23.76L137.21 23.76Q136.90 23.76 136.33 24.56Q135.77 25.37 135.18 26.69Q134.59 28.01 134.23 29.47L134.23 29.47Q133.97 30.60 133.62 31.00Q133.27 31.39 132.53 31.39L132.53 31.39ZM154.97 23.90Q155.28 23.90 155.45 24.22Q155.62 24.53 155.62 25.01L155.62 25.01Q155.62 26.16 154.92 26.38L154.92 26.38Q153.48 26.88 151.75 26.95L151.75 26.95Q151.30 28.97 149.95 30.18Q148.61 31.39 146.90 31.39L146.90 31.39Q145.46 31.39 144.44 30.70Q143.42 30.00 142.90 28.85Q142.37 27.70 142.37 26.35L142.37 26.35Q142.37 24.53 143.06 23.10Q143.76 21.67 144.98 20.87Q146.21 20.06 147.70 20.06L147.70 20.06Q149.52 20.06 150.64 21.32Q151.75 22.58 151.94 24.43L151.94 24.43Q153.07 24.36 154.63 23.95L154.63 23.95Q154.82 23.90 154.97 23.90L154.97 23.90ZM147.10 28.85Q147.86 28.85 148.43 28.22Q148.99 27.60 149.18 26.42L149.18 26.42Q148.44 25.92 148.04 25.10Q147.65 24.29 147.65 23.38L147.65 23.38Q147.65 22.99 147.72 22.61L147.72 22.61L147.60 22.61Q146.64 22.61 146.00 23.53Q145.37 24.46 145.37 26.14L145.37 26.14Q145.37 27.46 145.88 28.15Q146.40 28.85 147.10 28.85L147.10 28.85ZM155.26 31.39Q154.34 31.39 153.97 30.43Q153.60 29.47 153.60 27.36L153.60 27.36Q153.60 24.24 154.49 21.43L154.49 21.43Q154.70 20.74 155.20 20.41Q155.69 20.09 156.58 20.09L156.58 20.09Q157.06 20.09 157.25 20.21Q157.44 20.33 157.44 20.66L157.44 20.66Q157.44 21.05 157.08 22.39L157.08 22.39Q156.84 23.35 156.70 24.07Q156.55 24.79 156.46 25.85L156.46 25.85Q157.25 23.78 158.23 22.49Q159.22 21.19 160.16 20.64Q161.11 20.09 161.90 20.09L161.90 20.09Q163.46 20.09 163.46 21.65L163.46 21.65Q163.46 21.96 163.25 23.16L163.25 23.16Q163.06 24.12 163.06 24.36L163.06 24.36Q163.06 25.20 163.66 25.20L163.66 25.20Q164.33 25.20 165.38 24.14L165.38 24.14Q165.70 23.83 166.03 23.83L166.03 23.83Q166.34 23.83 166.52 24.11Q166.70 24.38 166.70 24.84L166.70 24.84Q166.70 25.73 166.22 26.23L166.22 26.23Q165.55 26.93 164.65 27.42Q163.75 27.91 162.74 27.91L162.74 27.91Q161.47 27.91 160.81 27.26Q160.15 26.62 160.15 25.51L160.15 25.51Q160.15 25.15 160.22 24.79L160.22 24.79Q160.27 24.31 160.27 24.14L160.27 24.14Q160.27 23.76 160.01 23.76L160.01 23.76Q159.65 23.76 159.06 24.56Q158.47 25.37 157.90 26.69Q157.32 28.01 156.96 29.47L156.96 29.47Q156.70 30.60 156.35 31.00Q156 31.39 155.26 31.39L155.26 31.39ZM166.18 31.39Q165.26 31.39 164.89 30.43Q164.52 29.47 164.52 27.36L164.52 27.36Q164.52 24.24 165.41 21.43L165.41 21.43Q165.62 20.74 166.12 20.41Q166.61 20.09 167.50 20.09L167.50 20.09Q167.98 20.09 168.17 20.21Q168.36 20.33 168.36 20.66L168.36 20.66Q168.36 21.05 168 22.39L168 22.39Q167.76 23.35 167.62 24.06Q167.47 24.77 167.38 25.82L167.38 25.82Q168.02 23.95 168.92 22.66Q169.82 21.36 170.77 20.72Q171.72 20.09 172.56 20.09L172.56 20.09Q173.40 20.09 173.75 20.47Q174.10 20.86 174.10 21.65L174.10 21.65Q174.10 22.42 173.64 24.43L173.64 24.43Q173.45 25.30 173.38 25.73L173.38 25.73Q174.58 22.78 176.04 21.43Q177.50 20.09 178.78 20.09L178.78 20.09Q180.34 20.09 180.34 21.65L180.34 21.65Q180.34 22.58 179.81 25.03L179.81 25.03Q179.35 27.12 179.35 27.79L179.35 27.79Q179.35 28.75 180.05 28.75L180.05 28.75Q180.53 28.75 181.19 28.16Q181.85 27.58 182.95 26.26L182.95 26.26Q183.24 25.92 183.60 25.92L183.60 25.92Q183.91 25.92 184.09 26.21Q184.27 26.50 184.27 27L184.27 27Q184.27 27.96 183.82 28.49L183.82 28.49Q182.78 29.76 181.60 30.58Q180.41 31.39 178.90 31.39L178.90 31.39Q177.67 31.39 177.05 30.68Q176.42 29.98 176.42 28.63L176.42 28.63Q176.42 27.96 176.76 26.23L176.76 26.23Q177.07 24.72 177.07 24.14L177.07 24.14Q177.07 23.76 176.81 23.76L176.81 23.76Q176.50 23.76 175.92 24.56Q175.34 25.37 174.77 26.69Q174.19 28.01 173.83 29.47L173.83 29.47Q173.57 30.62 173.22 31.01Q172.87 31.39 172.10 31.39L172.10 31.39Q171.31 31.39 170.92 30.64Q170.52 29.88 170.52 28.80L170.52 28.80Q170.52 27.89 170.76 26.16L170.76 26.16Q170.95 24.62 170.95 24.14L170.95 24.14Q170.95 23.76 170.69 23.76L170.69 23.76Q170.33 23.76 169.78 24.62Q169.22 25.49 168.71 26.83Q168.19 28.18 167.88 29.47L167.88 29.47Q167.62 30.60 167.27 31.00Q166.92 31.39 166.18 31.39L166.18 31.39ZM185.28 31.39Q183.79 31.39 182.90 30.31Q182.02 29.23 182.02 27.48L182.02 27.48Q182.02 25.56 182.90 23.84Q183.79 22.13 185.27 21.08Q186.74 20.04 188.40 20.04L188.40 20.04Q188.93 20.04 189.11 20.24Q189.29 20.45 189.41 20.98L189.41 20.98Q189.91 20.88 190.46 20.88L190.46 20.88Q191.64 20.88 191.64 21.72L191.64 21.72Q191.64 22.22 191.28 24.12L191.28 24.12Q190.73 26.88 190.73 27.96L190.73 27.96Q190.73 28.32 190.91 28.54Q191.09 28.75 191.38 28.75L191.38 28.75Q191.83 28.75 192.48 28.16Q193.13 27.58 194.23 26.26L194.23 26.26Q194.52 25.92 194.88 25.92L194.88 25.92Q195.19 25.92 195.37 26.21Q195.55 26.50 195.55 27L195.55 27Q195.55 27.96 195.10 28.49L195.10 28.49Q194.11 29.71 193.01 30.55Q191.90 31.39 190.87 31.39L190.87 31.39Q190.08 31.39 189.42 30.85Q188.76 30.31 188.42 29.38L188.42 29.38Q187.18 31.39 185.28 31.39L185.28 31.39ZM186.14 28.97Q186.67 28.97 187.15 28.34Q187.63 27.72 187.85 26.69L187.85 26.69L188.74 22.27Q187.73 22.30 186.88 23.03Q186.02 23.76 185.52 24.96Q185.02 26.16 185.02 27.50L185.02 27.50Q185.02 28.25 185.32 28.61Q185.62 28.97 186.14 28.97L186.14 28.97ZM202.70 25.92Q203.02 25.92 203.20 26.21Q203.38 26.50 203.38 27L203.38 27Q203.38 27.96 202.92 28.49L202.92 28.49Q201.89 29.76 200.68 30.58Q199.46 31.39 197.93 31.39L197.93 31.39Q195.82 31.39 194.80 29.47Q193.78 27.55 193.78 24.50L193.78 24.50Q193.78 21.58 194.53 17.83Q195.29 14.09 196.76 11.40Q198.24 8.71 200.28 8.71L200.28 8.71Q201.43 8.71 202.09 9.78Q202.75 10.85 202.75 12.84L202.75 12.84Q202.75 15.70 201.17 19.46Q199.58 23.23 196.87 26.93L196.87 26.93Q197.04 27.91 197.42 28.33Q197.81 28.75 198.43 28.75L198.43 28.75Q199.42 28.75 200.16 28.19Q200.90 27.62 202.06 26.26L202.06 26.26Q202.34 25.92 202.70 25.92L202.70 25.92ZM199.75 11.09Q199.20 11.09 198.50 13.08Q197.81 15.07 197.28 18.02Q196.75 20.98 196.70 23.69L196.70 23.69Q198.41 20.88 199.42 18.06Q200.42 15.24 200.42 12.91L200.42 12.91Q200.42 11.09 199.75 11.09L199.75 11.09Z"/></svg>