<svg xmlns="http://www.w3.org/2000/svg" xmlns:xlink="http://www.w3.org/1999/xlink" width="387.264" height="30"><path fill="black" d="M2.94 15.98L2.94 23.93L11.74 23.93L11.74 24.72L2.12 24.72L2.12 6.96L11.62 6.96L11.62 7.75L2.94 7.75L2.94 15.19L10.51 15.19L10.51 15.98L2.94 15.98ZM14.26 24.72L14.26 11.76L14.98 11.76L15.05 13.27L15.14 13.27Q15.91 12.46 16.91 12.01Q17.90 11.57 19.03 11.57L19.03 11.57Q22.74 11.57 22.74 15.64L22.74 15.64L22.74 24.72L21.92 24.72L21.92 15.65Q21.92 13.88 21.17 13.12Q20.41 12.36 19.00 12.36L19.00 12.36Q17.94 12.36 16.86 12.88Q15.78 13.39 15.07 14.50L15.07 14.50L15.07 24.72L14.26 24.72ZM30.52 24.94Q28.10 24.94 26.88 23.36Q25.66 21.78 25.66 18.24L25.66 18.24Q25.66 15.84 26.27 14.37Q26.88 12.90 28.07 12.23Q29.27 11.57 31.07 11.57L31.07 11.57Q32.33 11.57 33.36 11.87L33.36 11.87L33.36 12.68Q32.18 12.36 31.10 12.36L31.10 12.36Q29.51 12.36 28.51 12.91Q27.52 13.45 27.02 14.72Q26.52 16.00 26.52 18.19L26.52 18.19Q26.52 20.40 26.98 21.71Q27.43 23.02 28.33 23.58Q29.22 24.14 30.61 24.14L30.61 24.14Q31.84 24.14 33.36 23.59L33.36 23.59L33.36 24.41Q31.94 24.94 30.52 24.94L30.52 24.94ZM39.43 24.94Q37.19 24.94 35.94 23.33Q34.69 21.72 34.69 18.24L34.69 18.24Q34.69 14.76 35.93 13.16Q37.18 11.57 39.43 11.57L39.43 11.57Q44.16 11.57 44.16 18.24L44.16 18.24Q44.16 21.72 42.92 23.33Q41.68 24.94 39.43 24.94L39.43 24.94ZM39.43 24.14Q41.32 24.14 42.31 22.80Q43.30 21.46 43.30 18.28L43.30 18.28Q43.30 16.08 42.83 14.77Q42.37 13.46 41.52 12.91Q40.67 12.36 39.43 12.36L39.43 12.36Q37.55 12.36 36.55 13.69Q35.56 15.02 35.56 18.19L35.56 18.19Q35.56 21.43 36.55 22.79Q37.55 24.14 39.43 24.14L39.43 24.14ZM51.16 24.94Q49.04 24.94 47.78 23.43Q46.51 21.92 46.51 18.50L46.51 18.50Q46.51 14.95 48.01 13.26Q49.50 11.57 52.39 11.57L52.39 11.57Q53.42 11.57 54.55 11.74L54.55 11.74L54.55 5.33L55.37 5.33L55.37 24.72L54.65 24.72L54.58 23.36L54.48 23.36Q53.93 24.06 53.06 24.50Q52.20 24.94 51.16 24.94L51.16 24.94ZM51.18 24.14Q52.19 24.14 53.10 23.64Q54.01 23.14 54.55 22.16L54.55 22.16L54.55 12.58Q54.12 12.48 53.51 12.42Q52.91 12.36 52.36 12.36L52.36 12.36Q49.86 12.36 48.62 13.79Q47.38 15.23 47.38 18.41L47.38 18.41Q47.38 20.59 47.86 21.86Q48.34 23.12 49.17 23.63Q50.00 24.14 51.18 24.14L51.18 24.14ZM67.25 18.24L67.25 18.60L59.29 18.60Q59.33 20.63 59.84 21.85Q60.35 23.08 61.31 23.61Q62.27 24.14 63.71 24.14L63.71 24.14Q64.96 24.14 66.66 23.59L66.66 23.59L66.66 24.41Q65.15 24.94 63.66 24.94L63.66 24.94Q61.06 24.94 59.74 23.36Q58.43 21.79 58.43 18.24L58.43 18.24Q58.43 14.77 59.63 13.17Q60.83 11.57 62.93 11.57L62.93 11.57Q65.02 11.57 66.13 13.15Q67.25 14.72 67.25 18.24L67.25 18.24ZM62.93 12.36Q61.25 12.36 60.29 13.61Q59.34 14.87 59.29 17.81L59.29 17.81L66.38 17.81Q66.34 14.86 65.45 13.61Q64.57 12.36 62.93 12.36L62.93 12.36ZM78.43 24.94Q77.56 24.94 76.58 24.77Q75.61 24.61 74.72 24.29L74.72 24.29L74.72 23.47Q76.69 24.14 78.49 24.14L78.49 24.14Q80.77 24.14 81.94 23.15Q83.10 22.16 83.10 20.22L83.10 20.22Q83.10 19.12 82.72 18.38Q82.33 17.64 81.52 17.14Q80.70 16.63 79.32 16.21L79.32 16.21L78.64 16.01Q76.56 15.38 75.55 14.26Q74.54 13.13 74.54 11.33L74.54 11.33Q74.54 9.90 75.16 8.87Q75.78 7.85 77.00 7.30Q78.22 6.74 79.98 6.74L79.98 6.74Q80.83 6.74 81.71 6.86Q82.60 6.98 83.29 7.22L83.29 7.22L83.29 8.04Q81.68 7.54 79.93 7.54L79.93 7.54Q77.68 7.54 76.54 8.50Q75.41 9.46 75.41 11.28L75.41 11.28Q75.41 12.35 75.77 13.07Q76.13 13.80 76.91 14.30Q77.69 14.81 79.01 15.22L79.01 15.22L79.69 15.42Q81.88 16.07 82.92 17.21Q83.96 18.35 83.96 20.18L83.96 20.18Q83.96 22.48 82.53 23.71Q81.10 24.94 78.43 24.94L78.43 24.94ZM90.10 11.57Q91.48 11.57 92.39 11.96Q93.30 12.36 93.78 13.27Q94.26 14.18 94.26 15.72L94.26 15.72L94.26 24.72L93.54 24.72L93.47 23.22L93.37 23.22Q92.75 24.04 91.80 24.47Q90.85 24.91 89.74 24.91L89.74 24.91Q88.09 24.91 87.12 24.02Q86.15 23.14 86.15 21.52L86.15 21.52Q86.15 19.87 87.16 18.96Q88.16 18.05 90.28 17.82L90.28 17.82L93.44 17.44L93.44 15.71Q93.44 14.41 93.06 13.68Q92.68 12.95 91.95 12.65Q91.22 12.36 90.08 12.36L90.08 12.36Q89.35 12.36 88.50 12.50Q87.65 12.65 86.82 12.94L86.82 12.94L86.82 12.12Q87.50 11.86 88.39 11.71Q89.28 11.57 90.10 11.57L90.10 11.57ZM89.80 24.12Q90.82 24.12 91.77 23.63Q92.72 23.15 93.44 22.07L93.44 22.07L93.44 18.24L90.25 18.61Q88.58 18.79 87.81 19.48Q87.04 20.17 87.04 21.43L87.04 21.43Q87.04 22.78 87.74 23.45Q88.44 24.12 89.80 24.12L89.80 24.12ZM97.88 24.72L97.88 11.76L98.60 11.76L98.68 13.27L98.77 13.27Q99.54 12.46 100.54 12.01Q101.53 11.57 102.66 11.57L102.66 11.57Q106.37 11.57 106.37 15.64L106.37 15.64L106.37 24.72L105.55 24.72L105.55 15.65Q105.55 13.88 104.80 13.12Q104.04 12.36 102.62 12.36L102.62 12.36Q101.57 12.36 100.49 12.88Q99.41 13.39 98.70 14.50L98.70 14.50L98.70 24.72L97.88 24.72ZM112.38 24.94Q110.78 24.94 109.39 24.46L109.39 24.46L109.39 23.64Q110.26 23.90 110.97 24.02Q111.68 24.14 112.40 24.14L112.40 24.14Q114.12 24.14 115.00 23.45Q115.88 22.75 115.88 21.43L115.88 21.43Q115.88 20.29 115.33 19.69Q114.77 19.08 113.54 18.78L113.54 18.78L112.22 18.46Q110.59 18.02 109.89 17.20Q109.19 16.38 109.19 15.06L109.19 15.06Q109.19 14.05 109.68 13.26Q110.17 12.47 111.15 12.02Q112.13 11.57 113.52 11.57L113.52 11.57Q114.84 11.57 116.09 11.88L116.09 11.88L116.09 12.70Q115.38 12.52 114.79 12.44Q114.20 12.36 113.52 12.36L113.52 12.36Q111.78 12.36 110.91 13.09Q110.04 13.82 110.04 15.02L110.04 15.02Q110.04 16.04 110.57 16.67Q111.10 17.29 112.28 17.59L112.28 17.59L113.62 17.92Q115.32 18.35 116.02 19.18Q116.72 20.02 116.72 21.37L116.72 21.37Q116.72 23.05 115.60 23.99Q114.48 24.94 112.38 24.94L112.38 24.94ZM127.78 24.94Q126.90 24.94 125.93 24.77Q124.96 24.61 124.07 24.29L124.07 24.29L124.07 23.47Q126.04 24.14 127.84 24.14L127.84 24.14Q130.12 24.14 131.28 23.15Q132.44 22.16 132.44 20.22L132.44 20.22Q132.44 19.12 132.06 18.38Q131.68 17.64 130.86 17.14Q130.04 16.63 128.66 16.21L128.66 16.21L127.98 16.01Q125.90 15.38 124.90 14.26Q123.89 13.13 123.89 11.33L123.89 11.33Q123.89 9.90 124.51 8.87Q125.12 7.85 126.34 7.30Q127.56 6.74 129.32 6.74L129.32 6.74Q130.18 6.74 131.06 6.86Q131.94 6.98 132.64 7.22L132.64 7.22L132.64 8.04Q131.03 7.54 129.28 7.54L129.28 7.54Q127.02 7.54 125.89 8.50Q124.75 9.46 124.75 11.28L124.75 11.28Q124.75 12.35 125.11 13.07Q125.47 13.80 126.25 14.30Q127.03 14.81 128.35 15.22L128.35 15.22L129.04 15.42Q131.22 16.07 132.26 17.21Q133.31 18.35 133.31 20.18L133.31 20.18Q133.31 22.48 131.87 23.71Q130.44 24.94 127.78 24.94L127.78 24.94ZM144.48 18.24L144.48 18.60L136.52 18.60Q136.56 20.63 137.07 21.85Q137.58 23.08 138.54 23.61Q139.50 24.14 140.94 24.14L140.94 24.14Q142.19 24.14 143.89 23.59L143.89 23.59L143.89 24.41Q142.38 24.94 140.89 24.94L140.89 24.94Q138.29 24.94 136.97 23.36Q135.66 21.79 135.66 18.24L135.66 18.24Q135.66 14.77 136.86 13.17Q138.06 11.57 140.16 11.57L140.16 11.57Q142.25 11.57 143.36 13.15Q144.48 14.72 144.48 18.24L144.48 18.24ZM140.16 12.36Q138.48 12.36 137.53 13.61Q136.57 14.87 136.52 17.81L136.52 17.81L143.62 17.81Q143.57 14.86 142.69 13.61Q141.80 12.36 140.16 12.36L140.16 12.36ZM158.77 11.57Q160.37 11.57 161.30 12.53Q162.23 13.49 162.23 15.66L162.23 15.66L162.23 24.72L161.41 24.72L161.41 15.67Q161.41 13.90 160.70 13.13Q159.98 12.36 158.71 12.36L158.71 12.36Q157.78 12.36 156.80 12.87Q155.82 13.38 155.16 14.53L155.16 14.53Q155.23 15.04 155.23 15.66L155.23 15.66L155.23 24.72L154.42 24.72L154.42 15.67Q154.42 13.90 153.72 13.13Q153.02 12.36 151.78 12.36L151.78 12.36Q150.80 12.36 149.82 12.89Q148.84 13.43 148.18 14.57L148.18 14.57L148.18 24.72L147.36 24.72L147.36 11.76L148.08 11.76L148.15 13.30L148.25 13.30Q148.97 12.43 149.90 12.00Q150.84 11.57 151.86 11.57L151.86 11.57Q154.19 11.57 154.91 13.52L154.91 13.52Q155.72 12.48 156.73 12.02Q157.74 11.57 158.77 11.57L158.77 11.57ZM166.67 24.72L165.85 24.72L165.85 11.76L166.67 11.76L166.67 24.72ZM166.26 8.40Q165.94 8.40 165.73 8.20Q165.52 7.99 165.52 7.66L165.52 7.66Q165.52 7.32 165.73 7.10Q165.94 6.89 166.26 6.89L166.26 6.89Q166.58 6.89 166.79 7.10Q167.00 7.32 167.00 7.66L167.00 7.66Q167.00 7.99 166.79 8.20Q166.58 8.40 166.26 8.40L166.26 8.40ZM182.11 24.94Q179.94 24.94 178.42 24.07Q176.90 23.20 176.06 21.19Q175.22 19.19 175.22 15.86L175.22 15.86Q175.22 11.03 177.02 8.89Q178.82 6.74 182.29 6.74L182.29 6.74Q184.04 6.74 185.80 7.26L185.80 7.26L185.80 8.08Q184.90 7.79 184.03 7.66Q183.16 7.54 182.21 7.54L182.21 7.54Q180.18 7.54 178.84 8.33Q177.50 9.12 176.80 10.94Q176.09 12.77 176.09 15.82L176.09 15.82Q176.09 18.94 176.81 20.77Q177.53 22.61 178.84 23.38Q180.16 24.14 182.10 24.14L182.10 24.14Q183.05 24.14 183.91 23.99Q184.78 23.83 185.80 23.47L185.80 23.47L185.80 24.29Q183.97 24.94 182.11 24.94L182.11 24.94ZM191.50 24.94Q189.25 24.94 188.00 23.33Q186.76 21.72 186.76 18.24L186.76 18.24Q186.76 14.76 188.00 13.16Q189.24 11.57 191.50 11.57L191.50 11.57Q196.22 11.57 196.22 18.24L196.22 18.24Q196.22 21.72 194.98 23.33Q193.74 24.94 191.50 24.94L191.50 24.94ZM191.50 24.14Q193.38 24.14 194.37 22.80Q195.36 21.46 195.36 18.28L195.36 18.28Q195.36 16.08 194.90 14.77Q194.44 13.46 193.58 12.91Q192.73 12.36 191.50 12.36L191.50 12.36Q189.61 12.36 188.62 13.69Q187.62 15.02 187.62 18.19L187.62 18.19Q187.62 21.43 188.62 22.79Q189.61 24.14 191.50 24.14L191.50 24.14ZM199.28 24.72L199.28 11.76L200.00 11.76L200.08 13.27L200.17 13.27Q200.94 12.46 201.94 12.01Q202.93 11.57 204.06 11.57L204.06 11.57Q207.77 11.57 207.77 15.64L207.77 15.64L207.77 24.72L206.95 24.72L206.95 15.65Q206.95 13.88 206.20 13.12Q205.44 12.36 204.02 12.36L204.02 12.36Q202.97 12.36 201.89 12.88Q200.81 13.39 200.10 14.50L200.10 14.50L200.10 24.72L199.28 24.72ZM215.33 24.94Q213.22 24.94 211.95 23.43Q210.68 21.92 210.68 18.50L210.68 18.50Q210.68 14.95 212.18 13.26Q213.67 11.57 216.56 11.57L216.56 11.57Q217.60 11.57 218.72 11.74L218.72 11.74L218.72 5.33L219.54 5.33L219.54 24.72L218.82 24.72L218.75 23.36L218.65 23.36Q218.10 24.06 217.24 24.50Q216.37 24.94 215.33 24.94L215.33 24.94ZM215.35 24.14Q216.36 24.14 217.27 23.64Q218.18 23.14 218.72 22.16L218.72 22.16L218.72 12.58Q218.29 12.48 217.69 12.42Q217.08 12.36 216.53 12.36L216.53 12.36Q214.03 12.36 212.79 13.79Q211.55 15.23 211.55 18.41L211.55 18.41Q211.55 20.59 212.03 21.86Q212.51 23.12 213.34 23.63Q214.18 24.14 215.35 24.14L215.35 24.14ZM231.42 18.24L231.42 18.60L223.46 18.60Q223.50 20.63 224.01 21.85Q224.52 23.08 225.48 23.61Q226.44 24.14 227.88 24.14L227.88 24.14Q229.13 24.14 230.83 23.59L230.83 23.59L230.83 24.41Q229.32 24.94 227.83 24.94L227.83 24.94Q225.23 24.94 223.91 23.36Q222.60 21.79 222.60 18.24L222.60 18.24Q222.60 14.77 223.80 13.17Q225.00 11.57 227.10 11.57L227.10 11.57Q229.19 11.57 230.30 13.15Q231.42 14.72 231.42 18.24L231.42 18.24ZM227.10 12.36Q225.42 12.36 224.47 13.61Q223.51 14.87 223.46 17.81L223.46 17.81L230.56 17.81Q230.51 14.86 229.63 13.61Q228.74 12.36 227.10 12.36L227.10 12.36ZM234.30 24.72L234.30 11.76L235.02 11.76L235.09 13.27L235.19 13.27Q235.96 12.46 236.95 12.01Q237.95 11.57 239.08 11.57L239.08 11.57Q242.78 11.57 242.78 15.64L242.78 15.64L242.78 24.72L241.97 24.72L241.97 15.65Q241.97 13.88 241.21 13.12Q240.46 12.36 239.04 12.36L239.04 12.36Q237.98 12.36 236.90 12.88Q235.82 13.39 235.12 14.50L235.12 14.50L235.12 24.72L234.30 24.72ZM248.80 24.94Q247.20 24.94 245.81 24.46L245.81 24.46L245.81 23.64Q246.67 23.90 247.39 24.02Q248.10 24.14 248.82 24.14L248.82 24.14Q250.54 24.14 251.42 23.45Q252.30 22.75 252.30 21.43L252.30 21.43Q252.30 20.29 251.74 19.69Q251.18 19.08 249.96 18.78L249.96 18.78L248.64 18.46Q247.01 18.02 246.31 17.20Q245.60 16.38 245.60 15.06L245.60 15.06Q245.60 14.05 246.10 13.26Q246.59 12.47 247.57 12.02Q248.54 11.57 249.94 11.57L249.94 11.57Q251.26 11.57 252.50 11.88L252.50 11.88L252.50 12.70Q251.80 12.52 251.21 12.44Q250.62 12.36 249.94 12.36L249.94 12.36Q248.20 12.36 247.33 13.09Q246.46 13.82 246.46 15.02L246.46 15.02Q246.46 16.04 246.98 16.67Q247.51 17.29 248.70 17.59L248.70 17.59L250.03 17.92Q251.74 18.35 252.44 19.18Q253.14 20.02 253.14 21.37L253.14 21.37Q253.14 23.05 252.02 23.99Q250.90 24.94 248.80 24.94L248.80 24.94ZM264 18.24L264 18.60L256.04 18.60Q256.08 20.63 256.59 21.85Q257.10 23.08 258.06 23.61Q259.02 24.14 260.46 24.14L260.46 24.14Q261.71 24.14 263.41 23.59L263.41 23.59L263.41 24.41Q261.90 24.94 260.41 24.94L260.41 24.94Q257.81 24.94 256.49 23.36Q255.18 21.79 255.18 18.24L255.18 18.24Q255.18 14.77 256.38 13.17Q257.58 11.57 259.68 11.57L259.68 11.57Q261.77 11.57 262.88 13.15Q264 14.72 264 18.24L264 18.24ZM259.68 12.36Q258 12.36 257.05 13.61Q256.09 14.87 256.04 17.81L256.04 17.81L263.14 17.81Q263.09 14.86 262.21 13.61Q261.32 12.36 259.68 12.36L259.68 12.36ZM270.82 24.94Q268.70 24.94 267.44 23.43Q266.17 21.92 266.17 18.50L266.17 18.50Q266.17 14.95 267.67 13.26Q269.16 11.57 272.05 11.57L272.05 11.57Q273.08 11.57 274.21 11.74L274.21 11.74L274.21 5.33L275.03 5.33L275.03 24.72L274.31 24.72L274.24 23.36L274.14 23.36Q273.59 24.06 272.72 24.50Q271.86 24.94 270.82 24.94L270.82 24.94ZM270.84 24.14Q271.85 24.14 272.76 23.64Q273.67 23.14 274.21 22.16L274.21 22.16L274.21 12.58Q273.78 12.48 273.17 12.42Q272.57 12.36 272.02 12.36L272.02 12.36Q269.52 12.36 268.28 13.79Q267.04 15.23 267.04 18.41L267.04 18.41Q267.04 20.59 267.52 21.86Q268.00 23.12 268.83 23.63Q269.66 24.14 270.84 24.14L270.84 24.14ZM282.55 10.20L286.92 6.91L287.40 6.91L287.40 24.72L286.58 24.72L286.58 8.08L282.55 11.11L282.55 10.20ZM296.35 24.94Q293.80 24.94 292.43 22.81Q291.06 20.69 291.06 15.84L291.06 15.84Q291.06 10.98 292.42 8.86Q293.77 6.74 296.35 6.74L296.35 6.74Q298.92 6.74 300.28 8.86Q301.63 10.98 301.63 15.84L301.63 15.84Q301.63 20.69 300.26 22.81Q298.90 24.94 296.35 24.94L296.35 24.94ZM296.35 24.14Q297.76 24.14 298.73 23.38Q299.70 22.61 300.23 20.79Q300.77 18.97 300.77 15.89L300.77 15.89Q300.77 12.77 300.23 10.92Q299.70 9.07 298.73 8.30Q297.76 7.54 296.35 7.54L296.35 7.54Q294.95 7.54 293.97 8.30Q292.99 9.07 292.46 10.89Q291.92 12.71 291.92 15.79L291.92 15.79Q291.92 18.91 292.46 20.76Q292.99 22.61 293.96 23.38Q294.94 24.14 296.35 24.14L296.35 24.14ZM309.76 24.94Q307.20 24.94 305.83 22.81Q304.46 20.69 304.46 15.84L304.46 15.84Q304.46 10.98 305.82 8.86Q307.18 6.74 309.76 6.74L309.76 6.74Q312.32 6.74 313.68 8.86Q315.04 10.98 315.04 15.84L315.04 15.84Q315.04 20.69 313.67 22.81Q312.30 24.94 309.76 24.94L309.76 24.94ZM309.76 24.14Q311.16 24.14 312.13 23.38Q313.10 22.61 313.64 20.79Q314.17 18.97 314.17 15.89L314.17 15.89Q314.17 12.77 313.64 10.92Q313.10 9.07 312.13 8.30Q311.16 7.54 309.76 7.54L309.76 7.54Q308.35 7.54 307.37 8.30Q306.40 9.07 305.86 10.89Q305.33 12.71 305.33 15.79L305.33 15.79Q305.33 18.91 305.86 20.76Q306.40 22.61 307.37 23.38Q308.34 24.14 309.76 24.14L309.76 24.14ZM323.71 24.72L323.71 11.76L324.43 11.76L324.50 13.27L324.60 13.27Q325.37 12.46 326.36 12.01Q327.36 11.57 328.49 11.57L328.49 11.57Q332.20 11.57 332.20 15.64L332.20 15.64L332.20 24.72L331.38 24.72L331.38 15.65Q331.38 13.88 330.62 13.12Q329.87 12.36 328.45 12.36L328.45 12.36Q327.40 12.36 326.32 12.88Q325.24 13.39 324.53 14.50L324.53 14.50L324.53 24.72L323.71 24.72ZM339.85 24.94Q337.61 24.94 336.36 23.33Q335.11 21.72 335.11 18.24L335.11 18.24Q335.11 14.76 336.35 13.16Q337.60 11.57 339.85 11.57L339.85 11.57Q344.58 11.57 344.58 18.24L344.58 18.24Q344.58 21.72 343.34 23.33Q342.10 24.94 339.85 24.94L339.85 24.94ZM339.85 24.14Q341.74 24.14 342.73 22.80Q343.72 21.46 343.72 18.28L343.72 18.28Q343.72 16.08 343.25 14.77Q342.79 13.46 341.94 12.91Q341.09 12.36 339.85 12.36L339.85 12.36Q337.97 12.36 336.97 13.69Q335.98 15.02 335.98 18.19L335.98 18.19Q335.98 21.43 336.97 22.79Q337.97 24.14 339.85 24.14L339.85 24.14ZM347.64 24.72L347.64 11.76L348.36 11.76L348.43 13.51L348.53 13.51Q349.20 12.62 350.18 12.14Q351.17 11.66 352.22 11.66L352.22 11.66Q352.67 11.66 353.05 11.72L353.05 11.72L353.05 12.54Q352.76 12.50 352.21 12.50L352.21 12.50Q351.14 12.50 350.11 13.09Q349.07 13.67 348.46 14.74L348.46 14.74L348.46 24.72L347.64 24.72ZM366.49 11.57Q368.09 11.57 369.02 12.53Q369.95 13.49 369.95 15.66L369.95 15.66L369.95 24.72L369.13 24.72L369.13 15.67Q369.13 13.90 368.42 13.13Q367.70 12.36 366.43 12.36L366.43 12.36Q365.50 12.36 364.52 12.87Q363.54 13.38 362.88 14.53L362.88 14.53Q362.95 15.04 362.95 15.66L362.95 15.66L362.95 24.72L362.14 24.72L362.14 15.67Q362.14 13.90 361.44 13.13Q360.74 12.36 359.50 12.36L359.50 12.36Q358.52 12.36 357.54 12.89Q356.56 13.43 355.90 14.57L355.90 14.57L355.90 24.72L355.08 24.72L355.08 11.76L355.80 11.76L355.87 13.30L355.97 13.30Q356.69 12.43 357.62 12.00Q358.56 11.57 359.58 11.57L359.58 11.57Q361.91 11.57 362.63 13.52L362.63 13.52Q363.44 12.48 364.45 12.02Q365.46 11.57 366.49 11.57L366.49 11.57ZM376.78 11.57Q378.16 11.57 379.07 11.96Q379.98 12.36 380.46 13.27Q380.94 14.18 380.94 15.72L380.94 15.72L380.94 24.72L380.22 24.72L380.15 23.22L380.05 23.22Q379.43 24.04 378.48 24.47Q377.53 24.91 376.42 24.91L376.42 24.91Q374.77 24.91 373.80 24.02Q372.83 23.14 372.83 21.52L372.83 21.52Q372.83 19.87 373.84 18.96Q374.84 18.05 376.96 17.82L376.96 17.82L380.12 17.44L380.12 15.71Q380.12 14.41 379.74 13.68Q379.36 12.95 378.63 12.65Q377.90 12.36 376.76 12.36L376.76 12.36Q376.03 12.36 375.18 12.50Q374.33 12.65 373.50 12.94L373.50 12.94L373.50 12.12Q374.18 11.86 375.07 11.71Q375.96 11.57 376.78 11.57L376.78 11.57ZM376.48 24.12Q377.50 24.12 378.45 23.63Q379.40 23.15 380.12 22.07L380.12 22.07L380.12 18.24L376.93 18.61Q375.26 18.79 374.49 19.48Q373.72 20.17 373.72 21.43L373.72 21.43Q373.72 22.78 374.42 23.45Q375.12 24.12 376.48 24.12L376.48 24.12ZM385.38 24.72L384.56 24.72L384.56 5.33L385.38 5.33L385.38 24.72Z"/></svg>