<svg xmlns="http://www.w3.org/2000/svg" xmlns:xlink="http://www.w3.org/1999/xlink" width="264.144" height="32.736000000000004"><path fill="black" d="M4.10 24.26L2.04 24.26L2.04 7.34L3.74 7.34L14.28 21.31L13.68 21.31L13.68 7.34L15.77 7.34L15.77 24.26L14.09 24.26L3.55 10.27L4.10 10.27L4.10 24.26ZM23.71 24.48L23.71 24.48Q22.30 24.48 21.35 23.95Q20.40 23.42 19.94 22.39Q19.49 21.36 19.49 19.80L19.49 19.80L19.49 12.58L21.67 12.58L21.67 19.80Q21.67 20.78 21.94 21.43Q22.20 22.08 22.76 22.39Q23.33 22.70 24.19 22.70L24.19 22.70Q25.15 22.70 25.87 22.27Q26.59 21.84 27 21.05Q27.41 20.26 27.41 19.20L27.41 19.20L27.41 12.58L29.59 12.58L29.59 24.26L27.46 24.26L27.46 21.62L27.77 21.62Q27.29 23.02 26.22 23.75Q25.15 24.48 23.71 24.48ZM35.28 24.26L33.10 24.26L33.10 12.58L35.23 12.58L35.23 15.12L34.97 15.12Q35.47 13.75 36.61 13.06Q37.75 12.36 39.22 12.36L39.22 12.36Q40.63 12.36 41.54 12.86Q42.46 13.37 42.91 14.41Q43.37 15.46 43.37 17.02L43.37 17.02L43.37 24.26L41.18 24.26L41.18 17.14Q41.18 16.10 40.92 15.43Q40.66 14.76 40.09 14.45Q39.53 14.14 38.66 14.14L38.66 14.14Q37.66 14.14 36.89 14.57Q36.12 15 35.70 15.79Q35.28 16.58 35.28 17.64L35.28 17.64L35.28 24.26ZM49.22 9.77L46.61 9.77L46.61 7.42L49.22 7.42L49.22 9.77ZM49.01 24.26L46.82 24.26L46.82 12.58L49.01 12.58L49.01 24.26ZM57.36 24.48L57.36 24.48Q55.22 24.48 54.17 23.36Q53.11 22.25 53.11 20.16L53.11 20.16L53.11 14.26L50.83 14.26L50.83 12.58L53.11 12.58L53.11 9.02L55.30 9.02L55.30 12.58L58.97 12.58L58.97 14.26L55.30 14.26L55.30 19.97Q55.30 21.29 55.85 21.96Q56.40 22.63 57.67 22.63L57.67 22.63Q58.06 22.63 58.43 22.55Q58.80 22.46 59.14 22.37L59.14 22.37L59.50 24Q59.16 24.22 58.55 24.35Q57.94 24.48 57.36 24.48ZM65.95 24.48L65.95 24.48Q64.22 24.48 62.95 23.74Q61.68 22.99 60.98 21.62Q60.29 20.26 60.29 18.41L60.29 18.41Q60.29 16.56 60.98 15.20Q61.68 13.85 62.95 13.10Q64.22 12.36 65.95 12.36L65.95 12.36Q67.68 12.36 68.95 13.10Q70.22 13.85 70.92 15.20Q71.62 16.56 71.62 18.41L71.62 18.41Q71.62 20.26 70.92 21.62Q70.22 22.99 68.95 23.74Q67.68 24.48 65.95 24.48ZM65.95 22.75L65.95 22.75Q67.54 22.75 68.47 21.64Q69.41 20.52 69.41 18.41L69.41 18.41Q69.41 16.30 68.47 15.19Q67.54 14.09 65.95 14.09L65.95 14.09Q64.39 14.09 63.44 15.19Q62.50 16.30 62.50 18.41L62.50 18.41Q62.50 20.52 63.44 21.64Q64.39 22.75 65.95 22.75ZM86.50 24.48L86.50 24.48Q85.18 24.48 84 24.25Q82.82 24.02 81.84 23.58Q80.86 23.14 80.06 22.49L80.06 22.49L80.83 20.71Q81.62 21.31 82.49 21.73Q83.35 22.15 84.34 22.36Q85.32 22.56 86.50 22.56L86.50 22.56Q88.61 22.56 89.60 21.79Q90.60 21.02 90.60 19.78L90.60 19.78Q90.60 19.08 90.29 18.60Q89.98 18.12 89.28 17.78Q88.58 17.45 87.46 17.23L87.46 17.23L84.91 16.70Q82.66 16.22 81.54 15.12Q80.42 14.02 80.42 12.17L80.42 12.17Q80.42 10.66 81.23 9.52Q82.03 8.38 83.44 7.75Q84.84 7.13 86.69 7.13L86.69 7.13Q87.84 7.13 88.87 7.36Q89.90 7.58 90.79 8.05Q91.68 8.52 92.35 9.19L92.35 9.19L91.61 10.90Q90.55 9.94 89.35 9.49Q88.15 9.05 86.66 9.05L86.66 9.05Q85.44 9.05 84.54 9.43Q83.64 9.82 83.15 10.50Q82.66 11.18 82.66 12.10L82.66 12.10Q82.66 13.20 83.33 13.82Q84 14.45 85.58 14.78L85.58 14.78L88.10 15.29Q90.50 15.79 91.67 16.84Q92.83 17.88 92.83 19.63L92.83 19.63Q92.83 21.07 92.06 22.16Q91.30 23.26 89.87 23.87Q88.44 24.48 86.50 24.48ZM99.22 24.48L99.22 24.48Q98.02 24.48 97.04 24Q96.07 23.52 95.53 22.70Q94.99 21.89 94.99 20.88L94.99 20.88Q94.99 19.58 95.64 18.84Q96.29 18.10 97.82 17.77Q99.36 17.45 101.95 17.45L101.95 17.45L103.08 17.45L103.08 18.84L102 18.84Q100.61 18.84 99.67 18.94Q98.74 19.03 98.18 19.25Q97.63 19.46 97.39 19.84Q97.15 20.21 97.15 20.76L97.15 20.76Q97.15 21.70 97.81 22.30Q98.47 22.90 99.62 22.90L99.62 22.90Q100.54 22.90 101.23 22.45Q101.93 22.01 102.34 21.25Q102.74 20.50 102.74 19.51L102.74 19.51L102.74 16.75Q102.74 15.34 102.17 14.70Q101.59 14.06 100.22 14.06L100.22 14.06Q99.22 14.06 98.22 14.38Q97.22 14.69 96.17 15.34L96.17 15.34L95.47 13.78Q96.10 13.34 96.90 13.02Q97.70 12.70 98.58 12.53Q99.46 12.36 100.27 12.36L100.27 12.36Q101.83 12.36 102.84 12.85Q103.85 13.34 104.35 14.36Q104.86 15.38 104.86 16.97L104.86 16.97L104.86 24.26L102.79 24.26L102.79 21.60L103.01 21.60Q102.82 22.49 102.29 23.14Q101.76 23.78 100.98 24.13Q100.20 24.48 99.22 24.48ZM110.47 24.26L108.29 24.26L108.29 12.58L110.42 12.58L110.42 15.12L110.16 15.12Q110.66 13.75 111.80 13.06Q112.94 12.36 114.41 12.36L114.41 12.36Q115.82 12.36 116.74 12.86Q117.65 13.37 118.10 14.41Q118.56 15.46 118.56 17.02L118.56 17.02L118.56 24.26L116.38 24.26L116.38 17.14Q116.38 16.10 116.11 15.43Q115.85 14.76 115.28 14.45Q114.72 14.14 113.86 14.14L113.86 14.14Q112.85 14.14 112.08 14.57Q111.31 15 110.89 15.79Q110.47 16.58 110.47 17.64L110.47 17.64L110.47 24.26ZM126.05 24.48L126.05 24.48Q125.14 24.48 124.26 24.31Q123.38 24.14 122.65 23.82Q121.92 23.50 121.37 23.04L121.37 23.04L122.02 21.53Q122.59 21.96 123.26 22.26Q123.94 22.56 124.66 22.70Q125.38 22.85 126.10 22.85L126.10 22.85Q127.42 22.85 128.09 22.37Q128.76 21.89 128.76 21.10L128.76 21.10Q128.76 20.42 128.32 20.05Q127.87 19.68 126.94 19.49L126.94 19.49L124.70 19.03Q123.22 18.70 122.46 17.92Q121.70 17.14 121.70 15.91L121.70 15.91Q121.70 14.83 122.29 14.03Q122.88 13.22 123.94 12.79Q124.99 12.36 126.36 12.36L126.36 12.36Q127.18 12.36 127.94 12.53Q128.71 12.70 129.38 13.01Q130.06 13.32 130.51 13.82L130.51 13.82L129.84 15.31Q129.38 14.88 128.81 14.59Q128.23 14.30 127.61 14.15Q126.98 13.99 126.36 13.99L126.36 13.99Q125.06 13.99 124.40 14.50Q123.74 15 123.74 15.82L123.74 15.82Q123.74 16.44 124.14 16.85Q124.54 17.26 125.40 17.45L125.40 17.45L127.63 17.90Q129.19 18.24 129.98 18.97Q130.78 19.70 130.78 20.95L130.78 20.95Q130.78 22.06 130.19 22.85Q129.60 23.64 128.53 24.06Q127.46 24.48 126.05 24.48ZM145.61 24.48L145.61 24.48Q144.53 24.48 143.48 24.24Q142.44 24 141.53 23.56Q140.62 23.11 139.94 22.49L139.94 22.49L140.74 20.76Q141.89 21.67 143.08 22.12Q144.26 22.56 145.58 22.56L145.58 22.56Q147.29 22.56 148.26 21.62Q149.23 20.69 149.23 19.13L149.23 19.13Q149.23 17.54 148.30 16.54Q147.36 15.53 145.75 15.53L145.75 15.53Q144.58 15.53 143.66 16.00Q142.75 16.46 142.06 17.47L142.06 17.47L140.47 17.47L140.47 7.34L150.41 7.34L150.41 9.24L142.66 9.24L142.66 15.65L142.03 15.65Q142.68 14.69 143.76 14.16Q144.84 13.63 146.18 13.63L146.18 13.63Q147.79 13.63 148.96 14.32Q150.12 15 150.77 16.21Q151.42 17.42 151.42 19.03L151.42 19.03Q151.42 20.62 150.71 21.85Q150 23.09 148.70 23.78Q147.41 24.48 145.61 24.48ZM159.70 24.48L159.70 24.48Q157.75 24.48 156.42 23.47Q155.09 22.46 154.40 20.53Q153.72 18.60 153.72 15.79L153.72 15.79Q153.72 12.94 154.40 11.02Q155.09 9.10 156.42 8.11Q157.75 7.13 159.70 7.13L159.70 7.13Q161.66 7.13 163.00 8.10Q164.33 9.07 165 10.99Q165.67 12.91 165.67 15.77L165.67 15.77Q165.67 18.58 164.99 20.52Q164.30 22.46 162.98 23.47Q161.66 24.48 159.70 24.48ZM159.70 22.58L159.70 22.58Q161.62 22.58 162.55 20.93Q163.49 19.27 163.49 15.77L163.49 15.77Q163.49 12.26 162.56 10.64Q161.64 9.02 159.70 9.02L159.70 9.02Q157.78 9.02 156.84 10.64Q155.90 12.26 155.90 15.77L155.90 15.77Q155.90 19.27 156.84 20.93Q157.78 22.58 159.70 22.58ZM174.10 24.48L174.10 24.48Q172.15 24.48 170.82 23.47Q169.49 22.46 168.80 20.53Q168.12 18.60 168.12 15.79L168.12 15.79Q168.12 12.94 168.80 11.02Q169.49 9.10 170.82 8.11Q172.15 7.13 174.10 7.13L174.10 7.13Q176.06 7.13 177.40 8.10Q178.73 9.07 179.40 10.99Q180.07 12.91 180.07 15.77L180.07 15.77Q180.07 18.58 179.39 20.52Q178.70 22.46 177.38 23.47Q176.06 24.48 174.10 24.48ZM174.10 22.58L174.10 22.58Q176.02 22.58 176.95 20.93Q177.89 19.27 177.89 15.77L177.89 15.77Q177.89 12.26 176.96 10.64Q176.04 9.02 174.10 9.02L174.10 9.02Q172.18 9.02 171.24 10.64Q170.30 12.26 170.30 15.77L170.30 15.77Q170.30 19.27 171.24 20.93Q172.18 22.58 174.10 22.58ZM191.47 24.26L189.29 24.26L189.29 12.58L191.42 12.58L191.42 15.12L191.16 15.12Q191.66 13.75 192.80 13.06Q193.94 12.36 195.41 12.36L195.41 12.36Q196.82 12.36 197.74 12.86Q198.65 13.37 199.10 14.41Q199.56 15.46 199.56 17.02L199.56 17.02L199.56 24.26L197.38 24.26L197.38 17.14Q197.38 16.10 197.11 15.43Q196.85 14.76 196.28 14.45Q195.72 14.14 194.86 14.14L194.86 14.14Q193.85 14.14 193.08 14.57Q192.31 15 191.89 15.79Q191.47 16.58 191.47 17.64L191.47 17.64L191.47 24.26ZM207.98 24.48L207.98 24.48Q206.26 24.48 204.98 23.74Q203.71 22.99 203.02 21.62Q202.32 20.26 202.32 18.41L202.32 18.41Q202.32 16.56 203.02 15.20Q203.71 13.85 204.98 13.10Q206.26 12.36 207.98 12.36L207.98 12.36Q209.71 12.36 210.98 13.10Q212.26 13.85 212.95 15.20Q213.65 16.56 213.65 18.41L213.65 18.41Q213.65 20.26 212.95 21.62Q212.26 22.99 210.98 23.74Q209.71 24.48 207.98 24.48ZM207.98 22.75L207.98 22.75Q209.57 22.75 210.50 21.64Q211.44 20.52 211.44 18.41L211.44 18.41Q211.44 16.30 210.50 15.19Q209.57 14.09 207.98 14.09L207.98 14.09Q206.42 14.09 205.48 15.19Q204.53 16.30 204.53 18.41L204.53 18.41Q204.53 20.52 205.48 21.64Q206.42 22.75 207.98 22.75ZM218.66 24.26L216.46 24.26L216.46 12.58L218.59 12.58L218.59 15.36L218.35 15.36Q218.74 13.92 219.74 13.19Q220.75 12.46 222.41 12.34L222.41 12.34L223.15 12.26L223.32 14.16L221.95 14.28Q220.37 14.45 219.52 15.31Q218.66 16.18 218.66 17.69L218.66 17.69L218.66 24.26ZM227.45 24.26L225.26 24.26L225.26 12.58L227.40 12.58L227.40 15.12L227.14 15.12Q227.45 14.23 228.00 13.62Q228.55 13.01 229.33 12.68Q230.11 12.36 231.05 12.36L231.05 12.36Q232.54 12.36 233.45 13.07Q234.36 13.78 234.67 15.22L234.67 15.22L234.34 15.22Q234.77 13.90 235.88 13.13Q237.00 12.36 238.49 12.36L238.49 12.36Q239.81 12.36 240.66 12.88Q241.51 13.39 241.94 14.41Q242.38 15.43 242.38 17.02L242.38 17.02L242.38 24.26L240.19 24.26L240.19 17.11Q240.19 15.58 239.66 14.86Q239.14 14.14 237.89 14.14L237.89 14.14Q236.98 14.14 236.30 14.57Q235.63 15 235.27 15.79Q234.91 16.58 234.91 17.69L234.91 17.69L234.91 24.26L232.73 24.26L232.73 17.11Q232.73 15.58 232.20 14.86Q231.67 14.14 230.42 14.14L230.42 14.14Q229.51 14.14 228.84 14.57Q228.17 15 227.81 15.79Q227.45 16.58 227.45 17.69L227.45 17.69L227.45 24.26ZM249.60 24.48L249.60 24.48Q248.40 24.48 247.43 24Q246.46 23.52 245.92 22.70Q245.38 21.89 245.38 20.88L245.38 20.88Q245.38 19.58 246.02 18.84Q246.67 18.10 248.21 17.77Q249.74 17.45 252.34 17.45L252.34 17.45L253.46 17.45L253.46 18.84L252.38 18.84Q250.99 18.84 250.06 18.94Q249.12 19.03 248.57 19.25Q248.02 19.46 247.78 19.84Q247.54 20.21 247.54 20.76L247.54 20.76Q247.54 21.70 248.20 22.30Q248.86 22.90 250.01 22.90L250.01 22.90Q250.92 22.90 251.62 22.45Q252.31 22.01 252.72 21.25Q253.13 20.50 253.13 19.51L253.13 19.51L253.13 16.75Q253.13 15.34 252.55 14.70Q251.98 14.06 250.61 14.06L250.61 14.06Q249.60 14.06 248.60 14.38Q247.61 14.69 246.55 15.34L246.55 15.34L245.86 13.78Q246.48 13.34 247.28 13.02Q248.09 12.70 248.96 12.53Q249.84 12.36 250.66 12.36L250.66 12.36Q252.22 12.36 253.22 12.85Q254.23 13.34 254.74 14.36Q255.24 15.38 255.24 16.97L255.24 16.97L255.24 24.26L253.18 24.26L253.18 21.60L253.39 21.60Q253.20 22.49 252.67 23.14Q252.14 23.78 251.36 24.13Q250.58 24.48 249.60 24.48ZM262.39 24.48L262.39 24.48Q260.52 24.48 259.60 23.41Q258.67 22.34 258.67 20.33L258.67 20.33L258.67 7.34L260.86 7.34L260.86 20.16Q260.86 20.98 261.08 21.54Q261.31 22.10 261.76 22.37Q262.20 22.63 262.87 22.63L262.87 22.63Q263.14 22.63 263.41 22.61Q263.69 22.58 263.93 22.51L263.93 22.51L263.88 24.29Q263.50 24.38 263.12 24.43Q262.75 24.48 262.39 24.48Z"/></svg>