<svg xmlns="http://www.w3.org/2000/svg" xmlns:xlink="http://www.w3.org/1999/xlink" width="173.7890625" height="28.875"><path fill="black" d="M5.79 22.80L5.79 22.80Q4.43 22.80 3.23 22.34Q2.04 21.87 1.15 21.23L1.15 21.23L1.15 18.70Q2.11 19.38 3.34 19.89Q4.57 20.39 6.05 20.39L6.05 20.39Q7.15 20.39 7.93 19.86Q8.72 19.34 8.72 18.40L8.72 18.40Q8.72 17.88 8.39 17.51Q8.06 17.13 7.59 16.85Q7.13 16.57 6.63 16.38L6.63 16.38L4.13 15.30Q2.95 14.81 2.30 14.18Q1.64 13.55 1.38 12.79Q1.13 12.02 1.13 11.13L1.13 11.13Q1.13 9.80 1.86 8.78Q2.60 7.76 3.83 7.17Q5.06 6.59 6.47 6.59L6.47 6.59Q7.85 6.59 8.85 6.97Q9.84 7.36 10.55 7.83L10.55 7.83L10.55 10.38Q9.82 9.87 8.85 9.43Q7.88 9 6.73 9L6.73 9Q6.07 9 5.38 9.22Q4.69 9.45 4.24 9.94Q3.80 10.43 3.80 11.18L3.80 11.18Q3.80 12.05 4.48 12.50Q5.16 12.96 6.12 13.41L6.12 13.41L8.16 14.32Q9.80 15.02 10.61 15.94Q11.41 16.85 11.41 18.28L11.41 18.28Q11.41 19.62 10.64 20.63Q9.87 21.63 8.60 22.22Q7.34 22.80 5.79 22.80ZM19.80 22.90L19.80 22.90Q18.49 22.90 17.36 22.43Q16.22 21.96 15.38 21.12Q14.53 20.27 14.06 19.16Q13.59 18.05 13.59 16.76L13.59 16.76Q13.59 15.07 14.34 13.65Q15.09 12.23 16.41 11.38Q17.72 10.52 19.38 10.52L19.38 10.52Q21.16 10.52 22.38 11.27Q23.60 12.02 24.22 13.32Q24.84 14.63 24.84 16.29L24.84 16.29L24.84 17.48L15.77 17.48L15.77 15.68L22.57 15.68Q22.48 14.65 22.00 13.99Q21.52 13.34 20.82 13.01Q20.13 12.68 19.36 12.68L19.36 12.68Q18.33 12.68 17.57 13.23Q16.80 13.78 16.38 14.70Q15.96 15.61 15.96 16.76L15.96 16.76Q15.96 17.84 16.44 18.73Q16.92 19.62 17.81 20.16Q18.70 20.70 19.85 20.70L19.85 20.70Q21.14 20.70 22.21 20.10Q23.27 19.50 23.98 18.84L23.98 18.84L23.98 21.19Q23.63 21.56 22.99 21.96Q22.36 22.36 21.54 22.63Q20.72 22.90 19.80 22.90ZM38.20 22.55L35.84 22.55L35.84 15.63Q35.84 14.23 35.20 13.52Q34.57 12.82 33.33 12.82L33.33 12.82Q32.46 12.82 31.63 13.44Q30.80 14.06 30.16 14.88L30.16 14.88L30.16 12.56Q30.54 12.09 31.10 11.63Q31.66 11.16 32.38 10.84Q33.09 10.52 33.89 10.52L33.89 10.52Q35.09 10.52 36.07 11.05Q37.05 11.58 37.63 12.66Q38.20 13.73 38.20 15.35L38.20 15.35L38.20 22.55ZM30.16 22.55L27.82 22.55L27.82 10.78L30.16 10.78L30.16 22.55ZM52.66 22.90L52.66 22.90Q51.75 22.90 50.92 22.65Q50.09 22.41 49.45 22.04Q48.82 21.68 48.40 21.33L48.40 21.33L48.40 18.77Q48.89 19.13 49.51 19.55Q50.13 19.97 50.88 20.29Q51.63 20.60 52.50 20.60L52.50 20.60Q53.51 20.60 54.32 20.24Q55.13 19.88 55.59 19.22Q56.06 18.56 56.06 17.65L56.06 17.65Q56.06 16.78 55.57 16.15Q55.08 15.52 54.26 15.16Q53.44 14.81 52.43 14.81L52.43 14.81Q51.54 14.81 50.80 15.02Q50.06 15.23 49.41 15.47L49.41 15.47L49.41 6.84L57.80 6.84L57.80 9.16L51.82 9.16L51.82 13.01Q52.20 12.87 52.69 12.77Q53.18 12.68 53.86 12.68L53.86 12.68Q55.13 12.68 56.19 13.28Q57.26 13.88 57.91 14.93Q58.57 15.98 58.57 17.37L58.57 17.37Q58.57 19.05 57.79 20.30Q57 21.54 55.66 22.22Q54.33 22.90 52.66 22.90ZM66.59 22.90L66.59 22.90Q65.09 22.90 63.96 22.22Q62.84 21.54 62.10 20.38Q61.36 19.22 60.98 17.74Q60.61 16.27 60.61 14.70L60.61 14.70Q60.61 13.10 60.98 11.64Q61.36 10.17 62.10 9.01Q62.84 7.85 63.96 7.17Q65.09 6.49 66.59 6.49L66.59 6.49Q68.11 6.49 69.23 7.17Q70.36 7.85 71.10 9.01Q71.84 10.17 72.20 11.64Q72.56 13.10 72.56 14.70L72.56 14.70Q72.56 16.27 72.20 17.74Q71.84 19.22 71.10 20.38Q70.36 21.54 69.23 22.22Q68.11 22.90 66.59 22.90ZM66.59 20.53L66.59 20.53Q67.45 20.53 68.11 20.05Q68.77 19.57 69.20 18.75Q69.63 17.93 69.86 16.89Q70.08 15.84 70.08 14.70L70.08 14.70Q70.08 13.55 69.86 12.50Q69.63 11.46 69.20 10.64Q68.77 9.82 68.11 9.34Q67.45 8.86 66.59 8.86L66.59 8.86Q65.74 8.86 65.09 9.34Q64.43 9.82 64.00 10.64Q63.56 11.46 63.34 12.50Q63.12 13.55 63.12 14.70L63.12 14.70Q63.12 15.84 63.34 16.89Q63.56 17.93 64.00 18.75Q64.43 19.57 65.09 20.05Q65.74 20.53 66.59 20.53ZM79.71 22.90L79.71 22.90Q78.21 22.90 77.09 22.22Q75.96 21.54 75.22 20.38Q74.48 19.22 74.11 17.74Q73.73 16.27 73.73 14.70L73.73 14.70Q73.73 13.10 74.11 11.64Q74.48 10.17 75.22 9.01Q75.96 7.85 77.09 7.17Q78.21 6.49 79.71 6.49L79.71 6.49Q81.23 6.49 82.36 7.17Q83.48 7.85 84.22 9.01Q84.96 10.17 85.32 11.64Q85.69 13.10 85.69 14.70L85.69 14.70Q85.69 16.27 85.32 17.74Q84.96 19.22 84.22 20.38Q83.48 21.54 82.36 22.22Q81.23 22.90 79.71 22.90ZM79.71 20.53L79.71 20.53Q80.58 20.53 81.23 20.05Q81.89 19.57 82.32 18.75Q82.76 17.93 82.98 16.89Q83.20 15.84 83.20 14.70L83.20 14.70Q83.20 13.55 82.98 12.50Q82.76 11.46 82.32 10.64Q81.89 9.82 81.23 9.34Q80.58 8.86 79.71 8.86L79.71 8.86Q78.87 8.86 78.21 9.34Q77.55 9.82 77.12 10.64Q76.69 11.46 76.46 12.50Q76.24 13.55 76.24 14.70L76.24 14.70Q76.24 15.84 76.46 16.89Q76.69 17.93 77.12 18.75Q77.55 19.57 78.21 20.05Q78.87 20.53 79.71 20.53ZM105.56 22.55L103.20 22.55L103.20 15.63Q103.20 14.23 102.56 13.52Q101.93 12.82 100.69 12.82L100.69 12.82Q99.82 12.82 98.99 13.44Q98.16 14.06 97.52 14.88L97.52 14.88L97.52 12.56Q97.90 12.09 98.46 11.63Q99.02 11.16 99.74 10.84Q100.45 10.52 101.25 10.52L101.25 10.52Q102.45 10.52 103.43 11.05Q104.41 11.58 104.99 12.66Q105.56 13.73 105.56 15.35L105.56 15.35L105.56 22.55ZM97.52 22.55L95.18 22.55L95.18 10.78L97.52 10.78L97.52 22.55ZM114.49 22.90L114.49 22.90Q113.18 22.90 112.05 22.42Q110.93 21.94 110.07 21.08Q109.22 20.23 108.75 19.11Q108.28 18 108.28 16.71L108.28 16.71Q108.28 15.45 108.75 14.32Q109.22 13.20 110.07 12.35Q110.93 11.51 112.05 11.02Q113.18 10.52 114.49 10.52L114.49 10.52Q115.80 10.52 116.93 11.02Q118.05 11.51 118.91 12.35Q119.77 13.20 120.23 14.32Q120.70 15.45 120.70 16.71L120.70 16.71Q120.70 18 120.23 19.11Q119.77 20.23 118.91 21.08Q118.05 21.94 116.93 22.42Q115.80 22.90 114.49 22.90ZM114.49 20.63L114.49 20.63Q115.59 20.63 116.44 20.11Q117.28 19.59 117.76 18.70Q118.24 17.81 118.24 16.71L118.24 16.71Q118.24 15.59 117.76 14.71Q117.28 13.83 116.44 13.31Q115.59 12.80 114.49 12.80L114.49 12.80Q113.41 12.80 112.56 13.31Q111.70 13.83 111.22 14.71Q110.74 15.59 110.74 16.71L110.74 16.71Q110.74 17.81 111.22 18.70Q111.70 19.59 112.56 20.11Q113.41 20.63 114.49 20.63ZM126.07 22.55L123.73 22.55L123.73 10.78L126.07 10.78L126.07 22.55ZM126.07 15.66L126.07 15.66L126.07 13.08Q126.73 11.95 127.63 11.25Q128.53 10.55 129.56 10.55L129.56 10.55Q130.24 10.55 130.76 10.78L130.76 10.78L130.76 13.45Q130.41 13.24 130.03 13.13Q129.66 13.01 129.23 13.01L129.23 13.01Q128.11 13.01 127.39 13.78Q126.68 14.55 126.07 15.66ZM151.29 22.55L148.95 22.55L148.92 15.63Q148.92 14.23 148.21 13.52Q147.49 12.82 146.27 12.82L146.27 12.82Q145.29 12.82 144.60 13.44Q143.91 14.06 143.27 14.88L143.27 14.88L142.71 13.08Q143.51 12.05 144.49 11.29Q145.48 10.52 146.81 10.52L146.81 10.52Q148.01 10.52 149.03 11.05Q150.05 11.58 150.67 12.66Q151.29 13.73 151.29 15.35L151.29 15.35L151.29 22.55ZM135.49 22.55L133.15 22.55L133.15 10.78L135.49 10.78L135.49 22.55ZM143.39 22.55L141.05 22.55L141.02 15.63Q141.02 14.23 140.31 13.52Q139.59 12.82 138.35 12.82L138.35 12.82Q137.39 12.82 136.63 13.44Q135.87 14.06 135.26 14.88L135.26 14.88L135.26 12.56Q135.63 12.09 136.14 11.63Q136.64 11.16 137.33 10.84Q138.02 10.52 138.91 10.52L138.91 10.52Q140.34 10.52 141.52 11.29Q142.69 12.05 143.13 13.55L143.13 13.55L143.39 14.34L143.39 22.55ZM159.40 22.90L159.40 22.90Q157.95 22.90 156.71 22.15Q155.48 21.40 154.75 20.03Q154.01 18.66 154.01 16.80L154.01 16.80Q154.01 14.86 154.75 13.45Q155.48 12.05 156.76 11.29Q158.04 10.52 159.61 10.52L159.61 10.52Q160.59 10.52 161.61 10.99Q162.63 11.46 163.34 12.26L163.34 12.26L163.34 10.78L165.68 10.78L165.68 22.55L163.34 22.55L163.34 20.55Q162.77 21.49 161.75 22.20Q160.73 22.90 159.40 22.90ZM159.89 20.58L159.89 20.58Q160.85 20.58 161.64 20.07Q162.42 19.57 162.89 18.67Q163.36 17.77 163.34 16.59L163.34 16.59L163.34 14.55Q162.63 13.76 161.85 13.29Q161.06 12.82 160.05 12.82L160.05 12.82Q158.93 12.82 158.12 13.38Q157.31 13.95 156.88 14.86Q156.45 15.77 156.45 16.80L156.45 16.80Q156.45 17.84 156.88 18.70Q157.31 19.57 158.09 20.07Q158.86 20.58 159.89 20.58ZM171.87 22.55L169.52 22.55L169.52 5.67L171.87 5.67L171.87 22.55Z"/></svg>