<svg xmlns="http://www.w3.org/2000/svg" xmlns:xlink="http://www.w3.org/1999/xlink" width="227.859375" height="33.09375"><path fill="black" d="M12.57 11.13L12.57 11.13Q12.57 11.72 12.36 12.19Q12.14 12.67 11.75 13.01Q11.37 13.35 10.85 13.54Q10.32 13.72 9.71 13.72L9.71 13.72Q9.05 13.72 8.57 13.56Q8.10 13.39 7.78 13.14Q7.45 12.89 7.27 12.58Q7.08 12.27 6.98 11.98Q6.88 11.68 6.85 11.44Q6.82 11.19 6.82 11.06L6.82 11.06Q6.96 11.30 7.15 11.36Q7.34 11.43 7.46 11.43L7.46 11.43Q7.79 11.43 7.93 11.25Q8.06 11.07 8.06 10.88L8.06 10.88Q8.06 10.75 8.01 10.61Q7.96 10.46 7.82 10.34Q7.69 10.22 7.46 10.14Q7.23 10.05 6.89 10.05L6.89 10.05Q6.66 10.05 6.41 10.14Q6.16 10.23 5.96 10.41Q5.75 10.59 5.63 10.86Q5.50 11.13 5.50 11.50L5.50 11.50Q5.50 11.85 5.64 12.19Q5.79 12.54 6.04 12.84Q6.29 13.15 6.64 13.39Q6.98 13.64 7.39 13.80L7.39 13.80Q8.04 14.07 8.72 14.33Q9.41 14.59 10.05 14.89Q10.70 15.20 11.27 15.59Q11.84 15.98 12.26 16.52Q12.69 17.06 12.94 17.78Q13.20 18.50 13.20 19.46L13.20 19.46Q13.20 20.84 12.64 21.97Q12.08 23.10 11.15 23.90Q10.22 24.70 8.99 25.14Q7.77 25.58 6.43 25.58L6.43 25.58Q5.23 25.58 4.14 25.22Q3.05 24.87 2.23 24.25Q1.41 23.63 0.92 22.79Q0.43 21.95 0.43 20.98L0.43 20.98Q0.43 20.26 0.67 19.72Q0.90 19.18 1.32 18.83Q1.73 18.47 2.29 18.29Q2.85 18.12 3.48 18.12L3.48 18.12Q3.97 18.12 4.45 18.22Q4.92 18.33 5.34 18.53Q5.75 18.74 6.09 19.03Q6.42 19.32 6.62 19.70L6.62 19.70Q6.38 19.63 6.19 19.63L6.19 19.63Q5.87 19.63 5.68 19.82Q5.50 20.00 5.50 20.38L5.50 20.38Q5.50 20.58 5.59 20.75Q5.68 20.92 5.83 21.05Q5.98 21.18 6.17 21.25Q6.36 21.32 6.57 21.32L6.57 21.32Q6.81 21.32 7.01 21.22Q7.21 21.12 7.36 20.95Q7.51 20.79 7.59 20.59Q7.68 20.39 7.68 20.18L7.68 20.18Q7.68 19.77 7.42 19.35Q7.17 18.93 6.69 18.60L6.69 18.60Q5.78 18.04 4.97 17.63Q4.16 17.21 3.48 16.85Q2.80 16.48 2.26 16.10Q1.71 15.73 1.33 15.23Q0.95 14.74 0.75 14.08Q0.55 13.42 0.55 12.48L0.55 12.48Q0.55 11.36 0.98 10.37Q1.42 9.39 2.24 8.65Q3.07 7.92 4.27 7.50Q5.46 7.08 6.98 7.08L6.98 7.08Q8.52 7.08 9.59 7.45Q10.65 7.82 11.31 8.40Q11.98 8.99 12.28 9.71Q12.57 10.43 12.57 11.13ZM13.90 11.06L13.90 11.06Q14.17 11.09 14.51 11.11L14.51 11.11Q14.80 11.13 15.19 11.14Q15.59 11.16 16.05 11.16L16.05 11.16Q16.71 11.16 17.47 11.12Q18.22 11.07 18.96 10.95L18.96 10.95Q18.82 11.21 18.72 11.67Q18.62 12.12 18.55 12.71L18.55 12.71Q19.03 11.66 19.83 11.07Q20.64 10.49 21.87 10.49L21.87 10.49Q22.14 10.49 22.55 10.52Q22.97 10.56 23.43 10.76Q23.89 10.96 24.36 11.37Q24.82 11.79 25.19 12.55Q25.56 13.31 25.79 14.47Q26.02 15.62 26.02 17.31L26.02 17.31Q26.02 18.71 25.81 19.82Q25.61 20.93 25.26 21.77Q24.91 22.62 24.45 23.21Q23.99 23.80 23.48 24.18Q22.97 24.55 22.44 24.72Q21.90 24.89 21.41 24.89L21.41 24.89Q20.84 24.89 20.35 24.66Q19.86 24.42 19.49 24.01Q19.11 23.59 18.84 23.01Q18.57 22.43 18.43 21.74L18.43 21.74Q18.45 22.28 18.48 22.99Q18.52 23.71 18.56 24.47Q18.61 25.24 18.67 26.02Q18.73 26.79 18.80 27.45Q18.87 28.11 18.96 28.61Q19.04 29.10 19.15 29.31L19.15 29.31Q18.21 29.14 17.40 29.09Q16.59 29.04 15.94 29.04L15.94 29.04Q15.52 29.04 15.18 29.05Q14.84 29.06 14.60 29.09L14.60 29.09Q14.32 29.11 14.11 29.13L14.11 29.13Q14.23 28.55 14.33 27.60Q14.44 26.66 14.51 25.48Q14.59 24.30 14.64 22.95Q14.68 21.60 14.68 20.18L14.68 20.18Q14.68 18.88 14.64 17.59Q14.60 16.30 14.51 15.12Q14.41 13.93 14.26 12.90Q14.11 11.86 13.90 11.06ZM18.71 16.83L18.71 16.83L18.71 18.71Q18.71 19.03 18.75 19.36Q18.79 19.69 18.91 19.96Q19.03 20.23 19.27 20.40Q19.50 20.57 19.90 20.57L19.90 20.57Q20.18 20.57 20.38 20.34Q20.58 20.12 20.71 19.77Q20.84 19.42 20.92 18.98Q21 18.55 21.04 18.12Q21.07 17.70 21.08 17.33Q21.09 16.96 21.09 16.75L21.09 16.75Q21.09 16.43 21.06 15.97Q21.04 15.52 20.93 15.08Q20.82 14.65 20.61 14.34Q20.39 14.04 20.02 14.04L20.02 14.04Q19.59 14.04 19.34 14.34Q19.08 14.64 18.94 15.06Q18.81 15.49 18.76 15.98Q18.71 16.46 18.71 16.83ZM32.48 24.46L32.48 24.46Q32.29 24.45 32.02 24.42L32.02 24.42Q31.78 24.41 31.46 24.40Q31.15 24.39 30.74 24.39L30.74 24.39Q29.98 24.39 28.98 24.45Q27.98 24.52 26.82 24.69L26.82 24.69Q27.05 24.25 27.20 23.57Q27.35 22.90 27.45 22.13Q27.55 21.36 27.60 20.58Q27.66 19.79 27.68 19.14Q27.70 18.48 27.71 18.02Q27.71 17.57 27.71 17.45L27.71 17.45Q27.69 15.93 27.61 14.60L27.61 14.60Q27.57 14.04 27.52 13.46Q27.47 12.89 27.40 12.38Q27.33 11.87 27.24 11.47Q27.15 11.06 27.04 10.83L27.04 10.83Q27.98 10.99 28.79 11.05Q29.60 11.11 30.26 11.11L30.26 11.11Q30.68 11.11 31.01 11.09Q31.35 11.07 31.58 11.05L31.58 11.05Q31.86 11.03 32.07 10.99L32.07 10.99Q31.86 12.05 31.73 13.54Q31.59 15.02 31.59 16.72L31.59 16.72Q31.59 17.70 31.64 18.69Q31.69 19.69 31.79 20.68Q31.90 21.67 32.07 22.62Q32.24 23.58 32.48 24.46ZM27.11 7.70L27.11 7.70Q27.11 7.16 27.31 6.69Q27.52 6.21 27.87 5.85Q28.23 5.50 28.71 5.29Q29.19 5.09 29.73 5.09L29.73 5.09Q30.27 5.09 30.74 5.29Q31.22 5.50 31.58 5.85Q31.93 6.21 32.14 6.69Q32.34 7.16 32.34 7.70L32.34 7.70Q32.34 8.24 32.14 8.72Q31.93 9.20 31.58 9.56Q31.22 9.91 30.74 10.12Q30.27 10.32 29.73 10.32L29.73 10.32Q29.19 10.32 28.71 10.12Q28.23 9.91 27.87 9.56Q27.52 9.20 27.31 8.72Q27.11 8.24 27.11 7.70ZM43.49 14.57L43.49 14.57Q43.49 15.06 43.32 15.55Q43.15 16.04 42.83 16.44Q42.52 16.83 42.05 17.08Q41.59 17.33 41.02 17.33L41.02 17.33Q40.50 17.33 40.14 17.16Q39.77 16.98 39.54 16.70Q39.30 16.42 39.19 16.05Q39.08 15.68 39.08 15.29L39.08 15.29Q39.08 14.47 39.48 13.88L39.48 13.88Q39.54 14.07 39.65 14.17Q39.76 14.27 39.86 14.32L39.86 14.32Q39.97 14.37 40.09 14.38L40.09 14.38Q40.43 14.38 40.52 14.23Q40.62 14.07 40.64 13.88L40.64 13.88Q40.64 13.68 40.49 13.49Q40.34 13.30 39.96 13.30L39.96 13.30Q39.86 13.30 39.66 13.33Q39.47 13.36 39.23 13.48Q38.99 13.59 38.74 13.82Q38.50 14.05 38.29 14.46Q38.09 14.86 37.96 15.46Q37.83 16.07 37.83 16.92L37.83 16.92Q37.83 17.80 38.09 18.35Q38.34 18.89 38.70 19.19Q39.06 19.49 39.46 19.59Q39.86 19.70 40.14 19.70L40.14 19.70Q40.38 19.70 40.76 19.61Q41.13 19.52 41.50 19.29Q41.87 19.05 42.18 18.64Q42.48 18.22 42.59 17.57L42.59 17.57Q42.90 18.04 43.09 18.69Q43.28 19.34 43.28 20.04L43.28 20.04Q43.28 21 42.92 21.91Q42.56 22.83 41.91 23.54Q41.26 24.25 40.35 24.67Q39.43 25.10 38.33 25.10L38.33 25.10Q37.51 25.10 36.81 24.84Q36.11 24.57 35.54 24.11Q34.97 23.64 34.52 23.00Q34.08 22.36 33.78 21.62Q33.48 20.87 33.33 20.05Q33.18 19.23 33.18 18.41L33.18 18.41Q33.18 17.50 33.38 16.55Q33.57 15.60 33.94 14.72Q34.31 13.84 34.85 13.07Q35.39 12.29 36.07 11.72Q36.75 11.16 37.57 10.82Q38.39 10.49 39.32 10.49L39.32 10.49Q40.15 10.49 40.78 10.69Q41.41 10.89 41.88 11.21Q42.35 11.54 42.66 11.97Q42.96 12.40 43.15 12.85Q43.34 13.30 43.41 13.75Q43.49 14.19 43.49 14.57ZM55.97 11.04L55.97 11.04Q55.84 11.53 55.75 12.22Q55.66 12.91 55.59 13.71Q55.52 14.51 55.48 15.38Q55.44 16.24 55.41 17.06L55.41 17.06Q55.34 19.00 55.32 21.14L55.32 21.14Q55.32 22.34 55.18 23.50Q55.03 24.66 54.71 25.69Q54.39 26.73 53.88 27.62Q53.37 28.50 52.63 29.14Q51.90 29.78 50.94 30.14Q49.97 30.50 48.75 30.50L48.75 30.50Q47.61 30.50 46.78 30.27Q45.95 30.04 45.40 29.61Q44.86 29.18 44.60 28.58Q44.33 27.98 44.33 27.27L44.33 27.27Q44.33 26.55 44.58 25.97Q44.82 25.39 45.22 25.00Q45.62 24.60 46.13 24.38Q46.63 24.16 47.14 24.16L47.14 24.16Q47.80 24.16 48.39 24.54Q48.97 24.91 49.28 25.72L49.28 25.72Q49.21 25.66 49.12 25.65Q49.03 25.63 48.94 25.63L48.94 25.63Q48.81 25.63 48.67 25.69Q48.54 25.75 48.43 25.85Q48.33 25.96 48.26 26.09Q48.20 26.23 48.20 26.38L48.20 26.38Q48.20 26.55 48.27 26.68Q48.34 26.80 48.44 26.87Q48.54 26.94 48.66 26.97Q48.79 27 48.89 27L48.89 27Q49.05 27 49.30 26.93Q49.55 26.86 49.81 26.64Q50.07 26.41 50.34 26.02Q50.60 25.62 50.81 24.96Q51.01 24.29 51.13 23.34Q51.26 22.39 51.25 21.07L51.25 21.07Q50.94 21.89 50.61 22.40Q50.27 22.91 49.90 23.19Q49.54 23.47 49.13 23.57Q48.73 23.66 48.27 23.66L48.27 23.66Q47.70 23.66 47.07 23.46Q46.44 23.25 45.92 22.73Q45.40 22.21 45.06 21.30Q44.72 20.40 44.72 19.01L44.72 19.01Q44.72 18.82 44.72 18.74Q44.73 18.67 44.73 18.63Q44.73 18.59 44.74 18.53Q44.75 18.47 44.75 18.30Q44.75 18.13 44.76 17.81Q44.77 17.50 44.77 16.92L44.77 16.92Q44.77 16.25 44.74 15.41Q44.72 14.57 44.64 13.76Q44.57 12.95 44.43 12.29Q44.29 11.63 44.06 11.31L44.06 11.31Q45.01 11.47 45.85 11.53Q46.69 11.59 47.38 11.59L47.38 11.59Q47.84 11.59 48.21 11.57Q48.57 11.55 48.84 11.53L48.84 11.53Q49.15 11.51 49.39 11.47L49.39 11.47Q49.30 11.67 49.19 12.23Q49.08 12.80 48.97 13.58Q48.87 14.37 48.80 15.30Q48.73 16.23 48.73 17.18L48.73 17.18Q48.73 17.89 48.83 18.40Q48.94 18.90 49.12 19.22Q49.30 19.55 49.54 19.70Q49.78 19.85 50.06 19.85L50.06 19.85Q50.51 19.85 50.77 19.49Q51.04 19.13 51.22 18.57L51.22 18.57Q51.20 17.85 51.14 16.88Q51.08 15.90 50.98 14.85Q50.88 13.79 50.72 12.72Q50.57 11.65 50.33 10.72L50.33 10.72Q50.70 10.85 51.20 10.96L51.20 10.96Q51.63 11.05 52.25 11.12Q52.88 11.18 53.72 11.18L53.72 11.18Q54.71 11.18 55.97 11.04ZM74.33 24.69L74.33 24.69Q73.57 24.63 72.91 24.62Q72.25 24.60 71.68 24.60L71.68 24.60Q70.58 24.60 69.84 24.66Q69.11 24.73 68.64 24.80L68.64 24.80Q68.09 24.88 67.76 24.98L67.76 24.98Q67.80 24.62 67.85 24.30Q67.90 23.99 67.93 23.69Q67.96 23.39 67.97 23.09Q67.99 22.79 67.99 22.46L67.99 22.46Q67.99 21.18 67.89 20.32Q67.79 19.46 67.61 18.89Q67.42 18.32 67.15 17.96Q66.88 17.61 66.55 17.33L66.55 17.33Q66.53 17.86 66.52 18.35Q66.50 18.84 66.50 19.39L66.50 19.39Q66.50 19.93 66.53 20.52Q66.55 21.11 66.61 21.76Q66.67 22.42 66.79 23.16Q66.90 23.91 67.08 24.77L67.08 24.77Q67.07 24.73 66.77 24.67Q66.48 24.61 65.99 24.56Q65.50 24.52 64.86 24.49Q64.22 24.46 63.53 24.46L63.53 24.46Q62.63 24.46 61.72 24.52Q60.82 24.59 60.09 24.77L60.09 24.77Q60.38 24.41 60.60 23.85Q60.83 23.30 61.01 22.63Q61.18 21.96 61.31 21.22Q61.43 20.48 61.52 19.77L61.52 19.77Q61.73 18.09 61.80 16.20L61.80 16.20Q61.80 15.73 61.81 15.01Q61.82 14.30 61.79 13.45Q61.76 12.61 61.69 11.72Q61.63 10.83 61.48 10.01Q61.34 9.19 61.10 8.51Q60.87 7.83 60.50 7.42L60.50 7.42Q61.35 7.55 62.14 7.59Q62.94 7.63 63.50 7.63L63.50 7.63Q64.00 7.63 64.41 7.61Q64.83 7.58 65.24 7.56Q65.65 7.54 66.09 7.51Q66.54 7.49 67.08 7.49L67.08 7.49Q67.82 7.49 68.57 7.56Q69.32 7.64 70.00 7.83Q70.69 8.03 71.28 8.36Q71.87 8.70 72.31 9.21Q72.75 9.71 73.00 10.43Q73.25 11.14 73.25 12.09L73.25 12.09Q73.25 12.62 73.12 13.15Q72.98 13.68 72.68 14.19Q72.38 14.70 71.89 15.16Q71.40 15.62 70.70 16.01L70.70 16.01Q71.53 16.35 71.96 16.85Q72.39 17.36 72.57 18Q72.76 18.64 72.78 19.40Q72.80 20.16 72.82 20.98L72.82 20.98Q72.87 21.86 73.04 22.61L73.04 22.61Q73.11 22.92 73.22 23.25Q73.34 23.58 73.49 23.86Q73.65 24.14 73.86 24.36Q74.06 24.59 74.33 24.69ZM66.55 14.59L66.55 14.59Q66.81 14.40 67.13 14.12Q67.45 13.83 67.73 13.48Q68.00 13.14 68.19 12.75Q68.38 12.36 68.38 11.98L68.38 11.98Q68.38 11.60 68.16 11.37Q67.95 11.13 67.68 11.13L67.68 11.13Q67.30 11.13 67.08 11.48Q66.86 11.82 66.73 12.29Q66.61 12.76 66.57 13.24Q66.53 13.71 66.53 13.97L66.53 13.97Q66.53 14.11 66.53 14.27Q66.53 14.43 66.55 14.59ZM80.43 24.46L80.43 24.46Q80.23 24.45 79.96 24.42L79.96 24.42Q79.72 24.41 79.41 24.40Q79.09 24.39 78.68 24.39L78.68 24.39Q77.92 24.39 76.92 24.45Q75.93 24.52 74.77 24.69L74.77 24.69Q74.99 24.25 75.14 23.57Q75.29 22.90 75.39 22.13Q75.49 21.36 75.54 20.58Q75.60 19.79 75.62 19.14Q75.64 18.48 75.65 18.02Q75.66 17.57 75.66 17.45L75.66 17.45Q75.63 15.93 75.55 14.60L75.55 14.60Q75.52 14.04 75.46 13.46Q75.41 12.89 75.34 12.38Q75.27 11.87 75.18 11.47Q75.09 11.06 74.98 10.83L74.98 10.83Q75.93 10.99 76.73 11.05Q77.54 11.11 78.20 11.11L78.20 11.11Q78.62 11.11 78.96 11.09Q79.29 11.07 79.52 11.05L79.52 11.05Q79.80 11.03 80.02 10.99L80.02 10.99Q79.80 12.05 79.67 13.54Q79.54 15.02 79.54 16.72L79.54 16.72Q79.54 17.70 79.58 18.69Q79.63 19.69 79.73 20.68Q79.84 21.67 80.01 22.62Q80.18 23.58 80.43 24.46ZM75.05 7.70L75.05 7.70Q75.05 7.16 75.25 6.69Q75.46 6.21 75.81 5.85Q76.17 5.50 76.65 5.29Q77.13 5.09 77.67 5.09L77.67 5.09Q78.21 5.09 78.69 5.29Q79.16 5.50 79.52 5.85Q79.88 6.21 80.08 6.69Q80.29 7.16 80.29 7.70L80.29 7.70Q80.29 8.24 80.08 8.72Q79.88 9.20 79.52 9.56Q79.16 9.91 78.69 10.12Q78.21 10.32 77.67 10.32L77.67 10.32Q77.13 10.32 76.65 10.12Q76.17 9.91 75.81 9.56Q75.46 9.20 75.25 8.72Q75.05 8.24 75.05 7.70ZM91.43 14.57L91.43 14.57Q91.43 15.06 91.26 15.55Q91.09 16.04 90.77 16.44Q90.46 16.83 89.99 17.08Q89.53 17.33 88.96 17.33L88.96 17.33Q88.44 17.33 88.08 17.16Q87.71 16.98 87.48 16.70Q87.25 16.42 87.13 16.05Q87.02 15.68 87.02 15.29L87.02 15.29Q87.02 14.47 87.42 13.88L87.42 13.88Q87.48 14.07 87.59 14.17Q87.70 14.27 87.80 14.32L87.80 14.32Q87.91 14.37 88.03 14.38L88.03 14.38Q88.37 14.38 88.46 14.23Q88.56 14.07 88.58 13.88L88.58 13.88Q88.58 13.68 88.43 13.49Q88.28 13.30 87.90 13.30L87.90 13.30Q87.80 13.30 87.60 13.33Q87.41 13.36 87.17 13.48Q86.93 13.59 86.68 13.82Q86.44 14.05 86.23 14.46Q86.03 14.86 85.90 15.46Q85.77 16.07 85.77 16.92L85.77 16.92Q85.77 17.80 86.03 18.35Q86.29 18.89 86.64 19.19Q87 19.49 87.40 19.59Q87.80 19.70 88.08 19.70L88.08 19.70Q88.32 19.70 88.70 19.61Q89.07 19.52 89.44 19.29Q89.81 19.05 90.12 18.64Q90.42 18.22 90.53 17.57L90.53 17.57Q90.84 18.04 91.03 18.69Q91.22 19.34 91.22 20.04L91.22 20.04Q91.22 21 90.86 21.91Q90.50 22.83 89.85 23.54Q89.20 24.25 88.29 24.67Q87.38 25.10 86.27 25.10L86.27 25.10Q85.45 25.10 84.75 24.84Q84.05 24.57 83.48 24.11Q82.91 23.64 82.46 23.00Q82.02 22.36 81.72 21.62Q81.42 20.87 81.27 20.05Q81.12 19.23 81.12 18.41L81.12 18.41Q81.12 17.50 81.32 16.55Q81.52 15.60 81.88 14.72Q82.25 13.84 82.79 13.07Q83.33 12.29 84.01 11.72Q84.69 11.16 85.51 10.82Q86.33 10.49 87.26 10.49L87.26 10.49Q88.09 10.49 88.72 10.69Q89.36 10.89 89.82 11.21Q90.29 11.54 90.60 11.97Q90.90 12.40 91.09 12.85Q91.28 13.30 91.35 13.75Q91.43 14.19 91.43 14.57ZM102.49 13.61L102.49 13.61Q102.49 14.48 102.24 15.32Q101.99 16.15 101.36 16.79Q100.72 17.44 99.65 17.82Q98.58 18.21 96.93 18.21L96.93 18.21Q96.97 18.79 97.17 19.17Q97.36 19.56 97.63 19.79Q97.90 20.03 98.20 20.14Q98.51 20.26 98.77 20.31Q99.02 20.36 99.20 20.36Q99.38 20.36 99.38 20.36L99.38 20.36Q100.10 20.27 100.68 19.98L100.68 19.98Q100.92 19.86 101.16 19.68Q101.39 19.50 101.58 19.25Q101.78 19.00 101.90 18.67Q102.02 18.35 102.05 17.93L102.05 17.93Q102.35 18.69 102.47 19.35Q102.60 20.02 102.60 20.59L102.60 20.59Q102.60 21.64 102.22 22.53Q101.84 23.41 101.17 24.06Q100.50 24.70 99.58 25.06Q98.66 25.42 97.58 25.42L97.58 25.42Q96.53 25.42 95.55 25.05Q94.57 24.69 93.81 23.90Q93.06 23.11 92.61 21.84Q92.16 20.58 92.16 18.77L92.16 18.77Q92.16 16.82 92.72 15.30Q93.28 13.79 94.23 12.77Q95.18 11.74 96.43 11.21Q97.68 10.68 99.05 10.68L99.05 10.68Q99.73 10.68 100.35 10.83Q100.98 10.98 101.46 11.33Q101.93 11.68 102.21 12.24Q102.49 12.80 102.49 13.61ZM96.88 16.28L96.88 16.28Q97.21 16.27 97.64 16.14Q98.07 16.02 98.46 15.80Q98.85 15.57 99.11 15.25Q99.38 14.92 99.38 14.50L99.38 14.50Q99.38 14.23 99.19 14.06Q99 13.90 98.71 13.90L98.71 13.90Q98.30 13.90 97.97 14.13Q97.65 14.37 97.42 14.72Q97.20 15.07 97.05 15.49Q96.91 15.91 96.88 16.28ZM119.48 15.71L119.48 15.71Q119.39 16.24 119.35 16.75Q119.31 17.26 119.31 17.79L119.31 17.79Q119.31 18.81 119.48 19.83L119.48 19.83Q119.21 19.70 118.91 19.59Q118.61 19.49 118.30 19.39L118.30 19.39Q118.43 20.73 118.65 22.00Q118.86 23.27 119.19 24.43L119.19 24.43Q118.96 24.41 118.65 24.39L118.65 24.39Q118.38 24.36 118.00 24.35Q117.62 24.34 117.13 24.34L117.13 24.34Q116.19 24.34 114.93 24.42Q113.67 24.50 112.21 24.74L112.21 24.74Q112.42 24.30 112.58 23.66Q112.75 23.02 112.87 22.27Q112.99 21.53 113.07 20.72Q113.14 19.91 113.19 19.15L113.19 19.15Q112.96 19.16 112.37 19.14Q111.79 19.11 110.91 19.14Q110.04 19.16 108.93 19.27Q107.81 19.37 106.52 19.63L106.52 19.63Q107.11 17.82 107.61 16.29Q108.12 14.75 108.53 13.34Q108.94 11.92 109.23 10.54Q109.52 9.15 109.69 7.65L109.69 7.65Q111.95 7.85 114.19 7.82Q116.43 7.79 118.69 7.61L118.69 7.61Q118.42 8.93 118.25 10.78Q118.09 12.62 118.09 14.73L118.09 14.73L118.09 16.15Q118.49 16.05 118.84 15.96Q119.19 15.87 119.48 15.71ZM113.31 16.49L113.31 16.49Q113.31 16.18 113.30 15.68Q113.30 15.18 113.28 14.54Q113.26 13.91 113.24 13.18Q113.21 12.45 113.17 11.68L113.17 11.68Q112.64 12.70 112.32 13.92Q112.01 15.14 111.75 16.42L111.75 16.42Q112.02 16.44 112.23 16.45Q112.44 16.46 112.62 16.47Q112.79 16.48 112.96 16.48Q113.12 16.49 113.31 16.49ZM134.14 16.42L134.14 16.42Q134.14 17.45 133.97 18.49Q133.80 19.52 133.46 20.48Q133.11 21.43 132.57 22.26Q132.02 23.09 131.28 23.70Q130.54 24.30 129.57 24.66Q128.61 25.01 127.43 25.01L127.43 25.01Q126.25 25.01 125.30 24.69Q124.35 24.38 123.60 23.81Q122.85 23.24 122.31 22.44Q121.77 21.64 121.42 20.69Q121.07 19.73 120.90 18.65Q120.73 17.57 120.73 16.42L120.73 16.42Q120.73 14.34 121.25 12.64Q121.77 10.93 122.68 9.71Q123.59 8.50 124.81 7.82Q126.04 7.15 127.43 7.15L127.43 7.15Q128.99 7.15 130.23 7.76Q131.47 8.37 132.34 9.54Q133.21 10.72 133.68 12.45Q134.14 14.18 134.14 16.42ZM129.40 15.89L129.40 15.89Q129.40 14.88 129.25 14.09Q129.11 13.29 128.84 12.73Q128.58 12.18 128.20 11.88Q127.82 11.59 127.35 11.59L127.35 11.59Q126.90 11.59 126.53 11.96Q126.16 12.33 125.90 12.93Q125.64 13.54 125.48 14.31Q125.33 15.08 125.33 15.89L125.33 15.89Q125.33 16.83 125.46 17.59Q125.58 18.35 125.82 18.89Q126.07 19.43 126.45 19.72Q126.83 20.02 127.35 20.02L127.35 20.02Q127.88 20.02 128.26 19.73Q128.64 19.44 128.89 18.91Q129.15 18.38 129.28 17.61Q129.40 16.84 129.40 15.89ZM148.83 16.42L148.83 16.42Q148.83 17.45 148.66 18.49Q148.49 19.52 148.14 20.48Q147.80 21.43 147.25 22.26Q146.71 23.09 145.96 23.70Q145.22 24.30 144.26 24.66Q143.30 25.01 142.11 25.01L142.11 25.01Q140.93 25.01 139.98 24.69Q139.03 24.38 138.28 23.81Q137.53 23.24 136.99 22.44Q136.45 21.64 136.10 20.69Q135.75 19.73 135.58 18.65Q135.41 17.57 135.41 16.42L135.41 16.42Q135.41 14.34 135.93 12.64Q136.45 10.93 137.36 9.71Q138.27 8.50 139.49 7.82Q140.72 7.15 142.11 7.15L142.11 7.15Q143.67 7.15 144.91 7.76Q146.16 8.37 147.02 9.54Q147.89 10.72 148.36 12.45Q148.83 14.18 148.83 16.42ZM144.08 15.89L144.08 15.89Q144.08 14.88 143.94 14.09Q143.79 13.29 143.53 12.73Q143.26 12.18 142.88 11.88Q142.50 11.59 142.03 11.59L142.03 11.59Q141.59 11.59 141.22 11.96Q140.85 12.33 140.58 12.93Q140.32 13.54 140.17 14.31Q140.02 15.08 140.02 15.89L140.02 15.89Q140.02 16.83 140.14 17.59Q140.26 18.35 140.51 18.89Q140.75 19.43 141.13 19.72Q141.52 20.02 142.03 20.02L142.03 20.02Q142.56 20.02 142.94 19.73Q143.32 19.44 143.58 18.91Q143.84 18.38 143.96 17.61Q144.08 16.84 144.08 15.89ZM165.74 24.74L165.74 24.74Q165.38 24.68 164.94 24.66Q164.51 24.64 164.04 24.64L164.04 24.64Q163.48 24.64 162.90 24.67Q162.32 24.70 161.77 24.75Q161.21 24.80 160.72 24.86Q160.23 24.91 159.87 24.96L159.87 24.96Q160.37 23.26 160.65 21.33Q160.92 19.39 160.92 17.04L160.92 17.04Q160.92 16.86 160.92 16.57Q160.91 16.28 160.89 15.94Q160.86 15.60 160.81 15.25Q160.76 14.91 160.66 14.63Q160.56 14.34 160.41 14.17Q160.25 13.99 160.03 13.99L160.03 13.99Q159.70 13.99 159.39 14.23Q159.08 14.46 158.84 14.85Q158.60 15.23 158.46 15.74Q158.31 16.24 158.31 16.78L158.31 16.78Q158.31 17.75 158.36 18.76Q158.40 19.76 158.51 20.74Q158.61 21.73 158.78 22.67Q158.94 23.61 159.19 24.46L159.19 24.46Q158.99 24.45 158.72 24.42L158.72 24.42Q158.48 24.41 158.17 24.40Q157.85 24.39 157.44 24.39L157.44 24.39Q156.68 24.39 155.68 24.45Q154.69 24.52 153.53 24.69L153.53 24.69Q153.67 24.04 153.77 23.09Q153.88 22.14 153.95 21.02Q154.02 19.91 154.06 18.70Q154.10 17.48 154.10 16.30L154.10 16.30Q154.10 15.42 154.08 14.58Q154.05 13.73 154.01 12.98Q153.97 12.23 153.90 11.60Q153.83 10.97 153.74 10.51L153.74 10.51Q154.69 10.68 155.50 10.74Q156.30 10.80 156.96 10.80L156.96 10.80Q157.38 10.80 157.72 10.79Q158.05 10.77 158.29 10.75L158.29 10.75Q158.57 10.71 158.78 10.68L158.78 10.68Q158.71 11.04 158.64 11.45Q158.58 11.86 158.52 12.34L158.52 12.34Q158.91 11.85 159.34 11.48Q159.77 11.11 160.21 10.86Q160.65 10.62 161.09 10.49Q161.52 10.37 161.91 10.37L161.91 10.37Q162.75 10.37 163.37 10.72Q163.98 11.06 164.38 11.80Q164.79 12.54 164.99 13.69Q165.19 14.84 165.19 16.44L165.19 16.44Q165.19 17.54 165.19 18.68Q165.20 19.82 165.25 20.91Q165.29 22.00 165.41 22.97Q165.53 23.95 165.74 24.74ZM177.74 17.66L177.74 17.66Q177.74 18.34 177.63 19.15Q177.53 19.97 177.28 20.79Q177.04 21.62 176.61 22.40Q176.19 23.18 175.56 23.78Q174.94 24.38 174.07 24.74Q173.20 25.10 172.05 25.10L172.05 25.10Q170.91 25.10 170.04 24.76Q169.18 24.42 168.57 23.85Q167.95 23.29 167.55 22.54Q167.16 21.80 166.92 20.98Q166.69 20.16 166.60 19.32Q166.51 18.48 166.51 17.73L166.51 17.73Q166.51 16.41 166.86 15.13Q167.21 13.86 167.94 12.87Q168.66 11.87 169.74 11.26Q170.82 10.65 172.29 10.65L172.29 10.65Q173.27 10.65 174.06 10.95Q174.84 11.25 175.45 11.77Q176.06 12.28 176.49 12.97Q176.92 13.66 177.20 14.44Q177.48 15.21 177.61 16.04Q177.74 16.88 177.74 17.66ZM173.66 18.05L173.66 18.05Q173.66 17.78 173.64 17.37Q173.63 16.97 173.57 16.52Q173.51 16.08 173.41 15.63Q173.31 15.19 173.14 14.84Q172.98 14.48 172.74 14.26Q172.50 14.04 172.17 14.04L172.17 14.04Q171.86 14.04 171.62 14.25Q171.39 14.46 171.22 14.80Q171.05 15.14 170.94 15.57Q170.82 16.00 170.76 16.42Q170.70 16.85 170.67 17.24Q170.64 17.64 170.64 17.91L170.64 17.91Q170.64 18.29 170.70 18.84Q170.75 19.39 170.92 19.90Q171.08 20.40 171.37 20.76Q171.66 21.12 172.13 21.12L172.13 21.12Q172.57 21.12 172.87 20.79Q173.17 20.46 173.34 19.99Q173.52 19.51 173.59 18.98Q173.66 18.46 173.66 18.05ZM185.04 13.88L185.04 13.88Q184.68 13.88 184.38 14.08Q184.09 14.29 183.86 14.65Q183.63 15.02 183.46 15.54Q183.29 16.05 183.19 16.68L183.19 16.68Q183.19 17.67 183.23 18.69Q183.28 19.71 183.39 20.71Q183.49 21.70 183.66 22.65Q183.83 23.60 184.08 24.46L184.08 24.46Q183.89 24.45 183.64 24.42L183.64 24.42Q183.43 24.41 183.13 24.40Q182.84 24.39 182.45 24.39L182.45 24.39Q181.72 24.39 180.77 24.45Q179.81 24.52 178.65 24.69L178.65 24.69Q178.79 24.04 178.90 23.09Q179.00 22.14 179.07 21.02Q179.14 19.91 179.19 18.70Q179.23 17.48 179.23 16.30L179.23 16.30Q179.23 15.42 179.20 14.58Q179.18 13.73 179.14 12.98Q179.10 12.23 179.03 11.60Q178.96 10.97 178.86 10.51L178.86 10.51Q179.81 10.68 180.59 10.74Q181.37 10.80 181.99 10.80L181.99 10.80Q182.39 10.80 182.70 10.79Q183 10.77 183.22 10.75L183.22 10.75Q183.47 10.71 183.67 10.68L183.67 10.68Q183.53 11.26 183.46 11.98L183.46 11.98Q184.07 11.24 184.79 10.89Q185.51 10.54 186.14 10.54L186.14 10.54Q187.20 10.54 187.92 10.92Q188.65 11.30 189.09 11.91Q189.54 12.53 189.74 13.31Q189.94 14.10 189.94 14.91L189.94 14.91Q189.94 15.69 189.71 16.44Q189.49 17.19 189.07 17.78Q188.65 18.38 188.03 18.74Q187.41 19.10 186.62 19.10L186.62 19.10Q185.93 19.10 185.44 18.87Q184.96 18.63 184.64 18.26Q184.32 17.88 184.18 17.43Q184.03 16.98 184.03 16.54L184.03 16.54Q184.03 16.07 184.17 15.62Q184.30 15.18 184.56 14.81L184.56 14.81Q184.64 15.07 184.76 15.21Q184.89 15.34 185.02 15.40L185.02 15.40Q185.16 15.47 185.32 15.48L185.32 15.48Q185.75 15.48 185.97 15.28Q186.19 15.08 186.19 14.81L186.19 14.81Q186.19 14.68 186.14 14.52Q186.09 14.36 185.97 14.21Q185.85 14.07 185.63 13.97Q185.40 13.88 185.04 13.88ZM207.98 24.74L207.98 24.74Q207.62 24.68 207.22 24.66Q206.81 24.64 206.38 24.64L206.38 24.64Q205.85 24.64 205.32 24.67Q204.80 24.70 204.29 24.75Q203.79 24.80 203.33 24.86Q202.88 24.91 202.51 24.96L202.51 24.96Q202.66 24.36 202.79 23.49Q202.91 22.62 202.99 21.57Q203.07 20.53 203.12 19.38Q203.16 18.22 203.16 17.04L203.16 17.04Q203.16 16.86 203.15 16.57Q203.14 16.28 203.12 15.94Q203.10 15.60 203.04 15.25Q202.99 14.91 202.89 14.63Q202.79 14.34 202.65 14.17Q202.50 13.99 202.28 13.99L202.28 13.99Q202.04 13.99 201.82 14.29Q201.60 14.58 201.39 15.07L201.39 15.07Q201.42 15.73 201.45 16.62Q201.47 17.52 201.48 18.49Q201.49 19.46 201.50 20.41Q201.50 21.36 201.52 22.11Q201.53 22.86 201.54 23.33Q201.55 23.79 201.57 23.79L201.57 23.79Q201.05 23.71 200.61 23.66Q200.17 23.61 199.72 23.61L199.72 23.61Q199.14 23.61 198.46 23.71Q197.78 23.80 196.83 24L196.83 24Q196.98 22.89 197.11 21.70L197.11 21.70Q197.21 20.68 197.31 19.45Q197.40 18.22 197.40 17.04L197.40 17.04Q197.40 16.86 197.40 16.57Q197.39 16.28 197.37 15.94Q197.34 15.60 197.29 15.25Q197.24 14.91 197.14 14.63Q197.04 14.34 196.89 14.17Q196.73 13.99 196.51 13.99L196.51 13.99Q196.14 13.99 195.90 14.21Q195.66 14.43 195.52 14.79Q195.38 15.15 195.32 15.63Q195.27 16.10 195.27 16.63L195.27 16.63Q195.27 17.63 195.32 18.64Q195.36 19.66 195.47 20.67Q195.57 21.67 195.74 22.63Q195.90 23.59 196.15 24.46L196.15 24.46Q195.95 24.45 195.68 24.42L195.68 24.42Q195.45 24.41 195.13 24.40Q194.81 24.39 194.40 24.39L194.40 24.39Q193.64 24.39 192.64 24.45Q191.65 24.52 190.49 24.69L190.49 24.69Q190.63 24.04 190.73 23.09Q190.84 22.14 190.91 21.02Q190.98 19.91 191.02 18.70Q191.06 17.48 191.06 16.30L191.06 16.30Q191.06 15.42 191.04 14.58Q191.02 13.73 190.97 12.98Q190.93 12.23 190.86 11.60Q190.79 10.97 190.70 10.51L190.70 10.51Q191.65 10.68 192.46 10.74Q193.27 10.80 193.92 10.80L193.92 10.80Q194.34 10.80 194.68 10.79Q195.01 10.77 195.25 10.75L195.25 10.75Q195.53 10.71 195.74 10.68L195.74 10.68Q195.67 10.98 195.62 11.33Q195.56 11.67 195.50 12.07L195.50 12.07Q196.16 11.23 196.91 10.80Q197.66 10.37 198.39 10.37L198.39 10.37Q199.39 10.37 200.03 10.87Q200.67 11.37 201 12.46L201 12.46Q201.69 11.40 202.52 10.89Q203.34 10.37 204.14 10.37L204.14 10.37Q204.98 10.37 205.65 10.72Q206.31 11.06 206.75 11.80Q207.20 12.54 207.43 13.69Q207.67 14.84 207.67 16.44L207.67 16.44Q207.67 17.54 207.67 18.74Q207.68 19.93 207.71 21.05Q207.74 22.17 207.80 23.14Q207.87 24.11 207.98 24.74ZM221.09 24.67L221.09 24.67Q220.86 24.64 220.57 24.62L220.57 24.62Q220.32 24.60 219.98 24.59Q219.63 24.57 219.22 24.57L219.22 24.57Q218.64 24.57 217.94 24.62Q217.24 24.67 216.50 24.80L216.50 24.80L216.55 21.50Q216.11 23.25 215.24 24.20Q214.38 25.15 213.22 25.15L213.22 25.15Q212.86 25.15 212.40 25.05Q211.95 24.96 211.47 24.70Q211.00 24.43 210.54 23.96Q210.09 23.50 209.74 22.75Q209.39 22.01 209.18 20.95Q208.97 19.89 208.97 18.43L208.97 18.43Q208.97 16.46 209.37 15.06Q209.77 13.66 210.39 12.77Q211.01 11.88 211.76 11.47Q212.51 11.06 213.22 11.06L213.22 11.06Q213.83 11.06 214.33 11.23Q214.83 11.40 215.21 11.67Q215.60 11.93 215.88 12.26Q216.16 12.59 216.34 12.91L216.34 12.91Q216.30 12.52 216.23 12.06Q216.16 11.61 216.07 11.13L216.07 11.13Q216.83 11.29 217.62 11.33Q218.40 11.38 219.07 11.38L219.07 11.38Q219.87 11.38 220.36 11.34L220.36 11.34Q220.64 11.33 220.88 11.31L220.88 11.31Q220.75 11.89 220.64 12.62Q220.54 13.35 220.46 14.17Q220.38 15 220.34 15.91Q220.30 16.82 220.30 17.77L220.30 17.77Q220.30 19.54 220.48 21.32Q220.65 23.10 221.09 24.67ZM216.27 17.95L216.27 17.95L216.27 16.05Q216.27 15.74 216.23 15.41Q216.20 15.08 216.08 14.81Q215.95 14.54 215.72 14.37Q215.48 14.20 215.09 14.20L215.09 14.20Q214.66 14.20 214.39 14.50Q214.11 14.79 213.94 15.30Q213.77 15.81 213.71 16.51Q213.64 17.20 213.64 18.02L213.64 18.02Q213.64 18.49 213.71 18.97Q213.77 19.45 213.93 19.85Q214.08 20.24 214.34 20.48Q214.59 20.73 214.97 20.73L214.97 20.73Q215.39 20.73 215.65 20.44Q215.91 20.14 216.04 19.71Q216.18 19.28 216.22 18.80Q216.27 18.33 216.27 17.95ZM227.54 24.46L227.54 24.46Q227.34 24.45 227.07 24.42L227.07 24.42Q226.84 24.41 226.52 24.40Q226.20 24.39 225.79 24.39L225.79 24.39Q225.02 24.39 224.03 24.45Q223.04 24.52 221.88 24.69L221.88 24.69Q222.05 24.36 222.18 23.78Q222.30 23.20 222.40 22.47Q222.49 21.74 222.56 20.91Q222.62 20.09 222.66 19.25Q222.70 18.42 222.72 17.64Q222.74 16.86 222.75 16.24Q222.76 15.61 222.76 15.18Q222.76 14.74 222.76 14.61L222.76 14.61Q222.74 12.66 222.66 10.98L222.66 10.98Q222.62 10.28 222.57 9.56Q222.53 8.85 222.46 8.23Q222.39 7.61 222.30 7.14Q222.21 6.67 222.09 6.43L222.09 6.43Q223.04 6.60 223.85 6.66Q224.66 6.71 225.30 6.71L225.30 6.71Q225.73 6.71 226.07 6.70Q226.41 6.68 226.64 6.66L226.64 6.66Q226.92 6.63 227.13 6.60L227.13 6.60Q227.03 7.13 226.94 7.93Q226.85 8.74 226.79 9.75Q226.72 10.76 226.69 11.92Q226.65 13.08 226.65 14.31L226.65 14.31Q226.65 15.71 226.70 17.14Q226.75 18.57 226.85 19.91Q226.96 21.25 227.13 22.41Q227.30 23.58 227.54 24.46Z"/></svg>