<svg xmlns="http://www.w3.org/2000/svg" xmlns:xlink="http://www.w3.org/1999/xlink" width="255.50399999999996" height="28.8"><path fill="black" d="M7.08 23.36L7.08 23.36Q5.16 23.36 3.76 22.75Q2.35 22.14 1.57 20.91Q0.79 19.68 0.76 17.82L0.76 17.82L3.49 17.82Q3.54 18.83 3.99 19.51Q4.44 20.20 5.26 20.53Q6.08 20.87 7.25 20.87L7.25 20.87Q8.36 20.87 9.07 20.60Q9.78 20.34 10.12 19.85Q10.45 19.37 10.45 18.71L10.45 18.71Q10.45 17.99 10.04 17.49Q9.64 16.99 8.75 16.55Q7.87 16.12 6.42 15.61L6.42 15.61Q4.92 15.10 3.80 14.35Q2.68 13.61 2.06 12.58Q1.44 11.56 1.44 10.18L1.44 10.18Q1.44 7.85 2.96 6.62Q4.49 5.40 7.14 5.40L7.14 5.40Q8.98 5.40 10.12 5.96Q11.26 6.53 11.84 7.63Q12.42 8.72 12.61 10.34L12.61 10.34L9.86 10.34Q9.76 9.52 9.42 8.98Q9.08 8.44 8.50 8.17Q7.92 7.90 7.04 7.90L7.04 7.90Q5.69 7.90 4.96 8.44Q4.22 8.99 4.22 10.07L4.22 10.07Q4.22 10.68 4.46 11.18Q4.69 11.69 5.43 12.18Q6.17 12.67 7.66 13.26L7.66 13.26Q8.81 13.72 9.82 14.13Q10.84 14.54 11.61 15.08Q12.38 15.62 12.83 16.43Q13.27 17.23 13.28 18.47L13.28 18.47Q13.31 20.84 11.73 22.10Q10.15 23.36 7.08 23.36ZM21.95 23.27L21.95 23.27Q20.65 23.27 19.88 22.84Q19.12 22.40 18.76 21.82Q18.40 21.24 18.30 20.80L18.30 20.80L17.34 20.84L18.46 19.90Q18.54 20.20 18.83 20.48Q19.12 20.76 19.67 20.93Q20.22 21.11 21.02 21.11L21.02 21.11Q22.37 21.11 23.24 20.06Q24.11 19.02 24.11 16.57L24.11 16.57Q24.11 14.46 23.29 13.33Q22.48 12.19 21.20 12.19L21.20 12.19Q20.30 12.19 19.72 12.44Q19.14 12.70 18.84 13.03Q18.54 13.37 18.46 13.63L18.46 13.63L18.46 12.73Q18.48 12.34 18.67 11.84Q18.85 11.34 19.28 10.87Q19.70 10.39 20.41 10.09Q21.11 9.78 22.15 9.78L22.15 9.78Q23.74 9.78 24.82 10.63Q25.90 11.48 26.45 12.97Q27.01 14.45 27.01 16.33L27.01 16.33Q27.01 18.07 26.59 19.37Q26.16 20.68 25.43 21.54Q24.71 22.40 23.81 22.84Q22.91 23.27 21.95 23.27ZM18.46 27.96L15.64 27.96L15.64 10.03L18.42 10.03L18.46 11.83L18.46 20.00L18.30 20.80L18.46 23.14L18.46 27.96ZM32.59 23.12L29.76 23.12L29.76 4.45L32.59 4.45L32.59 23.12ZM39.02 23.12L36.19 23.12L36.19 10.03L39.06 10.03L39.02 23.12ZM37.64 8.09L37.64 8.09Q36.86 8.09 36.32 7.54Q35.78 7.00 35.78 6.14L35.78 6.14Q35.78 5.30 36.32 4.78Q36.86 4.25 37.64 4.25L37.64 4.25Q38.40 4.25 38.95 4.78Q39.49 5.30 39.49 6.14L39.49 6.14Q39.49 7.00 38.95 7.54Q38.40 8.09 37.64 8.09ZM45.44 23.12L42.61 23.12L42.61 10.03L45.04 10.03L45.35 14.96L45.14 13.97Q45.29 12.89 45.71 11.92Q46.14 10.96 46.99 10.36Q47.84 9.76 49.27 9.76L49.27 9.76Q51.13 9.76 52.15 10.91Q53.17 12.07 53.17 14.45L53.17 14.45L53.17 23.12L50.34 23.12L50.34 15.43Q50.34 14.30 50.12 13.62Q49.90 12.94 49.40 12.63Q48.91 12.32 48.10 12.32L48.10 12.32Q47.21 12.32 46.48 12.85Q45.76 13.37 45.44 14.03L45.44 14.03L45.44 23.12ZM61.94 23.30L61.94 23.30Q60.05 23.30 58.66 22.53Q57.28 21.76 56.53 20.24Q55.79 18.73 55.79 16.54L55.79 16.54Q55.79 14.40 56.57 12.88Q57.36 11.36 58.74 10.57Q60.12 9.77 61.91 9.77L61.91 9.77Q63.67 9.77 64.93 10.46Q66.18 11.16 66.84 12.52Q67.50 13.88 67.50 15.86L67.50 15.86Q67.50 16.25 67.48 16.50Q67.46 16.75 67.44 17.10L67.44 17.10L58.61 17.10Q58.72 19.10 59.59 20.05Q60.47 20.99 61.74 20.99L61.74 20.99Q62.93 20.99 63.56 20.48Q64.19 19.97 64.37 19.33L64.37 19.33L67.10 19.33Q67.00 20.59 66.31 21.49Q65.63 22.38 64.51 22.84Q63.38 23.30 61.94 23.30ZM59.90 15.17L59.90 15.17L64.68 15.17Q64.64 13.73 63.98 12.94Q63.32 12.16 61.81 12.16L61.81 12.16Q60.24 12.16 59.47 13.21Q58.70 14.26 58.61 16.10L58.61 16.10Q58.70 15.56 59.02 15.37Q59.33 15.17 59.90 15.17ZM79.57 23.36L79.57 23.36Q77.65 23.36 76.25 22.75Q74.84 22.14 74.06 20.91Q73.28 19.68 73.25 17.82L73.25 17.82L75.98 17.82Q76.03 18.83 76.48 19.51Q76.93 20.20 77.75 20.53Q78.58 20.87 79.74 20.87L79.74 20.87Q80.86 20.87 81.56 20.60Q82.27 20.34 82.61 19.85Q82.94 19.37 82.94 18.71L82.94 18.71Q82.94 17.99 82.54 17.49Q82.13 16.99 81.25 16.55Q80.36 16.12 78.91 15.61L78.91 15.61Q77.41 15.10 76.29 14.35Q75.17 13.61 74.55 12.58Q73.93 11.56 73.93 10.18L73.93 10.18Q73.93 7.85 75.46 6.62Q76.98 5.40 79.63 5.40L79.63 5.40Q81.47 5.40 82.61 5.96Q83.75 6.53 84.33 7.63Q84.91 8.72 85.10 10.34L85.10 10.34L82.36 10.34Q82.25 9.52 81.91 8.98Q81.58 8.44 80.99 8.17Q80.41 7.90 79.54 7.90L79.54 7.90Q78.18 7.90 77.45 8.44Q76.72 8.99 76.72 10.07L76.72 10.07Q76.72 10.68 76.95 11.18Q77.18 11.69 77.92 12.18Q78.66 12.67 80.15 13.26L80.15 13.26Q81.30 13.72 82.31 14.13Q83.33 14.54 84.10 15.08Q84.88 15.62 85.32 16.43Q85.76 17.23 85.78 18.47L85.78 18.47Q85.80 20.84 84.22 22.10Q82.64 23.36 79.57 23.36ZM91.54 23.27L91.54 23.27Q90.34 23.27 89.41 22.82Q88.49 22.37 87.97 21.56Q87.44 20.76 87.44 19.70L87.44 19.70Q87.44 18.54 87.86 17.78Q88.28 17.03 89.08 16.58Q89.88 16.13 90.96 15.89L90.96 15.89Q91.73 15.72 92.59 15.61Q93.44 15.50 94.18 15.44Q94.91 15.37 95.30 15.35L95.30 15.35L95.30 14.82Q95.30 13.49 94.77 12.82Q94.24 12.16 92.96 12.16L92.96 12.16Q92.15 12.16 91.60 12.35Q91.04 12.55 90.76 13.10Q90.48 13.64 90.46 14.69L90.46 14.69L87.88 14.69Q87.74 13.00 88.36 11.91Q88.98 10.82 90.21 10.30Q91.44 9.78 93.12 9.78L93.12 9.78Q94.12 9.78 95.00 10.00Q95.88 10.22 96.56 10.76Q97.25 11.29 97.64 12.22Q98.04 13.14 98.04 14.56L98.04 14.56L98.04 23.12L95.27 23.12L95.30 20.18Q95.08 21.52 94.15 22.39Q93.23 23.27 91.54 23.27ZM92.29 21.13L92.29 21.13Q92.92 21.13 93.56 20.92Q94.20 20.70 94.69 20.29Q95.17 19.88 95.30 19.33L95.30 19.33L95.30 16.93Q94.82 16.98 94.17 17.10Q93.52 17.22 93.05 17.32L93.05 17.32Q91.70 17.59 91.11 18.04Q90.52 18.49 90.52 19.42L90.52 19.42Q90.52 19.94 90.76 20.33Q91.01 20.72 91.42 20.93Q91.82 21.13 92.29 21.13ZM104.39 23.12L101.56 23.12L101.56 10.03L103.98 10.03L104.29 14.96L104.09 13.97Q104.23 12.89 104.66 11.92Q105.08 10.96 105.94 10.36Q106.79 9.76 108.22 9.76L108.22 9.76Q110.08 9.76 111.10 10.91Q112.12 12.07 112.12 14.45L112.12 14.45L112.12 23.12L109.28 23.12L109.28 15.43Q109.28 14.30 109.06 13.62Q108.84 12.94 108.35 12.63Q107.86 12.32 107.04 12.32L107.04 12.32Q106.15 12.32 105.43 12.85Q104.70 13.37 104.39 14.03L104.39 14.03L104.39 23.12ZM119.86 23.33L119.86 23.33Q118.38 23.33 117.22 22.90Q116.06 22.46 115.39 21.56Q114.71 20.65 114.64 19.24L114.64 19.24L117.37 19.24Q117.53 20.24 118.18 20.66Q118.84 21.08 119.80 21.08L119.80 21.08Q120.49 21.08 121.04 20.95Q121.58 20.81 121.90 20.48Q122.22 20.15 122.22 19.58L122.22 19.58Q122.22 19.19 122.05 18.93Q121.87 18.67 121.52 18.48Q121.16 18.29 120.63 18.12Q120.10 17.95 119.40 17.75L119.40 17.75Q118.15 17.39 117.13 16.90Q116.11 16.40 115.51 15.61Q114.91 14.81 114.91 13.52L114.91 13.52Q114.91 11.77 116.21 10.78Q117.50 9.79 119.54 9.79L119.54 9.79Q120.86 9.79 121.93 10.17Q122.99 10.55 123.67 11.42Q124.36 12.29 124.56 13.78L124.56 13.78L121.82 13.76Q121.64 13.07 121.30 12.69Q120.95 12.31 120.50 12.16Q120.05 12.01 119.52 12.01L119.52 12.01Q118.94 12.01 118.52 12.19Q118.10 12.37 117.88 12.70Q117.65 13.02 117.65 13.48L117.65 13.48Q117.65 14.00 117.95 14.36Q118.26 14.71 118.88 14.97Q119.50 15.23 120.42 15.50L120.42 15.50Q121.16 15.72 121.96 15.98Q122.75 16.24 123.43 16.63Q124.12 17.03 124.54 17.68Q124.96 18.34 124.96 19.38L124.96 19.38Q124.96 21.24 123.56 22.28Q122.16 23.33 119.86 23.33ZM136.96 23.47L136.96 23.47Q134.98 23.47 133.64 22.68Q132.30 21.89 131.67 20.61Q131.04 19.33 131.16 17.86L131.16 17.86L133.93 17.86Q133.92 18.59 134.23 19.28Q134.53 19.97 135.22 20.41Q135.90 20.86 137.06 20.86L137.06 20.86Q137.84 20.86 138.54 20.57Q139.24 20.29 139.67 19.58Q140.10 18.86 140.10 17.57L140.10 17.57Q140.10 15.83 139.31 15.06Q138.52 14.29 137.08 14.29L137.08 14.29Q136.07 14.29 135.18 14.57Q134.29 14.86 133.67 15.37L133.67 15.37L131.47 14.58L132.59 5.68L142.16 5.68L142.16 8.32L134.99 8.32L133.87 13.97Q134.08 13.39 134.38 13.07Q134.68 12.74 135.04 12.50L135.04 12.50Q135.46 12.23 136.12 12.05Q136.78 11.88 137.66 11.88L137.66 11.88Q138.67 11.88 139.62 12.16Q140.57 12.44 141.33 13.09Q142.09 13.74 142.55 14.83Q143.00 15.92 143.00 17.56L143.00 17.56Q143.00 19.25 142.25 20.59Q141.50 21.92 140.15 22.70Q138.80 23.47 136.96 23.47ZM151.24 23.47L151.24 23.47Q149.39 23.47 147.99 22.54Q146.59 21.61 145.81 19.59Q145.03 17.57 145.03 14.29L145.03 14.29Q145.03 11.15 145.81 9.17Q146.59 7.20 147.99 6.26Q149.39 5.33 151.24 5.33L151.24 5.33Q153.07 5.33 154.46 6.26Q155.86 7.20 156.62 9.17Q157.39 11.15 157.39 14.29L157.39 14.29Q157.39 17.57 156.62 19.59Q155.86 21.61 154.46 22.54Q153.07 23.47 151.24 23.47ZM151.24 20.87L151.24 20.87Q152.20 20.87 152.93 20.26Q153.66 19.64 154.08 18.22Q154.50 16.79 154.50 14.32L154.50 14.32Q154.50 11.96 154.08 10.57Q153.66 9.17 152.93 8.55Q152.20 7.93 151.24 7.93L151.24 7.93Q150.29 7.93 149.54 8.56Q148.79 9.18 148.36 10.57Q147.92 11.96 147.92 14.32L147.92 14.32Q147.92 16.79 148.36 18.22Q148.79 19.64 149.53 20.26Q150.28 20.87 151.24 20.87ZM165.55 23.47L165.55 23.47Q163.70 23.47 162.31 22.54Q160.91 21.61 160.13 19.59Q159.35 17.57 159.35 14.29L159.35 14.29Q159.35 11.15 160.13 9.17Q160.91 7.20 162.31 6.26Q163.70 5.33 165.55 5.33L165.55 5.33Q167.39 5.33 168.78 6.26Q170.17 7.20 170.94 9.17Q171.71 11.15 171.71 14.29L171.71 14.29Q171.71 17.57 170.94 19.59Q170.17 21.61 168.78 22.54Q167.39 23.47 165.55 23.47ZM165.55 20.87L165.55 20.87Q166.51 20.87 167.24 20.26Q167.98 19.64 168.40 18.22Q168.82 16.79 168.82 14.32L168.82 14.32Q168.82 11.96 168.40 10.57Q167.98 9.17 167.24 8.55Q166.51 7.93 165.55 7.93L165.55 7.93Q164.60 7.93 163.85 8.56Q163.10 9.18 162.67 10.57Q162.24 11.96 162.24 14.32L162.24 14.32Q162.24 16.79 162.67 18.22Q163.10 19.64 163.85 20.26Q164.59 20.87 165.55 20.87ZM181.61 23.12L178.78 23.12L178.78 10.03L181.20 10.03L181.51 14.96L181.31 13.97Q181.45 12.89 181.88 11.92Q182.30 10.96 183.16 10.36Q184.01 9.76 185.44 9.76L185.44 9.76Q187.30 9.76 188.32 10.91Q189.34 12.07 189.34 14.45L189.34 14.45L189.34 23.12L186.50 23.12L186.50 15.43Q186.50 14.30 186.28 13.62Q186.06 12.94 185.57 12.63Q185.08 12.32 184.26 12.32L184.26 12.32Q183.37 12.32 182.65 12.85Q181.92 13.37 181.61 14.03L181.61 14.03L181.61 23.12ZM197.96 23.30L197.96 23.30Q196.15 23.30 194.81 22.52Q193.46 21.74 192.72 20.23Q191.98 18.71 191.98 16.50L191.98 16.50Q191.98 14.41 192.76 12.90Q193.55 11.39 194.92 10.58Q196.28 9.77 198.01 9.77L198.01 9.77Q199.88 9.77 201.22 10.58Q202.56 11.39 203.28 12.90Q204.00 14.41 204.00 16.50L204.00 16.50Q204.00 18.71 203.20 20.23Q202.40 21.74 201.04 22.52Q199.67 23.30 197.96 23.30ZM198.01 20.89L198.01 20.89Q199.39 20.89 200.27 19.86Q201.14 18.83 201.14 16.50L201.14 16.50Q201.14 14.34 200.29 13.26Q199.44 12.18 197.96 12.18L197.96 12.18Q196.58 12.18 195.71 13.25Q194.84 14.32 194.84 16.50L194.84 16.50Q194.84 18.72 195.73 19.81Q196.61 20.89 198.01 20.89ZM209.53 23.12L206.70 23.12L206.70 10.03L209.12 10.03L209.44 15.07L209.18 14.38Q209.27 13.58 209.50 12.77Q209.74 11.95 210.17 11.27Q210.61 10.58 211.30 10.17Q211.99 9.76 212.99 9.76L212.99 9.76Q213.23 9.76 213.47 9.78Q213.71 9.80 213.91 9.86L213.91 9.86L213.91 12.89Q213.50 12.76 213.04 12.71Q212.58 12.67 212.20 12.67L212.20 12.67Q211.73 12.67 211.19 12.86Q210.65 13.04 210.19 13.42Q209.74 13.79 209.53 14.34L209.53 14.34L209.53 23.12ZM218.87 23.12L216.02 23.12L216.02 10.03L218.46 10.03L218.77 14.96L218.57 13.97Q218.71 12.89 219.13 11.92Q219.55 10.96 220.40 10.36Q221.26 9.76 222.67 9.76L222.67 9.76Q224.24 9.76 225.21 10.65Q226.18 11.54 226.40 13.39L226.40 13.39L226.46 13.58L226.46 23.12L223.62 23.12L223.62 15.43Q223.62 14.30 223.40 13.62Q223.19 12.94 222.73 12.63Q222.26 12.32 221.51 12.32L221.51 12.32Q220.62 12.32 219.90 12.85Q219.18 13.37 218.87 14.03L218.87 14.03L218.87 23.12ZM234.06 23.12L231.22 23.12L231.22 15.43Q231.22 14.30 231 13.62Q230.78 12.94 230.32 12.63Q229.86 12.32 229.10 12.32L229.10 12.32Q228.22 12.32 227.50 12.85Q226.78 13.37 226.46 14.03L226.46 14.03L226.44 14.96L226.25 14.18Q226.37 13.12 226.77 12.10Q227.17 11.09 228.01 10.42Q228.85 9.76 230.27 9.76L230.27 9.76Q232.04 9.76 233.05 10.91Q234.06 12.07 234.06 14.45L234.06 14.45L234.06 23.12ZM240.82 23.27L240.82 23.27Q239.62 23.27 238.69 22.82Q237.77 22.37 237.25 21.56Q236.72 20.76 236.72 19.70L236.72 19.70Q236.72 18.54 237.14 17.78Q237.56 17.03 238.36 16.58Q239.16 16.13 240.24 15.89L240.24 15.89Q241.01 15.72 241.87 15.61Q242.72 15.50 243.46 15.44Q244.19 15.37 244.58 15.35L244.58 15.35L244.58 14.82Q244.58 13.49 244.05 12.82Q243.52 12.16 242.24 12.16L242.24 12.16Q241.43 12.16 240.88 12.35Q240.32 12.55 240.04 13.10Q239.76 13.64 239.74 14.69L239.74 14.69L237.16 14.69Q237.02 13.00 237.64 11.91Q238.26 10.82 239.49 10.30Q240.72 9.78 242.40 9.78L242.40 9.78Q243.40 9.78 244.28 10.00Q245.16 10.22 245.84 10.76Q246.53 11.29 246.92 12.22Q247.32 13.14 247.32 14.56L247.32 14.56L247.32 23.12L244.55 23.12L244.58 20.18Q244.36 21.52 243.43 22.39Q242.51 23.27 240.82 23.27ZM241.57 21.13L241.57 21.13Q242.20 21.13 242.84 20.92Q243.48 20.70 243.97 20.29Q244.45 19.88 244.58 19.33L244.58 19.33L244.58 16.93Q244.10 16.98 243.45 17.10Q242.80 17.22 242.33 17.32L242.33 17.32Q240.98 17.59 240.39 18.04Q239.80 18.49 239.80 19.42L239.80 19.42Q239.80 19.94 240.04 20.33Q240.29 20.72 240.70 20.93Q241.10 21.13 241.57 21.13ZM253.64 23.12L250.81 23.12L250.81 4.45L253.64 4.45L253.64 23.12Z"/></svg>