<svg xmlns="http://www.w3.org/2000/svg" xmlns:xlink="http://www.w3.org/1999/xlink" width="240.88799999999995" height="36"><path fill="black" d="M2.22 21.60L0.70 21.60L5.62 6.26L8.06 6.26L12.98 21.60L11.47 21.60L7.00 7.30L6.68 7.30L2.22 21.60ZM10.34 16.78L3.32 16.78L3.32 15.53L10.34 15.53L10.34 16.78ZM24.73 21.60L23.28 21.60L23.28 14.26Q23.28 13.21 23.00 12.46Q22.72 11.70 22.07 11.29Q21.42 10.88 20.33 10.88L20.33 10.88Q19.32 10.88 18.58 11.27Q17.83 11.65 17.38 12.32Q16.92 13.00 16.75 13.86L16.75 13.86L16.45 12.78L16.78 12.78Q16.93 11.92 17.43 11.21Q17.93 10.51 18.77 10.09Q19.62 9.66 20.83 9.66L20.83 9.66Q22.25 9.66 23.10 10.19Q23.95 10.72 24.34 11.71Q24.73 12.70 24.73 14.11L24.73 14.11L24.73 21.60ZM16.84 21.60L15.38 21.60L15.38 9.90L16.84 9.90L16.76 12.79L16.84 12.86L16.84 21.60ZM32.64 21.85L32.64 21.85Q30.11 21.85 28.80 20.58Q27.49 19.31 27.49 16.96L27.49 16.96L27.49 14.68Q27.49 12.23 28.71 10.92Q29.93 9.61 32.26 9.61L32.26 9.61Q33.82 9.61 34.87 10.20Q35.93 10.79 36.46 11.89Q37.00 13.00 37.00 14.54L37.00 14.54L37.00 14.96Q37.00 15.31 36.97 15.66Q36.95 16.01 36.91 16.36L36.91 16.36L35.57 16.36Q35.59 15.83 35.59 15.35Q35.59 14.88 35.59 14.48L35.59 14.48Q35.59 13.31 35.21 12.49Q34.84 11.66 34.10 11.23Q33.36 10.80 32.26 10.80L32.26 10.80Q30.61 10.80 29.77 11.77Q28.93 12.73 28.93 14.56L28.93 14.56L28.93 15.70L28.94 15.89L28.94 17.10Q28.94 17.90 29.18 18.55Q29.41 19.20 29.90 19.66Q30.38 20.12 31.12 20.36Q31.86 20.60 32.84 20.60L32.84 20.60Q33.98 20.60 34.96 20.29Q35.94 19.97 36.79 19.40L36.79 19.40L36.65 20.71Q35.90 21.23 34.88 21.54Q33.86 21.85 32.64 21.85ZM36.59 16.36L28.25 16.36L28.25 15.24L36.59 15.24L36.59 16.36ZM49.16 21.60L47.39 21.60L42.36 15.95L41.04 15.95L41.04 14.78L42.36 14.78L47.17 9.90L48.92 9.90L43.42 15.52L43.42 15.11L49.16 21.60ZM41.23 21.60L39.78 21.60L39.78 5.69L41.23 5.69L41.23 21.60ZM62.15 21.60L60.65 21.60L60.65 6.49L62.15 6.49L62.15 21.60ZM66.84 7.52L55.96 7.52L55.96 6.26L66.84 6.26L66.84 7.52ZM74.03 21.85L74.03 21.85Q71.50 21.85 70.19 20.58Q68.88 19.31 68.88 16.96L68.88 16.96L68.88 14.68Q68.88 12.23 70.10 10.92Q71.32 9.61 73.64 9.61L73.64 9.61Q75.20 9.61 76.26 10.20Q77.32 10.79 77.85 11.89Q78.38 13.00 78.38 14.54L78.38 14.54L78.38 14.96Q78.38 15.31 78.36 15.66Q78.34 16.01 78.30 16.36L78.30 16.36L76.96 16.36Q76.98 15.83 76.98 15.35Q76.98 14.88 76.98 14.48L76.98 14.48Q76.98 13.31 76.60 12.49Q76.22 11.66 75.49 11.23Q74.75 10.80 73.64 10.80L73.64 10.80Q72 10.80 71.16 11.77Q70.32 12.73 70.32 14.56L70.32 14.56L70.32 15.70L70.33 15.89L70.33 17.10Q70.33 17.90 70.57 18.55Q70.80 19.20 71.29 19.66Q71.77 20.12 72.51 20.36Q73.25 20.60 74.23 20.60L74.23 20.60Q75.37 20.60 76.35 20.29Q77.33 19.97 78.18 19.40L78.18 19.40L78.04 20.71Q77.29 21.23 76.27 21.54Q75.25 21.85 74.03 21.85ZM77.98 16.36L69.64 16.36L69.64 15.24L77.98 15.24L77.98 16.36ZM82.68 21.60L81.23 21.60L81.23 5.69L82.68 5.69L82.68 21.60ZM85.98 9.90L87.44 9.90L87.44 17.24Q87.44 18.28 87.73 19.04Q88.01 19.80 88.66 20.21Q89.30 20.63 90.40 20.63L90.40 20.63Q91.42 20.63 92.15 20.24Q92.89 19.85 93.35 19.17Q93.82 18.49 93.97 17.65L93.97 17.65L94.27 18.72L93.95 18.72Q93.79 19.57 93.29 20.29Q92.80 21 91.95 21.43Q91.10 21.85 89.89 21.85L89.89 21.85Q88.49 21.85 87.63 21.32Q86.77 20.80 86.38 19.80Q85.98 18.80 85.98 17.39L85.98 17.39L85.98 9.90ZM93.89 9.90L95.34 9.90L95.34 21.60L93.89 21.60L93.96 18.71L93.89 18.64L93.89 9.90ZM103.13 18.16L103.13 18.16Q100.82 18.16 99.59 17.13Q98.36 16.10 98.36 14.16L98.36 14.16L98.36 13.75Q98.36 12.55 98.84 11.66Q99.31 10.78 100.36 10.26Q101.40 9.74 103.09 9.71L103.09 9.71L108.91 9.55L108.91 10.72L105.07 10.62L105.07 10.66Q106.04 10.81 106.64 11.26Q107.24 11.70 107.52 12.37Q107.80 13.04 107.80 13.91L107.80 13.91L107.80 14.32Q107.80 16.20 106.61 17.18Q105.43 18.16 103.13 18.16ZM103.06 24.90L103.06 24.90L103.31 24.90Q104.46 24.90 105.30 24.73Q106.14 24.55 106.61 24.16Q107.08 23.76 107.08 23.10L107.08 23.10L107.08 23.06Q107.08 22.31 106.54 21.89Q106.00 21.48 104.70 21.37L104.70 21.37L101.46 21.08L101.96 21.07Q101.18 21.18 100.59 21.41Q100.00 21.64 99.65 22.03Q99.31 22.43 99.31 23.03L99.31 23.03L99.31 23.05Q99.31 23.75 99.78 24.16Q100.25 24.56 101.09 24.73Q101.93 24.90 103.06 24.90ZM103.28 26.09L102.97 26.09Q101.45 26.09 100.32 25.82Q99.19 25.56 98.57 24.97Q97.96 24.37 97.96 23.36L97.96 23.36L97.96 23.32Q97.96 22.56 98.33 22.06Q98.71 21.56 99.36 21.29Q100.01 21.01 100.78 20.93L100.78 20.93L100.76 20.89Q99.65 20.75 99.13 20.35Q98.62 19.94 98.62 19.27L98.62 19.27L98.62 19.26Q98.62 18.82 98.83 18.49Q99.04 18.17 99.48 17.99Q99.92 17.81 100.63 17.77L100.63 17.77L100.63 17.56L102.56 18.07L101.65 18.05Q100.70 18.06 100.34 18.28Q99.97 18.50 99.97 18.92L99.97 18.92L99.97 18.94Q99.97 19.39 100.46 19.63Q100.96 19.86 102.17 19.98L102.17 19.98L104.99 20.27Q106.81 20.45 107.63 21.13Q108.46 21.80 108.46 23.06L108.46 23.06L108.46 23.11Q108.46 24.17 107.82 24.82Q107.18 25.48 106.02 25.78Q104.86 26.09 103.28 26.09L103.28 26.09ZM103.12 17.06L103.12 17.06Q104.21 17.06 104.94 16.73Q105.67 16.40 106.04 15.74Q106.42 15.08 106.42 14.14L106.42 14.14L106.42 13.72Q106.42 12.78 106.05 12.13Q105.68 11.47 104.97 11.14Q104.26 10.80 103.18 10.80L103.18 10.80L103.09 10.80Q101.90 10.80 101.17 11.17Q100.43 11.53 100.09 12.19Q99.76 12.85 99.76 13.73L99.76 13.73L99.76 14.12Q99.76 15.08 100.13 15.74Q100.50 16.39 101.24 16.73Q101.99 17.06 103.12 17.06ZM110.72 9.90L112.19 9.90L112.19 17.24Q112.19 18.28 112.47 19.04Q112.75 19.80 113.40 20.21Q114.05 20.63 115.14 20.63L115.14 20.63Q116.16 20.63 116.90 20.24Q117.64 19.85 118.10 19.17Q118.56 18.49 118.72 17.65L118.72 17.65L119.02 18.72L118.69 18.72Q118.54 19.57 118.04 20.29Q117.54 21 116.69 21.43Q115.85 21.85 114.64 21.85L114.64 21.85Q113.23 21.85 112.37 21.32Q111.52 20.80 111.12 19.80Q110.72 18.80 110.72 17.39L110.72 17.39L110.72 9.90ZM118.63 9.90L120.08 9.90L120.08 21.60L118.63 21.60L118.70 18.71L118.63 18.64L118.63 9.90ZM132.68 21.85L132.68 21.85Q131.71 21.85 130.89 21.69Q130.07 21.53 129.44 21.29Q128.82 21.06 128.42 20.86L128.42 20.86L128.27 19.37Q129.06 19.84 130.17 20.18Q131.28 20.52 132.58 20.52L132.58 20.52Q133.88 20.52 134.69 20.16Q135.50 19.80 135.89 19.13Q136.27 18.46 136.27 17.51L136.27 17.51L136.27 17.16Q136.27 16.22 135.93 15.61Q135.59 14.99 134.84 14.67Q134.09 14.35 132.83 14.34L132.83 14.34L130.26 14.30L130.26 13.12L132.88 13.08Q134.09 13.06 134.81 12.72Q135.53 12.38 135.84 11.78Q136.15 11.17 136.15 10.37L136.15 10.37L136.15 10.10Q136.15 8.74 135.36 8.02Q134.57 7.31 132.73 7.31L132.73 7.31Q131.38 7.31 130.27 7.67Q129.17 8.03 128.36 8.51L128.36 8.51L128.51 7.16Q129.18 6.73 130.30 6.38Q131.42 6.02 132.95 6.02L132.95 6.02Q135.40 6.02 136.53 7.04Q137.66 8.06 137.66 9.91L137.66 9.91L137.66 10.20Q137.66 11.14 137.35 11.86Q137.03 12.59 136.33 13.04Q135.64 13.49 134.52 13.60L134.52 13.60L134.48 13.76L134.47 13.60Q136.24 13.78 137.02 14.67Q137.80 15.56 137.80 17.15L137.80 17.15L137.80 17.60Q137.80 19.57 136.55 20.71Q135.31 21.85 132.68 21.85ZM145.62 21.86L145.62 21.86Q143.00 21.86 141.68 20.36Q140.35 18.86 140.35 16.06L140.35 16.06L140.35 11.82Q140.35 9.00 141.68 7.50Q143.00 6.00 145.62 6.00L145.62 6.00Q148.25 6.00 149.58 7.50Q150.91 9.00 150.91 11.82L150.91 11.82L150.91 16.06Q150.91 18.86 149.58 20.36Q148.25 21.86 145.62 21.86ZM145.62 20.60L145.62 20.60Q147.54 20.60 148.46 19.44Q149.39 18.28 149.39 16.12L149.39 16.12L149.39 11.76Q149.39 9.59 148.46 8.42Q147.54 7.26 145.62 7.26L145.62 7.26Q143.72 7.26 142.79 8.42Q141.86 9.59 141.86 11.76L141.86 11.76L141.86 16.12Q141.86 18.28 142.79 19.44Q143.72 20.60 145.62 20.60ZM158.93 21.86L158.93 21.86Q156.31 21.86 154.99 20.36Q153.66 18.86 153.66 16.06L153.66 16.06L153.66 11.82Q153.66 9.00 154.99 7.50Q156.31 6.00 158.93 6.00L158.93 6.00Q161.56 6.00 162.89 7.50Q164.22 9.00 164.22 11.82L164.22 11.82L164.22 16.06Q164.22 18.86 162.89 20.36Q161.56 21.86 158.93 21.86ZM158.93 20.60L158.93 20.60Q160.85 20.60 161.77 19.44Q162.70 18.28 162.70 16.12L162.70 16.12L162.70 11.76Q162.70 9.59 161.77 8.42Q160.85 7.26 158.93 7.26L158.93 7.26Q157.03 7.26 156.10 8.42Q155.17 9.59 155.17 11.76L155.17 11.76L155.17 16.12Q155.17 18.28 156.10 19.44Q157.03 20.60 158.93 20.60ZM182.15 21.60L180.70 21.60L180.70 14.26Q180.70 13.21 180.41 12.46Q180.13 11.70 179.48 11.29Q178.84 10.88 177.74 10.88L177.74 10.88Q176.74 10.88 175.99 11.27Q175.25 11.65 174.79 12.32Q174.34 13.00 174.17 13.86L174.17 13.86L173.87 12.78L174.19 12.78Q174.35 11.92 174.85 11.21Q175.34 10.51 176.19 10.09Q177.04 9.66 178.25 9.66L178.25 9.66Q179.66 9.66 180.52 10.19Q181.37 10.72 181.76 11.71Q182.15 12.70 182.15 14.11L182.15 14.11L182.15 21.60ZM174.25 21.60L172.80 21.60L172.80 9.90L174.25 9.90L174.18 12.79L174.25 12.86L174.25 21.60ZM189.85 21.89L189.85 21.89Q187.43 21.89 186.17 20.55Q184.91 19.21 184.91 16.69L184.91 16.69L184.91 14.78Q184.91 12.28 186.17 10.94Q187.43 9.61 189.85 9.61L189.85 9.61Q192.28 9.61 193.54 10.94Q194.80 12.28 194.80 14.78L194.80 14.78L194.80 16.69Q194.80 19.21 193.54 20.55Q192.28 21.89 189.85 21.89ZM189.85 20.69L189.85 20.69Q191.56 20.69 192.45 19.68Q193.34 18.67 193.34 16.78L193.34 16.78L193.34 14.70Q193.34 12.82 192.45 11.81Q191.56 10.80 189.85 10.80L189.85 10.80Q188.15 10.80 187.26 11.81Q186.37 12.82 186.37 14.70L186.37 14.70L186.37 16.78Q186.37 18.67 187.26 19.68Q188.15 20.69 189.85 20.69ZM199.08 14.36L199.08 14.36L198.71 13.25L199.07 13.20Q199.45 11.59 200.46 10.66Q201.47 9.73 203.06 9.73L203.06 9.73Q203.48 9.73 203.82 9.80Q204.16 9.86 204.40 9.96L204.40 9.96L204.49 11.38Q204.19 11.27 203.81 11.20Q203.42 11.12 202.97 11.12L202.97 11.12Q201.60 11.12 200.57 11.95Q199.54 12.77 199.08 14.36ZM199.16 21.60L197.71 21.60L197.71 9.90L199.13 9.90L199.04 13.42L199.16 13.54L199.16 21.60ZM222.70 21.60L221.24 21.60L221.24 14.23Q221.24 13.19 220.99 12.44Q220.73 11.69 220.14 11.29Q219.55 10.88 218.56 10.88L218.56 10.88Q217.64 10.88 216.95 11.26Q216.26 11.64 215.84 12.30Q215.42 12.96 215.27 13.79L215.27 13.79L214.99 12.70L215.20 12.70Q215.35 11.89 215.83 11.20Q216.30 10.51 217.10 10.09Q217.91 9.66 219.06 9.66L219.06 9.66Q220.37 9.66 221.17 10.18Q221.98 10.70 222.34 11.69Q222.70 12.68 222.70 14.08L222.70 14.08L222.70 21.60ZM208.02 21.60L206.57 21.60L206.57 9.90L208.02 9.90L207.95 12.80L208.02 12.88L208.02 21.60ZM215.35 21.60L213.91 21.60L213.91 14.23Q213.91 13.20 213.65 12.44Q213.40 11.69 212.81 11.29Q212.22 10.88 211.24 10.88L211.24 10.88Q210.30 10.88 209.61 11.27Q208.92 11.65 208.51 12.32Q208.09 13.00 207.94 13.86L207.94 13.86L207.61 12.78L207.96 12.78Q208.12 11.92 208.57 11.21Q209.03 10.51 209.82 10.09Q210.61 9.66 211.73 9.66L211.73 9.66Q213.35 9.66 214.19 10.49Q215.04 11.32 215.27 12.95L215.27 12.95Q215.32 13.20 215.33 13.47Q215.35 13.74 215.35 14.02L215.35 14.02L215.35 21.60ZM234.40 21.60L232.94 21.60L233.02 18.68L232.96 18.46L232.96 14.68L232.96 13.90Q232.96 12.38 232.19 11.63Q231.43 10.88 229.80 10.88L229.80 10.88Q228.53 10.88 227.48 11.27Q226.44 11.65 225.65 12.14L225.65 12.14L225.79 10.86Q226.22 10.58 226.84 10.30Q227.45 10.02 228.25 9.83Q229.04 9.65 230.00 9.65L230.00 9.65Q231.18 9.65 232.01 9.94Q232.85 10.22 233.38 10.78Q233.90 11.33 234.15 12.11Q234.40 12.89 234.40 13.86L234.40 13.86L234.40 21.60ZM228.84 21.85L228.84 21.85Q227.10 21.85 226.17 21.01Q225.24 20.17 225.24 18.60L225.24 18.60L225.24 18.29Q225.24 16.74 226.19 15.95Q227.15 15.17 229.28 14.86L229.28 14.86L233.20 14.28L233.27 15.38L229.46 15.92Q227.98 16.14 227.33 16.66Q226.68 17.18 226.68 18.20L226.68 18.20L226.68 18.42Q226.68 19.50 227.34 20.06Q228.00 20.63 229.27 20.63L229.27 20.63Q230.36 20.63 231.14 20.23Q231.91 19.84 232.39 19.17Q232.86 18.50 233.02 17.68L233.02 17.68L233.30 18.71L233.00 18.71Q232.86 19.54 232.37 20.26Q231.89 20.98 231.02 21.41Q230.15 21.85 228.84 21.85ZM239.12 21.60L237.67 21.60L237.67 5.69L239.12 5.69L239.12 21.60Z"/></svg>