<svg xmlns="http://www.w3.org/2000/svg" xmlns:xlink="http://www.w3.org/1999/xlink" width="194.86363636363635" height="29.045454545454543"><path fill="black" d="M1.52 5.80L5.21 5.80L5.21 23.25L1.52 23.25L1.52 5.80ZM11.81 15.68L11.81 15.68L11.81 23.25L8.18 23.25L8.18 10.16L11.64 10.16L11.64 12.47L11.80 12.47Q12.23 11.33 13.25 10.66Q14.28 9.99 15.73 9.99L15.73 9.99Q17.10 9.99 18.11 10.59Q19.13 11.18 19.69 12.29Q20.25 13.39 20.25 14.91L20.25 14.91L20.25 23.25L16.62 23.25L16.62 15.56Q16.63 14.36 16.01 13.68Q15.38 13.01 14.29 13.01L14.29 13.01Q13.56 13.01 13.00 13.32Q12.44 13.64 12.13 14.24Q11.82 14.84 11.81 15.68ZM22.18 10.16L30.07 10.16L30.07 12.89L22.18 12.89L22.18 10.16ZM23.97 19.70L23.97 7.02L27.61 7.02L27.61 19.23Q27.61 19.73 27.76 20.01Q27.91 20.28 28.19 20.39Q28.47 20.51 28.83 20.51L28.83 20.51Q29.09 20.51 29.34 20.46Q29.60 20.41 29.74 20.39L29.74 20.39L30.31 23.09Q30.03 23.17 29.54 23.29Q29.05 23.40 28.34 23.43L28.34 23.43Q27.03 23.48 26.04 23.08Q25.06 22.68 24.51 21.84Q23.97 20.99 23.97 19.70L23.97 19.70ZM38.26 23.51L38.26 23.51Q36.24 23.51 34.79 22.68Q33.33 21.86 32.55 20.35Q31.76 18.84 31.76 16.76L31.76 16.76Q31.76 14.74 32.55 13.22Q33.33 11.69 34.76 10.84Q36.19 9.99 38.11 9.99L38.11 9.99Q39.41 9.99 40.53 10.40Q41.65 10.82 42.49 11.64Q43.33 12.47 43.80 13.72Q44.27 14.97 44.27 16.64L44.27 16.64L44.27 17.63L33.21 17.63L33.21 15.38L40.85 15.38Q40.85 14.60 40.51 13.99Q40.17 13.39 39.57 13.04Q38.97 12.70 38.17 12.70L38.17 12.70Q37.35 12.70 36.71 13.08Q36.08 13.46 35.72 14.09Q35.36 14.73 35.35 15.50L35.35 15.50L35.35 17.64Q35.35 18.61 35.71 19.32Q36.08 20.03 36.74 20.41Q37.41 20.80 38.32 20.80L38.32 20.80Q38.92 20.80 39.43 20.63Q39.93 20.45 40.29 20.11Q40.64 19.77 40.83 19.28L40.83 19.28L44.19 19.50Q43.93 20.71 43.15 21.61Q42.36 22.51 41.12 23.01Q39.88 23.51 38.26 23.51ZM50.27 23.25L46.64 23.25L46.64 10.16L50.16 10.16L50.16 12.44L50.29 12.44Q50.65 11.22 51.49 10.60Q52.34 9.97 53.44 9.97L53.44 9.97Q53.71 9.97 54.03 10.01Q54.34 10.04 54.58 10.10L54.58 10.10L54.58 13.32Q54.32 13.24 53.87 13.18Q53.42 13.13 53.05 13.13L53.05 13.13Q52.24 13.13 51.62 13.47Q50.99 13.82 50.63 14.43Q50.27 15.04 50.27 15.84L50.27 15.84L50.27 23.25ZM66.48 23.25L62.67 23.25L69.90 8.93L69.90 8.81L61.47 8.81L61.47 5.80L73.72 5.80L73.72 8.86L66.48 23.25ZM82.72 23.63L82.72 23.63Q80.52 23.63 78.94 22.55Q77.36 21.48 76.51 19.44Q75.66 17.40 75.67 14.54L75.67 14.54Q75.67 11.68 76.52 9.67Q77.37 7.66 78.95 6.61Q80.53 5.56 82.72 5.56L82.72 5.56Q84.91 5.56 86.49 6.61Q88.07 7.67 88.93 9.68Q89.78 11.68 89.77 14.54L89.77 14.54Q89.77 17.41 88.92 19.45Q88.07 21.49 86.50 22.56Q84.92 23.63 82.72 23.63ZM82.72 20.57L82.72 20.57Q84.22 20.57 85.12 19.07Q86.01 17.56 86.00 14.54L86.00 14.54Q86.00 12.55 85.60 11.23Q85.19 9.91 84.46 9.25Q83.72 8.58 82.72 8.58L82.72 8.58Q81.23 8.58 80.34 10.07Q79.44 11.57 79.43 14.54L79.43 14.54Q79.43 16.55 79.84 17.89Q80.24 19.24 80.98 19.90Q81.72 20.57 82.72 20.57ZM99.24 23.63L99.24 23.63Q97.04 23.63 95.46 22.55Q93.88 21.48 93.03 19.44Q92.18 17.40 92.19 14.54L92.19 14.54Q92.19 11.68 93.04 9.67Q93.89 7.66 95.47 6.61Q97.05 5.56 99.24 5.56L99.24 5.56Q101.43 5.56 103.01 6.61Q104.59 7.67 105.44 9.68Q106.30 11.68 106.29 14.54L106.29 14.54Q106.29 17.41 105.44 19.45Q104.59 21.49 103.01 22.56Q101.44 23.63 99.24 23.63ZM99.24 20.57L99.24 20.57Q100.74 20.57 101.63 19.07Q102.53 17.56 102.52 14.54L102.52 14.54Q102.52 12.55 102.12 11.23Q101.71 9.91 100.97 9.25Q100.24 8.58 99.24 8.58L99.24 8.58Q97.75 8.58 96.85 10.07Q95.96 11.57 95.95 14.54L95.95 14.54Q95.95 16.55 96.35 17.89Q96.76 19.24 97.50 19.90Q98.24 20.57 99.24 20.57ZM118.14 15.68L118.14 15.68L118.14 23.25L114.51 23.25L114.51 10.16L117.97 10.16L117.97 12.47L118.12 12.47Q118.56 11.33 119.58 10.66Q120.61 9.99 122.06 9.99L122.06 9.99Q123.43 9.99 124.44 10.59Q125.45 11.18 126.02 12.29Q126.58 13.39 126.58 14.91L126.58 14.91L126.58 23.25L122.95 23.25L122.95 15.56Q122.96 14.36 122.34 13.68Q121.71 13.01 120.62 13.01L120.62 13.01Q119.89 13.01 119.33 13.32Q118.77 13.64 118.46 14.24Q118.15 14.84 118.14 15.68ZM135.35 23.51L135.35 23.51Q133.36 23.51 131.92 22.66Q130.47 21.81 129.69 20.29Q128.91 18.77 128.91 16.76L128.91 16.76Q128.91 14.73 129.69 13.21Q130.47 11.68 131.92 10.84Q133.36 9.99 135.35 9.99L135.35 9.99Q137.34 9.99 138.78 10.84Q140.22 11.68 141.01 13.21Q141.79 14.73 141.79 16.76L141.79 16.76Q141.79 18.77 141.01 20.29Q140.22 21.81 138.78 22.66Q137.34 23.51 135.35 23.51ZM135.37 20.69L135.37 20.69Q136.27 20.69 136.87 20.18Q137.48 19.66 137.79 18.77Q138.10 17.87 138.10 16.73L138.10 16.73Q138.10 15.59 137.79 14.69Q137.48 13.80 136.87 13.28Q136.27 12.76 135.37 12.76L135.37 12.76Q134.45 12.76 133.84 13.28Q133.22 13.80 132.91 14.69Q132.60 15.59 132.60 16.73L132.60 16.73Q132.60 17.87 132.91 18.77Q133.22 19.66 133.84 20.18Q134.45 20.69 135.37 20.69ZM147.79 23.25L144.16 23.25L144.16 10.16L147.68 10.16L147.68 12.44L147.82 12.44Q148.18 11.22 149.02 10.60Q149.86 9.97 150.96 9.97L150.96 9.97Q151.24 9.97 151.55 10.01Q151.87 10.04 152.11 10.10L152.11 10.10L152.11 13.32Q151.85 13.24 151.40 13.18Q150.95 13.13 150.57 13.13L150.57 13.13Q149.77 13.13 149.14 13.47Q148.52 13.82 148.15 14.43Q147.79 15.04 147.79 15.84L147.79 15.84L147.79 23.25ZM157.60 23.25L153.97 23.25L153.97 10.16L157.43 10.16L157.43 12.47L157.59 12.47Q157.99 11.32 158.95 10.65Q159.90 9.99 161.23 9.99L161.23 9.99Q162.58 9.99 163.53 10.66Q164.47 11.33 164.79 12.47L164.79 12.47L164.92 12.47Q165.32 11.34 166.38 10.67Q167.43 9.99 168.87 9.99L168.87 9.99Q170.70 9.99 171.85 11.15Q172.99 12.32 172.99 14.45L172.99 14.45L172.99 23.25L169.37 23.25L169.37 15.16Q169.37 14.07 168.79 13.53Q168.21 12.98 167.34 12.98L167.34 12.98Q166.36 12.98 165.80 13.61Q165.25 14.23 165.25 15.26L165.25 15.26L165.25 23.25L161.73 23.25L161.73 15.09Q161.73 14.12 161.18 13.55Q160.63 12.98 159.73 12.98L159.73 12.98Q159.13 12.98 158.65 13.28Q158.16 13.59 157.88 14.13Q157.60 14.67 157.60 15.39L157.60 15.39L157.60 23.25ZM179.59 23.50L179.59 23.50Q178.34 23.50 177.36 23.06Q176.38 22.62 175.81 21.75Q175.24 20.89 175.24 19.59L175.24 19.59Q175.24 18.50 175.64 17.76Q176.05 17.02 176.74 16.57Q177.43 16.12 178.31 15.89Q179.19 15.66 180.16 15.56L180.16 15.56Q181.30 15.44 182.00 15.34Q182.70 15.23 183.02 15.02Q183.33 14.80 183.33 14.39L183.33 14.39L183.33 14.34Q183.33 13.53 182.83 13.08Q182.32 12.64 181.39 12.64L181.39 12.64Q180.41 12.64 179.83 13.07Q179.25 13.50 179.06 14.15L179.06 14.15L175.70 13.88Q175.96 12.68 176.71 11.81Q177.46 10.93 178.65 10.46Q179.84 9.99 181.41 9.99L181.41 9.99Q182.50 9.99 183.50 10.24Q184.50 10.50 185.28 11.04Q186.06 11.57 186.51 12.41Q186.96 13.25 186.96 14.42L186.96 14.42L186.96 23.25L183.52 23.25L183.52 21.43L183.42 21.43Q183.10 22.05 182.57 22.51Q182.05 22.98 181.30 23.24Q180.56 23.50 179.59 23.50ZM180.63 20.99L180.63 20.99Q181.43 20.99 182.05 20.67Q182.66 20.35 183.01 19.81Q183.36 19.26 183.36 18.57L183.36 18.57L183.36 17.18Q183.19 17.29 182.89 17.38Q182.60 17.47 182.23 17.54Q181.87 17.62 181.50 17.67Q181.13 17.73 180.84 17.77L180.84 17.77Q180.20 17.86 179.72 18.07Q179.24 18.27 178.98 18.62Q178.71 18.96 178.71 19.47L178.71 19.47Q178.71 20.22 179.25 20.60Q179.80 20.99 180.63 20.99ZM189.78 5.80L193.41 5.80L193.41 23.25L189.78 23.25L189.78 5.80Z"/></svg>