<svg xmlns="http://www.w3.org/2000/svg" xmlns:xlink="http://www.w3.org/1999/xlink" width="319.48800000000006" height="38.352000000000004"><path fill="black" d="M6.94 25.54L0.77 25.54L0.77 24.36L1.51 24.36Q1.92 24.36 2.27 24.25Q2.62 24.14 2.82 23.80Q3.02 23.45 3.02 22.75L3.02 22.75L3.02 11.09Q3.02 10.42 2.81 10.09Q2.59 9.77 2.26 9.67Q1.92 9.58 1.51 9.58L1.51 9.58L0.77 9.58L0.77 8.40L5.74 8.40L14.26 20.86L14.26 11.09Q14.26 10.42 14.04 10.09Q13.82 9.77 13.49 9.67Q13.15 9.58 12.74 9.58L12.74 9.58L12 9.58L12 8.40L18.17 8.40L18.17 9.58L17.42 9.58Q17.04 9.58 16.68 9.68Q16.32 9.79 16.13 10.13Q15.94 10.46 15.94 11.18L15.94 11.18L15.94 25.54L13.92 25.54L4.68 12.10L4.68 22.75Q4.68 23.45 4.88 23.80Q5.09 24.14 5.44 24.25Q5.78 24.36 6.19 24.36L6.19 24.36L6.94 24.36L6.94 25.54ZM25.85 25.78L25.85 25.78Q23.09 25.78 21.49 24.12Q19.90 22.46 19.90 19.06L19.90 19.06Q19.90 15.70 21.42 14.04Q22.94 12.38 25.92 12.38L25.92 12.38Q28.70 12.38 30.29 14.04Q31.87 15.70 31.87 19.06L31.87 19.06Q31.87 22.46 30.35 24.12Q28.82 25.78 25.85 25.78ZM25.90 24.36L25.90 24.36Q26.93 24.36 27.54 23.77Q28.15 23.18 28.42 21.98Q28.68 20.78 28.68 19.06L28.68 19.06Q28.68 16.44 28.06 15.13Q27.43 13.82 25.87 13.82L25.87 13.82Q24.34 13.82 23.71 15.13Q23.09 16.44 23.09 19.06L23.09 19.06Q23.09 21.67 23.72 23.02Q24.36 24.36 25.90 24.36ZM38.88 25.78L38.88 25.78Q37.18 25.78 36.28 24.94Q35.38 24.10 35.38 22.01L35.38 22.01L35.38 14.21L33.55 14.21L33.55 13.08Q34.20 13.08 34.78 12.82Q35.35 12.55 35.74 12.17L35.74 12.17Q36.10 11.76 36.38 11.16Q36.67 10.56 36.84 9.70L36.84 9.70L38.50 9.70L38.50 12.67L41.59 12.67L41.59 14.21L38.50 14.21L38.50 21.89Q38.50 23.02 38.92 23.56Q39.34 24.10 40.15 24.10L40.15 24.10Q40.63 24.10 41.03 24.04Q41.42 23.98 41.81 23.88L41.81 23.88L41.81 25.25Q41.45 25.42 40.67 25.60Q39.89 25.78 38.88 25.78ZM49.46 25.78L49.46 25.78Q46.70 25.78 45.11 24.12Q43.51 22.46 43.51 19.06L43.51 19.06Q43.51 15.70 45.04 14.04Q46.56 12.38 49.54 12.38L49.54 12.38Q52.32 12.38 53.90 14.04Q55.49 15.70 55.49 19.06L55.49 19.06Q55.49 22.46 53.96 24.12Q52.44 25.78 49.46 25.78ZM49.51 24.36L49.51 24.36Q50.54 24.36 51.16 23.77Q51.77 23.18 52.03 21.98Q52.30 20.78 52.30 19.06L52.30 19.06Q52.30 16.44 51.67 15.13Q51.05 13.82 49.49 13.82L49.49 13.82Q47.95 13.82 47.33 15.13Q46.70 16.44 46.70 19.06L46.70 19.06Q46.70 21.67 47.34 23.02Q47.98 24.36 49.51 24.36ZM69.12 25.78L69.12 25.78Q67.66 25.78 66.65 25.50Q65.64 25.22 65.02 24.74Q64.39 24.26 64.10 23.65Q63.82 23.04 63.82 22.42L63.82 22.42Q63.82 21.72 64.13 21.28Q64.44 20.83 64.98 20.62Q65.52 20.40 66.14 20.40L66.14 20.40Q66.17 21.62 66.55 22.54Q66.94 23.45 67.67 23.94Q68.40 24.43 69.43 24.43L69.43 24.43Q70.92 24.43 71.75 23.68Q72.58 22.92 72.58 21.67L72.58 21.67Q72.58 20.83 72.17 20.23Q71.76 19.63 70.90 19.13Q70.03 18.62 68.66 18.07L68.66 18.07Q67.06 17.40 66.07 16.66Q65.09 15.91 64.64 14.98Q64.20 14.04 64.20 12.79L64.20 12.79Q64.20 11.38 64.94 10.33Q65.69 9.29 66.96 8.72Q68.23 8.16 69.86 8.16L69.86 8.16Q71.50 8.16 72.58 8.53Q73.66 8.90 74.20 9.53Q74.74 10.15 74.74 10.90L74.74 10.90Q74.74 11.71 74.09 12.23Q73.44 12.74 72.17 12.74L72.17 12.74Q72.17 12.05 71.92 11.30Q71.66 10.56 71.10 10.04Q70.54 9.53 69.58 9.53L69.58 9.53Q68.45 9.53 67.72 10.16Q66.98 10.80 66.98 11.93L66.98 11.93Q66.98 12.72 67.32 13.32Q67.66 13.92 68.50 14.47Q69.34 15.02 70.87 15.65L70.87 15.65Q72.43 16.27 73.43 16.98Q74.42 17.69 74.92 18.59Q75.41 19.49 75.41 20.69L75.41 20.69Q75.41 22.22 74.63 23.36Q73.85 24.50 72.44 25.14Q71.04 25.78 69.12 25.78ZM83.78 25.78L83.78 25.78Q80.90 25.78 79.36 24.04Q77.81 22.30 77.81 19.18L77.81 19.18Q77.81 15.82 79.31 14.10Q80.81 12.38 83.52 12.38L83.52 12.38Q86.04 12.38 87.47 13.84Q88.90 15.29 88.90 18.14L88.90 18.14L88.90 19.32L80.98 19.32Q81.05 21.82 81.90 22.96Q82.75 24.10 84.34 24.10L84.34 24.10Q85.58 24.10 86.45 23.54Q87.31 22.99 87.74 22.25L87.74 22.25Q88.01 22.37 88.16 22.64Q88.32 22.92 88.32 23.28L88.32 23.28Q88.32 23.88 87.83 24.46Q87.34 25.03 86.34 25.40Q85.34 25.78 83.78 25.78ZM81.02 17.88L85.70 17.88Q85.70 16.01 85.21 14.93Q84.72 13.85 83.54 13.85L83.54 13.85Q82.42 13.85 81.77 14.88Q81.12 15.91 81.02 17.88L81.02 17.88ZM98.18 25.54L90.58 25.54L90.58 24.36L90.65 24.36Q91.20 24.36 91.62 24.24Q92.04 24.12 92.29 23.75Q92.54 23.38 92.54 22.63L92.54 22.63L92.54 15.48Q92.54 14.76 92.30 14.41Q92.06 14.06 91.66 13.96Q91.25 13.85 90.72 13.85L90.72 13.85L90.65 13.85L90.65 12.67L95.06 12.67L95.52 14.74L95.64 14.74Q95.95 14.02 96.35 13.49Q96.74 12.96 97.37 12.68Q97.99 12.41 99 12.41L99 12.41Q100.37 12.41 101.03 12.89Q101.69 13.37 101.69 14.28L101.69 14.28Q101.69 15.24 100.99 15.80Q100.30 16.37 98.95 16.37L98.95 16.37Q98.95 15.70 98.84 15.28Q98.74 14.86 98.47 14.64Q98.21 14.42 97.75 14.42L97.75 14.42Q97.10 14.42 96.70 14.89Q96.29 15.36 96.06 16.06Q95.83 16.75 95.75 17.50Q95.66 18.24 95.66 18.74L95.66 18.74L95.66 22.75Q95.66 23.45 95.90 23.80Q96.14 24.14 96.55 24.25Q96.96 24.36 97.44 24.36L97.44 24.36L98.18 24.36L98.18 25.54ZM109.82 25.54L102.50 25.54L102.50 24.36L102.82 24.36Q103.22 24.36 103.64 24.25Q104.06 24.14 104.34 23.81Q104.62 23.47 104.62 22.80L104.62 22.80L104.62 15.36Q104.62 14.69 104.33 14.36Q104.04 14.04 103.63 13.94Q103.22 13.85 102.82 13.85L102.82 13.85L102.60 13.85L102.60 12.67L107.74 12.67L107.74 22.75Q107.74 23.45 108 23.80Q108.26 24.14 108.70 24.25Q109.13 24.36 109.54 24.36L109.54 24.36L109.82 24.36L109.82 25.54ZM106.06 10.42L106.06 10.42Q105.31 10.42 104.80 10.03Q104.28 9.65 104.28 8.78L104.28 8.78Q104.28 7.90 104.80 7.52Q105.31 7.15 106.08 7.15L106.08 7.15Q106.80 7.15 107.33 7.52Q107.86 7.90 107.86 8.78L107.86 8.78Q107.86 9.65 107.33 10.03Q106.80 10.42 106.06 10.42ZM118.97 25.54L110.74 25.54L110.74 24.36L111.19 24.36Q111.62 24.36 112.03 24.25Q112.44 24.14 112.72 23.80Q112.99 23.45 112.99 22.75L112.99 22.75L112.99 14.11L110.83 14.11L110.83 12.67L112.99 12.67L112.99 11.66Q112.99 9.48 114.16 8.28Q115.32 7.08 117.65 7.08L117.65 7.08Q119.09 7.08 119.89 7.30Q120.70 7.51 121.04 7.90Q121.39 8.28 121.39 8.78L121.39 8.78Q121.39 9.29 121.10 9.61Q120.82 9.94 120.23 10.10Q119.64 10.27 118.82 10.27L118.82 10.27Q118.82 9.86 118.69 9.41Q118.56 8.95 118.27 8.64Q117.98 8.33 117.48 8.33L117.48 8.33Q116.71 8.33 116.41 9.05Q116.11 9.77 116.11 11.30L116.11 11.30L116.11 12.67L119.45 12.67L119.45 14.11L116.11 14.11L116.11 22.75Q116.11 23.45 116.38 23.80Q116.64 24.14 117.07 24.25Q117.50 24.36 117.91 24.36L117.91 24.36L118.97 24.36L118.97 25.54ZM137.52 25.54L129.53 25.54L129.53 24.36L130.37 24.36Q130.80 24.36 131.14 24.25Q131.47 24.14 131.68 23.81Q131.88 23.47 131.88 22.78L131.88 22.78L131.88 9.77L129.82 9.77Q128.76 9.77 128.34 10.27Q127.92 10.78 127.82 11.57L127.82 11.57L127.68 12.89L126.22 12.89L126.34 8.40L140.74 8.40L140.86 12.89L139.39 12.89L139.22 11.57Q139.13 10.78 138.72 10.27Q138.31 9.77 137.23 9.77L137.23 9.77L135.17 9.77L135.17 22.75Q135.17 23.45 135.36 23.80Q135.55 24.14 135.91 24.25Q136.27 24.36 136.68 24.36L136.68 24.36L137.52 24.36L137.52 25.54ZM148.68 25.54L141.65 25.54L141.65 24.36L141.77 24.36Q142.32 24.36 142.74 24.24Q143.16 24.12 143.42 23.76Q143.69 23.40 143.69 22.68L143.69 22.68L143.66 9.98Q143.66 9.31 143.38 8.99Q143.09 8.66 142.68 8.57Q142.27 8.47 141.86 8.47L141.86 8.47L141.60 8.47L141.60 7.30L146.78 7.30L146.78 11.76Q146.78 12.31 146.75 12.92Q146.71 13.54 146.68 13.98Q146.64 14.42 146.64 14.42L146.64 14.42L146.81 14.42Q147.24 13.58 147.79 13.14Q148.34 12.70 149.00 12.54Q149.66 12.38 150.43 12.38L150.43 12.38Q152.35 12.38 153.42 13.49Q154.49 14.59 154.49 17.04L154.49 17.04L154.49 22.66Q154.49 23.40 154.69 23.76Q154.90 24.12 155.28 24.24Q155.66 24.36 156.19 24.36L156.19 24.36L156.26 24.36L156.26 25.54L151.37 25.54L151.37 17.50Q151.37 15.94 150.89 15.08Q150.41 14.23 149.18 14.23L149.18 14.23Q148.32 14.23 147.79 14.74Q147.26 15.24 147.02 16.10Q146.78 16.97 146.78 18.02L146.78 18.02L146.81 22.78Q146.81 23.47 147.04 23.81Q147.26 24.14 147.67 24.25Q148.08 24.36 148.61 24.36L148.61 24.36L148.68 24.36L148.68 25.54ZM161.78 25.78L161.78 25.78Q160.73 25.78 159.88 25.36Q159.02 24.94 158.53 24.07Q158.04 23.21 158.04 21.89L158.04 21.89Q158.04 19.97 159.38 19.03Q160.73 18.10 163.44 18L163.44 18L165.43 17.93L165.43 16.56Q165.43 15.74 165.31 15.11Q165.19 14.47 164.82 14.11Q164.45 13.75 163.66 13.75L163.66 13.75Q162.94 13.75 162.53 14.09Q162.12 14.42 161.98 15.01Q161.83 15.60 161.83 16.34L161.83 16.34Q160.44 16.34 159.74 16.00Q159.05 15.65 159.05 14.78L159.05 14.78Q159.05 13.92 159.68 13.39Q160.32 12.86 161.40 12.62Q162.48 12.38 163.75 12.38L163.75 12.38Q166.15 12.38 167.35 13.31Q168.55 14.23 168.55 16.49L168.55 16.49L168.55 22.66Q168.55 23.30 168.68 23.68Q168.82 24.05 169.15 24.20Q169.49 24.36 170.02 24.36L170.02 24.36L170.09 24.36L170.09 25.54L166.10 25.54L165.62 23.74L165.43 23.74Q164.90 24.38 164.44 24.84Q163.97 25.30 163.36 25.54Q162.74 25.78 161.78 25.78ZM162.82 24.12L162.82 24.12Q163.63 24.12 164.21 23.74Q164.78 23.35 165.11 22.63Q165.43 21.91 165.43 20.95L165.43 20.95L165.43 19.10L164.18 19.18Q163.06 19.22 162.42 19.56Q161.78 19.90 161.51 20.50Q161.23 21.10 161.23 21.98L161.23 21.98Q161.23 22.70 161.40 23.17Q161.57 23.64 161.93 23.88Q162.29 24.12 162.82 24.12ZM178.73 25.54L171.41 25.54L171.41 24.36L171.72 24.36Q172.13 24.36 172.55 24.25Q172.97 24.14 173.24 23.81Q173.52 23.47 173.52 22.80L173.52 22.80L173.52 15.36Q173.52 14.69 173.23 14.36Q172.94 14.04 172.54 13.94Q172.13 13.85 171.72 13.85L171.72 13.85L171.50 13.85L171.50 12.67L176.64 12.67L176.64 22.75Q176.64 23.45 176.90 23.80Q177.17 24.14 177.60 24.25Q178.03 24.36 178.44 24.36L178.44 24.36L178.73 24.36L178.73 25.54ZM174.96 10.42L174.96 10.42Q174.22 10.42 173.70 10.03Q173.18 9.65 173.18 8.78L173.18 8.78Q173.18 7.90 173.70 7.52Q174.22 7.15 174.98 7.15L174.98 7.15Q175.70 7.15 176.23 7.52Q176.76 7.90 176.76 8.78L176.76 8.78Q176.76 9.65 176.23 10.03Q175.70 10.42 174.96 10.42ZM192.38 25.78L192.38 25.78Q190.68 25.78 189.37 24.89Q188.06 24 187.32 22.14Q186.58 20.28 186.58 17.35L186.58 17.35Q186.58 15.46 186.98 13.80Q187.39 12.14 188.21 10.87Q189.02 9.60 190.27 8.88Q191.52 8.16 193.20 8.16L193.20 8.16Q194.69 8.16 195.59 8.53Q196.49 8.90 196.91 9.49Q197.33 10.08 197.33 10.75L197.33 10.75Q197.33 11.47 196.75 11.96Q196.18 12.46 194.86 12.46L194.86 12.46Q194.86 11.71 194.69 11.03Q194.52 10.34 194.14 9.91Q193.75 9.48 193.06 9.48L193.06 9.48Q192.02 9.48 191.28 10.25Q190.54 11.02 190.13 12.48Q189.72 13.94 189.62 16.08L189.62 16.08Q189.98 15.82 190.45 15.59Q190.92 15.36 191.54 15.22Q192.17 15.07 192.98 15.07L192.98 15.07Q195.17 15.07 196.48 16.38Q197.78 17.69 197.78 20.02L197.78 20.02Q197.78 21.70 197.16 23.00Q196.54 24.31 195.34 25.04Q194.14 25.78 192.38 25.78ZM192.46 24.29L192.46 24.29Q193.18 24.29 193.67 23.86Q194.16 23.42 194.42 22.54Q194.69 21.65 194.69 20.26L194.69 20.26Q194.69 18.26 194.05 17.35Q193.42 16.44 192.24 16.44L192.24 16.44Q191.74 16.44 191.23 16.62Q190.73 16.80 190.30 17.09Q189.86 17.38 189.60 17.69L189.60 17.69Q189.65 21.19 190.44 22.74Q191.23 24.29 192.46 24.29ZM205.49 25.78L205.49 25.78Q203.38 25.78 202.10 24.67Q200.83 23.57 200.26 21.58Q199.68 19.58 199.68 16.92L199.68 16.92Q199.68 14.26 200.26 12.29Q200.83 10.32 202.10 9.24Q203.38 8.16 205.51 8.16L205.51 8.16Q207.53 8.16 208.79 9.24Q210.05 10.32 210.66 12.30Q211.27 14.28 211.27 16.94L211.27 16.94Q211.27 19.61 210.66 21.59Q210.05 23.57 208.78 24.67Q207.50 25.78 205.49 25.78ZM205.49 24.31L205.49 24.31Q206.50 24.31 207.04 23.44Q207.58 22.56 207.79 20.92Q208.01 19.27 208.01 16.94L208.01 16.94Q208.01 14.62 207.79 12.98Q207.58 11.35 207.04 10.49Q206.50 9.62 205.51 9.62L205.51 9.62Q204.50 9.62 203.95 10.49Q203.40 11.35 203.17 12.98Q202.94 14.62 202.94 16.94L202.94 16.94Q202.94 19.27 203.17 20.92Q203.40 22.56 203.95 23.44Q204.50 24.31 205.49 24.31ZM218.90 25.78L218.90 25.78Q216.79 25.78 215.52 24.67Q214.25 23.57 213.67 21.58Q213.10 19.58 213.10 16.92L213.10 16.92Q213.10 14.26 213.67 12.29Q214.25 10.32 215.52 9.24Q216.79 8.16 218.93 8.16L218.93 8.16Q220.94 8.16 222.20 9.24Q223.46 10.32 224.08 12.30Q224.69 14.28 224.69 16.94L224.69 16.94Q224.69 19.61 224.08 21.59Q223.46 23.57 222.19 24.67Q220.92 25.78 218.90 25.78ZM218.90 24.31L218.90 24.31Q219.91 24.31 220.45 23.44Q220.99 22.56 221.21 20.92Q221.42 19.27 221.42 16.94L221.42 16.94Q221.42 14.62 221.21 12.98Q220.99 11.35 220.45 10.49Q219.91 9.62 218.93 9.62L218.93 9.62Q217.92 9.62 217.37 10.49Q216.82 11.35 216.59 12.98Q216.36 14.62 216.36 16.94L216.36 16.94Q216.36 19.27 216.59 20.92Q216.82 22.56 217.37 23.44Q217.92 24.31 218.90 24.31ZM239.42 25.54L232.39 25.54L232.39 24.36L232.49 24.36Q233.04 24.36 233.47 24.24Q233.90 24.12 234.16 23.76Q234.41 23.40 234.41 22.68L234.41 22.68L234.41 15.43Q234.41 14.74 234.17 14.40Q233.93 14.06 233.53 13.96Q233.14 13.85 232.61 13.85L232.61 13.85L232.51 13.85L232.51 12.67L237.12 12.67L237.43 14.47L237.55 14.47Q238.03 13.56 238.60 13.12Q239.16 12.67 239.82 12.53Q240.48 12.38 241.25 12.38L241.25 12.38Q243.12 12.38 244.18 13.49Q245.23 14.59 245.23 17.04L245.23 17.04L245.23 22.66Q245.23 23.40 245.44 23.76Q245.64 24.12 246.01 24.24Q246.38 24.36 246.91 24.36L246.91 24.36L247.01 24.36L247.01 25.54L242.11 25.54L242.11 17.50Q242.11 15.94 241.62 15.08Q241.13 14.23 239.93 14.23L239.93 14.23Q239.02 14.23 238.50 14.76Q237.98 15.29 237.76 16.15Q237.53 17.02 237.53 18.02L237.53 18.02L237.53 22.78Q237.53 23.47 237.76 23.81Q237.98 24.14 238.39 24.25Q238.80 24.36 239.33 24.36L239.33 24.36L239.42 24.36L239.42 25.54ZM254.81 25.78L254.81 25.78Q252.05 25.78 250.45 24.12Q248.86 22.46 248.86 19.06L248.86 19.06Q248.86 15.70 250.38 14.04Q251.90 12.38 254.88 12.38L254.88 12.38Q257.66 12.38 259.25 14.04Q260.83 15.70 260.83 19.06L260.83 19.06Q260.83 22.46 259.31 24.12Q257.78 25.78 254.81 25.78ZM254.86 24.36L254.86 24.36Q255.89 24.36 256.50 23.77Q257.11 23.18 257.38 21.98Q257.64 20.78 257.64 19.06L257.64 19.06Q257.64 16.44 257.02 15.13Q256.39 13.82 254.83 13.82L254.83 13.82Q253.30 13.82 252.67 15.13Q252.05 16.44 252.05 19.06L252.05 19.06Q252.05 21.67 252.68 23.02Q253.32 24.36 254.86 24.36ZM270.24 25.54L262.63 25.54L262.63 24.36L262.70 24.36Q263.26 24.36 263.68 24.24Q264.10 24.12 264.35 23.75Q264.60 23.38 264.60 22.63L264.60 22.63L264.60 15.48Q264.60 14.76 264.36 14.41Q264.12 14.06 263.71 13.96Q263.30 13.85 262.78 13.85L262.78 13.85L262.70 13.85L262.70 12.67L267.12 12.67L267.58 14.74L267.70 14.74Q268.01 14.02 268.40 13.49Q268.80 12.96 269.42 12.68Q270.05 12.41 271.06 12.41L271.06 12.41Q272.42 12.41 273.08 12.89Q273.74 13.37 273.74 14.28L273.74 14.28Q273.74 15.24 273.05 15.80Q272.35 16.37 271.01 16.37L271.01 16.37Q271.01 15.70 270.90 15.28Q270.79 14.86 270.53 14.64Q270.26 14.42 269.81 14.42L269.81 14.42Q269.16 14.42 268.75 14.89Q268.34 15.36 268.12 16.06Q267.89 16.75 267.80 17.50Q267.72 18.24 267.72 18.74L267.72 18.74L267.72 22.75Q267.72 23.45 267.96 23.80Q268.20 24.14 268.61 24.25Q269.02 24.36 269.50 24.36L269.50 24.36L270.24 24.36L270.24 25.54ZM281.69 25.54L274.66 25.54L274.66 24.36L274.80 24.36Q275.35 24.36 275.77 24.24Q276.19 24.12 276.43 23.76Q276.67 23.40 276.67 22.68L276.67 22.68L276.67 15.38Q276.67 14.69 276.44 14.35Q276.22 14.02 275.82 13.91Q275.42 13.80 274.90 13.80L274.90 13.80L274.82 13.80L274.82 12.67L279.38 12.67L279.70 14.47L279.82 14.47Q280.30 13.56 280.85 13.12Q281.40 12.67 282.06 12.53Q282.72 12.38 283.46 12.38L283.46 12.38Q284.30 12.38 285 12.60Q285.70 12.82 286.22 13.26Q286.75 13.70 287.04 14.47L287.04 14.47L287.23 14.47Q287.71 13.56 288.31 13.12Q288.91 12.67 289.60 12.53Q290.28 12.38 291.05 12.38L291.05 12.38Q292.90 12.38 293.94 13.49Q294.98 14.59 294.98 17.04L294.98 17.04L294.98 22.66Q294.98 23.40 295.19 23.76Q295.39 24.12 295.78 24.24Q296.16 24.36 296.69 24.36L296.69 24.36L296.76 24.36L296.76 25.54L291.86 25.54L291.86 17.50Q291.86 15.94 291.38 15.08Q290.90 14.23 289.73 14.23L289.73 14.23Q288.89 14.23 288.37 14.71Q287.86 15.19 287.63 15.98Q287.40 16.78 287.40 17.71L287.40 17.71L287.40 22.66Q287.40 23.38 287.60 23.75Q287.81 24.12 288.19 24.24Q288.58 24.36 289.10 24.36L289.10 24.36L289.18 24.36L289.18 25.54L284.28 25.54L284.28 17.50Q284.28 15.94 283.80 15.08Q283.32 14.23 282.14 14.23L282.14 14.23Q281.26 14.23 280.74 14.76Q280.22 15.29 280.01 16.15Q279.79 17.02 279.79 18.02L279.79 18.02L279.79 22.78Q279.79 23.47 280.03 23.81Q280.27 24.14 280.68 24.25Q281.09 24.36 281.62 24.36L281.62 24.36L281.69 24.36L281.69 25.54ZM302.26 25.78L302.26 25.78Q301.20 25.78 300.35 25.36Q299.50 24.94 299.00 24.07Q298.51 23.21 298.51 21.89L298.51 21.89Q298.51 19.97 299.86 19.03Q301.20 18.10 303.91 18L303.91 18L305.90 17.93L305.90 16.56Q305.90 15.74 305.78 15.11Q305.66 14.47 305.29 14.11Q304.92 13.75 304.13 13.75L304.13 13.75Q303.41 13.75 303 14.09Q302.59 14.42 302.45 15.01Q302.30 15.60 302.30 16.34L302.30 16.34Q300.91 16.34 300.22 16.00Q299.52 15.65 299.52 14.78L299.52 14.78Q299.52 13.92 300.16 13.39Q300.79 12.86 301.87 12.62Q302.95 12.38 304.22 12.38L304.22 12.38Q306.62 12.38 307.82 13.31Q309.02 14.23 309.02 16.49L309.02 16.49L309.02 22.66Q309.02 23.30 309.16 23.68Q309.29 24.05 309.62 24.20Q309.96 24.36 310.49 24.36L310.49 24.36L310.56 24.36L310.56 25.54L306.58 25.54L306.10 23.74L305.90 23.74Q305.38 24.38 304.91 24.84Q304.44 25.30 303.83 25.54Q303.22 25.78 302.26 25.78ZM303.29 24.12L303.29 24.12Q304.10 24.12 304.68 23.74Q305.26 23.35 305.58 22.63Q305.90 21.91 305.90 20.95L305.90 20.95L305.90 19.10L304.66 19.18Q303.53 19.22 302.89 19.56Q302.26 19.90 301.98 20.50Q301.70 21.10 301.70 21.98L301.70 21.98Q301.70 22.70 301.87 23.17Q302.04 23.64 302.40 23.88Q302.76 24.12 303.29 24.12ZM319.13 25.54L311.78 25.54L311.78 24.36L312.10 24.36Q312.53 24.36 312.94 24.25Q313.34 24.14 313.62 23.80Q313.90 23.45 313.90 22.75L313.90 22.75L313.90 9.98Q313.90 9.31 313.61 8.99Q313.32 8.66 312.91 8.57Q312.50 8.47 312.10 8.47L312.10 8.47L311.78 8.47L311.78 7.30L317.02 7.30L317.02 22.75Q317.02 23.45 317.29 23.80Q317.57 24.14 317.99 24.25Q318.41 24.36 318.82 24.36L318.82 24.36L319.13 24.36L319.13 25.54Z"/></svg>