<svg xmlns="http://www.w3.org/2000/svg" xmlns:xlink="http://www.w3.org/1999/xlink" width="220.464" height="34.08"><path fill="black" d="M1.32 11.06L9.14 11.06Q10.63 11.06 11.70 11.58Q12.77 12.10 13.33 13.07Q13.90 14.04 13.90 15.41L13.90 15.41Q13.90 16.87 13.22 17.96Q12.55 19.06 11.34 19.67Q10.13 20.28 8.50 20.28L8.50 20.28L4.78 20.28L4.78 19.32L10.30 19.32Q11.52 18.58 12.10 17.68Q12.67 16.78 12.67 15.55L12.67 15.55Q12.67 13.82 11.70 12.91Q10.73 12 8.93 12L8.93 12L5.42 12L5.42 25.75L8.83 26.18L8.83 26.64L1.32 26.64L1.32 26.23Q1.73 26.04 2.39 25.92Q3.05 25.80 4.06 25.75L4.06 25.75L4.25 11.95L1.32 11.47L1.32 11.06ZM21.62 26.64L16.49 26.64L16.49 26.30Q16.90 26.14 17.36 26.00Q17.83 25.87 18.36 25.82L18.36 25.82L18.58 17.02L17.38 15.67Q17.90 15.36 18.44 15.16Q18.98 14.95 19.61 14.83L19.61 14.83L19.61 25.85L21.62 26.30L21.62 26.64ZM19.25 10.15L19.25 10.15Q19.54 10.42 19.73 10.76Q19.92 11.11 19.97 11.47L19.97 11.47Q19.75 11.76 19.40 11.95Q19.06 12.14 18.70 12.19L18.70 12.19Q18.41 11.95 18.22 11.60Q18.02 11.26 17.95 10.92L17.95 10.92Q18.19 10.61 18.54 10.42Q18.89 10.22 19.25 10.15ZM32.33 26.76L32.33 26.76Q31.68 26.76 31.10 26.23Q30.53 25.70 30.34 24.70L30.34 24.70L30.55 17.16Q29.02 15.79 26.76 15.79L26.76 15.79Q26.28 15.79 25.80 15.88Q25.32 15.96 24.82 16.10L24.82 16.10L25.34 15.77L24.96 19.03Q24.43 18.86 24.16 18.46Q23.88 18.05 23.88 17.52L23.88 17.52Q23.88 16.78 24.36 16.18Q24.84 15.58 25.69 15.23Q26.54 14.88 27.58 14.88L27.58 14.88Q28.73 14.88 29.76 15.34Q30.79 15.79 31.58 16.68L31.58 16.68L31.58 25.44L34.10 25.34Q33.96 25.82 33.67 26.14Q33.38 26.45 33.04 26.60Q32.69 26.76 32.33 26.76ZM26.78 26.88L26.78 26.88Q25.34 26.86 24.44 25.99Q23.54 25.13 23.54 23.81L23.54 23.81Q23.54 23.11 23.86 22.61Q24.17 22.10 24.97 21.68Q25.78 21.26 27.22 20.87Q28.66 20.47 30.91 19.97L30.91 19.97L30.91 20.81L24.67 22.18L25.06 21.91Q24.94 22.30 24.86 22.73Q24.79 23.16 24.79 23.52L24.79 23.52Q24.79 24.55 25.34 25.14Q25.90 25.73 26.95 25.73L26.95 25.73Q27.74 25.73 28.69 25.37Q29.64 25.01 30.67 24.29L30.67 24.29L30.67 24.70Q29.78 25.49 28.86 26.02Q27.94 26.54 26.78 26.88ZM45.10 26.64L35.57 26.64L35.57 26.40L43.22 15.89L37.08 15.91L36.50 18.60L36.14 18.60L36.07 15.07L44.95 15.07L44.95 15.31L37.32 25.82L44.06 25.82L44.66 22.94L44.98 22.94L45.10 26.64ZM57.14 26.64L47.62 26.64L47.62 26.40L55.27 15.89L49.13 15.91L48.55 18.60L48.19 18.60L48.12 15.07L57 15.07L57 15.31L49.37 25.82L56.11 25.82L56.71 22.94L57.02 22.94L57.14 26.64ZM64.70 26.83L64.70 26.83Q63.26 26.83 62.18 26.10Q61.10 25.37 60.49 24.06Q59.88 22.75 59.88 21.07L59.88 21.07Q59.88 19.25 60.54 17.86Q61.20 16.46 62.34 15.67Q63.48 14.88 64.97 14.88L64.97 14.88Q66.41 14.88 67.51 15.62Q68.62 16.37 69.23 17.69Q69.84 19.01 69.84 20.71L69.84 20.71Q69.84 22.51 69.19 23.89Q68.54 25.27 67.38 26.05Q66.22 26.83 64.70 26.83ZM64.82 25.92L64.82 25.92Q65.95 25.92 66.82 25.28Q67.68 24.65 68.17 23.48Q68.66 22.32 68.66 20.78L68.66 20.78Q68.66 19.25 68.18 18.14Q67.70 17.04 66.83 16.44Q65.95 15.84 64.80 15.84L64.80 15.84Q64.13 15.84 63.37 16.08Q62.62 16.32 61.85 16.82L61.85 16.82L62.42 16.32Q61.75 17.40 61.42 18.55Q61.08 19.70 61.08 20.93L61.08 20.93Q61.08 22.42 61.56 23.54Q62.04 24.67 62.89 25.30Q63.74 25.92 64.82 25.92ZM77.11 26.64L71.98 26.64L71.98 26.30Q72.34 26.16 72.78 26.03Q73.22 25.90 73.85 25.82L73.85 25.82L74.09 11.11L72.89 9.72Q73.39 9.41 73.94 9.19Q74.50 8.98 75.12 8.88L75.12 8.88L75.12 25.85L77.11 26.30L77.11 26.64ZM83.76 26.64L78.62 26.64L78.62 26.30Q78.98 26.16 79.43 26.03Q79.87 25.90 80.50 25.82L80.50 25.82L80.74 11.11L79.54 9.72Q80.04 9.41 80.59 9.19Q81.14 8.98 81.77 8.88L81.77 8.88L81.77 25.85L83.76 26.30L83.76 26.64ZM94.73 26.76L94.73 26.76Q94.08 26.76 93.50 26.23Q92.93 25.70 92.74 24.70L92.74 24.70L92.95 17.16Q91.42 15.79 89.16 15.79L89.16 15.79Q88.68 15.79 88.20 15.88Q87.72 15.96 87.22 16.10L87.22 16.10L87.74 15.77L87.36 19.03Q86.83 18.86 86.56 18.46Q86.28 18.05 86.28 17.52L86.28 17.52Q86.28 16.78 86.76 16.18Q87.24 15.58 88.09 15.23Q88.94 14.88 89.98 14.88L89.98 14.88Q91.13 14.88 92.16 15.34Q93.19 15.79 93.98 16.68L93.98 16.68L93.98 25.44L96.50 25.34Q96.36 25.82 96.07 26.14Q95.78 26.45 95.44 26.60Q95.09 26.76 94.73 26.76ZM89.18 26.88L89.18 26.88Q87.74 26.86 86.84 25.99Q85.94 25.13 85.94 23.81L85.94 23.81Q85.94 23.11 86.26 22.61Q86.57 22.10 87.37 21.68Q88.18 21.26 89.62 20.87Q91.06 20.47 93.31 19.97L93.31 19.97L93.31 20.81L87.07 22.18L87.46 21.91Q87.34 22.30 87.26 22.73Q87.19 23.16 87.19 23.52L87.19 23.52Q87.19 24.55 87.74 25.14Q88.30 25.73 89.35 25.73L89.35 25.73Q90.14 25.73 91.09 25.37Q92.04 25.01 93.07 24.29L93.07 24.29L93.07 24.70Q92.18 25.49 91.26 26.02Q90.34 26.54 89.18 26.88ZM110.28 26.64L102.38 26.64L102.38 26.23Q103.25 26.02 104.09 25.90Q104.93 25.78 105.72 25.75L105.72 25.75L105.91 13.10L102.60 13.10L102.60 12.70L106.27 12.05L107.06 12.05L107.06 25.73L110.28 26.16L110.28 26.64ZM118.10 26.81L118.10 26.81Q116.52 26.81 115.31 25.90Q114.10 24.98 113.42 23.38Q112.75 21.77 112.75 19.66L112.75 19.66Q112.75 17.47 113.46 15.77Q114.17 14.06 115.43 13.09Q116.69 12.12 118.32 12.12L118.32 12.12Q119.90 12.12 121.13 13.04Q122.35 13.97 123.06 15.60Q123.77 17.23 123.77 19.32L123.77 19.32Q123.77 21.48 123.05 23.17Q122.33 24.86 121.06 25.84Q119.78 26.81 118.10 26.81ZM118.20 25.85L118.20 25.85Q119.45 25.85 120.41 25.03Q121.37 24.22 121.92 22.75Q122.47 21.29 122.47 19.37L122.47 19.37Q122.47 17.52 121.96 16.13Q121.44 14.74 120.47 13.94Q119.50 13.15 118.18 13.15L118.18 13.15Q117.41 13.15 116.66 13.43Q115.92 13.70 115.37 14.26L115.37 14.26Q114.70 15.50 114.35 16.87Q114 18.24 114 19.63L114 19.63Q114 21.46 114.53 22.86Q115.06 24.26 116.02 25.06Q116.98 25.85 118.20 25.85ZM132.98 26.81L132.98 26.81Q131.40 26.81 130.19 25.90Q128.98 24.98 128.30 23.38Q127.63 21.77 127.63 19.66L127.63 19.66Q127.63 17.47 128.34 15.77Q129.05 14.06 130.31 13.09Q131.57 12.12 133.20 12.12L133.20 12.12Q134.78 12.12 136.01 13.04Q137.23 13.97 137.94 15.60Q138.65 17.23 138.65 19.32L138.65 19.32Q138.65 21.48 137.93 23.17Q137.21 24.86 135.94 25.84Q134.66 26.81 132.98 26.81ZM133.08 25.85L133.08 25.85Q134.33 25.85 135.29 25.03Q136.25 24.22 136.80 22.75Q137.35 21.29 137.35 19.37L137.35 19.37Q137.35 17.52 136.84 16.13Q136.32 14.74 135.35 13.94Q134.38 13.15 133.06 13.15L133.06 13.15Q132.29 13.15 131.54 13.43Q130.80 13.70 130.25 14.26L130.25 14.26Q129.58 15.50 129.23 16.87Q128.88 18.24 128.88 19.63L128.88 19.63Q128.88 21.46 129.41 22.86Q129.94 24.26 130.90 25.06Q131.86 25.85 133.08 25.85ZM151.06 26.64L145.92 26.64L145.92 26.30Q146.28 26.16 146.71 26.03Q147.14 25.90 147.79 25.82L147.79 25.82L148.01 17.02L146.81 15.67Q147.79 15.07 148.92 14.83L148.92 14.83L149.04 16.90L149.04 25.85L151.06 26.30L151.06 26.64ZM158.30 26.64L153.14 26.64L153.14 26.30Q153.50 26.16 153.95 26.03Q154.39 25.90 155.02 25.82L155.02 25.82L155.23 17.23L156.26 16.68L156.26 25.85L158.30 26.30L158.30 26.64ZM148.92 17.33L148.92 17.33L148.90 16.85Q149.62 16.15 150.42 15.67Q151.22 15.19 152.09 14.90L152.09 14.90Q152.21 14.90 152.32 14.89Q152.42 14.88 152.52 14.88L152.52 14.88Q153.60 14.88 154.52 15.31Q155.45 15.74 156.26 16.68L156.26 16.68L155.23 17.23Q153.84 15.94 152.23 15.94L152.23 15.94Q150.58 15.94 148.92 17.33ZM165.05 26.83L165.05 26.83Q163.61 26.83 162.53 26.10Q161.45 25.37 160.84 24.06Q160.22 22.75 160.22 21.07L160.22 21.07Q160.22 19.25 160.88 17.86Q161.54 16.46 162.68 15.67Q163.82 14.88 165.31 14.88L165.31 14.88Q166.75 14.88 167.86 15.62Q168.96 16.37 169.57 17.69Q170.18 19.01 170.18 20.71L170.18 20.71Q170.18 22.51 169.54 23.89Q168.89 25.27 167.72 26.05Q166.56 26.83 165.05 26.83ZM165.17 25.92L165.17 25.92Q166.30 25.92 167.16 25.28Q168.02 24.65 168.52 23.48Q169.01 22.32 169.01 20.78L169.01 20.78Q169.01 19.25 168.53 18.14Q168.05 17.04 167.17 16.44Q166.30 15.84 165.14 15.84L165.14 15.84Q164.47 15.84 163.72 16.08Q162.96 16.32 162.19 16.82L162.19 16.82L162.77 16.32Q162.10 17.40 161.76 18.55Q161.42 19.70 161.42 20.93L161.42 20.93Q161.42 22.42 161.90 23.54Q162.38 24.67 163.24 25.30Q164.09 25.92 165.17 25.92ZM179.95 15.41L179.88 16.06Q177.50 16.10 175.42 17.52L175.42 17.52L175.42 17.14Q176.14 16.39 176.94 15.85Q177.74 15.31 178.61 14.90L178.61 14.90Q179.02 14.98 179.33 15.10Q179.64 15.22 179.95 15.41L179.95 15.41ZM178.22 26.64L172.39 26.64L172.39 26.30Q172.75 26.16 173.18 26.03Q173.62 25.90 174.26 25.82L174.26 25.82L174.48 17.02L173.28 15.67Q174.26 15.07 175.39 14.83L175.39 14.83L175.51 17.21L175.51 25.82L178.22 26.30L178.22 26.64ZM186.43 26.64L181.30 26.64L181.30 26.30Q181.66 26.16 182.09 26.03Q182.52 25.90 183.17 25.82L183.17 25.82L183.38 17.02L182.18 15.67Q183.17 15.07 184.30 14.83L184.30 14.83L184.42 16.90L184.42 25.85L186.43 26.30L186.43 26.64ZM193.68 26.64L188.52 26.64L188.52 26.30Q188.88 26.16 189.32 26.03Q189.77 25.90 190.39 25.82L190.39 25.82L190.61 17.23L191.66 16.75L191.64 16.97L191.64 25.85L193.68 26.30L193.68 26.64ZM191.66 16.75L190.61 17.23Q189.22 15.94 187.61 15.94L187.61 15.94Q185.95 15.94 184.30 17.33L184.30 17.33L184.27 16.85Q184.99 16.15 185.80 15.67Q186.60 15.19 187.46 14.90L187.46 14.90Q187.58 14.90 187.69 14.89Q187.80 14.88 187.90 14.88L187.90 14.88Q188.98 14.88 189.91 15.34Q190.85 15.79 191.66 16.75L191.66 16.75ZM200.88 26.64L195.74 26.64L195.74 26.30Q196.13 26.16 196.55 26.03Q196.97 25.90 197.62 25.82L197.62 25.82L197.83 17.23L198.86 16.68L198.86 25.85L200.88 26.30L200.88 26.64ZM198.86 16.68L197.83 17.23Q196.46 15.94 194.86 15.94L194.86 15.94Q193.20 15.94 191.50 17.33L191.50 17.33L191.50 16.85Q192.24 16.15 193.03 15.67Q193.82 15.19 194.71 14.90L194.71 14.90Q194.81 14.90 194.93 14.89Q195.05 14.88 195.12 14.88L195.12 14.88Q196.20 14.88 197.12 15.31Q198.05 15.74 198.86 16.68L198.86 16.68ZM211.70 26.76L211.70 26.76Q211.06 26.76 210.48 26.23Q209.90 25.70 209.71 24.70L209.71 24.70L209.93 17.16Q208.39 15.79 206.14 15.79L206.14 15.79Q205.66 15.79 205.18 15.88Q204.70 15.96 204.19 16.10L204.19 16.10L204.72 15.77L204.34 19.03Q203.81 18.86 203.53 18.46Q203.26 18.05 203.26 17.52L203.26 17.52Q203.26 16.78 203.74 16.18Q204.22 15.58 205.07 15.23Q205.92 14.88 206.95 14.88L206.95 14.88Q208.10 14.88 209.14 15.34Q210.17 15.79 210.96 16.68L210.96 16.68L210.96 25.44L213.48 25.34Q213.34 25.82 213.05 26.14Q212.76 26.45 212.41 26.60Q212.06 26.76 211.70 26.76ZM206.16 26.88L206.16 26.88Q204.72 26.86 203.82 25.99Q202.92 25.13 202.92 23.81L202.92 23.81Q202.92 23.11 203.23 22.61Q203.54 22.10 204.35 21.68Q205.15 21.26 206.59 20.87Q208.03 20.47 210.29 19.97L210.29 19.97L210.29 20.81L204.05 22.18L204.43 21.91Q204.31 22.30 204.24 22.73Q204.17 23.16 204.17 23.52L204.17 23.52Q204.17 24.55 204.72 25.14Q205.27 25.73 206.33 25.73L206.33 25.73Q207.12 25.73 208.07 25.37Q209.02 25.01 210.05 24.29L210.05 24.29L210.05 24.70Q209.16 25.49 208.24 26.02Q207.31 26.54 206.16 26.88ZM219.72 26.64L214.58 26.64L214.58 26.30Q214.94 26.16 215.39 26.03Q215.83 25.90 216.46 25.82L216.46 25.82L216.70 11.11L215.50 9.72Q216 9.41 216.55 9.19Q217.10 8.98 217.73 8.88L217.73 8.88L217.73 25.85L219.72 26.30L219.72 26.64Z"/></svg>