<svg xmlns="http://www.w3.org/2000/svg" xmlns:xlink="http://www.w3.org/1999/xlink" width="296.64" height="34.488"><path fill="black" d="M18.26 10.03L12.05 10.03L12.05 10.94L14.86 11.28L14.90 23.47L5.18 10.03L1.13 10.03L1.13 10.94L3 11.18L3.26 11.52L3.22 26.40L1.01 26.71L1.01 27.62L7.22 27.62L7.22 26.71L4.42 26.35L4.37 13.06L15.10 27.79L16.03 27.79L16.06 11.26L18.26 10.94ZM26.16 27.96C29.23 27.96 32.21 25.78 32.21 21.43C32.21 17.06 29.21 14.81 26.16 14.81C23.09 14.81 20.14 17.09 20.14 21.43C20.14 25.75 23.06 27.96 26.16 27.96ZM26.16 26.95C23.86 26.95 22.54 25.06 22.54 21.43C22.54 17.78 23.86 15.82 26.16 15.82C28.44 15.82 29.78 17.78 29.78 21.43C29.78 25.06 28.44 26.95 26.16 26.95ZM41.16 26.02C40.46 26.52 39.98 26.76 39.36 26.76C38.42 26.76 37.85 26.18 37.85 24.79L37.85 16.32L41.40 16.32L41.40 15.17L37.87 15.17L38.02 11.54L36.50 11.54L35.81 15.10L33.46 15.38L33.46 16.32L35.69 16.32L35.69 22.70C35.69 23.69 35.66 24.26 35.66 24.89C35.66 27.00 36.77 27.96 38.64 27.96C39.98 27.96 41.02 27.46 41.69 26.62ZM49.01 27.96C52.08 27.96 55.06 25.78 55.06 21.43C55.06 17.06 52.06 14.81 49.01 14.81C45.94 14.81 42.98 17.09 42.98 21.43C42.98 25.75 45.91 27.96 49.01 27.96ZM49.01 26.95C46.70 26.95 45.38 25.06 45.38 21.43C45.38 17.78 46.70 15.82 49.01 15.82C51.29 15.82 52.63 17.78 52.63 21.43C52.63 25.06 51.29 26.95 49.01 26.95ZM68.95 17.28C67.06 16.54 65.98 15.53 65.98 13.85C65.98 11.83 67.54 10.78 69.65 10.78C70.46 10.78 71.11 10.92 71.78 11.30L72.46 14.45L73.82 14.45L73.99 11.02C72.84 10.18 71.45 9.62 69.67 9.62C66.36 9.62 63.82 11.40 63.82 14.45C63.82 17.09 65.62 18.60 68.35 19.70L69.34 20.11C71.69 21.05 72.65 21.86 72.65 23.57C72.65 25.70 70.99 26.86 68.45 26.86C67.32 26.86 66.53 26.66 65.69 26.21L65.02 22.92L63.67 22.92L63.50 26.62C64.70 27.38 66.62 28.01 68.62 28.01C72.26 28.01 74.81 26.14 74.81 23.02C74.81 20.54 73.51 19.08 70.01 17.69ZM79.39 20.28C79.66 17.16 81.36 15.82 82.97 15.82C84.67 15.82 85.87 17.23 85.87 18.86C85.87 19.73 85.61 20.33 84.46 20.33ZM87.82 21.29C87.94 20.93 88.01 20.42 88.01 19.82C88.01 16.73 85.92 14.81 83.09 14.81C79.85 14.81 77.06 17.42 77.06 21.48C77.06 25.58 79.46 27.96 82.99 27.96C85.32 27.96 87 26.81 87.96 24.96L87.43 24.60C86.50 25.73 85.46 26.50 83.74 26.50C81.17 26.50 79.42 24.74 79.37 21.26ZM94.18 15.07L93.82 14.83L90.12 16.27L90.12 17.06L92.21 17.28C92.26 18.34 92.28 19.25 92.28 20.74L92.28 22.10C92.28 23.33 92.26 25.20 92.23 26.52L90.31 26.81L90.31 27.62L96.70 27.62L96.70 26.81L94.51 26.50C94.49 25.15 94.46 23.33 94.46 22.10L94.46 20.04C94.97 18.43 95.66 17.35 96.74 16.56L97.06 16.85C97.56 17.30 98.06 17.59 98.69 17.59C99.74 17.59 100.18 16.90 100.18 15.79C99.86 15.17 99.10 14.81 98.28 14.81C96.82 14.81 95.30 16.08 94.44 18.24ZM104.38 11.81C105.29 11.81 106.06 11.11 106.06 10.18C106.06 9.22 105.29 8.57 104.38 8.57C103.42 8.57 102.67 9.22 102.67 10.18C102.67 11.11 103.42 11.81 104.38 11.81ZM105.53 26.52C105.50 25.18 105.48 23.33 105.48 22.10L105.48 18.58L105.53 15.07L105.17 14.83L101.14 16.25L101.14 17.04L103.27 17.23C103.32 18.38 103.34 19.25 103.34 20.71L103.34 22.10C103.34 23.33 103.32 25.18 103.30 26.52L101.28 26.81L101.28 27.62L107.33 27.62L107.33 26.81ZM109.13 15.38L109.13 16.32L111.34 16.32L111.34 22.10C111.34 23.59 111.31 25.03 111.26 26.52L109.15 26.81L109.15 27.62L115.94 27.62L115.94 26.81L113.54 26.50C113.52 25.03 113.50 23.57 113.50 22.10L113.50 16.32L117.10 16.32L117.10 15.17L113.45 15.17C113.35 12.48 113.76 10.94 114.34 9.96C114.58 9.55 114.91 9.22 115.30 8.98L116.02 9.60C116.62 10.18 117.19 10.46 117.89 10.46C118.78 10.46 119.33 9.96 119.38 9.31C119.11 8.33 118.10 7.92 116.88 7.92C115.68 7.92 114.36 8.30 113.23 9.53C112.10 10.70 111.58 12.29 111.34 15.10ZM139.20 26.47L133.75 16.68L138.22 11.26L140.71 10.94L140.71 10.03L134.69 10.03L134.69 10.94L136.78 11.30L129.72 19.99L129.72 18.19C129.72 15.84 129.72 13.49 129.77 11.21L132.26 10.94L132.26 10.03L124.90 10.03L124.90 10.94L127.34 11.21C127.39 13.51 127.39 15.84 127.39 18.19L127.39 19.49C127.39 21.84 127.39 24.14 127.34 26.45L124.90 26.71L124.90 27.62L132.24 27.62L132.24 26.71L129.77 26.42C129.72 24.67 129.72 22.99 129.72 21.53L132.34 18.38L136.68 26.45L134.50 26.71L134.50 27.62L141.24 27.62L141.24 26.71ZM147.34 18.41C147.34 15.70 147.34 13.39 147.38 11.06L149.66 11.06C152.42 11.06 153.67 12.36 153.67 14.62C153.67 16.80 152.28 18.41 149.47 18.41ZM156 26.52L154.78 22.39C154.18 20.38 153.29 19.44 151.63 19.08C154.63 18.55 156.14 16.70 156.14 14.64C156.14 11.74 153.79 10.03 149.81 10.03L142.44 10.03L142.44 10.94L144.89 11.21C144.94 13.51 144.94 15.84 144.94 18.19L144.94 19.49C144.94 21.84 144.94 24.14 144.89 26.45L142.44 26.71L142.44 27.62L149.83 27.62L149.83 26.71L147.38 26.42C147.34 24.17 147.34 21.86 147.34 19.42L148.73 19.42C150.91 19.42 151.78 19.90 152.30 22.03L153.38 26.21C153.67 27.43 154.42 27.89 156.05 27.89C156.86 27.89 157.54 27.79 158.04 27.62L158.04 26.71ZM168.53 12.10L176.11 12.10L176.11 10.03L167.52 10.03L166.97 18.24L167.64 18.43C168.48 18.19 169.34 18.10 170.16 18.10C172.68 18.10 174.29 19.63 174.29 22.42C174.29 25.18 172.87 26.95 170.30 26.95C169.73 26.95 169.20 26.88 168.65 26.71L168.22 25.13C167.90 23.86 167.57 23.47 166.80 23.47C166.22 23.47 165.77 23.76 165.55 24.31C166.08 26.74 167.78 27.96 170.45 27.96C174.17 27.96 176.59 25.63 176.59 22.20C176.59 18.67 174.26 16.68 170.86 16.68C169.90 16.68 169.06 16.80 168.19 17.06ZM181.13 18.70C181.13 12.38 182.66 10.73 184.34 10.73C185.95 10.73 187.46 12.38 187.46 18.70C187.46 25.22 185.95 26.95 184.34 26.95C182.66 26.95 181.13 25.25 181.13 18.70ZM184.34 9.67C181.51 9.67 178.80 12.12 178.80 18.70C178.80 25.49 181.51 27.96 184.34 27.96C187.10 27.96 189.82 25.49 189.82 18.70C189.82 12.12 187.10 9.67 184.34 9.67ZM194.30 18.70C194.30 12.38 195.84 10.73 197.52 10.73C199.13 10.73 200.64 12.38 200.64 18.70C200.64 25.22 199.13 26.95 197.52 26.95C195.84 26.95 194.30 25.25 194.30 18.70ZM197.52 9.67C194.69 9.67 191.98 12.12 191.98 18.70C191.98 25.49 194.69 27.96 197.52 27.96C200.28 27.96 202.99 25.49 202.99 18.70C202.99 12.12 200.28 9.67 197.52 9.67ZM223.51 26.52C223.49 25.20 223.46 23.38 223.46 22.10L223.46 19.58C223.46 16.20 222.34 14.81 220.10 14.81C218.47 14.81 216.72 15.74 215.38 17.23L215.16 15.07L214.80 14.83L211.10 16.27L211.10 17.06L213.19 17.28C213.24 18.34 213.26 19.25 213.26 20.74L213.26 22.10C213.26 23.33 213.24 25.18 213.22 26.52L211.27 26.81L211.27 27.62L217.32 27.62L217.32 26.81L215.50 26.52C215.47 25.18 215.45 23.33 215.45 22.10L215.45 18.22C216.82 16.97 217.94 16.46 219.12 16.46C220.66 16.46 221.30 17.28 221.30 19.66L221.30 22.10C221.30 23.38 221.28 25.20 221.26 26.52L219.31 26.81L219.31 27.62L225.36 27.62L225.36 26.81ZM233.35 27.96C236.42 27.96 239.40 25.78 239.40 21.43C239.40 17.06 236.40 14.81 233.35 14.81C230.28 14.81 227.33 17.09 227.33 21.43C227.33 25.75 230.26 27.96 233.35 27.96ZM233.35 26.95C231.05 26.95 229.73 25.06 229.73 21.43C229.73 17.78 231.05 15.82 233.35 15.82C235.63 15.82 236.98 17.78 236.98 21.43C236.98 25.06 235.63 26.95 233.35 26.95ZM245.52 15.07L245.16 14.83L241.46 16.27L241.46 17.06L243.55 17.28C243.60 18.34 243.62 19.25 243.62 20.74L243.62 22.10C243.62 23.33 243.60 25.20 243.58 26.52L241.66 26.81L241.66 27.62L248.04 27.62L248.04 26.81L245.86 26.50C245.83 25.15 245.81 23.33 245.81 22.10L245.81 20.04C246.31 18.43 247.01 17.35 248.09 16.56L248.40 16.85C248.90 17.30 249.41 17.59 250.03 17.59C251.09 17.59 251.52 16.90 251.52 15.79C251.21 15.17 250.44 14.81 249.62 14.81C248.16 14.81 246.65 16.08 245.78 18.24ZM272.71 26.52C272.69 25.20 272.66 23.38 272.66 22.10L272.66 19.37C272.66 16.13 271.44 14.81 269.30 14.81C267.62 14.81 265.94 15.60 264.55 17.28C264.10 15.55 263.06 14.81 261.43 14.81C259.82 14.81 258.14 15.74 256.85 17.21L256.63 15.07L256.27 14.83L252.58 16.27L252.58 17.06L254.66 17.28C254.74 18.34 254.74 19.25 254.74 20.74L254.74 22.10C254.74 23.33 254.71 25.18 254.69 26.52L252.74 26.81L252.74 27.62L258.79 27.62L258.79 26.81L256.97 26.52C256.94 25.18 256.92 23.33 256.92 22.10L256.92 18.22C258.26 16.99 259.30 16.49 260.50 16.49C261.98 16.49 262.66 17.28 262.66 19.68L262.66 22.10C262.66 23.38 262.63 25.20 262.61 26.52L260.62 26.81L260.62 27.62L266.66 27.62L266.66 26.81L264.86 26.52C264.82 25.20 264.79 23.38 264.79 22.10L264.79 19.58C264.79 19.08 264.77 18.65 264.72 18.24C266.11 16.97 267.22 16.49 268.32 16.49C269.83 16.49 270.53 17.18 270.53 19.63L270.53 22.10C270.53 23.38 270.50 25.20 270.48 26.52L268.54 26.81L268.54 27.62L274.56 27.62L274.56 26.81ZM283.92 24.89C282.46 26.04 281.86 26.42 280.92 26.42C279.70 26.42 278.78 25.80 278.78 24.38C278.78 23.42 279.19 22.39 281.50 21.50C282.07 21.29 282.98 20.98 283.92 20.71ZM288.10 26.06C287.76 26.47 287.47 26.71 287.04 26.71C286.44 26.71 286.08 26.28 286.08 25.03L286.08 19.32C286.08 16.06 284.76 14.81 282 14.81C279.29 14.81 277.37 16.03 276.91 18.05C276.98 18.70 277.37 19.06 278.09 19.06C278.76 19.06 279.19 18.65 279.41 17.83L279.91 16.03C280.46 15.89 280.94 15.82 281.40 15.82C283.18 15.82 283.92 16.49 283.92 19.08L283.92 19.90C282.86 20.14 281.74 20.45 280.90 20.76C277.46 21.98 276.55 23.14 276.55 24.74C276.55 26.86 278.11 27.96 280.03 27.96C281.62 27.96 282.53 27.26 283.97 25.85C284.18 27.12 285.02 27.91 286.32 27.91C287.23 27.91 287.98 27.55 288.58 26.57ZM293.81 26.52C293.78 25.08 293.76 23.54 293.76 22.10L293.76 12.12L293.88 8.38L293.52 8.18L289.46 9.29L289.46 10.08L291.60 10.27L291.60 22.10C291.60 23.54 291.58 25.08 291.55 26.52L289.46 26.81L289.46 27.62L295.92 27.62L295.92 26.81Z"/></svg>