<svg xmlns="http://www.w3.org/2000/svg" xmlns:xlink="http://www.w3.org/1999/xlink" width="213.43359375" height="27.05859375"><path fill="black" d="M16.91 20.29L13.99 20.29L4.07 3.83L4.07 20.29L1.79 20.29L1.79 1.78L4.86 1.78L14.64 18.12L14.64 1.78L16.91 1.78L16.91 20.29ZM26.13 19.17L26.13 19.17Q26.98 19.17 27.60 18.93Q28.23 18.69 28.68 18.28Q29.13 17.86 29.43 17.31Q29.72 16.76 29.89 16.14Q30.07 15.53 30.14 14.88Q30.21 14.24 30.21 13.64L30.21 13.64Q30.21 13.04 30.14 12.40Q30.07 11.77 29.89 11.15Q29.72 10.54 29.43 9.98Q29.13 9.43 28.68 9.02Q28.23 8.60 27.60 8.36Q26.96 8.12 26.13 8.12L26.13 8.12Q25.30 8.12 24.67 8.37Q24.05 8.61 23.60 9.03Q23.14 9.45 22.85 10.00Q22.55 10.55 22.37 11.16Q22.20 11.77 22.13 12.41Q22.05 13.05 22.05 13.64L22.05 13.64Q22.05 14.24 22.13 14.88Q22.20 15.52 22.37 16.13Q22.55 16.75 22.85 17.30Q23.14 17.85 23.60 18.26Q24.05 18.68 24.67 18.93Q25.30 19.17 26.13 19.17ZM32.33 13.61L32.33 13.61Q32.33 14.43 32.21 15.28Q32.10 16.13 31.82 16.92Q31.54 17.72 31.07 18.41Q30.61 19.10 29.92 19.62Q29.24 20.13 28.29 20.43Q27.35 20.73 26.12 20.73L26.12 20.73Q24.89 20.73 23.95 20.43Q23.00 20.13 22.32 19.62Q21.63 19.10 21.17 18.41Q20.71 17.72 20.43 16.92Q20.14 16.13 20.03 15.28Q19.91 14.44 19.91 13.61L19.91 13.61Q19.91 12.77 20.03 11.92Q20.14 11.07 20.43 10.28Q20.71 9.49 21.17 8.80Q21.63 8.11 22.32 7.59Q23.00 7.08 23.95 6.79Q24.89 6.49 26.12 6.49L26.12 6.49Q27.35 6.49 28.29 6.79Q29.24 7.08 29.92 7.59Q30.61 8.11 31.07 8.80Q31.54 9.49 31.82 10.28Q32.10 11.07 32.21 11.92Q32.33 12.77 32.33 13.61ZM41.60 18.91L41.60 18.91Q43.25 18.91 44.12 17.50Q44.98 16.08 44.98 13.10L44.98 13.10Q44.98 11.75 44.75 10.78Q44.52 9.81 44.08 9.18Q43.64 8.54 43.01 8.24Q42.39 7.95 41.60 7.95L41.60 7.95Q40.57 7.95 39.53 8.39Q38.50 8.84 37.44 9.71L37.44 9.71L37.44 17.09Q39.41 18.91 41.60 18.91ZM41.47 20.52L41.47 20.52Q40.89 20.52 40.31 20.36Q39.73 20.19 39.18 19.89Q38.63 19.58 38.12 19.15Q37.62 18.73 37.18 18.20L37.18 18.20L36.86 20.29L35.21 20.29L35.21 1.78L37.44 1.37L37.44 8.21Q37.90 7.75 38.43 7.39Q38.95 7.04 39.47 6.81Q40.00 6.57 40.47 6.46Q40.95 6.34 41.30 6.34L41.30 6.34Q44.09 6.34 45.56 8.00Q47.04 9.67 47.04 13.10L47.04 13.10Q47.04 15.29 46.58 16.72Q46.13 18.15 45.36 19.00Q44.59 19.84 43.58 20.18Q42.57 20.52 41.47 20.52ZM52.39 20.29L50.26 20.29L50.26 6.59L52.39 6.59L52.39 20.29ZM50.06 3.15L50.06 3.15Q50.06 2.87 50.16 2.63Q50.26 2.39 50.44 2.20Q50.61 2.02 50.85 1.91Q51.08 1.80 51.35 1.80L51.35 1.80Q51.63 1.80 51.87 1.92Q52.10 2.03 52.28 2.21Q52.45 2.40 52.55 2.65Q52.64 2.89 52.64 3.15L52.64 3.15Q52.64 3.43 52.54 3.67Q52.44 3.91 52.27 4.10Q52.09 4.29 51.86 4.39Q51.62 4.50 51.35 4.50L51.35 4.50Q51.07 4.50 50.84 4.39Q50.60 4.28 50.43 4.09Q50.25 3.90 50.16 3.66Q50.06 3.42 50.06 3.15ZM58.49 1.37L58.49 20.29L56.26 20.29L56.26 1.78L58.49 1.37ZM71.41 17.54L72.14 19.10Q71.67 19.44 71.07 19.71Q70.48 19.97 69.86 20.15Q69.25 20.33 68.67 20.43Q68.10 20.52 67.69 20.52L67.69 20.52Q66.14 20.52 64.99 20.00Q63.83 19.49 63.07 18.56Q62.31 17.63 61.93 16.34Q61.55 15.06 61.55 13.51L61.55 13.51Q61.55 12.12 61.92 10.82Q62.29 9.53 63.01 8.53Q63.74 7.54 64.82 6.94Q65.89 6.34 67.32 6.34L67.32 6.34Q68.66 6.34 69.67 6.74Q70.69 7.15 71.38 7.91Q72.07 8.67 72.42 9.77Q72.77 10.88 72.77 12.27L72.77 12.27Q72.77 12.64 72.75 12.99Q72.73 13.34 72.68 13.64L72.68 13.64L63.77 13.64Q63.77 15.11 64.05 16.11Q64.34 17.12 64.86 17.74Q65.39 18.36 66.15 18.64Q66.91 18.91 67.88 18.91L67.88 18.91Q68.44 18.91 68.91 18.83Q69.38 18.74 69.79 18.57Q70.21 18.40 70.60 18.14Q70.99 17.88 71.41 17.54L71.41 17.54ZM70.80 12.29L70.80 11.88Q70.80 10.95 70.57 10.21Q70.34 9.48 69.91 8.98Q69.49 8.47 68.91 8.21Q68.33 7.95 67.64 7.95L67.64 7.95Q66.71 7.95 66.02 8.29Q65.33 8.63 64.86 9.21Q64.38 9.80 64.12 10.59Q63.86 11.38 63.77 12.29L63.77 12.29L70.80 12.29ZM82.85 17.88L88.62 17.88L88.62 9.39L82.85 17.88ZM88.70 6.13L90.60 6.59L90.60 17.86L92.78 17.86L92.78 19.49L90.60 19.49L90.60 23.33L88.62 23.33L88.62 19.49L81.01 19.49L80.68 17.88L88.70 6.13ZM101.77 18.96L101.77 18.96Q102.90 18.96 103.75 18.57Q104.60 18.18 105.16 17.45Q105.73 16.72 106.01 15.68Q106.29 14.64 106.29 13.35L106.29 13.35Q106.29 12.73 106.20 12.07Q106.11 11.41 105.91 10.79Q105.71 10.16 105.38 9.61Q105.04 9.06 104.53 8.64Q104.03 8.23 103.34 7.99Q102.66 7.75 101.77 7.75L101.77 7.75Q100.57 7.75 99.71 8.17Q98.86 8.59 98.32 9.34Q97.78 10.09 97.53 11.12Q97.28 12.14 97.28 13.35L97.28 13.35Q97.28 14.00 97.36 14.68Q97.44 15.35 97.65 15.97Q97.85 16.59 98.19 17.14Q98.52 17.68 99.02 18.09Q99.52 18.49 100.20 18.73Q100.88 18.96 101.77 18.96ZM101.72 6.12L101.72 6.12Q102.95 6.12 103.92 6.42Q104.89 6.73 105.64 7.25Q106.38 7.77 106.92 8.46Q107.45 9.15 107.78 9.93Q108.12 10.71 108.28 11.54Q108.43 12.36 108.43 13.14L108.43 13.14Q108.43 14.05 108.29 14.96Q108.14 15.87 107.81 16.71Q107.48 17.54 106.96 18.26Q106.44 18.97 105.70 19.51Q104.95 20.04 103.96 20.34Q102.97 20.64 101.72 20.64L101.72 20.64Q100.17 20.64 98.94 20.10Q97.71 19.57 96.86 18.60Q96 17.64 95.55 16.29Q95.10 14.95 95.10 13.34L95.10 13.34Q95.10 12.43 95.26 11.55Q95.41 10.66 95.75 9.86Q96.09 9.06 96.62 8.37Q97.15 7.69 97.89 7.18Q98.63 6.68 99.57 6.40Q100.52 6.12 101.72 6.12ZM117.66 18.96L117.66 18.96Q118.79 18.96 119.64 18.57Q120.49 18.18 121.05 17.45Q121.62 16.72 121.90 15.68Q122.18 14.64 122.18 13.35L122.18 13.35Q122.18 12.73 122.09 12.07Q122.00 11.41 121.80 10.79Q121.61 10.16 121.27 9.61Q120.93 9.06 120.42 8.64Q119.92 8.23 119.23 7.99Q118.55 7.75 117.66 7.75L117.66 7.75Q116.46 7.75 115.61 8.17Q114.75 8.59 114.21 9.34Q113.67 10.09 113.42 11.12Q113.17 12.14 113.17 13.35L113.17 13.35Q113.17 14.00 113.25 14.68Q113.33 15.35 113.54 15.97Q113.74 16.59 114.08 17.14Q114.41 17.68 114.91 18.09Q115.41 18.49 116.09 18.73Q116.77 18.96 117.66 18.96ZM117.61 6.12L117.61 6.12Q118.84 6.12 119.81 6.42Q120.79 6.73 121.53 7.25Q122.27 7.77 122.81 8.46Q123.34 9.15 123.67 9.93Q124.01 10.71 124.17 11.54Q124.32 12.36 124.32 13.14L124.32 13.14Q124.32 14.05 124.18 14.96Q124.03 15.87 123.70 16.71Q123.38 17.54 122.85 18.26Q122.33 18.97 121.59 19.51Q120.84 20.04 119.85 20.34Q118.86 20.64 117.61 20.64L117.61 20.64Q116.06 20.64 114.83 20.10Q113.60 19.57 112.75 18.60Q111.89 17.64 111.44 16.29Q110.99 14.95 110.99 13.34L110.99 13.34Q110.99 12.43 111.15 11.55Q111.30 10.66 111.64 9.86Q111.98 9.06 112.51 8.37Q113.04 7.69 113.78 7.18Q114.52 6.68 115.46 6.40Q116.41 6.12 117.61 6.12ZM134.93 6.59L135.21 8.78Q135.56 8.34 136.15 7.91Q136.73 7.48 137.43 7.13Q138.13 6.77 138.88 6.56Q139.64 6.34 140.33 6.34L140.33 6.34Q141.56 6.34 142.41 6.71Q143.26 7.08 143.80 7.78Q144.34 8.47 144.58 9.48Q144.82 10.49 144.82 11.77L144.82 11.77L144.82 20.29L142.59 20.29L142.59 11.77Q142.59 10.88 142.45 10.17Q142.31 9.46 142.00 8.96Q141.68 8.47 141.18 8.21Q140.67 7.95 139.93 7.95L139.93 7.95Q139.37 7.95 138.70 8.17Q138.04 8.39 137.41 8.71Q136.79 9.02 136.28 9.38Q135.76 9.73 135.52 9.97L135.52 9.97L135.52 20.29L133.29 20.29L133.29 6.59L134.93 6.59ZM153.87 19.17L153.87 19.17Q154.71 19.17 155.34 18.93Q155.96 18.69 156.42 18.28Q156.87 17.86 157.16 17.31Q157.45 16.76 157.63 16.14Q157.80 15.53 157.88 14.88Q157.95 14.24 157.95 13.64L157.95 13.64Q157.95 13.04 157.88 12.40Q157.80 11.77 157.63 11.15Q157.45 10.54 157.16 9.98Q156.87 9.43 156.42 9.02Q155.96 8.60 155.33 8.36Q154.70 8.12 153.87 8.12L153.87 8.12Q153.04 8.12 152.41 8.37Q151.78 8.61 151.33 9.03Q150.88 9.45 150.58 10.00Q150.28 10.55 150.11 11.16Q149.93 11.77 149.86 12.41Q149.79 13.05 149.79 13.64L149.79 13.64Q149.79 14.24 149.86 14.88Q149.93 15.52 150.11 16.13Q150.28 16.75 150.58 17.30Q150.88 17.85 151.33 18.26Q151.78 18.68 152.41 18.93Q153.04 19.17 153.87 19.17ZM160.07 13.61L160.07 13.61Q160.07 14.43 159.95 15.28Q159.83 16.13 159.55 16.92Q159.27 17.72 158.81 18.41Q158.34 19.10 157.66 19.62Q156.97 20.13 156.03 20.43Q155.09 20.73 153.86 20.73L153.86 20.73Q152.63 20.73 151.68 20.43Q150.74 20.13 150.05 19.62Q149.37 19.10 148.90 18.41Q148.44 17.72 148.16 16.92Q147.88 16.13 147.76 15.28Q147.64 14.44 147.64 13.61L147.64 13.61Q147.64 12.77 147.76 11.92Q147.88 11.07 148.16 10.28Q148.44 9.49 148.90 8.80Q149.37 8.11 150.05 7.59Q150.74 7.08 151.68 6.79Q152.63 6.49 153.86 6.49L153.86 6.49Q155.09 6.49 156.03 6.79Q156.97 7.08 157.66 7.59Q158.34 8.11 158.81 8.80Q159.27 9.49 159.55 10.28Q159.83 11.07 159.95 11.92Q160.07 12.77 160.07 13.61ZM164.63 6.59L164.98 8.84Q165.38 8.34 165.79 7.89Q166.20 7.43 166.65 7.09Q167.10 6.75 167.61 6.54Q168.13 6.34 168.75 6.34L168.75 6.34Q169.41 6.34 169.92 6.48L169.92 6.48L169.92 8.26Q169.90 8.25 169.79 8.24Q169.69 8.23 169.52 8.22Q169.36 8.21 169.15 8.21Q168.94 8.21 168.73 8.21L168.73 8.21Q168.23 8.21 167.75 8.38Q167.27 8.54 166.82 8.81Q166.37 9.07 165.96 9.40Q165.54 9.74 165.18 10.09L165.18 10.09L165.18 20.29L162.95 20.29L162.95 6.59L164.63 6.59ZM174.59 10.21L174.59 20.29L172.36 20.29L172.36 6.59L174.01 6.59L174.33 9Q174.70 8.39 175.19 7.90Q175.68 7.41 176.27 7.06Q176.86 6.71 177.53 6.53Q178.21 6.34 178.96 6.34L178.96 6.34Q179.71 6.34 180.32 6.54Q180.93 6.75 181.39 7.10Q181.86 7.45 182.19 7.93Q182.51 8.40 182.70 8.95L182.70 8.95Q183.09 8.37 183.64 7.89Q184.20 7.41 184.83 7.06Q185.47 6.71 186.18 6.53Q186.89 6.34 187.62 6.34L187.62 6.34Q188.65 6.34 189.43 6.71Q190.21 7.09 190.73 7.75Q191.26 8.41 191.53 9.32Q191.79 10.23 191.79 11.31L191.79 11.31L191.79 20.29L189.56 20.29L189.56 11.29Q189.56 10.23 189.38 9.57Q189.20 8.92 188.89 8.56Q188.58 8.20 188.16 8.07Q187.75 7.95 187.29 7.95L187.29 7.95Q186.21 7.95 185.17 8.53Q184.14 9.12 183.05 10.23L183.05 10.23L183.05 20.29L180.82 20.29L180.82 11.29Q180.82 10.48 180.71 9.86Q180.61 9.23 180.36 8.81Q180.11 8.38 179.67 8.16Q179.24 7.95 178.57 7.95L178.57 7.95Q177.64 7.95 176.67 8.53Q175.69 9.11 174.59 10.21L174.59 10.21ZM200.57 7.95L200.57 7.95Q200.04 7.95 199.46 8.04Q198.88 8.13 198.31 8.31Q197.74 8.50 197.21 8.76Q196.68 9.02 196.24 9.36L196.24 9.36L195.45 7.82Q196.11 7.45 196.69 7.18Q197.26 6.90 197.85 6.71Q198.45 6.53 199.10 6.43Q199.75 6.34 200.57 6.34L200.57 6.34Q202.34 6.34 203.40 6.73Q204.46 7.11 205.01 7.92Q205.57 8.73 205.74 9.98Q205.91 11.24 205.91 12.97L205.91 12.97L205.91 20.29L204.27 20.29L203.94 18.20Q203.07 19.42 201.88 19.97Q200.68 20.52 199.20 20.52L199.20 20.52Q198.14 20.52 197.29 20.25Q196.44 19.98 195.84 19.45Q195.25 18.91 194.92 18.12Q194.60 17.32 194.60 16.27L194.60 16.27Q194.60 15.25 194.99 14.44Q195.38 13.63 196.03 13.07Q196.69 12.50 197.55 12.21Q198.42 11.91 199.38 11.91L199.38 11.91Q200.34 11.91 201.13 12Q201.93 12.09 202.49 12.21Q203.06 12.32 203.38 12.41L203.38 12.41L203.68 12.49Q203.68 11.29 203.64 10.42Q203.59 9.55 203.30 9.01Q203.00 8.46 202.37 8.20Q201.74 7.95 200.57 7.95ZM199.75 18.91L199.75 18.91Q200.81 18.91 201.77 18.46Q202.72 18 203.68 17.11L203.68 17.11L203.68 13.62Q203.19 13.55 202.72 13.50L202.72 13.50Q202.31 13.45 201.84 13.41Q201.38 13.37 200.96 13.37L200.96 13.37Q200.12 13.37 199.37 13.46Q198.62 13.55 198.06 13.84Q197.50 14.13 197.17 14.68Q196.84 15.23 196.84 16.15L196.84 16.15Q196.84 16.97 197.05 17.50Q197.26 18.04 197.64 18.35Q198.02 18.67 198.56 18.79Q199.09 18.91 199.75 18.91ZM211.56 1.37L211.56 20.29L209.33 20.29L209.33 1.78L211.56 1.37Z"/></svg>