<svg xmlns="http://www.w3.org/2000/svg" xmlns:xlink="http://www.w3.org/1999/xlink" width="190.2" height="28.176000000000002"><path fill="black" d="M1.56 22.56L0.72 22.56L4.34 5.52L11.02 5.52Q12.17 5.52 12.98 6.14Q13.80 6.77 14.23 7.75Q14.66 8.74 14.66 9.82L14.66 9.82Q14.66 10.90 14.26 11.93Q13.85 12.96 13.13 13.81Q12.41 14.66 11.48 15.23Q10.56 15.79 9.50 15.89L9.50 15.89L12.12 22.56L11.16 22.56L8.57 15.98L2.95 15.98L1.56 22.56ZM3.12 15.22L9.10 15.22Q10.08 15.22 10.93 14.75Q11.78 14.28 12.44 13.50Q13.10 12.72 13.46 11.78Q13.82 10.85 13.82 9.94L13.82 9.94Q13.82 8.95 13.45 8.14Q13.08 7.32 12.41 6.80Q11.74 6.29 10.82 6.29L10.82 6.29L5.02 6.29L3.12 15.22ZM20.02 22.80L20.02 22.80Q18.65 22.80 17.65 22.06Q16.66 21.31 16.12 20.10Q15.58 18.89 15.58 17.54L15.58 17.54Q15.58 16.08 16.15 14.71Q16.73 13.34 17.71 12.25Q18.70 11.16 19.94 10.52Q21.19 9.89 22.54 9.89L22.54 9.89Q24.17 9.89 25.19 10.79Q26.21 11.69 26.66 12.91L26.66 12.91L27.26 10.08L28.10 10.08L25.73 21.19Q25.70 21.24 25.69 21.32Q25.68 21.41 25.68 21.48L25.68 21.48Q25.68 21.79 26.02 21.79L26.02 21.79L25.85 22.56Q25.78 22.56 25.68 22.57Q25.58 22.58 25.51 22.56L25.51 22.56Q25.18 22.51 25.02 22.31Q24.86 22.10 24.86 21.82L24.86 21.82Q24.86 21.72 24.89 21.59Q24.91 21.46 24.98 21.11Q25.06 20.76 25.20 20.02L25.20 20.02Q24.22 21.26 22.81 22.03Q21.41 22.80 20.02 22.80ZM20.26 22.03L20.26 22.03Q20.98 22.03 21.79 21.74Q22.61 21.46 23.36 20.96Q24.12 20.47 24.70 19.81Q25.27 19.15 25.49 18.43L25.49 18.43L26.40 14.14Q26.28 13.20 25.76 12.42Q25.25 11.64 24.41 11.15Q23.57 10.66 22.54 10.66L22.54 10.66Q21.34 10.66 20.23 11.26Q19.13 11.86 18.28 12.85Q17.42 13.85 16.92 15.05Q16.42 16.25 16.42 17.47L16.42 17.47Q16.42 18.70 16.92 19.73Q17.42 20.76 18.28 21.40Q19.13 22.03 20.26 22.03ZM31.30 22.68L31.30 22.68Q30.58 22.68 30.16 22.27Q29.74 21.86 29.74 21.14L29.74 21.14Q29.74 21 29.75 20.87Q29.76 20.74 29.78 20.59L29.78 20.59L33.10 5.04L33.91 5.04L30.62 20.42Q30.60 20.52 30.59 20.62Q30.58 20.71 30.58 20.83L30.58 20.83Q30.58 21.94 31.80 21.94L31.80 21.94Q32.06 21.94 32.42 21.86Q32.78 21.79 33.10 21.70L33.10 21.70L33.14 22.37Q32.78 22.49 32.23 22.58Q31.68 22.68 31.30 22.68ZM40.10 22.80L40.10 22.80Q38.64 22.80 37.58 22.08Q36.53 21.36 35.95 20.16Q35.38 18.96 35.35 17.52L35.35 17.52Q35.30 16.08 35.81 14.72Q36.31 13.37 37.25 12.28Q38.18 11.18 39.47 10.54Q40.75 9.89 42.26 9.89L42.26 9.89Q43.37 9.89 44.28 10.26Q45.19 10.63 45.74 11.39Q46.30 12.14 46.30 13.30L46.30 13.30Q46.37 15.19 44.80 15.95Q43.22 16.70 40.01 16.70L40.01 16.70Q39.10 16.70 38.09 16.67Q37.08 16.63 35.83 16.54L35.83 16.54L36.02 15.86Q37.32 15.94 38.27 15.97Q39.22 16.01 40.08 16.01L40.08 16.01Q42.14 16.01 43.34 15.71Q44.54 15.41 45.05 14.81Q45.55 14.21 45.50 13.32L45.50 13.32Q45.50 12.34 45 11.75Q44.50 11.16 43.74 10.88Q42.98 10.61 42.17 10.61L42.17 10.61Q40.87 10.61 39.76 11.21Q38.64 11.81 37.84 12.78Q37.03 13.75 36.60 14.94Q36.17 16.13 36.19 17.30L36.19 17.30Q36.22 18.65 36.70 19.74Q37.18 20.83 38.09 21.47Q39 22.10 40.30 22.10L40.30 22.10Q41.81 22.10 42.96 21.37Q44.11 20.64 44.76 19.42L44.76 19.42L45.50 19.63Q45 20.59 44.21 21.30Q43.42 22.01 42.38 22.40Q41.35 22.80 40.10 22.80ZM50.98 22.56L48.70 10.08L49.54 10.08L51.62 21.65Q52.90 20.26 53.93 18.68Q54.96 17.11 55.80 15.53L55.80 15.53L54.72 10.08L55.58 10.08L56.38 14.40Q56.93 13.27 57.36 12.18Q57.79 11.09 58.10 10.08L58.10 10.08L58.90 10.08Q58.49 11.45 57.91 12.83Q57.34 14.21 56.62 15.58L56.62 15.58L57.77 21.65Q58.73 20.59 59.56 19.43Q60.38 18.26 61.08 17.06Q61.78 15.86 62.36 14.66Q62.95 13.46 63.41 12.30Q63.86 11.14 64.20 10.08L64.20 10.08L64.99 10.08Q64.01 13.20 62.30 16.38Q60.60 19.56 57.96 22.56L57.96 22.56L57.14 22.56L56.02 16.63Q55.20 18.14 54.14 19.64Q53.09 21.14 51.79 22.56L51.79 22.56L50.98 22.56ZM69.98 22.80L69.98 22.80Q68.62 22.80 67.62 22.06Q66.62 21.31 66.08 20.10Q65.54 18.89 65.54 17.54L65.54 17.54Q65.54 16.08 66.12 14.71Q66.70 13.34 67.68 12.25Q68.66 11.16 69.91 10.52Q71.16 9.89 72.50 9.89L72.50 9.89Q74.14 9.89 75.16 10.79Q76.18 11.69 76.63 12.91L76.63 12.91L77.23 10.08L78.07 10.08L75.70 21.19Q75.67 21.24 75.66 21.32Q75.65 21.41 75.65 21.48L75.65 21.48Q75.65 21.79 75.98 21.79L75.98 21.79L75.82 22.56Q75.74 22.56 75.65 22.57Q75.55 22.58 75.48 22.56L75.48 22.56Q75.14 22.51 74.99 22.31Q74.83 22.10 74.83 21.82L74.83 21.82Q74.83 21.72 74.86 21.59Q74.88 21.46 74.95 21.11Q75.02 20.76 75.17 20.02L75.17 20.02Q74.18 21.26 72.78 22.03Q71.38 22.80 69.98 22.80ZM70.22 22.03L70.22 22.03Q70.94 22.03 71.76 21.74Q72.58 21.46 73.33 20.96Q74.09 20.47 74.66 19.81Q75.24 19.15 75.46 18.43L75.46 18.43L76.37 14.14Q76.25 13.20 75.73 12.42Q75.22 11.64 74.38 11.15Q73.54 10.66 72.50 10.66L72.50 10.66Q71.30 10.66 70.20 11.26Q69.10 11.86 68.24 12.85Q67.39 13.85 66.89 15.05Q66.38 16.25 66.38 17.47L66.38 17.47Q66.38 18.70 66.89 19.73Q67.39 20.76 68.24 21.40Q69.10 22.03 70.22 22.03ZM78.10 27.94L78 27.26Q79.01 27.07 79.62 26.72Q80.23 26.38 80.76 25.74Q81.29 25.10 81.98 24.02L81.98 24.02L82.90 22.61L80.14 10.08L81 10.08L83.50 21.70L84.77 19.66Q85.87 17.90 86.63 16.58Q87.38 15.26 87.92 14.20Q88.46 13.13 88.82 12.14Q89.18 11.16 89.50 10.08L89.50 10.08L90.31 10.08Q90 11.23 89.63 12.24Q89.26 13.25 88.72 14.34Q88.18 15.43 87.37 16.81Q86.57 18.19 85.37 20.09L85.37 20.09L83.40 23.18Q82.54 24.53 81.90 25.40Q81.26 26.28 80.69 26.81Q80.11 27.34 79.50 27.59Q78.89 27.84 78.10 27.94L78.10 27.94ZM104.86 22.56L95.69 22.56Q95.81 22.01 96.08 21.20Q96.36 20.40 96.94 19.49Q97.51 18.58 98.46 17.72Q99.41 16.87 100.87 16.25L100.87 16.25Q102.19 15.72 103.16 15.25Q104.14 14.78 104.76 14.29Q105.38 13.80 105.70 13.21Q106.01 12.62 106.01 11.83L106.01 11.83Q106.01 11.21 105.71 10.66Q105.41 10.10 104.76 9.74Q104.11 9.38 103.10 9.38L103.10 9.38Q102.29 9.38 101.58 9.65Q100.87 9.91 100.32 10.26Q99.77 10.61 99.38 10.94Q99.00 11.28 98.86 11.45L98.86 11.45L98.40 10.90Q98.45 10.85 98.84 10.50Q99.24 10.15 99.90 9.71Q100.56 9.26 101.45 8.94Q102.34 8.62 103.34 8.62L103.34 8.62Q104.54 8.62 105.34 9.05Q106.13 9.48 106.51 10.18Q106.90 10.87 106.90 11.66L106.90 11.66Q106.90 12.62 106.55 13.33Q106.20 14.04 105.53 14.58Q104.86 15.12 103.85 15.65Q102.84 16.18 101.47 16.73L101.47 16.73Q100.34 17.21 99.50 17.90Q98.66 18.60 98.09 19.34Q97.51 20.09 97.20 20.74Q96.89 21.38 96.77 21.79L96.77 21.79L105.05 21.79L104.86 22.56ZM113.04 22.80L113.04 22.80Q111.70 22.80 110.74 22.09Q109.78 21.38 109.25 20.14Q108.72 18.89 108.72 17.28L108.72 17.28Q108.72 15.41 109.32 13.78Q109.92 12.14 110.96 10.90Q112.01 9.65 113.35 8.94Q114.70 8.23 116.14 8.23L116.14 8.23Q117.48 8.23 118.45 8.94Q119.42 9.65 119.94 10.90Q120.46 12.14 120.46 13.78L120.46 13.78Q120.46 15.65 119.86 17.28Q119.26 18.91 118.22 20.15Q117.19 21.38 115.85 22.09Q114.50 22.80 113.04 22.80ZM113.21 22.01L113.21 22.01Q114.50 22.01 115.67 21.38Q116.83 20.76 117.72 19.64Q118.61 18.53 119.12 17.04Q119.64 15.55 119.64 13.82L119.64 13.82Q119.64 11.69 118.67 10.36Q117.70 9.02 115.97 9.02L115.97 9.02Q114.67 9.02 113.51 9.65Q112.34 10.27 111.46 11.40Q110.57 12.53 110.05 14.02Q109.54 15.50 109.54 17.23L109.54 17.23Q109.54 19.37 110.51 20.69Q111.48 22.01 113.21 22.01ZM127.15 22.80L127.15 22.80Q125.81 22.80 124.85 22.09Q123.89 21.38 123.36 20.14Q122.83 18.89 122.83 17.28L122.83 17.28Q122.83 15.41 123.43 13.78Q124.03 12.14 125.08 10.90Q126.12 9.65 127.46 8.94Q128.81 8.23 130.25 8.23L130.25 8.23Q131.59 8.23 132.56 8.94Q133.54 9.65 134.05 10.90Q134.57 12.14 134.57 13.78L134.57 13.78Q134.57 15.65 133.97 17.28Q133.37 18.91 132.34 20.15Q131.30 21.38 129.96 22.09Q128.62 22.80 127.15 22.80ZM127.32 22.01L127.32 22.01Q128.62 22.01 129.78 21.38Q130.94 20.76 131.83 19.64Q132.72 18.53 133.24 17.04Q133.75 15.55 133.75 13.82L133.75 13.82Q133.75 11.69 132.78 10.36Q131.81 9.02 130.08 9.02L130.08 9.02Q128.78 9.02 127.62 9.65Q126.46 10.27 125.57 11.40Q124.68 12.53 124.16 14.02Q123.65 15.50 123.65 17.23L123.65 17.23Q123.65 19.37 124.62 20.69Q125.59 22.01 127.32 22.01ZM142.22 22.56L144.86 10.08L145.68 10.08L143.04 22.56L142.22 22.56ZM145.51 7.06L145.94 5.04L146.76 5.04L146.33 7.06L145.51 7.06ZM147.60 21.10L147.60 21.10Q147.60 20.98 147.61 20.86Q147.62 20.74 147.65 20.62L147.65 20.62L149.74 10.80L148.06 10.80L148.20 10.08L149.90 10.08L150.82 5.78L151.63 5.78L150.72 10.08L153.53 10.08L153.36 10.80L150.55 10.80L148.68 19.51Q148.56 20.06 148.51 20.33Q148.46 20.59 148.46 20.74L148.46 20.74Q148.46 21.31 148.85 21.61Q149.23 21.91 149.74 21.91L149.74 21.91Q150.24 21.91 150.67 21.77Q151.10 21.62 151.40 21.49Q151.70 21.36 151.75 21.31L151.75 21.31L151.90 21.98Q151.85 22.01 151.49 22.19Q151.13 22.37 150.59 22.52Q150.05 22.68 149.42 22.68L149.42 22.68Q148.63 22.68 148.12 22.26Q147.60 21.84 147.60 21.10ZM158.62 22.80L158.62 22.80Q157.25 22.80 156.25 22.06Q155.26 21.31 154.72 20.10Q154.18 18.89 154.18 17.54L154.18 17.54Q154.18 16.08 154.75 14.71Q155.33 13.34 156.31 12.25Q157.30 11.16 158.54 10.52Q159.79 9.89 161.14 9.89L161.14 9.89Q162.77 9.89 163.79 10.79Q164.81 11.69 165.26 12.91L165.26 12.91L165.86 10.08L166.70 10.08L164.33 21.19Q164.30 21.24 164.29 21.32Q164.28 21.41 164.28 21.48L164.28 21.48Q164.28 21.79 164.62 21.79L164.62 21.79L164.45 22.56Q164.38 22.56 164.28 22.57Q164.18 22.58 164.11 22.56L164.11 22.56Q163.78 22.51 163.62 22.31Q163.46 22.10 163.46 21.82L163.46 21.82Q163.46 21.72 163.49 21.59Q163.51 21.46 163.58 21.11Q163.66 20.76 163.80 20.02L163.80 20.02Q162.82 21.26 161.41 22.03Q160.01 22.80 158.62 22.80ZM158.86 22.03L158.86 22.03Q159.58 22.03 160.39 21.74Q161.21 21.46 161.96 20.96Q162.72 20.47 163.30 19.81Q163.87 19.15 164.09 18.43L164.09 18.43L165.00 14.14Q164.88 13.20 164.36 12.42Q163.85 11.64 163.01 11.15Q162.17 10.66 161.14 10.66L161.14 10.66Q159.94 10.66 158.83 11.26Q157.73 11.86 156.88 12.85Q156.02 13.85 155.52 15.05Q155.02 16.25 155.02 17.47L155.02 17.47Q155.02 18.70 155.52 19.73Q156.02 20.76 156.88 21.40Q157.73 22.03 158.86 22.03ZM169.90 22.68L169.90 22.68Q169.18 22.68 168.76 22.27Q168.34 21.86 168.34 21.14L168.34 21.14Q168.34 21 168.35 20.87Q168.36 20.74 168.38 20.59L168.38 20.59L171.70 5.04L172.51 5.04L169.22 20.42Q169.20 20.52 169.19 20.62Q169.18 20.71 169.18 20.83L169.18 20.83Q169.18 21.94 170.40 21.94L170.40 21.94Q170.66 21.94 171.02 21.86Q171.38 21.79 171.70 21.70L171.70 21.70L171.74 22.37Q171.38 22.49 170.83 22.58Q170.28 22.68 169.90 22.68ZM173.54 22.56L176.18 10.08L177 10.08L174.36 22.56L173.54 22.56ZM176.83 7.06L177.26 5.04L178.08 5.04L177.65 7.06L176.83 7.06ZM183.07 22.80L183.07 22.80Q181.68 22.80 180.64 22.09Q179.59 21.38 179.03 20.18Q178.46 18.98 178.46 17.52L178.46 17.52Q178.46 15.96 179.06 14.59Q179.66 13.22 180.68 12.17Q181.70 11.11 183.01 10.50Q184.32 9.89 185.76 9.89L185.76 9.89Q187.32 9.89 188.38 10.64Q189.43 11.40 189.74 12.72L189.74 12.72L188.88 13.01Q188.57 11.90 187.73 11.28Q186.89 10.66 185.74 10.66L185.74 10.66Q184.51 10.66 183.36 11.18Q182.21 11.71 181.30 12.65Q180.38 13.58 179.84 14.81Q179.30 16.03 179.30 17.38L179.30 17.38Q179.30 18.67 179.80 19.73Q180.29 20.78 181.15 21.41Q182.02 22.03 183.14 22.03L183.14 22.03Q184.03 22.03 184.93 21.68Q185.83 21.34 186.58 20.77Q187.32 20.21 187.61 19.56L187.61 19.56L188.38 19.80Q187.92 20.66 187.07 21.35Q186.22 22.03 185.17 22.42Q184.13 22.80 183.07 22.80Z"/></svg>