<svg xmlns="http://www.w3.org/2000/svg" xmlns:xlink="http://www.w3.org/1999/xlink" width="245.076" height="30"><path fill="black" d="M12.53 24.72L2.28 24.72L2.28 6.96L12.41 6.96L12.41 7.75L3.10 7.75L3.10 23.93L12.53 23.93L12.53 24.72ZM11.27 15.98L2.88 15.98L2.88 15.19L11.27 15.19L11.27 15.98ZM16.24 24.72L15.42 24.72L15.42 11.76L16.14 11.76L16.21 13.31L16.31 13.31Q17.15 12.47 18.24 12.02Q19.33 11.57 20.53 11.57L20.53 11.57Q21.72 11.57 22.63 11.98Q23.53 12.38 24.04 13.33Q24.55 14.27 24.55 15.86L24.55 15.86L24.55 24.72L23.74 24.72L23.74 15.86Q23.74 13.91 22.87 13.13Q22.00 12.36 20.51 12.36L20.51 12.36Q19.84 12.36 19.07 12.56Q18.30 12.76 17.56 13.22Q16.81 13.69 16.24 14.48L16.24 14.48L16.24 24.72ZM32.88 24.94L32.88 24.94Q31.24 24.94 30.08 24.26Q28.93 23.58 28.33 22.10Q27.72 20.63 27.72 18.24L27.72 18.24Q27.72 15.85 28.37 14.38Q29.03 12.91 30.30 12.24Q31.57 11.57 33.42 11.57L33.42 11.57Q34.03 11.57 34.69 11.65Q35.35 11.74 35.94 11.92L35.94 11.92L35.94 12.73Q35.30 12.54 34.67 12.45Q34.03 12.36 33.44 12.36L33.44 12.36Q31.82 12.36 30.74 12.91Q29.66 13.46 29.12 14.74Q28.58 16.02 28.58 18.19L28.58 18.19Q28.58 20.39 29.08 21.70Q29.58 23.00 30.56 23.57Q31.54 24.14 32.96 24.14L32.96 24.14Q33.60 24.14 34.33 24.01Q35.06 23.87 35.94 23.56L35.94 23.56L35.94 24.37Q35.16 24.66 34.40 24.80Q33.64 24.94 32.88 24.94ZM42.54 24.94L42.54 24.94Q41.03 24.94 39.89 24.26Q38.76 23.59 38.12 22.12Q37.49 20.64 37.49 18.24L37.49 18.24Q37.49 15.85 38.12 14.38Q38.76 12.91 39.89 12.24Q41.03 11.57 42.54 11.57L42.54 11.57Q44.05 11.57 45.19 12.23Q46.33 12.90 46.96 14.36Q47.59 15.83 47.59 18.24L47.59 18.24Q47.59 20.62 46.96 22.09Q46.33 23.57 45.19 24.25Q44.05 24.94 42.54 24.94ZM42.54 24.14L42.54 24.14Q43.81 24.14 44.75 23.59Q45.70 23.04 46.21 21.75Q46.73 20.46 46.73 18.28L46.73 18.28Q46.73 16.04 46.21 14.75Q45.70 13.46 44.75 12.91Q43.81 12.36 42.54 12.36L42.54 12.36Q41.27 12.36 40.33 12.91Q39.38 13.45 38.87 14.73Q38.35 16.01 38.35 18.20L38.35 18.20Q38.35 20.42 38.87 21.73Q39.38 23.03 40.33 23.59Q41.27 24.14 42.54 24.14ZM55.16 24.94L55.16 24.94Q53.76 24.94 52.63 24.31Q51.50 23.69 50.84 22.28Q50.18 20.87 50.18 18.50L50.18 18.50Q50.18 16.12 50.90 14.58Q51.61 13.04 53.00 12.31Q54.38 11.57 56.41 11.57L56.41 11.57Q57.06 11.57 57.70 11.63Q58.34 11.69 58.88 11.78L58.88 11.78L58.88 5.33L59.70 5.33L59.70 24.72L58.98 24.72L58.91 23.29L58.81 23.29Q58.22 24 57.28 24.47Q56.34 24.94 55.16 24.94ZM55.20 24.14L55.20 24.14Q56.24 24.14 57.23 23.66Q58.22 23.17 58.88 22.12L58.88 22.12L58.88 12.64Q58.38 12.50 57.71 12.43Q57.04 12.36 56.38 12.36L56.38 12.36Q53.75 12.36 52.40 13.78Q51.05 15.19 51.05 18.41L51.05 18.41Q51.05 20.62 51.58 21.86Q52.12 23.11 53.05 23.63Q53.99 24.14 55.20 24.14ZM68.60 24.94L68.60 24.94Q66.84 24.94 65.59 24.26Q64.34 23.58 63.69 22.10Q63.04 20.63 63.04 18.24L63.04 18.24Q63.04 15.88 63.64 14.41Q64.25 12.94 65.32 12.25Q66.40 11.57 67.82 11.57L67.82 11.57Q69.26 11.57 70.30 12.25Q71.34 12.94 71.90 14.41Q72.46 15.88 72.46 18.24L72.46 18.24L72.46 18.60L63.43 18.60L63.43 17.81L71.93 17.81L71.60 18.12Q71.60 16.00 71.15 14.73Q70.70 13.46 69.86 12.91Q69.01 12.36 67.82 12.36L67.82 12.36Q66.64 12.36 65.75 12.91Q64.87 13.46 64.39 14.72Q63.90 15.98 63.90 18.12L63.90 18.12L63.90 18.30Q63.90 20.44 64.46 21.72Q65.02 23.00 66.08 23.57Q67.14 24.14 68.65 24.14L68.65 24.14Q69.38 24.14 70.16 23.99Q70.93 23.84 71.86 23.56L71.86 23.56L71.86 24.37Q70.98 24.66 70.19 24.80Q69.40 24.94 68.60 24.94ZM84.58 24.94L84.58 24.94Q83.65 24.94 82.60 24.77Q81.54 24.60 80.53 24.25L80.53 24.25L80.53 23.44Q81.28 23.69 81.98 23.84Q82.69 24 83.35 24.07Q84.01 24.14 84.62 24.14L84.62 24.14Q87.07 24.14 88.31 23.14Q89.56 22.14 89.56 20.20L89.56 20.20Q89.56 18.54 88.61 17.68Q87.66 16.81 85.49 16.25L85.49 16.25L84.74 16.06Q82.52 15.48 81.43 14.35Q80.34 13.22 80.34 11.38L80.34 11.38Q80.34 9.23 81.79 7.99Q83.23 6.74 86.05 6.74L86.05 6.74Q86.98 6.74 87.94 6.88Q88.91 7.01 89.72 7.28L89.72 7.28L89.72 8.10Q88.79 7.80 87.86 7.67Q86.94 7.54 86.00 7.54L86.00 7.54Q84.41 7.54 83.34 7.97Q82.27 8.41 81.74 9.26Q81.20 10.10 81.20 11.33L81.20 11.33Q81.20 12.94 82.08 13.81Q82.96 14.69 85.04 15.24L85.04 15.24L85.79 15.43Q87.38 15.84 88.41 16.47Q89.44 17.10 89.93 18.01Q90.42 18.91 90.42 20.16L90.42 20.16Q90.42 21.70 89.74 22.76Q89.06 23.83 87.76 24.38Q86.45 24.94 84.58 24.94ZM96.66 24.91L96.66 24.91Q94.93 24.91 93.91 24.02Q92.89 23.14 92.89 21.52L92.89 21.52Q92.89 19.90 93.92 18.99Q94.96 18.08 97.20 17.83L97.20 17.83L101.12 17.36L101.16 18.16L97.18 18.62Q95.38 18.83 94.58 19.52Q93.78 20.21 93.78 21.44L93.78 21.44Q93.78 22.75 94.51 23.44Q95.24 24.12 96.70 24.12L96.70 24.12Q97.75 24.12 98.80 23.65Q99.84 23.17 100.66 22.08L100.66 22.08L100.66 15.77Q100.66 14.41 100.24 13.67Q99.82 12.94 99.02 12.65Q98.22 12.36 97.08 12.36L97.08 12.36Q96.35 12.36 95.44 12.50Q94.54 12.64 93.59 12.97L93.59 12.97L93.59 12.16Q94.34 11.87 95.29 11.72Q96.23 11.57 97.08 11.57L97.08 11.57Q98.47 11.57 99.46 11.95Q100.44 12.34 100.96 13.25Q101.47 14.17 101.47 15.77L101.47 15.77L101.47 24.72L100.75 24.72L100.68 23.18L100.58 23.18Q99.92 23.99 98.89 24.45Q97.86 24.91 96.66 24.91ZM106.20 24.72L105.38 24.72L105.38 11.76L106.10 11.76L106.18 13.31L106.27 13.31Q107.11 12.47 108.20 12.02Q109.30 11.57 110.50 11.57L110.50 11.57Q111.68 11.57 112.59 11.98Q113.50 12.38 114.01 13.33Q114.52 14.27 114.52 15.86L114.52 15.86L114.52 24.72L113.70 24.72L113.70 15.86Q113.70 13.91 112.83 13.13Q111.96 12.36 110.47 12.36L110.47 12.36Q109.80 12.36 109.03 12.56Q108.26 12.76 107.52 13.22Q106.78 13.69 106.20 14.48L106.20 14.48L106.20 24.72ZM121.09 24.94L121.09 24.94Q120.20 24.94 119.41 24.82Q118.61 24.70 117.83 24.44L117.83 24.44L117.83 23.63Q118.79 23.92 119.56 24.03Q120.34 24.14 121.13 24.14L121.13 24.14Q123.05 24.14 123.95 23.43Q124.85 22.72 124.85 21.43L124.85 21.43Q124.85 20.30 124.28 19.70Q123.71 19.10 122.36 18.82L122.36 18.82L120.82 18.48Q119.08 18.07 118.36 17.22Q117.64 16.37 117.64 15.08L117.64 15.08Q117.64 13.57 118.76 12.57Q119.88 11.57 122.21 11.57L122.21 11.57Q122.98 11.57 123.66 11.65Q124.34 11.74 125.03 11.93L125.03 11.93L125.03 12.74Q124.24 12.52 123.59 12.44Q122.94 12.36 122.21 12.36L122.21 12.36Q120.88 12.36 120.06 12.71Q119.24 13.07 118.87 13.67Q118.49 14.28 118.49 15.05L118.49 15.05Q118.49 16.02 119.02 16.67Q119.54 17.32 120.88 17.62L120.88 17.62L122.42 17.95Q124.26 18.36 124.98 19.20Q125.70 20.04 125.70 21.36L125.70 21.36Q125.70 23.00 124.55 23.97Q123.40 24.94 121.09 24.94ZM138.11 24.72L137.29 24.72L137.29 7.90L137.60 7.86L132.71 11.45L132.71 10.52L137.60 6.91L138.11 6.91L138.11 24.72ZM147.70 24.94L147.70 24.94Q145.99 24.94 144.72 24.07Q143.45 23.20 142.75 21.20Q142.04 19.21 142.04 15.84L142.04 15.84Q142.04 12.47 142.73 10.47Q143.42 8.47 144.69 7.61Q145.96 6.74 147.70 6.74L147.70 6.74Q149.44 6.74 150.70 7.61Q151.97 8.47 152.66 10.47Q153.35 12.47 153.35 15.84L153.35 15.84Q153.35 19.21 152.65 21.20Q151.94 23.20 150.68 24.07Q149.41 24.94 147.70 24.94ZM147.70 24.14L147.70 24.14Q149.14 24.14 150.22 23.41Q151.30 22.67 151.89 20.87Q152.48 19.07 152.48 15.89L152.48 15.89Q152.48 12.66 151.89 10.84Q151.30 9.02 150.22 8.28Q149.14 7.54 147.70 7.54L147.70 7.54Q146.26 7.54 145.18 8.27Q144.10 9.01 143.50 10.81Q142.91 12.61 142.91 15.79L142.91 15.79Q142.91 19.02 143.50 20.84Q144.10 22.66 145.18 23.40Q146.26 24.14 147.70 24.14ZM162.07 24.94L162.07 24.94Q160.37 24.94 159.10 24.07Q157.82 23.20 157.12 21.20Q156.42 19.21 156.42 15.84L156.42 15.84Q156.42 12.47 157.11 10.47Q157.80 8.47 159.07 7.61Q160.33 6.74 162.07 6.74L162.07 6.74Q163.81 6.74 165.08 7.61Q166.34 8.47 167.03 10.47Q167.72 12.47 167.72 15.84L167.72 15.84Q167.72 19.21 167.02 21.20Q166.32 23.20 165.05 24.07Q163.79 24.94 162.07 24.94ZM162.07 24.14L162.07 24.14Q163.51 24.14 164.59 23.41Q165.67 22.67 166.27 20.87Q166.86 19.07 166.86 15.89L166.86 15.89Q166.86 12.66 166.27 10.84Q165.67 9.02 164.59 8.28Q163.51 7.54 162.07 7.54L162.07 7.54Q160.63 7.54 159.55 8.27Q158.47 9.01 157.88 10.81Q157.28 12.61 157.28 15.79L157.28 15.79Q157.28 19.02 157.88 20.84Q158.47 22.66 159.55 23.40Q160.63 24.14 162.07 24.14ZM177.89 24.72L177.07 24.72L177.07 11.76L177.79 11.76L177.86 13.31L177.96 13.31Q178.80 12.47 179.89 12.02Q180.98 11.57 182.18 11.57L182.18 11.57Q183.37 11.57 184.28 11.98Q185.18 12.38 185.69 13.33Q186.20 14.27 186.20 15.86L186.20 15.86L186.20 24.72L185.39 24.72L185.39 15.86Q185.39 13.91 184.52 13.13Q183.65 12.36 182.16 12.36L182.16 12.36Q181.49 12.36 180.72 12.56Q179.95 12.76 179.21 13.22Q178.46 13.69 177.89 14.48L177.89 14.48L177.89 24.72ZM194.42 24.94L194.42 24.94Q192.91 24.94 191.78 24.26Q190.64 23.59 190.01 22.12Q189.37 20.64 189.37 18.24L189.37 18.24Q189.37 15.85 190.01 14.38Q190.64 12.91 191.78 12.24Q192.91 11.57 194.42 11.57L194.42 11.57Q195.94 11.57 197.08 12.23Q198.22 12.90 198.85 14.36Q199.48 15.83 199.48 18.24L199.48 18.24Q199.48 20.62 198.85 22.09Q198.22 23.57 197.08 24.25Q195.94 24.94 194.42 24.94ZM194.42 24.14L194.42 24.14Q195.70 24.14 196.64 23.59Q197.58 23.04 198.10 21.75Q198.61 20.46 198.61 18.28L198.61 18.28Q198.61 16.04 198.10 14.75Q197.58 13.46 196.64 12.91Q195.70 12.36 194.42 12.36L194.42 12.36Q193.15 12.36 192.21 12.91Q191.27 13.45 190.75 14.73Q190.24 16.01 190.24 18.20L190.24 18.20Q190.24 20.42 190.75 21.73Q191.27 23.03 192.21 23.59Q193.15 24.14 194.42 24.14ZM203.63 24.72L202.81 24.72L202.81 11.76L203.53 11.76L203.60 13.52L203.70 13.52Q204.43 12.62 205.51 12.14Q206.59 11.66 207.68 11.66L207.68 11.66Q207.98 11.66 208.22 11.68Q208.45 11.70 208.69 11.75L208.69 11.75L208.69 12.56Q208.44 12.52 208.21 12.51Q207.97 12.50 207.67 12.50L207.67 12.50Q206.99 12.50 206.24 12.74Q205.49 12.97 204.80 13.46Q204.12 13.94 203.63 14.69L203.63 14.69L203.63 24.72ZM211.70 24.72L210.89 24.72L210.89 11.76L211.61 11.76L211.68 13.32L211.78 13.32Q212.56 12.43 213.55 12.00Q214.54 11.57 215.59 11.57L215.59 11.57Q216.64 11.57 217.45 11.98Q218.26 12.38 218.71 13.32Q219.17 14.26 219.17 15.85L219.17 15.85L219.17 24.72L218.35 24.72L218.35 15.86Q218.35 13.88 217.57 13.12Q216.78 12.36 215.51 12.36L215.51 12.36Q214.90 12.36 214.21 12.58Q213.52 12.79 212.87 13.27Q212.22 13.75 211.70 14.56L211.70 14.56L211.70 24.72ZM226.56 24.72L225.74 24.72L225.74 15.86Q225.74 13.88 224.93 13.12Q224.11 12.36 222.84 12.36L222.84 12.36Q222.23 12.36 221.49 12.59Q220.75 12.82 220.04 13.37Q219.34 13.93 218.82 14.92L218.82 14.92L218.51 13.91Q219.49 12.58 220.67 12.07Q221.84 11.57 222.89 11.57L222.89 11.57Q223.94 11.57 224.78 11.98Q225.61 12.38 226.09 13.32Q226.56 14.26 226.56 15.85L226.56 15.85L226.56 24.72ZM233.50 24.91L233.50 24.91Q231.77 24.91 230.75 24.02Q229.73 23.14 229.73 21.52L229.73 21.52Q229.73 19.90 230.76 18.99Q231.79 18.08 234.04 17.83L234.04 17.83L237.96 17.36L238.00 18.16L234.01 18.62Q232.21 18.83 231.41 19.52Q230.62 20.21 230.62 21.44L230.62 21.44Q230.62 22.75 231.35 23.44Q232.08 24.12 233.53 24.12L233.53 24.12Q234.59 24.12 235.63 23.65Q236.68 23.17 237.49 22.08L237.49 22.08L237.49 15.77Q237.49 14.41 237.07 13.67Q236.65 12.94 235.85 12.65Q235.06 12.36 233.92 12.36L233.92 12.36Q233.18 12.36 232.28 12.50Q231.37 12.64 230.42 12.97L230.42 12.97L230.42 12.16Q231.18 11.87 232.12 11.72Q233.06 11.57 233.92 11.57L233.92 11.57Q235.31 11.57 236.29 11.95Q237.28 12.34 237.79 13.25Q238.31 14.17 238.31 15.77L238.31 15.77L238.31 24.72L237.59 24.72L237.52 23.18L237.42 23.18Q236.76 23.99 235.73 24.45Q234.70 24.91 233.50 24.91ZM243.04 24.72L242.22 24.72L242.22 5.33L243.04 5.33L243.04 24.72Z"/></svg>