<svg xmlns="http://www.w3.org/2000/svg" xmlns:xlink="http://www.w3.org/1999/xlink" width="351.264" height="52.824"><path fill="black" d="M15.91 15.58L15.91 32.71L13.39 32.71L4.22 18.48L4.13 18.48Q4.18 19.32 4.25 20.57Q4.32 21.82 4.32 23.14L4.32 23.14L4.32 32.71L2.33 32.71L2.33 15.58L4.82 15.58L13.97 29.76L14.06 29.76Q14.04 29.38 14.00 28.61Q13.97 27.84 13.93 26.93Q13.90 26.02 13.90 25.25L13.90 25.25L13.90 15.58L15.91 15.58ZM31.46 26.26L31.46 26.26Q31.46 29.45 29.84 31.20Q28.22 32.95 25.46 32.95L25.46 32.95Q23.76 32.95 22.43 32.17Q21.10 31.39 20.33 29.89Q19.56 28.39 19.56 26.26L19.56 26.26Q19.56 23.06 21.17 21.34Q22.78 19.61 25.54 19.61L25.54 19.61Q27.29 19.61 28.62 20.39Q29.95 21.17 30.71 22.64Q31.46 24.12 31.46 26.26ZM21.74 26.26L21.74 26.26Q21.74 28.54 22.64 29.87Q23.54 31.20 25.51 31.20L25.51 31.20Q27.46 31.20 28.37 29.87Q29.28 28.54 29.28 26.26L29.28 26.26Q29.28 23.98 28.37 22.68Q27.46 21.38 25.49 21.38L25.49 21.38Q23.52 21.38 22.63 22.68Q21.74 23.98 21.74 26.26ZM39.10 31.22L39.10 31.22Q39.58 31.22 40.08 31.14Q40.58 31.06 40.90 30.96L40.90 30.96L40.90 32.57Q40.56 32.74 39.94 32.84Q39.31 32.95 38.74 32.95L38.74 32.95Q37.73 32.95 36.88 32.60Q36.02 32.26 35.50 31.39Q34.97 30.53 34.97 28.97L34.97 28.97L34.97 21.48L33.14 21.48L33.14 20.47L34.99 19.63L35.83 16.90L37.08 16.90L37.08 19.85L40.80 19.85L40.80 21.48L37.08 21.48L37.08 28.92Q37.08 30.10 37.64 30.66Q38.21 31.22 39.10 31.22ZM54.65 26.26L54.65 26.26Q54.65 29.45 53.03 31.20Q51.41 32.95 48.65 32.95L48.65 32.95Q46.94 32.95 45.61 32.17Q44.28 31.39 43.51 29.89Q42.74 28.39 42.74 26.26L42.74 26.26Q42.74 23.06 44.35 21.34Q45.96 19.61 48.72 19.61L48.72 19.61Q50.47 19.61 51.80 20.39Q53.14 21.17 53.89 22.64Q54.65 24.12 54.65 26.26ZM44.93 26.26L44.93 26.26Q44.93 28.54 45.83 29.87Q46.73 31.20 48.70 31.20L48.70 31.20Q50.64 31.20 51.55 29.87Q52.46 28.54 52.46 26.26L52.46 26.26Q52.46 23.98 51.55 22.68Q50.64 21.38 48.67 21.38L48.67 21.38Q46.70 21.38 45.82 22.68Q44.93 23.98 44.93 26.26ZM74.23 28.13L74.23 28.13Q74.23 30.41 72.58 31.68Q70.92 32.95 68.11 32.95L68.11 32.95Q66.67 32.95 65.45 32.74Q64.22 32.52 63.41 32.14L63.41 32.14L63.41 30.07Q64.27 30.46 65.56 30.77Q66.84 31.08 68.21 31.08L68.21 31.08Q70.13 31.08 71.10 30.34Q72.07 29.59 72.07 28.32L72.07 28.32Q72.07 27.48 71.71 26.90Q71.35 26.33 70.48 25.84Q69.60 25.34 68.04 24.79L68.04 24.79Q66.94 24.38 66.11 23.92Q65.28 23.45 64.73 22.85Q64.18 22.25 63.90 21.48Q63.62 20.71 63.62 19.70L63.62 19.70Q63.62 18.34 64.32 17.36Q65.02 16.39 66.25 15.86Q67.49 15.34 69.10 15.34L69.10 15.34Q70.51 15.34 71.69 15.60Q72.86 15.86 73.82 16.30L73.82 16.30L73.15 18.14Q72.26 17.76 71.22 17.50Q70.18 17.23 69.05 17.23L69.05 17.23Q67.44 17.23 66.62 17.92Q65.81 18.60 65.81 19.73L65.81 19.73Q65.81 20.59 66.17 21.17Q66.53 21.74 67.34 22.20Q68.16 22.66 69.55 23.18L69.55 23.18Q71.06 23.74 72.11 24.37Q73.15 25.01 73.69 25.90Q74.23 26.78 74.23 28.13ZM82.27 19.63L82.27 19.63Q84.62 19.63 85.75 20.66Q86.88 21.70 86.88 23.95L86.88 23.95L86.88 32.71L85.34 32.71L84.94 30.89L84.84 30.89Q84 31.94 83.08 32.45Q82.15 32.95 80.52 32.95L80.52 32.95Q78.77 32.95 77.62 32.03Q76.46 31.10 76.46 29.14L76.46 29.14Q76.46 27.22 77.98 26.17Q79.49 25.13 82.63 25.03L82.63 25.03L84.82 24.96L84.82 24.19Q84.82 22.58 84.12 21.96Q83.42 21.34 82.15 21.34L82.15 21.34Q81.14 21.34 80.23 21.64Q79.32 21.94 78.53 22.32L78.53 22.32L77.88 20.74Q78.72 20.28 79.87 19.96Q81.02 19.63 82.27 19.63ZM84.79 26.42L82.90 26.50Q80.50 26.59 79.57 27.26Q78.65 27.94 78.65 29.16L78.65 29.16Q78.65 30.24 79.31 30.74Q79.97 31.25 81 31.25L81 31.25Q82.63 31.25 83.71 30.35Q84.79 29.45 84.79 27.58L84.79 27.58L84.79 26.42ZM97.06 19.61L97.06 19.61Q99.36 19.61 100.54 20.72Q101.71 21.84 101.71 24.34L101.71 24.34L101.71 32.71L99.62 32.71L99.62 24.48Q99.62 22.92 98.93 22.15Q98.23 21.38 96.74 21.38L96.74 21.38Q94.61 21.38 93.79 22.58Q92.98 23.78 92.98 26.04L92.98 26.04L92.98 32.71L90.86 32.71L90.86 19.85L92.57 19.85L92.88 21.60L93 21.60Q93.62 20.59 94.73 20.10Q95.83 19.61 97.06 19.61ZM114.07 29.16L114.07 29.16Q114.07 31.03 112.68 31.99Q111.29 32.95 108.94 32.95L108.94 32.95Q107.59 32.95 106.62 32.74Q105.65 32.52 104.90 32.14L104.90 32.14L104.90 30.22Q105.67 30.60 106.76 30.92Q107.86 31.25 108.98 31.25L108.98 31.25Q110.59 31.25 111.31 30.73Q112.03 30.22 112.03 29.35L112.03 29.35Q112.03 28.87 111.77 28.49Q111.50 28.10 110.82 27.72Q110.14 27.34 108.86 26.86L108.86 26.86Q107.62 26.38 106.73 25.90Q105.84 25.42 105.36 24.74Q104.88 24.07 104.88 23.02L104.88 23.02Q104.88 21.38 106.21 20.50Q107.54 19.61 109.70 19.61L109.70 19.61Q110.88 19.61 111.90 19.84Q112.92 20.06 113.81 20.47L113.81 20.47L113.09 22.15Q112.27 21.82 111.38 21.58Q110.50 21.34 109.56 21.34L109.56 21.34Q108.26 21.34 107.58 21.76Q106.90 22.18 106.90 22.90L106.90 22.90Q106.90 23.42 107.21 23.80Q107.52 24.17 108.25 24.52Q108.98 24.86 110.21 25.34L110.21 25.34Q111.43 25.80 112.30 26.28Q113.16 26.76 113.62 27.44Q114.07 28.13 114.07 29.16ZM123.72 15.58L128.62 15.58Q131.83 15.58 133.48 16.52Q135.12 17.47 135.12 19.82L135.12 19.82Q135.12 21.34 134.28 22.33Q133.44 23.33 131.86 23.62L131.86 23.62L131.86 23.74Q132.94 23.90 133.81 24.36Q134.69 24.82 135.19 25.66Q135.70 26.50 135.70 27.84L135.70 27.84Q135.70 30.17 134.10 31.44Q132.50 32.71 129.74 32.71L129.74 32.71L123.72 32.71L123.72 15.58ZM125.88 22.87L129.05 22.87Q131.26 22.87 132.07 22.16Q132.89 21.46 132.89 20.06L132.89 20.06Q132.89 18.65 131.89 18.04Q130.90 17.42 128.71 17.42L128.71 17.42L125.88 17.42L125.88 22.87ZM129.17 24.67L125.88 24.67L125.88 30.89L129.34 30.89Q131.62 30.89 132.50 30.00Q133.39 29.11 133.39 27.67L133.39 27.67Q133.39 26.33 132.47 25.50Q131.54 24.67 129.17 24.67L129.17 24.67ZM143.90 19.63L143.90 19.63Q146.26 19.63 147.38 20.66Q148.51 21.70 148.51 23.95L148.51 23.95L148.51 32.71L146.98 32.71L146.57 30.89L146.47 30.89Q145.63 31.94 144.71 32.45Q143.78 32.95 142.15 32.95L142.15 32.95Q140.40 32.95 139.25 32.03Q138.10 31.10 138.10 29.14L138.10 29.14Q138.10 27.22 139.61 26.17Q141.12 25.13 144.26 25.03L144.26 25.03L146.45 24.96L146.45 24.19Q146.45 22.58 145.75 21.96Q145.06 21.34 143.78 21.34L143.78 21.34Q142.78 21.34 141.86 21.64Q140.95 21.94 140.16 22.32L140.16 22.32L139.51 20.74Q140.35 20.28 141.50 19.96Q142.66 19.63 143.90 19.63ZM146.42 26.42L144.53 26.50Q142.13 26.59 141.20 27.26Q140.28 27.94 140.28 29.16L140.28 29.16Q140.28 30.24 140.94 30.74Q141.60 31.25 142.63 31.25L142.63 31.25Q144.26 31.25 145.34 30.35Q146.42 29.45 146.42 27.58L146.42 27.58L146.42 26.42ZM154.61 14.47L154.61 32.71L152.50 32.71L152.50 14.47L154.61 14.47ZM158.69 19.85L160.80 19.85L160.80 32.71L158.69 32.71L158.69 19.85ZM159.77 15.02L159.77 15.02Q160.25 15.02 160.62 15.35Q160.99 15.67 160.99 16.37L160.99 16.37Q160.99 17.04 160.62 17.38Q160.25 17.71 159.77 17.71L159.77 17.71Q159.24 17.71 158.88 17.38Q158.52 17.04 158.52 16.37L158.52 16.37Q158.52 15.67 158.88 15.35Q159.24 15.02 159.77 15.02ZM171.07 19.61L171.07 19.61Q173.38 19.61 174.55 20.72Q175.73 21.84 175.73 24.34L175.73 24.34L175.73 32.71L173.64 32.71L173.64 24.48Q173.64 22.92 172.94 22.15Q172.25 21.38 170.76 21.38L170.76 21.38Q168.62 21.38 167.81 22.58Q166.99 23.78 166.99 26.04L166.99 26.04L166.99 32.71L164.88 32.71L164.88 19.85L166.58 19.85L166.90 21.60L167.02 21.60Q167.64 20.59 168.74 20.10Q169.85 19.61 171.07 19.61ZM184.68 19.61L184.68 19.61Q186.34 19.61 187.52 20.33Q188.71 21.05 189.35 22.36Q189.98 23.66 189.98 25.42L189.98 25.42L189.98 26.69L181.18 26.69Q181.22 28.87 182.29 30.01Q183.36 31.15 185.28 31.15L185.28 31.15Q186.50 31.15 187.45 30.92Q188.40 30.70 189.41 30.26L189.41 30.26L189.41 32.11Q188.42 32.54 187.46 32.75Q186.50 32.95 185.18 32.95L185.18 32.95Q183.36 32.95 181.96 32.21Q180.55 31.46 179.77 29.99Q178.99 28.51 178.99 26.38L178.99 26.38Q178.99 24.26 179.70 22.75Q180.41 21.24 181.69 20.42Q182.98 19.61 184.68 19.61ZM184.66 21.34L184.66 21.34Q183.14 21.34 182.27 22.31Q181.39 23.28 181.22 25.01L181.22 25.01L187.78 25.01Q187.75 23.38 187.01 22.36Q186.26 21.34 184.66 21.34ZM201.62 29.16L201.62 29.16Q201.62 31.03 200.23 31.99Q198.84 32.95 196.49 32.95L196.49 32.95Q195.14 32.95 194.17 32.74Q193.20 32.52 192.46 32.14L192.46 32.14L192.46 30.22Q193.22 30.60 194.32 30.92Q195.41 31.25 196.54 31.25L196.54 31.25Q198.14 31.25 198.86 30.73Q199.58 30.22 199.58 29.35L199.58 29.35Q199.58 28.87 199.32 28.49Q199.06 28.10 198.37 27.72Q197.69 27.34 196.42 26.86L196.42 26.86Q195.17 26.38 194.28 25.90Q193.39 25.42 192.91 24.74Q192.43 24.07 192.43 23.02L192.43 23.02Q192.43 21.38 193.76 20.50Q195.10 19.61 197.26 19.61L197.26 19.61Q198.43 19.61 199.45 19.84Q200.47 20.06 201.36 20.47L201.36 20.47L200.64 22.15Q199.82 21.82 198.94 21.58Q198.05 21.34 197.11 21.34L197.11 21.34Q195.82 21.34 195.13 21.76Q194.45 22.18 194.45 22.90L194.45 22.90Q194.45 23.42 194.76 23.80Q195.07 24.17 195.80 24.52Q196.54 24.86 197.76 25.34L197.76 25.34Q198.98 25.80 199.85 26.28Q200.71 26.76 201.17 27.44Q201.62 28.13 201.62 29.16ZM209.71 19.61L209.71 19.61Q211.37 19.61 212.56 20.33Q213.74 21.05 214.38 22.36Q215.02 23.66 215.02 25.42L215.02 25.42L215.02 26.69L206.21 26.69Q206.26 28.87 207.32 30.01Q208.39 31.15 210.31 31.15L210.31 31.15Q211.54 31.15 212.48 30.92Q213.43 30.70 214.44 30.26L214.44 30.26L214.44 32.11Q213.46 32.54 212.50 32.75Q211.54 32.95 210.22 32.95L210.22 32.95Q208.39 32.95 206.99 32.21Q205.58 31.46 204.80 29.99Q204.02 28.51 204.02 26.38L204.02 26.38Q204.02 24.26 204.73 22.75Q205.44 21.24 206.72 20.42Q208.01 19.61 209.71 19.61ZM209.69 21.34L209.69 21.34Q208.18 21.34 207.30 22.31Q206.42 23.28 206.26 25.01L206.26 25.01L212.81 25.01Q212.78 23.38 212.04 22.36Q211.30 21.34 209.69 21.34ZM235.73 26.93L235.73 28.82L233.23 28.82L233.23 32.71L231.19 32.71L231.19 28.82L222.98 28.82L222.98 27.02L231.05 15.48L233.23 15.48L233.23 26.93L235.73 26.93ZM231.19 26.93L231.19 21.53Q231.19 20.69 231.22 20.04Q231.24 19.39 231.26 18.83Q231.29 18.26 231.31 17.74L231.31 17.74L231.22 17.74Q231.02 18.19 230.74 18.72Q230.45 19.25 230.18 19.61L230.18 19.61L225.05 26.93L231.19 26.93ZM248.76 24.12L248.76 24.12Q248.76 26.88 248.18 28.86Q247.61 30.84 246.36 31.90Q245.11 32.95 243.05 32.95L243.05 32.95Q240.14 32.95 238.76 30.61Q237.38 28.27 237.38 24.12L237.38 24.12Q237.38 21.34 237.95 19.37Q238.51 17.40 239.76 16.36Q241.01 15.31 243.05 15.31L243.05 15.31Q245.93 15.31 247.34 17.63Q248.76 19.94 248.76 24.12ZM239.50 24.12L239.50 24.12Q239.50 27.65 240.30 29.40Q241.10 31.15 243.05 31.15L243.05 31.15Q244.97 31.15 245.80 29.41Q246.62 27.67 246.62 24.12L246.62 24.12Q246.62 20.62 245.80 18.86Q244.97 17.11 243.05 17.11L243.05 17.11Q241.10 17.11 240.30 18.86Q239.50 20.62 239.50 24.12ZM262.49 24.12L262.49 24.12Q262.49 26.88 261.91 28.86Q261.34 30.84 260.09 31.90Q258.84 32.95 256.78 32.95L256.78 32.95Q253.87 32.95 252.49 30.61Q251.11 28.27 251.11 24.12L251.11 24.12Q251.11 21.34 251.68 19.37Q252.24 17.40 253.49 16.36Q254.74 15.31 256.78 15.31L256.78 15.31Q259.66 15.31 261.07 17.63Q262.49 19.94 262.49 24.12ZM253.22 24.12L253.22 24.12Q253.22 27.65 254.03 29.40Q254.83 31.15 256.78 31.15L256.78 31.15Q258.70 31.15 259.52 29.41Q260.35 27.67 260.35 24.12L260.35 24.12Q260.35 20.62 259.52 18.86Q258.70 17.11 256.78 17.11L256.78 17.11Q254.83 17.11 254.03 18.86Q253.22 20.62 253.22 24.12ZM278.14 19.61L278.14 19.61Q280.44 19.61 281.62 20.72Q282.79 21.84 282.79 24.34L282.79 24.34L282.79 32.71L280.70 32.71L280.70 24.48Q280.70 22.92 280.01 22.15Q279.31 21.38 277.82 21.38L277.82 21.38Q275.69 21.38 274.87 22.58Q274.06 23.78 274.06 26.04L274.06 26.04L274.06 32.71L271.94 32.71L271.94 19.85L273.65 19.85L273.96 21.60L274.08 21.60Q274.70 20.59 275.81 20.10Q276.91 19.61 278.14 19.61ZM297.96 26.26L297.96 26.26Q297.96 29.45 296.34 31.20Q294.72 32.95 291.96 32.95L291.96 32.95Q290.26 32.95 288.92 32.17Q287.59 31.39 286.82 29.89Q286.06 28.39 286.06 26.26L286.06 26.26Q286.06 23.06 287.66 21.34Q289.27 19.61 292.03 19.61L292.03 19.61Q293.78 19.61 295.12 20.39Q296.45 21.17 297.20 22.64Q297.96 24.12 297.96 26.26ZM288.24 26.26L288.24 26.26Q288.24 28.54 289.14 29.87Q290.04 31.20 292.01 31.20L292.01 31.20Q293.95 31.20 294.86 29.87Q295.78 28.54 295.78 26.26L295.78 26.26Q295.78 23.98 294.86 22.68Q293.95 21.38 291.98 21.38L291.98 21.38Q290.02 21.38 289.13 22.68Q288.24 23.98 288.24 26.26ZM307.30 19.61L307.30 19.61Q307.66 19.61 308.08 19.64Q308.50 19.68 308.81 19.75L308.81 19.75L308.54 21.70Q308.23 21.62 307.86 21.58Q307.49 21.53 307.15 21.53L307.15 21.53Q306.17 21.53 305.30 22.07Q304.44 22.61 303.92 23.58Q303.41 24.55 303.41 25.85L303.41 25.85L303.41 32.71L301.30 32.71L301.30 19.85L303.02 19.85L303.26 22.20L303.36 22.20Q303.98 21.14 304.97 20.38Q305.95 19.61 307.30 19.61ZM325.32 19.61L325.32 19.61Q327.50 19.61 328.58 20.72Q329.66 21.84 329.66 24.34L329.66 24.34L329.66 32.71L327.58 32.71L327.58 24.43Q327.58 21.38 324.96 21.38L324.96 21.38Q323.09 21.38 322.28 22.46Q321.48 23.54 321.48 25.61L321.48 25.61L321.48 32.71L319.39 32.71L319.39 24.43Q319.39 21.38 316.75 21.38L316.75 21.38Q314.81 21.38 314.06 22.58Q313.32 23.78 313.32 26.04L313.32 26.04L313.32 32.71L311.21 32.71L311.21 19.85L312.91 19.85L313.22 21.60L313.34 21.60Q313.94 20.59 314.96 20.10Q315.98 19.61 317.14 19.61L317.14 19.61Q318.62 19.61 319.62 20.14Q320.62 20.66 321.07 21.77L321.07 21.77L321.19 21.77Q321.84 20.66 322.96 20.14Q324.07 19.61 325.32 19.61ZM338.52 19.63L338.52 19.63Q340.87 19.63 342 20.66Q343.13 21.70 343.13 23.95L343.13 23.95L343.13 32.71L341.59 32.71L341.18 30.89L341.09 30.89Q340.25 31.94 339.32 32.45Q338.40 32.95 336.77 32.95L336.77 32.95Q335.02 32.95 333.86 32.03Q332.71 31.10 332.71 29.14L332.71 29.14Q332.71 27.22 334.22 26.17Q335.74 25.13 338.88 25.03L338.88 25.03L341.06 24.96L341.06 24.19Q341.06 22.58 340.37 21.96Q339.67 21.34 338.40 21.34L338.40 21.34Q337.39 21.34 336.48 21.64Q335.57 21.94 334.78 22.32L334.78 22.32L334.13 20.74Q334.97 20.28 336.12 19.96Q337.27 19.63 338.52 19.63ZM341.04 26.42L339.14 26.50Q336.74 26.59 335.82 27.26Q334.90 27.94 334.90 29.16L334.90 29.16Q334.90 30.24 335.56 30.74Q336.22 31.25 337.25 31.25L337.25 31.25Q338.88 31.25 339.96 30.35Q341.04 29.45 341.04 27.58L341.04 27.58L341.04 26.42ZM349.22 14.47L349.22 32.71L347.11 32.71L347.11 14.47L349.22 14.47Z"/></svg>