<svg xmlns="http://www.w3.org/2000/svg" xmlns:xlink="http://www.w3.org/1999/xlink" width="70.78125" height="36.140625"><path fill="black" d="M13.27 24.06L13.27 24.06Q11.66 24.06 10.75 23.53L10.75 23.53Q9.76 22.98 9.68 21.97L9.68 21.97L9.57 20.87Q10.65 20.61 11.39 19.54L11.39 19.54Q11.59 19.23 11.59 19.01L11.59 19.01Q11.59 18.70 11.29 18.70L11.29 18.70L11.25 18.70Q11.24 18.71 11.20 18.71L11.20 18.71Q10.38 20.44 8.54 20.44L8.54 20.44Q7.61 20.44 6.94 20.03Q6.28 19.62 5.73 18.61L5.73 18.61L5.66 18.61Q5.34 18.61 5.34 18.88L5.34 18.88Q5.34 19.07 5.48 19.30L5.48 19.30Q5.95 20.09 6.66 20.53L6.66 20.53Q7.21 20.91 7.82 20.98L7.82 20.98L7.72 23.19Q7.02 23.65 6.24 23.85Q5.46 24.06 4.03 24.06Q2.59 24.06 1.46 23.50L1.46 23.50Q0.08 22.80 0.08 21.57L0.08 21.57Q0.08 20.04 0.69 13.99L0.69 13.99Q1.02 10.84 1.22 9.59L1.22 9.59Q2.43 8.51 4.78 8.51L4.78 8.51Q6.49 8.51 7.62 9.14L7.62 9.14L8.26 11.30L7.85 13.02Q7.80 13.20 7.80 13.36L7.80 13.36Q7.80 13.77 8.27 13.78L8.27 13.78L9.39 9.15Q9.87 8.89 10.64 8.70Q11.41 8.51 12.33 8.51L12.33 8.51Q14.04 8.51 14.87 9.09Q15.69 9.67 15.84 11.04L15.84 11.04Q15.88 11.30 15.95 11.89L15.95 11.89Q17.02 21.06 17.02 22.69L17.02 22.69Q15.71 24.06 13.27 24.06ZM23.64 17.32L23.64 17.32L23.64 19.37Q23.72 19.45 23.91 19.45Q24.09 19.45 24.18 19.32Q24.26 19.20 24.26 18.88L24.26 18.88L24.26 17.20Q24.26 16.08 24.16 15.71Q24.07 15.34 23.81 15.34L23.81 15.34Q23.65 15.34 23.53 15.46L23.53 15.46Q23.64 16.62 23.64 17.32ZM19.25 22.51L19.25 22.51Q17.33 20.66 17.33 17.49Q17.33 14.32 19.14 12.49Q20.95 10.65 23.89 10.65Q26.84 10.65 28.65 12.56L28.65 12.56Q30.46 14.47 30.46 17.54Q30.46 20.60 28.72 22.41Q26.98 24.21 23.99 24.21Q21 24.21 19.25 22.51ZM37.75 15.54L37.75 15.54Q37.63 15.42 37.46 15.42L37.46 15.42Q37.21 15.42 37.11 15.79Q37.02 16.16 37.02 17.29L37.02 17.29L37.02 18.48Q37.02 18.80 37.10 18.93Q37.18 19.05 37.37 19.05Q37.56 19.05 37.64 18.97L37.64 18.97L37.64 17.40Q37.64 16.25 37.75 15.54ZM36.90 8.61L36.90 8.61Q37.52 7.89 38.27 7.52Q39.02 7.15 40.18 7.15L40.18 7.15Q41.59 7.15 42.47 7.93L42.47 7.93Q43.37 8.78 43.37 10.21L43.37 10.21L43.37 17.94Q43.37 19.69 44.21 20.21L44.21 20.21Q44.23 20.27 44.23 20.44L44.23 20.44L44.23 20.65Q44.23 22.31 43.22 23.24L43.22 23.24Q42.33 24.06 41.02 24.06L41.02 24.06Q40.10 24.06 39.43 23.67L39.43 23.67Q38.65 23.23 38.33 22.45L38.33 22.45Q37.93 22.45 37.93 22.84L37.93 22.84Q37.93 23.02 38.07 23.24Q38.20 23.47 38.44 23.65L38.44 23.65Q37.75 24.06 36.64 24.06L36.64 24.06Q35.16 24.06 33.86 23.37Q32.57 22.69 31.80 21.30L31.80 21.30Q30.93 19.72 30.93 17.47L30.93 17.47Q30.93 14.47 32.61 12.76Q34.29 11.05 36.90 11.05L36.90 11.05Q38.45 11.05 39.60 11.64L39.60 11.64Q39.73 11.51 39.73 11.37L39.73 11.37Q39.73 11.02 38.89 10.77Q38.06 10.52 37.22 10.52L37.22 10.52Q37.22 9.33 36.90 8.61ZM56.59 15.75L56.59 18.05Q56.59 18.89 56.78 19.41Q56.96 19.92 57.43 20.21L57.43 20.21Q57.45 20.27 57.45 20.44L57.45 20.44L57.45 20.65Q57.45 22.31 56.44 23.24L56.44 23.24Q55.55 24.06 54.23 24.06L54.23 24.06Q53.34 24.06 52.61 23.64Q51.87 23.21 51.55 22.42L51.55 22.42Q51.15 22.42 51.15 22.80L51.15 22.80Q51.15 23.13 51.56 23.54L51.56 23.54Q50.80 24.06 49.27 24.06L49.27 24.06Q47.10 24.06 45.80 22.88Q44.51 21.70 44.51 19.59Q44.51 17.47 45.88 16.31L45.88 16.31Q47.13 15.27 49.13 15.27L49.13 15.27Q49.80 15.27 50.44 15.36L50.44 15.36Q50.86 15.45 50.89 15.46L50.89 15.46Q50.93 15.34 50.93 15.26L50.93 15.26Q50.93 14.95 50.41 14.85Q49.90 14.74 49.07 14.74L49.07 14.74Q47.30 14.74 46.04 15.46L46.04 15.46Q45.47 14.48 45.47 13.00L45.47 13.00Q45.47 12.15 45.68 11.74L45.68 11.74Q46.52 11.36 47.82 11.06Q49.13 10.76 50.57 10.76L50.57 10.76Q53.54 10.76 55.07 12.06Q56.59 13.36 56.59 15.75L56.59 15.75ZM50.51 18.62L50.51 18.62Q50.02 18.62 50.02 19.07L50.02 19.07Q50.02 19.49 50.59 19.49L50.59 19.49Q50.99 19.49 51.18 19.29Q51.36 19.10 51.36 18.62L51.36 18.62Q51.36 18.62 50.51 18.62ZM63.75 19.44L63.75 19.44L63.19 19.69Q63.19 20.47 63.49 21.36L63.49 21.36Q63.75 22.21 64.21 22.86L64.21 22.86Q63.05 24.06 60.98 24.06L60.98 24.06Q59.80 24.06 58.93 23.44L58.93 23.44Q57.93 22.73 57.93 21.57L57.93 21.57L57.93 7.90Q58.49 7.57 59.28 7.36Q60.07 7.15 60.88 7.15L60.88 7.15Q62.23 7.15 63.11 7.68L63.11 7.68Q64.10 8.30 64.10 9.46L64.10 9.46L64.10 10.70Q64.10 12.26 63.55 13.75L63.55 13.75Q63.45 13.90 63.18 14.19Q62.91 14.47 62.75 14.71Q62.59 14.94 62.59 15.11Q62.59 15.28 62.87 15.42L62.87 15.42Q63.79 14.57 64.31 13.56Q64.83 12.55 65.26 10.89L65.26 10.89Q65.41 10.86 65.61 10.83Q65.81 10.79 66.28 10.72Q66.74 10.64 66.93 10.64L66.93 10.64Q68.73 10.64 69.74 11.47Q70.75 12.29 70.75 13.73Q70.75 15.18 69.83 16.21L69.83 16.21Q68.99 17.13 67.64 17.60L67.64 17.60Q68.72 18.23 70.36 18.50L70.36 18.50Q70.99 19.65 70.99 20.95Q70.99 22.24 70.17 23.11L70.17 23.11Q69.26 24.06 67.65 24.06Q66.04 24.06 65.00 22.82Q63.96 21.59 63.75 19.44Z"/></svg>