<svg xmlns="http://www.w3.org/2000/svg" xmlns:xlink="http://www.w3.org/1999/xlink" width="346.224" height="50.76"><path fill="black" d="M11.54 26.69L11.54 26.69Q11.14 26.71 10.93 26.45Q10.73 26.18 10.73 25.78L10.73 25.78Q10.73 25.37 10.88 25.13Q11.04 24.89 11.40 24.86L11.40 24.86Q13.08 24.82 14.47 24.43Q15.86 24.05 16.98 23.39Q18.10 22.73 18.86 21.82Q19.63 20.90 20.03 19.79Q20.42 18.67 20.42 17.38L20.42 17.38Q20.42 16.13 19.92 15.18Q19.42 14.23 18.46 13.58Q17.50 12.94 16.13 12.62Q14.76 12.31 13.03 12.31L13.03 12.31Q10.78 12.31 8.93 12.76Q7.08 13.20 5.59 14.09Q4.10 14.98 2.93 16.30L2.93 16.30Q2.64 16.61 2.32 16.66Q1.99 16.70 1.63 16.42L1.63 16.42Q1.25 16.10 1.21 15.78Q1.18 15.46 1.44 15.12L1.44 15.12Q2.35 13.97 3.58 13.08Q4.80 12.19 6.29 11.59Q7.78 10.99 9.50 10.67Q11.23 10.34 13.18 10.34L13.18 10.34Q15.46 10.34 17.22 10.81Q18.98 11.28 20.20 12.18Q21.41 13.08 22.02 14.39Q22.63 15.70 22.63 17.35L22.63 17.35Q22.63 18.96 22.13 20.34Q21.62 21.72 20.68 22.85Q19.73 23.98 18.37 24.79Q17.02 25.61 15.30 26.10Q13.58 26.59 11.54 26.69ZM5.28 37.08L5.28 37.08Q4.20 37.08 3.34 36.67Q2.47 36.26 1.90 35.69Q1.32 35.11 1.01 34.66L1.01 34.66Q0.74 34.22 0.77 33.89Q0.79 33.55 1.18 33.29L1.18 33.29Q1.61 33.02 1.91 33.11Q2.21 33.19 2.54 33.55L2.54 33.55Q2.95 34.01 3.35 34.34Q3.74 34.68 4.24 34.86Q4.73 35.04 5.35 35.04L5.35 35.04Q6.38 35.04 6.86 34.22Q7.34 33.41 7.34 31.66L7.34 31.66L7.34 15.43Q7.34 15.10 7.61 14.93Q7.87 14.76 8.40 14.76L8.40 14.76Q8.93 14.76 9.19 14.93Q9.46 15.10 9.46 15.43L9.46 15.43L9.46 31.85Q9.46 33.43 8.99 34.61Q8.52 35.78 7.61 36.43Q6.70 37.08 5.28 37.08ZM22.20 37.06L22.20 37.06Q21.74 37.06 21.53 36.78Q21.31 36.50 21.31 36.16Q21.31 35.81 21.53 35.53Q21.74 35.26 22.20 35.26L22.20 35.26Q22.94 35.26 23.65 34.88Q24.36 34.51 25.06 33.82Q25.75 33.12 26.39 32.14Q27.02 31.15 27.60 29.95Q28.18 28.75 28.67 27.35Q29.16 25.94 29.56 24.40Q29.95 22.85 30.23 21.20Q30.50 19.56 30.65 17.86Q30.79 16.15 30.79 14.45L30.79 14.45Q30.79 14.09 31.10 13.88Q31.42 13.68 31.84 13.68Q32.26 13.68 32.57 13.88Q32.88 14.09 32.88 14.45L32.88 14.45Q32.88 16.18 32.69 17.94Q32.50 19.70 32.16 21.46Q31.82 23.21 31.33 24.89Q30.84 26.57 30.24 28.12Q29.64 29.66 28.92 31.03Q28.20 32.40 27.41 33.49Q26.62 34.58 25.76 35.39Q24.91 36.19 24.01 36.62Q23.11 37.06 22.20 37.06ZM28.87 37.06L28.87 37.06Q28.25 37.06 27.79 36.89Q27.34 36.72 27.06 36.41Q26.78 36.10 26.65 35.63Q26.52 35.16 26.52 34.58L26.52 34.58L26.52 14.86Q26.52 12.53 27.32 11.39Q28.13 10.25 29.76 10.25L29.76 10.25Q30.82 10.25 31.50 10.72Q32.18 11.18 32.53 12.12Q32.88 13.06 32.88 14.45L32.88 14.45Q32.88 14.90 32.57 15.12Q32.26 15.34 31.84 15.34Q31.42 15.34 31.10 15.12Q30.79 14.90 30.79 14.45L30.79 14.45Q30.79 13.66 30.67 13.16Q30.55 12.67 30.32 12.42Q30.10 12.17 29.74 12.17L29.74 12.17Q29.35 12.17 29.09 12.42Q28.82 12.67 28.70 13.26Q28.58 13.85 28.58 14.86L28.58 14.86L28.58 34.34Q28.58 34.66 28.68 34.86Q28.78 35.06 28.94 35.16Q29.11 35.26 29.33 35.26L29.33 35.26Q29.54 35.26 29.72 35.18Q29.90 35.11 30.07 34.98Q30.24 34.85 30.41 34.73L30.41 34.73Q30.60 34.56 30.84 34.67Q31.08 34.78 31.25 34.97L31.25 34.97Q31.44 35.21 31.45 35.45Q31.46 35.69 31.34 35.90L31.34 35.90Q31.08 36.26 30.67 36.53Q30.26 36.79 29.81 36.92Q29.35 37.06 28.87 37.06ZM39.22 37.06L39.22 37.06Q37.85 37.06 36.79 36.40Q35.74 35.74 35.14 34.39Q34.54 33.05 34.54 31.01L34.54 31.01Q34.54 29.76 34.76 28.70Q34.99 27.65 35.45 26.81Q35.90 25.97 36.55 25.39Q37.20 24.82 38.04 24.50Q38.88 24.19 39.89 24.19L39.89 24.19Q40.66 24.19 41.47 24.44Q42.29 24.70 43.01 25.10L43.01 25.10L43.01 24.98Q43.01 24.62 43.27 24.46Q43.54 24.29 44.06 24.29L44.06 24.29Q44.59 24.29 44.84 24.44Q45.10 24.60 45.10 24.94L45.10 24.94L45.10 34.34Q45.10 34.66 45.19 34.86Q45.29 35.06 45.46 35.16Q45.62 35.26 45.84 35.26L45.84 35.26Q46.08 35.26 46.24 35.20Q46.39 35.14 46.55 35.02Q46.70 34.90 46.92 34.73L46.92 34.73Q47.09 34.58 47.30 34.64Q47.52 34.70 47.74 34.90L47.74 34.90Q47.95 35.14 47.98 35.40Q48 35.66 47.88 35.86L47.88 35.86Q47.62 36.24 47.21 36.50Q46.80 36.77 46.33 36.91Q45.86 37.06 45.38 37.06L45.38 37.06Q44.83 37.06 44.42 36.94Q44.02 36.82 43.73 36.56Q43.44 36.31 43.28 35.95Q43.13 35.59 43.06 35.14L43.06 35.14Q43.06 35.11 43.03 35.03Q43.01 34.94 43.01 34.85L43.01 34.85Q42.46 35.74 41.82 36.22Q41.18 36.70 40.51 36.88Q39.84 37.06 39.22 37.06ZM36.65 30.91L36.65 30.91Q36.65 32.23 36.96 33.18Q37.27 34.13 37.91 34.63Q38.54 35.14 39.50 35.14L39.50 35.14Q40.20 35.14 40.84 34.90Q41.47 34.66 42.02 34.10Q42.58 33.55 43.01 32.66L43.01 32.66L43.01 26.86Q42.26 26.40 41.57 26.24Q40.87 26.09 40.10 26.09L40.10 26.09Q39.48 26.09 38.95 26.28Q38.42 26.47 37.99 26.86Q37.56 27.24 37.26 27.82Q36.96 28.39 36.80 29.16Q36.65 29.93 36.65 30.91ZM59.90 39.12L59.69 37.18Q60.07 36.91 60.47 36.65Q60.86 36.38 61.22 36.14Q61.58 35.90 61.91 35.71Q62.23 35.52 62.47 35.40L62.47 35.40Q62.83 35.21 63.11 35.35Q63.38 35.50 63.50 35.81Q63.62 36.12 63.55 36.46Q63.48 36.79 63.14 36.98L63.14 36.98Q62.83 37.15 62.44 37.39Q62.04 37.63 61.62 37.93Q61.20 38.23 60.76 38.53Q60.31 38.83 59.90 39.12L59.90 39.12ZM55.78 51.05L55.78 51.05Q54.65 51.05 53.81 50.62Q52.97 50.18 52.51 49.36Q52.06 48.53 52.06 47.35L52.06 47.35Q52.06 46.42 52.31 45.43Q52.56 44.45 53.09 43.45Q53.62 42.46 54.40 41.46Q55.18 40.46 56.26 39.50L56.26 39.50Q56.78 39.12 57.31 38.71Q57.84 38.30 58.39 37.92L58.39 37.92L58.39 34.80Q58.08 35.33 57.66 35.75Q57.24 36.17 56.74 36.46Q56.23 36.74 55.64 36.90Q55.06 37.06 54.41 37.06L54.41 37.06Q53.02 37.06 52.08 36.56Q51.14 36.07 50.68 35.10Q50.21 34.13 50.21 32.66L50.21 32.66L50.21 24.91Q50.21 24.60 50.46 24.44Q50.71 24.29 51.22 24.29L51.22 24.29Q51.74 24.29 52.01 24.44Q52.27 24.60 52.27 24.91L52.27 24.91L52.27 32.66Q52.27 33.50 52.54 34.08Q52.80 34.66 53.34 34.94Q53.88 35.23 54.67 35.23L54.67 35.23Q55.34 35.23 55.92 35.02Q56.50 34.80 56.96 34.43Q57.43 34.06 57.79 33.53Q58.15 33 58.39 32.40L58.39 32.40L58.39 24.91Q58.39 24.60 58.64 24.44Q58.90 24.29 59.42 24.29L59.42 24.29Q59.93 24.29 60.19 24.44Q60.46 24.60 60.46 24.91L60.46 24.91L60.46 44.90Q60.46 46.37 60.13 47.51Q59.81 48.65 59.20 49.44Q58.58 50.23 57.72 50.64Q56.86 51.05 55.78 51.05ZM55.90 49.20L55.90 49.20Q56.50 49.20 56.95 48.91Q57.41 48.62 57.73 48.08Q58.06 47.54 58.22 46.73Q58.39 45.91 58.39 44.86L58.39 44.86L58.39 40.18Q57.96 40.46 57.55 40.74Q57.14 41.02 56.71 41.33L56.71 41.33Q56.14 41.93 55.67 42.65Q55.20 43.37 54.86 44.14Q54.53 44.90 54.36 45.67Q54.19 46.44 54.19 47.21L54.19 47.21Q54.19 47.83 54.38 48.28Q54.58 48.72 54.96 48.96Q55.34 49.20 55.90 49.20ZM70.01 37.06L70.01 37.06Q69.07 37.06 68.39 36.77Q67.70 36.48 67.24 35.89Q66.77 35.30 66.54 34.40Q66.31 33.50 66.31 32.26L66.31 32.26L66.31 27.79Q66.31 26.78 66 26.44Q65.69 26.09 65.14 26.09L65.14 26.09Q64.75 26.09 64.46 26.30Q64.18 26.52 64.02 26.93Q63.86 27.34 63.82 27.89L63.82 27.89Q63.79 28.27 63.60 28.45Q63.41 28.63 62.98 28.63L62.98 28.63Q62.59 28.63 62.35 28.46Q62.11 28.30 62.14 27.67L62.14 27.67Q62.18 26.64 62.56 25.88Q62.93 25.13 63.60 24.71Q64.27 24.29 65.14 24.29L65.14 24.29Q65.98 24.29 66.59 24.53Q67.20 24.77 67.60 25.27Q67.99 25.78 68.18 26.52Q68.38 27.26 68.38 28.27L68.38 28.27L68.38 31.70Q68.38 32.64 68.45 33.31Q68.52 33.98 68.74 34.40Q68.95 34.82 69.35 35.03Q69.74 35.23 70.37 35.23L70.37 35.23Q70.85 35.23 71.38 35.05Q71.90 34.87 72.36 34.42Q72.82 33.96 73.09 33.16Q73.37 32.35 73.37 31.13L73.37 31.13L74.06 34.01Q73.78 34.75 73.36 35.33Q72.94 35.90 72.40 36.29Q71.86 36.67 71.26 36.86Q70.66 37.06 70.01 37.06ZM77.33 37.10L77.33 37.10Q76.37 37.10 75.64 36.79Q74.90 36.48 74.40 35.86Q73.90 35.23 73.63 34.30Q73.37 33.36 73.37 32.11L73.37 32.11L73.37 24.91Q73.37 24.60 73.62 24.44Q73.87 24.29 74.38 24.29L74.38 24.29Q74.90 24.29 75.17 24.44Q75.43 24.60 75.43 24.91L75.43 24.91L75.43 31.70Q75.43 32.64 75.52 33.31Q75.60 33.98 75.83 34.39Q76.06 34.80 76.46 34.99Q76.87 35.18 77.54 35.18L77.54 35.18Q78 35.18 78.41 35.08Q78.82 34.97 79.16 34.72Q79.51 34.46 79.79 34.07Q80.06 33.67 80.26 33.11Q80.45 32.54 80.56 31.79Q80.66 31.03 80.66 30.07L80.66 30.07Q80.66 28.13 80.46 27.07Q80.26 26.02 79.92 25.60Q79.58 25.18 79.13 25.18L79.13 25.18Q78.70 25.18 78.54 25.43Q78.38 25.68 78.38 25.97L78.38 25.97Q78.38 26.28 78.62 26.59Q78.86 26.90 79.48 27.10Q80.09 27.29 81.17 27.29L81.17 27.29Q82.08 27.29 82.90 26.90Q83.71 26.52 84.58 25.97L84.58 25.97Q84.86 25.78 85.10 25.92Q85.34 26.06 85.50 26.35Q85.66 26.64 85.64 26.94Q85.63 27.24 85.42 27.38L85.42 27.38Q84.38 28.10 83.41 28.49Q82.44 28.87 81.17 28.87L81.17 28.87Q79.70 28.87 78.74 28.50Q77.78 28.13 77.33 27.47Q76.87 26.81 76.87 25.97L76.87 25.97Q76.87 25.32 77.14 24.83Q77.40 24.34 77.90 24.06Q78.41 23.78 79.13 23.78L79.13 23.78Q80.40 23.78 81.19 24.60Q81.98 25.42 82.36 26.83Q82.73 28.25 82.73 30.07L82.73 30.07Q82.73 31.18 82.57 32.12Q82.42 33.07 82.12 33.85Q81.82 34.63 81.37 35.23Q80.93 35.83 80.33 36.25Q79.73 36.67 78.97 36.89Q78.22 37.10 77.33 37.10ZM83.30 37.06L83.30 37.06Q82.85 37.06 82.62 36.78Q82.39 36.50 82.38 36.16Q82.37 35.81 82.58 35.53Q82.80 35.26 83.26 35.26L83.26 35.26Q84 35.26 84.62 34.68Q85.25 34.10 85.75 32.96Q86.26 31.82 86.64 30.14Q87.02 28.46 87.26 26.26L87.26 26.26L88.70 26.47Q88.49 29.16 88.04 31.15Q87.60 33.14 86.93 34.45Q86.26 35.76 85.36 36.41Q84.46 37.06 83.30 37.06ZM95.66 37.06L95.66 37.06Q95.04 37.06 94.58 36.89Q94.13 36.72 93.84 36.40Q93.55 36.07 93.41 35.58Q93.26 35.09 93.26 34.46L93.26 34.46Q93.26 33.79 93.32 32.93Q93.38 32.06 93.44 31.15Q93.50 30.24 93.56 29.41Q93.62 28.58 93.62 27.98L93.62 27.98Q93.62 27.05 93.40 26.70Q93.17 26.35 92.54 26.35L92.54 26.35Q91.87 26.35 91.01 26.59Q90.14 26.83 89.33 27.06Q88.51 27.29 88.01 27.29L88.01 27.29Q87.58 27.29 87.18 26.82Q86.78 26.35 86.52 25.67Q86.26 24.98 86.26 24.34L86.26 24.34Q86.26 23.90 86.40 23.57Q86.54 23.23 86.82 23.04Q87.10 22.85 87.53 22.85L87.53 22.85Q88.32 22.85 88.58 23.40Q88.85 23.95 88.85 24.70L88.85 24.70Q88.85 24.86 88.85 25.03Q88.85 25.20 88.82 25.39L88.82 25.39Q89.11 25.39 89.76 25.13Q90.41 24.86 91.26 24.60Q92.11 24.34 92.98 24.34L92.98 24.34Q93.94 24.34 94.54 24.70Q95.14 25.06 95.41 25.81Q95.69 26.57 95.69 27.79L95.69 27.79Q95.69 28.34 95.63 29.20Q95.57 30.05 95.51 31.00Q95.45 31.94 95.39 32.78Q95.33 33.62 95.33 34.18L95.33 34.18Q95.33 34.80 95.51 35.03Q95.69 35.26 96.05 35.26L96.05 35.26Q96.29 35.26 96.48 35.18Q96.67 35.11 96.85 34.98Q97.03 34.85 97.20 34.73L97.20 34.73Q97.39 34.58 97.63 34.68Q97.87 34.78 98.04 34.97L98.04 34.97Q98.23 35.21 98.24 35.45Q98.26 35.69 98.14 35.90L98.14 35.90Q97.87 36.26 97.48 36.53Q97.08 36.79 96.61 36.92Q96.14 37.06 95.66 37.06ZM102.89 37.06L102.89 37.06Q101.64 37.06 101.08 36.41Q100.51 35.76 100.51 34.58L100.51 34.58L100.51 24.91Q100.51 24.60 100.76 24.44Q101.02 24.29 101.52 24.29L101.52 24.29Q102.05 24.29 102.31 24.44Q102.58 24.60 102.58 24.91L102.58 24.91L102.58 34.34Q102.58 34.82 102.79 35.04Q103.01 35.26 103.32 35.26L103.32 35.26Q103.58 35.26 103.76 35.17Q103.94 35.09 104.10 34.97Q104.26 34.85 104.45 34.70L104.45 34.70Q104.59 34.58 104.84 34.68Q105.10 34.78 105.24 34.97L105.24 34.97Q105.43 35.18 105.46 35.42Q105.48 35.66 105.34 35.86L105.34 35.86Q105.07 36.24 104.68 36.50Q104.28 36.77 103.81 36.91Q103.34 37.06 102.89 37.06ZM101.57 20.59L101.57 20.59Q100.90 20.59 100.55 20.22Q100.20 19.85 100.20 19.10L100.20 19.10Q100.20 18.34 100.55 17.95Q100.90 17.57 101.57 17.57L101.57 17.57Q102.22 17.57 102.55 17.95Q102.89 18.34 102.89 19.10L102.89 19.10Q102.91 19.85 102.56 20.22Q102.22 20.59 101.57 20.59ZM111.29 37.06L111.29 37.06Q110.28 37.06 109.62 36.68Q108.96 36.31 108.64 35.63Q108.31 34.94 108.31 33.98L108.31 33.98L108.31 26.57L106.44 26.57Q106.08 26.57 105.94 26.35Q105.79 26.14 105.79 25.61L105.79 25.61Q105.79 25.06 105.94 24.85Q106.08 24.65 106.44 24.65L106.44 24.65L108.31 24.65L108.31 19.75Q108.31 19.44 108.56 19.28Q108.82 19.13 109.32 19.13L109.32 19.13Q109.85 19.13 110.11 19.28Q110.38 19.44 110.38 19.75L110.38 19.75L110.38 24.65L113.40 24.65Q113.76 24.65 113.92 24.85Q114.07 25.06 114.07 25.61L114.07 25.61Q114.07 26.14 113.92 26.35Q113.76 26.57 113.40 26.57L113.40 26.57L110.38 26.57L110.38 33.74Q110.38 34.56 110.60 34.91Q110.83 35.26 111.43 35.26L111.43 35.26Q111.98 35.26 112.38 34.99Q112.78 34.73 113.21 34.34L113.21 34.34Q113.50 34.08 113.75 34.16Q114 34.25 114.22 34.46L114.22 34.46Q114.48 34.70 114.49 34.96Q114.50 35.21 114.36 35.42L114.36 35.42Q113.95 36.02 113.45 36.38Q112.94 36.74 112.39 36.90Q111.84 37.06 111.29 37.06ZM121.97 37.06L121.97 37.06Q121.01 37.06 120.11 36.65Q119.21 36.24 118.45 35.50Q117.70 34.75 117.13 33.73Q116.57 32.71 116.26 31.50Q115.94 30.29 115.94 28.94L115.94 28.94Q115.94 28.13 116.14 27.40Q116.33 26.66 116.69 26.08Q117.05 25.49 117.55 25.07Q118.06 24.65 118.68 24.42Q119.30 24.19 120.02 24.19L120.02 24.19Q121.39 24.19 122.24 24.74Q123.10 25.30 123.48 26.20Q123.86 27.10 123.86 28.13L123.86 28.13Q123.86 28.94 123.56 29.81Q123.26 30.67 122.74 31.50Q122.21 32.33 121.51 33.10L121.51 33.10Q120.48 34.25 119.16 35.15Q117.84 36.05 116.36 36.55Q114.89 37.06 113.33 37.06L113.33 37.06Q112.99 37.06 112.82 36.78Q112.66 36.50 112.69 36.16Q112.73 35.81 112.99 35.53Q113.26 35.26 113.78 35.26L113.78 35.26Q114.89 35.26 116.05 34.82Q117.22 34.39 118.27 33.67Q119.33 32.95 120.07 32.11L120.07 32.11Q120.60 31.51 120.97 30.88Q121.34 30.24 121.54 29.59Q121.73 28.94 121.73 28.34L121.73 28.34Q121.73 27.07 121.25 26.58Q120.77 26.09 119.95 26.09L119.95 26.09Q119.54 26.09 119.20 26.27Q118.85 26.45 118.58 26.82Q118.32 27.19 118.18 27.72Q118.03 28.25 118.03 28.94L118.03 28.94Q118.03 30.31 118.43 31.45Q118.82 32.59 119.47 33.41Q120.12 34.22 120.85 34.68Q121.58 35.14 122.23 35.14L122.23 35.14Q122.69 35.14 123.12 34.96Q123.55 34.78 124.02 34.42Q124.49 34.06 124.97 33.53L124.97 33.53Q125.30 33.14 125.62 33.16Q125.93 33.17 126.26 33.43L126.26 33.43Q126.60 33.70 126.66 33.98Q126.72 34.27 126.50 34.61L126.50 34.61Q125.90 35.52 125.10 36.06Q124.30 36.60 123.48 36.83Q122.66 37.06 121.97 37.06ZM144.17 26.69L144.17 26.69Q143.76 26.71 143.56 26.45Q143.35 26.18 143.35 25.78L143.35 25.78Q143.35 25.37 143.51 25.13Q143.66 24.89 144.02 24.86L144.02 24.86Q145.70 24.82 147.10 24.43Q148.49 24.05 149.60 23.39Q150.72 22.73 151.49 21.82Q152.26 20.90 152.65 19.79Q153.05 18.67 153.05 17.38L153.05 17.38Q153.05 16.13 152.54 15.18Q152.04 14.23 151.08 13.58Q150.12 12.94 148.75 12.62Q147.38 12.31 145.66 12.31L145.66 12.31Q143.40 12.31 141.55 12.76Q139.70 13.20 138.22 14.09Q136.73 14.98 135.55 16.30L135.55 16.30Q135.26 16.61 134.94 16.66Q134.62 16.70 134.26 16.42L134.26 16.42Q133.87 16.10 133.84 15.78Q133.80 15.46 134.06 15.12L134.06 15.12Q134.98 13.97 136.20 13.08Q137.42 12.19 138.91 11.59Q140.40 10.99 142.13 10.67Q143.86 10.34 145.80 10.34L145.80 10.34Q148.08 10.34 149.84 10.81Q151.61 11.28 152.82 12.18Q154.03 13.08 154.64 14.39Q155.26 15.70 155.26 17.35L155.26 17.35Q155.26 18.96 154.75 20.34Q154.25 21.72 153.30 22.85Q152.35 23.98 151.00 24.79Q149.64 25.61 147.92 26.10Q146.21 26.59 144.17 26.69ZM137.90 37.08L137.90 37.08Q136.82 37.08 135.96 36.67Q135.10 36.26 134.52 35.69Q133.94 35.11 133.63 34.66L133.63 34.66Q133.37 34.22 133.39 33.89Q133.42 33.55 133.80 33.29L133.80 33.29Q134.23 33.02 134.53 33.11Q134.83 33.19 135.17 33.55L135.17 33.55Q135.58 34.01 135.97 34.34Q136.37 34.68 136.86 34.86Q137.35 35.04 137.98 35.04L137.98 35.04Q139.01 35.04 139.49 34.22Q139.97 33.41 139.97 31.66L139.97 31.66L139.97 15.43Q139.97 15.10 140.23 14.93Q140.50 14.76 141.02 14.76L141.02 14.76Q141.55 14.76 141.82 14.93Q142.08 15.10 142.08 15.43L142.08 15.43L142.08 31.85Q142.08 33.43 141.61 34.61Q141.14 35.78 140.23 36.43Q139.32 37.08 137.90 37.08ZM163.97 37.08L163.97 37.08Q162.86 37.08 162.01 36.67Q161.16 36.26 160.57 35.69Q159.98 35.11 159.67 34.66L159.67 34.66Q159.41 34.22 159.43 33.89Q159.46 33.55 159.89 33.29L159.89 33.29Q160.32 33.02 160.60 33.11Q160.87 33.19 161.21 33.55L161.21 33.55Q161.62 34.01 162.04 34.34Q162.46 34.68 162.94 34.86Q163.42 35.04 164.04 35.04L164.04 35.04Q165.07 35.04 165.55 34.22Q166.03 33.41 166.03 31.66L166.03 31.66L166.03 12.72L162.22 12.72Q160.92 12.72 160.08 12.98Q159.24 13.25 158.78 13.82Q158.33 14.40 158.06 15.34L158.06 15.34Q157.97 15.74 157.69 15.88Q157.42 16.01 156.91 15.89L156.91 15.89Q156.50 15.77 156.36 15.50Q156.22 15.24 156.31 14.83L156.31 14.83Q156.58 13.85 157.06 13.09Q157.54 12.34 158.29 11.82Q159.05 11.30 160.10 11.05Q161.16 10.80 162.53 10.80L162.53 10.80L175.90 10.80Q176.26 10.80 176.40 11.00Q176.54 11.21 176.54 11.76L176.54 11.76Q176.54 12.29 176.40 12.50Q176.26 12.72 175.90 12.72L175.90 12.72L168.14 12.72L168.14 31.85Q168.14 33.43 167.69 34.61Q167.23 35.78 166.31 36.43Q165.38 37.08 163.97 37.08ZM198.62 36.98L198.62 36.98Q198.10 36.98 197.83 36.82Q197.57 36.65 197.57 36.31L197.57 36.31L197.57 29.59L185.81 29.59Q185.35 29.59 185.09 29.20Q184.82 28.80 185.04 28.30L185.04 28.30L193.10 10.97Q193.27 10.58 193.54 10.44Q193.80 10.30 194.33 10.34L194.33 10.34Q194.69 10.39 194.92 10.51Q195.14 10.63 195.22 10.86Q195.29 11.09 195.10 11.45L195.10 11.45L187.49 27.67L197.57 27.67L197.57 18.79Q197.57 18.14 198.62 18.14L198.62 18.14Q199.15 18.14 199.42 18.30Q199.68 18.46 199.68 18.79L199.68 18.79L199.68 27.67L202.44 27.67Q202.78 27.67 202.93 27.86Q203.09 28.06 203.09 28.58L203.09 28.58Q203.09 29.06 202.97 29.33Q202.85 29.59 202.44 29.59L202.44 29.59L199.68 29.59L199.68 36.31Q199.68 36.98 198.62 36.98ZM214.66 37.10L214.66 37.10Q211.94 37.10 209.88 35.60Q207.82 34.10 206.68 31.12Q205.54 28.13 205.54 23.71L205.54 23.71Q205.54 21.48 205.82 19.64Q206.11 17.81 206.69 16.32Q207.26 14.83 208.07 13.72Q208.87 12.60 209.88 11.86Q210.89 11.11 212.10 10.73Q213.31 10.34 214.66 10.34L214.66 10.34Q217.32 10.34 219.35 11.84Q221.38 13.34 222.52 16.32Q223.66 19.30 223.66 23.71L223.66 23.71Q223.66 25.92 223.37 27.77Q223.08 29.62 222.52 31.10Q221.95 32.59 221.15 33.72Q220.34 34.85 219.35 35.59Q218.35 36.34 217.16 36.72Q215.98 37.10 214.66 37.10ZM214.58 35.06L214.58 35.06Q215.62 35.06 216.52 34.74Q217.42 34.42 218.17 33.77Q218.93 33.12 219.54 32.16Q220.15 31.20 220.56 29.94Q220.97 28.68 221.18 27.12Q221.40 25.56 221.40 23.71L221.40 23.71Q221.40 19.97 220.56 17.46Q219.72 14.95 218.18 13.67Q216.65 12.38 214.58 12.38L214.58 12.38Q213.58 12.38 212.66 12.71Q211.75 13.03 211.01 13.67Q210.26 14.30 209.65 15.25Q209.04 16.20 208.63 17.46Q208.22 18.72 208.01 20.28Q207.79 21.84 207.79 23.71L207.79 23.71Q207.79 27.41 208.63 29.94Q209.47 32.47 211.01 33.77Q212.54 35.06 214.58 35.06ZM236.28 37.10L236.28 37.10Q233.57 37.10 231.50 35.60Q229.44 34.10 228.30 31.12Q227.16 28.13 227.16 23.71L227.16 23.71Q227.16 21.48 227.45 19.64Q227.74 17.81 228.31 16.32Q228.89 14.83 229.69 13.72Q230.50 12.60 231.50 11.86Q232.51 11.11 233.72 10.73Q234.94 10.34 236.28 10.34L236.28 10.34Q238.94 10.34 240.97 11.84Q243 13.34 244.14 16.32Q245.28 19.30 245.28 23.71L245.28 23.71Q245.28 25.92 244.99 27.77Q244.70 29.62 244.14 31.10Q243.58 32.59 242.77 33.72Q241.97 34.85 240.97 35.59Q239.98 36.34 238.79 36.72Q237.60 37.10 236.28 37.10ZM236.21 35.06L236.21 35.06Q237.24 35.06 238.14 34.74Q239.04 34.42 239.80 33.77Q240.55 33.12 241.16 32.16Q241.78 31.20 242.18 29.94Q242.59 28.68 242.81 27.12Q243.02 25.56 243.02 23.71L243.02 23.71Q243.02 19.97 242.18 17.46Q241.34 14.95 239.81 13.67Q238.27 12.38 236.21 12.38L236.21 12.38Q235.20 12.38 234.29 12.71Q233.38 13.03 232.63 13.67Q231.89 14.30 231.28 15.25Q230.66 16.20 230.26 17.46Q229.85 18.72 229.63 20.28Q229.42 21.84 229.42 23.71L229.42 23.71Q229.42 27.41 230.26 29.94Q231.10 32.47 232.63 33.77Q234.17 35.06 236.21 35.06ZM258.10 37.01L258.10 37.01Q257.59 37.01 257.34 36.85Q257.09 36.70 257.09 36.38L257.09 36.38L257.09 27.79Q257.09 26.78 256.78 26.44Q256.46 26.09 255.91 26.09L255.91 26.09Q255.50 26.09 255.23 26.30Q254.95 26.52 254.80 26.93Q254.64 27.34 254.59 27.89L254.59 27.89Q254.57 28.27 254.38 28.45Q254.18 28.63 253.75 28.63L253.75 28.63Q253.37 28.63 253.13 28.46Q252.89 28.30 252.91 27.67L252.91 27.67Q252.96 26.64 253.33 25.88Q253.70 25.13 254.36 24.71Q255.02 24.29 255.91 24.29L255.91 24.29Q256.54 24.29 257.03 24.42Q257.52 24.55 257.90 24.83Q258.29 25.10 258.55 25.52Q258.82 25.94 258.96 26.52L258.96 26.52L259.01 26.71Q259.34 26.14 259.80 25.68Q260.26 25.22 260.80 24.89Q261.34 24.55 261.95 24.37Q262.56 24.19 263.23 24.19L263.23 24.19Q264.48 24.19 265.43 24.65Q266.38 25.10 266.92 26.08Q267.46 27.05 267.46 28.63L267.46 28.63L267.46 34.34Q267.46 34.66 267.55 34.86Q267.65 35.06 267.83 35.16Q268.01 35.26 268.22 35.26L268.22 35.26Q268.44 35.26 268.62 35.18Q268.80 35.11 268.97 34.98Q269.14 34.85 269.30 34.73L269.30 34.73Q269.50 34.58 269.74 34.68Q269.98 34.78 270.14 34.97L270.14 34.97Q270.34 35.21 270.35 35.45Q270.36 35.69 270.22 35.90L270.22 35.90Q269.95 36.26 269.56 36.53Q269.16 36.79 268.70 36.92Q268.25 37.06 267.77 37.06L267.77 37.06Q267.14 37.06 266.69 36.89Q266.23 36.72 265.94 36.41Q265.66 36.10 265.52 35.63Q265.39 35.16 265.39 34.58L265.39 34.58L265.39 28.82Q265.39 27.98 265.14 27.37Q264.89 26.76 264.36 26.44Q263.83 26.11 262.94 26.11L262.94 26.11Q262.44 26.11 261.90 26.26Q261.36 26.40 260.87 26.72Q260.38 27.05 259.93 27.58Q259.49 28.10 259.15 28.87L259.15 28.87L259.15 36.38Q259.15 36.70 258.89 36.85Q258.62 37.01 258.10 37.01ZM277.44 37.10L277.44 37.10Q275.83 37.10 274.56 36.26Q273.29 35.42 272.57 33.97Q271.85 32.52 271.85 30.65L271.85 30.65Q271.85 29.38 272.23 28.31Q272.62 27.24 273.38 26.46Q274.15 25.68 275.33 25.24Q276.50 24.79 278.09 24.79L278.09 24.79L278.04 25.85Q277.10 25.85 276.36 26.17Q275.62 26.50 275.08 27.13Q274.54 27.77 274.26 28.64Q273.98 29.52 273.98 30.65L273.98 30.65Q273.98 32.04 274.40 33.06Q274.82 34.08 275.60 34.63Q276.38 35.18 277.44 35.18L277.44 35.18Q278.23 35.18 278.87 34.87Q279.50 34.56 279.94 33.96Q280.37 33.36 280.61 32.52Q280.85 31.68 280.85 30.65L280.85 30.65Q280.85 29.26 280.44 28.24Q280.03 27.22 279.26 26.66Q278.50 26.11 277.44 26.11L277.44 26.11Q276.62 26.11 276.17 26.36Q275.71 26.62 275.71 27.10L275.71 27.10Q275.71 27.50 276.06 27.79Q276.41 28.08 276.96 28.22Q277.51 28.37 278.11 28.37L278.11 28.37Q278.93 28.37 279.77 28.14Q280.61 27.91 281.63 27.31Q282.65 26.71 283.97 25.63L283.97 25.63Q284.28 25.37 284.57 25.44Q284.86 25.51 285.02 25.78Q285.19 26.04 285.18 26.36Q285.17 26.69 284.88 26.93L284.88 26.93Q283.37 28.20 282.18 28.86Q280.99 29.52 280.01 29.75Q279.02 29.98 278.06 29.98L278.06 29.98Q276.98 29.98 275.99 29.66Q274.99 29.35 274.37 28.64Q273.74 27.94 273.74 26.81L273.74 26.81Q273.74 26.04 274.28 25.45Q274.82 24.86 275.68 24.53Q276.53 24.19 277.44 24.19L277.44 24.19Q279.05 24.19 280.30 25.02Q281.54 25.85 282.26 27.31Q282.98 28.78 282.98 30.65L282.98 30.65Q282.98 31.78 282.72 32.76Q282.46 33.74 281.95 34.54Q281.45 35.33 280.76 35.90Q280.08 36.48 279.24 36.79Q278.40 37.10 277.44 37.10ZM283.15 37.06L283.15 37.06Q282.70 37.06 282.47 36.78Q282.24 36.50 282.23 36.16Q282.22 35.81 282.43 35.53Q282.65 35.26 283.10 35.26L283.10 35.26Q283.85 35.26 284.47 34.68Q285.10 34.10 285.60 32.96Q286.10 31.82 286.49 30.14Q286.87 28.46 287.11 26.26L287.11 26.26L288.55 26.47Q288.34 29.16 287.89 31.15Q287.45 33.14 286.78 34.45Q286.10 35.76 285.20 36.41Q284.30 37.06 283.15 37.06ZM295.51 37.06L295.51 37.06Q294.89 37.06 294.43 36.89Q293.98 36.72 293.69 36.40Q293.40 36.07 293.26 35.58Q293.11 35.09 293.11 34.46L293.11 34.46Q293.11 33.79 293.17 32.93Q293.23 32.06 293.29 31.15Q293.35 30.24 293.41 29.41Q293.47 28.58 293.47 27.98L293.47 27.98Q293.47 27.05 293.24 26.70Q293.02 26.35 292.39 26.35L292.39 26.35Q291.72 26.35 290.86 26.59Q289.99 26.83 289.18 27.06Q288.36 27.29 287.86 27.29L287.86 27.29Q287.42 27.29 287.03 26.82Q286.63 26.35 286.37 25.67Q286.10 24.98 286.10 24.34L286.10 24.34Q286.10 23.90 286.25 23.57Q286.39 23.23 286.67 23.04Q286.94 22.85 287.38 22.85L287.38 22.85Q288.17 22.85 288.43 23.40Q288.70 23.95 288.70 24.70L288.70 24.70Q288.70 24.86 288.70 25.03Q288.70 25.20 288.67 25.39L288.67 25.39Q288.96 25.39 289.61 25.13Q290.26 24.86 291.11 24.60Q291.96 24.34 292.82 24.34L292.82 24.34Q293.78 24.34 294.38 24.70Q294.98 25.06 295.26 25.81Q295.54 26.57 295.54 27.79L295.54 27.79Q295.54 28.34 295.48 29.20Q295.42 30.05 295.36 31.00Q295.30 31.94 295.24 32.78Q295.18 33.62 295.18 34.18L295.18 34.18Q295.18 34.80 295.36 35.03Q295.54 35.26 295.90 35.26L295.90 35.26Q296.14 35.26 296.33 35.18Q296.52 35.11 296.70 34.98Q296.88 34.85 297.05 34.73L297.05 34.73Q297.24 34.58 297.48 34.68Q297.72 34.78 297.89 34.97L297.89 34.97Q298.08 35.21 298.09 35.45Q298.10 35.69 297.98 35.90L297.98 35.90Q297.72 36.26 297.32 36.53Q296.93 36.79 296.46 36.92Q295.99 37.06 295.51 37.06ZM301.97 37.01L301.97 37.01Q301.46 37.01 301.21 36.85Q300.96 36.70 300.96 36.38L300.96 36.38L300.96 27.79Q300.96 26.78 300.65 26.44Q300.34 26.09 299.78 26.09L299.78 26.09Q299.38 26.09 299.10 26.30Q298.82 26.52 298.67 26.93Q298.51 27.34 298.46 27.89L298.46 27.89Q298.44 28.27 298.25 28.45Q298.06 28.63 297.62 28.63L297.62 28.63Q297.24 28.63 297 28.46Q296.76 28.30 296.78 27.67L296.78 27.67Q296.83 26.64 297.20 25.88Q297.58 25.13 298.24 24.71Q298.90 24.29 299.78 24.29L299.78 24.29Q300.46 24.29 300.96 24.44Q301.46 24.60 301.85 24.89Q302.23 25.18 302.47 25.60Q302.71 26.02 302.83 26.52L302.83 26.52L302.86 26.62Q303.24 25.92 303.72 25.46Q304.20 25.01 304.72 24.72Q305.23 24.43 305.76 24.31Q306.29 24.19 306.74 24.19L306.74 24.19Q307.97 24.19 308.93 24.65Q309.89 25.10 310.45 26.08Q311.02 27.05 311.02 28.63L311.02 28.63L311.02 36.38Q311.02 36.70 310.75 36.85Q310.49 37.01 309.96 37.01L309.96 37.01Q309.43 37.01 309.18 36.85Q308.93 36.70 308.93 36.38L308.93 36.38L308.93 28.82Q308.93 27.96 308.69 27.35Q308.45 26.74 307.91 26.42Q307.37 26.11 306.46 26.11L306.46 26.11Q306.02 26.11 305.57 26.24Q305.11 26.38 304.64 26.69Q304.18 27.00 303.77 27.50Q303.36 28.01 303.02 28.75L303.02 28.75L303.02 36.38Q303.02 36.70 302.76 36.85Q302.50 37.01 301.97 37.01ZM319.25 37.06L319.25 37.06Q318.62 37.06 318.17 36.89Q317.71 36.72 317.44 36.41Q317.16 36.10 317.03 35.63Q316.90 35.16 316.90 34.58L316.90 34.58L316.90 28.82Q316.90 27.98 316.66 27.37Q316.42 26.76 315.88 26.44Q315.34 26.11 314.45 26.11L314.45 26.11Q313.82 26.11 313.19 26.33Q312.55 26.54 311.98 27.04Q311.40 27.53 310.96 28.37Q310.51 29.21 310.25 30.43L310.25 30.43L309.62 30.43Q309.62 29.06 310.00 27.92Q310.37 26.78 311.05 25.94Q311.74 25.10 312.67 24.65Q313.61 24.19 314.74 24.19L314.74 24.19Q315.96 24.19 316.91 24.65Q317.86 25.10 318.41 26.08Q318.96 27.05 318.96 28.63L318.96 28.63L318.96 34.34Q318.96 34.66 319.06 34.86Q319.15 35.06 319.32 35.16Q319.49 35.26 319.70 35.26L319.70 35.26Q319.99 35.26 320.16 35.18Q320.33 35.11 320.47 34.99Q320.62 34.87 320.81 34.73L320.81 34.73Q320.98 34.61 321.22 34.67Q321.46 34.73 321.65 34.99L321.65 34.99Q321.79 35.16 321.84 35.41Q321.89 35.66 321.74 35.86L321.74 35.86Q321.48 36.24 321.07 36.50Q320.66 36.77 320.20 36.91Q319.73 37.06 319.25 37.06ZM328.03 37.06L328.03 37.06Q326.66 37.06 325.61 36.40Q324.55 35.74 323.95 34.39Q323.35 33.05 323.35 31.01L323.35 31.01Q323.35 29.76 323.58 28.70Q323.81 27.65 324.26 26.81Q324.72 25.97 325.37 25.39Q326.02 24.82 326.86 24.50Q327.70 24.19 328.70 24.19L328.70 24.19Q329.47 24.19 330.29 24.44Q331.10 24.70 331.82 25.10L331.82 25.10L331.82 24.98Q331.82 24.62 332.09 24.46Q332.35 24.29 332.88 24.29L332.88 24.29Q333.41 24.29 333.66 24.44Q333.91 24.60 333.91 24.94L333.91 24.94L333.91 34.34Q333.91 34.66 334.01 34.86Q334.10 35.06 334.27 35.16Q334.44 35.26 334.66 35.26L334.66 35.26Q334.90 35.26 335.05 35.20Q335.21 35.14 335.36 35.02Q335.52 34.90 335.74 34.73L335.74 34.73Q335.90 34.58 336.12 34.64Q336.34 34.70 336.55 34.90L336.55 34.90Q336.77 35.14 336.79 35.40Q336.82 35.66 336.70 35.86L336.70 35.86Q336.43 36.24 336.02 36.50Q335.62 36.77 335.15 36.91Q334.68 37.06 334.20 37.06L334.20 37.06Q333.65 37.06 333.24 36.94Q332.83 36.82 332.54 36.56Q332.26 36.31 332.10 35.95Q331.94 35.59 331.87 35.14L331.87 35.14Q331.87 35.11 331.85 35.03Q331.82 34.94 331.82 34.85L331.82 34.85Q331.27 35.74 330.64 36.22Q330 36.70 329.33 36.88Q328.66 37.06 328.03 37.06ZM325.46 30.91L325.46 30.91Q325.46 32.23 325.78 33.18Q326.09 34.13 326.72 34.63Q327.36 35.14 328.32 35.14L328.32 35.14Q329.02 35.14 329.65 34.90Q330.29 34.66 330.84 34.10Q331.39 33.55 331.82 32.66L331.82 32.66L331.82 26.86Q331.08 26.40 330.38 26.24Q329.69 26.09 328.92 26.09L328.92 26.09Q328.30 26.09 327.77 26.28Q327.24 26.47 326.81 26.86Q326.38 27.24 326.08 27.82Q325.78 28.39 325.62 29.16Q325.46 29.93 325.46 30.91ZM335.40 37.06L335.40 37.06Q334.94 37.06 334.73 36.78Q334.51 36.50 334.51 36.16Q334.51 35.81 334.73 35.53Q334.94 35.26 335.40 35.26L335.40 35.26Q336.14 35.26 336.85 34.88Q337.56 34.51 338.26 33.82Q338.95 33.12 339.59 32.14Q340.22 31.15 340.80 29.95Q341.38 28.75 341.87 27.35Q342.36 25.94 342.76 24.40Q343.15 22.85 343.43 21.20Q343.70 19.56 343.85 17.86Q343.99 16.15 343.99 14.45L343.99 14.45Q343.99 14.09 344.30 13.88Q344.62 13.68 345.04 13.68Q345.46 13.68 345.77 13.88Q346.08 14.09 346.08 14.45L346.08 14.45Q346.08 16.18 345.89 17.94Q345.70 19.70 345.36 21.46Q345.02 23.21 344.53 24.89Q344.04 26.57 343.44 28.12Q342.84 29.66 342.12 31.03Q341.40 32.40 340.61 33.49Q339.82 34.58 338.96 35.39Q338.11 36.19 337.21 36.62Q336.31 37.06 335.40 37.06ZM342.07 37.06L342.07 37.06Q341.45 37.06 340.99 36.89Q340.54 36.72 340.26 36.41Q339.98 36.10 339.85 35.63Q339.72 35.16 339.72 34.58L339.72 34.58L339.72 14.86Q339.72 12.53 340.52 11.39Q341.33 10.25 342.96 10.25L342.96 10.25Q344.02 10.25 344.70 10.72Q345.38 11.18 345.73 12.12Q346.08 13.06 346.08 14.45L346.08 14.45Q346.08 14.90 345.77 15.12Q345.46 15.34 345.04 15.34Q344.62 15.34 344.30 15.12Q343.99 14.90 343.99 14.45L343.99 14.45Q343.99 13.66 343.87 13.16Q343.75 12.67 343.52 12.42Q343.30 12.17 342.94 12.17L342.94 12.17Q342.55 12.17 342.29 12.42Q342.02 12.67 341.90 13.26Q341.78 13.85 341.78 14.86L341.78 14.86L341.78 34.34Q341.78 34.66 341.88 34.86Q341.98 35.06 342.14 35.16Q342.31 35.26 342.53 35.26L342.53 35.26Q342.74 35.26 342.92 35.18Q343.10 35.11 343.27 34.98Q343.44 34.85 343.61 34.73L343.61 34.73Q343.80 34.56 344.04 34.67Q344.28 34.78 344.45 34.97L344.45 34.97Q344.64 35.21 344.65 35.45Q344.66 35.69 344.54 35.90L344.54 35.90Q344.28 36.26 343.87 36.53Q343.46 36.79 343.01 36.92Q342.55 37.06 342.07 37.06Z"/></svg>