<svg xmlns="http://www.w3.org/2000/svg" xmlns:xlink="http://www.w3.org/1999/xlink" width="74.4" height="27.048000000000002"><path fill="black" d="M7.25 12.77Q8.64 13.27 10.12 14.46Q11.59 15.65 11.59 18L11.59 18Q11.59 19.54 10.50 20.24Q9.41 20.95 8.29 21.08Q7.18 21.22 5.95 21.22L5.95 21.22L3.62 21.26L2.16 21.29Q1.78 21.29 1.63 21.05Q1.49 20.81 1.49 20.38L1.49 20.38L1.51 15.05L1.51 13.90Q1.51 12.98 1.58 12.24L1.58 12.24L1.66 9.31Q1.66 8.81 1.68 7.81Q1.70 6.82 1.73 6.55L1.73 6.55Q1.75 6.36 1.75 5.88L1.75 5.88Q1.75 5.04 1.68 4.68L1.68 4.68Q1.66 4.63 1.66 4.56L1.66 4.56Q1.66 4.42 1.92 4.34L1.92 4.34Q2.16 4.27 3.19 4.14Q4.22 4.01 5.06 4.01L5.06 4.01Q7.34 4.01 8.68 4.92Q10.01 5.83 10.01 8.38L10.01 8.38Q10.01 10.68 8.62 11.98L8.62 11.98Q7.99 12.50 7.25 12.77L7.25 12.77ZM4.63 11.54Q4.63 11.78 4.61 11.96Q4.58 12.14 4.58 12.24L4.58 12.24Q4.58 12.38 4.61 12.42Q4.63 12.46 4.75 12.46L4.75 12.46Q5.23 12.46 6.24 12.19Q7.25 11.93 8.18 11.06Q9.12 10.20 9.12 8.57L9.12 8.57Q9.12 6.84 8.52 6Q7.92 5.16 7.02 4.93Q6.12 4.70 4.73 4.70L4.73 4.70L4.68 6.24Q4.63 7.97 4.63 8.81L4.63 8.81L4.63 11.54ZM5.38 20.76Q7.73 20.76 8.90 20.00Q10.08 19.25 10.08 17.98L10.08 17.98Q10.08 14.76 7.32 13.61L7.32 13.61Q6.10 13.15 4.56 13.18L4.56 13.18Q4.54 13.25 4.54 13.37L4.54 13.37Q4.51 13.49 4.51 13.92L4.51 13.92L4.56 15.46L4.61 16.75Q4.61 17.09 4.58 17.23L4.58 17.23L4.56 17.86L4.61 19.27L4.66 20.38Q4.66 20.66 4.76 20.72Q4.87 20.78 5.08 20.77Q5.28 20.76 5.38 20.76L5.38 20.76ZM25.97 20.64Q26.09 20.88 26.09 20.95L26.09 20.95Q26.09 21.14 25.66 21.14L25.66 21.14L23.93 21.14Q23.83 21.14 23.74 20.98Q23.64 20.81 23.57 20.64Q23.50 20.47 23.45 20.35L23.45 20.35Q23.33 20.11 23.00 19.25Q22.68 18.38 22.51 17.88L22.51 17.88Q22.44 17.64 22.22 17.17Q22.01 16.70 21.91 16.51L21.91 16.51Q21.82 16.22 21.73 16.13Q21.65 16.03 21.48 16.03L21.48 16.03Q21.31 16.03 21.06 16.06Q20.81 16.08 20.52 16.10L20.52 16.10Q20.33 16.15 19.32 16.15L19.32 16.15Q18.62 16.15 17.95 16.20L17.95 16.20Q17.74 16.22 17.18 16.22L17.18 16.22L15.91 16.20Q15.79 16.20 15.73 16.30Q15.67 16.39 15.65 16.52Q15.62 16.66 15.60 16.73L15.60 16.73L15.46 17.33Q15.38 17.66 15.28 18.11Q15.17 18.55 15.10 18.94L15.10 18.94L14.83 19.97L14.64 20.66Q14.57 20.95 14.51 21.04Q14.45 21.12 14.33 21.12L14.33 21.12L12.91 21.12Q12.79 21.12 12.79 21.02L12.79 21.02Q12.79 20.98 12.89 20.69L12.89 20.69Q13.08 20.23 13.22 19.78L13.22 19.78Q14.11 16.80 14.28 15.89L14.28 15.89Q14.50 14.69 15.17 12.79L15.17 12.79Q15.38 11.98 15.58 11.30L15.58 11.30Q15.65 10.97 15.79 10.49L15.79 10.49Q16.25 8.81 16.70 7.34L16.70 7.34L17.30 5.42Q17.50 4.68 17.78 3.89L17.78 3.89Q17.93 3.53 18.12 3.72L18.12 3.72Q18.26 3.82 18.34 4.06Q18.41 4.30 18.43 4.39L18.43 4.39Q18.50 4.68 19.70 7.27L19.70 7.27Q20.18 8.26 20.74 9.84L20.74 9.84Q20.98 10.54 22.06 12.84L22.06 12.84Q22.61 13.97 22.78 14.40L22.78 14.40Q23.16 15.24 24.84 18.48L24.84 18.48L25.13 19.08Q25.68 20.30 25.97 20.64L25.97 20.64ZM19.68 12.72Q19.85 12.70 19.97 12.70Q20.09 12.70 20.16 12.67Q20.23 12.65 20.23 12.60L20.23 12.60Q20.23 12.55 20.16 12.41L20.16 12.41Q20.04 12.19 19.61 11.20Q19.18 10.20 19.01 9.70L19.01 9.70Q18.77 9.12 18.64 8.74Q18.50 8.35 18.43 8.21L18.43 8.21Q18.38 8.09 18.32 7.97Q18.26 7.85 18.22 7.78Q18.17 7.70 18.12 7.70L18.12 7.70Q18.05 7.70 17.96 8.06Q17.88 8.42 17.83 8.62L17.83 8.62Q17.40 10.01 17.21 10.73L17.21 10.73Q17.11 11.09 16.93 11.60Q16.75 12.12 16.68 12.31L16.68 12.31Q16.61 12.55 16.61 12.70L16.61 12.70Q16.61 12.84 16.82 12.84L16.82 12.84Q17.33 12.84 18.37 12.80Q19.42 12.77 19.68 12.72L19.68 12.72ZM38.66 20.14Q39.31 20.78 39.31 21.02L39.31 21.02Q39.31 21.07 39.19 21.19L39.19 21.19Q38.98 21.34 38.11 21.34L38.11 21.34Q37.49 21.34 37.32 21.25Q37.15 21.17 37.07 20.98Q36.98 20.78 36.94 20.69L36.94 20.69Q36.86 20.54 36.35 19.86Q35.83 19.18 35.57 18.82L35.57 18.82Q34.30 17.18 33.36 15.86L33.36 15.86Q32.78 15.05 31.22 13.06L31.22 13.06L30.84 12.58L29.18 10.51L29.09 11.47Q28.99 12.19 29.04 13.20L29.04 13.20Q29.11 13.87 29.14 16.68Q29.16 19.49 29.16 20.78L29.16 20.78Q29.16 21.17 28.87 21.28Q28.58 21.38 28.20 21.38L28.20 21.38Q28.03 21.38 27.98 21.24Q27.94 21.10 27.92 20.93Q27.91 20.76 27.91 20.71L27.91 20.71Q27.86 20.33 27.86 19.58L27.86 19.58Q27.86 19.10 27.89 18.86L27.89 18.86Q27.91 17.57 27.96 14.34Q28.01 11.11 28.01 8.54L28.01 8.54Q28.01 5.78 27.94 5.33L27.94 5.33Q27.91 5.14 27.91 4.82L27.91 4.82Q27.91 4.46 28.02 4.37Q28.13 4.27 28.34 4.27L28.34 4.27Q28.82 4.27 29.28 4.30L29.28 4.30L31.90 4.34Q33.34 4.34 34.90 4.85Q36.46 5.35 36.46 6.72L36.46 6.72Q36.46 8.02 35.50 8.74Q34.54 9.46 33.35 9.72Q32.16 9.98 31.27 9.98L31.27 9.98Q30.96 9.98 30.94 9.96L30.94 9.96Q31.08 10.10 32.83 12.50L32.83 12.50Q38.11 19.58 38.66 20.14L38.66 20.14ZM29.11 9Q29.90 9 30.31 8.98L30.31 8.98Q31.70 8.93 32.47 8.78L32.47 8.78Q33.58 8.59 34.14 8.26Q34.70 7.92 34.70 7.20L34.70 7.20Q34.70 6.72 34.20 6.37Q33.70 6.02 32.99 5.84Q32.28 5.66 31.75 5.66L31.75 5.66Q31.15 5.64 30.07 5.64L30.07 5.64L29.26 5.64L29.11 9ZM52.13 20.14Q52.78 20.78 52.78 21.02L52.78 21.02Q52.78 21.07 52.66 21.19L52.66 21.19Q52.44 21.34 51.58 21.34L51.58 21.34Q50.95 21.34 50.78 21.25Q50.62 21.17 50.53 20.98Q50.45 20.78 50.40 20.69L50.40 20.69Q50.33 20.54 49.81 19.86Q49.30 19.18 49.03 18.82L49.03 18.82Q47.76 17.18 46.82 15.86L46.82 15.86Q46.25 15.05 44.69 13.06L44.69 13.06L44.30 12.58L42.65 10.51L42.55 11.47Q42.46 12.19 42.50 13.20L42.50 13.20Q42.58 13.87 42.60 16.68Q42.62 19.49 42.62 20.78L42.62 20.78Q42.62 21.17 42.34 21.28Q42.05 21.38 41.66 21.38L41.66 21.38Q41.50 21.38 41.45 21.24Q41.40 21.10 41.39 20.93Q41.38 20.76 41.38 20.71L41.38 20.71Q41.33 20.33 41.33 19.58L41.33 19.58Q41.33 19.10 41.35 18.86L41.35 18.86Q41.38 17.57 41.42 14.34Q41.47 11.11 41.47 8.54L41.47 8.54Q41.47 5.78 41.40 5.33L41.40 5.33Q41.38 5.14 41.38 4.82L41.38 4.82Q41.38 4.46 41.48 4.37Q41.59 4.27 41.81 4.27L41.81 4.27Q42.29 4.27 42.74 4.30L42.74 4.30L45.36 4.34Q46.80 4.34 48.36 4.85Q49.92 5.35 49.92 6.72L49.92 6.72Q49.92 8.02 48.96 8.74Q48 9.46 46.81 9.72Q45.62 9.98 44.74 9.98L44.74 9.98Q44.42 9.98 44.40 9.96L44.40 9.96Q44.54 10.10 46.30 12.50L46.30 12.50Q51.58 19.58 52.13 20.14L52.13 20.14ZM42.58 9Q43.37 9 43.78 8.98L43.78 8.98Q45.17 8.93 45.94 8.78L45.94 8.78Q47.04 8.59 47.60 8.26Q48.17 7.92 48.17 7.20L48.17 7.20Q48.17 6.72 47.66 6.37Q47.16 6.02 46.45 5.84Q45.74 5.66 45.22 5.66L45.22 5.66Q44.62 5.64 43.54 5.64L43.54 5.64L42.72 5.64L42.58 9ZM55.46 4.20Q55.78 4.22 56.08 4.21Q56.38 4.20 56.59 4.20L56.59 4.20Q57.12 4.20 57.36 4.22L57.36 4.22Q57.65 4.25 57.77 4.34Q57.89 4.44 57.89 4.61L57.89 4.61Q57.89 4.73 57.86 4.87Q57.84 5.02 57.82 5.14L57.82 5.14Q57.55 7.18 57.53 9.34L57.53 9.34Q57.50 9.96 57.50 11.26L57.50 11.26L57.53 14.16Q57.55 14.52 57.55 14.90L57.55 14.90L57.58 15.86Q57.62 17.11 57.62 17.71L57.62 17.71Q57.62 18.17 57.60 18.26L57.60 18.26Q57.58 18.36 57.58 18.82L57.58 18.82L57.60 20.14Q57.62 20.42 57.62 20.86L57.62 20.86Q57.65 21.17 57.44 21.25Q57.24 21.34 56.90 21.31L56.90 21.31L54.72 21.31Q54.36 21.34 54.26 21.16Q54.17 20.98 54.14 20.57L54.14 20.57Q54.10 20.40 54.19 19.68L54.19 19.68Q54.29 19.01 54.29 18.53L54.29 18.53Q54.29 18.36 54.46 15.29L54.46 15.29Q54.60 13.03 54.60 12.82L54.60 12.82L54.65 10.46L54.70 8.28L54.74 6.98L54.79 6.12L54.79 5.11Q54.79 4.18 55.27 4.18L55.27 4.18Q55.39 4.18 55.46 4.20L55.46 4.20ZM69.55 4.37Q70.99 5.33 71.87 6.96Q72.74 8.59 73.09 10.14Q73.44 11.69 73.44 12.58L73.44 12.58Q73.44 14.06 72.97 16.03Q72.50 18 70.97 19.69Q69.43 21.38 66.53 21.38L66.53 21.38Q62.54 21.38 60.86 16.75L60.86 16.75Q60.12 14.66 60.02 12.10L60.02 12.10Q60.02 9.98 60.91 8.08Q61.80 6.17 63.25 5.02Q64.70 3.86 66.24 3.86L66.24 3.86Q67.63 3.86 68.32 3.94Q69 4.01 69.55 4.37L69.55 4.37ZM66.41 20.04Q68.95 20.04 70.20 17.92Q71.45 15.79 71.45 12.58L71.45 12.58Q71.45 10.61 70.86 8.94Q70.27 7.27 69.20 6.28Q68.14 5.28 66.74 5.28L66.74 5.28Q66.62 5.28 66.11 5.28Q65.59 5.28 65.21 5.45Q64.82 5.62 64.51 5.95L64.51 5.95Q63.72 6.74 63.18 7.40Q62.64 8.06 62.10 9.36Q61.56 10.66 61.56 12.36L61.56 12.36Q61.56 14.38 62.05 16.12Q62.54 17.86 63.62 18.95Q64.70 20.04 66.41 20.04L66.41 20.04Z"/></svg>