<svg xmlns="http://www.w3.org/2000/svg" xmlns:xlink="http://www.w3.org/1999/xlink" width="388.1519999999999" height="46.368"><path fill="black" d="M2.52 34.61L2.52 34.61Q1.61 34.61 1.78 34.01L1.78 34.01L9.29 10.90Q9.38 10.61 9.61 10.46Q9.84 10.32 10.30 10.32L10.30 10.32L14.64 10.32Q16.94 10.32 18.47 10.86Q19.99 11.40 20.76 12.49Q21.53 13.58 21.53 15.34L21.53 15.34Q21.53 17.30 20.80 18.83Q20.06 20.35 18.70 21.44Q17.33 22.54 15.42 23.22Q13.51 23.90 11.18 24.22L11.18 24.22Q10.08 24.34 8.89 24.41Q7.70 24.48 6.60 24.53L6.60 24.53L3.50 34.03Q3.38 34.32 3.18 34.46Q2.98 34.61 2.52 34.61ZM10.66 11.88L7.08 22.94Q7.78 22.94 8.54 22.91Q9.31 22.87 10.08 22.79Q10.85 22.70 11.54 22.63L11.54 22.63Q14.14 22.25 15.97 21.34Q17.81 20.42 18.79 18.97Q19.78 17.52 19.78 15.53L19.78 15.53Q19.78 14.21 19.20 13.40Q18.62 12.60 17.45 12.24Q16.27 11.88 14.42 11.88L14.42 11.88L10.66 11.88ZM21.60 34.63L21.60 34.63Q20.38 34.63 20.00 33.68Q19.63 32.74 20.21 30.91L20.21 30.91L26.90 10.54Q27.02 10.15 27.22 10.03Q27.41 9.91 27.79 9.91L27.79 9.91Q28.37 9.91 28.55 10.10Q28.73 10.30 28.58 10.68L28.58 10.68L21.67 31.70Q21.46 32.40 21.53 32.78Q21.60 33.17 21.98 33.17L21.98 33.17Q22.32 33.17 22.64 32.95Q22.97 32.74 23.29 32.39Q23.62 32.04 23.90 31.66L23.90 31.66Q24.07 31.44 24.25 31.40Q24.43 31.37 24.67 31.56L24.67 31.56Q25.01 31.75 25.04 31.96Q25.08 32.16 24.96 32.38L24.96 32.38Q24.60 33 24.07 33.52Q23.54 34.03 22.93 34.33Q22.32 34.63 21.60 34.63ZM29.76 34.68L29.76 34.68Q28.87 34.68 28.21 34.24Q27.55 33.79 27.19 32.96Q26.83 32.14 26.83 31.03L26.83 31.03Q26.83 29.93 27.16 28.68Q27.48 27.43 28.14 26.21Q28.80 24.98 29.76 24Q30.72 23.02 31.96 22.42Q33.19 21.82 34.75 21.82L34.75 21.82Q35.50 21.82 36.29 22.03Q37.08 22.25 37.78 22.66L37.78 22.66L37.85 22.42Q37.99 22.10 38.18 22.01Q38.38 21.91 38.74 21.91L38.74 21.91Q39.31 21.91 39.48 22.12Q39.65 22.32 39.50 22.70L39.50 22.70L36.50 31.80Q36.36 32.26 36.34 32.56Q36.31 32.86 36.43 33.01Q36.55 33.17 36.79 33.17L36.79 33.17Q37.13 33.17 37.46 32.95Q37.80 32.74 38.12 32.40Q38.45 32.06 38.74 31.68L38.74 31.68Q38.90 31.46 39.07 31.43Q39.24 31.39 39.53 31.56L39.53 31.56Q39.84 31.78 39.88 31.97Q39.91 32.16 39.79 32.40L39.79 32.40Q39.55 32.78 39.07 33.32Q38.59 33.86 37.93 34.25Q37.27 34.63 36.48 34.63L36.48 34.63Q35.78 34.63 35.39 34.37Q34.99 34.10 34.85 33.66Q34.70 33.22 34.75 32.66Q34.80 32.11 34.94 31.54L34.94 31.54Q35.04 31.25 35.12 30.97Q35.21 30.70 35.30 30.38L35.30 30.38Q34.30 31.90 33.32 32.86Q32.35 33.82 31.45 34.25Q30.55 34.68 29.76 34.68ZM28.61 30.77L28.61 30.77Q28.61 31.49 28.80 32.02Q28.99 32.54 29.36 32.83Q29.74 33.12 30.24 33.12L30.24 33.12Q31.10 33.12 32.16 32.32Q33.22 31.51 34.36 29.94Q35.50 28.37 36.67 26.06L36.67 26.06L37.34 24.02Q36.53 23.62 35.84 23.48Q35.16 23.35 34.56 23.35L34.56 23.35Q33.41 23.35 32.46 23.84Q31.51 24.34 30.80 25.15Q30.10 25.97 29.60 26.96Q29.11 27.96 28.86 28.96Q28.61 29.95 28.61 30.77ZM44.66 34.63L44.66 34.63Q43.58 34.63 42.94 34.13Q42.29 33.62 42.17 32.59Q42.05 31.56 42.53 30.07L42.53 30.07L45.05 22.54Q45.17 22.15 45.36 22.03Q45.55 21.91 45.94 21.91L45.94 21.91Q46.51 21.91 46.69 22.10Q46.87 22.30 46.73 22.68L46.73 22.68L44.16 30.34Q43.90 31.18 43.87 31.80Q43.85 32.42 44.16 32.76Q44.47 33.10 45.19 33.10L45.19 33.10Q45.94 33.10 46.84 32.56Q47.74 32.02 48.72 30.96Q49.70 29.90 50.68 28.36Q51.65 26.81 52.54 24.77L52.54 24.77L53.23 22.54Q53.38 22.15 53.57 22.03Q53.76 21.91 54.14 21.91L54.14 21.91Q54.74 21.91 54.90 22.12Q55.06 22.32 54.91 22.70L54.91 22.70L48.91 41.11Q48.26 43.13 47.52 44.36Q46.78 45.60 45.74 46.16Q44.71 46.73 43.13 46.73L43.13 46.73Q42.24 46.73 41.45 46.49Q40.66 46.25 40.03 45.79Q39.41 45.34 38.93 44.78L38.93 44.78Q38.66 44.50 38.60 44.23Q38.54 43.97 38.95 43.66L38.95 43.66Q39.31 43.37 39.53 43.37Q39.74 43.37 40.01 43.66L40.01 43.66Q40.63 44.42 41.45 44.81Q42.26 45.19 43.25 45.19L43.25 45.19Q44.30 45.19 45.01 44.77Q45.72 44.35 46.25 43.43Q46.78 42.50 47.26 41.04L47.26 41.04L50.86 29.90Q50.09 31.13 49.28 32.03Q48.48 32.93 47.69 33.50Q46.90 34.08 46.13 34.36Q45.36 34.63 44.66 34.63ZM59.95 34.73L59.95 34.73Q58.94 34.73 58.34 34.32Q57.74 33.91 57.49 33.22Q57.24 32.52 57.31 31.62Q57.38 30.72 57.72 29.74L57.72 29.74L60.07 22.54Q60.17 22.20 60.36 22.04Q60.55 21.89 60.98 21.89L60.98 21.89Q61.58 21.89 61.73 22.08Q61.87 22.27 61.75 22.63L61.75 22.63L59.33 30.05Q59.06 30.89 59.02 31.60Q58.97 32.30 59.27 32.74Q59.57 33.17 60.36 33.17L60.36 33.17Q61.06 33.17 61.78 32.72Q62.50 32.28 63.16 31.52Q63.82 30.77 64.40 29.81Q64.99 28.85 65.42 27.82L65.42 27.82L67.13 22.54Q67.25 22.22 67.43 22.07Q67.61 21.91 68.02 21.91L68.02 21.91Q68.62 21.91 68.76 22.09Q68.90 22.27 68.78 22.66L68.78 22.66L66.62 29.40Q66.46 30.05 66.31 30.71Q66.17 31.37 66.22 31.93Q66.26 32.50 66.59 32.84Q66.91 33.19 67.63 33.19L67.63 33.19Q68.45 33.19 69.23 32.72Q70.01 32.26 70.69 31.46Q71.38 30.67 71.92 29.70Q72.46 28.73 72.80 27.67Q73.15 26.62 73.25 25.68L73.25 25.68Q73.32 25.25 73.34 24.79Q73.37 24.34 73.31 23.86Q73.25 23.38 73.13 22.85L73.13 22.85Q73.06 22.51 73.13 22.28Q73.20 22.06 73.39 21.94Q73.58 21.82 73.87 21.82L73.87 21.82Q74.23 21.82 74.44 22.02Q74.64 22.22 74.76 22.73L74.76 22.73Q74.90 23.16 74.96 23.62Q75.02 24.07 75 24.55Q74.98 25.03 74.90 25.51L74.90 25.51Q74.81 26.69 74.40 27.96Q73.99 29.23 73.30 30.43Q72.60 31.63 71.69 32.60Q70.78 33.58 69.66 34.15Q68.54 34.73 67.27 34.73L67.27 34.73Q66.29 34.73 65.65 34.34Q65.02 33.96 64.75 33.26Q64.49 32.57 64.51 31.66L64.51 31.66Q63.94 32.62 63.20 33.30Q62.47 33.98 61.66 34.36Q60.84 34.73 59.95 34.73ZM78.31 34.63L78.31 34.63Q77.98 34.63 77.71 34.49Q77.45 34.34 77.57 33.98L77.57 33.98L80.64 24.50Q80.83 23.93 80.74 23.63Q80.64 23.33 80.26 23.33L80.26 23.33Q79.90 23.33 79.52 23.54Q79.15 23.76 78.71 24.23Q78.26 24.70 77.74 25.44L77.74 25.44Q77.50 25.68 77.32 25.74Q77.14 25.80 76.80 25.63L76.80 25.63Q76.42 25.44 76.43 25.19Q76.44 24.94 76.58 24.72L76.58 24.72Q77.14 23.93 77.75 23.27Q78.36 22.61 79.07 22.22Q79.78 21.84 80.59 21.84L80.59 21.84Q81.31 21.84 81.71 22.08Q82.10 22.32 82.26 22.73Q82.42 23.14 82.39 23.66Q82.37 24.19 82.25 24.74L82.25 24.74L81.70 26.45Q82.39 25.20 83.08 24.32Q83.76 23.45 84.37 22.88Q84.98 22.32 85.52 22.07Q86.06 21.82 86.54 21.82L86.54 21.82Q86.86 21.82 87.01 21.96Q87.17 22.10 87.14 22.56L87.14 22.56Q87.14 23.28 87.24 23.72Q87.34 24.17 87.54 24.37Q87.74 24.58 88.06 24.58L88.06 24.58Q88.63 24.58 89.34 24.26Q90.05 23.95 91.25 23.21L91.25 23.21Q91.44 23.09 91.66 23.17Q91.87 23.26 91.99 23.47Q92.11 23.69 92.11 23.94Q92.11 24.19 91.90 24.31L91.90 24.31Q90.77 25.13 89.81 25.52Q88.85 25.92 87.94 25.92L87.94 25.92Q87.41 25.92 86.94 25.70Q86.47 25.49 86.17 24.96Q85.87 24.43 85.87 23.50L85.87 23.50Q85.32 23.71 84.62 24.35Q83.93 24.98 83.17 25.99Q82.42 27 81.64 28.38Q80.86 29.76 80.11 31.44L80.11 31.44L79.25 34.10Q79.18 34.37 78.97 34.50Q78.77 34.63 78.31 34.63ZM92.57 34.63L92.57 34.63Q91.32 34.63 90.94 33.68Q90.55 32.74 91.15 30.91L91.15 30.91L93.89 22.54Q94.03 22.15 94.22 22.03Q94.42 21.91 94.80 21.91L94.80 21.91Q95.38 21.91 95.54 22.10Q95.71 22.30 95.59 22.68L95.59 22.68L92.64 31.70Q92.40 32.42 92.47 32.80Q92.54 33.17 92.93 33.17L92.93 33.17Q93.26 33.17 93.59 32.95Q93.91 32.74 94.24 32.39Q94.56 32.04 94.85 31.66L94.85 31.66Q95.02 31.44 95.20 31.40Q95.38 31.37 95.64 31.56L95.64 31.56Q95.95 31.75 95.99 31.96Q96.02 32.16 95.90 32.38L95.90 32.38Q95.52 33 95.00 33.52Q94.49 34.03 93.88 34.33Q93.26 34.63 92.57 34.63ZM96.24 18.05L96.24 18.05Q95.81 18.05 95.51 17.78Q95.21 17.52 95.21 16.99L95.21 16.99Q95.21 16.39 95.59 15.88Q95.98 15.36 96.74 15.36L96.74 15.36Q97.22 15.36 97.52 15.61Q97.82 15.86 97.82 16.39L97.82 16.39Q97.82 16.99 97.44 17.52Q97.06 18.05 96.24 18.05ZM100.58 34.63L100.58 34.63Q99.67 34.63 99.16 34.21Q98.64 33.79 98.59 32.94Q98.54 32.09 98.95 30.82L98.95 30.82L101.23 23.81L99.34 23.81Q99.07 23.81 98.99 23.62Q98.90 23.42 99 23.04L99 23.04Q99.12 22.66 99.32 22.46Q99.53 22.27 99.77 22.27L99.77 22.27L101.71 22.27L103.32 17.38Q103.44 16.99 103.63 16.87Q103.82 16.75 104.23 16.75L104.23 16.75Q104.81 16.75 104.99 16.93Q105.17 17.11 105.02 17.50L105.02 17.50L103.46 22.27L106.46 22.27Q106.73 22.27 106.82 22.45Q106.92 22.63 106.80 23.04L106.80 23.04Q106.68 23.42 106.49 23.62Q106.30 23.81 106.06 23.81L106.06 23.81L102.96 23.81L100.46 31.32Q100.15 32.28 100.27 32.72Q100.39 33.17 100.94 33.17L100.94 33.17Q101.57 33.17 102.24 32.66Q102.91 32.16 103.56 31.32L103.56 31.32Q103.73 31.13 103.91 31.08Q104.09 31.03 104.38 31.25L104.38 31.25Q104.69 31.42 104.72 31.62Q104.76 31.82 104.64 31.99L104.64 31.99Q104.30 32.59 103.70 33.20Q103.10 33.82 102.32 34.22Q101.54 34.63 100.58 34.63ZM111.55 34.73L111.55 34.73Q110.18 34.73 109.27 34.14Q108.36 33.55 107.92 32.54Q107.47 31.54 107.47 30.24L107.47 30.24Q107.47 28.73 107.99 27.23Q108.50 25.73 109.49 24.52Q110.47 23.30 111.85 22.56Q113.23 21.82 114.98 21.82L114.98 21.82Q116.11 21.82 116.86 22.16Q117.60 22.51 117.97 23.11Q118.34 23.71 118.34 24.50L118.34 24.50Q118.34 25.56 117.73 26.38Q117.12 27.19 116.10 27.82Q115.08 28.44 113.80 28.86Q112.51 29.28 111.13 29.53Q109.75 29.78 108.43 29.93L108.43 29.93L108.67 28.54Q109.68 28.42 110.77 28.22Q111.86 28.03 112.90 27.73Q113.93 27.43 114.76 26.99Q115.58 26.54 116.06 25.99Q116.54 25.44 116.54 24.72L116.54 24.72Q116.54 24 116.08 23.68Q115.61 23.35 114.79 23.35L114.79 23.35Q113.50 23.35 112.45 23.98Q111.41 24.60 110.69 25.60Q109.97 26.59 109.58 27.79Q109.20 28.99 109.20 30.14L109.20 30.14Q109.20 31.10 109.50 31.79Q109.80 32.47 110.38 32.82Q110.95 33.17 111.79 33.17L111.79 33.17Q112.68 33.17 113.39 32.82Q114.10 32.47 114.70 31.94Q115.30 31.42 115.80 30.89L115.80 30.89Q116.06 30.60 116.34 30.66Q116.62 30.72 116.83 30.94L116.83 30.94Q117.05 31.13 117.10 31.38Q117.14 31.63 116.88 31.94L116.88 31.94Q116.14 32.81 115.27 33.44Q114.41 34.08 113.48 34.40Q112.56 34.73 111.55 34.73ZM125.52 34.61L125.52 34.61Q125.02 34.61 124.86 34.31Q124.70 34.01 124.99 33.58L124.99 33.58L140.11 10.66Q140.38 10.22 140.65 10.07Q140.93 9.91 141.38 9.91L141.38 9.91Q141.77 9.91 141.98 10.09Q142.20 10.27 142.20 10.85L142.20 10.85L143.40 33.74Q143.45 34.15 143.23 34.38Q143.02 34.61 142.51 34.61L142.51 34.61Q142.08 34.61 141.94 34.44Q141.79 34.27 141.74 33.86L141.74 33.86L141.41 27.22L131.11 27.22L126.77 33.84Q126.43 34.32 126.22 34.46Q126 34.61 125.52 34.61ZM140.69 12.62L132.17 25.66L141.34 25.66L140.69 12.62ZM154.06 34.73L154.06 34.73Q152.50 34.73 151.44 34.14Q150.38 33.55 149.86 32.44Q149.33 31.32 149.35 29.80Q149.38 28.27 149.98 26.38L149.98 26.38L155.09 10.46Q155.18 10.18 155.40 10.04Q155.62 9.91 156.10 9.91L156.10 9.91Q156.55 9.91 156.76 10.06Q156.96 10.20 156.86 10.51L156.86 10.51L151.63 26.57Q151.13 28.15 151.06 29.35Q150.98 30.55 151.32 31.38Q151.66 32.21 152.39 32.64Q153.12 33.07 154.18 33.07L154.18 33.07Q155.33 33.07 156.53 32.62Q157.73 32.16 158.90 31.32Q160.08 30.48 161.26 29.28Q162.43 28.08 163.56 26.56Q164.69 25.03 165.74 23.26L165.74 23.26L169.85 10.46Q169.94 10.18 170.18 10.04Q170.42 9.91 170.86 9.91L170.86 9.91Q171.31 9.91 171.50 10.07Q171.70 10.22 171.60 10.51L171.60 10.51L164.02 34.03Q163.92 34.32 163.68 34.46Q163.44 34.61 162.98 34.61L162.98 34.61Q162.58 34.61 162.37 34.44Q162.17 34.27 162.26 34.01L162.26 34.01L164.30 27.74Q163.15 29.33 161.93 30.62Q160.70 31.92 159.41 32.83Q158.11 33.74 156.77 34.24Q155.42 34.73 154.06 34.73ZM184.68 34.61L184.68 34.61Q184.32 34.61 184.10 34.42Q183.89 34.22 183.89 33.65L183.89 33.65L183.10 10.78Q183.07 10.37 183.30 10.14Q183.53 9.91 184.03 9.91L184.03 9.91Q184.49 9.91 184.62 10.07Q184.75 10.22 184.78 10.63L184.78 10.63L185.42 31.85L199.25 10.68Q199.56 10.20 199.79 10.06Q200.02 9.91 200.50 9.91L200.50 9.91Q201 9.91 201.16 10.22Q201.31 10.54 201.02 10.94L201.02 10.94L185.98 33.86Q185.69 34.27 185.44 34.44Q185.18 34.61 184.68 34.61ZM198.60 34.61L198.60 34.61Q198.14 34.61 197.94 34.46Q197.74 34.32 197.83 34.01L197.83 34.01L205.42 10.46Q205.51 10.18 205.75 10.04Q205.99 9.91 206.45 9.91L206.45 9.91Q206.88 9.91 207.07 10.06Q207.26 10.20 207.17 10.51L207.17 10.51L199.58 34.03Q199.49 34.32 199.26 34.46Q199.03 34.61 198.60 34.61ZM216.02 34.75L216.02 34.75Q214.34 34.75 212.98 34.19Q211.61 33.62 210.67 32.52Q209.74 31.42 209.22 29.84Q208.70 28.27 208.70 26.28L208.70 26.28Q208.70 24.55 209.11 22.68Q209.52 20.81 210.31 18.96Q211.10 17.11 212.27 15.49Q213.43 13.87 214.96 12.61Q216.48 11.35 218.35 10.63Q220.22 9.91 222.46 9.91L222.46 9.91Q223.90 9.91 225.08 10.25Q226.27 10.58 227.20 11.20Q228.12 11.81 228.74 12.77L228.74 12.77Q228.91 13.01 228.82 13.20Q228.72 13.39 228.41 13.61L228.41 13.61Q228.14 13.80 227.95 13.80Q227.76 13.80 227.45 13.51L227.45 13.51Q226.85 12.84 226.09 12.42Q225.34 12.00 224.39 11.78Q223.44 11.57 222.19 11.57L222.19 11.57Q220.44 11.57 218.90 12.19Q217.37 12.82 216.06 13.92Q214.75 15.02 213.73 16.45Q212.71 17.88 212.00 19.50Q211.30 21.12 210.91 22.79Q210.53 24.46 210.53 26.04L210.53 26.04Q210.53 27.77 210.90 29.08Q211.27 30.38 211.99 31.27Q212.71 32.16 213.79 32.62Q214.87 33.07 216.26 33.07L216.26 33.07Q217.34 33.07 218.32 32.75Q219.29 32.42 220.20 31.81Q221.11 31.20 222.00 30.37Q222.89 29.54 223.80 28.54L223.80 28.54Q224.04 28.27 224.27 28.34Q224.50 28.42 224.71 28.63L224.71 28.63Q225.00 28.92 225.01 29.14Q225.02 29.35 224.81 29.64L224.81 29.64Q223.32 31.46 221.81 32.58Q220.30 33.70 218.83 34.22Q217.37 34.75 216.02 34.75ZM240.91 34.73L240.91 34.73Q239.33 34.73 237.96 34.15Q236.59 33.58 235.57 32.56Q234.55 31.54 234.00 30.17L234.00 30.17Q233.78 29.66 233.80 29.39Q233.81 29.11 234.26 28.92L234.26 28.92Q234.70 28.70 234.90 28.80Q235.10 28.90 235.30 29.33L235.30 29.33Q235.87 30.53 236.68 31.38Q237.48 32.23 238.58 32.69Q239.69 33.14 241.15 33.14L241.15 33.14Q242.71 33.14 243.95 32.65Q245.18 32.16 246.06 31.27Q246.94 30.38 247.39 29.22Q247.85 28.06 247.85 26.71L247.85 26.71Q247.85 25.34 247.28 24.32Q246.72 23.30 245.64 22.74Q244.56 22.18 243.05 22.18L243.05 22.18L241.42 22.18Q241.20 22.18 241.12 22.00Q241.03 21.82 241.13 21.38L241.13 21.38Q241.25 21 241.45 20.81Q241.66 20.62 241.87 20.62L241.87 20.62L243.43 20.62Q244.90 20.62 246.17 20.27Q247.44 19.92 248.38 19.22Q249.31 18.53 249.83 17.48Q250.34 16.44 250.34 15.10L250.34 15.10Q250.34 14.21 250.04 13.54Q249.74 12.86 249.20 12.41Q248.66 11.95 247.92 11.71Q247.18 11.47 246.24 11.47L246.24 11.47Q245.26 11.47 244.33 11.74Q243.41 12.00 242.52 12.52Q241.63 13.03 240.79 13.78L240.79 13.78Q240.41 14.14 240.17 14.12Q239.93 14.11 239.57 13.80L239.57 13.80Q239.26 13.49 239.33 13.24Q239.40 12.98 239.81 12.55L239.81 12.55Q240.62 11.78 241.70 11.18Q242.78 10.58 244.01 10.25Q245.23 9.91 246.48 9.91L246.48 9.91Q247.66 9.91 248.66 10.25Q249.67 10.58 250.46 11.24Q251.26 11.90 251.70 12.84Q252.14 13.78 252.14 14.98L252.14 14.98Q252.14 16.25 251.76 17.32Q251.38 18.38 250.64 19.25Q249.91 20.11 248.80 20.71Q247.68 21.31 246.22 21.58L246.22 21.58Q247.30 21.91 248.06 22.64Q248.83 23.38 249.25 24.38Q249.67 25.39 249.67 26.57L249.67 26.57Q249.67 28.27 249.05 29.75Q248.42 31.22 247.25 32.35Q246.07 33.48 244.46 34.10Q242.86 34.73 240.91 34.73ZM259.80 34.73L259.80 34.73Q258.02 34.73 256.63 33.96Q255.24 33.19 254.45 31.60Q253.66 30 253.66 27.53L253.66 27.53Q253.66 25.58 254.06 23.54Q254.47 21.50 255.24 19.52Q256.01 17.54 257.14 15.82Q258.26 14.09 259.69 12.76Q261.12 11.42 262.85 10.67Q264.58 9.91 266.57 9.91L266.57 9.91Q268.34 9.91 269.71 10.68Q271.08 11.45 271.87 13.02Q272.66 14.59 272.66 17.02L272.66 17.02Q272.66 18.96 272.26 21.04Q271.85 23.11 271.08 25.09Q270.31 27.07 269.20 28.80Q268.08 30.53 266.65 31.86Q265.22 33.19 263.50 33.96Q261.77 34.73 259.80 34.73ZM260.23 33.05L260.23 33.05Q261.74 33.05 263.11 32.38Q264.48 31.70 265.67 30.52Q266.86 29.33 267.80 27.78Q268.75 26.23 269.42 24.48Q270.10 22.73 270.46 20.93Q270.82 19.13 270.82 17.42L270.82 17.42Q270.82 15.26 270.24 13.99Q269.66 12.72 268.62 12.16Q267.58 11.59 266.16 11.59L266.16 11.59Q264.65 11.59 263.26 12.26Q261.86 12.94 260.68 14.11Q259.49 15.29 258.53 16.84Q257.57 18.38 256.90 20.12Q256.22 21.86 255.86 23.66Q255.50 25.46 255.50 27.12L255.50 27.12Q255.50 29.33 256.09 30.64Q256.68 31.94 257.74 32.50Q258.79 33.05 260.23 33.05ZM280.10 34.73L280.10 34.73Q278.33 34.73 276.94 33.96Q275.54 33.19 274.75 31.60Q273.96 30 273.96 27.53L273.96 27.53Q273.96 25.58 274.37 23.54Q274.78 21.50 275.54 19.52Q276.31 17.54 277.44 15.82Q278.57 14.09 280.00 12.76Q281.42 11.42 283.15 10.67Q284.88 9.91 286.87 9.91L286.87 9.91Q288.65 9.91 290.02 10.68Q291.38 11.45 292.18 13.02Q292.97 14.59 292.97 17.02L292.97 17.02Q292.97 18.96 292.56 21.04Q292.15 23.11 291.38 25.09Q290.62 27.07 289.50 28.80Q288.38 30.53 286.96 31.86Q285.53 33.19 283.80 33.96Q282.07 34.73 280.10 34.73ZM280.54 33.05L280.54 33.05Q282.05 33.05 283.42 32.38Q284.78 31.70 285.97 30.52Q287.16 29.33 288.11 27.78Q289.06 26.23 289.73 24.48Q290.40 22.73 290.76 20.93Q291.12 19.13 291.12 17.42L291.12 17.42Q291.12 15.26 290.54 13.99Q289.97 12.72 288.92 12.16Q287.88 11.59 286.46 11.59L286.46 11.59Q284.95 11.59 283.56 12.26Q282.17 12.94 280.98 14.11Q279.79 15.29 278.83 16.84Q277.87 18.38 277.20 20.12Q276.53 21.86 276.17 23.66Q275.81 25.46 275.81 27.12L275.81 27.12Q275.81 29.33 276.40 30.64Q276.98 31.94 278.04 32.50Q279.10 33.05 280.54 33.05ZM300.77 34.63L300.77 34.63Q300.43 34.63 300.17 34.49Q299.90 34.34 300.02 33.98L300.02 33.98L303.10 24.50Q303.29 23.93 303.19 23.63Q303.10 23.33 302.71 23.33L302.71 23.33Q302.35 23.33 301.98 23.54Q301.61 23.76 301.16 24.23Q300.72 24.70 300.19 25.44L300.19 25.44Q299.95 25.68 299.77 25.74Q299.59 25.80 299.26 25.63L299.26 25.63Q298.87 25.44 298.88 25.19Q298.90 24.94 299.04 24.72L299.04 24.72Q299.59 23.93 300.20 23.27Q300.82 22.61 301.52 22.22Q302.23 21.84 303.05 21.84L303.05 21.84Q303.74 21.84 304.15 22.08Q304.56 22.32 304.73 22.74Q304.90 23.16 304.86 23.69Q304.82 24.22 304.70 24.79L304.70 24.79L304.13 26.54Q304.90 25.32 305.71 24.42Q306.53 23.52 307.33 22.94Q308.14 22.37 308.93 22.09Q309.72 21.82 310.44 21.82L310.44 21.82Q311.54 21.82 312.18 22.33Q312.82 22.85 312.94 23.88Q313.06 24.91 312.53 26.45L312.53 26.45L310.75 31.68Q310.58 32.21 310.55 32.53Q310.51 32.86 310.63 33.01Q310.75 33.17 311.02 33.17L311.02 33.17Q311.35 33.17 311.69 32.94Q312.02 32.71 312.35 32.38Q312.67 32.04 312.96 31.66L312.96 31.66Q313.13 31.44 313.31 31.40Q313.49 31.37 313.75 31.56L313.75 31.56Q314.06 31.75 314.10 31.94Q314.14 32.14 314.02 32.38L314.02 32.38Q313.78 32.76 313.28 33.31Q312.79 33.86 312.13 34.25Q311.47 34.63 310.66 34.63L310.66 34.63Q309.91 34.63 309.50 34.32Q309.10 34.01 308.98 33.48Q308.86 32.95 308.95 32.30Q309.05 31.66 309.29 30.96L309.29 30.96L310.94 26.04Q311.26 25.22 311.24 24.62Q311.23 24.02 310.92 23.70Q310.61 23.38 309.89 23.38L309.89 23.38Q309.14 23.38 308.22 23.89Q307.30 24.41 306.32 25.44Q305.35 26.47 304.38 28.00Q303.41 29.52 302.54 31.56L302.54 31.56L301.70 34.10Q301.63 34.37 301.43 34.50Q301.22 34.63 300.77 34.63ZM320.64 34.73L320.64 34.73Q319.22 34.73 318.24 34.14Q317.26 33.55 316.76 32.51Q316.27 31.46 316.27 30.14L316.27 30.14Q316.27 28.85 316.73 27.41Q317.18 25.97 318.10 24.70Q319.01 23.42 320.36 22.62Q321.72 21.82 323.52 21.82L323.52 21.82Q324.94 21.82 325.91 22.37Q326.88 22.92 327.37 23.92Q327.86 24.91 327.86 26.23L327.86 26.23Q327.86 27.19 327.59 28.34Q327.31 29.50 326.75 30.62Q326.18 31.75 325.32 32.68Q324.46 33.60 323.28 34.16Q322.10 34.73 320.64 34.73ZM320.83 33.17L320.83 33.17Q322.13 33.17 323.11 32.50Q324.10 31.82 324.74 30.78Q325.39 29.74 325.74 28.57Q326.09 27.41 326.09 26.42L326.09 26.42Q326.09 25.44 325.76 24.77Q325.44 24.10 324.83 23.74Q324.22 23.38 323.35 23.38L323.35 23.38Q322.06 23.38 321.06 24.04Q320.06 24.70 319.39 25.73Q318.72 26.76 318.38 27.90Q318.05 29.04 318.05 30.02L318.05 30.02Q318.05 31.01 318.37 31.72Q318.70 32.42 319.33 32.80Q319.97 33.17 320.83 33.17ZM330.98 34.63L330.98 34.63Q330.65 34.63 330.38 34.49Q330.12 34.34 330.24 33.98L330.24 33.98L333.31 24.50Q333.50 23.93 333.41 23.63Q333.31 23.33 332.93 23.33L332.93 23.33Q332.57 23.33 332.20 23.54Q331.82 23.76 331.38 24.23Q330.94 24.70 330.41 25.44L330.41 25.44Q330.17 25.68 329.99 25.74Q329.81 25.80 329.47 25.63L329.47 25.63Q329.09 25.44 329.10 25.19Q329.11 24.94 329.26 24.72L329.26 24.72Q329.81 23.93 330.42 23.27Q331.03 22.61 331.74 22.22Q332.45 21.84 333.26 21.84L333.26 21.84Q333.98 21.84 334.38 22.08Q334.78 22.32 334.93 22.73Q335.09 23.14 335.06 23.66Q335.04 24.19 334.92 24.74L334.92 24.74L334.37 26.45Q335.06 25.20 335.75 24.32Q336.43 23.45 337.04 22.88Q337.66 22.32 338.20 22.07Q338.74 21.82 339.22 21.82L339.22 21.82Q339.53 21.82 339.68 21.96Q339.84 22.10 339.82 22.56L339.82 22.56Q339.82 23.28 339.91 23.72Q340.01 24.17 340.21 24.37Q340.42 24.58 340.73 24.58L340.73 24.58Q341.30 24.58 342.01 24.26Q342.72 23.95 343.92 23.21L343.92 23.21Q344.11 23.09 344.33 23.17Q344.54 23.26 344.66 23.47Q344.78 23.69 344.78 23.94Q344.78 24.19 344.57 24.31L344.57 24.31Q343.44 25.13 342.48 25.52Q341.52 25.92 340.61 25.92L340.61 25.92Q340.08 25.92 339.61 25.70Q339.14 25.49 338.84 24.96Q338.54 24.43 338.54 23.50L338.54 23.50Q337.99 23.71 337.30 24.35Q336.60 24.98 335.84 25.99Q335.09 27 334.31 28.38Q333.53 29.76 332.78 31.44L332.78 31.44L331.92 34.10Q331.85 34.37 331.64 34.50Q331.44 34.63 330.98 34.63ZM344.21 34.63L344.21 34.63Q343.87 34.63 343.61 34.49Q343.34 34.34 343.46 33.98L343.46 33.98L346.54 24.50Q346.73 23.93 346.63 23.63Q346.54 23.33 346.15 23.33L346.15 23.33Q345.79 23.33 345.42 23.54Q345.05 23.76 344.60 24.23Q344.16 24.70 343.63 25.44L343.63 25.44Q343.39 25.68 343.21 25.74Q343.03 25.80 342.70 25.63L342.70 25.63Q342.31 25.44 342.32 25.19Q342.34 24.94 342.48 24.72L342.48 24.72Q343.03 23.93 343.64 23.27Q344.26 22.61 344.96 22.22Q345.67 21.84 346.49 21.84L346.49 21.84Q347.18 21.84 347.58 22.07Q347.98 22.30 348.14 22.73Q348.31 23.16 348.29 23.69Q348.26 24.22 348.14 24.79L348.14 24.79L347.57 26.45Q348.34 25.25 349.12 24.37Q349.90 23.50 350.68 22.92Q351.46 22.34 352.20 22.08Q352.94 21.82 353.66 21.82L353.66 21.82Q354.82 21.82 355.42 22.38Q356.02 22.94 356.06 23.99Q356.11 25.03 355.63 26.45L355.63 26.45L353.14 34.10Q353.04 34.37 352.84 34.50Q352.63 34.63 352.18 34.63L352.18 34.63Q351.86 34.63 351.59 34.49Q351.31 34.34 351.46 33.98L351.46 33.98L354.07 26.04Q354.36 25.22 354.38 24.64Q354.41 24.05 354.12 23.71Q353.83 23.38 353.11 23.38L353.11 23.38Q352.37 23.38 351.49 23.89Q350.62 24.41 349.68 25.44Q348.74 26.47 347.80 28.01Q346.85 29.54 345.98 31.56L345.98 31.56L345.14 34.10Q345.07 34.37 344.87 34.50Q344.66 34.63 344.21 34.63ZM361.75 34.63L361.75 34.63Q360.96 34.63 360.55 34.32Q360.14 34.01 360.02 33.48Q359.90 32.95 360.01 32.30Q360.12 31.66 360.36 30.96L360.36 30.96L361.99 26.04Q362.28 25.22 362.32 24.64Q362.35 24.05 362.06 23.71Q361.78 23.38 361.06 23.38L361.06 23.38Q360.34 23.38 359.44 23.92Q358.54 24.46 357.59 25.52Q356.64 26.59 355.69 28.18Q354.74 29.76 353.86 31.80L353.86 31.80L353.09 31.80Q353.95 29.35 354.97 27.49Q355.99 25.63 357.13 24.36Q358.27 23.09 359.41 22.45Q360.55 21.82 361.63 21.82L361.63 21.82Q362.78 21.82 363.37 22.39Q363.96 22.97 364.02 24Q364.08 25.03 363.60 26.45L363.60 26.45L361.80 31.68Q361.63 32.21 361.61 32.53Q361.58 32.86 361.70 33.01Q361.82 33.17 362.06 33.17L362.06 33.17Q362.40 33.17 362.75 32.94Q363.10 32.71 363.42 32.38Q363.74 32.04 364.03 31.66L364.03 31.66Q364.20 31.44 364.37 31.40Q364.54 31.37 364.80 31.56L364.80 31.56Q365.14 31.75 365.17 31.96Q365.21 32.16 365.09 32.38L365.09 32.38Q364.85 32.76 364.37 33.31Q363.89 33.86 363.22 34.25Q362.54 34.63 361.75 34.63ZM369.98 34.68L369.98 34.68Q369.10 34.68 368.44 34.24Q367.78 33.79 367.42 32.96Q367.06 32.14 367.06 31.03L367.06 31.03Q367.06 29.93 367.38 28.68Q367.70 27.43 368.36 26.21Q369.02 24.98 369.98 24Q370.94 23.02 372.18 22.42Q373.42 21.82 374.98 21.82L374.98 21.82Q375.72 21.82 376.51 22.03Q377.30 22.25 378.00 22.66L378.00 22.66L378.07 22.42Q378.22 22.10 378.41 22.01Q378.60 21.91 378.96 21.91L378.96 21.91Q379.54 21.91 379.70 22.12Q379.87 22.32 379.73 22.70L379.73 22.70L376.73 31.80Q376.58 32.26 376.56 32.56Q376.54 32.86 376.66 33.01Q376.78 33.17 377.02 33.17L377.02 33.17Q377.35 33.17 377.69 32.95Q378.02 32.74 378.35 32.40Q378.67 32.06 378.96 31.68L378.96 31.68Q379.13 31.46 379.30 31.43Q379.46 31.39 379.75 31.56L379.75 31.56Q380.06 31.78 380.10 31.97Q380.14 32.16 380.02 32.40L380.02 32.40Q379.78 32.78 379.30 33.32Q378.82 33.86 378.16 34.25Q377.50 34.63 376.70 34.63L376.70 34.63Q376.01 34.63 375.61 34.37Q375.22 34.10 375.07 33.66Q374.93 33.22 374.98 32.66Q375.02 32.11 375.17 31.54L375.17 31.54Q375.26 31.25 375.35 30.97Q375.43 30.70 375.53 30.38L375.53 30.38Q374.52 31.90 373.55 32.86Q372.58 33.82 371.68 34.25Q370.78 34.68 369.98 34.68ZM368.83 30.77L368.83 30.77Q368.83 31.49 369.02 32.02Q369.22 32.54 369.59 32.83Q369.96 33.12 370.46 33.12L370.46 33.12Q371.33 33.12 372.38 32.32Q373.44 31.51 374.58 29.94Q375.72 28.37 376.90 26.06L376.90 26.06L377.57 24.02Q376.75 23.62 376.07 23.48Q375.38 23.35 374.78 23.35L374.78 23.35Q373.63 23.35 372.68 23.84Q371.74 24.34 371.03 25.15Q370.32 25.97 369.83 26.96Q369.34 27.96 369.08 28.96Q368.83 29.95 368.83 30.77ZM383.93 34.63L383.93 34.63Q382.70 34.63 382.33 33.68Q381.96 32.74 382.54 30.91L382.54 30.91L389.23 10.54Q389.35 10.15 389.54 10.03Q389.74 9.91 390.12 9.91L390.12 9.91Q390.70 9.91 390.88 10.10Q391.06 10.30 390.91 10.68L390.91 10.68L384.00 31.70Q383.78 32.40 383.86 32.78Q383.93 33.17 384.31 33.17L384.31 33.17Q384.65 33.17 384.97 32.95Q385.30 32.74 385.62 32.39Q385.94 32.04 386.23 31.66L386.23 31.66Q386.40 31.44 386.58 31.40Q386.76 31.37 387.00 31.56L387.00 31.56Q387.34 31.75 387.37 31.96Q387.41 32.16 387.29 32.38L387.29 32.38Q386.93 33 386.40 33.52Q385.87 34.03 385.26 34.33Q384.65 34.63 383.93 34.63Z"/></svg>