<svg xmlns="http://www.w3.org/2000/svg" xmlns:xlink="http://www.w3.org/1999/xlink" width="190.05599999999998" height="37.2"><path fill="black" d="M0.65 26.40L0.65 24.31L1.25 24.31Q2.21 24.31 2.21 23.42L2.21 23.42L2.21 13.85Q2.21 13.39 1.98 13.18Q1.75 12.96 1.25 12.96L1.25 12.96L0.65 12.96L0.65 10.87L9 10.87Q11.52 10.87 12.95 12.12Q14.38 13.37 14.38 15.74L14.38 15.74Q14.38 18.10 12.92 19.44Q11.47 20.78 8.98 20.78L8.98 20.78L5.28 20.78L5.28 23.42Q5.28 24.31 6.22 24.31L6.22 24.31L6.89 24.31L6.89 26.40L0.65 26.40ZM5.28 18.70L8.57 18.70Q9.94 18.70 10.61 17.96Q11.28 17.23 11.28 15.74L11.28 15.74Q11.28 14.21 10.63 13.58Q9.98 12.96 8.57 12.96L8.57 12.96L5.28 12.96L5.28 18.70ZM15.67 26.40L15.67 24.31L16.30 24.31Q16.80 24.31 17.02 24.08Q17.23 23.86 17.23 23.38L17.23 23.38L17.23 17.86Q17.23 17.40 17.04 17.18Q16.85 16.97 16.37 16.97L16.37 16.97L15.67 16.97L15.67 14.88L19.78 14.88L20.09 16.15Q20.90 14.88 23.02 14.88L23.02 14.88L24.26 14.88L24.26 16.97L22.63 16.97Q21.43 16.97 20.90 17.52Q20.38 18.07 20.38 19.20L20.38 19.20L20.38 23.42Q20.38 23.88 20.58 24.10Q20.78 24.31 21.26 24.31L21.26 24.31L21.89 24.31L21.89 26.40L15.67 26.40ZM26.52 13.15L26.52 10.61L29.83 10.61L29.83 13.15L26.52 13.15ZM25.08 26.40L25.08 24.31L25.70 24.31Q26.21 24.31 26.42 24.08Q26.64 23.86 26.64 23.38L26.64 23.38L26.64 17.98Q26.64 17.45 26.46 17.21Q26.28 16.97 25.75 16.97L25.75 16.97L25.08 16.97L25.08 14.88L29.78 14.88L29.78 23.42Q29.78 23.88 29.99 24.10Q30.19 24.31 30.67 24.31L30.67 24.31L31.30 24.31L31.30 26.40L25.08 26.40ZM37.13 26.74Q34.73 26.74 33.36 25.22Q31.99 23.71 31.99 20.88L31.99 20.88Q31.99 17.83 33.35 16.18Q34.70 14.52 37.25 14.52L37.25 14.52Q38.57 14.52 39.38 14.86Q40.20 15.19 40.90 16.01L40.90 16.01L40.90 13.63Q40.90 13.10 40.72 12.86Q40.54 12.62 40.01 12.62L40.01 12.62L39.58 12.62L39.58 10.51L43.99 10.51L43.99 23.50Q43.99 24.02 44.17 24.22Q44.35 24.41 44.81 24.41L44.81 24.41L45.19 24.41L45.19 26.40L41.59 26.40L41.40 24.79Q40.63 25.80 39.62 26.27Q38.62 26.74 37.13 26.74L37.13 26.74ZM37.90 24.84Q39.24 24.84 40.01 23.81Q40.78 22.78 40.78 21.22L40.78 21.22L40.78 20.04Q40.78 18.38 40.06 17.45Q39.34 16.51 37.97 16.51L37.97 16.51Q36.46 16.51 35.77 17.58Q35.09 18.65 35.09 20.83L35.09 20.83Q35.09 22.94 35.75 23.89Q36.41 24.84 37.90 24.84L37.90 24.84ZM47.45 13.15L47.45 10.61L50.76 10.61L50.76 13.15L47.45 13.15ZM46.01 26.40L46.01 24.31L46.63 24.31Q47.14 24.31 47.35 24.08Q47.57 23.86 47.57 23.38L47.57 23.38L47.57 17.98Q47.57 17.45 47.39 17.21Q47.21 16.97 46.68 16.97L46.68 16.97L46.01 16.97L46.01 14.88L50.71 14.88L50.71 23.42Q50.71 23.88 50.92 24.10Q51.12 24.31 51.60 24.31L51.60 24.31L52.22 24.31L52.22 26.40L46.01 26.40ZM67.13 26.76Q63.62 26.76 61.32 24.89L61.32 24.89L61.32 22.44L64.46 22.44L64.46 23.98Q65.59 24.62 67.22 24.62L67.22 24.62Q68.64 24.62 69.29 23.74Q69.94 22.85 69.94 21.14L69.94 21.14Q69.94 19.49 69.14 18.78Q68.35 18.07 66.67 18.07L66.67 18.07L61.85 18.07L61.85 16.58L62.33 10.87L72.55 10.87L72.55 12.96L65.23 12.96L64.97 15.91L67.06 15.91Q73.03 15.91 73.03 21.14L73.03 21.14Q73.03 23.83 71.57 25.30Q70.10 26.76 67.13 26.76L67.13 26.76ZM81.41 26.76Q77.93 26.76 76.25 24.73Q74.57 22.70 74.57 18.62L74.57 18.62Q74.57 14.57 76.25 12.54Q77.93 10.51 81.41 10.51L81.41 10.51Q84.91 10.51 86.59 12.54Q88.27 14.57 88.27 18.62L88.27 18.62Q88.27 22.70 86.59 24.73Q84.91 26.76 81.41 26.76L81.41 26.76ZM81.41 24.62Q83.23 24.62 84.19 23.22Q85.15 21.82 85.15 18.62L85.15 18.62Q85.15 15.46 84.19 14.05Q83.23 12.65 81.41 12.65L81.41 12.65Q79.61 12.65 78.65 14.05Q77.69 15.46 77.69 18.62L77.69 18.62Q77.69 21.82 78.65 23.22Q79.61 24.62 81.41 24.62L81.41 24.62ZM96.41 26.76Q92.93 26.76 91.25 24.73Q89.57 22.70 89.57 18.62L89.57 18.62Q89.57 14.57 91.25 12.54Q92.93 10.51 96.41 10.51L96.41 10.51Q99.91 10.51 101.59 12.54Q103.27 14.57 103.27 18.62L103.27 18.62Q103.27 22.70 101.59 24.73Q99.91 26.76 96.41 26.76L96.41 26.76ZM96.41 24.62Q98.23 24.62 99.19 23.22Q100.15 21.82 100.15 18.62L100.15 18.62Q100.15 15.46 99.19 14.05Q98.23 12.65 96.41 12.65L96.41 12.65Q94.61 12.65 93.65 14.05Q92.69 15.46 92.69 18.62L92.69 18.62Q92.69 21.82 93.65 23.22Q94.61 24.62 96.41 24.62L96.41 24.62ZM112.37 26.40L112.37 24.31L112.99 24.31Q113.50 24.31 113.71 24.08Q113.93 23.86 113.93 23.38L113.93 23.38L113.93 17.86Q113.93 17.40 113.72 17.18Q113.52 16.97 113.04 16.97L113.04 16.97L112.37 16.97L112.37 14.88L115.94 14.88L116.09 16.46Q116.88 15.48 117.95 15.00Q119.02 14.52 120.48 14.52L120.48 14.52Q122.50 14.52 123.43 15.54Q124.37 16.56 124.37 18.53L124.37 18.53L124.37 23.42Q124.37 23.88 124.57 24.10Q124.78 24.31 125.26 24.31L125.26 24.31L125.88 24.31L125.88 26.40L121.22 26.40L121.22 18.55Q121.22 17.50 120.79 17.03Q120.36 16.56 119.38 16.56L119.38 16.56Q118.34 16.56 117.71 17.15Q117.07 17.74 117.07 18.79L117.07 18.79L117.07 23.42Q117.07 23.88 117.28 24.10Q117.48 24.31 117.96 24.31L117.96 24.31L118.58 24.31L118.58 26.40L112.37 26.40ZM132.98 26.76Q130.03 26.76 128.48 25.18Q126.94 23.59 126.94 20.66L126.94 20.66Q126.94 17.71 128.47 16.12Q130.01 14.52 132.98 14.52L132.98 14.52Q135.98 14.52 137.51 16.12Q139.03 17.71 139.03 20.66L139.03 20.66Q139.03 23.59 137.48 25.18Q135.94 26.76 132.98 26.76L132.98 26.76ZM132.98 24.62Q134.50 24.62 135.20 23.66Q135.91 22.70 135.91 20.66L135.91 20.66Q135.91 18.60 135.20 17.63Q134.50 16.66 132.98 16.66L132.98 16.66Q131.47 16.66 130.76 17.63Q130.06 18.60 130.06 20.66L130.06 20.66Q130.06 22.70 130.76 23.66Q131.47 24.62 132.98 24.62L132.98 24.62ZM140.33 26.40L140.33 24.31L140.95 24.31Q141.46 24.31 141.67 24.08Q141.89 23.86 141.89 23.38L141.89 23.38L141.89 17.86Q141.89 17.40 141.70 17.18Q141.50 16.97 141.02 16.97L141.02 16.97L140.33 16.97L140.33 14.88L144.43 14.88L144.74 16.15Q145.56 14.88 147.67 14.88L147.67 14.88L148.92 14.88L148.92 16.97L147.29 16.97Q146.09 16.97 145.56 17.52Q145.03 18.07 145.03 19.20L145.03 19.20L145.03 23.42Q145.03 23.88 145.24 24.10Q145.44 24.31 145.92 24.31L145.92 24.31L146.54 24.31L146.54 26.40L140.33 26.40ZM149.98 26.40L149.98 24.31L150.60 24.31Q151.10 24.31 151.32 24.08Q151.54 23.86 151.54 23.38L151.54 23.38L151.54 17.86Q151.54 17.40 151.33 17.18Q151.13 16.97 150.65 16.97L150.65 16.97L149.98 16.97L149.98 14.88L153.50 14.88L153.67 16.51Q155.02 14.52 157.80 14.52L157.80 14.52Q158.83 14.52 159.60 14.98Q160.37 15.43 160.82 16.25L160.82 16.25Q161.45 15.36 162.32 14.94Q163.20 14.52 164.42 14.52L164.42 14.52Q166.46 14.52 167.36 15.52Q168.26 16.51 168.26 18.50L168.26 18.50L168.26 23.42Q168.26 23.88 168.47 24.10Q168.67 24.31 169.15 24.31L169.15 24.31L169.78 24.31L169.78 26.40L165.12 26.40L165.12 18.50Q165.12 17.45 164.71 17.00Q164.30 16.56 163.39 16.56L163.39 16.56Q162.41 16.56 161.89 17.09Q161.38 17.62 161.38 18.67L161.38 18.67L161.38 23.42Q161.38 23.88 161.58 24.10Q161.78 24.31 162.26 24.31L162.26 24.31L163.01 24.31L163.01 26.40L158.42 26.40L158.42 18.55Q158.42 17.52 158.02 17.04Q157.61 16.56 156.74 16.56L156.74 16.56Q155.71 16.56 155.17 17.11Q154.63 17.66 154.63 18.79L154.63 18.79L154.63 23.42Q154.63 23.88 154.84 24.10Q155.04 24.31 155.52 24.31L155.52 24.31L156.19 24.31L156.19 26.40L149.98 26.40ZM174.62 26.76Q172.63 26.76 171.61 25.92Q170.59 25.08 170.59 23.52L170.59 23.52Q170.59 21.77 171.73 20.92Q172.87 20.06 175.03 19.94L175.03 19.94L177.98 19.75L177.98 18.34Q177.98 17.42 177.58 17.04Q177.17 16.66 176.21 16.66L176.21 16.66Q175.10 16.66 174.34 17.09L174.34 17.09L174.34 18.02L171.62 18.02L171.62 15.82Q173.71 14.52 176.30 14.52L176.30 14.52Q178.82 14.52 179.99 15.62Q181.15 16.73 181.15 18.65L181.15 18.65L181.15 23.42Q181.15 23.88 181.33 24.10Q181.51 24.31 181.92 24.31L181.92 24.31L182.38 24.31L182.38 26.40L179.40 26.40L179.09 24.96Q178.25 25.97 177.26 26.36Q176.28 26.76 174.62 26.76L174.62 26.76ZM175.34 24.72Q176.59 24.72 177.29 24.17Q177.98 23.62 177.98 22.54L177.98 22.54L177.98 21.55L175.32 21.74Q174.31 21.82 173.93 22.16Q173.54 22.51 173.54 23.30L173.54 23.30Q173.54 24.72 175.34 24.72L175.34 24.72ZM183.43 26.40L183.43 24.31L184.06 24.31Q184.56 24.31 184.78 24.08Q184.99 23.86 184.99 23.38L184.99 23.38L184.99 13.61Q184.99 13.08 184.81 12.84Q184.63 12.60 184.10 12.60L184.10 12.60L183.43 12.60L183.43 10.51L188.14 10.51L188.14 23.42Q188.14 23.88 188.34 24.10Q188.54 24.31 189.02 24.31L189.02 24.31L189.65 24.31L189.65 26.40L183.43 26.40Z"/></svg>