<svg xmlns="http://www.w3.org/2000/svg" xmlns:xlink="http://www.w3.org/1999/xlink" width="155.424" height="30.240000000000002"><path fill="black" d="M5.14 24.38L5.14 24.38Q4.78 24.24 4.40 24.07Q4.03 23.90 3.71 23.58Q3.38 23.26 3.14 22.68L3.14 22.68Q2.90 21.98 2.82 21.31Q2.74 20.64 2.76 19.75L2.76 19.75Q2.76 18.50 2.94 17.58Q3.12 16.66 3.50 15.70L3.50 15.70Q3.55 15.62 3.68 15.28Q3.82 14.93 4.00 14.52Q4.18 14.11 4.27 13.90L4.27 13.90Q4.46 13.49 4.86 12.80Q5.26 12.12 5.71 11.47L5.71 11.47Q6.41 10.44 6.86 9.84Q7.32 9.24 7.73 8.83Q8.14 8.42 8.65 8.05Q9.17 7.68 9.98 7.13L9.98 7.13Q10.51 6.74 11.15 6.72Q11.78 6.70 12.34 7.00Q12.89 7.30 13.15 7.87L13.15 7.87Q13.42 8.38 13.42 9.08Q13.42 9.79 13.20 10.57Q12.98 11.35 12.60 12.05Q12.22 12.74 11.71 13.20L11.71 13.20Q11.40 13.49 11.15 13.42Q10.90 13.34 10.56 13.03L10.56 13.03Q10.34 12.62 10.33 12.55Q10.32 12.48 10.42 12.46L10.42 12.46Q10.56 12.29 10.80 11.88Q11.04 11.47 11.28 11.00Q11.52 10.54 11.62 10.25L11.62 10.25Q11.81 9.24 11.88 8.82Q11.95 8.40 11.74 8.18L11.74 8.18Q11.64 8.09 11.46 8.11Q11.28 8.14 10.87 8.35L10.87 8.35Q10.32 8.59 9.43 9.42Q8.54 10.25 7.80 11.26L7.80 11.26Q6.84 12.53 6.19 13.51Q5.54 14.50 5.21 15.53L5.21 15.53Q5.16 15.62 5.05 15.89Q4.94 16.15 4.94 16.15L4.94 16.15Q4.97 16.25 4.87 16.62Q4.78 16.99 4.66 17.26L4.66 17.26Q4.39 18.36 4.34 19.55Q4.30 20.74 4.48 21.65Q4.66 22.56 5.02 22.92L5.02 22.92Q5.33 23.14 5.87 23.06Q6.41 22.99 7.10 22.73Q7.80 22.46 8.52 22.15L8.52 22.15Q9.10 21.91 9.58 21.62Q10.06 21.34 10.30 21.12L10.30 21.12Q10.49 20.98 10.79 20.82Q11.09 20.66 11.30 20.66L11.30 20.66Q11.64 20.54 11.69 20.57Q11.74 20.59 11.74 20.78L11.74 20.78Q11.74 21.12 11.36 21.53Q10.99 21.94 10.42 22.27L10.42 22.27Q10.22 22.46 9.91 22.68Q9.60 22.90 9.26 23.02L9.26 23.02Q8.76 23.40 8.02 23.76Q7.27 24.12 6.52 24.31Q5.76 24.50 5.14 24.38ZM13.90 22.18L13.90 22.18Q13.80 21.98 13.66 21.88Q13.51 21.77 13.51 21.67L13.51 21.67Q13.51 21.58 13.50 21.47Q13.49 21.36 13.39 21.26L13.39 21.26Q13.27 21.12 13.42 20.60Q13.56 20.09 13.90 19.33Q14.23 18.58 14.69 17.74L14.69 17.74Q14.88 17.54 15.07 17.23Q15.26 16.92 15.36 16.82L15.36 16.82Q15.36 16.73 15.43 16.64Q15.50 16.56 15.60 16.56L15.60 16.56L15.60 16.42Q15.60 16.30 15.83 16.01Q16.06 15.72 16.39 15.37Q16.73 15.02 17.09 14.70Q17.45 14.38 17.69 14.23L17.69 14.23Q18.19 13.90 18.73 13.82Q19.27 13.75 19.66 14.06L19.66 14.06Q19.73 14.14 19.90 14.30Q20.06 14.47 20.29 14.68Q20.52 14.88 20.76 15.10L20.76 15.10L21.65 15.89L21.22 17.09Q20.90 18.05 21.06 18.77Q21.22 19.49 21.53 20.02L21.53 20.02Q21.65 20.28 22.02 20.52Q22.39 20.76 22.73 20.81L22.73 20.81Q22.92 20.83 23.09 20.95Q23.26 21.07 23.26 21.34L23.26 21.34Q23.26 21.58 23.16 21.72Q23.06 21.86 22.82 21.91L22.82 21.91Q22.03 22.01 21.35 21.53Q20.66 21.05 20.09 19.94L20.09 19.94Q19.99 19.80 19.84 19.40Q19.68 19.01 19.66 18.89L19.66 18.89Q19.56 19.01 19.30 19.33Q19.03 19.66 18.89 19.80L18.89 19.80Q17.18 21.53 15.95 22.12Q14.71 22.70 13.90 22.18ZM14.76 20.83L14.76 20.83Q14.76 21 15.28 20.82Q15.79 20.64 16.39 20.16L16.39 20.16Q17.21 19.46 18.04 18.62Q18.86 17.78 19.37 17.06L19.37 17.06L19.90 16.20Q19.66 15.65 19.38 15.44Q19.10 15.24 18.91 15.24L18.91 15.24Q18.60 15.24 17.99 15.82Q17.38 16.39 16.68 17.35Q15.98 18.31 15.36 19.46L15.36 19.46Q15.12 19.94 14.94 20.39Q14.76 20.83 14.76 20.83ZM25.73 21.58L25.73 21.58Q25.56 21.43 25.31 20.71Q25.06 19.99 24.83 19.02Q24.60 18.05 24.46 17.23L24.46 17.23Q24.36 16.75 24.25 16.42Q24.14 16.08 24.07 15.86L24.07 15.86Q23.95 15.43 24 15.14Q24.05 14.86 24.34 14.69L24.34 14.69Q24.46 14.62 24.64 14.58Q24.82 14.54 24.91 14.57L24.91 14.57Q25.20 14.66 25.44 15.44Q25.68 16.22 25.87 17.50L25.87 17.50Q25.97 18.24 26.11 18.77Q26.26 19.30 26.26 19.39L26.26 19.39Q26.35 19.58 26.48 19.76Q26.62 19.94 26.81 19.75L26.81 19.75Q26.90 19.66 27.20 19.32Q27.50 18.98 27.79 18.60L27.79 18.60Q28.30 17.93 28.60 17.50Q28.90 17.06 29.28 16.58L29.28 16.58Q29.45 16.34 29.66 16.06Q29.88 15.77 30.11 15.52Q30.34 15.26 30.53 15.22L30.53 15.22Q31.10 15.12 31.15 15.46Q31.20 15.79 30.72 16.46L30.72 16.46Q30.53 16.75 30.42 17.00Q30.31 17.26 30.22 17.35L30.22 17.35Q30.02 17.74 29.62 18.32Q29.21 18.91 28.82 19.40Q28.44 19.90 28.30 20.04L28.30 20.04Q28.20 20.14 27.88 20.40Q27.55 20.66 27.26 21.07L27.26 21.07Q26.69 21.62 26.35 21.74Q26.02 21.86 25.73 21.58ZM35.90 22.20L35.90 22.20Q35.40 22.63 34.74 22.70Q34.08 22.78 33.46 22.50Q32.83 22.22 32.42 21.65L32.42 21.65Q32.02 21.12 31.90 20.44Q31.78 19.75 31.87 18.65L31.87 18.65Q31.94 17.71 32.47 16.76Q33 15.82 33.76 15.07Q34.51 14.33 35.26 14.04L35.26 14.04Q35.62 13.80 35.87 13.81Q36.12 13.82 36.65 13.87L36.65 13.87Q37.20 13.94 37.48 14.09Q37.75 14.23 37.92 14.47L37.92 14.47Q38.28 14.83 38.40 15.18Q38.52 15.53 38.52 15.86L38.52 15.86Q38.42 16.39 37.81 17.15Q37.20 17.90 36.22 18.38L36.22 18.38Q35.69 18.55 35.06 18.53Q34.44 18.50 34.03 18.22L34.03 18.22Q33.58 18.02 33.43 18.28Q33.29 18.53 33.17 19.49L33.17 19.49Q33.07 20.40 33.31 20.82Q33.55 21.24 33.96 21.31L33.96 21.31Q34.44 21.41 34.72 21.44Q34.99 21.48 35.40 21.24L35.40 21.24Q35.78 21 35.88 20.96Q35.98 20.93 36.04 20.87Q36.10 20.81 36.34 20.57L36.34 20.57Q36.50 20.40 36.60 20.32Q36.70 20.23 36.82 20.23L36.82 20.23Q36.94 20.23 37.03 20.34Q37.13 20.45 37.22 20.50L37.22 20.50Q37.46 20.50 37.33 20.78Q37.20 21.07 36.82 21.47Q36.43 21.86 35.90 22.20ZM35.88 17.11L35.88 17.11Q36.14 16.99 36.43 16.76Q36.72 16.54 36.92 16.26Q37.13 15.98 37.13 15.79L37.13 15.79Q37.13 15.46 36.82 15.23Q36.50 15.00 35.88 15.17L35.88 15.17Q35.62 15.24 35.28 15.52Q34.94 15.79 34.64 16.13Q34.34 16.46 34.16 16.73Q33.98 16.99 34.03 17.04L34.03 17.04Q34.10 17.16 34.44 17.22Q34.78 17.28 35.20 17.26Q35.62 17.23 35.88 17.11ZM39.65 22.18L39.65 22.18Q39.55 21.98 39.41 21.88Q39.26 21.77 39.26 21.67L39.26 21.67Q39.26 21.58 39.25 21.47Q39.24 21.36 39.14 21.26L39.14 21.26Q39.02 21.12 39.17 20.60Q39.31 20.09 39.65 19.33Q39.98 18.58 40.44 17.74L40.44 17.74Q40.63 17.54 40.82 17.23Q41.02 16.92 41.11 16.82L41.11 16.82Q41.11 16.73 41.18 16.64Q41.26 16.56 41.35 16.56L41.35 16.56L41.35 16.42Q41.35 16.30 41.58 16.01Q41.81 15.72 42.14 15.37Q42.48 15.02 42.84 14.70Q43.20 14.38 43.44 14.23L43.44 14.23Q43.94 13.90 44.48 13.82Q45.02 13.75 45.41 14.06L45.41 14.06Q45.48 14.14 45.65 14.30Q45.82 14.47 46.04 14.68Q46.27 14.88 46.51 15.10L46.51 15.10L47.40 15.89L46.97 17.09Q46.66 18.05 46.81 18.77Q46.97 19.49 47.28 20.02L47.28 20.02Q47.40 20.28 47.77 20.52Q48.14 20.76 48.48 20.81L48.48 20.81Q48.67 20.83 48.84 20.95Q49.01 21.07 49.01 21.34L49.01 21.34Q49.01 21.58 48.91 21.72Q48.82 21.86 48.58 21.91L48.58 21.91Q47.78 22.01 47.10 21.53Q46.42 21.05 45.84 19.94L45.84 19.94Q45.74 19.80 45.59 19.40Q45.43 19.01 45.41 18.89L45.41 18.89Q45.31 19.01 45.05 19.33Q44.78 19.66 44.64 19.80L44.64 19.80Q42.94 21.53 41.70 22.12Q40.46 22.70 39.65 22.18ZM40.51 20.83L40.51 20.83Q40.51 21 41.03 20.82Q41.54 20.64 42.14 20.16L42.14 20.16Q42.96 19.46 43.79 18.62Q44.62 17.78 45.12 17.06L45.12 17.06L45.65 16.20Q45.41 15.65 45.13 15.44Q44.86 15.24 44.66 15.24L44.66 15.24Q44.35 15.24 43.74 15.82Q43.13 16.39 42.43 17.35Q41.74 18.31 41.11 19.46L41.11 19.46Q40.87 19.94 40.69 20.39Q40.51 20.83 40.51 20.83ZM51.86 22.87L51.86 22.87Q51.60 22.82 51.32 22.60Q51.05 22.37 50.84 22.07Q50.64 21.77 50.57 21.53L50.57 21.53Q50.57 21.48 50.51 21.41Q50.45 21.34 50.45 21.34L50.45 21.34Q50.35 21.26 50.34 20.70Q50.33 20.14 50.40 19.44Q50.47 18.74 50.57 18.34L50.57 18.34Q50.69 17.95 50.93 17.29Q51.17 16.63 51.34 16.10L51.34 16.10L51.98 14.71L51.02 14.45Q50.86 14.40 50.75 14.26Q50.64 14.11 50.64 14.02L50.64 14.02Q50.64 13.82 50.86 13.55Q51.07 13.27 51.17 13.27L51.17 13.27Q51.29 13.30 51.61 13.30Q51.94 13.30 52.25 13.27Q52.56 13.25 52.63 13.22L52.63 13.22Q52.73 13.18 52.82 13.09Q52.92 13.01 52.97 12.84L52.97 12.84Q53.09 12.58 53.18 12.35Q53.28 12.12 53.45 11.83L53.45 11.83Q53.62 11.52 53.72 11.30Q53.83 11.09 54.07 10.70L54.07 10.70Q54.19 10.54 54.34 10.30Q54.48 10.06 54.70 9.89L54.70 9.89Q54.91 9.70 55.14 9.71Q55.37 9.72 55.73 10.03L55.73 10.03Q55.92 10.27 55.94 10.39Q55.97 10.51 55.75 10.85L55.75 10.85Q55.56 11.26 55.31 11.66Q55.06 12.07 54.84 12.48L54.84 12.48Q54.46 13.01 54.70 13.08Q54.94 13.15 56.04 12.98L56.04 12.98Q56.74 12.86 57.05 13.04Q57.36 13.22 57.41 13.63L57.41 13.63Q57.48 14.21 57.29 14.33Q57.10 14.45 56.18 14.45L56.18 14.45Q55.61 14.54 55.20 14.56Q54.79 14.57 54.60 14.57L54.60 14.57Q54.29 14.59 54.19 14.59Q54.10 14.59 53.90 14.64L53.90 14.64Q53.71 14.69 53.63 14.80Q53.54 14.90 53.45 15.10L53.45 15.10Q53.35 15.19 53.16 15.60Q52.97 16.01 52.68 16.49L52.68 16.49Q52.34 17.50 52.10 18.49Q51.86 19.49 51.72 20.42L51.72 20.42Q51.62 21.02 51.74 21.25Q51.86 21.48 52.37 21.53L52.37 21.53Q52.63 21.55 53.22 21.52Q53.81 21.48 54.14 21.38L54.14 21.38Q54.41 21.26 54.70 21.13Q54.98 21 55.22 20.86L55.22 20.86Q55.44 20.74 55.66 20.60Q55.87 20.47 55.87 20.47L55.87 20.47Q55.99 20.28 56.14 20.35Q56.28 20.42 56.38 20.71L56.38 20.71Q56.38 21 56.26 21.31Q56.14 21.62 55.37 22.06L55.37 22.06Q54.29 22.73 53.39 22.86Q52.49 22.99 51.86 22.87ZM68.93 22.87L68.93 22.87Q68.76 22.66 68.76 22.37Q68.76 22.08 68.98 21.19L68.98 21.19Q69.10 20.57 69.26 19.84Q69.43 19.10 69.53 18.67L69.53 18.67Q69.72 18.22 69.83 17.83Q69.94 17.45 69.94 17.45L69.94 17.45Q69.94 17.45 69.62 17.47Q69.31 17.50 68.88 17.69L68.88 17.69Q67.68 17.98 67.02 17.86Q66.36 17.74 65.98 17.09L65.98 17.09Q65.86 16.97 65.77 16.67Q65.69 16.37 65.69 16.08Q65.69 15.79 65.81 15.67L65.81 15.67Q65.95 15.36 66.11 15.05Q66.26 14.74 66.37 14.50Q66.48 14.26 66.48 14.21L66.48 14.21Q66.48 14.14 66.54 14.05Q66.60 13.97 66.60 13.87L66.60 13.87Q66.70 13.66 67.07 13.07Q67.44 12.48 67.91 11.78Q68.38 11.09 68.80 10.51Q69.22 9.94 69.41 9.77L69.41 9.77Q69.60 9.67 69.82 9.61Q70.03 9.55 70.10 9.65L70.10 9.65Q70.18 9.77 70.25 10.01Q70.32 10.25 70.36 10.44Q70.39 10.63 70.32 10.63L70.32 10.63Q70.32 10.63 70.26 10.64Q70.20 10.66 70.20 10.75L70.20 10.75Q70.20 10.85 69.96 11.16Q69.72 11.47 69.43 11.81L69.43 11.81Q69.10 12.26 68.81 12.68Q68.52 13.10 68.26 13.51Q67.99 13.92 67.74 14.33Q67.49 14.74 67.25 15.17L67.25 15.17Q66.98 15.98 66.95 16.20Q66.91 16.42 67.01 16.51L67.01 16.51Q67.15 16.58 67.62 16.55Q68.09 16.51 68.93 16.27L68.93 16.27Q69.38 16.18 69.78 16.09Q70.18 16.01 70.34 15.91L70.34 15.91Q70.54 15.91 70.69 15.84Q70.85 15.77 70.85 15.67L70.85 15.67Q70.85 15.58 71.00 15.26Q71.16 14.95 71.26 14.69L71.26 14.69Q71.45 14.33 71.72 13.72Q72 13.10 72.29 12.65L72.29 12.65Q72.89 11.30 73.04 10.91Q73.20 10.51 73.30 10.51L73.30 10.51Q73.39 10.51 73.56 10.60Q73.73 10.68 73.82 10.87L73.82 10.87Q73.99 11.04 74.04 11.20Q74.09 11.35 73.90 11.69L73.90 11.69Q73.85 11.98 73.76 12.18Q73.68 12.38 73.52 12.67Q73.37 12.96 73.08 13.51L73.08 13.51Q72.79 14.09 72.42 14.88Q72.05 15.67 71.69 16.51Q71.33 17.35 71.03 18.08Q70.73 18.82 70.58 19.25L70.58 19.25Q70.25 20.21 70.08 20.75Q69.91 21.29 69.90 21.59Q69.89 21.89 70.01 22.13L70.01 22.13Q70.06 22.56 69.82 22.86Q69.58 23.16 69.30 23.20Q69.02 23.23 68.93 22.87ZM78.84 22.54L78.84 22.54Q78.67 22.54 78.32 22.38Q77.98 22.22 77.59 22.00Q77.21 21.77 76.97 21.55L76.97 21.55Q76.44 21.05 76.08 20.33Q75.72 19.61 75.58 18.78Q75.43 17.95 75.55 17.18L75.55 17.18Q75.82 15.65 76.70 14.15Q77.59 12.65 78.74 11.66L78.74 11.66Q79.37 11.11 79.87 10.81Q80.38 10.51 81.10 10.34L81.10 10.34Q81.36 10.27 81.67 10.26Q81.98 10.25 82.15 10.25L82.15 10.25Q82.63 10.25 83.11 10.44Q83.59 10.63 83.93 10.91Q84.26 11.18 84.26 11.42L84.26 11.42Q84.26 11.59 84.24 11.68Q84.22 11.76 84.02 11.66L84.02 11.66L83.78 11.66L84.02 12.36Q84.12 12.55 84.19 12.88Q84.26 13.20 84.26 13.46L84.26 13.46Q84.26 13.68 84.19 14.15Q84.12 14.62 84 15.14Q83.88 15.67 83.76 16.13Q83.64 16.58 83.54 16.80L83.54 16.80Q83.47 16.94 83.46 17.08Q83.45 17.21 83.45 17.30L83.45 17.30Q83.35 17.47 83.15 17.95Q82.94 18.43 82.85 18.62L82.85 18.62Q82.75 18.72 82.69 18.79Q82.63 18.86 82.73 18.96L82.73 18.96Q82.73 19.01 82.61 19.26Q82.49 19.51 82.36 19.73Q82.22 19.94 82.15 19.94L82.15 19.94Q82.15 19.94 82.09 19.96Q82.03 19.97 82.03 20.04L82.03 20.04Q82.03 20.14 81.72 20.53Q81.41 20.93 80.98 21.36L80.98 21.36Q80.74 21.60 80.32 21.88Q79.90 22.15 79.49 22.34Q79.08 22.54 78.84 22.54ZM78.77 21.02L78.77 21.02Q79.03 21.02 79.27 20.94Q79.51 20.86 79.68 20.69L79.68 20.69Q80.11 20.40 80.69 19.74Q81.26 19.08 81.53 18.46L81.53 18.46Q81.79 18.10 81.95 17.70Q82.10 17.30 82.44 16.34L82.44 16.34Q82.63 16.08 82.70 15.70Q82.78 15.31 82.78 15.05L82.78 15.05Q82.78 14.78 82.79 14.33Q82.80 13.87 82.90 13.56L82.90 13.56Q82.90 12.94 82.87 12.73Q82.85 12.53 82.68 12.34L82.68 12.34Q82.58 12.26 82.43 12.19Q82.27 12.12 82.10 12.12L82.10 12.12Q81.94 12.12 81.48 12.30Q81.02 12.48 80.83 12.60L80.83 12.60Q80.66 12.70 80.46 12.62Q80.26 12.55 80.26 12.43L80.26 12.43Q80.26 12.10 79.82 12.37Q79.39 12.65 78.86 13.30L78.86 13.30Q78.43 13.73 78.13 14.17Q77.83 14.62 77.83 14.71L77.83 14.71Q77.83 14.81 77.76 14.95Q77.69 15.10 77.62 15.29L77.62 15.29Q77.50 15.46 77.33 15.84Q77.16 16.22 77.00 16.60Q76.85 16.97 76.80 17.16L76.80 17.16Q76.80 17.26 76.80 17.68Q76.80 18.10 76.80 18.46L76.80 18.46Q76.80 18.86 76.84 19.15Q76.87 19.44 76.94 19.64Q77.02 19.85 77.14 20.09L77.14 20.09Q77.23 20.26 77.44 20.48Q77.64 20.71 77.71 20.81L77.71 20.81Q77.98 21.05 78.14 21.08Q78.31 21.12 78.77 21.02ZM89.64 22.54L89.64 22.54Q89.47 22.54 89.12 22.38Q88.78 22.22 88.39 22.00Q88.01 21.77 87.77 21.55L87.77 21.55Q87.24 21.05 86.88 20.33Q86.52 19.61 86.38 18.78Q86.23 17.95 86.35 17.18L86.35 17.18Q86.62 15.65 87.50 14.15Q88.39 12.65 89.54 11.66L89.54 11.66Q90.17 11.11 90.67 10.81Q91.18 10.51 91.90 10.34L91.90 10.34Q92.16 10.27 92.47 10.26Q92.78 10.25 92.95 10.25L92.95 10.25Q93.43 10.25 93.91 10.44Q94.39 10.63 94.73 10.91Q95.06 11.18 95.06 11.42L95.06 11.42Q95.06 11.59 95.04 11.68Q95.02 11.76 94.82 11.66L94.82 11.66L94.58 11.66L94.82 12.36Q94.92 12.55 94.99 12.88Q95.06 13.20 95.06 13.46L95.06 13.46Q95.06 13.68 94.99 14.15Q94.92 14.62 94.80 15.14Q94.68 15.67 94.56 16.13Q94.44 16.58 94.34 16.80L94.34 16.80Q94.27 16.94 94.26 17.08Q94.25 17.21 94.25 17.30L94.25 17.30Q94.15 17.47 93.95 17.95Q93.74 18.43 93.65 18.62L93.65 18.62Q93.55 18.72 93.49 18.79Q93.43 18.86 93.53 18.96L93.53 18.96Q93.53 19.01 93.41 19.26Q93.29 19.51 93.16 19.73Q93.02 19.94 92.95 19.94L92.95 19.94Q92.95 19.94 92.89 19.96Q92.83 19.97 92.83 20.04L92.83 20.04Q92.83 20.14 92.52 20.53Q92.21 20.93 91.78 21.36L91.78 21.36Q91.54 21.60 91.12 21.88Q90.70 22.15 90.29 22.34Q89.88 22.54 89.64 22.54ZM89.57 21.02L89.57 21.02Q89.83 21.02 90.07 20.94Q90.31 20.86 90.48 20.69L90.48 20.69Q90.91 20.40 91.49 19.74Q92.06 19.08 92.33 18.46L92.33 18.46Q92.59 18.10 92.75 17.70Q92.90 17.30 93.24 16.34L93.24 16.34Q93.43 16.08 93.50 15.70Q93.58 15.31 93.58 15.05L93.58 15.05Q93.58 14.78 93.59 14.33Q93.60 13.87 93.70 13.56L93.70 13.56Q93.70 12.94 93.67 12.73Q93.65 12.53 93.48 12.34L93.48 12.34Q93.38 12.26 93.23 12.19Q93.07 12.12 92.90 12.12L92.90 12.12Q92.74 12.12 92.28 12.30Q91.82 12.48 91.63 12.60L91.63 12.60Q91.46 12.70 91.26 12.62Q91.06 12.55 91.06 12.43L91.06 12.43Q91.06 12.10 90.62 12.37Q90.19 12.65 89.66 13.30L89.66 13.30Q89.23 13.73 88.93 14.17Q88.63 14.62 88.63 14.71L88.63 14.71Q88.63 14.81 88.56 14.95Q88.49 15.10 88.42 15.29L88.42 15.29Q88.30 15.46 88.13 15.84Q87.96 16.22 87.80 16.60Q87.65 16.97 87.60 17.16L87.60 17.16Q87.60 17.26 87.60 17.68Q87.60 18.10 87.60 18.46L87.60 18.46Q87.60 18.86 87.64 19.15Q87.67 19.44 87.74 19.64Q87.82 19.85 87.94 20.09L87.94 20.09Q88.03 20.26 88.24 20.48Q88.44 20.71 88.51 20.81L88.51 20.81Q88.78 21.05 88.94 21.08Q89.11 21.12 89.57 21.02ZM110.42 21.94L110.42 21.94Q109.94 21.94 109.63 21.73Q109.32 21.53 109.10 21.05L109.10 21.05Q109.01 20.71 108.95 20.29Q108.89 19.87 108.89 19.50Q108.89 19.13 108.96 19.01L108.96 19.01Q109.06 18.91 109.04 18.66Q109.03 18.41 109.03 18.12L109.03 18.12Q109.01 17.64 108.80 17.58Q108.60 17.52 108.22 17.74L108.22 17.74Q107.78 18 107.09 18.44Q106.39 18.89 105.64 19.42Q104.88 19.94 104.21 20.52L104.21 20.52Q103.68 21.10 103.57 21.40Q103.46 21.70 103.27 21.70L103.27 21.70Q103.08 21.79 102.95 21.71Q102.82 21.62 102.58 21.43L102.58 21.43Q102.41 21.24 102.24 21.06Q102.07 20.88 102.02 20.78L102.02 20.78Q102.02 20.66 102.10 20.28Q102.17 19.90 102.28 19.51Q102.38 19.13 102.43 19.01L102.43 19.01Q102.55 19.01 102.64 18.77Q102.72 18.53 102.91 18.24L102.91 18.24Q102.96 17.95 103.16 17.46Q103.37 16.97 103.54 16.58L103.54 16.58Q103.87 16.01 104.00 15.62Q104.14 15.24 104.18 14.66L104.18 14.66Q104.16 14.57 104.23 14.48Q104.30 14.40 104.40 14.40L104.40 14.40L104.40 14.40L104.40 14.40Q104.59 14.21 104.86 14.29Q105.12 14.38 105.34 14.66L105.34 14.66Q105.77 15.24 105.68 15.85Q105.60 16.46 104.90 17.59L104.90 17.59Q104.74 17.98 104.65 18.18Q104.57 18.38 104.57 18.50L104.57 18.50Q104.57 18.50 104.82 18.34Q105.07 18.17 105.40 17.94Q105.72 17.71 105.91 17.59L105.91 17.59Q106.03 17.47 106.46 17.16Q106.90 16.85 107.39 16.55Q107.88 16.25 108.12 16.20L108.12 16.20Q108.31 16.10 108.53 16.02Q108.74 15.94 108.84 15.94L108.84 15.94Q109.03 15.94 109.33 16.14Q109.63 16.34 109.90 16.62Q110.16 16.90 110.21 17.09L110.21 17.09Q110.21 17.18 110.22 17.28Q110.23 17.38 110.26 17.47L110.26 17.47Q110.35 17.78 110.36 18.31Q110.38 18.84 110.33 19.27Q110.28 19.70 110.16 19.78L110.16 19.78Q110.16 19.78 110.17 19.84Q110.18 19.90 110.28 19.90L110.28 19.90Q110.28 19.99 110.28 20.00Q110.28 20.02 110.28 20.02L110.28 20.02Q110.16 20.02 110.18 20.22Q110.21 20.42 110.34 20.66Q110.47 20.90 110.62 21.05L110.62 21.05Q110.90 21.34 110.86 21.59Q110.81 21.84 110.42 21.94ZM114.38 22.68L114.38 22.68Q114.07 22.68 113.89 22.56Q113.71 22.44 113.45 22.22L113.45 22.22Q112.99 21.74 112.80 21.30Q112.61 20.86 112.68 20.45L112.68 20.45Q112.75 20.26 112.74 20.08Q112.73 19.90 112.73 19.90L112.73 19.90Q112.61 19.78 112.66 19.74Q112.70 19.70 112.75 19.61L112.75 19.61Q112.90 19.61 112.85 19.34L112.85 19.34Q112.80 19.15 113.04 18.50Q113.28 17.86 113.64 17.28L113.64 17.28Q113.78 17.04 114.07 16.64Q114.36 16.25 114.71 15.85Q115.06 15.46 115.34 15.22L115.34 15.22Q115.94 14.71 116.40 14.47Q116.86 14.23 117.38 14.11L117.38 14.11Q117.91 13.99 118.12 13.99Q118.32 13.99 118.68 14.38L118.68 14.38Q119.23 14.62 119.48 14.95Q119.74 15.29 119.81 15.94L119.81 15.94Q119.88 16.66 119.70 17.58Q119.52 18.50 118.56 19.87L118.56 19.87Q117.96 20.74 117.46 21.16Q116.95 21.58 116.26 21.98L116.26 21.98Q115.75 22.32 115.34 22.48Q114.94 22.63 114.38 22.68ZM116.69 20.14L116.69 20.14Q117.26 19.49 117.61 18.91Q117.96 18.34 118.27 17.45L118.27 17.45Q118.37 17.18 118.39 16.79Q118.42 16.39 118.38 16.04Q118.34 15.70 118.20 15.65L118.20 15.65Q117.91 15.48 117.50 15.54Q117.10 15.60 116.62 16.01L116.62 16.01Q115.87 16.63 115.32 17.56Q114.77 18.48 114.24 19.66L114.24 19.66Q113.88 20.52 114.08 21.04Q114.29 21.55 114.97 21.40Q115.66 21.24 116.69 20.14ZM121.66 22.20L121.66 22.20Q121.44 22.03 121.36 21.86Q121.27 21.70 121.34 21.22L121.34 21.22Q121.42 20.54 121.54 20.03Q121.66 19.51 121.82 18.84L121.82 18.84Q121.87 18.55 122.10 17.86Q122.33 17.16 122.66 16.34Q123.00 15.53 123.34 14.80Q123.67 14.06 123.91 13.70L123.91 13.70Q124.10 13.56 124.38 13.58Q124.66 13.61 124.85 13.80L124.85 13.80Q125.11 14.02 124.93 14.56Q124.75 15.10 124.20 16.25L124.20 16.25Q123.91 16.90 123.77 17.22Q123.62 17.54 123.65 17.60Q123.67 17.66 123.86 17.54L123.86 17.54Q124.01 17.28 124.39 16.93Q124.78 16.58 125.21 16.25Q125.64 15.91 126.02 15.65Q126.41 15.38 126.55 15.31L126.55 15.31Q126.74 15.19 127.00 15.11Q127.25 15.02 127.34 14.98L127.34 14.98Q127.90 14.71 128.47 14.78Q129.05 14.86 129.19 15.22L129.19 15.22Q129.22 15.41 129.35 15.50Q129.48 15.60 129.48 15.60L129.48 15.60Q129.58 15.60 129.59 15.67Q129.60 15.74 129.60 15.74L129.60 15.74Q129.60 15.91 129.35 15.95Q129.10 15.98 128.71 16.01L128.71 16.01Q128.40 16.03 128.16 16.13Q127.92 16.22 127.58 16.37L127.58 16.37Q126.67 16.90 125.84 17.40Q125.02 17.90 124.25 18.74L124.25 18.74Q124.08 18.94 123.91 19.20Q123.74 19.46 123.55 19.78L123.55 19.78Q123.43 19.90 123.31 20.30Q123.19 20.71 123.11 21.08Q123.02 21.46 123.02 21.53L123.02 21.53Q123.02 21.53 122.95 21.76Q122.88 21.98 122.71 22.20L122.71 22.20Q122.42 22.58 122.23 22.58Q122.04 22.58 121.66 22.20ZM140.66 22.03L140.66 22.03Q140.54 21.98 140.30 21.79Q140.06 21.60 139.90 21.13Q139.73 20.66 139.73 19.82L139.73 19.82Q139.75 19.10 139.76 18.70Q139.78 18.29 139.58 18.29L139.58 18.29Q139.39 18.29 138.85 18.66Q138.31 19.03 137.62 19.66Q136.92 20.28 136.20 21.05L136.20 21.05Q135.96 21.31 135.73 21.54Q135.50 21.77 135.29 21.83Q135.07 21.89 134.78 21.67L134.78 21.67L134.52 21.46Q134.40 21.34 134.38 21.20Q134.35 21.07 134.40 20.90L134.40 20.90L134.95 19.32Q135.34 18.46 135.48 18.06Q135.62 17.66 135.62 17.56Q135.62 17.45 135.55 17.47L135.55 17.47Q135.36 17.50 134.98 17.70Q134.59 17.90 134.47 18.10L134.47 18.10Q134.38 18.10 134.18 18.31Q133.99 18.53 133.70 18.72L133.70 18.72Q133.54 19.01 133.04 19.46Q132.55 19.92 132.07 20.40L132.07 20.40Q131.76 20.66 131.46 21.05Q131.16 21.43 130.96 21.72Q130.75 22.01 130.68 22.01L130.68 22.01Q130.37 22.01 130.12 21.84Q129.86 21.67 129.74 21.29L129.74 21.29Q129.55 20.88 129.74 20.15Q129.94 19.42 130.18 18.24L130.18 18.24Q130.27 17.88 130.30 17.71Q130.32 17.54 130.38 17.36Q130.44 17.18 130.60 16.80Q130.75 16.42 131.09 15.65L131.09 15.65Q131.26 15.19 131.29 14.96Q131.33 14.74 131.33 14.64L131.33 14.64Q131.33 14.40 131.46 14.23Q131.59 14.06 131.78 13.99Q131.98 13.92 132.14 13.97L132.14 13.97Q132.41 14.02 132.61 14.23Q132.82 14.45 132.84 14.83L132.84 14.83Q132.86 15.12 132.79 15.35Q132.72 15.58 132.65 15.77L132.65 15.77L132.38 16.42Q132.26 16.68 132.07 17.18Q131.88 17.69 131.74 18.11Q131.59 18.53 131.59 18.60L131.59 18.60Q131.62 18.67 131.76 18.56Q131.90 18.46 132.13 18.25Q132.36 18.05 132.60 17.86L132.60 17.86Q133.10 17.38 133.74 16.93Q134.38 16.49 134.95 16.18Q135.53 15.86 135.84 15.77L135.84 15.77Q136.25 15.77 136.40 15.91Q136.56 16.06 136.94 16.44L136.94 16.44Q137.11 16.61 137.14 16.87Q137.16 17.14 137.11 17.38L137.11 17.38Q137.09 17.47 136.97 17.84Q136.85 18.22 136.74 18.55Q136.63 18.89 136.63 18.89L136.63 18.89Q136.63 18.89 136.91 18.65Q137.18 18.41 137.52 18.13Q137.86 17.86 138.02 17.71L138.02 17.71Q138.96 16.99 139.66 16.80Q140.35 16.61 140.78 17.30L140.78 17.30Q141.07 17.57 141.08 17.88Q141.10 18.19 141.10 18.96L141.10 18.96Q141.12 19.27 141.14 19.70Q141.17 20.14 141.20 20.48Q141.24 20.83 141.29 20.90L141.29 20.90Q141.36 21 141.56 21.06Q141.77 21.12 142.10 21.17L142.10 21.17Q142.46 21.22 142.54 21.48Q142.61 21.74 142.22 21.98L142.22 21.98Q141.86 22.20 141.43 22.18Q141.00 22.15 140.66 22.03ZM143.45 22.18L143.45 22.18Q143.35 21.98 143.21 21.88Q143.06 21.77 143.06 21.67L143.06 21.67Q143.06 21.58 143.05 21.47Q143.04 21.36 142.94 21.26L142.94 21.26Q142.82 21.12 142.97 20.60Q143.11 20.09 143.45 19.33Q143.78 18.58 144.24 17.74L144.24 17.74Q144.43 17.54 144.62 17.23Q144.82 16.92 144.91 16.82L144.91 16.82Q144.91 16.73 144.98 16.64Q145.06 16.56 145.15 16.56L145.15 16.56L145.15 16.42Q145.15 16.30 145.38 16.01Q145.61 15.72 145.94 15.37Q146.28 15.02 146.64 14.70Q147 14.38 147.24 14.23L147.24 14.23Q147.74 13.90 148.28 13.82Q148.82 13.75 149.21 14.06L149.21 14.06Q149.28 14.14 149.45 14.30Q149.62 14.47 149.84 14.68Q150.07 14.88 150.31 15.10L150.31 15.10L151.20 15.89L150.77 17.09Q150.46 18.05 150.61 18.77Q150.77 19.49 151.08 20.02L151.08 20.02Q151.20 20.28 151.57 20.52Q151.94 20.76 152.28 20.81L152.28 20.81Q152.47 20.83 152.64 20.95Q152.81 21.07 152.81 21.34L152.81 21.34Q152.81 21.58 152.71 21.72Q152.62 21.86 152.38 21.91L152.38 21.91Q151.58 22.01 150.90 21.53Q150.22 21.05 149.64 19.94L149.64 19.94Q149.54 19.80 149.39 19.40Q149.23 19.01 149.21 18.89L149.21 18.89Q149.11 19.01 148.85 19.33Q148.58 19.66 148.44 19.80L148.44 19.80Q146.74 21.53 145.50 22.12Q144.26 22.70 143.45 22.18ZM144.31 20.83L144.31 20.83Q144.31 21 144.83 20.82Q145.34 20.64 145.94 20.16L145.94 20.16Q146.76 19.46 147.59 18.62Q148.42 17.78 148.92 17.06L148.92 17.06L149.45 16.20Q149.21 15.65 148.93 15.44Q148.66 15.24 148.46 15.24L148.46 15.24Q148.15 15.24 147.54 15.82Q146.93 16.39 146.23 17.35Q145.54 18.31 144.91 19.46L144.91 19.46Q144.67 19.94 144.49 20.39Q144.31 20.83 144.31 20.83ZM154.49 23.04L154.49 23.04Q154.03 23.16 153.76 22.85Q153.48 22.54 153.43 21.89Q153.38 21.24 153.58 20.35L153.58 20.35Q153.70 20.06 153.77 19.79Q153.84 19.51 153.84 19.34L153.84 19.34Q153.89 19.10 154.03 18.64Q154.18 18.17 154.34 17.66Q154.51 17.16 154.67 16.76Q154.82 16.37 154.87 16.27L154.87 16.27Q154.97 16.27 155.04 16.10Q155.11 15.94 155.11 15.77L155.11 15.77Q155.11 15.58 155.20 15.34Q155.28 15.10 155.38 15.00L155.38 15.00Q155.38 14.88 155.44 14.72Q155.50 14.57 155.50 14.47L155.50 14.47Q155.50 14.38 155.56 14.28Q155.62 14.18 155.62 14.09L155.62 14.09Q155.78 13.78 156.06 13.09Q156.34 12.41 156.66 11.57Q156.98 10.73 157.27 9.91Q157.56 9.10 157.74 8.53Q157.92 7.97 157.92 7.85L157.92 7.85Q157.92 7.66 158.02 7.56Q158.11 7.46 158.30 7.46L158.30 7.46Q158.38 7.39 158.48 7.37Q158.59 7.34 158.69 7.34L158.69 7.34Q158.69 7.34 158.78 7.44Q158.88 7.54 159.07 7.73L159.07 7.73Q159.26 7.90 159.30 8.11Q159.34 8.33 159.34 8.62L159.34 8.62Q159.34 8.93 159.26 9.17Q159.19 9.41 158.98 9.86Q158.76 10.32 158.30 11.28L158.30 11.28Q158.11 11.76 157.90 12.18Q157.68 12.60 157.68 12.70L157.68 12.70Q157.68 12.79 157.60 12.98Q157.51 13.18 157.42 13.46L157.42 13.46Q157.32 13.66 157.15 14.03Q156.98 14.40 156.80 14.82Q156.62 15.24 156.50 15.54Q156.38 15.84 156.38 15.89L156.38 15.89Q156.38 15.98 156.37 16.08Q156.36 16.18 156.26 16.27L156.26 16.27Q156.17 16.27 156.16 16.40Q156.14 16.54 156.14 16.54L156.14 16.54Q156.14 16.78 155.76 17.81L155.76 17.81Q155.38 19.13 155.05 20.23Q154.73 21.34 154.73 22.01L154.73 22.01Q154.73 22.58 154.70 22.76Q154.68 22.94 154.49 23.04Z"/></svg>