<svg xmlns="http://www.w3.org/2000/svg" xmlns:xlink="http://www.w3.org/1999/xlink" width="45.504" height="28.8"><path fill="black" d="M7.61 6.65L3.26 6.65L3.26 4.61L9.36 4.61L9.36 4.63L7.61 6.65ZM3.26 21.60L1.15 21.60L1.15 12.31L3.26 14.06L3.26 21.60ZM7.92 14.06L3.26 14.06L1.15 12.31L1.15 12.29L7.92 12.29L7.92 14.06ZM3.26 12.29L1.15 12.29L1.15 4.61L3.26 4.61L3.26 12.29ZM17.09 11.45L11.71 11.45L11.71 9.41L15.98 9.41L17.09 11.42L17.09 11.45ZM14.98 21.60L10.70 21.60L9.60 19.58L9.60 19.56L14.98 19.56L14.98 21.60ZM11.71 19.56L9.60 19.56L9.60 10.51L11.69 9.41L11.71 9.41L11.71 19.56ZM15 21.60L14.98 21.60L14.98 11.45L17.09 11.45L17.09 20.50L15 21.60ZM21.34 21.60L21.31 21.60L19.22 20.50L19.22 3.65L21.34 3.65L21.34 21.60ZM23.83 21.60L21.34 21.60L21.34 19.56L23.83 19.56L23.83 21.60ZM32.64 11.40L32.62 11.40L30.53 9.41L30.53 3.65L32.64 3.65L32.64 11.40ZM32.64 11.45L27.62 11.45L27.62 9.41L31.18 9.41L32.64 11.42L32.64 11.45ZM30.53 21.60L26.59 21.60L25.51 19.58L25.51 19.56L30.53 19.56L30.53 21.60ZM27.62 19.56L25.51 19.56L25.51 10.51L27.60 9.41L27.62 9.41L27.62 19.56ZM30.55 21.60L30.53 21.60L30.53 11.45L32.64 11.45L32.64 20.50L30.55 21.60ZM37.03 21.60L34.92 21.60L34.92 10.66L37.01 9.53L37.03 9.53L37.03 21.60ZM34.94 9.07L34.92 9.07L34.92 6.38L37.03 6.38L37.03 7.97L34.94 9.07ZM39.31 11.45L39.29 11.45L39.29 5.30L41.40 5.30L41.40 9.41L39.31 11.45ZM44.52 11.45L39.31 11.45L41.40 9.41L44.52 9.41L44.52 11.45ZM41.40 21.60L41.38 21.60L39.29 20.50L39.29 11.45L41.40 11.45L41.40 21.60ZM44.95 21.60L41.40 21.60L41.40 19.56L45.50 19.56L45.50 19.58L44.95 21.60Z"/></svg>