<svg xmlns="http://www.w3.org/2000/svg" xmlns:xlink="http://www.w3.org/1999/xlink" width="348.552" height="32.688"><path fill="black" d="M6.94 25.66L0.77 25.66L0.77 24.48L1.25 24.48Q1.75 24.48 2.16 24.37Q2.57 24.26 2.80 23.92Q3.02 23.57 3.02 22.85L3.02 22.85L3.02 11.23Q3.02 10.54 2.78 10.21Q2.54 9.89 2.16 9.79Q1.78 9.70 1.32 9.70L1.32 9.70L0.77 9.70L0.77 8.52L5.74 8.52L14.26 20.98L14.26 11.23Q14.26 10.58 14.03 10.26Q13.80 9.94 13.42 9.82Q13.03 9.70 12.58 9.70L12.58 9.70L12.02 9.70L12.02 8.52L18.19 8.52L18.19 9.70L17.62 9.70Q17.14 9.70 16.75 9.83Q16.37 9.96 16.15 10.30Q15.94 10.63 15.94 11.33L15.94 11.33L15.94 25.66L13.92 25.66L4.68 12.19L4.68 22.85Q4.68 23.57 4.90 23.92Q5.11 24.26 5.50 24.37Q5.88 24.48 6.36 24.48L6.36 24.48L6.94 24.48L6.94 25.66ZM25.82 25.90L25.82 25.90Q23.06 25.90 21.47 24.23Q19.87 22.56 19.87 19.18L19.87 19.18Q19.87 15.82 21.40 14.16Q22.92 12.50 25.90 12.50L25.90 12.50Q28.68 12.50 30.26 14.16Q31.85 15.82 31.85 19.18L31.85 19.18Q31.85 22.56 30.32 24.23Q28.80 25.90 25.82 25.90ZM25.87 24.48L25.87 24.48Q26.90 24.48 27.52 23.88Q28.13 23.28 28.39 22.09Q28.66 20.90 28.66 19.18L28.66 19.18Q28.66 16.56 28.02 15.25Q27.38 13.94 25.85 13.94L25.85 13.94Q24.31 13.94 23.69 15.25Q23.06 16.56 23.06 19.18L23.06 19.18Q23.06 21.79 23.70 23.14Q24.34 24.48 25.87 24.48ZM39.05 25.90L39.05 25.90Q37.20 25.90 36.28 25.06Q35.35 24.22 35.35 22.13L35.35 22.13L35.35 14.33L33.55 14.33L33.55 13.20Q34.20 13.20 34.78 12.95Q35.35 12.70 35.74 12.29L35.74 12.29Q36.12 11.88 36.40 11.28Q36.67 10.68 36.84 9.82L36.84 9.82L38.50 9.82L38.50 12.79L41.59 12.79L41.59 14.33L38.50 14.33L38.50 22.01Q38.50 23.14 38.92 23.66Q39.34 24.19 40.18 24.19L40.18 24.19Q40.61 24.19 41.02 24.14Q41.42 24.10 41.81 24L41.81 24L41.81 25.37Q41.45 25.54 40.69 25.72Q39.94 25.90 39.05 25.90ZM49.46 25.90L49.46 25.90Q46.70 25.90 45.11 24.23Q43.51 22.56 43.51 19.18L43.51 19.18Q43.51 15.82 45.04 14.16Q46.56 12.50 49.54 12.50L49.54 12.50Q52.32 12.50 53.90 14.16Q55.49 15.82 55.49 19.18L55.49 19.18Q55.49 22.56 53.96 24.23Q52.44 25.90 49.46 25.90ZM49.51 24.48L49.51 24.48Q50.54 24.48 51.16 23.88Q51.77 23.28 52.03 22.09Q52.30 20.90 52.30 19.18L52.30 19.18Q52.30 16.56 51.66 15.25Q51.02 13.94 49.49 13.94L49.49 13.94Q47.95 13.94 47.33 15.25Q46.70 16.56 46.70 19.18L46.70 19.18Q46.70 21.79 47.34 23.14Q47.98 24.48 49.51 24.48ZM69.19 25.90L69.19 25.90Q67.75 25.90 66.73 25.62Q65.71 25.34 65.09 24.86Q64.46 24.38 64.18 23.77Q63.89 23.16 63.89 22.54L63.89 22.54Q63.89 21.84 64.19 21.40Q64.49 20.95 64.99 20.75Q65.50 20.54 66.14 20.54L66.14 20.54Q66.19 21.74 66.60 22.66Q67.01 23.57 67.75 24.06Q68.50 24.55 69.50 24.55L69.50 24.55Q70.99 24.55 71.82 23.80Q72.65 23.04 72.65 21.79L72.65 21.79Q72.65 20.95 72.24 20.36Q71.83 19.78 70.98 19.26Q70.13 18.74 68.76 18.19L68.76 18.19Q67.15 17.52 66.16 16.76Q65.16 16.01 64.70 15.04Q64.25 14.06 64.25 12.84L64.25 12.84Q64.25 11.40 64.99 10.39Q65.74 9.38 67.03 8.83Q68.33 8.28 69.94 8.28L69.94 8.28Q71.57 8.28 72.65 8.69Q73.73 9.10 74.28 9.73Q74.83 10.37 74.83 11.09L74.83 11.09Q74.83 11.90 74.22 12.38Q73.61 12.86 72.36 12.86L72.36 12.86Q72.36 12.10 72.08 11.35Q71.81 10.61 71.22 10.13Q70.63 9.65 69.67 9.65L69.67 9.65Q68.47 9.65 67.75 10.27Q67.03 10.90 67.03 12.05L67.03 12.05Q67.03 12.84 67.37 13.44Q67.70 14.04 68.57 14.58Q69.43 15.12 70.94 15.77L70.94 15.77Q72.50 16.39 73.51 17.12Q74.52 17.86 75.01 18.77Q75.50 19.68 75.50 20.88L75.50 20.88Q75.50 22.44 74.74 23.56Q73.97 24.67 72.54 25.28Q71.11 25.90 69.19 25.90ZM83.71 25.90L83.71 25.90Q80.81 25.90 79.27 24.17Q77.74 22.44 77.74 19.30L77.74 19.30Q77.74 15.94 79.24 14.22Q80.74 12.50 83.45 12.50L83.45 12.50Q85.97 12.50 87.40 13.96Q88.82 15.41 88.82 18.26L88.82 18.26L88.82 19.46L80.93 19.46Q80.98 21.94 81.84 23.06Q82.70 24.19 84.36 24.19L84.36 24.19Q85.58 24.19 86.41 23.64Q87.24 23.09 87.65 22.34L87.65 22.34Q87.94 22.42 88.13 22.67Q88.32 22.92 88.32 23.30L88.32 23.30Q88.32 23.86 87.84 24.47Q87.36 25.08 86.34 25.49Q85.32 25.90 83.71 25.90ZM80.98 18L85.63 18Q85.63 16.15 85.14 15.06Q84.65 13.97 83.47 13.97L83.47 13.97Q82.34 13.97 81.70 15.00Q81.05 16.03 80.98 18L80.98 18ZM98.14 25.66L90.53 25.66L90.53 24.48L90.60 24.48Q91.15 24.48 91.57 24.36Q91.99 24.24 92.23 23.87Q92.47 23.50 92.47 22.75L92.47 22.75L92.47 15.60Q92.47 14.88 92.24 14.53Q92.02 14.18 91.61 14.08Q91.20 13.97 90.67 13.97L90.67 13.97L90.60 13.97L90.60 12.79L94.97 12.79L95.45 15.12L95.57 15.12Q95.93 14.33 96.35 13.74Q96.77 13.15 97.39 12.84Q98.02 12.53 99.05 12.53L99.05 12.53Q100.39 12.53 101.02 13.07Q101.64 13.61 101.64 14.50L101.64 14.50Q101.64 15.46 100.96 15.97Q100.27 16.49 98.93 16.49L98.93 16.49Q98.93 15.82 98.83 15.40Q98.74 14.98 98.47 14.76Q98.21 14.54 97.75 14.54L97.75 14.54Q97.15 14.54 96.74 14.99Q96.34 15.43 96.10 16.15Q95.86 16.87 95.74 17.68Q95.62 18.48 95.62 19.18L95.62 19.18L95.62 22.87Q95.62 23.57 95.86 23.92Q96.10 24.26 96.50 24.37Q96.91 24.48 97.39 24.48L97.39 24.48L98.14 24.48L98.14 25.66ZM109.78 25.66L102.46 25.66L102.46 24.48L102.77 24.48Q103.27 24.48 103.67 24.35Q104.06 24.22 104.32 23.86Q104.57 23.50 104.57 22.82L104.57 22.82L104.57 15.58Q104.57 14.90 104.32 14.56Q104.06 14.21 103.66 14.09Q103.25 13.97 102.77 13.97L102.77 13.97L102.55 13.97L102.55 12.79L107.69 12.79L107.69 22.78Q107.69 23.47 107.93 23.84Q108.17 24.22 108.58 24.35Q108.98 24.48 109.49 24.48L109.49 24.48L109.78 24.48L109.78 25.66ZM106.01 10.54L106.01 10.54Q105.26 10.54 104.75 10.14Q104.23 9.74 104.23 8.90L104.23 8.90Q104.23 8.02 104.75 7.64Q105.26 7.27 106.01 7.27L106.01 7.27Q106.75 7.27 107.28 7.64Q107.81 8.02 107.81 8.90L107.81 8.90Q107.81 9.74 107.28 10.14Q106.75 10.54 106.01 10.54ZM118.92 25.66L110.69 25.66L110.69 24.48L111.14 24.48Q111.58 24.48 111.98 24.37Q112.39 24.26 112.67 23.92Q112.94 23.57 112.94 22.85L112.94 22.85L112.94 14.23L110.78 14.23L110.78 12.79L112.94 12.79L112.94 11.78Q112.94 9.60 114.11 8.40Q115.27 7.20 117.58 7.20L117.58 7.20Q119.02 7.20 119.82 7.44Q120.62 7.68 120.94 8.06Q121.25 8.45 121.25 8.93L121.25 8.93Q121.25 9.36 121.01 9.71Q120.77 10.06 120.24 10.25Q119.71 10.44 118.87 10.44L118.87 10.44Q118.87 10.03 118.76 9.56Q118.66 9.10 118.38 8.78Q118.10 8.47 117.58 8.47L117.58 8.47Q116.76 8.47 116.41 9.18Q116.06 9.89 116.06 11.45L116.06 11.45L116.06 12.79L119.40 12.79L119.40 14.23L116.06 14.23L116.06 22.85Q116.06 23.57 116.33 23.92Q116.59 24.26 117.01 24.37Q117.43 24.48 117.86 24.48L117.86 24.48L118.92 24.48L118.92 25.66ZM134.23 25.66L126.60 25.66L126.60 24.48L127.18 24.48Q127.63 24.48 128.00 24.36Q128.38 24.24 128.62 23.93Q128.86 23.62 128.86 23.02L128.86 23.02L128.86 11.14Q128.86 10.56 128.63 10.25Q128.40 9.94 128.04 9.82Q127.68 9.70 127.22 9.70L127.22 9.70L126.60 9.70L126.60 8.52L134.23 8.52L134.23 9.70L133.73 9.70Q133.30 9.70 132.92 9.82Q132.55 9.94 132.34 10.26Q132.12 10.58 132.12 11.21L132.12 11.21L132.12 17.64L136.46 12.72Q136.99 12.14 137.28 11.71Q137.57 11.28 137.71 10.93Q137.86 10.58 137.86 10.32L137.86 10.32Q137.86 9.94 137.56 9.80Q137.26 9.67 136.56 9.67L136.56 9.67L136.56 8.52L142.58 8.52L142.58 9.67Q141.96 9.67 141.42 9.94Q140.88 10.20 140.34 10.69Q139.80 11.18 139.20 11.83L139.20 11.83L135.84 15.50L140.76 22.49Q141.26 23.18 141.68 23.63Q142.10 24.07 142.54 24.28Q142.97 24.48 143.42 24.48L143.42 24.48L143.52 24.48L143.52 25.66L142.51 25.66Q141.29 25.66 140.47 25.54Q139.66 25.42 139.10 25.14Q138.55 24.86 138.11 24.37Q137.66 23.88 137.18 23.14L137.18 23.14L133.63 17.86L132.12 19.25L132.12 22.97Q132.12 23.57 132.35 23.90Q132.58 24.24 132.97 24.36Q133.37 24.48 133.82 24.48L133.82 24.48L134.23 24.48L134.23 25.66ZM150.82 25.66L143.78 25.66L143.78 24.48L143.95 24.48Q144.48 24.48 144.89 24.37Q145.30 24.26 145.55 23.89Q145.80 23.52 145.80 22.80L145.80 22.80L145.80 10.13Q145.80 9.43 145.51 9.11Q145.22 8.78 144.82 8.69Q144.41 8.59 144 8.59L144 8.59L143.74 8.59L143.74 7.42L148.92 7.42L148.92 11.98Q148.92 12.50 148.91 13.03Q148.90 13.56 148.87 13.97Q148.85 14.38 148.82 14.54L148.82 14.54L148.97 14.54Q149.30 13.92 149.78 13.46Q150.26 13.01 150.95 12.76Q151.63 12.50 152.52 12.50L152.52 12.50Q154.56 12.50 155.59 13.61Q156.62 14.71 156.62 17.16L156.62 17.16L156.62 22.78Q156.62 23.52 156.83 23.88Q157.03 24.24 157.42 24.36Q157.80 24.48 158.33 24.48L158.33 24.48L158.40 24.48L158.40 25.66L153.50 25.66L153.50 17.62Q153.50 16.06 153.02 15.20Q152.54 14.35 151.32 14.35L151.32 14.35Q150.46 14.35 149.93 14.86Q149.40 15.36 149.17 16.22Q148.94 17.09 148.94 18.14L148.94 18.14L148.94 22.90Q148.94 23.59 149.17 23.93Q149.40 24.26 149.80 24.37Q150.19 24.48 150.72 24.48L150.72 24.48L150.82 24.48L150.82 25.66ZM166.63 25.66L159.60 25.66L159.60 24.48L159.84 24.48Q160.39 24.48 160.78 24.37Q161.16 24.26 161.39 23.89Q161.62 23.52 161.62 22.80L161.62 22.80L161.62 15.50Q161.62 14.81 161.39 14.47Q161.16 14.14 160.76 14.03Q160.37 13.92 159.84 13.92L159.84 13.92L159.77 13.92L159.77 12.79L164.33 12.79L164.64 14.59L164.76 14.59Q165.38 13.46 166.27 12.98Q167.16 12.50 168.50 12.50L168.50 12.50Q169.32 12.50 170.00 12.72Q170.69 12.94 171.19 13.38Q171.70 13.82 171.98 14.59L171.98 14.59L172.15 14.59Q172.75 13.46 173.71 12.98Q174.67 12.50 175.94 12.50L175.94 12.50Q177.84 12.50 178.88 13.61Q179.93 14.71 179.93 17.16L179.93 17.16L179.93 22.78Q179.93 23.52 180.13 23.88Q180.34 24.24 180.72 24.36Q181.10 24.48 181.63 24.48L181.63 24.48L181.70 24.48L181.70 25.66L176.81 25.66L176.81 17.62Q176.81 16.06 176.33 15.20Q175.85 14.35 174.67 14.35L174.67 14.35Q173.83 14.35 173.32 14.83Q172.80 15.31 172.57 16.10Q172.34 16.90 172.34 17.86L172.34 17.86L172.34 22.78Q172.34 23.52 172.55 23.88Q172.75 24.24 173.14 24.36Q173.52 24.48 174.05 24.48L174.05 24.48L174.12 24.48L174.12 25.66L169.22 25.66L169.22 17.62Q169.22 16.06 168.77 15.20Q168.31 14.35 167.11 14.35L167.11 14.35Q166.22 14.35 165.71 14.88Q165.19 15.41 164.96 16.27Q164.74 17.14 164.74 18.14L164.74 18.14L164.74 22.90Q164.74 23.59 164.98 23.93Q165.22 24.26 165.61 24.37Q166.01 24.48 166.54 24.48L166.54 24.48L166.63 24.48L166.63 25.66ZM189.53 25.90L189.53 25.90Q186.62 25.90 185.09 24.17Q183.55 22.44 183.55 19.30L183.55 19.30Q183.55 15.94 185.05 14.22Q186.55 12.50 189.26 12.50L189.26 12.50Q191.78 12.50 193.21 13.96Q194.64 15.41 194.64 18.26L194.64 18.26L194.64 19.46L186.74 19.46Q186.79 21.94 187.66 23.06Q188.52 24.19 190.18 24.19L190.18 24.19Q191.40 24.19 192.23 23.64Q193.06 23.09 193.46 22.34L193.46 22.34Q193.75 22.42 193.94 22.67Q194.14 22.92 194.14 23.30L194.14 23.30Q194.14 23.86 193.66 24.47Q193.18 25.08 192.16 25.49Q191.14 25.90 189.53 25.90ZM186.79 18L191.45 18Q191.45 16.15 190.96 15.06Q190.46 13.97 189.29 13.97L189.29 13.97Q188.16 13.97 187.51 15.00Q186.86 16.03 186.79 18L186.79 18ZM203.95 25.66L196.34 25.66L196.34 24.48L196.42 24.48Q196.97 24.48 197.39 24.36Q197.81 24.24 198.05 23.87Q198.29 23.50 198.29 22.75L198.29 22.75L198.29 15.60Q198.29 14.88 198.06 14.53Q197.83 14.18 197.42 14.08Q197.02 13.97 196.49 13.97L196.49 13.97L196.42 13.97L196.42 12.79L200.78 12.79L201.26 15.12L201.38 15.12Q201.74 14.33 202.16 13.74Q202.58 13.15 203.21 12.84Q203.83 12.53 204.86 12.53L204.86 12.53Q206.21 12.53 206.83 13.07Q207.46 13.61 207.46 14.50L207.46 14.50Q207.46 15.46 206.77 15.97Q206.09 16.49 204.74 16.49L204.74 16.49Q204.74 15.82 204.65 15.40Q204.55 14.98 204.29 14.76Q204.02 14.54 203.57 14.54L203.57 14.54Q202.97 14.54 202.56 14.99Q202.15 15.43 201.91 16.15Q201.67 16.87 201.55 17.68Q201.43 18.48 201.43 19.18L201.43 19.18L201.43 22.87Q201.43 23.57 201.67 23.92Q201.91 24.26 202.32 24.37Q202.73 24.48 203.21 24.48L203.21 24.48L203.95 24.48L203.95 25.66ZM221.11 25.90L221.11 25.90Q219.43 25.90 218.11 25.01Q216.79 24.12 216.05 22.21Q215.30 20.30 215.30 17.28L215.30 17.28Q215.30 15.41 215.71 13.78Q216.12 12.14 216.91 10.91Q217.70 9.67 218.93 8.98Q220.15 8.28 221.78 8.28L221.78 8.28Q223.25 8.28 224.18 8.65Q225.12 9.02 225.58 9.61Q226.03 10.20 226.03 10.87L226.03 10.87Q226.03 11.62 225.48 12.10Q224.93 12.58 223.70 12.58L223.70 12.58Q223.70 11.76 223.50 11.09Q223.30 10.42 222.86 10.01Q222.43 9.60 221.74 9.60L221.74 9.60Q220.68 9.60 219.96 10.38Q219.24 11.16 218.87 12.64Q218.50 14.11 218.38 16.27L218.38 16.27Q218.81 15.96 219.30 15.72Q219.79 15.48 220.39 15.32Q220.99 15.17 221.69 15.17L221.69 15.17Q223.90 15.17 225.22 16.49Q226.54 17.81 226.54 20.14L226.54 20.14Q226.54 21.84 225.91 23.14Q225.29 24.43 224.08 25.16Q222.86 25.90 221.11 25.90ZM221.21 24.41L221.21 24.41Q221.93 24.41 222.44 24Q222.96 23.59 223.22 22.70Q223.49 21.82 223.49 20.38L223.49 20.38Q223.49 18.34 222.83 17.46Q222.17 16.58 220.99 16.58L220.99 16.58Q220.49 16.58 220.01 16.76Q219.53 16.94 219.11 17.21Q218.69 17.47 218.38 17.76L218.38 17.76Q218.40 21.31 219.17 22.86Q219.94 24.41 221.21 24.41ZM234.34 25.90L234.34 25.90Q232.22 25.90 230.95 24.79Q229.68 23.69 229.10 21.70Q228.53 19.70 228.53 17.04L228.53 17.04Q228.53 14.38 229.10 12.41Q229.68 10.44 230.95 9.36Q232.22 8.28 234.36 8.28L234.36 8.28Q236.35 8.28 237.64 9.36Q238.92 10.44 239.52 12.42Q240.12 14.40 240.12 17.06L240.12 17.06Q240.12 19.73 239.51 21.71Q238.90 23.69 237.62 24.79Q236.35 25.90 234.34 25.90ZM234.34 24.43L234.34 24.43Q235.34 24.43 235.87 23.56Q236.40 22.68 236.63 21.04Q236.86 19.39 236.86 17.06L236.86 17.06Q236.86 14.74 236.63 13.09Q236.40 11.45 235.87 10.60Q235.34 9.74 234.36 9.74L234.36 9.74Q233.35 9.74 232.79 10.60Q232.22 11.45 232.01 13.09Q231.79 14.74 231.79 17.06L231.79 17.06Q231.79 19.39 232.01 21.04Q232.22 22.68 232.79 23.56Q233.35 24.43 234.34 24.43ZM247.85 25.90L247.85 25.90Q245.74 25.90 244.46 24.79Q243.19 23.69 242.62 21.70Q242.04 19.70 242.04 17.04L242.04 17.04Q242.04 14.38 242.62 12.41Q243.19 10.44 244.46 9.36Q245.74 8.28 247.87 8.28L247.87 8.28Q249.86 8.28 251.15 9.36Q252.43 10.44 253.03 12.42Q253.63 14.40 253.63 17.06L253.63 17.06Q253.63 19.73 253.02 21.71Q252.41 23.69 251.14 24.79Q249.86 25.90 247.85 25.90ZM247.85 24.43L247.85 24.43Q248.86 24.43 249.38 23.56Q249.91 22.68 250.14 21.04Q250.37 19.39 250.37 17.06L250.37 17.06Q250.37 14.74 250.14 13.09Q249.91 11.45 249.38 10.60Q248.86 9.74 247.87 9.74L247.87 9.74Q246.86 9.74 246.30 10.60Q245.74 11.45 245.52 13.09Q245.30 14.74 245.30 17.06L245.30 17.06Q245.30 19.39 245.52 21.04Q245.74 22.68 246.30 23.56Q246.86 24.43 247.85 24.43ZM268.42 25.66L261.38 25.66L261.38 24.48L261.55 24.48Q262.10 24.48 262.51 24.37Q262.92 24.26 263.16 23.89Q263.40 23.52 263.40 22.80L263.40 22.80L263.40 15.55Q263.40 14.86 263.17 14.52Q262.94 14.18 262.55 14.08Q262.15 13.97 261.62 13.97L261.62 13.97L261.50 13.97L261.50 12.79L266.11 12.79L266.42 14.59L266.54 14.59Q267.19 13.46 268.07 12.98Q268.94 12.50 270.24 12.50L270.24 12.50Q272.16 12.50 273.19 13.61Q274.22 14.71 274.22 17.16L274.22 17.16L274.22 22.78Q274.22 23.52 274.42 23.88Q274.61 24.24 274.98 24.36Q275.35 24.48 275.88 24.48L275.88 24.48L276 24.48L276 25.66L271.10 25.66L271.10 17.62Q271.10 16.06 270.64 15.20Q270.17 14.35 268.94 14.35L268.94 14.35Q268.06 14.35 267.52 14.88Q266.98 15.41 266.75 16.27Q266.52 17.14 266.52 18.14L266.52 18.14L266.52 22.90Q266.52 23.59 266.75 23.93Q266.98 24.26 267.37 24.37Q267.77 24.48 268.30 24.48L268.30 24.48L268.42 24.48L268.42 25.66ZM283.80 25.90L283.80 25.90Q281.04 25.90 279.44 24.23Q277.85 22.56 277.85 19.18L277.85 19.18Q277.85 15.82 279.37 14.16Q280.90 12.50 283.87 12.50L283.87 12.50Q286.66 12.50 288.24 14.16Q289.82 15.82 289.82 19.18L289.82 19.18Q289.82 22.56 288.30 24.23Q286.78 25.90 283.80 25.90ZM283.85 24.48L283.85 24.48Q284.88 24.48 285.49 23.88Q286.10 23.28 286.37 22.09Q286.63 20.90 286.63 19.18L286.63 19.18Q286.63 16.56 286.00 15.25Q285.36 13.94 283.82 13.94L283.82 13.94Q282.29 13.94 281.66 15.25Q281.04 16.56 281.04 19.18L281.04 19.18Q281.04 21.79 281.68 23.14Q282.31 24.48 283.85 24.48ZM299.26 25.66L291.65 25.66L291.65 24.48L291.72 24.48Q292.27 24.48 292.69 24.36Q293.11 24.24 293.35 23.87Q293.59 23.50 293.59 22.75L293.59 22.75L293.59 15.60Q293.59 14.88 293.36 14.53Q293.14 14.18 292.73 14.08Q292.32 13.97 291.79 13.97L291.79 13.97L291.72 13.97L291.72 12.79L296.09 12.79L296.57 15.12L296.69 15.12Q297.05 14.33 297.47 13.74Q297.89 13.15 298.51 12.84Q299.14 12.53 300.17 12.53L300.17 12.53Q301.51 12.53 302.14 13.07Q302.76 13.61 302.76 14.50L302.76 14.50Q302.76 15.46 302.08 15.97Q301.39 16.49 300.05 16.49L300.05 16.49Q300.05 15.82 299.95 15.40Q299.86 14.98 299.59 14.76Q299.33 14.54 298.87 14.54L298.87 14.54Q298.27 14.54 297.86 14.99Q297.46 15.43 297.22 16.15Q296.98 16.87 296.86 17.68Q296.74 18.48 296.74 19.18L296.74 19.18L296.74 22.87Q296.74 23.57 296.98 23.92Q297.22 24.26 297.62 24.37Q298.03 24.48 298.51 24.48L298.51 24.48L299.26 24.48L299.26 25.66ZM310.70 25.66L303.67 25.66L303.67 24.48L303.91 24.48Q304.46 24.48 304.85 24.37Q305.23 24.26 305.46 23.89Q305.69 23.52 305.69 22.80L305.69 22.80L305.69 15.50Q305.69 14.81 305.46 14.47Q305.23 14.14 304.84 14.03Q304.44 13.92 303.91 13.92L303.91 13.92L303.84 13.92L303.84 12.79L308.40 12.79L308.71 14.59L308.83 14.59Q309.46 13.46 310.34 12.98Q311.23 12.50 312.58 12.50L312.58 12.50Q313.39 12.50 314.08 12.72Q314.76 12.94 315.26 13.38Q315.77 13.82 316.06 14.59L316.06 14.59L316.22 14.59Q316.82 13.46 317.78 12.98Q318.74 12.50 320.02 12.50L320.02 12.50Q321.91 12.50 322.96 13.61Q324.00 14.71 324.00 17.16L324.00 17.16L324.00 22.78Q324.00 23.52 324.20 23.88Q324.41 24.24 324.79 24.36Q325.18 24.48 325.70 24.48L325.70 24.48L325.78 24.48L325.78 25.66L320.88 25.66L320.88 17.62Q320.88 16.06 320.40 15.20Q319.92 14.35 318.74 14.35L318.74 14.35Q317.90 14.35 317.39 14.83Q316.87 15.31 316.64 16.10Q316.42 16.90 316.42 17.86L316.42 17.86L316.42 22.78Q316.42 23.52 316.62 23.88Q316.82 24.24 317.21 24.36Q317.59 24.48 318.12 24.48L318.12 24.48L318.19 24.48L318.19 25.66L313.30 25.66L313.30 17.62Q313.30 16.06 312.84 15.20Q312.38 14.35 311.18 14.35L311.18 14.35Q310.30 14.35 309.78 14.88Q309.26 15.41 309.04 16.27Q308.81 17.14 308.81 18.14L308.81 18.14L308.81 22.90Q308.81 23.59 309.05 23.93Q309.29 24.26 309.68 24.37Q310.08 24.48 310.61 24.48L310.61 24.48L310.70 24.48L310.70 25.66ZM331.30 25.90L331.30 25.90Q330.24 25.90 329.39 25.48Q328.54 25.06 328.04 24.19Q327.55 23.33 327.55 22.01L327.55 22.01Q327.55 20.06 328.90 19.14Q330.24 18.22 332.95 18.12L332.95 18.12L334.94 18.05L334.94 16.68Q334.94 15.82 334.80 15.19Q334.66 14.57 334.25 14.22Q333.84 13.87 333.05 13.87L333.05 13.87Q332.33 13.87 331.92 14.20Q331.51 14.52 331.36 15.10Q331.20 15.67 331.20 16.46L331.20 16.46Q329.88 16.46 329.22 16.10Q328.56 15.74 328.56 14.90L328.56 14.90Q328.56 14.04 329.20 13.51Q329.83 12.98 330.91 12.74Q331.99 12.50 333.26 12.50L333.26 12.50Q335.66 12.50 336.86 13.43Q338.06 14.35 338.06 16.61L338.06 16.61L338.06 22.78Q338.06 23.45 338.21 23.81Q338.35 24.17 338.68 24.32Q339 24.48 339.53 24.48L339.53 24.48L339.60 24.48L339.60 25.66L335.59 25.66L335.14 23.86L334.94 23.86Q334.42 24.50 333.95 24.96Q333.48 25.42 332.87 25.66Q332.26 25.90 331.30 25.90ZM332.33 24.24L332.33 24.24Q333.12 24.24 333.71 23.86Q334.30 23.47 334.62 22.75Q334.94 22.03 334.94 21.07L334.94 21.07L334.94 19.22L333.70 19.30Q332.57 19.34 331.93 19.68Q331.30 20.02 331.02 20.62Q330.74 21.22 330.74 22.10L330.74 22.10Q330.74 22.82 330.92 23.29Q331.10 23.76 331.45 24Q331.80 24.24 332.33 24.24ZM348.19 25.66L340.87 25.66L340.87 24.48L341.16 24.48Q341.66 24.48 342.07 24.35Q342.48 24.22 342.72 23.84Q342.96 23.47 342.96 22.78L342.96 22.78L342.96 10.13Q342.96 9.43 342.67 9.11Q342.38 8.78 341.98 8.69Q341.57 8.59 341.16 8.59L341.16 8.59L340.87 8.59L340.87 7.42L346.08 7.42L346.08 22.78Q346.08 23.47 346.32 23.84Q346.56 24.22 346.98 24.35Q347.40 24.48 347.88 24.48L347.88 24.48L348.19 24.48L348.19 25.66Z"/></svg>