<svg xmlns="http://www.w3.org/2000/svg" xmlns:xlink="http://www.w3.org/1999/xlink" width="328.344" height="46.368"><path fill="black" d="M4.49 34.61L4.49 34.61Q3.84 34.61 3.84 34.15L3.84 34.15L3.84 10.80Q3.84 10.56 4.01 10.44Q4.18 10.32 4.51 10.32L4.51 10.32L9.60 10.32Q12.14 10.32 13.87 10.92Q15.60 11.52 16.49 12.84Q17.38 14.16 17.38 16.32L17.38 16.32Q17.38 18.12 16.74 19.46Q16.10 20.81 14.96 21.74Q13.82 22.68 12.28 23.23Q10.73 23.78 8.90 24.02L8.90 24.02Q7.94 24.14 6.98 24.22Q6.02 24.29 5.14 24.31L5.14 24.31L5.14 34.15Q5.14 34.39 4.99 34.50Q4.85 34.61 4.49 34.61ZM5.14 11.52L5.14 23.14Q5.74 23.11 6.37 23.06Q7.01 23.02 7.66 22.96Q8.30 22.90 8.90 22.82L8.90 22.82Q10.99 22.58 12.59 21.82Q14.18 21.05 15.11 19.69Q16.03 18.34 16.03 16.34L16.03 16.34Q16.03 14.59 15.30 13.55Q14.57 12.50 13.14 12.01Q11.71 11.52 9.60 11.52L9.60 11.52L5.14 11.52ZM17.28 34.68L17.28 34.68Q16.99 34.68 16.85 34.50Q16.70 34.32 16.70 34.10Q16.70 33.89 16.85 33.71Q16.99 33.53 17.28 33.53L17.28 33.53Q18.05 33.53 18.79 33.11Q19.54 32.69 20.24 31.96Q20.95 31.22 21.60 30.20Q22.25 29.18 22.84 27.97Q23.42 26.76 23.93 25.38Q24.43 24 24.84 22.56Q25.25 21.12 25.51 19.64Q25.78 18.17 25.92 16.73Q26.06 15.29 26.06 13.97L26.06 13.97Q26.06 13.70 26.27 13.57Q26.47 13.44 26.74 13.44Q27 13.44 27.20 13.57Q27.41 13.70 27.41 13.97L27.41 13.97Q27.41 15.34 27.23 16.84Q27.05 18.34 26.74 19.90Q26.42 21.46 25.97 22.99Q25.51 24.53 24.94 25.99Q24.36 27.46 23.69 28.75Q23.02 30.05 22.27 31.13Q21.53 32.21 20.70 33.01Q19.87 33.82 19.02 34.25Q18.17 34.68 17.28 34.68ZM24.02 34.68L24.02 34.68Q23.54 34.68 23.16 34.52Q22.78 34.37 22.52 34.08Q22.27 33.79 22.14 33.35Q22.01 32.90 22.01 32.30L22.01 32.30L22.01 14.45Q22.01 12.10 22.67 10.96Q23.33 9.82 24.74 9.82L24.74 9.82Q25.63 9.82 26.23 10.28Q26.83 10.75 27.12 11.66Q27.41 12.58 27.41 13.97L27.41 13.97Q27.41 14.28 27.20 14.42Q27 14.57 26.74 14.57Q26.47 14.57 26.27 14.42Q26.06 14.28 26.06 13.97L26.06 13.97Q26.06 12.96 25.93 12.31Q25.80 11.66 25.50 11.34Q25.20 11.02 24.72 11.02L24.72 11.02Q24.24 11.02 23.92 11.34Q23.59 11.66 23.42 12.42Q23.26 13.18 23.26 14.45L23.26 14.45L23.26 32.02Q23.26 32.50 23.36 32.83Q23.47 33.17 23.70 33.35Q23.93 33.53 24.26 33.53L24.26 33.53Q24.50 33.53 24.76 33.46Q25.01 33.38 25.25 33.20Q25.49 33.02 25.70 32.78L25.70 32.78Q25.85 32.64 26.02 32.65Q26.18 32.66 26.33 32.83L26.33 32.83Q26.47 32.98 26.50 33.13Q26.52 33.29 26.42 33.46L26.42 33.46Q26.16 33.82 25.76 34.10Q25.37 34.39 24.92 34.54Q24.48 34.68 24.02 34.68ZM34.46 34.68L34.46 34.68Q33.14 34.68 32.09 33.98Q31.03 33.29 30.42 31.92Q29.81 30.55 29.81 28.56L29.81 28.56Q29.81 27.36 30.04 26.33Q30.26 25.30 30.72 24.47Q31.18 23.64 31.85 23.05Q32.52 22.46 33.40 22.14Q34.27 21.82 35.33 21.82L35.33 21.82Q36.14 21.82 36.94 22.06Q37.73 22.30 38.52 22.78L38.52 22.78L38.52 22.39Q38.52 22.13 38.68 22.02Q38.83 21.91 39.17 21.91L39.17 21.91Q39.50 21.91 39.65 22.02Q39.79 22.13 39.79 22.37L39.79 22.37L39.79 32.09Q39.79 32.59 39.90 32.92Q40.01 33.24 40.25 33.40Q40.49 33.55 40.85 33.55L40.85 33.55Q41.09 33.55 41.32 33.47Q41.54 33.38 41.77 33.20Q42 33.02 42.26 32.76L42.26 32.76Q42.38 32.62 42.54 32.63Q42.70 32.64 42.84 32.81L42.84 32.81Q43.01 32.95 43.03 33.12Q43.06 33.29 42.96 33.46L42.96 33.46Q42.70 33.82 42.31 34.09Q41.93 34.37 41.50 34.52Q41.06 34.68 40.63 34.68L40.63 34.68Q40.13 34.68 39.76 34.55Q39.38 34.42 39.11 34.14Q38.83 33.86 38.70 33.47Q38.57 33.07 38.54 32.54L38.54 32.54Q38.54 32.45 38.53 32.32Q38.52 32.18 38.52 32.06L38.52 32.06Q37.97 33.14 37.27 33.71Q36.58 34.27 35.84 34.48Q35.11 34.68 34.46 34.68ZM31.15 28.46L31.15 28.46Q31.15 29.95 31.55 31.08Q31.94 32.21 32.72 32.84Q33.50 33.48 34.68 33.48L34.68 33.48Q35.45 33.48 36.18 33.16Q36.91 32.83 37.52 32.05Q38.14 31.27 38.52 29.93L38.52 29.93L38.52 23.98Q37.68 23.40 36.91 23.20Q36.14 22.99 35.35 22.99L35.35 22.99Q34.58 22.99 33.94 23.22Q33.29 23.45 32.77 23.90Q32.26 24.36 31.90 25.02Q31.54 25.68 31.34 26.54Q31.15 27.41 31.15 28.46ZM54.74 36.07L54.67 34.85Q55.01 34.63 55.39 34.38Q55.78 34.13 56.17 33.91Q56.57 33.70 56.96 33.49Q57.36 33.29 57.70 33.12L57.70 33.12Q57.96 33.02 58.14 33.12Q58.32 33.22 58.38 33.41Q58.44 33.60 58.39 33.83Q58.34 34.06 58.08 34.15L58.08 34.15Q57.70 34.37 57.28 34.60Q56.86 34.82 56.41 35.08Q55.97 35.33 55.55 35.58Q55.13 35.83 54.74 36.07L54.74 36.07ZM50.86 46.73L50.86 46.73Q49.90 46.73 49.16 46.32Q48.43 45.91 48.02 45.16Q47.62 44.40 47.62 43.34L47.62 43.34Q47.62 42.38 47.86 41.50Q48.10 40.61 48.58 39.82Q49.06 39.02 49.76 38.27Q50.47 37.51 51.38 36.82L51.38 36.82Q52.01 36.43 52.63 36.04Q53.26 35.64 53.88 35.23L53.88 35.23L53.88 31.97Q53.52 32.76 53.00 33.29Q52.49 33.82 51.91 34.13Q51.34 34.44 50.72 34.57Q50.11 34.70 49.51 34.70L49.51 34.70Q48.36 34.70 47.47 34.24Q46.58 33.77 46.09 32.80Q45.60 31.82 45.60 30.29L45.60 30.29L45.60 22.37Q45.60 22.15 45.74 22.04Q45.89 21.94 46.20 21.94L46.20 21.94Q46.54 21.94 46.69 22.04Q46.85 22.15 46.85 22.37L46.85 22.37L46.85 30.17Q46.85 31.22 47.15 31.98Q47.45 32.74 48.07 33.14Q48.70 33.55 49.68 33.55L49.68 33.55Q50.38 33.55 51.02 33.34Q51.67 33.12 52.22 32.68Q52.78 32.23 53.21 31.51Q53.64 30.79 53.88 29.81L53.88 29.81L53.88 22.37Q53.88 22.13 54.04 22.02Q54.19 21.91 54.53 21.91L54.53 21.91Q54.84 21.91 54.98 22.02Q55.13 22.13 55.13 22.37L55.13 22.37L55.13 40.80Q55.13 42.24 54.84 43.36Q54.55 44.47 54 45.22Q53.45 45.96 52.66 46.34Q51.86 46.73 50.86 46.73ZM51 45.55L51 45.55Q51.65 45.55 52.16 45.26Q52.68 44.98 53.06 44.40Q53.45 43.82 53.66 42.96Q53.88 42.10 53.88 40.94L53.88 40.94L53.88 36.62Q53.30 36.96 52.76 37.31Q52.22 37.66 51.67 37.99L51.67 37.99Q51.02 38.52 50.53 39.11Q50.04 39.70 49.69 40.36Q49.34 41.02 49.15 41.74Q48.96 42.46 48.96 43.27L48.96 43.27Q48.96 43.94 49.20 44.46Q49.44 44.98 49.90 45.26Q50.35 45.55 51 45.55ZM65.26 34.70L65.26 34.70Q64.34 34.70 63.67 34.39Q63 34.08 62.53 33.47Q62.06 32.86 61.84 31.91Q61.61 30.96 61.61 29.71L61.61 29.71L61.61 25.30Q61.61 24.02 61.22 23.54Q60.84 23.06 60.10 23.06L60.10 23.06Q59.57 23.06 59.18 23.34Q58.80 23.62 58.58 24.23Q58.37 24.84 58.30 25.82L58.30 25.82Q58.27 26.04 58.13 26.15Q57.98 26.26 57.70 26.26L57.70 26.26Q57.46 26.26 57.31 26.15Q57.17 26.04 57.17 25.75L57.17 25.75Q57.22 24.48 57.58 23.63Q57.94 22.78 58.60 22.34Q59.26 21.91 60.12 21.91L60.12 21.91Q60.79 21.91 61.30 22.10Q61.80 22.30 62.16 22.70Q62.52 23.11 62.69 23.76Q62.86 24.41 62.86 25.32L62.86 25.32L62.86 29.42Q62.86 30.46 62.99 31.24Q63.12 32.02 63.42 32.53Q63.72 33.05 64.22 33.30Q64.73 33.55 65.47 33.55L65.47 33.55Q66.07 33.55 66.67 33.34Q67.27 33.12 67.76 32.63Q68.26 32.14 68.56 31.33Q68.86 30.53 68.86 29.35L68.86 29.35L69.41 31.46Q69.19 32.26 68.78 32.87Q68.38 33.48 67.84 33.89Q67.30 34.30 66.64 34.50Q65.98 34.70 65.26 34.70ZM72.48 34.73L72.48 34.73Q71.59 34.73 70.92 34.40Q70.25 34.08 69.79 33.46Q69.34 32.83 69.10 31.87Q68.86 30.91 68.86 29.66L68.86 29.66L68.86 22.37Q68.86 22.13 69.01 22.02Q69.17 21.91 69.50 21.91L69.50 21.91Q69.82 21.91 69.97 22.02Q70.13 22.13 70.13 22.37L70.13 22.37L70.13 29.42Q70.13 30.46 70.24 31.24Q70.34 32.02 70.63 32.52Q70.92 33.02 71.40 33.29Q71.88 33.55 72.62 33.55L72.62 33.55Q73.15 33.55 73.63 33.40Q74.11 33.24 74.53 32.92Q74.95 32.59 75.30 32.10Q75.65 31.61 75.90 30.96Q76.15 30.31 76.30 29.50Q76.44 28.68 76.44 27.72L76.44 27.72Q76.44 26.02 76.25 24.89Q76.06 23.76 75.73 23.20Q75.41 22.63 75 22.63L75 22.63Q74.66 22.63 74.51 22.82Q74.35 23.02 74.35 23.28L74.35 23.28Q74.35 23.69 74.66 23.98Q74.98 24.26 75.49 24.41Q76.01 24.55 76.66 24.55L76.66 24.55Q77.42 24.55 78.11 24.24Q78.79 23.93 79.63 23.30L79.63 23.30Q79.80 23.18 79.96 23.26Q80.11 23.33 80.22 23.50Q80.33 23.66 80.32 23.84Q80.30 24.02 80.16 24.14L80.16 24.14Q79.39 24.77 78.55 25.18Q77.71 25.58 76.61 25.58L76.61 25.58Q75.67 25.58 74.93 25.31Q74.18 25.03 73.75 24.53Q73.32 24.02 73.32 23.30L73.32 23.30Q73.32 22.82 73.54 22.46Q73.75 22.10 74.12 21.89Q74.50 21.67 75 21.67L75 21.67Q75.89 21.67 76.49 22.42Q77.09 23.16 77.40 24.50Q77.71 25.85 77.71 27.60L77.71 27.60Q77.71 28.63 77.57 29.56Q77.42 30.48 77.14 31.28Q76.85 32.09 76.42 32.71Q75.98 33.34 75.40 33.79Q74.81 34.25 74.08 34.49Q73.34 34.73 72.48 34.73ZM78.38 34.68L78.38 34.68Q78.10 34.68 77.94 34.50Q77.78 34.32 77.77 34.10Q77.76 33.89 77.90 33.71Q78.05 33.53 78.34 33.53L78.34 33.53Q79.15 33.53 79.85 33.02Q80.54 32.52 81.07 31.33Q81.60 30.14 81.96 28.15Q82.32 26.16 82.46 23.16L82.46 23.16L83.47 23.69Q83.38 26.83 82.97 28.96Q82.56 31.08 81.88 32.34Q81.19 33.60 80.30 34.14Q79.42 34.68 78.38 34.68ZM90.79 34.68L90.79 34.68Q90.29 34.68 89.92 34.52Q89.54 34.37 89.28 34.07Q89.02 33.77 88.88 33.32Q88.75 32.88 88.75 32.26L88.75 32.26Q88.75 31.49 88.81 30.59Q88.87 29.69 88.93 28.75Q88.99 27.82 89.05 26.93Q89.11 26.04 89.11 25.30L89.11 25.30Q89.11 24.22 88.74 23.80Q88.37 23.38 87.62 23.38L87.62 23.38Q87.02 23.38 86.24 23.62Q85.46 23.86 84.70 24.08Q83.93 24.31 83.30 24.31L83.30 24.31Q82.92 24.31 82.57 23.92Q82.22 23.52 82.00 22.96Q81.77 22.39 81.77 21.94L81.77 21.94Q81.77 21.62 81.86 21.40Q81.96 21.17 82.15 21.02Q82.34 20.88 82.61 20.88L82.61 20.88Q83.11 20.88 83.32 21.34Q83.52 21.79 83.52 22.44L83.52 22.44Q83.52 22.61 83.52 22.80Q83.52 22.99 83.52 23.18L83.52 23.18Q84.07 23.23 84.74 22.97Q85.42 22.70 86.22 22.44Q87.02 22.18 87.84 22.18L87.84 22.18Q88.70 22.18 89.26 22.49Q89.81 22.80 90.08 23.48Q90.36 24.17 90.36 25.25L90.36 25.25Q90.36 25.99 90.30 26.87Q90.24 27.74 90.18 28.67Q90.12 29.59 90.06 30.43Q90 31.27 90 31.97L90 31.97Q90 32.74 90.24 33.13Q90.48 33.53 91.01 33.53L91.01 33.53Q91.27 33.53 91.51 33.46Q91.75 33.38 91.99 33.20Q92.23 33.02 92.47 32.78L92.47 32.78Q92.64 32.64 92.80 32.65Q92.95 32.66 93.10 32.83L93.10 32.83Q93.24 32.98 93.26 33.13Q93.29 33.29 93.19 33.46L93.19 33.46Q92.93 33.82 92.53 34.10Q92.14 34.39 91.69 34.54Q91.25 34.68 90.79 34.68ZM97.94 34.68L97.94 34.68Q96.96 34.68 96.43 34.08Q95.90 33.48 95.90 32.30L95.90 32.30L95.90 22.37Q95.90 22.13 96.05 22.02Q96.19 21.91 96.50 21.91L96.50 21.91Q96.84 21.91 97.00 22.02Q97.15 22.13 97.15 22.37L97.15 22.37L97.15 32.02Q97.15 32.76 97.39 33.14Q97.63 33.53 98.18 33.53L98.18 33.53Q98.45 33.53 98.69 33.44Q98.93 33.36 99.17 33.19Q99.41 33.02 99.65 32.78L99.65 32.78Q99.77 32.64 99.94 32.65Q100.10 32.66 100.25 32.83L100.25 32.83Q100.39 32.98 100.42 33.13Q100.44 33.29 100.34 33.46L100.34 33.46Q100.08 33.82 99.68 34.09Q99.29 34.37 98.84 34.52Q98.40 34.68 97.94 34.68ZM96.53 17.88L96.53 17.88Q96 17.88 95.74 17.59Q95.47 17.30 95.47 16.70L95.47 16.70Q95.47 16.10 95.74 15.80Q96 15.50 96.53 15.50L96.53 15.50Q97.03 15.50 97.30 15.80Q97.56 16.10 97.56 16.70L97.56 16.70Q97.58 17.30 97.31 17.59Q97.03 17.88 96.53 17.88ZM106.39 34.68L106.39 34.68Q105.53 34.68 104.96 34.33Q104.40 33.98 104.12 33.31Q103.85 32.64 103.85 31.70L103.85 31.70L103.85 23.42L101.66 23.42Q101.40 23.42 101.30 23.28Q101.21 23.14 101.21 22.85L101.21 22.85Q101.21 22.54 101.30 22.40Q101.40 22.27 101.66 22.27L101.66 22.27L103.85 22.27L103.85 17.21Q103.85 16.97 104.00 16.86Q104.16 16.75 104.47 16.75L104.47 16.75Q104.78 16.75 104.95 16.86Q105.12 16.97 105.12 17.21L105.12 17.21L105.12 22.27L108.50 22.27Q108.77 22.27 108.88 22.40Q108.98 22.54 108.98 22.85L108.98 22.85Q108.98 23.14 108.88 23.28Q108.77 23.42 108.50 23.42L108.50 23.42L105.12 23.42L105.12 31.42Q105.12 32.40 105.41 32.96Q105.70 33.53 106.54 33.53L106.54 33.53Q107.14 33.53 107.56 33.19Q107.98 32.86 108.38 32.38L108.38 32.38Q108.55 32.16 108.73 32.20Q108.91 32.23 109.10 32.38L109.10 32.38Q109.27 32.54 109.32 32.72Q109.37 32.90 109.25 33.07L109.25 33.07Q108.91 33.58 108.48 33.94Q108.05 34.30 107.52 34.49Q106.99 34.68 106.39 34.68ZM117.22 34.68L117.22 34.68Q116.30 34.68 115.43 34.27Q114.55 33.86 113.80 33.12Q113.04 32.38 112.48 31.36Q111.91 30.34 111.59 29.12Q111.26 27.91 111.26 26.57L111.26 26.57Q111.26 25.75 111.44 25.02Q111.62 24.29 111.96 23.70Q112.30 23.11 112.78 22.69Q113.26 22.27 113.84 22.04Q114.43 21.82 115.10 21.82L115.10 21.82Q116.38 21.82 117.17 22.36Q117.96 22.90 118.32 23.78Q118.68 24.67 118.68 25.68L118.68 25.68Q118.68 26.50 118.40 27.35Q118.13 28.20 117.62 29.03Q117.12 29.86 116.42 30.62L116.42 30.62Q115.44 31.78 114.12 32.69Q112.80 33.60 111.35 34.14Q109.90 34.68 108.41 34.68L108.41 34.68Q108.19 34.68 108.07 34.50Q107.95 34.32 107.96 34.10Q107.98 33.89 108.12 33.71Q108.26 33.53 108.55 33.53L108.55 33.53Q109.85 33.53 111.12 33.05Q112.39 32.57 113.53 31.75Q114.67 30.94 115.51 29.95L115.51 29.95Q116.09 29.30 116.50 28.60Q116.90 27.89 117.13 27.17Q117.36 26.45 117.36 25.78L117.36 25.78Q117.36 24.36 116.74 23.68Q116.11 22.99 115.01 22.99L115.01 22.99Q114.50 22.99 114.06 23.24Q113.62 23.50 113.28 23.98Q112.94 24.46 112.76 25.10Q112.58 25.75 112.58 26.54L112.58 26.54Q112.58 28.13 113.03 29.41Q113.47 30.70 114.19 31.61Q114.91 32.52 115.75 33.01Q116.59 33.50 117.38 33.50L117.38 33.50Q118.10 33.50 118.66 33.22Q119.21 32.93 119.64 32.51Q120.07 32.09 120.38 31.73L120.38 31.73Q120.58 31.51 120.77 31.52Q120.96 31.54 121.18 31.70L121.18 31.70Q121.37 31.85 121.43 32.03Q121.49 32.21 121.34 32.42L121.34 32.42Q120.96 33 120.34 33.52Q119.71 34.03 118.92 34.36Q118.13 34.68 117.22 34.68ZM143.69 34.27L132.19 34.27Q131.86 34.27 131.70 34.14Q131.54 34.01 131.54 33.72L131.54 33.72L131.54 10.80Q131.54 10.56 131.71 10.44Q131.88 10.32 132.22 10.32L132.22 10.32L143.69 10.32Q143.88 10.32 144 10.45Q144.12 10.58 144.12 10.92L144.12 10.92Q144.12 11.26 144 11.39Q143.88 11.52 143.69 11.52L143.69 11.52L132.84 11.52L132.84 21L142.06 21Q142.25 21 142.33 21.13Q142.42 21.26 142.42 21.60L142.42 21.60Q142.42 21.94 142.33 22.07Q142.25 22.20 142.06 22.20L142.06 22.20L132.84 22.20L132.84 33.07L143.69 33.07Q143.88 33.07 144 33.20Q144.12 33.34 144.12 33.67L144.12 33.67Q144.12 34.01 144 34.14Q143.88 34.27 143.69 34.27L143.69 34.27ZM154.25 34.73L154.25 34.73Q153.34 34.73 152.41 34.56Q151.49 34.39 150.61 34.06Q149.74 33.72 148.97 33.19Q148.20 32.66 147.62 31.97L147.62 31.97Q147.43 31.73 147.43 31.55Q147.43 31.37 147.65 31.18L147.65 31.18Q147.89 30.96 148.07 30.95Q148.25 30.94 148.54 31.25L148.54 31.25Q149.21 31.94 150.07 32.44Q150.94 32.93 151.99 33.18Q153.05 33.43 154.25 33.43L154.25 33.43Q155.62 33.43 156.71 33.07Q157.80 32.71 158.58 32.02Q159.36 31.32 159.79 30.31Q160.22 29.30 160.22 28.03L160.22 28.03Q160.22 26.86 159.79 26.03Q159.36 25.20 158.59 24.61Q157.82 24.02 156.85 23.57Q155.88 23.11 154.80 22.68L154.80 22.68Q153.86 22.32 152.94 21.91Q152.02 21.50 151.20 20.96Q150.38 20.42 149.76 19.70Q149.14 18.98 148.78 18.01Q148.42 17.04 148.42 15.77L148.42 15.77Q148.42 14.40 148.92 13.32Q149.42 12.24 150.31 11.47Q151.20 10.70 152.36 10.31Q153.53 9.91 154.82 9.91L154.82 9.91Q156.24 9.91 157.37 10.30Q158.50 10.68 159.42 11.29Q160.34 11.90 161.09 12.58L161.09 12.58Q161.30 12.77 161.30 12.95Q161.30 13.13 161.09 13.32L161.09 13.32Q160.87 13.56 160.68 13.56Q160.49 13.56 160.22 13.37L160.22 13.37Q159.48 12.72 158.65 12.23Q157.82 11.74 156.89 11.46Q155.95 11.18 154.82 11.18L154.82 11.18Q153.70 11.18 152.76 11.50Q151.82 11.81 151.16 12.42Q150.50 13.03 150.16 13.87Q149.81 14.71 149.81 15.77L149.81 15.77Q149.81 17.06 150.26 17.98Q150.72 18.89 151.51 19.52Q152.30 20.16 153.30 20.62Q154.30 21.07 155.35 21.48L155.35 21.48Q156.48 21.91 157.58 22.42Q158.69 22.92 159.61 23.65Q160.54 24.38 161.08 25.44Q161.62 26.50 161.62 28.03L161.62 28.03Q161.62 29.54 161.09 30.77Q160.56 31.99 159.59 32.89Q158.62 33.79 157.26 34.26Q155.90 34.73 154.25 34.73ZM186.10 34.27L172.90 34.27Q172.68 34.27 172.52 34.12Q172.37 33.96 172.36 33.74Q172.34 33.53 172.49 33.36L172.49 33.36L176.95 28.78Q178.06 27.67 179.05 26.56Q180.05 25.44 180.92 24.35Q181.80 23.26 182.51 22.18Q183.22 21.10 183.72 20.06Q184.22 19.03 184.50 18.02Q184.78 17.02 184.78 16.10L184.78 16.10Q184.78 14.38 184.13 13.30Q183.48 12.22 182.29 11.69Q181.10 11.16 179.50 11.16L179.50 11.16Q177.82 11.16 176.47 11.76Q175.13 12.36 173.95 13.44L173.95 13.44Q173.71 13.68 173.51 13.70Q173.30 13.73 173.06 13.51L173.06 13.51Q172.78 13.27 172.82 13.06Q172.87 12.84 173.04 12.65L173.04 12.65Q173.66 11.93 174.65 11.30Q175.63 10.68 176.92 10.30Q178.20 9.91 179.57 9.91L179.57 9.91Q180.96 9.91 182.15 10.30Q183.34 10.68 184.24 11.44Q185.14 12.19 185.63 13.33Q186.12 14.47 186.12 16.01L186.12 16.01Q186.12 17.09 185.82 18.19Q185.52 19.30 184.94 20.45Q184.37 21.60 183.60 22.78Q182.83 23.95 181.90 25.13Q180.96 26.30 179.90 27.48Q178.85 28.66 177.70 29.83L177.70 29.83L174.50 33.07L186.10 33.07Q186.29 33.07 186.38 33.19Q186.48 33.31 186.48 33.62L186.48 33.62Q186.48 33.96 186.40 34.12Q186.31 34.27 186.10 34.27L186.10 34.27ZM198.77 34.73L198.77 34.73Q196.37 34.73 194.51 33.36Q192.65 31.99 191.60 29.23Q190.56 26.47 190.56 22.30L190.56 22.30Q190.56 20.21 190.84 18.49Q191.11 16.78 191.63 15.40Q192.14 14.02 192.86 12.98Q193.58 11.95 194.50 11.28Q195.41 10.61 196.49 10.26Q197.57 9.91 198.79 9.91L198.79 9.91Q201.14 9.91 202.97 11.28Q204.79 12.65 205.84 15.40Q206.88 18.14 206.88 22.30L206.88 22.30Q206.88 24.38 206.60 26.11Q206.33 27.84 205.81 29.22Q205.30 30.60 204.59 31.64Q203.88 32.69 202.98 33.36Q202.08 34.03 201.02 34.38Q199.97 34.73 198.77 34.73ZM198.74 33.43L198.74 33.43Q199.75 33.43 200.64 33.13Q201.53 32.83 202.27 32.20Q203.02 31.56 203.62 30.64Q204.22 29.71 204.62 28.48Q205.03 27.24 205.25 25.69Q205.46 24.14 205.46 22.30L205.46 22.30Q205.46 18.60 204.62 16.13Q203.78 13.66 202.27 12.42Q200.76 11.18 198.74 11.18L198.74 11.18Q197.74 11.18 196.84 11.50Q195.94 11.81 195.19 12.42Q194.45 13.03 193.85 13.96Q193.25 14.88 192.84 16.13Q192.43 17.38 192.22 18.91Q192.00 20.45 192.00 22.30L192.00 22.30Q192.00 25.97 192.84 28.46Q193.68 30.96 195.20 32.20Q196.73 33.43 198.74 33.43ZM219.07 34.73L219.07 34.73Q216.67 34.73 214.81 33.36Q212.95 31.99 211.91 29.23Q210.86 26.47 210.86 22.30L210.86 22.30Q210.86 20.21 211.14 18.49Q211.42 16.78 211.93 15.40Q212.45 14.02 213.17 12.98Q213.89 11.95 214.80 11.28Q215.71 10.61 216.79 10.26Q217.87 9.91 219.10 9.91L219.10 9.91Q221.45 9.91 223.27 11.28Q225.10 12.65 226.14 15.40Q227.18 18.14 227.18 22.30L227.18 22.30Q227.18 24.38 226.91 26.11Q226.63 27.84 226.12 29.22Q225.60 30.60 224.89 31.64Q224.18 32.69 223.28 33.36Q222.38 34.03 221.33 34.38Q220.27 34.73 219.07 34.73ZM219.05 33.43L219.05 33.43Q220.06 33.43 220.94 33.13Q221.83 32.83 222.58 32.20Q223.32 31.56 223.92 30.64Q224.52 29.71 224.93 28.48Q225.34 27.24 225.55 25.69Q225.77 24.14 225.77 22.30L225.77 22.30Q225.77 18.60 224.93 16.13Q224.09 13.66 222.58 12.42Q221.06 11.18 219.05 11.18L219.05 11.18Q218.04 11.18 217.14 11.50Q216.24 11.81 215.50 12.42Q214.75 13.03 214.15 13.96Q213.55 14.88 213.14 16.13Q212.74 17.38 212.52 18.91Q212.30 20.45 212.30 22.30L212.30 22.30Q212.30 25.97 213.14 28.46Q213.98 30.96 215.51 32.20Q217.03 33.43 219.05 33.43ZM240.14 34.63L240.14 34.63Q239.83 34.63 239.69 34.52Q239.54 34.42 239.54 34.18L239.54 34.18L239.54 25.30Q239.54 24.10 239.12 23.58Q238.70 23.06 237.96 23.06L237.96 23.06Q237.43 23.06 237.06 23.34Q236.69 23.62 236.46 24.23Q236.23 24.84 236.16 25.82L236.16 25.82Q236.16 26.04 236.02 26.15Q235.87 26.26 235.58 26.26L235.58 26.26Q235.34 26.26 235.19 26.15Q235.03 26.04 235.03 25.75L235.03 25.75Q235.08 24.48 235.45 23.63Q235.82 22.78 236.47 22.34Q237.12 21.91 237.98 21.91L237.98 21.91Q238.66 21.91 239.14 22.10Q239.62 22.30 239.96 22.64Q240.31 22.99 240.50 23.47Q240.70 23.95 240.74 24.55L240.74 24.55L240.74 24.65Q241.13 23.83 241.63 23.29Q242.14 22.75 242.74 22.43Q243.34 22.10 243.97 21.96Q244.61 21.82 245.23 21.82L245.23 21.82Q246.38 21.82 247.28 22.27Q248.18 22.73 248.71 23.70Q249.24 24.67 249.24 26.26L249.24 26.26L249.24 32.02Q249.24 32.50 249.34 32.83Q249.43 33.17 249.66 33.35Q249.89 33.53 250.25 33.53L250.25 33.53Q250.49 33.53 250.73 33.46Q250.97 33.38 251.21 33.20Q251.45 33.02 251.69 32.78L251.69 32.78Q251.83 32.64 251.99 32.65Q252.14 32.66 252.31 32.83L252.31 32.83Q252.46 32.98 252.48 33.13Q252.50 33.29 252.38 33.46L252.38 33.46Q252.12 33.82 251.72 34.10Q251.33 34.39 250.90 34.54Q250.46 34.68 249.98 34.68L249.98 34.68Q249.50 34.68 249.12 34.52Q248.74 34.37 248.47 34.08Q248.21 33.79 248.08 33.35Q247.94 32.90 247.94 32.30L247.94 32.30L247.94 26.45Q247.94 25.37 247.66 24.60Q247.37 23.83 246.73 23.42Q246.10 23.02 245.06 23.02L245.06 23.02Q244.42 23.02 243.76 23.21Q243.10 23.40 242.53 23.83Q241.97 24.26 241.52 24.97Q241.08 25.68 240.79 26.74L240.79 26.74L240.79 34.18Q240.79 34.42 240.64 34.52Q240.48 34.63 240.14 34.63ZM259.56 34.73L259.56 34.73Q257.93 34.73 256.70 33.90Q255.48 33.07 254.83 31.62Q254.18 30.17 254.18 28.27L254.18 28.27Q254.18 26.88 254.57 25.76Q254.95 24.65 255.68 23.83Q256.42 23.02 257.45 22.58Q258.48 22.15 259.78 22.15L259.78 22.15L259.75 22.85Q258.79 22.85 258.01 23.24Q257.23 23.64 256.67 24.36Q256.10 25.08 255.80 26.08Q255.50 27.07 255.50 28.27L255.50 28.27Q255.50 29.83 256.00 31.02Q256.49 32.21 257.39 32.87Q258.29 33.53 259.56 33.53L259.56 33.53Q260.50 33.53 261.24 33.16Q261.98 32.78 262.50 32.08Q263.02 31.37 263.29 30.40Q263.57 29.42 263.57 28.27L263.57 28.27Q263.57 26.57 263.00 25.37Q262.44 24.17 261.56 23.56Q260.69 22.94 259.75 22.94L259.75 22.94Q258.94 22.94 258.49 23.24Q258.05 23.54 258.05 24.12L258.05 24.12Q258.05 24.62 258.40 24.94Q258.74 25.25 259.26 25.38Q259.78 25.51 260.23 25.51L260.23 25.51Q261.05 25.51 261.88 25.25Q262.70 24.98 263.72 24.36Q264.74 23.74 266.14 22.61L266.14 22.61Q266.33 22.44 266.50 22.49Q266.66 22.54 266.78 22.69Q266.90 22.85 266.89 23.04Q266.88 23.23 266.71 23.38L266.71 23.38Q265.25 24.62 264.12 25.30Q262.99 25.97 262.06 26.24Q261.12 26.52 260.18 26.52L260.18 26.52Q259.39 26.52 258.62 26.27Q257.86 26.02 257.35 25.46Q256.85 24.91 256.85 24.02L256.85 24.02Q256.85 23.38 257.21 22.88Q257.57 22.39 258.22 22.10Q258.86 21.82 259.75 21.82L259.75 21.82Q261.07 21.82 262.25 22.58Q263.42 23.35 264.16 24.80Q264.89 26.26 264.89 28.27L264.89 28.27Q264.89 29.42 264.65 30.41Q264.41 31.39 263.95 32.18Q263.50 32.98 262.84 33.55Q262.18 34.13 261.36 34.43Q260.54 34.73 259.56 34.73ZM265.27 34.68L265.27 34.68Q264.98 34.68 264.83 34.50Q264.67 34.32 264.66 34.10Q264.65 33.89 264.79 33.71Q264.94 33.53 265.22 33.53L265.22 33.53Q266.04 33.53 266.74 33.02Q267.43 32.52 267.96 31.33Q268.49 30.14 268.85 28.15Q269.21 26.16 269.35 23.16L269.35 23.16L270.36 23.69Q270.26 26.83 269.86 28.96Q269.45 31.08 268.76 32.34Q268.08 33.60 267.19 34.14Q266.30 34.68 265.27 34.68ZM277.68 34.68L277.68 34.68Q277.18 34.68 276.80 34.52Q276.43 34.37 276.17 34.07Q275.90 33.77 275.77 33.32Q275.64 32.88 275.64 32.26L275.64 32.26Q275.64 31.49 275.70 30.59Q275.76 29.69 275.82 28.75Q275.88 27.82 275.94 26.93Q276 26.04 276 25.30L276 25.30Q276 24.22 275.63 23.80Q275.26 23.38 274.51 23.38L274.51 23.38Q273.91 23.38 273.13 23.62Q272.35 23.86 271.58 24.08Q270.82 24.31 270.19 24.31L270.19 24.31Q269.81 24.31 269.46 23.92Q269.11 23.52 268.88 22.96Q268.66 22.39 268.66 21.94L268.66 21.94Q268.66 21.62 268.75 21.40Q268.85 21.17 269.04 21.02Q269.23 20.88 269.50 20.88L269.50 20.88Q270 20.88 270.20 21.34Q270.41 21.79 270.41 22.44L270.41 22.44Q270.41 22.61 270.41 22.80Q270.41 22.99 270.41 23.18L270.41 23.18Q270.96 23.23 271.63 22.97Q272.30 22.70 273.11 22.44Q273.91 22.18 274.73 22.18L274.73 22.18Q275.59 22.18 276.14 22.49Q276.70 22.80 276.97 23.48Q277.25 24.17 277.25 25.25L277.25 25.25Q277.25 25.99 277.19 26.87Q277.13 27.74 277.07 28.67Q277.01 29.59 276.95 30.43Q276.89 31.27 276.89 31.97L276.89 31.97Q276.89 32.74 277.13 33.13Q277.37 33.53 277.90 33.53L277.90 33.53Q278.16 33.53 278.40 33.46Q278.64 33.38 278.88 33.20Q279.12 33.02 279.36 32.78L279.36 32.78Q279.53 32.64 279.68 32.65Q279.84 32.66 279.98 32.83L279.98 32.83Q280.13 32.98 280.15 33.13Q280.18 33.29 280.08 33.46L280.08 33.46Q279.82 33.82 279.42 34.10Q279.02 34.39 278.58 34.54Q278.14 34.68 277.68 34.68ZM283.99 34.63L283.99 34.63Q283.68 34.63 283.54 34.52Q283.39 34.42 283.39 34.18L283.39 34.18L283.39 25.30Q283.39 24.10 282.97 23.58Q282.55 23.06 281.81 23.06L281.81 23.06Q281.28 23.06 280.91 23.34Q280.54 23.62 280.31 24.23Q280.08 24.84 280.01 25.82L280.01 25.82Q280.01 26.04 279.86 26.15Q279.72 26.26 279.43 26.26L279.43 26.26Q279.19 26.26 279.04 26.15Q278.88 26.04 278.88 25.75L278.88 25.75Q278.93 24.48 279.30 23.63Q279.67 22.78 280.32 22.34Q280.97 21.91 281.83 21.91L281.83 21.91Q282.50 21.91 283.00 22.10Q283.49 22.30 283.84 22.66Q284.18 23.02 284.36 23.50Q284.54 23.98 284.59 24.55L284.59 24.55L284.59 24.62Q284.98 23.76 285.49 23.22Q286.01 22.68 286.57 22.37Q287.14 22.06 287.72 21.94Q288.31 21.82 288.84 21.82L288.84 21.82Q289.92 21.82 290.80 22.27Q291.67 22.73 292.19 23.70Q292.70 24.67 292.70 26.26L292.70 26.26L292.70 34.18Q292.70 34.42 292.55 34.52Q292.39 34.63 292.06 34.63L292.06 34.63Q291.72 34.63 291.58 34.52Q291.43 34.42 291.43 34.18L291.43 34.18L291.43 26.45Q291.43 25.37 291.16 24.60Q290.88 23.83 290.27 23.42Q289.66 23.02 288.65 23.02L288.65 23.02Q288.07 23.02 287.47 23.21Q286.87 23.40 286.33 23.82Q285.79 24.24 285.36 24.95Q284.93 25.66 284.64 26.69L284.64 26.69L284.64 34.18Q284.64 34.42 284.48 34.52Q284.33 34.63 283.99 34.63ZM301.44 34.68L301.44 34.68Q300.96 34.68 300.59 34.52Q300.22 34.37 299.96 34.08Q299.71 33.79 299.58 33.35Q299.45 32.90 299.45 32.30L299.45 32.30L299.45 26.45Q299.45 25.37 299.17 24.60Q298.90 23.83 298.28 23.42Q297.67 23.02 296.69 23.02L296.69 23.02Q296.04 23.02 295.39 23.23Q294.74 23.45 294.17 23.93Q293.59 24.41 293.15 25.22Q292.70 26.04 292.44 27.26L292.44 27.26L291.86 27.26Q292.03 25.75 292.51 24.72Q292.99 23.69 293.69 23.04Q294.38 22.39 295.21 22.10Q296.04 21.82 296.88 21.82L296.88 21.82Q297.96 21.82 298.82 22.27Q299.69 22.73 300.20 23.70Q300.72 24.67 300.72 26.26L300.72 26.26L300.72 32.02Q300.72 32.50 300.82 32.83Q300.91 33.17 301.14 33.35Q301.37 33.53 301.70 33.53L301.70 33.53Q301.99 33.53 302.22 33.46Q302.45 33.38 302.68 33.22Q302.90 33.05 303.14 32.78L303.14 32.78Q303.29 32.64 303.46 32.65Q303.62 32.66 303.77 32.83L303.77 32.83Q303.89 32.95 303.94 33.12Q303.98 33.29 303.86 33.46L303.86 33.46Q303.60 33.82 303.20 34.09Q302.81 34.37 302.36 34.52Q301.92 34.68 301.44 34.68ZM310.32 34.68L310.32 34.68Q309 34.68 307.94 33.98Q306.89 33.29 306.28 31.92Q305.66 30.55 305.66 28.56L305.66 28.56Q305.66 27.36 305.89 26.33Q306.12 25.30 306.58 24.47Q307.03 23.64 307.70 23.05Q308.38 22.46 309.25 22.14Q310.13 21.82 311.18 21.82L311.18 21.82Q312 21.82 312.79 22.06Q313.58 22.30 314.38 22.78L314.38 22.78L314.38 22.39Q314.38 22.13 314.53 22.02Q314.69 21.91 315.02 21.91L315.02 21.91Q315.36 21.91 315.50 22.02Q315.65 22.13 315.65 22.37L315.65 22.37L315.65 32.09Q315.65 32.59 315.76 32.92Q315.86 33.24 316.10 33.40Q316.34 33.55 316.70 33.55L316.70 33.55Q316.94 33.55 317.17 33.47Q317.40 33.38 317.63 33.20Q317.86 33.02 318.12 32.76L318.12 32.76Q318.24 32.62 318.40 32.63Q318.55 32.64 318.70 32.81L318.70 32.81Q318.86 32.95 318.89 33.12Q318.91 33.29 318.82 33.46L318.82 33.46Q318.55 33.82 318.17 34.09Q317.78 34.37 317.35 34.52Q316.92 34.68 316.49 34.68L316.49 34.68Q315.98 34.68 315.61 34.55Q315.24 34.42 314.96 34.14Q314.69 33.86 314.56 33.47Q314.42 33.07 314.40 32.54L314.40 32.54Q314.40 32.45 314.39 32.32Q314.38 32.18 314.38 32.06L314.38 32.06Q313.82 33.14 313.13 33.71Q312.43 34.27 311.70 34.48Q310.97 34.68 310.32 34.68ZM307.01 28.46L307.01 28.46Q307.01 29.95 307.40 31.08Q307.80 32.21 308.58 32.84Q309.36 33.48 310.54 33.48L310.54 33.48Q311.30 33.48 312.04 33.16Q312.77 32.83 313.38 32.05Q313.99 31.27 314.38 29.93L314.38 29.93L314.38 23.98Q313.54 23.40 312.77 23.20Q312 22.99 311.21 22.99L311.21 22.99Q310.44 22.99 309.79 23.22Q309.14 23.45 308.63 23.90Q308.11 24.36 307.75 25.02Q307.39 25.68 307.20 26.54Q307.01 27.41 307.01 28.46ZM317.52 34.68L317.52 34.68Q317.23 34.68 317.09 34.50Q316.94 34.32 316.94 34.10Q316.94 33.89 317.09 33.71Q317.23 33.53 317.52 33.53L317.52 33.53Q318.29 33.53 319.03 33.11Q319.78 32.69 320.48 31.96Q321.19 31.22 321.84 30.20Q322.49 29.18 323.08 27.97Q323.66 26.76 324.17 25.38Q324.67 24 325.08 22.56Q325.49 21.12 325.75 19.64Q326.02 18.17 326.16 16.73Q326.30 15.29 326.30 13.97L326.30 13.97Q326.30 13.70 326.51 13.57Q326.71 13.44 326.98 13.44Q327.24 13.44 327.44 13.57Q327.65 13.70 327.65 13.97L327.65 13.97Q327.65 15.34 327.47 16.84Q327.29 18.34 326.98 19.90Q326.66 21.46 326.21 22.99Q325.75 24.53 325.18 25.99Q324.60 27.46 323.93 28.75Q323.26 30.05 322.51 31.13Q321.77 32.21 320.94 33.01Q320.11 33.82 319.26 34.25Q318.41 34.68 317.52 34.68ZM324.26 34.68L324.26 34.68Q323.78 34.68 323.40 34.52Q323.02 34.37 322.76 34.08Q322.51 33.79 322.38 33.35Q322.25 32.90 322.25 32.30L322.25 32.30L322.25 14.45Q322.25 12.10 322.91 10.96Q323.57 9.82 324.98 9.82L324.98 9.82Q325.87 9.82 326.47 10.28Q327.07 10.75 327.36 11.66Q327.65 12.58 327.65 13.97L327.65 13.97Q327.65 14.28 327.44 14.42Q327.24 14.57 326.98 14.57Q326.71 14.57 326.51 14.42Q326.30 14.28 326.30 13.97L326.30 13.97Q326.30 12.96 326.17 12.31Q326.04 11.66 325.74 11.34Q325.44 11.02 324.96 11.02L324.96 11.02Q324.48 11.02 324.16 11.34Q323.83 11.66 323.66 12.42Q323.50 13.18 323.50 14.45L323.50 14.45L323.50 32.02Q323.50 32.50 323.60 32.83Q323.71 33.17 323.94 33.35Q324.17 33.53 324.50 33.53L324.50 33.53Q324.74 33.53 325.00 33.46Q325.25 33.38 325.49 33.20Q325.73 33.02 325.94 32.78L325.94 32.78Q326.09 32.64 326.26 32.65Q326.42 32.66 326.57 32.83L326.57 32.83Q326.71 32.98 326.74 33.13Q326.76 33.29 326.66 33.46L326.66 33.46Q326.40 33.82 326.00 34.10Q325.61 34.39 325.16 34.54Q324.72 34.68 324.26 34.68Z"/></svg>