<svg xmlns="http://www.w3.org/2000/svg" xmlns:xlink="http://www.w3.org/1999/xlink" width="140.96484375" height="30.75"><path fill="black" d="M3.76 23.73L1.71 23.73L1.71 6.57L6.46 6.57Q9.25 6.57 10.95 7.03Q12.64 7.48 13.41 8.50Q14.18 9.53 14.18 11.27L14.18 11.27Q14.18 13.25 13.36 14.36Q12.54 15.46 10.72 15.90Q8.91 16.34 5.91 16.34L5.91 16.34L3.76 16.34L3.76 23.73ZM3.76 8.14L3.76 14.75L6.47 14.75Q8.48 14.74 9.72 14.48Q10.96 14.23 11.53 13.49Q12.09 12.76 12.09 11.37L12.09 11.37Q12.09 9.95 11.48 9.26Q10.86 8.58 9.57 8.36Q8.29 8.14 6.23 8.14L6.23 8.14L3.76 8.14ZM21.26 24.01L21.26 24.01Q18.86 24.01 17.42 22.42Q15.98 20.84 15.98 17.74L15.98 17.74Q15.98 14.66 17.42 13.07Q18.86 11.48 21.26 11.48L21.26 11.48Q23.66 11.48 25.09 13.07Q26.52 14.66 26.52 17.74L26.52 17.74Q26.52 20.84 25.09 22.42Q23.66 24.01 21.26 24.01ZM21.26 22.59L21.26 22.59Q22.57 22.59 23.27 21.88Q23.96 21.16 24.23 20.04Q24.49 18.93 24.49 17.74L24.49 17.74Q24.49 16.56 24.23 15.45Q23.96 14.33 23.27 13.61Q22.57 12.89 21.26 12.89L21.26 12.89Q19.96 12.89 19.25 13.61Q18.55 14.33 18.29 15.45Q18.02 16.56 18.02 17.74L18.02 17.74Q18.02 18.93 18.29 20.04Q18.55 21.16 19.25 21.88Q19.96 22.59 21.26 22.59ZM31.11 23.73L29.12 23.73L29.12 11.74L31.11 11.74L31.11 13.56Q31.72 12.54 32.72 12.01Q33.71 11.48 35.11 11.48L35.11 11.48Q36.52 11.48 37.34 11.98Q38.17 12.47 38.57 13.27Q38.98 14.06 39.09 15Q39.21 15.94 39.21 16.84L39.21 16.84L39.21 23.73L37.22 23.73L37.22 16.68Q37.22 14.86 36.71 13.88Q36.21 12.89 34.76 12.89L34.76 12.89Q33.76 12.89 33.08 13.26Q32.39 13.63 31.97 14.27Q31.55 14.91 31.35 15.73Q31.15 16.55 31.11 17.46L31.11 17.46L31.11 23.73ZM46.09 23.92L46.09 23.92Q45.09 23.92 44.37 23.54Q43.64 23.17 43.25 22.32Q42.86 21.47 42.86 20.05L42.86 20.05L42.86 13.10L41.11 13.10L41.11 11.74L42.86 11.74L42.94 7.96L44.85 7.44L44.85 11.74L47.47 11.74L47.47 13.10L44.85 13.10L44.85 20.39Q44.85 21.53 45.25 21.98Q45.64 22.43 46.35 22.44L46.35 22.44Q46.72 22.44 47.12 22.34Q47.51 22.24 47.89 22.08L47.89 22.08L48.22 23.38Q47.81 23.60 47.24 23.76Q46.66 23.92 46.09 23.92ZM53.10 24.02L53.10 24.02Q52.11 24.02 51.30 23.70Q50.50 23.37 50.02 22.69Q49.54 22.02 49.54 20.98L49.54 20.98Q49.54 19.85 49.95 19.15Q50.37 18.46 51.16 18.05Q51.95 17.65 53.06 17.41Q54.18 17.18 55.56 16.97L55.56 16.97L56.88 16.77L56.88 16.17Q56.88 14.93 56.68 14.22Q56.47 13.51 55.94 13.21Q55.41 12.90 54.40 12.90L54.40 12.90Q53.30 12.90 52.40 13.22Q51.50 13.54 50.67 14.14L50.67 14.14Q50.67 14.14 50.55 13.96Q50.43 13.78 50.27 13.55Q50.12 13.31 50.00 13.14Q49.88 12.96 49.88 12.96L49.88 12.96Q50.85 12.23 51.93 11.86Q53.02 11.48 54.49 11.48L54.49 11.48Q56.63 11.48 57.75 12.53Q58.88 13.58 58.88 15.81L58.88 15.81L58.88 23.73L57.16 23.73L56.99 22.23Q56.36 23.11 55.37 23.57Q54.39 24.02 53.10 24.02ZM53.41 22.62L53.41 22.62Q54.48 22.62 55.33 22.17Q56.18 21.73 56.88 20.88L56.88 20.88L56.88 18.04L55.36 18.29Q53.73 18.56 52.87 18.86Q52.01 19.15 51.70 19.59Q51.39 20.04 51.39 20.77L51.39 20.77Q51.39 21.70 51.84 22.16Q52.30 22.62 53.41 22.62ZM63.69 23.73L61.70 23.73L61.70 11.74L63.69 11.74L63.69 13.56Q64.30 12.54 65.30 12.01Q66.29 11.48 67.69 11.48L67.69 11.48Q69.09 11.48 69.92 11.98Q70.75 12.47 71.15 13.27Q71.55 14.06 71.67 15Q71.79 15.94 71.79 16.84L71.79 16.84L71.79 23.73L69.80 23.73L69.80 16.68Q69.80 14.86 69.29 13.88Q68.79 12.89 67.34 12.89L67.34 12.89Q66.34 12.89 65.65 13.26Q64.97 13.63 64.55 14.27Q64.13 14.91 63.93 15.73Q63.73 16.55 63.69 17.46L63.69 17.46L63.69 23.73ZM79.58 24.01L79.58 24.01Q77.18 24.01 75.74 22.42Q74.31 20.84 74.31 17.74L74.31 17.74Q74.31 14.66 75.74 13.07Q77.18 11.48 79.58 11.48L79.58 11.48Q81.98 11.48 83.41 13.07Q84.84 14.66 84.84 17.74L84.84 17.74Q84.84 20.84 83.41 22.42Q81.98 24.01 79.58 24.01ZM79.58 22.59L79.58 22.59Q80.89 22.59 81.59 21.88Q82.29 21.16 82.55 20.04Q82.82 18.93 82.82 17.74L82.82 17.74Q82.82 16.56 82.55 15.45Q82.29 14.33 81.59 13.61Q80.89 12.89 79.58 12.89L79.58 12.89Q78.28 12.89 77.58 13.61Q76.88 14.33 76.61 15.45Q76.35 16.56 76.35 17.74L76.35 17.74Q76.35 18.93 76.61 20.04Q76.88 21.16 77.58 21.88Q78.28 22.59 79.58 22.59ZM98.36 24.02L98.36 24.02Q97.20 24.02 96.10 23.77Q95.00 23.51 94.08 22.95Q93.16 22.39 92.54 21.51Q91.91 20.63 91.68 19.36L91.68 19.36L93.41 18.61Q93.80 19.92 94.46 20.75Q95.12 21.59 96.13 21.97Q97.14 22.36 98.55 22.36L98.55 22.36Q99.64 22.36 100.56 22.05Q101.48 21.74 102.04 21.05Q102.60 20.36 102.60 19.20L102.60 19.20Q102.60 18.07 102.13 17.43Q101.67 16.79 100.62 16.34Q99.57 15.88 97.78 15.32L97.78 15.32Q96.30 14.84 95.12 14.31Q93.93 13.78 93.23 12.91Q92.54 12.05 92.54 10.55L92.54 10.55Q92.54 9.09 93.32 8.14Q94.09 7.20 95.41 6.73Q96.73 6.26 98.39 6.26L98.39 6.26Q99.79 6.26 100.85 6.55Q101.92 6.84 102.76 7.49Q103.61 8.13 104.31 9.20L104.31 9.20L102.84 10.31Q102.13 9.07 101.07 8.48Q100.01 7.90 98.66 7.90L98.66 7.90Q97.50 7.90 96.61 8.16Q95.72 8.41 95.21 8.96Q94.70 9.52 94.70 10.39L94.70 10.39Q94.70 11.24 95.06 11.75Q95.41 12.27 96.07 12.61Q96.73 12.95 97.62 13.22Q98.51 13.49 99.57 13.84L99.57 13.84Q101.23 14.38 102.38 15.01Q103.54 15.63 104.14 16.60Q104.74 17.57 104.74 19.13L104.74 19.13Q104.74 20.71 103.97 21.80Q103.21 22.89 101.78 23.46Q100.35 24.02 98.36 24.02ZM110.09 24.02L110.09 24.02Q109.10 24.02 108.29 23.70Q107.48 23.37 107.00 22.69Q106.52 22.02 106.52 20.98L106.52 20.98Q106.52 19.85 106.94 19.15Q107.36 18.46 108.15 18.05Q108.94 17.65 110.05 17.41Q111.16 17.18 112.55 16.97L112.55 16.97L113.87 16.77L113.87 16.17Q113.87 14.93 113.67 14.22Q113.46 13.51 112.93 13.21Q112.39 12.90 111.39 12.90L111.39 12.90Q110.29 12.90 109.39 13.22Q108.49 13.54 107.66 14.14L107.66 14.14Q107.66 14.14 107.54 13.96Q107.41 13.78 107.26 13.55Q107.11 13.31 106.99 13.14Q106.86 12.96 106.86 12.96L106.86 12.96Q107.84 12.23 108.92 11.86Q110.00 11.48 111.48 11.48L111.48 11.48Q113.61 11.48 114.74 12.53Q115.86 13.58 115.86 15.81L115.86 15.81L115.86 23.73L114.15 23.73L113.98 22.23Q113.34 23.11 112.36 23.57Q111.38 24.02 110.09 24.02ZM110.40 22.62L110.40 22.62Q111.47 22.62 112.32 22.17Q113.17 21.73 113.87 20.88L113.87 20.88L113.87 18.04L112.35 18.29Q110.72 18.56 109.86 18.86Q109.00 19.15 108.69 19.59Q108.38 20.04 108.38 20.77L108.38 20.77Q108.38 21.70 108.83 22.16Q109.29 22.62 110.40 22.62ZM120.68 23.73L118.69 23.73L118.69 11.74L120.68 11.74L120.68 13.56Q121.29 12.54 122.29 12.01Q123.28 11.48 124.68 11.48L124.68 11.48Q126.08 11.48 126.91 11.98Q127.73 12.47 128.14 13.27Q128.54 14.06 128.66 15Q128.78 15.94 128.78 16.84L128.78 16.84L128.78 23.73L126.79 23.73L126.79 16.68Q126.79 14.86 126.28 13.88Q125.78 12.89 124.32 12.89L124.32 12.89Q123.33 12.89 122.64 13.26Q121.96 13.63 121.54 14.27Q121.11 14.91 120.91 15.73Q120.71 16.55 120.68 17.46L120.68 17.46L120.68 23.73ZM135.48 24.01L135.48 24.01Q134.52 24.01 133.60 23.75Q132.68 23.48 131.98 22.84Q131.29 22.20 130.98 21.08L130.98 21.08L132.45 20.48Q132.74 21.25 133.11 21.71Q133.49 22.17 134.09 22.38Q134.70 22.59 135.64 22.59L135.64 22.59Q136.88 22.59 137.65 22.18Q138.42 21.77 138.42 20.60L138.42 20.60Q138.42 19.99 138.30 19.63Q138.18 19.28 137.82 19.07Q137.46 18.86 136.78 18.68Q136.09 18.50 134.96 18.26L134.96 18.26Q133.75 17.98 132.94 17.64Q132.14 17.30 131.75 16.65Q131.36 16.00 131.36 14.81L131.36 14.81Q131.36 13.20 132.59 12.34Q133.82 11.48 135.80 11.48L135.80 11.48Q137.37 11.48 138.38 12Q139.38 12.52 140.02 13.84L140.02 13.84Q140.02 13.84 139.83 13.95Q139.64 14.05 139.39 14.19Q139.14 14.32 138.95 14.43Q138.76 14.54 138.76 14.54L138.76 14.54Q138.33 13.64 137.68 13.27Q137.03 12.89 135.88 12.89L135.88 12.89Q134.39 12.89 133.80 13.37Q133.22 13.85 133.22 14.85L133.22 14.85Q133.22 15.49 133.46 15.84Q133.70 16.18 134.31 16.39Q134.92 16.59 136.03 16.83L136.03 16.83Q137.52 17.13 138.42 17.53Q139.32 17.93 139.74 18.60Q140.16 19.27 140.16 20.40L140.16 20.40Q140.16 22.16 139.06 23.09Q137.96 24.01 135.48 24.01Z"/></svg>