<svg xmlns="http://www.w3.org/2000/svg" xmlns:xlink="http://www.w3.org/1999/xlink" width="325.9680000000001" height="28.464000000000002"><path fill="black" d="M6.50 21.50L1.20 21.50L1.20 21.02L2.23 21.02Q2.83 21.02 3.12 20.88Q3.41 20.74 3.49 20.28Q3.58 19.82 3.58 18.91L3.58 18.91L3.58 6.96Q3.58 6.02 3.49 5.58Q3.41 5.14 3.12 4.99Q2.83 4.85 2.23 4.85L2.23 4.85L1.20 4.85L1.20 4.37L4.08 4.37L13.61 20.18L13.61 6.96Q13.61 6.02 13.52 5.58Q13.44 5.14 13.15 4.99Q12.86 4.85 12.26 4.85L12.26 4.85L11.28 4.85L11.28 4.37L16.54 4.37L16.54 4.85L15.55 4.85Q14.95 4.85 14.66 4.99Q14.38 5.14 14.29 5.58Q14.21 6.02 14.21 6.96L14.21 6.96L14.21 21.50L13.61 21.50L4.18 5.83L4.18 18.91Q4.18 19.82 4.26 20.28Q4.34 20.74 4.63 20.88Q4.92 21.02 5.52 21.02L5.52 21.02L6.50 21.02L6.50 21.50ZM23.90 21.74L23.90 21.74Q21.67 21.74 20.39 20.11Q19.10 18.48 19.10 15.10L19.10 15.10Q19.10 11.74 20.35 10.12Q21.60 8.50 24.02 8.50L24.02 8.50Q26.30 8.50 27.52 10.07Q28.73 11.64 28.73 15.10L28.73 15.10Q28.73 18.48 27.50 20.11Q26.28 21.74 23.90 21.74ZM23.90 21.14L23.90 21.14Q25.44 21.14 26.35 20.39Q27.26 19.63 27.66 18.28Q28.06 16.92 28.06 15.10L28.06 15.10Q28.06 12.02 27.08 10.56Q26.11 9.10 24.02 9.10L24.02 9.10Q21.77 9.10 20.77 10.60Q19.78 12.10 19.78 15.10L19.78 15.10Q19.78 17.95 20.77 19.55Q21.77 21.14 23.90 21.14ZM35.14 21.74L35.14 21.74Q33.74 21.74 33.16 20.93Q32.57 20.11 32.57 18.12L32.57 18.12L32.57 9.24L30.70 9.24L30.70 8.76Q31.20 8.76 31.57 8.63Q31.94 8.50 32.18 8.28L32.18 8.28Q32.42 8.06 32.59 7.49Q32.76 6.91 32.76 5.74L32.76 5.74L33.24 5.74L33.24 8.64L36.29 8.64L36.29 9.24L33.24 9.24L33.24 18.34Q33.24 19.87 33.67 20.51Q34.10 21.14 35.11 21.14L35.11 21.14Q35.52 21.14 35.82 21.12Q36.12 21.10 36.50 21.02L36.50 21.02L36.50 21.62Q36.12 21.70 35.80 21.72Q35.47 21.74 35.14 21.74ZM43.51 21.74L43.51 21.74Q41.28 21.74 40.00 20.11Q38.71 18.48 38.71 15.10L38.71 15.10Q38.71 11.74 39.96 10.12Q41.21 8.50 43.63 8.50L43.63 8.50Q45.91 8.50 47.12 10.07Q48.34 11.64 48.34 15.10L48.34 15.10Q48.34 18.48 47.11 20.11Q45.89 21.74 43.51 21.74ZM43.51 21.14L43.51 21.14Q45.05 21.14 45.96 20.39Q46.87 19.63 47.27 18.28Q47.66 16.92 47.66 15.10L47.66 15.10Q47.66 12.02 46.69 10.56Q45.72 9.10 43.63 9.10L43.63 9.10Q41.38 9.10 40.38 10.60Q39.38 12.10 39.38 15.10L39.38 15.10Q39.38 17.95 40.38 19.55Q41.38 21.14 43.51 21.14ZM62.40 21.74L62.40 21.74Q61.25 21.74 60.41 21.47Q59.57 21.19 59.02 20.72Q58.46 20.26 58.20 19.67Q57.94 19.08 57.94 18.48L57.94 18.48Q57.94 18.19 58.00 17.98Q58.06 17.76 58.16 17.64Q58.27 17.52 58.44 17.52L58.44 17.52Q58.44 18.72 58.90 19.52Q59.35 20.33 60.24 20.74Q61.13 21.14 62.40 21.14L62.40 21.14Q64.25 21.14 65.10 20.11Q65.95 19.08 65.95 17.47L65.95 17.47Q65.95 16.49 65.57 15.76Q65.18 15.02 64.33 14.36Q63.48 13.70 62.11 12.94L62.11 12.94Q60.84 12.22 60.05 11.57Q59.26 10.92 58.90 10.10Q58.54 9.29 58.54 8.09L58.54 8.09Q58.54 6.98 59.04 6.10Q59.54 5.21 60.48 4.67Q61.42 4.13 62.66 4.13L62.66 4.13Q63.77 4.13 64.62 4.49Q65.47 4.85 65.95 5.44Q66.43 6.02 66.43 6.77L66.43 6.77Q66.43 7.22 66.31 7.46Q66.19 7.70 65.93 7.70L65.93 7.70Q65.93 6.67 65.54 6.01Q65.16 5.35 64.43 5.04Q63.70 4.73 62.64 4.73L62.64 4.73Q60.94 4.73 60.07 5.72Q59.21 6.72 59.21 8.21L59.21 8.21Q59.21 9.24 59.58 9.92Q59.95 10.61 60.65 11.15Q61.34 11.69 62.35 12.29L62.35 12.29Q63.46 12.94 64.43 13.58Q65.40 14.23 66.01 15.13Q66.62 16.03 66.62 17.45L66.62 17.45Q66.62 18.67 66.16 19.64Q65.69 20.62 64.75 21.18Q63.82 21.74 62.40 21.74ZM74.28 21.74L74.28 21.74Q72.05 21.74 70.74 20.05Q69.43 18.36 69.43 15.22L69.43 15.22Q69.43 11.81 70.63 10.15Q71.83 8.50 74.06 8.50L74.06 8.50Q76.06 8.50 77.20 10.09Q78.34 11.69 78.34 14.54L78.34 14.54L78.34 14.88L70.13 14.88Q70.10 18 71.27 19.57Q72.43 21.14 74.30 21.14L74.30 21.14Q75.67 21.14 76.51 20.53Q77.35 19.92 77.76 19.03L77.76 19.03Q77.88 19.10 77.93 19.20Q77.98 19.30 77.98 19.46L77.98 19.46Q77.98 19.87 77.56 20.41Q77.14 20.95 76.32 21.35Q75.50 21.74 74.28 21.74ZM70.18 14.30L77.66 14.30Q77.64 11.98 76.73 10.54Q75.82 9.10 74.04 9.10L74.04 9.10Q72.02 9.10 71.16 10.51Q70.30 11.93 70.18 14.30L70.18 14.30ZM86.06 21.50L80.81 21.50L80.81 21.02L81.34 21.02Q82.06 21.02 82.40 20.93Q82.75 20.83 82.85 20.44Q82.94 20.04 82.94 19.15L82.94 19.15L82.94 10.90Q82.94 10.06 82.85 9.68Q82.75 9.31 82.37 9.22Q81.98 9.12 81.10 9.12L81.10 9.12L80.66 9.12L80.66 8.64L83.52 8.64L83.59 11.33L83.64 11.33Q83.93 10.63 84.35 9.97Q84.77 9.31 85.42 8.88Q86.06 8.45 86.98 8.45L86.98 8.45Q87.89 8.45 88.44 8.92Q88.99 9.38 88.99 10.08L88.99 10.08Q88.99 10.39 88.87 10.63Q88.75 10.87 88.49 10.87L88.49 10.87Q88.49 10.18 88.31 9.78Q88.13 9.38 87.77 9.22Q87.41 9.05 86.86 9.05L86.86 9.05Q86.16 9.05 85.56 9.50Q84.96 9.96 84.53 10.75Q84.10 11.54 83.86 12.56Q83.62 13.58 83.62 14.69L83.62 14.69L83.62 19.15Q83.62 20.04 83.72 20.44Q83.83 20.83 84.17 20.93Q84.50 21.02 85.22 21.02L85.22 21.02L86.06 21.02L86.06 21.50ZM95.90 21.50L90.10 21.50L90.10 21.02L90.82 21.02Q91.70 21.02 92.09 20.93Q92.47 20.83 92.57 20.46Q92.66 20.09 92.66 19.25L92.66 19.25L92.66 10.99Q92.66 10.10 92.57 9.71Q92.47 9.31 92.12 9.22Q91.78 9.12 91.06 9.12L91.06 9.12L90.62 9.12L90.62 8.64L93.34 8.64L93.34 19.25Q93.34 20.09 93.43 20.46Q93.53 20.83 93.92 20.93Q94.32 21.02 95.18 21.02L95.18 21.02L95.90 21.02L95.90 21.50ZM92.88 5.71L92.88 5.71Q92.64 5.71 92.48 5.52Q92.33 5.33 92.33 4.75L92.33 4.75Q92.33 4.20 92.48 4.00Q92.64 3.79 92.88 3.79L92.88 3.79Q93.14 3.79 93.29 4.00Q93.43 4.20 93.43 4.75L93.43 4.75Q93.43 5.33 93.29 5.52Q93.14 5.71 92.88 5.71ZM102.89 21.50L96.94 21.50L96.94 21.02L97.70 21.02Q98.42 21.02 98.77 20.93Q99.12 20.83 99.22 20.44Q99.31 20.04 99.31 19.15L99.31 19.15L99.31 9.24L97.03 9.24L97.03 8.64L99.31 8.64L99.31 7.10Q99.31 5.14 100.27 4.06Q101.23 2.98 102.94 2.98L102.94 2.98Q103.70 2.98 104.26 3.24Q104.81 3.50 105.11 3.92Q105.41 4.34 105.41 4.78L105.41 4.78Q105.41 5.09 105.32 5.30Q105.24 5.52 105.12 5.62Q105 5.71 104.88 5.71L104.88 5.71Q104.88 5.11 104.71 4.63Q104.54 4.15 104.12 3.86Q103.70 3.58 102.89 3.58L102.89 3.58Q101.50 3.58 100.74 4.52Q99.98 5.47 99.98 7.10L99.98 7.10L99.98 8.64L103.44 8.64L103.44 9.24L99.98 9.24L99.98 19.15Q99.98 20.04 100.09 20.44Q100.20 20.83 100.54 20.93Q100.87 21.02 101.59 21.02L101.59 21.02L102.89 21.02L102.89 21.50ZM116.69 21.50L111.22 21.50L111.22 21.02L112.25 21.02Q112.85 21.02 113.14 20.88Q113.42 20.74 113.51 20.28Q113.59 19.82 113.59 18.91L113.59 18.91L113.59 6.96Q113.59 6.02 113.51 5.58Q113.42 5.14 113.14 4.99Q112.85 4.85 112.25 4.85L112.25 4.85L111.22 4.85L111.22 4.37L116.69 4.37L116.69 4.85L115.61 4.85Q115.01 4.85 114.72 4.99Q114.43 5.14 114.35 5.58Q114.26 6.02 114.26 6.96L114.26 6.96L114.26 12.24L124.03 12.24L124.03 6.96Q124.03 6.02 123.95 5.58Q123.86 5.14 123.58 4.99Q123.29 4.85 122.69 4.85L122.69 4.85L121.61 4.85L121.61 4.37L127.08 4.37L127.08 4.85L126.05 4.85Q125.45 4.85 125.16 4.99Q124.87 5.14 124.79 5.58Q124.70 6.02 124.70 6.96L124.70 6.96L124.70 18.91Q124.70 19.82 124.79 20.28Q124.87 20.74 125.16 20.88Q125.45 21.02 126.05 21.02L126.05 21.02L127.08 21.02L127.08 21.50L121.61 21.50L121.61 21.02L122.69 21.02Q123.29 21.02 123.58 20.88Q123.86 20.74 123.95 20.28Q124.03 19.82 124.03 18.91L124.03 18.91L124.03 12.84L114.26 12.84L114.26 18.91Q114.26 19.82 114.35 20.28Q114.43 20.74 114.72 20.88Q115.01 21.02 115.61 21.02L115.61 21.02L116.69 21.02L116.69 21.50ZM134.66 21.74L134.66 21.74Q132.43 21.74 131.12 20.05Q129.82 18.36 129.82 15.22L129.82 15.22Q129.82 11.81 131.02 10.15Q132.22 8.50 134.45 8.50L134.45 8.50Q136.44 8.50 137.58 10.09Q138.72 11.69 138.72 14.54L138.72 14.54L138.72 14.88L130.51 14.88Q130.49 18 131.65 19.57Q132.82 21.14 134.69 21.14L134.69 21.14Q136.06 21.14 136.90 20.53Q137.74 19.92 138.14 19.03L138.14 19.03Q138.26 19.10 138.31 19.20Q138.36 19.30 138.36 19.46L138.36 19.46Q138.36 19.87 137.94 20.41Q137.52 20.95 136.70 21.35Q135.89 21.74 134.66 21.74ZM130.56 14.30L138.05 14.30Q138.02 11.98 137.11 10.54Q136.20 9.10 134.42 9.10L134.42 9.10Q132.41 9.10 131.54 10.51Q130.68 11.93 130.56 14.30L130.56 14.30ZM147.53 21.74L147.53 21.74Q146.16 21.74 145.12 21.07Q144.07 20.40 143.57 19.13L143.57 19.13L143.50 19.13L143.42 21.50L140.50 21.50L140.50 21.02L141 21.02Q141.89 21.02 142.27 20.93Q142.66 20.83 142.75 20.46Q142.85 20.09 142.85 19.25L142.85 19.25L142.85 5.62Q142.85 4.73 142.75 4.33Q142.66 3.94 142.31 3.84Q141.96 3.74 141.24 3.74L141.24 3.74L140.50 3.74L140.50 3.26L143.52 3.26L143.52 8.06Q143.52 8.52 143.51 9.13Q143.50 9.74 143.47 10.38Q143.45 11.02 143.40 11.57L143.40 11.57L143.47 11.57Q143.95 10.08 145.00 9.26Q146.04 8.45 147.70 8.45L147.70 8.45Q150 8.45 151.08 10.03Q152.16 11.62 152.16 15.10L152.16 15.10Q152.16 17.30 151.58 18.78Q151.01 20.26 149.96 21Q148.92 21.74 147.53 21.74ZM147.62 21.14L147.62 21.14Q149.47 21.14 150.48 19.55Q151.49 17.95 151.49 15.02L151.49 15.02Q151.49 11.90 150.60 10.48Q149.71 9.05 147.60 9.05L147.60 9.05Q145.49 9.05 144.49 10.66Q143.50 12.26 143.50 15.05L143.50 15.05Q143.50 16.94 143.88 18.31Q144.26 19.68 145.16 20.41Q146.06 21.14 147.62 21.14ZM160.13 21.50L154.87 21.50L154.87 21.02L155.40 21.02Q156.12 21.02 156.47 20.93Q156.82 20.83 156.91 20.44Q157.01 20.04 157.01 19.15L157.01 19.15L157.01 10.90Q157.01 10.06 156.91 9.68Q156.82 9.31 156.43 9.22Q156.05 9.12 155.16 9.12L155.16 9.12L154.73 9.12L154.73 8.64L157.58 8.64L157.66 11.33L157.70 11.33Q157.99 10.63 158.41 9.97Q158.83 9.31 159.48 8.88Q160.13 8.45 161.04 8.45L161.04 8.45Q161.95 8.45 162.50 8.92Q163.06 9.38 163.06 10.08L163.06 10.08Q163.06 10.39 162.94 10.63Q162.82 10.87 162.55 10.87L162.55 10.87Q162.55 10.18 162.37 9.78Q162.19 9.38 161.83 9.22Q161.47 9.05 160.92 9.05L160.92 9.05Q160.22 9.05 159.62 9.50Q159.02 9.96 158.59 10.75Q158.16 11.54 157.92 12.56Q157.68 13.58 157.68 14.69L157.68 14.69L157.68 19.15Q157.68 20.04 157.79 20.44Q157.90 20.83 158.23 20.93Q158.57 21.02 159.29 21.02L159.29 21.02L160.13 21.02L160.13 21.50ZM169.80 21.74L169.80 21.74Q167.57 21.74 166.26 20.05Q164.95 18.36 164.95 15.22L164.95 15.22Q164.95 11.81 166.15 10.15Q167.35 8.50 169.58 8.50L169.58 8.50Q171.58 8.50 172.72 10.09Q173.86 11.69 173.86 14.54L173.86 14.54L173.86 14.88L165.65 14.88Q165.62 18 166.79 19.57Q167.95 21.14 169.82 21.14L169.82 21.14Q171.19 21.14 172.03 20.53Q172.87 19.92 173.28 19.03L173.28 19.03Q173.40 19.10 173.45 19.20Q173.50 19.30 173.50 19.46L173.50 19.46Q173.50 19.87 173.08 20.41Q172.66 20.95 171.84 21.35Q171.02 21.74 169.80 21.74ZM165.70 14.30L173.18 14.30Q173.16 11.98 172.25 10.54Q171.34 9.10 169.56 9.10L169.56 9.10Q167.54 9.10 166.68 10.51Q165.82 11.93 165.70 14.30L165.70 14.30ZM180.46 21.50L177.29 10.39Q177.14 9.82 177 9.55Q176.86 9.29 176.62 9.20Q176.38 9.12 175.87 9.12L175.87 9.12L175.32 9.12L175.32 8.64L179.40 8.64L179.40 9.12L178.75 9.12Q178.15 9.12 178.00 9.24Q177.84 9.36 177.84 9.60L177.84 9.60Q177.84 9.79 178.00 10.37Q178.15 10.94 178.25 11.30L178.25 11.30L179.76 16.70Q179.93 17.28 180.14 18.11Q180.36 18.94 180.56 19.69Q180.77 20.45 180.84 20.86L180.84 20.86L180.91 20.86Q180.98 20.45 181.24 19.66Q181.49 18.86 181.79 18Q182.09 17.14 182.28 16.56L182.28 16.56L185.02 8.64L185.86 8.64L188.45 16.15Q188.59 16.58 188.83 17.26Q189.07 17.93 189.32 18.65Q189.58 19.37 189.78 19.99Q189.98 20.62 190.06 20.95L190.06 20.95L190.13 20.95Q190.25 20.35 190.62 19.20Q190.99 18.05 191.45 16.58L191.45 16.58L193.13 11.23Q193.30 10.73 193.42 10.30Q193.54 9.86 193.54 9.60L193.54 9.60Q193.54 9.36 193.39 9.24Q193.25 9.12 192.62 9.12L192.62 9.12L191.74 9.12L191.74 8.64L195.96 8.64L195.96 9.12L195.43 9.12Q194.95 9.12 194.70 9.20Q194.45 9.29 194.33 9.53Q194.21 9.77 194.04 10.30L194.04 10.30L190.54 21.50L189.67 21.50L185.42 9.24L181.25 21.50L180.46 21.50ZM213.48 21.50L205.30 21.50L205.30 20.98L207.74 20.98Q208.34 20.98 208.63 20.84Q208.92 20.71 209.00 20.27Q209.09 19.82 209.09 18.91L209.09 18.91L209.09 5.30Q207.89 6.86 206.94 7.49Q205.99 8.11 205.15 8.11L205.15 8.11Q204.72 8.11 204.55 7.97Q204.38 7.82 204.38 7.63L204.38 7.63Q205.63 7.54 206.60 6.90Q207.58 6.26 208.54 5.14L208.54 5.14L209.28 4.27L209.76 4.27L209.76 18.91Q209.76 19.82 209.84 20.27Q209.93 20.71 210.22 20.84Q210.50 20.98 211.10 20.98L211.10 20.98L213.48 20.98L213.48 21.50ZM222.41 21.74L222.41 21.74Q220.61 21.74 219.43 20.81Q218.26 19.87 217.68 17.90Q217.10 15.94 217.10 12.89L217.10 12.89Q217.10 9.94 217.67 7.99Q218.23 6.05 219.41 5.09Q220.58 4.13 222.43 4.13L222.43 4.13Q224.18 4.13 225.35 5.08Q226.51 6.02 227.10 7.97Q227.69 9.91 227.69 12.91L227.69 12.91Q227.69 15.86 227.10 17.83Q226.51 19.80 225.35 20.77Q224.18 21.74 222.41 21.74ZM222.38 21.14L222.38 21.14Q224.02 21.14 225.04 20.23Q226.06 19.32 226.54 17.48Q227.02 15.65 227.02 12.91L227.02 12.91Q227.02 10.18 226.56 8.36Q226.10 6.55 225.10 5.64Q224.09 4.73 222.41 4.73L222.41 4.73Q220.68 4.73 219.66 5.68Q218.64 6.62 218.21 8.45Q217.78 10.27 217.78 12.91L217.78 12.91Q217.78 15.74 218.26 17.57Q218.74 19.39 219.76 20.27Q220.78 21.14 222.38 21.14ZM235.82 21.74L235.82 21.74Q234.02 21.74 232.85 20.81Q231.67 19.87 231.10 17.90Q230.52 15.94 230.52 12.89L230.52 12.89Q230.52 9.94 231.08 7.99Q231.65 6.05 232.82 5.09Q234.00 4.13 235.85 4.13L235.85 4.13Q237.60 4.13 238.76 5.08Q239.93 6.02 240.52 7.97Q241.10 9.91 241.10 12.91L241.10 12.91Q241.10 15.86 240.52 17.83Q239.93 19.80 238.76 20.77Q237.60 21.74 235.82 21.74ZM235.80 21.14L235.80 21.14Q237.43 21.14 238.45 20.23Q239.47 19.32 239.95 17.48Q240.43 15.65 240.43 12.91L240.43 12.91Q240.43 10.18 239.98 8.36Q239.52 6.55 238.51 5.64Q237.50 4.73 235.82 4.73L235.82 4.73Q234.10 4.73 233.08 5.68Q232.06 6.62 231.62 8.45Q231.19 10.27 231.19 12.91L231.19 12.91Q231.19 15.74 231.67 17.57Q232.15 19.39 233.17 20.27Q234.19 21.14 235.80 21.14ZM254.98 21.50L249.67 21.50L249.67 21.02L250.22 21.02Q251.11 21.02 251.50 20.93Q251.88 20.83 251.98 20.46Q252.07 20.09 252.07 19.25L252.07 19.25L252.07 10.90Q252.07 10.06 251.98 9.68Q251.88 9.31 251.53 9.22Q251.18 9.12 250.46 9.12L250.46 9.12L249.79 9.12L249.79 8.64L252.65 8.64L252.72 10.73L252.82 10.73Q253.54 9.46 254.48 8.98Q255.43 8.50 256.75 8.50L256.75 8.50Q258.82 8.50 259.76 9.59Q260.71 10.68 260.71 12.94L260.71 12.94L260.71 19.25Q260.71 20.09 260.81 20.46Q260.90 20.83 261.30 20.93Q261.70 21.02 262.56 21.02L262.56 21.02L262.92 21.02L262.92 21.50L260.04 21.50L260.04 12.74Q260.04 11.14 259.31 10.12Q258.58 9.10 256.75 9.10L256.75 9.10Q255.19 9.10 254.32 9.74Q253.44 10.39 253.09 11.40Q252.74 12.41 252.74 13.49L252.74 13.49L252.74 19.25Q252.74 20.09 252.84 20.46Q252.94 20.83 253.33 20.93Q253.73 21.02 254.59 21.02L254.59 21.02L254.98 21.02L254.98 21.50ZM269.93 21.74L269.93 21.74Q267.70 21.74 266.41 20.11Q265.13 18.48 265.13 15.10L265.13 15.10Q265.13 11.74 266.38 10.12Q267.62 8.50 270.05 8.50L270.05 8.50Q272.33 8.50 273.54 10.07Q274.75 11.64 274.75 15.10L274.75 15.10Q274.75 18.48 273.53 20.11Q272.30 21.74 269.93 21.74ZM269.93 21.14L269.93 21.14Q271.46 21.14 272.38 20.39Q273.29 19.63 273.68 18.28Q274.08 16.92 274.08 15.10L274.08 15.10Q274.08 12.02 273.11 10.56Q272.14 9.10 270.05 9.10L270.05 9.10Q267.79 9.10 266.80 10.60Q265.80 12.10 265.80 15.10L265.80 15.10Q265.80 17.95 266.80 19.55Q267.79 21.14 269.93 21.14ZM282.74 21.50L277.49 21.50L277.49 21.02L278.02 21.02Q278.74 21.02 279.08 20.93Q279.43 20.83 279.53 20.44Q279.62 20.04 279.62 19.15L279.62 19.15L279.62 10.90Q279.62 10.06 279.53 9.68Q279.43 9.31 279.05 9.22Q278.66 9.12 277.78 9.12L277.78 9.12L277.34 9.12L277.34 8.64L280.20 8.64L280.27 11.33L280.32 11.33Q280.61 10.63 281.03 9.97Q281.45 9.31 282.10 8.88Q282.74 8.45 283.66 8.45L283.66 8.45Q284.57 8.45 285.12 8.92Q285.67 9.38 285.67 10.08L285.67 10.08Q285.67 10.39 285.55 10.63Q285.43 10.87 285.17 10.87L285.17 10.87Q285.17 10.18 284.99 9.78Q284.81 9.38 284.45 9.22Q284.09 9.05 283.54 9.05L283.54 9.05Q282.84 9.05 282.24 9.50Q281.64 9.96 281.21 10.75Q280.78 11.54 280.54 12.56Q280.30 13.58 280.30 14.69L280.30 14.69L280.30 19.15Q280.30 20.04 280.40 20.44Q280.51 20.83 280.85 20.93Q281.18 21.02 281.90 21.02L281.90 21.02L282.74 21.02L282.74 21.50ZM292.34 21.50L286.94 21.50L286.94 21.02L287.50 21.02Q288.38 21.02 288.77 20.93Q289.15 20.83 289.25 20.46Q289.34 20.09 289.34 19.25L289.34 19.25L289.34 10.90Q289.34 10.06 289.25 9.68Q289.15 9.31 288.80 9.22Q288.46 9.12 287.74 9.12L287.74 9.12L287.33 9.12L287.33 8.64L289.92 8.64L289.99 10.87L290.11 10.87Q290.57 9.67 291.53 9.08Q292.49 8.50 293.74 8.50L293.74 8.50Q294.84 8.50 295.51 8.83Q296.18 9.17 296.56 9.72Q296.93 10.27 297.10 10.92L297.10 10.92L297.17 10.92Q297.55 9.94 298.45 9.22Q299.35 8.50 300.96 8.50L300.96 8.50Q302.88 8.50 303.77 9.61Q304.66 10.73 304.66 12.84L304.66 12.84L304.66 19.25Q304.66 20.09 304.75 20.46Q304.85 20.83 305.24 20.93Q305.64 21.02 306.50 21.02L306.50 21.02L306.74 21.02L306.74 21.50L303.98 21.50L303.98 12.74Q303.98 10.97 303.29 10.02Q302.59 9.07 300.96 9.07L300.96 9.07Q299.69 9.07 298.88 9.61Q298.08 10.15 297.71 11.08Q297.34 12.00 297.34 13.13L297.34 13.13L297.34 19.25Q297.34 20.09 297.43 20.46Q297.53 20.83 297.91 20.93Q298.30 21.02 299.18 21.02L299.18 21.02L299.54 21.02L299.54 21.50L296.66 21.50L296.66 12.74Q296.66 10.99 295.98 10.04Q295.30 9.10 293.59 9.10L293.59 9.10Q292.39 9.10 291.60 9.71Q290.81 10.32 290.41 11.32Q290.02 12.31 290.02 13.49L290.02 13.49L290.02 19.25Q290.02 20.09 290.11 20.46Q290.21 20.83 290.60 20.93Q291.00 21.02 291.86 21.02L291.86 21.02L292.34 21.02L292.34 21.50ZM312.14 21.74L312.14 21.74Q311.21 21.74 310.44 21.35Q309.67 20.95 309.22 20.11Q308.76 19.27 308.76 18L308.76 18Q308.76 16.10 310.12 15.22Q311.47 14.33 314.38 14.23L314.38 14.23L316.37 14.16L316.37 12.60Q316.37 11.57 316.15 10.79Q315.94 10.01 315.26 9.55Q314.59 9.10 313.22 9.10L313.22 9.10Q312.05 9.10 311.40 9.44Q310.75 9.79 310.51 10.45Q310.27 11.11 310.27 12.02L310.27 12.02Q310.03 12.02 309.90 11.76Q309.77 11.50 309.77 10.92L309.77 10.92Q309.77 10.42 310.06 9.85Q310.34 9.29 311.10 8.89Q311.86 8.50 313.22 8.50L313.22 8.50Q315.34 8.50 316.19 9.52Q317.04 10.54 317.04 12.24L317.04 12.24L317.04 18.86Q317.04 19.75 317.12 20.22Q317.21 20.69 317.50 20.86Q317.78 21.02 318.43 21.02L318.43 21.02L318.60 21.02L318.60 21.50L316.54 21.50L316.39 19.01L316.34 19.01Q316.08 19.51 315.54 20.16Q315.00 20.81 314.16 21.28Q313.32 21.74 312.14 21.74ZM312.24 21.14L312.24 21.14Q313.42 21.14 314.34 20.54Q315.26 19.94 315.82 19.08Q316.37 18.22 316.37 17.42L316.37 17.42L316.37 14.71L314.30 14.78Q312.43 14.83 311.38 15.24Q310.32 15.65 309.88 16.36Q309.43 17.06 309.43 18.02L309.43 18.02Q309.43 18.84 309.71 19.55Q309.98 20.26 310.61 20.70Q311.23 21.14 312.24 21.14ZM325.80 21.50L319.99 21.50L319.99 21.02L320.71 21.02Q321.60 21.02 321.98 20.93Q322.37 20.83 322.46 20.46Q322.56 20.09 322.56 19.25L322.56 19.25L322.56 5.62Q322.56 4.73 322.46 4.33Q322.37 3.94 322.02 3.84Q321.67 3.74 320.95 3.74L320.95 3.74L319.99 3.74L319.99 3.26L323.23 3.26L323.23 19.25Q323.23 20.09 323.33 20.46Q323.42 20.83 323.82 20.93Q324.22 21.02 325.08 21.02L325.08 21.02L325.80 21.02L325.80 21.50Z"/></svg>