<svg xmlns="http://www.w3.org/2000/svg" xmlns:xlink="http://www.w3.org/1999/xlink" width="221.49599999999998" height="29.592000000000002"><path fill="black" d="M1.84 6.67L10.14 6.67Q10.48 6.67 10.64 6.53Q10.81 6.38 10.94 6.25Q11.06 6.11 11.23 6.11L11.23 6.11Q11.34 6.11 11.41 6.17Q11.47 6.23 11.51 6.38L11.51 6.38L12.36 9.66Q12.41 9.82 12.36 9.91Q12.31 10.00 12.19 10.02L12.19 10.02Q12.05 10.06 11.96 9.99Q11.88 9.92 11.82 9.78L11.82 9.78Q11.35 8.63 11.01 8.08Q10.67 7.52 10.24 7.34Q9.82 7.16 9.11 7.16L9.11 7.16L4.44 7.16L4.44 22.38Q4.44 22.61 4.60 22.76Q4.75 22.91 5.03 22.93L5.03 22.93L6.58 23.06Q6.77 23.08 6.84 23.13Q6.91 23.18 6.91 23.28L6.91 23.28Q6.91 23.36 6.85 23.42Q6.79 23.47 6.62 23.47L6.62 23.47L1.84 23.47Q1.68 23.47 1.61 23.42Q1.55 23.36 1.55 23.28L1.55 23.28Q1.55 23.11 1.88 23.06L1.88 23.06L2.90 22.93Q3.18 22.90 3.33 22.75Q3.48 22.61 3.48 22.38L3.48 22.38L3.48 7.76Q3.48 7.54 3.33 7.39Q3.18 7.25 2.90 7.21L2.90 7.21L1.88 7.08Q1.55 7.03 1.55 6.86L1.55 6.86Q1.55 6.77 1.61 6.72Q1.68 6.67 1.84 6.67L1.84 6.67ZM3.72 15.74L3.72 15.25L8.54 15.25Q9.28 15.25 9.56 14.98Q9.84 14.70 9.84 13.88L9.84 13.88Q9.84 13.75 9.88 13.66Q9.92 13.57 10.04 13.54L10.04 13.54Q10.27 13.46 10.36 13.79L10.36 13.79L11.18 16.99Q11.22 17.12 11.18 17.20Q11.15 17.28 11.03 17.30L11.03 17.30Q10.92 17.32 10.84 17.26Q10.75 17.21 10.69 17.10L10.69 17.10Q10.45 16.55 10.24 16.25Q10.02 15.95 9.76 15.85Q9.50 15.74 9.11 15.74L9.11 15.74L3.72 15.74ZM16.80 17.53L16.42 17.41Q16.42 15.79 16.93 14.63Q17.45 13.46 18.26 12.84Q19.08 12.22 19.96 12.22L19.96 12.22Q20.93 12.22 21.47 12.71Q22.02 13.20 22.02 13.93L22.02 13.93Q22.02 14.27 21.86 14.48Q21.70 14.70 21.43 14.70L21.43 14.70Q21.17 14.70 20.99 14.52Q20.81 14.34 20.81 14.02L20.81 14.02L20.81 13.67Q20.81 13.20 20.57 12.98Q20.34 12.76 19.79 12.76L19.79 12.76Q19.09 12.76 18.40 13.30Q17.70 13.85 17.25 14.90Q16.80 15.96 16.80 17.53L16.80 17.53ZM16.80 12.70L16.80 12.70L16.80 15.70L16.80 22.37Q16.80 22.60 16.96 22.75Q17.11 22.90 17.38 22.92L17.38 22.92L18.56 23.05Q18.74 23.06 18.84 23.12Q18.94 23.17 18.94 23.28L18.94 23.28Q18.94 23.36 18.85 23.42Q18.77 23.47 18.61 23.47L18.61 23.47L14.57 23.47Q14.42 23.47 14.35 23.42Q14.27 23.36 14.27 23.28L14.27 23.28Q14.27 23.18 14.36 23.14Q14.45 23.09 14.62 23.06L14.62 23.06L15.38 22.93Q15.66 22.88 15.82 22.75Q15.97 22.61 15.97 22.38L15.97 22.38L15.97 13.75Q15.97 13.56 15.89 13.46Q15.80 13.37 15.59 13.37L15.59 13.37L14.41 13.37Q14.23 13.37 14.17 13.33Q14.10 13.28 14.10 13.21L14.10 13.21Q14.10 13.14 14.16 13.08Q14.22 13.02 14.39 12.98L14.39 12.98L15.91 12.50Q16.13 12.43 16.27 12.40Q16.42 12.37 16.51 12.37L16.51 12.37Q16.66 12.37 16.73 12.45Q16.80 12.53 16.80 12.70ZM31.10 22.10L31.10 22.10L31.10 21.89L31.10 21.77L31.10 15.53Q31.10 14.10 30.40 13.36Q29.70 12.62 28.38 12.62L28.38 12.62Q27.07 12.62 26.47 13.15Q25.86 13.68 25.86 14.39L25.86 14.39L25.86 15.07Q25.86 15.37 25.69 15.52Q25.52 15.67 25.26 15.67L25.26 15.67Q25.01 15.67 24.85 15.47Q24.68 15.28 24.68 14.99L24.68 14.99Q24.68 14.28 25.17 13.64Q25.66 13.01 26.53 12.61Q27.40 12.22 28.56 12.22L28.56 12.22Q30.26 12.22 31.10 13.06Q31.94 13.90 31.94 15.29L31.94 15.29L31.94 22.27Q31.94 22.78 32.12 22.97Q32.29 23.17 32.57 23.17L32.57 23.17Q32.93 23.17 33.06 23.02Q33.19 22.86 33.28 22.72L33.28 22.72Q33.32 22.64 33.37 22.59Q33.41 22.54 33.49 22.54L33.49 22.54Q33.56 22.54 33.61 22.59Q33.65 22.64 33.65 22.75L33.65 22.75Q33.65 22.98 33.51 23.20Q33.37 23.41 33.11 23.56Q32.86 23.71 32.48 23.71L32.48 23.71Q31.79 23.71 31.45 23.33Q31.10 22.96 31.10 22.10ZM24.07 21.01L24.07 21.01Q24.07 19.74 25.20 18.86Q26.33 17.98 28.30 17.98L28.30 17.98Q29.20 17.98 29.98 18.17Q30.77 18.36 31.40 18.62L31.40 18.62L31.36 19.03Q30.71 18.78 29.98 18.59Q29.26 18.41 28.40 18.41L28.40 18.41Q26.81 18.41 25.92 19.09Q25.03 19.78 25.03 20.92L25.03 20.92Q25.03 22.01 25.72 22.60Q26.41 23.20 27.47 23.20L27.47 23.20Q28.56 23.20 29.59 22.69Q30.62 22.19 31.42 21.22L31.42 21.22L31.63 21.53Q30.84 22.57 29.71 23.14Q28.57 23.71 27.31 23.71L27.31 23.71Q25.91 23.71 24.99 23.01Q24.07 22.31 24.07 21.01ZM44.51 22.76L44.51 22.76L44.51 21.58L44.51 21.47L44.51 13.76Q44.51 13.57 44.42 13.48Q44.34 13.38 44.14 13.38L44.14 13.38L42.95 13.38Q42.78 13.38 42.71 13.34Q42.64 13.30 42.64 13.22L42.64 13.22Q42.64 13.15 42.70 13.09Q42.77 13.03 42.92 13.00L42.92 13.00L44.45 12.50Q44.68 12.44 44.82 12.41Q44.96 12.38 45.05 12.38L45.05 12.38Q45.20 12.38 45.27 12.46Q45.34 12.54 45.34 12.71L45.34 12.71L45.34 22.37Q45.34 22.60 45.49 22.74Q45.65 22.88 45.92 22.93L45.92 22.93L46.64 23.05Q46.82 23.08 46.92 23.12Q47.02 23.17 47.02 23.28L47.02 23.28Q47.02 23.36 46.93 23.42Q46.85 23.47 46.69 23.47L46.69 23.47L45.16 23.47Q44.78 23.47 44.65 23.33Q44.51 23.20 44.51 22.76ZM37.18 20.35L37.18 20.35L37.18 13.76Q37.18 13.57 37.10 13.48Q37.02 13.38 36.80 13.38L36.80 13.38L35.63 13.38Q35.45 13.38 35.38 13.34Q35.30 13.30 35.30 13.22L35.30 13.22Q35.30 13.15 35.37 13.09Q35.44 13.03 35.60 13.00L35.60 13.00L37.13 12.50Q37.34 12.44 37.49 12.41Q37.64 12.38 37.73 12.38L37.73 12.38Q37.87 12.38 37.94 12.46Q38.02 12.54 38.02 12.71L38.02 12.71L38.02 20.18Q38.02 21.67 38.75 22.41Q39.49 23.15 40.68 23.15L40.68 23.15Q41.41 23.15 42.27 22.74Q43.13 22.33 44.21 21.42L44.21 21.42L44.78 20.93L45.10 21.22L44.47 21.74Q43.21 22.82 42.26 23.27Q41.32 23.71 40.38 23.71L40.38 23.71Q38.93 23.71 38.05 22.82Q37.18 21.94 37.18 20.35ZM51.94 12.70L51.94 12.70L51.94 22.37Q51.94 22.60 52.09 22.74Q52.25 22.88 52.51 22.93L52.51 22.93L53.24 23.05Q53.60 23.11 53.60 23.28L53.60 23.28Q53.60 23.47 53.29 23.47L53.29 23.47L49.70 23.47Q49.56 23.47 49.48 23.42Q49.40 23.36 49.40 23.28L49.40 23.28Q49.40 23.18 49.49 23.14Q49.58 23.09 49.75 23.06L49.75 23.06L50.52 22.93Q50.80 22.87 50.95 22.74Q51.11 22.61 51.11 22.38L51.11 22.38L51.11 13.75Q51.11 13.56 51.02 13.46Q50.94 13.37 50.72 13.37L50.72 13.37L49.55 13.37Q49.37 13.37 49.30 13.33Q49.24 13.28 49.24 13.21L49.24 13.21Q49.24 13.14 49.30 13.08Q49.36 13.02 49.52 12.98L49.52 12.98L51.05 12.50Q51.26 12.43 51.41 12.40Q51.56 12.37 51.65 12.37L51.65 12.37Q51.79 12.37 51.86 12.45Q51.94 12.53 51.94 12.70ZM52.24 14.51L51.66 14.99L51.35 14.71L51.98 14.17Q53.22 13.12 54.13 12.67Q55.03 12.22 55.94 12.22L55.94 12.22Q57.31 12.22 58.06 13.10Q58.80 13.99 58.99 15.58L58.99 15.58L59.84 22.30Q59.88 22.56 60.04 22.72Q60.20 22.88 60.50 22.94L60.50 22.94L61.16 23.06Q61.33 23.09 61.42 23.14Q61.51 23.18 61.51 23.28L61.51 23.28Q61.51 23.36 61.44 23.42Q61.37 23.47 61.21 23.47L61.21 23.47L57.60 23.47Q57.28 23.47 57.28 23.28L57.28 23.28Q57.28 23.11 57.64 23.05L57.64 23.05L58.40 22.93Q58.72 22.88 58.88 22.72Q59.05 22.55 59.02 22.30L59.02 22.30L58.14 15.73Q57.95 14.26 57.35 13.51Q56.76 12.77 55.64 12.77L55.64 12.77Q54.94 12.77 54.12 13.19Q53.30 13.62 52.24 14.51L52.24 14.51ZM72.30 14.95L72.30 14.95Q72.30 15.29 72.14 15.50Q71.98 15.71 71.71 15.71L71.71 15.71Q71.45 15.71 71.27 15.53Q71.09 15.35 71.09 15.04L71.09 15.04L71.09 14.69Q71.09 13.80 70.33 13.23Q69.56 12.66 68.20 12.66L68.20 12.66Q66.94 12.66 65.99 13.32Q65.04 13.98 64.51 15.14Q63.97 16.30 63.97 17.78L63.97 17.78Q63.97 19.46 64.55 20.64Q65.12 21.82 66.13 22.43Q67.13 23.05 68.42 23.05L68.42 23.05Q69.80 23.05 70.79 22.30Q71.77 21.55 71.96 20.47L71.96 20.47Q71.99 20.34 72.04 20.29Q72.10 20.24 72.20 20.24L72.20 20.24Q72.32 20.24 72.36 20.31Q72.40 20.38 72.38 20.46L72.38 20.46Q72.25 21.38 71.68 22.12Q71.11 22.86 70.23 23.29Q69.35 23.71 68.26 23.71L68.26 23.71Q66.66 23.71 65.49 23.02Q64.32 22.32 63.69 21.05Q63.06 19.79 63.06 18.07L63.06 18.07Q63.06 16.44 63.73 15.12Q64.39 13.80 65.59 13.01Q66.79 12.22 68.40 12.22L68.40 12.22Q69.60 12.22 70.48 12.60Q71.36 12.98 71.83 13.61Q72.30 14.24 72.30 14.95ZM83.90 16.63L83.90 16.63Q83.90 16.99 83.66 17.17Q83.42 17.35 82.94 17.35L82.94 17.35L74.90 17.35L74.90 16.90L82.38 16.90Q82.93 16.90 82.93 16.44L82.93 16.44Q82.93 14.78 82.01 13.72Q81.08 12.66 79.54 12.66L79.54 12.66Q78.29 12.66 77.36 13.32Q76.43 13.98 75.91 15.14Q75.38 16.30 75.38 17.78L75.38 17.78Q75.38 20.29 76.63 21.67Q77.88 23.05 79.84 23.05L79.84 23.05Q81.28 23.05 82.30 22.29Q83.32 21.53 83.52 20.42L83.52 20.42Q83.53 20.30 83.59 20.25Q83.64 20.20 83.74 20.20L83.74 20.20Q83.86 20.20 83.90 20.27Q83.95 20.34 83.94 20.44L83.94 20.44Q83.82 21.36 83.23 22.10Q82.64 22.85 81.72 23.28Q80.80 23.71 79.66 23.71L79.66 23.71Q78.07 23.71 76.90 23.02Q75.73 22.32 75.10 21.05Q74.47 19.79 74.47 18.07L74.47 18.07Q74.47 16.44 75.11 15.12Q75.76 13.80 76.91 13.01Q78.07 12.22 79.63 12.22L79.63 12.22Q80.84 12.22 81.82 12.77Q82.79 13.33 83.35 14.32Q83.90 15.31 83.90 16.63ZM90.80 23.24L90.80 23.24Q91.85 23.24 92.48 22.66Q93.12 22.08 93.12 21.13L93.12 21.13Q93.12 20.53 92.83 20.06Q92.53 19.58 91.82 19.20Q91.10 18.82 89.86 18.46L89.86 18.46Q88.57 18.07 87.78 17.56Q86.99 17.05 86.63 16.42Q86.28 15.79 86.28 15.08L86.28 15.08Q86.28 13.84 87.20 13.03Q88.12 12.23 89.74 12.23L89.74 12.23Q90.38 12.23 90.84 12.35Q91.30 12.47 91.62 12.59Q91.94 12.72 92.18 12.72L92.18 12.72Q92.39 12.72 92.48 12.59Q92.58 12.47 92.66 12.34Q92.74 12.22 92.88 12.22L92.88 12.22Q92.96 12.22 93.02 12.26Q93.08 12.31 93.13 12.44L93.13 12.44L94.19 15.23Q94.25 15.35 94.23 15.47Q94.21 15.59 94.08 15.65L94.08 15.65Q93.96 15.70 93.87 15.64Q93.78 15.58 93.72 15.46L93.72 15.46Q93.22 14.34 92.57 13.75Q91.93 13.15 91.21 12.93Q90.49 12.71 89.74 12.71L89.74 12.71Q88.38 12.71 87.70 13.30Q87.01 13.90 87.01 14.89L87.01 14.89Q87.01 15.47 87.31 15.97Q87.60 16.46 88.33 16.89Q89.05 17.32 90.34 17.69L90.34 17.69Q91.62 18.06 92.39 18.51Q93.16 18.96 93.49 19.57Q93.83 20.17 93.83 20.98L93.83 20.98Q93.83 21.76 93.46 22.38Q93.10 23.00 92.39 23.36Q91.69 23.72 90.71 23.72L90.71 23.72Q90.07 23.72 89.65 23.57Q89.22 23.41 88.93 23.26Q88.64 23.10 88.39 23.10L88.39 23.10Q88.19 23.10 88.10 23.26Q88.02 23.41 87.96 23.57Q87.90 23.72 87.76 23.72L87.76 23.72Q87.70 23.72 87.65 23.68Q87.60 23.64 87.58 23.56L87.58 23.56L86.96 20.94Q86.89 20.64 86.90 20.50Q86.90 20.36 87.02 20.33L87.02 20.33Q87.14 20.29 87.23 20.38Q87.31 20.46 87.41 20.68L87.41 20.68Q88.00 22.02 88.89 22.63Q89.78 23.24 90.80 23.24ZM102.80 7.90L102.80 7.90L105.04 7.90Q105.43 7.90 105.58 8.05Q105.73 8.20 105.73 8.62L105.73 8.62L105.73 22.14Q105.73 22.46 105.52 22.64Q105.30 22.82 104.90 22.86L104.90 22.86L102.76 23.05Q102.38 23.09 102.38 23.27L102.38 23.27Q102.38 23.36 102.48 23.42Q102.58 23.47 102.72 23.47L102.72 23.47L109.50 23.47Q109.68 23.47 109.76 23.42Q109.85 23.38 109.85 23.28L109.85 23.28Q109.85 23.10 109.46 23.06L109.46 23.06L107.54 22.86Q107.08 22.81 106.90 22.64Q106.72 22.46 106.72 22.14L106.72 22.14L106.72 6.54Q106.72 6.17 106.45 6.17L106.45 6.17Q106.32 6.17 106.24 6.25Q106.16 6.34 106.10 6.54L106.10 6.54Q105.94 7.08 105.68 7.25Q105.42 7.42 105.02 7.42L105.02 7.42L102.79 7.42Q102.60 7.42 102.50 7.48Q102.40 7.54 102.40 7.64L102.40 7.64Q102.40 7.79 102.50 7.84Q102.61 7.90 102.80 7.90ZM117.97 6.46L117.97 6.46Q119.84 6.46 121.16 7.51Q122.47 8.56 123.16 10.50Q123.85 12.44 123.85 15.13L123.85 15.13Q123.85 17.81 123.12 19.73Q122.39 21.66 121.03 22.69Q119.68 23.71 117.85 23.71L117.85 23.71Q115.99 23.71 114.67 22.66Q113.35 21.61 112.66 19.67Q111.97 17.72 111.97 15.04L111.97 15.04Q111.97 12.35 112.71 10.43Q113.45 8.51 114.80 7.48Q116.16 6.46 117.97 6.46ZM122.86 15.43L122.86 15.43Q122.86 12.53 122.27 10.64Q121.68 8.76 120.57 7.85Q119.46 6.94 117.92 6.94L117.92 6.94Q116.42 6.94 115.31 7.87Q114.20 8.81 113.59 10.55Q112.97 12.29 112.97 14.74L112.97 14.74Q112.97 17.64 113.56 19.52Q114.16 21.41 115.27 22.31Q116.38 23.22 117.91 23.22L117.91 23.22Q119.40 23.22 120.52 22.29Q121.63 21.36 122.24 19.61Q122.86 17.87 122.86 15.43ZM132.25 6.46L132.25 6.46Q134.12 6.46 135.44 7.51Q136.75 8.56 137.44 10.50Q138.13 12.44 138.13 15.13L138.13 15.13Q138.13 17.81 137.40 19.73Q136.67 21.66 135.31 22.69Q133.96 23.71 132.13 23.71L132.13 23.71Q130.27 23.71 128.95 22.66Q127.63 21.61 126.94 19.67Q126.25 17.72 126.25 15.04L126.25 15.04Q126.25 12.35 126.99 10.43Q127.73 8.51 129.08 7.48Q130.44 6.46 132.25 6.46ZM137.14 15.43L137.14 15.43Q137.14 12.53 136.55 10.64Q135.96 8.76 134.85 7.85Q133.74 6.94 132.20 6.94L132.20 6.94Q130.70 6.94 129.59 7.87Q128.48 8.81 127.87 10.55Q127.25 12.29 127.25 14.74L127.25 14.74Q127.25 17.64 127.84 19.52Q128.44 21.41 129.55 22.31Q130.66 23.22 132.19 23.22L132.19 23.22Q133.68 23.22 134.80 22.29Q135.91 21.36 136.52 19.61Q137.14 17.87 137.14 15.43ZM148.92 12.70L148.92 12.70L148.92 22.37Q148.92 22.60 149.08 22.74Q149.23 22.88 149.50 22.93L149.50 22.93L150.23 23.05Q150.59 23.11 150.59 23.28L150.59 23.28Q150.59 23.47 150.28 23.47L150.28 23.47L146.69 23.47Q146.54 23.47 146.47 23.42Q146.39 23.36 146.39 23.28L146.39 23.28Q146.39 23.18 146.48 23.14Q146.57 23.09 146.74 23.06L146.74 23.06L147.50 22.93Q147.78 22.87 147.94 22.74Q148.09 22.61 148.09 22.38L148.09 22.38L148.09 13.75Q148.09 13.56 148.01 13.46Q147.92 13.37 147.71 13.37L147.71 13.37L146.53 13.37Q146.35 13.37 146.29 13.33Q146.22 13.28 146.22 13.21L146.22 13.21Q146.22 13.14 146.28 13.08Q146.34 13.02 146.51 12.98L146.51 12.98L148.03 12.50Q148.25 12.43 148.40 12.40Q148.55 12.37 148.63 12.37L148.63 12.37Q148.78 12.37 148.85 12.45Q148.92 12.53 148.92 12.70ZM149.22 14.51L148.64 14.99L148.33 14.71L148.97 14.17Q150.20 13.12 151.11 12.67Q152.02 12.22 152.93 12.22L152.93 12.22Q154.30 12.22 155.04 13.10Q155.78 13.99 155.98 15.58L155.98 15.58L156.83 22.30Q156.86 22.56 157.03 22.72Q157.19 22.88 157.49 22.94L157.49 22.94L158.15 23.06Q158.32 23.09 158.41 23.14Q158.50 23.18 158.50 23.28L158.50 23.28Q158.50 23.36 158.42 23.42Q158.35 23.47 158.20 23.47L158.20 23.47L154.58 23.47Q154.26 23.47 154.26 23.28L154.26 23.28Q154.26 23.11 154.62 23.05L154.62 23.05L155.39 22.93Q155.70 22.88 155.87 22.72Q156.04 22.55 156.00 22.30L156.00 22.30L155.12 15.73Q154.93 14.26 154.34 13.51Q153.74 12.77 152.63 12.77L152.63 12.77Q151.92 12.77 151.10 13.19Q150.29 13.62 149.22 14.51L149.22 14.51ZM165.48 12.23L165.48 12.23Q167.06 12.23 168.29 12.97Q169.52 13.70 170.23 14.99Q170.93 16.28 170.93 17.96L170.93 17.96Q170.93 19.64 170.23 20.94Q169.54 22.24 168.31 22.97Q167.09 23.71 165.47 23.71L165.47 23.71Q163.90 23.71 162.67 22.97Q161.44 22.24 160.73 20.94Q160.03 19.64 160.03 17.98L160.03 17.98Q160.03 16.28 160.72 14.99Q161.41 13.70 162.64 12.97Q163.87 12.23 165.48 12.23ZM166.30 23.14L166.30 23.14Q167.66 22.97 168.55 22.19Q169.44 21.42 169.81 20.19Q170.17 18.96 169.96 17.40L169.96 17.40Q169.74 15.79 169.00 14.70Q168.26 13.61 167.15 13.12Q166.03 12.62 164.65 12.80L164.65 12.80Q163.28 12.97 162.40 13.74Q161.51 14.51 161.14 15.74Q160.78 16.98 160.99 18.53L160.99 18.53Q161.22 20.14 161.95 21.23Q162.68 22.32 163.81 22.82Q164.93 23.32 166.30 23.14ZM176.04 17.53L175.66 17.41Q175.66 15.79 176.17 14.63Q176.69 13.46 177.50 12.84Q178.32 12.22 179.20 12.22L179.20 12.22Q180.17 12.22 180.71 12.71Q181.26 13.20 181.26 13.93L181.26 13.93Q181.26 14.27 181.10 14.48Q180.94 14.70 180.67 14.70L180.67 14.70Q180.41 14.70 180.23 14.52Q180.05 14.34 180.05 14.02L180.05 14.02L180.05 13.67Q180.05 13.20 179.81 12.98Q179.58 12.76 179.03 12.76L179.03 12.76Q178.33 12.76 177.64 13.30Q176.94 13.85 176.49 14.90Q176.04 15.96 176.04 17.53L176.04 17.53ZM176.04 12.70L176.04 12.70L176.04 15.70L176.04 22.37Q176.04 22.60 176.20 22.75Q176.35 22.90 176.62 22.92L176.62 22.92L177.80 23.05Q177.98 23.06 178.08 23.12Q178.18 23.17 178.18 23.28L178.18 23.28Q178.18 23.36 178.09 23.42Q178.01 23.47 177.85 23.47L177.85 23.47L173.81 23.47Q173.66 23.47 173.59 23.42Q173.51 23.36 173.51 23.28L173.51 23.28Q173.51 23.18 173.60 23.14Q173.69 23.09 173.86 23.06L173.86 23.06L174.62 22.93Q174.90 22.88 175.06 22.75Q175.21 22.61 175.21 22.38L175.21 22.38L175.21 13.75Q175.21 13.56 175.13 13.46Q175.04 13.37 174.83 13.37L174.83 13.37L173.65 13.37Q173.47 13.37 173.41 13.33Q173.34 13.28 173.34 13.21L173.34 13.21Q173.34 13.14 173.40 13.08Q173.46 13.02 173.63 12.98L173.63 12.98L175.15 12.50Q175.37 12.43 175.51 12.40Q175.66 12.37 175.75 12.37L175.75 12.37Q175.90 12.37 175.97 12.45Q176.04 12.53 176.04 12.70ZM185.58 12.70L185.58 12.70L185.58 22.37Q185.58 22.60 185.74 22.74Q185.89 22.88 186.16 22.93L186.16 22.93L186.89 23.05Q187.25 23.11 187.25 23.28L187.25 23.28Q187.25 23.47 186.94 23.47L186.94 23.47L183.35 23.47Q183.20 23.47 183.13 23.42Q183.05 23.36 183.05 23.28L183.05 23.28Q183.05 23.18 183.14 23.14Q183.23 23.09 183.40 23.06L183.40 23.06L184.16 22.93Q184.44 22.87 184.60 22.74Q184.75 22.61 184.75 22.38L184.75 22.38L184.75 13.75Q184.75 13.56 184.67 13.46Q184.58 13.37 184.37 13.37L184.37 13.37L183.19 13.37Q183.01 13.37 182.95 13.33Q182.88 13.28 182.88 13.21L182.88 13.21Q182.88 13.14 182.94 13.08Q183.00 13.02 183.17 12.98L183.17 12.98L184.69 12.50Q184.91 12.43 185.06 12.40Q185.21 12.37 185.29 12.37L185.29 12.37Q185.44 12.37 185.51 12.45Q185.58 12.53 185.58 12.70ZM185.88 14.51L185.30 14.99L184.99 14.71L185.62 14.17Q186.90 13.09 187.86 12.65Q188.82 12.22 189.77 12.22L189.77 12.22Q191.23 12.22 192.13 13.10Q193.02 13.98 193.02 15.58L193.02 15.58L193.02 22.30Q193.02 22.56 193.20 22.72Q193.38 22.88 193.68 22.94L193.68 22.94L194.34 23.06Q194.68 23.12 194.68 23.28L194.68 23.28Q194.68 23.47 194.39 23.47L194.39 23.47L190.78 23.47Q190.45 23.47 190.45 23.28L190.45 23.28Q190.45 23.11 190.81 23.05L190.81 23.05L191.58 22.93Q191.89 22.88 192.04 22.72Q192.19 22.55 192.19 22.30L192.19 22.30L192.19 15.73Q192.19 14.24 191.44 13.51Q190.68 12.77 189.47 12.77L189.47 12.77Q188.72 12.77 187.85 13.18Q186.97 13.58 185.88 14.51L185.88 14.51ZM193.32 14.51L192.73 14.99L192.43 14.71L193.06 14.17Q194.30 13.12 195.21 12.67Q196.12 12.22 197.02 12.22L197.02 12.22Q198.41 12.22 199.14 13.10Q199.87 13.99 200.08 15.58L200.08 15.58L200.93 22.30Q200.96 22.56 201.13 22.72Q201.29 22.88 201.59 22.94L201.59 22.94L202.25 23.06Q202.40 23.09 202.49 23.14Q202.58 23.18 202.58 23.28L202.58 23.28Q202.58 23.36 202.51 23.42Q202.44 23.47 202.30 23.47L202.30 23.47L198.67 23.47Q198.36 23.47 198.36 23.28L198.36 23.28Q198.36 23.11 198.71 23.05L198.71 23.05L199.49 22.93Q199.80 22.88 199.96 22.72Q200.12 22.55 200.09 22.30L200.09 22.30L199.22 15.73Q199.03 14.26 198.43 13.51Q197.83 12.77 196.72 12.77L196.72 12.77Q196.01 12.77 195.19 13.19Q194.38 13.62 193.32 14.51L193.32 14.51ZM211.50 22.10L211.50 22.10L211.50 21.89L211.50 21.77L211.50 15.53Q211.50 14.10 210.80 13.36Q210.10 12.62 208.78 12.62L208.78 12.62Q207.47 12.62 206.86 13.15Q206.26 13.68 206.26 14.39L206.26 14.39L206.26 15.07Q206.26 15.37 206.09 15.52Q205.92 15.67 205.66 15.67L205.66 15.67Q205.40 15.67 205.24 15.47Q205.08 15.28 205.08 14.99L205.08 14.99Q205.08 14.28 205.57 13.64Q206.05 13.01 206.92 12.61Q207.79 12.22 208.96 12.22L208.96 12.22Q210.66 12.22 211.50 13.06Q212.34 13.90 212.34 15.29L212.34 15.29L212.34 22.27Q212.34 22.78 212.51 22.97Q212.69 23.17 212.96 23.17L212.96 23.17Q213.32 23.17 213.46 23.02Q213.59 22.86 213.67 22.72L213.67 22.72Q213.72 22.64 213.76 22.59Q213.80 22.54 213.89 22.54L213.89 22.54Q213.96 22.54 214.00 22.59Q214.04 22.64 214.04 22.75L214.04 22.75Q214.04 22.98 213.91 23.20Q213.77 23.41 213.51 23.56Q213.25 23.71 212.88 23.71L212.88 23.71Q212.18 23.71 211.84 23.33Q211.50 22.96 211.50 22.10ZM204.47 21.01L204.47 21.01Q204.47 19.74 205.60 18.86Q206.72 17.98 208.69 17.98L208.69 17.98Q209.59 17.98 210.38 18.17Q211.16 18.36 211.80 18.62L211.80 18.62L211.75 19.03Q211.10 18.78 210.38 18.59Q209.65 18.41 208.80 18.41L208.80 18.41Q207.20 18.41 206.32 19.09Q205.43 19.78 205.43 20.92L205.43 20.92Q205.43 22.01 206.12 22.60Q206.81 23.20 207.86 23.20L207.86 23.20Q208.96 23.20 209.99 22.69Q211.02 22.19 211.81 21.22L211.81 21.22L212.03 21.53Q211.24 22.57 210.10 23.14Q208.97 23.71 207.71 23.71L207.71 23.71Q206.30 23.71 205.39 23.01Q204.47 22.31 204.47 21.01ZM218.82 6.38L218.82 6.38L218.82 22.37Q218.82 22.60 218.98 22.74Q219.13 22.88 219.41 22.93L219.41 22.93L220.13 23.05Q220.31 23.08 220.40 23.12Q220.50 23.17 220.50 23.28L220.50 23.28Q220.50 23.36 220.42 23.42Q220.33 23.47 220.18 23.47L220.18 23.47L216.59 23.47Q216.44 23.47 216.37 23.42Q216.29 23.36 216.29 23.28L216.29 23.28Q216.29 23.18 216.38 23.14Q216.47 23.09 216.64 23.06L216.64 23.06L217.40 22.93Q217.68 22.87 217.84 22.74Q217.99 22.61 217.99 22.38L217.99 22.38L217.99 7.44Q217.99 7.24 217.91 7.14Q217.82 7.04 217.61 7.04L217.61 7.04L216.43 7.04Q216.26 7.04 216.19 7.00Q216.12 6.96 216.12 6.90L216.12 6.90Q216.12 6.83 216.19 6.77Q216.25 6.71 216.41 6.66L216.41 6.66L217.93 6.18Q218.16 6.11 218.30 6.08Q218.45 6.05 218.53 6.05L218.53 6.05Q218.69 6.05 218.75 6.13Q218.82 6.20 218.82 6.38Z"/></svg>