<svg xmlns="http://www.w3.org/2000/svg" xmlns:xlink="http://www.w3.org/1999/xlink" width="482.64000000000016" height="30"><path fill="black" d="M19.06 24L4.13 24L4.13 7.20L8.21 7.20L8.21 20.40L19.06 20.40L19.06 24ZM33.14 24.24L33.14 24.24Q30.48 24.24 28.48 23.39Q26.47 22.54 25.37 21.05Q24.26 19.56 24.26 17.69L24.26 17.69Q24.26 16.13 24.94 14.89Q25.61 13.66 26.77 12.79Q27.94 11.93 29.46 11.46Q30.98 10.99 32.66 10.99L32.66 10.99Q34.37 10.99 35.82 11.46Q37.27 11.93 38.36 12.78Q39.46 13.63 40.06 14.81Q40.66 15.98 40.61 17.42L40.61 17.42L40.58 18.60L27.07 18.60L26.52 16.20L37.46 16.20L37.06 16.75L37.06 16.27Q36.96 15.62 36.35 15.13Q35.74 14.64 34.79 14.35Q33.84 14.06 32.71 14.06L32.71 14.06Q31.42 14.06 30.31 14.40Q29.21 14.74 28.54 15.47Q27.86 16.20 27.86 17.40L27.86 17.40Q27.86 18.43 28.60 19.26Q29.33 20.09 30.66 20.57Q31.99 21.05 33.79 21.05L33.79 21.05Q35.62 21.05 36.74 20.65Q37.87 20.26 38.42 19.97L38.42 19.97L40.06 22.42Q39.17 22.97 38.06 23.39Q36.96 23.81 35.71 24.02Q34.46 24.24 33.14 24.24ZM64.99 24L59.83 24L55.03 18.70L54.46 18.07L48.07 11.26L53.28 11.26L57.26 15.91L57.86 16.58L64.99 24ZM52.58 24L47.47 24L54.05 16.75L56.78 18.94L52.58 24ZM64.99 11.26L58.25 18.48L55.63 16.18L59.88 11.26L64.99 11.26ZM79.56 24.24L79.56 24.24Q76.90 24.24 74.89 23.39Q72.89 22.54 71.78 21.05Q70.68 19.56 70.68 17.69L70.68 17.69Q70.68 16.13 71.35 14.89Q72.02 13.66 73.19 12.79Q74.35 11.93 75.88 11.46Q77.40 10.99 79.08 10.99L79.08 10.99Q80.78 10.99 82.24 11.46Q83.69 11.93 84.78 12.78Q85.87 13.63 86.47 14.81Q87.07 15.98 87.02 17.42L87.02 17.42L87 18.60L73.49 18.60L72.94 16.20L83.88 16.20L83.47 16.75L83.47 16.27Q83.38 15.62 82.76 15.13Q82.15 14.64 81.20 14.35Q80.26 14.06 79.13 14.06L79.13 14.06Q77.83 14.06 76.73 14.40Q75.62 14.74 74.95 15.47Q74.28 16.20 74.28 17.40L74.28 17.40Q74.28 18.43 75.01 19.26Q75.74 20.09 77.08 20.57Q78.41 21.05 80.21 21.05L80.21 21.05Q82.03 21.05 83.16 20.65Q84.29 20.26 84.84 19.97L84.84 19.97L86.47 22.42Q85.58 22.97 84.48 23.39Q83.38 23.81 82.13 24.02Q80.88 24.24 79.56 24.24ZM95.30 24L95.30 24L95.30 11.26L98.93 11.26L99.07 14.81L97.97 15.05Q98.35 14.02 99.20 13.09Q100.06 12.17 101.34 11.58Q102.62 10.99 104.23 10.99L104.23 10.99Q106.15 10.99 107.48 11.74Q108.82 12.48 109.50 13.72Q110.18 14.95 110.18 16.49L110.18 16.49L110.18 24L106.34 24L106.34 17.38Q106.34 16.44 105.90 15.73Q105.46 15.02 104.69 14.63Q103.92 14.23 102.94 14.23L102.94 14.23Q102.02 14.23 101.32 14.56Q100.61 14.88 100.13 15.37Q99.65 15.86 99.40 16.43Q99.14 16.99 99.14 17.50L99.14 17.50L99.14 24L97.22 24Q96.26 24 95.78 24Q95.30 24 95.30 24ZM124.97 24.26L124.97 24.26Q122.76 24.26 121.15 23.42Q119.54 22.58 118.67 21.07Q117.79 19.56 117.79 17.64L117.79 17.64Q117.79 15.70 118.73 14.20Q119.66 12.70 121.34 11.84Q123.02 10.99 125.23 10.99L125.23 10.99Q126.55 10.99 127.67 11.28Q128.78 11.57 129.62 12.04Q130.46 12.50 130.97 13.08Q131.47 13.66 131.54 14.23L131.54 14.23L130.63 14.45L130.63 6.24L134.50 6.24L134.50 24L130.92 24L130.70 20.62L131.47 20.93Q131.40 21.50 130.86 22.10Q130.32 22.70 129.43 23.18Q128.54 23.66 127.40 23.96Q126.26 24.26 124.97 24.26ZM126.17 20.93L126.17 20.93Q127.56 20.93 128.59 20.51Q129.62 20.09 130.18 19.34Q130.73 18.60 130.73 17.64L130.73 17.64Q130.73 16.66 130.18 15.92Q129.62 15.19 128.59 14.77Q127.56 14.35 126.17 14.35L126.17 14.35Q124.80 14.35 123.78 14.77Q122.76 15.19 122.18 15.92Q121.61 16.66 121.61 17.64L121.61 17.64Q121.61 18.60 122.18 19.34Q122.76 20.09 123.78 20.51Q124.80 20.93 126.17 20.93ZM170.59 24L153.67 24L153.67 21.29L165.48 9.29L167.47 10.99L154.30 10.99L154.30 7.20L170.33 7.20L170.33 9.89L158.52 21.91L156.55 20.38L170.59 20.38L170.59 24ZM184.56 24.24L184.56 24.24Q181.90 24.24 179.89 23.39Q177.89 22.54 176.78 21.05Q175.68 19.56 175.68 17.69L175.68 17.69Q175.68 16.13 176.35 14.89Q177.02 13.66 178.19 12.79Q179.35 11.93 180.88 11.46Q182.40 10.99 184.08 10.99L184.08 10.99Q185.78 10.99 187.24 11.46Q188.69 11.93 189.78 12.78Q190.87 13.63 191.47 14.81Q192.07 15.98 192.02 17.42L192.02 17.42L192.00 18.60L178.49 18.60L177.94 16.20L188.88 16.20L188.47 16.75L188.47 16.27Q188.38 15.62 187.76 15.13Q187.15 14.64 186.20 14.35Q185.26 14.06 184.13 14.06L184.13 14.06Q182.83 14.06 181.73 14.40Q180.62 14.74 179.95 15.47Q179.28 16.20 179.28 17.40L179.28 17.40Q179.28 18.43 180.01 19.26Q180.74 20.09 182.08 20.57Q183.41 21.05 185.21 21.05L185.21 21.05Q187.03 21.05 188.16 20.65Q189.29 20.26 189.84 19.97L189.84 19.97L191.47 22.42Q190.58 22.97 189.48 23.39Q188.38 23.81 187.13 24.02Q185.88 24.24 184.56 24.24ZM205.66 24L201.82 24L201.82 7.32L205.66 7.32L205.66 24ZM210.05 14.62L198.12 14.62L198.12 11.26L210.05 11.26L210.05 14.62ZM223.97 24L220.13 24L220.13 7.32L223.97 7.32L223.97 24ZM228.36 14.62L216.43 14.62L216.43 11.26L228.36 11.26L228.36 14.62ZM241.99 24.22L241.99 24.22Q239.69 24.22 238.02 23.38Q236.35 22.54 235.45 21.05Q234.55 19.56 234.55 17.64L234.55 17.64Q234.55 15.70 235.49 14.20Q236.42 12.70 238.10 11.84Q239.78 10.99 242.04 10.99L242.04 10.99Q243.36 10.99 244.49 11.29Q245.62 11.59 246.48 12.07Q247.34 12.55 247.85 13.09Q248.35 13.63 248.45 14.14L248.45 14.14L247.49 14.28L247.49 11.26L251.28 11.26L251.28 24L247.42 24L247.42 20.45L248.18 20.78Q248.14 21.36 247.62 21.96Q247.10 22.56 246.26 23.08Q245.42 23.59 244.32 23.90Q243.22 24.22 241.99 24.22ZM242.95 20.98L242.95 20.98Q244.37 20.98 245.39 20.56Q246.41 20.14 246.97 19.38Q247.54 18.62 247.54 17.64L247.54 17.64Q247.54 16.63 246.97 15.89Q246.41 15.14 245.39 14.70Q244.37 14.26 242.95 14.26L242.95 14.26Q241.58 14.26 240.55 14.70Q239.52 15.14 238.94 15.89Q238.37 16.63 238.37 17.64L238.37 17.64Q238.37 18.62 238.94 19.38Q239.52 20.14 240.55 20.56Q241.58 20.98 242.95 20.98ZM277.13 24L273.05 24L279.77 8.69L280.92 10.61L270.46 10.61L270.46 7.06L283.08 7.06L283.46 9L277.13 24ZM296.45 24.24L296.45 24.24Q293.64 24.24 291.73 23.15Q289.82 22.06 288.85 20.10Q287.88 18.14 287.88 15.60L287.88 15.60Q287.88 13.03 288.85 11.09Q289.82 9.14 291.73 8.05Q293.64 6.96 296.45 6.96L296.45 6.96Q299.21 6.96 301.07 8.05Q302.93 9.14 303.86 11.09Q304.80 13.03 304.80 15.60L304.80 15.60Q304.80 18.14 303.86 20.10Q302.93 22.06 301.07 23.15Q299.21 24.24 296.45 24.24ZM296.45 20.78L296.45 20.78Q298.56 20.78 299.74 19.44Q300.91 18.10 300.91 15.60L300.91 15.60Q300.91 13.03 299.74 11.65Q298.56 10.27 296.45 10.27L296.45 10.27Q294.24 10.27 292.99 11.65Q291.74 13.03 291.74 15.60L291.74 15.60Q291.74 18.10 292.99 19.44Q294.24 20.78 296.45 20.78ZM317.88 24.24L317.88 24.24Q315.07 24.24 313.16 23.15Q311.26 22.06 310.28 20.10Q309.31 18.14 309.31 15.60L309.31 15.60Q309.31 13.03 310.28 11.09Q311.26 9.14 313.16 8.05Q315.07 6.96 317.88 6.96L317.88 6.96Q320.64 6.96 322.50 8.05Q324.36 9.14 325.30 11.09Q326.23 13.03 326.23 15.60L326.23 15.60Q326.23 18.14 325.30 20.10Q324.36 22.06 322.50 23.15Q320.64 24.24 317.88 24.24ZM317.88 20.78L317.88 20.78Q319.99 20.78 321.17 19.44Q322.34 18.10 322.34 15.60L322.34 15.60Q322.34 13.03 321.17 11.65Q319.99 10.27 317.88 10.27L317.88 10.27Q315.67 10.27 314.42 11.65Q313.18 13.03 313.18 15.60L313.18 15.60Q313.18 18.10 314.42 19.44Q315.67 20.78 317.88 20.78ZM346.10 24L346.10 24L346.10 11.26L349.73 11.26L349.87 14.81L348.77 15.05Q349.15 14.02 350.00 13.09Q350.86 12.17 352.14 11.58Q353.42 10.99 355.03 10.99L355.03 10.99Q356.95 10.99 358.28 11.74Q359.62 12.48 360.30 13.72Q360.98 14.95 360.98 16.49L360.98 16.49L360.98 24L357.14 24L357.14 17.38Q357.14 16.44 356.70 15.73Q356.26 15.02 355.49 14.63Q354.72 14.23 353.74 14.23L353.74 14.23Q352.82 14.23 352.12 14.56Q351.41 14.88 350.93 15.37Q350.45 15.86 350.20 16.43Q349.94 16.99 349.94 17.50L349.94 17.50L349.94 24L348.02 24Q347.06 24 346.58 24Q346.10 24 346.10 24ZM377.78 24.24L377.78 24.24Q375.19 24.24 373.20 23.39Q371.21 22.54 370.09 21.04Q368.98 19.54 368.98 17.62L368.98 17.62Q368.98 15.67 370.09 14.18Q371.21 12.70 373.20 11.84Q375.19 10.99 377.78 10.99L377.78 10.99Q380.38 10.99 382.34 11.84Q384.31 12.70 385.43 14.18Q386.54 15.67 386.54 17.62L386.54 17.62Q386.54 19.54 385.43 21.04Q384.31 22.54 382.34 23.39Q380.38 24.24 377.78 24.24ZM377.78 20.93L377.78 20.93Q379.13 20.93 380.24 20.51Q381.36 20.09 382.02 19.34Q382.68 18.60 382.66 17.62L382.66 17.62Q382.68 16.63 382.02 15.88Q381.36 15.12 380.24 14.70Q379.13 14.28 377.78 14.28L377.78 14.28Q376.42 14.28 375.30 14.70Q374.18 15.12 373.52 15.86Q372.86 16.61 372.86 17.62L372.86 17.62Q372.86 18.60 373.52 19.34Q374.18 20.09 375.30 20.51Q376.42 20.93 377.78 20.93ZM398.52 24L394.68 24L394.68 11.26L398.33 11.26L398.50 16.03L397.30 16.06Q397.68 14.64 398.59 13.50Q399.50 12.36 400.75 11.68Q402.00 10.99 403.37 10.99L403.37 10.99Q404.26 10.99 405.11 11.18Q405.96 11.38 406.51 11.71L406.51 11.71L405.48 15.82Q404.98 15.46 404.10 15.25Q403.22 15.05 402.38 15.05L402.38 15.05Q401.45 15.05 400.72 15.34Q399.98 15.62 399.49 16.10Q399.00 16.58 398.76 17.16Q398.52 17.74 398.52 18.34L398.52 18.34L398.52 24ZM418.06 24L414.19 24L414.19 11.26L417.84 11.26L417.96 14.52L416.98 14.06Q417.38 13.54 417.98 13.00Q418.58 12.46 419.38 12.01Q420.17 11.57 421.19 11.29Q422.21 11.02 423.48 11.02L423.48 11.02Q424.66 11.02 425.68 11.36Q426.70 11.71 427.43 12.52Q428.16 13.32 428.45 14.66L428.45 14.66L427.37 14.52L427.58 14.14Q428.04 13.63 428.68 13.08Q429.31 12.53 430.13 12.06Q430.94 11.59 431.95 11.30Q432.96 11.02 434.14 11.02L434.14 11.02Q436.27 11.02 437.52 11.77Q438.77 12.53 439.32 13.78Q439.87 15.02 439.87 16.46L439.87 16.46L439.87 24L436.01 24L436.01 17.02Q436.01 16.25 435.73 15.62Q435.46 15 434.84 14.63Q434.23 14.26 433.27 14.26L433.27 14.26Q432.34 14.26 431.56 14.54Q430.78 14.83 430.19 15.32Q429.60 15.82 429.28 16.46Q428.95 17.11 428.95 17.86L428.95 17.86L428.95 24L425.09 24L425.09 16.99Q425.09 16.20 424.75 15.59Q424.42 14.98 423.68 14.62Q422.95 14.26 421.78 14.26L421.78 14.26Q420.94 14.26 420.25 14.57Q419.57 14.88 419.08 15.37Q418.58 15.86 418.32 16.39Q418.06 16.92 418.06 17.35L418.06 17.35L418.06 24ZM454.78 24.22L454.78 24.22Q452.47 24.22 450.80 23.38Q449.14 22.54 448.24 21.05Q447.34 19.56 447.34 17.64L447.34 17.64Q447.34 15.70 448.27 14.20Q449.21 12.70 450.89 11.84Q452.57 10.99 454.82 10.99L454.82 10.99Q456.14 10.99 457.27 11.29Q458.40 11.59 459.26 12.07Q460.13 12.55 460.63 13.09Q461.14 13.63 461.23 14.14L461.23 14.14L460.27 14.28L460.27 11.26L464.06 11.26L464.06 24L460.20 24L460.20 20.45L460.97 20.78Q460.92 21.36 460.40 21.96Q459.89 22.56 459.05 23.08Q458.21 23.59 457.10 23.90Q456.00 24.22 454.78 24.22ZM455.74 20.98L455.74 20.98Q457.15 20.98 458.17 20.56Q459.19 20.14 459.76 19.38Q460.32 18.62 460.32 17.64L460.32 17.64Q460.32 16.63 459.76 15.89Q459.19 15.14 458.17 14.70Q457.15 14.26 455.74 14.26L455.74 14.26Q454.37 14.26 453.34 14.70Q452.30 15.14 451.73 15.89Q451.15 16.63 451.15 17.64L451.15 17.64Q451.15 18.62 451.73 19.38Q452.30 20.14 453.34 20.56Q454.37 20.98 455.74 20.98ZM477.65 24L473.81 24L473.81 6.24L477.65 6.24L477.65 24Z"/></svg>