<svg xmlns="http://www.w3.org/2000/svg" xmlns:xlink="http://www.w3.org/1999/xlink" width="287.4" height="37.176"><path fill="black" d="M10.68 27.05L0.84 27.05L0.84 24.72L10.44 24.72Q12.14 24.72 13.14 24.16Q14.14 23.59 14.14 22.27L14.14 22.27Q14.14 21.41 13.69 20.88Q13.25 20.35 12.44 20.10Q11.64 19.85 10.51 19.85L10.51 19.85L5.74 19.85L5.74 17.74L9.55 17.74Q11.06 17.74 11.98 17.16Q12.89 16.58 12.89 15.26L12.89 15.26Q12.89 14.38 12.49 13.87Q12.10 13.37 11.45 13.14Q10.80 12.91 10.08 12.91L10.08 12.91L0.84 12.91L0.84 10.58L10.27 10.58Q12.10 10.58 13.33 11.14Q14.57 11.69 15.19 12.67Q15.82 13.66 15.82 14.90L15.82 14.90Q15.82 16.03 15.34 16.85Q14.86 17.66 14.05 18.20Q13.25 18.74 12.26 18.98Q11.28 19.22 10.34 19.22L10.34 19.22L10.34 18.14Q11.52 18.14 12.70 18.32Q13.87 18.50 14.87 18.96Q15.86 19.42 16.46 20.29Q17.06 21.17 17.06 22.51L17.06 22.51Q17.06 24.67 15.43 25.86Q13.80 27.05 10.68 27.05L10.68 27.05ZM6.70 25.75L3.82 25.75L3.82 11.90L6.70 11.90L6.70 25.75ZM24.05 26.38L21.26 26.38L21.26 15.74L24.05 15.74L24.05 26.38ZM26.52 27.05L18.82 27.05L18.82 24.84L26.52 24.84L26.52 27.05ZM23.35 17.95L18.82 17.95L18.82 15.74L23.35 15.74L23.35 17.95ZM22.39 13.51L22.39 13.51Q21.55 13.51 20.98 13.07Q20.40 12.62 20.40 11.95L20.40 11.95Q20.40 11.23 20.98 10.78Q21.55 10.32 22.39 10.32L22.39 10.32Q23.30 10.32 23.87 10.78Q24.43 11.23 24.43 11.95L24.43 11.95Q24.43 12.62 23.86 13.07Q23.28 13.51 22.39 13.51ZM33.86 27.38L33.86 27.38Q32.62 27.38 31.48 26.96Q30.34 26.54 29.45 25.76Q28.56 24.98 28.04 23.89Q27.53 22.80 27.53 21.43L27.53 21.43Q27.53 20.06 28.04 18.96Q28.56 17.86 29.45 17.08Q30.34 16.30 31.48 15.88Q32.62 15.46 33.86 15.46L33.86 15.46Q35.09 15.46 36.22 15.88Q37.34 16.30 38.24 17.08Q39.14 17.86 39.66 18.96Q40.18 20.06 40.18 21.43L40.18 21.43Q40.18 22.80 39.67 23.89Q39.17 24.98 38.29 25.76Q37.42 26.54 36.28 26.96Q35.14 27.38 33.86 27.38ZM33.86 25.20L33.86 25.20Q34.82 25.20 35.60 24.74Q36.38 24.29 36.84 23.44Q37.30 22.58 37.30 21.43L37.30 21.43Q37.30 20.28 36.84 19.43Q36.38 18.58 35.60 18.12Q34.82 17.66 33.86 17.66L33.86 17.66Q32.90 17.66 32.11 18.12Q31.32 18.58 30.86 19.43Q30.41 20.28 30.41 21.43L30.41 21.43Q30.41 22.58 30.86 23.44Q31.32 24.29 32.11 24.74Q32.90 25.20 33.86 25.20ZM51.12 20.21L46.32 20.21L46.32 18.02L51.14 18.02Q51.98 18.02 52.73 17.74Q53.47 17.45 53.94 16.86Q54.41 16.27 54.41 15.38L54.41 15.38Q54.41 14.57 53.96 14.02Q53.52 13.46 52.78 13.19Q52.03 12.91 51.14 12.91L51.14 12.91L41.40 12.91L41.40 10.58L51.05 10.58Q52.94 10.58 54.35 11.16Q55.75 11.74 56.52 12.82Q57.29 13.90 57.29 15.38L57.29 15.38Q57.29 16.85 56.53 17.94Q55.78 19.03 54.40 19.62Q53.02 20.21 51.12 20.21L51.12 20.21ZM50.18 27.05L41.40 27.05L41.40 24.72L50.18 24.72L50.18 27.05ZM47.30 25.75L44.38 25.75L44.38 11.93L47.30 11.93L47.30 25.75ZM56.95 27.38L56.95 27.38Q55.85 27.36 54.89 26.94Q53.93 26.52 53.12 25.48Q52.32 24.43 51.67 22.58L51.67 22.58L50.71 19.85L53.09 19.54L54.02 21.84Q54.55 23.09 55.10 23.71Q55.66 24.34 56.21 24.55Q56.76 24.77 57.26 24.77L57.26 24.77Q57.72 24.77 58.02 24.68Q58.32 24.60 58.58 24.53L58.58 24.53L59.18 26.88Q58.78 27.10 58.20 27.24Q57.62 27.38 56.95 27.38ZM74.45 27.05L71.66 27.05L71.66 20.66Q71.66 20.02 71.51 19.51Q71.35 19.01 71.05 18.65Q70.75 18.29 70.30 18.11Q69.84 17.93 69.26 17.93L69.26 17.93Q68.62 17.93 67.98 18.20Q67.34 18.48 66.71 18.98Q66.07 19.49 65.44 20.20Q64.80 20.90 64.13 21.79L64.13 21.79L64.13 19.61Q64.92 18.60 65.66 17.83Q66.41 17.06 67.14 16.52Q67.87 15.98 68.66 15.72Q69.46 15.46 70.39 15.46L70.39 15.46Q71.38 15.46 72.13 15.78Q72.89 16.10 73.40 16.75Q73.92 17.40 74.18 18.36Q74.45 19.32 74.45 20.62L74.45 20.62L74.45 27.05ZM67.22 27.05L60.02 27.05L60.02 24.84L67.22 24.84L67.22 27.05ZM76.58 27.05L69.67 27.05L69.67 24.84L76.58 24.84L76.58 27.05ZM60.02 10.58L65.23 10.58L65.23 27.05L62.47 27.05L62.47 12.79L60.02 12.79L60.02 10.58ZM79.85 32.76L79.85 32.76Q79.13 32.76 78.55 32.60Q77.98 32.45 77.46 32.17Q76.94 31.90 76.44 31.58L76.44 31.58L77.54 29.47Q77.98 29.78 78.56 30.05Q79.15 30.31 79.85 30.31L79.85 30.31Q80.52 30.31 81.10 30.05Q81.67 29.78 82.18 29.18Q82.68 28.58 83.09 27.60L83.09 27.60L88.15 16.15L90.72 16.15L85.30 28.10Q84.60 29.64 83.78 30.68Q82.97 31.73 82.00 32.24Q81.02 32.76 79.85 32.76ZM85.51 26.90L83.66 28.37L77.90 16.94L80.98 16.94L85.51 26.90ZM79.25 17.95L76.70 17.95L76.70 15.74L83.16 15.74L83.16 17.74L79.34 17.74L79.25 17.95ZM88.94 17.74L85.73 17.74L85.73 15.74L91.51 15.74L91.51 17.95L89.02 17.95L88.94 17.74ZM96.89 17.95L92.50 17.95L92.50 15.74L96.89 15.74L96.89 17.95ZM97.73 26.38L94.94 26.38L94.94 15.74L97.73 15.74L97.73 26.38ZM99.72 27.05L92.50 27.05L92.50 24.84L99.72 24.84L99.72 27.05ZM106.37 26.38L103.61 26.38L103.61 20.52Q103.61 19.78 103.38 19.22Q103.15 18.67 102.68 18.35Q102.22 18.02 101.50 18.02L101.50 18.02Q100.70 18.02 99.89 18.47Q99.07 18.91 98.27 19.76Q97.46 20.62 96.72 21.82L96.72 21.82L96.72 19.61Q97.46 18.31 98.38 17.39Q99.29 16.46 100.33 15.96Q101.38 15.46 102.50 15.46L102.50 15.46Q103.42 15.46 104.12 15.77Q104.83 16.08 105.34 16.72Q105.84 17.35 106.10 18.29Q106.37 19.22 106.37 20.45L106.37 20.45L106.37 26.38ZM108.34 27.05L101.62 27.05L101.62 24.84L108.34 24.84L108.34 27.05ZM114.96 26.38L112.20 26.38L112.20 20.52Q112.20 19.97 112.08 19.52Q111.96 19.08 111.70 18.74Q111.43 18.41 111.05 18.22Q110.66 18.02 110.14 18.02L110.14 18.02Q109.34 18.02 108.52 18.47Q107.69 18.91 106.90 19.76Q106.10 20.62 105.34 21.82L105.34 21.82L105.34 19.61Q106.10 18.31 107.00 17.39Q107.90 16.46 108.95 15.96Q109.99 15.46 111.12 15.46L111.12 15.46Q112.01 15.46 112.72 15.77Q113.42 16.08 113.93 16.72Q114.43 17.35 114.70 18.29Q114.96 19.22 114.96 20.45L114.96 20.45L114.96 26.38ZM117.10 27.05L110.23 27.05L110.23 24.84L117.10 24.84L117.10 27.05ZM124.51 27.38L124.51 27.38Q123.34 27.38 122.18 27.01Q121.03 26.64 120.12 25.92Q119.21 25.20 118.67 24.13Q118.13 23.06 118.13 21.65L118.13 21.65Q118.13 20.18 118.68 19.04Q119.23 17.90 120.14 17.10Q121.06 16.30 122.22 15.88Q123.38 15.46 124.61 15.46L124.61 15.46Q126.10 15.46 127.22 15.90Q128.35 16.34 129.01 17.16Q129.67 17.98 129.67 19.06L129.67 19.06Q129.67 20.18 129 20.94Q128.33 21.70 127.27 22.07Q126.22 22.44 125.02 22.44L125.02 22.44Q123.55 22.44 122.42 22.09Q121.30 21.74 120.19 21.22L120.19 21.22L120.19 19.61Q121.46 20.16 122.47 20.35Q123.48 20.54 124.37 20.54L124.37 20.54Q125.11 20.54 125.68 20.36Q126.24 20.18 126.58 19.86Q126.91 19.54 126.91 19.06L126.91 19.06Q126.91 18.41 126.32 18.01Q125.74 17.62 124.80 17.62L124.80 17.62Q124.06 17.62 123.35 17.90Q122.64 18.19 122.06 18.70Q121.49 19.20 121.14 19.92Q120.79 20.64 120.79 21.55L120.79 21.55Q120.79 22.66 121.32 23.45Q121.85 24.24 122.72 24.65Q123.60 25.06 124.63 25.06L124.63 25.06Q125.95 25.06 126.97 24.61Q127.99 24.17 128.81 23.52L128.81 23.52L129.96 25.34Q129.29 25.94 128.46 26.40Q127.63 26.86 126.66 27.12Q125.69 27.38 124.51 27.38ZM145.92 27.36L145.92 27.36Q144.46 27.36 143.18 26.86Q141.91 26.35 140.95 25.40Q139.99 24.46 139.45 23.14Q138.91 21.82 138.91 20.18L138.91 20.18Q138.91 18.41 139.49 16.88Q140.06 15.36 141.12 14.23Q142.18 13.10 143.64 12.47Q145.10 11.83 146.90 11.83L146.90 11.83Q148.03 11.83 148.91 12.02Q149.78 12.22 150.50 12.50Q151.22 12.79 151.78 13.10L151.78 13.10L150.89 15.29Q150.10 14.81 149.17 14.48Q148.25 14.16 147.05 14.16L147.05 14.16Q145.92 14.16 144.95 14.58Q143.98 15.00 143.24 15.78Q142.51 16.56 142.10 17.65Q141.70 18.74 141.70 20.09L141.70 20.09Q141.70 21.62 142.31 22.73Q142.92 23.83 143.93 24.42Q144.94 25.01 146.04 25.01L146.04 25.01Q146.95 25.01 147.70 24.67Q148.44 24.34 148.87 23.71Q149.30 23.09 149.30 22.27L149.30 22.27Q149.30 21.43 148.87 20.84Q148.44 20.26 147.70 19.96Q146.95 19.66 146.02 19.66L146.02 19.66Q145.08 19.66 144.18 19.84Q143.28 20.02 142.37 20.36Q141.46 20.71 140.52 21.24L140.52 21.24L140.42 19.54Q141.46 18.91 142.38 18.44Q143.30 17.98 144.30 17.71Q145.30 17.45 146.50 17.45L146.50 17.45Q147.55 17.45 148.55 17.75Q149.54 18.05 150.35 18.62Q151.15 19.20 151.62 20.09Q152.09 20.98 152.09 22.18L152.09 22.18Q152.09 23.30 151.61 24.25Q151.13 25.20 150.28 25.91Q149.42 26.62 148.31 26.99Q147.19 27.36 145.92 27.36ZM161.38 27.36L161.38 27.36Q160.27 27.36 159.20 27.04Q158.14 26.71 157.19 26.09Q156.24 25.46 155.52 24.53Q154.80 23.59 154.38 22.37Q153.96 21.14 153.96 19.61L153.96 19.61Q153.96 18.07 154.37 16.85Q154.78 15.62 155.51 14.69Q156.24 13.75 157.19 13.12Q158.14 12.48 159.20 12.16Q160.27 11.83 161.38 11.83L161.38 11.83Q162.46 11.83 163.54 12.16Q164.62 12.48 165.56 13.12Q166.51 13.75 167.24 14.69Q167.98 15.62 168.38 16.85Q168.79 18.07 168.79 19.61L168.79 19.61Q168.79 21.14 168.37 22.37Q167.95 23.59 167.23 24.53Q166.51 25.46 165.56 26.09Q164.62 26.71 163.54 27.04Q162.46 27.36 161.38 27.36ZM161.38 25.15L161.38 25.15Q162.34 25.15 163.15 24.76Q163.97 24.36 164.58 23.63Q165.19 22.90 165.53 21.88Q165.86 20.86 165.86 19.61L165.86 19.61Q165.86 18.36 165.52 17.33Q165.17 16.30 164.57 15.56Q163.97 14.83 163.15 14.44Q162.34 14.04 161.38 14.04L161.38 14.04Q160.39 14.04 159.58 14.44Q158.76 14.83 158.16 15.56Q157.56 16.30 157.24 17.33Q156.91 18.36 156.91 19.61L156.91 19.61Q156.91 20.86 157.25 21.88Q157.58 22.90 158.18 23.63Q158.78 24.36 159.60 24.76Q160.42 25.15 161.38 25.15ZM178.18 27.36L178.18 27.36Q177.07 27.36 176.00 27.04Q174.94 26.71 173.99 26.09Q173.04 25.46 172.32 24.53Q171.60 23.59 171.18 22.37Q170.76 21.14 170.76 19.61L170.76 19.61Q170.76 18.07 171.17 16.85Q171.58 15.62 172.31 14.69Q173.04 13.75 173.99 13.12Q174.94 12.48 176.00 12.16Q177.07 11.83 178.18 11.83L178.18 11.83Q179.26 11.83 180.34 12.16Q181.42 12.48 182.36 13.12Q183.31 13.75 184.04 14.69Q184.78 15.62 185.18 16.85Q185.59 18.07 185.59 19.61L185.59 19.61Q185.59 21.14 185.17 22.37Q184.75 23.59 184.03 24.53Q183.31 25.46 182.36 26.09Q181.42 26.71 180.34 27.04Q179.26 27.36 178.18 27.36ZM178.18 25.15L178.18 25.15Q179.14 25.15 179.95 24.76Q180.77 24.36 181.38 23.63Q181.99 22.90 182.33 21.88Q182.66 20.86 182.66 19.61L182.66 19.61Q182.66 18.36 182.32 17.33Q181.97 16.30 181.37 15.56Q180.77 14.83 179.95 14.44Q179.14 14.04 178.18 14.04L178.18 14.04Q177.19 14.04 176.38 14.44Q175.56 14.83 174.96 15.56Q174.36 16.30 174.04 17.33Q173.71 18.36 173.71 19.61L173.71 19.61Q173.71 20.86 174.05 21.88Q174.38 22.90 174.98 23.63Q175.58 24.36 176.40 24.76Q177.22 25.15 178.18 25.15ZM208.92 27.05L206.14 27.05L206.14 20.66Q206.14 20.06 205.98 19.58Q205.82 19.10 205.52 18.76Q205.22 18.41 204.77 18.23Q204.31 18.05 203.74 18.05L203.74 18.05Q203.11 18.05 202.48 18.30Q201.84 18.55 201.19 19.03Q200.54 19.51 199.91 20.22Q199.27 20.93 198.62 21.82L198.62 21.82L198.62 19.61Q199.39 18.60 200.12 17.83Q200.86 17.06 201.59 16.52Q202.32 15.98 203.09 15.72Q203.86 15.46 204.74 15.46L204.74 15.46Q205.73 15.46 206.51 15.78Q207.29 16.10 207.82 16.75Q208.34 17.40 208.63 18.36Q208.92 19.32 208.92 20.62L208.92 20.62L208.92 27.05ZM201.62 27.05L194.40 27.05L194.40 24.84L201.62 24.84L201.62 27.05ZM199.63 27.05L196.85 27.05L196.85 15.74L199.63 15.74L199.63 27.05ZM199.01 17.95L194.40 17.95L194.40 15.74L199.01 15.74L199.01 17.95ZM211.06 27.05L204.14 27.05L204.14 24.84L211.06 24.84L211.06 27.05ZM218.40 27.38L218.40 27.38Q217.15 27.38 216.01 26.96Q214.87 26.54 213.98 25.76Q213.10 24.98 212.58 23.89Q212.06 22.80 212.06 21.43L212.06 21.43Q212.06 20.06 212.58 18.96Q213.10 17.86 213.98 17.08Q214.87 16.30 216.01 15.88Q217.15 15.46 218.40 15.46L218.40 15.46Q219.62 15.46 220.75 15.88Q221.88 16.30 222.78 17.08Q223.68 17.86 224.20 18.96Q224.71 20.06 224.71 21.43L224.71 21.43Q224.71 22.80 224.21 23.89Q223.70 24.98 222.83 25.76Q221.95 26.54 220.81 26.96Q219.67 27.38 218.40 27.38ZM218.40 25.20L218.40 25.20Q219.36 25.20 220.14 24.74Q220.92 24.29 221.38 23.44Q221.83 22.58 221.83 21.43L221.83 21.43Q221.83 20.28 221.38 19.43Q220.92 18.58 220.14 18.12Q219.36 17.66 218.40 17.66L218.40 17.66Q217.44 17.66 216.65 18.12Q215.86 18.58 215.40 19.43Q214.94 20.28 214.94 21.43L214.94 21.43Q214.94 22.58 215.40 23.44Q215.86 24.29 216.65 24.74Q217.44 25.20 218.40 25.20ZM230.52 21.79L230.52 21.79L230.52 19.66Q231.41 18.43 232.43 17.48Q233.45 16.54 234.53 16.00Q235.61 15.46 236.66 15.46L236.66 15.46L237.79 15.46L237.79 20.42L235.37 20.42L235.37 18.19Q234.72 18.19 233.93 18.62Q233.14 19.06 232.26 19.86Q231.38 20.66 230.52 21.79ZM233.95 27.05L226.25 27.05L226.25 24.84L233.95 24.84L233.95 27.05ZM231.48 26.38L228.70 26.38L228.70 15.74L231.48 15.74L231.48 26.38ZM231.31 17.95L226.25 17.95L226.25 15.74L231.31 15.74L231.31 17.95ZM243.96 17.95L239.57 17.95L239.57 15.74L243.96 15.74L243.96 17.95ZM244.80 26.38L242.02 26.38L242.02 15.74L244.80 15.74L244.80 26.38ZM246.79 27.05L239.57 27.05L239.57 24.84L246.79 24.84L246.79 27.05ZM253.44 26.38L250.68 26.38L250.68 20.52Q250.68 19.78 250.45 19.22Q250.22 18.67 249.76 18.35Q249.29 18.02 248.57 18.02L248.57 18.02Q247.78 18.02 246.96 18.47Q246.14 18.91 245.34 19.76Q244.54 20.62 243.79 21.82L243.79 21.82L243.79 19.61Q244.54 18.31 245.45 17.39Q246.36 16.46 247.40 15.96Q248.45 15.46 249.58 15.46L249.58 15.46Q250.49 15.46 251.20 15.77Q251.90 16.08 252.41 16.72Q252.91 17.35 253.18 18.29Q253.44 19.22 253.44 20.45L253.44 20.45L253.44 26.38ZM255.41 27.05L248.69 27.05L248.69 24.84L255.41 24.84L255.41 27.05ZM262.03 26.38L259.27 26.38L259.27 20.52Q259.27 19.97 259.15 19.52Q259.03 19.08 258.77 18.74Q258.50 18.41 258.12 18.22Q257.74 18.02 257.21 18.02L257.21 18.02Q256.42 18.02 255.59 18.47Q254.76 18.91 253.97 19.76Q253.18 20.62 252.41 21.82L252.41 21.82L252.41 19.61Q253.18 18.31 254.08 17.39Q254.98 16.46 256.02 15.96Q257.06 15.46 258.19 15.46L258.19 15.46Q259.08 15.46 259.79 15.77Q260.50 16.08 261 16.72Q261.50 17.35 261.77 18.29Q262.03 19.22 262.03 20.45L262.03 20.45L262.03 26.38ZM264.17 27.05L257.30 27.05L257.30 24.84L264.17 24.84L264.17 27.05ZM276.67 27.24L276.67 27.24Q275.95 27.24 275.35 26.88Q274.75 26.52 274.40 25.82Q274.06 25.13 274.06 24.14L274.06 24.14L274.06 19.87Q274.06 19.13 273.67 18.66Q273.29 18.19 272.64 17.99Q271.99 17.78 271.20 17.78L271.20 17.78Q270.22 17.78 269.09 18.06Q267.96 18.34 266.78 18.79L266.78 18.79L266.23 16.68Q267.58 16.10 268.94 15.78Q270.31 15.46 271.56 15.46L271.56 15.46Q273.22 15.46 274.36 15.98Q275.50 16.51 276.08 17.52Q276.67 18.53 276.67 19.99L276.67 19.99L276.67 23.90Q276.67 24.46 276.89 24.70Q277.10 24.94 277.44 24.94L277.44 24.94Q277.66 24.94 277.84 24.88Q278.02 24.82 278.14 24.77L278.14 24.77L278.69 26.76Q278.42 26.90 277.88 27.07Q277.34 27.24 276.67 27.24ZM269.47 27.38L269.47 27.38Q268.42 27.38 267.52 26.98Q266.62 26.57 266.08 25.76Q265.54 24.96 265.54 23.76L265.54 23.76Q265.56 22.54 266.24 21.71Q266.93 20.88 268.02 20.46Q269.11 20.04 270.29 20.04L270.29 20.04Q271.73 20.04 272.77 20.36Q273.82 20.69 274.92 21.22L274.92 21.22L274.92 22.97Q273.65 22.39 272.63 22.21Q271.61 22.03 270.82 22.03L270.82 22.03Q270.14 22.03 269.57 22.21Q268.99 22.39 268.63 22.75Q268.27 23.11 268.27 23.66L268.27 23.66Q268.27 24.14 268.55 24.47Q268.82 24.79 269.27 24.94Q269.71 25.08 270.22 25.08L270.22 25.08Q270.77 25.08 271.52 24.84Q272.28 24.60 273.16 24.08Q274.03 23.57 274.92 22.75L274.92 22.75L274.87 24.60Q274.03 25.44 273.14 26.08Q272.26 26.71 271.34 27.05Q270.43 27.38 269.47 27.38ZM284.64 26.38L281.86 26.38L281.86 10.58L284.64 10.58L284.64 26.38ZM287.14 27.05L279.43 27.05L279.43 24.84L287.14 24.84L287.14 27.05ZM284.47 12.79L279.43 12.79L279.43 10.58L284.47 10.58L284.47 12.79Z"/></svg>