<svg xmlns="http://www.w3.org/2000/svg" xmlns:xlink="http://www.w3.org/1999/xlink" width="195.504" height="30"><path fill="black" d="M5.14 23.52L1.99 23.52L1.99 6.72L9.50 6.72Q11.33 6.72 12.66 7.33Q13.99 7.94 14.74 9.10Q15.48 10.25 15.48 11.88L15.48 11.88Q15.48 13.25 14.98 14.27Q14.47 15.29 13.56 15.95Q12.65 16.61 11.39 16.94Q10.13 17.28 8.62 17.28L8.62 17.28L5.14 17.28L5.14 23.52ZM16.34 23.52L12.84 23.52L8.76 16.78L11.74 16.15L16.34 23.52ZM5.14 9.48L5.14 14.52L9.24 14.52Q10.70 14.52 11.51 13.85Q12.31 13.18 12.31 11.90L12.31 11.90Q12.31 10.66 11.51 10.07Q10.70 9.48 9.19 9.48L9.19 9.48L5.14 9.48ZM31.58 23.52L18.82 23.52L18.82 6.72L31.42 6.72L31.42 9.48L21.96 9.48L21.96 13.54L30.46 13.54L30.46 16.30L21.96 16.30L21.96 20.76L31.58 20.76L31.58 23.52ZM37.61 23.52L34.54 23.52L34.54 6.72L37.63 6.72L43.61 15.79L43.66 15.79L49.80 6.72L52.85 6.72L52.85 23.52L49.70 23.52L49.70 12.19L44.81 19.30L42.43 19.30L37.61 12.19L37.61 23.52ZM67.70 23.71L67.70 23.71Q66.53 23.71 65.35 23.46Q64.18 23.21 62.98 22.68L62.98 22.68L61.99 22.22L62.83 19.90L64.03 20.28Q64.61 20.45 65.46 20.62Q66.31 20.78 67.13 20.78L67.13 20.78Q68.83 20.78 69.73 20.05Q70.63 19.32 70.63 17.98L70.63 17.98Q70.63 16.82 69.77 16.19Q68.90 15.55 67.42 15.55L67.42 15.55Q66.91 15.55 66.31 15.64Q65.71 15.72 65.11 15.86L65.11 15.86L63.22 15.43L63.98 6.70L73.20 6.70L72.84 9.67L66.46 9.67L66.12 13.20Q66.86 13.01 67.52 12.92Q68.18 12.84 68.78 12.84L68.78 12.84Q70.30 12.84 71.41 13.45Q72.53 14.06 73.14 15.19Q73.75 16.32 73.75 17.88L73.75 17.88Q73.75 19.70 73.02 21.01Q72.29 22.32 70.94 23.02Q69.60 23.71 67.70 23.71ZM82.82 23.76L82.82 23.76Q80.76 23.76 79.21 22.67Q77.66 21.58 76.82 19.63Q75.98 17.69 75.98 15.10L75.98 15.10Q75.98 12.53 76.86 10.58Q77.74 8.64 79.28 7.56Q80.83 6.48 82.87 6.48L82.87 6.48Q84.96 6.48 86.50 7.57Q88.03 8.66 88.87 10.61Q89.71 12.55 89.71 15.12L89.71 15.12Q89.71 17.71 88.84 19.66Q87.96 21.60 86.41 22.68Q84.86 23.76 82.82 23.76ZM82.85 20.74L82.85 20.74Q83.95 20.74 84.77 20.09Q85.58 19.44 86.04 18.18Q86.50 16.92 86.50 15.12L86.50 15.12Q86.50 13.30 86.04 12.05Q85.58 10.80 84.77 10.15Q83.95 9.50 82.85 9.50L82.85 9.50Q81.77 9.50 80.94 10.15Q80.11 10.80 79.66 12.05Q79.20 13.30 79.20 15.12L79.20 15.12Q79.20 16.92 79.66 18.18Q80.11 19.44 80.94 20.09Q81.77 20.74 82.85 20.74ZM99.58 23.76L99.58 23.76Q97.51 23.76 95.96 22.67Q94.42 21.58 93.58 19.63Q92.74 17.69 92.74 15.10L92.74 15.10Q92.74 12.53 93.61 10.58Q94.49 8.64 96.04 7.56Q97.58 6.48 99.62 6.48L99.62 6.48Q101.71 6.48 103.25 7.57Q104.78 8.66 105.62 10.61Q106.46 12.55 106.46 15.12L106.46 15.12Q106.46 17.71 105.59 19.66Q104.71 21.60 103.16 22.68Q101.62 23.76 99.58 23.76ZM99.60 20.74L99.60 20.74Q100.70 20.74 101.52 20.09Q102.34 19.44 102.79 18.18Q103.25 16.92 103.25 15.12L103.25 15.12Q103.25 13.30 102.79 12.05Q102.34 10.80 101.52 10.15Q100.70 9.50 99.60 9.50L99.60 9.50Q98.52 9.50 97.69 10.15Q96.86 10.80 96.41 12.05Q95.95 13.30 95.95 15.12L95.95 15.12Q95.95 16.92 96.41 18.18Q96.86 19.44 97.69 20.09Q98.52 20.74 99.60 20.74ZM119.40 23.52L116.38 23.52L116.38 11.33L118.68 11.33L118.90 12.58L119.69 12.14Q120.58 11.66 121.46 11.40Q122.35 11.14 123.22 11.14L123.22 11.14Q124.68 11.14 125.59 11.69Q126.50 12.24 126.95 13.18Q127.39 14.11 127.39 15.29L127.39 15.29L127.39 23.52L124.37 23.52L124.37 16.03Q124.37 14.98 123.84 14.42Q123.31 13.87 122.11 13.87L122.11 13.87Q121.61 13.87 121.14 14.00Q120.67 14.14 120.17 14.38L120.17 14.38L119.40 14.71L119.40 23.52ZM136.13 23.71L136.13 23.71Q134.26 23.71 132.88 22.91Q131.50 22.10 130.74 20.69Q129.98 19.27 129.98 17.42L129.98 17.42Q129.98 15.55 130.76 14.14Q131.54 12.72 132.94 11.93Q134.33 11.14 136.18 11.14L136.18 11.14Q138.05 11.14 139.42 11.94Q140.78 12.74 141.53 14.16Q142.27 15.58 142.27 17.42L142.27 17.42Q142.27 19.27 141.50 20.70Q140.74 22.13 139.36 22.92Q137.98 23.71 136.13 23.71ZM136.15 21.10L136.15 21.10Q137.09 21.10 137.76 20.66Q138.43 20.23 138.80 19.40Q139.18 18.58 139.18 17.42L139.18 17.42Q139.18 16.25 138.82 15.43Q138.46 14.62 137.77 14.18Q137.09 13.75 136.15 13.75L136.15 13.75Q135.22 13.75 134.52 14.18Q133.82 14.62 133.44 15.43Q133.06 16.25 133.06 17.42L133.06 17.42Q133.06 18.58 133.44 19.40Q133.82 20.23 134.52 20.66Q135.22 21.10 136.15 21.10ZM148.06 23.52L145.03 23.52L145.03 11.33L147.24 11.33L147.55 12.82L148.46 12.17Q149.16 11.69 149.95 11.41Q150.74 11.14 151.46 11.14L151.46 11.14Q151.73 11.14 152.00 11.22Q152.28 11.30 152.54 11.50L152.54 11.50L152.54 13.90Q151.80 13.92 151.12 14.04Q150.43 14.16 149.57 14.50L149.57 14.50L148.06 15.05L148.06 23.52ZM157.68 23.52L154.66 23.52L154.66 11.33L156.98 11.33L157.20 12.58L157.99 12.14Q158.88 11.66 159.73 11.40Q160.58 11.14 161.42 11.14L161.42 11.14Q162.79 11.14 163.68 11.66Q164.57 12.19 165 13.13Q165.43 14.06 165.43 15.29L165.43 15.29L165.43 23.52L162.41 23.52L162.41 16.03Q162.41 14.95 161.89 14.41Q161.38 13.87 160.30 13.87L160.30 13.87Q159.84 13.87 159.41 13.99Q158.98 14.11 158.54 14.30L158.54 14.30L157.68 14.71L157.68 23.52ZM173.30 23.52L170.16 23.52L170.16 16.03Q170.16 14.95 169.64 14.41Q169.13 13.87 168.02 13.87L168.02 13.87Q167.57 13.87 167.15 13.99Q166.73 14.11 166.30 14.30L166.30 14.30L165.22 14.81L164.54 12.84L165.86 12.14Q166.75 11.66 167.60 11.40Q168.46 11.14 169.30 11.14L169.30 11.14Q170.66 11.14 171.55 11.66Q172.44 12.19 172.87 13.13Q173.30 14.06 173.30 15.29L173.30 15.29L173.30 23.52ZM179.52 23.71L179.52 23.71Q178.54 23.71 177.65 23.34Q176.76 22.97 176.21 22.20Q175.66 21.43 175.66 20.28L175.66 20.28Q175.66 18.74 176.64 17.84Q177.62 16.94 179.42 16.58L179.42 16.58L183.10 15.82L183.10 15.77Q183.10 14.71 182.45 14.23Q181.80 13.75 180.46 13.75L180.46 13.75Q179.69 13.75 178.88 13.85Q178.08 13.94 177.38 14.09L177.38 14.09L176.83 14.21L176.33 12.22L176.93 12Q178.13 11.57 179.17 11.35Q180.22 11.14 181.25 11.14L181.25 11.14Q183.41 11.14 184.75 12.29Q186.10 13.44 186.10 15.77L186.10 15.77L186.10 20.23Q186.10 20.98 186.44 21.23Q186.79 21.48 187.90 21.58L187.90 21.58L187.73 23.57Q187.42 23.64 187.13 23.68Q186.84 23.71 186.62 23.71L186.62 23.71Q185.38 23.71 184.64 23.15Q183.91 22.58 183.55 21.77L183.55 21.77L183 22.27Q182.21 22.99 181.28 23.35Q180.36 23.71 179.52 23.71ZM180.43 21.19L180.43 21.19Q180.91 21.19 181.46 21Q182.02 20.81 182.57 20.42L182.57 20.42L183.10 20.06L183.10 17.59L179.86 18.50Q179.16 18.70 178.87 19.06Q178.58 19.42 178.58 19.90L178.58 19.90Q178.58 20.52 179.06 20.86Q179.54 21.19 180.43 21.19ZM193.20 23.71L193.20 23.71Q191.33 23.71 190.51 22.85Q189.70 21.98 189.70 20.59L189.70 20.59L189.70 5.81L192.72 5.04L192.72 19.92Q192.72 20.47 193.04 20.77Q193.37 21.07 194.14 21.07L194.14 21.07Q194.33 21.07 194.57 21.06Q194.81 21.05 195.05 21.02L195.05 21.02L194.98 23.35Q194.54 23.52 194.08 23.62Q193.61 23.71 193.20 23.71Z"/></svg>