<svg xmlns="http://www.w3.org/2000/svg" xmlns:xlink="http://www.w3.org/1999/xlink" width="112.896" height="29.376"><path fill="black" d="M9.96 16.22L15.53 16.22L15.53 16.99L14.71 16.99L14.71 21.89Q14.21 22.03 13.30 22.33Q12.38 22.63 12.22 22.68L12.22 22.68Q10.63 23.06 8.64 23.06L8.64 23.06Q5.64 23.06 3.41 20.57L3.41 20.57Q1.30 18.02 1.32 14.32Q1.34 10.61 3.48 8.16L3.48 8.16Q5.59 5.83 8.64 5.83L8.64 5.83Q10.70 5.83 11.88 6.12L11.88 6.12Q12.36 6.22 13.66 6.72L13.66 6.72L13.66 10.49L12.94 10.49Q12.77 8.40 11.78 7.44Q10.80 6.48 8.76 6.58L8.76 6.58Q4.08 6.86 4.08 14.45L4.08 14.45Q4.08 17.88 5.30 20.03Q6.53 22.18 8.57 22.20L8.57 22.20Q9.77 22.22 11.18 21.67L11.18 21.67Q12.43 21.24 12.55 20.81L12.55 20.81Q12.67 20.57 12.67 19.85L12.67 19.85L12.67 16.99L9.96 16.99L9.96 16.22ZM17.74 6.19L31.30 6.19L31.34 11.06L30.60 11.06Q30.43 8.98 29.46 8.00Q28.49 7.03 26.23 6.98L26.23 6.98L22.13 6.94L22.13 13.90L25.06 13.90Q26.11 13.90 26.57 13.30L26.57 13.30Q27.12 12.53 27.12 11.06L27.12 11.06L27.89 11.06L27.89 17.71L27.12 17.71Q27.12 16.30 26.54 15.50Q25.97 14.71 25.06 14.71L25.06 14.71L22.13 14.71L22.13 21.98L24.36 21.98L24.36 22.73L17.74 22.73L17.74 21.98L19.99 21.98L19.99 6.94L17.74 6.94L17.74 6.19ZM43.97 17.45L43.97 17.45Q43.97 20.23 41.74 21.70L41.74 21.70Q39.82 22.97 36.91 22.97L36.91 22.97Q35.16 22.97 33 22.15L33 22.15L33.02 18.34L33.74 18.34Q33.89 20.23 34.87 21.07L34.87 21.07Q35.33 21.46 36.22 21.72Q37.10 21.98 37.82 21.96L37.82 21.96Q39.48 21.94 40.73 21.07L40.73 21.07Q41.95 20.18 42 18.70L42 18.70Q42 17.14 40.91 16.20Q39.82 15.26 37.90 15.05L37.90 15.05Q32.78 14.42 32.78 10.78L32.78 10.78Q32.78 8.23 34.73 6.91L34.73 6.91Q36.38 5.76 38.76 5.76L38.76 5.76Q39.46 5.76 40.42 5.96Q41.38 6.17 41.65 6.17Q41.93 6.17 42.02 5.81L42.02 5.81L42.70 5.81L42.70 10.10L41.98 10.10Q41.81 8.33 40.91 7.54Q40.01 6.74 38.23 6.77L38.23 6.77Q34.73 6.82 34.78 9.91L34.78 9.91Q34.82 12.67 38.62 13.06L38.62 13.06Q43.97 13.63 43.97 17.45ZM69.53 14.66L69.53 14.66Q69.53 18.02 67.31 20.45Q65.09 22.87 62.18 22.78L62.18 22.78Q57.82 22.63 54.00 22.73L54.00 22.73L54.00 21.98L56.26 21.98L56.26 6.94L54.00 6.94L54.00 6.19Q56.14 6.31 57.79 6.29Q59.45 6.26 62.26 6.29L62.26 6.29Q65.64 6.34 67.58 8.58Q69.53 10.82 69.53 14.66ZM65.86 19.68L65.86 19.68Q67.03 17.81 67.00 14.51Q66.96 11.21 66.05 9.43L66.05 9.43Q64.92 7.15 62.26 6.94L62.26 6.94Q60.10 6.82 58.39 7.03L58.39 7.03L58.39 21.98Q60.02 22.13 60.85 22.13Q61.68 22.13 62.21 22.08L62.21 22.08Q64.68 21.72 65.86 19.68ZM74.50 6.74Q75.02 6.74 75.40 7.10Q75.77 7.46 75.78 8.00Q75.79 8.54 75.38 8.93Q74.98 9.31 74.47 9.31Q73.97 9.31 73.57 8.93Q73.18 8.54 73.18 8.05Q73.18 7.56 73.57 7.15Q73.97 6.74 74.50 6.74ZM71.69 11.78L75.58 11.78L75.58 21.53Q75.58 22.08 76.10 22.08L76.10 22.08L77.50 22.08L77.50 22.73L71.69 22.73L71.69 22.08L73.08 22.08Q73.61 22.08 73.61 21.53L73.61 21.53L73.61 12.98Q73.54 12.43 73.08 12.43L73.08 12.43L71.69 12.43L71.69 11.78ZM90.53 22.08L91.97 22.08L91.97 22.73L88.01 22.73L88.10 20.62Q87.67 21.50 86.66 22.18L86.66 22.18Q85.49 23.04 83.95 23.04L83.95 23.04Q81.55 23.04 80.28 21.40Q79.01 19.75 79.01 17.15Q79.01 14.54 80.78 12.84Q82.56 11.14 85.15 11.23L85.15 11.23Q86.16 11.35 87.02 11.71L87.02 11.71Q87.79 12.12 88.03 12.55L88.03 12.55L88.03 7.37Q88.01 6.53 87.17 6.53L87.17 6.53L86.04 6.53L86.04 5.86L90 5.86L90 21.50Q90.05 22.08 90.53 22.08L90.53 22.08ZM88.03 17.18L88.03 17.18L88.03 14.14Q87.77 13.32 86.81 12.72Q85.85 12.12 84.59 12.12Q83.33 12.12 82.37 13.13L82.37 13.13Q81.24 14.35 81.07 16.75L81.07 16.75Q80.93 18.60 81.96 20.04L81.96 20.04Q83.06 21.65 84.79 21.65Q86.52 21.65 87.36 20.18L87.36 20.18Q88.03 19.01 88.03 17.18ZM102.98 13.08L102.98 13.08Q104.52 14.59 104.52 17.08Q104.52 19.56 102.82 21.24Q101.11 22.92 98.35 22.97L98.35 22.97Q96.17 22.99 94.66 21.46L94.66 21.46Q93.22 19.90 93.22 17.34Q93.22 14.78 94.82 13.15Q96.43 11.52 99.19 11.52L99.19 11.52Q101.47 11.52 102.98 13.08ZM99.31 22.20L99.31 22.20Q100.82 22.20 101.58 20.93Q102.34 19.66 102.34 17.63Q102.34 15.60 101.30 13.94L101.30 13.94Q100.25 12.31 98.69 12.31L98.69 12.31Q95.40 12.31 95.40 16.51L95.40 16.51Q95.40 18.74 96.22 20.28L96.22 20.28Q97.25 22.20 99.31 22.20ZM108.34 9.74L108.34 9.74L109.56 9.74L109.56 12.70L112.56 12.65L112.51 13.75L109.56 13.75L109.56 19.94Q109.56 21.55 110.81 21.55L110.81 21.55Q111.36 21.55 112.18 21.12L112.18 21.12L112.34 21.38Q111.53 23.04 109.85 23.04L109.85 23.04Q107.54 22.99 107.54 20.52L107.54 20.52L107.54 13.75L105.74 13.80L105.74 13.15Q105.91 13.10 106.20 13.03L106.20 13.03Q107.30 12.77 107.81 11.99Q108.31 11.21 108.34 9.74Z"/></svg>