<svg xmlns="http://www.w3.org/2000/svg" xmlns:xlink="http://www.w3.org/1999/xlink" width="69.6" height="26.400000000000002"><path fill="black" d="M5.90 20.35L5.90 20.35Q5.45 20.35 4.75 20.18Q4.06 20.02 3.30 19.76Q2.54 19.51 1.88 19.20Q1.22 18.89 0.86 18.60L0.86 18.60Q0.58 18.36 0.31 18Q0.05 17.64 0.05 17.23L0.05 17.23Q0.05 16.90 0.26 16.72Q0.48 16.54 0.82 16.54L0.82 16.54Q0.94 16.54 1.21 16.60Q1.49 16.66 1.73 16.76Q1.97 16.87 1.97 16.99L1.97 16.99Q1.97 17.09 1.88 17.12Q1.80 17.16 1.73 17.16L1.73 17.16Q1.63 17.16 1.55 17.14Q1.46 17.11 1.39 17.11L1.39 17.11Q1.22 17.11 1.07 17.20Q0.91 17.28 0.91 17.47L0.91 17.47Q0.91 17.88 1.43 18.29Q1.94 18.70 2.66 19.04Q3.38 19.39 4.07 19.61Q4.75 19.82 5.11 19.82L5.11 19.82Q5.64 19.82 6.10 19.51Q6.55 19.20 6.55 18.67L6.55 18.67Q6.55 18.19 6.38 17.60Q6.22 17.02 6 16.43Q5.78 15.84 5.59 15.41L5.59 15.41Q5.18 14.38 4.91 13.12Q4.63 11.86 4.63 10.58L4.63 10.58Q4.63 9.26 5.00 8.06Q5.38 6.86 6.26 6.01Q7.15 5.16 8.64 4.90L8.64 4.90Q8.76 4.85 8.87 4.85Q8.98 4.85 9.07 4.85L9.07 4.85Q10.03 4.85 10.70 5.41Q11.38 5.98 11.75 6.83Q12.12 7.68 12.12 8.52L12.12 8.52Q12.12 8.93 12.02 9.48Q11.93 10.03 11.71 10.56Q11.50 11.09 11.15 11.44Q10.80 11.78 10.27 11.78L10.27 11.78Q9.77 11.78 9.53 11.42Q9.29 11.06 9.29 10.61L9.29 10.61Q9.29 10.13 9.46 9.53Q9.62 8.93 9.86 8.35Q10.10 7.78 10.32 7.37L10.32 7.37Q10.34 7.34 10.38 7.28Q10.42 7.22 10.46 7.22L10.46 7.22Q10.51 7.22 10.51 7.34L10.51 7.34L10.51 7.51Q10.51 7.66 10.44 7.78L10.44 7.78Q10.20 8.30 9.96 8.96Q9.72 9.62 9.72 10.22L9.72 10.22Q9.72 10.61 9.90 10.97Q10.08 11.33 10.34 11.33L10.34 11.33Q10.49 11.33 10.64 11.18Q10.80 11.04 10.94 10.70L10.94 10.70Q11.18 10.22 11.29 9.67Q11.40 9.12 11.40 8.59L11.40 8.59Q11.40 7.94 11.15 7.15Q10.90 6.36 10.39 5.80Q9.89 5.23 9.10 5.23L9.10 5.23L8.95 5.23Q8.76 5.23 8.69 5.28L8.69 5.28Q7.46 5.54 6.73 6.38Q6 7.22 5.68 8.39Q5.35 9.55 5.35 10.80L5.35 10.80Q5.35 11.95 5.57 13.06Q5.78 14.16 6.12 15L6.12 15Q6.34 15.48 6.62 16.26Q6.91 17.04 7.14 17.81Q7.37 18.58 7.37 19.08L7.37 19.08Q7.37 19.78 6.95 20.06Q6.53 20.35 5.90 20.35ZM11.90 19.58L11.90 19.58Q11.40 19.58 11.30 19.10Q11.21 18.62 11.21 18.24L11.21 18.24Q11.21 17.57 11.27 16.91Q11.33 16.25 11.38 15.58L11.38 15.58Q11.28 15.91 11.10 16.51Q10.92 17.11 10.66 17.74Q10.39 18.36 10.06 18.79Q9.72 19.22 9.29 19.22L9.29 19.22Q9 19.22 8.86 18.98Q8.71 18.74 8.68 18.42Q8.64 18.10 8.64 17.90L8.64 17.90Q8.64 16.78 9.10 15.58Q9.55 14.38 10.18 13.49L10.18 13.49Q10.18 13.13 10.45 12.74Q10.73 12.36 11.11 12.05Q11.50 11.74 11.78 11.62L11.78 11.62Q11.93 11.57 12.05 11.57L12.05 11.57Q12.17 11.57 12.23 11.66Q12.29 11.76 12.29 11.88L12.29 11.88Q12.29 11.98 12.26 12.08Q12.24 12.19 12.17 12.26L12.17 12.26Q11.95 12.48 11.75 12.65Q11.54 12.82 11.33 13.08L11.33 13.08Q10.85 13.66 10.33 14.47Q9.82 15.29 9.46 16.16Q9.10 17.04 9.10 17.81L9.10 17.81Q9.10 17.90 9.12 18.18Q9.14 18.46 9.23 18.68Q9.31 18.91 9.48 18.91L9.48 18.91Q9.70 18.91 9.88 18.66Q10.06 18.41 10.15 18.24L10.15 18.24Q10.42 17.76 10.66 17.04Q10.90 16.32 11.09 15.58Q11.28 14.83 11.38 14.30L11.38 14.30Q11.42 14.14 11.45 13.98Q11.47 13.82 11.50 13.66L11.50 13.66Q11.52 13.58 11.52 13.48Q11.52 13.37 11.54 13.27L11.54 13.27Q11.59 13.13 11.76 13.13L11.76 13.13Q11.88 13.13 11.98 13.20Q12.07 13.27 12.07 13.39L12.07 13.39L12.07 13.44Q12.07 14.26 11.96 15.05Q11.86 15.84 11.86 16.68L11.86 16.68Q11.86 17.16 11.88 17.69Q11.90 18.22 12 18.72L12 18.72Q12 18.79 12.05 18.94Q12.10 19.08 12.22 19.08L12.22 19.08Q12.29 19.08 12.37 19.02Q12.46 18.96 12.48 18.94L12.48 18.94Q13.08 18.43 13.51 17.63Q13.94 16.82 14.21 16.10L14.21 16.10Q14.28 15.98 14.33 15.98L14.33 15.98Q14.40 15.98 14.40 16.10L14.40 16.10L14.40 16.20Q14.28 16.61 13.94 17.29Q13.61 17.98 13.21 18.59Q12.82 19.20 12.46 19.42L12.46 19.42Q12.22 19.58 11.90 19.58ZM15.82 19.37L15.82 19.37Q15.72 19.37 15.40 19.34Q15.07 19.32 15.02 19.22L15.02 19.22L14.95 19.06Q14.95 19.01 15.05 19.00Q15.14 18.98 15.17 18.98L15.17 18.98L15.96 18.98Q16.18 18.96 16.49 18.88Q16.80 18.79 17.04 18.62Q17.28 18.46 17.28 18.19L17.28 18.19Q17.28 18.02 17.16 17.90Q17.04 17.78 16.92 17.71L16.92 17.71Q16.44 17.40 15.90 17.00Q15.36 16.61 15 16.08Q14.64 15.55 14.64 14.90L14.64 14.90Q14.64 14.26 15.06 13.60Q15.48 12.94 16.14 12.37Q16.80 11.81 17.53 11.47Q18.26 11.14 18.89 11.14L18.89 11.14Q19.30 11.14 19.76 11.36Q20.23 11.59 20.23 12.07L20.23 12.07Q20.23 12.22 20.12 12.49Q20.02 12.77 19.82 12.77L19.82 12.77Q19.78 12.77 19.76 12.68Q19.75 12.60 19.75 12.58L19.75 12.58Q19.75 12.43 19.78 12.30Q19.80 12.17 19.80 12.05L19.80 12.05Q19.80 11.62 19.37 11.62L19.37 11.62Q19.03 11.62 18.50 11.87Q17.98 12.12 17.47 12.44Q16.97 12.77 16.70 13.01L16.70 13.01Q16.44 13.27 16.10 13.64Q15.77 14.02 15.53 14.44Q15.29 14.86 15.29 15.26L15.29 15.26Q15.29 15.77 15.70 16.20Q16.10 16.63 16.64 16.99Q17.18 17.35 17.59 17.69Q18 18.02 18 18.38L18 18.38Q18 18.77 17.58 18.98Q17.16 19.20 16.64 19.28Q16.13 19.37 15.82 19.37ZM21.65 19.37L21.65 19.37Q21.55 19.37 21.23 19.34Q20.90 19.32 20.86 19.22L20.86 19.22L20.78 19.06Q20.78 19.01 20.88 19.00Q20.98 18.98 21 18.98L21 18.98L21.79 18.98Q22.01 18.96 22.32 18.88Q22.63 18.79 22.87 18.62Q23.11 18.46 23.11 18.19L23.11 18.19Q23.11 18.02 22.99 17.90Q22.87 17.78 22.75 17.71L22.75 17.71Q22.27 17.40 21.73 17.00Q21.19 16.61 20.83 16.08Q20.47 15.55 20.47 14.90L20.47 14.90Q20.47 14.26 20.89 13.60Q21.31 12.94 21.97 12.37Q22.63 11.81 23.36 11.47Q24.10 11.14 24.72 11.14L24.72 11.14Q25.13 11.14 25.60 11.36Q26.06 11.59 26.06 12.07L26.06 12.07Q26.06 12.22 25.96 12.49Q25.85 12.77 25.66 12.77L25.66 12.77Q25.61 12.77 25.60 12.68Q25.58 12.60 25.58 12.58L25.58 12.58Q25.58 12.43 25.61 12.30Q25.63 12.17 25.63 12.05L25.63 12.05Q25.63 11.62 25.20 11.62L25.20 11.62Q24.86 11.62 24.34 11.87Q23.81 12.12 23.30 12.44Q22.80 12.77 22.54 13.01L22.54 13.01Q22.27 13.27 21.94 13.64Q21.60 14.02 21.36 14.44Q21.12 14.86 21.12 15.26L21.12 15.26Q21.12 15.77 21.53 16.20Q21.94 16.63 22.48 16.99Q23.02 17.35 23.42 17.69Q23.83 18.02 23.83 18.38L23.83 18.38Q23.83 18.77 23.41 18.98Q22.99 19.20 22.48 19.28Q21.96 19.37 21.65 19.37ZM26.74 23.28L26.74 23.28Q26.28 23.28 25.91 23.05Q25.54 22.82 25.54 22.32L25.54 22.32Q25.54 21.74 25.98 21.22Q26.42 20.69 26.83 20.33L26.83 20.33Q27.43 19.82 28.25 19.22Q29.06 18.62 29.81 18.46L29.81 18.46Q29.78 17.40 29.35 16.37L29.35 16.37Q28.97 16.90 28.55 17.41Q28.13 17.93 27.62 18.38L27.62 18.38Q27.41 18.58 26.94 18.89Q26.47 19.20 26.18 19.20L26.18 19.20Q25.94 19.20 25.94 18.91L25.94 18.91Q25.94 18.67 26.06 18.38L26.06 18.38Q26.28 17.83 26.50 17.27Q26.71 16.70 26.93 16.18L26.93 16.18Q27.12 15.74 27.32 15.19Q27.53 14.64 27.53 14.18L27.53 14.18Q27.53 14.11 27.50 13.98Q27.48 13.85 27.36 13.85L27.36 13.85Q27.22 13.85 27.01 14.02Q26.81 14.18 26.69 14.18L26.69 14.18Q26.62 14.18 26.62 14.14L26.62 14.14Q26.62 13.99 26.83 13.86Q27.05 13.73 27.31 13.64Q27.58 13.56 27.70 13.56L27.70 13.56Q28.03 13.56 28.20 13.76Q28.37 13.97 28.37 14.30L28.37 14.30Q28.37 14.71 28.08 15.38Q27.79 16.06 27.41 16.76Q27.02 17.47 26.74 17.99Q26.45 18.50 26.45 18.62L26.45 18.62Q26.45 18.70 26.50 18.70L26.50 18.70Q26.64 18.70 26.98 18.48Q27.31 18.26 27.43 18.17L27.43 18.17Q28.49 17.26 29.28 16.10L29.28 16.10Q29.23 16.01 29.10 15.77Q28.97 15.53 28.97 15.43L28.97 15.43Q28.97 15.29 29.21 15.12Q29.45 14.95 29.72 14.84Q30.00 14.74 30.10 14.74L30.10 14.74Q30.26 14.74 30.26 14.88L30.26 14.88Q30.26 15.10 29.98 15.50Q29.69 15.91 29.57 16.10L29.57 16.10Q29.83 16.63 30.02 17.21Q30.22 17.78 30.31 18.38L30.31 18.38Q30.48 18.38 30.84 18.53Q31.20 18.67 31.20 18.86L31.20 18.86Q31.20 18.94 31.10 18.94L31.10 18.94Q31.03 18.94 30.86 18.79Q30.70 18.65 30.36 18.67L30.36 18.67Q30.38 18.86 30.40 19.06Q30.41 19.25 30.41 19.46L30.41 19.46Q30.41 20.35 30.10 21.08Q29.78 21.82 29.06 22.37L29.06 22.37Q28.61 22.73 27.98 23.00Q27.36 23.28 26.74 23.28ZM29.45 15.86L29.45 15.86Q29.57 15.67 29.68 15.46Q29.78 15.24 29.88 15.02L29.88 15.02Q29.69 15.12 29.53 15.23Q29.38 15.34 29.18 15.46L29.18 15.46Q29.28 15.55 29.33 15.65Q29.38 15.74 29.45 15.86ZM26.81 23.09L26.81 23.09Q27.31 23.09 27.77 22.76Q28.22 22.44 28.54 22.10L28.54 22.10Q29.18 21.41 29.50 20.56Q29.81 19.70 29.83 18.77L29.83 18.77Q29.38 18.91 28.73 19.27Q28.08 19.63 27.46 20.14Q26.83 20.64 26.41 21.20Q25.99 21.77 25.99 22.30L25.99 22.30Q25.99 22.66 26.22 22.87Q26.45 23.09 26.81 23.09ZM41.30 10.85L41.30 10.85Q40.94 10.85 40.32 10.82Q39.70 10.80 38.98 10.70Q38.26 10.61 37.61 10.42Q36.96 10.22 36.54 9.90Q36.12 9.58 36.12 9.10L36.12 9.10Q36.12 8.62 36.48 8.22Q36.84 7.82 37.22 7.63L37.22 7.63Q38.16 7.13 39.43 6.76Q40.70 6.38 42.12 6.13Q43.54 5.88 44.88 5.76Q46.22 5.64 47.26 5.64L47.26 5.64Q47.52 5.64 48.08 5.66Q48.65 5.69 49.36 5.77Q50.06 5.86 50.71 6.00Q51.36 6.14 51.78 6.40Q52.20 6.65 52.20 7.03L52.20 7.03Q52.20 7.13 52.13 7.30Q52.06 7.46 51.91 7.46L51.91 7.46Q51.74 7.46 51.74 7.30L51.74 7.30Q51.74 7.22 51.78 7.18Q51.82 7.13 51.82 7.03L51.82 7.03Q51.82 6.86 51.66 6.76Q51.50 6.65 51.38 6.62L51.38 6.62Q50.76 6.34 49.81 6.25Q48.86 6.17 48.17 6.17L48.17 6.17Q47.18 6.17 45.86 6.29Q44.54 6.41 43.14 6.66Q41.74 6.91 40.48 7.26Q39.22 7.61 38.35 8.09L38.35 8.09Q38.09 8.23 37.64 8.54Q37.20 8.86 37.20 9.22L37.20 9.22Q37.20 9.53 37.61 9.73Q38.02 9.94 38.65 10.06Q39.29 10.18 39.98 10.25Q40.68 10.32 41.24 10.34Q41.81 10.37 42.05 10.37L42.05 10.37Q42.77 10.37 43.49 10.30Q44.21 10.22 44.88 10.03L44.88 10.03L44.95 10.03Q45.12 10.03 45.12 10.22L45.12 10.22Q45.12 10.34 44.98 10.39L44.98 10.39Q44.88 10.44 44.75 10.46Q44.62 10.49 44.50 10.51L44.50 10.51Q42.86 10.85 41.30 10.85ZM39.07 20.62L39.07 20.62Q37.66 20.62 36.76 19.94Q35.86 19.27 35.44 18.16Q35.02 17.04 35.02 15.77L35.02 15.77Q35.02 15.22 35.12 14.42Q35.23 13.63 35.45 13.10L35.45 13.10Q35.50 12.96 35.62 12.96L35.62 12.96Q35.81 12.96 35.81 13.13L35.81 13.13L35.81 13.18Q35.50 14.04 35.50 15L35.50 15Q35.50 16.01 35.81 16.92L35.81 16.92Q36.05 17.66 36.49 18.41Q36.94 19.15 37.62 19.64Q38.30 20.14 39.17 20.14L39.17 20.14Q40.32 20.14 41.32 19.62Q42.31 19.10 43.14 18.24Q43.97 17.38 44.65 16.32Q45.34 15.26 45.89 14.20Q46.44 13.13 46.85 12.19L46.85 12.19Q46.03 12.31 45.20 12.60Q44.38 12.89 43.61 13.18L43.61 13.18Q43.30 13.30 42.70 13.52Q42.10 13.75 41.42 14.00Q40.75 14.26 40.16 14.42Q39.58 14.59 39.26 14.59L39.26 14.59Q39.02 14.59 38.72 14.45Q38.42 14.30 38.42 14.02L38.42 14.02Q38.42 13.87 38.50 13.78L38.50 13.78Q38.66 13.51 39.12 13.27Q39.58 13.03 40.13 12.82Q40.68 12.60 41.20 12.40Q41.71 12.19 42 12.05L42 12.05Q42.65 11.76 43.25 11.44Q43.85 11.11 44.40 10.66L44.40 10.66Q44.45 10.61 44.50 10.61L44.50 10.61Q44.62 10.61 44.62 10.78L44.62 10.78Q44.62 10.87 44.54 10.94L44.54 10.94Q43.85 11.62 42.82 12.08Q41.78 12.55 40.92 13.01L40.92 13.01Q40.56 13.20 40.15 13.44Q39.74 13.68 39.48 14.02L39.48 14.02L39.46 14.06L39.50 14.06Q39.70 14.06 40.26 13.88Q40.82 13.70 41.50 13.46Q42.17 13.22 42.73 13.01Q43.30 12.79 43.54 12.72L43.54 12.72Q44.38 12.43 45.25 12.16Q46.13 11.88 47.02 11.81L47.02 11.81Q47.14 11.54 47.38 10.99Q47.62 10.44 47.93 9.76Q48.24 9.07 48.55 8.42Q48.86 7.78 49.13 7.30Q49.39 6.82 49.56 6.70L49.56 6.70Q49.70 6.58 49.87 6.48Q50.04 6.38 50.26 6.38L50.26 6.38Q50.50 6.38 50.76 6.60Q51.02 6.82 51.02 7.08L51.02 7.08Q51.02 7.20 50.90 7.20L50.90 7.20Q50.69 7.20 50.59 6.98Q50.50 6.77 50.23 6.77L50.23 6.77Q50.09 6.77 50.00 6.84Q49.92 6.91 49.82 6.98L49.82 6.98Q49.73 7.08 49.54 7.52Q49.34 7.97 49.09 8.60Q48.84 9.24 48.59 9.91Q48.34 10.58 48.14 11.10Q47.95 11.62 47.88 11.83L47.88 11.83Q48.19 11.93 48.50 12.12Q48.82 12.31 48.82 12.70L48.82 12.70Q48.82 13.03 48.55 13.40Q48.29 13.78 47.94 14.10Q47.59 14.42 47.33 14.62L47.33 14.62Q47.30 14.62 47.29 14.64Q47.28 14.66 47.23 14.66L47.23 14.66Q47.06 14.66 47.06 14.50L47.06 14.50Q47.06 14.40 47.33 14.09Q47.59 13.78 47.87 13.37Q48.14 12.96 48.14 12.62L48.14 12.62Q48.14 12.24 47.76 12.19L47.76 12.19Q47.57 12.65 47.39 13.13Q47.21 13.61 46.99 14.09L46.99 14.09Q46.42 15.31 45.66 16.49Q44.90 17.66 43.96 18.59Q43.01 19.51 41.80 20.06Q40.58 20.62 39.07 20.62ZM49.97 18.89L49.87 18.89Q49.70 18.89 49.56 18.72Q49.42 18.55 49.42 18.38L49.42 18.38Q49.42 18.31 49.46 18.22L49.46 18.22Q49.73 17.47 49.90 16.50Q50.06 15.53 50.06 14.76L50.06 14.76Q50.06 14.30 49.98 13.79Q49.90 13.27 49.51 12.96L49.51 12.96Q49.44 12.96 49.44 12.86L49.44 12.86Q49.44 12.84 49.49 12.84L49.49 12.84Q49.56 12.84 49.61 12.89L49.61 12.89Q50.16 13.22 50.32 13.98Q50.47 14.74 50.47 15.31L50.47 15.31Q50.47 15.86 50.40 16.44Q50.33 17.02 50.21 17.57L50.21 17.57L50.21 17.69Q50.21 17.69 50.22 17.72Q50.23 17.76 50.26 17.76L50.26 17.76Q50.30 17.76 50.33 17.71Q50.35 17.66 50.38 17.64L50.38 17.64Q50.74 17.09 50.99 16.43Q51.24 15.77 51.48 15.14L51.48 15.14Q51.53 14.95 51.68 14.72Q51.84 14.50 52.08 14.50L52.08 14.50Q52.27 14.50 52.31 14.68Q52.34 14.86 52.34 14.98L52.34 14.98Q52.34 15.26 52.46 15.48Q52.58 15.70 52.58 15.77L52.58 15.77Q52.58 15.86 52.46 15.88Q52.34 15.89 52.30 15.89L52.30 15.89Q52.13 15.89 51.97 15.80Q51.82 15.72 51.65 15.72L51.65 15.72Q51.58 15.72 51.50 15.79L51.50 15.79Q51.36 16.03 51.24 16.30Q51.12 16.56 51 16.80L51 16.80Q50.83 17.18 50.63 17.59Q50.42 18 50.26 18.41L50.26 18.41Q50.21 18.55 50.17 18.68Q50.14 18.82 49.97 18.89L49.97 18.89ZM55.85 19.58L55.85 19.58Q55.34 19.58 55.25 19.10Q55.15 18.62 55.15 18.24L55.15 18.24Q55.15 17.57 55.21 16.91Q55.27 16.25 55.32 15.58L55.32 15.58Q55.22 15.91 55.04 16.51Q54.86 17.11 54.60 17.74Q54.34 18.36 54 18.79Q53.66 19.22 53.23 19.22L53.23 19.22Q52.94 19.22 52.80 18.98Q52.66 18.74 52.62 18.42Q52.58 18.10 52.58 17.90L52.58 17.90Q52.58 16.78 53.04 15.58Q53.50 14.38 54.12 13.49L54.12 13.49Q54.12 13.13 54.40 12.74Q54.67 12.36 55.06 12.05Q55.44 11.74 55.73 11.62L55.73 11.62Q55.87 11.57 55.99 11.57L55.99 11.57Q56.11 11.57 56.17 11.66Q56.23 11.76 56.23 11.88L56.23 11.88Q56.23 11.98 56.21 12.08Q56.18 12.19 56.11 12.26L56.11 12.26Q55.90 12.48 55.69 12.65Q55.49 12.82 55.27 13.08L55.27 13.08Q54.79 13.66 54.28 14.47Q53.76 15.29 53.40 16.16Q53.04 17.04 53.04 17.81L53.04 17.81Q53.04 17.90 53.06 18.18Q53.09 18.46 53.17 18.68Q53.26 18.91 53.42 18.91L53.42 18.91Q53.64 18.91 53.82 18.66Q54 18.41 54.10 18.24L54.10 18.24Q54.36 17.76 54.60 17.04Q54.84 16.32 55.03 15.58Q55.22 14.83 55.32 14.30L55.32 14.30Q55.37 14.14 55.39 13.98Q55.42 13.82 55.44 13.66L55.44 13.66Q55.46 13.58 55.46 13.48Q55.46 13.37 55.49 13.27L55.49 13.27Q55.54 13.13 55.70 13.13L55.70 13.13Q55.82 13.13 55.92 13.20Q56.02 13.27 56.02 13.39L56.02 13.39L56.02 13.44Q56.02 14.26 55.91 15.05Q55.80 15.84 55.80 16.68L55.80 16.68Q55.80 17.16 55.82 17.69Q55.85 18.22 55.94 18.72L55.94 18.72Q55.94 18.79 55.99 18.94Q56.04 19.08 56.16 19.08L56.16 19.08Q56.23 19.08 56.32 19.02Q56.40 18.96 56.42 18.94L56.42 18.94Q57.02 18.43 57.46 17.63Q57.89 16.82 58.15 16.10L58.15 16.10Q58.22 15.98 58.27 15.98L58.27 15.98Q58.34 15.98 58.34 16.10L58.34 16.10L58.34 16.20Q58.22 16.61 57.89 17.29Q57.55 17.98 57.16 18.59Q56.76 19.20 56.40 19.42L56.40 19.42Q56.16 19.58 55.85 19.58ZM59.76 19.37L59.76 19.37Q59.66 19.37 59.34 19.34Q59.02 19.32 58.97 19.22L58.97 19.22L58.90 19.06Q58.90 19.01 58.99 19.00Q59.09 18.98 59.11 18.98L59.11 18.98L59.90 18.98Q60.12 18.96 60.43 18.88Q60.74 18.79 60.98 18.62Q61.22 18.46 61.22 18.19L61.22 18.19Q61.22 18.02 61.10 17.90Q60.98 17.78 60.86 17.71L60.86 17.71Q60.38 17.40 59.84 17.00Q59.30 16.61 58.94 16.08Q58.58 15.55 58.58 14.90L58.58 14.90Q58.58 14.26 59.00 13.60Q59.42 12.94 60.08 12.37Q60.74 11.81 61.48 11.47Q62.21 11.14 62.83 11.14L62.83 11.14Q63.24 11.14 63.71 11.36Q64.18 11.59 64.18 12.07L64.18 12.07Q64.18 12.22 64.07 12.49Q63.96 12.77 63.77 12.77L63.77 12.77Q63.72 12.77 63.71 12.68Q63.70 12.60 63.70 12.58L63.70 12.58Q63.70 12.43 63.72 12.30Q63.74 12.17 63.74 12.05L63.74 12.05Q63.74 11.62 63.31 11.62L63.31 11.62Q62.98 11.62 62.45 11.87Q61.92 12.12 61.42 12.44Q60.91 12.77 60.65 13.01L60.65 13.01Q60.38 13.27 60.05 13.64Q59.71 14.02 59.47 14.44Q59.23 14.86 59.23 15.26L59.23 15.26Q59.23 15.77 59.64 16.20Q60.05 16.63 60.59 16.99Q61.13 17.35 61.54 17.69Q61.94 18.02 61.94 18.38L61.94 18.38Q61.94 18.77 61.52 18.98Q61.10 19.20 60.59 19.28Q60.07 19.37 59.76 19.37ZM65.59 19.37L65.59 19.37Q65.50 19.37 65.17 19.34Q64.85 19.32 64.80 19.22L64.80 19.22L64.73 19.06Q64.73 19.01 64.82 19.00Q64.92 18.98 64.94 18.98L64.94 18.98L65.74 18.98Q65.95 18.96 66.26 18.88Q66.58 18.79 66.82 18.62Q67.06 18.46 67.06 18.19L67.06 18.19Q67.06 18.02 66.94 17.90Q66.82 17.78 66.70 17.71L66.70 17.71Q66.22 17.40 65.68 17.00Q65.14 16.61 64.78 16.08Q64.42 15.55 64.42 14.90L64.42 14.90Q64.42 14.26 64.84 13.60Q65.26 12.94 65.92 12.37Q66.58 11.81 67.31 11.47Q68.04 11.14 68.66 11.14L68.66 11.14Q69.07 11.14 69.54 11.36Q70.01 11.59 70.01 12.07L70.01 12.07Q70.01 12.22 69.90 12.49Q69.79 12.77 69.60 12.77L69.60 12.77Q69.55 12.77 69.54 12.68Q69.53 12.60 69.53 12.58L69.53 12.58Q69.53 12.43 69.55 12.30Q69.58 12.17 69.58 12.05L69.58 12.05Q69.58 11.62 69.14 11.62L69.14 11.62Q68.81 11.62 68.28 11.87Q67.75 12.12 67.25 12.44Q66.74 12.77 66.48 13.01L66.48 13.01Q66.22 13.27 65.88 13.64Q65.54 14.02 65.30 14.44Q65.06 14.86 65.06 15.26L65.06 15.26Q65.06 15.77 65.47 16.20Q65.88 16.63 66.42 16.99Q66.96 17.35 67.37 17.69Q67.78 18.02 67.78 18.38L67.78 18.38Q67.78 18.77 67.36 18.98Q66.94 19.20 66.42 19.28Q65.90 19.37 65.59 19.37Z"/></svg>