<svg xmlns="http://www.w3.org/2000/svg" xmlns:xlink="http://www.w3.org/1999/xlink" width="292.1015625" height="28.125"><path fill="black" d="M1.85 22.27L1.85 5.20L6.62 5.20Q8.29 5.20 9.42 5.79Q10.55 6.38 11.13 7.52Q11.71 8.66 11.71 10.32L11.71 10.32Q11.71 11.50 11.32 12.46Q10.93 13.43 10.20 14.10Q9.46 14.78 8.40 15.11L8.40 15.11L7.82 15.35L3.56 15.35L3.54 13.51L6.60 13.51Q7.58 13.51 8.24 13.08Q8.89 12.66 9.22 11.93Q9.55 11.20 9.55 10.32L9.55 10.32Q9.55 9.34 9.26 8.60Q8.96 7.86 8.33 7.46Q7.69 7.05 6.62 7.05L6.62 7.05L4.01 7.05L4.01 22.27L1.85 22.27ZM12.35 22.27L10.04 22.27L6.64 14.53L8.88 14.52L12.35 22.13L12.35 22.27ZM13.86 16.54L13.86 16.54L13.86 15.33Q13.86 13.85 14.24 12.73Q14.61 11.61 15.28 10.86Q15.95 10.11 16.84 9.73Q17.73 9.35 18.75 9.35L18.75 9.35Q19.79 9.35 20.68 9.73Q21.57 10.11 22.25 10.86Q22.92 11.61 23.30 12.73Q23.67 13.85 23.67 15.33L23.67 15.33L23.67 16.54Q23.67 18.01 23.30 19.13Q22.92 20.25 22.25 21Q21.59 21.75 20.70 22.13Q19.80 22.50 18.77 22.50L18.77 22.50Q17.74 22.50 16.85 22.13Q15.96 21.75 15.29 21Q14.61 20.25 14.24 19.13Q13.86 18.01 13.86 16.54ZM15.94 15.33L15.94 15.33L15.94 16.54Q15.94 17.58 16.15 18.36Q16.36 19.15 16.75 19.68Q17.13 20.20 17.65 20.47Q18.16 20.73 18.77 20.73L18.77 20.73Q19.48 20.73 20.01 20.47Q20.54 20.20 20.89 19.68Q21.25 19.15 21.42 18.36Q21.60 17.58 21.60 16.54L21.60 16.54L21.60 15.33Q21.60 14.29 21.39 13.51Q21.18 12.73 20.79 12.19Q20.40 11.66 19.88 11.40Q19.36 11.13 18.75 11.13L18.75 11.13Q18.15 11.13 17.64 11.40Q17.12 11.66 16.74 12.19Q16.36 12.73 16.15 13.51Q15.94 14.29 15.94 15.33ZM26.34 22.27L26.34 4.27L28.42 4.27L28.42 19.80L28.24 22.27L26.34 22.27ZM35.53 15.35L35.53 15.35L35.53 16.54Q35.53 18.04 35.26 19.15Q34.98 20.27 34.44 21.02Q33.90 21.76 33.13 22.13Q32.36 22.50 31.36 22.50L31.36 22.50Q30.38 22.50 29.66 22.10Q28.95 21.70 28.46 20.95Q27.98 20.20 27.71 19.14Q27.43 18.07 27.33 16.73L27.33 16.73L27.33 15.15Q27.43 13.80 27.70 12.73Q27.97 11.66 28.45 10.90Q28.93 10.15 29.65 9.75Q30.36 9.35 31.35 9.35L31.35 9.35Q32.36 9.35 33.13 9.70Q33.91 10.05 34.45 10.79Q34.98 11.52 35.26 12.65Q35.53 13.78 35.53 15.35ZM33.46 16.54L33.46 16.54L33.46 15.35Q33.46 14.30 33.32 13.51Q33.19 12.73 32.88 12.21Q32.58 11.70 32.07 11.44Q31.56 11.18 30.81 11.18L30.81 11.18Q30.18 11.18 29.70 11.44Q29.23 11.70 28.89 12.13Q28.55 12.57 28.32 13.13Q28.10 13.69 28.00 14.29L28.00 14.29L28.00 17.61Q28.15 18.38 28.48 19.07Q28.82 19.77 29.39 20.21Q29.96 20.66 30.82 20.66L30.82 20.66Q31.54 20.66 32.03 20.41Q32.53 20.17 32.85 19.66Q33.16 19.15 33.31 18.37Q33.46 17.59 33.46 16.54ZM37.75 16.54L37.75 16.54L37.75 15.33Q37.75 13.85 38.12 12.73Q38.50 11.61 39.16 10.86Q39.83 10.11 40.72 9.73Q41.61 9.35 42.63 9.35L42.63 9.35Q43.68 9.35 44.57 9.73Q45.46 10.11 46.13 10.86Q46.80 11.61 47.18 12.73Q47.55 13.85 47.55 15.33L47.55 15.33L47.55 16.54Q47.55 18.01 47.18 19.13Q46.80 20.25 46.14 21Q45.47 21.75 44.58 22.13Q43.69 22.50 42.66 22.50L42.66 22.50Q41.63 22.50 40.73 22.13Q39.84 21.75 39.17 21Q38.50 20.25 38.12 19.13Q37.75 18.01 37.75 16.54ZM39.82 15.33L39.82 15.33L39.82 16.54Q39.82 17.58 40.03 18.36Q40.24 19.15 40.63 19.68Q41.02 20.20 41.53 20.47Q42.05 20.73 42.66 20.73L42.66 20.73Q43.36 20.73 43.89 20.47Q44.43 20.20 44.78 19.68Q45.13 19.15 45.30 18.36Q45.48 17.58 45.48 16.54L45.48 16.54L45.48 15.33Q45.48 14.29 45.27 13.51Q45.06 12.73 44.67 12.19Q44.29 11.66 43.76 11.40Q43.24 11.13 42.63 11.13L42.63 11.13Q42.04 11.13 41.52 11.40Q41.00 11.66 40.62 12.19Q40.24 12.73 40.03 13.51Q39.82 14.29 39.82 15.33ZM48.94 9.59L54.86 9.59L54.86 11.25L48.94 11.25L48.94 9.59ZM50.87 19.11L50.87 6.50L52.95 6.50L52.95 19.13Q52.95 19.77 53.10 20.10Q53.26 20.43 53.51 20.53Q53.75 20.64 54.04 20.64L54.04 20.64Q54.25 20.64 54.50 20.58Q54.76 20.53 54.86 20.50L54.86 20.50L54.84 22.27Q54.63 22.35 54.28 22.42Q53.93 22.50 53.39 22.50L53.39 22.50Q52.72 22.50 52.15 22.18Q51.57 21.87 51.22 21.12Q50.87 20.38 50.87 19.11L50.87 19.11ZM56.89 16.54L56.89 16.54L56.89 15.33Q56.89 13.85 57.27 12.73Q57.64 11.61 58.31 10.86Q58.98 10.11 59.87 9.73Q60.76 9.35 61.78 9.35L61.78 9.35Q62.82 9.35 63.71 9.73Q64.61 10.11 65.28 10.86Q65.95 11.61 66.33 12.73Q66.70 13.85 66.70 15.33L66.70 15.33L66.70 16.54Q66.70 18.01 66.33 19.13Q65.95 20.25 65.29 21Q64.62 21.75 63.73 22.13Q62.84 22.50 61.80 22.50L61.80 22.50Q60.77 22.50 59.88 22.13Q58.99 21.75 58.32 21Q57.64 20.25 57.27 19.13Q56.89 18.01 56.89 16.54ZM58.97 15.33L58.97 15.33L58.97 16.54Q58.97 17.58 59.18 18.36Q59.39 19.15 59.78 19.68Q60.16 20.20 60.68 20.47Q61.20 20.73 61.80 20.73L61.80 20.73Q62.51 20.73 63.04 20.47Q63.57 20.20 63.93 19.68Q64.28 19.15 64.45 18.36Q64.63 17.58 64.63 16.54L64.63 16.54L64.63 15.33Q64.63 14.29 64.42 13.51Q64.21 12.73 63.82 12.19Q63.43 11.66 62.91 11.40Q62.39 11.13 61.78 11.13L61.78 11.13Q61.18 11.13 60.67 11.40Q60.15 11.66 59.77 12.19Q59.39 12.73 59.18 13.51Q58.97 14.29 58.97 15.33ZM83.71 16.84L83.71 16.84L85.86 16.84Q85.78 18.60 85.15 19.87Q84.53 21.14 83.34 21.82Q82.15 22.50 80.37 22.50L80.37 22.50Q79.09 22.50 78.06 22.00Q77.03 21.49 76.29 20.55Q75.56 19.61 75.18 18.28Q74.79 16.96 74.79 15.30L74.79 15.30L74.79 12.15Q74.79 10.51 75.18 9.19Q75.57 7.86 76.32 6.92Q77.06 5.98 78.13 5.47Q79.21 4.97 80.57 4.97L80.57 4.97Q82.23 4.97 83.38 5.63Q84.54 6.29 85.17 7.56Q85.79 8.84 85.86 10.68L85.86 10.68L83.71 10.68Q83.63 9.33 83.29 8.48Q82.95 7.63 82.28 7.22Q81.62 6.82 80.57 6.82L80.57 6.82Q79.63 6.82 78.94 7.20Q78.26 7.57 77.82 8.27Q77.38 8.96 77.16 9.94Q76.95 10.92 76.95 12.13L76.95 12.13L76.95 15.30Q76.95 16.43 77.13 17.40Q77.31 18.38 77.71 19.11Q78.12 19.84 78.77 20.25Q79.43 20.66 80.37 20.66L80.37 20.66Q81.55 20.66 82.24 20.27Q82.93 19.89 83.27 19.04Q83.60 18.20 83.71 16.84ZM88.05 16.54L88.05 16.54L88.05 15.33Q88.05 13.85 88.43 12.73Q88.80 11.61 89.47 10.86Q90.14 10.11 91.03 9.73Q91.92 9.35 92.94 9.35L92.94 9.35Q93.98 9.35 94.88 9.73Q95.77 10.11 96.44 10.86Q97.11 11.61 97.49 12.73Q97.86 13.85 97.86 15.33L97.86 15.33L97.86 16.54Q97.86 18.01 97.49 19.13Q97.11 20.25 96.45 21Q95.78 21.75 94.89 22.13Q94.00 22.50 92.96 22.50L92.96 22.50Q91.93 22.50 91.04 22.13Q90.15 21.75 89.48 21Q88.80 20.25 88.43 19.13Q88.05 18.01 88.05 16.54ZM90.13 15.33L90.13 15.33L90.13 16.54Q90.13 17.58 90.34 18.36Q90.55 19.15 90.94 19.68Q91.32 20.20 91.84 20.47Q92.36 20.73 92.96 20.73L92.96 20.73Q93.67 20.73 94.20 20.47Q94.73 20.20 95.09 19.68Q95.44 19.15 95.61 18.36Q95.79 17.58 95.79 16.54L95.79 16.54L95.79 15.33Q95.79 14.29 95.58 13.51Q95.37 12.73 94.98 12.19Q94.59 11.66 94.07 11.40Q93.55 11.13 92.94 11.13L92.94 11.13Q92.34 11.13 91.83 11.40Q91.31 11.66 90.93 12.19Q90.55 12.73 90.34 13.51Q90.13 14.29 90.13 15.33ZM102.49 9.59L102.61 12.29L102.61 22.27L100.54 22.27L100.54 9.59L102.49 9.59ZM102.11 15.45L102.11 15.45L101.26 15.41Q101.25 14.11 101.56 13.00Q101.87 11.89 102.45 11.07Q103.03 10.25 103.84 9.80Q104.65 9.35 105.63 9.35L105.63 9.35Q106.41 9.35 107.04 9.60Q107.67 9.86 108.12 10.41Q108.56 10.96 108.80 11.83Q109.04 12.70 109.04 13.96L109.04 13.96L109.04 22.27L106.97 22.27L106.97 13.93Q106.97 12.94 106.75 12.33Q106.54 11.73 106.10 11.46Q105.66 11.18 104.99 11.18L104.99 11.18Q104.38 11.18 103.85 11.52Q103.32 11.86 102.93 12.46Q102.54 13.05 102.32 13.82Q102.11 14.59 102.11 15.45ZM118.98 22.27L118.80 19.80L118.80 4.27L120.87 4.27L120.87 22.27L118.98 22.27ZM111.71 16.54L111.71 16.54L111.71 15.35Q111.71 13.78 112.02 12.65Q112.32 11.52 112.89 10.79Q113.45 10.05 114.23 9.70Q115.02 9.35 115.97 9.35L115.97 9.35Q116.95 9.35 117.66 9.75Q118.37 10.15 118.85 10.90Q119.33 11.66 119.61 12.73Q119.88 13.80 119.98 15.15L119.98 15.15L119.98 16.73Q119.87 18.07 119.60 19.14Q119.32 20.20 118.84 20.95Q118.36 21.70 117.64 22.10Q116.93 22.50 115.95 22.50L115.95 22.50Q115.01 22.50 114.23 22.13Q113.46 21.76 112.89 21.02Q112.32 20.27 112.02 19.15Q111.71 18.04 111.71 16.54ZM113.79 15.35L113.79 15.35L113.79 16.54Q113.79 17.59 113.94 18.37Q114.09 19.15 114.42 19.66Q114.75 20.17 115.26 20.41Q115.77 20.66 116.48 20.66L116.48 20.66Q117.35 20.66 117.90 20.24Q118.45 19.82 118.79 19.12Q119.12 18.42 119.32 17.61L119.32 17.61L119.32 14.29Q119.20 13.69 118.98 13.13Q118.76 12.57 118.42 12.13Q118.09 11.70 117.62 11.44Q117.14 11.18 116.51 11.18L116.51 11.18Q115.79 11.18 115.27 11.44Q114.75 11.70 114.43 12.21Q114.11 12.73 113.95 13.51Q113.79 14.30 113.79 15.35ZM128.60 22.50L128.60 22.50Q127.46 22.50 126.55 22.16Q125.64 21.82 124.99 21.12Q124.35 20.43 124.01 19.36Q123.67 18.29 123.67 16.84L123.67 16.84L123.67 15.41Q123.67 13.73 124.06 12.57Q124.45 11.41 125.12 10.71Q125.79 10.00 126.63 9.67Q127.48 9.35 128.37 9.35L128.37 9.35Q129.56 9.35 130.41 9.74Q131.25 10.13 131.78 10.89Q132.30 11.65 132.56 12.76Q132.81 13.88 132.81 15.33L132.81 15.33L132.81 16.54L124.89 16.54L124.89 14.77L130.73 14.77L130.73 14.47Q130.69 13.49 130.47 12.74Q130.25 11.99 129.76 11.56Q129.27 11.13 128.37 11.13L128.37 11.13Q127.79 11.13 127.31 11.33Q126.82 11.52 126.47 11.99Q126.13 12.47 125.94 13.30Q125.74 14.13 125.74 15.41L125.74 15.41L125.74 16.84Q125.74 17.86 125.94 18.59Q126.13 19.32 126.51 19.80Q126.89 20.27 127.45 20.50Q128.00 20.73 128.72 20.73L128.72 20.73Q129.76 20.73 130.44 20.33Q131.12 19.92 131.63 19.29L131.63 19.29L132.71 20.59Q132.38 21.07 131.83 21.51Q131.29 21.95 130.49 22.22Q129.70 22.50 128.60 22.50ZM137.27 9.59L137.39 12.29L137.39 22.27L135.32 22.27L135.32 9.59L137.27 9.59ZM136.89 15.45L136.89 15.45L136.04 15.41Q136.03 14.11 136.34 13.00Q136.65 11.89 137.23 11.07Q137.81 10.25 138.62 9.80Q139.43 9.35 140.41 9.35L140.41 9.35Q141.19 9.35 141.82 9.60Q142.45 9.86 142.90 10.41Q143.34 10.96 143.58 11.83Q143.82 12.70 143.82 13.96L143.82 13.96L143.82 22.27L141.75 22.27L141.75 13.93Q141.75 12.94 141.53 12.33Q141.32 11.73 140.88 11.46Q140.44 11.18 139.77 11.18L139.77 11.18Q139.16 11.18 138.63 11.52Q138.11 11.86 137.71 12.46Q137.32 13.05 137.10 13.82Q136.89 14.59 136.89 15.45ZM153.09 19.02L153.09 19.02Q153.09 18.54 152.86 18.18Q152.63 17.81 152.09 17.47Q151.56 17.13 150.66 16.75L150.66 16.75Q149.78 16.38 149.08 16.03Q148.38 15.67 147.90 15.25Q147.42 14.82 147.17 14.27Q146.92 13.71 146.92 12.95L146.92 12.95Q146.92 12.19 147.21 11.54Q147.49 10.89 148.02 10.39Q148.55 9.90 149.29 9.63Q150.02 9.35 150.94 9.35L150.94 9.35Q152.24 9.35 153.15 9.86Q154.07 10.36 154.55 11.23Q155.04 12.11 155.04 13.20L155.04 13.20L152.98 13.20Q152.98 12.67 152.74 12.20Q152.51 11.73 152.05 11.43Q151.59 11.13 150.94 11.13L150.94 11.13Q150.25 11.13 149.81 11.38Q149.38 11.63 149.19 12.02Q148.99 12.41 148.99 12.88L148.99 12.88Q148.99 13.23 149.09 13.48Q149.19 13.73 149.44 13.95Q149.68 14.17 150.11 14.40Q150.54 14.63 151.21 14.92L151.21 14.92Q152.50 15.42 153.38 15.94Q154.25 16.45 154.71 17.14Q155.17 17.84 155.17 18.86L155.17 18.86Q155.17 19.69 154.87 20.36Q154.57 21.04 154.02 21.52Q153.47 22.00 152.70 22.25Q151.93 22.50 150.98 22.50L150.98 22.50Q149.55 22.50 148.56 21.93Q147.57 21.36 147.06 20.44Q146.55 19.52 146.55 18.47L146.55 18.47L148.63 18.47Q148.66 19.36 149.03 19.85Q149.40 20.34 149.93 20.53Q150.46 20.72 150.98 20.72L150.98 20.72Q151.68 20.72 152.14 20.51Q152.61 20.31 152.85 19.92Q153.09 19.54 153.09 19.02ZM162.42 22.50L162.42 22.50Q161.29 22.50 160.37 22.16Q159.46 21.82 158.81 21.12Q158.17 20.43 157.83 19.36Q157.49 18.29 157.49 16.84L157.49 16.84L157.49 15.41Q157.49 13.73 157.88 12.57Q158.27 11.41 158.94 10.71Q159.61 10.00 160.45 9.67Q161.30 9.35 162.19 9.35L162.19 9.35Q163.38 9.35 164.23 9.74Q165.07 10.13 165.60 10.89Q166.13 11.65 166.38 12.76Q166.63 13.88 166.63 15.33L166.63 15.33L166.63 16.54L158.71 16.54L158.71 14.77L164.55 14.77L164.55 14.47Q164.51 13.49 164.29 12.74Q164.07 11.99 163.58 11.56Q163.09 11.13 162.19 11.13L162.19 11.13Q161.61 11.13 161.13 11.33Q160.64 11.52 160.29 11.99Q159.95 12.47 159.76 13.30Q159.56 14.13 159.56 15.41L159.56 15.41L159.56 16.84Q159.56 17.86 159.76 18.59Q159.95 19.32 160.33 19.80Q160.71 20.27 161.27 20.50Q161.82 20.73 162.54 20.73L162.54 20.73Q163.58 20.73 164.26 20.33Q164.94 19.92 165.45 19.29L165.45 19.29L166.54 20.59Q166.20 21.07 165.65 21.51Q165.11 21.95 164.31 22.22Q163.52 22.50 162.42 22.50ZM175.96 22.27L175.78 19.80L175.78 4.27L177.84 4.27L177.84 22.27L175.96 22.27ZM168.69 16.54L168.69 16.54L168.69 15.35Q168.69 13.78 169.00 12.65Q169.30 11.52 169.86 10.79Q170.43 10.05 171.21 9.70Q172.00 9.35 172.95 9.35L172.95 9.35Q173.93 9.35 174.64 9.75Q175.35 10.15 175.83 10.90Q176.31 11.66 176.58 12.73Q176.86 13.80 176.95 15.15L176.95 15.15L176.95 16.73Q176.85 18.07 176.57 19.14Q176.30 20.20 175.82 20.95Q175.34 21.70 174.62 22.10Q173.91 22.50 172.92 22.50L172.92 22.50Q171.98 22.50 171.21 22.13Q170.44 21.76 169.87 21.02Q169.30 20.27 169.00 19.15Q168.69 18.04 168.69 16.54ZM170.77 15.35L170.77 15.35L170.77 16.54Q170.77 17.59 170.92 18.37Q171.07 19.15 171.40 19.66Q171.73 20.17 172.24 20.41Q172.75 20.66 173.46 20.66L173.46 20.66Q174.33 20.66 174.88 20.24Q175.43 19.82 175.76 19.12Q176.10 18.42 176.30 17.61L176.30 17.61L176.30 14.29Q176.18 13.69 175.96 13.13Q175.73 12.57 175.40 12.13Q175.07 11.70 174.59 11.44Q174.12 11.18 173.48 11.18L173.48 11.18Q172.77 11.18 172.25 11.44Q171.73 11.70 171.40 12.21Q171.08 12.73 170.92 13.51Q170.77 14.30 170.77 15.35ZM188.00 16.52L196.13 16.52L196.13 18.30L185.70 18.30L185.70 17.03L192.04 5.20L193.70 5.20L192.04 8.63L188.00 16.52ZM192.15 5.20L194.23 5.20L194.23 22.27L192.15 22.27L192.15 5.20ZM207.33 12.38L207.33 12.38L207.33 14.98Q207.33 17.07 207.01 18.52Q206.68 19.96 206.09 20.84Q205.49 21.71 204.65 22.11Q203.81 22.50 202.77 22.50L202.77 22.50Q201.95 22.50 201.24 22.25Q200.53 22.01 199.97 21.46Q199.41 20.92 199.01 20.04Q198.61 19.16 198.40 17.91Q198.19 16.65 198.19 14.98L198.19 14.98L198.19 12.38Q198.19 10.28 198.52 8.86Q198.84 7.44 199.45 6.58Q200.05 5.72 200.89 5.34Q201.73 4.97 202.76 4.97L202.76 4.97Q203.59 4.97 204.30 5.21Q205.01 5.45 205.56 5.97Q206.12 6.49 206.52 7.35Q206.92 8.21 207.12 9.46Q207.33 10.70 207.33 12.38ZM205.27 15.33L205.27 15.33L205.27 12.01Q205.27 10.86 205.16 9.99Q205.05 9.12 204.85 8.50Q204.64 7.88 204.34 7.49Q204.04 7.10 203.64 6.92Q203.24 6.74 202.76 6.74L202.76 6.74Q202.16 6.74 201.70 7.03Q201.23 7.31 200.91 7.93Q200.59 8.55 200.43 9.56Q200.26 10.57 200.26 12.01L200.26 12.01L200.26 15.33Q200.26 16.48 200.37 17.36Q200.48 18.23 200.69 18.87Q200.89 19.51 201.20 19.92Q201.50 20.33 201.90 20.53Q202.30 20.72 202.77 20.72L202.77 20.72Q203.39 20.72 203.85 20.41Q204.32 20.11 204.63 19.46Q204.95 18.81 205.11 17.78Q205.27 16.76 205.27 15.33ZM219.18 12.38L219.18 12.38L219.18 14.98Q219.18 17.07 218.85 18.52Q218.53 19.96 217.93 20.84Q217.34 21.71 216.50 22.11Q215.66 22.50 214.62 22.50L214.62 22.50Q213.80 22.50 213.09 22.25Q212.38 22.01 211.82 21.46Q211.25 20.92 210.86 20.04Q210.46 19.16 210.25 17.91Q210.04 16.65 210.04 14.98L210.04 14.98L210.04 12.38Q210.04 10.28 210.36 8.86Q210.69 7.44 211.29 6.58Q211.90 5.72 212.74 5.34Q213.57 4.97 214.61 4.97L214.61 4.97Q215.44 4.97 216.15 5.21Q216.86 5.45 217.41 5.97Q217.97 6.49 218.37 7.35Q218.77 8.21 218.97 9.46Q219.18 10.70 219.18 12.38ZM217.11 15.33L217.11 15.33L217.11 12.01Q217.11 10.86 217.01 9.99Q216.90 9.12 216.70 8.50Q216.49 7.88 216.19 7.49Q215.88 7.10 215.48 6.92Q215.09 6.74 214.61 6.74L214.61 6.74Q214.01 6.74 213.54 7.03Q213.08 7.31 212.76 7.93Q212.44 8.55 212.27 9.56Q212.11 10.57 212.11 12.01L212.11 12.01L212.11 15.33Q212.11 16.48 212.22 17.36Q212.33 18.23 212.54 18.87Q212.74 19.51 213.05 19.92Q213.35 20.33 213.75 20.53Q214.15 20.72 214.62 20.72L214.62 20.72Q215.24 20.72 215.70 20.41Q216.16 20.11 216.48 19.46Q216.80 18.81 216.96 17.78Q217.11 16.76 217.11 15.33ZM229.56 9.59L229.68 12.29L229.68 22.27L227.60 22.27L227.60 9.59L229.56 9.59ZM229.17 15.45L229.17 15.45L228.33 15.41Q228.32 14.11 228.63 13.00Q228.94 11.89 229.52 11.07Q230.10 10.25 230.91 9.80Q231.71 9.35 232.70 9.35L232.70 9.35Q233.47 9.35 234.11 9.60Q234.74 9.86 235.18 10.41Q235.63 10.96 235.87 11.83Q236.11 12.70 236.11 13.96L236.11 13.96L236.11 22.27L234.04 22.27L234.04 13.93Q234.04 12.94 233.82 12.33Q233.60 11.73 233.16 11.46Q232.72 11.18 232.05 11.18L232.05 11.18Q231.45 11.18 230.92 11.52Q230.39 11.86 230.00 12.46Q229.61 13.05 229.39 13.82Q229.17 14.59 229.17 15.45ZM238.79 16.54L238.79 16.54L238.79 15.33Q238.79 13.85 239.17 12.73Q239.54 11.61 240.21 10.86Q240.88 10.11 241.77 9.73Q242.66 9.35 243.68 9.35L243.68 9.35Q244.72 9.35 245.61 9.73Q246.50 10.11 247.18 10.86Q247.85 11.61 248.23 12.73Q248.60 13.85 248.60 15.33L248.60 15.33L248.60 16.54Q248.60 18.01 248.23 19.13Q247.85 20.25 247.18 21Q246.52 21.75 245.63 22.13Q244.73 22.50 243.70 22.50L243.70 22.50Q242.67 22.50 241.78 22.13Q240.89 21.75 240.22 21Q239.54 20.25 239.17 19.13Q238.79 18.01 238.79 16.54ZM240.87 15.33L240.87 15.33L240.87 16.54Q240.87 17.58 241.08 18.36Q241.29 19.15 241.68 19.68Q242.06 20.20 242.58 20.47Q243.09 20.73 243.70 20.73L243.70 20.73Q244.41 20.73 244.94 20.47Q245.47 20.20 245.82 19.68Q246.18 19.15 246.35 18.36Q246.53 17.58 246.53 16.54L246.53 16.54L246.53 15.33Q246.53 14.29 246.32 13.51Q246.11 12.73 245.72 12.19Q245.33 11.66 244.81 11.40Q244.29 11.13 243.68 11.13L243.68 11.13Q243.08 11.13 242.57 11.40Q242.05 11.66 241.67 12.19Q241.29 12.73 241.08 13.51Q240.87 14.29 240.87 15.33ZM253.28 9.59L253.35 11.58L253.35 22.27L251.27 22.27L251.27 9.59L253.28 9.59ZM256.50 9.52L256.50 9.52L256.51 11.53Q256.25 11.47 256.05 11.46Q255.84 11.44 255.57 11.44L255.57 11.44Q254.99 11.44 254.55 11.67Q254.11 11.91 253.79 12.33Q253.48 12.75 253.29 13.33Q253.10 13.91 253.03 14.60L253.03 14.60L252.49 14.95Q252.49 13.80 252.67 12.80Q252.86 11.79 253.24 11.01Q253.63 10.23 254.23 9.79Q254.84 9.35 255.68 9.35L255.68 9.35Q255.87 9.35 256.14 9.40Q256.42 9.46 256.50 9.52ZM260.54 9.59L260.66 12.11L260.66 22.27L258.60 22.27L258.60 9.59L260.54 9.59ZM260.24 15.45L260.24 15.45L259.28 15.41Q259.27 14.11 259.54 13.00Q259.80 11.89 260.35 11.07Q260.89 10.25 261.72 9.80Q262.55 9.35 263.65 9.35L263.65 9.35Q264.38 9.35 265.00 9.60Q265.63 9.86 266.10 10.39Q266.57 10.93 266.83 11.78Q267.09 12.62 267.09 13.82L267.09 13.82L267.09 22.27L265.02 22.27L265.02 13.92Q265.02 12.93 264.76 12.33Q264.49 11.73 264.01 11.46Q263.53 11.18 262.86 11.18L262.86 11.18Q262.10 11.18 261.59 11.52Q261.08 11.86 260.78 12.46Q260.48 13.05 260.36 13.82Q260.24 14.59 260.24 15.45ZM267.07 14.25L267.07 14.25L265.69 14.70Q265.68 13.65 265.95 12.69Q266.21 11.73 266.75 10.98Q267.28 10.23 268.08 9.79Q268.88 9.35 269.93 9.35L269.93 9.35Q270.80 9.35 271.46 9.62Q272.13 9.89 272.60 10.45Q273.06 11.00 273.29 11.87Q273.53 12.74 273.53 13.93L273.53 13.93L273.53 22.27L271.45 22.27L271.45 13.91Q271.45 12.84 271.19 12.25Q270.93 11.66 270.45 11.42Q269.96 11.18 269.30 11.18L269.30 11.18Q268.76 11.18 268.34 11.43Q267.93 11.67 267.64 12.10Q267.36 12.53 267.22 13.08Q267.07 13.63 267.07 14.25ZM282.87 20.10L282.87 20.10L282.87 13.22Q282.87 12.47 282.64 12.01Q282.41 11.55 281.96 11.34Q281.51 11.13 280.83 11.13L280.83 11.13Q280.17 11.13 279.70 11.40Q279.22 11.67 278.97 12.12Q278.72 12.56 278.72 13.10L278.72 13.10L276.64 13.10Q276.64 12.42 276.94 11.75Q277.24 11.09 277.80 10.54Q278.37 10.00 279.16 9.67Q279.95 9.35 280.93 9.35L280.93 9.35Q282.11 9.35 283.01 9.73Q283.91 10.11 284.43 10.97Q284.94 11.82 284.94 13.24L284.94 13.24L284.94 19.50Q284.94 20.13 285.04 20.85Q285.14 21.56 285.33 22.08L285.33 22.08L285.33 22.27L283.18 22.27Q283.03 21.89 282.95 21.26Q282.87 20.64 282.87 20.10ZM281.44 14.58L283.20 14.58L283.22 16.10L281.78 16.10Q281.04 16.10 280.44 16.27Q279.83 16.43 279.40 16.74Q278.96 17.05 278.74 17.51Q278.51 17.96 278.51 18.55L278.51 18.55Q278.51 19.31 278.72 19.76Q278.93 20.21 279.35 20.41Q279.77 20.61 280.42 20.61L280.42 20.61Q281.20 20.61 281.80 20.25Q282.40 19.89 282.73 19.37Q283.07 18.86 283.04 18.41L283.04 18.41L283.50 19.38Q283.45 19.84 283.20 20.37Q282.95 20.91 282.50 21.39Q282.06 21.88 281.46 22.19Q280.85 22.50 280.10 22.50L280.10 22.50Q279 22.50 278.17 22.08Q277.35 21.66 276.89 20.84Q276.43 20.02 276.43 18.81L276.43 18.81Q276.43 17.89 276.75 17.12Q277.07 16.35 277.69 15.78Q278.31 15.21 279.25 14.89Q280.20 14.58 281.44 14.58L281.44 14.58ZM288.32 4.27L290.38 4.27L290.38 22.27L288.32 22.27L288.32 4.27Z"/></svg>