<svg xmlns="http://www.w3.org/2000/svg" xmlns:xlink="http://www.w3.org/1999/xlink" width="255.072" height="32.232"><path fill="black" d="M8.14 18.31L7.10 19.25L0.70 9.50L2.57 9.50L8.14 18.31ZM8.35 25.30L6.79 25.30L6.79 18.31L8.35 18.31L8.35 25.30ZM14.45 9.50L8.06 19.18L7.22 18.31L12.79 9.50L14.45 9.50ZM23.35 22.51L23.35 22.51Q23.35 21.79 22.88 21.36Q22.42 20.93 21.66 20.62Q20.90 20.30 20.08 20.02Q19.25 19.73 18.50 19.36Q17.76 18.98 17.29 18.41Q16.82 17.83 16.82 16.97L16.82 16.97Q16.82 15.67 17.87 14.83Q18.91 13.99 20.71 13.99L20.71 13.99Q21.89 13.99 22.86 14.32Q23.83 14.64 24.41 15.10L24.41 15.10L23.81 16.18Q23.18 15.62 22.33 15.34Q21.48 15.05 20.59 15.05L20.59 15.05Q19.39 15.05 18.78 15.60Q18.17 16.15 18.17 16.82L18.17 16.82Q18.17 17.47 18.64 17.89Q19.10 18.31 19.86 18.61Q20.62 18.91 21.44 19.22Q22.27 19.54 23.02 19.93Q23.76 20.33 24.23 20.93Q24.70 21.53 24.70 22.44L24.70 22.44Q24.70 23.78 23.58 24.61Q22.46 25.44 20.45 25.44L20.45 25.44Q19.08 25.44 18.04 25.04Q16.99 24.65 16.25 24L16.25 24L16.90 22.92Q17.62 23.59 18.59 23.98Q19.56 24.36 20.69 24.36L20.69 24.36Q21.98 24.36 22.67 23.83Q23.35 23.30 23.35 22.51ZM28.06 25.30L26.57 25.30L31.39 14.14L33.02 14.14L37.87 25.30L36.41 25.30L31.97 14.74L32.40 14.74L28.06 25.30ZM35.33 21.24L28.97 21.24L29.35 20.16L34.82 20.16L35.33 21.24ZM45.53 25.30L40.87 25.30L40.87 14.14L45.26 14.14Q46.90 14.14 47.86 14.86Q48.82 15.58 48.82 16.82L48.82 16.82Q48.82 17.71 48.35 18.40Q47.88 19.08 47.06 19.49Q46.25 19.90 45.12 19.90L45.12 19.90L45.36 19.03Q46.70 19.03 47.68 19.40Q48.65 19.78 49.18 20.47Q49.70 21.17 49.70 22.13L49.70 22.13Q49.70 23.09 49.21 23.81Q48.72 24.53 47.80 24.91Q46.87 25.30 45.53 25.30L45.53 25.30ZM42.17 15.24L42.17 24.19L45.58 24.19Q46.97 24.19 47.65 23.65Q48.34 23.11 48.34 22.13L48.34 22.13Q48.34 21.12 47.53 20.57Q46.73 20.02 45.05 20.02L45.05 20.02L41.81 20.02L41.81 18.94L45.26 18.94Q46.34 18.94 46.93 18.44Q47.52 17.95 47.52 17.04L47.52 17.04Q47.52 16.25 46.93 15.74Q46.34 15.24 45.10 15.24L45.10 15.24L42.17 15.24ZM54.46 25.30L53.06 25.30L53.06 14.14L54.46 14.14L54.46 25.30ZM61.27 25.30L53.54 25.30L53.54 24.17L61.27 24.17L61.27 25.30ZM59.83 20.26L53.54 20.26L53.54 19.15L59.83 19.15L59.83 20.26ZM60.79 15.26L53.54 15.26L53.54 14.14L60.79 14.14L60.79 15.26ZM64.56 25.30L63.07 25.30L67.90 14.14L69.53 14.14L74.38 25.30L72.91 25.30L68.47 14.74L68.90 14.74L64.56 25.30ZM71.83 21.24L65.47 21.24L65.86 20.16L71.33 20.16L71.83 21.24ZM82.01 25.44L82.01 25.44Q80.50 25.44 79.39 24.84Q78.29 24.24 77.68 23.14Q77.06 22.03 77.06 20.59L77.06 20.59L77.06 14.14L78.50 14.14L78.50 20.35Q78.50 22.20 79.51 23.29Q80.52 24.38 82.18 24.38L82.18 24.38Q83.78 24.38 84.72 23.33Q85.66 22.27 85.66 20.50L85.66 20.50L85.66 14.14L87.07 14.14L87.07 20.28Q87.07 21.84 86.45 23.00Q85.82 24.17 84.68 24.80Q83.54 25.44 82.01 25.44ZM104.62 21.48L104.62 21.48Q104.62 20.59 104.21 19.97Q103.80 19.34 103.10 18.89Q102.41 18.43 101.58 18.05Q100.75 17.66 99.92 17.27Q99.10 16.87 98.40 16.37Q97.70 15.86 97.30 15.16Q96.89 14.45 96.89 13.44L96.89 13.44Q96.89 12.17 97.49 11.24Q98.09 10.32 99.17 9.82Q100.25 9.31 101.66 9.31L101.66 9.31Q102.70 9.31 103.74 9.56Q104.78 9.82 105.58 10.34L105.58 10.34L105.02 11.71Q104.30 11.11 103.33 10.78Q102.36 10.44 101.40 10.44L101.40 10.44Q100.37 10.44 99.67 10.81Q98.98 11.18 98.63 11.78Q98.28 12.38 98.28 13.10L98.28 13.10Q98.28 13.87 98.71 14.44Q99.14 15 99.83 15.42Q100.51 15.84 101.35 16.21Q102.19 16.58 103.02 17.00Q103.85 17.42 104.53 17.98Q105.22 18.53 105.65 19.30Q106.08 20.06 106.08 21.12L106.08 21.12Q106.08 22.51 105.43 23.50Q104.78 24.48 103.64 25.01Q102.50 25.54 101.02 25.54L101.02 25.54Q99.53 25.54 98.26 25.08Q96.98 24.62 96.14 23.86L96.14 23.86L96.91 22.61Q97.78 23.42 98.93 23.88Q100.08 24.34 101.28 24.34L101.28 24.34Q102.89 24.34 103.75 23.56Q104.62 22.78 104.62 21.48ZM116.93 25.51L116.93 25.51Q114.53 25.51 112.70 24.52Q110.88 23.52 109.85 21.72Q108.82 19.92 108.82 17.57L108.82 17.57Q108.82 15.70 109.44 14.17Q110.06 12.65 111.19 11.56Q112.32 10.46 113.84 9.88Q115.37 9.29 117.17 9.29L117.17 9.29Q118.49 9.29 119.69 9.64Q120.89 9.98 121.97 10.61L121.97 10.61L121.25 11.95Q120.24 11.21 119.16 10.84Q118.08 10.46 116.81 10.46L116.81 10.46Q114.89 10.46 113.46 11.32Q112.03 12.17 111.25 13.72Q110.47 15.26 110.47 17.33L110.47 17.33Q110.47 19.44 111.34 21.02Q112.20 22.61 113.70 23.50Q115.20 24.38 117.07 24.38L117.07 24.38Q118.39 24.38 119.52 23.93Q120.65 23.47 121.54 22.68L121.54 22.68L122.21 23.88Q121.06 24.70 119.76 25.10Q118.46 25.51 116.93 25.51ZM131.71 21.60L131.35 20.81Q134.04 20.06 135.13 19.19Q136.22 18.31 136.22 17.26L136.22 17.26Q136.22 16.78 136.00 16.28Q135.77 15.79 135.24 15.47Q134.71 15.14 133.78 15.14L133.78 15.14Q132.94 15.14 132.08 15.52Q131.23 15.89 130.58 16.82L130.58 16.82L129.86 16.18Q130.63 15.02 131.76 14.51Q132.89 13.99 134.09 13.99L134.09 13.99Q135.31 13.99 136.09 14.45Q136.87 14.90 137.24 15.59Q137.62 16.27 137.62 16.97L137.62 16.97Q137.62 17.69 137.24 18.32Q136.87 18.96 136.13 19.54Q135.38 20.11 134.28 20.63Q133.18 21.14 131.71 21.60L131.71 21.60ZM130.66 28.70L130.66 28.70L130.37 27.72Q133.58 27.19 135.11 26.04Q136.63 24.89 136.63 23.50L136.63 23.50Q136.63 22.54 135.94 21.90Q135.24 21.26 133.78 21.26L133.78 21.26Q133.27 21.26 132.76 21.35Q132.24 21.43 131.71 21.60L131.71 21.60L132.38 20.50Q132.86 20.35 133.32 20.26Q133.78 20.16 134.30 20.16L134.30 20.16Q135.58 20.16 136.42 20.59Q137.26 21.02 137.69 21.74Q138.12 22.46 138.12 23.35L138.12 23.35Q138.12 24.65 137.26 25.70Q136.39 26.76 134.72 27.54Q133.06 28.32 130.66 28.70ZM146.04 25.42L146.04 25.42Q144.36 25.42 143.04 24.67Q141.72 23.93 140.98 22.64Q140.23 21.36 140.23 19.73L140.23 19.73Q140.23 18.07 141 16.79Q141.77 15.50 143.11 14.76Q144.46 14.02 146.11 14.02L146.11 14.02Q147.79 14.02 149.12 14.76Q150.46 15.50 151.20 16.78Q151.94 18.05 151.94 19.70L151.94 19.70Q151.94 21.34 151.18 22.63Q150.41 23.93 149.09 24.67Q147.77 25.42 146.04 25.42ZM146.06 24.29L146.06 24.29Q147.34 24.29 148.36 23.70Q149.38 23.11 149.96 22.08Q150.55 21.05 150.55 19.73L150.55 19.73Q150.55 18.41 149.99 17.38Q149.42 16.34 148.42 15.76Q147.41 15.17 146.11 15.17L146.11 15.17Q144.84 15.17 143.82 15.76Q142.80 16.34 142.20 17.36Q141.60 18.38 141.60 19.73L141.60 19.73Q141.60 21.02 142.18 22.06Q142.75 23.09 143.76 23.69Q144.77 24.29 146.06 24.29ZM160.10 25.42L160.10 25.42Q158.42 25.42 157.10 24.67Q155.78 23.93 155.04 22.64Q154.30 21.36 154.30 19.73L154.30 19.73Q154.30 18.07 155.06 16.79Q155.83 15.50 157.18 14.76Q158.52 14.02 160.18 14.02L160.18 14.02Q161.86 14.02 163.19 14.76Q164.52 15.50 165.26 16.78Q166.01 18.05 166.01 19.70L166.01 19.70Q166.01 21.34 165.24 22.63Q164.47 23.93 163.15 24.67Q161.83 25.42 160.10 25.42ZM160.13 24.29L160.13 24.29Q161.40 24.29 162.42 23.70Q163.44 23.11 164.03 22.08Q164.62 21.05 164.62 19.73L164.62 19.73Q164.62 18.41 164.05 17.38Q163.49 16.34 162.48 15.76Q161.47 15.17 160.18 15.17L160.18 15.17Q158.90 15.17 157.88 15.76Q156.86 16.34 156.26 17.36Q155.66 18.38 155.66 19.73L155.66 19.73Q155.66 21.02 156.24 22.06Q156.82 23.09 157.82 23.69Q158.83 24.29 160.13 24.29ZM176.66 25.30L175.34 25.30L175.34 14.14L176.52 14.14L176.66 25.30ZM184.30 24L184.37 25.30L183.67 25.30L175.90 15.12L175.90 14.14L176.78 14.14L184.30 24ZM183.79 14.14L185.14 14.14L185.14 25.30L183.91 25.30L183.79 14.14ZM194.35 25.44L194.35 25.44Q192.67 25.44 191.36 24.70Q190.06 23.95 189.31 22.68Q188.57 21.41 188.57 19.82L188.57 19.82Q188.57 18.19 189.35 16.87Q190.13 15.55 191.48 14.77Q192.84 13.99 194.54 13.99L194.54 13.99Q196.20 13.99 197.52 14.74Q198.84 15.48 199.60 16.75Q200.35 18.02 200.35 19.66L200.35 19.66Q200.35 21.34 199.55 22.64Q198.74 23.95 197.39 24.70Q196.03 25.44 194.35 25.44ZM194.47 24.36L194.47 24.36Q195.74 24.36 196.73 23.78Q197.71 23.21 198.28 22.18Q198.84 21.14 198.84 19.80L198.84 19.80Q198.84 18.41 198.26 17.35Q197.69 16.30 196.69 15.68Q195.70 15.07 194.42 15.07L194.42 15.07Q193.20 15.07 192.22 15.66Q191.23 16.25 190.67 17.28Q190.10 18.31 190.10 19.70L190.10 19.70Q190.10 21.05 190.67 22.12Q191.23 23.18 192.22 23.77Q193.20 24.36 194.47 24.36ZM205.15 25.30L203.83 25.30L203.83 14.14L207.62 14.14Q209.52 14.14 210.56 14.88Q211.61 15.62 211.61 17.09L211.61 17.09Q211.61 18.10 211.08 18.88Q210.55 19.66 209.57 20.10Q208.58 20.54 207.19 20.54L207.19 20.54L204.50 20.54L204.50 19.54L207.41 19.54Q208.73 19.54 209.48 18.89Q210.24 18.24 210.24 17.26L210.24 17.26Q210.24 16.27 209.53 15.77Q208.82 15.26 207.53 15.26L207.53 15.26L205.15 15.26L205.15 25.30ZM212.50 25.46L212.50 25.46Q211.78 25.46 211.25 25.16Q210.72 24.86 210.29 24.29Q209.86 23.71 209.33 22.87L209.33 22.87L207.72 20.26L208.87 19.87L210.50 22.34Q211.01 23.11 211.37 23.58Q211.73 24.05 212.09 24.28Q212.45 24.50 212.90 24.50L212.90 24.50Q213.07 24.50 213.24 24.48Q213.41 24.46 213.55 24.43L213.55 24.43L213.70 25.27Q213.36 25.37 213.07 25.42Q212.78 25.46 212.50 25.46ZM228.72 25.30L227.28 25.30L226.68 14.78L227.11 14.66L222.77 24.84L221.98 24.84L217.22 14.57L217.54 14.14L218.38 14.14L222.74 23.47L222.14 23.47L226.32 14.14L227.93 14.14L228.72 25.30ZM217.39 25.30L216.07 25.30L216.72 14.14L217.78 14.14L217.39 25.30ZM233.06 25.30L231.58 25.30L236.40 14.14L238.03 14.14L242.88 25.30L241.42 25.30L236.98 14.74L237.41 14.74L233.06 25.30ZM240.34 21.24L233.98 21.24L234.36 20.16L239.83 20.16L240.34 21.24ZM247.30 25.30L245.88 25.30L245.88 14.14L247.30 14.14L247.30 25.30ZM254.35 25.30L246.36 25.30L246.36 24.14L254.35 24.14L254.35 25.30Z"/></svg>