<svg xmlns="http://www.w3.org/2000/svg" xmlns:xlink="http://www.w3.org/1999/xlink" width="233.61600000000004" height="28.248"><path fill="black" d="M0.02 22.73L0.02 22.73L0.12 21.22L2.59 20.69L1.01 21.43Q1.13 21.24 1.43 20.78Q1.73 20.33 2.08 19.76Q2.42 19.20 2.66 18.70L2.66 18.70L8.81 5.69L11.11 5.42L13.85 19.46Q13.92 19.78 14.03 20.20Q14.14 20.62 14.28 20.99Q14.42 21.36 14.47 21.53L14.47 21.53L12.94 20.74L15.55 21.05L15.24 22.61L12.29 22.61Q11.93 22.61 11.32 22.63Q10.70 22.66 10.04 22.68Q9.38 22.70 8.78 22.73L8.78 22.73L8.90 21.19L11.69 20.59L10.34 21.58Q10.37 21.36 10.40 20.92Q10.44 20.47 10.45 19.99Q10.46 19.51 10.42 19.18L10.42 19.18L8.88 8.54L9.94 8.26L4.85 19.68Q4.73 19.94 4.64 20.30Q4.56 20.66 4.50 21.04Q4.44 21.41 4.42 21.74L4.42 21.74L3.22 20.71L5.90 21.05L5.59 22.61L3.07 22.61Q2.81 22.61 2.27 22.63Q1.73 22.66 1.13 22.68Q0.53 22.70 0.02 22.73ZM10.73 17.88L5.16 17.88L5.90 16.18L10.51 16.10L10.73 17.88ZM21.12 22.54L18.48 22.94L17.69 22.54Q18.02 21.22 18.31 20.04Q18.60 18.86 18.82 17.81Q19.03 16.75 19.19 15.74Q19.34 14.74 19.45 13.78Q19.56 12.82 19.58 11.81L19.58 11.81L20.98 12.74L17.86 12.55L17.86 11.35L22.37 10.32L23.26 10.97Q22.85 12.17 22.34 13.58Q21.84 15 21.43 17.06L21.43 17.06L21.34 17.04Q21.79 15.86 22.44 14.69Q23.09 13.51 23.89 12.52Q24.70 11.52 25.68 10.92Q26.66 10.32 27.82 10.32L27.82 10.32Q28.75 10.32 29.23 10.90Q29.71 11.47 29.71 12.29L29.71 12.29Q29.71 13.46 29.41 15.01Q29.11 16.56 28.79 18.24Q28.46 19.92 28.42 21.58L28.42 21.58L27.05 20.42L30.24 20.71L30.14 21.94L25.42 22.94L24.58 22.54Q24.91 21.41 25.22 20.22Q25.54 19.03 25.81 17.89Q26.09 16.75 26.24 15.82Q26.40 14.88 26.40 14.33L26.40 14.33Q26.40 13.97 26.32 13.60Q26.23 13.22 25.85 13.22L25.85 13.22Q25.27 13.22 24.59 13.96Q23.90 14.69 23.23 15.88Q22.56 17.06 22.06 18.47Q21.55 19.87 21.29 21.24L21.29 21.24Q21.24 21.58 21.20 21.90Q21.17 22.22 21.12 22.54L21.12 22.54ZM33.94 22.94L33.94 22.94Q33.24 22.94 32.80 22.43Q32.35 21.91 32.15 21.06Q31.94 20.21 31.94 19.25L31.94 19.25Q31.94 18.02 32.26 16.76Q32.57 15.50 33.11 14.34Q33.65 13.18 34.36 12.28Q35.06 11.38 35.86 10.85Q36.65 10.32 37.46 10.32L37.46 10.32Q37.92 10.32 38.63 10.43Q39.34 10.54 39.96 10.66Q40.58 10.78 40.82 10.80L40.82 10.80L40.34 13.61Q40.22 13.58 39.68 13.36Q39.14 13.13 38.44 12.91Q37.73 12.70 37.08 12.70L37.08 12.70Q36.79 12.70 36.53 13.02Q36.26 13.34 36.01 13.91Q35.76 14.47 35.57 15.22Q35.38 15.96 35.26 16.80Q35.14 17.64 35.14 18.48L35.14 18.48Q35.14 19.15 35.28 19.61Q35.42 20.06 35.83 20.06L35.83 20.06Q36.22 20.06 36.71 19.62Q37.20 19.18 37.70 18.38Q38.21 17.59 38.66 16.58Q39.12 15.58 39.42 14.41Q39.72 13.25 39.77 12.10L39.77 12.10L39.98 11.11Q40.10 10.42 40.20 9.61Q40.30 8.81 40.38 8.00Q40.46 7.20 40.52 6.54Q40.58 5.88 40.58 5.50L40.58 5.50L41.93 6.53L38.62 6.12L38.54 4.90L43.42 4.13L44.18 4.78Q43.68 7.27 43.26 9.72Q42.84 12.17 42.50 14.38Q42.17 16.58 41.94 18.41Q41.71 20.23 41.59 21.50L41.59 21.50L40.44 20.50L43.78 20.71L43.68 21.94L39.02 23.02L38.21 22.58Q38.54 21.62 38.90 20.51Q39.26 19.39 39.53 18.25Q39.79 17.11 39.84 16.08L39.84 16.08L40.10 16.42Q39.43 18.19 38.45 19.68Q37.46 21.17 36.32 22.06Q35.18 22.94 33.94 22.94ZM47.38 22.94L47.38 22.94Q46.68 22.94 46.24 22.43Q45.79 21.91 45.59 21.06Q45.38 20.21 45.38 19.25L45.38 19.25Q45.38 18.02 45.70 16.76Q46.01 15.50 46.55 14.34Q47.09 13.18 47.80 12.28Q48.50 11.38 49.30 10.85Q50.09 10.32 50.90 10.32L50.90 10.32Q51.36 10.32 52.07 10.43Q52.78 10.54 53.40 10.66Q54.02 10.78 54.26 10.80L54.26 10.80L53.78 13.61Q53.66 13.58 53.12 13.36Q52.58 13.13 51.88 12.91Q51.17 12.70 50.52 12.70L50.52 12.70Q50.23 12.70 49.97 13.02Q49.70 13.34 49.45 13.91Q49.20 14.47 49.01 15.22Q48.82 15.96 48.70 16.80Q48.58 17.64 48.58 18.48L48.58 18.48Q48.58 19.15 48.72 19.61Q48.86 20.06 49.27 20.06L49.27 20.06Q49.66 20.06 50.14 19.62Q50.62 19.18 51.13 18.38Q51.65 17.59 52.10 16.58Q52.56 15.58 52.86 14.41Q53.16 13.25 53.21 12.10L53.21 12.10L53.26 10.97L55.94 10.32L56.86 10.94Q56.45 12.58 56.11 14.24Q55.78 15.91 55.55 17.74Q55.32 19.56 55.27 21.67L55.27 21.67L53.88 20.42L57.22 20.71L57.12 21.94L52.46 22.94L51.65 22.54Q51.98 21.55 52.34 20.44Q52.70 19.32 52.97 18.18Q53.23 17.04 53.28 16.01L53.28 16.01L53.54 16.42Q52.87 18.19 51.89 19.68Q50.90 21.17 49.75 22.06Q48.60 22.94 47.38 22.94ZM60.84 22.94L60.84 22.94Q60.14 22.94 59.70 22.43Q59.26 21.91 59.05 21.06Q58.85 20.21 58.85 19.25L58.85 19.25Q58.85 18.02 59.16 16.76Q59.47 15.50 60.01 14.34Q60.55 13.18 61.26 12.28Q61.97 11.38 62.76 10.85Q63.55 10.32 64.37 10.32L64.37 10.32Q64.82 10.32 65.53 10.43Q66.24 10.54 66.86 10.66Q67.49 10.78 67.73 10.80L67.73 10.80L67.25 13.61Q67.13 13.58 66.59 13.36Q66.05 13.13 65.34 12.91Q64.63 12.70 63.98 12.70L63.98 12.70Q63.70 12.70 63.43 13.02Q63.17 13.34 62.92 13.91Q62.66 14.47 62.47 15.22Q62.28 15.96 62.16 16.80Q62.04 17.64 62.04 18.48L62.04 18.48Q62.04 19.15 62.18 19.61Q62.33 20.06 62.74 20.06L62.74 20.06Q63.12 20.06 63.61 19.62Q64.10 19.18 64.61 18.38Q65.11 17.59 65.57 16.58Q66.02 15.58 66.32 14.41Q66.62 13.25 66.67 12.10L66.67 12.10L66.89 11.11Q67.01 10.42 67.10 9.61Q67.20 8.81 67.28 8.00Q67.37 7.20 67.43 6.54Q67.49 5.88 67.49 5.50L67.49 5.50L68.83 6.53L65.52 6.12L65.45 4.90L70.32 4.13L71.09 4.78Q70.58 7.27 70.16 9.72Q69.74 12.17 69.41 14.38Q69.07 16.58 68.84 18.41Q68.62 20.23 68.50 21.50L68.50 21.50L67.34 20.50L70.68 20.71L70.58 21.94L65.93 23.02L65.11 22.58Q65.45 21.62 65.81 20.51Q66.17 19.39 66.43 18.25Q66.70 17.11 66.74 16.08L66.74 16.08L67.01 16.42Q66.34 18.19 65.35 19.68Q64.37 21.17 63.23 22.06Q62.09 22.94 60.84 22.94ZM74.28 22.94L74.28 22.94Q73.58 22.94 73.14 22.43Q72.70 21.91 72.49 21.06Q72.29 20.21 72.29 19.25L72.29 19.25Q72.29 18.02 72.60 16.76Q72.91 15.50 73.45 14.34Q73.99 13.18 74.70 12.28Q75.41 11.38 76.20 10.85Q76.99 10.32 77.81 10.32L77.81 10.32Q78.26 10.32 78.97 10.43Q79.68 10.54 80.30 10.66Q80.93 10.78 81.17 10.80L81.17 10.80L80.69 13.61Q80.57 13.58 80.03 13.36Q79.49 13.13 78.78 12.91Q78.07 12.70 77.42 12.70L77.42 12.70Q77.14 12.70 76.87 13.02Q76.61 13.34 76.36 13.91Q76.10 14.47 75.91 15.22Q75.72 15.96 75.60 16.80Q75.48 17.64 75.48 18.48L75.48 18.48Q75.48 19.15 75.62 19.61Q75.77 20.06 76.18 20.06L76.18 20.06Q76.56 20.06 77.04 19.62Q77.52 19.18 78.04 18.38Q78.55 17.59 79.01 16.58Q79.46 15.58 79.76 14.41Q80.06 13.25 80.11 12.10L80.11 12.10L80.16 10.97L82.85 10.32L83.76 10.94Q83.35 12.58 83.02 14.24Q82.68 15.91 82.45 17.74Q82.22 19.56 82.18 21.67L82.18 21.67L80.78 20.42L84.12 20.71L84.02 21.94L79.37 22.94L78.55 22.54Q78.89 21.55 79.25 20.44Q79.61 19.32 79.87 18.18Q80.14 17.04 80.18 16.01L80.18 16.01L80.45 16.42Q79.78 18.19 78.79 19.68Q77.81 21.17 76.66 22.06Q75.50 22.94 74.28 22.94ZM89.71 22.73L89.71 22.73L89.81 21.22L92.76 20.66L91.30 21.55Q91.39 21.24 91.52 20.72Q91.66 20.21 91.79 19.72Q91.92 19.22 91.97 18.91L91.97 18.91L93.29 9.86Q93.38 9.31 93.40 8.68Q93.41 8.04 93.42 7.45Q93.43 6.86 93.43 6.58L93.43 6.58L94.73 7.70L91.87 7.20L92.23 5.57Q92.71 5.59 93.29 5.62Q93.86 5.64 94.37 5.66Q94.87 5.69 95.09 5.69L95.09 5.69Q95.64 5.69 96.42 5.65Q97.20 5.62 97.98 5.59Q98.76 5.57 99.29 5.57L99.29 5.57Q101.47 5.57 102.79 6.68Q104.11 7.80 104.11 9.91L104.11 9.91Q104.11 11.38 103.54 12.50Q102.96 13.63 101.98 14.42Q100.99 15.22 99.76 15.62Q98.52 16.03 97.18 16.03L97.18 16.03Q96.22 16.03 95.28 16.01Q94.34 15.98 93.38 15.96L93.38 15.96L93.62 14.28Q94.22 14.28 95.06 14.30Q95.90 14.33 96.60 14.33L96.60 14.33Q98.47 14.33 99.62 13.20Q100.78 12.07 100.78 9.98L100.78 9.98Q100.78 8.62 100.04 7.94Q99.31 7.27 97.87 7.27L97.87 7.27Q97.61 7.27 96.91 7.31Q96.22 7.34 95.50 7.39L95.50 7.39L97.18 6.58Q97.10 6.89 96.96 7.46Q96.82 8.04 96.70 8.64Q96.58 9.24 96.50 9.62L96.50 9.62L95.28 18.19Q95.18 18.84 95.14 19.55Q95.09 20.26 95.08 20.86Q95.06 21.46 95.06 21.70L95.06 21.70L93.77 20.76L96.96 21.05L96.62 22.61L93.19 22.61Q92.86 22.61 92.24 22.63Q91.63 22.66 90.97 22.68Q90.31 22.70 89.71 22.73ZM108.60 22.54L105.98 22.94L105.19 22.54Q105.65 20.78 105.98 19.33Q106.32 17.88 106.54 16.62Q106.75 15.36 106.90 14.20Q107.04 13.03 107.09 11.86L107.09 11.86L108.48 12.74L105.36 12.55L105.36 11.35L109.87 10.32L110.76 10.97Q110.04 12.72 109.52 14.23Q109.01 15.74 108.77 17.38L108.77 17.38L108.31 17.78Q109.22 15.70 110.20 14.02Q111.17 12.34 112.08 11.33Q112.99 10.32 113.71 10.32L113.71 10.32Q113.93 10.32 114.13 10.44Q114.34 10.56 114.46 10.68L114.46 10.68L113.47 14.81Q113.23 14.69 112.79 14.51Q112.34 14.33 112.08 14.33L112.08 14.33Q111.58 14.33 111.11 14.80Q110.64 15.26 110.21 15.98Q109.78 16.70 109.46 17.51Q109.15 18.31 109.01 18.96L109.01 18.96Q108.84 19.80 108.76 20.71Q108.67 21.62 108.60 22.54L108.60 22.54ZM118.90 22.94L118.90 22.94Q117.02 22.94 116.02 21.82Q115.01 20.69 115.01 18.55L115.01 18.55Q115.01 16.85 115.55 15.35Q116.09 13.85 117.04 12.72Q117.98 11.59 119.23 10.96Q120.48 10.32 121.90 10.32L121.90 10.32Q123.77 10.32 124.76 11.44Q125.76 12.55 125.76 14.71L125.76 14.71Q125.76 16.42 125.23 17.92Q124.70 19.42 123.74 20.54Q122.78 21.67 121.55 22.31Q120.31 22.94 118.90 22.94ZM119.64 20.83L119.64 20.83Q120.53 20.83 121.14 20.11Q121.75 19.39 122.09 18.04Q122.42 16.68 122.42 14.78L122.42 14.78Q122.42 13.66 122.09 13.04Q121.75 12.43 121.18 12.43L121.18 12.43Q120.29 12.43 119.65 13.15Q119.02 13.87 118.69 15.22Q118.37 16.56 118.37 18.48L118.37 18.48Q118.37 19.61 118.72 20.22Q119.06 20.83 119.64 20.83ZM136.78 22.85L136.78 22.85Q135.50 22.85 134.34 22.45Q133.18 22.06 132.44 21.24Q131.71 20.42 131.71 19.18L131.71 19.18Q131.71 18.02 132.30 17.10Q132.89 16.18 133.79 15.46Q134.69 14.74 135.68 14.18Q136.68 13.63 137.42 13.25L137.42 13.25L139.49 14.38Q138.41 14.86 137.59 15.38Q136.78 15.91 136.24 16.51Q135.70 17.11 135.41 17.75Q135.12 18.38 135.12 19.06L135.12 19.06Q135.12 19.94 135.64 20.46Q136.15 20.98 137.06 20.98L137.06 20.98Q137.78 20.98 138.34 20.65Q138.89 20.33 139.20 19.74Q139.51 19.15 139.51 18.41L139.51 18.41Q139.51 17.69 139.15 17.17Q138.79 16.66 138.19 16.22Q137.59 15.79 136.90 15.41L136.90 15.41Q136.06 14.90 135.23 14.32Q134.40 13.73 133.86 12.89Q133.32 12.05 133.32 10.80L133.32 10.80Q133.32 9.58 133.84 8.71Q134.35 7.85 135.19 7.31Q136.03 6.77 137.02 6.50Q138.00 6.24 138.94 6.24L138.94 6.24Q140.11 6.24 141.16 6.62Q142.20 7.01 142.86 7.78Q143.52 8.54 143.52 9.70L143.52 9.70Q143.52 10.49 143.20 11.24Q142.87 12 142.25 12.71Q141.62 13.42 140.75 14.04Q139.87 14.66 138.77 15.22L138.77 15.22L136.66 14.45Q137.18 14.16 137.80 13.68Q138.41 13.20 138.95 12.59Q139.49 11.98 139.85 11.27Q140.21 10.56 140.21 9.77L140.21 9.77Q140.21 9.02 139.82 8.57Q139.44 8.11 138.72 8.11L138.72 8.11Q138.17 8.11 137.69 8.42Q137.21 8.74 136.93 9.25Q136.66 9.77 136.66 10.42L136.66 10.42Q136.66 11.14 137.04 11.66Q137.42 12.19 138.05 12.64Q138.67 13.08 139.37 13.54L139.37 13.54Q140.23 14.04 141.06 14.64Q141.89 15.24 142.43 16.06Q142.97 16.87 142.97 18.05L142.97 18.05Q142.97 19.32 142.42 20.23Q141.86 21.14 140.95 21.72Q140.04 22.30 138.96 22.57Q137.88 22.85 136.78 22.85ZM150.77 22.85L150.77 22.85Q148.92 22.85 147.78 22.03Q146.64 21.22 146.11 19.80Q145.58 18.38 145.58 16.63L145.58 16.63Q145.58 14.64 146.05 12.85Q146.52 11.06 147.43 9.68Q148.34 8.30 149.69 7.51Q151.03 6.72 152.78 6.72L152.78 6.72Q154.66 6.72 155.78 7.55Q156.91 8.38 157.44 9.78Q157.97 11.18 157.97 12.94L157.97 12.94Q157.97 14.93 157.50 16.72Q157.03 18.50 156.12 19.87Q155.21 21.24 153.86 22.04Q152.52 22.85 150.77 22.85ZM150.98 20.88L150.98 20.88Q151.66 20.88 152.24 20.20Q152.83 19.51 153.29 18.30Q153.74 17.09 154.00 15.50Q154.25 13.92 154.25 12.10L154.25 12.10Q154.25 11.18 154.09 10.39Q153.94 9.60 153.58 9.14Q153.22 8.69 152.57 8.69L152.57 8.69Q151.90 8.69 151.37 9.24Q150.84 9.79 150.46 10.72Q150.07 11.64 149.82 12.79Q149.57 13.94 149.44 15.16Q149.30 16.37 149.30 17.47L149.30 17.47Q149.30 18.41 149.46 19.19Q149.62 19.97 149.99 20.42Q150.36 20.88 150.98 20.88ZM165.31 22.85L165.31 22.85Q163.46 22.85 162.32 22.03Q161.18 21.22 160.66 19.80Q160.13 18.38 160.13 16.63L160.13 16.63Q160.13 14.64 160.60 12.85Q161.06 11.06 161.98 9.68Q162.89 8.30 164.23 7.51Q165.58 6.72 167.33 6.72L167.33 6.72Q169.20 6.72 170.33 7.55Q171.46 8.38 171.98 9.78Q172.51 11.18 172.51 12.94L172.51 12.94Q172.51 14.93 172.04 16.72Q171.58 18.50 170.66 19.87Q169.75 21.24 168.41 22.04Q167.06 22.85 165.31 22.85ZM165.53 20.88L165.53 20.88Q166.20 20.88 166.79 20.20Q167.38 19.51 167.83 18.30Q168.29 17.09 168.54 15.50Q168.79 13.92 168.79 12.10L168.79 12.10Q168.79 11.18 168.64 10.39Q168.48 9.60 168.12 9.14Q167.76 8.69 167.11 8.69L167.11 8.69Q166.44 8.69 165.91 9.24Q165.38 9.79 165.00 10.72Q164.62 11.64 164.36 12.79Q164.11 13.94 163.98 15.16Q163.85 16.37 163.85 17.47L163.85 17.47Q163.85 18.41 164.00 19.19Q164.16 19.97 164.53 20.42Q164.90 20.88 165.53 20.88ZM184.34 21.94L179.64 22.94L178.85 22.54Q179.28 20.88 179.59 19.45Q179.90 18.02 180.11 16.75Q180.31 15.48 180.43 14.26Q180.55 13.03 180.60 11.78L180.60 11.78L181.99 12.74L178.87 12.53L178.87 11.38L183.34 10.32L184.25 10.97Q183.91 12.24 183.55 14.04Q183.19 15.84 182.90 17.78Q182.62 19.73 182.42 21.55L182.42 21.55L181.10 20.47L184.44 20.71L184.34 21.94ZM182.50 8.78L182.50 8.78Q181.80 8.78 181.48 8.34Q181.15 7.90 181.22 7.18L181.22 7.18Q181.32 6.36 181.84 5.81Q182.35 5.26 183.19 5.26L183.19 5.26Q183.89 5.26 184.21 5.69Q184.54 6.12 184.44 6.89L184.44 6.89Q184.34 7.70 183.83 8.24Q183.31 8.78 182.50 8.78ZM193.27 18.77L194.40 19.68Q193.54 21.02 192.47 21.83Q191.40 22.63 190.33 22.88Q189.26 23.14 188.44 22.85Q187.61 22.56 187.20 21.72Q186.79 20.88 187.06 19.54L187.06 19.54Q187.25 18.53 187.42 17.60Q187.58 16.68 187.73 15.73Q187.87 14.78 188.00 13.76Q188.14 12.74 188.28 11.54L188.28 11.54L189.55 12.55L186.24 12.55L186.41 11.16Q186.96 10.99 187.74 10.72Q188.52 10.44 188.95 10.15L188.95 10.15Q189.12 10.03 189.37 9.68Q189.62 9.34 189.88 8.93Q190.13 8.52 190.30 8.22Q190.46 7.92 190.46 7.92L190.46 7.92L191.98 8.40L191.50 11.64L190.27 10.73L194.86 10.73L194.38 12.55L189.77 12.55L191.52 11.62Q191.26 13.13 191.06 14.36Q190.87 15.60 190.70 16.76Q190.54 17.93 190.37 19.20L190.37 19.20Q190.25 20.11 190.46 20.47Q190.68 20.83 191.14 20.71Q191.59 20.59 192.16 20.09Q192.72 19.58 193.27 18.77L193.27 18.77ZM197.95 22.94L197.95 22.94Q197.26 22.94 196.81 22.43Q196.37 21.91 196.16 21.06Q195.96 20.21 195.96 19.25L195.96 19.25Q195.96 18.02 196.27 16.76Q196.58 15.50 197.12 14.34Q197.66 13.18 198.37 12.28Q199.08 11.38 199.87 10.85Q200.66 10.32 201.48 10.32L201.48 10.32Q201.94 10.32 202.64 10.43Q203.35 10.54 203.98 10.66Q204.60 10.78 204.84 10.80L204.84 10.80L204.36 13.61Q204.24 13.58 203.70 13.36Q203.16 13.13 202.45 12.91Q201.74 12.70 201.10 12.70L201.10 12.70Q200.81 12.70 200.54 13.02Q200.28 13.34 200.03 13.91Q199.78 14.47 199.58 15.22Q199.39 15.96 199.27 16.80Q199.15 17.64 199.15 18.48L199.15 18.48Q199.15 19.15 199.30 19.61Q199.44 20.06 199.85 20.06L199.85 20.06Q200.23 20.06 200.71 19.62Q201.19 19.18 201.71 18.38Q202.22 17.59 202.68 16.58Q203.14 15.58 203.44 14.41Q203.74 13.25 203.78 12.10L203.78 12.10L203.83 10.97L206.52 10.32L207.43 10.94Q207.02 12.58 206.69 14.24Q206.35 15.91 206.12 17.74Q205.90 19.56 205.85 21.67L205.85 21.67L204.46 20.42L207.79 20.71L207.70 21.94L203.04 22.94L202.22 22.54Q202.56 21.55 202.92 20.44Q203.28 19.32 203.54 18.18Q203.81 17.04 203.86 16.01L203.86 16.01L204.12 16.42Q203.45 18.19 202.46 19.68Q201.48 21.17 200.33 22.06Q199.18 22.94 197.95 22.94ZM214.70 21.94L210.05 22.94L209.23 22.54Q209.69 20.93 210.06 18.98Q210.43 17.04 210.74 15.04Q211.06 13.03 211.27 11.22Q211.49 9.41 211.63 8.02Q211.78 6.62 211.80 5.95L211.80 5.95L213.17 6.53L210.10 6.12L210.02 4.90L214.68 4.13L215.45 4.78Q214.82 8.28 214.30 11.40Q213.77 14.52 213.42 16.99Q213.07 19.46 212.90 21.10L212.90 21.10L211.54 20.42L214.80 20.71L214.70 21.94ZM222.26 21.94L217.56 22.94L216.77 22.54Q217.20 20.88 217.51 19.45Q217.82 18.02 218.03 16.75Q218.23 15.48 218.35 14.26Q218.47 13.03 218.52 11.78L218.52 11.78L219.91 12.74L216.79 12.53L216.79 11.38L221.26 10.32L222.17 10.97Q221.83 12.24 221.47 14.04Q221.11 15.84 220.82 17.78Q220.54 19.73 220.34 21.55L220.34 21.55L219.02 20.47L222.36 20.71L222.26 21.94ZM220.42 8.78L220.42 8.78Q219.72 8.78 219.40 8.34Q219.07 7.90 219.14 7.18L219.14 7.18Q219.24 6.36 219.76 5.81Q220.27 5.26 221.11 5.26L221.11 5.26Q221.81 5.26 222.13 5.69Q222.46 6.12 222.36 6.89L222.36 6.89Q222.26 7.70 221.75 8.24Q221.23 8.78 220.42 8.78ZM227.04 22.94L227.04 22.94Q225.58 22.94 224.74 22.00Q223.90 21.05 223.90 19.30L223.90 19.30Q223.90 18.14 224.23 16.90Q224.57 15.65 225.14 14.47Q225.72 13.30 226.43 12.36Q227.14 11.42 227.89 10.87Q228.65 10.32 229.34 10.32L229.34 10.32Q229.78 10.32 230.39 10.36Q231.00 10.39 231.60 10.44Q232.20 10.49 232.63 10.54L232.63 10.54L233.18 11.42L232.34 15.29L231.07 15.22L231.05 11.54L232.32 13.49Q231.60 13.15 231.04 12.95Q230.47 12.74 230.04 12.65Q229.61 12.55 229.20 12.55L229.20 12.55Q228.84 12.55 228.47 13.15Q228.10 13.75 227.78 14.70Q227.47 15.65 227.28 16.78Q227.09 17.90 227.09 18.96L227.09 18.96Q227.09 19.78 227.40 20.22Q227.71 20.66 228.31 20.66L228.31 20.66Q228.96 20.66 229.73 20.17Q230.50 19.68 231.38 18.74L231.38 18.74L232.44 19.66Q231.48 21.12 230.03 22.03Q228.58 22.94 227.04 22.94Z"/></svg>