<svg xmlns="http://www.w3.org/2000/svg" xmlns:xlink="http://www.w3.org/1999/xlink" width="200.71200000000005" height="27.288"><path fill="black" d="M7.10 19.61L0.82 19.61L0.82 17.38L2.30 17.38L2.30 7.85L0.82 7.85L0.82 5.62L8.69 5.62Q11.26 5.62 12.61 6.66Q13.97 7.70 13.97 9.84L13.97 9.84Q13.97 12 12.61 13.03Q11.26 14.06 8.86 14.06L8.86 14.06L8.40 14.06L10.94 12.96L13.66 17.38L15.34 17.38L15.34 19.61L11.18 19.61L7.80 14.06L6.65 14.06L6.65 11.83L8.11 11.83Q9.41 11.83 10.00 11.30Q10.58 10.78 10.58 9.84L10.58 9.84Q10.58 8.88 10.03 8.36Q9.48 7.85 8.11 7.85L8.11 7.85L5.59 7.85L5.59 17.38L7.10 17.38L7.10 19.61ZM21.55 19.85L21.55 19.85Q19.94 19.85 18.76 19.19Q17.57 18.53 16.90 17.38Q16.22 16.22 16.22 14.78L16.22 14.78Q16.22 13.34 16.90 12.22Q17.57 11.09 18.77 10.43Q19.97 9.77 21.55 9.77L21.55 9.77Q23.14 9.77 24.34 10.43Q25.54 11.09 26.20 12.22Q26.86 13.34 26.86 14.78L26.86 14.78Q26.86 16.22 26.20 17.38Q25.54 18.53 24.34 19.19Q23.14 19.85 21.55 19.85ZM21.55 17.54L21.55 17.54Q22.68 17.54 23.36 16.78Q24.05 16.01 24.05 14.78L24.05 14.78Q24.05 13.58 23.36 12.83Q22.68 12.07 21.55 12.07L21.55 12.07Q20.40 12.07 19.73 12.83Q19.06 13.58 19.06 14.78L19.06 14.78Q19.06 16.01 19.73 16.78Q20.40 17.54 21.55 17.54ZM32.23 14.88L32.23 17.54L33.31 17.54L33.31 19.61L27.91 19.61L27.91 17.54L29.33 17.54L29.33 7.68L27.82 7.68L27.82 5.62L32.23 5.62L32.23 14.62L35.76 12.07L34.46 12.07L34.46 10.01L39.53 10.01L39.53 12.07L38.30 12.07L34.15 15L35.06 13.78L38.52 17.54L40.08 17.54L40.08 19.61L36.46 19.61L32.23 14.88ZM44.86 14.88L44.86 17.54L45.94 17.54L45.94 19.61L40.54 19.61L40.54 17.54L41.95 17.54L41.95 7.68L40.44 7.68L40.44 5.62L44.86 5.62L44.86 14.62L48.38 12.07L47.09 12.07L47.09 10.01L52.15 10.01L52.15 12.07L50.93 12.07L46.78 15L47.69 13.78L51.14 17.54L52.70 17.54L52.70 19.61L49.08 19.61L44.86 14.88ZM58.87 19.61L53.33 19.61L53.33 17.54L54.72 17.54L54.72 12.07L53.21 12.07L53.21 10.01L57.60 10.01L57.60 17.54L58.87 17.54L58.87 19.61ZM56.16 8.66L56.16 8.66Q55.32 8.66 54.85 8.18Q54.38 7.70 54.38 6.94L54.38 6.94Q54.38 6.14 54.85 5.65Q55.32 5.16 56.16 5.16L56.16 5.16Q56.98 5.16 57.44 5.65Q57.91 6.14 57.91 6.94L57.91 6.94Q57.91 7.70 57.44 8.18Q56.98 8.66 56.16 8.66ZM64.73 19.85L64.73 19.85Q63.05 19.85 62.04 18.96Q61.03 18.07 61.03 16.13L61.03 16.13L61.03 12.07L59.52 12.07L59.52 10.01L61.03 10.01L61.03 6.89L63.91 6.41L63.91 10.01L66.53 10.01L66.53 12.07L63.94 12.07L63.94 15.74Q63.94 16.75 64.36 17.11Q64.78 17.47 65.54 17.47L65.54 17.47Q65.88 17.47 66.18 17.39Q66.48 17.30 66.72 17.21L66.72 17.21L67.10 19.27Q66.70 19.51 66.07 19.68Q65.45 19.85 64.73 19.85ZM72.62 19.85L72.62 19.85Q70.94 19.85 69.94 18.96Q68.93 18.07 68.93 16.13L68.93 16.13L68.93 12.07L67.42 12.07L67.42 10.01L68.93 10.01L68.93 6.89L71.81 6.41L71.81 10.01L74.42 10.01L74.42 12.07L71.83 12.07L71.83 15.74Q71.83 16.75 72.25 17.11Q72.67 17.47 73.44 17.47L73.44 17.47Q73.78 17.47 74.08 17.39Q74.38 17.30 74.62 17.21L74.62 17.21L75 19.27Q74.59 19.51 73.97 19.68Q73.34 19.85 72.62 19.85ZM89.04 19.61L85.49 19.61L90.31 7.73L85.32 7.73L85.32 10.97L83.23 10.97L83.23 5.62L93.86 5.62L93.86 7.32L89.04 19.61ZM101.09 19.85L101.09 19.85Q99.34 19.85 98.00 19.01Q96.67 18.17 95.94 16.55Q95.21 14.93 95.21 12.60L95.21 12.60Q95.21 10.27 95.94 8.65Q96.67 7.03 98.00 6.19Q99.34 5.35 101.09 5.35L101.09 5.35Q102.84 5.35 104.16 6.19Q105.48 7.03 106.21 8.65Q106.94 10.27 106.94 12.60L106.94 12.60Q106.94 14.93 106.21 16.55Q105.48 18.17 104.16 19.01Q102.84 19.85 101.09 19.85ZM101.09 17.21L101.09 17.21Q102.36 17.21 103.01 16.04Q103.66 14.88 103.66 12.60L103.66 12.60Q103.66 10.32 103.01 9.16Q102.36 7.99 101.09 7.99L101.09 7.99Q99.82 7.99 99.17 9.16Q98.52 10.32 98.52 12.60L98.52 12.60Q98.52 14.88 99.17 16.04Q99.82 17.21 101.09 17.21ZM114.60 19.85L114.60 19.85Q112.85 19.85 111.52 19.01Q110.18 18.17 109.45 16.55Q108.72 14.93 108.72 12.60L108.72 12.60Q108.72 10.27 109.45 8.65Q110.18 7.03 111.52 6.19Q112.85 5.35 114.60 5.35L114.60 5.35Q116.35 5.35 117.67 6.19Q118.99 7.03 119.72 8.65Q120.46 10.27 120.46 12.60L120.46 12.60Q120.46 14.93 119.72 16.55Q118.99 18.17 117.67 19.01Q116.35 19.85 114.60 19.85ZM114.60 17.21L114.60 17.21Q115.87 17.21 116.52 16.04Q117.17 14.88 117.17 12.60L117.17 12.60Q117.17 10.32 116.52 9.16Q115.87 7.99 114.60 7.99L114.60 7.99Q113.33 7.99 112.68 9.16Q112.03 10.32 112.03 12.60L112.03 12.60Q112.03 14.88 112.68 16.04Q113.33 17.21 114.60 17.21ZM134.62 19.61L129.05 19.61L129.05 17.54L130.44 17.54L130.44 12.07L128.93 12.07L128.93 10.01L133.10 10.01L133.10 11.52L132.79 11.57Q133.70 10.63 134.77 10.20Q135.84 9.77 136.94 9.77L136.94 9.77Q138.43 9.77 139.31 10.58Q140.18 11.40 140.18 13.10L140.18 13.10L140.18 17.54L141.46 17.54L141.46 19.61L135.91 19.61L135.91 17.54L137.30 17.54L137.30 13.85Q137.30 12.94 136.91 12.54Q136.51 12.14 135.67 12.14L135.67 12.14Q135.02 12.14 134.36 12.40Q133.70 12.65 133.06 13.25L133.06 13.25L133.32 12.46L133.32 17.54L134.62 17.54L134.62 19.61ZM147.86 19.85L147.86 19.85Q146.26 19.85 145.07 19.19Q143.88 18.53 143.21 17.38Q142.54 16.22 142.54 14.78L142.54 14.78Q142.54 13.34 143.21 12.22Q143.88 11.09 145.08 10.43Q146.28 9.77 147.86 9.77L147.86 9.77Q149.45 9.77 150.65 10.43Q151.85 11.09 152.51 12.22Q153.17 13.34 153.17 14.78L153.17 14.78Q153.17 16.22 152.51 17.38Q151.85 18.53 150.65 19.19Q149.45 19.85 147.86 19.85ZM147.86 17.54L147.86 17.54Q148.99 17.54 149.68 16.78Q150.36 16.01 150.36 14.78L150.36 14.78Q150.36 13.58 149.68 12.83Q148.99 12.07 147.86 12.07L147.86 12.07Q146.71 12.07 146.04 12.83Q145.37 13.58 145.37 14.78L145.37 14.78Q145.37 16.01 146.04 16.78Q146.71 17.54 147.86 17.54ZM160.34 19.61L154.39 19.61L154.39 17.54L155.78 17.54L155.78 12.07L154.27 12.07L154.27 10.01L158.45 10.01L158.45 12.89L158.23 12.60Q158.86 11.14 159.68 10.45Q160.51 9.77 161.45 9.77L161.45 9.77Q162.26 9.77 162.91 10.20L162.91 10.20L161.98 12.94Q161.64 12.65 161.32 12.52Q160.99 12.38 160.68 12.38L160.68 12.38Q160.03 12.38 159.52 12.82Q159 13.25 158.66 14.02L158.66 14.02L158.66 17.54L160.34 17.54L160.34 19.61ZM168.89 19.61L163.42 19.61L163.42 17.54L164.81 17.54L164.81 12.07L163.30 12.07L163.30 10.01L167.47 10.01L167.47 11.52L167.16 11.57Q168.07 10.63 169.12 10.20Q170.16 9.77 171.22 9.77L171.22 9.77Q172.49 9.77 173.21 10.28Q173.93 10.80 174.24 11.71L174.24 11.71L173.83 11.54Q174.74 10.61 175.79 10.19Q176.83 9.77 177.89 9.77L177.89 9.77Q179.38 9.77 180.24 10.58Q181.10 11.40 181.10 13.10L181.10 13.10L181.10 17.54L182.38 17.54L182.38 19.61L176.88 19.61L176.88 17.54L178.20 17.54L178.20 13.85Q178.20 12.94 177.83 12.54Q177.46 12.14 176.64 12.14L176.64 12.14Q176.04 12.14 175.39 12.40Q174.74 12.65 174.14 13.25L174.14 13.25L174.29 12.02Q174.34 12.29 174.36 12.62Q174.38 12.96 174.38 13.10L174.38 13.10L174.38 17.54L175.58 17.54L175.58 19.61L170.21 19.61L170.21 17.54L171.53 17.54L171.53 13.85Q171.53 12.94 171.16 12.54Q170.78 12.14 169.97 12.14L169.97 12.14Q169.34 12.14 168.70 12.40Q168.05 12.65 167.42 13.25L167.42 13.25L167.69 12.50L167.69 17.54L168.89 17.54L168.89 19.61ZM187.06 19.85L187.06 19.85Q185.33 19.85 184.40 19.03Q183.48 18.22 183.48 16.92L183.48 16.92Q183.48 15.58 184.46 14.81Q185.45 14.04 187.42 14.04L187.42 14.04Q188.09 14.04 188.87 14.16Q189.65 14.28 190.22 14.45L190.22 14.45L189.82 14.74L189.82 13.80Q189.82 13.01 189.26 12.58Q188.71 12.14 187.61 12.14L187.61 12.14Q186.79 12.14 186.01 12.36Q185.23 12.58 184.51 12.98L184.51 12.98L183.82 10.82Q184.80 10.30 185.94 10.03Q187.08 9.77 188.09 9.77L188.09 9.77Q190.39 9.77 191.56 10.80Q192.72 11.83 192.72 13.82L192.72 13.82L192.72 17.54L193.97 17.54L193.97 19.61L190.06 19.61L190.06 18.02L190.49 18.36Q189.82 19.03 188.93 19.44Q188.04 19.85 187.06 19.85ZM187.85 17.86L187.85 17.86Q188.50 17.86 189.12 17.60Q189.74 17.35 190.08 16.97L190.08 16.97L189.82 17.74L189.82 15.50L190.22 16.18Q189.70 15.98 189.14 15.91Q188.59 15.84 188.06 15.84L188.06 15.84Q187.22 15.84 186.77 16.10Q186.31 16.37 186.31 16.87L186.31 16.87Q186.31 17.35 186.72 17.60Q187.13 17.86 187.85 17.86ZM200.33 19.61L194.66 19.61L194.66 17.54L196.08 17.54L196.08 7.68L194.57 7.68L194.57 5.62L198.98 5.62L198.98 17.54L200.33 17.54L200.33 19.61Z"/></svg>