<svg xmlns="http://www.w3.org/2000/svg" xmlns:xlink="http://www.w3.org/1999/xlink" width="355.82399999999996" height="30"><path fill="black" d="M14.59 24L3.77 24L3.77 7.20L4.30 7.20L4.30 23.47L14.59 23.47L14.59 24ZM25.49 24.24L25.49 24.24Q23.26 24.24 21.59 23.39Q19.92 22.54 19.01 21.05Q18.10 19.56 18.10 17.69L18.10 17.69Q18.10 16.25 18.64 15.05Q19.18 13.85 20.12 13.00Q21.07 12.14 22.33 11.68Q23.59 11.21 25.06 11.21L25.06 11.21Q26.42 11.21 27.62 11.60Q28.82 12 29.71 12.77Q30.60 13.54 31.08 14.60Q31.56 15.67 31.51 17.02L31.51 17.02L31.49 17.78L18.38 17.78L18.38 17.26L31.22 17.26L30.96 17.52L30.98 16.92Q30.98 15.34 30.19 14.17Q29.40 13.01 28.07 12.37Q26.74 11.74 25.13 11.74L25.13 11.74Q23.30 11.74 21.83 12.47Q20.35 13.20 19.50 14.54Q18.65 15.89 18.62 17.69L18.62 17.69Q18.65 19.42 19.51 20.78Q20.38 22.15 21.94 22.92Q23.50 23.69 25.46 23.69L25.46 23.69Q27.24 23.69 28.49 23.20Q29.74 22.70 30.67 21.96L30.67 21.96L30.86 22.46Q30.10 23.04 29.30 23.42Q28.51 23.81 27.59 24.02Q26.66 24.24 25.49 24.24ZM48.82 24L48.05 24L42.10 17.81L41.95 17.64L36.31 11.40L37.08 11.40L42.34 17.23L42.48 17.42L48.82 24ZM36.53 24L35.76 24L42.05 17.40L42.46 17.81L36.53 24ZM48.65 11.40L42.48 17.74L42.14 17.28L47.86 11.40L48.65 11.40ZM59.59 24.24L59.59 24.24Q57.36 24.24 55.69 23.39Q54.02 22.54 53.11 21.05Q52.20 19.56 52.20 17.69L52.20 17.69Q52.20 16.25 52.74 15.05Q53.28 13.85 54.23 13.00Q55.18 12.14 56.44 11.68Q57.70 11.21 59.16 11.21L59.16 11.21Q60.53 11.21 61.73 11.60Q62.93 12 63.82 12.77Q64.70 13.54 65.18 14.60Q65.66 15.67 65.62 17.02L65.62 17.02L65.59 17.78L52.49 17.78L52.49 17.26L65.33 17.26L65.06 17.52L65.09 16.92Q65.09 15.34 64.30 14.17Q63.50 13.01 62.17 12.37Q60.84 11.74 59.23 11.74L59.23 11.74Q57.41 11.74 55.93 12.47Q54.46 13.20 53.60 14.54Q52.75 15.89 52.73 17.69L52.73 17.69Q52.75 19.42 53.62 20.78Q54.48 22.15 56.04 22.92Q57.60 23.69 59.57 23.69L59.57 23.69Q61.34 23.69 62.59 23.20Q63.84 22.70 64.78 21.96L64.78 21.96L64.97 22.46Q64.20 23.04 63.41 23.42Q62.62 23.81 61.69 24.02Q60.77 24.24 59.59 24.24ZM71.54 24L71.54 24L71.54 11.40L72.02 11.40L72.07 14.83L71.78 14.93Q72.07 14.02 72.86 13.18Q73.66 12.34 74.84 11.77Q76.03 11.21 77.45 11.21L77.45 11.21Q79.18 11.21 80.36 11.82Q81.55 12.43 82.19 13.57Q82.82 14.71 82.82 16.27L82.82 16.27L82.82 24L82.30 24L82.30 16.34Q82.30 14.86 81.70 13.82Q81.10 12.79 80.02 12.25Q78.94 11.71 77.47 11.74L77.47 11.74Q76.32 11.74 75.32 12.14Q74.33 12.55 73.60 13.15Q72.86 13.75 72.47 14.38Q72.07 15 72.07 15.41L72.07 15.41L72.07 24L71.83 24Q71.78 24 71.71 24Q71.64 24 71.54 24ZM95.40 24.24L95.40 24.24Q93.48 24.24 91.96 23.40Q90.43 22.56 89.56 21.08Q88.68 19.61 88.68 17.74L88.68 17.74Q88.68 15.84 89.56 14.36Q90.43 12.89 91.94 12.05Q93.46 11.21 95.38 11.21L95.38 11.21Q96.50 11.21 97.51 11.50Q98.52 11.78 99.36 12.37Q100.20 12.96 100.82 13.79Q101.45 14.62 101.81 15.70L101.81 15.70L101.59 15.67L101.59 6.24L102.12 6.24L102.12 24L101.62 24L101.59 19.73L101.86 19.68Q101.47 20.78 100.85 21.65Q100.22 22.51 99.40 23.09Q98.57 23.66 97.56 23.95Q96.55 24.24 95.40 24.24ZM95.40 23.71L95.40 23.71Q97.20 23.71 98.60 22.96Q100.01 22.20 100.80 20.84Q101.59 19.49 101.59 17.69L101.59 17.69Q101.59 16.01 100.81 14.65Q100.03 13.30 98.64 12.52Q97.25 11.74 95.38 11.74L95.38 11.74Q93.60 11.74 92.20 12.50Q90.79 13.27 90 14.64Q89.21 16.01 89.21 17.74L89.21 17.74Q89.21 19.49 90.01 20.83Q90.82 22.18 92.22 22.94Q93.62 23.71 95.40 23.71ZM127.06 24.24L127.06 24.24Q125.02 24.24 123.29 23.60Q121.56 22.97 120.32 21.82Q119.09 20.66 118.40 19.08Q117.72 17.50 117.72 15.65L117.72 15.65Q117.72 13.78 118.39 12.19Q119.06 10.61 120.31 9.44Q121.56 8.28 123.28 7.62Q124.99 6.96 127.06 6.96L127.06 6.96Q128.52 6.96 129.79 7.32Q131.06 7.68 132.13 8.33Q133.20 8.98 134.02 9.86L134.02 9.86L133.73 10.32Q132.96 9.46 131.94 8.82Q130.92 8.18 129.68 7.84Q128.45 7.49 127.06 7.49L127.06 7.49Q125.14 7.49 123.52 8.10Q121.90 8.71 120.73 9.82Q119.57 10.92 118.92 12.41Q118.27 13.90 118.27 15.65L118.27 15.65Q118.27 17.40 118.92 18.86Q119.57 20.33 120.74 21.42Q121.92 22.51 123.53 23.11Q125.14 23.71 127.06 23.71L127.06 23.71Q128.90 23.71 130.43 23.12Q131.95 22.54 133.04 21.49Q134.14 20.45 134.72 19.09Q135.31 17.74 135.34 16.18L135.34 16.18L135.31 15.86L135.55 16.06L127.15 16.06L127.15 15.55L135.84 15.55Q135.84 15.65 135.84 15.72Q135.84 15.79 135.85 15.83Q135.86 15.86 135.86 15.89L135.86 15.89Q135.86 17.71 135.24 19.26Q134.62 20.81 133.44 21.91Q132.26 23.02 130.66 23.63Q129.05 24.24 127.06 24.24ZM142.32 24L141.79 24L141.79 11.40L142.32 11.40L142.32 24ZM142.06 8.09L142.06 8.09Q141.72 8.09 141.55 7.90Q141.38 7.70 141.38 7.39L141.38 7.39Q141.38 7.10 141.55 6.90Q141.72 6.70 142.06 6.70L142.06 6.70Q142.37 6.70 142.55 6.89Q142.73 7.08 142.73 7.39L142.73 7.39Q142.73 7.70 142.56 7.90Q142.39 8.09 142.06 8.09ZM155.59 29.76L155.59 29.76Q154.01 29.76 152.70 29.26Q151.39 28.75 150.55 27.96L150.55 27.96L150.79 27.48Q151.37 27.98 152.09 28.38Q152.81 28.78 153.68 29.00Q154.56 29.23 155.57 29.23L155.57 29.23Q157.03 29.23 158.34 28.54Q159.65 27.84 160.46 26.46Q161.28 25.08 161.28 23.02L161.28 23.02L161.28 19.73L161.54 19.70Q161.02 21.14 160.07 22.15Q159.12 23.16 157.87 23.66Q156.62 24.17 155.09 24.17L155.09 24.17Q153.14 24.17 151.61 23.35Q150.07 22.54 149.21 21.08Q148.34 19.63 148.34 17.76L148.34 17.76Q148.34 15.86 149.24 14.38Q150.14 12.89 151.66 12.05Q153.17 11.21 155.04 11.21L155.04 11.21Q155.95 11.21 156.79 11.40Q157.63 11.59 158.36 11.96Q159.10 12.34 159.71 12.88Q160.32 13.42 160.78 14.14Q161.23 14.86 161.50 15.72L161.50 15.72L161.28 15.67L161.33 11.40L161.81 11.40L161.81 22.97Q161.81 24.70 161.30 25.99Q160.80 27.29 159.92 28.12Q159.05 28.94 157.92 29.35Q156.79 29.76 155.59 29.76ZM155.09 23.64L155.09 23.64Q156.91 23.64 158.32 22.88Q159.72 22.13 160.50 20.78Q161.28 19.44 161.28 17.76L161.28 17.76Q161.26 15.98 160.48 14.63Q159.70 13.27 158.28 12.50Q156.86 11.74 155.06 11.74L155.06 11.74Q153.31 11.74 151.91 12.50Q150.50 13.27 149.70 14.63Q148.90 15.98 148.87 17.76L148.87 17.76Q148.87 19.46 149.68 20.80Q150.48 22.13 151.88 22.88Q153.29 23.64 155.09 23.64ZM174.41 24.24L174.41 24.24Q172.25 24.24 170.64 23.42Q169.03 22.61 168.17 21.17Q167.30 19.73 167.30 17.83L167.30 17.83Q167.30 15.94 168.23 14.44Q169.15 12.94 170.72 12.07Q172.30 11.21 174.29 11.21L174.29 11.21Q175.58 11.21 176.71 11.60Q177.84 12 178.69 12.68Q179.54 13.37 180.07 14.23Q180.60 15.10 180.67 15.98L180.67 15.98L180.48 15.96L180.53 11.40L181.03 11.40L181.03 24L180.48 24L180.48 19.61L180.77 19.32Q180.62 20.38 180.07 21.28Q179.52 22.18 178.66 22.85Q177.79 23.52 176.71 23.88Q175.63 24.24 174.41 24.24ZM174.36 23.71L174.36 23.71Q176.14 23.71 177.52 22.94Q178.90 22.18 179.70 20.84Q180.50 19.51 180.50 17.78L180.50 17.78Q180.50 16.06 179.71 14.69Q178.92 13.32 177.52 12.53Q176.11 11.74 174.31 11.74L174.31 11.74Q172.42 11.74 170.95 12.53Q169.49 13.32 168.66 14.70Q167.83 16.08 167.83 17.83L167.83 17.83Q167.83 19.54 168.62 20.87Q169.42 22.20 170.88 22.96Q172.34 23.71 174.36 23.71ZM199.82 23.81L199.30 23.81L199.30 7.44L199.58 7.51L195.74 9.91L195.55 9.48L199.46 6.96L199.82 6.96L199.82 23.81ZM202.94 24L196.10 24L196.10 23.47L202.94 23.47L202.94 24ZM214.15 24.24L214.15 24.24Q211.85 24.24 210.28 23.21Q208.70 22.18 207.92 20.26Q207.14 18.34 207.14 15.60L207.14 15.60Q207.14 12.86 207.92 10.94Q208.70 9.02 210.28 7.99Q211.85 6.96 214.15 6.96L214.15 6.96Q216.43 6.96 217.97 7.99Q219.50 9.02 220.26 10.94Q221.02 12.86 221.02 15.60L221.02 15.60Q221.02 18.34 220.26 20.26Q219.50 22.18 217.97 23.21Q216.43 24.24 214.15 24.24ZM214.15 23.71L214.15 23.71Q217.20 23.71 218.83 21.61Q220.46 19.51 220.46 15.60L220.46 15.60Q220.46 11.69 218.83 9.59Q217.20 7.49 214.15 7.49L214.15 7.49Q211.08 7.49 209.39 9.59Q207.70 11.69 207.70 15.60L207.70 15.60Q207.70 19.51 209.39 21.61Q211.08 23.71 214.15 23.71ZM231.96 24.24L231.96 24.24Q229.66 24.24 228.08 23.21Q226.51 22.18 225.73 20.26Q224.95 18.34 224.95 15.60L224.95 15.60Q224.95 12.86 225.73 10.94Q226.51 9.02 228.08 7.99Q229.66 6.96 231.96 6.96L231.96 6.96Q234.24 6.96 235.78 7.99Q237.31 9.02 238.07 10.94Q238.82 12.86 238.82 15.60L238.82 15.60Q238.82 18.34 238.07 20.26Q237.31 22.18 235.78 23.21Q234.24 24.24 231.96 24.24ZM231.96 23.71L231.96 23.71Q235.01 23.71 236.64 21.61Q238.27 19.51 238.27 15.60L238.27 15.60Q238.27 11.69 236.64 9.59Q235.01 7.49 231.96 7.49L231.96 7.49Q228.89 7.49 227.20 9.59Q225.50 11.69 225.50 15.60L225.50 15.60Q225.50 19.51 227.20 21.61Q228.89 23.71 231.96 23.71ZM253.94 24L253.94 24L253.94 11.40L254.42 11.40L254.47 14.83L254.18 14.93Q254.47 14.02 255.26 13.18Q256.06 12.34 257.24 11.77Q258.43 11.21 259.85 11.21L259.85 11.21Q261.58 11.21 262.76 11.82Q263.95 12.43 264.59 13.57Q265.22 14.71 265.22 16.27L265.22 16.27L265.22 24L264.70 24L264.70 16.34Q264.70 14.86 264.10 13.82Q263.50 12.79 262.42 12.25Q261.34 11.71 259.87 11.74L259.87 11.74Q258.72 11.74 257.72 12.14Q256.73 12.55 256.00 13.15Q255.26 13.75 254.87 14.38Q254.47 15 254.47 15.41L254.47 15.41L254.47 24L254.23 24Q254.18 24 254.11 24Q254.04 24 253.94 24ZM278.57 24.24L278.57 24.24Q276.34 24.24 274.64 23.40Q272.95 22.56 272.00 21.08Q271.06 19.61 271.06 17.69L271.06 17.69Q271.06 15.79 272.00 14.33Q272.95 12.86 274.64 12.04Q276.34 11.21 278.57 11.21L278.57 11.21Q280.78 11.21 282.46 12.04Q284.14 12.86 285.10 14.33Q286.06 15.79 286.06 17.69L286.06 17.69Q286.06 19.56 285.10 21.06Q284.14 22.56 282.46 23.40Q280.78 24.24 278.57 24.24ZM278.57 23.71L278.57 23.71Q280.56 23.71 282.12 22.96Q283.68 22.20 284.60 20.83Q285.53 19.46 285.53 17.69L285.53 17.69Q285.55 15.96 284.64 14.62Q283.73 13.27 282.16 12.50Q280.58 11.74 278.57 11.74L278.57 11.74Q276.53 11.74 274.96 12.50Q273.38 13.27 272.50 14.62Q271.61 15.96 271.58 17.69L271.58 17.69Q271.56 19.46 272.48 20.82Q273.41 22.18 274.99 22.94Q276.58 23.71 278.57 23.71ZM292.42 24L291.89 24L291.89 11.40L292.37 11.40L292.39 14.81L292.18 14.93Q292.44 13.87 293.08 13.03Q293.71 12.19 294.71 11.70Q295.70 11.21 297.05 11.21L297.05 11.21Q297.72 11.21 298.33 11.33Q298.94 11.45 299.40 11.66L299.40 11.66L299.21 12.17Q298.68 11.93 298.07 11.83Q297.46 11.74 297.00 11.74L297.00 11.74Q295.85 11.74 295.01 12.14Q294.17 12.55 293.58 13.21Q292.99 13.87 292.70 14.62Q292.42 15.36 292.42 16.06L292.42 16.06L292.42 24ZM304.63 24L304.10 24L304.10 11.40L304.58 11.40L304.63 14.95L304.27 14.86Q304.73 13.97 305.33 13.28Q305.93 12.60 306.64 12.13Q307.34 11.66 308.14 11.44Q308.93 11.21 309.82 11.21L309.82 11.21Q311.11 11.21 312.13 11.58Q313.15 11.95 313.84 12.77Q314.52 13.58 314.90 14.88L314.90 14.88L314.71 14.95L314.69 14.69Q315.02 13.90 315.56 13.25Q316.10 12.60 316.81 12.14Q317.52 11.69 318.35 11.45Q319.18 11.21 320.11 11.21L320.11 11.21Q321.77 11.21 322.93 11.82Q324.10 12.43 324.70 13.57Q325.30 14.71 325.30 16.27L325.30 16.27L325.30 24L324.77 24L324.77 16.34Q324.77 14.86 324.19 13.82Q323.62 12.79 322.57 12.26Q321.53 11.74 320.16 11.74L320.16 11.74Q319.10 11.74 318.17 12.11Q317.23 12.48 316.52 13.07Q315.82 13.66 315.43 14.33Q315.05 15 315.05 15.62L315.05 15.62L315.05 24L314.52 24L314.52 16.34Q314.52 14.88 313.93 13.82Q313.34 12.77 312.31 12.25Q311.28 11.74 309.86 11.74L309.86 11.74Q308.76 11.74 307.79 12.14Q306.82 12.55 306.11 13.15Q305.40 13.75 305.02 14.38Q304.63 15 304.63 15.41L304.63 15.41L304.63 24ZM337.75 24.24L337.75 24.24Q335.59 24.24 333.98 23.42Q332.38 22.61 331.51 21.17Q330.65 19.73 330.65 17.83L330.65 17.83Q330.65 15.94 331.57 14.44Q332.50 12.94 334.07 12.07Q335.64 11.21 337.63 11.21L337.63 11.21Q338.93 11.21 340.06 11.60Q341.18 12 342.04 12.68Q342.89 13.37 343.42 14.23Q343.94 15.10 344.02 15.98L344.02 15.98L343.82 15.96L343.87 11.40L344.38 11.40L344.38 24L343.82 24L343.82 19.61L344.11 19.32Q343.97 20.38 343.42 21.28Q342.86 22.18 342.00 22.85Q341.14 23.52 340.06 23.88Q338.98 24.24 337.75 24.24ZM337.70 23.71L337.70 23.71Q339.48 23.71 340.86 22.94Q342.24 22.18 343.04 20.84Q343.85 19.51 343.85 17.78L343.85 17.78Q343.85 16.06 343.06 14.69Q342.26 13.32 340.86 12.53Q339.46 11.74 337.66 11.74L337.66 11.74Q335.76 11.74 334.30 12.53Q332.83 13.32 332.00 14.70Q331.18 16.08 331.18 17.83L331.18 17.83Q331.18 19.54 331.97 20.87Q332.76 22.20 334.22 22.96Q335.69 23.71 337.70 23.71ZM352.06 24L351.53 24L351.53 6.24L352.06 6.24L352.06 24Z"/></svg>