<svg xmlns="http://www.w3.org/2000/svg" xmlns:xlink="http://www.w3.org/1999/xlink" width="400.10400000000016" height="33.888"><path fill="black" d="M14.81 5.09L14.81 22.22L13.66 22.22L3.48 7.01L3.43 7.01Q3.46 7.66 3.47 8.30Q3.48 8.95 3.49 9.61Q3.50 10.27 3.50 10.99L3.50 10.99L3.50 22.22L2.42 22.22L2.42 5.09L3.58 5.09L13.73 20.26L13.80 20.26Q13.78 19.73 13.76 19.06Q13.75 18.38 13.74 17.69Q13.73 16.99 13.73 16.37L13.73 16.37L13.73 5.09L14.81 5.09ZM29.90 15.84L29.90 15.84Q29.90 17.78 29.27 19.28Q28.63 20.78 27.37 21.62Q26.11 22.46 24.24 22.46L24.24 22.46Q22.46 22.46 21.20 21.62Q19.94 20.78 19.30 19.30Q18.65 17.81 18.65 15.84L18.65 15.84Q18.65 12.77 20.16 11.00Q21.67 9.24 24.36 9.24L24.36 9.24Q26.23 9.24 27.46 10.09Q28.68 10.94 29.29 12.42Q29.90 13.90 29.90 15.84ZM19.80 15.84L19.80 15.84Q19.80 17.52 20.28 18.79Q20.76 20.06 21.76 20.77Q22.75 21.48 24.26 21.48L24.26 21.48Q25.80 21.48 26.80 20.77Q27.79 20.06 28.27 18.78Q28.75 17.50 28.75 15.84L28.75 15.84Q28.75 14.23 28.30 12.97Q27.84 11.71 26.88 10.98Q25.92 10.25 24.34 10.25L24.34 10.25Q22.10 10.25 20.95 11.74Q19.80 13.22 19.80 15.84ZM36.79 21.48L36.79 21.48Q37.37 21.48 37.84 21.40Q38.30 21.31 38.66 21.19L38.66 21.19L38.66 22.13Q38.30 22.27 37.80 22.37Q37.30 22.46 36.67 22.46L36.67 22.46Q35.62 22.46 34.91 22.06Q34.20 21.65 33.84 20.82Q33.48 19.99 33.48 18.74L33.48 18.74L33.48 10.44L31.58 10.44L31.58 9.74L33.48 9.41L33.86 6.41L34.61 6.41L34.61 9.48L38.59 9.48L38.59 10.44L34.61 10.44L34.61 18.67Q34.61 20.04 35.11 20.76Q35.62 21.48 36.79 21.48ZM51.94 15.84L51.94 15.84Q51.94 17.78 51.30 19.28Q50.66 20.78 49.40 21.62Q48.14 22.46 46.27 22.46L46.27 22.46Q44.50 22.46 43.24 21.62Q41.98 20.78 41.33 19.30Q40.68 17.81 40.68 15.84L40.68 15.84Q40.68 12.77 42.19 11.00Q43.70 9.24 46.39 9.24L46.39 9.24Q48.26 9.24 49.49 10.09Q50.71 10.94 51.32 12.42Q51.94 13.90 51.94 15.84ZM41.83 15.84L41.83 15.84Q41.83 17.52 42.31 18.79Q42.79 20.06 43.79 20.77Q44.78 21.48 46.30 21.48L46.30 21.48Q47.83 21.48 48.83 20.77Q49.82 20.06 50.30 18.78Q50.78 17.50 50.78 15.84L50.78 15.84Q50.78 14.23 50.33 12.97Q49.87 11.71 48.91 10.98Q47.95 10.25 46.37 10.25L46.37 10.25Q44.14 10.25 42.98 11.74Q41.83 13.22 41.83 15.84ZM71.88 17.81L71.88 17.81Q71.88 19.34 71.11 20.39Q70.34 21.43 69.01 21.95Q67.68 22.46 66.02 22.46L66.02 22.46Q64.97 22.46 64.13 22.36Q63.29 22.25 62.60 22.09Q61.92 21.94 61.34 21.72L61.34 21.72L61.34 20.57Q62.28 20.93 63.47 21.18Q64.66 21.43 66.10 21.43L66.10 21.43Q67.42 21.43 68.47 21.05Q69.53 20.66 70.13 19.87Q70.73 19.08 70.73 17.86L70.73 17.86Q70.73 16.78 70.22 16.10Q69.72 15.43 68.72 14.94Q67.73 14.45 66.22 13.94L66.22 13.94Q64.80 13.46 63.74 12.90Q62.69 12.34 62.12 11.45Q61.56 10.56 61.56 9.19L61.56 9.19Q61.56 7.78 62.28 6.80Q63.00 5.83 64.24 5.34Q65.47 4.85 67.01 4.85L67.01 4.85Q68.23 4.85 69.34 5.08Q70.44 5.30 71.47 5.76L71.47 5.76L71.06 6.74Q70.03 6.29 69 6.08Q67.97 5.88 66.96 5.88L66.96 5.88Q65.76 5.88 64.80 6.24Q63.84 6.60 63.28 7.32Q62.71 8.04 62.71 9.17L62.71 9.17Q62.71 10.32 63.23 11.02Q63.74 11.71 64.70 12.17Q65.66 12.62 66.94 13.06L66.94 13.06Q68.47 13.56 69.58 14.12Q70.68 14.69 71.28 15.55Q71.88 16.42 71.88 17.81ZM79.66 9.26L79.66 9.26Q81.74 9.26 82.78 10.32Q83.81 11.38 83.81 13.70L83.81 13.70L83.81 22.22L82.94 22.22L82.75 19.97L82.68 19.97Q82.27 20.69 81.68 21.25Q81.10 21.82 80.24 22.14Q79.39 22.46 78.17 22.46L78.17 22.46Q76.32 22.46 75.29 21.55Q74.26 20.64 74.26 18.96L74.26 18.96Q74.26 17.06 75.83 16.08Q77.40 15.10 80.33 14.95L80.33 14.95L82.70 14.83L82.70 13.90Q82.70 11.93 81.94 11.09Q81.17 10.25 79.61 10.25L79.61 10.25Q78.65 10.25 77.74 10.49Q76.82 10.73 75.89 11.21L75.89 11.21L75.53 10.27Q76.44 9.82 77.48 9.54Q78.53 9.26 79.66 9.26ZM82.70 15.72L80.45 15.84Q78.02 15.94 76.73 16.69Q75.43 17.45 75.43 18.98L75.43 18.98Q75.43 20.18 76.20 20.84Q76.97 21.50 78.34 21.50L78.34 21.50Q80.47 21.50 81.58 20.29Q82.68 19.08 82.70 16.99L82.70 16.99L82.70 15.72ZM93.48 9.24L93.48 9.24Q95.64 9.24 96.78 10.37Q97.92 11.50 97.92 13.90L97.92 13.90L97.92 22.22L96.82 22.22L96.82 13.97Q96.82 12.02 95.93 11.14Q95.04 10.25 93.38 10.25L93.38 10.25Q91.30 10.25 90.17 11.47Q89.04 12.70 89.04 15.17L89.04 15.17L89.04 22.22L87.91 22.22L87.91 9.48L88.82 9.48L88.99 11.86L89.06 11.86Q89.40 11.14 89.99 10.55Q90.58 9.96 91.45 9.60Q92.33 9.24 93.48 9.24ZM109.97 18.89L109.97 18.89Q109.97 20.02 109.40 20.82Q108.84 21.62 107.75 22.04Q106.66 22.46 105.07 22.46L105.07 22.46Q103.75 22.46 102.71 22.22Q101.66 21.98 100.94 21.65L100.94 21.65L100.94 20.52Q101.86 20.95 102.92 21.23Q103.99 21.50 105.10 21.50L105.10 21.50Q107.09 21.50 107.96 20.82Q108.84 20.14 108.84 18.96L108.84 18.96Q108.84 18.17 108.41 17.66Q107.98 17.16 107.17 16.80Q106.37 16.44 105.24 16.08L105.24 16.08Q104.09 15.70 103.18 15.30Q102.26 14.90 101.74 14.26Q101.21 13.61 101.21 12.48L101.21 12.48Q101.21 10.94 102.44 10.09Q103.68 9.24 105.74 9.24L105.74 9.24Q106.87 9.24 107.87 9.46Q108.86 9.67 109.66 10.01L109.66 10.01L109.25 10.97Q108.53 10.63 107.58 10.43Q106.63 10.22 105.70 10.22L105.70 10.22Q104.11 10.22 103.21 10.79Q102.31 11.35 102.31 12.43L102.31 12.43Q102.31 13.27 102.74 13.74Q103.18 14.21 103.98 14.52Q104.78 14.83 105.82 15.19L105.82 15.19Q106.94 15.58 107.88 15.98Q108.82 16.39 109.39 17.06Q109.97 17.74 109.97 18.89ZM129.62 17.81L129.62 17.81Q129.62 19.34 128.86 20.39Q128.09 21.43 126.76 21.95Q125.42 22.46 123.77 22.46L123.77 22.46Q122.71 22.46 121.87 22.36Q121.03 22.25 120.35 22.09Q119.66 21.94 119.09 21.72L119.09 21.72L119.09 20.57Q120.02 20.93 121.21 21.18Q122.40 21.43 123.84 21.43L123.84 21.43Q125.16 21.43 126.22 21.05Q127.27 20.66 127.87 19.87Q128.47 19.08 128.47 17.86L128.47 17.86Q128.47 16.78 127.97 16.10Q127.46 15.43 126.47 14.94Q125.47 14.45 123.96 13.94L123.96 13.94Q122.54 13.46 121.49 12.90Q120.43 12.34 119.87 11.45Q119.30 10.56 119.30 9.19L119.30 9.19Q119.30 7.78 120.02 6.80Q120.74 5.83 121.98 5.34Q123.22 4.85 124.75 4.85L124.75 4.85Q125.98 4.85 127.08 5.08Q128.18 5.30 129.22 5.76L129.22 5.76L128.81 6.74Q127.78 6.29 126.74 6.08Q125.71 5.88 124.70 5.88L124.70 5.88Q123.50 5.88 122.54 6.24Q121.58 6.60 121.02 7.32Q120.46 8.04 120.46 9.17L120.46 9.17Q120.46 10.32 120.97 11.02Q121.49 11.71 122.45 12.17Q123.41 12.62 124.68 13.06L124.68 13.06Q126.22 13.56 127.32 14.12Q128.42 14.69 129.02 15.55Q129.62 16.42 129.62 17.81ZM135.82 22.15L130.87 9.48L132.07 9.48L135.19 17.62Q135.60 18.72 135.89 19.54Q136.18 20.35 136.34 20.95L136.34 20.95L136.42 20.95Q136.58 20.40 136.87 19.56Q137.16 18.72 137.54 17.69L137.54 17.69L140.64 9.48L141.84 9.48L136.01 24.65Q135.60 25.75 135.10 26.51Q134.59 27.26 133.92 27.65Q133.25 28.03 132.31 28.03L132.31 28.03Q131.90 28.03 131.54 27.97Q131.18 27.91 130.87 27.82L130.87 27.82L130.87 26.83Q131.18 26.93 131.50 26.99Q131.81 27.05 132.19 27.05L132.19 27.05Q133.18 27.05 133.80 26.42Q134.42 25.80 134.95 24.43L134.95 24.43L135.82 22.15ZM148.92 9.29L148.92 9.29Q149.42 9.29 149.88 9.35Q150.34 9.41 150.72 9.50L150.72 9.50L150.53 10.54Q150.12 10.44 149.74 10.38Q149.35 10.32 148.87 10.32L148.87 10.32Q147.67 10.32 146.81 10.92Q145.94 11.52 145.50 12.61Q145.06 13.70 145.06 15.19L145.06 15.19L145.06 22.22L143.93 22.22L143.93 9.48L144.89 9.48L145.01 11.88L145.06 11.88Q145.49 10.80 146.47 10.04Q147.46 9.29 148.92 9.29ZM153.22 9.48L154.34 9.48L154.34 22.22L153.22 22.22L153.22 9.48ZM153.79 4.80L153.79 4.80Q154.25 4.80 154.44 5.05Q154.63 5.30 154.63 5.74L154.63 5.74Q154.63 6.17 154.44 6.42Q154.25 6.67 153.79 6.67L153.79 6.67Q153.38 6.67 153.18 6.42Q152.98 6.17 152.98 5.74L152.98 5.74Q152.98 5.30 153.18 5.05Q153.38 4.80 153.79 4.80ZM163.01 9.26L163.01 9.26Q165.10 9.26 166.13 10.32Q167.16 11.38 167.16 13.70L167.16 13.70L167.16 22.22L166.30 22.22L166.10 19.97L166.03 19.97Q165.62 20.69 165.04 21.25Q164.45 21.82 163.60 22.14Q162.74 22.46 161.52 22.46L161.52 22.46Q159.67 22.46 158.64 21.55Q157.61 20.64 157.61 18.96L157.61 18.96Q157.61 17.06 159.18 16.08Q160.75 15.10 163.68 14.95L163.68 14.95L166.06 14.83L166.06 13.90Q166.06 11.93 165.29 11.09Q164.52 10.25 162.96 10.25L162.96 10.25Q162 10.25 161.09 10.49Q160.18 10.73 159.24 11.21L159.24 11.21L158.88 10.27Q159.79 9.82 160.84 9.54Q161.88 9.26 163.01 9.26ZM166.06 15.72L163.80 15.84Q161.38 15.94 160.08 16.69Q158.78 17.45 158.78 18.98L158.78 18.98Q158.78 20.18 159.55 20.84Q160.32 21.50 161.69 21.50L161.69 21.50Q163.82 21.50 164.93 20.29Q166.03 19.08 166.06 16.99L166.06 16.99L166.06 15.72ZM176.38 22.46L176.38 22.46Q174.48 22.46 173.17 21.66Q171.86 20.86 171.20 19.39Q170.54 17.93 170.54 15.94L170.54 15.94Q170.54 13.85 171.31 12.35Q172.08 10.85 173.46 10.04Q174.84 9.24 176.71 9.24L176.71 9.24Q177.60 9.24 178.38 9.41Q179.16 9.58 179.81 9.86L179.81 9.86L179.50 10.85Q178.82 10.56 178.10 10.42Q177.38 10.27 176.69 10.27L176.69 10.27Q175.10 10.27 173.99 10.97Q172.87 11.66 172.28 12.94Q171.70 14.21 171.70 15.91L171.70 15.91Q171.70 17.52 172.19 18.78Q172.68 20.04 173.71 20.75Q174.74 21.46 176.38 21.46L176.38 21.46Q177.31 21.46 178.14 21.28Q178.97 21.10 179.66 20.78L179.66 20.78L179.66 21.82Q179.04 22.08 178.22 22.27Q177.41 22.46 176.38 22.46ZM199.06 21.19L199.06 22.22L189.70 22.22L189.70 5.09L199.06 5.09L199.06 6.12L190.82 6.12L190.82 12.70L198.58 12.70L198.58 13.73L190.82 13.73L190.82 21.19L199.06 21.19ZM207.05 9.26L207.05 9.26Q209.14 9.26 210.17 10.32Q211.20 11.38 211.20 13.70L211.20 13.70L211.20 22.22L210.34 22.22L210.14 19.97L210.07 19.97Q209.66 20.69 209.08 21.25Q208.49 21.82 207.64 22.14Q206.78 22.46 205.56 22.46L205.56 22.46Q203.71 22.46 202.68 21.55Q201.65 20.64 201.65 18.96L201.65 18.96Q201.65 17.06 203.22 16.08Q204.79 15.10 207.72 14.95L207.72 14.95L210.10 14.83L210.10 13.90Q210.10 11.93 209.33 11.09Q208.56 10.25 207.00 10.25L207.00 10.25Q206.04 10.25 205.13 10.49Q204.22 10.73 203.28 11.21L203.28 11.21L202.92 10.27Q203.83 9.82 204.88 9.54Q205.92 9.26 207.05 9.26ZM210.10 15.72L207.84 15.84Q205.42 15.94 204.12 16.69Q202.82 17.45 202.82 18.98L202.82 18.98Q202.82 20.18 203.59 20.84Q204.36 21.50 205.73 21.50L205.73 21.50Q207.86 21.50 208.97 20.29Q210.07 19.08 210.10 16.99L210.10 16.99L210.10 15.72ZM223.25 18.89L223.25 18.89Q223.25 20.02 222.68 20.82Q222.12 21.62 221.03 22.04Q219.94 22.46 218.35 22.46L218.35 22.46Q217.03 22.46 215.99 22.22Q214.94 21.98 214.22 21.65L214.22 21.65L214.22 20.52Q215.14 20.95 216.20 21.23Q217.27 21.50 218.38 21.50L218.38 21.50Q220.37 21.50 221.24 20.82Q222.12 20.14 222.12 18.96L222.12 18.96Q222.12 18.17 221.69 17.66Q221.26 17.16 220.45 16.80Q219.65 16.44 218.52 16.08L218.52 16.08Q217.37 15.70 216.46 15.30Q215.54 14.90 215.02 14.26Q214.49 13.61 214.49 12.48L214.49 12.48Q214.49 10.94 215.72 10.09Q216.96 9.24 219.02 9.24L219.02 9.24Q220.15 9.24 221.15 9.46Q222.14 9.67 222.94 10.01L222.94 10.01L222.53 10.97Q221.81 10.63 220.86 10.43Q219.91 10.22 218.98 10.22L218.98 10.22Q217.39 10.22 216.49 10.79Q215.59 11.35 215.59 12.43L215.59 12.43Q215.59 13.27 216.02 13.74Q216.46 14.21 217.26 14.52Q218.06 14.83 219.10 15.19L219.10 15.19Q220.22 15.58 221.16 15.98Q222.10 16.39 222.67 17.06Q223.25 17.74 223.25 18.89ZM229.85 21.48L229.85 21.48Q230.42 21.48 230.89 21.40Q231.36 21.31 231.72 21.19L231.72 21.19L231.72 22.13Q231.36 22.27 230.86 22.37Q230.35 22.46 229.73 22.46L229.73 22.46Q228.67 22.46 227.96 22.06Q227.26 21.65 226.90 20.82Q226.54 19.99 226.54 18.74L226.54 18.74L226.54 10.44L224.64 10.44L224.64 9.74L226.54 9.41L226.92 6.41L227.66 6.41L227.66 9.48L231.65 9.48L231.65 10.44L227.66 10.44L227.66 18.67Q227.66 20.04 228.17 20.76Q228.67 21.48 229.85 21.48ZM239.28 9.24L239.28 9.24Q240.91 9.24 241.98 10.01Q243.05 10.78 243.58 12.11Q244.10 13.44 244.10 15.14L244.10 15.14L244.10 15.96L234.89 15.96Q234.89 18.62 236.11 20.04Q237.34 21.46 239.62 21.46L239.62 21.46Q240.79 21.46 241.66 21.28Q242.52 21.10 243.60 20.62L243.60 20.62L243.60 21.65Q242.66 22.08 241.73 22.27Q240.79 22.46 239.59 22.46L239.59 22.46Q237.65 22.46 236.34 21.66Q235.03 20.86 234.38 19.38Q233.74 17.90 233.74 15.96L233.74 15.96Q233.74 14.06 234.37 12.54Q235.01 11.02 236.24 10.13Q237.48 9.24 239.28 9.24ZM239.26 10.22L239.26 10.22Q237.41 10.22 236.27 11.45Q235.13 12.67 234.91 15L234.91 15L242.95 15Q242.95 12.86 242.05 11.54Q241.15 10.22 239.26 10.22ZM252.62 9.29L252.62 9.29Q253.13 9.29 253.58 9.35Q254.04 9.41 254.42 9.50L254.42 9.50L254.23 10.54Q253.82 10.44 253.44 10.38Q253.06 10.32 252.58 10.32L252.58 10.32Q251.38 10.32 250.51 10.92Q249.65 11.52 249.20 12.61Q248.76 13.70 248.76 15.19L248.76 15.19L248.76 22.22L247.63 22.22L247.63 9.48L248.59 9.48L248.71 11.88L248.76 11.88Q249.19 10.80 250.18 10.04Q251.16 9.29 252.62 9.29ZM262.49 9.24L262.49 9.24Q264.65 9.24 265.79 10.37Q266.93 11.50 266.93 13.90L266.93 13.90L266.93 22.22L265.82 22.22L265.82 13.97Q265.82 12.02 264.94 11.14Q264.05 10.25 262.39 10.25L262.39 10.25Q260.30 10.25 259.18 11.47Q258.05 12.70 258.05 15.17L258.05 15.17L258.05 22.22L256.92 22.22L256.92 9.48L257.83 9.48L258 11.86L258.07 11.86Q258.41 11.14 259.00 10.55Q259.58 9.96 260.46 9.60Q261.34 9.24 262.49 9.24ZM287.66 21.19L287.66 22.22L276.96 22.22L276.96 21.26L282.05 15.96Q283.27 14.71 284.09 13.70Q284.90 12.70 285.32 11.66Q285.74 10.63 285.74 9.36L285.74 9.36Q285.74 7.70 284.77 6.78Q283.80 5.86 282.12 5.86L282.12 5.86Q281.02 5.86 279.98 6.25Q278.95 6.65 277.99 7.42L277.99 7.42L277.37 6.62Q278.09 6.02 278.88 5.64Q279.67 5.26 280.50 5.05Q281.33 4.85 282.12 4.85L282.12 4.85Q283.58 4.85 284.65 5.41Q285.72 5.98 286.31 6.97Q286.90 7.97 286.90 9.34L286.90 9.34Q286.90 10.73 286.42 11.88Q285.94 13.03 285.06 14.11Q284.18 15.19 282.96 16.44L282.96 16.44L278.42 21.14L278.42 21.19L287.66 21.19ZM301.63 13.61L301.63 13.61Q301.63 16.49 301.06 18.46Q300.48 20.42 299.27 21.44Q298.06 22.46 296.18 22.46L296.18 22.46Q293.52 22.46 292.13 20.23Q290.74 18 290.74 13.61L290.74 13.61Q290.74 11.02 291.26 9.04Q291.79 7.06 293.00 5.94Q294.22 4.82 296.21 4.82L296.21 4.82Q298.20 4.82 299.39 5.92Q300.58 7.01 301.10 8.99Q301.63 10.97 301.63 13.61ZM291.86 13.61L291.86 13.61Q291.86 17.59 292.92 19.52Q293.98 21.46 296.18 21.46L296.18 21.46Q298.46 21.46 299.48 19.52Q300.50 17.59 300.50 13.61L300.50 13.61Q300.50 11.18 300.12 9.44Q299.74 7.70 298.80 6.77Q297.86 5.83 296.21 5.83L296.21 5.83Q294.58 5.83 293.63 6.79Q292.68 7.75 292.27 9.49Q291.86 11.23 291.86 13.61ZM315.34 13.61L315.34 13.61Q315.34 16.49 314.76 18.46Q314.18 20.42 312.97 21.44Q311.76 22.46 309.89 22.46L309.89 22.46Q307.22 22.46 305.83 20.23Q304.44 18 304.44 13.61L304.44 13.61Q304.44 11.02 304.97 9.04Q305.50 7.06 306.71 5.94Q307.92 4.82 309.91 4.82L309.91 4.82Q311.90 4.82 313.09 5.92Q314.28 7.01 314.81 8.99Q315.34 10.97 315.34 13.61ZM305.57 13.61L305.57 13.61Q305.57 17.59 306.62 19.52Q307.68 21.46 309.89 21.46L309.89 21.46Q312.17 21.46 313.19 19.52Q314.21 17.59 314.21 13.61L314.21 13.61Q314.21 11.18 313.82 9.44Q313.44 7.70 312.50 6.77Q311.57 5.83 309.91 5.83L309.91 5.83Q308.28 5.83 307.33 6.79Q306.38 7.75 305.98 9.49Q305.57 11.23 305.57 13.61ZM331.15 9.24L331.15 9.24Q333.31 9.24 334.45 10.37Q335.59 11.50 335.59 13.90L335.59 13.90L335.59 22.22L334.49 22.22L334.49 13.97Q334.49 12.02 333.60 11.14Q332.71 10.25 331.06 10.25L331.06 10.25Q328.97 10.25 327.84 11.47Q326.71 12.70 326.71 15.17L326.71 15.17L326.71 22.22L325.58 22.22L325.58 9.48L326.50 9.48L326.66 11.86L326.74 11.86Q327.07 11.14 327.66 10.55Q328.25 9.96 329.12 9.60Q330.00 9.24 331.15 9.24ZM350.23 15.84L350.23 15.84Q350.23 17.78 349.60 19.28Q348.96 20.78 347.70 21.62Q346.44 22.46 344.57 22.46L344.57 22.46Q342.79 22.46 341.53 21.62Q340.27 20.78 339.62 19.30Q338.98 17.81 338.98 15.84L338.98 15.84Q338.98 12.77 340.49 11.00Q342.00 9.24 344.69 9.24L344.69 9.24Q346.56 9.24 347.78 10.09Q349.01 10.94 349.62 12.42Q350.23 13.90 350.23 15.84ZM340.13 15.84L340.13 15.84Q340.13 17.52 340.61 18.79Q341.09 20.06 342.08 20.77Q343.08 21.48 344.59 21.48L344.59 21.48Q346.13 21.48 347.12 20.77Q348.12 20.06 348.60 18.78Q349.08 17.50 349.08 15.84L349.08 15.84Q349.08 14.23 348.62 12.97Q348.17 11.71 347.21 10.98Q346.25 10.25 344.66 10.25L344.66 10.25Q342.43 10.25 341.28 11.74Q340.13 13.22 340.13 15.84ZM358.75 9.29L358.75 9.29Q359.26 9.29 359.71 9.35Q360.17 9.41 360.55 9.50L360.55 9.50L360.36 10.54Q359.95 10.44 359.57 10.38Q359.18 10.32 358.70 10.32L358.70 10.32Q357.50 10.32 356.64 10.92Q355.78 11.52 355.33 12.61Q354.89 13.70 354.89 15.19L354.89 15.19L354.89 22.22L353.76 22.22L353.76 9.48L354.72 9.48L354.84 11.88L354.89 11.88Q355.32 10.80 356.30 10.04Q357.29 9.29 358.75 9.29ZM376.15 9.24L376.15 9.24Q377.95 9.24 379.02 10.31Q380.09 11.38 380.09 13.66L380.09 13.66L380.09 22.22L378.98 22.22L378.98 13.70Q378.98 11.93 378.17 11.09Q377.35 10.25 376.03 10.25L376.03 10.25Q374.21 10.25 373.16 11.30Q372.12 12.36 372.12 14.66L372.12 14.66L372.12 22.22L371.02 22.22L371.02 13.70Q371.02 11.93 370.20 11.09Q369.38 10.25 368.06 10.25L368.06 10.25Q366.89 10.25 366.01 10.73Q365.14 11.21 364.66 12.22Q364.18 13.22 364.18 14.81L364.18 14.81L364.18 22.22L363.05 22.22L363.05 9.48L363.96 9.48L364.13 11.62L364.20 11.62Q364.51 10.99 365.03 10.45Q365.54 9.91 366.32 9.58Q367.10 9.24 368.18 9.24L368.18 9.24Q369.55 9.24 370.51 9.86Q371.47 10.49 371.83 11.71L371.83 11.71L371.90 11.71Q372.43 10.56 373.51 9.90Q374.59 9.24 376.15 9.24ZM388.58 9.26L388.58 9.26Q390.67 9.26 391.70 10.32Q392.74 11.38 392.74 13.70L392.74 13.70L392.74 22.22L391.87 22.22L391.68 19.97L391.61 19.97Q391.20 20.69 390.61 21.25Q390.02 21.82 389.17 22.14Q388.32 22.46 387.10 22.46L387.10 22.46Q385.25 22.46 384.22 21.55Q383.18 20.64 383.18 18.96L383.18 18.96Q383.18 17.06 384.76 16.08Q386.33 15.10 389.26 14.95L389.26 14.95L391.63 14.83L391.63 13.90Q391.63 11.93 390.86 11.09Q390.10 10.25 388.54 10.25L388.54 10.25Q387.58 10.25 386.66 10.49Q385.75 10.73 384.82 11.21L384.82 11.21L384.46 10.27Q385.37 9.82 386.41 9.54Q387.46 9.26 388.58 9.26ZM391.63 15.72L389.38 15.84Q386.95 15.94 385.66 16.69Q384.36 17.45 384.36 18.98L384.36 18.98Q384.36 20.18 385.13 20.84Q385.90 21.50 387.26 21.50L387.26 21.50Q389.40 21.50 390.50 20.29Q391.61 19.08 391.63 16.99L391.63 16.99L391.63 15.72ZM397.99 3.98L397.99 22.22L396.86 22.22L396.86 3.98L397.99 3.98Z"/></svg>