<svg xmlns="http://www.w3.org/2000/svg" xmlns:xlink="http://www.w3.org/1999/xlink" width="227.66399999999996" height="26.400000000000002"><path fill="black" d="M6.66 21.60L3.28 21.60L6.13 8.20L1.97 8.20L2.69 4.80L14.40 4.80L13.68 8.20L9.52 8.20L6.66 21.60ZM6.76 7.67L3.91 21.08L6.25 21.08L9.10 7.67L13.27 7.67L13.78 5.32L3.08 5.32L2.58 7.67L6.76 7.67ZM21.38 21.60L13.88 21.60L11.94 19.13L13.64 11.11L16.64 8.64L24.14 8.64L26.09 11.11L24.38 19.13L21.38 21.60ZM12.53 18.86L14.27 21.07L21.25 21.07L23.90 18.89L25.51 11.35L23.78 9.16L16.79 9.16L14.12 11.35L12.53 18.86ZM20.58 18.73L15.95 18.73L15.12 17.69L16.22 12.53L17.46 11.51L22.10 11.51L22.92 12.53L21.82 17.71L20.58 18.73ZM15.68 17.47L16.26 18.20L20.45 18.20L21.34 17.47L22.34 12.77L21.77 12.04L17.58 12.04L16.69 12.77L15.68 17.47ZM35.81 21.60L28.97 21.60L27.02 19.13L29.26 8.64L32.65 8.64L30.77 17.47L31.34 18.20L34.87 18.20L35.76 17.47L37.64 8.64L41.04 8.64L38.81 19.13L35.81 21.60ZM27.60 18.86L29.34 21.07L35.68 21.07L38.34 18.86L40.40 9.16L38.06 9.16L36.25 17.69L35.00 18.73L31.03 18.73L30.20 17.69L32.02 9.16L29.66 9.16L27.60 18.86ZM48.97 21.60L40.92 21.60L41.64 18.22L43.97 18.22L45.25 12.20L45.11 12.02L42.98 12.02L43.70 8.64L46.74 8.64L47.35 9.60L48.48 8.64L53.15 8.64L55.21 11.27L52.06 13.81L50.78 12.04L49.42 12.04L48.53 12.77L47.36 18.23L49.69 18.23L48.97 21.60ZM42.05 18.74L41.56 21.07L48.58 21.07L49.07 18.74L46.73 18.74L48.06 12.50L49.25 11.52L51.16 11.52L52.28 13.07L54.48 11.28L52.82 9.17L48.58 9.17L47.20 10.33L46.40 9.17L44.09 9.17L43.60 11.51L45.42 11.51L45.80 12.05L44.38 18.74L42.05 18.74ZM58.08 21.60L54.70 21.60L56.93 11.11L59.93 8.64L66.50 8.64L68.45 11.11L66.22 21.60L62.83 21.60L64.72 12.77L64.14 12.04L60.85 12.04L59.96 12.77L58.08 21.60ZM57.41 11.35L55.34 21.07L57.67 21.07L59.50 12.53L60.73 11.51L64.48 11.51L65.29 12.53L63.47 21.07L65.81 21.07L67.87 11.35L66.14 9.16L60.07 9.16L57.41 11.35ZM74.09 8.64L81.54 8.64L83.48 11.11L82.75 14.53L79.76 17.00L73.24 17.00L73.13 17.47L73.70 18.20L81.80 18.20L81.08 21.60L71.33 21.60L69.38 19.13L71.09 11.11L74.09 8.64ZM74.89 11.51L79.50 11.51L80.32 12.53L80.12 13.44L79.14 14.26L73.27 14.26L73.63 12.55L74.89 11.51ZM82.91 11.35L81.18 9.17L74.22 9.17L71.53 11.38L69.94 18.89L71.66 21.08L80.65 21.08L81.14 18.74L73.34 18.74L72.53 17.71L72.79 16.50L79.63 16.50L82.27 14.33L82.91 11.35ZM79.75 12.77L79.16 12.04L75.02 12.04L74.14 12.77L73.93 13.73L79.04 13.73L79.66 13.22L79.75 12.77ZM91.93 21.60L86.38 21.60L84.43 19.13L86.65 8.64L90.05 8.64L88.18 17.47L88.75 18.20L91.69 18.20L93.14 17.00L94.92 8.64L98.30 8.64L95.05 23.93L92.06 26.40L83.48 26.40L84.20 23.02L90.90 23.02L92.08 22.04L92.22 21.36L91.93 21.60ZM84.66 23.54L84.16 25.90L91.90 25.90L94.60 23.64L97.68 9.16L95.35 9.16L93.64 17.20L91.76 18.72L88.40 18.72L87.60 17.70L89.42 9.16L87.07 9.16L85.01 18.88L86.72 21.07L91.86 21.07L93.01 20.12L92.54 22.28L91.03 23.54L84.66 23.54ZM115.84 21.60L104.68 21.60L106.15 14.68L109.15 12.20L113.72 12.20L114.61 11.47L115.15 8.93L114.58 8.20L111.65 8.20L110.76 8.93L110.39 10.64L107.00 10.64L107.72 7.27L110.72 4.80L116.94 4.80L118.88 7.27L117.64 13.13L114.64 15.60L110.06 15.60L109.19 16.33L108.78 18.20L116.56 18.20L115.84 21.60ZM106.62 14.92L105.32 21.07L115.40 21.07L115.91 18.73L108.17 18.73L108.73 16.08L109.97 15.06L114.50 15.06L117.19 12.86L118.33 7.50L116.59 5.30L110.87 5.30L108.20 7.50L107.65 10.13L109.99 10.13L110.30 8.68L111.54 7.66L114.92 7.66L115.73 8.68L115.08 11.69L113.84 12.72L109.30 12.72L106.62 14.92ZM126.86 21.60L120.11 21.60L118.16 19.13L120.68 7.27L123.68 4.80L130.44 4.80L132.38 7.27L129.86 19.13L126.86 21.60ZM128.38 11.22L122.96 18.20L126.17 18.20L127.06 17.47L128.38 11.22ZM126.28 18.72L122.33 18.72L122.29 18.32L128.81 9.89L129.14 10.00L127.51 17.70L126.28 18.72ZM118.72 18.88L120.44 21.06L126.74 21.06L129.40 18.88L131.82 7.50L130.09 5.32L123.79 5.32L121.14 7.50L118.72 18.88ZM121.76 16.28L121.45 16.19L123.05 8.68L124.27 7.67L128.09 7.67L128.11 8.05L121.76 16.28ZM123.49 8.93L122.22 14.92L127.43 8.20L124.39 8.20L123.49 8.93ZM140.36 21.60L133.61 21.60L131.66 19.13L134.18 7.27L137.18 4.80L143.94 4.80L145.88 7.27L143.36 19.13L140.36 21.60ZM141.88 11.22L136.46 18.20L139.67 18.20L140.56 17.47L141.88 11.22ZM139.78 18.72L135.83 18.72L135.79 18.32L142.31 9.89L142.64 10.00L141.01 17.70L139.78 18.72ZM132.22 18.88L133.94 21.06L140.24 21.06L142.90 18.88L145.32 7.50L143.59 5.32L137.29 5.32L134.64 7.50L132.22 18.88ZM135.26 16.28L134.95 16.19L136.55 8.68L137.77 7.67L141.59 7.67L141.61 8.05L135.26 16.28ZM136.99 8.93L135.72 14.92L140.93 8.20L137.89 8.20L136.99 8.93ZM161.82 6.76L157.96 6.76L158.62 3.60L162.48 3.60L161.82 6.76ZM159.08 4.07L158.62 6.25L161.35 6.25L161.82 4.07L159.08 4.07ZM161.87 21.60L152.08 21.60L152.80 18.20L156 18.20L157.31 12.04L154.10 12.04L154.82 8.64L161.41 8.64L159.38 18.20L162.59 18.20L161.87 21.60ZM153.20 18.73L152.70 21.07L161.45 21.07L161.95 18.73L158.72 18.73L160.75 9.16L155.23 9.16L154.74 11.51L157.93 11.51L156.38 18.73L153.20 18.73ZM172.22 21.60L165.94 21.60L167.98 12.02L164.99 12.02L165.71 8.64L168.70 8.64L169.39 5.35L172.79 5.35L172.09 8.64L175.07 8.64L174.35 12.02L171.37 12.02L170.05 18.20L172.94 18.20L172.22 21.60ZM168.61 11.50L166.57 21.07L171.82 21.07L172.31 18.74L169.42 18.74L170.95 11.50L173.94 11.50L174.43 9.16L171.46 9.16L172.15 5.87L169.80 5.87L169.10 9.16L166.12 9.16L165.61 11.50L168.61 11.50ZM184.87 21.60L177.42 21.60L175.48 19.13L176.21 15.71L179.20 13.24L185.72 13.24L185.83 12.77L185.26 12.04L177.16 12.04L177.88 8.64L187.63 8.64L189.58 11.11L187.87 19.13L184.87 21.60ZM184.07 18.73L179.46 18.73L178.64 17.71L178.84 16.80L179.82 15.98L185.69 15.98L185.33 17.69L184.07 18.73ZM176.05 18.89L177.78 21.07L184.74 21.07L187.43 18.86L189.02 11.35L187.30 9.16L178.31 9.16L177.82 11.50L185.62 11.50L186.43 12.53L186.17 13.74L179.33 13.74L176.69 15.91L176.05 18.89ZM179.21 17.47L179.80 18.20L183.94 18.20L184.82 17.47L185.03 16.51L179.92 16.51L179.30 17.02L179.21 17.47ZM199.08 21.60L189.22 21.60L189.94 18.20L193.18 18.20L195.55 7.00L192.31 7.00L193.03 3.60L199.66 3.60L196.56 18.20L199.80 18.20L199.08 21.60ZM190.34 18.73L189.84 21.07L198.66 21.07L199.16 18.73L195.91 18.73L199.02 4.12L193.45 4.12L192.95 6.47L196.19 6.47L193.57 18.73L190.34 18.73ZM210.70 6.76L206.83 6.76L207.49 3.60L211.36 3.60L210.70 6.76ZM207.96 4.07L207.49 6.25L210.23 6.25L210.70 4.07L207.96 4.07ZM210.74 21.60L200.95 21.60L201.67 18.20L204.88 18.20L206.18 12.04L202.98 12.04L203.70 8.64L210.29 8.64L208.26 18.20L211.46 18.20L210.74 21.60ZM202.08 18.73L201.58 21.07L210.32 21.07L210.83 18.73L207.60 18.73L209.63 9.16L204.11 9.16L203.62 11.51L206.81 11.51L205.26 18.73L202.08 18.73ZM224.24 21.60L215.08 21.60L213.13 19.13L214.84 11.11L217.84 8.64L227.00 8.64L226.28 12.04L218.77 12.04L217.88 12.77L216.88 17.47L217.45 18.20L224.96 18.20L224.24 21.60ZM213.71 18.88L215.46 21.07L223.84 21.07L224.34 18.73L217.14 18.73L216.31 17.69L217.40 12.53L218.65 11.50L225.86 11.50L226.37 9.16L217.98 9.16L215.32 11.35L213.71 18.88Z"/></svg>