<svg xmlns="http://www.w3.org/2000/svg" xmlns:xlink="http://www.w3.org/1999/xlink" width="303.24" height="28.8"><path fill="black" d="M4.56 18L0.18 18L4.44 2.66L10.91 2.66L15.12 18L10.74 18L7.81 5.51L7.54 5.51L4.56 18ZM11.08 14.68L4.20 14.68L4.20 11.36L11.08 11.36L11.08 14.68ZM28.15 18L23.90 18L23.90 11.21Q23.90 10.64 23.77 10.24Q23.63 9.83 23.29 9.61Q22.96 9.40 22.38 9.40L22.38 9.40Q21.94 9.40 21.59 9.55Q21.24 9.71 20.99 9.97Q20.75 10.22 20.60 10.55L20.60 10.55L19.96 8.80L20.64 8.80Q20.82 7.97 21.25 7.31Q21.67 6.66 22.43 6.28Q23.20 5.89 24.38 5.89L24.38 5.89Q25.68 5.89 26.51 6.40Q27.35 6.90 27.75 7.91Q28.15 8.93 28.15 10.48L28.15 10.48L28.15 18ZM20.65 18L16.40 18L16.40 6.18L20.63 6.18L20.50 9.22L20.65 9.65L20.65 18ZM36.44 18.31L36.44 18.31Q33.05 18.31 31.46 16.84Q29.87 15.36 29.87 12.52L29.87 12.52L29.87 11.59Q29.87 8.77 31.36 7.30Q32.86 5.82 35.72 5.82L35.72 5.82Q37.63 5.82 38.90 6.45Q40.18 7.08 40.82 8.26Q41.46 9.44 41.46 11.11L41.46 11.11L41.46 11.48Q41.46 11.96 41.42 12.46Q41.38 12.96 41.29 13.38L41.29 13.38L37.49 13.38Q37.54 12.65 37.55 12Q37.57 11.35 37.57 10.84L37.57 10.84Q37.57 10.21 37.38 9.79Q37.19 9.36 36.78 9.14Q36.37 8.92 35.72 8.92L35.72 8.92Q34.75 8.92 34.31 9.42Q33.88 9.92 33.88 10.85L33.88 10.85L33.88 11.92L33.90 12.37L33.90 13.12Q33.90 13.49 34.03 13.84Q34.16 14.18 34.52 14.45Q34.87 14.72 35.53 14.88Q36.18 15.04 37.22 15.04L37.22 15.04Q38.29 15.04 39.31 14.86Q40.33 14.69 41.28 14.38L41.28 14.38L40.94 17.46Q40.12 17.87 38.97 18.09Q37.82 18.31 36.44 18.31ZM40.44 13.38L32.11 13.38L32.11 10.88L40.44 10.88L40.44 13.38ZM55.66 18L50.72 18L47.60 13.00L46.74 13.00L46.74 10.69L47.60 10.69L50.66 6.18L55.50 6.18L51.30 12.11L51.30 11.33L55.66 18ZM47.47 18L43.25 18L43.25 2.17L47.47 2.17L47.47 18ZM68.04 18.35L68.04 18.35Q66.29 18.35 65.11 17.57Q63.94 16.80 63.35 15.34Q62.76 13.87 62.76 11.82L62.76 11.82L62.76 9.44Q62.76 5.93 64.68 4.12Q66.60 2.32 70.28 2.32L70.28 2.32Q71.36 2.32 72.31 2.45Q73.25 2.59 74.03 2.82Q74.82 3.05 75.42 3.34L75.42 3.34L75.78 6.95Q74.84 6.58 73.72 6.29Q72.60 6 71.16 6L71.16 6Q69.08 6 68.14 6.88Q67.19 7.75 67.19 9.73L67.19 9.73L67.19 11.87Q67.19 13.20 67.82 13.93Q68.45 14.66 69.83 14.66L69.83 14.66Q70.40 14.66 70.83 14.51Q71.26 14.36 71.55 14.11Q71.84 13.86 72.04 13.56L72.04 13.56L72.04 10.92L72.58 12.13L69.83 12.16L69.83 8.86L76.18 8.86L76.18 15.38L71.94 15.38Q71.76 16.25 71.35 16.91Q70.93 17.58 70.15 17.96Q69.36 18.35 68.04 18.35ZM71.98 18L72.10 14.86L76.18 14.86L76.18 18L71.98 18ZM78.30 6.18L82.55 6.18L82.55 12.97Q82.55 13.54 82.69 13.94Q82.82 14.35 83.16 14.57Q83.50 14.78 84.07 14.78L84.07 14.78Q84.53 14.78 84.87 14.63Q85.21 14.47 85.46 14.21Q85.70 13.94 85.85 13.63L85.85 13.63L86.50 15.38L85.81 15.38Q85.63 16.20 85.21 16.86Q84.78 17.52 84.02 17.90Q83.27 18.29 82.07 18.29L82.07 18.29Q80.78 18.29 79.94 17.78Q79.10 17.28 78.70 16.27Q78.30 15.25 78.30 13.70L78.30 13.70L78.30 6.18ZM85.80 6.18L90.05 6.18L90.05 18L85.82 18L85.96 14.96L85.80 14.53L85.80 6.18ZM96.44 11.58L96.44 11.58L95.22 9.18L96.22 9.18Q96.46 7.68 97.27 6.83Q98.09 5.99 99.61 5.99L99.61 5.99Q99.84 5.99 100.04 6.01Q100.24 6.04 100.43 6.07L100.43 6.07L100.63 10.39Q100.39 10.34 100.06 10.32Q99.73 10.30 99.42 10.30L99.42 10.30Q98.29 10.30 97.55 10.64Q96.80 10.98 96.44 11.58ZM96.50 18L92.26 18L92.26 6.18L96.22 6.18L96.05 10.09L96.50 10.09L96.50 18ZM120.62 18L116.38 18L116.38 11.09Q116.38 10.56 116.25 10.18Q116.12 9.80 115.82 9.60Q115.52 9.40 115.00 9.40L115.00 9.40Q114.58 9.40 114.26 9.55Q113.94 9.71 113.72 9.97Q113.50 10.22 113.38 10.55L113.38 10.55L113.00 8.80L113.36 8.80Q113.54 7.97 113.95 7.31Q114.36 6.66 115.10 6.28Q115.84 5.89 117 5.89L117 5.89Q118.25 5.89 119.05 6.38Q119.84 6.88 120.23 7.87Q120.62 8.86 120.62 10.36L120.62 10.36L120.62 18ZM106.22 18L101.98 18L101.98 6.18L106.20 6.18L106.07 9.54L106.22 9.65L106.22 18ZM113.42 18L109.18 18L109.18 11.09Q109.18 10.56 109.05 10.18Q108.92 9.80 108.62 9.60Q108.32 9.40 107.80 9.40L107.80 9.40Q107.38 9.40 107.06 9.55Q106.74 9.71 106.52 9.97Q106.30 10.22 106.18 10.55L106.18 10.55L105.53 8.80L106.21 8.80Q106.39 7.97 106.79 7.31Q107.20 6.66 107.93 6.28Q108.66 5.89 109.80 5.89L109.80 5.89Q111.44 5.89 112.28 6.74Q113.11 7.60 113.32 9.20L113.32 9.20Q113.34 9.44 113.38 9.82Q113.42 10.19 113.42 10.46L113.42 10.46L113.42 18ZM122.66 6.18L126.91 6.18L126.91 12.97Q126.91 13.54 127.05 13.94Q127.19 14.35 127.52 14.57Q127.86 14.78 128.44 14.78L128.44 14.78Q128.89 14.78 129.23 14.63Q129.58 14.47 129.82 14.21Q130.07 13.94 130.21 13.63L130.21 13.63L130.86 15.38L130.18 15.38Q130.00 16.20 129.57 16.86Q129.14 17.52 128.39 17.90Q127.63 18.29 126.43 18.29L126.43 18.29Q125.15 18.29 124.31 17.78Q123.47 17.28 123.07 16.27Q122.66 15.25 122.66 13.70L122.66 13.70L122.66 6.18ZM130.16 6.18L134.41 6.18L134.41 18L130.19 18L130.32 14.96L130.16 14.53L130.16 6.18ZM149.03 18L144.10 18L140.98 13.00L140.11 13.00L140.11 10.69L140.98 10.69L144.04 6.18L148.87 6.18L144.67 12.11L144.67 11.33L149.03 18ZM140.84 18L136.62 18L136.62 2.17L140.84 2.17L140.84 18ZM161.80 18L157.55 18L157.55 11.21Q157.55 10.64 157.41 10.24Q157.27 9.83 156.94 9.61Q156.61 9.40 156.02 9.40L156.02 9.40Q155.58 9.40 155.23 9.55Q154.88 9.71 154.64 9.97Q154.40 10.22 154.26 10.55L154.26 10.55L153.40 8.80L154.36 8.80Q154.54 7.97 154.95 7.31Q155.36 6.66 156.11 6.28Q156.86 5.89 158.03 5.89L158.03 5.89Q159.32 5.89 160.16 6.40Q160.99 6.90 161.39 7.91Q161.80 8.93 161.80 10.48L161.80 10.48L161.80 18ZM154.30 18L150.05 18L150.05 2.17L154.27 2.17L154.27 5.60L154.21 9.71L154.30 10.04L154.30 18ZM168.17 18L163.92 18L163.92 6.18L168.17 6.18L168.17 18ZM166.04 5.33L166.04 5.33Q164.88 5.33 164.35 4.81Q163.82 4.28 163.82 3.40L163.82 3.40L163.82 3.30Q163.82 2.41 164.35 1.89Q164.88 1.37 166.04 1.37L166.04 1.37Q167.20 1.37 167.73 1.89Q168.26 2.41 168.26 3.30L168.26 3.30L168.26 3.40Q168.26 4.30 167.73 4.81Q167.20 5.33 166.04 5.33ZM182.72 18.43L182.72 18.43Q180.91 18.43 179.68 18.11Q178.44 17.80 177.70 17.21Q176.95 16.62 176.62 15.80Q176.29 14.98 176.29 13.98L176.29 13.98L176.29 13.69Q176.29 12.66 176.64 11.92Q176.99 11.17 177.68 10.71Q178.37 10.25 179.41 10.04L179.41 10.04L179.41 9.91Q178.45 9.74 177.79 9.34Q177.13 8.93 176.80 8.26Q176.46 7.60 176.46 6.66L176.46 6.66L176.46 6.38Q176.46 4.49 177.95 3.39Q179.44 2.29 182.72 2.29L182.72 2.29Q186.06 2.29 187.55 3.39Q189.04 4.49 189.04 6.38L189.04 6.38L189.04 6.66Q189.04 7.62 188.69 8.28Q188.35 8.94 187.69 9.34Q187.02 9.73 186.04 9.91L186.04 9.91L186.04 10.04Q187.10 10.26 187.81 10.72Q188.51 11.17 188.86 11.90Q189.20 12.64 189.20 13.69L189.20 13.69L189.20 13.98Q189.20 14.93 188.90 15.74Q188.60 16.55 187.88 17.15Q187.15 17.76 185.89 18.10Q184.63 18.43 182.72 18.43ZM182.78 15.06L182.78 15.06Q184.03 15.06 184.48 14.65Q184.93 14.24 184.93 13.55L184.93 13.55L184.93 13.49Q184.93 12.74 184.42 12.35Q183.91 11.95 182.63 11.72L182.63 11.72Q181.46 11.95 181.01 12.39Q180.56 12.83 180.56 13.49L180.56 13.49L180.56 13.55Q180.56 14.26 181.04 14.66Q181.51 15.06 182.78 15.06ZM182.86 8.71L182.86 8.71Q183.90 8.56 184.39 8.12Q184.87 7.68 184.87 7.02L184.87 7.02L184.87 6.95Q184.87 6.28 184.39 5.89Q183.90 5.51 182.72 5.51L182.72 5.51Q181.60 5.51 181.11 5.89Q180.62 6.26 180.62 6.92L180.62 6.92L180.62 7.00Q180.62 7.44 180.83 7.78Q181.03 8.12 181.52 8.36Q182.00 8.59 182.86 8.71ZM197.29 18.35L197.29 18.35Q194.04 18.35 192.37 16.65Q190.69 14.95 190.69 11.65L190.69 11.65L190.69 9Q190.69 5.72 192.36 4.03Q194.03 2.33 197.29 2.33L197.29 2.33Q200.56 2.33 202.23 4.03Q203.90 5.72 203.90 9L203.90 9L203.90 11.65Q203.90 14.95 202.23 16.65Q200.56 18.35 197.29 18.35ZM197.29 14.77L197.29 14.77Q198.44 14.77 198.96 14.03Q199.48 13.30 199.48 11.84L199.48 11.84L199.48 8.83Q199.48 7.37 198.96 6.64Q198.44 5.90 197.29 5.90L197.29 5.90Q196.14 5.90 195.63 6.64Q195.12 7.38 195.12 8.83L195.12 8.83L195.12 11.84Q195.12 13.30 195.64 14.03Q196.16 14.77 197.29 14.77ZM212.28 18.35L212.28 18.35Q209.03 18.35 207.35 16.65Q205.68 14.95 205.68 11.65L205.68 11.65L205.68 9Q205.68 5.72 207.35 4.03Q209.02 2.33 212.28 2.33L212.28 2.33Q215.54 2.33 217.22 4.03Q218.89 5.72 218.89 9L218.89 9L218.89 11.65Q218.89 14.95 217.22 16.65Q215.54 18.35 212.28 18.35ZM212.28 14.77L212.28 14.77Q213.43 14.77 213.95 14.03Q214.46 13.30 214.46 11.84L214.46 11.84L214.46 8.83Q214.46 7.37 213.95 6.64Q213.43 5.90 212.28 5.90L212.28 5.90Q211.13 5.90 210.62 6.64Q210.11 7.38 210.11 8.83L210.11 8.83L210.11 11.84Q210.11 13.30 210.63 14.03Q211.15 14.77 212.28 14.77ZM239.00 18L234.76 18L234.76 11.21Q234.76 10.64 234.62 10.24Q234.48 9.83 234.14 9.61Q233.81 9.40 233.23 9.40L233.23 9.40Q232.79 9.40 232.44 9.55Q232.09 9.71 231.85 9.97Q231.60 10.22 231.46 10.55L231.46 10.55L230.81 8.80L231.49 8.80Q231.67 7.97 232.10 7.31Q232.52 6.66 233.29 6.28Q234.05 5.89 235.24 5.89L235.24 5.89Q236.53 5.89 237.37 6.40Q238.20 6.90 238.60 7.91Q239.00 8.93 239.00 10.48L239.00 10.48L239.00 18ZM231.50 18L227.26 18L227.26 6.18L231.48 6.18L231.35 9.22L231.50 9.65L231.50 18ZM246.70 18.36L246.70 18.36Q243.73 18.36 242.23 16.91Q240.72 15.47 240.72 12.90L240.72 12.90L240.72 11.40Q240.72 8.77 242.23 7.30Q243.74 5.82 246.70 5.82L246.70 5.82Q249.66 5.82 251.17 7.30Q252.67 8.77 252.67 11.40L252.67 11.40L252.67 12.90Q252.67 15.47 251.17 16.91Q249.67 18.36 246.70 18.36ZM246.70 15.02L246.70 15.02Q247.55 15.02 247.99 14.51Q248.42 14.00 248.42 13.06L248.42 13.06L248.42 11.23Q248.42 10.21 247.99 9.68Q247.55 9.16 246.70 9.16L246.70 9.16Q245.86 9.16 245.41 9.68Q244.97 10.21 244.97 11.23L244.97 11.23L244.97 13.06Q244.97 14.00 245.41 14.51Q245.86 15.02 246.70 15.02ZM258.66 11.58L258.66 11.58L257.44 9.18L258.43 9.18Q258.67 7.68 259.49 6.83Q260.30 5.99 261.83 5.99L261.83 5.99Q262.06 5.99 262.25 6.01Q262.45 6.04 262.64 6.07L262.64 6.07L262.85 10.39Q262.61 10.34 262.28 10.32Q261.95 10.30 261.64 10.30L261.64 10.30Q260.51 10.30 259.76 10.64Q259.02 10.98 258.66 11.58ZM258.72 18L254.47 18L254.47 6.18L258.43 6.18L258.26 10.09L258.72 10.09L258.72 18ZM282.84 18L278.59 18L278.59 11.09Q278.59 10.56 278.47 10.18Q278.34 9.80 278.04 9.60Q277.74 9.40 277.21 9.40L277.21 9.40Q276.79 9.40 276.47 9.55Q276.16 9.71 275.93 9.97Q275.71 10.22 275.59 10.55L275.59 10.55L275.22 8.80L275.58 8.80Q275.76 7.97 276.17 7.31Q276.58 6.66 277.31 6.28Q278.05 5.89 279.22 5.89L279.22 5.89Q280.46 5.89 281.26 6.38Q282.06 6.88 282.45 7.87Q282.84 8.86 282.84 10.36L282.84 10.36L282.84 18ZM268.44 18L264.19 18L264.19 6.18L268.42 6.18L268.28 9.54L268.44 9.65L268.44 18ZM275.64 18L271.39 18L271.39 11.09Q271.39 10.56 271.27 10.18Q271.14 9.80 270.84 9.60Q270.54 9.40 270.01 9.40L270.01 9.40Q269.59 9.40 269.27 9.55Q268.96 9.71 268.73 9.97Q268.51 10.22 268.39 10.55L268.39 10.55L267.74 8.80L268.43 8.80Q268.61 7.97 269.01 7.31Q269.41 6.66 270.14 6.28Q270.88 5.89 272.02 5.89L272.02 5.89Q273.66 5.89 274.49 6.74Q275.33 7.60 275.53 9.20L275.53 9.20Q275.56 9.44 275.60 9.82Q275.64 10.19 275.64 10.46L275.64 10.46L275.64 18ZM295.82 18L291.66 18L291.78 14.98L291.70 14.87L291.70 11.20L291.66 10.76Q291.66 9.94 291.13 9.55Q290.59 9.16 289.31 9.16L289.31 9.16Q288.14 9.16 287.07 9.43Q286.00 9.71 285.01 10.07L285.01 10.07L285.36 6.84Q285.96 6.58 286.69 6.35Q287.42 6.13 288.29 6Q289.15 5.87 290.12 5.87L290.12 5.87Q291.77 5.87 292.87 6.25Q293.96 6.62 294.61 7.31Q295.26 8.00 295.54 8.95Q295.82 9.90 295.82 11.04L295.82 11.04L295.82 18ZM288 18.29L288 18.29Q286.22 18.29 285.32 17.38Q284.41 16.48 284.41 14.81L284.41 14.81L284.41 14.51Q284.41 12.73 285.50 11.89Q286.58 11.05 288.97 10.75L288.97 10.75L291.98 10.37L292.24 12.79L289.68 13.16Q288.98 13.26 288.71 13.49Q288.44 13.73 288.44 14.18L288.44 14.18L288.44 14.23Q288.44 14.65 288.73 14.92Q289.01 15.18 289.67 15.18L289.67 15.18Q290.22 15.18 290.62 15.03Q291.02 14.88 291.29 14.63Q291.56 14.38 291.72 14.08L291.72 14.08L292.32 15.52L291.64 15.52Q291.46 16.32 291.07 16.94Q290.68 17.57 289.94 17.93Q289.21 18.29 288 18.29ZM302.14 18L297.89 18L297.89 2.17L302.14 2.17L302.14 18Z"/></svg>