<svg xmlns="http://www.w3.org/2000/svg" xmlns:xlink="http://www.w3.org/1999/xlink" width="282.876" height="28.8"><path fill="black" d="M2.94 18L0.50 18L5.21 2.66L8.94 2.66L13.64 18L11.21 18L7.22 4.27L6.92 4.27L2.94 18ZM10.55 13.72L3.58 13.72L3.58 11.72L10.55 11.72L10.55 13.72ZM25.76 18L23.41 18L23.41 10.75Q23.41 9.90 23.18 9.28Q22.94 8.65 22.41 8.30Q21.88 7.96 20.95 7.96L20.95 7.96Q20.10 7.96 19.48 8.27Q18.85 8.58 18.46 9.11Q18.07 9.64 17.90 10.31L17.90 10.31L17.52 8.68L18.02 8.68Q18.23 7.93 18.70 7.33Q19.16 6.72 19.94 6.36Q20.72 6 21.88 6L21.88 6Q23.26 6 24.11 6.52Q24.96 7.04 25.36 8.04Q25.76 9.04 25.76 10.49L25.76 10.49L25.76 18ZM17.99 18L15.64 18L15.64 6.26L17.99 6.26L17.89 9.01L17.99 9.16L17.99 18ZM33.74 18.28L33.74 18.28Q30.94 18.28 29.54 16.94Q28.14 15.60 28.14 13.08L28.14 13.08L28.14 11.16Q28.14 8.68 29.44 7.31Q30.74 5.95 33.24 5.95L33.24 5.95Q34.93 5.95 36.06 6.57Q37.19 7.19 37.75 8.32Q38.32 9.44 38.32 10.99L38.32 10.99L38.32 11.44Q38.32 11.84 38.28 12.26Q38.24 12.68 38.18 13.07L38.18 13.07L36.02 13.07Q36.05 12.44 36.05 11.89Q36.06 11.34 36.06 10.88L36.06 10.88Q36.06 9.91 35.75 9.24Q35.44 8.57 34.81 8.21Q34.19 7.86 33.24 7.86L33.24 7.86Q31.84 7.86 31.15 8.66Q30.47 9.46 30.47 10.93L30.47 10.93L30.47 12.04L30.48 12.31L30.48 13.36Q30.48 14.02 30.68 14.56Q30.88 15.10 31.31 15.49Q31.75 15.88 32.45 16.09Q33.14 16.30 34.14 16.30L34.14 16.30Q35.27 16.30 36.26 16.01Q37.25 15.72 38.12 15.24L38.12 15.24L37.91 17.24Q37.12 17.71 36.07 17.99Q35.02 18.28 33.74 18.28ZM37.70 13.07L29.39 13.07L29.39 11.30L37.70 11.30L37.70 13.07ZM51.13 18L48.35 18L44.04 12.71L42.88 12.71L42.88 10.88L44.05 10.88L48.18 6.26L50.93 6.26L45.79 11.96L45.79 11.45L51.13 18ZM43.08 18L40.74 18L40.74 2.11L43.08 2.11L43.08 18ZM64.50 18.31L64.50 18.31Q62.75 18.31 61.57 17.60Q60.38 16.88 59.79 15.52Q59.20 14.16 59.20 12.23L59.20 12.23L59.20 8.76Q59.20 5.68 60.81 4.02Q62.42 2.36 65.56 2.36L65.56 2.36Q66.64 2.36 67.52 2.53Q68.41 2.70 69.11 2.96Q69.82 3.23 70.32 3.53L70.32 3.53L70.54 5.68Q69.70 5.18 68.57 4.81Q67.44 4.43 65.99 4.43L65.99 4.43Q63.78 4.43 62.71 5.55Q61.64 6.67 61.64 8.81L61.64 8.81L61.64 12.22Q61.64 14.15 62.54 15.20Q63.44 16.25 65.28 16.25L65.28 16.25Q66.18 16.25 66.83 15.95Q67.49 15.65 67.91 15.14Q68.33 14.64 68.52 14.04L68.52 14.04L68.52 10.46L68.88 11.30L65.48 11.30L65.48 9.31L70.87 9.31L70.87 15.60L68.48 15.59Q68.29 16.32 67.84 16.94Q67.39 17.57 66.58 17.94Q65.77 18.31 64.50 18.31ZM68.52 18L68.63 14.83L70.87 14.83L70.87 18L68.52 18ZM73.69 6.26L76.04 6.26L76.04 13.51Q76.04 14.35 76.28 14.98Q76.51 15.61 77.05 15.96Q77.59 16.31 78.50 16.31L78.50 16.31Q79.37 16.31 79.99 16.00Q80.60 15.68 81 15.15Q81.40 14.62 81.55 13.96L81.55 13.96L81.94 15.59L81.43 15.59Q81.23 16.32 80.76 16.93Q80.29 17.54 79.51 17.90Q78.73 18.26 77.58 18.26L77.58 18.26Q76.21 18.26 75.35 17.74Q74.50 17.22 74.09 16.22Q73.69 15.22 73.69 13.78L73.69 13.78L73.69 6.26ZM81.47 6.26L83.82 6.26L83.82 18L81.47 18L81.56 15.25L81.47 15.11L81.47 6.26ZM89.05 10.91L89.05 10.91L88.55 9.07L89.12 9.07Q89.50 7.68 90.37 6.88Q91.25 6.08 92.76 6.08L92.76 6.08Q93.12 6.08 93.40 6.14Q93.68 6.19 93.91 6.26L93.91 6.26L94.06 8.56Q93.77 8.46 93.41 8.41Q93.05 8.35 92.63 8.35L92.63 8.35Q91.34 8.35 90.41 9.01Q89.47 9.67 89.05 10.91ZM89.15 18L86.80 18L86.80 6.26L89.09 6.26L88.98 9.68L89.15 9.85L89.15 18ZM112.78 18L110.42 18L110.42 10.69Q110.42 9.86 110.21 9.25Q110.00 8.63 109.52 8.29Q109.03 7.96 108.20 7.96L108.20 7.96Q107.41 7.96 106.84 8.27Q106.26 8.58 105.91 9.11Q105.55 9.64 105.40 10.31L105.40 10.31L105.08 8.68L105.36 8.68Q105.58 7.97 106.02 7.36Q106.46 6.74 107.22 6.37Q107.98 6 109.13 6L109.13 6Q110.42 6 111.23 6.51Q112.03 7.02 112.40 8.01Q112.78 9 112.78 10.43L112.78 10.43L112.78 18ZM98.20 18L95.84 18L95.84 6.26L98.20 6.26L98.10 9.01L98.20 9.16L98.20 18ZM105.48 18L103.14 18L103.14 10.69Q103.14 9.86 102.93 9.25Q102.72 8.63 102.23 8.29Q101.75 7.96 100.92 7.96L100.92 7.96Q100.13 7.96 99.55 8.27Q98.98 8.58 98.62 9.11Q98.27 9.64 98.11 10.31L98.11 10.31L97.73 8.68L98.23 8.68Q98.42 7.93 98.86 7.33Q99.30 6.72 100.03 6.36Q100.76 6 101.83 6L101.83 6Q103.46 6 104.30 6.84Q105.14 7.68 105.36 9.29L105.36 9.29Q105.42 9.52 105.45 9.80Q105.48 10.09 105.48 10.37L105.48 10.37L105.48 18ZM115.46 6.26L117.82 6.26L117.82 13.51Q117.82 14.35 118.05 14.98Q118.28 15.61 118.82 15.96Q119.36 16.31 120.28 16.31L120.28 16.31Q121.14 16.31 121.76 16.00Q122.38 15.68 122.77 15.15Q123.17 14.62 123.32 13.96L123.32 13.96L123.71 15.59L123.20 15.59Q123.00 16.32 122.53 16.93Q122.06 17.54 121.28 17.90Q120.50 18.26 119.35 18.26L119.35 18.26Q117.98 18.26 117.13 17.74Q116.27 17.22 115.87 16.22Q115.46 15.22 115.46 13.78L115.46 13.78L115.46 6.26ZM123.24 6.26L125.59 6.26L125.59 18L123.24 18L123.34 15.25L123.24 15.11L123.24 6.26ZM138.96 18L136.18 18L131.87 12.71L130.70 12.71L130.70 10.88L131.88 10.88L136.01 6.26L138.76 6.26L133.62 11.96L133.62 11.45L138.96 18ZM130.91 18L128.57 18L128.57 2.11L130.91 2.11L130.91 18ZM150.84 18L148.49 18L148.49 10.75Q148.49 9.90 148.25 9.28Q148.02 8.65 147.49 8.30Q146.95 7.96 146.03 7.96L146.03 7.96Q145.18 7.96 144.56 8.27Q143.94 8.58 143.56 9.11Q143.17 9.64 143.00 10.31L143.00 10.31L142.54 8.68L143.12 8.68Q143.33 7.93 143.80 7.33Q144.26 6.72 145.04 6.36Q145.82 6 146.95 6L146.95 6Q148.33 6 149.18 6.52Q150.04 7.04 150.44 8.04Q150.84 9.04 150.84 10.49L150.84 10.49L150.84 18ZM143.06 18L140.71 18L140.71 2.11L143.05 2.11L143.05 5.86L142.99 9.24L143.06 9.41L143.06 18ZM156.06 18L153.71 18L153.71 6.26L156.06 6.26L156.06 18ZM154.88 4.54L154.88 4.54Q154.19 4.54 153.85 4.18Q153.50 3.83 153.50 3.20L153.50 3.20L153.50 3.16Q153.50 2.53 153.85 2.18Q154.19 1.82 154.88 1.82L154.88 1.82Q155.58 1.82 155.92 2.18Q156.26 2.53 156.26 3.16L156.26 3.16L156.26 3.20Q156.26 3.84 155.92 4.19Q155.58 4.54 154.88 4.54ZM170.21 18.28L170.21 18.28Q168.70 18.28 167.59 17.96Q166.48 17.64 165.85 17.32L165.85 17.32L165.61 15.02Q166.14 15.31 166.82 15.57Q167.50 15.83 168.29 15.99Q169.09 16.15 169.99 16.15L169.99 16.15Q171.23 16.15 171.98 15.82Q172.74 15.49 173.08 14.86Q173.42 14.23 173.42 13.34L173.42 13.34L173.42 12.68Q173.42 11.45 172.81 10.76Q172.20 10.08 170.88 10.08L170.88 10.08Q169.80 10.08 169.05 10.54Q168.30 11.00 167.80 11.78L167.80 11.78L165.68 11.42L165.68 2.66L175.36 2.66L175.36 4.70L168.01 4.70L168.01 8.05L167.98 10.07L168.07 10.07Q168.53 9.22 169.41 8.66Q170.29 8.10 171.72 8.10L171.72 8.10Q173.80 8.10 174.81 9.30Q175.82 10.50 175.82 12.61L175.82 12.61L175.82 13.37Q175.82 14.87 175.24 15.97Q174.65 17.08 173.41 17.68Q172.16 18.28 170.21 18.28ZM183.70 18.31L183.70 18.31Q180.88 18.31 179.44 16.75Q178.00 15.18 178.00 12.22L178.00 12.22L178.00 8.45Q178.00 5.48 179.43 3.92Q180.86 2.35 183.70 2.35L183.70 2.35Q186.53 2.35 187.97 3.92Q189.41 5.48 189.41 8.45L189.41 8.45L189.41 12.22Q189.41 15.18 187.97 16.75Q186.53 18.31 183.70 18.31ZM183.70 16.31L183.70 16.31Q185.36 16.31 186.16 15.28Q186.96 14.26 186.96 12.32L186.96 12.32L186.96 8.35Q186.96 6.41 186.16 5.38Q185.36 4.36 183.70 4.36L183.70 4.36Q182.03 4.36 181.24 5.38Q180.44 6.41 180.44 8.35L180.44 8.35L180.44 12.32Q180.44 14.26 181.24 15.28Q182.04 16.31 183.70 16.31ZM197.51 18.31L197.51 18.31Q194.69 18.31 193.25 16.75Q191.81 15.18 191.81 12.22L191.81 12.22L191.81 8.45Q191.81 5.48 193.24 3.92Q194.68 2.35 197.51 2.35L197.51 2.35Q200.34 2.35 201.78 3.92Q203.22 5.48 203.22 8.45L203.22 8.45L203.22 12.22Q203.22 15.18 201.78 16.75Q200.34 18.31 197.51 18.31ZM197.51 16.31L197.51 16.31Q199.18 16.31 199.97 15.28Q200.77 14.26 200.77 12.32L200.77 12.32L200.77 8.35Q200.77 6.41 199.97 5.38Q199.18 4.36 197.51 4.36L197.51 4.36Q195.84 4.36 195.05 5.38Q194.26 6.41 194.26 8.35L194.26 8.35L194.26 12.32Q194.26 14.26 195.05 15.28Q195.85 16.31 197.51 16.31ZM222.66 18L220.31 18L220.31 10.75Q220.31 9.90 220.07 9.28Q219.84 8.65 219.31 8.30Q218.77 7.96 217.85 7.96L217.85 7.96Q217.00 7.96 216.37 8.27Q215.75 8.58 215.36 9.11Q214.97 9.64 214.80 10.31L214.80 10.31L214.42 8.68L214.92 8.68Q215.12 7.93 215.59 7.33Q216.06 6.72 216.84 6.36Q217.62 6 218.77 6L218.77 6Q220.15 6 221.00 6.52Q221.86 7.04 222.26 8.04Q222.66 9.04 222.66 10.49L222.66 10.49L222.66 18ZM214.88 18L212.53 18L212.53 6.26L214.88 6.26L214.79 9.01L214.88 9.16L214.88 18ZM230.32 18.30L230.32 18.30Q227.72 18.30 226.38 16.92Q225.04 15.54 225.04 12.95L225.04 12.95L225.04 11.28Q225.04 8.70 226.38 7.33Q227.72 5.95 230.32 5.95L230.32 5.95Q232.91 5.95 234.25 7.33Q235.58 8.70 235.58 11.28L235.58 11.28L235.58 12.95Q235.58 15.54 234.25 16.92Q232.91 18.30 230.32 18.30ZM230.32 16.39L230.32 16.39Q231.74 16.39 232.49 15.54Q233.23 14.69 233.23 13.09L233.23 13.09L233.23 11.14Q233.23 9.55 232.49 8.71Q231.74 7.86 230.32 7.86L230.32 7.86Q228.89 7.86 228.14 8.71Q227.40 9.55 227.40 11.14L227.40 11.14L227.40 13.09Q227.40 14.69 228.14 15.54Q228.89 16.39 230.32 16.39ZM240.36 10.91L240.36 10.91L239.86 9.07L240.43 9.07Q240.80 7.68 241.68 6.88Q242.56 6.08 244.07 6.08L244.07 6.08Q244.43 6.08 244.71 6.14Q244.99 6.19 245.22 6.26L245.22 6.26L245.36 8.56Q245.08 8.46 244.72 8.41Q244.36 8.35 243.94 8.35L243.94 8.35Q242.65 8.35 241.72 9.01Q240.78 9.67 240.36 10.91ZM240.46 18L238.10 18L238.10 6.26L240.40 6.26L240.29 9.68L240.46 9.85L240.46 18ZM264.08 18L261.73 18L261.73 10.69Q261.73 9.86 261.52 9.25Q261.31 8.63 260.83 8.29Q260.34 7.96 259.51 7.96L259.51 7.96Q258.72 7.96 258.14 8.27Q257.57 8.58 257.21 9.11Q256.86 9.64 256.70 10.31L256.70 10.31L256.39 8.68L256.67 8.68Q256.88 7.97 257.33 7.36Q257.77 6.74 258.53 6.37Q259.28 6 260.44 6L260.44 6Q261.73 6 262.54 6.51Q263.34 7.02 263.71 8.01Q264.08 9 264.08 10.43L264.08 10.43L264.08 18ZM249.50 18L247.15 18L247.15 6.26L249.50 6.26L249.41 9.01L249.50 9.16L249.50 18ZM256.79 18L254.45 18L254.45 10.69Q254.45 9.86 254.24 9.25Q254.03 8.63 253.54 8.29Q253.06 7.96 252.23 7.96L252.23 7.96Q251.44 7.96 250.86 8.27Q250.28 8.58 249.93 9.11Q249.58 9.64 249.42 10.31L249.42 10.31L249.04 8.68L249.54 8.68Q249.73 7.93 250.17 7.33Q250.61 6.72 251.34 6.36Q252.07 6 253.14 6L253.14 6Q254.77 6 255.61 6.84Q256.45 7.68 256.67 9.29L256.67 9.29Q256.73 9.52 256.76 9.80Q256.79 10.09 256.79 10.37L256.79 10.37L256.79 18ZM276.16 18L273.82 18L273.91 15.22L273.83 14.86L273.83 11.16L273.84 10.57Q273.84 9.22 273.15 8.58Q272.46 7.94 270.94 7.94L270.94 7.94Q269.70 7.94 268.64 8.29Q267.59 8.64 266.74 9.10L266.74 9.10L266.95 7.13Q267.43 6.85 268.08 6.59Q268.73 6.32 269.54 6.16Q270.36 5.99 271.33 5.99L271.33 5.99Q272.66 5.99 273.59 6.31Q274.51 6.62 275.08 7.22Q275.64 7.82 275.90 8.66Q276.16 9.50 276.16 10.54L276.16 10.54L276.16 18ZM269.84 18.26L269.84 18.26Q268.10 18.26 267.18 17.41Q266.26 16.55 266.26 14.96L266.26 14.96L266.26 14.60Q266.26 12.92 267.29 12.11Q268.33 11.30 270.56 10.99L270.56 10.99L274.09 10.49L274.22 12.19L270.84 12.67Q269.63 12.84 269.11 13.25Q268.60 13.67 268.60 14.47L268.60 14.47L268.60 14.64Q268.60 15.44 269.09 15.88Q269.59 16.31 270.61 16.31L270.61 16.31Q271.55 16.31 272.22 16.00Q272.89 15.68 273.31 15.16Q273.73 14.64 273.89 14.00L273.89 14.00L274.21 15.58L273.78 15.58Q273.59 16.30 273.14 16.91Q272.70 17.52 271.90 17.89Q271.10 18.26 269.84 18.26ZM281.34 18L278.99 18L278.99 2.11L281.34 2.11L281.34 18Z"/></svg>