<svg xmlns="http://www.w3.org/2000/svg" xmlns:xlink="http://www.w3.org/1999/xlink" width="278.328" height="30"><path fill="black" d="M4.37 16.43L4.37 23.06L14.83 23.06L14.83 24.72L2.33 24.72L2.33 6.96L14.71 6.96L14.71 8.62L4.37 8.62L4.37 14.78L13.49 14.78L13.49 16.43L4.37 16.43ZM18.17 24.72L18.17 11.70L19.85 11.70L19.99 13.19L20.12 13.19Q21.07 12.37 22.30 11.93Q23.52 11.50 24.85 11.50L24.85 11.50Q27.14 11.50 28.43 12.73Q29.72 13.97 29.72 16.60L29.72 16.60L29.72 24.72L27.71 24.72L27.71 16.66Q27.71 14.86 26.87 14.06Q26.04 13.26 24.43 13.26L24.43 13.26Q23.29 13.26 22.15 13.69Q21.01 14.12 20.18 15.01L20.18 15.01L20.18 24.72L18.17 24.72ZM39.49 24.95Q36.34 24.95 34.66 23.26Q32.99 21.58 32.99 18.22L32.99 18.22Q32.99 14.87 34.76 13.18Q36.54 11.50 39.95 11.50L39.95 11.50Q41.70 11.50 43.13 11.92L43.13 11.92L43.13 13.58Q42.35 13.38 41.63 13.28Q40.91 13.18 40.10 13.18L40.10 13.18Q37.55 13.18 36.31 14.38Q35.06 15.59 35.06 18.18L35.06 18.18Q35.06 20.81 36.23 22.04Q37.39 23.28 39.70 23.28L39.70 23.28Q40.46 23.28 41.28 23.14Q42.10 22.99 43.13 22.67L43.13 22.67L43.13 24.34Q41.42 24.95 39.49 24.95L39.49 24.95ZM51.23 24.95Q49.31 24.95 47.90 24.22Q46.50 23.48 45.73 21.97Q44.95 20.46 44.95 18.20L44.95 18.20Q44.95 15.98 45.72 14.48Q46.49 12.98 47.89 12.24Q49.30 11.50 51.23 11.50L51.23 11.50Q54.19 11.50 55.84 13.17Q57.49 14.84 57.49 18.20L57.49 18.20Q57.49 20.42 56.72 21.94Q55.94 23.45 54.53 24.20Q53.12 24.95 51.23 24.95L51.23 24.95ZM51.23 23.30Q55.46 23.30 55.46 18.23L55.46 18.23Q55.46 15.56 54.37 14.36Q53.27 13.15 51.23 13.15L51.23 13.15Q49.19 13.15 48.09 14.35Q46.99 15.55 46.99 18.19L46.99 18.19Q46.99 23.30 51.23 23.30L51.23 23.30ZM66.14 24.94Q64.40 24.94 63.09 24.25Q61.78 23.56 61.03 22.12Q60.28 20.68 60.28 18.48L60.28 18.48Q60.28 15.04 62.12 13.26Q63.97 11.48 67.51 11.48L67.51 11.48Q68.88 11.48 70.33 11.75L70.33 11.75L70.33 5.33L72.35 5.33L72.35 24.72L70.64 24.72L70.51 23.22L70.38 23.22Q69.62 24.04 68.53 24.49Q67.44 24.94 66.14 24.94L66.14 24.94ZM66.56 23.24Q67.67 23.24 68.64 22.82Q69.61 22.40 70.33 21.50L70.33 21.50L70.33 13.44Q69.06 13.12 67.57 13.12L67.57 13.12Q64.91 13.12 63.61 14.39Q62.32 15.66 62.32 18.31L62.32 18.31Q62.32 23.24 66.56 23.24L66.56 23.24ZM87.41 18.28L87.41 18.85L77.84 18.85Q77.93 21.23 79.19 22.30Q80.45 23.38 82.99 23.38L82.99 23.38Q84.62 23.38 86.71 22.80L86.71 22.80L86.71 24.37Q84.65 24.95 82.73 24.95L82.73 24.95Q79.31 24.95 77.56 23.30Q75.80 21.65 75.80 18.22L75.80 18.22Q75.80 16.04 76.51 14.54Q77.21 13.03 78.53 12.26Q79.86 11.50 81.72 11.50L81.72 11.50Q84.47 11.50 85.94 13.24Q87.41 14.98 87.41 18.28L87.41 18.28ZM81.70 12.91Q79.85 12.91 78.87 14.05Q77.89 15.18 77.83 17.53L77.83 17.53L85.49 17.53Q85.43 15.17 84.48 14.04Q83.53 12.91 81.70 12.91L81.70 12.91ZM101.66 24.95Q100.38 24.95 99.08 24.74Q97.79 24.54 96.60 24.16L96.60 24.16L96.60 22.43Q97.84 22.84 99.17 23.05Q100.51 23.26 101.70 23.26L101.70 23.26Q106.57 23.26 106.57 19.96L106.57 19.96Q106.57 19.04 106.18 18.45Q105.78 17.86 104.92 17.47Q104.06 17.08 102.59 16.79L102.59 16.79L101.51 16.58Q98.81 16.06 97.56 14.87Q96.31 13.69 96.31 11.72L96.31 11.72Q96.31 10.16 97.09 9.05Q97.87 7.93 99.43 7.33Q100.98 6.73 103.26 6.73L103.26 6.73Q105.70 6.73 107.81 7.36L107.81 7.36L107.81 9.08Q105.65 8.42 103.27 8.42L103.27 8.42Q100.79 8.42 99.58 9.25Q98.38 10.08 98.38 11.64L98.38 11.64Q98.38 12.54 98.72 13.14Q99.07 13.74 99.86 14.14Q100.66 14.53 102.01 14.81L102.01 14.81L103.09 15.01Q105.07 15.40 106.29 16.04Q107.51 16.69 108.07 17.63Q108.62 18.56 108.62 19.86L108.62 19.86Q108.62 21.47 107.81 22.61Q106.99 23.76 105.43 24.35Q103.86 24.95 101.66 24.95L101.66 24.95ZM116.46 11.50Q118.36 11.50 119.57 11.95Q120.79 12.41 121.41 13.48Q122.03 14.54 122.03 16.36L122.03 16.36L122.03 24.72L120.32 24.72L120.18 23.24L120.05 23.24Q119.32 24.02 118.16 24.48Q117.00 24.94 115.73 24.94L115.73 24.94Q114.34 24.94 113.35 24.50Q112.36 24.06 111.85 23.26Q111.34 22.45 111.34 21.37L111.34 21.37Q111.34 19.68 112.57 18.75Q113.80 17.82 116.51 17.56L116.51 17.56L120.04 17.17L120.04 16.26Q120.04 15.02 119.62 14.33Q119.20 13.64 118.37 13.37Q117.55 13.09 116.22 13.09L116.22 13.09Q115.30 13.09 114.25 13.25Q113.21 13.40 112.24 13.73L112.24 13.73L112.24 12.14Q113.15 11.83 114.28 11.66Q115.40 11.50 116.46 11.50L116.46 11.50ZM116.18 23.45Q117.26 23.45 118.26 23.05Q119.26 22.64 120.04 21.85L120.04 21.85L120.04 18.48L116.63 18.85Q114.89 19.06 114.14 19.62Q113.39 20.18 113.39 21.22L113.39 21.22Q113.39 22.28 114.08 22.87Q114.78 23.45 116.18 23.45L116.18 23.45ZM126.06 24.72L126.06 11.70L127.74 11.70L127.88 13.19L128.02 13.19Q128.96 12.37 130.19 11.93Q131.41 11.50 132.74 11.50L132.74 11.50Q135.04 11.50 136.33 12.73Q137.62 13.97 137.62 16.60L137.62 16.60L137.62 24.72L135.60 24.72L135.60 16.66Q135.60 14.86 134.77 14.06Q133.93 13.26 132.32 13.26L132.32 13.26Q131.18 13.26 130.04 13.69Q128.90 14.12 128.08 15.01L128.08 15.01L128.08 24.72L126.06 24.72ZM145.37 24.95Q142.97 24.95 141.12 24.38L141.12 24.38L141.12 22.85Q142.21 23.16 143.24 23.30Q144.28 23.44 145.39 23.44L145.39 23.44Q147.34 23.44 148.20 22.88Q149.06 22.32 149.06 21.24L149.06 21.24Q149.06 20.66 148.86 20.28Q148.66 19.90 148.16 19.64Q147.67 19.38 146.81 19.22L146.81 19.22L144.60 18.86Q142.64 18.54 141.77 17.66Q140.90 16.79 140.90 15.31L140.90 15.31Q140.90 13.56 142.33 12.53Q143.76 11.50 146.68 11.50L146.68 11.50Q148.58 11.50 150.29 11.98L150.29 11.98L150.29 13.51Q148.56 13.02 146.69 13.02L146.69 13.02Q144.62 13.02 143.75 13.61Q142.87 14.20 142.87 15.24L142.87 15.24Q142.87 16.03 143.36 16.54Q143.84 17.04 145.06 17.26L145.06 17.26L147.26 17.62Q149.23 17.94 150.13 18.76Q151.03 19.58 151.03 21.11L151.03 21.11Q151.03 22.92 149.60 23.93Q148.18 24.95 145.37 24.95L145.37 24.95ZM163.12 16.43L163.12 23.06L173.58 23.06L173.58 24.72L161.08 24.72L161.08 6.96L173.46 6.96L173.46 8.62L163.12 8.62L163.12 14.78L172.24 14.78L172.24 16.43L163.12 16.43ZM187.63 11.70L182.34 18.12L187.79 24.72L185.41 24.72L181.12 19.51L176.82 24.72L174.49 24.72L179.92 18.16L174.61 11.70L176.98 11.70L181.16 16.78L185.34 11.70L187.63 11.70ZM190.21 30L190.21 11.70L191.92 11.70L192.06 13.22L192.18 13.22Q192.94 12.41 194.03 11.95Q195.13 11.50 196.43 11.50L196.43 11.50Q198.14 11.50 199.45 12.16Q200.76 12.83 201.52 14.27Q202.28 15.72 202.28 17.95L202.28 17.95Q202.28 21.41 200.45 23.18Q198.61 24.95 195.06 24.95L195.06 24.95Q193.81 24.95 192.23 24.71L192.23 24.71L192.23 30L190.21 30ZM194.99 23.32Q197.66 23.32 198.95 22.04Q200.24 20.77 200.24 18.12L200.24 18.12Q200.24 13.20 196.00 13.20L196.00 13.20Q194.89 13.20 193.92 13.62Q192.95 14.04 192.23 14.94L192.23 14.94L192.23 22.99Q192.79 23.15 193.52 23.23Q194.24 23.32 194.99 23.32L194.99 23.32ZM210.13 11.50Q212.03 11.50 213.25 11.95Q214.46 12.41 215.08 13.48Q215.70 14.54 215.70 16.36L215.70 16.36L215.70 24.72L214.00 24.72L213.85 23.24L213.72 23.24Q212.99 24.02 211.83 24.48Q210.67 24.94 209.40 24.94L209.40 24.94Q208.01 24.94 207.02 24.50Q206.03 24.06 205.52 23.26Q205.01 22.45 205.01 21.37L205.01 21.37Q205.01 19.68 206.24 18.75Q207.47 17.82 210.18 17.56L210.18 17.56L213.71 17.17L213.71 16.26Q213.71 15.02 213.29 14.33Q212.87 13.64 212.05 13.37Q211.22 13.09 209.89 13.09L209.89 13.09Q208.97 13.09 207.92 13.25Q206.88 13.40 205.91 13.73L205.91 13.73L205.91 12.14Q206.82 11.83 207.95 11.66Q209.08 11.50 210.13 11.50L210.13 11.50ZM209.86 23.45Q210.94 23.45 211.93 23.05Q212.93 22.64 213.71 21.85L213.71 21.85L213.71 18.48L210.30 18.85Q208.56 19.06 207.81 19.62Q207.06 20.18 207.06 21.22L207.06 21.22Q207.06 22.28 207.76 22.87Q208.45 23.45 209.86 23.45L209.86 23.45ZM219.73 24.72L219.73 11.70L221.41 11.70L221.56 13.19L221.69 13.19Q222.64 12.37 223.86 11.93Q225.08 11.50 226.42 11.50L226.42 11.50Q228.71 11.50 230.00 12.73Q231.29 13.97 231.29 16.60L231.29 16.60L231.29 24.72L229.27 24.72L229.27 16.66Q229.27 14.86 228.44 14.06Q227.60 13.26 226.00 13.26L226.00 13.26Q224.86 13.26 223.72 13.69Q222.58 14.12 221.75 15.01L221.75 15.01L221.75 24.72L219.73 24.72ZM240.42 24.94Q238.68 24.94 237.37 24.25Q236.05 23.56 235.30 22.12Q234.55 20.68 234.55 18.48L234.55 18.48Q234.55 15.04 236.40 13.26Q238.25 11.48 241.79 11.48L241.79 11.48Q243.16 11.48 244.61 11.75L244.61 11.75L244.61 5.33L246.62 5.33L246.62 24.72L244.92 24.72L244.79 23.22L244.66 23.22Q243.90 24.04 242.81 24.49Q241.72 24.94 240.42 24.94L240.42 24.94ZM240.84 23.24Q241.94 23.24 242.92 22.82Q243.89 22.40 244.61 21.50L244.61 21.50L244.61 13.44Q243.34 13.12 241.85 13.12L241.85 13.12Q239.18 13.12 237.89 14.39Q236.59 15.66 236.59 18.31L236.59 18.31Q236.59 23.24 240.84 23.24L240.84 23.24ZM261.68 18.28L261.68 18.85L252.12 18.85Q252.20 21.23 253.46 22.30Q254.72 23.38 257.27 23.38L257.27 23.38Q258.90 23.38 260.99 22.80L260.99 22.80L260.99 24.37Q258.92 24.95 257.00 24.95L257.00 24.95Q253.58 24.95 251.83 23.30Q250.08 21.65 250.08 18.22L250.08 18.22Q250.08 16.04 250.78 14.54Q251.48 13.03 252.81 12.26Q254.14 11.50 256.00 11.50L256.00 11.50Q258.74 11.50 260.21 13.24Q261.68 14.98 261.68 18.28L261.68 18.28ZM255.97 12.91Q254.12 12.91 253.15 14.05Q252.17 15.18 252.11 17.53L252.11 17.53L259.76 17.53Q259.70 15.17 258.76 14.04Q257.81 12.91 255.97 12.91L255.97 12.91ZM270.01 24.94Q268.27 24.94 266.96 24.25Q265.64 23.56 264.89 22.12Q264.14 20.68 264.14 18.48L264.14 18.48Q264.14 15.04 265.99 13.26Q267.84 11.48 271.38 11.48L271.38 11.48Q272.75 11.48 274.20 11.75L274.20 11.75L274.20 5.33L276.22 5.33L276.22 24.72L274.51 24.72L274.38 23.22L274.25 23.22Q273.49 24.04 272.40 24.49Q271.31 24.94 270.01 24.94L270.01 24.94ZM270.43 23.24Q271.54 23.24 272.51 22.82Q273.48 22.40 274.20 21.50L274.20 21.50L274.20 13.44Q272.93 13.12 271.44 13.12L271.44 13.12Q268.78 13.12 267.48 14.39Q266.18 15.66 266.18 18.31L266.18 18.31Q266.18 23.24 270.43 23.24L270.43 23.24Z"/></svg>