<svg xmlns="http://www.w3.org/2000/svg" xmlns:xlink="http://www.w3.org/1999/xlink" width="81.60000000000001" height="39.104"><path fill="black" d="M9.95 6.85L9.57 9.34L6.62 9.34L4.93 21.38L1.86 21.38L3.52 9.34L0.54 9.34L0.86 6.85L9.95 6.85ZM14.80 4.77Q15.52 4.77 15.92 5.28Q16.32 5.79 16.21 6.58Q16.10 7.36 15.55 7.86Q15.01 8.35 14.29 8.35Q13.57 8.35 13.15 7.86Q12.74 7.36 12.83 6.59L12.83 6.59Q12.99 5.79 13.54 5.28Q14.08 4.77 14.80 4.77ZM15.55 9.82L13.92 21.38L10.94 21.38L12.48 10.24L15.55 9.82ZM17.12 21.38L18.72 10.05L21.34 10.05L21.22 11.55Q21.38 11.42 21.65 11.12Q21.92 10.82 22.30 10.53L22.30 10.53Q23.30 9.79 24.32 9.79Q25.34 9.79 25.86 10.16Q26.37 10.53 26.50 11.52L26.50 11.52Q27.14 10.59 28.54 9.98L28.54 9.98Q29.06 9.79 29.63 9.79L29.63 9.79Q31.07 9.79 31.58 10.69Q32.10 11.58 31.81 13.70L31.81 13.70L30.78 21.38L27.81 21.38L28.80 13.95Q28.96 13.22 28.83 12.80Q28.70 12.38 28.13 12.38L28.13 12.38Q27.65 12.38 27.23 12.74L27.23 12.74Q26.59 13.25 26.43 13.63L26.43 13.63L25.38 21.38L22.50 21.38L23.55 13.95Q23.68 13.22 23.55 12.80Q23.42 12.38 22.82 12.38L22.82 12.38Q22.30 12.38 21.92 12.74L21.92 12.74Q21.28 13.31 21.15 13.63L21.15 13.63L20.06 21.38L17.12 21.38ZM32.64 21.38L34.24 10.05L36.86 10.05L36.74 11.55Q36.90 11.42 37.17 11.12Q37.44 10.82 37.82 10.53L37.82 10.53Q38.82 9.79 39.84 9.79Q40.86 9.79 41.38 10.16Q41.89 10.53 42.02 11.52L42.02 11.52Q42.66 10.59 44.06 9.98L44.06 9.98Q44.58 9.79 45.15 9.79L45.15 9.79Q46.59 9.79 47.10 10.69Q47.62 11.58 47.33 13.70L47.33 13.70L46.30 21.38L43.33 21.38L44.32 13.95Q44.48 13.22 44.35 12.80Q44.22 12.38 43.65 12.38L43.65 12.38Q43.17 12.38 42.75 12.74L42.75 12.74Q42.11 13.25 41.95 13.63L41.95 13.63L40.90 21.38L38.02 21.38L39.07 13.95Q39.20 13.22 39.07 12.80Q38.94 12.38 38.34 12.38L38.34 12.38Q37.82 12.38 37.44 12.74L37.44 12.74Q36.80 13.31 36.67 13.63L36.67 13.63L35.58 21.38L32.64 21.38ZM54.69 18.08L55.49 12.19Q54.91 12.13 53.98 12.13Q53.06 12.13 52.43 12.90Q51.81 13.66 51.54 15.66Q51.26 17.66 51.57 18.40Q51.87 19.14 52.77 19.14L52.77 19.14Q53.31 19.14 53.84 18.80Q54.37 18.46 54.69 18.08L54.69 18.08ZM54.69 21.38L54.69 20.03Q52.86 21.66 51.14 21.66L51.14 21.66Q48.64 21.66 48.29 18.56L48.29 18.56Q48.16 17.47 48.38 15.86Q48.61 14.24 49.15 13.09Q49.70 11.94 50.43 11.20L50.43 11.20Q51.81 9.86 53.86 9.86L53.86 9.86Q56.29 9.86 58.75 10.34L58.75 10.34L57.18 21.38L54.69 21.38ZM59.62 21.38L61.22 10.05L63.84 10.05L63.71 11.49L63.78 11.49Q63.94 11.39 64.24 11.10Q64.54 10.82 65.02 10.53L65.02 10.53Q66.21 9.79 67.36 9.79L67.36 9.79Q68.96 9.79 69.47 10.75Q69.98 11.71 69.70 13.73L69.70 13.73L68.61 21.38L65.70 21.38L66.62 14.46Q66.78 13.25 66.59 12.82Q66.40 12.38 65.73 12.38L65.73 12.38Q65.15 12.38 64.67 12.74L64.67 12.74Q63.78 13.44 63.68 13.63L63.68 13.63L62.59 21.38L59.62 21.38ZM77.22 18.08L78.02 12.19Q77.44 12.13 76.51 12.13Q75.58 12.13 74.96 12.90Q74.34 13.66 74.06 15.66Q73.79 17.66 74.10 18.40Q74.40 19.14 75.30 19.14L75.30 19.14Q75.84 19.14 76.37 18.80Q76.90 18.46 77.22 18.08L77.22 18.08ZM77.22 21.38L77.22 20.03Q75.39 21.66 73.66 21.66L73.66 21.66Q71.17 21.66 70.82 18.56L70.82 18.56Q70.69 17.47 70.91 15.86Q71.14 14.24 71.68 13.09Q72.22 11.94 72.96 11.20L72.96 11.20Q74.34 9.86 76.38 9.86L76.38 9.86Q78.82 9.86 81.28 10.34L81.28 10.34L79.71 21.38L77.22 21.38Z"/></svg>