<svg xmlns="http://www.w3.org/2000/svg" xmlns:xlink="http://www.w3.org/1999/xlink" width="232.0546875" height="31.171875"><path fill="black" d="M7.43 16.90L3.50 16.90L3.74 15.57L7.63 15.57Q8.92 15.57 9.89 15.06Q10.86 14.54 11.40 13.62Q11.93 12.70 11.93 11.52L11.93 11.52Q11.93 9.98 10.97 9.17Q10.02 8.36 8.64 8.36L8.64 8.36L5.13 8.36L5.44 6.96L8.72 6.96Q10.08 6.96 11.14 7.50Q12.21 8.04 12.83 9.05Q13.44 10.05 13.44 11.47L13.44 11.47Q13.44 13.10 12.67 14.33Q11.91 15.55 10.55 16.22Q9.19 16.90 7.43 16.90L7.43 16.90ZM2.50 24.23L0.94 24.23L4.38 6.96L5.94 6.96L2.50 24.23ZM12.11 24.23L10.45 24.23L6.84 16.69L8.07 15.76L12.11 24.23ZM20.32 24.42L20.32 24.42Q18.87 24.42 17.79 23.79Q16.71 23.16 16.12 21.99Q15.53 20.82 15.53 19.24L15.53 19.24Q15.53 17.80 15.98 16.45Q16.43 15.11 17.26 14.03Q18.08 12.95 19.22 12.32Q20.37 11.68 21.76 11.68L21.76 11.68Q23.17 11.68 24.15 12.32Q25.14 12.95 25.65 14.00Q26.16 15.06 26.16 16.32L26.16 16.32Q26.16 16.71 26.10 17.14Q26.05 17.58 25.97 17.96Q25.90 18.35 25.79 18.60L25.79 18.60L16.59 18.60L16.82 17.38L24.69 17.38Q24.75 17.10 24.77 16.83Q24.80 16.56 24.80 16.31L24.80 16.31Q24.80 14.85 23.97 13.93Q23.14 13.02 21.73 13.02L21.73 13.02Q20.63 13.02 19.74 13.55Q18.86 14.09 18.22 14.98Q17.59 15.88 17.24 16.98Q16.90 18.08 16.90 19.21L16.90 19.21Q16.90 20.96 17.80 22.03Q18.70 23.10 20.39 23.10L20.39 23.10Q21.38 23.10 22.22 22.74Q23.06 22.38 23.77 21.81L23.77 21.81L24.27 23.10Q23.52 23.64 22.52 24.03Q21.52 24.42 20.32 24.42ZM38.91 23.11L38.12 24.42Q37.61 24.09 37.29 23.78Q36.97 23.47 36.87 23.03Q36.77 22.58 36.90 21.86L36.90 21.86L37.22 22.29L36.45 22.29L37.15 21.16L38.30 15.40L38.03 14.21L38.26 14.21L39.87 6.19L41.34 6.19L38.38 21.07Q38.23 21.80 38.27 22.29Q38.31 22.78 38.91 23.11L38.91 23.11ZM32.70 24.42L32.70 24.42Q31.31 24.42 30.29 23.73Q29.27 23.04 28.72 21.83Q28.16 20.61 28.16 19.08L28.16 19.08Q28.16 17.67 28.62 16.35Q29.09 15.02 29.93 13.97Q30.77 12.93 31.93 12.30Q33.08 11.68 34.48 11.68L34.48 11.68Q35.91 11.68 36.84 12.33Q37.77 12.98 38.24 14.12Q38.71 15.26 38.71 16.70L38.71 16.70Q38.71 18.11 38.29 19.48Q37.86 20.85 37.08 21.97Q36.29 23.09 35.19 23.75Q34.08 24.42 32.70 24.42ZM32.81 23.07L32.81 23.07Q33.91 23.07 34.82 22.54Q35.73 22.01 36.38 21.12Q37.03 20.23 37.39 19.14Q37.75 18.05 37.75 16.92L37.75 16.92Q37.75 15.18 36.88 14.11Q36.02 13.04 34.49 13.04L34.49 13.04Q33.39 13.04 32.49 13.58Q31.59 14.11 30.96 15.01Q30.32 15.90 29.97 17.00Q29.63 18.09 29.63 19.22L29.63 19.22Q29.63 20.93 30.45 22.00Q31.27 23.07 32.81 23.07ZM52.99 23.11L52.21 24.42Q51.69 24.09 51.38 23.78Q51.06 23.47 50.96 23.03Q50.86 22.58 50.99 21.86L50.99 21.86L51.30 22.29L50.53 22.29L51.23 21.16L52.38 15.40L52.11 14.21L52.35 14.21L53.95 6.19L55.43 6.19L52.46 21.07Q52.31 21.80 52.35 22.29Q52.39 22.78 52.99 23.11L52.99 23.11ZM46.78 24.42L46.78 24.42Q45.40 24.42 44.38 23.73Q43.36 23.04 42.80 21.83Q42.25 20.61 42.25 19.08L42.25 19.08Q42.25 17.67 42.71 16.35Q43.17 15.02 44.02 13.97Q44.86 12.93 46.01 12.30Q47.17 11.68 48.56 11.68L48.56 11.68Q49.99 11.68 50.92 12.33Q51.86 12.98 52.32 14.12Q52.79 15.26 52.79 16.70L52.79 16.70Q52.79 18.11 52.37 19.48Q51.95 20.85 51.16 21.97Q50.38 23.09 49.27 23.75Q48.16 24.42 46.78 24.42ZM46.90 23.07L46.90 23.07Q48 23.07 48.91 22.54Q49.82 22.01 50.47 21.12Q51.12 20.23 51.47 19.14Q51.83 18.05 51.83 16.92L51.83 16.92Q51.83 15.18 50.97 14.11Q50.11 13.04 48.57 13.04L48.57 13.04Q47.47 13.04 46.58 13.58Q45.68 14.11 45.04 15.01Q44.40 15.90 44.06 17.00Q43.71 18.09 43.71 19.22L43.71 19.22Q43.71 20.93 44.53 22.00Q45.35 23.07 46.90 23.07ZM59.18 23.06L58.62 24.42Q57.56 24.21 57.08 23.74Q56.60 23.26 56.53 22.59Q56.46 21.91 56.63 21.11L56.63 21.11L58.45 11.87L59.93 11.87L58.02 21.54Q57.90 22.11 58.05 22.41Q58.20 22.70 58.50 22.84Q58.80 22.98 59.18 23.06L59.18 23.06ZM59.89 9.68L59.89 9.68Q59.34 9.68 58.97 9.30Q58.59 8.92 58.59 8.38L58.59 8.38Q58.59 7.84 58.97 7.46Q59.34 7.08 59.89 7.08L59.89 7.08Q60.43 7.08 60.81 7.46Q61.20 7.84 61.20 8.38L61.20 8.38Q61.20 8.92 60.81 9.30Q60.43 9.68 59.89 9.68ZM66.20 24.36L66.20 24.36Q65.14 24.36 64.51 23.92Q63.88 23.47 63.67 22.66Q63.46 21.86 63.67 20.77L63.67 20.77L66.26 7.75L67.73 7.75L65.14 20.84Q64.93 21.86 65.24 22.43Q65.54 23.00 66.33 23.00L66.33 23.00Q66.60 23.00 66.90 22.89Q67.20 22.78 67.41 22.65L67.41 22.65L67.90 23.91Q67.57 24.12 67.13 24.24Q66.68 24.36 66.20 24.36ZM69.61 13.21L63.33 13.21L63.59 11.87L69.87 11.87L69.61 13.21ZM81.43 24.42L81.43 24.42Q80.06 24.42 78.99 23.88Q77.92 23.34 77.26 22.49Q76.59 21.64 76.43 20.74L76.43 20.74L77.95 20.19Q78.05 20.95 78.55 21.60Q79.05 22.24 79.83 22.63Q80.61 23.02 81.52 23.02L81.52 23.02Q82.58 23.02 83.43 22.50Q84.28 21.98 84.78 21.15Q85.28 20.31 85.28 19.36L85.28 19.36Q85.28 18.42 84.80 17.78Q84.33 17.13 83.60 16.65Q82.86 16.17 82.03 15.71Q81.20 15.25 80.46 14.69Q79.72 14.13 79.25 13.34Q78.79 12.55 78.79 11.39L78.79 11.39Q78.79 10.05 79.44 9.02Q80.10 7.98 81.22 7.38Q82.35 6.77 83.78 6.77L83.78 6.77Q84.98 6.77 85.90 7.18Q86.81 7.59 87.38 8.26Q87.95 8.93 88.14 9.71L88.14 9.71L86.72 10.24Q86.59 9.79 86.23 9.30Q85.86 8.82 85.25 8.50Q84.63 8.18 83.74 8.18L83.74 8.18Q82.73 8.18 81.96 8.62Q81.18 9.06 80.73 9.80Q80.29 10.54 80.29 11.41L80.29 11.41Q80.29 12.35 80.75 12.97Q81.22 13.58 81.97 14.04Q82.71 14.51 83.54 14.95Q84.38 15.39 85.11 15.93Q85.85 16.48 86.32 17.27Q86.79 18.07 86.79 19.25L86.79 19.25Q86.79 20.67 86.09 21.85Q85.38 23.03 84.17 23.72Q82.96 24.42 81.43 24.42ZM93.84 24.42L93.84 24.42Q92.52 24.42 91.55 23.78Q90.57 23.13 90.05 21.98Q89.52 20.84 89.52 19.31L89.52 19.31Q89.52 17.87 89.95 16.52Q90.39 15.16 91.18 14.07Q91.97 12.97 93.08 12.33Q94.18 11.68 95.53 11.68L95.53 11.68Q96.97 11.68 97.96 12.45Q98.94 13.21 99.23 14.44L99.23 14.44L98.72 14.25L99.87 14.25L99.18 14.64L99.73 11.87L101.16 11.87L99.32 21.09Q99.16 21.84 99.21 22.36Q99.25 22.88 99.77 23.10L99.77 23.10L99.23 24.42Q98.72 24.21 98.38 23.86Q98.05 23.51 97.92 23.06Q97.78 22.61 97.88 22.08L97.88 22.08L98.36 22.36L97.30 22.36L98.20 21.74Q97.39 23.10 96.26 23.76Q95.13 24.42 93.84 24.42ZM94.02 23.07L94.02 23.07Q95.11 23.07 95.97 22.51Q96.83 21.94 97.44 21Q98.05 20.06 98.37 18.93Q98.68 17.79 98.68 16.66L98.68 16.66Q98.68 14.94 97.90 13.99Q97.13 13.04 95.73 13.04L95.73 13.04Q94.64 13.04 93.77 13.58Q92.89 14.11 92.28 15.01Q91.66 15.91 91.34 17.03Q91.01 18.14 91.01 19.30L91.01 19.30Q91.01 21.02 91.80 22.05Q92.59 23.07 94.02 23.07ZM112.52 23.07L111.97 24.42Q111.09 24.07 110.73 23.58Q110.37 23.09 110.34 22.51Q110.32 21.93 110.45 21.30L110.45 21.30L111.53 16.30Q111.84 14.80 111.26 13.90Q110.68 13.01 109.43 13.01L109.43 13.01Q108.45 13.01 107.60 13.52Q106.75 14.03 106.15 14.89Q105.56 15.76 105.35 16.82L105.35 16.82L103.88 24.23L102.40 24.23L104.86 11.87L106.29 11.87L105.94 13.63L106.30 13.63L105.43 14.43Q106.16 13.20 107.22 12.44Q108.28 11.68 109.79 11.68L109.79 11.68Q111.01 11.68 111.84 12.25Q112.68 12.81 113.00 13.80Q113.33 14.79 113.06 16.09L113.06 16.09L111.94 21.29Q111.77 22.04 111.87 22.45Q111.97 22.86 112.52 23.07L112.52 23.07ZM118.84 24.42L118.84 24.42Q117.83 24.42 117.02 24.04Q116.21 23.65 115.67 23.02Q115.13 22.39 114.93 21.67L114.93 21.67L116.27 21.08Q116.47 21.93 117.23 22.54Q118.00 23.14 118.93 23.14L118.93 23.14Q119.64 23.14 120.22 22.80Q120.80 22.46 121.15 21.90Q121.51 21.34 121.51 20.67L121.51 20.67Q121.51 19.98 121.15 19.56Q120.79 19.14 120.22 18.84Q119.65 18.55 119.00 18.28Q118.35 18.01 117.78 17.65Q117.21 17.29 116.84 16.71Q116.47 16.14 116.47 15.23L116.47 15.23Q116.47 14.18 116.99 13.38Q117.50 12.59 118.38 12.13Q119.25 11.68 120.34 11.68L120.34 11.68Q121.83 11.68 122.71 12.40Q123.59 13.13 123.82 13.97L123.82 13.97L122.52 14.48Q122.31 13.93 121.79 13.44Q121.27 12.95 120.30 12.95L120.30 12.95Q119.21 12.95 118.53 13.61Q117.84 14.26 117.84 15.16L117.84 15.16Q117.84 15.84 118.21 16.27Q118.58 16.69 119.16 16.97Q119.73 17.26 120.38 17.53Q121.02 17.79 121.59 18.15Q122.17 18.52 122.53 19.08Q122.89 19.65 122.89 20.57L122.89 20.57Q122.89 21.67 122.35 22.54Q121.80 23.41 120.88 23.92Q119.96 24.42 118.84 24.42ZM136.20 24.42L136.20 24.42Q134.66 24.42 133.45 23.76Q132.23 23.10 131.61 21.95Q130.98 20.80 131.19 19.36L131.19 19.36L132.67 19.44Q132.56 20.51 133.01 21.32Q133.46 22.13 134.31 22.58Q135.16 23.04 136.25 23.04L136.25 23.04Q137.50 23.04 138.46 22.48Q139.42 21.93 139.96 20.99Q140.51 20.06 140.51 18.96L140.51 18.96Q140.51 18.04 140.12 17.41Q139.73 16.79 139.14 16.44Q138.55 16.08 137.88 15.92Q137.21 15.76 136.65 15.76L136.65 15.76L136.02 15.76L136.29 14.43L137.11 14.43Q138.18 14.43 139.11 13.90Q140.05 13.37 140.63 12.52Q141.21 11.66 141.21 10.68L141.21 10.68Q141.21 9.56 140.43 8.86Q139.65 8.16 138.35 8.16L138.35 8.16Q137.39 8.16 136.62 8.55Q135.86 8.95 135.38 9.64Q134.91 10.34 134.80 11.23L134.80 11.23L133.27 11.13Q133.45 9.82 134.16 8.84Q134.86 7.86 135.95 7.31Q137.04 6.76 138.39 6.76L138.39 6.76Q139.69 6.76 140.67 7.25Q141.66 7.75 142.21 8.61Q142.77 9.47 142.77 10.56L142.77 10.56Q142.77 11.54 142.33 12.43Q141.89 13.31 141.15 13.99Q140.41 14.66 139.48 15.03Q138.55 15.40 137.57 15.34L137.57 15.34L137.60 14.88Q139.02 14.84 140.00 15.39Q140.99 15.94 141.50 16.90Q142.02 17.86 142.02 19.04L142.02 19.04Q142.02 20.54 141.24 21.77Q140.46 22.99 139.14 23.71Q137.81 24.42 136.20 24.42ZM150.50 24.42L150.50 24.42Q148.61 24.42 147.30 23.45Q145.99 22.48 145.48 20.70Q144.97 18.91 145.46 16.49L145.46 16.49L145.85 14.55Q146.34 12.14 147.38 10.39Q148.41 8.65 149.91 7.71Q151.41 6.76 153.28 6.76L153.28 6.76Q155.13 6.76 156.42 7.69Q157.70 8.63 158.20 10.41Q158.71 12.19 158.19 14.72L158.19 14.72L157.79 16.66Q157.05 20.29 155.16 22.35Q153.27 24.42 150.50 24.42ZM150.47 23.04L150.47 23.04Q151.89 23.04 153.04 22.27Q154.18 21.49 155.00 20.06Q155.82 18.62 156.22 16.66L156.22 16.66L156.69 14.40Q157.11 12.40 156.80 11.00Q156.48 9.61 155.57 8.88Q154.65 8.16 153.25 8.16L153.25 8.16Q151.79 8.16 150.63 8.94Q149.46 9.71 148.65 11.14Q147.83 12.57 147.42 14.55L147.42 14.55L146.96 16.80Q146.58 18.68 146.89 20.08Q147.21 21.48 148.13 22.26Q149.05 23.04 150.47 23.04ZM165.97 24.42L165.97 24.42Q164.07 24.42 162.77 23.45Q161.46 22.48 160.95 20.70Q160.44 18.91 160.93 16.49L160.93 16.49L161.32 14.55Q161.81 12.14 162.84 10.39Q163.88 8.65 165.38 7.71Q166.88 6.76 168.75 6.76L168.75 6.76Q170.60 6.76 171.88 7.69Q173.17 8.63 173.67 10.41Q174.18 12.19 173.66 14.72L173.66 14.72L173.26 16.66Q172.52 20.29 170.63 22.35Q168.74 24.42 165.97 24.42ZM165.94 23.04L165.94 23.04Q167.36 23.04 168.50 22.27Q169.65 21.49 170.47 20.06Q171.29 18.62 171.69 16.66L171.69 16.66L172.16 14.40Q172.58 12.40 172.27 11.00Q171.95 9.61 171.04 8.88Q170.12 8.16 168.71 8.16L168.71 8.16Q167.26 8.16 166.10 8.94Q164.93 9.71 164.12 11.14Q163.30 12.57 162.89 14.55L162.89 14.55L162.43 16.80Q162.05 18.68 162.36 20.08Q162.68 21.48 163.60 22.26Q164.52 23.04 165.94 23.04ZM184.21 23.06L183.64 24.42Q182.59 24.21 182.11 23.74Q181.63 23.26 181.56 22.59Q181.49 21.91 181.65 21.11L181.65 21.11L183.48 11.87L184.96 11.87L183.05 21.54Q182.93 22.11 183.08 22.41Q183.22 22.70 183.53 22.84Q183.83 22.98 184.21 23.06L184.21 23.06ZM184.92 9.68L184.92 9.68Q184.37 9.68 184.00 9.30Q183.62 8.92 183.62 8.38L183.62 8.38Q183.62 7.84 184.00 7.46Q184.37 7.08 184.92 7.08L184.92 7.08Q185.46 7.08 185.84 7.46Q186.22 7.84 186.22 8.38L186.22 8.38Q186.22 8.92 185.84 9.30Q185.46 9.68 184.92 9.68ZM191.23 24.36L191.23 24.36Q190.17 24.36 189.54 23.92Q188.91 23.47 188.70 22.66Q188.48 21.86 188.70 20.77L188.70 20.77L191.29 7.75L192.76 7.75L190.17 20.84Q189.96 21.86 190.27 22.43Q190.57 23.00 191.36 23.00L191.36 23.00Q191.63 23.00 191.92 22.89Q192.22 22.78 192.43 22.65L192.43 22.65L192.93 23.91Q192.60 24.12 192.15 24.24Q191.71 24.36 191.23 24.36ZM194.64 13.21L188.36 13.21L188.61 11.87L194.89 11.87L194.64 13.21ZM200.40 24.42L200.40 24.42Q199.08 24.42 198.11 23.78Q197.13 23.13 196.61 21.98Q196.08 20.84 196.08 19.31L196.08 19.31Q196.08 17.87 196.51 16.52Q196.95 15.16 197.74 14.07Q198.53 12.97 199.63 12.33Q200.74 11.68 202.09 11.68L202.09 11.68Q203.53 11.68 204.52 12.45Q205.50 13.21 205.79 14.44L205.79 14.44L205.28 14.25L206.43 14.25L205.73 14.64L206.29 11.87L207.71 11.87L205.88 21.09Q205.72 21.84 205.76 22.36Q205.80 22.88 206.33 23.10L206.33 23.10L205.79 24.42Q205.28 24.21 204.94 23.86Q204.61 23.51 204.47 23.06Q204.34 22.61 204.43 22.08L204.43 22.08L204.91 22.36L203.86 22.36L204.76 21.74Q203.95 23.10 202.82 23.76Q201.69 24.42 200.40 24.42ZM200.58 23.07L200.58 23.07Q201.67 23.07 202.53 22.51Q203.39 21.94 204 21Q204.61 20.06 204.93 18.93Q205.24 17.79 205.24 16.66L205.24 16.66Q205.24 14.94 204.46 13.99Q203.68 13.04 202.29 13.04L202.29 13.04Q201.20 13.04 200.33 13.58Q199.45 14.11 198.84 15.01Q198.22 15.91 197.89 17.03Q197.57 18.14 197.57 19.30L197.57 19.30Q197.57 21.02 198.36 22.05Q199.15 23.07 200.58 23.07ZM211.25 24.36L211.25 24.36Q210.46 24.36 210.02 24Q209.58 23.64 209.46 23.02Q209.34 22.41 209.48 21.67L209.48 21.67L212.60 6.19L214.08 6.19L210.96 21.75Q210.71 22.99 211.58 22.99L211.58 22.99Q211.82 22.99 212.09 22.93Q212.36 22.86 212.50 22.79L212.50 22.79L212.30 24.20Q212.09 24.28 211.80 24.32Q211.52 24.36 211.25 24.36ZM218.26 23.06L217.70 24.42Q216.64 24.21 216.16 23.74Q215.68 23.26 215.61 22.59Q215.54 21.91 215.71 21.11L215.71 21.11L217.54 11.87L219.01 11.87L217.10 21.54Q216.98 22.11 217.13 22.41Q217.28 22.70 217.58 22.84Q217.89 22.98 218.26 23.06L218.26 23.06ZM218.98 9.68L218.98 9.68Q218.43 9.68 218.05 9.30Q217.68 8.92 217.68 8.38L217.68 8.38Q217.68 7.84 218.05 7.46Q218.43 7.08 218.98 7.08L218.98 7.08Q219.52 7.08 219.90 7.46Q220.28 7.84 220.28 8.38L220.28 8.38Q220.28 8.92 219.90 9.30Q219.52 9.68 218.98 9.68ZM226.45 24.40L226.45 24.40Q225 24.40 223.90 23.72Q222.80 23.05 222.18 21.84Q221.55 20.64 221.55 19.05L221.55 19.05Q221.55 17.58 222.04 16.25Q222.53 14.93 223.41 13.90Q224.29 12.88 225.50 12.28Q226.72 11.68 228.19 11.68L228.19 11.68Q229.30 11.68 230.30 12.04Q231.29 12.40 231.83 12.94L231.83 12.94L231.07 14.17Q230.68 13.65 229.86 13.35Q229.04 13.04 228.14 13.04L228.14 13.04Q227.00 13.04 226.07 13.54Q225.13 14.04 224.45 14.89Q223.77 15.75 223.41 16.83Q223.04 17.91 223.04 19.04L223.04 19.04Q223.04 20.21 223.45 21.11Q223.86 22.01 224.63 22.52Q225.39 23.04 226.44 23.04L226.44 23.04Q227.40 23.04 228.33 22.62Q229.25 22.21 229.80 21.70L229.80 21.70L230.23 23.07Q229.37 23.70 228.42 24.05Q227.47 24.40 226.45 24.40Z"/></svg>