<svg xmlns="http://www.w3.org/2000/svg" xmlns:xlink="http://www.w3.org/1999/xlink" width="247.171875" height="31.171875"><path fill="black" d="M7.89 17.98L4.29 17.98L4.83 15.23L8.09 15.23Q9.01 15.23 9.69 14.84Q10.37 14.45 10.75 13.78Q11.12 13.11 11.12 12.30L11.12 12.30Q11.12 11.12 10.41 10.55Q9.69 9.97 8.66 9.97L8.66 9.97L5.71 9.97L6.34 6.96L8.85 6.96Q10.48 6.96 11.75 7.56Q13.03 8.17 13.77 9.31Q14.51 10.45 14.51 12.08L14.51 12.08Q14.51 13.83 13.65 15.16Q12.80 16.49 11.30 17.23Q9.81 17.98 7.89 17.98L7.89 17.98ZM3.97 24.23L0.55 24.23L4.01 6.96L7.44 6.96L3.97 24.23ZM13.52 24.23L9.91 24.23L6.86 17.50L9.53 15.64L13.52 24.23ZM21.89 24.42L21.89 24.42Q20.16 24.42 18.91 23.72Q17.66 23.02 16.99 21.76Q16.31 20.50 16.31 18.84L16.31 18.84Q16.31 17.43 16.80 16.11Q17.29 14.79 18.18 13.75Q19.07 12.71 20.27 12.11Q21.48 11.50 22.91 11.50L22.91 11.50Q24.39 11.50 25.52 12.13Q26.65 12.77 27.29 13.86Q27.93 14.95 27.93 16.29L27.93 16.29Q27.93 16.76 27.85 17.25Q27.77 17.74 27.65 18.19Q27.53 18.64 27.38 19.01L27.38 19.01L18.59 19.01L19.00 16.85L24.97 16.85Q25.01 16.71 25.02 16.58Q25.03 16.44 25.03 16.34L25.03 16.34Q25.03 15.38 24.39 14.77Q23.74 14.17 22.73 14.17L22.73 14.17Q21.94 14.17 21.27 14.55Q20.60 14.93 20.12 15.57Q19.63 16.22 19.36 17.02Q19.09 17.82 19.09 18.66L19.09 18.66Q19.09 20.04 19.86 20.92Q20.63 21.80 22.00 21.80L22.00 21.80Q22.80 21.80 23.58 21.52Q24.36 21.25 24.83 20.85L24.83 20.85L25.86 23.39Q25.01 23.88 23.98 24.15Q22.95 24.42 21.89 24.42ZM41.54 21.71L39.95 24.40Q39.29 24.11 38.83 23.78Q38.37 23.45 38.12 23.03Q37.86 22.62 37.85 22.07L37.85 22.07L38.43 22.61L37.13 22.61L37.92 21.21L39.32 14.50L38.63 13.13L39.12 13.13L40.49 6.19L43.73 6.19L40.93 20.23Q40.80 20.85 40.92 21.16Q41.04 21.48 41.54 21.71L41.54 21.71ZM33.93 24.42L33.93 24.42Q32.59 24.42 31.54 23.76Q30.49 23.10 29.88 21.88Q29.27 20.67 29.27 19.01L29.27 19.01Q29.27 17.57 29.74 16.22Q30.21 14.88 31.05 13.82Q31.90 12.75 33.06 12.12Q34.22 11.50 35.60 11.50L35.60 11.50Q37.05 11.50 38.06 12.19Q39.06 12.88 39.59 14.07Q40.11 15.26 40.11 16.78L40.11 16.78Q40.11 18.20 39.66 19.56Q39.21 20.93 38.38 22.03Q37.55 23.12 36.42 23.77Q35.29 24.42 33.93 24.42ZM34.78 21.66L34.78 21.66Q35.60 21.66 36.28 21.26Q36.95 20.86 37.43 20.20Q37.91 19.55 38.17 18.73Q38.44 17.92 38.44 17.09L38.44 17.09Q38.44 15.81 37.82 15.04Q37.21 14.26 36.07 14.26L36.07 14.26Q35.25 14.26 34.58 14.66Q33.91 15.06 33.44 15.72Q32.96 16.38 32.71 17.20Q32.45 18.02 32.45 18.86L32.45 18.86Q32.45 20.17 33.07 20.91Q33.69 21.66 34.78 21.66ZM56.34 21.71L54.75 24.40Q54.09 24.11 53.63 23.78Q53.17 23.45 52.92 23.03Q52.66 22.62 52.65 22.07L52.65 22.07L53.23 22.61L51.93 22.61L52.72 21.21L54.12 14.50L53.43 13.13L53.92 13.13L55.29 6.19L58.54 6.19L55.73 20.23Q55.61 20.85 55.72 21.16Q55.84 21.48 56.34 21.71L56.34 21.71ZM48.73 24.42L48.73 24.42Q47.39 24.42 46.34 23.76Q45.29 23.10 44.68 21.88Q44.07 20.67 44.07 19.01L44.07 19.01Q44.07 17.57 44.54 16.22Q45.01 14.88 45.86 13.82Q46.70 12.75 47.86 12.12Q49.02 11.50 50.40 11.50L50.40 11.50Q51.86 11.50 52.86 12.19Q53.86 12.88 54.39 14.07Q54.91 15.26 54.91 16.78L54.91 16.78Q54.91 18.20 54.46 19.56Q54.01 20.93 53.18 22.03Q52.35 23.12 51.22 23.77Q50.09 24.42 48.73 24.42ZM49.58 21.66L49.58 21.66Q50.40 21.66 51.08 21.26Q51.75 20.86 52.23 20.20Q52.71 19.55 52.97 18.73Q53.24 17.92 53.24 17.09L53.24 17.09Q53.24 15.81 52.62 15.04Q52.01 14.26 50.87 14.26L50.87 14.26Q50.05 14.26 49.38 14.66Q48.71 15.06 48.24 15.72Q47.77 16.38 47.51 17.20Q47.25 18.02 47.25 18.86L47.25 18.86Q47.25 20.17 47.87 20.91Q48.49 21.66 49.58 21.66ZM63.74 21.70L62.61 24.42Q61.15 24.30 60.32 23.75Q59.50 23.20 59.24 22.26Q58.99 21.32 59.26 20.03L59.26 20.03L60.93 11.68L64.17 11.68L62.45 20.32Q62.34 20.84 62.55 21.11Q62.77 21.39 63.11 21.52Q63.46 21.64 63.74 21.70L63.74 21.70ZM63.28 10.07L63.28 10.07Q62.40 10.07 61.81 9.47Q61.22 8.87 61.22 8.02L61.22 8.02Q61.22 7.15 61.81 6.56Q62.40 5.96 63.27 5.96L63.27 5.96Q64.14 5.96 64.73 6.56Q65.33 7.15 65.33 8.02L65.33 8.02Q65.33 8.87 64.73 9.47Q64.14 10.07 63.28 10.07ZM70.96 24.42L70.96 24.42Q69.48 24.42 68.61 23.87Q67.75 23.32 67.44 22.40Q67.14 21.48 67.35 20.39L67.35 20.39L69.82 7.93L73.04 7.93L70.66 20.04Q70.51 20.81 70.72 21.19Q70.92 21.57 71.40 21.57L71.40 21.57Q71.73 21.57 72.04 21.45Q72.34 21.32 72.49 21.21L72.49 21.21L73.57 23.82Q73.10 24.05 72.38 24.23Q71.65 24.42 70.96 24.42ZM74.64 14.26L66.54 14.26L67.05 11.68L75.15 11.68L74.64 14.26ZM87.98 24.42L87.98 24.42Q86.44 24.42 85.20 23.85Q83.95 23.29 83.16 22.35Q82.36 21.41 82.14 20.31L82.14 20.31L85.49 18.97Q85.58 19.61 85.96 20.15Q86.33 20.70 86.91 21.04Q87.49 21.38 88.18 21.38L88.18 21.38Q88.83 21.38 89.35 21.07Q89.87 20.77 90.18 20.26Q90.49 19.75 90.49 19.14L90.49 19.14Q90.49 18.39 90.05 17.89Q89.60 17.39 88.89 17.00Q88.18 16.61 87.40 16.20Q86.61 15.80 85.90 15.25Q85.20 14.70 84.75 13.88Q84.30 13.07 84.30 11.85L84.30 11.85Q84.30 10.31 85.04 9.18Q85.78 8.04 87.06 7.41Q88.35 6.77 89.95 6.77L89.95 6.77Q91.37 6.77 92.48 7.24Q93.60 7.71 94.31 8.50Q95.03 9.28 95.23 10.24L95.23 10.24L92.02 11.52Q91.92 11.10 91.63 10.71Q91.35 10.32 90.88 10.07Q90.41 9.82 89.78 9.82L89.78 9.82Q89.16 9.82 88.68 10.07Q88.21 10.32 87.94 10.75Q87.67 11.18 87.67 11.72L87.67 11.72Q87.67 12.43 88.11 12.92Q88.56 13.41 89.27 13.79Q89.98 14.18 90.76 14.59Q91.55 15 92.26 15.56Q92.96 16.11 93.41 16.95Q93.86 17.78 93.86 19.02L93.86 19.02Q93.86 20.59 93.09 21.81Q92.33 23.03 91.00 23.72Q89.67 24.42 87.98 24.42ZM100.43 24.42L100.43 24.42Q99.11 24.42 98.09 23.78Q97.08 23.13 96.50 21.94Q95.93 20.74 95.93 19.11L95.93 19.11Q95.93 17.67 96.37 16.31Q96.81 14.94 97.61 13.86Q98.40 12.77 99.52 12.13Q100.64 11.50 102.01 11.50L102.01 11.50Q103.36 11.50 104.31 12.15Q105.27 12.80 105.71 13.91L105.71 13.91L104.02 13.46L106.84 13.46L105.33 14.51L105.90 11.68L108.94 11.68L107.21 20.20Q107.10 20.81 107.19 21.18Q107.27 21.55 107.77 21.71L107.77 21.71L106.66 24.42Q105.89 24.25 105.28 23.88Q104.67 23.51 104.33 23.00Q103.99 22.50 104.04 21.93L104.04 21.93L105.57 22.66L102.66 22.66L104.82 21.69Q104.03 23.02 102.91 23.72Q101.80 24.42 100.43 24.42ZM101.34 21.64L101.34 21.64Q102.11 21.64 102.74 21.25Q103.38 20.86 103.85 20.20Q104.32 19.55 104.57 18.72Q104.82 17.89 104.82 17.02L104.82 17.02Q104.82 15.73 104.22 14.99Q103.62 14.25 102.55 14.25L102.55 14.25Q101.78 14.25 101.14 14.63Q100.50 15.01 100.04 15.66Q99.57 16.30 99.33 17.12Q99.09 17.94 99.09 18.82L99.09 18.82Q99.09 20.12 99.70 20.88Q100.30 21.64 101.34 21.64ZM121.51 21.73L120.40 24.43Q119.24 24.26 118.54 23.79Q117.84 23.33 117.60 22.58Q117.36 21.83 117.57 20.80L117.57 20.80L118.50 16.46Q118.75 15.30 118.27 14.75Q117.79 14.19 116.99 14.19L116.99 14.19Q116.31 14.19 115.75 14.57Q115.18 14.95 114.78 15.66Q114.38 16.36 114.18 17.33L114.18 17.33L112.79 24.23L109.56 24.23L112.07 11.68L115.18 11.68L114.86 13.30L115.31 13.30L114.25 14.43Q114.93 12.95 116.02 12.22Q117.12 11.50 118.51 11.50L118.51 11.50Q119.72 11.50 120.57 12.05Q121.43 12.61 121.79 13.62Q122.14 14.64 121.85 15.97L121.85 15.97L120.94 20.29Q120.77 21.02 120.92 21.32Q121.07 21.62 121.51 21.73L121.51 21.73ZM127.77 24.42L127.77 24.42Q126.61 24.42 125.63 24Q124.64 23.58 123.98 22.89Q123.32 22.21 123.09 21.40L123.09 21.40L125.84 20.23Q126.04 20.78 126.60 21.26Q127.16 21.74 127.90 21.74L127.90 21.74Q128.33 21.74 128.68 21.56Q129.04 21.38 129.24 21.08Q129.45 20.79 129.45 20.45L129.45 20.45Q129.45 20.00 129.11 19.72Q128.77 19.44 128.23 19.21Q127.69 18.98 127.08 18.72Q126.48 18.46 125.94 18.06Q125.40 17.66 125.06 17.04Q124.72 16.42 124.72 15.47L124.72 15.47Q124.72 14.26 125.31 13.37Q125.89 12.48 126.90 11.99Q127.90 11.50 129.14 11.50L129.14 11.50Q130.82 11.50 131.90 12.28Q132.98 13.07 133.29 14.11L133.29 14.11L130.65 15.26Q130.44 14.85 130.03 14.51Q129.61 14.18 128.99 14.18L128.99 14.18Q128.31 14.18 127.91 14.57Q127.51 14.95 127.51 15.41L127.51 15.41Q127.51 15.86 127.86 16.13Q128.21 16.41 128.77 16.62Q129.33 16.83 129.95 17.07Q130.57 17.31 131.13 17.68Q131.68 18.06 132.04 18.66Q132.39 19.27 132.39 20.21L132.39 20.21Q132.39 21.42 131.78 22.38Q131.17 23.33 130.13 23.88Q129.08 24.42 127.77 24.42ZM144.89 24.23L141.34 24.23L150.66 8.31L151.41 9.90L142.07 9.90L142.65 6.96L154.61 6.96L154.49 7.58L144.89 24.23ZM159.62 24.42L159.62 24.42Q157.64 24.42 156.26 23.46Q154.89 22.49 154.34 20.71Q153.80 18.93 154.29 16.46L154.29 16.46L154.68 14.50Q155.17 12.04 156.25 10.31Q157.34 8.58 158.89 7.67Q160.45 6.76 162.33 6.76L162.33 6.76Q164.26 6.76 165.62 7.71Q166.97 8.66 167.51 10.43Q168.06 12.20 167.55 14.70L167.55 14.70L167.14 16.78Q166.41 20.45 164.43 22.44Q162.45 24.42 159.62 24.42ZM159.75 21.53L159.75 21.53Q160.75 21.53 161.54 20.99Q162.33 20.46 162.90 19.45Q163.46 18.43 163.77 17.00L163.77 17.00L164.40 13.95Q164.70 12.54 164.49 11.60Q164.29 10.66 163.67 10.19Q163.05 9.71 162.11 9.71L162.11 9.71Q161.10 9.71 160.29 10.24Q159.48 10.77 158.92 11.78Q158.36 12.79 158.05 14.24L158.05 14.24L157.45 17.30Q157.17 18.70 157.38 19.64Q157.59 20.58 158.21 21.05Q158.82 21.53 159.75 21.53ZM175.10 24.42L175.10 24.42Q173.12 24.42 171.74 23.46Q170.37 22.49 169.82 20.71Q169.28 18.93 169.77 16.46L169.77 16.46L170.16 14.50Q170.65 12.04 171.73 10.31Q172.82 8.58 174.38 7.67Q175.93 6.76 177.81 6.76L177.81 6.76Q179.74 6.76 181.10 7.71Q182.45 8.66 182.99 10.43Q183.54 12.20 183.04 14.70L183.04 14.70L182.63 16.78Q181.89 20.45 179.91 22.44Q177.93 24.42 175.10 24.42ZM175.23 21.53L175.23 21.53Q176.23 21.53 177.02 20.99Q177.81 20.46 178.38 19.45Q178.95 18.43 179.25 17.00L179.25 17.00L179.88 13.95Q180.18 12.54 179.97 11.60Q179.77 10.66 179.15 10.19Q178.54 9.71 177.59 9.71L177.59 9.71Q176.58 9.71 175.77 10.24Q174.96 10.77 174.40 11.78Q173.84 12.79 173.53 14.24L173.53 14.24L172.93 17.30Q172.65 18.70 172.86 19.64Q173.07 20.58 173.69 21.05Q174.30 21.53 175.23 21.53ZM195.71 21.70L194.59 24.42Q193.13 24.30 192.30 23.75Q191.47 23.20 191.22 22.26Q190.97 21.32 191.24 20.03L191.24 20.03L192.90 11.68L196.15 11.68L194.43 20.32Q194.32 20.84 194.53 21.11Q194.74 21.39 195.09 21.52Q195.43 21.64 195.71 21.70L195.71 21.70ZM195.26 10.07L195.26 10.07Q194.38 10.07 193.79 9.47Q193.20 8.87 193.20 8.02L193.20 8.02Q193.20 7.15 193.79 6.56Q194.38 5.96 195.25 5.96L195.25 5.96Q196.11 5.96 196.71 6.56Q197.31 7.15 197.31 8.02L197.31 8.02Q197.31 8.87 196.71 9.47Q196.11 10.07 195.26 10.07ZM202.93 24.42L202.93 24.42Q201.46 24.42 200.59 23.87Q199.72 23.32 199.42 22.40Q199.11 21.48 199.32 20.39L199.32 20.39L201.80 7.93L205.02 7.93L202.64 20.04Q202.49 20.81 202.69 21.19Q202.90 21.57 203.38 21.57L203.38 21.57Q203.71 21.57 204.01 21.45Q204.32 21.32 204.47 21.21L204.47 21.21L205.55 23.82Q205.08 24.05 204.35 24.23Q203.63 24.42 202.93 24.42ZM206.61 14.26L198.52 14.26L199.03 11.68L207.13 11.68L206.61 14.26ZM212.46 24.42L212.46 24.42Q211.14 24.42 210.12 23.78Q209.11 23.13 208.54 21.94Q207.96 20.74 207.96 19.11L207.96 19.11Q207.96 17.67 208.40 16.31Q208.84 14.94 209.64 13.86Q210.43 12.77 211.55 12.13Q212.67 11.50 214.04 11.50L214.04 11.50Q215.39 11.50 216.35 12.15Q217.30 12.80 217.75 13.91L217.75 13.91L216.05 13.46L218.87 13.46L217.36 14.51L217.93 11.68L220.97 11.68L219.25 20.20Q219.13 20.81 219.22 21.18Q219.30 21.55 219.80 21.71L219.80 21.71L218.70 24.42Q217.92 24.25 217.31 23.88Q216.70 23.51 216.36 23.00Q216.02 22.50 216.07 21.93L216.07 21.93L217.61 22.66L214.69 22.66L216.86 21.69Q216.06 23.02 214.95 23.72Q213.83 24.42 212.46 24.42ZM213.38 21.64L213.38 21.64Q214.14 21.64 214.78 21.25Q215.41 20.86 215.88 20.20Q216.35 19.55 216.60 18.72Q216.86 17.89 216.86 17.02L216.86 17.02Q216.86 15.73 216.25 14.99Q215.65 14.25 214.58 14.25L214.58 14.25Q213.81 14.25 213.17 14.63Q212.53 15.01 212.07 15.66Q211.61 16.30 211.37 17.12Q211.13 17.94 211.13 18.82L211.13 18.82Q211.13 20.12 211.73 20.88Q212.33 21.64 213.38 21.64ZM224.91 24.41L224.91 24.41Q223.90 24.41 223.24 24Q222.57 23.59 222.32 22.81Q222.06 22.03 222.27 20.93L222.27 20.93L225.21 6.19L228.47 6.19L225.59 20.59Q225.39 21.59 226.23 21.59L226.23 21.59Q226.43 21.59 226.66 21.54Q226.89 21.49 227.03 21.43L227.03 21.43L226.58 24.13Q226.23 24.28 225.76 24.35Q225.28 24.41 224.91 24.41ZM234.14 21.70L233.02 24.42Q231.55 24.30 230.72 23.75Q229.90 23.20 229.65 22.26Q229.39 21.32 229.66 20.03L229.66 20.03L231.33 11.68L234.57 11.68L232.85 20.32Q232.75 20.84 232.96 21.11Q233.17 21.39 233.51 21.52Q233.86 21.64 234.14 21.70L234.14 21.70ZM233.68 10.07L233.68 10.07Q232.80 10.07 232.21 9.47Q231.62 8.87 231.62 8.02L231.62 8.02Q231.62 7.15 232.21 6.56Q232.80 5.96 233.67 5.96L233.67 5.96Q234.54 5.96 235.14 6.56Q235.73 7.15 235.73 8.02L235.73 8.02Q235.73 8.87 235.14 9.47Q234.54 10.07 233.68 10.07ZM241.95 24.38L241.95 24.38Q240.39 24.38 239.13 23.71Q237.87 23.05 237.13 21.80Q236.40 20.55 236.40 18.81L236.40 18.81Q236.40 17.32 236.92 16.00Q237.43 14.67 238.37 13.66Q239.31 12.66 240.59 12.08Q241.86 11.50 243.39 11.50L243.39 11.50Q244.69 11.50 245.70 11.89Q246.71 12.28 247.22 12.74L247.22 12.74L245.61 15.22Q245.25 14.80 244.56 14.55Q243.88 14.31 243.21 14.31L243.21 14.31Q242.40 14.31 241.73 14.68Q241.07 15.06 240.58 15.69Q240.09 16.32 239.83 17.11Q239.57 17.89 239.57 18.73L239.57 18.73Q239.57 19.56 239.87 20.19Q240.18 20.81 240.75 21.15Q241.32 21.49 242.13 21.49L242.13 21.49Q242.87 21.49 243.61 21.20Q244.35 20.91 244.85 20.52L244.85 20.52L245.57 23.34Q244.85 23.82 243.89 24.10Q242.93 24.38 241.95 24.38Z"/></svg>