<svg xmlns="http://www.w3.org/2000/svg" xmlns:xlink="http://www.w3.org/1999/xlink" width="328.63200000000006" height="32.64"><path fill="black" d="M14.59 8.50L14.59 25.63L13.66 25.63L3.36 10.22L3.31 10.22Q3.34 10.92 3.34 11.53Q3.34 12.14 3.34 12.73Q3.34 13.32 3.34 13.97L3.34 13.97L3.34 25.63L2.42 25.63L2.42 8.50L3.38 8.50L13.66 23.83L13.70 23.83Q13.70 23.23 13.69 22.61Q13.68 21.98 13.67 21.36Q13.66 20.74 13.66 20.18L13.66 20.18L13.66 8.50L14.59 8.50ZM29.57 19.27L29.57 19.27Q29.57 20.69 29.23 21.89Q28.90 23.09 28.20 23.98Q27.50 24.86 26.45 25.37Q25.39 25.87 23.98 25.87L23.98 25.87Q22.58 25.87 21.55 25.38Q20.52 24.89 19.82 24Q19.13 23.11 18.78 21.91Q18.43 20.71 18.43 19.27L18.43 19.27Q18.43 17.23 19.10 15.76Q19.78 14.28 21.05 13.48Q22.32 12.67 24.10 12.67L24.10 12.67Q26.02 12.67 27.23 13.54Q28.44 14.40 29.00 15.89Q29.57 17.38 29.57 19.27ZM19.42 19.27L19.42 19.27Q19.42 20.95 19.92 22.26Q20.42 23.57 21.43 24.30Q22.44 25.03 23.98 25.03L23.98 25.03Q25.56 25.03 26.58 24.29Q27.60 23.54 28.08 22.25Q28.56 20.95 28.56 19.27L28.56 19.27Q28.56 17.66 28.12 16.36Q27.67 15.05 26.70 14.28Q25.73 13.51 24.10 13.51L24.10 13.51Q21.84 13.51 20.63 15.04Q19.42 16.56 19.42 19.27ZM36.31 25.01L36.31 25.01Q36.91 25.01 37.37 24.92Q37.82 24.84 38.23 24.67L38.23 24.67L38.23 25.51Q37.82 25.66 37.34 25.76Q36.86 25.87 36.17 25.87L36.17 25.87Q35.06 25.87 34.39 25.44Q33.72 25.01 33.43 24.18Q33.14 23.35 33.14 22.18L33.14 22.18L33.14 13.75L31.22 13.75L31.22 13.10L33.17 12.91L33.41 9.82L34.13 9.82L34.13 12.91L38.18 12.91L38.18 13.75L34.13 13.75L34.13 22.08Q34.13 23.47 34.60 24.24Q35.06 25.01 36.31 25.01ZM51.43 19.27L51.43 19.27Q51.43 20.69 51.10 21.89Q50.76 23.09 50.06 23.98Q49.37 24.86 48.31 25.37Q47.26 25.87 45.84 25.87L45.84 25.87Q44.45 25.87 43.42 25.38Q42.38 24.89 41.69 24Q40.99 23.11 40.64 21.91Q40.30 20.71 40.30 19.27L40.30 19.27Q40.30 17.23 40.97 15.76Q41.64 14.28 42.91 13.48Q44.18 12.67 45.96 12.67L45.96 12.67Q47.88 12.67 49.09 13.54Q50.30 14.40 50.87 15.89Q51.43 17.38 51.43 19.27ZM41.28 19.27L41.28 19.27Q41.28 20.95 41.78 22.26Q42.29 23.57 43.30 24.30Q44.30 25.03 45.84 25.03L45.84 25.03Q47.42 25.03 48.44 24.29Q49.46 23.54 49.94 22.25Q50.42 20.95 50.42 19.27L50.42 19.27Q50.42 17.66 49.98 16.36Q49.54 15.05 48.56 14.28Q47.59 13.51 45.96 13.51L45.96 13.51Q43.70 13.51 42.49 15.04Q41.28 16.56 41.28 19.27ZM71.16 21.24L71.16 21.24Q71.16 22.75 70.38 23.80Q69.60 24.84 68.28 25.36Q66.96 25.87 65.33 25.87L65.33 25.87Q64.22 25.87 63.40 25.76Q62.57 25.66 61.90 25.49Q61.22 25.32 60.62 25.15L60.62 25.15L60.62 24.14Q61.63 24.50 62.80 24.74Q63.96 24.98 65.38 24.98L65.38 24.98Q66.70 24.98 67.78 24.59Q68.86 24.19 69.50 23.38Q70.15 22.56 70.15 21.24L70.15 21.24Q70.15 20.11 69.60 19.42Q69.05 18.72 68.02 18.24Q66.98 17.76 65.52 17.30L65.52 17.30Q64.15 16.85 63.08 16.32Q62.02 15.79 61.42 14.93Q60.82 14.06 60.82 12.65L60.82 12.65Q60.82 11.18 61.55 10.21Q62.28 9.24 63.54 8.75Q64.80 8.26 66.34 8.26L66.34 8.26Q67.51 8.26 68.60 8.47Q69.70 8.69 70.75 9.17L70.75 9.17L70.39 9.98Q69.29 9.50 68.27 9.31Q67.25 9.12 66.29 9.12L66.29 9.12Q65.06 9.12 64.06 9.49Q63.05 9.86 62.42 10.62Q61.80 11.38 61.80 12.58L61.80 12.58Q61.80 13.80 62.38 14.52Q62.95 15.24 63.95 15.68Q64.94 16.13 66.17 16.54L66.17 16.54Q67.68 17.02 68.80 17.57Q69.91 18.12 70.54 18.97Q71.16 19.82 71.16 21.24ZM78.89 12.70L78.89 12.70Q80.90 12.70 81.92 13.78Q82.94 14.86 82.94 17.21L82.94 17.21L82.94 25.63L82.20 25.63L82.03 23.23L81.98 23.23Q81.62 23.95 81.04 24.55Q80.45 25.15 79.56 25.51Q78.67 25.87 77.40 25.87L77.40 25.87Q76.13 25.87 75.28 25.45Q74.42 25.03 73.98 24.26Q73.54 23.50 73.54 22.44L73.54 22.44Q73.54 20.54 75.12 19.58Q76.70 18.62 79.54 18.46L79.54 18.46L81.98 18.31L81.98 17.38Q81.98 15.31 81.20 14.41Q80.42 13.51 78.82 13.51L78.82 13.51Q77.88 13.51 76.97 13.74Q76.06 13.97 75.05 14.47L75.05 14.47L74.74 13.66Q75.70 13.20 76.74 12.95Q77.78 12.70 78.89 12.70ZM81.98 19.08L79.68 19.20Q77.33 19.32 75.94 20.08Q74.54 20.83 74.54 22.44L74.54 22.44Q74.54 23.64 75.32 24.34Q76.10 25.03 77.57 25.03L77.57 25.03Q79.82 25.03 80.89 23.74Q81.96 22.44 81.98 20.38L81.98 20.38L81.98 19.08ZM92.54 12.67L92.54 12.67Q94.61 12.67 95.75 13.80Q96.89 14.93 96.89 17.30L96.89 17.30L96.89 25.63L95.93 25.63L95.93 17.45Q95.93 15.41 95.00 14.47Q94.08 13.54 92.40 13.54L92.40 13.54Q90.41 13.54 89.20 14.75Q87.98 15.96 87.98 18.50L87.98 18.50L87.98 25.63L87.02 25.63L87.02 12.91L87.79 12.91L87.94 15.48L87.98 15.48Q88.30 14.76 88.86 14.11Q89.42 13.46 90.34 13.07Q91.25 12.67 92.54 12.67ZM108.86 22.34L108.86 22.34Q108.86 23.42 108.34 24.22Q107.81 25.01 106.73 25.44Q105.65 25.87 104.04 25.87L104.04 25.87Q102.70 25.87 101.62 25.63Q100.54 25.39 99.79 25.06L99.79 25.06L99.79 24.07Q100.78 24.55 101.86 24.79Q102.94 25.03 104.02 25.03L104.02 25.03Q106.08 25.03 106.98 24.31Q107.88 23.59 107.88 22.37L107.88 22.37Q107.88 21.48 107.39 20.95Q106.90 20.42 106.04 20.09Q105.19 19.75 104.14 19.42L104.14 19.42Q103.03 19.08 102.12 18.71Q101.21 18.34 100.69 17.69Q100.18 17.04 100.18 15.89L100.18 15.89Q100.18 14.35 101.38 13.51Q102.58 12.67 104.64 12.67L104.64 12.67Q105.79 12.67 106.79 12.88Q107.78 13.08 108.58 13.42L108.58 13.42L108.22 14.23Q107.52 13.87 106.55 13.68Q105.58 13.49 104.64 13.49L104.64 13.49Q103.01 13.49 102.07 14.08Q101.14 14.66 101.14 15.86L101.14 15.86Q101.14 16.78 101.60 17.27Q102.07 17.76 102.88 18.04Q103.68 18.31 104.66 18.65L104.66 18.65Q105.72 18.98 106.69 19.38Q107.66 19.78 108.26 20.45Q108.86 21.12 108.86 22.34ZM131.11 8.50L131.11 25.63L130.13 25.63L130.13 17.06L119.83 17.06L119.83 25.63L118.87 25.63L118.87 8.50L119.83 8.50L119.83 16.20L130.13 16.20L130.13 8.50L131.11 8.50ZM140.45 12.67L140.45 12.67Q142.13 12.67 143.16 13.45Q144.19 14.23 144.70 15.56Q145.20 16.90 145.20 18.60L145.20 18.60L145.20 19.34L135.89 19.34Q135.86 22.08 137.11 23.56Q138.36 25.03 140.74 25.03L140.74 25.03Q141.91 25.03 142.75 24.86Q143.59 24.70 144.70 24.19L144.70 24.19L144.70 25.06Q143.78 25.49 142.84 25.68Q141.89 25.87 140.69 25.87L140.69 25.87Q138.70 25.87 137.41 25.04Q136.13 24.22 135.52 22.75Q134.90 21.29 134.90 19.39L134.90 19.39Q134.90 17.54 135.52 16.01Q136.13 14.47 137.36 13.57Q138.60 12.67 140.45 12.67ZM140.47 13.49L140.47 13.49Q138.55 13.49 137.34 14.77Q136.13 16.06 135.91 18.53L135.91 18.53L144.26 18.53Q144.29 17.04 143.87 15.90Q143.45 14.76 142.60 14.12Q141.74 13.49 140.47 13.49ZM149.69 7.39L149.69 12.89Q149.69 13.49 149.68 14.32Q149.66 15.14 149.64 15.72L149.64 15.72L149.69 15.72Q150.12 14.38 151.32 13.51Q152.52 12.65 154.30 12.65L154.30 12.65Q156.77 12.65 158.08 14.33Q159.38 16.01 159.38 19.22L159.38 19.22Q159.38 21.10 158.81 22.60Q158.23 24.10 157.03 24.98Q155.83 25.87 153.94 25.87L153.94 25.87Q152.26 25.87 151.22 25.12Q150.19 24.36 149.74 23.23L149.74 23.23L149.66 23.23L149.52 25.63L148.73 25.63L148.73 7.39L149.69 7.39ZM154.15 13.51L154.15 13.51Q151.87 13.51 150.78 15.04Q149.69 16.56 149.69 19.25L149.69 19.25L149.69 19.51Q149.69 22.20 150.71 23.60Q151.73 25.01 153.82 25.01L153.82 25.01Q156.05 25.01 157.21 23.50Q158.38 21.98 158.38 19.22L158.38 19.22Q158.38 16.39 157.32 14.95Q156.26 13.51 154.15 13.51ZM167.69 12.72L167.69 12.72Q168.24 12.72 168.71 12.78Q169.18 12.84 169.58 12.96L169.58 12.96L169.42 13.87Q168.96 13.75 168.58 13.69Q168.19 13.63 167.64 13.63L167.64 13.63Q166.68 13.63 165.97 13.97Q165.26 14.30 164.80 14.94Q164.33 15.58 164.09 16.49Q163.85 17.40 163.85 18.55L163.85 18.55L163.85 25.63L162.89 25.63L162.89 12.91L163.70 12.91L163.82 15.31L163.87 15.31Q164.14 14.57 164.64 13.98Q165.14 13.39 165.92 13.06Q166.70 12.72 167.69 12.72ZM176.40 12.67L176.40 12.67Q178.08 12.67 179.11 13.45Q180.14 14.23 180.65 15.56Q181.15 16.90 181.15 18.60L181.15 18.60L181.15 19.34L171.84 19.34Q171.82 22.08 173.06 23.56Q174.31 25.03 176.69 25.03L176.69 25.03Q177.86 25.03 178.70 24.86Q179.54 24.70 180.65 24.19L180.65 24.19L180.65 25.06Q179.74 25.49 178.79 25.68Q177.84 25.87 176.64 25.87L176.64 25.87Q174.65 25.87 173.36 25.04Q172.08 24.22 171.47 22.75Q170.86 21.29 170.86 19.39L170.86 19.39Q170.86 17.54 171.47 16.01Q172.08 14.47 173.32 13.57Q174.55 12.67 176.40 12.67ZM176.42 13.49L176.42 13.49Q174.50 13.49 173.29 14.77Q172.08 16.06 171.86 18.53L171.86 18.53L180.22 18.53Q180.24 17.04 179.82 15.90Q179.40 14.76 178.55 14.12Q177.70 13.49 176.42 13.49ZM194.33 25.66L191.45 16.63Q191.33 16.18 191.21 15.79Q191.09 15.41 190.98 15.02Q190.87 14.64 190.75 14.23L190.75 14.23L190.70 14.23Q190.58 14.64 190.48 15.05Q190.37 15.46 190.26 15.84Q190.15 16.22 190.01 16.63L190.01 16.63L187.06 25.66L186.14 25.66L182.50 12.94L183.53 12.94L185.90 21.50Q186.12 22.22 186.24 22.72Q186.36 23.21 186.46 23.60Q186.55 24 186.62 24.41L186.62 24.41L186.67 24.41Q186.74 24.10 186.82 23.80Q186.89 23.50 186.97 23.17Q187.06 22.85 187.19 22.44Q187.32 22.03 187.46 21.53L187.46 21.53L190.32 12.94L191.23 12.94L193.92 21.50Q194.11 22.10 194.26 22.61Q194.40 23.11 194.52 23.56Q194.64 24 194.74 24.41L194.74 24.41L194.78 24.41Q194.83 24 194.92 23.58Q195 23.16 195.13 22.66Q195.26 22.15 195.43 21.50L195.43 21.50L197.69 12.94L198.65 12.94L195.24 25.66L194.33 25.66ZM217.42 24.74L217.42 25.63L206.86 25.63L206.86 24.86L212.14 19.30Q213.34 18.07 214.10 17.06Q214.87 16.06 215.27 15.05Q215.66 14.04 215.66 12.77L215.66 12.77Q215.66 11.06 214.68 10.10Q213.70 9.14 211.97 9.14L211.97 9.14Q210.94 9.14 209.88 9.54Q208.82 9.94 207.86 10.70L207.86 10.70L207.31 10.01Q208.06 9.41 208.85 9.02Q209.64 8.64 210.44 8.45Q211.25 8.26 211.99 8.26L211.99 8.26Q213.41 8.26 214.46 8.82Q215.52 9.38 216.10 10.39Q216.67 11.40 216.67 12.72L216.67 12.72Q216.67 14.16 216.22 15.29Q215.76 16.42 214.91 17.48Q214.06 18.55 212.83 19.80L212.83 19.80L208.18 24.72L208.18 24.74L217.42 24.74ZM231.48 16.99L231.48 16.99Q231.48 19.20 231.14 20.86Q230.81 22.51 230.14 23.63Q229.46 24.74 228.46 25.31Q227.45 25.87 226.08 25.87L226.08 25.87Q224.35 25.87 223.14 24.90Q221.93 23.93 221.29 21.96Q220.66 19.99 220.66 16.99L220.66 16.99Q220.66 14.47 221.17 12.49Q221.69 10.51 222.89 9.37Q224.09 8.23 226.10 8.23L226.10 8.23Q228.14 8.23 229.32 9.35Q230.50 10.46 230.99 12.44Q231.48 14.42 231.48 16.99ZM221.64 16.99L221.64 16.99Q221.64 19.70 222.13 21.48Q222.62 23.26 223.61 24.13Q224.59 25.01 226.08 25.01L226.08 25.01Q227.64 25.01 228.61 24.13Q229.58 23.26 230.03 21.48Q230.47 19.70 230.47 16.99L230.47 16.99Q230.47 14.62 230.10 12.84Q229.73 11.06 228.78 10.08Q227.83 9.10 226.10 9.10L226.10 9.10Q224.40 9.10 223.43 10.12Q222.46 11.14 222.05 12.91Q221.64 14.69 221.64 16.99ZM245.18 16.99L245.18 16.99Q245.18 19.20 244.85 20.86Q244.51 22.51 243.84 23.63Q243.17 24.74 242.16 25.31Q241.15 25.87 239.78 25.87L239.78 25.87Q238.06 25.87 236.84 24.90Q235.63 23.93 235.00 21.96Q234.36 19.99 234.36 16.99L234.36 16.99Q234.36 14.47 234.88 12.49Q235.39 10.51 236.59 9.37Q237.79 8.23 239.81 8.23L239.81 8.23Q241.85 8.23 243.02 9.35Q244.20 10.46 244.69 12.44Q245.18 14.42 245.18 16.99ZM235.34 16.99L235.34 16.99Q235.34 19.70 235.84 21.48Q236.33 23.26 237.31 24.13Q238.30 25.01 239.78 25.01L239.78 25.01Q241.34 25.01 242.32 24.13Q243.29 23.26 243.73 21.48Q244.18 19.70 244.18 16.99L244.18 16.99Q244.18 14.62 243.80 12.84Q243.43 11.06 242.48 10.08Q241.54 9.10 239.81 9.10L239.81 9.10Q238.10 9.10 237.13 10.12Q236.16 11.14 235.75 12.91Q235.34 14.69 235.34 16.99ZM260.74 12.67L260.74 12.67Q262.80 12.67 263.94 13.80Q265.08 14.93 265.08 17.30L265.08 17.30L265.08 25.63L264.12 25.63L264.12 17.45Q264.12 15.41 263.20 14.47Q262.27 13.54 260.59 13.54L260.59 13.54Q258.60 13.54 257.39 14.75Q256.18 15.96 256.18 18.50L256.18 18.50L256.18 25.63L255.22 25.63L255.22 12.91L255.98 12.91L256.13 15.48L256.18 15.48Q256.49 14.76 257.05 14.11Q257.62 13.46 258.53 13.07Q259.44 12.67 260.74 12.67ZM279.58 19.27L279.58 19.27Q279.58 20.69 279.24 21.89Q278.90 23.09 278.21 23.98Q277.51 24.86 276.46 25.37Q275.40 25.87 273.98 25.87L273.98 25.87Q272.59 25.87 271.56 25.38Q270.53 24.89 269.83 24Q269.14 23.11 268.79 21.91Q268.44 20.71 268.44 19.27L268.44 19.27Q268.44 17.23 269.11 15.76Q269.78 14.28 271.06 13.48Q272.33 12.67 274.10 12.67L274.10 12.67Q276.02 12.67 277.24 13.54Q278.45 14.40 279.01 15.89Q279.58 17.38 279.58 19.27ZM269.42 19.27L269.42 19.27Q269.42 20.95 269.93 22.26Q270.43 23.57 271.44 24.30Q272.45 25.03 273.98 25.03L273.98 25.03Q275.57 25.03 276.59 24.29Q277.61 23.54 278.09 22.25Q278.57 20.95 278.57 19.27L278.57 19.27Q278.57 17.66 278.12 16.36Q277.68 15.05 276.71 14.28Q275.74 13.51 274.10 13.51L274.10 13.51Q271.85 13.51 270.64 15.04Q269.42 16.56 269.42 19.27ZM287.90 12.72L287.90 12.72Q288.46 12.72 288.92 12.78Q289.39 12.84 289.80 12.96L289.80 12.96L289.63 13.87Q289.18 13.75 288.79 13.69Q288.41 13.63 287.86 13.63L287.86 13.63Q286.90 13.63 286.19 13.97Q285.48 14.30 285.01 14.94Q284.54 15.58 284.30 16.49Q284.06 17.40 284.06 18.55L284.06 18.55L284.06 25.63L283.10 25.63L283.10 12.91L283.92 12.91L284.04 15.31L284.09 15.31Q284.35 14.57 284.86 13.98Q285.36 13.39 286.14 13.06Q286.92 12.72 287.90 12.72ZM305.16 12.67L305.16 12.67Q306.84 12.67 307.92 13.72Q309 14.76 309 16.97L309 16.97L309 25.63L308.02 25.63L308.02 17.11Q308.02 15.24 307.16 14.39Q306.31 13.54 305.04 13.54L305.04 13.54Q303.29 13.54 302.20 14.57Q301.10 15.60 301.10 17.98L301.10 17.98L301.10 25.63L300.14 25.63L300.14 17.11Q300.14 15.84 299.75 15.06Q299.35 14.28 298.68 13.91Q298.01 13.54 297.17 13.54L297.17 13.54Q296.09 13.54 295.19 13.99Q294.29 14.45 293.76 15.43Q293.23 16.42 293.23 18L293.23 18L293.23 25.63L292.27 25.63L292.27 12.91L293.04 12.91L293.18 15.14L293.23 15.14Q293.50 14.57 293.99 14.00Q294.48 13.44 295.30 13.06Q296.11 12.67 297.31 12.67L297.31 12.67Q298.63 12.67 299.57 13.32Q300.50 13.97 300.84 15.22L300.84 15.22L300.91 15.22Q301.37 14.06 302.44 13.37Q303.50 12.67 305.16 12.67ZM317.40 12.70L317.40 12.70Q319.42 12.70 320.44 13.78Q321.46 14.86 321.46 17.21L321.46 17.21L321.46 25.63L320.71 25.63L320.54 23.23L320.50 23.23Q320.14 23.95 319.55 24.55Q318.96 25.15 318.07 25.51Q317.18 25.87 315.91 25.87L315.91 25.87Q314.64 25.87 313.79 25.45Q312.94 25.03 312.49 24.26Q312.05 23.50 312.05 22.44L312.05 22.44Q312.05 20.54 313.63 19.58Q315.22 18.62 318.05 18.46L318.05 18.46L320.50 18.31L320.50 17.38Q320.50 15.31 319.72 14.41Q318.94 13.51 317.33 13.51L317.33 13.51Q316.39 13.51 315.48 13.74Q314.57 13.97 313.56 14.47L313.56 14.47L313.25 13.66Q314.21 13.20 315.25 12.95Q316.30 12.70 317.40 12.70ZM320.50 19.08L318.19 19.20Q315.84 19.32 314.45 20.08Q313.06 20.83 313.06 22.44L313.06 22.44Q313.06 23.64 313.84 24.34Q314.62 25.03 316.08 25.03L316.08 25.03Q318.34 25.03 319.40 23.74Q320.47 22.44 320.50 20.38L320.50 20.38L320.50 19.08ZM326.52 7.39L326.52 25.63L325.56 25.63L325.56 7.39L326.52 7.39Z"/></svg>