<svg xmlns="http://www.w3.org/2000/svg" xmlns:xlink="http://www.w3.org/1999/xlink" width="158.088" height="35.52"><path fill="black" d="M6.34 26.64Q3.91 26.69 2.58 24.88Q1.25 23.06 1.25 19.70L1.25 19.70Q1.25 16.58 2.06 14.88L2.06 14.88Q2.54 14.11 3.31 13.43Q4.08 12.74 4.82 12.32Q5.57 11.90 5.93 11.90L5.93 11.90Q6.43 11.90 7.80 12.05Q9.17 12.19 9.89 12.31L9.89 12.31L9.72 15.55L9.05 15.55L8.83 13.18Q8.38 13.08 7.40 12.97Q6.43 12.86 5.90 12.86L5.90 12.86Q5.59 12.86 5.10 13.12Q4.61 13.37 4.03 13.87L4.03 13.87Q3.29 14.50 2.84 15.77Q2.40 17.04 2.40 19.10L2.40 19.10Q2.40 22.85 3.47 24.31Q4.54 25.78 6.41 25.75L6.41 25.75L8.90 25.42L8.90 20.38L6.72 20.14L6.72 19.49L11.30 19.49L11.30 20.09L9.98 20.26L9.98 25.78Q9.65 25.94 8.20 26.28Q6.74 26.62 6.34 26.64L6.34 26.64ZM14.40 26.64Q14.35 26.64 14.10 26.42Q13.85 26.21 13.85 26.14L13.85 26.14L13.85 16.46L12.60 16.39L12.60 15.86Q14.09 15.55 14.30 15.55L14.30 15.55Q14.38 15.55 14.65 15.78Q14.93 16.01 14.93 16.08L14.93 16.08L14.88 17.40Q15.41 16.85 16.13 16.15Q16.85 15.46 16.94 15.46L16.94 15.46Q17.28 15.46 17.75 15.55Q18.22 15.65 18.43 15.72L18.43 15.72Q18.55 15.96 18.55 16.13L18.55 16.13Q18.55 16.20 18.42 16.43Q18.29 16.66 18.19 16.73L18.19 16.73Q17.42 16.49 17.04 16.49L17.04 16.49Q16.87 16.49 15.48 17.71L15.48 17.71L14.93 18.19L14.93 25.68L16.44 25.78L16.44 26.33Q14.64 26.64 14.40 26.64L14.40 26.64ZM23.18 26.64Q21.34 26.64 20.33 25.31Q19.32 23.98 19.32 21.50L19.32 21.50Q19.32 20.33 19.51 19.34Q19.70 18.36 20.04 17.78L20.04 17.78Q20.42 17.18 21.05 16.67Q21.67 16.15 22.28 15.84Q22.90 15.53 23.16 15.53L23.16 15.53Q24.91 15.53 25.76 16.68Q26.62 17.83 26.64 20.66L26.64 20.66L20.42 21.24Q20.42 25.75 23.47 25.75L23.47 25.75Q23.69 25.75 26.26 25.51L26.26 25.51L26.26 26.09Q23.81 26.64 23.18 26.64L23.18 26.64ZM20.45 20.54L25.51 20.04Q25.44 16.34 23.18 16.34L23.18 16.34Q22.94 16.34 22.56 16.52Q22.18 16.70 21.79 16.99L21.79 16.99Q20.54 17.95 20.45 20.54L20.45 20.54ZM30.02 26.64Q29.98 26.64 29.72 26.42Q29.47 26.21 29.47 26.14L29.47 26.14L29.47 16.49L28.22 16.39L28.22 15.86Q29.76 15.55 29.98 15.55L29.98 15.55Q30.05 15.55 30.29 15.77Q30.53 15.98 30.53 16.06L30.53 16.06L30.50 17.40Q32.81 15.55 32.98 15.55L32.98 15.55Q34.30 15.55 35.05 15.92Q35.81 16.30 36.16 17.20Q36.50 18.10 36.50 19.70L36.50 19.70L36.50 25.70L37.75 25.80L37.75 26.33Q36.22 26.64 36 26.64L36 26.64Q35.90 26.64 35.66 26.42Q35.42 26.21 35.42 26.14L35.42 26.14L35.42 19.46Q35.42 18.14 35.09 17.51Q34.75 16.87 34.26 16.69Q33.77 16.51 33.05 16.51L33.05 16.51Q32.78 16.51 30.55 18.17L30.55 18.17L30.55 25.70L31.80 25.80L31.80 26.33Q30.24 26.64 30.02 26.64L30.02 26.64ZM39.84 26.40Q39.72 26.23 39.59 25.99Q39.46 25.75 39.46 25.68L39.46 25.68Q39.62 25.39 42.17 21.12L42.17 21.12Q43.01 19.66 44.74 16.75L44.74 16.75L44.69 16.63L40.58 16.61L40.42 18.29L39.79 18.29L39.62 15.79L45.65 15.79Q45.98 16.27 46.06 16.49L46.06 16.49Q45.12 18.14 42.60 22.37L42.60 22.37L40.82 25.37L40.82 25.54L45.46 25.56L45.70 23.59L46.30 23.59L46.37 26.40L39.84 26.40ZM52.37 26.64Q50.52 26.64 49.51 25.31Q48.50 23.98 48.50 21.50L48.50 21.50Q48.50 20.33 48.70 19.34Q48.89 18.36 49.22 17.78L49.22 17.78Q49.61 17.18 50.23 16.67Q50.86 16.15 51.47 15.84Q52.08 15.53 52.34 15.53L52.34 15.53Q54.10 15.53 54.95 16.68Q55.80 17.83 55.82 20.66L55.82 20.66L49.61 21.24Q49.61 25.75 52.66 25.75L52.66 25.75Q52.87 25.75 55.44 25.51L55.44 25.51L55.44 26.09Q52.99 26.64 52.37 26.64L52.37 26.64ZM49.63 20.54L54.70 20.04Q54.62 16.34 52.37 16.34L52.37 16.34Q52.13 16.34 51.74 16.52Q51.36 16.70 50.98 16.99L50.98 16.99Q49.73 17.95 49.63 20.54L49.63 20.54ZM62.21 26.40L62.06 25.66L66.70 19.97Q67.73 18.67 67.73 17.52L67.73 17.52Q67.73 16.82 67.43 16.37Q67.13 15.91 66.60 15.91L66.60 15.91Q66.31 15.91 65.26 16.07Q64.20 16.22 63.72 16.34L63.72 16.34L63.53 18.19L62.90 18.19L62.83 15.60Q63.53 15.46 64.76 15.29Q66 15.12 66.46 15.12L66.46 15.12Q67.58 15.12 68.23 15.70Q68.88 16.27 68.88 17.33L68.88 17.33Q68.88 18.05 68.53 18.88Q68.18 19.70 67.51 20.52L67.51 20.52L63.50 25.34L63.50 25.44L68.78 25.44L68.98 23.42L69.60 23.42L69.62 26.40L62.21 26.40ZM76.39 26.62Q74.21 26.62 73.14 25.13Q72.07 23.64 72.07 20.86L72.07 20.86Q72.07 19.42 72.49 18.12Q72.91 16.82 73.87 15.97Q74.83 15.12 76.34 15.12L76.34 15.12Q78.50 15.12 79.60 16.61Q80.69 18.10 80.69 20.86L80.69 20.86Q80.69 22.30 80.27 23.60Q79.85 24.91 78.88 25.76Q77.90 26.62 76.39 26.62L76.39 26.62ZM76.27 25.85Q76.78 25.85 77.33 25.68Q77.88 25.51 78.14 25.34L78.14 25.34Q78.84 24.65 79.18 23.56Q79.51 22.46 79.51 20.81L79.51 20.81Q79.51 18.26 78.71 17.09Q77.90 15.91 76.46 15.91L76.46 15.91Q75.96 15.91 75.40 16.08Q74.83 16.25 74.59 16.42L74.59 16.42Q73.22 17.78 73.22 20.81L73.22 20.81Q73.22 23.42 74.03 24.64Q74.83 25.85 76.27 25.85L76.27 25.85ZM87.53 26.62Q85.34 26.62 84.28 25.13Q83.21 23.64 83.21 20.86L83.21 20.86Q83.21 19.42 83.63 18.12Q84.05 16.82 85.01 15.97Q85.97 15.12 87.48 15.12L87.48 15.12Q89.64 15.12 90.73 16.61Q91.82 18.10 91.82 20.86L91.82 20.86Q91.82 22.30 91.40 23.60Q90.98 24.91 90.01 25.76Q89.04 26.62 87.53 26.62L87.53 26.62ZM87.41 25.85Q87.91 25.85 88.46 25.68Q89.02 25.51 89.28 25.34L89.28 25.34Q89.98 24.65 90.31 23.56Q90.65 22.46 90.65 20.81L90.65 20.81Q90.65 18.26 89.84 17.09Q89.04 15.91 87.60 15.91L87.60 15.91Q87.10 15.91 86.53 16.08Q85.97 16.25 85.73 16.42L85.73 16.42Q84.36 17.78 84.36 20.81L84.36 20.81Q84.36 23.42 85.16 24.64Q85.97 25.85 87.41 25.85L87.41 25.85ZM99.98 26.64Q99.94 26.64 99.68 26.42Q99.43 26.21 99.43 26.14L99.43 26.14L99.43 16.49L98.18 16.39L98.18 15.86Q99.72 15.55 99.94 15.55L99.94 15.55Q100.01 15.55 100.25 15.77Q100.49 15.98 100.49 16.06L100.49 16.06L100.46 17.40Q102.77 15.55 102.94 15.55L102.94 15.55Q104.26 15.55 105.01 15.92Q105.77 16.30 106.12 17.20Q106.46 18.10 106.46 19.70L106.46 19.70L106.46 25.70L107.71 25.80L107.71 26.33Q106.18 26.64 105.96 26.64L105.96 26.64Q105.86 26.64 105.62 26.42Q105.38 26.21 105.38 26.14L105.38 26.14L105.38 19.46Q105.38 18.14 105.05 17.51Q104.71 16.87 104.22 16.69Q103.73 16.51 103.01 16.51L103.01 16.51Q102.74 16.51 100.51 18.17L100.51 18.17L100.51 25.70L101.76 25.80L101.76 26.33Q100.20 26.64 99.98 26.64L99.98 26.64ZM113.95 26.64Q111.89 26.64 110.76 25.37Q109.63 24.10 109.63 21.46L109.63 21.46Q109.63 20.33 109.82 19.34Q110.02 18.36 110.35 17.78L110.35 17.78Q110.74 17.18 111.36 16.67Q111.98 16.15 112.60 15.84Q113.21 15.53 113.47 15.53L113.47 15.53Q115.61 15.53 116.74 16.82Q117.86 18.12 117.86 20.66L117.86 20.66Q117.86 21.86 117.62 22.97Q117.38 24.07 117.00 24.65L117.00 24.65Q116.57 25.22 115.48 25.93Q114.38 26.64 113.95 26.64L113.95 26.64ZM113.93 25.82Q114.29 25.80 114.98 25.37Q115.68 24.94 115.97 24.60L115.97 24.60Q116.30 24.12 116.52 23.12Q116.74 22.13 116.74 20.76L116.74 20.76Q116.74 18.67 115.90 17.51Q115.06 16.34 113.50 16.34L113.50 16.34Q112.94 16.34 112.10 16.99L112.10 16.99Q111.38 17.57 111.06 18.59Q110.74 19.61 110.74 21.36L110.74 21.36Q110.74 23.47 111.54 24.64Q112.34 25.80 113.93 25.82L113.93 25.82ZM121.63 26.64Q121.58 26.64 121.33 26.42Q121.08 26.21 121.08 26.14L121.08 26.14L121.08 16.46L119.83 16.39L119.83 15.86Q121.32 15.55 121.54 15.55L121.54 15.55Q121.61 15.55 121.88 15.78Q122.16 16.01 122.16 16.08L122.16 16.08L122.11 17.40Q122.64 16.85 123.36 16.15Q124.08 15.46 124.18 15.46L124.18 15.46Q124.51 15.46 124.98 15.55Q125.45 15.65 125.66 15.72L125.66 15.72Q125.78 15.96 125.78 16.13L125.78 16.13Q125.78 16.20 125.65 16.43Q125.52 16.66 125.42 16.73L125.42 16.73Q124.66 16.49 124.27 16.49L124.27 16.49Q124.10 16.49 122.71 17.71L122.71 17.71L122.16 18.19L122.16 25.68L123.67 25.78L123.67 26.33Q121.87 26.64 121.63 26.64L121.63 26.64ZM128.62 26.64Q128.54 26.64 128.30 26.42Q128.06 26.21 128.06 26.14L128.06 26.14L128.06 16.49L126.82 16.39L126.82 15.86Q128.35 15.55 128.57 15.55L128.57 15.55Q128.64 15.55 128.88 15.77Q129.12 15.98 129.12 16.06L129.12 16.06L129.10 17.40Q129.58 16.97 130.46 16.26Q131.35 15.55 131.45 15.55L131.45 15.55Q132.77 15.55 133.56 16.00Q134.35 16.44 134.66 17.40L134.66 17.40Q135.26 16.87 136.07 16.21Q136.87 15.55 136.94 15.55L136.94 15.55Q138.24 15.55 139.00 15.92Q139.75 16.30 140.11 17.20Q140.47 18.10 140.47 19.70L140.47 19.70L140.47 25.70L141.72 25.80L141.72 26.33Q140.16 26.64 139.97 26.64L139.97 26.64Q139.87 26.64 139.63 26.44Q139.39 26.23 139.39 26.14L139.39 26.14L139.39 19.46Q139.39 18.14 139.08 17.51Q138.77 16.87 138.30 16.69Q137.83 16.51 137.16 16.51L137.16 16.51Q136.94 16.51 134.81 18.17L134.81 18.17L134.81 25.70L136.06 25.80L136.06 26.33Q134.50 26.64 134.30 26.64L134.30 26.64Q134.21 26.64 133.97 26.44Q133.73 26.23 133.73 26.14L133.73 26.14L133.73 19.10Q133.73 17.95 133.43 17.39Q133.13 16.82 132.67 16.67Q132.22 16.51 131.52 16.51L131.52 16.51Q131.30 16.51 129.14 18.17L129.14 18.17L129.14 25.70L130.39 25.80L130.39 26.33Q128.83 26.64 128.62 26.64L128.62 26.64ZM147.46 26.64Q145.49 26.64 144.55 25.25Q143.62 23.86 143.62 21.62L143.62 21.62Q143.62 20.40 143.82 19.40Q144.02 18.41 144.36 17.78L144.36 17.78Q144.74 17.21 145.37 16.69Q145.99 16.18 146.57 15.86Q147.14 15.55 147.41 15.55L147.41 15.55Q147.79 15.55 150.91 16.01L150.91 16.01L150.91 25.70L152.16 25.80L152.16 26.33Q150.60 26.64 150.41 26.64L150.41 26.64Q150.36 26.64 150.11 26.42Q149.86 26.21 149.86 26.14L149.86 26.14L149.88 24.79L149.04 25.46Q148.87 25.58 148.22 26.11Q147.58 26.64 147.46 26.64L147.46 26.64ZM147.38 25.70Q147.53 25.70 148.33 25.12Q149.14 24.53 149.83 24.00L149.83 24.00L149.83 16.75Q148.25 16.37 147.55 16.37L147.55 16.37Q147.14 16.37 146.95 16.46L146.95 16.46Q145.73 16.99 145.22 18.18Q144.72 19.37 144.72 21.46L144.72 21.46Q144.72 23.71 145.48 24.71Q146.23 25.70 147.38 25.70L147.38 25.70ZM155.47 26.64Q155.42 26.64 155.17 26.42Q154.92 26.21 154.92 26.14L154.92 26.14L154.92 11.98L153.67 11.90L153.67 11.38Q155.21 11.06 155.42 11.06L155.42 11.06Q155.50 11.06 155.75 11.27Q156 11.47 156 11.57L156 11.57L156 25.70L157.25 25.80L157.25 26.33Q155.69 26.64 155.47 26.64L155.47 26.64Z"/></svg>