<svg xmlns="http://www.w3.org/2000/svg" xmlns:xlink="http://www.w3.org/1999/xlink" width="258.2109375" height="28.125"><path fill="black" d="M0.81 22.27L3.75 5.20L8.20 5.21Q9.64 5.25 10.58 5.90Q11.52 6.55 11.91 7.65Q12.29 8.75 12.09 10.14L12.09 10.14Q11.93 11.30 11.41 12.25Q10.89 13.21 10.05 13.86Q9.21 14.52 8.09 14.87L8.09 14.87L7.69 15.04L2.52 15.04L2.64 14.18L7.03 14.19Q8.18 14.17 9.06 13.60Q9.94 13.03 10.49 12.12Q11.04 11.20 11.21 10.13L11.21 10.13Q11.39 9.01 11.11 8.10Q10.83 7.20 10.09 6.64Q9.35 6.09 8.19 6.06L8.19 6.06L4.50 6.05L1.69 22.27L0.81 22.27ZM10.62 22.27L9.68 22.27L7.24 14.70L8.18 14.68L10.64 22.11L10.62 22.27ZM14.16 16.55L14.16 16.55L14.33 15.22Q14.52 14.20 14.89 13.17Q15.26 12.14 15.88 11.26Q16.51 10.38 17.44 9.86Q18.36 9.33 19.68 9.35L19.68 9.35Q20.95 9.36 21.71 9.93Q22.48 10.49 22.82 11.38Q23.17 12.28 23.22 13.30Q23.27 14.32 23.13 15.26L23.13 15.26L22.95 16.61Q22.76 17.60 22.39 18.65Q22.03 19.70 21.41 20.58Q20.79 21.47 19.87 22.01Q18.95 22.55 17.64 22.52L17.64 22.52Q16.35 22.51 15.59 21.93Q14.82 21.35 14.47 20.45Q14.12 19.55 14.07 18.52Q14.02 17.48 14.16 16.55ZM15.23 15.21L15.23 15.21L15.04 16.56Q14.93 17.30 14.94 18.17Q14.94 19.04 15.19 19.83Q15.43 20.63 16.03 21.14Q16.63 21.66 17.68 21.68L17.68 21.68Q18.73 21.70 19.49 21.23Q20.26 20.75 20.78 20.00Q21.29 19.24 21.60 18.35Q21.91 17.45 22.07 16.61L22.07 16.61L22.27 15.25Q22.37 14.53 22.35 13.67Q22.34 12.81 22.09 12.03Q21.84 11.25 21.26 10.73Q20.67 10.21 19.62 10.18L19.62 10.18Q18.55 10.16 17.78 10.63Q17.02 11.11 16.51 11.88Q16.00 12.64 15.69 13.52Q15.38 14.40 15.23 15.21ZM24.98 22.27L28.10 4.27L28.98 4.27L26.29 19.84L25.82 22.27L24.98 22.27ZM34.37 15.39L34.37 15.39L34.20 16.52Q34.04 17.52 33.72 18.59Q33.40 19.65 32.84 20.55Q32.29 21.46 31.43 22.00Q30.57 22.54 29.34 22.51L29.34 22.51Q28.54 22.49 27.87 22.16Q27.21 21.83 26.75 21.29Q26.30 20.75 26.07 20.09Q25.84 19.42 25.88 18.73L25.88 18.73L26.68 13.45Q26.87 12.71 27.28 11.99Q27.69 11.26 28.30 10.66Q28.91 10.07 29.68 9.70Q30.45 9.34 31.35 9.34L31.35 9.34Q32.60 9.35 33.29 9.93Q33.98 10.51 34.25 11.43Q34.52 12.35 34.52 13.39Q34.51 14.44 34.37 15.39ZM33.33 16.55L33.33 16.55L33.47 15.39Q33.59 14.64 33.63 13.75Q33.68 12.86 33.50 12.05Q33.32 11.24 32.78 10.71Q32.24 10.18 31.20 10.18L31.20 10.18Q30.46 10.18 29.80 10.46Q29.14 10.75 28.61 11.23Q28.07 11.72 27.69 12.34Q27.30 12.96 27.12 13.65L27.12 13.65L26.31 18.64Q26.26 19.48 26.65 20.16Q27.04 20.84 27.72 21.25Q28.41 21.66 29.25 21.67L29.25 21.67Q30.29 21.68 31.01 21.22Q31.73 20.75 32.19 19.98Q32.65 19.21 32.92 18.32Q33.19 17.43 33.33 16.55ZM36.77 16.55L36.77 16.55L36.95 15.22Q37.14 14.20 37.51 13.17Q37.88 12.14 38.50 11.26Q39.13 10.38 40.05 9.86Q40.98 9.33 42.29 9.35L42.29 9.35Q43.57 9.36 44.33 9.93Q45.09 10.49 45.44 11.38Q45.79 12.28 45.84 13.30Q45.89 14.32 45.75 15.26L45.75 15.26L45.56 16.61Q45.38 17.60 45.01 18.65Q44.65 19.70 44.03 20.58Q43.41 21.47 42.49 22.01Q41.57 22.55 40.25 22.52L40.25 22.52Q38.96 22.51 38.20 21.93Q37.44 21.35 37.09 20.45Q36.74 19.55 36.69 18.52Q36.63 17.48 36.77 16.55ZM37.85 15.21L37.85 15.21L37.65 16.56Q37.55 17.30 37.55 18.17Q37.56 19.04 37.80 19.83Q38.05 20.63 38.65 21.14Q39.25 21.66 40.30 21.68L40.30 21.68Q41.34 21.70 42.11 21.23Q42.88 20.75 43.39 20.00Q43.91 19.24 44.22 18.35Q44.53 17.45 44.68 16.61L44.68 16.61L44.88 15.25Q44.99 14.53 44.97 13.67Q44.95 12.81 44.71 12.03Q44.46 11.25 43.88 10.73Q43.29 10.21 42.23 10.18L42.23 10.18Q41.17 10.16 40.40 10.63Q39.63 11.11 39.12 11.88Q38.61 12.64 38.30 13.52Q37.99 14.40 37.85 15.21ZM48.54 9.59L53.57 9.59L53.44 10.42L48.39 10.42L48.54 9.59ZM48.82 19.21L51.02 6.23L51.93 6.23L49.70 19.22Q49.62 19.68 49.60 20.23Q49.58 20.79 49.80 21.21Q50.02 21.62 50.64 21.63L50.64 21.63Q50.92 21.63 51.17 21.60Q51.42 21.56 51.67 21.53L51.67 21.53L51.64 22.35Q51.38 22.44 51.09 22.47Q50.81 22.50 50.52 22.50L50.52 22.50Q49.59 22.49 49.20 21.97Q48.81 21.45 48.76 20.68Q48.70 19.92 48.82 19.21L48.82 19.21ZM54.83 16.55L54.83 16.55L55.01 15.22Q55.20 14.20 55.56 13.17Q55.93 12.14 56.56 11.26Q57.19 10.38 58.11 9.86Q59.04 9.33 60.35 9.35L60.35 9.35Q61.63 9.36 62.39 9.93Q63.15 10.49 63.50 11.38Q63.84 12.28 63.90 13.30Q63.95 14.32 63.81 15.26L63.81 15.26L63.62 16.61Q63.43 17.60 63.07 18.65Q62.71 19.70 62.09 20.58Q61.46 21.47 60.54 22.01Q59.63 22.55 58.31 22.52L58.31 22.52Q57.02 22.51 56.26 21.93Q55.50 21.35 55.15 20.45Q54.80 19.55 54.74 18.52Q54.69 17.48 54.83 16.55ZM55.91 15.21L55.91 15.21L55.71 16.56Q55.61 17.30 55.61 18.17Q55.62 19.04 55.86 19.83Q56.11 20.63 56.71 21.14Q57.30 21.66 58.36 21.68L58.36 21.68Q59.40 21.70 60.17 21.23Q60.94 20.75 61.45 20.00Q61.97 19.24 62.28 18.35Q62.59 17.45 62.74 16.61L62.74 16.61L62.94 15.25Q63.05 14.53 63.03 13.67Q63.01 12.81 62.77 12.03Q62.52 11.25 61.93 10.73Q61.35 10.21 60.29 10.18L60.29 10.18Q59.23 10.16 58.46 10.63Q57.69 11.11 57.18 11.88Q56.67 12.64 56.36 13.52Q56.05 14.40 55.91 15.21ZM81.01 17.03L81.01 17.03L81.88 17.03Q81.53 18.63 80.79 19.88Q80.06 21.13 78.88 21.83Q77.71 22.54 75.97 22.52L75.97 22.52Q74.58 22.50 73.71 21.87Q72.84 21.25 72.41 20.23Q71.98 19.22 71.89 18.01Q71.80 16.79 71.98 15.61L71.98 15.61L72.62 11.67Q72.83 10.43 73.29 9.23Q73.76 8.03 74.52 7.06Q75.28 6.09 76.36 5.52Q77.44 4.95 78.86 4.97L78.86 4.97Q80.50 4.98 81.45 5.71Q82.41 6.45 82.77 7.69Q83.13 8.93 83.05 10.45L83.05 10.45L82.14 10.45Q82.21 9.16 81.94 8.12Q81.67 7.08 80.94 6.45Q80.20 5.82 78.81 5.81L78.81 5.81Q77.60 5.80 76.69 6.30Q75.79 6.80 75.15 7.65Q74.51 8.50 74.11 9.54Q73.71 10.58 73.54 11.65L73.54 11.65L72.89 15.62Q72.74 16.59 72.77 17.64Q72.81 18.69 73.13 19.59Q73.44 20.50 74.13 21.07Q74.82 21.64 76.01 21.67L76.01 21.67Q77.52 21.69 78.49 21.10Q79.45 20.51 80.06 19.45Q80.66 18.40 81.01 17.03ZM84.67 16.55L84.67 16.55L84.84 15.22Q85.03 14.20 85.40 13.17Q85.77 12.14 86.40 11.26Q87.02 10.38 87.95 9.86Q88.88 9.33 90.19 9.35L90.19 9.35Q91.46 9.36 92.23 9.93Q92.99 10.49 93.33 11.38Q93.68 12.28 93.73 13.30Q93.79 14.32 93.64 15.26L93.64 15.26L93.46 16.61Q93.27 17.60 92.91 18.65Q92.54 19.70 91.92 20.58Q91.30 21.47 90.38 22.01Q89.46 22.55 88.15 22.52L88.15 22.52Q86.86 22.51 86.10 21.93Q85.34 21.35 84.98 20.45Q84.63 19.55 84.58 18.52Q84.53 17.48 84.67 16.55ZM85.75 15.21L85.75 15.21L85.55 16.56Q85.44 17.30 85.45 18.17Q85.45 19.04 85.70 19.83Q85.95 20.63 86.54 21.14Q87.14 21.66 88.20 21.68L88.20 21.68Q89.24 21.70 90.01 21.23Q90.77 20.75 91.29 20.00Q91.80 19.24 92.12 18.35Q92.43 17.45 92.58 16.61L92.58 16.61L92.78 15.25Q92.88 14.53 92.87 13.67Q92.85 12.81 92.60 12.03Q92.36 11.25 91.77 10.73Q91.18 10.21 90.13 10.18L90.13 10.18Q89.06 10.16 88.29 10.63Q87.53 11.11 87.02 11.88Q86.51 12.64 86.20 13.52Q85.89 14.40 85.75 15.21ZM98.55 9.59L98.12 12.29L96.40 22.27L95.51 22.27L97.70 9.59L98.55 9.59ZM97.51 14.96L97.51 14.96L97.24 14.41Q97.45 13.59 97.85 12.70Q98.24 11.81 98.82 11.04Q99.40 10.28 100.19 9.81Q100.98 9.34 102.01 9.34L102.01 9.34Q103.02 9.35 103.60 9.79Q104.18 10.22 104.44 10.92Q104.70 11.61 104.71 12.43Q104.73 13.25 104.63 14.04L104.63 14.04L103.22 22.27L102.35 22.27L103.75 14.02Q103.86 13.17 103.82 12.29Q103.77 11.40 103.33 10.79Q102.89 10.18 101.80 10.18L101.80 10.18Q100.91 10.17 100.20 10.64Q99.48 11.11 98.95 11.84Q98.41 12.57 98.05 13.40Q97.69 14.23 97.51 14.96ZM113.65 22.27L114.05 19.77L116.73 4.27L117.61 4.27L114.49 22.27L113.65 22.27ZM107.31 16.44L107.31 16.44L107.46 15.30Q107.63 14.29 107.95 13.22Q108.28 12.16 108.84 11.28Q109.41 10.39 110.27 9.86Q111.13 9.33 112.37 9.35L112.37 9.35Q113.23 9.38 113.88 9.75Q114.53 10.13 114.96 10.72Q115.38 11.32 115.58 12.04Q115.78 12.75 115.75 13.45L115.75 13.45L114.94 18.73Q114.77 19.44 114.34 20.12Q113.91 20.80 113.30 21.35Q112.69 21.89 111.93 22.21Q111.18 22.54 110.33 22.52L110.33 22.52Q109.10 22.52 108.42 21.93Q107.73 21.33 107.46 20.40Q107.18 19.46 107.17 18.40Q107.17 17.34 107.31 16.44ZM108.35 15.30L108.35 15.30L108.20 16.46Q108.08 17.23 108.04 18.11Q108 19.00 108.19 19.80Q108.38 20.61 108.90 21.13Q109.43 21.66 110.47 21.67L110.47 21.67Q111.39 21.68 112.22 21.28Q113.05 20.88 113.65 20.19Q114.26 19.50 114.52 18.64L114.52 18.64L115.32 13.65Q115.36 12.98 115.18 12.38Q115.01 11.77 114.63 11.27Q114.25 10.78 113.70 10.49Q113.16 10.21 112.45 10.18L112.45 10.18Q111.41 10.17 110.69 10.63Q109.97 11.10 109.49 11.87Q109.01 12.63 108.74 13.54Q108.48 14.44 108.35 15.30ZM122.03 22.52L122.03 22.52Q120.80 22.51 120.01 21.98Q119.21 21.46 118.79 20.60Q118.37 19.75 118.27 18.71Q118.17 17.68 118.31 16.66L118.31 16.66L118.51 15.23Q118.69 14.20 119.09 13.15Q119.48 12.11 120.13 11.24Q120.79 10.37 121.72 9.85Q122.65 9.33 123.88 9.35L123.88 9.35Q125.02 9.38 125.71 9.84Q126.41 10.31 126.75 11.07Q127.09 11.84 127.15 12.78Q127.22 13.72 127.08 14.70L127.08 14.70L126.94 15.69L119.00 15.69L119.16 14.85L126.18 14.85L126.22 14.51Q126.38 13.50 126.25 12.51Q126.12 11.52 125.55 10.87Q124.98 10.22 123.82 10.18L123.82 10.18Q122.79 10.16 122.03 10.61Q121.27 11.06 120.73 11.82Q120.20 12.59 119.87 13.48Q119.54 14.38 119.41 15.23L119.41 15.23L119.21 16.69Q119.09 17.52 119.14 18.39Q119.19 19.25 119.50 20.00Q119.81 20.74 120.43 21.20Q121.05 21.66 122.09 21.67L122.09 21.67Q123.04 21.69 123.84 21.33Q124.64 20.98 125.32 20.36L125.32 20.36L125.74 20.95Q125.24 21.46 124.65 21.81Q124.07 22.17 123.40 22.35Q122.74 22.52 122.03 22.52ZM131.67 9.59L131.24 12.29L129.52 22.27L128.63 22.27L130.82 9.59L131.67 9.59ZM130.63 14.96L130.63 14.96L130.36 14.41Q130.57 13.59 130.96 12.70Q131.36 11.81 131.94 11.04Q132.52 10.28 133.31 9.81Q134.10 9.34 135.13 9.34L135.13 9.34Q136.14 9.35 136.72 9.79Q137.30 10.22 137.55 10.92Q137.81 11.61 137.83 12.43Q137.85 13.25 137.74 14.04L137.74 14.04L136.34 22.27L135.47 22.27L136.86 14.02Q136.98 13.17 136.93 12.29Q136.89 11.40 136.45 10.79Q136.01 10.18 134.92 10.18L134.92 10.18Q134.03 10.17 133.31 10.64Q132.60 11.11 132.06 11.84Q131.53 12.57 131.17 13.40Q130.80 14.23 130.63 14.96ZM146.70 19.10L146.70 19.10Q146.84 18.30 146.48 17.73Q146.13 17.16 145.53 16.77Q144.93 16.38 144.27 16.11L144.27 16.11Q143.65 15.82 143.06 15.48Q142.48 15.14 142.02 14.71Q141.56 14.27 141.34 13.76Q141.12 13.24 141.22 12.57L141.22 12.57Q141.32 11.82 141.67 11.22Q142.02 10.62 142.56 10.20Q143.11 9.79 143.79 9.56Q144.48 9.34 145.22 9.35L145.22 9.35Q146.31 9.36 147.09 9.79Q147.87 10.21 148.25 10.97Q148.63 11.74 148.51 12.83L148.51 12.83L147.64 12.82Q147.73 11.94 147.43 11.36Q147.14 10.78 146.56 10.49Q145.98 10.21 145.18 10.20L145.18 10.20Q144.45 10.20 143.79 10.47Q143.13 10.75 142.67 11.27Q142.21 11.79 142.07 12.53L142.07 12.53Q141.97 13.09 142.18 13.54Q142.38 13.98 142.78 14.32Q143.17 14.66 143.65 14.91Q144.14 15.15 144.59 15.34L144.59 15.34Q145.45 15.73 146.19 16.24Q146.92 16.75 147.31 17.43Q147.70 18.12 147.57 19.09L147.57 19.09Q147.47 19.89 147.11 20.53Q146.74 21.16 146.16 21.60Q145.58 22.04 144.87 22.28Q144.16 22.51 143.37 22.50L143.37 22.50Q142.31 22.49 141.47 22.08Q140.64 21.67 140.19 20.89Q139.73 20.11 139.85 19.03L139.85 19.03L140.73 19.03Q140.67 19.90 140.99 20.48Q141.32 21.07 141.94 21.36Q142.57 21.66 143.40 21.66L143.40 21.66Q144.13 21.64 144.83 21.38Q145.54 21.11 146.05 20.55Q146.57 20.00 146.70 19.10ZM154.17 22.52L154.17 22.52Q152.94 22.51 152.15 21.98Q151.36 21.46 150.94 20.60Q150.52 19.75 150.42 18.71Q150.32 17.68 150.46 16.66L150.46 16.66L150.66 15.23Q150.83 14.20 151.23 13.15Q151.63 12.11 152.28 11.24Q152.93 10.37 153.86 9.85Q154.79 9.33 156.02 9.35L156.02 9.35Q157.16 9.38 157.86 9.84Q158.55 10.31 158.89 11.07Q159.23 11.84 159.30 12.78Q159.36 13.72 159.22 14.70L159.22 14.70L159.08 15.69L151.15 15.69L151.30 14.85L158.32 14.85L158.37 14.51Q158.52 13.50 158.39 12.51Q158.26 11.52 157.69 10.87Q157.13 10.22 155.96 10.18L155.96 10.18Q154.93 10.16 154.17 10.61Q153.41 11.06 152.88 11.82Q152.34 12.59 152.02 13.48Q151.69 14.38 151.56 15.23L151.56 15.23L151.36 16.69Q151.23 17.52 151.28 18.39Q151.34 19.25 151.65 20.00Q151.96 20.74 152.58 21.20Q153.20 21.66 154.23 21.67L154.23 21.67Q155.18 21.69 155.98 21.33Q156.79 20.98 157.46 20.36L157.46 20.36L157.89 20.95Q157.38 21.46 156.80 21.81Q156.21 22.17 155.55 22.35Q154.89 22.52 154.17 22.52ZM167.67 22.27L168.07 19.77L170.75 4.27L171.63 4.27L168.52 22.27L167.67 22.27ZM161.33 16.44L161.33 16.44L161.48 15.30Q161.65 14.29 161.98 13.22Q162.30 12.16 162.87 11.28Q163.43 10.39 164.29 9.86Q165.15 9.33 166.39 9.35L166.39 9.35Q167.25 9.38 167.90 9.75Q168.55 10.13 168.98 10.72Q169.41 11.32 169.61 12.04Q169.80 12.75 169.77 13.45L169.77 13.45L168.96 18.73Q168.80 19.44 168.36 20.12Q167.93 20.80 167.32 21.35Q166.71 21.89 165.96 22.21Q165.20 22.54 164.36 22.52L164.36 22.52Q163.13 22.52 162.44 21.93Q161.75 21.33 161.48 20.40Q161.20 19.46 161.20 18.40Q161.19 17.34 161.33 16.44ZM162.38 15.30L162.38 15.30L162.22 16.46Q162.11 17.23 162.06 18.11Q162.02 19.00 162.21 19.80Q162.40 20.61 162.93 21.13Q163.45 21.66 164.50 21.67L164.50 21.67Q165.41 21.68 166.24 21.28Q167.07 20.88 167.68 20.19Q168.28 19.50 168.54 18.64L168.54 18.64L169.35 13.65Q169.38 12.98 169.21 12.38Q169.03 11.77 168.65 11.27Q168.27 10.78 167.72 10.49Q167.18 10.21 166.48 10.18L166.48 10.18Q165.43 10.17 164.71 10.63Q163.99 11.10 163.51 11.87Q163.03 12.63 162.77 13.54Q162.50 14.44 162.38 15.30ZM178.58 21.42L186.07 21.42L185.93 22.27L177.34 22.27L177.46 21.45L182.99 15.05Q183.67 14.29 184.37 13.41Q185.06 12.54 185.60 11.57Q186.13 10.61 186.27 9.56L186.27 9.56Q186.42 8.61 186.21 7.76Q186 6.90 185.39 6.36Q184.78 5.81 183.74 5.80L183.74 5.80Q182.58 5.79 181.77 6.44Q180.96 7.09 180.47 8.07Q179.98 9.06 179.80 10.05L179.80 10.05L178.92 10.07Q179.12 8.81 179.72 7.63Q180.32 6.46 181.33 5.71Q182.34 4.96 183.77 4.97L183.77 4.97Q185.11 4.97 185.92 5.61Q186.73 6.25 187.04 7.28Q187.35 8.31 187.20 9.52L187.20 9.52Q187.07 10.42 186.69 11.27Q186.30 12.12 185.77 12.90Q185.23 13.69 184.62 14.41Q184.01 15.13 183.43 15.80L183.43 15.80L178.58 21.42ZM198.54 12.20L198.54 12.20L198.02 15.25Q197.85 16.30 197.50 17.56Q197.14 18.82 196.52 19.96Q195.90 21.09 194.95 21.81Q193.99 22.52 192.61 22.50L192.61 22.50Q191.52 22.49 190.85 21.98Q190.18 21.47 189.84 20.65Q189.49 19.83 189.39 18.86Q189.28 17.88 189.33 16.93Q189.39 15.98 189.52 15.25L189.52 15.25L190.01 12.20Q190.18 11.14 190.54 9.88Q190.90 8.63 191.52 7.49Q192.14 6.36 193.09 5.65Q194.04 4.93 195.42 4.95L195.42 4.95Q196.52 4.96 197.20 5.47Q197.87 5.99 198.21 6.81Q198.55 7.63 198.65 8.58Q198.75 9.54 198.70 10.49Q198.64 11.45 198.54 12.20ZM197.12 15.28L197.12 15.28L197.65 12.13Q197.75 11.54 197.82 10.74Q197.88 9.94 197.84 9.08Q197.79 8.21 197.54 7.48Q197.30 6.74 196.78 6.28Q196.27 5.81 195.38 5.79L195.38 5.79Q194.24 5.77 193.45 6.42Q192.66 7.07 192.15 8.07Q191.64 9.07 191.34 10.17Q191.04 11.26 190.90 12.13L190.90 12.13L190.37 15.29Q190.28 15.87 190.21 16.68Q190.15 17.48 190.20 18.35Q190.25 19.21 190.50 19.96Q190.75 20.71 191.26 21.18Q191.78 21.64 192.66 21.67L192.66 21.67Q193.79 21.69 194.58 21.04Q195.36 20.38 195.87 19.36Q196.38 18.34 196.69 17.24Q196.99 16.15 197.12 15.28ZM209.82 12.20L209.82 12.20L209.31 15.25Q209.13 16.30 208.78 17.56Q208.43 18.82 207.81 19.96Q207.19 21.09 206.23 21.81Q205.28 22.52 203.89 22.50L203.89 22.50Q202.80 22.49 202.14 21.98Q201.47 21.47 201.12 20.65Q200.78 19.83 200.67 18.86Q200.57 17.88 200.62 16.93Q200.67 15.98 200.80 15.25L200.80 15.25L201.29 12.20Q201.47 11.14 201.83 9.88Q202.18 8.63 202.80 7.49Q203.43 6.36 204.38 5.65Q205.32 4.93 206.71 4.95L206.71 4.95Q207.81 4.96 208.48 5.47Q209.16 5.99 209.50 6.81Q209.84 7.63 209.94 8.58Q210.04 9.54 209.98 10.49Q209.93 11.45 209.82 12.20ZM208.41 15.28L208.41 15.28L208.93 12.13Q209.04 11.54 209.10 10.74Q209.17 9.94 209.12 9.08Q209.07 8.21 208.83 7.48Q208.58 6.74 208.07 6.28Q207.55 5.81 206.66 5.79L206.66 5.79Q205.52 5.77 204.73 6.42Q203.94 7.07 203.43 8.07Q202.92 9.07 202.62 10.17Q202.32 11.26 202.18 12.13L202.18 12.13L201.66 15.29Q201.56 15.87 201.50 16.68Q201.43 17.48 201.49 18.35Q201.54 19.21 201.79 19.96Q202.03 20.71 202.55 21.18Q203.06 21.64 203.94 21.67L203.94 21.67Q205.08 21.69 205.86 21.04Q206.65 20.38 207.16 19.36Q207.67 18.34 207.97 17.24Q208.28 16.15 208.41 15.28ZM218.88 9.59L219.76 9.59L217.57 22.27L216.69 22.27L218.88 9.59ZM219.30 5.71L219.30 5.71Q219.35 5.43 219.56 5.21Q219.76 5.00 220.07 4.96L220.07 4.96Q220.41 4.99 220.56 5.21Q220.72 5.44 220.68 5.75L220.68 5.75Q220.62 6.04 220.42 6.25Q220.22 6.46 219.90 6.48L219.90 6.48Q219.59 6.46 219.42 6.23Q219.26 6.01 219.30 5.71ZM222.16 9.59L227.19 9.59L227.06 10.42L222.01 10.42L222.16 9.59ZM222.45 19.21L224.65 6.23L225.55 6.23L223.32 19.22Q223.24 19.68 223.22 20.23Q223.21 20.79 223.42 21.21Q223.64 21.62 224.26 21.63L224.26 21.63Q224.54 21.63 224.79 21.60Q225.05 21.56 225.29 21.53L225.29 21.53L225.27 22.35Q225 22.44 224.72 22.47Q224.44 22.50 224.14 22.50L224.14 22.50Q223.22 22.49 222.83 21.97Q222.43 21.45 222.38 20.68Q222.33 19.92 222.45 19.21L222.45 19.21ZM234.81 19.92L234.81 19.92L235.96 13.02Q236.09 12.13 235.86 11.50Q235.63 10.86 235.04 10.52Q234.46 10.17 233.55 10.18L233.55 10.18Q232.70 10.18 231.97 10.54Q231.25 10.89 230.74 11.54Q230.24 12.19 230.05 13.07L230.05 13.07L229.20 13.04Q229.35 12.21 229.73 11.53Q230.12 10.84 230.71 10.36Q231.30 9.88 232.05 9.61Q232.79 9.34 233.65 9.34L233.65 9.34Q234.80 9.35 235.56 9.80Q236.32 10.25 236.65 11.09Q236.99 11.93 236.82 13.05L236.82 13.05L235.71 19.68Q235.61 20.31 235.60 20.91Q235.59 21.50 235.59 22.14L235.59 22.14L235.57 22.27L234.66 22.27Q234.61 21.68 234.66 21.09Q234.70 20.50 234.81 19.92ZM233.10 15.07L235.91 15.07L235.79 15.88L233.18 15.88Q232.39 15.88 231.66 16.07Q230.93 16.25 230.33 16.63Q229.72 17.00 229.32 17.60Q228.91 18.20 228.77 19.03L228.77 19.03Q228.66 19.77 228.85 20.37Q229.04 20.96 229.54 21.31Q230.03 21.66 230.78 21.67L230.78 21.67Q231.81 21.67 232.65 21.25Q233.48 20.84 234.13 20.13Q234.77 19.43 235.21 18.52L235.21 18.52L235.43 19.20Q235.13 19.85 234.66 20.46Q234.19 21.07 233.60 21.53Q233.00 22.00 232.28 22.26Q231.55 22.52 230.71 22.52L230.71 22.52Q229.69 22.54 229.01 22.07Q228.34 21.60 228.05 20.81Q227.77 20.03 227.89 19.04L227.89 19.04Q228.02 17.96 228.53 17.21Q229.04 16.45 229.79 15.98Q230.54 15.52 231.39 15.29Q232.24 15.07 233.10 15.07L233.10 15.07ZM242.14 4.27L243.02 4.27L239.91 22.27L239.03 22.27L242.14 4.27ZM245.91 9.59L246.79 9.59L244.59 22.27L243.71 22.27L245.91 9.59ZM246.33 5.71L246.33 5.71Q246.38 5.43 246.58 5.21Q246.79 5.00 247.09 4.96L247.09 4.96Q247.43 4.99 247.59 5.21Q247.75 5.44 247.70 5.75L247.70 5.75Q247.64 6.04 247.44 6.25Q247.24 6.46 246.93 6.48L246.93 6.48Q246.61 6.46 246.45 6.23Q246.28 6.01 246.33 5.71ZM252.09 21.68L252.09 21.68Q253.11 21.70 253.86 21.28Q254.60 20.85 255.06 20.10Q255.52 19.36 255.74 18.41L255.74 18.41L256.58 18.41Q256.34 19.57 255.76 20.51Q255.18 21.45 254.25 22.00Q253.32 22.55 252.06 22.54L252.06 22.54Q250.79 22.51 250.03 21.98Q249.27 21.45 248.91 20.57Q248.55 19.70 248.50 18.66Q248.45 17.63 248.60 16.59L248.60 16.59L248.80 15.22Q248.98 14.13 249.35 13.07Q249.73 12.01 250.34 11.17Q250.96 10.32 251.88 9.83Q252.80 9.33 254.09 9.35L254.09 9.35Q255.39 9.38 256.14 9.99Q256.90 10.61 257.19 11.61Q257.48 12.62 257.37 13.80L257.37 13.80L256.50 13.80Q256.59 12.87 256.39 12.05Q256.20 11.24 255.63 10.72Q255.07 10.21 254.04 10.20L254.04 10.20Q252.97 10.16 252.21 10.59Q251.44 11.03 250.94 11.76Q250.44 12.49 250.14 13.39Q249.83 14.30 249.69 15.22L249.69 15.22L249.49 16.62Q249.36 17.45 249.37 18.33Q249.38 19.22 249.62 19.97Q249.87 20.73 250.46 21.19Q251.05 21.66 252.09 21.68Z"/></svg>