<svg xmlns="http://www.w3.org/2000/svg" xmlns:xlink="http://www.w3.org/1999/xlink" width="228.48000000000005" height="27.504"><path fill="black" d="M1.27 22.46L0.29 22.46Q-0.24 22.46-0.44 22.32Q-0.65 22.18-0.65 21.94L-0.65 21.94Q-0.65 21.86-0.61 21.76Q-0.58 21.65-0.50 21.41L-0.50 21.41L4.92 6.34Q5.09 5.90 5.44 5.74Q5.78 5.57 6.34 5.57L6.34 5.57L7.46 5.57Q8.16 5.57 8.48 5.74Q8.81 5.90 8.88 6.36L8.88 6.36L11.11 21.34Q11.14 21.58 11.16 21.72Q11.18 21.86 11.18 21.94L11.18 21.94Q11.18 22.18 10.96 22.32Q10.73 22.46 10.10 22.46L10.10 22.46L9.12 22.46Q8.69 22.46 8.39 22.36Q8.09 22.25 8.04 21.91L8.04 21.91L7.68 18.70L3.48 18.70L2.45 21.91Q2.35 22.25 2.02 22.36Q1.68 22.46 1.27 22.46L1.27 22.46ZM6.10 10.58L6.10 10.58L4.30 16.18L7.42 16.18L6.77 10.58Q6.74 10.20 6.72 9.74Q6.70 9.29 6.67 8.88L6.67 8.88L6.55 8.88Q6.46 9.29 6.34 9.72Q6.22 10.15 6.10 10.58ZM15.07 22.61L15.07 22.61Q14.14 22.61 13.38 22.38Q12.62 22.15 12.18 21.83Q11.74 21.50 11.74 21.19L11.74 21.19Q11.74 20.90 11.92 20.51Q12.10 20.11 12.34 19.80Q12.58 19.49 12.77 19.49L12.77 19.49Q12.96 19.49 13.27 19.67Q13.58 19.85 14.03 20.02Q14.47 20.18 15.02 20.18L15.02 20.18Q15.79 20.18 16.16 19.84Q16.54 19.49 16.54 18.94L16.54 18.94Q16.54 18.26 16.02 17.88Q15.50 17.50 14.88 17.04L14.88 17.04Q13.82 16.27 13.27 15.48Q12.72 14.69 12.72 13.54L12.72 13.54Q12.72 11.76 13.90 10.72Q15.07 9.67 16.94 9.67L16.94 9.67Q17.54 9.67 18.22 9.82Q18.89 9.96 19.36 10.24Q19.82 10.51 19.78 10.94L19.78 10.94Q19.75 11.18 19.61 11.57Q19.46 11.95 19.24 12.25Q19.01 12.55 18.79 12.55L18.79 12.55Q18.55 12.55 18.06 12.31Q17.57 12.07 16.90 12.07L16.90 12.07Q16.20 12.07 15.84 12.40Q15.48 12.72 15.48 13.25L15.48 13.25Q15.48 13.85 15.95 14.21Q16.42 14.57 16.99 14.93L16.99 14.93Q18.07 15.65 18.71 16.49Q19.34 17.33 19.34 18.58L19.34 18.58Q19.34 20.38 18.20 21.49Q17.06 22.61 15.07 22.61ZM24.05 22.61L24.05 22.61Q22.90 22.61 22.22 21.89Q21.55 21.17 21.26 20.03Q20.98 18.89 20.98 17.57L20.98 17.57Q20.98 16.18 21.24 14.77Q21.50 13.37 22.07 12.22Q22.63 11.06 23.51 10.38Q24.38 9.70 25.58 9.70L25.58 9.70Q26.62 9.70 27.24 10.13Q27.86 10.56 28.18 10.94L28.18 10.94Q28.39 10.27 28.62 10.04Q28.85 9.82 29.57 9.82L29.57 9.82L29.81 9.82Q30.98 9.82 30.94 10.39L30.94 10.39L29.93 19.37Q29.88 19.85 30.01 20.02Q30.14 20.18 30.36 20.18L30.36 20.18Q30.58 20.18 30.74 20.10Q30.91 20.02 31.03 20.02L31.03 20.02Q31.30 20.02 31.18 20.64L31.18 20.64Q31.15 20.95 31.09 21.25Q31.03 21.55 30.96 21.77L30.96 21.77Q30.84 22.15 30.28 22.37Q29.71 22.58 29.09 22.58L29.09 22.58Q28.34 22.58 27.74 22.16Q27.14 21.74 27.02 20.66L27.02 20.66Q26.52 21.60 25.78 22.10Q25.03 22.61 24.05 22.61ZM25.22 20.16L25.22 20.16Q25.78 20.16 26.28 19.67Q26.78 19.18 27.07 18.22L27.07 18.22L27.50 14.26Q27.55 13.80 27.61 13.42Q27.67 13.03 27.74 12.77L27.74 12.77Q27.53 12.53 27.18 12.32Q26.83 12.12 26.30 12.12L26.30 12.12Q25.08 12.12 24.54 13.63Q24 15.14 24 17.54L24 17.54Q24 18.65 24.26 19.40Q24.53 20.16 25.22 20.16ZM33.24 27.38L32.66 27.38Q31.44 27.38 31.51 26.66L31.51 26.66L32.83 13.85Q32.90 13.20 32.95 12.64Q33 12.07 33 11.47L33 11.47Q33 11.21 32.99 10.99Q32.98 10.78 32.98 10.54L32.98 10.54Q32.98 10.27 33.40 10.13Q33.82 9.98 34.31 9.94Q34.80 9.89 35.04 9.89L35.04 9.89Q35.57 9.89 35.74 10.13Q35.90 10.37 35.90 10.82L35.90 10.82Q35.90 10.99 35.88 11.18L35.88 11.18Q37.10 9.70 38.78 9.70L38.78 9.70Q40.25 9.70 41.12 11.04Q42 12.38 42 15L42 15Q42 16.39 41.72 17.75Q41.45 19.10 40.90 20.20Q40.34 21.29 39.48 21.94Q38.62 22.58 37.42 22.58L37.42 22.58Q36.74 22.58 36.11 22.34Q35.47 22.10 35.06 21.65L35.06 21.65L34.56 26.66Q34.49 27.38 33.24 27.38L33.24 27.38ZM36.62 20.16L36.62 20.16Q37.30 20.16 37.74 19.66Q38.18 19.15 38.42 18.36Q38.66 17.57 38.76 16.66Q38.86 15.74 38.86 14.93L38.86 14.93Q38.86 13.39 38.48 12.77Q38.11 12.14 37.34 12.14L37.34 12.14Q36.96 12.14 36.62 12.30Q36.29 12.46 36 12.74L36 12.74L35.57 16.99Q35.47 17.88 35.36 18.53Q35.26 19.18 35.16 19.51L35.16 19.51Q35.40 19.80 35.80 19.98Q36.19 20.16 36.62 20.16ZM52.70 22.58L52.70 22.58Q49.82 22.58 48.47 21.02Q47.11 19.46 47.11 16.18L47.11 16.18Q47.11 13.87 47.51 11.92Q47.90 9.96 48.79 8.51Q49.68 7.06 51.11 6.25Q52.54 5.45 54.60 5.45L54.60 5.45Q55.27 5.45 55.86 5.54Q56.45 5.64 56.81 5.76L56.81 5.76Q57.14 5.88 57.24 6.07Q57.34 6.26 57.34 6.58L57.34 6.58Q57.34 6.96 57.22 7.39Q57.10 7.82 56.88 8.14Q56.66 8.45 56.40 8.45L56.40 8.45Q56.14 8.45 55.64 8.32Q55.15 8.18 54.43 8.18L54.43 8.18Q53.23 8.18 52.44 8.83Q51.65 9.48 51.19 10.56Q50.74 11.64 50.56 13.01Q50.38 14.38 50.38 15.84L50.38 15.84Q50.38 17.42 50.69 18.29Q51 19.15 51.64 19.49Q52.27 19.82 53.26 19.82L53.26 19.82Q54.17 19.82 54.64 19.66Q55.10 19.49 55.39 19.49L55.39 19.49Q55.63 19.49 55.79 19.79Q55.94 20.09 56.02 20.51Q56.09 20.93 56.09 21.26L56.09 21.26Q56.09 21.60 55.94 21.79Q55.80 21.98 55.34 22.15L55.34 22.15Q54.94 22.32 54.23 22.45Q53.52 22.58 52.70 22.58ZM62.04 22.58L62.04 22.58Q59.93 22.58 58.79 21.23Q57.65 19.87 57.65 17.14L57.65 17.14Q57.65 15.65 57.94 14.32Q58.22 12.98 58.87 11.94Q59.52 10.90 60.53 10.30Q61.54 9.70 62.98 9.70L62.98 9.70Q65.11 9.70 66.25 11.06Q67.39 12.43 67.39 15.14L67.39 15.14Q67.39 16.63 67.09 17.96Q66.79 19.30 66.16 20.34Q65.52 21.38 64.50 21.98Q63.48 22.58 62.04 22.58ZM62.30 20.16L62.30 20.16Q63.07 20.16 63.52 19.42Q63.96 18.67 64.15 17.44Q64.34 16.20 64.34 14.71L64.34 14.71Q64.34 13.42 63.97 12.77Q63.60 12.12 62.74 12.12L62.74 12.12Q61.94 12.12 61.50 12.86Q61.06 13.61 60.88 14.86Q60.70 16.10 60.70 17.57L60.70 17.57Q60.70 18.86 61.07 19.51Q61.44 20.16 62.30 20.16ZM77.35 22.58L77.35 22.58Q76.32 22.58 75.67 21.91Q75.02 21.24 75.19 19.61L75.19 19.61L75.79 13.92Q75.82 13.78 75.82 13.64Q75.82 13.51 75.82 13.39L75.82 13.39Q75.82 12.79 75.59 12.50Q75.36 12.22 74.78 12.22L74.78 12.22Q74.23 12.22 73.66 12.53Q73.08 12.84 72.72 13.30L72.72 13.30L71.83 21.77Q71.76 22.46 70.51 22.46L70.51 22.46L69.94 22.46Q68.71 22.46 68.78 21.74L68.78 21.74L69.60 13.85Q69.67 13.20 69.72 12.64Q69.77 12.07 69.77 11.47L69.77 11.47Q69.77 11.21 69.76 10.99Q69.74 10.78 69.74 10.54L69.74 10.54Q69.74 10.27 70.15 10.13Q70.56 9.98 71.05 9.94Q71.54 9.89 71.81 9.89L71.81 9.89Q72.31 9.89 72.48 10.13Q72.65 10.37 72.65 10.82L72.65 10.82Q72.65 11.26 72.58 11.76L72.58 11.76Q73.30 10.80 74.29 10.25Q75.29 9.70 76.39 9.70L76.39 9.70Q78.94 9.70 78.94 12.62L78.94 12.62Q78.94 12.82 78.94 13.03Q78.94 13.25 78.91 13.49L78.91 13.49L78.26 19.49Q78.19 20.18 78.67 20.18L78.67 20.18Q78.84 20.18 79.01 20.10Q79.18 20.02 79.30 20.02L79.30 20.02Q79.56 20.02 79.46 20.64L79.46 20.64Q79.42 20.93 79.36 21.24Q79.30 21.55 79.22 21.77L79.22 21.77Q79.10 22.15 78.54 22.37Q77.98 22.58 77.35 22.58ZM83.62 22.61L83.62 22.61Q82.51 22.61 81.84 21.94Q81.17 21.26 80.86 20.12Q80.54 18.98 80.54 17.57L80.54 17.57Q80.54 16.13 80.81 14.72Q81.07 13.32 81.61 12.18Q82.15 11.04 83.02 10.37Q83.88 9.70 85.08 9.70L85.08 9.70Q85.94 9.70 86.48 9.98Q87.02 10.27 87.43 10.70L87.43 10.70L88.03 5.02Q88.08 4.34 89.33 4.34L89.33 4.34L89.88 4.34Q90.53 4.34 90.82 4.52Q91.10 4.70 91.06 5.02L91.06 5.02L89.57 19.37Q89.47 20.18 89.98 20.18L89.98 20.18Q90.19 20.18 90.35 20.10Q90.50 20.02 90.62 20.02L90.62 20.02Q90.86 20.02 90.77 20.64L90.77 20.64Q90.72 20.95 90.67 21.25Q90.62 21.55 90.55 21.77L90.55 21.77Q90.41 22.15 89.87 22.37Q89.33 22.58 88.70 22.58L88.70 22.58Q87.91 22.58 87.32 22.16Q86.74 21.74 86.62 20.66L86.62 20.66Q85.56 22.61 83.62 22.61ZM84.79 20.16L84.79 20.16Q85.37 20.16 85.86 19.67Q86.35 19.18 86.64 18.22L86.64 18.22L87.05 14.26Q87.10 13.80 87.17 13.42Q87.24 13.03 87.29 12.77L87.29 12.77Q86.74 12.12 85.90 12.12L85.90 12.12Q84.62 12.12 84.10 13.61Q83.57 15.10 83.57 17.54L83.57 17.54Q83.57 18.77 83.86 19.46Q84.14 20.16 84.79 20.16ZM96.58 22.58L96.58 22.58Q94.18 22.58 93.06 21.32Q91.94 20.06 91.94 17.62L91.94 17.62Q91.94 15.26 92.58 13.48Q93.22 11.69 94.50 10.69Q95.78 9.70 97.73 9.70L97.73 9.70Q98.88 9.70 99.62 10.04Q100.37 10.39 100.78 10.92Q101.18 11.45 101.34 12.02Q101.50 12.60 101.50 13.08L101.50 13.08Q101.50 14.45 100.87 15.43Q100.25 16.42 99.17 16.94Q98.09 17.47 96.72 17.47L96.72 17.47Q96.17 17.47 95.75 17.42Q95.33 17.38 94.97 17.30L94.97 17.30L94.97 17.40Q94.97 18.91 95.41 19.54Q95.86 20.16 96.94 20.16L96.94 20.16Q97.90 20.16 98.53 19.96Q99.17 19.75 99.55 19.56Q99.94 19.37 100.13 19.37L100.13 19.37Q100.27 19.37 100.34 19.63Q100.42 19.90 100.44 20.24Q100.46 20.59 100.46 20.86L100.46 20.86Q100.46 21.31 99.85 21.71Q99.24 22.10 98.34 22.34Q97.44 22.58 96.58 22.58ZM96.07 15.46L96.07 15.46Q97.15 15.46 97.88 14.95Q98.62 14.45 98.62 13.27L98.62 13.27Q98.62 12.67 98.33 12.32Q98.04 11.98 97.51 11.98L97.51 11.98Q96.46 11.98 95.89 12.88Q95.33 13.78 95.11 15.38L95.11 15.38Q95.35 15.46 95.59 15.46Q95.83 15.46 96.07 15.46ZM111.26 22.58L111.26 22.58Q110.23 22.58 109.58 21.91Q108.94 21.24 109.10 19.61L109.10 19.61L109.70 13.92Q109.73 13.78 109.73 13.64Q109.73 13.51 109.73 13.39L109.73 13.39Q109.73 12.79 109.50 12.50Q109.27 12.22 108.70 12.22L108.70 12.22Q108.14 12.22 107.57 12.53Q106.99 12.84 106.63 13.30L106.63 13.30L105.74 21.77Q105.67 22.46 104.42 22.46L104.42 22.46L103.85 22.46Q102.62 22.46 102.70 21.74L102.70 21.74L103.51 13.85Q103.58 13.20 103.63 12.64Q103.68 12.07 103.68 11.47L103.68 11.47Q103.68 11.21 103.67 10.99Q103.66 10.78 103.66 10.54L103.66 10.54Q103.66 10.27 104.06 10.13Q104.47 9.98 104.96 9.94Q105.46 9.89 105.72 9.89L105.72 9.89Q106.22 9.89 106.39 10.13Q106.56 10.37 106.56 10.82L106.56 10.82Q106.56 11.26 106.49 11.76L106.49 11.76Q107.21 10.80 108.20 10.25Q109.20 9.70 110.30 9.70L110.30 9.70Q112.85 9.70 112.85 12.62L112.85 12.62Q112.85 12.82 112.85 13.03Q112.85 13.25 112.82 13.49L112.82 13.49L112.18 19.49Q112.10 20.18 112.58 20.18L112.58 20.18Q112.75 20.18 112.92 20.10Q113.09 20.02 113.21 20.02L113.21 20.02Q113.47 20.02 113.38 20.64L113.38 20.64Q113.33 20.93 113.27 21.24Q113.21 21.55 113.14 21.77L113.14 21.77Q113.02 22.15 112.45 22.37Q111.89 22.58 111.26 22.58ZM117 22.61L117 22.61Q116.06 22.61 115.31 22.38Q114.55 22.15 114.11 21.83Q113.66 21.50 113.66 21.19L113.66 21.19Q113.66 20.90 113.84 20.51Q114.02 20.11 114.26 19.80Q114.50 19.49 114.70 19.49L114.70 19.49Q114.89 19.49 115.20 19.67Q115.51 19.85 115.96 20.02Q116.40 20.18 116.95 20.18L116.95 20.18Q117.72 20.18 118.09 19.84Q118.46 19.49 118.46 18.94L118.46 18.94Q118.46 18.26 117.95 17.88Q117.43 17.50 116.81 17.04L116.81 17.04Q115.75 16.27 115.20 15.48Q114.65 14.69 114.65 13.54L114.65 13.54Q114.65 11.76 115.82 10.72Q117 9.67 118.87 9.67L118.87 9.67Q119.47 9.67 120.14 9.82Q120.82 9.96 121.28 10.24Q121.75 10.51 121.70 10.94L121.70 10.94Q121.68 11.18 121.54 11.57Q121.39 11.95 121.16 12.25Q120.94 12.55 120.72 12.55L120.72 12.55Q120.48 12.55 119.99 12.31Q119.50 12.07 118.82 12.07L118.82 12.07Q118.13 12.07 117.77 12.40Q117.41 12.72 117.41 13.25L117.41 13.25Q117.41 13.85 117.88 14.21Q118.34 14.57 118.92 14.93L118.92 14.93Q120 15.65 120.64 16.49Q121.27 17.33 121.27 18.58L121.27 18.58Q121.27 20.38 120.13 21.49Q118.99 22.61 117 22.61ZM127.58 22.58L127.58 22.58Q125.18 22.58 124.07 21.32Q122.95 20.06 122.95 17.62L122.95 17.62Q122.95 15.26 123.59 13.48Q124.22 11.69 125.51 10.69Q126.79 9.70 128.74 9.70L128.74 9.70Q129.89 9.70 130.63 10.04Q131.38 10.39 131.78 10.92Q132.19 11.45 132.35 12.02Q132.50 12.60 132.50 13.08L132.50 13.08Q132.50 14.45 131.88 15.43Q131.26 16.42 130.18 16.94Q129.10 17.47 127.73 17.47L127.73 17.47Q127.18 17.47 126.76 17.42Q126.34 17.38 125.98 17.30L125.98 17.30L125.98 17.40Q125.98 18.91 126.42 19.54Q126.86 20.16 127.94 20.16L127.94 20.16Q128.90 20.16 129.54 19.96Q130.18 19.75 130.56 19.56Q130.94 19.37 131.14 19.37L131.14 19.37Q131.28 19.37 131.35 19.63Q131.42 19.90 131.45 20.24Q131.47 20.59 131.47 20.86L131.47 20.86Q131.47 21.31 130.86 21.71Q130.25 22.10 129.35 22.34Q128.45 22.58 127.58 22.58ZM127.08 15.46L127.08 15.46Q128.16 15.46 128.89 14.95Q129.62 14.45 129.62 13.27L129.62 13.27Q129.62 12.67 129.34 12.32Q129.05 11.98 128.52 11.98L128.52 11.98Q127.46 11.98 126.90 12.88Q126.34 13.78 126.12 15.38L126.12 15.38Q126.36 15.46 126.60 15.46Q126.84 15.46 127.08 15.46ZM136.42 22.61L136.42 22.61Q135.31 22.61 134.64 21.94Q133.97 21.26 133.66 20.12Q133.34 18.98 133.34 17.57L133.34 17.57Q133.34 16.13 133.61 14.72Q133.87 13.32 134.41 12.18Q134.95 11.04 135.82 10.37Q136.68 9.70 137.88 9.70L137.88 9.70Q138.74 9.70 139.28 9.98Q139.82 10.27 140.23 10.70L140.23 10.70L140.83 5.02Q140.88 4.34 142.13 4.34L142.13 4.34L142.68 4.34Q143.33 4.34 143.62 4.52Q143.90 4.70 143.86 5.02L143.86 5.02L142.37 19.37Q142.27 20.18 142.78 20.18L142.78 20.18Q142.99 20.18 143.15 20.10Q143.30 20.02 143.42 20.02L143.42 20.02Q143.66 20.02 143.57 20.64L143.57 20.64Q143.52 20.95 143.47 21.25Q143.42 21.55 143.35 21.77L143.35 21.77Q143.21 22.15 142.67 22.37Q142.13 22.58 141.50 22.58L141.50 22.58Q140.71 22.58 140.12 22.16Q139.54 21.74 139.42 20.66L139.42 20.66Q138.36 22.61 136.42 22.61ZM137.59 20.16L137.59 20.16Q138.17 20.16 138.66 19.67Q139.15 19.18 139.44 18.22L139.44 18.22L139.85 14.26Q139.90 13.80 139.97 13.42Q140.04 13.03 140.09 12.77L140.09 12.77Q139.54 12.12 138.70 12.12L138.70 12.12Q137.42 12.12 136.90 13.61Q136.37 15.10 136.37 17.54L136.37 17.54Q136.37 18.77 136.66 19.46Q136.94 20.16 137.59 20.16ZM152.26 22.58L152.26 22.58Q151.08 22.58 150.11 22.07Q149.14 21.55 148.56 20.45Q147.98 19.34 147.98 17.59L147.98 17.59Q147.98 15.34 148.58 13.56Q149.18 11.78 150.12 10.45Q151.06 9.12 152.14 8.17Q153.22 7.22 154.21 6.65Q155.21 6.07 155.93 5.81Q156.65 5.54 156.82 5.54L156.82 5.54Q157.15 5.54 157.34 5.88Q157.54 6.22 157.61 6.62Q157.68 7.03 157.68 7.25L157.68 7.25Q157.68 7.58 157.58 7.68Q157.49 7.78 157.30 7.85L157.30 7.85Q153.46 9.43 151.97 12.82L151.97 12.82Q152.52 12.55 153.05 12.44Q153.58 12.34 154.13 12.34L154.13 12.34Q154.94 12.34 155.77 12.77Q156.60 13.20 157.15 14.12Q157.70 15.05 157.70 16.54L157.70 16.54Q157.70 18.36 157.02 19.73Q156.34 21.10 155.12 21.84Q153.91 22.58 152.26 22.58ZM151.06 17.71L151.06 17.71Q151.06 19.10 151.51 19.63Q151.97 20.16 152.59 20.16L152.59 20.16Q153.36 20.16 154.00 19.30Q154.63 18.43 154.63 16.87L154.63 16.87Q154.63 15.84 154.18 15.30Q153.72 14.76 153 14.76L153 14.76Q152.54 14.76 152.10 14.90Q151.66 15.05 151.25 15.24L151.25 15.24Q151.06 16.42 151.06 17.71ZM163.49 22.58L163.49 22.58Q161.50 22.58 160.46 21.02Q159.43 19.46 159.43 16.39L159.43 16.39Q159.43 13.08 160.16 10.62Q160.90 8.16 162.20 6.80Q163.51 5.45 165.29 5.45L165.29 5.45Q167.26 5.45 168.31 7.01Q169.37 8.57 169.37 11.66L169.37 11.66Q169.37 14.95 168.64 17.41Q167.90 19.87 166.58 21.23Q165.26 22.58 163.49 22.58ZM163.75 20.16L163.75 20.16Q164.26 20.16 164.72 19.40Q165.19 18.65 165.55 17.34Q165.91 16.03 166.12 14.33Q166.32 12.62 166.32 10.75L166.32 10.75Q166.32 9.10 165.97 8.48Q165.62 7.87 165.02 7.87L165.02 7.87Q164.52 7.87 164.05 8.63Q163.58 9.38 163.22 10.70Q162.86 12.02 162.66 13.73Q162.46 15.43 162.46 17.30L162.46 17.30Q162.46 18.94 162.80 19.55Q163.15 20.16 163.75 20.16ZM174.77 22.58L174.77 22.58Q172.78 22.58 171.74 21.02Q170.71 19.46 170.71 16.39L170.71 16.39Q170.71 13.08 171.44 10.62Q172.18 8.16 173.48 6.80Q174.79 5.45 176.57 5.45L176.57 5.45Q178.54 5.45 179.59 7.01Q180.65 8.57 180.65 11.66L180.65 11.66Q180.65 14.95 179.92 17.41Q179.18 19.87 177.86 21.23Q176.54 22.58 174.77 22.58ZM175.03 20.16L175.03 20.16Q175.54 20.16 176.00 19.40Q176.47 18.65 176.83 17.34Q177.19 16.03 177.40 14.33Q177.60 12.62 177.60 10.75L177.60 10.75Q177.60 9.10 177.25 8.48Q176.90 7.87 176.30 7.87L176.30 7.87Q175.80 7.87 175.33 8.63Q174.86 9.38 174.50 10.70Q174.14 12.02 173.94 13.73Q173.74 15.43 173.74 17.30L173.74 17.30Q173.74 18.94 174.08 19.55Q174.43 20.16 175.03 20.16ZM187.39 22.58L187.39 22.58Q186.82 22.58 186.28 22.33Q185.74 22.08 185.44 21.43Q185.14 20.78 185.26 19.61L185.26 19.61L186.19 10.51Q186.26 9.82 187.54 9.82L187.54 9.82L188.04 9.82Q188.78 9.82 189.04 10.02Q189.29 10.22 189.24 10.56L189.24 10.56L188.30 19.49Q188.21 20.18 188.74 20.18L188.74 20.18Q188.95 20.18 189.12 20.10Q189.29 20.02 189.41 20.02L189.41 20.02Q189.65 20.02 189.55 20.64L189.55 20.64Q189.50 20.95 189.46 21.25Q189.41 21.55 189.34 21.77L189.34 21.77Q189.22 22.13 188.64 22.36Q188.06 22.58 187.39 22.58ZM187.97 8.47L187.97 8.47Q187.15 8.47 186.80 8.29Q186.46 8.11 186.50 7.78L186.50 7.78L186.67 6.05Q186.70 5.74 187.08 5.56Q187.46 5.38 188.28 5.38L188.28 5.38Q189.10 5.38 189.42 5.54Q189.74 5.71 189.72 6.05L189.72 6.05L189.55 7.78Q189.48 8.47 187.97 8.47ZM193.73 22.58L193.73 22.58Q192.96 22.58 192.29 22.28Q191.62 21.98 191.26 21.25Q190.90 20.52 191.02 19.20L191.02 19.20L191.76 12.29L191.09 12.29Q190.44 12.29 190.54 11.26L190.54 11.26L190.58 10.90Q190.70 9.86 191.33 9.86L191.33 9.86L192.02 9.86L192.55 7.51Q192.67 6.82 193.78 6.82L193.78 6.82L194.14 6.82Q195.38 6.82 195.29 7.58L195.29 7.58L195.02 9.86L196.30 9.86Q196.94 9.86 196.82 10.90L196.82 10.90L196.80 11.26Q196.68 12.29 196.06 12.29L196.06 12.29L194.83 12.29L194.11 19.15Q194.04 19.73 194.22 19.96Q194.40 20.18 194.90 20.18L194.90 20.18Q195.19 20.18 195.43 20.10Q195.67 20.02 195.79 20.02L195.79 20.02Q196.03 20.02 195.94 20.64L195.94 20.64Q195.91 20.90 195.85 21.23Q195.79 21.55 195.72 21.77L195.72 21.77Q195.53 22.15 194.95 22.37Q194.38 22.58 193.73 22.58ZM200.38 22.61L200.38 22.61Q199.22 22.61 198.55 21.89Q197.88 21.17 197.59 20.03Q197.30 18.89 197.30 17.57L197.30 17.57Q197.30 16.18 197.57 14.77Q197.83 13.37 198.40 12.22Q198.96 11.06 199.84 10.38Q200.71 9.70 201.91 9.70L201.91 9.70Q202.94 9.70 203.57 10.13Q204.19 10.56 204.50 10.94L204.50 10.94Q204.72 10.27 204.95 10.04Q205.18 9.82 205.90 9.82L205.90 9.82L206.14 9.82Q207.31 9.82 207.26 10.39L207.26 10.39L206.26 19.37Q206.21 19.85 206.34 20.02Q206.47 20.18 206.69 20.18L206.69 20.18Q206.90 20.18 207.07 20.10Q207.24 20.02 207.36 20.02L207.36 20.02Q207.62 20.02 207.50 20.64L207.50 20.64Q207.48 20.95 207.42 21.25Q207.36 21.55 207.29 21.77L207.29 21.77Q207.17 22.15 206.60 22.37Q206.04 22.58 205.42 22.58L205.42 22.58Q204.67 22.58 204.07 22.16Q203.47 21.74 203.35 20.66L203.35 20.66Q202.85 21.60 202.10 22.10Q201.36 22.61 200.38 22.61ZM201.55 20.16L201.55 20.16Q202.10 20.16 202.61 19.67Q203.11 19.18 203.40 18.22L203.40 18.22L203.83 14.26Q203.88 13.80 203.94 13.42Q204.00 13.03 204.07 12.77L204.07 12.77Q203.86 12.53 203.51 12.32Q203.16 12.12 202.63 12.12L202.63 12.12Q201.41 12.12 200.87 13.63Q200.33 15.14 200.33 17.54L200.33 17.54Q200.33 18.65 200.59 19.40Q200.86 20.16 201.55 20.16ZM211.18 22.58L211.18 22.58Q209.95 22.58 209.20 21.83Q208.44 21.07 208.63 19.20L208.63 19.20L210.12 5.02Q210.19 4.34 211.46 4.34L211.46 4.34L211.94 4.34Q213.22 4.34 213.14 5.02L213.14 5.02L211.66 19.25Q211.61 19.78 211.75 19.98Q211.90 20.18 212.30 20.18L212.30 20.18Q212.57 20.18 212.77 20.10Q212.98 20.02 213.10 20.02L213.10 20.02Q213.36 20.02 213.26 20.64L213.26 20.64Q213.22 20.93 213.17 21.24Q213.12 21.55 213.02 21.77L213.02 21.77Q212.90 22.13 212.35 22.36Q211.80 22.58 211.18 22.58ZM217.10 22.58L217.10 22.58Q216.53 22.58 215.99 22.33Q215.45 22.08 215.15 21.43Q214.85 20.78 214.97 19.61L214.97 19.61L215.90 10.51Q215.98 9.82 217.25 9.82L217.25 9.82L217.75 9.82Q218.50 9.82 218.75 10.02Q219.00 10.22 218.95 10.56L218.95 10.56L218.02 19.49Q217.92 20.18 218.45 20.18L218.45 20.18Q218.66 20.18 218.83 20.10Q219.00 20.02 219.12 20.02L219.12 20.02Q219.36 20.02 219.26 20.64L219.26 20.64Q219.22 20.95 219.17 21.25Q219.12 21.55 219.05 21.77L219.05 21.77Q218.93 22.13 218.35 22.36Q217.78 22.58 217.10 22.58ZM217.68 8.47L217.68 8.47Q216.86 8.47 216.52 8.29Q216.17 8.11 216.22 7.78L216.22 7.78L216.38 6.05Q216.41 5.74 216.79 5.56Q217.18 5.38 217.99 5.38L217.99 5.38Q218.81 5.38 219.13 5.54Q219.46 5.71 219.43 6.05L219.43 6.05L219.26 7.78Q219.19 8.47 217.68 8.47ZM224.66 22.58L224.66 22.58Q222.58 22.58 221.48 21.32Q220.39 20.06 220.39 17.54L220.39 17.54Q220.39 15.29 220.99 13.51Q221.59 11.74 222.84 10.72Q224.09 9.70 226.01 9.70L226.01 9.70Q226.68 9.70 227.34 9.83Q228.00 9.96 228.42 10.19Q228.84 10.42 228.84 10.70L228.84 10.70Q228.84 10.82 228.73 11.24Q228.62 11.66 228.44 12.05Q228.26 12.43 228.02 12.43L228.02 12.43Q227.74 12.43 227.29 12.28Q226.85 12.12 226.15 12.12L226.15 12.12Q225.12 12.12 224.53 12.84Q223.94 13.56 223.70 14.81Q223.46 16.06 223.46 17.62L223.46 17.62Q223.46 18.98 223.91 19.57Q224.35 20.16 225.34 20.16L225.34 20.16Q226.18 20.16 226.73 19.96Q227.28 19.75 227.52 19.75L227.52 19.75Q227.66 19.75 227.74 20.02Q227.81 20.28 227.83 20.63Q227.86 20.98 227.86 21.26L227.86 21.26Q227.86 21.84 226.92 22.21Q225.98 22.58 224.66 22.58Z"/></svg>