<svg xmlns="http://www.w3.org/2000/svg" xmlns:xlink="http://www.w3.org/1999/xlink" width="268.548" height="28.728"><path fill="black" d="M4.71 23.62L1.54 23.62L1.54 4.42L4.61 4.42Q5.71 4.42 6.46 4.69Q7.22 4.96 7.61 5.63Q8.01 6.29 8.04 7.48L8.04 7.48Q8.06 8.36 8.08 9.05Q8.09 9.74 8.08 10.37Q8.07 10.99 8.03 11.68L8.03 11.68Q7.97 12.53 7.63 13.10Q7.28 13.67 6.61 13.91L6.61 13.91L6.61 13.98Q7.30 14.20 7.72 14.86Q8.14 15.53 8.17 16.39L8.17 16.39Q8.19 16.91 8.20 17.38Q8.21 17.85 8.21 18.34Q8.21 18.82 8.20 19.38Q8.18 19.94 8.15 20.64L8.15 20.64Q8.11 21.80 7.70 22.44Q7.28 23.09 6.53 23.35Q5.78 23.62 4.71 23.62L4.71 23.62ZM1.84 4.67L1.84 23.36L4.71 23.36Q6.20 23.36 7.00 22.78Q7.79 22.20 7.86 20.64L7.86 20.64Q7.90 19.76 7.91 19.04Q7.93 18.33 7.91 17.69Q7.90 17.05 7.87 16.40L7.87 16.40Q7.84 15.40 7.34 14.78Q6.84 14.17 6.10 14.00L6.10 14.00L6.10 13.93Q6.88 13.70 7.28 13.16Q7.67 12.62 7.73 11.65L7.73 11.65Q7.78 11.03 7.78 10.41Q7.79 9.79 7.78 9.07Q7.76 8.36 7.75 7.48L7.75 7.48Q7.72 6.39 7.36 5.78Q7.00 5.17 6.31 4.92Q5.62 4.67 4.61 4.67L4.61 4.67L1.84 4.67ZM4.71 23.09L2.13 23.09L2.13 4.93L4.61 4.93Q5.51 4.93 6.13 5.15Q6.76 5.38 7.09 5.93Q7.42 6.49 7.45 7.48L7.45 7.48Q7.48 8.38 7.49 9.08Q7.49 9.79 7.49 10.41Q7.48 11.02 7.44 11.65L7.44 11.65Q7.39 12.53 6.95 13.14Q6.52 13.75 5.69 13.94L5.69 13.94L5.69 13.99Q6.54 14.15 7.03 14.79Q7.52 15.43 7.56 16.40L7.56 16.40Q7.58 17.00 7.59 17.61Q7.60 18.23 7.60 18.96Q7.59 19.69 7.55 20.64L7.55 20.64Q7.49 22.07 6.76 22.58Q6.03 23.09 4.71 23.09L4.71 23.09ZM2.42 5.19L2.42 13.85L5.02 13.85Q6.04 13.85 6.56 13.21Q7.09 12.57 7.15 11.65L7.15 11.65Q7.18 11.01 7.19 10.39Q7.20 9.78 7.19 9.07Q7.18 8.37 7.15 7.48L7.15 7.48Q7.11 6.11 6.45 5.65Q5.78 5.19 4.61 5.19L4.61 5.19L2.42 5.19ZM5.02 13.60L2.72 13.60L2.72 5.45L4.61 5.45Q5.68 5.45 6.25 5.87Q6.82 6.29 6.86 7.49L6.86 7.49Q6.89 8.47 6.90 9.18Q6.91 9.89 6.89 10.46Q6.88 11.04 6.85 11.63L6.85 11.63Q6.80 12.43 6.36 13.01Q5.92 13.60 5.02 13.60L5.02 13.60ZM3.02 5.71L3.02 13.34L5.02 13.34Q5.78 13.34 6.15 12.82Q6.51 12.31 6.55 11.63L6.55 11.63Q6.61 10.67 6.60 9.74Q6.60 8.81 6.56 7.49L6.56 7.49Q6.53 6.41 6.02 6.06Q5.50 5.71 4.61 5.71L4.61 5.71L3.02 5.71ZM2.42 14.11L2.42 22.84L4.71 22.84Q5.92 22.84 6.56 22.37Q7.21 21.91 7.25 20.64L7.25 20.64Q7.30 19.64 7.30 18.94Q7.31 18.24 7.30 17.66Q7.29 17.07 7.27 16.42L7.27 16.42Q7.22 15.36 6.64 14.73Q6.05 14.11 5.09 14.11L5.09 14.11L2.42 14.11ZM4.70 22.58L2.72 22.58L2.72 14.37L5.13 14.37Q6 14.37 6.47 14.96Q6.94 15.55 6.97 16.43L6.97 16.43Q7.00 17.06 7.00 17.65Q7.01 18.24 7.01 18.95Q7.00 19.65 6.96 20.64L6.96 20.64Q6.92 21.77 6.34 22.18Q5.76 22.58 4.70 22.58L4.70 22.58ZM3.02 14.62L3.02 22.33L4.70 22.33Q5.69 22.33 6.16 21.95Q6.64 21.57 6.67 20.67L6.67 20.67Q6.70 19.57 6.71 18.87Q6.72 18.18 6.71 17.64Q6.70 17.09 6.67 16.45L6.67 16.45Q6.64 15.63 6.25 15.13Q5.85 14.62 5.15 14.62L5.15 14.62L3.02 14.62ZM12.29 4.90L10.81 4.90L10.81 4.63L12.29 4.63L12.29 4.90ZM12.29 6.01L10.81 6.01L10.81 5.74L12.29 5.74L12.29 6.01ZM12.29 5.46L10.81 5.46L10.81 5.18L12.29 5.18L12.29 5.46ZM12.29 23.62L11.99 23.62L11.99 9.22L12.29 9.22L12.29 23.62ZM11.11 23.62L10.81 23.62L10.81 9.22L11.11 9.22L11.11 23.62ZM11.69 23.62L11.40 23.62L11.40 9.22L11.69 9.22L11.69 23.62ZM18.07 27.46L18.07 27.46Q16.33 27.46 15.48 26.93Q14.63 26.40 14.54 25.25L14.54 25.25Q14.53 25.10 14.53 24.96Q14.54 24.81 14.54 24.64L14.54 24.64Q14.60 23.89 14.94 23.48Q15.28 23.06 15.97 22.88L15.97 22.88L15.97 22.81Q15.48 22.67 15.25 22.39Q15.01 22.12 14.98 21.64L14.98 21.64Q14.98 21.52 14.98 21.38Q14.98 21.25 14.98 21.14L14.98 21.14Q15 20.57 15.25 20.22Q15.51 19.87 16.09 19.72L16.09 19.72L16.09 19.65Q15.55 19.46 15.22 18.91Q14.89 18.35 14.84 17.47L14.84 17.47Q14.81 16.81 14.80 16.16Q14.78 15.50 14.78 14.82Q14.78 14.14 14.80 13.42Q14.81 12.70 14.84 11.95L14.84 11.95Q14.90 10.40 15.65 9.73Q16.40 9.05 18.04 9.05L18.04 9.05Q19.16 9.05 19.74 9.38Q20.31 9.71 20.52 10.39L20.52 10.39L20.59 10.39Q20.78 10.02 21.13 9.76Q21.48 9.49 21.90 9.35Q22.33 9.21 22.71 9.22L22.71 9.22L22.71 9.46Q21.87 9.46 21.31 9.85Q20.75 10.25 20.57 10.80L20.57 10.80L20.48 10.80Q20.30 10.01 19.74 9.65Q19.18 9.29 18.04 9.29L18.04 9.29Q16.57 9.29 15.87 9.90Q15.18 10.51 15.14 11.93L15.14 11.93Q15.10 12.97 15.09 13.88Q15.07 14.79 15.08 15.66Q15.10 16.52 15.14 17.44L15.14 17.44Q15.19 18.42 15.55 18.96Q15.92 19.50 16.55 19.66L16.55 19.66L16.55 19.73Q15.83 19.88 15.54 20.21Q15.25 20.54 15.23 21.13L15.23 21.13Q15.23 21.26 15.23 21.39Q15.23 21.51 15.23 21.64L15.23 21.64Q15.26 22.13 15.53 22.39Q15.79 22.65 16.46 22.82L16.46 22.82L16.46 22.89Q15.61 23.03 15.24 23.44Q14.87 23.84 14.81 24.64L14.81 24.64Q14.79 24.82 14.78 24.94Q14.77 25.06 14.79 25.25L14.79 25.25Q14.88 26.27 15.63 26.76Q16.39 27.24 18.07 27.24L18.07 27.24Q19.81 27.24 20.59 26.74Q21.37 26.24 21.44 25.12L21.44 25.12Q21.46 24.92 21.45 24.79Q21.45 24.65 21.43 24.46L21.43 24.46Q21.34 23.50 20.57 23.05Q19.79 22.60 18.11 22.54L18.11 22.54Q17.36 22.51 16.91 22.41Q16.45 22.31 16.24 22.13Q16.02 21.94 15.98 21.64L15.98 21.64Q15.98 21.53 15.97 21.38Q15.97 21.23 15.97 21.13L15.97 21.13Q16.02 20.53 16.49 20.30Q16.96 20.06 18.04 20.07L18.04 20.07Q19.59 20.08 20.23 19.41Q20.86 18.74 20.92 17.42L20.92 17.42Q20.96 16.45 20.97 15.67Q20.98 14.89 20.96 14.04Q20.94 13.19 20.92 12.03L20.92 12.03Q20.90 11.22 21.37 10.69Q21.83 10.16 22.71 10.17L22.71 10.17L22.71 10.42Q21.91 10.40 21.53 10.90Q21.16 11.39 21.18 12.11L21.18 12.11Q21.20 13.09 21.23 13.93Q21.25 14.77 21.25 15.61Q21.25 16.45 21.20 17.44L21.20 17.44Q21.13 18.97 20.39 19.64Q19.66 20.30 18.04 20.30L18.04 20.30Q17.43 20.30 17.04 20.38Q16.64 20.45 16.45 20.63Q16.25 20.81 16.24 21.16L16.24 21.16Q16.24 21.21 16.24 21.35Q16.24 21.50 16.24 21.58L16.24 21.58Q16.27 21.84 16.46 21.99Q16.66 22.13 17.07 22.20Q17.47 22.27 18.12 22.30L18.12 22.30Q19.93 22.36 20.77 22.87Q21.61 23.37 21.70 24.47L21.70 24.47Q21.71 24.65 21.71 24.80Q21.71 24.96 21.70 25.12L21.70 25.12Q21.64 26.35 20.78 26.91Q19.93 27.46 18.07 27.46ZM18.07 26.79L18.07 26.79Q19.07 26.79 19.70 26.61Q20.32 26.43 20.61 26.07Q20.91 25.70 20.93 25.16L20.93 25.16Q20.93 24.94 20.93 24.80Q20.93 24.66 20.92 24.46L20.92 24.46Q20.89 24 20.60 23.68Q20.32 23.36 19.72 23.18Q19.11 23.00 18.10 22.96L18.10 22.96Q16.68 22.89 16.03 23.29Q15.38 23.69 15.29 24.65L15.29 24.65Q15.28 24.82 15.27 24.95Q15.26 25.09 15.28 25.27L15.28 25.27Q15.35 26.08 16.01 26.44Q16.67 26.79 18.07 26.79ZM18.07 26.57L18.07 26.57Q16.76 26.57 16.17 26.27Q15.58 25.96 15.52 25.25L15.52 25.25Q15.51 25.10 15.52 24.97Q15.52 24.83 15.54 24.64L15.54 24.64Q15.62 23.71 16.25 23.41Q16.88 23.11 18.13 23.15L18.13 23.15Q18.99 23.19 19.54 23.34Q20.09 23.49 20.36 23.77Q20.63 24.04 20.67 24.46L20.67 24.46Q20.69 24.70 20.68 24.83Q20.68 24.97 20.68 25.13L20.68 25.13Q20.63 25.90 20.02 26.24Q19.41 26.57 18.07 26.57ZM18.07 26.35L18.07 26.35Q18.87 26.35 19.37 26.23Q19.87 26.11 20.12 25.83Q20.37 25.56 20.40 25.12L20.40 25.12Q20.41 24.95 20.41 24.79Q20.41 24.64 20.39 24.46L20.39 24.46Q20.37 24.12 20.14 23.90Q19.90 23.68 19.41 23.55Q18.91 23.42 18.10 23.38L18.10 23.38Q16.92 23.31 16.39 23.63Q15.85 23.94 15.79 24.64L15.79 24.64Q15.78 24.79 15.78 24.95Q15.78 25.11 15.79 25.25L15.79 25.25Q15.82 25.81 16.35 26.08Q16.88 26.35 18.07 26.35ZM18.07 27.02L18.07 27.02Q16.52 27.02 15.81 26.61Q15.10 26.20 15.03 25.25L15.03 25.25Q15.02 25.08 15.02 24.95Q15.02 24.83 15.04 24.64L15.04 24.64Q15.09 23.82 15.55 23.41Q16.01 23.00 17.01 22.88L17.01 22.88L17.01 22.82Q16.22 22.72 15.87 22.44Q15.51 22.17 15.47 21.64L15.47 21.64Q15.46 21.50 15.46 21.38Q15.46 21.25 15.46 21.13L15.46 21.13Q15.49 20.50 15.88 20.16Q16.27 19.82 17.02 19.72L17.02 19.72L17.02 19.66Q16.29 19.52 15.88 18.98Q15.47 18.44 15.43 17.42L15.43 17.42Q15.39 16.60 15.38 15.73Q15.37 14.86 15.38 13.92Q15.40 12.98 15.43 11.95L15.43 11.95Q15.47 10.62 16.11 10.07Q16.75 9.52 18.04 9.52L18.04 9.52Q19.24 9.52 19.79 9.98Q20.35 10.45 20.44 11.48L20.44 11.48L20.51 11.48Q20.62 10.93 20.90 10.53Q21.18 10.13 21.64 9.91Q22.09 9.70 22.71 9.68L22.71 9.68L22.71 9.94Q21.73 9.92 21.17 10.52Q20.62 11.12 20.64 11.97L20.64 11.97Q20.67 13.00 20.68 13.92Q20.69 14.83 20.68 15.69Q20.67 16.55 20.63 17.42L20.63 17.42Q20.58 18.70 19.97 19.27Q19.36 19.84 18.04 19.84L18.04 19.84Q17.32 19.84 16.81 19.96Q16.31 20.08 16.04 20.36Q15.77 20.63 15.73 21.10L15.73 21.10Q15.72 21.24 15.72 21.39Q15.73 21.54 15.73 21.64L15.73 21.64Q15.79 22.23 16.36 22.45Q16.93 22.68 18.11 22.72L18.11 22.72Q19.10 22.76 19.77 22.95Q20.44 23.14 20.79 23.51Q21.14 23.87 21.19 24.45L21.19 24.45Q21.20 24.61 21.20 24.78Q21.21 24.94 21.20 25.12L21.20 25.12Q21.14 26.17 20.38 26.60Q19.61 27.02 18.07 27.02ZM18.04 19.58L18.04 19.58Q19.19 19.58 19.75 19.07Q20.30 18.56 20.35 17.42L20.35 17.42Q20.39 16.51 20.39 15.66Q20.40 14.81 20.38 13.90Q20.36 12.99 20.33 11.91L20.33 11.91Q20.29 10.73 19.72 10.24Q19.15 9.76 18.04 9.76L18.04 9.76Q16.78 9.76 16.27 10.30Q15.75 10.85 15.72 11.95L15.72 11.95Q15.68 13.52 15.68 14.77Q15.67 16.02 15.72 17.47L15.72 17.47Q15.76 18.58 16.32 19.08Q16.88 19.58 18.04 19.58ZM18.04 19.35L18.04 19.35Q16.99 19.35 16.51 18.88Q16.04 18.41 16.01 17.42L16.01 17.42Q15.97 16.11 15.97 14.80Q15.98 13.49 16.01 11.96L16.01 11.96Q16.04 10.91 16.52 10.46Q17.00 10.00 18.04 10.00L18.04 10.00Q19.04 10.00 19.52 10.45Q20.00 10.90 20.03 11.90L20.03 11.90Q20.07 13.00 20.09 13.92Q20.10 14.84 20.09 15.69Q20.08 16.53 20.05 17.41L20.05 17.41Q20.01 18.41 19.53 18.88Q19.05 19.35 18.04 19.35ZM18.04 19.12L18.04 19.12Q18.88 19.12 19.30 18.71Q19.72 18.30 19.75 17.39L19.75 17.39Q19.79 16.57 19.80 15.72Q19.81 14.87 19.79 13.94Q19.78 13.00 19.74 11.90L19.74 11.90Q19.71 10.99 19.28 10.61Q18.85 10.24 18.04 10.24L18.04 10.24Q17.18 10.24 16.75 10.63Q16.32 11.02 16.30 11.97L16.30 11.97Q16.27 13.41 16.26 14.73Q16.25 16.06 16.30 17.41L16.30 17.41Q16.33 18.30 16.75 18.71Q17.17 19.12 18.04 19.12ZM32.19 23.76L32.19 23.76Q30.48 23.76 29.69 23.09Q28.90 22.42 28.85 20.83L28.85 20.83Q28.83 20.07 28.82 19.42Q28.81 18.77 28.82 18.13Q28.84 17.49 28.87 16.75L28.87 16.75L29.16 16.75Q29.14 17.38 29.12 17.99Q29.11 18.61 29.11 19.29Q29.12 19.97 29.14 20.81L29.14 20.81Q29.19 22.27 29.90 22.90Q30.61 23.53 32.19 23.53L32.19 23.53Q33.73 23.53 34.42 22.90Q35.11 22.27 35.17 20.81L35.17 20.81Q35.19 20.26 35.20 19.66Q35.20 19.06 35.20 18.45Q35.20 17.84 35.17 17.25L35.17 17.25Q35.12 15.65 34.43 14.89Q33.75 14.14 32.56 13.82L32.56 13.82L31.55 13.56Q31.03 13.42 30.69 13.15Q30.35 12.88 30.20 12.34Q30.04 11.81 30.01 10.86L30.01 10.86Q29.99 9.99 30.00 9.12Q30.01 8.24 30.03 7.21L30.03 7.21Q30.05 6.14 30.55 5.68Q31.05 5.22 32.17 5.22L32.17 5.22Q33.17 5.22 33.67 5.66Q34.18 6.10 34.21 7.24L34.21 7.24Q34.22 7.91 34.22 8.89Q34.22 9.86 34.20 10.94L34.20 10.94L33.90 10.94Q33.92 9.88 33.93 8.91Q33.93 7.94 33.91 7.25L33.91 7.25Q33.89 6.29 33.48 5.87Q33.08 5.45 32.17 5.45L32.17 5.45Q31.22 5.45 30.78 5.86Q30.34 6.26 30.32 7.22L30.32 7.22Q30.31 8.16 30.30 9.07Q30.29 9.99 30.31 10.85L30.31 10.85Q30.32 11.75 30.47 12.23Q30.62 12.71 30.91 12.94Q31.19 13.16 31.63 13.28L31.63 13.28L32.62 13.55Q33.99 13.92 34.70 14.76Q35.41 15.59 35.47 17.24L35.47 17.24Q35.49 17.81 35.49 18.43Q35.50 19.05 35.49 19.66Q35.48 20.28 35.46 20.83L35.46 20.83Q35.40 22.40 34.64 23.08Q33.88 23.76 32.19 23.76ZM32.19 23.29L32.19 23.29Q30.77 23.29 30.13 22.71Q29.48 22.14 29.44 20.80L29.44 20.80Q29.42 20.08 29.41 19.44Q29.41 18.81 29.42 18.16Q29.43 17.51 29.45 16.75L29.45 16.75L29.75 16.75Q29.72 17.44 29.71 18.07Q29.70 18.70 29.71 19.36Q29.71 20.02 29.74 20.80L29.74 20.80Q29.77 22.01 30.34 22.53Q30.92 23.05 32.19 23.05L32.19 23.05Q33.42 23.05 33.98 22.52Q34.53 22.00 34.57 20.80L34.57 20.80Q34.60 20.25 34.61 19.67Q34.61 19.10 34.61 18.49Q34.60 17.89 34.58 17.27L34.58 17.27Q34.55 16.38 34.30 15.81Q34.05 15.23 33.58 14.89Q33.11 14.56 32.42 14.38L32.42 14.38L31.42 14.11Q30.77 13.94 30.34 13.62Q29.90 13.30 29.67 12.66Q29.44 12.02 29.42 10.88L29.42 10.88Q29.41 10.32 29.41 9.72Q29.41 9.13 29.41 8.49Q29.42 7.86 29.44 7.20L29.44 7.20Q29.47 5.89 30.10 5.32Q30.73 4.75 32.17 4.75L32.17 4.75Q33.47 4.75 34.12 5.29Q34.76 5.84 34.80 7.22L34.80 7.22Q34.82 7.88 34.81 8.87Q34.81 9.87 34.79 10.94L34.79 10.94L34.49 10.94Q34.52 9.88 34.52 8.89Q34.52 7.90 34.50 7.23L34.50 7.23Q34.47 5.96 33.89 5.47Q33.31 4.99 32.17 4.99L32.17 4.99Q30.88 4.99 30.32 5.50Q29.76 6.02 29.74 7.21L29.74 7.21Q29.72 8.08 29.71 9.06Q29.69 10.04 29.71 10.87L29.71 10.87Q29.74 11.92 29.93 12.50Q30.13 13.09 30.51 13.38Q30.90 13.67 31.49 13.84L31.49 13.84L32.49 14.10Q33.59 14.39 34.21 15.08Q34.82 15.77 34.88 17.26L34.88 17.26Q34.90 17.92 34.91 18.52Q34.91 19.12 34.91 19.68Q34.90 20.24 34.87 20.80L34.87 20.80Q34.82 22.12 34.20 22.70Q33.58 23.29 32.19 23.29ZM32.19 22.81L32.19 22.81Q31.07 22.81 30.56 22.34Q30.06 21.87 30.03 20.79L30.03 20.79Q30.01 20.12 30.00 19.50Q29.99 18.88 30.00 18.22Q30.01 17.55 30.04 16.75L30.04 16.75L30.34 16.75Q30.31 17.55 30.30 18.18Q30.29 18.80 30.30 19.41Q30.31 20.02 30.32 20.78L30.32 20.78Q30.35 21.74 30.79 22.16Q31.22 22.58 32.19 22.58L32.19 22.58Q33.11 22.58 33.52 22.16Q33.94 21.74 33.98 20.78L33.98 20.78Q34.01 20.16 34.02 19.58Q34.03 19.01 34.02 18.44Q34.01 17.88 33.99 17.29L33.99 17.29Q33.97 16.55 33.77 16.07Q33.57 15.60 33.20 15.33Q32.84 15.06 32.29 14.92L32.29 14.92L31.28 14.65Q30.48 14.44 29.94 14.05Q29.41 13.67 29.13 12.93Q28.86 12.19 28.83 10.89L28.83 10.89Q28.81 10.12 28.82 9.20Q28.82 8.29 28.85 7.18L28.85 7.18Q28.88 5.60 29.67 4.93Q30.46 4.27 32.17 4.27L32.17 4.27Q33.74 4.27 34.54 4.91Q35.35 5.54 35.39 7.20L35.39 7.20Q35.41 7.84 35.41 8.82Q35.41 9.80 35.38 10.94L35.38 10.94L35.08 10.94Q35.11 9.90 35.11 8.89Q35.11 7.89 35.09 7.21L35.09 7.21Q35.05 5.71 34.34 5.11Q33.62 4.51 32.17 4.51L32.17 4.51Q30.59 4.51 29.88 5.12Q29.17 5.74 29.14 7.19L29.14 7.19Q29.12 8.00 29.11 9.06Q29.11 10.12 29.12 10.88L29.12 10.88Q29.15 12.05 29.39 12.75Q29.62 13.44 30.11 13.81Q30.59 14.17 31.34 14.38L31.34 14.38L32.36 14.65Q32.95 14.80 33.37 15.09Q33.79 15.38 34.02 15.91Q34.25 16.43 34.28 17.29L34.28 17.29Q34.30 17.87 34.31 18.47Q34.31 19.06 34.31 19.64Q34.30 20.23 34.28 20.79L34.28 20.79Q34.24 21.87 33.75 22.34Q33.26 22.81 32.19 22.81ZM44.68 23.62L44.39 23.62L44.39 12.11Q44.39 11.20 44.17 10.57Q43.95 9.95 43.41 9.62Q42.87 9.30 41.91 9.30L41.91 9.30Q40.90 9.30 40.19 9.73Q39.48 10.17 39.10 10.93L39.10 10.93L39.04 10.93L39.20 8.03L39.20 4.42L39.50 4.42L39.50 7.62L39.28 10.28L39.34 10.28Q39.79 9.63 40.47 9.34Q41.15 9.05 41.98 9.05L41.98 9.05Q43.03 9.05 43.61 9.40Q44.20 9.76 44.44 10.43Q44.68 11.11 44.68 12.08L44.68 12.08L44.68 23.62ZM38.33 23.62L38.03 23.62L38.03 4.42L38.33 4.42L38.33 23.62ZM39.52 23.62L39.22 23.62L39.22 12.44Q39.22 11.84 39.52 11.29Q39.82 10.75 40.38 10.40Q40.94 10.05 41.71 10.05L41.71 10.05Q42.76 10.05 43.13 10.60Q43.51 11.14 43.51 12.17L43.51 12.17L43.51 23.62L43.21 23.62L43.21 12.17Q43.21 11.30 42.90 10.80Q42.59 10.30 41.68 10.30L41.68 10.30Q41.06 10.30 40.57 10.59Q40.08 10.88 39.80 11.37Q39.52 11.85 39.52 12.43L39.52 12.43L39.52 23.62ZM38.93 23.62L38.63 23.62L38.63 4.42L38.92 4.42L38.92 8.45L38.85 11.66L38.93 11.66Q39.22 10.69 39.97 10.12Q40.72 9.54 41.83 9.55L41.83 9.55Q43.16 9.55 43.63 10.21Q44.09 10.88 44.09 12.12L44.09 12.12L44.09 23.62L43.79 23.62L43.79 12.14Q43.79 11.00 43.37 10.40Q42.95 9.79 41.77 9.79L41.77 9.79Q40.88 9.79 40.25 10.18Q39.62 10.57 39.28 11.18Q38.93 11.79 38.93 12.46L38.93 12.46L38.93 23.62ZM50.47 23.78L50.47 23.78Q48.80 23.78 48.05 23.08Q47.29 22.38 47.22 20.77L47.22 20.77Q47.16 19.37 47.14 17.98Q47.11 16.58 47.13 15.12Q47.15 13.66 47.22 12.08L47.22 12.08Q47.29 10.40 48.08 9.73Q48.88 9.05 50.47 9.05L50.47 9.05Q52.10 9.05 52.88 9.74Q53.65 10.43 53.72 12.09L53.72 12.09Q53.81 14.35 53.81 16.53Q53.81 18.71 53.72 20.77L53.72 20.77Q53.65 22.45 52.86 23.11Q52.06 23.78 50.47 23.78ZM50.47 23.54L50.47 23.54Q51.95 23.54 52.65 22.91Q53.36 22.28 53.43 20.75L53.43 20.75Q53.51 18.82 53.52 16.66Q53.53 14.50 53.43 12.10L53.43 12.10Q53.36 10.55 52.65 9.92Q51.94 9.29 50.47 9.29L50.47 9.29Q48.98 9.29 48.28 9.93Q47.58 10.57 47.51 12.10L47.51 12.10Q47.45 13.69 47.43 15.14Q47.41 16.60 47.43 17.98Q47.45 19.36 47.51 20.75L47.51 20.75Q47.57 22.26 48.28 22.90Q48.98 23.54 50.47 23.54ZM50.47 23.31L50.47 23.31Q49.10 23.31 48.49 22.71Q47.87 22.11 47.81 20.74L47.81 20.74Q47.75 19.31 47.72 17.94Q47.70 16.56 47.72 15.13Q47.74 13.70 47.81 12.11L47.81 12.11Q47.87 10.70 48.51 10.11Q49.14 9.52 50.47 9.52L50.47 9.52Q51.78 9.52 52.43 10.09Q53.08 10.67 53.13 12.11L53.13 12.11Q53.20 13.60 53.21 15.04Q53.23 16.48 53.21 17.90Q53.20 19.31 53.13 20.74L53.13 20.74Q53.08 22.15 52.43 22.73Q51.79 23.31 50.47 23.31ZM50.47 23.07L50.47 23.07Q51.68 23.07 52.23 22.52Q52.78 21.98 52.84 20.72L52.84 20.72Q52.93 18.62 52.93 16.58Q52.93 14.53 52.84 12.12L52.84 12.12Q52.78 10.81 52.21 10.28Q51.63 9.76 50.47 9.76L50.47 9.76Q49.26 9.76 48.71 10.31Q48.16 10.86 48.10 12.13L48.10 12.13Q48.04 13.65 48.02 15.05Q47.99 16.45 48.01 17.84Q48.04 19.23 48.10 20.74L48.10 20.74Q48.16 22.01 48.72 22.54Q49.28 23.07 50.47 23.07ZM50.47 22.83L50.47 22.83Q49.42 22.83 48.93 22.34Q48.45 21.85 48.40 20.74L48.40 20.74Q48.34 19.27 48.32 17.90Q48.29 16.53 48.31 15.12Q48.34 13.70 48.40 12.13L48.40 12.13Q48.45 10.97 48.94 10.48Q49.44 10.00 50.47 10.00L50.47 10.00Q51.53 10.00 52.01 10.49Q52.49 10.99 52.54 12.14L52.54 12.14Q52.64 14.59 52.63 16.64Q52.63 18.68 52.54 20.71L52.54 20.71Q52.49 21.86 52.00 22.35Q51.52 22.83 50.47 22.83ZM50.47 22.60L50.47 22.60Q51.37 22.60 51.79 22.16Q52.21 21.72 52.25 20.71L52.25 20.71Q52.34 18.58 52.34 16.59Q52.34 14.60 52.25 12.15L52.25 12.15Q52.21 11.13 51.79 10.68Q51.38 10.24 50.47 10.24L50.47 10.24Q49.57 10.24 49.15 10.68Q48.74 11.12 48.70 12.13L48.70 12.13Q48.64 13.70 48.61 15.10Q48.59 16.51 48.61 17.87Q48.63 19.24 48.70 20.73L48.70 20.73Q48.74 21.71 49.15 22.16Q49.57 22.60 50.47 22.60ZM58.93 23.78L58.93 23.78Q58.25 23.78 57.77 23.62Q57.30 23.46 57.00 23.17Q56.70 22.88 56.53 22.49Q56.36 22.11 56.30 21.67Q56.23 21.22 56.23 20.75L56.23 20.75L56.23 9.22L56.53 9.22L56.53 20.72Q56.53 21.28 56.62 21.78Q56.72 22.28 56.98 22.68Q57.25 23.08 57.73 23.30Q58.22 23.53 59.00 23.53L59.00 23.53Q60.04 23.53 60.73 23.09Q61.43 22.64 61.80 21.91L61.80 21.91L61.87 21.91L61.70 23.14L61.70 23.62L61.41 23.62L61.41 23.35L61.60 22.55L61.53 22.55Q61.08 23.21 60.41 23.50Q59.75 23.78 58.93 23.78ZM62.87 23.62L62.57 23.62L62.57 9.22L62.87 9.22L62.87 23.62ZM59.19 22.78L59.19 22.78Q58.61 22.78 58.25 22.60Q57.90 22.41 57.71 22.11Q57.53 21.80 57.46 21.43Q57.40 21.05 57.40 20.66L57.40 20.66L57.40 9.22L57.70 9.22L57.70 20.66Q57.70 21.18 57.82 21.61Q57.94 22.03 58.27 22.28Q58.60 22.54 59.22 22.54L59.22 22.54Q59.85 22.54 60.34 22.24Q60.82 21.95 61.10 21.46Q61.38 20.98 61.38 20.40L61.38 20.40L61.38 9.22L61.69 9.22L61.69 20.39Q61.69 20.99 61.38 21.54Q61.08 22.09 60.52 22.43Q59.96 22.78 59.19 22.78ZM59.06 23.29L59.06 23.29Q57.82 23.28 57.32 22.63Q56.82 21.98 56.82 20.71L56.82 20.71L56.82 9.22L57.11 9.22L57.11 20.69Q57.11 21.79 57.54 22.42Q57.97 23.04 59.14 23.04L59.14 23.04Q60.02 23.04 60.65 22.65Q61.28 22.26 61.62 21.65Q61.96 21.04 61.96 20.38L61.96 20.38L61.96 9.22L62.27 9.22L62.27 23.62L61.99 23.62L61.99 22.72L62.04 21.17L61.97 21.17Q61.68 22.14 60.93 22.72Q60.18 23.29 59.06 23.29ZM67.13 23.62L66.83 23.62L66.83 4.42L67.13 4.42L67.13 23.62ZM65.95 23.62L65.65 23.62L65.65 4.42L65.95 4.42L65.95 23.62ZM66.54 23.62L66.25 23.62L66.25 4.42L66.54 4.42L66.54 23.62ZM76.37 4.42L76.37 23.62L76.07 23.62L76.07 4.42L76.37 4.42ZM75.77 4.42L75.77 23.62L75.50 23.62L75.57 20.89L75.51 20.89Q75.37 22.04 74.56 22.68Q73.76 23.31 72.67 23.31L72.67 23.31Q71.53 23.31 70.97 22.73Q70.42 22.14 70.34 20.72L70.34 20.72Q70.28 19.40 70.26 18.02Q70.23 16.64 70.25 15.17Q70.27 13.70 70.34 12.12L70.34 12.12Q70.40 10.68 71.03 10.10Q71.65 9.53 72.89 9.53L72.89 9.53Q73.98 9.53 74.66 10.18Q75.33 10.83 75.49 12L75.49 12L75.56 12L75.48 8.44L75.48 4.42L75.77 4.42ZM72.76 23.07L72.76 23.07Q73.48 23.07 74.07 22.77Q74.65 22.46 75.01 21.88Q75.37 21.31 75.40 20.48L75.40 20.48Q75.45 19.32 75.48 17.90Q75.51 16.49 75.50 15.05Q75.49 13.62 75.41 12.41L75.41 12.41Q75.35 11.60 75.06 11.01Q74.77 10.42 74.24 10.09Q73.72 9.77 72.98 9.77L72.98 9.77Q71.78 9.77 71.24 10.31Q70.69 10.85 70.64 12.12L70.64 12.12Q70.58 13.71 70.56 15.12Q70.54 16.52 70.56 17.89Q70.58 19.25 70.64 20.73L70.64 20.73Q70.69 21.98 71.19 22.53Q71.68 23.07 72.76 23.07ZM72.84 22.83L72.84 22.83Q71.87 22.83 71.42 22.34Q70.97 21.85 70.93 20.71L70.93 20.71Q70.87 19.27 70.85 17.89Q70.84 16.52 70.86 15.10Q70.88 13.68 70.93 12.09L70.93 12.09Q70.97 10.97 71.46 10.48Q71.95 10.00 73.00 10.00L73.00 10.00Q74.00 10.00 74.54 10.63Q75.07 11.27 75.11 12.41L75.11 12.41Q75.16 13.46 75.18 14.84Q75.20 16.22 75.18 17.69Q75.17 19.16 75.12 20.48L75.12 20.48Q75.08 21.40 74.55 22.11Q74.01 22.83 72.84 22.83ZM72.85 22.60L72.85 22.60Q73.85 22.60 74.32 21.95Q74.79 21.29 74.82 20.47L74.82 20.47Q74.86 19.37 74.88 17.98Q74.90 16.58 74.89 15.13Q74.87 13.68 74.82 12.42L74.82 12.42Q74.78 11.39 74.33 10.81Q73.87 10.24 73.01 10.24L73.01 10.24Q72.10 10.24 71.69 10.67Q71.27 11.11 71.23 12.10L71.23 12.10Q71.14 14.41 71.14 16.48Q71.14 18.54 71.23 20.70L71.23 20.70Q71.27 21.76 71.67 22.18Q72.07 22.60 72.85 22.60ZM72.58 23.78L72.58 23.78Q71.12 23.78 70.48 23.05Q69.83 22.31 69.76 20.73L69.76 20.73Q69.68 19.29 69.66 17.92Q69.64 16.54 69.66 15.11Q69.68 13.69 69.76 12.11L69.76 12.11Q69.83 10.51 70.52 9.78Q71.20 9.05 72.75 9.05L72.75 9.05Q73.56 9.05 74.17 9.37Q74.78 9.68 75.09 10.25L75.09 10.25L75.16 10.25L74.89 7.53L74.89 4.42L75.19 4.42L75.19 7.90L75.40 10.90L75.31 10.90Q74.92 10.02 74.28 9.66Q73.64 9.29 72.83 9.29L72.83 9.29Q71.47 9.29 70.79 9.93Q70.12 10.56 70.05 12.09L70.05 12.09Q69.98 13.73 69.96 15.16Q69.94 16.59 69.96 17.95Q69.98 19.31 70.05 20.75L70.05 20.75Q70.13 22.27 70.75 22.91Q71.36 23.54 72.64 23.54L72.64 23.54Q73.49 23.54 74.19 23.15Q74.90 22.76 75.29 22.02L75.29 22.02L75.37 22.02L75.24 23.62L74.95 23.62L74.96 23.49L75.14 22.61L75.07 22.61Q74.71 23.12 74.07 23.45Q73.43 23.78 72.58 23.78ZM82.21 23.78L82.21 23.78Q80.60 23.78 79.81 23.15Q79.01 22.52 78.96 20.96L78.96 20.96Q78.92 19.73 78.90 18.56Q78.88 17.38 78.88 16.25Q78.88 15.11 78.90 14.03Q78.92 12.94 78.96 11.90L78.96 11.90Q79.02 10.33 79.81 9.69Q80.59 9.05 82.20 9.05L82.20 9.05Q83.81 9.05 84.55 9.70Q85.28 10.35 85.35 11.88L85.35 11.88Q85.36 12.07 85.37 12.62Q85.38 13.17 85.38 13.93Q85.39 14.68 85.37 15.48Q85.36 16.28 85.32 16.96L85.32 16.96L80.37 16.96Q80.38 17.65 80.38 18.28Q80.39 18.92 80.40 19.55Q80.42 20.19 80.44 20.87L80.44 20.87Q80.47 21.79 80.88 22.19Q81.29 22.60 82.21 22.60L82.21 22.60Q83.02 22.60 83.42 22.21Q83.83 21.83 83.87 20.87L83.87 20.87Q83.90 20.43 83.89 19.80Q83.89 19.18 83.86 18.72L83.86 18.72L84.15 18.72Q84.18 19.27 84.18 19.90Q84.19 20.52 84.17 20.89L84.17 20.89Q84.11 21.93 83.66 22.38Q83.20 22.83 82.21 22.83L82.21 22.83Q81.13 22.83 80.65 22.37Q80.17 21.92 80.14 20.89L80.14 20.89Q80.12 20.12 80.10 19.41Q80.09 18.70 80.08 18.02Q80.08 17.34 80.07 16.71L80.07 16.71L85.04 16.71Q85.07 16.06 85.08 15.30Q85.09 14.54 85.08 13.84Q85.08 13.13 85.07 12.60Q85.07 12.08 85.06 11.89L85.06 11.89Q85.00 10.49 84.33 9.89Q83.66 9.29 82.20 9.29L82.20 9.29Q80.73 9.29 80.02 9.88Q79.30 10.48 79.25 11.95L79.25 11.95Q79.22 12.89 79.20 13.97Q79.18 15.05 79.18 16.20Q79.18 17.36 79.20 18.55Q79.21 19.73 79.25 20.90L79.25 20.90Q79.30 22.30 79.98 22.92Q80.66 23.54 82.21 23.54L82.21 23.54Q83.65 23.54 84.31 22.94Q84.98 22.34 85.06 20.92L85.06 20.92Q85.07 20.68 85.07 20.28Q85.07 19.89 85.06 19.47Q85.06 19.05 85.03 18.72L85.03 18.72L85.33 18.72Q85.36 19.21 85.36 19.88Q85.37 20.55 85.35 20.93L85.35 20.93Q85.28 22.46 84.55 23.12Q83.81 23.78 82.21 23.78ZM82.21 23.31L82.21 23.31Q80.90 23.31 80.25 22.78Q79.59 22.25 79.55 20.91L79.55 20.91Q79.52 19.85 79.50 18.72Q79.48 17.59 79.48 16.43Q79.48 15.27 79.49 14.14Q79.51 13.01 79.55 11.96L79.55 11.96Q79.59 10.63 80.23 10.07Q80.86 9.52 82.20 9.52L82.20 9.52Q83.51 9.52 84.11 10.08Q84.70 10.63 84.76 11.90L84.76 11.90Q84.77 12.13 84.78 12.87Q84.79 13.61 84.79 14.57Q84.79 15.53 84.75 16.46L84.75 16.46L79.77 16.46Q79.77 17.53 79.79 18.68Q79.81 19.84 79.84 20.89L79.84 20.89Q79.88 22.09 80.45 22.58Q81.02 23.07 82.21 23.07L82.21 23.07Q83.35 23.07 83.88 22.57Q84.41 22.06 84.47 20.89L84.47 20.89Q84.49 20.53 84.48 19.88Q84.48 19.22 84.44 18.72L84.44 18.72L84.74 18.72Q84.77 19.24 84.78 19.89Q84.78 20.54 84.76 20.90L84.76 20.90Q84.70 22.19 84.10 22.75Q83.51 23.31 82.21 23.31ZM79.77 16.22L79.77 16.22L84.46 16.22Q84.49 15.35 84.49 14.46Q84.50 13.57 84.49 12.88Q84.48 12.18 84.47 11.92L84.47 11.92Q84.42 10.77 83.89 10.27Q83.37 9.76 82.20 9.76L82.20 9.76Q80.97 9.76 80.43 10.28Q79.89 10.79 79.84 11.97L79.84 11.97Q79.81 13.00 79.79 14.09Q79.78 15.19 79.77 16.22ZM84.17 15.97L80.07 15.97Q80.07 15.42 80.08 14.76Q80.09 14.11 80.10 13.40Q80.12 12.69 80.14 11.98L80.14 11.98Q80.17 10.92 80.65 10.46Q81.14 10.00 82.20 10.00L82.20 10.00Q83.22 10.00 83.67 10.45Q84.13 10.90 84.17 11.93L84.17 11.93Q84.18 12.20 84.19 12.85Q84.20 13.50 84.19 14.33Q84.19 15.16 84.17 15.97L84.17 15.97ZM80.37 15.72L80.37 15.72L83.88 15.72Q83.90 14.90 83.90 14.12Q83.90 13.34 83.89 12.76Q83.89 12.17 83.87 11.95L83.87 11.95Q83.84 11.07 83.47 10.65Q83.10 10.24 82.20 10.24L82.20 10.24Q81.27 10.24 80.87 10.66Q80.47 11.08 80.44 11.99L80.44 11.99Q80.42 12.66 80.40 13.29Q80.39 13.91 80.38 14.51Q80.38 15.11 80.37 15.72ZM88.70 23.62L88.38 23.62L88.38 9.22L88.67 9.22L88.67 10.11L88.58 11.66L88.68 11.66Q88.96 10.72 89.71 10.20Q90.47 9.68 91.55 9.68L91.55 9.68Q91.84 9.68 92.13 9.70Q92.42 9.71 92.61 9.72L92.61 9.72L92.61 9.97Q92.37 9.96 92.05 9.95Q91.73 9.94 91.46 9.94L91.46 9.94Q90.59 9.94 89.98 10.31Q89.36 10.67 89.03 11.25Q88.70 11.82 88.70 12.46L88.70 12.46L88.70 23.62ZM88.09 23.62L87.79 23.62L87.79 9.22L88.09 9.22L88.09 23.62ZM89.27 23.62L88.97 23.62L88.97 12.44Q88.97 11.53 89.65 10.87Q90.33 10.21 91.39 10.21L91.39 10.21Q91.71 10.21 92.02 10.21Q92.34 10.22 92.61 10.23L92.61 10.23L92.61 10.48Q92.34 10.47 92.03 10.47Q91.72 10.46 91.39 10.46L91.39 10.46Q90.51 10.46 89.89 11.01Q89.27 11.56 89.27 12.43L89.27 12.43L89.27 23.62ZM88.85 10.93L88.79 10.93L88.97 9.70L88.97 9.22L89.27 9.22L89.27 9.48L89.06 10.28L89.12 10.28Q89.53 9.66 90.22 9.42Q90.92 9.18 91.69 9.18L91.69 9.18Q91.88 9.18 92.13 9.19Q92.37 9.19 92.61 9.21L92.61 9.21L92.61 9.46Q92.40 9.45 92.16 9.44Q91.92 9.43 91.66 9.43L91.66 9.43Q90.67 9.43 89.95 9.81Q89.22 10.19 88.85 10.93L88.85 10.93ZM97.11 23.78L97.11 23.78Q95.56 23.78 94.86 23.12Q94.16 22.46 94.11 20.93L94.11 20.93Q94.09 20.38 94.09 19.85Q94.09 19.32 94.12 18.74L94.12 18.74L94.40 18.74Q94.37 19.31 94.37 19.84Q94.38 20.38 94.40 20.92L94.40 20.92Q94.44 22.34 95.08 22.94Q95.72 23.54 97.11 23.54L97.11 23.54Q98.61 23.54 99.27 22.94Q99.92 22.33 99.98 20.96L99.98 20.96Q100.00 20.57 100.00 20.32Q100.01 20.08 100.00 19.84Q100.00 19.59 100.00 19.18L100.00 19.18Q100.00 17.74 99.46 17.09Q98.93 16.44 97.83 16.10L97.83 16.10L96.82 15.79Q96.28 15.62 95.94 15.42Q95.60 15.22 95.44 14.76Q95.28 14.30 95.24 13.38L95.24 13.38Q95.23 12.89 95.22 12.62Q95.21 12.35 95.22 11.94L95.22 11.94Q95.26 10.96 95.69 10.48Q96.11 10.00 97.16 10.00L97.16 10.00Q98.09 10.00 98.55 10.45Q99.00 10.90 99.06 11.96L99.06 11.96Q99.07 12.19 99.07 12.83Q99.07 13.48 99.02 14.04L99.02 14.04L98.74 14.04Q98.78 13.47 98.78 12.84Q98.79 12.22 98.77 11.97L98.77 11.97Q98.72 11.07 98.34 10.65Q97.97 10.24 97.16 10.24L97.16 10.24Q96.33 10.24 95.93 10.63Q95.54 11.03 95.51 11.94L95.51 11.94Q95.50 12.37 95.50 12.65Q95.51 12.94 95.53 13.37L95.53 13.37Q95.57 14.21 95.70 14.63Q95.83 15.04 96.12 15.22Q96.41 15.40 96.89 15.55L96.89 15.55L97.90 15.86Q98.65 16.09 99.18 16.45Q99.71 16.82 100.00 17.46Q100.28 18.10 100.28 19.18L100.28 19.18Q100.28 19.59 100.29 19.84Q100.29 20.09 100.29 20.33Q100.28 20.57 100.27 20.97L100.27 20.97Q100.21 22.42 99.51 23.10Q98.81 23.78 97.11 23.78ZM97.11 23.31L97.11 23.31Q95.87 23.31 95.30 22.76Q94.73 22.21 94.69 20.91L94.69 20.91Q94.67 20.37 94.66 19.84Q94.66 19.31 94.69 18.74L94.69 18.74L94.97 18.74Q94.94 19.30 94.95 19.82Q94.95 20.33 94.97 20.90L94.97 20.90Q95.00 22.09 95.52 22.58Q96.03 23.07 97.11 23.07L97.11 23.07Q98.27 23.07 98.82 22.59Q99.36 22.10 99.41 20.95L99.41 20.95Q99.43 20.44 99.43 20.06Q99.43 19.69 99.43 19.18L99.43 19.18Q99.43 17.89 98.98 17.37Q98.53 16.85 97.68 16.60L97.68 16.60L96.65 16.28Q96.01 16.09 95.58 15.83Q95.15 15.57 94.93 15.02Q94.72 14.47 94.67 13.39L94.67 13.39Q94.65 12.95 94.64 12.61Q94.64 12.26 94.64 11.92L94.64 11.92Q94.67 10.63 95.27 10.07Q95.88 9.52 97.16 9.52L97.16 9.52Q98.45 9.52 99.00 10.11Q99.55 10.70 99.63 11.93L99.63 11.93Q99.65 12.26 99.64 12.90Q99.64 13.54 99.59 14.04L99.59 14.04L99.31 14.04Q99.35 13.55 99.35 12.87Q99.36 12.19 99.35 11.96L99.35 11.96Q99.28 10.77 98.76 10.27Q98.24 9.76 97.16 9.76L97.16 9.76Q95.99 9.76 95.48 10.27Q94.97 10.79 94.94 11.91L94.94 11.91Q94.92 12.38 94.93 12.65Q94.94 12.93 94.96 13.39L94.96 13.39Q95.00 14.39 95.18 14.89Q95.37 15.40 95.75 15.62Q96.13 15.85 96.73 16.04L96.73 16.04L97.75 16.35Q98.72 16.65 99.22 17.23Q99.71 17.80 99.71 19.18L99.71 19.18Q99.71 19.65 99.72 20.02Q99.72 20.40 99.70 20.95L99.70 20.95Q99.64 22.20 99.05 22.75Q98.47 23.31 97.11 23.31ZM97.11 22.83L97.11 22.83Q96.17 22.83 95.73 22.39Q95.29 21.95 95.26 20.89L95.26 20.89Q95.24 20.31 95.23 19.83Q95.23 19.34 95.26 18.74L95.26 18.74L95.54 18.74Q95.51 19.36 95.52 19.83Q95.53 20.31 95.54 20.89L95.54 20.89Q95.57 21.80 95.93 22.20Q96.29 22.60 97.11 22.60L97.11 22.60Q97.98 22.60 98.38 22.22Q98.79 21.84 98.83 20.93L98.83 20.93Q98.86 20.33 98.86 20.03Q98.85 19.73 98.85 19.18L98.85 19.18Q98.85 18.13 98.53 17.71Q98.21 17.29 97.53 17.08L97.53 17.08L96.49 16.76Q95.66 16.51 95.15 16.17Q94.64 15.83 94.39 15.20Q94.15 14.56 94.10 13.40L94.10 13.40Q94.07 12.87 94.07 12.56Q94.06 12.26 94.07 11.89L94.07 11.89Q94.10 10.33 94.85 9.69Q95.60 9.05 97.16 9.05L97.16 9.05Q98.70 9.05 99.40 9.72Q100.10 10.39 100.20 11.92L100.20 11.92Q100.22 12.19 100.21 12.85Q100.21 13.52 100.16 14.04L100.16 14.04L99.88 14.04Q99.92 13.49 99.93 12.84Q99.93 12.20 99.91 11.92L99.91 11.92Q99.83 10.54 99.20 9.91Q98.57 9.29 97.16 9.29L97.16 9.29Q95.69 9.29 95.04 9.91Q94.39 10.54 94.36 11.92L94.36 11.92Q94.35 12.25 94.36 12.58Q94.36 12.90 94.38 13.39L94.38 13.39Q94.43 14.53 94.67 15.12Q94.91 15.71 95.38 16.00Q95.84 16.30 96.57 16.52L96.57 16.52L97.61 16.84Q98.39 17.08 98.77 17.55Q99.14 18.03 99.14 19.18L99.14 19.18Q99.14 19.59 99.14 19.83Q99.14 20.07 99.14 20.31Q99.14 20.54 99.12 20.95L99.12 20.95Q99.07 21.92 98.62 22.37Q98.18 22.83 97.11 22.83ZM109.13 23.62L108.83 23.62L108.83 4.42L109.13 4.42L109.13 23.62ZM107.95 23.62L107.65 23.62L107.65 4.42L107.95 4.42L107.95 23.62ZM108.53 23.62L108.24 23.62L108.24 4.42L108.53 4.42L108.53 23.62ZM118.70 23.62L118.41 23.62L118.41 12.11Q118.41 11.55 118.31 11.05Q118.21 10.54 117.95 10.15Q117.68 9.76 117.20 9.53Q116.71 9.30 115.93 9.30L115.93 9.30Q114.92 9.30 114.21 9.74Q113.50 10.19 113.12 10.93L113.12 10.93L113.05 10.93L113.23 9.22L113.52 9.22L113.52 9.40L113.33 10.28L113.39 10.28Q113.86 9.64 114.52 9.34Q115.18 9.05 116.00 9.05L116.00 9.05Q116.68 9.05 117.15 9.21Q117.62 9.37 117.93 9.66Q118.23 9.95 118.40 10.34Q118.57 10.72 118.63 11.17Q118.70 11.61 118.70 12.08L118.70 12.08L118.70 23.62ZM112.36 23.62L112.06 23.62L112.06 9.22L112.36 9.22L112.36 23.62ZM113.54 23.62L113.24 23.62L113.24 12.44Q113.24 11.84 113.54 11.29Q113.84 10.75 114.40 10.40Q114.97 10.05 115.73 10.05L115.73 10.05Q116.29 10.05 116.64 10.21Q116.99 10.38 117.19 10.67Q117.38 10.96 117.45 11.35Q117.53 11.73 117.53 12.17L117.53 12.17L117.53 23.62L117.23 23.62L117.23 12.17Q117.23 11.63 117.11 11.21Q116.99 10.79 116.66 10.54Q116.33 10.30 115.70 10.30L115.70 10.30Q115.08 10.30 114.59 10.59Q114.10 10.88 113.82 11.37Q113.54 11.85 113.54 12.43L113.54 12.43L113.54 23.62ZM112.96 23.62L112.65 23.62L112.65 9.22L112.94 9.22L112.88 11.66L112.95 11.66Q113.24 10.69 113.99 10.12Q114.74 9.54 115.85 9.55L115.85 9.55Q117.17 9.55 117.64 10.24Q118.12 10.93 118.12 12.12L118.12 12.12L118.12 23.62L117.82 23.62L117.82 12.14Q117.82 11.02 117.38 10.40Q116.95 9.79 115.79 9.79L115.79 9.79Q114.91 9.79 114.27 10.18Q113.64 10.57 113.30 11.18Q112.96 11.79 112.96 12.46L112.96 12.46L112.96 23.62ZM122.89 23.62L122.59 23.62L122.59 4.42L122.89 4.42L122.89 23.62ZM121.71 23.62L121.41 23.62L121.41 4.42L121.71 4.42L121.71 23.62ZM122.30 23.62L122.00 23.62L122.00 4.42L122.30 4.42L122.30 23.62ZM127.16 4.90L125.68 4.90L125.68 4.63L127.16 4.63L127.16 4.90ZM127.16 6.01L125.68 6.01L125.68 5.74L127.16 5.74L127.16 6.01ZM127.16 5.46L125.68 5.46L125.68 5.18L127.16 5.18L127.16 5.46ZM127.16 23.62L126.86 23.62L126.86 9.22L127.16 9.22L127.16 23.62ZM125.98 23.62L125.68 23.62L125.68 9.22L125.98 9.22L125.98 23.62ZM126.56 23.62L126.27 23.62L126.27 9.22L126.56 9.22L126.56 23.62ZM136.58 23.62L136.30 23.62L136.30 12.11Q136.30 11.55 136.20 11.05Q136.10 10.54 135.83 10.15Q135.57 9.76 135.08 9.53Q134.60 9.30 133.82 9.30L133.82 9.30Q132.81 9.30 132.10 9.74Q131.39 10.19 131.01 10.93L131.01 10.93L130.94 10.93L131.11 9.22L131.41 9.22L131.41 9.40L131.21 10.28L131.28 10.28Q131.75 9.64 132.40 9.34Q133.06 9.05 133.88 9.05L133.88 9.05Q134.56 9.05 135.04 9.21Q135.51 9.37 135.81 9.66Q136.12 9.95 136.28 10.34Q136.45 10.72 136.52 11.17Q136.58 11.61 136.58 12.08L136.58 12.08L136.58 23.62ZM130.24 23.62L129.94 23.62L129.94 9.22L130.24 9.22L130.24 23.62ZM131.42 23.62L131.12 23.62L131.12 12.44Q131.12 11.84 131.43 11.29Q131.73 10.75 132.29 10.40Q132.85 10.05 133.62 10.05L133.62 10.05Q134.17 10.05 134.53 10.21Q134.88 10.38 135.07 10.67Q135.26 10.96 135.34 11.35Q135.41 11.73 135.41 12.17L135.41 12.17L135.41 23.62L135.12 23.62L135.12 12.17Q135.12 11.63 135.00 11.21Q134.87 10.79 134.54 10.54Q134.21 10.30 133.59 10.30L133.59 10.30Q132.97 10.30 132.48 10.59Q131.99 10.88 131.71 11.37Q131.43 11.85 131.43 12.43L131.43 12.43L131.42 23.62ZM130.84 23.62L130.54 23.62L130.54 9.22L130.83 9.22L130.76 11.66L130.84 11.66Q131.13 10.69 131.88 10.12Q132.63 9.54 133.74 9.55L133.74 9.55Q135.05 9.55 135.53 10.24Q136.00 10.93 136.00 12.12L136.00 12.12L136.00 23.62L135.70 23.62L135.70 12.14Q135.70 11.02 135.27 10.40Q134.84 9.79 133.68 9.79L133.68 9.79Q132.79 9.79 132.16 10.18Q131.53 10.57 131.18 11.18Q130.84 11.79 130.84 12.46L130.84 12.46L130.84 23.62ZM142.36 23.78L142.36 23.78Q140.75 23.78 139.95 23.15Q139.16 22.52 139.10 20.96L139.10 20.96Q139.06 19.73 139.04 18.56Q139.03 17.38 139.03 16.25Q139.03 15.11 139.05 14.03Q139.07 12.94 139.10 11.90L139.10 11.90Q139.16 10.33 139.95 9.69Q140.74 9.05 142.34 9.05L142.34 9.05Q143.96 9.05 144.69 9.70Q145.43 10.35 145.49 11.88L145.49 11.88Q145.51 12.07 145.51 12.62Q145.52 13.17 145.53 13.93Q145.53 14.68 145.52 15.48Q145.51 16.28 145.46 16.96L145.46 16.96L140.51 16.96Q140.52 17.65 140.53 18.28Q140.53 18.92 140.55 19.55Q140.56 20.19 140.58 20.87L140.58 20.87Q140.61 21.79 141.02 22.19Q141.43 22.60 142.36 22.60L142.36 22.60Q143.16 22.60 143.56 22.21Q143.97 21.83 144.02 20.87L144.02 20.87Q144.04 20.43 144.04 19.80Q144.03 19.18 144 18.72L144 18.72L144.29 18.72Q144.32 19.27 144.33 19.90Q144.33 20.52 144.31 20.89L144.31 20.89Q144.26 21.93 143.80 22.38Q143.35 22.83 142.36 22.83L142.36 22.83Q141.28 22.83 140.80 22.37Q140.32 21.92 140.29 20.89L140.29 20.89Q140.26 20.12 140.25 19.41Q140.23 18.70 140.23 18.02Q140.22 17.34 140.21 16.71L140.21 16.71L145.18 16.71Q145.21 16.06 145.22 15.30Q145.23 14.54 145.23 13.84Q145.22 13.13 145.22 12.60Q145.21 12.08 145.20 11.89L145.20 11.89Q145.14 10.49 144.47 9.89Q143.81 9.29 142.34 9.29L142.34 9.29Q140.87 9.29 140.16 9.88Q139.45 10.48 139.40 11.95L139.40 11.95Q139.36 12.89 139.34 13.97Q139.33 15.05 139.33 16.20Q139.33 17.36 139.34 18.55Q139.36 19.73 139.40 20.90L139.40 20.90Q139.44 22.30 140.12 22.92Q140.80 23.54 142.36 23.54L142.36 23.54Q143.79 23.54 144.46 22.94Q145.13 22.34 145.20 20.92L145.20 20.92Q145.21 20.68 145.22 20.28Q145.22 19.89 145.21 19.47Q145.20 19.05 145.18 18.72L145.18 18.72L145.47 18.72Q145.51 19.21 145.51 19.88Q145.51 20.55 145.49 20.93L145.49 20.93Q145.42 22.46 144.69 23.12Q143.96 23.78 142.36 23.78ZM142.36 23.31L142.36 23.31Q141.05 23.31 140.39 22.78Q139.73 22.25 139.69 20.91L139.69 20.91Q139.66 19.85 139.64 18.72Q139.63 17.59 139.62 16.43Q139.62 15.27 139.64 14.14Q139.66 13.01 139.69 11.96L139.69 11.96Q139.73 10.63 140.37 10.07Q141.01 9.52 142.34 9.52L142.34 9.52Q143.66 9.52 144.25 10.08Q144.85 10.63 144.91 11.90L144.91 11.90Q144.92 12.13 144.93 12.87Q144.94 13.61 144.93 14.57Q144.93 15.53 144.89 16.46L144.89 16.46L139.91 16.46Q139.91 17.53 139.93 18.68Q139.95 19.84 139.99 20.89L139.99 20.89Q140.03 22.09 140.59 22.58Q141.16 23.07 142.36 23.07L142.36 23.07Q143.50 23.07 144.02 22.57Q144.55 22.06 144.61 20.89L144.61 20.89Q144.63 20.53 144.63 19.88Q144.62 19.22 144.59 18.72L144.59 18.72L144.89 18.72Q144.92 19.24 144.92 19.89Q144.92 20.54 144.91 20.90L144.91 20.90Q144.84 22.19 144.25 22.75Q143.66 23.31 142.36 23.31ZM139.91 16.22L139.91 16.22L144.61 16.22Q144.64 15.35 144.64 14.46Q144.64 13.57 144.63 12.88Q144.62 12.18 144.61 11.92L144.61 11.92Q144.56 10.77 144.04 10.27Q143.51 9.76 142.34 9.76L142.34 9.76Q141.11 9.76 140.57 10.28Q140.03 10.79 139.99 11.97L139.99 11.97Q139.95 13.00 139.94 14.09Q139.92 15.19 139.91 16.22ZM144.31 15.97L140.21 15.97Q140.21 15.42 140.22 14.76Q140.23 14.11 140.25 13.40Q140.26 12.69 140.29 11.98L140.29 11.98Q140.32 10.92 140.80 10.46Q141.28 10.00 142.34 10.00L142.34 10.00Q143.36 10.00 143.82 10.45Q144.27 10.90 144.31 11.93L144.31 11.93Q144.32 12.20 144.33 12.85Q144.34 13.50 144.34 14.33Q144.34 15.16 144.31 15.97L144.31 15.97ZM140.51 15.72L140.51 15.72L144.02 15.72Q144.04 14.90 144.04 14.12Q144.04 13.34 144.04 12.76Q144.03 12.17 144.02 11.95L144.02 11.95Q143.98 11.07 143.61 10.65Q143.24 10.24 142.34 10.24L142.34 10.24Q141.41 10.24 141.01 10.66Q140.61 11.08 140.58 11.99L140.58 11.99Q140.56 12.66 140.55 13.29Q140.53 13.91 140.53 14.51Q140.52 15.11 140.51 15.72ZM155.21 23.62L154.91 23.62L154.91 5.19L151.51 5.19L151.51 4.93L158.61 4.93L158.61 5.19L155.21 5.19L155.21 23.62ZM154.62 23.62L154.32 23.62L154.32 5.71L151.51 5.71L151.51 5.45L154.62 5.45L154.62 23.62ZM155.80 23.62L155.50 23.62L155.50 5.45L158.61 5.45L158.61 5.71L155.80 5.71L155.80 23.62ZM158.61 4.67L151.51 4.67L151.51 4.42L158.61 4.42L158.61 4.67ZM162.49 23.78L162.49 23.78Q160.88 23.78 160.08 23.15Q159.29 22.52 159.23 20.96L159.23 20.96Q159.19 19.73 159.17 18.56Q159.16 17.38 159.16 16.25Q159.16 15.11 159.18 14.03Q159.20 12.94 159.23 11.90L159.23 11.90Q159.29 10.33 160.08 9.69Q160.87 9.05 162.47 9.05L162.47 9.05Q164.09 9.05 164.82 9.70Q165.56 10.35 165.62 11.88L165.62 11.88Q165.64 12.07 165.64 12.62Q165.65 13.17 165.66 13.93Q165.66 14.68 165.65 15.48Q165.64 16.28 165.59 16.96L165.59 16.96L160.64 16.96Q160.65 17.65 160.66 18.28Q160.66 18.92 160.68 19.55Q160.69 20.19 160.71 20.87L160.71 20.87Q160.74 21.79 161.15 22.19Q161.56 22.60 162.49 22.60L162.49 22.60Q163.29 22.60 163.69 22.21Q164.10 21.83 164.15 20.87L164.15 20.87Q164.17 20.43 164.17 19.80Q164.16 19.18 164.13 18.72L164.13 18.72L164.42 18.72Q164.45 19.27 164.46 19.90Q164.46 20.52 164.44 20.89L164.44 20.89Q164.39 21.93 163.93 22.38Q163.48 22.83 162.49 22.83L162.49 22.83Q161.41 22.83 160.93 22.37Q160.45 21.92 160.42 20.89L160.42 20.89Q160.39 20.12 160.38 19.41Q160.36 18.70 160.36 18.02Q160.35 17.34 160.34 16.71L160.34 16.71L165.31 16.71Q165.34 16.06 165.35 15.30Q165.36 14.54 165.36 13.84Q165.35 13.13 165.35 12.60Q165.34 12.08 165.33 11.89L165.33 11.89Q165.27 10.49 164.60 9.89Q163.94 9.29 162.47 9.29L162.47 9.29Q161.00 9.29 160.29 9.88Q159.58 10.48 159.53 11.95L159.53 11.95Q159.49 12.89 159.47 13.97Q159.46 15.05 159.46 16.20Q159.46 17.36 159.47 18.55Q159.49 19.73 159.53 20.90L159.53 20.90Q159.57 22.30 160.25 22.92Q160.93 23.54 162.49 23.54L162.49 23.54Q163.92 23.54 164.59 22.94Q165.26 22.34 165.33 20.92L165.33 20.92Q165.34 20.68 165.34 20.28Q165.35 19.89 165.34 19.47Q165.33 19.05 165.31 18.72L165.31 18.72L165.60 18.72Q165.64 19.21 165.64 19.88Q165.64 20.55 165.62 20.93L165.62 20.93Q165.55 22.46 164.82 23.12Q164.09 23.78 162.49 23.78ZM162.49 23.31L162.49 23.31Q161.18 23.31 160.52 22.78Q159.86 22.25 159.82 20.91L159.82 20.91Q159.79 19.85 159.77 18.72Q159.76 17.59 159.75 16.43Q159.75 15.27 159.77 14.14Q159.79 13.01 159.82 11.96L159.82 11.96Q159.86 10.63 160.50 10.07Q161.14 9.52 162.47 9.52L162.47 9.52Q163.79 9.52 164.38 10.08Q164.98 10.63 165.04 11.90L165.04 11.90Q165.05 12.13 165.06 12.87Q165.07 13.61 165.06 14.57Q165.06 15.53 165.02 16.46L165.02 16.46L160.04 16.46Q160.04 17.53 160.06 18.68Q160.08 19.84 160.12 20.89L160.12 20.89Q160.16 22.09 160.72 22.58Q161.29 23.07 162.49 23.07L162.49 23.07Q163.63 23.07 164.15 22.57Q164.68 22.06 164.74 20.89L164.74 20.89Q164.76 20.53 164.76 19.88Q164.75 19.22 164.72 18.72L164.72 18.72L165.02 18.72Q165.05 19.24 165.05 19.89Q165.05 20.54 165.04 20.90L165.04 20.90Q164.97 22.19 164.38 22.75Q163.79 23.31 162.49 23.31ZM160.04 16.22L160.04 16.22L164.74 16.22Q164.77 15.35 164.77 14.46Q164.77 13.57 164.76 12.88Q164.75 12.18 164.74 11.92L164.74 11.92Q164.69 10.77 164.17 10.27Q163.64 9.76 162.47 9.76L162.47 9.76Q161.24 9.76 160.70 10.28Q160.16 10.79 160.12 11.97L160.12 11.97Q160.08 13.00 160.06 14.09Q160.05 15.19 160.04 16.22ZM164.44 15.97L160.34 15.97Q160.34 15.42 160.35 14.76Q160.36 14.11 160.38 13.40Q160.39 12.69 160.42 11.98L160.42 11.98Q160.45 10.92 160.93 10.46Q161.41 10.00 162.47 10.00L162.47 10.00Q163.49 10.00 163.95 10.45Q164.40 10.90 164.44 11.93L164.44 11.93Q164.45 12.20 164.46 12.85Q164.47 13.50 164.47 14.33Q164.47 15.16 164.44 15.97L164.44 15.97ZM160.64 15.72L160.64 15.72L164.15 15.72Q164.17 14.90 164.17 14.12Q164.17 13.34 164.17 12.76Q164.16 12.17 164.15 11.95L164.15 11.95Q164.11 11.07 163.74 10.65Q163.37 10.24 162.47 10.24L162.47 10.24Q161.54 10.24 161.14 10.66Q160.74 11.08 160.71 11.99L160.71 11.99Q160.69 12.66 160.68 13.29Q160.66 13.91 160.66 14.51Q160.65 15.11 160.64 15.72ZM167.93 23.62L167.61 23.62L168.74 19.45L169.58 16.25L168.61 12.69L167.65 9.22L167.95 9.22L168.86 12.52L169.84 16.13L170.63 16.13L171.58 12.69L172.56 9.22L172.86 9.22L171.83 12.85L170.88 16.25L171.75 19.46L172.90 23.62L172.58 23.62L171.52 19.68L170.63 16.39L169.83 16.39L168.97 19.67L167.93 23.62ZM168.54 23.62L168.24 23.62L169.22 19.88L170.01 16.64L170.45 16.64L171.27 19.88L172.27 23.62L171.97 23.62L171.04 20.09L170.28 16.87L170.18 16.87L169.45 20.08L168.54 23.62ZM167.30 23.62L167.00 23.62L169.03 16.25L167.05 9.22L167.34 9.22L169.32 16.25L167.30 23.62ZM173.51 23.62L173.20 23.62L171.14 16.25L173.17 9.22L173.47 9.22L171.43 16.25L173.51 23.62ZM170.45 15.87L170.01 15.87L169.13 12.38L168.25 9.22L168.54 9.22L169.36 12.23L170.18 15.62L170.28 15.62L171.09 12.34L171.97 9.22L172.27 9.22L171.32 12.52L170.45 15.87ZM178.32 23.27L178.32 23.27Q177.02 23.27 176.45 22.73Q175.88 22.18 175.88 20.90L175.88 20.90L175.88 9.98L174.23 9.98L174.23 9.73L175.88 9.73L175.88 5.14L176.18 5.14L176.18 9.73L179.27 9.73L179.27 9.98L176.18 9.98L176.18 20.90Q176.18 22.04 176.68 22.53Q177.17 23.02 178.32 23.02L178.32 23.02Q178.61 23.02 178.92 23.00Q179.23 22.97 179.56 22.92L179.56 22.92L179.56 23.17Q179.27 23.22 178.96 23.25Q178.64 23.27 178.32 23.27ZM178.32 23.78L178.32 23.78Q176.70 23.78 176.00 23.11Q175.29 22.45 175.29 20.90L175.29 20.90L175.29 10.48L174.23 10.48L174.23 10.23L175.59 10.23L175.59 20.90Q175.59 22.31 176.22 22.92Q176.86 23.53 178.32 23.53L178.32 23.53Q178.65 23.53 178.97 23.50Q179.28 23.47 179.56 23.41L179.56 23.41L179.56 23.66Q179.06 23.78 178.32 23.78ZM178.32 22.76L178.32 22.76Q177.33 22.76 176.90 22.33Q176.47 21.90 176.47 20.90L176.47 20.90L176.47 10.23L179.27 10.23L179.27 10.48L176.77 10.48L176.77 20.90Q176.77 21.77 177.13 22.14Q177.49 22.52 178.32 22.52L178.32 22.52Q178.57 22.52 178.88 22.50Q179.20 22.48 179.56 22.42L179.56 22.42L179.56 22.66Q179.24 22.71 178.93 22.74Q178.62 22.76 178.32 22.76ZM175.59 9.47L174.23 9.47L174.23 9.22L175.29 9.22L175.29 5.14L175.59 5.14L175.59 9.47ZM179.27 9.47L176.47 9.47L176.47 5.14L176.77 5.14L176.77 9.22L179.27 9.22L179.27 9.47ZM189.28 23.78L189.28 23.78Q188.05 23.78 187.27 23.47Q186.50 23.15 186.13 22.48Q185.76 21.80 185.71 20.71L185.71 20.71Q185.68 19.90 185.68 18.96Q185.68 18.02 185.71 16.97L185.71 16.97L186.01 16.97Q185.99 17.72 185.98 18.38Q185.97 19.04 185.98 19.62Q185.99 20.20 186.01 20.70L186.01 20.70Q186.05 21.70 186.39 22.33Q186.73 22.96 187.44 23.25Q188.15 23.54 189.28 23.54L189.28 23.54Q190.29 23.54 190.92 23.24Q191.56 22.95 191.87 22.32Q192.19 21.69 192.23 20.68L192.23 20.68Q192.25 20.27 192.26 19.66Q192.28 19.04 192.28 18.34Q192.28 17.65 192.27 16.99Q192.26 16.34 192.23 15.86L192.23 15.86Q192.18 14.72 191.80 14.09Q191.42 13.46 190.73 13.20Q190.04 12.95 189.07 12.95L189.07 12.95L188.62 12.95L188.62 12.87L192.37 5.48L192.37 4.67L185.67 4.67L185.67 4.42L192.67 4.42L192.67 5.54L189.05 12.70Q190.82 12.73 191.64 13.46Q192.45 14.19 192.53 15.85L192.53 15.85Q192.55 16.34 192.56 17.01Q192.57 17.67 192.57 18.36Q192.57 19.06 192.56 19.67Q192.55 20.29 192.53 20.69L192.53 20.69Q192.48 21.80 192.13 22.48Q191.77 23.15 191.07 23.47Q190.37 23.78 189.28 23.78ZM189.28 22.80L189.28 22.80Q188.00 22.80 187.47 22.28Q186.94 21.76 186.89 20.66L186.89 20.66Q186.88 20.14 186.87 19.58Q186.86 19.03 186.87 18.39Q186.88 17.75 186.89 16.97L186.89 16.97L187.19 16.97Q187.16 17.84 187.16 18.49Q187.15 19.13 187.16 19.65Q187.17 20.17 187.19 20.65L187.19 20.65Q187.23 21.63 187.69 22.09Q188.16 22.56 189.28 22.56L189.28 22.56Q190.18 22.56 190.59 22.09Q191.01 21.63 191.05 20.59L191.05 20.59Q191.07 20.09 191.08 19.22Q191.09 18.36 191.09 17.45Q191.08 16.54 191.05 15.89L191.05 15.89Q191.01 15.14 190.76 14.71Q190.51 14.29 190.04 14.12Q189.58 13.95 188.89 13.95L188.89 13.95L187.39 13.95L187.33 12.77L190.93 5.68L185.67 5.68L185.67 5.43L191.42 5.43L187.63 12.86L187.67 13.70L188.89 13.70Q189.65 13.70 190.18 13.89Q190.72 14.08 191.01 14.56Q191.30 15.03 191.35 15.89L191.35 15.89Q191.38 16.56 191.39 17.46Q191.39 18.35 191.38 19.22Q191.38 20.08 191.35 20.64L191.35 20.64Q191.31 21.79 190.82 22.29Q190.33 22.80 189.28 22.80ZM189.28 23.29L189.28 23.29Q187.69 23.29 187.03 22.66Q186.36 22.04 186.31 20.69L186.31 20.69Q186.29 20.16 186.28 19.58Q186.26 19.00 186.27 18.35Q186.28 17.70 186.31 16.97L186.31 16.97L186.60 16.97Q186.58 17.83 186.57 18.48Q186.56 19.13 186.57 19.66Q186.58 20.18 186.60 20.68L186.60 20.68Q186.65 21.92 187.26 22.48Q187.87 23.05 189.28 23.05L189.28 23.05Q190.40 23.05 190.99 22.52Q191.59 22.00 191.64 20.65L191.64 20.65Q191.66 20.23 191.67 19.60Q191.68 18.98 191.68 18.29Q191.69 17.61 191.68 16.97Q191.67 16.34 191.64 15.88L191.64 15.88Q191.60 15.18 191.42 14.71Q191.24 14.24 190.90 13.96Q190.57 13.69 190.06 13.57Q189.56 13.45 188.88 13.45L188.88 13.45L187.90 13.45L187.88 12.99L191.78 5.36L191.78 5.18L185.67 5.18L185.67 4.93L192.08 4.93L192.08 5.42L188.17 13.09L188.18 13.18L188.87 13.18Q189.85 13.18 190.51 13.41Q191.17 13.64 191.53 14.22Q191.89 14.80 191.94 15.87L191.94 15.87Q191.96 16.37 191.97 17.02Q191.98 17.67 191.98 18.35Q191.98 19.04 191.97 19.64Q191.96 20.25 191.94 20.66L191.94 20.66Q191.90 21.59 191.61 22.18Q191.32 22.76 190.75 23.02Q190.18 23.29 189.28 23.29ZM198.14 23.78L198.14 23.78Q196.55 23.78 195.71 22.99Q194.87 22.19 194.84 20.77L194.84 20.77Q194.81 18.64 194.80 16.30Q194.80 13.96 194.81 11.64Q194.82 9.32 194.84 7.28L194.84 7.28Q194.87 5.86 195.70 5.05Q196.54 4.25 198.14 4.25L198.14 4.25Q199.79 4.25 200.60 5.08Q201.41 5.90 201.44 7.28L201.44 7.28Q201.47 9.37 201.48 11.72Q201.49 14.08 201.48 16.41Q201.47 18.74 201.44 20.77L201.44 20.77Q201.41 22.12 200.61 22.95Q199.80 23.78 198.14 23.78ZM198.14 23.54L198.14 23.54Q199.64 23.54 200.38 22.79Q201.12 22.03 201.14 20.76L201.14 20.76Q201.17 18.92 201.18 16.66Q201.20 14.41 201.19 12Q201.18 9.59 201.14 7.28L201.14 7.28Q201.12 5.99 200.37 5.24Q199.62 4.49 198.14 4.49L198.14 4.49Q196.71 4.49 195.94 5.22Q195.16 5.95 195.14 7.28L195.14 7.28Q195.11 9.38 195.10 11.67Q195.10 13.95 195.10 16.26Q195.11 18.57 195.14 20.77L195.14 20.77Q195.16 22.10 195.94 22.82Q196.71 23.54 198.14 23.54ZM198.14 23.31L198.14 23.31Q196.83 23.31 196.14 22.63Q195.46 21.96 195.44 20.76L195.44 20.76Q195.41 18.58 195.40 16.28Q195.39 13.99 195.40 11.71Q195.41 9.43 195.44 7.29L195.44 7.29Q195.46 6.08 196.15 5.40Q196.84 4.72 198.14 4.72L198.14 4.72Q199.42 4.72 200.12 5.38Q200.83 6.05 200.84 7.30L200.84 7.30Q200.88 9.41 200.89 11.76Q200.90 14.11 200.89 16.42Q200.88 18.74 200.84 20.75L200.84 20.75Q200.83 21.94 200.14 22.63Q199.46 23.31 198.14 23.31ZM198.14 23.07L198.14 23.07Q199.34 23.07 199.93 22.44Q200.53 21.81 200.55 20.75L200.55 20.75Q200.59 18.66 200.59 16.36Q200.60 14.06 200.59 11.74Q200.59 9.43 200.55 7.30L200.55 7.30Q200.53 6.19 199.92 5.58Q199.30 4.96 198.14 4.96L198.14 4.96Q197.00 4.96 196.38 5.56Q195.75 6.17 195.73 7.30L195.73 7.30Q195.70 9.43 195.69 11.71Q195.68 13.98 195.69 16.27Q195.70 18.56 195.73 20.75L195.73 20.75Q195.75 21.87 196.37 22.47Q197.00 23.07 198.14 23.07ZM198.14 22.83L198.14 22.83Q197.13 22.83 196.58 22.29Q196.04 21.74 196.03 20.75L196.03 20.75Q196.01 19.10 196.00 17.38Q195.98 15.65 195.98 13.92Q195.98 12.19 196.00 10.52Q196.01 8.84 196.03 7.30L196.03 7.30Q196.04 6.30 196.58 5.75Q197.12 5.20 198.14 5.20L198.14 5.20Q199.16 5.20 199.70 5.75Q200.24 6.30 200.26 7.30L200.26 7.30Q200.29 9.55 200.29 11.89Q200.30 14.23 200.29 16.49Q200.29 18.74 200.26 20.74L200.26 20.74Q200.24 21.75 199.69 22.29Q199.14 22.83 198.14 22.83ZM198.14 22.60L198.14 22.60Q199.03 22.60 199.49 22.10Q199.95 21.60 199.96 20.73L199.96 20.73Q199.97 19.35 199.99 17.74Q200.00 16.13 200.01 14.38Q200.01 12.64 200.00 10.84Q199.99 9.05 199.96 7.31L199.96 7.31Q199.95 6.40 199.48 5.92Q199.01 5.44 198.14 5.44L198.14 5.44Q197.27 5.44 196.81 5.92Q196.34 6.41 196.33 7.30L196.33 7.30Q196.31 8.80 196.30 10.44Q196.28 12.08 196.28 13.81Q196.28 15.55 196.29 17.29Q196.30 19.04 196.33 20.74L196.33 20.74Q196.34 21.64 196.81 22.12Q197.28 22.60 198.14 22.60ZM207.28 23.78L207.28 23.78Q205.69 23.78 204.84 22.99Q204.00 22.19 203.98 20.77L203.98 20.77Q203.95 18.64 203.94 16.30Q203.93 13.96 203.94 11.64Q203.95 9.32 203.98 7.28L203.98 7.28Q204.00 5.86 204.84 5.05Q205.67 4.25 207.28 4.25L207.28 4.25Q208.93 4.25 209.74 5.08Q210.55 5.90 210.57 7.28L210.57 7.28Q210.60 9.37 210.61 11.72Q210.62 14.08 210.61 16.41Q210.61 18.74 210.57 20.77L210.57 20.77Q210.55 22.12 209.74 22.95Q208.93 23.78 207.28 23.78ZM207.28 23.54L207.28 23.54Q208.77 23.54 209.51 22.79Q210.25 22.03 210.28 20.76L210.28 20.76Q210.30 18.92 210.31 16.66Q210.33 14.41 210.32 12Q210.31 9.59 210.28 7.28L210.28 7.28Q210.25 5.99 209.50 5.24Q208.75 4.49 207.28 4.49L207.28 4.49Q205.84 4.49 205.07 5.22Q204.29 5.95 204.28 7.28L204.28 7.28Q204.25 9.38 204.24 11.67Q204.23 13.95 204.24 16.26Q204.25 18.57 204.28 20.77L204.28 20.77Q204.29 22.10 205.07 22.82Q205.84 23.54 207.28 23.54ZM207.28 23.31L207.28 23.31Q205.96 23.31 205.27 22.63Q204.59 21.96 204.57 20.76L204.57 20.76Q204.54 18.58 204.53 16.28Q204.52 13.99 204.53 11.71Q204.54 9.43 204.57 7.29L204.57 7.29Q204.59 6.08 205.28 5.40Q205.97 4.72 207.28 4.72L207.28 4.72Q208.55 4.72 209.26 5.38Q209.96 6.05 209.98 7.30L209.98 7.30Q210.01 9.41 210.02 11.76Q210.04 14.11 210.02 16.42Q210.01 18.74 209.98 20.75L209.98 20.75Q209.96 21.94 209.28 22.63Q208.60 23.31 207.28 23.31ZM207.28 23.07L207.28 23.07Q208.47 23.07 209.07 22.44Q209.66 21.81 209.68 20.75L209.68 20.75Q209.72 18.66 209.73 16.36Q209.74 14.06 209.73 11.74Q209.72 9.43 209.68 7.30L209.68 7.30Q209.66 6.19 209.05 5.58Q208.43 4.96 207.28 4.96L207.28 4.96Q206.14 4.96 205.51 5.56Q204.88 6.17 204.86 7.30L204.86 7.30Q204.83 9.43 204.82 11.71Q204.82 13.98 204.82 16.27Q204.83 18.56 204.86 20.75L204.86 20.75Q204.88 21.87 205.51 22.47Q206.13 23.07 207.28 23.07ZM207.28 22.83L207.28 22.83Q206.26 22.83 205.72 22.29Q205.17 21.74 205.16 20.75L205.16 20.75Q205.14 19.10 205.13 17.38Q205.12 15.65 205.12 13.92Q205.12 12.19 205.13 10.52Q205.14 8.84 205.16 7.30L205.16 7.30Q205.17 6.30 205.71 5.75Q206.26 5.20 207.28 5.20L207.28 5.20Q208.29 5.20 208.83 5.75Q209.37 6.30 209.39 7.30L209.39 7.30Q209.42 9.55 209.43 11.89Q209.44 14.23 209.43 16.49Q209.42 18.74 209.39 20.74L209.39 20.74Q209.37 21.75 208.82 22.29Q208.27 22.83 207.28 22.83ZM207.28 22.60L207.28 22.60Q208.16 22.60 208.62 22.10Q209.08 21.60 209.09 20.73L209.09 20.73Q209.11 19.35 209.12 17.74Q209.14 16.13 209.14 14.38Q209.14 12.64 209.13 10.84Q209.12 9.05 209.09 7.31L209.09 7.31Q209.08 6.40 208.61 5.92Q208.14 5.44 207.28 5.44L207.28 5.44Q206.41 5.44 205.94 5.92Q205.47 6.41 205.46 7.30L205.46 7.30Q205.44 8.80 205.43 10.44Q205.42 12.08 205.41 13.81Q205.41 15.55 205.42 17.29Q205.43 19.04 205.46 20.74L205.46 20.74Q205.47 21.64 205.94 22.12Q206.41 22.60 207.28 22.60ZM224.77 23.62L224.48 23.62L224.48 12.11Q224.48 11.55 224.38 11.05Q224.29 10.54 224.02 10.15Q223.76 9.76 223.27 9.53Q222.79 9.30 222.01 9.30L222.01 9.30Q221.00 9.30 220.29 9.74Q219.58 10.19 219.20 10.93L219.20 10.93L219.13 10.93L219.30 9.22L219.59 9.22L219.59 9.40L219.40 10.28L219.47 10.28Q219.94 9.64 220.59 9.34Q221.25 9.05 222.07 9.05L222.07 9.05Q222.75 9.05 223.22 9.21Q223.70 9.37 224.00 9.66Q224.30 9.95 224.47 10.34Q224.64 10.72 224.71 11.17Q224.77 11.61 224.77 12.08L224.77 12.08L224.77 23.62ZM218.43 23.62L218.13 23.62L218.13 9.22L218.43 9.22L218.43 23.62ZM219.61 23.62L219.31 23.62L219.31 12.44Q219.31 11.84 219.61 11.29Q219.92 10.75 220.48 10.40Q221.04 10.05 221.81 10.05L221.81 10.05Q222.36 10.05 222.71 10.21Q223.07 10.38 223.26 10.67Q223.45 10.96 223.53 11.35Q223.60 11.73 223.60 12.17L223.60 12.17L223.60 23.62L223.31 23.62L223.31 12.17Q223.31 11.63 223.18 11.21Q223.06 10.79 222.73 10.54Q222.40 10.30 221.78 10.30L221.78 10.30Q221.15 10.30 220.66 10.59Q220.18 10.88 219.90 11.37Q219.62 11.85 219.62 12.43L219.62 12.43L219.61 23.62ZM219.03 23.62L218.72 23.62L218.72 9.22L219.02 9.22L218.95 11.66L219.02 11.66Q219.32 10.69 220.07 10.12Q220.82 9.54 221.93 9.55L221.93 9.55Q223.24 9.55 223.72 10.24Q224.19 10.93 224.19 12.12L224.19 12.12L224.19 23.62L223.89 23.62L223.89 12.14Q223.89 11.02 223.46 10.40Q223.03 9.79 221.87 9.79L221.87 9.79Q220.98 9.79 220.35 10.18Q219.71 10.57 219.37 11.18Q219.03 11.79 219.03 12.46L219.03 12.46L219.03 23.62ZM230.57 23.78L230.57 23.78Q228.90 23.78 228.14 23.08Q227.39 22.38 227.32 20.77L227.32 20.77Q227.26 19.37 227.23 17.98Q227.21 16.58 227.23 15.12Q227.25 13.66 227.32 12.08L227.32 12.08Q227.39 10.40 228.18 9.73Q228.97 9.05 230.57 9.05L230.57 9.05Q232.20 9.05 232.97 9.74Q233.75 10.43 233.82 12.09L233.82 12.09Q233.91 14.35 233.91 16.53Q233.91 18.71 233.82 20.77L233.82 20.77Q233.75 22.45 232.95 23.11Q232.16 23.78 230.57 23.78ZM230.57 23.54L230.57 23.54Q232.04 23.54 232.75 22.91Q233.45 22.28 233.53 20.75L233.53 20.75Q233.61 18.82 233.62 16.66Q233.62 14.50 233.53 12.10L233.53 12.10Q233.46 10.55 232.75 9.92Q232.04 9.29 230.57 9.29L230.57 9.29Q229.07 9.29 228.37 9.93Q227.68 10.57 227.61 12.10L227.61 12.10Q227.54 13.69 227.52 15.14Q227.50 16.60 227.53 17.98Q227.55 19.36 227.61 20.75L227.61 20.75Q227.67 22.26 228.37 22.90Q229.07 23.54 230.57 23.54ZM230.57 23.31L230.57 23.31Q229.20 23.31 228.58 22.71Q227.97 22.11 227.90 20.74L227.90 20.74Q227.84 19.31 227.82 17.94Q227.80 16.56 227.82 15.13Q227.84 13.70 227.90 12.11L227.90 12.11Q227.97 10.70 228.60 10.11Q229.24 9.52 230.57 9.52L230.57 9.52Q231.88 9.52 232.52 10.09Q233.17 10.67 233.23 12.11L233.23 12.11Q233.29 13.60 233.31 15.04Q233.33 16.48 233.31 17.90Q233.29 19.31 233.23 20.74L233.23 20.74Q233.17 22.15 232.53 22.73Q231.88 23.31 230.57 23.31ZM230.57 23.07L230.57 23.07Q231.78 23.07 232.33 22.52Q232.88 21.98 232.93 20.72L232.93 20.72Q233.02 18.62 233.02 16.58Q233.03 14.53 232.93 12.12L232.93 12.12Q232.88 10.81 232.30 10.28Q231.73 9.76 230.57 9.76L230.57 9.76Q229.36 9.76 228.81 10.31Q228.26 10.86 228.20 12.13L228.20 12.13Q228.14 13.65 228.11 15.05Q228.09 16.45 228.11 17.84Q228.13 19.23 228.20 20.74L228.20 20.74Q228.26 22.01 228.82 22.54Q229.38 23.07 230.57 23.07ZM230.57 22.83L230.57 22.83Q229.51 22.83 229.03 22.34Q228.55 21.85 228.50 20.74L228.50 20.74Q228.44 19.27 228.41 17.90Q228.39 16.53 228.41 15.12Q228.43 13.70 228.50 12.13L228.50 12.13Q228.55 10.97 229.04 10.48Q229.54 10.00 230.57 10.00L230.57 10.00Q231.62 10.00 232.11 10.49Q232.59 10.99 232.64 12.14L232.64 12.14Q232.74 14.59 232.73 16.64Q232.72 18.68 232.64 20.71L232.64 20.71Q232.59 21.86 232.10 22.35Q231.61 22.83 230.57 22.83ZM230.57 22.60L230.57 22.60Q231.47 22.60 231.88 22.16Q232.30 21.72 232.34 20.71L232.34 20.71Q232.43 18.58 232.44 16.59Q232.44 14.60 232.34 12.15L232.34 12.15Q232.30 11.13 231.89 10.68Q231.48 10.24 230.57 10.24L230.57 10.24Q229.66 10.24 229.25 10.68Q228.84 11.12 228.79 12.13L228.79 12.13Q228.73 13.70 228.71 15.10Q228.68 16.51 228.70 17.87Q228.73 19.24 228.79 20.73L228.79 20.73Q228.84 21.71 229.25 22.16Q229.66 22.60 230.57 22.60ZM237.34 23.62L237.02 23.62L237.02 9.22L237.31 9.22L237.31 10.11L237.22 11.66L237.32 11.66Q237.59 10.72 238.35 10.20Q239.11 9.68 240.19 9.68L240.19 9.68Q240.48 9.68 240.77 9.70Q241.06 9.71 241.25 9.72L241.25 9.72L241.25 9.97Q241.01 9.96 240.69 9.95Q240.37 9.94 240.10 9.94L240.10 9.94Q239.23 9.94 238.61 10.31Q238.00 10.67 237.67 11.25Q237.34 11.82 237.34 12.46L237.34 12.46L237.34 23.62ZM236.72 23.62L236.42 23.62L236.42 9.22L236.72 9.22L236.72 23.62ZM237.91 23.62L237.61 23.62L237.61 12.44Q237.61 11.53 238.29 10.87Q238.97 10.21 240.03 10.21L240.03 10.21Q240.35 10.21 240.66 10.21Q240.98 10.22 241.25 10.23L241.25 10.23L241.25 10.48Q240.98 10.47 240.67 10.47Q240.35 10.46 240.02 10.46L240.02 10.46Q239.15 10.46 238.53 11.01Q237.91 11.56 237.91 12.43L237.91 12.43L237.91 23.62ZM237.49 10.93L237.43 10.93L237.61 9.70L237.61 9.22L237.91 9.22L237.91 9.48L237.70 10.28L237.76 10.28Q238.17 9.66 238.86 9.42Q239.56 9.18 240.32 9.18L240.32 9.18Q240.52 9.18 240.76 9.19Q241.01 9.19 241.25 9.21L241.25 9.21L241.25 9.46Q241.04 9.45 240.80 9.44Q240.56 9.43 240.29 9.43L240.29 9.43Q239.31 9.43 238.58 9.81Q237.86 10.19 237.49 10.93L237.49 10.93ZM254.29 23.62L254.00 23.62L254.00 12.11Q254.00 11.20 253.80 10.57Q253.59 9.95 253.08 9.62Q252.58 9.30 251.66 9.30L251.66 9.30Q250.69 9.30 250.01 9.73Q249.32 10.15 248.97 10.93L248.97 10.93L248.91 10.93Q248.72 10.06 248.23 9.68Q247.74 9.30 246.83 9.30L246.83 9.30Q245.83 9.30 245.21 9.74Q244.60 10.19 244.21 10.93L244.21 10.93L244.14 10.93L244.31 9.22L244.61 9.22L244.61 9.40L244.42 10.28L244.48 10.28Q244.93 9.64 245.49 9.34Q246.06 9.05 246.90 9.05L246.90 9.05Q247.74 9.05 248.24 9.35Q248.74 9.66 249.02 10.36L249.02 10.36L249.11 10.36Q249.53 9.71 250.21 9.38Q250.88 9.05 251.72 9.05L251.72 9.05Q252.73 9.05 253.28 9.40Q253.84 9.76 254.07 10.43Q254.29 11.11 254.29 12.08L254.29 12.08L254.29 23.62ZM243.44 23.62L243.14 23.62L243.14 9.22L243.44 9.22L243.44 23.62ZM244.63 23.62L244.33 23.62L244.33 12.44Q244.33 11.84 244.58 11.29Q244.84 10.75 245.35 10.40Q245.87 10.05 246.64 10.05L246.64 10.05Q247.61 10.05 247.95 10.60Q248.30 11.15 248.30 12.17L248.30 12.17L248.30 23.62L248.00 23.62L248.00 12.17Q248.00 11.30 247.72 10.80Q247.44 10.30 246.61 10.30L246.61 10.30Q245.98 10.30 245.54 10.59Q245.09 10.88 244.86 11.37Q244.63 11.85 244.63 12.43L244.63 12.43L244.63 23.62ZM244.04 23.62L243.74 23.62L243.74 9.22L244.03 9.22L243.97 11.66L244.04 11.66Q244.34 10.72 244.99 10.13Q245.65 9.55 246.76 9.55L246.76 9.55Q247.79 9.55 248.25 10.05Q248.71 10.55 248.78 11.66L248.78 11.66L248.84 11.66Q249.08 10.63 249.81 10.09Q250.54 9.54 251.59 9.55L251.59 9.55Q252.43 9.55 252.88 9.85Q253.34 10.16 253.53 10.73Q253.71 11.30 253.71 12.12L253.71 12.12L253.71 23.62L253.41 23.62L253.41 12.14Q253.41 11.00 253.02 10.40Q252.63 9.79 251.52 9.79L251.52 9.79Q250.69 9.79 250.10 10.13Q249.52 10.46 249.21 11.01Q248.90 11.56 248.90 12.20L248.90 12.20L248.90 23.62L248.59 23.62L248.59 12.14Q248.59 11.00 248.20 10.40Q247.80 9.79 246.69 9.79L246.69 9.79Q245.73 9.79 245.15 10.23Q244.57 10.67 244.30 11.29Q244.04 11.90 244.04 12.46L244.04 12.46L244.04 23.62ZM249.46 23.62L249.19 23.62L249.19 12.19Q249.19 11.54 249.46 11.06Q249.73 10.58 250.23 10.32Q250.74 10.05 251.47 10.05L251.47 10.05Q252.11 10.05 252.47 10.30Q252.83 10.55 252.98 11.02Q253.12 11.49 253.12 12.17L253.12 12.17L253.12 23.62L252.83 23.62L252.83 12.17Q252.83 11.27 252.53 10.78Q252.24 10.30 251.44 10.30L251.44 10.30Q250.82 10.30 250.37 10.53Q249.93 10.77 249.70 11.19Q249.46 11.62 249.46 12.17L249.46 12.17L249.46 23.62ZM262.96 23.62L262.66 23.62L262.66 12.22Q262.66 10.79 262.10 10.04Q261.53 9.29 259.98 9.29L259.98 9.29Q258.63 9.29 257.88 9.83Q257.13 10.37 257.07 11.86L257.07 11.86Q257.05 12.43 257.05 12.97Q257.06 13.52 257.09 14.08L257.09 14.08L256.80 14.08Q256.76 13.46 256.76 12.93Q256.75 12.39 256.78 11.84L256.78 11.84Q256.84 10.34 257.59 9.70Q258.35 9.05 259.98 9.05L259.98 9.05Q261.16 9.05 261.80 9.43Q262.45 9.80 262.70 10.51Q262.96 11.21 262.96 12.22L262.96 12.22L262.96 23.62ZM259.34 23.06L259.34 23.06Q260.21 23.06 260.82 22.66Q261.43 22.25 261.75 21.63Q262.07 21.01 262.07 20.35L262.07 20.35L262.07 15.55Q261.34 15.82 260.65 16.12Q259.95 16.42 259.46 16.68L259.46 16.68Q258.45 17.24 257.96 17.97Q257.47 18.70 257.41 19.91L257.41 19.91Q257.39 20.26 257.40 20.50Q257.41 20.75 257.43 21.08L257.43 21.08Q257.51 22.02 258.01 22.54Q258.51 23.06 259.34 23.06ZM259.39 22.81L259.39 22.81Q258.65 22.81 258.22 22.34Q257.79 21.86 257.72 21.04L257.72 21.04Q257.70 20.76 257.70 20.50Q257.69 20.24 257.71 19.95L257.71 19.95Q257.75 18.77 258.21 18.10Q258.67 17.42 259.58 16.91L259.58 16.91Q260.13 16.61 260.66 16.36Q261.19 16.11 261.77 15.90L261.77 15.90L261.77 20.37Q261.77 20.98 261.49 21.54Q261.22 22.10 260.68 22.45Q260.15 22.81 259.39 22.81ZM259.40 22.58L259.40 22.58Q260.03 22.58 260.49 22.27Q260.96 21.97 261.22 21.46Q261.47 20.96 261.47 20.38L261.47 20.38L261.47 16.26Q261.01 16.45 260.59 16.66Q260.18 16.88 259.72 17.14L259.72 17.14Q258.81 17.66 258.42 18.29Q258.04 18.92 258.00 19.96L258.00 19.96Q257.99 20.21 258.00 20.47Q258.00 20.73 258.02 21.02L258.02 21.02Q258.07 21.74 258.43 22.16Q258.79 22.58 259.40 22.58ZM259.21 23.77L259.21 23.77Q258.05 23.77 257.35 23.08Q256.64 22.40 256.54 21.12L256.54 21.12Q256.52 20.80 256.51 20.50Q256.51 20.21 256.52 19.85L256.52 19.85Q256.58 18.54 257.15 17.63Q257.73 16.72 259.09 15.98L259.09 15.98Q259.43 15.80 259.78 15.63Q260.14 15.46 260.56 15.28Q260.98 15.10 261.48 14.90L261.48 14.90L261.48 12.22Q261.48 11.29 261.16 10.76Q260.84 10.24 259.98 10.24L259.98 10.24Q259.11 10.24 258.70 10.64Q258.28 11.05 258.25 11.94L258.25 11.94Q258.23 12.32 258.23 12.90Q258.23 13.48 258.26 14.08L258.26 14.08L257.97 14.08Q257.95 13.51 257.94 12.92Q257.94 12.34 257.95 11.93L257.95 11.93Q258.00 10.87 258.50 10.44Q259.00 10.00 259.98 10.00L259.98 10.00Q261.04 10.00 261.41 10.60Q261.77 11.20 261.77 12.22L261.77 12.22L261.77 15.10Q261.04 15.38 260.37 15.67Q259.69 15.96 259.22 16.21L259.22 16.21Q258.03 16.84 257.45 17.70Q256.87 18.55 256.82 19.87L256.82 19.87Q256.81 20.20 256.81 20.48Q256.82 20.77 256.84 21.10L256.84 21.10Q256.93 22.25 257.56 22.89Q258.19 23.53 259.25 23.53L259.25 23.53Q260.29 23.53 260.91 23.08Q261.53 22.63 261.91 21.88L261.91 21.88L261.98 21.88L261.79 23.11L261.79 23.62L261.50 23.62L261.49 23.33L261.72 22.53L261.65 22.53Q261.22 23.18 260.62 23.48Q260.03 23.77 259.21 23.77ZM262.37 23.62L262.07 23.62L262.07 22.70L262.16 21.15L262.09 21.15Q261.79 22.12 261.09 22.70Q260.39 23.29 259.30 23.29L259.30 23.29Q258.35 23.29 257.79 22.71Q257.22 22.13 257.14 21.09L257.14 21.09Q257.11 20.76 257.11 20.49Q257.11 20.23 257.12 19.89L257.12 19.89Q257.16 18.62 257.68 17.84Q258.19 17.06 259.34 16.44L259.34 16.44Q259.68 16.27 260.12 16.07Q260.56 15.87 261.06 15.67Q261.56 15.47 262.08 15.28L262.08 15.28L262.08 12.22Q262.08 11.08 261.65 10.42Q261.22 9.76 259.98 9.76L259.98 9.76Q258.82 9.76 258.26 10.26Q257.71 10.75 257.66 11.92L257.66 11.92Q257.64 12.30 257.64 12.89Q257.65 13.48 257.68 14.08L257.68 14.08L257.38 14.08Q257.35 13.52 257.35 12.92Q257.34 12.33 257.36 11.92L257.36 11.92Q257.41 10.64 258.02 10.08Q258.64 9.52 259.98 9.52L259.98 9.52Q261.35 9.52 261.86 10.21Q262.37 10.91 262.37 12.22L262.37 12.22L262.37 23.62ZM267.16 23.62L266.86 23.62L266.86 4.42L267.16 4.42L267.16 23.62ZM265.97 23.62L265.67 23.62L265.67 4.42L265.97 4.42L265.97 23.62ZM266.56 23.62L266.27 23.62L266.27 4.42L266.56 4.42L266.56 23.62Z"/></svg>