<svg xmlns="http://www.w3.org/2000/svg" xmlns:xlink="http://www.w3.org/1999/xlink" width="220.12800000000001" height="42.480000000000004"><path fill="black" d="M11.69 16.63Q11.57 16.25 10.76 15.95Q9.96 15.65 8.66 15.65L8.66 15.65Q7.25 15.65 6.46 16.44Q5.66 17.23 5.66 18.43L5.66 18.43Q5.66 19.18 6.20 19.57Q6.74 19.97 7.87 20.45L7.87 20.45L8.74 20.81L9.46 21.14Q10.75 21.72 11.51 22.19Q12.26 22.66 12.79 23.47Q13.32 24.29 13.32 25.56L13.32 25.56Q13.32 26.93 12.42 27.92Q11.52 28.92 9.91 29.44Q8.30 29.95 6.17 29.95L6.17 29.95Q4.58 29.95 3.20 29.46Q1.82 28.97 1.02 28.22Q0.22 27.48 0.22 26.76L0.22 26.76Q0.22 26.06 0.82 25.62Q1.42 25.18 2.52 25.01L2.52 25.01Q2.64 25.70 3.34 26.26Q4.03 26.81 4.96 27.13Q5.88 27.46 6.58 27.46L6.58 27.46Q7.85 27.46 8.84 26.95Q9.84 26.45 9.84 25.56L9.84 25.56Q9.84 24.82 9.13 24.32Q8.42 23.83 7.01 23.26L7.01 23.26L5.74 22.68Q4.18 21.91 3.26 20.95Q2.35 19.99 2.35 18.41L2.35 18.41Q2.35 16.66 3.34 15.56Q4.32 14.47 5.72 13.99Q7.13 13.51 8.47 13.51L8.47 13.51Q10.61 13.51 11.99 14.06Q13.37 14.62 13.99 15.46Q14.62 16.30 14.62 17.18L14.62 17.18Q14.62 17.69 14.36 18.41Q14.11 19.13 13.62 19.66Q13.13 20.18 12.43 20.18L12.43 20.18Q11.23 20.18 11.23 18.94L11.23 18.94Q11.28 18.55 11.45 17.68Q11.62 16.80 11.69 16.63L11.69 16.63ZM18.34 28.37Q18.31 28.51 18.23 28.93Q18.14 29.35 17.82 29.52Q17.50 29.69 16.80 29.69L16.80 29.69Q16.01 29.69 15.65 29.52Q15.29 29.35 15.29 28.80L15.29 28.80L16.44 24.22Q17.40 20.26 17.71 19.18L17.71 19.18L17.11 18.46Q17.04 18.38 17.04 18.29L17.04 18.29Q17.04 18.05 17.57 17.89Q18.10 17.74 19.03 17.74L19.03 17.74Q19.87 17.74 20.16 18.20Q20.45 18.67 20.52 19.42L20.52 19.42L20.35 20.04Q21.12 19.10 22.14 18.49Q23.16 17.88 23.95 17.88L23.95 17.88Q24.98 17.88 25.56 18.24Q26.14 18.60 26.14 19.18L26.14 19.18Q26.14 19.68 25.79 20.22Q25.44 20.76 24.91 21.13Q24.38 21.50 23.88 21.55L23.88 21.55Q23.40 21.55 23.23 21.43Q23.06 21.31 23.06 21.07L23.06 21.07L23.21 20.28Q21.29 20.81 19.73 22.82L19.73 22.82L18.34 28.37ZM28.15 15.02Q28.15 14.28 28.62 13.70Q29.09 13.13 29.93 13.13L29.93 13.13Q30.82 13.13 31.48 13.68Q32.14 14.23 32.14 14.93L32.14 14.93Q32.14 15.62 31.46 16.13Q30.79 16.63 29.90 16.63L29.90 16.63Q29.04 16.63 28.60 16.19Q28.15 15.74 28.15 15.02L28.15 15.02ZM30.67 19.27Q29.40 24.46 28.73 27.07L28.73 27.07Q28.63 27.46 28.63 27.91L28.63 27.91L28.66 28.58Q28.66 28.99 28.40 29.16Q28.15 29.33 27.34 29.35L27.34 29.35Q26.54 29.35 26.14 29.18Q25.73 29.02 25.73 28.46L25.73 28.46Q25.73 28.20 26.34 25.66Q26.95 23.11 28.01 19.03L28.01 19.03L27.46 18.31Q27.38 18.24 27.38 18.14L27.38 18.14Q27.38 17.90 27.91 17.75Q28.44 17.59 29.38 17.59L29.38 17.59Q30.19 17.59 30.42 18.06Q30.65 18.53 30.67 19.27L30.67 19.27ZM34.80 28.37Q34.78 28.51 34.69 28.93Q34.61 29.35 34.28 29.52Q33.96 29.69 33.26 29.69L33.26 29.69Q32.47 29.69 32.11 29.52Q31.75 29.35 31.75 28.80L31.75 28.80L32.90 24.22Q33.86 20.26 34.18 19.18L34.18 19.18L33.58 18.46Q33.50 18.38 33.50 18.29L33.50 18.29Q33.50 18.05 34.03 17.89Q34.56 17.74 35.50 17.74L35.50 17.74Q36.34 17.74 36.62 18.20Q36.91 18.67 36.98 19.42L36.98 19.42L36.82 20.04Q37.58 19.10 38.60 18.49Q39.62 17.88 40.42 17.88L40.42 17.88Q41.45 17.88 42.02 18.24Q42.60 18.60 42.60 19.18L42.60 19.18Q42.60 19.68 42.25 20.22Q41.90 20.76 41.38 21.13Q40.85 21.50 40.34 21.55L40.34 21.55Q39.86 21.55 39.70 21.43Q39.53 21.31 39.53 21.07L39.53 21.07L39.67 20.28Q37.75 20.81 36.19 22.82L36.19 22.82L34.80 28.37ZM51.02 28.03Q51.07 28.66 51.19 29.16L51.19 29.16Q51.14 29.30 50.77 29.45Q50.40 29.59 50.14 29.59L50.14 29.59Q49.27 29.59 48.90 29.34Q48.53 29.09 48.53 28.58L48.53 28.58Q48.53 28.10 48.62 27.62L48.62 27.62Q48.10 28.34 47.08 28.81Q46.06 29.28 45.43 29.28L45.43 29.28Q43.82 29.28 42.76 28.34Q41.69 27.41 41.69 25.34L41.69 25.34Q41.69 23.40 42.61 21.68Q43.54 19.97 45.17 18.92Q46.80 17.88 48.79 17.88L48.79 17.88Q49.18 17.88 49.80 18.08Q50.42 18.29 51.06 18.78Q51.70 19.27 52.13 20.04L52.13 20.04Q52.32 20.04 52.58 20.23Q52.85 20.42 52.85 20.62L52.85 20.62Q52.85 20.83 52.78 21.05L52.78 21.05L51.02 28.03ZM49.94 21.31Q49.80 20.78 49.38 20.42Q48.96 20.06 48.62 20.06L48.62 20.06Q47.52 20.06 46.55 20.84Q45.58 21.62 44.98 22.78Q44.38 23.93 44.38 24.96L44.38 24.96Q44.38 25.97 44.62 26.62Q44.86 27.26 45.55 27.26L45.55 27.26Q46.15 27.26 46.93 26.90Q47.71 26.54 48.32 25.93Q48.94 25.32 49.13 24.65L49.13 24.65L49.94 21.31ZM64.37 26.45Q64.08 27.22 63.24 28.00Q62.40 28.78 61.10 29.28Q59.81 29.78 58.27 29.78L58.27 29.78Q55.92 29.78 54.79 28.81Q53.66 27.84 53.66 26.28L53.66 26.28Q53.66 24.02 54.82 22.09Q55.97 20.16 57.91 19.03Q59.86 17.90 62.06 17.90L62.06 17.90Q63.43 17.90 64.33 18.71Q65.23 19.51 65.23 20.88L65.23 20.88Q65.23 21.41 64.80 21.76Q64.37 22.10 63.65 22.10L63.65 22.10Q63.07 22.10 62.87 21.84Q62.66 21.58 62.66 21.14L62.66 21.14L62.69 20.59Q62.69 20.30 62.38 20.12Q62.06 19.94 61.70 19.94L61.70 19.94Q60.96 19.94 59.70 20.83Q58.44 21.72 57.49 23.17Q56.54 24.62 56.54 26.28L56.54 26.28Q56.54 26.95 57.07 27.31Q57.60 27.67 58.63 27.67L58.63 27.67Q59.28 27.67 60.12 27.41Q60.96 27.14 61.18 26.74L61.18 26.74Q61.99 25.25 62.66 25.25L62.66 25.25Q63.65 25.25 64.00 25.62Q64.34 25.99 64.37 26.45L64.37 26.45ZM69.55 21.36Q70.10 20.28 71.08 19.51Q72.05 18.74 73.06 18.34Q74.06 17.93 74.71 17.93L74.71 17.93Q75.96 17.93 76.51 18.40Q77.06 18.86 77.06 19.87L77.06 19.87Q75.65 23.57 75.19 27.84L75.19 27.84L75.53 29.02Q75.24 29.57 74.76 29.89Q74.28 30.22 73.30 30.22L73.30 30.22Q72.72 30.22 72.46 29.83Q72.19 29.45 72.19 28.87L72.19 28.87Q72.19 27.26 72.66 25.33Q73.13 23.40 73.75 21.38L73.75 21.38Q73.99 20.62 73.99 20.59L73.99 20.59Q73.99 20.26 73.61 20.26L73.61 20.26Q73.10 20.26 72.14 21Q71.18 21.74 70.15 23.51Q69.12 25.27 68.42 28.13L68.42 28.13Q68.40 28.25 68.30 28.63Q68.21 29.02 67.87 29.18Q67.54 29.35 66.84 29.35L66.84 29.35Q66 29.35 65.54 29.17Q65.09 28.99 65.09 28.46L65.09 28.46Q68.23 16.10 68.98 13.01L68.98 13.01Q68.95 12.70 68.94 12.18Q68.93 11.66 68.93 11.38L68.93 11.38Q69 11.04 69.44 10.86Q69.89 10.68 70.34 10.68L70.34 10.68Q71.11 10.68 71.64 11.09Q72.17 11.50 72.22 12.12L72.22 12.12L69.55 21.36ZM87.62 28.03Q87.67 28.66 87.79 29.16L87.79 29.16Q87.74 29.30 87.37 29.45Q87 29.59 86.74 29.59L86.74 29.59Q85.87 29.59 85.50 29.34Q85.13 29.09 85.13 28.58L85.13 28.58Q85.13 28.10 85.22 27.62L85.22 27.62Q84.70 28.34 83.68 28.81Q82.66 29.28 82.03 29.28L82.03 29.28Q80.42 29.28 79.36 28.34Q78.29 27.41 78.29 25.34L78.29 25.34Q78.29 23.40 79.21 21.68Q80.14 19.97 81.77 18.92Q83.40 17.88 85.39 17.88L85.39 17.88Q85.78 17.88 86.40 18.08Q87.02 18.29 87.66 18.78Q88.30 19.27 88.73 20.04L88.73 20.04Q88.92 20.04 89.18 20.23Q89.45 20.42 89.45 20.62L89.45 20.62Q89.45 20.83 89.38 21.05L89.38 21.05L87.62 28.03ZM86.54 21.31Q86.40 20.78 85.98 20.42Q85.56 20.06 85.22 20.06L85.22 20.06Q84.12 20.06 83.15 20.84Q82.18 21.62 81.58 22.78Q80.98 23.93 80.98 24.96L80.98 24.96Q80.98 25.97 81.22 26.62Q81.46 27.26 82.15 27.26L82.15 27.26Q82.75 27.26 83.53 26.90Q84.31 26.54 84.92 25.93Q85.54 25.32 85.73 24.65L85.73 24.65L86.54 21.31ZM103.73 28.58Q103.97 27.29 104.40 25.44L104.40 25.44L102.70 25.58Q98.90 25.92 98.28 25.92L98.28 25.92Q97.54 25.92 97.12 25.66Q96.70 25.39 96.70 24.65L96.70 24.65Q96.70 24.26 97.10 23.78L97.10 23.78Q102.36 18.24 104.33 16.24Q106.30 14.23 107.06 13.62Q107.83 13.01 108.34 13.01L108.34 13.01Q109.13 13.01 109.61 13.28Q110.09 13.56 110.09 14.06L110.09 14.06Q110.09 14.35 110.06 14.42L110.06 14.42Q109.01 18.31 108 22.97L108 22.97L109.63 22.82Q110.04 22.99 110.30 23.30Q110.57 23.62 110.57 24L110.57 24Q110.57 24.82 109.15 25.03L109.15 25.03L107.54 25.15L106.80 28.56Q106.80 29.16 106.34 29.51Q105.89 29.86 105.22 29.86L105.22 29.86Q104.59 29.86 104.18 29.60Q103.78 29.35 103.73 28.58L103.73 28.58ZM100.94 23.59Q102.05 23.42 104.90 23.18L104.90 23.18Q105.70 19.90 106.37 17.69L106.37 17.69L100.94 23.59ZM117.41 29.78Q115.78 29.78 114.60 28.99Q113.42 28.20 112.82 26.87Q112.22 25.54 112.22 23.93L112.22 23.93Q112.22 23.06 112.39 22.25L112.39 22.25Q113.14 18.29 115.18 15.91Q117.22 13.54 120.84 13.54L120.84 13.54Q123.10 13.54 124.27 14.96Q125.45 16.39 125.45 19.15L125.45 19.15Q125.45 21.67 124.58 24.11Q123.72 26.54 121.91 28.16Q120.10 29.78 117.41 29.78L117.41 29.78ZM117.34 27.50Q118.78 27.50 119.94 26.18Q121.10 24.86 121.74 22.85Q122.38 20.83 122.38 18.84L122.38 18.84Q122.38 16.13 120.12 16.13L120.12 16.13Q118.80 16.13 117.67 17.41Q116.54 18.70 115.88 20.58Q115.22 22.46 115.22 24.10L115.22 24.10Q115.22 25.80 115.76 26.65Q116.30 27.50 117.34 27.50L117.34 27.50ZM132.58 29.78Q130.94 29.78 129.77 28.99Q128.59 28.20 127.99 26.87Q127.39 25.54 127.39 23.93L127.39 23.93Q127.39 23.06 127.56 22.25L127.56 22.25Q128.30 18.29 130.34 15.91Q132.38 13.54 136.01 13.54L136.01 13.54Q138.26 13.54 139.44 14.96Q140.62 16.39 140.62 19.15L140.62 19.15Q140.62 21.67 139.75 24.11Q138.89 26.54 137.08 28.16Q135.26 29.78 132.58 29.78L132.58 29.78ZM132.50 27.50Q133.94 27.50 135.11 26.18Q136.27 24.86 136.91 22.85Q137.54 20.83 137.54 18.84L137.54 18.84Q137.54 16.13 135.29 16.13L135.29 16.13Q133.97 16.13 132.84 17.41Q131.71 18.70 131.05 20.58Q130.39 22.46 130.39 24.10L130.39 24.10Q130.39 25.80 130.93 26.65Q131.47 27.50 132.50 27.50L132.50 27.50ZM149.83 18.31Q149.76 18.24 149.76 18.14L149.76 18.14Q149.76 17.90 150.29 17.75Q150.82 17.59 151.75 17.59L151.75 17.59Q152.62 17.59 153.02 18.04Q153.43 18.48 153.50 19.10L153.50 19.10L153.07 20.66Q153.58 19.97 154.49 19.33Q155.40 18.70 156.34 18.31Q157.27 17.93 157.87 17.93L157.87 17.93Q159.14 17.93 159.72 18.40Q160.30 18.86 160.30 19.87L160.30 19.87Q158.88 23.57 158.42 27.84L158.42 27.84L158.76 29.02Q158.47 29.57 157.96 29.89Q157.44 30.22 156.46 30.22L156.46 30.22Q155.88 30.22 155.62 29.83Q155.35 29.45 155.35 28.87L155.35 28.87Q155.35 27.26 155.82 25.33Q156.29 23.40 156.91 21.38L156.91 21.38Q157.15 20.62 157.15 20.59L157.15 20.59Q157.15 20.26 156.77 20.26L156.77 20.26Q156.24 20.26 155.17 21Q154.10 21.74 152.98 23.51Q151.85 25.27 151.15 28.13L151.15 28.13Q151.10 28.27 151.03 28.66Q150.96 29.04 150.65 29.20Q150.34 29.35 149.64 29.35L149.64 29.35Q148.85 29.35 148.48 29.18Q148.10 29.02 148.10 28.46L148.10 28.46Q148.18 28.13 148.32 27.65L148.32 27.65Q149.71 22.06 150.46 19.03L150.46 19.03L149.83 18.31ZM165.86 29.78Q163.75 29.78 162.58 28.34Q161.40 26.90 161.40 24.67L161.40 24.67Q161.40 22.80 162.30 21.14Q163.20 19.49 164.76 18.48Q166.32 17.47 168.19 17.47L168.19 17.47Q170.04 17.47 171.23 18.68Q172.42 19.90 172.42 22.25L172.42 22.25Q172.42 23.90 171.50 25.68Q170.59 27.46 169.07 28.62Q167.54 29.78 165.86 29.78L165.86 29.78ZM166.22 27.86Q166.99 27.86 167.77 26.90Q168.55 25.94 169.06 24.48Q169.56 23.02 169.56 21.62L169.56 21.62Q169.56 19.49 167.78 19.49L167.78 19.49Q166.80 19.49 165.98 20.42Q165.17 21.36 164.69 22.74Q164.21 24.12 164.21 25.32L164.21 25.32Q164.21 26.02 164.52 26.60Q164.83 27.19 165.30 27.53Q165.77 27.86 166.22 27.86L166.22 27.86ZM176.23 28.37Q176.21 28.51 176.12 28.93Q176.04 29.35 175.72 29.52Q175.39 29.69 174.70 29.69L174.70 29.69Q173.90 29.69 173.54 29.52Q173.18 29.35 173.18 28.80L173.18 28.80L174.34 24.22Q175.30 20.26 175.61 19.18L175.61 19.18L175.01 18.46Q174.94 18.38 174.94 18.29L174.94 18.29Q174.94 18.05 175.46 17.89Q175.99 17.74 176.93 17.74L176.93 17.74Q177.77 17.74 178.06 18.20Q178.34 18.67 178.42 19.42L178.42 19.42L178.25 20.04Q179.02 19.10 180.04 18.49Q181.06 17.88 181.85 17.88L181.85 17.88Q182.88 17.88 183.46 18.24Q184.03 18.60 184.03 19.18L184.03 19.18Q184.03 19.68 183.68 20.22Q183.34 20.76 182.81 21.13Q182.28 21.50 181.78 21.55L181.78 21.55Q181.30 21.55 181.13 21.43Q180.96 21.31 180.96 21.07L180.96 21.07L181.10 20.28Q179.18 20.81 177.62 22.82L177.62 22.82L176.23 28.37ZM184.63 18.31Q184.56 18.24 184.56 18.14L184.56 18.14Q184.56 17.90 185.09 17.75Q185.62 17.59 186.55 17.59L186.55 17.59Q187.39 17.59 187.68 18.06Q187.97 18.53 188.04 19.27L188.04 19.27Q187.99 19.46 187.94 19.80L187.94 19.80L187.82 20.38Q188.52 19.56 189.89 18.78Q191.26 18 192.02 18L192.02 18Q193.22 18 193.69 18.42Q194.16 18.84 194.23 20.02L194.23 20.02Q195.12 19.18 196.27 18.59Q197.42 18 198.29 18L198.29 18Q199.20 18 199.97 18.37Q200.74 18.74 200.74 19.56L200.74 19.56Q200.74 19.78 200.71 19.90L200.71 19.90Q200.64 20.28 200.44 20.96Q200.23 21.65 200.14 21.96L200.14 21.96Q199.54 23.90 199.21 25.24Q198.89 26.57 198.82 27.84L198.82 27.84L199.15 29.02Q198.86 29.57 198.35 29.89Q197.83 30.22 196.85 30.22L196.85 30.22Q196.27 30.22 196.01 29.83Q195.74 29.45 195.74 28.87L195.74 28.87Q195.74 28.75 195.77 28.61Q195.79 28.46 195.79 28.34L195.79 28.34Q195.84 27 196.19 25.62Q196.54 24.24 197.09 22.51L197.09 22.51Q197.59 21 197.59 20.66L197.59 20.66Q197.59 20.52 197.56 20.36Q197.52 20.21 197.47 20.21L197.47 20.21Q196.92 20.21 195.66 20.74Q194.40 21.26 193.97 21.79L193.97 21.79Q193.51 23.26 192.46 27.89L192.46 27.89L192.31 28.56Q192.19 29.18 192.08 29.42Q191.98 29.66 191.66 29.78Q191.35 29.90 190.66 29.90L190.66 29.90Q189.00 29.90 189.00 29.23L189.00 29.23Q189.19 28.70 190.06 25.18L190.06 25.18Q190.58 22.99 191.26 20.35L191.26 20.35Q191.11 20.42 190.73 20.57L190.73 20.57Q189.58 21.02 188.72 21.50Q187.87 21.98 187.34 22.63L187.34 22.63L186.72 25.18Q186.58 25.75 186.46 26.24Q186.34 26.74 186.24 27.07L186.24 27.07Q186.12 27.48 186.07 28.18L186.07 28.18Q186.02 28.66 185.94 28.87Q185.86 29.09 185.53 29.22Q185.21 29.35 184.51 29.35L184.51 29.35Q183.72 29.35 183.31 29.18Q182.90 29.02 182.90 28.46L182.90 28.46Q182.90 28.20 183.52 25.66Q184.13 23.11 185.18 19.03L185.18 19.03L184.63 18.31ZM210.89 28.03Q210.94 28.66 211.06 29.16L211.06 29.16Q211.01 29.30 210.64 29.45Q210.26 29.59 210 29.59L210 29.59Q209.14 29.59 208.76 29.34Q208.39 29.09 208.39 28.58L208.39 28.58Q208.39 28.10 208.49 27.62L208.49 27.62Q207.96 28.34 206.94 28.81Q205.92 29.28 205.30 29.28L205.30 29.28Q203.69 29.28 202.62 28.34Q201.55 27.41 201.55 25.34L201.55 25.34Q201.55 23.40 202.48 21.68Q203.40 19.97 205.03 18.92Q206.66 17.88 208.66 17.88L208.66 17.88Q209.04 17.88 209.66 18.08Q210.29 18.29 210.92 18.78Q211.56 19.27 211.99 20.04L211.99 20.04Q212.18 20.04 212.45 20.23Q212.71 20.42 212.71 20.62L212.71 20.62Q212.71 20.83 212.64 21.05L212.64 21.05L210.89 28.03ZM209.81 21.31Q209.66 20.78 209.24 20.42Q208.82 20.06 208.49 20.06L208.49 20.06Q207.38 20.06 206.41 20.84Q205.44 21.62 204.84 22.78Q204.24 23.93 204.24 24.96L204.24 24.96Q204.24 25.97 204.48 26.62Q204.72 27.26 205.42 27.26L205.42 27.26Q206.02 27.26 206.80 26.90Q207.58 26.54 208.19 25.93Q208.80 25.32 208.99 24.65L208.99 24.65L209.81 21.31ZM220.56 12.07L219.55 16.22Q216.84 27.62 216.36 29.26L216.36 29.26Q216.31 29.40 215.87 29.63Q215.42 29.86 215.26 29.86L215.26 29.86Q214.58 29.86 213.96 29.52Q213.34 29.18 213.29 28.44L213.29 28.44Q213.31 28.39 213.53 27.94Q213.74 27.48 213.96 26.64L213.96 26.64Q214.51 24.58 215.22 21.74Q215.93 18.91 216.17 17.95L216.17 17.95L217.30 13.37Q217.27 13.18 217.27 11.38L217.27 11.38Q217.34 11.06 217.81 10.87Q218.28 10.68 218.66 10.68L218.66 10.68Q219.26 10.68 219.90 11.09Q220.54 11.50 220.56 12.07L220.56 12.07Z"/></svg>