<svg xmlns="http://www.w3.org/2000/svg" xmlns:xlink="http://www.w3.org/1999/xlink" width="254.4140625" height="31.1953125"><path fill="black" d="M8.04 22.92L8.04 22.92Q6.49 22.92 5.14 22.31Q3.80 21.70 2.77 20.65Q1.73 19.59 1.16 18.20Q0.59 16.80 0.59 15.23L0.59 15.23Q0.59 13.57 1.17 12.11Q1.76 10.64 2.81 9.53Q3.87 8.41 5.27 7.78Q6.68 7.15 8.30 7.15L8.30 7.15Q10.95 7.15 13.83 7.78L13.83 7.78Q13.88 7.78 13.91 8.24Q13.95 8.70 13.97 9.32Q13.99 9.94 14.02 10.48Q14.04 11.02 14.04 11.20L14.04 11.20Q14.04 11.55 13.48 11.55L13.48 11.55Q13.31 11.55 13.15 11.46L13.15 11.46Q13.05 11.04 12.81 10.59Q12.56 10.15 12.07 9.59L12.07 9.59Q11.58 9.02 10.62 8.66Q9.66 8.30 8.39 8.30L8.39 8.30Q6.87 8.30 5.78 9.18Q4.69 10.05 4.11 11.51Q3.54 12.96 3.54 14.74L3.54 14.74Q3.54 16.71 4.18 18.30Q4.83 19.90 6.07 20.85Q7.31 21.80 9.05 21.80L9.05 21.80Q11.11 21.80 12.35 20.48L12.35 20.48Q12.73 20.09 12.93 19.58Q13.13 19.08 13.24 18.69Q13.36 18.30 13.45 18.30L13.45 18.30Q14.27 18.30 14.37 18.52L14.37 18.52Q14.37 18.66 14.26 19.18Q14.16 19.71 14.02 20.33Q13.88 20.95 13.72 21.42Q13.57 21.89 13.48 21.94L13.48 21.94Q11.44 22.92 8.04 22.92ZM15.73 22.88L15.73 22.88Q15.63 22.78 15.63 22.43L15.63 22.43Q15.63 22.08 15.73 22.08L15.73 22.08Q15.91 22.08 16.25 22.00Q16.59 21.91 16.89 21.79Q17.18 21.66 17.20 21.56L17.20 21.56Q17.37 20.91 17.37 19.85L17.37 19.85L17.37 16.03Q17.37 14.91 16.99 14.53L16.99 14.53Q16.78 14.27 16.48 14.17Q16.17 14.06 15.93 14.04Q15.68 14.02 15.68 13.97L15.68 13.97Q15.68 13.31 15.80 13.27L15.80 13.27Q16.48 13.22 17.29 13.04Q18.09 12.87 19.17 12.66L19.17 12.66Q19.52 12.59 19.63 12.55Q19.73 12.52 19.76 12.52L19.76 12.52Q19.85 12.52 19.92 12.67Q19.99 12.82 19.99 12.94L19.99 12.94Q19.85 13.92 19.85 14.06L19.85 14.06Q20.27 13.43 21 12.93Q21.73 12.42 22.48 12.42L22.48 12.42Q23.77 12.42 24.40 13.20L24.40 13.20Q24.40 15.19 23.27 15.19L23.27 15.19Q22.88 15.19 22.36 14.72L22.36 14.72Q21.84 14.25 21.35 14.25L21.35 14.25Q20.86 14.25 20.51 14.60Q20.16 14.95 19.98 15.47Q19.80 15.98 19.80 16.52L19.80 16.52L19.80 19.45Q19.80 20.93 19.97 21.56L19.97 21.56Q20.02 21.66 20.30 21.79Q20.58 21.91 20.91 22.00Q21.23 22.08 21.38 22.08L21.38 22.08Q21.45 22.08 21.46 22.42Q21.47 22.76 21.45 22.88L21.45 22.88Q21.33 22.85 20.78 22.82Q20.23 22.78 19.61 22.75Q18.98 22.71 18.61 22.71L18.61 22.71Q18.23 22.71 17.60 22.75Q16.97 22.78 16.42 22.82Q15.87 22.85 15.73 22.88ZM25.69 22.85L25.69 22.85Q25.59 22.76 25.59 22.41L25.59 22.41Q25.59 22.08 25.69 22.08L25.69 22.08Q25.88 22.08 26.18 21.98Q26.48 21.89 26.75 21.75Q27.02 21.61 27.05 21.52L27.05 21.52Q27.14 21.12 27.19 20.67Q27.23 20.23 27.23 19.78L27.23 19.78L27.23 16.01Q27.23 14.91 26.86 14.51L26.86 14.51Q26.65 14.25 26.33 14.16Q26.02 14.06 25.77 14.04Q25.52 14.02 25.52 13.97L25.52 13.97Q25.52 13.27 25.64 13.27L25.64 13.27Q26.39 13.17 27.29 13.00Q28.20 12.82 28.92 12.66L28.92 12.66L29.67 12.47Q29.84 12.47 29.84 12.94L29.84 12.94Q29.84 13.24 29.75 13.82Q29.67 14.39 29.67 14.95L29.67 14.95L29.67 19.41Q29.67 20.88 29.84 21.52L29.84 21.52Q29.88 21.61 30.14 21.75Q30.40 21.89 30.70 21.98Q31.01 22.08 31.13 22.08L31.13 22.08Q31.20 22.08 31.21 22.41Q31.22 22.73 31.17 22.85L31.17 22.85Q30.45 22.80 29.70 22.76Q28.95 22.71 28.45 22.71L28.45 22.71Q27.73 22.71 26.96 22.76Q26.20 22.80 25.69 22.85ZM28.27 10.03L28.27 10.03Q27.68 10.03 27.26 9.61Q26.84 9.19 26.84 8.60L26.84 8.60Q26.84 8.02 27.26 7.61Q27.68 7.20 28.27 7.20L28.27 7.20Q28.85 7.20 29.26 7.61Q29.67 8.02 29.67 8.60L29.67 8.60Q29.67 9.19 29.26 9.61Q28.85 10.03 28.27 10.03ZM32.44 22.88L32.44 22.88Q32.34 22.78 32.34 22.43L32.34 22.43Q32.34 22.08 32.44 22.08L32.44 22.08Q32.63 22.08 32.96 22.00Q33.30 21.91 33.60 21.79Q33.89 21.66 33.91 21.56L33.91 21.56Q34.08 20.91 34.08 19.85L34.08 19.85L34.08 16.03Q34.08 14.91 33.70 14.53L33.70 14.53Q33.45 14.25 33.13 14.16Q32.81 14.06 32.59 14.04Q32.37 14.02 32.37 13.97L32.37 13.97Q32.37 13.29 32.51 13.27L32.51 13.27Q33.05 13.22 33.97 13.05Q34.90 12.89 35.95 12.63L35.95 12.63Q36.42 12.52 36.45 12.52L36.45 12.52Q36.56 12.52 36.63 12.68Q36.70 12.84 36.68 12.94L36.68 12.94Q36.63 13.27 36.61 13.48Q36.59 13.69 36.59 13.78L36.59 13.78Q36.59 13.90 36.63 13.90L36.63 13.90Q36.68 13.90 36.75 13.83L36.75 13.83Q37.31 13.27 38.19 12.84Q39.07 12.42 39.98 12.42L39.98 12.42Q40.88 12.42 41.51 12.88Q42.14 13.34 42.45 14.06L42.45 14.06Q43.13 13.36 44.16 12.89Q45.19 12.42 46.36 12.42L46.36 12.42Q47.48 12.42 48.14 13.04Q48.80 13.66 49.09 14.71Q49.38 15.75 49.38 16.99L49.38 16.99L49.38 19.45Q49.38 20.93 49.55 21.56L49.55 21.56Q49.59 21.66 49.89 21.79Q50.18 21.91 50.51 22.00Q50.84 22.08 50.98 22.08L50.98 22.08Q51.05 22.08 51.06 22.42Q51.07 22.76 51.02 22.88L51.02 22.88Q50.93 22.85 50.38 22.82Q49.83 22.78 49.20 22.75Q48.56 22.71 48.19 22.71L48.19 22.71Q47.81 22.71 47.19 22.75Q46.57 22.78 46.02 22.82Q45.47 22.85 45.33 22.88L45.33 22.88Q45.26 22.76 45.26 22.43L45.26 22.43Q45.26 22.08 45.33 22.08L45.33 22.08Q45.52 22.08 45.84 22.00Q46.17 21.91 46.46 21.79Q46.76 21.66 46.78 21.56L46.78 21.56Q46.95 20.91 46.95 19.92L46.95 19.92L46.95 17.53Q46.95 14.13 44.77 14.13L44.77 14.13Q43.99 14.13 43.50 14.51Q43.01 14.88 42.89 15.23L42.89 15.23Q42.89 15.54 42.91 15.76Q42.94 15.98 42.94 16.64L42.94 16.64L42.94 19.55Q42.94 20.20 42.97 20.72Q43.01 21.23 43.10 21.56L43.10 21.56Q43.15 21.66 43.44 21.79Q43.73 21.91 44.06 22.00Q44.39 22.08 44.53 22.08L44.53 22.08Q44.60 22.08 44.61 22.42Q44.63 22.76 44.58 22.88L44.58 22.88Q44.48 22.85 43.93 22.82Q43.38 22.78 42.75 22.75Q42.12 22.71 41.74 22.71L41.74 22.71Q41.37 22.71 40.75 22.75Q40.13 22.78 39.57 22.82Q39.02 22.85 38.88 22.88L38.88 22.88Q38.81 22.76 38.81 22.43L38.81 22.43Q38.81 22.08 38.88 22.08L38.88 22.08Q39.07 22.08 39.40 22.00Q39.73 21.91 40.02 21.79Q40.31 21.66 40.34 21.56L40.34 21.56Q40.50 20.91 40.50 19.85L40.50 19.85L40.50 17.60Q40.50 15.77 39.96 14.95Q39.42 14.13 38.37 14.13L38.37 14.13Q37.66 14.13 37.08 14.53Q36.49 14.93 36.49 15.42L36.49 15.42L36.49 19.45Q36.49 20.86 36.68 21.56L36.68 21.56Q36.73 21.66 37.01 21.79Q37.29 21.91 37.61 22.00Q37.92 22.08 38.06 22.08L38.06 22.08Q38.16 22.08 38.17 22.42Q38.18 22.76 38.13 22.88L38.13 22.88Q38.02 22.85 37.46 22.82Q36.91 22.78 36.30 22.75Q35.70 22.71 35.32 22.71L35.32 22.71Q34.95 22.71 34.30 22.75Q33.66 22.78 33.12 22.82Q32.58 22.85 32.44 22.88ZM55.50 23.02L55.50 23.02Q54.02 23.02 52.48 22.36L52.48 22.36Q52.41 22.08 52.32 21.56Q52.24 21.05 52.18 20.52Q52.13 19.99 52.13 19.71L52.13 19.71Q52.29 19.59 52.45 19.59L52.45 19.59Q52.97 19.59 53.02 19.78L53.02 19.78Q53.20 20.77 53.94 21.36Q54.68 21.96 55.55 21.96L55.55 21.96Q56.20 21.96 56.63 21.62Q57.05 21.28 57.05 20.60L57.05 20.60Q57.05 20.11 56.67 19.70Q56.30 19.29 55.97 19.13L55.97 19.13L54.42 18.30Q53.34 17.74 52.76 17.05Q52.17 16.36 52.17 15.38L52.17 15.38Q52.17 14.41 52.70 13.76Q53.23 13.10 54.08 12.75Q54.94 12.40 55.92 12.40L55.92 12.40Q57.19 12.40 58.64 12.80L58.64 12.80Q58.76 13.31 58.82 13.97Q58.88 14.63 58.90 15.42L58.90 15.42Q58.90 15.61 58.59 15.61L58.59 15.61Q58.08 15.61 58.03 15.42L58.03 15.42Q57.87 14.60 57.34 14.03Q56.81 13.45 55.92 13.45L55.92 13.45Q55.24 13.45 54.86 13.76Q54.47 14.06 54.47 14.63L54.47 14.63Q54.47 15.23 54.94 15.66Q55.41 16.08 56.20 16.48L56.20 16.48Q56.81 16.78 57.39 17.13Q57.96 17.48 58.48 17.91L58.48 17.91Q59.39 18.63 59.39 19.83L59.39 19.83Q59.39 20.81 58.86 21.53Q58.34 22.24 57.46 22.63Q56.58 23.02 55.50 23.02ZM66.28 22.95L66.28 22.95Q64.80 22.95 63.60 22.23Q62.39 21.52 61.68 20.32Q60.96 19.13 60.96 17.67L60.96 17.67Q60.96 16.20 61.66 15.01Q62.37 13.83 63.57 13.13Q64.78 12.42 66.26 12.42L66.26 12.42Q67.73 12.42 68.94 13.13Q70.15 13.83 70.86 15.02Q71.58 16.22 71.58 17.67L71.58 17.67Q71.58 19.13 70.88 20.32Q70.17 21.52 68.98 22.23Q67.78 22.95 66.28 22.95ZM66.52 21.84L66.52 21.84Q67.27 21.84 67.78 21.35Q68.30 20.86 68.58 20.03Q68.86 19.20 68.86 18.23L68.86 18.23Q68.86 16.97 68.52 15.90Q68.18 14.84 67.54 14.18Q66.89 13.52 65.95 13.52L65.95 13.52Q65.23 13.52 64.70 14.02Q64.17 14.51 63.90 15.33Q63.63 16.15 63.63 17.13L63.63 17.13Q63.63 18.40 63.97 19.46Q64.31 20.53 64.97 21.19Q65.63 21.84 66.52 21.84ZM72.96 22.88L72.96 22.88Q72.87 22.78 72.87 22.43L72.87 22.43Q72.87 22.08 72.96 22.08L72.96 22.08Q73.15 22.08 73.49 22.00Q73.83 21.91 74.12 21.79Q74.41 21.66 74.44 21.56L74.44 21.56Q74.60 20.91 74.60 19.85L74.60 19.85L74.60 16.03Q74.60 14.98 74.23 14.53L74.23 14.53Q74.02 14.27 73.70 14.19Q73.38 14.11 73.15 14.07Q72.91 14.04 72.91 13.97L72.91 13.97Q72.91 13.31 73.03 13.27L73.03 13.27Q73.57 13.22 74.61 13.03Q75.66 12.84 76.57 12.61L76.57 12.61Q76.62 12.59 76.79 12.55Q76.97 12.52 76.99 12.52L76.99 12.52Q77.09 12.52 77.16 12.68Q77.23 12.84 77.23 12.94L77.23 12.94Q77.18 13.27 77.16 13.48Q77.13 13.69 77.13 13.78L77.13 13.78Q77.13 13.90 77.18 13.90L77.18 13.90Q77.20 13.90 77.27 13.83L77.27 13.83Q77.84 13.27 78.71 12.84Q79.59 12.42 80.51 12.42L80.51 12.42Q83.53 12.42 83.53 17.23L83.53 17.23L83.53 19.45Q83.53 20.93 83.70 21.56L83.70 21.56Q83.74 21.66 84.04 21.79Q84.33 21.91 84.67 22.00Q85.01 22.08 85.15 22.08L85.15 22.08Q85.22 22.08 85.23 22.42Q85.24 22.76 85.20 22.88L85.20 22.88Q85.10 22.85 84.55 22.82Q84 22.78 83.36 22.75Q82.71 22.71 82.34 22.71L82.34 22.71Q81.96 22.71 81.36 22.75Q80.77 22.78 80.24 22.82Q79.71 22.85 79.57 22.88L79.57 22.88Q79.48 22.78 79.48 22.43L79.48 22.43Q79.48 22.08 79.57 22.08L79.57 22.08Q79.76 22.08 80.06 22.00Q80.37 21.91 80.64 21.79Q80.91 21.66 80.93 21.56L80.93 21.56Q81.02 21.21 81.07 20.79Q81.12 20.37 81.12 19.85L81.12 19.85L81.12 17.63Q81.12 15.68 80.59 14.91Q80.06 14.13 78.91 14.13L78.91 14.13Q78.16 14.13 77.60 14.54Q77.04 14.95 77.04 15.42L77.04 15.42L77.04 19.45Q77.04 20.93 77.20 21.56L77.20 21.56Q77.25 21.66 77.53 21.79Q77.81 21.91 78.14 22.00Q78.47 22.08 78.59 22.08L78.59 22.08Q78.68 22.08 78.69 22.42Q78.70 22.76 78.66 22.88L78.66 22.88Q78.54 22.85 77.99 22.82Q77.44 22.78 76.83 22.75Q76.22 22.71 75.84 22.71L75.84 22.71Q75.47 22.71 74.84 22.75Q74.20 22.78 73.65 22.82Q73.10 22.85 72.96 22.88ZM95.48 22.88L95.48 22.88Q95.39 22.78 95.39 22.50L95.39 22.50Q95.39 22.08 95.48 22.08L95.48 22.08Q95.67 22.08 96.02 22.01Q96.38 21.94 96.68 21.81Q96.98 21.68 97.03 21.56L97.03 21.56Q97.22 20.88 97.22 19.62L97.22 19.62L97.22 11.13Q97.22 9.16 97.01 8.86L97.01 8.86Q96.82 8.46 94.78 8.46L94.78 8.46Q93.63 8.46 93.09 8.92Q92.55 9.38 92.20 10.64L92.20 10.64Q92.18 10.78 91.97 10.78L91.97 10.78Q91.55 10.78 91.36 10.59L91.36 10.59L91.80 7.03Q92.32 7.15 92.72 7.21Q93.12 7.27 93.42 7.27L93.42 7.27Q95.53 7.31 96.81 7.35Q98.09 7.38 98.80 7.39Q99.52 7.41 99.87 7.41Q100.22 7.41 100.44 7.39Q100.66 7.38 100.97 7.37Q101.27 7.36 101.91 7.32Q102.54 7.29 103.71 7.27L103.71 7.27Q104.02 7.27 104.41 7.21Q104.81 7.15 105.33 7.03L105.33 7.03L105.77 10.62Q105.61 10.78 105.14 10.78L105.14 10.78Q104.95 10.78 104.91 10.66L104.91 10.66Q104.58 9.38 104.04 8.92Q103.50 8.46 102.35 8.46L102.35 8.46Q100.20 8.46 100.08 8.86L100.08 8.86Q99.87 9.52 99.87 11.06L99.87 11.06L99.87 19.52Q99.87 20.79 100.08 21.56L100.08 21.56Q100.10 21.66 100.39 21.79Q100.69 21.91 101.04 22.00Q101.39 22.08 101.53 22.08L101.53 22.08Q101.63 22.08 101.63 22.50L101.63 22.50Q101.63 22.62 101.61 22.71Q101.60 22.80 101.58 22.88L101.58 22.88Q100.71 22.80 99.98 22.76Q99.26 22.71 98.60 22.71L98.60 22.71Q98.18 22.71 97.51 22.75Q96.84 22.78 96.26 22.82Q95.67 22.85 95.48 22.88ZM110.06 22.92L110.06 22.92Q108.70 22.92 107.57 22.23Q106.43 21.54 105.75 20.36Q105.07 19.17 105.07 17.74L105.07 17.74Q105.07 16.15 105.70 14.95Q106.34 13.76 107.43 13.09Q108.52 12.42 109.92 12.42L109.92 12.42Q111.07 12.42 111.89 12.84Q112.71 13.27 113.24 13.93Q113.77 14.60 114.01 15.34Q114.26 16.08 114.26 16.71L114.26 16.71Q114.26 17.23 114.08 17.36Q113.91 17.48 113.37 17.48L113.37 17.48L107.77 17.48Q107.60 17.48 107.60 17.63L107.60 17.63Q107.60 18.49 107.91 19.27L107.91 19.27Q108.21 20.06 108.95 20.65Q109.69 21.23 110.72 21.23L110.72 21.23Q111.33 21.23 111.73 21.14Q112.13 21.05 112.50 20.93L112.50 20.93Q112.69 20.86 112.97 20.68Q113.25 20.51 113.48 20.36Q113.72 20.20 113.72 20.20L113.72 20.20Q113.77 20.23 113.84 20.34Q113.91 20.46 113.91 20.58L113.91 20.58Q113.91 20.84 113.77 21.02L113.77 21.02Q113.53 21.45 112.98 21.88Q112.43 22.31 111.68 22.62Q110.93 22.92 110.06 22.92ZM107.77 16.36L107.77 16.36L111.56 16.36Q111.77 16.36 111.77 16.01L111.77 16.01Q111.77 15.45 111.53 14.87Q111.28 14.30 110.82 13.90Q110.37 13.50 109.76 13.50L109.76 13.50Q109.03 13.50 108.55 13.99Q108.07 14.48 107.85 15.12Q107.63 15.75 107.63 16.20L107.63 16.20Q107.63 16.36 107.77 16.36ZM115.45 22.88L115.45 22.88Q115.43 22.78 115.42 22.68Q115.41 22.57 115.41 22.48L115.41 22.48Q115.41 22.08 115.50 22.08L115.50 22.08Q117.02 21.82 117.54 21.19L117.54 21.19L119.88 18.33Q120.09 18.05 120.09 17.98L120.09 17.98Q120.09 17.88 120.02 17.79L120.02 17.79L117.33 14.13Q117.07 13.78 116.51 13.54Q115.95 13.29 115.55 13.29L115.55 13.29Q115.45 13.29 115.45 12.89L115.45 12.89Q115.45 12.63 115.55 12.52L115.55 12.52L118.31 12.66L121.13 12.52Q121.17 12.66 121.17 12.84L121.17 12.84Q121.17 13.27 121.08 13.27L121.08 13.27Q120.77 13.27 120.43 13.38Q120.09 13.50 120.09 13.76L120.09 13.76Q120.09 13.85 120.21 14.04L120.21 14.04L121.69 16.13Q122.37 15.16 122.80 14.60Q123.23 14.04 123.23 13.73L123.23 13.73Q123.23 13.50 122.93 13.41Q122.63 13.31 122.30 13.30Q121.97 13.29 121.88 13.27L121.88 13.27Q121.78 13.24 121.78 12.89L121.78 12.89Q121.78 12.61 121.88 12.52L121.88 12.52L124.59 12.66L127.03 12.52Q127.05 12.61 127.07 12.69Q127.08 12.77 127.08 12.89L127.08 12.89Q127.08 13.27 127.03 13.27L127.03 13.27Q125.44 13.45 124.97 14.02L124.97 14.02L122.65 16.73Q122.48 16.90 122.46 16.98Q122.44 17.06 122.44 17.13L122.44 17.13Q122.44 17.20 122.53 17.34L122.53 17.34L125.18 20.98Q125.88 21.94 127.13 22.13L127.13 22.13Q127.20 22.13 127.20 22.52L127.20 22.52Q127.20 22.76 127.10 22.88L127.10 22.88Q126.52 22.83 126.11 22.79Q125.70 22.76 125.33 22.73Q124.97 22.71 124.45 22.71L124.45 22.71Q123.61 22.71 122.95 22.77Q122.30 22.83 121.55 22.88L121.55 22.88Q121.52 22.80 121.51 22.71Q121.50 22.62 121.50 22.48L121.50 22.48Q121.50 22.08 121.57 22.08L121.57 22.08Q121.90 22.08 122.25 21.91Q122.60 21.75 122.60 21.54L122.60 21.54Q122.60 21.47 122.54 21.39Q122.48 21.30 122.44 21.21L122.44 21.21L120.87 19.03L119.39 21.09Q119.23 21.28 119.23 21.52L119.23 21.52Q119.23 21.80 119.58 21.89L119.58 21.89Q119.91 21.98 120.23 22.03Q120.56 22.08 120.61 22.08L120.61 22.08Q120.68 22.08 120.68 22.48L120.68 22.48Q120.68 22.78 120.59 22.88L120.59 22.88Q120 22.83 119.63 22.79Q119.25 22.76 118.90 22.73Q118.55 22.71 118.03 22.71L118.03 22.71Q117.30 22.71 116.71 22.77Q116.11 22.83 115.45 22.88ZM132.89 22.95L132.89 22.95Q131.67 22.95 130.82 22.16Q129.96 21.38 129.96 19.73L129.96 19.73L129.96 14.06L128.53 14.06Q128.37 14.06 128.37 13.45L128.37 13.45Q128.37 13.27 128.39 13.24L128.39 13.24Q128.86 13.03 129.30 12.71Q129.75 12.40 130.20 12L130.20 12Q130.88 11.32 131.30 10.82Q131.72 10.31 131.72 10.31L131.72 10.31Q131.84 10.31 131.95 10.32Q132.07 10.34 132.16 10.36L132.16 10.36Q132.38 10.43 132.38 10.50L132.38 10.50L132.38 12.80L134.09 12.80Q134.63 12.80 134.92 12.81Q135.21 12.82 135.23 12.82L135.23 12.82Q135.42 12.82 135.42 13.03L135.42 13.03Q135.42 13.62 135.19 14.06L135.19 14.06L132.38 14.06L132.38 19.71Q132.38 20.65 132.77 21.14Q133.17 21.63 133.88 21.63L133.88 21.63Q134.37 21.63 134.79 21.43Q135.21 21.23 135.26 21.23L135.26 21.23Q135.35 21.21 135.47 21.45Q135.59 21.68 135.56 21.75L135.56 21.75Q135.47 21.96 135.04 22.24Q134.60 22.52 134.03 22.73Q133.45 22.95 132.89 22.95ZM147 22.92L147 22.92Q145.71 22.92 144.63 22.27Q143.55 21.61 142.92 20.48Q142.29 19.36 142.29 17.98L142.29 17.98Q142.29 16.13 143.04 14.44Q143.79 12.75 145.05 11.46L145.05 11.46Q146.30 10.17 147.74 9.22Q149.18 8.27 150.77 7.64L150.77 7.64Q150.96 7.66 151.09 7.90Q151.22 8.13 151.24 8.34L151.24 8.34Q149.11 9.28 147.55 10.77Q145.99 12.26 145.41 14.25L145.41 14.25Q145.31 14.51 145.43 14.60L145.43 14.60L145.48 14.58Q145.78 14.41 146.39 14.21Q147 14.02 147.52 14.02L147.52 14.02Q148.69 14.02 149.64 14.63Q150.59 15.23 151.15 16.22Q151.71 17.20 151.71 18.33L151.71 18.33Q151.71 19.55 151.05 20.60Q150.40 21.66 149.33 22.29Q148.27 22.92 147 22.92ZM147.14 21.84L147.14 21.84Q148.08 21.84 148.62 21.02Q149.16 20.20 149.16 18.66L149.16 18.66Q149.16 17.09 148.55 16.16Q147.94 15.23 146.65 15.23L146.65 15.23Q146.16 15.23 145.71 15.48Q145.27 15.73 145.15 16.08L145.15 16.08Q145.03 16.43 144.97 16.93Q144.91 17.44 144.89 18.09L144.89 18.09Q144.89 19.73 145.50 20.79Q146.11 21.84 147.14 21.84ZM158.84 22.85L158.84 22.85Q157.78 22.85 156.82 22.27Q155.86 21.68 155.12 20.65Q154.38 19.62 153.96 18.27Q153.54 16.92 153.54 15.40L153.54 15.40Q153.54 13.88 153.96 12.53Q154.38 11.18 155.12 10.15Q155.86 9.12 156.82 8.53Q157.78 7.95 158.84 7.95L158.84 7.95Q159.89 7.95 160.83 8.53Q161.77 9.12 162.50 10.15Q163.24 11.18 163.65 12.53Q164.06 13.88 164.06 15.40L164.06 15.40Q164.06 16.92 163.65 18.27Q163.24 19.62 162.50 20.65Q161.77 21.68 160.83 22.27Q159.89 22.85 158.84 22.85ZM158.86 21.82L158.86 21.82Q160.05 21.82 160.71 19.97L160.71 19.97Q161.37 18.14 161.37 15.26L161.37 15.26Q161.37 12.54 160.69 10.71L160.69 10.71Q159.98 8.95 158.86 8.95L158.86 8.95Q157.73 8.95 156.98 10.76L156.98 10.76Q156.26 12.56 156.26 15.38L156.26 15.38Q156.26 18.07 157.01 19.97L157.01 19.97Q157.73 21.82 158.86 21.82ZM170.67 22.85L170.67 22.85Q169.62 22.85 168.66 22.27Q167.70 21.68 166.96 20.65Q166.22 19.62 165.80 18.27Q165.38 16.92 165.38 15.40L165.38 15.40Q165.38 13.88 165.80 12.53Q166.22 11.18 166.96 10.15Q167.70 9.12 168.66 8.53Q169.62 7.95 170.67 7.95L170.67 7.95Q171.73 7.95 172.66 8.53Q173.60 9.12 174.34 10.15Q175.08 11.18 175.49 12.53Q175.90 13.88 175.90 15.40L175.90 15.40Q175.90 16.92 175.49 18.27Q175.08 19.62 174.34 20.65Q173.60 21.68 172.66 22.27Q171.73 22.85 170.67 22.85ZM170.70 21.82L170.70 21.82Q171.89 21.82 172.55 19.97L172.55 19.97Q173.20 18.14 173.20 15.26L173.20 15.26Q173.20 12.54 172.52 10.71L172.52 10.71Q171.82 8.95 170.70 8.95L170.70 8.95Q169.57 8.95 168.82 10.76L168.82 10.76Q168.09 12.56 168.09 15.38L168.09 15.38Q168.09 18.07 168.84 19.97L168.84 19.97Q169.57 21.82 170.70 21.82ZM182.23 22.88L182.23 22.88Q182.13 22.78 182.13 22.43L182.13 22.43Q182.13 22.08 182.23 22.08L182.23 22.08Q182.41 22.08 182.75 22.00Q183.09 21.91 183.39 21.79Q183.68 21.66 183.70 21.56L183.70 21.56Q183.87 20.91 183.87 19.85L183.87 19.85L183.87 16.03Q183.87 14.98 183.49 14.53L183.49 14.53Q183.28 14.27 182.96 14.19Q182.65 14.11 182.41 14.07Q182.18 14.04 182.18 13.97L182.18 13.97Q182.18 13.31 182.30 13.27L182.30 13.27Q182.84 13.22 183.88 13.03Q184.92 12.84 185.84 12.61L185.84 12.61Q185.88 12.59 186.06 12.55Q186.23 12.52 186.26 12.52L186.26 12.52Q186.35 12.52 186.42 12.68Q186.49 12.84 186.49 12.94L186.49 12.94Q186.45 13.27 186.42 13.48Q186.40 13.69 186.40 13.78L186.40 13.78Q186.40 13.90 186.45 13.90L186.45 13.90Q186.47 13.90 186.54 13.83L186.54 13.83Q187.10 13.27 187.98 12.84Q188.86 12.42 189.77 12.42L189.77 12.42Q192.80 12.42 192.80 17.23L192.80 17.23L192.80 19.45Q192.80 20.93 192.96 21.56L192.96 21.56Q193.01 21.66 193.30 21.79Q193.59 21.91 193.93 22.00Q194.27 22.08 194.41 22.08L194.41 22.08Q194.48 22.08 194.50 22.42Q194.51 22.76 194.46 22.88L194.46 22.88Q194.37 22.85 193.82 22.82Q193.27 22.78 192.62 22.75Q191.98 22.71 191.60 22.71L191.60 22.71Q191.23 22.71 190.63 22.75Q190.03 22.78 189.50 22.82Q188.98 22.85 188.84 22.88L188.84 22.88Q188.74 22.78 188.74 22.43L188.74 22.43Q188.74 22.08 188.84 22.08L188.84 22.08Q189.02 22.08 189.33 22.00Q189.63 21.91 189.90 21.79Q190.17 21.66 190.20 21.56L190.20 21.56Q190.29 21.21 190.34 20.79Q190.38 20.37 190.38 19.85L190.38 19.85L190.38 17.63Q190.38 15.68 189.86 14.91Q189.33 14.13 188.18 14.13L188.18 14.13Q187.43 14.13 186.87 14.54Q186.30 14.95 186.30 15.42L186.30 15.42L186.30 19.45Q186.30 20.93 186.47 21.56L186.47 21.56Q186.52 21.66 186.80 21.79Q187.08 21.91 187.41 22.00Q187.73 22.08 187.85 22.08L187.85 22.08Q187.95 22.08 187.96 22.42Q187.97 22.76 187.92 22.88L187.92 22.88Q187.80 22.85 187.25 22.82Q186.70 22.78 186.09 22.75Q185.48 22.71 185.11 22.71L185.11 22.71Q184.73 22.71 184.10 22.75Q183.47 22.78 182.92 22.82Q182.37 22.85 182.23 22.88ZM201.12 22.95L201.12 22.95Q199.64 22.95 198.43 22.23Q197.23 21.52 196.51 20.32Q195.80 19.13 195.80 17.67L195.80 17.67Q195.80 16.20 196.50 15.01Q197.20 13.83 198.41 13.13Q199.62 12.42 201.09 12.42L201.09 12.42Q202.57 12.42 203.78 13.13Q204.98 13.83 205.70 15.02Q206.41 16.22 206.41 17.67L206.41 17.67Q206.41 19.13 205.71 20.32Q205.01 21.52 203.81 22.23Q202.62 22.95 201.12 22.95ZM201.35 21.84L201.35 21.84Q202.10 21.84 202.62 21.35Q203.13 20.86 203.41 20.03Q203.70 19.20 203.70 18.23L203.70 18.23Q203.70 16.97 203.36 15.90Q203.02 14.84 202.37 14.18Q201.73 13.52 200.79 13.52L200.79 13.52Q200.06 13.52 199.54 14.02Q199.01 14.51 198.74 15.33Q198.47 16.15 198.47 17.13L198.47 17.13Q198.47 18.40 198.81 19.46Q199.15 20.53 199.80 21.19Q200.46 21.84 201.35 21.84ZM207.80 22.88L207.80 22.88Q207.70 22.78 207.70 22.43L207.70 22.43Q207.70 22.08 207.80 22.08L207.80 22.08Q207.98 22.08 208.32 22.00Q208.66 21.91 208.96 21.79Q209.25 21.66 209.27 21.56L209.27 21.56Q209.44 20.91 209.44 19.85L209.44 19.85L209.44 16.03Q209.44 14.91 209.06 14.53L209.06 14.53Q208.85 14.27 208.55 14.17Q208.24 14.06 208.00 14.04Q207.75 14.02 207.75 13.97L207.75 13.97Q207.75 13.31 207.87 13.27L207.87 13.27Q208.55 13.22 209.36 13.04Q210.16 12.87 211.24 12.66L211.24 12.66Q211.59 12.59 211.70 12.55Q211.80 12.52 211.83 12.52L211.83 12.52Q211.92 12.52 211.99 12.67Q212.06 12.82 212.06 12.94L212.06 12.94Q211.92 13.92 211.92 14.06L211.92 14.06Q212.34 13.43 213.07 12.93Q213.80 12.42 214.55 12.42L214.55 12.42Q215.84 12.42 216.47 13.20L216.47 13.20Q216.47 15.19 215.34 15.19L215.34 15.19Q214.95 15.19 214.43 14.72L214.43 14.72Q213.91 14.25 213.42 14.25L213.42 14.25Q212.93 14.25 212.58 14.60Q212.23 14.95 212.05 15.47Q211.88 15.98 211.88 16.52L211.88 16.52L211.88 19.45Q211.88 20.93 212.04 21.56L212.04 21.56Q212.09 21.66 212.37 21.79Q212.65 21.91 212.98 22.00Q213.30 22.08 213.45 22.08L213.45 22.08Q213.52 22.08 213.53 22.42Q213.54 22.76 213.52 22.88L213.52 22.88Q213.40 22.85 212.85 22.82Q212.30 22.78 211.68 22.75Q211.05 22.71 210.68 22.71L210.68 22.71Q210.30 22.71 209.67 22.75Q209.04 22.78 208.49 22.82Q207.94 22.85 207.80 22.88ZM217.88 22.88L217.88 22.88Q217.78 22.78 217.78 22.43L217.78 22.43Q217.78 22.08 217.88 22.08L217.88 22.08Q218.06 22.08 218.40 22.00Q218.74 21.91 219.04 21.79Q219.33 21.66 219.35 21.56L219.35 21.56Q219.52 20.91 219.52 19.85L219.52 19.85L219.52 16.03Q219.52 14.91 219.14 14.53L219.14 14.53Q218.88 14.25 218.57 14.16Q218.25 14.06 218.03 14.04Q217.80 14.02 217.80 13.97L217.80 13.97Q217.80 13.29 217.95 13.27L217.95 13.27Q218.48 13.22 219.41 13.05Q220.34 12.89 221.39 12.63L221.39 12.63Q221.86 12.52 221.88 12.52L221.88 12.52Q222 12.52 222.07 12.68Q222.14 12.84 222.12 12.94L222.12 12.94Q222.07 13.27 222.05 13.48Q222.02 13.69 222.02 13.78L222.02 13.78Q222.02 13.90 222.07 13.90L222.07 13.90Q222.12 13.90 222.19 13.83L222.19 13.83Q222.75 13.27 223.63 12.84Q224.51 12.42 225.42 12.42L225.42 12.42Q226.31 12.42 226.95 12.88Q227.58 13.34 227.88 14.06L227.88 14.06Q228.56 13.36 229.59 12.89Q230.63 12.42 231.80 12.42L231.80 12.42Q232.92 12.42 233.58 13.04Q234.23 13.66 234.53 14.71Q234.82 15.75 234.82 16.99L234.82 16.99L234.82 19.45Q234.82 20.93 234.98 21.56L234.98 21.56Q235.03 21.66 235.32 21.79Q235.62 21.91 235.95 22.00Q236.27 22.08 236.41 22.08L236.41 22.08Q236.48 22.08 236.50 22.42Q236.51 22.76 236.46 22.88L236.46 22.88Q236.37 22.85 235.82 22.82Q235.27 22.78 234.63 22.75Q234 22.71 233.63 22.71L233.63 22.71Q233.25 22.71 232.63 22.75Q232.01 22.78 231.46 22.82Q230.91 22.85 230.77 22.88L230.77 22.88Q230.70 22.76 230.70 22.43L230.70 22.43Q230.70 22.08 230.77 22.08L230.77 22.08Q230.95 22.08 231.28 22.00Q231.61 21.91 231.90 21.79Q232.20 21.66 232.22 21.56L232.22 21.56Q232.38 20.91 232.38 19.92L232.38 19.92L232.38 17.53Q232.38 14.13 230.20 14.13L230.20 14.13Q229.43 14.13 228.94 14.51Q228.45 14.88 228.33 15.23L228.33 15.23Q228.33 15.54 228.35 15.76Q228.38 15.98 228.38 16.64L228.38 16.64L228.38 19.55Q228.38 20.20 228.41 20.72Q228.45 21.23 228.54 21.56L228.54 21.56Q228.59 21.66 228.88 21.79Q229.17 21.91 229.50 22.00Q229.83 22.08 229.97 22.08L229.97 22.08Q230.04 22.08 230.05 22.42Q230.06 22.76 230.02 22.88L230.02 22.88Q229.92 22.85 229.37 22.82Q228.82 22.78 228.19 22.75Q227.55 22.71 227.18 22.71L227.18 22.71Q226.80 22.71 226.18 22.75Q225.56 22.78 225.01 22.82Q224.46 22.85 224.32 22.88L224.32 22.88Q224.25 22.76 224.25 22.43L224.25 22.43Q224.25 22.08 224.32 22.08L224.32 22.08Q224.51 22.08 224.84 22.00Q225.16 21.91 225.46 21.79Q225.75 21.66 225.77 21.56L225.77 21.56Q225.94 20.91 225.94 19.85L225.94 19.85L225.94 17.60Q225.94 15.77 225.40 14.95Q224.86 14.13 223.80 14.13L223.80 14.13Q223.10 14.13 222.52 14.53Q221.93 14.93 221.93 15.42L221.93 15.42L221.93 19.45Q221.93 20.86 222.12 21.56L222.12 21.56Q222.16 21.66 222.45 21.79Q222.73 21.91 223.04 22.00Q223.36 22.08 223.50 22.08L223.50 22.08Q223.59 22.08 223.61 22.42Q223.62 22.76 223.57 22.88L223.57 22.88Q223.45 22.85 222.90 22.82Q222.35 22.78 221.74 22.75Q221.13 22.71 220.76 22.71L220.76 22.71Q220.38 22.71 219.74 22.75Q219.09 22.78 218.55 22.82Q218.02 22.85 217.88 22.88ZM240.21 22.95L240.21 22.95Q239.04 22.95 238.30 22.30Q237.56 21.66 237.56 20.53L237.56 20.53Q237.56 19.76 238.07 19.13Q238.57 18.49 239.48 18.05L239.48 18.05Q239.81 17.88 240.08 17.78Q240.35 17.67 240.59 17.58L240.59 17.58Q241.41 17.32 241.96 17.16Q242.51 16.99 242.74 16.92L242.74 16.92Q242.95 16.80 242.95 16.55L242.95 16.55L242.95 15.26Q242.95 14.44 242.58 13.97Q242.20 13.50 241.57 13.50L241.57 13.50Q240.87 13.50 240.47 13.93Q240.07 14.37 240.07 15.16L240.07 15.16Q240.07 15.63 239.72 15.86Q239.37 16.08 238.92 16.08L238.92 16.08Q238.05 16.08 237.70 15.52L237.70 15.52Q237.70 14.95 238.13 14.40Q238.55 13.85 239.24 13.41Q239.93 12.96 240.77 12.69Q241.62 12.42 242.46 12.42L242.46 12.42Q243.91 12.42 244.64 13.18Q245.37 13.95 245.37 15.80L245.37 15.80L245.37 20.41Q245.37 21.38 246.14 21.38L246.14 21.38Q246.49 21.38 246.94 21.07L246.94 21.07Q247.08 21.09 247.08 21.33L247.08 21.33Q247.08 21.77 246.94 22.03L246.94 22.03Q246.59 22.31 246 22.62Q245.41 22.92 244.88 22.92L244.88 22.92Q244.34 22.92 243.82 22.52Q243.30 22.13 243.14 21.66L243.14 21.66Q242.95 21.82 242.86 21.89Q242.77 21.96 242.55 22.13L242.55 22.13Q242.06 22.45 241.48 22.70Q240.89 22.95 240.21 22.95ZM241.41 21.42L241.41 21.42Q242.04 21.42 242.50 21.09Q242.95 20.77 242.95 20.34L242.95 20.34L242.95 17.95L241.45 18.47Q240.91 18.70 240.49 19.03Q240.07 19.36 240.07 19.97L240.07 19.97Q240.07 20.72 240.45 21.07Q240.82 21.42 241.41 21.42ZM248.23 22.85L248.23 22.85Q248.13 22.76 248.13 22.41L248.13 22.41Q248.13 22.08 248.23 22.08L248.23 22.08Q248.41 22.08 248.72 21.98Q249.02 21.89 249.29 21.75Q249.56 21.61 249.59 21.52L249.59 21.52Q249.68 21.12 249.73 20.67Q249.77 20.23 249.77 19.78L249.77 19.78L249.77 10.03Q249.77 9.14 249.63 8.44L249.63 8.44Q249.54 8.06 248.46 8.06L248.46 8.06L248.23 8.06Q248.09 8.06 248.09 7.78L248.09 7.78Q248.09 7.41 248.23 7.41L248.23 7.41Q249.52 7.29 250.56 7.01Q251.60 6.73 251.95 6.59L251.95 6.59L252.12 6.52L252.16 6.52Q252.26 6.52 252.36 6.66Q252.47 6.80 252.49 6.89L252.49 6.89Q252.21 7.76 252.21 9.09L252.21 9.09L252.21 19.41Q252.21 20.88 252.38 21.52L252.38 21.52Q252.42 21.61 252.68 21.75Q252.94 21.89 253.24 21.98Q253.55 22.08 253.66 22.08L253.66 22.08Q253.73 22.08 253.75 22.41Q253.76 22.73 253.71 22.85L253.71 22.85Q252.98 22.80 252.23 22.76Q251.48 22.71 250.99 22.71L250.99 22.71Q250.27 22.71 249.50 22.76Q248.74 22.80 248.23 22.85Z"/></svg>