<svg xmlns="http://www.w3.org/2000/svg" xmlns:xlink="http://www.w3.org/1999/xlink" width="223.704" height="40.488"><path fill="black" d="M0.91 26.21L3.07 25.94L4.27 9.96L1.92 9.77L1.92 8.81L6.74 8.81L11.45 22.61L11.93 24.24L12.46 22.58L16.90 8.81L21.43 8.81L21.43 9.77L19.10 9.96L20.50 25.94L22.78 26.21L22.78 27L16.61 27L16.61 26.21L18.86 25.94L17.83 13.90L17.66 9.91L17.04 12.14L12 27.17L11.40 27.17L6.53 13.42Q6.10 12.24 5.66 10.87L5.66 10.87L5.33 9.91L5.14 14.52L4.49 25.92L6.98 26.21L6.98 27L0.91 27L0.91 26.21ZM29.71 13.66Q31.82 13.66 33.06 14.60Q34.30 15.55 34.30 17.95L34.30 17.95L34.27 26.16L35.81 26.16L35.81 26.81Q34.99 27.19 33.79 27.19L33.79 27.19Q33.07 27.19 32.88 26.88Q32.69 26.57 32.69 25.58L32.69 25.58Q31.22 27.26 28.46 27.26L28.46 27.26Q27.43 27.26 26.53 26.83Q25.63 26.40 25.08 25.58Q24.53 24.77 24.53 23.64L24.53 23.64Q24.53 22.01 25.84 21.02Q27.14 20.04 28.98 19.62Q30.82 19.20 32.59 19.20L32.59 19.20L32.59 18.17Q32.59 16.32 31.73 15.59Q30.86 14.86 29.14 14.86L29.14 14.86Q28.27 14.86 27.14 15.17Q26.02 15.48 25.37 15.91L25.37 15.91L25.03 15.07Q25.82 14.42 27.26 14.04Q28.70 13.66 29.71 13.66L29.71 13.66ZM32.59 20.16Q30.19 20.16 28.21 20.92Q26.23 21.67 26.23 23.38L26.23 23.38Q26.21 24.77 27.05 25.44Q27.89 26.11 29.33 26.11L29.33 26.11Q31.13 26.11 32.59 24.89L32.59 24.89L32.59 20.16ZM37.82 26.21L39.89 25.99L39.89 15.65L38.16 15.02L38.16 14.45L40.92 13.73L41.38 13.94L41.38 15.58Q41.90 14.93 43.27 14.29Q44.64 13.66 45.74 13.66L45.74 13.66Q46.63 13.66 46.92 13.73L46.92 13.73L46.92 15.53Q46.13 15.22 45.05 15.22L45.05 15.22Q44.04 15.22 43.14 15.53Q42.24 15.84 41.57 16.27L41.57 16.27L41.57 25.99L45.12 26.21L45.12 27L37.82 27L37.82 26.21ZM52.25 10.75L52.25 13.92L56.64 13.92L56.64 15.05L52.25 15.05L52.25 22.10Q52.25 23.78 52.36 24.59Q52.46 25.39 52.79 25.72Q53.11 26.04 53.81 26.04L53.81 26.04Q54.55 26.04 55.33 25.79Q56.11 25.54 56.47 25.27L56.47 25.27L56.76 26.11Q56.28 26.64 55.19 26.96Q54.10 27.29 53.18 27.29L53.18 27.29Q51.86 27.29 51.23 26.52Q50.59 25.75 50.59 24L50.59 24L50.59 15.05L48.72 15.05L48.72 14.35L49.34 14.23Q50.06 14.11 50.33 14.00Q50.59 13.90 50.78 13.54L50.78 13.54Q50.93 13.25 51.12 12.25Q51.31 11.26 51.36 10.75L51.36 10.75L52.25 10.75ZM65.18 13.49Q67.20 13.49 68.41 14.78Q69.62 16.08 69.65 18.38L69.65 18.38Q69.70 19.34 69.53 20.28L69.53 20.28L60.43 20.28Q60.43 22.97 61.63 24.52Q62.83 26.06 65.16 26.06L65.16 26.06Q66.24 26.06 67.34 25.79Q68.45 25.51 68.98 25.15L68.98 25.15L69.34 25.97Q68.66 26.57 67.30 26.93Q65.93 27.29 64.54 27.29L64.54 27.29Q61.75 27.29 60.23 25.45Q58.70 23.62 58.70 20.50L58.70 20.50Q58.70 18.50 59.54 16.91Q60.38 15.31 61.86 14.40Q63.34 13.49 65.18 13.49L65.18 13.49ZM64.70 14.47Q63.02 14.47 61.86 15.70Q60.70 16.92 60.48 19.22L60.48 19.22L67.87 19.22Q67.90 18.98 67.90 18.55L67.90 18.55Q67.90 15.70 66.29 14.83L66.29 14.83Q65.64 14.47 64.70 14.47L64.70 14.47ZM72.53 26.21L74.47 25.99L74.47 9.48L72.58 9.19L72.58 8.38L75.77 7.99L76.18 8.23L76.18 26.02L78.24 26.21L78.24 27L72.53 27L72.53 26.21ZM86.62 26.28Q90.10 24.14 92.45 21.55Q94.80 18.96 94.80 16.70L94.80 16.70Q94.75 15.24 93.88 14.29Q93 13.34 91.37 13.34L91.37 13.34Q90.26 13.34 89.02 13.92Q87.77 14.50 87.02 15.24L87.02 15.24L86.59 14.52Q87.31 13.61 88.80 12.88Q90.29 12.14 91.92 12.14L91.92 12.14Q93.43 12.14 94.48 12.71Q95.52 13.27 96.04 14.18Q96.55 15.10 96.55 16.15L96.55 16.15Q96.55 18.60 94.37 21.25Q92.18 23.90 88.82 25.94L88.82 25.94L96.31 25.54L97.37 23.50L98.14 23.76L97.39 27L86.88 27L86.62 26.28ZM107.35 12.34Q110.47 12.34 111.88 14.28Q113.28 16.22 113.28 19.51L113.28 19.51Q113.28 21.77 112.45 23.56Q111.62 25.34 110.17 26.34Q108.72 27.34 106.97 27.34L106.97 27.34Q104.86 27.34 103.46 26.29Q102.07 25.25 101.44 23.51Q100.80 21.77 100.80 19.66L100.80 19.66Q100.80 17.45 101.70 15.78Q102.60 14.11 104.10 13.22Q105.60 12.34 107.35 12.34L107.35 12.34ZM107.14 13.32Q104.88 13.32 103.75 14.95Q102.62 16.58 102.62 19.51L102.62 19.51Q102.62 21.36 103.10 22.92Q103.58 24.48 104.58 25.42Q105.58 26.35 107.06 26.35L107.06 26.35Q109.32 26.35 110.41 24.62Q111.50 22.90 111.50 19.80L111.50 19.80Q111.50 16.85 110.42 15.08Q109.34 13.32 107.14 13.32L107.14 13.32ZM122.90 12.34Q126.02 12.34 127.43 14.28Q128.83 16.22 128.83 19.51L128.83 19.51Q128.83 21.77 128.00 23.56Q127.18 25.34 125.72 26.34Q124.27 27.34 122.52 27.34L122.52 27.34Q120.41 27.34 119.02 26.29Q117.62 25.25 116.99 23.51Q116.35 21.77 116.35 19.66L116.35 19.66Q116.35 17.45 117.25 15.78Q118.15 14.11 119.65 13.22Q121.15 12.34 122.90 12.34L122.90 12.34ZM122.69 13.32Q120.43 13.32 119.30 14.95Q118.18 16.58 118.18 19.51L118.18 19.51Q118.18 21.36 118.66 22.92Q119.14 24.48 120.13 25.42Q121.13 26.35 122.62 26.35L122.62 26.35Q124.87 26.35 125.96 24.62Q127.06 22.90 127.06 19.80L127.06 19.80Q127.06 16.85 125.98 15.08Q124.90 13.32 122.69 13.32L122.69 13.32ZM137.83 26.21L139.51 25.99L139.51 15.65L137.78 15.02L137.78 14.45L140.57 13.73L141 13.94L141 15.55Q141.91 14.83 143.47 14.22Q145.03 13.61 146.21 13.61L146.21 13.61Q147.60 13.61 148.42 14.16Q149.23 14.71 149.59 15.94Q149.95 17.16 149.95 19.22L149.95 19.22L149.95 25.99L151.85 26.21L151.85 27L146.45 27L146.45 26.21L148.25 25.99L148.25 19.44Q148.25 17.78 148.00 16.81Q147.74 15.84 147.13 15.38Q146.52 14.93 145.44 14.93L145.44 14.93Q144.50 14.93 143.33 15.32Q142.15 15.72 141.22 16.37L141.22 16.37L141.22 25.99L143.06 26.21L143.06 27L137.83 27L137.83 26.21ZM160.08 13.49Q162.02 13.49 163.31 14.41Q164.59 15.34 165.20 16.87Q165.82 18.41 165.82 20.23L165.82 20.23Q165.79 22.27 164.99 23.88Q164.18 25.49 162.80 26.39Q161.42 27.29 159.72 27.29L159.72 27.29Q157.70 27.29 156.38 26.34Q155.06 25.39 154.44 23.82Q153.82 22.25 153.82 20.33L153.82 20.33Q153.82 18.29 154.67 16.73Q155.52 15.17 156.96 14.33Q158.40 13.49 160.08 13.49L160.08 13.49ZM159.82 14.47Q157.85 14.47 156.73 15.96Q155.62 17.45 155.62 20.09L155.62 20.09Q155.62 22.80 156.70 24.53Q157.78 26.26 159.96 26.26L159.96 26.26Q161.93 26.26 162.97 24.73Q164.02 23.21 164.02 20.35L164.02 20.35Q164.02 17.74 162.98 16.10Q161.95 14.47 159.82 14.47L159.82 14.47ZM168.26 26.21L170.33 25.99L170.33 15.65L168.60 15.02L168.60 14.45L171.36 13.73L171.82 13.94L171.82 15.58Q172.34 14.93 173.71 14.29Q175.08 13.66 176.18 13.66L176.18 13.66Q177.07 13.66 177.36 13.73L177.36 13.73L177.36 15.53Q176.57 15.22 175.49 15.22L175.49 15.22Q174.48 15.22 173.58 15.53Q172.68 15.84 172.01 16.27L172.01 16.27L172.01 25.99L175.56 26.21L175.56 27L168.26 27L168.26 26.21ZM179.47 26.21L181.13 25.99L181.13 15.65L179.40 15.02L179.40 14.42L182.21 13.73L182.62 13.94L182.62 15.55Q183.53 14.83 184.96 14.26Q186.38 13.68 187.54 13.66L187.54 13.66Q188.81 13.63 189.58 14.02Q190.34 14.40 190.75 15.29L190.75 15.29Q191.57 14.66 193.10 14.16Q194.64 13.66 195.79 13.66L195.79 13.66Q197.16 13.66 197.95 14.21Q198.74 14.76 199.09 15.97Q199.44 17.18 199.44 19.25L199.44 19.25L199.44 25.99L201.41 26.21L201.41 27L196.08 27L196.08 26.21L197.76 25.99L197.76 19.54Q197.76 17.83 197.54 16.86Q197.33 15.89 196.70 15.41Q196.08 14.93 194.86 14.93L194.86 14.93Q193.97 14.93 192.94 15.25Q191.90 15.58 191.04 16.08L191.04 16.08Q191.33 17.23 191.33 19.13L191.33 19.13L191.33 25.99L193.18 26.21L193.18 27L187.85 27L187.85 26.21L189.65 25.99L189.65 19.32Q189.65 17.66 189.44 16.75Q189.24 15.84 188.66 15.40Q188.09 14.95 186.94 14.95L186.94 14.95Q186.05 14.95 184.91 15.34Q183.77 15.72 182.83 16.37L182.83 16.37L182.83 25.99L184.68 26.21L184.68 27L179.47 27L179.47 26.21ZM208.66 13.66Q210.77 13.66 212.00 14.60Q213.24 15.55 213.24 17.95L213.24 17.95L213.22 26.16L214.75 26.16L214.75 26.81Q213.94 27.19 212.74 27.19L212.74 27.19Q212.02 27.19 211.82 26.88Q211.63 26.57 211.63 25.58L211.63 25.58Q210.17 27.26 207.41 27.26L207.41 27.26Q206.38 27.26 205.48 26.83Q204.58 26.40 204.02 25.58Q203.47 24.77 203.47 23.64L203.47 23.64Q203.47 22.01 204.78 21.02Q206.09 20.04 207.92 19.62Q209.76 19.20 211.54 19.20L211.54 19.20L211.54 18.17Q211.54 16.32 210.67 15.59Q209.81 14.86 208.08 14.86L208.08 14.86Q207.22 14.86 206.09 15.17Q204.96 15.48 204.31 15.91L204.31 15.91L203.98 15.07Q204.77 14.42 206.21 14.04Q207.65 13.66 208.66 13.66L208.66 13.66ZM211.54 20.16Q209.14 20.16 207.16 20.92Q205.18 21.67 205.18 23.38L205.18 23.38Q205.15 24.77 205.99 25.44Q206.83 26.11 208.27 26.11L208.27 26.11Q210.07 26.11 211.54 24.89L211.54 24.89L211.54 20.16ZM217.13 26.21L219.07 25.99L219.07 9.48L217.18 9.19L217.18 8.38L220.37 7.99L220.78 8.23L220.78 26.02L222.84 26.21L222.84 27L217.13 27L217.13 26.21Z"/></svg>