<svg xmlns="http://www.w3.org/2000/svg" xmlns:xlink="http://www.w3.org/1999/xlink" width="173.952" height="28.8"><path fill="black" d="M5.59 9.55Q5.52 11.09 5.52 12.50L5.52 12.50Q5.52 13.97 5.71 16.80L5.71 16.80Q5.74 17.23 5.81 18.54Q5.88 19.85 5.88 20.93L5.88 20.93Q6.12 20.90 6.40 20.86Q6.67 20.81 6.82 20.81L6.82 20.81Q7.34 20.81 7.66 21.07Q7.97 21.34 7.97 21.89L7.97 21.89Q7.97 22.25 7.68 22.44Q7.39 22.63 6.68 22.72Q5.98 22.80 4.63 22.80L4.63 22.80Q3.14 22.80 2.40 22.70Q1.66 22.61 1.37 22.33Q1.08 22.06 1.08 21.50L1.08 21.50Q1.08 21.10 1.34 20.95Q1.61 20.81 2.09 20.81L2.09 20.81L2.59 20.83L3.38 20.88L3.26 18.05Q3.12 15.74 3.12 13.82L3.12 13.82Q3.12 12.79 3.19 10.99L3.19 10.99L3.24 9.67Q2.42 9.72 1.97 9.72L1.97 9.72Q1.44 9.72 1.26 9.53Q1.08 9.34 1.08 8.74L1.08 8.74Q1.08 8.06 2.00 7.87Q2.93 7.68 4.82 7.68L4.82 7.68Q6.29 7.68 7.02 7.78Q7.75 7.87 7.75 8.21L7.75 8.21Q7.75 9.02 7.40 9.28Q7.06 9.53 6.07 9.53L6.07 9.53L5.59 9.55ZM11.38 14.59L10.22 14.50Q9.89 14.45 9.68 14.21Q9.48 13.97 9.48 13.63L9.48 13.63Q9.48 13.46 9.56 13.27Q9.65 13.08 9.82 12.94L9.82 12.94Q10.13 12.62 11.50 12.62L11.50 12.62Q11.69 11.69 11.69 10.73L11.69 10.73Q11.69 10.37 11.66 10.10Q11.64 9.84 11.64 9.70L11.64 9.70Q11.64 9.17 12.04 8.90Q12.43 8.64 12.94 8.64L12.94 8.64Q13.56 8.64 13.79 8.95Q14.02 9.26 14.02 10.10L14.02 10.10Q14.02 11.35 13.80 12.55L13.80 12.55Q14.18 12.55 14.86 12.50L14.86 12.50Q15.77 12.46 16.18 12.46L16.18 12.46Q16.58 12.46 16.88 12.66Q17.18 12.86 17.18 13.22L17.18 13.22Q17.18 14.16 16.34 14.33L16.34 14.33Q15.46 14.54 13.58 14.59L13.58 14.59Q13.51 15.53 13.51 16.63L13.51 16.63Q13.51 18.36 13.73 19.46L13.73 19.46Q13.87 20.23 14.22 20.58Q14.57 20.93 15.26 20.93L15.26 20.93Q15.67 20.93 16.10 20.71L16.10 20.71Q16.39 20.54 16.63 20.54L16.63 20.54Q16.97 20.54 17.12 20.76Q17.28 20.98 17.28 21.34L17.28 21.34Q17.28 22.01 16.56 22.45Q15.84 22.90 14.71 22.90L14.71 22.90Q14.02 22.90 13.31 22.56Q12.60 22.22 12.12 21.72L12.12 21.72Q12.05 21.65 11.86 21.17Q11.66 20.69 11.52 20.14L11.52 20.14Q11.28 19.01 11.28 16.97L11.28 16.97Q11.28 16.08 11.38 14.59L11.38 14.59ZM20.47 7.39Q21.31 7.46 21.94 7.84Q22.56 8.21 22.56 8.95L22.56 8.95Q22.56 9.50 22.04 9.83Q21.53 10.15 20.81 10.15L20.81 10.15Q20.11 10.15 19.85 9.79Q19.58 9.43 19.58 9.05L19.58 9.05Q19.58 8.33 19.74 7.85Q19.90 7.37 20.47 7.39L20.47 7.39ZM22.39 13.70L22.39 18.02L22.39 18.72Q22.39 19.66 22.45 20.48Q22.51 21.31 22.61 22.15L22.61 22.15Q22.58 22.39 22.25 22.64Q21.91 22.90 21.65 22.90L21.65 22.90Q21.19 22.90 20.72 22.72Q20.26 22.54 20.16 22.27L20.16 22.27Q20.02 21.50 20.02 20.90L20.02 20.90Q20.02 18.94 19.90 16.49L19.90 16.49Q19.80 14.33 19.80 13.46L19.80 13.46Q19.80 13.03 20.23 12.72Q20.66 12.41 21.14 12.41L21.14 12.41Q21.84 12.41 22.12 12.72Q22.39 13.03 22.39 13.70L22.39 13.70ZM40.54 21.96Q40.18 21.29 40.08 20.46Q39.98 19.63 39.98 18.17L39.98 18.17Q39.98 16.78 39.60 15.74Q39.22 14.71 38.02 14.71L38.02 14.71Q37.56 14.71 37.12 14.99Q36.67 15.26 36.46 15.67L36.46 15.67Q36.12 16.32 36 17.08Q35.88 17.83 35.88 18.82L35.88 18.82Q35.88 19.44 35.95 20.09L35.95 20.09Q35.95 20.28 35.99 20.70Q36.02 21.12 36.02 21.46L36.02 21.46Q36.02 22.90 35.02 22.90L35.02 22.90Q33.70 22.90 33.62 21.50L33.62 21.50Q33.62 20.52 33.65 20.45L33.65 20.45L33.65 19.42Q33.65 18.55 33.58 17.74Q33.50 16.92 33.41 16.51L33.41 16.51Q33.19 15.72 32.84 15.29Q32.50 14.86 31.75 14.86L31.75 14.86Q30.70 14.86 30.05 15.77L30.05 15.77Q29.59 16.49 29.45 17.52L29.45 17.52Q29.30 18.84 29.24 19.60Q29.18 20.35 29.18 21.34L29.18 21.34Q29.18 22.03 28.96 22.46Q28.73 22.90 28.10 22.90L28.10 22.90Q27.65 22.90 27.16 22.64Q26.66 22.39 26.66 21.96L26.66 21.96Q26.66 21.50 26.76 21.05L26.76 21.05Q26.98 19.68 26.98 16.15L26.98 16.15Q26.98 15.58 26.70 15.04Q26.42 14.50 26.04 14.50L26.04 14.50Q25.94 14.50 25.69 14.59Q25.44 14.69 25.32 14.69L25.32 14.69Q25.01 14.69 24.76 14.40Q24.50 14.11 24.50 13.92L24.50 13.92Q24.50 13.32 25.09 12.90Q25.68 12.48 26.33 12.48L26.33 12.48Q27.22 12.48 27.84 13.03Q28.46 13.58 28.80 14.57L28.80 14.57Q29.35 13.61 30.29 13.02Q31.22 12.43 32.38 12.43L32.38 12.43Q33.10 12.43 33.54 12.61Q33.98 12.79 34.27 13.12Q34.56 13.44 35.02 14.09L35.02 14.09Q35.62 13.32 36.56 12.89Q37.51 12.46 38.52 12.46L38.52 12.46Q39.72 12.46 40.68 13.43Q41.64 14.40 41.98 15.67L41.98 15.67Q42.14 16.32 42.14 18.17L42.14 18.17L42.24 19.56Q42.36 20.81 43.06 21.07L43.06 21.07Q43.87 21.31 43.87 21.58L43.87 21.58Q43.87 22.15 43.58 22.42L43.58 22.42Q43.37 22.56 42.98 22.73Q42.60 22.90 42.38 22.90L42.38 22.90Q41.09 22.90 40.54 21.96L40.54 21.96ZM55.37 8.40Q55.37 9.58 54.95 11.12Q54.53 12.67 53.74 14.93L53.74 14.93L53.18 16.58Q53.59 16.66 54.02 16.66L54.02 16.66Q54.77 16.66 56.26 16.51L56.26 16.51Q57.74 16.37 58.39 16.37L58.39 16.37L58.37 13.73Q58.32 10.99 58.32 9.70L58.32 9.70Q58.32 7.99 59.45 7.99L59.45 7.99Q60.34 7.99 60.59 8.45Q60.84 8.90 60.84 9.82L60.84 9.82Q60.84 10.75 60.70 12.72L60.70 12.72Q60.67 13.10 60.62 13.99Q60.58 14.88 60.58 15.53L60.58 15.53L60.60 16.30L61.08 16.27Q61.66 16.22 61.97 16.22L61.97 16.22Q62.54 16.22 63.07 16.60Q63.60 16.97 63.60 17.47L63.60 17.47Q63.60 18.07 63.42 18.41Q63.24 18.74 63 18.74L63 18.74Q62.59 18.74 61.97 18.65L61.97 18.65Q61.82 18.65 61.54 18.61Q61.25 18.58 60.98 18.58L60.98 18.58L60.58 18.60L60.60 21.84Q60.60 22.34 60.26 22.61Q59.93 22.87 59.50 22.87L59.50 22.87Q58.97 22.87 58.56 22.54Q58.15 22.20 58.15 21.70L58.15 21.70Q58.15 20.09 58.20 19.18L58.20 19.18Q58.22 18.96 58.22 18.65L58.22 18.65Q57.50 18.62 55.73 18.82L55.73 18.82Q54.05 19.01 53.18 19.01L53.18 19.01Q52.08 19.01 51.32 18.70Q50.57 18.38 50.57 17.71L50.57 17.71Q50.57 17.06 50.83 16.13Q51.10 15.19 51.62 13.61L51.62 13.61Q51.86 12.98 51.98 12.58L51.98 12.58Q52.42 11.35 52.63 10.50Q52.85 9.65 53.11 8.42L53.11 8.42Q53.21 8.04 53.52 7.85Q53.83 7.66 54.24 7.66L54.24 7.66Q54.67 7.66 55.02 7.86Q55.37 8.06 55.37 8.40L55.37 8.40ZM75.86 9.26Q76.66 10.49 77.14 12.06Q77.62 13.63 77.62 15.26L77.62 15.26Q77.62 17.21 76.96 18.96Q76.30 20.71 74.99 21.82Q73.68 22.92 71.81 22.92L71.81 22.92Q70.06 22.92 68.59 22.02Q67.13 21.12 66.38 19.92L66.38 19.92Q65.83 19.03 65.54 17.92Q65.26 16.80 65.26 15.67L65.26 15.67Q65.26 13.70 66.08 11.83Q66.91 9.96 68.38 8.83L68.38 8.83Q69.77 7.80 71.57 7.80L71.57 7.80Q73.56 7.80 75.86 9.26L75.86 9.26ZM69.43 10.92Q69.22 11.28 69 11.57L69 11.57Q68.47 12.36 68.23 12.90Q67.99 13.44 67.80 14.54L67.80 14.54Q67.70 15.05 67.70 15.72L67.70 15.72Q67.70 17.42 68.39 18.66Q69.07 19.90 70.27 20.33L70.27 20.33Q70.85 20.54 71.57 20.54L71.57 20.54Q73.37 20.54 74.29 18.95Q75.22 17.35 75.22 15L75.22 15Q75.22 12.82 74.40 11.41Q73.58 10.01 71.88 10.01L71.88 10.01Q71.18 10.01 70.69 10.22Q70.20 10.44 69.43 10.92L69.43 10.92ZM90.65 9.26Q91.44 10.49 91.92 12.06Q92.40 13.63 92.40 15.26L92.40 15.26Q92.40 17.21 91.74 18.96Q91.08 20.71 89.77 21.82Q88.46 22.92 86.59 22.92L86.59 22.92Q84.84 22.92 83.38 22.02Q81.91 21.12 81.17 19.92L81.17 19.92Q80.62 19.03 80.33 17.92Q80.04 16.80 80.04 15.67L80.04 15.67Q80.04 13.70 80.87 11.83Q81.70 9.96 83.16 8.83L83.16 8.83Q84.55 7.80 86.35 7.80L86.35 7.80Q88.34 7.80 90.65 9.26L90.65 9.26ZM84.22 10.92Q84 11.28 83.78 11.57L83.78 11.57Q83.26 12.36 83.02 12.90Q82.78 13.44 82.58 14.54L82.58 14.54Q82.49 15.05 82.49 15.72L82.49 15.72Q82.49 17.42 83.17 18.66Q83.86 19.90 85.06 20.33L85.06 20.33Q85.63 20.54 86.35 20.54L86.35 20.54Q88.15 20.54 89.08 18.95Q90 17.35 90 15L90 15Q90 12.82 89.18 11.41Q88.37 10.01 86.66 10.01L86.66 10.01Q85.97 10.01 85.48 10.22Q84.98 10.44 84.22 10.92L84.22 10.92ZM111.31 20.95Q111.43 21 111.70 21.07Q111.96 21.14 112.08 21.22Q112.20 21.29 112.20 21.43L112.20 21.43Q112.22 22.01 111.78 22.38Q111.34 22.75 110.74 22.75L110.74 22.75Q109.80 22.75 109.27 22.25Q108.74 21.74 108.50 20.71L108.50 20.71Q108.41 20.30 108.41 19.58L108.41 19.58Q108.41 19.18 108.46 18.26L108.46 18.26Q108.50 17.30 108.50 16.73L108.50 16.73Q108.50 15.89 108.04 15.25Q107.57 14.62 106.73 14.62L106.73 14.62Q106.22 14.62 105.67 14.92Q105.12 15.22 104.90 15.65L104.90 15.65Q104.54 16.34 104.40 17.16L104.40 17.16Q104.14 18.60 104.14 20.16L104.14 20.16Q104.14 20.90 104.16 21.31L104.16 21.31Q104.16 21.41 104.17 21.68Q104.18 21.96 104.12 22.19Q104.06 22.42 103.92 22.61L103.92 22.61Q103.80 22.73 103.55 22.81Q103.30 22.90 103.08 22.90L103.08 22.90Q102.74 22.90 102.24 22.61Q101.74 22.32 101.66 21.96L101.66 21.96L101.64 21.55Q101.64 21.34 101.69 21.05L101.69 21.05Q101.98 19.37 101.98 18.12L101.98 18.12Q101.98 17.57 101.95 17.26L101.95 17.26L101.93 16.13Q101.93 15.55 101.64 15.01Q101.35 14.47 100.97 14.47L100.97 14.47Q100.85 14.47 100.63 14.56Q100.42 14.64 100.27 14.64L100.27 14.64Q100.03 14.64 99.76 14.40Q99.48 14.16 99.48 13.90L99.48 13.90Q99.48 13.39 99.82 13.08L99.82 13.08Q100.18 12.79 100.52 12.62Q100.87 12.46 101.33 12.46L101.33 12.46Q101.71 12.46 101.95 12.53Q102.19 12.60 102.60 12.84L102.60 12.84Q102.82 12.96 103.10 13.37Q103.39 13.78 103.58 14.52L103.58 14.52Q104.21 13.37 105.13 12.90Q106.06 12.43 107.50 12.43L107.50 12.43Q108.05 12.43 108.68 12.79Q109.32 13.15 109.78 13.63L109.78 13.63Q110.21 14.16 110.50 14.94Q110.78 15.72 110.78 16.34L110.78 16.34Q110.78 16.70 110.74 17.52L110.74 17.52Q110.66 18.17 110.66 18.89L110.66 18.89Q110.66 20.57 111.31 20.95L111.31 20.95ZM123.43 15.10Q123.62 15.43 123.74 16.07Q123.86 16.70 123.86 17.21L123.86 17.21Q123.86 18.14 123.46 19.87L123.46 19.87Q121.80 22.90 118.56 22.90L118.56 22.90Q117.36 22.90 116.11 22.10Q114.86 21.31 114.38 20.28L114.38 20.28Q113.74 18.22 113.74 17.66L113.74 17.66Q113.74 16.70 114.16 15.62Q114.58 14.54 115.22 13.75L115.22 13.75Q115.63 13.20 116.69 12.80Q117.74 12.41 118.61 12.41L118.61 12.41Q120.29 12.41 121.46 13.04Q122.64 13.68 123.43 15.10L123.43 15.10ZM121.34 18.96Q121.46 18.65 121.46 17.35L121.46 17.35Q121.46 16.66 121.21 15.98Q120.96 15.31 120.48 14.83L120.48 14.83Q120.43 14.78 120.22 14.68Q120.00 14.57 119.63 14.46Q119.26 14.35 118.78 14.35L118.78 14.35Q117.43 14.35 116.81 15.43Q116.18 16.51 116.18 17.88L116.18 17.88Q116.18 18.12 116.32 18.79Q116.45 19.46 116.54 19.63L116.54 19.63Q116.62 19.80 116.92 20.10Q117.22 20.40 117.66 20.63Q118.10 20.86 118.58 20.86L118.58 20.86Q119.66 20.86 120.31 20.34Q120.96 19.82 121.34 18.96L121.34 18.96ZM129.77 21.84Q129.77 22.25 129.46 22.56Q129.14 22.87 128.69 22.87L128.69 22.87Q127.97 22.87 127.63 22.60Q127.30 22.32 127.30 21.58L127.30 21.58Q127.30 20.69 127.25 19.25L127.25 19.25Q127.20 18.05 127.20 17.23L127.20 17.23Q127.20 16.85 127.25 16.22L127.25 16.22Q127.30 15.65 127.30 15.36L127.30 15.36Q127.22 14.90 126.94 14.60Q126.65 14.30 126.19 14.30L126.19 14.30Q125.98 14.30 125.83 14.10Q125.69 13.90 125.69 13.68L125.69 13.68Q125.69 13.13 126.13 12.84Q126.58 12.55 127.20 12.55L127.20 12.55Q128.50 12.55 129.00 14.09L129.00 14.09Q129.62 13.37 130.43 12.92Q131.23 12.48 131.98 12.48L131.98 12.48Q132.86 12.48 133.60 12.96Q134.33 13.44 134.33 14.26L134.33 14.26Q134.33 14.71 133.93 15.19Q133.54 15.67 133.13 15.67L133.13 15.67Q132.91 15.67 132.76 15.56Q132.60 15.46 132.38 15.24L132.38 15.24Q132.14 15 131.98 14.89Q131.81 14.78 131.59 14.78L131.59 14.78Q131.21 14.78 130.87 14.90Q130.54 15.02 130.42 15.19L130.42 15.19Q130.03 15.79 129.85 16.27Q129.67 16.75 129.67 17.30L129.67 17.30Q129.67 17.71 129.65 17.95L129.65 17.95L129.62 19.32Q129.62 19.63 129.65 20.02Q129.67 20.40 129.70 20.59L129.70 20.59Q129.77 21.24 129.77 21.84L129.77 21.84ZM150.89 21.96Q150.53 21.29 150.43 20.46Q150.34 19.63 150.34 18.17L150.34 18.17Q150.34 16.78 149.95 15.74Q149.57 14.71 148.37 14.71L148.37 14.71Q147.91 14.71 147.47 14.99Q147.02 15.26 146.81 15.67L146.81 15.67Q146.47 16.32 146.35 17.08Q146.23 17.83 146.23 18.82L146.23 18.82Q146.23 19.44 146.30 20.09L146.30 20.09Q146.30 20.28 146.34 20.70Q146.38 21.12 146.38 21.46L146.38 21.46Q146.38 22.90 145.37 22.90L145.37 22.90Q144.05 22.90 143.98 21.50L143.98 21.50Q143.98 20.52 144 20.45L144 20.45L144 19.42Q144 18.55 143.93 17.74Q143.86 16.92 143.76 16.51L143.76 16.51Q143.54 15.72 143.20 15.29Q142.85 14.86 142.10 14.86L142.10 14.86Q141.05 14.86 140.40 15.77L140.40 15.77Q139.94 16.49 139.80 17.52L139.80 17.52Q139.66 18.84 139.60 19.60Q139.54 20.35 139.54 21.34L139.54 21.34Q139.54 22.03 139.31 22.46Q139.08 22.90 138.46 22.90L138.46 22.90Q138 22.90 137.51 22.64Q137.02 22.39 137.02 21.96L137.02 21.96Q137.02 21.50 137.11 21.05L137.11 21.05Q137.33 19.68 137.33 16.15L137.33 16.15Q137.33 15.58 137.05 15.04Q136.78 14.50 136.39 14.50L136.39 14.50Q136.30 14.50 136.04 14.59Q135.79 14.69 135.67 14.69L135.67 14.69Q135.36 14.69 135.11 14.40Q134.86 14.11 134.86 13.92L134.86 13.92Q134.86 13.32 135.44 12.90Q136.03 12.48 136.68 12.48L136.68 12.48Q137.57 12.48 138.19 13.03Q138.82 13.58 139.15 14.57L139.15 14.57Q139.70 13.61 140.64 13.02Q141.58 12.43 142.73 12.43L142.73 12.43Q143.45 12.43 143.89 12.61Q144.34 12.79 144.62 13.12Q144.91 13.44 145.37 14.09L145.37 14.09Q145.97 13.32 146.92 12.89Q147.86 12.46 148.87 12.46L148.87 12.46Q150.07 12.46 151.03 13.43Q151.99 14.40 152.33 15.67L152.33 15.67Q152.50 16.32 152.50 18.17L152.50 18.17L152.59 19.56Q152.71 20.81 153.41 21.07L153.41 21.07Q154.22 21.31 154.22 21.58L154.22 21.58Q154.22 22.15 153.94 22.42L153.94 22.42Q153.72 22.56 153.34 22.73Q152.95 22.90 152.74 22.90L152.74 22.90Q151.44 22.90 150.89 21.96L150.89 21.96ZM166.85 21.65Q166.85 22.18 166.28 22.54Q165.72 22.90 165.24 22.90L165.24 22.90Q164.33 22.90 163.79 22.67Q163.25 22.44 162.79 21.82L162.79 21.82Q162.17 22.37 161.09 22.64Q160.01 22.92 159.10 22.92L159.10 22.92Q157.61 22.92 156.65 22.12Q155.69 21.31 155.69 19.75L155.69 19.75Q155.69 19.08 156.05 18.52Q156.41 17.95 157.03 17.52L157.03 17.52Q157.73 17.06 158.62 16.81Q159.50 16.56 160.46 16.56L160.46 16.56Q160.97 16.56 161.66 16.75Q162.36 16.94 162.74 17.16L162.74 17.16L162.74 16.78Q162.74 15.48 162.12 14.99Q161.50 14.50 160.10 14.50L160.10 14.50Q159.70 14.50 159.30 14.66Q158.90 14.83 158.40 15.12L158.40 15.12Q157.73 15.48 157.13 15.48L157.13 15.48Q156.91 15.48 156.72 15.18Q156.53 14.88 156.53 14.64L156.53 14.64Q156.53 13.94 157.19 13.44Q157.85 12.94 158.76 12.68Q159.67 12.43 160.39 12.43L160.39 12.43Q161.11 12.43 162.05 12.71Q162.98 12.98 163.58 13.46L163.58 13.46Q164.30 14.09 164.70 14.92Q165.10 15.74 165.10 16.73L165.10 16.73Q165.10 17.04 165.05 17.66L165.05 17.66Q165 18.34 165 18.82L165 18.82Q165 19.03 164.95 19.46L164.95 19.46Q164.90 19.99 164.90 20.30L164.90 20.30Q164.90 20.59 165.12 20.80Q165.34 21 165.62 21L165.62 21L166.30 20.98Q166.56 20.98 166.70 21.17Q166.85 21.36 166.85 21.65L166.85 21.65ZM159.12 21.02Q160.15 21.02 160.85 20.81Q161.54 20.59 162.53 20.02L162.53 20.02Q162.62 19.61 162.65 18.94L162.65 18.94Q161.33 18.31 160.46 18.31L160.46 18.31Q159.48 18.31 158.71 18.67Q157.94 19.03 157.94 19.94L157.94 19.94Q157.94 20.40 158.33 20.71Q158.71 21.02 159.12 21.02L159.12 21.02ZM171.12 19.08Q171.12 19.99 171.40 20.48Q171.67 20.98 172.10 20.98L172.10 20.98Q172.34 20.98 172.56 20.94Q172.78 20.90 172.99 20.90L172.99 20.90Q173.23 20.90 173.41 21.14Q173.59 21.38 173.59 21.67L173.59 21.67Q173.59 22.25 173.05 22.57Q172.51 22.90 171.60 22.90L171.60 22.90Q170.95 22.90 170.29 22.50Q169.63 22.10 169.20 21.25Q168.77 20.40 168.77 19.13L168.77 19.13Q168.77 16.39 168.86 14.50L168.86 14.50Q168.98 12.24 168.98 8.81L168.98 8.81Q168.98 7.73 169.10 7.30L169.10 7.30Q169.25 6.96 169.57 6.78Q169.90 6.60 170.26 6.60L170.26 6.60Q170.62 6.60 170.89 6.72Q171.17 6.84 171.26 7.10L171.26 7.10Q171.36 7.39 171.40 7.67Q171.43 7.94 171.43 8.45L171.43 8.45Q171.43 9.43 171.36 10.34L171.36 10.34Q171.31 11.45 171.31 11.95L171.31 11.95Q171.12 16.18 171.12 19.08L171.12 19.08Z"/></svg>