<svg xmlns="http://www.w3.org/2000/svg" xmlns:xlink="http://www.w3.org/1999/xlink" width="351.1640625" height="24"><path fill="black" d="M0.71 3.75L0.71 2.88L8.94 2.88Q11.44 2.88 12.83 3.60L12.83 3.60Q13.55 3.97 14.10 4.57L14.10 4.57Q15.14 5.70 15.14 7.17L15.14 7.17Q15.14 10.73 10.45 11.27L10.45 11.27L10.45 11.37Q12.94 11.45 14.45 12.45L14.45 12.45Q16.43 13.73 16.43 16.09L16.43 16.09Q16.43 18.38 14.78 19.65L14.78 19.65Q14.07 20.20 12.94 20.59L12.94 20.59Q11.40 21.12 9.56 21.12L9.56 21.12L0.71 21.12L0.71 20.25Q2.24 20.10 2.66 19.73L2.66 19.73Q3.09 19.35 3.09 18.35L3.09 18.35L3.09 5.64Q3.09 4.58 2.48 4.22L2.48 4.22Q1.99 3.91 0.71 3.75L0.71 3.75ZM4.79 5.84L4.79 10.84L7.70 10.84Q9.88 10.84 11.33 10.11L11.33 10.11Q13.27 9.15 13.27 7.13L13.27 7.13Q13.27 5.33 11.86 4.66L11.86 4.66Q10.64 4.08 8.44 4.08L8.44 4.08L6.66 4.08Q5.63 4.08 5.23 4.44L5.23 4.44Q4.79 4.83 4.79 5.84L4.79 5.84ZM7.70 12.04L4.79 12.04L4.79 18.16Q4.79 19.21 5.25 19.56L5.25 19.56Q5.72 19.91 7.20 19.91L7.20 19.91L8.55 19.91Q11.13 19.91 12.57 19.24L12.57 19.24Q14.51 18.34 14.51 16.09L14.51 16.09Q14.51 13.63 12.19 12.69L12.19 12.69Q10.59 12.04 7.70 12.04L7.70 12.04ZM18.75 3.75L18.75 2.88L25.90 2.88L25.90 3.75Q24.06 3.91 23.63 4.34L23.63 4.34Q23.21 4.75 23.21 5.93L23.21 5.93L23.21 18.07Q23.21 19.30 23.74 19.71L23.74 19.71Q24.21 20.09 25.90 20.25L25.90 20.25L25.90 21.12L18.75 21.12L18.75 20.25Q20.51 20.06 20.95 19.68L20.95 19.68Q21.43 19.27 21.43 18.07L21.43 18.07L21.43 5.93Q21.43 4.49 20.74 4.14L20.74 4.14Q20.21 3.87 18.75 3.75L18.75 3.75ZM28.96 8.16L29.31 2.88L42.25 2.88L42.25 4.27L30.27 19.92L36.49 19.92Q39.64 19.92 40.71 18.82L40.71 18.82Q41.59 17.91 42.04 15.12L42.04 15.12L42.87 15.12L42.52 21.12L28.18 21.12L28.18 19.83L40.18 4.08L34.28 4.08Q32.04 4.08 31.02 5.07L31.02 5.07Q30.08 6 29.79 8.16L29.79 8.16L28.96 8.16ZM52.49 3.75L52.49 2.88L58.97 2.88L58.97 3.75Q57.30 3.90 56.95 4.23L56.95 4.23Q56.57 4.58 56.57 5.64L56.57 5.64L56.57 13.63Q56.57 16.63 57.68 18.06L57.68 18.06Q59.26 20.09 62.31 20.09L62.31 20.09Q64.43 20.09 65.80 18.98L65.80 18.98Q66.77 18.19 67.24 17.19L67.24 17.19Q67.92 15.74 67.92 13.54L67.92 13.54L67.92 5.64Q67.92 4.57 67.49 4.23L67.49 4.23Q67.08 3.91 65.54 3.75L65.54 3.75L65.54 2.88L71.65 2.88L71.65 3.75Q69.96 3.90 69.59 4.27L69.59 4.27Q69.25 4.58 69.25 5.64L69.25 5.64L69.25 13.54Q69.25 17.16 67.57 19.20L67.57 19.20Q65.61 21.57 62.12 21.57L62.12 21.57Q58.36 21.57 56.27 18.98L56.27 18.98Q55.29 17.77 55.01 15.96L55.01 15.96Q54.87 15.01 54.87 13.63L54.87 13.63L54.87 5.64Q54.87 4.58 54.43 4.25L54.43 4.25Q54.02 3.94 52.49 3.75L52.49 3.75ZM72.42 3.75L72.42 2.88L80.65 2.88Q84.91 2.88 87.32 5.57L87.32 5.57Q89.58 8.09 89.58 11.98L89.58 11.98Q89.58 16.31 87.09 18.77L87.09 18.77Q84.73 21.12 80.55 21.12L80.55 21.12L72.42 21.12L72.42 20.25Q73.92 20.07 74.34 19.75L74.34 19.75Q74.80 19.39 74.80 18.36L74.80 18.36L74.80 5.64Q74.80 4.58 74.32 4.23L74.32 4.23Q73.82 3.86 72.42 3.75L72.42 3.75ZM76.52 5.84L76.52 5.84L76.52 18.16Q76.52 19.23 76.96 19.56L76.96 19.56Q77.43 19.92 78.89 19.92L78.89 19.92L80.26 19.92Q83.99 19.92 85.89 17.68L85.89 17.68Q87.61 15.67 87.61 11.98L87.61 11.98Q87.61 7.93 85.59 5.95L85.59 5.95Q83.70 4.08 80.17 4.08L80.17 4.08L78.36 4.08Q77.36 4.08 76.96 4.44L76.96 4.44Q76.52 4.83 76.52 5.84ZM91.50 3.75L91.50 2.88L99.52 2.88Q102.12 2.88 104.03 3.77L104.03 3.77Q104.57 4.03 104.98 4.32L104.98 4.32Q106.89 5.72 106.89 8.09L106.89 8.09Q106.89 9.94 105.73 11.24L105.73 11.24Q104.74 12.32 102.87 12.81L102.87 12.81Q101.33 13.20 98.74 13.20L98.74 13.20L95.60 13.20L95.60 18.35Q95.60 19.31 96.20 19.73L96.20 19.73Q96.74 20.12 98.17 20.25L98.17 20.25L98.17 21.12L91.50 21.12L91.50 20.25Q93.12 20.06 93.50 19.71L93.50 19.71Q93.90 19.36 93.90 18.35L93.90 18.35L93.90 5.64Q93.90 4.61 93.35 4.23L93.35 4.23Q92.84 3.87 91.50 3.75L91.50 3.75ZM95.60 5.84L95.60 12L98.53 12Q101.80 12 103.31 11.13L103.31 11.13Q104.87 10.24 104.87 8.11L104.87 8.11Q104.87 4.08 99.15 4.08L99.15 4.08L97.48 4.08Q96.43 4.08 96.04 4.44L96.04 4.44Q95.60 4.83 95.60 5.84L95.60 5.84ZM108.33 3.75L108.33 2.88L112.99 2.88L119.34 16.65L125.85 2.88L130.30 2.88L130.30 3.75Q128.77 3.94 128.37 4.25L128.37 4.25Q127.93 4.58 127.93 5.64L127.93 5.64L127.93 18.36Q127.93 19.41 128.43 19.80L128.43 19.80Q128.80 20.11 130.30 20.25L130.30 20.25L130.30 21.12L123.83 21.12L123.83 20.25Q125.39 20.11 125.80 19.73L125.80 19.73Q126.23 19.34 126.23 18.36L126.23 18.36L126.23 5.29L126.13 5.29L119.52 19.29L118.58 19.29L112.13 4.97L112.03 4.97L112.03 18.36Q112.03 19.41 112.46 19.75L112.46 19.75Q112.88 20.07 114.40 20.25L114.40 20.25L114.40 21.12L108.33 21.12L108.33 20.25Q109.84 20.04 110.25 19.72L110.25 19.72Q110.71 19.37 110.71 18.36L110.71 18.36L110.71 5.64Q110.71 4.61 110.23 4.25L110.23 4.25Q109.82 3.95 108.33 3.75L108.33 3.75ZM134.96 1.75L134.96 1.75Q135.38 1.75 135.76 1.98L135.76 1.98Q136.45 2.43 136.45 3.23L136.45 3.23Q136.45 3.82 136.04 4.25L136.04 4.25Q135.61 4.72 134.96 4.72L134.96 4.72Q134.59 4.72 134.26 4.55L134.26 4.55Q133.48 4.11 133.48 3.23L133.48 3.23Q133.48 2.55 133.99 2.11L133.99 2.11Q134.41 1.75 134.96 1.75ZM138.18 21.12L131.78 21.12L131.78 20.25Q133.39 20.19 133.80 19.76L133.80 19.76Q134.18 19.37 134.18 18.33L134.18 18.33L134.18 10.72Q134.18 9.76 133.68 9.45L133.68 9.45Q133.20 9.14 132.01 9.02L132.01 9.02L132.01 8.16Q133.77 8.16 135.88 7.68L135.88 7.68L135.88 18.33Q135.88 19.45 136.32 19.86L136.32 19.86Q136.73 20.23 138.18 20.25L138.18 20.25L138.18 21.12ZM145.28 21.12L139.38 21.12L139.38 20.25Q140.73 20.19 141.15 19.79L141.15 19.79Q141.59 19.39 141.59 18.33L141.59 18.33L141.59 10.72Q141.59 9.68 141.13 9.35L141.13 9.35Q140.79 9.12 139.45 9.02L139.45 9.02L139.45 8.16Q141.54 8.16 143.26 7.68L143.26 7.68L143.26 9.96Q144.04 8.88 145.27 8.24L145.27 8.24Q146.36 7.68 147.46 7.68L147.46 7.68Q149.70 7.68 151.01 9.29L151.01 9.29Q152.07 10.62 152.07 12.96L152.07 12.96L152.07 18.33Q152.07 19.45 152.52 19.83L152.52 19.83Q152.93 20.18 154.30 20.25L154.30 20.25L154.30 21.12L148.36 21.12L148.36 20.25Q149.58 20.18 150.01 19.79L150.01 19.79Q150.40 19.45 150.40 18.33L150.40 18.33L150.40 12.89Q150.40 11.14 149.53 10.09L149.53 10.09Q148.70 9.07 147.30 9.07L147.30 9.07Q145.10 9.07 143.26 11.75L143.26 11.75L143.26 18.33Q143.26 19.43 143.67 19.79L143.67 19.79Q144.08 20.17 145.28 20.25L145.28 20.25L145.28 21.12ZM166.98 17.16L167.73 17.93Q165.84 21.60 162.12 21.60L162.12 21.60Q160.08 21.60 158.52 20.52L158.52 20.52Q155.75 18.62 155.75 14.61L155.75 14.61Q155.75 11.96 157.08 10.17L157.08 10.17Q158.27 8.54 160.27 7.96L160.27 7.96Q161.25 7.68 162.28 7.68L162.28 7.68Q164.41 7.68 165.79 8.77L165.79 8.77Q167.02 9.73 167.02 10.84L167.02 10.84Q167.02 11.25 166.85 11.61L166.85 11.61Q166.50 12.35 165.67 12.35L165.67 12.35Q164.98 12.35 164.61 11.82L164.61 11.82Q164.39 11.52 164.39 11.10L164.39 11.10Q164.39 10.25 164.96 9.96L164.96 9.96Q164.23 8.82 162.30 8.82L162.30 8.82Q160.17 8.82 158.84 10.62L158.84 10.62Q157.68 12.19 157.68 14.61L157.68 14.61Q157.68 16.38 158.32 17.70L158.32 17.70Q158.91 18.90 159.95 19.58L159.95 19.58Q160.99 20.25 162.28 20.25L162.28 20.25Q165.16 20.25 166.98 17.16L166.98 17.16ZM175.04 21.12L169.15 21.12L169.15 20.25Q170.50 20.19 170.92 19.79L170.92 19.79Q171.35 19.39 171.35 18.33L171.35 18.33L171.35 5.45Q171.35 4.39 170.89 4.08L170.89 4.08Q170.55 3.83 169.22 3.74L169.22 3.74L169.22 2.87Q171.30 2.87 173.03 2.39L173.03 2.39L173.03 9.96Q173.79 8.89 175.03 8.24L175.03 8.24Q176.12 7.68 177.22 7.68L177.22 7.68Q179.46 7.68 180.77 9.29L180.77 9.29Q181.84 10.62 181.84 12.96L181.84 12.96L181.84 18.33Q181.84 19.45 182.29 19.83L182.29 19.83Q182.70 20.18 184.07 20.25L184.07 20.25L184.07 21.12L178.13 21.12L178.13 20.25Q179.34 20.18 179.78 19.79L179.78 19.79Q180.16 19.45 180.16 18.33L180.16 18.33L180.16 12.89Q180.16 11.14 179.30 10.09L179.30 10.09Q178.46 9.07 177.07 9.07L177.07 9.07Q174.87 9.07 173.03 11.75L173.03 11.75L173.03 18.33Q173.03 19.43 173.44 19.79L173.44 19.79Q173.85 20.17 175.04 20.25L175.04 20.25L175.04 21.12ZM192.11 7.68L192.11 7.68Q195.25 7.68 197.00 10.14L197.00 10.14Q198.33 11.99 198.33 14.67L198.33 14.67Q198.33 17.40 197.03 19.22L197.03 19.22Q195.32 21.60 192.08 21.60L192.08 21.60Q189.30 21.60 187.61 19.78L187.61 19.78Q185.85 17.89 185.85 14.67L185.85 14.67Q185.85 11.65 187.49 9.74L187.49 9.74Q189.25 7.68 192.11 7.68ZM192.06 8.82L192.06 8.82Q190.46 8.82 189.33 10.00L189.33 10.00Q187.77 11.58 187.77 14.61L187.77 14.61Q187.77 17.06 189.07 18.77L189.07 18.77Q190.34 20.45 192.09 20.45L192.09 20.45Q193.70 20.45 194.94 18.98L194.94 18.98Q196.41 17.24 196.41 14.60L196.41 14.60Q196.41 12.16 195.34 10.59L195.34 10.59Q194.13 8.82 192.06 8.82ZM208.31 15.19L217.68 2.52L218.92 2.52L218.92 15L222.42 15L222.42 16.42L218.92 16.42L218.92 18.36Q218.92 19.39 219.33 19.75L219.33 19.75Q219.79 20.14 221.32 20.25L221.32 20.25L221.32 21.12L214.70 21.12L214.70 20.25Q216.30 20.14 216.81 19.75L216.81 19.75Q217.27 19.39 217.27 18.36L217.27 18.36L217.27 16.42L208.31 16.42L208.31 15.19ZM217.27 15L217.27 5.16L210.07 15L217.27 15ZM232.05 2.41L232.05 2.41Q234.83 2.41 236.60 5.19L236.60 5.19Q238.36 7.96 238.36 12.29L238.36 12.29Q238.36 15.54 237.29 17.85L237.29 17.85Q236.70 19.15 235.80 20.02L235.80 20.02Q234.21 21.57 232.01 21.57L232.01 21.57Q228.93 21.57 227.18 18.63L227.18 18.63Q225.69 16.15 225.69 12.30L225.69 12.30Q225.69 7.99 227.43 5.23L227.43 5.23Q229.20 2.41 232.05 2.41ZM232.01 3.45L232.01 3.45Q230.23 3.45 229.07 5.44L229.07 5.44Q227.68 7.83 227.68 12.29L227.68 12.29Q227.68 15.66 228.57 17.77L228.57 17.77Q229.73 20.54 232.03 20.54L232.03 20.54Q234.09 20.54 235.27 18.23L235.27 18.23Q236.37 16.07 236.37 12.28L236.37 12.28Q236.37 7.71 234.90 5.31L234.90 5.31Q233.77 3.45 232.01 3.45ZM248.38 2.41L248.38 2.41Q251.16 2.41 252.93 5.19L252.93 5.19Q254.68 7.96 254.68 12.29L254.68 12.29Q254.68 15.54 253.62 17.85L253.62 17.85Q253.02 19.15 252.13 20.02L252.13 20.02Q250.54 21.57 248.33 21.57L248.33 21.57Q245.25 21.57 243.50 18.63L243.50 18.63Q242.02 16.15 242.02 12.30L242.02 12.30Q242.02 7.99 243.75 5.23L243.75 5.23Q245.52 2.41 248.38 2.41ZM248.33 3.45L248.33 3.45Q246.55 3.45 245.39 5.44L245.39 5.44Q244.01 7.83 244.01 12.29L244.01 12.29Q244.01 15.66 244.90 17.77L244.90 17.77Q246.06 20.54 248.36 20.54L248.36 20.54Q250.42 20.54 251.59 18.23L251.59 18.23Q252.69 16.07 252.69 12.28L252.69 12.28Q252.69 7.71 251.23 5.31L251.23 5.31Q250.09 3.45 248.33 3.45ZM270.98 21.12L265.09 21.12L265.09 20.25Q266.44 20.19 266.86 19.79L266.86 19.79Q267.29 19.39 267.29 18.33L267.29 18.33L267.29 10.72Q267.29 9.68 266.84 9.35L266.84 9.35Q266.50 9.12 265.16 9.02L265.16 9.02L265.16 8.16Q267.25 8.16 268.97 7.68L268.97 7.68L268.97 9.96Q269.74 8.88 270.97 8.24L270.97 8.24Q272.06 7.68 273.16 7.68L273.16 7.68Q275.40 7.68 276.71 9.29L276.71 9.29Q277.78 10.62 277.78 12.96L277.78 12.96L277.78 18.33Q277.78 19.45 278.23 19.83L278.23 19.83Q278.64 20.18 280.01 20.25L280.01 20.25L280.01 21.12L274.07 21.12L274.07 20.25Q275.29 20.18 275.72 19.79L275.72 19.79Q276.11 19.45 276.11 18.33L276.11 18.33L276.11 12.89Q276.11 11.14 275.24 10.09L275.24 10.09Q274.41 9.07 273.01 9.07L273.01 9.07Q270.81 9.07 268.97 11.75L268.97 11.75L268.97 18.33Q268.97 19.43 269.38 19.79L269.38 19.79Q269.79 20.17 270.98 20.25L270.98 20.25L270.98 21.12ZM287.81 7.68L287.81 7.68Q290.95 7.68 292.71 10.14L292.71 10.14Q294.04 11.99 294.04 14.67L294.04 14.67Q294.04 17.40 292.73 19.22L292.73 19.22Q291.02 21.60 287.79 21.60L287.79 21.60Q285.01 21.60 283.31 19.78L283.31 19.78Q281.55 17.89 281.55 14.67L281.55 14.67Q281.55 11.65 283.20 9.74L283.20 9.74Q284.95 7.68 287.81 7.68ZM287.77 8.82L287.77 8.82Q286.17 8.82 285.04 10.00L285.04 10.00Q283.48 11.58 283.48 14.61L283.48 14.61Q283.48 17.06 284.78 18.77L284.78 18.77Q286.04 20.45 287.80 20.45L287.80 20.45Q289.41 20.45 290.65 18.98L290.65 18.98Q292.11 17.24 292.11 14.60L292.11 14.60Q292.11 12.16 291.05 10.59L291.05 10.59Q289.84 8.82 287.77 8.82ZM301.89 21.12L295.61 21.12L295.61 20.25Q297.09 20.21 297.48 19.78L297.48 19.78Q297.83 19.39 297.83 18.33L297.83 18.33L297.83 10.72Q297.83 9.73 297.40 9.41L297.40 9.41Q297 9.11 295.68 9.02L295.68 9.02L295.68 8.16Q297.46 8.16 299.43 7.68L299.43 7.68L299.43 10.39Q300.14 9.23 301.57 8.38L301.57 8.38Q302.73 7.68 304.05 7.68L304.05 7.68Q305.00 7.68 305.60 8.16L305.60 8.16Q306.28 8.71 306.28 9.68L306.28 9.68Q306.28 10.25 305.94 10.63L305.94 10.63Q305.57 11.04 304.95 11.04L304.95 11.04Q304.57 11.04 304.27 10.84L304.27 10.84Q303.66 10.44 303.66 9.71L303.66 9.71Q303.66 9.34 303.90 8.98L303.90 8.98Q302.82 9 301.77 9.76L301.77 9.76Q300.39 10.76 299.51 12.30L299.51 12.30L299.51 18.33Q299.51 19.45 299.92 19.82L299.92 19.82Q300.36 20.23 301.89 20.25L301.89 20.25L301.89 21.12ZM312.45 21.12L306.97 21.12L306.97 20.25Q308.12 20.21 308.55 19.82L308.55 19.82Q308.94 19.48 308.94 18.33L308.94 18.33L308.94 10.88Q308.94 9.77 308.59 9.43L308.59 9.43Q308.18 9.05 307.16 9.02L307.16 9.02L307.16 8.16Q308.74 8.12 310.48 7.68L310.48 7.68L310.48 9.89Q312.21 7.68 314.45 7.68L314.45 7.68Q316.88 7.68 317.86 10.22L317.86 10.22Q319.66 7.68 321.98 7.68L321.98 7.68Q323.57 7.68 324.67 8.91L324.67 8.91Q325.82 10.20 325.82 12.35L325.82 12.35L325.82 18.33Q325.82 19.48 326.24 19.86L326.24 19.86Q326.64 20.21 327.74 20.25L327.74 20.25L327.74 21.12L322.29 21.12L322.29 20.25Q323.37 20.20 323.80 19.82L323.80 19.82Q324.19 19.48 324.19 18.33L324.19 18.33L324.19 13.05Q324.19 11.07 323.46 10.08L323.46 10.08Q322.73 9.07 321.46 9.07L321.46 9.07Q319.63 9.07 318.15 11.75L318.15 11.75L318.15 18.33Q318.15 19.42 318.56 19.82L318.56 19.82Q318.95 20.20 320.07 20.25L320.07 20.25L320.07 21.12L314.72 21.12L314.72 20.25Q315.86 20.20 316.25 19.76L316.25 19.76Q316.59 19.37 316.59 18.33L316.59 18.33L316.59 13.05Q316.59 9.07 313.86 9.07L313.86 9.07Q312.04 9.07 310.57 11.75L310.57 11.75L310.57 18.33Q310.57 19.48 310.99 19.86L310.99 19.86Q311.39 20.20 312.45 20.25L312.45 20.25L312.45 21.12ZM337.70 12.74L338.71 12.69L338.71 12.33Q338.71 10.62 337.96 9.82L337.96 9.82Q337.57 9.41 336.87 9.13L336.87 9.13Q336.04 8.80 335.14 8.80L335.14 8.80Q333.71 8.80 332.79 9.26L332.79 9.26Q332.32 9.48 332.18 9.76L332.18 9.76Q332.85 10.02 332.85 10.92L332.85 10.92Q332.85 11.36 332.61 11.68L332.61 11.68Q332.25 12.19 331.57 12.19L331.57 12.19Q331.03 12.19 330.67 11.78L330.67 11.78Q330.28 11.33 330.28 10.64L330.28 10.64Q330.28 9.50 331.62 8.65L331.62 8.65Q333.12 7.68 335.21 7.68L335.21 7.68Q337.29 7.68 338.68 8.58L338.68 8.58Q340.36 9.67 340.36 12.83L340.36 12.83L340.36 18.23Q340.36 19.90 341.11 19.90L341.11 19.90Q341.78 19.90 342.35 18.69L342.35 18.69L343.04 19.58Q342.21 21.55 340.77 21.55L340.77 21.55Q338.88 21.55 338.73 19.03L338.73 19.03Q337.27 21.55 333.67 21.55L333.67 21.55Q331.62 21.55 330.46 20.09L330.46 20.09Q329.66 19.07 329.66 17.66L329.66 17.66Q329.66 15.42 331.90 14.16L331.90 14.16Q334.07 12.91 337.70 12.74L337.70 12.74ZM338.71 16.84L338.71 13.90L337.82 13.95Q334.75 14.11 333.09 15.02L333.09 15.02Q331.51 15.89 331.51 17.57L331.51 17.57Q331.51 18.66 332.10 19.30L332.10 19.30Q332.78 20.06 334.13 20.06L334.13 20.06Q335.45 20.06 336.67 19.43L336.67 19.43Q337.96 18.76 338.47 17.77L338.47 17.77Q338.71 17.30 338.71 16.84L338.71 16.84ZM350.43 21.12L344.30 21.12L344.30 20.25Q345.75 20.19 346.16 19.76L346.16 19.76Q346.52 19.37 346.52 18.33L346.52 18.33L346.52 5.44Q346.52 4.41 346.07 4.08L346.07 4.08Q345.67 3.79 344.37 3.74L344.37 3.74L344.37 2.87Q346.50 2.86 348.22 2.39L348.22 2.39L348.22 18.33Q348.22 19.46 348.66 19.84L348.66 19.84Q349.04 20.18 350.43 20.25L350.43 20.25L350.43 21.12Z"/></svg>