<svg xmlns="http://www.w3.org/2000/svg" xmlns:xlink="http://www.w3.org/1999/xlink" width="45.59999999999999" height="33.6"><path fill="black" d="M0.60 11.04L0.60 11.04Q0.60 11.18 0.68 11.33Q0.77 11.47 0.91 11.56Q1.06 11.64 1.20 11.64L1.20 11.64Q1.34 11.64 1.49 11.56Q1.63 11.47 1.72 11.33Q1.80 11.18 1.80 11.04L1.80 11.04Q1.80 10.90 1.72 10.75Q1.63 10.61 1.49 10.52Q1.34 10.44 1.20 10.44L1.20 10.44Q1.06 10.44 0.91 10.52Q0.77 10.61 0.68 10.75Q0.60 10.90 0.60 11.04ZM3 24.96L3 24.96Q3 25.10 3.08 25.25Q3.17 25.39 3.31 25.48Q3.46 25.56 3.60 25.56L3.60 25.56Q3.74 25.56 3.89 25.48Q4.03 25.39 4.12 25.25Q4.20 25.10 4.20 24.96L4.20 24.96Q4.20 24.82 4.12 24.67Q4.03 24.53 3.89 24.44Q3.74 24.36 3.60 24.36L3.60 24.36Q3.46 24.36 3.31 24.44Q3.17 24.53 3.08 24.67Q3 24.82 3 24.96ZM5.40 22.56L5.40 22.56Q5.40 22.70 5.48 22.85Q5.57 22.99 5.71 23.08Q5.86 23.16 6 23.16L6 23.16Q6.14 23.16 6.29 23.08Q6.43 22.99 6.52 22.85Q6.60 22.70 6.60 22.56L6.60 22.56Q6.60 22.42 6.52 22.27Q6.43 22.13 6.29 22.04Q6.14 21.96 6 21.96L6 21.96Q5.86 21.96 5.71 22.04Q5.57 22.13 5.48 22.27Q5.40 22.42 5.40 22.56ZM7.80 26.88L7.80 26.88Q7.80 27.02 7.88 27.17Q7.97 27.31 8.11 27.40Q8.26 27.48 8.40 27.48L8.40 27.48Q8.54 27.48 8.69 27.40Q8.83 27.31 8.92 27.17Q9 27.02 9 26.88L9 26.88Q9 26.74 8.92 26.59Q8.83 26.45 8.69 26.36Q8.54 26.28 8.40 26.28L8.40 26.28Q8.26 26.28 8.11 26.36Q7.97 26.45 7.88 26.59Q7.80 26.74 7.80 26.88ZM10.20 26.40L10.20 26.40Q10.20 26.54 10.28 26.69Q10.37 26.83 10.51 26.92Q10.66 27 10.80 27L10.80 27Q10.94 27 11.09 26.92Q11.23 26.83 11.32 26.69Q11.40 26.54 11.40 26.40L11.40 26.40Q11.40 26.26 11.32 26.11Q11.23 25.97 11.09 25.88Q10.94 25.80 10.80 25.80L10.80 25.80Q10.66 25.80 10.51 25.88Q10.37 25.97 10.28 26.11Q10.20 26.26 10.20 26.40ZM12.60 22.08L12.60 22.08Q12.60 22.22 12.68 22.37Q12.77 22.51 12.91 22.60Q13.06 22.68 13.20 22.68L13.20 22.68Q13.34 22.68 13.49 22.60Q13.63 22.51 13.72 22.37Q13.80 22.22 13.80 22.08L13.80 22.08Q13.80 21.94 13.72 21.79Q13.63 21.65 13.49 21.56Q13.34 21.48 13.20 21.48L13.20 21.48Q13.06 21.48 12.91 21.56Q12.77 21.65 12.68 21.79Q12.60 21.94 12.60 22.08ZM15 22.56L15 22.56Q15 22.70 15.08 22.85Q15.17 22.99 15.31 23.08Q15.46 23.16 15.60 23.16L15.60 23.16Q15.74 23.16 15.89 23.08Q16.03 22.99 16.12 22.85Q16.20 22.70 16.20 22.56L16.20 22.56Q16.20 22.42 16.12 22.27Q16.03 22.13 15.89 22.04Q15.74 21.96 15.60 21.96L15.60 21.96Q15.46 21.96 15.31 22.04Q15.17 22.13 15.08 22.27Q15 22.42 15 22.56ZM17.40 19.68L17.40 19.68Q17.40 19.82 17.48 19.97Q17.57 20.11 17.71 20.20Q17.86 20.28 18 20.28L18 20.28Q18.14 20.28 18.29 20.20Q18.43 20.11 18.52 19.97Q18.60 19.82 18.60 19.68L18.60 19.68Q18.60 19.54 18.52 19.39Q18.43 19.25 18.29 19.16Q18.14 19.08 18 19.08L18 19.08Q17.86 19.08 17.71 19.16Q17.57 19.25 17.48 19.39Q17.40 19.54 17.40 19.68ZM22.20 24L22.20 24Q22.20 24.14 22.28 24.29Q22.37 24.43 22.51 24.52Q22.66 24.60 22.80 24.60L22.80 24.60Q22.94 24.60 23.09 24.52Q23.23 24.43 23.32 24.29Q23.40 24.14 23.40 24L23.40 24Q23.40 23.86 23.32 23.71Q23.23 23.57 23.09 23.48Q22.94 23.40 22.80 23.40L22.80 23.40Q22.66 23.40 22.51 23.48Q22.37 23.57 22.28 23.71Q22.20 23.86 22.20 24ZM24.60 28.56L24.60 28.56Q24.60 28.70 24.68 28.85Q24.77 28.99 24.91 29.08Q25.06 29.16 25.20 29.16L25.20 29.16Q25.34 29.16 25.49 29.08Q25.63 28.99 25.72 28.85Q25.80 28.70 25.80 28.56L25.80 28.56Q25.80 28.42 25.72 28.27Q25.63 28.13 25.49 28.04Q25.34 27.96 25.20 27.96L25.20 27.96Q25.06 27.96 24.91 28.04Q24.77 28.13 24.68 28.27Q24.60 28.42 24.60 28.56ZM27.00 28.56L27.00 28.56Q27.00 28.70 27.08 28.85Q27.17 28.99 27.31 29.08Q27.46 29.16 27.60 29.16L27.60 29.16Q27.74 29.16 27.89 29.08Q28.03 28.99 28.12 28.85Q28.20 28.70 28.20 28.56L28.20 28.56Q28.20 28.42 28.12 28.27Q28.03 28.13 27.89 28.04Q27.74 27.96 27.60 27.96L27.60 27.96Q27.46 27.96 27.31 28.04Q27.17 28.13 27.08 28.27Q27.00 28.42 27.00 28.56ZM31.80 22.56L31.80 22.56Q31.80 22.70 31.88 22.85Q31.97 22.99 32.11 23.08Q32.26 23.16 32.40 23.16L32.40 23.16Q32.54 23.16 32.69 23.08Q32.83 22.99 32.92 22.85Q33.00 22.70 33.00 22.56L33.00 22.56Q33.00 22.42 32.92 22.27Q32.83 22.13 32.69 22.04Q32.54 21.96 32.40 21.96L32.40 21.96Q32.26 21.96 32.11 22.04Q31.97 22.13 31.88 22.27Q31.80 22.42 31.80 22.56ZM34.20 22.08L34.20 22.08Q34.20 22.22 34.28 22.37Q34.37 22.51 34.51 22.60Q34.66 22.68 34.80 22.68L34.80 22.68Q34.94 22.68 35.09 22.60Q35.23 22.51 35.32 22.37Q35.40 22.22 35.40 22.08L35.40 22.08Q35.40 21.94 35.32 21.79Q35.23 21.65 35.09 21.56Q34.94 21.48 34.80 21.48L34.80 21.48Q34.66 21.48 34.51 21.56Q34.37 21.65 34.28 21.79Q34.20 21.94 34.20 22.08ZM36.60 20.64L36.60 20.64Q36.60 20.78 36.68 20.93Q36.77 21.07 36.91 21.16Q37.06 21.24 37.20 21.24L37.20 21.24Q37.34 21.24 37.49 21.16Q37.63 21.07 37.72 20.93Q37.80 20.78 37.80 20.64L37.80 20.64Q37.80 20.50 37.72 20.35Q37.63 20.21 37.49 20.12Q37.34 20.04 37.20 20.04L37.20 20.04Q37.06 20.04 36.91 20.12Q36.77 20.21 36.68 20.35Q36.60 20.50 36.60 20.64ZM39.00 23.04L39.00 23.04Q39.00 23.18 39.08 23.33Q39.17 23.47 39.31 23.56Q39.46 23.64 39.60 23.64L39.60 23.64Q39.74 23.64 39.89 23.56Q40.03 23.47 40.12 23.33Q40.20 23.18 40.20 23.04L40.20 23.04Q40.20 22.90 40.12 22.75Q40.03 22.61 39.89 22.52Q39.74 22.44 39.60 22.44L39.60 22.44Q39.46 22.44 39.31 22.52Q39.17 22.61 39.08 22.75Q39.00 22.90 39.00 23.04ZM41.40 28.56L41.40 28.56Q41.40 28.70 41.48 28.85Q41.57 28.99 41.71 29.08Q41.86 29.16 42.00 29.16L42.00 29.16Q42.14 29.16 42.29 29.08Q42.43 28.99 42.52 28.85Q42.60 28.70 42.60 28.56L42.60 28.56Q42.60 28.42 42.52 28.27Q42.43 28.13 42.29 28.04Q42.14 27.96 42.00 27.96L42.00 27.96Q41.86 27.96 41.71 28.04Q41.57 28.13 41.48 28.27Q41.40 28.42 41.40 28.56ZM43.80 23.52L43.80 23.52Q43.80 23.66 43.88 23.81Q43.97 23.95 44.11 24.04Q44.26 24.12 44.40 24.12L44.40 24.12Q44.54 24.12 44.69 24.04Q44.83 23.95 44.92 23.81Q45.00 23.66 45.00 23.52L45.00 23.52Q45.00 23.38 44.92 23.23Q44.83 23.09 44.69 23.00Q44.54 22.92 44.40 22.92L44.40 22.92Q44.26 22.92 44.11 23.00Q43.97 23.09 43.88 23.23Q43.80 23.38 43.80 23.52Z"/></svg>