<svg xmlns="http://www.w3.org/2000/svg" xmlns:xlink="http://www.w3.org/1999/xlink" width="345.86400000000003" height="32.688"><path fill="black" d="M16.80 8.52L16.80 25.66L12.98 25.66L4.87 12.22L4.78 12.22Q4.82 13.30 4.90 14.53Q4.97 15.77 4.99 17.02L4.99 17.02L4.99 25.66L2.23 25.66L2.23 8.52L6.02 8.52L14.11 21.86L14.18 21.86Q14.16 21.24 14.14 20.45Q14.11 19.66 14.08 18.83Q14.04 18 14.02 17.23L14.02 17.23L14.02 8.52L16.80 8.52ZM32.59 19.13L32.59 19.13Q32.59 22.37 30.91 24.13Q29.23 25.90 26.35 25.90L26.35 25.90Q24.58 25.90 23.20 25.10Q21.82 24.31 21.01 22.80Q20.21 21.29 20.21 19.13L20.21 19.13Q20.21 15.89 21.88 14.15Q23.54 12.41 26.42 12.41L26.42 12.41Q28.25 12.41 29.63 13.19Q31.01 13.97 31.80 15.47Q32.59 16.97 32.59 19.13ZM23.30 19.13L23.30 19.13Q23.30 21.19 24.04 22.32Q24.77 23.45 26.40 23.45L26.40 23.45Q28.03 23.45 28.76 22.32Q29.50 21.19 29.50 19.13L29.50 19.13Q29.50 17.06 28.76 15.96Q28.03 14.86 26.40 14.86L26.40 14.86Q24.77 14.86 24.04 15.96Q23.30 17.06 23.30 19.13ZM40.75 23.47L40.75 23.47Q41.33 23.47 41.86 23.36Q42.38 23.26 42.84 23.11L42.84 23.11L42.84 25.37Q42.36 25.58 41.59 25.74Q40.82 25.90 39.98 25.90L39.98 25.90Q38.88 25.90 37.98 25.52Q37.08 25.15 36.54 24.24Q36 23.33 36 21.70L36 21.70L36 14.93L34.25 14.93L34.25 13.61L36.17 12.55L37.13 9.79L39.02 9.79L39.02 12.65L42.72 12.65L42.72 14.93L39.02 14.93L39.02 21.67Q39.02 22.58 39.50 23.03Q39.98 23.47 40.75 23.47ZM57.07 19.13L57.07 19.13Q57.07 22.37 55.39 24.13Q53.71 25.90 50.83 25.90L50.83 25.90Q49.06 25.90 47.68 25.10Q46.30 24.31 45.49 22.80Q44.69 21.29 44.69 19.13L44.69 19.13Q44.69 15.89 46.36 14.15Q48.02 12.41 50.90 12.41L50.90 12.41Q52.73 12.41 54.11 13.19Q55.49 13.97 56.28 15.47Q57.07 16.97 57.07 19.13ZM47.78 19.13L47.78 19.13Q47.78 21.19 48.52 22.32Q49.25 23.45 50.88 23.45L50.88 23.45Q52.51 23.45 53.24 22.32Q53.98 21.19 53.98 19.13L53.98 19.13Q53.98 17.06 53.24 15.96Q52.51 14.86 50.88 14.86L50.88 14.86Q49.25 14.86 48.52 15.96Q47.78 17.06 47.78 19.13ZM76.68 20.98L76.68 20.98Q76.68 23.26 75.02 24.58Q73.37 25.90 70.44 25.90L70.44 25.90Q69.07 25.90 67.84 25.66Q66.60 25.42 65.64 24.94L65.64 24.94L65.64 22.06Q66.72 22.54 68.02 22.93Q69.31 23.33 70.66 23.33L70.66 23.33Q72.22 23.33 72.92 22.73Q73.63 22.13 73.63 21.14L73.63 21.14Q73.63 20.42 73.22 19.92Q72.82 19.42 72.02 18.98Q71.23 18.55 70.06 18.07L70.06 18.07Q69.26 17.74 68.51 17.32Q67.75 16.90 67.15 16.30Q66.55 15.70 66.19 14.88Q65.83 14.06 65.83 12.96L65.83 12.96Q65.83 11.50 66.54 10.44Q67.25 9.38 68.53 8.83Q69.82 8.28 71.52 8.28L71.52 8.28Q72.89 8.28 74.09 8.57Q75.29 8.86 76.46 9.38L76.46 9.38L75.48 11.86Q74.42 11.40 73.44 11.14Q72.46 10.87 71.42 10.87L71.42 10.87Q70.18 10.87 69.53 11.44Q68.88 12.00 68.88 12.89L68.88 12.89Q68.88 13.58 69.24 14.06Q69.60 14.54 70.36 14.96Q71.11 15.38 72.31 15.91L72.31 15.91Q73.70 16.51 74.66 17.16Q75.62 17.81 76.15 18.72Q76.68 19.63 76.68 20.98ZM84.82 12.41L84.82 12.41Q87.34 12.41 88.64 13.50Q89.95 14.59 89.95 16.92L89.95 16.92L89.95 25.66L87.82 25.66L87.22 23.86L87.12 23.86Q86.28 24.91 85.36 25.40Q84.43 25.90 82.80 25.90L82.80 25.90Q81.05 25.90 79.90 24.91Q78.74 23.93 78.74 21.86L78.74 21.86Q78.74 19.85 80.22 18.83Q81.70 17.81 84.70 17.71L84.70 17.71L86.95 17.64L86.95 16.99Q86.95 15.74 86.35 15.22Q85.75 14.69 84.67 14.69L84.67 14.69Q83.69 14.69 82.78 14.98Q81.86 15.26 81 15.65L81 15.65L80.04 13.54Q81 13.03 82.24 12.72Q83.47 12.41 84.82 12.41ZM86.95 19.51L85.37 19.56Q83.38 19.63 82.61 20.24Q81.84 20.86 81.84 21.89L81.84 21.89Q81.84 22.80 82.39 23.21Q82.94 23.62 83.81 23.62L83.81 23.62Q85.13 23.62 86.04 22.86Q86.95 22.10 86.95 20.62L86.95 20.62L86.95 19.51ZM100.70 12.41L100.70 12.41Q102.89 12.41 104.12 13.54Q105.36 14.66 105.36 17.18L105.36 17.18L105.36 25.66L102.34 25.66L102.34 17.78Q102.34 16.32 101.76 15.59Q101.18 14.86 99.94 14.86L99.94 14.86Q98.11 14.86 97.44 16.00Q96.77 17.14 96.77 19.30L96.77 19.30L96.77 25.66L93.74 25.66L93.74 12.65L96.07 12.65L96.50 14.35L96.67 14.35Q97.30 13.34 98.39 12.88Q99.48 12.41 100.70 12.41ZM118.01 21.89L118.01 21.89Q118.01 23.83 116.60 24.86Q115.20 25.90 112.58 25.90L112.58 25.90Q111.22 25.90 110.23 25.70Q109.25 25.51 108.36 25.10L108.36 25.10L108.36 22.54Q109.32 22.99 110.50 23.30Q111.67 23.62 112.68 23.62L112.68 23.62Q113.93 23.62 114.48 23.23Q115.03 22.85 115.03 22.20L115.03 22.20Q115.03 21.82 114.82 21.50Q114.60 21.19 113.98 20.84Q113.35 20.50 112.08 19.97L112.08 19.97Q110.83 19.46 110.00 18.96Q109.18 18.46 108.76 17.75Q108.34 17.04 108.34 15.96L108.34 15.96Q108.34 14.21 109.73 13.31Q111.12 12.41 113.40 12.41L113.40 12.41Q114.60 12.41 115.67 12.64Q116.74 12.86 117.82 13.37L117.82 13.37L116.86 15.60Q115.97 15.22 115.09 14.95Q114.22 14.69 113.30 14.69L113.30 14.69Q112.32 14.69 111.82 14.99Q111.31 15.29 111.31 15.82L111.31 15.82Q111.31 16.22 111.56 16.52Q111.82 16.82 112.45 17.12Q113.09 17.42 114.26 17.90L114.26 17.90Q115.44 18.36 116.27 18.85Q117.10 19.34 117.55 20.06Q118.01 20.78 118.01 21.89ZM133.58 11.11L133.58 25.66L130.51 25.66L130.51 11.11L125.59 11.11L125.59 8.52L138.50 8.52L138.50 11.11L133.58 11.11ZM144.10 12.41L144.10 12.41Q146.62 12.41 147.92 13.50Q149.23 14.59 149.23 16.92L149.23 16.92L149.23 25.66L147.10 25.66L146.50 23.86L146.40 23.86Q145.56 24.91 144.64 25.40Q143.71 25.90 142.08 25.90L142.08 25.90Q140.33 25.90 139.18 24.91Q138.02 23.93 138.02 21.86L138.02 21.86Q138.02 19.85 139.50 18.83Q140.98 17.81 143.98 17.71L143.98 17.71L146.23 17.64L146.23 16.99Q146.23 15.74 145.63 15.22Q145.03 14.69 143.95 14.69L143.95 14.69Q142.97 14.69 142.06 14.98Q141.14 15.26 140.28 15.65L140.28 15.65L139.32 13.54Q140.28 13.03 141.52 12.72Q142.75 12.41 144.10 12.41ZM146.23 19.51L144.65 19.56Q142.66 19.63 141.89 20.24Q141.12 20.86 141.12 21.89L141.12 21.89Q141.12 22.80 141.67 23.21Q142.22 23.62 143.09 23.62L143.09 23.62Q144.41 23.62 145.32 22.86Q146.23 22.10 146.23 20.62L146.23 20.62L146.23 19.51ZM159.98 12.41L159.98 12.41Q162.17 12.41 163.40 13.54Q164.64 14.66 164.64 17.18L164.64 17.18L164.64 25.66L161.62 25.66L161.62 17.78Q161.62 16.32 161.04 15.59Q160.46 14.86 159.22 14.86L159.22 14.86Q157.39 14.86 156.72 16.00Q156.05 17.14 156.05 19.30L156.05 19.30L156.05 25.66L153.02 25.66L153.02 12.65L155.35 12.65L155.78 14.35L155.95 14.35Q156.58 13.34 157.67 12.88Q158.76 12.41 159.98 12.41ZM172.80 12.41L172.80 12.41Q174.02 12.41 175.01 12.89Q175.99 13.37 176.66 14.33L176.66 14.33L176.78 14.33L177.07 12.65L179.59 12.65L179.59 25.75Q179.59 28.54 178.02 29.98Q176.45 31.42 173.33 31.42L173.33 31.42Q171.94 31.42 170.76 31.24Q169.58 31.06 168.53 30.62L168.53 30.62L168.53 28.13Q170.76 29.14 173.52 29.14L173.52 29.14Q175.01 29.14 175.79 28.30Q176.57 27.46 176.57 25.90L176.57 25.90L176.57 25.56Q176.57 25.20 176.60 24.72Q176.64 24.24 176.66 23.95L176.66 23.95L176.57 23.95Q175.90 24.96 174.94 25.43Q173.98 25.90 172.73 25.90L172.73 25.90Q170.35 25.90 169.01 24.12Q167.66 22.34 167.66 19.18L167.66 19.18Q167.66 16.01 169.03 14.21Q170.40 12.41 172.80 12.41ZM173.59 14.88L173.59 14.88Q172.22 14.88 171.49 15.97Q170.76 17.06 170.76 19.22L170.76 19.22Q170.76 21.34 171.48 22.42Q172.20 23.50 173.64 23.50L173.64 23.50Q175.22 23.50 175.98 22.62Q176.74 21.74 176.74 19.66L176.74 19.66L176.74 19.20Q176.74 16.87 175.98 15.88Q175.22 14.88 173.59 14.88ZM192.31 21.89L192.31 21.89Q192.31 23.83 190.91 24.86Q189.50 25.90 186.89 25.90L186.89 25.90Q185.52 25.90 184.54 25.70Q183.55 25.51 182.66 25.10L182.66 25.10L182.66 22.54Q183.62 22.99 184.80 23.30Q185.98 23.62 186.98 23.62L186.98 23.62Q188.23 23.62 188.78 23.23Q189.34 22.85 189.34 22.20L189.34 22.20Q189.34 21.82 189.12 21.50Q188.90 21.19 188.28 20.84Q187.66 20.50 186.38 19.97L186.38 19.97Q185.14 19.46 184.31 18.96Q183.48 18.46 183.06 17.75Q182.64 17.04 182.64 15.96L182.64 15.96Q182.64 14.21 184.03 13.31Q185.42 12.41 187.70 12.41L187.70 12.41Q188.90 12.41 189.97 12.64Q191.04 12.86 192.12 13.37L192.12 13.37L191.16 15.60Q190.27 15.22 189.40 14.95Q188.52 14.69 187.61 14.69L187.61 14.69Q186.62 14.69 186.12 14.99Q185.62 15.29 185.62 15.82L185.62 15.82Q185.62 16.22 185.87 16.52Q186.12 16.82 186.76 17.12Q187.39 17.42 188.57 17.90L188.57 17.90Q189.74 18.36 190.57 18.85Q191.40 19.34 191.86 20.06Q192.31 20.78 192.31 21.89ZM200.40 12.41L200.40 12.41Q202.92 12.41 204.23 13.50Q205.54 14.59 205.54 16.92L205.54 16.92L205.54 25.66L203.40 25.66L202.80 23.86L202.70 23.86Q201.86 24.91 200.94 25.40Q200.02 25.90 198.38 25.90L198.38 25.90Q196.63 25.90 195.48 24.91Q194.33 23.93 194.33 21.86L194.33 21.86Q194.33 19.85 195.80 18.83Q197.28 17.81 200.28 17.71L200.28 17.71L202.54 17.64L202.54 16.99Q202.54 15.74 201.94 15.22Q201.34 14.69 200.26 14.69L200.26 14.69Q199.27 14.69 198.36 14.98Q197.45 15.26 196.58 15.65L196.58 15.65L195.62 13.54Q196.58 13.03 197.82 12.72Q199.06 12.41 200.40 12.41ZM202.54 19.51L200.95 19.56Q198.96 19.63 198.19 20.24Q197.42 20.86 197.42 21.89L197.42 21.89Q197.42 22.80 197.98 23.21Q198.53 23.62 199.39 23.62L199.39 23.62Q200.71 23.62 201.62 22.86Q202.54 22.10 202.54 20.62L202.54 20.62L202.54 19.51ZM214.66 18.36L214.66 18.36Q214.66 16.87 214.86 15.43Q215.06 13.99 215.59 12.71Q216.12 11.42 217.07 10.43Q218.02 9.43 219.46 8.87Q220.90 8.30 222.96 8.30L222.96 8.30Q223.46 8.30 224.11 8.35Q224.76 8.40 225.19 8.50L225.19 8.50L225.19 10.99Q224.74 10.85 224.20 10.79Q223.66 10.73 223.13 10.73L223.13 10.73Q221.50 10.73 220.43 11.17Q219.36 11.62 218.75 12.43Q218.14 13.25 217.86 14.32Q217.58 15.38 217.51 16.68L217.51 16.68L217.66 16.68Q218.16 15.84 219.10 15.25Q220.03 14.66 221.52 14.66L221.52 14.66Q223.75 14.66 225.10 16.06Q226.44 17.45 226.44 20.02L226.44 20.02Q226.44 22.75 224.90 24.32Q223.37 25.90 220.75 25.90L220.75 25.90Q219.05 25.90 217.67 25.08Q216.29 24.26 215.47 22.60Q214.66 20.93 214.66 18.36ZM220.70 23.42L220.70 23.42Q221.93 23.42 222.70 22.60Q223.46 21.77 223.46 20.04L223.46 20.04Q223.46 18.65 222.79 17.84Q222.12 17.04 220.78 17.04L220.78 17.04Q219.84 17.04 219.16 17.44Q218.47 17.83 218.09 18.44Q217.70 19.06 217.70 19.70L217.70 19.70Q217.70 20.59 218.03 21.44Q218.35 22.30 219.02 22.86Q219.70 23.42 220.70 23.42ZM240.07 17.09L240.07 17.09Q240.07 19.82 239.50 21.80Q238.92 23.78 237.64 24.84Q236.35 25.90 234.19 25.90L234.19 25.90Q231.17 25.90 229.75 23.56Q228.34 21.22 228.34 17.06L228.34 17.06Q228.34 14.30 228.91 12.34Q229.49 10.37 230.77 9.31Q232.06 8.26 234.19 8.26L234.19 8.26Q237.19 8.26 238.63 10.57Q240.07 12.89 240.07 17.09ZM231.38 17.06L231.38 17.06Q231.38 20.23 232.00 21.82Q232.61 23.40 234.19 23.40L234.19 23.40Q235.75 23.40 236.39 21.83Q237.02 20.26 237.02 17.06L237.02 17.06Q237.02 13.94 236.39 12.35Q235.75 10.75 234.19 10.75L234.19 10.75Q232.61 10.75 232.00 12.35Q231.38 13.94 231.38 17.06ZM253.80 17.09L253.80 17.09Q253.80 19.82 253.22 21.80Q252.65 23.78 251.36 24.84Q250.08 25.90 247.92 25.90L247.92 25.90Q244.90 25.90 243.48 23.56Q242.06 21.22 242.06 17.06L242.06 17.06Q242.06 14.30 242.64 12.34Q243.22 10.37 244.50 9.31Q245.78 8.26 247.92 8.26L247.92 8.26Q250.92 8.26 252.36 10.57Q253.80 12.89 253.80 17.09ZM245.11 17.06L245.11 17.06Q245.11 20.23 245.72 21.82Q246.34 23.40 247.92 23.40L247.92 23.40Q249.48 23.40 250.12 21.83Q250.75 20.26 250.75 17.06L250.75 17.06Q250.75 13.94 250.12 12.35Q249.48 10.75 247.92 10.75L247.92 10.75Q246.34 10.75 245.72 12.35Q245.11 13.94 245.11 17.06ZM269.95 12.41L269.95 12.41Q272.14 12.41 273.37 13.54Q274.61 14.66 274.61 17.18L274.61 17.18L274.61 25.66L271.58 25.66L271.58 17.78Q271.58 16.32 271.01 15.59Q270.43 14.86 269.18 14.86L269.18 14.86Q267.36 14.86 266.69 16.00Q266.02 17.14 266.02 19.30L266.02 19.30L266.02 25.66L262.99 25.66L262.99 12.65L265.32 12.65L265.75 14.35L265.92 14.35Q266.54 13.34 267.64 12.88Q268.73 12.41 269.95 12.41ZM290.02 19.13L290.02 19.13Q290.02 22.37 288.34 24.13Q286.66 25.90 283.78 25.90L283.78 25.90Q282 25.90 280.62 25.10Q279.24 24.31 278.44 22.80Q277.63 21.29 277.63 19.13L277.63 19.13Q277.63 15.89 279.30 14.15Q280.97 12.41 283.85 12.41L283.85 12.41Q285.67 12.41 287.05 13.19Q288.43 13.97 289.22 15.47Q290.02 16.97 290.02 19.13ZM280.73 19.13L280.73 19.13Q280.73 21.19 281.46 22.32Q282.19 23.45 283.82 23.45L283.82 23.45Q285.46 23.45 286.19 22.32Q286.92 21.19 286.92 19.13L286.92 19.13Q286.92 17.06 286.19 15.96Q285.46 14.86 283.82 14.86L283.82 14.86Q282.19 14.86 281.46 15.96Q280.73 17.06 280.73 19.13ZM299.95 12.41L299.95 12.41Q300.24 12.41 300.62 12.43Q301.01 12.46 301.27 12.53L301.27 12.53L301.01 15.34Q300.79 15.29 300.44 15.25Q300.10 15.22 299.83 15.22L299.83 15.22Q298.87 15.22 298.03 15.61Q297.19 16.01 296.68 16.82Q296.16 17.64 296.16 18.91L296.16 18.91L296.16 25.66L293.14 25.66L293.14 12.65L295.46 12.65L295.90 14.90L296.04 14.90Q296.62 13.87 297.62 13.14Q298.63 12.41 299.95 12.41ZM318.58 12.41L318.58 12.41Q320.78 12.41 321.90 13.54Q323.02 14.66 323.02 17.18L323.02 17.18L323.02 25.66L319.99 25.66L319.99 17.76Q319.99 14.86 317.78 14.86L317.78 14.86Q316.20 14.86 315.53 15.89Q314.86 16.92 314.86 18.89L314.86 18.89L314.86 25.66L311.83 25.66L311.83 17.76Q311.83 14.86 309.60 14.86L309.60 14.86Q307.94 14.86 307.32 16.00Q306.70 17.14 306.70 19.30L306.70 19.30L306.70 25.66L303.67 25.66L303.67 12.65L306 12.65L306.43 14.35L306.60 14.35Q307.20 13.34 308.23 12.88Q309.26 12.41 310.39 12.41L310.39 12.41Q311.86 12.41 312.86 12.90Q313.87 13.39 314.38 14.42L314.38 14.42L314.62 14.42Q315.22 13.37 316.31 12.89Q317.40 12.41 318.58 12.41ZM331.99 12.41L331.99 12.41Q334.51 12.41 335.82 13.50Q337.13 14.59 337.13 16.92L337.13 16.92L337.13 25.66L334.99 25.66L334.39 23.86L334.30 23.86Q333.46 24.91 332.53 25.40Q331.61 25.90 329.98 25.90L329.98 25.90Q328.22 25.90 327.07 24.91Q325.92 23.93 325.92 21.86L325.92 21.86Q325.92 19.85 327.40 18.83Q328.87 17.81 331.87 17.71L331.87 17.71L334.13 17.64L334.13 16.99Q334.13 15.74 333.53 15.22Q332.93 14.69 331.85 14.69L331.85 14.69Q330.86 14.69 329.95 14.98Q329.04 15.26 328.18 15.65L328.18 15.65L327.22 13.54Q328.18 13.03 329.41 12.72Q330.65 12.41 331.99 12.41ZM334.13 19.51L332.54 19.56Q330.55 19.63 329.78 20.24Q329.02 20.86 329.02 21.89L329.02 21.89Q329.02 22.80 329.57 23.21Q330.12 23.62 330.98 23.62L330.98 23.62Q332.30 23.62 333.22 22.86Q334.13 22.10 334.13 20.62L334.13 20.62L334.13 19.51ZM343.94 7.42L343.94 25.66L340.92 25.66L340.92 7.42L343.94 7.42Z"/></svg>