<svg xmlns="http://www.w3.org/2000/svg" xmlns:xlink="http://www.w3.org/1999/xlink" width="177.7265625" height="32.9765625"><path fill="black" d="M10.88 13.68L10.88 13.68Q10.68 14.04 10.35 14.64Q10.03 15.23 9.62 15.97Q9.20 16.71 8.71 17.56Q8.23 18.41 7.71 19.27Q7.18 20.12 6.64 20.95Q6.09 21.77 5.58 22.48L5.58 22.48Q6.84 22.35 8.02 21.83Q9.19 21.32 10.21 20.55Q11.24 19.78 12.09 18.83Q12.94 17.87 13.54 16.85Q14.14 15.82 14.48 14.79Q14.81 13.76 14.81 12.84L14.81 12.84Q14.81 12.07 14.62 11.41Q14.43 10.76 14.03 10.28Q13.64 9.80 13.03 9.53Q12.42 9.26 11.60 9.26L11.60 9.26Q10.84 9.26 10.07 9.40Q9.30 9.55 8.60 9.80Q7.90 10.04 7.31 10.38Q6.71 10.71 6.29 11.10L6.29 11.10Q5.82 11.61 5.47 12.13Q5.11 12.64 4.76 13.05Q4.42 13.46 4.02 13.72Q3.62 13.98 3.08 13.98L3.08 13.98Q2.07 13.98 2.07 13.09L2.07 13.09Q2.07 12.53 2.44 11.88Q2.80 11.23 3.45 10.59Q4.10 9.95 5.00 9.36Q5.89 8.77 6.97 8.31Q8.05 7.86 9.27 7.59Q10.49 7.32 11.78 7.32L11.78 7.32Q13.28 7.32 14.39 7.77Q15.50 8.21 16.24 8.99Q16.97 9.77 17.33 10.83Q17.68 11.88 17.68 13.10Q17.68 14.32 17.27 15.66Q16.85 16.99 16.05 18.28Q15.25 19.57 14.07 20.73Q12.89 21.89 11.36 22.77Q9.83 23.65 7.97 24.16Q6.12 24.68 3.96 24.68L3.96 24.68Q3.49 24.68 3.22 24.38Q2.95 24.08 2.95 23.65L2.95 23.65Q2.95 23.31 3.07 22.99Q3.19 22.68 3.38 22.41L3.38 22.41L8.19 12.83Q8.53 12.30 8.87 11.99Q9.20 11.67 9.49 11.50Q9.77 11.32 10.00 11.27Q10.22 11.21 10.34 11.21L10.34 11.21Q10.86 11.21 11.09 11.52Q11.31 11.82 11.31 12.25L11.31 12.25Q11.31 12.59 11.19 12.96Q11.07 13.34 10.88 13.68ZM22.23 17.84L22.23 17.84Q21.68 17.84 21.16 18.12Q20.65 18.40 20.25 18.86Q19.85 19.31 19.62 19.88Q19.38 20.45 19.38 21.02L19.38 21.02Q19.38 21.26 19.41 21.51Q19.44 21.76 19.55 21.97Q19.65 22.18 19.85 22.32Q20.04 22.46 20.37 22.46L20.37 22.46Q20.63 22.46 20.97 22.24Q21.32 22.01 21.69 21.65Q22.05 21.29 22.41 20.87Q22.76 20.44 23.04 20.03Q23.32 19.62 23.50 19.29Q23.67 18.96 23.67 18.81L23.67 18.81Q23.67 18.59 23.52 18.40Q23.37 18.22 23.14 18.09Q22.92 17.96 22.67 17.90Q22.42 17.84 22.23 17.84ZM30.35 20.86L30.35 20.86Q30.14 21.06 29.79 21.41Q29.44 21.76 28.99 22.17Q28.54 22.58 28.03 23.00Q27.52 23.41 26.98 23.75Q26.45 24.09 25.93 24.31Q25.42 24.53 24.96 24.53L24.96 24.53Q24.55 24.53 24.26 24.35Q23.96 24.18 23.77 23.89Q23.58 23.61 23.48 23.26Q23.39 22.90 23.39 22.52L23.39 22.52Q23.39 22.28 23.43 22.04Q23.46 21.80 23.54 21.59L23.54 21.59Q23.18 22.08 22.72 22.60Q22.25 23.12 21.72 23.55Q21.19 23.98 20.61 24.25Q20.03 24.53 19.43 24.53L19.43 24.53Q19.13 24.53 18.72 24.40Q18.32 24.28 17.95 24Q17.59 23.72 17.34 23.27Q17.10 22.83 17.10 22.18L17.10 22.18Q17.10 21.70 17.24 21.04Q17.39 20.37 17.69 19.65Q17.99 18.93 18.45 18.22Q18.91 17.52 19.55 16.96Q20.18 16.41 20.99 16.06Q21.80 15.71 22.79 15.71L22.79 15.71Q23.31 15.71 23.70 15.84Q24.08 15.97 24.35 16.13L24.35 16.13Q24.66 16.31 24.89 16.54L24.89 16.54Q25.09 16.43 25.30 16.34L25.30 16.34Q25.48 16.25 25.67 16.19Q25.86 16.13 26.00 16.13L26.00 16.13Q26.45 16.13 26.73 16.37Q27.01 16.62 27.01 16.91L27.01 16.91Q27.01 16.99 27 17.04L27 17.04Q26.94 17.26 26.82 17.60Q26.70 17.94 26.54 18.36Q26.39 18.77 26.23 19.22Q26.07 19.68 25.95 20.11Q25.82 20.54 25.73 20.92Q25.65 21.30 25.65 21.57L25.65 21.57Q25.65 21.93 25.77 22.15Q25.89 22.38 26.17 22.38L26.17 22.38Q26.34 22.38 26.58 22.27Q26.82 22.16 27.11 21.97Q27.39 21.79 27.69 21.54Q27.98 21.30 28.27 21.06L28.27 21.06Q28.92 20.47 29.66 19.72L29.66 19.72Q29.85 19.57 30.02 19.57L30.02 19.57Q30.26 19.57 30.42 19.80Q30.57 20.03 30.57 20.31L30.57 20.31Q30.57 20.64 30.35 20.86ZM32.85 23.84L32.85 23.84Q32.85 23.27 33.10 22.69Q33.35 22.10 33.74 21.48Q34.13 20.86 34.58 20.22Q35.04 19.58 35.45 18.91L35.45 18.91Q35.57 18.73 35.64 18.56Q35.71 18.39 35.71 18.21L35.71 18.21Q35.71 18.02 35.60 17.90Q35.50 17.78 35.30 17.78L35.30 17.78Q34.82 17.78 34.37 17.98Q33.93 18.19 33.52 18.52Q33.11 18.86 32.74 19.29Q32.37 19.72 32.04 20.19Q31.72 20.65 31.44 21.11Q31.16 21.56 30.93 21.94L30.93 21.94Q30.71 22.32 30.54 22.78Q30.36 23.24 30.16 23.63Q29.95 24.01 29.70 24.28Q29.44 24.54 29.05 24.54L29.05 24.54Q28.63 24.54 28.38 24.27Q28.14 24 28.14 23.63L28.14 23.63Q28.14 23.41 28.29 22.97Q28.44 22.52 28.68 21.93Q28.92 21.34 29.23 20.67Q29.53 20.00 29.83 19.35Q30.13 18.69 30.39 18.11Q30.66 17.53 30.83 17.12L30.83 17.12Q31.04 16.62 31.39 16.37Q31.73 16.13 32.07 16.13L32.07 16.13Q32.37 16.13 32.60 16.34Q32.82 16.56 32.82 16.97L32.82 16.97Q32.82 17.27 32.68 17.64L32.68 17.64Q33 17.34 33.36 17.00Q33.73 16.66 34.15 16.38Q34.58 16.09 35.11 15.90Q35.64 15.71 36.29 15.71L36.29 15.71Q36.62 15.71 36.91 15.80Q37.21 15.88 37.44 16.05Q37.66 16.23 37.81 16.51Q37.96 16.79 37.98 17.19L37.98 17.19Q38.25 16.92 38.57 16.66Q38.88 16.39 39.25 16.18Q39.62 15.97 40.05 15.84Q40.49 15.71 41.02 15.71L41.02 15.71Q41.40 15.71 41.75 15.80Q42.11 15.88 42.38 16.07Q42.66 16.27 42.81 16.57Q42.97 16.88 42.97 17.32L42.97 17.32Q42.97 18.02 42.65 18.66Q42.33 19.29 41.89 19.82L41.89 19.82Q41.75 19.99 41.52 20.26Q41.29 20.53 41.06 20.84Q40.84 21.14 40.68 21.46Q40.51 21.79 40.51 22.07L40.51 22.07Q40.51 22.32 40.67 22.39Q40.83 22.46 41.09 22.46L41.09 22.46Q41.58 22.46 42.15 22.17Q42.73 21.88 43.27 21.46Q43.82 21.05 44.29 20.60Q44.77 20.14 45.05 19.84L45.05 19.84Q45.12 19.76 45.21 19.72Q45.30 19.69 45.40 19.69L45.40 19.69Q45.61 19.69 45.78 19.88Q45.95 20.06 45.95 20.37L45.95 20.37Q45.95 20.60 45.81 20.88Q45.67 21.16 45.33 21.43L45.33 21.43Q44.70 22.04 44.03 22.60Q43.37 23.16 42.70 23.58Q42.02 24.01 41.35 24.27Q40.68 24.53 40.01 24.53L40.01 24.53Q39.14 24.53 38.61 24.12Q38.07 23.71 38.07 22.82L38.07 22.82Q38.07 22.23 38.30 21.71Q38.52 21.20 38.85 20.72Q39.18 20.25 39.54 19.80Q39.90 19.36 40.17 18.91L40.17 18.91Q40.29 18.73 40.36 18.56Q40.43 18.39 40.43 18.21L40.43 18.21Q40.43 18.02 40.32 17.90Q40.22 17.78 40.02 17.78L40.02 17.78Q39.54 17.78 39.09 17.98Q38.65 18.19 38.24 18.52Q37.83 18.86 37.46 19.29Q37.09 19.72 36.77 20.19Q36.45 20.65 36.16 21.11Q35.88 21.56 35.65 21.94L35.65 21.94Q35.44 22.32 35.26 22.78Q35.09 23.24 34.88 23.63Q34.68 24.01 34.42 24.28Q34.16 24.54 33.77 24.54L33.77 24.54Q33.63 24.54 33.47 24.49Q33.30 24.43 33.17 24.34Q33.04 24.25 32.95 24.12Q32.86 23.99 32.85 23.84ZM47.33 14.10L47.33 14.10Q47.33 13.83 47.43 13.54Q47.53 13.25 47.73 13.02Q47.93 12.79 48.23 12.63Q48.53 12.48 48.94 12.48L48.94 12.48Q49.62 12.48 49.89 12.74Q50.16 13.01 50.16 13.41L50.16 13.41Q50.16 13.63 50.07 13.90Q49.98 14.17 49.80 14.40Q49.63 14.63 49.35 14.78Q49.07 14.93 48.68 14.93L48.68 14.93Q47.95 14.93 47.66 14.70Q47.37 14.47 47.33 14.10ZM46.04 16.73L46.04 16.73Q46.24 16.41 46.50 16.27Q46.76 16.13 47.03 16.13L47.03 16.13Q47.47 16.13 47.79 16.41Q48.12 16.70 48.12 17.14L48.12 17.14Q48.11 17.25 48.09 17.36Q48.07 17.46 48.01 17.57L48.01 17.57Q47.85 17.87 47.74 18.08Q47.64 18.29 47.55 18.47Q47.46 18.66 47.38 18.83Q47.30 19.01 47.18 19.25L47.18 19.25Q47.04 19.55 46.86 19.89Q46.69 20.24 46.53 20.60Q46.37 20.96 46.26 21.32Q46.15 21.67 46.15 21.96L46.15 21.96Q46.15 22.28 46.31 22.38Q46.46 22.48 46.76 22.48L46.76 22.48Q47.09 22.48 47.44 22.34Q47.80 22.20 48.16 21.97Q48.53 21.75 48.88 21.46Q49.23 21.18 49.54 20.88Q49.85 20.59 50.12 20.32Q50.38 20.05 50.55 19.84L50.55 19.84Q50.79 19.62 51.02 19.62L51.02 19.62Q51.23 19.62 51.37 19.80Q51.50 19.99 51.50 20.29L51.50 20.29Q51.50 20.55 51.37 20.86Q51.23 21.16 50.93 21.43L50.93 21.43Q50.33 22.04 49.71 22.60Q49.09 23.16 48.44 23.58Q47.79 24.01 47.13 24.27Q46.48 24.53 45.81 24.53L45.81 24.53Q44.86 24.53 44.31 24.04Q43.77 23.55 43.77 22.52L43.77 22.52Q43.77 21.98 43.92 21.47Q44.07 20.95 44.29 20.47Q44.50 19.98 44.73 19.53Q44.96 19.08 45.13 18.67L45.13 18.67Q45.19 18.52 45.33 18.20Q45.48 17.88 45.64 17.55L45.64 17.55Q45.83 17.17 46.04 16.73ZM54.62 17.78L54.62 17.78Q54.07 17.78 53.56 18.05Q53.05 18.33 52.66 18.78Q52.27 19.23 52.03 19.80Q51.80 20.37 51.80 20.96L51.80 20.96Q51.80 21.19 51.83 21.45Q51.87 21.71 51.98 21.94Q52.09 22.17 52.30 22.32Q52.51 22.48 52.86 22.48L52.86 22.48Q53.40 22.48 53.91 22.19Q54.42 21.90 54.82 21.44Q55.22 20.98 55.45 20.39Q55.69 19.80 55.69 19.21L55.69 19.21Q55.69 18.97 55.66 18.72Q55.63 18.47 55.52 18.26Q55.41 18.05 55.20 17.91Q54.98 17.78 54.62 17.78ZM55.23 15.71L55.23 15.71Q55.68 15.71 56.19 15.83Q56.70 15.95 57.13 16.23Q57.56 16.51 57.85 16.97Q58.14 17.44 58.14 18.12L58.14 18.12Q58.14 18.47 58.04 18.92Q57.95 19.37 57.76 19.86L57.76 19.86Q57.88 20.00 58.03 20.06Q58.18 20.12 58.36 20.12L58.36 20.12Q58.61 20.12 58.90 19.98Q59.20 19.84 59.52 19.62Q59.84 19.39 60.15 19.11Q60.47 18.83 60.75 18.55Q61.03 18.27 61.26 18.02Q61.49 17.77 61.64 17.59L61.64 17.59Q61.72 17.51 61.84 17.51L61.84 17.51Q62.00 17.51 62.13 17.68Q62.26 17.85 62.26 18.15Q62.26 18.46 62.08 18.86Q61.90 19.25 61.41 19.69L61.41 19.69Q61.13 19.99 60.76 20.39Q60.40 20.79 59.99 21.14Q59.58 21.49 59.13 21.74Q58.69 21.98 58.24 21.98L58.24 21.98Q57.94 21.98 57.65 21.89Q57.36 21.80 57.07 21.59L57.07 21.59Q56.65 22.24 56.11 22.78Q55.57 23.32 54.91 23.71Q54.25 24.09 53.48 24.31Q52.71 24.53 51.84 24.53L51.84 24.53Q51.52 24.53 51.08 24.40Q50.65 24.27 50.26 23.97Q49.86 23.67 49.59 23.19Q49.32 22.71 49.32 22.02L49.32 22.02Q49.32 21.55 49.48 20.89Q49.63 20.24 49.94 19.54Q50.25 18.84 50.72 18.16Q51.20 17.47 51.86 16.93Q52.51 16.38 53.36 16.05Q54.20 15.71 55.23 15.71ZM61.95 17.12L61.95 17.12Q62.18 16.62 62.53 16.37Q62.88 16.13 63.22 16.13L63.22 16.13Q63.50 16.13 63.73 16.33Q63.95 16.54 63.95 16.93L63.95 16.93Q63.95 17.09 63.91 17.26Q63.88 17.44 63.79 17.64L63.79 17.64Q64.04 17.31 64.52 16.96Q65.00 16.62 65.58 16.34Q66.16 16.07 66.78 15.89Q67.39 15.71 67.95 15.71L67.95 15.71Q68.57 15.71 68.98 16.01Q69.40 16.31 69.40 17.03L69.40 17.03Q69.40 17.45 69.27 17.91Q69.14 18.36 68.94 18.82Q68.73 19.28 68.48 19.72Q68.23 20.16 67.98 20.54Q67.73 20.93 67.53 21.25Q67.32 21.57 67.21 21.79L67.21 21.79Q67.05 21.97 67.05 22.22L67.05 22.22Q67.05 22.31 67.11 22.38Q67.17 22.45 67.30 22.45L67.30 22.45Q67.38 22.45 67.49 22.44Q67.59 22.42 67.75 22.31L67.75 22.31Q68.38 22.08 69.04 21.73Q69.70 21.38 70.31 20.98Q70.92 20.59 71.43 20.20Q71.94 19.80 72.28 19.49L72.28 19.49Q72.38 19.41 72.47 19.37Q72.56 19.34 72.64 19.34L72.64 19.34Q72.84 19.34 72.96 19.49Q73.07 19.64 73.07 19.88L73.07 19.88Q73.07 20.24 72.84 20.68Q72.61 21.13 72.12 21.52L72.12 21.52Q71.45 22.00 70.89 22.39Q70.34 22.79 69.76 23.14Q69.18 23.48 68.51 23.78Q67.85 24.08 66.96 24.34L66.96 24.34Q66.66 24.43 66.40 24.48Q66.15 24.53 65.94 24.53L65.94 24.53Q65.32 24.53 65.03 24.18Q64.75 23.84 64.75 23.21L64.75 23.21Q64.75 23.13 64.75 23.06Q64.76 22.98 64.77 22.89L64.77 22.89Q64.79 22.52 64.96 22.09Q65.13 21.66 65.37 21.20Q65.61 20.74 65.88 20.29Q66.15 19.84 66.38 19.44Q66.61 19.03 66.76 18.71Q66.91 18.40 66.91 18.20L66.91 18.20Q66.91 18.02 66.81 17.90Q66.71 17.78 66.52 17.78L66.52 17.78Q65.77 17.78 65.09 18.22Q64.42 18.67 63.83 19.32Q63.25 19.97 62.75 20.70Q62.26 21.42 61.89 22.00L61.89 22.00Q61.65 22.38 61.46 22.82Q61.27 23.26 61.05 23.64Q60.84 24.02 60.58 24.28Q60.32 24.53 59.92 24.53L59.92 24.53Q59.51 24.53 59.27 24.27Q59.04 24.01 59.04 23.64L59.04 23.64Q59.04 23.44 59.20 22.99Q59.37 22.55 59.63 21.96Q59.88 21.38 60.21 20.70Q60.53 20.03 60.85 19.37Q61.17 18.70 61.46 18.12Q61.76 17.53 61.95 17.12ZM87.13 15.76L87.13 15.76Q86.88 16.30 86.61 16.87Q86.34 17.44 86.08 18Q85.82 18.56 85.56 19.10Q85.31 19.64 85.09 20.12L85.09 20.12Q84.55 21.26 84.05 22.32L84.05 22.32L86.14 22.32Q86.38 22.32 86.51 22.51Q86.64 22.69 86.64 22.93L86.64 22.93Q86.64 23.16 86.56 23.38Q86.48 23.61 86.33 23.80Q86.18 23.99 85.94 24.11Q85.70 24.23 85.38 24.23L85.38 24.23L83.24 24.23L81.43 28.23Q81.22 28.64 80.92 28.82Q80.63 28.99 80.32 28.99L80.32 28.99Q79.93 28.99 79.66 28.76Q79.38 28.52 79.38 28.16L79.38 28.16Q79.38 28.08 79.41 28.00Q79.43 27.91 79.46 27.82L79.46 27.82L81.01 24.23L77.88 24.23Q77.71 24.23 77.55 24.22Q77.40 24.20 77.28 24.14Q77.16 24.08 77.09 23.98Q77.02 23.88 77.02 23.71L77.02 23.71Q77.02 23.51 77.10 23.24Q77.19 22.97 77.41 22.56L77.41 22.56Q77.66 22.10 77.98 21.46Q78.30 20.82 78.66 20.10Q79.01 19.38 79.37 18.62Q79.72 17.86 80.05 17.15Q80.38 16.44 80.64 15.83Q80.89 15.21 81.06 14.79L81.06 14.79Q81.23 14.30 81.60 14.09Q81.96 13.89 82.34 13.89L82.34 13.89Q82.73 13.89 83.04 14.08Q83.36 14.27 83.37 14.57L83.37 14.57Q83.36 14.63 83.35 14.68Q83.34 14.73 83.32 14.79L83.32 14.79Q82.92 15.76 82.48 16.75Q82.03 17.74 81.58 18.70Q81.13 19.66 80.68 20.57Q80.24 21.47 79.85 22.28L79.85 22.28Q80.16 22.27 80.41 22.27Q80.66 22.27 80.86 22.27L80.86 22.27Q81.42 22.27 81.75 22.27L81.75 22.27L82.08 22.28L82.22 21.94Q82.36 21.61 82.62 21.05Q82.89 20.50 83.22 19.77Q83.55 19.04 83.92 18.26Q84.29 17.48 84.66 16.70Q85.03 15.91 85.36 15.23L85.36 15.23Q85.66 14.53 86.04 14.21Q86.43 13.89 86.73 13.89L86.73 13.89Q87 13.89 87.19 14.11Q87.38 14.33 87.38 14.74L87.38 14.74Q87.38 14.96 87.32 15.22Q87.26 15.48 87.13 15.76ZM96.06 17.19L96.06 17.19Q96.06 16.36 95.75 16.00Q95.45 15.63 94.97 15.63L94.97 15.63Q94.21 15.63 93.50 16.06Q92.79 16.49 92.24 17.20Q91.69 17.91 91.35 18.82Q91.02 19.73 91.02 20.70L91.02 20.70Q91.02 21.07 91.08 21.43Q91.14 21.80 91.28 22.09Q91.43 22.38 91.68 22.56Q91.93 22.73 92.33 22.73L92.33 22.73Q92.94 22.73 93.46 22.46Q93.97 22.18 94.39 21.73Q94.80 21.27 95.12 20.68Q95.43 20.10 95.64 19.48Q95.85 18.87 95.95 18.27Q96.06 17.67 96.06 17.19ZM98.26 17.19L98.26 17.19Q98.26 17.95 98.06 18.79Q97.85 19.62 97.46 20.44Q97.08 21.26 96.53 22.00Q95.98 22.73 95.28 23.30Q94.58 23.86 93.76 24.19Q92.93 24.53 92.00 24.53L92.00 24.53Q91.28 24.53 90.70 24.26Q90.12 23.99 89.71 23.50Q89.30 23.02 89.07 22.32Q88.85 21.63 88.85 20.79L88.85 20.79Q88.85 20.05 89.06 19.23Q89.27 18.41 89.67 17.62Q90.06 16.83 90.62 16.10Q91.17 15.38 91.86 14.83Q92.55 14.29 93.37 13.96Q94.18 13.63 95.09 13.63L95.09 13.63Q95.79 13.63 96.38 13.89Q96.96 14.16 97.38 14.63Q97.80 15.09 98.03 15.75Q98.26 16.41 98.26 17.19ZM106.56 17.19L106.56 17.19Q106.56 16.36 106.25 16.00Q105.95 15.63 105.47 15.63L105.47 15.63Q104.71 15.63 104.00 16.06Q103.29 16.49 102.74 17.20Q102.19 17.91 101.85 18.82Q101.52 19.73 101.52 20.70L101.52 20.70Q101.52 21.07 101.58 21.43Q101.64 21.80 101.78 22.09Q101.93 22.38 102.18 22.56Q102.43 22.73 102.83 22.73L102.83 22.73Q103.44 22.73 103.96 22.46Q104.47 22.18 104.89 21.73Q105.30 21.27 105.62 20.68Q105.93 20.10 106.14 19.48Q106.35 18.87 106.45 18.27Q106.56 17.67 106.56 17.19ZM108.76 17.19L108.76 17.19Q108.76 17.95 108.56 18.79Q108.35 19.62 107.96 20.44Q107.58 21.26 107.03 22.00Q106.48 22.73 105.78 23.30Q105.08 23.86 104.26 24.19Q103.43 24.53 102.50 24.53L102.50 24.53Q101.78 24.53 101.20 24.26Q100.62 23.99 100.21 23.50Q99.80 23.02 99.57 22.32Q99.35 21.63 99.35 20.79L99.35 20.79Q99.35 20.05 99.56 19.23Q99.77 18.41 100.17 17.62Q100.56 16.83 101.12 16.10Q101.67 15.38 102.36 14.83Q103.05 14.29 103.87 13.96Q104.68 13.63 105.59 13.63L105.59 13.63Q106.29 13.63 106.88 13.89Q107.46 14.16 107.88 14.63Q108.30 15.09 108.53 15.75Q108.76 16.41 108.76 17.19ZM116.78 17.12L116.78 17.12Q117.01 16.62 117.36 16.37Q117.71 16.13 118.05 16.13L118.05 16.13Q118.34 16.13 118.56 16.33Q118.78 16.54 118.78 16.93L118.78 16.93Q118.78 17.09 118.75 17.26Q118.71 17.44 118.62 17.64L118.62 17.64Q118.88 17.31 119.36 16.96Q119.84 16.62 120.42 16.34Q121.00 16.07 121.61 15.89Q122.23 15.71 122.78 15.71L122.78 15.71Q123.40 15.71 123.81 16.01Q124.23 16.31 124.23 17.03L124.23 17.03Q124.23 17.45 124.10 17.91Q123.97 18.36 123.77 18.82Q123.56 19.28 123.31 19.72Q123.06 20.16 122.81 20.54Q122.57 20.93 122.36 21.25Q122.16 21.57 122.04 21.79L122.04 21.79Q121.89 21.97 121.89 22.22L121.89 22.22Q121.89 22.31 121.95 22.38Q122.00 22.45 122.13 22.45L122.13 22.45Q122.21 22.45 122.32 22.44Q122.43 22.42 122.58 22.31L122.58 22.31Q123.21 22.08 123.87 21.73Q124.54 21.38 125.14 20.98Q125.75 20.59 126.26 20.20Q126.77 19.80 127.11 19.49L127.11 19.49Q127.21 19.41 127.30 19.37Q127.39 19.34 127.48 19.34L127.48 19.34Q127.68 19.34 127.79 19.49Q127.90 19.64 127.90 19.88L127.90 19.88Q127.90 20.24 127.67 20.68Q127.44 21.13 126.95 21.52L126.95 21.52Q126.28 22.00 125.72 22.39Q125.17 22.79 124.59 23.14Q124.01 23.48 123.35 23.78Q122.68 24.08 121.79 24.34L121.79 24.34Q121.49 24.43 121.24 24.48Q120.98 24.53 120.77 24.53L120.77 24.53Q120.15 24.53 119.87 24.18Q119.58 23.84 119.58 23.21L119.58 23.21Q119.58 23.13 119.58 23.06Q119.59 22.98 119.60 22.89L119.60 22.89Q119.63 22.52 119.79 22.09Q119.96 21.66 120.21 21.20Q120.45 20.74 120.71 20.29Q120.98 19.84 121.21 19.44Q121.44 19.03 121.59 18.71Q121.75 18.40 121.75 18.20L121.75 18.20Q121.75 18.02 121.65 17.90Q121.55 17.78 121.35 17.78L121.35 17.78Q120.60 17.78 119.92 18.22Q119.25 18.67 118.66 19.32Q118.08 19.97 117.59 20.70Q117.09 21.42 116.72 22.00L116.72 22.00Q116.48 22.38 116.29 22.82Q116.10 23.26 115.89 23.64Q115.68 24.02 115.41 24.28Q115.15 24.53 114.75 24.53L114.75 24.53Q114.34 24.53 114.11 24.27Q113.87 24.01 113.87 23.64L113.87 23.64Q113.87 23.44 114.04 22.99Q114.20 22.55 114.46 21.96Q114.71 21.38 115.04 20.70Q115.36 20.03 115.68 19.37Q116.00 18.70 116.30 18.12Q116.59 17.53 116.78 17.12ZM130.54 17.78L130.54 17.78Q129.98 17.78 129.47 18.05Q128.96 18.33 128.57 18.78Q128.18 19.23 127.95 19.80Q127.71 20.37 127.71 20.96L127.71 20.96Q127.71 21.19 127.75 21.45Q127.78 21.71 127.89 21.94Q128.00 22.17 128.21 22.32Q128.43 22.48 128.78 22.48L128.78 22.48Q129.32 22.48 129.83 22.19Q130.34 21.90 130.73 21.44Q131.13 20.98 131.37 20.39Q131.60 19.80 131.60 19.21L131.60 19.21Q131.60 18.97 131.57 18.72Q131.54 18.47 131.43 18.26Q131.32 18.05 131.11 17.91Q130.90 17.78 130.54 17.78ZM131.14 15.71L131.14 15.71Q131.59 15.71 132.10 15.83Q132.61 15.95 133.04 16.23Q133.48 16.51 133.76 16.97Q134.05 17.44 134.05 18.12L134.05 18.12Q134.05 18.47 133.96 18.92Q133.86 19.37 133.68 19.86L133.68 19.86Q133.79 20.00 133.95 20.06Q134.10 20.12 134.27 20.12L134.27 20.12Q134.52 20.12 134.82 19.98Q135.12 19.84 135.43 19.62Q135.75 19.39 136.07 19.11Q136.38 18.83 136.66 18.55Q136.95 18.27 137.17 18.02Q137.40 17.77 137.55 17.59L137.55 17.59Q137.64 17.51 137.75 17.51L137.75 17.51Q137.92 17.51 138.05 17.68Q138.18 17.85 138.18 18.15Q138.18 18.46 137.99 18.86Q137.81 19.25 137.32 19.69L137.32 19.69Q137.04 19.99 136.68 20.39Q136.31 20.79 135.90 21.14Q135.49 21.49 135.05 21.74Q134.60 21.98 134.16 21.98L134.16 21.98Q133.85 21.98 133.56 21.89Q133.28 21.80 132.98 21.59L132.98 21.59Q132.56 22.24 132.02 22.78Q131.48 23.32 130.82 23.71Q130.16 24.09 129.39 24.31Q128.63 24.53 127.76 24.53L127.76 24.53Q127.43 24.53 127.00 24.40Q126.56 24.27 126.17 23.97Q125.78 23.67 125.51 23.19Q125.24 22.71 125.24 22.02L125.24 22.02Q125.24 21.55 125.39 20.89Q125.54 20.24 125.85 19.54Q126.16 18.84 126.64 18.16Q127.11 17.47 127.77 16.93Q128.43 16.38 129.27 16.05Q130.11 15.71 131.14 15.71ZM140.05 17.41L140.07 17.40Q140.53 17.12 141.02 16.89Q141.50 16.65 141.96 16.48Q142.42 16.31 142.83 16.21Q143.25 16.11 143.58 16.11L143.58 16.11Q144.11 16.11 144.39 16.37Q144.68 16.62 144.68 17.21L144.68 17.21Q144.68 17.34 144.67 17.49Q144.66 17.64 144.62 17.80L144.62 17.80Q144.56 18.11 144.27 18.52Q143.98 18.93 143.58 19.37Q143.19 19.82 142.74 20.27Q142.29 20.72 141.91 21.10Q141.53 21.48 141.28 21.76Q141.02 22.04 141.02 22.15L141.02 22.15Q141.02 22.24 141.04 22.28Q141.05 22.31 141.14 22.31L141.14 22.31Q141.77 22.04 142.55 21.66Q143.33 21.28 144.11 20.88Q144.88 20.48 145.57 20.10Q146.26 19.72 146.74 19.44L146.74 19.44Q146.85 19.38 146.96 19.34Q147.07 19.30 147.16 19.30L147.16 19.30Q147.38 19.30 147.52 19.44Q147.66 19.58 147.66 19.82L147.66 19.82Q147.66 20.09 147.43 20.43Q147.20 20.78 146.66 21.15L146.66 21.15Q146.25 21.41 145.74 21.73Q145.23 22.05 144.67 22.40Q144.12 22.75 143.55 23.07Q142.98 23.40 142.45 23.66Q141.93 23.92 141.46 24.08Q141 24.23 140.66 24.23L140.66 24.23Q139.85 24.23 139.45 23.85Q139.04 23.46 139.04 22.85L139.04 22.85Q139.04 22.76 139.05 22.71L139.05 22.71Q139.14 22.20 139.36 21.71Q139.58 21.23 139.86 20.80Q140.14 20.37 140.45 19.97Q140.75 19.58 141.01 19.24Q141.26 18.89 141.42 18.60Q141.59 18.30 141.59 18.06L141.59 18.06Q141.59 18 141.56 17.94Q141.54 17.88 141.46 17.88L141.46 17.88Q141.32 17.88 140.99 17.99Q140.67 18.09 140.31 18.27Q139.95 18.45 139.62 18.67Q139.29 18.90 139.15 19.16L139.15 19.16Q138.96 19.49 138.71 19.99Q138.47 20.50 138.21 21.05Q137.94 21.60 137.70 22.14Q137.45 22.68 137.27 23.06L137.27 23.06Q137.13 23.40 136.90 23.67Q136.68 23.94 136.41 24.13Q136.14 24.32 135.86 24.42Q135.57 24.53 135.34 24.53L135.34 24.53Q135.07 24.53 134.91 24.39Q134.75 24.25 134.75 23.93L134.75 23.93Q134.75 23.80 134.79 23.61Q134.84 23.41 134.96 23.18L134.96 23.18Q135.18 22.78 135.39 22.31Q135.61 21.84 135.89 21.24Q136.17 20.64 136.54 19.86Q136.91 19.08 137.41 18.06L137.41 18.06Q137.25 17.92 137.14 17.71Q137.03 17.51 137.03 17.20L137.03 17.20Q137.03 16.92 137.14 16.72Q137.26 16.51 137.46 16.38Q137.66 16.25 137.92 16.19Q138.19 16.13 138.48 16.13L138.48 16.13Q138.79 16.13 139.09 16.18Q139.39 16.23 139.63 16.34Q139.88 16.44 140.03 16.59Q140.18 16.75 140.18 16.95L140.18 16.95Q140.18 16.98 140.16 17.04Q140.13 17.10 140.10 17.17Q140.07 17.24 140.05 17.30Q140.03 17.36 140.03 17.39L140.03 17.39Q140.03 17.41 140.04 17.41L140.04 17.41L140.05 17.41ZM149.58 23.84L149.58 23.84Q149.58 23.27 149.83 22.69Q150.08 22.10 150.47 21.48Q150.86 20.86 151.31 20.22Q151.77 19.58 152.18 18.91L152.18 18.91Q152.30 18.73 152.37 18.56Q152.44 18.39 152.44 18.21L152.44 18.21Q152.44 18.02 152.33 17.90Q152.23 17.78 152.03 17.78L152.03 17.78Q151.55 17.78 151.10 17.98Q150.66 18.19 150.25 18.52Q149.84 18.86 149.47 19.29Q149.10 19.72 148.78 20.19Q148.45 20.65 148.17 21.11Q147.89 21.56 147.66 21.94L147.66 21.94Q147.45 22.32 147.27 22.78Q147.09 23.24 146.89 23.63Q146.68 24.01 146.43 24.28Q146.17 24.54 145.78 24.54L145.78 24.54Q145.36 24.54 145.11 24.27Q144.87 24 144.87 23.63L144.87 23.63Q144.87 23.41 145.02 22.97Q145.17 22.52 145.41 21.93Q145.65 21.34 145.96 20.67Q146.26 20.00 146.56 19.35Q146.86 18.69 147.12 18.11Q147.39 17.53 147.56 17.12L147.56 17.12Q147.77 16.62 148.12 16.37Q148.46 16.13 148.80 16.13L148.80 16.13Q149.10 16.13 149.33 16.34Q149.55 16.56 149.55 16.97L149.55 16.97Q149.55 17.27 149.41 17.64L149.41 17.64Q149.73 17.34 150.09 17.00Q150.46 16.66 150.88 16.38Q151.31 16.09 151.84 15.90Q152.37 15.71 153.02 15.71L153.02 15.71Q153.35 15.71 153.64 15.80Q153.94 15.88 154.17 16.05Q154.39 16.23 154.54 16.51Q154.69 16.79 154.71 17.19L154.71 17.19Q154.98 16.92 155.30 16.66Q155.61 16.39 155.98 16.18Q156.35 15.97 156.79 15.84Q157.22 15.71 157.75 15.71L157.75 15.71Q158.13 15.71 158.48 15.80Q158.84 15.88 159.11 16.07Q159.39 16.27 159.54 16.57Q159.70 16.88 159.70 17.32L159.70 17.32Q159.70 18.02 159.38 18.66Q159.06 19.29 158.63 19.82L158.63 19.82Q158.48 19.99 158.25 20.26Q158.02 20.53 157.79 20.84Q157.57 21.14 157.41 21.46Q157.24 21.79 157.24 22.07L157.24 22.07Q157.24 22.32 157.40 22.39Q157.56 22.46 157.82 22.46L157.82 22.46Q158.31 22.46 158.88 22.17Q159.46 21.88 160.00 21.46Q160.55 21.05 161.02 20.60Q161.50 20.14 161.78 19.84L161.78 19.84Q161.85 19.76 161.94 19.72Q162.04 19.69 162.13 19.69L162.13 19.69Q162.34 19.69 162.51 19.88Q162.68 20.06 162.68 20.37L162.68 20.37Q162.68 20.60 162.54 20.88Q162.40 21.16 162.06 21.43L162.06 21.43Q161.43 22.04 160.76 22.60Q160.10 23.16 159.43 23.58Q158.75 24.01 158.08 24.27Q157.41 24.53 156.74 24.53L156.74 24.53Q155.87 24.53 155.34 24.12Q154.80 23.71 154.80 22.82L154.80 22.82Q154.80 22.23 155.03 21.71Q155.25 21.20 155.58 20.72Q155.91 20.25 156.27 19.80Q156.63 19.36 156.90 18.91L156.90 18.91Q157.02 18.73 157.09 18.56Q157.16 18.39 157.16 18.21L157.16 18.21Q157.16 18.02 157.05 17.90Q156.95 17.78 156.75 17.78L156.75 17.78Q156.27 17.78 155.82 17.98Q155.38 18.19 154.97 18.52Q154.56 18.86 154.19 19.29Q153.82 19.72 153.50 20.19Q153.18 20.65 152.89 21.11Q152.61 21.56 152.38 21.94L152.38 21.94Q152.17 22.32 151.99 22.78Q151.82 23.24 151.61 23.63Q151.41 24.01 151.15 24.28Q150.89 24.54 150.50 24.54L150.50 24.54Q150.36 24.54 150.20 24.49Q150.04 24.43 149.90 24.34Q149.77 24.25 149.68 24.12Q149.59 23.99 149.58 23.84ZM165.87 17.84L165.87 17.84Q165.32 17.84 164.80 18.12Q164.29 18.40 163.89 18.86Q163.49 19.31 163.25 19.88Q163.02 20.45 163.02 21.02L163.02 21.02Q163.02 21.26 163.05 21.51Q163.08 21.76 163.18 21.97Q163.29 22.18 163.48 22.32Q163.68 22.46 164.00 22.46L164.00 22.46Q164.26 22.46 164.61 22.24Q164.95 22.01 165.32 21.65Q165.69 21.29 166.04 20.87Q166.39 20.44 166.68 20.03Q166.96 19.62 167.13 19.29Q167.31 18.96 167.31 18.81L167.31 18.81Q167.31 18.59 167.16 18.40Q167.00 18.22 166.78 18.09Q166.56 17.96 166.31 17.90Q166.05 17.84 165.87 17.84ZM173.99 20.86L173.99 20.86Q173.78 21.06 173.43 21.41Q173.07 21.76 172.62 22.17Q172.17 22.58 171.66 23.00Q171.15 23.41 170.62 23.75Q170.09 24.09 169.57 24.31Q169.05 24.53 168.60 24.53L168.60 24.53Q168.19 24.53 167.89 24.35Q167.60 24.18 167.41 23.89Q167.21 23.61 167.12 23.26Q167.03 22.90 167.03 22.52L167.03 22.52Q167.03 22.28 167.06 22.04Q167.10 21.80 167.18 21.59L167.18 21.59Q166.82 22.08 166.35 22.60Q165.89 23.12 165.36 23.55Q164.82 23.98 164.24 24.25Q163.66 24.53 163.07 24.53L163.07 24.53Q162.76 24.53 162.36 24.40Q161.95 24.28 161.59 24Q161.23 23.72 160.98 23.27Q160.73 22.83 160.73 22.18L160.73 22.18Q160.73 21.70 160.88 21.04Q161.03 20.37 161.33 19.65Q161.63 18.93 162.09 18.22Q162.55 17.52 163.18 16.96Q163.82 16.41 164.63 16.06Q165.43 15.71 166.43 15.71L166.43 15.71Q166.95 15.71 167.33 15.84Q167.72 15.97 167.99 16.13L167.99 16.13Q168.29 16.31 168.53 16.54L168.53 16.54Q168.73 16.43 168.94 16.34L168.94 16.34Q169.11 16.25 169.31 16.19Q169.50 16.13 169.64 16.13L169.64 16.13Q170.09 16.13 170.37 16.37Q170.65 16.62 170.65 16.91L170.65 16.91Q170.65 16.99 170.64 17.04L170.64 17.04Q170.58 17.26 170.46 17.60Q170.33 17.94 170.18 18.36Q170.03 18.77 169.87 19.22Q169.71 19.68 169.58 20.11Q169.45 20.54 169.37 20.92Q169.29 21.30 169.29 21.57L169.29 21.57Q169.29 21.93 169.41 22.15Q169.52 22.38 169.80 22.38L169.80 22.38Q169.98 22.38 170.22 22.27Q170.46 22.16 170.74 21.97Q171.02 21.79 171.32 21.54Q171.62 21.30 171.90 21.06L171.90 21.06Q172.56 20.47 173.30 19.72L173.30 19.72Q173.48 19.57 173.66 19.57L173.66 19.57Q173.89 19.57 174.05 19.80Q174.21 20.03 174.21 20.31L174.21 20.31Q174.21 20.64 173.99 20.86ZM174.74 20.85L174.74 20.85Q174.61 21.12 174.49 21.47Q174.36 21.83 174.36 22.11L174.36 22.11Q174.36 22.29 174.43 22.39Q174.50 22.50 174.70 22.50L174.70 22.50Q174.95 22.50 175.32 22.35Q175.69 22.21 176.12 21.97Q176.54 21.73 177.01 21.42Q177.47 21.11 177.93 20.77Q178.38 20.44 178.80 20.10Q179.21 19.77 179.54 19.49L179.54 19.49Q179.64 19.41 179.77 19.37Q179.89 19.34 179.99 19.34L179.99 19.34Q180.22 19.34 180.38 19.50Q180.53 19.66 180.53 19.93L180.53 19.93Q180.53 20.18 180.36 20.48Q180.20 20.79 179.79 21.08L179.79 21.08Q179.04 21.77 178.28 22.39Q177.52 23.02 176.76 23.49Q176.00 23.96 175.26 24.25Q174.52 24.53 173.81 24.53L173.81 24.53Q173.33 24.53 173.01 24.40Q172.69 24.27 172.49 24.05Q172.30 23.82 172.22 23.52Q172.14 23.21 172.14 22.88L172.14 22.88Q172.14 22.30 172.31 21.70Q172.48 21.09 172.71 20.59L172.71 20.59Q173.12 19.68 173.54 18.77Q173.96 17.87 174.32 17.12L174.32 17.12L177.87 9.56Q178.08 9.11 178.44 8.92Q178.79 8.73 179.16 8.73Q179.52 8.73 179.82 8.93Q180.12 9.13 180.12 9.57L180.12 9.57Q180.12 9.79 180.02 10.02Q179.92 10.25 179.77 10.52L179.77 10.52Q179.47 11.07 179.07 11.87Q178.66 12.67 178.20 13.61Q177.74 14.54 177.25 15.56Q176.77 16.57 176.30 17.53Q175.84 18.49 175.44 19.35Q175.03 20.21 174.74 20.85Z"/></svg>