<svg xmlns="http://www.w3.org/2000/svg" xmlns:xlink="http://www.w3.org/1999/xlink" width="102.648" height="29.112000000000002"><path fill="black" d="M1.01 14.62L1.01 14.62Q1.01 10.75 2.86 8.30Q4.70 5.86 7.56 5.86L7.56 5.86Q9.24 5.86 11.02 6.74L11.02 6.74Q11.09 6.74 11.18 6.34Q11.28 5.93 11.52 5.86L11.52 5.86Q12.58 5.66 13.25 5.66L13.25 5.66Q14.23 5.66 14.74 6.07L14.74 6.07Q14.90 6.74 14.90 7.58L14.90 7.58Q14.90 9.31 14.40 10.73L14.40 10.73Q14.28 10.97 12.82 10.97L12.82 10.97Q12.02 10.97 11.59 10.75L11.59 10.75Q11.38 10.58 11.38 10.30L11.38 10.30Q11.38 10.15 11.50 9.79L11.50 9.79Q9.82 8.69 8.38 8.69L8.38 8.69Q6.55 8.69 5.41 10.36Q4.27 12.02 4.27 14.54L4.27 14.54Q4.27 17.28 5.56 18.67Q6.84 20.06 8.52 20.06L8.52 20.06Q10.08 20.06 11.42 18.79L11.42 18.79Q11.71 18.05 11.71 17.14L11.71 17.14Q11.71 16.27 11.42 15.55L11.42 15.55Q10.99 15.55 9.91 15.44Q8.83 15.34 8.81 15.14L8.81 15.14Q8.64 14.81 8.64 14.42L8.64 14.42Q8.64 13.92 8.88 13.58L8.88 13.58Q9.38 12.84 11.06 12.84L11.06 12.84Q11.95 12.84 12.98 13.07Q14.02 13.30 14.45 13.66L14.45 13.66Q14.66 14.16 14.86 15.74Q15.05 17.33 15.05 19.10L15.05 19.10Q15.05 21.22 14.76 22.68L14.76 22.68Q14.23 23.06 13.58 23.06L13.58 23.06Q12.98 23.06 12.12 22.78L12.12 22.78Q11.74 22.63 11.74 21.48L11.74 21.48Q9.34 23.04 7.61 23.04L7.61 23.04Q6.84 23.04 5.99 22.79Q5.14 22.54 4.24 21.90Q3.34 21.26 2.63 20.34Q1.92 19.42 1.46 17.93Q1.01 16.44 1.01 14.62ZM17.16 17.78L17.16 17.78Q17.16 14.81 18.94 12.73Q20.71 10.66 23.54 10.66L23.54 10.66Q24.84 10.66 25.79 11.12Q26.74 11.59 27.25 12.42Q27.77 13.25 28.00 14.22Q28.22 15.19 28.22 16.37L28.22 16.37Q28.22 19.68 26.53 21.41Q24.84 23.14 22.13 23.14L22.13 23.14Q20.69 23.14 19.66 22.64Q18.62 22.15 18.11 21.32Q17.59 20.50 17.38 19.63Q17.16 18.77 17.16 17.78ZM20.59 17.59L20.59 17.59Q20.59 18.79 21.34 19.66Q22.08 20.52 23.11 20.52L23.11 20.52Q24 20.52 24.65 19.79Q25.30 19.06 25.54 18.23Q25.78 17.40 25.78 16.68L25.78 16.68Q25.78 15.60 25.13 14.80Q24.48 13.99 23.50 13.99L23.50 13.99Q22.30 13.99 21.44 15.13Q20.59 16.27 20.59 17.59ZM30.05 12.41L30.05 12.41Q30.05 11.42 30.19 11.02L30.19 11.02Q31.56 10.61 32.86 10.61L32.86 10.61Q34.42 10.61 35.26 11.26L35.26 11.26Q35.23 11.66 35.23 12.48L35.23 12.48L35.33 12.29Q35.40 12.10 35.60 11.82Q35.81 11.54 36.10 11.27Q36.38 10.99 36.91 10.80Q37.44 10.61 38.09 10.61L38.09 10.61Q39.91 10.61 41.18 12.17L41.18 12.17Q41.02 13.22 40.34 13.78Q39.67 14.33 39 14.38L39 14.38Q38.11 13.75 37.30 13.75L37.30 13.75Q34.92 13.75 34.92 16.78L34.92 16.78Q34.92 17.81 35.18 19.03L35.18 19.03Q35.23 18.91 35.86 18.91L35.86 18.91Q36.58 18.91 36.74 19.08L36.74 19.08Q37.03 19.54 37.03 20.57L37.03 20.57Q37.03 22.13 36.48 22.61L36.48 22.61Q35.26 22.87 33.53 22.87L33.53 22.87Q30.70 22.87 30.24 22.34L30.24 22.34Q30.17 22.06 30.17 20.88L30.17 20.88Q30.17 19.20 30.31 19.08L30.31 19.08Q30.48 18.86 31.25 18.86L31.25 18.86Q31.80 18.86 32.06 19.03L32.06 19.03Q31.85 18.48 31.85 15.31L31.85 15.31Q31.85 14.26 31.92 14.11L31.92 14.11Q31.63 14.16 31.39 14.16L31.39 14.16Q30.53 14.16 30.19 13.73L30.19 13.73Q30.05 13.37 30.05 12.41ZM41.95 16.80L41.95 16.80Q41.95 14.38 43.38 12.49Q44.81 10.61 47.23 10.61L47.23 10.61Q48.10 10.61 49.10 10.90L49.10 10.90Q49.10 10.85 49.07 9.95Q49.03 9.05 49.03 8.04L49.03 8.04Q49.03 5.66 49.15 5.42L49.15 5.42Q49.99 4.70 52.82 4.70L52.82 4.70Q53.42 4.70 53.90 4.75Q54.38 4.80 54.61 4.87Q54.84 4.94 54.98 5.02Q55.13 5.09 55.15 5.14L55.15 5.14L55.20 5.16Q55.30 5.38 55.30 6.50L55.30 6.50Q55.30 7.66 55.20 7.87L55.20 7.87Q54.41 8.30 52.73 8.30L52.73 8.30Q52.44 8.30 52.34 8.28L52.34 8.28Q52.34 9.50 52.40 11.98Q52.46 14.45 52.46 15.62L52.46 15.62Q52.46 17.14 52.39 18.62L52.39 18.62Q52.56 18.53 53.26 18.53L53.26 18.53Q54.62 18.53 55.01 18.77L55.01 18.77Q55.20 18.91 55.20 20.81L55.20 20.81Q55.20 21.86 55.13 22.15L55.13 22.15Q54.55 22.90 52.30 22.90L52.30 22.90Q50.93 22.90 49.78 22.80L49.78 22.80Q49.66 22.34 49.66 21.96L49.66 21.96Q49.66 21.77 49.68 21.74L49.68 21.74Q49.30 21.86 48.13 22.48Q46.97 23.09 46.18 23.09L46.18 23.09Q44.90 23.09 43.90 22.06Q42.89 21.02 42.42 19.61Q41.95 18.19 41.95 16.80ZM44.95 16.54L44.95 16.54Q44.95 18.02 45.71 18.94Q46.46 19.85 47.38 19.85L47.38 19.85Q47.95 19.85 48.65 19.52Q49.34 19.20 49.34 18.98L49.34 18.98Q49.32 17.98 49.30 16.90Q49.27 15.82 49.26 15.24Q49.25 14.66 49.22 14.35L49.22 14.35Q49.22 13.90 48.56 13.48Q47.90 13.06 47.16 13.06L47.16 13.06Q46.34 13.06 45.82 13.69Q45.29 14.33 45.12 15.06Q44.95 15.79 44.95 16.54ZM56.35 20.90L56.35 20.90Q56.35 19.68 56.50 19.51L56.50 19.51Q56.78 19.34 57.22 19.30L57.22 19.30Q57.50 19.25 58.46 19.25L58.46 19.25Q58.32 17.74 58.32 15.96L58.32 15.96Q58.32 14.02 58.56 13.49L58.56 13.49Q57.38 13.49 57.00 13.39L57.00 13.39Q57.02 12.74 57.17 12.02L57.17 12.02Q57.22 11.71 57.46 10.80L57.46 10.80Q58.34 10.63 60.43 10.63L60.43 10.63Q61.27 10.63 61.98 10.73Q62.69 10.82 63.06 10.96Q63.43 11.09 63.43 11.21L63.43 11.21Q63.48 11.21 63.48 12.07L63.48 12.07Q63.48 13.44 63.24 13.80L63.24 13.80Q63.14 13.94 62.66 13.94L62.66 13.94Q61.78 13.94 61.54 13.82L61.54 13.82Q61.27 15.50 61.27 18.19L61.27 18.19Q61.27 19.30 61.34 19.34L61.34 19.34Q61.49 19.32 61.75 19.32L61.75 19.32Q62.62 19.32 63.14 19.58L63.14 19.58Q63.22 19.68 63.22 20.02L63.22 20.02Q63.22 20.62 63.05 21.46Q62.88 22.30 62.57 22.61L62.57 22.61Q62.28 22.90 60.70 22.90L60.70 22.90Q56.93 22.90 56.52 22.20L56.52 22.20Q56.35 21.89 56.35 20.90ZM58.27 5.95L58.27 5.95Q58.27 5.28 58.99 5.28L58.99 5.28Q59.59 5.28 60.29 5.64L60.29 5.64Q60.79 5.14 61.63 5.14L61.63 5.14Q62.16 5.14 62.57 5.50Q62.98 5.86 62.98 6.48L62.98 6.48Q62.98 6.79 62.84 7.08Q62.71 7.37 62.57 7.56Q62.42 7.75 62.09 8.00Q61.75 8.26 61.57 8.36Q61.39 8.47 60.94 8.72Q60.48 8.98 60.36 9.05L60.36 9.05Q59.42 8.35 58.85 7.48Q58.27 6.60 58.27 5.95ZM64.56 11.50L64.56 11.50Q64.56 10.97 64.70 10.82L64.70 10.82Q65.14 10.75 65.83 10.75L65.83 10.75L66.36 10.75L66.36 6.24Q67.61 6.14 67.97 6.14Q68.33 6.14 69.43 6.24L69.43 6.24L69.67 10.80Q72.31 10.92 72.70 11.14L72.70 11.14Q73.06 11.76 73.06 13.06L73.06 13.06Q73.06 13.58 72.91 13.73L72.91 13.73Q72.17 13.82 71.21 13.82L71.21 13.82Q70.90 13.82 70.27 13.81Q69.65 13.80 69.34 13.80L69.34 13.80Q69.34 14.59 69.32 15.79Q69.31 16.99 69.31 17.50L69.31 17.50Q69.31 19.37 69.56 19.79Q69.82 20.21 70.94 20.21L70.94 20.21Q71.38 20.21 71.66 20.16L71.66 20.16L71.52 19.66L73.73 19.15Q73.97 19.85 73.97 20.78L73.97 20.78Q73.97 22.34 73.66 22.75L73.66 22.75Q71.30 23.09 69.74 23.09L69.74 23.09Q67.70 23.09 67.06 22.51L67.06 22.51Q66.77 22.25 66.60 21.82Q66.43 21.38 66.37 20.58Q66.31 19.78 66.29 18.97Q66.26 18.17 66.22 16.63Q66.17 15.10 66.10 13.73L66.10 13.73Q65.33 13.66 64.92 13.42L64.92 13.42Q64.56 12.79 64.56 11.50ZM75.19 17.93L75.19 17.93Q75.19 16.20 75.71 14.58Q76.22 12.96 77.36 11.78Q78.50 10.61 80.04 10.61L80.04 10.61Q80.74 10.61 81.28 10.85Q81.82 11.09 82.12 11.44Q82.42 11.78 82.61 12.13Q82.80 12.48 82.87 12.72Q82.94 12.96 82.97 12.96L82.97 12.96Q82.97 11.66 82.94 11.26L82.94 11.26Q83.42 10.85 83.94 10.72Q84.46 10.58 85.37 10.58L85.37 10.58Q86.09 10.58 86.65 10.63Q87.22 10.68 87.50 10.75Q87.79 10.82 87.97 10.90Q88.15 10.97 88.20 10.99L88.20 10.99L88.25 11.02Q88.34 11.23 88.34 12.36L88.34 12.36Q88.34 13.51 88.25 13.73L88.25 13.73Q88.18 13.90 87.48 14.03Q86.78 14.16 86.28 14.16L86.28 14.16Q86.04 14.16 85.75 14.11L85.75 14.11Q85.82 14.26 85.82 15.34L85.82 15.34Q85.82 18.48 85.61 18.82L85.61 18.82Q85.78 18.74 86.02 18.74L86.02 18.74Q87.07 18.74 88.08 18.96L88.08 18.96Q88.27 19.10 88.27 21L88.27 21Q88.27 22.06 88.20 22.34L88.20 22.34Q88.03 22.61 87.14 22.85Q86.26 23.09 85.13 23.09L85.13 23.09Q83.09 23.09 82.61 22.99L82.61 22.99Q82.44 22.54 82.44 22.22L82.44 22.22Q82.44 22.03 82.51 21.94L82.51 21.94Q82.22 22.03 80.88 22.66Q79.54 23.28 78.94 23.28L78.94 23.28Q77.09 23.28 76.14 21.72Q75.19 20.16 75.19 17.93ZM78.19 17.30L78.19 17.30Q78.19 18.65 79.02 19.57Q79.85 20.50 80.76 20.50L80.76 20.50Q81.26 20.50 81.91 20.23Q82.56 19.97 82.61 19.75L82.61 19.75Q82.68 18.65 82.74 17.72Q82.80 16.80 82.84 16.31Q82.87 15.82 82.87 15.67L82.87 15.67L82.87 15.38Q82.87 14.88 82.21 14.39Q81.55 13.90 80.74 13.90L80.74 13.90Q79.54 13.90 78.86 14.99Q78.19 16.08 78.19 17.30ZM90 22.18L90 22.18Q90.14 19.68 91.70 18.74L91.70 18.74Q91.87 18.72 92.21 18.72L92.21 18.72Q93.48 18.72 94.15 19.56L94.15 19.56Q94.15 19.58 94.16 19.64Q94.18 19.70 94.18 19.73L94.18 19.73Q94.18 19.80 94.13 19.99L94.13 19.99Q94.34 20.35 94.91 20.58Q95.47 20.81 96.12 20.81L96.12 20.81Q97.03 20.81 97.57 20.38Q98.11 19.94 98.11 19.34L98.11 19.34Q98.11 18.17 96.17 18.07L96.17 18.07Q95.42 18.05 94.97 18Q94.51 17.95 93.73 17.83Q92.95 17.71 92.45 17.47Q91.94 17.23 91.43 16.87Q90.91 16.51 90.65 15.91Q90.38 15.31 90.38 14.52L90.38 14.52Q90.38 12.65 91.86 11.69Q93.34 10.73 95.52 10.73L95.52 10.73Q97.44 10.73 98.78 11.16L98.78 11.16Q98.93 10.92 99.18 10.68Q99.43 10.44 99.58 10.39L99.58 10.39Q101.35 10.56 101.93 11.59L101.93 11.59Q101.78 14.09 100.22 15.02L100.22 15.02Q100.06 15.05 99.72 15.05L99.72 15.05Q98.45 15.05 97.78 14.21L97.78 14.21Q97.78 14.18 97.76 14.12Q97.75 14.06 97.75 14.04L97.75 14.04Q97.75 13.97 97.80 13.78L97.80 13.78Q97.54 13.46 96.85 13.25Q96.17 13.03 95.45 13.03L95.45 13.03Q93.60 13.03 93.60 14.26L93.60 14.26Q93.60 15.70 96.22 15.79L96.22 15.79Q96.96 15.82 97.39 15.85Q97.82 15.89 98.56 16.00Q99.29 16.10 99.74 16.33Q100.20 16.56 100.67 16.92Q101.14 17.28 101.36 17.87Q101.59 18.46 101.59 19.25L101.59 19.25Q101.59 23.04 96.02 23.04L96.02 23.04Q94.15 23.04 92.90 22.61L92.90 22.61Q92.52 23.33 92.35 23.38L92.35 23.38Q90.58 23.21 90 22.18Z"/></svg>