<svg xmlns="http://www.w3.org/2000/svg" xmlns:xlink="http://www.w3.org/1999/xlink" width="339.504" height="32.688"><path fill="black" d="M6.46 25.66L0.91 25.66L0.91 25.42L1.61 25.42Q2.26 25.42 2.70 25.22Q3.14 25.03 3.36 24.65Q3.58 24.26 3.58 23.69L3.58 23.69L3.58 10.39Q3.58 9.84 3.36 9.48Q3.14 9.12 2.70 8.94Q2.26 8.76 1.61 8.76L1.61 8.76L0.91 8.76L0.91 8.52L5.59 8.52L14.74 22.22L14.74 10.49Q14.74 9.91 14.52 9.53Q14.30 9.14 13.87 8.95Q13.44 8.76 12.77 8.76L12.77 8.76L12.10 8.76L12.10 8.52L17.64 8.52L17.64 8.76L16.94 8.76Q16.30 8.76 15.86 8.95Q15.43 9.14 15.20 9.53Q14.98 9.91 14.98 10.49L14.98 10.49L14.98 25.66L14.26 25.66L3.82 10.01L3.82 23.69Q3.82 24.26 4.03 24.65Q4.25 25.03 4.69 25.22Q5.14 25.42 5.78 25.42L5.78 25.42L6.46 25.42L6.46 25.66ZM25.20 25.90L25.20 25.90Q22.61 25.90 21.12 24.24Q19.63 22.58 19.63 19.20L19.63 19.20Q19.63 15.84 21.06 14.20Q22.49 12.55 25.27 12.55L25.27 12.55Q27.86 12.55 29.35 14.20Q30.84 15.84 30.84 19.20L30.84 19.20Q30.84 22.58 29.41 24.24Q27.98 25.90 25.20 25.90ZM25.25 25.66L25.25 25.66Q26.42 25.66 27.14 25.01Q27.86 24.36 28.19 22.94Q28.51 21.53 28.51 19.20L28.51 19.20Q28.51 16.90 28.19 15.48Q27.86 14.06 27.14 13.43Q26.42 12.79 25.22 12.79L25.22 12.79Q24.05 12.79 23.33 13.43Q22.61 14.06 22.28 15.48Q21.96 16.90 21.96 19.20L21.96 19.20Q21.96 21.53 22.28 22.94Q22.61 24.36 23.34 25.01Q24.07 25.66 25.25 25.66ZM37.92 25.90L37.92 25.90Q36.10 25.90 35.27 25.07Q34.44 24.24 34.44 22.18L34.44 22.18L34.44 13.03L32.62 13.03L32.62 12.79Q33.48 12.79 34.12 12.64Q34.75 12.48 35.21 12.14L35.21 12.14Q35.69 11.81 35.99 11.23Q36.29 10.66 36.46 9.84L36.46 9.84L36.70 9.84L36.70 12.79L40.06 12.79L40.06 13.03L36.70 13.03L36.70 23.06Q36.70 24.31 37.18 24.94Q37.66 25.56 38.59 25.56L38.59 25.56Q38.93 25.56 39.29 25.49Q39.65 25.42 40.06 25.27L40.06 25.27L40.06 25.51Q39.74 25.66 39.12 25.78Q38.50 25.90 37.92 25.90ZM47.50 25.90L47.50 25.90Q44.90 25.90 43.42 24.24Q41.93 22.58 41.93 19.20L41.93 19.20Q41.93 15.84 43.36 14.20Q44.78 12.55 47.57 12.55L47.57 12.55Q50.16 12.55 51.65 14.20Q53.14 15.84 53.14 19.20L53.14 19.20Q53.14 22.58 51.71 24.24Q50.28 25.90 47.50 25.90ZM47.54 25.66L47.54 25.66Q48.72 25.66 49.44 25.01Q50.16 24.36 50.48 22.94Q50.81 21.53 50.81 19.20L50.81 19.20Q50.81 16.90 50.48 15.48Q50.16 14.06 49.44 13.43Q48.72 12.79 47.52 12.79L47.52 12.79Q46.34 12.79 45.62 13.43Q44.90 14.06 44.58 15.48Q44.26 16.90 44.26 19.20L44.26 19.20Q44.26 21.53 44.58 22.94Q44.90 24.36 45.64 25.01Q46.37 25.66 47.54 25.66ZM66.05 25.90L66.05 25.90Q64.87 25.90 63.94 25.64Q63 25.39 62.34 24.95Q61.68 24.50 61.34 23.90Q61.01 23.30 61.01 22.58L61.01 22.58Q61.01 22.03 61.21 21.66Q61.42 21.29 61.80 21.10Q62.18 20.90 62.74 20.90L62.74 20.90Q62.76 22.46 63.13 23.53Q63.50 24.60 64.27 25.13Q65.04 25.66 66.22 25.66L66.22 25.66Q67.75 25.66 68.70 24.76Q69.65 23.86 69.65 22.10L69.65 22.10Q69.65 21.02 69.25 20.35Q68.86 19.68 67.98 19.14Q67.10 18.60 65.69 17.95L65.69 17.95Q64.94 17.59 64.16 17.17Q63.38 16.75 62.72 16.16Q62.06 15.58 61.67 14.72Q61.27 13.87 61.27 12.70L61.27 12.70Q61.27 11.26 61.90 10.27Q62.52 9.29 63.66 8.78Q64.80 8.28 66.34 8.28L66.34 8.28Q67.75 8.28 68.80 8.66Q69.84 9.05 70.43 9.67Q71.02 10.30 71.02 11.04L71.02 11.04Q71.02 11.74 70.49 12.13Q69.96 12.53 69.12 12.53L69.12 12.53Q69.12 10.54 68.47 9.53Q67.82 8.52 66.31 8.52L66.31 8.52Q65.40 8.52 64.70 8.89Q64.01 9.26 63.64 10.00Q63.26 10.73 63.26 11.83L63.26 11.83Q63.26 13.01 63.70 13.73Q64.13 14.45 65.00 14.96Q65.88 15.48 67.20 16.10L67.20 16.10Q68.40 16.66 69.42 17.26Q70.44 17.86 71.06 18.77Q71.69 19.68 71.69 21.17L71.69 21.17Q71.69 22.63 71.03 23.69Q70.37 24.74 69.11 25.32Q67.85 25.90 66.05 25.90ZM79.92 25.90L79.92 25.90Q77.23 25.90 75.73 24.17Q74.23 22.44 74.23 19.32L74.23 19.32Q74.23 15.96 75.62 14.26Q77.02 12.55 79.56 12.55L79.56 12.55Q81.89 12.55 83.22 13.99Q84.55 15.43 84.55 18.29L84.55 18.29L84.55 18.86L76.56 18.86Q76.58 21.31 76.92 22.80Q77.26 24.29 78.01 24.97Q78.77 25.66 79.99 25.66L79.99 25.66Q80.90 25.66 81.61 25.32Q82.32 24.98 82.80 24.32Q83.28 23.66 83.45 22.70L83.45 22.70Q83.74 22.75 83.88 22.99Q84.02 23.23 84.02 23.50L84.02 23.50Q84.02 23.98 83.57 24.54Q83.11 25.10 82.21 25.50Q81.31 25.90 79.92 25.90ZM76.56 18.62L82.13 18.62Q82.13 16.51 81.86 15.24Q81.60 13.97 81.02 13.38Q80.45 12.79 79.51 12.79L79.51 12.79Q78.53 12.79 77.90 13.38Q77.28 13.97 76.97 15.24Q76.66 16.51 76.56 18.62L76.56 18.62ZM93.12 25.66L86.30 25.66L86.30 25.42L86.62 25.42Q87.34 25.42 87.77 25.22Q88.20 25.03 88.39 24.62Q88.58 24.22 88.58 23.57L88.58 23.57L88.58 14.90Q88.58 14.23 88.39 13.82Q88.20 13.42 87.77 13.22Q87.34 13.03 86.62 13.03L86.62 13.03L86.54 13.03L86.54 12.79L90.82 12.79L90.82 15.19L90.86 15.19Q91.03 14.57 91.37 13.97Q91.70 13.37 92.39 12.96Q93.07 12.55 94.22 12.55L94.22 12.55Q95.42 12.55 96.06 13.02Q96.70 13.49 96.70 14.33L96.70 14.33Q96.70 15.05 96.18 15.53Q95.66 16.01 94.46 16.01L94.46 16.01Q94.46 14.52 93.96 13.96Q93.46 13.39 92.83 13.39L92.83 13.39Q92.14 13.39 91.73 13.88Q91.32 14.38 91.13 15.16Q90.94 15.94 90.89 16.76Q90.84 17.59 90.84 18.29L90.84 18.29L90.84 23.45Q90.84 24.17 91.03 24.60Q91.22 25.03 91.67 25.22Q92.11 25.42 92.81 25.42L92.81 25.42L93.12 25.42L93.12 25.66ZM104.42 25.66L97.61 25.66L97.61 25.42L97.92 25.42Q98.64 25.42 99.07 25.22Q99.50 25.03 99.70 24.62Q99.89 24.22 99.89 23.57L99.89 23.57L99.89 14.90Q99.89 14.23 99.70 13.82Q99.50 13.42 99.07 13.22Q98.64 13.03 97.92 13.03L97.92 13.03L97.85 13.03L97.85 12.79L102.14 12.79L102.14 23.45Q102.14 24.17 102.34 24.60Q102.53 25.03 102.97 25.22Q103.42 25.42 104.11 25.42L104.11 25.42L104.42 25.42L104.42 25.66ZM100.90 10.49L100.90 10.49Q100.44 10.49 100.14 10.19Q99.84 9.89 99.84 9.14L99.84 9.14Q99.84 8.38 100.14 8.09Q100.44 7.80 100.90 7.80L100.90 7.80Q101.33 7.80 101.64 8.09Q101.95 8.38 101.95 9.14L101.95 9.14Q101.95 9.89 101.64 10.19Q101.33 10.49 100.90 10.49ZM112.80 25.66L105.38 25.66L105.38 25.42L105.70 25.42Q106.42 25.42 106.85 25.22Q107.28 25.03 107.47 24.62Q107.66 24.22 107.66 23.57L107.66 23.57L107.66 13.03L105.48 13.03L105.48 12.79L107.66 12.79L107.66 11.59Q107.66 9.46 108.79 8.32Q109.92 7.18 112.20 7.18L112.20 7.18Q113.23 7.18 113.90 7.39Q114.58 7.61 114.92 7.98Q115.27 8.35 115.27 8.86L115.27 8.86Q115.27 9.29 115.02 9.59Q114.77 9.89 114.32 10.04Q113.88 10.20 113.30 10.20L113.30 10.20Q113.30 8.66 112.96 8.04Q112.61 7.42 111.74 7.42L111.74 7.42Q110.74 7.42 110.33 8.29Q109.92 9.17 109.92 11.38L109.92 11.38L109.92 12.79L113.30 12.79L113.30 13.03L109.92 13.03L109.92 23.45Q109.92 24.17 110.11 24.60Q110.30 25.03 110.75 25.22Q111.19 25.42 111.89 25.42L111.89 25.42L112.80 25.42L112.80 25.66ZM127.25 25.66L119.90 25.66L119.90 25.42L120.22 25.42Q120.86 25.42 121.31 25.22Q121.75 25.03 121.97 24.65Q122.18 24.26 122.18 23.69L122.18 23.69L122.18 10.39Q122.18 9.84 121.97 9.48Q121.75 9.12 121.31 8.94Q120.86 8.76 120.22 8.76L120.22 8.76L119.90 8.76L119.90 8.52L127.25 8.52Q129.72 8.52 131.47 9.52Q133.22 10.51 134.15 12.42Q135.07 14.33 135.07 17.06L135.07 17.06Q135.07 19.68 134.20 21.61Q133.32 23.54 131.59 24.60Q129.86 25.66 127.25 25.66L127.25 25.66ZM124.61 25.42L126.70 25.42Q128.71 25.42 129.97 24.55Q131.23 23.69 131.82 21.84Q132.41 19.99 132.41 17.06L132.41 17.06Q132.41 14.16 131.82 12.32Q131.23 10.49 129.97 9.62Q128.71 8.76 126.72 8.76L126.72 8.76L124.61 8.76L124.61 25.42ZM143.81 25.66L136.99 25.66L136.99 25.42L137.30 25.42Q138.02 25.42 138.46 25.22Q138.89 25.03 139.08 24.62Q139.27 24.22 139.27 23.57L139.27 23.57L139.27 14.90Q139.27 14.23 139.08 13.82Q138.89 13.42 138.46 13.22Q138.02 13.03 137.30 13.03L137.30 13.03L137.23 13.03L137.23 12.79L141.53 12.79L141.53 23.45Q141.53 24.17 141.72 24.60Q141.91 25.03 142.36 25.22Q142.80 25.42 143.50 25.42L143.50 25.42L143.81 25.42L143.81 25.66ZM140.28 10.49L140.28 10.49Q139.82 10.49 139.52 10.19Q139.22 9.89 139.22 9.14L139.22 9.14Q139.22 8.38 139.52 8.09Q139.82 7.80 140.28 7.80L140.28 7.80Q140.71 7.80 141.02 8.09Q141.34 8.38 141.34 9.14L141.34 9.14Q141.34 9.89 141.02 10.19Q140.71 10.49 140.28 10.49ZM149.26 25.90L149.26 25.90Q148.06 25.90 147.14 25.61Q146.23 25.32 145.72 24.76Q145.20 24.19 145.20 23.35L145.20 23.35Q145.20 22.70 145.46 22.34Q145.73 21.98 146.08 21.84Q146.42 21.70 146.71 21.70L146.71 21.70Q146.71 22.99 146.95 23.87Q147.19 24.74 147.77 25.20Q148.34 25.66 149.30 25.66L149.30 25.66Q150.58 25.66 151.32 25.00Q152.06 24.34 152.06 23.04L152.06 23.04Q152.06 22.20 151.78 21.71Q151.49 21.22 150.83 20.83Q150.17 20.45 148.99 19.94L148.99 19.94Q147.62 19.34 146.83 18.78Q146.04 18.22 145.70 17.54Q145.37 16.87 145.37 15.96L145.37 15.96Q145.37 14.33 146.52 13.45Q147.67 12.58 149.71 12.58L149.71 12.58Q150.86 12.58 151.69 12.88Q152.52 13.18 152.95 13.68Q153.38 14.18 153.38 14.78L153.38 14.78Q153.38 15.43 152.94 15.83Q152.50 16.22 151.66 16.22L151.66 16.22Q151.66 14.38 151.15 13.60Q150.65 12.82 149.59 12.82L149.59 12.82Q148.78 12.82 148.24 13.08Q147.70 13.34 147.42 13.85Q147.14 14.35 147.14 15.12L147.14 15.12Q147.14 15.96 147.48 16.46Q147.82 16.97 148.52 17.33Q149.23 17.69 150.29 18.14L150.29 18.14Q151.66 18.70 152.45 19.26Q153.24 19.82 153.56 20.51Q153.89 21.19 153.89 22.13L153.89 22.13Q153.89 24 152.64 24.95Q151.39 25.90 149.26 25.90ZM161.83 31.42L155.38 31.42L155.38 31.18L155.57 31.18Q156.29 31.18 156.72 30.98Q157.15 30.79 157.34 30.38Q157.54 29.98 157.54 29.33L157.54 29.33L157.54 14.90Q157.54 14.23 157.34 13.82Q157.15 13.42 156.72 13.22Q156.29 13.03 155.57 13.03L155.57 13.03L155.26 13.03L155.26 12.79L159.74 12.79L159.74 16.13L159.79 16.13Q160.13 14.30 161.05 13.43Q161.98 12.55 163.58 12.55L163.58 12.55Q165.94 12.55 167.15 14.23Q168.36 15.91 168.36 19.20L168.36 19.20Q168.36 22.49 167.12 24.19Q165.89 25.90 163.54 25.90L163.54 25.90Q161.98 25.90 161.06 25.01Q160.15 24.12 159.82 22.27L159.82 22.27L159.77 22.27Q159.79 22.87 159.79 23.47Q159.79 24.07 159.79 24.67L159.79 24.67L159.79 29.21Q159.79 29.90 159.98 30.35Q160.18 30.79 160.61 30.98Q161.04 31.18 161.76 31.18L161.76 31.18L161.83 31.18L161.83 31.42ZM163.13 25.54L163.13 25.54Q164.18 25.54 164.82 24.90Q165.46 24.26 165.74 22.86Q166.03 21.46 166.03 19.18L166.03 19.18Q166.03 16.92 165.74 15.54Q165.46 14.16 164.81 13.54Q164.16 12.91 163.10 12.91L163.10 12.91Q161.95 12.91 161.22 13.62Q160.49 14.33 160.14 15.72Q159.79 17.11 159.79 19.20L159.79 19.20Q159.79 21.34 160.15 22.75Q160.51 24.17 161.26 24.85Q162.00 25.54 163.13 25.54ZM176.81 25.66L169.99 25.66L169.99 25.42L170.30 25.42Q171.02 25.42 171.46 25.22Q171.89 25.03 172.08 24.62Q172.27 24.22 172.27 23.57L172.27 23.57L172.27 9.53Q172.27 8.86 172.08 8.45Q171.89 8.04 171.46 7.85Q171.02 7.66 170.30 7.66L170.30 7.66L169.99 7.66L169.99 7.42L174.53 7.42L174.53 23.45Q174.53 24.17 174.72 24.60Q174.91 25.03 175.34 25.22Q175.78 25.42 176.50 25.42L176.50 25.42L176.81 25.42L176.81 25.66ZM182.28 25.90L182.28 25.90Q180.46 25.90 179.39 24.95Q178.32 24 178.32 22.34L178.32 22.34Q178.32 20.50 179.68 19.58Q181.03 18.67 183.79 18.58L183.79 18.58L185.78 18.50L185.78 16.70Q185.78 15.36 185.64 14.50Q185.50 13.63 185.02 13.21Q184.54 12.79 183.55 12.79L183.55 12.79Q182.16 12.79 181.76 13.66Q181.37 14.52 181.37 16.37L181.37 16.37Q180.36 16.37 179.84 16.03Q179.33 15.70 179.33 14.93L179.33 14.93Q179.33 14.06 179.92 13.55Q180.50 13.03 181.49 12.79Q182.47 12.55 183.65 12.55L183.65 12.55Q185.86 12.55 186.95 13.49Q188.04 14.42 188.04 16.70L188.04 16.70L188.04 23.88Q188.04 24.46 188.18 24.79Q188.33 25.13 188.66 25.27Q189.00 25.42 189.53 25.42L189.53 25.42L189.60 25.42L189.60 25.66L185.98 25.66L185.98 23.14L185.93 23.14Q185.69 24.10 185.16 24.71Q184.63 25.32 183.90 25.61Q183.17 25.90 182.28 25.90ZM182.76 25.56L182.76 25.56Q183.65 25.56 184.33 25.10Q185.02 24.65 185.40 23.88Q185.78 23.11 185.78 22.22L185.78 22.22L185.78 18.77L184.25 18.84Q182.21 18.94 181.43 19.78Q180.65 20.62 180.65 22.61L180.65 22.61Q180.65 23.57 180.88 24.23Q181.10 24.89 181.58 25.22Q182.06 25.56 182.76 25.56ZM191.54 31.42L191.54 31.18Q193.25 31.18 194.28 30.92Q195.31 30.67 195.92 30.13Q196.54 29.59 196.96 28.74Q197.38 27.89 197.83 26.71L197.83 26.71L192.58 14.35Q192.36 13.82 192.16 13.55Q191.95 13.27 191.74 13.15Q191.52 13.03 191.21 13.03L191.21 13.03L190.73 13.03L190.73 12.79L196.49 12.79L196.49 13.03L196.42 13.03Q195.74 13.03 195.35 13.24Q194.95 13.44 194.95 13.97L194.95 13.97Q194.95 14.18 195.02 14.46Q195.10 14.74 195.24 15.07L195.24 15.07L197.30 20.09Q197.50 20.52 197.69 21.02Q197.88 21.53 198.07 22.06Q198.26 22.58 198.43 23.06Q198.60 23.54 198.74 23.95L198.74 23.95Q199.06 23.02 199.34 22.16Q199.63 21.31 199.82 20.71L199.82 20.71L201.58 15.22Q201.70 14.88 201.74 14.62Q201.79 14.35 201.79 14.14L201.79 14.14Q201.79 13.58 201.42 13.31Q201.05 13.03 200.21 13.03L200.21 13.03L199.20 13.03L199.20 12.79L204.19 12.79L204.19 13.03L204.00 13.03Q203.42 13.03 203.05 13.18Q202.68 13.32 202.44 13.73Q202.20 14.14 201.94 14.90L201.94 14.90L198.43 25.75Q197.88 27.48 197.35 28.58Q196.82 29.69 196.13 30.31Q195.43 30.94 194.39 31.18Q193.34 31.42 191.76 31.42L191.76 31.42L191.54 31.42ZM221.98 25.66L214.75 25.66L214.75 25.42L215.42 25.42Q216.07 25.42 216.52 25.22Q216.96 25.03 217.18 24.65Q217.39 24.26 217.39 23.69L217.39 23.69L217.39 20.95L210.00 20.95L210.00 19.97L217.42 8.52L219.70 8.52L219.70 19.61L222.67 19.61L222.67 20.95L219.70 20.95L219.70 23.69Q219.70 24.26 219.91 24.65Q220.13 25.03 220.57 25.22Q221.02 25.42 221.66 25.42L221.66 25.42L221.98 25.42L221.98 25.66ZM215.42 12.02L210.50 19.61L217.39 19.61L217.39 15.17Q217.39 14.64 217.39 13.81Q217.39 12.98 217.39 12.06Q217.39 11.14 217.40 10.28Q217.42 9.43 217.44 8.88L217.44 8.88Q217.25 9.19 217.00 9.59Q216.74 9.98 216.47 10.40Q216.19 10.82 215.93 11.24Q215.66 11.66 215.42 12.02L215.42 12.02ZM229.73 25.90L229.73 25.90Q227.76 25.90 226.51 24.79Q225.26 23.69 224.68 21.70Q224.09 19.70 224.09 17.04L224.09 17.04Q224.09 14.38 224.68 12.41Q225.26 10.44 226.51 9.36Q227.76 8.28 229.75 8.28L229.75 8.28Q231.62 8.28 232.87 9.36Q234.12 10.44 234.73 12.42Q235.34 14.40 235.34 17.06L235.34 17.06Q235.34 19.73 234.72 21.71Q234.10 23.69 232.86 24.79Q231.62 25.90 229.73 25.90ZM229.73 25.66L229.73 25.66Q230.59 25.66 231.19 25.20Q231.79 24.74 232.15 23.75Q232.51 22.75 232.68 21.10Q232.85 19.44 232.85 17.06L232.85 17.06Q232.85 14.69 232.68 13.06Q232.51 11.42 232.15 10.43Q231.79 9.43 231.20 8.98Q230.62 8.52 229.75 8.52L229.75 8.52Q228.86 8.52 228.26 8.98Q227.66 9.43 227.29 10.43Q226.92 11.42 226.75 13.06Q226.58 14.69 226.58 17.06L226.58 17.06Q226.58 19.44 226.75 21.10Q226.92 22.75 227.28 23.75Q227.64 24.74 228.25 25.20Q228.86 25.66 229.73 25.66ZM243.14 25.90L243.14 25.90Q241.18 25.90 239.93 24.79Q238.68 23.69 238.09 21.70Q237.50 19.70 237.50 17.04L237.50 17.04Q237.50 14.38 238.09 12.41Q238.68 10.44 239.93 9.36Q241.18 8.28 243.17 8.28L243.17 8.28Q245.04 8.28 246.29 9.36Q247.54 10.44 248.15 12.42Q248.76 14.40 248.76 17.06L248.76 17.06Q248.76 19.73 248.14 21.71Q247.51 23.69 246.28 24.79Q245.04 25.90 243.14 25.90ZM243.14 25.66L243.14 25.66Q244.01 25.66 244.61 25.20Q245.21 24.74 245.57 23.75Q245.93 22.75 246.10 21.10Q246.26 19.44 246.26 17.06L246.26 17.06Q246.26 14.69 246.10 13.06Q245.93 11.42 245.57 10.43Q245.21 9.43 244.62 8.98Q244.03 8.52 243.17 8.52L243.17 8.52Q242.28 8.52 241.68 8.98Q241.08 9.43 240.71 10.43Q240.34 11.42 240.17 13.06Q240.00 14.69 240.00 17.06L240.00 17.06Q240.00 19.44 240.17 21.10Q240.34 22.75 240.70 23.75Q241.06 24.74 241.67 25.20Q242.28 25.66 243.14 25.66ZM262.37 25.66L255.91 25.66L255.91 25.42L256.10 25.42Q256.85 25.42 257.28 25.21Q257.71 25.01 257.89 24.53Q258.07 24.05 258.07 23.21L258.07 23.21L258.07 15.19Q258.07 14.38 257.89 13.91Q257.71 13.44 257.30 13.24Q256.90 13.03 256.15 13.03L256.15 13.03L256.03 13.03L256.03 12.79L260.30 12.79L260.30 15.05L260.35 15.05Q260.69 13.92 261.29 13.39Q261.89 12.86 262.60 12.71Q263.30 12.55 263.90 12.55L263.90 12.55Q266.04 12.55 267.08 13.67Q268.13 14.78 268.13 17.26L268.13 17.26L268.13 23.21Q268.13 24.05 268.30 24.53Q268.46 25.01 268.86 25.21Q269.26 25.42 269.93 25.42L269.93 25.42L270.05 25.42L270.05 25.66L265.87 25.66L265.87 16.44Q265.87 14.88 265.30 13.90Q264.72 12.91 263.30 12.91L263.30 12.91Q262.18 12.91 261.53 13.51Q260.88 14.11 260.60 15.06Q260.33 16.01 260.33 17.04L260.33 17.04L260.33 23.21Q260.33 24.05 260.51 24.53Q260.69 25.01 261.11 25.21Q261.53 25.42 262.25 25.42L262.25 25.42L262.37 25.42L262.37 25.66ZM277.61 25.90L277.61 25.90Q275.02 25.90 273.53 24.24Q272.04 22.58 272.04 19.20L272.04 19.20Q272.04 15.84 273.47 14.20Q274.90 12.55 277.68 12.55L277.68 12.55Q280.27 12.55 281.76 14.20Q283.25 15.84 283.25 19.20L283.25 19.20Q283.25 22.58 281.82 24.24Q280.39 25.90 277.61 25.90ZM277.66 25.66L277.66 25.66Q278.83 25.66 279.55 25.01Q280.27 24.36 280.60 22.94Q280.92 21.53 280.92 19.20L280.92 19.20Q280.92 16.90 280.60 15.48Q280.27 14.06 279.55 13.43Q278.83 12.79 277.63 12.79L277.63 12.79Q276.46 12.79 275.74 13.43Q275.02 14.06 274.69 15.48Q274.37 16.90 274.37 19.20L274.37 19.20Q274.37 21.53 274.69 22.94Q275.02 24.36 275.75 25.01Q276.48 25.66 277.66 25.66ZM291.94 25.66L285.12 25.66L285.12 25.42L285.43 25.42Q286.15 25.42 286.58 25.22Q287.02 25.03 287.21 24.62Q287.40 24.22 287.40 23.57L287.40 23.57L287.40 14.90Q287.40 14.23 287.21 13.82Q287.02 13.42 286.58 13.22Q286.15 13.03 285.43 13.03L285.43 13.03L285.36 13.03L285.36 12.79L289.63 12.79L289.63 15.19L289.68 15.19Q289.85 14.57 290.18 13.97Q290.52 13.37 291.20 12.96Q291.89 12.55 293.04 12.55L293.04 12.55Q294.24 12.55 294.88 13.02Q295.51 13.49 295.51 14.33L295.51 14.33Q295.51 15.05 295.00 15.53Q294.48 16.01 293.28 16.01L293.28 16.01Q293.28 14.52 292.78 13.96Q292.27 13.39 291.65 13.39L291.65 13.39Q290.95 13.39 290.54 13.88Q290.14 14.38 289.94 15.16Q289.75 15.94 289.70 16.76Q289.66 17.59 289.66 18.29L289.66 18.29L289.66 23.45Q289.66 24.17 289.85 24.60Q290.04 25.03 290.48 25.22Q290.93 25.42 291.62 25.42L291.62 25.42L291.94 25.42L291.94 25.66ZM303 25.66L296.54 25.66L296.54 25.42L296.74 25.42Q297.46 25.42 297.89 25.22Q298.32 25.03 298.51 24.62Q298.70 24.22 298.70 23.57L298.70 23.57L298.70 14.90Q298.70 14.23 298.51 13.82Q298.32 13.42 297.89 13.22Q297.46 13.03 296.74 13.03L296.74 13.03L296.66 13.03L296.66 12.79L300.94 12.79L300.94 15.07L300.98 15.07Q301.32 14.02 301.88 13.48Q302.45 12.94 303.14 12.74Q303.84 12.55 304.56 12.55L304.56 12.55Q305.83 12.55 306.85 13.16Q307.87 13.78 308.35 15.48L308.35 15.48L308.40 15.48Q308.71 14.18 309.28 13.56Q309.84 12.94 310.54 12.74Q311.23 12.55 311.90 12.55L311.90 12.55Q313.97 12.55 314.96 13.74Q315.96 14.93 315.96 17.33L315.96 17.33L315.96 23.45Q315.96 24.17 316.15 24.60Q316.34 25.03 316.79 25.22Q317.23 25.42 317.93 25.42L317.93 25.42L318 25.42L318 25.66L313.70 25.66L313.70 16.85Q313.70 14.86 313.15 13.94Q312.60 13.03 311.38 13.03L311.38 13.03Q310.46 13.03 309.82 13.50Q309.17 13.97 308.84 14.86Q308.52 15.74 308.52 17.02L308.52 17.02L308.52 23.45Q308.52 24.17 308.71 24.60Q308.90 25.03 309.35 25.22Q309.79 25.42 310.49 25.42L310.49 25.42L310.56 25.42L310.56 25.66L306.26 25.66L306.26 16.85Q306.26 14.86 305.70 13.94Q305.14 13.03 303.86 13.03L303.86 13.03Q302.90 13.03 302.26 13.51Q301.61 13.99 301.28 14.95Q300.96 15.91 300.96 17.35L300.96 17.35L300.96 23.45Q300.96 24.17 301.15 24.60Q301.34 25.03 301.79 25.22Q302.23 25.42 302.93 25.42L302.93 25.42L303 25.42L303 25.66ZM323.71 25.90L323.71 25.90Q321.89 25.90 320.82 24.95Q319.75 24 319.75 22.34L319.75 22.34Q319.75 20.50 321.11 19.58Q322.46 18.67 325.22 18.58L325.22 18.58L327.22 18.50L327.22 16.70Q327.22 15.36 327.07 14.50Q326.93 13.63 326.45 13.21Q325.97 12.79 324.98 12.79L324.98 12.79Q323.59 12.79 323.20 13.66Q322.80 14.52 322.80 16.37L322.80 16.37Q321.79 16.37 321.28 16.03Q320.76 15.70 320.76 14.93L320.76 14.93Q320.76 14.06 321.35 13.55Q321.94 13.03 322.92 12.79Q323.90 12.55 325.08 12.55L325.08 12.55Q327.29 12.55 328.38 13.49Q329.47 14.42 329.47 16.70L329.47 16.70L329.47 23.88Q329.47 24.46 329.62 24.79Q329.76 25.13 330.10 25.27Q330.43 25.42 330.96 25.42L330.96 25.42L331.03 25.42L331.03 25.66L327.41 25.66L327.41 23.14L327.36 23.14Q327.12 24.10 326.59 24.71Q326.06 25.32 325.33 25.61Q324.60 25.90 323.71 25.90ZM324.19 25.56L324.19 25.56Q325.08 25.56 325.76 25.10Q326.45 24.65 326.83 23.88Q327.22 23.11 327.22 22.22L327.22 22.22L327.22 18.77L325.68 18.84Q323.64 18.94 322.86 19.78Q322.08 20.62 322.08 22.61L322.08 22.61Q322.08 23.57 322.31 24.23Q322.54 24.89 323.02 25.22Q323.50 25.56 324.19 25.56ZM339.19 25.66L332.38 25.66L332.38 25.42L332.69 25.42Q333.41 25.42 333.84 25.22Q334.27 25.03 334.46 24.62Q334.66 24.22 334.66 23.57L334.66 23.57L334.66 9.53Q334.66 8.86 334.46 8.45Q334.27 8.04 333.84 7.85Q333.41 7.66 332.69 7.66L332.69 7.66L332.38 7.66L332.38 7.42L336.91 7.42L336.91 23.45Q336.91 24.17 337.10 24.60Q337.30 25.03 337.73 25.22Q338.16 25.42 338.88 25.42L338.88 25.42L339.19 25.42L339.19 25.66Z"/></svg>