<svg xmlns="http://www.w3.org/2000/svg" xmlns:xlink="http://www.w3.org/1999/xlink" width="203.56800000000004" height="34.752"><path fill="black" d="M8.02 19.44L8.02 19.44Q7.99 19.30 7.99 19.16Q7.99 19.03 7.99 18.89L7.99 18.89Q8.02 16.97 8.04 15.08Q8.06 13.20 8.09 11.30L8.09 11.30Q8.09 11.02 7.94 10.73L7.94 10.73Q7.94 10.99 7.94 11.27Q7.94 11.54 7.92 11.81L7.92 11.81Q7.90 12.05 7.86 12.26Q7.82 12.48 7.78 12.70L7.78 12.70Q7.78 12.79 7.76 12.88Q7.75 12.96 7.78 13.06L7.78 13.06Q7.99 13.87 7.75 14.66L7.75 14.66Q7.73 14.76 7.69 14.84Q7.66 14.93 7.68 15L7.68 15Q7.82 15.29 7.76 15.59Q7.70 15.89 7.63 16.18L7.63 16.18Q7.58 16.34 7.61 16.39L7.61 16.39Q7.82 16.58 7.80 16.84Q7.78 17.09 7.75 17.33L7.75 17.33Q7.75 17.98 7.72 18.64Q7.68 19.30 7.66 19.97L7.66 19.97Q7.63 21.36 7.61 22.80Q7.58 24.24 7.51 25.66L7.51 25.66Q7.51 26.23 7.46 26.81Q7.42 27.38 7.37 27.94L7.37 27.94Q7.34 28.15 7.33 28.38Q7.32 28.61 7.32 28.87L7.32 28.87Q6.86 28.87 6.46 28.87Q6.05 28.87 5.64 28.85L5.64 28.85Q5.54 28.85 5.45 28.80Q5.35 28.75 5.18 28.80L5.18 28.80Q5.09 28.87 4.90 28.82Q4.70 28.78 4.46 28.75L4.46 28.75Q3.98 28.92 3.42 28.90Q2.86 28.87 2.28 28.85L2.28 28.85Q2.26 28.78 2.24 28.72Q2.23 28.66 2.23 28.63L2.23 28.63Q2.23 27.67 2.22 26.71Q2.21 25.75 2.23 24.79L2.23 24.79Q2.23 24.62 2.29 24.43Q2.35 24.24 2.42 24L2.42 24Q2.28 23.88 2.26 23.65Q2.23 23.42 2.26 23.11L2.26 23.11Q2.38 22.63 2.38 22.14Q2.38 21.65 2.40 21.17L2.40 21.17Q2.45 19.63 2.51 18.10Q2.57 16.56 2.59 15.02L2.59 15.02Q2.62 14.42 2.63 13.84Q2.64 13.25 2.66 12.65L2.66 12.65Q2.69 11.74 2.70 10.80Q2.71 9.86 2.74 8.95L2.74 8.95Q2.74 8.90 2.76 8.83Q2.78 8.76 2.81 8.64L2.81 8.64Q3.38 8.64 3.96 8.63Q4.54 8.62 5.11 8.64L5.11 8.64Q5.69 8.66 6.26 8.70Q6.84 8.74 7.42 8.59L7.42 8.59Q7.92 8.50 7.94 9.05L7.94 9.05Q7.94 9.31 7.96 9.61Q7.97 9.91 8.02 10.20L8.02 10.20Q8.04 9.84 8.06 9.48Q8.09 9.12 8.11 8.78L8.11 8.78Q8.66 8.62 9.17 8.74Q9.67 8.86 10.15 9.05L10.15 9.05Q10.49 9.17 10.84 9.36Q11.18 9.55 11.50 9.79L11.50 9.79Q11.90 10.06 12.29 10.61L12.29 10.61Q12.53 10.90 12.74 11.21Q12.96 11.52 13.13 11.86L13.13 11.86Q13.27 12.12 13.34 12.44Q13.42 12.77 13.44 13.06L13.44 13.06Q13.49 13.66 13.46 14.26Q13.44 14.86 13.46 15.48L13.46 15.48Q13.54 16.37 13.13 17.03Q12.72 17.69 12.14 18.24L12.14 18.24Q11.71 18.70 11.20 19.02Q10.68 19.34 10.10 19.56L10.10 19.56Q9.77 19.68 9.38 19.76Q9 19.85 8.64 19.92L8.64 19.92Q8.33 19.97 8.21 19.85Q8.09 19.73 8.02 19.44ZM24.94 14.11L29.21 14.11Q29.30 15.22 29.39 16.32Q29.47 17.42 29.57 18.48L29.57 18.48Q29.62 19.44 29.60 20.17Q29.59 20.90 29.57 20.90L29.57 20.90L29.57 28.61L24.94 28.61Q24.91 28.32 24.91 28.03Q24.91 27.74 24.91 27.50L24.91 27.50Q24.89 25.37 24.85 23.22Q24.82 21.07 24.82 18.94L24.82 18.94Q24.82 17.76 24.86 16.56Q24.91 15.36 24.94 14.11L24.94 14.11ZM17.90 23.14L17.90 23.14Q17.88 23.04 17.88 22.97Q17.88 22.90 17.88 22.82L17.88 22.82L17.88 22.30Q17.78 21.10 18.24 20.14Q18.70 19.18 19.42 18.29L19.42 18.29Q20.42 17.06 22.03 16.66L22.03 16.66Q22.42 16.54 22.81 16.51Q23.21 16.49 23.59 16.46L23.59 16.46Q23.95 16.44 24.04 16.56Q24.12 16.68 24.12 17.02L24.12 17.02Q24.10 18.31 24.08 19.61Q24.07 20.90 24.02 22.22L24.02 22.22Q24 22.99 23.98 23.76Q23.95 24.53 23.90 25.30L23.90 25.30Q23.88 25.32 23.93 25.49L23.93 25.49L23.90 26.21Q23.86 26.66 23.80 27.10Q23.74 27.53 23.66 28.01L23.66 28.01Q23.28 27.94 22.92 27.88Q22.56 27.82 22.22 27.72L22.22 27.72Q21.05 27.43 20.23 26.70Q19.42 25.97 18.79 24.96L18.79 24.96Q18.55 24.50 18.34 24.05Q18.12 23.59 17.90 23.14ZM38.69 13.01L38.69 13.01L38.62 18.48L38.62 24.19Q38.64 25.18 38.62 26.16Q38.59 27.14 38.62 28.13L38.62 28.13Q38.86 28.13 39.07 28.14Q39.29 28.15 39.53 28.15L39.53 28.15Q39.53 28.15 39.55 28.15Q39.58 28.15 39.60 28.20L39.60 28.20L39.60 30.05Q39.34 30 39.07 30Q38.81 30 38.54 30L38.54 30L34.51 30L34.34 13.10Q34.49 13.06 35.02 13.04Q35.54 13.03 36.25 13.04Q36.96 13.06 37.62 13.04Q38.28 13.03 38.69 13.01ZM47.11 22.61L47.11 22.61L46.44 22.61Q46.03 22.54 45.61 22.48Q45.19 22.42 44.71 22.37L44.71 22.37Q44.81 22.01 44.87 21.66Q44.93 21.31 45 21L45 21Q45.29 19.87 45.97 19.10Q46.66 18.34 47.62 17.76L47.62 17.76Q48.05 17.52 48.48 17.32Q48.91 17.11 49.37 16.92L49.37 16.92Q49.44 16.87 49.63 16.87L49.63 16.87Q49.75 16.87 49.88 16.88Q50.02 16.90 50.14 16.87L50.14 16.87Q51.26 16.80 52.19 17.23Q53.11 17.66 53.93 18.34L53.93 18.34Q55.08 19.27 55.49 20.83L55.49 20.83Q55.58 21.17 55.62 21.55Q55.66 21.94 55.66 22.30L55.66 22.30Q55.68 22.63 55.58 22.72Q55.49 22.80 55.15 22.80L55.15 22.80Q53.90 22.78 52.68 22.75Q51.46 22.73 50.21 22.70L50.21 22.70Q49.49 22.68 48.76 22.66Q48.02 22.63 47.30 22.61L47.30 22.61Q47.28 22.58 47.23 22.60Q47.18 22.61 47.11 22.61ZM47.59 27.94L47.59 27.94Q46.42 27.24 45.89 26.20Q45.36 25.15 45.24 23.90L45.24 23.90Q45.22 23.76 45.22 23.60Q45.22 23.45 45.22 23.30L45.22 23.30L50.50 23.45Q50.50 24.43 50.50 25.43Q50.50 26.42 50.47 27.41L50.47 27.41Q50.47 27.50 50.45 27.59Q50.42 27.67 50.42 27.77L50.42 27.77Q50.42 27.91 50.44 28.07Q50.45 28.22 50.47 28.46L50.47 28.46Q50.45 28.49 50.36 28.55Q50.28 28.61 50.18 28.61L50.18 28.61Q49.94 28.63 49.69 28.60Q49.44 28.56 49.20 28.51L49.20 28.51Q48.96 28.46 48.73 28.42Q48.50 28.37 48.29 28.32L48.29 28.32Q48.14 28.30 48.02 28.20L48.02 28.20Q47.93 28.13 47.82 28.06Q47.71 27.98 47.59 27.94ZM64.61 18.67L64.61 18.74Q65.14 18.77 65.65 18.79Q66.17 18.82 66.70 18.86L66.70 18.86Q66.79 19.10 66.83 19.70Q66.86 20.30 66.85 20.98Q66.84 21.65 66.74 22.10L66.74 22.10Q66.22 22.08 65.68 22.07Q65.14 22.06 64.58 22.03L64.58 22.03L64.58 24.34Q64.63 25.78 64.60 27.20Q64.56 28.63 64.68 30.05L64.68 30.05L60.55 30.05L60.46 21.96Q59.93 21.91 59.38 21.86Q58.82 21.82 58.25 21.77L58.25 21.77L58.25 20.06Q58.27 19.66 58.28 19.22Q58.30 18.79 58.37 18.50Q58.44 18.22 58.58 18.29L58.58 18.29Q59.04 18.31 59.51 18.36Q59.98 18.41 60.43 18.46L60.43 18.46L60.38 13.37Q60.53 13.32 61.06 13.32Q61.58 13.32 62.28 13.32Q62.98 13.32 63.64 13.31Q64.30 13.30 64.68 13.27L64.68 13.27L64.61 18.67ZM76.61 18.67L76.61 18.74Q77.14 18.77 77.65 18.79Q78.17 18.82 78.70 18.86L78.70 18.86Q78.79 19.10 78.83 19.70Q78.86 20.30 78.85 20.98Q78.84 21.65 78.74 22.10L78.74 22.10Q78.22 22.08 77.68 22.07Q77.14 22.06 76.58 22.03L76.58 22.03L76.58 24.34Q76.63 25.78 76.60 27.20Q76.56 28.63 76.68 30.05L76.68 30.05L72.55 30.05L72.46 21.96Q71.93 21.91 71.38 21.86Q70.82 21.82 70.25 21.77L70.25 21.77L70.25 20.06Q70.27 19.66 70.28 19.22Q70.30 18.79 70.37 18.50Q70.44 18.22 70.58 18.29L70.58 18.29Q71.04 18.31 71.51 18.36Q71.98 18.41 72.43 18.46L72.43 18.46L72.38 13.37Q72.53 13.32 73.06 13.32Q73.58 13.32 74.28 13.32Q74.98 13.32 75.64 13.31Q76.30 13.30 76.68 13.27L76.68 13.27L76.61 18.67ZM84.46 22.61L84.46 22.61L83.78 22.61Q83.38 22.54 82.96 22.48Q82.54 22.42 82.06 22.37L82.06 22.37Q82.15 22.01 82.21 21.66Q82.27 21.31 82.34 21L82.34 21Q82.63 19.87 83.32 19.10Q84 18.34 84.96 17.76L84.96 17.76Q85.39 17.52 85.82 17.32Q86.26 17.11 86.71 16.92L86.71 16.92Q86.78 16.87 86.98 16.87L86.98 16.87Q87.10 16.87 87.23 16.88Q87.36 16.90 87.48 16.87L87.48 16.87Q88.61 16.80 89.53 17.23Q90.46 17.66 91.27 18.34L91.27 18.34Q92.42 19.27 92.83 20.83L92.83 20.83Q92.93 21.17 92.96 21.55Q93 21.94 93 22.30L93 22.30Q93.02 22.63 92.93 22.72Q92.83 22.80 92.50 22.80L92.50 22.80Q91.25 22.78 90.02 22.75Q88.80 22.73 87.55 22.70L87.55 22.70Q86.83 22.68 86.10 22.66Q85.37 22.63 84.65 22.61L84.65 22.61Q84.62 22.58 84.58 22.60Q84.53 22.61 84.46 22.61ZM84.94 27.94L84.94 27.94Q83.76 27.24 83.23 26.20Q82.70 25.15 82.58 23.90L82.58 23.90Q82.56 23.76 82.56 23.60Q82.56 23.45 82.56 23.30L82.56 23.30L87.84 23.45Q87.84 24.43 87.84 25.43Q87.84 26.42 87.82 27.41L87.82 27.41Q87.82 27.50 87.79 27.59Q87.77 27.67 87.77 27.77L87.77 27.77Q87.77 27.91 87.78 28.07Q87.79 28.22 87.82 28.46L87.82 28.46Q87.79 28.49 87.71 28.55Q87.62 28.61 87.53 28.61L87.53 28.61Q87.29 28.63 87.04 28.60Q86.78 28.56 86.54 28.51L86.54 28.51Q86.30 28.46 86.08 28.42Q85.85 28.37 85.63 28.32L85.63 28.32Q85.49 28.30 85.37 28.20L85.37 28.20Q85.27 28.13 85.16 28.06Q85.06 27.98 84.94 27.94ZM134.71 10.37L134.71 10.37Q134.81 10.58 134.87 10.81Q134.93 11.04 135.02 11.28L135.02 11.28Q135.07 11.47 135.07 11.68Q135.07 11.88 134.88 12.02L134.88 12.02Q134.81 12.05 134.78 12.11Q134.76 12.17 134.76 12.22L134.76 12.22Q134.88 12.82 134.81 13.39Q134.74 13.97 134.83 14.59L134.83 14.59Q134.95 15.22 134.89 15.90Q134.83 16.58 134.83 17.28L134.83 17.28Q134.83 18.19 134.86 19.12Q134.88 20.04 134.88 20.95L134.88 20.95Q134.88 22.18 134.86 23.38Q134.83 24.58 134.83 25.78L134.83 25.78Q134.81 26.50 134.77 27.23Q134.74 27.96 134.69 28.70L134.69 28.70Q134.69 29.09 134.60 29.20Q134.52 29.30 134.11 29.30L134.11 29.30Q133.73 29.28 133.38 29.26Q133.03 29.23 132.65 29.21L132.65 29.21Q132.24 29.14 131.83 29.10Q131.42 29.06 130.99 29.04L130.99 29.04Q130.85 29.04 130.49 28.97L130.49 28.97L130.49 13.06Q130.10 13.94 129.50 14.47Q128.90 15 127.94 15.05L127.94 15.05Q126.91 15.10 126.28 14.57Q125.64 14.04 125.16 13.20L125.16 13.20Q125.14 13.90 125.10 14.52Q125.06 15.14 125.04 15.77L125.04 15.77Q125.02 16.15 124.97 16.50Q124.92 16.85 124.92 17.23L124.92 17.23Q124.97 17.54 124.96 17.86Q124.94 18.17 124.80 18.46L124.80 18.46Q125.02 19.13 124.99 19.80Q124.97 20.47 124.88 21.13Q124.80 21.79 124.80 22.46L124.80 22.46Q124.80 22.99 124.82 23.54Q124.85 24.10 124.85 24.65L124.85 24.65Q124.85 24.91 124.81 25.16Q124.78 25.42 124.73 25.66L124.73 25.66Q124.70 26.38 124.69 27.10Q124.68 27.82 124.66 28.54L124.66 28.54Q124.63 28.99 124.46 29.15Q124.30 29.30 123.82 29.30L123.82 29.30Q123.58 29.30 123.32 29.30Q123.07 29.30 122.93 29.02L122.93 29.02Q122.78 29.06 122.65 29.15Q122.52 29.23 122.38 29.28L122.38 29.28Q122.33 29.11 122.23 28.97L122.23 28.97Q122.14 29.06 122.03 29.12Q121.92 29.18 121.80 29.28L121.80 29.28Q121.63 29.09 121.42 29.09Q121.20 29.09 120.96 29.21L120.96 29.21Q120.67 29.35 120.43 29.18Q120.19 29.02 120.19 28.70L120.19 28.70L120.19 26.81Q120.17 26.38 120.22 25.97Q120.26 25.56 120.43 25.22L120.43 25.22Q120.46 25.15 120.46 25.03L120.46 25.03Q120.24 24.46 120.28 23.87Q120.31 23.28 120.42 22.68Q120.53 22.08 120.46 21.50L120.46 21.50Q120.41 21.02 120.43 20.57Q120.46 20.11 120.46 19.61L120.46 19.61Q120.50 18.98 120.53 18.32Q120.55 17.66 120.55 17.04L120.55 17.04Q120.58 15.84 120.60 14.64Q120.62 13.44 120.65 12.24L120.65 12.24Q120.65 12.19 120.61 12.11Q120.58 12.02 120.58 11.98L120.58 11.98Q120.55 11.83 120.50 11.69Q120.46 11.54 120.43 11.40L120.43 11.40Q120.43 10.92 120.50 10.27L120.50 10.27Q120.55 10.27 120.65 10.30Q120.74 10.32 120.77 10.32L120.77 10.32Q121.10 9.94 121.36 9.58Q121.61 9.22 121.92 8.90L121.92 8.90Q122.21 8.62 122.56 8.45Q122.90 8.28 123.34 8.28L123.34 8.28L125.06 8.28Q125.86 8.28 126.46 8.83L126.46 8.83Q126.84 9.17 127.14 9.59Q127.44 10.01 127.66 10.58L127.66 10.58Q127.82 10.32 127.96 10.09Q128.09 9.86 128.23 9.67L128.23 9.67Q128.71 9.05 129.36 8.65Q130.01 8.26 130.87 8.28L130.87 8.28Q131.06 8.28 131.29 8.29Q131.52 8.30 131.76 8.28L131.76 8.28Q132.53 8.21 133.12 8.52Q133.70 8.83 134.11 9.35Q134.52 9.86 134.71 10.37ZM149.76 21.43L149.76 21.43Q149.74 21.72 149.71 22.02Q149.69 22.32 149.64 22.61L149.64 22.61Q149.62 22.78 149.54 22.88Q149.47 22.99 149.28 22.90L149.28 22.90Q148.94 22.70 148.60 22.76Q148.25 22.82 147.91 22.80L147.91 22.80Q147.22 22.73 146.51 22.74Q145.80 22.75 145.10 22.73L145.10 22.73Q143.66 22.66 142.21 22.56Q140.76 22.46 139.22 22.37L139.22 22.37Q139.27 22.06 139.33 21.78Q139.39 21.50 139.42 21.26L139.42 21.26Q139.44 20.47 139.81 19.82Q140.18 19.18 140.66 18.60L140.66 18.60Q141.07 18.12 141.64 17.81Q142.20 17.50 142.85 17.35L142.85 17.35Q143.69 17.16 144.49 17.20Q145.30 17.23 146.11 17.42L146.11 17.42Q146.66 17.54 147.12 17.82Q147.58 18.10 147.96 18.46L147.96 18.46Q148.37 18.84 148.72 19.30Q149.06 19.75 149.21 20.33L149.21 20.33Q149.26 20.50 149.34 20.68Q149.42 20.86 149.59 20.98L149.59 20.98Q149.69 21.05 149.75 21.16Q149.81 21.26 149.76 21.43ZM139.13 24.70L139.13 24.70Q139.10 24.72 139.03 24.77Q138.96 24.82 138.84 24.89L138.84 24.89Q138.82 24.77 138.79 24.68Q138.77 24.60 138.79 24.50L138.79 24.50Q138.82 24.14 138.84 23.78Q138.86 23.42 138.89 23.04L138.89 23.04Q138.91 22.85 138.95 22.70Q138.98 22.56 139.22 22.54L139.22 22.54Q139.46 22.49 139.57 22.61Q139.68 22.73 139.73 22.92L139.73 22.92Q139.75 22.94 139.76 22.97Q139.78 22.99 139.82 23.06L139.82 23.06Q140.23 23.09 140.68 23.09Q141.12 23.09 141.58 23.11L141.58 23.11Q143.28 23.14 144.96 23.15Q146.64 23.16 148.32 23.18L148.32 23.18Q148.42 23.18 148.51 23.21Q148.61 23.23 148.70 23.23L148.70 23.23Q148.85 23.26 149.02 23.24Q149.18 23.23 149.42 23.21L149.42 23.21Q149.45 23.23 149.52 23.30Q149.59 23.38 149.59 23.50L149.59 23.50Q149.59 23.95 149.47 24.48L149.47 24.48Q149.45 24.72 149.38 24.95Q149.30 25.18 149.26 25.42L149.26 25.42Q149.23 25.51 149.14 25.66L149.14 25.66Q149.06 25.75 148.99 25.86Q148.92 25.97 148.87 26.09L148.87 26.09Q148.15 27.26 147.06 27.79Q145.97 28.32 144.67 28.44L144.67 28.44Q144.10 28.46 143.53 28.44Q142.97 28.42 142.42 28.27L142.42 28.27Q142.27 28.27 142.20 28.20L142.20 28.20Q141.74 27.94 141.29 27.64Q140.83 27.34 140.40 27.02L140.40 27.02Q140.28 26.93 140.18 26.76Q140.09 26.59 140.02 26.45L140.02 26.45Q139.78 26.02 139.57 25.58Q139.37 25.15 139.13 24.70ZM160.66 17.14L160.66 17.14Q161.52 17.64 161.90 18.41Q162.29 19.18 162.38 20.11L162.38 20.11Q162.41 20.21 162.41 20.32Q162.41 20.42 162.41 20.54L162.41 20.54L158.52 20.45Q158.52 19.70 158.52 18.98Q158.52 18.26 158.54 17.52L158.54 17.52Q158.54 17.45 158.59 17.26L158.59 17.26Q158.59 17.14 158.58 17.02Q158.57 16.90 158.54 16.73L158.54 16.73Q158.57 16.73 158.63 16.68Q158.69 16.63 158.76 16.63L158.76 16.63Q158.95 16.61 159.13 16.63Q159.31 16.66 159.48 16.70L159.48 16.70Q159.67 16.73 159.83 16.76Q159.98 16.80 160.15 16.85L160.15 16.85Q160.30 16.90 160.34 16.94L160.34 16.94Q160.51 17.02 160.66 17.14ZM158.16 16.78L158.16 16.78Q158.28 16.80 158.35 16.86Q158.42 16.92 158.38 17.04L158.38 17.04Q158.23 17.28 158.28 17.52Q158.33 17.76 158.30 18L158.30 18Q158.26 18.48 158.27 18.98Q158.28 19.49 158.26 19.99L158.26 19.99Q158.21 21 158.14 22.02Q158.06 23.04 157.99 24.12L157.99 24.12Q157.78 24.07 157.60 24.04Q157.42 24 157.22 24L157.22 24Q156.67 23.95 156.22 23.70Q155.76 23.45 155.35 23.11L155.35 23.11Q154.99 22.82 154.79 22.42Q154.58 22.01 154.46 21.55L154.46 21.55Q154.34 20.98 154.37 20.41Q154.39 19.85 154.51 19.27L154.51 19.27Q154.68 18.50 155.26 17.98L155.26 17.98Q155.52 17.69 155.84 17.45Q156.17 17.21 156.55 17.11L156.55 17.11Q156.67 17.06 156.79 17.00Q156.91 16.94 157.01 16.82L157.01 16.82Q157.15 16.66 157.34 16.70L157.34 16.70Q157.54 16.73 157.75 16.74Q157.97 16.75 158.16 16.78ZM160.03 22.39L160.32 22.58Q161.14 23.06 161.50 23.81Q161.86 24.55 161.93 25.44L161.93 25.44Q161.98 25.82 161.96 26.21Q161.95 26.59 161.83 26.98L161.83 26.98Q161.83 27.10 161.78 27.12L161.78 27.12Q161.59 27.43 161.40 27.73Q161.21 28.03 160.97 28.32L160.97 28.32Q160.90 28.42 160.79 28.48Q160.68 28.54 160.56 28.61L160.56 28.61Q160.27 28.75 159.98 28.90Q159.70 29.04 159.38 29.21L159.38 29.21Q159.41 29.23 159.43 29.27Q159.46 29.30 159.53 29.38L159.53 29.38Q159.43 29.40 159.37 29.42Q159.31 29.45 159.24 29.42L159.24 29.42Q159 29.42 158.76 29.40Q158.52 29.38 158.26 29.35L158.26 29.35Q158.14 29.35 158.04 29.33Q157.94 29.30 157.90 29.14L157.90 29.14Q157.87 28.87 158.16 28.78L158.16 28.78Q158.18 28.78 158.21 28.76Q158.23 28.75 158.28 28.73L158.28 28.73Q158.28 28.44 158.28 28.14Q158.28 27.84 158.30 27.55L158.30 27.55Q158.33 26.40 158.33 25.25Q158.33 24.10 158.35 22.97L158.35 22.97Q158.35 22.85 158.40 22.70L158.40 22.70Q158.40 22.58 158.39 22.48Q158.38 22.37 158.35 22.20L158.35 22.20Q158.38 22.20 158.44 22.15Q158.50 22.10 158.57 22.10L158.57 22.10Q158.74 22.08 158.90 22.10Q159.07 22.13 159.24 22.18L159.24 22.18Q159.41 22.20 159.55 22.24Q159.70 22.27 159.86 22.32L159.86 22.32Q159.91 22.32 159.96 22.34Q160.01 22.37 160.03 22.39L160.03 22.39ZM157.97 28.18L157.97 28.18Q157.97 28.30 157.98 28.42Q157.99 28.54 158.02 28.73L158.02 28.73Q157.99 28.75 157.93 28.80Q157.87 28.85 157.78 28.87L157.78 28.87Q157.58 28.87 157.39 28.84Q157.20 28.80 157.01 28.78L157.01 28.78Q156.82 28.73 156.65 28.69Q156.48 28.66 156.29 28.63L156.29 28.63Q156.24 28.61 156.19 28.58Q156.14 28.56 156.10 28.54L156.10 28.54Q156 28.49 155.92 28.43Q155.83 28.37 155.74 28.32L155.74 28.32Q154.82 27.79 154.42 26.96Q154.01 26.14 153.89 25.15L153.89 25.15Q153.86 25.03 153.86 24.91Q153.86 24.79 153.86 24.67L153.86 24.67L158.04 24.79Q158.04 25.56 158.04 26.34Q158.04 27.12 158.02 27.89L158.02 27.89Q158.02 27.96 157.99 28.03Q157.97 28.10 157.97 28.18ZM173.33 14.11L177.60 14.11Q177.70 15.22 177.78 16.32Q177.86 17.42 177.96 18.48L177.96 18.48Q178.01 19.44 178.00 20.17Q177.98 20.90 177.96 20.90L177.96 20.90L177.96 28.61L173.33 28.61Q173.30 28.32 173.30 28.03Q173.30 27.74 173.30 27.50L173.30 27.50Q173.28 25.37 173.24 23.22Q173.21 21.07 173.21 18.94L173.21 18.94Q173.21 17.76 173.26 16.56Q173.30 15.36 173.33 14.11L173.33 14.11ZM166.30 23.14L166.30 23.14Q166.27 23.04 166.27 22.97Q166.27 22.90 166.27 22.82L166.27 22.82L166.27 22.30Q166.18 21.10 166.63 20.14Q167.09 19.18 167.81 18.29L167.81 18.29Q168.82 17.06 170.42 16.66L170.42 16.66Q170.81 16.54 171.20 16.51Q171.60 16.49 171.98 16.46L171.98 16.46Q172.34 16.44 172.43 16.56Q172.51 16.68 172.51 17.02L172.51 17.02Q172.49 18.31 172.48 19.61Q172.46 20.90 172.42 22.22L172.42 22.22Q172.39 22.99 172.37 23.76Q172.34 24.53 172.30 25.30L172.30 25.30Q172.27 25.32 172.32 25.49L172.32 25.49L172.30 26.21Q172.25 26.66 172.19 27.10Q172.13 27.53 172.06 28.01L172.06 28.01Q171.67 27.94 171.31 27.88Q170.95 27.82 170.62 27.72L170.62 27.72Q169.44 27.43 168.62 26.70Q167.81 25.97 167.18 24.96L167.18 24.96Q166.94 24.50 166.73 24.05Q166.51 23.59 166.30 23.14ZM186.58 15.50L186.58 15.50Q186.41 15.41 186.24 15.46Q186.07 15.50 185.90 15.48L185.90 15.48Q185.57 15.43 185.22 15.46Q184.87 15.48 184.51 15.48L184.51 15.48Q183.82 15.46 183.11 15.43Q182.40 15.41 181.66 15.38L181.66 15.38Q181.68 15.24 181.69 15.11Q181.70 14.98 181.73 14.86L181.73 14.86Q181.73 14.45 181.90 14.14Q182.06 13.82 182.28 13.54L182.28 13.54Q182.66 13.03 183.36 12.89L183.36 12.89Q183.77 12.77 184.15 12.78Q184.54 12.79 184.94 12.89L184.94 12.89Q185.21 12.91 185.45 13.04Q185.69 13.18 185.86 13.37L185.86 13.37Q186.05 13.54 186.23 13.75Q186.41 13.97 186.48 14.26L186.48 14.26Q186.55 14.47 186.70 14.57L186.70 14.57Q186.82 14.64 186.79 14.78L186.79 14.78Q186.77 14.93 186.77 15.07Q186.77 15.22 186.74 15.36L186.74 15.36Q186.74 15.43 186.70 15.49Q186.65 15.55 186.58 15.50ZM186.38 17.52L186.38 17.52L186.31 21.41L186.31 25.46Q186.36 26.50 186.31 27.53Q186.26 28.56 186.38 29.57L186.38 29.57L182.35 29.57L182.16 17.57Q182.30 17.54 182.82 17.53Q183.34 17.52 184.02 17.53Q184.70 17.54 185.35 17.54Q186.00 17.54 186.38 17.52ZM197.47 19.10L197.47 19.10Q197.45 19.61 197.41 20.10Q197.38 20.59 197.33 21.07L197.33 21.07Q197.30 21.50 197.30 21.94Q197.30 22.37 197.30 22.82L197.30 22.82Q197.33 23.28 197.35 23.75Q197.38 24.22 197.40 24.70L197.40 24.70Q197.42 25.15 197.42 25.60Q197.42 26.04 197.30 26.47L197.30 26.47Q197.28 26.54 197.33 26.63Q197.38 26.71 197.40 26.78L197.40 26.78Q197.42 26.90 197.46 27Q197.50 27.10 197.50 27.22L197.50 27.22Q197.52 27.48 197.47 27.72Q197.42 27.96 197.50 28.22L197.50 28.22Q197.52 28.49 197.18 28.54L197.18 28.54Q196.80 28.56 196.46 28.49Q196.13 28.42 195.79 28.32L195.79 28.32Q195.19 28.13 194.65 27.84Q194.11 27.55 193.56 27.24L193.56 27.24Q192.70 26.66 192.19 25.85Q191.69 25.03 191.35 24.07L191.35 24.07Q191.33 23.98 191.33 23.89Q191.33 23.81 191.33 23.71L191.33 23.71Q191.33 23.23 191.34 22.75Q191.35 22.27 191.30 21.79L191.30 21.79Q191.28 21.02 191.53 20.38Q191.78 19.73 192.17 19.13L192.17 19.13Q193.49 17.26 195.79 16.51L195.79 16.51Q195.91 16.46 196.04 16.39Q196.18 16.32 196.32 16.32L196.32 16.32Q196.63 16.30 196.94 16.30Q197.26 16.30 197.54 16.30L197.54 16.30Q197.54 16.54 197.56 16.72Q197.57 16.90 197.54 17.09L197.54 17.09Q197.52 17.59 197.51 18.11Q197.50 18.62 197.47 19.10ZM198.34 21.05L198.34 21.05Q198.00 21 198.00 20.64L198.00 20.64Q198.05 19.58 198.10 18.53Q198.14 17.47 198.19 16.42L198.19 16.42Q198.19 16.42 198.20 16.39Q198.22 16.37 198.24 16.34L198.24 16.34L200.06 16.34Q200.02 16.85 200.04 17.34Q200.06 17.83 199.97 18.31L199.97 18.31Q199.87 18.74 199.86 19.20Q199.85 19.66 199.82 20.11L199.82 20.11Q199.80 20.28 199.80 20.45Q199.80 20.62 199.78 20.81L199.78 20.81Q199.73 21.22 199.39 21.19L199.39 21.19Q199.13 21.17 198.86 21.14Q198.60 21.12 198.34 21.05ZM198.00 28.10L198.00 28.10Q198.00 27.89 197.99 27.66Q197.98 27.43 198.00 27.22L198.00 27.22Q198.00 26.57 198.01 25.93Q198.02 25.30 198.05 24.62L198.05 24.62Q198.05 24.31 198.14 24.23Q198.24 24.14 198.53 24.14L198.53 24.14Q198.84 24.10 199.15 24.12Q199.46 24.14 199.85 24.14L199.85 24.14Q199.85 24.38 199.86 24.61Q199.87 24.84 199.87 25.03L199.87 25.03Q199.87 25.42 199.86 25.78Q199.85 26.14 199.85 26.47L199.85 26.47Q199.85 26.83 199.84 27.19Q199.82 27.55 199.87 27.91L199.87 27.91Q199.92 28.15 199.84 28.24Q199.75 28.32 199.51 28.37L199.51 28.37Q199.27 28.39 199.03 28.43Q198.79 28.46 198.55 28.51L198.55 28.51Q198.02 28.58 198.00 28.10Z"/></svg>