<svg xmlns="http://www.w3.org/2000/svg" xmlns:xlink="http://www.w3.org/1999/xlink" width="56.400000000000006" height="28.056"><path fill="black" d="M4.06 14.21L11.09 6.94L13.68 6.94L4.06 16.85L4.06 14.21ZM5.42 14.52L6.77 13.30L14.09 22.01L11.64 22.01L5.42 14.52ZM2.42 22.01L2.42 6.94L4.32 6.94L4.32 22.01L2.42 22.01ZM25.74 22.01L24.11 22.01L23.87 19.49L23.87 14.57Q23.87 13.02 23.21 12.34Q22.55 11.66 21.23 11.66L21.23 11.66Q20.48 11.66 19.88 11.88Q19.27 12.10 18.92 12.55Q18.56 13.00 18.56 13.70L18.56 13.70L16.48 13.70Q16.48 12.46 17.09 11.69Q17.70 10.93 18.77 10.59Q19.85 10.25 21.23 10.25L21.23 10.25Q22.55 10.25 23.57 10.69Q24.59 11.14 25.16 12.10Q25.74 13.07 25.74 14.62L25.74 14.62L25.74 22.01ZM20.20 22.30L20.20 22.30Q18.78 22.30 17.86 21.79Q16.93 21.29 16.48 20.48Q16.02 19.68 16.02 18.79L16.02 18.79Q16.02 17.63 16.60 16.90Q17.18 16.16 18.19 15.82Q19.20 15.48 20.46 15.48L20.46 15.48Q21.36 15.48 22.27 15.66Q23.17 15.84 24.04 16.15L24.04 16.15L24.04 17.33Q23.32 17.04 22.41 16.87Q21.50 16.70 20.75 16.70L20.75 16.70Q19.60 16.70 18.80 17.18Q18.01 17.65 18.01 18.79L18.01 18.79Q18.01 19.63 18.62 20.23Q19.22 20.83 20.56 20.83L20.56 20.83Q21.49 20.83 22.24 20.39Q22.99 19.96 23.43 19.30Q23.87 18.64 23.87 17.98L23.87 17.98L24.32 17.98Q24.32 19.13 23.83 20.11Q23.33 21.10 22.40 21.70Q21.48 22.30 20.20 22.30ZM32.09 22.01L30.22 22.01L30.22 10.51L32.09 10.51L32.09 22.01ZM32.09 16.82L31.51 16.82Q31.51 14.64 31.93 13.19Q32.35 11.75 33.16 11.03Q33.97 10.32 35.14 10.32L35.14 10.32Q35.52 10.32 35.84 10.37Q36.16 10.43 36.48 10.54L36.48 10.54L36.36 12.38Q36.02 12.28 35.63 12.20Q35.23 12.12 34.92 12.12L34.92 12.12Q33.90 12.12 33.28 12.70Q32.65 13.28 32.37 14.34Q32.09 15.40 32.09 16.82L32.09 16.82ZM40.76 22.01L38.89 22.01L38.89 5.64L40.76 5.64L40.76 22.01ZM54.35 22.01L52.72 22.01L52.48 19.49L52.48 14.57Q52.48 13.02 51.82 12.34Q51.16 11.66 49.84 11.66L49.84 11.66Q49.09 11.66 48.49 11.88Q47.88 12.10 47.53 12.55Q47.17 13.00 47.17 13.70L47.17 13.70L45.08 13.70Q45.08 12.46 45.70 11.69Q46.31 10.93 47.38 10.59Q48.46 10.25 49.84 10.25L49.84 10.25Q51.16 10.25 52.18 10.69Q53.20 11.14 53.77 12.10Q54.35 13.07 54.35 14.62L54.35 14.62L54.35 22.01ZM48.80 22.30L48.80 22.30Q47.39 22.30 46.46 21.79Q45.54 21.29 45.08 20.48Q44.63 19.68 44.63 18.79L44.63 18.79Q44.63 17.63 45.21 16.90Q45.79 16.16 46.80 15.82Q47.81 15.48 49.07 15.48L49.07 15.48Q49.97 15.48 50.87 15.66Q51.78 15.84 52.64 16.15L52.64 16.15L52.64 17.33Q51.92 17.04 51.02 16.87Q50.11 16.70 49.36 16.70L49.36 16.70Q48.20 16.70 47.41 17.18Q46.62 17.65 46.62 18.79L46.62 18.79Q46.62 19.63 47.23 20.23Q47.83 20.83 49.16 20.83L49.16 20.83Q50.10 20.83 50.85 20.39Q51.60 19.96 52.04 19.30Q52.48 18.64 52.48 17.98L52.48 17.98L52.93 17.98Q52.93 19.13 52.43 20.11Q51.94 21.10 51.01 21.70Q50.09 22.30 48.80 22.30Z"/></svg>