<svg xmlns="http://www.w3.org/2000/svg" xmlns:xlink="http://www.w3.org/1999/xlink" width="304.032" height="29.76"><path fill="black" d="M-0.60 23.28L-0.34 22.32Q0.46 22.32 0.97 22.20Q1.49 22.08 1.84 21.76Q2.18 21.43 2.42 20.89Q2.66 20.35 2.88 19.49L2.88 19.49L5.59 8.88Q5.76 8.21 5.86 7.73Q5.95 7.25 5.95 6.91L5.95 6.91Q5.95 6.26 5.53 6.01Q5.11 5.76 4.10 5.76L4.10 5.76L3.58 5.76L3.84 4.80L11.64 4.80L11.38 5.76Q10.58 5.76 10.06 5.92Q9.53 6.07 9.14 6.50Q8.76 6.94 8.46 7.70Q8.16 8.47 7.85 9.70L7.85 9.70L5.35 19.20Q5.14 19.99 5.14 20.54L5.14 20.54Q5.14 21.41 5.72 21.83Q6.31 22.25 7.82 22.25L7.82 22.25Q9.26 22.25 10.31 22.01Q11.35 21.77 12.14 21.23Q12.94 20.69 13.52 19.84Q14.11 18.98 14.62 17.74L14.62 17.74L15.74 17.74L13.63 23.28L-0.60 23.28ZM18.38 18.43L19.46 15.36Q19.80 14.42 19.94 13.85Q20.09 13.27 20.09 12.94L20.09 12.94Q20.09 12.60 19.98 12.49Q19.87 12.38 19.75 12.38L19.75 12.38Q19.49 12.38 19.18 12.64Q18.86 12.89 18.55 13.22Q18.24 13.56 18 13.90Q17.76 14.23 17.66 14.42L17.66 14.42L16.97 13.99Q17.26 13.46 17.77 12.82Q18.29 12.17 18.94 11.62Q19.58 11.06 20.28 10.69Q20.98 10.32 21.60 10.32L21.60 10.32Q22.20 10.32 22.50 10.67Q22.80 11.02 22.80 11.93L22.80 11.93Q22.80 12.62 22.38 13.80Q21.96 14.98 21.29 16.82L21.29 16.82L20.40 19.25Q20.35 19.37 20.27 19.62Q20.18 19.87 20.10 20.15Q20.02 20.42 19.96 20.69Q19.90 20.95 19.90 21.12L19.90 21.12Q19.90 21.34 20.02 21.50Q20.14 21.67 20.40 21.67L20.40 21.67Q20.76 21.67 21.14 21.37Q21.53 21.07 21.89 20.66Q22.25 20.26 22.54 19.84Q22.82 19.42 22.97 19.18L22.97 19.18L23.69 19.58Q23.40 20.16 22.91 20.86Q22.42 21.55 21.79 22.14Q21.17 22.73 20.42 23.12Q19.68 23.52 18.89 23.52L18.89 23.52Q18.19 23.52 17.84 23.16Q17.50 22.80 17.50 21.96L17.50 21.96Q17.50 21.26 17.72 20.46Q17.95 19.66 18.38 18.43L18.38 18.43ZM22.99 6.38L22.99 6.38Q22.39 6.38 21.95 5.98Q21.50 5.57 21.50 4.92L21.50 4.92Q21.50 4.27 21.94 3.82Q22.37 3.36 22.99 3.36L22.99 3.36Q23.66 3.36 24.10 3.82Q24.53 4.27 24.53 4.90L24.53 4.90Q24.53 5.52 24.07 5.95Q23.62 6.38 22.99 6.38ZM32.52 3.38L29.47 12.62L29.54 12.67Q30.24 11.57 31.28 10.96Q32.33 10.34 33.50 10.34L33.50 10.34Q34.97 10.34 35.76 11.26Q36.55 12.17 36.55 13.75L36.55 13.75Q36.55 14.88 36.22 16.06Q35.88 17.23 35.29 18.31Q34.70 19.39 33.91 20.34Q33.12 21.29 32.22 22.00Q31.32 22.70 30.32 23.11Q29.33 23.52 28.37 23.52L28.37 23.52Q27 23.52 26.12 22.69Q25.25 21.86 25.25 20.54L25.25 20.54Q25.25 19.92 25.51 18.78Q25.78 17.64 26.28 16.06L26.28 16.06L29.18 6.70Q29.30 6.26 29.42 5.82Q29.54 5.38 29.54 5.16L29.54 5.16Q29.54 4.32 27.70 4.32L27.70 4.32L27.91 3.60L32.52 3.38ZM28.75 22.30L28.75 22.30Q29.30 22.30 29.93 21.90Q30.55 21.50 31.15 20.83Q31.75 20.16 32.30 19.27Q32.86 18.38 33.26 17.41Q33.67 16.44 33.92 15.44Q34.18 14.45 34.18 13.56L34.18 13.56Q34.18 12.72 33.79 12.17Q33.41 11.62 32.86 11.62L32.86 11.62Q32.33 11.62 31.72 12.01Q31.10 12.41 30.52 13.09Q29.93 13.78 29.39 14.65Q28.85 15.53 28.43 16.50Q28.01 17.47 27.77 18.46Q27.53 19.44 27.53 20.33L27.53 20.33Q27.53 22.30 28.75 22.30ZM38.52 14.21L37.90 13.90Q38.16 13.30 38.70 12.66Q39.24 12.02 39.88 11.51Q40.51 10.99 41.16 10.66Q41.81 10.32 42.29 10.32L42.29 10.32Q42.86 10.32 43.13 10.75Q43.39 11.18 43.39 12.14L43.39 12.14Q43.39 12.53 43.36 12.89Q43.32 13.25 43.22 13.73L43.22 13.73L43.30 13.80Q43.58 13.10 44.11 12.43Q44.64 11.76 45.25 11.24Q45.86 10.73 46.50 10.40Q47.14 10.08 47.69 10.08L47.69 10.08Q48.38 10.08 48.85 10.52Q49.32 10.97 49.32 11.62L49.32 11.62Q49.32 12.24 48.92 12.65Q48.53 13.06 47.90 13.06L47.90 13.06Q47.52 13.06 47.29 12.91Q47.06 12.77 46.90 12.61Q46.73 12.46 46.58 12.31Q46.44 12.17 46.22 12.17L46.22 12.17Q45.77 12.17 45.17 12.78Q44.57 13.39 43.92 14.45Q43.27 15.50 42.64 16.92Q42 18.34 41.47 19.97L41.47 19.97L40.39 23.28L38.16 23.28L39.72 18.31Q40.18 16.87 40.48 15.92Q40.78 14.98 40.94 14.34Q41.11 13.70 41.17 13.34Q41.23 12.98 41.23 12.72L41.23 12.72Q41.23 12.19 40.87 12.19L40.87 12.19Q40.63 12.19 40.28 12.38Q39.94 12.58 39.60 12.86Q39.26 13.15 38.96 13.51Q38.66 13.87 38.52 14.21L38.52 14.21ZM56.28 19.58L57.05 20.09Q54.96 23.52 51.91 23.52L51.91 23.52Q50.26 23.52 49.37 22.50Q48.48 21.48 48.48 19.61L48.48 19.61Q48.48 17.95 49.16 16.30Q49.85 14.64 50.95 13.31Q52.06 11.98 53.42 11.15Q54.79 10.32 56.16 10.32L56.16 10.32Q57.31 10.32 58.04 10.91Q58.78 11.50 58.78 12.41L58.78 12.41Q58.78 13.25 58.15 14.14Q57.53 15.02 56.46 15.82Q55.39 16.61 53.96 17.26Q52.54 17.90 50.93 18.26L50.93 18.26Q50.88 18.60 50.86 18.92Q50.83 19.25 50.83 19.58L50.83 19.58Q50.83 22.20 52.68 22.20L52.68 22.20Q53.57 22.20 54.52 21.50Q55.46 20.81 56.28 19.58L56.28 19.58ZM55.68 11.45L55.68 11.45Q55.06 11.45 54.38 11.93Q53.71 12.41 53.10 13.21Q52.49 14.02 51.98 15.05Q51.48 16.08 51.17 17.18L51.17 17.18Q52.32 16.87 53.30 16.37Q54.29 15.86 55.00 15.23Q55.70 14.59 56.11 13.88Q56.52 13.18 56.52 12.46L56.52 12.46Q56.52 11.45 55.68 11.45ZM72.41 14.04L71.23 18.31Q71.16 18.53 71.08 18.86Q70.99 19.20 70.92 19.54Q70.85 19.87 70.79 20.21Q70.73 20.54 70.73 20.76L70.73 20.76Q70.73 21.24 70.94 21.53Q71.16 21.82 71.48 21.96Q71.81 22.10 72.20 22.15Q72.60 22.20 72.98 22.20L72.98 22.20Q74.30 22.20 75.35 21.85Q76.39 21.50 77.11 20.88Q77.83 20.26 78.20 19.40Q78.58 18.55 78.58 17.54L78.58 17.54Q78.58 15.72 77.40 14.88Q76.22 14.04 73.78 14.04L73.78 14.04L72.41 14.04ZM64.99 23.28L65.26 22.32Q65.98 22.32 66.48 22.22Q66.98 22.13 67.34 21.83Q67.70 21.53 67.97 20.96Q68.23 20.40 68.50 19.46L68.50 19.46L71.33 8.88Q71.59 7.82 71.59 7.22L71.59 7.22Q71.59 6.41 71.09 6.08Q70.58 5.76 69.38 5.76L69.38 5.76L69.65 4.80L76.08 4.80Q77.11 4.80 78.19 4.98Q79.27 5.16 80.15 5.63Q81.02 6.10 81.59 6.90Q82.15 7.70 82.15 8.95L82.15 8.95Q82.15 10.13 81.67 10.92Q81.19 11.71 80.45 12.23Q79.70 12.74 78.80 13.02Q77.90 13.30 77.06 13.42L77.06 13.42L77.06 13.51Q79.18 13.94 80.28 15.08Q81.38 16.22 81.38 17.98L81.38 17.98Q81.38 19.20 80.81 20.18Q80.23 21.17 79.22 21.85Q78.22 22.54 76.82 22.91Q75.43 23.28 73.78 23.28L73.78 23.28L64.99 23.28ZM74.06 7.80L72.72 12.82L74.50 12.82Q75.62 12.82 76.57 12.53Q77.52 12.24 78.19 11.71Q78.86 11.18 79.24 10.45Q79.61 9.72 79.61 8.83L79.61 8.83Q79.61 7.27 78.73 6.58Q77.86 5.88 75.77 5.88L75.77 5.88Q75.12 5.88 74.72 6.32Q74.33 6.77 74.06 7.80L74.06 7.80ZM91.20 11.57L91.20 11.57Q90.29 11.57 89.32 12.41Q88.34 13.25 87.55 14.51Q86.76 15.77 86.26 17.22Q85.75 18.67 85.75 19.92L85.75 19.92Q85.75 20.78 86.11 21.30Q86.47 21.82 87.10 21.82L87.10 21.82Q87.65 21.82 88.25 21.37Q88.85 20.93 89.41 20.20Q89.98 19.46 90.48 18.53Q90.98 17.59 91.37 16.60Q91.75 15.60 91.97 14.64Q92.18 13.68 92.18 12.91L92.18 12.91Q92.18 12.29 91.92 11.93Q91.66 11.57 91.20 11.57ZM93.17 11.90L93.67 10.56L95.66 10.56L94.30 14.23Q93.96 15.14 93.64 16.18Q93.31 17.21 93.06 18.17Q92.81 19.13 92.66 19.92Q92.52 20.71 92.52 21.10L92.52 21.10Q92.52 21.79 92.98 21.79L92.98 21.79Q93.31 21.79 93.95 21.10Q94.58 20.40 95.38 19.30L95.38 19.30L96 19.80Q94.99 21.58 93.83 22.55Q92.66 23.52 91.58 23.52L91.58 23.52Q91.03 23.52 90.73 23.10Q90.43 22.68 90.43 21.72L90.43 21.72Q90.43 21.50 90.44 21.22Q90.46 20.93 90.50 20.45L90.50 20.45L90.41 20.42Q90.05 21.10 89.56 21.66Q89.06 22.22 88.49 22.64Q87.91 23.06 87.29 23.29Q86.66 23.52 86.06 23.52L86.06 23.52Q84.84 23.52 84.16 22.60Q83.47 21.67 83.47 20.04L83.47 20.04Q83.47 18.38 84.17 16.66Q84.86 14.93 85.97 13.52Q87.07 12.12 88.42 11.22Q89.76 10.32 91.06 10.32L91.06 10.32Q91.85 10.32 92.35 10.69Q92.86 11.06 93.17 11.90L93.17 11.90ZM98.76 13.99L98.76 13.99Q98.76 13.20 99.06 12.53Q99.36 11.86 99.89 11.36Q100.42 10.87 101.15 10.60Q101.88 10.32 102.74 10.32L102.74 10.32Q103.90 10.32 104.66 10.90Q105.43 11.47 105.43 12.38L105.43 12.38Q105.43 12.89 105.16 13.18Q104.88 13.46 104.40 13.46L104.40 13.46Q103.85 13.46 103.61 13.14Q103.37 12.82 103.20 12.42Q103.03 12.02 102.84 11.69Q102.65 11.35 102.19 11.35L102.19 11.35Q101.66 11.35 101.30 11.81Q100.94 12.26 100.94 12.94L100.94 12.94Q100.94 13.73 101.41 14.41Q101.88 15.10 102.46 15.84Q103.03 16.58 103.50 17.47Q103.97 18.36 103.97 19.56L103.97 19.56Q103.97 20.38 103.62 21.10Q103.27 21.82 102.68 22.36Q102.10 22.90 101.33 23.21Q100.56 23.52 99.74 23.52L99.74 23.52Q98.30 23.52 97.45 22.90Q96.60 22.27 96.60 21.26L96.60 21.26Q96.60 20.57 96.92 20.17Q97.25 19.78 97.80 19.78L97.80 19.78Q98.83 19.78 98.98 21.19L98.98 21.19Q99.05 21.96 99.23 22.21Q99.41 22.46 99.96 22.46L99.96 22.46Q100.82 22.46 101.33 21.95Q101.83 21.43 101.83 20.52L101.83 20.52Q101.83 19.56 101.35 18.82Q100.87 18.07 100.30 17.36Q99.72 16.66 99.24 15.86Q98.76 15.07 98.76 13.99ZM114.62 21.36L114.62 21.36Q115.32 21.36 116.59 19.56L116.59 19.56L117.22 19.90Q115.49 23.52 113.64 23.52L113.64 23.52Q113.06 23.52 112.69 23.11Q112.32 22.70 111.86 21.65L111.86 21.65L110.26 17.81L109.73 18.05L108.22 23.28L106.03 23.28L110.66 6.07Q110.83 5.42 110.83 5.18L110.83 5.18Q110.83 4.68 110.38 4.50Q109.92 4.32 108.58 4.32L108.58 4.32L108.82 3.60L113.59 3.36L111.10 12.60L111.19 12.62Q112.58 10.30 114.72 10.30L114.72 10.30Q115.85 10.30 116.50 10.84Q117.14 11.38 117.14 12.29L117.14 12.29Q117.14 13.42 116.03 14.54Q114.91 15.67 112.92 16.58L112.92 16.58L112.30 16.87L113.52 20.04Q114.00 21.36 114.62 21.36ZM109.94 16.85L109.94 16.85Q110.98 16.49 111.86 16.01Q112.75 15.53 113.39 15.00Q114.02 14.47 114.38 13.93Q114.74 13.39 114.74 12.91L114.74 12.91Q114.74 11.93 113.76 11.93L113.76 11.93Q113.26 11.93 112.70 12.32Q112.15 12.72 111.62 13.39Q111.10 14.06 110.65 14.96Q110.21 15.86 109.94 16.85ZM126.50 19.58L127.27 20.09Q125.18 23.52 122.14 23.52L122.14 23.52Q120.48 23.52 119.59 22.50Q118.70 21.48 118.70 19.61L118.70 19.61Q118.70 17.95 119.39 16.30Q120.07 14.64 121.18 13.31Q122.28 11.98 123.65 11.15Q125.02 10.32 126.38 10.32L126.38 10.32Q127.54 10.32 128.27 10.91Q129 11.50 129 12.41L129 12.41Q129 13.25 128.38 14.14Q127.75 15.02 126.68 15.82Q125.62 16.61 124.19 17.26Q122.76 17.90 121.15 18.26L121.15 18.26Q121.10 18.60 121.08 18.92Q121.06 19.25 121.06 19.58L121.06 19.58Q121.06 22.20 122.90 22.20L122.90 22.20Q123.79 22.20 124.74 21.50Q125.69 20.81 126.50 19.58L126.50 19.58ZM125.90 11.45L125.90 11.45Q125.28 11.45 124.61 11.93Q123.94 12.41 123.32 13.21Q122.71 14.02 122.21 15.05Q121.70 16.08 121.39 17.18L121.39 17.18Q122.54 16.87 123.53 16.37Q124.51 15.86 125.22 15.23Q125.93 14.59 126.34 13.88Q126.74 13.18 126.74 12.46L126.74 12.46Q126.74 11.45 125.90 11.45ZM130.44 14.21L129.82 13.90Q130.08 13.30 130.62 12.66Q131.16 12.02 131.80 11.51Q132.43 10.99 133.08 10.66Q133.73 10.32 134.21 10.32L134.21 10.32Q134.78 10.32 135.05 10.75Q135.31 11.18 135.31 12.14L135.31 12.14Q135.31 12.53 135.28 12.89Q135.24 13.25 135.14 13.73L135.14 13.73L135.22 13.80Q135.50 13.10 136.03 12.43Q136.56 11.76 137.17 11.24Q137.78 10.73 138.42 10.40Q139.06 10.08 139.61 10.08L139.61 10.08Q140.30 10.08 140.77 10.52Q141.24 10.97 141.24 11.62L141.24 11.62Q141.24 12.24 140.84 12.65Q140.45 13.06 139.82 13.06L139.82 13.06Q139.44 13.06 139.21 12.91Q138.98 12.77 138.82 12.61Q138.65 12.46 138.50 12.31Q138.36 12.17 138.14 12.17L138.14 12.17Q137.69 12.17 137.09 12.78Q136.49 13.39 135.84 14.45Q135.19 15.50 134.56 16.92Q133.92 18.34 133.39 19.97L133.39 19.97L132.31 23.28L130.08 23.28L131.64 18.31Q132.10 16.87 132.40 15.92Q132.70 14.98 132.86 14.34Q133.03 13.70 133.09 13.34Q133.15 12.98 133.15 12.72L133.15 12.72Q133.15 12.19 132.79 12.19L132.79 12.19Q132.55 12.19 132.20 12.38Q131.86 12.58 131.52 12.86Q131.18 13.15 130.88 13.51Q130.58 13.87 130.44 14.21L130.44 14.21ZM151.70 14.71L151.70 14.71Q151.70 14.23 151.62 13.84Q151.54 13.44 151.43 13.08Q151.32 12.72 151.24 12.38Q151.15 12.05 151.15 11.69L151.15 11.69Q151.15 10.32 152.40 10.32L152.40 10.32Q153.14 10.32 153.47 10.85Q153.79 11.38 153.79 12.60L153.79 12.60Q153.79 13.87 153.48 15.18Q153.17 16.49 152.62 17.70Q152.06 18.91 151.32 19.97Q150.58 21.02 149.74 21.82Q148.90 22.61 148.00 23.06Q147.10 23.52 146.21 23.52L146.21 23.52Q145.56 23.52 145.00 23.27Q144.43 23.02 144.02 22.56Q143.62 22.10 143.39 21.48Q143.16 20.86 143.16 20.14L143.16 20.14Q143.16 18.77 143.90 16.92Q144.65 15.07 146.02 13.10L146.02 13.10L145.97 13.03Q145.32 13.03 144.89 12.84Q144.46 12.65 144.16 12.41Q143.86 12.17 143.63 11.98Q143.40 11.78 143.16 11.78L143.16 11.78Q142.75 11.78 142.75 12.19L142.75 12.19Q142.75 12.41 142.88 12.58Q143.02 12.74 143.17 12.91Q143.33 13.08 143.46 13.28Q143.59 13.49 143.59 13.78L143.59 13.78Q143.59 14.21 143.26 14.48Q142.92 14.76 142.39 14.76L142.39 14.76Q141.77 14.76 141.43 14.38Q141.10 13.99 141.10 13.30L141.10 13.30Q141.10 12.70 141.34 12.16Q141.58 11.62 141.98 11.21Q142.39 10.80 142.93 10.56Q143.47 10.32 144.07 10.32L144.07 10.32Q144.55 10.32 144.89 10.48Q145.22 10.63 145.51 10.84Q145.80 11.04 146.08 11.20Q146.35 11.35 146.74 11.35L146.74 11.35Q147.19 11.35 147.55 10.99L147.55 10.99Q148.06 10.54 148.24 10.43Q148.42 10.32 148.70 10.32L148.70 10.32Q149.18 10.32 149.18 10.73L149.18 10.73Q149.18 10.82 149.16 10.90Q149.14 10.97 149.05 11.11Q148.97 11.26 148.76 11.50Q148.56 11.74 148.20 12.17L148.20 12.17Q147.65 12.84 147.19 13.68Q146.74 14.52 146.40 15.43Q146.06 16.34 145.87 17.27Q145.68 18.19 145.68 19.01L145.68 19.01Q145.68 20.30 146.12 21.08Q146.57 21.86 147.26 21.86L147.26 21.86Q147.94 21.86 148.70 21.14Q149.47 20.42 150.14 19.36Q150.82 18.29 151.26 17.04Q151.70 15.79 151.70 14.71ZM156.58 18.43L157.66 15.36Q157.99 14.42 158.14 13.85Q158.28 13.27 158.28 12.94L158.28 12.94Q158.28 12.60 158.17 12.49Q158.06 12.38 157.94 12.38L157.94 12.38Q157.68 12.38 157.37 12.64Q157.06 12.89 156.74 13.22Q156.43 13.56 156.19 13.90Q155.95 14.23 155.86 14.42L155.86 14.42L155.16 13.99Q155.45 13.46 155.96 12.82Q156.48 12.17 157.13 11.62Q157.78 11.06 158.47 10.69Q159.17 10.32 159.79 10.32L159.79 10.32Q160.39 10.32 160.69 10.67Q160.99 11.02 160.99 11.93L160.99 11.93Q160.99 12.62 160.57 13.80Q160.15 14.98 159.48 16.82L159.48 16.82L158.59 19.25Q158.54 19.37 158.46 19.62Q158.38 19.87 158.29 20.15Q158.21 20.42 158.15 20.69Q158.09 20.95 158.09 21.12L158.09 21.12Q158.09 21.34 158.21 21.50Q158.33 21.67 158.59 21.67L158.59 21.67Q158.95 21.67 159.34 21.37Q159.72 21.07 160.08 20.66Q160.44 20.26 160.73 19.84Q161.02 19.42 161.16 19.18L161.16 19.18L161.88 19.58Q161.59 20.16 161.10 20.86Q160.61 21.55 159.98 22.14Q159.36 22.73 158.62 23.12Q157.87 23.52 157.08 23.52L157.08 23.52Q156.38 23.52 156.04 23.16Q155.69 22.80 155.69 21.96L155.69 21.96Q155.69 21.26 155.92 20.46Q156.14 19.66 156.58 18.43L156.58 18.43ZM161.18 6.38L161.18 6.38Q160.58 6.38 160.14 5.98Q159.70 5.57 159.70 4.92L159.70 4.92Q159.70 4.27 160.13 3.82Q160.56 3.36 161.18 3.36L161.18 3.36Q161.86 3.36 162.29 3.82Q162.72 4.27 162.72 4.90L162.72 4.90Q162.72 5.52 162.26 5.95Q161.81 6.38 161.18 6.38ZM163.97 18.43L167.16 6.70Q167.28 6.26 167.40 5.82Q167.52 5.38 167.52 5.16L167.52 5.16Q167.52 4.32 165.70 4.32L165.70 4.32L165.89 3.60L170.28 3.38L165.98 19.15Q165.79 19.80 165.70 20.29Q165.60 20.78 165.60 21.12L165.60 21.12Q165.60 21.34 165.72 21.50Q165.84 21.67 166.10 21.67L166.10 21.67Q166.49 21.67 166.92 21.35Q167.35 21.02 167.75 20.58Q168.14 20.14 168.46 19.67Q168.77 19.20 168.91 18.94L168.91 18.94L169.63 19.34Q169.27 20.16 168.70 20.92Q168.12 21.67 167.47 22.25Q166.82 22.82 166.16 23.17Q165.50 23.52 164.95 23.52L164.95 23.52Q164.11 23.52 163.72 23.16Q163.32 22.80 163.32 21.96L163.32 21.96Q163.32 21.48 163.46 20.66Q163.61 19.85 163.97 18.43L163.97 18.43ZM171.48 18.43L174.67 6.70Q174.79 6.26 174.91 5.82Q175.03 5.38 175.03 5.16L175.03 5.16Q175.03 4.32 173.21 4.32L173.21 4.32L173.40 3.60L177.79 3.38L173.50 19.15Q173.30 19.80 173.21 20.29Q173.11 20.78 173.11 21.12L173.11 21.12Q173.11 21.34 173.23 21.50Q173.35 21.67 173.62 21.67L173.62 21.67Q174 21.67 174.43 21.35Q174.86 21.02 175.26 20.58Q175.66 20.14 175.97 19.67Q176.28 19.20 176.42 18.94L176.42 18.94L177.14 19.34Q176.78 20.16 176.21 20.92Q175.63 21.67 174.98 22.25Q174.34 22.82 173.68 23.17Q173.02 23.52 172.46 23.52L172.46 23.52Q171.62 23.52 171.23 23.16Q170.83 22.80 170.83 21.96L170.83 21.96Q170.83 21.48 170.98 20.66Q171.12 19.85 171.48 18.43L171.48 18.43ZM185.93 19.58L186.70 20.09Q184.61 23.52 181.56 23.52L181.56 23.52Q179.90 23.52 179.02 22.50Q178.13 21.48 178.13 19.61L178.13 19.61Q178.13 17.95 178.81 16.30Q179.50 14.64 180.60 13.31Q181.70 11.98 183.07 11.15Q184.44 10.32 185.81 10.32L185.81 10.32Q186.96 10.32 187.69 10.91Q188.42 11.50 188.42 12.41L188.42 12.41Q188.42 13.25 187.80 14.14Q187.18 15.02 186.11 15.82Q185.04 16.61 183.61 17.26Q182.18 17.90 180.58 18.26L180.58 18.26Q180.53 18.60 180.50 18.92Q180.48 19.25 180.48 19.58L180.48 19.58Q180.48 22.20 182.33 22.20L182.33 22.20Q183.22 22.20 184.16 21.50Q185.11 20.81 185.93 19.58L185.93 19.58ZM185.33 11.45L185.33 11.45Q184.70 11.45 184.03 11.93Q183.36 12.41 182.75 13.21Q182.14 14.02 181.63 15.05Q181.13 16.08 180.82 17.18L180.82 17.18Q181.97 16.87 182.95 16.37Q183.94 15.86 184.64 15.23Q185.35 14.59 185.76 13.88Q186.17 13.18 186.17 12.46L186.17 12.46Q186.17 11.45 185.33 11.45ZM208.18 4.56L205.51 14.98L208.46 14.98L208.10 16.44L205.15 16.44L203.50 23.28L201.00 23.28L202.73 16.44L195.65 16.44L195.96 15.22L207.12 4.56L208.18 4.56ZM198.14 14.98L203.14 14.98L204.86 8.69L204.79 8.66L198.14 14.98ZM215.45 23.52L215.45 23.52Q214.42 23.52 213.58 23.05Q212.74 22.58 212.14 21.74Q211.54 20.90 211.20 19.72Q210.86 18.53 210.86 17.09L210.86 17.09Q210.86 14.78 211.63 12.54Q212.40 10.30 213.66 8.52Q214.92 6.74 216.49 5.65Q218.06 4.56 219.70 4.56L219.70 4.56Q220.73 4.56 221.58 5.00Q222.43 5.45 223.03 6.25Q223.63 7.06 223.97 8.18Q224.30 9.31 224.30 10.68L224.30 10.68Q224.30 12.19 223.94 13.74Q223.58 15.29 222.95 16.72Q222.31 18.14 221.45 19.38Q220.58 20.62 219.60 21.54Q218.62 22.46 217.56 22.99Q216.50 23.52 215.45 23.52ZM219.46 5.81L219.46 5.81Q218.76 5.81 218.05 6.36Q217.34 6.91 216.68 7.86Q216.02 8.81 215.45 10.09Q214.87 11.38 214.45 12.84Q214.03 14.30 213.78 15.88Q213.53 17.45 213.53 18.98L213.53 18.98Q213.53 20.54 214.10 21.40Q214.68 22.25 215.76 22.25L215.76 22.25Q216.46 22.25 217.15 21.70Q217.85 21.14 218.50 20.18Q219.14 19.22 219.72 17.94Q220.30 16.66 220.72 15.17Q221.14 13.68 221.38 12.08Q221.62 10.49 221.62 8.93L221.62 8.93Q221.62 7.42 221.06 6.61Q220.51 5.81 219.46 5.81ZM231.19 23.52L231.19 23.52Q230.16 23.52 229.32 23.05Q228.48 22.58 227.88 21.74Q227.28 20.90 226.94 19.72Q226.61 18.53 226.61 17.09L226.61 17.09Q226.61 14.78 227.38 12.54Q228.14 10.30 229.40 8.52Q230.66 6.74 232.24 5.65Q233.81 4.56 235.44 4.56L235.44 4.56Q236.47 4.56 237.32 5.00Q238.18 5.45 238.78 6.25Q239.38 7.06 239.71 8.18Q240.05 9.31 240.05 10.68L240.05 10.68Q240.05 12.19 239.69 13.74Q239.33 15.29 238.69 16.72Q238.06 18.14 237.19 19.38Q236.33 20.62 235.34 21.54Q234.36 22.46 233.30 22.99Q232.25 23.52 231.19 23.52ZM235.20 5.81L235.20 5.81Q234.50 5.81 233.80 6.36Q233.09 6.91 232.43 7.86Q231.77 8.81 231.19 10.09Q230.62 11.38 230.20 12.84Q229.78 14.30 229.52 15.88Q229.27 17.45 229.27 18.98L229.27 18.98Q229.27 20.54 229.85 21.40Q230.42 22.25 231.50 22.25L231.50 22.25Q232.20 22.25 232.90 21.70Q233.59 21.14 234.24 20.18Q234.89 19.22 235.46 17.94Q236.04 16.66 236.46 15.17Q236.88 13.68 237.12 12.08Q237.36 10.49 237.36 8.93L237.36 8.93Q237.36 7.42 236.81 6.61Q236.26 5.81 235.20 5.81ZM249.05 18.43L250.13 15.36Q250.46 14.42 250.61 13.85Q250.75 13.27 250.75 12.94L250.75 12.94Q250.75 12.60 250.64 12.49Q250.54 12.38 250.42 12.38L250.42 12.38Q250.15 12.38 249.84 12.64Q249.53 12.89 249.22 13.22Q248.90 13.56 248.66 13.90Q248.42 14.23 248.33 14.42L248.33 14.42L247.63 13.99Q247.92 13.46 248.44 12.82Q248.95 12.17 249.60 11.62Q250.25 11.06 250.94 10.69Q251.64 10.32 252.26 10.32L252.26 10.32Q252.86 10.32 253.16 10.67Q253.46 11.02 253.46 11.93L253.46 11.93Q253.46 12.62 253.04 13.80Q252.62 14.98 251.95 16.82L251.95 16.82L251.06 19.25Q251.02 19.37 250.93 19.62Q250.85 19.87 250.76 20.15Q250.68 20.42 250.62 20.69Q250.56 20.95 250.56 21.12L250.56 21.12Q250.56 21.34 250.68 21.50Q250.80 21.67 251.06 21.67L251.06 21.67Q251.42 21.67 251.81 21.37Q252.19 21.07 252.55 20.66Q252.91 20.26 253.20 19.84Q253.49 19.42 253.63 19.18L253.63 19.18L254.35 19.58Q254.06 20.16 253.57 20.86Q253.08 21.55 252.46 22.14Q251.83 22.73 251.09 23.12Q250.34 23.52 249.55 23.52L249.55 23.52Q248.86 23.52 248.51 23.16Q248.16 22.80 248.16 21.96L248.16 21.96Q248.16 21.26 248.39 20.46Q248.62 19.66 249.05 18.43L249.05 18.43ZM253.66 6.38L253.66 6.38Q253.06 6.38 252.61 5.98Q252.17 5.57 252.17 4.92L252.17 4.92Q252.17 4.27 252.60 3.82Q253.03 3.36 253.66 3.36L253.66 3.36Q254.33 3.36 254.76 3.82Q255.19 4.27 255.19 4.90L255.19 4.90Q255.19 5.52 254.74 5.95Q254.28 6.38 253.66 6.38ZM263.50 12.55L260.88 12.55L258.89 19.15Q258.48 20.45 258.46 21.12L258.46 21.12Q258.46 21.34 258.56 21.50Q258.67 21.67 258.94 21.67L258.94 21.67Q259.37 21.67 259.85 21.35Q260.33 21.02 260.77 20.58Q261.22 20.14 261.56 19.67Q261.91 19.20 262.08 18.94L262.08 18.94L262.78 19.34Q262.37 20.16 261.74 20.92Q261.12 21.67 260.42 22.25Q259.73 22.82 259.02 23.17Q258.31 23.52 257.74 23.52L257.74 23.52Q256.90 23.52 256.52 23.16Q256.15 22.80 256.15 21.96L256.15 21.96Q256.15 21.48 256.32 20.66Q256.49 19.85 256.90 18.43L256.90 18.43L258.67 12.55L256.61 12.55L256.92 11.45L259.01 11.45L260.26 7.32L262.46 7.32L261.22 11.45L263.83 11.45L263.50 12.55ZM271.97 11.57L271.97 11.57Q271.06 11.57 270.08 12.41Q269.11 13.25 268.32 14.51Q267.53 15.77 267.02 17.22Q266.52 18.67 266.52 19.92L266.52 19.92Q266.52 20.78 266.88 21.30Q267.24 21.82 267.86 21.82L267.86 21.82Q268.42 21.82 269.02 21.37Q269.62 20.93 270.18 20.20Q270.74 19.46 271.25 18.53Q271.75 17.59 272.14 16.60Q272.52 15.60 272.74 14.64Q272.95 13.68 272.95 12.91L272.95 12.91Q272.95 12.29 272.69 11.93Q272.42 11.57 271.97 11.57ZM273.94 11.90L274.44 10.56L276.43 10.56L275.06 14.23Q274.73 15.14 274.40 16.18Q274.08 17.21 273.83 18.17Q273.58 19.13 273.43 19.92Q273.29 20.71 273.29 21.10L273.29 21.10Q273.29 21.79 273.74 21.79L273.74 21.79Q274.08 21.79 274.72 21.10Q275.35 20.40 276.14 19.30L276.14 19.30L276.77 19.80Q275.76 21.58 274.60 22.55Q273.43 23.52 272.35 23.52L272.35 23.52Q271.80 23.52 271.50 23.10Q271.20 22.68 271.20 21.72L271.20 21.72Q271.20 21.50 271.21 21.22Q271.22 20.93 271.27 20.45L271.27 20.45L271.18 20.42Q270.82 21.10 270.32 21.66Q269.83 22.22 269.26 22.64Q268.68 23.06 268.06 23.29Q267.43 23.52 266.83 23.52L266.83 23.52Q265.61 23.52 264.92 22.60Q264.24 21.67 264.24 20.04L264.24 20.04Q264.24 18.38 264.94 16.66Q265.63 14.93 266.74 13.52Q267.84 12.12 269.18 11.22Q270.53 10.32 271.82 10.32L271.82 10.32Q272.62 10.32 273.12 10.69Q273.62 11.06 273.94 11.90L273.94 11.90ZM278.88 18.43L282.07 6.70Q282.19 6.26 282.31 5.82Q282.43 5.38 282.43 5.16L282.43 5.16Q282.43 4.32 280.61 4.32L280.61 4.32L280.80 3.60L285.19 3.38L280.90 19.15Q280.70 19.80 280.61 20.29Q280.51 20.78 280.51 21.12L280.51 21.12Q280.51 21.34 280.63 21.50Q280.75 21.67 281.02 21.67L281.02 21.67Q281.40 21.67 281.83 21.35Q282.26 21.02 282.66 20.58Q283.06 20.14 283.37 19.67Q283.68 19.20 283.82 18.94L283.82 18.94L284.54 19.34Q284.18 20.16 283.61 20.92Q283.03 21.67 282.38 22.25Q281.74 22.82 281.08 23.17Q280.42 23.52 279.86 23.52L279.86 23.52Q279.02 23.52 278.63 23.16Q278.23 22.80 278.23 21.96L278.23 21.96Q278.23 21.48 278.38 20.66Q278.52 19.85 278.88 18.43L278.88 18.43ZM287.26 18.43L288.34 15.36Q288.67 14.42 288.82 13.85Q288.96 13.27 288.96 12.94L288.96 12.94Q288.96 12.60 288.85 12.49Q288.74 12.38 288.62 12.38L288.62 12.38Q288.36 12.38 288.05 12.64Q287.74 12.89 287.42 13.22Q287.11 13.56 286.87 13.90Q286.63 14.23 286.54 14.42L286.54 14.42L285.84 13.99Q286.13 13.46 286.64 12.82Q287.16 12.17 287.81 11.62Q288.46 11.06 289.15 10.69Q289.85 10.32 290.47 10.32L290.47 10.32Q291.07 10.32 291.37 10.67Q291.67 11.02 291.67 11.93L291.67 11.93Q291.67 12.62 291.25 13.80Q290.83 14.98 290.16 16.82L290.16 16.82L289.27 19.25Q289.22 19.37 289.14 19.62Q289.06 19.87 288.97 20.15Q288.89 20.42 288.83 20.69Q288.77 20.95 288.77 21.12L288.77 21.12Q288.77 21.34 288.89 21.50Q289.01 21.67 289.27 21.67L289.27 21.67Q289.63 21.67 290.02 21.37Q290.40 21.07 290.76 20.66Q291.12 20.26 291.41 19.84Q291.70 19.42 291.84 19.18L291.84 19.18L292.56 19.58Q292.27 20.16 291.78 20.86Q291.29 21.55 290.66 22.14Q290.04 22.73 289.30 23.12Q288.55 23.52 287.76 23.52L287.76 23.52Q287.06 23.52 286.72 23.16Q286.37 22.80 286.37 21.96L286.37 21.96Q286.37 21.26 286.60 20.46Q286.82 19.66 287.26 18.43L287.26 18.43ZM291.86 6.38L291.86 6.38Q291.26 6.38 290.82 5.98Q290.38 5.57 290.38 4.92L290.38 4.92Q290.38 4.27 290.81 3.82Q291.24 3.36 291.86 3.36L291.86 3.36Q292.54 3.36 292.97 3.82Q293.40 4.27 293.40 4.90L293.40 4.90Q293.40 5.52 292.94 5.95Q292.49 6.38 291.86 6.38ZM301.56 18.94L302.40 19.42Q301.39 21.41 300.06 22.46Q298.73 23.52 297.22 23.52L297.22 23.52Q295.66 23.52 294.72 22.45Q293.78 21.38 293.78 19.61L293.78 19.61Q293.78 18.55 294.10 17.45Q294.41 16.34 294.94 15.31Q295.46 14.28 296.18 13.37Q296.90 12.46 297.72 11.78Q298.54 11.11 299.41 10.72Q300.29 10.32 301.13 10.32L301.13 10.32Q302.28 10.32 303.02 10.94Q303.77 11.57 303.77 12.50L303.77 12.50Q303.77 13.10 303.42 13.48Q303.07 13.85 302.52 13.85L302.52 13.85Q301.97 13.85 301.62 13.50Q301.27 13.15 301.27 12.65L301.27 12.65Q301.27 12.34 301.37 12.14Q301.46 11.95 301.46 11.78L301.46 11.78Q301.46 11.45 300.89 11.45L300.89 11.45Q300.10 11.45 299.28 12.19Q298.46 12.94 297.80 14.11Q297.14 15.29 296.72 16.74Q296.30 18.19 296.30 19.63L296.30 19.63Q296.30 20.78 296.75 21.44Q297.19 22.10 297.98 22.10L297.98 22.10Q298.42 22.10 298.88 21.86Q299.35 21.62 299.83 21.20Q300.31 20.78 300.76 20.21Q301.20 19.63 301.56 18.94L301.56 18.94Z"/></svg>