<svg xmlns="http://www.w3.org/2000/svg" xmlns:xlink="http://www.w3.org/1999/xlink" width="333.8640000000001" height="46.368"><path fill="black" d="M10.30 24.82L10.30 24.82Q10.01 24.84 9.86 24.68Q9.72 24.53 9.74 24.19L9.74 24.19Q9.77 23.90 9.92 23.76Q10.08 23.62 10.34 23.62L10.34 23.62Q12.60 23.47 14.47 22.81Q16.34 22.15 17.71 21.01Q19.08 19.87 19.81 18.35Q20.54 16.82 20.54 15.00L20.54 15.00Q20.54 13.15 19.63 12.14Q18.72 11.14 17.11 11.14L17.11 11.14Q16.06 11.14 15.01 11.63Q13.97 12.12 13.00 13.06Q12.02 13.99 11.18 15.30Q10.34 16.61 9.72 18.23Q9.10 19.85 8.71 21.74L8.71 21.74L6.36 34.15Q6.34 34.37 6.18 34.49Q6.02 34.61 5.66 34.61L5.66 34.61Q5.33 34.61 5.17 34.49Q5.02 34.37 5.06 34.13L5.06 34.13L8.76 13.44Q8.21 14.42 7.45 15.25Q6.70 16.08 5.81 16.82Q4.92 17.57 3.79 18.24L3.79 18.24Q3.55 18.41 3.36 18.34Q3.17 18.26 3.02 18.00L3.02 18.00Q2.86 17.71 2.92 17.53Q2.98 17.35 3.19 17.21L3.19 17.21Q4.66 16.34 5.78 15.32Q6.91 14.30 7.79 13.08Q8.66 11.86 9.29 10.37L9.29 10.37Q9.38 10.15 9.55 10.04Q9.72 9.94 10.06 9.94L10.06 9.94Q10.39 9.94 10.52 10.07Q10.66 10.20 10.66 10.44L10.66 10.44L9.74 15.72Q10.70 13.87 11.92 12.58Q13.13 11.28 14.50 10.60Q15.86 9.91 17.30 9.91L17.30 9.91Q18.72 9.91 19.76 10.52Q20.81 11.14 21.37 12.25Q21.94 13.37 21.94 14.93L21.94 14.93Q21.94 17.04 21.08 18.79Q20.23 20.54 18.67 21.85Q17.11 23.16 14.99 23.93Q12.86 24.70 10.30 24.82ZM17.83 34.68L17.83 34.68Q17.54 34.68 17.45 34.50Q17.35 34.32 17.38 34.10Q17.40 33.89 17.56 33.71Q17.71 33.53 18 33.53L18 33.53Q18.72 33.53 19.57 33.04Q20.42 32.54 21.36 31.68Q22.30 30.82 23.27 29.65Q24.24 28.49 25.20 27.13Q26.16 25.78 27.02 24.29Q27.89 22.80 28.63 21.25Q29.38 19.70 29.93 18.24Q30.48 16.78 30.79 15.43Q31.10 14.09 31.10 12.98L31.10 12.98Q31.10 12.72 31.31 12.58Q31.51 12.43 31.76 12.43Q32.02 12.43 32.22 12.58Q32.42 12.72 32.42 12.98L32.42 12.98Q32.42 14.14 32.09 15.53Q31.75 16.92 31.16 18.48Q30.58 20.04 29.76 21.65Q28.94 23.26 28.00 24.84Q27.05 26.42 25.99 27.89Q24.94 29.35 23.86 30.59Q22.78 31.82 21.71 32.74Q20.64 33.65 19.66 34.16Q18.67 34.68 17.83 34.68ZM25.22 34.66L25.22 34.66Q24.65 34.66 24.28 34.45Q23.90 34.25 23.71 33.88Q23.52 33.50 23.50 32.95Q23.47 32.40 23.62 31.70L23.62 31.70L26.64 14.52Q27.07 12.12 27.89 10.97Q28.70 9.82 30.05 9.82L30.05 9.82Q30.84 9.82 31.37 10.21Q31.90 10.61 32.16 11.30Q32.42 12.00 32.42 12.98L32.42 12.98Q32.42 13.27 32.22 13.43Q32.02 13.58 31.76 13.58Q31.51 13.58 31.31 13.43Q31.10 13.27 31.10 12.98L31.10 12.98Q31.10 12.36 31.00 11.93Q30.89 11.50 30.62 11.26Q30.36 11.02 29.98 11.02L29.98 11.02Q29.47 11.02 29.09 11.40Q28.70 11.78 28.42 12.60Q28.13 13.42 27.86 14.74L27.86 14.74L24.84 31.82Q24.72 32.38 24.74 32.75Q24.77 33.12 24.95 33.31Q25.13 33.50 25.44 33.50L25.44 33.50Q25.80 33.50 26.12 33.31Q26.45 33.12 26.75 32.80Q27.05 32.47 27.31 32.06L27.31 32.06Q27.41 31.90 27.58 31.87Q27.74 31.85 27.96 31.97L27.96 31.97Q28.18 32.11 28.22 32.28Q28.27 32.45 28.15 32.62L28.15 32.62Q27.89 33.10 27.44 33.58Q27 34.06 26.44 34.36Q25.87 34.66 25.22 34.66ZM35.21 34.68L35.21 34.68Q34.15 34.68 33.34 34.12Q32.52 33.55 32.09 32.50Q31.66 31.44 31.66 29.93L31.66 29.93Q31.66 28.78 31.93 27.61Q32.21 26.45 32.76 25.42Q33.31 24.38 34.13 23.57Q34.94 22.75 36.04 22.28Q37.13 21.82 38.47 21.82L38.47 21.82Q39.26 21.82 40.07 22.06Q40.87 22.30 41.62 22.75L41.62 22.75L41.69 22.34Q41.74 22.10 41.89 22.01Q42.05 21.91 42.38 21.91L42.38 21.91Q42.74 21.91 42.88 22.06Q43.01 22.20 42.96 22.46L42.96 22.46L41.30 31.87Q41.21 32.40 41.24 32.77Q41.28 33.14 41.45 33.34Q41.62 33.53 41.93 33.53L41.93 33.53Q42.29 33.53 42.60 33.32Q42.91 33.12 43.22 32.80Q43.54 32.47 43.78 32.06L43.78 32.06Q43.90 31.90 44.05 31.86Q44.21 31.82 44.40 31.97L44.40 31.97Q44.64 32.09 44.69 32.27Q44.74 32.45 44.62 32.62L44.62 32.62Q44.38 33.12 43.93 33.59Q43.49 34.06 42.92 34.37Q42.36 34.68 41.76 34.68L41.76 34.68Q41.21 34.68 40.86 34.51Q40.51 34.34 40.30 34.02Q40.08 33.70 40.01 33.26Q39.94 32.83 39.98 32.30L39.98 32.30Q40.03 31.87 40.10 31.46Q40.18 31.06 40.22 30.60L40.22 30.60Q39.46 32.11 38.60 33Q37.75 33.89 36.90 34.28Q36.05 34.68 35.21 34.68ZM33 29.83L33 29.83Q33 30.89 33.29 31.72Q33.58 32.54 34.12 33.01Q34.66 33.48 35.50 33.48L35.50 33.48Q36.41 33.48 37.33 32.82Q38.26 32.16 39.16 30.80Q40.06 29.45 40.82 27.31L40.82 27.31L41.40 23.90Q40.58 23.38 39.84 23.18Q39.10 22.99 38.40 22.99L38.40 22.99Q37.37 22.99 36.52 23.38Q35.66 23.76 35.02 24.44Q34.37 25.13 33.92 26.00Q33.48 26.88 33.24 27.85Q33 28.82 33 29.83ZM55.46 36.10L55.56 34.75Q55.99 34.46 56.44 34.19Q56.88 33.91 57.34 33.64Q57.79 33.36 58.21 33.13Q58.63 32.90 59.02 32.74L59.02 32.74Q59.28 32.62 59.45 32.70Q59.62 32.78 59.68 32.98Q59.74 33.17 59.66 33.37Q59.59 33.58 59.38 33.70L59.38 33.70Q58.92 33.94 58.43 34.22Q57.94 34.51 57.43 34.82Q56.93 35.14 56.44 35.46Q55.94 35.78 55.46 36.10L55.46 36.10ZM50.21 46.73L50.21 46.73Q49.34 46.73 48.72 46.38Q48.10 46.03 47.76 45.40Q47.42 44.76 47.42 43.94L47.42 43.94Q47.42 42.98 47.75 42.08Q48.07 41.18 48.71 40.31Q49.34 39.43 50.26 38.57Q51.17 37.70 52.32 36.84L52.32 36.84Q52.92 36.46 53.53 36.04Q54.14 35.62 54.77 35.21L54.77 35.21L55.66 30.26Q55.08 31.51 54.37 32.35Q53.66 33.19 52.94 33.71Q52.22 34.22 51.52 34.44Q50.81 34.66 50.18 34.66L50.18 34.66Q49.18 34.66 48.44 34.21Q47.71 33.77 47.42 32.81Q47.14 31.85 47.40 30.31L47.40 30.31L48.82 22.39Q48.86 22.13 49.02 22.02Q49.18 21.91 49.51 21.91L49.51 21.91Q49.87 21.91 50.02 22.04Q50.16 22.18 50.11 22.44L50.11 22.44L48.67 30.31Q48.50 31.37 48.61 32.08Q48.72 32.78 49.18 33.13Q49.63 33.48 50.45 33.48L50.45 33.48Q51.17 33.48 51.95 33.11Q52.73 32.74 53.52 31.93Q54.31 31.13 55.03 29.81Q55.75 28.49 56.33 26.62L56.33 26.62L57.07 22.39Q57.12 22.13 57.28 22.02Q57.43 21.91 57.77 21.91L57.77 21.91Q58.13 21.91 58.27 22.04Q58.42 22.18 58.37 22.46L58.37 22.46L55.06 40.78Q54.79 42.17 54.38 43.27Q53.98 44.38 53.38 45.14Q52.78 45.91 52.00 46.32Q51.22 46.73 50.21 46.73ZM50.40 45.58L50.40 45.58Q51 45.58 51.54 45.24Q52.08 44.90 52.51 44.27Q52.94 43.63 53.26 42.73Q53.57 41.83 53.78 40.73L53.78 40.73L54.48 36.77Q54.05 37.03 53.62 37.33Q53.18 37.63 52.75 37.92L52.75 37.92Q51.77 38.66 51.04 39.41Q50.30 40.15 49.80 40.88Q49.30 41.62 49.04 42.34Q48.79 43.06 48.79 43.78L48.79 43.78Q48.79 44.30 48.97 44.71Q49.15 45.12 49.50 45.35Q49.85 45.58 50.40 45.58ZM65.47 34.73L65.47 34.73Q64.63 34.73 64.02 34.40Q63.41 34.08 63.07 33.48Q62.74 32.88 62.68 32.03Q62.62 31.18 62.76 30.17L62.76 30.17L64.15 22.39Q64.20 22.13 64.36 22.02Q64.51 21.91 64.85 21.91L64.85 21.91Q65.21 21.91 65.34 22.03Q65.47 22.15 65.40 22.44L65.40 22.44L64.06 30.12Q63.89 31.13 63.96 31.91Q64.03 32.69 64.45 33.12Q64.87 33.55 65.69 33.55L65.69 33.55Q66.43 33.55 67.14 33.13Q67.85 32.71 68.46 31.97Q69.07 31.22 69.54 30.28Q70.01 29.33 70.25 28.25L70.25 28.25L71.33 22.39Q71.38 22.15 71.54 22.04Q71.71 21.94 72 21.94L72 21.94Q72.38 21.94 72.52 22.06Q72.65 22.18 72.60 22.42L72.60 22.42L71.35 29.47Q71.21 30.43 71.20 31.18Q71.18 31.92 71.35 32.46Q71.52 33 71.94 33.28Q72.36 33.55 73.03 33.55L73.03 33.55Q73.80 33.55 74.50 33.18Q75.19 32.81 75.78 32.17Q76.37 31.54 76.84 30.70Q77.30 29.86 77.60 28.94Q77.90 28.03 78 27.10L78 27.10Q78.10 26.38 78.07 25.64Q78.05 24.91 77.87 24.17Q77.69 23.42 77.33 22.68L77.33 22.68Q77.21 22.39 77.24 22.21Q77.28 22.03 77.45 21.92Q77.62 21.82 77.83 21.82L77.83 21.82Q78.10 21.82 78.25 21.96Q78.41 22.10 78.55 22.44L78.55 22.44Q78.89 23.02 79.07 23.78Q79.25 24.55 79.31 25.38Q79.37 26.21 79.27 26.98L79.27 26.98Q79.18 28.06 78.83 29.15Q78.48 30.24 77.92 31.24Q77.35 32.23 76.58 33.02Q75.82 33.82 74.87 34.27Q73.92 34.73 72.84 34.73L72.84 34.73Q71.95 34.73 71.30 34.38Q70.66 34.03 70.31 33.30Q69.96 32.57 69.91 31.49L69.91 31.49Q69.41 32.50 68.71 33.23Q68.02 33.96 67.20 34.34Q66.38 34.73 65.47 34.73ZM83.26 34.63L83.26 34.63Q82.92 34.63 82.76 34.51Q82.61 34.39 82.66 34.13L82.66 34.13L84.79 22.39Q84.84 22.13 84.98 22.02Q85.13 21.91 85.44 21.91L85.44 21.91Q85.80 21.91 85.97 22.04Q86.14 22.18 86.06 22.44L86.06 22.44L85.39 26.18Q85.99 24.91 86.62 24.07Q87.24 23.23 87.88 22.74Q88.51 22.25 89.14 22.03Q89.76 21.82 90.34 21.82L90.34 21.82Q91.03 21.82 91.63 22.06Q92.23 22.30 92.50 22.63L92.50 22.63Q92.69 22.78 92.66 22.94Q92.64 23.11 92.47 23.33L92.47 23.33Q92.30 23.54 92.12 23.60Q91.94 23.66 91.78 23.54L91.78 23.54Q91.49 23.38 91.06 23.18Q90.62 22.99 90.10 22.99L90.10 22.99Q89.42 22.99 88.73 23.38Q88.03 23.76 87.34 24.58Q86.64 25.39 85.97 26.71Q85.30 28.03 84.70 29.90L84.70 29.90L83.95 34.18Q83.93 34.42 83.75 34.52Q83.57 34.63 83.26 34.63ZM95.69 34.66L95.69 34.66Q94.66 34.66 94.20 33.94Q93.74 33.22 94.08 31.73L94.08 31.73L95.66 22.39Q95.74 22.13 95.89 22.02Q96.05 21.91 96.34 21.91L96.34 21.91Q96.72 21.91 96.86 22.04Q97.01 22.18 96.96 22.44L96.96 22.44L95.33 31.80Q95.14 32.66 95.28 33.08Q95.42 33.50 95.93 33.50L95.93 33.50Q96.29 33.50 96.60 33.31Q96.91 33.12 97.21 32.78Q97.51 32.45 97.80 32.06L97.80 32.06Q97.90 31.90 98.05 31.86Q98.21 31.82 98.42 31.97L98.42 31.97Q98.64 32.09 98.69 32.26Q98.74 32.42 98.62 32.59L98.62 32.59Q98.33 33.17 97.87 33.62Q97.42 34.08 96.88 34.37Q96.34 34.66 95.69 34.66ZM97.13 17.88L97.13 17.88Q96.65 17.88 96.38 17.63Q96.12 17.38 96.12 16.87L96.12 16.87Q96.12 16.30 96.43 15.90Q96.74 15.50 97.34 15.50L97.34 15.50Q97.82 15.50 98.09 15.76Q98.35 16.01 98.35 16.54L98.35 16.54Q98.35 17.11 98.04 17.50Q97.73 17.88 97.13 17.88ZM103.90 34.66L103.90 34.66Q103.06 34.66 102.56 34.30Q102.07 33.94 101.92 33.20Q101.76 32.47 102.00 31.34L102.00 31.34L103.37 23.42L101.35 23.42Q101.11 23.42 101.03 23.28Q100.94 23.14 100.99 22.82L100.99 22.82Q101.04 22.56 101.16 22.42Q101.28 22.27 101.54 22.27L101.54 22.27L103.56 22.27L104.50 17.23Q104.54 16.97 104.70 16.86Q104.86 16.75 105.17 16.75L105.17 16.75Q105.53 16.75 105.70 16.88Q105.86 17.02 105.79 17.26L105.79 17.26L104.88 22.27L108.05 22.27Q108.31 22.27 108.40 22.40Q108.48 22.54 108.41 22.85L108.41 22.85Q108.36 23.16 108.24 23.29Q108.12 23.42 107.88 23.42L107.88 23.42L104.69 23.42L103.25 31.39Q103.01 32.50 103.22 33Q103.44 33.50 104.09 33.50L104.09 33.50Q104.78 33.50 105.37 33.04Q105.96 32.57 106.44 31.78L106.44 31.78Q106.56 31.56 106.74 31.54Q106.92 31.51 107.11 31.66L107.11 31.66Q107.35 31.80 107.40 31.97Q107.45 32.14 107.38 32.30L107.38 32.30Q106.99 32.98 106.46 33.50Q105.94 34.03 105.30 34.34Q104.66 34.66 103.90 34.66ZM115.06 34.70L115.06 34.70Q114.14 34.70 113.35 34.34Q112.56 33.98 111.94 33.36Q111.31 32.74 110.88 31.90Q110.45 31.06 110.22 30.11Q109.99 29.16 109.99 28.15L109.99 28.15Q109.99 27.26 110.18 26.36Q110.38 25.46 110.78 24.65Q111.19 23.83 111.77 23.20Q112.34 22.56 113.10 22.19Q113.86 21.82 114.79 21.82L114.79 21.82Q115.70 21.82 116.32 22.18Q116.93 22.54 117.24 23.18Q117.55 23.83 117.55 24.65L117.55 24.65Q117.55 25.70 117.04 26.80Q116.52 27.89 115.64 28.93Q114.77 29.98 113.64 30.94L113.64 30.94Q112.39 32.04 111.02 32.89Q109.66 33.74 108.29 34.21Q106.92 34.68 105.67 34.68L105.67 34.68Q105.46 34.68 105.34 34.50Q105.22 34.32 105.25 34.10Q105.29 33.89 105.44 33.71Q105.60 33.53 105.94 33.53L105.94 33.53Q107.02 33.53 108.22 33.10Q109.42 32.66 110.62 31.90Q111.82 31.13 112.90 30.12L112.90 30.12Q113.86 29.30 114.60 28.42Q115.34 27.53 115.78 26.62Q116.21 25.70 116.21 24.84L116.21 24.84Q116.21 23.93 115.79 23.46Q115.37 22.99 114.58 22.99L114.58 22.99Q113.86 22.99 113.26 23.44Q112.66 23.88 112.21 24.64Q111.77 25.39 111.54 26.30Q111.31 27.22 111.31 28.10L111.31 28.10Q111.31 29.23 111.60 30.20Q111.89 31.18 112.42 31.93Q112.94 32.69 113.66 33.11Q114.38 33.53 115.27 33.53L115.27 33.53Q116.11 33.53 116.81 33.19Q117.50 32.86 118.10 32.34Q118.70 31.82 119.18 31.32L119.18 31.32Q119.38 31.10 119.57 31.13Q119.76 31.15 119.93 31.30L119.93 31.30Q120.12 31.49 120.18 31.67Q120.24 31.85 120.05 32.06L120.05 32.06Q119.54 32.71 118.78 33.32Q118.01 33.94 117.06 34.32Q116.11 34.70 115.06 34.70ZM133.13 46.73L133.13 46.73Q132.22 46.73 131.53 46.33Q130.85 45.94 130.49 45.23Q130.13 44.52 130.13 43.56L130.13 43.56Q130.13 42.12 130.98 40.61Q131.83 39.10 133.58 37.45Q135.34 35.81 137.99 33.95Q140.64 32.09 144.24 29.98L144.24 29.98Q144.48 29.81 144.67 29.86Q144.86 29.90 145.01 30.19L145.01 30.19Q145.15 30.46 145.10 30.66Q145.06 30.86 144.82 31.01L144.82 31.01Q142.06 32.64 139.91 34.07Q137.76 35.50 136.18 36.78Q134.59 38.06 133.56 39.22Q132.53 40.37 132.01 41.42Q131.50 42.48 131.50 43.49L131.50 43.49Q131.50 44.42 131.94 44.95Q132.38 45.48 133.27 45.48L133.27 45.48Q133.97 45.48 134.60 45.07Q135.24 44.66 135.79 43.93Q136.34 43.20 136.78 42.22Q137.21 41.23 137.53 40.10Q137.86 38.98 138.04 37.72Q138.22 36.46 138.22 35.23L138.22 35.23Q138.24 34.10 138.13 33.13Q138.02 32.16 137.76 31.38Q137.50 30.60 137.02 30.07Q136.54 29.54 135.80 29.24Q135.07 28.94 134.04 28.90L134.04 28.90Q133.78 28.87 133.64 28.69Q133.51 28.51 133.48 28.25Q133.44 27.98 133.57 27.76Q133.70 27.53 133.99 27.41L133.99 27.41Q136.44 26.42 138.46 25.25Q140.47 24.07 141.94 22.68Q143.40 21.29 144.19 19.63Q144.98 17.98 144.98 16.08L144.98 16.08Q144.98 14.47 144.32 13.38Q143.66 12.29 142.45 11.72Q141.24 11.16 139.63 11.16L139.63 11.16Q138.14 11.16 136.76 11.56Q135.38 11.95 134.05 12.73Q132.72 13.51 131.30 14.62L131.30 14.62Q131.06 14.81 130.87 14.76Q130.68 14.71 130.49 14.47L130.49 14.47Q130.32 14.23 130.32 14.02Q130.32 13.80 130.58 13.61L130.58 13.61Q132.19 12.36 133.67 11.54Q135.14 10.73 136.64 10.32Q138.14 9.91 139.78 9.91L139.78 9.91Q141.77 9.91 143.24 10.62Q144.72 11.33 145.55 12.68Q146.38 14.04 146.38 16.01L146.38 16.01Q146.38 18.05 145.58 19.81Q144.79 21.58 143.33 23.06Q141.86 24.55 139.85 25.76Q137.83 26.98 135.36 27.96L135.36 27.96L135.36 28.01Q136.54 28.13 137.34 28.70Q138.14 29.28 138.65 30.20Q139.15 31.13 139.38 32.39Q139.61 33.65 139.58 35.21L139.58 35.21Q139.58 36.41 139.40 37.62Q139.22 38.83 138.94 39.98Q138.65 41.14 138.22 42.14Q137.78 43.15 137.26 44.00Q136.73 44.86 136.08 45.46Q135.43 46.06 134.70 46.39Q133.97 46.73 133.13 46.73ZM156.60 34.68L156.60 34.68Q155.14 34.68 153.91 34.09Q152.69 33.50 151.79 32.35Q150.89 31.20 150.41 29.51Q149.93 27.82 149.93 25.61L149.93 25.61Q149.93 23.47 150.36 21.49Q150.79 19.51 151.62 17.75Q152.45 15.98 153.60 14.54Q154.75 13.10 156.14 12.07Q157.54 11.04 159.16 10.48Q160.78 9.91 162.53 9.91L162.53 9.91Q163.85 9.91 165.02 10.28Q166.20 10.66 167.18 11.39Q168.17 12.12 168.86 13.15L168.86 13.15L169.39 10.39Q169.44 10.10 169.61 10.01Q169.78 9.91 170.14 9.91L170.14 9.91Q170.47 9.91 170.62 10.02Q170.76 10.13 170.71 10.39L170.71 10.39L167.06 30.43Q166.92 31.15 166.92 31.72Q166.92 32.28 167.05 32.65Q167.18 33.02 167.46 33.24Q167.74 33.46 168.22 33.46L168.22 33.46Q168.70 33.46 169.18 33.14Q169.66 32.83 170.14 32.27Q170.62 31.70 171.07 30.89L171.07 30.89Q171.24 30.65 171.43 30.60Q171.62 30.55 171.86 30.70L171.86 30.70Q172.10 30.82 172.16 31.01Q172.22 31.20 172.08 31.44L172.08 31.44Q171.67 32.16 171.22 32.77Q170.76 33.38 170.24 33.82Q169.73 34.25 169.16 34.46Q168.60 34.68 168.02 34.68L168.02 34.68Q167.02 34.68 166.44 34.20Q165.86 33.72 165.70 32.78Q165.53 31.85 165.77 30.55L165.77 30.55L166.51 25.66Q165.55 27.79 164.42 29.47Q163.30 31.15 162.05 32.32Q160.80 33.48 159.42 34.08Q158.04 34.68 156.60 34.68ZM151.32 25.58L151.32 25.58Q151.32 27.53 151.72 28.99Q152.11 30.46 152.84 31.44Q153.58 32.42 154.57 32.92Q155.57 33.41 156.77 33.41L156.77 33.41Q158.02 33.41 159.24 32.84Q160.46 32.28 161.63 31.19Q162.79 30.10 163.85 28.51Q164.90 26.93 165.84 24.89Q166.78 22.85 167.57 20.40L167.57 20.40L168.58 14.83Q167.62 13.06 166.07 12.12Q164.52 11.18 162.41 11.18L162.41 11.18Q160.90 11.18 159.49 11.70Q158.09 12.22 156.84 13.18Q155.59 14.14 154.58 15.47Q153.58 16.80 152.84 18.41Q152.11 20.02 151.72 21.83Q151.32 23.64 151.32 25.58ZM194.64 34.27L181.42 34.27Q181.18 34.27 181.04 34.10Q180.91 33.94 180.94 33.72Q180.96 33.50 181.13 33.36L181.13 33.36L186.12 28.92Q187.73 27.48 189.13 26.18Q190.54 24.89 191.70 23.71Q192.86 22.54 193.78 21.44Q194.69 20.35 195.32 19.33Q195.96 18.31 196.28 17.32Q196.61 16.32 196.61 15.36L196.61 15.36Q196.61 13.97 196.04 13.04Q195.48 12.12 194.44 11.64Q193.39 11.16 191.93 11.16L191.93 11.16Q190.18 11.16 188.80 11.80Q187.42 12.43 186.10 13.56L186.10 13.56Q185.81 13.78 185.60 13.79Q185.40 13.80 185.16 13.56L185.16 13.56Q184.92 13.30 184.97 13.09Q185.02 12.89 185.28 12.67L185.28 12.67Q186.05 11.88 187.13 11.26Q188.21 10.63 189.46 10.27Q190.70 9.91 192.07 9.91L192.07 9.91Q193.34 9.91 194.42 10.26Q195.50 10.61 196.31 11.29Q197.11 11.98 197.54 12.97Q197.98 13.97 197.98 15.26L197.98 15.26Q197.98 16.37 197.62 17.46Q197.26 18.55 196.57 19.68Q195.89 20.81 194.90 22.00Q193.92 23.18 192.70 24.44Q191.47 25.70 190.00 27.06Q188.52 28.42 186.86 29.90L186.86 29.90L183.26 33.07L194.81 33.07Q195 33.07 195.10 33.19Q195.19 33.31 195.17 33.58L195.17 33.58Q195.14 33.91 195 34.09Q194.86 34.27 194.64 34.27L194.64 34.27ZM207.46 34.73L207.46 34.73Q205.42 34.73 203.84 33.70Q202.27 32.66 201.38 30.55Q200.50 28.44 200.50 25.25L200.50 25.25Q200.50 23.23 200.86 21.32Q201.22 19.42 201.86 17.70Q202.51 15.98 203.46 14.57Q204.41 13.15 205.60 12.11Q206.78 11.06 208.20 10.49Q209.62 9.91 211.22 9.91L211.22 9.91Q213.24 9.91 214.78 10.94Q216.31 11.98 217.19 14.08Q218.06 16.18 218.06 19.34L218.06 19.34Q218.09 21.36 217.75 23.28Q217.42 25.20 216.76 26.93Q216.10 28.66 215.16 30.08Q214.22 31.51 213.04 32.54Q211.85 33.58 210.44 34.15Q209.04 34.73 207.46 34.73ZM207.60 33.43L207.60 33.43Q208.94 33.43 210.13 32.90Q211.32 32.38 212.32 31.43Q213.31 30.48 214.12 29.17Q214.92 27.86 215.50 26.30Q216.07 24.74 216.37 23.03Q216.67 21.31 216.67 19.49L216.67 19.49Q216.67 16.63 215.98 14.80Q215.28 12.96 214.01 12.07Q212.74 11.18 211.03 11.18L211.03 11.18Q209.71 11.18 208.54 11.71Q207.36 12.24 206.34 13.19Q205.32 14.14 204.50 15.43Q203.69 16.73 203.11 18.29Q202.54 19.85 202.25 21.59Q201.96 23.33 201.96 25.10L201.96 25.10Q201.96 27.98 202.67 29.83Q203.38 31.68 204.66 32.56Q205.94 33.43 207.60 33.43ZM227.74 34.73L227.74 34.73Q225.70 34.73 224.12 33.70Q222.55 32.66 221.66 30.55Q220.78 28.44 220.78 25.25L220.78 25.25Q220.78 23.23 221.14 21.32Q221.50 19.42 222.14 17.70Q222.79 15.98 223.74 14.57Q224.69 13.15 225.88 12.11Q227.06 11.06 228.48 10.49Q229.90 9.91 231.50 9.91L231.50 9.91Q233.52 9.91 235.06 10.94Q236.59 11.98 237.47 14.08Q238.34 16.18 238.34 19.34L238.34 19.34Q238.37 21.36 238.03 23.28Q237.70 25.20 237.04 26.93Q236.38 28.66 235.44 30.08Q234.50 31.51 233.32 32.54Q232.13 33.58 230.72 34.15Q229.32 34.73 227.74 34.73ZM227.88 33.43L227.88 33.43Q229.22 33.43 230.41 32.90Q231.60 32.38 232.60 31.43Q233.59 30.48 234.40 29.17Q235.20 27.86 235.78 26.30Q236.35 24.74 236.65 23.03Q236.95 21.31 236.95 19.49L236.95 19.49Q236.95 16.63 236.26 14.80Q235.56 12.96 234.29 12.07Q233.02 11.18 231.31 11.18L231.31 11.18Q229.99 11.18 228.82 11.71Q227.64 12.24 226.62 13.19Q225.60 14.14 224.78 15.43Q223.97 16.73 223.39 18.29Q222.82 19.85 222.53 21.59Q222.24 23.33 222.24 25.10L222.24 25.10Q222.24 27.98 222.95 29.83Q223.66 31.68 224.94 32.56Q226.22 33.43 227.88 33.43ZM257.88 34.66L257.88 34.66Q257.30 34.66 256.93 34.45Q256.56 34.25 256.36 33.88Q256.15 33.50 256.13 32.96Q256.10 32.42 256.27 31.73L256.27 31.73L257.21 26.11Q257.38 25.10 257.26 24.42Q257.14 23.74 256.68 23.36Q256.22 22.99 255.38 22.99L255.38 22.99Q254.64 22.99 253.84 23.36Q253.03 23.74 252.23 24.54Q251.42 25.34 250.69 26.65Q249.96 27.96 249.38 29.86L249.38 29.86L248.64 34.18Q248.59 34.42 248.44 34.52Q248.28 34.63 247.94 34.63L247.94 34.63Q247.61 34.63 247.44 34.51Q247.27 34.39 247.32 34.15L247.32 34.15L249.46 22.39Q249.50 22.13 249.65 22.02Q249.79 21.91 250.10 21.91L250.10 21.91Q250.49 21.91 250.64 22.04Q250.80 22.18 250.75 22.44L250.75 22.44L250.06 26.26Q250.68 25.01 251.38 24.16Q252.07 23.30 252.80 22.79Q253.54 22.27 254.26 22.04Q254.98 21.82 255.62 21.82L255.62 21.82Q256.68 21.82 257.41 22.27Q258.14 22.73 258.44 23.69Q258.74 24.65 258.43 26.18L258.43 26.18L257.50 31.82Q257.38 32.38 257.39 32.75Q257.40 33.12 257.58 33.31Q257.76 33.50 258.10 33.50L258.10 33.50Q258.46 33.50 258.78 33.31Q259.10 33.12 259.40 32.80Q259.70 32.47 259.94 32.06L259.94 32.06Q260.04 31.90 260.22 31.86Q260.40 31.82 260.59 31.97L260.59 31.97Q260.81 32.11 260.86 32.28Q260.90 32.45 260.78 32.62L260.78 32.62Q260.52 33.10 260.08 33.58Q259.63 34.06 259.08 34.36Q258.53 34.66 257.88 34.66ZM267.58 34.73L267.58 34.73Q266.09 34.73 265.03 34.06Q263.98 33.38 263.44 32.17Q262.90 30.96 262.90 29.38L262.90 29.38Q262.90 27.98 263.32 26.65Q263.74 25.32 264.56 24.22Q265.39 23.11 266.59 22.46Q267.79 21.82 269.30 21.82L269.30 21.82Q270.72 21.82 271.78 22.49Q272.83 23.16 273.40 24.35Q273.96 25.54 273.96 27.07L273.96 27.07Q273.96 28.13 273.71 29.22Q273.46 30.31 272.93 31.30Q272.40 32.28 271.63 33.05Q270.86 33.82 269.84 34.27Q268.82 34.73 267.58 34.73ZM267.65 33.53L267.65 33.53Q268.85 33.53 269.76 32.95Q270.67 32.38 271.31 31.44Q271.94 30.50 272.28 29.39Q272.62 28.27 272.62 27.14L272.62 27.14Q272.62 25.90 272.21 24.97Q271.80 24.05 271.04 23.53Q270.29 23.02 269.23 23.02L269.23 23.02Q268.03 23.02 267.11 23.57Q266.18 24.12 265.52 25.06Q264.86 25.99 264.54 27.11Q264.22 28.22 264.22 29.33L264.22 29.33Q264.22 30.58 264.64 31.52Q265.06 32.47 265.81 33Q266.57 33.53 267.65 33.53ZM277.54 34.63L277.54 34.63Q277.20 34.63 277.04 34.51Q276.89 34.39 276.94 34.13L276.94 34.13L279.07 22.39Q279.12 22.13 279.26 22.02Q279.41 21.91 279.72 21.91L279.72 21.91Q280.08 21.91 280.25 22.04Q280.42 22.18 280.34 22.44L280.34 22.44L279.67 26.18Q280.27 24.91 280.90 24.07Q281.52 23.23 282.16 22.74Q282.79 22.25 283.42 22.03Q284.04 21.82 284.62 21.82L284.62 21.82Q285.31 21.82 285.91 22.06Q286.51 22.30 286.78 22.63L286.78 22.63Q286.97 22.78 286.94 22.94Q286.92 23.11 286.75 23.33L286.75 23.33Q286.58 23.54 286.40 23.60Q286.22 23.66 286.06 23.54L286.06 23.54Q285.77 23.38 285.34 23.18Q284.90 22.99 284.38 22.99L284.38 22.99Q283.70 22.99 283.01 23.38Q282.31 23.76 281.62 24.58Q280.92 25.39 280.25 26.71Q279.58 28.03 278.98 29.90L278.98 29.90L278.23 34.18Q278.21 34.42 278.03 34.52Q277.85 34.63 277.54 34.63ZM306.00 34.66L306.00 34.66Q305.45 34.66 305.06 34.46Q304.68 34.27 304.49 33.89Q304.30 33.50 304.27 32.96Q304.25 32.42 304.42 31.73L304.42 31.73L305.35 26.11Q305.52 25.13 305.41 24.43Q305.30 23.74 304.90 23.36Q304.49 22.99 303.67 22.99L303.67 22.99Q302.98 22.99 302.20 23.40Q301.42 23.81 300.64 24.66Q299.86 25.51 299.14 26.89Q298.42 28.27 297.84 30.19L297.84 30.19L297.26 30.19Q297.74 27.91 298.52 26.32Q299.30 24.72 300.23 23.71Q301.15 22.70 302.12 22.26Q303.10 21.82 303.94 21.82L303.94 21.82Q304.94 21.82 305.64 22.28Q306.34 22.75 306.61 23.72Q306.89 24.70 306.58 26.18L306.58 26.18L305.64 31.82Q305.52 32.38 305.53 32.75Q305.54 33.12 305.71 33.31Q305.88 33.50 306.22 33.50L306.22 33.50Q306.55 33.50 306.89 33.31Q307.22 33.12 307.52 32.80Q307.82 32.47 308.09 32.06L308.09 32.06Q308.21 31.90 308.36 31.86Q308.52 31.82 308.74 31.97L308.74 31.97Q308.95 32.09 309.00 32.27Q309.05 32.45 308.93 32.62L308.93 32.62Q308.66 33.10 308.21 33.58Q307.75 34.06 307.20 34.36Q306.65 34.66 306.00 34.66ZM288.43 34.63L288.43 34.63Q288.12 34.63 287.95 34.51Q287.78 34.39 287.83 34.15L287.83 34.15L289.97 22.39Q290.02 22.13 290.15 22.02Q290.28 21.91 290.62 21.91L290.62 21.91Q290.98 21.91 291.14 22.04Q291.31 22.18 291.26 22.44L291.26 22.44L290.59 26.21Q291.19 24.98 291.86 24.12Q292.54 23.26 293.26 22.75Q293.98 22.25 294.66 22.03Q295.34 21.82 295.90 21.82L295.90 21.82Q296.95 21.82 297.66 22.27Q298.37 22.73 298.62 23.71Q298.87 24.70 298.61 26.18L298.61 26.18L297.17 34.18Q297.14 34.42 296.99 34.52Q296.83 34.63 296.50 34.63L296.50 34.63Q296.21 34.63 296.03 34.51Q295.85 34.39 295.90 34.15L295.90 34.15L297.36 26.11Q297.55 25.13 297.46 24.43Q297.36 23.74 296.93 23.36Q296.50 22.99 295.66 22.99L295.66 22.99Q294.96 22.99 294.20 23.38Q293.45 23.76 292.67 24.56Q291.89 25.37 291.18 26.68Q290.47 27.98 289.90 29.83L289.90 29.83L289.15 34.18Q289.10 34.42 288.94 34.52Q288.77 34.63 288.43 34.63ZM314.42 34.68L314.42 34.68Q313.37 34.68 312.55 34.12Q311.74 33.55 311.30 32.50Q310.87 31.44 310.87 29.93L310.87 29.93Q310.87 28.78 311.15 27.61Q311.42 26.45 311.98 25.42Q312.53 24.38 313.34 23.57Q314.16 22.75 315.25 22.28Q316.34 21.82 317.69 21.82L317.69 21.82Q318.48 21.82 319.28 22.06Q320.09 22.30 320.83 22.75L320.83 22.75L320.90 22.34Q320.95 22.10 321.11 22.01Q321.26 21.91 321.60 21.91L321.60 21.91Q321.96 21.91 322.09 22.06Q322.22 22.20 322.18 22.46L322.18 22.46L320.52 31.87Q320.42 32.40 320.46 32.77Q320.50 33.14 320.66 33.34Q320.83 33.53 321.14 33.53L321.14 33.53Q321.50 33.53 321.82 33.32Q322.13 33.12 322.44 32.80Q322.75 32.47 322.99 32.06L322.99 32.06Q323.11 31.90 323.27 31.86Q323.42 31.82 323.62 31.97L323.62 31.97Q323.86 32.09 323.90 32.27Q323.95 32.45 323.83 32.62L323.83 32.62Q323.59 33.12 323.15 33.59Q322.70 34.06 322.14 34.37Q321.58 34.68 320.98 34.68L320.98 34.68Q320.42 34.68 320.08 34.51Q319.73 34.34 319.51 34.02Q319.30 33.70 319.22 33.26Q319.15 32.83 319.20 32.30L319.20 32.30Q319.25 31.87 319.32 31.46Q319.39 31.06 319.44 30.60L319.44 30.60Q318.67 32.11 317.82 33Q316.97 33.89 316.12 34.28Q315.26 34.68 314.42 34.68ZM312.22 29.83L312.22 29.83Q312.22 30.89 312.50 31.72Q312.79 32.54 313.33 33.01Q313.87 33.48 314.71 33.48L314.71 33.48Q315.62 33.48 316.55 32.82Q317.47 32.16 318.37 30.80Q319.27 29.45 320.04 27.31L320.04 27.31L320.62 23.90Q319.80 23.38 319.06 23.18Q318.31 22.99 317.62 22.99L317.62 22.99Q316.58 22.99 315.73 23.38Q314.88 23.76 314.23 24.44Q313.58 25.13 313.14 26.00Q312.70 26.88 312.46 27.85Q312.22 28.82 312.22 29.83ZM321.43 34.68L321.43 34.68Q321.14 34.68 321.05 34.50Q320.95 34.32 320.98 34.10Q321.00 33.89 321.16 33.71Q321.31 33.53 321.60 33.53L321.60 33.53Q322.32 33.53 323.17 33.04Q324.02 32.54 324.96 31.68Q325.90 30.82 326.87 29.65Q327.84 28.49 328.80 27.13Q329.76 25.78 330.62 24.29Q331.49 22.80 332.23 21.25Q332.98 19.70 333.53 18.24Q334.08 16.78 334.39 15.43Q334.70 14.09 334.70 12.98L334.70 12.98Q334.70 12.72 334.91 12.58Q335.11 12.43 335.36 12.43Q335.62 12.43 335.82 12.58Q336.02 12.72 336.02 12.98L336.02 12.98Q336.02 14.14 335.69 15.53Q335.35 16.92 334.76 18.48Q334.18 20.04 333.36 21.65Q332.54 23.26 331.60 24.84Q330.65 26.42 329.59 27.89Q328.54 29.35 327.46 30.59Q326.38 31.82 325.31 32.74Q324.24 33.65 323.26 34.16Q322.27 34.68 321.43 34.68ZM328.82 34.66L328.82 34.66Q328.25 34.66 327.88 34.45Q327.50 34.25 327.31 33.88Q327.12 33.50 327.10 32.95Q327.07 32.40 327.22 31.70L327.22 31.70L330.24 14.52Q330.67 12.12 331.49 10.97Q332.30 9.82 333.65 9.82L333.65 9.82Q334.44 9.82 334.97 10.21Q335.50 10.61 335.76 11.30Q336.02 12.00 336.02 12.98L336.02 12.98Q336.02 13.27 335.82 13.43Q335.62 13.58 335.36 13.58Q335.11 13.58 334.91 13.43Q334.70 13.27 334.70 12.98L334.70 12.98Q334.70 12.36 334.60 11.93Q334.49 11.50 334.22 11.26Q333.96 11.02 333.58 11.02L333.58 11.02Q333.07 11.02 332.69 11.40Q332.30 11.78 332.02 12.60Q331.73 13.42 331.46 14.74L331.46 14.74L328.44 31.82Q328.32 32.38 328.34 32.75Q328.37 33.12 328.55 33.31Q328.73 33.50 329.04 33.50L329.04 33.50Q329.40 33.50 329.72 33.31Q330.05 33.12 330.35 32.80Q330.65 32.47 330.91 32.06L330.91 32.06Q331.01 31.90 331.18 31.87Q331.34 31.85 331.56 31.97L331.56 31.97Q331.78 32.11 331.82 32.28Q331.87 32.45 331.75 32.62L331.75 32.62Q331.49 33.10 331.04 33.58Q330.60 34.06 330.04 34.36Q329.47 34.66 328.82 34.66Z"/></svg>