<svg xmlns="http://www.w3.org/2000/svg" xmlns:xlink="http://www.w3.org/1999/xlink" width="334.72800000000007" height="46.368"><path fill="black" d="M10.66 25.20L10.66 25.20Q10.20 25.22 10.00 24.97Q9.79 24.72 9.84 24.19L9.84 24.19Q9.89 23.71 10.12 23.47Q10.34 23.23 10.75 23.23L10.75 23.23Q12.89 23.11 14.63 22.51Q16.37 21.91 17.62 20.86Q18.86 19.80 19.52 18.40Q20.18 16.99 20.18 15.31L20.18 15.31Q20.18 13.66 19.34 12.78Q18.50 11.90 17.02 11.90L17.02 11.90Q16.03 11.90 15.04 12.37Q14.04 12.84 13.13 13.73Q12.22 14.62 11.44 15.84Q10.66 17.06 10.07 18.55Q9.48 20.04 9.12 21.74L9.12 21.74L6.82 33.94Q6.77 34.27 6.50 34.44Q6.24 34.61 5.69 34.61L5.69 34.61Q5.16 34.61 4.90 34.44Q4.63 34.27 4.70 33.91L4.70 33.91L8.06 15.07Q7.56 15.74 6.95 16.33Q6.34 16.92 5.64 17.45Q4.94 17.98 4.10 18.50L4.10 18.50Q3.67 18.77 3.35 18.64Q3.02 18.50 2.78 18.07L2.78 18.07Q2.54 17.64 2.63 17.33Q2.71 17.02 3.12 16.78L3.12 16.78Q4.54 15.96 5.62 15.02Q6.70 14.09 7.49 12.98Q8.28 11.88 8.83 10.56L8.83 10.56Q9 10.18 9.25 10.04Q9.50 9.91 10.03 9.91L10.03 9.91Q10.56 9.91 10.81 10.08Q11.06 10.25 11.02 10.61L11.02 10.61L10.42 14.30Q11.35 12.89 12.47 11.90Q13.58 10.92 14.82 10.42Q16.06 9.91 17.35 9.91L17.35 9.91Q18.86 9.91 19.99 10.55Q21.12 11.18 21.74 12.36Q22.37 13.54 22.37 15.17L22.37 15.17Q22.37 17.30 21.50 19.09Q20.64 20.88 19.08 22.22Q17.52 23.57 15.37 24.34Q13.22 25.10 10.66 25.20ZM17.88 34.68L17.88 34.68Q17.42 34.68 17.26 34.40Q17.09 34.13 17.14 33.78Q17.18 33.43 17.44 33.16Q17.69 32.88 18.12 32.88L18.12 32.88Q18.82 32.88 19.64 32.46Q20.47 32.04 21.38 31.28Q22.30 30.53 23.23 29.50Q24.17 28.46 25.10 27.23Q26.04 25.99 26.88 24.62Q27.72 23.26 28.44 21.80Q29.16 20.35 29.69 18.91Q30.22 17.47 30.52 16.08Q30.82 14.69 30.82 13.44L30.82 13.44Q30.82 13.08 31.13 12.90Q31.44 12.72 31.85 12.72Q32.26 12.72 32.57 12.90Q32.88 13.08 32.88 13.44L32.88 13.44Q32.88 14.69 32.54 16.13Q32.21 17.57 31.60 19.13Q30.98 20.69 30.16 22.26Q29.33 23.83 28.34 25.36Q27.36 26.88 26.28 28.27Q25.20 29.66 24.10 30.83Q22.99 31.99 21.89 32.86Q20.78 33.72 19.76 34.20Q18.74 34.68 17.88 34.68ZM25.37 34.66L25.37 34.66Q24.55 34.66 24.10 34.37Q23.64 34.08 23.45 33.60Q23.26 33.12 23.27 32.50Q23.28 31.87 23.40 31.20L23.40 31.20L26.30 14.57Q26.74 12.10 27.66 10.96Q28.58 9.82 30.12 9.82L30.12 9.82Q30.98 9.82 31.61 10.25Q32.23 10.68 32.56 11.48Q32.88 12.29 32.88 13.44L32.88 13.44Q32.88 13.90 32.57 14.11Q32.26 14.33 31.85 14.33Q31.44 14.33 31.13 14.11Q30.82 13.90 30.82 13.44L30.82 13.44Q30.82 12.89 30.72 12.52Q30.62 12.14 30.42 11.95Q30.22 11.76 29.90 11.76L29.90 11.76Q29.54 11.76 29.27 12.05Q28.99 12.34 28.76 13.01Q28.54 13.68 28.32 14.86L28.32 14.86L25.30 31.70Q25.22 32.06 25.24 32.32Q25.25 32.57 25.37 32.70Q25.49 32.83 25.73 32.83L25.73 32.83Q25.99 32.83 26.22 32.70Q26.45 32.57 26.66 32.33Q26.88 32.09 27.10 31.78L27.10 31.78Q27.24 31.58 27.47 31.56Q27.70 31.54 28.01 31.73L28.01 31.73Q28.34 31.94 28.39 32.18Q28.44 32.42 28.32 32.66L28.32 32.66Q28.08 33.12 27.65 33.59Q27.22 34.06 26.64 34.36Q26.06 34.66 25.37 34.66ZM35.14 34.68L35.14 34.68Q34.03 34.68 33.22 34.13Q32.40 33.58 31.96 32.52Q31.51 31.46 31.51 29.95L31.51 29.95Q31.51 28.80 31.79 27.64Q32.06 26.47 32.62 25.43Q33.17 24.38 33.97 23.57Q34.78 22.75 35.86 22.28Q36.94 21.82 38.26 21.82L38.26 21.82Q39.02 21.82 39.79 22.03Q40.56 22.25 41.26 22.63L41.26 22.63L41.28 22.54Q41.35 22.18 41.59 22.04Q41.83 21.91 42.31 21.91L42.31 21.91Q42.96 21.91 43.19 22.10Q43.42 22.30 43.32 22.70L43.32 22.70L41.71 31.70Q41.66 32.06 41.68 32.32Q41.69 32.57 41.81 32.70Q41.93 32.83 42.17 32.83L42.17 32.83Q42.43 32.83 42.65 32.70Q42.86 32.57 43.09 32.33Q43.32 32.09 43.54 31.78L43.54 31.78Q43.68 31.58 43.91 31.55Q44.14 31.51 44.42 31.70L44.42 31.70Q44.76 31.92 44.83 32.17Q44.90 32.42 44.76 32.66L44.76 32.66Q44.54 33.12 44.11 33.58Q43.68 34.03 43.10 34.34Q42.53 34.66 41.83 34.66L41.83 34.66Q41.14 34.66 40.70 34.44Q40.27 34.22 40.04 33.84Q39.82 33.46 39.74 32.98Q39.67 32.50 39.70 31.99L39.70 31.99Q39.72 31.85 39.72 31.70Q39.72 31.56 39.72 31.39L39.72 31.39Q39 32.57 38.22 33.29Q37.44 34.01 36.66 34.34Q35.88 34.68 35.14 34.68ZM33.65 29.76L33.65 29.76Q33.65 30.67 33.88 31.36Q34.10 32.04 34.55 32.40Q34.99 32.76 35.66 32.76L35.66 32.76Q36.48 32.76 37.31 32.14Q38.14 31.51 38.94 30.32Q39.74 29.14 40.44 27.46L40.44 27.46L40.94 24.36Q40.25 23.98 39.60 23.84Q38.95 23.71 38.33 23.71L38.33 23.71Q37.39 23.71 36.65 24.06Q35.90 24.41 35.34 25.02Q34.78 25.63 34.40 26.41Q34.03 27.19 33.84 28.04Q33.65 28.90 33.65 29.76ZM55.63 36.48L55.73 34.39Q56.16 34.10 56.60 33.83Q57.05 33.55 57.46 33.30Q57.86 33.05 58.22 32.84Q58.58 32.64 58.87 32.52L58.87 32.52Q59.26 32.33 59.50 32.47Q59.74 32.62 59.83 32.93Q59.93 33.24 59.84 33.56Q59.76 33.89 59.45 34.06L59.45 34.06Q59.04 34.30 58.57 34.58Q58.10 34.87 57.60 35.18Q57.10 35.50 56.60 35.83Q56.11 36.17 55.63 36.48L55.63 36.48ZM50.16 46.73L50.16 46.73Q49.20 46.73 48.48 46.34Q47.76 45.96 47.36 45.29Q46.97 44.62 46.97 43.75L46.97 43.75Q46.97 42.82 47.29 41.94Q47.62 41.06 48.26 40.20Q48.91 39.34 49.87 38.46Q50.83 37.58 52.08 36.67L52.08 36.67Q52.66 36.29 53.24 35.89Q53.83 35.50 54.43 35.09L54.43 35.09L55.13 31.15Q54.62 32.04 54.04 32.70Q53.45 33.36 52.81 33.79Q52.18 34.22 51.52 34.44Q50.86 34.66 50.18 34.66L50.18 34.66Q49.01 34.66 48.24 34.16Q47.47 33.67 47.20 32.68Q46.92 31.68 47.18 30.19L47.18 30.19L48.50 22.61Q48.60 22.20 48.84 22.06Q49.08 21.91 49.56 21.91L49.56 21.91Q50.21 21.91 50.44 22.10Q50.66 22.30 50.57 22.70L50.57 22.70L49.22 30.29Q49.08 31.10 49.16 31.67Q49.25 32.23 49.63 32.51Q50.02 32.78 50.76 32.78L50.76 32.78Q51.48 32.78 52.21 32.34Q52.94 31.90 53.63 31.08Q54.31 30.26 54.92 29.14Q55.54 28.01 56.02 26.66L56.02 26.66L56.64 22.61Q56.74 22.20 56.98 22.06Q57.22 21.91 57.72 21.91L57.72 21.91Q58.34 21.91 58.58 22.10Q58.82 22.30 58.73 22.70L58.73 22.70L55.56 40.39Q55.25 42 54.77 43.20Q54.29 44.40 53.62 45.18Q52.94 45.96 52.09 46.34Q51.24 46.73 50.16 46.73ZM50.42 44.88L50.42 44.88Q50.98 44.88 51.46 44.59Q51.94 44.30 52.32 43.74Q52.70 43.18 53.00 42.31Q53.30 41.45 53.52 40.32L53.52 40.32L53.98 37.51Q53.64 37.73 53.28 37.97Q52.92 38.21 52.58 38.45L52.58 38.45Q51.70 39.12 51.05 39.77Q50.40 40.42 49.97 41.04Q49.54 41.66 49.32 42.26Q49.10 42.86 49.10 43.46L49.10 43.46Q49.10 43.90 49.26 44.22Q49.42 44.54 49.70 44.71Q49.99 44.88 50.42 44.88ZM65.50 34.73L65.50 34.73Q64.54 34.73 63.89 34.36Q63.24 33.98 62.90 33.35Q62.57 32.71 62.51 31.86Q62.45 31.01 62.59 30.05L62.59 30.05L63.86 22.61Q63.94 22.25 64.16 22.08Q64.39 21.91 64.94 21.91L64.94 21.91Q65.59 21.91 65.81 22.10Q66.02 22.30 65.93 22.70L65.93 22.70L64.66 30Q64.54 30.77 64.56 31.40Q64.58 32.04 64.90 32.44Q65.21 32.83 65.95 32.83L65.95 32.83Q66.55 32.83 67.12 32.48Q67.68 32.14 68.18 31.52Q68.69 30.91 69.10 30.14Q69.50 29.38 69.79 28.51L69.79 28.51L70.87 22.61Q70.94 22.25 71.17 22.08Q71.40 21.91 71.90 21.91L71.90 21.91Q72.60 21.91 72.80 22.10Q73.01 22.30 72.91 22.68L72.91 22.68L71.86 29.16Q71.76 29.90 71.70 30.56Q71.64 31.22 71.72 31.74Q71.81 32.26 72.14 32.53Q72.48 32.81 73.15 32.81L73.15 32.81Q73.87 32.81 74.52 32.42Q75.17 32.04 75.71 31.38Q76.25 30.72 76.64 29.87Q77.04 29.02 77.26 28.09Q77.47 27.17 77.47 26.26L77.47 26.26Q77.47 25.70 77.41 25.19Q77.35 24.67 77.22 24.17Q77.09 23.66 76.87 23.18L76.87 23.18Q76.70 22.75 76.79 22.45Q76.87 22.15 77.16 21.98Q77.45 21.82 77.83 21.82L77.83 21.82Q78.24 21.82 78.48 22.07Q78.72 22.32 78.89 22.82L78.89 22.82Q79.10 23.26 79.26 23.77Q79.42 24.29 79.50 24.86Q79.58 25.44 79.58 26.06L79.58 26.06Q79.58 27.17 79.28 28.37Q78.98 29.57 78.42 30.70Q77.86 31.82 77.03 32.74Q76.20 33.65 75.14 34.19Q74.09 34.73 72.82 34.73L72.82 34.73Q71.83 34.73 71.16 34.39Q70.49 34.06 70.10 33.42Q69.72 32.78 69.58 31.94L69.58 31.94Q69.10 32.81 68.47 33.43Q67.85 34.06 67.10 34.39Q66.36 34.73 65.50 34.73ZM83.35 34.63L83.35 34.63Q82.90 34.63 82.60 34.46Q82.30 34.30 82.39 33.91L82.39 33.91L84.41 22.61Q84.50 22.20 84.73 22.06Q84.96 21.91 85.44 21.91L85.44 21.91Q86.09 21.91 86.33 22.10Q86.57 22.30 86.47 22.70L86.47 22.70L86.02 25.37Q86.54 24.48 87.12 23.82Q87.70 23.16 88.28 22.72Q88.87 22.27 89.46 22.04Q90.05 21.82 90.58 21.82L90.58 21.82Q91.20 21.82 91.72 22.04Q92.23 22.27 92.50 22.58L92.50 22.58Q92.74 22.80 92.74 23.06Q92.74 23.33 92.50 23.69L92.50 23.69Q92.26 24.05 92.00 24.16Q91.75 24.26 91.49 24.10L91.49 24.10Q91.15 23.93 90.86 23.82Q90.58 23.71 90.24 23.71L90.24 23.71Q89.64 23.71 88.96 24.16Q88.27 24.60 87.58 25.40Q86.88 26.21 86.24 27.32Q85.61 28.44 85.13 29.78L85.13 29.78L84.46 34.01Q84.41 34.32 84.14 34.48Q83.88 34.63 83.35 34.63ZM95.86 34.66L95.86 34.66Q94.51 34.66 94.01 33.78Q93.50 32.90 93.86 31.25L93.86 31.25L95.28 22.61Q95.38 22.20 95.62 22.06Q95.86 21.91 96.34 21.91L96.34 21.91Q96.98 21.91 97.21 22.10Q97.44 22.30 97.34 22.70L97.34 22.70L95.78 31.68Q95.66 32.28 95.78 32.56Q95.90 32.83 96.26 32.83L96.26 32.83Q96.53 32.83 96.74 32.70Q96.96 32.57 97.16 32.33Q97.37 32.09 97.61 31.78L97.61 31.78Q97.75 31.58 97.98 31.56Q98.21 31.54 98.50 31.73L98.50 31.73Q98.83 31.92 98.89 32.16Q98.95 32.40 98.81 32.64L98.81 32.64Q98.50 33.24 98.04 33.70Q97.58 34.15 97.04 34.40Q96.50 34.66 95.86 34.66ZM97.15 18.22L97.15 18.22Q96.58 18.22 96.24 17.88Q95.90 17.54 95.90 16.87L95.90 16.87Q95.90 16.18 96.29 15.68Q96.67 15.19 97.46 15.19L97.46 15.19Q98.04 15.19 98.38 15.53Q98.71 15.86 98.71 16.56L98.71 16.56Q98.71 17.26 98.33 17.74Q97.94 18.22 97.15 18.22ZM103.92 34.66L103.92 34.66Q102.84 34.66 102.26 34.19Q101.69 33.72 101.53 32.87Q101.38 32.02 101.62 30.89L101.62 30.89L102.72 24.19L100.85 24.19Q100.56 24.19 100.44 23.96Q100.32 23.74 100.37 23.23L100.37 23.23Q100.46 22.73 100.66 22.50Q100.85 22.27 101.16 22.27L101.16 22.27L103.08 22.27L103.94 17.45Q104.02 17.04 104.26 16.90Q104.50 16.75 104.98 16.75L104.98 16.75Q105.62 16.75 105.86 16.94Q106.10 17.14 106.01 17.54L106.01 17.54L105.17 22.27L108.19 22.27Q108.50 22.27 108.64 22.49Q108.77 22.70 108.67 23.23L108.67 23.23Q108.60 23.71 108.41 23.95Q108.22 24.19 107.90 24.19L107.90 24.19L104.83 24.19L103.56 31.25Q103.39 32.09 103.57 32.46Q103.75 32.83 104.23 32.83L104.23 32.83Q104.83 32.83 105.35 32.45Q105.86 32.06 106.32 31.42L106.32 31.42Q106.51 31.18 106.75 31.15Q106.99 31.13 107.30 31.34L107.30 31.34Q107.66 31.54 107.72 31.79Q107.78 32.04 107.66 32.28L107.66 32.28Q107.33 32.90 106.79 33.44Q106.25 33.98 105.54 34.32Q104.83 34.66 103.92 34.66ZM114.91 34.70L114.91 34.70Q113.95 34.70 113.14 34.34Q112.32 33.98 111.68 33.36Q111.05 32.74 110.60 31.90Q110.16 31.06 109.93 30.11Q109.70 29.16 109.70 28.15L109.70 28.15Q109.70 27.26 109.90 26.36Q110.09 25.46 110.50 24.65Q110.90 23.83 111.50 23.20Q112.10 22.56 112.91 22.19Q113.71 21.82 114.72 21.82L114.72 21.82Q115.70 21.82 116.39 22.21Q117.07 22.61 117.43 23.29Q117.79 23.98 117.79 24.84L117.79 24.84Q117.79 25.92 117.28 27.02Q116.76 28.13 115.91 29.15Q115.06 30.17 114 31.03L114 31.03Q112.78 32.09 111.36 32.92Q109.94 33.74 108.50 34.21Q107.06 34.68 105.79 34.68L105.79 34.68Q105.46 34.68 105.29 34.40Q105.12 34.13 105.17 33.78Q105.22 33.43 105.48 33.16Q105.74 32.88 106.27 32.88L106.27 32.88Q107.26 32.88 108.40 32.47Q109.54 32.06 110.68 31.37Q111.82 30.67 112.78 29.81L112.78 29.81Q113.57 29.14 114.22 28.36Q114.86 27.58 115.26 26.77Q115.66 25.97 115.66 25.22L115.66 25.22Q115.66 24.43 115.33 24.08Q115.01 23.74 114.38 23.74L114.38 23.74Q113.81 23.74 113.34 24.11Q112.87 24.48 112.52 25.12Q112.18 25.75 112.00 26.52Q111.82 27.29 111.82 28.08L111.82 28.08Q111.82 29.02 112.07 29.87Q112.32 30.72 112.80 31.38Q113.28 32.04 113.90 32.41Q114.53 32.78 115.27 32.78L115.27 32.78Q115.92 32.78 116.48 32.53Q117.05 32.28 117.59 31.84Q118.13 31.39 118.63 30.86L118.63 30.86Q118.94 30.53 119.27 30.58Q119.59 30.62 119.88 30.89L119.88 30.89Q120.19 31.18 120.25 31.46Q120.31 31.75 120.05 32.09L120.05 32.09Q119.30 33.02 118.45 33.60Q117.60 34.18 116.70 34.44Q115.80 34.70 114.91 34.70ZM133.06 46.73L133.06 46.73Q131.98 46.73 131.15 46.27Q130.32 45.82 129.86 44.99Q129.41 44.16 129.41 43.06L129.41 43.06Q129.41 41.54 130.24 40.04Q131.06 38.54 132.82 36.96Q134.57 35.38 137.34 33.59Q140.11 31.80 144 29.71L144 29.71Q144.38 29.50 144.67 29.59Q144.96 29.69 145.20 30.10L145.20 30.10Q145.44 30.53 145.37 30.86Q145.30 31.20 144.91 31.42L144.91 31.42Q142.06 32.95 139.87 34.27Q137.69 35.59 136.13 36.77Q134.57 37.94 133.57 38.99Q132.58 40.03 132.11 41.00Q131.64 41.98 131.64 42.91L131.64 42.91Q131.64 43.73 132.06 44.21Q132.48 44.69 133.22 44.69L133.22 44.69Q133.92 44.69 134.53 44.30Q135.14 43.92 135.67 43.21Q136.20 42.50 136.62 41.59Q137.04 40.68 137.34 39.62Q137.64 38.57 137.81 37.43Q137.98 36.29 137.98 35.18L137.98 35.18Q137.98 34.06 137.87 33.12Q137.76 32.18 137.51 31.48Q137.26 30.77 136.80 30.29Q136.34 29.81 135.64 29.54Q134.93 29.28 133.94 29.23L133.94 29.23Q133.61 29.21 133.42 28.94Q133.22 28.68 133.18 28.30Q133.13 27.91 133.30 27.58Q133.46 27.24 133.82 27.10L133.82 27.10Q136.42 26.06 138.41 24.89Q140.40 23.71 141.77 22.37Q143.14 21.02 143.83 19.51Q144.53 18.00 144.53 16.34L144.53 16.34Q144.53 14.95 143.93 13.97Q143.33 12.98 142.21 12.47Q141.10 11.95 139.54 11.95L139.54 11.95Q138.10 11.95 136.74 12.34Q135.38 12.72 134.12 13.43Q132.86 14.14 131.66 15.10L131.66 15.10Q131.33 15.36 131.02 15.29Q130.70 15.22 130.39 14.83L130.39 14.83Q130.08 14.42 130.10 14.08Q130.13 13.73 130.49 13.44L130.49 13.44Q132.05 12.22 133.55 11.44Q135.05 10.66 136.58 10.28Q138.12 9.91 139.75 9.91L139.75 9.91Q141.91 9.91 143.48 10.66Q145.06 11.40 145.91 12.83Q146.76 14.26 146.76 16.27L146.76 16.27Q146.76 18.17 146.05 19.86Q145.34 21.55 143.98 23.03Q142.61 24.50 140.63 25.73Q138.65 26.95 136.08 27.94L136.08 27.94L136.10 27.98Q137.18 28.10 137.95 28.66Q138.72 29.21 139.20 30.13Q139.68 31.06 139.92 32.32Q140.16 33.58 140.16 35.14L140.16 35.14Q140.16 36.31 139.98 37.51Q139.80 38.71 139.48 39.86Q139.15 41.02 138.68 42.04Q138.22 43.06 137.63 43.92Q137.04 44.78 136.32 45.41Q135.60 46.03 134.78 46.38Q133.97 46.73 133.06 46.73ZM156.60 34.68L156.60 34.68Q155.04 34.68 153.74 34.08Q152.45 33.48 151.50 32.33Q150.55 31.18 150.04 29.48Q149.52 27.79 149.52 25.58L149.52 25.58Q149.52 23.45 149.98 21.47Q150.43 19.49 151.27 17.74Q152.11 15.98 153.30 14.54Q154.49 13.10 155.93 12.07Q157.37 11.04 159.04 10.48Q160.70 9.91 162.53 9.91L162.53 9.91Q163.75 9.91 164.87 10.21Q165.98 10.51 166.93 11.09Q167.88 11.66 168.58 12.50L168.58 12.50L168.94 10.56Q169.01 10.22 169.28 10.07Q169.56 9.91 170.09 9.91L170.09 9.91Q170.62 9.91 170.87 10.08Q171.12 10.25 171.05 10.61L171.05 10.61L167.57 29.95Q167.42 30.65 167.40 31.16Q167.38 31.68 167.47 32.00Q167.57 32.33 167.77 32.50Q167.98 32.66 168.31 32.66L168.31 32.66Q168.67 32.66 169.03 32.44Q169.39 32.21 169.78 31.75Q170.16 31.30 170.57 30.62L170.57 30.62Q170.83 30.22 171.12 30.13Q171.41 30.05 171.82 30.26L171.82 30.26Q172.20 30.46 172.28 30.77Q172.37 31.08 172.15 31.46L172.15 31.46Q171.79 32.16 171.32 32.76Q170.86 33.36 170.32 33.79Q169.78 34.22 169.20 34.45Q168.62 34.68 168.05 34.68L168.05 34.68Q166.92 34.68 166.26 34.16Q165.60 33.65 165.40 32.62Q165.19 31.58 165.46 30.10L165.46 30.10L165.82 27.31Q164.90 29.04 163.84 30.41Q162.77 31.78 161.60 32.74Q160.44 33.70 159.18 34.19Q157.92 34.68 156.60 34.68ZM151.73 25.56L151.73 25.56Q151.73 27.36 152.11 28.68Q152.50 30 153.19 30.89Q153.89 31.78 154.81 32.21Q155.74 32.64 156.84 32.64L156.84 32.64Q158.02 32.64 159.17 32.11Q160.32 31.58 161.42 30.56Q162.53 29.54 163.54 28.07Q164.54 26.59 165.46 24.67Q166.37 22.75 167.16 20.45L167.16 20.45L168.14 14.98Q167.21 13.46 165.78 12.71Q164.35 11.95 162.34 11.95L162.34 11.95Q160.90 11.95 159.54 12.44Q158.18 12.94 157.00 13.86Q155.81 14.78 154.85 16.04Q153.89 17.30 153.19 18.82Q152.50 20.33 152.11 22.04Q151.73 23.76 151.73 25.56ZM193.01 34.61L193.01 34.61Q192.48 34.61 192.20 34.44Q191.93 34.27 192 33.91L192 33.91L193.10 27.89L182.33 27.89Q181.82 27.89 181.64 27.44Q181.46 27 181.78 26.54L181.78 26.54L192.65 10.56Q192.89 10.18 193.20 10.03Q193.51 9.89 194.06 9.91L194.06 9.91Q194.42 9.94 194.69 10.06Q194.95 10.18 195 10.40Q195.05 10.63 194.78 11.02L194.78 11.02L184.49 25.97L193.44 25.97L194.88 18.02Q195 17.38 196.03 17.38L196.03 17.38Q196.56 17.38 196.82 17.53Q197.09 17.69 197.02 18.05L197.02 18.05L195.60 25.97L198.07 25.97Q198.36 25.97 198.49 26.12Q198.62 26.28 198.62 26.64L198.62 26.64Q198.62 27.22 198.41 27.55Q198.19 27.89 197.81 27.89L197.81 27.89L195.26 27.89L194.16 33.94Q194.04 34.61 193.01 34.61ZM208.30 34.73L208.30 34.73Q206.16 34.73 204.49 33.70Q202.82 32.66 201.86 30.53Q200.90 28.39 200.90 25.15L200.90 25.15Q200.90 23.16 201.26 21.28Q201.62 19.39 202.30 17.69Q202.97 15.98 203.94 14.57Q204.91 13.15 206.15 12.11Q207.38 11.06 208.87 10.49Q210.36 9.91 212.04 9.91L212.04 9.91Q214.15 9.91 215.80 10.96Q217.44 12.00 218.39 14.10Q219.34 16.20 219.34 19.39L219.34 19.39Q219.34 21.38 218.99 23.29Q218.64 25.20 217.97 26.92Q217.30 28.63 216.34 30.06Q215.38 31.49 214.14 32.53Q212.90 33.58 211.44 34.15Q209.98 34.73 208.30 34.73ZM208.54 32.66L208.54 32.66Q209.78 32.66 210.90 32.17Q212.02 31.68 212.96 30.79Q213.91 29.90 214.67 28.68Q215.42 27.46 215.96 26.00Q216.50 24.55 216.79 22.96Q217.08 21.36 217.08 19.70L217.08 19.70Q217.08 17.02 216.42 15.31Q215.76 13.61 214.56 12.78Q213.36 11.95 211.73 11.95L211.73 11.95Q210.48 11.95 209.36 12.44Q208.25 12.94 207.30 13.84Q206.35 14.74 205.58 15.94Q204.82 17.14 204.28 18.58Q203.74 20.02 203.46 21.61Q203.18 23.21 203.18 24.84L203.18 24.84Q203.18 27.58 203.86 29.32Q204.53 31.06 205.74 31.86Q206.95 32.66 208.54 32.66ZM228.60 34.73L228.60 34.73Q226.46 34.73 224.80 33.70Q223.13 32.66 222.17 30.53Q221.21 28.39 221.21 25.15L221.21 25.15Q221.21 23.16 221.57 21.28Q221.93 19.39 222.60 17.69Q223.27 15.98 224.24 14.57Q225.22 13.15 226.45 12.11Q227.69 11.06 229.18 10.49Q230.66 9.91 232.34 9.91L232.34 9.91Q234.46 9.91 236.10 10.96Q237.74 12.00 238.69 14.10Q239.64 16.20 239.64 19.39L239.64 19.39Q239.64 21.38 239.29 23.29Q238.94 25.20 238.27 26.92Q237.60 28.63 236.64 30.06Q235.68 31.49 234.44 32.53Q233.21 33.58 231.74 34.15Q230.28 34.73 228.60 34.73ZM228.84 32.66L228.84 32.66Q230.09 32.66 231.20 32.17Q232.32 31.68 233.27 30.79Q234.22 29.90 234.97 28.68Q235.73 27.46 236.27 26.00Q236.81 24.55 237.10 22.96Q237.38 21.36 237.38 19.70L237.38 19.70Q237.38 17.02 236.72 15.31Q236.06 13.61 234.86 12.78Q233.66 11.95 232.03 11.95L232.03 11.95Q230.78 11.95 229.67 12.44Q228.55 12.94 227.60 13.84Q226.66 14.74 225.89 15.94Q225.12 17.14 224.58 18.58Q224.04 20.02 223.76 21.61Q223.49 23.21 223.49 24.84L223.49 24.84Q223.49 27.58 224.16 29.32Q224.83 31.06 226.04 31.86Q227.26 32.66 228.84 32.66ZM258.77 34.66L258.77 34.66Q257.95 34.66 257.50 34.37Q257.04 34.08 256.84 33.60Q256.63 33.12 256.63 32.50Q256.63 31.87 256.78 31.22L256.78 31.22L257.62 26.04Q257.74 25.32 257.64 24.80Q257.54 24.29 257.17 24Q256.80 23.71 256.08 23.71L256.08 23.71Q255.36 23.71 254.62 24.14Q253.87 24.58 253.16 25.37Q252.46 26.16 251.82 27.29Q251.18 28.42 250.68 29.83L250.68 29.83L250.01 34.01Q249.96 34.32 249.70 34.48Q249.43 34.63 248.90 34.63L248.90 34.63Q248.45 34.63 248.15 34.46Q247.85 34.30 247.94 33.91L247.94 33.91L249.96 22.61Q250.06 22.20 250.28 22.06Q250.51 21.91 250.99 21.91L250.99 21.91Q251.64 21.91 251.88 22.10Q252.12 22.30 252.02 22.70L252.02 22.70L251.57 25.34Q252.10 24.46 252.70 23.80Q253.30 23.14 253.94 22.69Q254.59 22.25 255.26 22.03Q255.94 21.82 256.63 21.82L256.63 21.82Q257.81 21.82 258.56 22.32Q259.32 22.82 259.58 23.82Q259.85 24.82 259.56 26.33L259.56 26.33L258.67 31.70Q258.60 32.06 258.61 32.32Q258.62 32.57 258.76 32.70Q258.89 32.83 259.13 32.83L259.13 32.83Q259.39 32.83 259.62 32.70Q259.85 32.57 260.06 32.33Q260.28 32.09 260.50 31.78L260.50 31.78Q260.64 31.58 260.87 31.56Q261.10 31.54 261.38 31.73L261.38 31.73Q261.72 31.94 261.78 32.18Q261.84 32.42 261.70 32.66L261.70 32.66Q261.46 33.12 261.04 33.59Q260.62 34.06 260.04 34.36Q259.46 34.66 258.77 34.66ZM268.56 34.73L268.56 34.73Q267.02 34.73 265.88 34.04Q264.74 33.36 264.14 32.12Q263.54 30.89 263.54 29.26L263.54 29.26Q263.54 27.91 263.98 26.60Q264.41 25.30 265.25 24.20Q266.09 23.11 267.29 22.46Q268.49 21.82 270.02 21.82L270.02 21.82Q271.56 21.82 272.69 22.50Q273.82 23.18 274.42 24.40Q275.02 25.61 275.02 27.17L275.02 27.17Q275.02 28.20 274.75 29.28Q274.49 30.36 273.95 31.33Q273.41 32.30 272.63 33.07Q271.85 33.84 270.83 34.28Q269.81 34.73 268.56 34.73ZM268.70 32.81L268.70 32.81Q269.69 32.81 270.46 32.32Q271.22 31.82 271.76 31.01Q272.30 30.19 272.59 29.23Q272.88 28.27 272.88 27.29L272.88 27.29Q272.88 26.18 272.51 25.39Q272.14 24.60 271.48 24.17Q270.82 23.74 269.93 23.74L269.93 23.74Q268.92 23.74 268.13 24.22Q267.34 24.70 266.78 25.50Q266.23 26.30 265.96 27.26Q265.68 28.22 265.68 29.16L265.68 29.16Q265.68 30.29 266.05 31.10Q266.42 31.92 267.10 32.36Q267.77 32.81 268.70 32.81ZM278.52 34.63L278.52 34.63Q278.06 34.63 277.76 34.46Q277.46 34.30 277.56 33.91L277.56 33.91L279.58 22.61Q279.67 22.20 279.90 22.06Q280.13 21.91 280.61 21.91L280.61 21.91Q281.26 21.91 281.50 22.10Q281.74 22.30 281.64 22.70L281.64 22.70L281.18 25.37Q281.71 24.48 282.29 23.82Q282.86 23.16 283.45 22.72Q284.04 22.27 284.63 22.04Q285.22 21.82 285.74 21.82L285.74 21.82Q286.37 21.82 286.88 22.04Q287.40 22.27 287.66 22.58L287.66 22.58Q287.90 22.80 287.90 23.06Q287.90 23.33 287.66 23.69L287.66 23.69Q287.42 24.05 287.17 24.16Q286.92 24.26 286.66 24.10L286.66 24.10Q286.32 23.93 286.03 23.82Q285.74 23.71 285.41 23.71L285.41 23.71Q284.81 23.71 284.12 24.16Q283.44 24.60 282.74 25.40Q282.05 26.21 281.41 27.32Q280.78 28.44 280.30 29.78L280.30 29.78L279.62 34.01Q279.58 34.32 279.31 34.48Q279.05 34.63 278.52 34.63ZM306.89 34.66L306.89 34.66Q306.10 34.66 305.63 34.38Q305.16 34.10 304.97 33.61Q304.78 33.12 304.78 32.51Q304.78 31.90 304.92 31.22L304.92 31.22L305.74 26.04Q305.86 25.34 305.78 24.83Q305.71 24.31 305.38 24.01Q305.04 23.71 304.30 23.71L304.30 23.71Q303.55 23.71 302.78 24.22Q302.02 24.72 301.30 25.63Q300.58 26.54 299.95 27.83Q299.33 29.11 298.87 30.65L298.87 30.65L298.06 30.65Q298.44 28.46 299.15 26.81Q299.86 25.15 300.78 24.04Q301.70 22.92 302.76 22.37Q303.82 21.82 304.87 21.82L304.87 21.82Q306.07 21.82 306.78 22.37Q307.49 22.92 307.73 23.93Q307.97 24.94 307.70 26.33L307.70 26.33L306.82 31.70Q306.74 32.06 306.76 32.32Q306.77 32.57 306.89 32.70Q307.01 32.83 307.27 32.83L307.27 32.83Q307.54 32.83 307.76 32.70Q307.99 32.57 308.20 32.33Q308.40 32.09 308.64 31.78L308.64 31.78Q308.78 31.58 309.01 31.55Q309.24 31.51 309.53 31.73L309.53 31.73Q309.86 31.92 309.92 32.17Q309.98 32.42 309.86 32.66L309.86 32.66Q309.60 33.12 309.17 33.59Q308.74 34.06 308.16 34.36Q307.58 34.66 306.89 34.66ZM289.42 34.63L289.42 34.63Q288.96 34.63 288.66 34.46Q288.36 34.30 288.46 33.91L288.46 33.91L290.47 22.61Q290.57 22.20 290.80 22.06Q291.02 21.91 291.50 21.91L291.50 21.91Q292.15 21.91 292.39 22.10Q292.63 22.30 292.54 22.70L292.54 22.70L292.10 25.27Q292.63 24.38 293.22 23.72Q293.81 23.06 294.43 22.64Q295.06 22.22 295.69 22.02Q296.33 21.82 296.93 21.82L296.93 21.82Q298.13 21.82 298.84 22.36Q299.54 22.90 299.77 23.92Q300 24.94 299.76 26.33L299.76 26.33L298.44 34.01Q298.39 34.32 298.14 34.48Q297.89 34.63 297.34 34.63L297.34 34.63Q296.90 34.63 296.60 34.46Q296.30 34.30 296.40 33.91L296.40 33.91L297.79 26.04Q297.91 25.34 297.85 24.83Q297.79 24.31 297.44 24.01Q297.10 23.71 296.35 23.71L296.35 23.71Q295.68 23.71 294.98 24.16Q294.29 24.60 293.59 25.40Q292.90 26.21 292.30 27.34Q291.70 28.46 291.19 29.81L291.19 29.81L290.52 34.01Q290.47 34.32 290.21 34.48Q289.94 34.63 289.42 34.63ZM315.17 34.68L315.17 34.68Q314.06 34.68 313.25 34.13Q312.43 33.58 311.99 32.52Q311.54 31.46 311.54 29.95L311.54 29.95Q311.54 28.80 311.82 27.64Q312.10 26.47 312.65 25.43Q313.20 24.38 314.00 23.57Q314.81 22.75 315.89 22.28Q316.97 21.82 318.29 21.82L318.29 21.82Q319.06 21.82 319.82 22.03Q320.59 22.25 321.29 22.63L321.29 22.63L321.31 22.54Q321.38 22.18 321.62 22.04Q321.86 21.91 322.34 21.91L322.34 21.91Q322.99 21.91 323.22 22.10Q323.45 22.30 323.35 22.70L323.35 22.70L321.74 31.70Q321.70 32.06 321.71 32.32Q321.72 32.57 321.84 32.70Q321.96 32.83 322.20 32.83L322.20 32.83Q322.46 32.83 322.68 32.70Q322.90 32.57 323.12 32.33Q323.35 32.09 323.57 31.78L323.57 31.78Q323.71 31.58 323.94 31.55Q324.17 31.51 324.46 31.70L324.46 31.70Q324.79 31.92 324.86 32.17Q324.94 32.42 324.79 32.66L324.79 32.66Q324.58 33.12 324.14 33.58Q323.71 34.03 323.14 34.34Q322.56 34.66 321.86 34.66L321.86 34.66Q321.17 34.66 320.74 34.44Q320.30 34.22 320.08 33.84Q319.85 33.46 319.78 32.98Q319.70 32.50 319.73 31.99L319.73 31.99Q319.75 31.85 319.75 31.70Q319.75 31.56 319.75 31.39L319.75 31.39Q319.03 32.57 318.25 33.29Q317.47 34.01 316.69 34.34Q315.91 34.68 315.17 34.68ZM313.68 29.76L313.68 29.76Q313.68 30.67 313.91 31.36Q314.14 32.04 314.58 32.40Q315.02 32.76 315.70 32.76L315.70 32.76Q316.51 32.76 317.34 32.14Q318.17 31.51 318.97 30.32Q319.78 29.14 320.47 27.46L320.47 27.46L320.98 24.36Q320.28 23.98 319.63 23.84Q318.98 23.71 318.36 23.71L318.36 23.71Q317.42 23.71 316.68 24.06Q315.94 24.41 315.37 25.02Q314.81 25.63 314.44 26.41Q314.06 27.19 313.87 28.04Q313.68 28.90 313.68 29.76ZM322.30 34.68L322.30 34.68Q321.84 34.68 321.67 34.40Q321.50 34.13 321.55 33.78Q321.60 33.43 321.85 33.16Q322.10 32.88 322.54 32.88L322.54 32.88Q323.23 32.88 324.06 32.46Q324.89 32.04 325.80 31.28Q326.71 30.53 327.65 29.50Q328.58 28.46 329.52 27.23Q330.46 25.99 331.30 24.62Q332.14 23.26 332.86 21.80Q333.58 20.35 334.10 18.91Q334.63 17.47 334.93 16.08Q335.23 14.69 335.23 13.44L335.23 13.44Q335.23 13.08 335.54 12.90Q335.86 12.72 336.26 12.72Q336.67 12.72 336.98 12.90Q337.30 13.08 337.30 13.44L337.30 13.44Q337.30 14.69 336.96 16.13Q336.62 17.57 336.01 19.13Q335.40 20.69 334.57 22.26Q333.74 23.83 332.76 25.36Q331.78 26.88 330.70 28.27Q329.62 29.66 328.51 30.83Q327.41 31.99 326.30 32.86Q325.20 33.72 324.18 34.20Q323.16 34.68 322.30 34.68ZM329.78 34.66L329.78 34.66Q328.97 34.66 328.51 34.37Q328.06 34.08 327.86 33.60Q327.67 33.12 327.68 32.50Q327.70 31.87 327.82 31.20L327.82 31.20L330.72 14.57Q331.15 12.10 332.08 10.96Q333.00 9.82 334.54 9.82L334.54 9.82Q335.40 9.82 336.02 10.25Q336.65 10.68 336.97 11.48Q337.30 12.29 337.30 13.44L337.30 13.44Q337.30 13.90 336.98 14.11Q336.67 14.33 336.26 14.33Q335.86 14.33 335.54 14.11Q335.23 13.90 335.23 13.44L335.23 13.44Q335.23 12.89 335.14 12.52Q335.04 12.14 334.84 11.95Q334.63 11.76 334.32 11.76L334.32 11.76Q333.96 11.76 333.68 12.05Q333.41 12.34 333.18 13.01Q332.95 13.68 332.74 14.86L332.74 14.86L329.71 31.70Q329.64 32.06 329.65 32.32Q329.66 32.57 329.78 32.70Q329.90 32.83 330.14 32.83L330.14 32.83Q330.41 32.83 330.64 32.70Q330.86 32.57 331.08 32.33Q331.30 32.09 331.51 31.78L331.51 31.78Q331.66 31.58 331.88 31.56Q332.11 31.54 332.42 31.73L332.42 31.73Q332.76 31.94 332.81 32.18Q332.86 32.42 332.74 32.66L332.74 32.66Q332.50 33.12 332.06 33.59Q331.63 34.06 331.06 34.36Q330.48 34.66 329.78 34.66Z"/></svg>