<svg xmlns="http://www.w3.org/2000/svg" xmlns:xlink="http://www.w3.org/1999/xlink" width="218.184" height="28.176000000000002"><path fill="black" d="M2.86 22.56L2.38 22.56L2.38 5.52L9.31 5.52Q10.37 5.52 11.24 5.96Q12.12 6.41 12.76 7.15Q13.39 7.90 13.75 8.81Q14.11 9.72 14.11 10.68L14.11 10.68Q14.11 12.00 13.56 13.14Q13.01 14.28 12.04 15.02Q11.06 15.77 9.77 15.86L9.77 15.86L14.09 22.56L13.51 22.56L9.19 15.86L2.86 15.86L2.86 22.56ZM2.86 6L2.86 15.38L9.48 15.38Q10.78 15.38 11.70 14.70Q12.62 14.02 13.13 12.94Q13.63 11.86 13.63 10.68L13.63 10.68Q13.63 9.46 13.06 8.39Q12.48 7.32 11.50 6.66Q10.51 6 9.31 6L9.31 6L2.86 6ZM16.34 18.98L16.34 18.98Q16.34 17.93 17.00 17.14Q17.66 16.34 18.82 15.89Q19.97 15.43 21.48 15.43L21.48 15.43Q22.54 15.43 23.65 15.61Q24.77 15.79 25.66 16.13L25.66 16.13L25.66 14.71Q25.66 12.77 24.54 11.58Q23.42 10.39 21.58 10.39L21.58 10.39Q20.69 10.39 19.64 10.79Q18.60 11.18 17.54 11.93L17.54 11.93L17.26 11.54Q18.46 10.73 19.54 10.32Q20.62 9.91 21.58 9.91L21.58 9.91Q23.66 9.91 24.90 11.21Q26.14 12.50 26.14 14.71L26.14 14.71L26.14 21.60Q26.14 21.84 26.24 21.96Q26.35 22.08 26.52 22.08L26.52 22.08L26.52 22.56Q26.38 22.56 26.30 22.55Q26.23 22.54 26.18 22.51L26.18 22.51Q25.94 22.42 25.80 22.16Q25.66 21.91 25.66 21.60L25.66 21.60L25.66 20.45Q24.79 21.55 23.40 22.18Q22.01 22.80 20.38 22.80L20.38 22.80Q19.25 22.80 18.34 22.30Q17.42 21.79 16.88 20.92Q16.34 20.04 16.34 18.98ZM25.30 20.11L25.30 20.11Q25.49 19.85 25.57 19.60Q25.66 19.34 25.66 19.13L25.66 19.13L25.66 16.66Q24.70 16.27 23.65 16.09Q22.61 15.91 21.48 15.91L21.48 15.91Q19.39 15.91 18.11 16.75Q16.82 17.59 16.82 18.98L16.82 18.98Q16.82 19.92 17.29 20.68Q17.76 21.43 18.58 21.88Q19.39 22.32 20.38 22.32L20.38 22.32Q21.98 22.32 23.32 21.72Q24.65 21.12 25.30 20.11ZM30.14 20.71L30.14 5.04L30.62 5.04L30.62 20.71Q30.62 21.41 31.06 21.82Q31.49 22.22 32.21 22.22L32.21 22.22Q32.47 22.22 32.84 22.16Q33.22 22.10 33.53 22.01L33.53 22.01L33.70 22.39Q33.38 22.49 32.88 22.58Q32.38 22.68 32.04 22.68L32.04 22.68Q31.20 22.68 30.67 22.14Q30.14 21.60 30.14 20.71L30.14 20.71ZM40.80 22.80L40.80 22.80Q39.58 22.80 38.48 22.28Q37.39 21.77 36.56 20.87Q35.74 19.97 35.27 18.78Q34.80 17.59 34.80 16.25L34.80 16.25Q34.80 14.50 35.59 13.06Q36.38 11.62 37.72 10.76Q39.05 9.91 40.68 9.91L40.68 9.91Q42.34 9.91 43.69 10.78Q45.05 11.64 45.86 13.09Q46.68 14.54 46.68 16.34L46.68 16.34Q46.68 16.42 46.68 16.48Q46.68 16.54 46.68 16.61L46.68 16.61L35.28 16.61Q35.40 18.22 36.17 19.51Q36.94 20.81 38.16 21.56Q39.38 22.32 40.82 22.32L40.82 22.32Q42.26 22.32 43.51 21.59Q44.76 20.86 45.29 19.70L45.29 19.70L45.74 19.82Q45.41 20.66 44.65 21.35Q43.90 22.03 42.89 22.42Q41.88 22.80 40.80 22.80ZM35.28 16.13L35.28 16.13L46.18 16.13Q46.08 14.45 45.34 13.16Q44.59 11.88 43.39 11.14Q42.19 10.39 40.70 10.39L40.70 10.39Q39.24 10.39 38.04 11.14Q36.84 11.88 36.11 13.18Q35.38 14.47 35.28 16.13ZM60.31 21.86L65.45 10.10L65.98 10.10L60.53 22.56L60.10 22.56L57.05 15.58L54 22.56L53.57 22.56L48.12 10.10L48.65 10.10L53.78 21.86L56.78 14.98L54.70 10.13L55.20 10.13L57.05 14.35L58.90 10.13L59.40 10.13L57.31 14.98L60.31 21.86ZM67.51 18.98L67.51 18.98Q67.51 17.93 68.17 17.14Q68.83 16.34 69.98 15.89Q71.14 15.43 72.65 15.43L72.65 15.43Q73.70 15.43 74.82 15.61Q75.94 15.79 76.82 16.13L76.82 16.13L76.82 14.71Q76.82 12.77 75.71 11.58Q74.59 10.39 72.74 10.39L72.74 10.39Q71.86 10.39 70.81 10.79Q69.77 11.18 68.71 11.93L68.71 11.93L68.42 11.54Q69.62 10.73 70.70 10.32Q71.78 9.91 72.74 9.91L72.74 9.91Q74.83 9.91 76.07 11.21Q77.30 12.50 77.30 14.71L77.30 14.71L77.30 21.60Q77.30 21.84 77.41 21.96Q77.52 22.08 77.69 22.08L77.69 22.08L77.69 22.56Q77.54 22.56 77.47 22.55Q77.40 22.54 77.35 22.51L77.35 22.51Q77.11 22.42 76.97 22.16Q76.82 21.91 76.82 21.60L76.82 21.60L76.82 20.45Q75.96 21.55 74.57 22.18Q73.18 22.80 71.54 22.80L71.54 22.80Q70.42 22.80 69.50 22.30Q68.59 21.79 68.05 20.92Q67.51 20.04 67.51 18.98ZM76.46 20.11L76.46 20.11Q76.66 19.85 76.74 19.60Q76.82 19.34 76.82 19.13L76.82 19.13L76.82 16.66Q75.86 16.27 74.82 16.09Q73.78 15.91 72.65 15.91L72.65 15.91Q70.56 15.91 69.28 16.75Q67.99 17.59 67.99 18.98L67.99 18.98Q67.99 19.92 68.46 20.68Q68.93 21.43 69.74 21.88Q70.56 22.32 71.54 22.32L71.54 22.32Q73.15 22.32 74.48 21.72Q75.82 21.12 76.46 20.11ZM82.22 27.91L82.22 27.43Q82.63 27.43 82.93 27.40Q83.23 27.36 83.35 27.19L83.35 27.19Q83.45 27.07 83.62 26.72Q83.78 26.38 84.20 25.42Q84.62 24.46 85.44 22.56L85.44 22.56L79.66 10.10L80.18 10.10L85.68 21.96L90.89 10.10L91.42 10.10L84.00 27.02Q83.90 27.24 83.78 27.40Q83.66 27.55 83.53 27.65Q83.40 27.74 83.21 27.79L83.21 27.79Q82.99 27.84 82.74 27.88Q82.49 27.91 82.22 27.91L82.22 27.91ZM103.80 22.08L106.85 22.08L106.85 22.56L99.91 22.56L99.91 22.08L103.32 22.08L103.32 9.65Q103.13 9.94 102.67 10.28Q102.22 10.63 101.63 10.96Q101.04 11.28 100.44 11.50Q99.84 11.71 99.36 11.71L99.36 11.71L99.36 11.14Q100.01 11.14 100.69 10.80Q101.38 10.46 101.96 10.03Q102.55 9.60 102.92 9.24Q103.30 8.88 103.32 8.86L103.32 8.86L103.80 8.86L103.80 22.08ZM120.46 15.53L120.46 15.53Q120.46 17.64 119.70 19.28Q118.94 20.93 117.61 21.86Q116.28 22.80 114.58 22.80L114.58 22.80Q112.87 22.80 111.54 21.86Q110.21 20.93 109.45 19.28Q108.70 17.64 108.70 15.53L108.70 15.53Q108.70 13.42 109.45 11.77Q110.21 10.13 111.54 9.18Q112.87 8.23 114.58 8.23L114.58 8.23Q116.28 8.23 117.61 9.18Q118.94 10.13 119.70 11.77Q120.46 13.42 120.46 15.53ZM119.98 15.53L119.98 15.53Q119.98 13.51 119.29 11.98Q118.61 10.44 117.40 9.58Q116.18 8.71 114.58 8.71L114.58 8.71Q112.99 8.71 111.77 9.58Q110.54 10.44 109.86 11.98Q109.18 13.51 109.18 15.53L109.18 15.53Q109.18 17.54 109.86 19.07Q110.54 20.59 111.77 21.46Q112.99 22.32 114.58 22.32L114.58 22.32Q116.18 22.32 117.40 21.46Q118.61 20.59 119.29 19.07Q119.98 17.54 119.98 15.53ZM135.05 15.53L135.05 15.53Q135.05 17.64 134.29 19.28Q133.54 20.93 132.20 21.86Q130.87 22.80 129.17 22.80L129.17 22.80Q127.46 22.80 126.13 21.86Q124.80 20.93 124.04 19.28Q123.29 17.64 123.29 15.53L123.29 15.53Q123.29 13.42 124.04 11.77Q124.80 10.13 126.13 9.18Q127.46 8.23 129.17 8.23L129.17 8.23Q130.87 8.23 132.20 9.18Q133.54 10.13 134.29 11.77Q135.05 13.42 135.05 15.53ZM134.57 15.53L134.57 15.53Q134.57 13.51 133.88 11.98Q133.20 10.44 131.99 9.58Q130.78 8.71 129.17 8.71L129.17 8.71Q127.58 8.71 126.36 9.58Q125.14 10.44 124.45 11.98Q123.77 13.51 123.77 15.53L123.77 15.53Q123.77 17.54 124.45 19.07Q125.14 20.59 126.36 21.46Q127.58 22.32 129.17 22.32L129.17 22.32Q130.78 22.32 131.99 21.46Q133.20 20.59 133.88 19.07Q134.57 17.54 134.57 15.53ZM154.42 15.62L154.42 22.56L153.94 22.56L153.94 15.62Q153.94 12.91 153.18 11.65Q152.42 10.39 150.74 10.39L150.74 10.39Q149.54 10.39 148.40 10.96Q147.26 11.52 146.42 12.49Q145.58 13.46 145.22 14.69L145.22 14.69L145.22 22.56L144.74 22.56L144.74 10.10L145.22 10.10L145.22 13.32Q145.75 12.31 146.62 11.54Q147.48 10.78 148.55 10.34Q149.62 9.91 150.72 9.91L150.72 9.91Q151.68 9.91 152.38 10.26Q153.07 10.61 153.53 11.30Q153.98 12.00 154.20 13.08Q154.42 14.16 154.42 15.62L154.42 15.62ZM163.32 22.80L163.32 22.80Q162.10 22.80 161.02 22.30Q159.94 21.79 159.12 20.89Q158.30 19.99 157.85 18.83Q157.39 17.66 157.39 16.37L157.39 16.37Q157.39 15.05 157.86 13.88Q158.33 12.72 159.14 11.82Q159.96 10.92 161.04 10.42Q162.12 9.91 163.32 9.91L163.32 9.91Q164.52 9.91 165.60 10.42Q166.68 10.92 167.50 11.82Q168.31 12.72 168.78 13.88Q169.25 15.05 169.25 16.37L169.25 16.37Q169.25 17.66 168.79 18.83Q168.34 19.99 167.51 20.89Q166.68 21.79 165.61 22.30Q164.54 22.80 163.32 22.80ZM157.87 16.42L157.87 16.42Q157.87 18.02 158.60 19.37Q159.34 20.71 160.57 21.52Q161.81 22.32 163.30 22.32L163.30 22.32Q164.78 22.32 166.03 21.50Q167.28 20.69 168.02 19.32Q168.77 17.95 168.77 16.34L168.77 16.34Q168.77 14.74 168.02 13.38Q167.28 12.02 166.04 11.21Q164.81 10.39 163.32 10.39L163.32 10.39Q161.86 10.39 160.61 11.22Q159.36 12.05 158.62 13.42Q157.87 14.78 157.87 16.42ZM177.70 10.10L177.70 10.58Q175.94 10.66 174.65 11.75Q173.35 12.84 172.85 14.69L172.85 14.69L172.85 22.56L172.37 22.56L172.37 10.10L172.85 10.10L172.85 13.32Q173.50 12.00 174.59 11.15Q175.68 10.30 176.90 10.15L176.90 10.15Q177.14 10.13 177.35 10.12Q177.55 10.10 177.70 10.10L177.70 10.10ZM198.02 15.62L198.02 22.56L197.54 22.56L197.54 15.62Q197.54 12.96 196.73 11.68Q195.91 10.39 194.21 10.39L194.21 10.39Q192.43 10.39 191.12 11.60Q189.82 12.82 189.31 14.71L189.31 14.71L189.31 22.56L188.83 22.56L188.83 15.62Q188.83 12.91 188.03 11.65Q187.22 10.39 185.52 10.39L185.52 10.39Q183.77 10.39 182.46 11.58Q181.15 12.77 180.60 14.69L180.60 14.69L180.60 22.56L180.12 22.56L180.12 10.10L180.60 10.10L180.60 13.32Q181.42 11.69 182.69 10.80Q183.96 9.91 185.42 9.91L185.42 9.91Q186.98 9.91 188.02 10.90Q189.05 11.88 189.22 13.54L189.22 13.54Q190.15 11.71 191.39 10.81Q192.62 9.91 194.21 9.91L194.21 9.91Q195.19 9.91 195.90 10.26Q196.61 10.61 197.09 11.32Q197.57 12.02 197.80 13.10Q198.02 14.18 198.02 15.62L198.02 15.62ZM200.83 18.98L200.83 18.98Q200.83 17.93 201.49 17.14Q202.15 16.34 203.30 15.89Q204.46 15.43 205.97 15.43L205.97 15.43Q207.02 15.43 208.14 15.61Q209.26 15.79 210.14 16.13L210.14 16.13L210.14 14.71Q210.14 12.77 209.03 11.58Q207.91 10.39 206.06 10.39L206.06 10.39Q205.18 10.39 204.13 10.79Q203.09 11.18 202.03 11.93L202.03 11.93L201.74 11.54Q202.94 10.73 204.02 10.32Q205.10 9.91 206.06 9.91L206.06 9.91Q208.15 9.91 209.39 11.21Q210.62 12.50 210.62 14.71L210.62 14.71L210.62 21.60Q210.62 21.84 210.73 21.96Q210.84 22.08 211.01 22.08L211.01 22.08L211.01 22.56Q210.86 22.56 210.79 22.55Q210.72 22.54 210.67 22.51L210.67 22.51Q210.43 22.42 210.29 22.16Q210.14 21.91 210.14 21.60L210.14 21.60L210.14 20.45Q209.28 21.55 207.89 22.18Q206.50 22.80 204.86 22.80L204.86 22.80Q203.74 22.80 202.82 22.30Q201.91 21.79 201.37 20.92Q200.83 20.04 200.83 18.98ZM209.78 20.11L209.78 20.11Q209.98 19.85 210.06 19.60Q210.14 19.34 210.14 19.13L210.14 19.13L210.14 16.66Q209.18 16.27 208.14 16.09Q207.10 15.91 205.97 15.91L205.97 15.91Q203.88 15.91 202.60 16.75Q201.31 17.59 201.31 18.98L201.31 18.98Q201.31 19.92 201.78 20.68Q202.25 21.43 203.06 21.88Q203.88 22.32 204.86 22.32L204.86 22.32Q206.47 22.32 207.80 21.72Q209.14 21.12 209.78 20.11ZM214.63 20.71L214.63 5.04L215.11 5.04L215.11 20.71Q215.11 21.41 215.54 21.82Q215.98 22.22 216.70 22.22L216.70 22.22Q216.96 22.22 217.33 22.16Q217.70 22.10 218.02 22.01L218.02 22.01L218.18 22.39Q217.87 22.49 217.37 22.58Q216.86 22.68 216.53 22.68L216.53 22.68Q215.69 22.68 215.16 22.14Q214.63 21.60 214.63 20.71L214.63 20.71Z"/></svg>