<svg xmlns="http://www.w3.org/2000/svg" xmlns:xlink="http://www.w3.org/1999/xlink" width="400.79999999999995" height="32.688"><path fill="black" d="M15.91 8.52L15.91 25.66L13.39 25.66L4.22 11.42L4.13 11.42Q4.18 12.26 4.25 13.51Q4.32 14.76 4.32 16.08L4.32 16.08L4.32 25.66L2.33 25.66L2.33 8.52L4.82 8.52L13.97 22.70L14.06 22.70Q14.04 22.32 14.00 21.55Q13.97 20.78 13.93 19.87Q13.90 18.96 13.90 18.19L13.90 18.19L13.90 8.52L15.91 8.52ZM31.46 19.20L31.46 19.20Q31.46 22.39 29.84 24.14Q28.22 25.90 25.46 25.90L25.46 25.90Q23.76 25.90 22.43 25.12Q21.10 24.34 20.33 22.84Q19.56 21.34 19.56 19.20L19.56 19.20Q19.56 16.01 21.17 14.28Q22.78 12.55 25.54 12.55L25.54 12.55Q27.29 12.55 28.62 13.33Q29.95 14.11 30.71 15.59Q31.46 17.06 31.46 19.20ZM21.74 19.20L21.74 19.20Q21.74 21.48 22.64 22.81Q23.54 24.14 25.51 24.14L25.51 24.14Q27.46 24.14 28.37 22.81Q29.28 21.48 29.28 19.20L29.28 19.20Q29.28 16.92 28.37 15.62Q27.46 14.33 25.49 14.33L25.49 14.33Q23.52 14.33 22.63 15.62Q21.74 16.92 21.74 19.20ZM39.10 24.17L39.10 24.17Q39.58 24.17 40.08 24.08Q40.58 24 40.90 23.90L40.90 23.90L40.90 25.51Q40.56 25.68 39.94 25.79Q39.31 25.90 38.74 25.90L38.74 25.90Q37.73 25.90 36.88 25.55Q36.02 25.20 35.50 24.34Q34.97 23.47 34.97 21.91L34.97 21.91L34.97 14.42L33.14 14.42L33.14 13.42L34.99 12.58L35.83 9.84L37.08 9.84L37.08 12.79L40.80 12.79L40.80 14.42L37.08 14.42L37.08 21.86Q37.08 23.04 37.64 23.60Q38.21 24.17 39.10 24.17ZM54.65 19.20L54.65 19.20Q54.65 22.39 53.03 24.14Q51.41 25.90 48.65 25.90L48.65 25.90Q46.94 25.90 45.61 25.12Q44.28 24.34 43.51 22.84Q42.74 21.34 42.74 19.20L42.74 19.20Q42.74 16.01 44.35 14.28Q45.96 12.55 48.72 12.55L48.72 12.55Q50.47 12.55 51.80 13.33Q53.14 14.11 53.89 15.59Q54.65 17.06 54.65 19.20ZM44.93 19.20L44.93 19.20Q44.93 21.48 45.83 22.81Q46.73 24.14 48.70 24.14L48.70 24.14Q50.64 24.14 51.55 22.81Q52.46 21.48 52.46 19.20L52.46 19.20Q52.46 16.92 51.55 15.62Q50.64 14.33 48.67 14.33L48.67 14.33Q46.70 14.33 45.82 15.62Q44.93 16.92 44.93 19.20ZM72.79 21.07L72.79 21.07Q72.79 23.35 71.14 24.62Q69.48 25.90 66.67 25.90L66.67 25.90Q65.23 25.90 64.01 25.68Q62.78 25.46 61.97 25.08L61.97 25.08L61.97 23.02Q62.83 23.40 64.12 23.71Q65.40 24.02 66.77 24.02L66.77 24.02Q68.69 24.02 69.66 23.28Q70.63 22.54 70.63 21.26L70.63 21.26Q70.63 20.42 70.27 19.85Q69.91 19.27 69.04 18.78Q68.16 18.29 66.60 17.74L66.60 17.74Q65.50 17.33 64.67 16.86Q63.84 16.39 63.29 15.79Q62.74 15.19 62.46 14.42Q62.18 13.66 62.18 12.65L62.18 12.65Q62.18 11.28 62.88 10.31Q63.58 9.34 64.81 8.81Q66.05 8.28 67.66 8.28L67.66 8.28Q69.07 8.28 70.25 8.54Q71.42 8.81 72.38 9.24L72.38 9.24L71.71 11.09Q70.82 10.70 69.78 10.44Q68.74 10.18 67.61 10.18L67.61 10.18Q66 10.18 65.18 10.86Q64.37 11.54 64.37 12.67L64.37 12.67Q64.37 13.54 64.73 14.11Q65.09 14.69 65.90 15.14Q66.72 15.60 68.11 16.13L68.11 16.13Q69.62 16.68 70.67 17.32Q71.71 17.95 72.25 18.84Q72.79 19.73 72.79 21.07ZM80.83 12.58L80.83 12.58Q83.18 12.58 84.31 13.61Q85.44 14.64 85.44 16.90L85.44 16.90L85.44 25.66L83.90 25.66L83.50 23.83L83.40 23.83Q82.56 24.89 81.64 25.39Q80.71 25.90 79.08 25.90L79.08 25.90Q77.33 25.90 76.18 24.97Q75.02 24.05 75.02 22.08L75.02 22.08Q75.02 20.16 76.54 19.12Q78.05 18.07 81.19 17.98L81.19 17.98L83.38 17.90L83.38 17.14Q83.38 15.53 82.68 14.90Q81.98 14.28 80.71 14.28L80.71 14.28Q79.70 14.28 78.79 14.58Q77.88 14.88 77.09 15.26L77.09 15.26L76.44 13.68Q77.28 13.22 78.43 12.90Q79.58 12.58 80.83 12.58ZM83.35 19.37L81.46 19.44Q79.06 19.54 78.13 20.21Q77.21 20.88 77.21 22.10L77.21 22.10Q77.21 23.18 77.87 23.69Q78.53 24.19 79.56 24.19L79.56 24.19Q81.19 24.19 82.27 23.29Q83.35 22.39 83.35 20.52L83.35 20.52L83.35 19.37ZM95.62 12.55L95.62 12.55Q97.92 12.55 99.10 13.67Q100.27 14.78 100.27 17.28L100.27 17.28L100.27 25.66L98.18 25.66L98.18 17.42Q98.18 15.86 97.49 15.10Q96.79 14.33 95.30 14.33L95.30 14.33Q93.17 14.33 92.35 15.53Q91.54 16.73 91.54 18.98L91.54 18.98L91.54 25.66L89.42 25.66L89.42 12.79L91.13 12.79L91.44 14.54L91.56 14.54Q92.18 13.54 93.29 13.04Q94.39 12.55 95.62 12.55ZM112.63 22.10L112.63 22.10Q112.63 23.98 111.24 24.94Q109.85 25.90 107.50 25.90L107.50 25.90Q106.15 25.90 105.18 25.68Q104.21 25.46 103.46 25.08L103.46 25.08L103.46 23.16Q104.23 23.54 105.32 23.87Q106.42 24.19 107.54 24.19L107.54 24.19Q109.15 24.19 109.87 23.68Q110.59 23.16 110.59 22.30L110.59 22.30Q110.59 21.82 110.33 21.43Q110.06 21.05 109.38 20.66Q108.70 20.28 107.42 19.80L107.42 19.80Q106.18 19.32 105.29 18.84Q104.40 18.36 103.92 17.69Q103.44 17.02 103.44 15.96L103.44 15.96Q103.44 14.33 104.77 13.44Q106.10 12.55 108.26 12.55L108.26 12.55Q109.44 12.55 110.46 12.78Q111.48 13.01 112.37 13.42L112.37 13.42L111.65 15.10Q110.83 14.76 109.94 14.52Q109.06 14.28 108.12 14.28L108.12 14.28Q106.82 14.28 106.14 14.70Q105.46 15.12 105.46 15.84L105.46 15.84Q105.46 16.37 105.77 16.74Q106.08 17.11 106.81 17.46Q107.54 17.81 108.77 18.29L108.77 18.29Q109.99 18.74 110.86 19.22Q111.72 19.70 112.18 20.39Q112.63 21.07 112.63 22.10ZM134.42 8.52L134.42 25.66L131.90 25.66L122.74 11.42L122.64 11.42Q122.69 12.26 122.76 13.51Q122.83 14.76 122.83 16.08L122.83 16.08L122.83 25.66L120.84 25.66L120.84 8.52L123.34 8.52L132.48 22.70L132.58 22.70Q132.55 22.32 132.52 21.55Q132.48 20.78 132.44 19.87Q132.41 18.96 132.41 18.19L132.41 18.19L132.41 8.52L134.42 8.52ZM143.66 12.58L143.66 12.58Q146.02 12.58 147.14 13.61Q148.27 14.64 148.27 16.90L148.27 16.90L148.27 25.66L146.74 25.66L146.33 23.83L146.23 23.83Q145.39 24.89 144.47 25.39Q143.54 25.90 141.91 25.90L141.91 25.90Q140.16 25.90 139.01 24.97Q137.86 24.05 137.86 22.08L137.86 22.08Q137.86 20.16 139.37 19.12Q140.88 18.07 144.02 17.98L144.02 17.98L146.21 17.90L146.21 17.14Q146.21 15.53 145.51 14.90Q144.82 14.28 143.54 14.28L143.54 14.28Q142.54 14.28 141.62 14.58Q140.71 14.88 139.92 15.26L139.92 15.26L139.27 13.68Q140.11 13.22 141.26 12.90Q142.42 12.58 143.66 12.58ZM146.18 19.37L144.29 19.44Q141.89 19.54 140.96 20.21Q140.04 20.88 140.04 22.10L140.04 22.10Q140.04 23.18 140.70 23.69Q141.36 24.19 142.39 24.19L142.39 24.19Q144.02 24.19 145.10 23.29Q146.18 22.39 146.18 20.52L146.18 20.52L146.18 19.37ZM156.82 12.55L156.82 12.55Q158.09 12.55 159.11 13.03Q160.13 13.51 160.85 14.50L160.85 14.50L160.97 14.50L161.26 12.79L162.94 12.79L162.94 25.87Q162.94 28.63 161.53 30.02Q160.13 31.42 157.18 31.42L157.18 31.42Q155.78 31.42 154.62 31.21Q153.46 31.01 152.54 30.60L152.54 30.60L152.54 28.66Q154.44 29.66 157.30 29.66L157.30 29.66Q158.95 29.66 159.90 28.69Q160.85 27.72 160.85 26.04L160.85 26.04L160.85 25.54Q160.85 25.25 160.87 24.71Q160.90 24.17 160.92 23.95L160.92 23.95L160.82 23.95Q160.15 24.94 159.16 25.42Q158.16 25.90 156.84 25.90L156.84 25.90Q154.34 25.90 152.94 24.14Q151.54 22.39 151.54 19.25L151.54 19.25Q151.54 16.18 152.94 14.36Q154.34 12.55 156.82 12.55ZM157.10 14.33L157.10 14.33Q155.50 14.33 154.61 15.61Q153.72 16.90 153.72 19.27L153.72 19.27Q153.72 21.65 154.60 22.91Q155.47 24.17 157.15 24.17L157.15 24.17Q159.10 24.17 159.98 23.12Q160.87 22.08 160.87 19.75L160.87 19.75L160.87 19.25Q160.87 16.61 159.96 15.47Q159.05 14.33 157.10 14.33ZM181.44 25.66L179.66 25.66L174.02 10.63L173.93 10.63Q173.98 11.11 174.01 11.86Q174.05 12.60 174.07 13.48Q174.10 14.35 174.10 15.26L174.10 15.26L174.10 25.66L172.10 25.66L172.10 8.52L175.30 8.52L180.58 22.56L180.67 22.56L186.05 8.52L189.22 8.52L189.22 25.66L187.08 25.66L187.08 15.12Q187.08 14.28 187.10 13.45Q187.13 12.62 187.18 11.89Q187.22 11.16 187.25 10.66L187.25 10.66L187.15 10.66L181.44 25.66ZM202.22 12.79L204.34 12.79L204.34 25.66L202.61 25.66L202.30 23.95L202.20 23.95Q201.58 24.96 200.47 25.43Q199.37 25.90 198.12 25.90L198.12 25.90Q195.79 25.90 194.62 24.78Q193.44 23.66 193.44 21.22L193.44 21.22L193.44 12.79L195.58 12.79L195.58 21.07Q195.58 22.61 196.27 23.38Q196.97 24.14 198.43 24.14L198.43 24.14Q200.57 24.14 201.40 22.94Q202.22 21.74 202.22 19.49L202.22 19.49L202.22 12.79ZM214.61 12.55L214.61 12.55Q216.91 12.55 218.09 13.67Q219.26 14.78 219.26 17.28L219.26 17.28L219.26 25.66L217.18 25.66L217.18 17.42Q217.18 15.86 216.48 15.10Q215.78 14.33 214.30 14.33L214.30 14.33Q212.16 14.33 211.34 15.53Q210.53 16.73 210.53 18.98L210.53 18.98L210.53 25.66L208.42 25.66L208.42 12.79L210.12 12.79L210.43 14.54L210.55 14.54Q211.18 13.54 212.28 13.04Q213.38 12.55 214.61 12.55ZM227.81 25.90L227.81 25.90Q225.41 25.90 223.97 24.23Q222.53 22.56 222.53 19.25L222.53 19.25Q222.53 15.94 223.98 14.24Q225.43 12.55 227.83 12.55L227.83 12.55Q229.32 12.55 230.27 13.10Q231.22 13.66 231.82 14.45L231.82 14.45L231.96 14.45Q231.94 14.14 231.88 13.52Q231.82 12.91 231.82 12.55L231.82 12.55L231.82 7.42L233.93 7.42L233.93 25.66L232.22 25.66L231.91 23.93L231.82 23.93Q231.24 24.74 230.28 25.32Q229.32 25.90 227.81 25.90ZM228.14 24.14L228.14 24.14Q230.18 24.14 231.01 23.03Q231.84 21.91 231.84 19.66L231.84 19.66L231.84 19.27Q231.84 16.87 231.05 15.59Q230.26 14.30 228.12 14.30L228.12 14.30Q226.42 14.30 225.56 15.66Q224.71 17.02 224.71 19.30L224.71 19.30Q224.71 21.60 225.56 22.87Q226.42 24.14 228.14 24.14ZM242.88 12.58L242.88 12.58Q245.23 12.58 246.36 13.61Q247.49 14.64 247.49 16.90L247.49 16.90L247.49 25.66L245.95 25.66L245.54 23.83L245.45 23.83Q244.61 24.89 243.68 25.39Q242.76 25.90 241.13 25.90L241.13 25.90Q239.38 25.90 238.22 24.97Q237.07 24.05 237.07 22.08L237.07 22.08Q237.07 20.16 238.58 19.12Q240.10 18.07 243.24 17.98L243.24 17.98L245.42 17.90L245.42 17.14Q245.42 15.53 244.73 14.90Q244.03 14.28 242.76 14.28L242.76 14.28Q241.75 14.28 240.84 14.58Q239.93 14.88 239.14 15.26L239.14 15.26L238.49 13.68Q239.33 13.22 240.48 12.90Q241.63 12.58 242.88 12.58ZM245.40 19.37L243.50 19.44Q241.10 19.54 240.18 20.21Q239.26 20.88 239.26 22.10L239.26 22.10Q239.26 23.18 239.92 23.69Q240.58 24.19 241.61 24.19L241.61 24.19Q243.24 24.19 244.32 23.29Q245.40 22.39 245.40 20.52L245.40 20.52L245.40 19.37ZM257.47 12.55L257.47 12.55Q257.83 12.55 258.25 12.59Q258.67 12.62 258.98 12.70L258.98 12.70L258.72 14.64Q258.41 14.57 258.04 14.52Q257.66 14.47 257.33 14.47L257.33 14.47Q256.34 14.47 255.48 15.01Q254.62 15.55 254.10 16.52Q253.58 17.50 253.58 18.79L253.58 18.79L253.58 25.66L251.47 25.66L251.47 12.79L253.20 12.79L253.44 15.14L253.54 15.14Q254.16 14.09 255.14 13.32Q256.13 12.55 257.47 12.55ZM261.38 12.79L263.50 12.79L263.50 25.66L261.38 25.66L261.38 12.79ZM262.46 7.97L262.46 7.97Q262.94 7.97 263.32 8.29Q263.69 8.62 263.69 9.31L263.69 9.31Q263.69 9.98 263.32 10.32Q262.94 10.66 262.46 10.66L262.46 10.66Q261.94 10.66 261.58 10.32Q261.22 9.98 261.22 9.31L261.22 9.31Q261.22 8.62 261.58 8.29Q261.94 7.97 262.46 7.97ZM281.54 25.66L279.62 25.66L279.62 21.41L271.54 21.41L271.54 19.30L279.46 8.42L281.54 8.42L281.54 19.68L284.02 19.68L284.02 21.41L281.54 21.41L281.54 25.66ZM280.66 9.91L272.81 20.54L271.85 19.68L279.62 19.68L279.62 9.22L280.66 9.91ZM292.75 26.04L292.75 26.04Q291.19 26.04 290.05 25.33Q288.91 24.62 288.17 23.39Q287.42 22.15 287.06 20.56Q286.70 18.96 286.70 17.16L286.70 17.16Q286.70 15.34 287.06 13.72Q287.42 12.10 288.18 10.84Q288.94 9.58 290.08 8.86Q291.22 8.14 292.75 8.14L292.75 8.14Q294.31 8.14 295.45 8.86Q296.59 9.58 297.34 10.85Q298.08 12.12 298.44 13.74Q298.80 15.36 298.80 17.16L298.80 17.16Q298.80 18.96 298.44 20.56Q298.08 22.15 297.34 23.39Q296.59 24.62 295.45 25.33Q294.31 26.04 292.75 26.04ZM292.75 24.31L292.75 24.31Q293.86 24.31 294.64 23.75Q295.42 23.18 295.91 22.19Q296.40 21.19 296.64 19.91Q296.88 18.62 296.88 17.16L296.88 17.16Q296.88 15.67 296.64 14.35Q296.40 13.03 295.90 12.02Q295.39 11.02 294.61 10.44Q293.83 9.86 292.75 9.86L292.75 9.86Q291.67 9.86 290.89 10.45Q290.11 11.04 289.61 12.05Q289.10 13.06 288.86 14.38Q288.62 15.70 288.62 17.16L288.62 17.16Q288.62 18.62 288.86 19.92Q289.10 21.22 289.60 22.21Q290.09 23.21 290.88 23.76Q291.67 24.31 292.75 24.31ZM307.34 26.04L307.34 26.04Q305.78 26.04 304.64 25.33Q303.50 24.62 302.76 23.39Q302.02 22.15 301.66 20.56Q301.30 18.96 301.30 17.16L301.30 17.16Q301.30 15.34 301.66 13.72Q302.02 12.10 302.77 10.84Q303.53 9.58 304.67 8.86Q305.81 8.14 307.34 8.14L307.34 8.14Q308.90 8.14 310.04 8.86Q311.18 9.58 311.93 10.85Q312.67 12.12 313.03 13.74Q313.39 15.36 313.39 17.16L313.39 17.16Q313.39 18.96 313.03 20.56Q312.67 22.15 311.93 23.39Q311.18 24.62 310.04 25.33Q308.90 26.04 307.34 26.04ZM307.34 24.31L307.34 24.31Q308.45 24.31 309.23 23.75Q310.01 23.18 310.50 22.19Q310.99 21.19 311.23 19.91Q311.47 18.62 311.47 17.16L311.47 17.16Q311.47 15.67 311.23 14.35Q310.99 13.03 310.49 12.02Q309.98 11.02 309.20 10.44Q308.42 9.86 307.34 9.86L307.34 9.86Q306.26 9.86 305.48 10.45Q304.70 11.04 304.20 12.05Q303.70 13.06 303.46 14.38Q303.22 15.70 303.22 17.16L303.22 17.16Q303.22 18.62 303.46 19.92Q303.70 21.22 304.19 22.21Q304.68 23.21 305.47 23.76Q306.26 24.31 307.34 24.31ZM327.67 12.55L327.67 12.55Q329.98 12.55 331.15 13.67Q332.33 14.78 332.33 17.28L332.33 17.28L332.33 25.66L330.24 25.66L330.24 17.42Q330.24 15.86 329.54 15.10Q328.85 14.33 327.36 14.33L327.36 14.33Q325.22 14.33 324.41 15.53Q323.59 16.73 323.59 18.98L323.59 18.98L323.59 25.66L321.48 25.66L321.48 12.79L323.18 12.79L323.50 14.54L323.62 14.54Q324.24 13.54 325.34 13.04Q326.45 12.55 327.67 12.55ZM347.50 19.20L347.50 19.20Q347.50 22.39 345.88 24.14Q344.26 25.90 341.50 25.90L341.50 25.90Q339.79 25.90 338.46 25.12Q337.13 24.34 336.36 22.84Q335.59 21.34 335.59 19.20L335.59 19.20Q335.59 16.01 337.20 14.28Q338.81 12.55 341.57 12.55L341.57 12.55Q343.32 12.55 344.65 13.33Q345.98 14.11 346.74 15.59Q347.50 17.06 347.50 19.20ZM337.78 19.20L337.78 19.20Q337.78 21.48 338.68 22.81Q339.58 24.14 341.54 24.14L341.54 24.14Q343.49 24.14 344.40 22.81Q345.31 21.48 345.31 19.20L345.31 19.20Q345.31 16.92 344.40 15.62Q343.49 14.33 341.52 14.33L341.52 14.33Q339.55 14.33 338.66 15.62Q337.78 16.92 337.78 19.20ZM356.83 12.55L356.83 12.55Q357.19 12.55 357.61 12.59Q358.03 12.62 358.34 12.70L358.34 12.70L358.08 14.64Q357.77 14.57 357.40 14.52Q357.02 14.47 356.69 14.47L356.69 14.47Q355.70 14.47 354.84 15.01Q353.98 15.55 353.46 16.52Q352.94 17.50 352.94 18.79L352.94 18.79L352.94 25.66L350.83 25.66L350.83 12.79L352.56 12.79L352.80 15.14L352.90 15.14Q353.52 14.09 354.50 13.32Q355.49 12.55 356.83 12.55ZM374.86 12.55L374.86 12.55Q377.04 12.55 378.12 13.67Q379.20 14.78 379.20 17.28L379.20 17.28L379.20 25.66L377.11 25.66L377.11 17.38Q377.11 14.33 374.50 14.33L374.50 14.33Q372.62 14.33 371.82 15.41Q371.02 16.49 371.02 18.55L371.02 18.55L371.02 25.66L368.93 25.66L368.93 17.38Q368.93 14.33 366.29 14.33L366.29 14.33Q364.34 14.33 363.60 15.53Q362.86 16.73 362.86 18.98L362.86 18.98L362.86 25.66L360.74 25.66L360.74 12.79L362.45 12.79L362.76 14.54L362.88 14.54Q363.48 13.54 364.50 13.04Q365.52 12.55 366.67 12.55L366.67 12.55Q368.16 12.55 369.16 13.08Q370.15 13.61 370.61 14.71L370.61 14.71L370.73 14.71Q371.38 13.61 372.49 13.08Q373.61 12.55 374.86 12.55ZM388.06 12.58L388.06 12.58Q390.41 12.58 391.54 13.61Q392.66 14.64 392.66 16.90L392.66 16.90L392.66 25.66L391.13 25.66L390.72 23.83L390.62 23.83Q389.78 24.89 388.86 25.39Q387.94 25.90 386.30 25.90L386.30 25.90Q384.55 25.90 383.40 24.97Q382.25 24.05 382.25 22.08L382.25 22.08Q382.25 20.16 383.76 19.12Q385.27 18.07 388.42 17.98L388.42 17.98L390.60 17.90L390.60 17.14Q390.60 15.53 389.90 14.90Q389.21 14.28 387.94 14.28L387.94 14.28Q386.93 14.28 386.02 14.58Q385.10 14.88 384.31 15.26L384.31 15.26L383.66 13.68Q384.50 13.22 385.66 12.90Q386.81 12.58 388.06 12.58ZM390.58 19.37L388.68 19.44Q386.28 19.54 385.36 20.21Q384.43 20.88 384.43 22.10L384.43 22.10Q384.43 23.18 385.09 23.69Q385.75 24.19 386.78 24.19L386.78 24.19Q388.42 24.19 389.50 23.29Q390.58 22.39 390.58 20.52L390.58 20.52L390.58 19.37ZM398.76 7.42L398.76 25.66L396.65 25.66L396.65 7.42L398.76 7.42Z"/></svg>