<svg xmlns="http://www.w3.org/2000/svg" xmlns:xlink="http://www.w3.org/1999/xlink" width="217.32" height="26.904"><path fill="black" d="M8.42 22.70L8.42 22.70Q6.67 22.70 5.40 22.21Q4.13 21.72 3.30 20.84Q2.47 19.97 2.08 18.76Q1.68 17.54 1.68 16.08L1.68 16.08L1.68 5.74L5.42 5.74L5.42 15.77Q5.42 16.78 5.65 17.48Q5.88 18.19 6.28 18.64Q6.67 19.08 7.24 19.27Q7.80 19.46 8.47 19.46L8.47 19.46Q9.84 19.46 10.69 18.62Q11.54 17.78 11.54 15.77L11.54 15.77L11.54 5.74L15.29 5.74L15.29 16.08Q15.29 17.54 14.88 18.77Q14.47 19.99 13.63 20.87Q12.79 21.74 11.50 22.22Q10.20 22.70 8.42 22.70ZM26.74 15.96L26.74 15.96Q26.74 12.50 24.19 12.50L24.19 12.50Q23.64 12.50 23.10 12.65Q22.56 12.79 22.22 13.01L22.22 13.01L22.22 19.51Q22.49 19.56 22.90 19.60Q23.30 19.63 23.78 19.63L23.78 19.63Q25.25 19.63 25.99 18.62Q26.74 17.62 26.74 15.96ZM30.38 16.06L30.38 16.06Q30.38 17.57 29.94 18.79Q29.50 20.02 28.66 20.88Q27.82 21.74 26.59 22.21Q25.37 22.68 23.81 22.68L23.81 22.68Q23.16 22.68 22.45 22.62Q21.74 22.56 21.06 22.46Q20.38 22.37 19.75 22.24Q19.13 22.10 18.65 21.96L18.65 21.96L18.65 4.32L22.22 3.74L22.22 10.03Q22.82 9.77 23.47 9.62Q24.12 9.48 24.86 9.48L24.86 9.48Q26.21 9.48 27.24 9.95Q28.27 10.42 28.97 11.28Q29.66 12.14 30.02 13.36Q30.38 14.57 30.38 16.06ZM43.92 9.74L43.92 21.94Q43.01 22.20 41.57 22.43Q40.13 22.66 38.54 22.66L38.54 22.66Q36.94 22.66 35.87 22.22Q34.80 21.79 34.18 21.01Q33.55 20.23 33.29 19.15Q33.02 18.07 33.02 16.78L33.02 16.78L33.02 9.74L36.60 9.74L36.60 16.34Q36.60 18.07 37.06 18.84Q37.51 19.61 38.76 19.61L38.76 19.61Q39.14 19.61 39.58 19.57Q40.01 19.54 40.34 19.49L40.34 19.49L40.34 9.74L43.92 9.74ZM47.28 22.37L47.28 10.18Q48.19 9.91 49.63 9.68Q51.07 9.46 52.66 9.46L52.66 9.46Q54.26 9.46 55.33 9.88Q56.40 10.30 57.02 11.06Q57.65 11.83 57.91 12.89Q58.18 13.94 58.18 15.24L58.18 15.24L58.18 22.37L54.60 22.37L54.60 15.67Q54.60 13.94 54.14 13.22Q53.69 12.50 52.44 12.50L52.44 12.50Q52.06 12.50 51.62 12.54Q51.19 12.58 50.86 12.62L50.86 12.62L50.86 22.37L47.28 22.37ZM61.30 17.21L61.30 6.60L64.87 6.02L64.87 9.74L69.17 9.74L69.17 12.72L64.87 12.72L64.87 17.16Q64.87 18.29 65.27 18.96Q65.66 19.63 66.86 19.63L66.86 19.63Q67.44 19.63 68.05 19.52Q68.66 19.42 69.17 19.22L69.17 19.22L69.67 22.01Q69.02 22.27 68.23 22.46Q67.44 22.66 66.29 22.66L66.29 22.66Q64.82 22.66 63.86 22.26Q62.90 21.86 62.33 21.16Q61.75 20.45 61.52 19.44Q61.30 18.43 61.30 17.21L61.30 17.21ZM82.85 9.74L82.85 21.94Q81.94 22.20 80.50 22.43Q79.06 22.66 77.47 22.66L77.47 22.66Q75.86 22.66 74.80 22.22Q73.73 21.79 73.10 21.01Q72.48 20.23 72.22 19.15Q71.95 18.07 71.95 16.78L71.95 16.78L71.95 9.74L75.53 9.74L75.53 16.34Q75.53 18.07 75.98 18.84Q76.44 19.61 77.69 19.61L77.69 19.61Q78.07 19.61 78.50 19.57Q78.94 19.54 79.27 19.49L79.27 19.49L79.27 9.74L82.85 9.74ZM97.32 22.37L93.70 22.37Q93.84 20.62 94.30 18.72Q94.75 16.82 95.41 15.00Q96.07 13.18 96.89 11.56Q97.70 9.94 98.54 8.76L98.54 8.76L91.32 8.76L91.32 5.71L102.96 5.71L102.96 8.30Q102.19 9.14 101.27 10.63Q100.34 12.12 99.52 14.00Q98.69 15.89 98.08 18.05Q97.46 20.21 97.32 22.37L97.32 22.37ZM116.74 14.02L116.74 14.02Q116.74 18.22 115.14 20.46Q113.54 22.70 110.74 22.70L110.74 22.70Q107.93 22.70 106.33 20.46Q104.74 18.22 104.74 14.02L104.74 14.02Q104.74 11.93 105.16 10.32Q105.58 8.71 106.37 7.61Q107.16 6.50 108.26 5.93Q109.37 5.35 110.74 5.35L110.74 5.35Q113.54 5.35 115.14 7.60Q116.74 9.84 116.74 14.02ZM113.09 14.02L113.09 14.02Q113.09 12.77 112.97 11.75Q112.85 10.73 112.58 9.98Q112.32 9.24 111.86 8.83Q111.41 8.42 110.74 8.42L110.74 8.42Q110.06 8.42 109.62 8.83Q109.18 9.24 108.90 9.98Q108.62 10.73 108.50 11.75Q108.38 12.77 108.38 14.02L108.38 14.02Q108.38 15.26 108.50 16.30Q108.62 17.33 108.90 18.07Q109.18 18.82 109.62 19.22Q110.06 19.63 110.74 19.63L110.74 19.63Q111.41 19.63 111.86 19.22Q112.32 18.82 112.58 18.07Q112.85 17.33 112.97 16.30Q113.09 15.26 113.09 14.02ZM130.37 14.02L130.37 14.02Q130.37 18.22 128.77 20.46Q127.18 22.70 124.37 22.70L124.37 22.70Q121.56 22.70 119.96 20.46Q118.37 18.22 118.37 14.02L118.37 14.02Q118.37 11.93 118.79 10.32Q119.21 8.71 120.00 7.61Q120.79 6.50 121.90 5.93Q123.00 5.35 124.37 5.35L124.37 5.35Q127.18 5.35 128.77 7.60Q130.37 9.84 130.37 14.02ZM126.72 14.02L126.72 14.02Q126.72 12.77 126.60 11.75Q126.48 10.73 126.22 9.98Q125.95 9.24 125.50 8.83Q125.04 8.42 124.37 8.42L124.37 8.42Q123.70 8.42 123.25 8.83Q122.81 9.24 122.53 9.98Q122.26 10.73 122.14 11.75Q122.02 12.77 122.02 14.02L122.02 14.02Q122.02 15.26 122.14 16.30Q122.26 17.33 122.53 18.07Q122.81 18.82 123.25 19.22Q123.70 19.63 124.37 19.63L124.37 19.63Q125.04 19.63 125.50 19.22Q125.95 18.82 126.22 18.07Q126.48 17.33 126.60 16.30Q126.72 15.26 126.72 14.02ZM138.62 22.37L138.62 10.18Q139.54 9.91 140.98 9.68Q142.42 9.46 144.00 9.46L144.00 9.46Q145.61 9.46 146.68 9.88Q147.74 10.30 148.37 11.06Q148.99 11.83 149.26 12.89Q149.52 13.94 149.52 15.24L149.52 15.24L149.52 22.37L145.94 22.37L145.94 15.67Q145.94 13.94 145.49 13.22Q145.03 12.50 143.78 12.50L143.78 12.50Q143.40 12.50 142.97 12.54Q142.54 12.58 142.20 12.62L142.20 12.62L142.20 22.37L138.62 22.37ZM164.57 16.03L164.57 16.03Q164.57 17.52 164.14 18.76Q163.70 19.99 162.89 20.87Q162.07 21.74 160.93 22.22Q159.79 22.70 158.38 22.70L158.38 22.70Q156.98 22.70 155.84 22.22Q154.70 21.74 153.89 20.87Q153.07 19.99 152.62 18.76Q152.16 17.52 152.16 16.03L152.16 16.03Q152.16 14.54 152.63 13.32Q153.10 12.10 153.92 11.23Q154.75 10.37 155.89 9.89Q157.03 9.41 158.38 9.41L158.38 9.41Q159.74 9.41 160.88 9.89Q162.02 10.37 162.84 11.23Q163.66 12.10 164.11 13.32Q164.57 14.54 164.57 16.03ZM160.92 16.03L160.92 16.03Q160.92 14.38 160.26 13.43Q159.60 12.48 158.38 12.48L158.38 12.48Q157.15 12.48 156.48 13.43Q155.81 14.38 155.81 16.03L155.81 16.03Q155.81 17.69 156.48 18.66Q157.15 19.63 158.38 19.63L158.38 19.63Q159.60 19.63 160.26 18.66Q160.92 17.69 160.92 16.03ZM175.54 9.96L174.94 12.91Q174.46 12.79 173.81 12.66Q173.16 12.53 172.42 12.53L172.42 12.53Q172.08 12.53 171.61 12.59Q171.14 12.65 170.90 12.72L170.90 12.72L170.90 22.37L167.33 22.37L167.33 10.42Q168.29 10.08 169.60 9.78Q170.90 9.48 172.51 9.48L172.51 9.48Q172.80 9.48 173.21 9.52Q173.62 9.55 174.02 9.61Q174.43 9.67 174.84 9.76Q175.25 9.84 175.54 9.96L175.54 9.96ZM184.39 22.37L184.39 15.67Q184.39 13.94 183.95 13.22Q183.50 12.50 182.42 12.50L182.42 12.50Q182.09 12.50 181.73 12.54Q181.37 12.58 181.03 12.62L181.03 12.62L181.03 22.37L177.46 22.37L177.46 10.18Q177.91 10.06 178.52 9.92Q179.14 9.79 179.82 9.68Q180.50 9.58 181.22 9.52Q181.94 9.46 182.64 9.46L182.64 9.46Q184.01 9.46 184.86 9.80Q185.71 10.15 186.26 10.63L186.26 10.63Q187.03 10.08 188.03 9.77Q189.02 9.46 189.86 9.46L189.86 9.46Q191.38 9.46 192.35 9.88Q193.32 10.30 193.90 11.06Q194.47 11.83 194.69 12.89Q194.90 13.94 194.90 15.24L194.90 15.24L194.90 22.37L191.33 22.37L191.33 15.67Q191.33 13.94 190.88 13.22Q190.44 12.50 189.36 12.50L189.36 12.50Q189.07 12.50 188.56 12.65Q188.04 12.79 187.70 13.01L187.70 13.01Q187.87 13.56 187.92 14.17Q187.97 14.78 187.97 15.48L187.97 15.48L187.97 22.37L184.39 22.37ZM202.97 19.87L202.97 19.87Q203.50 19.87 203.98 19.85Q204.46 19.82 204.74 19.78L204.74 19.78L204.74 17.06Q204.53 17.02 204.10 16.97Q203.66 16.92 203.30 16.92L203.30 16.92Q202.80 16.92 202.36 16.98Q201.91 17.04 201.58 17.21Q201.24 17.38 201.05 17.66Q200.86 17.95 200.86 18.38L200.86 18.38Q200.86 19.22 201.42 19.55Q201.98 19.87 202.97 19.87ZM202.68 9.41L202.68 9.41Q204.26 9.41 205.32 9.77Q206.38 10.13 207.01 10.80Q207.65 11.47 207.91 12.43Q208.18 13.39 208.18 14.57L208.18 14.57L208.18 22.01Q207.41 22.18 206.04 22.40Q204.67 22.63 202.73 22.63L202.73 22.63Q201.50 22.63 200.51 22.42Q199.51 22.20 198.79 21.71Q198.07 21.22 197.69 20.42Q197.30 19.63 197.30 18.48L197.30 18.48Q197.30 17.38 197.75 16.61Q198.19 15.84 198.94 15.38Q199.68 14.93 200.64 14.72Q201.60 14.52 202.63 14.52L202.63 14.52Q203.33 14.52 203.87 14.58Q204.41 14.64 204.74 14.74L204.74 14.74L204.74 14.40Q204.74 13.49 204.19 12.94Q203.64 12.38 202.27 12.38L202.27 12.38Q201.36 12.38 200.47 12.52Q199.58 12.65 198.94 12.89L198.94 12.89L198.48 10.01Q198.79 9.91 199.26 9.80Q199.73 9.70 200.28 9.61Q200.83 9.53 201.44 9.47Q202.06 9.41 202.68 9.41ZM216.96 19.66L216.46 22.61Q214.90 22.58 213.92 22.27Q212.95 21.96 212.39 21.40Q211.82 20.83 211.62 20.03Q211.42 19.22 211.42 18.22L211.42 18.22L211.42 4.32L214.99 3.74L214.99 17.50Q214.99 17.98 215.06 18.36Q215.14 18.74 215.34 19.01Q215.54 19.27 215.93 19.44Q216.31 19.61 216.96 19.66L216.96 19.66Z"/></svg>