<svg xmlns="http://www.w3.org/2000/svg" xmlns:xlink="http://www.w3.org/1999/xlink" width="250.32421875" height="27.22265625"><path fill="black" d="M0.88 19.75L0.45 19.75L0.45 18.95Q1.92 18.66 1.92 18.29L1.92 18.29L1.92 7.30Q1.50 7.36 1.13 7.41Q0.75 7.46 0.45 7.50L0.45 7.50L0.30 6.49Q1.02 6.32 2.06 6.17Q3.11 6.02 4.22 5.94Q5.33 5.85 6.27 5.85L6.27 5.85Q9.60 5.85 11.41 7.59Q13.22 9.34 13.22 12.47L13.22 12.47Q13.22 14.48 12.63 15.88Q12.05 17.27 11.09 18.13Q10.13 18.98 8.98 19.37Q7.83 19.75 6.71 19.75L6.71 19.75L5.82 19.75Q4.56 19.75 3.46 19.75Q2.37 19.75 0.88 19.75L0.88 19.75ZM6.30 18.60L6.30 18.60Q6.91 18.60 7.61 18.27Q8.30 17.94 8.90 17.25Q9.50 16.56 9.88 15.47Q10.27 14.39 10.27 12.88L10.27 12.88Q10.27 10.02 9.04 8.52Q7.82 7.02 5.48 7.02L5.48 7.02Q5.30 7.02 5.09 7.02Q4.89 7.02 4.68 7.03L4.68 7.03L4.68 17.92Q4.68 18.34 5.17 18.47Q5.66 18.60 6.30 18.60ZM24.89 17.70L25.14 18.53Q24.53 18.95 23.87 19.29Q23.21 19.64 22.67 19.85Q22.13 20.06 21.86 20.06L21.86 20.06Q21.41 20.06 21.12 19.51Q20.84 18.95 20.84 17.99L20.84 17.99L20.84 12.36Q20.84 11.68 20.54 11.25Q20.25 10.82 19.45 10.82L19.45 10.82Q18.95 10.83 18.50 11.19Q18.06 11.55 18.12 12.21L18.12 12.21Q18.13 12.30 17.75 12.46Q17.37 12.62 16.83 12.77Q16.30 12.93 15.84 13.02Q15.39 13.11 15.26 13.08L15.26 13.08L15.01 12.48Q15.36 11.63 16.22 10.92Q17.09 10.22 18.23 9.81Q19.37 9.40 20.58 9.40L20.58 9.40Q22.09 9.40 22.79 10.15Q23.48 10.90 23.48 12L23.48 12L23.48 17.14Q23.48 17.98 23.92 17.98L23.92 17.98Q24.07 17.98 24.26 17.92Q24.46 17.87 24.89 17.70L24.89 17.70ZM20.94 13.59L20.94 14.67Q19.62 14.88 19.07 15.08Q18.52 15.28 18.22 15.56L18.22 15.56Q17.95 15.86 17.78 16.17Q17.60 16.49 17.60 16.95L17.60 16.95Q17.60 17.66 17.96 17.91Q18.32 18.15 18.60 18.15L18.60 18.15Q19.01 18.15 19.55 17.92Q20.09 17.70 20.94 16.96L20.94 16.96L21.02 18.18Q20.02 19.28 19.01 19.67Q18 20.06 17.27 20.06L17.27 20.06Q16.66 20.06 16.10 19.79Q15.54 19.51 15.17 18.96Q14.80 18.41 14.80 17.57L14.80 17.57Q14.80 16.85 15.07 16.34Q15.34 15.83 15.73 15.43L15.73 15.43Q16.08 15.08 16.61 14.77Q17.14 14.45 18.15 14.16Q19.16 13.86 20.94 13.59L20.94 13.59ZM30.34 6.15L30.34 6.15Q30.34 6.89 29.81 7.35Q29.29 7.80 28.49 7.80L28.49 7.80Q27.89 7.80 27.44 7.51Q26.99 7.22 26.99 6.60L26.99 6.60Q26.99 5.85 27.52 5.40Q28.05 4.96 28.82 4.96L28.82 4.96Q29.41 4.96 29.88 5.24Q30.34 5.52 30.34 6.15ZM31.35 19.75L25.86 19.75L25.86 18.95Q26.59 18.80 26.94 18.62Q27.28 18.43 27.28 18.29L27.28 18.29L27.28 12.80Q27.28 12.06 27.22 11.68Q27.15 11.31 26.86 11.16Q26.57 11.02 25.86 10.95L25.86 10.95L25.86 10.18Q26.80 10.04 27.64 9.86Q28.48 9.67 29.23 9.40L29.23 9.40L29.93 9.40L29.93 18.29Q29.93 18.42 30.25 18.61Q30.57 18.80 31.35 18.95L31.35 18.95L31.35 19.75ZM49.85 15.91L49.85 15.91Q49.85 17.75 48.36 18.82Q46.86 19.89 44.23 19.89L44.23 19.89Q43.50 19.89 42.56 19.86Q41.63 19.84 40.66 19.80Q39.70 19.77 38.93 19.75L38.93 19.75L42.18 18.45Q42.52 18.61 42.93 18.67Q43.34 18.73 43.83 18.73L43.83 18.73Q45.38 18.73 46.17 18.02Q46.96 17.32 46.96 16.10L46.96 16.10Q46.96 15.32 46.67 14.57Q46.38 13.83 45.68 13.35Q44.98 12.87 43.72 12.87L43.72 12.87Q43.01 12.87 42.55 12.94Q42.09 13.02 41.70 13.13L41.70 13.13L41.59 11.75L42.48 11.75Q43.91 11.75 44.63 11.40Q45.35 11.04 45.61 10.47Q45.87 9.90 45.87 9.28L45.87 9.28Q45.87 8.20 45.18 7.61Q44.48 7.02 42.66 7.02L42.66 7.02Q42.09 7.02 41.24 7.07Q40.38 7.13 39.52 7.21Q38.66 7.30 38.05 7.43L38.05 7.43L37.91 6.49Q38.55 6.33 39.50 6.18Q40.45 6.04 41.47 5.94Q42.48 5.85 43.35 5.85L43.35 5.85Q45.84 5.85 47.25 6.62Q48.66 7.39 48.66 8.75L48.66 8.75Q48.66 9.91 48.03 10.75Q47.40 11.58 46.16 11.95L46.16 11.95Q47.81 12.22 48.83 13.32Q49.85 14.41 49.85 15.91ZM43.59 19.75L38.05 19.75L38.05 18.95Q39.53 18.66 39.53 18.29L39.53 18.29L39.53 6.70L42.28 6.48L42.28 18.36Q42.28 18.50 42.54 18.70Q42.81 18.89 43.59 19.02L43.59 19.02L43.59 19.75ZM61.71 17.70L61.96 18.53Q61.35 18.95 60.69 19.29Q60.04 19.64 59.49 19.85Q58.95 20.06 58.68 20.06L58.68 20.06Q58.23 20.06 57.94 19.51Q57.66 18.95 57.66 17.99L57.66 17.99L57.66 12.36Q57.66 11.68 57.36 11.25Q57.07 10.82 56.27 10.82L56.27 10.82Q55.77 10.83 55.32 11.19Q54.88 11.55 54.94 12.21L54.94 12.21Q54.95 12.30 54.57 12.46Q54.19 12.62 53.65 12.77Q53.12 12.93 52.66 13.02Q52.21 13.11 52.08 13.08L52.08 13.08L51.83 12.48Q52.18 11.63 53.04 10.92Q53.91 10.22 55.05 9.81Q56.19 9.40 57.40 9.40L57.40 9.40Q58.91 9.40 59.61 10.15Q60.30 10.90 60.30 12L60.30 12L60.30 17.14Q60.30 17.98 60.74 17.98L60.74 17.98Q60.89 17.98 61.08 17.92Q61.28 17.87 61.71 17.70L61.71 17.70ZM57.76 13.59L57.76 14.67Q56.44 14.88 55.89 15.08Q55.34 15.28 55.04 15.56L55.04 15.56Q54.77 15.86 54.60 16.17Q54.42 16.49 54.42 16.95L54.42 16.95Q54.42 17.66 54.78 17.91Q55.14 18.15 55.42 18.15L55.42 18.15Q55.83 18.15 56.37 17.92Q56.91 17.70 57.76 16.96L57.76 16.96L57.84 18.18Q56.84 19.28 55.83 19.67Q54.82 20.06 54.09 20.06L54.09 20.06Q53.48 20.06 52.92 19.79Q52.36 19.51 51.99 18.96Q51.62 18.41 51.62 17.57L51.62 17.57Q51.62 16.85 51.89 16.34Q52.16 15.83 52.55 15.43L52.55 15.43Q52.90 15.08 53.43 14.77Q53.96 14.45 54.97 14.16Q55.98 13.86 57.76 13.59L57.76 13.59ZM74.64 19.75L69.15 19.75L69.15 18.95Q69.93 18.74 70.25 18.59Q70.57 18.43 70.57 18.29L70.57 18.29L70.57 13.44Q70.57 12.27 70.32 11.84Q70.08 11.40 69.45 11.40L69.45 11.40Q68.95 11.40 68.30 11.68Q67.64 11.96 66.59 12.80L66.59 12.80L66.59 18.29Q66.59 18.66 68.03 18.95L68.03 18.95L68.03 19.75L62.52 19.75L62.52 18.95Q63.94 18.57 63.94 18.29L63.94 18.29L63.94 12.35Q63.94 11.78 63.88 11.51Q63.82 11.25 63.52 11.14Q63.22 11.04 62.52 10.95L62.52 10.95L62.52 10.18Q63.56 10.07 64.37 9.88Q65.18 9.69 65.98 9.40L65.98 9.40L66.42 9.87L66.54 11.34Q67.82 10.29 68.91 9.84Q70.00 9.40 70.83 9.40L70.83 9.40Q71.77 9.40 72.49 10.03Q73.22 10.66 73.22 12.20L73.22 12.20L73.22 18.29Q73.22 18.43 73.51 18.58Q73.80 18.73 74.64 18.95L74.64 18.95L74.64 19.75ZM87.50 19.75L82.02 19.75L82.02 18.95Q82.79 18.74 83.12 18.59Q83.44 18.43 83.44 18.29L83.44 18.29L83.44 13.44Q83.44 12.27 83.19 11.84Q82.95 11.40 82.31 11.40L82.31 11.40Q81.82 11.40 81.16 11.68Q80.51 11.96 79.45 12.80L79.45 12.80L79.45 18.29Q79.45 18.66 80.89 18.95L80.89 18.95L80.89 19.75L75.39 19.75L75.39 18.95Q76.80 18.57 76.80 18.29L76.80 18.29L76.80 12.35Q76.80 11.78 76.75 11.51Q76.69 11.25 76.39 11.14Q76.09 11.04 75.39 10.95L75.39 10.95L75.39 10.18Q76.43 10.07 77.24 9.88Q78.05 9.69 78.84 9.40L78.84 9.40L79.29 9.87L79.41 11.34Q80.68 10.29 81.77 9.84Q82.86 9.40 83.70 9.40L83.70 9.40Q84.63 9.40 85.36 10.03Q86.09 10.66 86.09 12.20L86.09 12.20L86.09 18.29Q86.09 18.43 86.38 18.58Q86.67 18.73 87.50 18.95L87.50 18.95L87.50 19.75ZM98.52 17.70L98.77 18.53Q98.16 18.95 97.50 19.29Q96.84 19.64 96.30 19.85Q95.75 20.06 95.48 20.06L95.48 20.06Q95.04 20.06 94.75 19.51Q94.46 18.95 94.46 17.99L94.46 17.99L94.46 12.36Q94.46 11.68 94.17 11.25Q93.88 10.82 93.08 10.82L93.08 10.82Q92.58 10.83 92.13 11.19Q91.69 11.55 91.75 12.21L91.75 12.21Q91.76 12.30 91.38 12.46Q91.00 12.62 90.46 12.77Q89.93 12.93 89.47 13.02Q89.02 13.11 88.89 13.08L88.89 13.08L88.64 12.48Q88.99 11.63 89.85 10.92Q90.71 10.22 91.86 9.81Q93 9.40 94.21 9.40L94.21 9.40Q95.72 9.40 96.42 10.15Q97.11 10.90 97.11 12L97.11 12L97.11 17.14Q97.11 17.98 97.55 17.98L97.55 17.98Q97.70 17.98 97.89 17.92Q98.09 17.87 98.52 17.70L98.52 17.70ZM94.57 13.59L94.57 14.67Q93.25 14.88 92.70 15.08Q92.14 15.28 91.85 15.56L91.85 15.56Q91.58 15.86 91.41 16.17Q91.23 16.49 91.23 16.95L91.23 16.95Q91.23 17.66 91.59 17.91Q91.95 18.15 92.23 18.15L92.23 18.15Q92.64 18.15 93.18 17.92Q93.71 17.70 94.57 16.96L94.57 16.96L94.65 18.18Q93.64 19.28 92.64 19.67Q91.63 20.06 90.90 20.06L90.90 20.06Q90.29 20.06 89.73 19.79Q89.17 19.51 88.80 18.96Q88.43 18.41 88.43 17.57L88.43 17.57Q88.43 16.85 88.70 16.34Q88.97 15.83 89.36 15.43L89.36 15.43Q89.71 15.08 90.24 14.77Q90.77 14.45 91.78 14.16Q92.79 13.86 94.57 13.59L94.57 13.59ZM113.45 8.96L113.45 8.96L112.72 8.89Q112.27 7.88 111.54 7.48Q110.81 7.09 110.20 7.09L110.20 7.09Q109.14 7.09 108.66 7.60Q108.19 8.11 108.19 8.73L108.19 8.73Q108.19 9.41 108.69 9.90Q109.18 10.39 109.96 10.80Q110.74 11.20 111.62 11.63Q112.50 12.06 113.28 12.59Q114.06 13.13 114.56 13.88Q115.05 14.63 115.05 15.69L115.05 15.69Q115.05 16.64 114.47 17.65Q113.88 18.67 112.69 19.37Q111.49 20.06 109.64 20.06L109.64 20.06Q109.14 20.06 108.43 19.93Q107.72 19.80 107.02 19.57Q106.31 19.34 105.80 19.02L105.80 19.02Q105.73 18.98 105.69 18.60Q105.64 18.22 105.65 17.68Q105.66 17.13 105.71 16.56Q105.77 15.98 105.89 15.56L105.89 15.56L106.66 15.62Q107.16 16.89 108.07 17.70Q108.98 18.52 110.09 18.52L110.09 18.52Q111.06 18.52 111.81 17.99Q112.56 17.46 112.56 16.43L112.56 16.43Q112.56 15.56 112.07 14.98Q111.57 14.40 110.80 13.98Q110.03 13.56 109.15 13.17Q108.28 12.79 107.51 12.31Q106.73 11.84 106.24 11.14Q105.75 10.45 105.75 9.41L105.75 9.41Q105.75 8.91 106.04 8.30Q106.34 7.69 106.94 7.13Q107.54 6.56 108.49 6.21Q109.44 5.85 110.75 5.85L110.75 5.85Q111.93 5.85 112.96 6.13Q113.99 6.41 114.39 6.83L114.39 6.83Q114.46 6.90 114.38 7.19Q114.29 7.48 114.12 7.85Q113.95 8.21 113.77 8.53Q113.59 8.85 113.45 8.96ZM122.32 19.75L116.60 19.75L116.60 18.95Q118.07 18.66 118.07 18.29L118.07 18.29L118.07 7.64Q118.07 7.51 117.72 7.32Q117.38 7.13 116.60 6.97L116.60 6.97L116.60 6.16L122.32 6.16L122.32 6.97Q120.83 7.28 120.83 7.64L120.83 7.64L120.83 18.29Q120.83 18.42 121.18 18.61Q121.54 18.80 122.32 18.95L122.32 18.95L122.32 19.75ZM133.43 16.16L134.23 16.43Q134.18 17.05 134.09 17.74Q134.00 18.43 133.92 18.98Q133.84 19.54 133.78 19.75L133.78 19.75L123.64 19.75L123.64 18.95Q125.12 18.66 125.12 18.29L125.12 18.29L125.12 7.64Q125.12 7.51 124.78 7.32Q124.43 7.13 123.64 6.97L123.64 6.97L123.64 6.16L129.35 6.16L129.35 6.97Q127.88 7.29 127.88 7.64L127.88 7.64L127.88 17.65Q127.88 18.02 128.29 18.23Q128.71 18.45 129.88 18.45L129.88 18.45L131.09 18.45Q132.08 18.45 132.52 17.93Q132.96 17.41 133.43 16.16L133.43 16.16ZM145.82 19.95L145.82 19.95Q143.66 19.95 142.31 17.91Q140.96 15.88 140.96 11.85L140.96 11.85Q140.96 8.46 141.70 6.33Q142.44 4.20 143.70 3.19Q144.96 2.18 146.52 2.18L146.52 2.18Q147.57 2.18 148.51 2.70Q149.45 3.21 150 4.04L150 4.04Q150.11 4.20 149.94 4.49Q149.77 4.78 149.21 5.16L149.21 5.16Q148.56 5.59 148.28 5.57Q148.01 5.54 148.00 5.29L148.00 5.29Q147.93 4.75 147.74 4.20Q147.56 3.66 147.23 3.29Q146.89 2.93 146.38 2.93L146.38 2.93Q145.10 2.93 144.49 4.50Q143.88 6.07 143.78 9.29L143.78 9.29Q144.19 8.93 144.71 8.67Q145.24 8.40 145.82 8.40L145.82 8.40Q147.12 8.40 148.04 8.90Q148.97 9.40 149.55 10.22Q150.13 11.04 150.40 12.01Q150.67 12.98 150.67 13.93L150.67 13.93Q150.67 14.96 150.39 16.02Q150.11 17.07 149.51 17.96Q148.92 18.86 148.00 19.40Q147.08 19.95 145.82 19.95ZM145.82 19.20L145.82 19.20Q146.45 19.20 146.86 18.71Q147.27 18.22 147.49 17.43Q147.71 16.64 147.81 15.72Q147.90 14.80 147.90 13.93L147.90 13.93Q147.90 13.17 147.81 12.34Q147.71 11.51 147.49 10.78Q147.26 10.05 146.85 9.60Q146.45 9.15 145.82 9.15L145.82 9.15Q144.95 9.15 144.39 10.21Q143.84 11.27 143.75 13.00L143.75 13.00Q143.78 16.02 144.25 17.61Q144.71 19.20 145.82 19.20ZM157.02 19.95L157.02 19.95Q155.73 19.95 154.80 19.15Q153.88 18.35 153.30 17.04Q152.72 15.74 152.44 14.17Q152.17 12.61 152.17 11.07L152.17 11.07Q152.17 9.39 152.46 7.80Q152.75 6.21 153.36 4.95Q153.96 3.68 154.87 2.94Q155.78 2.19 157.02 2.19L157.02 2.19Q158.39 2.19 159.33 2.93Q160.27 3.67 160.82 4.93Q161.38 6.20 161.63 7.79Q161.87 9.38 161.87 11.07L161.87 11.07Q161.87 12.60 161.64 14.16Q161.41 15.73 160.87 17.03Q160.32 18.34 159.39 19.14Q158.45 19.95 157.02 19.95ZM157.02 19.20L157.02 19.20Q157.84 19.20 158.30 18.16Q158.75 17.13 158.94 15.30Q159.13 13.46 159.13 11.07L159.13 11.07Q159.13 8.61 158.96 6.79Q158.79 4.96 158.33 3.95Q157.88 2.94 157.02 2.94L157.02 2.94Q156.22 2.94 155.77 3.95Q155.31 4.96 155.12 6.79Q154.93 8.61 154.93 11.07L154.93 11.07Q154.93 13.54 155.12 15.36Q155.30 17.18 155.75 18.19Q156.21 19.20 157.02 19.20ZM168.22 19.95L168.22 19.95Q166.93 19.95 166.01 19.15Q165.08 18.35 164.50 17.04Q163.92 15.74 163.65 14.17Q163.37 12.61 163.37 11.07L163.37 11.07Q163.37 9.39 163.66 7.80Q163.96 6.21 164.56 4.95Q165.16 3.68 166.07 2.94Q166.98 2.19 168.22 2.19L168.22 2.19Q169.59 2.19 170.53 2.93Q171.47 3.67 172.03 4.93Q172.58 6.20 172.83 7.79Q173.07 9.38 173.07 11.07L173.07 11.07Q173.07 12.60 172.85 14.16Q172.62 15.73 172.07 17.03Q171.53 18.34 170.59 19.14Q169.65 19.95 168.22 19.95ZM168.22 19.20L168.22 19.20Q169.04 19.20 169.50 18.16Q169.96 17.13 170.14 15.30Q170.33 13.46 170.33 11.07L170.33 11.07Q170.33 8.61 170.16 6.79Q169.99 4.96 169.54 3.95Q169.08 2.94 168.22 2.94L168.22 2.94Q167.43 2.94 166.97 3.95Q166.51 4.96 166.32 6.79Q166.14 8.61 166.14 11.07L166.14 11.07Q166.14 13.54 166.32 15.36Q166.50 17.18 166.96 18.19Q167.41 19.20 168.22 19.20ZM192.19 19.75L186.70 19.75L186.70 18.95Q187.48 18.74 187.80 18.59Q188.12 18.43 188.12 18.29L188.12 18.29L188.12 13.44Q188.12 12.27 187.88 11.84Q187.63 11.40 187.00 11.40L187.00 11.40Q186.50 11.40 185.85 11.68Q185.19 11.96 184.14 12.80L184.14 12.80L184.14 18.29Q184.14 18.66 185.58 18.95L185.58 18.95L185.58 19.75L180.07 19.75L180.07 18.95Q181.49 18.57 181.49 18.29L181.49 18.29L181.49 12.35Q181.49 11.78 181.43 11.51Q181.37 11.25 181.07 11.14Q180.77 11.04 180.07 10.95L180.07 10.95L180.07 10.18Q181.11 10.07 181.92 9.88Q182.73 9.69 183.53 9.40L183.53 9.40L183.97 9.87L184.09 11.34Q185.37 10.29 186.46 9.84Q187.55 9.40 188.38 9.40L188.38 9.40Q189.32 9.40 190.04 10.03Q190.77 10.66 190.77 12.20L190.77 12.20L190.77 18.29Q190.77 18.43 191.06 18.58Q191.36 18.73 192.19 18.95L192.19 18.95L192.19 19.75ZM203.37 14.52L203.37 14.52Q203.37 15.60 202.95 16.59Q202.52 17.59 201.78 18.37Q201.04 19.15 200.07 19.61Q199.11 20.06 198.02 20.06L198.02 20.06Q196.55 20.06 195.44 19.40Q194.33 18.74 193.72 17.58Q193.11 16.43 193.11 14.96L193.11 14.96Q193.11 13.54 193.80 12.26Q194.48 10.99 195.69 10.20Q196.89 9.40 198.45 9.40L198.45 9.40Q199.93 9.40 201.04 10.07Q202.15 10.73 202.76 11.89Q203.37 13.04 203.37 14.52ZM200.57 15.02L200.57 15.02Q200.57 13.89 200.27 12.91Q199.98 11.94 199.44 11.35Q198.89 10.76 198.15 10.76L198.15 10.76Q197.27 10.76 196.79 11.27Q196.30 11.79 196.11 12.67Q195.91 13.55 195.91 14.65L195.91 14.65Q195.91 15.79 196.24 16.71Q196.57 17.63 197.12 18.17Q197.67 18.71 198.33 18.71L198.33 18.71Q199.61 18.71 200.09 17.76Q200.57 16.80 200.57 15.02ZM213.55 9.89L213.55 9.89Q213.66 9.95 213.61 10.41Q213.56 10.88 213.43 11.50Q213.29 12.13 213.13 12.71Q212.96 13.29 212.82 13.58L212.82 13.58L212.02 13.58Q211.96 12.71 211.65 12.07Q211.35 11.43 210.82 11.43L210.82 11.43Q210.41 11.43 209.84 11.79Q209.27 12.16 208.62 13.55L208.62 13.55L208.62 18.29Q208.62 18.45 209.07 18.62Q209.52 18.80 210.53 18.95L210.53 18.95L210.53 19.75L204.55 19.75L204.55 18.95Q205.97 18.63 205.97 18.29L205.97 18.29L205.97 12.62Q205.97 11.91 205.89 11.63Q205.82 11.34 205.72 11.24L205.72 11.24Q205.57 11.11 205.36 11.05Q205.15 10.99 204.55 10.95L204.55 10.95L204.55 10.18Q205.36 10.05 205.90 9.96Q206.44 9.86 206.91 9.73Q207.39 9.60 208.01 9.40L208.01 9.40L208.45 9.87L208.59 11.37Q209.18 10.56 210.04 9.98Q210.90 9.40 211.84 9.40L211.84 9.40Q212.71 9.40 213.55 9.89ZM232.36 19.75L226.93 19.75L226.93 18.95Q227.72 18.74 227.95 18.59Q228.19 18.43 228.19 18.29L228.19 18.29L228.19 13.27Q228.19 12.39 228.06 11.96Q227.94 11.54 227.69 11.42Q227.44 11.30 227.05 11.30L227.05 11.30Q226.61 11.30 225.97 11.60Q225.34 11.91 224.66 12.54L224.66 12.54L224.66 18.29Q224.66 18.43 224.91 18.58Q225.16 18.73 226.01 18.95L226.01 18.95L226.01 19.75L220.77 19.75L220.77 18.95Q221.54 18.74 221.78 18.59Q222.01 18.43 222.01 18.29L222.01 18.29L222.01 13.27Q222.01 12.39 221.91 11.96Q221.81 11.54 221.58 11.42Q221.36 11.30 220.96 11.30L220.96 11.30Q220.49 11.30 219.87 11.60Q219.26 11.89 218.47 12.54L218.47 12.54L218.47 18.29Q218.47 18.67 219.82 18.95L219.82 18.95L219.82 19.75L214.41 19.75L214.41 18.95Q215.82 18.57 215.82 18.29L215.82 18.29L215.82 12.35Q215.82 11.77 215.76 11.50Q215.70 11.24 215.40 11.14Q215.10 11.04 214.41 10.95L214.41 10.95L214.41 10.18Q215.54 10.04 216.31 9.86Q217.08 9.68 217.86 9.40L217.86 9.40L218.31 9.87L218.43 11.13Q219.66 10.08 220.52 9.74Q221.39 9.40 222.16 9.40L222.16 9.40Q223.20 9.40 223.76 9.87Q224.32 10.35 224.45 10.98L224.45 10.98L224.50 11.12Q225.71 10.10 226.59 9.75Q227.47 9.40 228.26 9.40L228.26 9.40Q229.29 9.40 230.06 10.03Q230.84 10.66 230.84 12.20L230.84 12.20L230.84 18.29Q230.84 18.43 231.17 18.58Q231.50 18.73 232.36 18.95L232.36 18.95L232.36 19.75ZM243.35 17.70L243.60 18.53Q242.99 18.95 242.33 19.29Q241.68 19.64 241.13 19.85Q240.59 20.06 240.32 20.06L240.32 20.06Q239.87 20.06 239.58 19.51Q239.30 18.95 239.30 17.99L239.30 17.99L239.30 12.36Q239.30 11.68 239.00 11.25Q238.71 10.82 237.91 10.82L237.91 10.82Q237.41 10.83 236.96 11.19Q236.52 11.55 236.58 12.21L236.58 12.21Q236.59 12.30 236.21 12.46Q235.83 12.62 235.29 12.77Q234.76 12.93 234.30 13.02Q233.85 13.11 233.72 13.08L233.72 13.08L233.47 12.48Q233.82 11.63 234.69 10.92Q235.55 10.22 236.69 9.81Q237.83 9.40 239.04 9.40L239.04 9.40Q240.55 9.40 241.25 10.15Q241.95 10.90 241.95 12L241.95 12L241.95 17.14Q241.95 17.98 242.38 17.98L242.38 17.98Q242.53 17.98 242.72 17.92Q242.92 17.87 243.35 17.70L243.35 17.70ZM239.40 13.59L239.40 14.67Q238.08 14.88 237.53 15.08Q236.98 15.28 236.68 15.56L236.68 15.56Q236.41 15.86 236.24 16.17Q236.06 16.49 236.06 16.95L236.06 16.95Q236.06 17.66 236.42 17.91Q236.78 18.15 237.06 18.15L237.06 18.15Q237.47 18.15 238.01 17.92Q238.55 17.70 239.40 16.96L239.40 16.96L239.48 18.18Q238.48 19.28 237.47 19.67Q236.46 20.06 235.73 20.06L235.73 20.06Q235.13 20.06 234.56 19.79Q234 19.51 233.63 18.96Q233.26 18.41 233.26 17.57L233.26 17.57Q233.26 16.85 233.53 16.34Q233.80 15.83 234.19 15.43L234.19 15.43Q234.54 15.08 235.07 14.77Q235.61 14.45 236.61 14.16Q237.62 13.86 239.40 13.59L239.40 13.59ZM249.94 19.75L244.22 19.75L244.22 18.95Q245.14 18.79 245.44 18.63Q245.74 18.47 245.74 18.29L245.74 18.29L245.74 6.12Q245.74 5.48 245.64 5.21Q245.53 4.93 245.23 4.84Q244.92 4.75 244.32 4.68L244.32 4.68L244.32 3.90Q245.41 3.75 246.23 3.57Q247.05 3.39 247.91 3.04L247.91 3.04L248.39 3.49L248.39 18.29Q248.39 18.45 248.72 18.62Q249.05 18.80 249.94 18.95L249.94 18.95L249.94 19.75Z"/></svg>