<svg xmlns="http://www.w3.org/2000/svg" xmlns:xlink="http://www.w3.org/1999/xlink" width="362.328" height="45.528"><path fill="black" d="M13.20 35.02L1.20 35.02L1.20 13.85L13.20 13.85L13.20 35.02ZM2.54 15.19L2.54 33.67L11.86 33.67L11.86 15.19L2.54 15.19ZM27.60 35.02L15.60 35.02L15.60 13.85L27.60 13.85L27.60 35.02ZM16.94 15.19L16.94 33.67L26.26 33.67L26.26 15.19L16.94 15.19ZM42 35.02L30 35.02L30 13.85L42 13.85L42 35.02ZM31.34 15.19L31.34 33.67L40.66 33.67L40.66 15.19L31.34 15.19ZM56.40 35.02L44.40 35.02L44.40 13.85L56.40 13.85L56.40 35.02ZM45.74 15.19L45.74 33.67L55.06 33.67L55.06 15.19L45.74 15.19ZM78.96 35.02L66.96 35.02L66.96 13.85L78.96 13.85L78.96 35.02ZM68.30 15.19L68.30 33.67L77.62 33.67L77.62 15.19L68.30 15.19ZM93.36 35.02L81.36 35.02L81.36 13.85L93.36 13.85L93.36 35.02ZM82.70 15.19L82.70 33.67L92.02 33.67L92.02 15.19L82.70 15.19ZM107.76 35.02L95.76 35.02L95.76 13.85L107.76 13.85L107.76 35.02ZM97.10 15.19L97.10 33.67L106.42 33.67L106.42 15.19L97.10 15.19ZM122.16 35.02L110.16 35.02L110.16 13.85L122.16 13.85L122.16 35.02ZM111.50 15.19L111.50 33.67L120.82 33.67L120.82 15.19L111.50 15.19ZM144.72 35.02L132.72 35.02L132.72 13.85L144.72 13.85L144.72 35.02ZM134.06 15.19L134.06 33.67L143.38 33.67L143.38 15.19L134.06 15.19ZM159.12 35.02L147.12 35.02L147.12 13.85L159.12 13.85L159.12 35.02ZM148.46 15.19L148.46 33.67L157.78 33.67L157.78 15.19L148.46 15.19ZM173.52 35.02L161.52 35.02L161.52 13.85L173.52 13.85L173.52 35.02ZM162.86 15.19L162.86 33.67L172.18 33.67L172.18 15.19L162.86 15.19ZM187.92 35.02L175.92 35.02L175.92 13.85L187.92 13.85L187.92 35.02ZM177.26 15.19L177.26 33.67L186.58 33.67L186.58 15.19L177.26 15.19ZM202.32 35.02L190.32 35.02L190.32 13.85L202.32 13.85L202.32 35.02ZM191.66 15.19L191.66 33.67L200.98 33.67L200.98 15.19L191.66 15.19ZM216.72 35.02L204.72 35.02L204.72 13.85L216.72 13.85L216.72 35.02ZM206.06 15.19L206.06 33.67L215.38 33.67L215.38 15.19L206.06 15.19ZM233.06 13.39L233.06 13.39Q234.65 13.39 235.91 13.85Q237.17 14.30 237.91 15.23Q238.66 16.15 238.66 17.54L238.66 17.54Q238.66 18.58 238.26 19.36Q237.86 20.14 237.19 20.71Q236.52 21.29 235.63 21.72L235.63 21.72Q236.50 22.20 237.31 22.82Q238.13 23.45 238.64 24.29Q239.16 25.13 239.16 26.26L239.16 26.26Q239.16 27.65 238.45 28.73Q237.74 29.81 236.38 30.41Q235.01 31.01 233.04 31.01L233.04 31.01Q229.97 31.01 228.43 29.74Q226.90 28.46 226.90 26.33L226.90 26.33Q226.90 25.15 227.33 24.31Q227.76 23.47 228.48 22.86Q229.20 22.25 230.11 21.82L230.11 21.82Q229.37 21.34 228.76 20.72Q228.14 20.11 227.78 19.32Q227.42 18.53 227.42 17.52L227.42 17.52Q227.42 16.15 228.18 15.24Q228.94 14.33 230.22 13.86Q231.50 13.39 233.06 13.39ZM230.71 26.14L230.71 26.14Q230.71 26.95 231.30 27.48Q231.89 28.01 232.99 28.01L232.99 28.01Q234.19 28.01 234.78 27.52Q235.37 27.02 235.37 26.18L235.37 26.18Q235.37 25.61 235.02 25.14Q234.67 24.67 234.18 24.32Q233.69 23.98 233.23 23.71L233.23 23.71L232.92 23.54Q232.30 23.83 231.79 24.22Q231.29 24.60 231.00 25.07Q230.71 25.54 230.71 26.14ZM233.04 16.39L233.04 16.39Q232.30 16.39 231.79 16.79Q231.29 17.18 231.29 17.88L231.29 17.88Q231.29 18.36 231.53 18.74Q231.77 19.13 232.16 19.43Q232.56 19.73 233.02 19.97L233.02 19.97Q233.47 19.75 233.87 19.48Q234.26 19.20 234.52 18.82Q234.77 18.43 234.77 17.88L234.77 17.88Q234.77 17.18 234.26 16.79Q233.76 16.39 233.04 16.39ZM253.01 22.20L253.01 22.20Q253.01 24.96 252.42 26.93Q251.83 28.90 250.50 29.95Q249.17 31.01 246.91 31.01L246.91 31.01Q243.77 31.01 242.30 28.68Q240.84 26.35 240.84 22.20L240.84 22.20Q240.84 19.42 241.42 17.45Q241.99 15.48 243.34 14.42Q244.68 13.37 246.91 13.37L246.91 13.37Q249.02 13.37 250.37 14.42Q251.71 15.48 252.36 17.45Q253.01 19.42 253.01 22.20ZM244.94 22.20L244.94 22.20Q244.94 24.94 245.35 26.32Q245.76 27.70 246.91 27.70L246.91 27.70Q248.06 27.70 248.48 26.33Q248.90 24.96 248.90 22.20L248.90 22.20Q248.90 20.38 248.72 19.15Q248.54 17.93 248.12 17.30Q247.70 16.68 246.91 16.68L246.91 16.68Q246.14 16.68 245.71 17.30Q245.28 17.93 245.11 19.15Q244.94 20.38 244.94 22.20ZM266.90 22.20L266.90 22.20Q266.90 24.96 266.32 26.93Q265.73 28.90 264.40 29.95Q263.06 31.01 260.81 31.01L260.81 31.01Q257.66 31.01 256.20 28.68Q254.74 26.35 254.74 22.20L254.74 22.20Q254.74 19.42 255.31 17.45Q255.89 15.48 257.23 14.42Q258.58 13.37 260.81 13.37L260.81 13.37Q262.92 13.37 264.26 14.42Q265.61 15.48 266.26 17.45Q266.90 19.42 266.90 22.20ZM258.84 22.20L258.84 22.20Q258.84 24.94 259.25 26.32Q259.66 27.70 260.81 27.70L260.81 27.70Q261.96 27.70 262.38 26.33Q262.80 24.96 262.80 22.20L262.80 22.20Q262.80 20.38 262.62 19.15Q262.44 17.93 262.02 17.30Q261.60 16.68 260.81 16.68L260.81 16.68Q260.04 16.68 259.61 17.30Q259.18 17.93 259.01 19.15Q258.84 20.38 258.84 22.20ZM289.13 35.02L277.13 35.02L277.13 13.85L289.13 13.85L289.13 35.02ZM278.47 15.19L278.47 33.67L287.78 33.67L287.78 15.19L278.47 15.19ZM303.53 35.02L291.53 35.02L291.53 13.85L303.53 13.85L303.53 35.02ZM292.87 15.19L292.87 33.67L302.18 33.67L302.18 15.19L292.87 15.19ZM317.93 35.02L305.93 35.02L305.93 13.85L317.93 13.85L317.93 35.02ZM307.27 15.19L307.27 33.67L316.58 33.67L316.58 15.19L307.27 15.19ZM332.33 35.02L320.33 35.02L320.33 13.85L332.33 13.85L332.33 35.02ZM321.67 15.19L321.67 33.67L330.98 33.67L330.98 15.19L321.67 15.19ZM346.73 35.02L334.73 35.02L334.73 13.85L346.73 13.85L346.73 35.02ZM336.07 15.19L336.07 33.67L345.38 33.67L345.38 15.19L336.07 15.19ZM361.13 35.02L349.13 35.02L349.13 13.85L361.13 13.85L361.13 35.02ZM350.47 15.19L350.47 33.67L359.78 33.67L359.78 15.19L350.47 15.19Z"/></svg>