<svg xmlns="http://www.w3.org/2000/svg" xmlns:xlink="http://www.w3.org/1999/xlink" width="234.3599999999999" height="31.752"><path fill="black" d="M2.16 24.43L0.94 24.43L4.51 7.63L10.56 7.63Q11.95 7.63 12.96 8.12Q13.97 8.62 14.52 9.54Q15.07 10.46 15.07 11.74L15.07 11.74Q15.07 13.10 14.50 14.21Q13.92 15.31 12.88 16.03Q11.83 16.75 10.46 16.97L10.46 16.97L12.55 24.43L11.33 24.43L9.26 17.04L3.74 17.04L2.16 24.43ZM5.50 8.76L3.98 15.91L9.36 15.91Q10.68 15.91 11.69 15.38Q12.70 14.86 13.27 13.92Q13.85 12.98 13.85 11.78L13.85 11.78Q13.85 10.37 12.92 9.56Q12 8.76 10.39 8.76L10.39 8.76L5.50 8.76ZM20.74 24.67L20.74 24.67Q19.32 24.67 18.20 24.01Q17.09 23.35 16.45 22.20Q15.82 21.05 15.82 19.61L15.82 19.61Q15.82 18.19 16.30 16.94Q16.78 15.70 17.64 14.74Q18.50 13.78 19.62 13.24Q20.74 12.70 21.98 12.70L21.98 12.70Q23.26 12.70 24.22 13.30Q25.18 13.90 25.73 14.94Q26.28 15.98 26.28 17.35L26.28 17.35Q26.28 17.74 26.26 18.11Q26.23 18.48 26.18 18.89L26.18 18.89L17.04 18.89Q16.87 20.23 17.30 21.30Q17.74 22.37 18.64 22.97Q19.54 23.57 20.76 23.57L20.76 23.57Q21.53 23.57 22.38 23.29Q23.23 23.02 24.05 22.49L24.05 22.49L24.67 23.40Q23.71 24.02 22.72 24.35Q21.72 24.67 20.74 24.67ZM17.23 17.90L17.23 17.90L25.10 17.90Q25.22 16.75 24.85 15.82Q24.48 14.88 23.74 14.34Q22.99 13.80 21.91 13.80L21.91 13.80Q20.86 13.80 19.91 14.33Q18.96 14.86 18.26 15.78Q17.57 16.70 17.23 17.90ZM33.36 24.62L33.36 24.62Q32.02 24.62 30.96 23.95Q29.90 23.28 29.29 22.10Q28.68 20.93 28.68 19.42L28.68 19.42Q28.68 18.05 29.15 16.84Q29.62 15.62 30.44 14.71Q31.27 13.80 32.35 13.27Q33.43 12.74 34.68 12.74L34.68 12.74Q35.81 12.74 36.80 13.21Q37.80 13.68 38.47 14.66L38.47 14.66L40.06 7.03L41.28 6.74L37.58 24.43L36.41 24.43L36.65 23.35Q35.93 24.00 35.10 24.31Q34.27 24.62 33.36 24.62ZM33.70 23.57L33.70 23.57Q35.50 23.57 36.86 22.32L36.86 22.32L38.23 15.82Q37.78 14.93 36.84 14.39Q35.90 13.85 34.80 13.85L34.80 13.85Q33.43 13.85 32.32 14.58Q31.20 15.31 30.53 16.55Q29.86 17.78 29.86 19.32L29.86 19.32Q29.86 21.22 30.94 22.39Q32.02 23.57 33.70 23.57ZM48.58 24.43L47.35 24.43L50.93 7.63L52.15 7.63L50.50 15.41L60.70 15.41L62.35 7.63L63.58 7.63L60 24.43L58.78 24.43L60.46 16.54L50.26 16.54L48.58 24.43ZM67.90 24.67L67.90 24.67Q66.17 24.67 65.09 23.74Q64.01 22.80 64.01 21.31L64.01 21.31Q64.01 20.23 64.56 19.42Q65.11 18.60 66.10 18.13Q67.08 17.66 68.33 17.66L68.33 17.66Q69.55 17.66 70.61 17.99Q71.66 18.31 72.36 18.96L72.36 18.96L72.72 17.33Q73.10 15.60 72.48 14.65Q71.86 13.70 69.98 13.70L69.98 13.70Q69.24 13.70 68.42 13.93Q67.61 14.16 66.55 14.64L66.55 14.64L66.12 13.68Q67.25 13.15 68.21 12.92Q69.17 12.70 70.06 12.70L70.06 12.70Q71.45 12.70 72.43 13.18Q73.42 13.66 73.84 14.64Q74.26 15.62 73.92 17.11L73.92 17.11L72.29 24.43L71.14 24.43L71.38 23.33Q70.58 23.98 69.72 24.32Q68.86 24.67 67.90 24.67ZM68.11 23.66L68.11 23.66Q69.12 23.66 69.97 23.29Q70.82 22.92 71.62 22.25L71.62 22.25L72.14 19.90Q71.45 19.27 70.56 18.97Q69.67 18.67 68.42 18.67L68.42 18.67Q67.03 18.67 66.08 19.39Q65.14 20.11 65.14 21.19L65.14 21.19Q65.14 22.30 65.88 22.98Q66.62 23.66 68.11 23.66ZM79.66 24.67L79.66 24.67Q78.19 24.67 77.59 23.83Q76.99 22.99 77.26 21.70L77.26 21.70L78.91 13.92L76.56 13.92L76.78 12.89L79.13 12.89L79.80 9.74L81.05 9.43L80.30 12.89L83.64 12.89L83.42 13.92L80.09 13.92L78.46 21.62Q78.24 22.66 78.60 23.11Q78.96 23.57 80.09 23.57L80.09 23.57Q80.40 23.57 80.69 23.51Q80.98 23.45 81.41 23.33L81.41 23.33L81.17 24.43Q80.78 24.55 80.41 24.61Q80.04 24.67 79.66 24.67ZM94.85 24.43L93.62 24.43L96.96 8.76L91.20 8.76L91.44 7.63L104.18 7.63L103.94 8.76L98.18 8.76L94.85 24.43ZM106.90 24.67L106.90 24.67Q105.48 24.67 104.36 24.01Q103.25 23.35 102.61 22.20Q101.98 21.05 101.98 19.61L101.98 19.61Q101.98 18.19 102.46 16.94Q102.94 15.70 103.80 14.74Q104.66 13.78 105.78 13.24Q106.90 12.70 108.14 12.70L108.14 12.70Q109.42 12.70 110.38 13.30Q111.34 13.90 111.89 14.94Q112.44 15.98 112.44 17.35L112.44 17.35Q112.44 17.74 112.42 18.11Q112.39 18.48 112.34 18.89L112.34 18.89L103.20 18.89Q103.03 20.23 103.46 21.30Q103.90 22.37 104.80 22.97Q105.70 23.57 106.92 23.57L106.92 23.57Q107.69 23.57 108.54 23.29Q109.39 23.02 110.21 22.49L110.21 22.49L110.83 23.40Q109.87 24.02 108.88 24.35Q107.88 24.67 106.90 24.67ZM103.39 17.90L103.39 17.90L111.26 17.90Q111.38 16.75 111.01 15.82Q110.64 14.88 109.90 14.34Q109.15 13.80 108.07 13.80L108.07 13.80Q107.02 13.80 106.07 14.33Q105.12 14.86 104.42 15.78Q103.73 16.70 103.39 17.90ZM113.38 24.43L111.91 24.43L117.70 18.34L114.84 12.89L116.16 12.89L118.51 17.54L122.90 12.89L124.37 12.89L119.02 18.53L122.06 24.43L120.74 24.43L118.18 19.32L113.38 24.43ZM128.18 24.67L128.18 24.67Q126.72 24.67 126.12 23.83Q125.52 22.99 125.78 21.70L125.78 21.70L127.44 13.92L125.09 13.92L125.30 12.89L127.66 12.89L128.33 9.74L129.58 9.43L128.83 12.89L132.17 12.89L131.95 13.92L128.62 13.92L126.98 21.62Q126.77 22.66 127.13 23.11Q127.49 23.57 128.62 23.57L128.62 23.57Q128.93 23.57 129.22 23.51Q129.50 23.45 129.94 23.33L129.94 23.33L129.70 24.43Q129.31 24.55 128.94 24.61Q128.57 24.67 128.18 24.67ZM143.45 24.70L143.45 24.70Q141.74 24.70 140.36 24.00Q138.98 23.30 137.78 21.86L137.78 21.86L138.70 21.07Q139.70 22.37 140.92 22.99Q142.13 23.62 143.64 23.62L143.64 23.62Q144.94 23.62 145.92 23.12Q146.90 22.63 147.46 21.74Q148.01 20.86 148.01 19.73L148.01 19.73Q148.01 18.72 147.52 17.95Q147.02 17.18 146.18 16.74Q145.34 16.30 144.24 16.30L144.24 16.30L142.90 16.30L143.11 15.24L145.13 15.24Q146.18 15.24 147.06 14.76Q147.94 14.28 148.46 13.48Q148.99 12.67 148.99 11.71L148.99 11.71Q148.99 10.25 147.95 9.35Q146.90 8.45 145.20 8.45L145.20 8.45Q143.93 8.45 142.96 8.81Q141.98 9.17 140.93 10.06L140.93 10.06L140.26 9.22Q141.24 8.28 142.46 7.82Q143.69 7.37 145.15 7.37L145.15 7.37Q146.66 7.37 147.80 7.90Q148.94 8.42 149.58 9.35Q150.22 10.27 150.22 11.52L150.22 11.52Q150.22 13.10 149.29 14.23Q148.37 15.36 146.57 15.98L146.57 15.98Q147.77 16.42 148.50 17.38Q149.23 18.34 149.23 19.54L149.23 19.54Q149.23 21.02 148.49 22.20Q147.74 23.38 146.44 24.04Q145.13 24.70 143.45 24.70ZM160.13 7.37L160.13 7.37Q161.69 7.37 162.90 8.14Q164.11 8.90 164.82 10.42Q165.53 11.93 165.53 14.16L165.53 14.16Q165.53 16.44 164.92 18.37Q164.30 20.30 163.25 21.72Q162.19 23.14 160.88 23.92Q159.58 24.70 158.16 24.70L158.16 24.70Q156.62 24.70 155.40 23.93Q154.18 23.16 153.47 21.65Q152.76 20.14 152.76 17.90L152.76 17.90Q152.76 15.62 153.37 13.69Q153.98 11.76 155.04 10.34Q156.10 8.93 157.42 8.15Q158.74 7.37 160.13 7.37ZM160.18 8.47L160.18 8.47Q158.98 8.47 157.86 9.18Q156.74 9.89 155.87 11.16Q154.99 12.43 154.49 14.12Q153.98 15.82 153.98 17.81L153.98 17.81Q153.98 20.59 155.14 22.09Q156.29 23.59 158.11 23.59L158.11 23.59Q159.31 23.59 160.43 22.88Q161.54 22.18 162.42 20.90Q163.30 19.63 163.80 17.93Q164.30 16.22 164.30 14.26L164.30 14.26Q164.30 11.47 163.15 9.97Q162.00 8.47 160.18 8.47ZM175.68 7.37L175.68 7.37Q177.24 7.37 178.45 8.14Q179.66 8.90 180.37 10.42Q181.08 11.93 181.08 14.16L181.08 14.16Q181.08 16.44 180.47 18.37Q179.86 20.30 178.80 21.72Q177.74 23.14 176.44 23.92Q175.13 24.70 173.71 24.70L173.71 24.70Q172.18 24.70 170.95 23.93Q169.73 23.16 169.02 21.65Q168.31 20.14 168.31 17.90L168.31 17.90Q168.31 15.62 168.92 13.69Q169.54 11.76 170.59 10.34Q171.65 8.93 172.97 8.15Q174.29 7.37 175.68 7.37ZM175.73 8.47L175.73 8.47Q174.53 8.47 173.41 9.18Q172.30 9.89 171.42 11.16Q170.54 12.43 170.04 14.12Q169.54 15.82 169.54 17.81L169.54 17.81Q169.54 20.59 170.69 22.09Q171.84 23.59 173.66 23.59L173.66 23.59Q174.86 23.59 175.98 22.88Q177.10 22.18 177.97 20.90Q178.85 19.63 179.35 17.93Q179.86 16.22 179.86 14.26L179.86 14.26Q179.86 11.47 178.70 9.97Q177.55 8.47 175.73 8.47ZM192.02 9.86L192.02 9.86Q191.62 9.86 191.33 9.56Q191.04 9.26 191.04 8.83L191.04 8.83Q191.04 8.50 191.20 8.22Q191.35 7.94 191.63 7.79Q191.90 7.63 192.24 7.63L192.24 7.63Q192.65 7.63 192.94 7.93Q193.22 8.23 193.22 8.66L193.22 8.66Q193.22 9.17 192.88 9.52Q192.53 9.86 192.02 9.86ZM189.41 24.43L188.23 24.43L190.70 12.89L191.88 12.89L189.41 24.43ZM197.30 24.67L197.30 24.67Q195.84 24.67 195.24 23.83Q194.64 22.99 194.90 21.70L194.90 21.70L196.56 13.92L194.21 13.92L194.42 12.89L196.78 12.89L197.45 9.74L198.70 9.43L197.95 12.89L201.29 12.89L201.07 13.92L197.74 13.92L196.10 21.62Q195.89 22.66 196.25 23.11Q196.61 23.57 197.74 23.57L197.74 23.57Q198.05 23.57 198.34 23.51Q198.62 23.45 199.06 23.33L199.06 23.33L198.82 24.43Q198.43 24.55 198.06 24.61Q197.69 24.67 197.30 24.67ZM205.51 24.67L205.51 24.67Q203.78 24.67 202.70 23.74Q201.62 22.80 201.62 21.31L201.62 21.31Q201.62 20.23 202.18 19.42Q202.73 18.60 203.71 18.13Q204.70 17.66 205.94 17.66L205.94 17.66Q207.17 17.66 208.22 17.99Q209.28 18.31 209.98 18.96L209.98 18.96L210.34 17.33Q210.72 15.60 210.10 14.65Q209.47 13.70 207.60 13.70L207.60 13.70Q206.86 13.70 206.04 13.93Q205.22 14.16 204.17 14.64L204.17 14.64L203.74 13.68Q204.86 13.15 205.82 12.92Q206.78 12.70 207.67 12.70L207.67 12.70Q209.06 12.70 210.05 13.18Q211.03 13.66 211.45 14.64Q211.87 15.62 211.54 17.11L211.54 17.11L209.90 24.43L208.75 24.43L208.99 23.33Q208.20 23.98 207.34 24.32Q206.47 24.67 205.51 24.67ZM205.73 23.66L205.73 23.66Q206.74 23.66 207.59 23.29Q208.44 22.92 209.23 22.25L209.23 22.25L209.76 19.90Q209.06 19.27 208.18 18.97Q207.29 18.67 206.04 18.67L206.04 18.67Q204.65 18.67 203.70 19.39Q202.75 20.11 202.75 21.19L202.75 21.19Q202.75 22.30 203.50 22.98Q204.24 23.66 205.73 23.66ZM214.66 24.43L213.48 24.43L217.13 7.03L218.35 6.74L214.66 24.43ZM222.14 9.86L222.14 9.86Q221.74 9.86 221.45 9.56Q221.16 9.26 221.16 8.83L221.16 8.83Q221.16 8.50 221.32 8.22Q221.47 7.94 221.75 7.79Q222.02 7.63 222.36 7.63L222.36 7.63Q222.77 7.63 223.06 7.93Q223.34 8.23 223.34 8.66L223.34 8.66Q223.34 9.17 223.00 9.52Q222.65 9.86 222.14 9.86ZM219.53 24.43L218.35 24.43L220.82 12.89L222.00 12.89L219.53 24.43ZM228.82 24.70L228.82 24.70Q227.47 24.70 226.36 24.06Q225.24 23.42 224.58 22.27Q223.92 21.12 223.92 19.63L223.92 19.63Q223.92 18.22 224.40 16.96Q224.88 15.70 225.73 14.74Q226.58 13.78 227.69 13.24Q228.79 12.70 230.04 12.70L230.04 12.70Q231.34 12.70 232.43 13.28Q233.52 13.87 234.26 14.93L234.26 14.93L233.42 15.67Q232.82 14.81 231.96 14.30Q231.10 13.80 230.02 13.80L230.02 13.80Q228.67 13.80 227.56 14.60Q226.44 15.41 225.77 16.73Q225.10 18.05 225.10 19.66L225.10 19.66Q225.10 20.83 225.62 21.72Q226.15 22.61 227.03 23.10Q227.90 23.59 228.94 23.59L228.94 23.59Q229.78 23.59 230.64 23.26Q231.50 22.92 232.27 22.32L232.27 22.32L232.92 23.23Q232.03 23.93 230.96 24.31Q229.90 24.70 228.82 24.70Z"/></svg>