<svg xmlns="http://www.w3.org/2000/svg" xmlns:xlink="http://www.w3.org/1999/xlink" width="211.392" height="30.12"><path fill="black" d="M4.70 24.12L1.90 24.12L1.90 7.20L4.61 7.20L10.82 21.19L10.08 21.19L16.30 7.20L18.98 7.20L18.98 24.12L16.18 24.12L16.18 11.57L17.04 11.57L11.35 24.12L9.50 24.12L3.82 11.57L4.70 11.57L4.70 24.12ZM26.88 24.36L26.88 24.36Q24.65 24.36 23.54 23.14Q22.44 21.91 22.44 19.39L22.44 19.39L22.44 12L25.44 12L25.44 19.37Q25.44 20.71 25.99 21.35Q26.54 21.98 27.67 21.98L27.67 21.98Q28.94 21.98 29.75 21.12Q30.55 20.26 30.55 18.84L30.55 18.84L30.55 12L33.55 12L33.55 24.12L30.62 24.12L30.62 21.65L30.96 21.65Q30.43 22.94 29.36 23.65Q28.30 24.36 26.88 24.36ZM39.82 24.12L36.82 24.12L36.82 6.46L39.82 6.46L39.82 24.12ZM46.08 24.12L43.08 24.12L43.08 12L46.08 12L46.08 24.12ZM46.25 9.72L42.91 9.72L42.91 6.79L46.25 6.79L46.25 9.72ZM53.66 24.36L53.66 24.36Q52.10 24.36 50.80 23.99Q49.49 23.62 48.60 22.94L48.60 22.94L49.44 20.93Q50.35 21.55 51.46 21.89Q52.56 22.22 53.69 22.22L53.69 22.22Q54.89 22.22 55.48 21.82Q56.06 21.41 56.06 20.71L56.06 20.71Q56.06 20.16 55.69 19.84Q55.32 19.51 54.50 19.34L54.50 19.34L52.10 18.89Q50.57 18.55 49.76 17.74Q48.96 16.92 48.96 15.60L48.96 15.60Q48.96 14.47 49.57 13.61Q50.18 12.74 51.32 12.25Q52.46 11.76 54 11.76L54 11.76Q55.34 11.76 56.53 12.12Q57.72 12.48 58.54 13.20L58.54 13.20L57.67 15.14Q56.93 14.54 55.97 14.21Q55.01 13.87 54.10 13.87L54.10 13.87Q52.85 13.87 52.27 14.32Q51.70 14.76 51.70 15.46L51.70 15.46Q51.70 15.98 52.04 16.33Q52.39 16.68 53.14 16.85L53.14 16.85L55.54 17.30Q57.14 17.62 57.97 18.40Q58.80 19.18 58.80 20.52L58.80 20.52Q58.80 21.72 58.15 22.58Q57.50 23.45 56.35 23.90Q55.20 24.36 53.66 24.36ZM64.37 24.12L61.37 24.12L61.37 6.46L64.37 6.46L64.37 14.42L64.03 14.42Q64.58 13.13 65.74 12.44Q66.89 11.76 68.38 11.76L68.38 11.76Q70.54 11.76 71.59 12.97Q72.65 14.18 72.65 16.66L72.65 16.66L72.65 24.12L69.65 24.12L69.65 16.80Q69.65 15.38 69.11 14.75Q68.57 14.11 67.39 14.11L67.39 14.11Q66.02 14.11 65.20 14.96Q64.37 15.82 64.37 17.23L64.37 17.23L64.37 24.12ZM86.23 24.12L82.85 24.12L91.06 8.71L91.06 9.79L82.08 9.79L82.08 7.20L93.91 7.20L93.91 9.50L86.23 24.12ZM102.38 24.36L102.38 24.36Q99.41 24.36 97.80 22.09Q96.19 19.82 96.19 15.62L96.19 15.62Q96.19 11.38 97.80 9.17Q99.41 6.96 102.38 6.96L102.38 6.96Q105.38 6.96 106.98 9.17Q108.58 11.38 108.58 15.60L108.58 15.60Q108.58 19.82 106.98 22.09Q105.38 24.36 102.38 24.36ZM102.38 21.82L102.38 21.82Q104.02 21.82 104.81 20.32Q105.60 18.82 105.60 15.60L105.60 15.60Q105.60 12.38 104.81 10.93Q104.02 9.48 102.38 9.48L102.38 9.48Q100.78 9.48 99.97 10.93Q99.17 12.38 99.17 15.60L99.17 15.60Q99.17 18.82 99.97 20.32Q100.78 21.82 102.38 21.82ZM116.78 24.36L116.78 24.36Q113.81 24.36 112.20 22.09Q110.59 19.82 110.59 15.62L110.59 15.62Q110.59 11.38 112.20 9.17Q113.81 6.96 116.78 6.96L116.78 6.96Q119.78 6.96 121.38 9.17Q122.98 11.38 122.98 15.60L122.98 15.60Q122.98 19.82 121.38 22.09Q119.78 24.36 116.78 24.36ZM116.78 21.82L116.78 21.82Q118.42 21.82 119.21 20.32Q120 18.82 120 15.60L120 15.60Q120 12.38 119.21 10.93Q118.42 9.48 116.78 9.48L116.78 9.48Q115.18 9.48 114.37 10.93Q113.57 12.38 113.57 15.60L113.57 15.60Q113.57 18.82 114.37 20.32Q115.18 21.82 116.78 21.82ZM135.19 24.12L132.19 24.12L132.19 15.02Q132.19 14.28 132.14 13.51Q132.10 12.74 132 12L132 12L134.90 12L135.14 14.40L134.86 14.40Q135.43 13.13 136.56 12.44Q137.69 11.76 139.18 11.76L139.18 11.76Q141.31 11.76 142.39 12.96Q143.47 14.16 143.47 16.70L143.47 16.70L143.47 24.12L140.47 24.12L140.47 16.85Q140.47 15.38 139.91 14.75Q139.34 14.11 138.22 14.11L138.22 14.11Q136.82 14.11 136.01 14.98Q135.19 15.84 135.19 17.28L135.19 17.28L135.19 24.12ZM152.14 24.36L152.14 24.36Q150.26 24.36 148.90 23.59Q147.53 22.82 146.77 21.41Q146.02 19.99 146.02 18.05L146.02 18.05Q146.02 16.10 146.77 14.70Q147.53 13.30 148.90 12.53Q150.26 11.76 152.14 11.76L152.14 11.76Q154.01 11.76 155.39 12.53Q156.77 13.30 157.52 14.70Q158.28 16.10 158.28 18.05L158.28 18.05Q158.28 19.99 157.52 21.41Q156.77 22.82 155.39 23.59Q154.01 24.36 152.14 24.36ZM152.14 22.06L152.14 22.06Q153.55 22.06 154.39 21.06Q155.23 20.06 155.23 18.05L155.23 18.05Q155.23 16.03 154.39 15.05Q153.55 14.06 152.14 14.06L152.14 14.06Q150.72 14.06 149.88 15.05Q149.04 16.03 149.04 18.05L149.04 18.05Q149.04 20.06 149.88 21.06Q150.72 22.06 152.14 22.06ZM163.87 24.12L160.85 24.12L160.85 15.10Q160.85 14.33 160.81 13.54Q160.78 12.74 160.68 12L160.68 12L163.58 12L163.92 15.31L163.44 15.31Q163.68 14.11 164.24 13.32Q164.81 12.53 165.62 12.14Q166.44 11.76 167.40 11.76L167.40 11.76Q167.83 11.76 168.10 11.80Q168.36 11.83 168.62 11.93L168.62 11.93L168.60 14.57Q168.14 14.38 167.82 14.33Q167.50 14.28 167.02 14.28L167.02 14.28Q165.98 14.28 165.28 14.71Q164.57 15.14 164.22 15.91Q163.87 16.68 163.87 17.66L163.87 17.66L163.87 24.12ZM173.30 24.12L170.30 24.12L170.30 15.02Q170.30 14.28 170.26 13.51Q170.21 12.74 170.11 12L170.11 12L173.02 12L173.26 14.40L172.97 14.40Q173.47 13.15 174.52 12.46Q175.56 11.76 177 11.76L177 11.76Q178.44 11.76 179.39 12.44Q180.34 13.13 180.72 14.57L180.72 14.57L180.34 14.57Q180.84 13.27 181.99 12.52Q183.14 11.76 184.63 11.76L184.63 11.76Q186.67 11.76 187.68 12.96Q188.69 14.16 188.69 16.70L188.69 16.70L188.69 24.12L185.69 24.12L185.69 16.82Q185.69 15.38 185.21 14.75Q184.73 14.11 183.67 14.11L183.67 14.11Q182.42 14.11 181.70 14.99Q180.98 15.86 180.98 17.35L180.98 17.35L180.98 24.12L177.98 24.12L177.98 16.82Q177.98 15.38 177.50 14.75Q177.02 14.11 175.97 14.11L175.97 14.11Q174.72 14.11 174.01 14.99Q173.30 15.86 173.30 17.35L173.30 17.35L173.30 24.12ZM196.56 24.36L196.56 24.36Q194.98 24.36 193.78 23.60Q192.58 22.85 191.90 21.43Q191.23 20.02 191.23 18.05L191.23 18.05Q191.23 16.08 191.90 14.68Q192.58 13.27 193.78 12.52Q194.98 11.76 196.56 11.76L196.56 11.76Q198.10 11.76 199.26 12.52Q200.42 13.27 200.81 14.54L200.81 14.54L200.54 14.54L200.81 12L203.69 12Q203.62 12.74 203.56 13.51Q203.50 14.28 203.50 15.02L203.50 15.02L203.50 24.12L200.52 24.12L200.50 21.62L200.78 21.62Q200.40 22.87 199.22 23.62Q198.05 24.36 196.56 24.36ZM197.40 22.06L197.40 22.06Q198.82 22.06 199.68 21.06Q200.54 20.06 200.54 18.05L200.54 18.05Q200.54 16.03 199.68 15.05Q198.82 14.06 197.40 14.06L197.40 14.06Q195.98 14.06 195.12 15.05Q194.26 16.03 194.26 18.05L194.26 18.05Q194.26 20.06 195.11 21.06Q195.96 22.06 197.40 22.06ZM209.76 24.12L206.76 24.12L206.76 6.46L209.76 6.46L209.76 24.12Z"/></svg>