<svg xmlns="http://www.w3.org/2000/svg" xmlns:xlink="http://www.w3.org/1999/xlink" width="256.05600000000004" height="32.688"><path fill="black" d="M15.91 8.52L15.91 25.66L13.39 25.66L4.22 11.42L4.13 11.42Q4.18 12.26 4.25 13.51Q4.32 14.76 4.32 16.08L4.32 16.08L4.32 25.66L2.33 25.66L2.33 8.52L4.82 8.52L13.97 22.70L14.06 22.70Q14.04 22.32 14.00 21.55Q13.97 20.78 13.93 19.87Q13.90 18.96 13.90 18.19L13.90 18.19L13.90 8.52L15.91 8.52ZM31.46 19.20L31.46 19.20Q31.46 22.39 29.84 24.14Q28.22 25.90 25.46 25.90L25.46 25.90Q23.76 25.90 22.43 25.12Q21.10 24.34 20.33 22.84Q19.56 21.34 19.56 19.20L19.56 19.20Q19.56 16.01 21.17 14.28Q22.78 12.55 25.54 12.55L25.54 12.55Q27.29 12.55 28.62 13.33Q29.95 14.11 30.71 15.59Q31.46 17.06 31.46 19.20ZM21.74 19.20L21.74 19.20Q21.74 21.48 22.64 22.81Q23.54 24.14 25.51 24.14L25.51 24.14Q27.46 24.14 28.37 22.81Q29.28 21.48 29.28 19.20L29.28 19.20Q29.28 16.92 28.37 15.62Q27.46 14.33 25.49 14.33L25.49 14.33Q23.52 14.33 22.63 15.62Q21.74 16.92 21.74 19.20ZM39.10 24.17L39.10 24.17Q39.58 24.17 40.08 24.08Q40.58 24 40.90 23.90L40.90 23.90L40.90 25.51Q40.56 25.68 39.94 25.79Q39.31 25.90 38.74 25.90L38.74 25.90Q37.73 25.90 36.88 25.55Q36.02 25.20 35.50 24.34Q34.97 23.47 34.97 21.91L34.97 21.91L34.97 14.42L33.14 14.42L33.14 13.42L34.99 12.58L35.83 9.84L37.08 9.84L37.08 12.79L40.80 12.79L40.80 14.42L37.08 14.42L37.08 21.86Q37.08 23.04 37.64 23.60Q38.21 24.17 39.10 24.17ZM54.65 19.20L54.65 19.20Q54.65 22.39 53.03 24.14Q51.41 25.90 48.65 25.90L48.65 25.90Q46.94 25.90 45.61 25.12Q44.28 24.34 43.51 22.84Q42.74 21.34 42.74 19.20L42.74 19.20Q42.74 16.01 44.35 14.28Q45.96 12.55 48.72 12.55L48.72 12.55Q50.47 12.55 51.80 13.33Q53.14 14.11 53.89 15.59Q54.65 17.06 54.65 19.20ZM44.93 19.20L44.93 19.20Q44.93 21.48 45.83 22.81Q46.73 24.14 48.70 24.14L48.70 24.14Q50.64 24.14 51.55 22.81Q52.46 21.48 52.46 19.20L52.46 19.20Q52.46 16.92 51.55 15.62Q50.64 14.33 48.67 14.33L48.67 14.33Q46.70 14.33 45.82 15.62Q44.93 16.92 44.93 19.20ZM74.23 21.07L74.23 21.07Q74.23 23.35 72.58 24.62Q70.92 25.90 68.11 25.90L68.11 25.90Q66.67 25.90 65.45 25.68Q64.22 25.46 63.41 25.08L63.41 25.08L63.41 23.02Q64.27 23.40 65.56 23.71Q66.84 24.02 68.21 24.02L68.21 24.02Q70.13 24.02 71.10 23.28Q72.07 22.54 72.07 21.26L72.07 21.26Q72.07 20.42 71.71 19.85Q71.35 19.27 70.48 18.78Q69.60 18.29 68.04 17.74L68.04 17.74Q66.94 17.33 66.11 16.86Q65.28 16.39 64.73 15.79Q64.18 15.19 63.90 14.42Q63.62 13.66 63.62 12.65L63.62 12.65Q63.62 11.28 64.32 10.31Q65.02 9.34 66.25 8.81Q67.49 8.28 69.10 8.28L69.10 8.28Q70.51 8.28 71.69 8.54Q72.86 8.81 73.82 9.24L73.82 9.24L73.15 11.09Q72.26 10.70 71.22 10.44Q70.18 10.18 69.05 10.18L69.05 10.18Q67.44 10.18 66.62 10.86Q65.81 11.54 65.81 12.67L65.81 12.67Q65.81 13.54 66.17 14.11Q66.53 14.69 67.34 15.14Q68.16 15.60 69.55 16.13L69.55 16.13Q71.06 16.68 72.11 17.32Q73.15 17.95 73.69 18.84Q74.23 19.73 74.23 21.07ZM82.27 12.58L82.27 12.58Q84.62 12.58 85.75 13.61Q86.88 14.64 86.88 16.90L86.88 16.90L86.88 25.66L85.34 25.66L84.94 23.83L84.84 23.83Q84 24.89 83.08 25.39Q82.15 25.90 80.52 25.90L80.52 25.90Q78.77 25.90 77.62 24.97Q76.46 24.05 76.46 22.08L76.46 22.08Q76.46 20.16 77.98 19.12Q79.49 18.07 82.63 17.98L82.63 17.98L84.82 17.90L84.82 17.14Q84.82 15.53 84.12 14.90Q83.42 14.28 82.15 14.28L82.15 14.28Q81.14 14.28 80.23 14.58Q79.32 14.88 78.53 15.26L78.53 15.26L77.88 13.68Q78.72 13.22 79.87 12.90Q81.02 12.58 82.27 12.58ZM84.79 19.37L82.90 19.44Q80.50 19.54 79.57 20.21Q78.65 20.88 78.65 22.10L78.65 22.10Q78.65 23.18 79.31 23.69Q79.97 24.19 81 24.19L81 24.19Q82.63 24.19 83.71 23.29Q84.79 22.39 84.79 20.52L84.79 20.52L84.79 19.37ZM97.06 12.55L97.06 12.55Q99.36 12.55 100.54 13.67Q101.71 14.78 101.71 17.28L101.71 17.28L101.71 25.66L99.62 25.66L99.62 17.42Q99.62 15.86 98.93 15.10Q98.23 14.33 96.74 14.33L96.74 14.33Q94.61 14.33 93.79 15.53Q92.98 16.73 92.98 18.98L92.98 18.98L92.98 25.66L90.86 25.66L90.86 12.79L92.57 12.79L92.88 14.54L93 14.54Q93.62 13.54 94.73 13.04Q95.83 12.55 97.06 12.55ZM114.07 22.10L114.07 22.10Q114.07 23.98 112.68 24.94Q111.29 25.90 108.94 25.90L108.94 25.90Q107.59 25.90 106.62 25.68Q105.65 25.46 104.90 25.08L104.90 25.08L104.90 23.16Q105.67 23.54 106.76 23.87Q107.86 24.19 108.98 24.19L108.98 24.19Q110.59 24.19 111.31 23.68Q112.03 23.16 112.03 22.30L112.03 22.30Q112.03 21.82 111.77 21.43Q111.50 21.05 110.82 20.66Q110.14 20.28 108.86 19.80L108.86 19.80Q107.62 19.32 106.73 18.84Q105.84 18.36 105.36 17.69Q104.88 17.02 104.88 15.96L104.88 15.96Q104.88 14.33 106.21 13.44Q107.54 12.55 109.70 12.55L109.70 12.55Q110.88 12.55 111.90 12.78Q112.92 13.01 113.81 13.42L113.81 13.42L113.09 15.10Q112.27 14.76 111.38 14.52Q110.50 14.28 109.56 14.28L109.56 14.28Q108.26 14.28 107.58 14.70Q106.90 15.12 106.90 15.84L106.90 15.84Q106.90 16.37 107.21 16.74Q107.52 17.11 108.25 17.46Q108.98 17.81 110.21 18.29L110.21 18.29Q111.43 18.74 112.30 19.22Q113.16 19.70 113.62 20.39Q114.07 21.07 114.07 22.10ZM137.30 8.52L137.30 25.66L134.78 25.66L125.62 11.42L125.52 11.42Q125.57 12.26 125.64 13.51Q125.71 14.76 125.71 16.08L125.71 16.08L125.71 25.66L123.72 25.66L123.72 8.52L126.22 8.52L135.36 22.70L135.46 22.70Q135.43 22.32 135.40 21.55Q135.36 20.78 135.32 19.87Q135.29 18.96 135.29 18.19L135.29 18.19L135.29 8.52L137.30 8.52ZM146.64 12.55L146.64 12.55Q148.30 12.55 149.48 13.27Q150.67 13.99 151.31 15.30Q151.94 16.61 151.94 18.36L151.94 18.36L151.94 19.63L143.14 19.63Q143.18 21.82 144.25 22.96Q145.32 24.10 147.24 24.10L147.24 24.10Q148.46 24.10 149.41 23.87Q150.36 23.64 151.37 23.21L151.37 23.21L151.37 25.06Q150.38 25.49 149.42 25.69Q148.46 25.90 147.14 25.90L147.14 25.90Q145.32 25.90 143.92 25.15Q142.51 24.41 141.73 22.93Q140.95 21.46 140.95 19.32L140.95 19.32Q140.95 17.21 141.66 15.70Q142.37 14.18 143.65 13.37Q144.94 12.55 146.64 12.55ZM146.62 14.28L146.62 14.28Q145.10 14.28 144.23 15.25Q143.35 16.22 143.18 17.95L143.18 17.95L149.74 17.95Q149.71 16.32 148.97 15.30Q148.22 14.28 146.62 14.28ZM165.24 25.63L163.03 18.38Q162.89 17.88 162.74 17.39Q162.60 16.90 162.49 16.45Q162.38 16.01 162.29 15.62Q162.19 15.24 162.14 14.98L162.14 14.98L162.05 14.98Q162.00 15.24 161.92 15.62Q161.83 16.01 161.72 16.46Q161.62 16.92 161.48 17.41Q161.35 17.90 161.18 18.41L161.18 18.41L158.88 25.63L156.48 25.63L152.95 12.77L155.14 12.77L156.91 19.63Q157.10 20.33 157.27 21.04Q157.44 21.74 157.57 22.38Q157.70 23.02 157.75 23.47L157.75 23.47L157.85 23.47Q157.92 23.18 158.02 22.75Q158.11 22.32 158.22 21.84Q158.33 21.36 158.46 20.88Q158.59 20.40 158.71 20.02L158.71 20.02L160.99 12.77L163.30 12.77L165.50 20.02Q165.67 20.57 165.85 21.19Q166.03 21.82 166.18 22.40Q166.32 22.99 166.37 23.45L166.37 23.45L166.46 23.45Q166.51 23.04 166.64 22.43Q166.78 21.82 166.96 21.08Q167.14 20.35 167.33 19.63L167.33 19.63L169.13 12.77L171.29 12.77L167.71 25.63L165.24 25.63ZM185.54 10.42L185.54 25.66L183.38 25.66L183.38 10.42L178.03 10.42L178.03 8.52L190.87 8.52L190.87 10.42L185.54 10.42ZM196.13 12.58L196.13 12.58Q198.48 12.58 199.61 13.61Q200.74 14.64 200.74 16.90L200.74 16.90L200.74 25.66L199.20 25.66L198.79 23.83L198.70 23.83Q197.86 24.89 196.93 25.39Q196.01 25.90 194.38 25.90L194.38 25.90Q192.62 25.90 191.47 24.97Q190.32 24.05 190.32 22.08L190.32 22.08Q190.32 20.16 191.83 19.12Q193.34 18.07 196.49 17.98L196.49 17.98L198.67 17.90L198.67 17.14Q198.67 15.53 197.98 14.90Q197.28 14.28 196.01 14.28L196.01 14.28Q195.00 14.28 194.09 14.58Q193.18 14.88 192.38 15.26L192.38 15.26L191.74 13.68Q192.58 13.22 193.73 12.90Q194.88 12.58 196.13 12.58ZM198.65 19.37L196.75 19.44Q194.35 19.54 193.43 20.21Q192.50 20.88 192.50 22.10L192.50 22.10Q192.50 23.18 193.16 23.69Q193.82 24.19 194.86 24.19L194.86 24.19Q196.49 24.19 197.57 23.29Q198.65 22.39 198.65 20.52L198.65 20.52L198.65 19.37ZM204.72 12.79L206.83 12.79L206.83 25.66L204.72 25.66L204.72 12.79ZM205.80 7.97L205.80 7.97Q206.28 7.97 206.65 8.29Q207.02 8.62 207.02 9.31L207.02 9.31Q207.02 9.98 206.65 10.32Q206.28 10.66 205.80 10.66L205.80 10.66Q205.27 10.66 204.91 10.32Q204.55 9.98 204.55 9.31L204.55 9.31Q204.55 8.62 204.91 8.29Q205.27 7.97 205.80 7.97ZM227.09 25.66L217.44 25.66L217.44 8.52L219.60 8.52L219.60 23.74L227.09 23.74L227.09 25.66ZM238.37 12.79L240.48 12.79L240.48 25.66L238.75 25.66L238.44 23.95L238.34 23.95Q237.72 24.96 236.62 25.43Q235.51 25.90 234.26 25.90L234.26 25.90Q231.94 25.90 230.76 24.78Q229.58 23.66 229.58 21.22L229.58 21.22L229.58 12.79L231.72 12.79L231.72 21.07Q231.72 22.61 232.42 23.38Q233.11 24.14 234.58 24.14L234.58 24.14Q236.71 24.14 237.54 22.94Q238.37 21.74 238.37 19.49L238.37 19.49L238.37 12.79ZM249.53 12.55L249.53 12.55Q251.18 12.55 252.37 13.27Q253.56 13.99 254.20 15.30Q254.83 16.61 254.83 18.36L254.83 18.36L254.83 19.63L246.02 19.63Q246.07 21.82 247.14 22.96Q248.21 24.10 250.13 24.10L250.13 24.10Q251.35 24.10 252.30 23.87Q253.25 23.64 254.26 23.21L254.26 23.21L254.26 25.06Q253.27 25.49 252.31 25.69Q251.35 25.90 250.03 25.90L250.03 25.90Q248.21 25.90 246.80 25.15Q245.40 24.41 244.62 22.93Q243.84 21.46 243.84 19.32L243.84 19.32Q243.84 17.21 244.55 15.70Q245.26 14.18 246.54 13.37Q247.82 12.55 249.53 12.55ZM249.50 14.28L249.50 14.28Q247.99 14.28 247.12 15.25Q246.24 16.22 246.07 17.95L246.07 17.95L252.62 17.95Q252.60 16.32 251.86 15.30Q251.11 14.28 249.50 14.28Z"/></svg>