<svg xmlns="http://www.w3.org/2000/svg" xmlns:xlink="http://www.w3.org/1999/xlink" width="185.25852272727272" height="29.045454545454543"><path fill="black" d="M2.32 5.80L3.91 5.80L3.91 23.25L2.32 23.25L2.32 5.80ZM9.75 15.07L9.75 15.07L9.75 23.25L8.23 23.25L8.23 10.16L9.71 10.16L9.71 12.21L9.84 12.21Q10.30 11.21 11.28 10.60Q12.26 9.99 13.70 9.99L13.70 9.99Q15.02 9.99 16.02 10.54Q17.02 11.09 17.58 12.15Q18.14 13.22 18.14 14.77L18.14 14.77L18.14 23.25L16.62 23.25L16.62 14.86Q16.62 13.25 15.72 12.32Q14.82 11.38 13.31 11.38L13.31 11.38Q12.28 11.38 11.48 11.82Q10.68 12.26 10.21 13.10Q9.75 13.93 9.75 15.07ZM21.05 10.16L27.30 10.16L27.30 11.48L21.05 11.48L21.05 10.16ZM23.00 20.19L23.00 7.02L24.53 7.02L24.53 19.83Q24.53 20.65 24.81 21.12Q25.09 21.58 25.54 21.77Q25.99 21.96 26.51 21.96L26.51 21.96Q26.80 21.96 27.02 21.92Q27.23 21.89 27.39 21.84L27.39 21.84L27.72 23.22Q27.49 23.30 27.17 23.37Q26.85 23.45 26.37 23.45L26.37 23.45Q25.53 23.45 24.76 23.08Q23.99 22.71 23.50 21.99Q23.00 21.26 23.00 20.19L23.00 20.19ZM35.90 23.52L35.90 23.52Q34.07 23.52 32.73 22.67Q31.39 21.81 30.66 20.29Q29.93 18.77 29.93 16.78L29.93 16.78Q29.93 14.80 30.66 13.27Q31.39 11.73 32.68 10.85Q33.97 9.98 35.67 9.98L35.67 9.98Q36.73 9.98 37.72 10.37Q38.71 10.76 39.50 11.55Q40.29 12.35 40.75 13.56Q41.21 14.76 41.21 16.41L41.21 16.41L41.21 17.16L30.98 17.16L30.98 15.82L39.66 15.82Q39.66 14.56 39.15 13.55Q38.64 12.54 37.74 11.95Q36.84 11.36 35.67 11.36L35.67 11.36Q34.42 11.36 33.48 12.03Q32.53 12.69 32.00 13.78Q31.47 14.87 31.46 16.17L31.46 16.17L31.46 16.97Q31.46 18.53 32.00 19.69Q32.54 20.86 33.54 21.49Q34.53 22.13 35.90 22.13L35.90 22.13Q36.83 22.13 37.53 21.84Q38.23 21.55 38.71 21.06Q39.20 20.57 39.44 19.99L39.44 19.99L40.88 20.45Q40.59 21.28 39.91 21.98Q39.23 22.68 38.22 23.10Q37.21 23.52 35.90 23.52ZM46.06 23.25L44.54 23.25L44.54 10.16L46.01 10.16L46.01 12.17L46.12 12.17Q46.52 11.18 47.49 10.57Q48.47 9.96 49.70 9.96L49.70 9.96Q49.89 9.96 50.12 9.97Q50.35 9.98 50.51 9.99L50.51 9.99L50.51 11.53Q50.40 11.51 50.15 11.48Q49.89 11.45 49.59 11.45L49.59 11.45Q48.57 11.45 47.77 11.88Q46.98 12.31 46.52 13.07Q46.06 13.82 46.06 14.80L46.06 14.80L46.06 23.25ZM65.45 23.49L65.45 23.49Q63.84 23.49 62.57 22.90Q61.30 22.32 60.56 21.28Q59.82 20.24 59.78 18.89L59.78 18.89L61.39 18.89Q61.43 19.84 61.98 20.55Q62.52 21.26 63.43 21.66Q64.33 22.06 65.44 22.06L65.44 22.06Q66.65 22.06 67.57 21.61Q68.50 21.15 69.02 20.37Q69.55 19.58 69.55 18.58L69.55 18.58Q69.55 17.52 69.01 16.71Q68.47 15.90 67.47 15.45Q66.47 15 65.08 15L65.08 15L64.06 15L64.06 13.57L65.08 13.57Q66.21 13.57 67.09 13.15Q67.96 12.74 68.46 11.99Q68.97 11.24 68.97 10.23L68.97 10.23Q68.97 9.26 68.53 8.53Q68.10 7.80 67.31 7.38Q66.52 6.96 65.47 6.96L65.47 6.96Q64.46 6.96 63.61 7.36Q62.77 7.75 62.25 8.46Q61.74 9.18 61.70 10.16L61.70 10.16L60.16 10.16Q60.20 8.80 60.92 7.76Q61.64 6.72 62.83 6.14Q64.03 5.56 65.49 5.56L65.49 5.56Q67.03 5.56 68.16 6.19Q69.28 6.82 69.90 7.86Q70.52 8.91 70.52 10.16L70.52 10.16Q70.52 11.65 69.71 12.71Q68.90 13.77 67.53 14.18L67.53 14.18L67.53 14.29Q69.20 14.63 70.15 15.77Q71.11 16.92 71.11 18.58L71.11 18.58Q71.11 19.98 70.38 21.09Q69.65 22.20 68.37 22.85Q67.10 23.49 65.45 23.49ZM80.30 23.49L80.30 23.49Q78.46 23.49 77.16 22.43Q75.86 21.37 75.17 19.36Q74.47 17.34 74.47 14.52L74.47 14.52Q74.47 11.71 75.17 9.70Q75.86 7.70 77.17 6.63Q78.48 5.56 80.30 5.56L80.30 5.56Q82.12 5.56 83.43 6.63Q84.74 7.70 85.44 9.70Q86.13 11.71 86.13 14.52L86.13 14.52Q86.13 17.34 85.44 19.36Q84.74 21.37 83.44 22.43Q82.14 23.49 80.30 23.49ZM80.30 22.06L80.30 22.06Q82.32 22.06 83.45 20.08Q84.59 18.11 84.59 14.52L84.59 14.52Q84.59 12.14 84.07 10.44Q83.56 8.75 82.60 7.86Q81.64 6.96 80.30 6.96L80.30 6.96Q78.30 6.96 77.16 8.95Q76.01 10.94 76.01 14.52L76.01 14.52Q76.01 16.91 76.53 18.60Q77.05 20.28 78.00 21.17Q78.96 22.06 80.30 22.06ZM95.03 23.49L95.03 23.49Q93.19 23.49 91.89 22.43Q90.59 21.37 89.89 19.36Q89.20 17.34 89.20 14.52L89.20 14.52Q89.20 11.71 89.89 9.70Q90.59 7.70 91.90 6.63Q93.20 5.56 95.03 5.56L95.03 5.56Q96.85 5.56 98.16 6.63Q99.47 7.70 100.16 9.70Q100.86 11.71 100.86 14.52L100.86 14.52Q100.86 17.34 100.16 19.36Q99.47 21.37 98.17 22.43Q96.87 23.49 95.03 23.49ZM95.03 22.06L95.03 22.06Q97.05 22.06 98.18 20.08Q99.32 18.11 99.32 14.52L99.32 14.52Q99.32 12.14 98.80 10.44Q98.28 8.75 97.33 7.86Q96.37 6.96 95.03 6.96L95.03 6.96Q93.03 6.96 91.88 8.95Q90.74 10.94 90.74 14.52L90.74 14.52Q90.74 16.91 91.26 18.60Q91.77 20.28 92.73 21.17Q93.69 22.06 95.03 22.06ZM112.66 15.07L112.66 15.07L112.66 23.25L111.14 23.25L111.14 10.16L112.62 10.16L112.62 12.21L112.76 12.21Q113.22 11.21 114.19 10.60Q115.17 9.99 116.61 9.99L116.61 9.99Q117.93 9.99 118.93 10.54Q119.93 11.09 120.49 12.15Q121.05 13.22 121.05 14.77L121.05 14.77L121.05 23.25L119.53 23.25L119.53 14.86Q119.53 13.25 118.63 12.32Q117.73 11.38 116.22 11.38L116.22 11.38Q115.19 11.38 114.39 11.82Q113.59 12.26 113.13 13.10Q112.66 13.93 112.66 15.07ZM130.14 23.52L130.14 23.52Q128.45 23.52 127.15 22.66Q125.85 21.80 125.11 20.28Q124.38 18.76 124.38 16.76L124.38 16.76Q124.38 14.75 125.11 13.22Q125.85 11.69 127.15 10.84Q128.45 9.98 130.14 9.98L130.14 9.98Q131.84 9.98 133.13 10.84Q134.43 11.70 135.17 13.23Q135.90 14.75 135.90 16.76L135.90 16.76Q135.90 18.76 135.17 20.28Q134.44 21.80 133.14 22.66Q131.84 23.52 130.14 23.52ZM130.14 22.13L130.14 22.13Q131.51 22.13 132.45 21.40Q133.40 20.67 133.89 19.45Q134.38 18.23 134.38 16.76L134.38 16.76Q134.38 15.30 133.89 14.07Q133.40 12.84 132.45 12.10Q131.51 11.36 130.14 11.36L130.14 11.36Q128.79 11.36 127.84 12.10Q126.89 12.84 126.40 14.07Q125.91 15.30 125.91 16.76L125.91 16.76Q125.91 18.23 126.40 19.45Q126.89 20.67 127.83 21.40Q128.78 22.13 130.14 22.13ZM140.75 23.25L139.24 23.25L139.24 10.16L140.71 10.16L140.71 12.17L140.82 12.17Q141.21 11.18 142.19 10.57Q143.16 9.96 144.40 9.96L144.40 9.96Q144.59 9.96 144.82 9.97Q145.05 9.98 145.20 9.99L145.20 9.99L145.20 11.53Q145.10 11.51 144.84 11.48Q144.59 11.45 144.29 11.45L144.29 11.45Q143.27 11.45 142.47 11.88Q141.67 12.31 141.21 13.07Q140.75 13.82 140.75 14.80L140.75 14.80L140.75 23.25ZM149.31 23.25L147.79 23.25L147.79 10.16L149.27 10.16L149.27 12.17L149.40 12.17Q149.80 11.16 150.71 10.57Q151.63 9.99 152.91 9.99L152.91 9.99Q154.27 9.99 155.14 10.62Q156.02 11.26 156.45 12.37L156.45 12.37L156.56 12.37Q157.01 11.28 158.01 10.63Q159.01 9.99 160.44 9.99L160.44 9.99Q162.26 9.99 163.32 11.13Q164.38 12.28 164.38 14.48L164.38 14.48L164.38 23.25L162.86 23.25L162.86 14.48Q162.86 12.93 162.07 12.15Q161.28 11.38 159.98 11.38L159.98 11.38Q158.48 11.38 157.67 12.30Q156.86 13.22 156.86 14.63L156.86 14.63L156.86 23.25L155.31 23.25L155.31 14.34Q155.31 13.01 154.57 12.20Q153.83 11.38 152.48 11.38L152.48 11.38Q151.58 11.38 150.86 11.82Q150.14 12.26 149.72 13.05Q149.31 13.84 149.31 14.86L149.31 14.86L149.31 23.25ZM172.04 23.55L172.04 23.55Q170.86 23.55 169.88 23.08Q168.89 22.62 168.32 21.74Q167.74 20.86 167.74 19.59L167.74 19.59Q167.74 18.62 168.10 17.96Q168.47 17.29 169.14 16.87Q169.82 16.44 170.74 16.19Q171.66 15.95 172.76 15.81L172.76 15.81Q173.86 15.67 174.63 15.57Q175.39 15.47 175.79 15.25Q176.19 15.03 176.19 14.53L176.19 14.53L176.19 14.22Q176.19 12.89 175.39 12.12Q174.60 11.34 173.11 11.34L173.11 11.34Q171.69 11.34 170.80 11.97Q169.91 12.59 169.55 13.43L169.55 13.43L168.11 12.91Q168.55 11.84 169.34 11.19Q170.12 10.55 171.09 10.27Q172.07 9.98 173.06 9.98L173.06 9.98Q173.81 9.98 174.63 10.18Q175.44 10.37 176.14 10.85Q176.84 11.34 177.27 12.19Q177.71 13.05 177.71 14.36L177.71 14.36L177.71 23.25L176.19 23.25L176.19 21.18L176.10 21.18Q175.82 21.76 175.29 22.30Q174.75 22.85 173.94 23.20Q173.13 23.55 172.04 23.55ZM172.24 22.16L172.24 22.16Q173.45 22.16 174.34 21.62Q175.23 21.09 175.71 20.19Q176.19 19.30 176.19 18.23L176.19 18.23L176.19 16.34Q176.02 16.50 175.62 16.63Q175.23 16.76 174.71 16.85Q174.20 16.95 173.68 17.02Q173.17 17.09 172.76 17.14L172.76 17.14Q171.66 17.28 170.87 17.57Q170.09 17.86 169.67 18.36Q169.25 18.87 169.25 19.66L169.25 19.66Q169.25 20.86 170.11 21.51Q170.96 22.16 172.24 22.16ZM181.74 5.80L183.26 5.80L183.26 23.25L181.74 23.25L181.74 5.80Z"/></svg>