<svg xmlns="http://www.w3.org/2000/svg" xmlns:xlink="http://www.w3.org/1999/xlink" width="229.55999999999995" height="24"><path fill="black" d="M3.98 19.92L3.98 19.92Q4.58 19.22 4.93 18.20Q5.28 17.18 5.28 15.84L5.28 15.84L5.28 1.20L0.84 1.20L0.84 1.54L4.94 1.54L4.94 15.77Q4.94 16.99 4.63 17.95Q4.32 18.91 3.77 19.58L3.77 19.58Q3.22 20.28 2.47 20.65Q1.73 21.02 0.84 21.07L0.84 21.07L0.84 21.41Q1.75 21.38 2.56 21Q3.36 20.62 3.98 19.92ZM14.98 16.78L14.98 16.78Q15.60 16.15 15.97 15.31Q16.34 14.47 16.34 13.49L16.34 13.49Q16.34 12.53 15.97 11.66Q15.60 10.80 14.98 10.15L14.98 10.15Q14.33 9.53 13.46 9.16Q12.60 8.78 11.64 8.78L11.64 8.78Q10.66 8.78 9.82 9.16Q8.98 9.53 8.35 10.15L8.35 10.15Q7.70 10.80 7.34 11.66Q6.98 12.53 6.98 13.49L6.98 13.49Q6.98 14.47 7.34 15.31Q7.70 16.15 8.35 16.78L8.35 16.78Q8.98 17.42 9.82 17.78Q10.66 18.14 11.64 18.14L11.64 18.14Q12.60 18.14 13.46 17.78Q14.33 17.42 14.98 16.78ZM8.59 16.54L8.59 16.54Q7.99 15.96 7.66 15.18Q7.32 14.40 7.32 13.49L7.32 13.49Q7.32 12.60 7.66 11.81Q7.99 11.02 8.59 10.42L8.59 10.42Q9.17 9.82 9.95 9.48Q10.73 9.14 11.64 9.14L11.64 9.14Q12.53 9.14 13.32 9.48Q14.11 9.82 14.71 10.42L14.71 10.42Q15.31 11.02 15.65 11.81Q15.98 12.60 15.98 13.49L15.98 13.49Q15.98 14.40 15.65 15.18Q15.31 15.96 14.71 16.54L14.71 16.54Q14.11 17.14 13.32 17.47Q12.53 17.81 11.64 17.81L11.64 17.81Q10.73 17.81 9.95 17.47Q9.17 17.14 8.59 16.54ZM23.33 17.33L23.33 17.33Q23.66 16.97 23.83 16.50Q24 16.03 24 15.58L24 15.58Q24 14.78 23.64 14.34Q23.28 13.90 22.75 13.63L22.75 13.63Q22.20 13.37 21.58 13.21Q20.95 13.06 20.40 12.82L20.40 12.82Q19.87 12.60 19.51 12.23Q19.15 11.86 19.18 11.16L19.18 11.16Q19.18 10.63 19.38 10.26Q19.58 9.89 19.90 9.65L19.90 9.65Q20.21 9.43 20.62 9.34Q21.02 9.24 21.34 9.24L21.34 9.24Q21.89 9.24 22.38 9.36Q22.87 9.48 23.30 9.77L23.30 9.77L23.30 11.18L23.64 11.18L23.64 9.62Q23.45 9.46 23.20 9.32Q22.94 9.19 22.66 9.10L22.66 9.10Q22.25 8.98 22.01 8.94Q21.77 8.90 21.41 8.90L21.41 8.90Q20.95 8.90 20.45 9.06Q19.94 9.22 19.58 9.53L19.58 9.53Q19.25 9.84 19.04 10.27Q18.84 10.70 18.84 11.28L18.84 11.28Q18.84 12.02 19.20 12.43Q19.56 12.84 20.09 13.06L20.09 13.06Q20.62 13.30 21.25 13.46Q21.89 13.63 22.42 13.87L22.42 13.87Q22.94 14.09 23.30 14.50Q23.66 14.90 23.66 15.65L23.66 15.65Q23.66 16.20 23.45 16.61Q23.23 17.02 22.90 17.28L22.90 17.28Q22.54 17.57 22.12 17.71Q21.70 17.86 21.22 17.86L21.22 17.86Q20.62 17.86 20.00 17.75Q19.39 17.64 18.84 17.23L18.84 17.23L18.84 15.82L18.50 15.82L18.50 17.38Q19.10 17.88 19.79 18.04Q20.47 18.19 21.14 18.19L21.14 18.19Q21.86 18.19 22.42 17.95Q22.97 17.71 23.33 17.33ZM30.24 9.14L30.24 9.14Q31.44 9.14 32.41 9.83Q33.38 10.51 33.86 11.62L33.86 11.62Q31.92 12.41 29.98 13.19Q28.03 13.97 26.09 14.76L26.09 14.76Q25.78 13.73 25.98 12.72Q26.18 11.71 26.78 10.92L26.78 10.92Q27.36 10.13 28.26 9.64Q29.16 9.14 30.24 9.14ZM33.43 16.90L33.43 16.90L33.22 16.63Q32.64 17.18 31.87 17.50Q31.10 17.81 30.24 17.81L30.24 17.81Q28.85 17.81 27.77 17.05Q26.69 16.30 26.21 15.07L26.21 15.07Q28.25 14.23 30.25 13.43Q32.26 12.62 34.30 11.78L34.30 11.78Q34.06 11.14 33.67 10.61Q33.29 10.08 32.81 9.70L32.81 9.70Q32.28 9.26 31.62 9.04Q30.96 8.81 30.24 8.81L30.24 8.81Q29.26 8.81 28.42 9.18Q27.58 9.55 26.95 10.18L26.95 10.18Q26.30 10.80 25.94 11.66Q25.58 12.53 25.58 13.49L25.58 13.49Q25.58 14.47 25.94 15.31Q26.30 16.15 26.95 16.80L26.95 16.80Q27.58 17.42 28.42 17.78Q29.26 18.14 30.24 18.14L30.24 18.14Q31.18 18.14 31.99 17.81Q32.81 17.47 33.43 16.90ZM36.02 18L40.20 18L40.20 17.66L37.82 17.66L37.82 9.34L40.94 9.34L40.94 9L37.82 9L37.82 5.47Q37.82 4.30 38.16 3.35Q38.50 2.40 39.07 1.73L39.07 1.73Q39.62 1.06 40.37 0.70Q41.11 0.34 41.93 0.34L41.93 0.34L41.93 0Q41.02 0.05 40.21 0.42Q39.41 0.79 38.81 1.49L38.81 1.49Q38.18 2.18 37.84 3.22Q37.49 4.25 37.49 5.57L37.49 5.57L37.49 9L36.02 9L36.02 9.34L37.49 9.34L37.49 17.66L36.02 17.66L36.02 18ZM42.77 18L46.94 18L46.94 17.66L45.07 17.66L45.07 9L42.77 9L42.77 9.34L44.74 9.34L44.74 17.66L42.77 17.66L42.77 18ZM45.38 6L45.38 6Q45.38 5.81 45.24 5.66Q45.10 5.52 44.90 5.52L44.90 5.52Q44.71 5.52 44.57 5.66Q44.42 5.81 44.42 6L44.42 6Q44.42 6.19 44.57 6.34Q44.71 6.48 44.90 6.48L44.90 6.48Q45.10 6.48 45.24 6.34Q45.38 6.19 45.38 6ZM48.62 18L52.80 18L52.80 17.66L50.86 17.66L50.86 12.72Q50.86 11.95 51.18 11.29Q51.50 10.63 52.08 10.15L52.08 10.15Q52.63 9.70 53.36 9.43Q54.10 9.17 54.91 9.17L54.91 9.17Q55.97 9.22 56.56 9.85Q57.14 10.49 57.19 11.35L57.19 11.35L57.19 17.66L55.30 17.66L55.30 18L59.47 18L59.47 17.66L57.53 17.66L57.53 11.52Q57.48 10.32 56.75 9.58Q56.02 8.83 54.74 8.83L54.74 8.83Q53.38 8.83 52.32 9.53Q51.26 10.22 50.78 11.35L50.78 11.35Q50.78 11.04 50.77 10.81Q50.76 10.58 50.76 10.27L50.76 10.27L50.71 9L48.72 9L48.72 9.34L50.52 9.34L50.52 17.66L48.62 17.66L48.62 18ZM76.85 16.92L76.85 16.92Q77.54 16.32 77.94 15.46Q78.34 14.59 78.31 13.54L78.31 13.54Q78.29 11.98 77.62 11.11Q76.94 10.25 75.96 9.74L75.96 9.74Q74.95 9.26 73.81 9Q72.67 8.74 71.71 8.33L71.71 8.33Q70.73 7.94 70.08 7.26Q69.43 6.58 69.43 5.28L69.43 5.28Q69.43 4.54 69.66 3.85Q69.89 3.17 70.37 2.62L70.37 2.62Q70.82 2.09 71.53 1.76Q72.24 1.44 73.18 1.44L73.18 1.44Q74.33 1.44 75.14 1.70Q75.96 1.97 76.44 2.33L76.44 2.33L76.44 4.90L76.78 4.90L76.78 2.16Q76.39 1.85 75.94 1.63Q75.48 1.42 75.02 1.30L75.02 1.30Q74.54 1.20 74.08 1.15Q73.61 1.10 73.22 1.10L73.22 1.10Q72.10 1.10 71.30 1.50Q70.51 1.90 70.01 2.54L70.01 2.54Q69.50 3.19 69.28 4.00Q69.05 4.80 69.10 5.59L69.10 5.59Q69.14 6.58 69.56 7.20Q69.98 7.82 70.63 8.21L70.63 8.21Q71.26 8.62 72.05 8.87Q72.84 9.12 73.66 9.34L73.66 9.34Q74.47 9.58 75.25 9.85Q76.03 10.13 76.63 10.58L76.63 10.58Q77.23 11.06 77.60 11.80Q77.98 12.53 77.98 13.63L77.98 13.63Q77.98 14.59 77.57 15.37Q77.16 16.15 76.51 16.70L76.51 16.70Q75.84 17.26 74.98 17.56Q74.11 17.86 73.18 17.86L73.18 17.86Q71.69 17.86 70.67 17.39Q69.65 16.92 68.95 16.22L68.95 16.22L68.95 14.06L68.62 14.06L68.62 16.46Q68.83 16.68 69.23 16.97Q69.62 17.26 70.20 17.52L70.20 17.52Q70.75 17.81 71.51 18Q72.26 18.19 73.22 18.19L73.22 18.19Q74.28 18.19 75.22 17.87Q76.15 17.54 76.85 16.92ZM79.82 18L84 18L84 17.66L81.89 17.66L81.89 0L79.80 0L79.80 0.34L81.55 0.34L81.55 17.66L79.82 17.66L79.82 18ZM94.68 18L96.77 18L96.77 17.66L95.02 17.66L95.02 9L94.78 9Q94.73 9.70 94.70 10.38Q94.68 11.06 94.68 11.76L94.68 11.76Q94.15 10.46 92.99 9.64Q91.82 8.81 90.34 8.81L90.34 8.81Q89.35 8.81 88.51 9.18Q87.67 9.55 87.05 10.18L87.05 10.18Q86.40 10.80 86.04 11.66Q85.68 12.53 85.68 13.49L85.68 13.49Q85.68 14.47 86.04 15.31Q86.40 16.15 87.05 16.78L87.05 16.78Q87.67 17.42 88.51 17.78Q89.35 18.14 90.34 18.14L90.34 18.14Q91.08 18.14 91.76 17.93Q92.45 17.71 93.02 17.30L93.02 17.30Q93.58 16.92 94.01 16.38Q94.44 15.84 94.70 15.19L94.70 15.19Q94.70 15.58 94.69 15.95Q94.68 16.32 94.68 16.70L94.68 16.70L94.68 18ZM90.34 9.14L90.34 9.14Q91.22 9.14 92.02 9.48Q92.81 9.82 93.41 10.42L93.41 10.42Q94.01 11.02 94.34 11.81Q94.68 12.60 94.68 13.49L94.68 13.49Q94.68 14.40 94.34 15.18Q94.01 15.96 93.41 16.54L93.41 16.54Q92.81 17.14 92.02 17.47Q91.22 17.81 90.34 17.81L90.34 17.81Q89.42 17.81 88.64 17.47Q87.86 17.14 87.29 16.54L87.29 16.54Q86.69 15.96 86.35 15.18Q86.02 14.40 86.02 13.49L86.02 13.49Q86.02 12.60 86.35 11.81Q86.69 11.02 87.29 10.42L87.29 10.42Q87.86 9.82 88.64 9.48Q89.42 9.14 90.34 9.14ZM98.45 17.66L98.45 18L100.54 18L100.54 16.70Q100.54 16.32 100.52 15.95Q100.51 15.58 100.51 15.19L100.51 15.19Q100.75 15.84 101.20 16.38Q101.64 16.92 102.22 17.30L102.22 17.30Q102.77 17.71 103.45 17.93Q104.14 18.14 104.88 18.14L104.88 18.14Q105.84 18.14 106.69 17.78Q107.54 17.42 108.19 16.78L108.19 16.78Q108.82 16.15 109.18 15.31Q109.54 14.47 109.54 13.49L109.54 13.49Q109.54 12.53 109.18 11.66Q108.82 10.80 108.19 10.18L108.19 10.18Q107.54 9.55 106.69 9.18Q105.84 8.81 104.88 8.81L104.88 8.81Q104.14 8.81 103.45 9.02Q102.77 9.24 102.22 9.62L102.22 9.62Q101.64 10.03 101.21 10.57Q100.78 11.11 100.54 11.76L100.54 11.76Q100.54 11.28 100.54 11.03Q100.54 10.78 100.54 10.30L100.54 10.30L100.54 0L98.45 0L98.45 0.34L100.20 0.34L100.20 17.66L98.45 17.66ZM104.88 9.14L104.88 9.14Q105.77 9.14 106.56 9.48Q107.35 9.82 107.95 10.42L107.95 10.42Q108.53 11.02 108.86 11.81Q109.20 12.60 109.20 13.49L109.20 13.49Q109.20 14.40 108.86 15.18Q108.53 15.96 107.95 16.54L107.95 16.54Q107.35 17.14 106.56 17.47Q105.77 17.81 104.88 17.81L104.88 17.81Q103.97 17.81 103.19 17.47Q102.41 17.14 101.81 16.54L101.81 16.54Q101.21 15.96 100.87 15.18Q100.54 14.40 100.54 13.49L100.54 13.49Q100.54 12.60 100.87 11.81Q101.21 11.02 101.81 10.42L101.81 10.42Q102.41 9.82 103.19 9.48Q103.97 9.14 104.88 9.14ZM119.18 18L123.36 18L123.36 17.66L121.44 17.66L121.44 2.40L118.39 2.40L118.39 2.74L121.10 2.74L121.10 17.66L119.18 17.66L119.18 18ZM135.36 15.86L135.36 15.86Q136.25 14.78 136.78 13.33Q137.30 11.88 137.30 10.22L137.30 10.22Q137.30 9.07 136.98 7.68Q136.66 6.29 135.91 5.06L135.91 5.06Q135.17 3.86 133.94 3.04Q132.72 2.21 130.94 2.21L130.94 2.21Q129.14 2.21 127.90 3.01Q126.65 3.82 125.88 5.02L125.88 5.02Q125.11 6.24 124.76 7.62Q124.42 9 124.42 10.15L124.42 10.15Q124.42 11.83 124.91 13.28Q125.40 14.74 126.26 15.82L126.26 15.82Q127.13 16.90 128.29 17.53Q129.46 18.17 130.78 18.17L130.78 18.17Q132.10 18.17 133.28 17.56Q134.47 16.94 135.36 15.86ZM126.62 15.72L126.62 15.72Q125.78 14.71 125.28 13.30Q124.78 11.88 124.78 10.13L124.78 10.13Q124.78 8.38 125.26 6.97Q125.74 5.57 126.58 4.56L126.58 4.56Q127.39 3.58 128.51 3.06Q129.62 2.54 130.92 2.54L130.92 2.54Q132.22 2.54 133.32 3.10Q134.42 3.65 135.24 4.63L135.24 4.63Q136.06 5.64 136.51 7.07Q136.97 8.50 136.97 10.25L136.97 10.25Q136.97 11.98 136.44 13.39Q135.91 14.81 135.05 15.79L135.05 15.79Q134.18 16.78 133.08 17.30Q131.98 17.83 130.82 17.83L130.82 17.83Q129.67 17.83 128.57 17.28Q127.46 16.73 126.62 15.72ZM150.14 15.86L150.14 15.86Q151.03 14.78 151.56 13.33Q152.09 11.88 152.09 10.22L152.09 10.22Q152.09 9.07 151.76 7.68Q151.44 6.29 150.70 5.06L150.70 5.06Q149.95 3.86 148.73 3.04Q147.50 2.21 145.73 2.21L145.73 2.21Q143.93 2.21 142.68 3.01Q141.43 3.82 140.66 5.02L140.66 5.02Q139.90 6.24 139.55 7.62Q139.20 9 139.20 10.15L139.20 10.15Q139.20 11.83 139.69 13.28Q140.18 14.74 141.05 15.82L141.05 15.82Q141.91 16.90 143.08 17.53Q144.24 18.17 145.56 18.17L145.56 18.17Q146.88 18.17 148.07 17.56Q149.26 16.94 150.14 15.86ZM141.41 15.72L141.41 15.72Q140.57 14.71 140.06 13.30Q139.56 11.88 139.56 10.13L139.56 10.13Q139.56 8.38 140.04 6.97Q140.52 5.57 141.36 4.56L141.36 4.56Q142.18 3.58 143.29 3.06Q144.41 2.54 145.70 2.54L145.70 2.54Q147.00 2.54 148.10 3.10Q149.21 3.65 150.02 4.63L150.02 4.63Q150.84 5.64 151.30 7.07Q151.75 8.50 151.75 10.25L151.75 10.25Q151.75 11.98 151.22 13.39Q150.70 14.81 149.83 15.79L149.83 15.79Q148.97 16.78 147.86 17.30Q146.76 17.83 145.61 17.83L145.61 17.83Q144.46 17.83 143.35 17.28Q142.25 16.73 141.41 15.72ZM161.16 18L165.34 18L165.34 17.66L163.39 17.66L163.39 12.72Q163.39 11.95 163.72 11.29Q164.04 10.63 164.62 10.15L164.62 10.15Q165.17 9.70 165.90 9.43Q166.63 9.17 167.45 9.17L167.45 9.17Q168.50 9.22 169.09 9.85Q169.68 10.49 169.73 11.35L169.73 11.35L169.73 17.66L167.83 17.66L167.83 18L172.01 18L172.01 17.66L170.06 17.66L170.06 11.52Q170.02 10.32 169.28 9.58Q168.55 8.83 167.28 8.83L167.28 8.83Q165.91 8.83 164.86 9.53Q163.80 10.22 163.32 11.35L163.32 11.35Q163.32 11.04 163.31 10.81Q163.30 10.58 163.30 10.27L163.30 10.27L163.25 9L161.26 9L161.26 9.34L163.06 9.34L163.06 17.66L161.16 17.66L161.16 18ZM181.70 16.78L181.70 16.78Q182.33 16.15 182.70 15.31Q183.07 14.47 183.07 13.49L183.07 13.49Q183.07 12.53 182.70 11.66Q182.33 10.80 181.70 10.15L181.70 10.15Q181.06 9.53 180.19 9.16Q179.33 8.78 178.37 8.78L178.37 8.78Q177.38 8.78 176.54 9.16Q175.70 9.53 175.08 10.15L175.08 10.15Q174.43 10.80 174.07 11.66Q173.71 12.53 173.71 13.49L173.71 13.49Q173.71 14.47 174.07 15.31Q174.43 16.15 175.08 16.78L175.08 16.78Q175.70 17.42 176.54 17.78Q177.38 18.14 178.37 18.14L178.37 18.14Q179.33 18.14 180.19 17.78Q181.06 17.42 181.70 16.78ZM175.32 16.54L175.32 16.54Q174.72 15.96 174.38 15.18Q174.05 14.40 174.05 13.49L174.05 13.49Q174.05 12.60 174.38 11.81Q174.72 11.02 175.32 10.42L175.32 10.42Q175.90 9.82 176.68 9.48Q177.46 9.14 178.37 9.14L178.37 9.14Q179.26 9.14 180.05 9.48Q180.84 9.82 181.44 10.42L181.44 10.42Q182.04 11.02 182.38 11.81Q182.71 12.60 182.71 13.49L182.71 13.49Q182.71 14.40 182.38 15.18Q182.04 15.96 181.44 16.54L181.44 16.54Q180.84 17.14 180.05 17.47Q179.26 17.81 178.37 17.81L178.37 17.81Q177.46 17.81 176.68 17.47Q175.90 17.14 175.32 16.54ZM184.75 18L188.93 18L188.93 17.66L186.98 17.66L186.98 12.72Q186.98 11.98 187.30 11.33Q187.61 10.68 188.14 10.22L188.14 10.22Q188.69 9.74 189.40 9.47Q190.10 9.19 190.90 9.17L190.90 9.17L190.90 8.83Q190.22 8.86 189.64 9.02Q189.05 9.19 188.54 9.50L188.54 9.50Q187.99 9.82 187.58 10.28Q187.18 10.75 186.91 11.35L186.91 11.35Q186.91 11.04 186.90 10.81Q186.89 10.58 186.89 10.27L186.89 10.27L186.84 9L184.85 9L184.85 9.34L186.65 9.34L186.65 17.66L184.75 17.66L184.75 18ZM192.58 18L196.75 18L196.75 17.66L194.81 17.66L194.81 12.72Q194.81 11.95 195.13 11.29Q195.46 10.63 196.03 10.15L196.03 10.15Q196.58 9.70 197.32 9.43Q198.05 9.17 198.86 9.17L198.86 9.17Q199.92 9.22 200.51 9.85Q201.10 10.49 201.14 11.35L201.14 11.35L201.14 17.66L199.25 17.66L199.25 18L203.42 18L203.42 17.66L201.48 17.66L201.48 12.58Q201.50 11.83 201.85 11.21Q202.20 10.58 202.75 10.13L202.75 10.13Q203.30 9.67 204.02 9.42Q204.74 9.17 205.54 9.17L205.54 9.17Q206.59 9.22 207.18 9.85Q207.77 10.49 207.82 11.35L207.82 11.35L207.82 17.66L205.92 17.66L205.92 18L210.10 18L210.10 17.66L208.15 17.66L208.15 11.52Q208.10 10.32 207.37 9.58Q206.64 8.83 205.37 8.83L205.37 8.83Q204.05 8.83 203.00 9.49Q201.96 10.15 201.46 11.23L201.46 11.23Q201.34 10.15 200.60 9.49Q199.87 8.83 198.70 8.83L198.70 8.83Q197.33 8.83 196.27 9.53Q195.22 10.22 194.74 11.35L194.74 11.35Q194.74 11.04 194.72 10.81Q194.71 10.58 194.71 10.27L194.71 10.27L194.66 9L192.67 9L192.67 9.34L194.47 9.34L194.47 17.66L192.58 17.66L192.58 18ZM220.78 18L222.86 18L222.86 17.66L221.11 17.66L221.11 9L220.87 9Q220.82 9.70 220.80 10.38Q220.78 11.06 220.78 11.76L220.78 11.76Q220.25 10.46 219.08 9.64Q217.92 8.81 216.43 8.81L216.43 8.81Q215.45 8.81 214.61 9.18Q213.77 9.55 213.14 10.18L213.14 10.18Q212.50 10.80 212.14 11.66Q211.78 12.53 211.78 13.49L211.78 13.49Q211.78 14.47 212.14 15.31Q212.50 16.15 213.14 16.78L213.14 16.78Q213.77 17.42 214.61 17.78Q215.45 18.14 216.43 18.14L216.43 18.14Q217.18 18.14 217.86 17.93Q218.54 17.71 219.12 17.30L219.12 17.30Q219.67 16.92 220.10 16.38Q220.54 15.84 220.80 15.19L220.80 15.19Q220.80 15.58 220.79 15.95Q220.78 16.32 220.78 16.70L220.78 16.70L220.78 18ZM216.43 9.14L216.43 9.14Q217.32 9.14 218.11 9.48Q218.90 9.82 219.50 10.42L219.50 10.42Q220.10 11.02 220.44 11.81Q220.78 12.60 220.78 13.49L220.78 13.49Q220.78 14.40 220.44 15.18Q220.10 15.96 219.50 16.54L219.50 16.54Q218.90 17.14 218.11 17.47Q217.32 17.81 216.43 17.81L216.43 17.81Q215.52 17.81 214.74 17.47Q213.96 17.14 213.38 16.54L213.38 16.54Q212.78 15.96 212.45 15.18Q212.11 14.40 212.11 13.49L212.11 13.49Q212.11 12.60 212.45 11.81Q212.78 11.02 213.38 10.42L213.38 10.42Q213.96 9.82 214.74 9.48Q215.52 9.14 216.43 9.14ZM224.54 18L228.72 18L228.72 17.66L226.61 17.66L226.61 0L224.52 0L224.52 0.34L226.27 0.34L226.27 17.66L224.54 17.66L224.54 18Z"/></svg>