<svg xmlns="http://www.w3.org/2000/svg" xmlns:xlink="http://www.w3.org/1999/xlink" width="241.44000000000003" height="24"><path fill="black" d="M4.37 19.94L4.37 19.94Q5.04 19.22 5.42 18.20Q5.81 17.18 5.81 15.84L5.81 15.84L5.81 1.20L0.84 1.20L0.84 2.14L4.82 2.14L4.82 15.77Q4.82 16.87 4.52 17.72Q4.22 18.58 3.70 19.15L3.70 19.15Q3.17 19.78 2.44 20.10Q1.70 20.42 0.84 20.47L0.84 20.47L0.84 21.43Q1.87 21.41 2.78 21.02Q3.70 20.64 4.37 19.94ZM15.60 16.80L15.60 16.80Q16.22 16.15 16.60 15.31Q16.97 14.47 16.97 13.49L16.97 13.49Q16.97 12.53 16.60 11.66Q16.22 10.80 15.60 10.15L15.60 10.15Q14.95 9.53 14.08 9.16Q13.20 8.78 12.22 8.78L12.22 8.78Q11.23 8.78 10.37 9.16Q9.50 9.53 8.88 10.15L8.88 10.15Q8.23 10.80 7.87 11.66Q7.51 12.53 7.51 13.49L7.51 13.49Q7.51 14.47 7.87 15.32Q8.23 16.18 8.88 16.80L8.88 16.80Q9.50 17.45 10.36 17.81Q11.21 18.17 12.22 18.17L12.22 18.17Q13.20 18.17 14.08 17.81Q14.95 17.45 15.60 16.80ZM9.58 16.10L9.58 16.10Q9.07 15.62 8.78 14.95Q8.50 14.28 8.50 13.49L8.50 13.49Q8.50 12.72 8.78 12.05Q9.07 11.38 9.58 10.85L9.58 10.85Q10.08 10.34 10.75 10.06Q11.42 9.77 12.19 9.77L12.19 9.77Q12.96 9.77 13.64 10.06Q14.33 10.34 14.83 10.85L14.83 10.85Q15.36 11.38 15.65 12.05Q15.94 12.72 15.94 13.49L15.94 13.49Q15.94 14.28 15.65 14.95Q15.36 15.62 14.83 16.10L14.83 16.10Q14.33 16.63 13.64 16.92Q12.96 17.21 12.19 17.21L12.19 17.21Q11.42 17.21 10.75 16.92Q10.08 16.63 9.58 16.10ZM24.14 17.23L24.14 17.23Q24.48 16.85 24.64 16.38Q24.79 15.91 24.79 15.48L24.79 15.48Q24.79 14.71 24.47 14.26Q24.14 13.80 23.66 13.51L23.66 13.51Q23.16 13.22 22.60 13.04Q22.03 12.86 21.53 12.65L21.53 12.65Q21.05 12.46 20.70 12.16Q20.35 11.86 20.35 11.33L20.35 11.33Q20.35 10.92 20.50 10.63Q20.64 10.34 20.86 10.15L20.86 10.15Q21.10 9.98 21.42 9.90Q21.74 9.82 22.06 9.82L22.06 9.82Q22.46 9.82 22.82 9.91Q23.18 10.01 23.52 10.20L23.52 10.20L23.52 11.45L24.43 11.45L24.43 9.70Q24.19 9.48 23.90 9.32Q23.62 9.17 23.30 9.05L23.30 9.05Q22.92 8.93 22.63 8.89Q22.34 8.86 22.03 8.86L22.03 8.86Q21.60 8.86 21.10 9.01Q20.59 9.17 20.21 9.48L20.21 9.48Q19.82 9.79 19.60 10.25Q19.37 10.70 19.37 11.35L19.37 11.35Q19.37 12.14 19.69 12.59Q20.02 13.03 20.52 13.27L20.52 13.27Q21.02 13.51 21.60 13.68Q22.18 13.85 22.66 14.06L22.66 14.06Q23.16 14.26 23.47 14.59Q23.78 14.93 23.78 15.55L23.78 15.55Q23.78 15.98 23.63 16.28Q23.47 16.58 23.21 16.80L23.21 16.80Q22.92 17.02 22.58 17.12Q22.25 17.23 21.89 17.23L21.89 17.23Q21.36 17.23 20.88 17.15Q20.40 17.06 19.94 16.78L19.94 16.78L19.94 15.55L19.06 15.55L19.06 17.30Q19.61 17.83 20.34 18.01Q21.07 18.19 21.84 18.19L21.84 18.19Q22.66 18.19 23.22 17.93Q23.78 17.66 24.14 17.23ZM31.08 9.77L31.08 9.77Q32.02 9.77 32.77 10.28Q33.53 10.80 33.96 11.62L33.96 11.62Q32.33 12.26 30.71 12.90Q29.09 13.54 27.46 14.18L27.46 14.18Q27.29 13.37 27.48 12.59Q27.67 11.81 28.15 11.18L28.15 11.18Q28.66 10.54 29.41 10.15Q30.17 9.77 31.08 9.77ZM34.22 16.92L34.22 16.92L33.62 16.20Q33.12 16.68 32.47 16.94Q31.82 17.21 31.08 17.21L31.08 17.21Q29.95 17.21 29.06 16.63Q28.18 16.06 27.74 15.12L27.74 15.12Q29.62 14.35 31.48 13.63Q33.34 12.91 35.21 12.17L35.21 12.17Q34.97 11.45 34.58 10.84Q34.20 10.22 33.70 9.79L33.70 9.79Q33.17 9.31 32.50 9.06Q31.82 8.81 31.08 8.81L31.08 8.81Q30.10 8.81 29.24 9.18Q28.39 9.55 27.74 10.18L27.74 10.18Q27.10 10.80 26.74 11.66Q26.38 12.53 26.38 13.49L26.38 13.49Q26.38 14.47 26.74 15.31Q27.10 16.15 27.74 16.80L27.74 16.80Q28.39 17.45 29.24 17.81Q30.10 18.17 31.08 18.17L31.08 18.17Q32.02 18.17 32.81 17.83Q33.60 17.50 34.22 16.92ZM36.96 18L41.59 18L41.59 17.06L39.41 17.06L39.41 9.96L42.41 9.96L42.41 9L39.41 9L39.41 5.54Q39.41 4.46 39.72 3.62Q40.03 2.78 40.58 2.18L40.58 2.18Q41.11 1.58 41.84 1.27Q42.58 0.96 43.39 0.94L43.39 0.94L43.39 0Q42.34 0.05 41.44 0.42Q40.54 0.79 39.86 1.49L39.86 1.49Q39.19 2.18 38.81 3.22Q38.42 4.25 38.42 5.57L38.42 5.57L38.42 9L36.96 9L36.96 9.96L38.42 9.96L38.42 17.06L36.96 17.06L36.96 18ZM44.23 18L48.86 18L48.86 17.06L47.06 17.06L47.06 9L44.23 9L44.23 9.94L46.08 9.94L46.08 17.06L44.23 17.06L44.23 18ZM47.38 5.81L47.38 5.81Q47.38 5.47 47.14 5.24Q46.90 5.02 46.58 5.02L46.58 5.02Q46.30 5.02 46.06 5.24Q45.82 5.47 45.82 5.81L45.82 5.81Q45.82 6.14 46.06 6.37Q46.30 6.60 46.58 6.60L46.58 6.60Q46.90 6.60 47.14 6.37Q47.38 6.14 47.38 5.81ZM50.54 18L55.18 18L55.18 17.06L53.40 17.06L53.40 13.08Q53.40 12.36 53.70 11.76Q54 11.16 54.53 10.70L54.53 10.70Q55.01 10.27 55.68 10.03Q56.35 9.79 57.10 9.79L57.10 9.79Q58.10 9.84 58.62 10.40Q59.14 10.97 59.18 11.76L59.18 11.76L59.18 17.06L57.31 17.06L57.31 18L61.94 18L61.94 17.06L60.17 17.06L60.17 11.50Q60.12 10.30 59.35 9.55Q58.58 8.81 57.26 8.81L57.26 8.81Q55.92 8.81 54.86 9.50Q53.81 10.20 53.33 11.33L53.33 11.33Q53.30 10.92 53.28 10.60Q53.26 10.27 53.23 9.86L53.23 9.86L53.21 9L50.69 9L50.69 9.94L52.42 9.94L52.42 17.06L50.54 17.06L50.54 18ZM79.42 16.92L79.42 16.92Q80.09 16.32 80.48 15.46Q80.88 14.59 80.88 13.54L80.88 13.54Q80.86 11.88 80.20 10.97Q79.54 10.06 78.55 9.55L78.55 9.55Q77.52 9.05 76.36 8.76Q75.19 8.47 74.26 8.04L74.26 8.04Q73.44 7.68 72.91 7.09Q72.38 6.50 72.38 5.42L72.38 5.42Q72.38 4.78 72.59 4.18Q72.79 3.58 73.20 3.10L73.20 3.10Q73.61 2.62 74.24 2.33Q74.88 2.04 75.74 2.04L75.74 2.04Q76.73 2.04 77.46 2.27Q78.19 2.50 78.65 2.78L78.65 2.78L78.65 4.90L79.61 4.90L79.61 2.30Q79.15 1.94 78.64 1.69Q78.12 1.44 77.64 1.32L77.64 1.32Q77.14 1.20 76.66 1.15Q76.18 1.10 75.77 1.10L75.77 1.10Q74.57 1.10 73.73 1.50Q72.89 1.90 72.36 2.54L72.36 2.54Q71.83 3.19 71.60 4.00Q71.38 4.80 71.40 5.59L71.40 5.59Q71.45 6.77 71.93 7.46Q72.41 8.16 73.15 8.59L73.15 8.59Q73.87 9 74.75 9.26Q75.62 9.53 76.46 9.79L76.46 9.79Q77.18 10.06 77.82 10.33Q78.46 10.61 78.94 11.09L78.94 11.09Q79.39 11.50 79.64 12.12Q79.90 12.74 79.90 13.58L79.90 13.58Q79.90 14.42 79.54 15.11Q79.18 15.79 78.62 16.27L78.62 16.27Q78.02 16.73 77.28 16.99Q76.54 17.26 75.72 17.26L75.72 17.26Q74.38 17.26 73.42 16.82Q72.46 16.39 71.81 15.79L71.81 15.79L71.81 13.63L70.85 13.63L70.85 16.20Q71.11 16.51 71.57 16.86Q72.02 17.21 72.67 17.50L72.67 17.50Q73.27 17.81 74.08 18Q74.88 18.19 75.82 18.19L75.82 18.19Q76.85 18.19 77.78 17.87Q78.72 17.54 79.42 16.92ZM82.30 18L86.93 18L86.93 17.06L85.06 17.06L85.06 0L82.37 0L82.37 0.94L84.07 0.94L84.07 17.06L82.30 17.06L82.30 18ZM97.18 18L99.84 18L99.84 17.06L98.06 17.06L98.06 9L97.27 9Q97.22 9.53 97.20 10.07Q97.18 10.61 97.18 11.11L97.18 11.11Q96.77 10.18 95.76 9.49Q94.75 8.81 93.34 8.81L93.34 8.81Q92.33 8.81 91.48 9.18Q90.62 9.55 89.98 10.18L89.98 10.18Q89.33 10.82 88.97 11.69Q88.61 12.55 88.61 13.49L88.61 13.49Q88.61 14.47 88.97 15.31Q89.33 16.15 89.98 16.80L89.98 16.80Q90.62 17.45 91.48 17.81Q92.33 18.17 93.34 18.17L93.34 18.17Q94.06 18.17 94.69 17.98Q95.33 17.78 95.83 17.45L95.83 17.45Q96.31 17.14 96.66 16.74Q97.01 16.34 97.18 15.91L97.18 15.91Q97.18 16.22 97.18 16.48Q97.18 16.73 97.18 17.02L97.18 17.02L97.18 18ZM93.34 9.77L93.34 9.77Q94.10 9.77 94.78 10.04Q95.45 10.32 95.98 10.82L95.98 10.82Q96.48 11.33 96.78 12.01Q97.08 12.70 97.08 13.49L97.08 13.49Q97.08 14.28 96.78 14.96Q96.48 15.65 95.95 16.15L95.95 16.15Q95.45 16.66 94.78 16.93Q94.10 17.21 93.34 17.21L93.34 17.21Q92.57 17.21 91.92 16.94Q91.27 16.68 90.77 16.20L90.77 16.20Q90.22 15.70 89.90 15Q89.59 14.30 89.59 13.49L89.59 13.49Q89.59 12.72 89.87 12.05Q90.14 11.38 90.65 10.87L90.65 10.87Q91.13 10.34 91.82 10.06Q92.52 9.77 93.34 9.77ZM101.52 17.06L101.52 18L104.18 18L104.18 17.02Q104.18 16.73 104.18 16.48Q104.18 16.22 104.18 15.91L104.18 15.91Q104.33 16.34 104.69 16.74Q105.05 17.14 105.55 17.45L105.55 17.45Q106.03 17.78 106.67 17.98Q107.30 18.17 108.02 18.17L108.02 18.17Q109.01 18.17 109.87 17.81Q110.74 17.45 111.38 16.80L111.38 16.80Q112.01 16.15 112.38 15.31Q112.75 14.47 112.75 13.49L112.75 13.49Q112.75 12.53 112.38 11.66Q112.01 10.80 111.38 10.18L111.38 10.18Q110.74 9.55 109.87 9.18Q109.01 8.81 108.02 8.81L108.02 8.81Q107.33 8.81 106.70 9Q106.08 9.19 105.58 9.50L105.58 9.50Q105.07 9.84 104.74 10.24Q104.40 10.63 104.26 11.04L104.26 11.04Q104.28 10.68 104.28 10.48Q104.28 10.27 104.28 9.91L104.28 9.91L104.28 0L101.62 0L101.62 0.94L103.30 0.94L103.30 17.06L101.52 17.06ZM108.02 9.77L108.02 9.77Q108.79 9.77 109.46 10.04Q110.14 10.32 110.64 10.80L110.64 10.80Q111.17 11.30 111.46 12Q111.74 12.70 111.74 13.49L111.74 13.49Q111.74 14.28 111.46 14.95Q111.17 15.62 110.69 16.13L110.69 16.13Q110.16 16.63 109.49 16.92Q108.82 17.21 108.02 17.21L108.02 17.21Q107.26 17.21 106.58 16.93Q105.91 16.66 105.41 16.15L105.41 16.15Q104.88 15.65 104.58 14.96Q104.28 14.28 104.28 13.49L104.28 13.49Q104.28 12.72 104.56 12.05Q104.83 11.38 105.34 10.87L105.34 10.87Q105.84 10.34 106.52 10.06Q107.21 9.77 108.02 9.77ZM127.63 18L132.46 18L132.46 17.06L130.46 17.06L130.46 13.61L132.79 13.61L132.79 12.65L130.46 12.65L130.46 2.21L121.68 13.61L129.48 13.61L129.48 17.06L127.63 17.06L127.63 18ZM123.70 12.65L129.48 5.11L129.48 12.65L123.70 12.65ZM144.89 15.94L144.89 15.94Q145.80 14.88 146.34 13.42Q146.88 11.95 146.88 10.22L146.88 10.22Q146.88 8.81 146.50 7.38Q146.11 5.95 145.32 4.80L145.32 4.80Q144.53 3.67 143.33 2.94Q142.13 2.21 140.52 2.21L140.52 2.21Q138.89 2.21 137.66 2.92Q136.44 3.62 135.65 4.75L135.65 4.75Q134.83 5.90 134.41 7.32Q133.99 8.74 133.99 10.15L133.99 10.15Q133.99 11.88 134.51 13.34Q135.02 14.81 135.89 15.89L135.89 15.89Q136.78 16.94 137.93 17.56Q139.08 18.17 140.38 18.17L140.38 18.17Q141.65 18.17 142.82 17.58Q144 16.99 144.89 15.94ZM136.63 15.24L136.63 15.24Q135.89 14.30 135.44 13.01Q135.00 11.71 135.00 10.15L135.00 10.15Q135.00 8.74 135.40 7.48Q135.79 6.22 136.49 5.23L136.49 5.23Q137.21 4.27 138.22 3.72Q139.22 3.17 140.50 3.17L140.50 3.17Q141.77 3.17 142.76 3.76Q143.76 4.34 144.48 5.28L144.48 5.28Q145.15 6.26 145.52 7.55Q145.90 8.83 145.90 10.25L145.90 10.25Q145.90 11.78 145.43 13.08Q144.96 14.38 144.19 15.29L144.19 15.29Q143.42 16.22 142.44 16.72Q141.46 17.21 140.40 17.21L140.40 17.21Q139.34 17.21 138.36 16.69Q137.38 16.18 136.63 15.24ZM159.67 15.94L159.67 15.94Q160.58 14.88 161.12 13.42Q161.66 11.95 161.66 10.22L161.66 10.22Q161.66 8.81 161.28 7.38Q160.90 5.95 160.10 4.80L160.10 4.80Q159.31 3.67 158.11 2.94Q156.91 2.21 155.30 2.21L155.30 2.21Q153.67 2.21 152.45 2.92Q151.22 3.62 150.43 4.75L150.43 4.75Q149.62 5.90 149.20 7.32Q148.78 8.74 148.78 10.15L148.78 10.15Q148.78 11.88 149.29 13.34Q149.81 14.81 150.67 15.89L150.67 15.89Q151.56 16.94 152.71 17.56Q153.86 18.17 155.16 18.17L155.16 18.17Q156.43 18.17 157.61 17.58Q158.78 16.99 159.67 15.94ZM151.42 15.24L151.42 15.24Q150.67 14.30 150.23 13.01Q149.78 11.71 149.78 10.15L149.78 10.15Q149.78 8.74 150.18 7.48Q150.58 6.22 151.27 5.23L151.27 5.23Q151.99 4.27 153 3.72Q154.01 3.17 155.28 3.17L155.28 3.17Q156.55 3.17 157.55 3.76Q158.54 4.34 159.26 5.28L159.26 5.28Q159.94 6.26 160.31 7.55Q160.68 8.83 160.68 10.25L160.68 10.25Q160.68 11.78 160.21 13.08Q159.74 14.38 158.98 15.29L158.98 15.29Q158.21 16.22 157.22 16.72Q156.24 17.21 155.18 17.21L155.18 17.21Q154.13 17.21 153.14 16.69Q152.16 16.18 151.42 15.24ZM170.74 18L175.37 18L175.37 17.06L173.59 17.06L173.59 13.08Q173.59 12.36 173.89 11.76Q174.19 11.16 174.72 10.70L174.72 10.70Q175.20 10.27 175.87 10.03Q176.54 9.79 177.29 9.79L177.29 9.79Q178.30 9.84 178.81 10.40Q179.33 10.97 179.38 11.76L179.38 11.76L179.38 17.06L177.50 17.06L177.50 18L182.14 18L182.14 17.06L180.36 17.06L180.36 11.50Q180.31 10.30 179.54 9.55Q178.78 8.81 177.46 8.81L177.46 8.81Q176.11 8.81 175.06 9.50Q174 10.20 173.52 11.33L173.52 11.33Q173.50 10.92 173.47 10.60Q173.45 10.27 173.42 9.86L173.42 9.86L173.40 9L170.88 9L170.88 9.94L172.61 9.94L172.61 17.06L170.74 17.06L170.74 18ZM191.93 16.80L191.93 16.80Q192.55 16.15 192.92 15.31Q193.30 14.47 193.30 13.49L193.30 13.49Q193.30 12.53 192.92 11.66Q192.55 10.80 191.93 10.15L191.93 10.15Q191.28 9.53 190.40 9.16Q189.53 8.78 188.54 8.78L188.54 8.78Q187.56 8.78 186.70 9.16Q185.83 9.53 185.21 10.15L185.21 10.15Q184.56 10.80 184.20 11.66Q183.84 12.53 183.84 13.49L183.84 13.49Q183.84 14.47 184.20 15.32Q184.56 16.18 185.21 16.80L185.21 16.80Q185.83 17.45 186.68 17.81Q187.54 18.17 188.54 18.17L188.54 18.17Q189.53 18.17 190.40 17.81Q191.28 17.45 191.93 16.80ZM185.90 16.10L185.90 16.10Q185.40 15.62 185.11 14.95Q184.82 14.28 184.82 13.49L184.82 13.49Q184.82 12.72 185.11 12.05Q185.40 11.38 185.90 10.85L185.90 10.85Q186.41 10.34 187.08 10.06Q187.75 9.77 188.52 9.77L188.52 9.77Q189.29 9.77 189.97 10.06Q190.66 10.34 191.16 10.85L191.16 10.85Q191.69 11.38 191.98 12.05Q192.26 12.72 192.26 13.49L192.26 13.49Q192.26 14.28 191.98 14.95Q191.69 15.62 191.16 16.10L191.16 16.10Q190.66 16.63 189.97 16.92Q189.29 17.21 188.52 17.21L188.52 17.21Q187.75 17.21 187.08 16.92Q186.41 16.63 185.90 16.10ZM194.98 18L199.61 18L199.61 17.06L197.83 17.06L197.83 13.08Q197.83 12.34 198.14 11.70Q198.46 11.06 199.01 10.66L199.01 10.66Q199.49 10.25 200.12 10.02Q200.76 9.79 201.48 9.79L201.48 9.79L201.53 8.81Q200.98 8.83 200.44 9Q199.90 9.17 199.39 9.48L199.39 9.48Q198.86 9.79 198.44 10.26Q198.02 10.73 197.76 11.33L197.76 11.33Q197.74 10.92 197.74 10.80Q197.74 10.68 197.71 10.27L197.71 10.27L197.64 9L195.12 9L195.12 9.94L196.85 9.94L196.85 17.06L194.98 17.06L194.98 18ZM203.21 18L207.84 18L207.84 17.06L206.06 17.06L206.06 13.08Q206.06 12.36 206.36 11.76Q206.66 11.16 207.19 10.70L207.19 10.70Q207.67 10.27 208.34 10.03Q209.02 9.79 209.76 9.79L209.76 9.79Q210.77 9.84 211.28 10.40Q211.80 10.97 211.85 11.76L211.85 11.76L211.85 17.06L209.98 17.06L209.98 18L214.61 18L214.61 17.06L212.83 17.06L212.83 12.98Q212.86 12.29 213.17 11.70Q213.48 11.11 213.98 10.68L213.98 10.68Q214.49 10.27 215.15 10.03Q215.81 9.79 216.53 9.79L216.53 9.79Q217.54 9.84 218.05 10.40Q218.57 10.97 218.62 11.76L218.62 11.76L218.62 17.06L216.77 17.06L216.77 18L221.38 18L221.38 17.06L219.60 17.06L219.60 11.50Q219.55 10.30 218.80 9.55Q218.04 8.81 216.70 8.81L216.70 8.81Q215.38 8.83 214.36 9.48Q213.34 10.13 212.81 11.21L212.81 11.21Q212.69 10.13 211.92 9.47Q211.15 8.81 209.93 8.81L209.93 8.81Q208.56 8.83 207.52 9.52Q206.47 10.20 205.99 11.33L205.99 11.33Q205.97 10.92 205.94 10.60Q205.92 10.27 205.90 9.86L205.90 9.86L205.87 9L203.35 9L203.35 9.94L205.08 9.94L205.08 17.06L203.21 17.06L203.21 18ZM231.62 18L234.29 18L234.29 17.06L232.51 17.06L232.51 9L231.72 9Q231.67 9.53 231.65 10.07Q231.62 10.61 231.62 11.11L231.62 11.11Q231.22 10.18 230.21 9.49Q229.20 8.81 227.78 8.81L227.78 8.81Q226.78 8.81 225.92 9.18Q225.07 9.55 224.42 10.18L224.42 10.18Q223.78 10.82 223.42 11.69Q223.06 12.55 223.06 13.49L223.06 13.49Q223.06 14.47 223.42 15.31Q223.78 16.15 224.42 16.80L224.42 16.80Q225.07 17.45 225.92 17.81Q226.78 18.17 227.78 18.17L227.78 18.17Q228.50 18.17 229.14 17.98Q229.78 17.78 230.28 17.45L230.28 17.45Q230.76 17.14 231.11 16.74Q231.46 16.34 231.62 15.91L231.62 15.91Q231.62 16.22 231.62 16.48Q231.62 16.73 231.62 17.02L231.62 17.02L231.62 18ZM227.78 9.77L227.78 9.77Q228.55 9.77 229.22 10.04Q229.90 10.32 230.42 10.82L230.42 10.82Q230.93 11.33 231.23 12.01Q231.53 12.70 231.53 13.49L231.53 13.49Q231.53 14.28 231.23 14.96Q230.93 15.65 230.40 16.15L230.40 16.15Q229.90 16.66 229.22 16.93Q228.55 17.21 227.78 17.21L227.78 17.21Q227.02 17.21 226.37 16.94Q225.72 16.68 225.22 16.20L225.22 16.20Q224.66 15.70 224.35 15Q224.04 14.30 224.04 13.49L224.04 13.49Q224.04 12.72 224.32 12.05Q224.59 11.38 225.10 10.87L225.10 10.87Q225.58 10.34 226.27 10.06Q226.97 9.77 227.78 9.77ZM235.97 18L240.60 18L240.60 17.06L238.73 17.06L238.73 0L236.04 0L236.04 0.94L237.74 0.94L237.74 17.06L235.97 17.06L235.97 18Z"/></svg>