<svg xmlns="http://www.w3.org/2000/svg" xmlns:xlink="http://www.w3.org/1999/xlink" width="133.37109375" height="32.75390625"><path fill="black" d="M2.64 24.26L2.64 11.50L0.84 11.10L1.08 9.95L6 9.95L13.68 24.21L13.86 24.21L13.86 11.50L12.06 11.10L12.29 9.95L17.06 9.95L17.30 11.10L15.52 11.50L15.52 25.80L12.15 25.80L4.46 11.53L4.28 11.53L4.28 24.26L6.06 24.66L5.82 25.80L1.08 25.80L0.84 24.66L2.64 24.26ZM24.36 26.06L24.36 26.06Q21.81 26.06 20.44 24.70Q19.08 23.33 19.08 20.89L19.08 20.89L19.08 19.80Q19.08 16.57 20.56 14.70Q22.04 12.83 24.48 12.83L24.48 12.83Q27.04 12.83 28.46 14.20Q29.88 15.56 29.88 18.12L29.88 18.12L29.88 19.22Q29.88 22.32 28.41 24.19Q26.93 26.06 24.36 26.06ZM27.77 19.91L27.77 18.52Q27.77 16.51 26.85 15.39Q25.93 14.27 24.25 14.24L24.25 14.24Q23.60 14.24 22.96 14.44Q22.31 14.65 21.89 14.94L21.89 14.94Q21.59 15.63 21.39 16.73Q21.19 17.84 21.19 19.10L21.19 19.10L21.19 20.50Q21.19 22.46 22.20 23.56Q23.21 24.66 24.71 24.66L24.71 24.66Q25.30 24.66 25.92 24.47Q26.54 24.28 27.07 23.95L27.07 23.95Q27.43 23.19 27.60 22.14Q27.77 21.08 27.77 19.91L27.77 19.91ZM35.33 13.09L38.73 13.09L38.96 14.25L35.33 14.63L35.33 22.18Q35.33 23.43 35.70 24.04Q36.07 24.66 37.20 24.66L37.20 24.66Q37.57 24.66 38.03 24.54Q38.48 24.42 38.98 24.20L38.98 24.20L38.98 25.30Q38.44 25.65 37.74 25.86Q37.04 26.06 36.34 26.06L36.34 26.06Q34.70 26.06 33.96 25.22Q33.22 24.38 33.22 22.64L33.22 22.64L33.22 14.63L31.34 14.25L31.57 13.09L33.22 13.09L34.08 9.66L35.33 9.89L35.33 13.09ZM42.74 24.26L42.74 14.64L40.95 14.24L41.18 13.09L44.85 12.83L44.85 24.26L46.64 24.66L46.41 25.80L41.18 25.80L40.95 24.66L42.74 24.26ZM42.19 9.39L42.19 9.39Q42.19 8.73 42.53 8.24Q42.88 7.76 43.34 7.76L43.34 7.76Q44.00 7.76 44.48 8.10Q44.95 8.44 44.95 8.92L44.95 8.92Q44.95 9.57 44.61 10.05Q44.26 10.54 43.80 10.54L43.80 10.54Q43.15 10.54 42.67 10.20Q42.19 9.86 42.19 9.39ZM48.56 21.13L48.56 20.04Q48.56 16.57 50.04 14.70Q51.53 12.83 54.14 12.83L54.14 12.83Q55.03 12.83 55.93 13.01Q56.82 13.18 57.71 13.57L57.71 13.57L57.94 16.31L56.65 16.58L55.84 14.48Q55.44 14.37 55.02 14.30Q54.60 14.24 54.11 14.24L54.11 14.24Q53.38 14.24 52.68 14.41Q51.98 14.59 51.38 14.94L51.38 14.94Q51.12 15.64 50.89 16.81Q50.67 17.98 50.67 19.34L50.67 19.34L50.67 20.61Q50.67 22.49 51.76 23.57Q52.85 24.66 54.39 24.66L54.39 24.66Q55.23 24.66 56.09 24.44Q56.95 24.22 57.84 23.80L57.84 23.80L57.84 24.93Q57.04 25.43 55.99 25.75Q54.94 26.06 53.81 26.06L53.81 26.06Q51.34 26.06 49.95 24.79Q48.56 23.52 48.56 21.13L48.56 21.13ZM61.86 24.26L61.86 14.64L60.07 14.24L60.30 13.09L63.97 12.83L63.97 24.26L65.77 24.66L65.53 25.80L60.30 25.80L60.07 24.66L61.86 24.26ZM61.31 9.39L61.31 9.39Q61.31 8.73 61.66 8.24Q62.00 7.76 62.46 7.76L62.46 7.76Q63.13 7.76 63.60 8.10Q64.08 8.44 64.08 8.92L64.08 8.92Q64.08 9.57 63.73 10.05Q63.39 10.54 62.93 10.54L62.93 10.54Q62.27 10.54 61.79 10.20Q61.31 9.86 61.31 9.39ZM77.57 17.19L77.57 24.26L79.59 24.66L79.36 25.80L76.37 26.06L75.69 23.99Q74.78 25.10 73.73 25.58Q72.69 26.06 71.47 26.06L71.47 26.06Q69.83 26.06 68.83 25.24Q67.83 24.42 67.83 23.03L67.83 23.03Q67.83 20.88 69.73 19.79Q71.63 18.69 75.46 18.69L75.46 18.69L75.46 17.58Q75.46 15.82 74.82 15.03Q74.18 14.24 72.59 14.24L72.59 14.24Q72.21 14.24 71.72 14.29Q71.24 14.33 70.83 14.41L70.83 14.41L70.13 16.90L68.98 16.78L68.98 13.46Q69.68 13.22 70.72 13.03Q71.75 12.83 72.81 12.83L72.81 12.83Q75.21 12.83 76.39 13.89Q77.57 14.95 77.57 17.19L77.57 17.19ZM75.46 23.17L75.46 20.10Q73.70 20.10 72.34 20.33Q70.98 20.55 70.27 20.94L70.27 20.94Q70.13 21.27 70.03 21.69Q69.94 22.11 69.94 22.58L69.94 22.58Q69.94 23.55 70.58 24.11Q71.23 24.66 72.27 24.66L72.27 24.66Q73.15 24.66 74.00 24.22Q74.86 23.78 75.46 23.17L75.46 23.17ZM92.05 24.26L92.05 11.46L88.54 11.46L87.81 13.45L86.65 13.35L86.82 9.95L99.50 9.95L99.67 13.35L98.52 13.45L97.78 11.46L94.28 11.46L94.28 24.26L96.07 24.66L95.84 25.80L90.49 25.80L90.26 24.66L92.05 24.26ZM111.01 19.68L103.07 19.68L103.07 20.57Q103.07 22.54 104.15 23.60Q105.23 24.66 106.73 24.66L106.73 24.66Q107.71 24.66 108.64 24.45Q109.58 24.23 110.39 23.89L110.39 23.89L110.39 25.02Q109.37 25.56 108.25 25.81Q107.13 26.06 106.03 26.06L106.03 26.06Q103.62 26.06 102.29 24.75Q100.96 23.44 100.96 20.95L100.96 20.95L100.96 19.98Q100.96 16.62 102.45 14.72Q103.95 12.83 106.52 12.83L106.52 12.83Q108.90 12.83 109.96 14.04Q111.01 15.26 111.01 18.27L111.01 18.27L111.01 19.68ZM103.77 14.94L103.77 14.94Q103.51 15.60 103.33 16.54Q103.15 17.47 103.10 18.27L103.10 18.27L108.79 18.27Q108.79 16.14 108.17 15.19Q107.55 14.24 106.20 14.24L106.20 14.24Q105.50 14.24 104.84 14.45Q104.17 14.66 103.77 14.94ZM112.46 25.80L112.23 24.66L113.31 24.47L117.21 19.44L113.40 14.43L112.39 14.24L112.63 13.09L116.73 13.09L116.96 14.24L115.88 14.41L118.62 18L118.80 18L121.48 14.43L120.38 14.24L120.61 13.09L124.16 13.09L124.39 14.24L123.36 14.43L119.55 19.25L123.53 24.47L124.61 24.66L124.37 25.80L120.19 25.80L119.95 24.66L121.04 24.48L118.16 20.68L117.97 20.68L115.17 24.48L116.30 24.66L116.06 25.80L112.46 25.80ZM129 13.09L132.40 13.09L132.63 14.25L129 14.63L129 22.18Q129 23.43 129.37 24.04Q129.74 24.66 130.86 24.66L130.86 24.66Q131.24 24.66 131.70 24.54Q132.15 24.42 132.64 24.20L132.64 24.20L132.64 25.30Q132.11 25.65 131.41 25.86Q130.71 26.06 130.01 26.06L130.01 26.06Q128.37 26.06 127.63 25.22Q126.89 24.38 126.89 22.64L126.89 22.64L126.89 14.63L125.00 14.25L125.24 13.09L126.89 13.09L127.75 9.66L129 9.89L129 13.09Z"/></svg>