<svg xmlns="http://www.w3.org/2000/svg" xmlns:xlink="http://www.w3.org/1999/xlink" width="199.29600000000002" height="30.12"><path fill="black" d="M12.24 24.12L1.75 24.12L1.75 7.08L4.87 7.08L4.87 21.38L12.46 21.38L12.24 24.12ZM13.90 12L16.82 12L16.82 24.12L13.90 24.12L13.90 12ZM15.36 10.08L15.36 10.08Q14.50 10.08 13.99 9.55Q13.49 9.02 13.49 8.28L13.49 8.28Q13.49 7.54 13.99 7.01Q14.50 6.48 15.36 6.48L15.36 6.48Q16.22 6.48 16.73 7.01Q17.23 7.54 17.23 8.28L17.23 8.28Q17.23 9.02 16.73 9.55Q16.22 10.08 15.36 10.08ZM24.79 21.74L28.32 12L31.25 12L26.71 24.12L22.54 24.12L18.70 12L21.86 12L24.79 21.74ZM37.92 21.74L41.45 12L44.38 12L39.84 24.12L35.66 24.12L31.82 12L34.99 12L37.92 21.74ZM45.65 12L48.58 12L48.58 24.12L45.65 24.12L45.65 12ZM47.11 10.08L47.11 10.08Q46.25 10.08 45.74 9.55Q45.24 9.02 45.24 8.28L45.24 8.28Q45.24 7.54 45.74 7.01Q46.25 6.48 47.11 6.48L47.11 6.48Q47.98 6.48 48.48 7.01Q48.98 7.54 48.98 8.28L48.98 8.28Q48.98 9.02 48.48 9.55Q47.98 10.08 47.11 10.08ZM57.10 24.34L57.10 24.34Q54.34 24.34 52.73 22.74Q51.12 21.14 51.12 18.29L51.12 18.29Q51.12 16.37 51.91 14.90Q52.70 13.44 54.12 12.62Q55.54 11.81 57.38 11.81L57.38 11.81Q58.92 11.81 60.07 12.41Q61.22 13.01 61.94 14.28L61.94 14.28L59.86 15.86Q59.40 15.10 58.81 14.76Q58.22 14.42 57.38 14.42L57.38 14.42Q55.97 14.42 55.07 15.48Q54.17 16.54 54.17 18.26L54.17 18.26Q54.17 19.94 54.97 20.84Q55.78 21.74 57.29 21.74L57.29 21.74Q58.08 21.74 58.76 21.38Q59.45 21.02 59.90 20.26L59.90 20.26L61.94 21.89Q61.13 23.21 59.88 23.77Q58.63 24.34 57.10 24.34ZM75.53 24.34L75.53 24.34Q72.50 24.34 70.85 22.30Q69.19 20.26 69.19 16.08L69.19 16.08Q69.19 13.22 70.08 11.15Q70.97 9.07 72.55 7.96Q74.14 6.84 76.20 6.84L76.20 6.84Q80.11 6.84 81.53 10.58L81.53 10.58L79.01 11.76Q78.58 10.58 77.86 10.06Q77.14 9.53 76.03 9.53L76.03 9.53Q74.38 9.53 73.28 11.02Q72.19 12.50 72.19 15.36L72.19 15.36Q72.84 14.40 73.91 13.87Q74.98 13.34 76.30 13.34L76.30 13.34Q77.74 13.34 78.91 13.96Q80.09 14.57 80.78 15.73Q81.48 16.90 81.48 18.50L81.48 18.50Q81.48 20.16 80.74 21.48Q79.99 22.80 78.65 23.57Q77.30 24.34 75.53 24.34ZM75.50 21.86L75.50 21.86Q76.85 21.86 77.65 20.96Q78.46 20.06 78.46 18.77L78.46 18.77Q78.46 17.42 77.70 16.62Q76.94 15.82 75.60 15.82L75.60 15.82Q74.28 15.82 73.43 16.69Q72.58 17.57 72.58 18.89L72.58 18.89Q72.58 20.33 73.39 21.10Q74.21 21.86 75.50 21.86ZM89.42 24.34L89.42 24.34Q86.40 24.36 84.79 22.28Q83.18 20.21 83.18 15.91L83.18 15.91Q83.18 13.20 83.98 11.16Q84.77 9.12 86.22 7.98Q87.67 6.84 89.69 6.84L89.69 6.84Q92.47 6.84 94.04 9Q95.62 11.16 95.62 15.26L95.62 15.26Q95.62 17.98 94.86 20.02Q94.10 22.06 92.71 23.20Q91.32 24.34 89.42 24.34ZM89.35 21.67L89.35 21.67Q90.89 21.67 91.74 20.04Q92.59 18.41 92.59 15.26L92.59 15.26Q92.59 12.43 91.82 10.96Q91.06 9.48 89.62 9.48L89.62 9.48Q88.03 9.48 87.13 11.16Q86.23 12.84 86.23 15.86L86.23 15.86Q86.23 18.82 87.01 20.24Q87.79 21.67 89.35 21.67ZM103.82 24.34L103.82 24.34Q100.80 24.36 99.19 22.28Q97.58 20.21 97.58 15.91L97.58 15.91Q97.58 13.20 98.38 11.16Q99.17 9.12 100.62 7.98Q102.07 6.84 104.09 6.84L104.09 6.84Q106.87 6.84 108.44 9Q110.02 11.16 110.02 15.26L110.02 15.26Q110.02 17.98 109.26 20.02Q108.50 22.06 107.11 23.20Q105.72 24.34 103.82 24.34ZM103.75 21.67L103.75 21.67Q105.29 21.67 106.14 20.04Q106.99 18.41 106.99 15.26L106.99 15.26Q106.99 12.43 106.22 10.96Q105.46 9.48 104.02 9.48L104.02 9.48Q102.43 9.48 101.53 11.16Q100.63 12.84 100.63 15.86L100.63 15.86Q100.63 18.82 101.41 20.24Q102.19 21.67 103.75 21.67ZM121.30 24.12L118.39 24.12L118.39 12L121.32 12L121.18 15.05Q121.87 13.49 123.07 12.65Q124.27 11.81 125.81 11.81L125.81 11.81Q127.85 11.81 128.89 13.21Q129.94 14.62 129.91 17.23L129.91 17.23L129.86 24.12L126.94 24.12L126.98 17.47Q127.01 16.06 126.54 15.30Q126.07 14.54 125.04 14.54L125.04 14.54Q124.25 14.54 123.58 15Q122.90 15.46 122.40 16.55Q121.90 17.64 121.61 19.50Q121.32 21.36 121.30 24.12L121.30 24.12ZM138.55 11.81L138.55 11.81Q141.26 11.81 142.81 13.43Q144.36 15.05 144.36 17.81L144.36 17.81Q144.36 19.68 143.58 21.16Q142.80 22.63 141.38 23.48Q139.97 24.34 138.10 24.34L138.10 24.34Q135.38 24.34 133.84 22.73Q132.29 21.12 132.29 18.34L132.29 18.34Q132.29 16.46 133.07 14.99Q133.85 13.51 135.25 12.66Q136.66 11.81 138.55 11.81ZM138.19 21.77L138.19 21.77Q139.61 21.77 140.47 20.69Q141.34 19.61 141.34 17.81L141.34 17.81Q141.34 16.18 140.58 15.29Q139.82 14.40 138.50 14.40L138.50 14.40Q137.04 14.40 136.18 15.48Q135.31 16.56 135.31 18.34L135.31 18.34Q135.31 19.97 136.07 20.87Q136.82 21.77 138.19 21.77ZM155.16 12L154.68 14.83Q154.20 14.66 153.46 14.66L153.46 14.66Q152.16 14.66 151.37 15.61Q150.58 16.56 150.20 18.64Q149.83 20.71 149.83 24.12L149.83 24.12L146.93 24.12L146.93 16.30L146.90 12L149.83 12L149.69 15.38Q150.31 13.44 151.43 12.62Q152.54 11.81 153.82 11.81L153.82 11.81Q154.20 11.81 154.54 11.86Q154.87 11.90 155.16 12L155.16 12ZM159.60 24.12L156.70 24.12L156.70 12L159.62 12L159.48 14.98Q160.22 13.32 161.41 12.56Q162.60 11.81 163.97 11.81L163.97 11.81Q165.29 11.81 166.30 12.53Q167.30 13.25 167.74 14.78L167.74 14.78Q168.50 13.27 169.76 12.54Q171.02 11.81 172.37 11.81L172.37 11.81Q174.38 11.81 175.43 13.21Q176.47 14.62 176.45 17.23L176.45 17.23L176.40 24.12L173.47 24.12L173.52 17.33Q173.52 16.01 173.04 15.28Q172.56 14.54 171.55 14.54L171.55 14.54Q170.86 14.54 170.22 14.99Q169.58 15.43 169.09 16.51Q168.60 17.59 168.31 19.45Q168.02 21.31 168 24.12L168 24.12L165.10 24.12L165.10 17.33Q165.10 16.01 164.64 15.28Q164.18 14.54 163.18 14.54L163.18 14.54Q162.48 14.54 161.84 14.99Q161.21 15.43 160.72 16.51Q160.22 17.59 159.92 19.45Q159.62 21.31 159.60 24.12L159.60 24.12ZM188.59 12.05L190.73 12.05L190.73 24.12L187.75 24.12L187.85 22.01Q187.20 23.11 186.16 23.72Q185.11 24.34 183.77 24.34L183.77 24.34Q182.18 24.34 181.08 23.60Q179.98 22.87 179.40 21.58Q178.82 20.28 178.82 18.60L178.82 18.60Q178.82 16.58 179.62 15.06Q180.41 13.54 181.79 12.67Q183.17 11.81 184.90 11.81L184.90 11.81Q186.05 11.81 186.94 12.30Q187.82 12.79 188.30 13.61L188.30 13.61L188.59 12.05ZM185.11 14.40L185.11 14.40Q183.62 14.40 182.74 15.53Q181.85 16.66 181.85 18.48L181.85 18.48Q181.85 20.04 182.52 20.90Q183.19 21.77 184.37 21.77L184.37 21.77Q185.33 21.77 186.11 21.22Q186.89 20.66 187.34 19.68Q187.80 18.70 187.80 17.42L187.80 17.42Q187.80 16.01 187.08 15.20Q186.36 14.40 185.11 14.40ZM197.35 24.34L197.35 24.34Q195.62 24.34 194.74 23.40Q193.85 22.46 193.85 20.74L193.85 20.74L193.85 6.36L196.78 6.36L196.78 20.50Q196.78 21.79 197.98 21.79L197.98 21.79Q198.58 21.79 199.03 21.50L199.03 21.50L199.75 23.64Q199.37 23.93 198.72 24.13Q198.07 24.34 197.35 24.34Z"/></svg>