<svg xmlns="http://www.w3.org/2000/svg" xmlns:xlink="http://www.w3.org/1999/xlink" width="94.224" height="28.656000000000002"><path fill="black" d="M1.03 15.12L1.03 15.12Q1.03 12.10 1.86 10.13Q2.69 8.16 4.31 7.18Q5.93 6.19 8.35 6.19L8.35 6.19Q9.02 6.19 9.67 6.24Q10.32 6.29 10.93 6.37Q11.54 6.46 12.12 6.59Q12.70 6.72 13.25 6.89L13.25 6.89L12.86 8.57Q11.76 8.26 10.67 8.11Q9.58 7.97 8.50 7.97L8.50 7.97Q6.72 7.97 5.52 8.75Q4.32 9.53 3.72 11.11Q3.12 12.70 3.12 15.14L3.12 15.14Q3.12 17.42 3.70 18.90Q4.27 20.38 5.40 21.08Q6.53 21.79 8.16 21.79L8.16 21.79Q9.29 21.79 10.24 21.67Q11.18 21.55 11.95 21.29L11.95 21.29L11.95 16.32L7.94 16.32L7.94 14.66L13.82 14.66L13.82 22.49Q12.72 22.97 11.20 23.22Q9.67 23.47 7.94 23.47L7.94 23.47Q5.64 23.47 4.12 22.56Q2.59 21.65 1.81 19.79Q1.03 17.93 1.03 15.12ZM21.62 23.47L21.62 23.47Q20.30 23.47 19.27 23.11Q18.24 22.75 17.53 21.98Q16.82 21.22 16.45 20.02Q16.08 18.82 16.08 17.14L16.08 17.14Q16.08 15.19 16.52 13.84Q16.97 12.48 17.78 11.66Q18.60 10.85 19.67 10.49Q20.74 10.13 22.01 10.13L22.01 10.13Q24.46 10.13 25.66 11.44Q26.86 12.74 26.86 15.67L26.86 15.67Q26.86 15.82 26.84 16.08Q26.83 16.34 26.81 16.58L26.81 16.58Q26.30 16.61 25.45 16.68Q24.60 16.75 23.47 16.82Q22.34 16.90 21 16.94Q19.66 16.99 18.17 17.02L18.17 17.02Q18.14 17.14 18.14 17.26Q18.14 17.38 18.14 17.52L18.14 17.52Q18.14 19.08 18.59 20.03Q19.03 20.98 19.88 21.41Q20.74 21.84 21.96 21.84L21.96 21.84Q22.73 21.84 23.52 21.76Q24.31 21.67 25.04 21.53Q25.78 21.38 26.40 21.24L26.40 21.24L26.66 22.75Q26.02 22.97 25.21 23.14Q24.41 23.30 23.52 23.39Q22.63 23.47 21.62 23.47ZM18.19 15.62L18.19 15.62Q19.34 15.62 20.41 15.59Q21.48 15.55 22.38 15.50Q23.28 15.46 23.90 15.41Q24.53 15.36 24.82 15.34L24.82 15.34Q24.79 13.99 24.48 13.18Q24.17 12.36 23.52 11.99Q22.87 11.62 21.86 11.62L21.86 11.62Q21.24 11.62 20.64 11.80Q20.04 11.98 19.52 12.42Q19.01 12.86 18.66 13.64Q18.31 14.42 18.19 15.62ZM28.58 16.78L28.58 16.78Q28.58 15.07 28.87 13.81Q29.16 12.55 29.81 11.75Q30.46 10.94 31.54 10.54Q32.62 10.13 34.20 10.13L34.20 10.13Q35.78 10.13 36.88 10.54Q37.97 10.94 38.62 11.75Q39.26 12.55 39.55 13.81Q39.84 15.07 39.84 16.78L39.84 16.78Q39.84 18.53 39.53 19.80Q39.22 21.07 38.54 21.88Q37.87 22.68 36.80 23.08Q35.74 23.47 34.20 23.47L34.20 23.47Q32.69 23.47 31.62 23.08Q30.55 22.68 29.88 21.88Q29.21 21.07 28.90 19.80Q28.58 18.53 28.58 16.78ZM30.62 16.78L30.62 16.78Q30.62 18.67 31.00 19.80Q31.37 20.93 32.16 21.42Q32.95 21.91 34.20 21.91L34.20 21.91Q35.47 21.91 36.26 21.42Q37.06 20.93 37.42 19.80Q37.78 18.67 37.78 16.78L37.78 16.78Q37.78 14.90 37.45 13.79Q37.13 12.67 36.34 12.18Q35.54 11.69 34.20 11.69L34.20 11.69Q32.88 11.69 32.09 12.18Q31.30 12.67 30.96 13.79Q30.62 14.90 30.62 16.78ZM42.26 10.37L44.09 10.37L44.09 11.95Q44.81 11.30 45.43 10.91Q46.06 10.51 46.70 10.32Q47.35 10.13 48.05 10.13L48.05 10.13Q48.55 10.13 49.03 10.20Q49.51 10.27 49.92 10.39L49.92 10.39L49.58 12.22Q49.15 12.10 48.68 12.04Q48.22 11.98 47.81 11.98L47.81 11.98Q46.97 11.98 46.09 12.32Q45.22 12.67 44.26 13.56L44.26 13.56L44.26 23.23L42.26 23.23L42.26 10.37ZM50.71 20.14L50.71 20.14Q50.71 18.98 51.19 18.24Q51.67 17.50 52.66 17.05Q53.64 16.61 55.08 16.36Q56.52 16.10 58.44 15.94L58.44 15.94L58.44 14.14Q58.44 13.03 57.71 12.44Q56.98 11.86 55.54 11.86L55.54 11.86Q55.06 11.86 54.46 11.90Q53.86 11.95 53.21 12.07Q52.56 12.19 51.86 12.41L51.86 12.41L51.50 10.78Q52.54 10.46 53.62 10.30Q54.70 10.13 55.66 10.13L55.66 10.13Q57.24 10.13 58.31 10.57Q59.38 11.02 59.92 11.90Q60.46 12.79 60.46 14.11L60.46 14.11L60.46 20.35Q60.46 21.14 60.68 21.42Q60.91 21.70 61.30 21.70L61.30 21.70Q61.44 21.70 61.61 21.67Q61.78 21.65 61.97 21.58L61.97 21.58L62.18 23.06Q61.82 23.26 61.43 23.36Q61.03 23.47 60.60 23.47L60.60 23.47Q59.74 23.47 59.23 23.03Q58.73 22.58 58.58 21.67L58.58 21.67Q58.01 22.13 57.30 22.55Q56.59 22.97 55.76 23.22Q54.94 23.47 53.95 23.47L53.95 23.47Q53.21 23.47 52.62 23.26Q52.03 23.04 51.60 22.62Q51.17 22.20 50.94 21.58Q50.71 20.95 50.71 20.14ZM52.75 19.97L52.75 19.97Q52.75 21 53.27 21.52Q53.78 22.03 54.65 22.03L54.65 22.03Q55.32 22.03 55.99 21.82Q56.66 21.60 57.30 21.23Q57.94 20.86 58.44 20.38L58.44 20.38L58.44 17.14Q57.14 17.26 56.10 17.41Q55.06 17.57 54.30 17.88Q53.54 18.19 53.15 18.70Q52.75 19.20 52.75 19.97ZM65.76 23.23L63.77 23.23L63.77 10.37L65.59 10.37L65.59 11.50Q66.26 11.06 66.94 10.78Q67.61 10.49 68.32 10.32Q69.02 10.15 69.79 10.15L69.79 10.15Q70.51 10.15 71.05 10.33Q71.59 10.51 71.98 10.84Q72.36 11.16 72.60 11.62L72.60 11.62Q73.22 11.21 73.91 10.88Q74.59 10.56 75.40 10.34Q76.20 10.13 77.14 10.13L77.14 10.13Q77.86 10.13 78.42 10.31Q78.98 10.49 79.37 10.82Q79.75 11.16 80.00 11.60Q80.26 12.05 80.36 12.58Q80.47 13.10 80.47 13.66L80.47 13.66L80.47 23.23L78.46 23.23L78.46 14.21Q78.46 13.80 78.36 13.38Q78.26 12.96 78.04 12.61Q77.81 12.26 77.38 12.06Q76.94 11.86 76.27 11.86L76.27 11.86Q75.62 11.86 75.02 12.01Q74.42 12.17 73.91 12.41Q73.39 12.65 72.96 12.91L72.96 12.91Q73.06 13.20 73.09 13.51Q73.13 13.82 73.13 14.11L73.13 14.11L73.13 23.23L71.14 23.23L71.14 14.26Q71.14 13.82 71.04 13.40Q70.94 12.98 70.70 12.65Q70.46 12.31 70.04 12.10Q69.62 11.88 68.95 11.88L68.95 11.88Q68.38 11.88 67.85 12.01Q67.32 12.14 66.80 12.37Q66.29 12.60 65.76 12.91L65.76 12.91L65.76 23.23ZM82.68 20.14L82.68 20.14Q82.68 18.98 83.16 18.24Q83.64 17.50 84.62 17.05Q85.61 16.61 87.05 16.36Q88.49 16.10 90.41 15.94L90.41 15.94L90.41 14.14Q90.41 13.03 89.68 12.44Q88.94 11.86 87.50 11.86L87.50 11.86Q87.02 11.86 86.42 11.90Q85.82 11.95 85.18 12.07Q84.53 12.19 83.83 12.41L83.83 12.41L83.47 10.78Q84.50 10.46 85.58 10.30Q86.66 10.13 87.62 10.13L87.62 10.13Q89.21 10.13 90.28 10.57Q91.34 11.02 91.88 11.90Q92.42 12.79 92.42 14.11L92.42 14.11L92.42 20.35Q92.42 21.14 92.65 21.42Q92.88 21.70 93.26 21.70L93.26 21.70Q93.41 21.70 93.58 21.67Q93.74 21.65 93.94 21.58L93.94 21.58L94.15 23.06Q93.79 23.26 93.40 23.36Q93.00 23.47 92.57 23.47L92.57 23.47Q91.70 23.47 91.20 23.03Q90.70 22.58 90.55 21.67L90.55 21.67Q89.98 22.13 89.27 22.55Q88.56 22.97 87.73 23.22Q86.90 23.47 85.92 23.47L85.92 23.47Q85.18 23.47 84.59 23.26Q84.00 23.04 83.57 22.62Q83.14 22.20 82.91 21.58Q82.68 20.95 82.68 20.14ZM84.72 19.97L84.72 19.97Q84.72 21 85.24 21.52Q85.75 22.03 86.62 22.03L86.62 22.03Q87.29 22.03 87.96 21.82Q88.63 21.60 89.27 21.23Q89.90 20.86 90.41 20.38L90.41 20.38L90.41 17.14Q89.11 17.26 88.07 17.41Q87.02 17.57 86.27 17.88Q85.51 18.19 85.12 18.70Q84.72 19.20 84.72 19.97Z"/></svg>