<svg xmlns="http://www.w3.org/2000/svg" xmlns:xlink="http://www.w3.org/1999/xlink" width="391.94399999999996" height="32.64"><path fill="black" d="M6.94 25.63L0.58 25.63L0.58 24.26L1.46 24.26Q1.85 24.26 2.16 24.16Q2.47 24.05 2.64 23.72Q2.81 23.40 2.81 22.75L2.81 22.75L2.81 11.28Q2.81 10.66 2.64 10.36Q2.47 10.06 2.20 9.96Q1.92 9.86 1.58 9.86L1.58 9.86L0.58 9.86L0.58 8.50L6.29 8.50L14.71 19.94L14.71 11.28Q14.71 10.70 14.54 10.40Q14.38 10.10 14.11 9.98Q13.85 9.86 13.51 9.86L13.51 9.86L12.50 9.86L12.50 8.50L18.86 8.50L18.86 9.86L17.83 9.86Q17.50 9.86 17.22 10.00Q16.94 10.13 16.79 10.44Q16.63 10.75 16.63 11.38L16.63 11.38L16.63 25.63L14.23 25.63L4.73 12.65L4.73 22.75Q4.73 23.40 4.86 23.72Q4.99 24.05 5.27 24.16Q5.54 24.26 5.90 24.26L5.90 24.26L6.94 24.26L6.94 25.63ZM26.64 25.87L26.64 25.87Q23.64 25.87 21.92 24.19Q20.21 22.51 20.21 19.13L20.21 19.13Q20.21 15.74 21.85 14.09Q23.50 12.43 26.71 12.43L26.71 12.43Q29.71 12.43 31.44 14.09Q33.17 15.74 33.17 19.13L33.17 19.13Q33.17 22.51 31.51 24.19Q29.86 25.87 26.64 25.87ZM26.69 24.26L26.69 24.26Q27.50 24.26 27.98 23.68Q28.46 23.09 28.68 21.95Q28.90 20.81 28.90 19.13L28.90 19.13Q28.90 16.61 28.39 15.34Q27.89 14.06 26.66 14.06L26.66 14.06Q25.44 14.06 24.96 15.34Q24.48 16.61 24.48 19.13L24.48 19.13Q24.48 21.65 24.97 22.96Q25.46 24.26 26.69 24.26ZM40.32 25.87L40.32 25.87Q38.59 25.87 37.56 25.02Q36.53 24.17 36.53 22.06L36.53 22.06L36.53 14.50L34.75 14.50L34.75 13.18Q35.66 13.18 36.30 12.82Q36.94 12.46 37.30 12.07L37.30 12.07Q37.63 11.71 37.93 11.14Q38.23 10.56 38.40 9.77L38.40 9.77L40.75 9.77L40.75 12.77L43.78 12.77L43.78 14.50L40.75 14.50L40.75 21.67Q40.75 22.70 41.06 23.18Q41.38 23.66 42.24 23.66L42.24 23.66Q42.72 23.66 43.16 23.59Q43.61 23.52 43.99 23.42L43.99 23.42L43.99 25.18Q43.58 25.37 42.65 25.62Q41.71 25.87 40.32 25.87ZM51.94 25.87L51.94 25.87Q48.94 25.87 47.22 24.19Q45.50 22.51 45.50 19.13L45.50 19.13Q45.50 15.74 47.15 14.09Q48.79 12.43 52.01 12.43L52.01 12.43Q55.01 12.43 56.74 14.09Q58.46 15.74 58.46 19.13L58.46 19.13Q58.46 22.51 56.81 24.19Q55.15 25.87 51.94 25.87ZM51.98 24.26L51.98 24.26Q52.80 24.26 53.28 23.68Q53.76 23.09 53.98 21.95Q54.19 20.81 54.19 19.13L54.19 19.13Q54.19 16.61 53.69 15.34Q53.18 14.06 51.96 14.06L51.96 14.06Q50.74 14.06 50.26 15.34Q49.78 16.61 49.78 19.13L49.78 19.13Q49.78 21.65 50.27 22.96Q50.76 24.26 51.98 24.26ZM72.36 25.87L72.36 25.87Q70.56 25.87 69.41 25.55Q68.26 25.22 67.60 24.72Q66.94 24.22 66.67 23.63Q66.41 23.04 66.41 22.54L66.41 22.54Q66.41 21.58 66.84 21.04Q67.27 20.50 67.94 20.27Q68.62 20.04 69.38 20.04L69.38 20.04Q69.38 21.55 69.86 22.50Q70.34 23.45 71.14 23.89Q71.93 24.34 72.82 24.34L72.82 24.34Q74.16 24.34 74.89 23.59Q75.62 22.85 75.62 21.91L75.62 21.91Q75.62 21.12 75.13 20.54Q74.64 19.97 73.73 19.49Q72.82 19.01 71.50 18.48L71.50 18.48Q69.72 17.74 68.72 16.94Q67.73 16.15 67.32 15.20Q66.91 14.26 66.91 13.15L66.91 13.15Q66.91 11.64 67.73 10.55Q68.54 9.46 69.95 8.86Q71.35 8.26 73.10 8.26L73.10 8.26Q74.98 8.26 76.16 8.68Q77.35 9.10 77.90 9.76Q78.46 10.42 78.46 11.16L78.46 11.16Q78.46 12.05 77.70 12.65Q76.94 13.25 75.22 13.25L75.22 13.25Q75.22 12.48 74.94 11.70Q74.66 10.92 74.09 10.37Q73.51 9.82 72.62 9.82L72.62 9.82Q71.69 9.82 71.04 10.31Q70.39 10.80 70.39 11.83L70.39 11.83Q70.39 12.38 70.70 12.92Q71.02 13.46 71.90 14.04Q72.79 14.62 74.50 15.31L74.50 15.31Q76.25 16.01 77.27 16.79Q78.29 17.57 78.71 18.49Q79.13 19.42 79.13 20.57L79.13 20.57Q79.13 22.13 78.30 23.32Q77.47 24.50 75.95 25.19Q74.42 25.87 72.36 25.87ZM87.60 25.87L87.60 25.87Q84.34 25.87 82.73 24.13Q81.12 22.39 81.12 19.25L81.12 19.25Q81.12 15.86 82.74 14.15Q84.36 12.43 87.31 12.43L87.31 12.43Q90.05 12.43 91.62 13.90Q93.19 15.36 93.19 18.22L93.19 18.22L93.19 19.51L85.37 19.51Q85.42 21.82 86.23 22.88Q87.05 23.95 88.56 23.95L88.56 23.95Q89.81 23.95 90.60 23.35Q91.39 22.75 91.78 21.86L91.78 21.86Q92.18 22.01 92.41 22.32Q92.64 22.63 92.64 23.06L92.64 23.06Q92.64 23.76 92.12 24.41Q91.61 25.06 90.50 25.46Q89.40 25.87 87.60 25.87ZM85.42 17.88L89.02 17.88Q89.02 16.06 88.64 15.07Q88.27 14.09 87.41 14.09L87.41 14.09Q86.52 14.09 85.98 15.06Q85.44 16.03 85.42 17.88L85.42 17.88ZM102.94 25.63L94.49 25.63L94.49 24.26L94.58 24.26Q95.14 24.26 95.52 24.14Q95.90 24.02 96.12 23.65Q96.34 23.28 96.34 22.54L96.34 22.54L96.34 15.77Q96.34 15.05 96.16 14.70Q95.98 14.35 95.62 14.24Q95.26 14.14 94.73 14.14L94.73 14.14L94.66 14.14L94.66 12.77L99.91 12.77L100.39 14.83L100.51 14.83Q100.87 13.99 101.35 13.46Q101.83 12.94 102.50 12.70Q103.18 12.46 104.14 12.46L104.14 12.46Q105.55 12.46 106.19 13.07Q106.82 13.68 106.82 14.64L106.82 14.64Q106.82 15.89 105.92 16.48Q105.02 17.06 103.49 17.06L103.49 17.06Q103.49 16.39 103.39 15.95Q103.30 15.50 103.07 15.26Q102.84 15.02 102.38 15.02L102.38 15.02Q101.86 15.02 101.51 15.38Q101.16 15.74 100.96 16.33Q100.75 16.92 100.66 17.58Q100.56 18.24 100.56 18.79L100.56 18.79L100.56 22.66Q100.56 23.35 100.75 23.70Q100.94 24.05 101.30 24.16Q101.66 24.26 102.12 24.26L102.12 24.26L102.94 24.26L102.94 25.63ZM115.49 25.63L107.52 25.63L107.52 24.26L107.81 24.26Q108.22 24.26 108.59 24.12Q108.96 23.98 109.19 23.62Q109.42 23.26 109.42 22.58L109.42 22.58L109.42 15.67Q109.42 15.05 109.18 14.72Q108.94 14.40 108.56 14.27Q108.19 14.14 107.81 14.14L107.81 14.14L107.42 14.14L107.42 12.77L113.62 12.77L113.62 22.63Q113.62 23.28 113.84 23.63Q114.07 23.98 114.44 24.12Q114.82 24.26 115.20 24.26L115.20 24.26L115.49 24.26L115.49 25.63ZM111.38 10.70L111.38 10.70Q110.40 10.70 109.74 10.25Q109.08 9.79 109.08 8.88L109.08 8.88Q109.08 7.92 109.74 7.49Q110.40 7.06 111.38 7.06L111.38 7.06Q112.34 7.06 113.04 7.49Q113.74 7.92 113.74 8.88L113.74 8.88Q113.74 9.79 113.04 10.25Q112.34 10.70 111.38 10.70ZM125.57 25.63L116.33 25.63L116.33 24.26L116.95 24.26Q117.22 24.26 117.60 24.16Q117.98 24.05 118.26 23.72Q118.54 23.40 118.54 22.75L118.54 22.75L118.54 14.59L116.42 14.59L116.42 12.77L118.54 12.77L118.54 12.00Q118.54 9.74 119.72 8.47Q120.91 7.20 123.70 7.20L123.70 7.20Q125.35 7.20 126.25 7.45Q127.15 7.70 127.48 8.11Q127.80 8.52 127.80 8.98L127.80 8.98Q127.80 9.48 127.52 9.86Q127.25 10.25 126.59 10.48Q125.93 10.70 124.78 10.70L124.78 10.70Q124.78 10.34 124.68 9.86Q124.58 9.38 124.38 9.02Q124.18 8.66 123.79 8.66L123.79 8.66Q123.26 8.66 123.00 9.28Q122.74 9.89 122.74 11.50L122.74 11.50L122.74 12.77L126.02 12.77L126.02 14.59L122.74 14.59L122.74 22.75Q122.74 23.40 123.01 23.72Q123.29 24.05 123.66 24.16Q124.03 24.26 124.34 24.26L124.34 24.26L125.57 24.26L125.57 25.63ZM142.68 25.87L142.68 25.87Q139.63 25.87 137.63 24.77Q135.62 23.66 134.62 21.68Q133.61 19.70 133.61 17.04L133.61 17.04Q133.61 14.45 134.65 12.47Q135.70 10.49 137.74 9.37Q139.78 8.26 142.80 8.26L142.80 8.26Q144.89 8.26 146.28 8.64Q147.67 9.02 148.37 9.66Q149.06 10.30 149.06 11.09L149.06 11.09Q149.06 11.95 148.21 12.61Q147.36 13.27 145.63 13.27L145.63 13.27Q145.63 12.19 145.30 11.45Q144.96 10.70 144.34 10.30Q143.71 9.89 142.73 9.89L142.73 9.89Q141.10 9.89 140.10 10.73Q139.10 11.57 138.65 13.16Q138.19 14.76 138.19 17.04L138.19 17.04Q138.19 19.32 138.67 20.90Q139.15 22.49 140.22 23.32Q141.29 24.14 143.04 24.14L143.04 24.14Q143.38 24.14 143.75 24.11Q144.12 24.07 144.48 24.02L144.48 24.02L144.48 20.62Q144.48 19.99 144.32 19.62Q144.17 19.25 143.82 19.07Q143.47 18.89 142.90 18.89L142.90 18.89L142.49 18.89L142.49 17.52L150.41 17.52L150.41 18.89L150.14 18.89Q149.66 18.89 149.36 19.07Q149.06 19.25 148.94 19.64Q148.82 20.04 148.82 20.71L148.82 20.71L148.82 24.50Q147.36 25.18 145.86 25.52Q144.36 25.87 142.68 25.87ZM158.83 25.87L158.83 25.87Q155.57 25.87 153.96 24.13Q152.35 22.39 152.35 19.25L152.35 19.25Q152.35 15.86 153.97 14.15Q155.59 12.43 158.54 12.43L158.54 12.43Q161.28 12.43 162.85 13.90Q164.42 15.36 164.42 18.22L164.42 18.22L164.42 19.51L156.60 19.51Q156.65 21.82 157.46 22.88Q158.28 23.95 159.79 23.95L159.79 23.95Q161.04 23.95 161.83 23.35Q162.62 22.75 163.01 21.86L163.01 21.86Q163.42 22.01 163.64 22.32Q163.87 22.63 163.87 23.06L163.87 23.06Q163.87 23.76 163.36 24.41Q162.84 25.06 161.74 25.46Q160.63 25.87 158.83 25.87ZM156.65 17.88L160.25 17.88Q160.25 16.06 159.88 15.07Q159.50 14.09 158.64 14.09L158.64 14.09Q157.75 14.09 157.21 15.06Q156.67 16.03 156.65 17.88L156.65 17.88ZM172.85 25.87L172.85 25.87Q169.85 25.87 168.13 24.19Q166.42 22.51 166.42 19.13L166.42 19.13Q166.42 15.74 168.06 14.09Q169.70 12.43 172.92 12.43L172.92 12.43Q175.92 12.43 177.65 14.09Q179.38 15.74 179.38 19.13L179.38 19.13Q179.38 22.51 177.72 24.19Q176.06 25.87 172.85 25.87ZM172.90 24.26L172.90 24.26Q173.71 24.26 174.19 23.68Q174.67 23.09 174.89 21.95Q175.10 20.81 175.10 19.13L175.10 19.13Q175.10 16.61 174.60 15.34Q174.10 14.06 172.87 14.06L172.87 14.06Q171.65 14.06 171.17 15.34Q170.69 16.61 170.69 19.13L170.69 19.13Q170.69 21.65 171.18 22.96Q171.67 24.26 172.90 24.26ZM189.24 25.63L180.79 25.63L180.79 24.26L180.89 24.26Q181.44 24.26 181.82 24.14Q182.21 24.02 182.42 23.65Q182.64 23.28 182.64 22.54L182.64 22.54L182.64 15.77Q182.64 15.05 182.46 14.70Q182.28 14.35 181.92 14.24Q181.56 14.14 181.03 14.14L181.03 14.14L180.96 14.14L180.96 12.77L186.22 12.77L186.70 14.83L186.82 14.83Q187.18 13.99 187.66 13.46Q188.14 12.94 188.81 12.70Q189.48 12.46 190.44 12.46L190.44 12.46Q191.86 12.46 192.49 13.07Q193.13 13.68 193.13 14.64L193.13 14.64Q193.13 15.89 192.23 16.48Q191.33 17.06 189.79 17.06L189.79 17.06Q189.79 16.39 189.70 15.95Q189.60 15.50 189.37 15.26Q189.14 15.02 188.69 15.02L188.69 15.02Q188.16 15.02 187.81 15.38Q187.46 15.74 187.26 16.33Q187.06 16.92 186.96 17.58Q186.86 18.24 186.86 18.79L186.86 18.79L186.86 22.66Q186.86 23.35 187.06 23.70Q187.25 24.05 187.61 24.16Q187.97 24.26 188.42 24.26L188.42 24.26L189.24 24.26L189.24 25.63ZM199.20 31.30L199.20 31.30Q196.25 31.30 194.78 30.48Q193.32 29.66 193.32 28.08L193.32 28.08Q193.32 27.26 193.72 26.68Q194.11 26.09 194.87 25.74Q195.62 25.39 196.66 25.34L196.66 25.34Q195.96 25.08 195.35 24.58Q194.74 24.07 194.74 23.21L194.74 23.21Q194.74 22.39 195.40 21.79Q196.06 21.19 197.11 20.64L197.11 20.64Q195.98 20.28 195.19 19.36Q194.40 18.43 194.40 16.87L194.40 16.87Q194.40 14.74 195.70 13.58Q196.99 12.43 199.75 12.43L199.75 12.43Q200.66 12.43 201.40 12.60Q202.13 12.77 202.73 13.08L202.73 13.08Q203.14 12.65 203.53 12.34Q203.93 12.02 204.37 11.86Q204.82 11.69 205.39 11.69L205.39 11.69Q206.26 11.69 206.69 12.12Q207.12 12.55 207.12 13.13L207.12 13.13Q207.12 13.70 206.74 14.16Q206.35 14.62 205.32 14.62L205.32 14.62Q205.32 14.04 205.02 13.79Q204.72 13.54 204.43 13.54L204.43 13.54Q204.22 13.54 204.00 13.61Q203.78 13.68 203.64 13.78L203.64 13.78Q204.22 14.28 204.60 15.05Q204.98 15.82 204.98 16.80L204.98 16.80Q204.98 18.70 203.72 19.91Q202.46 21.12 199.75 21.12L199.75 21.12Q199.51 21.12 199.04 21.10Q198.58 21.07 198.36 21.05L198.36 21.05Q198.07 21.14 197.82 21.47Q197.57 21.79 197.57 22.18L197.57 22.18Q197.57 22.56 197.88 22.73Q198.19 22.90 198.65 22.90L198.65 22.90L201.53 22.90Q203.21 22.90 204.28 23.32Q205.34 23.74 205.87 24.56Q206.40 25.39 206.40 26.59L206.40 26.59Q206.40 28.80 204.64 30.05Q202.87 31.30 199.20 31.30ZM199.25 29.76L199.25 29.76Q200.54 29.76 201.41 29.52Q202.27 29.28 202.72 28.79Q203.16 28.30 203.16 27.60L203.16 27.60Q203.16 27 202.74 26.68Q202.32 26.35 201.41 26.35L201.41 26.35L198.46 26.35Q198.07 26.35 197.62 26.50Q197.16 26.64 196.85 27.01Q196.54 27.38 196.54 28.08L196.54 28.08Q196.54 28.66 196.87 29.03Q197.21 29.40 197.83 29.58Q198.46 29.76 199.25 29.76ZM199.70 19.61L199.70 19.61Q200.35 19.61 200.69 19.26Q201.02 18.91 201.14 18.29Q201.26 17.66 201.26 16.87L201.26 16.87Q201.26 16.06 201.14 15.40Q201.02 14.74 200.69 14.35Q200.35 13.97 199.68 13.97L199.68 13.97Q199.06 13.97 198.71 14.36Q198.36 14.76 198.22 15.42Q198.07 16.08 198.07 16.90L198.07 16.90Q198.07 18.05 198.41 18.83Q198.74 19.61 199.70 19.61ZM215.45 25.63L207.48 25.63L207.48 24.26L207.77 24.26Q208.18 24.26 208.55 24.12Q208.92 23.98 209.15 23.62Q209.38 23.26 209.38 22.58L209.38 22.58L209.38 15.67Q209.38 15.05 209.14 14.72Q208.90 14.40 208.52 14.27Q208.15 14.14 207.77 14.14L207.77 14.14L207.38 14.14L207.38 12.77L213.58 12.77L213.58 22.63Q213.58 23.28 213.80 23.63Q214.03 23.98 214.40 24.12Q214.78 24.26 215.16 24.26L215.16 24.26L215.45 24.26L215.45 25.63ZM211.34 10.70L211.34 10.70Q210.36 10.70 209.70 10.25Q209.04 9.79 209.04 8.88L209.04 8.88Q209.04 7.92 209.70 7.49Q210.36 7.06 211.34 7.06L211.34 7.06Q212.30 7.06 213.00 7.49Q213.70 7.92 213.70 8.88L213.70 8.88Q213.70 9.79 213.00 10.25Q212.30 10.70 211.34 10.70ZM220.70 25.87L220.70 25.87Q219.67 25.87 218.81 25.44Q217.94 25.01 217.44 24.13Q216.94 23.26 216.94 21.94L216.94 21.94Q216.94 19.97 218.27 19.03Q219.60 18.10 222.26 18L222.26 18L224.23 17.93L224.23 16.63Q224.23 15.79 224.11 15.20Q223.99 14.62 223.70 14.30Q223.42 13.99 222.86 13.99L222.86 13.99Q222.38 13.99 222.07 14.30Q221.76 14.62 221.60 15.19Q221.45 15.77 221.45 16.58L221.45 16.58Q219.70 16.58 218.82 16.21Q217.94 15.84 217.94 14.93L217.94 14.93Q217.94 14.04 218.65 13.49Q219.36 12.94 220.54 12.68Q221.71 12.43 223.13 12.43L223.13 12.43Q225.79 12.43 227.11 13.33Q228.43 14.23 228.43 16.49L228.43 16.49L228.43 22.56Q228.43 23.21 228.56 23.58Q228.70 23.95 229.02 24.11Q229.34 24.26 229.87 24.26L229.87 24.26L229.97 24.26L229.97 25.63L225.00 25.63L224.45 24.14L224.23 24.14Q223.70 24.79 223.24 25.16Q222.77 25.54 222.18 25.70Q221.59 25.87 220.70 25.87ZM222.34 24.02L222.34 24.02Q222.94 24.02 223.36 23.65Q223.78 23.28 224.00 22.61Q224.23 21.94 224.23 21.05L224.23 21.05L224.23 19.30L223.34 19.37Q222.53 19.42 222.07 19.73Q221.62 20.04 221.41 20.60Q221.21 21.17 221.21 22.01L221.21 22.01Q221.21 22.66 221.33 23.11Q221.45 23.57 221.71 23.80Q221.98 24.02 222.34 24.02ZM238.78 25.63L231.05 25.63L231.05 24.26L231.12 24.26Q231.67 24.26 232.06 24.14Q232.44 24.02 232.66 23.68Q232.87 23.33 232.87 22.63L232.87 22.63L232.87 15.67Q232.87 15.02 232.68 14.69Q232.49 14.35 232.13 14.24Q231.77 14.14 231.24 14.14L231.24 14.14L231.17 14.14L231.17 12.77L236.66 12.77L236.98 14.38L237.10 14.38Q237.50 13.68 238.00 13.26Q238.49 12.84 239.16 12.64Q239.83 12.43 240.74 12.43L240.74 12.43Q242.64 12.43 243.66 13.52Q244.68 14.62 244.68 17.04L244.68 17.04L244.68 22.56Q244.68 23.30 244.82 23.66Q244.97 24.02 245.30 24.14Q245.64 24.26 246.17 24.26L246.17 24.26L246.26 24.26L246.26 25.63L240.48 25.63L240.48 17.90Q240.48 16.34 240.13 15.50Q239.78 14.66 238.90 14.66L238.90 14.66Q238.20 14.66 237.80 15.18Q237.41 15.70 237.24 16.52Q237.07 17.35 237.07 18.31L237.07 18.31L237.07 22.70Q237.07 23.38 237.26 23.70Q237.46 24.02 237.80 24.14Q238.15 24.26 238.68 24.26L238.68 24.26L238.78 24.26L238.78 25.63ZM259.73 25.87L259.73 25.87Q257.64 25.87 256.32 25.25Q255 24.62 254.36 23.60Q253.73 22.58 253.73 21.36L253.73 21.36Q253.73 20.21 254.20 19.39Q254.66 18.58 255.48 18Q256.30 17.42 257.33 16.99L257.33 16.99Q256.39 16.46 255.71 15.84Q255.02 15.22 254.65 14.44Q254.28 13.66 254.28 12.65L254.28 12.65Q254.28 11.47 254.84 10.48Q255.41 9.48 256.68 8.87Q257.95 8.26 260.04 8.26L260.04 8.26Q261.82 8.26 262.99 8.80Q264.17 9.34 264.77 10.25Q265.37 11.16 265.37 12.29L265.37 12.29Q265.37 13.80 264.50 14.68Q263.64 15.55 262.15 16.25L262.15 16.25Q263.57 16.94 264.41 17.66Q265.25 18.38 265.63 19.21Q266.02 20.04 266.02 21.12L266.02 21.12Q266.02 23.28 264.37 24.58Q262.73 25.87 259.73 25.87ZM259.85 24.38L259.85 24.38Q260.88 24.38 261.50 23.63Q262.13 22.87 262.13 21.58L262.13 21.58Q262.13 20.81 261.77 20.18Q261.41 19.56 260.70 19.02Q259.99 18.48 258.91 17.98L258.91 17.98Q258.22 18.50 257.77 19.28Q257.33 20.06 257.33 21.26L257.33 21.26Q257.33 22.78 258.05 23.58Q258.77 24.38 259.85 24.38ZM260.52 15.41L260.52 15.41Q260.98 15.12 261.28 14.72Q261.58 14.33 261.74 13.74Q261.91 13.15 261.91 12.34L261.91 12.34Q261.91 11.64 261.67 11.05Q261.43 10.46 261 10.10Q260.57 9.74 259.92 9.74L259.92 9.74Q259.03 9.74 258.58 10.43Q258.12 11.11 258.12 12.24L258.12 12.24Q258.12 13.03 258.41 13.62Q258.70 14.21 259.24 14.64Q259.78 15.07 260.52 15.41ZM273.43 25.87L273.43 25.87Q271.15 25.87 269.83 24.77Q268.51 23.66 267.96 21.67Q267.41 19.68 267.41 17.02L267.41 17.02Q267.41 14.35 267.96 12.38Q268.51 10.42 269.83 9.34Q271.15 8.26 273.46 8.26L273.46 8.26Q275.62 8.26 276.92 9.34Q278.23 10.42 278.82 12.40Q279.41 14.38 279.41 17.04L279.41 17.04Q279.41 19.70 278.82 21.68Q278.23 23.66 276.92 24.77Q275.62 25.87 273.43 25.87ZM273.43 24.22L273.43 24.22Q274.20 24.22 274.58 23.36Q274.97 22.51 275.08 20.90Q275.18 19.30 275.18 17.04L275.18 17.04Q275.18 14.78 275.08 13.19Q274.97 11.59 274.60 10.75Q274.22 9.91 273.46 9.91L273.46 9.91Q272.66 9.91 272.27 10.75Q271.87 11.59 271.75 13.19Q271.63 14.78 271.63 17.04L271.63 17.04Q271.63 19.30 271.75 20.90Q271.87 22.51 272.26 23.36Q272.64 24.22 273.43 24.22ZM286.97 25.87L286.97 25.87Q284.69 25.87 283.37 24.77Q282.05 23.66 281.50 21.67Q280.94 19.68 280.94 17.02L280.94 17.02Q280.94 14.35 281.50 12.38Q282.05 10.42 283.37 9.34Q284.69 8.26 286.99 8.26L286.99 8.26Q289.15 8.26 290.46 9.34Q291.77 10.42 292.36 12.40Q292.94 14.38 292.94 17.04L292.94 17.04Q292.94 19.70 292.36 21.68Q291.77 23.66 290.46 24.77Q289.15 25.87 286.97 25.87ZM286.97 24.22L286.97 24.22Q287.74 24.22 288.12 23.36Q288.50 22.51 288.61 20.90Q288.72 19.30 288.72 17.04L288.72 17.04Q288.72 14.78 288.61 13.19Q288.50 11.59 288.13 10.75Q287.76 9.91 286.99 9.91L286.99 9.91Q286.20 9.91 285.80 10.75Q285.41 11.59 285.29 13.19Q285.17 14.78 285.17 17.04L285.17 17.04Q285.17 19.30 285.29 20.90Q285.41 22.51 285.79 23.36Q286.18 24.22 286.97 24.22ZM308.09 25.63L300.36 25.63L300.36 24.26L300.43 24.26Q300.98 24.26 301.37 24.14Q301.75 24.02 301.97 23.68Q302.18 23.33 302.18 22.63L302.18 22.63L302.18 15.67Q302.18 15.02 301.99 14.69Q301.80 14.35 301.44 14.24Q301.08 14.14 300.55 14.14L300.55 14.14L300.48 14.14L300.48 12.77L305.98 12.77L306.29 14.38L306.41 14.38Q306.82 13.68 307.31 13.26Q307.80 12.84 308.47 12.64Q309.14 12.43 310.06 12.43L310.06 12.43Q311.95 12.43 312.97 13.52Q313.99 14.62 313.99 17.04L313.99 17.04L313.99 22.56Q313.99 23.30 314.14 23.66Q314.28 24.02 314.62 24.14Q314.95 24.26 315.48 24.26L315.48 24.26L315.58 24.26L315.58 25.63L309.79 25.63L309.79 17.90Q309.79 16.34 309.44 15.50Q309.10 14.66 308.21 14.66L308.21 14.66Q307.51 14.66 307.12 15.18Q306.72 15.70 306.55 16.52Q306.38 17.35 306.38 18.31L306.38 18.31L306.38 22.70Q306.38 23.38 306.58 23.70Q306.77 24.02 307.12 24.14Q307.46 24.26 307.99 24.26L307.99 24.26L308.09 24.26L308.09 25.63ZM323.66 25.87L323.66 25.87Q320.66 25.87 318.95 24.19Q317.23 22.51 317.23 19.13L317.23 19.13Q317.23 15.74 318.88 14.09Q320.52 12.43 323.74 12.43L323.74 12.43Q326.74 12.43 328.46 14.09Q330.19 15.74 330.19 19.13L330.19 19.13Q330.19 22.51 328.54 24.19Q326.88 25.87 323.66 25.87ZM323.71 24.26L323.71 24.26Q324.53 24.26 325.01 23.68Q325.49 23.09 325.70 21.95Q325.92 20.81 325.92 19.13L325.92 19.13Q325.92 16.61 325.42 15.34Q324.91 14.06 323.69 14.06L323.69 14.06Q322.46 14.06 321.98 15.34Q321.50 16.61 321.50 19.13L321.50 19.13Q321.50 21.65 322.00 22.96Q322.49 24.26 323.71 24.26ZM340.06 25.63L331.61 25.63L331.61 24.26L331.70 24.26Q332.26 24.26 332.64 24.14Q333.02 24.02 333.24 23.65Q333.46 23.28 333.46 22.54L333.46 22.54L333.46 15.77Q333.46 15.05 333.28 14.70Q333.10 14.35 332.74 14.24Q332.38 14.14 331.85 14.14L331.85 14.14L331.78 14.14L331.78 12.77L337.03 12.77L337.51 14.83L337.63 14.83Q337.99 13.99 338.47 13.46Q338.95 12.94 339.62 12.70Q340.30 12.46 341.26 12.46L341.26 12.46Q342.67 12.46 343.31 13.07Q343.94 13.68 343.94 14.64L343.94 14.64Q343.94 15.89 343.04 16.48Q342.14 17.06 340.61 17.06L340.61 17.06Q340.61 16.39 340.51 15.95Q340.42 15.50 340.19 15.26Q339.96 15.02 339.50 15.02L339.50 15.02Q338.98 15.02 338.63 15.38Q338.28 15.74 338.08 16.33Q337.87 16.92 337.78 17.58Q337.68 18.24 337.68 18.79L337.68 18.79L337.68 22.66Q337.68 23.35 337.87 23.70Q338.06 24.05 338.42 24.16Q338.78 24.26 339.24 24.26L339.24 24.26L340.06 24.26L340.06 25.63ZM352.44 25.63L344.71 25.63L344.71 24.26L344.78 24.26Q345.34 24.26 345.72 24.14Q346.10 24.02 346.32 23.68Q346.54 23.33 346.54 22.63L346.54 22.63L346.54 15.58Q346.54 14.93 346.33 14.59Q346.13 14.26 345.76 14.15Q345.38 14.04 344.86 14.04L344.86 14.04L344.78 14.04L344.78 12.77L350.33 12.77L350.64 14.38L350.76 14.38Q351.14 13.68 351.66 13.26Q352.18 12.84 352.90 12.64Q353.62 12.43 354.58 12.43L354.58 12.43Q355.49 12.43 356.17 12.64Q356.86 12.84 357.36 13.27Q357.86 13.70 358.13 14.38L358.13 14.38L358.30 14.38Q358.66 13.68 359.20 13.26Q359.74 12.84 360.47 12.64Q361.20 12.43 362.11 12.43L362.11 12.43Q364.03 12.43 365.10 13.52Q366.17 14.62 366.17 17.04L366.17 17.04L366.17 22.56Q366.17 23.30 366.32 23.66Q366.48 24.02 366.82 24.14Q367.15 24.26 367.68 24.26L367.68 24.26L367.78 24.26L367.78 25.63L361.97 25.63L361.97 17.90Q361.97 16.34 361.60 15.50Q361.22 14.66 360.29 14.66L360.29 14.66Q359.64 14.66 359.22 15.13Q358.80 15.60 358.62 16.36Q358.44 17.11 358.44 18.05L358.44 18.05L358.44 22.56Q358.44 23.30 358.58 23.66Q358.73 24.02 359.06 24.14Q359.40 24.26 359.93 24.26L359.93 24.26L360.02 24.26L360.02 25.63L354.24 25.63L354.24 17.90Q354.24 16.34 353.88 15.50Q353.52 14.66 352.58 14.66L352.58 14.66Q351.89 14.66 351.49 15.18Q351.10 15.70 350.92 16.52Q350.74 17.35 350.74 18.31L350.74 18.31L350.74 22.70Q350.74 23.38 350.93 23.70Q351.12 24.02 351.47 24.14Q351.82 24.26 352.34 24.26L352.34 24.26L352.44 24.26L352.44 25.63ZM373.15 25.87L373.15 25.87Q372.12 25.87 371.26 25.44Q370.39 25.01 369.89 24.13Q369.38 23.26 369.38 21.94L369.38 21.94Q369.38 19.97 370.72 19.03Q372.05 18.10 374.71 18L374.71 18L376.68 17.93L376.68 16.63Q376.68 15.79 376.56 15.20Q376.44 14.62 376.15 14.30Q375.86 13.99 375.31 13.99L375.31 13.99Q374.83 13.99 374.52 14.30Q374.21 14.62 374.05 15.19Q373.90 15.77 373.90 16.58L373.90 16.58Q372.14 16.58 371.27 16.21Q370.39 15.84 370.39 14.93L370.39 14.93Q370.39 14.04 371.10 13.49Q371.81 12.94 372.98 12.68Q374.16 12.43 375.58 12.43L375.58 12.43Q378.24 12.43 379.56 13.33Q380.88 14.23 380.88 16.49L380.88 16.49L380.88 22.56Q380.88 23.21 381.01 23.58Q381.14 23.95 381.47 24.11Q381.79 24.26 382.32 24.26L382.32 24.26L382.42 24.26L382.42 25.63L377.45 25.63L376.90 24.14L376.68 24.14Q376.15 24.79 375.68 25.16Q375.22 25.54 374.63 25.70Q374.04 25.87 373.15 25.87ZM374.78 24.02L374.78 24.02Q375.38 24.02 375.80 23.65Q376.22 23.28 376.45 22.61Q376.68 21.94 376.68 21.05L376.68 21.05L376.68 19.30L375.79 19.37Q374.98 19.42 374.52 19.73Q374.06 20.04 373.86 20.60Q373.66 21.17 373.66 22.01L373.66 22.01Q373.66 22.66 373.78 23.11Q373.90 23.57 374.16 23.80Q374.42 24.02 374.78 24.02ZM391.49 25.63L383.54 25.63L383.54 24.26L383.81 24.26Q384.22 24.26 384.59 24.12Q384.96 23.98 385.19 23.63Q385.42 23.28 385.42 22.63L385.42 22.63L385.42 10.18Q385.42 9.55 385.12 9.25Q384.82 8.95 384.44 8.86Q384.07 8.76 383.81 8.76L383.81 8.76L383.54 8.76L383.54 7.39L389.62 7.39L389.62 22.63Q389.62 23.28 389.84 23.63Q390.07 23.98 390.46 24.12Q390.84 24.26 391.22 24.26L391.22 24.26L391.49 24.26L391.49 25.63Z"/></svg>