<svg xmlns="http://www.w3.org/2000/svg" xmlns:xlink="http://www.w3.org/1999/xlink" width="97.776" height="29.808"><path fill="black" d="M6.24 23.93L1.92 23.93L1.92 10.80L1.44 8.38L1.92 6.94L9.60 6.94Q11.35 6.94 12.76 7.48Q14.16 8.02 14.99 9.30Q15.82 10.58 15.82 12.84L15.82 12.84Q15.82 14.88 15.07 16.14Q14.33 17.40 13.01 18.02L13.01 18.02L13.25 18.29L15.62 21.26L16.99 22.49L16.99 23.93L11.59 23.93L8.23 18.82L6.24 18.82L6.24 20.06L6.48 22.46L6.24 23.93ZM6 10.78L6.24 15.05L8.59 15.05Q9.84 15.05 10.58 14.58Q11.33 14.11 11.33 12.84L11.33 12.84Q11.33 11.95 10.97 11.51Q10.61 11.06 9.97 10.92Q9.34 10.78 8.50 10.78L8.50 10.78L6 10.78ZM23.50 24.17L23.50 24.17Q20.57 24.17 18.96 22.78Q17.35 21.38 17.35 18.26L17.35 18.26Q17.35 15.12 18.96 13.74Q20.57 12.36 23.50 12.36L23.50 12.36Q26.50 12.36 28.04 13.74Q29.59 15.12 29.59 18.26L29.59 18.26Q29.59 21.38 28.04 22.78Q26.50 24.17 23.50 24.17ZM23.50 21.05L23.50 21.05Q24.48 21.05 24.86 20.32Q25.25 19.58 25.25 18.26L25.25 18.26Q25.25 16.92 24.86 16.20Q24.48 15.48 23.50 15.48L23.50 15.48Q22.49 15.48 22.09 16.20Q21.70 16.92 21.70 18.26L21.70 18.26Q21.70 19.58 22.09 20.32Q22.49 21.05 23.50 21.05ZM38.76 23.93L33.72 23.93L30.43 15.72L29.95 12.60L34.51 12.60L36.07 20.09L36.55 20.09L38.38 12.60L43.15 12.60L44.95 20.09L45.43 20.09L47.02 12.60L51.55 12.60L51.07 15.72L47.76 23.93L42.72 23.93L40.99 16.20L40.51 16.20L38.76 23.93ZM56.47 24.17L56.47 24.17Q55.34 24.17 54.30 23.59Q53.26 23.02 52.58 21.77Q51.91 20.52 51.91 18.50L51.91 18.50Q51.91 16.27 52.57 14.93Q53.23 13.58 54.29 12.97Q55.34 12.36 56.47 12.36L56.47 12.36Q58.18 12.36 58.88 12.65Q59.59 12.94 59.59 12.94L59.59 12.94L59.35 8.40L59.59 6.96L63.94 6.96L63.94 20.09L64.42 22.49L63.94 23.95L59.83 23.95L59.83 22.78L59.59 22.66Q59.59 22.66 59.23 23.03Q58.87 23.40 58.18 23.78Q57.48 24.17 56.47 24.17ZM58.27 20.78L58.27 20.78L59.59 20.45L59.59 16.94Q59.59 16.39 59.23 16.07Q58.87 15.74 58.27 15.74L58.27 15.74Q57.38 15.74 56.93 16.33Q56.47 16.92 56.47 18.26L56.47 18.26Q56.47 19.58 57.00 20.18Q57.53 20.78 58.27 20.78ZM72.02 8.83L68.98 11.90L65.93 8.83L68.98 5.78L72.02 8.83ZM71.14 23.93L66.82 23.93L66.82 15.98L66.31 14.06L66.79 12.60L71.14 12.60L71.14 23.93ZM79.34 24.17L79.34 24.17Q77.50 24.17 76.06 23.62Q74.62 23.06 73.80 21.77Q72.98 20.47 72.98 18.26L72.98 18.26Q72.98 16.68 73.52 15.55Q74.06 14.42 74.98 13.72Q75.89 13.01 77.02 12.68Q78.14 12.36 79.34 12.36L79.34 12.36Q81.41 12.36 82.52 12.77Q83.64 13.18 84 13.42L84 13.42L85.20 17.23L84.72 18.72L77.28 18.72Q77.45 19.61 78.17 20.21Q78.89 20.81 80.54 20.81L80.54 20.81Q81.84 20.81 82.78 20.52Q83.71 20.23 84.24 20.02L84.24 20.02L84.24 23.23Q83.52 23.62 82.16 23.89Q80.81 24.17 79.34 24.17ZM77.30 17.18L77.30 17.18L80.62 16.70L80.40 15.67Q80.23 15.58 79.91 15.53Q79.58 15.48 79.34 15.48L79.34 15.48Q78.67 15.48 78.23 15.77Q77.78 16.06 77.56 16.45Q77.33 16.85 77.30 17.18ZM91.90 24.17L91.90 24.17Q90.14 24.17 88.80 23.81Q87.46 23.45 86.71 23.06L86.71 23.06L86.71 19.73Q87.70 20.16 88.74 20.40Q89.78 20.64 90.62 20.72Q91.46 20.81 91.82 20.81L91.82 20.81Q92.23 20.81 92.40 20.68Q92.57 20.54 92.57 20.35L92.57 20.35Q92.57 20.09 92.14 19.91Q91.70 19.73 90.50 19.44L90.50 19.44Q89.52 19.20 88.60 18.83Q87.67 18.46 87.08 17.78Q86.50 17.11 86.50 15.98L86.50 15.98Q86.50 14.59 87.14 13.80Q87.79 13.01 88.99 12.68Q90.19 12.36 91.80 12.36L91.80 12.36Q92.71 12.36 93.50 12.46Q94.30 12.55 94.63 12.60L94.63 12.60L96.86 14.04L95.78 16.61L91.58 15.70Q90.82 15.70 90.82 16.20L90.82 16.20Q90.82 16.73 91.92 16.99L91.92 16.99Q92.78 17.18 93.70 17.41Q94.61 17.64 95.36 18Q96.12 18.36 96.59 18.96Q97.06 19.56 97.06 20.54L97.06 20.54Q97.06 22.37 95.75 23.27Q94.44 24.17 91.90 24.17Z"/></svg>