<svg xmlns="http://www.w3.org/2000/svg" xmlns:xlink="http://www.w3.org/1999/xlink" width="252.768" height="37.32"><path fill="black" d="M6.94 22.32L0.91 22.32L0.91 21.31L1.22 21.31Q1.78 21.31 2.22 21.19Q2.66 21.07 2.93 20.70Q3.19 20.33 3.19 19.58L3.19 19.58L3.19 7.82Q3.19 7.10 2.92 6.76Q2.64 6.41 2.20 6.30Q1.75 6.19 1.22 6.19L1.22 6.19L0.91 6.19L0.91 5.18L5.30 5.18L13.90 18.46L13.90 7.82Q13.90 7.10 13.62 6.76Q13.34 6.41 12.90 6.30Q12.46 6.19 11.93 6.19L11.93 6.19L11.62 6.19L11.62 5.18L17.64 5.18L17.64 6.19L17.33 6.19Q16.80 6.19 16.34 6.31Q15.89 6.43 15.62 6.79Q15.36 7.15 15.36 7.92L15.36 7.92L15.36 22.32L13.66 22.32L4.66 8.50L4.66 19.58Q4.66 20.33 4.92 20.70Q5.18 21.07 5.64 21.19Q6.10 21.31 6.62 21.31L6.62 21.31L6.94 21.31L6.94 22.32ZM25.20 22.56L25.20 22.56Q22.61 22.56 21.12 20.90Q19.63 19.25 19.63 15.86L19.63 15.86Q19.63 12.50 21.06 10.86Q22.49 9.22 25.27 9.22L25.27 9.22Q27.86 9.22 29.35 10.86Q30.84 12.50 30.84 15.86L30.84 15.86Q30.84 19.25 29.41 20.90Q27.98 22.56 25.20 22.56ZM25.25 21.31L25.25 21.31Q26.45 21.31 27.17 20.70Q27.89 20.09 28.20 18.86Q28.51 17.64 28.51 15.86L28.51 15.86Q28.51 13.18 27.77 11.83Q27.02 10.49 25.22 10.49L25.22 10.49Q23.42 10.49 22.69 11.83Q21.96 13.18 21.96 15.86L21.96 15.86Q21.96 18.55 22.70 19.93Q23.45 21.31 25.25 21.31ZM37.92 22.56L37.92 22.56Q36.10 22.56 35.27 21.73Q34.44 20.90 34.44 18.84L34.44 18.84L34.44 10.82L32.62 10.82L32.62 9.86Q33.05 9.86 33.58 9.68Q34.10 9.50 34.49 9.10L34.49 9.10Q34.90 8.66 35.16 8.04Q35.42 7.42 35.59 6.50L35.59 6.50L36.70 6.50L36.70 9.46L39.84 9.46L39.84 10.82L36.70 10.82L36.70 18.91Q36.70 20.14 37.20 20.71Q37.70 21.29 38.52 21.29L38.52 21.29Q38.95 21.29 39.31 21.24Q39.67 21.19 40.06 21.12L40.06 21.12L40.06 22.18Q39.74 22.32 39.12 22.44Q38.50 22.56 37.92 22.56ZM47.50 22.56L47.50 22.56Q44.90 22.56 43.42 20.90Q41.93 19.25 41.93 15.86L41.93 15.86Q41.93 12.50 43.36 10.86Q44.78 9.22 47.57 9.22L47.57 9.22Q50.16 9.22 51.65 10.86Q53.14 12.50 53.14 15.86L53.14 15.86Q53.14 19.25 51.71 20.90Q50.28 22.56 47.50 22.56ZM47.54 21.31L47.54 21.31Q48.74 21.31 49.46 20.70Q50.18 20.09 50.50 18.86Q50.81 17.64 50.81 15.86L50.81 15.86Q50.81 13.18 50.06 11.83Q49.32 10.49 47.52 10.49L47.52 10.49Q45.72 10.49 44.99 11.83Q44.26 13.18 44.26 15.86L44.26 15.86Q44.26 18.55 45.00 19.93Q45.74 21.31 47.54 21.31ZM66.62 22.56L66.62 22.56Q65.45 22.56 64.55 22.32Q63.65 22.08 63.05 21.62Q62.45 21.17 62.15 20.54Q61.85 19.92 61.85 19.18L61.85 19.18Q61.85 18.70 62.05 18.34Q62.26 17.98 62.64 17.77Q63.02 17.57 63.58 17.57L63.58 17.57Q63.62 18.55 63.96 19.43Q64.30 20.30 64.99 20.84Q65.69 21.38 66.82 21.38L66.82 21.38Q68.42 21.38 69.34 20.60Q70.25 19.82 70.25 18.36L70.25 18.36Q70.25 17.47 69.90 16.86Q69.55 16.25 68.75 15.72Q67.94 15.19 66.53 14.62L66.53 14.62Q65.04 13.99 64.06 13.27Q63.07 12.55 62.59 11.58Q62.11 10.61 62.11 9.29L62.11 9.29Q62.11 7.92 62.80 6.95Q63.48 5.98 64.67 5.46Q65.86 4.94 67.37 4.94L67.37 4.94Q68.81 4.94 69.80 5.33Q70.80 5.71 71.33 6.32Q71.86 6.94 71.86 7.63L71.86 7.63Q71.86 8.40 71.34 8.80Q70.82 9.19 69.96 9.19L69.96 9.19Q69.96 8.45 69.71 7.75Q69.46 7.06 68.87 6.60Q68.28 6.14 67.27 6.14L67.27 6.14Q65.88 6.14 65.11 6.89Q64.34 7.63 64.34 8.88L64.34 8.88Q64.34 9.84 64.69 10.50Q65.04 11.16 65.86 11.68Q66.67 12.19 68.06 12.77L68.06 12.77Q69.48 13.34 70.48 14.03Q71.47 14.71 72 15.60Q72.53 16.49 72.53 17.74L72.53 17.74Q72.53 19.27 71.81 20.34Q71.09 21.41 69.76 21.98Q68.42 22.56 66.62 22.56ZM80.64 22.56L80.64 22.56Q78.02 22.56 76.55 20.83Q75.07 19.10 75.07 15.98L75.07 15.98Q75.07 12.62 76.46 10.92Q77.86 9.22 80.40 9.22L80.40 9.22Q82.73 9.22 84.06 10.66Q85.39 12.10 85.39 14.95L85.39 14.95L85.39 16.06L77.40 16.06Q77.45 18.67 78.35 19.86Q79.25 21.05 80.98 21.05L80.98 21.05Q82.22 21.05 83.10 20.53Q83.98 20.02 84.41 19.37L84.41 19.37Q84.58 19.44 84.72 19.66Q84.86 19.87 84.86 20.18L84.86 20.18Q84.86 20.66 84.41 21.22Q83.95 21.77 83.02 22.16Q82.08 22.56 80.64 22.56ZM77.45 14.76L82.97 14.76Q82.97 12.84 82.38 11.68Q81.79 10.51 80.35 10.51L80.35 10.51Q79.03 10.51 78.30 11.60Q77.57 12.70 77.45 14.76L77.45 14.76ZM94.32 22.32L87.38 22.32L87.38 21.31L87.46 21.31Q88.01 21.31 88.45 21.19Q88.90 21.07 89.16 20.70Q89.42 20.33 89.42 19.58L89.42 19.58L89.42 12.10Q89.42 11.38 89.15 11.03Q88.87 10.68 88.43 10.57Q87.98 10.46 87.46 10.46L87.46 10.46L87.38 10.46L87.38 9.46L91.08 9.46L91.54 11.83L91.66 11.83Q91.97 11.11 92.33 10.51Q92.69 9.91 93.29 9.56Q93.89 9.22 94.94 9.22L94.94 9.22Q96.26 9.22 96.90 9.67Q97.54 10.13 97.54 10.97L97.54 10.97Q97.54 11.71 97.02 12.19Q96.50 12.67 95.30 12.67L95.30 12.67Q95.30 12 95.18 11.59Q95.06 11.18 94.79 10.99Q94.51 10.80 94.03 10.80L94.03 10.80Q93.36 10.80 92.90 11.33Q92.45 11.86 92.18 12.67Q91.92 13.49 91.80 14.36Q91.68 15.24 91.68 15.94L91.68 15.94L91.68 19.70Q91.68 20.40 91.96 20.75Q92.23 21.10 92.68 21.20Q93.12 21.31 93.65 21.31L93.65 21.31L94.32 21.31L94.32 22.32ZM105.26 22.32L98.45 22.32L98.45 21.31L98.76 21.31Q99.29 21.31 99.73 21.20Q100.18 21.10 100.45 20.75Q100.73 20.40 100.73 19.70L100.73 19.70L100.73 12.10Q100.73 11.38 100.45 11.03Q100.18 10.68 99.73 10.57Q99.29 10.46 98.76 10.46L98.76 10.46L98.69 10.46L98.69 9.46L102.98 9.46L102.98 19.58Q102.98 20.33 103.25 20.70Q103.51 21.07 103.97 21.19Q104.42 21.31 104.95 21.31L104.95 21.31L105.26 21.31L105.26 22.32ZM101.76 7.06L101.76 7.06Q101.18 7.06 100.79 6.72Q100.39 6.38 100.39 5.57L100.39 5.57Q100.39 4.73 100.79 4.40Q101.18 4.08 101.76 4.08L101.76 4.08Q102.31 4.08 102.72 4.40Q103.13 4.73 103.13 5.57L103.13 5.57Q103.13 6.38 102.72 6.72Q102.31 7.06 101.76 7.06ZM113.64 22.32L106.22 22.32L106.22 21.31L106.54 21.31Q107.09 21.31 107.53 21.19Q107.98 21.07 108.24 20.70Q108.50 20.33 108.50 19.58L108.50 19.58L108.50 10.58L106.32 10.58L106.32 9.46L108.50 9.46L108.50 8.26Q108.50 6.12 109.64 4.98Q110.78 3.84 112.75 3.84L112.75 3.84Q114.00 3.84 114.73 4.06Q115.46 4.27 115.79 4.64Q116.11 5.02 116.11 5.52L116.11 5.52Q116.11 5.95 115.86 6.25Q115.61 6.55 115.16 6.71Q114.72 6.86 114.14 6.86L114.14 6.86Q114.14 6.38 114.00 5.94Q113.86 5.50 113.52 5.22Q113.18 4.94 112.56 4.94L112.56 4.94Q111.53 4.94 111.14 5.74Q110.76 6.53 110.76 8.04L110.76 8.04L110.76 9.46L114.14 9.46L114.14 10.58L110.76 10.58L110.76 19.58Q110.76 20.33 111.02 20.70Q111.29 21.07 111.74 21.19Q112.20 21.31 112.73 21.31L112.73 21.31L113.64 21.31L113.64 22.32ZM128.93 22.32L121.58 22.32L121.58 21.31L121.90 21.31Q122.45 21.31 122.89 21.19Q123.34 21.07 123.60 20.70Q123.86 20.33 123.86 19.58L123.86 19.58L123.86 7.82Q123.86 7.10 123.59 6.76Q123.31 6.41 122.87 6.30Q122.42 6.19 121.90 6.19L121.90 6.19L121.58 6.19L121.58 5.18L128.93 5.18Q131.40 5.18 133.15 6.18Q134.90 7.18 135.83 9.08Q136.75 10.99 136.75 13.73L136.75 13.73Q136.75 16.34 135.88 18.28Q135 20.21 133.27 21.26Q131.54 22.32 128.93 22.32L128.93 22.32ZM126.29 21.10L128.38 21.10Q130.30 21.10 131.56 20.24Q132.82 19.39 133.45 17.75Q134.09 16.10 134.09 13.73L134.09 13.73Q134.09 11.35 133.45 9.72Q132.82 8.09 131.56 7.24Q130.30 6.38 128.40 6.38L128.40 6.38L126.29 6.38L126.29 21.10ZM145.01 22.56L145.01 22.56Q142.39 22.56 140.92 20.83Q139.44 19.10 139.44 15.98L139.44 15.98Q139.44 12.62 140.83 10.92Q142.22 9.22 144.77 9.22L144.77 9.22Q147.10 9.22 148.43 10.66Q149.76 12.10 149.76 14.95L149.76 14.95L149.76 16.06L141.77 16.06Q141.82 18.67 142.72 19.86Q143.62 21.05 145.34 21.05L145.34 21.05Q146.59 21.05 147.47 20.53Q148.34 20.02 148.78 19.37L148.78 19.37Q148.94 19.44 149.09 19.66Q149.23 19.87 149.23 20.18L149.23 20.18Q149.23 20.66 148.78 21.22Q148.32 21.77 147.38 22.16Q146.45 22.56 145.01 22.56ZM141.82 14.76L147.34 14.76Q147.34 12.84 146.75 11.68Q146.16 10.51 144.72 10.51L144.72 10.51Q143.40 10.51 142.67 11.60Q141.94 12.70 141.82 14.76L141.82 14.76ZM156.70 22.32L152.83 11.74Q152.66 11.23 152.44 10.96Q152.21 10.68 151.88 10.57Q151.56 10.46 151.06 10.46L151.06 10.46L151.06 9.46L157.06 9.46L157.06 10.46L156.74 10.46Q156.02 10.46 155.66 10.74Q155.30 11.02 155.30 11.62L155.30 11.62Q155.30 11.81 155.35 12.02Q155.40 12.24 155.50 12.50L155.50 12.50L157.13 17.04Q157.34 17.62 157.56 18.30Q157.78 18.98 157.96 19.60Q158.14 20.21 158.26 20.64L158.26 20.64Q158.38 20.14 158.76 19.18Q159.14 18.22 159.46 17.35L159.46 17.35L161.18 12.67Q161.30 12.38 161.35 12.11Q161.40 11.83 161.40 11.64L161.40 11.64Q161.40 11.02 161.00 10.74Q160.61 10.46 159.82 10.46L159.82 10.46L159.65 10.46L159.65 9.46L164.78 9.46L164.78 10.46L164.50 10.46Q164.04 10.46 163.74 10.61Q163.44 10.75 163.20 11.16Q162.96 11.57 162.67 12.34L162.67 12.34L158.88 22.32L156.70 22.32ZM169.78 22.56L169.78 22.56Q168.72 22.56 167.87 22.14Q167.02 21.72 166.54 20.87Q166.06 20.02 166.06 18.72L166.06 18.72Q166.06 16.80 167.41 15.89Q168.77 14.98 171.53 14.88L171.53 14.88L173.52 14.81L173.52 13.37Q173.52 12.50 173.38 11.84Q173.23 11.18 172.75 10.80Q172.27 10.42 171.29 10.42L171.29 10.42Q170.38 10.42 169.90 10.75Q169.42 11.09 169.26 11.68Q169.10 12.26 169.10 13.03L169.10 13.03Q168.10 13.03 167.58 12.68Q167.06 12.34 167.06 11.52L167.06 11.52Q167.06 10.68 167.65 10.18Q168.24 9.67 169.22 9.44Q170.21 9.22 171.38 9.22L171.38 9.22Q173.59 9.22 174.68 10.15Q175.78 11.09 175.78 13.37L175.78 13.37L175.78 19.58Q175.78 20.26 175.92 20.63Q176.06 21 176.40 21.16Q176.74 21.31 177.26 21.31L177.26 21.31L177.34 21.31L177.34 22.32L174.10 22.32L173.71 20.26L173.52 20.26Q173.02 20.93 172.54 21.44Q172.06 21.96 171.42 22.26Q170.78 22.56 169.78 22.56ZM170.33 21.07L170.33 21.07Q171.31 21.07 172.02 20.66Q172.73 20.26 173.12 19.50Q173.52 18.74 173.52 17.74L173.52 17.74L173.52 15.79L171.98 15.86Q170.62 15.91 169.84 16.27Q169.06 16.63 168.72 17.27Q168.38 17.90 168.38 18.84L168.38 18.84Q168.38 19.58 168.60 20.08Q168.82 20.57 169.25 20.82Q169.68 21.07 170.33 21.07ZM185.50 22.32L179.04 22.32L179.04 21.31L179.23 21.31Q179.78 21.31 180.23 21.19Q180.67 21.07 180.94 20.70Q181.20 20.33 181.20 19.58L181.20 19.58L181.20 12.10Q181.20 11.38 180.94 11.03Q180.67 10.68 180.24 10.57Q179.81 10.46 179.28 10.46L179.28 10.46L179.16 10.46L179.16 9.46L183.05 9.46L183.36 11.40L183.48 11.40Q184.22 10.06 185.15 9.64Q186.07 9.22 187.22 9.22L187.22 9.22Q189.12 9.22 190.19 10.33Q191.26 11.45 191.26 13.92L191.26 13.92L191.26 19.58Q191.26 20.33 191.48 20.70Q191.71 21.07 192.12 21.19Q192.53 21.31 193.06 21.31L193.06 21.31L193.18 21.31L193.18 22.32L189 22.32L189 14.04Q189 12.48 188.41 11.62Q187.82 10.75 186.36 10.75L186.36 10.75Q185.28 10.75 184.64 11.29Q184.01 11.83 183.73 12.72Q183.46 13.61 183.46 14.64L183.46 14.64L183.46 19.70Q183.46 20.40 183.72 20.75Q183.98 21.10 184.42 21.20Q184.85 21.31 185.38 21.31L185.38 21.31L185.50 21.31L185.50 22.32ZM198.77 22.56L198.77 22.56Q197.71 22.56 196.86 22.14Q196.01 21.72 195.53 20.87Q195.05 20.02 195.05 18.72L195.05 18.72Q195.05 16.80 196.40 15.89Q197.76 14.98 200.52 14.88L200.52 14.88L202.51 14.81L202.51 13.37Q202.51 12.50 202.37 11.84Q202.22 11.18 201.74 10.80Q201.26 10.42 200.28 10.42L200.28 10.42Q199.37 10.42 198.89 10.75Q198.41 11.09 198.25 11.68Q198.10 12.26 198.10 13.03L198.10 13.03Q197.09 13.03 196.57 12.68Q196.06 12.34 196.06 11.52L196.06 11.52Q196.06 10.68 196.64 10.18Q197.23 9.67 198.22 9.44Q199.20 9.22 200.38 9.22L200.38 9.22Q202.58 9.22 203.68 10.15Q204.77 11.09 204.77 13.37L204.77 13.37L204.77 19.58Q204.77 20.26 204.91 20.63Q205.06 21 205.39 21.16Q205.73 21.31 206.26 21.31L206.26 21.31L206.33 21.31L206.33 22.32L203.09 22.32L202.70 20.26L202.51 20.26Q202.01 20.93 201.53 21.44Q201.05 21.96 200.41 22.26Q199.78 22.56 198.77 22.56ZM199.32 21.07L199.32 21.07Q200.30 21.07 201.01 20.66Q201.72 20.26 202.12 19.50Q202.51 18.74 202.51 17.74L202.51 17.74L202.51 15.79L200.98 15.86Q199.61 15.91 198.83 16.27Q198.05 16.63 197.71 17.27Q197.38 17.90 197.38 18.84L197.38 18.84Q197.38 19.58 197.59 20.08Q197.81 20.57 198.24 20.82Q198.67 21.07 199.32 21.07ZM212.90 28.08L212.90 28.08Q210.41 28.08 209.16 27.16Q207.91 26.23 207.91 24.58L207.91 24.58Q207.91 23.64 208.33 23.00Q208.75 22.37 209.44 22.01Q210.12 21.65 210.91 21.50L210.91 21.50Q210.43 21.29 210.01 20.80Q209.59 20.30 209.59 19.54L209.59 19.54Q209.59 18.82 209.96 18.29Q210.34 17.76 211.15 17.28L211.15 17.28Q210.12 16.85 209.56 15.85Q208.99 14.86 208.99 13.66L208.99 13.66Q208.99 11.59 210.12 10.40Q211.25 9.22 213.50 9.22L213.50 9.22Q214.37 9.22 215.14 9.46Q215.90 9.70 216.24 10.01L216.24 10.01Q216.48 9.74 216.82 9.44Q217.15 9.14 217.60 8.93Q218.04 8.71 218.57 8.71L218.57 8.71Q219.29 8.71 219.64 9.08Q219.98 9.46 219.98 9.96L219.98 9.96Q219.98 10.46 219.68 10.84Q219.38 11.21 218.71 11.21L218.71 11.21Q218.71 10.94 218.56 10.67Q218.40 10.39 217.92 10.39L217.92 10.39Q217.61 10.39 217.37 10.46Q217.13 10.54 216.89 10.68L216.89 10.68Q217.30 11.18 217.56 11.87Q217.82 12.55 217.82 13.58L217.82 13.58Q217.82 15.36 216.76 16.54Q215.69 17.71 213.50 17.71L213.50 17.71Q213.22 17.71 212.84 17.68Q212.47 17.64 212.23 17.59L212.23 17.59Q211.78 17.83 211.44 18.19Q211.10 18.55 211.10 19.10L211.10 19.10Q211.10 19.54 211.38 19.78Q211.66 20.02 212.59 20.02L212.59 20.02L215.30 20.02Q216.74 20.02 217.61 20.48Q218.47 20.95 218.87 21.76Q219.26 22.56 219.26 23.59L219.26 23.59Q219.26 25.66 217.72 26.87Q216.17 28.08 212.90 28.08ZM212.95 26.90L212.95 26.90Q214.68 26.90 215.62 26.53Q216.55 26.16 216.92 25.50Q217.30 24.84 217.30 24L217.30 24Q217.30 22.90 216.67 22.52Q216.05 22.15 214.85 22.15L214.85 22.15L212.50 22.15Q211.82 22.15 211.22 22.33Q210.62 22.51 210.24 22.99Q209.86 23.47 209.86 24.43L209.86 24.43Q209.86 25.13 210.12 25.69Q210.38 26.26 211.06 26.58Q211.73 26.90 212.95 26.90ZM213.43 16.56L213.43 16.56Q214.22 16.56 214.69 16.25Q215.16 15.94 215.36 15.26Q215.57 14.59 215.57 13.56L215.57 13.56Q215.57 12.48 215.35 11.77Q215.14 11.06 214.67 10.73Q214.20 10.39 213.41 10.39L213.41 10.39Q212.64 10.39 212.16 10.74Q211.68 11.09 211.46 11.80Q211.25 12.50 211.25 13.58L211.25 13.58Q211.25 15.12 211.76 15.84Q212.28 16.56 213.43 16.56ZM225.19 22.56L225.19 22.56Q224.14 22.56 223.28 22.14Q222.43 21.72 221.95 20.87Q221.47 20.02 221.47 18.72L221.47 18.72Q221.47 16.80 222.83 15.89Q224.18 14.98 226.94 14.88L226.94 14.88L228.94 14.81L228.94 13.37Q228.94 12.50 228.79 11.84Q228.65 11.18 228.17 10.80Q227.69 10.42 226.70 10.42L226.70 10.42Q225.79 10.42 225.31 10.75Q224.83 11.09 224.68 11.68Q224.52 12.26 224.52 13.03L224.52 13.03Q223.51 13.03 223.00 12.68Q222.48 12.34 222.48 11.52L222.48 11.52Q222.48 10.68 223.07 10.18Q223.66 9.67 224.64 9.44Q225.62 9.22 226.80 9.22L226.80 9.22Q229.01 9.22 230.10 10.15Q231.19 11.09 231.19 13.37L231.19 13.37L231.19 19.58Q231.19 20.26 231.34 20.63Q231.48 21 231.82 21.16Q232.15 21.31 232.68 21.31L232.68 21.31L232.75 21.31L232.75 22.32L229.51 22.32L229.13 20.26L228.94 20.26Q228.43 20.93 227.95 21.44Q227.47 21.96 226.84 22.26Q226.20 22.56 225.19 22.56ZM225.74 21.07L225.74 21.07Q226.73 21.07 227.44 20.66Q228.14 20.26 228.54 19.50Q228.94 18.74 228.94 17.74L228.94 17.74L228.94 15.79L227.40 15.86Q226.03 15.91 225.25 16.27Q224.47 16.63 224.14 17.27Q223.80 17.90 223.80 18.84L223.80 18.84Q223.80 19.58 224.02 20.08Q224.23 20.57 224.66 20.82Q225.10 21.07 225.74 21.07ZM241.51 22.32L234.58 22.32L234.58 21.31L234.65 21.31Q235.20 21.31 235.64 21.19Q236.09 21.07 236.35 20.70Q236.62 20.33 236.62 19.58L236.62 19.58L236.62 12.10Q236.62 11.38 236.34 11.03Q236.06 10.68 235.62 10.57Q235.18 10.46 234.65 10.46L234.65 10.46L234.58 10.46L234.58 9.46L238.27 9.46L238.73 11.83L238.85 11.83Q239.16 11.11 239.52 10.51Q239.88 9.91 240.48 9.56Q241.08 9.22 242.14 9.22L242.14 9.22Q243.46 9.22 244.09 9.67Q244.73 10.13 244.73 10.97L244.73 10.97Q244.73 11.71 244.21 12.19Q243.70 12.67 242.50 12.67L242.50 12.67Q242.50 12 242.38 11.59Q242.26 11.18 241.98 10.99Q241.70 10.80 241.22 10.80L241.22 10.80Q240.55 10.80 240.10 11.33Q239.64 11.86 239.38 12.67Q239.11 13.49 238.99 14.36Q238.87 15.24 238.87 15.94L238.87 15.94L238.87 19.70Q238.87 20.40 239.15 20.75Q239.42 21.10 239.87 21.20Q240.31 21.31 240.84 21.31L240.84 21.31L241.51 21.31L241.51 22.32ZM252.46 22.32L245.64 22.32L245.64 21.31L245.95 21.31Q246.48 21.31 246.92 21.20Q247.37 21.10 247.64 20.75Q247.92 20.40 247.92 19.70L247.92 19.70L247.92 12.10Q247.92 11.38 247.64 11.03Q247.37 10.68 246.92 10.57Q246.48 10.46 245.95 10.46L245.95 10.46L245.88 10.46L245.88 9.46L250.18 9.46L250.18 19.58Q250.18 20.33 250.44 20.70Q250.70 21.07 251.16 21.19Q251.62 21.31 252.14 21.31L252.14 21.31L252.46 21.31L252.46 22.32ZM248.95 7.06L248.95 7.06Q248.38 7.06 247.98 6.72Q247.58 6.38 247.58 5.57L247.58 5.57Q247.58 4.73 247.98 4.40Q248.38 4.08 248.95 4.08L248.95 4.08Q249.50 4.08 249.91 4.40Q250.32 4.73 250.32 5.57L250.32 5.57Q250.32 6.38 249.91 6.72Q249.50 7.06 248.95 7.06Z"/></svg>