<svg xmlns="http://www.w3.org/2000/svg" xmlns:xlink="http://www.w3.org/1999/xlink" width="51.50390625" height="29.0390625"><path fill="black" d="M2.11 5.79L4.34 5.79L4.34 23.25L2.11 23.25L2.11 5.79ZM10.41 15.40L10.41 15.40L10.41 23.25L8.30 23.25L8.30 10.15L10.32 10.15L10.34 13.32L10.04 13.32Q10.64 11.51 11.75 10.75Q12.86 9.98 14.34 9.98L14.34 9.98Q15.67 9.98 16.66 10.53Q17.66 11.07 18.22 12.17Q18.77 13.27 18.77 14.93L18.77 14.93L18.77 23.25L16.66 23.25L16.66 15.11Q16.66 13.59 15.87 12.74Q15.08 11.88 13.71 11.88L13.71 11.88Q12.77 11.88 12.02 12.29Q11.27 12.70 10.84 13.49Q10.41 14.27 10.41 15.40ZM20.86 10.15L27.63 10.15L27.63 11.95L20.86 11.95L20.86 10.15ZM22.83 20.02L22.83 7.03L24.94 7.03L24.94 19.85Q24.94 20.73 25.29 21.13Q25.65 21.54 26.48 21.54L26.48 21.54Q26.68 21.54 26.99 21.49Q27.30 21.45 27.56 21.40L27.56 21.40L28.00 23.18Q27.67 23.30 27.25 23.36Q26.84 23.41 26.43 23.41L26.43 23.41Q24.73 23.41 23.78 22.52Q22.83 21.62 22.83 20.02L22.83 20.02ZM35.84 23.53L35.84 23.53Q33.94 23.53 32.56 22.69Q31.18 21.84 30.44 20.33Q29.70 18.82 29.70 16.80L29.70 16.80Q29.70 14.79 30.42 13.25Q31.15 11.72 32.48 10.85Q33.81 9.98 35.59 9.98L35.59 9.98Q36.63 9.98 37.65 10.33Q38.66 10.68 39.49 11.44Q40.31 12.21 40.80 13.46Q41.30 14.72 41.30 16.54L41.30 16.54L41.30 17.41L31.13 17.41L31.13 15.63L40.16 15.63L39.18 16.29Q39.18 15 38.77 14.00Q38.37 13.00 37.57 12.43Q36.77 11.86 35.59 11.86L35.59 11.86Q34.41 11.86 33.56 12.44Q32.72 13.02 32.27 13.95Q31.83 14.88 31.83 15.95L31.83 15.95L31.83 17.13Q31.83 18.59 32.33 19.60Q32.84 20.61 33.74 21.13Q34.65 21.66 35.85 21.66L35.85 21.66Q36.62 21.66 37.25 21.43Q37.89 21.21 38.34 20.76Q38.80 20.31 39.05 19.64L39.05 19.64L41.09 20.20Q40.78 21.19 40.05 21.94Q39.33 22.69 38.26 23.11Q37.18 23.53 35.84 23.53ZM46.43 23.25L44.32 23.25L44.32 10.15L46.36 10.15L46.36 12.16L46.50 12.16Q46.86 11.17 47.79 10.56Q48.73 9.96 49.90 9.96L49.90 9.96Q50.13 9.96 50.46 9.97Q50.78 9.98 50.96 10.00L50.96 10.00L50.96 12.12Q50.87 12.09 50.50 12.05Q50.12 12 49.70 12L49.70 12Q48.76 12 48.02 12.39Q47.27 12.79 46.85 13.47Q46.43 14.16 46.43 15.05L46.43 15.05L46.43 23.25Z"/></svg>