<svg xmlns="http://www.w3.org/2000/svg" xmlns:xlink="http://www.w3.org/1999/xlink" width="202.0546875" height="29.0390625"><path fill="black" d="M1.13 5.79L5.86 5.79L5.86 23.25L1.13 23.25L1.13 5.79ZM12.89 15.89L12.89 15.89L12.89 23.25L8.18 23.25L8.18 10.15L12.60 10.15L12.69 13.50L12.55 13.50Q13.00 12.01 14.00 11.00Q15 9.98 16.80 9.98L16.80 9.98Q18.20 9.98 19.22 10.62Q20.25 11.25 20.81 12.36Q21.38 13.48 21.38 14.91L21.38 14.91L21.38 23.25L16.66 23.25L16.66 15.89Q16.66 14.92 16.17 14.36Q15.68 13.80 14.79 13.80L14.79 13.80Q14.21 13.80 13.79 14.06Q13.36 14.31 13.13 14.77Q12.89 15.23 12.89 15.89ZM22.80 10.15L31.43 10.15L31.43 13.57L22.80 13.57L22.80 10.15ZM24.47 19.48L24.47 7.03L29.18 7.03L29.18 19.04Q29.18 19.45 29.39 19.66Q29.60 19.86 30.07 19.86L30.07 19.86Q30.28 19.86 30.69 19.81Q31.09 19.76 31.22 19.71L31.22 19.71L31.78 23.07Q30.97 23.30 30.26 23.37Q29.54 23.45 28.91 23.45L28.91 23.45Q26.71 23.45 25.59 22.44Q24.47 21.43 24.47 19.48L24.47 19.48ZM39.63 23.48L39.63 23.48Q37.54 23.48 36.02 22.68Q34.50 21.88 33.69 20.37Q32.88 18.86 32.88 16.73L32.88 16.73Q32.88 14.71 33.70 13.19Q34.51 11.67 36 10.83Q37.49 9.98 39.52 9.98L39.52 9.98Q41.00 9.98 42.21 10.45Q43.41 10.91 44.26 11.78Q45.12 12.66 45.57 13.90Q46.03 15.14 46.03 16.71L46.03 16.71L46.03 17.79L34.34 17.79L34.34 15.21L43.83 15.21L41.63 15.75Q41.63 14.95 41.39 14.41Q41.16 13.86 40.70 13.58Q40.24 13.29 39.56 13.29L39.56 13.29Q38.88 13.29 38.43 13.58Q37.97 13.86 37.73 14.41Q37.50 14.95 37.50 15.75L37.50 15.75L37.50 17.63Q37.50 18.49 37.78 19.06Q38.05 19.63 38.55 19.90Q39.06 20.18 39.73 20.18L39.73 20.18Q40.21 20.18 40.60 20.04Q40.99 19.91 41.27 19.66Q41.55 19.41 41.70 19.04L41.70 19.04L45.84 19.65Q45.52 20.82 44.68 21.69Q43.85 22.55 42.58 23.02Q41.31 23.48 39.63 23.48ZM52.62 23.25L47.91 23.25L47.91 10.15L52.48 10.15L52.48 12.66L52.62 12.66Q52.97 11.26 53.75 10.62Q54.53 9.98 55.57 9.98L55.57 9.98Q55.88 9.98 56.18 10.03Q56.48 10.08 56.77 10.17L56.77 10.17L56.77 14.18Q56.41 14.05 55.90 14.00Q55.39 13.95 55.03 13.95L55.03 13.95Q54.34 13.95 53.79 14.26Q53.24 14.57 52.93 15.12Q52.62 15.68 52.62 16.43L52.62 16.43L52.62 23.25ZM69.68 23.53L69.68 23.53Q67.76 23.53 66.29 22.78Q64.82 22.02 63.95 20.77Q63.08 19.51 62.93 18.02L62.93 18.02L67.59 18.02Q67.76 18.77 68.34 19.14Q68.93 19.50 69.68 19.50L69.68 19.50Q70.68 19.50 71.31 18.90Q71.95 18.30 72.26 17.24Q72.56 16.17 72.56 14.77L72.56 14.77L72.47 14.77Q72.14 15.56 71.47 16.14Q70.79 16.71 69.90 17.02Q69.01 17.32 68.02 17.32L68.02 17.32Q66.43 17.32 65.24 16.61Q64.04 15.89 63.38 14.64Q62.72 13.38 62.72 11.79L62.72 11.79Q62.72 9.90 63.61 8.49Q64.50 7.08 66.08 6.29Q67.65 5.51 69.70 5.51L69.70 5.51Q71.24 5.51 72.60 5.99Q73.97 6.48 75.02 7.53Q76.07 8.58 76.67 10.26Q77.27 11.94 77.27 14.32L77.27 14.32Q77.27 16.44 76.73 18.14Q76.20 19.84 75.19 21.05Q74.19 22.25 72.79 22.89Q71.39 23.53 69.68 23.53ZM69.75 14.11L69.75 14.11Q70.28 14.11 70.72 13.92Q71.16 13.73 71.48 13.40Q71.80 13.07 71.98 12.62Q72.16 12.16 72.16 11.63L72.16 11.63Q72.16 10.91 71.85 10.35Q71.54 9.79 71.00 9.46Q70.45 9.14 69.75 9.14L69.75 9.14Q69.06 9.14 68.50 9.46Q67.95 9.79 67.63 10.35Q67.31 10.91 67.31 11.63L67.31 11.63Q67.31 12.34 67.63 12.90Q67.95 13.46 68.50 13.79Q69.05 14.11 69.75 14.11ZM86.63 23.48L86.63 23.48Q84.20 23.48 82.48 22.42Q80.75 21.35 79.83 19.35Q78.91 17.36 78.91 14.53L78.91 14.53Q78.91 11.71 79.83 9.70Q80.75 7.69 82.48 6.62Q84.20 5.55 86.63 5.55L86.63 5.55Q89.05 5.55 90.78 6.63Q92.51 7.70 93.42 9.70Q94.34 11.71 94.34 14.53L94.34 14.53Q94.34 17.36 93.42 19.35Q92.51 21.35 90.79 22.42Q89.06 23.48 86.63 23.48ZM86.63 19.64L86.63 19.64Q87.53 19.64 88.15 19.05Q88.77 18.47 89.09 17.33Q89.41 16.18 89.41 14.53L89.41 14.53Q89.41 12.87 89.09 11.72Q88.77 10.57 88.15 9.97Q87.53 9.38 86.63 9.38L86.63 9.38Q85.73 9.38 85.11 9.97Q84.48 10.57 84.16 11.72Q83.84 12.87 83.84 14.53L83.84 14.53Q83.84 16.18 84.15 17.33Q84.47 18.47 85.10 19.05Q85.72 19.64 86.63 19.64ZM103.69 23.48L103.69 23.48Q101.26 23.48 99.54 22.42Q97.82 21.35 96.90 19.35Q95.98 17.36 95.98 14.53L95.98 14.53Q95.98 11.71 96.90 9.70Q97.82 7.69 99.54 6.62Q101.26 5.55 103.69 5.55L103.69 5.55Q106.11 5.55 107.84 6.63Q109.57 7.70 110.48 9.70Q111.40 11.71 111.40 14.53L111.40 14.53Q111.40 17.36 110.48 19.35Q109.57 21.35 107.85 22.42Q106.13 23.48 103.69 23.48ZM103.69 19.64L103.69 19.64Q104.59 19.64 105.21 19.05Q105.83 18.47 106.15 17.33Q106.48 16.18 106.48 14.53L106.48 14.53Q106.48 12.87 106.15 11.72Q105.83 10.57 105.21 9.97Q104.59 9.38 103.69 9.38L103.69 9.38Q102.80 9.38 102.17 9.97Q101.54 10.57 101.22 11.72Q100.90 12.87 100.90 14.53L100.90 14.53Q100.90 16.18 101.21 17.33Q101.53 18.47 102.16 19.05Q102.79 19.64 103.69 19.64ZM122.91 15.89L122.91 15.89L122.91 23.25L118.20 23.25L118.20 10.15L122.61 10.15L122.71 13.50L122.57 13.50Q123.01 12.01 124.01 11.00Q125.02 9.98 126.82 9.98L126.82 9.98Q128.21 9.98 129.24 10.62Q130.27 11.25 130.83 12.36Q131.39 13.48 131.39 14.91L131.39 14.91L131.39 23.25L126.68 23.25L126.68 15.89Q126.68 14.92 126.19 14.36Q125.70 13.80 124.80 13.80L124.80 13.80Q124.23 13.80 123.80 14.06Q123.38 14.31 123.14 14.77Q122.91 15.23 122.91 15.89ZM140.10 23.48L140.10 23.48Q137.96 23.48 136.44 22.63Q134.92 21.79 134.12 20.27Q133.31 18.75 133.31 16.73L133.31 16.73Q133.31 14.72 134.12 13.20Q134.92 11.68 136.44 10.83Q137.96 9.98 140.10 9.98L140.10 9.98Q142.23 9.98 143.74 10.83Q145.25 11.68 146.06 13.20Q146.86 14.72 146.86 16.73L146.86 16.73Q146.86 18.75 146.06 20.27Q145.25 21.79 143.74 22.63Q142.23 23.48 140.10 23.48ZM140.10 19.97L140.10 19.97Q140.71 19.97 141.15 19.58Q141.59 19.20 141.82 18.46Q142.05 17.73 142.05 16.71L142.05 16.71Q142.05 15.68 141.82 14.96Q141.59 14.25 141.15 13.88Q140.71 13.50 140.10 13.50L140.10 13.50Q139.48 13.50 139.03 13.88Q138.59 14.25 138.35 14.96Q138.12 15.68 138.12 16.71L138.12 16.71Q138.12 17.73 138.35 18.46Q138.59 19.20 139.03 19.58Q139.48 19.97 140.10 19.97ZM153.49 23.25L148.78 23.25L148.78 10.15L153.35 10.15L153.35 12.66L153.49 12.66Q153.84 11.26 154.62 10.62Q155.40 9.98 156.45 9.98L156.45 9.98Q156.75 9.98 157.05 10.03Q157.36 10.08 157.64 10.17L157.64 10.17L157.64 14.18Q157.29 14.05 156.78 14.00Q156.27 13.95 155.91 13.95L155.91 13.95Q155.21 13.95 154.66 14.26Q154.11 14.57 153.80 15.12Q153.49 15.68 153.49 16.43L153.49 16.43L153.49 23.25ZM163.90 23.25L159.19 23.25L159.19 10.15L163.49 10.15L163.79 13.69L163.46 13.69Q163.78 12.35 164.39 11.54Q165 10.72 165.81 10.35Q166.63 9.98 167.53 9.98L167.53 9.98Q168.93 9.98 169.78 10.90Q170.64 11.81 171.18 14.06L171.18 14.06L170.66 14.06Q171 12.56 171.70 11.67Q172.41 10.77 173.33 10.38Q174.25 9.98 175.22 9.98L175.22 9.98Q176.47 9.98 177.42 10.54Q178.37 11.09 178.90 12.08Q179.44 13.07 179.44 14.41L179.44 14.41L179.44 23.25L174.73 23.25L174.73 15.61Q174.73 14.75 174.29 14.27Q173.86 13.78 173.13 13.78L173.13 13.78Q172.65 13.78 172.29 14.00Q171.94 14.23 171.75 14.63Q171.56 15.04 171.56 15.61L171.56 15.61L171.56 23.25L167.06 23.25L167.06 15.61Q167.06 14.75 166.63 14.27Q166.20 13.78 165.47 13.78L165.47 13.78Q164.98 13.78 164.63 14.00Q164.27 14.23 164.09 14.63Q163.90 15.04 163.90 15.61L163.90 15.61L163.90 23.25ZM185.48 23.46L185.48 23.46Q184.23 23.46 183.26 23.04Q182.30 22.63 181.76 21.79Q181.22 20.94 181.22 19.64L181.22 19.64Q181.22 18.56 181.58 17.80Q181.95 17.04 182.60 16.55Q183.26 16.07 184.13 15.80Q185.00 15.54 186.02 15.47L186.02 15.47Q187.13 15.39 187.79 15.27Q188.45 15.15 188.75 14.92Q189.05 14.70 189.05 14.32L189.05 14.32L189.05 14.27Q189.05 13.93 188.87 13.70Q188.68 13.46 188.36 13.34Q188.03 13.22 187.57 13.22L187.57 13.22Q187.13 13.22 186.76 13.35Q186.40 13.48 186.16 13.73Q185.92 13.99 185.84 14.39L185.84 14.39L181.59 13.97Q181.78 12.87 182.51 11.96Q183.23 11.06 184.52 10.52Q185.80 9.98 187.64 9.98L187.64 9.98Q189.04 9.98 190.17 10.31Q191.30 10.64 192.10 11.23Q192.90 11.81 193.33 12.59Q193.76 13.37 193.76 14.27L193.76 14.27L193.76 23.25L189.35 23.25L189.35 21.40L189.26 21.40Q188.86 22.14 188.30 22.59Q187.75 23.04 187.04 23.25Q186.34 23.46 185.48 23.46ZM187.01 20.48L187.01 20.48Q187.55 20.48 188.02 20.26Q188.50 20.04 188.79 19.62Q189.09 19.21 189.09 18.61L189.09 18.61L189.09 17.53Q188.91 17.60 188.70 17.67Q188.48 17.74 188.24 17.80Q188.00 17.86 187.75 17.91Q187.50 17.95 187.22 18L187.22 18Q186.67 18.08 186.32 18.28Q185.98 18.47 185.81 18.74Q185.65 19.02 185.65 19.36L185.65 19.36Q185.65 19.72 185.82 19.97Q186 20.23 186.30 20.36Q186.61 20.48 187.01 20.48ZM196.15 5.79L200.86 5.79L200.86 23.25L196.15 23.25L196.15 5.79Z"/></svg>