<svg xmlns="http://www.w3.org/2000/svg" xmlns:xlink="http://www.w3.org/1999/xlink" width="197.42399999999998" height="29.088"><path fill="black" d="M1.58 7.34L1.22 5.88L7.25 5.88Q8.86 5.88 10.20 6.32Q11.54 6.77 12.36 7.81Q13.18 8.86 13.18 10.68L13.18 10.68Q13.18 11.69 12.65 12.62Q12.12 13.56 11.27 14.22Q10.42 14.88 9.43 15.12L9.43 15.12L14.81 23.45L11.06 23.45L6.19 15.62L4.87 15.62L4.87 23.45L1.58 23.45L1.58 7.34ZM6.94 8.28L4.87 8.28L4.87 13.27L6.41 13.27Q7.34 13.27 8.09 13.04Q8.83 12.82 9.26 12.24Q9.70 11.66 9.70 10.66L9.70 10.66Q9.70 9.86 9.31 9.34Q8.93 8.81 8.30 8.54Q7.68 8.28 6.94 8.28L6.94 8.28ZM20.54 23.74L20.54 23.74Q18.74 23.74 17.46 22.91Q16.18 22.08 15.49 20.68Q14.81 19.27 14.81 17.54L14.81 17.54Q14.81 16.25 15.22 15.11Q15.62 13.97 16.40 13.09Q17.18 12.22 18.26 11.71Q19.34 11.21 20.69 11.21L20.69 11.21Q22.51 11.21 23.78 12.04Q25.06 12.86 25.74 14.27Q26.42 15.67 26.42 17.40L26.42 17.40Q26.42 18.70 26.02 19.84Q25.61 20.98 24.84 21.85Q24.07 22.73 22.99 23.23Q21.91 23.74 20.54 23.74ZM20.57 21.82L20.57 21.82Q21.41 21.82 21.94 21.40Q22.46 20.98 22.75 20.32Q23.04 19.66 23.15 18.90Q23.26 18.14 23.26 17.50L23.26 17.50Q23.26 16.82 23.17 16.07Q23.09 15.31 22.82 14.65Q22.56 13.99 22.04 13.58Q21.53 13.18 20.66 13.18L20.66 13.18Q19.85 13.18 19.32 13.61Q18.79 14.04 18.50 14.71Q18.22 15.38 18.10 16.13Q17.98 16.87 17.98 17.50L17.98 17.50Q17.98 18.14 18.07 18.89Q18.17 19.63 18.43 20.30Q18.70 20.98 19.21 21.40Q19.73 21.82 20.57 21.82ZM32.81 11.21L32.81 11.21Q33.65 11.21 34.62 11.39Q35.59 11.57 36.34 11.95L36.34 11.95L35.33 13.97Q34.85 13.58 34.21 13.37Q33.58 13.15 32.95 13.15L32.95 13.15Q32.35 13.15 31.84 13.44Q31.32 13.73 31.32 14.42L31.32 14.42Q31.32 14.83 31.52 15.11Q31.73 15.38 32.09 15.58Q32.45 15.77 32.88 15.96L32.88 15.96Q33.46 16.18 34.08 16.44Q34.70 16.70 35.26 17.09Q35.81 17.47 36.14 18.11Q36.48 18.74 36.48 19.73L36.48 19.73Q36.48 21 35.81 21.91Q35.14 22.82 34.07 23.30Q33 23.78 31.80 23.78L31.80 23.78Q30.84 23.78 29.75 23.50Q28.66 23.21 27.82 22.75L27.82 22.75L28.85 20.78Q29.47 21.14 30.14 21.44Q30.82 21.74 31.56 21.74L31.56 21.74Q32.28 21.74 32.82 21.37Q33.36 21 33.36 20.21L33.36 20.21Q33.36 19.68 33.08 19.36Q32.81 19.03 32.35 18.79Q31.90 18.55 31.34 18.36L31.34 18.36Q30.60 18.07 29.88 17.72Q29.16 17.38 28.68 16.73Q28.20 16.08 28.20 14.95L28.20 14.95Q28.20 13.68 28.88 12.85Q29.57 12.02 30.62 11.62Q31.68 11.21 32.81 11.21ZM43.46 11.23L43.46 11.23Q45.38 11.23 46.43 12.20Q47.47 13.18 47.47 15.12L47.47 15.12L47.47 20.38Q47.47 21.07 47.69 21.31Q47.90 21.55 48.24 21.55L48.24 21.55Q48.48 21.55 48.71 21.50Q48.94 21.46 49.18 21.36L49.18 21.36L49.63 22.99Q49.10 23.28 48.43 23.46Q47.76 23.64 47.21 23.64L47.21 23.64Q46.34 23.64 45.82 23.28Q45.29 22.92 45.07 22.03L45.07 22.03Q44.40 22.97 43.50 23.34Q42.60 23.71 41.47 23.71L41.47 23.71Q40.08 23.71 39.08 22.91Q38.09 22.10 38.09 20.64L38.09 20.64Q38.09 19.34 38.70 18.52Q39.31 17.69 40.30 17.24Q41.28 16.80 42.42 16.63Q43.56 16.46 44.59 16.46L44.59 16.46L44.59 14.90Q44.59 14.26 44.41 13.90Q44.23 13.54 43.85 13.38Q43.46 13.22 42.86 13.22L42.86 13.22Q42.05 13.22 41.23 13.68Q40.42 14.14 39.79 14.62L39.79 14.62L38.62 12.72Q39.70 11.98 40.93 11.60Q42.17 11.23 43.46 11.23ZM44.59 18.98L44.59 18.43Q44.09 18.43 43.49 18.48Q42.89 18.53 42.34 18.72Q41.78 18.91 41.44 19.30Q41.09 19.68 41.09 20.35L41.09 20.35Q41.09 20.90 41.53 21.20Q41.98 21.50 42.48 21.50L42.48 21.50Q43.15 21.50 43.62 21.12Q44.09 20.74 44.34 20.15Q44.59 19.56 44.59 18.98L44.59 18.98ZM50.09 11.52L53.14 11.28Q53.66 12.48 53.71 13.80L53.71 13.80Q54.31 12.79 55.39 12.04Q56.47 11.28 57.67 11.28L57.67 11.28L57.19 14.14Q56.14 14.14 55.31 14.68Q54.48 15.22 53.74 16.34L53.74 16.34L53.74 23.45L50.86 23.45L50.86 14.74Q50.86 14.28 50.78 13.67Q50.71 13.06 50.54 12.48Q50.38 11.90 50.09 11.52L50.09 11.52ZM62.45 7.18L62.45 7.18Q62.45 7.92 61.92 8.47Q61.39 9.02 60.62 9.02L60.62 9.02Q59.88 9.02 59.33 8.47Q58.78 7.92 58.78 7.18L58.78 7.18Q58.78 6.41 59.33 5.88Q59.88 5.35 60.65 5.35L60.65 5.35Q61.39 5.35 61.92 5.88Q62.45 6.41 62.45 7.18ZM58.90 11.52L62.04 11.52L62.04 23.45L59.16 23.45L59.16 12.82L58.90 11.52ZM69.98 23.74L69.98 23.74Q68.18 23.74 66.90 22.91Q65.62 22.08 64.93 20.68Q64.25 19.27 64.25 17.54L64.25 17.54Q64.25 16.25 64.66 15.11Q65.06 13.97 65.84 13.09Q66.62 12.22 67.70 11.71Q68.78 11.21 70.13 11.21L70.13 11.21Q71.95 11.21 73.22 12.04Q74.50 12.86 75.18 14.27Q75.86 15.67 75.86 17.40L75.86 17.40Q75.86 18.70 75.46 19.84Q75.05 20.98 74.28 21.85Q73.51 22.73 72.43 23.23Q71.35 23.74 69.98 23.74ZM70.01 21.82L70.01 21.82Q70.85 21.82 71.38 21.40Q71.90 20.98 72.19 20.32Q72.48 19.66 72.59 18.90Q72.70 18.14 72.70 17.50L72.70 17.50Q72.70 16.82 72.61 16.07Q72.53 15.31 72.26 14.65Q72 13.99 71.48 13.58Q70.97 13.18 70.10 13.18L70.10 13.18Q69.29 13.18 68.76 13.61Q68.23 14.04 67.94 14.71Q67.66 15.38 67.54 16.13Q67.42 16.87 67.42 17.50L67.42 17.50Q67.42 18.14 67.51 18.89Q67.61 19.63 67.87 20.30Q68.14 20.98 68.65 21.40Q69.17 21.82 70.01 21.82ZM82.10 14.18L82.87 11.52L92.52 11.52L92.52 13.03L85.68 27.98L82.30 27.98L89.64 14.18L82.10 14.18ZM99.58 11.21L99.58 11.21Q101.45 11.21 102.76 11.99Q104.06 12.77 104.76 14.18Q105.46 15.60 105.46 17.47L105.46 17.47Q105.46 19.30 104.69 20.71Q103.92 22.13 102.55 22.93Q101.18 23.74 99.34 23.74L99.34 23.74Q97.51 23.74 96.19 22.93Q94.87 22.13 94.16 20.71Q93.46 19.30 93.46 17.47L93.46 17.47Q93.46 15.58 94.20 14.17Q94.94 12.77 96.32 11.99Q97.70 11.21 99.58 11.21ZM99.46 13.15L99.46 13.15Q98.59 13.15 98.04 13.56Q97.49 13.97 97.18 14.62Q96.86 15.26 96.73 16.02Q96.60 16.78 96.60 17.47L96.60 17.47Q96.60 18.19 96.71 18.96Q96.82 19.73 97.12 20.36Q97.42 21 97.98 21.40Q98.54 21.79 99.46 21.79L99.46 21.79Q100.37 21.79 100.93 21.40Q101.50 21 101.78 20.36Q102.07 19.73 102.18 18.96Q102.29 18.19 102.29 17.47L102.29 17.47Q102.29 16.78 102.17 16.02Q102.05 15.26 101.75 14.62Q101.45 13.97 100.88 13.56Q100.32 13.15 99.46 13.15ZM113.11 11.21L113.11 11.21Q114.98 11.21 116.29 11.99Q117.60 12.77 118.30 14.18Q118.99 15.60 118.99 17.47L118.99 17.47Q118.99 19.30 118.22 20.71Q117.46 22.13 116.09 22.93Q114.72 23.74 112.87 23.74L112.87 23.74Q111.05 23.74 109.73 22.93Q108.41 22.13 107.70 20.71Q106.99 19.30 106.99 17.47L106.99 17.47Q106.99 15.58 107.74 14.17Q108.48 12.77 109.86 11.99Q111.24 11.21 113.11 11.21ZM112.99 13.15L112.99 13.15Q112.13 13.15 111.58 13.56Q111.02 13.97 110.71 14.62Q110.40 15.26 110.27 16.02Q110.14 16.78 110.14 17.47L110.14 17.47Q110.14 18.19 110.24 18.96Q110.35 19.73 110.65 20.36Q110.95 21 111.52 21.40Q112.08 21.79 112.99 21.79L112.99 21.79Q113.90 21.79 114.47 21.40Q115.03 21 115.32 20.36Q115.61 19.73 115.72 18.96Q115.82 18.19 115.82 17.47L115.82 17.47Q115.82 16.78 115.70 16.02Q115.58 15.26 115.28 14.62Q114.98 13.97 114.42 13.56Q113.86 13.15 112.99 13.15ZM126.31 11.62L129.34 11.26Q129.50 11.62 129.60 12.01Q129.70 12.41 129.74 12.79L129.74 12.79Q130.46 12.14 131.44 11.66Q132.41 11.18 133.39 11.18L133.39 11.18Q134.78 11.18 135.55 11.71Q136.32 12.24 136.63 13.19Q136.94 14.14 136.94 15.38L136.94 15.38L136.94 23.45L134.04 23.45L134.04 15.67Q134.04 15.12 133.96 14.62Q133.87 14.11 133.55 13.79Q133.22 13.46 132.53 13.46L132.53 13.46Q132.17 13.46 131.65 13.68Q131.14 13.90 130.67 14.20Q130.20 14.50 129.94 14.78L129.94 14.78L129.94 23.45L127.06 23.45L127.06 14.90Q127.06 14.47 127.00 13.84Q126.94 13.20 126.77 12.58Q126.60 11.95 126.31 11.62L126.31 11.62ZM144.77 23.74L144.77 23.74Q142.97 23.74 141.68 22.91Q140.40 22.08 139.72 20.68Q139.03 19.27 139.03 17.54L139.03 17.54Q139.03 16.25 139.44 15.11Q139.85 13.97 140.63 13.09Q141.41 12.22 142.49 11.71Q143.57 11.21 144.91 11.21L144.91 11.21Q146.74 11.21 148.01 12.04Q149.28 12.86 149.96 14.27Q150.65 15.67 150.65 17.40L150.65 17.40Q150.65 18.70 150.24 19.84Q149.83 20.98 149.06 21.85Q148.30 22.73 147.22 23.23Q146.14 23.74 144.77 23.74ZM144.79 21.82L144.79 21.82Q145.63 21.82 146.16 21.40Q146.69 20.98 146.98 20.32Q147.26 19.66 147.37 18.90Q147.48 18.14 147.48 17.50L147.48 17.50Q147.48 16.82 147.40 16.07Q147.31 15.31 147.05 14.65Q146.78 13.99 146.27 13.58Q145.75 13.18 144.89 13.18L144.89 13.18Q144.07 13.18 143.54 13.61Q143.02 14.04 142.73 14.71Q142.44 15.38 142.32 16.13Q142.20 16.87 142.20 17.50L142.20 17.50Q142.20 18.14 142.30 18.89Q142.39 19.63 142.66 20.30Q142.92 20.98 143.44 21.40Q143.95 21.82 144.79 21.82ZM152.14 11.52L155.18 11.28Q155.71 12.48 155.76 13.80L155.76 13.80Q156.36 12.79 157.44 12.04Q158.52 11.28 159.72 11.28L159.72 11.28L159.24 14.14Q158.18 14.14 157.36 14.68Q156.53 15.22 155.78 16.34L155.78 16.34L155.78 23.45L152.90 23.45L152.90 14.74Q152.90 14.28 152.83 13.67Q152.76 13.06 152.59 12.48Q152.42 11.90 152.14 11.52L152.14 11.52ZM160.70 11.62L163.73 11.26Q163.90 11.62 163.99 12.01Q164.09 12.41 164.14 12.79L164.14 12.79Q164.69 12.31 165.24 11.95Q165.79 11.59 166.42 11.40Q167.04 11.21 167.81 11.21L167.81 11.21Q168.79 11.21 169.60 11.62Q170.40 12.02 170.78 12.96L170.78 12.96Q171.34 12.41 171.94 12.02Q172.54 11.64 173.22 11.42Q173.90 11.21 174.67 11.21L174.67 11.21Q175.99 11.21 176.72 11.75Q177.46 12.29 177.74 13.21Q178.03 14.14 178.03 15.31L178.03 15.31L178.03 23.45L175.15 23.45L175.15 15.48Q175.15 15.05 175.09 14.68Q175.03 14.30 174.86 14.03Q174.70 13.75 174.38 13.61Q174.07 13.46 173.57 13.46L173.57 13.46Q172.97 13.46 172.27 13.91Q171.58 14.35 171.17 14.76L171.17 14.76L171.17 23.45L168.26 23.45L168.26 15.41Q168.26 15.02 168.20 14.68Q168.14 14.33 167.98 14.05Q167.81 13.78 167.51 13.62Q167.21 13.46 166.75 13.46L166.75 13.46Q166.34 13.46 165.89 13.67Q165.43 13.87 165.02 14.17Q164.62 14.47 164.33 14.78L164.33 14.78L164.33 23.45L161.45 23.45L161.45 14.90Q161.45 14.47 161.39 13.84Q161.33 13.20 161.16 12.58Q160.99 11.95 160.70 11.62L160.70 11.62ZM185.64 11.23L185.64 11.23Q187.56 11.23 188.60 12.20Q189.65 13.18 189.65 15.12L189.65 15.12L189.65 20.38Q189.65 21.07 189.86 21.31Q190.08 21.55 190.42 21.55L190.42 21.55Q190.66 21.55 190.88 21.50Q191.11 21.46 191.35 21.36L191.35 21.36L191.81 22.99Q191.28 23.28 190.61 23.46Q189.94 23.64 189.38 23.64L189.38 23.64Q188.52 23.64 187.99 23.28Q187.46 22.92 187.25 22.03L187.25 22.03Q186.58 22.97 185.68 23.34Q184.78 23.71 183.65 23.71L183.65 23.71Q182.26 23.71 181.26 22.91Q180.26 22.10 180.26 20.64L180.26 20.64Q180.26 19.34 180.88 18.52Q181.49 17.69 182.47 17.24Q183.46 16.80 184.60 16.63Q185.74 16.46 186.77 16.46L186.77 16.46L186.77 14.90Q186.77 14.26 186.59 13.90Q186.41 13.54 186.02 13.38Q185.64 13.22 185.04 13.22L185.04 13.22Q184.22 13.22 183.41 13.68Q182.59 14.14 181.97 14.62L181.97 14.62L180.79 12.72Q181.87 11.98 183.11 11.60Q184.34 11.23 185.64 11.23ZM186.77 18.98L186.77 18.43Q186.26 18.43 185.66 18.48Q185.06 18.53 184.51 18.72Q183.96 18.91 183.61 19.30Q183.26 19.68 183.26 20.35L183.26 20.35Q183.26 20.90 183.71 21.20Q184.15 21.50 184.66 21.50L184.66 21.50Q185.33 21.50 185.80 21.12Q186.26 20.74 186.52 20.15Q186.77 19.56 186.77 18.98L186.77 18.98ZM192.65 4.99L195.84 4.99L195.84 23.45L192.91 23.45L192.91 6.29L192.65 4.99Z"/></svg>