<svg xmlns="http://www.w3.org/2000/svg" xmlns:xlink="http://www.w3.org/1999/xlink" width="338.064" height="30.240000000000002"><path fill="black" d="M5.30 24.91L1.58 24.91L1.58 7.03L8.45 7.03Q10.30 7.03 11.72 7.68Q13.15 8.33 13.97 9.60Q14.78 10.87 14.78 12.74L14.78 12.74Q14.78 14.57 13.96 15.84Q13.13 17.11 11.70 17.77Q10.27 18.43 8.45 18.43L8.45 18.43L5.30 18.43L5.30 24.91ZM5.30 10.27L5.30 15.19L8.47 15.19Q9.26 15.19 9.84 14.88Q10.42 14.57 10.74 14.02Q11.06 13.46 11.06 12.74L11.06 12.74Q11.06 12.00 10.74 11.45Q10.42 10.90 9.84 10.58Q9.26 10.27 8.47 10.27L8.47 10.27L5.30 10.27ZM20.50 24.91L16.90 24.91L16.90 6.74L20.50 6.74L20.50 24.91ZM27.84 25.20L27.84 25.20Q26.26 25.20 25.14 24.52Q24.02 23.83 23.45 22.61Q22.87 21.38 22.87 19.75L22.87 19.75L22.87 11.81L26.47 11.81L26.47 19.46Q26.47 20.21 26.77 20.77Q27.07 21.34 27.62 21.65Q28.18 21.96 28.87 21.96L28.87 21.96Q29.59 21.96 30.13 21.65Q30.67 21.34 30.97 20.77Q31.27 20.21 31.27 19.46L31.27 19.46L31.27 11.81L34.87 11.81L34.87 24.91L31.51 24.91L31.51 22.32L31.70 22.90Q31.25 24.07 30.23 24.64Q29.21 25.20 27.84 25.20ZM42.65 25.20L42.65 25.20Q40.49 25.20 38.89 24.18Q37.30 23.16 36.72 21.43L36.72 21.43L39.36 20.18Q39.86 21.24 40.73 21.84Q41.59 22.44 42.65 22.44L42.65 22.44Q43.42 22.44 43.82 22.13Q44.23 21.82 44.23 21.26L44.23 21.26Q44.23 20.98 44.09 20.77Q43.94 20.57 43.66 20.40Q43.37 20.23 42.94 20.11L42.94 20.11L40.70 19.49Q39.10 19.03 38.23 18.01Q37.37 16.99 37.37 15.60L37.37 15.60Q37.37 14.38 37.99 13.46Q38.62 12.55 39.74 12.04Q40.87 11.52 42.34 11.52L42.34 11.52Q44.26 11.52 45.71 12.42Q47.16 13.32 47.76 14.95L47.76 14.95L45.10 16.20Q44.81 15.38 44.05 14.89Q43.30 14.40 42.34 14.40L42.34 14.40Q41.64 14.40 41.24 14.69Q40.85 14.98 40.85 15.48L40.85 15.48Q40.85 15.74 40.99 15.96Q41.14 16.18 41.46 16.34Q41.78 16.51 42.26 16.66L42.26 16.66L44.35 17.28Q45.98 17.76 46.85 18.73Q47.71 19.70 47.71 21.12L47.71 21.12Q47.71 22.34 47.08 23.26Q46.44 24.17 45.31 24.68Q44.18 25.20 42.65 25.20ZM54.74 24.91L53.66 24.91L53.66 21.55L54.74 21.55Q55.82 21.55 56.48 20.94Q57.14 20.33 57.14 19.32L57.14 19.32L57.14 7.03L60.86 7.03L60.86 19.15Q60.86 20.88 60.12 22.18Q59.38 23.47 58.00 24.19Q56.62 24.91 54.74 24.91L54.74 24.91ZM67.75 25.20L67.75 25.20Q66.34 25.20 65.30 24.74Q64.27 24.29 63.72 23.44Q63.17 22.58 63.17 21.41L63.17 21.41Q63.17 20.30 63.67 19.45Q64.18 18.60 65.22 18.02Q66.26 17.45 67.82 17.21L67.82 17.21L71.83 16.56L71.83 19.20L68.47 19.80Q67.70 19.94 67.30 20.29Q66.89 20.64 66.89 21.29L66.89 21.29Q66.89 21.89 67.34 22.22Q67.80 22.56 68.47 22.56L68.47 22.56Q69.36 22.56 70.03 22.18Q70.70 21.79 71.08 21.13Q71.45 20.47 71.45 19.68L71.45 19.68L71.45 16.27Q71.45 15.53 70.86 15.02Q70.27 14.52 69.26 14.52L69.26 14.52Q68.30 14.52 67.57 15.05Q66.84 15.58 66.50 16.44L66.50 16.44L63.62 15.07Q64.01 13.97 64.85 13.18Q65.69 12.38 66.86 11.95Q68.04 11.52 69.43 11.52L69.43 11.52Q71.09 11.52 72.36 12.12Q73.63 12.72 74.34 13.79Q75.05 14.86 75.05 16.27L75.05 16.27L75.05 24.91L71.69 24.91L71.69 22.80L72.50 22.66Q71.93 23.52 71.23 24.08Q70.54 24.65 69.67 24.92Q68.81 25.20 67.75 25.20ZM81.29 24.91L77.69 24.91L77.69 6.74L81.29 6.74L81.29 18.38L79.94 17.95L85.73 11.81L90.17 11.81L85.42 17.09L90.14 24.91L86.06 24.91L82.10 18.26L84.19 17.74L80.18 22.10L81.29 20.02L81.29 24.91ZM95.81 25.20L95.81 25.20Q94.39 25.20 93.36 24.74Q92.33 24.29 91.78 23.44Q91.22 22.58 91.22 21.41L91.22 21.41Q91.22 20.30 91.73 19.45Q92.23 18.60 93.28 18.02Q94.32 17.45 95.88 17.21L95.88 17.21L99.89 16.56L99.89 19.20L96.53 19.80Q95.76 19.94 95.35 20.29Q94.94 20.64 94.94 21.29L94.94 21.29Q94.94 21.89 95.40 22.22Q95.86 22.56 96.53 22.56L96.53 22.56Q97.42 22.56 98.09 22.18Q98.76 21.79 99.13 21.13Q99.50 20.47 99.50 19.68L99.50 19.68L99.50 16.27Q99.50 15.53 98.92 15.02Q98.33 14.52 97.32 14.52L97.32 14.52Q96.36 14.52 95.63 15.05Q94.90 15.58 94.56 16.44L94.56 16.44L91.68 15.07Q92.06 13.97 92.90 13.18Q93.74 12.38 94.92 11.95Q96.10 11.52 97.49 11.52L97.49 11.52Q99.14 11.52 100.42 12.12Q101.69 12.72 102.40 13.79Q103.10 14.86 103.10 16.27L103.10 16.27L103.10 24.91L99.74 24.91L99.74 22.80L100.56 22.66Q99.98 23.52 99.29 24.08Q98.59 24.65 97.73 24.92Q96.86 25.20 95.81 25.20ZM109.34 24.91L105.74 24.91L105.74 11.81L109.10 11.81L109.10 14.95L108.86 14.50Q109.30 12.84 110.29 12.25Q111.29 11.66 112.66 11.66L112.66 11.66L113.42 11.66L113.42 14.78L112.30 14.78Q110.98 14.78 110.16 15.59Q109.34 16.39 109.34 17.86L109.34 17.86L109.34 24.91ZM121.80 25.06L121.80 25.06Q119.42 25.06 118.12 23.77Q116.81 22.49 116.81 20.18L116.81 20.18L116.81 14.93L114.60 14.93L114.60 11.81L114.72 11.81Q115.73 11.81 116.27 11.30Q116.81 10.80 116.81 9.79L116.81 9.79L116.81 8.83L120.41 8.83L120.41 11.81L123.48 11.81L123.48 14.93L120.41 14.93L120.41 19.94Q120.41 20.62 120.65 21.06Q120.89 21.50 121.39 21.72Q121.90 21.94 122.64 21.94L122.64 21.94Q122.81 21.94 123.02 21.91Q123.24 21.89 123.48 21.86L123.48 21.86L123.48 24.91Q123.12 24.96 122.66 25.01Q122.21 25.06 121.80 25.06ZM129.65 25.20L129.65 25.20Q128.23 25.20 127.20 24.74Q126.17 24.29 125.62 23.44Q125.06 22.58 125.06 21.41L125.06 21.41Q125.06 20.30 125.57 19.45Q126.07 18.60 127.12 18.02Q128.16 17.45 129.72 17.21L129.72 17.21L133.73 16.56L133.73 19.20L130.37 19.80Q129.60 19.94 129.19 20.29Q128.78 20.64 128.78 21.29L128.78 21.29Q128.78 21.89 129.24 22.22Q129.70 22.56 130.37 22.56L130.37 22.56Q131.26 22.56 131.93 22.18Q132.60 21.79 132.97 21.13Q133.34 20.47 133.34 19.68L133.34 19.68L133.34 16.27Q133.34 15.53 132.76 15.02Q132.17 14.52 131.16 14.52L131.16 14.52Q130.20 14.52 129.47 15.05Q128.74 15.58 128.40 16.44L128.40 16.44L125.52 15.07Q125.90 13.97 126.74 13.18Q127.58 12.38 128.76 11.95Q129.94 11.52 131.33 11.52L131.33 11.52Q132.98 11.52 134.26 12.12Q135.53 12.72 136.24 13.79Q136.94 14.86 136.94 16.27L136.94 16.27L136.94 24.91L133.58 24.91L133.58 22.80L134.40 22.66Q133.82 23.52 133.13 24.08Q132.43 24.65 131.57 24.92Q130.70 25.20 129.65 25.20ZM150.67 25.20L150.67 25.20Q148.99 25.20 147.52 24.59Q146.04 23.98 144.97 22.85Q143.90 21.72 143.38 20.18L143.38 20.18L146.42 18.82Q147.10 20.28 148.28 21.12Q149.47 21.96 150.91 21.96L150.91 21.96Q151.68 21.96 152.23 21.72Q152.78 21.48 153.10 21.06Q153.41 20.64 153.41 20.06L153.41 20.06Q153.41 19.44 153.02 19.00Q152.64 18.55 151.82 18.29L151.82 18.29L148.32 17.14Q146.18 16.44 145.10 15.16Q144.02 13.87 144.02 12.07L144.02 12.07Q144.02 10.49 144.80 9.29Q145.58 8.09 146.99 7.42Q148.39 6.74 150.22 6.74L150.22 6.74Q151.82 6.74 153.19 7.30Q154.56 7.85 155.56 8.86Q156.55 9.86 157.06 11.28L157.06 11.28L154.03 12.65Q153.53 11.40 152.52 10.69Q151.51 9.98 150.22 9.98L150.22 9.98Q149.47 9.98 148.90 10.22Q148.32 10.46 148.01 10.91Q147.70 11.35 147.70 11.93L147.70 11.93Q147.70 12.55 148.10 13.02Q148.51 13.49 149.33 13.75L149.33 13.75L152.76 14.86Q154.92 15.55 155.99 16.80Q157.06 18.05 157.06 19.85L157.06 19.85Q157.06 21.41 156.24 22.62Q155.42 23.83 154.00 24.52Q152.57 25.20 150.67 25.20ZM163.49 25.20L163.49 25.20Q162.07 25.20 161.04 24.74Q160.01 24.29 159.46 23.44Q158.90 22.58 158.90 21.41L158.90 21.41Q158.90 20.30 159.41 19.45Q159.91 18.60 160.96 18.02Q162.00 17.45 163.56 17.21L163.56 17.21L167.57 16.56L167.57 19.20L164.21 19.80Q163.44 19.94 163.03 20.29Q162.62 20.64 162.62 21.29L162.62 21.29Q162.62 21.89 163.08 22.22Q163.54 22.56 164.21 22.56L164.21 22.56Q165.10 22.56 165.77 22.18Q166.44 21.79 166.81 21.13Q167.18 20.47 167.18 19.68L167.18 19.68L167.18 16.27Q167.18 15.53 166.60 15.02Q166.01 14.52 165.00 14.52L165.00 14.52Q164.04 14.52 163.31 15.05Q162.58 15.58 162.24 16.44L162.24 16.44L159.36 15.07Q159.74 13.97 160.58 13.18Q161.42 12.38 162.60 11.95Q163.78 11.52 165.17 11.52L165.17 11.52Q166.82 11.52 168.10 12.12Q169.37 12.72 170.08 13.79Q170.78 14.86 170.78 16.27L170.78 16.27L170.78 24.91L167.42 24.91L167.42 22.80L168.24 22.66Q167.66 23.52 166.97 24.08Q166.27 24.65 165.41 24.92Q164.54 25.20 163.49 25.20ZM177.02 24.91L173.42 24.91L173.42 11.81L176.78 11.81L176.78 14.40L176.59 13.82Q177.05 12.65 178.07 12.08Q179.09 11.52 180.46 11.52L180.46 11.52Q181.94 11.52 183.06 12.14Q184.18 12.77 184.80 13.88Q185.42 15.00 185.42 16.49L185.42 16.49L185.42 24.91L181.82 24.91L181.82 17.26Q181.82 16.49 181.52 15.94Q181.22 15.38 180.68 15.07Q180.14 14.76 179.42 14.76L179.42 14.76Q178.73 14.76 178.18 15.07Q177.62 15.38 177.32 15.94Q177.02 16.49 177.02 17.26L177.02 17.26L177.02 24.91ZM192.94 25.20L192.94 25.20Q190.78 25.20 189.18 24.18Q187.58 23.16 187.01 21.43L187.01 21.43L189.65 20.18Q190.15 21.24 191.02 21.84Q191.88 22.44 192.94 22.44L192.94 22.44Q193.70 22.44 194.11 22.13Q194.52 21.82 194.52 21.26L194.52 21.26Q194.52 20.98 194.38 20.77Q194.23 20.57 193.94 20.40Q193.66 20.23 193.22 20.11L193.22 20.11L190.99 19.49Q189.38 19.03 188.52 18.01Q187.66 16.99 187.66 15.60L187.66 15.60Q187.66 14.38 188.28 13.46Q188.90 12.55 190.03 12.04Q191.16 11.52 192.62 11.52L192.62 11.52Q194.54 11.52 196.00 12.42Q197.45 13.32 198.05 14.95L198.05 14.95L195.38 16.20Q195.10 15.38 194.34 14.89Q193.58 14.40 192.62 14.40L192.62 14.40Q191.93 14.40 191.53 14.69Q191.14 14.98 191.14 15.48L191.14 15.48Q191.14 15.74 191.28 15.96Q191.42 16.18 191.75 16.34Q192.07 16.51 192.55 16.66L192.55 16.66L194.64 17.28Q196.27 17.76 197.14 18.73Q198.00 19.70 198.00 21.12L198.00 21.12Q198.00 22.34 197.36 23.26Q196.73 24.17 195.60 24.68Q194.47 25.20 192.94 25.20ZM210.74 25.20L210.74 25.20Q208.73 25.20 207.28 24.46Q205.82 23.71 205.06 22.46Q204.29 21.22 204.29 19.75L204.29 19.75Q204.29 18 205.21 16.82Q206.14 15.65 207.94 15.05L207.94 15.05L207.70 15.96Q206.42 15.58 205.67 14.38Q204.91 13.18 204.91 11.71L204.91 11.71Q204.91 10.27 205.66 9.14Q206.40 8.02 207.72 7.38Q209.04 6.74 210.74 6.74L210.74 6.74Q212.45 6.74 213.76 7.38Q215.06 8.02 215.82 9.14Q216.58 10.27 216.58 11.71L216.58 11.71Q216.58 13.18 215.83 14.38Q215.09 15.58 213.79 15.98L213.79 15.98L213.58 15.02Q215.38 15.70 216.31 16.86Q217.25 18.02 217.25 19.78L217.25 19.78Q217.25 21.24 216.47 22.48Q215.69 23.71 214.22 24.46Q212.76 25.20 210.74 25.20ZM210.74 22.08L210.74 22.08Q211.58 22.08 212.21 21.77Q212.83 21.46 213.18 20.90Q213.53 20.35 213.53 19.63L213.53 19.63Q213.53 18.89 213.18 18.35Q212.83 17.81 212.21 17.51Q211.58 17.21 210.74 17.21L210.74 17.21Q209.93 17.21 209.32 17.51Q208.70 17.81 208.36 18.35Q208.01 18.89 208.01 19.63L208.01 19.63Q208.01 20.35 208.36 20.90Q208.70 21.46 209.32 21.77Q209.93 22.08 210.74 22.08ZM210.74 14.09L210.74 14.09Q211.39 14.09 211.86 13.80Q212.33 13.51 212.59 13.03Q212.86 12.55 212.86 11.98L212.86 11.98Q212.86 11.38 212.59 10.90Q212.33 10.42 211.86 10.14Q211.39 9.86 210.74 9.86L210.74 9.86Q210.12 9.86 209.64 10.14Q209.16 10.42 208.90 10.90Q208.63 11.38 208.63 11.98L208.63 11.98Q208.63 12.55 208.90 13.03Q209.16 13.51 209.64 13.80Q210.12 14.09 210.74 14.09ZM226.75 25.20L226.75 25.20Q224.62 25.20 223.00 24.05Q221.38 22.90 220.46 20.81Q219.55 18.72 219.55 15.96L219.55 15.96Q219.55 13.18 220.45 11.11Q221.35 9.05 222.97 7.90Q224.59 6.74 226.73 6.74L226.73 6.74Q228.91 6.74 230.53 7.90Q232.15 9.05 233.05 11.12Q233.95 13.20 233.95 15.96L233.95 15.96Q233.95 18.72 233.05 20.80Q232.15 22.87 230.53 24.04Q228.91 25.20 226.75 25.20ZM226.78 21.84L226.78 21.84Q227.88 21.84 228.65 21.14Q229.42 20.45 229.82 19.13Q230.23 17.81 230.23 15.96L230.23 15.96Q230.23 14.11 229.82 12.80Q229.42 11.50 228.64 10.80Q227.86 10.10 226.73 10.10L226.73 10.10Q225.62 10.10 224.86 10.80Q224.09 11.50 223.68 12.80Q223.27 14.11 223.27 15.96L223.27 15.96Q223.27 17.78 223.68 19.10Q224.09 20.42 224.87 21.13Q225.65 21.84 226.78 21.84ZM243.55 25.20L243.55 25.20Q241.42 25.20 239.80 24.05Q238.18 22.90 237.26 20.81Q236.35 18.72 236.35 15.96L236.35 15.96Q236.35 13.18 237.25 11.11Q238.15 9.05 239.77 7.90Q241.39 6.74 243.53 6.74L243.53 6.74Q245.71 6.74 247.33 7.90Q248.95 9.05 249.85 11.12Q250.75 13.20 250.75 15.96L250.75 15.96Q250.75 18.72 249.85 20.80Q248.95 22.87 247.33 24.04Q245.71 25.20 243.55 25.20ZM243.58 21.84L243.58 21.84Q244.68 21.84 245.45 21.14Q246.22 20.45 246.62 19.13Q247.03 17.81 247.03 15.96L247.03 15.96Q247.03 14.11 246.62 12.80Q246.22 11.50 245.44 10.80Q244.66 10.10 243.53 10.10L243.53 10.10Q242.42 10.10 241.66 10.80Q240.89 11.50 240.48 12.80Q240.07 14.11 240.07 15.96L240.07 15.96Q240.07 17.78 240.48 19.10Q240.89 20.42 241.67 21.13Q242.45 21.84 243.58 21.84ZM261.19 24.91L257.59 24.91L257.59 11.81L260.95 11.81L260.95 14.40L260.76 13.82Q261.22 12.65 262.24 12.08Q263.26 11.52 264.62 11.52L264.62 11.52Q266.11 11.52 267.23 12.14Q268.34 12.77 268.97 13.88Q269.59 15.00 269.59 16.49L269.59 16.49L269.59 24.91L265.99 24.91L265.99 17.26Q265.99 16.49 265.69 15.94Q265.39 15.38 264.85 15.07Q264.31 14.76 263.59 14.76L263.59 14.76Q262.90 14.76 262.34 15.07Q261.79 15.38 261.49 15.94Q261.19 16.49 261.19 17.26L261.19 17.26L261.19 24.91ZM278.47 25.20L278.47 25.20Q276.53 25.20 274.93 24.31Q273.34 23.42 272.39 21.88Q271.44 20.33 271.44 18.36L271.44 18.36Q271.44 16.37 272.39 14.83Q273.34 13.30 274.93 12.41Q276.53 11.52 278.47 11.52L278.47 11.52Q280.42 11.52 282.00 12.41Q283.58 13.30 284.53 14.83Q285.48 16.37 285.48 18.36L285.48 18.36Q285.48 20.33 284.53 21.88Q283.58 23.42 282.00 24.31Q280.42 25.20 278.47 25.20ZM278.47 21.96L278.47 21.96Q279.46 21.96 280.19 21.50Q280.92 21.05 281.34 20.23Q281.76 19.42 281.76 18.36L281.76 18.36Q281.76 17.30 281.34 16.50Q280.92 15.70 280.19 15.23Q279.46 14.76 278.47 14.76L278.47 14.76Q277.49 14.76 276.74 15.23Q276.00 15.70 275.58 16.50Q275.16 17.30 275.16 18.36L275.16 18.36Q275.16 19.42 275.58 20.23Q276.00 21.05 276.74 21.50Q277.49 21.96 278.47 21.96ZM291.19 24.91L287.59 24.91L287.59 11.81L290.95 11.81L290.95 14.95L290.71 14.50Q291.14 12.84 292.14 12.25Q293.14 11.66 294.50 11.66L294.50 11.66L295.27 11.66L295.27 14.78L294.14 14.78Q292.82 14.78 292.01 15.59Q291.19 16.39 291.19 17.86L291.19 17.86L291.19 24.91ZM300.46 24.91L296.86 24.91L296.86 11.81L300.22 11.81L300.22 15.00L299.86 14.47Q300.14 12.96 301.25 12.24Q302.35 11.52 303.89 11.52L303.89 11.52Q305.52 11.52 306.76 12.35Q307.99 13.18 308.30 14.57L308.30 14.57L307.27 14.66Q307.92 13.06 309.12 12.29Q310.32 11.52 311.93 11.52L311.93 11.52Q313.34 11.52 314.44 12.14Q315.53 12.77 316.15 13.88Q316.78 15.00 316.78 16.49L316.78 16.49L316.78 24.91L313.18 24.91L313.18 17.26Q313.18 16.49 312.90 15.94Q312.62 15.38 312.12 15.07Q311.62 14.76 310.90 14.76L310.90 14.76Q310.20 14.76 309.68 15.07Q309.17 15.38 308.89 15.94Q308.62 16.49 308.62 17.26L308.62 17.26L308.62 24.91L305.02 24.91L305.02 17.26Q305.02 16.49 304.74 15.94Q304.46 15.38 303.96 15.07Q303.46 14.76 302.74 14.76L302.74 14.76Q302.04 14.76 301.52 15.07Q301.01 15.38 300.73 15.94Q300.46 16.49 300.46 17.26L300.46 17.26L300.46 24.91ZM323.21 25.20L323.21 25.20Q321.79 25.20 320.76 24.74Q319.73 24.29 319.18 23.44Q318.62 22.58 318.62 21.41L318.62 21.41Q318.62 20.30 319.13 19.45Q319.63 18.60 320.68 18.02Q321.72 17.45 323.28 17.21L323.28 17.21L327.29 16.56L327.29 19.20L323.93 19.80Q323.16 19.94 322.75 20.29Q322.34 20.64 322.34 21.29L322.34 21.29Q322.34 21.89 322.80 22.22Q323.26 22.56 323.93 22.56L323.93 22.56Q324.82 22.56 325.49 22.18Q326.16 21.79 326.53 21.13Q326.90 20.47 326.90 19.68L326.90 19.68L326.90 16.27Q326.90 15.53 326.32 15.02Q325.73 14.52 324.72 14.52L324.72 14.52Q323.76 14.52 323.03 15.05Q322.30 15.58 321.96 16.44L321.96 16.44L319.08 15.07Q319.46 13.97 320.30 13.18Q321.14 12.38 322.32 11.95Q323.50 11.52 324.89 11.52L324.89 11.52Q326.54 11.52 327.82 12.12Q329.09 12.72 329.80 13.79Q330.50 14.86 330.50 16.27L330.50 16.27L330.50 24.91L327.14 24.91L327.14 22.80L327.96 22.66Q327.38 23.52 326.69 24.08Q325.99 24.65 325.13 24.92Q324.26 25.20 323.21 25.20ZM336.74 24.91L333.14 24.91L333.14 6.74L336.74 6.74L336.74 24.91Z"/></svg>