<svg xmlns="http://www.w3.org/2000/svg" xmlns:xlink="http://www.w3.org/1999/xlink" width="322.284" height="30.168"><path fill="black" d="M11.86 23.64L8.68 23.83L7.06 10.80L6.83 7.37L6.18 10.86L3.34 23.62L0.07 23.62L4.76 5.69L9.36 5.69L10.67 18.07L10.79 20.39L11.35 18.07L15.92 5.69L20.70 5.69L20.36 23.62L17.05 23.62L17.89 10.93L18.19 7.37L16.98 10.67L11.86 23.64ZM28.00 23.81L28.00 23.81Q26.33 23.81 25.26 23.08L25.26 23.08Q24.16 22.33 23.65 21.13Q23.14 19.92 23.15 18.49L23.15 18.49Q23.15 16.15 24.12 14.20L24.12 14.20Q25.07 12.26 26.72 11.17Q28.38 10.08 30.43 10.08L30.43 10.08Q31.63 10.08 32.44 10.49Q33.24 10.90 33.65 11.58Q34.06 12.26 34.06 13.08L34.06 13.08Q34.06 14.33 33.44 15.30Q32.83 16.27 31.78 16.99Q30.72 17.70 29.38 18.17Q28.04 18.65 26.59 18.89L26.59 18.89Q26.59 18.98 26.59 19.07Q26.59 19.16 26.59 19.25L26.59 19.25Q26.64 20.26 27.11 20.86Q27.59 21.47 28.67 21.47L28.67 21.47Q29.30 21.47 30.01 21.21Q30.71 20.95 31.36 20.52Q32.02 20.09 32.51 19.57L32.51 19.57L33.37 21.24Q33.02 21.72 32.42 22.18Q31.81 22.64 31.06 23.01Q30.30 23.38 29.51 23.59Q28.72 23.81 28.00 23.81ZM26.60 17.03L26.60 17.03Q27.31 16.99 28.06 16.69Q28.80 16.39 29.44 15.89Q30.07 15.38 30.46 14.74Q30.85 14.10 30.85 13.39L30.85 13.39Q30.85 12.70 30.57 12.40Q30.29 12.11 29.70 12.11L29.70 12.11Q29.22 12.11 28.82 12.40Q28.42 12.68 28.02 13.18L28.02 13.18Q27.34 13.98 27.01 15.06Q26.68 16.14 26.60 17.03ZM39.02 23.62L35.75 23.62L37.57 10.25L40.73 10.25L40.51 12.84Q40.81 12.18 41.36 11.54Q41.90 10.91 42.64 10.49Q43.38 10.08 44.27 10.08L44.27 10.08Q44.87 10.08 45.04 10.22L45.04 10.22L44.39 13.61Q44.27 13.49 43.95 13.43Q43.63 13.37 43.25 13.37L43.25 13.37Q42.62 13.37 42.07 13.65Q41.51 13.93 41.04 14.41Q40.57 14.89 40.18 15.46L40.18 15.46L39.02 23.62ZM48.97 23.62L45.70 23.62L47.52 10.25L50.68 10.25L50.46 12.84Q50.76 12.18 51.31 11.54Q51.85 10.91 52.59 10.49Q53.33 10.08 54.22 10.08L54.22 10.08Q54.82 10.08 54.98 10.22L54.98 10.22L54.34 13.61Q54.22 13.49 53.90 13.43Q53.58 13.37 53.20 13.37L53.20 13.37Q52.57 13.37 52.01 13.65Q51.46 13.93 50.99 14.41Q50.52 14.89 50.12 15.46L50.12 15.46L48.97 23.62ZM59.17 23.62L55.90 23.62L57.71 10.25L61.01 10.25L59.17 23.62ZM59.88 7.87L59.88 7.87Q59.22 7.87 58.71 7.39Q58.20 6.90 58.20 6.23L58.20 6.23Q58.20 5.39 58.81 4.77Q59.42 4.15 60.30 4.15L60.30 4.15Q61.06 4.15 61.57 4.62Q62.08 5.09 62.08 5.76L62.08 5.76Q62.08 6.65 61.45 7.26Q60.83 7.87 59.88 7.87ZM67.80 23.69L65.14 23.75L64.46 19.44L63.20 10.25L66.64 10.25L67.40 18.70L67.54 21.12L68.64 19.61Q69.25 18.65 69.75 17.66Q70.25 16.67 70.61 15.63Q70.98 14.59 71.18 13.51L71.18 13.51L70.80 10.25L74.10 10.25L74.77 18.70L74.95 21.12L76.03 19.64Q76.64 18.68 77.10 17.74Q77.56 16.79 77.89 15.78Q78.22 14.77 78.41 13.62L78.41 13.62Q78.54 12.84 78.59 11.89Q78.65 10.93 78.65 10.25L78.65 10.25L81.67 10.25Q81.68 10.50 81.71 10.94Q81.73 11.39 81.72 11.88L81.72 11.88Q81.67 13.85 80.95 15.73Q80.22 17.60 78.79 19.55Q77.35 21.50 75.16 23.69L75.16 23.69L72.59 23.75L72.02 20.16L71.75 18.23Q71.29 19.16 70.75 20.02Q70.21 20.87 69.50 21.76Q68.78 22.66 67.80 23.69L67.80 23.69ZM87.46 23.81L87.46 23.81Q85.79 23.81 84.72 23.08L84.72 23.08Q83.62 22.33 83.11 21.13Q82.60 19.92 82.61 18.49L82.61 18.49Q82.61 16.15 83.58 14.20L83.58 14.20Q84.53 12.26 86.18 11.17Q87.84 10.08 89.89 10.08L89.89 10.08Q91.09 10.08 91.90 10.49Q92.70 10.90 93.11 11.58Q93.52 12.26 93.52 13.08L93.52 13.08Q93.52 14.33 92.90 15.30Q92.29 16.27 91.24 16.99Q90.18 17.70 88.84 18.17Q87.50 18.65 86.05 18.89L86.05 18.89Q86.05 18.98 86.05 19.07Q86.05 19.16 86.05 19.25L86.05 19.25Q86.10 20.26 86.57 20.86Q87.05 21.47 88.13 21.47L88.13 21.47Q88.76 21.47 89.47 21.21Q90.17 20.95 90.82 20.52Q91.48 20.09 91.97 19.57L91.97 19.57L92.83 21.24Q92.48 21.72 91.88 22.18Q91.27 22.64 90.52 23.01Q89.76 23.38 88.97 23.59Q88.18 23.81 87.46 23.81ZM86.06 17.03L86.06 17.03Q86.77 16.99 87.52 16.69Q88.26 16.39 88.90 15.89Q89.53 15.38 89.92 14.74Q90.31 14.10 90.31 13.39L90.31 13.39Q90.31 12.70 90.03 12.40Q89.75 12.11 89.16 12.11L89.16 12.11Q88.68 12.11 88.28 12.40Q87.88 12.68 87.48 13.18L87.48 13.18Q86.80 13.98 86.47 15.06Q86.14 16.14 86.06 17.03ZM98.95 23.81L98.95 23.81Q97.01 23.81 96.08 22.44Q95.16 21.07 95.16 18.77L95.16 18.77Q95.16 16.97 95.72 15.39Q96.28 13.81 97.31 12.62Q98.35 11.42 99.80 10.75Q101.24 10.08 103.02 10.08L103.02 10.08Q103.67 10.08 104.44 10.22Q105.20 10.36 105.82 10.54L105.82 10.54L107.58 10.08L105.72 23.62L102.79 23.62L102.95 21.04Q102.29 22.20 101.27 23.00Q100.25 23.81 98.95 23.81ZM99.91 21.49L99.91 21.49Q100.43 21.49 100.91 21.13Q101.40 20.77 101.84 20.21Q102.28 19.64 102.64 19.00Q103.01 18.35 103.27 17.76L103.27 17.76L104.04 12.32Q103.45 12.14 102.71 12.14L102.71 12.14Q101.35 12.14 100.43 13.10L100.43 13.10Q99.49 14.08 99.03 15.53Q98.57 16.99 98.57 18.50L98.57 18.50Q98.57 19.33 98.69 20.01Q98.82 20.69 99.11 21.09Q99.40 21.49 99.91 21.49ZM112.33 23.83L112.33 23.83Q111.22 23.83 110.54 23.25Q109.87 22.67 109.87 21.52L109.87 21.52Q109.87 21.37 109.90 21.06Q109.93 20.75 109.97 20.34Q110.00 19.93 110.06 19.51L110.06 19.51L110.96 12.47L109.81 12.47L110.27 10.25L111.50 10.25L112.45 7.01L115.02 7.01L114.58 10.25L117.41 10.25L117.14 12.47L114.29 12.47Q114.04 14.36 113.86 15.70Q113.68 17.03 113.56 17.90Q113.44 18.78 113.38 19.29Q113.32 19.80 113.29 20.06Q113.27 20.33 113.27 20.46L113.27 20.46Q113.27 20.92 113.42 21.19Q113.57 21.46 114.00 21.46L114.00 21.46Q114.25 21.46 114.68 21.30Q115.12 21.14 115.55 20.90Q115.98 20.65 116.26 20.41L116.26 20.41L116.72 22.06Q116.27 22.50 115.55 22.90Q114.84 23.30 114.00 23.57Q113.16 23.83 112.33 23.83ZM121.81 23.62L118.58 23.62L121.10 4.44L124.32 4.44L123.56 10.57L123.18 12.88Q124.10 11.60 125.36 10.84Q126.62 10.08 127.99 10.08L127.99 10.08Q129.44 10.08 130.18 10.88Q130.92 11.69 130.92 13.54L130.92 13.54Q130.92 13.72 130.87 14.25Q130.81 14.78 130.71 15.59Q130.61 16.40 130.48 17.39Q130.34 18.37 130.19 19.45Q130.04 20.52 129.89 21.59Q129.73 22.66 129.58 23.62L129.58 23.62L126.29 23.62Q126.41 22.79 126.51 22.08Q126.61 21.37 126.70 20.74Q126.78 20.10 126.86 19.51Q126.95 18.92 127.03 18.35Q127.12 17.78 127.20 17.18L127.20 17.18Q127.36 16.00 127.44 15.22Q127.52 14.44 127.54 13.99L127.54 13.99Q127.55 13.27 127.28 13.00Q127.02 12.73 126.46 12.73L126.46 12.73Q125.93 12.73 125.26 13.12Q124.60 13.50 123.97 14.09Q123.35 14.68 122.94 15.30L122.94 15.30L121.81 23.62ZM138.16 23.81L138.16 23.81Q136.49 23.81 135.42 23.08L135.42 23.08Q134.32 22.33 133.81 21.13Q133.30 19.92 133.31 18.49L133.31 18.49Q133.31 16.15 134.28 14.20L134.28 14.20Q135.23 12.26 136.88 11.17Q138.54 10.08 140.59 10.08L140.59 10.08Q141.79 10.08 142.60 10.49Q143.40 10.90 143.81 11.58Q144.22 12.26 144.22 13.08L144.22 13.08Q144.22 14.33 143.60 15.30Q142.99 16.27 141.94 16.99Q140.88 17.70 139.54 18.17Q138.20 18.65 136.75 18.89L136.75 18.89Q136.75 18.98 136.75 19.07Q136.75 19.16 136.75 19.25L136.75 19.25Q136.80 20.26 137.27 20.86Q137.75 21.47 138.83 21.47L138.83 21.47Q139.46 21.47 140.17 21.21Q140.87 20.95 141.52 20.52Q142.18 20.09 142.67 19.57L142.67 19.57L143.53 21.24Q143.18 21.72 142.58 22.18Q141.97 22.64 141.22 23.01Q140.46 23.38 139.67 23.59Q138.88 23.81 138.16 23.81ZM136.76 17.03L136.76 17.03Q137.47 16.99 138.22 16.69Q138.96 16.39 139.60 15.89Q140.23 15.38 140.62 14.74Q141.01 14.10 141.01 13.39L141.01 13.39Q141.01 12.70 140.73 12.40Q140.45 12.11 139.86 12.11L139.86 12.11Q139.38 12.11 138.98 12.40Q138.58 12.68 138.18 13.18L138.18 13.18Q137.50 13.98 137.17 15.06Q136.84 16.14 136.76 17.03ZM149.18 23.62L145.91 23.62L147.73 10.25L150.89 10.25L150.67 12.84Q150.97 12.18 151.52 11.54Q152.06 10.91 152.80 10.49Q153.54 10.08 154.43 10.08L154.43 10.08Q155.03 10.08 155.20 10.22L155.20 10.22L154.55 13.61Q154.43 13.49 154.11 13.43Q153.79 13.37 153.41 13.37L153.41 13.37Q152.78 13.37 152.23 13.65Q151.67 13.93 151.20 14.41Q150.73 14.89 150.34 15.46L150.34 15.46L149.18 23.62ZM163.84 23.81L163.84 23.81Q163.31 23.81 162.65 23.71Q161.99 23.62 161.33 23.46Q160.67 23.30 160.15 23.11Q159.62 22.91 159.37 22.70L159.37 22.70L160.42 20.04Q160.73 20.33 161.35 20.59Q161.96 20.86 162.67 21.03Q163.38 21.20 163.96 21.20L163.96 21.20Q164.90 21.20 165.58 20.95Q166.26 20.69 166.63 20.18Q166.99 19.67 166.99 18.92L166.99 18.92Q166.99 18.05 166.40 17.29Q165.82 16.52 164.62 15.70L164.62 15.70Q163.62 14.98 162.87 14.20Q162.12 13.42 161.71 12.52Q161.29 11.62 161.29 10.52L161.29 10.52Q161.29 8.90 162.07 7.78Q162.84 6.66 164.17 6.08Q165.50 5.50 167.17 5.50L167.17 5.50Q168.59 5.50 169.67 5.80Q170.76 6.10 171.30 6.50L171.30 6.50L170.26 9.06Q169.80 8.60 168.91 8.33Q168.02 8.05 167.18 8.05L167.18 8.05Q166.39 8.05 165.79 8.27Q165.18 8.50 164.84 8.95Q164.50 9.40 164.47 10.07L164.47 10.07Q164.47 10.67 164.82 11.27Q165.17 11.88 165.73 12.45Q166.30 13.02 166.94 13.51L166.94 13.51Q167.99 14.27 168.76 15.02Q169.52 15.78 169.94 16.62Q170.36 17.46 170.36 18.49L170.36 18.49Q170.36 20.30 169.50 21.48Q168.64 22.66 167.16 23.23Q165.68 23.81 163.84 23.81ZM176.22 23.81L176.22 23.81Q174.28 23.81 173.35 22.44Q172.43 21.07 172.43 18.77L172.43 18.77Q172.43 16.97 172.99 15.39Q173.54 13.81 174.58 12.62Q175.62 11.42 177.07 10.75Q178.51 10.08 180.29 10.08L180.29 10.08Q180.94 10.08 181.70 10.22Q182.47 10.36 183.08 10.54L183.08 10.54L184.85 10.08L182.99 23.62L180.06 23.62L180.22 21.04Q179.56 22.20 178.54 23.00Q177.52 23.81 176.22 23.81ZM177.18 21.49L177.18 21.49Q177.70 21.49 178.18 21.13Q178.67 20.77 179.11 20.21Q179.54 19.64 179.91 19.00Q180.28 18.35 180.54 17.76L180.54 17.76L181.31 12.32Q180.72 12.14 179.98 12.14L179.98 12.14Q178.62 12.14 177.70 13.10L177.70 13.10Q176.76 14.08 176.30 15.53Q175.84 16.99 175.84 18.50L175.84 18.50Q175.84 19.33 175.96 20.01Q176.09 20.69 176.38 21.09Q176.66 21.49 177.18 21.49ZM189.84 23.62L186.56 23.62L188.39 10.25L191.52 10.25L191.32 12.77Q192.25 11.53 193.49 10.81Q194.72 10.08 196.06 10.08L196.06 10.08Q197.52 10.08 198.26 10.88Q199.01 11.69 199.01 13.54L199.01 13.54Q199.01 13.81 198.94 14.42Q198.88 15.04 198.76 15.86Q198.65 16.69 198.53 17.60L198.53 17.60Q198.49 17.88 198.42 18.37Q198.35 18.86 198.26 19.51Q198.17 20.15 198.07 20.86Q197.96 21.58 197.86 22.28Q197.75 22.98 197.65 23.62L197.65 23.62L194.36 23.62Q194.47 22.90 194.60 21.98Q194.72 21.06 194.88 19.97Q195.04 18.88 195.22 17.62L195.22 17.62Q195.40 16.25 195.50 15.36Q195.60 14.47 195.60 13.99L195.60 13.99Q195.61 13.27 195.35 13.00Q195.10 12.73 194.52 12.73L194.52 12.73Q194.12 12.73 193.64 12.95Q193.15 13.18 192.66 13.55Q192.17 13.93 191.74 14.39Q191.30 14.86 190.99 15.34L190.99 15.34L189.84 23.62ZM204.66 23.81L204.66 23.81Q203.96 23.81 203.21 23.70Q202.45 23.59 201.85 23.42Q201.25 23.24 200.98 23.05L200.98 23.05L201.55 20.36Q201.89 20.65 202.44 20.90Q202.99 21.14 203.59 21.30Q204.19 21.46 204.67 21.46L204.67 21.46Q205.56 21.46 206.10 21.16Q206.64 20.86 206.64 20.16L206.64 20.16Q206.64 19.73 206.42 19.38Q206.21 19.03 205.73 18.62Q205.26 18.20 204.48 17.59L204.48 17.59Q203.53 16.79 202.94 15.94Q202.36 15.10 202.36 13.85L202.36 13.85Q202.36 12.58 203.03 11.74Q203.71 10.90 204.84 10.49Q205.97 10.08 207.32 10.08L207.32 10.08Q207.95 10.08 208.57 10.15Q209.18 10.21 209.68 10.31Q210.17 10.42 210.38 10.52L210.38 10.52L209.93 13.38Q209.72 13.14 209.30 12.91Q208.87 12.68 208.34 12.55Q207.80 12.41 207.28 12.41L207.28 12.41Q206.42 12.41 205.92 12.74Q205.42 13.08 205.42 13.68L205.42 13.68Q205.42 14.17 205.69 14.58Q205.97 14.99 206.40 15.35Q206.83 15.72 207.31 16.12L207.31 16.12Q208.03 16.66 208.58 17.24Q209.14 17.83 209.45 18.50Q209.77 19.16 209.77 19.93L209.77 19.93Q209.77 21.30 209.08 22.16Q208.38 23.02 207.22 23.41Q206.06 23.81 204.66 23.81ZM222.49 23.81L222.49 23.81Q220.66 23.81 219.44 22.97Q218.22 22.13 217.61 20.73Q217.00 19.33 217.00 17.65L217.00 17.65Q217.00 14.70 218.19 12.23Q219.38 9.77 221.60 8.03Q223.82 6.29 226.86 5.51L226.86 5.51L227.59 7.49Q225.82 8.10 224.52 9.04Q223.22 9.97 222.41 11.00Q221.59 12.04 221.27 12.94L221.27 12.94Q221.66 12.62 222.22 12.38Q222.77 12.14 223.42 12Q224.06 11.86 224.75 11.86L224.75 11.86Q226.21 11.86 227.23 12.54Q228.24 13.22 228.76 14.33Q229.28 15.43 229.28 16.68L229.28 16.68Q229.28 17.95 228.87 19.22Q228.46 20.48 227.62 21.52Q226.78 22.56 225.50 23.18Q224.22 23.81 222.49 23.81ZM222.73 21.54L222.73 21.54Q223.56 21.54 224.18 21.13Q224.81 20.72 225.22 20.05Q225.64 19.38 225.85 18.58Q226.07 17.78 226.07 17.04L226.07 17.04Q226.07 16.06 225.71 15.45Q225.36 14.84 224.78 14.56Q224.21 14.27 223.52 14.27L223.52 14.27Q222.67 14.27 222.07 14.50Q221.47 14.72 221.08 15.03Q220.69 15.34 220.49 15.56L220.49 15.56Q220.31 16.16 220.23 16.67Q220.15 17.18 220.15 17.72L220.15 17.72Q220.15 18.84 220.43 19.70Q220.70 20.57 221.28 21.05Q221.86 21.54 222.73 21.54ZM237.46 23.81L237.46 23.81Q236.09 23.81 235.04 23.24Q234.00 22.68 233.30 21.70Q232.61 20.71 232.25 19.43Q231.90 18.14 231.90 16.70L231.90 16.70Q231.90 14.35 232.49 12.33Q233.08 10.31 234.15 8.80Q235.22 7.28 236.68 6.44Q238.14 5.59 239.87 5.59L239.87 5.59Q241.70 5.59 242.94 6.51Q244.18 7.43 244.80 9.02Q245.42 10.62 245.42 12.65L245.42 12.65Q245.42 14.88 244.85 16.89Q244.27 18.90 243.22 20.46Q242.16 22.02 240.70 22.91Q239.23 23.81 237.46 23.81ZM237.79 21.30L237.79 21.30Q238.86 21.30 239.65 20.54Q240.43 19.78 240.95 18.53Q241.46 17.29 241.72 15.81Q241.97 14.33 241.97 12.89L241.97 12.89Q241.97 11.26 241.70 10.20Q241.44 9.14 240.90 8.63Q240.36 8.11 239.53 8.10L239.53 8.10Q238.61 8.09 237.91 8.63Q237.22 9.17 236.72 10.07Q236.23 10.97 235.92 12.07Q235.61 13.18 235.46 14.31Q235.32 15.44 235.32 16.43L235.32 16.43Q235.32 17.92 235.60 19.01Q235.87 20.10 236.42 20.70Q236.96 21.30 237.79 21.30ZM253.01 23.81L253.01 23.81Q251.64 23.81 250.60 23.24Q249.55 22.68 248.86 21.70Q248.16 20.71 247.81 19.43Q247.45 18.14 247.45 16.70L247.45 16.70Q247.45 14.35 248.04 12.33Q248.63 10.31 249.70 8.80Q250.78 7.28 252.23 6.44Q253.69 5.59 255.42 5.59L255.42 5.59Q257.26 5.59 258.49 6.51Q259.73 7.43 260.35 9.02Q260.98 10.62 260.98 12.65L260.98 12.65Q260.98 14.88 260.40 16.89Q259.82 18.90 258.77 20.46Q257.71 22.02 256.25 22.91Q254.78 23.81 253.01 23.81ZM253.34 21.30L253.34 21.30Q254.41 21.30 255.20 20.54Q255.98 19.78 256.50 18.53Q257.02 17.29 257.27 15.81Q257.52 14.33 257.52 12.89L257.52 12.89Q257.52 11.26 257.26 10.20Q256.99 9.14 256.45 8.63Q255.91 8.11 255.08 8.10L255.08 8.10Q254.16 8.09 253.46 8.63Q252.77 9.17 252.28 10.07Q251.78 10.97 251.47 12.07Q251.16 13.18 251.02 14.31Q250.87 15.44 250.87 16.43L250.87 16.43Q250.87 17.92 251.15 19.01Q251.42 20.10 251.97 20.70Q252.52 21.30 253.34 21.30ZM270.48 23.62L267.20 23.62L269.02 10.25L272.32 10.25L270.48 23.62ZM271.19 7.87L271.19 7.87Q270.53 7.87 270.02 7.39Q269.51 6.90 269.51 6.23L269.51 6.23Q269.51 5.39 270.12 4.77Q270.73 4.15 271.61 4.15L271.61 4.15Q272.36 4.15 272.87 4.62Q273.38 5.09 273.38 5.76L273.38 5.76Q273.38 6.65 272.76 7.26Q272.14 7.87 271.19 7.87ZM277.31 23.83L277.31 23.83Q276.19 23.83 275.52 23.25Q274.85 22.67 274.85 21.52L274.85 21.52Q274.85 21.37 274.88 21.06Q274.91 20.75 274.94 20.34Q274.98 19.93 275.04 19.51L275.04 19.51L275.94 12.47L274.79 12.47L275.24 10.25L276.48 10.25L277.43 7.01L280.00 7.01L279.55 10.25L282.38 10.25L282.12 12.47L279.26 12.47Q279.01 14.36 278.83 15.70Q278.65 17.03 278.53 17.90Q278.41 18.78 278.35 19.29Q278.29 19.80 278.27 20.06Q278.24 20.33 278.24 20.46L278.24 20.46Q278.24 20.92 278.39 21.19Q278.54 21.46 278.98 21.46L278.98 21.46Q279.23 21.46 279.66 21.30Q280.09 21.14 280.52 20.90Q280.96 20.65 281.23 20.41L281.23 20.41L281.70 22.06Q281.24 22.50 280.53 22.90Q279.82 23.30 278.98 23.57Q278.14 23.83 277.31 23.83ZM287.27 23.81L287.27 23.81Q285.32 23.81 284.40 22.44Q283.48 21.07 283.48 18.77L283.48 18.77Q283.48 16.97 284.03 15.39Q284.59 13.81 285.63 12.62Q286.67 11.42 288.11 10.75Q289.56 10.08 291.34 10.08L291.34 10.08Q291.98 10.08 292.75 10.22Q293.52 10.36 294.13 10.54L294.13 10.54L295.90 10.08L294.04 23.62L291.11 23.62L291.26 21.04Q290.60 22.20 289.58 23.00Q288.56 23.81 287.27 23.81ZM288.23 21.49L288.23 21.49Q288.74 21.49 289.23 21.13Q289.72 20.77 290.15 20.21Q290.59 19.64 290.96 19.00Q291.32 18.35 291.59 17.76L291.59 17.76L292.36 12.32Q291.77 12.14 291.02 12.14L291.02 12.14Q289.67 12.14 288.74 13.10L288.74 13.10Q287.81 14.08 287.35 15.53Q286.88 16.99 286.88 18.50L286.88 18.50Q286.88 19.33 287.01 20.01Q287.14 20.69 287.42 21.09Q287.71 21.49 288.23 21.49ZM301.19 23.59L297.90 23.59L300.49 4.44L303.78 4.44L301.19 23.59ZM308.50 23.62L305.22 23.62L307.03 10.25L310.33 10.25L308.50 23.62ZM309.20 7.87L309.20 7.87Q308.54 7.87 308.03 7.39Q307.52 6.90 307.52 6.23L307.52 6.23Q307.52 5.39 308.14 4.77Q308.75 4.15 309.62 4.15L309.62 4.15Q310.38 4.15 310.89 4.62Q311.40 5.09 311.40 5.76L311.40 5.76Q311.40 6.65 310.78 7.26Q310.15 7.87 309.20 7.87ZM316.94 23.81L316.94 23.81Q315.48 23.81 314.44 23.14Q313.39 22.48 312.85 21.28Q312.30 20.08 312.30 18.48L312.30 18.48Q312.30 16.28 313.16 14.34L313.16 14.34Q314.03 12.41 315.63 11.24Q317.23 10.08 319.34 10.08L319.34 10.08Q319.82 10.08 320.35 10.13Q320.88 10.19 321.36 10.30Q321.84 10.40 322.15 10.55L322.15 10.55L321.34 13.60Q321.07 13.36 320.71 13.12Q320.34 12.89 319.91 12.74Q319.49 12.59 319.07 12.59L319.07 12.59Q318.64 12.59 318.20 12.81Q317.76 13.03 317.36 13.44L317.36 13.44Q316.61 14.17 316.13 15.39Q315.65 16.61 315.65 18.02L315.65 18.02Q315.65 19.74 316.12 20.56Q316.58 21.38 317.70 21.38L317.70 21.38Q318.43 21.38 319.20 20.98Q319.97 20.57 320.62 19.91L320.62 19.91L321.50 21.55Q321.16 22.08 320.44 22.60Q319.73 23.11 318.81 23.46Q317.89 23.81 316.94 23.81Z"/></svg>