<svg xmlns="http://www.w3.org/2000/svg" xmlns:xlink="http://www.w3.org/1999/xlink" width="198.84000000000003" height="22.944"><path fill="black" d="M12.19 18.36L12.19 18.36Q11.95 18.36 11.77 18.18Q11.59 18 11.59 17.76L11.59 17.76L11.59 12.12L3.55 12.12L3.55 17.76Q3.55 18 3.38 18.18Q3.22 18.36 2.95 18.36L2.95 18.36Q2.71 18.36 2.53 18.18Q2.35 18 2.35 17.76L2.35 17.76L2.35 6.12Q2.35 5.86 2.53 5.69Q2.71 5.52 2.95 5.52L2.95 5.52Q3.22 5.52 3.38 5.69Q3.55 5.86 3.55 6.12L3.55 6.12L3.55 10.92L11.59 10.92L11.59 6.12Q11.59 5.86 11.77 5.69Q11.95 5.52 12.19 5.52L12.19 5.52Q12.46 5.52 12.62 5.69Q12.79 5.86 12.79 6.12L12.79 6.12L12.79 17.76Q12.79 18 12.62 18.18Q12.46 18.36 12.19 18.36ZM24.43 18.36L24.43 18.36Q24.19 18.36 24.01 18.18Q23.83 18 23.83 17.76L23.83 17.76L23.83 16.68Q23.04 17.42 22.10 17.89Q21.17 18.36 20.23 18.36L20.23 18.36Q19.34 18.36 18.59 18Q17.83 17.64 17.39 16.76Q16.94 15.89 16.94 14.35L16.94 14.35L16.94 9.55Q16.94 9.29 17.12 9.12Q17.30 8.95 17.54 8.95L17.54 8.95Q17.81 8.95 17.98 9.12Q18.14 9.29 18.14 9.55L18.14 9.55L18.14 14.35Q18.14 15.82 18.71 16.49Q19.27 17.16 20.23 17.16L20.23 17.16Q21.22 17.16 22.19 16.54Q23.16 15.91 23.83 15L23.83 15L23.83 9.55Q23.83 9.29 24.01 9.12Q24.19 8.95 24.43 8.95L24.43 8.95Q24.70 8.95 24.86 9.12Q25.03 9.29 25.03 9.55L25.03 9.55L25.03 17.76Q25.03 18 24.86 18.18Q24.70 18.36 24.43 18.36ZM33.50 18.36L33.50 18.36Q31.75 18.36 30.31 17.76L30.31 17.76Q30.29 18 30.12 18.17Q29.95 18.34 29.71 18.34L29.71 18.34Q29.47 18.34 29.29 18.16Q29.11 17.98 29.11 17.74L29.11 17.74L29.11 5.50Q29.11 5.23 29.29 5.06Q29.47 4.90 29.71 4.90L29.71 4.90Q29.98 4.90 30.14 5.06Q30.31 5.23 30.31 5.50L30.31 5.50L30.31 10.63Q31.94 8.95 33.82 8.95L33.82 8.95Q34.97 8.95 35.93 9.54Q36.89 10.13 37.46 11.18Q38.04 12.24 38.04 13.68L38.04 13.68Q38.04 15.12 37.45 16.18Q36.86 17.23 35.84 17.80Q34.82 18.36 33.50 18.36ZM33.50 17.16L33.50 17.16Q34.99 17.16 35.92 16.21Q36.84 15.26 36.84 13.68L36.84 13.68Q36.84 12.12 35.98 11.14Q35.11 10.15 33.82 10.15L33.82 10.15Q32.86 10.15 31.94 10.78Q31.03 11.40 30.31 12.43L30.31 12.43L30.31 16.46Q31.03 16.80 31.82 16.98Q32.62 17.16 33.50 17.16ZM45.62 18.36L45.62 18.36Q43.87 18.36 42.43 17.76L42.43 17.76Q42.41 18 42.24 18.17Q42.07 18.34 41.83 18.34L41.83 18.34Q41.59 18.34 41.41 18.16Q41.23 17.98 41.23 17.74L41.23 17.74L41.23 5.50Q41.23 5.23 41.41 5.06Q41.59 4.90 41.83 4.90L41.83 4.90Q42.10 4.90 42.26 5.06Q42.43 5.23 42.43 5.50L42.43 5.50L42.43 10.63Q44.06 8.95 45.94 8.95L45.94 8.95Q47.09 8.95 48.05 9.54Q49.01 10.13 49.58 11.18Q50.16 12.24 50.16 13.68L50.16 13.68Q50.16 15.12 49.57 16.18Q48.98 17.23 47.96 17.80Q46.94 18.36 45.62 18.36ZM45.62 17.16L45.62 17.16Q47.11 17.16 48.04 16.21Q48.96 15.26 48.96 13.68L48.96 13.68Q48.96 12.12 48.10 11.14Q47.23 10.15 45.94 10.15L45.94 10.15Q44.98 10.15 44.06 10.78Q43.15 11.40 42.43 12.43L42.43 12.43L42.43 16.46Q43.15 16.80 43.94 16.98Q44.74 17.16 45.62 17.16ZM59.90 18.14L59.90 18.14Q59.38 17.59 59.09 16.75L59.09 16.75Q58.27 17.52 57.30 17.94Q56.33 18.36 55.20 18.36L55.20 18.36Q54.10 18.36 53.45 17.95Q52.80 17.54 52.54 16.94Q52.27 16.34 52.27 15.82L52.27 15.82Q52.27 15.24 52.48 14.70Q52.68 14.16 53.11 13.75L53.11 13.75Q53.71 13.20 54.72 12.82Q55.73 12.43 57.19 12.43L57.19 12.43Q57.96 12.43 58.82 12.50L58.82 12.50Q58.73 11.42 58.10 10.79Q57.48 10.15 56.23 10.15L56.23 10.15Q55.75 10.15 55.25 10.24Q54.74 10.32 54.48 10.42L54.48 10.42Q54.17 10.54 54.02 10.54L54.02 10.54Q53.78 10.54 53.59 10.36Q53.40 10.18 53.40 9.96L53.40 9.96Q53.40 9.50 53.81 9.36L53.81 9.36Q54.22 9.24 54.90 9.10Q55.58 8.95 56.23 8.95L56.23 8.95Q58.20 8.95 59.12 10.03Q60.05 11.11 60.05 12.84L60.05 12.84L60.05 15.02Q60.05 15.84 60.23 16.38Q60.41 16.92 60.77 17.33L60.77 17.33Q60.94 17.50 60.94 17.74L60.94 17.74Q60.94 17.98 60.76 18.16Q60.58 18.34 60.34 18.34L60.34 18.34Q60.10 18.34 59.90 18.14ZM55.20 17.16L55.20 17.16Q56.23 17.16 57.17 16.69Q58.10 16.22 58.85 15.26L58.85 15.26L58.85 13.70Q57.96 13.63 57.19 13.63L57.19 13.63Q54.91 13.63 53.98 14.57L53.98 14.57Q53.69 14.86 53.58 15.17Q53.47 15.48 53.47 15.82L53.47 15.82Q53.47 16.30 53.89 16.73Q54.31 17.16 55.20 17.16ZM64.06 17.76L64.06 5.50Q64.06 5.23 64.24 5.06Q64.42 4.90 64.66 4.90L64.66 4.90Q64.92 4.90 65.09 5.06Q65.26 5.23 65.26 5.50L65.26 5.50L65.26 17.76Q65.26 18 65.09 18.18Q64.92 18.36 64.66 18.36L64.66 18.36Q64.42 18.36 64.24 18.18Q64.06 18 64.06 17.76L64.06 17.76ZM69.62 17.76L69.62 5.50Q69.62 5.23 69.80 5.06Q69.98 4.90 70.22 4.90L70.22 4.90Q70.49 4.90 70.66 5.06Q70.82 5.23 70.82 5.50L70.82 5.50L70.82 17.76Q70.82 18 70.66 18.18Q70.49 18.36 70.22 18.36L70.22 18.36Q69.98 18.36 69.80 18.18Q69.62 18 69.62 17.76L69.62 17.76ZM75.77 4.03L75.77 4.03Q76.18 4.03 76.46 4.36Q76.75 4.68 76.75 5.23L76.75 5.23Q76.75 5.78 76.46 6.07Q76.18 6.36 75.79 6.36L75.79 6.36Q75.36 6.36 75.06 6.06Q74.76 5.76 74.76 5.23L74.76 5.23Q74.76 4.68 75.05 4.36Q75.34 4.03 75.77 4.03ZM75.19 17.76L75.19 9.55Q75.19 9.29 75.37 9.12Q75.55 8.95 75.79 8.95L75.79 8.95Q76.06 8.95 76.22 9.12Q76.39 9.29 76.39 9.55L76.39 9.55L76.39 17.76Q76.39 18 76.22 18.18Q76.06 18.36 75.79 18.36L75.79 18.36Q75.55 18.36 75.37 18.18Q75.19 18 75.19 17.76L75.19 17.76ZM94.30 18.36L94.30 18.36Q94.06 18.36 93.88 18.18Q93.70 18 93.70 17.76L93.70 17.76L93.70 15.38L86.95 15.38Q86.71 15.38 86.53 15.20Q86.35 15.02 86.35 14.78L86.35 14.78Q86.35 14.54 86.50 14.40L86.50 14.40L93.67 5.71Q93.89 5.45 94.01 5.36Q94.13 5.28 94.30 5.28L94.30 5.28Q94.56 5.28 94.73 5.45Q94.90 5.62 94.90 5.88L94.90 5.88L94.90 14.18L96.89 14.18Q97.15 14.18 97.32 14.35Q97.49 14.52 97.49 14.78L97.49 14.78Q97.49 15.02 97.32 15.20Q97.15 15.38 96.89 15.38L96.89 15.38L94.90 15.38L94.90 17.76Q94.90 18 94.73 18.18Q94.56 18.36 94.30 18.36ZM93.70 14.18L93.70 7.56L88.22 14.18L93.70 14.18ZM105.05 5.33L105.05 5.33Q106.49 5.33 107.70 6.16Q108.91 6.98 109.64 8.46Q110.38 9.94 110.38 11.90L110.38 11.90Q110.38 13.75 109.74 15.26Q109.10 16.78 107.92 17.66Q106.73 18.55 105.05 18.55L105.05 18.55Q103.51 18.55 102.29 17.66Q101.06 16.78 100.36 15.28Q99.65 13.78 99.65 11.95L99.65 11.95Q99.65 9.96 100.34 8.47Q101.04 6.98 102.26 6.16Q103.49 5.33 105.05 5.33ZM105.05 6.53L105.05 6.53Q103.78 6.53 102.83 7.24Q101.88 7.94 101.36 9.17Q100.85 10.39 100.85 11.95L100.85 11.95Q100.85 13.37 101.38 14.60Q101.90 15.84 102.85 16.60Q103.80 17.35 105.05 17.35L105.05 17.35Q106.42 17.35 107.33 16.58Q108.24 15.82 108.71 14.58Q109.18 13.34 109.18 11.90L109.18 11.90Q109.18 10.37 108.64 9.16Q108.10 7.94 107.16 7.24Q106.22 6.53 105.05 6.53ZM118.63 5.33L118.63 5.33Q120.07 5.33 121.28 6.16Q122.50 6.98 123.23 8.46Q123.96 9.94 123.96 11.90L123.96 11.90Q123.96 13.75 123.32 15.26Q122.69 16.78 121.50 17.66Q120.31 18.55 118.63 18.55L118.63 18.55Q117.10 18.55 115.87 17.66Q114.65 16.78 113.94 15.28Q113.23 13.78 113.23 11.95L113.23 11.95Q113.23 9.96 113.93 8.47Q114.62 6.98 115.85 6.16Q117.07 5.33 118.63 5.33ZM118.63 6.53L118.63 6.53Q117.36 6.53 116.41 7.24Q115.46 7.94 114.95 9.17Q114.43 10.39 114.43 11.95L114.43 11.95Q114.43 13.37 114.96 14.60Q115.49 15.84 116.44 16.60Q117.38 17.35 118.63 17.35L118.63 17.35Q120.00 17.35 120.91 16.58Q121.82 15.82 122.29 14.58Q122.76 13.34 122.76 11.90L122.76 11.90Q122.76 10.37 122.22 9.16Q121.68 7.94 120.74 7.24Q119.81 6.53 118.63 6.53ZM141.84 18.36L141.84 18.36Q141.60 18.36 141.42 18.18Q141.24 18 141.24 17.76L141.24 17.76L141.24 12.96Q141.24 11.47 140.68 10.81Q140.11 10.15 139.15 10.15L139.15 10.15Q138.14 10.15 137.23 10.69Q136.32 11.23 135.55 12L135.55 12L135.55 17.76Q135.55 18 135.38 18.18Q135.22 18.36 134.95 18.36L134.95 18.36Q134.71 18.36 134.53 18.18Q134.35 18 134.35 17.76L134.35 17.76L134.35 9.55Q134.35 9.29 134.53 9.12Q134.71 8.95 134.95 8.95L134.95 8.95Q135.22 8.95 135.38 9.12Q135.55 9.29 135.55 9.55L135.55 9.55L135.55 10.42Q136.37 9.77 137.26 9.36Q138.14 8.95 139.15 8.95L139.15 8.95Q140.06 8.95 140.81 9.31Q141.55 9.67 142.00 10.55Q142.44 11.42 142.44 12.96L142.44 12.96L142.44 17.76Q142.44 18 142.27 18.18Q142.10 18.36 141.84 18.36ZM150.17 8.86L150.17 8.86Q151.63 8.86 152.70 9.52Q153.77 10.18 154.36 11.29Q154.94 12.41 154.94 13.78L154.94 13.78Q154.94 15.10 154.36 16.15Q153.77 17.21 152.70 17.83Q151.63 18.46 150.17 18.46L150.17 18.46Q148.73 18.46 147.65 17.83Q146.57 17.21 145.98 16.13Q145.39 15.05 145.39 13.73L145.39 13.73Q145.39 12.38 145.97 11.28Q146.54 10.18 147.62 9.52Q148.70 8.86 150.17 8.86ZM150.17 10.06L150.17 10.06Q149.06 10.06 148.26 10.56Q147.46 11.06 147.02 11.89Q146.59 12.72 146.59 13.73L146.59 13.73Q146.59 15.22 147.56 16.24Q148.54 17.26 150.17 17.26L150.17 17.26Q151.80 17.26 152.77 16.25Q153.74 15.24 153.74 13.78L153.74 13.78Q153.74 12.74 153.31 11.90Q152.88 11.06 152.08 10.56Q151.27 10.06 150.17 10.06ZM158.76 18.36L158.76 18.36Q158.52 18.36 158.34 18.18Q158.16 18 158.16 17.76L158.16 17.76L158.16 9.55Q158.16 9.29 158.34 9.12Q158.52 8.95 158.76 8.95L158.76 8.95Q159.02 8.95 159.19 9.12Q159.36 9.29 159.36 9.55L159.36 9.55L159.36 10.97Q160.30 9.98 161.35 9.48Q162.41 8.98 163.39 8.98L163.39 8.98Q163.66 8.98 163.81 9.13Q163.97 9.29 163.97 9.53L163.97 9.53Q163.97 10.08 163.44 10.15L163.44 10.15Q162.05 10.32 161.09 11.04Q160.13 11.76 159.36 12.91L159.36 12.91L159.36 17.76Q159.36 18 159.19 18.18Q159.02 18.36 158.76 18.36ZM180.07 18.36L180.07 18.36Q179.83 18.36 179.65 18.18Q179.47 18 179.47 17.76L179.47 17.76L179.47 12.72Q179.47 11.30 178.91 10.73Q178.34 10.15 177.46 10.15L177.46 10.15Q176.57 10.15 175.73 10.66Q174.89 11.16 174.19 11.93L174.19 11.93L174.19 17.76Q174.19 18 174.02 18.18Q173.86 18.36 173.59 18.36L173.59 18.36Q173.35 18.36 173.17 18.18Q172.99 18 172.99 17.76L172.99 17.76L172.99 12.72Q172.99 11.30 172.43 10.73Q171.86 10.15 170.98 10.15L170.98 10.15Q170.09 10.15 169.22 10.69Q168.36 11.23 167.66 12L167.66 12L167.66 17.76Q167.66 18 167.50 18.18Q167.33 18.36 167.06 18.36L167.06 18.36Q166.82 18.36 166.64 18.18Q166.46 18 166.46 17.76L166.46 17.76L166.46 9.55Q166.46 9.29 166.64 9.12Q166.82 8.95 167.06 8.95L167.06 8.95Q167.33 8.95 167.50 9.12Q167.66 9.29 167.66 9.55L167.66 9.55L167.66 10.37Q168.43 9.74 169.27 9.35Q170.11 8.95 170.98 8.95L170.98 8.95Q171.91 8.95 172.68 9.29Q173.45 9.62 173.86 10.61L173.86 10.61Q174.67 9.86 175.60 9.41Q176.52 8.95 177.46 8.95L177.46 8.95Q178.34 8.95 179.06 9.26Q179.78 9.58 180.23 10.38Q180.67 11.18 180.67 12.72L180.67 12.72L180.67 17.76Q180.67 18 180.50 18.18Q180.34 18.36 180.07 18.36ZM191.30 18.14L191.30 18.14Q190.78 17.59 190.49 16.75L190.49 16.75Q189.67 17.52 188.70 17.94Q187.73 18.36 186.60 18.36L186.60 18.36Q185.50 18.36 184.85 17.95Q184.20 17.54 183.94 16.94Q183.67 16.34 183.67 15.82L183.67 15.82Q183.67 15.24 183.88 14.70Q184.08 14.16 184.51 13.75L184.51 13.75Q185.11 13.20 186.12 12.82Q187.13 12.43 188.59 12.43L188.59 12.43Q189.36 12.43 190.22 12.50L190.22 12.50Q190.13 11.42 189.50 10.79Q188.88 10.15 187.63 10.15L187.63 10.15Q187.15 10.15 186.65 10.24Q186.14 10.32 185.88 10.42L185.88 10.42Q185.57 10.54 185.42 10.54L185.42 10.54Q185.18 10.54 184.99 10.36Q184.80 10.18 184.80 9.96L184.80 9.96Q184.80 9.50 185.21 9.36L185.21 9.36Q185.62 9.24 186.30 9.10Q186.98 8.95 187.63 8.95L187.63 8.95Q189.60 8.95 190.52 10.03Q191.45 11.11 191.45 12.84L191.45 12.84L191.45 15.02Q191.45 15.84 191.63 16.38Q191.81 16.92 192.17 17.33L192.17 17.33Q192.34 17.50 192.34 17.74L192.34 17.74Q192.34 17.98 192.16 18.16Q191.98 18.34 191.74 18.34L191.74 18.34Q191.50 18.34 191.30 18.14ZM186.60 17.16L186.60 17.16Q187.63 17.16 188.57 16.69Q189.50 16.22 190.25 15.26L190.25 15.26L190.25 13.70Q189.36 13.63 188.59 13.63L188.59 13.63Q186.31 13.63 185.38 14.57L185.38 14.57Q185.09 14.86 184.98 15.17Q184.87 15.48 184.87 15.82L184.87 15.82Q184.87 16.30 185.29 16.73Q185.71 17.16 186.60 17.16ZM195.46 17.76L195.46 5.50Q195.46 5.23 195.64 5.06Q195.82 4.90 196.06 4.90L196.06 4.90Q196.32 4.90 196.49 5.06Q196.66 5.23 196.66 5.50L196.66 5.50L196.66 17.76Q196.66 18 196.49 18.18Q196.32 18.36 196.06 18.36L196.06 18.36Q195.82 18.36 195.64 18.18Q195.46 18 195.46 17.76L195.46 17.76Z"/></svg>