<svg xmlns="http://www.w3.org/2000/svg" xmlns:xlink="http://www.w3.org/1999/xlink" width="207.456" height="30.240000000000002"><path fill="black" d="M8.11 25.03L1.44 25.03L1.44 24.07L3.46 23.69L3.46 10.82L1.44 10.44L1.44 9.48L12.38 9.48L12.38 13.27L11.28 13.27L10.80 10.68L7.85 10.68L5.16 10.80L5.16 16.99L9.48 16.99L9.77 15.60L10.70 15.60L10.70 19.42L9.77 19.42L9.48 18.12L5.16 18.12L5.16 23.59L8.11 23.90L8.11 25.03ZM15.94 25.18L15.94 25.18Q14.71 25.18 13.99 24.77Q13.27 24.36 12.95 23.69Q12.62 23.02 12.62 22.22L12.62 22.22Q12.62 21.24 13.08 20.50Q13.54 19.75 14.51 19.26Q15.48 18.77 16.99 18.58L16.99 18.58L19.06 18.31L19.06 16.44Q19.06 15.70 18.74 15.24Q18.43 14.78 17.88 14.58Q17.33 14.38 16.56 14.38L16.56 14.38Q15.94 14.38 15.48 14.47Q15.02 14.57 14.98 14.59L14.98 14.59L14.59 16.80Q14.59 16.82 14.47 16.90Q14.35 16.97 13.97 16.97L13.97 16.97Q13.66 16.97 13.33 16.67Q13.01 16.37 13.01 15.94L13.01 15.94Q13.01 15.19 13.57 14.63Q14.14 14.06 14.96 13.69Q15.79 13.32 16.58 13.14Q17.38 12.96 17.83 12.96L17.83 12.96Q18.79 12.96 19.43 13.36Q20.06 13.75 20.39 14.35Q20.71 14.95 20.71 15.60L20.71 15.60L20.71 23.47L22.39 23.81L22.39 24.65Q22.34 24.67 22.06 24.79Q21.77 24.91 21.30 25.02Q20.83 25.13 20.18 25.13L20.18 25.13Q19.61 25.13 19.39 24.74Q19.18 24.36 19.18 24.02L19.18 24.02L19.08 24.02Q18.70 24.34 18.19 24.59Q17.69 24.84 17.12 25.01Q16.56 25.18 15.94 25.18ZM16.73 23.81L16.73 23.81Q17.76 23.81 18.43 23.56Q19.10 23.30 19.06 23.33L19.06 23.33L19.06 19.32Q17.54 19.42 16.51 19.70Q15.48 19.99 14.95 20.52Q14.42 21.05 14.42 21.89L14.42 21.89Q14.42 23.81 16.73 23.81ZM28.66 25.22L28.66 25.22Q27 25.22 26.08 24.37Q25.15 23.52 25.15 21.94L25.15 21.94L25.15 14.76L23.14 14.45L23.14 13.66L26.18 12.96L26.81 13.30L26.81 20.86Q26.81 22.54 27.40 23.17Q27.98 23.81 29.57 23.81L29.57 23.81Q30.07 23.81 30.77 23.59Q31.46 23.38 32.02 23.04L32.02 23.04L32.02 14.76L30.05 14.45L30.05 13.66L33.10 12.96L33.72 13.30L33.72 23.42L35.38 23.81L35.38 24.60L32.30 25.06L32.02 23.83L31.99 23.86Q31.46 24.46 30.55 24.84Q29.64 25.22 28.66 25.22ZM40.97 25.22L40.97 25.22Q40.10 25.22 39.35 25.04Q38.59 24.86 38.04 24.64Q37.49 24.41 37.27 24.24L37.27 24.24L37.58 21.46L38.45 21.46L38.71 23.35Q39.05 23.59 39.67 23.81Q40.30 24.02 41.14 24.02L41.14 24.02Q42.70 24.02 43.21 23.40Q43.73 22.78 43.73 21.82L43.73 21.82Q43.73 21.05 43.33 20.63Q42.94 20.21 42.29 19.98Q41.64 19.75 40.92 19.56L40.92 19.56Q40.27 19.39 39.65 19.18Q39.02 18.96 38.52 18.62Q38.02 18.29 37.70 17.71Q37.39 17.14 37.39 16.25L37.39 16.25Q37.39 15.14 37.97 14.41Q38.54 13.68 39.52 13.32Q40.49 12.96 41.64 12.96L41.64 12.96Q42.41 12.96 43.09 13.08Q43.78 13.20 44.28 13.36Q44.78 13.51 45 13.66L45 13.66L44.64 16.54L43.80 16.54L43.49 14.57Q43.39 14.52 42.76 14.36Q42.12 14.21 41.42 14.21L41.42 14.21Q40.03 14.21 39.49 14.64Q38.95 15.07 38.95 16.08L38.95 16.08Q38.95 16.66 39.31 17.00Q39.67 17.35 40.27 17.57Q40.87 17.78 41.57 18L41.57 18Q42.22 18.19 42.89 18.43Q43.56 18.67 44.11 19.06Q44.66 19.44 45 20.03Q45.34 20.62 45.34 21.53L45.34 21.53Q45.34 22.92 44.72 23.72Q44.11 24.53 43.12 24.88Q42.12 25.22 40.97 25.22ZM51.12 25.10L51.12 25.10Q50.16 25.10 49.63 24.77Q49.10 24.43 48.91 23.86Q48.72 23.28 48.72 22.58L48.72 22.58L48.72 14.33L46.94 14.33L46.94 13.44L48.72 12.94L49.18 10.54L50.38 10.54L50.38 13.18L53.76 13.18L53.76 13.75L53.42 14.33L50.38 14.33L50.38 22.49Q50.38 23.18 50.66 23.39Q50.95 23.59 51.55 23.59L51.55 23.59Q52.25 23.59 52.82 23.46Q53.40 23.33 53.50 23.30L53.50 23.30L53.69 23.95Q53.11 24.46 52.39 24.78Q51.67 25.10 51.12 25.10ZM60.79 25.03L55.27 25.03L55.27 24.14L57.22 23.81L57.22 15.14L55.30 14.83L55.30 13.94L58.39 13.25L58.87 13.44L58.87 23.81L60.79 24.14L60.79 25.03ZM57.86 11.35L57.86 11.35Q57.29 11.35 56.96 10.97Q56.64 10.58 56.64 9.98L56.64 9.98Q56.64 9.41 57 8.96Q57.36 8.52 57.96 8.52L57.96 8.52Q58.51 8.52 58.84 8.87Q59.16 9.22 59.16 9.84L59.16 9.84Q59.16 10.44 58.82 10.90Q58.49 11.35 57.86 11.35ZM67.63 25.03L62.11 25.03L62.11 24.14L64.06 23.81L64.06 15.14L62.11 14.83L62.11 13.94L65.47 13.25L65.59 14.14L65.66 14.14Q66.67 13.63 67.76 13.31Q68.86 12.98 69.53 12.98L69.53 12.98Q71.02 12.98 71.82 13.82Q72.62 14.66 72.62 16.22L72.62 16.22L72.62 23.81L74.57 24.14L74.57 25.03L69.02 25.03L69.02 24.14L70.97 23.81L70.97 16.51Q70.97 15.46 70.37 15Q69.77 14.54 68.28 14.54L68.28 14.54Q67.61 14.54 66.84 14.64Q66.07 14.74 65.71 14.86L65.71 14.86L65.71 23.81L67.63 24.14L67.63 25.03ZM79.37 25.18L79.37 25.18Q78.14 25.18 77.42 24.77Q76.70 24.36 76.38 23.69Q76.06 23.02 76.06 22.22L76.06 22.22Q76.06 21.24 76.51 20.50Q76.97 19.75 77.94 19.26Q78.91 18.77 80.42 18.58L80.42 18.58L82.49 18.31L82.49 16.44Q82.49 15.70 82.18 15.24Q81.86 14.78 81.31 14.58Q80.76 14.38 79.99 14.38L79.99 14.38Q79.37 14.38 78.91 14.47Q78.46 14.57 78.41 14.59L78.41 14.59L78.02 16.80Q78.02 16.82 77.90 16.90Q77.78 16.97 77.40 16.97L77.40 16.97Q77.09 16.97 76.76 16.67Q76.44 16.37 76.44 15.94L76.44 15.94Q76.44 15.19 77.00 14.63Q77.57 14.06 78.40 13.69Q79.22 13.32 80.02 13.14Q80.81 12.96 81.26 12.96L81.26 12.96Q82.22 12.96 82.86 13.36Q83.50 13.75 83.82 14.35Q84.14 14.95 84.14 15.60L84.14 15.60L84.14 23.47L85.82 23.81L85.82 24.65Q85.78 24.67 85.49 24.79Q85.20 24.91 84.73 25.02Q84.26 25.13 83.62 25.13L83.62 25.13Q83.04 25.13 82.82 24.74Q82.61 24.36 82.61 24.02L82.61 24.02L82.51 24.02Q82.13 24.34 81.62 24.59Q81.12 24.84 80.56 25.01Q79.99 25.18 79.37 25.18ZM80.16 23.81L80.16 23.81Q81.19 23.81 81.86 23.56Q82.54 23.30 82.49 23.33L82.49 23.33L82.49 19.32Q80.98 19.42 79.94 19.70Q78.91 19.99 78.38 20.52Q77.86 21.05 77.86 21.89L77.86 21.89Q77.86 23.81 80.16 23.81ZM102.02 25.03L96.38 25.03L96.38 24.07L98.38 23.71L98.38 20.59L91.85 20.59L91.32 19.63L99.10 8.90L100.03 9.38L100.03 19.27L102.34 19.27L102.34 20.59L100.03 20.59L100.03 23.71L102.02 24.07L102.02 25.03ZM93.14 19.15L93.24 19.27L98.38 19.27L98.38 12.31L98.38 11.86L98.38 11.76L98.14 12.19L93.14 19.15ZM109.61 25.15L109.61 25.15Q107.45 25.15 106.19 24.17Q104.93 23.18 104.40 21.40Q103.87 19.61 103.87 17.16L103.87 17.16Q103.87 14.71 104.51 12.92Q105.14 11.14 106.50 10.16Q107.86 9.19 110.04 9.19L110.04 9.19Q112.22 9.19 113.45 10.16Q114.67 11.14 115.19 12.92Q115.70 14.71 115.70 17.16L115.70 17.16Q115.70 19.61 115.08 21.40Q114.46 23.18 113.12 24.17Q111.79 25.15 109.61 25.15ZM109.80 23.88L109.80 23.88Q111.41 23.88 112.27 23.12Q113.14 22.37 113.46 20.87Q113.78 19.37 113.78 17.16L113.78 17.16Q113.78 14.95 113.46 13.46Q113.14 11.98 112.27 11.22Q111.41 10.46 109.80 10.46L109.80 10.46Q108.19 10.46 107.32 11.22Q106.44 11.98 106.12 13.46Q105.79 14.95 105.79 17.16L105.79 17.16Q105.79 19.37 106.12 20.87Q106.44 22.37 107.32 23.12Q108.19 23.88 109.80 23.88ZM123.70 25.15L123.70 25.15Q121.54 25.15 120.28 24.17Q119.02 23.18 118.49 21.40Q117.96 19.61 117.96 17.16L117.96 17.16Q117.96 14.71 118.60 12.92Q119.23 11.14 120.59 10.16Q121.94 9.19 124.13 9.19L124.13 9.19Q126.31 9.19 127.54 10.16Q128.76 11.14 129.28 12.92Q129.79 14.71 129.79 17.16L129.79 17.16Q129.79 19.61 129.17 21.40Q128.54 23.18 127.21 24.17Q125.88 25.15 123.70 25.15ZM123.89 23.88L123.89 23.88Q125.50 23.88 126.36 23.12Q127.22 22.37 127.55 20.87Q127.87 19.37 127.87 17.16L127.87 17.16Q127.87 14.95 127.55 13.46Q127.22 11.98 126.36 11.22Q125.50 10.46 123.89 10.46L123.89 10.46Q122.28 10.46 121.40 11.22Q120.53 11.98 120.20 13.46Q119.88 14.95 119.88 17.16L119.88 17.16Q119.88 19.37 120.20 20.87Q120.53 22.37 121.40 23.12Q122.28 23.88 123.89 23.88ZM142.10 25.03L136.58 25.03L136.58 24.14L138.53 23.81L138.53 15.14L136.58 14.83L136.58 13.94L139.94 13.25L140.06 14.14L140.14 14.14Q141.14 13.63 142.24 13.31Q143.33 12.98 144 12.98L144 12.98Q145.49 12.98 146.29 13.82Q147.10 14.66 147.10 16.22L147.10 16.22L147.10 23.81L149.04 24.14L149.04 25.03L143.50 25.03L143.50 24.14L145.44 23.81L145.44 16.51Q145.44 15.46 144.84 15Q144.24 14.54 142.75 14.54L142.75 14.54Q142.08 14.54 141.31 14.64Q140.54 14.74 140.18 14.86L140.18 14.86L140.18 23.81L142.10 24.14L142.10 25.03ZM155.14 25.22L155.14 25.22Q153.55 25.22 152.45 24.50Q151.34 23.78 150.77 22.44Q150.19 21.10 150.19 19.27L150.19 19.27Q150.19 17.98 150.58 16.84Q150.96 15.70 151.66 14.83Q152.35 13.97 153.34 13.48Q154.32 12.98 155.50 12.98L155.50 12.98Q157.18 12.98 158.32 13.68Q159.46 14.38 160.03 15.66Q160.61 16.94 160.61 18.72L160.61 18.72Q160.61 20.14 160.24 21.32Q159.86 22.51 159.17 23.39Q158.47 24.26 157.45 24.74Q156.43 25.22 155.14 25.22ZM155.59 23.98L155.59 23.98Q156.79 23.98 157.49 23.42Q158.18 22.87 158.48 21.79Q158.78 20.71 158.78 19.18L158.78 19.18Q158.78 17.47 158.47 16.38Q158.16 15.29 157.43 14.76Q156.70 14.23 155.42 14.23L155.42 14.23Q153.98 14.23 153.25 14.80Q152.52 15.36 152.27 16.45Q152.02 17.54 152.02 19.18L152.02 19.18Q152.02 20.69 152.34 21.76Q152.66 22.82 153.44 23.40Q154.22 23.98 155.59 23.98ZM167.57 25.03L162.24 25.03L162.24 24.14L163.82 23.81L163.82 14.98L161.95 14.64L161.95 13.78L165.22 13.10L165.50 14.42Q165.60 14.33 166.03 13.98Q166.46 13.63 167.06 13.30Q167.66 12.96 168.19 12.96L168.19 12.96Q168.65 12.96 168.91 13.30Q169.18 13.63 169.18 14.09L169.18 14.09Q169.18 14.50 169.00 14.76Q168.82 15.02 168.48 15.24L168.48 15.24L167.66 15.02Q167.35 14.95 167.14 14.93Q166.92 14.90 166.63 14.90L166.63 14.90Q166.34 14.90 166.02 14.95Q165.70 15 165.48 15.10L165.48 15.10L165.48 23.78L167.57 24.07L167.57 25.03ZM175.70 25.03L170.18 25.03L170.18 24.14L172.10 23.81L172.10 15.12L170.18 14.74L170.18 13.94L173.18 13.25L173.76 14.11Q174.60 13.63 175.61 13.31Q176.62 12.98 177.36 12.98L177.36 12.98Q178.37 12.98 178.98 13.34Q179.59 13.70 179.95 14.26L179.95 14.26Q180.46 13.99 181.18 13.70Q181.90 13.42 182.69 13.20Q183.48 12.98 184.20 12.98L184.20 12.98Q185.45 12.98 186.24 13.81Q187.03 14.64 187.03 15.98L187.03 15.98L187.03 23.81L189 24.14L189 25.03L183.46 25.03L183.46 24.14L185.38 23.81L185.38 16.49Q185.38 15.46 184.80 15Q184.22 14.54 182.90 14.54L182.90 14.54Q182.45 14.54 181.70 14.62Q180.96 14.69 180.36 14.86L180.36 14.86Q180.36 14.95 180.36 15.08Q180.36 15.22 180.36 15.34L180.36 15.34L180.36 23.81L181.82 24.17L181.82 25.03L177.19 25.03L177.19 24.17L178.70 23.81L178.70 16.49Q178.70 15.43 178.15 14.99Q177.60 14.54 176.28 14.54L176.28 14.54Q175.85 14.54 175.13 14.60Q174.41 14.66 173.76 14.86L173.76 14.86L173.76 23.81L175.70 24.14L175.70 25.03ZM193.80 25.18L193.80 25.18Q192.58 25.18 191.86 24.77Q191.14 24.36 190.81 23.69Q190.49 23.02 190.49 22.22L190.49 22.22Q190.49 21.24 190.94 20.50Q191.40 19.75 192.37 19.26Q193.34 18.77 194.86 18.58L194.86 18.58L196.92 18.31L196.92 16.44Q196.92 15.70 196.61 15.24Q196.30 14.78 195.74 14.58Q195.19 14.38 194.42 14.38L194.42 14.38Q193.80 14.38 193.34 14.47Q192.89 14.57 192.84 14.59L192.84 14.59L192.46 16.80Q192.46 16.82 192.34 16.90Q192.22 16.97 191.83 16.97L191.83 16.97Q191.52 16.97 191.20 16.67Q190.87 16.37 190.87 15.94L190.87 15.94Q190.87 15.19 191.44 14.63Q192 14.06 192.83 13.69Q193.66 13.32 194.45 13.14Q195.24 12.96 195.70 12.96L195.70 12.96Q196.66 12.96 197.29 13.36Q197.93 13.75 198.25 14.35Q198.58 14.95 198.58 15.60L198.58 15.60L198.58 23.47L200.26 23.81L200.26 24.65Q200.21 24.67 199.92 24.79Q199.63 24.91 199.16 25.02Q198.70 25.13 198.05 25.13L198.05 25.13Q197.47 25.13 197.26 24.74Q197.04 24.36 197.04 24.02L197.04 24.02L196.94 24.02Q196.56 24.34 196.06 24.59Q195.55 24.84 194.99 25.01Q194.42 25.18 193.80 25.18ZM194.59 23.81L194.59 23.81Q195.62 23.81 196.30 23.56Q196.97 23.30 196.92 23.33L196.92 23.33L196.92 19.32Q195.41 19.42 194.38 19.70Q193.34 19.99 192.82 20.52Q192.29 21.05 192.29 21.89L192.29 21.89Q192.29 23.81 194.59 23.81ZM206.83 25.03L201.34 25.03L201.34 24.14L203.26 23.81L203.26 9.98L201.34 9.65L201.34 8.78L204.43 8.26L204.91 8.45L204.91 23.81L206.83 24.14L206.83 25.03Z"/></svg>