<svg xmlns="http://www.w3.org/2000/svg" xmlns:xlink="http://www.w3.org/1999/xlink" width="254.953125" height="35.15625"><path fill="black" d="M13.32 15.90L5.17 15.90L5.17 21.63L7.08 21.96L7.08 23.44L0.95 23.44L0.95 21.96L2.86 21.63L2.86 8.19L0.95 7.86L0.95 6.38L7.08 6.38L7.08 7.86L5.17 8.19L5.17 14.09L13.32 14.09L13.32 8.19L11.41 7.86L11.41 6.38L17.54 6.38L17.54 7.86L15.63 8.19L15.63 21.63L17.54 21.96L17.54 23.44L11.41 23.44L11.41 21.96L13.32 21.63L13.32 15.90ZM23.46 23.68L23.46 23.68Q21.48 23.68 20.45 22.72Q19.42 21.75 19.42 19.99L19.42 19.99Q19.42 18.77 20.09 17.88L20.09 17.88Q20.74 16.98 22.00 16.49Q23.25 16.00 25.00 16.00L25.00 16.00L27.26 16.00L27.26 14.75Q27.26 13.61 26.56 12.97Q25.86 12.34 24.60 12.34L24.60 12.34Q23.80 12.34 23.21 12.53Q22.63 12.73 22.15 13.07L22.15 13.07L21.90 14.84L20.12 14.84L20.12 11.93Q21.84 10.52 24.63 10.52L24.63 10.52Q26.94 10.52 28.25 11.63Q29.57 12.73 29.57 14.78L29.57 14.78L29.57 20.88Q29.57 21.13 29.57 21.36Q29.58 21.60 29.60 21.83L29.60 21.83L30.83 21.96L30.83 23.44L27.52 23.44Q27.32 22.48 27.27 21.69L27.27 21.69Q26.60 22.55 25.60 23.12Q24.60 23.68 23.46 23.68ZM23.80 21.75L23.80 21.75Q24.95 21.75 25.90 21.20Q26.85 20.65 27.26 19.88L27.26 19.88L27.26 17.58L24.91 17.58Q23.32 17.58 22.52 18.34Q21.73 19.10 21.73 20.04L21.73 20.04Q21.73 21.75 23.80 21.75ZM36.84 14.19L36.84 21.63L38.75 21.96L38.75 23.44L32.63 23.44L32.63 21.96L34.54 21.63L34.54 12.57L32.63 12.25L32.63 10.76L36.60 10.76L36.76 12.64Q37.39 11.64 38.35 11.08Q39.30 10.52 40.52 10.52L40.52 10.52Q42.57 10.52 43.70 11.72Q44.82 12.93 44.82 15.43L44.82 15.43L44.82 21.63L46.73 21.96L46.73 23.44L40.61 23.44L40.61 21.96L42.52 21.63L42.52 15.48Q42.52 13.80 41.85 13.10Q41.19 12.40 39.83 12.40L39.83 12.40Q38.84 12.40 38.07 12.88Q37.30 13.36 36.84 14.19L36.84 14.19ZM53.94 23.68L53.94 23.68Q51.88 23.68 50.72 22.36Q49.56 21.04 49.56 18.23L49.56 18.23L49.56 12.57L48.11 12.25L48.11 10.76L51.87 10.76L51.87 18.26Q51.87 20.29 52.46 21.05Q53.06 21.81 54.33 21.81L54.33 21.81Q55.56 21.81 56.36 21.31Q57.16 20.81 57.57 19.90L57.57 19.90L57.57 12.57L55.88 12.25L55.88 10.76L59.88 10.76L59.88 21.63L61.34 21.96L61.34 23.44L57.81 23.44L57.66 21.56Q57.06 22.58 56.12 23.13Q55.17 23.68 53.94 23.68ZM67.17 14.05L67.17 21.63L69.08 21.96L69.08 23.44L62.95 23.44L62.95 21.96L64.86 21.63L64.86 12.57L62.95 12.25L62.95 10.76L66.94 10.76L67.09 12.41Q67.70 11.51 68.66 11.02Q69.62 10.52 70.89 10.52L70.89 10.52Q72.15 10.52 73.06 11.11Q73.97 11.70 74.43 12.87L74.43 12.87Q75.02 11.79 76.01 11.16Q76.99 10.52 78.30 10.52L78.30 10.52Q80.25 10.52 81.38 11.85Q82.50 13.18 82.50 15.86L82.50 15.86L82.50 21.63L84.41 21.96L84.41 23.44L78.27 23.44L78.27 21.96L80.18 21.63L80.18 15.83Q80.18 13.96 79.54 13.18Q78.89 12.40 77.63 12.40L77.63 12.40Q76.42 12.40 75.69 13.25Q74.95 14.10 74.84 15.39L74.84 15.39L74.84 21.63L76.75 21.96L76.75 23.44L70.62 23.44L70.62 21.96L72.53 21.63L72.53 15.83Q72.53 14.05 71.87 13.22Q71.20 12.40 69.95 12.40L69.95 12.40Q68.89 12.40 68.21 12.83Q67.54 13.27 67.17 14.05L67.17 14.05ZM90.22 23.68L90.22 23.68Q88.24 23.68 87.21 22.72Q86.18 21.75 86.18 19.99L86.18 19.99Q86.18 18.77 86.85 17.88L86.85 17.88Q87.50 16.98 88.76 16.49Q90.01 16.00 91.76 16.00L91.76 16.00L94.02 16.00L94.02 14.75Q94.02 13.61 93.32 12.97Q92.63 12.34 91.36 12.34L91.36 12.34Q90.56 12.34 89.98 12.53Q89.39 12.73 88.91 13.07L88.91 13.07L88.66 14.84L86.88 14.84L86.88 11.93Q88.61 10.52 91.39 10.52L91.39 10.52Q93.70 10.52 95.02 11.63Q96.33 12.73 96.33 14.78L96.33 14.78L96.33 20.88Q96.33 21.13 96.33 21.36Q96.34 21.60 96.36 21.83L96.36 21.83L97.59 21.96L97.59 23.44L94.28 23.44Q94.08 22.48 94.03 21.69L94.03 21.69Q93.36 22.55 92.36 23.12Q91.36 23.68 90.22 23.68ZM90.56 21.75L90.56 21.75Q91.71 21.75 92.66 21.20Q93.61 20.65 94.02 19.88L94.02 19.88L94.02 17.58L91.68 17.58Q90.08 17.58 89.29 18.34Q88.49 19.10 88.49 20.04L88.49 20.04Q88.49 21.75 90.56 21.75ZM103.61 14.19L103.61 21.63L105.52 21.96L105.52 23.44L99.39 23.44L99.39 21.96L101.30 21.63L101.30 12.57L99.39 12.25L99.39 10.76L103.36 10.76L103.52 12.64Q104.16 11.64 105.11 11.08Q106.07 10.52 107.29 10.52L107.29 10.52Q109.34 10.52 110.46 11.72Q111.59 12.93 111.59 15.43L111.59 15.43L111.59 21.63L113.50 21.96L113.50 23.44L107.37 23.44L107.37 21.96L109.28 21.63L109.28 15.48Q109.28 13.80 108.62 13.10Q107.95 12.40 106.59 12.40L106.59 12.40Q105.60 12.40 104.83 12.88Q104.06 13.36 103.61 14.19L103.61 14.19ZM135.52 19.50L133.16 19.50L133.16 21.63L135.07 21.96L135.07 23.44L128.95 23.44L128.95 21.96L130.86 21.63L130.86 19.50L123.20 19.50L123.20 18.20L130.72 6.38L133.16 6.38L133.16 17.70L135.52 17.70L135.52 19.50ZM125.66 17.70L130.86 17.70L130.86 9.67L130.79 9.64L130.56 10.27L125.66 17.70ZM143.23 23.68L143.23 23.68Q140.72 23.68 139.25 21.94Q137.79 20.19 137.79 16.93L137.79 16.93L137.79 12.89Q137.79 9.63 139.24 7.88Q140.70 6.13 143.20 6.13L143.20 6.13Q145.72 6.13 147.19 7.88Q148.65 9.63 148.65 12.89L148.65 12.89L148.65 16.93Q148.65 20.20 147.20 21.94Q145.75 23.68 143.23 23.68ZM143.23 21.88L143.23 21.88Q146.34 21.88 146.34 17.40L146.34 17.40L146.34 12.40Q146.34 7.95 143.20 7.95L143.20 7.95Q141.69 7.95 140.89 9.06Q140.10 10.18 140.10 12.40L140.10 12.40L140.10 17.40Q140.10 19.62 140.91 20.75Q141.71 21.88 143.23 21.88ZM156.91 23.68L156.91 23.68Q154.41 23.68 152.94 21.94Q151.48 20.19 151.48 16.93L151.48 16.93L151.48 12.89Q151.48 9.63 152.93 7.88Q154.38 6.13 156.89 6.13L156.89 6.13Q159.41 6.13 160.88 7.88Q162.34 9.63 162.34 12.89L162.34 12.89L162.34 16.93Q162.34 20.20 160.89 21.94Q159.43 23.68 156.91 23.68ZM156.91 21.88L156.91 21.88Q160.03 21.88 160.03 17.40L160.03 17.40L160.03 12.40Q160.03 7.95 156.89 7.95L156.89 7.95Q155.38 7.95 154.58 9.06Q153.79 10.18 153.79 12.40L153.79 12.40L153.79 17.40Q153.79 19.62 154.59 20.75Q155.40 21.88 156.91 21.88ZM177.04 14.19L177.04 21.63L178.95 21.96L178.95 23.44L172.82 23.44L172.82 21.96L174.73 21.63L174.73 12.57L172.82 12.25L172.82 10.76L176.79 10.76L176.95 12.64Q177.59 11.64 178.54 11.08Q179.50 10.52 180.71 10.52L180.71 10.52Q182.77 10.52 183.89 11.72Q185.02 12.93 185.02 15.43L185.02 15.43L185.02 21.63L186.93 21.96L186.93 23.44L180.80 23.44L180.80 21.96L182.71 21.63L182.71 15.48Q182.71 13.80 182.04 13.10Q181.38 12.40 180.02 12.40L180.02 12.40Q179.03 12.40 178.26 12.88Q177.49 13.36 177.04 14.19L177.04 14.19ZM194.29 23.68L194.29 23.68Q192.54 23.68 191.26 22.85L191.26 22.85Q189.98 22.02 189.29 20.57Q188.60 19.11 188.60 17.24L188.60 17.24L188.60 16.98Q188.60 15.12 189.29 13.64L189.29 13.64Q189.98 12.18 191.26 11.35Q192.53 10.52 194.26 10.52L194.26 10.52Q196.01 10.52 197.30 11.36L197.30 11.36Q198.56 12.19 199.25 13.64Q199.95 15.09 199.95 16.98L199.95 16.98L199.95 17.24Q199.95 19.10 199.25 20.58L199.25 20.58Q198.56 22.03 197.30 22.86Q196.03 23.68 194.29 23.68ZM194.29 21.88L194.29 21.88Q195.39 21.88 196.14 21.27L196.14 21.27Q196.88 20.67 197.26 19.62Q197.64 18.57 197.64 17.24L197.64 17.24L197.64 16.98Q197.64 15.66 197.26 14.59L197.26 14.59Q196.88 13.55 196.13 12.94Q195.38 12.34 194.26 12.34L194.26 12.34Q193.17 12.34 192.41 12.94L192.41 12.94Q191.66 13.55 191.29 14.60Q190.91 15.64 190.91 16.98L190.91 16.98L190.91 17.24Q190.91 18.56 191.29 19.62L191.29 19.62Q191.66 20.67 192.42 21.28Q193.17 21.88 194.29 21.88ZM205.92 14.45L205.92 21.63L207.83 21.96L207.83 23.44L201.70 23.44L201.70 21.96L203.61 21.63L203.61 12.57L201.70 12.25L201.70 10.76L205.68 10.76L205.88 12.38L205.90 12.60Q206.44 11.63 207.23 11.07Q208.02 10.52 209.04 10.52L209.04 10.52Q209.40 10.52 209.78 10.59Q210.16 10.65 210.33 10.71L210.33 10.71L210.02 12.86L208.42 12.76Q207.50 12.70 206.88 13.18Q206.26 13.65 205.92 14.45L205.92 14.45ZM215.95 14.05L215.95 21.63L217.86 21.96L217.86 23.44L211.73 23.44L211.73 21.96L213.64 21.63L213.64 12.57L211.73 12.25L211.73 10.76L215.72 10.76L215.87 12.41Q216.48 11.51 217.44 11.02Q218.40 10.52 219.67 10.52L219.67 10.52Q220.93 10.52 221.84 11.11Q222.75 11.70 223.21 12.87L223.21 12.87Q223.80 11.79 224.79 11.16Q225.77 10.52 227.09 10.52L227.09 10.52Q229.03 10.52 230.16 11.85Q231.28 13.18 231.28 15.86L231.28 15.86L231.28 21.63L233.19 21.96L233.19 23.44L227.05 23.44L227.05 21.96L228.96 21.63L228.96 15.83Q228.96 13.96 228.32 13.18Q227.67 12.40 226.41 12.40L226.41 12.40Q225.20 12.40 224.47 13.25Q223.73 14.10 223.62 15.39L223.62 15.39L223.62 21.63L225.53 21.96L225.53 23.44L219.40 23.44L219.40 21.96L221.31 21.63L221.31 15.83Q221.31 14.05 220.65 13.22Q219.98 12.40 218.73 12.40L218.73 12.40Q217.68 12.40 217.00 12.83Q216.32 13.27 215.95 14.05L215.95 14.05ZM239.00 23.68L239.00 23.68Q237.02 23.68 235.99 22.72Q234.96 21.75 234.96 19.99L234.96 19.99Q234.96 18.77 235.63 17.88L235.63 17.88Q236.29 16.98 237.54 16.49Q238.79 16.00 240.54 16.00L240.54 16.00L242.80 16.00L242.80 14.75Q242.80 13.61 242.10 12.97Q241.41 12.34 240.14 12.34L240.14 12.34Q239.34 12.34 238.76 12.53Q238.17 12.73 237.69 13.07L237.69 13.07L237.45 14.84L235.66 14.84L235.66 11.93Q237.39 10.52 240.18 10.52L240.18 10.52Q242.48 10.52 243.80 11.63Q245.11 12.73 245.11 14.78L245.11 14.78L245.11 20.88Q245.11 21.13 245.12 21.36Q245.12 21.60 245.14 21.83L245.14 21.83L246.38 21.96L246.38 23.44L243.06 23.44Q242.86 22.48 242.81 21.69L242.81 21.69Q242.14 22.55 241.14 23.12Q240.14 23.68 239.00 23.68ZM239.34 21.75L239.34 21.75Q240.49 21.75 241.44 21.20Q242.39 20.65 242.80 19.88L242.80 19.88L242.80 17.58L240.46 17.58Q238.86 17.58 238.07 18.34Q237.27 19.10 237.27 20.04L237.27 20.04Q237.27 21.75 239.34 21.75ZM248.05 5.16L252.27 5.16L252.27 21.63L254.18 21.96L254.18 23.44L248.05 23.44L248.05 21.96L249.96 21.63L249.96 6.97L248.05 6.64L248.05 5.16Z"/></svg>