<svg xmlns="http://www.w3.org/2000/svg" xmlns:xlink="http://www.w3.org/1999/xlink" width="186.26953125" height="30.046875"><path fill="black" d="M5.55 22.49L5.55 22.49Q6.30 22.49 6.89 22.24Q7.48 21.98 7.88 21.56Q8.29 21.14 8.50 20.58Q8.71 20.02 8.71 19.39L8.71 19.39Q8.71 18.68 8.37 18.08Q8.04 17.48 7.53 16.97Q7.02 16.46 6.42 16.02Q5.81 15.57 5.27 15.14L5.27 15.14Q4.76 14.74 4.14 14.27Q3.52 13.79 2.97 13.22Q2.43 12.64 2.06 11.95Q1.70 11.26 1.70 10.42L1.70 10.42Q1.70 9.77 1.90 9.08Q2.10 8.38 2.60 7.80Q3.11 7.22 3.98 6.84Q4.85 6.46 6.21 6.46L6.21 6.46Q7.36 6.46 8.43 6.64Q9.49 6.82 10.27 7.05L10.27 7.05L10.00 10.58L9.33 10.58L9.01 8.18Q8.41 7.75 7.68 7.53Q6.95 7.31 6.19 7.31L6.19 7.31Q5.67 7.31 5.20 7.47Q4.73 7.63 4.37 7.94Q4.01 8.25 3.80 8.70Q3.59 9.15 3.59 9.74L3.59 9.74Q3.59 10.46 3.87 11.02Q4.16 11.57 4.61 12.01Q5.06 12.46 5.61 12.83Q6.16 13.21 6.69 13.58L6.69 13.58Q7.46 14.14 8.17 14.70Q8.88 15.26 9.42 15.88Q9.95 16.50 10.27 17.20Q10.59 17.91 10.59 18.76L10.59 18.76Q10.59 19.73 10.14 20.58Q9.69 21.43 8.95 22.07Q8.20 22.70 7.25 23.06Q6.29 23.43 5.27 23.43L5.27 23.43Q4.03 23.43 2.91 23.23Q1.78 23.03 0.95 22.77L0.95 22.77L1.24 19.05L1.96 19.05L2.16 21.09Q2.37 21.30 2.74 21.55Q3.11 21.80 3.56 22.01Q4.02 22.22 4.53 22.35Q5.04 22.49 5.55 22.49ZM15.43 12.57L15.84 12.98Q15.67 14.33 15.57 15.53Q15.47 16.73 15.42 17.85Q15.36 18.96 15.35 20.03Q15.34 21.09 15.34 22.17L15.34 22.17Q15.74 22.11 16.25 21.96Q16.77 21.81 17.33 21.55L17.33 21.55L17.57 22.01Q17.20 22.25 16.66 22.49Q16.13 22.73 15.58 22.92Q15.04 23.10 14.57 23.21Q14.10 23.32 13.88 23.32L13.88 23.32L13.46 22.92Q13.65 21.57 13.76 20.35Q13.86 19.13 13.91 17.99Q13.96 16.85 13.96 15.77Q13.97 14.68 13.97 13.61L13.97 13.61Q13.63 13.65 13.27 13.69L13.27 13.69Q12.96 13.72 12.60 13.75Q12.23 13.77 11.93 13.79L11.93 13.79L11.88 13.29L15.43 12.57ZM16.17 9.48L14.47 9.86L14.04 9.43Q14.10 8.96 14.12 8.63Q14.13 8.29 14.16 8.06L14.16 8.06Q14.17 7.80 14.18 7.63L14.18 7.63L15.89 7.27L16.31 7.70Q16.25 8.18 16.22 8.51Q16.20 8.84 16.18 9.06L16.18 9.06Q16.16 9.32 16.17 9.48L16.17 9.48ZM35.09 21.55L35.33 22.01Q34.97 22.25 34.44 22.49Q33.91 22.73 33.38 22.92Q32.85 23.10 32.38 23.21Q31.92 23.32 31.70 23.32L31.70 23.32L31.29 22.92Q31.38 22.16 31.48 21.35Q31.58 20.53 31.66 19.71Q31.75 18.89 31.80 18.08Q31.85 17.26 31.85 16.49L31.85 16.49Q31.85 15.82 31.80 15.20Q31.76 14.58 31.65 14.02L31.65 14.02Q31.27 14.02 30.80 14.24Q30.33 14.46 29.85 14.84Q29.38 15.21 28.93 15.71Q28.49 16.21 28.14 16.74Q27.80 17.27 27.59 17.82Q27.39 18.36 27.39 18.84L27.39 18.84L27.39 23.09L25.51 23.09Q25.77 21.46 25.89 19.75Q26.02 18.04 26.02 16.24L26.02 16.24Q26.02 15.67 25.95 15.09Q25.89 14.51 25.79 14.02L25.79 14.02Q25.41 14.02 24.94 14.24Q24.47 14.46 23.99 14.84Q23.52 15.21 23.07 15.71Q22.63 16.21 22.28 16.74Q21.94 17.27 21.73 17.82Q21.53 18.36 21.53 18.84L21.53 18.84L21.53 23.09L19.65 23.09Q19.91 21.46 20.03 19.75Q20.16 18.04 20.16 16.24L20.16 16.24Q20.16 15.61 20.14 15.18Q20.13 14.75 20.12 14.46Q20.10 14.16 20.07 13.96Q20.04 13.77 20.02 13.61L20.02 13.61Q19.68 13.65 19.31 13.69L19.31 13.69Q19.01 13.72 18.64 13.75Q18.28 13.77 17.98 13.79L17.98 13.79L17.93 13.29L21.48 12.57L21.87 12.98Q21.87 13.08 21.84 13.34Q21.82 13.59 21.78 13.93Q21.74 14.27 21.69 14.65Q21.64 15.04 21.59 15.38Q21.54 15.73 21.49 16.00Q21.45 16.28 21.41 16.39L21.41 16.39L21.60 16.44Q22.13 15.75 22.66 15.12Q23.19 14.50 23.78 13.99Q24.36 13.49 25.01 13.12Q25.65 12.75 26.40 12.57L26.40 12.57L27.28 12.98Q27.41 13.52 27.47 14.07Q27.53 14.63 27.53 15.16L27.53 15.16Q27.53 15.48 27.52 15.79Q27.50 16.10 27.48 16.41L27.48 16.41Q28.00 15.73 28.53 15.11Q29.06 14.48 29.64 13.99Q30.22 13.49 30.87 13.12Q31.51 12.75 32.25 12.57L32.25 12.57L33.14 12.98Q33.30 13.62 33.37 14.30Q33.43 14.99 33.43 15.71L33.43 15.71Q33.43 16.52 33.38 17.36Q33.32 18.20 33.25 19.03Q33.19 19.85 33.13 20.65Q33.08 21.45 33.09 22.17L33.09 22.17Q33.49 22.11 34.01 21.96Q34.52 21.81 35.09 21.55L35.09 21.55ZM44.73 17.04L44.73 17.04Q44.73 17.68 44.58 18.40Q44.43 19.13 44.12 19.82Q43.82 20.52 43.38 21.15Q42.94 21.79 42.36 22.27Q41.79 22.75 41.08 23.03Q40.37 23.32 39.55 23.32L39.55 23.32Q38.68 23.32 38.08 22.95Q37.48 22.58 37.10 21.97Q36.71 21.36 36.54 20.57Q36.38 19.78 36.38 18.94L36.38 18.94Q36.38 18.25 36.54 17.50Q36.70 16.76 37.02 16.05Q37.34 15.34 37.80 14.71Q38.27 14.07 38.87 13.60Q39.47 13.13 40.20 12.85Q40.93 12.57 41.78 12.57L41.78 12.57Q42.64 12.57 43.21 12.96Q43.78 13.35 44.12 13.97Q44.46 14.60 44.60 15.40Q44.73 16.21 44.73 17.04ZM39.40 22.13L41.52 22.13Q41.85 21.91 42.16 21.52Q42.47 21.12 42.71 20.58Q42.96 20.05 43.11 19.39Q43.25 18.74 43.25 18L43.25 18Q43.25 16.85 42.91 15.79Q42.56 14.72 41.73 13.79L41.73 13.79L39.62 13.79Q39.29 14.00 38.98 14.40Q38.66 14.80 38.41 15.33Q38.17 15.87 38.02 16.53Q37.88 17.19 37.88 17.93L37.88 17.93Q37.88 19.07 38.22 20.14Q38.57 21.21 39.40 22.13L39.40 22.13ZM57.54 21.55L57.79 22.01Q57.42 22.25 56.89 22.49Q56.37 22.73 55.83 22.92Q55.30 23.10 54.84 23.21Q54.39 23.32 54.16 23.32L54.16 23.32L53.75 22.92Q53.84 22.16 53.94 21.35Q54.04 20.53 54.12 19.71Q54.20 18.89 54.25 18.08Q54.30 17.26 54.30 16.49L54.30 16.49Q54.30 15.82 54.26 15.20Q54.22 14.58 54.11 14.02L54.11 14.02Q53.72 14.02 53.21 14.22Q52.71 14.43 52.18 14.77Q51.66 15.11 51.15 15.56Q50.64 16.02 50.24 16.52Q49.85 17.03 49.61 17.55Q49.36 18.07 49.36 18.55L49.36 18.55L49.36 23.09L47.48 23.09Q47.74 21.46 47.87 19.75Q47.99 18.04 47.99 16.24L47.99 16.24Q47.99 15.61 47.98 15.18Q47.96 14.75 47.95 14.46Q47.93 14.16 47.90 13.96Q47.87 13.77 47.85 13.61L47.85 13.61Q47.51 13.65 47.14 13.69L47.14 13.69Q46.84 13.72 46.48 13.75Q46.11 13.77 45.81 13.79L45.81 13.79L45.76 13.29L49.31 12.57L49.70 12.98Q49.70 13.08 49.68 13.34Q49.65 13.59 49.61 13.93Q49.57 14.27 49.52 14.65Q49.48 15.04 49.42 15.38Q49.37 15.73 49.32 16.00Q49.28 16.28 49.24 16.39L49.24 16.39L49.43 16.44Q49.96 15.75 50.57 15.12Q51.18 14.50 51.85 13.99Q52.52 13.49 53.24 13.12Q53.96 12.75 54.71 12.57L54.71 12.57L55.59 12.98Q55.76 13.62 55.82 14.30Q55.89 14.99 55.89 15.71L55.89 15.71Q55.89 16.52 55.83 17.36Q55.77 18.20 55.71 19.03Q55.64 19.85 55.59 20.65Q55.54 21.45 55.55 22.17L55.55 22.17Q55.95 22.11 56.46 21.96Q56.98 21.81 57.54 21.55L57.54 21.55ZM65.96 13.10L65.94 14.50Q65.44 15.27 64.65 15.98L64.65 15.98Q64.31 16.29 63.89 16.62Q63.47 16.95 62.94 17.25Q62.41 17.55 61.79 17.83Q61.17 18.11 60.45 18.32L60.45 18.32Q60.48 19.34 60.74 20.28Q61.00 21.22 61.55 21.87L61.55 21.87Q62.54 21.71 63.47 21.20Q64.39 20.68 65.46 19.88L65.46 19.88L65.77 20.30Q65.45 20.59 65.00 20.98Q64.56 21.38 63.97 21.80Q63.39 22.22 62.67 22.62Q61.95 23.02 61.09 23.32L61.09 23.32L60.20 22.92Q59.46 22.15 59.14 21.15Q58.83 20.14 58.83 19.08L58.83 19.08Q58.83 17.88 59.23 16.72Q59.63 15.55 60.35 14.63Q61.07 13.71 62.07 13.14Q63.08 12.57 64.30 12.57L64.30 12.57Q64.49 12.57 64.71 12.59Q64.92 12.61 65.14 12.67Q65.36 12.73 65.57 12.83Q65.79 12.93 65.96 13.10L65.96 13.10ZM64.57 14.30L64.57 14.30Q64.04 13.98 63.50 13.85Q62.95 13.71 62.36 13.71L62.36 13.71Q62.27 13.71 62.20 13.71Q62.12 13.71 62.03 13.72L62.03 13.72Q61.65 14.00 61.37 14.43Q61.08 14.86 60.88 15.38Q60.68 15.90 60.57 16.49Q60.46 17.09 60.45 17.70L60.45 17.70Q61.71 17.14 62.51 16.55Q63.32 15.95 63.77 15.45L63.77 15.45Q64.31 14.86 64.57 14.30ZM67.63 12.81L69.05 12.81Q69.07 12.08 69.09 11.30Q69.11 10.52 69.12 9.67L69.12 9.67L70.98 9.16Q70.88 9.90 70.79 10.83Q70.70 11.77 70.62 12.79L70.62 12.79Q71.34 12.76 71.96 12.73Q72.57 12.69 73.17 12.64L73.17 12.64L73.13 13.99Q72.55 13.99 71.89 13.94Q71.23 13.89 70.55 13.80L70.55 13.80Q70.49 14.67 70.45 15.52Q70.41 16.36 70.38 17.08Q70.35 17.80 70.33 18.36Q70.31 18.91 70.31 19.22L70.31 19.22Q70.31 19.57 70.32 19.97Q70.34 20.37 70.37 20.75Q70.39 21.14 70.44 21.50Q70.49 21.86 70.57 22.13L70.57 22.13Q70.75 22.08 71.00 22.00Q71.25 21.91 71.53 21.80Q71.81 21.69 72.09 21.57Q72.38 21.45 72.62 21.33L72.62 21.33L72.86 21.79Q72.54 22.02 72.16 22.25Q71.79 22.49 71.40 22.70Q71.02 22.91 70.63 23.07Q70.24 23.24 69.90 23.32L69.90 23.32L69.01 22.92Q68.85 22.30 68.79 21.63Q68.73 20.95 68.73 20.23L68.73 20.23Q68.73 19.16 68.82 17.53Q68.92 15.89 69.01 13.58L69.01 13.58L67.59 13.31L67.63 12.81ZM74.44 12.81L75.86 12.81Q75.88 12.08 75.90 11.30Q75.91 10.52 75.93 9.67L75.93 9.67L77.79 9.16Q77.68 9.90 77.60 10.83Q77.51 11.77 77.43 12.79L77.43 12.79Q78.15 12.76 78.77 12.73Q79.38 12.69 79.98 12.64L79.98 12.64L79.93 13.99Q79.36 13.99 78.70 13.94Q78.04 13.89 77.36 13.80L77.36 13.80Q77.30 14.67 77.26 15.52Q77.21 16.36 77.19 17.08Q77.16 17.80 77.14 18.36Q77.12 18.91 77.12 19.22L77.12 19.22Q77.12 19.57 77.13 19.97Q77.14 20.37 77.17 20.75Q77.20 21.14 77.25 21.50Q77.30 21.86 77.38 22.13L77.38 22.13Q77.55 22.08 77.81 22.00Q78.06 21.91 78.34 21.80Q78.62 21.69 78.90 21.57Q79.18 21.45 79.43 21.33L79.43 21.33L79.66 21.79Q79.35 22.02 78.97 22.25Q78.60 22.49 78.21 22.70Q77.82 22.91 77.44 23.07Q77.05 23.24 76.71 23.32L76.71 23.32L75.82 22.92Q75.66 22.30 75.60 21.63Q75.54 20.95 75.54 20.23L75.54 20.23Q75.54 19.16 75.63 17.53Q75.73 15.89 75.82 13.58L75.82 13.58L74.40 13.31L74.44 12.81ZM87.97 23.32L87.56 22.92Q87.61 22.63 87.67 22.07Q87.74 21.52 87.80 20.85Q87.87 20.18 87.92 19.49Q87.97 18.80 88.00 18.23L88.00 18.23L87.81 18.19Q87.34 19.11 86.71 19.97Q86.09 20.82 85.37 21.51Q84.66 22.20 83.90 22.67Q83.14 23.14 82.43 23.32L82.43 23.32L81.19 22.92Q81.14 22.63 81.13 22.34Q81.13 22.05 81.13 21.76L81.13 21.76Q81.13 20.52 81.37 19.35Q81.61 18.19 82.04 17.17Q82.48 16.15 83.06 15.30Q83.64 14.46 84.33 13.85Q85.02 13.24 85.78 12.91Q86.53 12.57 87.30 12.57L87.30 12.57Q87.68 12.57 88.00 12.60Q88.32 12.62 88.62 12.66Q88.91 12.70 89.20 12.77Q89.50 12.83 89.82 12.91L89.82 12.91Q89.72 14.12 89.64 15.27Q89.57 16.42 89.52 17.56Q89.47 18.70 89.46 19.85Q89.44 20.99 89.44 22.17L89.44 22.17Q90.25 22.07 91.38 21.55L91.38 21.55L91.59 22.01Q91.23 22.25 90.70 22.49Q90.18 22.73 89.64 22.92Q89.11 23.10 88.65 23.21Q88.20 23.32 87.97 23.32L87.97 23.32ZM88.09 14.80L88.15 14.04Q87.79 13.93 87.33 13.84Q86.87 13.75 86.46 13.75L86.46 13.75Q85.56 13.75 84.88 14.25Q84.20 14.75 83.75 15.65Q83.30 16.55 83.07 17.80Q82.84 19.05 82.84 20.54L82.84 20.54Q82.84 20.87 82.85 21.20Q82.86 21.53 82.89 21.87L82.89 21.87Q83.24 21.82 83.75 21.57Q84.26 21.32 84.81 20.88Q85.37 20.44 85.93 19.82Q86.50 19.21 86.95 18.43Q87.41 17.66 87.72 16.75Q88.03 15.83 88.09 14.80L88.09 14.80ZM104.02 22.27L104.18 17.75L97.28 17.75L97.30 17.04L105.57 6.46L106.28 6.84L105.95 16.57Q106.51 16.54 106.97 16.51Q107.44 16.48 107.78 16.45L107.78 16.45Q108.16 16.42 108.48 16.39L108.48 16.39L107.93 17.75L105.91 17.75L105.77 21.89L107.47 22.42L107.47 23.09Q107.23 23.05 106.89 23.00L106.89 23.00Q106.59 22.98 106.16 22.95Q105.73 22.92 105.15 22.92L105.15 22.92Q104.57 22.92 103.85 22.96Q103.14 22.99 102.27 23.09L102.27 23.09L102.27 22.42Q102.57 22.39 102.80 22.37Q103.03 22.35 103.23 22.32Q103.43 22.30 103.62 22.29Q103.80 22.28 104.02 22.27L104.02 22.27ZM104.50 9.21L98.52 16.85Q99.90 16.85 101.38 16.80Q102.87 16.75 104.21 16.68L104.21 16.68L104.50 9.21ZM115.95 7.31L115.95 7.31Q115.08 7.31 114.44 7.67Q113.80 8.03 113.36 8.62Q112.91 9.21 112.63 9.97Q112.36 10.73 112.20 11.54Q112.04 12.34 111.99 13.13Q111.94 13.91 111.94 14.54L111.94 14.54Q111.94 15.30 112.01 16.20Q112.09 17.10 112.27 17.99Q112.44 18.88 112.74 19.71Q113.04 20.53 113.48 21.16Q113.92 21.80 114.52 22.18Q115.13 22.56 115.92 22.56L115.92 22.56Q116.78 22.56 117.39 22.14Q118.00 21.73 118.42 21.04Q118.85 20.36 119.11 19.47Q119.37 18.59 119.50 17.65Q119.64 16.71 119.68 15.79Q119.73 14.86 119.73 14.09L119.73 14.09Q119.73 12.48 119.50 11.35Q119.27 10.22 118.92 9.47Q118.57 8.72 118.13 8.29Q117.69 7.85 117.28 7.63Q116.86 7.42 116.50 7.37Q116.14 7.31 115.95 7.31ZM110.23 15.33L110.23 15.33Q110.23 14.29 110.37 13.23Q110.51 12.18 110.81 11.19Q111.12 10.20 111.59 9.33Q112.07 8.47 112.73 7.83Q113.39 7.20 114.25 6.83Q115.11 6.46 116.20 6.46L116.20 6.46Q117.09 6.46 117.84 6.75Q118.58 7.04 119.17 7.56Q119.77 8.07 120.21 8.78Q120.64 9.48 120.93 10.29Q121.22 11.10 121.37 11.98Q121.51 12.87 121.51 13.75L121.51 13.75Q121.51 14.65 121.38 15.72Q121.25 16.79 120.97 17.87Q120.69 18.95 120.25 19.95Q119.80 20.95 119.17 21.73Q118.54 22.50 117.70 22.96Q116.86 23.43 115.80 23.43L115.80 23.43Q114.80 23.43 113.99 23.11Q113.19 22.79 112.58 22.23Q111.96 21.67 111.52 20.90Q111.07 20.13 110.78 19.24Q110.50 18.34 110.36 17.34Q110.23 16.35 110.23 15.33ZM129.53 7.31L129.53 7.31Q128.66 7.31 128.02 7.67Q127.38 8.03 126.94 8.62Q126.49 9.21 126.22 9.97Q125.94 10.73 125.78 11.54Q125.63 12.34 125.57 13.13Q125.52 13.91 125.52 14.54L125.52 14.54Q125.52 15.30 125.60 16.20Q125.67 17.10 125.85 17.99Q126.02 18.88 126.32 19.71Q126.62 20.53 127.06 21.16Q127.50 21.80 128.10 22.18Q128.71 22.56 129.50 22.56L129.50 22.56Q130.36 22.56 130.97 22.14Q131.58 21.73 132.01 21.04Q132.43 20.36 132.69 19.47Q132.95 18.59 133.08 17.65Q133.22 16.71 133.27 15.79Q133.31 14.86 133.31 14.09L133.31 14.09Q133.31 12.48 133.08 11.35Q132.86 10.22 132.50 9.47Q132.15 8.72 131.71 8.29Q131.27 7.85 130.86 7.63Q130.44 7.42 130.08 7.37Q129.73 7.31 129.53 7.31ZM123.81 15.33L123.81 15.33Q123.81 14.29 123.95 13.23Q124.09 12.18 124.39 11.19Q124.70 10.20 125.17 9.33Q125.65 8.47 126.31 7.83Q126.97 7.20 127.83 6.83Q128.70 6.46 129.79 6.46L129.79 6.46Q130.68 6.46 131.42 6.75Q132.16 7.04 132.76 7.56Q133.35 8.07 133.79 8.78Q134.23 9.48 134.51 10.29Q134.80 11.10 134.95 11.98Q135.09 12.87 135.09 13.75L135.09 13.75Q135.09 14.65 134.96 15.72Q134.84 16.79 134.55 17.87Q134.27 18.95 133.83 19.95Q133.38 20.95 132.75 21.73Q132.12 22.50 131.28 22.96Q130.44 23.43 129.39 23.43L129.39 23.43Q128.38 23.43 127.58 23.11Q126.77 22.79 126.16 22.23Q125.54 21.67 125.10 20.90Q124.65 20.13 124.37 19.24Q124.08 18.34 123.94 17.34Q123.81 16.35 123.81 15.33ZM145.16 12.57L145.57 12.98Q145.39 14.33 145.29 15.53Q145.20 16.73 145.14 17.85Q145.09 18.96 145.08 20.03Q145.07 21.09 145.07 22.17L145.07 22.17Q145.46 22.11 145.98 21.96Q146.50 21.81 147.06 21.55L147.06 21.55L147.29 22.01Q146.93 22.25 146.39 22.49Q145.85 22.73 145.31 22.92Q144.76 23.10 144.29 23.21Q143.82 23.32 143.60 23.32L143.60 23.32L143.19 22.92Q143.38 21.57 143.48 20.35Q143.59 19.13 143.64 17.99Q143.68 16.85 143.69 15.77Q143.70 14.68 143.70 13.61L143.70 13.61Q143.36 13.65 142.99 13.69L142.99 13.69Q142.69 13.72 142.32 13.75Q141.96 13.77 141.66 13.79L141.66 13.79L141.61 13.29L145.16 12.57ZM145.90 9.48L144.20 9.86L143.77 9.43Q143.82 8.96 143.84 8.63Q143.86 8.29 143.88 8.06L143.88 8.06Q143.89 7.80 143.91 7.63L143.91 7.63L145.62 7.27L146.04 7.70Q145.98 8.18 145.95 8.51Q145.92 8.84 145.91 9.06L145.91 9.06Q145.89 9.32 145.90 9.48L145.90 9.48ZM148.42 12.81L149.84 12.81Q149.86 12.08 149.88 11.30Q149.89 10.52 149.91 9.67L149.91 9.67L151.77 9.16Q151.66 9.90 151.58 10.83Q151.49 11.77 151.41 12.79L151.41 12.79Q152.13 12.76 152.75 12.73Q153.36 12.69 153.96 12.64L153.96 12.64L153.91 13.99Q153.34 13.99 152.68 13.94Q152.02 13.89 151.34 13.80L151.34 13.80Q151.28 14.67 151.24 15.52Q151.20 16.36 151.17 17.08Q151.14 17.80 151.12 18.36Q151.10 18.91 151.10 19.22L151.10 19.22Q151.10 19.57 151.11 19.97Q151.13 20.37 151.15 20.75Q151.18 21.14 151.23 21.50Q151.28 21.86 151.36 22.13L151.36 22.13Q151.54 22.08 151.79 22.00Q152.04 21.91 152.32 21.80Q152.60 21.69 152.88 21.57Q153.16 21.45 153.41 21.33L153.41 21.33L153.64 21.79Q153.33 22.02 152.95 22.25Q152.58 22.49 152.19 22.70Q151.80 22.91 151.42 23.07Q151.03 23.24 150.69 23.32L150.69 23.32L149.80 22.92Q149.64 22.30 149.58 21.63Q149.52 20.95 149.52 20.23L149.52 20.23Q149.52 19.16 149.61 17.53Q149.71 15.89 149.80 13.58L149.80 13.58L148.38 13.31L148.42 12.81ZM161.95 23.32L161.54 22.92Q161.59 22.63 161.65 22.07Q161.72 21.52 161.78 20.85Q161.85 20.18 161.90 19.49Q161.95 18.80 161.98 18.23L161.98 18.23L161.79 18.19Q161.32 19.11 160.69 19.97Q160.07 20.82 159.35 21.51Q158.64 22.20 157.88 22.67Q157.13 23.14 156.41 23.32L156.41 23.32L155.17 22.92Q155.12 22.63 155.12 22.34Q155.11 22.05 155.11 21.76L155.11 21.76Q155.11 20.52 155.35 19.35Q155.59 18.19 156.02 17.17Q156.46 16.15 157.04 15.30Q157.62 14.46 158.31 13.85Q159 13.24 159.76 12.91Q160.51 12.57 161.29 12.57L161.29 12.57Q161.66 12.57 161.98 12.60Q162.30 12.62 162.60 12.66Q162.89 12.70 163.18 12.77Q163.48 12.83 163.80 12.91L163.80 12.91Q163.70 14.12 163.62 15.27Q163.55 16.42 163.50 17.56Q163.45 18.70 163.44 19.85Q163.42 20.99 163.42 22.17L163.42 22.17Q164.23 22.07 165.36 21.55L165.36 21.55L165.57 22.01Q165.21 22.25 164.68 22.49Q164.16 22.73 163.62 22.92Q163.09 23.10 162.63 23.21Q162.18 23.32 161.95 23.32L161.95 23.32ZM162.07 14.80L162.13 14.04Q161.77 13.93 161.31 13.84Q160.85 13.75 160.44 13.75L160.44 13.75Q159.54 13.75 158.86 14.25Q158.18 14.75 157.73 15.65Q157.28 16.55 157.05 17.80Q156.82 19.05 156.82 20.54L156.82 20.54Q156.82 20.87 156.83 21.20Q156.84 21.53 156.87 21.87L156.87 21.87Q157.22 21.82 157.73 21.57Q158.24 21.32 158.79 20.88Q159.35 20.44 159.91 19.82Q160.48 19.21 160.93 18.43Q161.39 17.66 161.70 16.75Q162.01 15.83 162.07 14.80L162.07 14.80ZM169.78 5.27L169.78 5.27Q169.63 6.60 169.52 8.04Q169.42 9.49 169.35 10.99Q169.28 12.49 169.23 14.00Q169.18 15.50 169.16 16.94Q169.14 18.38 169.13 19.71Q169.13 21.04 169.13 22.17L169.13 22.17Q169.93 22.07 171.05 21.55L171.05 21.55L171.29 22.01Q170.93 22.25 170.40 22.49Q169.88 22.73 169.34 22.92Q168.81 23.10 168.35 23.21Q167.88 23.32 167.66 23.32L167.66 23.32L167.26 22.92Q167.41 21.60 167.53 20.14Q167.64 18.68 167.71 17.17Q167.78 15.67 167.82 14.14Q167.86 12.62 167.88 11.17Q167.89 9.71 167.90 8.38Q167.91 7.04 167.91 5.91L167.91 5.91Q167.57 5.95 167.20 5.99L167.20 5.99Q166.90 6.02 166.54 6.05Q166.17 6.07 165.87 6.09L165.87 6.09L165.82 5.59L169.37 4.88L169.78 5.27ZM175.29 12.57L175.70 12.98Q175.52 14.33 175.42 15.53Q175.32 16.73 175.27 17.85Q175.22 18.96 175.21 20.03Q175.20 21.09 175.20 22.17L175.20 22.17Q175.59 22.11 176.11 21.96Q176.63 21.81 177.19 21.55L177.19 21.55L177.42 22.01Q177.06 22.25 176.52 22.49Q175.98 22.73 175.44 22.92Q174.89 23.10 174.42 23.21Q173.95 23.32 173.73 23.32L173.73 23.32L173.32 22.92Q173.51 21.57 173.61 20.35Q173.72 19.13 173.77 17.99Q173.81 16.85 173.82 15.77Q173.82 14.68 173.82 13.61L173.82 13.61Q173.48 13.65 173.12 13.69L173.12 13.69Q172.82 13.72 172.45 13.75Q172.09 13.77 171.79 13.79L171.79 13.79L171.74 13.29L175.29 12.57ZM176.03 9.48L174.33 9.86L173.89 9.43Q173.95 8.96 173.97 8.63Q173.99 8.29 174.01 8.06L174.01 8.06Q174.02 7.80 174.04 7.63L174.04 7.63L175.75 7.27L176.17 7.70Q176.11 8.18 176.08 8.51Q176.05 8.84 176.04 9.06L176.04 9.06Q176.02 9.32 176.03 9.48L176.03 9.48ZM185.16 19.88L185.46 20.30Q185.14 20.59 184.70 20.98Q184.25 21.38 183.67 21.80Q183.08 22.22 182.36 22.62Q181.64 23.02 180.79 23.32L180.79 23.32L179.89 22.92Q179.17 22.15 178.85 21.15Q178.52 20.14 178.52 19.08L178.52 19.08Q178.52 18.29 178.70 17.50Q178.88 16.71 179.21 15.98Q179.55 15.26 180.05 14.64Q180.54 14.02 181.17 13.56Q181.79 13.10 182.54 12.84Q183.29 12.57 184.15 12.57L184.15 12.57Q184.75 12.57 185.44 12.71L185.44 12.71L185.05 14.16Q184.46 13.99 183.99 13.90Q183.52 13.80 183.11 13.76Q182.71 13.72 182.35 13.71Q181.99 13.70 181.65 13.70L181.65 13.70Q181.25 14.00 180.97 14.46Q180.68 14.91 180.50 15.46Q180.32 16.02 180.23 16.65Q180.14 17.29 180.14 17.93L180.14 17.93Q180.14 18.49 180.21 19.04Q180.27 19.59 180.40 20.10Q180.54 20.61 180.74 21.06Q180.95 21.52 181.24 21.87L181.24 21.87Q182.24 21.71 183.16 21.20Q184.09 20.68 185.16 19.88L185.16 19.88Z"/></svg>