<svg xmlns="http://www.w3.org/2000/svg" xmlns:xlink="http://www.w3.org/1999/xlink" width="288.6720000000001" height="29.064"><path fill="black" d="M9.96 6.91Q11.11 6.91 12.29 7.13Q13.46 7.34 14.16 7.75L14.16 7.75Q14.38 7.85 14.44 7.96Q14.50 8.06 14.52 8.33L14.52 8.33L14.78 11.02Q14.78 11.09 14.66 11.10Q14.54 11.11 14.52 11.04L14.52 11.04Q13.99 9.19 12.56 8.32Q11.14 7.44 9.02 7.44L9.02 7.44Q7.20 7.44 5.83 8.24Q4.46 9.05 3.72 10.51Q2.98 11.98 2.98 13.90L2.98 13.90Q2.98 16.13 3.90 18.02Q4.82 19.92 6.40 21.02Q7.97 22.13 9.79 22.13L9.79 22.13Q11.52 22.13 12.79 21.18Q14.06 20.23 14.74 18.26L14.74 18.26Q14.74 18.19 14.83 18.19L14.83 18.19Q14.90 18.19 14.96 18.22Q15.02 18.24 15.02 18.29L15.02 18.29L14.69 21.00Q14.64 21.29 14.58 21.37Q14.52 21.46 14.30 21.55L14.30 21.55Q12.14 22.46 9.74 22.46L9.74 22.46Q6.86 22.46 4.93 21.30Q3 20.14 2.09 18.34Q1.18 16.54 1.18 14.54L1.18 14.54Q1.18 12.34 2.40 10.58Q3.62 8.83 5.64 7.87Q7.66 6.91 9.96 6.91L9.96 6.91ZM22.66 22.46Q20.98 22.46 19.67 21.67Q18.36 20.88 17.64 19.54Q16.92 18.19 16.92 16.63L16.92 16.63Q16.92 14.76 17.89 13.40Q18.86 12.05 20.36 11.35Q21.86 10.66 23.42 10.66L23.42 10.66Q25.10 10.66 26.39 11.48Q27.67 12.31 28.36 13.63Q29.04 14.95 29.04 16.39L29.04 16.39Q29.04 18 28.18 19.40Q27.31 20.81 25.85 21.64Q24.38 22.46 22.66 22.46L22.66 22.46ZM23.28 21.96Q25.15 21.96 26.27 20.64Q27.38 19.32 27.38 16.99L27.38 16.99Q27.38 15.38 26.82 14.06Q26.26 12.74 25.18 11.95Q24.10 11.16 22.61 11.16L22.61 11.16Q20.69 11.16 19.63 12.44Q18.58 13.73 18.58 16.03L18.58 16.03Q18.58 17.69 19.14 19.03Q19.70 20.38 20.77 21.17Q21.84 21.96 23.28 21.96L23.28 21.96ZM35.81 21.89Q35.86 21.89 35.86 22.03Q35.86 22.18 35.81 22.18L35.81 22.18Q35.14 22.18 34.78 22.15L34.78 22.15L33.26 22.13L31.85 22.15Q31.44 22.18 30.74 22.18L30.74 22.18Q30.70 22.18 30.70 22.03Q30.70 21.89 30.74 21.89L30.74 21.89Q31.54 21.89 31.91 21.77Q32.28 21.65 32.42 21.30Q32.57 20.95 32.57 20.23L32.57 20.23L32.57 12.89Q32.57 12.17 32.44 11.83Q32.30 11.50 31.93 11.36Q31.56 11.23 30.77 11.23L30.77 11.23Q30.72 11.23 30.72 11.09Q30.72 10.94 30.77 10.94L30.77 10.94L31.87 10.97Q32.74 11.02 33.26 11.02L33.26 11.02Q33.70 11.02 34.07 10.99Q34.44 10.97 34.70 10.94L34.70 10.94Q35.47 10.87 36.12 10.87L36.12 10.87Q37.68 10.87 38.50 11.47Q39.31 12.07 39.31 13.20L39.31 13.20Q39.31 14.18 38.74 15.02Q38.16 15.86 37.15 16.36Q36.14 16.85 34.94 16.85L34.94 16.85Q34.18 16.85 33.62 16.75L33.62 16.75L33.60 16.27Q34.20 16.44 35.11 16.44L35.11 16.44Q36.60 16.44 37.19 15.78Q37.78 15.12 37.78 13.85L37.78 13.85Q37.78 11.21 35.50 11.21L35.50 11.21Q34.58 11.21 34.31 11.59Q34.03 11.98 34.03 12.94L34.03 12.94L34.03 20.23Q34.03 20.98 34.15 21.31Q34.27 21.65 34.63 21.77Q34.99 21.89 35.81 21.89L35.81 21.89ZM42.94 21.89Q42.98 21.89 42.98 22.03Q42.98 22.18 42.94 22.18L42.94 22.18L40.13 22.18Q39.70 22.18 38.57 20.69Q37.44 19.20 35.88 16.61L35.88 16.61L37.15 16.10Q38.54 18.38 39.48 19.61Q40.42 20.83 41.22 21.36Q42.02 21.89 42.94 21.89L42.94 21.89ZM45.17 19.56L45.43 11.47L45.91 11.54L45.65 19.56Q45.62 20.83 45.98 21.36Q46.34 21.89 47.21 21.89L47.21 21.89Q47.28 21.89 47.28 22.03Q47.28 22.18 47.21 22.18L47.21 22.18Q46.70 22.18 46.44 22.15L46.44 22.15L45.38 22.13L44.38 22.15Q44.06 22.18 43.51 22.18L43.51 22.18Q43.46 22.18 43.46 22.03Q43.46 21.89 43.51 21.89L43.51 21.89Q44.40 21.89 44.76 21.36Q45.12 20.83 45.17 19.56L45.17 19.56ZM58.51 21.89Q58.56 21.89 58.56 22.03Q58.56 22.18 58.51 22.18L58.51 22.18Q57.84 22.18 57.46 22.15L57.46 22.15L56.04 22.13L54.41 22.15Q54.00 22.18 53.28 22.18L53.28 22.18Q53.23 22.18 53.23 22.03Q53.23 21.89 53.28 21.89L53.28 21.89Q54.17 21.89 54.60 21.77Q55.03 21.65 55.18 21.30Q55.32 20.95 55.30 20.23L55.30 20.23L54.96 11.42L55.37 11.23L50.86 22.01Q50.81 22.10 50.69 22.10L50.69 22.10Q50.54 22.10 50.50 22.01L50.50 22.01L45.91 12.94Q45.07 11.23 43.70 11.23L43.70 11.23Q43.63 11.23 43.63 11.09Q43.63 10.94 43.70 10.94L43.70 10.94L45.02 10.97L46.18 10.94Q46.49 10.94 46.68 11.16Q46.87 11.38 47.28 12.19L47.28 12.19L51.34 20.26L50.66 21.34L54.77 11.54Q54.86 11.28 55.07 11.11Q55.27 10.94 55.49 10.94L55.49 10.94L56.76 10.97L58.37 10.94Q58.42 10.94 58.42 11.09Q58.42 11.23 58.37 11.23L58.37 11.23Q57.29 11.23 56.86 11.56Q56.42 11.88 56.47 12.84L56.47 12.84L56.76 20.23Q56.81 20.98 56.93 21.31Q57.05 21.65 57.40 21.77Q57.74 21.89 58.51 21.89L58.51 21.89ZM65.81 22.46Q64.13 22.46 62.82 21.67Q61.51 20.88 60.79 19.54Q60.07 18.19 60.07 16.63L60.07 16.63Q60.07 14.76 61.04 13.40Q62.02 12.05 63.52 11.35Q65.02 10.66 66.58 10.66L66.58 10.66Q68.26 10.66 69.54 11.48Q70.82 12.31 71.51 13.63Q72.19 14.95 72.19 16.39L72.19 16.39Q72.19 18 71.33 19.40Q70.46 20.81 69 21.64Q67.54 22.46 65.81 22.46L65.81 22.46ZM66.43 21.96Q68.30 21.96 69.42 20.64Q70.54 19.32 70.54 16.99L70.54 16.99Q70.54 15.38 69.97 14.06Q69.41 12.74 68.33 11.95Q67.25 11.16 65.76 11.16L65.76 11.16Q63.84 11.16 62.78 12.44Q61.73 13.73 61.73 16.03L61.73 16.03Q61.73 17.69 62.29 19.03Q62.86 20.38 63.92 21.17Q64.99 21.96 66.43 21.96L66.43 21.96ZM78.96 21.89Q79.01 21.89 79.01 22.03Q79.01 22.18 78.96 22.18L78.96 22.18Q78.29 22.18 77.93 22.15L77.93 22.15L76.42 22.13L75.00 22.15Q74.59 22.18 73.90 22.18L73.90 22.18Q73.85 22.18 73.85 22.03Q73.85 21.89 73.90 21.89L73.90 21.89Q74.69 21.89 75.06 21.77Q75.43 21.65 75.58 21.30Q75.72 20.95 75.72 20.23L75.72 20.23L75.72 12.89Q75.72 12.17 75.59 11.83Q75.46 11.50 75.08 11.36Q74.71 11.23 73.92 11.23L73.92 11.23Q73.87 11.23 73.87 11.09Q73.87 10.94 73.92 10.94L73.92 10.94L75.02 10.97Q75.89 11.02 76.42 11.02L76.42 11.02Q76.85 11.02 77.22 10.99Q77.59 10.97 77.86 10.94L77.86 10.94Q78.62 10.87 79.27 10.87L79.27 10.87Q80.83 10.87 81.65 11.47Q82.46 12.07 82.46 13.20L82.46 13.20Q82.46 14.18 81.89 15.02Q81.31 15.86 80.30 16.36Q79.30 16.85 78.10 16.85L78.10 16.85Q77.33 16.85 76.78 16.75L76.78 16.75L76.75 16.27Q77.35 16.44 78.26 16.44L78.26 16.44Q79.75 16.44 80.34 15.78Q80.93 15.12 80.93 13.85L80.93 13.85Q80.93 11.21 78.65 11.21L78.65 11.21Q77.74 11.21 77.46 11.59Q77.18 11.98 77.18 12.94L77.18 12.94L77.18 20.23Q77.18 20.98 77.30 21.31Q77.42 21.65 77.78 21.77Q78.14 21.89 78.96 21.89L78.96 21.89ZM86.09 21.89Q86.14 21.89 86.14 22.03Q86.14 22.18 86.09 22.18L86.09 22.18L83.28 22.18Q82.85 22.18 81.72 20.69Q80.59 19.20 79.03 16.61L79.03 16.61L80.30 16.10Q81.70 18.38 82.63 19.61Q83.57 20.83 84.37 21.36Q85.18 21.89 86.09 21.89L86.09 21.89ZM90.00 16.66L90.38 16.22L94.75 16.22L94.92 16.66L90.00 16.66ZM99.19 21.89Q99.29 21.89 99.29 22.03Q99.29 22.18 99.19 22.18L99.19 22.18Q98.76 22.18 97.80 22.13L97.80 22.13Q96.84 22.08 96.41 22.08L96.41 22.08Q96.02 22.08 95.40 22.13L95.40 22.13Q94.78 22.18 94.44 22.18L94.44 22.18Q94.34 22.18 94.34 22.03Q94.34 21.89 94.44 21.89L94.44 21.89Q95.09 21.89 95.39 21.73Q95.69 21.58 95.69 21.19L95.69 21.19Q95.69 20.86 95.38 20.16L95.38 20.16L91.73 12.29L92.35 11.76L89.35 19.22Q88.97 20.14 88.97 20.74L88.97 20.74Q88.97 21.36 89.40 21.62Q89.83 21.89 90.72 21.89L90.72 21.89Q90.84 21.89 90.84 22.03Q90.84 22.18 90.72 22.18L90.72 22.18Q90.36 22.18 89.74 22.13L89.74 22.13Q89.06 22.08 88.49 22.08L88.49 22.08Q87.89 22.08 87.07 22.13L87.07 22.13Q86.35 22.18 85.92 22.18L85.92 22.18Q85.80 22.18 85.80 22.03Q85.80 21.89 85.92 21.89L85.92 21.89Q86.66 21.89 87.10 21.68Q87.53 21.48 87.90 20.88Q88.27 20.28 88.80 19.01L88.80 19.01L92.26 10.58Q92.30 10.49 92.40 10.49Q92.50 10.49 92.52 10.58L92.52 10.58L96.38 18.89Q97.01 20.23 97.38 20.83Q97.75 21.43 98.15 21.66Q98.54 21.89 99.19 21.89L99.19 21.89ZM101.62 19.56L101.62 11.47L102.10 11.54L102.10 19.56Q102.10 20.83 102.46 21.36Q102.82 21.89 103.70 21.89L103.70 21.89Q103.75 21.89 103.75 22.03Q103.75 22.18 103.70 22.18L103.70 22.18Q103.18 22.18 102.89 22.15L102.89 22.15L101.88 22.13L100.85 22.15Q100.54 22.18 99.98 22.18L99.98 22.18Q99.94 22.18 99.94 22.03Q99.94 21.89 99.98 21.89L99.98 21.89Q100.87 21.89 101.24 21.36Q101.62 20.83 101.62 19.56L101.62 19.56ZM110.57 22.44Q110.57 22.49 110.45 22.51Q110.33 22.54 110.28 22.49L110.28 22.49L102.41 12.91Q101.64 12.00 101.08 11.62Q100.51 11.23 99.98 11.23L99.98 11.23Q99.94 11.23 99.94 11.09Q99.94 10.94 99.98 10.94L99.98 10.94L101.33 10.97L102.60 10.94Q102.77 10.94 102.88 11.04Q102.98 11.14 103.20 11.45L103.20 11.45Q103.39 11.76 103.73 12.19L103.73 12.19L110.33 20.33L110.57 22.44ZM110.57 13.56L110.57 22.44L110.09 21.70L110.09 13.56Q110.09 12.29 109.74 11.76Q109.39 11.23 108.50 11.23L108.50 11.23Q108.43 11.23 108.43 11.09Q108.43 10.94 108.50 10.94L108.50 10.94L109.32 10.97Q109.94 11.02 110.33 11.02L110.33 11.02Q110.71 11.02 111.38 10.97L111.38 10.97L112.22 10.94Q112.30 10.94 112.30 11.09Q112.30 11.23 112.22 11.23L112.22 11.23Q111.34 11.23 110.95 11.76Q110.57 12.29 110.57 13.56L110.57 13.56ZM116.54 11.26Q115.63 11.26 115.10 11.51Q114.58 11.76 114.28 12.36Q113.98 12.96 113.81 14.06L113.81 14.06Q113.81 14.11 113.68 14.11Q113.54 14.11 113.54 14.06L113.54 14.06Q113.62 13.51 113.71 12.29Q113.81 11.06 113.81 10.42L113.81 10.42Q113.81 10.30 113.95 10.30Q114.10 10.30 114.10 10.42L114.10 10.42Q114.10 10.73 114.46 10.81Q114.82 10.90 115.34 10.90L115.34 10.90Q117.46 10.94 118.97 10.94L118.97 10.94L121.06 10.92Q121.49 10.90 122.18 10.90L122.18 10.90Q123.05 10.90 123.46 10.79Q123.86 10.68 123.98 10.32L123.98 10.32Q124.03 10.25 124.15 10.25Q124.27 10.25 124.27 10.32L124.27 10.32Q124.13 12.91 124.13 14.06L124.13 14.06Q124.13 14.11 124.00 14.11Q123.86 14.11 123.86 14.06L123.86 14.06Q123.84 12.98 123.61 12.38Q123.38 11.78 122.86 11.52Q122.33 11.26 121.39 11.26L121.39 11.26Q120.36 11.26 120.01 11.58Q119.66 11.90 119.66 12.89L119.66 12.89L119.66 20.23Q119.66 20.98 119.81 21.31Q119.95 21.65 120.37 21.77Q120.79 21.89 121.73 21.89L121.73 21.89Q121.80 21.89 121.80 22.03Q121.80 22.18 121.73 22.18L121.73 22.18Q120.98 22.18 120.58 22.15L120.58 22.15L118.90 22.13L117.29 22.15Q116.86 22.18 116.09 22.18L116.09 22.18Q116.04 22.18 116.04 22.03Q116.04 21.89 116.09 21.89L116.09 21.89Q117.00 21.89 117.43 21.77Q117.86 21.65 118.02 21.30Q118.18 20.95 118.18 20.23L118.18 20.23L118.18 12.84Q118.18 12.14 118.07 11.82Q117.96 11.50 117.62 11.38Q117.29 11.26 116.54 11.26L116.54 11.26ZM133.94 9.98Q133.94 10.92 134.40 11.62Q134.86 12.31 135.50 12.78Q136.15 13.25 137.33 13.97L137.33 13.97Q138.58 14.71 139.27 15.22Q139.97 15.72 140.46 16.50Q140.95 17.28 140.95 18.36L140.95 18.36Q140.95 19.51 140.38 20.45Q139.80 21.38 138.68 21.92Q137.57 22.46 136.01 22.46L136.01 22.46Q134.16 22.46 132.62 21.62L132.62 21.62Q132.50 21.55 132.47 21.46Q132.43 21.36 132.41 21.17L132.41 21.17L132.10 17.90Q132.07 17.81 132.20 17.78Q132.34 17.76 132.36 17.86L132.36 17.86Q132.72 19.56 133.78 20.82Q134.83 22.08 136.56 22.08L136.56 22.08Q137.76 22.08 138.59 21.42Q139.42 20.76 139.42 19.32L139.42 19.32Q139.42 18.24 138.94 17.45Q138.46 16.66 137.77 16.14Q137.09 15.62 135.91 14.93L135.91 14.93Q134.76 14.23 134.10 13.73Q133.44 13.22 132.98 12.46Q132.53 11.69 132.53 10.66L132.53 10.66Q132.53 9.46 133.16 8.60Q133.80 7.75 134.82 7.33Q135.84 6.91 136.99 6.91L136.99 6.91Q138.41 6.91 139.80 7.49L139.80 7.49Q140.16 7.61 140.16 7.90L140.16 7.90L140.33 10.63Q140.33 10.75 140.20 10.75Q140.06 10.75 140.04 10.66L140.04 10.66Q139.87 9.41 139.03 8.34Q138.19 7.27 136.61 7.27L136.61 7.27Q135.26 7.27 134.60 8.05Q133.94 8.83 133.94 9.98L133.94 9.98ZM152.21 6.91Q153.36 6.91 154.54 7.13Q155.71 7.34 156.41 7.75L156.41 7.75Q156.62 7.85 156.68 7.96Q156.74 8.06 156.77 8.33L156.77 8.33L157.03 11.02Q157.03 11.09 156.91 11.10Q156.79 11.11 156.77 11.04L156.77 11.04Q156.24 9.19 154.81 8.32Q153.38 7.44 151.27 7.44L151.27 7.44Q149.45 7.44 148.08 8.24Q146.71 9.05 145.97 10.51Q145.22 11.98 145.22 13.90L145.22 13.90Q145.22 16.13 146.15 18.02Q147.07 19.92 148.64 21.02Q150.22 22.13 152.04 22.13L152.04 22.13Q153.77 22.13 155.04 21.18Q156.31 20.23 156.98 18.26L156.98 18.26Q156.98 18.19 157.08 18.19L157.08 18.19Q157.15 18.19 157.21 18.22Q157.27 18.24 157.27 18.29L157.27 18.29L156.94 21.00Q156.89 21.29 156.83 21.37Q156.77 21.46 156.55 21.55L156.55 21.55Q154.39 22.46 151.99 22.46L151.99 22.46Q149.11 22.46 147.18 21.30Q145.25 20.14 144.34 18.34Q143.42 16.54 143.42 14.54L143.42 14.54Q143.42 12.34 144.65 10.58Q145.87 8.83 147.89 7.87Q149.90 6.91 152.21 6.91L152.21 6.91ZM164.45 21.98Q164.33 21.98 164.27 21.89Q164.21 21.79 164.28 21.70L164.28 21.70L171.89 10.66Q171.94 10.61 172.06 10.61L172.06 10.61Q172.30 10.61 172.30 10.78L172.30 10.78L172.30 25.25Q172.30 25.51 172.10 25.58L172.10 25.58L171.10 26.09Q171.00 26.14 170.95 26.14L170.95 26.14Q170.86 26.14 170.86 25.94L170.86 25.94L170.86 12.72L171.60 12.07L165.50 21.10Q165.46 21.17 165.49 21.22Q165.53 21.26 165.62 21.26L165.62 21.26Q169.44 21.26 173.28 21.14L173.28 21.14L174.29 21.12Q174.38 21.12 174.38 21.58L174.38 21.58Q174.38 21.77 174.35 21.96Q174.31 22.15 174.26 22.15L174.26 22.15Q172.44 22.06 170.32 22.02Q168.19 21.98 164.45 21.98L164.45 21.98ZM182.04 22.49Q180.38 22.49 179.09 21.73Q177.79 20.98 177.06 19.62Q176.33 18.26 176.33 16.51L176.33 16.51Q176.33 14.81 177.06 13.49Q177.79 12.17 179.10 11.44Q180.41 10.70 182.06 10.70L182.06 10.70Q183.70 10.70 184.98 11.45Q186.26 12.19 186.97 13.52Q187.68 14.86 187.68 16.58L187.68 16.58Q187.68 18.31 186.96 19.66Q186.24 21.00 184.96 21.74Q183.67 22.49 182.04 22.49L182.04 22.49ZM182.33 22.15Q184.15 22.15 185.04 20.75Q185.93 19.34 185.93 16.87L185.93 16.87Q185.93 14.93 185.38 13.61Q184.82 12.29 183.89 11.65Q182.95 11.02 181.80 11.02L181.80 11.02Q180.02 11.02 179.02 12.49Q178.01 13.97 178.01 16.34L178.01 16.34Q178.01 18.02 178.54 19.34Q179.06 20.66 180.05 21.41Q181.03 22.15 182.33 22.15L182.33 22.15ZM195.17 22.49Q193.51 22.49 192.22 21.73Q190.92 20.98 190.19 19.62Q189.46 18.26 189.46 16.51L189.46 16.51Q189.46 14.81 190.19 13.49Q190.92 12.17 192.23 11.44Q193.54 10.70 195.19 10.70L195.19 10.70Q196.82 10.70 198.11 11.45Q199.39 12.19 200.10 13.52Q200.81 14.86 200.81 16.58L200.81 16.58Q200.81 18.31 200.09 19.66Q199.37 21.00 198.08 21.74Q196.80 22.49 195.17 22.49L195.17 22.49ZM195.46 22.15Q197.28 22.15 198.17 20.75Q199.06 19.34 199.06 16.87L199.06 16.87Q199.06 14.93 198.50 13.61Q197.95 12.29 197.02 11.65Q196.08 11.02 194.93 11.02L194.93 11.02Q193.15 11.02 192.14 12.49Q191.14 13.97 191.14 16.34L191.14 16.34Q191.14 18.02 191.66 19.34Q192.19 20.66 193.18 21.41Q194.16 22.15 195.46 22.15L195.46 22.15ZM209.66 19.56L209.66 11.47L210.14 11.54L210.14 19.56Q210.14 20.83 210.50 21.36Q210.86 21.89 211.75 21.89L211.75 21.89Q211.80 21.89 211.80 22.03Q211.80 22.18 211.75 22.18L211.75 22.18Q211.22 22.18 210.94 22.15L210.94 22.15L209.93 22.13L208.90 22.15Q208.58 22.18 208.03 22.18L208.03 22.18Q207.98 22.18 207.98 22.03Q207.98 21.89 208.03 21.89L208.03 21.89Q208.92 21.89 209.29 21.36Q209.66 20.83 209.66 19.56L209.66 19.56ZM218.62 22.44Q218.62 22.49 218.50 22.51Q218.38 22.54 218.33 22.49L218.33 22.49L210.46 12.91Q209.69 12.00 209.12 11.62Q208.56 11.23 208.03 11.23L208.03 11.23Q207.98 11.23 207.98 11.09Q207.98 10.94 208.03 10.94L208.03 10.94L209.38 10.97L210.65 10.94Q210.82 10.94 210.92 11.04Q211.03 11.14 211.25 11.45L211.25 11.45Q211.44 11.76 211.78 12.19L211.78 12.19L218.38 20.33L218.62 22.44ZM218.62 13.56L218.62 22.44L218.14 21.70L218.14 13.56Q218.14 12.29 217.79 11.76Q217.44 11.23 216.55 11.23L216.55 11.23Q216.48 11.23 216.48 11.09Q216.48 10.94 216.55 10.94L216.55 10.94L217.37 10.97Q217.99 11.02 218.38 11.02L218.38 11.02Q218.76 11.02 219.43 10.97L219.43 10.97L220.27 10.94Q220.34 10.94 220.34 11.09Q220.34 11.23 220.27 11.23L220.27 11.23Q219.38 11.23 219.00 11.76Q218.62 12.29 218.62 13.56L218.62 13.56ZM227.59 22.46Q225.91 22.46 224.60 21.67Q223.30 20.88 222.58 19.54Q221.86 18.19 221.86 16.63L221.86 16.63Q221.86 14.76 222.83 13.40Q223.80 12.05 225.30 11.35Q226.80 10.66 228.36 10.66L228.36 10.66Q230.04 10.66 231.32 11.48Q232.61 12.31 233.29 13.63Q233.98 14.95 233.98 16.39L233.98 16.39Q233.98 18 233.11 19.40Q232.25 20.81 230.78 21.64Q229.32 22.46 227.59 22.46L227.59 22.46ZM228.22 21.96Q230.09 21.96 231.20 20.64Q232.32 19.32 232.32 16.99L232.32 16.99Q232.32 15.38 231.76 14.06Q231.19 12.74 230.11 11.95Q229.03 11.16 227.54 11.16L227.54 11.16Q225.62 11.16 224.57 12.44Q223.51 13.73 223.51 16.03L223.51 16.03Q223.51 17.69 224.08 19.03Q224.64 20.38 225.71 21.17Q226.78 21.96 228.22 21.96L228.22 21.96ZM240.74 21.89Q240.79 21.89 240.79 22.03Q240.79 22.18 240.74 22.18L240.74 22.18Q240.07 22.18 239.71 22.15L239.71 22.15L238.20 22.13L236.78 22.15Q236.38 22.18 235.68 22.18L235.68 22.18Q235.63 22.18 235.63 22.03Q235.63 21.89 235.68 21.89L235.68 21.89Q236.47 21.89 236.84 21.77Q237.22 21.65 237.36 21.30Q237.50 20.95 237.50 20.23L237.50 20.23L237.50 12.89Q237.50 12.17 237.37 11.83Q237.24 11.50 236.87 11.36Q236.50 11.23 235.70 11.23L235.70 11.23Q235.66 11.23 235.66 11.09Q235.66 10.94 235.70 10.94L235.70 10.94L236.81 10.97Q237.67 11.02 238.20 11.02L238.20 11.02Q238.63 11.02 239.00 10.99Q239.38 10.97 239.64 10.94L239.64 10.94Q240.41 10.87 241.06 10.87L241.06 10.87Q242.62 10.87 243.43 11.47Q244.25 12.07 244.25 13.20L244.25 13.20Q244.25 14.18 243.67 15.02Q243.10 15.86 242.09 16.36Q241.08 16.85 239.88 16.85L239.88 16.85Q239.11 16.85 238.56 16.75L238.56 16.75L238.54 16.27Q239.14 16.44 240.05 16.44L240.05 16.44Q241.54 16.44 242.12 15.78Q242.71 15.12 242.71 13.85L242.71 13.85Q242.71 11.21 240.43 11.21L240.43 11.21Q239.52 11.21 239.24 11.59Q238.97 11.98 238.97 12.94L238.97 12.94L238.97 20.23Q238.97 20.98 239.09 21.31Q239.21 21.65 239.57 21.77Q239.93 21.89 240.74 21.89L240.74 21.89ZM247.87 21.89Q247.92 21.89 247.92 22.03Q247.92 22.18 247.87 22.18L247.87 22.18L245.06 22.18Q244.63 22.18 243.50 20.69Q242.38 19.20 240.82 16.61L240.82 16.61L242.09 16.10Q243.48 18.38 244.42 19.61Q245.35 20.83 246.16 21.36Q246.96 21.89 247.87 21.89L247.87 21.89ZM250.10 19.56L250.37 11.47L250.85 11.54L250.58 19.56Q250.56 20.83 250.92 21.36Q251.28 21.89 252.14 21.89L252.14 21.89Q252.22 21.89 252.22 22.03Q252.22 22.18 252.14 22.18L252.14 22.18Q251.64 22.18 251.38 22.15L251.38 22.15L250.32 22.13L249.31 22.15Q249.00 22.18 248.45 22.18L248.45 22.18Q248.40 22.18 248.40 22.03Q248.40 21.89 248.45 21.89L248.45 21.89Q249.34 21.89 249.70 21.36Q250.06 20.83 250.10 19.56L250.10 19.56ZM263.45 21.89Q263.50 21.89 263.50 22.03Q263.50 22.18 263.45 22.18L263.45 22.18Q262.78 22.18 262.39 22.15L262.39 22.15L260.98 22.13L259.34 22.15Q258.94 22.18 258.22 22.18L258.22 22.18Q258.17 22.18 258.17 22.03Q258.17 21.89 258.22 21.89L258.22 21.89Q259.10 21.89 259.54 21.77Q259.97 21.65 260.11 21.30Q260.26 20.95 260.23 20.23L260.23 20.23L259.90 11.42L260.30 11.23L255.79 22.01Q255.74 22.10 255.62 22.10L255.62 22.10Q255.48 22.10 255.43 22.01L255.43 22.01L250.85 12.94Q250.01 11.23 248.64 11.23L248.64 11.23Q248.57 11.23 248.57 11.09Q248.57 10.94 248.64 10.94L248.64 10.94L249.96 10.97L251.11 10.94Q251.42 10.94 251.62 11.16Q251.81 11.38 252.22 12.19L252.22 12.19L256.27 20.26L255.60 21.34L259.70 11.54Q259.80 11.28 260.00 11.11Q260.21 10.94 260.42 10.94L260.42 10.94L261.70 10.97L263.30 10.94Q263.35 10.94 263.35 11.09Q263.35 11.23 263.30 11.23L263.30 11.23Q262.22 11.23 261.79 11.56Q261.36 11.88 261.41 12.84L261.41 12.84L261.70 20.23Q261.74 20.98 261.86 21.31Q261.98 21.65 262.33 21.77Q262.68 21.89 263.45 21.89L263.45 21.89ZM268.30 16.66L268.68 16.22L273.05 16.22L273.22 16.66L268.30 16.66ZM277.49 21.89Q277.58 21.89 277.58 22.03Q277.58 22.18 277.49 22.18L277.49 22.18Q277.06 22.18 276.10 22.13L276.10 22.13Q275.14 22.08 274.70 22.08L274.70 22.08Q274.32 22.08 273.70 22.13L273.70 22.13Q273.07 22.18 272.74 22.18L272.74 22.18Q272.64 22.18 272.64 22.03Q272.64 21.89 272.74 21.89L272.74 21.89Q273.38 21.89 273.68 21.73Q273.98 21.58 273.98 21.19L273.98 21.19Q273.98 20.86 273.67 20.16L273.67 20.16L270.02 12.29L270.65 11.76L267.65 19.22Q267.26 20.14 267.26 20.74L267.26 20.74Q267.26 21.36 267.70 21.62Q268.13 21.89 269.02 21.89L269.02 21.89Q269.14 21.89 269.14 22.03Q269.14 22.18 269.02 22.18L269.02 22.18Q268.66 22.18 268.03 22.13L268.03 22.13Q267.36 22.08 266.78 22.08L266.78 22.08Q266.18 22.08 265.37 22.13L265.37 22.13Q264.65 22.18 264.22 22.18L264.22 22.18Q264.10 22.18 264.10 22.03Q264.10 21.89 264.22 21.89L264.22 21.89Q264.96 21.89 265.39 21.68Q265.82 21.48 266.20 20.88Q266.57 20.28 267.10 19.01L267.10 19.01L270.55 10.58Q270.60 10.49 270.70 10.49Q270.79 10.49 270.82 10.58L270.82 10.58L274.68 18.89Q275.30 20.23 275.68 20.83Q276.05 21.43 276.44 21.66Q276.84 21.89 277.49 21.89L277.49 21.89ZM281.64 20.14Q281.64 20.83 281.77 21.17Q281.90 21.50 282.28 21.65Q282.65 21.79 283.39 21.79L283.39 21.79L285.00 21.79Q286.25 21.79 287.00 21.00Q287.76 20.21 288.02 18.82L288.02 18.82Q288.02 18.77 288.12 18.77L288.12 18.77Q288.19 18.77 288.25 18.79Q288.31 18.82 288.31 18.86L288.31 18.86Q288.14 19.97 288.14 21.82L288.14 21.82Q288.14 22.01 288.06 22.09Q287.98 22.18 287.78 22.18L287.78 22.18L278.40 22.18Q278.35 22.18 278.35 22.03Q278.35 21.89 278.40 21.89L278.40 21.89Q279.19 21.89 279.55 21.77Q279.91 21.65 280.03 21.30Q280.15 20.95 280.15 20.23L280.15 20.23L280.15 12.89Q280.15 12.17 280.02 11.83Q279.89 11.50 279.53 11.36Q279.17 11.23 278.40 11.23L278.40 11.23Q278.35 11.23 278.35 11.09Q278.35 10.94 278.40 10.94L278.40 10.94L279.48 10.97Q280.39 11.02 280.90 11.02L280.90 11.02Q281.50 11.02 282.41 10.97L282.41 10.97L283.42 10.94Q283.49 10.94 283.49 11.09Q283.49 11.23 283.42 11.23L283.42 11.23Q282.62 11.23 282.26 11.36Q281.90 11.50 281.77 11.84Q281.64 12.19 281.64 12.91L281.64 12.91L281.64 20.14Z"/></svg>