<svg xmlns="http://www.w3.org/2000/svg" xmlns:xlink="http://www.w3.org/1999/xlink" width="235.60799999999998" height="27.36"><path fill="black" d="M5.76 5.88L5.76 20.04L9.24 20.04Q10.54 20.04 11.45 19.66Q12.36 19.27 12.98 18.46L12.98 18.46Q13.63 17.62 13.97 16.28Q14.30 14.95 14.30 13.10L14.30 13.10Q14.30 9.48 12.98 7.66L12.98 7.66Q12.34 6.74 11.36 6.31Q10.39 5.88 9 5.88L9 5.88L5.76 5.88ZM1.10 5.47L1.10 4.32L9.41 4.32Q12.98 4.32 14.98 6.34L14.98 6.34Q16.10 7.49 16.70 9.17Q17.30 10.85 17.30 12.77L17.30 12.77Q17.30 14.78 16.67 16.55Q16.03 18.31 14.90 19.51L14.90 19.51Q12.91 21.60 9.19 21.60L9.19 21.60L1.10 21.60L1.10 20.45L3.12 19.94L3.12 5.98L1.10 5.47ZM31.51 15.05L31.51 15.05Q31.51 16.58 31.06 17.98Q30.60 19.37 29.76 20.28L29.76 20.28Q29.02 21.10 27.94 21.47Q26.86 21.84 25.46 21.84L25.46 21.84Q24.10 21.84 23.03 21.47Q21.96 21.10 21.22 20.30L21.22 20.30Q20.40 19.42 19.96 18.10Q19.51 16.78 19.51 15.24L19.51 15.24Q19.51 13.68 19.97 12.28Q20.42 10.87 21.26 9.96L21.26 9.96Q22.06 9.14 23.10 8.77Q24.14 8.40 25.54 8.40L25.54 8.40Q26.90 8.40 27.98 8.77Q29.06 9.14 29.81 9.94L29.81 9.94Q30.65 10.82 31.08 12.17Q31.51 13.51 31.51 15.05ZM22.58 16.44L22.58 16.44Q22.68 17.57 23.02 18.36Q23.35 19.15 23.88 19.63L23.88 19.63Q24.41 20.02 24.97 20.16Q25.54 20.30 26.23 20.16L26.23 20.16Q27.60 19.75 28.15 18.02L28.15 18.02Q28.44 17.09 28.51 16.01Q28.58 14.93 28.44 13.78L28.44 13.78Q28.34 12.67 28.01 11.87Q27.67 11.06 27.14 10.61L27.14 10.61Q26.64 10.20 26.06 10.07Q25.49 9.94 24.77 10.08L24.77 10.08Q23.40 10.49 22.90 12.22L22.90 12.22Q22.32 14.09 22.58 16.44ZM33.36 20.50L35.21 20.04L35.21 10.20L33.36 9.74L33.36 8.64L37.06 8.64L37.58 11.04L37.68 11.04Q38.38 9.84 39.54 9.12Q40.70 8.40 42.02 8.40L42.02 8.40Q43.01 8.40 43.78 8.77Q44.54 9.14 44.90 9.70L44.90 9.70Q45.29 10.30 45.53 11.28L45.53 11.28Q46.30 9.94 47.52 9.17Q48.74 8.40 50.14 8.40L50.14 8.40Q51.10 8.40 51.86 8.77Q52.63 9.14 53.04 9.79L53.04 9.79Q53.33 10.25 53.50 10.97Q53.66 11.69 53.74 12.83Q53.81 13.97 53.81 15.72L53.81 15.72L53.81 20.04L55.66 20.50L55.66 21.60L49.63 21.60L49.63 20.50L51.24 20.04L51.24 14.93Q51.24 13.37 51.16 12.60Q51.07 11.83 50.86 11.40L50.86 11.40Q50.59 10.82 50.11 10.55Q49.63 10.27 49.03 10.27L49.03 10.27Q48.43 10.27 47.88 10.49Q47.33 10.70 46.87 11.11L46.87 11.11Q46.34 11.59 46.09 12.24Q45.84 12.89 45.79 13.87L45.79 13.87L45.79 20.04L47.40 20.50L47.40 21.60L41.62 21.60L41.62 20.50L43.22 20.04L43.22 14.93Q43.22 13.37 43.14 12.60Q43.06 11.83 42.84 11.40L42.84 11.40Q42.58 10.82 42.10 10.55Q41.62 10.27 41.02 10.27L41.02 10.27Q40.42 10.27 39.86 10.49Q39.31 10.70 38.86 11.11L38.86 11.11Q38.33 11.59 38.08 12.24Q37.82 12.89 37.78 13.87L37.78 13.87L37.78 20.04L39.38 20.50L39.38 21.60L33.36 21.60L33.36 20.50ZM58.78 20.04L58.78 10.20L56.93 9.74L56.93 8.64L61.34 8.64L61.34 20.04L63.19 20.50L63.19 21.60L56.93 21.60L56.93 20.50L58.78 20.04ZM58.46 4.85L58.46 4.85Q58.46 4.13 58.90 3.70Q59.33 3.26 60.05 3.26L60.05 3.26Q60.79 3.26 61.22 3.70Q61.66 4.13 61.66 4.85L61.66 4.85Q61.66 5.54 61.24 5.98Q60.82 6.41 60.05 6.41L60.05 6.41Q59.30 6.41 58.88 5.99Q58.46 5.57 58.46 4.85ZM64.56 20.50L66.41 20.04L66.41 10.20L64.56 9.74L64.56 8.64L68.26 8.64L68.78 11.04L68.88 11.04Q69.60 9.82 70.82 9.11Q72.05 8.40 73.44 8.40L73.44 8.40Q75.43 8.40 76.39 9.70L76.39 9.70Q76.87 10.37 77.08 11.58Q77.28 12.79 77.28 14.86L77.28 14.86L77.28 20.04L79.13 20.50L79.13 21.60L73.10 21.60L73.10 20.50L74.71 20.04L74.71 14.93Q74.71 13.42 74.63 12.64Q74.54 11.86 74.33 11.40L74.33 11.40Q74.06 10.80 73.55 10.52Q73.03 10.25 72.34 10.25L72.34 10.25Q71.02 10.25 70.06 11.09L70.06 11.09Q69.07 12.00 68.98 13.87L68.98 13.87L68.98 20.04L70.58 20.50L70.58 21.60L64.56 21.60L64.56 20.50ZM91.70 15.34L91.70 15.34L83.33 15.34Q83.33 17.04 83.81 18.17L83.81 18.17Q84.26 19.18 85.07 19.64Q85.87 20.11 86.88 20.11L86.88 20.11Q87.98 20.11 88.96 19.64Q89.93 19.18 90.67 18.31L90.67 18.31L91.61 19.03Q90.77 20.18 89.50 21.01Q88.22 21.84 86.26 21.84L86.26 21.84Q84.58 21.84 83.30 21.13Q82.03 20.42 81.36 19.06L81.36 19.06Q81.00 18.31 80.83 17.40Q80.66 16.49 80.66 15.46L80.66 15.46Q80.66 12.10 82.21 10.25Q83.76 8.40 86.47 8.40L86.47 8.40Q88.99 8.40 90.38 9.92Q91.78 11.45 91.78 14.14L91.78 14.14Q91.78 14.38 91.76 14.60Q91.75 14.83 91.70 15.34ZM86.38 9.82L86.38 9.82Q83.62 9.82 83.35 14.04L83.35 14.04L89.11 14.04L89.11 13.30Q89.11 11.62 88.39 10.72Q87.67 9.82 86.38 9.82ZM102.89 6.72L109.46 6.72L110.47 3.55L109.22 3.55L108.79 4.32L101.88 4.32L100.54 12.86L101.90 13.42Q102.38 12.82 103.24 12.52Q104.09 12.22 105.05 12.22L105.05 12.22Q106.80 12.22 107.51 13.31Q108.22 14.40 108.22 16.27L108.22 16.27Q108.22 18.17 107.46 19.32Q106.70 20.47 104.93 20.47L104.93 20.47Q103.54 20.47 102.66 19.88Q101.78 19.30 101.62 18.43L101.62 18.43Q102.38 18.43 102.80 17.98Q103.22 17.52 103.22 16.94L103.22 16.94Q103.22 16.37 102.86 15.94Q102.50 15.50 101.69 15.50L101.69 15.50Q100.92 15.50 100.34 16.15Q99.77 16.80 99.77 17.93L99.77 17.93Q99.77 18.96 100.42 19.86Q101.06 20.76 102.24 21.30Q103.42 21.84 105.02 21.84L105.02 21.84Q106.85 21.84 108.20 21.13Q109.56 20.42 110.30 19.14Q111.05 17.86 111.05 16.15L111.05 16.15Q111.05 14.50 110.35 13.30Q109.66 12.10 108.42 11.44Q107.18 10.78 105.50 10.78L105.50 10.78Q104.47 10.78 103.64 11.04Q102.82 11.30 102.12 11.83L102.12 11.83L102.89 6.72ZM113.33 12.96L113.33 12.96Q113.33 8.35 115.32 5.95L115.32 5.95Q116.18 4.90 117.36 4.49Q118.54 4.08 120.17 4.08L120.17 4.08Q121.30 4.08 122.16 4.26Q123.02 4.44 123.72 4.85Q124.42 5.26 125.02 5.95L125.02 5.95Q127.01 8.35 127.01 12.96L127.01 12.96Q127.01 15.26 126.49 17.03Q125.98 18.79 125.02 19.97L125.02 19.97Q124.42 20.66 123.72 21.07Q123.02 21.48 122.16 21.66Q121.30 21.84 120.17 21.84L120.17 21.84Q118.54 21.84 117.36 21.42Q116.18 21 115.32 19.97L115.32 19.97Q113.33 17.57 113.33 12.96ZM124.08 12.96L124.08 12.96Q124.08 10.92 123.82 9.42Q123.55 7.92 123.00 7.01L123.00 7.01Q122.54 6.24 121.91 5.87Q121.27 5.50 120.17 5.50L120.17 5.50Q119.14 5.50 118.44 5.87Q117.74 6.24 117.34 7.01L117.34 7.01Q116.78 7.92 116.52 9.42Q116.26 10.92 116.26 12.96L116.26 12.96Q116.26 15 116.52 16.50Q116.78 18 117.34 18.91L117.34 18.91Q117.74 19.66 118.43 20.04Q119.11 20.42 120.17 20.42L120.17 20.42Q121.27 20.42 121.91 20.04Q122.54 19.66 123.00 18.91L123.00 18.91Q123.55 18 123.82 16.50Q124.08 15 124.08 12.96ZM129.58 12.96L129.58 12.96Q129.58 8.35 131.57 5.95L131.57 5.95Q132.43 4.90 133.61 4.49Q134.78 4.08 136.42 4.08L136.42 4.08Q137.54 4.08 138.41 4.26Q139.27 4.44 139.97 4.85Q140.66 5.26 141.26 5.95L141.26 5.95Q143.26 8.35 143.26 12.96L143.26 12.96Q143.26 15.26 142.74 17.03Q142.22 18.79 141.26 19.97L141.26 19.97Q140.66 20.66 139.97 21.07Q139.27 21.48 138.41 21.66Q137.54 21.84 136.42 21.84L136.42 21.84Q134.78 21.84 133.61 21.42Q132.43 21 131.57 19.97L131.57 19.97Q129.58 17.57 129.58 12.96ZM140.33 12.96L140.33 12.96Q140.33 10.92 140.06 9.42Q139.80 7.92 139.25 7.01L139.25 7.01Q138.79 6.24 138.16 5.87Q137.52 5.50 136.42 5.50L136.42 5.50Q135.38 5.50 134.69 5.87Q133.99 6.24 133.58 7.01L133.58 7.01Q133.03 7.92 132.77 9.42Q132.50 10.92 132.50 12.96L132.50 12.96Q132.50 15 132.77 16.50Q133.03 18 133.58 18.91L133.58 18.91Q133.99 19.66 134.68 20.04Q135.36 20.42 136.42 20.42L136.42 20.42Q137.52 20.42 138.16 20.04Q138.79 19.66 139.25 18.91L139.25 18.91Q139.80 18 140.06 16.50Q140.33 15 140.33 12.96ZM151.30 20.50L153.14 20.04L153.14 10.20L151.30 9.74L151.30 8.64L154.99 8.64L155.52 11.04L155.62 11.04Q156.34 9.82 157.56 9.11Q158.78 8.40 160.18 8.40L160.18 8.40Q162.17 8.40 163.13 9.70L163.13 9.70Q163.61 10.37 163.81 11.58Q164.02 12.79 164.02 14.86L164.02 14.86L164.02 20.04L165.86 20.50L165.86 21.60L159.84 21.60L159.84 20.50L161.45 20.04L161.45 14.93Q161.45 13.42 161.36 12.64Q161.28 11.86 161.06 11.40L161.06 11.40Q160.80 10.80 160.28 10.52Q159.77 10.25 159.07 10.25L159.07 10.25Q157.75 10.25 156.79 11.09L156.79 11.09Q155.81 12.00 155.71 13.87L155.71 13.87L155.71 20.04L157.32 20.50L157.32 21.60L151.30 21.60L151.30 20.50ZM179.38 15.05L179.38 15.05Q179.38 16.58 178.92 17.98Q178.46 19.37 177.62 20.28L177.62 20.28Q176.88 21.10 175.80 21.47Q174.72 21.84 173.33 21.84L173.33 21.84Q171.96 21.84 170.89 21.47Q169.82 21.10 169.08 20.30L169.08 20.30Q168.26 19.42 167.82 18.10Q167.38 16.78 167.38 15.24L167.38 15.24Q167.38 13.68 167.83 12.28Q168.29 10.87 169.13 9.96L169.13 9.96Q169.92 9.14 170.96 8.77Q172.01 8.40 173.40 8.40L173.40 8.40Q174.77 8.40 175.85 8.77Q176.93 9.14 177.67 9.94L177.67 9.94Q178.51 10.82 178.94 12.17Q179.38 13.51 179.38 15.05ZM170.45 16.44L170.45 16.44Q170.54 17.57 170.88 18.36Q171.22 19.15 171.74 19.63L171.74 19.63Q172.27 20.02 172.84 20.16Q173.40 20.30 174.10 20.16L174.10 20.16Q175.46 19.75 176.02 18.02L176.02 18.02Q176.30 17.09 176.38 16.01Q176.45 14.93 176.30 13.78L176.30 13.78Q176.21 12.67 175.87 11.87Q175.54 11.06 175.01 10.61L175.01 10.61Q174.50 10.20 173.93 10.07Q173.35 9.94 172.63 10.08L172.63 10.08Q171.26 10.49 170.76 12.22L170.76 12.22Q170.18 14.09 170.45 16.44ZM188.45 10.15L188.45 10.15Q188.38 10.10 188.29 10.08Q188.21 10.06 188.11 10.06L188.11 10.06Q187.85 10.06 187.51 10.34Q187.18 10.63 186.88 11.06Q186.58 11.50 186.36 12.00L186.36 12.00Q186.02 12.82 185.83 13.75Q185.64 14.69 185.64 15.79L185.64 15.79L185.64 20.04L188.23 20.50L188.23 21.60L181.22 21.60L181.22 20.50L183.07 20.04L183.07 10.08L181.22 9.62L181.22 8.64L184.92 8.64L185.45 11.81L185.54 11.81Q186.10 10.18 187.03 9.29Q187.97 8.40 189.10 8.40L189.10 8.40Q190.03 8.40 190.66 8.99Q191.28 9.58 191.28 10.56L191.28 10.56Q191.28 11.28 190.88 11.76Q190.49 12.24 189.82 12.24L189.82 12.24Q189.07 12.24 188.70 11.82Q188.33 11.40 188.33 10.80L188.33 10.80Q188.33 10.66 188.34 10.54Q188.35 10.42 188.45 10.15ZM192.34 20.50L194.18 20.04L194.18 10.20L192.34 9.74L192.34 8.64L196.03 8.64L196.56 11.04L196.66 11.04Q197.35 9.84 198.52 9.12Q199.68 8.40 201.00 8.40L201.00 8.40Q201.98 8.40 202.75 8.77Q203.52 9.14 203.88 9.70L203.88 9.70Q204.26 10.30 204.50 11.28L204.50 11.28Q205.27 9.94 206.50 9.17Q207.72 8.40 209.11 8.40L209.11 8.40Q210.07 8.40 210.84 8.77Q211.61 9.14 212.02 9.79L212.02 9.79Q212.30 10.25 212.47 10.97Q212.64 11.69 212.71 12.83Q212.78 13.97 212.78 15.72L212.78 15.72L212.78 20.04L214.63 20.50L214.63 21.60L208.61 21.60L208.61 20.50L210.22 20.04L210.22 14.93Q210.22 13.37 210.13 12.60Q210.05 11.83 209.83 11.40L209.83 11.40Q209.57 10.82 209.09 10.55Q208.61 10.27 208.01 10.27L208.01 10.27Q207.41 10.27 206.86 10.49Q206.30 10.70 205.85 11.11L205.85 11.11Q205.32 11.59 205.07 12.24Q204.82 12.89 204.77 13.87L204.77 13.87L204.77 20.04L206.38 20.50L206.38 21.60L200.59 21.60L200.59 20.50L202.20 20.04L202.20 14.93Q202.20 13.37 202.12 12.60Q202.03 11.83 201.82 11.40L201.82 11.40Q201.55 10.82 201.07 10.55Q200.59 10.27 199.99 10.27L199.99 10.27Q199.39 10.27 198.84 10.49Q198.29 10.70 197.83 11.11L197.83 11.11Q197.30 11.59 197.05 12.24Q196.80 12.89 196.75 13.87L196.75 13.87L196.75 20.04L198.36 20.50L198.36 21.60L192.34 21.60L192.34 20.50ZM215.93 18.79L215.93 18.79Q215.93 16.87 217.70 15.79Q219.48 14.71 223.49 14.11L223.49 14.11Q223.39 12.77 223.22 12.02Q223.06 11.28 222.79 10.80L222.79 10.80Q222.48 10.20 221.93 9.89Q221.38 9.58 220.68 9.58L220.68 9.58Q220.06 9.58 219.55 9.80Q219.05 10.03 218.88 10.42L218.88 10.42Q219.22 10.63 219.36 11.00Q219.50 11.38 219.50 11.69L219.50 11.69Q219.50 12.29 219.07 12.67Q218.64 13.06 217.99 13.06L217.99 13.06Q217.37 13.06 216.97 12.64Q216.58 12.22 216.58 11.52L216.58 11.52Q216.58 10.51 217.27 9.82Q217.97 9.12 219.05 8.76Q220.13 8.40 221.21 8.40L221.21 8.40Q222.24 8.40 223.09 8.71Q223.94 9.02 224.52 9.55L224.52 9.55Q226.13 11.11 226.13 14.86L226.13 14.86L226.13 18.22Q226.13 19.39 226.28 19.85Q226.44 20.30 226.97 20.30L226.97 20.30L228.05 20.30L228.05 21.14Q226.18 21.84 225.14 21.84L225.14 21.84Q224.40 21.84 224.14 21.30Q223.87 20.76 223.87 19.22L223.87 19.22L223.78 19.22Q223.03 20.45 221.81 21.14Q220.58 21.84 219.17 21.84L219.17 21.84Q217.66 21.84 216.79 21.02Q215.93 20.21 215.93 18.79ZM220.34 20.33L220.34 20.33Q220.94 20.33 221.64 19.98Q222.34 19.63 222.82 19.03L222.82 19.03Q223.18 18.60 223.37 17.95Q223.56 17.30 223.56 16.42L223.56 16.42Q223.56 16.06 223.54 15.67Q223.51 15.29 223.46 14.93L223.46 14.93Q221.62 15.31 220.57 15.74Q219.53 16.18 219.08 16.78Q218.64 17.38 218.64 18.24L218.64 18.24Q218.64 19.27 219.12 19.80Q219.60 20.33 220.34 20.33ZM228.70 20.50L230.54 20.04L230.54 4.44L228.70 3.98L228.70 2.88L233.11 2.88L233.11 20.04L234.96 20.50L234.96 21.60L228.70 21.60L228.70 20.50Z"/></svg>