<svg xmlns="http://www.w3.org/2000/svg" xmlns:xlink="http://www.w3.org/1999/xlink" width="119.8359375" height="29.94140625"><path fill="black" d="M2.48 20.74L2.48 20.74Q1.21 20.74 0.60 20.27Q0 19.80 0 19.14L0 19.14Q0 18.62 0.37 18.39Q0.74 18.16 1.10 18.16L1.10 18.16Q1.28 18.16 1.48 18.29Q1.69 18.42 1.69 18.70L1.69 18.70Q1.69 18.93 1.49 19.11Q1.29 19.29 1.02 19.29L1.02 19.29Q0.87 19.29 0.73 19.27Q0.59 19.24 0.47 19.17L0.47 19.17L0.47 19.23Q0.47 19.75 0.97 20.08Q1.48 20.41 2.33 20.41L2.33 20.41Q3.08 20.41 3.77 20.16Q4.45 19.90 5.28 19.17Q6.11 18.45 7.24 17.05Q8.37 15.66 10.02 13.38L10.02 13.38Q9.36 12.95 9.36 12.35L9.36 12.35Q9.36 11.82 9.82 11.48Q10.28 11.14 10.78 11.14L10.78 11.14Q11.00 11.14 11.04 11.20Q11.07 11.26 11.07 11.26L11.07 11.26Q11.07 11.33 10.93 11.36L10.93 11.36Q10.39 11.44 10.11 11.78Q9.83 12.12 9.83 12.57L9.83 12.57Q9.83 12.84 10.22 13.10L10.22 13.10L10.38 12.88Q11.66 11.16 12.80 9.86Q13.95 8.55 15.08 7.53Q16.21 6.50 17.46 5.65L17.46 5.65L17.94 5.33Q17.27 4.92 16.23 4.71Q15.19 4.50 13.76 4.50L13.76 4.50Q11.52 4.50 9.52 5.13Q7.52 5.77 6 6.79Q4.48 7.82 3.63 9.03Q2.78 10.24 2.81 11.40L2.81 11.40Q2.85 12.36 3.38 12.74Q3.90 13.11 4.41 13.11L4.41 13.11Q5.25 13.11 6.11 12.60Q6.96 12.08 7.74 11.27Q8.52 10.46 9.14 9.56Q9.76 8.66 10.14 7.86Q10.52 7.05 10.58 6.57L10.58 6.57Q10.62 6.18 10.75 6.18L10.75 6.18Q10.86 6.18 10.86 6.54L10.86 6.54Q10.90 7.56 10.46 8.75Q10.03 9.94 9.18 11.00Q8.33 12.07 7.11 12.75Q5.89 13.43 4.37 13.43L4.37 13.43Q3.71 13.43 3.09 12.89Q2.47 12.35 2.45 11.47L2.45 11.47Q2.41 10.32 3.05 9.26Q3.68 8.19 4.80 7.28Q5.93 6.36 7.39 5.68Q8.85 5.00 10.48 4.62Q12.11 4.24 13.73 4.24L13.73 4.24Q15.20 4.24 16.35 4.46Q17.50 4.69 18.34 5.10L18.34 5.10Q19.07 4.69 19.62 4.50Q20.18 4.31 20.46 4.31L20.46 4.31Q20.68 4.31 20.70 4.43L20.70 4.43Q20.70 4.50 20.64 4.55Q20.59 4.59 20.39 4.62L20.39 4.62Q19.62 4.77 18.76 5.32L18.76 5.32Q19.71 5.88 20.18 6.67Q20.65 7.45 20.65 8.37L20.65 8.37Q20.65 9.46 20.02 10.48Q19.38 11.50 18.30 12.30Q17.23 13.11 15.87 13.59Q14.52 14.06 13.08 14.06L13.08 14.06Q12.15 14.06 11.37 13.90L11.37 13.90Q9.45 16.48 7.85 17.97Q6.26 19.46 4.93 20.10Q3.60 20.74 2.48 20.74ZM13.03 13.76L13.03 13.76Q13.97 13.76 15.05 13.37Q16.13 12.97 17.08 12.20Q18.04 11.43 18.64 10.27Q19.24 9.12 19.24 7.61L19.24 7.61Q19.24 6.36 18.34 5.61L18.34 5.61Q17.06 6.54 15.66 8.20Q14.25 9.87 12.68 12.07L12.68 12.07Q12.40 12.48 12.13 12.86Q11.86 13.24 11.59 13.61L11.59 13.61Q12.32 13.76 13.03 13.76ZM22.34 10.45L22.34 10.45Q22.01 10.45 21.81 10.25Q21.62 10.04 21.62 9.73L21.62 9.73Q21.62 9.32 21.97 8.97Q22.31 8.63 22.79 8.63L22.79 8.63Q23.12 8.63 23.31 8.84Q23.51 9.06 23.51 9.36L23.51 9.36Q23.51 9.80 23.14 10.13Q22.77 10.45 22.34 10.45ZM16.35 20.74L16.35 20.74Q15.63 20.74 15.19 20.48Q14.75 20.21 14.75 19.77L14.75 19.77Q14.75 19.42 14.93 18.96Q15.11 18.49 15.60 17.74Q16.10 16.99 17.06 15.79Q18.01 14.59 19.57 12.77L19.57 12.77Q19.68 12.79 20.07 12.80Q20.47 12.81 20.70 12.81L20.70 12.81Q20.89 12.81 20.99 12.80Q21.09 12.80 21.19 12.79L21.19 12.79Q19.48 14.80 18.39 16.10Q17.31 17.40 16.72 18.18Q16.14 18.95 15.91 19.36Q15.69 19.77 15.69 20.02L15.69 20.02Q15.69 20.32 16.02 20.37Q16.35 20.41 16.55 20.41L16.55 20.41Q17.18 20.41 17.93 19.99Q18.68 19.56 19.42 18.92Q20.17 18.28 20.81 17.63Q21.45 16.97 21.86 16.49Q22.27 16.02 22.34 15.95L22.34 15.95L22.57 16.16Q22.44 16.30 22.01 16.80Q21.57 17.31 20.93 17.97Q20.29 18.63 19.52 19.27Q18.75 19.90 17.94 20.32Q17.12 20.74 16.35 20.74ZM28.71 20.74L28.71 20.74Q28.07 20.74 27.59 20.50Q27.12 20.25 27.12 19.84L27.12 19.84Q27.12 19.52 27.26 19.10Q27.40 18.67 27.93 17.92Q28.46 17.17 29.61 15.88L29.61 15.88Q30.54 14.84 30.89 14.26Q31.24 13.69 31.24 13.41L31.24 13.41Q31.24 13.24 31.13 13.11Q31.01 12.98 30.68 12.98L30.68 12.98Q30.45 12.98 30.05 13.14Q29.66 13.29 29.12 13.65L29.12 13.65Q28.20 14.29 26.85 15.60Q25.50 16.92 23.75 19.07L23.75 19.07L22.66 20.50Q22.36 20.44 21.98 20.44L21.98 20.44Q21.56 20.44 21.29 20.48Q21.01 20.52 20.87 20.55L20.87 20.55Q22.18 18.66 23.06 17.41Q23.94 16.16 24.47 15.41Q25.01 14.66 25.27 14.27Q25.54 13.88 25.63 13.71Q25.72 13.54 25.73 13.43L25.73 13.43Q25.76 13.09 25.48 13.09L25.48 13.09Q25.31 13.09 24.96 13.42Q24.61 13.75 24.17 14.24Q23.73 14.73 23.31 15.25Q22.89 15.77 22.57 16.16L22.57 16.16Q22.49 16.21 22.36 16.10L22.36 16.10Q22.29 16.00 22.32 15.96L22.32 15.96Q22.66 15.60 23.09 15.05Q23.52 14.51 23.99 13.96Q24.46 13.42 24.95 13.05Q25.44 12.69 25.90 12.69L25.90 12.69Q26.24 12.69 26.57 12.84Q26.91 12.98 26.85 13.54L26.85 13.54Q26.84 13.72 26.73 14.01Q26.63 14.30 26.31 14.74L26.31 14.74L23.85 18.16L23.91 18.29Q25.73 16.23 26.96 15.05Q28.18 13.88 29.03 13.31L29.03 13.31Q29.59 12.94 30.02 12.81Q30.45 12.69 30.81 12.69L30.81 12.69Q31.57 12.69 31.88 13.06Q32.19 13.43 32.18 13.88L32.18 13.88Q32.17 14.34 31.87 14.99Q31.57 15.64 30.85 16.61Q30.13 17.58 28.83 19.00L28.83 19.00Q28.23 19.63 28.11 19.81Q27.98 19.99 27.98 20.14L27.98 20.14Q27.98 20.26 28.22 20.34Q28.46 20.41 28.83 20.41L28.83 20.41Q29.54 20.41 30.29 20.00Q31.04 19.59 31.75 18.98Q32.46 18.36 33.05 17.72Q33.63 17.07 34.03 16.58Q34.42 16.09 34.54 15.96L34.54 15.96L34.78 16.16Q34.64 16.31 34.24 16.82Q33.83 17.32 33.22 17.98Q32.61 18.64 31.88 19.28Q31.14 19.91 30.33 20.33Q29.52 20.74 28.71 20.74ZM27.74 29.94L27.74 29.94Q27.23 29.94 26.98 29.68Q26.72 29.43 26.72 29.16L26.72 29.16Q26.72 28.52 27.45 27.76Q28.18 26.99 29.99 25.98Q31.80 24.97 35.02 23.63L35.02 23.63Q35.99 22.44 37.16 20.94Q38.33 19.44 39.79 17.58L39.79 17.58L39.66 17.53Q39 18.23 38.01 18.98Q37.02 19.72 35.94 20.23Q34.86 20.74 33.91 20.74L33.91 20.74Q32.60 20.74 32.60 19.77L32.60 19.77Q32.60 19.35 32.75 18.91Q32.89 18.47 33.32 17.77Q33.75 17.06 34.61 15.86L34.61 15.86Q35.14 15.20 35.90 14.43Q36.66 13.65 37.54 12.76L37.54 12.76Q37.91 12.80 38.09 12.81Q38.27 12.83 38.54 12.83L38.54 12.83Q39.06 12.83 39.38 12.80L39.38 12.80Q38.57 13.52 38.08 14.03Q37.59 14.54 37.20 15.01Q36.81 15.47 36.26 16.05L36.26 16.05Q35.99 16.36 35.52 16.88Q35.05 17.39 34.56 17.97Q34.08 18.55 33.74 19.07Q33.41 19.58 33.41 19.90L33.41 19.90Q33.41 20.29 33.62 20.36Q33.83 20.44 34.01 20.44L34.01 20.44Q35.06 20.44 36.18 19.83Q37.30 19.23 38.33 18.31Q39.36 17.39 40.15 16.43L40.15 16.43Q41.34 15.12 42.06 14.25Q42.79 13.38 43.25 12.80L43.25 12.80Q43.38 12.82 43.58 12.85Q43.78 12.88 43.98 12.88L43.98 12.88Q44.13 12.88 44.40 12.87Q44.67 12.86 44.82 12.83L44.82 12.83L40.75 17.86Q39.63 19.37 38.68 20.64Q37.72 21.90 36.89 22.96L36.89 22.96Q38.51 22.18 39.60 21.50Q40.70 20.81 41.54 20.06Q42.39 19.30 43.23 18.32Q44.07 17.33 45.20 15.96L45.20 15.96L45.45 16.16Q44.47 17.33 43.71 18.21Q42.94 19.09 42.23 19.78Q41.53 20.47 40.73 21.06Q39.94 21.66 38.92 22.23Q37.90 22.80 36.48 23.47L36.48 23.47Q34.83 25.56 33.62 26.84Q32.40 28.11 31.44 28.79Q30.48 29.46 29.60 29.70Q28.72 29.94 27.74 29.94ZM27.79 29.63L27.79 29.63Q28.44 29.63 29.07 29.39Q29.71 29.16 30.46 28.56Q31.22 27.97 32.22 26.89Q33.22 25.82 34.61 24.13L34.61 24.13Q31.93 25.27 30.28 26.16Q28.62 27.05 27.86 27.77Q27.09 28.49 27.09 29.16L27.09 29.16Q27.09 29.29 27.26 29.46Q27.42 29.63 27.79 29.63ZM45.88 20.74L45.88 20.74Q44.89 20.74 44.43 20.29Q43.96 19.84 43.90 19.18L43.90 19.18Q43.86 18.39 44.23 17.47Q44.60 16.56 45.04 15.94L45.04 15.94Q45.61 15.13 46.43 14.38Q47.25 13.64 48.23 13.17Q49.21 12.69 50.24 12.69L50.24 12.69Q50.86 12.69 51.31 13.01Q51.76 13.34 51.81 14.04L51.81 14.04Q51.87 15.04 51.42 16.13Q50.98 17.23 50.21 18.16L50.21 18.16Q50.30 18.50 50.74 18.50L50.74 18.50Q51.18 18.50 51.69 18.16Q52.21 17.81 52.69 17.34Q53.18 16.88 53.53 16.48Q53.88 16.08 54 15.96L54 15.96L54.26 16.16Q54.04 16.37 53.63 16.81Q53.21 17.25 52.72 17.71Q52.22 18.18 51.70 18.50Q51.18 18.83 50.72 18.83L50.72 18.83Q50.16 18.83 49.96 18.48L49.96 18.48Q49.09 19.46 48.01 20.10Q46.92 20.74 45.88 20.74ZM46.18 20.39L46.18 20.39Q46.59 20.39 47.13 20.16Q47.67 19.92 48.21 19.54L48.21 19.54Q49.11 18.89 49.84 18.02L49.84 18.02L49.84 17.98Q49.84 17.25 50.22 16.82Q50.60 16.39 50.96 16.28L50.96 16.28Q51.54 15.08 51.48 14.13L51.48 14.13Q51.45 13.56 51.18 13.34Q50.92 13.11 50.60 13.11L50.60 13.11Q49.92 13.11 48.93 13.92Q47.94 14.72 46.72 16.23L46.72 16.23Q45.86 17.32 45.51 18.07Q45.16 18.82 45.21 19.37L45.21 19.37Q45.21 19.69 45.43 20.04Q45.64 20.39 46.18 20.39ZM60.40 20.74L60.40 20.74Q59.75 20.74 59.28 20.50Q58.80 20.25 58.80 19.84L58.80 19.84Q58.80 19.52 58.95 19.10Q59.09 18.67 59.62 17.92Q60.15 17.17 61.30 15.88L61.30 15.88Q62.23 14.84 62.58 14.26Q62.93 13.69 62.93 13.41L62.93 13.41Q62.93 13.24 62.81 13.11Q62.70 12.98 62.37 12.98L62.37 12.98Q62.13 12.98 61.74 13.14Q61.35 13.29 60.81 13.65L60.81 13.65Q59.88 14.29 58.54 15.60Q57.19 16.92 55.44 19.07L55.44 19.07L54.35 20.50Q54.05 20.44 53.67 20.44L53.67 20.44Q53.25 20.44 52.97 20.48Q52.70 20.52 52.56 20.55L52.56 20.55Q53.87 18.66 54.75 17.41Q55.63 16.16 56.16 15.41Q56.70 14.66 56.96 14.27Q57.22 13.88 57.32 13.71Q57.41 13.54 57.42 13.43L57.42 13.43Q57.45 13.09 57.16 13.09L57.16 13.09Q57 13.09 56.65 13.42Q56.30 13.75 55.86 14.24Q55.42 14.73 55.00 15.25Q54.57 15.77 54.26 16.16L54.26 16.16Q54.18 16.21 54.05 16.10L54.05 16.10Q53.98 16.00 54.01 15.96L54.01 15.96Q54.35 15.60 54.78 15.05Q55.21 14.51 55.68 13.96Q56.14 13.42 56.64 13.05Q57.13 12.69 57.59 12.69L57.59 12.69Q57.93 12.69 58.26 12.84Q58.59 12.98 58.54 13.54L58.54 13.54Q58.52 13.72 58.42 14.01Q58.31 14.30 58.00 14.74L58.00 14.74L55.54 18.16L55.59 18.29Q57.42 16.23 58.65 15.05Q59.87 13.88 60.71 13.31L60.71 13.31Q61.28 12.94 61.71 12.81Q62.13 12.69 62.50 12.69L62.50 12.69Q63.26 12.69 63.57 13.06Q63.88 13.43 63.87 13.88L63.87 13.88Q63.86 14.34 63.56 14.99Q63.26 15.64 62.54 16.61Q61.82 17.58 60.52 19.00L60.52 19.00Q59.92 19.63 59.79 19.81Q59.67 19.99 59.67 20.14L59.67 20.14Q59.67 20.26 59.91 20.34Q60.15 20.41 60.52 20.41L60.52 20.41Q61.23 20.41 61.98 20.00Q62.73 19.59 63.44 18.98Q64.15 18.36 64.73 17.72Q65.32 17.07 65.71 16.58Q66.11 16.09 66.22 15.96L66.22 15.96L66.47 16.16Q66.33 16.31 65.92 16.82Q65.52 17.32 64.91 17.98Q64.30 18.64 63.56 19.28Q62.82 19.91 62.02 20.33Q61.21 20.74 60.40 20.74ZM73.73 20.74L73.73 20.74Q72.46 20.74 71.75 20.27Q71.04 19.80 71.04 19.14L71.04 19.14Q71.04 18.62 71.40 18.39Q71.77 18.16 72.13 18.16L72.13 18.16Q72.33 18.16 72.52 18.29Q72.71 18.42 72.71 18.70L72.71 18.70Q72.71 18.93 72.52 19.11Q72.32 19.29 72.05 19.29L72.05 19.29Q71.70 19.29 71.51 19.17L71.51 19.17L71.51 19.23Q71.51 19.75 72.10 20.10Q72.69 20.46 73.55 20.46L73.55 20.46Q74.80 20.46 75.81 19.83Q76.82 19.21 77.67 18.18Q78.53 17.14 79.29 15.89Q80.06 14.64 80.82 13.37L80.82 13.37L81.06 12.98Q79.21 12.91 77.75 12.43Q76.29 11.94 75.47 11.10Q74.66 10.25 74.73 9.14L74.73 9.14Q74.79 8.10 75.48 7.21Q76.17 6.33 77.33 5.68Q78.48 5.03 79.94 4.66Q81.40 4.30 83.00 4.30L83.00 4.30Q83.87 4.30 84.52 4.46Q85.17 4.63 85.17 4.79L85.17 4.79Q85.17 4.84 85.03 4.84L85.03 4.84Q84.95 4.84 84.87 4.82Q84.80 4.80 84.70 4.79L84.70 4.79Q84.33 4.70 83.94 4.63Q83.54 4.57 82.99 4.57L82.99 4.57Q81.63 4.57 80.33 4.92Q79.02 5.26 77.95 5.89Q76.88 6.53 76.22 7.41Q75.57 8.29 75.52 9.36L75.52 9.36Q75.47 10.07 76.07 10.82Q76.68 11.57 77.96 12.09Q79.25 12.62 81.25 12.69L81.25 12.69Q84.05 8.29 86.39 6.29Q88.73 4.30 90.84 4.30L90.84 4.30Q91.55 4.30 91.96 4.68Q92.37 5.05 92.33 5.75L92.33 5.75Q92.29 6.66 91.54 7.78Q90.80 8.91 89.52 9.98Q88.24 11.06 86.58 11.86Q84.91 12.66 83.00 12.90L83.00 12.90Q82.01 14.44 80.98 15.85Q79.95 17.26 78.83 18.36Q77.71 19.46 76.45 20.10Q75.19 20.74 73.73 20.74ZM83.23 12.57L83.23 12.57Q84.91 12.29 86.43 11.53Q87.94 10.76 89.11 9.74Q90.28 8.72 90.97 7.65Q91.65 6.59 91.70 5.71L91.70 5.71Q91.76 5.07 91.45 4.83Q91.15 4.58 90.83 4.59L90.83 4.59Q89.38 4.64 87.74 6.35Q86.11 8.06 84.06 11.29L84.06 11.29Q83.85 11.61 83.64 11.93Q83.43 12.25 83.23 12.57ZM85.80 20.79L85.80 20.79Q84.56 20.79 83.97 20.17Q83.38 19.56 83.38 18.68L83.38 18.68Q83.38 17.92 83.74 17.07Q84.09 16.22 84.83 15.34L84.83 15.34Q86.11 13.84 87.53 13.25Q88.96 12.66 89.99 12.69L89.99 12.69Q90.77 12.71 91.08 13.06Q91.39 13.41 91.41 13.78L91.41 13.78Q91.43 14.29 91.03 14.68Q90.62 15.07 90.16 15.07L90.16 15.07Q89.89 15.07 89.65 14.89Q89.41 14.72 89.40 14.38L89.40 14.38Q89.39 14.05 89.65 13.83Q89.92 13.61 90.28 13.59L90.28 13.59Q90.56 13.58 90.88 13.72L90.88 13.72L90.88 13.68Q90.88 13.37 90.67 13.18Q90.47 13.00 89.99 13.00L89.99 13.00Q89.20 13.00 88.11 13.86Q87.01 14.73 85.63 16.54L85.63 16.54Q84.98 17.39 84.75 18.04Q84.52 18.69 84.52 19.21L84.52 19.21Q84.52 19.71 84.90 20.08Q85.28 20.45 85.88 20.45L85.88 20.45Q87.01 20.45 88.02 20.02Q89.03 19.58 89.86 18.94Q90.69 18.29 91.31 17.63Q91.92 16.97 92.28 16.49Q92.64 16.02 92.70 15.96L92.70 15.96L92.95 16.16Q92.89 16.23 92.52 16.72Q92.14 17.20 91.50 17.88Q90.86 18.56 89.99 19.23Q89.12 19.90 88.06 20.34Q87 20.79 85.80 20.79ZM94.58 20.74L94.58 20.74Q93.93 20.74 93.52 20.41Q93.11 20.07 93.11 19.54L93.11 19.54Q93.11 18.60 94.48 17.27Q95.85 15.95 98.19 14.38L98.19 14.38Q97.00 14.18 96.13 13.98Q95.27 13.78 94.76 13.55L94.76 13.55Q94.52 14.02 94.08 14.70Q93.63 15.38 92.94 16.16L92.94 16.16Q92.47 16.71 92.24 16.93Q92.00 17.16 91.92 17.20Q91.83 17.24 91.82 17.26L91.82 17.26Q91.78 17.27 91.78 17.19Q91.77 17.11 91.78 17.06L91.78 17.06Q91.78 17.02 91.96 16.84Q92.13 16.66 92.70 15.96L92.70 15.96Q93.28 15.22 93.74 14.55Q94.20 13.89 94.44 13.38L94.44 13.38Q94.02 13.11 93.95 12.79L93.95 12.79Q93.86 12.22 94.17 11.77Q94.49 11.31 94.99 11.31L94.99 11.31Q95.61 11.31 95.61 11.85L95.61 11.85Q95.61 12.12 95.51 12.30Q95.40 12.49 95.30 12.67L95.30 12.67Q95.09 12.91 95.09 13.29L95.09 13.29Q95.09 13.41 95.49 13.54Q95.89 13.68 96.49 13.80Q97.08 13.92 97.65 14.01Q98.23 14.10 98.55 14.12L98.55 14.12Q98.78 14.13 98.83 14.20Q98.88 14.26 98.88 14.30L98.88 14.30Q98.88 14.41 98.54 14.68L98.54 14.68Q97.90 15.18 97.22 15.87Q96.54 16.57 95.95 17.31Q95.37 18.06 95.00 18.71Q94.64 19.37 94.64 19.79L94.64 19.79Q94.64 20.34 95.09 20.34L95.09 20.34Q95.66 20.34 96.34 19.96Q97.02 19.57 97.72 18.98Q98.41 18.40 99.03 17.77Q99.64 17.14 100.09 16.65Q100.54 16.15 100.71 15.96L100.71 15.96L100.95 16.16Q100.69 16.41 100.21 16.94Q99.74 17.47 99.11 18.12Q98.47 18.77 97.73 19.37Q96.98 19.97 96.19 20.36Q95.39 20.74 94.58 20.74ZM106.03 10.45L106.03 10.45Q105.70 10.45 105.51 10.25Q105.32 10.04 105.32 9.73L105.32 9.73Q105.32 9.32 105.66 8.97Q106.01 8.63 106.49 8.63L106.49 8.63Q106.82 8.63 107.01 8.84Q107.20 9.06 107.20 9.36L107.20 9.36Q107.20 9.80 106.83 10.13Q106.46 10.45 106.03 10.45ZM100.04 20.74L100.04 20.74Q99.33 20.74 98.89 20.48Q98.45 20.21 98.45 19.77L98.45 19.77Q98.45 19.42 98.63 18.96Q98.80 18.49 99.30 17.74Q99.80 16.99 100.75 15.79Q101.71 14.59 103.27 12.77L103.27 12.77Q103.37 12.79 103.77 12.80Q104.17 12.81 104.39 12.81L104.39 12.81Q104.59 12.81 104.69 12.80Q104.79 12.80 104.88 12.79L104.88 12.79Q103.17 14.80 102.09 16.10Q101.00 17.40 100.42 18.18Q99.83 18.95 99.61 19.36Q99.39 19.77 99.39 20.02L99.39 20.02Q99.39 20.32 99.71 20.37Q100.04 20.41 100.24 20.41L100.24 20.41Q100.88 20.41 101.63 19.99Q102.38 19.56 103.12 18.92Q103.86 18.28 104.50 17.63Q105.14 16.97 105.55 16.49Q105.96 16.02 106.03 15.95L106.03 15.95L106.27 16.16Q106.14 16.30 105.70 16.80Q105.27 17.31 104.63 17.97Q103.98 18.63 103.21 19.27Q102.45 19.90 101.63 20.32Q100.82 20.74 100.04 20.74ZM97.46 29.03L97.46 29.03Q97.32 29.03 97.05 29.00Q96.77 28.97 96.61 28.92L96.61 28.92Q97.51 27.70 98.65 26.17Q99.79 24.63 101.00 22.97Q102.21 21.30 103.37 19.71Q104.52 18.11 105.43 16.77L105.43 16.77Q106.11 15.83 106.57 15.21Q107.03 14.59 107.42 14.07Q107.81 13.56 108.26 12.96Q108.71 12.36 109.37 11.49Q110.02 10.62 111.01 9.27L111.01 9.27Q111.43 9.32 111.69 9.33Q111.94 9.34 112.11 9.34L112.11 9.34Q112.28 9.34 112.45 9.32Q112.62 9.30 112.78 9.26L112.78 9.26Q111.75 10.51 111.05 11.36Q110.34 12.21 109.86 12.80Q109.38 13.39 109.01 13.88Q108.63 14.36 108.26 14.85Q107.89 15.34 107.41 15.99Q106.93 16.64 106.22 17.60L106.22 17.60L106.30 17.70Q109.95 14.19 111.68 13.29L111.68 13.29Q112.23 13.01 112.66 12.85Q113.09 12.69 113.80 12.69L113.80 12.69Q114.39 12.69 114.65 12.96Q114.91 13.23 114.91 13.66L114.91 13.66Q114.91 14.55 114.13 15.61Q113.36 16.66 111.39 18.06L111.39 18.06Q110.21 18.89 109.86 19.26Q109.51 19.63 109.51 19.89L109.51 19.89Q109.51 20.41 110.34 20.41L110.34 20.41Q111.16 20.41 112.02 19.89Q112.88 19.37 113.67 18.62Q114.47 17.86 115.11 17.12Q115.75 16.38 116.11 15.96L116.11 15.96L116.37 16.16Q116.02 16.56 115.37 17.31Q114.71 18.06 113.87 18.85Q113.02 19.64 112.09 20.19Q111.16 20.74 110.27 20.74L110.27 20.74Q109.58 20.74 109.25 20.43Q108.91 20.12 108.91 19.58L108.91 19.58Q108.91 18.79 109.79 17.67Q110.67 16.56 112.77 15L112.77 15Q113.81 14.25 114.05 13.91Q114.28 13.57 114.28 13.36L114.28 13.36Q114.28 13.22 114.16 13.10Q114.04 12.98 113.80 12.98L113.80 12.98Q113.25 12.98 112.72 13.17Q112.20 13.36 111.59 13.72L111.59 13.72Q110.84 14.16 109.89 14.91Q108.94 15.66 107.93 16.59Q106.92 17.52 105.96 18.53Q104.99 19.54 104.18 20.50L104.18 20.50Q103.59 21.27 102.87 22.32Q102.15 23.38 101.42 24.49Q100.69 25.61 100.06 26.58Q99.43 27.55 99.03 28.20Q98.63 28.84 98.57 28.93L98.57 28.93Q98.45 28.97 98.18 29.00Q97.91 29.03 97.46 29.03ZM115.30 20.74L115.30 20.74Q114.66 20.74 114.33 20.48Q114.01 20.23 114.01 19.83L114.01 19.83Q114.01 19.51 114.09 19.20Q114.18 18.89 114.45 18.41Q114.71 17.93 115.27 17.12Q115.82 16.30 116.75 14.98L116.75 14.98L119.78 10.72L118.85 10.72Q118.50 10.72 118.50 10.57L118.50 10.57Q118.50 10.38 118.95 10.38L118.95 10.38L120.01 10.38L122.18 7.34Q122.33 7.36 122.58 7.38Q122.84 7.39 123.30 7.38L123.30 7.38Q123.54 7.38 123.81 7.34L123.81 7.34L121.55 10.38L124.57 10.38Q124.90 10.38 124.90 10.55L124.90 10.55Q124.90 10.72 124.61 10.72L124.61 10.72L121.29 10.72L118.20 14.89Q117.09 16.37 116.43 17.32Q115.76 18.27 115.41 18.82Q115.07 19.37 114.94 19.64Q114.82 19.91 114.82 20.04L114.82 20.04Q114.82 20.39 115.41 20.41L115.41 20.41Q116.21 20.40 117.08 19.88Q117.94 19.36 118.73 18.60Q119.53 17.85 120.16 17.12Q120.80 16.38 121.15 15.96L121.15 15.96L121.41 16.16Q121.07 16.56 120.41 17.31Q119.75 18.06 118.90 18.85Q118.05 19.64 117.13 20.19Q116.20 20.74 115.30 20.74Z"/></svg>