<svg xmlns="http://www.w3.org/2000/svg" xmlns:xlink="http://www.w3.org/1999/xlink" width="418.77600000000007" height="39.816"><path fill="black" d="M9.60 22.42L9.60 22.42Q9.29 22.44 9.16 22.28Q9.02 22.13 9.02 21.84L9.02 21.84Q9.02 21.58 9.14 21.43Q9.26 21.29 9.53 21.26L9.53 21.26Q10.99 21.22 12.23 20.88Q13.46 20.54 14.46 19.98Q15.46 19.42 16.18 18.65Q16.90 17.88 17.27 16.92Q17.64 15.96 17.64 14.90L17.64 14.90Q17.64 13.85 17.20 13.02Q16.75 12.19 15.92 11.62Q15.10 11.04 13.90 10.76Q12.70 10.49 11.21 10.49L11.21 10.49Q9.46 10.49 7.90 10.81Q6.34 11.14 5.09 11.81Q3.84 12.48 2.93 13.49L2.93 13.49Q2.74 13.68 2.54 13.72Q2.35 13.75 2.11 13.56L2.11 13.56Q1.87 13.37 1.84 13.18Q1.80 12.98 1.99 12.77L1.99 12.77Q2.69 11.90 3.67 11.27Q4.66 10.63 5.83 10.19Q7.01 9.74 8.39 9.50Q9.77 9.26 11.33 9.26L11.33 9.26Q13.15 9.26 14.58 9.64Q16.01 10.01 16.99 10.74Q17.98 11.47 18.49 12.52Q19.01 13.56 19.01 14.88L19.01 14.88Q19.01 16.15 18.58 17.27Q18.14 18.38 17.33 19.28Q16.51 20.18 15.35 20.86Q14.18 21.53 12.74 21.92Q11.30 22.32 9.60 22.42ZM4.63 31.13L4.63 31.13Q3.77 31.13 3.06 30.82Q2.35 30.50 1.81 29.96Q1.27 29.42 0.91 28.80L0.91 28.80Q0.77 28.58 0.82 28.38Q0.86 28.18 1.13 28.03L1.13 28.03Q1.34 27.86 1.55 27.90Q1.75 27.94 1.92 28.18L1.92 28.18Q2.30 28.75 2.70 29.12Q3.10 29.50 3.59 29.69Q4.08 29.88 4.66 29.88L4.66 29.88Q5.59 29.88 6.06 29.21Q6.53 28.54 6.53 27.19L6.53 27.19L6.53 13.15Q6.53 12.89 6.68 12.77Q6.84 12.65 7.20 12.65L7.20 12.65Q7.54 12.65 7.69 12.76Q7.85 12.86 7.85 13.10L7.85 13.10L7.85 27.43Q7.85 28.56 7.48 29.39Q7.10 30.22 6.40 30.67Q5.69 31.13 4.63 31.13ZM18.36 31.13L18.36 31.13Q18.07 31.13 17.93 30.95Q17.78 30.77 17.78 30.55Q17.78 30.34 17.93 30.16Q18.07 29.98 18.36 29.98L18.36 29.98Q19.06 29.98 19.78 29.59Q20.50 29.21 21.19 28.50Q21.89 27.79 22.55 26.86Q23.21 25.92 23.81 24.80Q24.41 23.69 24.95 22.45Q25.49 21.22 25.91 19.94Q26.33 18.67 26.64 17.42Q26.95 16.18 27.12 15.01Q27.29 13.85 27.29 12.86L27.29 12.86Q27.29 12.60 27.48 12.47Q27.67 12.34 27.94 12.34Q28.20 12.34 28.39 12.47Q28.58 12.60 28.58 12.86L28.58 12.86Q28.58 13.87 28.39 15.10Q28.20 16.32 27.86 17.64Q27.53 18.96 27.04 20.32Q26.54 21.67 25.96 22.99Q25.37 24.31 24.66 25.52Q23.95 26.74 23.20 27.76Q22.44 28.78 21.64 29.53Q20.83 30.29 20.00 30.71Q19.18 31.13 18.36 31.13ZM25.30 31.13L25.30 31.13Q24.84 31.13 24.46 30.97Q24.07 30.82 23.83 30.53Q23.59 30.24 23.47 29.81Q23.35 29.38 23.35 28.78L23.35 28.78L23.35 13.75Q23.35 11.45 24.02 10.31Q24.70 9.17 26.06 9.17L26.06 9.17Q26.95 9.17 27.52 9.61Q28.08 10.06 28.33 10.86Q28.58 11.66 28.58 12.86L28.58 12.86Q28.58 13.15 28.39 13.31Q28.20 13.46 27.94 13.46Q27.67 13.46 27.48 13.31Q27.29 13.15 27.29 12.86L27.29 12.86Q27.29 12.02 27.17 11.48Q27.05 10.94 26.77 10.66Q26.50 10.37 26.04 10.37L26.04 10.37Q25.56 10.37 25.24 10.69Q24.91 11.02 24.76 11.76Q24.60 12.50 24.60 13.78L24.60 13.78L24.60 28.46Q24.60 28.94 24.70 29.28Q24.79 29.62 25.01 29.78Q25.22 29.95 25.51 29.95L25.51 29.95Q25.78 29.95 26.03 29.86Q26.28 29.76 26.52 29.53Q26.76 29.30 27 28.97L27 28.97Q27.14 28.82 27.30 28.82Q27.46 28.82 27.62 28.97L27.62 28.97Q27.82 29.09 27.84 29.24Q27.86 29.40 27.77 29.57L27.77 29.57Q27.50 30.05 27.10 30.40Q26.69 30.74 26.23 30.94Q25.78 31.13 25.30 31.13ZM35.57 31.13L35.57 31.13Q34.27 31.13 33.26 30.42Q32.26 29.71 31.69 28.38Q31.13 27.05 31.13 25.10L31.13 25.10Q31.13 23.88 31.34 22.84Q31.56 21.79 32.02 20.94Q32.47 20.09 33.14 19.50Q33.82 18.91 34.69 18.59Q35.57 18.26 36.65 18.26L36.65 18.26Q37.46 18.26 38.24 18.50Q39.02 18.74 39.82 19.20L39.82 19.20L39.82 18.82Q39.82 18.58 39.98 18.47Q40.15 18.36 40.46 18.36L40.46 18.36Q40.80 18.36 40.94 18.47Q41.09 18.58 41.09 18.82L41.09 18.82L41.09 28.51Q41.09 28.99 41.20 29.33Q41.30 29.66 41.52 29.83Q41.74 30 42.05 30L42.05 30Q42.31 30 42.55 29.89Q42.79 29.78 43.02 29.54Q43.25 29.30 43.51 28.94L43.51 28.94Q43.61 28.80 43.78 28.81Q43.94 28.82 44.09 28.94L44.09 28.94Q44.28 29.09 44.32 29.26Q44.35 29.42 44.28 29.57L44.28 29.57Q43.99 30.05 43.61 30.40Q43.22 30.74 42.77 30.94Q42.31 31.13 41.83 31.13L41.83 31.13Q41.38 31.13 41.02 31.00Q40.66 30.86 40.38 30.59Q40.10 30.31 39.98 29.90Q39.86 29.50 39.82 28.97L39.82 28.97Q39.82 28.68 39.82 28.38Q39.82 28.08 39.82 27.77L39.82 27.77Q39.29 29.06 38.57 29.80Q37.85 30.53 37.08 30.83Q36.31 31.13 35.57 31.13ZM32.47 25.03L32.47 25.03Q32.47 26.42 32.83 27.54Q33.19 28.66 33.92 29.29Q34.66 29.93 35.76 29.93L35.76 29.93Q36.60 29.93 37.38 29.46Q38.16 28.99 38.81 27.92Q39.46 26.86 39.82 25.10L39.82 25.10L39.82 20.40Q38.98 19.85 38.21 19.64Q37.44 19.44 36.67 19.44L36.67 19.44Q35.88 19.44 35.23 19.67Q34.58 19.90 34.07 20.36Q33.55 20.83 33.19 21.50Q32.83 22.18 32.65 23.05Q32.47 23.93 32.47 25.03ZM56.66 31.90L56.66 30.60Q57.02 30.38 57.41 30.16Q57.79 29.93 58.19 29.72Q58.58 29.52 58.97 29.34Q59.35 29.16 59.69 29.02L59.69 29.02Q59.93 28.90 60.11 28.99Q60.29 29.09 60.36 29.29Q60.43 29.50 60.37 29.71Q60.31 29.93 60.07 30.02L60.07 30.02Q59.64 30.24 59.22 30.46Q58.80 30.67 58.37 30.91Q57.94 31.15 57.50 31.39Q57.07 31.63 56.66 31.90L56.66 31.90ZM52.73 40.27L52.73 40.27Q51.34 40.27 50.50 39.50Q49.66 38.74 49.66 37.39L49.66 37.39Q49.66 36.67 49.90 36.07Q50.14 35.47 50.58 34.92Q51.02 34.37 51.68 33.83Q52.34 33.29 53.21 32.71L53.21 32.71Q53.66 32.42 54.10 32.15Q54.53 31.87 54.96 31.60Q55.39 31.32 55.80 31.08L55.80 31.08L55.80 27.50Q55.44 28.54 54.89 29.24Q54.34 29.95 53.71 30.37Q53.09 30.79 52.45 30.97Q51.82 31.15 51.19 31.15L51.19 31.15Q50.16 31.15 49.32 30.72Q48.48 30.29 48.01 29.33Q47.54 28.37 47.54 26.86L47.54 26.86L47.54 21.55Q47.54 20.45 47.20 19.97Q46.85 19.49 46.18 19.49L46.18 19.49Q45.72 19.49 45.36 19.74Q45.00 19.99 44.76 20.58Q44.52 21.17 44.35 22.15L44.35 22.15Q44.33 22.37 44.17 22.45Q44.02 22.54 43.73 22.51L43.73 22.51Q43.51 22.49 43.37 22.36Q43.22 22.22 43.27 21.96L43.27 21.96Q43.42 20.74 43.81 19.93Q44.21 19.13 44.83 18.73Q45.46 18.34 46.25 18.34L46.25 18.34Q46.87 18.34 47.35 18.53Q47.83 18.72 48.16 19.13Q48.48 19.54 48.65 20.15Q48.82 20.76 48.82 21.60L48.82 21.60L48.82 26.71Q48.82 27.74 49.09 28.48Q49.37 29.21 49.92 29.59Q50.47 29.98 51.36 29.98L51.36 29.98Q52.10 29.98 52.79 29.69Q53.47 29.40 54.07 28.78Q54.67 28.15 55.12 27.13Q55.56 26.11 55.80 24.72L55.80 24.72L55.80 18.82Q55.80 18.58 55.96 18.47Q56.11 18.36 56.45 18.36L56.45 18.36Q56.76 18.36 56.92 18.47Q57.07 18.58 57.07 18.82L57.07 18.82L57.07 34.32Q57.07 35.69 56.78 36.80Q56.50 37.92 55.94 38.69Q55.39 39.46 54.58 39.86Q53.76 40.27 52.73 40.27ZM52.87 39.10L52.87 39.10Q53.76 39.10 54.42 38.53Q55.08 37.97 55.44 36.92Q55.80 35.88 55.80 34.39L55.80 34.39L55.80 32.38Q55.46 32.59 55.09 32.82Q54.72 33.05 54.36 33.28Q54.00 33.50 53.66 33.72L53.66 33.72Q53.04 34.15 52.55 34.56Q52.06 34.97 51.72 35.40Q51.38 35.83 51.19 36.28Q51.00 36.72 51.00 37.25L51.00 37.25Q51.00 37.78 51.22 38.20Q51.43 38.62 51.84 38.86Q52.25 39.10 52.87 39.10ZM66.94 31.15L66.94 31.15Q66.10 31.15 65.47 30.86Q64.85 30.58 64.42 30Q63.98 29.42 63.76 28.56Q63.53 27.70 63.53 26.59L63.53 26.59L63.53 21.55Q63.53 20.45 63.18 19.97Q62.83 19.49 62.14 19.49L62.14 19.49Q61.68 19.49 61.32 19.74Q60.96 19.99 60.72 20.58Q60.48 21.17 60.31 22.15L60.31 22.15Q60.29 22.37 60.13 22.45Q59.98 22.54 59.69 22.51L59.69 22.51Q59.47 22.49 59.33 22.36Q59.18 22.22 59.23 21.96L59.23 21.96Q59.38 20.74 59.77 19.93Q60.17 19.13 60.79 18.73Q61.42 18.34 62.21 18.34L62.21 18.34Q62.83 18.34 63.32 18.53Q63.82 18.72 64.14 19.13Q64.46 19.54 64.63 20.15Q64.80 20.76 64.80 21.60L64.80 21.60L64.80 26.42Q64.80 27.53 65.03 28.33Q65.26 29.14 65.76 29.56Q66.26 29.98 67.15 29.98L67.15 29.98Q67.80 29.98 68.44 29.66Q69.07 29.35 69.61 28.70Q70.15 28.06 70.46 27.13Q70.78 26.21 70.80 25.06L70.80 25.06L70.80 18.82Q70.80 18.58 70.97 18.47Q71.14 18.36 71.45 18.36L71.45 18.36Q71.76 18.36 71.92 18.47Q72.07 18.58 72.07 18.82L72.07 18.82L72.07 25.90Q72.07 26.98 72.18 27.74Q72.29 28.51 72.58 29.00Q72.86 29.50 73.32 29.75Q73.78 30 74.47 30L74.47 30Q75.10 30 75.68 29.71Q76.27 29.42 76.76 28.92Q77.26 28.42 77.60 27.72Q77.95 27.02 78.17 26.18Q78.38 25.34 78.38 24.38L78.38 24.38Q78.38 23.42 78.25 22.58Q78.12 21.74 77.80 20.92Q77.47 20.09 76.82 19.10L76.82 19.10Q76.66 18.84 76.70 18.66Q76.75 18.48 76.94 18.37Q77.14 18.26 77.33 18.26L77.33 18.26Q77.57 18.26 77.71 18.38Q77.86 18.50 78.07 18.79L78.07 18.79Q78.43 19.34 78.80 20.16Q79.18 20.98 79.43 22.00Q79.68 23.02 79.68 24.19L79.68 24.19Q79.68 25.22 79.45 26.23Q79.22 27.24 78.79 28.13Q78.36 29.02 77.70 29.70Q77.04 30.38 76.20 30.78Q75.36 31.18 74.28 31.18L74.28 31.18Q73.46 31.18 72.80 30.84Q72.14 30.50 71.69 29.82Q71.23 29.14 71.04 28.08L71.04 28.08Q70.66 29.06 70.03 29.74Q69.41 30.41 68.63 30.78Q67.85 31.15 66.94 31.15ZM85.42 31.08L85.42 31.08Q85.10 31.08 84.96 30.97Q84.82 30.86 84.82 30.62L84.82 30.62L84.82 21.55Q84.82 20.45 84.47 19.97Q84.12 19.49 83.45 19.49L83.45 19.49Q82.99 19.49 82.63 19.74Q82.27 19.99 82.03 20.58Q81.79 21.17 81.62 22.15L81.62 22.15Q81.60 22.37 81.44 22.45Q81.29 22.54 81.00 22.51L81.00 22.51Q80.78 22.49 80.64 22.36Q80.50 22.22 80.54 21.96L80.54 21.96Q80.69 20.74 81.08 19.93Q81.48 19.13 82.10 18.73Q82.73 18.34 83.52 18.34L83.52 18.34Q84.05 18.34 84.48 18.48Q84.91 18.62 85.24 18.94Q85.56 19.25 85.76 19.72Q85.97 20.18 86.02 20.86L86.02 20.86L86.02 21.86Q86.35 20.83 86.74 20.14Q87.12 19.44 87.55 19.04Q87.98 18.65 88.42 18.46Q88.85 18.26 89.23 18.26L89.23 18.26Q89.57 18.26 89.76 18.38Q89.95 18.50 89.95 18.86L89.95 18.86Q89.98 19.75 90.16 20.26Q90.34 20.76 90.59 20.96Q90.84 21.17 91.18 21.17L91.18 21.17Q91.94 21.17 92.70 20.70Q93.46 20.23 94.32 19.46L94.32 19.46Q94.46 19.34 94.63 19.40Q94.80 19.46 94.93 19.61Q95.06 19.75 95.10 19.93Q95.14 20.11 95.02 20.23L95.02 20.23Q94.13 21.14 93.12 21.68Q92.11 22.22 91.13 22.22L91.13 22.22Q90.58 22.22 90.11 21.96Q89.64 21.70 89.33 21.10Q89.02 20.50 88.92 19.51L88.92 19.51Q88.51 19.58 88.09 19.92Q87.67 20.26 87.30 20.93Q86.93 21.60 86.62 22.57Q86.30 23.54 86.06 24.91L86.06 24.91L86.06 30.62Q86.06 30.86 85.91 30.97Q85.75 31.08 85.42 31.08ZM99.41 31.13L99.41 31.13Q98.45 31.13 97.94 30.54Q97.44 29.95 97.44 28.78L97.44 28.78L97.44 18.82Q97.44 18.58 97.58 18.47Q97.73 18.36 98.04 18.36L98.04 18.36Q98.38 18.36 98.53 18.47Q98.69 18.58 98.69 18.82L98.69 18.82L98.69 28.46Q98.69 29.18 98.90 29.57Q99.12 29.95 99.65 29.95L99.65 29.95Q99.91 29.95 100.15 29.86Q100.39 29.76 100.63 29.53Q100.87 29.30 101.14 28.97L101.14 28.97Q101.21 28.80 101.39 28.81Q101.57 28.82 101.71 28.97L101.71 28.97Q101.88 29.09 101.93 29.26Q101.98 29.42 101.88 29.57L101.88 29.57Q101.62 30.05 101.22 30.40Q100.82 30.74 100.37 30.94Q99.91 31.13 99.41 31.13ZM98.04 14.33L98.04 14.33Q97.51 14.33 97.26 14.04Q97.01 13.75 97.01 13.15L97.01 13.15Q97.01 12.55 97.26 12.25Q97.51 11.95 98.04 11.95L98.04 11.95Q98.59 11.95 98.84 12.25Q99.10 12.55 99.10 13.15L99.10 13.15Q99.12 13.75 98.86 14.04Q98.59 14.33 98.04 14.33ZM107.78 31.13L107.78 31.13Q106.97 31.13 106.44 30.79Q105.91 30.46 105.64 29.80Q105.36 29.14 105.36 28.18L105.36 28.18L105.36 19.87L103.27 19.87Q103.01 19.87 102.90 19.73Q102.79 19.58 102.79 19.30L102.79 19.30Q102.79 18.98 102.90 18.85Q103.01 18.72 103.27 18.72L103.27 18.72L105.36 18.72L105.36 13.66Q105.36 13.42 105.52 13.31Q105.67 13.20 105.98 13.20L105.98 13.20Q106.32 13.20 106.48 13.31Q106.63 13.42 106.63 13.66L106.63 13.66L106.63 18.72L109.99 18.72Q110.26 18.72 110.36 18.85Q110.47 18.98 110.47 19.30L110.47 19.30Q110.47 19.58 110.36 19.73Q110.26 19.87 109.99 19.87L109.99 19.87L106.63 19.87L106.63 27.91Q106.63 28.90 106.91 29.42Q107.18 29.95 107.95 29.95L107.95 29.95Q108.55 29.95 109.01 29.58Q109.46 29.21 109.87 28.58L109.87 28.58Q110.02 28.37 110.20 28.39Q110.38 28.42 110.54 28.54L110.54 28.54Q110.76 28.68 110.81 28.86Q110.86 29.04 110.76 29.21L110.76 29.21Q110.45 29.81 109.98 30.24Q109.51 30.67 108.96 30.90Q108.41 31.13 107.78 31.13ZM118.32 31.15L118.32 31.15Q116.59 31.15 115.43 30.36Q114.26 29.57 113.69 28.24Q113.11 26.90 113.11 25.25L113.11 25.25Q113.11 23.69 113.52 22.40Q113.93 21.12 114.68 20.18Q115.44 19.25 116.51 18.76Q117.58 18.26 118.90 18.26L118.90 18.26Q120.17 18.26 120.98 18.67Q121.80 19.08 122.21 19.75Q122.62 20.42 122.62 21.26L122.62 21.26Q122.62 22.18 122.18 22.91Q121.75 23.64 120.97 24.20Q120.19 24.77 119.15 25.16Q118.10 25.56 116.87 25.78Q115.63 25.99 114.29 26.06L114.29 26.06L114.29 24.96Q115.27 24.94 116.28 24.77Q117.29 24.60 118.19 24.30Q119.09 24 119.77 23.58Q120.46 23.16 120.84 22.60Q121.22 22.03 121.22 21.31L121.22 21.31Q121.22 20.38 120.59 19.91Q119.95 19.44 118.78 19.44L118.78 19.44Q117.94 19.44 117.16 19.78Q116.38 20.11 115.78 20.81Q115.18 21.50 114.80 22.54Q114.43 23.57 114.43 25.01L114.43 25.01Q114.43 26.71 114.97 27.82Q115.51 28.92 116.40 29.45Q117.29 29.98 118.39 29.98L118.39 29.98Q119.33 29.98 119.98 29.66Q120.62 29.35 121.09 28.88Q121.56 28.42 121.97 27.94L121.97 27.94Q122.16 27.74 122.34 27.77Q122.52 27.79 122.71 27.94L122.71 27.94Q122.90 28.08 122.98 28.27Q123.05 28.46 122.93 28.66L122.93 28.66Q122.50 29.28 121.82 29.86Q121.15 30.43 120.26 30.79Q119.38 31.15 118.32 31.15ZM136.73 31.13L136.73 31.13Q135.86 31.13 135.25 30.67Q134.64 30.22 134.27 29.45Q133.90 28.68 133.90 27.74L133.90 27.74Q133.90 26.86 134.16 26.05Q134.42 25.25 134.96 24.54Q135.50 23.83 136.32 23.22Q137.14 22.61 138.26 22.10L138.26 22.10L138.26 12.46Q138.26 11.50 137.92 10.99Q137.57 10.49 136.82 10.49L136.82 10.49Q136.25 10.49 135.71 10.75Q135.17 11.02 134.68 11.54Q134.18 12.07 133.68 12.86L133.68 12.86Q133.56 13.10 133.36 13.15Q133.15 13.20 132.91 13.03L132.91 13.03Q132.62 12.89 132.59 12.70Q132.55 12.50 132.72 12.24L132.72 12.24Q133.30 11.33 133.91 10.67Q134.52 10.01 135.26 9.65Q136.01 9.29 136.90 9.29L136.90 9.29Q138.29 9.29 138.92 10.10Q139.56 10.92 139.56 12.46L139.56 12.46L139.56 21.55Q141 20.90 142.44 20.26Q143.88 19.61 145.30 18.92Q146.71 18.24 148.10 17.54L148.10 17.54L148.10 13.56Q148.10 12.14 148.43 11.20Q148.75 10.25 149.38 9.77Q150 9.29 150.98 9.29L150.98 9.29Q151.85 9.29 152.46 9.71Q153.07 10.13 153.42 10.87Q153.77 11.62 153.77 12.55L153.77 12.55Q153.77 13.44 153.52 14.23Q153.26 15.02 152.74 15.72Q152.21 16.42 151.38 17.05Q150.55 17.69 149.42 18.22L149.42 18.22L149.42 27.19Q149.42 28.10 149.64 28.70Q149.86 29.30 150.30 29.59Q150.74 29.88 151.42 29.88L151.42 29.88Q151.92 29.88 152.38 29.69Q152.83 29.50 153.25 29.11Q153.67 28.73 153.98 28.20L153.98 28.20Q154.13 27.98 154.33 27.94Q154.54 27.89 154.80 28.06L154.80 28.06Q155.04 28.18 155.08 28.36Q155.11 28.54 154.97 28.80L154.97 28.80Q154.63 29.45 154.07 29.98Q153.50 30.50 152.82 30.82Q152.14 31.13 151.34 31.13L151.34 31.13Q150.53 31.13 149.92 30.86Q149.30 30.60 148.92 30.11Q148.54 29.62 148.32 28.92Q148.10 28.22 148.10 27.34L148.10 27.34L148.10 18.94Q147.17 19.42 146.10 19.92Q145.03 20.42 143.90 20.95Q142.78 21.48 141.67 21.98Q140.57 22.49 139.56 22.94L139.56 22.94L139.56 26.93Q139.56 28.30 139.24 29.23Q138.91 30.17 138.30 30.65Q137.69 31.13 136.73 31.13ZM136.75 29.93L136.75 29.93Q137.52 29.93 137.89 29.20Q138.26 28.46 138.26 26.76L138.26 26.76L138.26 23.42Q137.50 23.76 136.94 24.20Q136.39 24.65 136.01 25.16Q135.62 25.68 135.43 26.33Q135.24 26.98 135.24 27.67L135.24 27.67Q135.24 28.66 135.67 29.29Q136.10 29.93 136.75 29.93ZM149.42 13.68L149.42 16.90Q150.19 16.51 150.76 16.06Q151.32 15.60 151.70 15.08Q152.09 14.57 152.26 13.94Q152.42 13.32 152.42 12.62L152.42 12.62Q152.42 11.69 152.03 11.09Q151.63 10.49 150.98 10.49L150.98 10.49Q150.17 10.49 149.80 11.22Q149.42 11.95 149.42 13.68L149.42 13.68ZM175.37 31.18L175.37 31.18Q174.79 31.18 174.29 30.98Q173.78 30.79 173.29 30.41Q172.80 30.02 172.28 29.44Q171.77 28.85 171.19 28.01Q170.62 27.17 169.90 26.09L169.90 26.09Q169.61 25.63 169.34 25.22Q169.08 24.82 168.86 24.44Q168.65 24.07 168.43 23.72Q168.22 23.38 168.01 23.02Q167.81 22.66 167.60 22.27Q167.40 21.89 167.16 21.50L167.16 21.50Q166.39 21.53 165.82 21.22Q165.24 20.90 165.24 20.40L165.24 20.40Q165.24 20.02 165.50 19.75Q165.77 19.49 166.27 19.49L166.27 19.49Q166.70 19.49 167.11 19.68Q167.52 19.87 167.81 20.18L167.81 20.18Q169.03 19.97 170.04 19.46Q171.05 18.96 171.78 18.23Q172.51 17.50 172.92 16.57Q173.33 15.65 173.33 14.62L173.33 14.62Q173.33 13.61 172.91 12.83Q172.49 12.05 171.71 11.52Q170.93 10.99 169.79 10.74Q168.65 10.49 167.26 10.49L167.26 10.49Q165.46 10.49 163.92 10.81Q162.38 11.14 161.17 11.81Q159.96 12.48 159.05 13.49L159.05 13.49Q158.88 13.68 158.68 13.72Q158.47 13.75 158.23 13.56L158.23 13.56Q157.99 13.37 157.97 13.18Q157.94 12.98 158.11 12.77L158.11 12.77Q158.83 11.90 159.78 11.27Q160.73 10.63 161.89 10.19Q163.06 9.74 164.41 9.50Q165.77 9.26 167.33 9.26L167.33 9.26Q169.06 9.26 170.41 9.61Q171.77 9.96 172.73 10.64Q173.69 11.33 174.20 12.31Q174.72 13.30 174.72 14.54L174.72 14.54Q174.72 15.53 174.43 16.40Q174.14 17.28 173.59 18.05Q173.04 18.82 172.28 19.42Q171.53 20.02 170.54 20.46Q169.56 20.90 168.41 21.17L168.41 21.17Q168.60 21.50 168.77 21.80Q168.94 22.10 169.10 22.40Q169.27 22.70 169.46 23.02Q169.66 23.33 169.86 23.66Q170.06 24 170.30 24.38Q170.54 24.77 170.83 25.20L170.83 25.20Q171.60 26.35 172.16 27.19Q172.73 28.03 173.18 28.56Q173.64 29.09 174 29.39Q174.36 29.69 174.70 29.82Q175.03 29.95 175.39 29.95L175.39 29.95Q176.06 29.95 176.58 29.60Q177.10 29.26 177.60 28.49L177.60 28.49Q177.77 28.30 177.95 28.25Q178.13 28.20 178.39 28.37L178.39 28.37Q178.63 28.51 178.67 28.70Q178.70 28.90 178.56 29.09L178.56 29.09Q178.18 29.74 177.66 30.22Q177.14 30.70 176.57 30.94Q175.99 31.18 175.37 31.18ZM160.75 31.13L160.75 31.13Q159.91 31.13 159.19 30.82Q158.47 30.50 157.94 29.96Q157.42 29.42 157.06 28.80L157.06 28.80Q156.89 28.58 156.94 28.38Q156.98 28.18 157.25 28.03L157.25 28.03Q157.49 27.86 157.68 27.90Q157.87 27.94 158.06 28.18L158.06 28.18Q158.42 28.75 158.83 29.12Q159.24 29.50 159.73 29.69Q160.22 29.88 160.78 29.88L160.78 29.88Q161.74 29.88 162.19 29.21Q162.65 28.54 162.65 27.19L162.65 27.19L162.65 13.15Q162.65 12.89 162.82 12.77Q162.98 12.65 163.32 12.65L163.32 12.65Q163.66 12.65 163.81 12.76Q163.97 12.86 163.97 13.10L163.97 13.10L163.97 27.43Q163.97 28.56 163.60 29.39Q163.22 30.22 162.52 30.67Q161.81 31.13 160.75 31.13ZM189.05 31.22L189.05 31.22Q188.30 31.22 187.73 30.98Q187.15 30.74 186.82 30.29Q186.48 29.83 186.48 29.18L186.48 29.18Q186.48 28.49 186.79 27.97Q187.10 27.46 187.68 27.16Q188.26 26.86 189 26.86L189 26.86Q189.72 26.86 190.37 27.07Q191.02 27.29 191.64 27.62Q192.26 27.96 192.92 28.33Q193.58 28.70 194.32 29.03Q195.05 29.35 195.89 29.57Q196.73 29.78 197.74 29.76L197.74 29.76Q198.94 29.76 199.88 29.34Q200.83 28.92 201.52 28.15Q202.20 27.38 202.56 26.33L202.56 26.33Q202.63 26.06 202.81 25.99Q202.99 25.92 203.28 26.02L203.28 26.02Q203.54 26.06 203.63 26.23Q203.71 26.40 203.64 26.69L203.64 26.69Q203.30 27.96 202.45 28.92Q201.60 29.88 200.40 30.43Q199.20 30.98 197.81 30.98L197.81 30.98Q196.39 30.98 195.29 30.70Q194.18 30.41 193.32 29.96Q192.46 29.52 191.74 29.09Q191.02 28.66 190.36 28.36Q189.70 28.06 189.02 28.06L189.02 28.06Q188.42 28.06 188.10 28.33Q187.78 28.61 187.78 29.06L187.78 29.06Q187.78 29.52 188.15 29.80Q188.52 30.07 189.07 30.07L189.07 30.07Q190.06 30.07 190.64 29.10Q191.23 28.13 191.23 26.57L191.23 26.57L191.23 15.12Q191.23 13.63 191.57 12.52Q191.90 11.40 192.58 10.68Q193.25 9.96 194.18 9.61Q195.12 9.26 196.25 9.26L196.25 9.26Q197.42 9.26 198.36 9.66Q199.30 10.06 199.99 10.86Q200.69 11.66 201.07 12.89L201.07 12.89Q201.19 13.18 201.11 13.36Q201.02 13.54 200.76 13.66L200.76 13.66Q200.42 13.73 200.24 13.64Q200.06 13.56 199.97 13.30L199.97 13.30Q199.58 12.36 199.06 11.72Q198.53 11.09 197.82 10.79Q197.11 10.49 196.20 10.49L196.20 10.49Q195.34 10.49 194.65 10.75Q193.97 11.02 193.49 11.59Q193.01 12.17 192.76 13.08Q192.50 13.99 192.50 15.29L192.50 15.29L192.50 26.57Q192.50 27.98 192.08 29.04Q191.66 30.10 190.91 30.66Q190.15 31.22 189.05 31.22ZM209.04 31.13L209.04 31.13Q208.08 31.13 207.58 30.54Q207.07 29.95 207.07 28.78L207.07 28.78L207.07 18.82Q207.07 18.58 207.22 18.47Q207.36 18.36 207.67 18.36L207.67 18.36Q208.01 18.36 208.16 18.47Q208.32 18.58 208.32 18.82L208.32 18.82L208.32 28.46Q208.32 29.18 208.54 29.57Q208.75 29.95 209.28 29.95L209.28 29.95Q209.54 29.95 209.78 29.86Q210.02 29.76 210.26 29.53Q210.50 29.30 210.77 28.97L210.77 28.97Q210.84 28.80 211.02 28.81Q211.20 28.82 211.34 28.97L211.34 28.97Q211.51 29.09 211.56 29.26Q211.61 29.42 211.51 29.57L211.51 29.57Q211.25 30.05 210.85 30.40Q210.46 30.74 210 30.94Q209.54 31.13 209.04 31.13ZM207.67 14.33L207.67 14.33Q207.14 14.33 206.89 14.04Q206.64 13.75 206.64 13.15L206.64 13.15Q206.64 12.55 206.89 12.25Q207.14 11.95 207.67 11.95L207.67 11.95Q208.22 11.95 208.48 12.25Q208.73 12.55 208.73 13.15L208.73 13.15Q208.75 13.75 208.49 14.04Q208.22 14.33 207.67 14.33ZM215.71 31.85L215.69 30.58Q216.07 30.34 216.47 30.12Q216.86 29.90 217.25 29.70Q217.63 29.50 218.00 29.30Q218.38 29.11 218.76 28.97L218.76 28.97Q219.00 28.85 219.16 28.94Q219.31 29.04 219.40 29.24Q219.48 29.45 219.42 29.65Q219.36 29.86 219.10 30L219.10 30Q218.71 30.19 218.29 30.40Q217.87 30.60 217.44 30.85Q217.01 31.10 216.58 31.34Q216.14 31.58 215.71 31.85L215.71 31.85ZM212.47 40.27L212.47 40.27Q211.73 40.27 211.15 39.92Q210.58 39.58 210.26 38.96Q209.95 38.35 209.95 37.54L209.95 37.54Q209.95 36.77 210.19 36.04Q210.43 35.30 210.91 34.60Q211.39 33.89 212.05 33.23Q212.71 32.57 213.55 32.02L213.55 32.02Q213.89 31.75 214.20 31.54Q214.51 31.32 214.85 31.08L214.85 31.08L214.85 18.82Q214.85 18.58 215.00 18.47Q215.16 18.36 215.47 18.36L215.47 18.36Q215.81 18.36 215.95 18.47Q216.10 18.58 216.10 18.82L216.10 18.82L216.10 34.51Q216.10 35.83 215.88 36.90Q215.66 37.97 215.23 38.72Q214.80 39.48 214.10 39.88Q213.41 40.27 212.47 40.27ZM212.64 39.10L212.64 39.10Q213.17 39.10 213.58 38.78Q213.98 38.47 214.27 37.91Q214.56 37.34 214.70 36.53Q214.85 35.71 214.85 34.70L214.85 34.70L214.85 32.38Q214.61 32.54 214.36 32.74Q214.10 32.93 213.86 33.12L213.86 33.12Q213.19 33.62 212.71 34.13Q212.23 34.63 211.90 35.16Q211.56 35.69 211.39 36.28Q211.22 36.86 211.22 37.46L211.22 37.46Q211.22 37.94 211.39 38.30Q211.56 38.66 211.88 38.88Q212.21 39.10 212.64 39.10ZM215.42 14.33L215.42 14.33Q214.90 14.33 214.64 14.04Q214.39 13.75 214.39 13.15L214.39 13.15Q214.39 12.55 214.64 12.25Q214.90 11.95 215.42 11.95L215.42 11.95Q215.95 11.95 216.22 12.25Q216.48 12.55 216.48 13.15L216.48 13.15Q216.48 13.75 216.22 14.04Q215.95 14.33 215.42 14.33ZM226.20 31.15L226.20 31.15Q224.47 31.15 223.31 30.36Q222.14 29.57 221.57 28.24Q220.99 26.90 220.99 25.25L220.99 25.25Q220.99 23.69 221.40 22.40Q221.81 21.12 222.56 20.18Q223.32 19.25 224.39 18.76Q225.46 18.26 226.78 18.26L226.78 18.26Q228.05 18.26 228.86 18.67Q229.68 19.08 230.09 19.75Q230.50 20.42 230.50 21.26L230.50 21.26Q230.50 22.18 230.06 22.91Q229.63 23.64 228.85 24.20Q228.07 24.77 227.03 25.16Q225.98 25.56 224.75 25.78Q223.51 25.99 222.17 26.06L222.17 26.06L222.17 24.96Q223.15 24.94 224.16 24.77Q225.17 24.60 226.07 24.30Q226.97 24 227.65 23.58Q228.34 23.16 228.72 22.60Q229.10 22.03 229.10 21.31L229.10 21.31Q229.10 20.38 228.47 19.91Q227.83 19.44 226.66 19.44L226.66 19.44Q225.82 19.44 225.04 19.78Q224.26 20.11 223.66 20.81Q223.06 21.50 222.68 22.54Q222.31 23.57 222.31 25.01L222.31 25.01Q222.31 26.71 222.85 27.82Q223.39 28.92 224.28 29.45Q225.17 29.98 226.27 29.98L226.27 29.98Q227.21 29.98 227.86 29.66Q228.50 29.35 228.97 28.88Q229.44 28.42 229.85 27.94L229.85 27.94Q230.04 27.74 230.22 27.77Q230.40 27.79 230.59 27.94L230.59 27.94Q230.78 28.08 230.86 28.27Q230.93 28.46 230.81 28.66L230.81 28.66Q230.38 29.28 229.70 29.86Q229.03 30.43 228.14 30.79Q227.26 31.15 226.20 31.15ZM239.06 31.18L239.06 31.18Q238.22 31.18 237.49 30.86Q236.76 30.55 236.22 29.93Q235.68 29.30 235.39 28.34Q235.10 27.38 235.10 26.14L235.10 26.14L235.10 21.55Q235.10 20.42 234.76 19.96Q234.41 19.49 233.71 19.49L233.71 19.49Q233.26 19.49 232.90 19.74Q232.54 19.99 232.30 20.58Q232.06 21.17 231.89 22.15L231.89 22.15Q231.86 22.37 231.71 22.45Q231.55 22.54 231.26 22.51L231.26 22.51Q231.05 22.49 230.90 22.36Q230.76 22.22 230.81 21.96L230.81 21.96Q230.95 20.74 231.35 19.93Q231.74 19.13 232.37 18.73Q232.99 18.34 233.78 18.34L233.78 18.34Q234.41 18.34 234.90 18.53Q235.39 18.72 235.72 19.13Q236.04 19.54 236.21 20.15Q236.38 20.76 236.38 21.60L236.38 21.60L236.38 25.94Q236.38 26.98 236.54 27.73Q236.71 28.49 237.08 28.98Q237.46 29.47 238.00 29.74Q238.54 30 239.23 30L239.23 30Q239.88 30 240.46 29.71Q241.03 29.42 241.54 28.91Q242.04 28.39 242.40 27.70Q242.76 27 242.96 26.16Q243.17 25.32 243.17 24.38L243.17 24.38Q243.17 23.42 243.02 22.58Q242.88 21.74 242.54 20.92Q242.21 20.09 241.58 19.10L241.58 19.10Q241.46 18.84 241.51 18.66Q241.56 18.48 241.73 18.37Q241.90 18.26 242.11 18.26L242.11 18.26Q242.35 18.26 242.50 18.38Q242.64 18.50 242.81 18.79L242.81 18.79Q243.22 19.34 243.58 20.16Q243.94 20.98 244.19 22.00Q244.44 23.02 244.44 24.19L244.44 24.19Q244.44 25.22 244.22 26.23Q244.01 27.24 243.58 28.13Q243.14 29.02 242.50 29.70Q241.85 30.38 241.00 30.78Q240.14 31.18 239.06 31.18ZM252.53 31.13L252.53 31.13Q251.23 31.13 250.22 30.42Q249.22 29.71 248.65 28.38Q248.09 27.05 248.09 25.10L248.09 25.10Q248.09 23.88 248.30 22.84Q248.52 21.79 248.98 20.94Q249.43 20.09 250.10 19.50Q250.78 18.91 251.65 18.59Q252.53 18.26 253.61 18.26L253.61 18.26Q254.42 18.26 255.20 18.50Q255.98 18.74 256.78 19.20L256.78 19.20L256.78 18.82Q256.78 18.58 256.94 18.47Q257.11 18.36 257.42 18.36L257.42 18.36Q257.76 18.36 257.90 18.47Q258.05 18.58 258.05 18.82L258.05 18.82L258.05 28.51Q258.05 28.99 258.16 29.33Q258.26 29.66 258.48 29.83Q258.70 30 259.01 30L259.01 30Q259.27 30 259.51 29.89Q259.75 29.78 259.98 29.54Q260.21 29.30 260.47 28.94L260.47 28.94Q260.57 28.80 260.74 28.81Q260.90 28.82 261.05 28.94L261.05 28.94Q261.24 29.09 261.28 29.26Q261.31 29.42 261.24 29.57L261.24 29.57Q260.95 30.05 260.57 30.40Q260.18 30.74 259.73 30.94Q259.27 31.13 258.79 31.13L258.79 31.13Q258.34 31.13 257.98 31.00Q257.62 30.86 257.34 30.59Q257.06 30.31 256.94 29.90Q256.82 29.50 256.78 28.97L256.78 28.97Q256.78 28.68 256.78 28.38Q256.78 28.08 256.78 27.77L256.78 27.77Q256.25 29.06 255.53 29.80Q254.81 30.53 254.04 30.83Q253.27 31.13 252.53 31.13ZM249.43 25.03L249.43 25.03Q249.43 26.42 249.79 27.54Q250.15 28.66 250.88 29.29Q251.62 29.93 252.72 29.93L252.72 29.93Q253.56 29.93 254.34 29.46Q255.12 28.99 255.77 27.92Q256.42 26.86 256.78 25.10L256.78 25.10L256.78 20.40Q255.94 19.85 255.17 19.64Q254.40 19.44 253.63 19.44L253.63 19.44Q252.84 19.44 252.19 19.67Q251.54 19.90 251.03 20.36Q250.51 20.83 250.15 21.50Q249.79 22.18 249.61 23.05Q249.43 23.93 249.43 25.03ZM282.29 30.72L270.31 30.72Q270.10 30.72 269.94 30.56Q269.78 30.41 269.77 30.19Q269.76 29.98 269.93 29.81L269.93 29.81L273.98 25.66Q275.09 24.50 276.04 23.46Q276.98 22.42 277.76 21.46Q278.54 20.50 279.16 19.60Q279.77 18.70 280.18 17.87Q280.58 17.04 280.80 16.24Q281.02 15.43 281.02 14.71L281.02 14.71Q281.02 13.22 280.44 12.31Q279.86 11.40 278.78 10.96Q277.70 10.51 276.26 10.51L276.26 10.51Q274.70 10.51 273.53 11.05Q272.35 11.59 271.32 12.53L271.32 12.53Q271.08 12.72 270.88 12.76Q270.67 12.79 270.43 12.58L270.43 12.58Q270.14 12.31 270.19 12.10Q270.24 11.88 270.38 11.74L270.38 11.74Q270.91 11.09 271.82 10.52Q272.74 9.96 273.90 9.61Q275.06 9.26 276.36 9.26L276.36 9.26Q277.63 9.26 278.72 9.60Q279.82 9.94 280.63 10.60Q281.45 11.26 281.89 12.26Q282.34 13.27 282.34 14.62L282.34 14.62Q282.34 15.48 282.11 16.37Q281.88 17.26 281.44 18.18Q280.99 19.10 280.32 20.09Q279.65 21.07 278.81 22.10Q277.97 23.14 276.96 24.25Q275.95 25.37 274.80 26.59L274.80 26.59L271.90 29.52L282.29 29.52Q282.48 29.52 282.58 29.64Q282.67 29.76 282.67 30.07L282.67 30.07Q282.67 30.41 282.59 30.56Q282.50 30.72 282.29 30.72L282.29 30.72ZM293.71 31.18L293.71 31.18Q291.58 31.18 289.88 30.01Q288.19 28.85 287.21 26.42Q286.22 24 286.22 20.21L286.22 20.21Q286.22 18.31 286.49 16.76Q286.75 15.22 287.22 14.00Q287.69 12.79 288.37 11.89Q289.06 10.99 289.88 10.42Q290.71 9.84 291.68 9.55Q292.66 9.26 293.74 9.26L293.74 9.26Q295.85 9.26 297.50 10.43Q299.16 11.59 300.13 14.00Q301.10 16.42 301.10 20.21L301.10 20.21Q301.10 22.10 300.85 23.65Q300.60 25.20 300.13 26.41Q299.66 27.62 299.00 28.54Q298.34 29.45 297.53 30.02Q296.71 30.60 295.75 30.89Q294.79 31.18 293.71 31.18ZM293.69 29.88L293.69 29.88Q294.60 29.88 295.38 29.63Q296.16 29.38 296.82 28.85Q297.48 28.32 298.02 27.52Q298.56 26.71 298.93 25.64Q299.30 24.58 299.50 23.21Q299.69 21.84 299.69 20.21L299.69 20.21Q299.69 16.87 298.93 14.75Q298.18 12.62 296.83 11.58Q295.49 10.54 293.69 10.54L293.69 10.54Q292.80 10.54 292.01 10.79Q291.22 11.04 290.56 11.56Q289.90 12.07 289.36 12.88Q288.82 13.68 288.43 14.76Q288.05 15.84 287.86 17.20Q287.66 18.55 287.66 20.21L287.66 20.21Q287.66 23.52 288.43 25.66Q289.20 27.79 290.56 28.84Q291.91 29.88 293.69 29.88ZM312.07 31.18L312.07 31.18Q309.94 31.18 308.24 30.01Q306.55 28.85 305.57 26.42Q304.58 24 304.58 20.21L304.58 20.21Q304.58 18.31 304.85 16.76Q305.11 15.22 305.58 14.00Q306.05 12.79 306.73 11.89Q307.42 10.99 308.24 10.42Q309.07 9.84 310.04 9.55Q311.02 9.26 312.10 9.26L312.10 9.26Q314.21 9.26 315.86 10.43Q317.52 11.59 318.49 14.00Q319.46 16.42 319.46 20.21L319.46 20.21Q319.46 22.10 319.21 23.65Q318.96 25.20 318.49 26.41Q318.02 27.62 317.36 28.54Q316.70 29.45 315.89 30.02Q315.07 30.60 314.11 30.89Q313.15 31.18 312.07 31.18ZM312.05 29.88L312.05 29.88Q312.96 29.88 313.74 29.63Q314.52 29.38 315.18 28.85Q315.84 28.32 316.38 27.52Q316.92 26.71 317.29 25.64Q317.66 24.58 317.86 23.21Q318.05 21.84 318.05 20.21L318.05 20.21Q318.05 16.87 317.29 14.75Q316.54 12.62 315.19 11.58Q313.85 10.54 312.05 10.54L312.05 10.54Q311.16 10.54 310.37 10.79Q309.58 11.04 308.92 11.56Q308.26 12.07 307.72 12.88Q307.18 13.68 306.79 14.76Q306.41 15.84 306.22 17.20Q306.02 18.55 306.02 20.21L306.02 20.21Q306.02 23.52 306.79 25.66Q307.56 27.79 308.92 28.84Q310.27 29.88 312.05 29.88ZM341.38 31.13L341.38 31.13Q340.90 31.13 340.52 30.97Q340.15 30.82 339.89 30.53Q339.62 30.24 339.50 29.81Q339.38 29.38 339.38 28.78L339.38 28.78L339.38 22.75Q339.38 21.67 339.12 20.94Q338.86 20.21 338.28 19.84Q337.70 19.46 336.74 19.46L336.74 19.46Q336.05 19.46 335.36 19.73Q334.68 19.99 334.07 20.59Q333.46 21.19 332.99 22.19Q332.52 23.18 332.23 24.65L332.23 24.65L332.23 30.62Q332.23 30.86 332.08 30.97Q331.92 31.08 331.58 31.08L331.58 31.08Q331.27 31.08 331.13 30.97Q330.98 30.86 330.98 30.62L330.98 30.62L330.98 18.82Q330.98 18.58 331.13 18.47Q331.27 18.36 331.58 18.36L331.58 18.36Q331.92 18.36 332.08 18.47Q332.23 18.58 332.23 18.82L332.23 18.82L332.23 21.86Q332.64 20.86 333.18 20.16Q333.72 19.46 334.34 19.04Q334.97 18.62 335.62 18.44Q336.26 18.26 336.89 18.26L336.89 18.26Q337.99 18.26 338.83 18.68Q339.67 19.10 340.16 20.04Q340.66 20.98 340.66 22.54L340.66 22.54L340.66 28.46Q340.66 28.94 340.75 29.28Q340.85 29.62 341.05 29.78Q341.26 29.95 341.59 29.95L341.59 29.95Q341.86 29.95 342.10 29.86Q342.34 29.76 342.58 29.53Q342.82 29.30 343.08 28.97L343.08 28.97Q343.20 28.80 343.36 28.81Q343.51 28.82 343.70 28.97L343.70 28.97Q343.85 29.09 343.90 29.24Q343.94 29.40 343.82 29.57L343.82 29.57Q343.56 30.05 343.15 30.40Q342.74 30.74 342.29 30.94Q341.83 31.13 341.38 31.13ZM351 31.18L351 31.18Q349.37 31.18 348.16 30.36Q346.94 29.54 346.28 28.09Q345.62 26.64 345.62 24.72L345.62 24.72Q345.62 23.28 346.02 22.10Q346.42 20.93 347.15 20.06Q347.88 19.20 348.85 18.73Q349.82 18.26 351 18.26L351 18.26Q352.58 18.26 353.78 19.08Q354.98 19.90 355.67 21.35Q356.35 22.80 356.35 24.72L356.35 24.72Q356.35 25.85 356.10 26.83Q355.85 27.82 355.39 28.62Q354.94 29.42 354.29 30Q353.64 30.58 352.81 30.88Q351.98 31.18 351 31.18ZM351 29.98L351 29.98Q351.96 29.98 352.68 29.59Q353.40 29.21 353.93 28.51Q354.46 27.82 354.74 26.84Q355.03 25.87 355.03 24.72L355.03 24.72Q355.03 23.16 354.54 21.96Q354.05 20.76 353.15 20.11Q352.25 19.46 351 19.46L351 19.46Q350.09 19.46 349.33 19.84Q348.58 20.21 348.05 20.92Q347.52 21.62 347.23 22.58Q346.94 23.54 346.94 24.72L346.94 24.72Q346.94 26.26 347.45 27.44Q347.95 28.63 348.85 29.30Q349.75 29.98 351 29.98ZM361.80 31.08L361.80 31.08Q361.49 31.08 361.34 30.97Q361.20 30.86 361.20 30.62L361.20 30.62L361.20 21.55Q361.20 20.45 360.85 19.97Q360.50 19.49 359.83 19.49L359.83 19.49Q359.38 19.49 359.02 19.74Q358.66 19.99 358.42 20.58Q358.18 21.17 358.01 22.15L358.01 22.15Q357.98 22.37 357.83 22.45Q357.67 22.54 357.38 22.51L357.38 22.51Q357.17 22.49 357.02 22.36Q356.88 22.22 356.93 21.96L356.93 21.96Q357.07 20.74 357.47 19.93Q357.86 19.13 358.49 18.73Q359.11 18.34 359.90 18.34L359.90 18.34Q360.43 18.34 360.86 18.48Q361.30 18.62 361.62 18.94Q361.94 19.25 362.15 19.72Q362.35 20.18 362.40 20.86L362.40 20.86L362.40 21.86Q362.74 20.83 363.12 20.14Q363.50 19.44 363.94 19.04Q364.37 18.65 364.80 18.46Q365.23 18.26 365.62 18.26L365.62 18.26Q365.95 18.26 366.14 18.38Q366.34 18.50 366.34 18.86L366.34 18.86Q366.36 19.75 366.54 20.26Q366.72 20.76 366.97 20.96Q367.22 21.17 367.56 21.17L367.56 21.17Q368.33 21.17 369.08 20.70Q369.84 20.23 370.70 19.46L370.70 19.46Q370.85 19.34 371.02 19.40Q371.18 19.46 371.32 19.61Q371.45 19.75 371.48 19.93Q371.52 20.11 371.40 20.23L371.40 20.23Q370.51 21.14 369.50 21.68Q368.50 22.22 367.51 22.22L367.51 22.22Q366.96 22.22 366.49 21.96Q366.02 21.70 365.71 21.10Q365.40 20.50 365.30 19.51L365.30 19.51Q364.90 19.58 364.48 19.92Q364.06 20.26 363.68 20.93Q363.31 21.60 363.00 22.57Q362.69 23.54 362.45 24.91L362.45 24.91L362.45 30.62Q362.45 30.86 362.29 30.97Q362.14 31.08 361.80 31.08ZM391.80 31.13L391.80 31.13Q391.34 31.13 390.98 30.97Q390.62 30.82 390.37 30.53Q390.12 30.24 390 29.81Q389.88 29.38 389.88 28.78L389.88 28.78L389.88 22.75Q389.88 21.67 389.62 20.94Q389.35 20.21 388.82 19.84Q388.30 19.46 387.38 19.46L387.38 19.46Q386.69 19.46 386.00 19.76Q385.32 20.06 384.72 20.74Q384.12 21.41 383.66 22.51Q383.21 23.62 382.92 25.20L382.92 25.20L382.34 25.20Q382.49 23.26 383.00 21.92Q383.52 20.59 384.25 19.78Q384.98 18.96 385.85 18.61Q386.71 18.26 387.53 18.26L387.53 18.26Q388.56 18.26 389.36 18.68Q390.17 19.10 390.65 20.04Q391.13 20.98 391.13 22.54L391.13 22.54L391.13 28.46Q391.13 28.94 391.22 29.28Q391.32 29.62 391.52 29.78Q391.73 29.95 392.06 29.95L392.06 29.95Q392.33 29.95 392.57 29.86Q392.81 29.76 393.05 29.54Q393.29 29.33 393.53 28.97L393.53 28.97Q393.65 28.82 393.82 28.82Q393.98 28.82 394.15 28.97L394.15 28.97Q394.30 29.09 394.34 29.26Q394.39 29.42 394.30 29.59L394.30 29.59Q394.03 30.05 393.62 30.40Q393.22 30.74 392.75 30.94Q392.28 31.13 391.80 31.13ZM374.42 31.08L374.42 31.08Q374.11 31.08 373.97 30.97Q373.82 30.86 373.82 30.62L373.82 30.62L373.82 18.82Q373.82 18.58 373.97 18.47Q374.11 18.36 374.42 18.36L374.42 18.36Q374.76 18.36 374.92 18.47Q375.07 18.58 375.07 18.82L375.07 18.82L375.07 21.84Q375.48 20.78 376.02 20.09Q376.56 19.39 377.16 18.98Q377.76 18.58 378.37 18.42Q378.98 18.26 379.51 18.26L379.51 18.26Q380.52 18.26 381.35 18.68Q382.18 19.10 382.66 20.04Q383.14 20.98 383.14 22.54L383.14 22.54L383.14 30.62Q383.14 30.86 382.97 30.97Q382.80 31.08 382.49 31.08L382.49 31.08Q382.15 31.08 382.01 30.97Q381.86 30.86 381.86 30.62L381.86 30.62L381.86 22.75Q381.86 21.70 381.61 20.96Q381.36 20.23 380.81 19.85Q380.26 19.46 379.34 19.46L379.34 19.46Q378.70 19.46 378.06 19.73Q377.42 19.99 376.85 20.59Q376.27 21.19 375.82 22.19Q375.36 23.18 375.07 24.62L375.07 24.62L375.07 30.62Q375.07 30.86 374.92 30.97Q374.76 31.08 374.42 31.08ZM400.51 31.13L400.51 31.13Q399.22 31.13 398.21 30.42Q397.20 29.71 396.64 28.38Q396.07 27.05 396.07 25.10L396.07 25.10Q396.07 23.88 396.29 22.84Q396.50 21.79 396.96 20.94Q397.42 20.09 398.09 19.50Q398.76 18.91 399.64 18.59Q400.51 18.26 401.59 18.26L401.59 18.26Q402.41 18.26 403.19 18.50Q403.97 18.74 404.76 19.20L404.76 19.20L404.76 18.82Q404.76 18.58 404.93 18.47Q405.10 18.36 405.41 18.36L405.41 18.36Q405.74 18.36 405.89 18.47Q406.03 18.58 406.03 18.82L406.03 18.82L406.03 28.51Q406.03 28.99 406.14 29.33Q406.25 29.66 406.46 29.83Q406.68 30 406.99 30L406.99 30Q407.26 30 407.50 29.89Q407.74 29.78 407.96 29.54Q408.19 29.30 408.46 28.94L408.46 28.94Q408.55 28.80 408.72 28.81Q408.89 28.82 409.03 28.94L409.03 28.94Q409.22 29.09 409.26 29.26Q409.30 29.42 409.22 29.57L409.22 29.57Q408.94 30.05 408.55 30.40Q408.17 30.74 407.71 30.94Q407.26 31.13 406.78 31.13L406.78 31.13Q406.32 31.13 405.96 31.00Q405.60 30.86 405.32 30.59Q405.05 30.31 404.93 29.90Q404.81 29.50 404.76 28.97L404.76 28.97Q404.76 28.68 404.76 28.38Q404.76 28.08 404.76 27.77L404.76 27.77Q404.23 29.06 403.51 29.80Q402.79 30.53 402.02 30.83Q401.26 31.13 400.51 31.13ZM397.42 25.03L397.42 25.03Q397.42 26.42 397.78 27.54Q398.14 28.66 398.87 29.29Q399.60 29.93 400.70 29.93L400.70 29.93Q401.54 29.93 402.32 29.46Q403.10 28.99 403.75 27.92Q404.40 26.86 404.76 25.10L404.76 25.10L404.76 20.40Q403.92 19.85 403.15 19.64Q402.38 19.44 401.62 19.44L401.62 19.44Q400.82 19.44 400.18 19.67Q399.53 19.90 399.01 20.36Q398.50 20.83 398.14 21.50Q397.78 22.18 397.60 23.05Q397.42 23.93 397.42 25.03ZM407.69 31.13L407.69 31.13Q407.40 31.13 407.26 30.95Q407.11 30.77 407.11 30.55Q407.11 30.34 407.26 30.16Q407.40 29.98 407.69 29.98L407.69 29.98Q408.38 29.98 409.10 29.59Q409.82 29.21 410.52 28.50Q411.22 27.79 411.88 26.86Q412.54 25.92 413.14 24.80Q413.74 23.69 414.28 22.45Q414.82 21.22 415.24 19.94Q415.66 18.67 415.97 17.42Q416.28 16.18 416.45 15.01Q416.62 13.85 416.62 12.86L416.62 12.86Q416.62 12.60 416.81 12.47Q417.00 12.34 417.26 12.34Q417.53 12.34 417.72 12.47Q417.91 12.60 417.91 12.86L417.91 12.86Q417.91 13.87 417.72 15.10Q417.53 16.32 417.19 17.64Q416.86 18.96 416.36 20.32Q415.87 21.67 415.28 22.99Q414.70 24.31 413.99 25.52Q413.28 26.74 412.52 27.76Q411.77 28.78 410.96 29.53Q410.16 30.29 409.33 30.71Q408.50 31.13 407.69 31.13ZM414.62 31.13L414.62 31.13Q414.17 31.13 413.78 30.97Q413.40 30.82 413.16 30.53Q412.92 30.24 412.80 29.81Q412.68 29.38 412.68 28.78L412.68 28.78L412.68 13.75Q412.68 11.45 413.35 10.31Q414.02 9.17 415.39 9.17L415.39 9.17Q416.28 9.17 416.84 9.61Q417.41 10.06 417.66 10.86Q417.91 11.66 417.91 12.86L417.91 12.86Q417.91 13.15 417.72 13.31Q417.53 13.46 417.26 13.46Q417.00 13.46 416.81 13.31Q416.62 13.15 416.62 12.86L416.62 12.86Q416.62 12.02 416.50 11.48Q416.38 10.94 416.10 10.66Q415.82 10.37 415.37 10.37L415.37 10.37Q414.89 10.37 414.56 10.69Q414.24 11.02 414.08 11.76Q413.93 12.50 413.93 13.78L413.93 13.78L413.93 28.46Q413.93 28.94 414.02 29.28Q414.12 29.62 414.34 29.78Q414.55 29.95 414.84 29.95L414.84 29.95Q415.10 29.95 415.36 29.86Q415.61 29.76 415.85 29.53Q416.09 29.30 416.33 28.97L416.33 28.97Q416.47 28.82 416.63 28.82Q416.78 28.82 416.95 28.97L416.95 28.97Q417.14 29.09 417.17 29.24Q417.19 29.40 417.10 29.57L417.10 29.57Q416.83 30.05 416.42 30.40Q416.02 30.74 415.56 30.94Q415.10 31.13 414.62 31.13Z"/></svg>