<svg xmlns="http://www.w3.org/2000/svg" xmlns:xlink="http://www.w3.org/1999/xlink" width="418.84800000000007" height="39.816"><path fill="black" d="M9.70 22.58L9.70 22.58Q9.36 22.58 9.19 22.37Q9.02 22.15 9.02 21.84L9.02 21.84Q9.02 21.53 9.14 21.32Q9.26 21.12 9.58 21.12L9.58 21.12Q11.04 21.07 12.24 20.75Q13.44 20.42 14.40 19.88Q15.36 19.34 16.03 18.60Q16.70 17.86 17.06 16.94Q17.42 16.03 17.42 14.98L17.42 14.98Q17.42 13.97 16.98 13.18Q16.54 12.38 15.73 11.87Q14.93 11.35 13.79 11.09Q12.65 10.82 11.26 10.82L11.26 10.82Q9.55 10.82 8.03 11.16Q6.50 11.50 5.26 12.17Q4.01 12.84 3.05 13.92L3.05 13.92Q2.83 14.18 2.57 14.23Q2.30 14.28 1.99 14.09L1.99 14.09Q1.68 13.85 1.64 13.60Q1.61 13.34 1.82 13.03L1.82 13.03Q2.57 12.10 3.58 11.40Q4.58 10.70 5.82 10.22Q7.06 9.74 8.46 9.50Q9.86 9.26 11.38 9.26L11.38 9.26Q13.25 9.26 14.70 9.65Q16.15 10.03 17.15 10.75Q18.14 11.47 18.67 12.54Q19.20 13.61 19.20 14.98L19.20 14.98Q19.20 16.25 18.77 17.38Q18.34 18.50 17.51 19.43Q16.68 20.35 15.53 21.02Q14.38 21.70 12.91 22.09Q11.45 22.49 9.70 22.58ZM4.58 31.13L4.58 31.13Q3.67 31.13 2.93 30.77Q2.18 30.41 1.67 29.87Q1.15 29.33 0.86 28.82L0.86 28.82Q0.62 28.54 0.66 28.26Q0.70 27.98 1.06 27.77L1.06 27.77Q1.39 27.55 1.63 27.64Q1.87 27.72 2.14 28.01L2.14 28.01Q2.47 28.49 2.84 28.81Q3.22 29.14 3.66 29.32Q4.10 29.50 4.61 29.50L4.61 29.50Q5.50 29.50 5.89 28.86Q6.29 28.22 6.29 26.86L6.29 26.86L6.29 13.51Q6.29 13.22 6.50 13.09Q6.72 12.96 7.15 12.96L7.15 12.96Q7.58 12.96 7.79 13.09Q7.99 13.22 7.99 13.51L7.99 13.51L7.99 27.05Q7.99 28.27 7.62 29.18Q7.25 30.10 6.49 30.61Q5.74 31.13 4.58 31.13ZM18.36 31.13L18.36 31.13Q17.98 31.13 17.81 30.90Q17.64 30.67 17.64 30.38Q17.64 30.10 17.81 29.87Q17.98 29.64 18.36 29.64L18.36 29.64Q19.06 29.64 19.75 29.29Q20.45 28.94 21.13 28.31Q21.82 27.67 22.46 26.78Q23.11 25.90 23.70 24.85Q24.29 23.81 24.83 22.62Q25.37 21.43 25.78 20.20Q26.18 18.96 26.48 17.70Q26.78 16.44 26.94 15.22Q27.10 13.99 27.10 12.91L27.10 12.91Q27.10 12.62 27.36 12.46Q27.62 12.29 27.95 12.29Q28.27 12.29 28.54 12.46Q28.80 12.62 28.80 12.91L28.80 12.91Q28.80 13.99 28.61 15.24Q28.42 16.49 28.06 17.82Q27.70 19.15 27.20 20.50Q26.71 21.84 26.11 23.16Q25.51 24.48 24.80 25.66Q24.10 26.83 23.32 27.83Q22.54 28.82 21.72 29.57Q20.90 30.31 20.05 30.72Q19.20 31.13 18.36 31.13ZM25.30 31.13L25.30 31.13Q24.74 31.13 24.34 30.97Q23.93 30.82 23.66 30.52Q23.40 30.22 23.27 29.75Q23.14 29.28 23.14 28.70L23.14 28.70L23.14 13.82Q23.14 11.45 23.86 10.31Q24.58 9.17 26.06 9.17L26.06 9.17Q27 9.17 27.60 9.60Q28.20 10.03 28.50 10.86Q28.80 11.69 28.80 12.91L28.80 12.91Q28.80 13.30 28.54 13.48Q28.27 13.66 27.95 13.66Q27.62 13.66 27.36 13.48Q27.10 13.30 27.10 12.91L27.10 12.91Q27.10 12.17 26.99 11.70Q26.88 11.23 26.64 10.98Q26.40 10.73 26.02 10.73L26.02 10.73Q25.63 10.73 25.36 11.03Q25.08 11.33 24.95 12.02Q24.82 12.72 24.82 13.92L24.82 13.92L24.82 28.42Q24.82 28.82 24.90 29.09Q24.98 29.35 25.16 29.50Q25.34 29.64 25.61 29.64L25.61 29.64Q25.85 29.64 26.06 29.54Q26.28 29.45 26.48 29.26Q26.69 29.06 26.88 28.80L26.88 28.80Q27.02 28.63 27.23 28.67Q27.43 28.70 27.60 28.85L27.60 28.85Q27.82 29.02 27.85 29.21Q27.89 29.40 27.79 29.59L27.79 29.59Q27.53 30.07 27.12 30.42Q26.71 30.77 26.24 30.95Q25.78 31.13 25.30 31.13ZM35.50 31.13L35.50 31.13Q34.20 31.13 33.18 30.44Q32.16 29.76 31.60 28.43Q31.03 27.10 31.03 25.13L31.03 25.13Q31.03 23.90 31.26 22.84Q31.49 21.77 31.94 20.93Q32.40 20.09 33.06 19.49Q33.72 18.89 34.57 18.58Q35.42 18.26 36.50 18.26L36.50 18.26Q37.27 18.26 38.06 18.49Q38.86 18.72 39.62 19.18L39.62 19.18L39.62 18.94Q39.62 18.65 39.83 18.50Q40.03 18.36 40.46 18.36L40.46 18.36Q40.90 18.36 41.10 18.49Q41.30 18.62 41.30 18.91L41.30 18.91L41.30 28.42Q41.30 28.82 41.39 29.10Q41.47 29.38 41.66 29.51Q41.86 29.64 42.10 29.64L42.10 29.64Q42.36 29.64 42.55 29.56Q42.74 29.47 42.94 29.28Q43.13 29.09 43.37 28.78L43.37 28.78Q43.51 28.61 43.69 28.63Q43.87 28.66 44.09 28.82L44.09 28.82Q44.28 28.99 44.34 29.20Q44.40 29.40 44.28 29.59L44.28 29.59Q44.02 30.07 43.62 30.41Q43.22 30.74 42.76 30.94Q42.29 31.13 41.81 31.13L41.81 31.13Q41.28 31.13 40.90 31.00Q40.51 30.86 40.24 30.59Q39.96 30.31 39.82 29.92Q39.67 29.52 39.62 28.99L39.62 28.99Q39.62 28.80 39.62 28.56Q39.62 28.32 39.62 28.08L39.62 28.08Q39.07 29.23 38.40 29.90Q37.73 30.58 36.98 30.85Q36.24 31.13 35.50 31.13ZM32.76 25.06L32.76 25.06Q32.76 26.38 33.08 27.41Q33.41 28.44 34.08 29.00Q34.75 29.57 35.76 29.57L35.76 29.57Q36.55 29.57 37.27 29.12Q37.99 28.68 38.60 27.73Q39.22 26.78 39.62 25.32L39.62 25.32L39.62 20.66Q38.81 20.16 38.09 19.98Q37.37 19.80 36.62 19.80L36.62 19.80Q35.90 19.80 35.30 20.02Q34.70 20.23 34.24 20.65Q33.77 21.07 33.43 21.71Q33.10 22.34 32.93 23.17Q32.76 24 32.76 25.06ZM56.74 32.04L56.74 30.41Q57.12 30.19 57.50 29.96Q57.89 29.74 58.26 29.53Q58.63 29.33 58.98 29.16Q59.33 28.99 59.62 28.87L59.62 28.87Q59.93 28.73 60.14 28.86Q60.36 28.99 60.46 29.24Q60.55 29.50 60.47 29.77Q60.38 30.05 60.07 30.19L60.07 30.19Q59.69 30.38 59.28 30.60Q58.87 30.82 58.45 31.06Q58.03 31.30 57.60 31.55Q57.17 31.80 56.74 32.04L56.74 32.04ZM52.70 40.27L52.70 40.27Q51.24 40.27 50.35 39.49Q49.46 38.71 49.46 37.39L49.46 37.39Q49.46 36.70 49.69 36.08Q49.92 35.47 50.39 34.90Q50.86 34.32 51.56 33.73Q52.27 33.14 53.18 32.52L53.18 32.52Q53.62 32.23 54.01 31.98Q54.41 31.73 54.80 31.48Q55.20 31.22 55.61 31.01L55.61 31.01L55.61 27.86Q55.25 28.75 54.74 29.38Q54.24 30 53.65 30.38Q53.06 30.77 52.45 30.95Q51.84 31.13 51.19 31.13L51.19 31.13Q50.04 31.13 49.19 30.68Q48.34 30.24 47.86 29.29Q47.38 28.34 47.38 26.86L47.38 26.86L47.38 21.60Q47.38 20.64 47.09 20.22Q46.80 19.80 46.20 19.80L46.20 19.80Q45.79 19.80 45.48 20.04Q45.17 20.28 44.96 20.76Q44.76 21.24 44.62 22.01L44.62 22.01Q44.57 22.30 44.38 22.42Q44.18 22.54 43.82 22.51L43.82 22.51Q43.54 22.46 43.36 22.31Q43.18 22.15 43.25 21.74L43.25 21.74Q43.39 20.66 43.78 19.90Q44.16 19.13 44.80 18.73Q45.43 18.34 46.27 18.34L46.27 18.34Q46.97 18.34 47.51 18.54Q48.05 18.74 48.38 19.19Q48.72 19.63 48.89 20.29Q49.06 20.95 49.06 21.82L49.06 21.82L49.06 26.76Q49.06 27.70 49.31 28.33Q49.56 28.97 50.08 29.29Q50.59 29.62 51.43 29.62L51.43 29.62Q52.15 29.62 52.80 29.32Q53.45 29.02 53.99 28.42Q54.53 27.82 54.94 26.93Q55.34 26.04 55.61 24.86L55.61 24.86L55.61 18.89Q55.61 18.62 55.81 18.49Q56.02 18.36 56.45 18.36L56.45 18.36Q56.86 18.36 57.06 18.49Q57.26 18.62 57.26 18.89L57.26 18.89L57.26 34.10Q57.26 35.57 56.95 36.71Q56.64 37.85 56.05 38.65Q55.46 39.46 54.61 39.86Q53.76 40.27 52.70 40.27ZM52.82 38.74L52.82 38.74Q53.71 38.74 54.31 38.21Q54.91 37.68 55.26 36.64Q55.61 35.59 55.61 34.10L55.61 34.10L55.61 32.66Q55.27 32.88 54.95 33.06Q54.62 33.24 54.34 33.43Q54.05 33.62 53.74 33.84L53.74 33.84Q53.11 34.30 52.64 34.70Q52.18 35.11 51.85 35.51Q51.53 35.90 51.36 36.32Q51.19 36.74 51.19 37.20L51.19 37.20Q51.19 37.66 51.38 38.00Q51.58 38.35 51.92 38.54Q52.27 38.74 52.82 38.74ZM66.86 31.13L66.86 31.13Q66.02 31.13 65.38 30.85Q64.73 30.58 64.28 30.04Q63.84 29.50 63.60 28.67Q63.36 27.84 63.36 26.74L63.36 26.74L63.36 21.60Q63.36 20.64 63.06 20.22Q62.76 19.80 62.16 19.80L62.16 19.80Q61.75 19.80 61.44 20.04Q61.13 20.28 60.92 20.76Q60.72 21.24 60.58 22.01L60.58 22.01Q60.53 22.30 60.34 22.42Q60.14 22.54 59.78 22.51L59.78 22.51Q59.50 22.46 59.32 22.31Q59.14 22.15 59.21 21.74L59.21 21.74Q59.35 20.66 59.74 19.90Q60.12 19.13 60.76 18.73Q61.39 18.34 62.23 18.34L62.23 18.34Q62.95 18.34 63.48 18.54Q64.01 18.74 64.34 19.19Q64.68 19.63 64.85 20.29Q65.02 20.95 65.02 21.82L65.02 21.82L65.02 26.54Q65.02 27.53 65.22 28.22Q65.42 28.92 65.89 29.28Q66.36 29.64 67.10 29.64L67.10 29.64Q67.70 29.64 68.30 29.34Q68.90 29.04 69.41 28.44Q69.91 27.84 70.22 26.94Q70.54 26.04 70.54 24.89L70.54 24.89L70.54 18.89Q70.54 18.65 70.76 18.50Q70.99 18.36 71.42 18.36L71.42 18.36Q71.86 18.36 72.04 18.50Q72.22 18.65 72.22 18.89L72.22 18.89L72.22 25.85Q72.22 26.88 72.34 27.61Q72.46 28.34 72.72 28.78Q72.98 29.21 73.40 29.41Q73.82 29.62 74.45 29.62L74.45 29.62Q75.02 29.62 75.55 29.38Q76.08 29.14 76.54 28.69Q76.99 28.25 77.33 27.60Q77.66 26.95 77.86 26.15Q78.05 25.34 78.05 24.41L78.05 24.41Q78.05 23.50 77.92 22.68Q77.78 21.86 77.50 21.05Q77.21 20.23 76.66 19.39L76.66 19.39Q76.46 19.06 76.54 18.79Q76.61 18.53 76.87 18.40Q77.14 18.26 77.40 18.26L77.40 18.26Q77.71 18.26 77.88 18.41Q78.05 18.55 78.24 18.89L78.24 18.89Q78.62 19.44 78.97 20.24Q79.32 21.05 79.54 22.04Q79.75 23.04 79.75 24.19L79.75 24.19Q79.75 25.22 79.52 26.23Q79.30 27.24 78.84 28.13Q78.38 29.02 77.72 29.70Q77.06 30.38 76.19 30.78Q75.31 31.18 74.23 31.18L74.23 31.18Q73.39 31.18 72.71 30.86Q72.02 30.55 71.54 29.90Q71.06 29.26 70.82 28.22L70.82 28.22Q70.42 29.16 69.80 29.81Q69.19 30.46 68.45 30.79Q67.70 31.13 66.86 31.13ZM85.46 31.08L85.46 31.08Q85.06 31.08 84.85 30.95Q84.65 30.82 84.65 30.55L84.65 30.55L84.65 21.60Q84.65 20.64 84.36 20.22Q84.07 19.80 83.47 19.80L83.47 19.80Q83.06 19.80 82.75 20.04Q82.44 20.28 82.24 20.76Q82.03 21.24 81.89 22.01L81.89 22.01Q81.84 22.30 81.65 22.42Q81.46 22.54 81.10 22.51L81.10 22.51Q80.81 22.46 80.63 22.31Q80.45 22.15 80.52 21.74L80.52 21.74Q80.66 20.66 81.05 19.90Q81.43 19.13 82.07 18.73Q82.70 18.34 83.54 18.34L83.54 18.34Q84.14 18.34 84.60 18.48Q85.06 18.62 85.40 18.95Q85.75 19.27 85.96 19.75Q86.16 20.23 86.26 20.88L86.26 20.88L86.26 21.67Q86.54 20.74 86.94 20.10Q87.34 19.46 87.77 19.06Q88.20 18.65 88.64 18.46Q89.09 18.26 89.50 18.26L89.50 18.26Q89.83 18.26 90.05 18.41Q90.26 18.55 90.26 19.03L90.26 19.03Q90.29 19.80 90.43 20.27Q90.58 20.74 90.82 20.94Q91.06 21.14 91.39 21.14L91.39 21.14Q92.06 21.14 92.76 20.68Q93.46 20.21 94.25 19.46L94.25 19.46Q94.42 19.30 94.63 19.36Q94.85 19.42 95.03 19.62Q95.21 19.82 95.26 20.04Q95.30 20.26 95.16 20.42L95.16 20.42Q94.30 21.36 93.31 21.92Q92.33 22.49 91.34 22.49L91.34 22.49Q90.77 22.49 90.26 22.22Q89.76 21.96 89.42 21.38Q89.09 20.81 88.99 19.92L88.99 19.92Q88.58 20.04 88.20 20.44Q87.82 20.83 87.47 21.47Q87.12 22.10 86.83 22.99Q86.54 23.88 86.33 24.98L86.33 24.98L86.33 30.55Q86.33 30.82 86.11 30.95Q85.90 31.08 85.46 31.08ZM99.46 31.13L99.46 31.13Q98.35 31.13 97.81 30.52Q97.27 29.90 97.27 28.70L97.27 28.70L97.27 18.89Q97.27 18.62 97.48 18.49Q97.68 18.36 98.09 18.36L98.09 18.36Q98.52 18.36 98.74 18.49Q98.95 18.62 98.95 18.89L98.95 18.89L98.95 28.42Q98.95 29.04 99.16 29.34Q99.36 29.64 99.77 29.64L99.77 29.64Q100.03 29.64 100.24 29.53Q100.44 29.42 100.63 29.24Q100.82 29.06 101.04 28.78L101.04 28.78Q101.16 28.63 101.38 28.67Q101.59 28.70 101.74 28.85L101.74 28.85Q101.95 28.99 101.99 29.20Q102.02 29.40 101.93 29.57L101.93 29.57Q101.66 30.05 101.27 30.40Q100.87 30.74 100.40 30.94Q99.94 31.13 99.46 31.13ZM98.09 14.50L98.09 14.50Q97.49 14.50 97.20 14.16Q96.91 13.82 96.91 13.15L96.91 13.15Q96.91 12.48 97.20 12.14Q97.49 11.81 98.09 11.81L98.09 11.81Q98.69 11.81 98.98 12.14Q99.26 12.48 99.26 13.15L99.26 13.15Q99.31 13.82 99.00 14.16Q98.69 14.50 98.09 14.50ZM107.81 31.13L107.81 31.13Q106.92 31.13 106.32 30.77Q105.72 30.41 105.42 29.74Q105.12 29.06 105.12 28.10L105.12 28.10L105.12 20.26L103.15 20.26Q102.86 20.26 102.72 20.08Q102.58 19.90 102.58 19.49L102.58 19.49Q102.58 19.06 102.72 18.89Q102.86 18.72 103.15 18.72L103.15 18.72L105.12 18.72L105.12 13.73Q105.12 13.46 105.32 13.33Q105.53 13.20 105.96 13.20L105.96 13.20Q106.39 13.20 106.61 13.33Q106.82 13.46 106.82 13.73L106.82 13.73L106.82 18.72L110.02 18.72Q110.30 18.72 110.44 18.89Q110.57 19.06 110.57 19.49L110.57 19.49Q110.57 19.90 110.44 20.08Q110.30 20.26 110.02 20.26L110.02 20.26L106.82 20.26L106.82 27.84Q106.82 28.75 107.06 29.20Q107.30 29.64 107.98 29.64L107.98 29.64Q108.53 29.64 108.96 29.30Q109.39 28.97 109.82 28.42L109.82 28.42Q110.02 28.18 110.22 28.20Q110.42 28.22 110.64 28.39L110.64 28.39Q110.90 28.58 110.94 28.79Q110.98 28.99 110.88 29.18L110.88 29.18Q110.52 29.83 110.03 30.26Q109.54 30.70 108.98 30.91Q108.43 31.13 107.81 31.13ZM118.30 31.15L118.30 31.15Q116.52 31.15 115.34 30.37Q114.17 29.59 113.58 28.26Q112.99 26.93 112.99 25.27L112.99 25.27Q112.99 23.69 113.42 22.40Q113.86 21.12 114.64 20.20Q115.42 19.27 116.51 18.77Q117.60 18.26 118.94 18.26L118.94 18.26Q120.14 18.26 120.98 18.64Q121.82 19.01 122.27 19.70Q122.71 20.40 122.71 21.34L122.71 21.34Q122.71 22.25 122.29 22.99Q121.87 23.74 121.13 24.30Q120.38 24.86 119.36 25.27Q118.34 25.68 117.12 25.90Q115.90 26.11 114.53 26.21L114.53 26.21L114.53 24.82Q115.42 24.77 116.34 24.62Q117.26 24.48 118.09 24.20Q118.92 23.93 119.57 23.53Q120.22 23.14 120.59 22.62Q120.96 22.10 120.96 21.46L120.96 21.46Q120.96 20.62 120.37 20.22Q119.78 19.82 118.78 19.82L118.78 19.82Q117.96 19.82 117.24 20.15Q116.52 20.47 115.94 21.13Q115.37 21.79 115.04 22.74Q114.72 23.69 114.72 24.94L114.72 24.94Q114.72 26.47 115.19 27.50Q115.66 28.54 116.48 29.08Q117.31 29.62 118.37 29.62L118.37 29.62Q119.23 29.62 119.82 29.35Q120.41 29.09 120.86 28.64Q121.32 28.20 121.75 27.72L121.75 27.72Q122.02 27.43 122.26 27.44Q122.50 27.46 122.78 27.67L122.78 27.67Q123.05 27.89 123.12 28.12Q123.19 28.34 123.00 28.61L123.00 28.61Q122.50 29.38 121.74 29.95Q120.98 30.53 120.12 30.84Q119.26 31.15 118.30 31.15ZM136.66 31.13L136.66 31.13Q135.70 31.13 135.02 30.64Q134.35 30.14 133.98 29.35Q133.61 28.56 133.61 27.65L133.61 27.65Q133.61 26.78 133.87 26.00Q134.14 25.22 134.69 24.52Q135.24 23.81 136.08 23.17Q136.92 22.54 138.10 21.98L138.10 21.98L138.10 12.84Q138.10 11.86 137.76 11.39Q137.42 10.92 136.75 10.92L136.75 10.92Q136.20 10.92 135.70 11.16Q135.19 11.40 134.72 11.89Q134.26 12.38 133.80 13.10L133.80 13.10Q133.61 13.39 133.38 13.46Q133.15 13.54 132.82 13.34L132.82 13.34Q132.46 13.13 132.42 12.90Q132.38 12.67 132.60 12.36L132.60 12.36Q133.15 11.42 133.78 10.74Q134.40 10.06 135.17 9.70Q135.94 9.34 136.85 9.34L136.85 9.34Q138.38 9.34 139.09 10.22Q139.80 11.11 139.80 12.86L139.80 12.86L139.80 21.26Q141.14 20.64 142.50 20.02Q143.86 19.39 145.20 18.73Q146.54 18.07 147.86 17.42L147.86 17.42L147.86 14.11Q147.86 12.50 148.20 11.45Q148.54 10.39 149.24 9.86Q149.95 9.34 151.03 9.34L151.03 9.34Q151.99 9.34 152.66 9.78Q153.34 10.22 153.71 10.98Q154.08 11.74 154.08 12.67L154.08 12.67Q154.08 13.49 153.83 14.24Q153.58 15.00 153.04 15.68Q152.50 16.37 151.63 17.02Q150.77 17.66 149.54 18.26L149.54 18.26L149.54 26.86Q149.54 27.77 149.74 28.34Q149.93 28.92 150.35 29.21Q150.77 29.50 151.42 29.50L151.42 29.50Q151.90 29.50 152.35 29.30Q152.81 29.11 153.20 28.79Q153.60 28.46 153.86 28.06L153.86 28.06Q154.06 27.72 154.30 27.66Q154.54 27.60 154.87 27.79L154.87 27.79Q155.21 27.98 155.24 28.20Q155.28 28.42 155.06 28.78L155.06 28.78Q154.78 29.33 154.22 29.87Q153.67 30.41 152.94 30.77Q152.21 31.13 151.37 31.13L151.37 31.13Q150.48 31.13 149.81 30.84Q149.14 30.55 148.72 30.01Q148.30 29.47 148.08 28.70Q147.86 27.94 147.86 26.98L147.86 26.98L147.86 19.20Q146.95 19.68 145.94 20.16Q144.94 20.64 143.88 21.14Q142.82 21.65 141.79 22.12Q140.76 22.58 139.80 23.02L139.80 23.02L139.80 26.38Q139.80 27.96 139.46 29.02Q139.13 30.07 138.43 30.60Q137.74 31.13 136.66 31.13ZM136.66 29.59L136.66 29.59Q137.42 29.59 137.76 28.90Q138.10 28.20 138.10 26.45L138.10 26.45L138.10 23.69Q137.40 24 136.88 24.42Q136.37 24.84 136.01 25.33Q135.65 25.82 135.48 26.40Q135.31 26.98 135.31 27.62L135.31 27.62Q135.31 28.46 135.71 29.03Q136.10 29.59 136.66 29.59ZM149.54 14.04L149.54 16.56Q150.29 16.18 150.83 15.77Q151.37 15.36 151.70 14.90Q152.04 14.45 152.20 13.90Q152.35 13.34 152.35 12.70L152.35 12.70Q152.35 11.93 151.98 11.39Q151.61 10.85 151.03 10.85L151.03 10.85Q150.26 10.85 149.90 11.54Q149.54 12.24 149.54 14.04L149.54 14.04ZM175.37 31.18L175.37 31.18Q174.74 31.18 174.20 31.01Q173.66 30.84 173.15 30.48Q172.63 30.12 172.12 29.56Q171.60 28.99 171.04 28.21Q170.47 27.43 169.85 26.42L169.85 26.42Q169.58 25.97 169.33 25.56Q169.08 25.15 168.85 24.76Q168.62 24.36 168.40 23.96Q168.17 23.57 167.96 23.17Q167.76 22.78 167.54 22.38Q167.33 21.98 167.11 21.58L167.11 21.58Q166.34 21.58 165.80 21.23Q165.26 20.88 165.26 20.33L165.26 20.33Q165.26 19.90 165.55 19.56Q165.84 19.22 166.49 19.22L166.49 19.22Q166.92 19.22 167.33 19.42Q167.74 19.61 168.07 19.92L168.07 19.92Q169.20 19.70 170.14 19.24Q171.07 18.77 171.73 18.08Q172.39 17.40 172.76 16.55Q173.14 15.70 173.14 14.71L173.14 14.71Q173.14 13.75 172.72 13.03Q172.30 12.31 171.54 11.82Q170.78 11.33 169.72 11.08Q168.65 10.82 167.33 10.82L167.33 10.82Q165.62 10.82 164.12 11.16Q162.62 11.50 161.39 12.17Q160.15 12.84 159.19 13.92L159.19 13.92Q158.95 14.18 158.70 14.23Q158.45 14.28 158.14 14.09L158.14 14.09Q157.82 13.85 157.78 13.60Q157.73 13.34 157.97 13.03L157.97 13.03Q158.69 12.10 159.70 11.40Q160.70 10.70 161.92 10.22Q163.13 9.74 164.52 9.50Q165.91 9.26 167.42 9.26L167.42 9.26Q169.22 9.26 170.60 9.62Q171.98 9.98 172.94 10.69Q173.90 11.40 174.41 12.41Q174.91 13.42 174.91 14.66L174.91 14.66Q174.91 15.62 174.64 16.50Q174.36 17.38 173.83 18.12Q173.30 18.86 172.56 19.48Q171.82 20.09 170.87 20.53Q169.92 20.98 168.79 21.24L168.79 21.24Q168.96 21.58 169.13 21.88Q169.30 22.18 169.46 22.50Q169.63 22.82 169.81 23.15Q169.99 23.47 170.18 23.81Q170.38 24.14 170.60 24.49Q170.83 24.84 171.05 25.25L171.05 25.25Q171.70 26.23 172.20 26.98Q172.70 27.72 173.14 28.22Q173.57 28.73 173.93 29.03Q174.29 29.33 174.65 29.46Q175.01 29.59 175.39 29.59L175.39 29.59Q176.06 29.59 176.56 29.29Q177.05 28.99 177.50 28.30L177.50 28.30Q177.70 28.03 177.95 27.94Q178.20 27.84 178.54 28.10L178.54 28.10Q178.80 28.27 178.85 28.52Q178.90 28.78 178.75 29.02L178.75 29.02Q178.37 29.69 177.83 30.17Q177.29 30.65 176.66 30.91Q176.04 31.18 175.37 31.18ZM160.73 31.13L160.73 31.13Q159.79 31.13 159.06 30.77Q158.33 30.41 157.80 29.87Q157.27 29.33 156.98 28.82L156.98 28.82Q156.77 28.54 156.80 28.26Q156.84 27.98 157.20 27.77L157.20 27.77Q157.51 27.55 157.76 27.64Q158.02 27.72 158.26 28.01L158.26 28.01Q158.62 28.49 158.98 28.81Q159.34 29.14 159.79 29.32Q160.25 29.50 160.75 29.50L160.75 29.50Q161.62 29.50 162.02 28.86Q162.43 28.22 162.43 26.86L162.43 26.86L162.43 13.51Q162.43 13.22 162.64 13.09Q162.84 12.96 163.30 12.96L163.30 12.96Q163.73 12.96 163.93 13.09Q164.14 13.22 164.14 13.51L164.14 13.51L164.14 27.05Q164.14 28.27 163.76 29.18Q163.39 30.10 162.64 30.61Q161.88 31.13 160.73 31.13ZM189.07 31.22L189.07 31.22Q188.23 31.22 187.60 30.97Q186.96 30.72 186.60 30.20Q186.24 29.69 186.24 28.97L186.24 28.97Q186.24 28.22 186.59 27.65Q186.94 27.07 187.55 26.74Q188.16 26.40 188.98 26.40L188.98 26.40Q189.74 26.40 190.40 26.62Q191.06 26.83 191.69 27.17Q192.31 27.50 192.96 27.89Q193.61 28.27 194.33 28.62Q195.05 28.97 195.90 29.17Q196.75 29.38 197.76 29.38L197.76 29.38Q198.96 29.38 199.85 28.96Q200.74 28.54 201.36 27.82Q201.98 27.10 202.32 26.21L202.32 26.21Q202.44 25.87 202.68 25.76Q202.92 25.66 203.30 25.78L203.30 25.78Q203.64 25.87 203.75 26.09Q203.86 26.30 203.76 26.66L203.76 26.66Q203.40 27.91 202.55 28.88Q201.70 29.86 200.48 30.42Q199.27 30.98 197.83 30.98L197.83 30.98Q196.34 30.98 195.23 30.67Q194.11 30.36 193.26 29.92Q192.41 29.47 191.70 29.02Q190.99 28.56 190.33 28.24Q189.67 27.91 188.90 27.91L188.90 27.91Q188.38 27.91 188.12 28.18Q187.87 28.44 187.87 28.82L187.87 28.82Q187.87 29.26 188.21 29.51Q188.54 29.76 189 29.76L189 29.76Q189.94 29.76 190.48 28.90Q191.02 28.03 191.02 26.71L191.02 26.71L191.02 15.17Q191.02 13.68 191.36 12.56Q191.71 11.45 192.40 10.73Q193.08 10.01 194.05 9.64Q195.02 9.26 196.27 9.26L196.27 9.26Q197.47 9.26 198.43 9.66Q199.39 10.06 200.10 10.85Q200.81 11.64 201.24 12.91L201.24 12.91Q201.38 13.30 201.29 13.55Q201.19 13.80 200.81 13.92L200.81 13.92Q200.38 14.06 200.15 13.93Q199.92 13.80 199.75 13.42L199.75 13.42Q199.44 12.60 198.95 12.04Q198.46 11.47 197.77 11.17Q197.09 10.87 196.22 10.87L196.22 10.87Q195.36 10.87 194.72 11.11Q194.09 11.35 193.62 11.88Q193.15 12.41 192.94 13.24Q192.72 14.06 192.72 15.24L192.72 15.24L192.72 26.71Q192.72 28.08 192.28 29.10Q191.83 30.12 191.02 30.67Q190.20 31.22 189.07 31.22ZM209.09 31.13L209.09 31.13Q207.98 31.13 207.44 30.52Q206.90 29.90 206.90 28.70L206.90 28.70L206.90 18.89Q206.90 18.62 207.11 18.49Q207.31 18.36 207.72 18.36L207.72 18.36Q208.15 18.36 208.37 18.49Q208.58 18.62 208.58 18.89L208.58 18.89L208.58 28.42Q208.58 29.04 208.79 29.34Q208.99 29.64 209.40 29.64L209.40 29.64Q209.66 29.64 209.87 29.53Q210.07 29.42 210.26 29.24Q210.46 29.06 210.67 28.78L210.67 28.78Q210.79 28.63 211.01 28.67Q211.22 28.70 211.37 28.85L211.37 28.85Q211.58 28.99 211.62 29.20Q211.66 29.40 211.56 29.57L211.56 29.57Q211.30 30.05 210.90 30.40Q210.50 30.74 210.04 30.94Q209.57 31.13 209.09 31.13ZM207.72 14.50L207.72 14.50Q207.12 14.50 206.83 14.16Q206.54 13.82 206.54 13.15L206.54 13.15Q206.54 12.48 206.83 12.14Q207.12 11.81 207.72 11.81L207.72 11.81Q208.32 11.81 208.61 12.14Q208.90 12.48 208.90 13.15L208.90 13.15Q208.94 13.82 208.63 14.16Q208.32 14.50 207.72 14.50ZM215.71 32.02L215.69 30.38Q216.07 30.14 216.46 29.93Q216.84 29.71 217.21 29.52Q217.58 29.33 217.93 29.16Q218.28 28.99 218.57 28.85L218.57 28.85Q218.88 28.73 219.10 28.84Q219.31 28.94 219.41 29.22Q219.50 29.50 219.42 29.76Q219.34 30.02 219.02 30.19L219.02 30.19Q218.69 30.36 218.28 30.58Q217.87 30.79 217.44 31.03Q217.01 31.27 216.58 31.52Q216.14 31.78 215.71 32.02L215.71 32.02ZM212.47 40.27L212.47 40.27Q211.68 40.27 211.07 39.91Q210.46 39.55 210.10 38.92Q209.74 38.28 209.74 37.44L209.74 37.44Q209.74 36.67 209.99 35.93Q210.24 35.18 210.74 34.44Q211.25 33.70 211.99 33Q212.74 32.30 213.67 31.68L213.67 31.68Q213.91 31.51 214.15 31.34Q214.39 31.18 214.63 31.01L214.63 31.01L214.63 18.89Q214.63 18.62 214.84 18.49Q215.04 18.36 215.47 18.36L215.47 18.36Q215.88 18.36 216.10 18.49Q216.31 18.62 216.31 18.89L216.31 18.89L216.31 34.51Q216.31 35.83 216.07 36.90Q215.83 37.97 215.36 38.72Q214.90 39.48 214.16 39.88Q213.43 40.27 212.47 40.27ZM212.64 38.74L212.64 38.74Q213.12 38.74 213.50 38.45Q213.89 38.16 214.14 37.64Q214.39 37.13 214.51 36.37Q214.63 35.62 214.63 34.70L214.63 34.70L214.63 32.69Q214.46 32.81 214.31 32.93Q214.15 33.05 213.96 33.19L213.96 33.19Q213.34 33.65 212.86 34.14Q212.38 34.63 212.05 35.15Q211.73 35.66 211.58 36.20Q211.44 36.74 211.44 37.32L211.44 37.32Q211.44 37.73 211.57 38.05Q211.70 38.38 211.99 38.56Q212.28 38.74 212.64 38.74ZM215.45 14.50L215.45 14.50Q214.85 14.50 214.55 14.16Q214.25 13.82 214.25 13.15L214.25 13.15Q214.25 12.48 214.55 12.14Q214.85 11.81 215.45 11.81L215.45 11.81Q216.05 11.81 216.34 12.14Q216.62 12.48 216.62 13.15L216.62 13.15Q216.62 13.82 216.34 14.16Q216.05 14.50 215.45 14.50ZM226.20 31.15L226.20 31.15Q224.42 31.15 223.25 30.37Q222.07 29.59 221.48 28.26Q220.90 26.93 220.90 25.27L220.90 25.27Q220.90 23.69 221.33 22.40Q221.76 21.12 222.54 20.20Q223.32 19.27 224.41 18.77Q225.50 18.26 226.85 18.26L226.85 18.26Q228.05 18.26 228.89 18.64Q229.73 19.01 230.17 19.70Q230.62 20.40 230.62 21.34L230.62 21.34Q230.62 22.25 230.20 22.99Q229.78 23.74 229.03 24.30Q228.29 24.86 227.27 25.27Q226.25 25.68 225.02 25.90Q223.80 26.11 222.43 26.21L222.43 26.21L222.43 24.82Q223.32 24.77 224.24 24.62Q225.17 24.48 226.00 24.20Q226.82 23.93 227.47 23.53Q228.12 23.14 228.49 22.62Q228.86 22.10 228.86 21.46L228.86 21.46Q228.86 20.62 228.28 20.22Q227.69 19.82 226.68 19.82L226.68 19.82Q225.86 19.82 225.14 20.15Q224.42 20.47 223.85 21.13Q223.27 21.79 222.95 22.74Q222.62 23.69 222.62 24.94L222.62 24.94Q222.62 26.47 223.09 27.50Q223.56 28.54 224.39 29.08Q225.22 29.62 226.27 29.62L226.27 29.62Q227.14 29.62 227.72 29.35Q228.31 29.09 228.77 28.64Q229.22 28.20 229.66 27.72L229.66 27.72Q229.92 27.43 230.16 27.44Q230.40 27.46 230.69 27.67L230.69 27.67Q230.95 27.89 231.02 28.12Q231.10 28.34 230.90 28.61L230.90 28.61Q230.40 29.38 229.64 29.95Q228.89 30.53 228.02 30.84Q227.16 31.15 226.20 31.15ZM239.09 31.18L239.09 31.18Q238.18 31.18 237.42 30.85Q236.66 30.53 236.10 29.92Q235.54 29.30 235.24 28.34Q234.94 27.38 234.94 26.14L234.94 26.14L234.94 21.60Q234.94 20.62 234.64 20.21Q234.34 19.80 233.74 19.80L233.74 19.80Q233.33 19.80 233.02 20.04Q232.70 20.28 232.50 20.76Q232.30 21.24 232.15 22.01L232.15 22.01Q232.10 22.30 231.91 22.42Q231.72 22.54 231.36 22.51L231.36 22.51Q231.07 22.46 230.89 22.31Q230.71 22.15 230.78 21.74L230.78 21.74Q230.93 20.66 231.31 19.90Q231.70 19.13 232.33 18.73Q232.97 18.34 233.81 18.34L233.81 18.34Q234.53 18.34 235.06 18.54Q235.58 18.74 235.92 19.19Q236.26 19.63 236.42 20.29Q236.59 20.95 236.59 21.82L236.59 21.82L236.59 25.87Q236.59 26.86 236.76 27.58Q236.93 28.30 237.25 28.74Q237.58 29.18 238.08 29.40Q238.58 29.62 239.28 29.62L239.28 29.62Q239.86 29.62 240.38 29.38Q240.91 29.14 241.36 28.67Q241.80 28.20 242.14 27.54Q242.47 26.88 242.65 26.10Q242.83 25.32 242.83 24.41L242.83 24.41Q242.83 23.50 242.71 22.68Q242.59 21.86 242.29 21.05Q241.99 20.23 241.44 19.39L241.44 19.39Q241.25 19.06 241.32 18.79Q241.39 18.53 241.64 18.40Q241.90 18.26 242.21 18.26L242.21 18.26Q242.50 18.26 242.68 18.41Q242.86 18.55 243.02 18.89L243.02 18.89Q243.38 19.44 243.72 20.24Q244.06 21.05 244.30 22.04Q244.54 23.04 244.54 24.19L244.54 24.19Q244.54 25.22 244.32 26.23Q244.10 27.24 243.67 28.13Q243.24 29.02 242.58 29.70Q241.92 30.38 241.06 30.78Q240.19 31.18 239.09 31.18ZM252.46 31.13L252.46 31.13Q251.16 31.13 250.14 30.44Q249.12 29.76 248.56 28.43Q247.99 27.10 247.99 25.13L247.99 25.13Q247.99 23.90 248.22 22.84Q248.45 21.77 248.90 20.93Q249.36 20.09 250.02 19.49Q250.68 18.89 251.53 18.58Q252.38 18.26 253.46 18.26L253.46 18.26Q254.23 18.26 255.02 18.49Q255.82 18.72 256.58 19.18L256.58 19.18L256.58 18.94Q256.58 18.65 256.79 18.50Q256.99 18.36 257.42 18.36L257.42 18.36Q257.86 18.36 258.06 18.49Q258.26 18.62 258.26 18.91L258.26 18.91L258.26 28.42Q258.26 28.82 258.35 29.10Q258.43 29.38 258.62 29.51Q258.82 29.64 259.06 29.64L259.06 29.64Q259.32 29.64 259.51 29.56Q259.70 29.47 259.90 29.28Q260.09 29.09 260.33 28.78L260.33 28.78Q260.47 28.61 260.65 28.63Q260.83 28.66 261.05 28.82L261.05 28.82Q261.24 28.99 261.30 29.20Q261.36 29.40 261.24 29.59L261.24 29.59Q260.98 30.07 260.58 30.41Q260.18 30.74 259.72 30.94Q259.25 31.13 258.77 31.13L258.77 31.13Q258.24 31.13 257.86 31.00Q257.47 30.86 257.20 30.59Q256.92 30.31 256.78 29.92Q256.63 29.52 256.58 28.99L256.58 28.99Q256.58 28.80 256.58 28.56Q256.58 28.32 256.58 28.08L256.58 28.08Q256.03 29.23 255.36 29.90Q254.69 30.58 253.94 30.85Q253.20 31.13 252.46 31.13ZM249.72 25.06L249.72 25.06Q249.72 26.38 250.04 27.41Q250.37 28.44 251.04 29.00Q251.71 29.57 252.72 29.57L252.72 29.57Q253.51 29.57 254.23 29.12Q254.95 28.68 255.56 27.73Q256.18 26.78 256.58 25.32L256.58 25.32L256.58 20.66Q255.77 20.16 255.05 19.98Q254.33 19.80 253.58 19.80L253.58 19.80Q252.86 19.80 252.26 20.02Q251.66 20.23 251.20 20.65Q250.73 21.07 250.39 21.71Q250.06 22.34 249.89 23.17Q249.72 24 249.72 25.06ZM276.10 31.18L276.10 31.18Q274.87 31.18 273.70 30.79Q272.52 30.41 271.45 29.59Q270.38 28.78 269.50 27.50L269.50 27.50Q269.28 27.22 269.24 26.95Q269.21 26.69 269.59 26.42L269.59 26.42Q269.90 26.16 270.17 26.15Q270.43 26.14 270.65 26.47L270.65 26.47Q271.42 27.48 272.27 28.18Q273.12 28.87 274.07 29.23Q275.02 29.59 276.05 29.59L276.05 29.59Q277.22 29.59 278.15 29.27Q279.07 28.94 279.74 28.33Q280.42 27.72 280.76 26.80Q281.11 25.87 281.11 24.70L281.11 24.70Q281.11 23.38 280.45 22.36Q279.79 21.34 278.59 20.74Q277.39 20.14 275.71 20.14L275.71 20.14L274.32 20.14Q274.03 20.14 273.91 19.93Q273.79 19.73 273.79 19.32L273.79 19.32Q273.79 18.89 273.94 18.73Q274.08 18.58 274.32 18.58L274.32 18.58L275.78 18.58Q276.98 18.58 277.81 18.24Q278.64 17.90 279.19 17.33Q279.74 16.75 280.00 16.02Q280.25 15.29 280.25 14.54L280.25 14.54Q280.25 13.58 279.89 12.88Q279.53 12.17 278.93 11.72Q278.33 11.28 277.58 11.06Q276.84 10.85 276.05 10.85L276.05 10.85Q275.09 10.85 274.26 11.10Q273.43 11.35 272.71 11.80Q271.99 12.24 271.30 12.79L271.30 12.79Q270.98 13.08 270.73 13.09Q270.48 13.10 270.19 12.82L270.19 12.82Q269.83 12.50 269.89 12.24Q269.95 11.98 270.14 11.78L270.14 11.78Q270.74 11.11 271.63 10.55Q272.52 9.98 273.65 9.62Q274.78 9.26 276.02 9.26L276.02 9.26Q277.27 9.26 278.36 9.59Q279.46 9.91 280.27 10.57Q281.09 11.23 281.56 12.23Q282.02 13.22 282.02 14.52L282.02 14.52Q282.02 15.24 281.81 15.97Q281.59 16.70 281.16 17.36Q280.73 18.02 280.03 18.53Q279.34 19.03 278.38 19.32L278.38 19.32Q279.91 19.68 280.91 20.48Q281.90 21.29 282.42 22.40Q282.94 23.52 282.94 24.77L282.94 24.77Q282.94 26.23 282.47 27.42Q282 28.61 281.12 29.44Q280.25 30.26 278.99 30.72Q277.73 31.18 276.10 31.18ZM293.76 31.18L293.76 31.18Q291.55 31.18 289.81 30.01Q288.07 28.85 287.06 26.42Q286.06 24 286.06 20.21L286.06 20.21Q286.06 18.31 286.31 16.76Q286.56 15.22 287.05 14.00Q287.54 12.79 288.24 11.89Q288.94 10.99 289.80 10.42Q290.66 9.84 291.66 9.55Q292.66 9.26 293.76 9.26L293.76 9.26Q295.94 9.26 297.65 10.43Q299.35 11.59 300.35 14.00Q301.34 16.42 301.34 20.21L301.34 20.21Q301.34 22.10 301.09 23.65Q300.84 25.20 300.35 26.41Q299.86 27.62 299.17 28.54Q298.49 29.45 297.65 30.02Q296.81 30.60 295.84 30.89Q294.86 31.18 293.76 31.18ZM293.71 29.52L293.71 29.52Q294.58 29.52 295.33 29.27Q296.09 29.02 296.74 28.51Q297.38 28.01 297.90 27.24Q298.42 26.47 298.78 25.44Q299.14 24.41 299.33 23.10Q299.52 21.79 299.52 20.21L299.52 20.21Q299.52 17.02 298.78 14.98Q298.03 12.94 296.74 11.93Q295.44 10.92 293.71 10.92L293.71 10.92Q292.85 10.92 292.09 11.16Q291.34 11.40 290.69 11.90Q290.04 12.41 289.52 13.18Q289.01 13.94 288.64 14.96Q288.26 15.98 288.07 17.30Q287.88 18.62 287.88 20.21L287.88 20.21Q287.88 23.38 288.64 25.43Q289.39 27.48 290.70 28.50Q292.01 29.52 293.71 29.52ZM312.14 31.18L312.14 31.18Q309.94 31.18 308.20 30.01Q306.46 28.85 305.45 26.42Q304.44 24 304.44 20.21L304.44 20.21Q304.44 18.31 304.69 16.76Q304.94 15.22 305.44 14.00Q305.93 12.79 306.62 11.89Q307.32 10.99 308.18 10.42Q309.05 9.84 310.04 9.55Q311.04 9.26 312.14 9.26L312.14 9.26Q314.33 9.26 316.03 10.43Q317.74 11.59 318.73 14.00Q319.73 16.42 319.73 20.21L319.73 20.21Q319.73 22.10 319.48 23.65Q319.22 25.20 318.73 26.41Q318.24 27.62 317.56 28.54Q316.87 29.45 316.03 30.02Q315.19 30.60 314.22 30.89Q313.25 31.18 312.14 31.18ZM312.10 29.52L312.10 29.52Q312.96 29.52 313.72 29.27Q314.47 29.02 315.12 28.51Q315.77 28.01 316.28 27.24Q316.80 26.47 317.16 25.44Q317.52 24.41 317.71 23.10Q317.90 21.79 317.90 20.21L317.90 20.21Q317.90 17.02 317.16 14.98Q316.42 12.94 315.12 11.93Q313.82 10.92 312.10 10.92L312.10 10.92Q311.23 10.92 310.48 11.16Q309.72 11.40 309.07 11.90Q308.42 12.41 307.91 13.18Q307.39 13.94 307.02 14.96Q306.65 15.98 306.46 17.30Q306.26 18.62 306.26 20.21L306.26 20.21Q306.26 23.38 307.02 25.43Q307.78 27.48 309.08 28.50Q310.39 29.52 312.10 29.52ZM341.40 31.13L341.40 31.13Q340.85 31.13 340.44 30.97Q340.03 30.82 339.77 30.52Q339.50 30.22 339.37 29.75Q339.24 29.28 339.24 28.70L339.24 28.70L339.24 22.73Q339.24 21.79 338.99 21.14Q338.74 20.50 338.21 20.16Q337.68 19.82 336.79 19.82L336.79 19.82Q336.17 19.82 335.53 20.09Q334.90 20.35 334.33 20.89Q333.77 21.43 333.31 22.33Q332.86 23.23 332.57 24.50L332.57 24.50L332.57 30.55Q332.57 30.82 332.35 30.95Q332.14 31.08 331.70 31.08L331.70 31.08Q331.30 31.08 331.09 30.95Q330.89 30.82 330.89 30.55L330.89 30.55L330.89 18.89Q330.89 18.62 331.09 18.49Q331.30 18.36 331.70 18.36L331.70 18.36Q332.14 18.36 332.35 18.49Q332.57 18.62 332.57 18.89L332.57 18.89L332.57 21.53Q332.95 20.64 333.46 20.02Q333.96 19.39 334.56 19.01Q335.16 18.62 335.77 18.44Q336.38 18.26 337.03 18.26L337.03 18.26Q338.16 18.26 339.04 18.68Q339.91 19.10 340.42 20.04Q340.92 20.98 340.92 22.51L340.92 22.51L340.92 28.42Q340.92 28.82 341.00 29.09Q341.09 29.35 341.27 29.50Q341.45 29.64 341.74 29.64L341.74 29.64Q341.98 29.64 342.17 29.54Q342.36 29.45 342.58 29.26Q342.79 29.06 343.01 28.80L343.01 28.80Q343.15 28.63 343.34 28.67Q343.54 28.70 343.73 28.85L343.73 28.85Q343.92 29.02 343.97 29.21Q344.02 29.40 343.90 29.59L343.90 29.59Q343.61 30.07 343.21 30.42Q342.82 30.77 342.36 30.95Q341.90 31.13 341.40 31.13ZM351.07 31.18L351.07 31.18Q349.44 31.18 348.20 30.36Q346.97 29.54 346.28 28.09Q345.60 26.64 345.60 24.72L345.60 24.72Q345.60 23.30 346.01 22.12Q346.42 20.93 347.15 20.08Q347.88 19.22 348.88 18.74Q349.87 18.26 351.07 18.26L351.07 18.26Q352.66 18.26 353.89 19.09Q355.13 19.92 355.82 21.37Q356.52 22.82 356.52 24.70L356.52 24.70Q356.52 25.85 356.27 26.83Q356.02 27.82 355.54 28.62Q355.06 29.42 354.38 29.99Q353.71 30.55 352.87 30.86Q352.03 31.18 351.07 31.18ZM351.07 29.62L351.07 29.62Q351.94 29.62 352.62 29.26Q353.30 28.90 353.80 28.25Q354.29 27.60 354.54 26.70Q354.79 25.80 354.79 24.70L354.79 24.70Q354.79 23.23 354.34 22.13Q353.88 21.02 353.05 20.42Q352.22 19.82 351.07 19.82L351.07 19.82Q350.23 19.82 349.52 20.16Q348.82 20.50 348.32 21.16Q347.83 21.82 347.58 22.72Q347.33 23.62 347.33 24.72L347.33 24.72Q347.33 26.18 347.80 27.29Q348.26 28.39 349.09 29.00Q349.92 29.62 351.07 29.62ZM361.92 31.08L361.92 31.08Q361.51 31.08 361.31 30.95Q361.10 30.82 361.10 30.55L361.10 30.55L361.10 21.60Q361.10 20.64 360.82 20.22Q360.53 19.80 359.93 19.80L359.93 19.80Q359.52 19.80 359.21 20.04Q358.90 20.28 358.69 20.76Q358.49 21.24 358.34 22.01L358.34 22.01Q358.30 22.30 358.10 22.42Q357.91 22.54 357.55 22.51L357.55 22.51Q357.26 22.46 357.08 22.31Q356.90 22.15 356.98 21.74L356.98 21.74Q357.12 20.66 357.50 19.90Q357.89 19.13 358.52 18.73Q359.16 18.34 360.00 18.34L360.00 18.34Q360.60 18.34 361.06 18.48Q361.51 18.62 361.86 18.95Q362.21 19.27 362.41 19.75Q362.62 20.23 362.71 20.88L362.71 20.88L362.71 21.67Q363.00 20.74 363.40 20.10Q363.79 19.46 364.22 19.06Q364.66 18.65 365.10 18.46Q365.54 18.26 365.95 18.26L365.95 18.26Q366.29 18.26 366.50 18.41Q366.72 18.55 366.72 19.03L366.72 19.03Q366.74 19.80 366.89 20.27Q367.03 20.74 367.27 20.94Q367.51 21.14 367.85 21.14L367.85 21.14Q368.52 21.14 369.22 20.68Q369.91 20.21 370.70 19.46L370.70 19.46Q370.87 19.30 371.09 19.36Q371.30 19.42 371.48 19.62Q371.66 19.82 371.71 20.04Q371.76 20.26 371.62 20.42L371.62 20.42Q370.75 21.36 369.77 21.92Q368.78 22.49 367.80 22.49L367.80 22.49Q367.22 22.49 366.72 22.22Q366.22 21.96 365.88 21.38Q365.54 20.81 365.45 19.92L365.45 19.92Q365.04 20.04 364.66 20.44Q364.27 20.83 363.92 21.47Q363.58 22.10 363.29 22.99Q363.00 23.88 362.78 24.98L362.78 24.98L362.78 30.55Q362.78 30.82 362.57 30.95Q362.35 31.08 361.92 31.08ZM391.82 31.13L391.82 31.13Q391.32 31.13 390.91 30.97Q390.50 30.82 390.24 30.52Q389.98 30.22 389.84 29.75Q389.71 29.28 389.71 28.70L389.71 28.70L389.71 22.73Q389.71 21.79 389.48 21.14Q389.26 20.50 388.74 20.16Q388.22 19.82 387.36 19.82L387.36 19.82Q386.66 19.82 386.00 20.15Q385.34 20.47 384.76 21.16Q384.17 21.84 383.71 22.93Q383.26 24.02 383.02 25.56L383.02 25.56L382.39 25.56Q382.46 23.64 382.93 22.26Q383.40 20.88 384.12 19.98Q384.84 19.08 385.74 18.67Q386.64 18.26 387.58 18.26L387.58 18.26Q388.68 18.26 389.52 18.68Q390.36 19.10 390.88 20.04Q391.39 20.98 391.39 22.51L391.39 22.51L391.39 28.42Q391.39 28.82 391.48 29.09Q391.56 29.35 391.74 29.50Q391.92 29.64 392.18 29.64L392.18 29.64Q392.47 29.64 392.66 29.54Q392.86 29.45 393.06 29.26Q393.26 29.06 393.48 28.80L393.48 28.80Q393.60 28.63 393.79 28.66Q393.98 28.68 394.20 28.87L394.20 28.87Q394.37 29.02 394.42 29.21Q394.46 29.40 394.37 29.59L394.37 29.59Q394.10 30.05 393.70 30.41Q393.29 30.77 392.82 30.95Q392.35 31.13 391.82 31.13ZM374.54 31.08L374.54 31.08Q374.14 31.08 373.93 30.95Q373.73 30.82 373.73 30.55L373.73 30.55L373.73 18.89Q373.73 18.62 373.93 18.49Q374.14 18.36 374.54 18.36L374.54 18.36Q374.98 18.36 375.19 18.49Q375.41 18.62 375.41 18.89L375.41 18.89L375.41 21.48Q375.82 20.52 376.32 19.91Q376.82 19.30 377.40 18.94Q377.98 18.58 378.54 18.42Q379.10 18.26 379.58 18.26L379.58 18.26Q380.66 18.26 381.53 18.68Q382.39 19.10 382.90 20.04Q383.40 20.98 383.40 22.51L383.40 22.51L383.40 30.55Q383.40 30.82 383.20 30.95Q382.99 31.08 382.56 31.08L382.56 31.08Q382.13 31.08 381.92 30.95Q381.72 30.82 381.72 30.55L381.72 30.55L381.72 22.73Q381.72 21.79 381.50 21.14Q381.29 20.50 380.76 20.16Q380.23 19.82 379.37 19.82L379.37 19.82Q378.79 19.82 378.22 20.08Q377.64 20.33 377.10 20.90Q376.56 21.48 376.13 22.36Q375.70 23.23 375.41 24.46L375.41 24.46L375.41 30.55Q375.41 30.82 375.19 30.95Q374.98 31.08 374.54 31.08ZM400.51 31.13L400.51 31.13Q399.22 31.13 398.20 30.44Q397.18 29.76 396.61 28.43Q396.05 27.10 396.05 25.13L396.05 25.13Q396.05 23.90 396.28 22.84Q396.50 21.77 396.96 20.93Q397.42 20.09 398.08 19.49Q398.74 18.89 399.59 18.58Q400.44 18.26 401.52 18.26L401.52 18.26Q402.29 18.26 403.08 18.49Q403.87 18.72 404.64 19.18L404.64 19.18L404.64 18.94Q404.64 18.65 404.84 18.50Q405.05 18.36 405.48 18.36L405.48 18.36Q405.91 18.36 406.12 18.49Q406.32 18.62 406.32 18.91L406.32 18.91L406.32 28.42Q406.32 28.82 406.40 29.10Q406.49 29.38 406.68 29.51Q406.87 29.64 407.11 29.64L407.11 29.64Q407.38 29.64 407.57 29.56Q407.76 29.47 407.95 29.28Q408.14 29.09 408.38 28.78L408.38 28.78Q408.53 28.61 408.71 28.63Q408.89 28.66 409.10 28.82L409.10 28.82Q409.30 28.99 409.36 29.20Q409.42 29.40 409.30 29.59L409.30 29.59Q409.03 30.07 408.64 30.41Q408.24 30.74 407.77 30.94Q407.30 31.13 406.82 31.13L406.82 31.13Q406.30 31.13 405.91 31.00Q405.53 30.86 405.25 30.59Q404.98 30.31 404.83 29.92Q404.69 29.52 404.64 28.99L404.64 28.99Q404.64 28.80 404.64 28.56Q404.64 28.32 404.64 28.08L404.64 28.08Q404.09 29.23 403.42 29.90Q402.74 30.58 402.00 30.85Q401.26 31.13 400.51 31.13ZM397.78 25.06L397.78 25.06Q397.78 26.38 398.10 27.41Q398.42 28.44 399.10 29.00Q399.77 29.57 400.78 29.57L400.78 29.57Q401.57 29.57 402.29 29.12Q403.01 28.68 403.62 27.73Q404.23 26.78 404.64 25.32L404.64 25.32L404.64 20.66Q403.82 20.16 403.10 19.98Q402.38 19.80 401.64 19.80L401.64 19.80Q400.92 19.80 400.32 20.02Q399.72 20.23 399.25 20.65Q398.78 21.07 398.45 21.71Q398.11 22.34 397.94 23.17Q397.78 24 397.78 25.06ZM407.76 31.13L407.76 31.13Q407.38 31.13 407.21 30.90Q407.04 30.67 407.04 30.38Q407.04 30.10 407.21 29.87Q407.38 29.64 407.76 29.64L407.76 29.64Q408.46 29.64 409.15 29.29Q409.85 28.94 410.53 28.31Q411.22 27.67 411.86 26.78Q412.51 25.90 413.10 24.85Q413.69 23.81 414.23 22.62Q414.77 21.43 415.18 20.20Q415.58 18.96 415.88 17.70Q416.18 16.44 416.34 15.22Q416.50 13.99 416.50 12.91L416.50 12.91Q416.50 12.62 416.76 12.46Q417.02 12.29 417.35 12.29Q417.67 12.29 417.94 12.46Q418.20 12.62 418.20 12.91L418.20 12.91Q418.20 13.99 418.01 15.24Q417.82 16.49 417.46 17.82Q417.10 19.15 416.60 20.50Q416.11 21.84 415.51 23.16Q414.91 24.48 414.20 25.66Q413.50 26.83 412.72 27.83Q411.94 28.82 411.12 29.57Q410.30 30.31 409.45 30.72Q408.60 31.13 407.76 31.13ZM414.70 31.13L414.70 31.13Q414.14 31.13 413.74 30.97Q413.33 30.82 413.06 30.52Q412.80 30.22 412.67 29.75Q412.54 29.28 412.54 28.70L412.54 28.70L412.54 13.82Q412.54 11.45 413.26 10.31Q413.98 9.17 415.46 9.17L415.46 9.17Q416.40 9.17 417.00 9.60Q417.60 10.03 417.90 10.86Q418.20 11.69 418.20 12.91L418.20 12.91Q418.20 13.30 417.94 13.48Q417.67 13.66 417.35 13.66Q417.02 13.66 416.76 13.48Q416.50 13.30 416.50 12.91L416.50 12.91Q416.50 12.17 416.39 11.70Q416.28 11.23 416.04 10.98Q415.80 10.73 415.42 10.73L415.42 10.73Q415.03 10.73 414.76 11.03Q414.48 11.33 414.35 12.02Q414.22 12.72 414.22 13.92L414.22 13.92L414.22 28.42Q414.22 28.82 414.30 29.09Q414.38 29.35 414.56 29.50Q414.74 29.64 415.01 29.64L415.01 29.64Q415.25 29.64 415.46 29.54Q415.68 29.45 415.88 29.26Q416.09 29.06 416.28 28.80L416.28 28.80Q416.42 28.63 416.63 28.67Q416.83 28.70 417.00 28.85L417.00 28.85Q417.22 29.02 417.25 29.21Q417.29 29.40 417.19 29.59L417.19 29.59Q416.93 30.07 416.52 30.42Q416.11 30.77 415.64 30.95Q415.18 31.13 414.70 31.13Z"/></svg>