<svg xmlns="http://www.w3.org/2000/svg" xmlns:xlink="http://www.w3.org/1999/xlink" width="129.12" height="24"><path fill="black" d="M7.15 12.79L5.81 12.79L2.86 5.38Q2.81 5.26 2.70 5.14Q2.59 5.02 2.35 4.97L2.35 4.97L1.32 4.70L1.42 3.82L6.41 3.82L6.29 4.70L4.78 5.04L7.25 11.45L6.65 11.45L10.30 5.04L8.74 4.70L8.86 3.82L13.22 3.82L13.10 4.70L12.12 4.94Q11.71 5.02 11.52 5.35L11.52 5.35L7.15 12.79ZM8.88 17.47L2.90 17.47L3.02 16.58L4.46 16.34Q4.80 16.30 4.94 16.18Q5.09 16.06 5.14 15.60L5.14 15.60L5.59 12L7.51 12L7.06 15.74Q7.03 16.06 7.15 16.18Q7.27 16.30 7.58 16.34L7.58 16.34L9 16.58L8.88 17.47ZM15.77 17.47L13.87 17.47L14.74 10.63Q14.78 10.34 14.83 9.91Q14.88 9.48 14.88 9.24L14.88 9.24Q14.88 8.95 14.71 8.82Q14.54 8.69 14.30 8.69L14.30 8.69L13.37 8.69L13.46 7.87Q13.92 7.68 14.58 7.50Q15.24 7.32 15.70 7.32L15.70 7.32Q16.37 7.32 16.56 7.72Q16.75 8.11 16.68 8.83L16.68 8.83L16.51 10.85L15.77 17.47ZM16.27 12.36L16.18 11.57Q16.97 9.34 17.89 8.26Q18.82 7.18 19.85 7.18L19.85 7.18Q20.26 7.18 20.45 7.37Q20.64 7.56 20.64 7.99L20.64 7.99Q20.64 8.30 20.59 8.60Q20.54 8.90 20.47 9.19L20.47 9.19L19.78 9.19Q18.60 9.19 17.80 9.95Q16.99 10.70 16.27 12.36L16.27 12.36ZM24.41 17.76L24.41 17.76Q23.76 17.76 23.20 17.65Q22.63 17.54 22.20 17.30L22.20 17.30Q21.77 17.06 21.55 16.74Q21.34 16.42 21.34 15.91L21.34 15.91Q21.34 15.53 21.46 15.04Q21.58 14.54 21.72 14.11L21.72 14.11L22.73 14.11Q22.80 15.46 23.34 16.10Q23.88 16.75 24.91 16.75L24.91 16.75Q25.70 16.75 26.24 16.34Q26.78 15.94 26.78 15.22L26.78 15.22Q26.78 14.54 26.33 14.09Q25.87 13.63 25.20 13.28Q24.53 12.94 23.84 12.54Q23.16 12.14 22.70 11.59Q22.25 11.04 22.25 10.18L22.25 10.18Q22.25 9.36 22.74 8.68Q23.23 7.99 24.10 7.58Q24.96 7.18 26.09 7.18L26.09 7.18Q26.66 7.18 27.20 7.28Q27.74 7.39 28.13 7.56L28.13 7.56Q28.51 7.78 28.66 8.02Q28.80 8.26 28.80 8.62L28.80 8.62Q28.80 8.98 28.69 9.44Q28.58 9.91 28.46 10.32L28.46 10.32L27.50 10.32Q27.38 9.19 26.92 8.68Q26.45 8.16 25.66 8.16L25.66 8.16Q24.86 8.16 24.43 8.58Q24.00 9.00 24.00 9.58L24.00 9.58Q24.00 10.25 24.46 10.67Q24.91 11.09 25.60 11.44Q26.28 11.78 26.95 12.17Q27.62 12.55 28.09 13.13Q28.56 13.70 28.56 14.59L28.56 14.59Q28.56 15.48 28.04 16.20Q27.53 16.92 26.59 17.34Q25.66 17.76 24.41 17.76ZM33.26 17.69L33.26 17.69Q32.11 17.69 31.30 16.73Q30.48 15.77 30.50 13.73L30.50 13.73Q30.50 11.93 31.16 10.48Q31.82 9.02 33.01 8.17Q34.20 7.32 35.76 7.32L35.76 7.32Q36.46 7.32 37.12 7.48Q37.78 7.63 38.33 7.90L38.33 7.90L37.85 9.50Q37.42 8.83 36.82 8.56Q36.22 8.28 35.59 8.28L35.59 8.28Q34.75 8.28 34.16 8.72Q33.58 9.17 33.20 9.91Q32.83 10.66 32.66 11.54Q32.50 12.43 32.50 13.32L32.50 13.32Q32.47 14.66 32.86 15.46Q33.24 16.25 33.94 16.25L33.94 16.25Q34.37 16.25 34.91 15.90Q35.45 15.55 35.93 14.90Q36.41 14.26 36.74 13.37L36.74 13.37L37.03 13.54Q36.60 15.62 35.54 16.66Q34.49 17.69 33.26 17.69ZM37.61 17.64L37.61 17.64Q37.03 17.64 36.76 17.29Q36.48 16.94 36.48 16.22L36.48 16.22Q36.48 15.96 36.50 15.54Q36.53 15.12 36.58 14.47L36.58 14.47L37.37 8.04L38.90 7.20L39.24 7.49L38.40 14.33Q38.38 14.64 38.34 15.05Q38.30 15.46 38.30 15.67L38.30 15.67Q38.30 16.13 38.59 16.13L38.59 16.13Q38.81 16.13 39.18 15.95Q39.55 15.77 40.15 15.41L40.15 15.41L40.51 16.15Q39.86 16.85 39.04 17.24Q38.21 17.64 37.61 17.64ZM46.94 15.12L46.49 14.09Q47.47 12.72 48.47 11.24Q49.46 9.77 50.38 8.29Q51.29 6.82 52.06 5.42L52.06 5.42L53.83 5.42L54.02 5.90Q51.98 9.19 50.29 11.33Q48.60 13.46 47.35 14.57L47.35 14.57L47.16 14.11L55.58 13.78L55.42 15.12L46.94 15.12ZM51.50 17.47L51.89 14.42L52.58 10.92L54.19 10.87L53.38 17.47L51.50 17.47ZM60.91 17.74L60.91 17.74Q59.28 17.74 58.36 16.55Q57.43 15.36 57.43 13.03L57.43 13.03Q57.43 11.50 57.82 10.09Q58.20 8.69 58.92 7.60Q59.64 6.50 60.65 5.87Q61.66 5.23 62.90 5.23L62.90 5.23Q64.58 5.23 65.48 6.48Q66.38 7.73 66.38 9.96L66.38 9.96Q66.38 11.52 65.99 12.92Q65.59 14.33 64.88 15.41Q64.18 16.49 63.17 17.11Q62.16 17.74 60.91 17.74ZM61.30 16.70L61.30 16.70Q61.97 16.70 62.52 16.18Q63.07 15.65 63.48 14.74Q63.89 13.82 64.10 12.64Q64.32 11.45 64.32 10.10L64.32 10.10Q64.32 8.47 63.89 7.38Q63.46 6.29 62.50 6.29L62.50 6.29Q61.82 6.29 61.27 6.82Q60.72 7.34 60.31 8.26Q59.90 9.17 59.69 10.36Q59.47 11.54 59.47 12.86L59.47 12.86Q59.47 14.54 59.90 15.62Q60.34 16.70 61.30 16.70ZM71.81 17.74L71.81 17.74Q70.18 17.74 69.25 16.55Q68.33 15.36 68.33 13.03L68.33 13.03Q68.33 11.50 68.71 10.09Q69.10 8.69 69.82 7.60Q70.54 6.50 71.54 5.87Q72.55 5.23 73.80 5.23L73.80 5.23Q75.48 5.23 76.38 6.48Q77.28 7.73 77.28 9.96L77.28 9.96Q77.28 11.52 76.88 12.92Q76.49 14.33 75.78 15.41Q75.07 16.49 74.06 17.11Q73.06 17.74 71.81 17.74ZM72.19 16.70L72.19 16.70Q72.86 16.70 73.42 16.18Q73.97 15.65 74.38 14.74Q74.78 13.82 75 12.64Q75.22 11.45 75.22 10.10L75.22 10.10Q75.22 8.47 74.78 7.38Q74.35 6.29 73.39 6.29L73.39 6.29Q72.72 6.29 72.17 6.82Q71.62 7.34 71.21 8.26Q70.80 9.17 70.58 10.36Q70.37 11.54 70.37 12.86L70.37 12.86Q70.37 14.54 70.80 15.62Q71.23 16.70 72.19 16.70ZM85.78 17.64L85.78 17.64Q84.65 17.64 84.65 16.42L84.65 16.42Q84.65 15.98 84.71 15.47Q84.77 14.95 84.86 14.38L84.86 14.38L85.42 10.63Q85.49 10.20 85.52 9.86Q85.56 9.53 85.56 9.31L85.56 9.31Q85.56 8.93 85.40 8.81Q85.25 8.69 84.98 8.69L84.98 8.69L84.05 8.69L84.14 7.87Q84.79 7.61 85.37 7.46Q85.94 7.32 86.35 7.32L86.35 7.32Q86.93 7.32 87.20 7.58Q87.48 7.85 87.48 8.42L87.48 8.42Q87.48 8.64 87.44 8.96Q87.41 9.29 87.36 9.65L87.36 9.65L86.69 14.33Q86.64 14.69 86.59 15.08Q86.54 15.48 86.54 15.72L86.54 15.72Q86.54 16.13 86.83 16.13L86.83 16.13Q87.07 16.13 87.44 15.94Q87.82 15.74 88.42 15.41L88.42 15.41L88.78 16.15Q88.13 16.85 87.30 17.24Q86.47 17.64 85.78 17.64ZM86.71 5.81L86.71 5.81Q86.18 5.81 85.86 5.51Q85.54 5.21 85.54 4.68L85.54 4.68Q85.54 4.15 85.92 3.74Q86.30 3.34 86.90 3.34L86.90 3.34Q87.46 3.34 87.78 3.65Q88.10 3.96 88.10 4.46L88.10 4.46Q88.10 4.99 87.71 5.40Q87.31 5.81 86.71 5.81ZM92.69 17.66L92.69 17.66Q91.78 17.66 91.27 17.12Q90.77 16.58 90.77 15.34L90.77 15.34Q90.77 14.86 90.84 14.23Q90.91 13.61 90.96 13.15L90.96 13.15L91.61 8.06L92.78 4.54L93.84 4.54L92.83 12.72Q92.76 13.20 92.71 13.76Q92.66 14.33 92.66 14.71L92.66 14.71Q92.66 15.50 92.88 15.86Q93.10 16.22 93.58 16.22L93.58 16.22Q94.03 16.22 94.52 16.00Q95.02 15.77 95.54 15.43L95.54 15.43L95.95 16.18Q95.45 16.70 94.56 17.18Q93.67 17.66 92.69 17.66ZM96.31 8.66L90 8.66L90.10 7.85Q90.53 7.68 91.08 7.55Q91.63 7.42 92.23 7.37L92.23 7.37L92.90 7.49L96.46 7.49L96.31 8.66ZM100.32 17.69L100.32 17.69Q99.17 17.69 98.35 16.73Q97.54 15.77 97.56 13.73L97.56 13.73Q97.56 11.93 98.22 10.48Q98.88 9.02 100.07 8.17Q101.26 7.32 102.82 7.32L102.82 7.32Q103.51 7.32 104.17 7.48Q104.83 7.63 105.38 7.90L105.38 7.90L104.90 9.50Q104.47 8.83 103.87 8.56Q103.27 8.28 102.65 8.28L102.65 8.28Q101.81 8.28 101.22 8.72Q100.63 9.17 100.26 9.91Q99.89 10.66 99.72 11.54Q99.55 12.43 99.55 13.32L99.55 13.32Q99.53 14.66 99.91 15.46Q100.30 16.25 100.99 16.25L100.99 16.25Q101.42 16.25 101.96 15.90Q102.50 15.55 102.98 14.90Q103.46 14.26 103.80 13.37L103.80 13.37L104.09 13.54Q103.66 15.62 102.60 16.66Q101.54 17.69 100.32 17.69ZM104.66 17.64L104.66 17.64Q104.09 17.64 103.81 17.29Q103.54 16.94 103.54 16.22L103.54 16.22Q103.54 15.96 103.56 15.54Q103.58 15.12 103.63 14.47L103.63 14.47L104.42 8.04L105.96 7.20L106.30 7.49L105.46 14.33Q105.43 14.64 105.40 15.05Q105.36 15.46 105.36 15.67L105.36 15.67Q105.36 16.13 105.65 16.13L105.65 16.13Q105.86 16.13 106.24 15.95Q106.61 15.77 107.21 15.41L107.21 15.41L107.57 16.15Q106.92 16.85 106.09 17.24Q105.26 17.64 104.66 17.64ZM110.33 17.64L110.33 17.64Q109.20 17.64 109.20 16.44L109.20 16.44Q109.20 16.13 109.26 15.61Q109.32 15.10 109.39 14.38L109.39 14.38L110.57 5.06Q110.62 4.68 110.66 4.27Q110.71 3.86 110.71 3.67L110.71 3.67Q110.71 3.38 110.54 3.25Q110.38 3.12 110.14 3.12L110.14 3.12L109.20 3.12L109.30 2.33Q110.64 1.78 111.53 1.78L111.53 1.78Q112.10 1.78 112.37 2.04Q112.63 2.30 112.63 2.86L112.63 2.86Q112.63 3.07 112.60 3.40Q112.56 3.72 112.51 4.10L112.51 4.10L111.24 14.33Q111.19 14.66 111.16 15.07Q111.12 15.48 111.12 15.74L111.12 15.74Q111.12 16.13 111.41 16.13L111.41 16.13Q111.62 16.13 112.00 15.95Q112.37 15.77 112.97 15.41L112.97 15.41L113.33 16.15Q112.70 16.85 111.85 17.24Q111 17.64 110.33 17.64ZM116.23 17.64L116.23 17.64Q115.10 17.64 115.10 16.42L115.10 16.42Q115.10 15.98 115.16 15.47Q115.22 14.95 115.32 14.38L115.32 14.38L115.87 10.63Q115.94 10.20 115.98 9.86Q116.02 9.53 116.02 9.31L116.02 9.31Q116.02 8.93 115.86 8.81Q115.70 8.69 115.44 8.69L115.44 8.69L114.50 8.69L114.60 7.87Q115.25 7.61 115.82 7.46Q116.40 7.32 116.81 7.32L116.81 7.32Q117.38 7.32 117.66 7.58Q117.94 7.85 117.94 8.42L117.94 8.42Q117.94 8.64 117.90 8.96Q117.86 9.29 117.82 9.65L117.82 9.65L117.14 14.33Q117.10 14.69 117.05 15.08Q117 15.48 117 15.72L117 15.72Q117 16.13 117.29 16.13L117.29 16.13Q117.53 16.13 117.90 15.94Q118.27 15.74 118.87 15.41L118.87 15.41L119.23 16.15Q118.58 16.85 117.76 17.24Q116.93 17.64 116.23 17.64ZM117.17 5.81L117.17 5.81Q116.64 5.81 116.32 5.51Q115.99 5.21 115.99 4.68L115.99 4.68Q115.99 4.15 116.38 3.74Q116.76 3.34 117.36 3.34L117.36 3.34Q117.91 3.34 118.24 3.65Q118.56 3.96 118.56 4.46L118.56 4.46Q118.56 4.99 118.16 5.40Q117.77 5.81 117.17 5.81ZM123.70 17.78L123.70 17.78Q122.16 17.78 121.33 16.72Q120.50 15.65 120.50 13.70L120.50 13.70Q120.50 11.86 121.18 10.38Q121.85 8.90 123.05 8.04Q124.25 7.18 125.78 7.18L125.78 7.18Q126.34 7.18 126.84 7.30Q127.34 7.42 127.73 7.61L127.73 7.61Q128.11 7.82 128.24 8.06Q128.38 8.30 128.38 8.66L128.38 8.66Q128.38 9.14 128.26 9.83Q128.14 10.51 127.94 11.14L127.94 11.14L127.03 11.14Q126.86 9.67 126.53 8.93Q126.19 8.18 125.30 8.18L125.30 8.18Q124.42 8.18 123.78 8.87Q123.14 9.55 122.81 10.68Q122.47 11.81 122.47 13.13L122.47 13.13Q122.47 14.78 123 15.59Q123.53 16.39 124.46 16.39L124.46 16.39Q125.14 16.39 125.90 15.96Q126.67 15.53 127.49 14.81L127.49 14.81L127.99 15.53Q127.30 16.39 126.17 17.09Q125.04 17.78 123.70 17.78Z"/></svg>