<svg xmlns="http://www.w3.org/2000/svg" xmlns:xlink="http://www.w3.org/1999/xlink" width="119.98828125" height="30"><path fill="black" d="M0.09 23.55L0.09 23.55Q0.16 23.26 0.20 22.83Q0.23 22.41 0.23 21.95L0.23 21.95Q0.23 21.53 0.21 21.16Q0.18 20.79 0.12 20.51L0.12 20.51Q0.71 20.48 1.14 20.29Q1.56 20.10 1.83 19.86L1.83 19.86Q2.11 19.43 2.40 18.89Q2.70 18.35 2.94 17.78Q3.18 17.21 3.33 16.65Q3.48 16.08 3.48 15.59L3.48 15.59Q3.48 15.39 3.42 15.19Q3.36 14.99 3.22 14.94L3.22 14.94Q3.57 14.85 3.93 14.43Q4.28 14.00 4.61 13.38Q4.93 12.76 5.21 12Q5.50 11.24 5.71 10.46Q5.92 9.68 6.04 8.94Q6.15 8.20 6.15 7.63L6.15 7.63Q6.15 7.43 6.13 7.24Q6.11 7.05 6.11 6.93L6.11 6.93Q6.11 6.87 6.11 6.82Q6.12 6.77 6.12 6.68L6.12 6.68Q6.39 6.79 6.79 6.86Q7.20 6.94 7.70 6.99Q8.20 7.04 8.78 7.07Q9.35 7.09 9.97 7.09L9.97 7.09Q10.51 7.09 11.07 7.07Q11.64 7.04 12.16 6.99Q12.69 6.94 13.15 6.86Q13.61 6.79 13.91 6.68L13.91 6.68L13.91 6.73L13.91 6.83Q13.91 6.96 13.88 7.15Q13.85 7.35 13.85 7.58L13.85 7.58Q13.85 8.12 13.95 8.85Q14.05 9.57 14.23 10.35Q14.40 11.13 14.65 11.90Q14.91 12.67 15.21 13.31Q15.52 13.95 15.87 14.38Q16.22 14.82 16.61 14.94L16.61 14.94Q16.44 15 16.38 15.17Q16.31 15.34 16.31 15.59L16.31 15.59Q16.31 16.08 16.46 16.65Q16.61 17.21 16.85 17.78Q17.09 18.35 17.37 18.88Q17.66 19.41 17.94 19.83L17.94 19.83Q18.12 19.93 18.36 20.05Q18.61 20.17 18.88 20.27Q19.15 20.38 19.42 20.44Q19.69 20.51 19.92 20.51L19.92 20.51Q19.86 20.79 19.83 21.16Q19.80 21.53 19.80 21.95L19.80 21.95Q19.80 22.41 19.84 22.83Q19.88 23.26 19.95 23.55L19.95 23.55Q19.52 23.51 18.97 23.46Q18.42 23.40 17.79 23.36Q17.16 23.32 16.48 23.29Q15.80 23.26 15.12 23.26L15.12 23.26Q13.88 23.26 12.76 23.34Q11.64 23.41 10.86 23.55L10.86 23.55Q10.90 23.36 10.93 22.93Q10.96 22.50 10.96 21.97L10.96 21.97Q10.96 21.75 10.95 21.52Q10.93 21.29 10.92 21.09Q10.91 20.89 10.89 20.74Q10.88 20.58 10.86 20.51L10.86 20.51Q11.07 20.51 11.31 20.49Q11.54 20.47 11.77 20.43Q12 20.38 12.21 20.30Q12.42 20.21 12.59 20.07L12.59 20.07Q12.56 19.61 12.43 19.27Q12.30 18.94 11.95 18.71Q11.59 18.49 10.95 18.39Q10.31 18.28 9.28 18.28L9.28 18.28Q8.36 18.28 7.74 18.35Q7.13 18.42 6.74 18.62Q6.36 18.81 6.18 19.15Q6 19.50 5.95 20.06L5.95 20.06Q6.13 20.20 6.38 20.29Q6.62 20.37 6.88 20.42Q7.15 20.47 7.41 20.49Q7.68 20.51 7.89 20.51L7.89 20.51Q7.86 20.58 7.85 20.73Q7.83 20.88 7.82 21.09Q7.80 21.29 7.80 21.53Q7.79 21.76 7.79 21.97L7.79 21.97Q7.79 22.50 7.82 22.93Q7.85 23.36 7.89 23.55L7.89 23.55Q7.00 23.39 6.08 23.33Q5.17 23.26 4.22 23.26L4.22 23.26Q3.12 23.26 2.08 23.33Q1.04 23.39 0.09 23.55ZM7.59 14.85L7.59 14.85Q7.59 15.19 7.67 15.41Q7.75 15.63 7.94 15.76Q8.13 15.89 8.47 15.94Q8.80 16.00 9.32 16.00L9.32 16.00Q9.83 16.00 10.17 15.94Q10.50 15.89 10.69 15.76Q10.89 15.63 10.96 15.41Q11.04 15.19 11.04 14.85L11.04 14.85Q11.04 14.44 10.83 13.84Q10.62 13.24 10.34 12.59Q10.05 11.93 9.76 11.27Q9.47 10.62 9.32 10.09L9.32 10.09Q9.14 10.62 8.85 11.27Q8.55 11.93 8.28 12.59Q8.00 13.24 7.80 13.84Q7.59 14.44 7.59 14.85ZM21.29 23.55L21.29 23.55Q21.39 23.25 21.42 22.83Q21.46 22.41 21.46 22.00L21.46 22.00Q21.46 21.62 21.41 21.25Q21.36 20.87 21.29 20.51L21.29 20.51Q21.95 20.51 22.38 20.45Q22.80 20.39 23.06 20.24Q23.32 20.10 23.42 19.83Q23.52 19.56 23.52 19.14L23.52 19.14L23.52 15.88Q23.51 15.38 23.39 15.08Q23.27 14.78 23.07 14.62Q22.86 14.46 22.56 14.41Q22.27 14.36 21.89 14.36L21.89 14.36L21.53 14.36Q21.62 14.12 21.69 13.71Q21.76 13.29 21.76 12.83L21.76 12.83Q21.76 12.39 21.70 11.98Q21.63 11.58 21.53 11.33L21.53 11.33Q21.87 11.38 22.34 11.40Q22.82 11.43 23.37 11.43L23.37 11.43Q23.93 11.43 24.53 11.40Q25.14 11.37 25.71 11.31Q26.29 11.25 26.79 11.14Q27.30 11.04 27.68 10.90L27.68 10.90Q27.60 11.13 27.57 11.37Q27.54 11.61 27.54 11.87L27.54 11.87Q27.54 12.23 27.59 12.60Q27.64 12.96 27.70 13.30L27.70 13.30Q28.21 13.16 28.76 12.90Q29.32 12.63 29.81 12.30Q30.29 11.98 30.63 11.61Q30.97 11.25 31.05 10.90L31.05 10.90Q31.39 11.10 31.94 11.20Q32.48 11.31 33.19 11.31L33.19 11.31Q33.47 11.31 33.77 11.29Q34.08 11.27 34.37 11.23Q34.65 11.19 34.89 11.11Q35.13 11.03 35.29 10.90L35.29 10.90Q35.19 11.13 35.14 11.48Q35.09 11.84 35.06 12.24Q35.03 12.64 35.02 13.06Q35.00 13.48 35.00 13.84L35.00 13.84Q35.00 14.20 35.03 14.67Q35.05 15.13 35.09 15.56Q35.12 15.98 35.17 16.30Q35.23 16.62 35.29 16.70L35.29 16.70Q34.90 16.61 34.32 16.54Q33.74 16.48 33.11 16.48L33.11 16.48Q32.47 16.48 31.91 16.54Q31.35 16.61 31.00 16.70L31.00 16.70Q31.00 15.45 30.71 14.94Q30.42 14.44 29.86 14.44L29.86 14.44Q29.58 14.44 29.24 14.60Q28.91 14.75 28.62 15.06Q28.34 15.36 28.13 15.80Q27.91 16.24 27.88 16.80L27.88 16.80L27.89 19.14Q27.89 19.56 28.13 19.83Q28.37 20.10 28.79 20.24Q29.21 20.39 29.80 20.45Q30.39 20.51 31.08 20.51L31.08 20.51Q31.01 20.75 30.97 21.12Q30.93 21.48 30.93 21.89L30.93 21.89Q30.93 22.34 30.96 22.79Q31.00 23.24 31.08 23.55L31.08 23.55Q30.70 23.50 30.15 23.44Q29.60 23.39 28.95 23.35Q28.29 23.31 27.55 23.29Q26.81 23.26 26.07 23.26L26.07 23.26Q25.51 23.26 24.81 23.28Q24.12 23.30 23.44 23.34Q22.76 23.38 22.18 23.43Q21.60 23.48 21.29 23.55ZM38.04 23.55L38.04 23.55Q38.12 23.44 38.17 23.24Q38.21 23.05 38.24 22.83Q38.26 22.61 38.27 22.39Q38.27 22.17 38.27 22.00L38.27 22.00Q38.27 21.82 38.26 21.62Q38.25 21.41 38.23 21.21Q38.20 21 38.16 20.82Q38.11 20.64 38.04 20.51L38.04 20.51Q38.63 20.51 38.98 20.41Q39.34 20.31 39.53 20.09Q39.73 19.88 39.79 19.54Q39.84 19.20 39.84 18.71L39.84 18.71L39.84 17.29Q39.84 16.89 39.79 16.49Q39.74 16.10 39.63 15.79Q39.53 15.47 39.36 15.25Q39.20 15.02 38.99 14.96L38.99 14.96Q39.47 14.80 39.65 14.17Q39.83 13.54 39.83 12.33L39.83 12.33Q39.84 12.20 39.84 12.07Q39.83 11.94 39.83 11.80L39.83 11.80L39.80 9.38Q39.79 8.87 39.67 8.57Q39.56 8.27 39.35 8.12Q39.14 7.96 38.84 7.90Q38.54 7.85 38.17 7.85L38.17 7.85L37.80 7.85Q37.90 7.62 37.97 7.20Q38.04 6.79 38.04 6.33L38.04 6.33Q38.04 5.88 37.97 5.47Q37.91 5.05 37.80 4.80L37.80 4.80Q38.03 4.84 38.34 4.86Q38.66 4.89 39.04 4.90Q39.41 4.92 39.83 4.93Q40.25 4.95 40.70 4.95L40.70 4.95Q41.30 4.95 41.91 4.92Q42.52 4.90 43.07 4.85Q43.63 4.80 44.10 4.72Q44.58 4.64 44.89 4.51L44.89 4.51Q44.66 4.97 44.51 5.53Q44.37 6.09 44.29 6.73Q44.20 7.36 44.18 8.05Q44.16 8.74 44.16 9.46L44.16 9.46L44.16 12.40Q44.72 12.20 45.12 11.81Q45.53 11.43 45.80 10.90L45.80 10.90Q45.93 10.99 46.18 11.07Q46.44 11.14 46.77 11.20Q47.10 11.25 47.48 11.28Q47.86 11.31 48.25 11.31L48.25 11.31Q48.57 11.31 48.89 11.29Q49.21 11.26 49.48 11.21Q49.76 11.17 49.97 11.09Q50.19 11.02 50.32 10.90L50.32 10.90Q50.52 11.32 50.93 11.74Q51.34 12.15 51.88 12.50Q52.42 12.84 53.05 13.08Q53.68 13.31 54.34 13.36L54.34 13.36Q54.20 13.66 54.01 14.61Q53.81 15.55 53.81 17.19L53.81 17.19Q53.81 18.02 53.87 18.67Q53.93 19.31 54.01 19.79Q54.08 20.26 54.18 20.57Q54.27 20.88 54.34 21.04L54.34 21.04Q53.68 21.08 53.05 21.35Q52.42 21.61 51.88 21.99Q51.34 22.37 50.93 22.82Q50.52 23.26 50.32 23.67L50.32 23.67Q49.91 23.51 49.26 23.38Q48.61 23.26 47.75 23.26L47.75 23.26Q46.88 23.26 46.21 23.38Q45.54 23.51 45.09 23.67L45.09 23.67Q45.04 23.43 44.91 23.14Q44.79 22.85 44.60 22.57Q44.41 22.29 44.17 22.04Q43.92 21.79 43.62 21.62L43.62 21.62Q43.22 22.03 42.97 22.56Q42.71 23.09 42.68 23.55L42.68 23.55Q42.49 23.51 42.27 23.46Q42.05 23.40 41.76 23.36Q41.47 23.32 41.11 23.29Q40.75 23.26 40.29 23.26L40.29 23.26Q39.39 23.26 38.88 23.35Q38.37 23.44 38.04 23.55ZM44.33 17.20L44.33 17.20Q44.33 17.94 44.43 18.59Q44.52 19.23 44.77 19.71Q45.01 20.19 45.45 20.47Q45.88 20.74 46.56 20.74L46.56 20.74Q47.85 20.74 48.38 19.87Q48.90 19.00 48.90 17.20L48.90 17.20Q48.90 16.30 48.78 15.66Q48.66 15.02 48.38 14.61Q48.09 14.20 47.65 14.02Q47.20 13.83 46.56 13.83L46.56 13.83Q45.88 13.83 45.45 14.08Q45.01 14.33 44.77 14.78Q44.52 15.23 44.43 15.85Q44.33 16.46 44.33 17.20ZM57.82 21.14L57.82 21.14Q58.20 20.67 58.34 19.95Q58.48 19.22 58.46 18.20L58.46 18.20L58.44 15.88Q58.43 15.38 58.32 15.08Q58.22 14.78 58.02 14.62Q57.82 14.46 57.53 14.41Q57.23 14.36 56.86 14.36L56.86 14.36L56.50 14.36Q56.59 14.12 56.66 13.71Q56.73 13.29 56.73 12.83L56.73 12.83Q56.73 12.39 56.67 11.97Q56.60 11.55 56.50 11.31L56.50 11.31Q56.86 11.37 57.43 11.39Q58.01 11.41 58.70 11.41L58.70 11.41Q59.36 11.41 60.06 11.38Q60.77 11.36 61.43 11.30Q62.09 11.24 62.65 11.14Q63.21 11.04 63.59 10.90L63.59 10.90Q63.35 11.36 63.21 11.94Q63.06 12.52 62.98 13.17Q62.89 13.83 62.87 14.54Q62.85 15.25 62.85 15.96L62.85 15.96L62.85 18Q62.85 18.46 62.91 18.88Q62.96 19.30 63.14 19.63Q63.32 19.97 63.63 20.17Q63.95 20.37 64.46 20.37L64.46 20.37Q64.99 20.37 65.54 20.26Q66.08 20.16 66.53 19.89Q66.98 19.63 67.27 19.18Q67.55 18.74 67.55 18.07L67.55 18.07L67.55 15.88Q67.54 15.43 67.47 15.14Q67.41 14.85 67.22 14.67Q67.03 14.50 66.70 14.43Q66.36 14.36 65.80 14.36L65.80 14.36L65.55 14.36Q65.65 14.12 65.72 13.71Q65.79 13.29 65.79 12.83L65.79 12.83Q65.79 12.39 65.72 11.97Q65.66 11.55 65.55 11.31L65.55 11.31Q65.92 11.37 66.49 11.39Q67.07 11.41 67.76 11.41L67.76 11.41Q68.41 11.41 69.12 11.38Q69.83 11.36 70.49 11.30Q71.14 11.24 71.71 11.14Q72.27 11.04 72.64 10.90L72.64 10.90Q72.40 11.18 72.25 11.57Q72.09 11.96 72.02 12.44Q71.94 12.91 71.92 13.45Q71.89 13.99 71.89 14.54L71.89 14.54Q71.89 14.91 71.90 15.26Q71.91 15.62 71.91 15.96L71.91 15.96L71.89 18.98Q71.89 19.46 71.92 19.76Q71.95 20.06 72.13 20.23Q72.30 20.39 72.69 20.45Q73.07 20.51 73.77 20.51L73.77 20.51Q73.68 20.78 73.62 21.17Q73.57 21.56 73.57 21.96L73.57 21.96Q73.57 22.41 73.61 22.85Q73.65 23.29 73.77 23.55L73.77 23.55Q73.49 23.43 72.86 23.34Q72.22 23.26 71.47 23.26L71.47 23.26Q70.63 23.26 69.94 23.34Q69.25 23.43 68.87 23.55L68.87 23.55Q68.87 23.14 68.79 22.83Q68.72 22.51 68.60 22.27Q68.48 22.02 68.33 21.84Q68.18 21.67 68.03 21.54L68.03 21.54Q67.54 21.63 67.08 21.86Q66.62 22.08 66.24 22.37Q65.86 22.65 65.59 22.97Q65.32 23.29 65.21 23.55L65.21 23.55Q65.12 23.48 64.86 23.43Q64.59 23.38 64.25 23.34Q63.90 23.30 63.52 23.28Q63.13 23.26 62.78 23.26L62.78 23.26Q62.43 23.26 62.04 23.28Q61.66 23.30 61.30 23.34Q60.94 23.38 60.64 23.43Q60.34 23.48 60.16 23.55L60.16 23.55Q60.06 23.14 59.84 22.75Q59.63 22.36 59.32 22.03Q59.02 21.70 58.63 21.47Q58.25 21.23 57.82 21.14ZM76.27 21.14L76.27 21.14Q76.65 20.67 76.78 19.95Q76.91 19.22 76.91 18.20L76.91 18.20L76.91 14.81Q76.90 14.60 76.85 14.43Q76.79 14.26 76.67 14.14Q76.55 14.02 76.34 13.95Q76.13 13.88 75.81 13.88L75.81 13.88Q75.63 13.88 75.43 13.90Q75.22 13.92 74.96 13.97L74.96 13.97Q75.02 13.63 75.05 13.23Q75.07 12.83 75.07 12.42L75.07 12.42Q75.07 12.05 75.05 11.68Q75.02 11.32 74.96 11.02L74.96 11.02Q75.08 11.10 75.26 11.15Q75.43 11.20 75.61 11.24Q75.79 11.27 75.94 11.29Q76.09 11.31 76.17 11.31L76.17 11.31Q76.51 11.31 76.68 11.04Q76.85 10.78 76.85 10.13L76.85 10.13Q76.85 10.02 76.85 9.83Q76.84 9.64 76.83 9.45Q76.82 9.25 76.79 9.07Q76.76 8.89 76.71 8.80L76.71 8.80Q76.80 8.82 76.90 8.82Q76.99 8.82 77.10 8.82L77.10 8.82Q77.70 8.82 78.36 8.63Q79.02 8.43 79.65 8.19Q80.27 7.96 80.81 7.76Q81.35 7.56 81.70 7.56L81.70 7.56Q81.61 7.84 81.55 8.18Q81.49 8.52 81.46 8.86Q81.42 9.20 81.40 9.52Q81.39 9.84 81.39 10.07L81.39 10.07Q81.39 10.45 81.48 10.69Q81.57 10.93 81.81 11.07Q82.05 11.20 82.48 11.26Q82.91 11.31 83.58 11.31L83.58 11.31Q83.86 11.31 84.24 11.30Q84.62 11.30 85.03 11.27Q85.44 11.24 85.85 11.18Q86.25 11.12 86.59 11.02L86.59 11.02Q86.47 11.32 86.43 11.73Q86.38 12.14 86.38 12.57L86.38 12.57Q86.38 13.07 86.43 13.49Q86.47 13.91 86.59 14.24L86.59 14.24Q86.19 14.20 85.72 14.16Q85.24 14.11 84.77 14.07Q84.30 14.03 83.91 14.00Q83.51 13.97 83.26 13.97L83.26 13.97Q82.68 13.97 82.29 14.02Q81.91 14.07 81.69 14.19Q81.47 14.30 81.38 14.47Q81.29 14.64 81.29 14.86L81.29 14.86L81.29 18Q81.29 18.46 81.35 18.97Q81.40 19.48 81.54 19.91Q81.68 20.34 81.93 20.63Q82.17 20.92 82.56 20.92L82.56 20.92Q82.98 20.92 83.27 20.75Q83.55 20.58 83.73 20.27Q83.91 19.97 83.98 19.55Q84.06 19.14 84.06 18.63L84.06 18.63Q84.32 18.69 84.75 18.75Q85.18 18.81 85.64 18.81L85.64 18.81Q86.09 18.81 86.48 18.75Q86.87 18.69 87.08 18.63L87.08 18.63Q86.99 18.89 86.95 19.35Q86.91 19.82 86.91 20.34L86.91 20.34Q86.91 20.87 86.94 21.33Q86.98 21.79 87.08 22.01L87.08 22.01L86.96 22.01Q86.53 22.01 86.03 22.14Q85.54 22.28 85.08 22.50Q84.62 22.72 84.24 23.00Q83.86 23.27 83.66 23.55L83.66 23.55Q83.57 23.48 83.30 23.43Q83.04 23.38 82.69 23.34Q82.35 23.30 81.96 23.28Q81.57 23.26 81.22 23.26L81.22 23.26Q80.87 23.26 80.49 23.28Q80.11 23.30 79.75 23.34Q79.38 23.38 79.08 23.43Q78.79 23.48 78.61 23.55L78.61 23.55Q78.50 23.14 78.29 22.75Q78.07 22.36 77.77 22.03Q77.46 21.70 77.08 21.47Q76.70 21.23 76.27 21.14ZM89.85 21.14L89.85 21.14Q90.22 20.67 90.36 19.95Q90.50 19.22 90.49 18.20L90.49 18.20L90.47 15.88Q90.46 15.38 90.35 15.08Q90.25 14.78 90.05 14.62Q89.85 14.46 89.55 14.41Q89.26 14.36 88.89 14.36L88.89 14.36L88.52 14.36Q88.62 14.12 88.69 13.71Q88.76 13.29 88.76 12.83L88.76 12.83Q88.76 12.39 88.69 11.97Q88.63 11.55 88.52 11.31L88.52 11.31Q88.89 11.37 89.46 11.39Q90.04 11.41 90.73 11.41L90.73 11.41Q91.38 11.41 92.09 11.38Q92.80 11.36 93.46 11.30Q94.11 11.24 94.68 11.14Q95.24 11.04 95.61 10.90L95.61 10.90Q95.38 11.36 95.23 11.94Q95.09 12.52 95.00 13.17Q94.92 13.83 94.90 14.54Q94.88 15.25 94.88 15.96L94.88 15.96L94.88 18Q94.88 18.46 94.93 18.88Q94.99 19.30 95.17 19.63Q95.34 19.97 95.66 20.17Q95.98 20.37 96.49 20.37L96.49 20.37Q97.02 20.37 97.56 20.26Q98.11 20.16 98.56 19.89Q99.01 19.63 99.29 19.18Q99.57 18.74 99.57 18.07L99.57 18.07L99.57 15.88Q99.56 15.43 99.50 15.14Q99.43 14.85 99.25 14.67Q99.06 14.50 98.72 14.43Q98.39 14.36 97.83 14.36L97.83 14.36L97.58 14.36Q97.68 14.12 97.75 13.71Q97.82 13.29 97.82 12.83L97.82 12.83Q97.82 12.39 97.75 11.97Q97.69 11.55 97.58 11.31L97.58 11.31Q97.95 11.37 98.52 11.39Q99.09 11.41 99.79 11.41L99.79 11.41Q100.44 11.41 101.15 11.38Q101.86 11.36 102.52 11.30Q103.17 11.24 103.73 11.14Q104.30 11.04 104.67 10.90L104.67 10.90Q104.43 11.18 104.27 11.57Q104.12 11.96 104.04 12.44Q103.97 12.91 103.95 13.45Q103.92 13.99 103.92 14.54L103.92 14.54Q103.92 14.91 103.93 15.26Q103.93 15.62 103.93 15.96L103.93 15.96L103.92 18.98Q103.92 19.46 103.95 19.76Q103.98 20.06 104.16 20.23Q104.33 20.39 104.71 20.45Q105.09 20.51 105.80 20.51L105.80 20.51Q105.70 20.78 105.65 21.17Q105.60 21.56 105.60 21.96L105.60 21.96Q105.60 22.41 105.64 22.85Q105.68 23.29 105.80 23.55L105.80 23.55Q105.52 23.43 104.88 23.34Q104.25 23.26 103.50 23.26L103.50 23.26Q102.66 23.26 101.96 23.34Q101.27 23.43 100.90 23.55L100.90 23.55Q100.90 23.14 100.82 22.83Q100.75 22.51 100.63 22.27Q100.51 22.02 100.36 21.84Q100.21 21.67 100.05 21.54L100.05 21.54Q99.56 21.63 99.11 21.86Q98.65 22.08 98.27 22.37Q97.89 22.65 97.62 22.97Q97.35 23.29 97.24 23.55L97.24 23.55Q97.15 23.48 96.88 23.43Q96.62 23.38 96.28 23.34Q95.93 23.30 95.54 23.28Q95.16 23.26 94.80 23.26L94.80 23.26Q94.45 23.26 94.07 23.28Q93.69 23.30 93.33 23.34Q92.96 23.38 92.67 23.43Q92.37 23.48 92.19 23.55L92.19 23.55Q92.09 23.14 91.87 22.75Q91.65 22.36 91.35 22.03Q91.04 21.70 90.66 21.47Q90.28 21.23 89.85 21.14ZM107.33 23.30L107.33 23.30Q107.43 23.05 107.48 22.55Q107.53 22.05 107.53 21.45L107.53 21.45Q107.53 20.95 107.47 20.45Q107.41 19.95 107.33 19.63L107.33 19.63Q107.47 19.70 107.74 19.75Q108 19.80 108.32 19.85Q108.64 19.89 109.00 19.90Q109.36 19.92 109.69 19.92L109.69 19.92Q110.32 19.92 110.87 19.85Q111.41 19.77 111.74 19.63L111.74 19.63Q111.74 19.97 111.84 20.27Q111.94 20.57 112.15 20.79Q112.37 21.02 112.72 21.16Q113.06 21.29 113.54 21.29L113.54 21.29Q114.18 21.29 114.56 21.05Q114.94 20.80 114.94 20.24L114.94 20.24Q114.94 19.79 114.64 19.46Q114.34 19.14 113.81 18.92Q113.27 18.70 112.54 18.60Q111.80 18.49 110.93 18.49L110.93 18.49Q110.66 18.49 110.34 18.50Q110.02 18.50 109.71 18.53Q109.41 18.55 109.15 18.59Q108.90 18.63 108.79 18.69L108.79 18.69Q108.79 18.39 108.57 18.05Q108.35 17.71 108.05 17.41Q107.74 17.12 107.41 16.91Q107.07 16.70 106.84 16.65L106.84 16.65Q106.93 16.55 107.00 16.36Q107.07 16.17 107.12 15.93Q107.17 15.69 107.19 15.43Q107.21 15.16 107.21 14.92L107.21 14.92Q107.21 14.39 107.13 13.88Q107.04 13.37 106.84 13.07L106.84 13.07Q107.26 12.98 107.68 12.78Q108.11 12.57 108.47 12.29Q108.84 12 109.13 11.64Q109.42 11.29 109.56 10.90L109.56 10.90Q109.68 10.97 110.03 11.04Q110.38 11.11 110.86 11.17Q111.34 11.23 111.89 11.26Q112.44 11.30 112.96 11.30L112.96 11.30Q113.91 11.30 114.47 11.13Q115.03 10.97 115.18 10.66L115.18 10.66Q115.35 10.89 115.68 11.06Q116.02 11.23 116.42 11.34Q116.82 11.45 117.26 11.50Q117.69 11.55 118.08 11.55L118.08 11.55Q118.31 11.55 118.51 11.53Q118.70 11.51 118.85 11.47L118.85 11.47Q118.82 11.72 118.79 11.92Q118.76 12.13 118.74 12.32Q118.72 12.52 118.71 12.71Q118.70 12.91 118.70 13.15L118.70 13.15Q118.70 13.59 118.73 14.03Q118.76 14.46 118.85 14.80L118.85 14.80Q118.65 14.67 118.18 14.62Q117.70 14.57 117.11 14.57L117.11 14.57Q116.78 14.57 116.43 14.58Q116.09 14.60 115.79 14.63Q115.49 14.66 115.26 14.70Q115.03 14.74 114.94 14.80L114.94 14.80Q114.94 14.03 114.40 13.59Q113.86 13.15 112.97 13.15L112.97 13.15Q112.23 13.15 111.93 13.41Q111.63 13.68 111.63 14.07L111.63 14.07Q111.63 14.46 112.03 14.81Q112.42 15.16 113.06 15.43Q113.71 15.69 114.52 15.84Q115.32 16.00 116.17 16.00L116.17 16.00Q116.38 16.00 116.60 15.98Q116.81 15.97 117.01 15.95Q117.21 15.93 117.38 15.88Q117.55 15.84 117.66 15.79L117.66 15.79Q117.69 16.14 117.92 16.48Q118.15 16.82 118.46 17.11Q118.77 17.40 119.09 17.62Q119.41 17.84 119.65 17.93L119.65 17.93Q119.50 18.16 119.41 18.64Q119.32 19.11 119.32 19.65L119.32 19.65Q119.32 20.14 119.39 20.60Q119.46 21.05 119.65 21.30L119.65 21.30Q119.23 21.42 118.82 21.62Q118.42 21.82 118.07 22.09Q117.71 22.36 117.43 22.69Q117.14 23.03 116.96 23.41L116.96 23.41Q116.50 23.25 115.65 23.13Q114.81 23.02 113.71 23.02L113.71 23.02Q113.21 23.02 112.86 23.05Q112.51 23.09 112.27 23.15Q112.02 23.21 111.86 23.31Q111.69 23.40 111.59 23.53L111.59 23.53Q111.41 23.43 111.15 23.35Q110.88 23.27 110.56 23.23Q110.24 23.18 109.89 23.16Q109.55 23.13 109.22 23.13L109.22 23.13Q108.62 23.13 108.13 23.16Q107.64 23.18 107.33 23.30Z"/></svg>