<svg xmlns="http://www.w3.org/2000/svg" xmlns:xlink="http://www.w3.org/1999/xlink" width="112.09200000000001" height="33.792"><path fill="black" d="M2.94 23.56L0.50 23.56L5.21 8.22L8.94 8.22L13.64 23.56L11.21 23.56L7.22 9.83L6.92 9.83L2.94 23.56ZM10.55 19.27L3.58 19.27L3.58 17.28L10.55 17.28L10.55 19.27ZM25.76 23.56L23.41 23.56L23.41 16.31Q23.41 15.46 23.18 14.83Q22.94 14.21 22.41 13.86Q21.88 13.51 20.95 13.51L20.95 13.51Q20.10 13.51 19.48 13.82Q18.85 14.14 18.46 14.66Q18.07 15.19 17.90 15.86L17.90 15.86L17.52 14.23L18.02 14.23Q18.23 13.49 18.70 12.88Q19.16 12.28 19.94 11.92Q20.72 11.56 21.88 11.56L21.88 11.56Q23.26 11.56 24.11 12.08Q24.96 12.60 25.36 13.60Q25.76 14.59 25.76 16.04L25.76 16.04L25.76 23.56ZM17.99 23.56L15.64 23.56L15.64 11.82L17.99 11.82L17.89 14.57L17.99 14.71L17.99 23.56ZM33.74 23.83L33.74 23.83Q30.94 23.83 29.54 22.49Q28.14 21.16 28.14 18.64L28.14 18.64L28.14 16.72Q28.14 14.23 29.44 12.87Q30.74 11.51 33.24 11.51L33.24 11.51Q34.93 11.51 36.06 12.13Q37.19 12.74 37.75 13.87Q38.32 15 38.32 16.55L38.32 16.55L38.32 16.99Q38.32 17.40 38.28 17.82Q38.24 18.24 38.18 18.62L38.18 18.62L36.02 18.62Q36.05 18 36.05 17.45Q36.06 16.90 36.06 16.44L36.06 16.44Q36.06 15.47 35.75 14.80Q35.44 14.12 34.81 13.77Q34.19 13.42 33.24 13.42L33.24 13.42Q31.84 13.42 31.15 14.21Q30.47 15.01 30.47 16.49L30.47 16.49L30.47 17.59L30.48 17.87L30.48 18.91Q30.48 19.57 30.68 20.11Q30.88 20.65 31.31 21.04Q31.75 21.43 32.45 21.64Q33.14 21.85 34.14 21.85L34.14 21.85Q35.27 21.85 36.26 21.56Q37.25 21.28 38.12 20.80L38.12 20.80L37.91 22.80Q37.12 23.27 36.07 23.55Q35.02 23.83 33.74 23.83ZM37.70 18.62L29.39 18.62L29.39 16.86L37.70 16.86L37.70 18.62ZM51.13 23.56L48.35 23.56L44.04 18.26L42.88 18.26L42.88 16.44L44.05 16.44L48.18 11.82L50.93 11.82L45.79 17.52L45.79 17.00L51.13 23.56ZM43.08 23.56L40.74 23.56L40.74 7.67L43.08 7.67L43.08 23.56ZM65.69 23.56L63.28 23.56L63.28 8.64L65.69 8.64L65.69 23.56ZM70.19 10.24L58.76 10.24L58.76 8.22L70.19 8.22L70.19 10.24ZM80.18 23.56L77.84 23.56L77.94 20.77L77.86 20.41L77.86 16.72L77.87 16.13Q77.87 14.77 77.18 14.14Q76.49 13.50 74.96 13.50L74.96 13.50Q73.73 13.50 72.67 13.85Q71.62 14.20 70.76 14.65L70.76 14.65L70.98 12.68Q71.46 12.41 72.11 12.14Q72.76 11.88 73.57 11.71Q74.39 11.54 75.36 11.54L75.36 11.54Q76.69 11.54 77.62 11.86Q78.54 12.18 79.10 12.78Q79.67 13.38 79.93 14.22Q80.18 15.06 80.18 16.09L80.18 16.09L80.18 23.56ZM73.87 23.82L73.87 23.82Q72.13 23.82 71.21 22.96Q70.28 22.10 70.28 20.52L70.28 20.52L70.28 20.16Q70.28 18.48 71.32 17.67Q72.36 16.86 74.59 16.55L74.59 16.55L78.12 16.04L78.25 17.75L74.87 18.23Q73.66 18.40 73.14 18.81Q72.62 19.22 72.62 20.03L72.62 20.03L72.62 20.20Q72.62 21 73.12 21.43Q73.62 21.86 74.64 21.86L74.64 21.86Q75.58 21.86 76.25 21.55Q76.92 21.24 77.34 20.72Q77.76 20.20 77.92 19.56L77.92 19.56L78.24 21.13L77.81 21.13Q77.62 21.85 77.17 22.46Q76.73 23.08 75.93 23.45Q75.13 23.82 73.87 23.82ZM99.90 23.56L97.55 23.56L97.55 16.25Q97.55 15.42 97.34 14.80Q97.13 14.18 96.64 13.85Q96.16 13.51 95.33 13.51L95.33 13.51Q94.54 13.51 93.96 13.82Q93.38 14.14 93.03 14.66Q92.68 15.19 92.52 15.86L92.52 15.86L92.21 14.23L92.48 14.23Q92.70 13.52 93.14 12.91Q93.59 12.30 94.34 11.93Q95.10 11.56 96.25 11.56L96.25 11.56Q97.55 11.56 98.35 12.07Q99.16 12.58 99.53 13.57Q99.90 14.56 99.90 15.98L99.90 15.98L99.90 23.56ZM85.32 23.56L82.97 23.56L82.97 11.82L85.32 11.82L85.22 14.57L85.32 14.71L85.32 23.56ZM92.60 23.56L90.26 23.56L90.26 16.25Q90.26 15.42 90.05 14.80Q89.84 14.18 89.36 13.85Q88.87 13.51 88.04 13.51L88.04 13.51Q87.25 13.51 86.68 13.82Q86.10 14.14 85.75 14.66Q85.39 15.19 85.24 15.86L85.24 15.86L84.85 14.23L85.36 14.23Q85.55 13.49 85.99 12.88Q86.42 12.28 87.16 11.92Q87.89 11.56 88.96 11.56L88.96 11.56Q90.59 11.56 91.43 12.40Q92.27 13.24 92.48 14.84L92.48 14.84Q92.54 15.07 92.57 15.36Q92.60 15.65 92.60 15.92L92.60 15.92L92.60 23.56ZM105.12 23.56L102.77 23.56L102.77 11.82L105.12 11.82L105.12 23.56ZM103.94 10.09L103.94 10.09Q103.25 10.09 102.91 9.74Q102.56 9.38 102.56 8.76L102.56 8.76L102.56 8.71Q102.56 8.09 102.91 7.73Q103.25 7.38 103.94 7.38L103.94 7.38Q104.64 7.38 104.98 7.73Q105.32 8.09 105.32 8.71L105.32 8.71L105.32 8.76Q105.32 9.40 104.98 9.74Q104.64 10.09 103.94 10.09ZM110.56 23.56L108.20 23.56L108.20 7.67L110.56 7.67L110.56 23.56Z"/></svg>