<svg xmlns="http://www.w3.org/2000/svg" xmlns:xlink="http://www.w3.org/1999/xlink" width="355.46400000000006" height="32.688"><path fill="black" d="M16.34 8.52L16.34 25.66L13.20 25.66L4.54 11.81L4.44 11.81Q4.49 12.77 4.56 14.00Q4.63 15.24 4.63 16.54L4.63 16.54L4.63 25.66L2.28 25.66L2.28 8.52L5.40 8.52L14.04 22.30L14.11 22.30Q14.09 21.79 14.05 21.02Q14.02 20.26 13.99 19.38Q13.97 18.50 13.94 17.74L13.94 17.74L13.94 8.52L16.34 8.52ZM32.02 19.18L32.02 19.18Q32.02 22.39 30.36 24.14Q28.70 25.90 25.90 25.90L25.90 25.90Q24.14 25.90 22.79 25.10Q21.43 24.31 20.65 22.81Q19.87 21.31 19.87 19.18L19.87 19.18Q19.87 15.96 21.50 14.22Q23.14 12.48 25.97 12.48L25.97 12.48Q27.74 12.48 29.10 13.26Q30.46 14.04 31.24 15.53Q32.02 17.02 32.02 19.18ZM22.49 19.18L22.49 19.18Q22.49 21.36 23.32 22.58Q24.14 23.81 25.94 23.81L25.94 23.81Q27.74 23.81 28.57 22.58Q29.40 21.36 29.40 19.18L29.40 19.18Q29.40 16.97 28.56 15.78Q27.72 14.59 25.92 14.59L25.92 14.59Q24.12 14.59 23.30 15.78Q22.49 16.97 22.49 19.18ZM39.89 23.83L39.89 23.83Q40.39 23.83 40.92 23.75Q41.45 23.66 41.83 23.52L41.83 23.52L41.83 25.44Q41.40 25.63 40.72 25.76Q40.03 25.90 39.34 25.90L39.34 25.90Q38.28 25.90 37.39 25.54Q36.50 25.18 35.99 24.29Q35.47 23.40 35.47 21.82L35.47 21.82L35.47 14.66L33.67 14.66L33.67 13.51L35.57 12.55L36.46 9.82L38.02 9.82L38.02 12.72L41.71 12.72L41.71 14.66L38.02 14.66L38.02 21.77Q38.02 22.82 38.53 23.33Q39.05 23.83 39.89 23.83ZM55.82 19.18L55.82 19.18Q55.82 22.39 54.17 24.14Q52.51 25.90 49.70 25.90L49.70 25.90Q47.95 25.90 46.60 25.10Q45.24 24.31 44.46 22.81Q43.68 21.31 43.68 19.18L43.68 19.18Q43.68 15.96 45.31 14.22Q46.94 12.48 49.78 12.48L49.78 12.48Q51.55 12.48 52.91 13.26Q54.26 14.04 55.04 15.53Q55.82 17.02 55.82 19.18ZM46.30 19.18L46.30 19.18Q46.30 21.36 47.12 22.58Q47.95 23.81 49.75 23.81L49.75 23.81Q51.55 23.81 52.38 22.58Q53.21 21.36 53.21 19.18L53.21 19.18Q53.21 16.97 52.37 15.78Q51.53 14.59 49.73 14.59L49.73 14.59Q47.93 14.59 47.11 15.78Q46.30 16.97 46.30 19.18ZM75.41 21.02L75.41 21.02Q75.41 23.30 73.75 24.60Q72.10 25.90 69.22 25.90L69.22 25.90Q67.82 25.90 66.59 25.67Q65.35 25.44 64.49 25.01L64.49 25.01L64.49 22.56Q65.45 22.99 66.74 23.34Q68.04 23.69 69.38 23.69L69.38 23.69Q71.11 23.69 71.98 23.02Q72.84 22.34 72.84 21.22L72.84 21.22Q72.84 20.42 72.44 19.88Q72.05 19.34 71.21 18.89Q70.37 18.43 69 17.88L69 17.88Q68.06 17.52 67.27 17.08Q66.48 16.63 65.90 16.03Q65.33 15.43 65.00 14.64Q64.68 13.85 64.68 12.79L64.68 12.79Q64.68 11.38 65.38 10.37Q66.07 9.36 67.33 8.82Q68.59 8.28 70.25 8.28L70.25 8.28Q71.64 8.28 72.83 8.56Q74.02 8.83 75.10 9.31L75.10 9.31L74.28 11.45Q73.30 11.04 72.28 10.78Q71.26 10.51 70.18 10.51L70.18 10.51Q68.76 10.51 68.02 11.14Q67.27 11.76 67.27 12.77L67.27 12.77Q67.27 13.56 67.63 14.10Q67.99 14.64 68.78 15.07Q69.58 15.50 70.87 16.03L70.87 16.03Q72.31 16.61 73.33 17.24Q74.35 17.88 74.88 18.78Q75.41 19.68 75.41 21.02ZM83.50 12.48L83.50 12.48Q85.92 12.48 87.13 13.55Q88.34 14.62 88.34 16.90L88.34 16.90L88.34 25.66L86.54 25.66L86.04 23.86L85.94 23.86Q85.10 24.91 84.18 25.40Q83.26 25.90 81.62 25.90L81.62 25.90Q79.87 25.90 78.72 24.95Q77.57 24 77.57 21.98L77.57 21.98Q77.57 20.02 79.06 18.98Q80.54 17.95 83.64 17.86L83.64 17.86L85.85 17.78L85.85 17.06Q85.85 15.65 85.20 15.06Q84.55 14.47 83.38 14.47L83.38 14.47Q82.39 14.47 81.48 14.76Q80.57 15.05 79.73 15.46L79.73 15.46L78.91 13.61Q79.82 13.13 81.01 12.80Q82.20 12.48 83.50 12.48ZM85.82 19.44L84.10 19.49Q81.89 19.58 81.04 20.22Q80.18 20.86 80.18 22.01L80.18 22.01Q80.18 23.02 80.78 23.47Q81.38 23.93 82.34 23.93L82.34 23.93Q83.83 23.93 84.83 23.09Q85.82 22.25 85.82 20.57L85.82 20.57L85.82 19.44ZM98.81 12.48L98.81 12.48Q101.06 12.48 102.26 13.61Q103.46 14.74 103.46 17.23L103.46 17.23L103.46 25.66L100.94 25.66L100.94 17.59Q100.94 16.08 100.30 15.32Q99.65 14.57 98.28 14.57L98.28 14.57Q96.29 14.57 95.54 15.74Q94.80 16.92 94.80 19.13L94.80 19.13L94.80 25.66L92.26 25.66L92.26 12.72L94.27 12.72L94.63 14.45L94.78 14.45Q95.40 13.44 96.49 12.96Q97.58 12.48 98.81 12.48ZM115.97 22.01L115.97 22.01Q115.97 23.90 114.58 24.90Q113.18 25.90 110.71 25.90L110.71 25.90Q109.34 25.90 108.37 25.69Q107.40 25.49 106.58 25.10L106.58 25.10L106.58 22.87Q107.42 23.28 108.56 23.60Q109.70 23.93 110.78 23.93L110.78 23.93Q112.22 23.93 112.86 23.47Q113.50 23.02 113.50 22.25L113.50 22.25Q113.50 21.82 113.26 21.47Q113.02 21.12 112.36 20.75Q111.70 20.38 110.42 19.90L110.42 19.90Q109.18 19.39 108.32 18.90Q107.47 18.41 107.02 17.72Q106.56 17.04 106.56 15.96L106.56 15.96Q106.56 14.28 107.92 13.38Q109.27 12.48 111.50 12.48L111.50 12.48Q112.68 12.48 113.72 12.72Q114.77 12.96 115.75 13.39L115.75 13.39L114.91 15.34Q114.07 14.98 113.18 14.72Q112.30 14.47 111.38 14.47L111.38 14.47Q110.23 14.47 109.63 14.83Q109.03 15.19 109.03 15.84L109.03 15.84Q109.03 16.30 109.32 16.63Q109.61 16.97 110.29 17.30Q110.98 17.64 112.18 18.12L112.18 18.12Q113.38 18.58 114.23 19.06Q115.08 19.54 115.52 20.23Q115.97 20.93 115.97 22.01ZM135.31 8.52L138 8.52L131.95 25.66L129.26 25.66L123.24 8.52L125.90 8.52L129.58 19.27Q129.79 19.85 129.98 20.51Q130.18 21.17 130.34 21.83Q130.51 22.49 130.61 23.04L130.61 23.04Q130.70 22.49 130.87 21.83Q131.04 21.17 131.24 20.50Q131.45 19.82 131.64 19.25L131.64 19.25L135.31 8.52ZM139.99 12.72L142.54 12.72L142.54 25.66L139.99 25.66L139.99 12.72ZM141.29 7.80L141.29 7.80Q141.86 7.80 142.30 8.14Q142.73 8.47 142.73 9.26L142.73 9.26Q142.73 10.03 142.30 10.38Q141.86 10.73 141.29 10.73L141.29 10.73Q140.66 10.73 140.24 10.38Q139.82 10.03 139.82 9.26L139.82 9.26Q139.82 8.47 140.24 8.14Q140.66 7.80 141.29 7.80ZM151.18 23.83L151.18 23.83Q151.68 23.83 152.21 23.75Q152.74 23.66 153.12 23.52L153.12 23.52L153.12 25.44Q152.69 25.63 152.00 25.76Q151.32 25.90 150.62 25.90L150.62 25.90Q149.57 25.90 148.68 25.54Q147.79 25.18 147.28 24.29Q146.76 23.40 146.76 21.82L146.76 21.82L146.76 14.66L144.96 14.66L144.96 13.51L146.86 12.55L147.74 9.82L149.30 9.82L149.30 12.72L153 12.72L153 14.66L149.30 14.66L149.30 21.77Q149.30 22.82 149.82 23.33Q150.34 23.83 151.18 23.83ZM158.26 7.42L158.26 12.29Q158.26 12.91 158.21 13.50Q158.16 14.09 158.11 14.47L158.11 14.47L158.28 14.47Q158.90 13.46 159.95 12.98Q160.99 12.50 162.22 12.50L162.22 12.50Q164.50 12.50 165.71 13.63Q166.92 14.76 166.92 17.23L166.92 17.23L166.92 25.66L164.40 25.66L164.40 17.59Q164.40 14.57 161.74 14.57L161.74 14.57Q159.74 14.57 159 15.76Q158.26 16.94 158.26 19.15L158.26 19.15L158.26 25.66L155.71 25.66L155.71 7.42L158.26 7.42ZM173.35 7.42L173.35 16.54Q173.35 17.02 173.30 17.69Q173.26 18.36 173.23 18.89L173.23 18.89L173.30 18.89Q173.50 18.65 173.76 18.30Q174.02 17.95 174.32 17.59Q174.62 17.23 174.86 16.97L174.86 16.97L178.82 12.72L181.78 12.72L176.57 18.26L182.11 25.66L179.11 25.66L174.84 19.87L173.35 21.12L173.35 25.66L170.83 25.66L170.83 7.42L173.35 7.42ZM192.84 12.72L195.38 12.72L195.38 25.66L193.34 25.66L192.98 23.95L192.86 23.95Q192.24 24.96 191.14 25.43Q190.03 25.90 188.81 25.90L188.81 25.90Q186.53 25.90 185.33 24.77Q184.13 23.64 184.13 21.19L184.13 21.19L184.13 12.72L186.70 12.72L186.70 20.81Q186.70 22.32 187.33 23.06Q187.97 23.81 189.31 23.81L189.31 23.81Q191.30 23.81 192.07 22.63Q192.84 21.46 192.84 19.27L192.84 19.27L192.84 12.72ZM207.72 31.42L207.72 25.92Q207.72 25.46 207.76 24.91Q207.79 24.36 207.86 23.93L207.86 23.93L207.72 23.93Q207.17 24.77 206.22 25.33Q205.27 25.90 203.78 25.90L203.78 25.90Q201.48 25.90 200.05 24.22Q198.62 22.54 198.62 19.22L198.62 19.22Q198.62 15.89 200.08 14.18Q201.53 12.48 203.86 12.48L203.86 12.48Q205.34 12.48 206.28 13.06Q207.22 13.63 207.79 14.45L207.79 14.45L207.89 14.45L208.20 12.72L210.26 12.72L210.26 31.42L207.72 31.42ZM204.43 23.83L204.43 23.83Q206.26 23.83 207.02 22.80Q207.79 21.77 207.82 19.68L207.82 19.68L207.82 19.25Q207.82 16.94 207.07 15.76Q206.33 14.57 204.38 14.57L204.38 14.57Q202.80 14.57 202.02 15.83Q201.24 17.09 201.24 19.27L201.24 19.27Q201.24 21.46 202.02 22.64Q202.80 23.83 204.43 23.83ZM214.25 12.72L216.79 12.72L216.79 25.66L214.25 25.66L214.25 12.72ZM215.54 7.80L215.54 7.80Q216.12 7.80 216.55 8.14Q216.98 8.47 216.98 9.26L216.98 9.26Q216.98 10.03 216.55 10.38Q216.12 10.73 215.54 10.73L215.54 10.73Q214.92 10.73 214.50 10.38Q214.08 10.03 214.08 9.26L214.08 9.26Q214.08 8.47 214.50 8.14Q214.92 7.80 215.54 7.80ZM231.82 15.00L231.82 15.00Q233.52 15.00 234.79 15.60Q236.06 16.20 236.77 17.33Q237.48 18.46 237.48 20.09L237.48 20.09Q237.48 22.80 235.78 24.35Q234.07 25.90 230.93 25.90L230.93 25.90Q229.58 25.90 228.42 25.66Q227.26 25.42 226.42 24.96L226.42 24.96L226.42 22.61Q227.30 23.11 228.54 23.41Q229.78 23.71 230.90 23.71L230.90 23.71Q232.68 23.71 233.75 22.90Q234.82 22.08 234.82 20.35L234.82 20.35Q234.82 18.79 233.84 17.98Q232.87 17.16 230.81 17.16L230.81 17.16Q230.14 17.16 229.32 17.28Q228.50 17.40 228 17.52L228 17.52L226.80 16.82L227.45 8.52L236.28 8.52L236.28 10.82L229.70 10.82L229.32 15.26Q229.73 15.19 230.35 15.10Q230.98 15.00 231.82 15.00ZM251.40 17.06L251.40 17.06Q251.40 19.82 250.82 21.80Q250.25 23.78 248.98 24.84Q247.70 25.90 245.59 25.90L245.59 25.90Q242.62 25.90 241.22 23.56Q239.83 21.22 239.83 17.06L239.83 17.06Q239.83 14.28 240.40 12.31Q240.96 10.34 242.23 9.30Q243.50 8.26 245.59 8.26L245.59 8.26Q248.54 8.26 249.97 10.57Q251.40 12.89 251.40 17.06ZM242.42 17.06L242.42 17.06Q242.42 20.40 243.13 22.07Q243.84 23.74 245.59 23.74L245.59 23.74Q247.34 23.74 248.06 22.08Q248.78 20.42 248.78 17.06L248.78 17.06Q248.78 13.73 248.06 12.07Q247.34 10.42 245.59 10.42L245.59 10.42Q243.84 10.42 243.13 12.07Q242.42 13.73 242.42 17.06ZM265.13 17.06L265.13 17.06Q265.13 19.82 264.55 21.80Q263.98 23.78 262.70 24.84Q261.43 25.90 259.32 25.90L259.32 25.90Q256.34 25.90 254.95 23.56Q253.56 21.22 253.56 17.06L253.56 17.06Q253.56 14.28 254.12 12.31Q254.69 10.34 255.96 9.30Q257.23 8.26 259.32 8.26L259.32 8.26Q262.27 8.26 263.70 10.57Q265.13 12.89 265.13 17.06ZM256.15 17.06L256.15 17.06Q256.15 20.40 256.86 22.07Q257.57 23.74 259.32 23.74L259.32 23.74Q261.07 23.74 261.79 22.08Q262.51 20.42 262.51 17.06L262.51 17.06Q262.51 13.73 261.79 12.07Q261.07 10.42 259.32 10.42L259.32 10.42Q257.57 10.42 256.86 12.07Q256.15 13.73 256.15 17.06ZM280.99 12.48L280.99 12.48Q283.25 12.48 284.45 13.61Q285.65 14.74 285.65 17.23L285.65 17.23L285.65 25.66L283.13 25.66L283.13 17.59Q283.13 16.08 282.48 15.32Q281.83 14.57 280.46 14.57L280.46 14.57Q278.47 14.57 277.73 15.74Q276.98 16.92 276.98 19.13L276.98 19.13L276.98 25.66L274.44 25.66L274.44 12.72L276.46 12.72L276.82 14.45L276.96 14.45Q277.58 13.44 278.68 12.96Q279.77 12.48 280.99 12.48ZM300.96 19.18L300.96 19.18Q300.96 22.39 299.30 24.14Q297.65 25.90 294.84 25.90L294.84 25.90Q293.09 25.90 291.73 25.10Q290.38 24.31 289.60 22.81Q288.82 21.31 288.82 19.18L288.82 19.18Q288.82 15.96 290.45 14.22Q292.08 12.48 294.91 12.48L294.91 12.48Q296.69 12.48 298.04 13.26Q299.40 14.04 300.18 15.53Q300.96 17.02 300.96 19.18ZM291.43 19.18L291.43 19.18Q291.43 21.36 292.26 22.58Q293.09 23.81 294.89 23.81L294.89 23.81Q296.69 23.81 297.52 22.58Q298.34 21.36 298.34 19.18L298.34 19.18Q298.34 16.97 297.50 15.78Q296.66 14.59 294.86 14.59L294.86 14.59Q293.06 14.59 292.25 15.78Q291.43 16.97 291.43 19.18ZM310.56 12.48L310.56 12.48Q310.90 12.48 311.29 12.52Q311.69 12.55 311.98 12.60L311.98 12.60L311.71 14.98Q311.45 14.90 311.09 14.86Q310.73 14.81 310.42 14.81L310.42 14.81Q309.46 14.81 308.60 15.29Q307.75 15.77 307.24 16.67Q306.72 17.57 306.72 18.84L306.72 18.84L306.72 25.66L304.18 25.66L304.18 12.72L306.19 12.72L306.53 15.02L306.62 15.02Q307.25 13.99 308.23 13.24Q309.22 12.48 310.56 12.48ZM328.87 12.48L328.87 12.48Q331.06 12.48 332.16 13.61Q333.26 14.74 333.26 17.23L333.26 17.23L333.26 25.66L330.72 25.66L330.72 17.57Q330.72 14.57 328.30 14.57L328.30 14.57Q326.57 14.57 325.82 15.64Q325.08 16.70 325.08 18.70L325.08 18.70L325.08 25.66L322.56 25.66L322.56 17.57Q322.56 14.57 320.11 14.57L320.11 14.57Q318.29 14.57 317.60 15.74Q316.92 16.92 316.92 19.13L316.92 19.13L316.92 25.66L314.38 25.66L314.38 12.72L316.39 12.72L316.75 14.45L316.90 14.45Q317.47 13.44 318.50 12.96Q319.54 12.48 320.69 12.48L320.69 12.48Q322.15 12.48 323.15 13.00Q324.14 13.51 324.62 14.57L324.62 14.57L324.82 14.57Q325.44 13.49 326.54 12.98Q327.65 12.48 328.87 12.48ZM342.17 12.48L342.17 12.48Q344.59 12.48 345.80 13.55Q347.02 14.62 347.02 16.90L347.02 16.90L347.02 25.66L345.22 25.66L344.71 23.86L344.62 23.86Q343.78 24.91 342.85 25.40Q341.93 25.90 340.30 25.90L340.30 25.90Q338.54 25.90 337.39 24.95Q336.24 24 336.24 21.98L336.24 21.98Q336.24 20.02 337.73 18.98Q339.22 17.95 342.31 17.86L342.31 17.86L344.52 17.78L344.52 17.06Q344.52 15.65 343.87 15.06Q343.22 14.47 342.05 14.47L342.05 14.47Q341.06 14.47 340.15 14.76Q339.24 15.05 338.40 15.46L338.40 15.46L337.58 13.61Q338.50 13.13 339.68 12.80Q340.87 12.48 342.17 12.48ZM344.50 19.44L342.77 19.49Q340.56 19.58 339.71 20.22Q338.86 20.86 338.86 22.01L338.86 22.01Q338.86 23.02 339.46 23.47Q340.06 23.93 341.02 23.93L341.02 23.93Q342.50 23.93 343.50 23.09Q344.50 22.25 344.50 20.57L344.50 20.57L344.50 19.44ZM353.47 7.42L353.47 25.66L350.93 25.66L350.93 7.42L353.47 7.42Z"/></svg>