<svg xmlns="http://www.w3.org/2000/svg" xmlns:xlink="http://www.w3.org/1999/xlink" width="168.33599999999998" height="31.2"><path fill="black" d="M9.14 15.36Q10.01 16.01 10.66 17.40L10.66 17.40L13.80 24.07Q13.18 24.38 11.81 24.38L11.81 24.38Q11.21 24.38 10.85 24.20Q10.49 24.02 10.32 23.64L10.32 23.64L7.75 18.22Q7.44 17.54 7.18 17.24Q6.91 16.94 6.52 16.84Q6.12 16.73 5.38 16.73L5.38 16.73L4.94 16.73L3.91 24.17L0.86 24.17L3.22 7.37L6.26 7.37L5.26 14.59L6.48 14.59L6.70 14.59L12.67 7.37L15.96 7.37L9.14 15.36ZM23.93 10.80Q25.75 10.80 25.75 12.17L25.75 12.17Q25.75 12.41 25.73 12.55L25.73 12.55Q25.70 12.86 25.55 13.19Q25.39 13.51 25.20 13.73L25.20 13.73Q24.96 13.56 24.59 13.49Q24.22 13.42 23.59 13.42L23.59 13.42Q22.03 13.42 21.05 14.48Q20.06 15.55 19.80 17.54L19.80 17.54L18.86 24.17L15.96 24.17L17.81 10.97L20.71 10.97L20.45 12.94Q21.10 11.93 22.01 11.36Q22.92 10.80 23.93 10.80L23.93 10.80ZM39.38 10.97L37.94 21.14Q37.80 22.22 37.80 22.85L37.80 22.85Q37.80 23.35 37.92 23.83L37.92 23.83Q37.01 24.29 35.90 24.29L35.90 24.29Q35.28 24.29 35.04 23.95Q34.80 23.62 34.82 22.70L34.82 22.70Q34.06 23.52 32.96 23.96Q31.87 24.41 30.65 24.41L30.65 24.41Q28.78 24.41 27.80 23.51Q26.83 22.61 26.83 20.90L26.83 20.90Q26.83 20.42 26.90 19.92L26.90 19.92L28.18 10.97L31.08 10.97L29.83 19.80Q29.76 20.23 29.76 20.62L29.76 20.62Q29.76 21.58 30.22 22.02Q30.67 22.46 31.61 22.46L31.61 22.46Q33.58 22.46 35.11 20.52L35.11 20.52L36.43 10.97L39.38 10.97ZM49.34 10.73Q50.78 10.73 51.86 11.39Q52.94 12.05 53.54 13.26Q54.14 14.47 54.14 16.08L54.14 16.08Q54.14 18.48 53.39 20.38Q52.63 22.27 51.20 23.34Q49.78 24.41 47.88 24.41L47.88 24.41Q46.73 24.41 45.77 23.95Q44.81 23.50 44.26 22.70L44.26 22.70Q43.75 24.29 42.86 24.29L42.86 24.29Q42.29 24.29 41.69 24.12Q41.09 23.95 40.63 23.64L40.63 23.64Q41.09 23.09 41.36 22.27Q41.64 21.46 41.86 19.80L41.86 19.80L43.92 5.18L46.85 5.18L45.91 11.81Q47.50 10.73 49.34 10.73L49.34 10.73ZM47.52 22.42Q49.25 22.42 50.23 20.68Q51.22 18.94 51.22 16.15L51.22 16.15Q51.22 14.50 50.51 13.58Q49.80 12.67 48.62 12.67L48.62 12.67Q47.06 12.67 45.62 13.87L45.62 13.87L44.66 20.59Q45.62 22.42 47.52 22.42L47.52 22.42ZM69.05 13.39Q70.37 13.39 71.42 13.93Q72.48 14.47 73.09 15.54Q73.70 16.61 73.70 18.12L73.70 18.12Q73.70 21.02 72.05 22.68Q70.39 24.34 67.37 24.34L67.37 24.34Q65.78 24.34 64.56 23.64Q63.34 22.94 62.66 21.70Q61.99 20.45 61.99 18.84L61.99 18.84Q61.99 16.08 63.19 13.38Q64.39 10.68 66.44 8.96Q68.50 7.25 70.94 7.25L70.94 7.25Q71.95 7.25 72.43 7.70Q72.91 8.16 72.91 9.24L72.91 9.24Q70.32 9.24 68.42 10.66Q66.53 12.07 65.57 14.47L65.57 14.47Q67.22 13.39 69.05 13.39L69.05 13.39ZM67.51 22.27Q69.12 22.27 70.00 21.13Q70.87 19.99 70.87 18.22L70.87 18.22Q70.87 16.85 70.22 16.15Q69.58 15.46 68.40 15.46L68.40 15.46Q67.51 15.46 66.62 15.78Q65.74 16.10 64.97 16.68L64.97 16.68Q64.80 17.62 64.80 18.72L64.80 18.72Q64.80 20.33 65.46 21.30Q66.12 22.27 67.51 22.27L67.51 22.27ZM81.50 24.46Q78.74 24.46 77.35 22.86Q75.96 21.26 75.96 18.29L75.96 18.29Q75.96 17.16 76.13 16.06L76.13 16.06Q76.73 11.76 78.70 9.44Q80.66 7.13 83.93 7.13L83.93 7.13Q86.66 7.13 88.04 8.78Q89.42 10.44 89.42 13.56L89.42 13.56Q89.42 14.64 89.23 16.06L89.23 16.06Q88.66 20.09 86.71 22.27Q84.77 24.46 81.50 24.46L81.50 24.46ZM81.79 22.32Q83.76 22.32 84.83 20.69Q85.90 19.06 86.33 16.06L86.33 16.06Q86.54 14.57 86.54 13.34L86.54 13.34Q86.54 11.35 85.85 10.31Q85.15 9.26 83.64 9.26L83.64 9.26Q81.65 9.26 80.57 11.02Q79.49 12.77 79.03 16.06L79.03 16.06Q78.84 17.45 78.84 18.43L78.84 18.43Q78.84 22.32 81.79 22.32L81.79 22.32ZM96.38 24.46Q93.62 24.46 92.23 22.86Q90.84 21.26 90.84 18.29L90.84 18.29Q90.84 17.16 91.01 16.06L91.01 16.06Q91.61 11.76 93.58 9.44Q95.54 7.13 98.81 7.13L98.81 7.13Q101.54 7.13 102.92 8.78Q104.30 10.44 104.30 13.56L104.30 13.56Q104.30 14.64 104.11 16.06L104.11 16.06Q103.54 20.09 101.59 22.27Q99.65 24.46 96.38 24.46L96.38 24.46ZM96.67 22.32Q98.64 22.32 99.71 20.69Q100.78 19.06 101.21 16.06L101.21 16.06Q101.42 14.57 101.42 13.34L101.42 13.34Q101.42 11.35 100.73 10.31Q100.03 9.26 98.52 9.26L98.52 9.26Q96.53 9.26 95.45 11.02Q94.37 12.77 93.91 16.06L93.91 16.06Q93.72 17.45 93.72 18.43L93.72 18.43Q93.72 22.32 96.67 22.32L96.67 22.32ZM112.06 24.17L113.90 10.97L116.83 10.97L114.98 24.17L112.06 24.17ZM115.56 8.54Q114.17 8.54 114.17 7.34L114.17 7.34Q114.17 7.08 114.19 6.94L114.19 6.94L114.22 6.62Q114.46 5.02 116.06 5.02L116.06 5.02L116.35 5.02Q117.74 5.02 117.74 6.24L117.74 6.24Q117.74 6.48 117.72 6.62L117.72 6.62L117.70 6.94Q117.46 8.54 115.85 8.54L115.85 8.54L115.56 8.54ZM123.91 12.91L122.81 20.78Q122.76 21.17 122.76 21.29L122.76 21.29Q122.76 21.91 123.06 22.20Q123.36 22.49 123.98 22.49L123.98 22.49Q124.90 22.49 125.95 22.08L125.95 22.08Q126.31 22.25 126.31 22.80L126.31 22.80Q126.31 23.38 125.88 23.71L125.88 23.71Q125.47 24.02 124.69 24.22Q123.91 24.41 122.98 24.41L122.98 24.41Q121.51 24.41 120.66 23.66Q119.81 22.92 119.81 21.65L119.81 21.65Q119.81 21.48 119.86 21.10L119.86 21.10L121.01 12.91L118.85 12.91L119.11 10.97L121.30 10.97L121.80 7.37L124.70 7.37L124.20 10.97L127.01 10.97L126.74 12.91L123.91 12.91ZM139.61 15.22L138.98 19.75Q138.77 21.12 138.77 21.89L138.77 21.89Q138.77 22.90 139.22 23.59L139.22 23.59Q138.79 23.90 138.13 24.11Q137.47 24.31 136.92 24.31L136.92 24.31Q135.77 24.31 135.77 22.44L135.77 22.44Q135 23.40 133.97 23.90Q132.94 24.41 131.50 24.41L131.50 24.41Q129.94 24.41 128.94 23.50Q127.94 22.58 127.94 20.95L127.94 20.95Q127.94 18.70 130.13 17.59Q132.31 16.49 136.56 16.30L136.56 16.30L136.70 15.22Q136.73 15.02 136.73 14.69L136.73 14.69Q136.73 13.78 136.21 13.32Q135.70 12.86 134.57 12.86L134.57 12.86Q133.54 12.86 132.70 13.26Q131.86 13.66 130.80 14.40L130.80 14.40Q130.61 14.52 130.44 14.52L130.44 14.52Q130.06 14.52 129.70 14.06Q129.34 13.61 129.10 12.86L129.10 12.86Q130.13 11.98 131.76 11.35Q133.39 10.73 135.17 10.73L135.17 10.73Q137.35 10.73 138.50 11.70Q139.66 12.67 139.66 14.42L139.66 14.42Q139.66 14.93 139.61 15.22L139.61 15.22ZM132.65 22.42Q134.38 22.42 136.01 20.14L136.01 20.14L136.32 17.95Q133.42 18.05 132.18 18.74Q130.94 19.44 130.94 20.69L130.94 20.69Q130.94 22.42 132.65 22.42L132.65 22.42ZM141.77 24.17L144.43 5.18L147.36 5.18L144.70 24.17L141.77 24.17ZM148.44 24.17L150.29 10.97L153.22 10.97L151.37 24.17L148.44 24.17ZM151.94 8.54Q150.55 8.54 150.55 7.34L150.55 7.34Q150.55 7.08 150.58 6.94L150.58 6.94L150.60 6.62Q150.84 5.02 152.45 5.02L152.45 5.02L152.74 5.02Q154.13 5.02 154.13 6.24L154.13 6.24Q154.13 6.48 154.10 6.62L154.10 6.62L154.08 6.94Q153.84 8.54 152.23 8.54L152.23 8.54L151.94 8.54ZM160.82 24.41Q158.04 24.41 156.50 22.92Q154.97 21.43 154.97 18.74L154.97 18.74Q154.97 16.27 155.82 14.46Q156.67 12.65 158.28 11.69Q159.89 10.73 162.07 10.73L162.07 10.73Q164.45 10.73 165.82 11.90Q167.18 13.08 167.18 15.14L167.18 15.14Q166.49 15.48 166.07 15.61Q165.65 15.74 165.29 15.74L165.29 15.74Q164.95 15.74 164.77 15.53Q164.59 15.31 164.52 14.83L164.52 14.83Q164.23 12.70 161.98 12.70L161.98 12.70Q160.03 12.70 158.99 14.22Q157.94 15.74 157.94 18.62L157.94 18.62Q157.94 20.40 158.72 21.38Q159.50 22.37 160.90 22.37L160.90 22.37Q162.12 22.37 162.90 21.72Q163.68 21.07 164.35 19.51L164.35 19.51Q166.13 19.51 166.13 21.10L166.13 21.10Q166.13 22.03 165.44 22.79Q164.76 23.54 163.55 23.98Q162.34 24.41 160.82 24.41L160.82 24.41Z"/></svg>