<svg xmlns="http://www.w3.org/2000/svg" xmlns:xlink="http://www.w3.org/1999/xlink" width="300.11999999999995" height="34.488"><path fill="black" d="M7.39 27.62L0.91 27.62L0.91 26.83L3.46 26.50L4.10 26.50L7.39 26.83L7.39 27.62ZM4.39 27.62L3.24 27.62L3.24 10.51L4.15 10.51L4.39 21.36L4.39 27.62ZM15.55 10.97L12.22 10.63L12.22 9.84L18.72 9.84L18.72 10.63L16.20 10.97L15.55 10.97ZM16.34 27.72L14.62 27.72L3.89 12.12L3.82 12.05L3 10.82L1.01 10.63L1.01 9.84L6.34 9.84L15.89 23.78L15.43 23.95L15.36 16.82L15.36 9.84L16.34 9.84L16.34 27.72ZM27.02 28.01L27.02 28.01Q25.13 28.01 23.65 27.18Q22.18 26.35 21.35 24.82Q20.52 23.28 20.52 21.14L20.52 21.14Q20.52 19.01 21.41 17.50Q22.30 15.98 23.78 15.18Q25.27 14.38 27.02 14.38L27.02 14.38Q28.80 14.38 30.29 15.17Q31.78 15.96 32.66 17.47Q33.55 18.98 33.55 21.14L33.55 21.14Q33.55 23.28 32.71 24.83Q31.87 26.38 30.40 27.19Q28.92 28.01 27.02 28.01ZM27.02 27.22L27.02 27.22Q28.49 27.22 29.29 25.70Q30.10 24.19 30.10 21.19L30.10 21.19Q30.10 18.17 29.29 16.68Q28.49 15.19 27.02 15.19L27.02 15.19Q25.58 15.19 24.77 16.68Q23.95 18.17 23.95 21.19L23.95 21.19Q23.95 24.19 24.77 25.70Q25.58 27.22 27.02 27.22ZM43.30 15.72L38.57 15.72L38.57 14.76L43.30 14.76L43.30 15.72ZM40.39 28.01L40.39 28.01Q38.69 28.01 37.80 27.16Q36.91 26.30 36.91 24.46L36.91 24.46Q36.91 23.78 36.92 23.24Q36.94 22.70 36.94 21.98L36.94 21.98L36.94 15.72L34.85 15.72L34.85 14.95L37.49 14.71L37.03 15.02L38.14 10.92L40.22 10.92L40.18 15.17L40.18 15.41L40.18 24.65Q40.18 25.66 40.60 26.12Q41.02 26.59 41.76 26.59L41.76 26.59Q42.24 26.59 42.62 26.41Q43.01 26.23 43.49 25.87L43.49 25.87L43.85 26.28Q43.34 27.12 42.49 27.56Q41.64 28.01 40.39 28.01ZM51.41 28.01L51.41 28.01Q49.51 28.01 48.04 27.18Q46.56 26.35 45.73 24.82Q44.90 23.28 44.90 21.14L44.90 21.14Q44.90 19.01 45.79 17.50Q46.68 15.98 48.17 15.18Q49.66 14.38 51.41 14.38L51.41 14.38Q53.18 14.38 54.67 15.17Q56.16 15.96 57.05 17.47Q57.94 18.98 57.94 21.14L57.94 21.14Q57.94 23.28 57.10 24.83Q56.26 26.38 54.78 27.19Q53.30 28.01 51.41 28.01ZM51.41 27.22L51.41 27.22Q52.87 27.22 53.68 25.70Q54.48 24.19 54.48 21.19L54.48 21.19Q54.48 18.17 53.68 16.68Q52.87 15.19 51.41 15.19L51.41 15.19Q49.97 15.19 49.15 16.68Q48.34 18.17 48.34 21.19L48.34 21.19Q48.34 24.19 49.15 25.70Q49.97 27.22 51.41 27.22ZM71.54 28.08L71.54 28.08Q70.08 28.08 68.62 27.70Q67.15 27.31 66.14 26.64L66.14 26.64L66.29 22.70L67.56 22.70L68.76 27.24L67.30 26.62L67.03 25.70Q68.21 26.54 69.12 26.82Q70.03 27.10 71.23 27.10L71.23 27.10Q73.06 27.10 74.09 26.27Q75.12 25.44 75.12 23.93L75.12 23.93Q75.12 23.09 74.86 22.49Q74.59 21.89 73.96 21.41Q73.32 20.93 72.24 20.47L72.24 20.47L71.14 19.99Q68.83 18.96 67.62 17.66Q66.41 16.37 66.41 14.30L66.41 14.30Q66.41 12.72 67.21 11.63Q68.02 10.54 69.42 9.97Q70.82 9.41 72.62 9.41L72.62 9.41Q74.04 9.41 75.22 9.76Q76.39 10.10 77.33 10.75L77.33 10.75L77.16 14.50L75.89 14.50L74.71 10.18L76.30 10.85L76.49 11.81Q75.48 10.99 74.75 10.68Q74.02 10.37 73.01 10.37L73.01 10.37Q71.40 10.37 70.39 11.14Q69.38 11.90 69.38 13.32L69.38 13.32Q69.38 14.62 70.10 15.38Q70.82 16.15 72.14 16.73L72.14 16.73L73.34 17.26Q75.14 18.05 76.21 18.84Q77.28 19.63 77.75 20.59Q78.22 21.55 78.22 22.87L78.22 22.87Q78.22 24.43 77.42 25.60Q76.63 26.76 75.14 27.42Q73.66 28.08 71.54 28.08ZM86.81 28.01L86.81 28.01Q84.89 28.01 83.39 27.23Q81.89 26.45 81.04 24.91Q80.18 23.38 80.18 21.17L80.18 21.17Q80.18 19.01 81.10 17.48Q82.01 15.96 83.48 15.17Q84.96 14.38 86.64 14.38L86.64 14.38Q88.42 14.38 89.63 15.08Q90.84 15.79 91.45 16.99Q92.06 18.19 92.06 19.68L92.06 19.68Q92.06 20.52 91.92 21.14L91.92 21.14L81.58 21.14L81.58 20.30L87.70 20.30Q88.46 20.30 88.74 19.88Q89.02 19.46 89.02 18.50L89.02 18.50Q89.02 16.92 88.34 16.06Q87.67 15.19 86.52 15.19L86.52 15.19Q85.73 15.19 85.06 15.79Q84.38 16.39 83.99 17.64Q83.59 18.89 83.59 20.83L83.59 20.83Q83.59 22.80 84.14 24.06Q84.70 25.32 85.67 25.90Q86.64 26.47 87.89 26.47L87.89 26.47Q89.16 26.47 90.04 25.99Q90.91 25.51 91.56 24.67L91.56 24.67L91.99 24.98Q91.25 26.42 89.93 27.22Q88.61 28.01 86.81 28.01ZM101.11 27.62L93.79 27.62L93.79 26.90L96.38 26.64L98.47 26.64L101.11 26.90L101.11 27.62ZM98.90 27.62L95.50 27.62Q95.54 27.02 95.56 26.02Q95.57 25.01 95.58 23.92Q95.59 22.82 95.59 21.98L95.59 21.98L95.59 20.18Q95.59 18.96 95.57 18.17Q95.54 17.38 95.50 16.49L95.50 16.49L93.62 16.32L93.62 15.74L98.33 14.42L98.64 14.62L98.83 18.05L98.83 18.07L98.83 21.98Q98.83 22.82 98.84 23.92Q98.86 25.01 98.87 26.02Q98.88 27.02 98.90 27.62L98.90 27.62ZM98.81 19.94L98.81 19.94L98.02 18.48L98.66 18.48Q99.02 17.16 99.66 16.25Q100.30 15.34 101.10 14.86Q101.90 14.38 102.70 14.38L102.70 14.38Q103.49 14.38 104.10 14.74Q104.71 15.10 104.88 15.98L104.88 15.98Q104.86 16.75 104.47 17.24Q104.09 17.74 103.27 17.74L103.27 17.74Q102.67 17.74 102.24 17.40Q101.81 17.06 101.35 16.49L101.35 16.49L100.80 15.84L101.66 15.98Q100.66 16.51 99.97 17.44Q99.29 18.36 98.81 19.94ZM112.54 27.62L105.89 27.62L105.89 26.90L108.46 26.66L109.94 26.66L112.54 26.90L112.54 27.62ZM110.98 27.62L107.59 27.62Q107.62 27.02 107.63 26.02Q107.64 25.01 107.65 23.92Q107.66 22.82 107.66 21.98L107.66 21.98L107.66 20.23Q107.66 19.03 107.65 18.17Q107.64 17.30 107.59 16.44L107.59 16.44L105.70 16.27L105.70 15.70L110.66 14.42L110.98 14.62L110.88 18.31L110.88 21.98Q110.88 22.82 110.89 23.92Q110.90 25.01 110.93 26.02Q110.95 27.02 110.98 27.62L110.98 27.62ZM109.15 11.90L109.15 11.90Q108.41 11.90 107.87 11.41Q107.33 10.92 107.33 10.13L107.33 10.13Q107.33 9.38 107.87 8.89Q108.41 8.40 109.15 8.40L109.15 8.40Q109.90 8.40 110.44 8.89Q110.98 9.38 110.98 10.13L110.98 10.13Q110.98 10.92 110.44 11.41Q109.90 11.90 109.15 11.90ZM121.61 27.62L114.14 27.62L114.14 26.90L116.86 26.66L118.87 26.66L121.61 26.90L121.61 27.62ZM119.35 27.62L115.94 27.62Q115.99 26.23 116.00 24.80Q116.02 23.38 116.02 21.98L116.02 21.98L116.02 15.72L114 15.72L114 14.95L117.14 14.64L116.02 15.24L116.04 14.98Q116.21 12.70 116.81 11.38Q117.41 10.06 118.30 9.26L118.30 9.26Q119.21 8.42 120.20 8.06Q121.20 7.70 122.26 7.70L122.26 7.70Q123.26 7.70 124.08 8.08Q124.90 8.45 125.11 9.31L125.11 9.31Q125.09 9.91 124.69 10.32Q124.30 10.73 123.55 10.73L123.55 10.73Q122.93 10.73 122.42 10.38Q121.92 10.03 121.44 9.17L121.44 9.17L120.84 8.23L120.84 8.02L121.97 8.02L121.97 8.21Q121.37 8.30 120.88 8.62Q120.38 8.93 120.10 9.36L120.10 9.36Q119.71 10.01 119.50 10.84Q119.28 11.66 119.23 12.78Q119.18 13.90 119.26 15.36L119.26 15.36L119.26 21.98Q119.26 23.38 119.28 24.80Q119.30 26.23 119.35 27.62L119.35 27.62ZM122.54 15.72L117.67 15.72L117.67 14.76L122.54 14.76L122.54 15.72ZM130.70 31.34L130.70 31.34Q129.55 31.34 128.86 31.01Q128.16 30.67 128.04 29.88L128.04 29.88Q128.18 29.18 128.62 28.90Q129.05 28.61 129.67 28.61L129.67 28.61Q130.25 28.61 130.66 28.80Q131.06 28.99 131.64 29.59L131.64 29.59L132.58 30.72L132.58 30.86L132.19 30.86L132.19 30.67Q132.65 29.30 132.76 27.50Q132.86 25.70 132.86 23.09L132.86 23.09Q132.86 22.13 132.86 21.01Q132.86 19.90 132.85 18.41Q132.84 16.92 132.83 14.83Q132.82 12.74 132.77 9.84L132.77 9.84L136.20 9.84Q136.15 11.83 136.14 13.90Q136.13 15.96 136.13 18.02L136.13 18.02L136.13 22.97Q136.13 24.79 135.95 25.99Q135.77 27.19 135.43 27.98Q135.10 28.78 134.54 29.42L134.54 29.42Q133.68 30.50 132.68 30.92Q131.69 31.34 130.70 31.34ZM133.85 10.97L130.10 10.63L130.10 9.84L138.43 9.84L138.43 10.63L134.71 10.97L133.85 10.97ZM148.73 27.62L140.33 27.62L140.33 26.83L144 26.50L144.98 26.50L148.73 26.83L148.73 27.62ZM146.11 27.62L142.58 27.62Q142.63 25.58 142.63 23.51Q142.63 21.43 142.63 19.32L142.63 19.32L142.63 18.17Q142.63 16.08 142.63 14.00Q142.63 11.93 142.58 9.84L142.58 9.84L146.11 9.84Q146.09 11.88 146.08 13.98Q146.06 16.08 146.06 18.17L146.06 18.17L146.06 19.85Q146.06 21.55 146.08 23.54Q146.09 25.54 146.11 27.62L146.11 27.62ZM147.14 20.45L144.36 20.45L144.36 19.58L147.07 19.58Q148.61 19.58 149.58 19.01Q150.55 18.43 151.02 17.42Q151.49 16.42 151.49 15.07L151.49 15.07Q151.49 12.94 150.47 11.83Q149.45 10.73 147.38 10.73L147.38 10.73L144.36 10.73L144.36 9.84L147.43 9.84Q151.27 9.84 152.99 11.23Q154.70 12.62 154.70 15.10L154.70 15.10Q154.70 16.58 153.96 17.80Q153.22 19.01 151.55 19.73Q149.88 20.45 147.14 20.45L147.14 20.45ZM144 10.97L140.33 10.63L140.33 9.84L144.36 9.84L144.36 10.97L144 10.97ZM167.66 27.62L164.98 27.62L164.76 27.41L173.02 11.45L172.68 12.82L172.68 12.38L162.79 12.38L162.79 9.84L173.93 9.84L173.93 11.45L167.66 27.62ZM182.64 28.01L182.64 28.01Q181.06 28.01 179.68 27.05Q178.30 26.09 177.43 24.02Q176.57 21.96 176.57 18.70L176.57 18.70Q176.57 15.46 177.43 13.42Q178.30 11.38 179.68 10.42Q181.06 9.46 182.64 9.46L182.64 9.46Q184.22 9.46 185.60 10.42Q186.98 11.38 187.84 13.42Q188.69 15.46 188.69 18.70L188.69 18.70Q188.69 21.96 187.84 24.02Q186.98 26.09 185.60 27.05Q184.22 28.01 182.64 28.01ZM182.64 27.22L182.64 27.22Q183.19 27.22 183.73 26.81Q184.27 26.40 184.69 25.43Q185.11 24.46 185.35 22.81Q185.59 21.17 185.59 18.70L185.59 18.70Q185.59 16.25 185.35 14.62Q185.11 12.98 184.69 12.04Q184.27 11.09 183.73 10.68Q183.19 10.27 182.64 10.27L182.64 10.27Q182.04 10.27 181.51 10.68Q180.98 11.09 180.56 12.04Q180.14 12.98 179.92 14.60Q179.69 16.22 179.69 18.70L179.69 18.70Q179.69 21.17 179.92 22.82Q180.14 24.48 180.56 25.44Q180.98 26.40 181.51 26.81Q182.04 27.22 182.64 27.22ZM196.87 28.01L196.87 28.01Q195.29 28.01 193.91 27.05Q192.53 26.09 191.66 24.02Q190.80 21.96 190.80 18.70L190.80 18.70Q190.80 15.46 191.66 13.42Q192.53 11.38 193.91 10.42Q195.29 9.46 196.87 9.46L196.87 9.46Q198.46 9.46 199.84 10.42Q201.22 11.38 202.07 13.42Q202.92 15.46 202.92 18.70L202.92 18.70Q202.92 21.96 202.07 24.02Q201.22 26.09 199.84 27.05Q198.46 28.01 196.87 28.01ZM196.87 27.22L196.87 27.22Q197.42 27.22 197.96 26.81Q198.50 26.40 198.92 25.43Q199.34 24.46 199.58 22.81Q199.82 21.17 199.82 18.70L199.82 18.70Q199.82 16.25 199.58 14.62Q199.34 12.98 198.92 12.04Q198.50 11.09 197.96 10.68Q197.42 10.27 196.87 10.27L196.87 10.27Q196.27 10.27 195.74 10.68Q195.22 11.09 194.80 12.04Q194.38 12.98 194.15 14.60Q193.92 16.22 193.92 18.70L193.92 18.70Q193.92 21.17 194.15 22.82Q194.38 24.48 194.80 25.44Q195.22 26.40 195.74 26.81Q196.27 27.22 196.87 27.22ZM217.44 27.62L210.84 27.62L210.84 26.90L213.38 26.66L214.90 26.66L217.44 26.90L217.44 27.62ZM215.93 27.62L212.52 27.62Q212.57 27.02 212.58 26.02Q212.59 25.01 212.60 23.92Q212.62 22.82 212.62 21.98L212.62 21.98L212.62 20.18Q212.62 18.98 212.59 18.18Q212.57 17.38 212.52 16.49L212.52 16.49L210.65 16.32L210.65 15.74L215.35 14.42L215.66 14.62L215.86 17.35L215.86 17.40L215.86 21.98Q215.86 22.82 215.87 23.92Q215.88 25.01 215.89 26.02Q215.90 27.02 215.93 27.62L215.93 27.62ZM225.72 27.62L219.12 27.62L219.12 26.90L221.62 26.66L223.13 26.66L225.72 26.90L225.72 27.62ZM224.16 27.62L220.78 27.62Q220.80 27.02 220.81 26.03Q220.82 25.03 220.84 23.94Q220.85 22.85 220.85 21.98L220.85 21.98L220.85 18.74Q220.85 17.23 220.38 16.62Q219.91 16.01 219.00 16.01L219.00 16.01Q218.28 16.01 217.22 16.57Q216.17 17.14 215.06 18.43L215.06 18.43L214.97 17.40L215.33 17.40Q216.67 15.70 217.88 15.04Q219.10 14.38 220.39 14.38L220.39 14.38Q222.07 14.38 223.07 15.48Q224.06 16.58 224.06 18.96L224.06 18.96L224.06 21.98Q224.06 22.85 224.08 23.94Q224.09 25.03 224.11 26.03Q224.14 27.02 224.16 27.62L224.16 27.62ZM233.88 28.01L233.88 28.01Q231.98 28.01 230.51 27.18Q229.03 26.35 228.20 24.82Q227.38 23.28 227.38 21.14L227.38 21.14Q227.38 19.01 228.26 17.50Q229.15 15.98 230.64 15.18Q232.13 14.38 233.88 14.38L233.88 14.38Q235.66 14.38 237.14 15.17Q238.63 15.96 239.52 17.47Q240.41 18.98 240.41 21.14L240.41 21.14Q240.41 23.28 239.57 24.83Q238.73 26.38 237.25 27.19Q235.78 28.01 233.88 28.01ZM233.88 27.22L233.88 27.22Q235.34 27.22 236.15 25.70Q236.95 24.19 236.95 21.19L236.95 21.19Q236.95 18.17 236.15 16.68Q235.34 15.19 233.88 15.19L233.88 15.19Q232.44 15.19 231.62 16.68Q230.81 18.17 230.81 21.19L230.81 21.19Q230.81 24.19 231.62 25.70Q232.44 27.22 233.88 27.22ZM249.53 27.62L242.21 27.62L242.21 26.90L244.80 26.64L246.89 26.64L249.53 26.90L249.53 27.62ZM247.32 27.62L243.91 27.62Q243.96 27.02 243.97 26.02Q243.98 25.01 244.00 23.92Q244.01 22.82 244.01 21.98L244.01 21.98L244.01 20.18Q244.01 18.96 243.98 18.17Q243.96 17.38 243.91 16.49L243.91 16.49L242.04 16.32L242.04 15.74L246.74 14.42L247.06 14.62L247.25 18.05L247.25 18.07L247.25 21.98Q247.25 22.82 247.26 23.92Q247.27 25.01 247.28 26.02Q247.30 27.02 247.32 27.62L247.32 27.62ZM247.22 19.94L247.22 19.94L246.43 18.48L247.08 18.48Q247.44 17.16 248.08 16.25Q248.71 15.34 249.52 14.86Q250.32 14.38 251.11 14.38L251.11 14.38Q251.90 14.38 252.52 14.74Q253.13 15.10 253.30 15.98L253.30 15.98Q253.27 16.75 252.89 17.24Q252.50 17.74 251.69 17.74L251.69 17.74Q251.09 17.74 250.66 17.40Q250.22 17.06 249.77 16.49L249.77 16.49L249.22 15.84L250.08 15.98Q249.07 16.51 248.39 17.44Q247.70 18.36 247.22 19.94ZM260.83 27.62L254.23 27.62L254.23 26.90L256.78 26.66L258.29 26.66L260.83 26.90L260.83 27.62ZM259.32 27.62L255.91 27.62Q255.96 27.02 255.97 26.02Q255.98 25.01 256.00 23.92Q256.01 22.82 256.01 21.98L256.01 21.98L256.01 20.16Q256.01 18.96 256.00 18.17Q255.98 17.38 255.91 16.49L255.91 16.49L254.04 16.32L254.04 15.74L258.74 14.42L259.06 14.62L259.25 17.28L259.25 17.35L259.25 21.98Q259.25 22.82 259.26 23.92Q259.27 25.01 259.28 26.02Q259.30 27.02 259.32 27.62L259.32 27.62ZM268.85 27.62L262.34 27.62L262.34 26.90L264.82 26.66L266.35 26.66L268.85 26.90L268.85 27.62ZM267.34 27.62L264.00 27.62Q264.05 27.02 264.06 26.03Q264.07 25.03 264.08 23.94Q264.10 22.85 264.10 21.98L264.10 21.98L264.10 18.94Q264.10 17.33 263.64 16.68Q263.18 16.03 262.27 16.03L262.27 16.03Q261.38 16.03 260.41 16.69Q259.44 17.35 258.48 18.53L258.48 18.53L258.36 17.40L258.74 17.40Q259.80 15.96 260.99 15.17Q262.18 14.38 263.62 14.38L263.62 14.38Q265.37 14.38 266.30 15.48Q267.24 16.58 267.24 18.96L267.24 18.96L267.24 21.98Q267.24 22.85 267.25 23.94Q267.26 25.03 267.29 26.03Q267.31 27.02 267.34 27.62L267.34 27.62ZM276.86 27.62L270.41 27.62L270.41 26.90L272.76 26.66L274.34 26.66L276.86 26.90L276.86 27.62ZM275.33 27.62L271.99 27.62Q272.02 27.02 272.03 26.03Q272.04 25.03 272.05 23.94Q272.06 22.85 272.06 21.98L272.06 21.98L272.06 18.94Q272.06 17.26 271.60 16.64Q271.13 16.03 270.22 16.03L270.22 16.03Q269.33 16.03 268.40 16.62Q267.48 17.21 266.45 18.43L266.45 18.43L266.28 17.21L266.76 17.21Q267.84 15.72 269.00 15.05Q270.17 14.38 271.51 14.38L271.51 14.38Q273.41 14.38 274.33 15.50Q275.26 16.63 275.26 19.06L275.26 19.06L275.26 21.98Q275.26 22.85 275.27 23.94Q275.28 25.03 275.29 26.03Q275.30 27.02 275.33 27.62L275.33 27.62ZM282.05 28.01L282.05 28.01Q280.54 28.01 279.56 27.16Q278.59 26.30 278.59 24.79L278.59 24.79Q278.59 23.76 279.05 22.98Q279.50 22.20 280.57 21.59Q281.64 20.98 283.44 20.47L283.44 20.47Q284.40 20.21 285.59 19.90Q286.78 19.58 287.74 19.37L287.74 19.37L287.74 19.97Q286.78 20.21 285.82 20.48Q284.86 20.76 284.21 20.98L284.21 20.98Q282.91 21.50 282.26 22.33Q281.62 23.16 281.62 24.36L281.62 24.36Q281.62 25.46 282.14 26.00Q282.67 26.54 283.56 26.54L283.56 26.54Q283.94 26.54 284.39 26.36Q284.83 26.18 285.42 25.72Q286.01 25.25 286.80 24.38L286.80 24.38L287.18 25.66L286.34 25.66Q285.65 26.40 285.04 26.93Q284.42 27.46 283.72 27.73Q283.01 28.01 282.05 28.01ZM288.74 27.98L288.74 27.98Q287.52 27.98 286.87 27.28Q286.22 26.57 286.08 25.37L286.08 25.37L286.08 25.30L286.08 18.48Q286.08 17.18 285.84 16.48Q285.60 15.77 285.05 15.48Q284.50 15.19 283.56 15.19L283.56 15.19Q282.94 15.19 282.29 15.34Q281.64 15.48 280.78 15.84L280.78 15.84L282.26 15.24L282.02 17.09Q281.95 18.12 281.51 18.55Q281.06 18.98 280.44 18.98L280.44 18.98Q279.26 18.98 278.98 17.88L278.98 17.88Q279.22 16.25 280.67 15.31Q282.12 14.38 284.64 14.38L284.64 14.38Q287.04 14.38 288.13 15.48Q289.22 16.58 289.22 19.08L289.22 19.08L289.22 25.34Q289.22 26.18 289.44 26.50Q289.66 26.81 290.04 26.81L290.04 26.81Q290.30 26.81 290.54 26.64Q290.78 26.47 291.12 26.02L291.12 26.02L291.53 26.35Q291.10 27.22 290.42 27.60Q289.75 27.98 288.74 27.98ZM299.40 27.62L292.42 27.62L292.42 26.90L295.08 26.66L296.59 26.66L299.40 26.90L299.40 27.62ZM297.62 27.62L294.22 27.62Q294.24 26.78 294.25 25.82Q294.26 24.86 294.28 23.87Q294.29 22.87 294.29 21.98L294.29 21.98L294.29 9.67L292.42 9.55L292.42 8.90L297.26 7.97L297.62 8.18L297.53 12.00L297.53 21.98Q297.53 22.87 297.54 23.87Q297.55 24.86 297.58 25.82Q297.60 26.78 297.62 27.62L297.62 27.62Z"/></svg>