<svg xmlns="http://www.w3.org/2000/svg" xmlns:xlink="http://www.w3.org/1999/xlink" width="38.77734375" height="31.58203125"><path fill="black" d="M3.38 24.64L3.38 21.59Q3.38 20.34 3.25 19.45Q3.12 18.56 2.91 17.90Q2.70 17.24 2.43 16.75Q2.16 16.25 1.88 15.82Q1.59 15.39 1.32 14.95Q1.05 14.52 0.84 13.97Q0.63 13.42 0.50 12.70Q0.38 11.98 0.38 10.97L0.38 10.97L0.38 8.14Q0.38 7.86 0.46 7.51Q0.55 7.15 0.80 6.84Q1.04 6.53 1.48 6.31Q1.92 6.09 2.63 6.09L2.63 6.09Q3.33 6.09 3.77 6.31Q4.21 6.53 4.45 6.84Q4.70 7.15 4.79 7.51Q4.88 7.86 4.88 8.14L4.88 8.14L4.88 13.39L3.38 13.39L3.38 8.14Q3.38 7.86 3.31 7.68Q3.25 7.50 3.14 7.40Q3.04 7.30 2.90 7.26Q2.77 7.22 2.63 7.22L2.63 7.22Q2.48 7.22 2.35 7.26Q2.21 7.30 2.11 7.40Q2.00 7.50 1.94 7.68Q1.88 7.86 1.88 8.14L1.88 8.14L1.88 10.43Q1.88 11.75 2.10 12.64Q2.32 13.54 2.65 14.20Q2.99 14.86 3.38 15.40Q3.76 15.94 4.10 16.56Q4.43 17.19 4.65 18.02Q4.88 18.84 4.88 20.07L4.88 20.07L4.88 24.64Q4.88 24.79 4.84 25.15Q4.80 25.52 4.59 25.91Q4.38 26.30 3.93 26.60Q3.47 26.89 2.63 26.89L2.63 26.89Q1.78 26.89 1.32 26.60Q0.87 26.30 0.66 25.91Q0.45 25.52 0.41 25.15Q0.38 24.79 0.38 24.64L0.38 24.64L0.38 17.89L1.88 17.89L1.88 24.64Q1.88 24.79 1.89 24.98Q1.90 25.17 1.97 25.35Q2.04 25.52 2.19 25.65Q2.34 25.77 2.63 25.77L2.63 25.77Q2.91 25.77 3.06 25.65Q3.21 25.52 3.28 25.35Q3.35 25.17 3.36 24.98Q3.38 24.79 3.38 24.64L3.38 24.64ZM6.19 8.52L7.69 8.52L7.69 26.52L6.19 26.52L6.19 8.52ZM11.06 16.77L11.25 13.77L11.63 8.52L13.13 8.52L12 17.89L13.13 26.52L11.63 26.52L11.25 22.02L11.06 19.02L10.88 22.02L10.50 26.52L9 26.52L10.13 17.89L9 8.52L10.50 8.52L10.88 13.77L11.06 16.77ZM21.53 8.14L21.53 14.52L20.03 14.52L20.03 8.14Q20.03 7.86 19.96 7.68Q19.90 7.50 19.79 7.40Q19.69 7.30 19.55 7.26Q19.42 7.22 19.28 7.22L19.28 7.22Q19.14 7.22 19.00 7.26Q18.87 7.30 18.76 7.40Q18.66 7.50 18.59 7.68Q18.53 7.86 18.53 8.14L18.53 8.14L18.53 24.64Q18.53 24.79 18.54 24.98Q18.55 25.17 18.62 25.35Q18.69 25.52 18.84 25.65Q19.00 25.77 19.28 25.77L19.28 25.77Q19.56 25.77 19.71 25.65Q19.86 25.52 19.93 25.35Q20.00 25.17 20.02 24.98Q20.03 24.79 20.03 24.64L20.03 24.64L20.03 16.77L21.53 16.77L21.53 24.64Q21.53 24.79 21.49 25.15Q21.46 25.52 21.25 25.91Q21.04 26.30 20.58 26.60Q20.12 26.89 19.28 26.89L19.28 26.89Q18.43 26.89 17.98 26.60Q17.52 26.30 17.31 25.91Q17.10 25.52 17.06 25.15Q17.03 24.79 17.03 24.64L17.03 24.64L17.03 8.14Q17.03 7.61 17.23 7.21Q17.43 6.82 17.75 6.57Q18.07 6.33 18.47 6.21Q18.87 6.09 19.28 6.09L19.28 6.09Q19.71 6.09 20.12 6.22Q20.52 6.35 20.84 6.61Q21.15 6.87 21.34 7.25Q21.53 7.64 21.53 8.14L21.53 8.14ZM25.65 8.52L27.15 26.52L25.65 26.52L25.42 22.63L24.38 22.63L24.15 26.52L22.65 26.52L24.15 8.52L25.65 8.52ZM24.46 21.41L25.34 21.41L24.90 12.27L24.46 21.41ZM32.78 10.39L32.78 16.39Q32.78 17.10 32.52 17.48Q32.26 17.86 31.84 18.04Q31.42 18.21 30.88 18.24Q30.34 18.27 29.78 18.27L29.78 18.27L29.78 26.52L28.28 26.52L28.28 8.52L30.15 8.52Q31.15 8.52 31.68 8.71Q32.21 8.89 32.46 9.18Q32.71 9.46 32.74 9.79Q32.78 10.11 32.78 10.39L32.78 10.39ZM31.28 16.02L31.28 10.39Q31.28 10.11 31.20 9.96Q31.13 9.81 30.95 9.74Q30.77 9.67 30.49 9.66Q30.20 9.64 29.78 9.64L29.78 9.64L29.78 17.14Q30.06 17.14 30.33 17.13Q30.60 17.11 30.81 17.00Q31.02 16.90 31.15 16.67Q31.28 16.44 31.28 16.02L31.28 16.02ZM38.03 10.21L38.03 14.89L36.53 14.89L36.53 10.21Q36.53 9.79 36.35 9.62Q36.18 9.46 35.96 9.46L35.96 9.46Q35.75 9.46 35.58 9.62Q35.40 9.79 35.40 10.21L35.40 10.21Q35.40 11.46 35.52 12.52Q35.64 13.57 35.82 14.46Q36.01 15.35 36.25 16.08Q36.48 16.82 36.71 17.43L36.71 17.43Q36.90 17.91 37.13 18.54Q37.36 19.17 37.56 20.05Q37.76 20.93 37.89 22.10Q38.03 23.27 38.03 24.83L38.03 24.83Q38.03 25.32 37.85 25.68Q37.68 26.04 37.38 26.27Q37.09 26.50 36.72 26.60Q36.35 26.71 35.96 26.71L35.96 26.71Q35.58 26.71 35.21 26.60Q34.84 26.50 34.55 26.27Q34.25 26.04 34.08 25.68Q33.90 25.32 33.90 24.83L33.90 24.83L33.90 20.14L35.40 20.14L35.40 24.83Q35.40 25.25 35.58 25.42Q35.75 25.58 35.96 25.58L35.96 25.58Q36.18 25.58 36.35 25.42Q36.53 25.25 36.53 24.83L36.53 24.83Q36.53 23.32 36.38 22.18Q36.23 21.04 36.01 20.16Q35.79 19.29 35.53 18.63Q35.26 17.98 35.04 17.43L35.04 17.43Q34.82 16.89 34.61 16.20Q34.41 15.50 34.25 14.63Q34.09 13.75 34.00 12.65Q33.90 11.55 33.90 10.21L33.90 10.21Q33.90 9.71 34.08 9.36Q34.25 9.01 34.55 8.78Q34.84 8.55 35.21 8.44Q35.58 8.33 35.96 8.33L35.96 8.33Q36.35 8.33 36.72 8.44Q37.09 8.55 37.38 8.78Q37.68 9.01 37.85 9.36Q38.03 9.71 38.03 10.21L38.03 10.21Z"/></svg>