<svg xmlns="http://www.w3.org/2000/svg" xmlns:xlink="http://www.w3.org/1999/xlink" width="124.41600000000001" height="27.6"><path fill="black" d="M8.09 21.74Q6.19 21.74 4.61 20.86Q3.02 19.97 2.09 18.35Q1.15 16.73 1.15 14.62L1.15 14.62Q1.15 12.26 2.22 10.12Q3.29 7.97 5.00 6.67Q6.72 5.38 8.54 5.38L8.54 5.38Q9.58 5.38 10.32 5.63Q11.06 5.88 11.74 6.31L11.74 6.31Q11.81 6.17 11.98 6.07Q12.14 5.98 12.36 5.98L12.36 5.98Q12.67 5.98 12.89 6.19Q13.10 6.41 13.10 6.72L13.10 6.72L13.10 8.26Q13.10 8.57 12.88 8.80Q12.65 9.02 12.34 9.02L12.34 9.02Q12.02 9.02 11.80 8.81Q11.57 8.59 11.57 8.28L11.57 8.28L11.57 8.09Q11.04 7.58 10.34 7.24Q9.65 6.89 8.54 6.89L8.54 6.89Q7.13 6.89 5.78 7.97Q4.44 9.05 3.59 10.84Q2.74 12.62 2.74 14.62L2.74 14.62Q2.74 16.32 3.48 17.59Q4.22 18.86 5.45 19.55Q6.67 20.23 8.09 20.23L8.09 20.23Q10.85 20.23 12.58 17.98L12.58 17.98Q12.72 17.81 12.85 17.75Q12.98 17.69 13.18 17.69L13.18 17.69Q13.49 17.69 13.72 17.89Q13.94 18.10 13.94 18.46L13.94 18.46Q13.94 18.74 13.80 18.91L13.80 18.91Q12.79 20.28 11.30 21.01Q9.82 21.74 8.09 21.74L8.09 21.74ZM20.71 21.74Q19.34 21.74 18.23 21.01Q17.11 20.28 16.48 19.02Q15.84 17.76 15.84 16.22L15.84 16.22Q15.84 14.59 16.57 13.10Q17.30 11.62 18.60 10.69Q19.90 9.77 21.46 9.77L21.46 9.77Q22.80 9.77 23.92 10.50Q25.03 11.23 25.67 12.49Q26.30 13.75 26.30 15.26L26.30 15.26Q26.30 16.99 25.54 18.48Q24.77 19.97 23.48 20.86Q22.20 21.74 20.71 21.74L20.71 21.74ZM20.81 20.38Q21.84 20.38 22.75 19.68Q23.66 18.98 24.22 17.83Q24.77 16.68 24.77 15.38L24.77 15.38Q24.77 14.26 24.31 13.28Q23.86 12.31 23.08 11.72Q22.30 11.14 21.34 11.14L21.34 11.14Q20.28 11.14 19.38 11.84Q18.48 12.55 17.94 13.72Q17.40 14.88 17.40 16.18L17.40 16.18Q17.40 17.42 17.87 18.37Q18.34 19.32 19.13 19.85Q19.92 20.38 20.81 20.38L20.81 20.38ZM30.07 21.74Q29.76 21.74 29.53 21.53Q29.30 21.31 29.30 21.02L29.30 21.02L29.30 10.51Q29.30 10.22 29.53 10.00Q29.76 9.77 30.07 9.77L30.07 9.77Q30.38 9.77 30.60 10.00Q30.82 10.22 30.82 10.51L30.82 10.51L30.82 13.27Q31.61 11.71 32.87 10.74Q34.13 9.77 35.35 9.77L35.35 9.77Q36.38 9.77 37.21 10.38Q38.04 10.99 38.35 12.48L38.35 12.48Q39.22 11.09 40.30 10.43Q41.38 9.77 42.43 9.77L42.43 9.77Q43.90 9.77 44.77 10.85Q45.65 11.93 45.65 14.21L45.65 14.21L45.65 21.02Q45.65 21.31 45.42 21.53Q45.19 21.74 44.88 21.74L44.88 21.74Q44.57 21.74 44.35 21.53Q44.14 21.31 44.14 21.02L44.14 21.02L44.14 14.04Q44.14 12.55 43.66 11.87Q43.18 11.18 42.24 11.18L42.24 11.18Q41.52 11.18 40.64 11.74Q39.77 12.29 39.14 13.30Q38.52 14.30 38.52 15.60L38.52 15.60L38.52 21.02Q38.52 21.31 38.30 21.53Q38.09 21.74 37.78 21.74L37.78 21.74Q37.46 21.74 37.24 21.53Q37.01 21.31 37.01 21.02L37.01 21.02L37.01 14.04Q37.01 12.53 36.58 11.86Q36.14 11.18 35.16 11.18L35.16 11.18Q34.34 11.18 33.48 11.87Q32.62 12.55 31.90 13.54L31.90 13.54Q31.25 14.45 31.03 15.24Q30.82 16.03 30.82 17.45L30.82 17.45L30.82 21.02Q30.82 21.31 30.60 21.53Q30.38 21.74 30.07 21.74L30.07 21.74ZM50.09 7.87Q49.78 7.87 49.56 7.66Q49.34 7.44 49.34 7.13L49.34 7.13L49.37 6.14Q49.37 5.86 49.61 5.64Q49.85 5.42 50.14 5.42L50.14 5.42Q50.42 5.42 50.64 5.65Q50.86 5.88 50.86 6.17L50.86 6.17L50.83 7.15Q50.83 7.46 50.60 7.67Q50.38 7.87 50.09 7.87L50.09 7.87ZM49.94 21.74Q49.63 21.74 49.39 21.52Q49.15 21.29 49.15 20.98L49.15 20.98L49.30 10.56Q49.30 10.25 49.54 10.01Q49.78 9.77 50.09 9.77L50.09 9.77Q50.40 9.77 50.63 10.00Q50.86 10.22 50.86 10.56L50.86 10.56L50.71 20.98Q50.71 21.29 50.48 21.52Q50.26 21.74 49.94 21.74L49.94 21.74ZM59.06 21.74Q57.67 21.74 56.46 21.06Q55.25 20.38 54.54 19.18Q53.83 17.98 53.83 16.54L53.83 16.54Q53.83 14.90 54.59 13.33Q55.34 11.76 56.59 10.76Q57.84 9.77 59.18 9.77L59.18 9.77Q60.43 9.77 61.24 10.18Q62.04 10.58 62.78 11.45L62.78 11.45Q62.98 11.64 62.98 11.95L62.98 11.95Q62.98 12.26 62.77 12.48Q62.57 12.70 62.26 12.70L62.26 12.70Q61.92 12.70 61.70 12.43L61.70 12.43Q61.18 11.81 60.62 11.48Q60.07 11.16 59.23 11.16L59.23 11.16Q58.27 11.16 57.36 11.93Q56.45 12.70 55.87 13.93Q55.30 15.17 55.30 16.49L55.30 16.49Q55.30 17.69 55.86 18.56Q56.42 19.44 57.30 19.90Q58.18 20.35 59.06 20.35L59.06 20.35Q61.13 20.35 62.28 18.70L62.28 18.70Q62.59 18.26 62.95 18.26L62.95 18.26Q63.26 18.26 63.48 18.48Q63.70 18.70 63.70 18.98L63.70 18.98Q63.70 19.22 63.46 19.54L63.46 19.54Q62.83 20.45 61.66 21.10Q60.48 21.74 59.06 21.74L59.06 21.74ZM75.07 21.74Q74.76 21.74 74.53 21.52Q74.30 21.29 74.30 20.98L74.30 20.98L74.33 6.14Q74.33 5.86 74.54 5.63Q74.76 5.40 75.07 5.40L75.07 5.40Q75.46 5.40 75.72 5.71L75.72 5.71L84.58 18.58L84.58 6.14Q84.58 5.83 84.80 5.60Q85.03 5.38 85.34 5.38L85.34 5.38Q85.66 5.38 85.88 5.60Q86.11 5.83 86.11 6.14L86.11 6.14L86.11 20.98Q86.11 21.29 85.90 21.52Q85.68 21.74 85.34 21.74L85.34 21.74Q85.20 21.74 85.01 21.65Q84.82 21.55 84.72 21.41L84.72 21.41L75.86 8.59L75.84 20.98Q75.84 21.29 75.61 21.52Q75.38 21.74 75.07 21.74L75.07 21.74ZM95.18 21.74Q93.43 21.74 92.06 20.96Q90.70 20.18 89.95 18.86Q89.21 17.54 89.21 15.98L89.21 15.98Q89.21 14.35 89.89 12.92Q90.58 11.50 91.80 10.63Q93.02 9.77 94.61 9.77L94.61 9.77Q96.05 9.77 97.07 10.32Q98.09 10.87 98.60 11.64Q99.12 12.41 99.12 13.01L99.12 13.01Q99.12 13.44 98.54 13.78L98.54 13.78L91.10 18.02Q91.70 19.18 92.74 19.76Q93.77 20.35 95.16 20.35L95.16 20.35Q95.93 20.35 96.78 19.97Q97.63 19.58 98.14 19.06L98.14 19.06Q98.30 18.82 98.62 18.82L98.62 18.82Q98.93 18.82 99.13 19.02Q99.34 19.22 99.34 19.54L99.34 19.54Q99.34 19.78 99.14 20.02L99.14 20.02Q98.50 20.76 97.38 21.25Q96.26 21.74 95.18 21.74L95.18 21.74ZM97.63 12.82Q97.30 12.00 96.58 11.59Q95.86 11.18 94.63 11.18L94.63 11.18Q93.48 11.18 92.57 11.82Q91.66 12.46 91.14 13.54Q90.62 14.62 90.60 15.91L90.60 15.91Q90.60 16.39 90.65 16.68L90.65 16.68L97.63 12.82ZM105.26 21.82Q103.92 21.82 103.14 21.22Q102.36 20.62 102.00 19.18Q101.64 17.74 101.64 15.17L101.64 15.17Q101.64 12.41 101.93 10.63L101.93 10.63Q102.00 10.15 102.18 9.95Q102.36 9.74 102.70 9.74L102.70 9.74Q102.98 9.74 103.19 9.94Q103.39 10.13 103.39 10.46L103.39 10.46Q103.39 10.82 103.32 11.40L103.32 11.40Q103.10 13.13 103.10 15.74L103.10 15.74Q103.10 18.26 103.61 19.37Q104.11 20.47 105.29 20.47L105.29 20.47Q106.37 20.47 107.46 19.91Q108.55 19.34 109.01 18.82L109.01 18.82Q109.30 18.48 109.30 17.74L109.30 17.74L109.39 10.42Q109.39 10.13 109.61 9.94Q109.82 9.74 110.11 9.74L110.11 9.74Q110.40 9.74 110.62 9.94Q110.83 10.13 110.83 10.42L110.83 10.42L110.83 21Q110.83 21.29 110.59 21.52Q110.35 21.74 110.04 21.74L110.04 21.74Q109.66 21.74 109.43 21.50Q109.20 21.26 109.20 20.90L109.20 20.90L109.20 19.99Q108.67 20.69 107.58 21.25Q106.49 21.82 105.26 21.82L105.26 21.82ZM119.47 21.74Q117.72 21.74 116.35 20.96Q114.98 20.18 114.24 18.86Q113.50 17.54 113.50 15.98L113.50 15.98Q113.50 14.35 114.18 12.92Q114.86 11.50 116.09 10.63Q117.31 9.77 118.90 9.77L118.90 9.77Q120.34 9.77 121.36 10.32Q122.38 10.87 122.89 11.64Q123.41 12.41 123.41 13.01L123.41 13.01Q123.41 13.44 122.83 13.78L122.83 13.78L115.39 18.02Q115.99 19.18 117.02 19.76Q118.06 20.35 119.45 20.35L119.45 20.35Q120.22 20.35 121.07 19.97Q121.92 19.58 122.42 19.06L122.42 19.06Q122.59 18.82 122.90 18.82L122.90 18.82Q123.22 18.82 123.42 19.02Q123.62 19.22 123.62 19.54L123.62 19.54Q123.62 19.78 123.43 20.02L123.43 20.02Q122.78 20.76 121.67 21.25Q120.55 21.74 119.47 21.74L119.47 21.74ZM121.92 12.82Q121.58 12.00 120.86 11.59Q120.14 11.18 118.92 11.18L118.92 11.18Q117.77 11.18 116.86 11.82Q115.94 12.46 115.43 13.54Q114.91 14.62 114.89 15.91L114.89 15.91Q114.89 16.39 114.94 16.68L114.94 16.68L121.92 12.82Z"/></svg>