<svg xmlns="http://www.w3.org/2000/svg" xmlns:xlink="http://www.w3.org/1999/xlink" width="188.616" height="28.8"><path fill="black" d="M5.02 7.39L5.02 7.39Q6.19 7.39 7.39 7.39Q8.59 7.39 9.78 7.43Q10.97 7.46 12.10 7.54L12.10 7.54L12.02 8.76L5.28 8.76Q4.49 8.76 4.07 9.19Q3.65 9.62 3.65 10.46L3.65 10.46L3.65 20.93Q3.65 21.77 4.07 22.21Q4.49 22.66 5.28 22.66L5.28 22.66L12.02 22.66L12.10 23.86Q10.97 23.93 9.78 23.95Q8.59 23.98 7.39 23.99Q6.19 24 5.02 24L5.02 24Q3.70 24 2.89 23.24Q2.09 22.49 2.09 21.26L2.09 21.26L2.09 10.13Q2.09 8.88 2.89 8.14Q3.70 7.39 5.02 7.39ZM2.50 15.82L2.50 14.54L11.06 14.54L11.06 15.82L2.50 15.82ZM23.21 12.34L24.89 12.34L21.10 17.95L25.18 23.98L23.50 23.98L19.49 17.95L23.21 12.34ZM14.33 12.34L16.01 12.34L19.73 17.95L15.72 23.98L14.04 23.98L18.10 17.95L14.33 12.34ZM18.58 17.33L20.64 17.33L20.64 18.53L18.58 18.53L18.58 17.33ZM32.38 12.05L32.38 12.05Q34.32 12.05 35.50 12.65Q36.67 13.25 37.19 14.59Q37.70 15.94 37.70 18.17L37.70 18.17Q37.70 20.40 37.19 21.74Q36.67 23.09 35.50 23.69Q34.32 24.29 32.38 24.29L32.38 24.29Q30.43 24.29 29.26 23.69Q28.08 23.09 27.55 21.74Q27.02 20.40 27.02 18.17L27.02 18.17Q27.02 15.94 27.55 14.59Q28.08 13.25 29.26 12.65Q30.43 12.05 32.38 12.05ZM32.38 13.37L32.38 13.37Q30.96 13.37 30.14 13.80Q29.33 14.23 28.98 15.28Q28.63 16.32 28.63 18.17L28.63 18.17Q28.63 19.99 28.98 21.05Q29.33 22.10 30.14 22.54Q30.96 22.97 32.38 22.97L32.38 22.97Q33.77 22.97 34.60 22.54Q35.42 22.10 35.77 21.05Q36.12 19.99 36.12 18.17L36.12 18.17Q36.12 16.32 35.77 15.28Q35.42 14.23 34.60 13.80Q33.77 13.37 32.38 13.37ZM51 7.13L51 7.13Q52.56 7.13 53.68 7.38Q54.79 7.63 55.39 8.39Q55.99 9.14 55.99 10.61L55.99 10.61Q55.99 11.69 55.68 12.62Q55.37 13.56 54.68 14.57Q54 15.58 52.90 16.82L52.90 16.82L47.86 22.54Q48.50 22.51 49.22 22.49Q49.94 22.46 50.62 22.46L50.62 22.46L56.64 22.46L56.64 23.98L45.91 23.98L45.91 23.02Q45.91 22.80 45.97 22.62Q46.03 22.44 46.18 22.30L46.18 22.30L51.31 16.44Q52.92 14.64 53.68 13.26Q54.43 11.88 54.38 10.61L54.38 10.61Q54.34 9.67 53.92 9.24Q53.50 8.81 52.74 8.66Q51.98 8.52 50.93 8.52L50.93 8.52Q50.18 8.52 49.49 8.56Q48.79 8.59 48.01 8.69Q47.23 8.78 46.20 8.98L46.20 8.98L46.06 7.75Q47.21 7.49 48.04 7.36Q48.86 7.22 49.57 7.18Q50.28 7.13 51 7.13ZM69.48 7.10L69.48 7.10Q71.30 7.10 72.41 7.45Q73.51 7.80 74.03 8.64Q74.54 9.48 74.54 10.94L74.54 10.94Q74.54 11.98 74.32 12.85Q74.09 13.73 73.55 14.33Q73.01 14.93 72.05 15.12L72.05 15.12L72.05 15.22Q73.70 15.48 74.34 16.60Q74.98 17.71 75 19.37L75 19.37Q75.02 21.02 74.53 22.12Q74.04 23.21 72.91 23.75Q71.78 24.29 69.84 24.29L69.84 24.29Q68.54 24.29 67.25 24.16Q65.95 24.02 64.70 23.86L64.70 23.86L64.85 22.61Q65.62 22.68 66.38 22.74Q67.15 22.80 67.92 22.84Q68.69 22.87 69.48 22.87L69.48 22.87Q70.92 22.87 71.77 22.52Q72.62 22.18 73.03 21.37Q73.44 20.57 73.44 19.22L73.44 19.22Q73.44 18.29 73.16 17.53Q72.89 16.78 72.12 16.32Q71.35 15.86 69.86 15.86L69.86 15.86L66.77 15.86L66.77 14.64L69.86 14.62Q70.92 14.62 71.57 14.30Q72.22 13.99 72.53 13.51Q72.84 13.03 72.94 12.44Q73.03 11.86 73.03 11.26L73.03 11.26Q73.01 10.13 72.66 9.54Q72.31 8.95 71.51 8.74Q70.70 8.52 69.31 8.52L69.31 8.52Q68.14 8.52 67.06 8.59Q65.98 8.66 65.14 8.74L65.14 8.74L64.97 7.54Q66.17 7.32 67.26 7.21Q68.35 7.10 69.48 7.10ZM83.86 7.10L83.86 7.10Q85.92 7.10 87.12 8.00Q88.32 8.90 88.85 10.80Q89.38 12.70 89.38 15.70L89.38 15.70Q89.38 18.67 88.85 20.58Q88.32 22.49 87.12 23.39Q85.92 24.29 83.86 24.29L83.86 24.29Q81.82 24.29 80.60 23.39Q79.39 22.49 78.88 20.58Q78.36 18.67 78.36 15.70L78.36 15.70Q78.36 12.70 78.88 10.80Q79.39 8.90 80.60 8.00Q81.82 7.10 83.86 7.10ZM83.86 8.50L83.86 8.50Q82.73 8.50 81.97 8.90Q81.22 9.31 80.76 10.18Q80.30 11.04 80.10 12.41Q79.90 13.78 79.90 15.70L79.90 15.70Q79.90 17.59 80.10 18.97Q80.30 20.35 80.76 21.22Q81.22 22.08 81.97 22.49Q82.73 22.90 83.86 22.90L83.86 22.90Q84.96 22.90 85.73 22.49Q86.50 22.08 86.96 21.22Q87.43 20.35 87.62 18.97Q87.82 17.59 87.82 15.70L87.82 15.70Q87.82 13.78 87.62 12.41Q87.43 11.04 86.96 10.18Q86.50 9.31 85.73 8.90Q84.96 8.50 83.86 8.50ZM98.16 7.10L98.16 7.10Q100.22 7.10 101.42 8.00Q102.62 8.90 103.15 10.80Q103.68 12.70 103.68 15.70L103.68 15.70Q103.68 18.67 103.15 20.58Q102.62 22.49 101.42 23.39Q100.22 24.29 98.16 24.29L98.16 24.29Q96.12 24.29 94.91 23.39Q93.70 22.49 93.18 20.58Q92.66 18.67 92.66 15.70L92.66 15.70Q92.66 12.70 93.18 10.80Q93.70 8.90 94.91 8.00Q96.12 7.10 98.16 7.10ZM98.16 8.50L98.16 8.50Q97.03 8.50 96.28 8.90Q95.52 9.31 95.06 10.18Q94.61 11.04 94.40 12.41Q94.20 13.78 94.20 15.70L94.20 15.70Q94.20 17.59 94.40 18.97Q94.61 20.35 95.06 21.22Q95.52 22.08 96.28 22.49Q97.03 22.90 98.16 22.90L98.16 22.90Q99.26 22.90 100.03 22.49Q100.80 22.08 101.27 21.22Q101.74 20.35 101.93 18.97Q102.12 17.59 102.12 15.70L102.12 15.70Q102.12 13.78 101.93 12.41Q101.74 11.04 101.27 10.18Q100.80 9.31 100.03 8.90Q99.26 8.50 98.16 8.50ZM119.47 12.05L119.47 12.05Q122.62 12.05 122.62 15.24L122.62 15.24L122.62 23.98L121.10 23.98L121.10 15.65Q121.10 14.40 120.62 13.88Q120.14 13.37 119.09 13.37L119.09 13.37Q117.91 13.37 116.78 13.92Q115.66 14.47 114.10 15.48L114.10 15.48L114.02 14.35Q115.44 13.25 116.80 12.65Q118.15 12.05 119.47 12.05ZM112.73 12.34L114 12.34L114.12 14.54L114.24 14.90L114.24 23.98L112.73 23.98L112.73 12.34ZM131.35 12.05L131.35 12.05Q133.30 12.05 134.47 12.65Q135.65 13.25 136.16 14.59Q136.68 15.94 136.68 18.17L136.68 18.17Q136.68 20.40 136.16 21.74Q135.65 23.09 134.47 23.69Q133.30 24.29 131.35 24.29L131.35 24.29Q129.41 24.29 128.23 23.69Q127.06 23.09 126.53 21.74Q126 20.40 126 18.17L126 18.17Q126 15.94 126.53 14.59Q127.06 13.25 128.23 12.65Q129.41 12.05 131.35 12.05ZM131.35 13.37L131.35 13.37Q129.94 13.37 129.12 13.80Q128.30 14.23 127.96 15.28Q127.61 16.32 127.61 18.17L127.61 18.17Q127.61 19.99 127.96 21.05Q128.30 22.10 129.12 22.54Q129.94 22.97 131.35 22.97L131.35 22.97Q132.74 22.97 133.57 22.54Q134.40 22.10 134.75 21.05Q135.10 19.99 135.10 18.17L135.10 18.17Q135.10 16.32 134.75 15.28Q134.40 14.23 133.57 13.80Q132.74 13.37 131.35 13.37ZM140.14 12.34L141.31 12.34L141.50 14.54L141.65 14.90L141.65 23.98L140.14 23.98L140.14 12.34ZM146.62 12.05L147.12 12.05L146.93 13.49L146.35 13.49Q145.22 13.49 144.13 13.98Q143.04 14.47 141.50 15.38L141.50 15.38L141.38 14.38Q142.73 13.30 144.05 12.67Q145.37 12.05 146.62 12.05L146.62 12.05ZM163.66 12.05L163.66 12.05Q165.14 12.05 165.94 12.86Q166.73 13.68 166.73 15.24L166.73 15.24L166.73 23.98L165.22 23.98L165.22 15.65Q165.19 14.47 164.71 13.92Q164.23 13.37 163.15 13.37L163.15 13.37Q162.46 13.37 161.82 13.60Q161.18 13.82 160.46 14.29Q159.74 14.76 158.76 15.48L158.76 15.48L158.66 14.38Q159.96 13.22 161.20 12.64Q162.43 12.05 163.66 12.05ZM149.62 12.34L150.86 12.34L150.98 14.54L151.13 14.90L151.13 23.98L149.62 23.98L149.62 12.34ZM155.86 12.05L155.86 12.05Q157.32 12.05 158.11 12.85Q158.90 13.66 158.90 15.24L158.90 15.24L158.90 23.98L157.44 23.98L157.44 15.65Q157.44 14.42 156.92 13.90Q156.41 13.37 155.38 13.37L155.38 13.37Q154.70 13.37 154.07 13.58Q153.43 13.80 152.70 14.27Q151.97 14.74 150.96 15.48L150.96 15.48L150.86 14.38Q152.16 13.22 153.38 12.64Q154.61 12.05 155.86 12.05ZM176.09 12.05L176.09 12.05Q177.29 12.05 178.12 12.40Q178.94 12.74 179.38 13.52Q179.81 14.30 179.81 15.62L179.81 15.62L179.81 23.98L178.61 23.98L178.37 21.43L178.27 21.22L178.27 15.62Q178.27 14.52 177.76 13.94Q177.24 13.37 175.80 13.37L175.80 13.37Q174.74 13.37 173.35 13.46Q171.96 13.56 170.64 13.70L170.64 13.70L170.50 12.58Q171.31 12.43 172.22 12.32Q173.14 12.22 174.12 12.13Q175.10 12.05 176.09 12.05ZM173.06 16.87L179.02 16.87L178.99 18.02L173.30 18.07Q172.39 18.10 171.97 18.56Q171.55 19.03 171.55 19.87L171.55 19.87L171.55 20.88Q171.55 21.86 172.06 22.34Q172.56 22.82 173.59 22.82L173.59 22.82Q174.36 22.85 175.28 22.56Q176.21 22.27 177.12 21.72Q178.03 21.17 178.73 20.42L178.73 20.42L178.73 21.60Q178.44 21.96 177.90 22.39Q177.36 22.82 176.65 23.23Q175.94 23.64 175.09 23.90Q174.24 24.17 173.33 24.17L173.33 24.17Q172.32 24.17 171.58 23.81Q170.83 23.45 170.41 22.74Q169.99 22.03 169.99 21.02L169.99 21.02L169.99 19.68Q169.99 18.34 170.80 17.60Q171.60 16.87 173.06 16.87L173.06 16.87ZM183.77 7.18L185.28 7.18L185.26 21.07Q185.26 21.91 185.71 22.34Q186.17 22.78 186.98 22.78L186.98 22.78L188.21 22.78L188.38 23.90Q188.18 24 187.84 24.06Q187.49 24.12 187.10 24.14Q186.72 24.17 186.46 24.17L186.46 24.17Q185.23 24.17 184.50 23.45Q183.77 22.73 183.77 21.38L183.77 21.38L183.77 7.18Z"/></svg>