<svg xmlns="http://www.w3.org/2000/svg" xmlns:xlink="http://www.w3.org/1999/xlink" width="201.048" height="28.8"><path fill="black" d="M5.04 7.34L5.04 7.34Q6.43 7.34 7.88 7.34Q9.34 7.34 10.74 7.40Q12.14 7.46 13.32 7.61L13.32 7.61L13.10 10.82L6.91 10.82Q6.38 10.82 6.10 11.10Q5.81 11.38 5.81 11.86L5.81 11.86L5.81 19.54Q5.81 20.02 6.10 20.29Q6.38 20.57 6.91 20.57L6.91 20.57L13.10 20.57L13.32 23.78Q12.14 23.90 10.74 23.96Q9.34 24.02 7.88 24.04Q6.43 24.05 5.04 24.05L5.04 24.05Q3.38 24.05 2.35 23.06Q1.32 22.08 1.32 20.50L1.32 20.50L1.32 10.90Q1.32 9.29 2.35 8.32Q3.38 7.34 5.04 7.34ZM1.75 16.97L1.75 13.92L12.24 13.92L12.24 16.97L1.75 16.97ZM23.54 12.05L27.89 12.05L24.58 17.88L28.15 23.98L23.81 23.98L20.47 17.88L23.54 12.05ZM14.45 12.05L18.79 12.05L21.89 17.88L18.55 23.98L14.18 23.98L17.76 17.88L14.45 12.05ZM18.98 16.56L23.40 16.56L23.40 19.10L18.98 19.10L18.98 16.56ZM35.09 11.71L35.09 11.71Q37.44 11.71 38.86 12.32Q40.27 12.94 40.90 14.32Q41.52 15.70 41.52 18.02L41.52 18.02Q41.52 20.33 40.90 21.68Q40.27 23.04 38.86 23.65Q37.44 24.26 35.09 24.26L35.09 24.26Q32.74 24.26 31.32 23.65Q29.90 23.04 29.28 21.68Q28.66 20.33 28.66 18.02L28.66 18.02Q28.66 15.70 29.28 14.32Q29.90 12.94 31.32 12.32Q32.74 11.71 35.09 11.71ZM35.09 14.76L35.09 14.76Q34.34 14.76 33.95 15.02Q33.55 15.29 33.38 15.98Q33.22 16.68 33.22 18.02L33.22 18.02Q33.22 19.34 33.38 20.04Q33.55 20.74 33.95 20.99Q34.34 21.24 35.09 21.24L35.09 21.24Q35.83 21.24 36.24 20.99Q36.65 20.74 36.80 20.04Q36.96 19.34 36.96 18.02L36.96 18.02Q36.96 16.68 36.80 15.98Q36.65 15.29 36.24 15.02Q35.83 14.76 35.09 14.76ZM54.38 7.13L54.38 7.13Q56.18 7.13 57.49 7.45Q58.80 7.78 59.53 8.64Q60.26 9.50 60.26 11.14L60.26 11.14Q60.26 12.02 60.07 12.77Q59.88 13.51 59.32 14.33Q58.75 15.14 57.65 16.27L57.65 16.27L53.54 20.35Q54.12 20.21 54.68 20.16Q55.25 20.11 55.87 20.14L55.87 20.14L60.70 20.14L60.70 23.98L48.31 23.98L48.31 21.67Q48.31 21.12 48.46 20.69Q48.60 20.26 48.94 19.85L48.94 19.85L52.70 16.01Q54.10 14.57 54.89 13.46Q55.68 12.36 55.68 11.66L55.68 11.66Q55.66 11.30 55.46 11.15Q55.27 10.99 54.88 10.93Q54.48 10.87 53.83 10.87L53.83 10.87Q52.97 10.87 52.22 10.88Q51.48 10.90 50.62 10.92Q49.75 10.94 48.62 10.99L48.62 10.99L48.46 7.68Q49.68 7.44 50.68 7.32Q51.67 7.20 52.58 7.16Q53.50 7.13 54.38 7.13ZM74.28 7.10L74.28 7.10Q76.20 7.10 77.39 7.37Q78.58 7.63 79.24 8.17Q79.90 8.71 80.15 9.54Q80.40 10.37 80.40 11.54L80.40 11.54Q80.40 12.43 80.14 13.27Q79.87 14.11 79.32 14.68Q78.77 15.24 77.86 15.34L77.86 15.34L77.86 15.43Q79.06 15.53 79.69 16.16Q80.33 16.80 80.57 17.77Q80.81 18.74 80.81 19.85L80.81 19.85Q80.81 21.48 80.28 22.45Q79.75 23.42 78.34 23.86Q76.92 24.29 74.28 24.29L74.28 24.29Q71.71 24.29 70.28 23.86Q68.86 23.42 68.30 22.45Q67.75 21.48 67.75 19.85L67.75 19.85Q67.75 18.74 67.99 17.77Q68.23 16.80 68.88 16.16Q69.53 15.53 70.73 15.43L70.73 15.43L70.73 15.34Q69.82 15.24 69.25 14.68Q68.69 14.11 68.44 13.27Q68.18 12.43 68.18 11.54L68.18 11.54Q68.18 10.37 68.44 9.54Q68.69 8.71 69.35 8.17Q70.01 7.63 71.21 7.37Q72.41 7.10 74.28 7.10ZM74.33 16.80L74.33 16.80Q73.61 16.80 73.14 16.90Q72.67 16.99 72.42 17.23Q72.17 17.47 72.07 17.90Q71.98 18.34 71.98 19.01L71.98 19.01Q71.98 19.82 72.17 20.28Q72.36 20.74 72.86 20.90Q73.37 21.07 74.30 21.07L74.30 21.07Q75.24 21.07 75.73 20.90Q76.22 20.74 76.39 20.28Q76.56 19.82 76.56 19.01L76.56 19.01Q76.56 18.31 76.46 17.89Q76.37 17.47 76.13 17.23Q75.89 16.99 75.46 16.90Q75.02 16.80 74.33 16.80ZM74.30 10.08L74.30 10.08Q73.46 10.08 73.01 10.25Q72.55 10.42 72.38 10.85Q72.22 11.28 72.22 12.12L72.22 12.12Q72.22 12.89 72.38 13.28Q72.55 13.68 73.03 13.82Q73.51 13.97 74.35 13.97L74.35 13.97Q75.22 13.97 75.65 13.82Q76.08 13.68 76.22 13.28Q76.37 12.89 76.37 12.12L76.37 12.12Q76.37 11.28 76.21 10.85Q76.06 10.42 75.61 10.25Q75.17 10.08 74.30 10.08ZM89.59 7.08L89.59 7.08Q92.11 7.08 93.60 7.88Q95.09 8.69 95.74 10.57Q96.38 12.46 96.38 15.70L96.38 15.70Q96.38 18.94 95.74 20.82Q95.09 22.70 93.60 23.51Q92.11 24.31 89.59 24.31L89.59 24.31Q87.10 24.31 85.61 23.51Q84.12 22.70 83.48 20.82Q82.85 18.94 82.85 15.70L82.85 15.70Q82.85 12.46 83.48 10.57Q84.12 8.69 85.61 7.88Q87.10 7.08 89.59 7.08ZM89.57 10.49L89.57 10.49Q88.90 10.49 88.45 10.69Q88.01 10.90 87.76 11.44Q87.50 11.98 87.41 13.01Q87.31 14.04 87.31 15.70L87.31 15.70Q87.31 17.35 87.41 18.38Q87.50 19.42 87.76 19.96Q88.01 20.50 88.45 20.70Q88.90 20.90 89.57 20.90L89.57 20.90Q90.26 20.90 90.72 20.70Q91.18 20.50 91.44 19.96Q91.70 19.42 91.81 18.38Q91.92 17.35 91.92 15.70L91.92 15.70Q91.92 14.04 91.81 13.01Q91.70 11.98 91.44 11.44Q91.18 10.90 90.72 10.69Q90.26 10.49 89.57 10.49ZM105.10 7.08L105.10 7.08Q107.62 7.08 109.10 7.88Q110.59 8.69 111.24 10.57Q111.89 12.46 111.89 15.70L111.89 15.70Q111.89 18.94 111.24 20.82Q110.59 22.70 109.10 23.51Q107.62 24.31 105.10 24.31L105.10 24.31Q102.60 24.31 101.11 23.51Q99.62 22.70 98.99 20.82Q98.35 18.94 98.35 15.70L98.35 15.70Q98.35 12.46 98.99 10.57Q99.62 8.69 101.11 7.88Q102.60 7.08 105.10 7.08ZM105.07 10.49L105.07 10.49Q104.40 10.49 103.96 10.69Q103.51 10.90 103.26 11.44Q103.01 11.98 102.91 13.01Q102.82 14.04 102.82 15.70L102.82 15.70Q102.82 17.35 102.91 18.38Q103.01 19.42 103.26 19.96Q103.51 20.50 103.96 20.70Q104.40 20.90 105.07 20.90L105.07 20.90Q105.77 20.90 106.22 20.70Q106.68 20.50 106.94 19.96Q107.21 19.42 107.32 18.38Q107.42 17.35 107.42 15.70L107.42 15.70Q107.42 14.04 107.32 13.01Q107.21 11.98 106.94 11.44Q106.68 10.90 106.22 10.69Q105.77 10.49 105.07 10.49ZM128.06 11.71L128.06 11.71Q131.52 11.71 131.52 15.05L131.52 15.05L131.52 23.98L127.15 23.98L127.15 16.42Q127.15 15.84 126.92 15.62Q126.70 15.41 126.12 15.41L126.12 15.41Q125.52 15.41 124.84 15.58Q124.15 15.74 123.12 16.20L123.12 16.20L122.90 13.94Q124.15 12.84 125.47 12.28Q126.79 11.71 128.06 11.71ZM119.21 12.05L122.66 12.05L123.19 14.45L123.58 14.76L123.58 23.98L119.21 23.98L119.21 12.05ZM139.90 11.71L139.90 11.71Q142.25 11.71 143.66 12.32Q145.08 12.94 145.70 14.32Q146.33 15.70 146.33 18.02L146.33 18.02Q146.33 20.33 145.70 21.68Q145.08 23.04 143.66 23.65Q142.25 24.26 139.90 24.26L139.90 24.26Q137.54 24.26 136.13 23.65Q134.71 23.04 134.09 21.68Q133.46 20.33 133.46 18.02L133.46 18.02Q133.46 15.70 134.09 14.32Q134.71 12.94 136.13 12.32Q137.54 11.71 139.90 11.71ZM139.90 14.76L139.90 14.76Q139.15 14.76 138.76 15.02Q138.36 15.29 138.19 15.98Q138.02 16.68 138.02 18.02L138.02 18.02Q138.02 19.34 138.19 20.04Q138.36 20.74 138.76 20.99Q139.15 21.24 139.90 21.24L139.90 21.24Q140.64 21.24 141.05 20.99Q141.46 20.74 141.61 20.04Q141.77 19.34 141.77 18.02L141.77 18.02Q141.77 16.68 141.61 15.98Q141.46 15.29 141.05 15.02Q140.64 14.76 139.90 14.76ZM148.32 12.05L151.73 12.05L152.26 14.45L152.69 14.76L152.69 23.98L148.32 23.98L148.32 12.05ZM156.86 11.71L157.54 11.71L157.15 15.72L156 15.72Q155.28 15.72 154.42 15.86Q153.55 16.01 152.23 16.34L152.23 16.34L151.97 13.97Q153.17 12.84 154.43 12.28Q155.69 11.71 156.86 11.71L156.86 11.71ZM174.31 11.71L174.31 11.71Q175.97 11.71 176.83 12.56Q177.70 13.42 177.70 15.05L177.70 15.05L177.70 23.98L173.35 23.98L173.35 16.42Q173.35 15.86 173.14 15.64Q172.92 15.41 172.34 15.41L172.34 15.41Q172.03 15.41 171.72 15.47Q171.41 15.53 171.01 15.70Q170.62 15.86 170.02 16.20L170.02 16.20L169.78 13.97Q170.88 12.84 171.94 12.28Q172.99 11.71 174.31 11.71ZM158.88 12.05L162.31 12.05L162.79 14.45L163.22 14.76L163.22 23.98L158.88 23.98L158.88 12.05ZM167.06 11.71L167.06 11.71Q168.70 11.71 169.54 12.55Q170.38 13.39 170.40 15.05L170.40 15.05L170.40 23.98L166.20 23.98L166.20 16.42Q166.20 15.84 165.95 15.62Q165.70 15.41 165.14 15.41L165.14 15.41Q164.86 15.41 164.53 15.47Q164.21 15.53 163.80 15.70Q163.39 15.86 162.77 16.20L162.77 16.20L162.53 13.97Q163.63 12.84 164.68 12.28Q165.72 11.71 167.06 11.71ZM186.70 11.71L186.70 11.71Q188.30 11.71 189.42 12.14Q190.54 12.58 191.11 13.58Q191.69 14.59 191.69 16.37L191.69 16.37L191.69 23.98L188.21 23.98L187.61 21.41L187.32 20.98L187.32 16.34Q187.30 15.60 186.95 15.28Q186.60 14.95 185.69 14.95L185.69 14.95Q184.75 14.95 183.38 14.99Q182.02 15.02 180.53 15.12L180.53 15.12L180.14 12.31Q181.03 12.14 182.22 12.01Q183.41 11.88 184.61 11.80Q185.81 11.71 186.70 11.71ZM183.31 16.66L189.96 16.66L189.94 18.86L184.82 18.86Q184.27 18.89 184.02 19.14Q183.77 19.39 183.77 19.82L183.77 19.82L183.77 20.28Q183.77 20.74 184.07 20.99Q184.37 21.24 184.97 21.24L184.97 21.24Q185.57 21.24 186.24 20.98Q186.91 20.71 187.56 20.26Q188.21 19.80 188.69 19.27L188.69 19.27L188.69 20.81Q188.50 21.19 188.10 21.77Q187.70 22.34 187.08 22.93Q186.46 23.52 185.57 23.90Q184.68 24.29 183.50 24.29L183.50 24.29Q182.42 24.29 181.51 23.90Q180.60 23.52 180.06 22.78Q179.52 22.03 179.52 20.90L179.52 20.90L179.52 19.70Q179.52 18.26 180.54 17.46Q181.56 16.66 183.31 16.66L183.31 16.66ZM194.04 7.18L198.38 7.18L198.38 19.87Q198.38 20.40 198.71 20.64Q199.03 20.88 199.66 20.88L199.66 20.88L200.54 20.88L201.02 23.74Q200.71 23.93 200.11 24.05Q199.51 24.17 198.89 24.23Q198.26 24.29 197.83 24.29L197.83 24.29Q196.06 24.29 195.05 23.42Q194.04 22.56 194.04 21L194.04 21L194.04 7.18Z"/></svg>