<svg xmlns="http://www.w3.org/2000/svg" xmlns:xlink="http://www.w3.org/1999/xlink" width="249.792" height="29.592000000000002"><path fill="black" d="M1.98 6.67L10.54 6.67Q11.00 6.67 11.30 6.56Q11.59 6.44 11.83 6.34Q12.07 6.23 12.32 6.23L12.32 6.23Q12.70 6.23 12.89 6.41Q13.09 6.60 13.21 7.07L13.21 7.07L14.20 10.58Q14.28 10.86 14.13 11.05Q13.98 11.24 13.70 11.28L13.70 11.28Q13.46 11.33 13.24 11.24Q13.02 11.15 12.88 10.84L12.88 10.84Q12.30 9.60 11.79 8.96Q11.28 8.33 10.72 8.10Q10.15 7.87 9.40 7.87L9.40 7.87L6.76 7.87L6.76 21.47Q6.76 21.73 6.90 21.92Q7.04 22.10 7.36 22.15L7.36 22.15L8.41 22.30Q8.72 22.36 8.85 22.50Q8.98 22.64 8.98 22.92L8.98 22.92Q8.98 23.17 8.80 23.32Q8.63 23.47 8.26 23.47L8.26 23.47L1.98 23.47Q1.61 23.47 1.43 23.32Q1.25 23.17 1.25 22.92L1.25 22.92Q1.25 22.46 1.75 22.31L1.75 22.31L2.44 22.15Q2.74 22.07 2.89 21.90Q3.04 21.73 3.04 21.47L3.04 21.47L3.04 8.68Q3.04 8.41 2.89 8.24Q2.74 8.08 2.44 7.99L2.44 7.99L1.75 7.84Q1.25 7.68 1.25 7.22L1.25 7.22Q1.25 6.96 1.43 6.82Q1.61 6.67 1.98 6.67L1.98 6.67ZM5.28 16.04L5.28 14.87L9.14 14.87Q9.90 14.87 10.21 14.57Q10.51 14.28 10.69 13.40L10.69 13.40Q10.76 13.14 10.91 13.02Q11.05 12.90 11.27 12.89L11.27 12.89Q11.77 12.85 11.89 13.37L11.89 13.37L12.79 16.96Q12.86 17.27 12.77 17.44Q12.68 17.62 12.46 17.69L12.46 17.69Q12.22 17.76 12.01 17.68Q11.80 17.60 11.62 17.35L11.62 17.35Q11.30 16.84 11.03 16.55Q10.76 16.26 10.42 16.15Q10.08 16.04 9.54 16.04L9.54 16.04L5.28 16.04ZM20.18 17.05L19.76 17.11Q19.76 15.37 20.26 14.20Q20.75 13.02 21.55 12.43Q22.36 11.83 23.28 11.83L23.28 11.83Q24.42 11.83 25.04 12.48Q25.67 13.13 25.67 14.34L25.67 14.34Q25.67 15.42 25.22 15.95Q24.78 16.48 24.07 16.48L24.07 16.48Q23.35 16.48 22.98 16.09Q22.61 15.71 22.61 15.02L22.61 15.02L22.61 14.59Q22.60 14.21 22.43 14.02Q22.26 13.84 21.88 13.84L21.88 13.84Q21.46 13.84 21.07 14.18Q20.68 14.53 20.43 15.24Q20.18 15.95 20.18 17.05L20.18 17.05ZM19.99 12.66L19.99 12.66L20.18 15.38L20.18 21.54Q20.18 21.89 20.32 22.05Q20.46 22.21 20.82 22.27L20.82 22.27L21.85 22.43Q22.13 22.48 22.27 22.61Q22.40 22.74 22.40 22.97L22.40 22.97Q22.40 23.21 22.23 23.34Q22.06 23.47 21.73 23.47L21.73 23.47L16.13 23.47Q15.79 23.47 15.64 23.34Q15.48 23.21 15.48 22.98L15.48 22.98Q15.48 22.80 15.59 22.67Q15.70 22.55 15.92 22.46L15.92 22.46L16.39 22.34Q16.61 22.27 16.71 22.10Q16.81 21.92 16.81 21.55L16.81 21.55L16.81 14.70Q16.81 14.39 16.72 14.26Q16.63 14.12 16.43 14.09L16.43 14.09L15.79 14.04Q15.58 13.99 15.48 13.88Q15.38 13.78 15.38 13.61L15.38 13.61Q15.38 13.40 15.50 13.28Q15.62 13.16 15.94 13.04L15.94 13.04L18.12 12.25Q18.71 12.02 18.98 11.96Q19.26 11.89 19.42 11.89L19.42 11.89Q19.68 11.89 19.81 12.07Q19.94 12.24 19.99 12.66ZM34.24 21.95L34.24 21.95L34.24 21.70L34.01 21.65L34.01 14.48Q34.01 13.64 33.58 13.18Q33.16 12.72 32.38 12.72L32.38 12.72Q31.67 12.72 31.28 13.02Q30.90 13.32 30.90 13.76L30.90 13.76L30.90 14.82Q30.90 15.54 30.42 15.93Q29.94 16.32 29.06 16.32L29.06 16.32Q28.32 16.32 27.94 15.97Q27.55 15.61 27.55 15.00L27.55 15.00Q27.55 14.24 28.18 13.52Q28.80 12.79 30.01 12.32Q31.22 11.84 33 11.84L33 11.84Q35.21 11.84 36.28 12.74Q37.36 13.63 37.36 15.16L37.36 15.16L37.36 21.40Q37.36 21.73 37.49 21.90Q37.63 22.07 37.88 22.07L37.88 22.07Q38.15 22.07 38.28 21.94Q38.41 21.82 38.51 21.68L38.51 21.68Q38.57 21.60 38.64 21.55Q38.71 21.49 38.82 21.49L38.82 21.49Q38.96 21.49 39.04 21.60Q39.11 21.71 39.11 21.89L39.11 21.89Q39.11 22.30 38.83 22.73Q38.54 23.16 37.99 23.47Q37.43 23.77 36.59 23.77L36.59 23.77Q35.52 23.77 34.88 23.29Q34.24 22.80 34.24 21.95ZM27.05 20.96L27.05 20.96Q27.05 19.46 28.39 18.54Q29.72 17.62 32.12 17.62L32.12 17.62Q32.90 17.62 33.53 17.75Q34.16 17.88 34.62 18.11L34.62 18.11L34.36 18.88Q33.95 18.68 33.52 18.58Q33.10 18.47 32.60 18.47L32.60 18.47Q31.61 18.47 31.05 18.98Q30.49 19.49 30.49 20.39L30.49 20.39Q30.49 21.29 30.97 21.77Q31.44 22.25 32.20 22.25L32.20 22.25Q32.84 22.25 33.44 21.95Q34.03 21.66 34.44 21.13L34.44 21.13L34.70 21.82Q34.04 22.75 32.93 23.26Q31.82 23.77 30.58 23.77L30.58 23.77Q29.00 23.77 28.03 22.99Q27.05 22.21 27.05 20.96ZM49.12 21.74L49.12 21.74L49.12 21.16L49.01 21.11L49.01 14.68Q49.01 14.38 48.92 14.24Q48.83 14.10 48.62 14.06L48.62 14.06L47.99 14.02Q47.77 13.97 47.68 13.86Q47.58 13.75 47.58 13.58L47.58 13.58Q47.58 13.39 47.69 13.27Q47.81 13.14 48.13 13.03L48.13 13.03L50.36 12.22Q50.82 12.05 51.10 11.97Q51.38 11.89 51.62 11.89L51.62 11.89Q52.00 11.89 52.19 12.10Q52.39 12.31 52.39 12.66L52.39 12.66L52.39 21.55Q52.39 21.92 52.49 22.10Q52.60 22.27 52.81 22.34L52.81 22.34L53.27 22.46Q53.50 22.54 53.60 22.66Q53.71 22.79 53.71 22.98L53.71 22.98Q53.71 23.21 53.56 23.34Q53.40 23.47 53.05 23.47L53.05 23.47L50.64 23.47Q49.99 23.47 49.55 22.99Q49.12 22.50 49.12 21.74ZM41.45 20.14L41.45 20.14L41.45 14.68Q41.45 14.38 41.35 14.24Q41.26 14.10 41.05 14.06L41.05 14.06L40.42 14.02Q40.20 13.97 40.10 13.86Q40.01 13.75 40.01 13.58L40.01 13.58Q40.01 13.39 40.13 13.27Q40.25 13.14 40.56 13.03L40.56 13.03L42.80 12.22Q43.27 12.04 43.55 11.96Q43.82 11.89 44.03 11.89L44.03 11.89Q44.42 11.89 44.62 12.10Q44.82 12.31 44.82 12.66L44.82 12.66L44.82 19.64Q44.82 20.70 45.32 21.22Q45.83 21.74 46.69 21.74L46.69 21.74Q47.22 21.74 47.82 21.49Q48.42 21.23 49.06 20.69L49.06 20.69L49.54 20.27L50.09 20.83L49.62 21.25Q48.11 22.64 46.98 23.21Q45.85 23.77 44.86 23.77L44.86 23.77Q43.32 23.77 42.38 22.78Q41.45 21.79 41.45 20.14ZM60.20 12.65L60.20 12.65L60.20 21.55Q60.20 21.92 60.31 22.09Q60.42 22.26 60.64 22.34L60.64 22.34L61.07 22.46Q61.45 22.62 61.45 22.94L61.45 22.94Q61.45 23.47 60.78 23.47L60.78 23.47L56.15 23.47Q55.81 23.47 55.66 23.34Q55.50 23.21 55.50 22.98L55.50 22.98Q55.50 22.80 55.60 22.67Q55.70 22.55 55.93 22.46L55.93 22.46L56.41 22.34Q56.63 22.26 56.73 22.09Q56.83 21.92 56.83 21.55L56.83 21.55L56.83 14.68Q56.83 14.36 56.74 14.23Q56.65 14.10 56.45 14.06L56.45 14.06L55.81 14.02Q55.60 13.97 55.50 13.86Q55.40 13.75 55.40 13.58L55.40 13.58Q55.40 13.38 55.52 13.26Q55.63 13.14 55.96 13.02L55.96 13.02L58.19 12.20Q58.64 12.04 58.92 11.96Q59.20 11.89 59.45 11.89L59.45 11.89Q59.82 11.89 60.01 12.10Q60.20 12.31 60.20 12.65ZM60.32 14.90L59.84 15.32L59.29 14.76L59.76 14.34Q61.27 12.98 62.35 12.41Q63.43 11.83 64.40 11.83L64.40 11.83Q65.88 11.83 66.70 12.82Q67.51 13.81 67.69 15.46L67.69 15.46L68.36 21.52Q68.40 21.91 68.50 22.09Q68.59 22.27 68.82 22.34L68.82 22.34L69.24 22.46Q69.47 22.55 69.58 22.67Q69.68 22.80 69.68 22.98L69.68 22.98Q69.68 23.21 69.53 23.34Q69.37 23.47 69.02 23.47L69.02 23.47L64.34 23.47Q63.68 23.47 63.68 22.94L63.68 22.94Q63.68 22.62 64.06 22.46L64.06 22.46L64.51 22.34Q64.74 22.26 64.87 22.08Q64.99 21.90 64.94 21.52L64.94 21.52L64.32 15.95Q64.20 14.90 63.79 14.38Q63.37 13.85 62.57 13.85L62.57 13.85Q62.06 13.85 61.51 14.11Q60.95 14.38 60.32 14.90L60.32 14.90ZM81.62 15.13L81.62 15.13Q81.62 15.82 81.15 16.28Q80.68 16.75 79.88 16.75L79.88 16.75Q79.10 16.75 78.70 16.33Q78.30 15.90 78.30 15.20L78.30 15.20L78.30 14.82Q78.30 14.00 77.80 13.51Q77.29 13.01 76.44 13.01L76.44 13.01Q75.68 13.01 75.08 13.46Q74.48 13.92 74.14 14.77Q73.79 15.62 73.79 16.81L73.79 16.81Q73.79 18.31 74.30 19.35Q74.81 20.39 75.71 20.92Q76.61 21.46 77.76 21.46L77.76 21.46Q78.78 21.46 79.54 21.04Q80.30 20.62 80.75 19.86L80.75 19.86Q80.95 19.62 81.08 19.54Q81.22 19.45 81.35 19.45L81.35 19.45Q81.54 19.45 81.62 19.63Q81.71 19.80 81.70 20.03L81.70 20.03Q81.65 21.05 80.99 21.90Q80.33 22.75 79.22 23.26Q78.11 23.77 76.67 23.77L76.67 23.77Q74.93 23.77 73.59 23.06Q72.25 22.34 71.49 21.06Q70.73 19.78 70.73 18.04L70.73 18.04Q70.73 16.27 71.49 14.87Q72.25 13.46 73.63 12.65Q75.01 11.83 76.88 11.83L76.88 11.83Q78.35 11.83 79.41 12.28Q80.47 12.73 81.05 13.48Q81.62 14.23 81.62 15.13ZM94.39 16.38L94.39 16.38Q94.39 17.02 94.03 17.36Q93.67 17.70 92.98 17.70L92.98 17.70L85.49 17.70L85.49 16.79L90.40 16.79Q91.01 16.79 91.01 16.24L91.01 16.24Q91.01 14.65 90.43 13.83Q89.86 13.01 88.88 13.01L88.88 13.01Q88.14 13.01 87.56 13.46Q86.99 13.92 86.66 14.77Q86.34 15.61 86.34 16.81L86.34 16.81Q86.34 19.13 87.43 20.29Q88.51 21.46 90.32 21.46L90.32 21.46Q91.38 21.46 92.18 21.04Q92.98 20.62 93.42 19.84L93.42 19.84Q93.64 19.60 93.76 19.51Q93.89 19.43 94.02 19.43L94.02 19.43Q94.21 19.43 94.30 19.60Q94.38 19.78 94.38 20.02L94.38 20.02Q94.33 21.02 93.66 21.88Q92.99 22.74 91.85 23.26Q90.71 23.77 89.23 23.77L89.23 23.77Q87.49 23.77 86.15 23.06Q84.80 22.34 84.04 21.05Q83.28 19.76 83.28 18.04L83.28 18.04Q83.28 16.22 84.01 14.82Q84.73 13.42 86.09 12.62Q87.44 11.83 89.33 11.83L89.33 11.83Q90.94 11.83 92.07 12.41Q93.20 13.00 93.80 14.02Q94.39 15.05 94.39 16.38ZM101.34 22.68L101.34 22.68Q102.17 22.68 102.62 22.27Q103.07 21.85 103.07 21.23L103.07 21.23Q103.07 20.83 102.89 20.51Q102.72 20.18 102.22 19.92Q101.72 19.66 100.78 19.43L100.78 19.43Q98.93 19.06 97.91 18.48Q96.90 17.90 96.51 17.14Q96.12 16.38 96.12 15.47L96.12 15.47Q96.12 13.80 97.30 12.82Q98.48 11.83 100.72 11.83L100.72 11.83Q101.52 11.83 102.03 11.96Q102.54 12.10 102.86 12.23Q103.19 12.37 103.44 12.37L103.44 12.37Q103.70 12.37 103.84 12.23Q103.98 12.10 104.12 11.96Q104.26 11.83 104.51 11.83L104.51 11.83Q104.69 11.83 104.83 11.95Q104.98 12.06 105.07 12.38L105.07 12.38L105.86 14.80Q106.01 15.22 105.95 15.48Q105.90 15.74 105.62 15.85L105.62 15.85Q105.35 15.96 105.15 15.86Q104.95 15.76 104.76 15.48L104.76 15.48Q104.23 14.53 103.61 13.97Q103.00 13.42 102.32 13.17Q101.64 12.92 100.91 12.92L100.91 12.92Q99.89 12.92 99.37 13.34Q98.86 13.75 98.86 14.46L98.86 14.46Q98.86 14.88 99.07 15.22Q99.29 15.55 99.88 15.83Q100.48 16.12 101.58 16.38L101.58 16.38Q103.15 16.72 104.06 17.25Q104.98 17.78 105.38 18.53Q105.78 19.28 105.78 20.29L105.78 20.29Q105.78 21.32 105.25 22.11Q104.71 22.90 103.76 23.33Q102.80 23.77 101.56 23.77L101.56 23.77Q100.76 23.77 100.29 23.62Q99.82 23.46 99.51 23.31Q99.20 23.16 98.92 23.16L98.92 23.16Q98.65 23.16 98.48 23.31Q98.30 23.46 98.15 23.62Q97.99 23.77 97.76 23.77L97.76 23.77Q97.58 23.77 97.46 23.64Q97.33 23.51 97.27 23.20L97.27 23.20L96.80 20.90Q96.72 20.42 96.77 20.19Q96.83 19.96 97.08 19.86L97.08 19.86Q97.34 19.75 97.55 19.88Q97.75 20.00 97.96 20.34L97.96 20.34Q98.70 21.60 99.57 22.14Q100.44 22.68 101.34 22.68ZM120.66 6.30L120.66 6.30Q122.27 6.30 123.39 6.80Q124.51 7.30 125.11 8.11Q125.70 8.92 125.70 9.86L125.70 9.86Q125.70 10.78 125.20 11.28Q124.70 11.78 123.83 11.78L123.83 11.78Q122.96 11.78 122.50 11.33Q122.03 10.87 122.03 10.01L122.03 10.01L122.03 9.06Q122.03 8.23 121.60 7.78Q121.16 7.33 120.26 7.33L120.26 7.33Q119.56 7.33 118.92 7.78Q118.28 8.22 117.80 9.20Q117.31 10.19 117.04 11.80Q116.76 13.40 116.76 15.74L116.76 15.74Q116.76 18.44 117.17 19.99Q117.59 21.54 118.30 22.19Q119.02 22.84 119.90 22.84L119.90 22.84Q121.15 22.84 121.89 21.80Q122.63 20.77 122.63 18.68L122.63 18.68Q122.63 16.70 121.81 15.68Q120.98 14.66 119.65 14.66L119.65 14.66Q118.85 14.66 118.15 15.05Q117.46 15.43 117.01 16.11Q116.56 16.79 116.48 17.64L116.48 17.64L115.80 17.34Q115.85 16.24 116.55 15.32Q117.25 14.40 118.42 13.85Q119.58 13.30 121.01 13.30L121.01 13.30Q122.59 13.30 123.76 13.88Q124.92 14.47 125.56 15.58Q126.19 16.68 126.19 18.24L126.19 18.24Q126.19 19.92 125.42 21.18Q124.64 22.44 123.23 23.15Q121.82 23.86 119.92 23.86L119.92 23.86Q117.76 23.86 116.22 22.87Q114.68 21.89 113.88 20.05Q113.08 18.20 113.06 15.64L113.06 15.64Q113.06 12.59 114 10.51Q114.94 8.44 116.65 7.37Q118.36 6.30 120.66 6.30ZM135.18 6.30L135.18 6.30Q137.45 6.30 139.04 7.34Q140.63 8.38 141.46 10.35Q142.30 12.32 142.30 15.12L142.30 15.12Q142.30 17.81 141.40 19.77Q140.51 21.73 138.88 22.79Q137.24 23.86 135.04 23.86L135.04 23.86Q132.78 23.86 131.18 22.81Q129.59 21.77 128.75 19.80Q127.92 17.83 127.92 15.04L127.92 15.04Q127.92 12.34 128.82 10.38Q129.72 8.42 131.35 7.36Q132.98 6.30 135.18 6.30ZM138.50 15.59L138.50 15.59Q138.50 12.65 138.11 10.83Q137.71 9.01 136.94 8.18Q136.18 7.34 135.05 7.34L135.05 7.34Q133.99 7.34 133.25 8.12Q132.50 8.90 132.11 10.51Q131.71 12.11 131.71 14.57L131.71 14.57Q131.71 17.51 132.11 19.33Q132.52 21.14 133.28 21.98Q134.05 22.81 135.17 22.81L135.17 22.81Q136.22 22.81 136.97 22.03Q137.72 21.25 138.11 19.65Q138.50 18.05 138.50 15.59ZM151.38 6.30L151.38 6.30Q153.65 6.30 155.24 7.34Q156.83 8.38 157.66 10.35Q158.50 12.32 158.50 15.12L158.50 15.12Q158.50 17.81 157.60 19.77Q156.71 21.73 155.08 22.79Q153.44 23.86 151.24 23.86L151.24 23.86Q148.98 23.86 147.38 22.81Q145.79 21.77 144.95 19.80Q144.12 17.83 144.12 15.04L144.12 15.04Q144.12 12.34 145.02 10.38Q145.92 8.42 147.55 7.36Q149.18 6.30 151.38 6.30ZM154.70 15.59L154.70 15.59Q154.70 12.65 154.31 10.83Q153.91 9.01 153.14 8.18Q152.38 7.34 151.25 7.34L151.25 7.34Q150.19 7.34 149.45 8.12Q148.70 8.90 148.31 10.51Q147.91 12.11 147.91 14.57L147.91 14.57Q147.91 17.51 148.31 19.33Q148.72 21.14 149.48 21.98Q150.25 22.81 151.37 22.81L151.37 22.81Q152.42 22.81 153.17 22.03Q153.92 21.25 154.31 19.65Q154.70 18.05 154.70 15.59ZM170.28 12.65L170.28 12.65L170.28 21.55Q170.28 21.92 170.39 22.09Q170.50 22.26 170.71 22.34L170.71 22.34L171.14 22.46Q171.53 22.62 171.53 22.94L171.53 22.94Q171.53 23.47 170.86 23.47L170.86 23.47L166.22 23.47Q165.89 23.47 165.73 23.34Q165.58 23.21 165.58 22.98L165.58 22.98Q165.58 22.80 165.68 22.67Q165.78 22.55 166.01 22.46L166.01 22.46L166.49 22.34Q166.70 22.26 166.81 22.09Q166.91 21.92 166.91 21.55L166.91 21.55L166.91 14.68Q166.91 14.36 166.82 14.23Q166.73 14.10 166.52 14.06L166.52 14.06L165.89 14.02Q165.67 13.97 165.58 13.86Q165.48 13.75 165.48 13.58L165.48 13.58Q165.48 13.38 165.59 13.26Q165.71 13.14 166.03 13.02L166.03 13.02L168.26 12.20Q168.72 12.04 169.00 11.96Q169.27 11.89 169.52 11.89L169.52 11.89Q169.90 11.89 170.09 12.10Q170.28 12.31 170.28 12.65ZM170.40 14.90L169.92 15.32L169.37 14.76L169.84 14.34Q171.35 12.98 172.43 12.41Q173.51 11.83 174.48 11.83L174.48 11.83Q175.96 11.83 176.77 12.82Q177.59 13.81 177.77 15.46L177.77 15.46L178.44 21.52Q178.48 21.91 178.57 22.09Q178.67 22.27 178.90 22.34L178.90 22.34L179.32 22.46Q179.54 22.55 179.65 22.67Q179.76 22.80 179.76 22.98L179.76 22.98Q179.76 23.21 179.60 23.34Q179.45 23.47 179.10 23.47L179.10 23.47L174.42 23.47Q173.76 23.47 173.76 22.94L173.76 22.94Q173.76 22.62 174.13 22.46L174.13 22.46L174.59 22.34Q174.82 22.26 174.94 22.08Q175.07 21.90 175.02 21.52L175.02 21.52L174.40 15.95Q174.28 14.90 173.86 14.38Q173.45 13.85 172.64 13.85L172.64 13.85Q172.14 13.85 171.58 14.11Q171.02 14.38 170.40 14.90L170.40 14.90ZM187.15 11.83L187.15 11.83Q189.01 11.83 190.42 12.59Q191.82 13.34 192.61 14.69Q193.39 16.04 193.39 17.83L193.39 17.83Q193.39 19.52 192.58 20.87Q191.77 22.21 190.34 22.99Q188.92 23.77 187.03 23.77L187.03 23.77Q185.18 23.77 183.79 23.00Q182.39 22.24 181.60 20.89Q180.80 19.54 180.80 17.77L180.80 17.77Q180.80 16.06 181.61 14.72Q182.42 13.38 183.85 12.61Q185.28 11.83 187.15 11.83ZM188.00 22.51L188.00 22.51Q188.82 22.39 189.32 21.76Q189.82 21.13 189.95 20.03Q190.09 18.92 189.80 17.38L189.80 17.38Q189.53 15.83 189 14.83Q188.47 13.82 187.75 13.38Q187.03 12.94 186.19 13.08L186.19 13.08Q185.36 13.21 184.87 13.84Q184.37 14.47 184.24 15.57Q184.12 16.67 184.39 18.23L184.39 18.23Q184.67 19.76 185.20 20.77Q185.72 21.77 186.44 22.21Q187.16 22.66 188.00 22.51ZM199.90 17.05L199.48 17.11Q199.48 15.37 199.97 14.20Q200.46 13.02 201.26 12.43Q202.07 11.83 202.99 11.83L202.99 11.83Q204.13 11.83 204.76 12.48Q205.38 13.13 205.38 14.34L205.38 14.34Q205.38 15.42 204.94 15.95Q204.49 16.48 203.78 16.48L203.78 16.48Q203.06 16.48 202.69 16.09Q202.32 15.71 202.32 15.02L202.32 15.02L202.32 14.59Q202.31 14.21 202.14 14.02Q201.97 13.84 201.59 13.84L201.59 13.84Q201.17 13.84 200.78 14.18Q200.39 14.53 200.14 15.24Q199.90 15.95 199.90 17.05L199.90 17.05ZM199.70 12.66L199.70 12.66L199.90 15.38L199.90 21.54Q199.90 21.89 200.03 22.05Q200.17 22.21 200.53 22.27L200.53 22.27L201.56 22.43Q201.84 22.48 201.98 22.61Q202.12 22.74 202.12 22.97L202.12 22.97Q202.12 23.21 201.94 23.34Q201.77 23.47 201.44 23.47L201.44 23.47L195.84 23.47Q195.50 23.47 195.35 23.34Q195.19 23.21 195.19 22.98L195.19 22.98Q195.19 22.80 195.30 22.67Q195.41 22.55 195.64 22.46L195.64 22.46L196.10 22.34Q196.32 22.27 196.42 22.10Q196.52 21.92 196.52 21.55L196.52 21.55L196.52 14.70Q196.52 14.39 196.43 14.26Q196.34 14.12 196.14 14.09L196.14 14.09L195.50 14.04Q195.29 13.99 195.19 13.88Q195.10 13.78 195.10 13.61L195.10 13.61Q195.10 13.40 195.22 13.28Q195.34 13.16 195.65 13.04L195.65 13.04L197.83 12.25Q198.42 12.02 198.70 11.96Q198.97 11.89 199.13 11.89L199.13 11.89Q199.39 11.89 199.52 12.07Q199.66 12.24 199.70 12.66ZM211.38 12.65L211.38 12.65L211.38 21.55Q211.38 21.92 211.49 22.09Q211.60 22.26 211.81 22.34L211.81 22.34L212.24 22.46Q212.63 22.62 212.63 22.94L212.63 22.94Q212.63 23.47 211.96 23.47L211.96 23.47L207.32 23.47Q206.99 23.47 206.83 23.34Q206.68 23.21 206.68 22.98L206.68 22.98Q206.68 22.80 206.78 22.67Q206.88 22.55 207.11 22.46L207.11 22.46L207.59 22.34Q207.80 22.26 207.91 22.09Q208.01 21.92 208.01 21.55L208.01 21.55L208.01 14.68Q208.01 14.36 207.92 14.23Q207.83 14.10 207.62 14.06L207.62 14.06L206.99 14.02Q206.77 13.97 206.68 13.86Q206.58 13.75 206.58 13.58L206.58 13.58Q206.58 13.38 206.69 13.26Q206.81 13.14 207.13 13.02L207.13 13.02L209.36 12.20Q209.82 12.04 210.10 11.96Q210.37 11.89 210.62 11.89L210.62 11.89Q211.00 11.89 211.19 12.10Q211.38 12.31 211.38 12.65ZM211.50 14.90L211.02 15.32L210.47 14.76L210.94 14.34Q212.46 12.95 213.58 12.39Q214.69 11.83 215.69 11.83L215.69 11.83Q217.24 11.83 218.16 12.82Q219.08 13.80 219.08 15.46L219.08 15.46L219.08 21.52Q219.08 21.91 219.20 22.09Q219.31 22.26 219.54 22.34L219.54 22.34L219.95 22.46Q220.32 22.63 220.32 22.94L220.32 22.94Q220.32 23.47 219.66 23.47L219.66 23.47L215.11 23.47Q214.44 23.47 214.44 22.94L214.44 22.94Q214.44 22.62 214.81 22.46L214.81 22.46L215.27 22.34Q215.51 22.26 215.61 22.08Q215.71 21.90 215.71 21.52L215.71 21.52L215.71 15.95Q215.71 14.89 215.21 14.37Q214.72 13.85 213.85 13.85L213.85 13.85Q213.31 13.85 212.72 14.10Q212.14 14.35 211.50 14.90L211.50 14.90ZM219.19 14.90L218.71 15.32L218.17 14.76L218.63 14.34Q220.12 13.00 221.18 12.41Q222.24 11.83 223.20 11.83L223.20 11.83Q224.68 11.83 225.50 12.82Q226.32 13.81 226.49 15.46L226.49 15.46L227.16 21.52Q227.21 21.91 227.30 22.09Q227.39 22.27 227.62 22.34L227.62 22.34L228.04 22.46Q228.26 22.55 228.37 22.67Q228.48 22.80 228.48 22.98L228.48 22.98Q228.48 23.21 228.32 23.34Q228.17 23.47 227.83 23.47L227.83 23.47L223.15 23.47Q222.48 23.47 222.48 22.94L222.48 22.94Q222.48 22.62 222.85 22.46L222.85 22.46L223.31 22.34Q223.55 22.26 223.67 22.08Q223.79 21.90 223.75 21.52L223.75 21.52L223.13 15.95Q223.01 14.90 222.59 14.38Q222.18 13.85 221.36 13.85L221.36 13.85Q220.88 13.85 220.34 14.12Q219.80 14.39 219.19 14.90L219.19 14.90ZM236.90 21.95L236.90 21.95L236.90 21.70L236.68 21.65L236.68 14.48Q236.68 13.64 236.25 13.18Q235.82 12.72 235.04 12.72L235.04 12.72Q234.34 12.72 233.95 13.02Q233.57 13.32 233.57 13.76L233.57 13.76L233.57 14.82Q233.57 15.54 233.09 15.93Q232.61 16.32 231.73 16.32L231.73 16.32Q230.99 16.32 230.60 15.97Q230.22 15.61 230.22 15.00L230.22 15.00Q230.22 14.24 230.84 13.52Q231.47 12.79 232.68 12.32Q233.89 11.84 235.67 11.84L235.67 11.84Q237.88 11.84 238.95 12.74Q240.02 13.63 240.02 15.16L240.02 15.16L240.02 21.40Q240.02 21.73 240.16 21.90Q240.30 22.07 240.55 22.07L240.55 22.07Q240.82 22.07 240.95 21.94Q241.08 21.82 241.18 21.68L241.18 21.68Q241.24 21.60 241.31 21.55Q241.38 21.49 241.49 21.49L241.49 21.49Q241.63 21.49 241.70 21.60Q241.78 21.71 241.78 21.89L241.78 21.89Q241.78 22.30 241.49 22.73Q241.21 23.16 240.65 23.47Q240.10 23.77 239.26 23.77L239.26 23.77Q238.19 23.77 237.55 23.29Q236.90 22.80 236.90 21.95ZM229.72 20.96L229.72 20.96Q229.72 19.46 231.05 18.54Q232.39 17.62 234.79 17.62L234.79 17.62Q235.57 17.62 236.20 17.75Q236.83 17.88 237.29 18.11L237.29 18.11L237.02 18.88Q236.62 18.68 236.19 18.58Q235.76 18.47 235.27 18.47L235.27 18.47Q234.28 18.47 233.72 18.98Q233.16 19.49 233.16 20.39L233.16 20.39Q233.16 21.29 233.63 21.77Q234.11 22.25 234.86 22.25L234.86 22.25Q235.51 22.25 236.11 21.95Q236.70 21.66 237.11 21.13L237.11 21.13L237.37 21.82Q236.71 22.75 235.60 23.26Q234.49 23.77 233.24 23.77L233.24 23.77Q231.67 23.77 230.69 22.99Q229.72 22.21 229.72 20.96ZM247.80 6.40L247.80 6.40L247.80 21.55Q247.80 21.92 247.90 22.10Q248.00 22.27 248.22 22.34L248.22 22.34L248.68 22.46Q248.90 22.54 249.01 22.66Q249.12 22.79 249.12 22.98L249.12 22.98Q249.12 23.21 248.96 23.34Q248.81 23.47 248.46 23.47L248.46 23.47L243.73 23.47Q243.40 23.47 243.24 23.34Q243.08 23.21 243.08 22.98L243.08 22.98Q243.08 22.80 243.19 22.67Q243.30 22.55 243.53 22.46L243.53 22.46L244.00 22.34Q244.21 22.26 244.31 22.09Q244.42 21.92 244.42 21.55L244.42 21.55L244.42 8.41Q244.42 8.11 244.33 7.98Q244.24 7.85 244.03 7.81L244.03 7.81L243.40 7.76Q243.18 7.70 243.08 7.60Q242.99 7.49 242.99 7.32L242.99 7.32Q242.99 7.13 243.11 7.01Q243.23 6.89 243.54 6.77L243.54 6.77L245.77 5.95Q246.25 5.77 246.53 5.70Q246.80 5.63 247.01 5.63L247.01 5.63Q247.40 5.63 247.60 5.84Q247.80 6.05 247.80 6.40Z"/></svg>