<svg xmlns="http://www.w3.org/2000/svg" xmlns:xlink="http://www.w3.org/1999/xlink" width="195.69600000000003" height="28.8"><path fill="black" d="M5.09 7.34L5.09 7.34Q6.41 7.34 7.78 7.36Q9.14 7.37 10.46 7.42Q11.78 7.46 12.94 7.58L12.94 7.58L12.77 10.25L6.41 10.25Q5.81 10.25 5.51 10.55Q5.21 10.85 5.21 11.47L5.21 11.47L5.21 19.92Q5.21 20.52 5.51 20.83Q5.81 21.14 6.41 21.14L6.41 21.14L12.77 21.14L12.94 23.81Q11.78 23.90 10.46 23.95Q9.14 24 7.78 24.01Q6.41 24.02 5.09 24.02L5.09 24.02Q3.50 24.02 2.53 23.11Q1.56 22.20 1.54 20.71L1.54 20.71L1.54 10.68Q1.56 9.17 2.53 8.26Q3.50 7.34 5.09 7.34ZM1.97 16.66L1.97 14.06L11.88 14.06L11.88 16.66L1.97 16.66ZM23.38 12.12L26.98 12.12L23.54 17.90L27.24 23.98L23.64 23.98L20.14 17.90L23.38 12.12ZM14.40 12.12L17.98 12.12L21.22 17.90L17.74 23.98L14.11 23.98L17.81 17.90L14.40 12.12ZM18.84 16.75L22.56 16.75L22.56 18.96L18.84 18.96L18.84 16.75ZM34.56 11.81L34.56 11.81Q36.79 11.81 38.14 12.42Q39.48 13.03 40.07 14.40Q40.66 15.77 40.66 18.07L40.66 18.07Q40.66 20.33 40.07 21.70Q39.48 23.06 38.14 23.66Q36.79 24.26 34.56 24.26L34.56 24.26Q32.35 24.26 31.01 23.66Q29.66 23.06 29.06 21.70Q28.46 20.33 28.46 18.07L28.46 18.07Q28.46 15.77 29.06 14.40Q29.66 13.03 31.01 12.42Q32.35 11.81 34.56 11.81ZM34.56 14.38L34.56 14.38Q33.65 14.38 33.12 14.69Q32.59 15.00 32.38 15.79Q32.16 16.58 32.16 18.07L32.16 18.07Q32.16 19.51 32.38 20.30Q32.59 21.10 33.12 21.40Q33.65 21.70 34.56 21.70L34.56 21.70Q35.50 21.70 36.02 21.40Q36.55 21.10 36.76 20.30Q36.96 19.51 36.96 18.07L36.96 18.07Q36.96 16.58 36.76 15.79Q36.55 15.00 36.02 14.69Q35.50 14.38 34.56 14.38ZM53.66 7.13L53.66 7.13Q55.39 7.13 56.64 7.43Q57.89 7.73 58.58 8.56Q59.28 9.38 59.28 10.97L59.28 10.97Q59.28 11.93 59.05 12.73Q58.82 13.54 58.24 14.40Q57.65 15.26 56.54 16.44L56.54 16.44L52.20 20.93Q52.80 20.83 53.41 20.80Q54.02 20.76 54.65 20.76L54.65 20.76L59.76 20.76L59.76 23.98L47.90 23.98L47.90 22.01Q47.90 21.58 48.02 21.20Q48.14 20.83 48.43 20.52L48.43 20.52L52.56 16.10Q54.02 14.59 54.79 13.40Q55.56 12.22 55.54 11.35L55.54 11.35Q55.54 10.82 55.27 10.60Q55.01 10.37 54.52 10.28Q54.02 10.20 53.26 10.20L53.26 10.20Q52.44 10.20 51.71 10.21Q50.98 10.22 50.15 10.27Q49.32 10.32 48.22 10.42L48.22 10.42L48.05 7.70Q49.25 7.44 50.20 7.32Q51.14 7.20 51.98 7.16Q52.82 7.13 53.66 7.13ZM66.65 7.42L76.63 7.42Q77.23 7.42 77.63 7.67Q78.02 7.92 78.17 8.36Q78.31 8.81 78.12 9.36L78.12 9.36L73.06 23.98L69.46 23.98L73.70 11.95Q73.85 11.54 74.00 11.15Q74.16 10.75 74.40 10.39L74.40 10.39L66.79 10.39L66.65 7.42ZM86.23 7.08L86.23 7.08Q88.61 7.08 90.01 7.92Q91.42 8.76 92.03 10.64Q92.64 12.53 92.64 15.70L92.64 15.70Q92.64 18.84 92.03 20.74Q91.42 22.63 90.01 23.46Q88.61 24.29 86.23 24.29L86.23 24.29Q83.86 24.29 82.46 23.46Q81.07 22.63 80.46 20.74Q79.85 18.84 79.85 15.70L79.85 15.70Q79.85 12.53 80.46 10.64Q81.07 8.76 82.46 7.92Q83.86 7.08 86.23 7.08ZM86.21 9.94L86.21 9.94Q85.42 9.94 84.89 10.20Q84.36 10.46 84.05 11.10Q83.74 11.74 83.60 12.85Q83.47 13.97 83.47 15.70L83.47 15.70Q83.47 17.40 83.60 18.53Q83.74 19.66 84.05 20.28Q84.36 20.90 84.89 21.17Q85.42 21.43 86.21 21.43L86.21 21.43Q87.02 21.43 87.58 21.17Q88.13 20.90 88.44 20.28Q88.75 19.66 88.88 18.53Q89.02 17.40 89.02 15.70L89.02 15.70Q89.02 13.97 88.88 12.85Q88.75 11.74 88.44 11.10Q88.13 10.46 87.58 10.20Q87.02 9.94 86.21 9.94ZM101.38 7.08L101.38 7.08Q103.75 7.08 105.16 7.92Q106.56 8.76 107.17 10.64Q107.78 12.53 107.78 15.70L107.78 15.70Q107.78 18.84 107.17 20.74Q106.56 22.63 105.16 23.46Q103.75 24.29 101.38 24.29L101.38 24.29Q99 24.29 97.61 23.46Q96.22 22.63 95.60 20.74Q94.99 18.84 94.99 15.70L94.99 15.70Q94.99 12.53 95.60 10.64Q96.22 8.76 97.61 7.92Q99 7.08 101.38 7.08ZM101.35 9.94L101.35 9.94Q100.56 9.94 100.03 10.20Q99.50 10.46 99.19 11.10Q98.88 11.74 98.75 12.85Q98.62 13.97 98.62 15.70L98.62 15.70Q98.62 17.40 98.75 18.53Q98.88 19.66 99.19 20.28Q99.50 20.90 100.03 21.17Q100.56 21.43 101.35 21.43L101.35 21.43Q102.17 21.43 102.72 21.17Q103.27 20.90 103.58 20.28Q103.90 19.66 104.03 18.53Q104.16 17.40 104.16 15.70L104.16 15.70Q104.16 13.97 104.03 12.85Q103.90 11.74 103.58 11.10Q103.27 10.46 102.72 10.20Q102.17 9.94 101.35 9.94ZM123.86 11.81L123.86 11.81Q127.22 11.81 127.22 15.10L127.22 15.10L127.22 23.98L123.67 23.98L123.67 16.20Q123.67 15.41 123.38 15.11Q123.10 14.81 122.40 14.81L122.40 14.81Q121.63 14.81 120.82 15.11Q120 15.41 118.80 16.01L118.80 16.01L118.63 14.04Q119.90 12.96 121.24 12.38Q122.57 11.81 123.86 11.81ZM115.63 12.12L118.46 12.12L118.87 14.47L119.16 14.78L119.16 23.98L115.63 23.98L115.63 12.12ZM135.67 11.81L135.67 11.81Q137.90 11.81 139.25 12.42Q140.59 13.03 141.18 14.40Q141.77 15.77 141.77 18.07L141.77 18.07Q141.77 20.33 141.18 21.70Q140.59 23.06 139.25 23.66Q137.90 24.26 135.67 24.26L135.67 24.26Q133.46 24.26 132.12 23.66Q130.78 23.06 130.18 21.70Q129.58 20.33 129.58 18.07L129.58 18.07Q129.58 15.77 130.18 14.40Q130.78 13.03 132.12 12.42Q133.46 11.81 135.67 11.81ZM135.67 14.38L135.67 14.38Q134.76 14.38 134.23 14.69Q133.70 15.00 133.49 15.79Q133.27 16.58 133.27 18.07L133.27 18.07Q133.27 19.51 133.49 20.30Q133.70 21.10 134.23 21.40Q134.76 21.70 135.67 21.70L135.67 21.70Q136.61 21.70 137.14 21.40Q137.66 21.10 137.87 20.30Q138.07 19.51 138.07 18.07L138.07 18.07Q138.07 16.58 137.87 15.79Q137.66 15.00 137.14 14.69Q136.61 14.38 135.67 14.38ZM144.22 12.12L146.98 12.12L147.41 14.47L147.74 14.78L147.74 23.98L144.22 23.98L144.22 12.12ZM152.14 11.81L152.76 11.81L152.42 15.07L151.44 15.07Q150.60 15.07 149.69 15.31Q148.78 15.55 147.38 16.06L147.38 16.06L147.14 14.06Q148.39 12.96 149.66 12.38Q150.94 11.81 152.14 11.81L152.14 11.81ZM169.46 11.81L169.46 11.81Q171.07 11.81 171.91 12.65Q172.75 13.49 172.75 15.10L172.75 15.10L172.75 23.98L169.25 23.98L169.25 16.20Q169.22 15.46 168.94 15.13Q168.65 14.81 167.93 14.81L167.93 14.81Q167.52 14.81 167.12 14.92Q166.73 15.02 166.22 15.29Q165.72 15.55 165 16.01L165 16.01L164.81 14.06Q165.96 12.94 167.08 12.37Q168.19 11.81 169.46 11.81ZM154.46 12.12L157.27 12.12L157.63 14.47L157.99 14.78L157.99 23.98L154.46 23.98L154.46 12.12ZM162.07 11.81L162.07 11.81Q163.66 11.81 164.48 12.64Q165.31 13.46 165.31 15.10L165.31 15.10L165.31 23.98L161.90 23.98L161.90 16.20Q161.90 15.43 161.58 15.12Q161.26 14.81 160.58 14.81L160.58 14.81Q160.18 14.81 159.78 14.92Q159.38 15.02 158.87 15.29Q158.35 15.55 157.61 16.01L157.61 16.01L157.39 14.06Q158.57 12.94 159.67 12.37Q160.78 11.81 162.07 11.81ZM181.85 11.81L181.85 11.81Q183.34 11.81 184.37 12.20Q185.40 12.60 185.94 13.55Q186.48 14.50 186.48 16.13L186.48 16.13L186.48 23.98L183.67 23.98L183.17 21.41L182.93 21.05L182.93 16.13Q182.90 15.26 182.51 14.89Q182.11 14.52 181.03 14.52L181.03 14.52Q180.10 14.52 178.73 14.58Q177.36 14.64 175.92 14.74L175.92 14.74L175.61 12.38Q176.47 12.22 177.59 12.10Q178.70 11.98 179.83 11.89Q180.96 11.81 181.85 11.81ZM178.61 16.68L185.02 16.68L184.99 18.67L179.71 18.67Q179.06 18.70 178.79 19.01Q178.51 19.32 178.51 19.85L178.51 19.85L178.51 20.42Q178.51 21.02 178.85 21.35Q179.18 21.67 179.93 21.67L179.93 21.67Q180.55 21.67 181.28 21.41Q182.02 21.14 182.74 20.66Q183.46 20.18 184.03 19.54L184.03 19.54L184.03 21.07Q183.82 21.43 183.38 21.97Q182.95 22.51 182.30 23.03Q181.66 23.54 180.79 23.89Q179.93 24.24 178.82 24.24L178.82 24.24Q177.77 24.24 176.89 23.87Q176.02 23.50 175.51 22.75Q175.01 22.01 175.01 20.90L175.01 20.90L175.01 19.68Q175.01 18.26 175.97 17.47Q176.93 16.68 178.61 16.68L178.61 16.68ZM189.31 7.18L192.84 7.18L192.82 20.18Q192.82 20.78 193.18 21.08Q193.54 21.38 194.23 21.38L194.23 21.38L195.19 21.38L195.60 23.78Q195.31 23.93 194.78 24.04Q194.26 24.14 193.70 24.19Q193.15 24.24 192.77 24.24L192.77 24.24Q191.16 24.24 190.24 23.41Q189.31 22.58 189.31 21.07L189.31 21.07L189.31 7.18Z"/></svg>