<svg xmlns="http://www.w3.org/2000/svg" xmlns:xlink="http://www.w3.org/1999/xlink" width="327.35999999999996" height="32.448"><path fill="black" d="M6.74 20.86L1.03 20.86L1.03 20.09L1.68 20.09Q2.26 20.09 2.63 19.96Q3 19.82 3.18 19.42Q3.36 19.01 3.36 18.19L3.36 18.19L3.36 6.34Q3.36 5.52 3.18 5.12Q3 4.73 2.62 4.61Q2.23 4.49 1.68 4.49L1.68 4.49L1.03 4.49L1.03 3.72L4.75 3.72L13.78 18.14L13.78 6.34Q13.78 5.52 13.58 5.12Q13.39 4.73 13.02 4.61Q12.65 4.49 12.07 4.49L12.07 4.49L11.47 4.49L11.47 3.72L17.14 3.72L17.14 4.49L16.51 4.49Q15.96 4.49 15.58 4.62Q15.19 4.75 15.01 5.15Q14.83 5.54 14.83 6.38L14.83 6.38L14.83 20.86L13.63 20.86L4.44 6.19L4.44 18.19Q4.44 19.01 4.62 19.42Q4.80 19.82 5.18 19.96Q5.57 20.09 6.12 20.09L6.12 20.09L6.74 20.09L6.74 20.86ZM24.60 21.10L24.60 21.10Q22.18 21.10 20.78 19.45Q19.39 17.81 19.39 14.42L19.39 14.42Q19.39 11.06 20.74 9.43Q22.08 7.80 24.70 7.80L24.70 7.80Q27.14 7.80 28.51 9.41Q29.88 11.02 29.88 14.42L29.88 14.42Q29.88 17.81 28.54 19.45Q27.19 21.10 24.60 21.10ZM24.62 20.14L24.62 20.14Q25.97 20.14 26.78 19.46Q27.60 18.79 27.95 17.51Q28.30 16.22 28.30 14.42L28.30 14.42Q28.30 11.57 27.44 10.16Q26.59 8.76 24.67 8.76L24.67 8.76Q22.66 8.76 21.80 10.18Q20.95 11.59 20.95 14.42L20.95 14.42Q20.95 17.18 21.82 18.66Q22.68 20.14 24.62 20.14ZM36.65 21.10L36.65 21.10Q35.02 21.10 34.30 20.27Q33.58 19.44 33.58 17.42L33.58 17.42L33.58 9.00L31.73 9.00L31.73 8.28Q32.18 8.28 32.65 8.11Q33.12 7.94 33.43 7.63L33.43 7.63Q33.77 7.30 33.98 6.70Q34.20 6.10 34.30 5.06L34.30 5.06L35.11 5.06L35.11 7.99L38.21 7.99L38.21 9.00L35.11 9.00L35.11 17.57Q35.11 18.91 35.58 19.52Q36.05 20.14 36.96 20.14L36.96 20.14Q37.37 20.14 37.70 20.10Q38.04 20.06 38.42 19.99L38.42 19.99L38.42 20.83Q38.09 20.95 37.60 21.02Q37.10 21.10 36.65 21.10ZM45.67 21.10L45.67 21.10Q43.25 21.10 41.86 19.45Q40.46 17.81 40.46 14.42L40.46 14.42Q40.46 11.06 41.81 9.43Q43.15 7.80 45.77 7.80L45.77 7.80Q48.22 7.80 49.58 9.41Q50.95 11.02 50.95 14.42L50.95 14.42Q50.95 17.81 49.61 19.45Q48.26 21.10 45.67 21.10ZM45.70 20.14L45.70 20.14Q47.04 20.14 47.86 19.46Q48.67 18.79 49.02 17.51Q49.37 16.22 49.37 14.42L49.37 14.42Q49.37 11.57 48.52 10.16Q47.66 8.76 45.74 8.76L45.74 8.76Q43.73 8.76 42.88 10.18Q42.02 11.59 42.02 14.42L42.02 14.42Q42.02 17.18 42.89 18.66Q43.75 20.14 45.70 20.14ZM65.23 21.10L65.23 21.10Q64.08 21.10 63.20 20.84Q62.33 20.59 61.75 20.12Q61.18 19.66 60.89 19.06Q60.60 18.46 60.60 17.76L60.60 17.76Q60.60 17.38 60.74 17.08Q60.89 16.78 61.14 16.62Q61.39 16.46 61.78 16.46L61.78 16.46Q61.80 17.54 62.20 18.38Q62.59 19.22 63.37 19.70Q64.15 20.18 65.35 20.18L65.35 20.18Q67.06 20.18 67.94 19.28Q68.83 18.38 68.83 16.87L68.83 16.87Q68.83 15.94 68.47 15.26Q68.11 14.59 67.28 14.00Q66.46 13.42 65.06 12.77L65.06 12.77Q63.67 12.10 62.77 11.41Q61.87 10.73 61.45 9.82Q61.03 8.90 61.03 7.66L61.03 7.66Q61.03 6.41 61.63 5.47Q62.23 4.54 63.30 4.01Q64.37 3.48 65.76 3.48L65.76 3.48Q67.06 3.48 67.98 3.85Q68.90 4.22 69.42 4.82Q69.94 5.42 69.94 6.14L69.94 6.14Q69.94 6.77 69.60 7.09Q69.26 7.42 68.66 7.42L68.66 7.42Q68.66 6.55 68.35 5.87Q68.04 5.18 67.39 4.80Q66.74 4.42 65.71 4.42L65.71 4.42Q64.18 4.42 63.36 5.27Q62.54 6.12 62.54 7.49L62.54 7.49Q62.54 8.47 62.90 9.14Q63.26 9.82 64.02 10.34Q64.78 10.87 66 11.45L66 11.45Q67.27 12.07 68.26 12.73Q69.24 13.39 69.82 14.29Q70.39 15.19 70.39 16.51L70.39 16.51Q70.39 17.90 69.78 18.92Q69.17 19.94 68.02 20.52Q66.86 21.10 65.23 21.10ZM78.26 21.10L78.26 21.10Q75.84 21.10 74.44 19.38Q73.03 17.66 73.03 14.54L73.03 14.54Q73.03 11.16 74.34 9.48Q75.65 7.80 78.05 7.80L78.05 7.80Q80.23 7.80 81.47 9.31Q82.70 10.82 82.70 13.68L82.70 13.68L82.70 14.42L74.62 14.42Q74.64 17.28 75.66 18.64Q76.68 19.99 78.48 19.99L78.48 19.99Q79.78 19.99 80.63 19.44Q81.48 18.89 81.91 18.12L81.91 18.12Q82.06 18.19 82.15 18.36Q82.25 18.53 82.25 18.77L82.25 18.77Q82.25 19.20 81.82 19.75Q81.38 20.30 80.50 20.70Q79.61 21.10 78.26 21.10ZM74.66 13.46L81.07 13.46Q81.07 11.35 80.34 10.07Q79.61 8.78 78 8.78L78 8.78Q76.37 8.78 75.58 10.02Q74.78 11.26 74.66 13.46L74.66 13.46ZM91.08 20.86L84.91 20.86L84.91 20.09L85.20 20.09Q85.82 20.09 86.22 19.98Q86.62 19.87 86.81 19.49Q87 19.10 87 18.29L87 18.29L87 10.46Q87 9.67 86.81 9.32Q86.62 8.98 86.20 8.87Q85.78 8.76 85.08 8.76L85.08 8.76L84.86 8.76L84.86 7.99L88.18 7.99L88.44 10.51L88.54 10.51Q88.85 9.79 89.23 9.17Q89.62 8.54 90.24 8.16Q90.86 7.78 91.85 7.78L91.85 7.78Q92.98 7.78 93.58 8.23Q94.18 8.69 94.18 9.48L94.18 9.48Q94.18 10.01 93.84 10.38Q93.50 10.75 92.74 10.75L92.74 10.75Q92.74 9.74 92.39 9.32Q92.04 8.90 91.30 8.90L91.30 8.90Q90.60 8.90 90.08 9.41Q89.57 9.91 89.23 10.72Q88.90 11.52 88.72 12.46Q88.54 13.39 88.54 14.28L88.54 14.28L88.54 18.36Q88.54 19.15 88.74 19.51Q88.94 19.87 89.34 19.98Q89.74 20.09 90.34 20.09L90.34 20.09L91.08 20.09L91.08 20.86ZM101.54 20.86L95.18 20.86L95.18 20.09L95.66 20.09Q96.36 20.09 96.78 19.98Q97.20 19.87 97.39 19.52Q97.58 19.18 97.58 18.41L97.58 18.41L97.58 10.51Q97.58 9.70 97.39 9.34Q97.20 8.98 96.80 8.87Q96.41 8.76 95.78 8.76L95.78 8.76L95.54 8.76L95.54 7.99L99.12 7.99L99.12 18.34Q99.12 19.13 99.31 19.50Q99.50 19.87 99.92 19.98Q100.34 20.09 101.04 20.09L101.04 20.09L101.54 20.09L101.54 20.86ZM98.26 5.35L98.26 5.35Q97.82 5.35 97.54 5.08Q97.25 4.80 97.25 4.10L97.25 4.10Q97.25 3.38 97.54 3.12Q97.82 2.86 98.26 2.86L98.26 2.86Q98.66 2.86 98.95 3.12Q99.24 3.38 99.24 4.10L99.24 4.10Q99.24 4.80 98.95 5.08Q98.66 5.35 98.26 5.35ZM109.27 20.86L102.53 20.86L102.53 20.09L103.06 20.09Q103.68 20.09 104.08 19.98Q104.47 19.87 104.66 19.49Q104.86 19.10 104.86 18.29L104.86 18.29L104.86 8.88L102.62 8.88L102.62 7.99L104.86 7.99L104.86 6.65Q104.86 4.58 105.91 3.47Q106.97 2.35 108.82 2.35L108.82 2.35Q109.85 2.35 110.50 2.59Q111.14 2.83 111.46 3.23Q111.77 3.62 111.77 4.08L111.77 4.08Q111.77 4.46 111.60 4.73Q111.43 4.99 111.13 5.12Q110.83 5.26 110.47 5.26L110.47 5.26Q110.47 4.70 110.32 4.25Q110.16 3.79 109.78 3.52Q109.39 3.24 108.70 3.24L108.70 3.24Q107.50 3.24 106.94 4.09Q106.39 4.94 106.39 6.53L106.39 6.53L106.39 7.99L109.80 7.99L109.80 8.88L106.39 8.88L106.39 18.29Q106.39 19.10 106.58 19.49Q106.78 19.87 107.17 19.98Q107.57 20.09 108.19 20.09L108.19 20.09L109.27 20.09L109.27 20.86ZM127.44 20.86L120.43 20.86L120.43 20.09L121.44 20.09Q122.02 20.09 122.39 19.97Q122.76 19.85 122.95 19.45Q123.14 19.06 123.14 18.24L123.14 18.24L123.14 4.66L120.24 4.66Q119.26 4.66 118.92 5.12Q118.58 5.59 118.51 6.48L118.51 6.48L118.42 7.66L117.50 7.66L117.65 3.72L130.30 3.72L130.44 7.66L129.53 7.66L129.43 6.48Q129.36 5.59 129.04 5.12Q128.71 4.66 127.68 4.66L127.68 4.66L124.75 4.66L124.75 18.19Q124.75 19.01 124.94 19.42Q125.14 19.82 125.51 19.96Q125.88 20.09 126.46 20.09L126.46 20.09L127.44 20.09L127.44 20.86ZM137.71 21.10L137.71 21.10Q135.29 21.10 133.88 19.38Q132.48 17.66 132.48 14.54L132.48 14.54Q132.48 11.16 133.79 9.48Q135.10 7.80 137.50 7.80L137.50 7.80Q139.68 7.80 140.92 9.31Q142.15 10.82 142.15 13.68L142.15 13.68L142.15 14.42L134.06 14.42Q134.09 17.28 135.11 18.64Q136.13 19.99 137.93 19.99L137.93 19.99Q139.22 19.99 140.08 19.44Q140.93 18.89 141.36 18.12L141.36 18.12Q141.50 18.19 141.60 18.36Q141.70 18.53 141.70 18.77L141.70 18.77Q141.70 19.20 141.26 19.75Q140.83 20.30 139.94 20.70Q139.06 21.10 137.71 21.10ZM134.11 13.46L140.52 13.46Q140.52 11.35 139.79 10.07Q139.06 8.78 137.45 8.78L137.45 8.78Q135.82 8.78 135.02 10.02Q134.23 11.26 134.11 13.46L134.11 13.46ZM150.00 20.86L143.64 20.86L143.64 20.09L144.14 20.09Q144.84 20.09 145.26 19.98Q145.68 19.87 145.87 19.50Q146.06 19.13 146.06 18.34L146.06 18.34L146.06 5.14Q146.06 4.32 145.87 3.96Q145.68 3.60 145.27 3.49Q144.86 3.38 144.26 3.38L144.26 3.38L143.64 3.38L143.64 2.62L147.60 2.62L147.60 18.34Q147.60 19.13 147.78 19.50Q147.96 19.87 148.39 19.98Q148.82 20.09 149.50 20.09L149.50 20.09L150.00 20.09L150.00 20.86ZM156.89 21.10L156.89 21.10Q154.94 21.10 153.95 19.97Q152.95 18.84 152.95 16.42L152.95 16.42L152.95 10.46Q152.95 9.67 152.75 9.32Q152.54 8.98 152.14 8.87Q151.73 8.76 151.03 8.76L151.03 8.76L150.70 8.76L150.70 7.99L154.49 7.99L154.49 16.39Q154.49 17.45 154.73 18.28Q154.97 19.10 155.59 19.55Q156.22 19.99 157.32 19.99L157.32 19.99Q158.52 19.99 159.29 19.43Q160.06 18.86 160.43 17.93Q160.80 16.99 160.80 15.82L160.80 15.82L160.80 10.51Q160.80 9.72 160.62 9.35Q160.44 8.98 160.02 8.87Q159.60 8.76 158.90 8.76L158.90 8.76L158.66 8.76L158.66 7.99L162.34 7.99L162.34 18.41Q162.34 19.15 162.53 19.51Q162.72 19.87 163.13 19.98Q163.54 20.09 164.14 20.09L164.14 20.09L164.54 20.09L164.54 20.86L161.11 20.86L160.92 18.79L160.80 18.79Q160.18 19.97 159.22 20.53Q158.26 21.10 156.89 21.10ZM170.69 26.62L170.69 26.62Q168.34 26.62 167.12 25.64Q165.91 24.67 165.91 22.97L165.91 22.97Q165.91 22.01 166.33 21.32Q166.75 20.64 167.42 20.24Q168.10 19.85 168.84 19.73L168.84 19.73Q168.34 19.54 167.94 19.08Q167.54 18.62 167.54 17.90L167.54 17.90Q167.54 17.18 167.95 16.64Q168.36 16.10 168.94 15.74L168.94 15.74Q167.90 15.26 167.40 14.24Q166.90 13.22 166.90 12.07L166.90 12.07Q166.90 10.13 167.98 8.96Q169.06 7.80 171.14 7.80L171.14 7.80Q172.01 7.80 172.73 8.05Q173.45 8.30 173.83 8.66L173.83 8.66Q174.17 8.28 174.73 7.82Q175.30 7.37 176.04 7.37L176.04 7.37Q176.71 7.37 177.02 7.70Q177.34 8.04 177.34 8.52L177.34 8.52Q177.34 8.98 177.11 9.29Q176.88 9.60 176.40 9.60L176.40 9.60Q176.40 9.14 176.26 8.86Q176.11 8.57 175.68 8.57L175.68 8.57Q175.27 8.57 174.97 8.75Q174.67 8.93 174.34 9.22L174.34 9.22Q174.72 9.70 174.97 10.40Q175.22 11.11 175.22 12.12L175.22 12.12Q175.22 13.90 174.20 15.05Q173.18 16.20 171.14 16.20L171.14 16.20Q170.86 16.20 170.41 16.15Q169.97 16.10 169.75 16.03L169.75 16.03Q169.32 16.30 169.01 16.70Q168.70 17.11 168.70 17.74L168.70 17.74Q168.70 18.31 169.16 18.56Q169.63 18.82 170.59 18.82L170.59 18.82L172.82 18.82Q174.77 18.82 175.67 19.74Q176.57 20.66 176.57 22.25L176.57 22.25Q176.57 24.24 175.12 25.43Q173.66 26.62 170.69 26.62ZM170.76 25.70L170.76 25.70Q172.39 25.70 173.35 25.31Q174.31 24.91 174.74 24.19Q175.18 23.47 175.18 22.49L175.18 22.49Q175.18 21.19 174.50 20.72Q173.83 20.26 172.56 20.26L172.56 20.26L170.28 20.26Q169.46 20.26 168.78 20.50Q168.10 20.74 167.69 21.30Q167.28 21.86 167.28 22.90L167.28 22.90Q167.28 23.66 167.59 24.30Q167.90 24.94 168.66 25.32Q169.42 25.70 170.76 25.70ZM171.07 15.31L171.07 15.31Q171.96 15.31 172.54 14.99Q173.11 14.66 173.40 13.96Q173.69 13.25 173.69 12.10L173.69 12.10Q173.69 10.92 173.40 10.16Q173.11 9.41 172.54 9.06Q171.96 8.71 171.07 8.71L171.07 8.71Q170.23 8.71 169.63 9.07Q169.03 9.43 168.73 10.19Q168.43 10.94 168.43 12.12L168.43 12.12Q168.43 13.78 169.13 14.54Q169.82 15.31 171.07 15.31ZM184.32 21.10L184.32 21.10Q182.38 21.10 181.38 19.97Q180.38 18.84 180.38 16.42L180.38 16.42L180.38 10.46Q180.38 9.67 180.18 9.32Q179.98 8.98 179.57 8.87Q179.16 8.76 178.46 8.76L178.46 8.76L178.13 8.76L178.13 7.99L181.92 7.99L181.92 16.39Q181.92 17.45 182.16 18.28Q182.40 19.10 183.02 19.55Q183.65 19.99 184.75 19.99L184.75 19.99Q185.95 19.99 186.72 19.43Q187.49 18.86 187.86 17.93Q188.23 16.99 188.23 15.82L188.23 15.82L188.23 10.51Q188.23 9.72 188.05 9.35Q187.87 8.98 187.45 8.87Q187.03 8.76 186.34 8.76L186.34 8.76L186.10 8.76L186.10 7.99L189.77 7.99L189.77 18.41Q189.77 19.15 189.96 19.51Q190.15 19.87 190.56 19.98Q190.97 20.09 191.57 20.09L191.57 20.09L191.98 20.09L191.98 20.86L188.54 20.86L188.35 18.79L188.23 18.79Q187.61 19.97 186.65 20.53Q185.69 21.10 184.32 21.10ZM205.13 21.14L205.13 21.14Q203.54 21.14 202.55 20.78Q201.55 20.42 201.07 19.86Q200.59 19.30 200.59 18.65L200.59 18.65Q200.59 17.98 200.89 17.68Q201.19 17.38 201.65 17.38L201.65 17.38Q201.65 18.62 202.50 19.45Q203.35 20.28 205.08 20.28L205.08 20.28Q206.21 20.28 207.11 19.92Q208.01 19.56 208.54 18.77Q209.06 17.98 209.06 16.68L209.06 16.68Q209.06 15.07 208.04 14.12Q207.02 13.18 204.79 13.18L204.79 13.18L203.86 13.18L203.86 12.29L204.82 12.29Q205.82 12.29 206.64 11.88Q207.46 11.47 207.96 10.68Q208.46 9.89 208.46 8.78L208.46 8.78Q208.46 7.46 207.73 6.66Q207.00 5.86 205.44 5.86L205.44 5.86Q204.29 5.86 203.60 6.31Q202.92 6.77 202.62 7.54Q202.32 8.30 202.32 9.24L202.32 9.24Q201.74 9.24 201.36 8.95Q200.98 8.66 200.98 8.02L200.98 8.02Q200.98 7.25 201.47 6.56Q201.96 5.88 202.96 5.45Q203.95 5.02 205.46 5.02L205.46 5.02Q207.60 5.02 208.85 5.95Q210.10 6.89 210.10 8.62L210.10 8.62Q210.10 9.65 209.65 10.46Q209.21 11.28 208.45 11.83Q207.70 12.38 206.66 12.65L206.66 12.65Q207.67 12.72 208.60 13.16Q209.52 13.61 210.11 14.46Q210.70 15.31 210.70 16.63L210.70 16.63Q210.70 17.93 210.22 18.79Q209.74 19.66 208.93 20.17Q208.13 20.69 207.13 20.92Q206.14 21.14 205.13 21.14ZM219.43 21.14L219.43 21.14Q217.51 21.14 216.30 20.20Q215.09 19.25 214.51 17.44Q213.94 15.62 213.94 13.01L213.94 13.01Q213.94 10.46 214.51 8.68Q215.09 6.89 216.30 5.94Q217.51 4.99 219.46 4.99L219.46 4.99Q221.33 4.99 222.53 5.93Q223.73 6.86 224.32 8.66Q224.90 10.46 224.90 13.03L224.90 13.03Q224.90 15.60 224.30 17.41Q223.70 19.22 222.49 20.18Q221.28 21.14 219.43 21.14ZM219.43 20.28L219.43 20.28Q221.50 20.28 222.38 18.42Q223.27 16.56 223.27 13.03L223.27 13.03Q223.27 9.55 222.43 7.72Q221.59 5.88 219.46 5.88L219.46 5.88Q217.27 5.88 216.42 7.74Q215.57 9.60 215.57 13.03L215.57 13.03Q215.57 16.63 216.47 18.46Q217.37 20.28 219.43 20.28ZM232.85 21.14L232.85 21.14Q230.93 21.14 229.72 20.20Q228.50 19.25 227.93 17.44Q227.35 15.62 227.35 13.01L227.35 13.01Q227.35 10.46 227.93 8.68Q228.50 6.89 229.72 5.94Q230.93 4.99 232.87 4.99L232.87 4.99Q234.74 4.99 235.94 5.93Q237.14 6.86 237.73 8.66Q238.32 10.46 238.32 13.03L238.32 13.03Q238.32 15.60 237.72 17.41Q237.12 19.22 235.91 20.18Q234.70 21.14 232.85 21.14ZM232.85 20.28L232.85 20.28Q234.91 20.28 235.80 18.42Q236.69 16.56 236.69 13.03L236.69 13.03Q236.69 9.55 235.85 7.72Q235.01 5.88 232.87 5.88L232.87 5.88Q230.69 5.88 229.84 7.74Q228.98 9.60 228.98 13.03L228.98 13.03Q228.98 16.63 229.88 18.46Q230.78 20.28 232.85 20.28ZM253.06 20.86L247.13 20.86L247.13 20.09L247.46 20.09Q248.18 20.09 248.59 19.98Q249 19.87 249.19 19.50Q249.38 19.13 249.38 18.34L249.38 18.34L249.38 10.46Q249.38 9.67 249.19 9.32Q249 8.98 248.62 8.87Q248.23 8.76 247.61 8.76L247.61 8.76L247.25 8.76L247.25 7.99L250.66 7.99L250.85 10.01L250.97 10.01Q251.71 8.69 252.64 8.24Q253.56 7.80 254.81 7.80L254.81 7.80Q256.78 7.80 257.78 8.90Q258.79 10.01 258.79 12.38L258.79 12.38L258.79 18.34Q258.79 19.13 258.96 19.50Q259.13 19.87 259.54 19.98Q259.94 20.09 260.62 20.09L260.62 20.09L260.86 20.09L260.86 20.86L257.26 20.86L257.26 12.36Q257.26 10.78 256.61 9.84Q255.96 8.90 254.33 8.90L254.33 8.90Q253.03 8.90 252.29 9.49Q251.54 10.08 251.23 11.03Q250.92 11.98 250.92 13.03L250.92 13.03L250.92 18.41Q250.92 19.18 251.11 19.52Q251.30 19.87 251.71 19.98Q252.12 20.09 252.82 20.09L252.82 20.09L253.06 20.09L253.06 20.86ZM268.15 21.10L268.15 21.10Q265.73 21.10 264.34 19.45Q262.94 17.81 262.94 14.42L262.94 14.42Q262.94 11.06 264.29 9.43Q265.63 7.80 268.25 7.80L268.25 7.80Q270.70 7.80 272.06 9.41Q273.43 11.02 273.43 14.42L273.43 14.42Q273.43 17.81 272.09 19.45Q270.74 21.10 268.15 21.10ZM268.18 20.14L268.18 20.14Q269.52 20.14 270.34 19.46Q271.15 18.79 271.50 17.51Q271.85 16.22 271.85 14.42L271.85 14.42Q271.85 11.57 271.00 10.16Q270.14 8.76 268.22 8.76L268.22 8.76Q266.21 8.76 265.36 10.18Q264.50 11.59 264.50 14.42L264.50 14.42Q264.50 17.18 265.37 18.66Q266.23 20.14 268.18 20.14ZM281.98 20.86L275.81 20.86L275.81 20.09L276.10 20.09Q276.72 20.09 277.12 19.98Q277.51 19.87 277.70 19.49Q277.90 19.10 277.90 18.29L277.90 18.29L277.90 10.46Q277.90 9.67 277.70 9.32Q277.51 8.98 277.09 8.87Q276.67 8.76 275.98 8.76L275.98 8.76L275.76 8.76L275.76 7.99L279.07 7.99L279.34 10.51L279.43 10.51Q279.74 9.79 280.13 9.17Q280.51 8.54 281.14 8.16Q281.76 7.78 282.74 7.78L282.74 7.78Q283.87 7.78 284.47 8.23Q285.07 8.69 285.07 9.48L285.07 9.48Q285.07 10.01 284.74 10.38Q284.40 10.75 283.63 10.75L283.63 10.75Q283.63 9.74 283.28 9.32Q282.94 8.90 282.19 8.90L282.19 8.90Q281.50 8.90 280.98 9.41Q280.46 9.91 280.13 10.72Q279.79 11.52 279.61 12.46Q279.43 13.39 279.43 14.28L279.43 14.28L279.43 18.36Q279.43 19.15 279.64 19.51Q279.84 19.87 280.24 19.98Q280.63 20.09 281.23 20.09L281.23 20.09L281.98 20.09L281.98 20.86ZM292.20 20.86L286.22 20.86L286.22 20.09L286.63 20.09Q287.33 20.09 287.74 19.98Q288.14 19.87 288.31 19.50Q288.48 19.13 288.48 18.34L288.48 18.34L288.48 10.46Q288.48 9.67 288.31 9.32Q288.14 8.98 287.75 8.87Q287.35 8.76 286.75 8.76L286.75 8.76L286.51 8.76L286.51 7.99L289.75 7.99L289.94 10.06L290.06 10.06Q290.66 8.78 291.60 8.29Q292.54 7.80 293.69 7.80L293.69 7.80Q294.62 7.80 295.30 8.06Q295.97 8.33 296.42 8.84Q296.88 9.36 297.12 10.08L297.12 10.08L297.26 10.08Q297.84 8.90 298.78 8.35Q299.71 7.80 301.03 7.80L301.03 7.80Q302.93 7.80 303.89 8.92Q304.85 10.03 304.85 12.34L304.85 12.34L304.85 18.34Q304.85 19.13 305.03 19.50Q305.21 19.87 305.62 19.98Q306.02 20.09 306.70 20.09L306.70 20.09L306.84 20.09L306.84 20.86L303.31 20.86L303.31 12.36Q303.31 10.70 302.69 9.80Q302.06 8.90 300.58 8.90L300.58 8.90Q299.45 8.90 298.76 9.41Q298.08 9.91 297.78 10.79Q297.48 11.66 297.48 12.70L297.48 12.70L297.48 18.34Q297.48 19.13 297.65 19.50Q297.82 19.87 298.22 19.98Q298.63 20.09 299.33 20.09L299.33 20.09L299.52 20.09L299.52 20.86L295.94 20.86L295.94 12.36Q295.94 10.70 295.32 9.80Q294.70 8.90 293.16 8.90L293.16 8.90Q292.06 8.90 291.36 9.48Q290.66 10.06 290.34 10.99Q290.02 11.93 290.02 13.03L290.02 13.03L290.02 18.41Q290.02 19.18 290.21 19.52Q290.40 19.87 290.82 19.98Q291.24 20.09 291.94 20.09L291.94 20.09L292.20 20.09L292.20 20.86ZM312.34 21.10L312.34 21.10Q311.35 21.10 310.54 20.69Q309.72 20.28 309.25 19.43Q308.78 18.58 308.78 17.30L308.78 17.30Q308.78 15.38 310.14 14.48Q311.50 13.58 314.30 13.49L314.30 13.49L316.30 13.42L316.30 11.93Q316.30 10.99 316.13 10.27Q315.96 9.55 315.38 9.13Q314.81 8.71 313.66 8.71L313.66 8.71Q312.62 8.71 312.07 9.06Q311.52 9.41 311.33 10.03Q311.14 10.66 311.14 11.47L311.14 11.47Q310.46 11.47 310.13 11.17Q309.79 10.87 309.79 10.15L309.79 10.15Q309.79 9.46 310.24 8.93Q310.68 8.40 311.57 8.10Q312.46 7.80 313.70 7.80L313.70 7.80Q315.89 7.80 316.86 8.77Q317.83 9.74 317.83 11.76L317.83 11.76L317.83 18.17Q317.83 18.94 317.95 19.36Q318.07 19.78 318.38 19.93Q318.70 20.09 319.30 20.09L319.30 20.09L319.39 20.09L319.39 20.86L316.70 20.86L316.42 18.60L316.30 18.60Q315.91 19.20 315.40 19.78Q314.88 20.35 314.16 20.72Q313.44 21.10 312.34 21.10ZM312.70 20.02L312.70 20.02Q313.75 20.02 314.57 19.52Q315.38 19.03 315.84 18.22Q316.30 17.40 316.30 16.51L316.30 16.51L316.30 14.21L314.52 14.28Q312.94 14.33 312.02 14.71Q311.11 15.10 310.73 15.77Q310.34 16.44 310.34 17.38L310.34 17.38Q310.34 18.14 310.60 18.74Q310.85 19.34 311.36 19.68Q311.88 20.02 312.70 20.02ZM327.12 20.86L320.76 20.86L320.76 20.09L321.26 20.09Q321.96 20.09 322.38 19.98Q322.80 19.87 322.99 19.50Q323.18 19.13 323.18 18.34L323.18 18.34L323.18 5.14Q323.18 4.32 322.99 3.96Q322.80 3.60 322.39 3.49Q321.98 3.38 321.38 3.38L321.38 3.38L320.76 3.38L320.76 2.62L324.72 2.62L324.72 18.34Q324.72 19.13 324.90 19.50Q325.08 19.87 325.51 19.98Q325.94 20.09 326.62 20.09L326.62 20.09L327.12 20.09L327.12 20.86Z"/></svg>