<svg xmlns="http://www.w3.org/2000/svg" xmlns:xlink="http://www.w3.org/1999/xlink" width="235.5" height="26.671875"><path fill="black" d="M7.97 21.73L7.97 21.73Q4.80 21.73 3.02 20.29Q1.24 18.84 1.24 16.29L1.24 16.29Q1.24 14.44 1.97 12.84Q2.70 11.25 4.01 10.05Q5.32 8.86 7.05 8.20Q8.79 7.55 10.80 7.55L10.80 7.55Q12.09 7.55 13.22 7.76Q14.34 7.97 15.07 8.37L15.07 8.37L14.30 12.07L12.70 12.12L12.54 9.61Q12.09 9.40 11.63 9.30Q11.16 9.21 10.59 9.21L10.59 9.21Q9.33 9.21 8.37 9.79Q7.41 10.36 6.75 11.33Q6.09 12.30 5.77 13.49Q5.44 14.67 5.44 15.91L5.44 15.91Q5.44 17.74 6.35 18.87Q7.27 19.99 8.79 19.99L8.79 19.99Q9.40 19.99 10.04 19.79Q10.69 19.59 11.09 19.29L11.09 19.29L12.21 17.13L13.97 17.30L12.80 20.48Q12.16 20.88 11.32 21.16Q10.48 21.45 9.60 21.59Q8.72 21.73 7.97 21.73ZM23.02 13.85L23.02 13.85Q22.59 13.85 22.18 14.18Q21.77 14.51 21.38 15.15Q20.98 15.80 20.53 16.73L20.53 16.73Q20.02 17.91 19.57 19.18Q19.13 20.46 18.87 21.52L18.87 21.52L15.28 21.52Q15.59 20.63 15.94 19.44Q16.29 18.26 16.62 17.04Q16.95 15.82 17.14 14.81Q17.34 13.80 17.34 13.29L17.34 13.29Q16.92 13.57 16.48 14.03Q16.03 14.48 15.56 15.16L15.56 15.16L14.74 14.18Q15.33 13.36 16.13 12.62Q16.92 11.88 17.79 11.41Q18.66 10.95 19.41 10.95L19.41 10.95Q19.97 10.95 20.25 11.26Q20.53 11.58 20.53 12.19L20.53 12.19Q20.53 12.54 20.37 13.50Q20.20 14.46 19.83 15.84Q19.45 17.23 18.77 18.89L18.77 18.89L18.68 18.89Q19.20 17.51 19.75 16.11Q20.30 14.72 20.92 13.55Q21.54 12.38 22.28 11.66Q23.02 10.95 23.93 10.95L23.93 10.95Q24.59 10.95 24.94 11.32Q25.29 11.70 25.29 12.38L25.29 12.38Q25.29 12.89 25.04 13.49Q24.80 14.09 24.35 14.51L24.35 14.51Q24.07 14.20 23.70 14.03Q23.32 13.85 23.02 13.85ZM27.52 21.70L27.52 21.70Q26.81 21.70 26.40 21.36Q25.99 21.02 25.99 20.25L25.99 20.25Q25.99 19.92 26.19 19.25Q26.39 18.59 26.67 17.74Q26.95 16.90 27.23 16.03Q27.52 15.16 27.70 14.44Q27.89 13.71 27.89 13.29L27.89 13.29Q27.45 13.57 27 14.03Q26.55 14.48 26.09 15.16L26.09 15.16L25.29 14.18Q25.88 13.36 26.68 12.62Q27.49 11.88 28.37 11.41Q29.25 10.95 30.05 10.95L30.05 10.95Q30.73 10.95 31.11 11.32Q31.50 11.70 31.50 12.42L31.50 12.42Q31.50 12.75 31.30 13.43Q31.10 14.11 30.83 15Q30.56 15.89 30.28 16.76Q30 17.63 29.80 18.33Q29.60 19.03 29.60 19.38L29.60 19.38Q30.05 19.10 30.50 18.63Q30.96 18.16 31.43 17.58L31.43 17.58L32.23 18.47Q31.64 19.29 30.84 20.04Q30.05 20.79 29.18 21.25Q28.31 21.70 27.52 21.70ZM30.59 9.33L30.59 9.33Q29.58 9.33 29.07 8.77Q28.57 8.20 28.57 7.41L28.57 7.41Q28.57 6.84 28.86 6.34Q29.16 5.84 29.67 5.52Q30.19 5.20 30.84 5.20L30.84 5.20Q31.85 5.20 32.34 5.74Q32.84 6.28 32.84 7.08L32.84 7.08Q32.84 7.62 32.55 8.14Q32.27 8.67 31.77 9Q31.27 9.33 30.59 9.33ZM48.33 21.70L48.33 21.70Q47.63 21.70 47.24 21.36Q46.85 21.02 46.85 20.23L46.85 20.23Q46.85 19.85 47.02 19.20Q47.18 18.54 47.44 17.75Q47.70 16.97 47.94 16.22Q48.19 15.47 48.35 14.86Q48.52 14.25 48.52 13.99L48.52 13.99Q48.52 13.55 48.16 13.55L48.16 13.55Q47.81 13.55 47.32 13.97Q46.83 14.39 46.27 15.15Q45.70 15.91 45.15 16.91Q44.60 17.91 44.11 19.09Q43.62 20.27 43.31 21.52L43.31 21.52L39.94 21.52Q40.20 20.74 40.46 19.86Q40.73 18.98 40.99 18.09Q41.25 17.20 41.45 16.39Q41.65 15.59 41.77 14.96Q41.88 14.34 41.88 13.99L41.88 13.99Q41.88 13.55 41.48 13.55L41.48 13.55Q41.16 13.55 40.65 13.98Q40.15 14.41 39.59 15.19Q39.02 15.96 38.47 16.97Q37.92 17.98 37.45 19.15Q36.98 20.32 36.68 21.52L36.68 21.52L33.30 21.52Q33.61 20.63 33.95 19.44Q34.29 18.26 34.61 17.04Q34.92 15.82 35.13 14.81Q35.34 13.80 35.34 13.29L35.34 13.29Q34.88 13.57 34.44 14.03Q34.01 14.48 33.54 15.16L33.54 15.16L32.72 14.18Q33.30 13.36 34.11 12.62Q34.92 11.88 35.79 11.41Q36.66 10.95 37.43 10.95L37.43 10.95Q38.04 10.95 38.39 11.29Q38.74 11.63 38.74 12.30L38.74 12.30Q38.74 12.63 38.58 13.43Q38.41 14.23 38.10 15.39Q37.78 16.55 37.29 18.02L37.29 18.02L37.13 18.02Q37.64 16.34 38.37 15.02Q39.09 13.71 39.95 12.80Q40.80 11.88 41.72 11.41Q42.63 10.95 43.55 10.95L43.55 10.95Q44.44 10.95 44.98 11.36Q45.52 11.77 45.52 12.61L45.52 12.61Q45.52 13.17 45.27 14.00Q45.02 14.84 44.63 15.86Q44.23 16.88 43.69 18.02L43.69 18.02L43.59 18.02Q44.30 16.22 45.09 14.88Q45.89 13.55 46.76 12.68Q47.63 11.81 48.50 11.38Q49.38 10.95 50.18 10.95L50.18 10.95Q51.09 10.95 51.62 11.37Q52.15 11.79 52.15 12.77L52.15 12.77Q52.15 13.13 51.97 13.79Q51.80 14.46 51.54 15.28Q51.28 16.10 51.02 16.92Q50.77 17.74 50.59 18.39Q50.41 19.03 50.41 19.38L50.41 19.38Q50.86 19.10 51.32 18.63Q51.77 18.16 52.24 17.58L52.24 17.58L53.04 18.47Q52.45 19.29 51.66 20.04Q50.86 20.79 49.99 21.25Q49.13 21.70 48.33 21.70ZM56.77 21.70L56.77 21.70Q55.71 21.70 54.95 21.41Q54.19 21.12 53.78 20.64Q53.37 20.16 53.37 19.62L53.37 19.62Q53.37 19.15 53.59 18.70Q53.81 18.26 54.14 17.91L54.14 17.91Q54.96 18.89 55.88 19.49Q56.79 20.09 57.40 20.09L57.40 20.09Q57.80 20.09 58.08 19.88Q58.36 19.66 58.36 19.20L58.36 19.20Q58.36 18.82 58.03 18.46Q57.70 18.09 56.60 17.51L56.60 17.51Q55.88 17.09 55.41 16.69Q54.94 16.29 54.71 15.83Q54.49 15.38 54.49 14.84L54.49 14.84Q54.49 13.71 55.13 12.83Q55.76 11.95 56.84 11.45Q57.91 10.95 59.20 10.95L59.20 10.95Q60.09 10.95 60.80 11.16Q61.50 11.37 61.92 11.80Q62.34 12.23 62.34 12.94L62.34 12.94Q62.34 13.43 62.16 13.83Q61.97 14.23 61.69 14.53L61.69 14.53Q60.80 13.41 60.12 12.94Q59.44 12.47 58.83 12.47L58.83 12.47Q58.29 12.47 58.00 12.75Q57.70 13.03 57.70 13.43L57.70 13.43Q57.70 13.69 57.84 13.92Q57.98 14.16 58.39 14.46Q58.80 14.77 59.65 15.26L59.65 15.26Q60.35 15.66 60.79 16.05Q61.22 16.45 61.42 16.85Q61.62 17.25 61.62 17.74L61.62 17.74Q61.62 18.87 60.97 19.77Q60.33 20.67 59.23 21.19Q58.13 21.70 56.77 21.70ZM67.17 21.70L67.17 21.70Q65.91 21.70 65.02 21.25Q64.13 20.79 63.67 19.95Q63.21 19.10 63.21 17.95L63.21 17.95Q63.21 16.62 63.69 15.36Q64.17 14.11 65.03 13.11Q65.88 12.12 67.04 11.53Q68.20 10.95 69.52 10.95L69.52 10.95Q70.76 10.95 71.65 11.40Q72.54 11.86 73.01 12.70Q73.48 13.55 73.48 14.72L73.48 14.72Q73.48 16.05 73.00 17.30Q72.52 18.54 71.66 19.55Q70.80 20.55 69.66 21.13Q68.51 21.70 67.17 21.70ZM67.88 20.09L67.88 20.09Q68.32 20.09 68.70 19.64Q69.07 19.20 69.34 18.45Q69.61 17.70 69.75 16.75Q69.89 15.80 69.89 14.79L69.89 14.79Q69.89 13.69 69.64 13.08Q69.40 12.47 68.93 12.47L68.93 12.47Q68.46 12.47 68.09 12.90Q67.71 13.34 67.43 14.10Q67.15 14.86 67.01 15.81Q66.87 16.76 66.87 17.77L66.87 17.77Q66.87 18.89 67.14 19.49Q67.41 20.09 67.88 20.09ZM83.23 21.70L83.23 21.70Q82.52 21.70 82.13 21.36Q81.73 21.02 81.73 20.23L81.73 20.23Q81.73 19.85 81.90 19.20Q82.08 18.54 82.32 17.75Q82.57 16.97 82.82 16.22Q83.06 15.47 83.24 14.86Q83.41 14.25 83.41 13.99L83.41 13.99Q83.41 13.55 83.04 13.55L83.04 13.55Q82.69 13.55 82.20 13.97Q81.70 14.39 81.12 15.15Q80.53 15.91 79.97 16.91Q79.41 17.91 78.93 19.09Q78.45 20.27 78.12 21.52L78.12 21.52L74.74 21.52Q75.05 20.63 75.39 19.44Q75.73 18.26 76.04 17.04Q76.36 15.82 76.57 14.81Q76.78 13.80 76.78 13.29L76.78 13.29Q76.31 13.57 75.88 14.03Q75.45 14.48 74.98 15.16L74.98 15.16L74.16 14.18Q74.74 13.36 75.55 12.62Q76.36 11.88 77.23 11.41Q78.09 10.95 78.87 10.95L78.87 10.95Q79.48 10.95 79.83 11.29Q80.18 11.63 80.18 12.30L80.18 12.30Q80.18 12.63 80.02 13.43Q79.85 14.23 79.54 15.39Q79.22 16.55 78.73 18.02L78.73 18.02L78.56 18.02Q79.10 16.27 79.86 14.93Q80.63 13.59 81.52 12.71Q82.41 11.84 83.32 11.39Q84.23 10.95 85.05 10.95L85.05 10.95Q85.97 10.95 86.51 11.37Q87.05 11.79 87.05 12.77L87.05 12.77Q87.05 13.13 86.87 13.79Q86.70 14.46 86.44 15.28Q86.18 16.10 85.92 16.92Q85.66 17.74 85.49 18.39Q85.31 19.03 85.31 19.38L85.31 19.38Q85.76 19.10 86.21 18.63Q86.67 18.16 87.14 17.58L87.14 17.58L87.94 18.47Q87.35 19.29 86.55 20.04Q85.76 20.79 84.88 21.25Q84 21.70 83.23 21.70ZM99.73 21.52L92.79 21.52L92.98 20.27L94.50 19.85Q94.62 19.48 94.78 18.84Q94.95 18.21 95.12 17.50Q95.30 16.78 95.39 16.20L95.39 16.20L96.09 12.98Q96.45 11.37 96.59 10.55Q96.73 9.73 96.77 9.40L96.77 9.40L95.34 9L95.70 7.76L101.84 7.76Q104.34 7.76 105.66 8.63Q106.97 9.49 106.97 11.27L106.97 11.27Q106.97 12.42 106.43 13.37Q105.89 14.32 104.96 15.01Q104.04 15.70 102.87 16.08Q101.70 16.45 100.38 16.45L100.38 16.45Q99.87 16.45 99.36 16.38Q98.86 16.31 98.60 16.22L98.60 16.22L98.98 14.58Q99.19 14.67 99.57 14.74Q99.96 14.81 100.43 14.81L100.43 14.81Q101.74 14.81 102.48 13.84Q103.22 12.87 103.22 11.34L103.22 11.34Q103.22 10.24 102.61 9.69Q102 9.14 100.85 9.14L100.85 9.14L100.45 9.14Q100.41 9.35 100.30 9.82Q100.20 10.29 100.04 11.06Q99.89 11.84 99.63 12.98L99.63 12.98L98.95 16.20Q98.67 17.58 98.50 18.52Q98.32 19.45 98.27 19.85L98.27 19.85L100.08 20.23L99.73 21.52ZM115.20 13.85L115.20 13.85Q114.77 13.85 114.36 14.18Q113.95 14.51 113.55 15.15Q113.16 15.80 112.71 16.73L112.71 16.73Q112.20 17.91 111.75 19.18Q111.30 20.46 111.05 21.52L111.05 21.52L107.46 21.52Q107.77 20.63 108.12 19.44Q108.47 18.26 108.80 17.04Q109.13 15.82 109.32 14.81Q109.52 13.80 109.52 13.29L109.52 13.29Q109.10 13.57 108.66 14.03Q108.21 14.48 107.74 15.16L107.74 15.16L106.92 14.18Q107.51 13.36 108.30 12.62Q109.10 11.88 109.97 11.41Q110.84 10.95 111.59 10.95L111.59 10.95Q112.15 10.95 112.43 11.26Q112.71 11.58 112.71 12.19L112.71 12.19Q112.71 12.54 112.55 13.50Q112.38 14.46 112.01 15.84Q111.63 17.23 110.95 18.89L110.95 18.89L110.86 18.89Q111.38 17.51 111.93 16.11Q112.48 14.72 113.10 13.55Q113.72 12.38 114.46 11.66Q115.20 10.95 116.11 10.95L116.11 10.95Q116.77 10.95 117.12 11.32Q117.47 11.70 117.47 12.38L117.47 12.38Q117.47 12.89 117.22 13.49Q116.98 14.09 116.53 14.51L116.53 14.51Q116.25 14.20 115.88 14.03Q115.50 13.85 115.20 13.85ZM121.10 21.70L121.10 21.70Q119.84 21.70 118.95 21.25Q118.05 20.79 117.60 19.95Q117.14 19.10 117.14 17.95L117.14 17.95Q117.14 16.62 117.62 15.36Q118.10 14.11 118.96 13.11Q119.81 12.12 120.97 11.53Q122.13 10.95 123.45 10.95L123.45 10.95Q124.69 10.95 125.58 11.40Q126.47 11.86 126.94 12.70Q127.41 13.55 127.41 14.72L127.41 14.72Q127.41 16.05 126.93 17.30Q126.45 18.54 125.59 19.55Q124.73 20.55 123.59 21.13Q122.44 21.70 121.10 21.70ZM121.80 20.09L121.80 20.09Q122.25 20.09 122.63 19.64Q123 19.20 123.27 18.45Q123.54 17.70 123.68 16.75Q123.82 15.80 123.82 14.79L123.82 14.79Q123.82 13.69 123.57 13.08Q123.33 12.47 122.86 12.47L122.86 12.47Q122.39 12.47 122.02 12.90Q121.64 13.34 121.36 14.10Q121.08 14.86 120.94 15.81Q120.80 16.76 120.80 17.77L120.80 17.77Q120.80 18.89 121.07 19.49Q121.34 20.09 121.80 20.09ZM138.70 21.73L138.70 21.73Q137.16 21.73 135.97 21.33Q134.79 20.93 134.14 20.20Q133.50 19.48 133.50 18.52L133.50 18.52Q133.50 17.23 134.75 16.20Q136.01 15.16 138.38 14.86L138.38 14.86L138.70 15.35Q137.77 16.15 137.39 16.85Q137.02 17.55 137.02 18.19L137.02 18.19Q137.02 19.03 137.67 19.50Q138.33 19.97 139.41 19.97L139.41 19.97Q140.55 19.97 141.21 19.49Q141.87 19.01 141.87 18.21L141.87 18.21Q141.87 17.60 141.40 17.18Q140.93 16.76 140.20 16.43Q139.48 16.10 138.66 15.75Q137.84 15.40 137.11 14.93Q136.38 14.46 135.91 13.76Q135.45 13.05 135.45 12.02L135.45 12.02Q135.45 10.73 136.23 9.73Q137.02 8.72 138.39 8.13Q139.76 7.55 141.47 7.55L141.47 7.55Q143.65 7.55 144.96 8.38Q146.27 9.21 146.27 10.59L146.27 10.59Q146.27 12.14 145.05 13.20Q143.84 14.25 141.66 14.51L141.66 14.51L141.30 14.11Q142.10 13.38 142.57 12.52Q143.04 11.65 143.04 10.85L143.04 10.85Q143.04 9.98 142.52 9.56Q142.01 9.14 141.19 9.14L141.19 9.14Q140.16 9.14 139.58 9.68Q139.01 10.22 139.01 11.02L139.01 11.02Q139.01 11.70 139.48 12.14Q139.95 12.59 140.68 12.94Q141.42 13.29 142.24 13.63Q143.06 13.97 143.79 14.40Q144.52 14.84 144.98 15.49Q145.45 16.15 145.45 17.13L145.45 17.13Q145.45 18.49 144.60 19.54Q143.74 20.58 142.24 21.15Q140.74 21.73 138.70 21.73ZM153.68 21.73L153.68 21.73Q152.06 21.73 150.87 21.08Q149.67 20.44 149.00 19.23Q148.34 18.02 148.34 16.43L148.34 16.43Q148.34 14.58 148.96 12.97Q149.58 11.37 150.68 10.15Q151.78 8.93 153.23 8.24Q154.69 7.55 156.33 7.55L156.33 7.55Q158.67 7.55 160.03 8.92Q161.39 10.29 161.39 12.68L161.39 12.68Q161.39 14.11 160.98 15.45Q160.57 16.78 159.84 17.93Q159.12 19.08 158.16 19.93Q157.20 20.79 156.05 21.26Q154.90 21.73 153.68 21.73ZM154.20 19.90L154.20 19.90Q154.73 19.90 155.25 19.50Q155.77 19.10 156.19 18.38Q156.61 17.65 156.94 16.66Q157.27 15.68 157.44 14.53Q157.62 13.38 157.62 12.14L157.62 12.14Q157.62 10.73 157.15 9.95Q156.68 9.16 155.81 9.16L155.81 9.16Q155.23 9.16 154.69 9.57Q154.15 9.98 153.69 10.70Q153.23 11.41 152.91 12.35Q152.58 13.29 152.40 14.38Q152.23 15.47 152.23 16.59L152.23 16.59Q152.23 18.14 152.74 19.02Q153.26 19.90 154.20 19.90ZM168.66 21.73L168.66 21.73Q167.04 21.73 165.84 21.08Q164.65 20.44 163.98 19.23Q163.31 18.02 163.31 16.43L163.31 16.43Q163.31 14.58 163.93 12.97Q164.55 11.37 165.66 10.15Q166.76 8.93 168.21 8.24Q169.66 7.55 171.30 7.55L171.30 7.55Q173.65 7.55 175.01 8.92Q176.37 10.29 176.37 12.68L176.37 12.68Q176.37 14.11 175.96 15.45Q175.55 16.78 174.82 17.93Q174.09 19.08 173.13 19.93Q172.17 20.79 171.02 21.26Q169.88 21.73 168.66 21.73ZM169.17 19.90L169.17 19.90Q169.71 19.90 170.23 19.50Q170.74 19.10 171.16 18.38Q171.59 17.65 171.91 16.66Q172.24 15.68 172.42 14.53Q172.59 13.38 172.59 12.14L172.59 12.14Q172.59 10.73 172.13 9.95Q171.66 9.16 170.79 9.16L170.79 9.16Q170.20 9.16 169.66 9.57Q169.13 9.98 168.67 10.70Q168.21 11.41 167.88 12.35Q167.55 13.29 167.38 14.38Q167.20 15.47 167.20 16.59L167.20 16.59Q167.20 18.14 167.72 19.02Q168.23 19.90 169.17 19.90ZM184.17 21.70L184.17 21.70Q183.47 21.70 183.06 21.36Q182.65 21.02 182.65 20.25L182.65 20.25Q182.65 19.92 182.85 19.25Q183.05 18.59 183.33 17.74Q183.61 16.90 183.89 16.03Q184.17 15.16 184.36 14.44Q184.55 13.71 184.55 13.29L184.55 13.29Q184.10 13.57 183.66 14.03Q183.21 14.48 182.74 15.16L182.74 15.16L181.95 14.18Q182.53 13.36 183.34 12.62Q184.15 11.88 185.03 11.41Q185.91 10.95 186.70 10.95L186.70 10.95Q187.38 10.95 187.77 11.32Q188.16 11.70 188.16 12.42L188.16 12.42Q188.16 12.75 187.96 13.43Q187.76 14.11 187.49 15Q187.22 15.89 186.94 16.76Q186.66 17.63 186.46 18.33Q186.26 19.03 186.26 19.38L186.26 19.38Q186.70 19.10 187.16 18.63Q187.62 18.16 188.09 17.58L188.09 17.58L188.88 18.47Q188.30 19.29 187.50 20.04Q186.70 20.79 185.84 21.25Q184.97 21.70 184.17 21.70ZM187.24 9.33L187.24 9.33Q186.23 9.33 185.73 8.77Q185.23 8.20 185.23 7.41L185.23 7.41Q185.23 6.84 185.52 6.34Q185.81 5.84 186.33 5.52Q186.84 5.20 187.50 5.20L187.50 5.20Q188.51 5.20 189 5.74Q189.49 6.28 189.49 7.08L189.49 7.08Q189.49 7.62 189.21 8.14Q188.93 8.67 188.43 9Q187.92 9.33 187.24 9.33ZM196.66 17.23L197.44 18.40Q196.31 19.99 195 20.85Q193.69 21.70 192.23 21.70L192.23 21.70Q191.20 21.70 190.69 21.23Q190.17 20.77 190.17 19.88L190.17 19.88Q190.17 19.62 190.23 19.25Q190.29 18.89 190.38 18.49L190.38 18.49L191.84 12.77L190.20 12.77L190.36 11.98L195.42 8.60L196.20 8.60L195.33 12.14L193.95 17.77Q193.85 18.19 193.80 18.39Q193.76 18.59 193.76 18.73L193.76 18.73Q193.76 19.20 194.25 19.20L194.25 19.20Q194.70 19.20 195.26 18.79Q195.82 18.38 196.66 17.23L196.66 17.23ZM197.84 12.77L194.11 12.77L194.41 11.18L198.16 11.18L197.84 12.77ZM200.63 21.70L200.63 21.70Q199.55 21.70 198.88 20.92Q198.21 20.13 198.21 18.94L198.21 18.94Q198.21 17.27 198.84 15.82Q199.48 14.37 200.52 13.27Q201.56 12.16 202.80 11.54Q204.05 10.92 205.27 10.92L205.27 10.92Q206.02 10.92 206.57 11.36Q207.12 11.79 207.68 12.56L207.68 12.56L206.72 13.29Q206.37 12.98 205.92 12.82Q205.48 12.66 205.01 12.66L205.01 12.66Q204.33 12.66 203.75 13.07Q203.18 13.48 202.75 14.20Q202.31 14.93 202.09 15.93Q201.87 16.92 201.87 18.09L201.87 18.09Q201.87 18.59 201.98 18.86Q202.10 19.13 202.36 19.13L202.36 19.13Q202.59 19.13 203.13 18.50Q203.67 17.88 204.33 16.85Q204.98 15.82 205.59 14.58Q206.20 13.34 206.58 12.09L206.58 12.09L207.02 11.88L207.82 11.13L210.21 11.13Q209.81 12.33 209.44 13.59Q209.06 14.86 208.77 16.02Q208.48 17.18 208.31 18.06Q208.15 18.94 208.15 19.38L208.15 19.38Q208.57 19.10 209.03 18.63Q209.48 18.16 209.95 17.58L209.95 17.58L210.75 18.47Q210.16 19.29 209.37 20.04Q208.57 20.79 207.70 21.25Q206.84 21.70 206.06 21.70L206.06 21.70Q205.43 21.70 205.09 21.35Q204.75 21 204.75 20.37L204.75 20.37Q204.75 19.97 204.90 19.24Q205.05 18.52 205.37 17.39Q205.69 16.27 206.20 14.70L206.20 14.70L206.37 14.70Q205.64 16.85 204.73 18.43Q203.81 20.02 202.77 20.86Q201.73 21.70 200.63 21.70ZM213.14 21.70L213.14 21.70Q212.44 21.70 212.04 21.34Q211.64 20.98 211.64 20.25L211.64 20.25Q211.64 19.92 211.69 19.57Q211.73 19.22 211.88 18.57Q212.02 17.93 212.30 16.73L212.30 16.73L214.62 7.62L212.93 7.38L213.16 6.35L218.20 5.13L218.81 5.58Q218.34 7.15 218.02 8.34Q217.69 9.54 217.45 10.41L217.45 10.41L215.77 16.62Q215.60 17.30 215.47 17.82Q215.34 18.35 215.30 18.75Q215.25 19.15 215.25 19.38L215.25 19.38Q215.67 19.10 216.13 18.63Q216.59 18.16 217.05 17.58L217.05 17.58L217.83 18.47Q217.24 19.29 216.45 20.04Q215.65 20.79 214.79 21.25Q213.94 21.70 213.14 21.70ZM220.62 21.70L220.62 21.70Q219.91 21.70 219.50 21.36Q219.09 21.02 219.09 20.25L219.09 20.25Q219.09 19.92 219.29 19.25Q219.49 18.59 219.77 17.74Q220.05 16.90 220.34 16.03Q220.62 15.16 220.80 14.44Q220.99 13.71 220.99 13.29L220.99 13.29Q220.55 13.57 220.10 14.03Q219.66 14.48 219.19 15.16L219.19 15.16L218.39 14.18Q218.98 13.36 219.79 12.62Q220.59 11.88 221.47 11.41Q222.35 10.95 223.15 10.95L223.15 10.95Q223.83 10.95 224.21 11.32Q224.60 11.70 224.60 12.42L224.60 12.42Q224.60 12.75 224.40 13.43Q224.20 14.11 223.93 15Q223.66 15.89 223.38 16.76Q223.10 17.63 222.90 18.33Q222.70 19.03 222.70 19.38L222.70 19.38Q223.15 19.10 223.61 18.63Q224.06 18.16 224.53 17.58L224.53 17.58L225.33 18.47Q224.74 19.29 223.95 20.04Q223.15 20.79 222.28 21.25Q221.41 21.70 220.62 21.70ZM223.69 9.33L223.69 9.33Q222.68 9.33 222.18 8.77Q221.67 8.20 221.67 7.41L221.67 7.41Q221.67 6.84 221.96 6.34Q222.26 5.84 222.77 5.52Q223.29 5.20 223.95 5.20L223.95 5.20Q224.95 5.20 225.45 5.74Q225.94 6.28 225.94 7.08L225.94 7.08Q225.94 7.62 225.66 8.14Q225.38 8.67 224.87 9Q224.37 9.33 223.69 9.33ZM231.98 12.70L231.98 12.70Q231.38 12.70 230.91 13.36Q230.44 14.02 230.17 15.05Q229.90 16.08 229.92 17.25L229.92 17.25Q229.95 18.30 230.36 18.76Q230.77 19.22 231.42 19.22L231.42 19.22Q232.03 19.22 232.83 18.86Q233.63 18.49 234.40 17.67L234.40 17.67L235.17 18.82Q234.02 20.37 232.65 21.04Q231.28 21.70 230.20 21.70L230.20 21.70Q229.10 21.70 228.20 21.25Q227.30 20.79 226.77 19.95Q226.24 19.10 226.24 17.95L226.24 17.95Q226.24 16.64 226.73 15.39Q227.23 14.13 228.12 13.14Q229.01 12.14 230.21 11.54Q231.42 10.95 232.83 10.95L232.83 10.95Q234.07 10.95 234.82 11.47Q235.57 12 235.57 12.98L235.57 12.98Q235.57 13.45 235.38 13.90Q235.20 14.34 234.89 14.70L234.89 14.70Q234.26 13.78 233.41 13.24Q232.57 12.70 231.98 12.70Z"/></svg>