<svg xmlns="http://www.w3.org/2000/svg" xmlns:xlink="http://www.w3.org/1999/xlink" width="388.65600000000006" height="30"><path fill="black" d="M15.89 24L4.25 24L4.25 7.20L4.78 7.20L4.78 23.47L15.89 23.47L15.89 24ZM28.08 24.24L28.08 24.24Q25.68 24.24 23.89 23.39Q22.10 22.54 21.13 21.05Q20.16 19.56 20.16 17.69L20.16 17.69Q20.16 16.22 20.75 15.02Q21.34 13.82 22.36 12.96Q23.38 12.10 24.71 11.63Q26.04 11.16 27.58 11.16L27.58 11.16Q29.04 11.16 30.31 11.57Q31.58 11.98 32.54 12.73Q33.50 13.49 34.03 14.57Q34.56 15.65 34.51 17.02L34.51 17.02L34.49 17.83L20.45 17.83L20.45 17.30L34.22 17.30L33.98 17.52L33.98 16.92Q33.98 15.34 33.12 14.16Q32.26 12.98 30.82 12.34Q29.38 11.69 27.65 11.69L27.65 11.69Q25.75 11.69 24.17 12.41Q22.58 13.13 21.65 14.48Q20.71 15.84 20.69 17.69L20.69 17.69Q20.71 19.42 21.65 20.77Q22.58 22.13 24.25 22.90Q25.92 23.66 28.06 23.66L28.06 23.66Q30.05 23.66 31.38 23.16Q32.71 22.66 33.70 21.96L33.70 21.96L33.84 22.49Q33 23.04 32.16 23.42Q31.32 23.81 30.35 24.02Q29.38 24.24 28.08 24.24ZM54.12 24L53.33 24L46.94 17.78L46.78 17.62L40.80 11.40L41.59 11.40L47.16 17.21L47.33 17.42L54.12 24ZM40.92 24L40.13 24L46.87 17.40L47.28 17.78L40.92 24ZM54 11.40L47.33 17.74L46.94 17.33L53.18 11.40L54 11.40ZM66.65 24.24L66.65 24.24Q64.25 24.24 62.46 23.39Q60.67 22.54 59.70 21.05Q58.73 19.56 58.73 17.69L58.73 17.69Q58.73 16.22 59.32 15.02Q59.90 13.82 60.92 12.96Q61.94 12.10 63.28 11.63Q64.61 11.16 66.14 11.16L66.14 11.16Q67.61 11.16 68.88 11.57Q70.15 11.98 71.11 12.73Q72.07 13.49 72.60 14.57Q73.13 15.65 73.08 17.02L73.08 17.02L73.06 17.83L59.02 17.83L59.02 17.30L72.79 17.30L72.55 17.52L72.55 16.92Q72.55 15.34 71.69 14.16Q70.82 12.98 69.38 12.34Q67.94 11.69 66.22 11.69L66.22 11.69Q64.32 11.69 62.74 12.41Q61.15 13.13 60.22 14.48Q59.28 15.84 59.26 17.69L59.26 17.69Q59.28 19.42 60.22 20.77Q61.15 22.13 62.82 22.90Q64.49 23.66 66.62 23.66L66.62 23.66Q68.62 23.66 69.95 23.16Q71.28 22.66 72.26 21.96L72.26 21.96L72.41 22.49Q71.57 23.04 70.73 23.42Q69.89 23.81 68.92 24.02Q67.94 24.24 66.65 24.24ZM80.45 24L80.45 24L80.45 11.40L80.93 11.40L80.98 15.07L80.66 15.17Q80.95 14.23 81.79 13.32Q82.63 12.41 83.89 11.78Q85.15 11.16 86.64 11.16L86.64 11.16Q88.51 11.16 89.80 11.83Q91.08 12.50 91.75 13.67Q92.42 14.83 92.42 16.32L92.42 16.32L92.42 24L91.90 24L91.90 16.46Q91.90 14.98 91.24 13.90Q90.58 12.82 89.41 12.25Q88.25 11.69 86.74 11.71L86.74 11.71Q85.49 11.71 84.44 12.13Q83.40 12.55 82.62 13.20Q81.84 13.85 81.41 14.51Q80.98 15.17 80.98 15.60L80.98 15.60L80.98 24L80.74 24Q80.69 24 80.62 24Q80.54 24 80.45 24ZM106.70 24.24L106.70 24.24Q104.69 24.24 103.10 23.39Q101.52 22.54 100.60 21.06Q99.67 19.58 99.67 17.71L99.67 17.71Q99.67 15.82 100.57 14.34Q101.47 12.86 103.06 12.01Q104.64 11.16 106.68 11.16L106.68 11.16Q107.88 11.16 108.94 11.45Q109.99 11.74 110.87 12.30Q111.74 12.86 112.43 13.73Q113.11 14.59 113.57 15.74L113.57 15.74L113.30 15.74L113.30 6.24L113.83 6.24L113.83 24L113.35 24L113.30 19.66L113.59 19.61Q113.16 20.81 112.48 21.68Q111.79 22.56 110.92 23.12Q110.04 23.69 108.97 23.96Q107.90 24.24 106.70 24.24ZM106.68 23.71L106.68 23.71Q108.62 23.71 110.11 22.96Q111.60 22.20 112.45 20.84Q113.30 19.49 113.30 17.66L113.30 17.66Q113.30 15.96 112.48 14.63Q111.65 13.30 110.17 12.50Q108.70 11.71 106.68 11.71L106.68 11.71Q104.81 11.71 103.34 12.47Q101.88 13.22 101.04 14.59Q100.20 15.96 100.20 17.71L100.20 17.71Q100.22 19.49 101.06 20.84Q101.90 22.20 103.38 22.96Q104.86 23.71 106.68 23.71ZM137.78 24L137.26 24L137.26 7.73L130.80 7.73L130.80 7.20L144.24 7.20L144.24 7.73L137.78 7.73L137.78 24ZM153.98 24.24L153.98 24.24Q151.58 24.24 149.80 23.39Q148.01 22.54 147.04 21.05Q146.06 19.56 146.06 17.69L146.06 17.69Q146.06 16.22 146.65 15.02Q147.24 13.82 148.26 12.96Q149.28 12.10 150.61 11.63Q151.94 11.16 153.48 11.16L153.48 11.16Q154.94 11.16 156.22 11.57Q157.49 11.98 158.45 12.73Q159.41 13.49 159.94 14.57Q160.46 15.65 160.42 17.02L160.42 17.02L160.39 17.83L146.35 17.83L146.35 17.30L160.13 17.30L159.89 17.52L159.89 16.92Q159.89 15.34 159.02 14.16Q158.16 12.98 156.72 12.34Q155.28 11.69 153.55 11.69L153.55 11.69Q151.66 11.69 150.07 12.41Q148.49 13.13 147.55 14.48Q146.62 15.84 146.59 17.69L146.59 17.69Q146.62 19.42 147.55 20.77Q148.49 22.13 150.16 22.90Q151.82 23.66 153.96 23.66L153.96 23.66Q155.95 23.66 157.28 23.16Q158.62 22.66 159.60 21.96L159.60 21.96L159.74 22.49Q158.90 23.04 158.06 23.42Q157.22 23.81 156.25 24.02Q155.28 24.24 153.98 24.24ZM168.31 24L167.78 24L167.78 11.40L168.26 11.40L168.29 14.95L168.05 15.10Q168.36 13.92 169.06 13.04Q169.75 12.17 170.80 11.66Q171.84 11.16 173.21 11.16L173.21 11.16Q174.00 11.16 174.74 11.30Q175.49 11.45 175.99 11.74L175.99 11.74L175.78 12.24Q175.22 11.95 174.50 11.82Q173.78 11.69 173.21 11.69L173.21 11.69Q172.01 11.69 171.10 12.12Q170.18 12.55 169.56 13.21Q168.94 13.87 168.62 14.64Q168.31 15.41 168.31 16.13L168.31 16.13L168.31 24ZM187.54 24.24L187.54 24.24Q185.16 24.24 183.47 23.44Q181.78 22.63 180.89 21.19Q180.00 19.75 180.00 17.83L180.00 17.83Q180.00 15.94 180.96 14.42Q181.92 12.91 183.60 12.04Q185.28 11.16 187.39 11.16L187.39 11.16Q188.86 11.16 190.07 11.59Q191.28 12.02 192.19 12.76Q193.10 13.49 193.63 14.38Q194.16 15.26 194.23 16.15L194.23 16.15L193.99 16.15L194.04 11.40L194.52 11.40L194.52 24L193.99 24L193.99 19.49L194.30 19.13Q194.18 20.23 193.60 21.16Q193.01 22.08 192.10 22.78Q191.18 23.47 190.01 23.86Q188.83 24.24 187.54 24.24ZM187.46 23.71L187.46 23.71Q189.36 23.71 190.84 22.94Q192.31 22.18 193.16 20.84Q194.02 19.51 194.02 17.78L194.02 17.78Q194.02 16.08 193.18 14.71Q192.34 13.34 190.84 12.52Q189.34 11.69 187.42 11.69L187.42 11.69Q185.40 11.69 183.84 12.52Q182.28 13.34 181.40 14.72Q180.53 16.10 180.53 17.83L180.53 17.83Q180.53 19.54 181.36 20.87Q182.18 22.20 183.73 22.96Q185.28 23.71 187.46 23.71ZM215.71 23.81L215.18 23.81L215.18 7.30L215.52 7.42L211.49 9.89L211.25 9.48L215.33 6.96L215.71 6.96L215.71 23.81ZM218.93 24L211.80 24L211.80 23.47L218.93 23.47L218.93 24ZM231.14 24.24L231.14 24.24Q228.72 24.24 227.08 23.20Q225.43 22.15 224.62 20.22Q223.80 18.29 223.80 15.60L223.80 15.60Q223.80 12.91 224.62 10.98Q225.43 9.05 227.08 8.00Q228.72 6.96 231.14 6.96L231.14 6.96Q233.54 6.96 235.14 8.00Q236.74 9.05 237.52 10.98Q238.30 12.91 238.30 15.60L238.30 15.60Q238.30 18.29 237.52 20.22Q236.74 22.15 235.14 23.20Q233.54 24.24 231.14 24.24ZM231.14 23.71L231.14 23.71Q234.34 23.71 236.04 21.61Q237.74 19.51 237.74 15.60L237.74 15.60Q237.74 11.69 236.04 9.59Q234.34 7.49 231.14 7.49L231.14 7.49Q227.93 7.49 226.14 9.59Q224.35 11.69 224.35 15.60L224.35 15.60Q224.35 19.51 226.14 21.61Q227.93 23.71 231.14 23.71ZM250.20 24.24L250.20 24.24Q247.78 24.24 246.13 23.20Q244.49 22.15 243.67 20.22Q242.86 18.29 242.86 15.60L242.86 15.60Q242.86 12.91 243.67 10.98Q244.49 9.05 246.13 8.00Q247.78 6.96 250.20 6.96L250.20 6.96Q252.60 6.96 254.20 8.00Q255.79 9.05 256.57 10.98Q257.35 12.91 257.35 15.60L257.35 15.60Q257.35 18.29 256.57 20.22Q255.79 22.15 254.20 23.20Q252.60 24.24 250.20 24.24ZM250.20 23.71L250.20 23.71Q253.39 23.71 255.10 21.61Q256.80 19.51 256.80 15.60L256.80 15.60Q256.80 11.69 255.10 9.59Q253.39 7.49 250.20 7.49L250.20 7.49Q246.98 7.49 245.20 9.59Q243.41 11.69 243.41 15.60L243.41 15.60Q243.41 19.51 245.20 21.61Q246.98 23.71 250.20 23.71ZM274.80 24L274.80 24L274.80 11.40L275.28 11.40L275.33 15.07L275.02 15.17Q275.30 14.23 276.14 13.32Q276.98 12.41 278.24 11.78Q279.50 11.16 280.99 11.16L280.99 11.16Q282.86 11.16 284.15 11.83Q285.43 12.50 286.10 13.67Q286.78 14.83 286.78 16.32L286.78 16.32L286.78 24L286.25 24L286.25 16.46Q286.25 14.98 285.59 13.90Q284.93 12.82 283.76 12.25Q282.60 11.69 281.09 11.71L281.09 11.71Q279.84 11.71 278.80 12.13Q277.75 12.55 276.97 13.20Q276.19 13.85 275.76 14.51Q275.33 15.17 275.33 15.60L275.33 15.60L275.33 24L275.09 24Q275.04 24 274.97 24Q274.90 24 274.80 24ZM301.99 24.24L301.99 24.24Q299.62 24.24 297.82 23.40Q296.02 22.56 295.02 21.08Q294.02 19.61 294.02 17.69L294.02 17.69Q294.02 15.79 295.02 14.32Q296.02 12.84 297.82 12Q299.62 11.16 301.99 11.16L301.99 11.16Q304.34 11.16 306.13 12Q307.92 12.84 308.93 14.32Q309.94 15.79 309.94 17.69L309.94 17.69Q309.94 19.56 308.93 21.05Q307.92 22.54 306.13 23.39Q304.34 24.24 301.99 24.24ZM301.99 23.71L301.99 23.71Q304.10 23.71 305.76 22.96Q307.42 22.20 308.41 20.83Q309.41 19.46 309.41 17.69L309.41 17.69Q309.43 15.96 308.45 14.60Q307.46 13.25 305.80 12.47Q304.13 11.69 301.99 11.69L301.99 11.69Q299.83 11.69 298.15 12.47Q296.47 13.25 295.52 14.59Q294.58 15.94 294.55 17.69L294.55 17.69Q294.53 19.46 295.50 20.82Q296.47 22.18 298.18 22.94Q299.88 23.71 301.99 23.71ZM317.66 24L317.14 24L317.14 11.40L317.62 11.40L317.64 14.95L317.40 15.10Q317.71 13.92 318.41 13.04Q319.10 12.17 320.15 11.66Q321.19 11.16 322.56 11.16L322.56 11.16Q323.35 11.16 324.10 11.30Q324.84 11.45 325.34 11.74L325.34 11.74L325.13 12.24Q324.58 11.95 323.86 11.82Q323.14 11.69 322.56 11.69L322.56 11.69Q321.36 11.69 320.45 12.12Q319.54 12.55 318.91 13.21Q318.29 13.87 317.98 14.64Q317.66 15.41 317.66 16.13L317.66 16.13L317.66 24ZM331.94 24L331.42 24L331.42 11.40L331.90 11.40L331.94 15.14L331.58 15.02Q332.09 14.11 332.70 13.38Q333.31 12.65 334.04 12.16Q334.78 11.66 335.64 11.41Q336.50 11.16 337.44 11.16L337.44 11.16Q338.83 11.16 339.92 11.57Q341.02 11.98 341.76 12.83Q342.50 13.68 342.94 15.05L342.94 15.05L342.77 15.07L342.67 14.88Q343.03 14.06 343.60 13.38Q344.16 12.70 344.90 12.20Q345.65 11.71 346.54 11.44Q347.42 11.16 348.43 11.16L348.43 11.16Q350.21 11.16 351.46 11.83Q352.70 12.50 353.36 13.67Q354.02 14.83 354.02 16.32L354.02 16.32L354.02 24L353.50 24L353.50 16.46Q353.50 14.98 352.86 13.91Q352.22 12.84 351.10 12.26Q349.97 11.69 348.50 11.69L348.50 11.69Q347.40 11.69 346.40 12.08Q345.41 12.48 344.65 13.12Q343.90 13.75 343.48 14.45Q343.06 15.14 343.06 15.77L343.06 15.77L343.06 24L342.53 24L342.53 16.46Q342.53 14.98 341.89 13.90Q341.26 12.82 340.14 12.25Q339.02 11.69 337.54 11.69L337.54 11.69Q336.34 11.69 335.32 12.13Q334.30 12.58 333.53 13.21Q332.76 13.85 332.35 14.51Q331.94 15.17 331.94 15.60L331.94 15.60L331.94 24ZM368.14 24.24L368.14 24.24Q365.76 24.24 364.07 23.44Q362.38 22.63 361.49 21.19Q360.60 19.75 360.60 17.83L360.60 17.83Q360.60 15.94 361.56 14.42Q362.52 12.91 364.20 12.04Q365.88 11.16 367.99 11.16L367.99 11.16Q369.46 11.16 370.67 11.59Q371.88 12.02 372.79 12.76Q373.70 13.49 374.23 14.38Q374.76 15.26 374.83 16.15L374.83 16.15L374.59 16.15L374.64 11.40L375.12 11.40L375.12 24L374.59 24L374.59 19.49L374.90 19.13Q374.78 20.23 374.20 21.16Q373.61 22.08 372.70 22.78Q371.78 23.47 370.61 23.86Q369.43 24.24 368.14 24.24ZM368.06 23.71L368.06 23.71Q369.96 23.71 371.44 22.94Q372.91 22.18 373.76 20.84Q374.62 19.51 374.62 17.78L374.62 17.78Q374.62 16.08 373.78 14.71Q372.94 13.34 371.44 12.52Q369.94 11.69 368.02 11.69L368.02 11.69Q366.00 11.69 364.44 12.52Q362.88 13.34 362.00 14.72Q361.13 16.10 361.13 17.83L361.13 17.83Q361.13 19.54 361.96 20.87Q362.78 22.20 364.33 22.96Q365.88 23.71 368.06 23.71ZM384.22 24L383.69 24L383.69 6.24L384.22 6.24L384.22 24Z"/></svg>