<svg xmlns="http://www.w3.org/2000/svg" xmlns:xlink="http://www.w3.org/1999/xlink" width="283.65600000000006" height="32.544000000000004"><path fill="black" d="M4.34 23.06L4.34 23.06L4.34 14.42L6.12 14.42Q7.56 14.42 8.60 14.89Q9.65 15.36 10.21 16.30Q10.78 17.23 10.78 18.65L10.78 18.65Q10.78 20.02 10.45 20.88Q10.13 21.74 9.53 22.22Q8.93 22.70 8.08 22.88Q7.22 23.06 6.12 23.06L6.12 23.06Q5.95 23.06 5.54 23.06Q5.14 23.06 4.34 23.06ZM13.85 18.67L13.85 18.67Q13.85 16.42 12.79 14.93Q11.74 13.44 9.80 12.68Q7.87 11.93 5.28 11.93L5.28 11.93Q4.90 11.93 4.06 11.93Q3.22 11.93 1.49 11.93L1.49 11.93L1.49 25.44Q3.12 25.44 4.00 25.44Q4.87 25.44 5.28 25.44L5.28 25.44Q7.87 25.44 9.80 24.86Q11.74 24.29 12.79 22.81Q13.85 21.34 13.85 18.67ZM19.01 25.68L19.01 25.68Q17.66 25.68 16.85 25.06Q16.03 24.43 15.67 23.30Q15.31 22.18 15.31 20.64L15.31 20.64Q15.31 19.10 15.68 17.95Q16.06 16.80 16.86 16.16Q17.66 15.53 19.01 15.53L19.01 15.53Q19.92 15.53 20.52 15.78Q21.12 16.03 21.47 16.39Q21.82 16.75 21.98 17.05Q22.15 17.35 22.20 17.42L22.20 17.42L22.25 17.42L22.25 15.55L25.22 15.55L25.22 25.44L22.70 25.44L22.25 23.95L22.20 23.95Q22.18 24.05 22.00 24.32Q21.82 24.60 21.46 24.91Q21.10 25.22 20.50 25.45Q19.90 25.68 19.01 25.68ZM20.21 23.26L20.21 23.26Q21.07 23.26 21.50 22.91Q21.94 22.56 22.08 21.96Q22.22 21.36 22.22 20.66L22.22 20.66Q22.22 19.94 22.08 19.34Q21.94 18.74 21.50 18.41Q21.07 18.07 20.21 18.07L20.21 18.07Q19.34 18.07 18.90 18.43Q18.46 18.79 18.31 19.38Q18.17 19.97 18.17 20.66L18.17 20.66Q18.17 21.36 18.31 21.95Q18.46 22.54 18.90 22.90Q19.34 23.26 20.21 23.26ZM29.81 25.44L26.90 25.44L26.90 15.55L29.64 15.55L29.83 18.43L29.81 20.57L29.81 25.44ZM29.81 21.34L29.81 21.34L29.74 19.13Q29.74 18.65 29.92 18.04Q30.10 17.42 30.52 16.86Q30.94 16.30 31.69 15.92Q32.45 15.55 33.55 15.55L33.55 15.55L33.84 15.55L33.84 18.77L33.53 18.77Q32.57 18.77 31.86 18.88Q31.15 18.98 30.71 19.27Q30.26 19.56 30.04 20.06Q29.81 20.57 29.81 21.34ZM38.35 11.93L38.35 25.44L35.45 25.44L35.45 11.93L38.35 11.93ZM38.52 20.33L40.63 18.29L45.60 25.44L42.14 25.44L38.52 20.33ZM45.50 15.48L38.30 23.09L38.30 19.90L42 15.48L45.50 15.48ZM51.10 25.68L51.10 25.68Q49.34 25.68 48.25 24.96Q47.16 24.24 46.66 23.09Q46.15 21.94 46.10 20.69L46.10 20.69Q46.08 19.13 46.68 17.95Q47.28 16.78 48.40 16.13Q49.51 15.48 51.00 15.48L51.00 15.48Q52.37 15.48 53.45 16.06Q54.53 16.63 55.15 17.70Q55.78 18.77 55.80 20.23L55.80 20.23Q55.80 20.26 55.80 20.50Q55.80 20.74 55.80 20.86L55.80 20.86L48.86 20.86Q48.86 22.08 49.45 22.68Q50.04 23.28 51.02 23.28L51.02 23.28Q51.84 23.28 52.36 22.90Q52.87 22.51 52.97 21.89L52.97 21.89L55.78 21.89Q55.68 22.92 55.13 23.80Q54.58 24.67 53.57 25.18Q52.56 25.68 51.10 25.68ZM48.91 19.63L48.91 19.63L52.90 19.63Q52.90 19.54 52.85 19.25Q52.80 18.96 52.61 18.64Q52.42 18.31 52.02 18.07Q51.62 17.83 50.93 17.83L50.93 17.83Q50.26 17.83 49.85 18.05Q49.44 18.26 49.25 18.59Q49.06 18.91 48.98 19.21Q48.91 19.51 48.91 19.63ZM60.58 25.44L57.67 25.44L57.67 15.55L60.41 15.55L60.60 18.43L60.58 20.57L60.58 25.44ZM60.58 21.34L60.58 21.34L60.50 19.13Q60.50 18.65 60.68 18.04Q60.86 17.42 61.28 16.86Q61.70 16.30 62.46 15.92Q63.22 15.55 64.32 15.55L64.32 15.55L64.61 15.55L64.61 18.77L64.30 18.77Q63.34 18.77 62.63 18.88Q61.92 18.98 61.48 19.27Q61.03 19.56 60.80 20.06Q60.58 20.57 60.58 21.34ZM77.28 25.70L77.28 25.70Q75.31 25.70 73.81 24.91Q72.31 24.12 71.52 22.57Q70.73 21.02 70.75 18.77L70.75 18.77Q70.82 16.49 71.72 14.90Q72.62 13.32 74.18 12.50Q75.74 11.69 77.74 11.69L77.74 11.69Q80.59 11.69 82.10 12.89Q83.62 14.09 84.12 16.37L84.12 16.37L81.34 16.80Q81.12 15.86 80.56 15.35Q79.99 14.83 79.25 14.62Q78.50 14.40 77.74 14.40L77.74 14.40Q75.58 14.40 74.58 15.56Q73.58 16.73 73.61 18.55L73.61 18.55Q73.61 20.66 74.77 21.77Q75.94 22.87 78.10 22.87L78.10 22.87Q78.86 22.87 79.60 22.67Q80.33 22.46 80.90 21.98Q81.48 21.50 81.72 20.69L81.72 20.69L79.15 20.69L79.15 18.60L84.41 18.60L84.41 25.44L82.46 25.44L81.82 23.40L81.77 23.40Q81.58 23.83 81.19 24.24Q80.81 24.65 80.24 24.97Q79.68 25.30 78.94 25.50Q78.19 25.70 77.28 25.70ZM89.23 25.44L86.33 25.44L86.33 15.55L89.06 15.55L89.26 18.43L89.23 20.57L89.23 25.44ZM89.23 21.34L89.23 21.34L89.16 19.13Q89.16 18.65 89.34 18.04Q89.52 17.42 89.94 16.86Q90.36 16.30 91.12 15.92Q91.87 15.55 92.98 15.55L92.98 15.55L93.26 15.55L93.26 18.77L92.95 18.77Q91.99 18.77 91.28 18.88Q90.58 18.98 90.13 19.27Q89.69 19.56 89.46 20.06Q89.23 20.57 89.23 21.34ZM99.55 25.68L99.55 25.68Q97.85 25.68 96.71 25.02Q95.57 24.36 95.00 23.22Q94.44 22.08 94.44 20.62L94.44 20.62Q94.44 19.13 95.00 17.99Q95.57 16.85 96.71 16.19Q97.85 15.53 99.55 15.53L99.55 15.53Q102.05 15.53 103.34 16.92Q104.64 18.31 104.64 20.62L104.64 20.62Q104.64 22.06 104.09 23.20Q103.54 24.34 102.41 25.01Q101.28 25.68 99.55 25.68ZM99.55 23.26L99.55 23.26Q100.54 23.26 101.03 22.85Q101.52 22.44 101.69 21.80Q101.86 21.17 101.86 20.52L101.86 20.52Q101.86 19.85 101.69 19.21Q101.52 18.58 101.03 18.16Q100.54 17.74 99.55 17.74L99.55 17.74Q98.57 17.74 98.06 18.16Q97.56 18.58 97.39 19.21Q97.22 19.85 97.22 20.52L97.22 20.52Q97.22 21.17 97.39 21.80Q97.56 22.44 98.06 22.85Q98.57 23.26 99.55 23.26ZM112.18 25.44L109.90 25.44Q108.60 25.44 107.88 24.82Q107.16 24.19 107.16 22.66L107.16 22.66L107.16 17.26L109.87 17.26L109.87 23.21L112.18 23.21L112.18 25.44ZM112.10 17.54L105.74 17.54L105.74 15.55Q106.20 15.55 106.55 15.47Q106.90 15.38 107.12 15.14Q107.35 14.90 107.46 14.39Q107.57 13.87 107.57 13.03L107.57 13.03L109.87 13.03L109.87 15.55L112.10 15.55L112.10 17.54ZM118.56 25.68L118.56 25.68Q116.81 25.68 115.72 24.96Q114.62 24.24 114.12 23.09Q113.62 21.94 113.57 20.69L113.57 20.69Q113.54 19.13 114.14 17.95Q114.74 16.78 115.86 16.13Q116.98 15.48 118.46 15.48L118.46 15.48Q119.83 15.48 120.91 16.06Q121.99 16.63 122.62 17.70Q123.24 18.77 123.26 20.23L123.26 20.23Q123.26 20.26 123.26 20.50Q123.26 20.74 123.26 20.86L123.26 20.86L116.33 20.86Q116.33 22.08 116.92 22.68Q117.50 23.28 118.49 23.28L118.49 23.28Q119.30 23.28 119.82 22.90Q120.34 22.51 120.43 21.89L120.43 21.89L123.24 21.89Q123.14 22.92 122.59 23.80Q122.04 24.67 121.03 25.18Q120.02 25.68 118.56 25.68ZM116.38 19.63L116.38 19.63L120.36 19.63Q120.36 19.54 120.31 19.25Q120.26 18.96 120.07 18.64Q119.88 18.31 119.48 18.07Q119.09 17.83 118.39 17.83L118.39 17.83Q117.72 17.83 117.31 18.05Q116.90 18.26 116.71 18.59Q116.52 18.91 116.45 19.21Q116.38 19.51 116.38 19.63ZM129.43 25.68L129.43 25.68Q129.10 25.68 128.52 25.60Q127.94 25.51 127.31 25.28Q126.67 25.06 126.10 24.64Q125.52 24.22 125.17 23.57Q124.82 22.92 124.82 21.98L124.82 21.98L127.49 21.98Q127.49 22.01 127.51 22.26Q127.54 22.51 127.69 22.81Q127.85 23.11 128.23 23.35Q128.62 23.59 129.36 23.59L129.36 23.59Q129.94 23.59 130.27 23.44Q130.61 23.28 130.75 23.06Q130.90 22.85 130.87 22.66L130.87 22.66Q130.87 22.20 130.45 21.95Q130.03 21.70 129.36 21.50Q128.69 21.31 127.93 21.10Q127.18 20.88 126.50 20.53Q125.83 20.18 125.41 19.60Q124.99 19.01 125.02 18.05L125.02 18.05Q125.02 16.61 126.13 15.91Q127.25 15.22 128.98 15.22L128.98 15.22Q129.96 15.22 130.80 15.44Q131.64 15.67 132.29 16.13Q132.94 16.58 133.30 17.30Q133.66 18.02 133.68 18.98L133.68 18.98L131.04 18.98Q131.06 18.50 130.88 18.19Q130.70 17.88 130.42 17.71Q130.13 17.54 129.78 17.46Q129.43 17.38 129.07 17.38L129.07 17.38Q128.30 17.38 127.98 17.65Q127.66 17.93 127.66 18.26L127.66 18.26Q127.66 18.77 128.09 19.04Q128.52 19.32 129.19 19.51Q129.86 19.70 130.64 19.92Q131.42 20.14 132.10 20.47Q132.77 20.81 133.20 21.37Q133.63 21.94 133.63 22.85L133.63 22.85Q133.63 23.78 133.12 24.41Q132.60 25.03 131.66 25.36Q130.73 25.68 129.43 25.68ZM139.03 25.68L139.03 25.68Q137.59 25.68 136.69 25.08Q135.79 24.48 135.40 23.35Q135 22.22 135 20.69L135 20.69Q135 19.13 135.40 17.96Q135.79 16.80 136.69 16.18Q137.59 15.55 139.06 15.55L139.06 15.55Q139.97 15.55 140.57 15.84Q141.17 16.13 141.52 16.51Q141.86 16.90 142.00 17.20Q142.13 17.50 142.13 17.52L142.13 17.52L142.18 17.52L142.66 15.55L145.18 15.55L145.18 30.02L142.20 30.02L142.20 23.88L142.15 23.88Q142.13 23.93 141.97 24.20Q141.82 24.48 141.46 24.82Q141.10 25.15 140.51 25.42Q139.92 25.68 139.03 25.68ZM139.97 23.28L139.97 23.28Q140.86 23.28 141.34 22.92Q141.82 22.56 142.00 21.97Q142.18 21.38 142.18 20.66L142.18 20.66Q142.18 19.97 142.00 19.37Q141.82 18.77 141.35 18.43Q140.88 18.10 139.99 18.10L139.99 18.10Q139.08 18.10 138.60 18.46Q138.12 18.82 137.95 19.40Q137.78 19.99 137.78 20.66L137.78 20.66Q137.78 21.34 137.94 21.92Q138.10 22.51 138.58 22.90Q139.06 23.28 139.97 23.28ZM150.55 25.68L150.55 25.68Q149.50 25.68 148.84 25.32Q148.18 24.96 147.82 24.38Q147.46 23.81 147.31 23.11Q147.17 22.42 147.13 21.74Q147.10 21.07 147.10 20.54L147.10 20.54L147.10 15.55L149.93 15.55L149.93 20.57Q149.93 21.19 150.05 21.78Q150.17 22.37 150.56 22.75Q150.96 23.14 151.85 23.14L151.85 23.14Q152.71 23.14 153.12 22.75Q153.53 22.37 153.65 21.78Q153.77 21.19 153.79 20.62L153.79 20.62L153.79 15.55L156.77 15.55L156.77 25.44L154.27 25.44L153.79 23.71L153.74 23.71Q153.72 23.78 153.56 24.10Q153.41 24.41 153.05 24.77Q152.69 25.13 152.08 25.40Q151.46 25.68 150.55 25.68ZM163.15 25.68L163.15 25.68Q161.40 25.68 160.31 24.96Q159.22 24.24 158.71 23.09Q158.21 21.94 158.16 20.69L158.16 20.69Q158.14 19.13 158.74 17.95Q159.34 16.78 160.45 16.13Q161.57 15.48 163.06 15.48L163.06 15.48Q164.42 15.48 165.50 16.06Q166.58 16.63 167.21 17.70Q167.83 18.77 167.86 20.23L167.86 20.23Q167.86 20.26 167.86 20.50Q167.86 20.74 167.86 20.86L167.86 20.86L160.92 20.86Q160.92 22.08 161.51 22.68Q162.10 23.28 163.08 23.28L163.08 23.28Q163.90 23.28 164.41 22.90Q164.93 22.51 165.02 21.89L165.02 21.89L167.83 21.89Q167.74 22.92 167.18 23.80Q166.63 24.67 165.62 25.18Q164.62 25.68 163.15 25.68ZM160.97 19.63L160.97 19.63L164.95 19.63Q164.95 19.54 164.90 19.25Q164.86 18.96 164.66 18.64Q164.47 18.31 164.08 18.07Q163.68 17.83 162.98 17.83L162.98 17.83Q162.31 17.83 161.90 18.05Q161.50 18.26 161.30 18.59Q161.11 18.91 161.04 19.21Q160.97 19.51 160.97 19.63ZM180.62 25.70L180.62 25.70Q178.97 25.70 177.65 25.24Q176.33 24.77 175.56 23.88Q174.79 22.99 174.79 21.72L174.79 21.72Q174.79 20.38 175.70 19.43Q176.62 18.48 178.25 18.29L178.25 18.29Q177.38 18.14 176.84 17.78Q176.30 17.42 176.03 16.97Q175.75 16.51 175.66 16.07Q175.56 15.62 175.56 15.31L175.56 15.31Q175.56 14.21 176.20 13.40Q176.83 12.60 177.98 12.14Q179.14 11.69 180.62 11.69L180.62 11.69Q182.21 11.69 183.36 12.14Q184.51 12.60 185.14 13.42Q185.76 14.23 185.76 15.31L185.76 15.31Q185.76 15.62 185.66 16.07Q185.57 16.51 185.29 16.97Q185.02 17.42 184.48 17.78Q183.94 18.14 183.07 18.29L183.07 18.29Q184.73 18.50 185.64 19.43Q186.55 20.35 186.55 21.72L186.55 21.72Q186.55 23.02 185.77 23.90Q184.99 24.79 183.66 25.25Q182.33 25.70 180.62 25.70ZM180.65 23.47L180.65 23.47Q182.06 23.47 182.89 22.86Q183.72 22.25 183.72 21.24L183.72 21.24Q183.72 20.06 182.89 19.51Q182.06 18.96 180.65 18.96L180.65 18.96Q179.26 18.96 178.43 19.51Q177.60 20.06 177.60 21.24L177.60 21.24Q177.60 22.25 178.43 22.86Q179.26 23.47 180.65 23.47ZM180.62 17.62L180.62 17.62Q181.82 17.62 182.51 17.16Q183.19 16.70 183.19 15.86L183.19 15.86Q183.19 14.86 182.48 14.38Q181.78 13.90 180.62 13.90L180.62 13.90Q179.50 13.90 178.81 14.38Q178.13 14.86 178.13 15.86L178.13 15.86Q178.13 16.44 178.44 16.82Q178.75 17.21 179.33 17.41Q179.90 17.62 180.62 17.62ZM194.26 25.78L194.26 25.78Q191.21 25.78 189.72 23.87Q188.23 21.96 188.23 18.72L188.23 18.72Q188.23 16.58 188.86 15.01Q189.48 13.44 190.82 12.56Q192.17 11.69 194.26 11.69L194.26 11.69Q196.32 11.69 197.65 12.55Q198.98 13.42 199.63 15.00Q200.28 16.58 200.28 18.72L200.28 18.72Q200.28 20.81 199.63 22.40Q198.98 24 197.65 24.89Q196.32 25.78 194.26 25.78ZM194.23 23.38L194.23 23.38Q195.96 23.38 196.78 22.21Q197.59 21.05 197.59 18.72L197.59 18.72Q197.59 17.16 197.24 16.14Q196.90 15.12 196.15 14.60Q195.41 14.09 194.23 14.09L194.23 14.09Q192.55 14.09 191.74 15.19Q190.92 16.30 190.92 18.72L190.92 18.72Q190.92 20.26 191.27 21.30Q191.62 22.34 192.35 22.86Q193.08 23.38 194.23 23.38ZM207.70 25.78L207.70 25.78Q204.65 25.78 203.16 23.87Q201.67 21.96 201.67 18.72L201.67 18.72Q201.67 16.58 202.30 15.01Q202.92 13.44 204.26 12.56Q205.61 11.69 207.70 11.69L207.70 11.69Q209.76 11.69 211.09 12.55Q212.42 13.42 213.07 15.00Q213.72 16.58 213.72 18.72L213.72 18.72Q213.72 20.81 213.07 22.40Q212.42 24 211.09 24.89Q209.76 25.78 207.70 25.78ZM207.67 23.38L207.67 23.38Q209.40 23.38 210.22 22.21Q211.03 21.05 211.03 18.72L211.03 18.72Q211.03 17.16 210.68 16.14Q210.34 15.12 209.59 14.60Q208.85 14.09 207.67 14.09L207.67 14.09Q205.99 14.09 205.18 15.19Q204.36 16.30 204.36 18.72L204.36 18.72Q204.36 20.26 204.71 21.30Q205.06 22.34 205.79 22.86Q206.52 23.38 207.67 23.38ZM223.27 25.44L220.30 25.44L220.30 15.55L222.79 15.55L223.27 17.52L223.32 17.52Q223.34 17.50 223.49 17.18Q223.63 16.87 223.98 16.50Q224.33 16.13 224.95 15.84Q225.58 15.55 226.54 15.55L226.54 15.55Q227.59 15.55 228.26 15.91Q228.94 16.27 229.30 16.86Q229.66 17.45 229.79 18.14Q229.92 18.84 229.94 19.50Q229.97 20.16 229.97 20.66L229.97 20.66L229.97 25.44L227.16 25.44L227.16 20.64Q227.16 19.99 227.04 19.42Q226.92 18.84 226.52 18.47Q226.13 18.10 225.24 18.10L225.24 18.10Q224.38 18.10 223.96 18.48Q223.54 18.86 223.40 19.45Q223.27 20.04 223.27 20.71L223.27 20.71L223.27 25.44ZM236.50 25.68L236.50 25.68Q234.79 25.68 233.65 25.02Q232.51 24.36 231.95 23.22Q231.38 22.08 231.38 20.62L231.38 20.62Q231.38 19.13 231.95 17.99Q232.51 16.85 233.65 16.19Q234.79 15.53 236.50 15.53L236.50 15.53Q238.99 15.53 240.29 16.92Q241.58 18.31 241.58 20.62L241.58 20.62Q241.58 22.06 241.03 23.20Q240.48 24.34 239.35 25.01Q238.22 25.68 236.50 25.68ZM236.50 23.26L236.50 23.26Q237.48 23.26 237.97 22.85Q238.46 22.44 238.63 21.80Q238.80 21.17 238.80 20.52L238.80 20.52Q238.80 19.85 238.63 19.21Q238.46 18.58 237.97 18.16Q237.48 17.74 236.50 17.74L236.50 17.74Q235.51 17.74 235.01 18.16Q234.50 18.58 234.34 19.21Q234.17 19.85 234.17 20.52L234.17 20.52Q234.17 21.17 234.34 21.80Q234.50 22.44 235.01 22.85Q235.51 23.26 236.50 23.26ZM246.17 25.44L243.26 25.44L243.26 15.55L246 15.55L246.19 18.43L246.17 20.57L246.17 25.44ZM246.17 21.34L246.17 21.34L246.10 19.13Q246.10 18.65 246.28 18.04Q246.46 17.42 246.88 16.86Q247.30 16.30 248.05 15.92Q248.81 15.55 249.91 15.55L249.91 15.55L250.20 15.55L250.20 18.77L249.89 18.77Q248.93 18.77 248.22 18.88Q247.51 18.98 247.07 19.27Q246.62 19.56 246.40 20.06Q246.17 20.57 246.17 21.34ZM254.57 25.44L251.76 25.44L251.76 15.55L254.57 15.55L254.57 17.52L254.62 17.52Q254.64 17.47 254.80 17.17Q254.95 16.87 255.28 16.49Q255.60 16.10 256.14 15.83Q256.68 15.55 257.47 15.55L257.47 15.55Q258.24 15.55 258.74 15.83Q259.25 16.10 259.56 16.55Q259.87 16.99 260.04 17.52L260.04 17.52L260.09 17.52Q260.09 17.45 260.27 17.15Q260.45 16.85 260.80 16.48Q261.14 16.10 261.72 15.83Q262.30 15.55 263.11 15.55L263.11 15.55Q264.05 15.55 264.66 15.94Q265.27 16.32 265.64 16.96Q266.02 17.59 266.20 18.29Q266.38 18.98 266.44 19.62Q266.50 20.26 266.50 20.66L266.50 20.66L266.50 25.44L263.69 25.44L263.69 20.64Q263.69 20.28 263.65 19.85Q263.62 19.42 263.48 19.01Q263.35 18.60 263.04 18.35Q262.73 18.10 262.15 18.10L262.15 18.10Q261.46 18.10 261.10 18.49Q260.74 18.89 260.64 19.49Q260.54 20.09 260.54 20.71L260.54 20.71L260.54 25.44L257.71 25.44L257.71 20.64Q257.71 20.28 257.69 19.85Q257.66 19.42 257.52 19.01Q257.38 18.60 257.06 18.35Q256.75 18.10 256.18 18.10L256.18 18.10Q255.48 18.10 255.13 18.49Q254.78 18.89 254.68 19.49Q254.57 20.09 254.57 20.71L254.57 20.71L254.57 25.44ZM271.61 25.68L271.61 25.68Q270.26 25.68 269.45 25.06Q268.63 24.43 268.27 23.30Q267.91 22.18 267.91 20.64L267.91 20.64Q267.91 19.10 268.28 17.95Q268.66 16.80 269.46 16.16Q270.26 15.53 271.61 15.53L271.61 15.53Q272.52 15.53 273.12 15.78Q273.72 16.03 274.07 16.39Q274.42 16.75 274.58 17.05Q274.75 17.35 274.80 17.42L274.80 17.42L274.85 17.42L274.85 15.55L277.82 15.55L277.82 25.44L275.30 25.44L274.85 23.95L274.80 23.95Q274.78 24.05 274.60 24.32Q274.42 24.60 274.06 24.91Q273.70 25.22 273.10 25.45Q272.50 25.68 271.61 25.68ZM272.81 23.26L272.81 23.26Q273.67 23.26 274.10 22.91Q274.54 22.56 274.68 21.96Q274.82 21.36 274.82 20.66L274.82 20.66Q274.82 19.94 274.68 19.34Q274.54 18.74 274.10 18.41Q273.67 18.07 272.81 18.07L272.81 18.07Q271.94 18.07 271.50 18.43Q271.06 18.79 270.91 19.38Q270.77 19.97 270.77 20.66L270.77 20.66Q270.77 21.36 270.91 21.95Q271.06 22.54 271.50 22.90Q271.94 23.26 272.81 23.26ZM282.53 25.44L279.72 25.44L279.72 11.93L282.53 11.93L282.53 25.44Z"/></svg>