<svg xmlns="http://www.w3.org/2000/svg" xmlns:xlink="http://www.w3.org/1999/xlink" width="330.6480000000001" height="39.6"><path fill="black" d="M4.06 30.94L4.06 30.94Q3.19 30.94 3.19 30.36L3.19 30.36L3.19 10.15Q3.19 9.86 3.42 9.73Q3.65 9.60 4.08 9.60L4.08 9.60L8.64 9.60Q10.99 9.60 12.59 10.13Q14.18 10.66 15 11.81Q15.82 12.96 15.82 14.86L15.82 14.86Q15.82 16.58 15.17 17.83Q14.52 19.08 13.43 19.90Q12.34 20.71 10.97 21.19Q9.60 21.67 8.16 21.86L8.16 21.86Q7.27 21.98 6.44 22.04Q5.62 22.10 4.92 22.13L4.92 22.13L4.92 30.36Q4.92 30.65 4.70 30.79Q4.49 30.94 4.06 30.94ZM4.92 11.16L4.92 20.57Q5.40 20.57 5.94 20.54Q6.48 20.52 7.04 20.46Q7.61 20.40 8.16 20.33L8.16 20.33Q9.74 20.09 11.09 19.48Q12.43 18.86 13.24 17.74Q14.04 16.61 14.04 14.88L14.04 14.88Q14.04 13.54 13.44 12.72Q12.84 11.90 11.63 11.53Q10.42 11.16 8.64 11.16L8.64 11.16L4.92 11.16ZM14.62 31.01L14.62 31.01Q14.23 31.01 14.06 30.78Q13.90 30.55 13.90 30.26Q13.90 29.98 14.06 29.75Q14.23 29.52 14.62 29.52L14.62 29.52Q15.26 29.52 15.95 29.16Q16.63 28.80 17.33 28.14Q18.02 27.48 18.71 26.57Q19.39 25.66 20.05 24.56Q20.71 23.47 21.30 22.27Q21.89 21.07 22.36 19.80Q22.82 18.53 23.17 17.27Q23.52 16.01 23.71 14.78Q23.90 13.56 23.90 12.50L23.90 12.50Q23.90 12.19 24.17 12.04Q24.43 11.88 24.76 11.88Q25.08 11.88 25.34 12.04Q25.61 12.19 25.61 12.50L25.61 12.50Q25.61 13.51 25.39 14.74Q25.18 15.96 24.77 17.29Q24.36 18.62 23.81 20.00Q23.26 21.38 22.58 22.72Q21.91 24.05 21.16 25.28Q20.40 26.52 19.57 27.56Q18.74 28.61 17.90 29.38Q17.06 30.14 16.24 30.58Q15.41 31.01 14.62 31.01ZM21.98 31.01L21.98 31.01Q21.50 31.01 21.11 30.85Q20.71 30.70 20.46 30.40Q20.21 30.10 20.08 29.63Q19.94 29.16 19.94 28.58L19.94 28.58L19.94 14.11Q19.94 11.59 20.71 10.37Q21.48 9.14 22.99 9.14L22.99 9.14Q23.88 9.14 24.46 9.58Q25.03 10.01 25.32 10.76Q25.61 11.52 25.61 12.50L25.61 12.50Q25.61 12.86 25.34 13.06Q25.08 13.25 24.76 13.25Q24.43 13.25 24.17 13.06Q23.90 12.86 23.90 12.50L23.90 12.50Q23.90 11.95 23.83 11.54Q23.76 11.14 23.53 10.92Q23.30 10.70 22.94 10.70L22.94 10.70Q22.49 10.70 22.19 11.06Q21.89 11.42 21.76 12.23Q21.62 13.03 21.62 14.38L21.62 14.38L21.62 28.25Q21.62 28.68 21.68 28.96Q21.74 29.23 21.89 29.38Q22.03 29.52 22.27 29.52L22.27 29.52Q22.51 29.52 22.72 29.39Q22.92 29.26 23.14 28.97Q23.35 28.68 23.57 28.25L23.57 28.25Q23.66 28.03 23.86 28.02Q24.05 28.01 24.29 28.13L24.29 28.13Q24.58 28.25 24.65 28.43Q24.72 28.61 24.65 28.80L24.65 28.80Q24.36 29.50 23.95 29.99Q23.54 30.48 23.05 30.74Q22.56 31.01 21.98 31.01ZM31.85 31.01L31.85 31.01Q30.62 31.01 29.71 30.32Q28.80 29.64 28.31 28.33Q27.82 27.02 27.82 25.18L27.82 25.18Q27.82 23.93 28.03 22.85Q28.25 21.77 28.69 20.89Q29.14 20.02 29.81 19.40Q30.48 18.79 31.34 18.47Q32.21 18.14 33.26 18.14L33.26 18.14Q34.10 18.14 34.84 18.35Q35.57 18.55 36.34 18.98L36.34 18.98L36.34 18.77Q36.34 18.50 36.54 18.37Q36.74 18.24 37.18 18.24L37.18 18.24Q37.61 18.24 37.81 18.37Q38.02 18.50 38.02 18.77L38.02 18.77L38.02 28.22Q38.02 28.66 38.08 28.94Q38.14 29.23 38.29 29.38Q38.45 29.52 38.69 29.52L38.69 29.52Q38.93 29.52 39.13 29.39Q39.34 29.26 39.53 28.97Q39.72 28.68 39.96 28.25L39.96 28.25Q40.06 28.03 40.25 28.01Q40.44 27.98 40.68 28.13L40.68 28.13Q40.94 28.25 41.04 28.44Q41.14 28.63 41.04 28.85L41.04 28.85Q40.80 29.47 40.40 29.95Q40.01 30.43 39.52 30.72Q39.02 31.01 38.45 31.01L38.45 31.01Q37.92 31.01 37.55 30.85Q37.18 30.70 36.90 30.40Q36.62 30.10 36.49 29.66Q36.36 29.23 36.36 28.68L36.36 28.68Q36.36 28.20 36.35 27.70Q36.34 27.19 36.34 26.66L36.34 26.66Q35.86 28.18 35.15 29.14Q34.44 30.10 33.61 30.55Q32.78 31.01 31.85 31.01ZM29.54 25.13L29.54 25.13Q29.54 26.33 29.80 27.32Q30.05 28.32 30.64 28.88Q31.22 29.45 32.11 29.45L32.11 29.45Q33.02 29.45 33.85 28.69Q34.68 27.94 35.33 26.44Q35.98 24.94 36.34 22.70L36.34 22.70L36.34 20.52Q35.52 20.02 34.81 19.84Q34.10 19.66 33.46 19.66L33.46 19.66Q32.71 19.66 32.10 19.90Q31.49 20.14 31.01 20.58Q30.53 21.02 30.20 21.68Q29.88 22.34 29.71 23.20Q29.54 24.05 29.54 25.13ZM52.92 31.66L52.92 29.98Q53.33 29.69 53.71 29.41Q54.10 29.14 54.47 28.91Q54.84 28.68 55.16 28.48Q55.49 28.27 55.75 28.10L55.75 28.10Q56.09 27.91 56.32 28.01Q56.54 28.10 56.64 28.36Q56.74 28.61 56.69 28.88Q56.64 29.16 56.35 29.33L56.35 29.33Q55.97 29.54 55.54 29.83Q55.10 30.12 54.67 30.42Q54.24 30.72 53.81 31.03Q53.38 31.34 52.92 31.66L52.92 31.66ZM49.06 40.06L49.06 40.06Q48.19 40.06 47.52 39.72Q46.85 39.38 46.48 38.76Q46.10 38.14 46.10 37.34L46.10 37.34Q46.10 36.70 46.32 36.07Q46.54 35.45 46.99 34.82Q47.45 34.20 48.16 33.54Q48.86 32.88 49.85 32.16L49.85 32.16Q50.33 31.80 50.81 31.43Q51.29 31.06 51.77 30.70L51.77 30.70L51.77 26.18Q51.36 27.55 50.78 28.48Q50.21 29.40 49.56 29.95Q48.91 30.50 48.24 30.76Q47.57 31.01 46.94 31.01L46.94 31.01Q46.01 31.01 45.25 30.62Q44.50 30.24 44.05 29.35Q43.61 28.46 43.61 27L43.61 27L43.61 18.77Q43.61 18.50 43.81 18.37Q44.02 18.24 44.42 18.24L44.42 18.24Q44.86 18.24 45.07 18.37Q45.29 18.50 45.29 18.77L45.29 18.77L45.29 26.78Q45.29 27.70 45.48 28.30Q45.67 28.90 46.08 29.20Q46.49 29.50 47.16 29.50L47.16 29.50Q47.95 29.50 48.67 29.03Q49.39 28.56 49.99 27.60Q50.59 26.64 51.05 25.22Q51.50 23.81 51.77 21.96L51.77 21.96L51.77 18.77Q51.77 18.50 51.97 18.37Q52.18 18.24 52.61 18.24L52.61 18.24Q53.04 18.24 53.24 18.37Q53.45 18.50 53.45 18.77L53.45 18.77L53.45 33.94Q53.45 35.30 53.17 36.43Q52.90 37.56 52.33 38.36Q51.77 39.17 50.95 39.61Q50.14 40.06 49.06 40.06ZM49.22 38.52L49.22 38.52Q49.87 38.52 50.35 38.21Q50.83 37.90 51.14 37.28Q51.46 36.67 51.61 35.81Q51.77 34.94 51.77 33.86L51.77 33.86L51.77 32.45Q51.43 32.69 51.10 32.95Q50.76 33.22 50.40 33.48L50.40 33.48Q49.73 34.01 49.25 34.48Q48.77 34.94 48.46 35.38Q48.14 35.81 48 36.24Q47.86 36.67 47.86 37.13L47.86 37.13Q47.86 37.49 48 37.81Q48.14 38.14 48.46 38.33Q48.77 38.52 49.22 38.52ZM62.11 31.03L62.11 31.03Q61.39 31.03 60.82 30.79Q60.24 30.55 59.82 30.05Q59.40 29.54 59.17 28.79Q58.94 28.03 58.94 27.05L58.94 27.05L58.94 18.77Q58.94 18.50 59.15 18.37Q59.35 18.24 59.78 18.24L59.78 18.24Q60.24 18.24 60.44 18.37Q60.65 18.50 60.65 18.77L60.65 18.77L60.65 26.64Q60.65 27.46 60.80 28.13Q60.96 28.80 61.33 29.15Q61.70 29.50 62.35 29.50L62.35 29.50Q63.07 29.50 63.71 28.98Q64.34 28.46 64.85 27.60Q65.35 26.74 65.68 25.70Q66 24.67 66.07 23.66L66.07 23.66L66.07 18.79Q66.07 18.55 66.26 18.40Q66.46 18.24 66.91 18.24L66.91 18.24Q67.34 18.24 67.55 18.40Q67.75 18.55 67.75 18.79L67.75 18.79L67.75 25.94Q67.75 26.86 67.85 27.53Q67.94 28.20 68.18 28.64Q68.42 29.09 68.83 29.30Q69.24 29.52 69.82 29.52L69.82 29.52Q70.34 29.52 70.81 29.26Q71.28 28.99 71.68 28.54Q72.07 28.08 72.38 27.48Q72.70 26.88 72.92 26.18Q73.15 25.49 73.27 24.73Q73.39 23.98 73.39 23.23L73.39 23.23Q73.39 21.89 73.22 20.99Q73.06 20.09 72.73 19.63Q72.41 19.18 71.95 19.18L71.95 19.18Q71.64 19.18 71.48 19.36Q71.33 19.54 71.33 19.78L71.33 19.78Q71.33 20.14 71.58 20.34Q71.83 20.54 72.32 20.65Q72.82 20.76 73.42 20.76L73.42 20.76Q74.47 20.76 75.28 20.45Q76.08 20.14 76.90 19.49L76.90 19.49Q77.06 19.34 77.24 19.46Q77.42 19.58 77.57 19.81Q77.71 20.04 77.74 20.26Q77.76 20.47 77.59 20.62L77.59 20.62Q76.58 21.36 75.60 21.71Q74.62 22.06 73.32 22.06L73.32 22.06Q72.29 22.06 71.52 21.79Q70.75 21.53 70.33 21.01Q69.91 20.50 69.91 19.73L69.91 19.73Q69.91 19.15 70.19 18.74Q70.46 18.34 70.92 18.08Q71.38 17.83 71.93 17.83L71.93 17.83Q72.94 17.83 73.64 18.52Q74.35 19.20 74.71 20.40Q75.07 21.60 75.07 23.16L75.07 23.16Q75.07 24.12 74.90 25.07Q74.74 26.02 74.42 26.90Q74.11 27.79 73.64 28.55Q73.18 29.30 72.58 29.87Q71.98 30.43 71.24 30.74Q70.51 31.06 69.65 31.06L69.65 31.06Q68.66 31.06 67.93 30.68Q67.20 30.31 66.77 29.48Q66.34 28.66 66.17 27.38L66.17 27.38Q65.74 28.49 65.12 29.30Q64.51 30.12 63.76 30.58Q63 31.03 62.11 31.03ZM74.78 31.01L74.78 31.01Q74.42 31.01 74.23 30.78Q74.04 30.55 74.04 30.26Q74.04 29.98 74.22 29.75Q74.40 29.52 74.76 29.52L74.76 29.52Q75.62 29.52 76.34 29.03Q77.06 28.54 77.68 27.41Q78.29 26.28 78.85 24.38Q79.42 22.49 79.99 19.70L79.99 19.70L81.14 20.18Q80.59 23.23 79.98 25.31Q79.37 27.38 78.61 28.64Q77.86 29.90 76.92 30.46Q75.98 31.01 74.78 31.01ZM87.74 31.01L87.74 31.01Q87.22 31.01 86.83 30.84Q86.45 30.67 86.18 30.36Q85.92 30.05 85.80 29.60Q85.68 29.16 85.68 28.58L85.68 28.58Q85.68 27.94 85.74 27.04Q85.80 26.14 85.86 25.14Q85.92 24.14 85.98 23.21Q86.04 22.27 86.04 21.53L86.04 21.53Q86.04 20.62 85.79 20.33Q85.54 20.04 84.96 20.04L84.96 20.04Q84.31 20.04 83.53 20.26Q82.75 20.47 82.06 20.69Q81.36 20.90 80.88 20.90L80.88 20.90Q80.50 20.90 80.14 20.50Q79.78 20.09 79.57 19.51Q79.37 18.94 79.37 18.38L79.37 18.38Q79.37 18 79.50 17.68Q79.63 17.35 79.90 17.18Q80.16 17.02 80.57 17.02L80.57 17.02Q81.10 17.02 81.30 17.39Q81.50 17.76 81.50 18.31L81.50 18.31Q81.50 18.55 81.46 18.86Q81.41 19.18 81.36 19.39L81.36 19.39Q81.74 19.39 82.40 19.14Q83.06 18.89 83.86 18.64Q84.65 18.38 85.37 18.38L85.37 18.38Q86.14 18.38 86.65 18.66Q87.17 18.94 87.43 19.61Q87.70 20.28 87.70 21.46L87.70 21.46Q87.70 22.20 87.64 23.15Q87.58 24.10 87.52 25.08Q87.46 26.06 87.41 26.92Q87.36 27.77 87.36 28.32L87.36 28.32Q87.36 28.87 87.49 29.20Q87.62 29.52 88.01 29.52L88.01 29.52Q88.25 29.52 88.45 29.39Q88.66 29.26 88.87 28.97Q89.09 28.68 89.33 28.25L89.33 28.25Q89.42 28.03 89.60 28.02Q89.78 28.01 90.05 28.13L90.05 28.13Q90.29 28.25 90.38 28.43Q90.48 28.61 90.36 28.80L90.36 28.80Q90.10 29.50 89.69 29.99Q89.28 30.48 88.79 30.74Q88.30 31.01 87.74 31.01ZM95.16 31.01L95.16 31.01Q94.15 31.01 93.62 30.40Q93.10 29.78 93.10 28.58L93.10 28.58L93.10 18.77Q93.10 18.50 93.30 18.37Q93.50 18.24 93.91 18.24L93.91 18.24Q94.34 18.24 94.56 18.37Q94.78 18.50 94.78 18.77L94.78 18.77L94.78 28.25Q94.78 28.90 94.93 29.21Q95.09 29.52 95.47 29.52L95.47 29.52Q95.71 29.52 95.89 29.38Q96.07 29.23 96.28 28.96Q96.48 28.68 96.70 28.22L96.70 28.22Q96.79 28.03 97.00 28.02Q97.20 28.01 97.42 28.13L97.42 28.13Q97.68 28.25 97.78 28.43Q97.87 28.61 97.75 28.80L97.75 28.80Q97.49 29.50 97.08 29.98Q96.67 30.46 96.20 30.73Q95.74 31.01 95.16 31.01ZM93.86 14.38L93.86 14.38Q93.26 14.38 92.98 14.04Q92.69 13.70 92.69 13.03L92.69 13.03Q92.69 12.36 92.98 12.02Q93.26 11.69 93.86 11.69L93.86 11.69Q94.46 11.69 94.75 12.02Q95.04 12.36 95.04 13.03L95.04 13.03Q95.09 13.70 94.78 14.04Q94.46 14.38 93.86 14.38ZM96.74 31.01L96.74 31.01Q96.48 31.01 96.37 30.78Q96.26 30.55 96.28 30.26Q96.29 29.98 96.43 29.75Q96.58 29.52 96.86 29.52L96.86 29.52Q97.51 29.52 98.23 28.79Q98.95 28.06 99.71 26.80Q100.46 25.54 101.21 23.95Q101.95 22.37 102.64 20.62Q103.32 18.86 103.91 17.15Q104.50 15.43 104.94 13.93Q105.38 12.43 105.62 11.35Q105.86 10.27 105.86 9.79L105.86 9.79Q105.86 9.53 106.06 9.40Q106.25 9.26 106.68 9.26L106.68 9.26Q107.11 9.26 107.32 9.40Q107.52 9.53 107.52 9.79L107.52 9.79L107.52 28.06Q108.48 27.72 109.45 27.01Q110.42 26.30 111.49 25.22Q112.56 24.14 113.71 22.66L113.71 22.66Q113.83 22.51 114.01 22.45Q114.19 22.39 114.46 22.56L114.46 22.56Q114.74 22.75 114.77 22.94Q114.79 23.14 114.67 23.28L114.67 23.28Q113.64 24.67 112.49 25.91Q111.34 27.14 110.10 28.06Q108.86 28.97 107.52 29.38L107.52 29.38L107.52 30.41Q107.52 30.67 107.32 30.82Q107.11 30.96 106.68 30.96L106.68 30.96Q106.25 30.96 106.06 30.82Q105.86 30.67 105.86 30.41L105.86 30.41L105.86 29.59Q105.12 29.59 104.42 29.39Q103.73 29.18 103.28 28.74Q102.84 28.30 102.84 27.55L102.84 27.55Q102.84 26.90 103.31 26.48Q103.78 26.06 104.47 26.06L104.47 26.06Q104.86 26.06 105.22 26.21Q105.58 26.35 105.86 26.59L105.86 26.59L105.86 15.34Q105.43 16.92 104.84 18.68Q104.26 20.45 103.56 22.20Q102.86 23.95 102.05 25.54Q101.23 27.12 100.37 28.36Q99.50 29.59 98.59 30.30Q97.68 31.01 96.74 31.01ZM104.23 27.62L104.23 27.62Q104.23 27.86 104.44 28.02Q104.64 28.18 104.99 28.25Q105.34 28.32 105.79 28.32L105.79 28.32Q105.67 27.79 105.31 27.54Q104.95 27.29 104.66 27.29L104.66 27.29Q104.23 27.29 104.23 27.62ZM120.07 31.03L120.07 31.03Q118.90 31.03 117.96 30.55Q117.02 30.07 116.33 29.27Q115.63 28.46 115.20 27.47Q114.77 26.47 114.55 25.44Q114.34 24.41 114.34 23.47L114.34 23.47Q114.34 22.61 114.52 21.80Q114.70 21 115.04 20.34Q115.39 19.68 115.91 19.19Q116.42 18.70 117.07 18.42Q117.72 18.14 118.51 18.14L118.51 18.14Q119.50 18.14 120.17 18.54Q120.84 18.94 121.18 19.63Q121.51 20.33 121.51 21.17L121.51 21.17Q121.51 22.03 121.16 22.97Q120.82 23.90 120.20 24.84Q119.59 25.78 118.80 26.66L118.80 26.66Q117.65 27.96 116.27 28.94Q114.89 29.93 113.47 30.48Q112.06 31.03 110.81 31.01L110.81 31.01Q110.54 31.01 110.39 30.78Q110.23 30.55 110.27 30.26Q110.30 29.98 110.52 29.75Q110.74 29.52 111.14 29.52L111.14 29.52Q112.13 29.54 113.24 29.09Q114.36 28.63 115.48 27.83Q116.59 27.02 117.53 25.97L117.53 25.97Q118.20 25.20 118.70 24.40Q119.21 23.59 119.50 22.80Q119.78 22.01 119.78 21.34L119.78 21.34Q119.78 20.45 119.41 20.06Q119.04 19.68 118.32 19.68L118.32 19.68Q117.94 19.68 117.54 19.90Q117.14 20.11 116.81 20.56Q116.47 21 116.27 21.70Q116.06 22.39 116.06 23.38L116.06 23.38Q116.06 24.43 116.35 25.52Q116.64 26.62 117.19 27.50Q117.74 28.39 118.52 28.93Q119.30 29.47 120.26 29.47L120.26 29.47Q121.08 29.47 121.70 29.14Q122.33 28.80 122.83 28.28Q123.34 27.77 123.74 27.26L123.74 27.26Q123.98 26.98 124.22 27Q124.46 27.02 124.75 27.24L124.75 27.24Q125.02 27.43 125.08 27.65Q125.14 27.86 124.97 28.13L124.97 28.13Q124.42 28.99 123.64 29.64Q122.86 30.29 121.94 30.66Q121.03 31.03 120.07 31.03ZM134.66 31.01L134.66 31.01Q134.14 31.01 133.63 30.88Q133.13 30.74 132.71 30.52Q132.29 30.29 131.98 30.02L131.98 30.02Q131.74 29.83 131.70 29.56Q131.66 29.28 131.90 29.02L131.90 29.02Q132.10 28.68 132.34 28.66Q132.58 28.63 132.79 28.80L132.79 28.80Q133.27 29.09 133.70 29.26Q134.14 29.42 134.64 29.42L134.64 29.42Q135.19 29.42 135.76 29.12Q136.32 28.82 136.90 28.19Q137.47 27.55 138.05 26.51Q138.62 25.46 139.22 23.98Q139.82 22.49 140.44 20.47Q141.05 18.46 141.67 15.90Q142.30 13.34 142.97 10.18L142.97 10.18Q143.09 9.62 143.42 9.43Q143.76 9.24 144.29 9.24L144.29 9.24Q144.82 9.24 145.14 9.42Q145.46 9.60 145.56 10.18L145.56 10.18Q145.80 11.26 146.08 12.53Q146.35 13.80 146.66 15.18Q146.98 16.56 147.35 18.02Q147.72 19.49 148.16 20.99Q148.61 22.49 149.06 24L149.06 24Q149.52 25.51 149.92 26.54Q150.31 27.58 150.67 28.22Q151.03 28.87 151.39 29.16Q151.75 29.45 152.16 29.45L152.16 29.45Q152.74 29.45 153.17 28.97Q153.60 28.49 153.91 27.47Q154.22 26.45 154.46 24.84L154.46 24.84Q154.49 24.53 154.70 24.41Q154.92 24.29 155.28 24.34L155.28 24.34Q155.64 24.38 155.83 24.56Q156.02 24.74 155.98 25.03L155.98 25.03Q155.76 27.07 155.26 28.40Q154.75 29.74 153.98 30.37Q153.22 31.01 152.14 31.01L152.14 31.01Q151.42 31.01 150.84 30.72Q150.26 30.43 149.74 29.77Q149.21 29.11 148.73 28.01Q148.25 26.90 147.70 25.27L147.70 25.27Q147.60 24.91 147.49 24.58Q147.38 24.24 147.26 23.93L147.26 23.93L140.95 23.93Q140.35 25.46 139.76 26.64Q139.18 27.82 138.56 28.66Q137.95 29.50 137.32 30.01Q136.68 30.53 136.02 30.77Q135.36 31.01 134.66 31.01ZM141.48 22.42L141.48 22.42L146.81 22.42Q146.33 20.71 145.87 18.90Q145.42 17.09 145.01 15.30Q144.60 13.51 144.24 11.86L144.24 11.86Q143.54 15.12 142.86 17.74Q142.18 20.35 141.48 22.42ZM164.66 30.96L164.66 30.96Q163.80 30.96 163.80 30.38L163.80 30.38L163.80 11.16L157.39 11.16Q157.10 11.16 156.97 10.98Q156.84 10.80 156.84 10.37L156.84 10.37Q156.84 9.94 156.97 9.77Q157.10 9.60 157.39 9.60L157.39 9.60L171.96 9.60Q172.25 9.60 172.37 9.77Q172.49 9.94 172.49 10.37L172.49 10.37Q172.49 10.80 172.37 10.98Q172.25 11.16 171.96 11.16L171.96 11.16L165.53 11.16L165.53 30.38Q165.53 30.67 165.31 30.82Q165.10 30.96 164.66 30.96ZM187.66 31.06L187.66 31.06Q186.34 31.06 185.11 30.60Q183.89 30.14 182.87 29.23Q181.85 28.32 181.10 26.95L181.10 26.95Q180.89 26.59 180.89 26.32Q180.89 26.04 181.30 25.82L181.30 25.82Q181.63 25.61 181.87 25.62Q182.11 25.63 182.28 25.92L182.28 25.92Q182.95 27.07 183.76 27.86Q184.56 28.66 185.54 29.06Q186.53 29.47 187.63 29.47L187.63 29.47Q188.78 29.47 189.71 29.15Q190.63 28.82 191.30 28.21Q191.98 27.60 192.32 26.70Q192.67 25.80 192.67 24.62L192.67 24.62Q192.67 23.30 192.01 22.28Q191.35 21.26 190.15 20.66Q188.95 20.06 187.30 20.06L187.30 20.06L185.90 20.06Q185.62 20.06 185.50 19.86Q185.38 19.66 185.38 19.25L185.38 19.25Q185.38 18.82 185.52 18.66Q185.66 18.50 185.90 18.50L185.90 18.50L187.37 18.50Q188.54 18.50 189.37 18.17Q190.20 17.83 190.75 17.26Q191.30 16.68 191.56 15.96Q191.81 15.24 191.81 14.50L191.81 14.50Q191.81 13.51 191.46 12.82Q191.11 12.12 190.51 11.68Q189.91 11.23 189.18 11.03Q188.45 10.82 187.70 10.82L187.70 10.82Q186.67 10.82 185.81 11.10Q184.94 11.38 184.26 11.86Q183.58 12.34 182.98 12.94L182.98 12.94Q182.69 13.22 182.41 13.22Q182.14 13.22 181.85 12.96L181.85 12.96Q181.46 12.65 181.56 12.38Q181.66 12.12 181.80 11.90L181.80 11.90Q182.33 11.28 183.20 10.67Q184.08 10.06 185.23 9.65Q186.38 9.24 187.70 9.24L187.70 9.24Q188.95 9.24 190.01 9.56Q191.06 9.89 191.87 10.54Q192.67 11.18 193.13 12.17Q193.58 13.15 193.58 14.45L193.58 14.45Q193.58 15.19 193.38 15.92Q193.18 16.66 192.74 17.30Q192.31 17.95 191.62 18.46Q190.92 18.96 189.96 19.25L189.96 19.25Q191.50 19.61 192.49 20.42Q193.49 21.24 193.98 22.33Q194.47 23.42 194.47 24.70L194.47 24.70Q194.47 26.14 194.02 27.31Q193.56 28.49 192.68 29.33Q191.81 30.17 190.55 30.61Q189.29 31.06 187.66 31.06ZM205.27 31.06L205.27 31.06Q203.06 31.06 201.32 29.90Q199.58 28.75 198.59 26.33Q197.59 23.90 197.59 20.14L197.59 20.14Q197.59 18.24 197.84 16.70Q198.10 15.17 198.59 13.96Q199.08 12.74 199.76 11.86Q200.45 10.97 201.31 10.39Q202.18 9.82 203.17 9.53Q204.17 9.24 205.27 9.24L205.27 9.24Q207.43 9.24 209.14 10.39Q210.84 11.54 211.84 13.96Q212.83 16.37 212.83 20.14L212.83 20.14Q212.83 22.03 212.58 23.57Q212.33 25.10 211.84 26.32Q211.34 27.53 210.66 28.43Q209.98 29.33 209.14 29.90Q208.30 30.48 207.32 30.77Q206.35 31.06 205.27 31.06ZM205.22 29.40L205.22 29.40Q206.06 29.40 206.82 29.15Q207.58 28.90 208.22 28.39Q208.87 27.89 209.39 27.13Q209.90 26.38 210.26 25.34Q210.62 24.31 210.82 23.02Q211.01 21.72 211.01 20.14L211.01 20.14Q211.01 16.97 210.26 14.93Q209.52 12.89 208.22 11.89Q206.93 10.90 205.22 10.90L205.22 10.90Q204.36 10.90 203.60 11.14Q202.85 11.38 202.20 11.88Q201.55 12.38 201.04 13.14Q200.52 13.90 200.16 14.92Q199.80 15.94 199.61 17.24Q199.42 18.55 199.42 20.14L199.42 20.14Q199.42 23.28 200.16 25.33Q200.90 27.38 202.21 28.39Q203.52 29.40 205.22 29.40ZM223.58 31.06L223.58 31.06Q221.38 31.06 219.64 29.90Q217.90 28.75 216.90 26.33Q215.90 23.90 215.90 20.14L215.90 20.14Q215.90 18.24 216.16 16.70Q216.41 15.17 216.90 13.96Q217.39 12.74 218.08 11.86Q218.76 10.97 219.62 10.39Q220.49 9.82 221.48 9.53Q222.48 9.24 223.58 9.24L223.58 9.24Q225.74 9.24 227.45 10.39Q229.15 11.54 230.15 13.96Q231.14 16.37 231.14 20.14L231.14 20.14Q231.14 22.03 230.89 23.57Q230.64 25.10 230.15 26.32Q229.66 27.53 228.97 28.43Q228.29 29.33 227.45 29.90Q226.61 30.48 225.64 30.77Q224.66 31.06 223.58 31.06ZM223.54 29.40L223.54 29.40Q224.38 29.40 225.13 29.15Q225.89 28.90 226.54 28.39Q227.18 27.89 227.70 27.13Q228.22 26.38 228.58 25.34Q228.94 24.31 229.13 23.02Q229.32 21.72 229.32 20.14L229.32 20.14Q229.32 16.97 228.58 14.93Q227.83 12.89 226.54 11.89Q225.24 10.90 223.54 10.90L223.54 10.90Q222.67 10.90 221.92 11.14Q221.16 11.38 220.51 11.88Q219.86 12.38 219.35 13.14Q218.83 13.90 218.47 14.92Q218.11 15.94 217.92 17.24Q217.73 18.55 217.73 20.14L217.73 20.14Q217.73 23.28 218.47 25.33Q219.22 27.38 220.52 28.39Q221.83 29.40 223.54 29.40ZM252.67 31.01L252.67 31.01Q252.14 31.01 251.76 30.85Q251.38 30.70 251.11 30.40Q250.85 30.10 250.72 29.63Q250.58 29.16 250.58 28.58L250.58 28.58L250.58 22.25Q250.58 21.38 250.39 20.82Q250.20 20.26 249.78 19.97Q249.36 19.68 248.62 19.68L248.62 19.68Q247.85 19.68 247.14 20.14Q246.43 20.59 245.81 21.52Q245.18 22.44 244.72 23.88Q244.25 25.32 243.96 27.31L243.96 27.31L243.96 30.43Q243.96 30.70 243.74 30.83Q243.53 30.96 243.10 30.96L243.10 30.96Q242.69 30.96 242.48 30.83Q242.28 30.70 242.28 30.43L242.28 30.43L242.28 18.77Q242.28 18.50 242.48 18.37Q242.69 18.24 243.10 18.24L243.10 18.24Q243.53 18.24 243.74 18.37Q243.96 18.50 243.96 18.77L243.96 18.77L243.96 22.92Q244.39 21.55 244.97 20.63Q245.54 19.70 246.19 19.16Q246.84 18.62 247.52 18.38Q248.21 18.14 248.81 18.14L248.81 18.14Q249.82 18.14 250.58 18.50Q251.35 18.86 251.81 19.72Q252.26 20.57 252.26 22.03L252.26 22.03L252.26 28.25Q252.26 28.68 252.32 28.96Q252.38 29.23 252.54 29.38Q252.70 29.52 252.91 29.52L252.91 29.52Q253.18 29.52 253.38 29.39Q253.58 29.26 253.79 28.97Q253.99 28.68 254.23 28.25L254.23 28.25Q254.33 28.03 254.51 28.02Q254.69 28.01 254.95 28.13L254.95 28.13Q255.19 28.25 255.29 28.43Q255.38 28.61 255.26 28.80L255.26 28.80Q255.00 29.50 254.59 29.99Q254.18 30.48 253.69 30.74Q253.20 31.01 252.67 31.01ZM262.46 31.06L262.46 31.06Q260.83 31.06 259.60 30.26Q258.36 29.47 257.68 28.03Q256.99 26.59 256.99 24.60L256.99 24.60Q256.99 23.18 257.40 22.00Q257.81 20.81 258.54 19.96Q259.27 19.10 260.27 18.62Q261.26 18.14 262.46 18.14L262.46 18.14Q264.05 18.14 265.28 18.97Q266.52 19.80 267.22 21.24Q267.91 22.68 267.91 24.53L267.91 24.53Q267.91 25.68 267.66 26.68Q267.41 27.67 266.93 28.49Q266.45 29.30 265.78 29.87Q265.10 30.43 264.26 30.74Q263.42 31.06 262.46 31.06ZM262.46 29.50L262.46 29.50Q263.33 29.50 264 29.14Q264.67 28.78 265.16 28.12Q265.66 27.46 265.92 26.54Q266.18 25.63 266.18 24.53L266.18 24.53Q266.18 23.11 265.73 22.02Q265.27 20.93 264.43 20.32Q263.59 19.70 262.46 19.70L262.46 19.70Q261.65 19.70 260.94 20.05Q260.23 20.40 259.74 21.06Q259.25 21.72 258.98 22.62Q258.72 23.52 258.72 24.60L258.72 24.60Q258.72 26.04 259.19 27.14Q259.66 28.25 260.50 28.87Q261.34 29.50 262.46 29.50ZM267.22 31.01L267.22 31.01Q266.86 31.01 266.66 30.78Q266.47 30.55 266.47 30.26Q266.47 29.98 266.65 29.75Q266.83 29.52 267.19 29.52L267.19 29.52Q268.06 29.52 268.78 29.03Q269.50 28.54 270.11 27.41Q270.72 26.28 271.28 24.38Q271.85 22.49 272.42 19.70L272.42 19.70L273.58 20.18Q273.02 23.23 272.41 25.31Q271.80 27.38 271.04 28.64Q270.29 29.90 269.35 30.46Q268.42 31.01 267.22 31.01ZM280.18 31.01L280.18 31.01Q279.65 31.01 279.26 30.84Q278.88 30.67 278.62 30.36Q278.35 30.05 278.23 29.60Q278.11 29.16 278.11 28.58L278.11 28.58Q278.11 27.94 278.17 27.04Q278.23 26.14 278.29 25.14Q278.35 24.14 278.41 23.21Q278.47 22.27 278.47 21.53L278.47 21.53Q278.47 20.62 278.22 20.33Q277.97 20.04 277.39 20.04L277.39 20.04Q276.74 20.04 275.96 20.26Q275.18 20.47 274.49 20.69Q273.79 20.90 273.31 20.90L273.31 20.90Q272.93 20.90 272.57 20.50Q272.21 20.09 272.00 19.51Q271.80 18.94 271.80 18.38L271.80 18.38Q271.80 18 271.93 17.68Q272.06 17.35 272.33 17.18Q272.59 17.02 273.00 17.02L273.00 17.02Q273.53 17.02 273.73 17.39Q273.94 17.76 273.94 18.31L273.94 18.31Q273.94 18.55 273.89 18.86Q273.84 19.18 273.79 19.39L273.79 19.39Q274.18 19.39 274.84 19.14Q275.50 18.89 276.29 18.64Q277.08 18.38 277.80 18.38L277.80 18.38Q278.57 18.38 279.08 18.66Q279.60 18.94 279.86 19.61Q280.13 20.28 280.13 21.46L280.13 21.46Q280.13 22.20 280.07 23.15Q280.01 24.10 279.95 25.08Q279.89 26.06 279.84 26.92Q279.79 27.77 279.79 28.32L279.79 28.32Q279.79 28.87 279.92 29.20Q280.06 29.52 280.44 29.52L280.44 29.52Q280.68 29.52 280.88 29.39Q281.09 29.26 281.30 28.97Q281.52 28.68 281.76 28.25L281.76 28.25Q281.86 28.03 282.04 28.02Q282.22 28.01 282.48 28.13L282.48 28.13Q282.72 28.25 282.82 28.43Q282.91 28.61 282.79 28.80L282.79 28.80Q282.53 29.50 282.12 29.99Q281.71 30.48 281.22 30.74Q280.73 31.01 280.18 31.01ZM303.50 31.01L303.50 31.01Q303.02 31.01 302.64 30.86Q302.26 30.72 302.00 30.41Q301.75 30.10 301.61 29.64Q301.46 29.18 301.46 28.58L301.46 28.58L301.46 22.25Q301.46 21.38 301.30 20.82Q301.13 20.26 300.72 19.97Q300.31 19.68 299.59 19.68L299.59 19.68Q298.85 19.68 298.10 20.24Q297.36 20.81 296.74 21.90Q296.11 22.99 295.66 24.60Q295.20 26.21 294.98 28.34L294.98 28.34L294.34 28.34Q294.38 25.46 294.91 23.50Q295.44 21.53 296.27 20.34Q297.10 19.15 298.03 18.65Q298.97 18.14 299.83 18.14L299.83 18.14Q300.74 18.14 301.50 18.50Q302.26 18.86 302.69 19.72Q303.12 20.57 303.12 22.03L303.12 22.03L303.12 28.25Q303.12 28.68 303.18 28.96Q303.24 29.23 303.40 29.38Q303.55 29.52 303.82 29.52L303.82 29.52Q304.08 29.52 304.27 29.39Q304.46 29.26 304.67 28.98Q304.87 28.70 305.09 28.25L305.09 28.25Q305.21 28.06 305.40 28.03Q305.59 28.01 305.83 28.15L305.83 28.15Q306.07 28.25 306.16 28.44Q306.24 28.63 306.14 28.82L306.14 28.82Q305.88 29.50 305.47 29.99Q305.06 30.48 304.57 30.74Q304.08 31.01 303.50 31.01ZM286.34 30.96L286.34 30.96Q285.94 30.96 285.73 30.83Q285.53 30.70 285.53 30.43L285.53 30.43L285.53 18.77Q285.53 18.50 285.73 18.37Q285.94 18.24 286.34 18.24L286.34 18.24Q286.78 18.24 286.99 18.37Q287.21 18.50 287.21 18.77L287.21 18.77L287.21 22.92Q287.62 21.55 288.19 20.63Q288.77 19.70 289.39 19.16Q290.02 18.62 290.66 18.38Q291.31 18.14 291.86 18.14L291.86 18.14Q292.78 18.14 293.53 18.50Q294.29 18.86 294.73 19.72Q295.18 20.57 295.18 22.03L295.18 22.03L295.18 30.43Q295.18 30.70 294.96 30.83Q294.74 30.96 294.34 30.96L294.34 30.96Q293.90 30.96 293.71 30.83Q293.52 30.70 293.52 30.43L293.52 30.43L293.52 22.25Q293.52 21.38 293.34 20.82Q293.16 20.26 292.75 19.97Q292.34 19.68 291.65 19.68L291.65 19.68Q290.93 19.68 290.24 20.16Q289.56 20.64 288.96 21.60Q288.36 22.56 287.90 23.99Q287.45 25.42 287.21 27.31L287.21 27.31L287.21 30.43Q287.21 30.70 286.99 30.83Q286.78 30.96 286.34 30.96ZM311.86 31.01L311.86 31.01Q310.63 31.01 309.72 30.32Q308.81 29.64 308.32 28.33Q307.82 27.02 307.82 25.18L307.82 25.18Q307.82 23.93 308.04 22.85Q308.26 21.77 308.70 20.89Q309.14 20.02 309.82 19.40Q310.49 18.79 311.35 18.47Q312.22 18.14 313.27 18.14L313.27 18.14Q314.11 18.14 314.84 18.35Q315.58 18.55 316.34 18.98L316.34 18.98L316.34 18.77Q316.34 18.50 316.55 18.37Q316.75 18.24 317.18 18.24L317.18 18.24Q317.62 18.24 317.82 18.37Q318.02 18.50 318.02 18.77L318.02 18.77L318.02 28.22Q318.02 28.66 318.08 28.94Q318.14 29.23 318.30 29.38Q318.46 29.52 318.70 29.52L318.70 29.52Q318.94 29.52 319.14 29.39Q319.34 29.26 319.54 28.97Q319.73 28.68 319.97 28.25L319.97 28.25Q320.06 28.03 320.26 28.01Q320.45 27.98 320.69 28.13L320.69 28.13Q320.95 28.25 321.05 28.44Q321.14 28.63 321.05 28.85L321.05 28.85Q320.81 29.47 320.41 29.95Q320.02 30.43 319.52 30.72Q319.03 31.01 318.46 31.01L318.46 31.01Q317.93 31.01 317.56 30.85Q317.18 30.70 316.91 30.40Q316.63 30.10 316.50 29.66Q316.37 29.23 316.37 28.68L316.37 28.68Q316.37 28.20 316.36 27.70Q316.34 27.19 316.34 26.66L316.34 26.66Q315.86 28.18 315.16 29.14Q314.45 30.10 313.62 30.55Q312.79 31.01 311.86 31.01ZM309.55 25.13L309.55 25.13Q309.55 26.33 309.80 27.32Q310.06 28.32 310.64 28.88Q311.23 29.45 312.12 29.45L312.12 29.45Q313.03 29.45 313.86 28.69Q314.69 27.94 315.34 26.44Q315.98 24.94 316.34 22.70L316.34 22.70L316.34 20.52Q315.53 20.02 314.82 19.84Q314.11 19.66 313.46 19.66L313.46 19.66Q312.72 19.66 312.11 19.90Q311.50 20.14 311.02 20.58Q310.54 21.02 310.21 21.68Q309.89 22.34 309.72 23.20Q309.55 24.05 309.55 25.13ZM319.01 31.01L319.01 31.01Q318.62 31.01 318.46 30.78Q318.29 30.55 318.29 30.26Q318.29 29.98 318.46 29.75Q318.62 29.52 319.01 29.52L319.01 29.52Q319.66 29.52 320.34 29.16Q321.02 28.80 321.72 28.14Q322.42 27.48 323.10 26.57Q323.78 25.66 324.44 24.56Q325.10 23.47 325.69 22.27Q326.28 21.07 326.75 19.80Q327.22 18.53 327.56 17.27Q327.91 16.01 328.10 14.78Q328.30 13.56 328.30 12.50L328.30 12.50Q328.30 12.19 328.56 12.04Q328.82 11.88 329.15 11.88Q329.47 11.88 329.74 12.04Q330.00 12.19 330.00 12.50L330.00 12.50Q330.00 13.51 329.78 14.74Q329.57 15.96 329.16 17.29Q328.75 18.62 328.20 20.00Q327.65 21.38 326.98 22.72Q326.30 24.05 325.55 25.28Q324.79 26.52 323.96 27.56Q323.14 28.61 322.30 29.38Q321.46 30.14 320.63 30.58Q319.80 31.01 319.01 31.01ZM326.38 31.01L326.38 31.01Q325.90 31.01 325.50 30.85Q325.10 30.70 324.85 30.40Q324.60 30.10 324.47 29.63Q324.34 29.16 324.34 28.58L324.34 28.58L324.34 14.11Q324.34 11.59 325.10 10.37Q325.87 9.14 327.38 9.14L327.38 9.14Q328.27 9.14 328.85 9.58Q329.42 10.01 329.71 10.76Q330.00 11.52 330.00 12.50L330.00 12.50Q330.00 12.86 329.74 13.06Q329.47 13.25 329.15 13.25Q328.82 13.25 328.56 13.06Q328.30 12.86 328.30 12.50L328.30 12.50Q328.30 11.95 328.22 11.54Q328.15 11.14 327.92 10.92Q327.70 10.70 327.34 10.70L327.34 10.70Q326.88 10.70 326.58 11.06Q326.28 11.42 326.15 12.23Q326.02 13.03 326.02 14.38L326.02 14.38L326.02 28.25Q326.02 28.68 326.08 28.96Q326.14 29.23 326.28 29.38Q326.42 29.52 326.66 29.52L326.66 29.52Q326.90 29.52 327.11 29.39Q327.31 29.26 327.53 28.97Q327.74 28.68 327.96 28.25L327.96 28.25Q328.06 28.03 328.25 28.02Q328.44 28.01 328.68 28.13L328.68 28.13Q328.97 28.25 329.04 28.43Q329.11 28.61 329.04 28.80L329.04 28.80Q328.75 29.50 328.34 29.99Q327.94 30.48 327.44 30.74Q326.95 31.01 326.38 31.01Z"/></svg>