<svg xmlns="http://www.w3.org/2000/svg" xmlns:xlink="http://www.w3.org/1999/xlink" width="259.0319999999999" height="33.6"><path fill="black" d="M11.54 23.04L11.54 23.04L11.54 19.13Q11.54 18.67 11.41 18.53Q11.28 18.38 10.80 18.38L10.80 18.38L3.82 18.38Q1.92 18.38 1.92 16.49L1.92 16.49L1.92 12.17Q1.92 10.27 3.82 10.27L3.82 10.27L11.66 10.27Q13.56 10.27 13.56 12.17L13.56 12.17L13.56 14.54L11.45 14.54L11.45 12.43Q11.45 11.95 11.32 11.82Q11.18 11.69 10.70 11.69L10.70 11.69L4.78 11.69Q4.32 11.69 4.18 11.82Q4.03 11.95 4.03 12.43L4.03 12.43L4.03 16.22Q4.03 16.70 4.18 16.84Q4.32 16.97 4.78 16.97L4.78 16.97L11.74 16.97Q13.63 16.97 13.63 18.86L13.63 18.86L13.63 23.30Q13.63 25.20 11.74 25.20L11.74 25.20L3.86 25.20Q1.97 25.20 1.97 23.30L1.97 23.30L1.97 20.93L4.08 20.93L4.08 23.04Q4.08 23.52 4.22 23.65Q4.37 23.78 4.82 23.78L4.82 23.78L10.80 23.78Q11.28 23.78 11.41 23.65Q11.54 23.52 11.54 23.04ZM20.28 23.78L20.28 23.78L25.56 23.78Q25.99 23.78 26.18 23.59Q26.38 23.40 26.38 22.94L26.38 22.94L26.38 15.82Q26.38 15.36 26.18 15.17Q25.99 14.98 25.56 14.98L25.56 14.98L20.28 14.98Q19.82 14.98 19.68 15.12Q19.54 15.26 19.54 15.72L19.54 15.72L19.54 23.04Q19.54 23.52 19.68 23.65Q19.82 23.78 20.28 23.78ZM26.38 14.33L26.38 13.56L28.44 13.56L28.44 25.20L26.38 25.20L26.38 24.43Q26.06 25.20 25.06 25.20L25.06 25.20L19.37 25.20Q17.47 25.20 17.47 23.30L17.47 23.30L17.47 15.46Q17.47 13.56 19.37 13.56L19.37 13.56L25.06 13.56Q26.06 13.56 26.38 14.33L26.38 14.33ZM36.70 13.56L36.70 13.56L39.19 13.56L39.19 15.02L36.38 15.02Q34.82 15.02 34.82 16.82L34.82 16.82L34.82 25.20L32.76 25.20L32.76 13.56L34.82 13.56L34.82 15.02Q35.21 13.56 36.70 13.56ZM50.74 23.04L50.74 23.04L50.74 15.72Q50.74 15.26 50.60 15.12Q50.47 14.98 49.99 14.98L49.99 14.98L44.47 14.98Q44.04 14.98 43.85 15.17Q43.66 15.36 43.66 15.82L43.66 15.82L43.66 22.94Q43.66 23.40 43.85 23.59Q44.04 23.78 44.47 23.78L44.47 23.78L49.99 23.78Q50.47 23.78 50.60 23.65Q50.74 23.52 50.74 23.04ZM44.98 13.56L44.98 13.56L50.90 13.56Q52.80 13.56 52.80 15.46L52.80 15.46L52.80 23.30Q52.80 25.20 50.90 25.20L50.90 25.20L44.98 25.20Q43.97 25.20 43.66 24.43L43.66 24.43L43.66 28.58L41.59 28.58L41.59 13.56L43.66 13.56L43.66 14.33Q43.97 13.56 44.98 13.56ZM59.45 23.78L59.45 23.78L64.73 23.78Q65.16 23.78 65.35 23.59Q65.54 23.40 65.54 22.94L65.54 22.94L65.54 15.82Q65.54 15.36 65.35 15.17Q65.16 14.98 64.73 14.98L64.73 14.98L59.45 14.98Q58.99 14.98 58.85 15.12Q58.70 15.26 58.70 15.72L58.70 15.72L58.70 23.04Q58.70 23.52 58.85 23.65Q58.99 23.78 59.45 23.78ZM65.54 14.33L65.54 13.56L67.61 13.56L67.61 25.20L65.54 25.20L65.54 24.43Q65.23 25.20 64.22 25.20L64.22 25.20L58.54 25.20Q56.64 25.20 56.64 23.30L56.64 23.30L56.64 15.46Q56.64 13.56 58.54 13.56L58.54 13.56L64.22 13.56Q65.23 13.56 65.54 14.33L65.54 14.33ZM75.34 13.56L75.34 13.56L81 13.56Q82.90 13.56 82.90 15.46L82.90 15.46L82.90 25.20L80.83 25.20L80.83 15.72Q80.83 15.26 80.70 15.12Q80.57 14.98 80.09 14.98L80.09 14.98L74.83 14.98Q74.40 14.98 74.21 15.17Q74.02 15.36 74.02 15.82L74.02 15.82L74.02 16.61L73.99 16.61L73.99 25.20L71.93 25.20L71.93 13.56L73.99 13.56L73.99 14.40Q74.26 13.56 75.34 13.56ZM97.44 15.46L97.44 17.35L95.38 17.35L95.38 15.72Q95.38 15.26 95.23 15.12Q95.09 14.98 94.63 14.98L94.63 14.98L89.54 14.98Q89.09 14.98 88.94 15.12Q88.80 15.26 88.80 15.72L88.80 15.72L88.80 23.04Q88.80 23.52 88.94 23.65Q89.09 23.78 89.54 23.78L89.54 23.78L94.63 23.78Q95.09 23.78 95.23 23.65Q95.38 23.52 95.38 23.04L95.38 23.04L95.38 21.41L97.44 21.41L97.44 23.30Q97.44 25.20 95.54 25.20L95.54 25.20L88.63 25.20Q86.74 25.20 86.74 23.30L86.74 23.30L86.74 15.46Q86.74 13.56 88.63 13.56L88.63 13.56L95.54 13.56Q97.44 13.56 97.44 15.46L97.44 15.46ZM104.45 13.56L104.45 13.56L110.14 13.56Q112.03 13.56 112.03 15.46L112.03 15.46L112.03 25.20L109.97 25.20L109.97 15.72Q109.97 15.26 109.82 15.12Q109.68 14.98 109.22 14.98L109.22 14.98L103.94 14.98Q103.51 14.98 103.32 15.17Q103.13 15.36 103.13 15.82L103.13 15.82L103.13 16.56L103.10 16.56L103.10 25.20L101.04 25.20L101.04 9.14L103.10 9.14L103.10 14.40Q103.37 13.56 104.45 13.56ZM132.86 21.36L135.67 21.36L135.67 22.78L132.86 22.78L132.86 25.20L130.87 25.20L130.87 22.78L121.49 22.78L121.49 21.38L128.57 10.27L130.80 10.27L123.82 21.36L130.87 21.36L130.87 17.33L132.86 17.33L132.86 21.36ZM150.24 12.17L150.24 12.17L150.24 23.30Q150.24 25.20 148.34 25.20L148.34 25.20L140.21 25.20Q138.31 25.20 138.31 23.30L138.31 23.30L138.31 12.17Q138.31 10.27 140.21 10.27L140.21 10.27L148.34 10.27Q150.24 10.27 150.24 12.17ZM148.15 23.04L148.15 23.04L148.15 12.43Q148.15 11.95 148.01 11.82Q147.86 11.69 147.41 11.69L147.41 11.69L141.17 11.69Q140.71 11.69 140.57 11.82Q140.42 11.95 140.42 12.43L140.42 12.43L140.42 23.04Q140.42 23.52 140.57 23.65Q140.71 23.78 141.17 23.78L141.17 23.78L147.41 23.78Q147.86 23.78 148.01 23.65Q148.15 23.52 148.15 23.04ZM166.49 12.17L166.49 12.17L166.49 23.30Q166.49 25.20 164.59 25.20L164.59 25.20L156.46 25.20Q154.56 25.20 154.56 23.30L154.56 23.30L154.56 12.17Q154.56 10.27 156.46 10.27L156.46 10.27L164.59 10.27Q166.49 10.27 166.49 12.17ZM164.40 23.04L164.40 23.04L164.40 12.43Q164.40 11.95 164.26 11.82Q164.11 11.69 163.66 11.69L163.66 11.69L157.42 11.69Q156.96 11.69 156.82 11.82Q156.67 11.95 156.67 12.43L156.67 12.43L156.67 23.04Q156.67 23.52 156.82 23.65Q156.96 23.78 157.42 23.78L157.42 23.78L163.66 23.78Q164.11 23.78 164.26 23.65Q164.40 23.52 164.40 23.04ZM180.79 13.56L180.79 13.56L186.46 13.56Q188.35 13.56 188.35 15.46L188.35 15.46L188.35 25.20L186.29 25.20L186.29 15.72Q186.29 15.26 186.16 15.12Q186.02 14.98 185.54 14.98L185.54 14.98L180.29 14.98Q179.86 14.98 179.66 15.17Q179.47 15.36 179.47 15.82L179.47 15.82L179.47 16.61L179.45 16.61L179.45 25.20L177.38 25.20L177.38 13.56L179.45 13.56L179.45 14.40Q179.71 13.56 180.79 13.56ZM201.19 23.04L201.19 23.04L201.19 15.72Q201.19 15.26 201.06 15.12Q200.93 14.98 200.45 14.98L200.45 14.98L194.98 14.98Q194.50 14.98 194.36 15.12Q194.23 15.26 194.23 15.72L194.23 15.72L194.23 23.04Q194.23 23.52 194.36 23.65Q194.50 23.78 194.98 23.78L194.98 23.78L200.45 23.78Q200.93 23.78 201.06 23.65Q201.19 23.52 201.19 23.04ZM194.09 13.56L194.09 13.56L201.34 13.56Q203.23 13.56 203.23 15.46L203.23 15.46L203.23 23.30Q203.23 25.20 201.34 25.20L201.34 25.20L194.09 25.20Q192.19 25.20 192.19 23.30L192.19 23.30L192.19 15.46Q192.19 13.56 194.09 13.56ZM211.25 13.56L211.25 13.56L213.74 13.56L213.74 15.02L210.94 15.02Q209.38 15.02 209.38 16.82L209.38 16.82L209.38 25.20L207.31 25.20L207.31 13.56L209.38 13.56L209.38 15.02Q209.76 13.56 211.25 13.56ZM228.22 13.56L228.22 13.56L233.30 13.56Q235.20 13.56 235.20 15.46L235.20 15.46L235.20 25.20L233.14 25.20L233.14 15.72Q233.14 15.26 232.99 15.12Q232.85 14.98 232.39 14.98L232.39 14.98L227.71 14.98Q227.26 14.98 227.06 15.18Q226.87 15.38 226.87 15.84L226.87 15.84L226.87 25.20L224.81 25.20L224.81 15.72Q224.81 15.26 224.68 15.12Q224.54 14.98 224.06 14.98L224.06 14.98L219.02 14.98Q218.59 14.98 218.40 15.17Q218.21 15.36 218.21 15.82L218.21 15.82L218.21 25.20L216.14 25.20L216.14 13.56L218.21 13.56L218.21 14.33Q218.52 13.56 219.53 13.56L219.53 13.56L224.98 13.56Q226.34 13.56 226.73 14.54L226.73 14.54Q226.97 13.56 228.22 13.56ZM241.85 23.78L241.85 23.78L247.13 23.78Q247.56 23.78 247.75 23.59Q247.94 23.40 247.94 22.94L247.94 22.94L247.94 15.82Q247.94 15.36 247.75 15.17Q247.56 14.98 247.13 14.98L247.13 14.98L241.85 14.98Q241.39 14.98 241.25 15.12Q241.10 15.26 241.10 15.72L241.10 15.72L241.10 23.04Q241.10 23.52 241.25 23.65Q241.39 23.78 241.85 23.78ZM247.94 14.33L247.94 13.56L250.01 13.56L250.01 25.20L247.94 25.20L247.94 24.43Q247.63 25.20 246.62 25.20L246.62 25.20L240.94 25.20Q239.04 25.20 239.04 23.30L239.04 23.30L239.04 15.46Q239.04 13.56 240.94 13.56L240.94 13.56L246.62 13.56Q247.63 13.56 247.94 14.33L247.94 14.33ZM256.63 9.14L256.63 25.20L254.57 25.20L254.57 9.14L256.63 9.14Z"/></svg>