<svg xmlns="http://www.w3.org/2000/svg" xmlns:xlink="http://www.w3.org/1999/xlink" width="369.5520000000001" height="32.688"><path fill="black" d="M16.32 8.52L16.32 25.66L13.15 25.66L4.51 11.81L4.42 11.81Q4.46 12.36 4.50 13.13Q4.54 13.90 4.57 14.74Q4.61 15.58 4.61 16.42L4.61 16.42L4.61 25.66L2.23 25.66L2.23 8.52L5.38 8.52L13.99 22.30L14.09 22.30Q14.06 21.89 14.03 21.12Q13.99 20.35 13.96 19.46Q13.92 18.58 13.92 17.86L13.92 17.86L13.92 8.52L16.32 8.52ZM31.97 19.15L31.97 19.15Q31.97 21.31 31.22 22.82Q30.48 24.34 29.10 25.12Q27.72 25.90 25.85 25.90L25.85 25.90Q24.10 25.90 22.74 25.12Q21.38 24.34 20.60 22.82Q19.82 21.31 19.82 19.15L19.82 19.15Q19.82 15.96 21.46 14.22Q23.09 12.48 25.92 12.48L25.92 12.48Q27.70 12.48 29.05 13.26Q30.41 14.04 31.19 15.53Q31.97 17.02 31.97 19.15ZM22.44 19.15L22.44 19.15Q22.44 20.62 22.80 21.67Q23.16 22.73 23.93 23.29Q24.70 23.86 25.90 23.86L25.90 23.86Q27.10 23.86 27.85 23.29Q28.61 22.73 28.97 21.67Q29.33 20.62 29.33 19.15L29.33 19.15Q29.33 17.69 28.96 16.67Q28.58 15.65 27.83 15.10Q27.07 14.54 25.87 14.54L25.87 14.54Q24.07 14.54 23.26 15.77Q22.44 16.99 22.44 19.15ZM39.86 23.83L39.86 23.83Q40.37 23.83 40.87 23.74Q41.38 23.64 41.74 23.52L41.74 23.52L41.74 25.44Q41.33 25.63 40.67 25.76Q40.01 25.90 39.29 25.90L39.29 25.90Q38.23 25.90 37.37 25.54Q36.50 25.18 35.96 24.29Q35.42 23.40 35.42 21.79L35.42 21.79L35.42 14.66L33.65 14.66L33.65 13.51L35.52 12.55L36.43 9.82L37.99 9.82L37.99 12.72L41.62 12.72L41.62 14.66L37.99 14.66L37.99 21.70Q37.99 22.78 38.51 23.30Q39.02 23.83 39.86 23.83ZM55.73 19.15L55.73 19.15Q55.73 21.31 54.98 22.82Q54.24 24.34 52.86 25.12Q51.48 25.90 49.61 25.90L49.61 25.90Q47.86 25.90 46.50 25.12Q45.14 24.34 44.36 22.82Q43.58 21.31 43.58 19.15L43.58 19.15Q43.58 15.96 45.22 14.22Q46.85 12.48 49.68 12.48L49.68 12.48Q51.46 12.48 52.81 13.26Q54.17 14.04 54.95 15.53Q55.73 17.02 55.73 19.15ZM46.20 19.15L46.20 19.15Q46.20 20.62 46.56 21.67Q46.92 22.73 47.69 23.29Q48.46 23.86 49.66 23.86L49.66 23.86Q50.86 23.86 51.61 23.29Q52.37 22.73 52.73 21.67Q53.09 20.62 53.09 19.15L53.09 19.15Q53.09 17.69 52.72 16.67Q52.34 15.65 51.59 15.10Q50.83 14.54 49.63 14.54L49.63 14.54Q47.83 14.54 47.02 15.77Q46.20 16.99 46.20 19.15ZM75.55 20.95L75.55 20.95Q75.55 22.46 74.81 23.57Q74.06 24.67 72.67 25.28Q71.28 25.90 69.31 25.90L69.31 25.90Q68.30 25.90 67.43 25.80Q66.55 25.70 65.83 25.51Q65.11 25.32 64.51 25.03L64.51 25.03L64.51 22.61Q65.47 23.04 66.78 23.36Q68.09 23.69 69.41 23.69L69.41 23.69Q70.58 23.69 71.36 23.38Q72.14 23.06 72.54 22.50Q72.94 21.94 72.94 21.19L72.94 21.19Q72.94 20.42 72.59 19.90Q72.24 19.37 71.40 18.90Q70.56 18.43 69.07 17.88L69.07 17.88Q67.63 17.35 66.66 16.68Q65.69 16.01 65.20 15.06Q64.70 14.11 64.70 12.77L64.70 12.77Q64.70 11.35 65.42 10.36Q66.14 9.36 67.42 8.82Q68.69 8.28 70.34 8.28L70.34 8.28Q71.81 8.28 73.02 8.57Q74.23 8.86 75.22 9.29L75.22 9.29L74.40 11.45Q73.46 11.04 72.42 10.76Q71.38 10.49 70.30 10.49L70.30 10.49Q69.29 10.49 68.63 10.78Q67.97 11.06 67.64 11.57Q67.32 12.07 67.32 12.74L67.32 12.74Q67.32 13.54 67.67 14.06Q68.02 14.59 68.82 15.02Q69.62 15.46 70.99 16.01L70.99 16.01Q72.46 16.56 73.48 17.20Q74.50 17.83 75.02 18.72Q75.55 19.61 75.55 20.95ZM83.74 12.50L83.74 12.50Q86.11 12.50 87.29 13.57Q88.46 14.64 88.46 16.90L88.46 16.90L88.46 25.66L86.64 25.66L86.14 23.86L86.04 23.86Q85.49 24.55 84.90 25.01Q84.31 25.46 83.56 25.68Q82.80 25.90 81.72 25.90L81.72 25.90Q79.97 25.90 78.82 24.95Q77.66 24 77.66 21.98L77.66 21.98Q77.66 20.04 79.18 19.00Q80.69 17.95 83.76 17.86L83.76 17.86L85.94 17.78L85.94 17.11Q85.94 15.62 85.30 15.05Q84.65 14.47 83.47 14.47L83.47 14.47Q82.51 14.47 81.59 14.77Q80.66 15.07 79.85 15.46L79.85 15.46L79.08 13.61Q79.97 13.13 81.17 12.82Q82.37 12.50 83.74 12.50ZM85.94 19.44L84.19 19.51Q82.01 19.58 81.16 20.21Q80.30 20.83 80.30 21.96L80.30 21.96Q80.30 22.97 80.90 23.44Q81.50 23.90 82.46 23.90L82.46 23.90Q83.95 23.90 84.95 23.08Q85.94 22.25 85.94 20.57L85.94 20.57L85.94 19.44ZM98.86 12.48L98.86 12.48Q101.14 12.48 102.32 13.60Q103.51 14.71 103.51 17.23L103.51 17.23L103.51 25.66L100.99 25.66L100.99 17.59Q100.99 16.08 100.34 15.34Q99.70 14.59 98.33 14.59L98.33 14.59Q96.36 14.59 95.60 15.76Q94.85 16.92 94.85 19.13L94.85 19.13L94.85 25.66L92.30 25.66L92.30 12.72L94.32 12.72L94.68 14.47L94.80 14.47Q95.23 13.80 95.87 13.36Q96.50 12.91 97.27 12.70Q98.04 12.48 98.86 12.48ZM115.99 22.01L115.99 22.01Q115.99 23.26 115.38 24.12Q114.77 24.98 113.59 25.44Q112.42 25.90 110.76 25.90L110.76 25.90Q109.42 25.90 108.41 25.69Q107.40 25.49 106.58 25.10L106.58 25.10L106.58 22.85Q107.45 23.28 108.58 23.59Q109.70 23.90 110.76 23.90L110.76 23.90Q112.22 23.90 112.88 23.45Q113.54 22.99 113.54 22.22L113.54 22.22Q113.54 21.77 113.28 21.42Q113.02 21.07 112.34 20.71Q111.67 20.35 110.42 19.87L110.42 19.87Q109.20 19.39 108.35 18.90Q107.50 18.41 107.03 17.72Q106.56 17.04 106.56 15.98L106.56 15.98Q106.56 14.28 107.93 13.38Q109.30 12.48 111.50 12.48L111.50 12.48Q112.70 12.48 113.75 12.72Q114.79 12.96 115.75 13.39L115.75 13.39L114.94 15.29Q114.10 14.95 113.18 14.70Q112.27 14.45 111.38 14.45L111.38 14.45Q110.23 14.45 109.62 14.82Q109.01 15.19 109.01 15.84L109.01 15.84Q109.01 16.30 109.30 16.64Q109.58 16.99 110.29 17.32Q111 17.64 112.20 18.12L112.20 18.12Q113.42 18.58 114.26 19.07Q115.10 19.56 115.55 20.26Q115.99 20.95 115.99 22.01ZM133.03 10.51L133.03 10.51Q131.33 10.51 130.09 11.30Q128.86 12.10 128.20 13.57Q127.54 15.05 127.54 17.11L127.54 17.11Q127.54 19.13 128.15 20.60Q128.76 22.08 129.98 22.87Q131.21 23.66 133.06 23.66L133.06 23.66Q134.18 23.66 135.20 23.45Q136.22 23.23 137.21 22.92L137.21 22.92L137.21 25.15Q136.20 25.54 135.16 25.72Q134.11 25.90 132.70 25.90L132.70 25.90Q130.06 25.90 128.30 24.82Q126.55 23.74 125.68 21.74Q124.80 19.75 124.80 17.09L124.80 17.09Q124.80 14.50 125.75 12.50Q126.70 10.51 128.56 9.40Q130.42 8.28 133.06 8.28L133.06 8.28Q134.35 8.28 135.60 8.54Q136.85 8.81 137.88 9.31L137.88 9.31L136.92 11.47Q136.10 11.09 135.13 10.80Q134.16 10.51 133.03 10.51ZM143.14 7.42L143.14 12.26Q143.14 12.91 143.10 13.49Q143.06 14.06 143.02 14.47L143.02 14.47L143.16 14.47Q143.57 13.80 144.18 13.37Q144.79 12.94 145.55 12.72Q146.30 12.50 147.10 12.50L147.10 12.50Q148.63 12.50 149.68 13.00Q150.72 13.49 151.26 14.52Q151.80 15.55 151.80 17.23L151.80 17.23L151.80 25.66L149.28 25.66L149.28 17.59Q149.28 16.08 148.63 15.34Q147.98 14.59 146.62 14.59L146.62 14.59Q144.62 14.59 143.88 15.77Q143.14 16.94 143.14 19.15L143.14 19.15L143.14 25.66L140.59 25.66L140.59 7.42L143.14 7.42ZM160.78 12.48L160.78 12.48Q162.48 12.48 163.72 13.19Q164.95 13.90 165.60 15.22Q166.25 16.54 166.25 18.34L166.25 18.34L166.25 19.75L157.56 19.75Q157.61 21.72 158.62 22.78Q159.62 23.83 161.45 23.83L161.45 23.83Q162.67 23.83 163.63 23.60Q164.59 23.38 165.62 22.92L165.62 22.92L165.62 25.03Q164.64 25.46 163.66 25.68Q162.67 25.90 161.28 25.90L161.28 25.90Q159.41 25.90 157.98 25.16Q156.55 24.43 155.75 22.94Q154.94 21.46 154.94 19.27L154.94 19.27Q154.94 17.11 155.66 15.60Q156.38 14.09 157.70 13.28Q159.02 12.48 160.78 12.48ZM160.80 14.45L160.80 14.45Q159.41 14.45 158.59 15.34Q157.78 16.22 157.61 17.86L157.61 17.86L163.70 17.86Q163.68 16.34 162.98 15.40Q162.29 14.45 160.80 14.45ZM175.78 12.48L175.78 12.48Q176.14 12.48 176.56 12.52Q176.98 12.55 177.26 12.62L177.26 12.62L176.98 15.00Q176.66 14.93 176.30 14.88Q175.94 14.83 175.54 14.83L175.54 14.83Q174.65 14.83 173.82 15.30Q172.99 15.77 172.48 16.67Q171.96 17.57 171.96 18.86L171.96 18.86L171.96 25.66L169.42 25.66L169.42 12.72L171.43 12.72L171.77 15.02L171.89 15.02Q172.49 13.99 173.47 13.24Q174.46 12.48 175.78 12.48ZM190.54 19.15L190.54 19.15Q190.54 21.31 189.79 22.82Q189.05 24.34 187.67 25.12Q186.29 25.90 184.42 25.90L184.42 25.90Q182.66 25.90 181.31 25.12Q179.95 24.34 179.17 22.82Q178.39 21.31 178.39 19.15L178.39 19.15Q178.39 15.96 180.02 14.22Q181.66 12.48 184.49 12.48L184.49 12.48Q186.26 12.48 187.62 13.26Q188.98 14.04 189.76 15.53Q190.54 17.02 190.54 19.15ZM181.01 19.15L181.01 19.15Q181.01 20.62 181.37 21.67Q181.73 22.73 182.50 23.29Q183.26 23.86 184.46 23.86L184.46 23.86Q185.66 23.86 186.42 23.29Q187.18 22.73 187.54 21.67Q187.90 20.62 187.90 19.15L187.90 19.15Q187.90 17.69 187.52 16.67Q187.15 15.65 186.40 15.10Q185.64 14.54 184.44 14.54L184.44 14.54Q182.64 14.54 181.82 15.77Q181.01 16.99 181.01 19.15ZM196.27 7.42L196.27 16.51Q196.27 16.99 196.24 17.68Q196.20 18.36 196.15 18.89L196.15 18.89L196.25 18.89Q196.42 18.67 196.69 18.31Q196.97 17.95 197.26 17.58Q197.54 17.21 197.76 16.94L197.76 16.94L201.67 12.72L204.62 12.72L199.51 18.24L204.96 25.66L201.94 25.66L197.76 19.87L196.27 21.12L196.27 25.66L193.75 25.66L193.75 7.42L196.27 7.42ZM212.23 12.48L212.23 12.48Q213.94 12.48 215.17 13.19Q216.41 13.90 217.06 15.22Q217.70 16.54 217.70 18.34L217.70 18.34L217.70 19.75L209.02 19.75Q209.06 21.72 210.07 22.78Q211.08 23.83 212.90 23.83L212.90 23.83Q214.13 23.83 215.09 23.60Q216.05 23.38 217.08 22.92L217.08 22.92L217.08 25.03Q216.10 25.46 215.11 25.68Q214.13 25.90 212.74 25.90L212.74 25.90Q210.86 25.90 209.44 25.16Q208.01 24.43 207.20 22.94Q206.40 21.46 206.40 19.27L206.40 19.27Q206.40 17.11 207.12 15.60Q207.84 14.09 209.16 13.28Q210.48 12.48 212.23 12.48ZM212.26 14.45L212.26 14.45Q210.86 14.45 210.05 15.34Q209.23 16.22 209.06 17.86L209.06 17.86L215.16 17.86Q215.14 16.34 214.44 15.40Q213.74 14.45 212.26 14.45ZM226.01 12.48L226.01 12.48Q227.71 12.48 228.95 13.19Q230.18 13.90 230.83 15.22Q231.48 16.54 231.48 18.34L231.48 18.34L231.48 19.75L222.79 19.75Q222.84 21.72 223.85 22.78Q224.86 23.83 226.68 23.83L226.68 23.83Q227.90 23.83 228.86 23.60Q229.82 23.38 230.86 22.92L230.86 22.92L230.86 25.03Q229.87 25.46 228.89 25.68Q227.90 25.90 226.51 25.90L226.51 25.90Q224.64 25.90 223.21 25.16Q221.78 24.43 220.98 22.94Q220.18 21.46 220.18 19.27L220.18 19.27Q220.18 17.11 220.90 15.60Q221.62 14.09 222.94 13.28Q224.26 12.48 226.01 12.48ZM226.03 14.45L226.03 14.45Q224.64 14.45 223.82 15.34Q223.01 16.22 222.84 17.86L222.84 17.86L228.94 17.86Q228.91 16.34 228.22 15.40Q227.52 14.45 226.03 14.45ZM245.83 15.02L245.83 15.02Q247.51 15.02 248.80 15.62Q250.08 16.22 250.78 17.36Q251.47 18.50 251.47 20.14L251.47 20.14Q251.47 21.94 250.70 23.23Q249.94 24.53 248.50 25.21Q247.06 25.90 244.97 25.90L244.97 25.90Q243.62 25.90 242.45 25.66Q241.27 25.42 240.46 24.96L240.46 24.96L240.46 22.66Q241.32 23.16 242.57 23.46Q243.82 23.76 244.92 23.76L244.92 23.76Q246.72 23.76 247.80 22.92Q248.88 22.08 248.88 20.35L248.88 20.35Q248.88 18.79 247.90 17.95Q246.91 17.11 244.85 17.11L244.85 17.11Q244.18 17.11 243.36 17.23Q242.54 17.35 242.02 17.47L242.02 17.47L240.84 16.78L241.49 8.52L250.30 8.52L250.30 10.80L243.67 10.80L243.29 15.26Q243.70 15.19 244.34 15.11Q244.99 15.02 245.83 15.02ZM265.49 17.06L265.49 17.06Q265.49 19.82 264.91 21.80Q264.34 23.78 263.06 24.84Q261.79 25.90 259.68 25.90L259.68 25.90Q256.73 25.90 255.32 23.56Q253.92 21.22 253.92 17.06L253.92 17.06Q253.92 14.28 254.50 12.31Q255.07 10.34 256.34 9.30Q257.62 8.26 259.68 8.26L259.68 8.26Q261.65 8.26 262.93 9.30Q264.22 10.34 264.85 12.31Q265.49 14.28 265.49 17.06ZM256.49 17.06L256.49 17.06Q256.49 20.42 257.21 22.09Q257.93 23.76 259.68 23.76L259.68 23.76Q261.43 23.76 262.18 22.10Q262.92 20.45 262.92 17.06L262.92 17.06Q262.92 14.83 262.60 13.36Q262.27 11.88 261.58 11.14Q260.88 10.39 259.68 10.39L259.68 10.39Q258.50 10.39 257.81 11.14Q257.11 11.88 256.80 13.36Q256.49 14.83 256.49 17.06ZM279.29 17.06L279.29 17.06Q279.29 19.82 278.71 21.80Q278.14 23.78 276.86 24.84Q275.59 25.90 273.48 25.90L273.48 25.90Q270.53 25.90 269.12 23.56Q267.72 21.22 267.72 17.06L267.72 17.06Q267.72 14.28 268.30 12.31Q268.87 10.34 270.14 9.30Q271.42 8.26 273.48 8.26L273.48 8.26Q275.45 8.26 276.73 9.30Q278.02 10.34 278.65 12.31Q279.29 14.28 279.29 17.06ZM270.29 17.06L270.29 17.06Q270.29 20.42 271.01 22.09Q271.73 23.76 273.48 23.76L273.48 23.76Q275.23 23.76 275.98 22.10Q276.72 20.45 276.72 17.06L276.72 17.06Q276.72 14.83 276.40 13.36Q276.07 11.88 275.38 11.14Q274.68 10.39 273.48 10.39L273.48 10.39Q272.30 10.39 271.61 11.14Q270.91 11.88 270.60 13.36Q270.29 14.83 270.29 17.06ZM295.27 12.48L295.27 12.48Q297.55 12.48 298.74 13.60Q299.93 14.71 299.93 17.23L299.93 17.23L299.93 25.66L297.41 25.66L297.41 17.59Q297.41 16.08 296.76 15.34Q296.11 14.59 294.74 14.59L294.74 14.59Q292.78 14.59 292.02 15.76Q291.26 16.92 291.26 19.13L291.26 19.13L291.26 25.66L288.72 25.66L288.72 12.72L290.74 12.72L291.10 14.47L291.22 14.47Q291.65 13.80 292.28 13.36Q292.92 12.91 293.69 12.70Q294.46 12.48 295.27 12.48ZM315.22 19.15L315.22 19.15Q315.22 21.31 314.47 22.82Q313.73 24.34 312.35 25.12Q310.97 25.90 309.10 25.90L309.10 25.90Q307.34 25.90 305.99 25.12Q304.63 24.34 303.85 22.82Q303.07 21.31 303.07 19.15L303.07 19.15Q303.07 15.96 304.70 14.22Q306.34 12.48 309.17 12.48L309.17 12.48Q310.94 12.48 312.30 13.26Q313.66 14.04 314.44 15.53Q315.22 17.02 315.22 19.15ZM305.69 19.15L305.69 19.15Q305.69 20.62 306.05 21.67Q306.41 22.73 307.18 23.29Q307.94 23.86 309.14 23.86L309.14 23.86Q310.34 23.86 311.10 23.29Q311.86 22.73 312.22 21.67Q312.58 20.62 312.58 19.15L312.58 19.15Q312.58 17.69 312.20 16.67Q311.83 15.65 311.08 15.10Q310.32 14.54 309.12 14.54L309.12 14.54Q307.32 14.54 306.50 15.77Q305.69 16.99 305.69 19.15ZM324.79 12.48L324.79 12.48Q325.15 12.48 325.57 12.52Q325.99 12.55 326.28 12.62L326.28 12.62L325.99 15.00Q325.68 14.93 325.32 14.88Q324.96 14.83 324.55 14.83L324.55 14.83Q323.66 14.83 322.84 15.30Q322.01 15.77 321.49 16.67Q320.98 17.57 320.98 18.86L320.98 18.86L320.98 25.66L318.43 25.66L318.43 12.72L320.45 12.72L320.78 15.02L320.90 15.02Q321.50 13.99 322.49 13.24Q323.47 12.48 324.79 12.48ZM343.06 12.48L343.06 12.48Q345.26 12.48 346.37 13.60Q347.47 14.71 347.47 17.23L347.47 17.23L347.47 25.66L344.93 25.66L344.93 17.57Q344.93 16.06 344.33 15.32Q343.73 14.59 342.50 14.59L342.50 14.59Q340.75 14.59 340.02 15.65Q339.29 16.70 339.29 18.72L339.29 18.72L339.29 25.66L336.74 25.66L336.74 17.57Q336.74 16.06 336.14 15.32Q335.54 14.59 334.30 14.59L334.30 14.59Q333.10 14.59 332.41 15.12Q331.73 15.65 331.43 16.66Q331.13 17.66 331.13 19.13L331.13 19.13L331.13 25.66L328.58 25.66L328.58 12.72L330.60 12.72L330.96 14.45L331.08 14.45Q331.49 13.80 332.08 13.36Q332.66 12.91 333.38 12.70Q334.10 12.48 334.92 12.48L334.92 12.48Q336.41 12.48 337.39 13.00Q338.38 13.51 338.86 14.59L338.86 14.59L338.98 14.59Q339.62 13.51 340.72 13.00Q341.81 12.48 343.06 12.48ZM356.47 12.50L356.47 12.50Q358.85 12.50 360.02 13.57Q361.20 14.64 361.20 16.90L361.20 16.90L361.20 25.66L359.38 25.66L358.87 23.86L358.78 23.86Q358.22 24.55 357.64 25.01Q357.05 25.46 356.29 25.68Q355.54 25.90 354.46 25.90L354.46 25.90Q352.70 25.90 351.55 24.95Q350.40 24 350.40 21.98L350.40 21.98Q350.40 20.04 351.91 19.00Q353.42 17.95 356.50 17.86L356.50 17.86L358.68 17.78L358.68 17.11Q358.68 15.62 358.03 15.05Q357.38 14.47 356.21 14.47L356.21 14.47Q355.25 14.47 354.32 14.77Q353.40 15.07 352.58 15.46L352.58 15.46L351.82 13.61Q352.70 13.13 353.90 12.82Q355.10 12.50 356.47 12.50ZM358.68 19.44L356.93 19.51Q354.74 19.58 353.89 20.21Q353.04 20.83 353.04 21.96L353.04 21.96Q353.04 22.97 353.64 23.44Q354.24 23.90 355.20 23.90L355.20 23.90Q356.69 23.90 357.68 23.08Q358.68 22.25 358.68 20.57L358.68 20.57L358.68 19.44ZM367.58 7.42L367.58 25.66L365.04 25.66L365.04 7.42L367.58 7.42Z"/></svg>