<svg xmlns="http://www.w3.org/2000/svg" xmlns:xlink="http://www.w3.org/1999/xlink" width="388.68000000000006" height="32.688"><path fill="black" d="M17.69 8.52L17.69 25.66L12.36 25.66L5.50 13.13L5.40 13.13Q5.45 13.68 5.50 14.46Q5.54 15.24 5.58 16.04Q5.62 16.85 5.62 17.54L5.62 17.54L5.62 25.66L1.94 25.66L1.94 8.52L7.25 8.52L14.11 20.90L14.18 20.90Q14.16 20.38 14.11 19.63Q14.06 18.89 14.04 18.08Q14.02 17.28 14.02 16.68L14.02 16.68L14.02 8.52L17.69 8.52ZM33.67 19.03L33.67 19.03Q33.67 21.22 32.88 22.75Q32.09 24.29 30.64 25.09Q29.18 25.90 27.14 25.90L27.14 25.90Q25.30 25.90 23.83 25.09Q22.37 24.29 21.54 22.75Q20.71 21.22 20.71 19.03L20.71 19.03Q20.71 15.77 22.45 14.00Q24.19 12.24 27.24 12.24L27.24 12.24Q29.11 12.24 30.56 13.02Q32.02 13.80 32.84 15.32Q33.67 16.85 33.67 19.03ZM24.84 19.03L24.84 19.03Q24.84 20.23 25.08 21.10Q25.32 21.96 25.85 22.39Q26.38 22.82 27.22 22.82L27.22 22.82Q28.06 22.82 28.56 22.39Q29.06 21.96 29.30 21.10Q29.54 20.23 29.54 19.03L29.54 19.03Q29.54 17.81 29.30 16.98Q29.06 16.15 28.55 15.72Q28.03 15.29 27.19 15.29L27.19 15.29Q25.94 15.29 25.39 16.25Q24.84 17.21 24.84 19.03ZM42.48 22.68L42.48 22.68Q43.06 22.68 43.57 22.55Q44.09 22.42 44.59 22.25L44.59 22.25L44.59 25.22Q43.94 25.51 43.14 25.70Q42.34 25.90 41.21 25.90L41.21 25.90Q39.96 25.90 39.01 25.50Q38.06 25.10 37.52 24.13Q36.98 23.16 36.98 21.41L36.98 21.41L36.98 15.53L35.33 15.53L35.33 13.82L37.32 12.53L38.42 9.74L41.06 9.74L41.06 12.48L44.42 12.48L44.42 15.53L41.06 15.53L41.06 21.17Q41.06 21.91 41.44 22.30Q41.81 22.68 42.48 22.68ZM59.33 19.03L59.33 19.03Q59.33 21.22 58.54 22.75Q57.74 24.29 56.29 25.09Q54.84 25.90 52.80 25.90L52.80 25.90Q50.95 25.90 49.49 25.09Q48.02 24.29 47.20 22.75Q46.37 21.22 46.37 19.03L46.37 19.03Q46.37 15.77 48.11 14.00Q49.85 12.24 52.90 12.24L52.90 12.24Q54.77 12.24 56.22 13.02Q57.67 13.80 58.50 15.32Q59.33 16.85 59.33 19.03ZM50.50 19.03L50.50 19.03Q50.50 20.23 50.74 21.10Q50.98 21.96 51.50 22.39Q52.03 22.82 52.87 22.82L52.87 22.82Q53.71 22.82 54.22 22.39Q54.72 21.96 54.96 21.10Q55.20 20.23 55.20 19.03L55.20 19.03Q55.20 17.81 54.96 16.98Q54.72 16.15 54.20 15.72Q53.69 15.29 52.85 15.29L52.85 15.29Q51.60 15.29 51.05 16.25Q50.50 17.21 50.50 19.03ZM79.87 20.57L79.87 20.57Q79.87 22.01 79.16 23.22Q78.46 24.43 76.99 25.16Q75.53 25.90 73.27 25.90L73.27 25.90Q72.14 25.90 71.27 25.79Q70.39 25.68 69.64 25.45Q68.88 25.22 68.11 24.86L68.11 24.86L68.11 21.17Q69.41 21.82 70.80 22.18Q72.19 22.54 73.37 22.54L73.37 22.54Q74.18 22.54 74.71 22.33Q75.24 22.13 75.50 21.77Q75.77 21.41 75.77 20.95L75.77 20.95Q75.77 20.40 75.44 20.04Q75.12 19.68 74.40 19.31Q73.68 18.94 72.48 18.41L72.48 18.41Q71.16 17.83 70.21 17.17Q69.26 16.51 68.76 15.55Q68.26 14.59 68.26 13.15L68.26 13.15Q68.26 11.57 69.05 10.48Q69.84 9.38 71.24 8.83Q72.65 8.28 74.52 8.28L74.52 8.28Q76.13 8.28 77.44 8.63Q78.74 8.98 79.80 9.46L79.80 9.46L78.53 12.67Q77.47 12.19 76.40 11.89Q75.34 11.59 74.40 11.59L74.40 11.59Q73.68 11.59 73.22 11.77Q72.77 11.95 72.55 12.28Q72.34 12.60 72.34 12.98L72.34 12.98Q72.34 13.49 72.66 13.86Q72.98 14.23 73.74 14.63Q74.50 15.02 75.79 15.58L75.79 15.58Q77.09 16.13 78 16.79Q78.91 17.45 79.39 18.34Q79.87 19.22 79.87 20.57ZM88.56 12.24L88.56 12.24Q91.03 12.24 92.39 13.44Q93.74 14.64 93.74 16.94L93.74 16.94L93.74 25.66L90.94 25.66L90.14 23.88L90.05 23.88Q89.50 24.58 88.91 25.03Q88.32 25.49 87.55 25.69Q86.78 25.90 85.68 25.90L85.68 25.90Q83.95 25.90 82.80 24.86Q81.65 23.83 81.65 21.70L81.65 21.70Q81.65 19.61 83.14 18.58Q84.62 17.54 87.50 17.42L87.50 17.42L89.69 17.35L89.69 17.04Q89.69 16.01 89.21 15.58Q88.73 15.14 87.86 15.14L87.86 15.14Q87.02 15.14 86.08 15.43Q85.13 15.72 84.19 16.13L84.19 16.13L83.02 13.42Q84.10 12.84 85.49 12.54Q86.88 12.24 88.56 12.24ZM89.71 19.66L88.49 19.70Q87.00 19.75 86.39 20.21Q85.78 20.66 85.78 21.50L85.78 21.50Q85.78 22.25 86.21 22.61Q86.64 22.97 87.31 22.97L87.31 22.97Q88.32 22.97 89.02 22.37Q89.71 21.77 89.71 20.71L89.71 20.71L89.71 19.66ZM104.93 12.24L104.93 12.24Q107.04 12.24 108.31 13.38Q109.58 14.52 109.58 17.06L109.58 17.06L109.58 25.66L105.50 25.66L105.50 18.19Q105.50 16.82 105.06 16.14Q104.62 15.46 103.63 15.46L103.63 15.46Q102.17 15.46 101.64 16.54Q101.11 17.62 101.11 19.66L101.11 19.66L101.11 25.66L97.06 25.66L97.06 12.48L100.13 12.48L100.70 14.23L100.87 14.23Q101.30 13.58 101.89 13.14Q102.48 12.70 103.25 12.47Q104.02 12.24 104.93 12.24ZM122.42 21.70L122.42 21.70Q122.42 22.94 121.85 23.89Q121.27 24.84 120.05 25.37Q118.82 25.90 116.90 25.90L116.90 25.90Q115.51 25.90 114.42 25.73Q113.33 25.56 112.27 25.13L112.27 25.13L112.27 21.84Q113.42 22.37 114.68 22.63Q115.94 22.90 116.76 22.90L116.76 22.90Q117.72 22.90 118.15 22.66Q118.58 22.42 118.58 21.98L118.58 21.98Q118.58 21.65 118.34 21.40Q118.10 21.14 117.47 20.86Q116.83 20.57 115.68 20.11L115.68 20.11Q114.55 19.63 113.78 19.10Q113.02 18.58 112.63 17.84Q112.25 17.11 112.25 16.03L112.25 16.03Q112.25 14.16 113.71 13.20Q115.18 12.24 117.58 12.24L117.58 12.24Q118.87 12.24 120 12.52Q121.13 12.79 122.28 13.30L122.28 13.30L121.15 15.98Q120.22 15.55 119.23 15.30Q118.25 15.05 117.58 15.05L117.58 15.05Q116.88 15.05 116.50 15.24Q116.11 15.43 116.11 15.79L116.11 15.79Q116.11 16.10 116.34 16.33Q116.57 16.56 117.18 16.82Q117.79 17.09 118.92 17.54L118.92 17.54Q120.10 18 120.86 18.53Q121.63 19.06 122.03 19.80Q122.42 20.54 122.42 21.70ZM139.56 11.66L139.56 11.66Q138.31 11.66 137.41 12.32Q136.51 12.98 136.02 14.21Q135.53 15.43 135.53 17.14L135.53 17.14Q135.53 18.86 136.00 20.06Q136.46 21.26 137.40 21.89Q138.34 22.51 139.75 22.51L139.75 22.51Q140.88 22.51 141.94 22.22Q142.99 21.94 144.05 21.50L144.05 21.50L144.05 24.98Q142.97 25.46 141.80 25.68Q140.64 25.90 139.30 25.90L139.30 25.90Q136.54 25.90 134.77 24.79Q133.01 23.69 132.16 21.71Q131.30 19.73 131.30 17.11L131.30 17.11Q131.30 14.52 132.26 12.54Q133.22 10.56 135.08 9.42Q136.94 8.28 139.58 8.28L139.58 8.28Q140.86 8.28 142.20 8.57Q143.54 8.86 144.77 9.43L144.77 9.43L143.47 12.70Q142.58 12.26 141.61 11.96Q140.64 11.66 139.56 11.66ZM151.25 7.42L151.25 10.58Q151.25 11.83 151.19 12.73Q151.13 13.63 151.08 14.14L151.08 14.14L151.27 14.14Q151.70 13.44 152.27 13.03Q152.83 12.62 153.52 12.43Q154.20 12.24 155.02 12.24L155.02 12.24Q156.38 12.24 157.43 12.74Q158.47 13.25 159.10 14.30Q159.72 15.36 159.72 17.06L159.72 17.06L159.72 25.66L155.64 25.66L155.64 18.19Q155.64 16.82 155.18 16.14Q154.73 15.46 153.77 15.46L153.77 15.46Q152.33 15.46 151.79 16.54Q151.25 17.62 151.25 19.66L151.25 19.66L151.25 25.66L147.19 25.66L147.19 7.42L151.25 7.42ZM168.77 12.24L168.77 12.24Q170.66 12.24 172.02 12.91Q173.38 13.58 174.11 14.93Q174.84 16.27 174.84 18.24L174.84 18.24L174.84 20.14L166.51 20.14Q166.56 21.41 167.36 22.18Q168.17 22.94 169.68 22.94L169.68 22.94Q170.93 22.94 171.94 22.70Q172.94 22.46 174.02 21.96L174.02 21.96L174.02 24.94Q173.06 25.44 171.96 25.67Q170.86 25.90 169.22 25.90L169.22 25.90Q167.23 25.90 165.70 25.18Q164.16 24.46 163.28 22.96Q162.41 21.46 162.41 19.15L162.41 19.15Q162.41 16.80 163.21 15.28Q164.02 13.75 165.44 13.00Q166.87 12.24 168.77 12.24ZM168.89 15.05L168.89 15.05Q167.93 15.05 167.33 15.66Q166.73 16.27 166.61 17.50L166.61 17.50L171.10 17.50Q171.07 16.46 170.52 15.76Q169.97 15.05 168.89 15.05ZM185.16 12.24L185.16 12.24Q185.54 12.24 185.95 12.28Q186.36 12.31 186.58 12.38L186.58 12.38L186.22 16.20Q185.95 16.15 185.60 16.10Q185.26 16.06 184.68 16.06L184.68 16.06Q184.03 16.06 183.32 16.30Q182.62 16.54 182.12 17.18Q181.63 17.83 181.63 19.06L181.63 19.06L181.63 25.66L177.58 25.66L177.58 12.48L180.62 12.48L181.25 14.64L181.44 14.64Q182.02 13.63 183 12.94Q183.98 12.24 185.16 12.24ZM200.42 19.03L200.42 19.03Q200.42 21.22 199.63 22.75Q198.84 24.29 197.39 25.09Q195.94 25.90 193.90 25.90L193.90 25.90Q192.05 25.90 190.58 25.09Q189.12 24.29 188.29 22.75Q187.46 21.22 187.46 19.03L187.46 19.03Q187.46 15.77 189.20 14.00Q190.94 12.24 193.99 12.24L193.99 12.24Q195.86 12.24 197.32 13.02Q198.77 13.80 199.60 15.32Q200.42 16.85 200.42 19.03ZM191.59 19.03L191.59 19.03Q191.59 20.23 191.83 21.10Q192.07 21.96 192.60 22.39Q193.13 22.82 193.97 22.82L193.97 22.82Q194.81 22.82 195.31 22.39Q195.82 21.96 196.06 21.10Q196.30 20.23 196.30 19.03L196.30 19.03Q196.30 17.81 196.06 16.98Q195.82 16.15 195.30 15.72Q194.78 15.29 193.94 15.29L193.94 15.29Q192.70 15.29 192.14 16.25Q191.59 17.21 191.59 19.03ZM207.26 7.42L207.26 15.10Q207.26 15.82 207.20 16.73Q207.14 17.64 207.02 18.36L207.02 18.36L207.12 18.36Q207.31 18.10 207.56 17.72Q207.82 17.35 208.08 16.98Q208.34 16.61 208.56 16.34L208.56 16.34L211.78 12.48L216.34 12.48L211.61 18.07L216.65 25.66L211.97 25.66L208.75 20.64L207.26 21.79L207.26 25.66L203.18 25.66L203.18 7.42L207.26 7.42ZM224.14 12.24L224.14 12.24Q226.03 12.24 227.39 12.91Q228.74 13.58 229.48 14.93Q230.21 16.27 230.21 18.24L230.21 18.24L230.21 20.14L221.88 20.14Q221.93 21.41 222.73 22.18Q223.54 22.94 225.05 22.94L225.05 22.94Q226.30 22.94 227.30 22.70Q228.31 22.46 229.39 21.96L229.39 21.96L229.39 24.94Q228.43 25.44 227.33 25.67Q226.22 25.90 224.59 25.90L224.59 25.90Q222.60 25.90 221.06 25.18Q219.53 24.46 218.65 22.96Q217.78 21.46 217.78 19.15L217.78 19.15Q217.78 16.80 218.58 15.28Q219.38 13.75 220.81 13.00Q222.24 12.24 224.14 12.24ZM224.26 15.05L224.26 15.05Q223.30 15.05 222.70 15.66Q222.10 16.27 221.98 17.50L221.98 17.50L226.46 17.50Q226.44 16.46 225.89 15.76Q225.34 15.05 224.26 15.05ZM238.70 12.24L238.70 12.24Q240.60 12.24 241.96 12.91Q243.31 13.58 244.04 14.93Q244.78 16.27 244.78 18.24L244.78 18.24L244.78 20.14L236.45 20.14Q236.50 21.41 237.30 22.18Q238.10 22.94 239.62 22.94L239.62 22.94Q240.86 22.94 241.87 22.70Q242.88 22.46 243.96 21.96L243.96 21.96L243.96 24.94Q243 25.44 241.90 25.67Q240.79 25.90 239.16 25.90L239.16 25.90Q237.17 25.90 235.63 25.18Q234.10 24.46 233.22 22.96Q232.34 21.46 232.34 19.15L232.34 19.15Q232.34 16.80 233.15 15.28Q233.95 13.75 235.38 13.00Q236.81 12.24 238.70 12.24ZM238.82 15.05L238.82 15.05Q237.86 15.05 237.26 15.66Q236.66 16.27 236.54 17.50L236.54 17.50L241.03 17.50Q241.01 16.46 240.46 15.76Q239.90 15.05 238.82 15.05ZM259.49 8.28L259.49 8.28Q261.96 8.28 263.52 9.31Q265.08 10.34 265.08 12.43L265.08 12.43Q265.08 13.46 264.68 14.24Q264.29 15.02 263.60 15.60Q262.92 16.18 262.06 16.63L262.06 16.63Q262.92 17.09 263.72 17.70Q264.53 18.31 265.06 19.15Q265.58 19.99 265.58 21.12L265.58 21.12Q265.58 22.51 264.91 23.59Q264.24 24.67 262.88 25.28Q261.53 25.90 259.46 25.90L259.46 25.90Q257.38 25.90 256.01 25.31Q254.64 24.72 253.98 23.65Q253.32 22.58 253.32 21.17L253.32 21.17Q253.32 19.97 253.75 19.15Q254.18 18.34 254.92 17.75Q255.65 17.16 256.54 16.70L256.54 16.70Q255.79 16.22 255.18 15.61Q254.57 15.00 254.21 14.21Q253.85 13.42 253.85 12.41L253.85 12.41Q253.85 11.04 254.58 10.13Q255.31 9.22 256.58 8.75Q257.86 8.28 259.49 8.28ZM257.11 21.02L257.11 21.02Q257.11 21.86 257.71 22.38Q258.31 22.90 259.42 22.90L259.42 22.90Q260.62 22.90 261.20 22.40Q261.79 21.91 261.79 21.10L261.79 21.10Q261.79 20.50 261.46 20.02Q261.12 19.54 260.63 19.19Q260.14 18.84 259.66 18.62L259.66 18.62L259.34 18.43Q258.70 18.74 258.19 19.12Q257.69 19.49 257.40 19.96Q257.11 20.42 257.11 21.02ZM259.46 11.28L259.46 11.28Q258.72 11.28 258.22 11.68Q257.71 12.07 257.71 12.77L257.71 12.77Q257.71 13.25 257.94 13.63Q258.17 14.02 258.56 14.32Q258.96 14.62 259.44 14.88L259.44 14.88Q260.11 14.54 260.66 14.06Q261.22 13.58 261.22 12.77L261.22 12.77Q261.22 12.07 260.70 11.68Q260.18 11.28 259.46 11.28ZM279.53 17.11L279.53 17.11Q279.53 19.85 278.94 21.82Q278.35 23.78 277.02 24.84Q275.69 25.90 273.43 25.90L273.43 25.90Q270.29 25.90 268.82 23.57Q267.36 21.24 267.36 17.11L267.36 17.11Q267.36 14.33 267.95 12.36Q268.54 10.39 269.87 9.34Q271.20 8.28 273.43 8.28L273.43 8.28Q275.52 8.28 276.88 9.32Q278.23 10.37 278.88 12.35Q279.53 14.33 279.53 17.11ZM271.44 17.11L271.44 17.11Q271.44 19.82 271.86 21.22Q272.28 22.61 273.43 22.61L273.43 22.61Q274.61 22.61 275.03 21.23Q275.45 19.85 275.45 17.11L275.45 17.11Q275.45 15.26 275.27 14.04Q275.09 12.82 274.66 12.19Q274.22 11.57 273.43 11.57L273.43 11.57Q272.66 11.57 272.23 12.19Q271.80 12.82 271.62 14.04Q271.44 15.26 271.44 17.11ZM293.52 17.11L293.52 17.11Q293.52 19.85 292.93 21.82Q292.34 23.78 291.01 24.84Q289.68 25.90 287.42 25.90L287.42 25.90Q284.28 25.90 282.82 23.57Q281.35 21.24 281.35 17.11L281.35 17.11Q281.35 14.33 281.94 12.36Q282.53 10.39 283.86 9.34Q285.19 8.28 287.42 8.28L287.42 8.28Q289.51 8.28 290.87 9.32Q292.22 10.37 292.87 12.35Q293.52 14.33 293.52 17.11ZM285.43 17.11L285.43 17.11Q285.43 19.82 285.85 21.22Q286.27 22.61 287.42 22.61L287.42 22.61Q288.60 22.61 289.02 21.23Q289.44 19.85 289.44 17.11L289.44 17.11Q289.44 15.26 289.26 14.04Q289.08 12.82 288.65 12.19Q288.22 11.57 287.42 11.57L287.42 11.57Q286.66 11.57 286.22 12.19Q285.79 12.82 285.61 14.04Q285.43 15.26 285.43 17.11ZM310.61 12.24L310.61 12.24Q312.72 12.24 313.99 13.38Q315.26 14.52 315.26 17.06L315.26 17.06L315.26 25.66L311.18 25.66L311.18 18.19Q311.18 16.82 310.74 16.14Q310.30 15.46 309.31 15.46L309.31 15.46Q307.85 15.46 307.32 16.54Q306.79 17.62 306.79 19.66L306.79 19.66L306.79 25.66L302.74 25.66L302.74 12.48L305.81 12.48L306.38 14.23L306.55 14.23Q306.98 13.58 307.57 13.14Q308.16 12.70 308.93 12.47Q309.70 12.24 310.61 12.24ZM330.91 19.03L330.91 19.03Q330.91 21.22 330.12 22.75Q329.33 24.29 327.88 25.09Q326.42 25.90 324.38 25.90L324.38 25.90Q322.54 25.90 321.07 25.09Q319.61 24.29 318.78 22.75Q317.95 21.22 317.95 19.03L317.95 19.03Q317.95 15.77 319.69 14.00Q321.43 12.24 324.48 12.24L324.48 12.24Q326.35 12.24 327.80 13.02Q329.26 13.80 330.08 15.32Q330.91 16.85 330.91 19.03ZM322.08 19.03L322.08 19.03Q322.08 20.23 322.32 21.10Q322.56 21.96 323.09 22.39Q323.62 22.82 324.46 22.82L324.46 22.82Q325.30 22.82 325.80 22.39Q326.30 21.96 326.54 21.10Q326.78 20.23 326.78 19.03L326.78 19.03Q326.78 17.81 326.54 16.98Q326.30 16.15 325.79 15.72Q325.27 15.29 324.43 15.29L324.43 15.29Q323.18 15.29 322.63 16.25Q322.08 17.21 322.08 19.03ZM341.26 12.24L341.26 12.24Q341.64 12.24 342.05 12.28Q342.46 12.31 342.67 12.38L342.67 12.38L342.31 16.20Q342.05 16.15 341.70 16.10Q341.35 16.06 340.78 16.06L340.78 16.06Q340.13 16.06 339.42 16.30Q338.71 16.54 338.22 17.18Q337.73 17.83 337.73 19.06L337.73 19.06L337.73 25.66L333.67 25.66L333.67 12.48L336.72 12.48L337.34 14.64L337.54 14.64Q338.11 13.63 339.10 12.94Q340.08 12.24 341.26 12.24ZM360.41 12.24L360.41 12.24Q362.66 12.24 363.84 13.38Q365.02 14.52 365.02 17.06L365.02 17.06L365.02 25.66L360.96 25.66L360.96 18.22Q360.96 16.70 360.50 16.08Q360.05 15.46 359.14 15.46L359.14 15.46Q357.86 15.46 357.36 16.44Q356.86 17.42 356.86 19.27L356.86 19.27L356.86 25.66L352.78 25.66L352.78 18.22Q352.78 16.75 352.34 16.10Q351.91 15.46 351.02 15.46L351.02 15.46Q350.11 15.46 349.61 15.95Q349.10 16.44 348.90 17.38Q348.70 18.31 348.70 19.66L348.70 19.66L348.70 25.66L344.64 25.66L344.64 12.48L347.74 12.48L348.34 14.14L348.46 14.14Q348.82 13.56 349.38 13.13Q349.94 12.70 350.70 12.47Q351.46 12.24 352.39 12.24L352.39 12.24Q353.86 12.24 354.82 12.73Q355.78 13.22 356.35 14.14L356.35 14.14L356.47 14.14Q357.12 13.20 358.14 12.72Q359.16 12.24 360.41 12.24ZM374.45 12.24L374.45 12.24Q376.92 12.24 378.28 13.44Q379.63 14.64 379.63 16.94L379.63 16.94L379.63 25.66L376.82 25.66L376.03 23.88L375.94 23.88Q375.38 24.58 374.80 25.03Q374.21 25.49 373.44 25.69Q372.67 25.90 371.57 25.90L371.57 25.90Q369.84 25.90 368.69 24.86Q367.54 23.83 367.54 21.70L367.54 21.70Q367.54 19.61 369.02 18.58Q370.51 17.54 373.39 17.42L373.39 17.42L375.58 17.35L375.58 17.04Q375.58 16.01 375.10 15.58Q374.62 15.14 373.75 15.14L373.75 15.14Q372.91 15.14 371.96 15.43Q371.02 15.72 370.08 16.13L370.08 16.13L368.90 13.42Q369.98 12.84 371.38 12.54Q372.77 12.24 374.45 12.24ZM375.60 19.66L374.38 19.70Q372.89 19.75 372.28 20.21Q371.66 20.66 371.66 21.50L371.66 21.50Q371.66 22.25 372.10 22.61Q372.53 22.97 373.20 22.97L373.20 22.97Q374.21 22.97 374.90 22.37Q375.60 21.77 375.60 20.71L375.60 20.71L375.60 19.66ZM387.00 7.42L387.00 25.66L382.94 25.66L382.94 7.42L387.00 7.42Z"/></svg>