<svg xmlns="http://www.w3.org/2000/svg" xmlns:xlink="http://www.w3.org/1999/xlink" width="296.15999999999997" height="37.464"><path fill="black" d="M5.98 19.68L5.98 19.68Q7.94 19.32 9.73 19.32Q11.52 19.32 13.01 19.63L13.01 19.63Q13.51 18.67 13.51 17.95L13.51 17.95Q13.51 16.44 11.52 16.44L11.52 16.44Q9.82 16.44 8.34 17.36Q6.86 18.29 5.98 19.68ZM7.13 25.13L7.13 25.13Q8.02 25.46 9.34 25.46L9.34 25.46Q12.82 25.46 16.70 22.06L16.70 22.06Q15.55 20.76 13.56 20.14L13.56 20.14Q12.72 21.65 11.02 23.02Q9.31 24.38 7.13 25.13ZM4.73 22.44L4.73 22.44Q4.73 21.26 5.38 20.06L5.38 20.06Q2.98 20.66 1.54 21.78Q0.10 22.90 0.10 23.93L0.10 23.93Q0.10 24.65 0.88 25.09Q1.66 25.54 3.13 25.54Q4.61 25.54 6.12 25.08L6.12 25.08Q4.73 24.17 4.73 22.44ZM12.84 19.92L12.84 19.92Q11.28 19.56 9.49 19.56Q7.70 19.56 5.78 19.97L5.78 19.97Q5.09 21.17 5.09 22.37L5.09 22.37Q5.09 24.10 6.60 24.91L6.60 24.91Q8.62 24.17 10.30 22.78Q11.98 21.38 12.84 19.92ZM30.14 25.85L30.14 25.85Q32.02 25.85 33.66 24.71Q35.30 23.57 36.14 22.15Q36.98 20.74 36.98 19.66L36.98 19.66Q36.98 18.29 35.78 18.29L35.78 18.29Q34.51 18.29 33.12 19.48Q31.73 20.66 30.80 22.42Q29.88 24.17 29.88 25.70L29.88 25.70L29.88 25.82Q29.95 25.85 30.14 25.85ZM15.12 12.17L15.12 12.17L15.14 12.58L15.48 12.58Q17.64 12.58 19.64 11.96Q21.65 11.35 22.97 10.44Q24.29 9.53 25.07 8.51Q25.85 7.49 25.85 6.67Q25.85 5.86 25.16 5.39Q24.48 4.92 23.14 4.92L23.14 4.92Q21.10 4.92 19.20 6.12Q17.30 7.32 16.21 9Q15.12 10.68 15.12 12.17ZM19.03 1.27L19.03 1.27L19.10 1.56Q15.36 2.09 12.85 4.40Q10.34 6.72 10.34 9.07L10.34 9.07Q10.34 10.46 11.35 11.39Q12.36 12.31 14.38 12.53L14.38 12.53Q14.33 12.10 14.33 11.86L14.33 11.86Q14.33 10.66 15 9.37Q15.67 8.09 16.82 7.00Q17.98 5.90 19.70 5.20Q21.43 4.49 23.12 4.49Q24.82 4.49 25.55 5.03Q26.28 5.57 26.28 6.50Q26.28 7.44 25.49 8.53Q24.70 9.62 23.33 10.61Q21.96 11.59 19.84 12.24Q17.71 12.89 15.34 12.89L15.34 12.89L15.19 12.89Q15.72 14.93 18.72 14.93L18.72 14.93Q20.26 14.93 22.39 14.02Q24.53 13.10 26.78 11.23L26.78 11.23L26.93 11.42Q26.21 12.05 25.10 12.80Q24 13.56 22.08 14.38Q20.16 15.19 18.60 15.19L18.60 15.19Q15.14 15.19 14.47 12.86L14.47 12.86Q12.24 12.70 11.10 11.69Q9.96 10.68 9.96 9.17L9.96 9.17Q9.96 6.74 12.52 4.34Q15.07 1.94 19.03 1.27ZM34.18 29.06L34.18 29.06Q34.94 29.06 35.81 28.78L35.81 28.78L36 28.90Q35.26 29.30 33.84 29.30L33.84 29.30Q31.70 29.30 30.66 28.40Q29.62 27.50 29.54 25.99L29.54 25.99Q28.56 25.75 27.94 24.90Q27.31 24.05 27.31 22.93Q27.31 21.82 27.86 20.57Q28.42 19.32 29.20 18.19Q29.98 17.06 31.27 15.65Q32.57 14.23 33.55 13.25Q34.54 12.26 36.05 10.94L36.05 10.94Q38.11 9.12 40.10 7.49L40.10 7.49L40.06 7.44Q32.76 11.88 22.03 23.42L22.03 23.42L20.69 25.18Q20.57 25.25 20.47 25.25Q20.38 25.25 20.38 25.10L20.38 25.10L20.66 24.60L23.06 20.81Q25.39 16.92 26.33 15.41L26.33 15.41Q29.62 10.06 32.40 7.54L32.40 7.54Q31.99 7.54 30.19 9.22L30.19 9.22L29.59 9.79Q21.41 18.22 17.35 21.86L17.35 21.86Q18.58 23.16 18.58 24.65L18.58 24.65Q18.58 26.50 16.62 28.02Q14.66 29.54 10.85 30.12L10.85 30.12L10.85 29.86Q14.18 29.33 15.96 27.85Q17.74 26.38 17.74 24.58L17.74 24.58Q17.74 23.38 16.90 22.27L16.90 22.27Q14.95 23.95 13.10 24.86Q11.26 25.78 9.41 25.78Q7.56 25.78 6.55 25.30L6.55 25.30Q4.80 25.80 3.10 25.80Q1.39 25.80 0.48 25.26Q-0.43 24.72-0.43 23.88L-0.43 23.88Q-0.43 22.73 1.15 21.54Q2.74 20.35 5.54 19.75L5.54 19.75Q6.48 18.19 8.15 17.15Q9.82 16.10 11.81 16.10L11.81 16.10Q13.03 16.10 13.63 16.62Q14.23 17.14 14.23 18Q14.23 18.86 13.73 19.82L13.73 19.82Q15.91 20.47 17.14 21.67L17.14 21.67Q17.33 21.48 18.46 20.45Q19.58 19.42 22.48 16.54Q25.37 13.66 27.36 11.62L27.36 11.62L29.33 9.60Q32.40 6.60 34.58 6.12L34.58 6.12Q34.85 6.12 34.85 6.25Q34.85 6.38 34.70 6.43L34.70 6.43Q33.60 6.77 32.64 7.91Q31.68 9.05 30.31 11.04Q28.94 13.03 28.22 14.21L28.22 14.21L24.10 20.76Q24.10 20.78 24.17 20.78L24.17 20.78L24.48 20.54Q29.04 15.74 32.94 12.35Q36.84 8.95 41.21 6.41L41.21 6.41Q42.14 5.78 42.28 5.78Q42.41 5.78 42.41 5.93Q42.41 6.07 42.36 6.12Q42.31 6.17 41.34 6.94Q40.37 7.70 39.55 8.45Q38.74 9.19 38.11 9.77Q37.49 10.34 36.05 11.76Q34.61 13.18 33.71 14.15Q32.81 15.12 31.58 16.57Q30.36 18.02 29.66 19.13L29.66 19.13Q27.94 21.86 27.94 23.62L27.94 23.62Q27.94 24.70 28.75 25.39L28.75 25.39Q29.09 25.68 29.54 25.78L29.54 25.78Q29.54 24.12 30.50 22.28Q31.46 20.45 32.99 19.18Q34.51 17.90 36 17.90L36 17.90Q36.84 17.90 37.36 18.42Q37.87 18.94 37.87 19.87Q37.87 20.81 37.28 21.88Q36.70 22.94 35.71 23.88Q34.73 24.82 33.28 25.45Q31.82 26.09 30.26 26.09L30.26 26.09L29.90 26.06Q30.17 29.06 34.18 29.06ZM38.90 25.34L38.90 25.34Q40.63 25.34 42.26 23.62L42.26 23.62L42.26 23.59Q42.26 22.44 43.37 21.43L43.37 21.43Q43.30 21.17 42.96 21.17L42.96 21.17Q41.18 21.17 39.82 22.50Q38.45 23.83 38.45 24.84L38.45 24.84Q38.45 25.34 38.90 25.34ZM42.62 20.81L42.62 20.81Q43.90 20.81 43.90 21.65L43.90 21.65Q43.90 22.37 43.01 23.38L43.01 23.38L43.01 23.57Q43.01 24.36 43.70 24.36L43.70 24.36Q44.14 24.36 44.66 24L44.66 24L45.84 23.23L45.89 23.59L44.78 24.29Q44.02 24.79 43.28 24.79Q42.55 24.79 42.31 24.05L42.31 24.05Q40.39 25.75 38.66 25.75L38.66 25.75Q37.63 25.75 37.63 24.77L37.63 24.77Q37.63 23.52 39.10 22.16Q40.56 20.81 42.62 20.81ZM49.97 20.83Q50.47 20.83 50.47 21.37Q50.47 21.91 49.70 22.94L49.70 22.94Q52.44 21.05 54.10 21.05L54.10 21.05Q54.74 21.05 54.74 21.60Q54.74 22.15 54.26 22.74Q53.78 23.33 53.21 23.76L53.21 23.76Q51.67 24.86 51.67 25.15L51.67 25.15Q51.67 25.32 51.95 25.32Q52.22 25.32 52.87 25.03Q53.52 24.74 54.02 24.44Q54.53 24.14 55.24 23.70Q55.94 23.26 55.99 23.23L55.99 23.23L56.04 23.59Q52.80 25.75 51.50 25.75L51.50 25.75Q50.88 25.75 50.88 25.15L50.88 25.15Q50.88 24.74 51.40 24.18Q51.91 23.62 52.51 23.14L52.51 23.14Q54.17 21.89 54.17 21.48L54.17 21.48Q54.17 21.36 53.90 21.36L53.90 21.36Q53.02 21.36 51.26 22.32Q49.51 23.28 47.38 25.44L47.38 25.44Q47.23 25.58 46.84 25.58Q46.44 25.58 46.44 25.37L46.44 25.37Q46.44 25.30 48.10 23.59Q49.75 21.89 49.75 21.38L49.75 21.38Q49.75 21.26 49.60 21.26Q49.44 21.26 48.95 21.58Q48.46 21.89 47.44 22.57Q46.42 23.26 45.70 23.71L45.70 23.71L45.62 23.38Q45.98 23.14 46.61 22.70Q47.23 22.27 47.64 22.00Q48.05 21.72 48.53 21.41L48.53 21.41Q49.46 20.83 49.97 20.83ZM59.88 20.33L59.88 20.33Q59.98 20.18 60.11 20.18Q60.24 20.18 60.24 20.33Q60.24 20.47 60.10 20.62Q59.95 20.76 59.89 21.49Q59.83 22.22 59.52 23.27Q59.21 24.31 58.44 25.15L58.44 25.15Q58.44 25.20 58.54 25.20L58.54 25.20Q58.70 25.20 59.76 24.62L59.76 24.62L60.10 24.46Q61.01 23.95 62.04 23.23L62.04 23.23L62.09 23.59Q58.34 26.02 56.35 26.02L56.35 26.02Q55.56 26.02 55.19 25.68Q54.82 25.34 54.82 24.94Q54.82 24.53 55.01 24.28Q55.20 24.02 55.49 24.02L55.49 24.02Q55.85 24.02 55.85 24.41L55.85 24.41Q55.85 24.65 55.46 24.84L55.46 24.84Q55.34 24.91 55.34 25.08Q55.34 25.25 55.62 25.48Q55.90 25.70 56.21 25.70L56.21 25.70Q57.26 25.70 58.02 24.37Q58.78 23.04 58.99 21.72L58.99 21.72L58.99 21.65Q56.66 23.23 55.85 23.71L55.85 23.71L55.78 23.38Q59.69 20.86 59.88 20.33ZM66.94 18.82Q66.94 19.15 66.55 19.46Q66.17 19.78 65.84 19.78Q65.52 19.78 65.52 19.51Q65.52 19.25 65.90 18.90Q66.29 18.55 66.61 18.55Q66.94 18.55 66.94 18.82L66.94 18.82ZM64.90 21.41L64.90 21.41Q61.66 24.34 61.66 25.08L61.66 25.08Q61.66 25.32 61.98 25.32Q62.30 25.32 62.95 25.03Q63.60 24.74 64.10 24.44Q64.61 24.14 65.32 23.70Q66.02 23.26 66.07 23.23L66.07 23.23L66.12 23.59Q65.02 24.31 63.60 25.03Q62.18 25.75 61.45 25.75Q60.72 25.75 60.72 25.15L60.72 25.15Q60.72 24.65 61.58 23.63Q62.45 22.61 63.31 21.84L63.31 21.84L64.18 21.07Q64.30 20.98 64.63 21Q64.97 21.02 64.97 21.24L64.97 21.24Q64.97 21.34 64.90 21.41ZM70.99 21.12L70.99 21.12Q70.99 20.93 70.61 20.93Q70.22 20.93 69.05 21.66Q67.87 22.39 67.06 23.23L67.06 23.23Q68.66 22.97 69.83 22.26Q70.99 21.55 70.99 21.12ZM66.29 24.50L66.29 24.50Q66.29 25.20 67.25 25.20L67.25 25.20Q69.07 25.20 71.78 23.23L71.78 23.23L71.83 23.59Q69 25.58 66.98 25.58L66.98 25.58Q65.54 25.58 65.54 24.38Q65.54 23.18 67.33 21.89Q69.12 20.59 71.02 20.59L71.02 20.59Q71.62 20.59 71.62 20.95L71.62 20.95Q71.62 21.53 70.28 22.33Q68.95 23.14 66.79 23.52L66.79 23.52Q66.29 24.10 66.29 24.50ZM74.18 20.90L74.18 20.90Q74.30 20.81 74.83 20.86L74.83 20.86Q75.10 20.90 75.10 20.96Q75.10 21.02 74.98 21.17Q74.86 21.31 73.82 22.32L73.82 22.32Q71.69 24.41 71.69 24.94L71.69 24.94Q71.69 25.06 71.83 25.06L71.83 25.06Q72.65 25.06 77.76 21.60L77.76 21.60L78.41 21.07Q78.53 20.98 78.86 21Q79.20 21.02 79.20 21.24L79.20 21.24Q79.20 21.34 79.13 21.41L79.13 21.41Q75.77 24.43 75.77 25.06L75.77 25.06Q75.77 25.32 76.15 25.32Q76.54 25.32 77.18 25.03Q77.83 24.74 78.34 24.44Q78.84 24.14 79.55 23.70Q80.26 23.26 80.30 23.23L80.30 23.23L80.35 23.59Q79.25 24.31 77.83 25.03Q76.42 25.75 75.68 25.75Q74.95 25.75 74.95 25.15L74.95 25.15Q74.95 24.31 76.25 22.97L76.25 22.97Q72.48 25.42 71.59 25.42L71.59 25.42Q71.06 25.42 71.06 24.79L71.06 24.79Q71.06 23.47 74.18 20.90ZM83.54 21.74L83.54 21.74L84.67 21.60Q84.96 21.60 85.13 21.79Q85.30 21.98 85.30 22.25L85.30 22.25Q85.30 22.78 84.55 23.40Q83.81 24.02 83.08 24.58Q82.34 25.13 82.34 25.46L82.34 25.46Q82.34 25.66 82.66 25.66L82.66 25.66Q83.69 25.66 85.80 24.46L85.80 24.46Q86.71 23.95 87.74 23.23L87.74 23.23L87.79 23.59Q86.98 24.12 85.97 24.67L85.97 24.67Q85.39 25.03 84.29 25.50Q83.18 25.97 82.46 25.97Q81.74 25.97 81.74 25.32L81.74 25.32Q81.74 24.58 82.51 23.92Q83.28 23.26 84.04 22.81Q84.79 22.37 84.79 22.13L84.79 22.13Q84.79 22.06 84.62 22.06L84.62 22.06L83.28 22.18Q82.90 22.18 82.58 22.10L82.58 22.10Q81.43 22.92 80.16 23.71L80.16 23.71L80.09 23.38L82.37 21.79Q82.39 21.34 82.94 20.88Q83.50 20.42 83.88 20.42Q84.26 20.42 84.26 20.63Q84.26 20.83 83.81 21.14Q83.35 21.46 83.35 21.60Q83.35 21.74 83.54 21.74ZM96.07 25.87L96.07 25.87Q99.24 25.87 102.48 24.19L102.48 24.19Q96.50 22.56 95.11 22.56Q93.72 22.56 93.11 22.94Q92.50 23.33 92.50 23.99Q92.50 24.65 93.47 25.26Q94.44 25.87 96.07 25.87ZM108.62 25.03L108.62 25.03Q112.10 25.78 114.04 25.78Q115.97 25.78 117.34 25.14Q118.70 24.50 118.70 23.71L118.70 23.71Q118.70 23.14 117.86 22.74Q117.02 22.34 115.42 22.34L115.42 22.34Q112.87 22.34 111.14 23.09Q109.42 23.83 108.62 25.03ZM119.71 9.46L119.71 9.46Q118.08 10.97 115.69 13.55Q113.30 16.13 112.20 17.26L112.20 17.26Q112.44 17.28 112.94 17.28L112.94 17.28Q114.91 17.28 117.20 16.27Q119.50 15.26 121.26 13.87Q123.02 12.48 124.21 10.98Q125.40 9.48 125.40 8.50L125.40 8.50Q125.40 7.32 123.70 7.32Q121.99 7.32 119.71 9.46ZM117.84 6.10L117.84 6.10Q117.84 4.49 115.22 4.49L115.22 4.49Q113.78 4.49 112.26 5.17Q110.74 5.86 109.66 6.96Q108.58 8.06 107.90 9.41Q107.23 10.75 107.11 12.07L107.11 12.07Q107.74 12.12 108.12 12.12L108.12 12.12Q110.11 12.12 111.98 11.50Q113.86 10.87 115.10 9.95Q116.35 9.02 117.10 7.98Q117.84 6.94 117.84 6.10ZM103.94 23.93L103.94 23.93Q105.70 24.36 108.12 24.94L108.12 24.94Q108.91 23.64 110.82 22.84Q112.73 22.03 115.66 22.03L115.66 22.03Q117.38 22.03 118.40 22.56Q119.42 23.09 119.42 23.83L119.42 23.83Q119.42 24.74 117.88 25.44Q116.33 26.14 113.84 26.14Q111.36 26.14 108.31 25.56L108.31 25.56Q108.07 26.14 108.07 26.81L108.07 26.81Q108.07 28.37 109.60 29.48Q111.12 30.60 113.83 30.60L113.83 30.60L113.93 30.79Q113.50 30.84 113.28 30.84L113.28 30.84Q110.71 30.84 109.16 29.60Q107.62 28.37 107.62 26.69L107.62 26.69Q107.62 26.04 107.86 25.49L107.86 25.49Q105.48 24.98 103.10 24.36L103.10 24.36Q99.46 26.18 95.83 26.18L95.83 26.18Q94.03 26.18 92.90 25.48Q91.78 24.77 91.78 23.98Q91.78 23.18 92.64 22.69Q93.50 22.20 95.22 22.20Q96.94 22.20 103.27 23.76L103.27 23.76Q106.58 21.84 110.78 17.47L110.78 17.47Q108.70 17.02 107.64 15.64Q106.58 14.26 106.58 12.36L106.58 12.36L106.58 12.31Q104.62 12.10 103.67 11.18Q102.72 10.27 102.72 8.93L102.72 8.93Q102.72 6.65 105.07 4.26Q107.42 1.87 110.66 1.22L110.66 1.22L110.74 1.44Q107.50 2.11 105.29 4.33Q103.08 6.55 103.08 8.71L103.08 8.71Q103.08 9.98 103.94 10.86Q104.81 11.74 106.58 12.02L106.58 12.02Q106.66 10.58 107.33 9.18Q108 7.78 109.12 6.61Q110.23 5.45 111.94 4.73Q113.64 4.01 115.34 4.01L115.34 4.01Q118.46 4.01 118.46 5.95L118.46 5.95Q118.46 6.89 117.67 8.00Q116.88 9.12 115.55 10.09Q114.22 11.06 112.19 11.72Q110.16 12.38 107.93 12.38L107.93 12.38Q107.35 12.38 107.09 12.36L107.09 12.36L107.09 12.60Q107.09 14.30 108.08 15.52Q109.08 16.73 111.12 17.11L111.12 17.11Q111.89 16.32 113.39 14.69Q114.89 13.06 115.67 12.24Q116.45 11.42 117.72 10.22Q118.99 9.02 119.86 8.45L119.86 8.45Q122.14 6.96 123.91 6.96L123.91 6.96Q126.19 6.96 126.19 8.47L126.19 8.47Q126.19 9.58 124.96 11.16Q123.72 12.74 121.85 14.18Q119.98 15.62 117.47 16.64Q114.96 17.66 112.68 17.66L112.68 17.66Q112.10 17.66 111.84 17.64L111.84 17.64Q107.54 21.94 103.94 23.93ZM121.46 25.20L121.46 25.20Q122.38 25.20 123.90 24.28Q125.42 23.35 126.44 22.49Q127.46 21.62 127.46 21.48Q127.46 21.34 127.12 21.24Q126.77 21.14 126.17 21.14Q125.57 21.14 124.58 21.61Q123.60 22.08 122.88 22.73Q122.16 23.38 121.68 24Q121.20 24.62 121.20 24.91Q121.20 25.20 121.46 25.20ZM127.90 21.17L127.90 21.17Q128.38 20.78 128.42 20.78L128.42 20.78Q129.07 20.86 129.10 20.89Q129.12 20.93 129.12 20.98Q129.12 21.02 128.93 21.28Q128.74 21.53 127.80 22.46L127.80 22.46Q125.47 24.74 125.47 25.22L125.47 25.22Q125.47 25.42 125.64 25.42L125.64 25.42Q126.79 25.42 129.96 23.23L129.96 23.23L130.01 23.59Q126.82 25.68 125.50 25.68L125.50 25.68Q124.85 25.68 124.85 25.07Q124.85 24.46 125.59 23.47L125.59 23.47Q122.76 25.56 121.18 25.58L121.18 25.58Q120.60 25.58 120.60 24.89L120.60 24.89Q120.60 23.64 122.20 22.22Q123.79 20.81 126.41 20.81L126.41 20.81Q127.27 20.81 127.90 21.17ZM136.02 23.98Q134.40 23.98 134.40 24.65Q134.40 25.32 135.64 25.96Q136.87 26.59 138.80 26.59Q140.74 26.59 143.02 25.49L143.02 25.49Q142.42 25.34 140.78 24.86L140.78 24.86Q137.64 23.98 136.02 23.98ZM145.63 14.28L145.63 14.28Q145.63 15.67 147.79 15.67L147.79 15.67Q148.90 15.67 150.29 15.05Q151.68 14.42 152.93 13.42Q154.18 12.41 155.03 10.90Q155.88 9.38 155.88 7.80L155.88 7.80Q155.88 7.30 155.76 6.82L155.76 6.82Q153.89 7.10 151.98 7.99Q150.07 8.88 148.72 9.98Q147.36 11.09 146.50 12.26Q145.63 13.44 145.63 14.28ZM144.84 25.37L144.84 25.37Q146.33 25.66 147.38 25.66L147.38 25.66Q149.54 25.66 151.72 25.01Q153.89 24.36 155.69 23.27Q157.49 22.18 159.06 20.74Q160.63 19.30 161.71 17.76L161.71 17.76Q164.04 14.40 164.04 11.62L164.04 11.62Q164.04 10.13 163.32 9L163.32 9Q160.66 11.04 154.73 17.33L154.73 17.33Q152.69 19.46 149.96 21.77Q147.24 24.07 144.84 25.37ZM151.80 4.20L151.80 4.20Q149.33 4.20 146.21 5.52Q143.09 6.84 141.50 8.42L141.50 8.42L141.19 8.23Q143.38 6.36 146.45 5.09Q149.52 3.82 152.02 3.82L152.02 3.82Q155.42 3.82 156.14 6.29L156.14 6.29Q156.91 6.22 157.68 6.22L157.68 6.22Q161.42 6.22 163.32 8.30L163.32 8.30Q166.32 6.46 168.84 6.46L168.84 6.46Q170.35 6.46 171.22 7.13Q172.08 7.80 172.08 8.80Q172.08 9.79 171.30 10.75Q170.52 11.71 169.01 12.41L169.01 12.41L168.96 12.14Q170.16 11.66 170.89 10.73Q171.62 9.79 171.62 8.87Q171.62 7.94 170.84 7.36Q170.06 6.77 168.50 6.77L168.50 6.77Q166.34 6.77 163.68 8.74L163.68 8.74Q164.74 10.22 164.74 12.14Q164.74 14.06 163.98 15.96Q163.22 17.86 161.69 19.66Q160.15 21.46 158.06 22.88Q155.98 24.31 153.06 25.19Q150.14 26.06 146.90 26.06L146.90 26.06Q145.58 26.06 144.10 25.75L144.10 25.75Q141.00 27.24 138.05 27.24L138.05 27.24Q136.27 27.24 135.01 26.46Q133.75 25.68 133.75 24.84L133.75 24.84Q133.75 24.29 134.36 23.95Q134.98 23.62 136.15 23.62Q137.33 23.62 138.48 23.83Q139.63 24.05 141.44 24.54Q143.26 25.03 143.74 25.15L143.74 25.15Q145.94 23.95 148.62 21.62Q151.30 19.30 153.42 17.06Q155.54 14.83 158.21 12.36Q160.87 9.89 162.94 8.54L162.94 8.54Q161.26 6.67 157.42 6.67L157.42 6.67Q156.82 6.67 156.24 6.74L156.24 6.74Q156.31 7.10 156.31 7.54L156.31 7.54Q156.31 9.29 155.40 10.94Q154.49 12.60 153.14 13.73Q151.80 14.86 150.30 15.53Q148.80 16.20 147.65 16.20Q146.50 16.20 145.92 15.64Q145.34 15.07 145.34 14.08Q145.34 13.08 146.03 11.87Q146.71 10.66 147.95 9.50Q149.18 8.35 151.21 7.48Q153.24 6.60 155.64 6.34L155.64 6.34Q154.87 4.20 151.80 4.20ZM161.98 25.34L161.98 25.34Q163.70 25.34 165.34 23.62L165.34 23.62L165.34 23.59Q165.34 22.44 166.44 21.43L166.44 21.43Q166.37 21.17 166.03 21.17L166.03 21.17Q164.26 21.17 162.89 22.50Q161.52 23.83 161.52 24.84L161.52 24.84Q161.52 25.34 161.98 25.34ZM165.70 20.81L165.70 20.81Q166.97 20.81 166.97 21.65L166.97 21.65Q166.97 22.37 166.08 23.38L166.08 23.38L166.08 23.57Q166.08 24.36 166.78 24.36L166.78 24.36Q167.21 24.36 167.74 24L167.74 24L168.91 23.23L168.96 23.59L167.86 24.29Q167.09 24.79 166.36 24.79Q165.62 24.79 165.38 24.05L165.38 24.05Q163.46 25.75 161.74 25.75L161.74 25.75Q160.70 25.75 160.70 24.77L160.70 24.77Q160.70 23.52 162.17 22.16Q163.63 20.81 165.70 20.81ZM171.31 20.90L171.31 20.90Q171.43 20.81 171.96 20.86L171.96 20.86Q172.22 20.90 172.22 20.96Q172.22 21.02 172.10 21.17Q171.98 21.31 170.95 22.32L170.95 22.32Q168.82 24.41 168.82 24.94L168.82 24.94Q168.82 25.06 168.96 25.06L168.96 25.06Q169.78 25.06 174.89 21.60L174.89 21.60L175.54 21.07Q175.66 20.98 175.99 21Q176.33 21.02 176.33 21.24L176.33 21.24Q176.33 21.34 176.26 21.41L176.26 21.41Q172.90 24.43 172.90 25.06L172.90 25.06Q172.90 25.32 173.28 25.32Q173.66 25.32 174.31 25.03Q174.96 24.74 175.46 24.44Q175.97 24.14 176.68 23.70Q177.38 23.26 177.43 23.23L177.43 23.23L177.48 23.59Q176.38 24.31 174.96 25.03Q173.54 25.75 172.81 25.75Q172.08 25.75 172.08 25.15L172.08 25.15Q172.08 24.31 173.38 22.97L173.38 22.97Q169.61 25.42 168.72 25.42L168.72 25.42Q168.19 25.42 168.19 24.79L168.19 24.79Q168.19 23.47 171.31 20.90ZM191.57 11.30L191.57 11.30Q190.37 11.30 185.95 15.17Q181.54 19.03 178.80 22.27L178.80 22.27Q181.99 20.09 186.84 16.12Q191.69 12.14 191.69 11.38L191.69 11.38Q191.69 11.30 191.57 11.30ZM178.08 23.16L178.08 23.16Q177.12 24.43 177.12 24.88Q177.12 25.32 177.53 25.32L177.53 25.32Q178.66 25.32 181.66 23.23L181.66 23.23L181.70 23.59Q178.51 25.68 177.19 25.68L177.19 25.68Q176.54 25.68 176.54 25.08L176.54 25.08Q176.54 23.76 179.63 20.32Q182.71 16.87 186.44 13.93Q190.18 10.99 191.74 10.99L191.74 10.99Q192.02 10.99 192.02 11.21L192.02 11.21Q192.02 11.78 190.86 13.02Q189.70 14.26 187.73 15.84Q185.76 17.42 184.06 18.72Q182.35 20.02 180.36 21.47Q178.37 22.92 178.08 23.16ZM181.78 25.20L181.78 25.20Q182.69 25.20 184.21 24.28Q185.74 23.35 186.76 22.49Q187.78 21.62 187.78 21.48Q187.78 21.34 187.43 21.24Q187.08 21.14 186.48 21.14Q185.88 21.14 184.90 21.61Q183.91 22.08 183.19 22.73Q182.47 23.38 181.99 24Q181.51 24.62 181.51 24.91Q181.51 25.20 181.78 25.20ZM188.21 21.17L188.21 21.17Q188.69 20.78 188.74 20.78L188.74 20.78Q189.38 20.86 189.41 20.89Q189.43 20.93 189.43 20.98Q189.43 21.02 189.24 21.28Q189.05 21.53 188.11 22.46L188.11 22.46Q185.78 24.74 185.78 25.22L185.78 25.22Q185.78 25.42 185.95 25.42L185.95 25.42Q187.10 25.42 190.27 23.23L190.27 23.23L190.32 23.59Q187.13 25.68 185.81 25.68L185.81 25.68Q185.16 25.68 185.16 25.07Q185.16 24.46 185.90 23.47L185.90 23.47Q183.07 25.56 181.49 25.58L181.49 25.58Q180.91 25.58 180.91 24.89L180.91 24.89Q180.91 23.64 182.51 22.22Q184.10 20.81 186.72 20.81L186.72 20.81Q187.58 20.81 188.21 21.17ZM195.17 18.82Q195.17 19.15 194.78 19.46Q194.40 19.78 194.08 19.78Q193.75 19.78 193.75 19.51Q193.75 19.25 194.14 18.90Q194.52 18.55 194.84 18.55Q195.17 18.55 195.17 18.82L195.17 18.82ZM193.13 21.41L193.13 21.41Q189.89 24.34 189.89 25.08L189.89 25.08Q189.89 25.32 190.21 25.32Q190.54 25.32 191.18 25.03Q191.83 24.74 192.34 24.44Q192.84 24.14 193.55 23.70Q194.26 23.26 194.30 23.23L194.30 23.23L194.35 23.59Q193.25 24.31 191.83 25.03Q190.42 25.75 189.68 25.75Q188.95 25.75 188.95 25.15L188.95 25.15Q188.95 24.65 189.82 23.63Q190.68 22.61 191.54 21.84L191.54 21.84L192.41 21.07Q192.53 20.98 192.86 21Q193.20 21.02 193.20 21.24L193.20 21.24Q193.20 21.34 193.13 21.41ZM198.19 20.33L198.19 20.33Q198.29 20.18 198.42 20.18Q198.55 20.18 198.55 20.33Q198.55 20.47 198.41 20.62Q198.26 20.76 198.20 21.49Q198.14 22.22 197.83 23.27Q197.52 24.31 196.75 25.15L196.75 25.15Q196.75 25.20 196.85 25.20L196.85 25.20Q197.02 25.20 198.07 24.62L198.07 24.62L198.41 24.46Q199.32 23.95 200.35 23.23L200.35 23.23L200.40 23.59Q196.66 26.02 194.66 26.02L194.66 26.02Q193.87 26.02 193.50 25.68Q193.13 25.34 193.13 24.94Q193.13 24.53 193.32 24.28Q193.51 24.02 193.80 24.02L193.80 24.02Q194.16 24.02 194.16 24.41L194.16 24.41Q194.16 24.65 193.78 24.84L193.78 24.84Q193.66 24.91 193.66 25.08Q193.66 25.25 193.93 25.48Q194.21 25.70 194.52 25.70L194.52 25.70Q195.58 25.70 196.33 24.37Q197.09 23.04 197.30 21.72L197.30 21.72L197.30 21.65Q194.98 23.23 194.16 23.71L194.16 23.71L194.09 23.38Q198 20.86 198.19 20.33ZM205.27 21.12L205.27 21.12Q205.27 20.93 204.89 20.93Q204.50 20.93 203.33 21.66Q202.15 22.39 201.34 23.23L201.34 23.23Q202.94 22.97 204.11 22.26Q205.27 21.55 205.27 21.12ZM200.57 24.50L200.57 24.50Q200.57 25.20 201.53 25.20L201.53 25.20Q203.35 25.20 206.06 23.23L206.06 23.23L206.11 23.59Q203.28 25.58 201.26 25.58L201.26 25.58Q199.82 25.58 199.82 24.38Q199.82 23.18 201.61 21.89Q203.40 20.59 205.30 20.59L205.30 20.59Q205.90 20.59 205.90 20.95L205.90 20.95Q205.90 21.53 204.56 22.33Q203.23 23.14 201.07 23.52L201.07 23.52Q200.57 24.10 200.57 24.50ZM219.17 20.57L219.17 20.57Q218.09 20.57 217.25 21.86L217.25 21.86Q218.30 21.65 218.93 21.32Q219.55 21 219.55 20.76L219.55 20.76Q219.55 20.57 219.17 20.57ZM214.34 22.13L214.34 22.13L219.65 15.36L219.98 15.67Q219.94 15.67 218.04 18.20Q216.14 20.74 215.16 22.13L215.16 22.13Q215.86 22.10 216.79 21.96L216.79 21.96Q217.18 21.24 217.92 20.72Q218.66 20.21 219.41 20.21Q220.15 20.21 220.15 20.50L220.15 20.50Q220.15 20.86 219.29 21.36Q218.42 21.86 217.06 22.22L217.06 22.22Q216.86 22.68 216.86 23.02L216.86 23.02Q216.86 23.76 217.68 23.76L217.68 23.76Q218.16 23.76 219.07 23.40L219.07 23.40L219.07 23.52Q218.09 23.98 217.46 23.98L217.46 23.98Q216.48 23.98 216.48 23.02L216.48 23.02Q216.48 22.73 216.60 22.32L216.60 22.32Q215.74 22.51 214.82 22.58L214.82 22.58Q213.98 23.78 213.02 25.22L213.02 25.22Q212.74 25.51 212.48 25.51Q212.23 25.51 212.10 25.37Q211.97 25.22 211.97 25.03L211.97 25.03Q212.38 24.55 213.94 22.63L213.94 22.63L213.53 22.63Q210.29 22.63 209.74 22.08L209.74 22.08Q209.69 22.03 209.69 21.98L209.69 21.98Q209.69 21.65 210.24 21.28Q210.79 20.90 211.55 20.34Q212.30 19.78 213.60 18.62Q214.90 17.47 216 16.28Q217.10 15.10 218.08 13.55Q219.05 12 219.38 10.61L219.38 10.61L219.65 10.61Q218.78 14.16 215.28 17.76L215.28 17.76Q213.96 19.08 213.28 19.70Q212.59 20.33 211.01 21.74L211.01 21.74Q211.01 21.94 212.24 22.03Q213.48 22.13 214.34 22.13ZM222.38 19.06L222.38 19.06L222.46 19.06Q224.04 19.06 225.60 18.20Q227.16 17.35 228.04 16.32Q228.91 15.29 228.91 14.62L228.91 14.62Q228.91 14.09 228.29 14.09L228.29 14.09Q227.04 14.09 225.40 15.54Q223.75 16.99 222.38 19.06ZM225.79 12.67L225.79 12.67L225.70 12.96Q224.06 12.96 222.40 14.64Q220.73 16.32 220.73 17.74L220.73 17.74Q220.73 18.62 221.54 18.94L221.54 18.94Q222.94 16.80 224.80 15.34Q226.66 13.87 228.38 13.85L228.38 13.85Q229.20 13.85 229.20 14.54L229.20 14.54Q229.20 15.10 228.65 15.90Q228.10 16.70 227.20 17.46Q226.30 18.22 224.98 18.76Q223.66 19.30 222.31 19.30L222.31 19.30L222.22 19.30Q220.42 22.13 220.42 23.93L220.42 23.93Q220.42 25.46 221.90 25.46L221.90 25.46Q223.78 25.46 225.96 23.24Q228.14 21.02 229.54 18.34Q230.93 15.65 230.93 14.06L230.93 14.06Q230.93 12.91 230.06 12.91L230.06 12.91Q229.78 12.91 229.26 13.12Q228.74 13.32 228.50 13.58L228.50 13.58Q228.29 13.54 228.29 13.42L228.29 13.42Q228.29 13.25 228.94 13.00Q229.58 12.74 230.14 12.74L230.14 12.74Q231.65 12.74 231.65 14.47Q231.65 16.20 230.15 18.86Q228.65 21.53 226.26 23.64Q223.87 25.75 221.81 25.75Q219.74 25.75 219.74 23.74L219.74 23.74Q219.74 21.79 221.38 19.20L221.38 19.20Q220.27 18.89 220.27 17.86L220.27 17.86Q220.27 16.34 222.16 14.51Q224.04 12.67 225.79 12.67ZM233.47 19.06L233.47 19.06L233.54 19.06Q235.13 19.06 236.69 18.20Q238.25 17.35 239.12 16.32Q240 15.29 240 14.62L240 14.62Q240 14.09 239.38 14.09L239.38 14.09Q238.13 14.09 236.48 15.54Q234.84 16.99 233.47 19.06ZM236.88 12.67L236.88 12.67L236.78 12.96Q235.15 12.96 233.48 14.64Q231.82 16.32 231.82 17.74L231.82 17.74Q231.82 18.62 232.63 18.94L232.63 18.94Q234.02 16.80 235.88 15.34Q237.74 13.87 239.47 13.85L239.47 13.85Q240.29 13.85 240.29 14.54L240.29 14.54Q240.29 15.10 239.74 15.90Q239.18 16.70 238.28 17.46Q237.38 18.22 236.06 18.76Q234.74 19.30 233.40 19.30L233.40 19.30L233.30 19.30Q231.50 22.13 231.50 23.93L231.50 23.93Q231.50 25.46 232.99 25.46L232.99 25.46Q234.86 25.46 237.05 23.24Q239.23 21.02 240.62 18.34Q242.02 15.65 242.02 14.06L242.02 14.06Q242.02 12.91 241.15 12.91L241.15 12.91Q240.86 12.91 240.35 13.12Q239.83 13.32 239.59 13.58L239.59 13.58Q239.38 13.54 239.38 13.42L239.38 13.42Q239.38 13.25 240.02 13.00Q240.67 12.74 241.22 12.74L241.22 12.74Q242.74 12.74 242.74 14.47Q242.74 16.20 241.24 18.86Q239.74 21.53 237.35 23.64Q234.96 25.75 232.90 25.75Q230.83 25.75 230.83 23.74L230.83 23.74Q230.83 21.79 232.46 19.20L232.46 19.20Q231.36 18.89 231.36 17.86L231.36 17.86Q231.36 16.34 233.24 14.51Q235.13 12.67 236.88 12.67ZM247.82 20.83Q248.33 20.83 248.33 21.37Q248.33 21.91 247.56 22.94L247.56 22.94Q250.30 21.05 251.95 21.05L251.95 21.05Q252.60 21.05 252.60 21.60Q252.60 22.15 252.12 22.74Q251.64 23.33 251.06 23.76L251.06 23.76Q249.53 24.86 249.53 25.15L249.53 25.15Q249.53 25.32 249.80 25.32Q250.08 25.32 250.73 25.03Q251.38 24.74 251.88 24.44Q252.38 24.14 253.09 23.70Q253.80 23.26 253.85 23.23L253.85 23.23L253.90 23.59Q250.66 25.75 249.36 25.75L249.36 25.75Q248.74 25.75 248.74 25.15L248.74 25.15Q248.74 24.74 249.25 24.18Q249.77 23.62 250.37 23.14L250.37 23.14Q252.02 21.89 252.02 21.48L252.02 21.48Q252.02 21.36 251.76 21.36L251.76 21.36Q250.87 21.36 249.12 22.32Q247.37 23.28 245.23 25.44L245.23 25.44Q245.09 25.58 244.69 25.58Q244.30 25.58 244.30 25.37L244.30 25.37Q244.30 25.30 245.95 23.59Q247.61 21.89 247.61 21.38L247.61 21.38Q247.61 21.26 247.45 21.26Q247.30 21.26 246.80 21.58Q246.31 21.89 245.29 22.57Q244.27 23.26 243.55 23.71L243.55 23.71L243.48 23.38Q243.84 23.14 244.46 22.70Q245.09 22.27 245.50 22.00Q245.90 21.72 246.38 21.41L246.38 21.41Q247.32 20.83 247.82 20.83ZM254.42 25.34L254.42 25.34Q256.15 25.34 257.78 23.62L257.78 23.62L257.78 23.59Q257.78 22.44 258.89 21.43L258.89 21.43Q258.82 21.17 258.48 21.17L258.48 21.17Q256.70 21.17 255.34 22.50Q253.97 23.83 253.97 24.84L253.97 24.84Q253.97 25.34 254.42 25.34ZM258.14 20.81L258.14 20.81Q259.42 20.81 259.42 21.65L259.42 21.65Q259.42 22.37 258.53 23.38L258.53 23.38L258.53 23.57Q258.53 24.36 259.22 24.36L259.22 24.36Q259.66 24.36 260.18 24L260.18 24L261.36 23.23L261.41 23.59L260.30 24.29Q259.54 24.79 258.80 24.79Q258.07 24.79 257.83 24.05L257.83 24.05Q255.91 25.75 254.18 25.75L254.18 25.75Q253.15 25.75 253.15 24.77L253.15 24.77Q253.15 23.52 254.62 22.16Q256.08 20.81 258.14 20.81ZM264.60 21.74L264.60 21.74L265.73 21.60Q266.02 21.60 266.18 21.79Q266.35 21.98 266.35 22.25L266.35 22.25Q266.35 22.78 265.61 23.40Q264.86 24.02 264.13 24.58Q263.40 25.13 263.40 25.46L263.40 25.46Q263.40 25.66 263.71 25.66L263.71 25.66Q264.74 25.66 266.86 24.46L266.86 24.46Q267.77 23.95 268.80 23.23L268.80 23.23L268.85 23.59Q268.03 24.12 267.02 24.67L267.02 24.67Q266.45 25.03 265.34 25.50Q264.24 25.97 263.52 25.97Q262.80 25.97 262.80 25.32L262.80 25.32Q262.80 24.58 263.57 23.92Q264.34 23.26 265.09 22.81Q265.85 22.37 265.85 22.13L265.85 22.13Q265.85 22.06 265.68 22.06L265.68 22.06L264.34 22.18Q263.95 22.18 263.64 22.10L263.64 22.10Q262.49 22.92 261.22 23.71L261.22 23.71L261.14 23.38L263.42 21.79Q263.45 21.34 264.00 20.88Q264.55 20.42 264.94 20.42Q265.32 20.42 265.32 20.63Q265.32 20.83 264.86 21.14Q264.41 21.46 264.41 21.60Q264.41 21.74 264.60 21.74ZM271.08 22.10L271.08 22.10Q269.93 22.92 268.66 23.71L268.66 23.71L268.58 23.38L270.86 21.79Q272.04 20.95 272.66 20.95Q273.29 20.95 273.29 21.48L273.29 21.48Q273.29 22.27 272.18 23.38L272.18 23.38L272.59 23.14Q275.88 21 276.70 21Q277.51 21 277.51 21.43L277.51 21.43Q277.51 21.91 276.74 22.94L276.74 22.94Q279.48 21.05 281.14 21.05L281.14 21.05Q281.78 21.05 281.78 21.60Q281.78 22.15 281.30 22.74Q280.82 23.33 280.25 23.76L280.25 23.76Q278.71 24.86 278.71 25.15L278.71 25.15Q278.71 25.32 278.99 25.32Q279.26 25.32 279.91 25.03Q280.56 24.74 281.06 24.44Q281.57 24.14 282.28 23.70Q282.98 23.26 283.03 23.23L283.03 23.23L283.08 23.59Q279.84 25.75 278.54 25.75L278.54 25.75Q277.92 25.75 277.92 25.15L277.92 25.15Q277.92 24.74 278.44 24.18Q278.95 23.62 279.55 23.14L279.55 23.14Q281.21 21.89 281.21 21.48L281.21 21.48Q281.21 21.36 280.94 21.36L280.94 21.36Q280.06 21.36 278.30 22.32Q276.55 23.28 274.42 25.44L274.42 25.44Q274.27 25.58 273.80 25.58Q273.34 25.58 273.34 25.37L273.34 25.37Q273.34 25.27 274.18 24.48L274.18 24.48Q276.74 22.06 276.74 21.53L276.74 21.53Q276.74 21.38 276.58 21.38L276.58 21.38Q276.02 21.38 274.16 22.60Q272.30 23.81 270.36 25.42L270.36 25.42Q270.07 25.58 269.90 25.58L269.90 25.58Q269.16 25.58 269.16 25.42L269.16 25.42Q269.16 25.32 269.82 24.74Q270.48 24.17 271.60 23.00Q272.71 21.84 272.71 21.38L272.71 21.38Q272.71 21.29 272.59 21.29L272.59 21.29Q272.16 21.29 271.08 22.10ZM283.15 25.20L283.15 25.20Q284.06 25.20 285.59 24.28Q287.11 23.35 288.13 22.49Q289.15 21.62 289.15 21.48Q289.15 21.34 288.80 21.24Q288.46 21.14 287.86 21.14Q287.26 21.14 286.27 21.61Q285.29 22.08 284.57 22.73Q283.85 23.38 283.37 24Q282.89 24.62 282.89 24.91Q282.89 25.20 283.15 25.20ZM289.58 21.17L289.58 21.17Q290.06 20.78 290.11 20.78L290.11 20.78Q290.76 20.86 290.78 20.89Q290.81 20.93 290.81 20.98Q290.81 21.02 290.62 21.28Q290.42 21.53 289.49 22.46L289.49 22.46Q287.16 24.74 287.16 25.22L287.16 25.22Q287.16 25.42 287.33 25.42L287.33 25.42Q288.48 25.42 291.65 23.23L291.65 23.23L291.70 23.59Q288.50 25.68 287.18 25.68L287.18 25.68Q286.54 25.68 286.54 25.07Q286.54 24.46 287.28 23.47L287.28 23.47Q284.45 25.56 282.86 25.58L282.86 25.58Q282.29 25.58 282.29 24.89L282.29 24.89Q282.29 23.64 283.88 22.22Q285.48 20.81 288.10 20.81L288.10 20.81Q288.96 20.81 289.58 21.17ZM305.78 11.30L305.78 11.30Q304.58 11.30 300.17 15.17Q295.75 19.03 293.02 22.27L293.02 22.27Q296.21 20.09 301.06 16.12Q305.90 12.14 305.90 11.38L305.90 11.38Q305.90 11.30 305.78 11.30ZM292.30 23.16L292.30 23.16Q291.34 24.43 291.34 24.88Q291.34 25.32 291.74 25.32L291.74 25.32Q292.87 25.32 295.87 23.23L295.87 23.23L295.92 23.59Q292.73 25.68 291.41 25.68L291.41 25.68Q290.76 25.68 290.76 25.08L290.76 25.08Q290.76 23.76 293.84 20.32Q296.93 16.87 300.66 13.93Q304.39 10.99 305.95 10.99L305.95 10.99Q306.24 10.99 306.24 11.21L306.24 11.21Q306.24 11.78 305.08 13.02Q303.91 14.26 301.94 15.84Q299.98 17.42 298.27 18.72Q296.57 20.02 294.58 21.47Q292.58 22.92 292.30 23.16Z"/></svg>