<svg xmlns="http://www.w3.org/2000/svg" xmlns:xlink="http://www.w3.org/1999/xlink" width="285.32399999999996" height="27.12"><path fill="black" d="M9.50 21.96L6.07 21.96L6.07 7.69L1.49 7.69L1.49 5.16L14.11 5.16L14.11 7.69L9.50 7.69L9.50 21.96ZM25.37 21.96L16.88 21.96L16.88 19.43L19.22 19.43L19.22 12.49L16.88 12.49L16.88 9.96L21.90 9.96L22.66 12.83L22.66 19.43L25.37 19.43L25.37 21.96ZM22.60 15.01L22.60 15.01L21.44 14.44Q21.46 13.63 21.74 12.91Q22.03 12.19 22.52 11.60Q23.02 11.00 23.66 10.57Q24.30 10.14 25.01 9.91Q25.72 9.67 26.42 9.67L26.42 9.67Q27.30 9.67 27.72 9.82Q28.14 9.96 28.25 10.06L28.25 10.06L27.54 12.90Q27.44 12.82 27.06 12.70Q26.68 12.58 26.02 12.58L26.02 12.58Q25.44 12.58 24.88 12.77Q24.32 12.97 23.85 13.32Q23.38 13.67 23.05 14.11Q22.72 14.54 22.60 15.01ZM40.96 21.96L30.56 21.96L30.56 19.43L34.18 19.43L34.18 12.49L31.08 12.49L31.08 9.96L37.61 9.96L37.61 19.43L40.96 19.43L40.96 21.96ZM34.12 8.11L34.12 4.81L37.62 4.81L37.62 8.11L34.12 8.11ZM49.52 22.22L49.52 22.22Q48.13 22.22 47.01 21.97Q45.89 21.71 45.06 21.22Q44.23 20.74 43.73 20.05L43.73 20.05L46.39 18.31Q46.61 18.64 46.93 18.89Q47.24 19.15 47.66 19.33Q48.07 19.51 48.58 19.60Q49.08 19.68 49.63 19.68L49.63 19.68Q50.15 19.68 50.60 19.61Q51.05 19.54 51.40 19.39Q51.76 19.24 51.95 19.00Q52.15 18.76 52.15 18.42L52.15 18.42Q52.15 18.01 51.73 17.74Q51.30 17.47 50.51 17.28Q49.72 17.09 48.59 16.93L48.59 16.93Q47.75 16.81 46.94 16.57Q46.13 16.32 45.48 15.89Q44.83 15.47 44.45 14.81Q44.06 14.16 44.06 13.25L44.06 13.25Q44.06 12.48 44.38 11.90Q44.69 11.32 45.25 10.90Q45.80 10.48 46.52 10.21Q47.24 9.94 48.05 9.80Q48.86 9.67 49.68 9.67L49.68 9.67Q51.05 9.67 52.11 9.99Q53.17 10.31 53.90 10.79Q54.62 11.28 54.97 11.77L54.97 11.77L52.38 13.45Q52.22 13.18 51.94 12.94Q51.65 12.71 51.26 12.53Q50.88 12.36 50.42 12.27Q49.97 12.18 49.48 12.18L49.48 12.18Q49.08 12.18 48.67 12.23Q48.26 12.29 47.92 12.42Q47.57 12.55 47.36 12.76Q47.15 12.96 47.15 13.27L47.15 13.27Q47.15 13.64 47.52 13.89Q47.89 14.14 48.56 14.29Q49.22 14.45 50.10 14.58L50.10 14.58Q50.74 14.68 51.45 14.83Q52.16 14.98 52.86 15.22Q53.56 15.46 54.12 15.85Q54.68 16.24 55.02 16.82Q55.36 17.40 55.36 18.20L55.36 18.20Q55.36 19.04 55.04 19.70Q54.72 20.35 54.15 20.83Q53.58 21.31 52.84 21.62Q52.09 21.92 51.25 22.07Q50.40 22.22 49.52 22.22ZM62.74 26.76L59.30 26.76L59.30 9.96L62.33 9.96L62.74 12.18L62.74 26.76ZM66.14 22.22L66.14 22.22Q65.00 22.22 64.12 21.72Q63.24 21.22 62.64 20.44Q62.04 19.66 61.74 18.79Q61.44 17.93 61.44 17.20L61.44 17.20L62.70 16.76Q62.74 17.30 62.93 17.81Q63.13 18.32 63.46 18.71Q63.79 19.10 64.23 19.33Q64.67 19.56 65.20 19.56L65.20 19.56Q65.98 19.56 66.59 19.15Q67.21 18.73 67.57 17.92Q67.92 17.11 67.92 15.94L67.92 15.94Q67.92 14.76 67.58 13.97Q67.24 13.18 66.64 12.77Q66.05 12.36 65.28 12.36L65.28 12.36Q64.74 12.36 64.31 12.57Q63.88 12.78 63.54 13.14Q63.20 13.50 62.98 13.95Q62.75 14.40 62.64 14.87L62.64 14.87L61.48 14.42Q61.48 13.70 61.79 12.89Q62.11 12.07 62.72 11.35Q63.32 10.62 64.22 10.16Q65.11 9.70 66.26 9.70L66.26 9.70Q67.60 9.70 68.76 10.36Q69.92 11.03 70.64 12.41Q71.35 13.79 71.35 15.94L71.35 15.94Q71.35 17.54 70.92 18.73Q70.49 19.92 69.75 20.69Q69.01 21.47 68.08 21.85Q67.15 22.22 66.14 22.22ZM79.18 22.22L79.18 22.22Q78.18 22.22 77.33 21.97Q76.48 21.71 75.84 21.20Q75.20 20.70 74.85 19.96Q74.50 19.21 74.50 18.24L74.50 18.24Q74.50 17.41 74.80 16.78Q75.10 16.15 75.61 15.70Q76.13 15.25 76.78 14.97Q77.42 14.69 78.14 14.56Q78.86 14.42 79.57 14.42L79.57 14.42Q80.36 14.42 81.01 14.57Q81.65 14.72 82.09 14.95Q82.54 15.17 82.73 15.37L82.73 15.37L82.73 14.16Q82.73 13.68 82.52 13.33Q82.31 12.98 81.95 12.76Q81.59 12.53 81.11 12.42Q80.64 12.31 80.11 12.31L80.11 12.31Q79.51 12.31 78.97 12.41Q78.42 12.50 77.95 12.66Q77.47 12.82 77.09 12.99Q76.70 13.16 76.44 13.33L76.44 13.33L75.00 10.82Q75.44 10.55 76.26 10.28Q77.08 10.02 78.12 9.85Q79.16 9.67 80.29 9.67L80.29 9.67Q81.11 9.67 81.93 9.79Q82.75 9.91 83.51 10.19Q84.26 10.46 84.86 10.93Q85.45 11.40 85.79 12.09Q86.14 12.78 86.14 13.75L86.14 13.75L86.14 19.43L87.76 19.43L87.76 21.96L83.46 21.96L83.08 20.47Q82.88 20.86 82.38 21.26Q81.88 21.67 81.07 21.95Q80.27 22.22 79.18 22.22ZM80.15 19.70L80.15 19.70Q80.82 19.70 81.35 19.51Q81.88 19.31 82.23 19.01Q82.58 18.72 82.73 18.48L82.73 18.48L82.73 17.50Q82.57 17.26 82.18 17.02Q81.79 16.79 81.28 16.63Q80.77 16.48 80.22 16.48L80.22 16.48Q79.64 16.48 79.10 16.63Q78.55 16.78 78.20 17.12Q77.86 17.47 77.86 18.07L77.86 18.07Q77.86 18.67 78.15 19.03Q78.44 19.38 78.97 19.54Q79.49 19.70 80.15 19.70ZM96.94 22.22L96.94 22.22Q96.04 22.22 95.14 22.00Q94.24 21.77 93.44 21.29Q92.64 20.82 92.03 20.08Q91.42 19.33 91.06 18.31Q90.71 17.28 90.71 15.94L90.71 15.94Q90.71 14.58 91.06 13.55Q91.42 12.52 92.03 11.78Q92.64 11.04 93.44 10.58Q94.24 10.12 95.14 9.89Q96.04 9.67 96.94 9.67L96.94 9.67Q97.94 9.67 98.80 9.90Q99.66 10.13 100.37 10.54Q101.08 10.96 101.59 11.53Q102.11 12.11 102.40 12.82L102.40 12.82L99.40 14.20Q99.28 13.75 98.99 13.29Q98.70 12.83 98.22 12.51Q97.74 12.19 97.03 12.19L97.03 12.19Q96.52 12.19 96.02 12.40Q95.53 12.60 95.13 13.04Q94.73 13.49 94.49 14.20Q94.26 14.92 94.26 15.94L94.26 15.94Q94.26 16.94 94.49 17.65Q94.73 18.36 95.13 18.82Q95.53 19.27 96.02 19.49Q96.52 19.70 97.03 19.70L97.03 19.70Q97.74 19.70 98.23 19.42Q98.71 19.13 98.99 18.70Q99.28 18.26 99.38 17.83L99.38 17.83L102.38 19.22Q102.08 19.87 101.57 20.42Q101.06 20.96 100.37 21.37Q99.67 21.78 98.81 22.00Q97.96 22.22 96.94 22.22ZM111.96 22.22L111.96 22.22Q110.76 22.22 109.64 21.83Q108.52 21.43 107.63 20.65Q106.75 19.86 106.24 18.68Q105.72 17.50 105.72 15.94L105.72 15.94Q105.72 14.38 106.23 13.20Q106.74 12.02 107.63 11.24Q108.52 10.45 109.64 10.06Q110.77 9.67 112.00 9.67L112.00 9.67Q113.26 9.67 114.38 10.04Q115.51 10.40 116.38 11.13Q117.25 11.86 117.75 12.97Q118.25 14.08 118.25 15.56L118.25 15.56Q118.25 15.83 118.22 16.14Q118.20 16.45 118.15 16.69L118.15 16.69L108.47 16.69L108.47 14.65L114.70 14.65Q114.70 14.62 114.70 14.59Q114.70 14.57 114.70 14.53L114.70 14.53Q114.70 13.87 114.35 13.34Q114.01 12.80 113.42 12.49Q112.84 12.18 112.07 12.18L112.07 12.18Q111.52 12.18 111.00 12.40Q110.48 12.61 110.08 13.06Q109.68 13.50 109.44 14.21Q109.20 14.92 109.20 15.91L109.20 15.91Q109.20 17.12 109.59 17.97Q109.98 18.82 110.65 19.26Q111.31 19.70 112.16 19.70L112.16 19.70Q112.92 19.70 113.43 19.45Q113.94 19.19 114.25 18.83Q114.55 18.48 114.68 18.17L114.68 18.17L117.77 19.67Q117.43 20.23 116.90 20.69Q116.38 21.16 115.65 21.50Q114.92 21.85 114.01 22.04Q113.09 22.22 111.96 22.22ZM139.12 22.22L139.12 22.22Q137.83 22.22 136.70 21.76Q135.58 21.29 134.74 20.31Q133.90 19.33 133.43 17.78Q132.96 16.24 132.96 14.09L132.96 14.09Q132.96 11.86 133.52 10.16Q134.08 8.46 135.06 7.31Q136.04 6.17 137.32 5.59Q138.59 5.02 140.03 5.02L140.03 5.02Q141.34 5.02 142.23 5.35Q143.12 5.69 143.65 6.15Q144.18 6.61 144.40 6.97L144.40 6.97L142.28 8.84Q142.15 8.62 141.89 8.32Q141.62 8.03 141.17 7.81Q140.71 7.60 140.00 7.60L140.00 7.60Q139.18 7.60 138.50 8.02Q137.82 8.44 137.33 9.29Q136.84 10.14 136.57 11.42Q136.31 12.71 136.31 14.44L136.31 14.44Q136.31 15.96 136.52 16.97Q136.74 17.98 137.14 18.55Q137.53 19.13 138.05 19.36Q138.56 19.60 139.15 19.60L139.15 19.60Q139.91 19.60 140.54 19.20Q141.17 18.80 141.55 18.05Q141.92 17.30 141.92 16.25L141.92 16.25Q141.92 15.18 141.57 14.51Q141.22 13.85 140.61 13.54Q140.00 13.24 139.27 13.24L139.27 13.24Q138.72 13.24 138.22 13.43Q137.72 13.63 137.33 14.00Q136.93 14.36 136.68 14.89Q136.43 15.41 136.36 16.06L136.36 16.06L134.47 15.44Q134.65 14.38 135.17 13.49Q135.68 12.61 136.45 11.98Q137.22 11.34 138.16 10.99Q139.09 10.64 140.11 10.64L140.11 10.64Q141.47 10.64 142.64 11.26Q143.81 11.87 144.52 13.09Q145.22 14.30 145.22 16.14L145.22 16.14Q145.22 17.48 144.78 18.60Q144.34 19.72 143.51 20.53Q142.69 21.35 141.58 21.79Q140.47 22.22 139.12 22.22ZM155.04 22.22L155.04 22.22Q153.83 22.22 152.72 21.80Q151.61 21.37 150.74 20.38Q149.88 19.39 149.38 17.73Q148.88 16.07 148.88 13.61L148.88 13.61Q148.88 11.16 149.38 9.50Q149.88 7.84 150.74 6.85Q151.61 5.87 152.72 5.44Q153.83 5.02 155.04 5.02L155.04 5.02Q156.23 5.02 157.33 5.44Q158.42 5.87 159.29 6.85Q160.16 7.84 160.66 9.50Q161.16 11.16 161.16 13.61L161.16 13.61Q161.16 16.07 160.66 17.73Q160.16 19.39 159.29 20.38Q158.42 21.37 157.33 21.80Q156.23 22.22 155.04 22.22ZM155.04 19.75L155.04 19.75Q155.56 19.75 156.02 19.46Q156.49 19.16 156.85 18.47Q157.21 17.77 157.41 16.58Q157.61 15.40 157.61 13.61L157.61 13.61Q157.61 11.83 157.41 10.65Q157.21 9.47 156.85 8.77Q156.49 8.08 156.02 7.78Q155.56 7.49 155.04 7.49L155.04 7.49Q154.50 7.49 154.03 7.78Q153.55 8.08 153.20 8.77Q152.84 9.47 152.64 10.65Q152.44 11.83 152.44 13.61L152.44 13.61Q152.44 15.40 152.64 16.58Q152.84 17.77 153.20 18.47Q153.55 19.16 154.03 19.46Q154.50 19.75 155.04 19.75ZM170.64 22.22L170.64 22.22Q169.43 22.22 168.32 21.80Q167.21 21.37 166.34 20.38Q165.48 19.39 164.98 17.73Q164.48 16.07 164.48 13.61L164.48 13.61Q164.48 11.16 164.98 9.50Q165.48 7.84 166.34 6.85Q167.21 5.87 168.32 5.44Q169.43 5.02 170.64 5.02L170.64 5.02Q171.83 5.02 172.93 5.44Q174.02 5.87 174.89 6.85Q175.76 7.84 176.26 9.50Q176.76 11.16 176.76 13.61L176.76 13.61Q176.76 16.07 176.26 17.73Q175.76 19.39 174.89 20.38Q174.02 21.37 172.93 21.80Q171.83 22.22 170.64 22.22ZM170.64 19.75L170.64 19.75Q171.16 19.75 171.62 19.46Q172.09 19.16 172.45 18.47Q172.81 17.77 173.01 16.58Q173.21 15.40 173.21 13.61L173.21 13.61Q173.21 11.83 173.01 10.65Q172.81 9.47 172.45 8.77Q172.09 8.08 171.62 7.78Q171.16 7.49 170.64 7.49L170.64 7.49Q170.10 7.49 169.63 7.78Q169.15 8.08 168.80 8.77Q168.44 9.47 168.24 10.65Q168.04 11.83 168.04 13.61L168.04 13.61Q168.04 15.40 168.24 16.58Q168.44 17.77 168.80 18.47Q169.15 19.16 169.63 19.46Q170.10 19.75 170.64 19.75ZM196.20 21.96L192.74 21.96L192.74 9.96L195.77 9.96L196.20 12.48L196.20 21.96ZM204.00 21.96L200.56 21.96L200.56 15.26Q200.56 14.22 200.35 13.58Q200.14 12.95 199.70 12.66Q199.26 12.37 198.58 12.37L198.58 12.37Q198.07 12.37 197.65 12.56Q197.22 12.74 196.88 13.07Q196.55 13.40 196.34 13.83Q196.14 14.26 196.09 14.71L196.09 14.71L195.35 14.35Q195.35 13.52 195.62 12.70Q195.90 11.87 196.46 11.18Q197.02 10.50 197.85 10.09Q198.68 9.68 199.80 9.68L199.80 9.68Q200.74 9.68 201.50 9.98Q202.26 10.27 202.82 10.88Q203.39 11.48 203.69 12.44Q204.00 13.39 204.00 14.72L204.00 14.72L204.00 21.96ZM213.98 22.22L213.98 22.22Q213.14 22.22 212.27 22.01Q211.39 21.80 210.58 21.35Q209.76 20.89 209.12 20.15Q208.48 19.42 208.10 18.37Q207.72 17.33 207.72 15.94L207.72 15.94Q207.72 14.56 208.10 13.51Q208.48 12.47 209.12 11.74Q209.76 11.00 210.58 10.55Q211.39 10.09 212.27 9.88Q213.14 9.67 213.98 9.67L213.98 9.67Q214.81 9.67 215.69 9.88Q216.56 10.09 217.38 10.55Q218.20 11.00 218.84 11.74Q219.48 12.47 219.86 13.51Q220.24 14.56 220.24 15.94L220.24 15.94Q220.24 17.33 219.86 18.37Q219.48 19.42 218.84 20.15Q218.20 20.89 217.38 21.35Q216.56 21.80 215.69 22.01Q214.81 22.22 213.98 22.22ZM213.98 19.70L213.98 19.70Q214.50 19.70 215.00 19.49Q215.50 19.28 215.89 18.85Q216.29 18.41 216.52 17.68Q216.76 16.96 216.76 15.94L216.76 15.94Q216.76 14.92 216.52 14.20Q216.29 13.49 215.89 13.04Q215.50 12.60 215.00 12.40Q214.50 12.19 213.98 12.19L213.98 12.19Q213.47 12.19 212.97 12.40Q212.47 12.60 212.07 13.04Q211.67 13.49 211.43 14.20Q211.20 14.92 211.20 15.94L211.20 15.94Q211.20 16.96 211.43 17.68Q211.67 18.41 212.07 18.85Q212.47 19.28 212.97 19.49Q213.47 19.70 213.98 19.70ZM232.97 21.96L224.48 21.96L224.48 19.43L226.82 19.43L226.82 12.49L224.48 12.49L224.48 9.96L229.50 9.96L230.26 12.83L230.26 19.43L232.97 19.43L232.97 21.96ZM230.20 15.01L230.20 15.01L229.04 14.44Q229.06 13.63 229.34 12.91Q229.63 12.19 230.12 11.60Q230.62 11.00 231.26 10.57Q231.90 10.14 232.61 9.91Q233.32 9.67 234.02 9.67L234.02 9.67Q234.90 9.67 235.32 9.82Q235.74 9.96 235.85 10.06L235.85 10.06L235.14 12.90Q235.04 12.82 234.66 12.70Q234.28 12.58 233.62 12.58L233.62 12.58Q233.04 12.58 232.48 12.77Q231.92 12.97 231.45 13.32Q230.98 13.67 230.65 14.11Q230.32 14.54 230.20 15.01ZM256.52 21.96L253.09 21.96L253.09 14.74Q253.09 13.55 252.69 12.96Q252.29 12.37 251.33 12.37L251.33 12.37Q250.72 12.37 250.22 12.70Q249.73 13.03 249.43 13.54Q249.13 14.04 249.10 14.54L249.10 14.54L248.04 14.23Q248.05 13.37 248.42 12.55Q248.78 11.74 249.43 11.09Q250.08 10.44 250.92 10.06Q251.76 9.68 252.71 9.68L252.71 9.68Q253.99 9.68 254.84 10.19Q255.68 10.70 256.10 11.75Q256.52 12.80 256.52 14.42L256.52 14.42L256.52 21.96ZM241.74 21.96L238.31 21.96L238.31 9.96L241.39 9.96L241.74 12.30L241.74 21.96ZM249.13 21.96L245.70 21.96L245.70 14.74Q245.70 13.55 245.29 12.96Q244.87 12.37 243.94 12.37L243.94 12.37Q243.32 12.37 242.83 12.70Q242.34 13.03 242.04 13.54Q241.74 14.04 241.73 14.54L241.73 14.54L240.67 14.23Q240.67 13.37 241.04 12.55Q241.40 11.74 242.05 11.09Q242.70 10.44 243.54 10.06Q244.38 9.68 245.32 9.68L245.32 9.68Q247.24 9.68 248.18 10.79Q249.13 11.90 249.13 14.12L249.13 14.12L249.13 21.96ZM263.98 22.22L263.98 22.22Q262.98 22.22 262.13 21.97Q261.28 21.71 260.64 21.20Q260.00 20.70 259.65 19.96Q259.30 19.21 259.30 18.24L259.30 18.24Q259.30 17.41 259.60 16.78Q259.90 16.15 260.41 15.70Q260.93 15.25 261.58 14.97Q262.22 14.69 262.94 14.56Q263.66 14.42 264.37 14.42L264.37 14.42Q265.16 14.42 265.81 14.57Q266.45 14.72 266.89 14.95Q267.34 15.17 267.53 15.37L267.53 15.37L267.53 14.16Q267.53 13.68 267.32 13.33Q267.11 12.98 266.75 12.76Q266.39 12.53 265.91 12.42Q265.44 12.31 264.91 12.31L264.91 12.31Q264.31 12.31 263.77 12.41Q263.22 12.50 262.75 12.66Q262.27 12.82 261.89 12.99Q261.50 13.16 261.24 13.33L261.24 13.33L259.80 10.82Q260.24 10.55 261.06 10.28Q261.88 10.02 262.92 9.85Q263.96 9.67 265.09 9.67L265.09 9.67Q265.91 9.67 266.73 9.79Q267.55 9.91 268.31 10.19Q269.06 10.46 269.66 10.93Q270.25 11.40 270.59 12.09Q270.94 12.78 270.94 13.75L270.94 13.75L270.94 19.43L272.56 19.43L272.56 21.96L268.26 21.96L267.88 20.47Q267.68 20.86 267.18 21.26Q266.68 21.67 265.87 21.95Q265.07 22.22 263.98 22.22ZM264.95 19.70L264.95 19.70Q265.62 19.70 266.15 19.51Q266.68 19.31 267.03 19.01Q267.38 18.72 267.53 18.48L267.53 18.48L267.53 17.50Q267.37 17.26 266.98 17.02Q266.59 16.79 266.08 16.63Q265.57 16.48 265.02 16.48L265.02 16.48Q264.44 16.48 263.90 16.63Q263.35 16.78 263.00 17.12Q262.66 17.47 262.66 18.07L262.66 18.07Q262.66 18.67 262.95 19.03Q263.24 19.38 263.77 19.54Q264.29 19.70 264.95 19.70ZM284.40 21.96L274.15 21.96L274.15 19.43L277.52 19.43L277.52 6.49L274.68 6.49L274.68 3.96L280.97 3.96L280.97 19.43L284.40 19.43L284.40 21.96Z"/></svg>