<svg xmlns="http://www.w3.org/2000/svg" xmlns:xlink="http://www.w3.org/1999/xlink" width="108.288" height="27.912"><path fill="black" d="M1.82 21.67L1.82 21.67L1.80 4.80Q5.52 4.92 7.42 5.82Q9.31 6.72 9.31 8.51Q9.31 10.30 8.30 11.16Q7.30 12.02 5.86 12.22L5.86 12.22Q7.75 12.38 9.08 13.54Q10.42 14.69 10.42 16.91Q10.42 19.13 8.22 20.39Q6.02 21.65 1.82 21.67ZM9.53 16.78Q9.53 15.53 8.83 14.69Q8.14 13.85 6.96 13.49L6.96 13.49Q4.99 12.84 2.71 12.84L2.71 12.84L2.71 20.76Q4.66 20.74 6.07 20.32Q7.49 19.90 8.21 19.25L8.21 19.25Q9.53 18.02 9.53 16.78ZM8.42 8.50L8.42 8.50Q8.42 7.15 6.89 6.43Q5.35 5.71 2.69 5.71L2.69 5.71L2.69 11.81Q8.42 11.74 8.42 8.50ZM12.82 9.60L13.70 9.60L13.68 15.94Q13.68 17.95 14.65 19.45Q15.62 20.95 17.08 20.95Q18.53 20.95 20.28 18.96L20.28 18.96L20.28 9.60L21.17 9.60L21.17 21.60L20.28 21.60L20.28 20.16Q18.72 21.84 16.90 21.84L16.90 21.84Q15.67 21.84 14.38 20.69L14.38 20.69Q13.68 20.06 13.24 18.84Q12.79 17.62 12.79 15.96L12.79 15.96L12.82 9.60ZM24.53 21.62L24.53 3.60L25.42 3.60L25.42 11.04Q26.95 9.34 28.68 9.34L28.68 9.34Q30 9.34 31.32 10.51L31.32 10.51Q32.02 11.11 32.46 12.34Q32.90 13.56 32.90 15.20Q32.90 16.85 32.42 18.05Q31.94 19.25 31.20 19.92Q30.46 20.59 29.29 20.99Q28.13 21.38 27.05 21.50Q25.97 21.62 24.53 21.62L24.53 21.62ZM32.02 15.41L32.02 15.41Q32.02 12.96 31.08 11.59Q30.14 10.22 28.66 10.22Q27.17 10.22 25.42 12.24L25.42 12.24L25.42 20.71Q32.02 20.71 32.02 15.41ZM35.47 21.62L35.47 3.60L36.36 3.60L36.36 11.04Q37.90 9.34 39.62 9.34L39.62 9.34Q40.94 9.34 42.26 10.51L42.26 10.51Q42.96 11.11 43.40 12.34Q43.85 13.56 43.85 15.20Q43.85 16.85 43.37 18.05Q42.89 19.25 42.14 19.92Q41.40 20.59 40.24 20.99Q39.07 21.38 37.99 21.50Q36.91 21.62 35.47 21.62L35.47 21.62ZM42.96 15.41L42.96 15.41Q42.96 12.96 42.02 11.59Q41.09 10.22 39.60 10.22Q38.11 10.22 36.36 12.24L36.36 12.24L36.36 20.71Q42.96 20.71 42.96 15.41ZM47.40 3.62L47.40 21.60L46.51 21.60L46.51 3.62L47.40 3.62ZM58.51 20.74L58.51 20.74L58.51 21.62Q57.07 21.62 55.98 21.50Q54.89 21.38 53.71 20.99Q52.54 20.59 51.78 19.92Q51.02 19.25 50.53 18.06Q50.04 16.87 50.04 15.23Q50.04 13.58 50.48 12.36Q50.93 11.14 51.62 10.51L51.62 10.51Q52.92 9.36 54.14 9.36L54.14 9.36Q56.18 9.36 57.32 10.56Q58.46 11.76 58.46 13.73L58.46 13.73Q58.46 15.05 58.44 15.26L58.44 15.26L50.93 15.26Q50.93 18.36 52.78 19.55Q54.62 20.74 58.51 20.74ZM50.95 14.38L57.58 14.38L57.58 13.85Q57.58 12.26 56.68 11.26Q55.78 10.25 54.30 10.25Q52.82 10.25 51.97 11.41Q51.12 12.58 50.95 14.38L50.95 14.38ZM62.04 12.55L62.04 21.60L61.15 21.60L61.15 9.60L62.04 9.60L62.04 11.35Q62.54 10.75 63.59 10.07Q64.63 9.38 65.58 9.38Q66.53 9.38 67.24 9.92Q67.94 10.46 67.97 11.69L67.97 11.69L67.08 11.69Q67.08 11.02 66.65 10.63Q66.22 10.25 65.47 10.25Q64.73 10.25 63.66 10.97Q62.59 11.69 62.04 12.55L62.04 12.55ZM85.13 13.34L85.13 13.34Q85.13 17.30 83.78 19.45Q82.44 21.60 79.90 21.60Q77.35 21.60 75.86 19.43Q74.38 17.26 74.38 13.26Q74.38 9.26 75.84 6.97Q77.30 4.68 79.92 4.68L79.92 4.68Q81.48 4.68 82.57 5.48Q83.66 6.29 84.19 7.66L84.19 7.66Q85.13 10.18 85.13 13.34ZM84.24 12.94Q84.24 9.60 83.11 7.61Q81.98 5.62 79.87 5.62Q77.76 5.62 76.51 7.60Q75.26 9.58 75.26 13.27L75.26 13.27Q75.26 17.57 77.21 19.58L77.21 19.58Q78.29 20.69 79.68 20.69Q81.07 20.69 81.96 20.06Q82.85 19.44 83.33 18.34L83.33 18.34Q84.24 16.27 84.24 12.94ZM96.36 21.60L95.47 21.60L95.50 15.26Q95.50 13.25 94.52 11.75Q93.55 10.25 92.10 10.25Q90.65 10.25 88.90 12.24L88.90 12.24L88.90 21.60L88.01 21.60L88.01 9.60L88.90 9.60L88.90 11.04Q90.46 9.36 92.28 9.36L92.28 9.36Q93.50 9.36 94.82 10.51L94.82 10.51Q95.50 11.14 95.94 12.36Q96.38 13.58 96.38 15.24L96.38 15.24L96.36 21.60ZM107.33 20.74L107.33 20.74L107.33 21.62Q105.89 21.62 104.80 21.50Q103.70 21.38 102.53 20.99Q101.35 20.59 100.60 19.92Q99.84 19.25 99.35 18.06Q98.86 16.87 98.86 15.23Q98.86 13.58 99.30 12.36Q99.74 11.14 100.44 10.51L100.44 10.51Q101.74 9.36 102.96 9.36L102.96 9.36Q105 9.36 106.14 10.56Q107.28 11.76 107.28 13.73L107.28 13.73Q107.28 15.05 107.26 15.26L107.26 15.26L99.74 15.26Q99.74 18.36 101.59 19.55Q103.44 20.74 107.33 20.74ZM99.77 14.38L106.39 14.38L106.39 13.85Q106.39 12.26 105.49 11.26Q104.59 10.25 103.12 10.25Q101.64 10.25 100.79 11.41Q99.94 12.58 99.77 14.38L99.77 14.38Z"/></svg>