<svg xmlns="http://www.w3.org/2000/svg" xmlns:xlink="http://www.w3.org/1999/xlink" width="319.464" height="30.36"><path fill="black" d="M9.31 24L0.05 24L3.82 6.24L11.93 6.24Q13.75 6.24 14.90 6.80Q16.06 7.37 16.61 8.28Q17.16 9.19 17.16 10.20L17.16 10.20Q17.16 11.06 16.75 11.92Q16.34 12.77 15.58 13.42Q14.81 14.06 13.70 14.35L13.70 14.35L13.68 14.57Q15.14 14.88 15.84 15.86Q16.54 16.85 16.54 18.05L16.54 18.05Q16.54 19.06 16.07 20.11Q15.60 21.17 14.68 22.04Q13.75 22.92 12.41 23.46Q11.06 24 9.31 24L9.31 24ZM10.87 10.06L10.87 10.06L7.61 10.06L6.96 13.15L10.46 13.15Q11.42 13.15 11.95 12.56Q12.48 11.98 12.48 11.35L12.48 11.35Q12.48 10.85 12.10 10.45Q11.71 10.06 10.87 10.06ZM9.84 16.58L9.84 16.58L6.24 16.58L5.47 20.18L9.31 20.18Q10.44 20.18 11.06 19.51Q11.69 18.84 11.69 18.10L11.69 18.10Q11.69 17.50 11.24 17.04Q10.80 16.58 9.84 16.58ZM24.77 24.24L24.77 24.24Q22.61 24.24 21.24 23.40Q19.87 22.56 19.21 21.20Q18.55 19.85 18.55 18.34L18.55 18.34Q18.55 17.02 19.02 15.72Q19.49 14.42 20.44 13.37Q21.38 12.31 22.78 11.68Q24.17 11.04 26.02 11.04L26.02 11.04Q27.82 11.04 29.02 11.68Q30.22 12.31 30.89 13.36Q31.56 14.40 31.75 15.67Q31.94 16.94 31.73 18.24L31.73 18.24L31.63 18.79L23.04 18.79Q23.09 19.82 23.62 20.40Q24.14 20.98 25.08 20.98L25.08 20.98Q25.82 20.98 26.26 20.66Q26.69 20.35 26.88 20.05Q27.07 19.75 27.07 19.75L27.07 19.75L31.34 19.75Q31.34 19.75 31.16 20.21Q30.98 20.66 30.56 21.32Q30.14 21.98 29.39 22.66Q28.63 23.33 27.50 23.78Q26.38 24.24 24.77 24.24ZM23.40 16.27L23.40 16.27L27.72 16.27Q27.84 15.43 27.35 14.87Q26.86 14.30 25.87 14.30L25.87 14.30Q24.94 14.30 24.29 14.86Q23.64 15.41 23.40 16.27ZM49.03 24L42.82 24L40.68 6.24L45.24 6.24L46.61 19.70L53.66 6.24L58.70 6.24L49.03 24ZM62.52 10.01L62.52 10.01Q61.39 10.01 60.66 9.28Q59.93 8.54 59.93 7.54L59.93 7.54Q59.93 6.48 60.66 5.76Q61.39 5.04 62.52 5.04L62.52 5.04Q63.65 5.04 64.39 5.76Q65.14 6.48 65.14 7.54L65.14 7.54Q65.14 8.54 64.39 9.28Q63.65 10.01 62.52 10.01ZM61.30 24L56.74 24L59.45 11.28L64.01 11.28L61.30 24ZM71.26 24.24L71.26 24.24Q69.10 24.24 67.73 23.40Q66.36 22.56 65.70 21.20Q65.04 19.85 65.04 18.34L65.04 18.34Q65.04 17.02 65.51 15.72Q65.98 14.42 66.92 13.37Q67.87 12.31 69.26 11.68Q70.66 11.04 72.50 11.04L72.50 11.04Q74.30 11.04 75.50 11.68Q76.70 12.31 77.38 13.36Q78.05 14.40 78.24 15.67Q78.43 16.94 78.22 18.24L78.22 18.24L78.12 18.79L69.53 18.79Q69.58 19.82 70.10 20.40Q70.63 20.98 71.57 20.98L71.57 20.98Q72.31 20.98 72.74 20.66Q73.18 20.35 73.37 20.05Q73.56 19.75 73.56 19.75L73.56 19.75L77.83 19.75Q77.83 19.75 77.65 20.21Q77.47 20.66 77.05 21.32Q76.63 21.98 75.88 22.66Q75.12 23.33 73.99 23.78Q72.86 24.24 71.26 24.24ZM69.89 16.27L69.89 16.27L74.21 16.27Q74.33 15.43 73.84 14.87Q73.34 14.30 72.36 14.30L72.36 14.30Q71.42 14.30 70.78 14.86Q70.13 15.41 69.89 16.27ZM85.27 24.24L85.27 24.24Q83.66 24.24 82.75 23.74Q81.84 23.23 81.44 22.43Q81.05 21.62 81.02 20.74Q81 19.85 81.17 19.06L81.17 19.06L82.06 14.88L80.02 14.88L80.78 11.28L82.82 11.28L83.50 8.16L88.08 8.16L87.41 11.28L89.76 11.28L88.99 14.88L86.64 14.88L85.75 19.06Q85.58 19.87 85.92 20.32Q86.26 20.76 87.22 20.76L87.22 20.76Q87.60 20.76 87.88 20.70Q88.15 20.64 88.15 20.64L88.15 20.64L87.43 24Q87.43 24 86.82 24.12Q86.21 24.24 85.27 24.24ZM94.30 24L89.74 24L92.45 11.28L97.01 11.28L96.62 13.08L96.74 13.08Q96.74 13.08 96.94 12.77Q97.13 12.46 97.56 12.06Q97.99 11.66 98.69 11.35Q99.38 11.04 100.39 11.04L100.39 11.04Q101.78 11.04 102.64 11.70Q103.49 12.36 103.80 13.45Q104.11 14.54 103.82 15.86L103.82 15.86L102.10 24L97.54 24L99.07 16.82Q99.26 15.96 99 15.34Q98.74 14.71 97.90 14.71L97.90 14.71Q97.03 14.71 96.53 15.34Q96.02 15.96 95.83 16.82L95.83 16.82L94.30 24ZM111.96 11.04L111.96 11.04Q113.02 11.04 113.69 11.34Q114.36 11.64 114.76 12.02Q115.15 12.41 115.31 12.71Q115.46 13.01 115.46 13.01L115.46 13.01L115.66 13.01L116.02 11.28L120.58 11.28L117.94 24L113.38 24L113.66 22.61L113.47 22.61Q113.47 22.61 113.30 22.86Q113.14 23.11 112.75 23.42Q112.37 23.74 111.72 23.99Q111.07 24.24 110.11 24.24L110.11 24.24Q108.55 24.24 107.53 23.50Q106.51 22.75 106.02 21.53Q105.53 20.30 105.53 18.89L105.53 18.89Q105.53 17.52 105.96 16.14Q106.39 14.76 107.22 13.60Q108.05 12.43 109.25 11.74Q110.45 11.04 111.96 11.04ZM113.06 14.66L113.06 14.66Q112.15 14.66 111.49 15.23Q110.83 15.79 110.48 16.63Q110.14 17.47 110.14 18.31L110.14 18.31Q110.14 19.25 110.60 19.93Q111.07 20.62 112.08 20.62L112.08 20.62Q112.99 20.62 113.65 20.05Q114.31 19.49 114.66 18.65Q115.01 17.81 115.01 16.99L115.01 16.99Q115.01 16.06 114.54 15.36Q114.07 14.66 113.06 14.66ZM124.97 24L120.41 24L123.12 11.28L127.68 11.28L127.30 13.08L127.42 13.08Q127.42 13.08 127.63 12.77Q127.85 12.46 128.29 12.06Q128.74 11.66 129.43 11.35Q130.13 11.04 131.06 11.04L131.06 11.04Q132.48 11.04 133.28 11.77Q134.09 12.50 134.33 13.56L134.33 13.56L134.45 13.56Q134.45 13.56 134.68 13.18Q134.90 12.79 135.38 12.30Q135.86 11.81 136.64 11.42Q137.42 11.04 138.50 11.04L138.50 11.04Q139.87 11.04 140.68 11.68Q141.48 12.31 141.77 13.31Q142.06 14.30 141.82 15.38L141.82 15.38L139.99 24L135.43 24L137.04 16.46Q137.21 15.70 136.92 15.20Q136.63 14.71 135.94 14.71L135.94 14.71Q135.26 14.71 134.77 15.17Q134.28 15.62 134.09 16.46L134.09 16.46L132.48 24L127.92 24L129.53 16.46Q129.70 15.70 129.41 15.20Q129.12 14.71 128.42 14.71L128.42 14.71Q127.75 14.71 127.26 15.17Q126.77 15.62 126.58 16.46L126.58 16.46L124.97 24ZM152.71 24L148.10 24L151.87 6.24L159.10 6.24Q161.23 6.24 162.62 7.02Q164.02 7.80 164.69 9.05Q165.36 10.30 165.36 11.71L165.36 11.71Q165.36 12.89 164.89 14.05Q164.42 15.22 163.50 16.18Q162.58 17.14 161.23 17.70Q159.89 18.26 158.14 18.26L158.14 18.26L153.94 18.26L152.71 24ZM158.57 10.25L158.57 10.25L155.64 10.25L154.78 14.28L158.33 14.28Q159.48 14.28 160.10 13.58Q160.73 12.89 160.73 12.10L160.73 12.10Q160.73 11.38 160.21 10.81Q159.70 10.25 158.57 10.25ZM169.73 24L165.17 24L167.88 11.28L172.39 11.28L171.96 13.30L172.10 13.30Q172.66 12.26 173.60 11.65Q174.55 11.04 175.87 11.04L175.87 11.04Q176.45 11.04 176.71 11.12Q176.98 11.21 176.98 11.21L176.98 11.21L176.02 15.67Q176.02 15.67 175.72 15.61Q175.42 15.55 174.94 15.55L174.94 15.55Q173.71 15.55 172.85 16.13Q171.98 16.70 171.43 17.69Q170.88 18.67 170.62 19.90L170.62 19.90L169.73 24ZM183.55 24.24L183.55 24.24Q181.39 24.24 180.00 23.40Q178.61 22.56 177.92 21.22Q177.24 19.87 177.24 18.36L177.24 18.36Q177.24 17.04 177.73 15.74Q178.22 14.45 179.18 13.38Q180.14 12.31 181.57 11.68Q183.00 11.04 184.85 11.04L184.85 11.04Q186.98 11.04 188.39 11.88Q189.79 12.72 190.48 14.05Q191.16 15.38 191.16 16.92L191.16 16.92Q191.16 18.24 190.66 19.54Q190.15 20.83 189.19 21.90Q188.23 22.97 186.82 23.60Q185.40 24.24 183.55 24.24ZM183.72 20.59L183.72 20.59Q184.58 20.59 185.21 20.08Q185.83 19.56 186.17 18.73Q186.50 17.90 186.50 16.97L186.50 16.97Q186.50 16.06 186.05 15.37Q185.59 14.69 184.61 14.69L184.61 14.69Q183.77 14.69 183.13 15.20Q182.50 15.72 182.16 16.55Q181.82 17.38 181.82 18.31L181.82 18.31Q181.82 19.22 182.28 19.91Q182.74 20.59 183.72 20.59ZM205.90 6L205.90 6Q208.34 6 209.96 6.95Q211.58 7.90 212.40 9.47Q213.22 11.04 213.22 12.91L213.22 12.91Q213.22 15.17 212.41 17.22Q211.61 19.27 210.11 20.84Q208.61 22.42 206.50 23.33Q204.38 24.24 201.77 24.24L201.77 24.24Q199.75 24.24 198.79 24.01Q197.83 23.78 197.83 23.78L197.83 23.78L198.70 19.73Q198.70 19.73 199.55 19.96Q200.40 20.18 201.77 20.18L201.77 20.18Q203.66 20.18 205.28 19.44Q206.90 18.70 207.79 17.02L207.79 17.02Q207.31 17.45 206.57 17.77Q205.82 18.10 204.72 18.10L204.72 18.10Q202.73 18.10 201.41 17.32Q200.09 16.54 199.43 15.28Q198.77 14.02 198.77 12.60L198.77 12.60Q198.77 11.40 199.21 10.24Q199.66 9.07 200.53 8.11Q201.41 7.15 202.75 6.58Q204.10 6 205.90 6ZM206.09 9.74L206.09 9.74Q205.20 9.74 204.59 10.15Q203.98 10.56 203.66 11.17Q203.35 11.78 203.35 12.46L203.35 12.46Q203.35 13.34 203.94 14.05Q204.53 14.76 205.73 14.76L205.73 14.76Q206.64 14.76 207.24 14.35Q207.84 13.94 208.15 13.33Q208.46 12.72 208.46 12.07L208.46 12.07Q208.46 11.16 207.88 10.45Q207.29 9.74 206.09 9.74ZM222.86 24.24L222.86 24.24Q221.06 24.24 219.74 23.60Q218.42 22.97 217.55 21.88Q216.67 20.78 216.25 19.39Q215.83 18 215.83 16.46L215.83 16.46Q215.83 14.62 216.43 12.77Q217.03 10.92 218.20 9.38Q219.36 7.85 221.06 6.92Q222.77 6 224.95 6L224.95 6Q226.75 6 228.07 6.64Q229.39 7.27 230.27 8.36Q231.14 9.46 231.56 10.85Q231.98 12.24 231.98 13.78L231.98 13.78Q231.98 15.62 231.38 17.47Q230.78 19.32 229.62 20.86Q228.46 22.39 226.76 23.32Q225.07 24.24 222.86 24.24ZM223.06 20.21L223.06 20.21Q223.99 20.21 224.77 19.61Q225.55 19.01 226.10 18.02Q226.66 17.04 226.96 15.89Q227.26 14.74 227.26 13.63L227.26 13.63Q227.26 12.65 226.99 11.84Q226.73 11.04 226.19 10.55Q225.65 10.06 224.76 10.06L224.76 10.06Q223.82 10.06 223.04 10.66Q222.26 11.26 221.71 12.24Q221.16 13.22 220.86 14.38Q220.56 15.53 220.56 16.63L220.56 16.63Q220.56 17.59 220.82 18.41Q221.09 19.22 221.64 19.72Q222.19 20.21 223.06 20.21ZM240.60 24.24L240.60 24.24Q238.80 24.24 237.48 23.60Q236.16 22.97 235.28 21.88Q234.41 20.78 233.99 19.39Q233.57 18 233.57 16.46L233.57 16.46Q233.57 14.62 234.17 12.77Q234.77 10.92 235.93 9.38Q237.10 7.85 238.80 6.92Q240.50 6 242.69 6L242.69 6Q244.49 6 245.81 6.64Q247.13 7.27 248.00 8.36Q248.88 9.46 249.30 10.85Q249.72 12.24 249.72 13.78L249.72 13.78Q249.72 15.62 249.12 17.47Q248.52 19.32 247.36 20.86Q246.19 22.39 244.50 23.32Q242.81 24.24 240.60 24.24ZM240.79 20.21L240.79 20.21Q241.73 20.21 242.51 19.61Q243.29 19.01 243.84 18.02Q244.39 17.04 244.69 15.89Q244.99 14.74 244.99 13.63L244.99 13.63Q244.99 12.65 244.73 11.84Q244.46 11.04 243.92 10.55Q243.38 10.06 242.50 10.06L242.50 10.06Q241.56 10.06 240.78 10.66Q240.00 11.26 239.45 12.24Q238.90 13.22 238.60 14.38Q238.30 15.53 238.30 16.63L238.30 16.63Q238.30 17.59 238.56 18.41Q238.82 19.22 239.38 19.72Q239.93 20.21 240.79 20.21ZM261.41 10.01L261.41 10.01Q260.28 10.01 259.55 9.28Q258.82 8.54 258.82 7.54L258.82 7.54Q258.82 6.48 259.55 5.76Q260.28 5.04 261.41 5.04L261.41 5.04Q262.54 5.04 263.28 5.76Q264.02 6.48 264.02 7.54L264.02 7.54Q264.02 8.54 263.28 9.28Q262.54 10.01 261.41 10.01ZM260.18 24L255.62 24L258.34 11.28L262.90 11.28L260.18 24ZM269.38 24.24L269.38 24.24Q267.77 24.24 266.86 23.74Q265.94 23.23 265.55 22.43Q265.15 21.62 265.13 20.74Q265.10 19.85 265.27 19.06L265.27 19.06L266.16 14.88L264.12 14.88L264.89 11.28L266.93 11.28L267.60 8.16L272.18 8.16L271.51 11.28L273.86 11.28L273.10 14.88L270.74 14.88L269.86 19.06Q269.69 19.87 270.02 20.32Q270.36 20.76 271.32 20.76L271.32 20.76Q271.70 20.76 271.98 20.70Q272.26 20.64 272.26 20.64L272.26 20.64L271.54 24Q271.54 24 270.92 24.12Q270.31 24.24 269.38 24.24ZM281.23 11.04L281.23 11.04Q282.29 11.04 282.96 11.34Q283.63 11.64 284.03 12.02Q284.42 12.41 284.58 12.71Q284.74 13.01 284.74 13.01L284.74 13.01L284.93 13.01L285.29 11.28L289.85 11.28L287.21 24L282.65 24L282.94 22.61L282.74 22.61Q282.74 22.61 282.58 22.86Q282.41 23.11 282.02 23.42Q281.64 23.74 280.99 23.99Q280.34 24.24 279.38 24.24L279.38 24.24Q277.82 24.24 276.80 23.50Q275.78 22.75 275.29 21.53Q274.80 20.30 274.80 18.89L274.80 18.89Q274.80 17.52 275.23 16.14Q275.66 14.76 276.49 13.60Q277.32 12.43 278.52 11.74Q279.72 11.04 281.23 11.04ZM282.34 14.66L282.34 14.66Q281.42 14.66 280.76 15.23Q280.10 15.79 279.76 16.63Q279.41 17.47 279.41 18.31L279.41 18.31Q279.41 19.25 279.88 19.93Q280.34 20.62 281.35 20.62L281.35 20.62Q282.26 20.62 282.92 20.05Q283.58 19.49 283.93 18.65Q284.28 17.81 284.28 16.99L284.28 16.99Q284.28 16.06 283.81 15.36Q283.34 14.66 282.34 14.66ZM294.36 24L289.80 24L293.69 5.76L298.25 5.76L294.36 24ZM303.10 10.01L303.10 10.01Q301.97 10.01 301.24 9.28Q300.50 8.54 300.50 7.54L300.50 7.54Q300.50 6.48 301.24 5.76Q301.97 5.04 303.10 5.04L303.10 5.04Q304.22 5.04 304.97 5.76Q305.71 6.48 305.71 7.54L305.71 7.54Q305.71 8.54 304.97 9.28Q304.22 10.01 303.10 10.01ZM301.87 24L297.31 24L300.02 11.28L304.58 11.28L301.87 24ZM311.78 24.24L311.78 24.24Q309.67 24.24 308.29 23.40Q306.91 22.56 306.25 21.22Q305.59 19.87 305.59 18.36L305.59 18.36Q305.59 17.04 306.08 15.74Q306.58 14.45 307.54 13.38Q308.50 12.31 309.94 11.68Q311.38 11.04 313.27 11.04L313.27 11.04Q315.02 11.04 316.13 11.56Q317.23 12.07 317.84 12.83Q318.46 13.58 318.70 14.35Q318.94 15.12 318.98 15.64Q319.03 16.15 319.03 16.15L319.03 16.15L314.83 16.15Q314.83 16.15 314.81 15.91Q314.78 15.67 314.64 15.36Q314.50 15.05 314.15 14.81Q313.80 14.57 313.18 14.57L313.18 14.57Q312.24 14.57 311.57 15.16Q310.90 15.74 310.55 16.62Q310.20 17.50 310.20 18.36L310.20 18.36Q310.20 19.32 310.66 20.02Q311.11 20.71 312.10 20.71L312.10 20.71Q312.72 20.71 313.14 20.47Q313.56 20.23 313.80 19.92Q314.04 19.61 314.14 19.37Q314.23 19.13 314.23 19.13L314.23 19.13L318.43 19.13Q318.43 19.13 318.28 19.64Q318.12 20.16 317.72 20.92Q317.33 21.67 316.58 22.44Q315.84 23.21 314.66 23.72Q313.49 24.24 311.78 24.24Z"/></svg>