<svg xmlns="http://www.w3.org/2000/svg" xmlns:xlink="http://www.w3.org/1999/xlink" width="34.2" height="33.6"><path fill="black" d="M0 6.65L0 27.89L1.80 27.89L1.80 6.65L0 6.65ZM0.91 27L0.91 27Q0.50 27 0.25 27.26Q0 27.53 0 27.89L0 27.89L0 27.89Q0 28.30 0.25 28.55Q0.50 28.80 0.91 28.80L0.91 28.80L0.91 28.80Q1.27 28.80 1.54 28.55Q1.80 28.30 1.80 27.89L1.80 27.89L1.80 27.89Q1.80 27.53 1.54 27.26Q1.27 27 0.91 27L0.91 27ZM0.91 5.76L0.91 5.76Q0.50 5.76 0.25 6.02Q0 6.29 0 6.65L0 6.65L0 6.65Q0 7.06 0.25 7.31Q0.50 7.56 0.91 7.56L0.91 7.56L0.91 7.56Q1.27 7.56 1.54 7.31Q1.80 7.06 1.80 6.65L1.80 6.65L1.80 6.65Q1.80 6.29 1.54 6.02Q1.27 5.76 0.91 5.76L0.91 5.76ZM1.80 29.45L1.80 27.89L3.60 27.89L3.60 29.45L1.80 29.45ZM2.71 27L2.71 27Q2.30 27 2.05 27.26Q1.80 27.53 1.80 27.89L1.80 27.89L1.80 27.89Q1.80 28.30 2.05 28.55Q2.30 28.80 2.71 28.80L2.71 28.80L2.71 28.80Q3.07 28.80 3.34 28.55Q3.60 28.30 3.60 27.89L3.60 27.89L3.60 27.89Q3.60 27.53 3.34 27.26Q3.07 27 2.71 27L2.71 27ZM2.71 28.56L2.71 28.56Q2.30 28.56 2.05 28.82Q1.80 29.09 1.80 29.45L1.80 29.45L1.80 29.45Q1.80 29.86 2.05 30.11Q2.30 30.36 2.71 30.36L2.71 30.36L2.71 30.36Q3.07 30.36 3.34 30.11Q3.60 29.86 3.60 29.45L3.60 29.45L3.60 29.45Q3.60 29.09 3.34 28.82Q3.07 28.56 2.71 28.56L2.71 28.56ZM3.60 19.61L3.60 27.89L5.40 27.89L5.40 19.61L3.60 19.61ZM4.51 27L4.51 27Q4.10 27 3.85 27.26Q3.60 27.53 3.60 27.89L3.60 27.89L3.60 27.89Q3.60 28.30 3.85 28.55Q4.10 28.80 4.51 28.80L4.51 28.80L4.51 28.80Q4.87 28.80 5.14 28.55Q5.40 28.30 5.40 27.89L5.40 27.89L5.40 27.89Q5.40 27.53 5.14 27.26Q4.87 27 4.51 27L4.51 27ZM4.51 18.72L4.51 18.72Q4.10 18.72 3.85 18.98Q3.60 19.25 3.60 19.61L3.60 19.61L3.60 19.61Q3.60 20.02 3.85 20.27Q4.10 20.52 4.51 20.52L4.51 20.52L4.51 20.52Q4.87 20.52 5.14 20.27Q5.40 20.02 5.40 19.61L5.40 19.61L5.40 19.61Q5.40 19.25 5.14 18.98Q4.87 18.72 4.51 18.72L4.51 18.72ZM5.40 27.77L5.40 27.89L7.20 27.89L7.20 27.77L5.40 27.77ZM6.31 27L6.31 27Q5.90 27 5.65 27.26Q5.40 27.53 5.40 27.89L5.40 27.89L5.40 27.89Q5.40 28.30 5.65 28.55Q5.90 28.80 6.31 28.80L6.31 28.80L6.31 28.80Q6.67 28.80 6.94 28.55Q7.20 28.30 7.20 27.89L7.20 27.89L7.20 27.89Q7.20 27.53 6.94 27.26Q6.67 27 6.31 27L6.31 27ZM6.31 26.88L6.31 26.88Q5.90 26.88 5.65 27.14Q5.40 27.41 5.40 27.77L5.40 27.77L5.40 27.77Q5.40 28.18 5.65 28.43Q5.90 28.68 6.31 28.68L6.31 28.68L6.31 28.68Q6.67 28.68 6.94 28.43Q7.20 28.18 7.20 27.77L7.20 27.77L7.20 27.77Q7.20 27.41 6.94 27.14Q6.67 26.88 6.31 26.88L6.31 26.88ZM7.20 27.29L7.20 27.89L9 27.89L9 27.29L7.20 27.29ZM8.11 27L8.11 27Q7.70 27 7.45 27.26Q7.20 27.53 7.20 27.89L7.20 27.89L7.20 27.89Q7.20 28.30 7.45 28.55Q7.70 28.80 8.11 28.80L8.11 28.80L8.11 28.80Q8.47 28.80 8.74 28.55Q9 28.30 9 27.89L9 27.89L9 27.89Q9 27.53 8.74 27.26Q8.47 27 8.11 27L8.11 27ZM8.11 26.40L8.11 26.40Q7.70 26.40 7.45 26.66Q7.20 26.93 7.20 27.29L7.20 27.29L7.20 27.29Q7.20 27.70 7.45 27.95Q7.70 28.20 8.11 28.20L8.11 28.20L8.11 28.20Q8.47 28.20 8.74 27.95Q9 27.70 9 27.29L9 27.29L9 27.29Q9 26.93 8.74 26.66Q8.47 26.40 8.11 26.40L8.11 26.40ZM9 22.97L9 27.89L10.80 27.89L10.80 22.97L9 22.97ZM9.91 27L9.91 27Q9.50 27 9.25 27.26Q9 27.53 9 27.89L9 27.89L9 27.89Q9 28.30 9.25 28.55Q9.50 28.80 9.91 28.80L9.91 28.80L9.91 28.80Q10.27 28.80 10.54 28.55Q10.80 28.30 10.80 27.89L10.80 27.89L10.80 27.89Q10.80 27.53 10.54 27.26Q10.27 27 9.91 27L9.91 27ZM9.91 22.08L9.91 22.08Q9.50 22.08 9.25 22.34Q9 22.61 9 22.97L9 22.97L9 22.97Q9 23.38 9.25 23.63Q9.50 23.88 9.91 23.88L9.91 23.88L9.91 23.88Q10.27 23.88 10.54 23.63Q10.80 23.38 10.80 22.97L10.80 22.97L10.80 22.97Q10.80 22.61 10.54 22.34Q10.27 22.08 9.91 22.08L9.91 22.08ZM10.80 23.45L10.80 27.89L12.60 27.89L12.60 23.45L10.80 23.45ZM11.71 27L11.71 27Q11.30 27 11.05 27.26Q10.80 27.53 10.80 27.89L10.80 27.89L10.80 27.89Q10.80 28.30 11.05 28.55Q11.30 28.80 11.71 28.80L11.71 28.80L11.71 28.80Q12.07 28.80 12.34 28.55Q12.60 28.30 12.60 27.89L12.60 27.89L12.60 27.89Q12.60 27.53 12.34 27.26Q12.07 27 11.71 27L11.71 27ZM11.71 22.56L11.71 22.56Q11.30 22.56 11.05 22.82Q10.80 23.09 10.80 23.45L10.80 23.45L10.80 23.45Q10.80 23.86 11.05 24.11Q11.30 24.36 11.71 24.36L11.71 24.36L11.71 24.36Q12.07 24.36 12.34 24.11Q12.60 23.86 12.60 23.45L12.60 23.45L12.60 23.45Q12.60 23.09 12.34 22.82Q12.07 22.56 11.71 22.56L11.71 22.56ZM12.60 20.57L12.60 27.89L14.40 27.89L14.40 20.57L12.60 20.57ZM13.51 27L13.51 27Q13.10 27 12.85 27.26Q12.60 27.53 12.60 27.89L12.60 27.89L12.60 27.89Q12.60 28.30 12.85 28.55Q13.10 28.80 13.51 28.80L13.51 28.80L13.51 28.80Q13.87 28.80 14.14 28.55Q14.40 28.30 14.40 27.89L14.40 27.89L14.40 27.89Q14.40 27.53 14.14 27.26Q13.87 27 13.51 27L13.51 27ZM13.51 19.68L13.51 19.68Q13.10 19.68 12.85 19.94Q12.60 20.21 12.60 20.57L12.60 20.57L12.60 20.57Q12.60 20.98 12.85 21.23Q13.10 21.48 13.51 21.48L13.51 21.48L13.51 21.48Q13.87 21.48 14.14 21.23Q14.40 20.98 14.40 20.57L14.40 20.57L14.40 20.57Q14.40 20.21 14.14 19.94Q13.87 19.68 13.51 19.68L13.51 19.68ZM16.20 17.69L16.20 27.89L18.00 27.89L18.00 17.69L16.20 17.69ZM17.11 27L17.11 27Q16.70 27 16.45 27.26Q16.20 27.53 16.20 27.89L16.20 27.89L16.20 27.89Q16.20 28.30 16.45 28.55Q16.70 28.80 17.11 28.80L17.11 28.80L17.11 28.80Q17.47 28.80 17.74 28.55Q18.00 28.30 18.00 27.89L18.00 27.89L18.00 27.89Q18.00 27.53 17.74 27.26Q17.47 27 17.11 27L17.11 27ZM17.11 16.80L17.11 16.80Q16.70 16.80 16.45 17.06Q16.20 17.33 16.20 17.69L16.20 17.69L16.20 17.69Q16.20 18.10 16.45 18.35Q16.70 18.60 17.11 18.60L17.11 18.60L17.11 18.60Q17.47 18.60 17.74 18.35Q18.00 18.10 18.00 17.69L18.00 17.69L18.00 17.69Q18.00 17.33 17.74 17.06Q17.47 16.80 17.11 16.80L17.11 16.80ZM18.00 29.45L18.00 27.89L19.80 27.89L19.80 29.45L18.00 29.45ZM18.91 27L18.91 27Q18.50 27 18.25 27.26Q18.00 27.53 18.00 27.89L18.00 27.89L18.00 27.89Q18.00 28.30 18.25 28.55Q18.50 28.80 18.91 28.80L18.91 28.80L18.91 28.80Q19.27 28.80 19.54 28.55Q19.80 28.30 19.80 27.89L19.80 27.89L19.80 27.89Q19.80 27.53 19.54 27.26Q19.27 27 18.91 27L18.91 27ZM18.91 28.56L18.91 28.56Q18.50 28.56 18.25 28.82Q18.00 29.09 18.00 29.45L18.00 29.45L18.00 29.45Q18.00 29.86 18.25 30.11Q18.50 30.36 18.91 30.36L18.91 30.36L18.91 30.36Q19.27 30.36 19.54 30.11Q19.80 29.86 19.80 29.45L19.80 29.45L19.80 29.45Q19.80 29.09 19.54 28.82Q19.27 28.56 18.91 28.56L18.91 28.56ZM19.80 29.45L19.80 27.89L21.60 27.89L21.60 29.45L19.80 29.45ZM20.71 27L20.71 27Q20.30 27 20.05 27.26Q19.80 27.53 19.80 27.89L19.80 27.89L19.80 27.89Q19.80 28.30 20.05 28.55Q20.30 28.80 20.71 28.80L20.71 28.80L20.71 28.80Q21.07 28.80 21.34 28.55Q21.60 28.30 21.60 27.89L21.60 27.89L21.60 27.89Q21.60 27.53 21.34 27.26Q21.07 27 20.71 27L20.71 27ZM20.71 28.56L20.71 28.56Q20.30 28.56 20.05 28.82Q19.80 29.09 19.80 29.45L19.80 29.45L19.80 29.45Q19.80 29.86 20.05 30.11Q20.30 30.36 20.71 30.36L20.71 30.36L20.71 30.36Q21.07 30.36 21.34 30.11Q21.60 29.86 21.60 29.45L21.60 29.45L21.60 29.45Q21.60 29.09 21.34 28.82Q21.07 28.56 20.71 28.56L20.71 28.56ZM23.40 23.45L23.40 27.89L25.20 27.89L25.20 23.45L23.40 23.45ZM24.31 27L24.31 27Q23.90 27 23.65 27.26Q23.40 27.53 23.40 27.89L23.40 27.89L23.40 27.89Q23.40 28.30 23.65 28.55Q23.90 28.80 24.31 28.80L24.31 28.80L24.31 28.80Q24.67 28.80 24.94 28.55Q25.20 28.30 25.20 27.89L25.20 27.89L25.20 27.89Q25.20 27.53 24.94 27.26Q24.67 27 24.31 27L24.31 27ZM24.31 22.56L24.31 22.56Q23.90 22.56 23.65 22.82Q23.40 23.09 23.40 23.45L23.40 23.45L23.40 23.45Q23.40 23.86 23.65 24.11Q23.90 24.36 24.31 24.36L24.31 24.36L24.31 24.36Q24.67 24.36 24.94 24.11Q25.20 23.86 25.20 23.45L25.20 23.45L25.20 23.45Q25.20 23.09 24.94 22.82Q24.67 22.56 24.31 22.56L24.31 22.56ZM25.20 22.97L25.20 27.89L27.00 27.89L27.00 22.97L25.20 22.97ZM26.11 27L26.11 27Q25.70 27 25.45 27.26Q25.20 27.53 25.20 27.89L25.20 27.89L25.20 27.89Q25.20 28.30 25.45 28.55Q25.70 28.80 26.11 28.80L26.11 28.80L26.11 28.80Q26.47 28.80 26.74 28.55Q27.00 28.30 27.00 27.89L27.00 27.89L27.00 27.89Q27.00 27.53 26.74 27.26Q26.47 27 26.11 27L26.11 27ZM26.11 22.08L26.11 22.08Q25.70 22.08 25.45 22.34Q25.20 22.61 25.20 22.97L25.20 22.97L25.20 22.97Q25.20 23.38 25.45 23.63Q25.70 23.88 26.11 23.88L26.11 23.88L26.11 23.88Q26.47 23.88 26.74 23.63Q27.00 23.38 27.00 22.97L27.00 22.97L27.00 22.97Q27.00 22.61 26.74 22.34Q26.47 22.08 26.11 22.08L26.11 22.08ZM27.00 21.53L27.00 27.89L28.80 27.89L28.80 21.53L27.00 21.53ZM27.91 27L27.91 27Q27.50 27 27.25 27.26Q27.00 27.53 27.00 27.89L27.00 27.89L27.00 27.89Q27.00 28.30 27.25 28.55Q27.50 28.80 27.91 28.80L27.91 28.80L27.91 28.80Q28.27 28.80 28.54 28.55Q28.80 28.30 28.80 27.89L28.80 27.89L28.80 27.89Q28.80 27.53 28.54 27.26Q28.27 27 27.91 27L27.91 27ZM27.91 20.64L27.91 20.64Q27.50 20.64 27.25 20.90Q27.00 21.17 27.00 21.53L27.00 21.53L27.00 21.53Q27.00 21.94 27.25 22.19Q27.50 22.44 27.91 22.44L27.91 22.44L27.91 22.44Q28.27 22.44 28.54 22.19Q28.80 21.94 28.80 21.53L28.80 21.53L28.80 21.53Q28.80 21.17 28.54 20.90Q28.27 20.64 27.91 20.64L27.91 20.64ZM28.80 23.93L28.80 27.89L30.60 27.89L30.60 23.93L28.80 23.93ZM29.71 27L29.71 27Q29.30 27 29.05 27.26Q28.80 27.53 28.80 27.89L28.80 27.89L28.80 27.89Q28.80 28.30 29.05 28.55Q29.30 28.80 29.71 28.80L29.71 28.80L29.71 28.80Q30.07 28.80 30.34 28.55Q30.60 28.30 30.60 27.89L30.60 27.89L30.60 27.89Q30.60 27.53 30.34 27.26Q30.07 27 29.71 27L29.71 27ZM29.71 23.04L29.71 23.04Q29.30 23.04 29.05 23.30Q28.80 23.57 28.80 23.93L28.80 23.93L28.80 23.93Q28.80 24.34 29.05 24.59Q29.30 24.84 29.71 24.84L29.71 24.84L29.71 24.84Q30.07 24.84 30.34 24.59Q30.60 24.34 30.60 23.93L30.60 23.93L30.60 23.93Q30.60 23.57 30.34 23.30Q30.07 23.04 29.71 23.04L29.71 23.04ZM30.60 29.45L30.60 27.89L32.40 27.89L32.40 29.45L30.60 29.45ZM31.51 27L31.51 27Q31.10 27 30.85 27.26Q30.60 27.53 30.60 27.89L30.60 27.89L30.60 27.89Q30.60 28.30 30.85 28.55Q31.10 28.80 31.51 28.80L31.51 28.80L31.51 28.80Q31.87 28.80 32.14 28.55Q32.40 28.30 32.40 27.89L32.40 27.89L32.40 27.89Q32.40 27.53 32.14 27.26Q31.87 27 31.51 27L31.51 27ZM31.51 28.56L31.51 28.56Q31.10 28.56 30.85 28.82Q30.60 29.09 30.60 29.45L30.60 29.45L30.60 29.45Q30.60 29.86 30.85 30.11Q31.10 30.36 31.51 30.36L31.51 30.36L31.51 30.36Q31.87 30.36 32.14 30.11Q32.40 29.86 32.40 29.45L32.40 29.45L32.40 29.45Q32.40 29.09 32.14 28.82Q31.87 28.56 31.51 28.56L31.51 28.56ZM32.40 24.41L32.40 27.89L34.20 27.89L34.20 24.41L32.40 24.41ZM33.31 27L33.31 27Q32.90 27 32.65 27.26Q32.40 27.53 32.40 27.89L32.40 27.89L32.40 27.89Q32.40 28.30 32.65 28.55Q32.90 28.80 33.31 28.80L33.31 28.80L33.31 28.80Q33.67 28.80 33.94 28.55Q34.20 28.30 34.20 27.89L34.20 27.89L34.20 27.89Q34.20 27.53 33.94 27.26Q33.67 27 33.31 27L33.31 27ZM33.31 23.52L33.31 23.52Q32.90 23.52 32.65 23.78Q32.40 24.05 32.40 24.41L32.40 24.41L32.40 24.41Q32.40 24.82 32.65 25.07Q32.90 25.32 33.31 25.32L33.31 25.32L33.31 25.32Q33.67 25.32 33.94 25.07Q34.20 24.82 34.20 24.41L34.20 24.41L34.20 24.41Q34.20 24.05 33.94 23.78Q33.67 23.52 33.31 23.52L33.31 23.52Z"/></svg>