<svg xmlns="http://www.w3.org/2000/svg" xmlns:xlink="http://www.w3.org/1999/xlink" width="321.47999999999996" height="36.048"><path fill="black" d="M15.91 8.71L15.91 25.85L13.39 25.85L4.22 11.62L4.13 11.62Q4.18 12.46 4.25 13.70Q4.32 14.95 4.32 16.27L4.32 16.27L4.32 25.85L2.33 25.85L2.33 8.71L4.82 8.71L13.97 22.90L14.06 22.90Q14.04 22.51 14.00 21.74Q13.97 20.98 13.93 20.06Q13.90 19.15 13.90 18.38L13.90 18.38L13.90 8.71L15.91 8.71ZM31.46 19.39L31.46 19.39Q31.46 22.58 29.84 24.34Q28.22 26.09 25.46 26.09L25.46 26.09Q23.76 26.09 22.43 25.31Q21.10 24.53 20.33 23.03Q19.56 21.53 19.56 19.39L19.56 19.39Q19.56 16.20 21.17 14.47Q22.78 12.74 25.54 12.74L25.54 12.74Q27.29 12.74 28.62 13.52Q29.95 14.30 30.71 15.78Q31.46 17.26 31.46 19.39ZM21.74 19.39L21.74 19.39Q21.74 21.67 22.64 23.00Q23.54 24.34 25.51 24.34L25.51 24.34Q27.46 24.34 28.37 23.00Q29.28 21.67 29.28 19.39L29.28 19.39Q29.28 17.11 28.37 15.82Q27.46 14.52 25.49 14.52L25.49 14.52Q23.52 14.52 22.63 15.82Q21.74 17.11 21.74 19.39ZM39.10 24.36L39.10 24.36Q39.58 24.36 40.08 24.28Q40.58 24.19 40.90 24.10L40.90 24.10L40.90 25.70Q40.56 25.87 39.94 25.98Q39.31 26.09 38.74 26.09L38.74 26.09Q37.73 26.09 36.88 25.74Q36.02 25.39 35.50 24.53Q34.97 23.66 34.97 22.10L34.97 22.10L34.97 14.62L33.14 14.62L33.14 13.61L34.99 12.77L35.83 10.03L37.08 10.03L37.08 12.98L40.80 12.98L40.80 14.62L37.08 14.62L37.08 22.06Q37.08 23.23 37.64 23.80Q38.21 24.36 39.10 24.36ZM54.65 19.39L54.65 19.39Q54.65 22.58 53.03 24.34Q51.41 26.09 48.65 26.09L48.65 26.09Q46.94 26.09 45.61 25.31Q44.28 24.53 43.51 23.03Q42.74 21.53 42.74 19.39L42.74 19.39Q42.74 16.20 44.35 14.47Q45.96 12.74 48.72 12.74L48.72 12.74Q50.47 12.74 51.80 13.52Q53.14 14.30 53.89 15.78Q54.65 17.26 54.65 19.39ZM44.93 19.39L44.93 19.39Q44.93 21.67 45.83 23.00Q46.73 24.34 48.70 24.34L48.70 24.34Q50.64 24.34 51.55 23.00Q52.46 21.67 52.46 19.39L52.46 19.39Q52.46 17.11 51.55 15.82Q50.64 14.52 48.67 14.52L48.67 14.52Q46.70 14.52 45.82 15.82Q44.93 17.11 44.93 19.39ZM74.45 21.26L74.45 21.26Q74.45 23.54 72.79 24.82Q71.14 26.09 68.33 26.09L68.33 26.09Q66.89 26.09 65.66 25.87Q64.44 25.66 63.62 25.27L63.62 25.27L63.62 23.21Q64.49 23.59 65.77 23.90Q67.06 24.22 68.42 24.22L68.42 24.22Q70.34 24.22 71.32 23.47Q72.29 22.73 72.29 21.46L72.29 21.46Q72.29 20.62 71.93 20.04Q71.57 19.46 70.69 18.97Q69.82 18.48 68.26 17.93L68.26 17.93Q66.07 17.14 64.96 15.98Q63.84 14.83 63.84 12.84L63.84 12.84Q63.84 11.47 64.54 10.50Q65.23 9.53 66.47 9Q67.70 8.47 69.31 8.47L69.31 8.47Q70.73 8.47 71.90 8.74Q73.08 9 74.04 9.43L74.04 9.43L73.37 11.28Q72.48 10.90 71.44 10.63Q70.39 10.37 69.26 10.37L69.26 10.37Q67.66 10.37 66.84 11.05Q66.02 11.74 66.02 12.86L66.02 12.86Q66.02 13.73 66.38 14.30Q66.74 14.88 67.56 15.34Q68.38 15.79 69.77 16.32L69.77 16.32Q71.28 16.87 72.32 17.51Q73.37 18.14 73.91 19.03Q74.45 19.92 74.45 21.26ZM82.49 12.77L82.49 12.77Q84.84 12.77 85.97 13.80Q87.10 14.83 87.10 17.09L87.10 17.09L87.10 25.85L85.56 25.85L85.15 24.02L85.06 24.02Q84.22 25.08 83.29 25.58Q82.37 26.09 80.74 26.09L80.74 26.09Q78.98 26.09 77.83 25.16Q76.68 24.24 76.68 22.27L76.68 22.27Q76.68 20.35 78.19 19.31Q79.70 18.26 82.85 18.17L82.85 18.17L85.03 18.10L85.03 17.33Q85.03 15.72 84.34 15.10Q83.64 14.47 82.37 14.47L82.37 14.47Q81.36 14.47 80.45 14.77Q79.54 15.07 78.74 15.46L78.74 15.46L78.10 13.87Q78.94 13.42 80.09 13.09Q81.24 12.77 82.49 12.77ZM85.01 19.56L83.11 19.63Q80.71 19.73 79.79 20.40Q78.86 21.07 78.86 22.30L78.86 22.30Q78.86 23.38 79.52 23.88Q80.18 24.38 81.22 24.38L81.22 24.38Q82.85 24.38 83.93 23.48Q85.01 22.58 85.01 20.71L85.01 20.71L85.01 19.56ZM97.27 12.74L97.27 12.74Q99.58 12.74 100.75 13.86Q101.93 14.98 101.93 17.47L101.93 17.47L101.93 25.85L99.84 25.85L99.84 17.62Q99.84 14.52 96.96 14.52L96.96 14.52Q94.82 14.52 94.01 15.72Q93.19 16.92 93.19 19.18L93.19 19.18L93.19 25.85L91.08 25.85L91.08 12.98L92.78 12.98L93.10 14.74L93.22 14.74Q93.84 13.73 94.94 13.24Q96.05 12.74 97.27 12.74ZM114.29 22.30L114.29 22.30Q114.29 24.17 112.90 25.13Q111.50 26.09 109.15 26.09L109.15 26.09Q107.81 26.09 106.84 25.87Q105.86 25.66 105.12 25.27L105.12 25.27L105.12 23.35Q105.89 23.74 106.98 24.06Q108.07 24.38 109.20 24.38L109.20 24.38Q110.81 24.38 111.53 23.87Q112.25 23.35 112.25 22.49L112.25 22.49Q112.25 22.01 111.98 21.62Q111.72 21.24 111.04 20.86Q110.35 20.47 109.08 19.99L109.08 19.99Q107.83 19.51 106.94 19.03Q106.06 18.55 105.58 17.88Q105.10 17.21 105.10 16.15L105.10 16.15Q105.10 14.52 106.43 13.63Q107.76 12.74 109.92 12.74L109.92 12.74Q111.10 12.74 112.12 12.97Q113.14 13.20 114.02 13.61L114.02 13.61L113.30 15.29Q112.49 14.95 111.60 14.71Q110.71 14.47 109.78 14.47L109.78 14.47Q108.48 14.47 107.80 14.89Q107.11 15.31 107.11 16.03L107.11 16.03Q107.11 16.56 107.42 16.93Q107.74 17.30 108.47 17.65Q109.20 18 110.42 18.48L110.42 18.48Q111.65 18.94 112.51 19.42Q113.38 19.90 113.83 20.58Q114.29 21.26 114.29 22.30ZM129.62 16.18L136.68 25.85L134.14 25.85L128.06 17.66L126.31 19.20L126.31 25.85L124.15 25.85L124.15 8.71L126.31 8.71L126.31 17.16Q127.03 16.34 127.78 15.53Q128.52 14.71 129.26 13.90L129.26 13.90L133.90 8.71L136.42 8.71L129.62 16.18ZM143.59 12.77L143.59 12.77Q145.94 12.77 147.07 13.80Q148.20 14.83 148.20 17.09L148.20 17.09L148.20 25.85L146.66 25.85L146.26 24.02L146.16 24.02Q145.32 25.08 144.40 25.58Q143.47 26.09 141.84 26.09L141.84 26.09Q140.09 26.09 138.94 25.16Q137.78 24.24 137.78 22.27L137.78 22.27Q137.78 20.35 139.30 19.31Q140.81 18.26 143.95 18.17L143.95 18.17L146.14 18.10L146.14 17.33Q146.14 15.72 145.44 15.10Q144.74 14.47 143.47 14.47L143.47 14.47Q142.46 14.47 141.55 14.77Q140.64 15.07 139.85 15.46L139.85 15.46L139.20 13.87Q140.04 13.42 141.19 13.09Q142.34 12.77 143.59 12.77ZM146.11 19.56L144.22 19.63Q141.82 19.73 140.89 20.40Q139.97 21.07 139.97 22.30L139.97 22.30Q139.97 23.38 140.63 23.88Q141.29 24.38 142.32 24.38L142.32 24.38Q143.95 24.38 145.03 23.48Q146.11 22.58 146.11 20.71L146.11 20.71L146.11 19.56ZM153.26 8.16L153.26 8.16Q153.74 8.16 154.12 8.48Q154.49 8.81 154.49 9.50L154.49 9.50Q154.49 10.18 154.12 10.51Q153.74 10.85 153.26 10.85L153.26 10.85Q152.74 10.85 152.38 10.51Q152.02 10.18 152.02 9.50L152.02 9.50Q152.02 8.81 152.38 8.48Q152.74 8.16 153.26 8.16ZM152.18 12.98L154.30 12.98L154.30 25.85L152.18 25.85L152.18 12.98ZM162.67 24.36L162.67 24.36Q163.15 24.36 163.66 24.28Q164.16 24.19 164.47 24.10L164.47 24.10L164.47 25.70Q164.14 25.87 163.51 25.98Q162.89 26.09 162.31 26.09L162.31 26.09Q161.30 26.09 160.45 25.74Q159.60 25.39 159.07 24.53Q158.54 23.66 158.54 22.10L158.54 22.10L158.54 14.62L156.72 14.62L156.72 13.61L158.57 12.77L159.41 10.03L160.66 10.03L160.66 12.98L164.38 12.98L164.38 14.62L160.66 14.62L160.66 22.06Q160.66 23.23 161.22 23.80Q161.78 24.36 162.67 24.36ZM169.15 7.61L169.15 12.96Q169.15 13.92 169.03 14.76L169.03 14.76L169.18 14.76Q169.80 13.78 170.87 13.27Q171.94 12.77 173.18 12.77L173.18 12.77Q175.54 12.77 176.71 13.88Q177.89 15.00 177.89 17.47L177.89 17.47L177.89 25.85L175.80 25.85L175.80 17.62Q175.80 14.52 172.92 14.52L172.92 14.52Q170.76 14.52 169.96 15.73Q169.15 16.94 169.15 19.20L169.15 19.20L169.15 25.85L167.04 25.85L167.04 7.61L169.15 7.61ZM182.95 8.16L182.95 8.16Q183.43 8.16 183.80 8.48Q184.18 8.81 184.18 9.50L184.18 9.50Q184.18 10.18 183.80 10.51Q183.43 10.85 182.95 10.85L182.95 10.85Q182.42 10.85 182.06 10.51Q181.70 10.18 181.70 9.50L181.70 9.50Q181.70 8.81 182.06 8.48Q182.42 8.16 182.95 8.16ZM181.87 12.98L183.98 12.98L183.98 25.85L181.87 25.85L181.87 12.98ZM205.73 20.06L205.73 21.96L203.23 21.96L203.23 25.85L201.19 25.85L201.19 21.96L192.98 21.96L192.98 20.16L201.05 8.62L203.23 8.62L203.23 20.06L205.73 20.06ZM201.19 20.06L201.19 14.66Q201.19 13.42 201.24 12.54Q201.29 11.66 201.31 10.87L201.31 10.87L201.22 10.87Q201.02 11.33 200.74 11.86Q200.45 12.38 200.18 12.74L200.18 12.74L195.05 20.06L201.19 20.06ZM218.76 17.26L218.76 17.26Q218.76 20.02 218.18 22.00Q217.61 23.98 216.36 25.03Q215.11 26.09 213.05 26.09L213.05 26.09Q210.14 26.09 208.76 23.75Q207.38 21.41 207.38 17.26L207.38 17.26Q207.38 14.47 207.95 12.50Q208.51 10.54 209.76 9.49Q211.01 8.45 213.05 8.45L213.05 8.45Q215.93 8.45 217.34 10.76Q218.76 13.08 218.76 17.26ZM209.50 17.26L209.50 17.26Q209.50 20.78 210.30 22.54Q211.10 24.29 213.05 24.29L213.05 24.29Q214.97 24.29 215.80 22.55Q216.62 20.81 216.62 17.26L216.62 17.26Q216.62 13.75 215.80 12.00Q214.97 10.25 213.05 10.25L213.05 10.25Q211.10 10.25 210.30 12.00Q209.50 13.75 209.50 17.26ZM232.49 17.26L232.49 17.26Q232.49 20.02 231.91 22.00Q231.34 23.98 230.09 25.03Q228.84 26.09 226.78 26.09L226.78 26.09Q223.87 26.09 222.49 23.75Q221.11 21.41 221.11 17.26L221.11 17.26Q221.11 14.47 221.68 12.50Q222.24 10.54 223.49 9.49Q224.74 8.45 226.78 8.45L226.78 8.45Q229.66 8.45 231.07 10.76Q232.49 13.08 232.49 17.26ZM223.22 17.26L223.22 17.26Q223.22 20.78 224.03 22.54Q224.83 24.29 226.78 24.29L226.78 24.29Q228.70 24.29 229.52 22.55Q230.35 20.81 230.35 17.26L230.35 17.26Q230.35 13.75 229.52 12.00Q228.70 10.25 226.78 10.25L226.78 10.25Q224.83 10.25 224.03 12.00Q223.22 13.75 223.22 17.26ZM248.35 12.74L248.35 12.74Q250.66 12.74 251.83 13.86Q253.01 14.98 253.01 17.47L253.01 17.47L253.01 25.85L250.92 25.85L250.92 17.62Q250.92 14.52 248.04 14.52L248.04 14.52Q245.90 14.52 245.09 15.72Q244.27 16.92 244.27 19.18L244.27 19.18L244.27 25.85L242.16 25.85L242.16 12.98L243.86 12.98L244.18 14.74L244.30 14.74Q244.92 13.73 246.02 13.24Q247.13 12.74 248.35 12.74ZM268.18 19.39L268.18 19.39Q268.18 22.58 266.56 24.34Q264.94 26.09 262.18 26.09L262.18 26.09Q260.47 26.09 259.14 25.31Q257.81 24.53 257.04 23.03Q256.27 21.53 256.27 19.39L256.27 19.39Q256.27 16.20 257.88 14.47Q259.49 12.74 262.25 12.74L262.25 12.74Q264 12.74 265.33 13.52Q266.66 14.30 267.42 15.78Q268.18 17.26 268.18 19.39ZM258.46 19.39L258.46 19.39Q258.46 21.67 259.36 23.00Q260.26 24.34 262.22 24.34L262.22 24.34Q264.17 24.34 265.08 23.00Q265.99 21.67 265.99 19.39L265.99 19.39Q265.99 17.11 265.08 15.82Q264.17 14.52 262.20 14.52L262.20 14.52Q260.23 14.52 259.34 15.82Q258.46 17.11 258.46 19.39ZM277.51 12.74L277.51 12.74Q277.87 12.74 278.29 12.78Q278.71 12.82 279.02 12.89L279.02 12.89L278.76 14.83Q278.45 14.76 278.08 14.71Q277.70 14.66 277.37 14.66L277.37 14.66Q276.38 14.66 275.52 15.20Q274.66 15.74 274.14 16.72Q273.62 17.69 273.62 18.98L273.62 18.98L273.62 25.85L271.51 25.85L271.51 12.98L273.24 12.98L273.48 15.34L273.58 15.34Q274.20 14.28 275.18 13.51Q276.17 12.74 277.51 12.74ZM295.54 12.74L295.54 12.74Q297.72 12.74 298.80 13.86Q299.88 14.98 299.88 17.47L299.88 17.47L299.88 25.85L297.79 25.85L297.79 17.57Q297.79 14.52 295.18 14.52L295.18 14.52Q293.30 14.52 292.50 15.60Q291.70 16.68 291.70 18.74L291.70 18.74L291.70 25.85L289.61 25.85L289.61 17.57Q289.61 14.52 286.97 14.52L286.97 14.52Q285.02 14.52 284.28 15.72Q283.54 16.92 283.54 19.18L283.54 19.18L283.54 25.85L281.42 25.85L281.42 12.98L283.13 12.98L283.44 14.74L283.56 14.74Q284.16 13.73 285.18 13.24Q286.20 12.74 287.35 12.74L287.35 12.74Q290.38 12.74 291.29 14.90L291.29 14.90L291.41 14.90Q292.06 13.80 293.17 13.27Q294.29 12.74 295.54 12.74ZM308.74 12.77L308.74 12.77Q311.09 12.77 312.22 13.80Q313.34 14.83 313.34 17.09L313.34 17.09L313.34 25.85L311.81 25.85L311.40 24.02L311.30 24.02Q310.46 25.08 309.54 25.58Q308.62 26.09 306.98 26.09L306.98 26.09Q305.23 26.09 304.08 25.16Q302.93 24.24 302.93 22.27L302.93 22.27Q302.93 20.35 304.44 19.31Q305.95 18.26 309.10 18.17L309.10 18.17L311.28 18.10L311.28 17.33Q311.28 15.72 310.58 15.10Q309.89 14.47 308.62 14.47L308.62 14.47Q307.61 14.47 306.70 14.77Q305.78 15.07 304.99 15.46L304.99 15.46L304.34 13.87Q305.18 13.42 306.34 13.09Q307.49 12.77 308.74 12.77ZM311.26 19.56L309.36 19.63Q306.96 19.73 306.04 20.40Q305.11 21.07 305.11 22.30L305.11 22.30Q305.11 23.38 305.77 23.88Q306.43 24.38 307.46 24.38L307.46 24.38Q309.10 24.38 310.18 23.48Q311.26 22.58 311.26 20.71L311.26 20.71L311.26 19.56ZM319.44 7.61L319.44 25.85L317.33 25.85L317.33 7.61L319.44 7.61Z"/></svg>