<svg xmlns="http://www.w3.org/2000/svg" xmlns:xlink="http://www.w3.org/1999/xlink" width="435.144" height="32.688"><path fill="black" d="M15.91 8.52L15.91 25.66L13.39 25.66L4.22 11.42L4.13 11.42Q4.18 12.26 4.25 13.51Q4.32 14.76 4.32 16.08L4.32 16.08L4.32 25.66L2.33 25.66L2.33 8.52L4.82 8.52L13.97 22.70L14.06 22.70Q14.04 22.32 14.00 21.55Q13.97 20.78 13.93 19.87Q13.90 18.96 13.90 18.19L13.90 18.19L13.90 8.52L15.91 8.52ZM31.46 19.20L31.46 19.20Q31.46 22.39 29.84 24.14Q28.22 25.90 25.46 25.90L25.46 25.90Q23.76 25.90 22.43 25.12Q21.10 24.34 20.33 22.84Q19.56 21.34 19.56 19.20L19.56 19.20Q19.56 16.01 21.17 14.28Q22.78 12.55 25.54 12.55L25.54 12.55Q27.29 12.55 28.62 13.33Q29.95 14.11 30.71 15.59Q31.46 17.06 31.46 19.20ZM21.74 19.20L21.74 19.20Q21.74 21.48 22.64 22.81Q23.54 24.14 25.51 24.14L25.51 24.14Q27.46 24.14 28.37 22.81Q29.28 21.48 29.28 19.20L29.28 19.20Q29.28 16.92 28.37 15.62Q27.46 14.33 25.49 14.33L25.49 14.33Q23.52 14.33 22.63 15.62Q21.74 16.92 21.74 19.20ZM39.10 24.17L39.10 24.17Q39.58 24.17 40.08 24.08Q40.58 24 40.90 23.90L40.90 23.90L40.90 25.51Q40.56 25.68 39.94 25.79Q39.31 25.90 38.74 25.90L38.74 25.90Q37.73 25.90 36.88 25.55Q36.02 25.20 35.50 24.34Q34.97 23.47 34.97 21.91L34.97 21.91L34.97 14.42L33.14 14.42L33.14 13.42L34.99 12.58L35.83 9.84L37.08 9.84L37.08 12.79L40.80 12.79L40.80 14.42L37.08 14.42L37.08 21.86Q37.08 23.04 37.64 23.60Q38.21 24.17 39.10 24.17ZM54.65 19.20L54.65 19.20Q54.65 22.39 53.03 24.14Q51.41 25.90 48.65 25.90L48.65 25.90Q46.94 25.90 45.61 25.12Q44.28 24.34 43.51 22.84Q42.74 21.34 42.74 19.20L42.74 19.20Q42.74 16.01 44.35 14.28Q45.96 12.55 48.72 12.55L48.72 12.55Q50.47 12.55 51.80 13.33Q53.14 14.11 53.89 15.59Q54.65 17.06 54.65 19.20ZM44.93 19.20L44.93 19.20Q44.93 21.48 45.83 22.81Q46.73 24.14 48.70 24.14L48.70 24.14Q50.64 24.14 51.55 22.81Q52.46 21.48 52.46 19.20L52.46 19.20Q52.46 16.92 51.55 15.62Q50.64 14.33 48.67 14.33L48.67 14.33Q46.70 14.33 45.82 15.62Q44.93 16.92 44.93 19.20ZM74.23 21.07L74.23 21.07Q74.23 23.35 72.58 24.62Q70.92 25.90 68.11 25.90L68.11 25.90Q66.67 25.90 65.45 25.68Q64.22 25.46 63.41 25.08L63.41 25.08L63.41 23.02Q64.27 23.40 65.56 23.71Q66.84 24.02 68.21 24.02L68.21 24.02Q70.13 24.02 71.10 23.28Q72.07 22.54 72.07 21.26L72.07 21.26Q72.07 20.42 71.71 19.85Q71.35 19.27 70.48 18.78Q69.60 18.29 68.04 17.74L68.04 17.74Q66.94 17.33 66.11 16.86Q65.28 16.39 64.73 15.79Q64.18 15.19 63.90 14.42Q63.62 13.66 63.62 12.65L63.62 12.65Q63.62 11.28 64.32 10.31Q65.02 9.34 66.25 8.81Q67.49 8.28 69.10 8.28L69.10 8.28Q70.51 8.28 71.69 8.54Q72.86 8.81 73.82 9.24L73.82 9.24L73.15 11.09Q72.26 10.70 71.22 10.44Q70.18 10.18 69.05 10.18L69.05 10.18Q67.44 10.18 66.62 10.86Q65.81 11.54 65.81 12.67L65.81 12.67Q65.81 13.54 66.17 14.11Q66.53 14.69 67.34 15.14Q68.16 15.60 69.55 16.13L69.55 16.13Q71.06 16.68 72.11 17.32Q73.15 17.95 73.69 18.84Q74.23 19.73 74.23 21.07ZM82.27 12.58L82.27 12.58Q84.62 12.58 85.75 13.61Q86.88 14.64 86.88 16.90L86.88 16.90L86.88 25.66L85.34 25.66L84.94 23.83L84.84 23.83Q84 24.89 83.08 25.39Q82.15 25.90 80.52 25.90L80.52 25.90Q78.77 25.90 77.62 24.97Q76.46 24.05 76.46 22.08L76.46 22.08Q76.46 20.16 77.98 19.12Q79.49 18.07 82.63 17.98L82.63 17.98L84.82 17.90L84.82 17.14Q84.82 15.53 84.12 14.90Q83.42 14.28 82.15 14.28L82.15 14.28Q81.14 14.28 80.23 14.58Q79.32 14.88 78.53 15.26L78.53 15.26L77.88 13.68Q78.72 13.22 79.87 12.90Q81.02 12.58 82.27 12.58ZM84.79 19.37L82.90 19.44Q80.50 19.54 79.57 20.21Q78.65 20.88 78.65 22.10L78.65 22.10Q78.65 23.18 79.31 23.69Q79.97 24.19 81 24.19L81 24.19Q82.63 24.19 83.71 23.29Q84.79 22.39 84.79 20.52L84.79 20.52L84.79 19.37ZM97.06 12.55L97.06 12.55Q99.36 12.55 100.54 13.67Q101.71 14.78 101.71 17.28L101.71 17.28L101.71 25.66L99.62 25.66L99.62 17.42Q99.62 15.86 98.93 15.10Q98.23 14.33 96.74 14.33L96.74 14.33Q94.61 14.33 93.79 15.53Q92.98 16.73 92.98 18.98L92.98 18.98L92.98 25.66L90.86 25.66L90.86 12.79L92.57 12.79L92.88 14.54L93 14.54Q93.62 13.54 94.73 13.04Q95.83 12.55 97.06 12.55ZM114.07 22.10L114.07 22.10Q114.07 23.98 112.68 24.94Q111.29 25.90 108.94 25.90L108.94 25.90Q107.59 25.90 106.62 25.68Q105.65 25.46 104.90 25.08L104.90 25.08L104.90 23.16Q105.67 23.54 106.76 23.87Q107.86 24.19 108.98 24.19L108.98 24.19Q110.59 24.19 111.31 23.68Q112.03 23.16 112.03 22.30L112.03 22.30Q112.03 21.82 111.77 21.43Q111.50 21.05 110.82 20.66Q110.14 20.28 108.86 19.80L108.86 19.80Q107.62 19.32 106.73 18.84Q105.84 18.36 105.36 17.69Q104.88 17.02 104.88 15.96L104.88 15.96Q104.88 14.33 106.21 13.44Q107.54 12.55 109.70 12.55L109.70 12.55Q110.88 12.55 111.90 12.78Q112.92 13.01 113.81 13.42L113.81 13.42L113.09 15.10Q112.27 14.76 111.38 14.52Q110.50 14.28 109.56 14.28L109.56 14.28Q108.26 14.28 107.58 14.70Q106.90 15.12 106.90 15.84L106.90 15.84Q106.90 16.37 107.21 16.74Q107.52 17.11 108.25 17.46Q108.98 17.81 110.21 18.29L110.21 18.29Q111.43 18.74 112.30 19.22Q113.16 19.70 113.62 20.39Q114.07 21.07 114.07 22.10ZM136.82 8.52L136.82 25.66L134.66 25.66L134.66 17.66L125.88 17.66L125.88 25.66L123.72 25.66L123.72 8.52L125.88 8.52L125.88 15.77L134.66 15.77L134.66 8.52L136.82 8.52ZM146.09 12.58L146.09 12.58Q148.44 12.58 149.57 13.61Q150.70 14.64 150.70 16.90L150.70 16.90L150.70 25.66L149.16 25.66L148.75 23.83L148.66 23.83Q147.82 24.89 146.89 25.39Q145.97 25.90 144.34 25.90L144.34 25.90Q142.58 25.90 141.43 24.97Q140.28 24.05 140.28 22.08L140.28 22.08Q140.28 20.16 141.79 19.12Q143.30 18.07 146.45 17.98L146.45 17.98L148.63 17.90L148.63 17.14Q148.63 15.53 147.94 14.90Q147.24 14.28 145.97 14.28L145.97 14.28Q144.96 14.28 144.05 14.58Q143.14 14.88 142.34 15.26L142.34 15.26L141.70 13.68Q142.54 13.22 143.69 12.90Q144.84 12.58 146.09 12.58ZM148.61 19.37L146.71 19.44Q144.31 19.54 143.39 20.21Q142.46 20.88 142.46 22.10L142.46 22.10Q142.46 23.18 143.12 23.69Q143.78 24.19 144.82 24.19L144.82 24.19Q146.45 24.19 147.53 23.29Q148.61 22.39 148.61 20.52L148.61 20.52L148.61 19.37ZM160.87 12.55L160.87 12.55Q163.18 12.55 164.35 13.67Q165.53 14.78 165.53 17.28L165.53 17.28L165.53 25.66L163.44 25.66L163.44 17.42Q163.44 15.86 162.74 15.10Q162.05 14.33 160.56 14.33L160.56 14.33Q158.42 14.33 157.61 15.53Q156.79 16.73 156.79 18.98L156.79 18.98L156.79 25.66L154.68 25.66L154.68 12.79L156.38 12.79L156.70 14.54L156.82 14.54Q157.44 13.54 158.54 13.04Q159.65 12.55 160.87 12.55ZM169.51 12.79L171.62 12.79L171.62 25.66L169.51 25.66L169.51 12.79ZM170.59 7.97L170.59 7.97Q171.07 7.97 171.44 8.29Q171.82 8.62 171.82 9.31L171.82 9.31Q171.82 9.98 171.44 10.32Q171.07 10.66 170.59 10.66L170.59 10.66Q170.06 10.66 169.70 10.32Q169.34 9.98 169.34 9.31L169.34 9.31Q169.34 8.62 169.70 8.29Q170.06 7.97 170.59 7.97ZM181.63 12.79L181.63 14.42L178.39 14.42L178.39 25.66L176.28 25.66L176.28 14.42L174.02 14.42L174.02 13.44L176.28 12.72L176.28 11.98Q176.28 10.32 176.77 9.29Q177.26 8.26 178.20 7.78Q179.14 7.30 180.46 7.30L180.46 7.30Q181.22 7.30 181.86 7.43Q182.50 7.56 182.95 7.73L182.95 7.73L182.40 9.38Q182.02 9.26 181.51 9.14Q181.01 9.02 180.48 9.02L180.48 9.02Q179.42 9.02 178.91 9.73Q178.39 10.44 178.39 11.95L178.39 11.95L178.39 12.79L181.63 12.79ZM183.96 12.79L186.07 12.79L186.07 25.66L183.96 25.66L183.96 12.79ZM185.04 7.97L185.04 7.97Q185.52 7.97 185.89 8.29Q186.26 8.62 186.26 9.31L186.26 9.31Q186.26 9.98 185.89 10.32Q185.52 10.66 185.04 10.66L185.04 10.66Q184.51 10.66 184.15 10.32Q183.79 9.98 183.79 9.31L183.79 9.31Q183.79 8.62 184.15 8.29Q184.51 7.97 185.04 7.97ZM196.68 8.52L201.41 8.52Q204.60 8.52 206.12 9.73Q207.65 10.94 207.65 13.39L207.65 13.39Q207.65 14.76 207.14 15.67Q206.64 16.58 205.86 17.12Q205.08 17.66 204.22 17.98L204.22 17.98L208.92 25.66L206.40 25.66L202.25 18.58L198.84 18.58L198.84 25.66L196.68 25.66L196.68 8.52ZM201.29 10.39L201.29 10.39L198.84 10.39L198.84 16.75L201.41 16.75Q203.50 16.75 204.46 15.92Q205.42 15.10 205.42 13.49L205.42 13.49Q205.42 11.81 204.41 11.10Q203.40 10.39 201.29 10.39ZM222.50 19.20L222.50 19.20Q222.50 22.39 220.88 24.14Q219.26 25.90 216.50 25.90L216.50 25.90Q214.80 25.90 213.47 25.12Q212.14 24.34 211.37 22.84Q210.60 21.34 210.60 19.20L210.60 19.20Q210.60 16.01 212.21 14.28Q213.82 12.55 216.58 12.55L216.58 12.55Q218.33 12.55 219.66 13.33Q220.99 14.11 221.75 15.59Q222.50 17.06 222.50 19.20ZM212.78 19.20L212.78 19.20Q212.78 21.48 213.68 22.81Q214.58 24.14 216.55 24.14L216.55 24.14Q218.50 24.14 219.41 22.81Q220.32 21.48 220.32 19.20L220.32 19.20Q220.32 16.92 219.41 15.62Q218.50 14.33 216.53 14.33L216.53 14.33Q214.56 14.33 213.67 15.62Q212.78 16.92 212.78 19.20ZM227.95 7.42L227.95 12.77Q227.95 13.22 227.92 13.70Q227.88 14.18 227.83 14.57L227.83 14.57L227.98 14.57Q228.60 13.58 229.67 13.08Q230.74 12.58 231.98 12.58L231.98 12.58Q234.34 12.58 235.51 13.69Q236.69 14.81 236.69 17.28L236.69 17.28L236.69 25.66L234.60 25.66L234.60 17.42Q234.60 14.33 231.72 14.33L231.72 14.33Q229.56 14.33 228.76 15.54Q227.95 16.75 227.95 19.01L227.95 19.01L227.95 25.66L225.84 25.66L225.84 7.42L227.95 7.42ZM240.67 12.79L242.78 12.79L242.78 25.66L240.67 25.66L240.67 12.79ZM241.75 7.97L241.75 7.97Q242.23 7.97 242.60 8.29Q242.98 8.62 242.98 9.31L242.98 9.31Q242.98 9.98 242.60 10.32Q242.23 10.66 241.75 10.66L241.75 10.66Q241.22 10.66 240.86 10.32Q240.50 9.98 240.50 9.31L240.50 9.31Q240.50 8.62 240.86 8.29Q241.22 7.97 241.75 7.97ZM253.06 12.55L253.06 12.55Q255.36 12.55 256.54 13.67Q257.71 14.78 257.71 17.28L257.71 17.28L257.71 25.66L255.62 25.66L255.62 17.42Q255.62 15.86 254.93 15.10Q254.23 14.33 252.74 14.33L252.74 14.33Q250.61 14.33 249.79 15.53Q248.98 16.73 248.98 18.98L248.98 18.98L248.98 25.66L246.86 25.66L246.86 12.79L248.57 12.79L248.88 14.54L249 14.54Q249.62 13.54 250.73 13.04Q251.83 12.55 253.06 12.55ZM266.26 12.55L266.26 12.55Q267.53 12.55 268.55 13.03Q269.57 13.51 270.29 14.50L270.29 14.50L270.41 14.50L270.70 12.79L272.38 12.79L272.38 25.87Q272.38 28.63 270.97 30.02Q269.57 31.42 266.62 31.42L266.62 31.42Q265.22 31.42 264.06 31.21Q262.90 31.01 261.98 30.60L261.98 30.60L261.98 28.66Q263.88 29.66 266.74 29.66L266.74 29.66Q268.39 29.66 269.34 28.69Q270.29 27.72 270.29 26.04L270.29 26.04L270.29 25.54Q270.29 25.25 270.31 24.71Q270.34 24.17 270.36 23.95L270.36 23.95L270.26 23.95Q269.59 24.94 268.60 25.42Q267.60 25.90 266.28 25.90L266.28 25.90Q263.78 25.90 262.38 24.14Q260.98 22.39 260.98 19.25L260.98 19.25Q260.98 16.18 262.38 14.36Q263.78 12.55 266.26 12.55ZM266.54 14.33L266.54 14.33Q264.94 14.33 264.05 15.61Q263.16 16.90 263.16 19.27L263.16 19.27Q263.16 21.65 264.04 22.91Q264.91 24.17 266.59 24.17L266.59 24.17Q268.54 24.17 269.42 23.12Q270.31 22.08 270.31 19.75L270.31 19.75L270.31 19.25Q270.31 16.61 269.40 15.47Q268.49 14.33 266.54 14.33ZM279.62 25.70L274.44 12.79L276.70 12.79L279.48 20.11Q279.84 21.07 280.13 21.95Q280.42 22.82 280.56 23.62L280.56 23.62L280.66 23.62Q280.80 23.02 281.11 22.04Q281.42 21.07 281.76 20.09L281.76 20.09L284.38 12.79L286.66 12.79L281.11 27.43Q280.44 29.26 279.37 30.34Q278.30 31.42 276.43 31.42L276.43 31.42Q275.86 31.42 275.42 31.36Q274.99 31.30 274.68 31.22L274.68 31.22L274.68 29.54Q274.94 29.59 275.32 29.64Q275.69 29.69 276.10 29.69L276.10 29.69Q277.20 29.69 277.88 29.06Q278.57 28.44 278.95 27.41L278.95 27.41L279.62 25.70ZM293.57 12.58L293.57 12.58Q295.92 12.58 297.05 13.61Q298.18 14.64 298.18 16.90L298.18 16.90L298.18 25.66L296.64 25.66L296.23 23.83L296.14 23.83Q295.30 24.89 294.37 25.39Q293.45 25.90 291.82 25.90L291.82 25.90Q290.06 25.90 288.91 24.97Q287.76 24.05 287.76 22.08L287.76 22.08Q287.76 20.16 289.27 19.12Q290.78 18.07 293.93 17.98L293.93 17.98L296.11 17.90L296.11 17.14Q296.11 15.53 295.42 14.90Q294.72 14.28 293.45 14.28L293.45 14.28Q292.44 14.28 291.53 14.58Q290.62 14.88 289.82 15.26L289.82 15.26L289.18 13.68Q290.02 13.22 291.17 12.90Q292.32 12.58 293.57 12.58ZM296.09 19.37L294.19 19.44Q291.79 19.54 290.87 20.21Q289.94 20.88 289.94 22.10L289.94 22.10Q289.94 23.18 290.60 23.69Q291.26 24.19 292.30 24.19L292.30 24.19Q293.93 24.19 295.01 23.29Q296.09 22.39 296.09 20.52L296.09 20.52L296.09 19.37ZM319.61 19.87L319.61 21.77L317.11 21.77L317.11 25.66L315.07 25.66L315.07 21.77L306.86 21.77L306.86 19.97L314.93 8.42L317.11 8.42L317.11 19.87L319.61 19.87ZM315.07 19.87L315.07 14.47Q315.07 13.63 315.10 12.98Q315.12 12.34 315.14 11.77Q315.17 11.21 315.19 10.68L315.19 10.68L315.10 10.68Q314.90 11.14 314.62 11.66Q314.33 12.19 314.06 12.55L314.06 12.55L308.93 19.87L315.07 19.87ZM332.64 17.06L332.64 17.06Q332.64 19.82 332.06 21.80Q331.49 23.78 330.24 24.84Q328.99 25.90 326.93 25.90L326.93 25.90Q324.02 25.90 322.64 23.56Q321.26 21.22 321.26 17.06L321.26 17.06Q321.26 14.28 321.83 12.31Q322.39 10.34 323.64 9.30Q324.89 8.26 326.93 8.26L326.93 8.26Q329.81 8.26 331.22 10.57Q332.64 12.89 332.64 17.06ZM323.38 17.06L323.38 17.06Q323.38 20.59 324.18 22.34Q324.98 24.10 326.93 24.10L326.93 24.10Q328.85 24.10 329.68 22.36Q330.50 20.62 330.50 17.06L330.50 17.06Q330.50 13.56 329.68 11.81Q328.85 10.06 326.93 10.06L326.93 10.06Q324.98 10.06 324.18 11.81Q323.38 13.56 323.38 17.06ZM346.37 17.06L346.37 17.06Q346.37 19.82 345.79 21.80Q345.22 23.78 343.97 24.84Q342.72 25.90 340.66 25.90L340.66 25.90Q337.75 25.90 336.37 23.56Q334.99 21.22 334.99 17.06L334.99 17.06Q334.99 14.28 335.56 12.31Q336.12 10.34 337.37 9.30Q338.62 8.26 340.66 8.26L340.66 8.26Q343.54 8.26 344.95 10.57Q346.37 12.89 346.37 17.06ZM337.10 17.06L337.10 17.06Q337.10 20.59 337.91 22.34Q338.71 24.10 340.66 24.10L340.66 24.10Q342.58 24.10 343.40 22.36Q344.23 20.62 344.23 17.06L344.23 17.06Q344.23 13.56 343.40 11.81Q342.58 10.06 340.66 10.06L340.66 10.06Q338.71 10.06 337.91 11.81Q337.10 13.56 337.10 17.06ZM362.02 12.55L362.02 12.55Q364.32 12.55 365.50 13.67Q366.67 14.78 366.67 17.28L366.67 17.28L366.67 25.66L364.58 25.66L364.58 17.42Q364.58 15.86 363.89 15.10Q363.19 14.33 361.70 14.33L361.70 14.33Q359.57 14.33 358.75 15.53Q357.94 16.73 357.94 18.98L357.94 18.98L357.94 25.66L355.82 25.66L355.82 12.79L357.53 12.79L357.84 14.54L357.96 14.54Q358.58 13.54 359.69 13.04Q360.79 12.55 362.02 12.55ZM381.84 19.20L381.84 19.20Q381.84 22.39 380.22 24.14Q378.60 25.90 375.84 25.90L375.84 25.90Q374.14 25.90 372.80 25.12Q371.47 24.34 370.70 22.84Q369.94 21.34 369.94 19.20L369.94 19.20Q369.94 16.01 371.54 14.28Q373.15 12.55 375.91 12.55L375.91 12.55Q377.66 12.55 379.00 13.33Q380.33 14.11 381.08 15.59Q381.84 17.06 381.84 19.20ZM372.12 19.20L372.12 19.20Q372.12 21.48 373.02 22.81Q373.92 24.14 375.89 24.14L375.89 24.14Q377.83 24.14 378.74 22.81Q379.66 21.48 379.66 19.20L379.66 19.20Q379.66 16.92 378.74 15.62Q377.83 14.33 375.86 14.33L375.86 14.33Q373.90 14.33 373.01 15.62Q372.12 16.92 372.12 19.20ZM391.18 12.55L391.18 12.55Q391.54 12.55 391.96 12.59Q392.38 12.62 392.69 12.70L392.69 12.70L392.42 14.64Q392.11 14.57 391.74 14.52Q391.37 14.47 391.03 14.47L391.03 14.47Q390.05 14.47 389.18 15.01Q388.32 15.55 387.80 16.52Q387.29 17.50 387.29 18.79L387.29 18.79L387.29 25.66L385.18 25.66L385.18 12.79L386.90 12.79L387.14 15.14L387.24 15.14Q387.86 14.09 388.85 13.32Q389.83 12.55 391.18 12.55ZM409.20 12.55L409.20 12.55Q411.38 12.55 412.46 13.67Q413.54 14.78 413.54 17.28L413.54 17.28L413.54 25.66L411.46 25.66L411.46 17.38Q411.46 14.33 408.84 14.33L408.84 14.33Q406.97 14.33 406.16 15.41Q405.36 16.49 405.36 18.55L405.36 18.55L405.36 25.66L403.27 25.66L403.27 17.38Q403.27 14.33 400.63 14.33L400.63 14.33Q398.69 14.33 397.94 15.53Q397.20 16.73 397.20 18.98L397.20 18.98L397.20 25.66L395.09 25.66L395.09 12.79L396.79 12.79L397.10 14.54L397.22 14.54Q397.82 13.54 398.84 13.04Q399.86 12.55 401.02 12.55L401.02 12.55Q402.50 12.55 403.50 13.08Q404.50 13.61 404.95 14.71L404.95 14.71L405.07 14.71Q405.72 13.61 406.84 13.08Q407.95 12.55 409.20 12.55ZM422.40 12.58L422.40 12.58Q424.75 12.58 425.88 13.61Q427.01 14.64 427.01 16.90L427.01 16.90L427.01 25.66L425.47 25.66L425.06 23.83L424.97 23.83Q424.13 24.89 423.20 25.39Q422.28 25.90 420.65 25.90L420.65 25.90Q418.90 25.90 417.74 24.97Q416.59 24.05 416.59 22.08L416.59 22.08Q416.59 20.16 418.10 19.12Q419.62 18.07 422.76 17.98L422.76 17.98L424.94 17.90L424.94 17.14Q424.94 15.53 424.25 14.90Q423.55 14.28 422.28 14.28L422.28 14.28Q421.27 14.28 420.36 14.58Q419.45 14.88 418.66 15.26L418.66 15.26L418.01 13.68Q418.85 13.22 420 12.90Q421.15 12.58 422.40 12.58ZM424.92 19.37L423.02 19.44Q420.62 19.54 419.70 20.21Q418.78 20.88 418.78 22.10L418.78 22.10Q418.78 23.18 419.44 23.69Q420.10 24.19 421.13 24.19L421.13 24.19Q422.76 24.19 423.84 23.29Q424.92 22.39 424.92 20.52L424.92 20.52L424.92 19.37ZM433.10 7.42L433.10 25.66L430.99 25.66L430.99 7.42L433.10 7.42Z"/></svg>