<svg xmlns="http://www.w3.org/2000/svg" xmlns:xlink="http://www.w3.org/1999/xlink" width="454.63200000000006" height="32.352000000000004"><path fill="black" d="M19.37 13.78L19.56 13.78Q19.70 14.74 19.70 15.82Q19.70 16.90 19.42 18.05L19.42 18.05Q18.50 21.67 15.07 23.09L15.07 23.09Q13.44 23.76 11.47 23.76L11.47 23.76Q6.07 23.76 3.16 21.41Q0.24 19.06 0.24 15.06Q0.24 11.06 3.26 8.68Q6.29 6.29 11.47 6.29L11.47 6.29Q15.07 6.29 17.66 7.39L17.66 7.39L17.42 11.98L17.21 11.98Q15.96 7.49 11.59 7.49L11.59 7.49Q8.69 7.49 7.10 9.44Q5.52 11.40 5.52 14.86Q5.52 18.31 7.18 20.39Q8.83 22.46 11.95 22.56L11.95 22.56Q15.38 22.56 17.38 20.34Q19.37 18.12 19.37 14.35L19.37 14.35Q19.37 14.06 19.37 13.78L19.37 13.78ZM20.40 23.18L20.71 23.18Q21.34 23.18 21.78 22.74Q22.22 22.30 22.25 21.67L22.25 21.67L22.25 8.35Q22.22 7.73 21.78 7.30Q21.34 6.86 20.71 6.86L20.71 6.86L20.40 6.86L20.40 6.62L29.02 6.62L29.02 6.86L28.70 6.86Q28.08 6.86 27.64 7.30Q27.19 7.73 27.17 8.35L27.17 8.35L27.17 21.67Q27.17 22.30 27.62 22.74Q28.08 23.18 28.70 23.18L28.70 23.18L29.02 23.18L29.02 23.42L20.40 23.42L20.40 23.18ZM50.38 6.86L49.94 6.86Q49.34 6.86 48.91 7.28Q48.48 7.70 48.46 8.30L48.46 8.30L48.46 20.69Q48.46 22.46 48.70 23.42L48.70 23.42L48.77 23.76L48.55 23.76L37.06 13.54L37.06 21.72Q37.06 22.58 37.80 22.99L37.80 22.99Q38.14 23.18 38.52 23.18L38.52 23.18L38.98 23.18L38.98 23.42L30.19 23.42L30.19 23.18L30.65 23.18Q31.25 23.18 31.68 22.76Q32.11 22.34 32.11 21.72L32.11 21.72L32.11 9.26Q32.11 7.58 31.87 6.60L31.87 6.60L31.80 6.26L32.04 6.26L43.54 16.49L43.54 8.33Q43.51 7.70 43.08 7.28Q42.65 6.86 42.05 6.86L42.05 6.86L41.59 6.86L41.59 6.62L50.38 6.62L50.38 6.86ZM52.03 11.11L52.03 6.17Q52.39 6.31 53.29 6.46Q54.19 6.60 54.56 6.60Q54.94 6.60 54.94 6.60L54.94 6.60L63.22 6.60Q64.22 6.60 64.92 6.48Q65.62 6.36 65.76 6.29L65.76 6.29L65.76 6.50L57.70 22.22L61.08 22.22Q62.83 22.22 64.18 21.06Q65.52 19.90 66.07 17.86L66.07 17.86L66.31 17.86L65.40 23.42L51.70 23.42L51.70 23.21L59.66 7.80L55.34 7.80Q53.90 7.82 53.09 8.65Q52.27 9.48 52.27 10.92L52.27 10.92L52.27 11.11L52.03 11.11ZM67.58 23.18L67.90 23.18Q68.52 23.18 68.96 22.74Q69.41 22.30 69.43 21.67L69.43 21.67L69.43 8.38Q69.41 7.61 68.78 7.15L68.78 7.15Q68.40 6.86 67.90 6.86L67.90 6.86L67.58 6.86L67.58 6.62L78.22 6.62Q79.25 6.62 80.05 6.46Q80.86 6.29 81.07 6.19L81.07 6.19L81.07 11.14L80.83 11.14L80.83 10.94Q80.83 9.02 79.44 8.26L79.44 8.26Q78.77 7.87 77.83 7.85L77.83 7.85L74.35 7.85L74.35 14.54L76.97 14.54Q78.12 14.52 78.84 13.79Q79.56 13.06 79.56 11.90L79.56 11.90L79.56 11.81L79.80 11.81L79.80 18.48L79.56 18.48L79.56 18.36Q79.56 17.23 78.84 16.50Q78.12 15.77 76.99 15.74L76.99 15.74L74.35 15.74L74.35 22.20L77.30 22.20Q79.06 22.20 80.40 21.05Q81.74 19.90 82.30 17.86L82.30 17.86L82.54 17.86L81.62 23.42L67.58 23.42L67.58 23.18ZM83.57 23.18L83.88 23.18Q84.50 23.18 84.95 22.74Q85.39 22.30 85.42 21.67L85.42 21.67L85.42 8.38Q85.39 7.49 84.65 7.06L84.65 7.06Q84.29 6.86 83.88 6.86L83.88 6.86L83.57 6.86L83.57 6.62L92.18 6.62L92.18 6.86L91.87 6.86Q91.25 6.86 90.79 7.31Q90.34 7.75 90.34 8.38L90.34 8.38L90.34 22.20L93.29 22.20Q95.04 22.20 96.38 21.05Q97.73 19.90 98.28 17.86L98.28 17.86L98.52 17.86L97.61 23.42L83.57 23.42L83.57 23.18ZM115.18 23.42L115.18 23.42L106.08 23.42L106.08 23.18L106.39 23.18Q107.02 23.18 107.46 22.74Q107.90 22.30 107.93 21.67L107.93 21.67L107.93 7.97Q105.41 8.23 104.11 9.38L104.11 9.38Q103.01 10.37 102.34 11.90L102.34 11.90L102.10 11.81Q102.58 9.22 104.58 7.92Q106.58 6.62 109.61 6.62L109.61 6.62L115.18 6.62Q119.69 6.62 122.22 8.84Q124.75 11.06 124.75 15.02Q124.75 18.98 122.21 21.20Q119.66 23.42 115.18 23.42ZM112.85 7.87L112.85 22.22L114.70 22.22Q114.70 22.22 114.70 22.22L114.70 22.22Q116.93 22.22 118.20 20.32Q119.47 18.41 119.47 15.02Q119.47 11.64 118.20 9.73Q116.93 7.82 114.70 7.82L114.70 7.82L112.85 7.87ZM125.81 23.18L126.12 23.18Q126.74 23.18 127.19 22.74Q127.63 22.30 127.66 21.67L127.66 21.67L127.66 8.38Q127.63 7.61 127.01 7.15L127.01 7.15Q126.62 6.86 126.12 6.86L126.12 6.86L125.81 6.86L125.81 6.62L136.44 6.62Q137.47 6.62 138.28 6.46Q139.08 6.29 139.30 6.19L139.30 6.19L139.30 11.14L139.06 11.14L139.06 10.94Q139.06 9.02 137.66 8.26L137.66 8.26Q136.99 7.87 136.06 7.85L136.06 7.85L132.58 7.85L132.58 14.54L135.19 14.54Q136.34 14.52 137.06 13.79Q137.78 13.06 137.78 11.90L137.78 11.90L137.78 11.81L138.02 11.81L138.02 18.48L137.78 18.48L137.78 18.36Q137.78 17.23 137.06 16.50Q136.34 15.77 135.22 15.74L135.22 15.74L132.58 15.74L132.58 22.20L135.53 22.20Q137.28 22.20 138.62 21.05Q139.97 19.90 140.52 17.86L140.52 17.86L140.76 17.86L139.85 23.42L125.81 23.42L125.81 23.18ZM141.91 15L141.91 15Q141.91 12.29 143.16 10.32Q144.41 8.35 146.77 7.32Q149.14 6.29 152.57 6.29Q156 6.29 158.59 7.39L158.59 7.39L158.35 11.98L158.14 11.98Q157.44 9.55 156.12 8.52Q154.80 7.49 152.83 7.49L152.83 7.49Q150.17 7.49 148.68 9.46Q147.19 11.42 147.19 14.94Q147.19 18.46 148.57 20.47Q149.95 22.49 152.40 22.56L152.40 22.56Q155.23 22.56 156.50 21.22L156.50 21.22Q157.70 19.97 158.38 16.42L158.38 16.42L158.57 16.42L159.14 20.78Q157.37 23.76 152.44 23.75Q147.50 23.74 144.71 21.44Q141.91 19.15 141.91 15ZM170.90 6.29L170.90 6.29Q174 6.29 176.24 7.32Q178.49 8.35 179.69 10.33Q180.89 12.31 180.89 15.02L180.89 15.02Q180.89 19.13 178.22 21.44Q175.56 23.76 170.90 23.76Q166.25 23.76 163.60 21.44Q160.94 19.13 160.94 15.02Q160.94 10.92 163.60 8.60Q166.25 6.29 170.90 6.29ZM167.48 20.57Q168.72 22.56 170.92 22.56Q173.11 22.56 174.35 20.57Q175.58 18.58 175.58 15.02Q175.58 11.47 174.35 9.48Q173.11 7.49 170.92 7.49Q168.72 7.49 167.48 9.48Q166.25 11.47 166.25 15.02Q166.25 18.58 167.48 20.57ZM197.42 9.26L197.42 9.26Q197.81 10.10 197.81 11.00Q197.81 11.90 197.62 12.59Q197.42 13.27 197.02 13.94L197.02 13.94Q196.13 15.38 193.97 15.72L193.97 15.72Q194.90 15.98 195.65 16.66L195.65 16.66Q196.44 17.33 197.14 18.53L197.14 18.53Q198.94 21.60 199.90 22.49L199.90 22.49Q200.62 23.16 201.72 23.18L201.72 23.18L201.72 23.42L198.72 23.42Q195.60 23.42 194.26 22.73L194.26 22.73Q192.34 21.74 191.52 19.34L191.52 19.34Q191.30 18.65 191.15 17.88Q190.99 17.11 190.88 16.76Q190.78 16.42 190.63 16.12Q190.49 15.82 190.32 15.65L190.32 15.65Q190.03 15.36 189.65 15.22L189.65 15.22L189.65 14.98L190.03 14.98Q191.42 14.98 192.12 13.70L192.12 13.70Q192.48 13.03 192.56 12.25Q192.65 11.47 192.65 11.28Q192.65 11.09 192.65 11.04L192.65 11.04Q192.48 7.87 189.91 7.87L189.91 7.87L188.86 7.87L188.86 21.67Q188.86 22.30 189.31 22.74Q189.77 23.18 190.39 23.18L190.39 23.18L190.68 23.18L190.68 23.42L182.06 23.42L182.06 23.18L182.38 23.18Q183.00 23.18 183.44 22.75Q183.89 22.32 183.91 21.70L183.91 21.70L183.91 8.38Q183.89 7.49 183.14 7.06L183.14 7.06Q182.78 6.86 182.38 6.86L182.38 6.86L182.06 6.86L182.06 6.62L191.45 6.62Q196.15 6.62 197.42 9.26ZM218.28 23.18L218.28 23.18L218.47 23.18L218.47 23.42L209.38 23.42L209.38 23.18L209.59 23.18Q210.12 23.18 210.38 22.86Q210.65 22.54 210.65 22.26Q210.65 21.98 210.53 21.67L210.53 21.67L209.59 19.44L204.46 19.44L203.50 21.67Q203.38 21.98 203.38 22.18Q203.38 22.37 203.46 22.60Q203.54 22.82 203.82 23.00Q204.10 23.18 204.41 23.18L204.41 23.18L204.62 23.18L204.62 23.42L199.27 23.42L199.27 23.18L199.49 23.18Q200.04 23.18 200.58 22.86Q201.12 22.54 201.48 21.89L201.48 21.89L207.07 9.62Q208.34 6.94 208.44 6.05L208.44 6.05L208.66 6.05L216.26 21.86Q217.03 23.18 218.28 23.18ZM207.07 13.44L204.98 18.24L209.09 18.24L207.07 13.44ZM228.31 7.80L225.96 7.80L225.96 21.70Q225.98 22.32 226.43 22.75Q226.87 23.18 227.50 23.18L227.50 23.18L227.81 23.18L227.81 23.42L219.19 23.42L219.19 23.18L219.50 23.18Q220.13 23.18 220.57 22.75Q221.02 22.32 221.04 21.72L221.04 21.72L221.04 7.80L218.66 7.80Q217.22 7.82 216.41 8.65Q215.59 9.48 215.59 10.92L215.59 10.92L215.59 11.09L215.35 11.11L215.35 6.17Q215.69 6.31 216.56 6.46Q217.44 6.60 218.18 6.60L218.18 6.60L228.82 6.60Q229.56 6.60 230.42 6.46Q231.29 6.31 231.65 6.17L231.65 6.17L231.65 11.11L231.41 11.09L231.41 10.92Q231.41 8.98 229.97 8.18L229.97 8.18Q229.27 7.82 228.31 7.80L228.31 7.80ZM232.58 23.18L232.90 23.18Q233.52 23.18 233.96 22.74Q234.41 22.30 234.43 21.67L234.43 21.67L234.43 8.35Q234.41 7.73 233.96 7.30Q233.52 6.86 232.90 6.86L232.90 6.86L232.58 6.86L232.58 6.62L241.20 6.62L241.20 6.86L240.89 6.86Q240.26 6.86 239.82 7.30Q239.38 7.73 239.35 8.35L239.35 8.35L239.35 21.67Q239.35 22.30 239.81 22.74Q240.26 23.18 240.89 23.18L240.89 23.18L241.20 23.18L241.20 23.42L232.58 23.42L232.58 23.18ZM260.14 6.62L260.14 6.86L259.92 6.86Q258.67 6.86 257.93 8.16L257.93 8.16L252.34 20.42Q251.06 23.11 250.97 24L250.97 24L250.75 24L243.14 8.18Q242.40 6.86 241.13 6.86L241.13 6.86L240.94 6.86L240.94 6.62L250.03 6.62L250.03 6.86L249.82 6.86Q249.31 6.86 249.06 7.19Q248.81 7.51 248.81 7.80Q248.81 8.09 248.90 8.38L248.90 8.38L252.34 16.61L255.91 8.38Q256.06 8.06 256.06 7.79Q256.06 7.51 255.79 7.19Q255.53 6.86 255.00 6.86L255.00 6.86L254.78 6.86L254.78 6.62L260.14 6.62ZM259.90 23.18L260.21 23.18Q260.83 23.18 261.28 22.74Q261.72 22.30 261.74 21.67L261.74 21.67L261.74 8.38Q261.72 7.61 261.10 7.15L261.10 7.15Q260.71 6.86 260.21 6.86L260.21 6.86L259.90 6.86L259.90 6.62L270.53 6.62Q271.56 6.62 272.36 6.46Q273.17 6.29 273.38 6.19L273.38 6.19L273.38 11.14L273.14 11.14L273.14 10.94Q273.14 9.02 271.75 8.26L271.75 8.26Q271.08 7.87 270.14 7.85L270.14 7.85L266.66 7.85L266.66 14.54L269.28 14.54Q270.43 14.52 271.15 13.79Q271.87 13.06 271.87 11.90L271.87 11.90L271.87 11.81L272.11 11.81L272.11 18.48L271.87 18.48L271.87 18.36Q271.87 17.23 271.15 16.50Q270.43 15.77 269.30 15.74L269.30 15.74L266.66 15.74L266.66 22.20L269.62 22.20Q271.37 22.20 272.71 21.05Q274.06 19.90 274.61 17.86L274.61 17.86L274.85 17.86L273.94 23.42L259.90 23.42L259.90 23.18ZM290.21 18.07Q289.94 18.72 289.34 19.18Q288.74 19.63 288.04 19.80Q287.33 19.97 286.92 19.97L286.92 19.97Q285.62 19.97 284.83 19.58Q284.04 19.20 283.42 18.58L283.42 18.58Q282.12 17.30 282.12 14.86L282.12 14.86Q282.12 12.19 283.85 10.51L283.85 10.51Q285.67 8.76 289.30 8.76L289.30 8.76Q296.40 8.76 296.40 16.68L296.40 16.68Q296.40 21.91 293.30 24.65L293.30 24.65Q290.81 26.88 286.30 26.88L286.30 26.88Q285.17 26.88 283.94 26.74L283.94 26.74L283.85 26.57Q286.01 25.90 286.94 25.34Q287.88 24.79 288.41 24.41Q288.94 24.02 289.32 23.52Q289.70 23.02 289.99 22.57Q290.28 22.13 290.46 21.50Q290.64 20.88 290.75 20.36Q290.86 19.85 290.90 19.08L290.90 19.08Q291 17.88 291 16.68Q291 15.48 291 15.04Q291 14.59 290.98 14.03Q290.95 13.46 290.93 13.12Q290.90 12.77 290.86 12.35Q290.81 11.93 290.74 11.69Q290.66 11.45 290.57 11.17Q290.47 10.90 290.34 10.74Q290.21 10.58 290.04 10.44L290.04 10.44Q289.73 10.20 289.13 10.20Q288.53 10.20 288.08 10.52Q287.64 10.85 287.42 11.47L287.42 11.47Q287.04 12.58 287.04 14.41Q287.04 16.25 287.35 17.09L287.35 17.09Q287.81 18.26 288.89 18.26L288.89 18.26Q289.44 18.26 290.04 17.88L290.04 17.88L290.21 18.07ZM300.65 10.68Q302.62 8.69 306.12 8.69Q309.62 8.69 311.59 10.68Q313.56 12.67 313.56 16.22Q313.56 19.78 311.59 21.77Q309.62 23.76 306.12 23.76L306.12 23.76Q303.79 23.76 302.12 22.87Q300.46 21.98 299.57 20.28Q298.68 18.58 298.68 16.22L298.68 16.22Q298.68 12.67 300.65 10.68ZM307.88 11.57Q307.25 9.89 306.12 9.89Q304.99 9.89 304.36 11.57Q303.72 13.25 303.72 15.72Q303.72 18.19 304.01 19.63L304.01 19.63Q304.58 22.56 306.12 22.56L306.12 22.56Q307.25 22.56 307.88 20.88Q308.52 19.20 308.52 16.22Q308.52 13.25 307.88 11.57ZM317.45 10.68Q319.42 8.69 322.92 8.69Q326.42 8.69 328.39 10.68Q330.36 12.67 330.36 16.22Q330.36 19.78 328.39 21.77Q326.42 23.76 322.92 23.76L322.92 23.76Q320.59 23.76 318.92 22.87Q317.26 21.98 316.37 20.28Q315.48 18.58 315.48 16.22L315.48 16.22Q315.48 12.67 317.45 10.68ZM324.68 11.57Q324.05 9.89 322.92 9.89Q321.79 9.89 321.16 11.57Q320.52 13.25 320.52 15.72Q320.52 18.19 320.81 19.63L320.81 19.63Q321.38 22.56 322.92 22.56L322.92 22.56Q324.05 22.56 324.68 20.88Q325.32 19.20 325.32 16.22Q325.32 13.25 324.68 11.57ZM357.98 6.86L357.55 6.86Q356.95 6.86 356.52 7.28Q356.09 7.70 356.06 8.30L356.06 8.30L356.06 20.69Q356.06 22.46 356.30 23.42L356.30 23.42L356.38 23.76L356.16 23.76L344.66 13.54L344.66 21.72Q344.66 22.58 345.41 22.99L345.41 22.99Q345.74 23.18 346.13 23.18L346.13 23.18L346.58 23.18L346.58 23.42L337.80 23.42L337.80 23.18L338.26 23.18Q338.86 23.18 339.29 22.76Q339.72 22.34 339.72 21.72L339.72 21.72L339.72 9.26Q339.72 7.58 339.48 6.60L339.48 6.60L339.41 6.26L339.65 6.26L351.14 16.49L351.14 8.33Q351.12 7.70 350.69 7.28Q350.26 6.86 349.66 6.86L349.66 6.86L349.20 6.86L349.20 6.62L357.98 6.62L357.98 6.86ZM368.90 6.29L368.90 6.29Q372.00 6.29 374.24 7.32Q376.49 8.35 377.69 10.33Q378.89 12.31 378.89 15.02L378.89 15.02Q378.89 19.13 376.22 21.44Q373.56 23.76 368.90 23.76Q364.25 23.76 361.60 21.44Q358.94 19.13 358.94 15.02Q358.94 10.92 361.60 8.60Q364.25 6.29 368.90 6.29ZM365.48 20.57Q366.72 22.56 368.92 22.56Q371.11 22.56 372.35 20.57Q373.58 18.58 373.58 15.02Q373.58 11.47 372.35 9.48Q371.11 7.49 368.92 7.49Q366.72 7.49 365.48 9.48Q364.25 11.47 364.25 15.02Q364.25 18.58 365.48 20.57ZM395.42 9.26L395.42 9.26Q395.81 10.10 395.81 11.00Q395.81 11.90 395.62 12.59Q395.42 13.27 395.02 13.94L395.02 13.94Q394.13 15.38 391.97 15.72L391.97 15.72Q392.90 15.98 393.65 16.66L393.65 16.66Q394.44 17.33 395.14 18.53L395.14 18.53Q396.94 21.60 397.90 22.49L397.90 22.49Q398.62 23.16 399.72 23.18L399.72 23.18L399.72 23.42L396.72 23.42Q393.60 23.42 392.26 22.73L392.26 22.73Q390.34 21.74 389.52 19.34L389.52 19.34Q389.30 18.65 389.15 17.88Q388.99 17.11 388.88 16.76Q388.78 16.42 388.63 16.12Q388.49 15.82 388.32 15.65L388.32 15.65Q388.03 15.36 387.65 15.22L387.65 15.22L387.65 14.98L388.03 14.98Q389.42 14.98 390.12 13.70L390.12 13.70Q390.48 13.03 390.56 12.25Q390.65 11.47 390.65 11.28Q390.65 11.09 390.65 11.04L390.65 11.04Q390.48 7.87 387.91 7.87L387.91 7.87L386.86 7.87L386.86 21.67Q386.86 22.30 387.31 22.74Q387.77 23.18 388.39 23.18L388.39 23.18L388.68 23.18L388.68 23.42L380.06 23.42L380.06 23.18L380.38 23.18Q381.00 23.18 381.44 22.75Q381.89 22.32 381.91 21.70L381.91 21.70L381.91 8.38Q381.89 7.49 381.14 7.06L381.14 7.06Q380.78 6.86 380.38 6.86L380.38 6.86L380.06 6.86L380.06 6.62L389.45 6.62Q394.15 6.62 395.42 9.26ZM421.94 23.18L421.94 23.18L422.33 23.18L422.33 23.42L413.81 23.42L413.81 23.21L414.19 23.21Q414.58 23.21 414.88 22.88Q415.18 22.56 415.13 22.18L415.13 22.18L414.22 15.17L410.14 21.22Q409.73 21.79 409.42 22.61Q409.10 23.42 409.13 24L409.13 24L408.91 24L402.67 15.38L401.83 22.18Q401.78 22.56 402.08 22.88Q402.38 23.21 402.77 23.21L402.77 23.21L403.15 23.21L403.15 23.42L397.87 23.42L397.87 23.18L398.26 23.18Q398.93 23.18 399.42 22.78Q399.91 22.37 400.01 21.67L400.01 21.67L402.12 6.29L402.34 6.29L410.40 17.30L417.79 6.29L418.01 6.29L420.19 21.67Q420.31 22.37 420.79 22.78Q421.27 23.18 421.94 23.18ZM439.75 23.18L439.75 23.18L439.94 23.18L439.94 23.42L430.85 23.42L430.85 23.18L431.06 23.18Q431.59 23.18 431.86 22.86Q432.12 22.54 432.12 22.26Q432.12 21.98 432.00 21.67L432.00 21.67L431.06 19.44L425.93 19.44L424.97 21.67Q424.85 21.98 424.85 22.18Q424.85 22.37 424.93 22.60Q425.02 22.82 425.29 23.00Q425.57 23.18 425.88 23.18L425.88 23.18L426.10 23.18L426.10 23.42L420.74 23.42L420.74 23.18L420.96 23.18Q421.51 23.18 422.05 22.86Q422.59 22.54 422.95 21.89L422.95 21.89L428.54 9.62Q429.82 6.94 429.91 6.05L429.91 6.05L430.13 6.05L437.74 21.86Q438.50 23.18 439.75 23.18ZM428.54 13.44L426.46 18.24L430.56 18.24L428.54 13.44ZM439.70 23.18L440.02 23.18Q440.64 23.18 441.08 22.74Q441.53 22.30 441.55 21.67L441.55 21.67L441.55 8.38Q441.53 7.49 440.78 7.06L440.78 7.06Q440.42 6.86 440.02 6.86L440.02 6.86L439.70 6.86L439.70 6.62L448.32 6.62L448.32 6.86L448.01 6.86Q447.38 6.86 446.93 7.31Q446.47 7.75 446.47 8.38L446.47 8.38L446.47 22.20L449.42 22.20Q451.18 22.20 452.52 21.05Q453.86 19.90 454.42 17.86L454.42 17.86L454.66 17.86L453.74 23.42L439.70 23.42L439.70 23.18Z"/></svg>