<svg xmlns="http://www.w3.org/2000/svg" xmlns:xlink="http://www.w3.org/1999/xlink" width="361.82399999999996" height="45.528"><path fill="black" d="M13.20 35.02L1.20 35.02L1.20 13.85L13.20 13.85L13.20 35.02ZM2.54 15.19L2.54 33.67L11.86 33.67L11.86 15.19L2.54 15.19ZM27.60 35.02L15.60 35.02L15.60 13.85L27.60 13.85L27.60 35.02ZM16.94 15.19L16.94 33.67L26.26 33.67L26.26 15.19L16.94 15.19ZM42 35.02L30 35.02L30 13.85L42 13.85L42 35.02ZM31.34 15.19L31.34 33.67L40.66 33.67L40.66 15.19L31.34 15.19ZM56.40 35.02L44.40 35.02L44.40 13.85L56.40 13.85L56.40 35.02ZM45.74 15.19L45.74 33.67L55.06 33.67L55.06 15.19L45.74 15.19ZM78.96 35.02L66.96 35.02L66.96 13.85L78.96 13.85L78.96 35.02ZM68.30 15.19L68.30 33.67L77.62 33.67L77.62 15.19L68.30 15.19ZM93.36 35.02L81.36 35.02L81.36 13.85L93.36 13.85L93.36 35.02ZM82.70 15.19L82.70 33.67L92.02 33.67L92.02 15.19L82.70 15.19ZM107.76 35.02L95.76 35.02L95.76 13.85L107.76 13.85L107.76 35.02ZM97.10 15.19L97.10 33.67L106.42 33.67L106.42 15.19L97.10 15.19ZM122.16 35.02L110.16 35.02L110.16 13.85L122.16 13.85L122.16 35.02ZM111.50 15.19L111.50 33.67L120.82 33.67L120.82 15.19L111.50 15.19ZM144.72 35.02L132.72 35.02L132.72 13.85L144.72 13.85L144.72 35.02ZM134.06 15.19L134.06 33.67L143.38 33.67L143.38 15.19L134.06 15.19ZM159.12 35.02L147.12 35.02L147.12 13.85L159.12 13.85L159.12 35.02ZM148.46 15.19L148.46 33.67L157.78 33.67L157.78 15.19L148.46 15.19ZM173.52 35.02L161.52 35.02L161.52 13.85L173.52 13.85L173.52 35.02ZM162.86 15.19L162.86 33.67L172.18 33.67L172.18 15.19L162.86 15.19ZM187.92 35.02L175.92 35.02L175.92 13.85L187.92 13.85L187.92 35.02ZM177.26 15.19L177.26 33.67L186.58 33.67L186.58 15.19L177.26 15.19ZM202.32 35.02L190.32 35.02L190.32 13.85L202.32 13.85L202.32 35.02ZM191.66 15.19L191.66 33.67L200.98 33.67L200.98 15.19L191.66 15.19ZM216.72 35.02L204.72 35.02L204.72 13.85L216.72 13.85L216.72 35.02ZM206.06 15.19L206.06 33.67L215.38 33.67L215.38 15.19L206.06 15.19ZM232.87 20.11L232.87 20.11Q234.58 20.11 235.85 20.71Q237.12 21.31 237.83 22.44Q238.54 23.57 238.54 25.20L238.54 25.20Q238.54 27 237.77 28.31Q237.00 29.62 235.54 30.31Q234.07 31.01 231.98 31.01L231.98 31.01Q230.64 31.01 229.48 30.77Q228.31 30.53 227.47 30.07L227.47 30.07L227.47 27.70Q228.36 28.20 229.60 28.51Q230.83 28.82 231.96 28.82L231.96 28.82Q233.76 28.82 234.82 28.01Q235.87 27.19 235.87 25.46L235.87 25.46Q235.87 23.90 234.90 23.09Q233.93 22.27 231.86 22.27L231.86 22.27Q231.19 22.27 230.38 22.39Q229.56 22.51 229.06 22.63L229.06 22.63L227.86 21.94L228.50 13.63L237.34 13.63L237.34 15.94L230.76 15.94L230.40 20.38Q230.81 20.30 231.42 20.21Q232.03 20.11 232.87 20.11ZM252.46 22.18L252.46 22.18Q252.46 24.94 251.88 26.92Q251.30 28.90 250.03 29.95Q248.76 31.01 246.65 31.01L246.65 31.01Q243.67 31.01 242.28 28.67Q240.89 26.33 240.89 22.18L240.89 22.18Q240.89 19.39 241.45 17.42Q242.02 15.46 243.29 14.41Q244.56 13.37 246.65 13.37L246.65 13.37Q248.62 13.37 249.90 14.41Q251.18 15.46 251.82 17.42Q252.46 19.39 252.46 22.18ZM243.48 22.18L243.48 22.18Q243.48 25.51 244.19 27.17Q244.90 28.82 246.65 28.82L246.65 28.82Q248.38 28.82 249.11 27.18Q249.84 25.54 249.84 22.18L249.84 22.18Q249.84 19.97 249.52 18.49Q249.19 17.02 248.51 16.28Q247.82 15.55 246.65 15.55L246.65 15.55Q245.47 15.55 244.79 16.28Q244.10 17.02 243.79 18.49Q243.48 19.97 243.48 22.18ZM266.18 22.18L266.18 22.18Q266.18 24.94 265.61 26.92Q265.03 28.90 263.76 29.95Q262.49 31.01 260.38 31.01L260.38 31.01Q257.40 31.01 256.01 28.67Q254.62 26.33 254.62 22.18L254.62 22.18Q254.62 19.39 255.18 17.42Q255.74 15.46 257.02 14.41Q258.29 13.37 260.38 13.37L260.38 13.37Q262.34 13.37 263.63 14.41Q264.91 15.46 265.55 17.42Q266.18 19.39 266.18 22.18ZM257.21 22.18L257.21 22.18Q257.21 25.51 257.92 27.17Q258.62 28.82 260.38 28.82L260.38 28.82Q262.10 28.82 262.84 27.18Q263.57 25.54 263.57 22.18L263.57 22.18Q263.57 19.97 263.24 18.49Q262.92 17.02 262.24 16.28Q261.55 15.55 260.38 15.55L260.38 15.55Q259.20 15.55 258.52 16.28Q257.83 17.02 257.52 18.49Q257.21 19.97 257.21 22.18ZM288.62 35.02L276.62 35.02L276.62 13.85L288.62 13.85L288.62 35.02ZM277.97 15.19L277.97 33.67L287.28 33.67L287.28 15.19L277.97 15.19ZM303.02 35.02L291.02 35.02L291.02 13.85L303.02 13.85L303.02 35.02ZM292.37 15.19L292.37 33.67L301.68 33.67L301.68 15.19L292.37 15.19ZM317.42 35.02L305.42 35.02L305.42 13.85L317.42 13.85L317.42 35.02ZM306.77 15.19L306.77 33.67L316.08 33.67L316.08 15.19L306.77 15.19ZM331.82 35.02L319.82 35.02L319.82 13.85L331.82 13.85L331.82 35.02ZM321.17 15.19L321.17 33.67L330.48 33.67L330.48 15.19L321.17 15.19ZM346.22 35.02L334.22 35.02L334.22 13.85L346.22 13.85L346.22 35.02ZM335.57 15.19L335.57 33.67L344.88 33.67L344.88 15.19L335.57 15.19ZM360.62 35.02L348.62 35.02L348.62 13.85L360.62 13.85L360.62 35.02ZM349.97 15.19L349.97 33.67L359.28 33.67L359.28 15.19L349.97 15.19Z"/></svg>