<svg xmlns="http://www.w3.org/2000/svg" xmlns:xlink="http://www.w3.org/1999/xlink" width="226.992" height="34.752"><path fill="black" d="M1.54 27.84L2.28 10.37L6.29 10.37L8.40 16.99L10.30 23.59L10.32 23.59L12.26 16.99L14.40 10.37L18.38 10.37L19.08 27.84L16.06 27.84L15.84 21.10L15.62 14.76L15.58 14.76L11.52 27.84L8.93 27.84L5.02 14.76L4.97 14.76L4.73 21.10L4.49 27.84L1.54 27.84ZM26.28 28.10L26.28 28.10Q24.77 28.10 23.86 27.44Q22.94 26.78 22.54 25.58Q22.13 24.38 22.13 22.82L22.13 22.82L22.13 15.36L25.22 15.36L25.22 22.75Q25.22 24.14 25.75 24.89Q26.28 25.63 27.48 25.63L27.48 25.63Q28.06 25.63 28.55 25.42Q29.04 25.20 29.45 24.88Q29.86 24.55 30.14 24.22L30.14 24.22L30.14 15.36L33.26 15.36L33.26 24.05Q33.26 25.13 33.28 26.06Q33.29 27 33.31 27.84L33.31 27.84L31.13 27.84L30.48 26.11L30.38 26.11Q29.98 26.57 29.35 27.04Q28.73 27.50 27.95 27.80Q27.17 28.10 26.28 28.10ZM39.34 27.84L36.24 27.84L36.24 19.15Q36.24 17.93 36.22 17.04Q36.19 16.15 36.17 15.36L36.17 15.36L38.83 15.26L39.10 17.38L39.17 17.38Q39.84 16.32 40.87 15.67Q41.90 15.02 43.39 15.12L43.39 15.12L43.39 17.86Q42.14 17.74 41.09 18.08Q40.03 18.43 39.34 19.39L39.34 19.39L39.34 27.84ZM51.02 28.10L51.02 28.10Q48.94 28.10 47.53 27.32Q46.13 26.54 45.42 25.10Q44.71 23.66 44.71 21.70L44.71 21.70Q44.71 20.35 45.08 19.16Q45.46 17.98 46.21 17.05Q46.97 16.13 48.10 15.61Q49.22 15.10 50.71 15.10L50.71 15.10Q52.22 15.10 53.28 15.65Q54.34 16.20 54.95 17.18Q55.56 18.17 55.75 19.48Q55.94 20.78 55.73 22.27L55.73 22.27L46.37 22.27L48 21.07Q47.59 22.58 47.90 23.64Q48.22 24.70 49.14 25.25Q50.06 25.80 51.46 25.80L51.46 25.80Q52.42 25.80 53.35 25.60Q54.29 25.39 54.94 25.20L54.94 25.20L55.27 27.34Q54.41 27.67 53.27 27.89Q52.13 28.10 51.02 28.10ZM47.83 21.36L46.39 20.62L52.99 20.62Q53.02 20.50 53.02 20.40Q53.02 20.30 53.02 20.26L53.02 20.26Q53.02 19.37 52.78 18.70Q52.54 18.02 52.00 17.63Q51.46 17.23 50.59 17.23L50.59 17.23Q49.58 17.23 48.92 17.83Q48.26 18.43 47.99 19.37Q47.71 20.30 47.83 21.36L47.83 21.36ZM63.86 28.10L63.86 28.10Q61.94 28.10 60.52 27.34Q59.09 26.57 58.30 25.13Q57.50 23.69 57.50 21.65L57.50 21.65Q57.50 19.73 58.27 18.25Q59.04 16.78 60.53 15.94Q62.02 15.10 64.18 15.10L64.18 15.10Q64.97 15.10 65.88 15.25Q66.79 15.41 67.54 15.72L67.54 15.72L67.20 18Q66.67 17.78 65.90 17.63Q65.14 17.47 64.32 17.47L64.32 17.47Q63.17 17.47 62.35 17.96Q61.54 18.46 61.10 19.37Q60.67 20.28 60.67 21.58L60.67 21.58Q60.67 22.92 61.18 23.83Q61.68 24.74 62.54 25.22Q63.41 25.70 64.49 25.70L64.49 25.70Q65.35 25.70 66.12 25.52Q66.89 25.34 67.39 25.20L67.39 25.20L67.66 27.43Q67.03 27.70 65.96 27.90Q64.90 28.10 63.86 28.10ZM69.79 27.84L69.79 9.89L72.91 9.79L72.91 16.94L72.94 16.94Q73.46 16.42 74.08 16.00Q74.69 15.58 75.38 15.34Q76.08 15.10 76.87 15.10L76.87 15.10Q77.88 15.10 78.64 15.43Q79.39 15.77 79.92 16.45Q80.45 17.14 80.72 18.11Q81 19.08 81 20.35L81 20.35L81 27.84L77.90 27.84L77.90 20.50Q77.90 19.70 77.74 19.15Q77.57 18.60 77.27 18.25Q76.97 17.90 76.56 17.74Q76.15 17.57 75.67 17.57L75.67 17.57Q75.05 17.57 74.53 17.80Q74.02 18.02 73.61 18.34Q73.20 18.65 72.91 18.98L72.91 18.98L72.91 27.84L69.79 27.84ZM89.52 28.10L89.52 28.10Q88.30 28.10 87.19 27.72Q86.09 27.34 85.22 26.54Q84.36 25.75 83.84 24.52Q83.33 23.28 83.33 21.60L83.33 21.60Q83.33 19.92 83.84 18.68Q84.36 17.45 85.22 16.66Q86.09 15.86 87.19 15.48Q88.30 15.10 89.52 15.10L89.52 15.10Q90.72 15.10 91.84 15.48Q92.95 15.86 93.82 16.66Q94.68 17.45 95.18 18.68Q95.69 19.92 95.69 21.60L95.69 21.60Q95.69 23.28 95.18 24.52Q94.68 25.75 93.82 26.54Q92.95 27.34 91.84 27.72Q90.72 28.10 89.52 28.10ZM89.52 25.85L89.52 25.85Q90.24 25.85 90.79 25.56Q91.34 25.27 91.73 24.74Q92.11 24.22 92.30 23.42Q92.50 22.63 92.50 21.60L92.50 21.60Q92.50 20.57 92.30 19.78Q92.11 18.98 91.73 18.46Q91.34 17.93 90.79 17.64Q90.24 17.35 89.52 17.35L89.52 17.35Q88.80 17.35 88.25 17.64Q87.70 17.93 87.31 18.46Q86.93 18.98 86.72 19.78Q86.52 20.57 86.52 21.60L86.52 21.60Q86.52 22.63 86.72 23.42Q86.93 24.22 87.31 24.74Q87.70 25.27 88.25 25.56Q88.80 25.85 89.52 25.85ZM107.57 28.10L107.57 28.10Q106.22 28.10 105 27.79Q103.78 27.48 102.98 27.12L102.98 27.12L103.51 24.84Q104.23 25.13 105.28 25.37Q106.32 25.61 107.38 25.61L107.38 25.61Q108.58 25.61 109.40 25.20Q110.23 24.79 110.68 24.10Q111.12 23.40 111.12 22.54L111.12 22.54Q111.12 21.02 109.84 20.29Q108.55 19.56 106.25 19.56L106.25 19.56Q105.60 19.56 105.06 19.64Q104.52 19.73 103.97 19.82L103.97 19.82L103.92 19.80L104.74 11.21L113.52 11.21L113.35 13.70L107.11 13.70L106.75 17.40Q106.99 17.33 107.39 17.28Q107.78 17.23 108.24 17.23L108.24 17.23Q111.05 17.23 112.66 18.56Q114.26 19.90 114.26 22.27L114.26 22.27Q114.26 23.95 113.42 25.27Q112.58 26.59 111.10 27.35Q109.61 28.10 107.57 28.10ZM122.42 28.13L122.42 28.13Q120.41 28.13 119.05 27.06Q117.70 25.99 117 24.05Q116.30 22.10 116.30 19.51L116.30 19.51Q116.30 16.92 117 14.99Q117.70 13.06 119.05 12Q120.41 10.94 122.42 10.94L122.42 10.94Q124.44 10.94 125.81 12Q127.18 13.06 127.85 14.99Q128.52 16.92 128.52 19.51L128.52 19.51Q128.52 22.10 127.85 24.05Q127.18 25.99 125.81 27.06Q124.44 28.13 122.42 28.13ZM122.42 25.70L122.42 25.70Q123.50 25.70 124.16 25.00Q124.82 24.29 125.12 22.91Q125.42 21.53 125.42 19.51L125.42 19.51Q125.42 17.50 125.12 16.13Q124.82 14.76 124.16 14.05Q123.50 13.34 122.45 13.34L122.45 13.34Q121.37 13.34 120.71 14.05Q120.05 14.76 119.74 16.13Q119.42 17.50 119.42 19.51L119.42 19.51Q119.42 21.53 119.74 22.91Q120.05 24.29 120.71 25.00Q121.37 25.70 122.42 25.70ZM136.80 28.13L136.80 28.13Q134.78 28.13 133.43 27.06Q132.07 25.99 131.38 24.05Q130.68 22.10 130.68 19.51L130.68 19.51Q130.68 16.92 131.38 14.99Q132.07 13.06 133.43 12Q134.78 10.94 136.80 10.94L136.80 10.94Q138.82 10.94 140.18 12Q141.55 13.06 142.22 14.99Q142.90 16.92 142.90 19.51L142.90 19.51Q142.90 22.10 142.22 24.05Q141.55 25.99 140.18 27.06Q138.82 28.13 136.80 28.13ZM136.80 25.70L136.80 25.70Q137.88 25.70 138.54 25.00Q139.20 24.29 139.50 22.91Q139.80 21.53 139.80 19.51L139.80 19.51Q139.80 17.50 139.50 16.13Q139.20 14.76 138.54 14.05Q137.88 13.34 136.82 13.34L136.82 13.34Q135.74 13.34 135.08 14.05Q134.42 14.76 134.11 16.13Q133.80 17.50 133.80 19.51L133.80 19.51Q133.80 21.53 134.11 22.91Q134.42 24.29 135.08 25.00Q135.74 25.70 136.80 25.70ZM150.96 27.84L150.96 19.15Q150.96 18.07 150.95 17.14Q150.94 16.20 150.89 15.36L150.89 15.36L153.55 15.26L153.77 16.94L153.86 16.94Q154.27 16.56 154.88 16.13Q155.50 15.70 156.29 15.40Q157.08 15.10 158.04 15.10L158.04 15.10Q159.02 15.10 159.78 15.43Q160.54 15.77 161.06 16.43Q161.59 17.09 161.87 18.06Q162.14 19.03 162.14 20.28L162.14 20.28L162.14 27.84L159.05 27.84L159.05 20.38Q159.05 19.58 158.86 19.04Q158.66 18.50 158.35 18.18Q158.04 17.86 157.64 17.71Q157.25 17.57 156.84 17.57L156.84 17.57Q156.22 17.57 155.70 17.78Q155.18 18 154.78 18.32Q154.37 18.65 154.06 18.98L154.06 18.98L154.06 27.84L150.96 27.84ZM170.66 28.10L170.66 28.10Q169.44 28.10 168.34 27.72Q167.23 27.34 166.37 26.54Q165.50 25.75 164.99 24.52Q164.47 23.28 164.47 21.60L164.47 21.60Q164.47 19.92 164.99 18.68Q165.50 17.45 166.37 16.66Q167.23 15.86 168.34 15.48Q169.44 15.10 170.66 15.10L170.66 15.10Q171.86 15.10 172.98 15.48Q174.10 15.86 174.96 16.66Q175.82 17.45 176.33 18.68Q176.83 19.92 176.83 21.60L176.83 21.60Q176.83 23.28 176.33 24.52Q175.82 25.75 174.96 26.54Q174.10 27.34 172.98 27.72Q171.86 28.10 170.66 28.10ZM170.66 25.85L170.66 25.85Q171.38 25.85 171.94 25.56Q172.49 25.27 172.87 24.74Q173.26 24.22 173.45 23.42Q173.64 22.63 173.64 21.60L173.64 21.60Q173.64 20.57 173.45 19.78Q173.26 18.98 172.87 18.46Q172.49 17.93 171.94 17.64Q171.38 17.35 170.66 17.35L170.66 17.35Q169.94 17.35 169.39 17.64Q168.84 17.93 168.46 18.46Q168.07 18.98 167.87 19.78Q167.66 20.57 167.66 21.60L167.66 21.60Q167.66 22.63 167.87 23.42Q168.07 24.22 168.46 24.74Q168.84 25.27 169.39 25.56Q169.94 25.85 170.66 25.85ZM182.23 27.84L179.14 27.84L179.14 19.15Q179.14 17.93 179.11 17.04Q179.09 16.15 179.06 15.36L179.06 15.36L181.73 15.26L181.99 17.38L182.06 17.38Q182.74 16.32 183.77 15.67Q184.80 15.02 186.29 15.12L186.29 15.12L186.29 17.86Q185.04 17.74 183.98 18.08Q182.93 18.43 182.23 19.39L182.23 19.39L182.23 27.84ZM188.26 27.84L188.26 19.06Q188.26 18.02 188.24 17.16Q188.23 16.30 188.18 15.36L188.18 15.36L190.82 15.26L191.04 16.94L191.11 16.94Q191.57 16.54 192.14 16.12Q192.72 15.70 193.46 15.40Q194.21 15.10 195.07 15.10L195.07 15.10Q196.20 15.10 197.09 15.58Q197.98 16.06 198.38 17.06L198.38 17.06L198.46 17.06Q198.98 16.58 199.62 16.13Q200.26 15.67 201.01 15.38Q201.77 15.10 202.66 15.10L202.66 15.10Q203.64 15.10 204.38 15.43Q205.13 15.77 205.63 16.43Q206.14 17.09 206.39 18.02Q206.64 18.96 206.64 20.16L206.64 20.16L206.64 27.84L203.59 27.84L203.59 20.64Q203.59 19.58 203.35 18.91Q203.11 18.24 202.66 17.90Q202.20 17.57 201.55 17.57L201.55 17.57Q200.93 17.57 200.40 17.82Q199.87 18.07 199.45 18.44Q199.03 18.82 198.72 19.18L198.72 19.18L198.91 18.36Q198.94 18.98 198.96 19.46Q198.98 19.94 198.98 20.59L198.98 20.59L198.98 27.84L195.91 27.84L195.91 20.66Q195.91 19.80 195.74 19.10Q195.58 18.41 195.16 17.99Q194.74 17.57 193.97 17.57L193.97 17.57Q193.37 17.57 192.88 17.78Q192.38 18 191.99 18.34Q191.59 18.67 191.30 18.98L191.30 18.98L191.30 27.84L188.26 27.84ZM212.71 28.10L212.71 28.10Q211.56 28.10 210.71 27.64Q209.86 27.17 209.39 26.34Q208.92 25.51 208.92 24.48L208.92 24.48Q208.92 23.47 209.28 22.79Q209.64 22.10 210.28 21.70Q210.91 21.29 211.78 21.12Q212.64 20.95 213.62 20.95L213.62 20.95L216.29 20.95L216.29 19.68Q216.29 19.22 216.20 18.83Q216.12 18.43 215.88 18.11Q215.64 17.78 215.17 17.63Q214.70 17.47 213.96 17.47L213.96 17.47Q212.95 17.47 211.97 17.70Q210.98 17.93 210.24 18.24L210.24 18.24L209.74 16.08Q210.34 15.79 211.13 15.58Q211.92 15.36 212.78 15.23Q213.65 15.10 214.49 15.10L214.49 15.10Q215.98 15.10 216.94 15.41Q217.90 15.72 218.42 16.32Q218.95 16.92 219.17 17.75Q219.38 18.58 219.38 19.58L219.38 19.58L219.38 24.84Q219.38 25.58 219.41 26.40Q219.43 27.22 219.48 27.84L219.48 27.84L217.22 27.84L216.62 26.14L216.58 26.14Q215.88 27.05 214.90 27.58Q213.91 28.10 212.71 28.10ZM213.77 26.02L213.77 26.02Q214.58 26.02 215.34 25.57Q216.10 25.13 216.34 24.41L216.34 24.41L216.34 22.63L214.10 22.63Q213.74 22.63 213.35 22.68Q212.95 22.73 212.62 22.90Q212.28 23.06 212.06 23.40Q211.85 23.74 211.85 24.31L211.85 24.31Q211.85 25.10 212.38 25.56Q212.90 26.02 213.77 26.02ZM222.36 27.84L222.36 9.89L225.46 9.79L225.46 27.84L222.36 27.84Z"/></svg>