<svg xmlns="http://www.w3.org/2000/svg" xmlns:xlink="http://www.w3.org/1999/xlink" width="312.31200000000007" height="31.2"><path fill="black" d="M1.06 24.05L1.06 24.05Q0.96 23.59 1.06 23.16L1.06 23.16L2.74 23.16Q2.86 22.13 2.92 21.08Q2.98 20.04 2.98 18.96L2.98 18.96L2.98 12.24Q2.98 11.16 2.92 10.12Q2.86 9.07 2.74 8.04L2.74 8.04L1.06 8.04Q0.96 7.58 1.06 7.15L1.06 7.15Q1.90 7.18 2.80 7.19Q3.70 7.20 4.51 7.20L4.51 7.20L8.04 7.20Q9.82 7.20 11.26 7.67Q12.70 8.14 13.55 9.16Q14.40 10.18 14.40 11.83L14.40 11.83Q14.40 13.51 13.52 14.64Q12.65 15.77 11.20 16.33Q9.74 16.90 8.04 16.90L8.04 16.90L4.56 16.90L4.56 15.94L7.97 15.94Q9.29 15.94 10.14 14.96Q10.99 13.99 10.99 12L10.99 12Q10.99 10.06 10.14 9.11Q9.29 8.16 7.58 8.16L7.58 8.16L6.26 8.16Q6.14 9.24 6.08 10.20Q6.02 11.16 6.02 12.24L6.02 12.24L6.02 18.96Q6.02 20.04 6.08 21.08Q6.14 22.13 6.26 23.16L6.26 23.16L8.52 23.16Q8.62 23.59 8.52 24.05L8.52 24.05Q7.27 24 6.31 24Q5.35 24 4.51 24L4.51 24Q3.70 24 2.80 24Q1.90 24 1.06 24.05ZM21.77 12.89L21.65 13.85Q20.78 13.85 20.21 14.36Q19.63 14.88 19.34 15.89Q19.06 16.90 19.06 18.34L19.06 18.34Q19.06 19.90 19.37 21.04Q19.68 22.18 20.30 22.79Q20.93 23.40 21.89 23.40L21.89 23.40L21.77 24.36Q20.14 24.36 18.86 23.68Q17.59 22.99 16.86 21.68Q16.13 20.38 16.13 18.55L16.13 18.55Q16.13 16.80 16.85 15.53Q17.57 14.26 18.84 13.57Q20.11 12.89 21.77 12.89L21.77 12.89ZM21.77 24.36L21.89 23.40Q22.78 23.40 23.34 22.87Q23.90 22.34 24.19 21.34Q24.48 20.33 24.48 18.89L24.48 18.89Q24.48 17.33 24.17 16.20Q23.86 15.07 23.23 14.46Q22.61 13.85 21.65 13.85L21.65 13.85L21.77 12.89Q23.40 12.89 24.67 13.57Q25.94 14.26 26.68 15.55Q27.41 16.85 27.41 18.67L27.41 18.67Q27.41 20.42 26.70 21.71Q25.99 22.99 24.72 23.68Q23.45 24.36 21.77 24.36L21.77 24.36ZM33.58 23.16L34.87 23.16Q34.97 23.59 34.87 24.05L34.87 24.05Q34.10 24 33.40 24Q32.69 24 32.02 24L32.02 24Q31.34 24 30.64 24Q29.93 24 29.14 24.05L29.14 24.05Q29.04 23.59 29.14 23.16L29.14 23.16L30.46 23.16Q30.58 22.30 30.64 21.42Q30.70 20.54 30.70 19.58L30.70 19.58L30.70 11.62Q30.70 9.72 30.46 8.09L30.46 8.09L29.14 8.09Q29.04 7.63 29.14 7.20L29.14 7.20Q30.22 7.20 31.39 7.13Q32.57 7.06 33.70 6.86L33.70 6.86Q33.55 7.44 33.48 8.30Q33.41 9.17 33.37 10.07Q33.34 10.97 33.34 11.62L33.34 11.62L33.34 19.58Q33.34 20.54 33.40 21.42Q33.46 22.30 33.58 23.16L33.58 23.16ZM40.80 24.36L40.80 24.36Q39.41 24.36 38.59 23.77Q37.78 23.18 37.78 21.72L37.78 21.72L37.78 16.56Q37.78 15.84 37.76 15Q37.75 14.16 37.70 13.32Q37.66 12.48 37.56 11.74L37.56 11.74Q38.02 11.59 38.47 11.32Q38.93 11.04 39.28 10.67Q39.62 10.30 39.77 9.89L39.77 9.89Q40.15 9.82 40.54 9.89L40.54 9.89Q40.44 11.57 40.42 13.24Q40.39 14.90 40.39 16.58L40.39 16.58L40.39 21.65Q40.39 22.51 40.67 22.85Q40.94 23.18 41.45 23.18L41.45 23.18Q41.78 23.18 42.16 23.02Q42.53 22.85 42.82 22.54L42.82 22.54Q43.01 22.66 43.16 22.82Q43.32 22.99 43.44 23.18L43.44 23.18Q43.01 23.69 42.41 24.02Q41.81 24.36 40.80 24.36ZM43.15 14.26L36.10 14.26Q36 13.73 36.10 13.25L36.10 13.25L43.15 13.25Q43.25 13.73 43.15 14.26L43.15 14.26ZM48.48 24.36L48.48 24.36Q46.85 24.36 45.80 23.53Q44.76 22.70 44.76 21.19L44.76 21.19Q44.76 20.06 45.36 19.33Q45.96 18.60 46.99 18.23Q48.02 17.86 49.30 17.86L49.30 17.86Q50.16 17.86 50.76 17.99Q51.36 18.12 51.84 18.29L51.84 18.29L51.84 19.27Q50.95 18.86 49.94 18.86L49.94 18.86Q48.91 18.86 48.19 19.43Q47.47 19.99 47.47 21.12L47.47 21.12Q47.47 22.10 47.94 22.68Q48.41 23.26 49.27 23.26L49.27 23.26Q50.06 23.26 50.70 22.87Q51.34 22.49 51.84 21.96L51.84 21.96L52.01 22.97Q51.38 23.57 50.56 23.96Q49.73 24.36 48.48 24.36ZM54.48 16.66L54.48 16.66L54.48 21.86Q54.48 22.63 54.84 22.90Q55.20 23.16 55.94 23.16L55.94 23.16Q56.02 23.59 55.94 24.05L55.94 24.05Q55.49 24.14 55.02 24.19Q54.55 24.24 54.19 24.24L54.19 24.24Q53.18 24.24 52.68 23.90Q52.18 23.57 52.01 22.97L52.01 22.97L51.84 21.96L51.84 16.70Q51.84 15.34 51.41 14.56Q50.98 13.78 49.92 13.78L49.92 13.78Q48.94 13.78 48.44 14.44Q47.95 15.10 48.07 16.25L48.07 16.25L45.36 16.25Q45.36 15.34 45.90 14.57Q46.44 13.80 47.51 13.34Q48.58 12.89 50.14 12.89L50.14 12.89Q52.37 12.89 53.42 13.85Q54.48 14.81 54.48 16.66ZM61.99 24.36L61.99 24.36Q60.60 24.36 59.82 23.80Q59.04 23.23 58.58 22.27L58.58 22.27Q58.63 21.91 58.66 21.49Q58.68 21.07 58.68 20.71L58.68 20.71L58.68 17.66Q58.68 15.77 58.44 14.14L58.44 14.14L57.29 14.14Q57.19 13.68 57.29 13.25L57.29 13.25Q58.42 13.25 59.48 13.18Q60.55 13.10 61.68 12.91L61.68 12.91Q61.54 13.46 61.46 14.34Q61.39 15.22 61.36 16.12Q61.32 17.02 61.32 17.66L61.32 17.66L61.32 20.83Q61.32 21.77 61.70 22.42Q62.09 23.06 63.05 23.06L63.05 23.06Q63.84 23.06 64.46 22.63Q65.09 22.20 65.59 21.36L65.59 21.36L65.83 22.44Q65.23 23.28 64.32 23.82Q63.41 24.36 61.99 24.36ZM75.38 13.20L75.38 13.20Q75.48 13.66 75.38 14.14L75.38 14.14L74.42 14.14Q74.21 15.14 74.15 16.10Q74.09 17.06 74.09 18.29L74.09 18.29Q74.09 19.44 73.84 20.53Q73.58 21.62 73.07 22.49Q72.55 23.35 71.77 23.86Q70.99 24.36 69.91 24.36L69.91 24.36Q68.88 24.36 67.97 24.18Q67.06 24 65.78 24L65.78 24Q65.83 23.59 65.83 23.21Q65.83 22.82 65.83 22.44L65.83 22.44L65.59 21.36L65.59 17.66Q65.59 15.77 65.35 14.14L65.35 14.14L64.15 14.14Q64.06 13.68 64.15 13.25L64.15 13.25Q65.28 13.25 66.38 13.18Q67.49 13.10 68.59 12.91L68.59 12.91Q68.45 13.46 68.38 14.34Q68.30 15.22 68.27 16.12Q68.23 17.02 68.23 17.66L68.23 17.66L68.23 20.88Q68.23 22.01 68.53 22.64Q68.83 23.28 69.91 23.28L69.91 23.28Q70.90 23.28 71.57 22.61Q72.24 21.94 72.60 20.80Q72.96 19.66 72.96 18.29L72.96 18.29Q72.96 17.16 72.66 16.16Q72.36 15.17 71.64 14.14L71.64 14.14L70.51 14.14Q70.42 13.66 70.51 13.20L70.51 13.20Q71.42 13.22 72.22 13.24Q73.01 13.25 73.44 13.25L73.44 13.25Q73.85 13.25 74.39 13.24Q74.93 13.22 75.38 13.20ZM81.34 24.36L81.34 24.36Q80.35 24.36 79.28 24.17Q78.22 23.98 77.18 23.64L77.18 23.64L77.18 20.23Q77.57 20.16 77.95 20.23L77.95 20.23Q78.29 21.70 79.10 22.55Q79.92 23.40 81.50 23.40L81.50 23.40Q82.54 23.40 83.22 22.99Q83.90 22.58 83.90 21.77L83.90 21.77Q83.90 21.12 83.44 20.75Q82.97 20.38 82.22 20.15Q81.48 19.92 80.65 19.68Q79.82 19.44 79.08 19.06Q78.34 18.67 77.87 18Q77.40 17.33 77.40 16.20L77.40 16.20Q77.40 14.66 78.55 13.78Q79.70 12.89 81.82 12.89L81.82 12.89Q82.78 12.89 83.65 13.07Q84.53 13.25 85.27 13.61L85.27 13.61L85.27 16.75Q84.89 16.82 84.50 16.75L84.50 16.75Q84.24 15.26 83.52 14.56Q82.80 13.85 81.60 13.85L81.60 13.85Q80.54 13.85 80.02 14.26Q79.49 14.66 79.49 15.41L79.49 15.41Q79.49 16.03 79.97 16.40Q80.45 16.78 81.22 17.04Q81.98 17.30 82.85 17.54Q83.71 17.78 84.48 18.17Q85.25 18.55 85.74 19.20Q86.23 19.85 86.23 20.90L86.23 20.90Q86.23 22.54 84.95 23.45Q83.66 24.36 81.34 24.36ZM87.89 24.05L87.89 24.05Q87.79 23.59 87.89 23.16L87.89 23.16L89.21 23.16Q89.33 22.30 89.39 21.42Q89.45 20.54 89.45 19.58L89.45 19.58L89.45 11.62Q89.45 9.72 89.21 8.09L89.21 8.09L87.89 8.09Q87.79 7.63 87.89 7.20L87.89 7.20Q88.97 7.20 90.14 7.13Q91.32 7.06 92.45 6.86L92.45 6.86Q92.30 7.44 92.23 8.30Q92.16 9.17 92.12 10.07Q92.09 10.97 92.09 11.62L92.09 11.62L92.09 19.58Q92.09 20.54 92.15 21.42Q92.21 22.30 92.33 23.16L92.33 23.16L93.62 23.16Q93.72 23.59 93.62 24.05L93.62 24.05Q92.86 24 92.15 24Q91.44 24 90.77 24L90.77 24Q90.10 24 89.39 24Q88.68 24 87.89 24.05ZM98.26 24.24L98.26 24.24Q97.25 24.24 96.73 23.95Q96.22 23.66 95.99 23.12Q95.76 22.58 95.62 21.86L95.62 21.86L95.28 20.28Q95.18 19.80 94.94 19.42Q94.70 19.03 94.24 18.79Q93.77 18.55 92.93 18.55L92.93 18.55L92.09 18.55L92.09 17.66L93.26 17.66Q93.98 17.66 94.50 17.28Q95.02 16.90 95.42 16.20L95.42 16.20Q95.83 15.58 96 15.10Q96.17 14.62 96.24 14.14L96.24 14.14L94.58 14.14Q94.49 13.66 94.58 13.20L94.58 13.20Q95.26 13.22 95.59 13.24Q95.93 13.25 96.13 13.25Q96.34 13.25 96.65 13.25L96.65 13.25Q97.13 13.25 97.85 13.24Q98.57 13.22 99.58 13.20L99.58 13.20Q99.67 13.66 99.58 14.14L99.58 14.14L98.33 14.14Q97.75 14.64 97.28 15.34Q96.82 16.03 96.36 16.70Q95.90 17.38 95.30 17.86L95.30 17.86Q96.60 17.93 97.24 18.56Q97.87 19.20 98.04 20.09L98.04 20.09L98.38 21.65Q98.57 22.49 98.92 22.82Q99.26 23.16 99.98 23.16L99.98 23.16Q100.06 23.57 99.98 24L99.98 24Q99.58 24.10 99.12 24.17Q98.66 24.24 98.26 24.24ZM105.84 23.16L107.26 23.16Q107.35 23.59 107.26 24.05L107.26 24.05Q106.44 24 105.70 24Q104.95 24 104.28 24L104.28 24Q103.61 24 102.86 24Q102.12 24 101.28 24.05L101.28 24.05Q101.18 23.59 101.28 23.16L101.28 23.16L102.72 23.16Q102.84 22.30 102.90 21.42Q102.96 20.54 102.96 19.58L102.96 19.58L102.96 17.66Q102.96 15.77 102.72 14.14L102.72 14.14L101.40 14.14Q101.30 13.68 101.40 13.25L101.40 13.25Q102.53 13.25 103.68 13.18Q104.83 13.10 105.96 12.91L105.96 12.91Q105.82 13.46 105.74 14.34Q105.67 15.22 105.64 16.12Q105.60 17.02 105.60 17.66L105.60 17.66L105.60 19.58Q105.60 20.54 105.66 21.42Q105.72 22.30 105.84 23.16L105.84 23.16ZM102.82 8.52L104.28 7.73L105.74 8.52L105.74 10.25L104.28 11.04L102.82 10.25L102.82 8.52ZM127.42 24L127.42 24Q127.15 23.40 126.89 22.90Q126.62 22.39 126.30 21.91Q125.98 21.43 125.57 20.86L125.57 20.86L117.26 9.36L116.54 7.20Q117.07 7.20 117.70 7.20Q118.32 7.20 118.90 7.19Q119.47 7.18 119.88 7.15L119.88 7.15Q120.17 7.75 120.53 8.35Q120.89 8.95 121.49 9.82L121.49 9.82L128.04 18.89L129.17 24Q128.74 24.05 128.29 24.05Q127.85 24.05 127.42 24ZM114.02 24.05L114.02 24.05Q113.93 23.59 114.02 23.16L114.02 23.16L115.63 23.16Q115.82 22.08 115.91 21.06Q115.99 20.04 115.99 18.96L115.99 18.96L115.99 12.24Q115.99 11.26 115.91 10.27Q115.82 9.29 115.63 8.04L115.63 8.04L114.02 8.04Q113.93 7.58 114.02 7.15L114.02 7.15Q114.86 7.18 115.49 7.19Q116.11 7.20 116.54 7.20L116.54 7.20L117.26 9.36Q117.22 9.98 117.17 10.72Q117.12 11.45 117.12 12.24L117.12 12.24L117.12 18.96Q117.12 20.04 117.20 21.06Q117.29 22.08 117.48 23.16L117.48 23.16L119.45 23.16Q119.54 23.59 119.45 24.05L119.45 24.05Q118.54 24 117.77 24Q117 24 116.54 24L116.54 24Q116.11 24 115.49 24Q114.86 24 114.02 24.05ZM129.17 12.24L129.17 24L128.04 18.89L128.04 12.24Q128.04 11.16 127.96 10.22Q127.87 9.29 127.68 8.04L127.68 8.04L125.74 8.04Q125.64 7.58 125.74 7.15L125.74 7.15Q126.65 7.18 127.42 7.19Q128.18 7.20 128.64 7.20L128.64 7.20Q129.05 7.20 129.68 7.19Q130.32 7.18 131.14 7.15L131.14 7.15Q131.23 7.58 131.14 8.04L131.14 8.04L129.53 8.04Q129.34 9.29 129.25 10.22Q129.17 11.16 129.17 12.24L129.17 12.24ZM138.67 12.89L138.55 13.85Q137.69 13.85 137.11 14.36Q136.54 14.88 136.25 15.89Q135.96 16.90 135.96 18.34L135.96 18.34Q135.96 19.90 136.27 21.04Q136.58 22.18 137.21 22.79Q137.83 23.40 138.79 23.40L138.79 23.40L138.67 24.36Q137.04 24.36 135.77 23.68Q134.50 22.99 133.76 21.68Q133.03 20.38 133.03 18.55L133.03 18.55Q133.03 16.80 133.75 15.53Q134.47 14.26 135.74 13.57Q137.02 12.89 138.67 12.89L138.67 12.89ZM138.67 24.36L138.79 23.40Q139.68 23.40 140.24 22.87Q140.81 22.34 141.10 21.34Q141.38 20.33 141.38 18.89L141.38 18.89Q141.38 17.33 141.07 16.20Q140.76 15.07 140.14 14.46Q139.51 13.85 138.55 13.85L138.55 13.85L138.67 12.89Q140.30 12.89 141.58 13.57Q142.85 14.26 143.58 15.55Q144.31 16.85 144.31 18.67L144.31 18.67Q144.31 20.42 143.60 21.71Q142.90 22.99 141.62 23.68Q140.35 24.36 138.67 24.36L138.67 24.36ZM150.84 24.36L150.84 24.36Q149.45 24.36 148.67 23.80Q147.89 23.23 147.43 22.27L147.43 22.27Q147.48 21.91 147.50 21.49Q147.53 21.07 147.53 20.71L147.53 20.71L147.53 17.66Q147.53 15.77 147.29 14.14L147.29 14.14L146.14 14.14Q146.04 13.68 146.14 13.25L146.14 13.25Q147.26 13.25 148.33 13.18Q149.40 13.10 150.53 12.91L150.53 12.91Q150.38 13.46 150.31 14.34Q150.24 15.22 150.20 16.12Q150.17 17.02 150.17 17.66L150.17 17.66L150.17 20.83Q150.17 21.77 150.55 22.42Q150.94 23.06 151.90 23.06L151.90 23.06Q152.69 23.06 153.31 22.63Q153.94 22.20 154.44 21.36L154.44 21.36L154.68 22.44Q154.08 23.28 153.17 23.82Q152.26 24.36 150.84 24.36ZM164.23 13.20L164.23 13.20Q164.33 13.66 164.23 14.14L164.23 14.14L163.27 14.14Q163.06 15.14 163.00 16.10Q162.94 17.06 162.94 18.29L162.94 18.29Q162.94 19.44 162.68 20.53Q162.43 21.62 161.92 22.49Q161.40 23.35 160.62 23.86Q159.84 24.36 158.76 24.36L158.76 24.36Q157.73 24.36 156.82 24.18Q155.90 24 154.63 24L154.63 24Q154.68 23.59 154.68 23.21Q154.68 22.82 154.68 22.44L154.68 22.44L154.44 21.36L154.44 17.66Q154.44 15.77 154.20 14.14L154.20 14.14L153 14.14Q152.90 13.68 153 13.25L153 13.25Q154.13 13.25 155.23 13.18Q156.34 13.10 157.44 12.91L157.44 12.91Q157.30 13.46 157.22 14.34Q157.15 15.22 157.12 16.12Q157.08 17.02 157.08 17.66L157.08 17.66L157.08 20.88Q157.08 22.01 157.38 22.64Q157.68 23.28 158.76 23.28L158.76 23.28Q159.74 23.28 160.42 22.61Q161.09 21.94 161.45 20.80Q161.81 19.66 161.81 18.29L161.81 18.29Q161.81 17.16 161.51 16.16Q161.21 15.17 160.49 14.14L160.49 14.14L159.36 14.14Q159.26 13.66 159.36 13.20L159.36 13.20Q160.27 13.22 161.06 13.24Q161.86 13.25 162.29 13.25L162.29 13.25Q162.70 13.25 163.24 13.24Q163.78 13.22 164.23 13.20ZM170.23 23.88L170.23 23.88Q168.84 23.88 168.05 23.33Q167.26 22.78 166.82 21.79L166.82 21.79Q166.90 21.43 166.91 21.01Q166.92 20.59 166.92 20.23L166.92 20.23L166.92 17.66Q166.92 15.77 166.68 14.14L166.68 14.14L165.55 14.14Q165.46 13.68 165.55 13.25L165.55 13.25Q166.68 13.25 167.75 13.18Q168.82 13.10 169.92 12.91L169.92 12.91Q169.78 13.46 169.70 14.34Q169.63 15.22 169.60 16.12Q169.56 17.02 169.56 17.66L169.56 17.66L169.56 20.35Q169.56 21.29 169.94 21.94Q170.33 22.58 171.29 22.58L171.29 22.58Q172.10 22.58 172.73 22.15Q173.35 21.72 173.86 20.88L173.86 20.88L173.86 22.22Q173.50 22.70 173.02 23.08Q172.54 23.45 171.86 23.66Q171.19 23.88 170.23 23.88ZM172.39 13.25L172.39 13.25Q173.52 13.25 174.62 13.18Q175.73 13.10 176.86 12.91L176.86 12.91Q176.71 13.46 176.64 14.34Q176.57 15.22 176.53 16.12Q176.50 17.02 176.50 17.66L176.50 17.66L176.50 22.06Q176.50 24.34 175.61 25.98Q174.72 27.62 173.24 28.51Q171.77 29.40 169.94 29.40L169.94 29.40Q168.02 29.40 166.90 28.64Q165.77 27.89 165.77 26.52L165.77 26.52Q165.77 25.37 166.56 24.59Q167.35 23.81 168.72 23.23L168.72 23.23L169.46 23.64Q168.58 24.14 168.24 24.84Q167.90 25.54 167.90 26.35L167.90 26.35Q167.90 27.31 168.42 27.88Q168.94 28.44 170.14 28.44L170.14 28.44Q171.46 28.44 172.27 27.72Q173.09 27 173.47 25.85Q173.86 24.70 173.86 23.42L173.86 23.42L173.86 17.66Q173.86 15.77 173.62 14.14L173.62 14.14L172.39 14.14Q172.30 13.68 172.39 13.25ZM194.57 6.53L194.57 6.53Q194.95 6.43 195.34 6.53L195.34 6.53L195.17 8.88Q195.14 9.46 194.65 9.71Q194.16 9.96 193.61 9.96L193.61 9.96L186.79 9.96L186.58 14.54Q187.15 14.06 187.99 13.75Q188.83 13.44 190.25 13.44L190.25 13.44Q192 13.44 193.27 14.11Q194.54 14.78 195.24 16.02Q195.94 17.26 195.94 18.94L195.94 18.94Q195.94 21.41 194.41 22.88Q192.89 24.36 190.01 24.36L190.01 24.36Q188.14 24.36 186.90 23.75Q185.66 23.14 185.08 22.09Q184.49 21.05 184.56 19.75L184.56 19.75L187.68 19.75Q187.68 21.53 188.28 22.46Q188.88 23.40 190.10 23.40L190.10 23.40Q191.42 23.40 192.05 22.32Q192.67 21.24 192.67 19.06L192.67 19.06Q192.67 16.73 192 15.60Q191.33 14.47 189.67 14.47L189.67 14.47Q188.50 14.47 187.66 14.95Q186.82 15.43 186.29 16.15L186.29 16.15Q185.86 16.27 185.40 16.15L185.40 16.15L185.66 9.96Q185.71 9.26 185.72 8.58Q185.74 7.90 185.69 7.20L185.69 7.20L193.61 7.20Q194.40 7.20 194.57 6.53ZM210.98 15.60L210.98 15.60Q210.98 18.41 210.24 20.36Q209.50 22.32 208.09 23.34Q206.69 24.36 204.72 24.36L204.72 24.36Q202.78 24.36 201.37 23.34Q199.97 22.32 199.22 20.36Q198.48 18.41 198.48 15.60L198.48 15.60Q198.48 12.77 199.22 10.82Q199.97 8.88 201.37 7.86Q202.78 6.84 204.72 6.84L204.72 6.84Q206.69 6.84 208.09 7.86Q209.50 8.88 210.24 10.82Q210.98 12.77 210.98 15.60ZM207.72 15.60L207.72 15.60Q207.72 11.52 206.99 9.66Q206.26 7.80 204.72 7.80L204.72 7.80Q203.21 7.80 202.48 9.66Q201.74 11.52 201.74 15.60L201.74 15.60Q201.74 19.68 202.48 21.54Q203.21 23.40 204.72 23.40L204.72 23.40Q206.26 23.40 206.99 21.54Q207.72 19.68 207.72 15.60ZM226.27 15.60L226.27 15.60Q226.27 18.41 225.53 20.36Q224.78 22.32 223.38 23.34Q221.98 24.36 220.01 24.36L220.01 24.36Q218.06 24.36 216.66 23.34Q215.26 22.32 214.51 20.36Q213.77 18.41 213.77 15.60L213.77 15.60Q213.77 12.77 214.51 10.82Q215.26 8.88 216.66 7.86Q218.06 6.84 220.01 6.84L220.01 6.84Q221.98 6.84 223.38 7.86Q224.78 8.88 225.53 10.82Q226.27 12.77 226.27 15.60ZM223.01 15.60L223.01 15.60Q223.01 11.52 222.28 9.66Q221.54 7.80 220.01 7.80L220.01 7.80Q218.50 7.80 217.76 9.66Q217.03 11.52 217.03 15.60L217.03 15.60Q217.03 19.68 217.76 21.54Q218.50 23.40 220.01 23.40L220.01 23.40Q221.54 23.40 222.28 21.54Q223.01 19.68 223.01 15.60ZM233.59 24.05L233.59 24.05Q233.50 23.59 233.59 23.16L233.59 23.16L234.91 23.16Q235.03 22.30 235.09 21.42Q235.15 20.54 235.15 19.58L235.15 19.58L235.15 17.66Q235.15 15.77 234.91 14.14L234.91 14.14L233.71 14.14Q233.62 13.68 233.71 13.25L233.71 13.25Q234.79 13.25 235.75 13.18Q236.71 13.10 237.79 12.91L237.79 12.91Q237.67 13.30 237.61 13.84Q237.55 14.38 237.55 14.81L237.55 14.81L237.79 15.89L237.79 19.58Q237.79 20.54 237.85 21.42Q237.91 22.30 238.03 23.16L238.03 23.16L239.33 23.16Q239.42 23.59 239.33 24.05L239.33 24.05Q238.56 24 237.85 24Q237.14 24 236.47 24L236.47 24Q235.80 24 235.09 24Q234.38 24 233.59 24.05ZM240.74 24.05L240.74 24.05Q240.65 23.59 240.74 23.16L240.74 23.16L242.06 23.16Q242.18 22.30 242.24 21.42Q242.30 20.54 242.30 19.58L242.30 19.58L242.30 16.39Q242.30 15.46 241.91 14.82Q241.51 14.18 240.46 14.18L240.46 14.18Q239.62 14.18 238.96 14.62Q238.30 15.05 237.79 15.89L237.79 15.89L237.55 14.81Q238.13 13.94 239.14 13.42Q240.14 12.89 241.56 12.89L241.56 12.89Q243.02 12.89 243.82 13.44Q244.61 13.99 245.04 14.98L245.04 14.98Q244.99 15.34 244.97 15.74Q244.94 16.15 244.94 16.51L244.94 16.51L244.94 19.58Q244.94 20.54 245.00 21.42Q245.06 22.30 245.18 23.16L245.18 23.16L246.50 23.16Q246.60 23.59 246.50 24.05L246.50 24.05Q245.74 24 245.03 24Q244.32 24 243.62 24L243.62 24Q242.95 24 242.24 24Q241.54 24 240.74 24.05ZM253.82 12.89L253.70 13.85Q252.84 13.85 252.26 14.36Q251.69 14.88 251.40 15.89Q251.11 16.90 251.11 18.34L251.11 18.34Q251.11 19.90 251.42 21.04Q251.74 22.18 252.36 22.79Q252.98 23.40 253.94 23.40L253.94 23.40L253.82 24.36Q252.19 24.36 250.92 23.68Q249.65 22.99 248.92 21.68Q248.18 20.38 248.18 18.55L248.18 18.55Q248.18 16.80 248.90 15.53Q249.62 14.26 250.90 13.57Q252.17 12.89 253.82 12.89L253.82 12.89ZM253.82 24.36L253.94 23.40Q254.83 23.40 255.40 22.87Q255.96 22.34 256.25 21.34Q256.54 20.33 256.54 18.89L256.54 18.89Q256.54 17.33 256.22 16.20Q255.91 15.07 255.29 14.46Q254.66 13.85 253.70 13.85L253.70 13.85L253.82 12.89Q255.46 12.89 256.73 13.57Q258 14.26 258.73 15.55Q259.46 16.85 259.46 18.67L259.46 18.67Q259.46 20.42 258.76 21.71Q258.05 22.99 256.78 23.68Q255.50 24.36 253.82 24.36L253.82 24.36ZM261.34 24.05L261.34 24.05Q261.24 23.59 261.34 23.16L261.34 23.16L262.66 23.16Q262.78 22.30 262.84 21.42Q262.90 20.54 262.90 19.58L262.90 19.58L262.90 17.66Q262.90 15.77 262.66 14.14L262.66 14.14L261.46 14.14Q261.36 13.68 261.46 13.25L261.46 13.25Q262.54 13.25 263.50 13.18Q264.46 13.10 265.54 12.91L265.54 12.91Q265.42 13.30 265.36 13.86Q265.30 14.42 265.30 15.10L265.30 15.10L265.54 16.27L265.54 19.58Q265.54 20.54 265.60 21.42Q265.66 22.30 265.78 23.16L265.78 23.16L267.79 23.16Q267.89 23.59 267.79 24.05L267.79 24.05Q266.50 24 265.69 24Q264.89 24 264.22 24L264.22 24Q263.54 24 262.84 24Q262.13 24 261.34 24.05ZM271.06 16.25L268.34 16.25Q268.44 15.31 268.26 14.80Q268.08 14.28 267.53 14.28L267.53 14.28Q267.00 14.28 266.52 14.76Q266.04 15.24 265.54 16.27L265.54 16.27L265.30 15.10Q265.87 14.02 266.65 13.45Q267.43 12.89 268.61 12.89L268.61 12.89Q269.64 12.89 270.19 13.30Q270.74 13.70 270.94 14.45Q271.13 15.19 271.06 16.25L271.06 16.25ZM272.35 24.05L272.35 24.05Q272.26 23.59 272.35 23.16L272.35 23.16L273.67 23.16Q273.79 22.30 273.85 21.42Q273.91 20.54 273.91 19.58L273.91 19.58L273.91 17.66Q273.91 15.77 273.67 14.14L273.67 14.14L272.47 14.14Q272.38 13.68 272.47 13.25L272.47 13.25Q273.55 13.25 274.51 13.18Q275.47 13.10 276.55 12.91L276.55 12.91Q276.43 13.30 276.37 13.84Q276.31 14.38 276.31 14.81L276.31 14.81L276.55 15.89L276.55 19.58Q276.55 20.54 276.61 21.42Q276.67 22.30 276.79 23.16L276.79 23.16L277.85 23.16Q277.94 23.59 277.85 24.05L277.85 24.05Q277.08 24 276.49 24Q275.90 24 275.23 24L275.23 24Q274.56 24 273.85 24Q273.14 24 272.35 24.05ZM279.50 24.05L279.50 24.05Q279.41 23.59 279.50 23.16L279.50 23.16L280.58 23.16Q280.70 22.30 280.76 21.42Q280.82 20.54 280.82 19.58L280.82 19.58L280.82 16.39Q280.82 15.46 280.50 14.82Q280.18 14.18 279.22 14.18L279.22 14.18Q278.35 14.18 277.70 14.62Q277.06 15.05 276.55 15.89L276.55 15.89L276.31 14.81Q276.89 13.94 277.87 13.42Q278.86 12.89 280.32 12.89L280.32 12.89Q281.71 12.89 282.42 13.44Q283.13 13.99 283.56 14.98L283.56 14.98Q283.51 15.34 283.49 15.74Q283.46 16.15 283.46 16.51L283.46 16.51L283.46 19.58Q283.46 20.54 283.52 21.42Q283.58 22.30 283.70 23.16L283.70 23.16L284.78 23.16Q284.88 23.59 284.78 24.05L284.78 24.05Q284.02 24 283.43 24Q282.84 24 282.14 24L282.14 24Q281.47 24 280.88 24Q280.30 24 279.50 24.05ZM286.44 24.05L286.44 24.05Q286.34 23.59 286.44 23.16L286.44 23.16L287.52 23.16Q287.64 22.30 287.70 21.42Q287.76 20.54 287.76 19.58L287.76 19.58L287.76 16.39Q287.76 15.46 287.44 14.82Q287.11 14.18 286.15 14.18L286.15 14.18Q285.22 14.18 284.59 14.62Q283.97 15.05 283.46 15.89L283.46 15.89L283.22 14.81Q283.82 13.94 284.78 13.42Q285.74 12.89 287.26 12.89L287.26 12.89Q288.65 12.89 289.34 13.44Q290.04 13.99 290.47 14.98L290.47 14.98Q290.45 15.34 290.42 15.74Q290.40 16.15 290.40 16.51L290.40 16.51L290.40 19.58Q290.40 20.54 290.46 21.42Q290.52 22.30 290.64 23.16L290.64 23.16L291.94 23.16Q292.03 23.59 291.94 24.05L291.94 24.05Q291.17 24 290.46 24Q289.75 24 289.08 24L289.08 24Q288.41 24 287.82 24Q287.23 24 286.44 24.05ZM297.17 24.36L297.17 24.36Q295.54 24.36 294.49 23.53Q293.45 22.70 293.45 21.19L293.45 21.19Q293.45 20.06 294.05 19.33Q294.65 18.60 295.68 18.23Q296.71 17.86 297.98 17.86L297.98 17.86Q298.85 17.86 299.45 17.99Q300.05 18.12 300.53 18.29L300.53 18.29L300.53 19.27Q299.64 18.86 298.63 18.86L298.63 18.86Q297.60 18.86 296.88 19.43Q296.16 19.99 296.16 21.12L296.16 21.12Q296.16 22.10 296.63 22.68Q297.10 23.26 297.96 23.26L297.96 23.26Q298.75 23.26 299.39 22.87Q300.02 22.49 300.53 21.96L300.53 21.96L300.70 22.97Q300.07 23.57 299.24 23.96Q298.42 24.36 297.17 24.36ZM303.17 16.66L303.17 16.66L303.17 21.86Q303.17 22.63 303.53 22.90Q303.89 23.16 304.63 23.16L304.63 23.16Q304.70 23.59 304.63 24.05L304.63 24.05Q304.18 24.14 303.71 24.19Q303.24 24.24 302.88 24.24L302.88 24.24Q301.87 24.24 301.37 23.90Q300.86 23.57 300.70 22.97L300.70 22.97L300.53 21.96L300.53 16.70Q300.53 15.34 300.10 14.56Q299.66 13.78 298.61 13.78L298.61 13.78Q297.62 13.78 297.13 14.44Q296.64 15.10 296.76 16.25L296.76 16.25L294.05 16.25Q294.05 15.34 294.59 14.57Q295.13 13.80 296.20 13.34Q297.26 12.89 298.82 12.89L298.82 12.89Q301.06 12.89 302.11 13.85Q303.17 14.81 303.17 16.66ZM310.32 23.16L311.62 23.16Q311.71 23.59 311.62 24.05L311.62 24.05Q310.85 24 310.14 24Q309.43 24 308.76 24L308.76 24Q308.09 24 307.38 24Q306.67 24 305.88 24.05L305.88 24.05Q305.78 23.59 305.88 23.16L305.88 23.16L307.20 23.16Q307.32 22.30 307.38 21.42Q307.44 20.54 307.44 19.58L307.44 19.58L307.44 11.62Q307.44 9.72 307.20 8.09L307.20 8.09L305.88 8.09Q305.78 7.63 305.88 7.20L305.88 7.20Q306.96 7.20 308.14 7.13Q309.31 7.06 310.44 6.86L310.44 6.86Q310.30 7.44 310.22 8.30Q310.15 9.17 310.12 10.07Q310.08 10.97 310.08 11.62L310.08 11.62L310.08 19.58Q310.08 20.54 310.14 21.42Q310.20 22.30 310.32 23.16L310.32 23.16Z"/></svg>