<svg xmlns="http://www.w3.org/2000/svg" xmlns:xlink="http://www.w3.org/1999/xlink" width="183.39600000000002" height="36.6"><path fill="black" d="M8.20 27L0.74 27L0.74 26.53L7.94 26.53Q8.98 26.53 9.85 25.99Q10.73 25.44 11.26 24.41Q11.78 23.39 11.78 21.96L11.78 21.96Q11.78 20.53 11.26 19.66Q10.73 18.78 9.85 18.38Q8.98 17.99 7.94 17.99L7.94 17.99L5.06 17.99L5.06 17.69L8.20 17.69Q9.89 17.69 11.30 18.11Q12.72 18.53 13.57 19.46Q14.42 20.40 14.42 21.96L14.42 21.96Q14.42 24.66 12.76 25.83Q11.10 27 8.20 27L8.20 27ZM5.20 26.82L2.90 26.82L2.90 9.18L5.20 9.18L5.20 26.82ZM7.70 17.83L5.06 17.83L5.06 17.52L7.70 17.52Q8.62 17.52 9.44 17.16Q10.27 16.80 10.79 15.96Q11.32 15.12 11.32 13.69L11.32 13.69Q11.32 12.26 10.79 11.33Q10.27 10.39 9.44 9.93Q8.62 9.47 7.70 9.47L7.70 9.47L0.74 9.47L0.74 9L7.70 9Q10.43 9 12.07 10.05Q13.70 11.10 13.70 13.44L13.70 13.44Q13.70 15.77 12.16 16.80Q10.61 17.83 7.70 17.83L7.70 17.83ZM22.49 27.24L22.49 27.24Q20.80 27.24 19.56 26.45Q18.32 25.66 17.65 24.35Q16.98 23.04 16.98 21.48L16.98 21.48Q16.98 19.92 17.65 18.61Q18.32 17.30 19.56 16.52Q20.80 15.73 22.49 15.73L22.49 15.73Q24.18 15.73 25.41 16.52Q26.64 17.30 27.31 18.61Q27.97 19.92 27.97 21.48L27.97 21.48Q27.97 23.04 27.31 24.35Q26.64 25.66 25.41 26.45Q24.18 27.24 22.49 27.24ZM22.49 26.77L22.49 26.77Q23.46 26.77 24.06 26.27Q24.66 25.78 24.98 24.97Q25.30 24.17 25.41 23.24Q25.52 22.32 25.52 21.48L25.52 21.48Q25.52 20.63 25.41 19.71Q25.30 18.79 24.98 17.99Q24.66 17.18 24.06 16.69Q23.46 16.19 22.49 16.19L22.49 16.19Q21.52 16.19 20.92 16.69Q20.32 17.18 20.00 17.99Q19.68 18.79 19.57 19.71Q19.45 20.63 19.45 21.48L19.45 21.48Q19.45 22.32 19.57 23.24Q19.68 24.17 20.00 24.97Q20.32 25.78 20.92 26.27Q21.52 26.77 22.49 26.77ZM35.39 27.23L35.39 27.23Q34.13 27.23 33 26.54Q31.87 25.86 31.16 24.58Q30.44 23.29 30.44 21.49L30.44 21.49Q30.44 19.69 31.16 18.40Q31.87 17.11 33 16.42Q34.13 15.73 35.39 15.73L35.39 15.73Q36.85 15.73 37.84 16.74Q38.83 17.75 39.22 19.46L39.22 19.46L39.22 9.47L37.64 9.47L37.64 9L41.39 9L41.39 26.53L42.95 26.53L42.95 27L39.22 27L39.22 23.52Q38.83 25.22 37.84 26.23Q36.85 27.23 35.39 27.23ZM35.81 26.58L35.81 26.58Q36.71 26.58 37.48 25.98Q38.26 25.38 38.74 24.25Q39.22 23.11 39.22 21.49L39.22 21.49Q39.22 19.87 38.74 18.73Q38.26 17.58 37.48 16.98Q36.71 16.38 35.81 16.38L35.81 16.38Q34.87 16.38 34.23 16.99Q33.59 17.59 33.25 18.74Q32.92 19.88 32.92 21.49L32.92 21.49Q32.92 23.10 33.25 24.24Q33.59 25.38 34.23 25.98Q34.87 26.58 35.81 26.58ZM50.56 27.24L50.56 27.24Q48.86 27.24 47.63 26.45Q46.39 25.66 45.72 24.35Q45.05 23.04 45.05 21.48L45.05 21.48Q45.05 19.92 45.72 18.61Q46.39 17.30 47.63 16.52Q48.86 15.73 50.56 15.73L50.56 15.73Q52.25 15.73 53.48 16.52Q54.71 17.30 55.37 18.61Q56.04 19.92 56.04 21.48L56.04 21.48Q56.04 23.04 55.37 24.35Q54.71 25.66 53.48 26.45Q52.25 27.24 50.56 27.24ZM50.56 26.77L50.56 26.77Q51.53 26.77 52.13 26.27Q52.73 25.78 53.05 24.97Q53.36 24.17 53.48 23.24Q53.59 22.32 53.59 21.48L53.59 21.48Q53.59 20.63 53.48 19.71Q53.36 18.79 53.05 17.99Q52.73 17.18 52.13 16.69Q51.53 16.19 50.56 16.19L50.56 16.19Q49.58 16.19 48.98 16.69Q48.38 17.18 48.07 17.99Q47.75 18.79 47.63 19.71Q47.52 20.63 47.52 21.48L47.52 21.48Q47.52 22.32 47.63 23.24Q47.75 24.17 48.07 24.97Q48.38 25.78 48.98 26.27Q49.58 26.77 50.56 26.77ZM58.15 15.96L61.82 15.96L61.82 26.53L63.37 26.53L63.37 27L58.15 27L58.15 26.53L59.72 26.53L59.72 16.43L58.15 16.43L58.15 15.96ZM69.14 19.33L69.14 19.33L69.14 26.53L70.72 26.53L70.72 27L65.47 27L65.47 26.53L67.03 26.53L67.03 19.69Q67.03 18.68 66.94 17.92Q66.85 17.16 66.54 16.73Q66.23 16.31 65.57 16.31L65.57 16.31Q64.60 16.31 63.89 16.84Q63.18 17.36 62.72 18.19Q62.27 19.01 62.05 19.92Q61.82 20.83 61.82 21.61L61.82 21.61L61.52 21.67Q61.52 20.88 61.73 19.87Q61.94 18.85 62.44 17.91Q62.93 16.97 63.77 16.35Q64.61 15.73 65.88 15.73L65.88 15.73Q67.27 15.73 67.97 16.19Q68.66 16.66 68.90 17.47Q69.14 18.29 69.14 19.33ZM75.22 11.71L75.22 11.71Q74.63 11.71 74.20 11.28Q73.78 10.85 73.78 10.26L73.78 10.26Q73.78 9.66 74.20 9.24Q74.63 8.82 75.22 8.82L75.22 8.82Q75.82 8.82 76.24 9.24Q76.66 9.66 76.66 10.26L76.66 10.26Q76.66 10.85 76.24 11.28Q75.82 11.71 75.22 11.71ZM72.56 15.96L76.28 15.96L76.28 26.53L77.86 26.53L77.86 27L72.56 27L72.56 26.53L74.12 26.53L74.12 16.43L72.56 16.43L72.56 15.96ZM94.92 27.24L94.33 27.24L87.66 9L89.96 9L95.52 24.01L100.72 9L101.22 9L94.92 27.24ZM85.58 9L87.90 9L87.90 26.53L89.68 26.53L89.68 27L85.70 27L85.70 26.53L87.41 26.53L87.41 9.47L85.58 9.47L85.58 9ZM101.09 9L105.05 9L105.05 9.47L103.37 9.47L103.37 26.53L105.05 26.53L105.05 27L99.16 27L99.16 26.53L101.09 26.53L101.09 9ZM112.52 27.24L112.52 27.24Q110.83 27.24 109.60 26.45Q108.36 25.66 107.69 24.35Q107.02 23.04 107.02 21.48L107.02 21.48Q107.02 19.92 107.69 18.61Q108.36 17.30 109.60 16.52Q110.83 15.73 112.52 15.73L112.52 15.73Q114.22 15.73 115.45 16.52Q116.68 17.30 117.34 18.61Q118.01 19.92 118.01 21.48L118.01 21.48Q118.01 23.04 117.34 24.35Q116.68 25.66 115.45 26.45Q114.22 27.24 112.52 27.24ZM112.52 26.77L112.52 26.77Q113.50 26.77 114.10 26.27Q114.70 25.78 115.01 24.97Q115.33 24.17 115.45 23.24Q115.56 22.32 115.56 21.48L115.56 21.48Q115.56 20.63 115.45 19.71Q115.33 18.79 115.01 17.99Q114.70 17.18 114.10 16.69Q113.50 16.19 112.52 16.19L112.52 16.19Q111.55 16.19 110.95 16.69Q110.35 17.18 110.03 17.99Q109.72 18.79 109.60 19.71Q109.49 20.63 109.49 21.48L109.49 21.48Q109.49 22.32 109.60 23.24Q109.72 24.17 110.03 24.97Q110.35 25.78 110.95 26.27Q111.55 26.77 112.52 26.77ZM125.42 27.23L125.42 27.23Q124.16 27.23 123.04 26.54Q121.91 25.86 121.19 24.58Q120.48 23.29 120.48 21.49L120.48 21.49Q120.48 19.69 121.19 18.40Q121.91 17.11 123.04 16.42Q124.16 15.73 125.42 15.73L125.42 15.73Q126.89 15.73 127.88 16.74Q128.87 17.75 129.25 19.46L129.25 19.46L129.25 9.47L127.68 9.47L127.68 9L131.42 9L131.42 26.53L132.98 26.53L132.98 27L129.25 27L129.25 23.52Q128.87 25.22 127.88 26.23Q126.89 27.23 125.42 27.23ZM125.84 26.58L125.84 26.58Q126.74 26.58 127.52 25.98Q128.29 25.38 128.77 24.25Q129.25 23.11 129.25 21.49L129.25 21.49Q129.25 19.87 128.77 18.73Q128.29 17.58 127.52 16.98Q126.74 16.38 125.84 16.38L125.84 16.38Q124.91 16.38 124.27 16.99Q123.62 17.59 123.29 18.74Q122.95 19.88 122.95 21.49L122.95 21.49Q122.95 23.10 123.29 24.24Q123.62 25.38 124.27 25.98Q124.91 26.58 125.84 26.58ZM143.96 27.24L143.96 27.24Q143.40 27.24 142.93 27.04Q142.45 26.84 142.16 26.38Q141.88 25.92 141.88 25.14L141.88 25.14L141.88 19.69Q141.88 18.83 141.73 18.04Q141.59 17.24 141.13 16.74Q140.66 16.24 139.70 16.24L139.70 16.24Q139.16 16.24 138.58 16.36Q138 16.48 137.50 16.72Q137.00 16.97 136.69 17.34Q136.38 17.71 136.38 18.22L136.38 18.22L135.82 18.22Q135.82 17.60 136.22 17.25Q136.62 16.90 137.10 16.90L137.10 16.90Q137.62 16.90 138.04 17.23Q138.47 17.56 138.47 18.17L138.47 18.17Q138.47 18.89 138.03 19.21Q137.59 19.54 137.10 19.54L137.10 19.54Q136.55 19.54 136.17 19.20Q135.79 18.86 135.79 18.22L135.79 18.22Q135.79 17.65 136.16 17.20Q136.52 16.75 137.14 16.43Q137.76 16.12 138.53 15.94Q139.31 15.77 140.12 15.77L140.12 15.77Q141.78 15.77 142.60 16.34Q143.42 16.92 143.70 17.82Q143.98 18.72 143.98 19.69L143.98 19.69L143.98 25.60Q143.98 25.99 144.11 26.27Q144.25 26.54 144.70 26.54L144.70 26.54Q145.01 26.54 145.39 26.29Q145.76 26.03 145.97 25.63L145.97 25.63L146.20 26.06Q145.88 26.56 145.31 26.90Q144.74 27.24 143.96 27.24ZM138.37 27.24L138.37 27.24Q136.81 27.24 135.88 26.44Q134.95 25.64 134.95 24.28L134.95 24.28Q134.95 22.67 136.33 21.75Q137.71 20.83 140.27 20.83L140.27 20.83L142.99 20.83L142.99 21.24L140.27 21.24Q139.21 21.24 138.56 21.68Q137.92 22.13 137.62 22.79Q137.32 23.45 137.32 24.11L137.32 24.11Q137.32 24.71 137.50 25.27Q137.69 25.82 138.09 26.18Q138.49 26.53 139.12 26.53L139.12 26.53Q139.79 26.53 140.42 26.10Q141.05 25.67 141.46 24.79Q141.88 23.92 141.88 22.61L141.88 22.61L142.15 22.61Q142.15 23.98 141.71 25.02Q141.28 26.06 140.44 26.65Q139.60 27.24 138.37 27.24ZM159.84 27.35L159.84 27.35Q158.29 27.35 157.16 26.87Q156.04 26.39 155.28 25.55L155.28 25.55L154.16 27.24L153.76 27.24L153.76 22.31L154.22 22.31Q154.42 23.29 154.84 24.12Q155.26 24.95 155.92 25.56Q156.59 26.17 157.51 26.51Q158.42 26.86 159.62 26.86L159.62 26.86Q160.90 26.86 161.83 26.42Q162.76 25.99 163.26 25.17Q163.76 24.35 163.76 23.16L163.76 23.16Q163.76 22.10 163.25 21.38Q162.73 20.65 161.87 20.12Q161.02 19.58 160.00 19.13Q158.98 18.68 157.96 18.19Q156.94 17.70 156.08 17.05Q155.22 16.39 154.70 15.46Q154.19 14.53 154.19 13.20L154.19 13.20Q154.19 11.87 154.86 10.87Q155.53 9.88 156.67 9.32Q157.80 8.76 159.17 8.76L159.17 8.76Q160.36 8.76 161.35 9.14Q162.35 9.52 163.08 10.28L163.08 10.28L164.20 8.76L164.59 8.76L164.59 13.69L164.14 13.69Q163.90 12.19 163.24 11.21Q162.58 10.24 161.59 9.76Q160.61 9.29 159.40 9.29L159.40 9.29Q157.68 9.29 156.80 10.10Q155.92 10.91 155.92 12.24L155.92 12.24Q155.92 13.19 156.43 13.85Q156.94 14.51 157.78 15.01Q158.62 15.50 159.62 15.95Q160.63 16.39 161.64 16.90Q162.65 17.41 163.49 18.11Q164.33 18.80 164.84 19.79Q165.35 20.78 165.35 22.20L165.35 22.20Q165.35 23.76 164.68 24.92Q164.00 26.08 162.77 26.71Q161.53 27.35 159.84 27.35ZM175.70 27.24L175.70 27.24Q173.27 27.24 171.43 26.04Q169.60 24.84 168.58 22.75Q167.56 20.66 167.56 18L167.56 18Q167.56 15.32 168.58 13.24Q169.60 11.16 171.43 9.96Q173.27 8.76 175.70 8.76L175.70 8.76Q176.90 8.76 177.99 9.17Q179.08 9.59 179.89 10.33L179.89 10.33L181.14 9L181.56 9L181.56 13.92L181.08 13.92Q181.02 12.52 180.28 11.48Q179.54 10.45 178.40 9.89Q177.25 9.32 175.94 9.32L175.94 9.32Q174.38 9.32 173.30 10.06Q172.21 10.79 171.56 12.03Q170.90 13.27 170.60 14.82Q170.30 16.37 170.30 18L170.30 18Q170.30 19.63 170.60 21.18Q170.90 22.73 171.56 23.97Q172.21 25.21 173.30 25.94Q174.38 26.68 175.94 26.68L175.94 26.68Q177.13 26.68 178.10 26.32Q179.06 25.97 179.77 25.34Q180.48 24.71 180.88 23.87Q181.27 23.04 181.32 22.08L181.32 22.08L181.80 22.08L181.80 27L181.38 27L180.24 25.58Q179.42 26.35 178.25 26.80Q177.08 27.24 175.70 27.24Z"/></svg>