<svg xmlns="http://www.w3.org/2000/svg" xmlns:xlink="http://www.w3.org/1999/xlink" width="194.47200000000007" height="30.240000000000002"><path fill="black" d="M9.55 24.24L9.55 24.24Q7.78 24.24 6.24 23.58Q4.70 22.92 3.55 21.73Q2.40 20.54 1.76 18.98Q1.13 17.42 1.13 15.65L1.13 15.65Q1.13 13.85 1.76 12.30Q2.40 10.75 3.54 9.58Q4.68 8.40 6.20 7.75Q7.73 7.10 9.50 7.10L9.50 7.10Q11.28 7.10 12.80 7.75Q14.33 8.40 15.48 9.58Q16.63 10.75 17.28 12.31Q17.93 13.87 17.93 15.67L17.93 15.67Q17.93 17.45 17.28 19.01Q16.63 20.57 15.49 21.74Q14.35 22.92 12.83 23.58Q11.30 24.24 9.55 24.24ZM9.50 22.08L9.50 22.08Q11.30 22.08 12.66 21.25Q14.02 20.42 14.81 18.97Q15.60 17.52 15.60 15.65L15.60 15.65Q15.60 14.26 15.14 13.09Q14.69 11.93 13.87 11.06Q13.06 10.20 11.95 9.73Q10.85 9.26 9.50 9.26L9.50 9.26Q7.73 9.26 6.37 10.08Q5.02 10.90 4.24 12.34Q3.46 13.78 3.46 15.65L3.46 15.65Q3.46 17.04 3.90 18.23Q4.34 19.42 5.15 20.27Q5.95 21.12 7.07 21.60Q8.18 22.08 9.50 22.08ZM25.25 24.24L25.25 24.24Q23.83 24.24 22.72 23.60Q21.60 22.97 20.98 21.84Q20.35 20.71 20.35 19.22L20.35 19.22L20.35 12.60L22.51 12.60L22.51 19.13Q22.51 20.06 22.84 20.75Q23.16 21.43 23.78 21.79Q24.41 22.15 25.25 22.15L25.25 22.15Q26.52 22.15 27.24 21.35Q27.96 20.54 27.96 19.13L27.96 19.13L27.96 12.60L30.12 12.60L30.12 19.22Q30.12 20.71 29.50 21.84Q28.87 22.97 27.78 23.60Q26.69 24.24 25.25 24.24ZM36.94 24L34.78 24L34.78 7.82L36.94 7.82L36.94 24ZM39.74 14.57L31.97 14.57L31.97 12.60L39.74 12.60L39.74 14.57ZM45.22 24L43.06 24L43.06 10.90Q43.06 9.62 43.61 8.68Q44.16 7.73 45.13 7.18Q46.10 6.62 47.40 6.62L47.40 6.62Q48.38 6.62 49.10 6.96Q49.82 7.30 50.42 7.94L50.42 7.94L49.01 9.34Q48.70 9 48.31 8.82Q47.93 8.64 47.38 8.64L47.38 8.64Q46.34 8.64 45.78 9.24Q45.22 9.84 45.22 10.90L45.22 10.90L45.22 24ZM48.84 14.57L40.25 14.57L40.25 12.60L48.84 12.60L48.84 14.57ZM53.18 24L51.02 24L51.02 12.60L53.18 12.60L53.18 24ZM52.10 10.32L52.10 10.32Q51.50 10.32 51.12 9.92Q50.74 9.53 50.74 8.93L50.74 8.93Q50.74 8.35 51.12 7.96Q51.50 7.56 52.10 7.56L52.10 7.56Q52.70 7.56 53.09 7.96Q53.47 8.35 53.47 8.93L53.47 8.93Q53.47 9.53 53.09 9.92Q52.70 10.32 52.10 10.32ZM60.29 24L58.13 24L58.13 7.82L60.29 7.82L60.29 24ZM63.10 14.57L55.32 14.57L55.32 12.60L63.10 12.60L63.10 14.57ZM71.83 18.26L69.41 18.26L75.48 7.34L78.02 7.34L71.83 18.26ZM82.18 19.66L69.41 19.66L69.41 18.26L70.37 17.64L82.18 17.64L82.18 19.66ZM79.78 24L77.54 24L77.54 12.98L79.78 12.98L79.78 24ZM90.89 24.24L90.89 24.24Q89.02 24.24 87.47 23.18Q85.92 22.13 85.01 20.20Q84.10 18.26 84.10 15.65L84.10 15.65Q84.10 13.03 85.00 11.11Q85.90 9.19 87.43 8.15Q88.97 7.10 90.82 7.10L90.82 7.10Q92.71 7.10 94.25 8.15Q95.78 9.19 96.68 11.11Q97.58 13.03 97.58 15.67L97.58 15.67Q97.58 18.29 96.68 20.22Q95.78 22.15 94.26 23.20Q92.74 24.24 90.89 24.24ZM90.84 22.10L90.84 22.10Q92.16 22.10 93.16 21.37Q94.15 20.64 94.73 19.20Q95.30 17.76 95.30 15.65L95.30 15.65Q95.30 13.54 94.73 12.11Q94.15 10.68 93.14 9.95Q92.14 9.22 90.82 9.22L90.82 9.22Q89.52 9.22 88.51 9.95Q87.50 10.68 86.94 12.11Q86.38 13.54 86.38 15.65L86.38 15.65Q86.38 17.76 86.94 19.20Q87.50 20.64 88.51 21.37Q89.52 22.10 90.84 22.10ZM106.63 24.24L106.63 24.24Q104.76 24.24 103.21 23.18Q101.66 22.13 100.75 20.20Q99.84 18.26 99.84 15.65L99.84 15.65Q99.84 13.03 100.74 11.11Q101.64 9.19 103.18 8.15Q104.71 7.10 106.56 7.10L106.56 7.10Q108.46 7.10 109.99 8.15Q111.53 9.19 112.43 11.11Q113.33 13.03 113.33 15.67L113.33 15.67Q113.33 18.29 112.43 20.22Q111.53 22.15 110.00 23.20Q108.48 24.24 106.63 24.24ZM106.58 22.10L106.58 22.10Q107.90 22.10 108.90 21.37Q109.90 20.64 110.47 19.20Q111.05 17.76 111.05 15.65L111.05 15.65Q111.05 13.54 110.47 12.11Q109.90 10.68 108.89 9.95Q107.88 9.22 106.56 9.22L106.56 9.22Q105.26 9.22 104.26 9.95Q103.25 10.68 102.68 12.11Q102.12 13.54 102.12 15.65L102.12 15.65Q102.12 17.76 102.68 19.20Q103.25 20.64 104.26 21.37Q105.26 22.10 106.58 22.10ZM131.26 24L129.10 24L129.10 17.35Q129.10 16.06 128.28 15.22Q127.46 14.38 126.17 14.38L126.17 14.38Q125.30 14.38 124.63 14.76Q123.96 15.14 123.58 15.82Q123.19 16.49 123.19 17.35L123.19 17.35L122.30 16.85Q122.30 15.55 122.88 14.54Q123.46 13.54 124.49 12.95Q125.52 12.36 126.82 12.36L126.82 12.36Q128.11 12.36 129.11 13.01Q130.10 13.66 130.68 14.70Q131.26 15.74 131.26 16.92L131.26 16.92L131.26 24ZM123.19 24L121.03 24L121.03 12.60L123.19 12.60L123.19 24ZM139.39 24.24L139.39 24.24Q137.71 24.24 136.37 23.45Q135.02 22.66 134.23 21.30Q133.44 19.94 133.44 18.26L133.44 18.26Q133.44 16.61 134.23 15.28Q135.02 13.94 136.37 13.15Q137.71 12.36 139.39 12.36L139.39 12.36Q141.05 12.36 142.40 13.14Q143.76 13.92 144.55 15.26Q145.34 16.61 145.34 18.26L145.34 18.26Q145.34 19.94 144.55 21.30Q143.76 22.66 142.40 23.45Q141.05 24.24 139.39 24.24ZM139.39 22.15L139.39 22.15Q140.47 22.15 141.31 21.65Q142.15 21.14 142.63 20.27Q143.11 19.39 143.11 18.26L143.11 18.26Q143.11 17.16 142.62 16.30Q142.13 15.43 141.30 14.94Q140.47 14.45 139.39 14.45L139.39 14.45Q138.31 14.45 137.47 14.94Q136.63 15.43 136.15 16.30Q135.67 17.16 135.67 18.26L135.67 18.26Q135.67 19.39 136.15 20.27Q136.63 21.14 137.47 21.65Q138.31 22.15 139.39 22.15ZM149.93 24L147.77 24L147.77 12.60L149.93 12.60L149.93 24ZM149.93 17.50L149.93 17.50L149.11 17.14Q149.11 14.95 150.12 13.66Q151.13 12.36 153.02 12.36L153.02 12.36Q153.89 12.36 154.58 12.66Q155.28 12.96 155.88 13.66L155.88 13.66L154.46 15.12Q154.10 14.74 153.67 14.57Q153.24 14.40 152.66 14.40L152.66 14.40Q151.46 14.40 150.70 15.17Q149.93 15.94 149.93 17.50ZM159.60 24L157.44 24L157.44 12.60L159.60 12.60L159.60 24ZM167.30 24L165.14 24L165.14 17.11Q165.14 15.84 164.36 15.11Q163.58 14.38 162.41 14.38L162.41 14.38Q161.62 14.38 160.99 14.71Q160.37 15.05 159.98 15.65Q159.60 16.25 159.60 17.09L159.60 17.09L158.71 16.66Q158.71 15.36 159.28 14.40Q159.84 13.44 160.82 12.90Q161.81 12.36 163.03 12.36L163.03 12.36Q164.23 12.36 165.20 12.89Q166.18 13.42 166.74 14.38Q167.30 15.34 167.30 16.66L167.30 16.66L167.30 24ZM175.03 24L172.85 24L172.85 17.11Q172.85 15.84 172.07 15.11Q171.29 14.38 170.14 14.38L170.14 14.38Q169.34 14.38 168.71 14.71Q168.07 15.05 167.69 15.65Q167.30 16.25 167.30 17.09L167.30 17.09L166.08 16.66Q166.15 15.34 166.79 14.39Q167.42 13.44 168.43 12.90Q169.44 12.36 170.64 12.36L170.64 12.36Q171.89 12.36 172.87 12.89Q173.86 13.42 174.44 14.38Q175.03 15.34 175.03 16.68L175.03 16.68L175.03 24ZM182.81 24.24L182.81 24.24Q181.25 24.24 179.98 23.46Q178.70 22.68 177.97 21.34Q177.24 19.99 177.24 18.31L177.24 18.31Q177.24 16.63 177.97 15.29Q178.70 13.94 179.96 13.15Q181.22 12.36 182.81 12.36L182.81 12.36Q184.10 12.36 185.12 12.90Q186.14 13.44 186.77 14.39Q187.39 15.34 187.46 16.58L187.46 16.58L187.46 20.02Q187.39 21.24 186.78 22.20Q186.17 23.16 185.15 23.70Q184.13 24.24 182.81 24.24ZM183.17 22.20L183.17 22.20Q184.78 22.20 185.76 21.11Q186.74 20.02 186.74 18.31L186.74 18.31Q186.74 17.14 186.30 16.26Q185.86 15.38 185.04 14.89Q184.22 14.40 183.14 14.40L183.14 14.40Q182.06 14.40 181.24 14.90Q180.41 15.41 179.94 16.28Q179.47 17.16 179.47 18.29L179.47 18.29Q179.47 19.44 179.94 20.32Q180.41 21.19 181.25 21.70Q182.09 22.20 183.17 22.20ZM188.78 24L186.60 24L186.60 20.93L187.01 18.14L186.60 15.38L186.60 12.60L188.78 12.60L188.78 24ZM194.09 24L191.93 24L191.93 6.86L194.09 6.86L194.09 24Z"/></svg>