<svg xmlns="http://www.w3.org/2000/svg" xmlns:xlink="http://www.w3.org/1999/xlink" width="466.272" height="68.44800000000001"><path fill="black" d="M14.21 32.93L14.21 32.93Q13.87 32.95 13.68 32.75Q13.49 32.54 13.49 32.16L13.49 32.16Q13.49 31.75 13.64 31.57Q13.80 31.39 14.14 31.37L14.14 31.37Q16.22 31.32 18.04 30.78Q19.85 30.24 21.31 29.32Q22.78 28.39 23.80 27.13Q24.82 25.87 25.37 24.32Q25.92 22.78 25.92 21.02L25.92 21.02Q25.92 19.30 25.25 17.94Q24.58 16.58 23.28 15.65Q21.98 14.71 20.11 14.22Q18.24 13.73 15.86 13.73L15.86 13.73Q12.96 13.73 10.57 14.36Q8.18 15.00 6.29 16.26Q4.39 17.52 2.90 19.37L2.90 19.37Q2.71 19.58 2.45 19.60Q2.18 19.61 1.90 19.39L1.90 19.39Q1.58 19.13 1.55 18.85Q1.51 18.58 1.70 18.36L1.70 18.36Q2.83 16.87 4.30 15.72Q5.76 14.57 7.56 13.76Q9.36 12.96 11.46 12.53Q13.56 12.10 15.91 12.10L15.91 12.10Q18.74 12.10 20.94 12.70Q23.14 13.30 24.65 14.44Q26.16 15.58 26.94 17.22Q27.72 18.86 27.72 20.98L27.72 20.98Q27.72 23.02 27.10 24.78Q26.47 26.54 25.30 28.01Q24.12 29.47 22.45 30.53Q20.78 31.58 18.72 32.22Q16.66 32.86 14.21 32.93ZM6.58 46.70L6.58 46.70Q5.42 46.70 4.42 46.30Q3.41 45.89 2.64 45.17Q1.87 44.45 1.34 43.51L1.34 43.51Q1.15 43.18 1.20 42.91Q1.25 42.65 1.56 42.43L1.56 42.43Q1.90 42.22 2.14 42.25Q2.38 42.29 2.62 42.62L2.62 42.62Q3.17 43.39 3.77 43.94Q4.37 44.50 5.08 44.78Q5.78 45.07 6.65 45.07L6.65 45.07Q8.16 45.07 8.92 43.90Q9.67 42.72 9.67 40.37L9.67 40.37L9.67 17.59Q9.67 17.28 9.88 17.15Q10.08 17.02 10.54 17.02L10.54 17.02Q10.97 17.02 11.17 17.15Q11.38 17.28 11.38 17.57L11.38 17.57L11.38 40.56Q11.38 42.50 10.82 43.87Q10.27 45.24 9.20 45.97Q8.14 46.70 6.58 46.70ZM27.94 46.66L27.94 46.66Q27.55 46.66 27.38 46.43Q27.22 46.20 27.22 45.91Q27.22 45.62 27.38 45.40Q27.55 45.17 27.94 45.17L27.94 45.17Q28.75 45.17 29.54 44.68Q30.34 44.18 31.08 43.27Q31.82 42.36 32.50 41.05Q33.17 39.74 33.77 38.12Q34.37 36.50 34.90 34.61Q35.42 32.71 35.83 30.61Q36.24 28.51 36.53 26.26Q36.82 24.00 36.97 21.61Q37.13 19.22 37.13 16.85L37.13 16.85Q37.13 16.46 37.38 16.28Q37.63 16.10 37.97 16.10Q38.30 16.10 38.56 16.28Q38.81 16.46 38.81 16.85L38.81 16.85Q38.81 19.39 38.64 21.86Q38.47 24.34 38.12 26.72Q37.78 29.11 37.30 31.32Q36.82 33.53 36.22 35.52Q35.62 37.51 34.88 39.23Q34.15 40.94 33.35 42.31Q32.54 43.68 31.67 44.65Q30.79 45.62 29.84 46.14Q28.90 46.66 27.94 46.66ZM34.63 46.66L34.63 46.66Q34.08 46.66 33.66 46.50Q33.24 46.34 32.98 46.03Q32.71 45.72 32.58 45.26Q32.45 44.81 32.45 44.23L32.45 44.23L32.45 16.92Q32.45 14.50 33.29 13.25Q34.13 12 35.74 12L35.74 12Q36.77 12 37.45 12.55Q38.14 13.10 38.47 14.17Q38.81 15.24 38.81 16.85L38.81 16.85Q38.81 17.23 38.56 17.41Q38.30 17.59 37.97 17.59Q37.63 17.59 37.38 17.41Q37.13 17.23 37.13 16.85L37.13 16.85Q37.13 15.72 36.97 15.00Q36.82 14.28 36.49 13.92Q36.17 13.56 35.69 13.56L35.69 13.56Q35.14 13.56 34.79 13.92Q34.44 14.28 34.28 15.01Q34.13 15.74 34.13 16.92L34.13 16.92L34.13 43.97Q34.13 44.38 34.22 44.64Q34.32 44.90 34.51 45.04Q34.70 45.17 34.99 45.17L34.99 45.17Q35.23 45.17 35.44 45.10Q35.64 45.02 35.84 44.88Q36.05 44.74 36.26 44.54L36.26 44.54Q36.43 44.38 36.64 44.45Q36.84 44.52 36.98 44.69L36.98 44.69Q37.15 44.88 37.18 45.08Q37.20 45.29 37.08 45.48L37.08 45.48Q36.82 45.84 36.42 46.10Q36.02 46.37 35.57 46.51Q35.11 46.66 34.63 46.66ZM45.05 46.66L45.05 46.66Q43.68 46.66 42.62 45.97Q41.57 45.29 40.97 43.93Q40.37 42.58 40.37 40.58L40.37 40.58Q40.37 39.36 40.60 38.32Q40.82 37.27 41.28 36.43Q41.74 35.59 42.40 35.00Q43.06 34.42 43.91 34.10Q44.76 33.79 45.82 33.79L45.82 33.79Q46.61 33.79 47.40 34.04Q48.19 34.30 48.96 34.73L48.96 34.73L48.96 34.46Q48.96 34.18 49.18 34.03Q49.39 33.89 49.80 33.89L49.80 33.89Q50.23 33.89 50.44 34.02Q50.64 34.15 50.64 34.44L50.64 34.44L50.64 44.02Q50.64 44.40 50.75 44.66Q50.86 44.93 51.06 45.06Q51.26 45.19 51.53 45.19L51.53 45.19Q51.79 45.19 51.98 45.12Q52.18 45.05 52.37 44.89Q52.56 44.74 52.78 44.52L52.78 44.52Q52.94 44.38 53.12 44.42Q53.30 44.47 53.50 44.64L53.50 44.64Q53.66 44.83 53.70 45.05Q53.74 45.26 53.62 45.43L53.62 45.43Q53.35 45.82 52.96 46.09Q52.56 46.37 52.10 46.51Q51.65 46.66 51.19 46.66L51.19 46.66Q50.69 46.66 50.29 46.52Q49.90 46.39 49.62 46.14Q49.34 45.89 49.19 45.50Q49.03 45.12 48.98 44.64L48.98 44.64Q48.98 44.57 48.97 44.46Q48.96 44.35 48.96 44.26L48.96 44.26Q48.41 45.22 47.74 45.74Q47.06 46.27 46.37 46.46Q45.67 46.66 45.05 46.66ZM42.10 40.49L42.10 40.49Q42.10 41.88 42.44 42.92Q42.79 43.97 43.51 44.53Q44.23 45.10 45.29 45.10L45.29 45.10Q46.01 45.10 46.69 44.81Q47.38 44.52 47.96 43.86Q48.55 43.20 48.96 42.10L48.96 42.10L48.96 36.19Q48.17 35.69 47.44 35.51Q46.70 35.33 45.91 35.33L45.91 35.33Q45.22 35.33 44.63 35.54Q44.04 35.76 43.57 36.17Q43.10 36.58 42.77 37.20Q42.43 37.82 42.26 38.64Q42.10 39.46 42.10 40.49ZM65.59 49.97L65.16 48.46Q65.52 48.10 65.89 47.71Q66.26 47.33 66.67 46.98Q67.08 46.63 67.44 46.32Q67.80 46.01 68.14 45.77L68.14 45.77Q68.40 45.58 68.64 45.65Q68.88 45.72 69.04 45.96Q69.19 46.20 69.17 46.48Q69.14 46.75 68.86 46.94L68.86 46.94Q68.57 47.21 68.16 47.56Q67.75 47.90 67.31 48.32Q66.86 48.74 66.42 49.16Q65.98 49.58 65.59 49.97L65.59 49.97ZM61.90 68.50L61.90 68.50Q60.77 68.50 59.94 67.96Q59.11 67.42 58.67 66.37Q58.22 65.33 58.22 63.79L58.22 63.79Q58.22 62.14 58.51 60.44Q58.80 58.75 59.36 57.08Q59.93 55.42 60.79 53.81Q61.66 52.20 62.83 50.74L62.83 50.74Q63.17 50.33 63.55 49.91Q63.94 49.49 64.32 49.08L64.32 49.08L64.32 44.16Q63.98 44.83 63.53 45.31Q63.07 45.79 62.53 46.09Q61.99 46.39 61.38 46.54Q60.77 46.68 60.14 46.68L60.14 46.68Q58.87 46.68 57.96 46.20Q57.05 45.72 56.57 44.74Q56.09 43.75 56.09 42.26L56.09 42.26L56.09 34.44Q56.09 34.15 56.29 34.02Q56.50 33.89 56.90 33.89L56.90 33.89Q57.34 33.89 57.55 34.02Q57.77 34.15 57.77 34.44L57.77 34.44L57.77 42.19Q57.77 43.15 58.04 43.82Q58.32 44.50 58.91 44.83Q59.50 45.17 60.36 45.17L60.36 45.17Q61.06 45.17 61.67 44.95Q62.28 44.74 62.80 44.33Q63.31 43.92 63.70 43.30Q64.08 42.67 64.32 41.88L64.32 41.88L64.32 34.42Q64.32 34.15 64.52 34.02Q64.73 33.89 65.16 33.89L65.16 33.89Q65.57 33.89 65.78 34.02Q66 34.15 66 34.42L66 34.42L66 62.66Q66 64.10 65.72 65.18Q65.45 66.26 64.93 67.01Q64.42 67.75 63.65 68.12Q62.88 68.50 61.90 68.50ZM62.02 67.01L62.02 67.01Q62.57 67.01 63 66.73Q63.43 66.46 63.72 65.92Q64.01 65.38 64.16 64.60Q64.32 63.82 64.32 62.76L64.32 62.76L64.32 51.31Q64.10 51.55 63.88 51.78Q63.65 52.01 63.41 52.27L63.41 52.27Q62.57 53.42 61.94 54.78Q61.32 56.14 60.88 57.64Q60.43 59.14 60.20 60.68Q59.98 62.23 59.98 63.77L59.98 63.77Q59.98 64.78 60.23 65.50Q60.48 66.22 60.92 66.61Q61.37 67.01 62.02 67.01ZM75.70 46.68L75.70 46.68Q74.83 46.68 74.16 46.38Q73.49 46.08 73.02 45.50Q72.55 44.93 72.30 44.06Q72.05 43.20 72.05 42.05L72.05 42.05L72.05 37.34Q72.05 36.22 71.69 35.78Q71.33 35.35 70.68 35.35L70.68 35.35Q70.22 35.35 69.89 35.60Q69.55 35.86 69.37 36.37Q69.19 36.89 69.12 37.66L69.12 37.66Q69.10 37.94 68.94 38.09Q68.78 38.23 68.40 38.23L68.40 38.23Q68.09 38.23 67.90 38.09Q67.70 37.94 67.73 37.49L67.73 37.49Q67.78 36.36 68.15 35.56Q68.52 34.75 69.17 34.32Q69.82 33.89 70.70 33.89L70.70 33.89Q71.45 33.89 72.02 34.12Q72.60 34.34 72.97 34.80Q73.34 35.26 73.54 35.96Q73.73 36.67 73.73 37.61L73.73 37.61L73.73 42Q73.73 43.03 73.96 43.74Q74.18 44.45 74.69 44.82Q75.19 45.19 76.01 45.19L76.01 45.19Q76.56 45.19 77.12 44.99Q77.69 44.78 78.17 44.30Q78.65 43.82 78.95 43.02Q79.25 42.22 79.25 41.02L79.25 41.02L79.25 34.42Q79.25 34.18 79.45 34.03Q79.66 33.89 80.09 33.89L80.09 33.89Q80.52 33.89 80.71 34.03Q80.90 34.18 80.90 34.42L80.90 34.42L80.90 41.28Q80.90 42.36 81.02 43.10Q81.14 43.85 81.41 44.30Q81.67 44.76 82.12 44.95Q82.56 45.14 83.21 45.14L83.21 45.14Q83.76 45.14 84.28 44.96Q84.79 44.78 85.25 44.41Q85.70 44.04 86.05 43.45Q86.40 42.86 86.59 42.10Q86.78 41.33 86.78 40.32L86.78 40.32Q86.78 39.36 86.65 38.47Q86.52 37.58 86.21 36.70Q85.90 35.81 85.34 34.90L85.34 34.90Q85.13 34.56 85.21 34.31Q85.30 34.06 85.56 33.92Q85.82 33.79 86.09 33.79L86.09 33.79Q86.38 33.79 86.53 33.91Q86.69 34.03 86.88 34.32L86.88 34.32Q87.24 34.87 87.61 35.75Q87.98 36.62 88.24 37.74Q88.49 38.86 88.49 40.13L88.49 40.13Q88.49 41.14 88.26 42.11Q88.03 43.08 87.60 43.91Q87.17 44.74 86.50 45.36Q85.82 45.98 84.96 46.34Q84.10 46.70 82.99 46.70L82.99 46.70Q82.20 46.70 81.53 46.43Q80.86 46.15 80.38 45.59Q79.90 45.02 79.61 44.18L79.61 44.18Q79.22 45 78.62 45.55Q78.02 46.10 77.28 46.39Q76.54 46.68 75.70 46.68ZM89.04 46.66L89.04 46.66Q88.66 46.66 88.46 46.43Q88.27 46.20 88.27 45.91Q88.27 45.62 88.44 45.40Q88.61 45.17 88.99 45.17L88.99 45.17Q89.78 45.17 90.43 44.63Q91.08 44.09 91.61 42.94Q92.14 41.78 92.51 39.94Q92.88 38.09 93.07 35.50L93.07 35.50L94.27 35.86Q94.13 38.78 93.70 40.84Q93.26 42.89 92.59 44.17Q91.92 45.46 91.03 46.06Q90.14 46.66 89.04 46.66ZM101.42 46.66L101.42 46.66Q100.87 46.66 100.45 46.50Q100.03 46.34 99.76 46.03Q99.48 45.72 99.34 45.24Q99.19 44.76 99.19 44.16L99.19 44.16Q99.19 43.44 99.25 42.55Q99.31 41.66 99.37 40.74Q99.43 39.82 99.49 38.95Q99.55 38.09 99.55 37.44L99.55 37.44Q99.55 36.41 99.26 36.04Q98.98 35.66 98.28 35.66L98.28 35.66Q97.63 35.66 96.82 35.89Q96 36.12 95.21 36.35Q94.42 36.58 93.84 36.58L93.84 36.58Q93.43 36.58 93.06 36.14Q92.69 35.71 92.45 35.10Q92.21 34.49 92.21 33.91L92.21 33.91Q92.21 33.55 92.33 33.26Q92.45 32.98 92.68 32.82Q92.90 32.66 93.26 32.66L93.26 32.66Q93.91 32.66 94.15 33.16Q94.39 33.65 94.39 34.34L94.39 34.34Q94.39 34.54 94.39 34.70Q94.39 34.87 94.37 35.06L94.37 35.06Q94.78 35.09 95.45 34.84Q96.12 34.58 96.94 34.31Q97.75 34.03 98.62 34.03L98.62 34.03Q99.50 34.03 100.09 34.38Q100.68 34.73 100.96 35.45Q101.23 36.17 101.23 37.32L101.23 37.32Q101.23 37.97 101.17 38.83Q101.11 39.70 101.05 40.62Q100.99 41.54 100.93 42.40Q100.87 43.25 100.87 43.85L100.87 43.85Q100.87 44.57 101.08 44.87Q101.28 45.17 101.74 45.17L101.74 45.17Q101.98 45.17 102.19 45.10Q102.41 45.02 102.62 44.88Q102.84 44.74 103.03 44.54L103.03 44.54Q103.20 44.40 103.40 44.46Q103.61 44.52 103.78 44.69L103.78 44.69Q103.94 44.88 103.96 45.08Q103.97 45.29 103.85 45.48L103.85 45.48Q103.58 45.84 103.20 46.10Q102.82 46.37 102.36 46.51Q101.90 46.66 101.42 46.66ZM108.60 46.66L108.60 46.66Q107.50 46.66 106.94 46.03Q106.39 45.41 106.39 44.23L106.39 44.23L106.39 34.42Q106.39 34.15 106.60 34.02Q106.80 33.89 107.21 33.89L107.21 33.89Q107.64 33.89 107.86 34.02Q108.07 34.15 108.07 34.42L108.07 34.42L108.07 43.97Q108.07 44.57 108.30 44.87Q108.53 45.17 108.96 45.17L108.96 45.17Q109.22 45.17 109.43 45.10Q109.63 45.02 109.82 44.88Q110.02 44.74 110.23 44.52L110.23 44.52Q110.38 44.40 110.59 44.46Q110.81 44.52 110.93 44.69L110.93 44.69Q111.10 44.86 111.13 45.06Q111.17 45.26 111.02 45.43L111.02 45.43Q110.76 45.82 110.38 46.09Q109.99 46.37 109.52 46.51Q109.06 46.66 108.60 46.66ZM107.23 30.02L107.23 30.02Q106.63 30.02 106.33 29.69Q106.03 29.35 106.03 28.68L106.03 28.68Q106.03 28.01 106.33 27.67Q106.63 27.34 107.23 27.34L107.23 27.34Q107.83 27.34 108.13 27.67Q108.43 28.01 108.43 28.68L108.43 28.68Q108.43 29.35 108.13 29.69Q107.83 30.02 107.23 30.02ZM117.02 46.66L117.02 46.66Q116.11 46.66 115.50 46.30Q114.89 45.94 114.59 45.26Q114.29 44.59 114.29 43.63L114.29 43.63L114.29 35.78L112.25 35.78Q111.94 35.78 111.82 35.60Q111.70 35.42 111.70 35.02L111.70 35.02Q111.70 34.58 111.82 34.42Q111.94 34.25 112.25 34.25L112.25 34.25L114.29 34.25L114.29 29.26Q114.29 28.99 114.48 28.86Q114.67 28.73 115.08 28.73L115.08 28.73Q115.51 28.73 115.73 28.86Q115.94 28.99 115.94 29.26L115.94 29.26L115.94 34.25L119.16 34.25Q119.45 34.25 119.58 34.42Q119.71 34.58 119.71 35.02L119.71 35.02Q119.71 35.42 119.58 35.60Q119.45 35.78 119.16 35.78L119.16 35.78L115.94 35.78L115.94 43.37Q115.94 44.28 116.20 44.72Q116.45 45.17 117.17 45.17L117.17 45.17Q117.74 45.17 118.16 44.88Q118.58 44.59 118.99 44.14L118.99 44.14Q119.23 43.92 119.45 43.97Q119.66 44.02 119.86 44.21L119.86 44.21Q120.07 44.40 120.10 44.62Q120.12 44.83 120 45.02L120 45.02Q119.64 45.58 119.16 45.94Q118.68 46.30 118.14 46.48Q117.60 46.66 117.02 46.66ZM127.80 46.66L127.80 46.66Q126.84 46.66 125.95 46.25Q125.06 45.84 124.31 45.10Q123.55 44.35 122.99 43.33Q122.42 42.31 122.11 41.10Q121.80 39.89 121.80 38.54L121.80 38.54Q121.80 37.73 121.99 37.00Q122.18 36.26 122.53 35.68Q122.88 35.09 123.37 34.67Q123.86 34.25 124.46 34.02Q125.06 33.79 125.76 33.79L125.76 33.79Q127.08 33.79 127.90 34.34Q128.71 34.90 129.10 35.78Q129.48 36.67 129.48 37.70L129.48 37.70Q129.48 38.52 129.18 39.37Q128.88 40.22 128.36 41.05Q127.85 41.88 127.18 42.65L127.18 42.65Q126.14 43.80 124.84 44.71Q123.53 45.62 122.05 46.14Q120.58 46.66 119.06 46.66L119.06 46.66Q118.78 46.66 118.63 46.43Q118.49 46.20 118.51 45.91Q118.54 45.62 118.74 45.40Q118.94 45.17 119.38 45.17L119.38 45.17Q120.55 45.17 121.78 44.72Q123 44.28 124.10 43.51Q125.21 42.74 126 41.83L126 41.83Q126.55 41.18 126.94 40.51Q127.32 39.84 127.52 39.17Q127.73 38.50 127.73 37.85L127.73 37.85Q127.73 36.50 127.19 35.92Q126.65 35.33 125.69 35.33L125.69 35.33Q125.21 35.33 124.81 35.54Q124.42 35.76 124.13 36.18Q123.84 36.60 123.67 37.19Q123.50 37.78 123.50 38.52L123.50 38.52Q123.50 40.01 123.92 41.22Q124.34 42.43 125.03 43.30Q125.71 44.16 126.50 44.64Q127.30 45.12 127.99 45.12L127.99 45.12Q128.59 45.12 129.08 44.88Q129.58 44.64 130.02 44.26Q130.46 43.87 130.87 43.42L130.87 43.42Q131.14 43.13 131.39 43.14Q131.64 43.15 131.90 43.34L131.90 43.34Q132.17 43.56 132.24 43.80Q132.31 44.04 132.12 44.30L132.12 44.30Q131.64 45.05 130.92 45.58Q130.20 46.10 129.40 46.38Q128.59 46.66 127.80 46.66ZM144.98 46.70L144.98 46.70Q143.81 46.70 142.81 46.30Q141.82 45.89 141.05 45.17Q140.28 44.45 139.75 43.51L139.75 43.51Q139.56 43.18 139.60 42.91Q139.63 42.65 139.94 42.43L139.94 42.43Q140.28 42.22 140.53 42.25Q140.78 42.29 141.00 42.62L141.00 42.62Q141.55 43.39 142.16 43.94Q142.78 44.50 143.48 44.78Q144.19 45.07 145.03 45.07L145.03 45.07Q146.57 45.07 147.32 43.90Q148.08 42.72 148.08 40.37L148.08 40.37L148.08 14.26L147.77 14.26Q146.30 14.26 145.14 14.63Q143.98 15.00 142.97 15.84Q141.96 16.68 140.86 18.07L140.86 18.07Q140.64 18.34 140.39 18.36Q140.14 18.38 139.82 18.14L139.82 18.14Q139.51 17.90 139.49 17.64Q139.46 17.38 139.68 17.09L139.68 17.09Q140.40 16.03 141.25 15.24Q142.10 14.45 143.12 13.87Q144.14 13.30 145.34 13.00Q146.54 12.70 147.98 12.70L147.98 12.70L163.18 12.70Q163.46 12.70 163.60 12.88Q163.73 13.06 163.73 13.49L163.73 13.49Q163.73 13.90 163.60 14.08Q163.46 14.26 163.18 14.26L163.18 14.26L149.76 14.26L149.76 28.70L160.99 28.70Q161.28 28.70 161.40 28.87Q161.52 29.04 161.52 29.47L161.52 29.47Q161.52 29.90 161.40 30.08Q161.28 30.26 160.99 30.26L160.99 30.26L149.76 30.26L149.76 40.56Q149.76 42.50 149.22 43.87Q148.68 45.24 147.61 45.97Q146.54 46.70 144.98 46.70ZM192.72 46.70L192.72 46.70Q191.90 46.70 191.17 46.43Q190.44 46.15 189.74 45.56Q189.05 44.98 188.29 44.03Q187.54 43.08 186.65 41.72Q185.76 40.37 184.68 38.57L184.68 38.57Q184.27 37.90 183.91 37.28Q183.55 36.67 183.22 36.08Q182.88 35.50 182.57 34.94Q182.26 34.39 181.93 33.83Q181.61 33.26 181.30 32.69Q180.98 32.11 180.62 31.46L180.62 31.46Q179.50 31.51 178.70 31.07Q177.91 30.62 177.91 29.86L177.91 29.86Q177.91 29.23 178.33 28.92Q178.75 28.61 179.40 28.61L179.40 28.61Q180.00 28.61 180.58 28.87Q181.15 29.14 181.54 29.69L181.54 29.69Q183.38 29.33 184.88 28.49Q186.38 27.65 187.49 26.41Q188.59 25.18 189.19 23.64Q189.79 22.10 189.79 20.40L189.79 20.40Q189.79 18.84 189.17 17.60Q188.54 16.37 187.33 15.50Q186.12 14.64 184.37 14.18Q182.62 13.73 180.38 13.73L180.38 13.73Q177.46 13.73 175.08 14.36Q172.70 15.00 170.81 16.26Q168.91 17.52 167.42 19.37L167.42 19.37Q167.23 19.58 166.97 19.60Q166.70 19.61 166.42 19.39L166.42 19.39Q166.10 19.13 166.07 18.85Q166.03 18.58 166.22 18.36L166.22 18.36Q167.35 16.87 168.82 15.72Q170.28 14.57 172.08 13.76Q173.88 12.96 175.96 12.53Q178.03 12.10 180.43 12.10L180.43 12.10Q183.10 12.10 185.17 12.65Q187.25 13.20 188.69 14.27Q190.13 15.34 190.88 16.85Q191.64 18.36 191.64 20.33L191.64 20.33Q191.64 21.84 191.20 23.26Q190.75 24.67 189.94 25.91Q189.12 27.14 187.97 28.15Q186.82 29.16 185.40 29.90Q183.98 30.65 182.33 31.06L182.33 31.06Q182.57 31.49 182.82 31.94Q183.07 32.40 183.35 32.90Q183.62 33.41 183.94 33.92Q184.25 34.44 184.57 35.00Q184.90 35.57 185.24 36.17Q185.59 36.77 185.98 37.44L185.98 37.44Q187.08 39.36 187.94 40.68Q188.81 42 189.48 42.86Q190.15 43.73 190.72 44.20Q191.28 44.66 191.80 44.87Q192.31 45.07 192.82 45.07L192.82 45.07Q193.75 45.07 194.47 44.56Q195.19 44.04 195.91 43.03L195.91 43.03Q196.10 42.74 196.37 42.70Q196.63 42.65 196.97 42.91L196.97 42.91Q197.23 43.13 197.26 43.39Q197.28 43.66 197.14 43.87L197.14 43.87Q196.58 44.76 195.86 45.40Q195.14 46.03 194.35 46.37Q193.56 46.70 192.72 46.70ZM171.10 46.70L171.10 46.70Q169.94 46.70 168.94 46.30Q167.93 45.89 167.16 45.17Q166.39 44.45 165.86 43.51L165.86 43.51Q165.67 43.18 165.72 42.91Q165.77 42.65 166.08 42.43L166.08 42.43Q166.42 42.22 166.66 42.25Q166.90 42.29 167.14 42.62L167.14 42.62Q167.69 43.39 168.29 43.94Q168.89 44.50 169.60 44.78Q170.30 45.07 171.17 45.07L171.17 45.07Q172.68 45.07 173.44 43.90Q174.19 42.72 174.19 40.37L174.19 40.37L174.19 17.81Q174.19 17.52 174.40 17.39Q174.60 17.26 175.06 17.26L175.06 17.26Q175.49 17.26 175.69 17.39Q175.90 17.52 175.90 17.81L175.90 17.81L175.90 40.56Q175.90 42.50 175.34 43.87Q174.79 45.24 173.72 45.97Q172.66 46.70 171.10 46.70ZM223.32 46.66L223.32 46.66Q220.37 46.66 218.21 45.31Q216.05 43.97 214.87 41.42Q213.70 38.88 213.70 35.35L213.70 35.35Q213.70 34.51 213.79 33.72Q213.89 32.93 214.03 32.21L214.03 32.21L209.74 32.21Q209.47 32.21 209.35 32.00Q209.23 31.80 209.23 31.42L209.23 31.42Q209.23 31.03 209.35 30.84Q209.47 30.65 209.74 30.65L209.74 30.65L214.49 30.65Q215.18 28.63 216.38 26.98Q217.58 25.32 219.14 23.86Q220.70 22.39 222.48 21.07Q224.26 19.75 226.13 18.47Q228.00 17.18 229.78 15.82L229.78 15.82Q228.86 16.18 227.84 16.38Q226.82 16.58 225.74 16.58L225.74 16.58Q224.30 16.58 223.02 16.28Q221.74 15.98 220.57 15.56Q219.41 15.14 218.28 14.72Q217.15 14.30 216.04 14.03Q214.92 13.75 213.74 13.75L213.74 13.75Q212.11 13.75 210.95 14.45Q209.78 15.14 209.15 16.43Q208.51 17.71 208.51 19.49L208.51 19.49Q208.51 19.82 208.32 20.00Q208.13 20.18 207.72 20.18L207.72 20.18Q207.31 20.18 207.10 20.00Q206.88 19.82 206.88 19.49L206.88 19.49Q206.88 17.23 207.71 15.56Q208.54 13.90 210.07 13.00Q211.61 12.10 213.77 12.10L213.77 12.10Q215.14 12.10 216.32 12.38Q217.51 12.67 218.64 13.08Q219.77 13.49 220.93 13.92Q222.10 14.35 223.37 14.65Q224.64 14.95 226.15 14.95L226.15 14.95Q227.64 14.95 228.96 14.69Q230.28 14.42 231.40 13.96Q232.51 13.49 233.28 12.84L233.28 12.84Q233.54 12.60 233.78 12.62Q234.02 12.65 234.29 12.94L234.29 12.94Q234.58 13.27 234.58 13.55Q234.58 13.82 234.34 14.04L234.34 14.04Q232.66 15.58 230.87 16.93Q229.08 18.29 227.29 19.56Q225.50 20.83 223.84 22.06Q222.17 23.28 220.74 24.61Q219.31 25.94 218.18 27.42Q217.06 28.90 216.41 30.65L216.41 30.65L223.97 30.65Q224.23 30.65 224.34 30.84Q224.45 31.03 224.45 31.42L224.45 31.42Q224.45 31.80 224.34 32.00Q224.23 32.21 223.97 32.21L223.97 32.21L215.88 32.21Q215.71 32.93 215.63 33.72Q215.54 34.51 215.54 35.35L215.54 35.35Q215.54 38.38 216.50 40.54Q217.46 42.70 219.23 43.85Q220.99 45 223.42 45L223.42 45Q225.46 45 227.23 44.32Q229.01 43.63 230.48 42.34Q231.96 41.04 233.09 39.29L233.09 39.29Q233.30 38.95 233.57 38.89Q233.83 38.83 234.14 39L234.14 39Q234.50 39.22 234.58 39.48Q234.65 39.74 234.43 40.08L234.43 40.08Q233.11 42.17 231.43 43.63Q229.75 45.10 227.72 45.88Q225.70 46.66 223.32 46.66ZM235.80 46.66L235.80 46.66Q235.42 46.66 235.22 46.43Q235.03 46.20 235.03 45.91Q235.03 45.62 235.20 45.40Q235.37 45.17 235.75 45.17L235.75 45.17Q236.54 45.17 237.19 44.63Q237.84 44.09 238.37 42.94Q238.90 41.78 239.27 39.94Q239.64 38.09 239.83 35.50L239.83 35.50L241.03 35.86Q240.89 38.78 240.46 40.84Q240.02 42.89 239.35 44.17Q238.68 45.46 237.79 46.06Q236.90 46.66 235.80 46.66ZM248.18 46.66L248.18 46.66Q247.63 46.66 247.21 46.50Q246.79 46.34 246.52 46.03Q246.24 45.72 246.10 45.24Q245.95 44.76 245.95 44.16L245.95 44.16Q245.95 43.44 246.01 42.55Q246.07 41.66 246.13 40.74Q246.19 39.82 246.25 38.95Q246.31 38.09 246.31 37.44L246.31 37.44Q246.31 36.41 246.02 36.04Q245.74 35.66 245.04 35.66L245.04 35.66Q244.39 35.66 243.58 35.89Q242.76 36.12 241.97 36.35Q241.18 36.58 240.60 36.58L240.60 36.58Q240.19 36.58 239.82 36.14Q239.45 35.71 239.21 35.10Q238.97 34.49 238.97 33.91L238.97 33.91Q238.97 33.55 239.09 33.26Q239.21 32.98 239.44 32.82Q239.66 32.66 240.02 32.66L240.02 32.66Q240.67 32.66 240.91 33.16Q241.15 33.65 241.15 34.34L241.15 34.34Q241.15 34.54 241.15 34.70Q241.15 34.87 241.13 35.06L241.13 35.06Q241.54 35.09 242.21 34.84Q242.88 34.58 243.70 34.31Q244.51 34.03 245.38 34.03L245.38 34.03Q246.26 34.03 246.85 34.38Q247.44 34.73 247.72 35.45Q247.99 36.17 247.99 37.32L247.99 37.32Q247.99 37.97 247.93 38.83Q247.87 39.70 247.81 40.62Q247.75 41.54 247.69 42.40Q247.63 43.25 247.63 43.85L247.63 43.85Q247.63 44.57 247.84 44.87Q248.04 45.17 248.50 45.17L248.50 45.17Q248.74 45.17 248.95 45.10Q249.17 45.02 249.38 44.88Q249.60 44.74 249.79 44.54L249.79 44.54Q249.96 44.40 250.16 44.46Q250.37 44.52 250.54 44.69L250.54 44.69Q250.70 44.88 250.72 45.08Q250.73 45.29 250.61 45.48L250.61 45.48Q250.34 45.84 249.96 46.10Q249.58 46.37 249.12 46.51Q248.66 46.66 248.18 46.66ZM257.04 46.66L257.04 46.66Q255.67 46.66 254.62 45.97Q253.56 45.29 252.96 43.93Q252.36 42.58 252.36 40.58L252.36 40.58Q252.36 39.36 252.59 38.32Q252.82 37.27 253.27 36.43Q253.73 35.59 254.39 35.00Q255.05 34.42 255.90 34.10Q256.75 33.79 257.81 33.79L257.81 33.79Q258.60 33.79 259.39 34.04Q260.18 34.30 260.95 34.73L260.95 34.73L260.95 34.46Q260.95 34.18 261.17 34.03Q261.38 33.89 261.79 33.89L261.79 33.89Q262.22 33.89 262.43 34.02Q262.63 34.15 262.63 34.44L262.63 34.44L262.63 44.02Q262.63 44.40 262.74 44.66Q262.85 44.93 263.05 45.06Q263.26 45.19 263.52 45.19L263.52 45.19Q263.78 45.19 263.98 45.12Q264.17 45.05 264.36 44.89Q264.55 44.74 264.77 44.52L264.77 44.52Q264.94 44.38 265.12 44.42Q265.30 44.47 265.49 44.64L265.49 44.64Q265.66 44.83 265.69 45.05Q265.73 45.26 265.61 45.43L265.61 45.43Q265.34 45.82 264.95 46.09Q264.55 46.37 264.10 46.51Q263.64 46.66 263.18 46.66L263.18 46.66Q262.68 46.66 262.28 46.52Q261.89 46.39 261.61 46.14Q261.34 45.89 261.18 45.50Q261.02 45.12 260.98 44.64L260.98 44.64Q260.98 44.57 260.96 44.46Q260.95 44.35 260.95 44.26L260.95 44.26Q260.40 45.22 259.73 45.74Q259.06 46.27 258.36 46.46Q257.66 46.66 257.04 46.66ZM254.09 40.49L254.09 40.49Q254.09 41.88 254.44 42.92Q254.78 43.97 255.50 44.53Q256.22 45.10 257.28 45.10L257.28 45.10Q258 45.10 258.68 44.81Q259.37 44.52 259.96 43.86Q260.54 43.20 260.95 42.10L260.95 42.10L260.95 36.19Q260.16 35.69 259.43 35.51Q258.70 35.33 257.90 35.33L257.90 35.33Q257.21 35.33 256.62 35.54Q256.03 35.76 255.56 36.17Q255.10 36.58 254.76 37.20Q254.42 37.82 254.26 38.64Q254.09 39.46 254.09 40.49ZM271.97 46.66L271.97 46.66Q270.60 46.66 269.54 45.97Q268.49 45.29 267.89 43.93Q267.29 42.58 267.29 40.58L267.29 40.58Q267.29 39.36 267.53 38.32Q267.77 37.27 268.21 36.43Q268.66 35.59 269.33 35.00Q270 34.42 270.86 34.10Q271.73 33.79 272.78 33.79L272.78 33.79Q273.55 33.79 274.36 34.02Q275.16 34.25 275.90 34.68L275.90 34.68L275.90 12.62Q275.90 12.36 276.12 12.23Q276.34 12.10 276.74 12.10L276.74 12.10Q277.18 12.10 277.38 12.23Q277.58 12.36 277.58 12.62L277.58 12.62L277.58 44.02Q277.58 44.62 277.81 44.90Q278.04 45.19 278.47 45.19L278.47 45.19Q278.71 45.19 278.92 45.11Q279.12 45.02 279.32 44.88Q279.53 44.74 279.74 44.52L279.74 44.52Q279.91 44.38 280.10 44.45Q280.30 44.52 280.44 44.69L280.44 44.69Q280.61 44.86 280.64 45.06Q280.68 45.26 280.56 45.43L280.56 45.43Q280.30 45.82 279.90 46.09Q279.50 46.37 279.05 46.51Q278.59 46.66 278.14 46.66L278.14 46.66Q277.32 46.66 276.84 46.34Q276.36 46.03 276.14 45.54Q275.93 45.05 275.93 44.47L275.93 44.47Q275.93 44.40 275.93 44.34Q275.93 44.28 275.93 44.23L275.93 44.23Q275.35 45.22 274.67 45.74Q273.98 46.27 273.29 46.46Q272.59 46.66 271.97 46.66ZM269.02 40.49L269.02 40.49Q269.02 41.88 269.36 42.92Q269.71 43.97 270.43 44.53Q271.15 45.10 272.21 45.10L272.21 45.10Q272.93 45.10 273.61 44.81Q274.30 44.52 274.90 43.86Q275.50 43.20 275.90 42.10L275.90 42.10L275.90 36.26Q275.11 35.74 274.37 35.53Q273.62 35.33 272.83 35.33L272.83 35.33Q272.14 35.33 271.55 35.54Q270.96 35.76 270.49 36.17Q270.02 36.58 269.69 37.20Q269.35 37.82 269.18 38.64Q269.02 39.46 269.02 40.49ZM299.98 46.70L299.98 46.70Q298.10 46.70 296.29 46.19Q294.48 45.67 292.85 44.57Q291.22 43.46 289.80 41.71L289.80 41.71Q289.61 41.47 289.56 41.20Q289.51 40.92 289.85 40.61L289.85 40.61Q290.16 40.34 290.42 40.33Q290.69 40.32 290.95 40.66L290.95 40.66Q292.25 42.24 293.68 43.22Q295.10 44.21 296.68 44.66Q298.25 45.12 299.98 45.12L299.98 45.12Q302.02 45.12 303.59 44.58Q305.16 44.04 306.25 43.01Q307.34 41.98 307.92 40.45Q308.50 38.93 308.50 37.01L308.50 37.01Q308.50 34.56 307.37 32.77Q306.24 30.98 304.24 30.00Q302.23 29.02 299.52 29.02L299.52 29.02L297.07 29.02Q296.78 29.02 296.66 28.80Q296.54 28.58 296.54 28.18L296.54 28.18Q296.54 27.77 296.68 27.61Q296.81 27.46 297.07 27.46L297.07 27.46L299.59 27.46Q301.54 27.46 302.95 26.86Q304.37 26.26 305.28 25.24Q306.19 24.22 306.64 22.92Q307.08 21.62 307.08 20.23L307.08 20.23Q307.08 18.50 306.49 17.28Q305.90 16.06 304.87 15.26Q303.84 14.47 302.53 14.10Q301.22 13.73 299.83 13.73L299.83 13.73Q298.20 13.73 296.86 14.06Q295.51 14.40 294.31 15.05Q293.11 15.70 291.91 16.63L291.91 16.63Q291.58 16.90 291.32 16.92Q291.07 16.94 290.78 16.66L290.78 16.66Q290.45 16.34 290.50 16.07Q290.54 15.79 290.74 15.60L290.74 15.60Q291.77 14.62 293.16 13.82Q294.55 13.03 296.24 12.56Q297.94 12.10 299.83 12.10L299.83 12.10Q301.70 12.10 303.35 12.59Q304.99 13.08 306.24 14.08Q307.49 15.07 308.17 16.61Q308.86 18.14 308.86 20.21L308.86 20.21Q308.86 21.48 308.53 22.73Q308.21 23.98 307.51 25.04Q306.82 26.11 305.69 26.92Q304.56 27.72 302.95 28.18L302.95 28.18Q305.50 28.68 307.10 29.93Q308.71 31.18 309.49 33Q310.27 34.82 310.27 37.01L310.27 37.01Q310.27 39.26 309.60 41.06Q308.93 42.86 307.63 44.11Q306.34 45.36 304.42 46.03Q302.50 46.70 299.98 46.70ZM326.81 46.70L326.81 46.70Q323.47 46.70 321.04 44.64Q318.60 42.58 317.29 38.69Q315.98 34.80 315.98 29.38L315.98 29.38Q315.98 26.66 316.32 24.32Q316.66 21.98 317.32 20.06Q317.98 18.14 318.90 16.66Q319.82 15.17 321.04 14.16Q322.25 13.15 323.70 12.62Q325.15 12.10 326.81 12.10L326.81 12.10Q330.14 12.10 332.56 14.16Q334.97 16.22 336.28 20.08Q337.58 23.93 337.58 29.38L337.58 29.38Q337.58 32.09 337.25 34.44Q336.91 36.79 336.28 38.71Q335.64 40.63 334.69 42.12Q333.74 43.61 332.54 44.63Q331.34 45.65 329.92 46.18Q328.49 46.70 326.81 46.70ZM326.81 45.05L326.81 45.05Q328.20 45.05 329.40 44.57Q330.60 44.09 331.60 43.15Q332.59 42.22 333.36 40.87Q334.13 39.53 334.67 37.79Q335.21 36.05 335.48 33.94Q335.76 31.82 335.76 29.38L335.76 29.38Q335.76 24.48 334.68 20.98Q333.60 17.47 331.58 15.61Q329.57 13.75 326.81 13.75L326.81 13.75Q325.42 13.75 324.20 14.23Q322.99 14.71 322.00 15.64Q321 16.56 320.22 17.89Q319.44 19.22 318.91 20.96Q318.38 22.70 318.10 24.80Q317.81 26.90 317.81 29.38L317.81 29.38Q317.81 34.27 318.90 37.79Q319.99 41.30 322.02 43.18Q324.05 45.05 326.81 45.05ZM353.69 46.70L353.69 46.70Q350.35 46.70 347.92 44.64Q345.48 42.58 344.17 38.69Q342.86 34.80 342.86 29.38L342.86 29.38Q342.86 26.66 343.20 24.32Q343.54 21.98 344.20 20.06Q344.86 18.14 345.78 16.66Q346.70 15.17 347.92 14.16Q349.13 13.15 350.58 12.62Q352.03 12.10 353.69 12.10L353.69 12.10Q357.02 12.10 359.44 14.16Q361.85 16.22 363.16 20.08Q364.46 23.93 364.46 29.38L364.46 29.38Q364.46 32.09 364.13 34.44Q363.79 36.79 363.16 38.71Q362.52 40.63 361.57 42.12Q360.62 43.61 359.42 44.63Q358.22 45.65 356.80 46.18Q355.37 46.70 353.69 46.70ZM353.69 45.05L353.69 45.05Q355.08 45.05 356.28 44.57Q357.48 44.09 358.48 43.15Q359.47 42.22 360.24 40.87Q361.01 39.53 361.55 37.79Q362.09 36.05 362.36 33.94Q362.64 31.82 362.64 29.38L362.64 29.38Q362.64 24.48 361.56 20.98Q360.48 17.47 358.46 15.61Q356.45 13.75 353.69 13.75L353.69 13.75Q352.30 13.75 351.08 14.23Q349.87 14.71 348.88 15.64Q347.88 16.56 347.10 17.89Q346.32 19.22 345.79 20.96Q345.26 22.70 344.98 24.80Q344.69 26.90 344.69 29.38L344.69 29.38Q344.69 34.27 345.78 37.79Q346.87 41.30 348.90 43.18Q350.93 45.05 353.69 45.05ZM378.12 46.61L378.12 46.61Q377.71 46.61 377.51 46.48Q377.30 46.34 377.30 46.08L377.30 46.08L377.30 37.34Q377.30 36.22 376.94 35.78Q376.58 35.35 375.94 35.35L375.94 35.35Q375.48 35.35 375.14 35.60Q374.81 35.86 374.63 36.37Q374.45 36.89 374.38 37.66L374.38 37.66Q374.35 37.94 374.20 38.09Q374.04 38.23 373.66 38.23L373.66 38.23Q373.34 38.23 373.15 38.09Q372.96 37.94 372.98 37.49L372.98 37.49Q373.03 36.36 373.40 35.56Q373.78 34.75 374.42 34.32Q375.07 33.89 375.96 33.89L375.96 33.89Q376.58 33.89 377.08 34.04Q377.57 34.20 377.93 34.51Q378.29 34.82 378.52 35.28Q378.74 35.74 378.84 36.31L378.84 36.31L378.89 36.48Q379.22 35.78 379.72 35.28Q380.21 34.78 380.77 34.44Q381.34 34.10 381.96 33.95Q382.58 33.79 383.23 33.79L383.23 33.79Q384.43 33.79 385.36 34.25Q386.28 34.70 386.81 35.68Q387.34 36.65 387.34 38.23L387.34 38.23L387.34 43.97Q387.34 44.38 387.44 44.64Q387.55 44.90 387.76 45.04Q387.96 45.17 388.22 45.17L388.22 45.17Q388.46 45.17 388.67 45.10Q388.87 45.02 389.09 44.88Q389.30 44.74 389.50 44.54L389.50 44.54Q389.66 44.40 389.87 44.46Q390.07 44.52 390.22 44.69L390.22 44.69Q390.38 44.88 390.41 45.08Q390.43 45.29 390.31 45.48L390.31 45.48Q390.05 45.84 389.65 46.10Q389.26 46.37 388.80 46.51Q388.34 46.66 387.89 46.66L387.89 46.66Q387.34 46.66 386.92 46.50Q386.50 46.34 386.22 46.03Q385.94 45.72 385.81 45.26Q385.68 44.81 385.68 44.23L385.68 44.23L385.68 38.42Q385.68 37.46 385.40 36.78Q385.13 36.10 384.55 35.72Q383.98 35.35 382.99 35.35L382.99 35.35Q382.42 35.35 381.83 35.52Q381.24 35.69 380.71 36.06Q380.18 36.43 379.73 37.06Q379.27 37.68 378.98 38.59L378.98 38.59L378.98 46.08Q378.98 46.34 378.77 46.48Q378.55 46.61 378.12 46.61ZM397.49 46.70L397.49 46.70Q395.86 46.70 394.62 45.88Q393.38 45.05 392.70 43.60Q392.02 42.14 392.02 40.25L392.02 40.25Q392.02 38.83 392.42 37.64Q392.83 36.46 393.56 35.60Q394.30 34.75 395.29 34.27Q396.29 33.79 397.49 33.79L397.49 33.79Q399.07 33.79 400.31 34.62Q401.54 35.45 402.24 36.90Q402.94 38.35 402.94 40.25L402.94 40.25Q402.94 41.38 402.68 42.37Q402.43 43.37 401.95 44.16Q401.47 44.95 400.80 45.52Q400.13 46.08 399.29 46.39Q398.45 46.70 397.49 46.70ZM397.49 45.14L397.49 45.14Q398.35 45.14 399.04 44.80Q399.72 44.45 400.21 43.80Q400.70 43.15 400.96 42.25Q401.21 41.35 401.21 40.25L401.21 40.25Q401.21 38.76 400.76 37.66Q400.32 36.55 399.49 35.95Q398.66 35.35 397.49 35.35L397.49 35.35Q396.62 35.35 395.93 35.70Q395.23 36.05 394.74 36.70Q394.25 37.34 394.00 38.23Q393.74 39.12 393.74 40.25L393.74 40.25Q393.74 41.71 394.20 42.82Q394.66 43.92 395.48 44.53Q396.31 45.14 397.49 45.14ZM403.20 46.66L403.20 46.66Q402.82 46.66 402.62 46.43Q402.43 46.20 402.43 45.91Q402.43 45.62 402.60 45.40Q402.77 45.17 403.15 45.17L403.15 45.17Q403.94 45.17 404.59 44.63Q405.24 44.09 405.77 42.94Q406.30 41.78 406.67 39.94Q407.04 38.09 407.23 35.50L407.23 35.50L408.43 35.86Q408.29 38.78 407.86 40.84Q407.42 42.89 406.75 44.17Q406.08 45.46 405.19 46.06Q404.30 46.66 403.20 46.66ZM415.58 46.66L415.58 46.66Q415.03 46.66 414.61 46.50Q414.19 46.34 413.92 46.03Q413.64 45.72 413.50 45.24Q413.35 44.76 413.35 44.16L413.35 44.16Q413.35 43.44 413.41 42.55Q413.47 41.66 413.53 40.74Q413.59 39.82 413.65 38.95Q413.71 38.09 413.71 37.44L413.71 37.44Q413.71 36.41 413.42 36.04Q413.14 35.66 412.44 35.66L412.44 35.66Q411.79 35.66 410.98 35.89Q410.16 36.12 409.37 36.35Q408.58 36.58 408 36.58L408 36.58Q407.59 36.58 407.22 36.14Q406.85 35.71 406.61 35.10Q406.37 34.49 406.37 33.91L406.37 33.91Q406.37 33.55 406.49 33.26Q406.61 32.98 406.84 32.82Q407.06 32.66 407.42 32.66L407.42 32.66Q408.07 32.66 408.31 33.16Q408.55 33.65 408.55 34.34L408.55 34.34Q408.55 34.54 408.55 34.70Q408.55 34.87 408.53 35.06L408.53 35.06Q408.94 35.09 409.61 34.84Q410.28 34.58 411.10 34.31Q411.91 34.03 412.78 34.03L412.78 34.03Q413.66 34.03 414.25 34.38Q414.84 34.73 415.12 35.45Q415.39 36.17 415.39 37.32L415.39 37.32Q415.39 37.97 415.33 38.83Q415.27 39.70 415.21 40.62Q415.15 41.54 415.09 42.40Q415.03 43.25 415.03 43.85L415.03 43.85Q415.03 44.57 415.24 44.87Q415.44 45.17 415.90 45.17L415.90 45.17Q416.14 45.17 416.35 45.10Q416.57 45.02 416.78 44.88Q417 44.74 417.19 44.54L417.19 44.54Q417.36 44.40 417.56 44.46Q417.77 44.52 417.94 44.69L417.94 44.69Q418.10 44.88 418.12 45.08Q418.13 45.29 418.01 45.48L418.01 45.48Q417.74 45.84 417.36 46.10Q416.98 46.37 416.52 46.51Q416.06 46.66 415.58 46.66ZM421.97 46.61L421.97 46.61Q421.56 46.61 421.36 46.48Q421.15 46.34 421.15 46.08L421.15 46.08L421.15 37.34Q421.15 36.22 420.79 35.78Q420.43 35.35 419.78 35.35L419.78 35.35Q419.33 35.35 418.99 35.60Q418.66 35.86 418.48 36.37Q418.30 36.89 418.22 37.66L418.22 37.66Q418.20 37.94 418.04 38.09Q417.89 38.23 417.50 38.23L417.50 38.23Q417.19 38.23 417 38.09Q416.81 37.94 416.83 37.49L416.83 37.49Q416.88 36.36 417.25 35.56Q417.62 34.75 418.27 34.32Q418.92 33.89 419.81 33.89L419.81 33.89Q420.48 33.89 420.97 34.07Q421.46 34.25 421.82 34.56Q422.18 34.87 422.40 35.33Q422.62 35.78 422.69 36.31L422.69 36.31L422.71 36.41Q423.10 35.64 423.59 35.14Q424.08 34.63 424.63 34.33Q425.18 34.03 425.74 33.91Q426.29 33.79 426.77 33.79L426.77 33.79Q427.94 33.79 428.86 34.25Q429.77 34.70 430.31 35.68Q430.85 36.65 430.85 38.23L430.85 38.23L430.85 46.08Q430.85 46.34 430.63 46.48Q430.42 46.61 430.01 46.61L430.01 46.61Q429.58 46.61 429.37 46.48Q429.17 46.34 429.17 46.08L429.17 46.08L429.17 38.42Q429.17 37.44 428.90 36.76Q428.64 36.07 428.08 35.71Q427.51 35.35 426.55 35.35L426.55 35.35Q426.02 35.35 425.51 35.51Q424.99 35.66 424.48 36.04Q423.96 36.41 423.54 37.01Q423.12 37.61 422.83 38.52L422.83 38.52L422.83 46.08Q422.83 46.34 422.62 46.48Q422.40 46.61 421.97 46.61ZM439.34 46.66L439.34 46.66Q438.79 46.66 438.37 46.50Q437.95 46.34 437.69 46.03Q437.42 45.72 437.29 45.26Q437.16 44.81 437.16 44.23L437.16 44.23L437.16 38.42Q437.16 37.46 436.90 36.78Q436.63 36.10 436.07 35.72Q435.50 35.35 434.57 35.35L434.57 35.35Q433.92 35.35 433.28 35.57Q432.65 35.78 432.07 36.28Q431.50 36.77 431.05 37.60Q430.61 38.42 430.34 39.62L430.34 39.62L429.72 39.62Q429.82 38.21 430.25 37.12Q430.68 36.02 431.36 35.28Q432.05 34.54 432.92 34.16Q433.80 33.79 434.78 33.79L434.78 33.79Q435.96 33.79 436.86 34.25Q437.76 34.70 438.29 35.68Q438.82 36.65 438.82 38.23L438.82 38.23L438.82 43.97Q438.82 44.38 438.92 44.64Q439.03 44.90 439.22 45.04Q439.42 45.17 439.70 45.17L439.70 45.17Q439.97 45.17 440.17 45.10Q440.38 45.02 440.57 44.88Q440.76 44.74 440.98 44.54L440.98 44.54Q441.12 44.42 441.32 44.45Q441.53 44.47 441.70 44.71L441.70 44.71Q441.84 44.86 441.88 45.06Q441.91 45.26 441.79 45.43L441.79 45.43Q441.53 45.82 441.13 46.09Q440.74 46.37 440.27 46.51Q439.80 46.66 439.34 46.66ZM448.18 46.66L448.18 46.66Q446.81 46.66 445.75 45.97Q444.70 45.29 444.10 43.93Q443.50 42.58 443.50 40.58L443.50 40.58Q443.50 39.36 443.72 38.32Q443.95 37.27 444.41 36.43Q444.86 35.59 445.52 35.00Q446.18 34.42 447.04 34.10Q447.89 33.79 448.94 33.79L448.94 33.79Q449.74 33.79 450.53 34.04Q451.32 34.30 452.09 34.73L452.09 34.73L452.09 34.46Q452.09 34.18 452.30 34.03Q452.52 33.89 452.93 33.89L452.93 33.89Q453.36 33.89 453.56 34.02Q453.77 34.15 453.77 34.44L453.77 34.44L453.77 44.02Q453.77 44.40 453.88 44.66Q453.98 44.93 454.19 45.06Q454.39 45.19 454.66 45.19L454.66 45.19Q454.92 45.19 455.11 45.12Q455.30 45.05 455.50 44.89Q455.69 44.74 455.90 44.52L455.90 44.52Q456.07 44.38 456.25 44.42Q456.43 44.47 456.62 44.64L456.62 44.64Q456.79 44.83 456.83 45.05Q456.86 45.26 456.74 45.43L456.74 45.43Q456.48 45.82 456.08 46.09Q455.69 46.37 455.23 46.51Q454.78 46.66 454.32 46.66L454.32 46.66Q453.82 46.66 453.42 46.52Q453.02 46.39 452.75 46.14Q452.47 45.89 452.32 45.50Q452.16 45.12 452.11 44.64L452.11 44.64Q452.11 44.57 452.10 44.46Q452.09 44.35 452.09 44.26L452.09 44.26Q451.54 45.22 450.86 45.74Q450.19 46.27 449.50 46.46Q448.80 46.66 448.18 46.66ZM445.22 40.49L445.22 40.49Q445.22 41.88 445.57 42.92Q445.92 43.97 446.64 44.53Q447.36 45.10 448.42 45.10L448.42 45.10Q449.14 45.10 449.82 44.81Q450.50 44.52 451.09 43.86Q451.68 43.20 452.09 42.10L452.09 42.10L452.09 36.19Q451.30 35.69 450.56 35.51Q449.83 35.33 449.04 35.33L449.04 35.33Q448.34 35.33 447.76 35.54Q447.17 35.76 446.70 36.17Q446.23 36.58 445.90 37.20Q445.56 37.82 445.39 38.64Q445.22 39.46 445.22 40.49ZM455.45 46.66L455.45 46.66Q455.06 46.66 454.90 46.43Q454.73 46.20 454.73 45.91Q454.73 45.62 454.90 45.40Q455.06 45.17 455.45 45.17L455.45 45.17Q456.26 45.17 457.06 44.68Q457.85 44.18 458.59 43.27Q459.34 42.36 460.01 41.05Q460.68 39.74 461.28 38.12Q461.88 36.50 462.41 34.61Q462.94 32.71 463.34 30.61Q463.75 28.51 464.04 26.26Q464.33 24.00 464.48 21.61Q464.64 19.22 464.64 16.85L464.64 16.85Q464.64 16.46 464.89 16.28Q465.14 16.10 465.48 16.10Q465.82 16.10 466.07 16.28Q466.32 16.46 466.32 16.85L466.32 16.85Q466.32 19.39 466.15 21.86Q465.98 24.34 465.64 26.72Q465.29 29.11 464.81 31.32Q464.33 33.53 463.73 35.52Q463.13 37.51 462.40 39.23Q461.66 40.94 460.86 42.31Q460.06 43.68 459.18 44.65Q458.30 45.62 457.36 46.14Q456.41 46.66 455.45 46.66ZM462.14 46.66L462.14 46.66Q461.59 46.66 461.17 46.50Q460.75 46.34 460.49 46.03Q460.22 45.72 460.09 45.26Q459.96 44.81 459.96 44.23L459.96 44.23L459.96 16.92Q459.96 14.50 460.80 13.25Q461.64 12 463.25 12L463.25 12Q464.28 12 464.96 12.55Q465.65 13.10 465.98 14.17Q466.32 15.24 466.32 16.85L466.32 16.85Q466.32 17.23 466.07 17.41Q465.82 17.59 465.48 17.59Q465.14 17.59 464.89 17.41Q464.64 17.23 464.64 16.85L464.64 16.85Q464.64 15.72 464.48 15.00Q464.33 14.28 464.00 13.92Q463.68 13.56 463.20 13.56L463.20 13.56Q462.65 13.56 462.30 13.92Q461.95 14.28 461.80 15.01Q461.64 15.74 461.64 16.92L461.64 16.92L461.64 43.97Q461.64 44.38 461.74 44.64Q461.83 44.90 462.02 45.04Q462.22 45.17 462.50 45.17L462.50 45.17Q462.74 45.17 462.95 45.10Q463.15 45.02 463.36 44.88Q463.56 44.74 463.78 44.54L463.78 44.54Q463.94 44.38 464.15 44.45Q464.35 44.52 464.50 44.69L464.50 44.69Q464.66 44.88 464.69 45.08Q464.71 45.29 464.59 45.48L464.59 45.48Q464.33 45.84 463.93 46.10Q463.54 46.37 463.08 46.51Q462.62 46.66 462.14 46.66Z"/></svg>