<svg xmlns="http://www.w3.org/2000/svg" xmlns:xlink="http://www.w3.org/1999/xlink" width="403.6319999999999" height="46.368"><path fill="black" d="M2.74 34.61L2.74 34.61Q1.85 34.61 1.99 34.01L1.99 34.01L8.64 10.90Q8.74 10.61 8.96 10.46Q9.19 10.32 9.62 10.32L9.62 10.32L14.06 10.32Q16.39 10.32 17.95 10.86Q19.51 11.40 20.29 12.53Q21.07 13.66 21.07 15.46L21.07 15.46Q21.07 17.42 20.35 18.92Q19.63 20.42 18.29 21.49Q16.94 22.56 15.07 23.23Q13.20 23.90 10.94 24.19L10.94 24.19Q9.84 24.34 8.69 24.41Q7.54 24.48 6.46 24.53L6.46 24.53L3.72 34.03Q3.60 34.32 3.40 34.46Q3.19 34.61 2.74 34.61ZM10.08 11.88L6.89 22.94Q7.58 22.94 8.32 22.91Q9.05 22.87 9.80 22.79Q10.56 22.70 11.26 22.63L11.26 22.63Q13.78 22.25 15.59 21.36Q17.40 20.47 18.36 19.04Q19.32 17.62 19.32 15.62L19.32 15.62Q19.32 14.26 18.73 13.45Q18.14 12.65 16.94 12.26Q15.74 11.88 13.87 11.88L13.87 11.88L10.08 11.88ZM21.62 34.63L21.62 34.63Q20.47 34.63 20.11 33.73Q19.75 32.83 20.28 31.06L20.28 31.06L26.28 10.54Q26.38 10.15 26.58 10.03Q26.78 9.91 27.17 9.91L27.17 9.91Q27.72 9.91 27.90 10.09Q28.08 10.27 27.96 10.66L27.96 10.66L21.74 31.82Q21.58 32.47 21.62 32.81Q21.67 33.14 22.03 33.14L22.03 33.14Q22.34 33.14 22.64 32.94Q22.94 32.74 23.26 32.38Q23.57 32.02 23.93 31.58L23.93 31.58Q24.07 31.37 24.25 31.33Q24.43 31.30 24.65 31.46L24.65 31.46Q24.96 31.66 25.02 31.85Q25.08 32.04 24.98 32.26L24.98 32.26Q24.55 32.95 24.02 33.49Q23.50 34.03 22.88 34.33Q22.27 34.63 21.62 34.63ZM29.69 34.68L29.69 34.68Q28.82 34.68 28.19 34.22Q27.55 33.77 27.20 32.92Q26.86 32.06 26.86 30.91L26.86 30.91Q26.86 29.78 27.18 28.54Q27.50 27.29 28.15 26.10Q28.80 24.91 29.74 23.94Q30.67 22.97 31.87 22.39Q33.07 21.82 34.54 21.82L34.54 21.82Q35.28 21.82 36.06 22.02Q36.84 22.22 37.56 22.61L37.56 22.61L37.63 22.37Q37.73 22.10 37.93 22.01Q38.14 21.91 38.50 21.91L38.50 21.91Q39.05 21.91 39.23 22.10Q39.41 22.30 39.29 22.68L39.29 22.68L36.55 31.90Q36.41 32.38 36.41 32.65Q36.41 32.93 36.50 33.04Q36.60 33.14 36.79 33.14L36.79 33.14Q37.10 33.14 37.43 32.93Q37.75 32.71 38.09 32.36Q38.42 32.02 38.74 31.61L38.74 31.61Q38.90 31.39 39.07 31.36Q39.24 31.32 39.46 31.49L39.46 31.49Q39.77 31.68 39.83 31.87Q39.89 32.06 39.77 32.28L39.77 32.28Q39.53 32.71 39.04 33.26Q38.54 33.82 37.90 34.24Q37.25 34.66 36.43 34.66L36.43 34.66Q35.74 34.66 35.35 34.36Q34.97 34.06 34.85 33.58Q34.73 33.10 34.81 32.50Q34.90 31.90 35.06 31.32L35.06 31.32Q35.18 30.94 35.28 30.55Q35.38 30.17 35.47 29.76L35.47 29.76Q34.46 31.44 33.48 32.53Q32.50 33.62 31.54 34.15Q30.58 34.68 29.69 34.68ZM28.61 30.65L28.61 30.65Q28.61 31.39 28.78 31.96Q28.94 32.52 29.29 32.82Q29.64 33.12 30.14 33.12L30.14 33.12Q31.06 33.12 32.16 32.18Q33.26 31.25 34.46 29.44Q35.66 27.62 36.89 24.96L36.89 24.96L37.15 24.02Q36.34 23.59 35.63 23.47Q34.92 23.35 34.32 23.35L34.32 23.35Q33.26 23.35 32.38 23.82Q31.49 24.29 30.79 25.08Q30.10 25.87 29.60 26.83Q29.11 27.79 28.86 28.79Q28.61 29.78 28.61 30.65ZM44.57 34.63L44.57 34.63Q43.61 34.63 43.00 34.16Q42.38 33.70 42.25 32.70Q42.12 31.70 42.58 30.19L42.58 30.19L44.83 22.54Q44.95 22.15 45.13 22.03Q45.31 21.91 45.70 21.91L45.70 21.91Q46.25 21.91 46.44 22.09Q46.63 22.27 46.51 22.66L46.51 22.66L44.18 30.46Q43.94 31.25 43.92 31.85Q43.90 32.45 44.17 32.76Q44.45 33.07 45.10 33.07L45.10 33.07Q45.89 33.07 46.85 32.45Q47.81 31.82 48.84 30.59Q49.87 29.35 50.90 27.53Q51.94 25.70 52.85 23.28L52.85 23.28L53.02 22.54Q53.14 22.15 53.34 22.03Q53.54 21.91 53.93 21.91L53.93 21.91Q54.48 21.91 54.65 22.10Q54.82 22.30 54.70 22.68L54.70 22.68L49.34 41.11Q48.79 43.13 48.10 44.36Q47.40 45.60 46.40 46.15Q45.41 46.70 43.85 46.70L43.85 46.70Q42.96 46.70 42.19 46.48Q41.42 46.25 40.74 45.83Q40.06 45.41 39.53 44.93L39.53 44.93Q39.22 44.64 39.14 44.38Q39.07 44.11 39.46 43.78L39.46 43.78Q39.79 43.46 40.01 43.44Q40.22 43.42 40.51 43.70L40.51 43.70Q41.28 44.40 42.11 44.80Q42.94 45.19 43.97 45.19L43.97 45.19Q44.98 45.19 45.65 44.77Q46.32 44.35 46.79 43.44Q47.26 42.53 47.69 41.06L47.69 41.06L51.14 29.06Q50.35 30.53 49.50 31.57Q48.65 32.62 47.81 33.30Q46.97 33.98 46.15 34.31Q45.34 34.63 44.57 34.63ZM59.95 34.73L59.95 34.73Q59.02 34.73 58.45 34.34Q57.89 33.96 57.65 33.29Q57.41 32.62 57.44 31.72Q57.48 30.82 57.77 29.83L57.77 29.83L59.86 22.51Q59.95 22.22 60.13 22.06Q60.31 21.89 60.77 21.89L60.77 21.89Q61.34 21.89 61.50 22.08Q61.66 22.27 61.54 22.63L61.54 22.63L59.38 30.17Q59.16 30.98 59.12 31.68Q59.09 32.38 59.36 32.77Q59.64 33.17 60.34 33.17L60.34 33.17Q61.10 33.17 61.87 32.63Q62.64 32.09 63.34 31.19Q64.03 30.29 64.61 29.21Q65.18 28.13 65.59 27.07L65.59 27.07L66.91 22.51Q66.98 22.25 67.18 22.08Q67.37 21.91 67.80 21.91L67.80 21.91Q68.38 21.91 68.52 22.10Q68.66 22.30 68.57 22.63L68.57 22.63L66.62 29.62Q66.46 30.22 66.36 30.84Q66.26 31.46 66.35 32.00Q66.43 32.54 66.73 32.87Q67.03 33.19 67.68 33.19L67.68 33.19Q68.45 33.19 69.22 32.71Q69.98 32.23 70.66 31.44Q71.33 30.65 71.87 29.65Q72.41 28.66 72.77 27.59Q73.13 26.52 73.20 25.54L73.20 25.54Q73.27 25.15 73.28 24.74Q73.30 24.34 73.25 23.87Q73.20 23.40 73.03 22.87L73.03 22.87Q72.94 22.54 73.01 22.30Q73.08 22.06 73.27 21.94Q73.46 21.82 73.75 21.82L73.75 21.82Q74.11 21.82 74.33 22.02Q74.54 22.22 74.66 22.73L74.66 22.73Q74.83 23.14 74.89 23.57Q74.95 24 74.94 24.42Q74.93 24.84 74.88 25.27L74.88 25.27Q74.78 26.52 74.36 27.83Q73.94 29.14 73.25 30.37Q72.55 31.61 71.64 32.59Q70.73 33.58 69.64 34.15Q68.54 34.73 67.30 34.73L67.30 34.73Q66.29 34.73 65.66 34.31Q65.04 33.89 64.79 33.13Q64.54 32.38 64.61 31.32L64.61 31.32Q63.98 32.33 63.26 33.10Q62.54 33.86 61.70 34.30Q60.86 34.73 59.95 34.73ZM78.53 34.63L78.53 34.63Q78.17 34.63 77.92 34.49Q77.66 34.34 77.76 34.01L77.76 34.01L80.54 24.36Q80.71 23.86 80.63 23.58Q80.54 23.30 80.23 23.30L80.23 23.30Q79.92 23.30 79.56 23.51Q79.20 23.71 78.76 24.16Q78.31 24.60 77.74 25.30L77.74 25.30Q77.50 25.56 77.29 25.60Q77.09 25.63 76.80 25.44L76.80 25.44Q76.46 25.18 76.49 24.95Q76.51 24.72 76.66 24.50L76.66 24.50Q77.21 23.76 77.81 23.15Q78.41 22.54 79.10 22.18Q79.80 21.82 80.62 21.82L80.62 21.82Q81.34 21.82 81.72 22.08Q82.10 22.34 82.24 22.79Q82.37 23.23 82.31 23.78Q82.25 24.34 82.10 24.91L82.10 24.91L81.43 27.22Q82.20 25.73 82.91 24.70Q83.62 23.66 84.25 23.04Q84.89 22.42 85.46 22.12Q86.04 21.82 86.52 21.82L86.52 21.82Q86.86 21.82 87 21.96Q87.14 22.10 87.12 22.56L87.12 22.56Q87.12 23.28 87.20 23.71Q87.29 24.14 87.49 24.34Q87.70 24.53 88.01 24.53L88.01 24.53Q88.54 24.53 89.22 24.24Q89.90 23.95 91.20 23.21L91.20 23.21Q91.44 23.09 91.64 23.20Q91.85 23.30 91.96 23.52Q92.06 23.74 92.05 23.98Q92.04 24.22 91.82 24.36L91.82 24.36Q90.62 25.13 89.70 25.50Q88.78 25.87 87.86 25.87L87.86 25.87Q87.34 25.87 86.88 25.67Q86.42 25.46 86.14 24.95Q85.85 24.43 85.85 23.54L85.85 23.54Q85.30 23.78 84.58 24.52Q83.86 25.25 83.06 26.42Q82.27 27.60 81.46 29.20Q80.64 30.79 79.87 32.74L79.87 32.74L79.44 34.10Q79.39 34.37 79.19 34.50Q78.98 34.63 78.53 34.63ZM92.57 34.63L92.57 34.63Q91.42 34.63 91.07 33.74Q90.72 32.86 91.25 31.06L91.25 31.06L93.70 22.54Q93.82 22.15 94.00 22.03Q94.18 21.91 94.56 21.91L94.56 21.91Q95.14 21.91 95.32 22.09Q95.50 22.27 95.38 22.66L95.38 22.66L92.71 31.82Q92.52 32.47 92.57 32.81Q92.62 33.14 93 33.14L93 33.14Q93.29 33.14 93.60 32.94Q93.91 32.74 94.21 32.38Q94.51 32.02 94.90 31.58L94.90 31.58Q95.04 31.37 95.21 31.33Q95.38 31.30 95.62 31.46L95.62 31.46Q95.90 31.66 95.98 31.85Q96.05 32.04 95.90 32.26L95.90 32.26Q95.50 32.95 94.98 33.49Q94.46 34.03 93.85 34.33Q93.24 34.63 92.57 34.63ZM95.88 18.05L95.88 18.05Q95.40 18.05 95.10 17.77Q94.80 17.50 94.80 16.97L94.80 16.97Q94.80 16.34 95.17 15.85Q95.54 15.36 96.31 15.36L96.31 15.36Q96.79 15.36 97.09 15.62Q97.39 15.89 97.39 16.42L97.39 16.42Q97.39 17.04 97.02 17.54Q96.65 18.05 95.88 18.05ZM100.66 34.63L100.66 34.63Q99.82 34.63 99.31 34.25Q98.81 33.86 98.70 33.07Q98.59 32.28 98.98 31.06L98.98 31.06L101.04 23.81L99.17 23.81Q98.93 23.81 98.83 23.62Q98.74 23.42 98.83 23.04L98.83 23.04Q98.95 22.66 99.13 22.46Q99.31 22.27 99.58 22.27L99.58 22.27L101.50 22.27L102.94 17.38Q103.06 16.99 103.25 16.87Q103.44 16.75 103.82 16.75L103.82 16.75Q104.38 16.75 104.57 16.93Q104.76 17.11 104.62 17.50L104.62 17.50L103.20 22.27L106.25 22.27Q106.51 22.27 106.60 22.45Q106.68 22.63 106.58 23.04L106.58 23.04Q106.51 23.42 106.31 23.62Q106.10 23.81 105.86 23.81L105.86 23.81L102.77 23.81L100.54 31.37Q100.27 32.30 100.38 32.72Q100.49 33.14 101.02 33.14L101.02 33.14Q101.54 33.14 102.24 32.66Q102.94 32.18 103.63 31.20L103.63 31.20Q103.82 31.01 104.00 30.97Q104.18 30.94 104.47 31.13L104.47 31.13Q104.76 31.30 104.81 31.50Q104.86 31.70 104.76 31.87L104.76 31.87Q104.38 32.50 103.76 33.14Q103.15 33.79 102.37 34.21Q101.59 34.63 100.66 34.63ZM111.60 34.73L111.60 34.73Q110.21 34.73 109.30 34.15Q108.38 33.58 107.94 32.53Q107.50 31.49 107.50 30.17L107.50 30.17Q107.50 28.63 108.01 27.16Q108.53 25.68 109.48 24.47Q110.42 23.26 111.78 22.54Q113.14 21.82 114.84 21.82L114.84 21.82Q115.99 21.82 116.72 22.18Q117.46 22.54 117.80 23.15Q118.15 23.76 118.15 24.55L118.15 24.55Q118.15 25.63 117.54 26.44Q116.93 27.24 115.90 27.85Q114.86 28.46 113.58 28.91Q112.30 29.35 110.98 29.63Q109.66 29.90 108.46 30.07L108.46 30.07L108.60 28.70Q109.51 28.56 110.56 28.34Q111.60 28.13 112.62 27.82Q113.64 27.50 114.50 27.06Q115.37 26.62 115.87 26.05Q116.38 25.49 116.38 24.72L116.38 24.72Q116.38 24.02 115.90 23.69Q115.42 23.35 114.62 23.35L114.62 23.35Q113.40 23.35 112.40 23.94Q111.41 24.53 110.71 25.50Q110.02 26.47 109.62 27.65Q109.22 28.82 109.22 30.02L109.22 30.02Q109.22 31.01 109.51 31.73Q109.80 32.45 110.38 32.81Q110.95 33.17 111.84 33.17L111.84 33.17Q112.75 33.17 113.48 32.80Q114.22 32.42 114.84 31.84Q115.46 31.25 115.97 30.67L115.97 30.67Q116.21 30.41 116.50 30.46Q116.78 30.50 117.02 30.72L117.02 30.72Q117.22 30.94 117.25 31.18Q117.29 31.42 117.07 31.70L117.07 31.70Q116.30 32.66 115.42 33.34Q114.53 34.01 113.57 34.37Q112.61 34.73 111.60 34.73ZM125.74 34.61L125.74 34.61Q125.23 34.61 125.08 34.32Q124.92 34.03 125.18 33.58L125.18 33.58L139.54 10.66Q139.80 10.22 140.05 10.07Q140.30 9.91 140.78 9.91L140.78 9.91Q141.17 9.91 141.38 10.09Q141.60 10.27 141.65 10.82L141.65 10.82L143.59 33.74Q143.66 34.13 143.45 34.37Q143.23 34.61 142.73 34.61L142.73 34.61Q142.30 34.61 142.15 34.44Q142.01 34.27 141.96 33.86L141.96 33.86L141.41 27.24L131.06 27.24L126.94 33.84Q126.65 34.34 126.43 34.48Q126.22 34.61 125.74 34.61ZM140.16 12.60L132.05 25.68L141.29 25.68L140.16 12.60ZM154.06 34.73L154.06 34.73Q152.52 34.73 151.48 34.16Q150.43 33.60 149.90 32.51Q149.38 31.42 149.36 29.89Q149.35 28.37 149.90 26.47L149.90 26.47L154.44 10.46Q154.54 10.18 154.75 10.04Q154.97 9.91 155.42 9.91L155.42 9.91Q155.88 9.91 156.10 10.06Q156.31 10.20 156.22 10.51L156.22 10.51L151.58 26.64Q151.13 28.22 151.08 29.42Q151.03 30.62 151.37 31.43Q151.70 32.23 152.40 32.65Q153.10 33.07 154.18 33.07L154.18 33.07Q155.30 33.07 156.48 32.62Q157.66 32.16 158.83 31.30Q160.01 30.43 161.17 29.22Q162.34 28.01 163.44 26.46Q164.54 24.91 165.62 23.11L165.62 23.11L169.22 10.46Q169.32 10.18 169.56 10.04Q169.80 9.91 170.21 9.91L170.21 9.91Q170.64 9.91 170.86 10.07Q171.07 10.22 170.98 10.51L170.98 10.51L164.23 34.06Q164.16 34.34 163.92 34.48Q163.68 34.61 163.22 34.61L163.22 34.61Q162.82 34.61 162.61 34.45Q162.41 34.30 162.48 34.03L162.48 34.03L164.40 27.36Q163.25 29.02 162.02 30.38Q160.80 31.75 159.48 32.72Q158.16 33.70 156.80 34.21Q155.45 34.73 154.06 34.73ZM192.84 39.17L192.84 39.17Q192.48 39.24 192.25 39.12Q192.02 39 191.88 38.62L191.88 38.62L188.90 30.24Q188.76 29.83 188.90 29.57Q189.05 29.30 189.46 29.21L189.46 29.21Q189.82 29.11 190.04 29.26Q190.27 29.40 190.39 29.74L190.39 29.74L193.39 38.14Q193.54 38.52 193.39 38.78Q193.25 39.05 192.84 39.17ZM188.33 34.73L188.33 34.73Q186.53 34.73 185.04 34.10Q183.55 33.48 182.50 32.28Q181.44 31.08 180.89 29.40Q180.34 27.72 180.34 25.63L180.34 25.63Q180.34 23.83 180.72 21.97Q181.10 20.11 181.88 18.36Q182.66 16.61 183.77 15.07Q184.87 13.54 186.31 12.37Q187.75 11.21 189.52 10.56Q191.28 9.91 193.32 9.91L193.32 9.91Q195.14 9.91 196.61 10.54Q198.07 11.16 199.10 12.32Q200.14 13.49 200.70 15.12Q201.26 16.75 201.26 18.82L201.26 18.82Q201.26 20.69 200.87 22.58Q200.47 24.48 199.69 26.26Q198.91 28.03 197.80 29.57Q196.68 31.10 195.24 32.26Q193.80 33.41 192.06 34.07Q190.32 34.73 188.33 34.73ZM188.54 33.07L188.54 33.07Q190.25 33.07 191.69 32.47Q193.13 31.87 194.35 30.84Q195.58 29.81 196.52 28.44Q197.47 27.07 198.12 25.49Q198.77 23.90 199.12 22.25Q199.46 20.59 199.46 18.98L199.46 18.98Q199.46 17.18 199.03 15.82Q198.60 14.45 197.78 13.49Q196.97 12.53 195.78 12.05Q194.59 11.57 193.08 11.57L193.08 11.57Q191.42 11.57 189.97 12.14Q188.52 12.72 187.31 13.74Q186.10 14.76 185.14 16.12Q184.18 17.47 183.52 19.02Q182.86 20.57 182.51 22.20Q182.16 23.83 182.16 25.46L182.16 25.46Q182.16 27.26 182.58 28.69Q183 30.12 183.83 31.08Q184.66 32.04 185.84 32.56Q187.03 33.07 188.54 33.07ZM215.14 34.27L204.19 34.27Q203.33 34.27 203.54 33.50L203.54 33.50L210.14 10.46Q210.26 10.18 210.46 10.04Q210.65 9.91 211.08 9.91L211.08 9.91Q211.54 9.91 211.75 10.06Q211.97 10.20 211.82 10.51L211.82 10.51L205.46 32.71L215.54 32.71Q215.81 32.71 215.89 32.90Q215.98 33.10 215.86 33.48L215.86 33.48Q215.78 33.86 215.59 34.07Q215.40 34.27 215.14 34.27L215.14 34.27ZM225.62 34.27L220.82 34.27Q219.96 34.27 220.13 33.70L220.13 33.70L226.70 10.90Q226.80 10.61 227.04 10.46Q227.28 10.32 227.74 10.32L227.74 10.32L232.18 10.32Q234.36 10.32 236.05 10.87Q237.74 11.42 238.90 12.46Q240.05 13.49 240.62 14.94Q241.20 16.39 241.20 18.17L241.20 18.17Q241.20 21 240.46 23.45Q239.71 25.90 238.30 27.88Q236.88 29.86 234.95 31.30Q233.02 32.74 230.65 33.50Q228.29 34.27 225.62 34.27L225.62 34.27ZM228.10 11.95L222.14 32.64L225.62 32.64Q227.90 32.64 229.97 31.98Q232.03 31.32 233.74 30.05Q235.44 28.78 236.69 27Q237.94 25.22 238.63 22.99Q239.33 20.76 239.33 18.17L239.33 18.17Q239.33 16.66 238.82 15.50Q238.32 14.35 237.38 13.57Q236.45 12.79 235.13 12.37Q233.81 11.95 232.13 11.95L232.13 11.95L228.10 11.95ZM256.46 34.73L256.46 34.73Q254.78 34.73 253.40 34.09Q252.02 33.46 251.03 32.35Q250.03 31.25 249.58 29.83L249.58 29.83Q249.38 29.28 249.41 29.00Q249.43 28.73 249.91 28.56L249.91 28.56Q250.37 28.39 250.56 28.50Q250.75 28.61 250.92 29.04L250.92 29.04Q251.40 30.31 252.18 31.24Q252.96 32.16 254.06 32.65Q255.17 33.14 256.66 33.14L256.66 33.14Q258.17 33.14 259.39 32.65Q260.62 32.16 261.48 31.30Q262.34 30.43 262.80 29.27Q263.26 28.10 263.26 26.76L263.26 26.76Q263.26 25.39 262.68 24.37Q262.10 23.35 260.99 22.76Q259.87 22.18 258.31 22.18L258.31 22.18L256.66 22.18Q256.44 22.18 256.36 21.98Q256.27 21.79 256.34 21.38L256.34 21.38Q256.46 21 256.66 20.81Q256.85 20.62 257.06 20.62L257.06 20.62L258.67 20.62Q260.11 20.62 261.35 20.26Q262.58 19.90 263.48 19.21Q264.38 18.53 264.88 17.51Q265.37 16.49 265.37 15.17L265.37 15.17Q265.37 14.26 265.07 13.57Q264.77 12.89 264.19 12.42Q263.62 11.95 262.86 11.71Q262.10 11.47 261.19 11.47L261.19 11.47Q260.21 11.47 259.26 11.76Q258.31 12.05 257.42 12.58Q256.54 13.10 255.74 13.92L255.74 13.92Q255.36 14.26 255.13 14.24Q254.90 14.23 254.57 13.94L254.57 13.94Q254.23 13.63 254.30 13.38Q254.38 13.13 254.74 12.70L254.74 12.70Q255.55 11.86 256.61 11.23Q257.66 10.61 258.90 10.26Q260.14 9.91 261.43 9.91L261.43 9.91Q262.61 9.91 263.64 10.25Q264.67 10.58 265.46 11.26Q266.26 11.93 266.71 12.89Q267.17 13.85 267.17 15.07L267.17 15.07Q267.17 16.27 266.81 17.33Q266.45 18.38 265.74 19.24Q265.03 20.09 263.96 20.68Q262.90 21.26 261.48 21.58L261.48 21.58Q262.61 21.91 263.41 22.64Q264.22 23.38 264.66 24.40Q265.10 25.42 265.10 26.64L265.10 26.64Q265.10 28.32 264.48 29.80Q263.86 31.27 262.70 32.39Q261.55 33.50 259.96 34.12Q258.36 34.73 256.46 34.73ZM275.42 34.73L275.42 34.73Q273.58 34.73 272.14 33.90Q270.70 33.07 269.87 31.34Q269.04 29.62 269.04 26.93L269.04 26.93Q269.04 24.98 269.44 22.98Q269.83 20.98 270.58 19.07Q271.32 17.16 272.40 15.50Q273.48 13.85 274.86 12.59Q276.24 11.33 277.90 10.62Q279.55 9.91 281.45 9.91L281.45 9.91Q283.32 9.91 284.74 10.75Q286.15 11.59 286.97 13.30Q287.78 15.00 287.78 17.59L287.78 17.59Q287.78 19.56 287.40 21.60Q287.02 23.64 286.27 25.55Q285.53 27.46 284.47 29.11Q283.42 30.77 282.02 32.03Q280.63 33.29 278.98 34.01Q277.32 34.73 275.42 34.73ZM275.81 33.05L275.81 33.05Q277.27 33.05 278.58 32.41Q279.89 31.78 281.03 30.65Q282.17 29.52 283.08 28.04Q283.99 26.57 284.64 24.89Q285.29 23.21 285.62 21.44Q285.96 19.68 285.96 17.98L285.96 17.98Q285.96 15.67 285.35 14.27Q284.74 12.86 283.66 12.23Q282.58 11.59 281.11 11.59L281.11 11.59Q279.62 11.59 278.29 12.23Q276.96 12.86 275.82 13.97Q274.68 15.07 273.78 16.55Q272.88 18.02 272.23 19.70Q271.58 21.38 271.24 23.15Q270.89 24.91 270.89 26.59L270.89 26.59Q270.89 28.94 271.50 30.37Q272.11 31.80 273.23 32.42Q274.34 33.05 275.81 33.05ZM295.73 34.73L295.73 34.73Q293.88 34.73 292.44 33.90Q291.00 33.07 290.17 31.34Q289.34 29.62 289.34 26.93L289.34 26.93Q289.34 24.98 289.74 22.98Q290.14 20.98 290.88 19.07Q291.62 17.16 292.70 15.50Q293.78 13.85 295.16 12.59Q296.54 11.33 298.20 10.62Q299.86 9.91 301.75 9.91L301.75 9.91Q303.62 9.91 305.04 10.75Q306.46 11.59 307.27 13.30Q308.09 15.00 308.09 17.59L308.09 17.59Q308.09 19.56 307.70 21.60Q307.32 23.64 306.58 25.55Q305.83 27.46 304.78 29.11Q303.72 30.77 302.33 32.03Q300.94 33.29 299.28 34.01Q297.62 34.73 295.73 34.73ZM296.11 33.05L296.11 33.05Q297.58 33.05 298.88 32.41Q300.19 31.78 301.33 30.65Q302.47 29.52 303.38 28.04Q304.30 26.57 304.94 24.89Q305.59 23.21 305.93 21.44Q306.26 19.68 306.26 17.98L306.26 17.98Q306.26 15.67 305.65 14.27Q305.04 12.86 303.96 12.23Q302.88 11.59 301.42 11.59L301.42 11.59Q299.93 11.59 298.60 12.23Q297.26 12.86 296.12 13.97Q294.98 15.07 294.08 16.55Q293.18 18.02 292.54 19.70Q291.89 21.38 291.54 23.15Q291.19 24.91 291.19 26.59L291.19 26.59Q291.19 28.94 291.80 30.37Q292.42 31.80 293.53 32.42Q294.65 33.05 296.11 33.05ZM316.46 34.63L316.46 34.63Q316.10 34.63 315.85 34.49Q315.60 34.34 315.70 34.01L315.70 34.01L318.48 24.36Q318.65 23.86 318.56 23.58Q318.48 23.30 318.17 23.30L318.17 23.30Q317.86 23.30 317.50 23.51Q317.14 23.71 316.69 24.16Q316.25 24.60 315.67 25.30L315.67 25.30Q315.43 25.56 315.23 25.60Q315.02 25.63 314.74 25.44L314.74 25.44Q314.40 25.18 314.42 24.95Q314.45 24.72 314.59 24.50L314.59 24.50Q315.14 23.76 315.74 23.15Q316.34 22.54 317.04 22.18Q317.74 21.82 318.55 21.82L318.55 21.82Q319.27 21.82 319.66 22.08Q320.04 22.34 320.17 22.79Q320.30 23.23 320.24 23.78Q320.18 24.34 320.04 24.91L320.04 24.91L319.34 27.24Q320.16 25.82 321.00 24.80Q321.84 23.78 322.68 23.11Q323.52 22.44 324.34 22.13Q325.15 21.82 325.92 21.82L325.92 21.82Q326.93 21.82 327.53 22.30Q328.13 22.78 328.27 23.75Q328.42 24.72 327.96 26.26L327.96 26.26L326.28 31.80Q326.14 32.33 326.11 32.62Q326.09 32.90 326.20 33.02Q326.30 33.14 326.50 33.14L326.50 33.14Q326.83 33.14 327.14 32.93Q327.46 32.71 327.80 32.36Q328.15 32.02 328.46 31.58L328.46 31.58Q328.63 31.37 328.79 31.33Q328.94 31.30 329.18 31.46L329.18 31.46Q329.50 31.68 329.54 31.86Q329.59 32.04 329.47 32.26L329.47 32.26Q329.23 32.69 328.75 33.25Q328.27 33.82 327.60 34.22Q326.93 34.63 326.14 34.63L326.14 34.63Q325.42 34.63 325.04 34.33Q324.67 34.03 324.55 33.55Q324.43 33.07 324.52 32.46Q324.60 31.85 324.79 31.22L324.79 31.22L326.33 25.97Q326.59 25.18 326.60 24.59Q326.62 24 326.33 23.69Q326.04 23.38 325.39 23.38L325.39 23.38Q324.62 23.38 323.66 23.99Q322.70 24.60 321.68 25.80Q320.66 27 319.63 28.79Q318.60 30.58 317.69 33L317.69 33L317.38 34.10Q317.33 34.37 317.12 34.50Q316.92 34.63 316.46 34.63ZM336.29 34.73L336.29 34.73Q334.82 34.73 333.82 34.13Q332.81 33.53 332.29 32.44Q331.78 31.34 331.78 29.95L331.78 29.95Q331.78 28.63 332.23 27.22Q332.69 25.80 333.58 24.58Q334.46 23.35 335.77 22.58Q337.08 21.82 338.83 21.82L338.83 21.82Q340.25 21.82 341.26 22.39Q342.26 22.97 342.78 24.01Q343.30 25.06 343.30 26.42L343.30 26.42Q343.30 27.43 343.02 28.57Q342.74 29.71 342.19 30.80Q341.64 31.90 340.80 32.77Q339.96 33.65 338.83 34.19Q337.70 34.73 336.29 34.73ZM336.46 33.17L336.46 33.17Q337.70 33.17 338.64 32.53Q339.58 31.90 340.21 30.89Q340.85 29.88 341.20 28.75Q341.54 27.62 341.54 26.62L341.54 26.62Q341.54 25.61 341.20 24.88Q340.85 24.14 340.22 23.76Q339.60 23.38 338.69 23.38L338.69 23.38Q337.44 23.38 336.48 23.99Q335.52 24.60 334.87 25.60Q334.22 26.59 333.89 27.72Q333.55 28.85 333.55 29.83L333.55 29.83Q333.55 30.84 333.90 31.61Q334.25 32.38 334.90 32.77Q335.54 33.17 336.46 33.17ZM346.68 34.63L346.68 34.63Q346.32 34.63 346.07 34.49Q345.82 34.34 345.91 34.01L345.91 34.01L348.70 24.36Q348.86 23.86 348.78 23.58Q348.70 23.30 348.38 23.30L348.38 23.30Q348.07 23.30 347.71 23.51Q347.35 23.71 346.91 24.16Q346.46 24.60 345.89 25.30L345.89 25.30Q345.65 25.56 345.44 25.60Q345.24 25.63 344.95 25.44L344.95 25.44Q344.62 25.18 344.64 24.95Q344.66 24.72 344.81 24.50L344.81 24.50Q345.36 23.76 345.96 23.15Q346.56 22.54 347.26 22.18Q347.95 21.82 348.77 21.82L348.77 21.82Q349.49 21.82 349.87 22.08Q350.26 22.34 350.39 22.79Q350.52 23.23 350.46 23.78Q350.40 24.34 350.26 24.91L350.26 24.91L349.58 27.22Q350.35 25.73 351.06 24.70Q351.77 23.66 352.40 23.04Q353.04 22.42 353.62 22.12Q354.19 21.82 354.67 21.82L354.67 21.82Q355.01 21.82 355.15 21.96Q355.30 22.10 355.27 22.56L355.27 22.56Q355.27 23.28 355.36 23.71Q355.44 24.14 355.64 24.34Q355.85 24.53 356.16 24.53L356.16 24.53Q356.69 24.53 357.37 24.24Q358.06 23.95 359.35 23.21L359.35 23.21Q359.59 23.09 359.80 23.20Q360.00 23.30 360.11 23.52Q360.22 23.74 360.20 23.98Q360.19 24.22 359.98 24.36L359.98 24.36Q358.78 25.13 357.85 25.50Q356.93 25.87 356.02 25.87L356.02 25.87Q355.49 25.87 355.03 25.67Q354.58 25.46 354.29 24.95Q354.00 24.43 354.00 23.54L354.00 23.54Q353.45 23.78 352.73 24.52Q352.01 25.25 351.22 26.42Q350.42 27.60 349.61 29.20Q348.79 30.79 348.02 32.74L348.02 32.74L347.59 34.10Q347.54 34.37 347.34 34.50Q347.14 34.63 346.68 34.63ZM359.90 34.63L359.90 34.63Q359.54 34.63 359.29 34.49Q359.04 34.34 359.14 34.01L359.14 34.01L361.92 24.36Q362.09 23.86 362.00 23.58Q361.92 23.30 361.61 23.30L361.61 23.30Q361.30 23.30 360.94 23.51Q360.58 23.71 360.13 24.16Q359.69 24.60 359.11 25.30L359.11 25.30Q358.87 25.56 358.67 25.60Q358.46 25.63 358.18 25.44L358.18 25.44Q357.84 25.18 357.86 24.95Q357.89 24.72 358.03 24.50L358.03 24.50Q358.58 23.76 359.18 23.15Q359.78 22.54 360.48 22.18Q361.18 21.82 361.99 21.82L361.99 21.82Q362.71 21.82 363.10 22.08Q363.48 22.34 363.61 22.79Q363.74 23.23 363.68 23.78Q363.62 24.34 363.48 24.91L363.48 24.91L362.83 27.17Q363.60 25.78 364.40 24.76Q365.21 23.74 366.01 23.09Q366.82 22.44 367.60 22.13Q368.38 21.82 369.10 21.82L369.10 21.82Q370.18 21.82 370.76 22.33Q371.35 22.85 371.42 23.84Q371.50 24.84 371.06 26.26L371.06 26.26L368.78 34.10Q368.71 34.37 368.51 34.50Q368.30 34.63 367.85 34.63L367.85 34.63Q367.51 34.63 367.25 34.49Q366.98 34.34 367.10 34.01L367.10 34.01L369.46 25.97Q369.72 25.18 369.76 24.59Q369.79 24 369.53 23.69Q369.26 23.38 368.57 23.38L368.57 23.38Q367.82 23.38 366.91 23.99Q366.00 24.60 365.02 25.82Q364.03 27.05 363.04 28.84Q362.04 30.62 361.13 33L361.13 33L360.82 34.10Q360.77 34.37 360.56 34.50Q360.36 34.63 359.90 34.63ZM377.18 34.63L377.18 34.63Q376.46 34.63 376.09 34.33Q375.72 34.03 375.61 33.55Q375.50 33.07 375.59 32.47Q375.67 31.87 375.86 31.22L375.86 31.22L377.38 25.97Q377.64 25.18 377.68 24.59Q377.71 24 377.45 23.69Q377.18 23.38 376.54 23.38L376.54 23.38Q375.77 23.38 374.84 24.01Q373.92 24.65 372.91 25.92Q371.90 27.19 370.92 29.04Q369.94 30.89 369.00 33.34L369.00 33.34L368.26 33.34Q369.10 30.48 370.15 28.34Q371.21 26.21 372.38 24.74Q373.56 23.28 374.75 22.55Q375.94 21.82 377.04 21.82L377.04 21.82Q378.10 21.82 378.68 22.33Q379.27 22.85 379.36 23.84Q379.44 24.84 379.01 26.26L379.01 26.26L377.33 31.80Q377.18 32.33 377.17 32.62Q377.16 32.90 377.26 33.02Q377.35 33.14 377.54 33.14L377.54 33.14Q377.86 33.14 378.19 32.93Q378.53 32.71 378.86 32.36Q379.20 32.02 379.51 31.58L379.51 31.58Q379.68 31.37 379.85 31.33Q380.02 31.30 380.23 31.46L380.23 31.46Q380.57 31.68 380.62 31.86Q380.66 32.04 380.54 32.26L380.54 32.26Q380.30 32.69 379.81 33.25Q379.32 33.82 378.65 34.22Q377.98 34.63 377.18 34.63ZM385.39 34.68L385.39 34.68Q384.53 34.68 383.89 34.22Q383.26 33.77 382.91 32.92Q382.56 32.06 382.56 30.91L382.56 30.91Q382.56 29.78 382.88 28.54Q383.21 27.29 383.86 26.10Q384.50 24.91 385.44 23.94Q386.38 22.97 387.58 22.39Q388.78 21.82 390.24 21.82L390.24 21.82Q390.98 21.82 391.76 22.02Q392.54 22.22 393.26 22.61L393.26 22.61L393.34 22.37Q393.43 22.10 393.64 22.01Q393.84 21.91 394.20 21.91L394.20 21.91Q394.75 21.91 394.93 22.10Q395.11 22.30 394.99 22.68L394.99 22.68L392.26 31.90Q392.11 32.38 392.11 32.65Q392.11 32.93 392.21 33.04Q392.30 33.14 392.50 33.14L392.50 33.14Q392.81 33.14 393.13 32.93Q393.46 32.71 393.79 32.36Q394.13 32.02 394.44 31.61L394.44 31.61Q394.61 31.39 394.78 31.36Q394.94 31.32 395.16 31.49L395.16 31.49Q395.47 31.68 395.53 31.87Q395.59 32.06 395.47 32.28L395.47 32.28Q395.23 32.71 394.74 33.26Q394.25 33.82 393.60 34.24Q392.95 34.66 392.14 34.66L392.14 34.66Q391.44 34.66 391.06 34.36Q390.67 34.06 390.55 33.58Q390.43 33.10 390.52 32.50Q390.60 31.90 390.77 31.32L390.77 31.32Q390.89 30.94 390.98 30.55Q391.08 30.17 391.18 29.76L391.18 29.76Q390.17 31.44 389.18 32.53Q388.20 33.62 387.24 34.15Q386.28 34.68 385.39 34.68ZM384.31 30.65L384.31 30.65Q384.31 31.39 384.48 31.96Q384.65 32.52 385.00 32.82Q385.34 33.12 385.85 33.12L385.85 33.12Q386.76 33.12 387.86 32.18Q388.97 31.25 390.17 29.44Q391.37 27.62 392.59 24.96L392.59 24.96L392.86 24.02Q392.04 23.59 391.33 23.47Q390.62 23.35 390.02 23.35L390.02 23.35Q388.97 23.35 388.08 23.82Q387.19 24.29 386.50 25.08Q385.80 25.87 385.31 26.83Q384.82 27.79 384.56 28.79Q384.31 29.78 384.31 30.65ZM399.43 34.63L399.43 34.63Q398.28 34.63 397.92 33.73Q397.56 32.83 398.09 31.06L398.09 31.06L404.09 10.54Q404.18 10.15 404.39 10.03Q404.59 9.91 404.98 9.91L404.98 9.91Q405.53 9.91 405.71 10.09Q405.89 10.27 405.77 10.66L405.77 10.66L399.55 31.82Q399.38 32.47 399.43 32.81Q399.48 33.14 399.84 33.14L399.84 33.14Q400.15 33.14 400.45 32.94Q400.75 32.74 401.06 32.38Q401.38 32.02 401.74 31.58L401.74 31.58Q401.88 31.37 402.06 31.33Q402.24 31.30 402.46 31.46L402.46 31.46Q402.77 31.66 402.83 31.85Q402.89 32.04 402.79 32.26L402.79 32.26Q402.36 32.95 401.83 33.49Q401.30 34.03 400.69 34.33Q400.08 34.63 399.43 34.63Z"/></svg>