<svg xmlns="http://www.w3.org/2000/svg" xmlns:xlink="http://www.w3.org/1999/xlink" width="238.92" height="31.2"><path fill="black" d="M0.77 24.19L3.72 7.39L17.04 7.39L16.87 8.42L5.52 8.42L4.42 14.66L14.14 14.66L13.97 15.67L4.25 15.67L2.74 24.19L0.77 24.19ZM20.28 24.43Q18.29 24.43 17.26 23.70Q16.22 22.97 16.22 21.58L16.22 21.58Q16.22 19.44 17.92 18.24Q19.61 17.04 22.66 17.04L22.66 17.04L26.28 17.04L26.42 16.15Q26.47 15.91 26.47 15.50L26.47 15.50Q26.47 14.33 25.68 13.70Q24.89 13.08 23.33 13.08L23.33 13.08Q21.67 13.08 20.53 13.82Q19.39 14.57 18.98 15.91L18.98 15.91L17.54 15.91Q18.12 14.11 19.68 13.15Q21.24 12.19 23.54 12.19L23.54 12.19Q25.80 12.19 27 13.06Q28.20 13.92 28.20 15.53L28.20 15.53Q28.20 15.94 28.13 16.42L28.13 16.42L27.43 20.33Q27.24 21.48 27.16 22.32Q27.07 23.16 27.10 24.19L27.10 24.19L25.44 24.19Q25.39 23.02 25.51 21.98L25.51 21.98Q23.57 24.43 20.28 24.43L20.28 24.43ZM20.90 23.57Q22.06 23.57 23.12 23.02Q24.19 22.46 24.92 21.52Q25.66 20.57 25.85 19.46L25.85 19.46L26.11 17.93L22.94 17.93Q20.50 17.93 19.24 18.82Q17.98 19.70 17.98 21.43L17.98 21.43Q17.98 22.49 18.72 23.03Q19.46 23.57 20.90 23.57L20.90 23.57ZM30.31 24.19L33.19 7.80L34.94 7.80L33.72 14.78Q34.58 13.56 35.98 12.88Q37.37 12.19 38.95 12.19L38.95 12.19Q40.97 12.19 42.04 13.06Q43.10 13.92 43.10 15.53L43.10 15.53Q43.10 15.96 43.03 16.44L43.03 16.44L41.66 24.19L39.91 24.19L41.33 16.22Q41.40 15.86 41.40 15.53L41.40 15.53Q41.40 14.38 40.66 13.73Q39.91 13.08 38.52 13.08L38.52 13.08Q36.53 13.08 35.05 14.38Q33.58 15.67 33.19 17.78L33.19 17.78L32.06 24.19L30.31 24.19ZM56.90 12.43L51.43 16.61L56.11 24.19L54.10 24.19L50.06 17.64L47.30 19.73L46.54 24.19L44.78 24.19L47.66 7.80L49.42 7.80L47.54 18.46L55.58 12.43L56.90 12.43ZM62.06 24.43L58.85 12.43L60.74 12.43L63.12 21.55L68.30 12.19L69.02 12.19L71.33 21.77L77.09 12.43L78.17 12.43L70.80 24.43L70.15 24.43L67.87 15.05L62.66 24.43L62.06 24.43ZM82.32 24.43Q80.33 24.43 79.30 23.70Q78.26 22.97 78.26 21.58L78.26 21.58Q78.26 19.44 79.96 18.24Q81.65 17.04 84.70 17.04L84.70 17.04L88.32 17.04L88.46 16.15Q88.51 15.91 88.51 15.50L88.51 15.50Q88.51 14.33 87.72 13.70Q86.93 13.08 85.37 13.08L85.37 13.08Q83.71 13.08 82.57 13.82Q81.43 14.57 81.02 15.91L81.02 15.91L79.58 15.91Q80.16 14.11 81.72 13.15Q83.28 12.19 85.58 12.19L85.58 12.19Q87.84 12.19 89.04 13.06Q90.24 13.92 90.24 15.53L90.24 15.53Q90.24 15.94 90.17 16.42L90.17 16.42L89.47 20.33Q89.28 21.48 89.20 22.32Q89.11 23.16 89.14 24.19L89.14 24.19L87.48 24.19Q87.43 23.02 87.55 21.98L87.55 21.98Q85.61 24.43 82.32 24.43L82.32 24.43ZM82.94 23.57Q84.10 23.57 85.16 23.02Q86.23 22.46 86.96 21.52Q87.70 20.57 87.89 19.46L87.89 19.46L88.15 17.93L84.98 17.93Q82.54 17.93 81.28 18.82Q80.02 19.70 80.02 21.43L80.02 21.43Q80.02 22.49 80.76 23.03Q81.50 23.57 82.94 23.57L82.94 23.57ZM92.35 24.19L94.42 12.43L96.17 12.43L95.81 14.54Q96.60 13.44 97.94 12.82Q99.29 12.19 100.82 12.19L100.82 12.19Q102.86 12.19 103.99 13.14Q105.12 14.09 105.12 15.74L105.12 15.74Q105.12 16.18 105.05 16.66L105.05 16.66L103.73 24.19L101.98 24.19L103.34 16.42Q103.42 16.01 103.42 15.65L103.42 15.65Q103.42 14.45 102.62 13.76Q101.83 13.08 100.34 13.08L100.34 13.08Q98.42 13.08 97.03 14.29Q95.64 15.50 95.28 17.50L95.28 17.50L94.10 24.19L92.35 24.19ZM120.07 11.14Q120.84 11.14 121.37 11.30L121.37 11.30L121.15 12.50Q120.50 12.22 119.62 12.22L119.62 12.22Q118.39 12.22 117.48 12.67L117.48 12.67Q118.42 13.08 118.92 13.78Q119.42 14.47 119.42 15.43L119.42 15.43Q119.42 17.50 117.77 18.82Q116.11 20.14 113.26 20.30L113.26 20.30Q112.01 20.38 111.17 20.62Q110.33 20.86 110.33 21.29L110.33 21.29Q110.33 21.60 110.83 21.74Q111.34 21.89 112.08 21.89L112.08 21.89L113.14 21.89Q115.82 21.89 117.26 22.58Q118.70 23.28 118.70 24.60L118.70 24.60Q118.70 25.82 117.78 26.80Q116.86 27.77 115.21 28.31Q113.57 28.85 111.48 28.85L111.48 28.85Q108.89 28.85 107.35 28.08Q105.82 27.31 105.82 26.04L105.82 26.04Q105.82 24.84 106.97 24.07Q108.12 23.30 110.30 23.04L110.30 23.04Q109.32 22.92 108.85 22.55Q108.38 22.18 108.38 21.67L108.38 21.67Q108.38 20.98 109.09 20.47Q109.80 19.97 110.88 19.85L110.88 19.85Q109.68 19.49 109.07 18.72Q108.46 17.95 108.46 16.87L108.46 16.87Q108.46 15.50 109.24 14.44Q110.02 13.37 111.42 12.78Q112.82 12.19 114.65 12.19L114.65 12.19Q115.80 12.19 116.66 12.41L116.66 12.41Q117.41 11.76 118.28 11.45Q119.16 11.14 120.07 11.14L120.07 11.14ZM113.38 19.37Q115.34 19.37 116.51 18.34Q117.67 17.30 117.67 15.53L117.67 15.53Q117.67 14.33 116.86 13.70Q116.04 13.08 114.48 13.08L114.48 13.08Q112.51 13.08 111.35 14.12Q110.18 15.17 110.18 16.94L110.18 16.94Q110.18 18.12 111 18.74Q111.82 19.37 113.38 19.37L113.38 19.37ZM113.18 23.21Q110.45 23.21 108.82 23.93Q107.18 24.65 107.18 25.87L107.18 25.87Q107.18 26.83 108.40 27.44Q109.61 28.06 111.62 28.06L111.62 28.06Q113.18 28.06 114.48 27.65Q115.78 27.24 116.53 26.53Q117.29 25.82 117.29 24.96L117.29 24.96Q117.29 24.05 116.18 23.63Q115.08 23.21 113.18 23.21L113.18 23.21ZM134.71 24.43Q131.66 24.43 130.03 23.36Q128.40 22.30 128.40 20.33L128.40 20.33Q128.40 19.97 128.42 19.80L128.42 19.80L130.22 19.80Q130.20 19.97 130.20 20.28L130.20 20.28Q130.20 21.84 131.40 22.67Q132.60 23.50 134.83 23.50L134.83 23.50Q136.61 23.50 137.95 22.90Q139.30 22.30 140.03 21.20Q140.76 20.11 140.76 18.67L140.76 18.67Q140.76 15.72 135.98 15.72L135.98 15.72Q134.45 15.72 133.13 15.96L133.13 15.96L133.32 14.76Q134.09 14.88 135.34 14.88L135.34 14.88Q137.04 14.88 138.42 14.35Q139.80 13.82 140.59 12.89Q141.38 11.95 141.38 10.80L141.38 10.80Q141.38 9.53 140.29 8.80Q139.20 8.06 137.28 8.06L137.28 8.06Q135.05 8.06 133.49 9.06Q131.93 10.06 131.50 11.76L131.50 11.76L129.70 11.76Q130.03 10.39 131.10 9.35Q132.17 8.30 133.81 7.73Q135.46 7.15 137.45 7.15L137.45 7.15Q140.16 7.15 141.76 8.14Q143.35 9.12 143.35 10.78L143.35 10.78Q143.35 12.31 142.07 13.54Q140.78 14.76 138.72 15.19L138.72 15.19Q142.78 15.72 142.78 18.58L142.78 18.58Q142.78 20.33 141.78 21.66Q140.78 22.99 138.96 23.71Q137.14 24.43 134.71 24.43L134.71 24.43ZM150.84 24.43Q147.82 24.43 146.20 22.81Q144.58 21.19 144.58 18.17L144.58 18.17Q144.58 14.98 145.76 12.47Q146.95 9.96 149.08 8.56Q151.20 7.15 153.89 7.15L153.89 7.15Q156.94 7.15 158.54 8.76Q160.15 10.37 160.15 13.39L160.15 13.39Q160.15 16.58 158.96 19.10Q157.78 21.62 155.65 23.03Q153.53 24.43 150.84 24.43L150.84 24.43ZM151.01 23.52Q153.02 23.52 154.67 22.18Q156.31 20.83 157.25 18.50Q158.18 16.18 158.18 13.34L158.18 13.34Q158.18 10.80 157.03 9.43Q155.88 8.06 153.72 8.06L153.72 8.06Q151.73 8.06 150.08 9.40Q148.44 10.73 147.49 13.06Q146.54 15.38 146.54 18.24L146.54 18.24Q146.54 20.78 147.70 22.15Q148.85 23.52 151.01 23.52L151.01 23.52ZM167.11 24.43Q164.09 24.43 162.47 22.81Q160.85 21.19 160.85 18.17L160.85 18.17Q160.85 14.98 162.04 12.47Q163.22 9.96 165.35 8.56Q167.47 7.15 170.16 7.15L170.16 7.15Q173.21 7.15 174.82 8.76Q176.42 10.37 176.42 13.39L176.42 13.39Q176.42 16.58 175.24 19.10Q174.05 21.62 171.92 23.03Q169.80 24.43 167.11 24.43L167.11 24.43ZM167.28 23.52Q169.30 23.52 170.94 22.18Q172.58 20.83 173.52 18.50Q174.46 16.18 174.46 13.34L174.46 13.34Q174.46 10.80 173.30 9.43Q172.15 8.06 169.99 8.06L169.99 8.06Q168.00 8.06 166.36 9.40Q164.71 10.73 163.76 13.06Q162.82 15.38 162.82 18.24L162.82 18.24Q162.82 20.78 163.97 22.15Q165.12 23.52 167.28 23.52L167.28 23.52ZM186.96 10.87Q186.43 10.87 186.11 10.58Q185.78 10.30 185.78 9.82L185.78 9.82Q185.78 9.19 186.28 8.72Q186.77 8.26 187.44 8.26L187.44 8.26Q187.97 8.26 188.29 8.54Q188.62 8.83 188.62 9.31L188.62 9.31Q188.62 9.96 188.14 10.42Q187.66 10.87 186.96 10.87L186.96 10.87ZM183.74 24.19L185.81 12.43L187.56 12.43L185.50 24.19L183.74 24.19ZM193.08 24.43Q191.86 24.43 191.27 23.87Q190.68 23.30 190.68 22.13L190.68 22.13Q190.68 21.67 190.80 20.90L190.80 20.90L192.14 13.32L190.01 13.32L190.49 12.43L192.31 12.43L193.75 9.12L194.64 9.12L194.04 12.43L197.35 12.43L196.92 13.32L193.90 13.32L192.50 21.26Q192.41 21.89 192.41 22.10L192.41 22.10Q192.41 23.52 193.75 23.52L193.75 23.52Q194.57 23.52 195.48 23.06L195.48 23.06L195.31 24Q194.35 24.43 193.08 24.43L193.08 24.43ZM201.96 24.43Q199.97 24.43 198.94 23.70Q197.90 22.97 197.90 21.58L197.90 21.58Q197.90 19.44 199.60 18.24Q201.29 17.04 204.34 17.04L204.34 17.04L207.96 17.04L208.10 16.15Q208.15 15.91 208.15 15.50L208.15 15.50Q208.15 14.33 207.36 13.70Q206.57 13.08 205.01 13.08L205.01 13.08Q203.35 13.08 202.21 13.82Q201.07 14.57 200.66 15.91L200.66 15.91L199.22 15.91Q199.80 14.11 201.36 13.15Q202.92 12.19 205.22 12.19L205.22 12.19Q207.48 12.19 208.68 13.06Q209.88 13.92 209.88 15.53L209.88 15.53Q209.88 15.94 209.81 16.42L209.81 16.42L209.11 20.33Q208.92 21.48 208.84 22.32Q208.75 23.16 208.78 24.19L208.78 24.19L207.12 24.19Q207.07 23.02 207.19 21.98L207.19 21.98Q205.25 24.43 201.96 24.43L201.96 24.43ZM202.58 23.57Q203.74 23.57 204.80 23.02Q205.87 22.46 206.60 21.52Q207.34 20.57 207.53 19.46L207.53 19.46L207.79 17.93L204.62 17.93Q202.18 17.93 200.92 18.82Q199.66 19.70 199.66 21.43L199.66 21.43Q199.66 22.49 200.40 23.03Q201.14 23.57 202.58 23.57L202.58 23.57ZM212.66 24.19L215.54 7.80L217.30 7.80L214.42 24.19L212.66 24.19ZM222.24 10.87Q221.71 10.87 221.39 10.58Q221.06 10.30 221.06 9.82L221.06 9.82Q221.06 9.19 221.56 8.72Q222.05 8.26 222.72 8.26L222.72 8.26Q223.25 8.26 223.57 8.54Q223.90 8.83 223.90 9.31L223.90 9.31Q223.90 9.96 223.42 10.42Q222.94 10.87 222.24 10.87L222.24 10.87ZM219.02 24.19L221.09 12.43L222.84 12.43L220.78 24.19L219.02 24.19ZM230.88 24.43Q228.24 24.43 226.69 23.12Q225.14 21.82 225.14 19.58L225.14 19.58Q225.14 17.50 226.12 15.80Q227.09 14.11 228.80 13.15Q230.52 12.19 232.70 12.19L232.70 12.19Q235.03 12.19 236.51 13.24Q237.98 14.28 238.10 16.06L238.10 16.06L236.59 16.06Q236.45 14.69 235.39 13.88Q234.34 13.08 232.70 13.08L232.70 13.08Q231.07 13.08 229.75 13.93Q228.43 14.78 227.66 16.27Q226.90 17.76 226.90 19.56L226.90 19.56Q226.90 21.41 227.95 22.46Q229.01 23.52 230.86 23.52L230.86 23.52Q232.46 23.52 233.83 22.72Q235.20 21.91 235.80 20.54L235.80 20.54L237.31 20.54Q236.59 22.34 234.88 23.39Q233.16 24.43 230.88 24.43L230.88 24.43Z"/></svg>