<svg xmlns="http://www.w3.org/2000/svg" xmlns:xlink="http://www.w3.org/1999/xlink" width="288.74399999999997" height="34.38"><path fill="black" d="M6.92 10.69L2.94 24.42L0.50 24.42L5.21 9.08L8.94 9.08L13.64 24.42L11.21 24.42L7.22 10.69L6.92 10.69ZM10.55 18.14L10.55 20.14L3.58 20.14L3.58 18.14L10.55 18.14ZM25.76 16.91L25.76 24.42L23.41 24.42L23.41 17.17Q23.41 16.32 23.18 15.70Q22.94 15.07 22.41 14.72Q21.88 14.38 20.95 14.38L20.95 14.38Q20.10 14.38 19.48 14.69Q18.85 15.00 18.46 15.53Q18.07 16.06 17.90 16.73L17.90 16.73L17.52 15.10L18.02 15.10Q18.23 14.35 18.70 13.75Q19.16 13.14 19.94 12.78Q20.72 12.42 21.88 12.42L21.88 12.42Q23.26 12.42 24.11 12.94Q24.96 13.46 25.36 14.46Q25.76 15.46 25.76 16.91L25.76 16.91ZM17.99 15.58L17.99 24.42L15.64 24.42L15.64 12.68L17.99 12.68L17.89 15.43L17.99 15.58ZM33.74 24.70L33.74 24.70Q30.94 24.70 29.54 23.36Q28.14 22.02 28.14 19.50L28.14 19.50L28.14 17.58Q28.14 15.10 29.44 13.73Q30.74 12.37 33.24 12.37L33.24 12.37Q34.93 12.37 36.06 12.99Q37.19 13.61 37.75 14.74Q38.32 15.86 38.32 17.41L38.32 17.41L38.32 17.86Q38.32 18.26 38.28 18.68Q38.24 19.10 38.18 19.49L38.18 19.49L36.02 19.49Q36.05 18.86 36.05 18.31Q36.06 17.76 36.06 17.30L36.06 17.30Q36.06 16.33 35.75 15.66Q35.44 14.99 34.81 14.63Q34.19 14.28 33.24 14.28L33.24 14.28Q31.84 14.28 31.15 15.08Q30.47 15.88 30.47 17.35L30.47 17.35L30.47 18.46L30.48 18.73L30.48 19.78Q30.48 20.44 30.68 20.98Q30.88 21.52 31.31 21.91Q31.75 22.30 32.45 22.51Q33.14 22.72 34.14 22.72L34.14 22.72Q35.27 22.72 36.26 22.43Q37.25 22.14 38.12 21.66L38.12 21.66L37.91 23.66Q37.12 24.13 36.07 24.41Q35.02 24.70 33.74 24.70ZM37.70 17.72L37.70 19.49L29.39 19.49L29.39 17.72L37.70 17.72ZM45.79 17.87L51.13 24.42L48.35 24.42L44.04 19.13L42.88 19.13L42.88 17.30L44.05 17.30L48.18 12.68L50.93 12.68L45.79 18.38L45.79 17.87ZM43.08 8.53L43.08 24.42L40.74 24.42L40.74 8.53L43.08 8.53ZM61.13 18.30L60.96 24.42L58.62 24.42L59.17 9.08L62.83 9.08L66.13 19.60L66.29 19.60L69.59 9.08L73.25 9.08L73.80 24.42L71.46 24.42L71.28 18.29L71.11 11.62L70.92 11.62L67.42 22.64L65.00 22.64L61.50 11.62L61.31 11.62L61.13 18.30ZM85.96 16.96L85.96 24.42L83.62 24.42L83.71 21.64L83.63 21.28L83.63 17.58L83.64 16.99Q83.64 15.64 82.95 15.00Q82.26 14.36 80.74 14.36L80.74 14.36Q79.50 14.36 78.44 14.71Q77.39 15.06 76.54 15.52L76.54 15.52L76.75 13.55Q77.23 13.27 77.88 13.01Q78.53 12.74 79.34 12.58Q80.16 12.41 81.13 12.41L81.13 12.41Q82.46 12.41 83.39 12.73Q84.31 13.04 84.88 13.64Q85.44 14.24 85.70 15.08Q85.96 15.92 85.96 16.96L85.96 16.96ZM79.64 24.68L79.64 24.68Q77.90 24.68 76.98 23.83Q76.06 22.97 76.06 21.38L76.06 21.38L76.06 21.02Q76.06 19.34 77.09 18.53Q78.13 17.72 80.36 17.41L80.36 17.41L83.89 16.91L84.02 18.61L80.64 19.09Q79.43 19.26 78.91 19.67Q78.40 20.09 78.40 20.89L78.40 20.89L78.40 21.06Q78.40 21.86 78.89 22.30Q79.39 22.73 80.41 22.73L80.41 22.73Q81.35 22.73 82.02 22.42Q82.69 22.10 83.11 21.58Q83.53 21.06 83.69 20.42L83.69 20.42L84.01 22.00L83.58 22.00Q83.39 22.72 82.94 23.33Q82.50 23.94 81.70 24.31Q80.90 24.68 79.64 24.68ZM91.14 8.53L91.14 24.42L88.79 24.42L88.79 8.53L91.14 8.53ZM103.40 16.96L103.40 24.42L101.06 24.42L101.16 21.64L101.08 21.28L101.08 17.58L101.09 16.99Q101.09 15.64 100.40 15.00Q99.71 14.36 98.18 14.36L98.18 14.36Q96.95 14.36 95.89 14.71Q94.84 15.06 93.98 15.52L93.98 15.52L94.20 13.55Q94.68 13.27 95.33 13.01Q95.98 12.74 96.79 12.58Q97.61 12.41 98.58 12.41L98.58 12.41Q99.91 12.41 100.84 12.73Q101.76 13.04 102.32 13.64Q102.89 14.24 103.15 15.08Q103.40 15.92 103.40 16.96L103.40 16.96ZM97.09 24.68L97.09 24.68Q95.35 24.68 94.43 23.83Q93.50 22.97 93.50 21.38L93.50 21.38L93.50 21.02Q93.50 19.34 94.54 18.53Q95.58 17.72 97.81 17.41L97.81 17.41L101.34 16.91L101.47 18.61L98.09 19.09Q96.88 19.26 96.36 19.67Q95.84 20.09 95.84 20.89L95.84 20.89L95.84 21.06Q95.84 21.86 96.34 22.30Q96.84 22.73 97.86 22.73L97.86 22.73Q98.80 22.73 99.47 22.42Q100.14 22.10 100.56 21.58Q100.98 21.06 101.14 20.42L101.14 20.42L101.46 22.00L101.03 22.00Q100.84 22.72 100.39 23.33Q99.95 23.94 99.15 24.31Q98.35 24.68 97.09 24.68ZM107.09 12.68L110.02 22.34L111.32 22.34L110.08 22.88L113.38 12.68L115.79 12.68L110.45 28.55L108.07 28.55L109.93 23.04L110.99 23.93L108.34 23.93L104.65 12.68L107.09 12.68ZM126.48 16.96L126.48 24.42L124.14 24.42L124.24 21.64L124.15 21.28L124.15 17.58L124.16 16.99Q124.16 15.64 123.47 15.00Q122.78 14.36 121.26 14.36L121.26 14.36Q120.02 14.36 118.97 14.71Q117.91 15.06 117.06 15.52L117.06 15.52L117.28 13.55Q117.76 13.27 118.40 13.01Q119.05 12.74 119.87 12.58Q120.68 12.41 121.66 12.41L121.66 12.41Q122.99 12.41 123.91 12.73Q124.84 13.04 125.40 13.64Q125.96 14.24 126.22 15.08Q126.48 15.92 126.48 16.96L126.48 16.96ZM120.17 24.68L120.17 24.68Q118.43 24.68 117.50 23.83Q116.58 22.97 116.58 21.38L116.58 21.38L116.58 21.02Q116.58 19.34 117.62 18.53Q118.66 17.72 120.89 17.41L120.89 17.41L124.42 16.91L124.55 18.61L121.16 19.09Q119.95 19.26 119.44 19.67Q118.92 20.09 118.92 20.89L118.92 20.89L118.92 21.06Q118.92 21.86 119.42 22.30Q119.92 22.73 120.94 22.73L120.94 22.73Q121.87 22.73 122.54 22.42Q123.22 22.10 123.64 21.58Q124.06 21.06 124.21 20.42L124.21 20.42L124.54 22.00L124.10 22.00Q123.91 22.72 123.47 23.33Q123.02 23.94 122.23 24.31Q121.43 24.68 120.17 24.68ZM131.66 8.53L131.66 24.42L129.31 24.42L129.31 8.53L131.66 8.53ZM143.93 16.96L143.93 24.42L141.59 24.42L141.68 21.64L141.60 21.28L141.60 17.58L141.61 16.99Q141.61 15.64 140.92 15.00Q140.23 14.36 138.71 14.36L138.71 14.36Q137.47 14.36 136.42 14.71Q135.36 15.06 134.51 15.52L134.51 15.52L134.72 13.55Q135.20 13.27 135.85 13.01Q136.50 12.74 137.32 12.58Q138.13 12.41 139.10 12.41L139.10 12.41Q140.44 12.41 141.36 12.73Q142.28 13.04 142.85 13.64Q143.41 14.24 143.67 15.08Q143.93 15.92 143.93 16.96L143.93 16.96ZM137.62 24.68L137.62 24.68Q135.88 24.68 134.95 23.83Q134.03 22.97 134.03 21.38L134.03 21.38L134.03 21.02Q134.03 19.34 135.07 18.53Q136.10 17.72 138.34 17.41L138.34 17.41L141.86 16.91L142.00 18.61L138.61 19.09Q137.40 19.26 136.88 19.67Q136.37 20.09 136.37 20.89L136.37 20.89L136.37 21.06Q136.37 21.86 136.87 22.30Q137.36 22.73 138.38 22.73L138.38 22.73Q139.32 22.73 139.99 22.42Q140.66 22.10 141.08 21.58Q141.50 21.06 141.66 20.42L141.66 20.42L141.98 22.00L141.55 22.00Q141.36 22.72 140.92 23.33Q140.47 23.94 139.67 24.31Q138.88 24.68 137.62 24.68ZM163.64 16.85L163.64 24.42L161.29 24.42L161.29 17.11Q161.29 16.28 161.08 15.67Q160.87 15.05 160.39 14.71Q159.90 14.38 159.07 14.38L159.07 14.38Q158.28 14.38 157.70 14.69Q157.13 15.00 156.77 15.53Q156.42 16.06 156.26 16.73L156.26 16.73L155.95 15.10L156.23 15.10Q156.44 14.39 156.89 13.78Q157.33 13.16 158.09 12.79Q158.84 12.42 160.00 12.42L160.00 12.42Q161.29 12.42 162.10 12.93Q162.90 13.44 163.27 14.43Q163.64 15.42 163.64 16.85L163.64 16.85ZM149.06 15.58L149.06 24.42L146.71 24.42L146.71 12.68L149.06 12.68L148.97 15.43L149.06 15.58ZM156.35 16.79L156.35 24.42L154.01 24.42L154.01 17.11Q154.01 16.28 153.80 15.67Q153.59 15.05 153.10 14.71Q152.62 14.38 151.79 14.38L151.79 14.38Q151.00 14.38 150.42 14.69Q149.84 15.00 149.49 15.53Q149.14 16.06 148.98 16.73L148.98 16.73L148.60 15.10L149.10 15.10Q149.29 14.35 149.73 13.75Q150.17 13.14 150.90 12.78Q151.63 12.42 152.70 12.42L152.70 12.42Q154.33 12.42 155.17 13.26Q156.01 14.10 156.23 15.71L156.23 15.71Q156.29 15.94 156.32 16.22Q156.35 16.51 156.35 16.79L156.35 16.79ZM181.20 9.08L181.20 24.42L178.91 24.42L178.91 14.24L178.99 10.75L178.68 10.75L173.78 19.37L173.78 20.42L172.86 19.55L183.16 19.55L183.16 21.56L171.40 21.56L171.40 19.21L177.24 9.08L181.20 9.08ZM190.43 24.73L190.43 24.73Q187.61 24.73 186.17 23.17Q184.73 21.60 184.73 18.64L184.73 18.64L184.73 14.87Q184.73 11.90 186.16 10.34Q187.60 8.77 190.43 8.77L190.43 8.77Q193.26 8.77 194.70 10.34Q196.14 11.90 196.14 14.87L196.14 14.87L196.14 18.64Q196.14 21.60 194.70 23.17Q193.26 24.73 190.43 24.73ZM190.43 22.73L190.43 22.73Q192.10 22.73 192.89 21.70Q193.69 20.68 193.69 18.74L193.69 18.74L193.69 14.77Q193.69 12.83 192.89 11.80Q192.10 10.78 190.43 10.78L190.43 10.78Q188.76 10.78 187.97 11.80Q187.18 12.83 187.18 14.77L187.18 14.77L187.18 18.74Q187.18 20.68 187.97 21.70Q188.77 22.73 190.43 22.73ZM204.24 24.73L204.24 24.73Q201.42 24.73 199.98 23.17Q198.54 21.60 198.54 18.64L198.54 18.64L198.54 14.87Q198.54 11.90 199.97 10.34Q201.41 8.77 204.24 8.77L204.24 8.77Q207.07 8.77 208.51 10.34Q209.95 11.90 209.95 14.87L209.95 14.87L209.95 18.64Q209.95 21.60 208.51 23.17Q207.07 24.73 204.24 24.73ZM204.24 22.73L204.24 22.73Q205.91 22.73 206.71 21.70Q207.50 20.68 207.50 18.74L207.50 18.74L207.50 14.77Q207.50 12.83 206.71 11.80Q205.91 10.78 204.24 10.78L204.24 10.78Q202.57 10.78 201.78 11.80Q200.99 12.83 200.99 14.77L200.99 14.77L200.99 18.74Q200.99 20.68 201.79 21.70Q202.58 22.73 204.24 22.73ZM228.53 16.91L228.53 24.42L226.18 24.42L226.18 17.17Q226.18 16.32 225.94 15.70Q225.71 15.07 225.17 14.72Q224.64 14.38 223.72 14.38L223.72 14.38Q222.86 14.38 222.24 14.69Q221.62 15.00 221.23 15.53Q220.84 16.06 220.67 16.73L220.67 16.73L220.28 15.10L220.79 15.10Q220.99 14.35 221.46 13.75Q221.93 13.14 222.71 12.78Q223.49 12.42 224.64 12.42L224.64 12.42Q226.02 12.42 226.87 12.94Q227.72 13.46 228.13 14.46Q228.53 15.46 228.53 16.91L228.53 16.91ZM220.75 15.58L220.75 24.42L218.40 24.42L218.40 12.68L220.75 12.68L220.66 15.43L220.75 15.58ZM236.18 24.72L236.18 24.72Q233.59 24.72 232.25 23.34Q230.90 21.96 230.90 19.37L230.90 19.37L230.90 17.70Q230.90 15.12 232.25 13.75Q233.59 12.37 236.18 12.37L236.18 12.37Q238.78 12.37 240.11 13.75Q241.45 15.12 241.45 17.70L241.45 17.70L241.45 19.37Q241.45 21.96 240.11 23.34Q238.78 24.72 236.18 24.72ZM236.18 22.81L236.18 22.81Q237.61 22.81 238.36 21.96Q239.10 21.11 239.10 19.51L239.10 19.51L239.10 17.56Q239.10 15.97 238.36 15.13Q237.61 14.28 236.18 14.28L236.18 14.28Q234.76 14.28 234.01 15.13Q233.27 15.97 233.27 17.56L233.27 17.56L233.27 19.51Q233.27 21.11 234.01 21.96Q234.76 22.81 236.18 22.81ZM246.23 17.33L246.23 17.33L245.72 15.49L246.30 15.49Q246.67 14.10 247.55 13.30Q248.42 12.50 249.94 12.50L249.94 12.50Q250.30 12.50 250.58 12.56Q250.86 12.61 251.09 12.68L251.09 12.68L251.23 14.98Q250.94 14.88 250.58 14.83Q250.22 14.77 249.80 14.77L249.80 14.77Q248.52 14.77 247.58 15.43Q246.65 16.09 246.23 17.33ZM246.32 16.27L246.32 24.42L243.97 24.42L243.97 12.68L246.26 12.68L246.16 16.10L246.32 16.27ZM269.95 16.85L269.95 24.42L267.60 24.42L267.60 17.11Q267.60 16.28 267.39 15.67Q267.18 15.05 266.69 14.71Q266.21 14.38 265.38 14.38L265.38 14.38Q264.59 14.38 264.01 14.69Q263.44 15.00 263.08 15.53Q262.73 16.06 262.57 16.73L262.57 16.73L262.26 15.10L262.54 15.10Q262.75 14.39 263.20 13.78Q263.64 13.16 264.40 12.79Q265.15 12.42 266.30 12.42L266.30 12.42Q267.60 12.42 268.40 12.93Q269.21 13.44 269.58 14.43Q269.95 15.42 269.95 16.85L269.95 16.85ZM255.37 15.58L255.37 24.42L253.02 24.42L253.02 12.68L255.37 12.68L255.28 15.43L255.37 15.58ZM262.66 16.79L262.66 24.42L260.32 24.42L260.32 17.11Q260.32 16.28 260.11 15.67Q259.90 15.05 259.41 14.71Q258.92 14.38 258.10 14.38L258.10 14.38Q257.30 14.38 256.73 14.69Q256.15 15.00 255.80 15.53Q255.44 16.06 255.29 16.73L255.29 16.73L254.90 15.10L255.41 15.10Q255.60 14.35 256.04 13.75Q256.48 13.14 257.21 12.78Q257.94 12.42 259.01 12.42L259.01 12.42Q260.64 12.42 261.48 13.26Q262.32 14.10 262.54 15.71L262.54 15.71Q262.60 15.94 262.63 16.22Q262.66 16.51 262.66 16.79L262.66 16.79ZM282.02 16.96L282.02 24.42L279.68 24.42L279.78 21.64L279.70 21.28L279.70 17.58L279.71 16.99Q279.71 15.64 279.02 15.00Q278.33 14.36 276.80 14.36L276.80 14.36Q275.57 14.36 274.51 14.71Q273.46 15.06 272.60 15.52L272.60 15.52L272.82 13.55Q273.30 13.27 273.95 13.01Q274.60 12.74 275.41 12.58Q276.23 12.41 277.20 12.41L277.20 12.41Q278.53 12.41 279.46 12.73Q280.38 13.04 280.94 13.64Q281.51 14.24 281.77 15.08Q282.02 15.92 282.02 16.96L282.02 16.96ZM275.71 24.68L275.71 24.68Q273.97 24.68 273.05 23.83Q272.12 22.97 272.12 21.38L272.12 21.38L272.12 21.02Q272.12 19.34 273.16 18.53Q274.20 17.72 276.43 17.41L276.43 17.41L279.96 16.91L280.09 18.61L276.71 19.09Q275.50 19.26 274.98 19.67Q274.46 20.09 274.46 20.89L274.46 20.89L274.46 21.06Q274.46 21.86 274.96 22.30Q275.46 22.73 276.48 22.73L276.48 22.73Q277.42 22.73 278.09 22.42Q278.76 22.10 279.18 21.58Q279.60 21.06 279.76 20.42L279.76 20.42L280.08 22.00L279.65 22.00Q279.46 22.72 279.01 23.33Q278.57 23.94 277.77 24.31Q276.97 24.68 275.71 24.68ZM287.21 8.53L287.21 24.42L284.86 24.42L284.86 8.53L287.21 8.53Z"/></svg>