<svg xmlns="http://www.w3.org/2000/svg" xmlns:xlink="http://www.w3.org/1999/xlink" width="301.584" height="34.752"><path fill="black" d="M5.86 27.84L2.14 27.84L2.14 10.01L6.12 10.01L10.92 19.03L12.70 22.94L12.82 22.94Q12.65 21.53 12.47 19.81Q12.29 18.10 12.29 16.51L12.29 16.51L12.29 10.01L16.01 10.01L16.01 27.84L12.02 27.84L7.25 18.77L5.47 14.93L5.35 14.93Q5.47 16.37 5.66 18.05Q5.86 19.73 5.86 21.31L5.86 21.31L5.86 27.84ZM25.75 28.18L25.75 28.18Q24.05 28.18 22.54 27.34Q21.02 26.50 20.10 24.90Q19.18 23.30 19.18 21.07L19.18 21.07Q19.18 18.82 20.10 17.23Q21.02 15.65 22.54 14.81Q24.05 13.97 25.75 13.97L25.75 13.97Q27.02 13.97 28.21 14.44Q29.40 14.90 30.31 15.83Q31.22 16.75 31.76 18.06Q32.30 19.37 32.30 21.07L32.30 21.07Q32.30 23.30 31.38 24.90Q30.46 26.50 28.96 27.34Q27.46 28.18 25.75 28.18ZM25.75 25.01L25.75 25.01Q26.62 25.01 27.19 24.53Q27.77 24.05 28.04 23.15Q28.32 22.25 28.32 21.07L28.32 21.07Q28.32 19.87 28.04 18.98Q27.77 18.10 27.19 17.62Q26.62 17.14 25.75 17.14L25.75 17.14Q24.91 17.14 24.34 17.62Q23.76 18.10 23.46 18.98Q23.16 19.87 23.16 21.07L23.16 21.07Q23.16 22.25 23.46 23.15Q23.76 24.05 24.34 24.53Q24.91 25.01 25.75 25.01ZM39.41 28.18L39.41 28.18Q37.75 28.18 36.73 27.52Q35.71 26.86 35.24 25.68Q34.78 24.50 34.78 22.97L34.78 22.97L34.78 17.35L32.93 17.35L32.93 14.45L35.02 14.30L35.45 10.66L38.69 10.66L38.69 14.30L41.95 14.30L41.95 17.35L38.69 17.35L38.69 22.94Q38.69 24.07 39.17 24.60Q39.65 25.13 40.46 25.13L40.46 25.13Q40.80 25.13 41.15 25.03Q41.50 24.94 41.76 24.84L41.76 24.84L42.38 27.67Q41.86 27.84 41.12 28.01Q40.39 28.18 39.41 28.18ZM49.78 28.18L49.78 28.18Q48.07 28.18 46.56 27.34Q45.05 26.50 44.12 24.90Q43.20 23.30 43.20 21.07L43.20 21.07Q43.20 18.82 44.12 17.23Q45.05 15.65 46.56 14.81Q48.07 13.97 49.78 13.97L49.78 13.97Q51.05 13.97 52.24 14.44Q53.42 14.90 54.34 15.83Q55.25 16.75 55.79 18.06Q56.33 19.37 56.33 21.07L56.33 21.07Q56.33 23.30 55.40 24.90Q54.48 26.50 52.98 27.34Q51.48 28.18 49.78 28.18ZM49.78 25.01L49.78 25.01Q50.64 25.01 51.22 24.53Q51.79 24.05 52.07 23.15Q52.34 22.25 52.34 21.07L52.34 21.07Q52.34 19.87 52.07 18.98Q51.79 18.10 51.22 17.62Q50.64 17.14 49.78 17.14L49.78 17.14Q48.94 17.14 48.36 17.62Q47.78 18.10 47.48 18.98Q47.18 19.87 47.18 21.07L47.18 21.07Q47.18 22.25 47.48 23.15Q47.78 24.05 48.36 24.53Q48.94 25.01 49.78 25.01ZM70.37 28.18L70.37 28.18Q68.59 28.18 66.86 27.52Q65.14 26.86 63.79 25.61L63.79 25.61L66.02 22.90Q66.96 23.76 68.15 24.28Q69.34 24.79 70.44 24.79L70.44 24.79Q71.74 24.79 72.37 24.30Q73.01 23.81 73.01 22.99L73.01 22.99Q73.01 22.39 72.68 22.03Q72.36 21.67 71.78 21.38Q71.21 21.10 70.42 20.78L70.42 20.78L68.09 19.80Q67.18 19.42 66.35 18.78Q65.52 18.14 65.00 17.20Q64.49 16.25 64.49 14.98L64.49 14.98Q64.49 13.49 65.29 12.29Q66.10 11.09 67.52 10.39Q68.95 9.70 70.80 9.70L70.80 9.70Q72.36 9.70 73.86 10.28Q75.36 10.87 76.49 12.02L76.49 12.02L74.52 14.47Q73.66 13.80 72.77 13.43Q71.88 13.06 70.80 13.06L70.80 13.06Q69.72 13.06 69.10 13.50Q68.47 13.94 68.47 14.71L68.47 14.71Q68.47 15.29 68.83 15.66Q69.19 16.03 69.80 16.31Q70.42 16.58 71.21 16.90L71.21 16.90L73.49 17.83Q74.57 18.26 75.36 18.92Q76.15 19.58 76.58 20.50Q77.02 21.41 77.02 22.68L77.02 22.68Q77.02 24.17 76.24 25.42Q75.46 26.66 73.96 27.42Q72.46 28.18 70.37 28.18ZM83.14 28.18L83.14 28.18Q81.91 28.18 81.01 27.64Q80.11 27.10 79.62 26.17Q79.13 25.25 79.13 24.10L79.13 24.10Q79.13 21.94 80.95 20.75Q82.78 19.56 86.78 19.10L86.78 19.10Q86.76 18.50 86.53 18.05Q86.30 17.59 85.84 17.34Q85.37 17.09 84.62 17.09L84.62 17.09Q83.74 17.09 82.85 17.42Q81.96 17.76 80.98 18.31L80.98 18.31L79.61 15.74Q80.47 15.22 81.38 14.82Q82.30 14.42 83.29 14.20Q84.29 13.97 85.34 13.97L85.34 13.97Q87.10 13.97 88.27 14.64Q89.45 15.31 90.07 16.66Q90.70 18 90.70 20.04L90.70 20.04L90.70 27.84L87.50 27.84L87.24 26.45L87.12 26.45Q86.28 27.19 85.28 27.68Q84.29 28.18 83.14 28.18ZM84.46 25.13L84.46 25.13Q85.15 25.13 85.70 24.82Q86.26 24.50 86.78 23.95L86.78 23.95L86.78 21.50Q85.32 21.67 84.44 22.01Q83.57 22.34 83.21 22.80Q82.85 23.26 82.85 23.81L82.85 23.81Q82.85 24.50 83.29 24.82Q83.74 25.13 84.46 25.13ZM98.02 27.84L94.13 27.84L94.13 14.30L97.30 14.30L97.58 16.03L97.66 16.03Q98.52 15.17 99.58 14.57Q100.63 13.97 102.02 13.97L102.02 13.97Q104.23 13.97 105.23 15.42Q106.22 16.87 106.22 19.42L106.22 19.42L106.22 27.84L102.34 27.84L102.34 19.92Q102.34 18.41 101.92 17.86Q101.50 17.30 100.58 17.30L100.58 17.30Q99.82 17.30 99.26 17.65Q98.71 18 98.02 18.65L98.02 18.65L98.02 27.84ZM113.66 28.18L113.66 28.18Q112.32 28.18 110.92 27.65Q109.51 27.12 108.48 26.28L108.48 26.28L110.21 23.83Q111.14 24.53 112.01 24.91Q112.87 25.30 113.74 25.30L113.74 25.30Q114.67 25.30 115.10 24.95Q115.54 24.60 115.54 24.02L115.54 24.02Q115.54 23.57 115.14 23.26Q114.74 22.94 114.11 22.68Q113.47 22.42 112.78 22.15L112.78 22.15Q111.94 21.82 111.12 21.32Q110.30 20.83 109.76 20.06Q109.22 19.30 109.22 18.17L109.22 18.17Q109.22 16.92 109.86 15.97Q110.50 15.02 111.66 14.50Q112.82 13.97 114.36 13.97L114.36 13.97Q115.90 13.97 117.07 14.48Q118.25 15 119.09 15.67L119.09 15.67L117.34 18Q116.62 17.47 115.91 17.16Q115.20 16.85 114.48 16.85L114.48 16.85Q113.66 16.85 113.27 17.16Q112.87 17.47 112.87 18L112.87 18Q112.87 18.43 113.23 18.72Q113.59 19.01 114.19 19.24Q114.79 19.46 115.51 19.73L115.51 19.73Q116.16 19.99 116.81 20.30Q117.46 20.62 118.00 21.10Q118.54 21.58 118.85 22.22Q119.16 22.87 119.16 23.81L119.16 23.81Q119.16 25.03 118.54 26.03Q117.91 27.02 116.69 27.60Q115.46 28.18 113.66 28.18ZM131.45 27.84L127.54 27.84L127.54 10.01L131.45 10.01L131.45 16.92L137.76 16.92L137.76 10.01L141.65 10.01L141.65 27.84L137.76 27.84L137.76 20.33L131.45 20.33L131.45 27.84ZM149.83 27.84L145.92 27.84L145.92 10.01L149.83 10.01L149.83 17.40L149.90 17.40L155.38 10.01L159.70 10.01L154.27 17.09L160.66 27.84L156.38 27.84L151.97 20.18L149.83 22.99L149.83 27.84ZM173.16 28.18L173.16 28.18Q171.43 28.18 170.06 27.58Q168.70 26.98 167.92 25.90Q167.14 24.82 167.14 23.42L167.14 23.42Q167.14 22.27 167.53 21.41Q167.93 20.54 168.61 19.91Q169.30 19.27 170.11 18.84L170.11 18.84L170.11 18.72Q169.08 17.98 168.42 16.93Q167.76 15.89 167.76 14.47L167.76 14.47Q167.76 13.01 168.48 11.94Q169.20 10.87 170.44 10.30Q171.67 9.72 173.28 9.72L173.28 9.72Q174.86 9.72 176.05 10.31Q177.24 10.90 177.89 11.95Q178.54 13.01 178.54 14.45L178.54 14.45Q178.54 15.31 178.21 16.07Q177.89 16.82 177.38 17.44Q176.88 18.05 176.28 18.48L176.28 18.48L176.28 18.60Q177.12 19.03 177.79 19.68Q178.46 20.33 178.86 21.24Q179.26 22.15 179.26 23.38L179.26 23.38Q179.26 24.72 178.50 25.81Q177.74 26.90 176.36 27.54Q174.98 28.18 173.16 28.18ZM174.26 17.52L174.26 17.52Q174.84 16.87 175.10 16.15Q175.37 15.43 175.37 14.71L175.37 14.71Q175.37 14.02 175.10 13.50Q174.84 12.98 174.36 12.71Q173.88 12.43 173.21 12.43L173.21 12.43Q172.37 12.43 171.78 12.94Q171.19 13.44 171.19 14.47L171.19 14.47Q171.19 15.22 171.59 15.77Q171.98 16.32 172.67 16.74Q173.35 17.16 174.26 17.52ZM173.23 25.44L173.23 25.44Q173.93 25.44 174.47 25.19Q175.01 24.94 175.32 24.44Q175.63 23.95 175.63 23.23L175.63 23.23Q175.63 22.61 175.36 22.13Q175.08 21.65 174.60 21.26Q174.12 20.88 173.42 20.56Q172.73 20.23 171.89 19.87L171.89 19.87Q171.26 20.42 170.87 21.24Q170.47 22.06 170.47 22.97L170.47 22.97Q170.47 23.71 170.84 24.28Q171.22 24.84 171.85 25.14Q172.49 25.44 173.23 25.44ZM187.56 28.18L187.56 28.18Q185.74 28.18 184.34 27.13Q182.95 26.09 182.17 24Q181.39 21.91 181.39 18.84L181.39 18.84Q181.39 15.77 182.17 13.74Q182.95 11.71 184.34 10.70Q185.74 9.70 187.56 9.70L187.56 9.70Q189.43 9.70 190.81 10.72Q192.19 11.74 192.96 13.75Q193.73 15.77 193.73 18.84L193.73 18.84Q193.73 21.91 192.96 24Q192.19 26.09 190.81 27.13Q189.43 28.18 187.56 28.18ZM187.56 25.13L187.56 25.13Q188.28 25.13 188.83 24.59Q189.38 24.05 189.71 22.68Q190.03 21.31 190.03 18.84L190.03 18.84Q190.03 16.37 189.71 15.04Q189.38 13.70 188.83 13.20Q188.28 12.70 187.56 12.70L187.56 12.70Q186.86 12.70 186.30 13.20Q185.74 13.70 185.40 15.04Q185.06 16.37 185.06 18.84L185.06 18.84Q185.06 21.31 185.40 22.68Q185.74 24.05 186.30 24.59Q186.86 25.13 187.56 25.13ZM201.94 28.18L201.94 28.18Q200.11 28.18 198.72 27.13Q197.33 26.09 196.55 24Q195.77 21.91 195.77 18.84L195.77 18.84Q195.77 15.77 196.55 13.74Q197.33 11.71 198.72 10.70Q200.11 9.70 201.94 9.70L201.94 9.70Q203.81 9.70 205.19 10.72Q206.57 11.74 207.34 13.75Q208.10 15.77 208.10 18.84L208.10 18.84Q208.10 21.91 207.34 24Q206.57 26.09 205.19 27.13Q203.81 28.18 201.94 28.18ZM201.94 25.13L201.94 25.13Q202.66 25.13 203.21 24.59Q203.76 24.05 204.08 22.68Q204.41 21.31 204.41 18.84L204.41 18.84Q204.41 16.37 204.08 15.04Q203.76 13.70 203.21 13.20Q202.66 12.70 201.94 12.70L201.94 12.70Q201.24 12.70 200.68 13.20Q200.11 13.70 199.78 15.04Q199.44 16.37 199.44 18.84L199.44 18.84Q199.44 21.31 199.78 22.68Q200.11 24.05 200.68 24.59Q201.24 25.13 201.94 25.13ZM220.30 27.84L216.41 27.84L216.41 14.30L219.58 14.30L219.86 16.03L219.94 16.03Q220.80 15.17 221.86 14.57Q222.91 13.97 224.30 13.97L224.30 13.97Q226.51 13.97 227.51 15.42Q228.50 16.87 228.50 19.42L228.50 19.42L228.50 27.84L224.62 27.84L224.62 19.92Q224.62 18.41 224.20 17.86Q223.78 17.30 222.86 17.30L222.86 17.30Q222.10 17.30 221.54 17.65Q220.99 18 220.30 18.65L220.30 18.65L220.30 27.84ZM237.74 28.18L237.74 28.18Q236.04 28.18 234.53 27.34Q233.02 26.50 232.09 24.90Q231.17 23.30 231.17 21.07L231.17 21.07Q231.17 18.82 232.09 17.23Q233.02 15.65 234.53 14.81Q236.04 13.97 237.74 13.97L237.74 13.97Q239.02 13.97 240.20 14.44Q241.39 14.90 242.30 15.83Q243.22 16.75 243.76 18.06Q244.30 19.37 244.30 21.07L244.30 21.07Q244.30 23.30 243.37 24.90Q242.45 26.50 240.95 27.34Q239.45 28.18 237.74 28.18ZM237.74 25.01L237.74 25.01Q238.61 25.01 239.18 24.53Q239.76 24.05 240.04 23.15Q240.31 22.25 240.31 21.07L240.31 21.07Q240.31 19.87 240.04 18.98Q239.76 18.10 239.18 17.62Q238.61 17.14 237.74 17.14L237.74 17.14Q236.90 17.14 236.33 17.62Q235.75 18.10 235.45 18.98Q235.15 19.87 235.15 21.07L235.15 21.07Q235.15 22.25 235.45 23.15Q235.75 24.05 236.33 24.53Q236.90 25.01 237.74 25.01ZM251.02 27.84L247.13 27.84L247.13 14.30L250.30 14.30L250.58 16.68L250.66 16.68Q251.40 15.34 252.43 14.65Q253.46 13.97 254.52 13.97L254.52 13.97Q255.10 13.97 255.47 14.04Q255.84 14.11 256.13 14.26L256.13 14.26L255.48 17.59Q255.10 17.50 254.77 17.44Q254.45 17.38 254.02 17.38L254.02 17.38Q253.25 17.38 252.41 17.95Q251.57 18.53 251.02 19.94L251.02 19.94L251.02 27.84ZM261.82 27.84L257.93 27.84L257.93 14.30L261.10 14.30L261.38 16.06L261.46 16.06Q262.30 15.19 263.27 14.58Q264.24 13.97 265.58 13.97L265.58 13.97Q267.02 13.97 267.91 14.56Q268.80 15.14 269.30 16.25L269.30 16.25Q270.22 15.31 271.24 14.64Q272.26 13.97 273.60 13.97L273.60 13.97Q275.78 13.97 276.79 15.42Q277.80 16.87 277.80 19.42L277.80 19.42L277.80 27.84L273.91 27.84L273.91 19.92Q273.91 18.41 273.50 17.86Q273.10 17.30 272.18 17.30L272.18 17.30Q271.68 17.30 271.08 17.64Q270.48 17.98 269.81 18.65L269.81 18.65L269.81 27.84L265.92 27.84L265.92 19.92Q265.92 18.41 265.50 17.86Q265.08 17.30 264.17 17.30L264.17 17.30Q263.66 17.30 263.06 17.64Q262.46 17.98 261.82 18.65L261.82 18.65L261.82 27.84ZM284.66 28.18L284.66 28.18Q283.44 28.18 282.54 27.64Q281.64 27.10 281.15 26.17Q280.66 25.25 280.66 24.10L280.66 24.10Q280.66 21.94 282.48 20.75Q284.30 19.56 288.31 19.10L288.31 19.10Q288.29 18.50 288.06 18.05Q287.83 17.59 287.36 17.34Q286.90 17.09 286.15 17.09L286.15 17.09Q285.26 17.09 284.38 17.42Q283.49 17.76 282.50 18.31L282.50 18.31L281.14 15.74Q282 15.22 282.91 14.82Q283.82 14.42 284.82 14.20Q285.82 13.97 286.87 13.97L286.87 13.97Q288.62 13.97 289.80 14.64Q290.98 15.31 291.60 16.66Q292.22 18 292.22 20.04L292.22 20.04L292.22 27.84L289.03 27.84L288.77 26.45L288.65 26.45Q287.81 27.19 286.81 27.68Q285.82 28.18 284.66 28.18ZM285.98 25.13L285.98 25.13Q286.68 25.13 287.23 24.82Q287.78 24.50 288.31 23.95L288.31 23.95L288.31 21.50Q286.85 21.67 285.97 22.01Q285.10 22.34 284.74 22.80Q284.38 23.26 284.38 23.81L284.38 23.81Q284.38 24.50 284.82 24.82Q285.26 25.13 285.98 25.13ZM299.26 28.18L299.26 28.18Q297.91 28.18 297.12 27.62Q296.33 27.07 295.99 26.06Q295.66 25.06 295.66 23.74L295.66 23.74L295.66 8.69L299.54 8.69L299.54 23.88Q299.54 24.53 299.78 24.77Q300.02 25.01 300.26 25.01L300.26 25.01Q300.38 25.01 300.48 25.00Q300.58 24.98 300.74 24.96L300.74 24.96L301.20 27.84Q300.89 27.98 300.41 28.08Q299.93 28.18 299.26 28.18Z"/></svg>