<svg xmlns="http://www.w3.org/2000/svg" xmlns:xlink="http://www.w3.org/1999/xlink" width="172.20000000000002" height="28.8"><path fill="black" d="M4.42 6.49L4.42 21.73L11.86 21.73L11.86 23.69L2.09 23.69L2.09 6.49L4.42 6.49ZM23.02 15.91L23.02 23.69L22.07 23.69Q21.76 23.69 21.56 23.59Q21.37 23.50 21.31 23.18L21.31 23.18L21.07 22.06Q20.59 22.49 20.14 22.83Q19.68 23.17 19.18 23.41Q18.67 23.64 18.10 23.76Q17.53 23.88 16.84 23.88L16.84 23.88Q16.13 23.88 15.51 23.68Q14.89 23.48 14.44 23.09Q13.98 22.69 13.71 22.09Q13.44 21.48 13.44 20.65L13.44 20.65Q13.44 19.93 13.84 19.27Q14.23 18.60 15.11 18.08Q16.00 17.57 17.42 17.24Q18.85 16.91 20.92 16.86L20.92 16.86L20.92 15.91Q20.92 14.50 20.31 13.77Q19.70 13.04 18.52 13.04L18.52 13.04Q17.74 13.04 17.20 13.24Q16.67 13.44 16.28 13.69Q15.89 13.93 15.61 14.13Q15.32 14.33 15.05 14.33L15.05 14.33Q14.83 14.33 14.67 14.21Q14.51 14.10 14.41 13.93L14.41 13.93L14.03 13.25Q15.04 12.28 16.20 11.80Q17.36 11.32 18.78 11.32L18.78 11.32Q19.80 11.32 20.59 11.65Q21.38 11.99 21.92 12.59Q22.46 13.19 22.74 14.04Q23.02 14.89 23.02 15.91L23.02 15.91ZM17.47 22.38L17.47 22.38Q18.04 22.38 18.50 22.27Q18.97 22.15 19.39 21.94Q19.80 21.73 20.18 21.43Q20.56 21.13 20.92 20.75L20.92 20.75L20.92 18.22Q19.44 18.26 18.41 18.45Q17.38 18.64 16.73 18.94Q16.08 19.24 15.79 19.64Q15.49 20.05 15.49 20.56L15.49 20.56Q15.49 21.04 15.65 21.38Q15.80 21.73 16.07 21.95Q16.33 22.18 16.69 22.28Q17.05 22.38 17.47 22.38ZM29.94 23.88L29.94 23.88Q28.50 23.88 27.73 23.08Q26.95 22.27 26.95 20.76L26.95 20.76L26.95 13.32L25.49 13.32Q25.30 13.32 25.16 13.21Q25.03 13.09 25.03 12.85L25.03 12.85L25.03 12.00L27.02 11.75L27.52 7.99Q27.54 7.81 27.67 7.70Q27.80 7.58 28.01 7.58L28.01 7.58L29.09 7.58L29.09 11.77L32.57 11.77L32.57 13.32L29.09 13.32L29.09 20.62Q29.09 21.38 29.46 21.76Q29.83 22.13 30.42 22.13L30.42 22.13Q30.76 22.13 31.00 22.04Q31.25 21.95 31.43 21.84Q31.61 21.73 31.73 21.64Q31.86 21.55 31.96 21.55L31.96 21.55Q32.12 21.55 32.26 21.76L32.26 21.76L32.88 22.78Q32.33 23.29 31.55 23.59Q30.77 23.88 29.94 23.88ZM40.13 11.34L40.13 11.34Q41.46 11.34 42.53 11.78Q43.61 12.23 44.36 13.04Q45.11 13.86 45.51 15.02Q45.91 16.18 45.91 17.60L45.91 17.60Q45.91 19.04 45.51 20.20Q45.11 21.35 44.36 22.16Q43.61 22.98 42.53 23.42Q41.46 23.86 40.13 23.86L40.13 23.86Q38.80 23.86 37.72 23.42Q36.65 22.98 35.89 22.16Q35.14 21.35 34.73 20.20Q34.32 19.04 34.32 17.60L34.32 17.60Q34.32 16.18 34.73 15.02Q35.14 13.86 35.89 13.04Q36.65 12.23 37.72 11.78Q38.80 11.34 40.13 11.34ZM40.13 22.19L40.13 22.19Q41.93 22.19 42.82 20.98Q43.70 19.78 43.70 17.62L43.70 17.62Q43.70 15.44 42.82 14.23Q41.93 13.02 40.13 13.02L40.13 13.02Q39.22 13.02 38.54 13.33Q37.87 13.64 37.42 14.23Q36.97 14.82 36.75 15.68Q36.53 16.54 36.53 17.62L36.53 17.62Q36.53 18.70 36.75 19.55Q36.97 20.40 37.42 20.98Q37.87 21.56 38.54 21.88Q39.22 22.19 40.13 22.19ZM62.27 6.49L62.27 17.48L64.87 17.48L64.87 18.71Q64.87 18.90 64.76 19.03Q64.64 19.16 64.40 19.16L64.40 19.16L62.27 19.16L62.27 23.69L60.38 23.69L60.38 19.16L52.76 19.16Q52.52 19.16 52.35 19.03Q52.18 18.89 52.13 18.68L52.13 18.68L51.91 17.59L60.28 6.49L62.27 6.49ZM60.38 17.48L60.38 10.39Q60.38 10.08 60.40 9.72Q60.42 9.36 60.48 8.98L60.48 8.98L54.23 17.48L60.38 17.48ZM78.55 15.10L78.55 15.10Q78.55 17.35 78.07 19.00Q77.58 20.65 76.74 21.73Q75.90 22.81 74.75 23.34Q73.61 23.87 72.30 23.87L72.30 23.87Q70.98 23.87 69.85 23.34Q68.71 22.81 67.87 21.73Q67.03 20.65 66.55 19.00Q66.07 17.35 66.07 15.10L66.07 15.10Q66.07 12.84 66.55 11.18Q67.03 9.53 67.87 8.44Q68.71 7.36 69.85 6.83Q70.98 6.30 72.30 6.30L72.30 6.30Q73.61 6.30 74.75 6.83Q75.90 7.36 76.74 8.44Q77.58 9.53 78.07 11.18Q78.55 12.84 78.55 15.10ZM76.33 15.10L76.33 15.10Q76.33 13.13 76.00 11.79Q75.67 10.45 75.11 9.64Q74.56 8.82 73.82 8.47Q73.09 8.11 72.30 8.11L72.30 8.11Q71.51 8.11 70.78 8.47Q70.04 8.82 69.49 9.64Q68.94 10.45 68.61 11.79Q68.28 13.13 68.28 15.10L68.28 15.10Q68.28 17.06 68.61 18.40Q68.94 19.73 69.49 20.54Q70.04 21.36 70.78 21.71Q71.51 22.07 72.30 22.07L72.30 22.07Q73.09 22.07 73.82 21.71Q74.56 21.36 75.11 20.54Q75.67 19.73 76.00 18.40Q76.33 17.06 76.33 15.10ZM92.47 15.10L92.47 15.10Q92.47 17.35 91.99 19.00Q91.50 20.65 90.66 21.73Q89.82 22.81 88.67 23.34Q87.53 23.87 86.22 23.87L86.22 23.87Q84.90 23.87 83.77 23.34Q82.63 22.81 81.79 21.73Q80.95 20.65 80.47 19.00Q79.99 17.35 79.99 15.10L79.99 15.10Q79.99 12.84 80.47 11.18Q80.95 9.53 81.79 8.44Q82.63 7.36 83.77 6.83Q84.90 6.30 86.22 6.30L86.22 6.30Q87.53 6.30 88.67 6.83Q89.82 7.36 90.66 8.44Q91.50 9.53 91.99 11.18Q92.47 12.84 92.47 15.10ZM90.25 15.10L90.25 15.10Q90.25 13.13 89.92 11.79Q89.59 10.45 89.03 9.64Q88.48 8.82 87.74 8.47Q87.01 8.11 86.22 8.11L86.22 8.11Q85.43 8.11 84.70 8.47Q83.96 8.82 83.41 9.64Q82.86 10.45 82.53 11.79Q82.20 13.13 82.20 15.10L82.20 15.10Q82.20 17.06 82.53 18.40Q82.86 19.73 83.41 20.54Q83.96 21.36 84.70 21.71Q85.43 22.07 86.22 22.07L86.22 22.07Q87.01 22.07 87.74 21.71Q88.48 21.36 89.03 20.54Q89.59 19.73 89.92 18.40Q90.25 17.06 90.25 15.10ZM101.71 23.69L99.58 23.69L99.58 11.53L100.85 11.53Q101.30 11.53 101.42 11.98L101.42 11.98L101.59 13.30Q102.38 12.42 103.36 11.88Q104.34 11.34 105.62 11.34L105.62 11.34Q106.62 11.34 107.38 11.67Q108.14 12.00 108.65 12.61Q109.16 13.21 109.43 14.06Q109.69 14.92 109.69 15.95L109.69 15.95L109.69 23.69L107.56 23.69L107.56 15.95Q107.56 14.57 106.93 13.81Q106.30 13.04 105.00 13.04L105.00 13.04Q104.05 13.04 103.23 13.50Q102.41 13.96 101.71 14.74L101.71 14.74L101.71 23.69ZM117.84 11.34L117.84 11.34Q119.17 11.34 120.25 11.78Q121.32 12.23 122.07 13.04Q122.82 13.86 123.22 15.02Q123.62 16.18 123.62 17.60L123.62 17.60Q123.62 19.04 123.22 20.20Q122.82 21.35 122.07 22.16Q121.32 22.98 120.25 23.42Q119.17 23.86 117.84 23.86L117.84 23.86Q116.51 23.86 115.43 23.42Q114.36 22.98 113.60 22.16Q112.85 21.35 112.44 20.20Q112.03 19.04 112.03 17.60L112.03 17.60Q112.03 16.18 112.44 15.02Q112.85 13.86 113.60 13.04Q114.36 12.23 115.43 11.78Q116.51 11.34 117.84 11.34ZM117.84 22.19L117.84 22.19Q119.64 22.19 120.53 20.98Q121.42 19.78 121.42 17.62L121.42 17.62Q121.42 15.44 120.53 14.23Q119.64 13.02 117.84 13.02L117.84 13.02Q116.93 13.02 116.26 13.33Q115.58 13.64 115.13 14.23Q114.68 14.82 114.46 15.68Q114.24 16.54 114.24 17.62L114.24 17.62Q114.24 18.70 114.46 19.55Q114.68 20.40 115.13 20.98Q115.58 21.56 116.26 21.88Q116.93 22.19 117.84 22.19ZM128.40 23.69L126.26 23.69L126.26 11.53L127.49 11.53Q127.84 11.53 127.97 11.66Q128.10 11.80 128.15 12.12L128.15 12.12L128.29 14.02Q128.92 12.74 129.83 12.03Q130.75 11.32 131.99 11.32L131.99 11.32Q132.49 11.32 132.90 11.43Q133.31 11.54 133.66 11.75L133.66 11.75L133.38 13.34Q133.30 13.64 133.01 13.64L133.01 13.64Q132.84 13.64 132.49 13.53Q132.14 13.42 131.52 13.42L131.52 13.42Q130.40 13.42 129.65 14.06Q128.90 14.71 128.40 15.95L128.40 15.95L128.40 23.69ZM138.07 23.69L135.94 23.69L135.94 11.53L137.21 11.53Q137.66 11.53 137.78 11.98L137.78 11.98L137.94 13.22Q138.61 12.40 139.45 11.87Q140.28 11.34 141.38 11.34L141.38 11.34Q142.62 11.34 143.38 12.02Q144.14 12.71 144.48 13.87L144.48 13.87Q144.73 13.21 145.15 12.73Q145.56 12.25 146.08 11.94Q146.59 11.63 147.17 11.48Q147.76 11.34 148.36 11.34L148.36 11.34Q149.32 11.34 150.07 11.65Q150.82 11.95 151.34 12.54Q151.86 13.13 152.14 13.99Q152.41 14.84 152.41 15.95L152.41 15.95L152.41 23.69L150.28 23.69L150.28 15.95Q150.28 14.52 149.65 13.78Q149.03 13.04 147.84 13.04L147.84 13.04Q147.31 13.04 146.84 13.23Q146.36 13.42 146.00 13.78Q145.64 14.14 145.43 14.68Q145.22 15.23 145.22 15.95L145.22 15.95L145.22 23.69L143.09 23.69L143.09 15.95Q143.09 14.48 142.50 13.76Q141.91 13.04 140.78 13.04L140.78 13.04Q139.99 13.04 139.31 13.47Q138.64 13.90 138.07 14.63L138.07 14.63L138.07 23.69ZM164.57 15.91L164.57 23.69L163.62 23.69Q163.31 23.69 163.12 23.59Q162.92 23.50 162.86 23.18L162.86 23.18L162.62 22.06Q162.14 22.49 161.69 22.83Q161.23 23.17 160.73 23.41Q160.22 23.64 159.65 23.76Q159.08 23.88 158.39 23.88L158.39 23.88Q157.68 23.88 157.06 23.68Q156.44 23.48 155.99 23.09Q155.53 22.69 155.26 22.09Q154.99 21.48 154.99 20.65L154.99 20.65Q154.99 19.93 155.39 19.27Q155.78 18.60 156.67 18.08Q157.55 17.57 158.98 17.24Q160.40 16.91 162.47 16.86L162.47 16.86L162.47 15.91Q162.47 14.50 161.86 13.77Q161.26 13.04 160.07 13.04L160.07 13.04Q159.29 13.04 158.75 13.24Q158.22 13.44 157.83 13.69Q157.44 13.93 157.16 14.13Q156.88 14.33 156.60 14.33L156.60 14.33Q156.38 14.33 156.22 14.21Q156.06 14.10 155.96 13.93L155.96 13.93L155.58 13.25Q156.59 12.28 157.75 11.80Q158.92 11.32 160.33 11.32L160.33 11.32Q161.35 11.32 162.14 11.65Q162.94 11.99 163.48 12.59Q164.02 13.19 164.29 14.04Q164.57 14.89 164.57 15.91L164.57 15.91ZM159.02 22.38L159.02 22.38Q159.59 22.38 160.06 22.27Q160.52 22.15 160.94 21.94Q161.35 21.73 161.73 21.43Q162.11 21.13 162.47 20.75L162.47 20.75L162.47 18.22Q160.99 18.26 159.96 18.45Q158.93 18.64 158.28 18.94Q157.63 19.24 157.34 19.64Q157.04 20.05 157.04 20.56L157.04 20.56Q157.04 21.04 157.20 21.38Q157.36 21.73 157.62 21.95Q157.88 22.18 158.24 22.28Q158.60 22.38 159.02 22.38ZM168.05 6.01L170.18 6.01L170.18 23.69L168.05 23.69L168.05 6.01Z"/></svg>