<svg xmlns="http://www.w3.org/2000/svg" xmlns:xlink="http://www.w3.org/1999/xlink" width="361.416" height="35.832"><path fill="black" d="M17.74 8.52L17.74 25.66L12.46 25.66L5.54 13.10L5.45 13.10Q5.50 13.80 5.53 14.60Q5.57 15.41 5.60 16.21Q5.64 17.02 5.66 17.74L5.66 17.74L5.66 25.66L2.02 25.66L2.02 8.52L7.27 8.52L14.16 20.93L14.23 20.93Q14.21 20.26 14.17 19.48Q14.14 18.70 14.11 17.93Q14.09 17.16 14.06 16.46L14.06 16.46L14.06 8.52L17.74 8.52ZM33.74 19.03L33.74 19.03Q33.74 21.24 32.95 22.78Q32.16 24.31 30.71 25.10Q29.26 25.90 27.24 25.90L27.24 25.90Q25.37 25.90 23.92 25.09Q22.46 24.29 21.64 22.75Q20.81 21.22 20.81 19.03L20.81 19.03Q20.81 15.77 22.54 14.00Q24.26 12.24 27.31 12.24L27.31 12.24Q29.21 12.24 30.65 13.03Q32.09 13.82 32.92 15.34Q33.74 16.85 33.74 19.03ZM24.91 19.03L24.91 19.03Q24.91 20.26 25.15 21.10Q25.39 21.94 25.92 22.36Q26.45 22.78 27.29 22.78L27.29 22.78Q28.15 22.78 28.66 22.36Q29.16 21.94 29.40 21.10Q29.64 20.26 29.64 19.06L29.64 19.06Q29.64 17.81 29.40 16.99Q29.16 16.18 28.64 15.77Q28.13 15.36 27.26 15.36L27.26 15.36Q26.02 15.36 25.46 16.28Q24.91 17.21 24.91 19.03ZM42.50 22.68L42.50 22.68Q43.13 22.68 43.66 22.56Q44.18 22.44 44.74 22.25L44.74 22.25L44.74 25.22Q44.09 25.51 43.25 25.70Q42.41 25.90 41.26 25.90L41.26 25.90Q40.03 25.90 39.08 25.50Q38.14 25.10 37.60 24.13Q37.06 23.16 37.06 21.43L37.06 21.43L37.06 15.50L35.38 15.50L35.38 13.82L37.39 12.53L38.50 9.74L41.09 9.74L41.09 12.48L44.59 12.48L44.59 15.50L41.09 15.50L41.09 21.29Q41.09 21.98 41.47 22.33Q41.86 22.68 42.50 22.68ZM59.50 19.03L59.50 19.03Q59.50 21.24 58.70 22.78Q57.91 24.31 56.46 25.10Q55.01 25.90 52.99 25.90L52.99 25.90Q51.12 25.90 49.67 25.09Q48.22 24.29 47.39 22.75Q46.56 21.22 46.56 19.03L46.56 19.03Q46.56 15.77 48.29 14.00Q50.02 12.24 53.06 12.24L53.06 12.24Q54.96 12.24 56.40 13.03Q57.84 13.82 58.67 15.34Q59.50 16.85 59.50 19.03ZM50.66 19.03L50.66 19.03Q50.66 20.26 50.90 21.10Q51.14 21.94 51.67 22.36Q52.20 22.78 53.04 22.78L53.04 22.78Q53.90 22.78 54.41 22.36Q54.91 21.94 55.15 21.10Q55.39 20.26 55.39 19.06L55.39 19.06Q55.39 17.81 55.15 16.99Q54.91 16.18 54.40 15.77Q53.88 15.36 53.02 15.36L53.02 15.36Q51.77 15.36 51.22 16.28Q50.66 17.21 50.66 19.03ZM79.42 20.69L79.42 20.69Q79.42 22.15 78.70 23.34Q77.98 24.53 76.54 25.21Q75.10 25.90 72.91 25.90L72.91 25.90Q71.90 25.90 71.04 25.78Q70.18 25.66 69.40 25.43Q68.62 25.20 67.87 24.84L67.87 24.84L67.87 21.12Q69.17 21.72 70.52 22.13Q71.88 22.54 73.13 22.54L73.13 22.54Q73.92 22.54 74.41 22.33Q74.90 22.13 75.13 21.78Q75.36 21.43 75.36 20.98L75.36 20.98Q75.36 20.42 74.99 20.03Q74.62 19.63 73.90 19.26Q73.18 18.89 72.14 18.41L72.14 18.41Q71.38 18.07 70.64 17.63Q69.91 17.18 69.32 16.60Q68.74 16.01 68.39 15.18Q68.04 14.35 68.04 13.22L68.04 13.22Q68.04 11.62 68.80 10.52Q69.55 9.43 70.92 8.86Q72.29 8.28 74.14 8.28L74.14 8.28Q75.65 8.28 76.92 8.62Q78.19 8.95 79.39 9.48L79.39 9.48L78.10 12.67Q76.94 12.17 75.95 11.89Q74.95 11.62 74.02 11.62L74.02 11.62Q73.37 11.62 72.94 11.80Q72.50 11.98 72.29 12.30Q72.07 12.62 72.07 13.06L72.07 13.06Q72.07 13.56 72.41 13.93Q72.74 14.30 73.46 14.69Q74.18 15.07 75.36 15.62L75.36 15.62Q76.63 16.20 77.54 16.87Q78.46 17.54 78.94 18.44Q79.42 19.34 79.42 20.69ZM87.94 12.22L87.94 12.22Q90.50 12.22 91.92 13.40Q93.34 14.59 93.34 16.92L93.34 16.92L93.34 25.66L90.53 25.66L89.74 23.88L89.64 23.88Q89.09 24.58 88.50 25.03Q87.91 25.49 87.16 25.69Q86.40 25.90 85.30 25.90L85.30 25.90Q83.54 25.90 82.39 24.86Q81.24 23.83 81.24 21.67L81.24 21.67Q81.24 19.56 82.72 18.55Q84.19 17.54 87.05 17.42L87.05 17.42L89.30 17.35L89.30 16.97Q89.30 16.01 88.81 15.58Q88.32 15.14 87.46 15.14L87.46 15.14Q86.59 15.14 85.66 15.42Q84.72 15.70 83.76 16.10L83.76 16.10L82.54 13.42Q83.62 12.84 84.98 12.53Q86.35 12.22 87.94 12.22ZM89.30 19.66L88.08 19.70Q86.57 19.75 85.97 20.24Q85.37 20.74 85.37 21.58L85.37 21.58Q85.37 22.32 85.80 22.66Q86.23 22.99 86.90 22.99L86.90 22.99Q87.91 22.99 88.61 22.38Q89.30 21.77 89.30 20.71L89.30 20.71L89.30 19.66ZM104.59 12.24L104.59 12.24Q106.68 12.24 107.96 13.38Q109.25 14.52 109.25 17.06L109.25 17.06L109.25 25.66L105.22 25.66L105.22 18.19Q105.22 16.82 104.76 16.13Q104.30 15.43 103.32 15.43L103.32 15.43Q101.86 15.43 101.33 16.52Q100.80 17.62 100.80 19.66L100.80 19.66L100.80 25.66L96.74 25.66L96.74 12.48L99.82 12.48L100.37 14.18L100.56 14.18Q100.99 13.54 101.59 13.10Q102.19 12.67 102.96 12.46Q103.73 12.24 104.59 12.24ZM122.14 21.67L122.14 21.67Q122.14 22.97 121.55 23.92Q120.96 24.86 119.71 25.38Q118.46 25.90 116.54 25.90L116.54 25.90Q115.15 25.90 114.11 25.73Q113.06 25.56 112.01 25.13L112.01 25.13L112.01 21.86Q113.16 22.37 114.42 22.66Q115.68 22.94 116.52 22.94L116.52 22.94Q117.43 22.94 117.84 22.70Q118.25 22.46 118.25 22.03L118.25 22.03Q118.25 21.72 118.04 21.48Q117.84 21.24 117.23 20.93Q116.62 20.62 115.42 20.14L115.42 20.14Q114.24 19.63 113.48 19.10Q112.73 18.58 112.36 17.83Q111.98 17.09 111.98 16.01L111.98 16.01Q111.98 14.14 113.44 13.19Q114.89 12.24 117.29 12.24L117.29 12.24Q118.56 12.24 119.69 12.50Q120.82 12.77 122.02 13.32L122.02 13.32L120.86 16.06Q119.90 15.62 118.97 15.36Q118.03 15.10 117.29 15.10L117.29 15.10Q116.62 15.10 116.26 15.28Q115.90 15.46 115.90 15.82L115.90 15.82Q115.90 16.08 116.10 16.31Q116.30 16.54 116.89 16.80Q117.48 17.06 118.61 17.54L118.61 17.54Q119.74 18 120.53 18.50Q121.32 19.01 121.73 19.75Q122.14 20.50 122.14 21.67ZM138.36 11.90L138.36 25.66L134.28 25.66L134.28 11.90L129.84 11.90L129.84 8.52L142.80 8.52L142.80 11.90L138.36 11.90ZM149.14 7.42L149.14 10.61Q149.14 11.81 149.06 12.76Q148.99 13.70 148.94 14.14L148.94 14.14L149.16 14.14Q149.59 13.44 150.14 13.03Q150.70 12.62 151.39 12.43Q152.09 12.24 152.88 12.24L152.88 12.24Q154.25 12.24 155.30 12.74Q156.36 13.25 156.97 14.30Q157.58 15.36 157.58 17.06L157.58 17.06L157.58 25.66L153.53 25.66L153.53 18.19Q153.53 16.82 153.07 16.13Q152.62 15.43 151.66 15.43L151.66 15.43Q150.22 15.43 149.68 16.52Q149.14 17.62 149.14 19.63L149.14 19.63L149.14 25.66L145.08 25.66L145.08 7.42L149.14 7.42ZM166.90 12.22L166.90 12.22Q169.46 12.22 170.88 13.40Q172.30 14.59 172.30 16.92L172.30 16.92L172.30 25.66L169.49 25.66L168.70 23.88L168.60 23.88Q168.05 24.58 167.46 25.03Q166.87 25.49 166.12 25.69Q165.36 25.90 164.26 25.90L164.26 25.90Q162.50 25.90 161.35 24.86Q160.20 23.83 160.20 21.67L160.20 21.67Q160.20 19.56 161.68 18.55Q163.15 17.54 166.01 17.42L166.01 17.42L168.26 17.35L168.26 16.97Q168.26 16.01 167.77 15.58Q167.28 15.14 166.42 15.14L166.42 15.14Q165.55 15.14 164.62 15.42Q163.68 15.70 162.72 16.10L162.72 16.10L161.50 13.42Q162.58 12.84 163.94 12.53Q165.31 12.22 166.90 12.22ZM168.26 19.66L167.04 19.70Q165.53 19.75 164.93 20.24Q164.33 20.74 164.33 21.58L164.33 21.58Q164.33 22.32 164.76 22.66Q165.19 22.99 165.86 22.99L165.86 22.99Q166.87 22.99 167.57 22.38Q168.26 21.77 168.26 20.71L168.26 20.71L168.26 19.66ZM181.61 12.22L181.61 12.22Q184.18 12.22 185.59 13.40Q187.01 14.59 187.01 16.92L187.01 16.92L187.01 25.66L184.20 25.66L183.41 23.88L183.31 23.88Q182.76 24.58 182.17 25.03Q181.58 25.49 180.83 25.69Q180.07 25.90 178.97 25.90L178.97 25.90Q177.22 25.90 176.06 24.86Q174.91 23.83 174.91 21.67L174.91 21.67Q174.91 19.56 176.39 18.55Q177.86 17.54 180.72 17.42L180.72 17.42L182.98 17.35L182.98 16.97Q182.98 16.01 182.48 15.58Q181.99 15.14 181.13 15.14L181.13 15.14Q180.26 15.14 179.33 15.42Q178.39 15.70 177.43 16.10L177.43 16.10L176.21 13.42Q177.29 12.84 178.66 12.53Q180.02 12.22 181.61 12.22ZM182.98 19.66L181.75 19.70Q180.24 19.75 179.64 20.24Q179.04 20.74 179.04 21.58L179.04 21.58Q179.04 22.32 179.47 22.66Q179.90 22.99 180.58 22.99L180.58 22.99Q181.58 22.99 182.28 22.38Q182.98 21.77 182.98 20.71L182.98 20.71L182.98 19.66ZM198.26 12.24L198.26 12.24Q200.35 12.24 201.64 13.38Q202.92 14.52 202.92 17.06L202.92 17.06L202.92 25.66L198.89 25.66L198.89 18.19Q198.89 16.82 198.43 16.13Q197.98 15.43 196.99 15.43L196.99 15.43Q195.53 15.43 195 16.52Q194.47 17.62 194.47 19.66L194.47 19.66L194.47 25.66L190.42 25.66L190.42 12.48L193.49 12.48L194.04 14.18L194.23 14.18Q194.66 13.54 195.26 13.10Q195.86 12.67 196.63 12.46Q197.40 12.24 198.26 12.24ZM212.23 12.22L212.23 12.22Q214.80 12.22 216.22 13.40Q217.63 14.59 217.63 16.92L217.63 16.92L217.63 25.66L214.82 25.66L214.03 23.88L213.94 23.88Q213.38 24.58 212.80 25.03Q212.21 25.49 211.45 25.69Q210.70 25.90 209.59 25.90L209.59 25.90Q207.84 25.90 206.69 24.86Q205.54 23.83 205.54 21.67L205.54 21.67Q205.54 19.56 207.01 18.55Q208.49 17.54 211.34 17.42L211.34 17.42L213.60 17.35L213.60 16.97Q213.60 16.01 213.11 15.58Q212.62 15.14 211.75 15.14L211.75 15.14Q210.89 15.14 209.95 15.42Q209.02 15.70 208.06 16.10L208.06 16.10L206.83 13.42Q207.91 12.84 209.28 12.53Q210.65 12.22 212.23 12.22ZM213.60 19.66L212.38 19.70Q210.86 19.75 210.26 20.24Q209.66 20.74 209.66 21.58L209.66 21.58Q209.66 22.32 210.10 22.66Q210.53 22.99 211.20 22.99L211.20 22.99Q212.21 22.99 212.90 22.38Q213.60 21.77 213.60 20.71L213.60 20.71L213.60 19.66ZM232.51 8.30L232.51 8.30Q234.10 8.30 235.36 8.76Q236.62 9.22 237.36 10.13Q238.10 11.04 238.10 12.43L238.10 12.43Q238.10 13.46 237.71 14.24Q237.31 15.02 236.64 15.60Q235.97 16.18 235.08 16.61L235.08 16.61Q235.94 17.09 236.76 17.71Q237.58 18.34 238.09 19.18Q238.61 20.02 238.61 21.17L238.61 21.17Q238.61 22.56 237.90 23.63Q237.19 24.70 235.82 25.30Q234.46 25.90 232.49 25.90L232.49 25.90Q230.47 25.90 229.10 25.32Q227.74 24.74 227.05 23.69Q226.37 22.63 226.37 21.24L226.37 21.24Q226.37 20.04 226.80 19.20Q227.23 18.36 227.95 17.75Q228.67 17.14 229.58 16.70L229.58 16.70Q228.84 16.22 228.23 15.61Q227.62 15.00 227.26 14.22Q226.90 13.44 226.90 12.41L226.90 12.41Q226.90 11.04 227.65 10.13Q228.41 9.22 229.69 8.76Q230.98 8.30 232.51 8.30ZM230.14 21.02L230.14 21.02Q230.14 21.86 230.74 22.39Q231.34 22.92 232.44 22.92L232.44 22.92Q233.66 22.92 234.25 22.43Q234.84 21.94 234.84 21.10L234.84 21.10Q234.84 20.50 234.49 20.03Q234.14 19.56 233.65 19.20Q233.16 18.84 232.70 18.60L232.70 18.60L232.39 18.41Q231.74 18.72 231.23 19.10Q230.71 19.49 230.42 19.96Q230.14 20.42 230.14 21.02ZM232.49 11.26L232.49 11.26Q231.74 11.26 231.24 11.65Q230.74 12.05 230.74 12.77L230.74 12.77Q230.74 13.25 230.96 13.63Q231.19 14.02 231.60 14.33Q232.01 14.64 232.49 14.88L232.49 14.88Q233.16 14.54 233.71 14.06Q234.26 13.58 234.26 12.77L234.26 12.77Q234.26 12.05 233.75 11.65Q233.23 11.26 232.49 11.26ZM252.43 17.09L252.43 17.09Q252.43 19.85 251.84 21.82Q251.26 23.78 249.94 24.84Q248.62 25.90 246.36 25.90L246.36 25.90Q243.19 25.90 241.74 23.57Q240.29 21.24 240.29 17.09L240.29 17.09Q240.29 14.30 240.86 12.34Q241.44 10.37 242.78 9.31Q244.13 8.26 246.36 8.26L246.36 8.26Q248.45 8.26 249.79 9.31Q251.14 10.37 251.78 12.34Q252.43 14.30 252.43 17.09ZM244.34 17.09L244.34 17.09Q244.34 19.85 244.76 21.23Q245.18 22.61 246.36 22.61L246.36 22.61Q247.51 22.61 247.94 21.24Q248.38 19.87 248.38 17.09L248.38 17.09Q248.38 15.26 248.20 14.03Q248.02 12.79 247.58 12.17Q247.15 11.54 246.36 11.54L246.36 11.54Q245.57 11.54 245.14 12.17Q244.70 12.79 244.52 14.02Q244.34 15.24 244.34 17.09ZM266.30 17.09L266.30 17.09Q266.30 19.85 265.72 21.82Q265.13 23.78 263.81 24.84Q262.49 25.90 260.23 25.90L260.23 25.90Q257.06 25.90 255.61 23.57Q254.16 21.24 254.16 17.09L254.16 17.09Q254.16 14.30 254.74 12.34Q255.31 10.37 256.66 9.31Q258 8.26 260.23 8.26L260.23 8.26Q262.32 8.26 263.66 9.31Q265.01 10.37 265.66 12.34Q266.30 14.30 266.30 17.09ZM258.22 17.09L258.22 17.09Q258.22 19.85 258.64 21.23Q259.06 22.61 260.23 22.61L260.23 22.61Q261.38 22.61 261.82 21.24Q262.25 19.87 262.25 17.09L262.25 17.09Q262.25 15.26 262.07 14.03Q261.89 12.79 261.46 12.17Q261.02 11.54 260.23 11.54L260.23 11.54Q259.44 11.54 259.01 12.17Q258.58 12.79 258.40 14.02Q258.22 15.24 258.22 17.09ZM282.98 12.24L282.98 12.24Q285.07 12.24 286.36 13.38Q287.64 14.52 287.64 17.06L287.64 17.06L287.64 25.66L283.61 25.66L283.61 18.19Q283.61 16.82 283.15 16.13Q282.70 15.43 281.71 15.43L281.71 15.43Q280.25 15.43 279.72 16.52Q279.19 17.62 279.19 19.66L279.19 19.66L279.19 25.66L275.14 25.66L275.14 12.48L278.21 12.48L278.76 14.18L278.95 14.18Q279.38 13.54 279.98 13.10Q280.58 12.67 281.35 12.46Q282.12 12.24 282.98 12.24ZM303.31 19.03L303.31 19.03Q303.31 21.24 302.52 22.78Q301.73 24.31 300.28 25.10Q298.82 25.90 296.81 25.90L296.81 25.90Q294.94 25.90 293.48 25.09Q292.03 24.29 291.20 22.75Q290.38 21.22 290.38 19.03L290.38 19.03Q290.38 15.77 292.10 14.00Q293.83 12.24 296.88 12.24L296.88 12.24Q298.78 12.24 300.22 13.03Q301.66 13.82 302.48 15.34Q303.31 16.85 303.31 19.03ZM294.48 19.03L294.48 19.03Q294.48 20.26 294.72 21.10Q294.96 21.94 295.49 22.36Q296.02 22.78 296.86 22.78L296.86 22.78Q297.72 22.78 298.22 22.36Q298.73 21.94 298.97 21.10Q299.21 20.26 299.21 19.06L299.21 19.06Q299.21 17.81 298.97 16.99Q298.73 16.18 298.21 15.77Q297.70 15.36 296.83 15.36L296.83 15.36Q295.58 15.36 295.03 16.28Q294.48 17.21 294.48 19.03ZM313.75 12.24L313.75 12.24Q314.06 12.24 314.45 12.28Q314.83 12.31 315.05 12.36L315.05 12.36L314.71 16.15Q314.50 16.10 314.16 16.07Q313.82 16.03 313.42 16.03L313.42 16.03Q312.67 16.03 311.90 16.28Q311.14 16.54 310.64 17.18Q310.15 17.83 310.15 19.06L310.15 19.06L310.15 25.66L306.10 25.66L306.10 12.48L309.14 12.48L309.77 14.64L309.94 14.64Q310.51 13.63 311.52 12.94Q312.53 12.24 313.75 12.24ZM332.93 12.24L332.93 12.24Q335.18 12.24 336.35 13.38Q337.51 14.52 337.51 17.06L337.51 17.06L337.51 25.66L333.48 25.66L333.48 18.19Q333.48 16.75 333.04 16.09Q332.59 15.43 331.68 15.43L331.68 15.43Q330.41 15.43 329.88 16.43Q329.35 17.42 329.35 19.27L329.35 19.27L329.35 25.66L325.32 25.66L325.32 18.19Q325.32 16.78 324.89 16.10Q324.46 15.43 323.54 15.43L323.54 15.43Q322.66 15.43 322.14 15.92Q321.62 16.42 321.42 17.35Q321.22 18.29 321.22 19.66L321.22 19.66L321.22 25.66L317.16 25.66L317.16 12.48L320.23 12.48L320.81 14.14L320.98 14.14Q321.36 13.51 321.94 13.09Q322.51 12.67 323.26 12.46Q324 12.24 324.86 12.24L324.86 12.24Q326.30 12.24 327.29 12.72Q328.27 13.20 328.82 14.11L328.82 14.11L329.06 14.11Q329.69 13.18 330.72 12.71Q331.75 12.24 332.93 12.24ZM346.82 12.22L346.82 12.22Q349.39 12.22 350.81 13.40Q352.22 14.59 352.22 16.92L352.22 16.92L352.22 25.66L349.42 25.66L348.62 23.88L348.53 23.88Q347.98 24.58 347.39 25.03Q346.80 25.49 346.04 25.69Q345.29 25.90 344.18 25.90L344.18 25.90Q342.43 25.90 341.28 24.86Q340.13 23.83 340.13 21.67L340.13 21.67Q340.13 19.56 341.60 18.55Q343.08 17.54 345.94 17.42L345.94 17.42L348.19 17.35L348.19 16.97Q348.19 16.01 347.70 15.58Q347.21 15.14 346.34 15.14L346.34 15.14Q345.48 15.14 344.54 15.42Q343.61 15.70 342.65 16.10L342.65 16.10L341.42 13.42Q342.50 12.84 343.87 12.53Q345.24 12.22 346.82 12.22ZM348.19 19.66L346.97 19.70Q345.46 19.75 344.86 20.24Q344.26 20.74 344.26 21.58L344.26 21.58Q344.26 22.32 344.69 22.66Q345.12 22.99 345.79 22.99L345.79 22.99Q346.80 22.99 347.50 22.38Q348.19 21.77 348.19 20.71L348.19 20.71L348.19 19.66ZM359.69 7.42L359.69 25.66L355.63 25.66L355.63 7.42L359.69 7.42Z"/></svg>