<svg xmlns="http://www.w3.org/2000/svg" xmlns:xlink="http://www.w3.org/1999/xlink" width="89.953125" height="26.6953125"><path fill="black" d="M5.53 6.16L5.53 6.16L5.53 12.54L7.05 12.45Q7.83 12.40 8.33 12.08Q8.84 11.77 9.05 11.25Q9.26 10.73 9.33 10.32Q9.40 9.91 9.40 9.40L9.40 9.40Q9.40 8.46 8.92 7.56Q8.44 6.66 7.62 6.26L7.62 6.26Q7.31 6.12 6.75 6.12L6.75 6.12Q6.56 6.12 6.14 6.14Q5.72 6.16 5.53 6.16ZM12.59 16.80L12.59 16.80Q12.59 17.44 12.29 18.08Q12 18.73 11.43 19.32Q10.85 19.92 9.80 20.30Q8.74 20.67 7.36 20.67L7.36 20.67Q7.20 20.67 6.42 20.66Q5.65 20.65 4.27 20.64Q2.88 20.63 1.27 20.63L1.27 20.63L1.27 20.25L1.69 20.18Q2.11 20.13 2.57 19.93Q3.02 19.73 3.07 19.48L3.07 19.48Q3.07 18.30 3.07 14.95Q3.07 11.60 3.07 10.05L3.07 10.05Q3.07 7.59 3.07 6.70L3.07 6.70Q3.02 6.45 2.30 6.26L2.30 6.26L1.59 6.02L1.59 5.63Q2.98 5.63 4.98 5.64Q6.98 5.65 7.57 5.65L7.57 5.65Q8.46 5.65 9.34 6.07Q10.22 6.49 10.88 7.37Q11.53 8.25 11.53 9.35L11.53 9.35Q11.53 9.38 11.53 9.40L11.53 9.40Q11.51 10.64 10.65 11.68Q9.80 12.73 8.27 12.77L8.27 12.77Q12.59 13.17 12.59 16.80ZM7.03 13.20L5.46 13.17L5.48 19.01Q5.48 19.78 5.72 19.98Q5.95 20.18 6.54 20.18L6.54 20.18Q8.48 20.18 9.35 19.44Q10.22 18.70 10.22 17.02L10.22 17.02Q10.22 13.50 7.03 13.20L7.03 13.20ZM17.20 15.16L17.20 15.16L21.42 15.14Q21.45 14.74 21.45 14.39L21.45 14.39Q21.45 13.66 21.33 13.22L21.33 13.22Q21.14 12.47 20.57 11.99Q19.99 11.51 19.15 11.51L19.15 11.51Q18.28 11.51 17.79 12.49Q17.30 13.48 17.20 15.16ZM23.51 15.49L17.18 15.52L17.18 16.03Q17.18 17.72 17.80 19.08Q18.42 20.44 19.59 20.44L19.59 20.44Q20.95 20.44 21.75 19.64Q22.55 18.84 22.85 17.98L22.85 17.98L23.51 18.45Q23.16 19.34 22.15 20.17Q21.14 21 19.50 21L19.50 21Q17.51 21 16.18 19.76Q14.86 18.52 14.86 16.15L14.86 16.15Q14.86 14.77 15.32 13.72Q15.77 12.68 16.54 12.13Q17.30 11.58 18.07 11.32Q18.84 11.06 19.66 11.06L19.66 11.06Q20.93 11.06 22.02 11.74Q23.11 12.42 23.44 13.95L23.44 13.95Q23.53 14.41 23.53 14.88L23.53 14.88Q23.53 15.14 23.51 15.49L23.51 15.49ZM25.76 11.86L25.76 11.48Q25.97 11.51 26.20 11.51L26.20 11.51Q27.52 11.51 28.97 11.04L28.97 11.04L29.16 13.36Q30.63 11.11 32.32 11.09L32.32 11.09Q33.12 11.09 33.74 11.34Q34.36 11.60 34.71 11.99Q35.06 12.38 35.29 12.89Q35.51 13.41 35.59 13.86Q35.67 14.32 35.67 14.79L35.67 14.79L35.67 19.59Q35.67 19.83 36.23 20.03Q36.80 20.23 37.22 20.23L37.22 20.23L37.22 20.60Q34.85 20.51 34.29 20.51L34.29 20.51Q33.09 20.51 32.18 20.60L32.18 20.60L32.18 20.23Q32.65 20.20 33.19 20.02Q33.73 19.83 33.73 19.62L33.73 19.62Q33.75 19.62 33.75 14.86L33.75 14.86Q33.75 13.57 33.29 12.77Q32.84 11.98 31.92 11.98L31.92 11.98Q31.17 11.98 30.30 12.70Q29.44 13.43 29.11 14.48L29.11 14.48L29.11 19.71Q29.11 20.09 30.75 20.23L30.75 20.23L30.75 20.60Q29.79 20.53 28.20 20.53L28.20 20.53Q26.67 20.53 25.76 20.60L25.76 20.60L25.76 20.23Q26.23 20.23 26.73 20.04Q27.23 19.85 27.23 19.62L27.23 19.62Q27.28 18.19 27.28 15.84L27.28 15.84Q27.28 13.62 27.23 12.19L27.23 12.19Q26.79 11.95 25.76 11.86L25.76 11.86ZM45.42 10.95L45.28 11.55L42.80 11.55Q42.80 11.55 42.80 17.93L42.80 17.93Q42.80 18.94 43.11 19.55Q43.43 20.16 43.97 20.16L43.97 20.16Q44.58 20.16 44.99 19.66Q45.40 19.17 45.75 18.19L45.75 18.19L46.27 18.45Q46.05 19.01 45.89 19.31Q45.73 19.62 45.42 20.02Q45.12 20.41 44.67 20.59Q44.23 20.77 43.59 20.77L43.59 20.77Q42.19 20.77 41.48 19.97L41.48 19.97Q41.16 19.62 41.02 18.97Q40.88 18.33 40.88 17.09L40.88 17.09L40.88 11.55L38.91 11.55L38.91 11.25Q39.47 11.25 40.28 10.93Q41.09 10.62 41.39 10.24L41.39 10.24Q41.70 9.84 42 9.11Q42.30 8.37 42.30 7.64L42.30 7.64L42.84 7.64Q42.75 8.39 42.75 9.94L42.75 9.94Q42.75 10.10 42.75 10.45Q42.75 10.80 42.75 10.99L42.75 10.99L45.42 10.95ZM48.19 6.12L48.19 5.72L48.21 5.72Q50.11 5.72 51.61 5.20L51.61 5.20L51.56 13.41Q51.91 12.82 52.11 12.59Q52.31 12.35 52.71 11.92Q53.11 11.48 53.61 11.29Q54.12 11.09 54.77 11.09L54.77 11.09Q55.62 11.09 56.27 11.48Q56.93 11.88 57.26 12.47Q57.59 13.05 57.74 13.61Q57.89 14.16 57.89 14.55L57.89 14.55Q57.89 15.26 57.89 16.96Q57.89 18.66 57.89 19.17L57.89 19.17Q57.89 19.71 57.89 19.73L57.89 19.73Q57.89 19.95 58.22 20.06Q58.55 20.18 58.75 20.19Q58.95 20.20 59.48 20.23L59.48 20.23L59.48 20.60Q58.50 20.51 56.95 20.51L56.95 20.51Q55.34 20.51 54.45 20.60L54.45 20.60L54.45 20.23Q54.59 20.20 54.79 20.20Q54.98 20.20 55.20 20.18Q55.41 20.16 55.58 20.10Q55.76 20.04 55.86 19.96Q55.97 19.88 55.97 19.76L55.97 19.76Q55.97 19.76 55.97 19.73L55.97 19.73L55.97 14.16Q55.97 12 54.38 11.98L54.38 11.98Q53.41 11.98 52.86 12.43Q52.31 12.89 51.56 13.99L51.56 13.99L51.56 19.73Q51.56 19.97 51.86 20.09Q52.15 20.20 52.51 20.20Q52.88 20.20 53.18 20.23L53.18 20.23L53.18 20.60Q52.13 20.51 50.58 20.51L50.58 20.51Q49.10 20.51 48.19 20.60L48.19 20.60L48.19 20.23Q48.61 20.23 49.15 20.09Q49.69 19.95 49.69 19.73L49.69 19.73Q49.69 18.87 49.72 16.10Q49.76 13.34 49.76 11.74L49.76 11.74Q49.76 8.39 49.69 6.59L49.69 6.59Q49.52 6.42 49.29 6.33Q49.05 6.23 48.88 6.21Q48.70 6.19 48.19 6.12L48.19 6.12ZM70.57 18.66L70.57 18.66L70.92 18.87Q70.62 20.77 68.67 20.77L68.67 20.77Q67.88 20.77 67.48 20.24Q67.08 19.71 67.01 18.98L67.01 18.98Q66.54 19.52 66.29 19.76Q66.05 19.99 65.37 20.40Q64.69 20.81 64.01 20.81L64.01 20.81Q62.84 20.81 61.99 20.16Q61.15 19.50 61.15 18.07L61.15 18.07Q61.15 17.44 61.42 16.97Q61.69 16.50 62.17 16.21Q62.65 15.91 63.14 15.73Q63.63 15.54 64.29 15.46Q64.95 15.38 65.38 15.35Q65.81 15.33 66.34 15.32Q66.87 15.30 66.91 15.30L66.91 15.30Q66.98 15.30 66.98 13.57L66.98 13.57Q66.98 11.34 64.95 11.34L64.95 11.34Q64.24 11.34 63.82 11.65Q63.40 11.95 63.30 12.38L63.30 12.38Q63.98 12.38 63.98 13.41L63.98 13.41Q63.98 14.04 63.56 14.31Q63.14 14.58 62.74 14.58L62.74 14.58Q62.30 14.58 61.95 14.17Q61.59 13.76 61.59 13.27L61.59 13.27Q61.59 12.40 62.70 11.58L62.70 11.58Q63.59 10.90 65.16 10.90L65.16 10.90Q66.63 10.90 67.78 11.81Q68.93 12.73 68.93 14.30L68.93 14.30Q68.93 15.07 68.88 16.45Q68.84 17.84 68.84 18.45L68.84 18.45Q68.84 20.02 69.56 19.99L69.56 19.99Q69.98 19.99 70.20 19.69Q70.41 19.38 70.57 18.66ZM66.91 18.40L66.91 18.40L66.91 15.63Q66.09 15.70 65.40 15.79Q64.71 15.87 64.22 16.04Q63.73 16.22 63.45 16.64Q63.16 17.06 63.16 17.81L63.16 17.81Q63.16 18.82 63.67 19.29Q64.17 19.76 64.95 19.76L64.95 19.76Q66.16 19.76 66.91 18.40ZM78.56 11.09L78.56 11.09Q80.98 11.09 81.52 13.36L81.52 13.36Q81.98 12.61 82.32 12.20Q82.66 11.79 83.25 11.44Q83.84 11.09 84.56 11.09L84.56 11.09Q87.66 11.09 87.66 14.81L87.66 14.81L87.66 19.62Q87.66 19.92 87.94 20.05Q88.22 20.18 88.68 20.19Q89.13 20.20 89.23 20.23L89.23 20.23L89.23 20.60Q88.55 20.53 87.05 20.53L87.05 20.53Q85.43 20.53 84.19 20.60L84.19 20.60L84.19 20.23Q85.73 20.09 85.73 19.73L85.73 19.73Q85.76 19.73 85.76 14.39L85.76 14.39Q85.76 13.10 85.41 12.54Q85.05 11.98 84.14 11.98L84.14 11.98Q83.48 11.98 82.88 12.42Q82.27 12.87 81.98 13.31L81.98 13.31L81.70 13.76L81.70 19.73Q81.70 19.92 82.27 20.06Q82.83 20.20 83.32 20.23L83.32 20.23L83.32 20.60Q82.34 20.53 80.77 20.53L80.77 20.53Q79.05 20.53 78.05 20.60L78.05 20.60L78.05 20.23Q79.59 20.16 79.59 19.73L79.59 19.73L79.59 14.37Q79.59 13.05 79.31 12.52Q79.03 11.98 78.14 11.98L78.14 11.98Q77.55 11.98 76.79 12.64Q76.03 13.31 75.70 14.25L75.70 14.25L75.70 19.73Q75.70 20.16 77.32 20.23L77.32 20.23L77.32 20.60Q76.01 20.53 74.51 20.53L74.51 20.53Q73.17 20.53 72.33 20.60L72.33 20.60L72.33 20.23Q72.70 20.25 73.27 20.17Q73.83 20.09 73.83 19.73L73.83 19.73Q73.90 16.62 73.90 14.86L73.90 14.86Q73.90 12.91 73.83 11.86L73.83 11.86Q73.80 11.60 72.96 11.60L72.96 11.60Q72.66 11.60 72.33 11.63L72.33 11.63L72.33 11.25Q72.59 11.27 72.87 11.27L72.87 11.27Q74.32 11.27 75.49 10.78L75.49 10.78L75.80 13.29Q76.01 12.98 76.20 12.68Q76.38 12.38 76.64 12.08Q76.90 11.79 77.17 11.58Q77.44 11.37 77.80 11.23Q78.16 11.09 78.56 11.09Z"/></svg>