<svg xmlns="http://www.w3.org/2000/svg" xmlns:xlink="http://www.w3.org/1999/xlink" width="73.728" height="24"><path fill="black" d="M5.23 1.75L0.60 1.75L0.60 0.24L12.02 0.24L12.02 1.75L7.01 1.75L7.01 15.43L5.23 15.43L5.23 1.75ZM21.41 8.81L21.41 15.43L20.21 15.43L19.97 14.26Q18.50 15.72 16.32 15.72L16.32 15.72Q14.66 15.72 13.68 14.80Q12.70 13.87 12.70 12.34L12.70 12.34Q12.70 8.59 18.17 8.59L18.17 8.59L19.82 8.59L19.82 8.45Q19.82 5.59 17.04 5.59L17.04 5.59Q15.46 5.59 13.99 6.65L13.99 6.65L13.46 5.76Q15.12 4.25 17.50 4.25L17.50 4.25Q19.39 4.25 20.40 5.42Q21.41 6.60 21.41 8.81L21.41 8.81ZM19.82 12.72L19.82 9.77L18.36 9.77Q14.42 9.77 14.42 12.19L14.42 12.19Q14.42 13.22 15.04 13.81Q15.65 14.40 16.75 14.40L16.75 14.40Q17.71 14.40 18.60 13.92Q19.49 13.44 19.82 12.72L19.82 12.72ZM25.25 4.54L26.83 4.54L26.83 17.02Q26.83 18.43 26.12 19.22Q25.42 20.02 24.17 20.02L24.17 20.02Q22.85 20.02 21.70 19.18L21.70 19.18L22.27 18.29Q23.02 18.72 23.83 18.72L23.83 18.72Q25.25 18.72 25.25 16.94L25.25 16.94L25.25 4.54ZM24.96 0.98L24.96 0.98Q24.96 0.58 25.27 0.26Q25.58-0.05 26.02-0.05L26.02-0.05Q26.45-0.05 26.76 0.26Q27.07 0.58 27.07 0.98L27.07 0.98Q27.07 1.44 26.76 1.74Q26.45 2.04 26.02 2.04L26.02 2.04Q25.56 2.04 25.26 1.74Q24.96 1.44 24.96 0.98ZM38.74 8.81L38.74 15.43L37.54 15.43L37.30 14.26Q35.83 15.72 33.65 15.72L33.65 15.72Q31.99 15.72 31.01 14.80Q30.02 13.87 30.02 12.34L30.02 12.34Q30.02 8.59 35.50 8.59L35.50 8.59L37.15 8.59L37.15 8.45Q37.15 5.59 34.37 5.59L34.37 5.59Q32.78 5.59 31.32 6.65L31.32 6.65L30.79 5.76Q32.45 4.25 34.82 4.25L34.82 4.25Q36.72 4.25 37.73 5.42Q38.74 6.60 38.74 8.81L38.74 8.81ZM37.15 12.72L37.15 9.77L35.69 9.77Q31.75 9.77 31.75 12.19L31.75 12.19Q31.75 13.22 32.36 13.81Q32.98 14.40 34.08 14.40L34.08 14.40Q35.04 14.40 35.93 13.92Q36.82 13.44 37.15 12.72L37.15 12.72ZM48.67 6.48L46.01 15.43L44.28 15.43L40.68 4.54L42.41 4.54L45.14 13.56L47.76 4.54L49.61 4.54L52.10 13.56L54.84 4.54L56.57 4.54L52.94 15.43L51.22 15.43L48.67 6.48ZM66.55 8.81L66.55 15.43L65.35 15.43L65.11 14.26Q63.65 15.72 61.46 15.72L61.46 15.72Q59.81 15.72 58.82 14.80Q57.84 13.87 57.84 12.34L57.84 12.34Q57.84 8.59 63.31 8.59L63.31 8.59L64.97 8.59L64.97 8.45Q64.97 5.59 62.18 5.59L62.18 5.59Q60.60 5.59 59.14 6.65L59.14 6.65L58.61 5.76Q60.26 4.25 62.64 4.25L62.64 4.25Q64.54 4.25 65.54 5.42Q66.55 6.60 66.55 8.81L66.55 8.81ZM64.97 12.72L64.97 9.77L63.50 9.77Q59.57 9.77 59.57 12.19L59.57 12.19Q59.57 13.22 60.18 13.81Q60.79 14.40 61.90 14.40L61.90 14.40Q62.86 14.40 63.74 13.92Q64.63 13.44 64.97 12.72L64.97 12.72ZM70.25 0.82L71.86-0.05L71.86 15.43L70.25 15.43L70.25 0.82Z"/></svg>