<svg xmlns="http://www.w3.org/2000/svg" xmlns:xlink="http://www.w3.org/1999/xlink" width="341.52" height="31.296"><path fill="black" d="M6.50 23.93L1.20 23.93L1.20 23.45L2.23 23.45Q2.83 23.45 3.12 23.30Q3.41 23.16 3.49 22.70Q3.58 22.25 3.58 21.34L3.58 21.34L3.58 9.38Q3.58 8.45 3.49 8.00Q3.41 7.56 3.12 7.42Q2.83 7.27 2.23 7.27L2.23 7.27L1.20 7.27L1.20 6.79L4.08 6.79L13.61 22.61L13.61 9.38Q13.61 8.45 13.52 8.00Q13.44 7.56 13.15 7.42Q12.86 7.27 12.26 7.27L12.26 7.27L11.28 7.27L11.28 6.79L16.54 6.79L16.54 7.27L15.55 7.27Q14.95 7.27 14.66 7.42Q14.38 7.56 14.29 8.00Q14.21 8.45 14.21 9.38L14.21 9.38L14.21 23.93L13.61 23.93L4.18 8.26L4.18 21.34Q4.18 22.25 4.26 22.70Q4.34 23.16 4.63 23.30Q4.92 23.45 5.52 23.45L5.52 23.45L6.50 23.45L6.50 23.93ZM23.90 24.17L23.90 24.17Q21.67 24.17 20.39 22.54Q19.10 20.90 19.10 17.52L19.10 17.52Q19.10 14.16 20.35 12.54Q21.60 10.92 24.02 10.92L24.02 10.92Q26.30 10.92 27.52 12.49Q28.73 14.06 28.73 17.52L28.73 17.52Q28.73 20.90 27.50 22.54Q26.28 24.17 23.90 24.17ZM23.90 23.57L23.90 23.57Q25.44 23.57 26.35 22.81Q27.26 22.06 27.66 20.70Q28.06 19.34 28.06 17.52L28.06 17.52Q28.06 14.45 27.08 12.98Q26.11 11.52 24.02 11.52L24.02 11.52Q21.77 11.52 20.77 13.02Q19.78 14.52 19.78 17.52L19.78 17.52Q19.78 20.38 20.77 21.97Q21.77 23.57 23.90 23.57ZM35.14 24.17L35.14 24.17Q33.74 24.17 33.16 23.35Q32.57 22.54 32.57 20.54L32.57 20.54L32.57 11.66L30.70 11.66L30.70 11.18Q31.20 11.18 31.57 11.05Q31.94 10.92 32.18 10.70L32.18 10.70Q32.42 10.49 32.59 9.91Q32.76 9.34 32.76 8.16L32.76 8.16L33.24 8.16L33.24 11.06L36.29 11.06L36.29 11.66L33.24 11.66L33.24 20.76Q33.24 22.30 33.67 22.93Q34.10 23.57 35.11 23.57L35.11 23.57Q35.52 23.57 35.82 23.54Q36.12 23.52 36.50 23.45L36.50 23.45L36.50 24.05Q36.12 24.12 35.80 24.14Q35.47 24.17 35.14 24.17ZM43.51 24.17L43.51 24.17Q41.28 24.17 40.00 22.54Q38.71 20.90 38.71 17.52L38.71 17.52Q38.71 14.16 39.96 12.54Q41.21 10.92 43.63 10.92L43.63 10.92Q45.91 10.92 47.12 12.49Q48.34 14.06 48.34 17.52L48.34 17.52Q48.34 20.90 47.11 22.54Q45.89 24.17 43.51 24.17ZM43.51 23.57L43.51 23.57Q45.05 23.57 45.96 22.81Q46.87 22.06 47.27 20.70Q47.66 19.34 47.66 17.52L47.66 17.52Q47.66 14.45 46.69 12.98Q45.72 11.52 43.63 11.52L43.63 11.52Q41.38 11.52 40.38 13.02Q39.38 14.52 39.38 17.52L39.38 17.52Q39.38 20.38 40.38 21.97Q41.38 23.57 43.51 23.57ZM68.16 24.17L68.16 24.17Q67.01 24.17 66.17 23.89Q65.33 23.62 64.78 23.15Q64.22 22.68 63.96 22.09Q63.70 21.50 63.70 20.90L63.70 20.90Q63.70 20.62 63.76 20.40Q63.82 20.18 63.92 20.06Q64.03 19.94 64.20 19.94L64.20 19.94Q64.20 21.14 64.66 21.95Q65.11 22.75 66 23.16Q66.89 23.57 68.16 23.57L68.16 23.57Q70.01 23.57 70.86 22.54Q71.71 21.50 71.71 19.90L71.71 19.90Q71.71 18.91 71.33 18.18Q70.94 17.45 70.09 16.79Q69.24 16.13 67.87 15.36L67.87 15.36Q66.60 14.64 65.81 13.99Q65.02 13.34 64.66 12.53Q64.30 11.71 64.30 10.51L64.30 10.51Q64.30 9.41 64.80 8.52Q65.30 7.63 66.24 7.09Q67.18 6.55 68.42 6.55L68.42 6.55Q69.53 6.55 70.38 6.91Q71.23 7.27 71.71 7.86Q72.19 8.45 72.19 9.19L72.19 9.19Q72.19 9.65 72.07 9.89Q71.95 10.13 71.69 10.13L71.69 10.13Q71.69 9.10 71.30 8.44Q70.92 7.78 70.19 7.46Q69.46 7.15 68.40 7.15L68.40 7.15Q66.70 7.15 65.83 8.15Q64.97 9.14 64.97 10.63L64.97 10.63Q64.97 11.66 65.34 12.35Q65.71 13.03 66.41 13.57Q67.10 14.11 68.11 14.71L68.11 14.71Q69.22 15.36 70.19 16.01Q71.16 16.66 71.77 17.56Q72.38 18.46 72.38 19.87L72.38 19.87Q72.38 21.10 71.92 22.07Q71.45 23.04 70.51 23.60Q69.58 24.17 68.16 24.17ZM80.04 24.17L80.04 24.17Q77.81 24.17 76.50 22.48Q75.19 20.78 75.19 17.64L75.19 17.64Q75.19 14.23 76.39 12.58Q77.59 10.92 79.82 10.92L79.82 10.92Q81.82 10.92 82.96 12.52Q84.10 14.11 84.10 16.97L84.10 16.97L84.10 17.30L75.89 17.30Q75.86 20.42 77.03 22.00Q78.19 23.57 80.06 23.57L80.06 23.57Q81.43 23.57 82.27 22.96Q83.11 22.34 83.52 21.46L83.52 21.46Q83.64 21.53 83.69 21.62Q83.74 21.72 83.74 21.89L83.74 21.89Q83.74 22.30 83.32 22.84Q82.90 23.38 82.08 23.77Q81.26 24.17 80.04 24.17ZM75.94 16.73L83.42 16.73Q83.40 14.40 82.49 12.96Q81.58 11.52 79.80 11.52L79.80 11.52Q77.78 11.52 76.92 12.94Q76.06 14.35 75.94 16.73L75.94 16.73ZM91.82 23.93L86.57 23.93L86.57 23.45L87.10 23.45Q87.82 23.45 88.16 23.35Q88.51 23.26 88.61 22.86Q88.70 22.46 88.70 21.58L88.70 21.58L88.70 13.32Q88.70 12.48 88.61 12.11Q88.51 11.74 88.13 11.64Q87.74 11.54 86.86 11.54L86.86 11.54L86.42 11.54L86.42 11.06L89.28 11.06L89.35 13.75L89.40 13.75Q89.69 13.06 90.11 12.40Q90.53 11.74 91.18 11.30Q91.82 10.87 92.74 10.87L92.74 10.87Q93.65 10.87 94.20 11.34Q94.75 11.81 94.75 12.50L94.75 12.50Q94.75 12.82 94.63 13.06Q94.51 13.30 94.25 13.30L94.25 13.30Q94.25 12.60 94.07 12.20Q93.89 11.81 93.53 11.64Q93.17 11.47 92.62 11.47L92.62 11.47Q91.92 11.47 91.32 11.93Q90.72 12.38 90.29 13.18Q89.86 13.97 89.62 14.99Q89.38 16.01 89.38 17.11L89.38 17.11L89.38 21.58Q89.38 22.46 89.48 22.86Q89.59 23.26 89.93 23.35Q90.26 23.45 90.98 23.45L90.98 23.45L91.82 23.45L91.82 23.93ZM101.66 23.93L95.86 23.93L95.86 23.45L96.58 23.45Q97.46 23.45 97.85 23.35Q98.23 23.26 98.33 22.88Q98.42 22.51 98.42 21.67L98.42 21.67L98.42 13.42Q98.42 12.53 98.33 12.13Q98.23 11.74 97.88 11.64Q97.54 11.54 96.82 11.54L96.82 11.54L96.38 11.54L96.38 11.06L99.10 11.06L99.10 21.67Q99.10 22.51 99.19 22.88Q99.29 23.26 99.68 23.35Q100.08 23.45 100.94 23.45L100.94 23.45L101.66 23.45L101.66 23.93ZM98.64 8.14L98.64 8.14Q98.40 8.14 98.24 7.94Q98.09 7.75 98.09 7.18L98.09 7.18Q98.09 6.62 98.24 6.42Q98.40 6.22 98.64 6.22L98.64 6.22Q98.90 6.22 99.05 6.42Q99.19 6.62 99.19 7.18L99.19 7.18Q99.19 7.75 99.05 7.94Q98.90 8.14 98.64 8.14ZM108.65 23.93L102.70 23.93L102.70 23.45L103.46 23.45Q104.18 23.45 104.53 23.35Q104.88 23.26 104.98 22.86Q105.07 22.46 105.07 21.58L105.07 21.58L105.07 11.66L102.79 11.66L102.79 11.06L105.07 11.06L105.07 9.53Q105.07 7.56 106.03 6.48Q106.99 5.40 108.70 5.40L108.70 5.40Q109.46 5.40 110.02 5.66Q110.57 5.93 110.87 6.35Q111.17 6.77 111.17 7.20L111.17 7.20Q111.17 7.51 111.08 7.73Q111.00 7.94 110.88 8.04Q110.76 8.14 110.64 8.14L110.64 8.14Q110.64 7.54 110.47 7.06Q110.30 6.58 109.88 6.29Q109.46 6 108.65 6L108.65 6Q107.26 6 106.50 6.95Q105.74 7.90 105.74 9.53L105.74 9.53L105.74 11.06L109.20 11.06L109.20 11.66L105.74 11.66L105.74 21.58Q105.74 22.46 105.85 22.86Q105.96 23.26 106.30 23.35Q106.63 23.45 107.35 23.45L107.35 23.45L108.65 23.45L108.65 23.93ZM127.80 24.17L127.80 24.17Q126.65 24.17 125.81 23.89Q124.97 23.62 124.42 23.15Q123.86 22.68 123.60 22.09Q123.34 21.50 123.34 20.90L123.34 20.90Q123.34 20.62 123.40 20.40Q123.46 20.18 123.56 20.06Q123.67 19.94 123.84 19.94L123.84 19.94Q123.84 21.14 124.30 21.95Q124.75 22.75 125.64 23.16Q126.53 23.57 127.80 23.57L127.80 23.57Q129.65 23.57 130.50 22.54Q131.35 21.50 131.35 19.90L131.35 19.90Q131.35 18.91 130.97 18.18Q130.58 17.45 129.73 16.79Q128.88 16.13 127.51 15.36L127.51 15.36Q126.24 14.64 125.45 13.99Q124.66 13.34 124.30 12.53Q123.94 11.71 123.94 10.51L123.94 10.51Q123.94 9.41 124.44 8.52Q124.94 7.63 125.88 7.09Q126.82 6.55 128.06 6.55L128.06 6.55Q129.17 6.55 130.02 6.91Q130.87 7.27 131.35 7.86Q131.83 8.45 131.83 9.19L131.83 9.19Q131.83 9.65 131.71 9.89Q131.59 10.13 131.33 10.13L131.33 10.13Q131.33 9.10 130.94 8.44Q130.56 7.78 129.83 7.46Q129.10 7.15 128.04 7.15L128.04 7.15Q126.34 7.15 125.47 8.15Q124.61 9.14 124.61 10.63L124.61 10.63Q124.61 11.66 124.98 12.35Q125.35 13.03 126.05 13.57Q126.74 14.11 127.75 14.71L127.75 14.71Q128.86 15.36 129.83 16.01Q130.80 16.66 131.41 17.56Q132.02 18.46 132.02 19.87L132.02 19.87Q132.02 21.10 131.56 22.07Q131.09 23.04 130.15 23.60Q129.22 24.17 127.80 24.17ZM139.85 23.93L134.04 23.93L134.04 23.45L134.76 23.45Q135.65 23.45 136.03 23.35Q136.42 23.26 136.51 22.88Q136.61 22.51 136.61 21.67L136.61 21.67L136.61 13.42Q136.61 12.53 136.51 12.13Q136.42 11.74 136.07 11.64Q135.72 11.54 135 11.54L135 11.54L134.57 11.54L134.57 11.06L137.28 11.06L137.28 21.67Q137.28 22.51 137.38 22.88Q137.47 23.26 137.87 23.35Q138.26 23.45 139.13 23.45L139.13 23.45L139.85 23.45L139.85 23.93ZM136.82 8.14L136.82 8.14Q136.58 8.14 136.43 7.94Q136.27 7.75 136.27 7.18L136.27 7.18Q136.27 6.62 136.43 6.42Q136.58 6.22 136.82 6.22L136.82 6.22Q137.09 6.22 137.23 6.42Q137.38 6.62 137.38 7.18L137.38 7.18Q137.38 7.75 137.23 7.94Q137.09 8.14 136.82 8.14ZM146.23 23.93L140.93 23.93L140.93 23.45L141.48 23.45Q142.37 23.45 142.75 23.35Q143.14 23.26 143.23 22.88Q143.33 22.51 143.33 21.67L143.33 21.67L143.33 13.32Q143.33 12.48 143.23 12.11Q143.14 11.74 142.79 11.64Q142.44 11.54 141.72 11.54L141.72 11.54L141.05 11.54L141.05 11.06L143.90 11.06L143.98 13.15L144.07 13.15Q144.79 11.88 145.74 11.40Q146.69 10.92 148.01 10.92L148.01 10.92Q150.07 10.92 151.02 12.01Q151.97 13.10 151.97 15.36L151.97 15.36L151.97 21.67Q151.97 22.51 152.06 22.88Q152.16 23.26 152.56 23.35Q152.95 23.45 153.82 23.45L153.82 23.45L154.18 23.45L154.18 23.93L151.30 23.93L151.30 15.17Q151.30 13.56 150.56 12.54Q149.83 11.52 148.01 11.52L148.01 11.52Q146.45 11.52 145.57 12.17Q144.70 12.82 144.35 13.82Q144 14.83 144 15.91L144 15.91L144 21.67Q144 22.51 144.10 22.88Q144.19 23.26 144.59 23.35Q144.98 23.45 145.85 23.45L145.85 23.45L146.23 23.45L146.23 23.93ZM160.63 23.93L155.21 23.93L155.21 23.45L155.81 23.45Q156.70 23.45 157.08 23.35Q157.46 23.26 157.56 22.88Q157.66 22.51 157.66 21.67L157.66 21.67L157.66 8.04Q157.66 7.15 157.56 6.76Q157.46 6.36 157.12 6.26Q156.77 6.17 156.05 6.17L156.05 6.17L155.45 6.17L155.45 5.69L158.33 5.69L158.33 12.36Q158.33 12.55 158.32 12.77Q158.30 12.98 158.29 13.16Q158.28 13.34 158.26 13.49L158.26 13.49L158.30 13.49Q158.52 12.86 158.99 12.28Q159.46 11.69 160.28 11.30Q161.11 10.92 162.36 10.92L162.36 10.92Q164.23 10.92 165.23 11.94Q166.22 12.96 166.22 15.24L166.22 15.24L166.22 21.67Q166.22 22.51 166.32 22.88Q166.42 23.26 166.81 23.35Q167.21 23.45 168.07 23.45L168.07 23.45L168.48 23.45L168.48 23.93L165.55 23.93L165.55 15.29Q165.55 13.34 164.80 12.43Q164.04 11.52 162.36 11.52L162.36 11.52Q161.16 11.52 160.25 11.99Q159.34 12.46 158.83 13.42Q158.33 14.38 158.33 15.91L158.33 15.91L158.33 21.67Q158.33 22.51 158.42 22.88Q158.52 23.26 158.92 23.35Q159.31 23.45 160.18 23.45L160.18 23.45L160.63 23.45L160.63 23.93ZM173.83 24.17L173.83 24.17Q172.90 24.17 172.13 23.77Q171.36 23.38 170.90 22.54Q170.45 21.70 170.45 20.42L170.45 20.42Q170.45 18.53 171.80 17.64Q173.16 16.75 176.06 16.66L176.06 16.66L178.06 16.58L178.06 15.02Q178.06 13.99 177.84 13.21Q177.62 12.43 176.95 11.98Q176.28 11.52 174.91 11.52L174.91 11.52Q173.74 11.52 173.09 11.87Q172.44 12.22 172.20 12.88Q171.96 13.54 171.96 14.45L171.96 14.45Q171.72 14.45 171.59 14.18Q171.46 13.92 171.46 13.34L171.46 13.34Q171.46 12.84 171.74 12.28Q172.03 11.71 172.79 11.32Q173.54 10.92 174.91 10.92L174.91 10.92Q177.02 10.92 177.88 11.94Q178.73 12.96 178.73 14.66L178.73 14.66L178.73 21.29Q178.73 22.18 178.81 22.64Q178.90 23.11 179.18 23.28Q179.47 23.45 180.12 23.45L180.12 23.45L180.29 23.45L180.29 23.93L178.22 23.93L178.08 21.43L178.03 21.43Q177.77 21.94 177.23 22.58Q176.69 23.23 175.85 23.70Q175.01 24.17 173.83 24.17ZM173.93 23.57L173.93 23.57Q175.10 23.57 176.03 22.97Q176.95 22.37 177.50 21.50Q178.06 20.64 178.06 19.85L178.06 19.85L178.06 17.14L175.99 17.21Q174.12 17.26 173.06 17.66Q172.01 18.07 171.56 18.78Q171.12 19.49 171.12 20.45L171.12 20.45Q171.12 21.26 171.40 21.97Q171.67 22.68 172.30 23.12Q172.92 23.57 173.93 23.57ZM187.49 23.93L181.68 23.93L181.68 23.45L182.40 23.45Q183.29 23.45 183.67 23.35Q184.06 23.26 184.15 22.88Q184.25 22.51 184.25 21.67L184.25 21.67L184.25 8.04Q184.25 7.15 184.15 6.76Q184.06 6.36 183.71 6.26Q183.36 6.17 182.64 6.17L182.64 6.17L181.68 6.17L181.68 5.69L184.92 5.69L184.92 21.67Q184.92 22.51 185.02 22.88Q185.11 23.26 185.51 23.35Q185.90 23.45 186.77 23.45L186.77 23.45L187.49 23.45L187.49 23.93ZM192.38 24.17L192.38 24.17Q191.45 24.17 190.68 23.77Q189.91 23.38 189.46 22.54Q189.00 21.70 189.00 20.42L189.00 20.42Q189.00 18.53 190.36 17.64Q191.71 16.75 194.62 16.66L194.62 16.66L196.61 16.58L196.61 15.02Q196.61 13.99 196.39 13.21Q196.18 12.43 195.50 11.98Q194.83 11.52 193.46 11.52L193.46 11.52Q192.29 11.52 191.64 11.87Q190.99 12.22 190.75 12.88Q190.51 13.54 190.51 14.45L190.51 14.45Q190.27 14.45 190.14 14.18Q190.01 13.92 190.01 13.34L190.01 13.34Q190.01 12.84 190.30 12.28Q190.58 11.71 191.34 11.32Q192.10 10.92 193.46 10.92L193.46 10.92Q195.58 10.92 196.43 11.94Q197.28 12.96 197.28 14.66L197.28 14.66L197.28 21.29Q197.28 22.18 197.36 22.64Q197.45 23.11 197.74 23.28Q198.02 23.45 198.67 23.45L198.67 23.45L198.84 23.45L198.84 23.93L196.78 23.93L196.63 21.43L196.58 21.43Q196.32 21.94 195.78 22.58Q195.24 23.23 194.40 23.70Q193.56 24.17 192.38 24.17ZM192.48 23.57L192.48 23.57Q193.66 23.57 194.58 22.97Q195.50 22.37 196.06 21.50Q196.61 20.64 196.61 19.85L196.61 19.85L196.61 17.14L194.54 17.21Q192.67 17.26 191.62 17.66Q190.56 18.07 190.12 18.78Q189.67 19.49 189.67 20.45L189.67 20.45Q189.67 21.26 189.95 21.97Q190.22 22.68 190.85 23.12Q191.47 23.57 192.48 23.57ZM215.09 23.93L215.09 23.40L217.54 23.40Q218.14 23.40 218.42 23.27Q218.71 23.14 218.80 22.69Q218.88 22.25 218.88 21.34L218.88 21.34L218.88 7.73Q217.68 9.29 216.73 9.91Q215.78 10.54 214.94 10.54L214.94 10.54Q214.51 10.54 214.34 10.39Q214.18 10.25 214.18 10.06L214.18 10.06Q215.42 9.96 216.40 9.32Q217.37 8.69 218.33 7.56L218.33 7.56L219.07 6.70L219.55 6.70L219.55 21.34Q219.55 22.25 219.64 22.69Q219.72 23.14 220.01 23.27Q220.30 23.40 220.90 23.40L220.90 23.40L223.27 23.40L223.27 23.93L215.09 23.93ZM232.20 24.17L232.20 24.17Q230.40 24.17 229.22 23.23Q228.05 22.30 227.47 20.33Q226.90 18.36 226.90 15.31L226.90 15.31Q226.90 12.36 227.46 10.42Q228.02 8.47 229.20 7.51Q230.38 6.55 232.22 6.55L232.22 6.55Q233.98 6.55 235.14 7.50Q236.30 8.45 236.89 10.39Q237.48 12.34 237.48 15.34L237.48 15.34Q237.48 18.29 236.89 20.26Q236.30 22.22 235.14 23.20Q233.98 24.17 232.20 24.17ZM232.18 23.57L232.18 23.57Q233.81 23.57 234.83 22.66Q235.85 21.74 236.33 19.91Q236.81 18.07 236.81 15.34L236.81 15.34Q236.81 12.60 236.35 10.79Q235.90 8.98 234.89 8.06Q233.88 7.15 232.20 7.15L232.20 7.15Q230.47 7.15 229.45 8.10Q228.43 9.05 228.00 10.87Q227.57 12.70 227.57 15.34L227.57 15.34Q227.57 18.17 228.05 19.99Q228.53 21.82 229.55 22.69Q230.57 23.57 232.18 23.57ZM245.62 24.17L245.62 24.17Q243.82 24.17 242.64 23.23Q241.46 22.30 240.89 20.33Q240.31 18.36 240.31 15.31L240.31 15.31Q240.31 12.36 240.88 10.42Q241.44 8.47 242.62 7.51Q243.79 6.55 245.64 6.55L245.64 6.55Q247.39 6.55 248.56 7.50Q249.72 8.45 250.31 10.39Q250.90 12.34 250.90 15.34L250.90 15.34Q250.90 18.29 250.31 20.26Q249.72 22.22 248.56 23.20Q247.39 24.17 245.62 24.17ZM245.59 23.57L245.59 23.57Q247.22 23.57 248.24 22.66Q249.26 21.74 249.74 19.91Q250.22 18.07 250.22 15.34L250.22 15.34Q250.22 12.60 249.77 10.79Q249.31 8.98 248.30 8.06Q247.30 7.15 245.62 7.15L245.62 7.15Q243.89 7.15 242.87 8.10Q241.85 9.05 241.42 10.87Q240.98 12.70 240.98 15.34L240.98 15.34Q240.98 18.17 241.46 19.99Q241.94 21.82 242.96 22.69Q243.98 23.57 245.59 23.57ZM270.53 23.93L265.22 23.93L265.22 23.45L265.78 23.45Q266.66 23.45 267.05 23.35Q267.43 23.26 267.53 22.88Q267.62 22.51 267.62 21.67L267.62 21.67L267.62 13.32Q267.62 12.48 267.53 12.11Q267.43 11.74 267.08 11.64Q266.74 11.54 266.02 11.54L266.02 11.54L265.34 11.54L265.34 11.06L268.20 11.06L268.27 13.15L268.37 13.15Q269.09 11.88 270.04 11.40Q270.98 10.92 272.30 10.92L272.30 10.92Q274.37 10.92 275.32 12.01Q276.26 13.10 276.26 15.36L276.26 15.36L276.26 21.67Q276.26 22.51 276.36 22.88Q276.46 23.26 276.85 23.35Q277.25 23.45 278.11 23.45L278.11 23.45L278.47 23.45L278.47 23.93L275.59 23.93L275.59 15.17Q275.59 13.56 274.86 12.54Q274.13 11.52 272.30 11.52L272.30 11.52Q270.74 11.52 269.87 12.17Q268.99 12.82 268.64 13.82Q268.30 14.83 268.30 15.91L268.30 15.91L268.30 21.67Q268.30 22.51 268.39 22.88Q268.49 23.26 268.88 23.35Q269.28 23.45 270.14 23.45L270.14 23.45L270.53 23.45L270.53 23.93ZM285.48 24.17L285.48 24.17Q283.25 24.17 281.96 22.54Q280.68 20.90 280.68 17.52L280.68 17.52Q280.68 14.16 281.93 12.54Q283.18 10.92 285.60 10.92L285.60 10.92Q287.88 10.92 289.09 12.49Q290.30 14.06 290.30 17.52L290.30 17.52Q290.30 20.90 289.08 22.54Q287.86 24.17 285.48 24.17ZM285.48 23.57L285.48 23.57Q287.02 23.57 287.93 22.81Q288.84 22.06 289.24 20.70Q289.63 19.34 289.63 17.52L289.63 17.52Q289.63 14.45 288.66 12.98Q287.69 11.52 285.60 11.52L285.60 11.52Q283.34 11.52 282.35 13.02Q281.35 14.52 281.35 17.52L281.35 17.52Q281.35 20.38 282.35 21.97Q283.34 23.57 285.48 23.57ZM298.30 23.93L293.04 23.93L293.04 23.45L293.57 23.45Q294.29 23.45 294.64 23.35Q294.98 23.26 295.08 22.86Q295.18 22.46 295.18 21.58L295.18 21.58L295.18 13.32Q295.18 12.48 295.08 12.11Q294.98 11.74 294.60 11.64Q294.22 11.54 293.33 11.54L293.33 11.54L292.90 11.54L292.90 11.06L295.75 11.06L295.82 13.75L295.87 13.75Q296.16 13.06 296.58 12.40Q297.00 11.74 297.65 11.30Q298.30 10.87 299.21 10.87L299.21 10.87Q300.12 10.87 300.67 11.34Q301.22 11.81 301.22 12.50L301.22 12.50Q301.22 12.82 301.10 13.06Q300.98 13.30 300.72 13.30L300.72 13.30Q300.72 12.60 300.54 12.20Q300.36 11.81 300.00 11.64Q299.64 11.47 299.09 11.47L299.09 11.47Q298.39 11.47 297.79 11.93Q297.19 12.38 296.76 13.18Q296.33 13.97 296.09 14.99Q295.85 16.01 295.85 17.11L295.85 17.11L295.85 21.58Q295.85 22.46 295.96 22.86Q296.06 23.26 296.40 23.35Q296.74 23.45 297.46 23.45L297.46 23.45L298.30 23.45L298.30 23.93ZM307.90 23.93L302.50 23.93L302.50 23.45L303.05 23.45Q303.94 23.45 304.32 23.35Q304.70 23.26 304.80 22.88Q304.90 22.51 304.90 21.67L304.90 21.67L304.90 13.32Q304.90 12.48 304.80 12.11Q304.70 11.74 304.36 11.64Q304.01 11.54 303.29 11.54L303.29 11.54L302.88 11.54L302.88 11.06L305.47 11.06L305.54 13.30L305.66 13.30Q306.12 12.10 307.08 11.51Q308.04 10.92 309.29 10.92L309.29 10.92Q310.39 10.92 311.06 11.26Q311.74 11.59 312.11 12.14Q312.48 12.70 312.65 13.34L312.65 13.34L312.72 13.34Q313.10 12.36 314.00 11.64Q314.90 10.92 316.51 10.92L316.51 10.92Q318.43 10.92 319.32 12.04Q320.21 13.15 320.21 15.26L320.21 15.26L320.21 21.67Q320.21 22.51 320.30 22.88Q320.40 23.26 320.80 23.35Q321.19 23.45 322.06 23.45L322.06 23.45L322.30 23.45L322.30 23.93L319.54 23.93L319.54 15.17Q319.54 13.39 318.84 12.44Q318.14 11.50 316.51 11.50L316.51 11.50Q315.24 11.50 314.44 12.04Q313.63 12.58 313.26 13.50Q312.89 14.42 312.89 15.55L312.89 15.55L312.89 21.67Q312.89 22.51 312.98 22.88Q313.08 23.26 313.46 23.35Q313.85 23.45 314.74 23.45L314.74 23.45L315.10 23.45L315.10 23.93L312.22 23.93L312.22 15.17Q312.22 13.42 311.53 12.47Q310.85 11.52 309.14 11.52L309.14 11.52Q307.94 11.52 307.15 12.13Q306.36 12.74 305.96 13.74Q305.57 14.74 305.57 15.91L305.57 15.91L305.57 21.67Q305.57 22.51 305.66 22.88Q305.76 23.26 306.16 23.35Q306.55 23.45 307.42 23.45L307.42 23.45L307.90 23.45L307.90 23.93ZM327.70 24.17L327.70 24.17Q326.76 24.17 325.99 23.77Q325.22 23.38 324.77 22.54Q324.31 21.70 324.31 20.42L324.31 20.42Q324.31 18.53 325.67 17.64Q327.02 16.75 329.93 16.66L329.93 16.66L331.92 16.58L331.92 15.02Q331.92 13.99 331.70 13.21Q331.49 12.43 330.82 11.98Q330.14 11.52 328.78 11.52L328.78 11.52Q327.60 11.52 326.95 11.87Q326.30 12.22 326.06 12.88Q325.82 13.54 325.82 14.45L325.82 14.45Q325.58 14.45 325.45 14.18Q325.32 13.92 325.32 13.34L325.32 13.34Q325.32 12.84 325.61 12.28Q325.90 11.71 326.65 11.32Q327.41 10.92 328.78 10.92L328.78 10.92Q330.89 10.92 331.74 11.94Q332.59 12.96 332.59 14.66L332.59 14.66L332.59 21.29Q332.59 22.18 332.68 22.64Q332.76 23.11 333.05 23.28Q333.34 23.45 333.98 23.45L333.98 23.45L334.15 23.45L334.15 23.93L332.09 23.93L331.94 21.43L331.90 21.43Q331.63 21.94 331.09 22.58Q330.55 23.23 329.71 23.70Q328.87 24.17 327.70 24.17ZM327.79 23.57L327.79 23.57Q328.97 23.57 329.89 22.97Q330.82 22.37 331.37 21.50Q331.92 20.64 331.92 19.85L331.92 19.85L331.92 17.14L329.86 17.21Q327.98 17.26 326.93 17.66Q325.87 18.07 325.43 18.78Q324.98 19.49 324.98 20.45L324.98 20.45Q324.98 21.26 325.26 21.97Q325.54 22.68 326.16 23.12Q326.78 23.57 327.79 23.57ZM341.35 23.93L335.54 23.93L335.54 23.45L336.26 23.45Q337.15 23.45 337.54 23.35Q337.92 23.26 338.02 22.88Q338.11 22.51 338.11 21.67L338.11 21.67L338.11 8.04Q338.11 7.15 338.02 6.76Q337.92 6.36 337.57 6.26Q337.22 6.17 336.50 6.17L336.50 6.17L335.54 6.17L335.54 5.69L338.78 5.69L338.78 21.67Q338.78 22.51 338.88 22.88Q338.98 23.26 339.37 23.35Q339.77 23.45 340.63 23.45L340.63 23.45L341.35 23.45L341.35 23.93Z"/></svg>