<svg xmlns="http://www.w3.org/2000/svg" xmlns:xlink="http://www.w3.org/1999/xlink" width="225.33599999999996" height="28.8"><path fill="black" d="M4.66 22.80L0.82 22.80L3.19 6L13.51 6L13.03 9.36L6.55 9.36L6.07 12.72L12.14 12.72L11.69 16.08L5.62 16.08L4.66 22.80ZM17.86 22.80L14.26 22.80L15.55 13.54L13.39 13.54L13.82 10.56L19.58 10.56L17.86 22.80ZM19.80 8.93L16.20 8.93L16.63 6L20.23 6L19.80 8.93ZM25.20 22.80L21.70 22.80L23.16 12.05L24.65 15.05L21.12 13.30L22.61 10.32L25.18 11.59Q25.44 11.71 25.61 11.52L25.61 11.52L25.99 11.09Q26.95 10.54 27.65 10.39Q28.34 10.25 29.30 10.27L29.30 10.27Q31.25 10.30 32.23 11.51Q33.22 12.72 32.90 14.93L32.90 14.93L31.78 22.80L28.27 22.80L29.40 14.81Q29.50 14.16 29.18 13.81Q28.87 13.46 28.27 13.46L28.27 13.46Q27.91 13.46 27.56 13.57Q27.22 13.68 26.83 13.90Q26.45 14.11 25.97 14.42L25.97 14.42L26.50 13.66L25.20 22.80ZM40.01 22.78L37.80 22.78Q36.55 22.78 35.82 21.94Q35.09 21.10 35.26 19.82L35.26 19.82L37.39 4.80L40.87 4.80L38.81 19.18Q38.76 19.49 38.88 19.58Q39 19.68 39.26 19.68L39.26 19.68L40.44 19.68L40.01 22.78ZM46.32 23.02L46.32 23.02Q45.60 23.02 44.84 22.80Q44.09 22.58 43.45 22.07Q42.82 21.55 42.42 20.70Q42.02 19.85 42.02 18.60L42.02 18.60Q42.02 17.26 42.29 15.92Q42.55 14.59 43.08 13.51L43.08 13.51Q43.97 11.93 45.31 11.11Q46.66 10.30 48.41 10.30L48.41 10.30Q48.67 10.30 48.96 10.32Q49.25 10.34 49.66 10.39L49.66 10.39L50.52 10.70Q50.66 10.75 50.90 10.73L50.90 10.73L53.33 10.46L52.13 19.37L53.62 20.11L52.06 23.04L49.66 21.86Q49.42 21.77 49.32 21.91L49.32 21.91L48.89 22.39Q48.29 22.61 47.89 22.75Q47.50 22.90 47.15 22.96Q46.80 23.02 46.32 23.02ZM46.87 19.87L46.87 19.87Q47.09 19.87 47.32 19.81Q47.54 19.75 47.87 19.61Q48.19 19.46 48.67 19.22L48.67 19.22L49.49 13.34Q48.91 13.25 48.41 13.25L48.41 13.25Q47.66 13.25 47.02 13.57Q46.37 13.90 46.03 14.59L46.03 14.59Q45.65 15.36 45.49 16.27Q45.34 17.18 45.34 18.24L45.34 18.24Q45.34 19.06 45.77 19.46Q46.20 19.87 46.87 19.87ZM59.40 22.80L55.90 22.80L57.36 12.05L58.85 15.05L55.32 13.30L56.81 10.32L59.38 11.59Q59.64 11.71 59.81 11.52L59.81 11.52L60.19 11.09Q61.15 10.54 61.85 10.39Q62.54 10.25 63.50 10.27L63.50 10.27Q65.45 10.30 66.43 11.51Q67.42 12.72 67.10 14.93L67.10 14.93L65.98 22.80L62.47 22.80L63.60 14.81Q63.70 14.16 63.38 13.81Q63.07 13.46 62.47 13.46L62.47 13.46Q62.11 13.46 61.76 13.57Q61.42 13.68 61.03 13.90Q60.65 14.11 60.17 14.42L60.17 14.42L60.70 13.66L59.40 22.80ZM80.02 12.41L76.51 12.41L77.59 4.80L81.10 4.80L80.02 12.41ZM73.27 23.02L73.27 23.02Q72.55 23.02 71.80 22.80Q71.04 22.58 70.40 22.07Q69.77 21.55 69.37 20.70Q68.98 19.85 68.98 18.60L68.98 18.60Q68.98 17.26 69.24 15.92Q69.50 14.59 70.03 13.51L70.03 13.51Q70.92 11.93 72.26 11.11Q73.61 10.30 75.36 10.30L75.36 10.30Q75.62 10.30 75.91 10.32Q76.20 10.34 76.61 10.39L76.61 10.39L77.47 10.70Q77.62 10.75 77.86 10.73L77.86 10.73L80.28 10.46L79.08 19.37L80.57 20.11L79.01 23.04L76.61 21.86Q76.37 21.77 76.27 21.91L76.27 21.91L75.84 22.39Q75.24 22.61 74.84 22.75Q74.45 22.90 74.10 22.96Q73.75 23.02 73.27 23.02ZM73.82 19.87L73.82 19.87Q74.04 19.87 74.27 19.81Q74.50 19.75 74.82 19.61Q75.14 19.46 75.62 19.22L75.62 19.22L76.44 13.34Q75.86 13.25 75.36 13.25L75.36 13.25Q74.62 13.25 73.97 13.57Q73.32 13.90 72.98 14.59L72.98 14.59Q72.60 15.36 72.44 16.27Q72.29 17.18 72.29 18.24L72.29 18.24Q72.29 19.06 72.72 19.46Q73.15 19.87 73.82 19.87ZM86.45 22.80L82.85 22.80L84.14 13.54L81.98 13.54L82.42 10.56L88.18 10.56L86.45 22.80ZM88.39 8.93L84.79 8.93L85.22 6L88.82 6L88.39 8.93ZM94.54 23.04L94.54 23.04Q92.98 23.04 91.88 22.43Q90.79 21.82 90.23 20.71Q89.66 19.61 89.66 18.19L89.66 18.19Q89.66 17.35 89.80 16.55Q89.93 15.74 90.14 14.95L90.14 14.95Q90.55 13.39 91.34 12.37Q92.14 11.35 93.28 10.84Q94.42 10.32 95.83 10.32L95.83 10.32Q97.18 10.32 98.05 10.56Q98.93 10.80 99.72 11.23L99.72 11.23L98.71 13.82Q98.26 13.56 97.63 13.38Q97.01 13.20 96.34 13.20L96.34 13.20Q95.06 13.20 94.34 13.87Q93.62 14.54 93.29 15.67L93.29 15.67Q93.17 16.20 93.08 16.82Q93.00 17.45 92.95 18.22L92.95 18.22Q92.93 18.86 93.17 19.31Q93.41 19.75 93.84 19.98Q94.27 20.21 94.80 20.21L94.80 20.21Q95.09 20.21 95.40 20.06Q95.71 19.92 96.01 19.63Q96.31 19.34 96.53 18.91L96.53 18.91L98.93 20.21Q98.18 21.82 97.00 22.43Q95.81 23.04 94.54 23.04ZM104.52 23.02L104.52 23.02Q103.80 23.02 103.04 22.80Q102.29 22.58 101.65 22.07Q101.02 21.55 100.62 20.70Q100.22 19.85 100.22 18.60L100.22 18.60Q100.22 17.26 100.49 15.92Q100.75 14.59 101.28 13.51L101.28 13.51Q102.17 11.93 103.51 11.11Q104.86 10.30 106.61 10.30L106.61 10.30Q106.87 10.30 107.16 10.32Q107.45 10.34 107.86 10.39L107.86 10.39L108.72 10.70Q108.86 10.75 109.10 10.73L109.10 10.73L111.53 10.46L110.33 19.37L111.82 20.11L110.26 23.04L107.86 21.86Q107.62 21.77 107.52 21.91L107.52 21.91L107.09 22.39Q106.49 22.61 106.09 22.75Q105.70 22.90 105.35 22.96Q105.00 23.02 104.52 23.02ZM105.07 19.87L105.07 19.87Q105.29 19.87 105.52 19.81Q105.74 19.75 106.07 19.61Q106.39 19.46 106.87 19.22L106.87 19.22L107.69 13.34Q107.11 13.25 106.61 13.25L106.61 13.25Q105.86 13.25 105.22 13.57Q104.57 13.90 104.23 14.59L104.23 14.59Q103.85 15.36 103.69 16.27Q103.54 17.18 103.54 18.24L103.54 18.24Q103.54 19.06 103.97 19.46Q104.40 19.87 105.07 19.87ZM123.60 22.80L119.81 22.80L128.11 9.24L120.74 9.24L121.20 6L132.79 6L132.53 8.11L130.20 11.71L129.72 12.46Q129.60 12.62 129.67 12.73Q129.74 12.84 129.89 12.84L129.89 12.84L132.02 12.84L131.52 15.98L127.75 15.98L123.60 22.80ZM141.02 16.80L138.62 16.80L139.30 12L141.70 12L141.02 16.80ZM139.25 23.09L139.25 23.09Q137.33 23.09 136.07 22.28Q134.81 21.48 134.20 20.23Q133.58 18.98 133.58 17.64L133.58 17.64Q133.58 16.46 133.72 15.17Q133.85 13.87 134.11 12.60Q134.38 11.33 134.71 10.22L134.71 10.22Q135.34 8.26 136.90 6.98Q138.46 5.71 141.07 5.71L141.07 5.71Q142.99 5.71 144.25 6.52Q145.51 7.32 146.14 8.57Q146.76 9.82 146.76 11.16L146.76 11.16Q146.76 12.31 146.63 13.62Q146.50 14.93 146.24 16.20Q145.99 17.47 145.63 18.58L145.63 18.58Q145.03 20.54 143.46 21.82Q141.89 23.09 139.25 23.09ZM139.46 19.70L139.46 19.70Q140.40 19.70 141.05 19.15Q141.70 18.60 142.01 17.78L142.01 17.78Q142.20 17.28 142.38 16.43Q142.56 15.58 142.69 14.63Q142.82 13.68 142.91 12.80Q142.99 11.93 142.99 11.40L142.99 11.40Q142.99 10.34 142.45 9.72Q141.91 9.10 140.86 9.10L140.86 9.10Q139.92 9.10 139.26 9.64Q138.60 10.18 138.31 11.02L138.31 11.02Q138.14 11.50 137.98 12.37Q137.81 13.25 137.66 14.24Q137.52 15.24 137.44 16.09Q137.35 16.94 137.35 17.40L137.35 17.40Q137.35 18.43 137.89 19.07Q138.43 19.70 139.46 19.70ZM155.90 16.80L153.50 16.80L154.18 12L156.58 12L155.90 16.80ZM154.13 23.09L154.13 23.09Q152.21 23.09 150.95 22.28Q149.69 21.48 149.08 20.23Q148.46 18.98 148.46 17.64L148.46 17.64Q148.46 16.46 148.60 15.17Q148.73 13.87 148.99 12.60Q149.26 11.33 149.59 10.22L149.59 10.22Q150.22 8.26 151.78 6.98Q153.34 5.71 155.95 5.71L155.95 5.71Q157.87 5.71 159.13 6.52Q160.39 7.32 161.02 8.57Q161.64 9.82 161.64 11.16L161.64 11.16Q161.64 12.31 161.51 13.62Q161.38 14.93 161.12 16.20Q160.87 17.47 160.51 18.58L160.51 18.58Q159.91 20.54 158.34 21.82Q156.77 23.09 154.13 23.09ZM154.34 19.70L154.34 19.70Q155.28 19.70 155.93 19.15Q156.58 18.60 156.89 17.78L156.89 17.78Q157.08 17.28 157.26 16.43Q157.44 15.58 157.57 14.63Q157.70 13.68 157.79 12.80Q157.87 11.93 157.87 11.40L157.87 11.40Q157.87 10.34 157.33 9.72Q156.79 9.10 155.74 9.10L155.74 9.10Q154.80 9.10 154.14 9.64Q153.48 10.18 153.19 11.02L153.19 11.02Q153.02 11.50 152.86 12.37Q152.69 13.25 152.54 14.24Q152.40 15.24 152.32 16.09Q152.23 16.94 152.23 17.40L152.23 17.40Q152.23 18.43 152.77 19.07Q153.31 19.70 154.34 19.70ZM174.50 22.80L170.90 22.80L172.20 13.54L170.04 13.54L170.47 10.56L176.23 10.56L174.50 22.80ZM176.45 8.93L172.85 8.93L173.28 6L176.88 6L176.45 8.93ZM184.56 22.78L181.54 22.78Q180.29 22.78 179.56 21.95Q178.82 21.12 178.99 19.82L178.99 19.82L179.88 13.54L177.72 13.54L178.15 10.56L180.38 10.56Q180.48 10.56 180.56 10.52Q180.65 10.49 180.71 10.42Q180.77 10.34 180.79 10.27L180.79 10.27L181.87 7.20L184.32 7.20L183.79 10.56L186.70 10.56L186.24 13.54L183.36 13.54L182.54 19.18Q182.50 19.49 182.62 19.58Q182.74 19.68 183 19.68L183 19.68L184.99 19.68L184.56 22.78ZM191.57 23.02L191.57 23.02Q190.85 23.02 190.09 22.80Q189.34 22.58 188.70 22.07Q188.06 21.55 187.67 20.70Q187.27 19.85 187.27 18.60L187.27 18.60Q187.27 17.26 187.54 15.92Q187.80 14.59 188.33 13.51L188.33 13.51Q189.22 11.93 190.56 11.11Q191.90 10.30 193.66 10.30L193.66 10.30Q193.92 10.30 194.21 10.32Q194.50 10.34 194.90 10.39L194.90 10.39L195.77 10.70Q195.91 10.75 196.15 10.73L196.15 10.73L198.58 10.46L197.38 19.37L198.86 20.11L197.30 23.04L194.90 21.86Q194.66 21.77 194.57 21.91L194.57 21.91L194.14 22.39Q193.54 22.61 193.14 22.75Q192.74 22.90 192.40 22.96Q192.05 23.02 191.57 23.02ZM192.12 19.87L192.12 19.87Q192.34 19.87 192.56 19.81Q192.79 19.75 193.12 19.61Q193.44 19.46 193.92 19.22L193.92 19.22L194.74 13.34Q194.16 13.25 193.66 13.25L193.66 13.25Q192.91 13.25 192.26 13.57Q191.62 13.90 191.28 14.59L191.28 14.59Q190.90 15.36 190.74 16.27Q190.58 17.18 190.58 18.24L190.58 18.24Q190.58 19.06 191.02 19.46Q191.45 19.87 192.12 19.87ZM205.51 22.78L203.30 22.78Q202.06 22.78 201.32 21.94Q200.59 21.10 200.76 19.82L200.76 19.82L202.90 4.80L206.38 4.80L204.31 19.18Q204.26 19.49 204.38 19.58Q204.50 19.68 204.77 19.68L204.77 19.68L205.94 19.68L205.51 22.78ZM211.75 22.80L208.15 22.80L209.45 13.54L207.29 13.54L207.72 10.56L213.48 10.56L211.75 22.80ZM213.70 8.93L210.10 8.93L210.53 6L214.13 6L213.70 8.93ZM219.84 23.04L219.84 23.04Q218.28 23.04 217.19 22.43Q216.10 21.82 215.53 20.71Q214.97 19.61 214.97 18.19L214.97 18.19Q214.97 17.35 215.10 16.55Q215.23 15.74 215.45 14.95L215.45 14.95Q215.86 13.39 216.65 12.37Q217.44 11.35 218.58 10.84Q219.72 10.32 221.14 10.32L221.14 10.32Q222.48 10.32 223.36 10.56Q224.23 10.80 225.02 11.23L225.02 11.23L224.02 13.82Q223.56 13.56 222.94 13.38Q222.31 13.20 221.64 13.20L221.64 13.20Q220.37 13.20 219.65 13.87Q218.93 14.54 218.59 15.67L218.59 15.67Q218.47 16.20 218.39 16.82Q218.30 17.45 218.26 18.22L218.26 18.22Q218.23 18.86 218.47 19.31Q218.71 19.75 219.14 19.98Q219.58 20.21 220.10 20.21L220.10 20.21Q220.39 20.21 220.70 20.06Q221.02 19.92 221.32 19.63Q221.62 19.34 221.83 18.91L221.83 18.91L224.23 20.21Q223.49 21.82 222.30 22.43Q221.11 23.04 219.84 23.04Z"/></svg>