<svg xmlns="http://www.w3.org/2000/svg" xmlns:xlink="http://www.w3.org/1999/xlink" width="352.70399999999995" height="34.752"><path fill="black" d="M17.30 27.46L17.30 27.46Q17.30 27.84 16.92 27.84L16.92 27.84Q16.25 27.84 15.58 27.84Q14.90 27.84 14.23 27.84L14.23 27.84Q13.78 27.84 13.26 27.83Q12.74 27.82 12.41 27.50L12.41 27.50Q12.31 27.41 12.23 27.32Q12.14 27.24 12.07 27.14L12.07 27.14Q10.61 25.08 9.11 23.04Q7.61 21 6 19.03L6 19.03L5.30 19.61Q5.30 21.36 5.32 23.09Q5.33 24.82 5.33 26.57L5.33 26.57Q5.33 26.95 5.69 27.06Q6.05 27.17 6.48 27.16Q6.91 27.14 7.15 27.14L7.15 27.14Q7.34 27.14 7.48 27.22Q7.61 27.29 7.61 27.48L7.61 27.48Q7.61 27.65 7.48 27.76Q7.34 27.86 7.20 27.86L7.20 27.86Q6.67 27.86 6.13 27.83Q5.59 27.79 5.04 27.79L5.04 27.79Q3.98 27.79 2.93 27.84Q1.87 27.89 0.82 27.89L0.82 27.89Q0.46 27.89 0.46 27.55L0.46 27.55Q0.46 27.17 0.80 27.18Q1.15 27.19 1.39 27.19L1.39 27.19Q2.04 27.19 2.29 27.10Q2.54 27 2.59 26.71Q2.64 26.42 2.64 25.90L2.64 25.90L2.64 12.12Q2.64 11.95 2.64 11.80Q2.64 11.64 2.62 11.50L2.62 11.50Q2.59 11.30 2.35 11.11Q2.11 10.92 1.92 10.92L1.92 10.92L1.39 10.92Q1.25 10.92 1.09 10.93Q0.94 10.94 0.79 10.94L0.79 10.94Q0.34 10.94 0.34 10.58L0.34 10.58Q0.34 10.20 0.67 10.20L0.67 10.20Q0.98 10.20 1.28 10.22Q1.58 10.25 1.87 10.25L1.87 10.25Q2.40 10.27 2.93 10.28Q3.46 10.30 3.98 10.30L3.98 10.30Q4.75 10.30 5.50 10.25Q6.24 10.20 6.98 10.20L6.98 10.20Q7.44 10.20 7.44 10.58L7.44 10.58Q7.44 10.75 7.32 10.84Q7.20 10.92 7.06 10.92L7.06 10.92Q6.79 10.92 6.52 10.93Q6.24 10.94 5.98 10.94L5.98 10.94Q5.76 10.94 5.54 11.11Q5.33 11.28 5.33 11.52L5.33 11.52L5.33 14.83Q5.33 15.77 5.32 16.70Q5.30 17.64 5.28 18.55L5.28 18.55Q7.58 16.46 9.74 14.23L9.74 14.23Q10.63 13.32 11.42 12.37Q12.22 11.42 12.98 10.42L12.98 10.42Q13.20 10.15 13.46 10.15L13.46 10.15Q13.82 10.15 14.18 10.16Q14.54 10.18 14.88 10.18L14.88 10.18Q15.19 10.18 15.49 10.16Q15.79 10.15 16.10 10.15L16.10 10.15Q16.22 10.15 16.33 10.27Q16.44 10.39 16.44 10.51L16.44 10.51Q16.44 10.66 16.32 10.78Q16.20 10.90 16.06 10.90L16.06 10.90Q15.41 10.90 14.84 11.09Q14.28 11.28 13.80 11.74L13.80 11.74L7.92 17.45Q9.72 19.73 11.56 22.03Q13.39 24.34 15.36 26.50L15.36 26.50Q15.70 26.86 16.07 26.98Q16.44 27.10 16.74 27.11Q17.04 27.12 17.16 27.22L17.16 27.22Q17.30 27.31 17.30 27.46ZM25.85 25.06L25.85 25.06Q25.80 24 25.79 22.92Q25.78 21.84 25.73 20.78L25.73 20.78L25.51 20.78Q24.77 20.78 23.90 21.01Q23.04 21.24 22.27 21.70Q21.50 22.15 21.01 22.82Q20.52 23.50 20.52 24.36L20.52 24.36Q20.52 25.42 21.08 26.03Q21.65 26.64 22.73 26.64L22.73 26.64Q23.21 26.64 23.81 26.38Q24.41 26.11 24.96 25.74Q25.51 25.37 25.85 25.06ZM30.29 26.59L30.29 26.59Q30.29 26.76 30.13 26.99Q29.98 27.22 29.86 27.34L29.86 27.34Q29.54 27.62 29.14 27.73Q28.73 27.84 28.32 27.84L28.32 27.84Q27.34 27.84 26.81 27.36Q26.28 26.88 26.02 25.99L26.02 25.99Q25.13 26.78 24.04 27.31Q22.94 27.84 21.72 27.84L21.72 27.84Q20.78 27.84 19.99 27.49Q19.20 27.14 18.71 26.45Q18.22 25.75 18.22 24.77L18.22 24.77Q18.22 23.81 18.70 23.09Q19.18 22.37 19.92 21.86Q20.66 21.36 21.46 21.05L21.46 21.05Q22.49 20.62 23.58 20.41Q24.67 20.21 25.75 20.02L25.75 20.02Q25.73 19.30 25.68 18.41Q25.63 17.52 25.30 16.87L25.30 16.87Q25.06 16.37 24.56 15.95Q24.07 15.53 23.47 15.53L23.47 15.53Q22.46 15.53 21.82 16.10Q21.17 16.68 20.98 17.66L20.98 17.66Q20.95 17.83 20.95 18.02Q20.95 18.22 20.90 18.36L20.90 18.36Q20.86 18.53 20.63 18.62Q20.40 18.72 20.23 18.72L20.23 18.72Q19.70 18.72 19.33 18.44Q18.96 18.17 18.96 17.59L18.96 17.59Q18.96 17.28 19.06 17.06L19.06 17.06Q19.20 16.66 19.57 16.28Q19.94 15.91 20.41 15.64Q20.88 15.36 21.26 15.24L21.26 15.24Q21.79 15.07 22.44 14.96Q23.09 14.86 23.62 14.86L23.62 14.86Q24.89 14.86 25.91 15.40Q26.93 15.94 27.52 16.90Q28.10 17.86 28.10 19.18L28.10 19.18L28.10 19.92Q28.10 21.31 28.09 22.69Q28.08 24.07 28.15 25.46L28.15 25.46Q28.20 25.92 28.34 26.34Q28.49 26.76 29.06 26.76L29.06 26.76Q29.35 26.76 29.63 26.62Q29.90 26.47 30.12 26.47L30.12 26.47Q30.29 26.47 30.29 26.59ZM38.14 27.48L38.14 27.48Q38.14 27.62 38.00 27.74Q37.87 27.86 37.73 27.86L37.73 27.86Q36.89 27.86 36.05 27.83Q35.21 27.79 34.37 27.79L34.37 27.79Q33.67 27.79 32.96 27.83Q32.26 27.86 31.56 27.86L31.56 27.86Q31.44 27.86 31.34 27.73Q31.25 27.60 31.25 27.50L31.25 27.50Q31.25 27.22 31.51 27.19L31.51 27.19Q31.80 27.14 32.12 27.17Q32.45 27.19 32.74 27.19L32.74 27.19Q33.05 27.19 33.26 27.04Q33.48 26.88 33.48 26.57L33.48 26.57L33.48 23.45L33.50 16.87Q33.50 16.54 33.40 16.31Q33.29 16.08 32.88 16.08L32.88 16.08Q32.57 16.08 32.24 16.13Q31.92 16.18 31.58 16.18L31.58 16.18Q31.49 16.18 31.34 16.12Q31.20 16.06 31.20 15.94L31.20 15.94Q31.20 15.62 31.44 15.58L31.44 15.58Q31.75 15.48 32.06 15.44Q32.38 15.41 32.69 15.36L32.69 15.36Q33.36 15.24 34.02 15.08Q34.68 14.93 35.35 14.78L35.35 14.78Q35.50 14.74 35.62 14.74L35.62 14.74Q36.05 14.74 36.05 15.10L36.05 15.10Q36.05 17.95 36.02 20.82Q36 23.69 36 26.57L36 26.57Q36 27 36.41 27.08Q36.82 27.17 37.13 27.17L37.13 27.17Q37.32 27.17 37.50 27.16Q37.68 27.14 37.85 27.14L37.85 27.14Q37.94 27.14 38.04 27.26Q38.14 27.38 38.14 27.48ZM36.17 10.85L36.17 10.85Q36.17 11.52 35.69 11.93Q35.21 12.34 34.56 12.34L34.56 12.34Q33.91 12.34 33.43 11.93Q32.95 11.52 32.95 10.85L32.95 10.85Q32.95 10.18 33.43 9.77Q33.91 9.36 34.56 9.36L34.56 9.36Q35.21 9.36 35.69 9.77Q36.17 10.18 36.17 10.85ZM48.65 24.29L48.65 24.29Q48.65 25.37 48.17 26.06Q47.69 26.76 46.91 27.14Q46.13 27.53 45.22 27.68Q44.30 27.84 43.42 27.84L43.42 27.84Q42.96 27.84 42.52 27.77Q42.07 27.70 41.64 27.62L41.64 27.62Q41.28 27.55 40.91 27.53Q40.54 27.50 40.20 27.41L40.20 27.41Q40.03 26.83 39.90 26.24Q39.77 25.66 39.58 25.10L39.58 25.10Q39.55 24.98 39.44 24.68Q39.34 24.38 39.34 24.29L39.34 24.29Q39.34 24.05 39.56 23.98Q39.79 23.90 39.96 23.90L39.96 23.90Q40.08 23.90 40.19 24Q40.30 24.10 40.34 24.19L40.34 24.19Q40.46 24.36 40.54 24.55Q40.61 24.74 40.70 24.94L40.70 24.94Q40.87 25.22 41.03 25.50Q41.18 25.78 41.42 25.99L41.42 25.99Q41.86 26.42 42.44 26.70Q43.03 26.98 43.63 26.98L43.63 26.98Q44.76 26.98 45.49 26.53Q46.22 26.09 46.22 24.84L46.22 24.84Q46.22 24.10 45.76 23.58Q45.29 23.06 44.54 22.67Q43.80 22.27 42.97 21.90Q42.14 21.53 41.40 21.06Q40.66 20.59 40.19 19.93Q39.72 19.27 39.72 18.31L39.72 18.31Q39.72 17.14 40.34 16.37Q40.97 15.60 41.94 15.23Q42.91 14.86 43.94 14.86L43.94 14.86Q44.64 14.86 45.20 15.01Q45.77 15.17 46.42 15.41L46.42 15.41Q46.70 15.50 47.09 15.50L47.09 15.50Q47.21 15.50 47.34 15.50Q47.47 15.50 47.59 15.48L47.59 15.48Q47.66 16.10 47.77 16.76Q47.88 17.42 47.88 18.05L47.88 18.05Q47.88 18.29 47.74 18.47Q47.59 18.65 47.33 18.65L47.33 18.65Q46.92 18.65 46.78 18.31L46.78 18.31Q46.68 18.10 46.62 17.86Q46.56 17.62 46.49 17.38L46.49 17.38Q46.20 16.58 45.46 16.08Q44.71 15.58 43.87 15.58L43.87 15.58Q42.74 15.58 42.29 16.26Q41.83 16.94 41.83 17.98L41.83 17.98Q41.83 18.36 42 18.67Q42.17 18.98 42.43 19.25L42.43 19.25Q42.67 19.49 42.96 19.66Q43.25 19.82 43.56 19.97L43.56 19.97Q44.26 20.28 45.13 20.65Q46.01 21.02 46.81 21.50Q47.62 21.98 48.13 22.67Q48.65 23.35 48.65 24.29ZM58.87 19.34L58.87 19.34Q58.87 18.67 58.81 18Q58.75 17.33 58.52 16.76Q58.30 16.20 57.82 15.85Q57.34 15.50 56.47 15.50L56.47 15.50Q55.39 15.50 54.73 16.10Q54.07 16.70 53.71 17.60Q53.35 18.50 53.18 19.39L53.18 19.39Q53.71 19.42 54.25 19.43Q54.79 19.44 55.32 19.44L55.32 19.44Q56.21 19.44 57.10 19.40Q57.98 19.37 58.87 19.34ZM61.94 24.91L61.94 24.91Q61.94 24.98 61.90 25.08L61.90 25.08Q61.78 25.30 61.46 25.62Q61.15 25.94 60.80 26.23Q60.46 26.52 60.24 26.69L60.24 26.69Q59.42 27.26 58.44 27.59Q57.46 27.91 56.45 27.91L56.45 27.91Q55.61 27.91 54.64 27.64Q53.66 27.36 52.94 26.90L52.94 26.90Q51.60 26.02 50.99 24.59Q50.38 23.16 50.38 21.60L50.38 21.60Q50.38 19.82 51.07 18.29Q51.77 16.75 53.30 15.79L53.30 15.79Q54 15.36 54.89 15.10Q55.78 14.83 56.59 14.83L56.59 14.83Q58.03 14.83 59.12 15.41Q60.22 15.98 60.84 17.05Q61.46 18.12 61.46 19.58L61.46 19.58Q61.46 20.04 61.24 20.15Q61.01 20.26 60.60 20.26L60.60 20.26Q60.12 20.26 59.64 20.23Q59.16 20.21 58.68 20.18L58.68 20.18Q58.03 20.16 57.40 20.15Q56.76 20.14 56.14 20.14L56.14 20.14Q55.37 20.14 54.59 20.14Q53.81 20.14 53.04 20.16L53.04 20.16Q53.02 20.54 52.99 20.90Q52.97 21.26 52.97 21.65L52.97 21.65Q52.97 22.49 53.16 23.41Q53.35 24.34 53.77 25.13Q54.19 25.92 54.89 26.42Q55.58 26.93 56.62 26.93L56.62 26.93Q57.67 26.93 58.61 26.62Q59.54 26.30 60.34 25.61L60.34 25.61Q60.58 25.39 60.76 25.15Q60.94 24.91 61.13 24.67L61.13 24.67Q61.27 24.48 61.51 24.48L61.51 24.48Q61.68 24.48 61.81 24.61Q61.94 24.74 61.94 24.91ZM70.18 27.48L70.18 27.48Q70.18 27.62 70.04 27.74Q69.91 27.86 69.77 27.86L69.77 27.86Q68.93 27.86 68.09 27.83Q67.25 27.79 66.41 27.79L66.41 27.79Q65.71 27.79 65.00 27.83Q64.30 27.86 63.60 27.86L63.60 27.86Q63.48 27.86 63.38 27.73Q63.29 27.60 63.29 27.50L63.29 27.50Q63.29 27.22 63.55 27.19L63.55 27.19Q63.84 27.14 64.16 27.17Q64.49 27.19 64.78 27.19L64.78 27.19Q65.09 27.19 65.30 27.04Q65.52 26.88 65.52 26.57L65.52 26.57L65.52 23.45L65.54 16.87Q65.54 16.54 65.44 16.31Q65.33 16.08 64.92 16.08L64.92 16.08Q64.61 16.08 64.28 16.13Q63.96 16.18 63.62 16.18L63.62 16.18Q63.53 16.18 63.38 16.12Q63.24 16.06 63.24 15.94L63.24 15.94Q63.24 15.62 63.48 15.58L63.48 15.58Q63.79 15.48 64.10 15.44Q64.42 15.41 64.73 15.36L64.73 15.36Q65.40 15.24 66.06 15.08Q66.72 14.93 67.39 14.78L67.39 14.78Q67.54 14.74 67.66 14.74L67.66 14.74Q68.09 14.74 68.09 15.10L68.09 15.10Q68.09 17.95 68.06 20.82Q68.04 23.69 68.04 26.57L68.04 26.57Q68.04 27 68.45 27.08Q68.86 27.17 69.17 27.17L69.17 27.17Q69.36 27.17 69.54 27.16Q69.72 27.14 69.89 27.14L69.89 27.14Q69.98 27.14 70.08 27.26Q70.18 27.38 70.18 27.48ZM68.21 10.85L68.21 10.85Q68.21 11.52 67.73 11.93Q67.25 12.34 66.60 12.34L66.60 12.34Q65.95 12.34 65.47 11.93Q64.99 11.52 64.99 10.85L64.99 10.85Q64.99 10.18 65.47 9.77Q65.95 9.36 66.60 9.36L66.60 9.36Q67.25 9.36 67.73 9.77Q68.21 10.18 68.21 10.85ZM96.38 10.54L96.38 10.54Q96.38 10.82 96.12 10.90Q95.86 10.97 95.52 10.94Q95.18 10.92 94.97 10.92L94.97 10.92Q94.73 10.92 94.45 11.06Q94.18 11.21 94.18 11.50L94.18 11.50L94.18 26.59Q94.18 26.90 94.45 27.04Q94.73 27.17 94.97 27.17L94.97 27.17Q95.23 27.17 95.48 27.14Q95.74 27.12 95.98 27.12L95.98 27.12Q96.34 27.12 96.34 27.43L96.34 27.43Q96.34 27.60 96.29 27.76Q96.24 27.91 96.05 27.91L96.05 27.91Q95.76 27.91 95.48 27.89Q95.21 27.86 94.92 27.86L94.92 27.86Q93.82 27.79 92.64 27.79L92.64 27.79Q91.68 27.79 90.70 27.86L90.70 27.86Q90.38 27.89 90.08 27.92Q89.78 27.96 89.45 27.96L89.45 27.96Q89.26 27.96 89.21 27.83Q89.16 27.70 89.16 27.53L89.16 27.53Q89.16 27.38 89.23 27.26Q89.30 27.14 89.47 27.14L89.47 27.14Q89.76 27.14 90.04 27.16Q90.31 27.17 90.58 27.17L90.58 27.17Q90.84 27.17 91.13 27.04Q91.42 26.90 91.42 26.59L91.42 26.59L91.42 18.96L82.08 18.96L82.08 26.57Q82.08 26.88 82.36 27.01Q82.63 27.14 82.87 27.14L82.87 27.14Q83.14 27.14 83.40 27.12Q83.66 27.10 83.90 27.10L83.90 27.10Q84.26 27.10 84.26 27.41L84.26 27.41Q84.26 27.65 84.23 27.71Q84.19 27.77 84 27.89L84 27.89Q83.16 27.84 82.30 27.80Q81.43 27.77 80.59 27.77L80.59 27.77Q79.63 27.77 78.65 27.84L78.65 27.84Q78.34 27.86 78.04 27.90Q77.74 27.94 77.42 27.94L77.42 27.94Q77.21 27.94 77.16 27.80Q77.11 27.67 77.11 27.50L77.11 27.50Q77.11 27.36 77.21 27.24Q77.30 27.12 77.45 27.12L77.45 27.12Q77.71 27.12 77.99 27.13Q78.26 27.14 78.53 27.14L78.53 27.14Q78.79 27.14 79.08 27.01Q79.37 26.88 79.37 26.57L79.37 26.57Q79.37 24.50 79.38 22.43Q79.39 20.35 79.39 18.26L79.39 18.26Q79.39 16.56 79.38 14.88Q79.37 13.20 79.37 11.52L79.37 11.52Q79.37 11.21 79.08 11.08Q78.79 10.94 78.53 10.94L78.53 10.94Q78.26 10.94 77.99 10.96Q77.71 10.97 77.45 10.97L77.45 10.97Q77.09 10.97 77.09 10.63L77.09 10.63Q77.09 10.49 77.16 10.32Q77.23 10.15 77.42 10.15L77.42 10.15Q77.74 10.15 78.04 10.19Q78.34 10.22 78.65 10.25L78.65 10.25Q79.63 10.32 80.59 10.32L80.59 10.32Q81.43 10.32 82.27 10.26Q83.11 10.20 83.95 10.20L83.95 10.20Q84.19 10.20 84.24 10.28Q84.29 10.37 84.29 10.58L84.29 10.58Q84.29 10.99 83.88 10.99L83.88 10.99Q83.64 10.99 83.39 10.97Q83.14 10.94 82.87 10.94L82.87 10.94Q82.63 10.94 82.36 11.09Q82.08 11.23 82.08 11.52L82.08 11.52L82.08 18.05L91.42 18.05Q91.42 16.49 91.42 14.94Q91.42 13.39 91.42 11.83L91.42 11.83Q91.42 11.35 91.25 11.14Q91.08 10.92 90.58 10.92L90.58 10.92Q90.31 10.92 90.04 10.93Q89.76 10.94 89.47 10.94L89.47 10.94Q89.33 10.94 89.24 10.81Q89.16 10.68 89.16 10.54L89.16 10.54Q89.16 10.39 89.21 10.26Q89.26 10.13 89.45 10.13L89.45 10.13Q89.78 10.13 90.08 10.16Q90.38 10.20 90.70 10.22L90.70 10.22Q91.10 10.25 91.50 10.26Q91.90 10.27 92.30 10.27L92.30 10.27L92.64 10.27Q93.22 10.27 93.79 10.26Q94.37 10.25 94.94 10.22L94.94 10.22Q95.21 10.20 95.50 10.18Q95.78 10.15 96.05 10.15L96.05 10.15Q96.38 10.15 96.38 10.54ZM105.29 25.06L105.29 25.06Q105.24 24 105.23 22.92Q105.22 21.84 105.17 20.78L105.17 20.78L104.95 20.78Q104.21 20.78 103.34 21.01Q102.48 21.24 101.71 21.70Q100.94 22.15 100.45 22.82Q99.96 23.50 99.96 24.36L99.96 24.36Q99.96 25.42 100.52 26.03Q101.09 26.64 102.17 26.64L102.17 26.64Q102.65 26.64 103.25 26.38Q103.85 26.11 104.40 25.74Q104.95 25.37 105.29 25.06ZM109.73 26.59L109.73 26.59Q109.73 26.76 109.57 26.99Q109.42 27.22 109.30 27.34L109.30 27.34Q108.98 27.62 108.58 27.73Q108.17 27.84 107.76 27.84L107.76 27.84Q106.78 27.84 106.25 27.36Q105.72 26.88 105.46 25.99L105.46 25.99Q104.57 26.78 103.48 27.31Q102.38 27.84 101.16 27.84L101.16 27.84Q100.22 27.84 99.43 27.49Q98.64 27.14 98.15 26.45Q97.66 25.75 97.66 24.77L97.66 24.77Q97.66 23.81 98.14 23.09Q98.62 22.37 99.36 21.86Q100.10 21.36 100.90 21.05L100.90 21.05Q101.93 20.62 103.02 20.41Q104.11 20.21 105.19 20.02L105.19 20.02Q105.17 19.30 105.12 18.41Q105.07 17.52 104.74 16.87L104.74 16.87Q104.50 16.37 104.00 15.95Q103.51 15.53 102.91 15.53L102.91 15.53Q101.90 15.53 101.26 16.10Q100.61 16.68 100.42 17.66L100.42 17.66Q100.39 17.83 100.39 18.02Q100.39 18.22 100.34 18.36L100.34 18.36Q100.30 18.53 100.07 18.62Q99.84 18.72 99.67 18.72L99.67 18.72Q99.14 18.72 98.77 18.44Q98.40 18.17 98.40 17.59L98.40 17.59Q98.40 17.28 98.50 17.06L98.50 17.06Q98.64 16.66 99.01 16.28Q99.38 15.91 99.85 15.64Q100.32 15.36 100.70 15.24L100.70 15.24Q101.23 15.07 101.88 14.96Q102.53 14.86 103.06 14.86L103.06 14.86Q104.33 14.86 105.35 15.40Q106.37 15.94 106.96 16.90Q107.54 17.86 107.54 19.18L107.54 19.18L107.54 19.92Q107.54 21.31 107.53 22.69Q107.52 24.07 107.59 25.46L107.59 25.46Q107.64 25.92 107.78 26.34Q107.93 26.76 108.50 26.76L108.50 26.76Q108.79 26.76 109.07 26.62Q109.34 26.47 109.56 26.47L109.56 26.47Q109.73 26.47 109.73 26.59ZM120.38 17.09L120.38 17.09Q120.38 17.42 120.17 17.62Q119.95 17.81 119.62 17.81L119.62 17.81Q119.18 17.81 119.00 17.57Q118.82 17.33 118.72 17.02Q118.61 16.70 118.43 16.46Q118.25 16.22 117.79 16.22L117.79 16.22Q117.34 16.22 116.82 16.63Q116.30 17.04 115.85 17.64Q115.39 18.24 115.09 18.84Q114.79 19.44 114.77 19.82L114.77 19.82Q114.74 20.33 114.74 20.84Q114.74 21.36 114.74 21.86L114.74 21.86Q114.74 23.02 114.76 24.18Q114.77 25.34 114.77 26.50L114.77 26.50Q114.77 26.81 115.06 26.96Q115.34 27.12 115.61 27.12L115.61 27.12Q115.85 27.12 116.06 27.10Q116.28 27.07 116.52 27.07L116.52 27.07Q116.64 27.07 116.74 27.19Q116.83 27.31 116.83 27.41L116.83 27.41Q116.83 27.55 116.72 27.71Q116.62 27.86 116.47 27.86L116.47 27.86Q115.70 27.86 114.94 27.83Q114.17 27.79 113.40 27.79L113.40 27.79Q112.66 27.79 111.91 27.82Q111.17 27.84 110.40 27.84L110.40 27.84Q110.28 27.84 110.20 27.70Q110.11 27.55 110.11 27.46L110.11 27.46Q110.11 27.14 110.35 27.10L110.35 27.10Q110.62 27.05 110.93 27.07Q111.24 27.10 111.50 27.10L111.50 27.10Q112.18 27.10 112.20 26.47L112.20 26.47Q112.27 25.37 112.27 24.26Q112.27 23.16 112.27 22.06L112.27 22.06L112.27 20.28Q112.27 19.44 112.26 18.60Q112.25 17.76 112.18 16.92L112.18 16.92Q112.15 16.51 111.96 16.31Q111.77 16.10 111.34 16.10L111.34 16.10Q111.14 16.10 110.95 16.15Q110.76 16.20 110.57 16.20L110.57 16.20Q110.18 16.20 110.18 15.86L110.18 15.86Q110.18 15.65 110.40 15.58L110.40 15.58Q110.64 15.48 110.92 15.46Q111.19 15.43 111.43 15.38L111.43 15.38Q112.39 15.24 113.28 15.02L113.28 15.02Q113.35 15.02 113.69 14.94Q114.02 14.86 114.05 14.86L114.05 14.86Q114.38 14.86 114.55 15.14L114.55 15.14Q114.60 15.22 114.62 15.60Q114.65 15.98 114.65 16.48Q114.65 16.97 114.65 17.39Q114.65 17.81 114.65 17.95L114.65 17.95Q115.18 17.14 115.84 16.42Q116.50 15.70 117.32 15.24Q118.15 14.78 119.18 14.78L119.18 14.78Q119.86 14.78 120.04 15.13Q120.22 15.48 120.29 16.03L120.29 16.03Q120.34 16.27 120.36 16.55Q120.38 16.82 120.38 17.09ZM135.46 27.10L135.46 27.10Q135.46 27.41 135.01 27.58Q134.57 27.74 134.05 27.80Q133.54 27.86 133.30 27.86L133.30 27.86Q132.48 27.86 131.99 27.29Q131.50 26.71 131.23 26.02L131.23 26.02Q130.42 26.98 129.17 27.46Q127.92 27.94 126.67 27.94L126.67 27.94Q124.46 27.94 123.59 26.78Q122.71 25.63 122.71 23.54L122.71 23.54Q122.71 21.77 122.72 19.98Q122.74 18.19 122.76 16.39L122.76 16.39Q122.76 16.10 122.65 15.92Q122.54 15.74 122.21 15.74L122.21 15.74Q122.02 15.74 121.82 15.77Q121.63 15.79 121.44 15.79L121.44 15.79Q121.34 15.79 121.24 15.70Q121.13 15.60 121.13 15.53L121.13 15.53Q121.13 15.31 121.22 15.26Q121.32 15.22 121.51 15.19L121.51 15.19Q121.75 15.14 121.99 15.14Q122.23 15.14 122.47 15.12L122.47 15.12Q122.90 15.07 123.32 15.05Q123.74 15.02 124.18 15L124.18 15Q124.37 14.98 124.56 14.95Q124.75 14.93 124.94 14.93L124.94 14.93Q125.06 14.93 125.16 15.13Q125.26 15.34 125.26 15.46L125.26 15.46Q125.26 17.52 125.21 19.60Q125.16 21.67 125.16 23.74L125.16 23.74Q125.16 24.19 125.18 24.70Q125.21 25.20 125.38 25.63L125.38 25.63Q125.64 26.28 126.32 26.54Q127.01 26.81 127.66 26.81L127.66 26.81Q128.35 26.81 129.08 26.53Q129.82 26.26 130.34 25.73Q130.87 25.20 130.94 24.43L130.94 24.43Q130.99 23.98 130.99 23.51Q130.99 23.04 130.99 22.58L130.99 22.58L130.99 16.32Q130.99 16.08 130.84 15.94Q130.68 15.79 130.44 15.79L130.44 15.79Q130.20 15.79 129.97 15.82Q129.74 15.84 129.50 15.84L129.50 15.84Q129.14 15.84 129.14 15.53L129.14 15.53Q129.14 15.36 129.23 15.30Q129.31 15.24 129.46 15.22L129.46 15.22Q129.74 15.17 130.06 15.16Q130.37 15.14 130.68 15.12L130.68 15.12Q131.21 15.07 131.90 14.98Q132.60 14.88 133.08 14.88L133.08 14.88Q133.20 14.88 133.33 15.02Q133.46 15.17 133.44 15.29L133.44 15.29Q133.42 17.86 133.39 20.45Q133.37 23.04 133.37 25.63L133.37 25.63Q133.37 26.16 133.61 26.54Q133.85 26.93 134.45 26.93L134.45 26.93Q134.64 26.93 134.83 26.87Q135.02 26.81 135.22 26.81L135.22 26.81Q135.46 26.81 135.46 27.10ZM150.43 27.50L150.43 27.50Q150.43 27.72 150.29 27.79Q150.14 27.86 149.95 27.86L149.95 27.86Q149.21 27.86 148.44 27.84Q147.67 27.82 146.90 27.82L146.90 27.82Q146.30 27.82 145.67 27.84Q145.03 27.86 144.41 27.86L144.41 27.86Q144.31 27.86 144.22 27.74Q144.12 27.62 144.12 27.53L144.12 27.53Q144.12 27.22 144.36 27.17L144.36 27.17Q144.62 27.12 144.88 27.14Q145.13 27.17 145.37 27.17L145.37 27.17Q145.99 27.17 146.02 26.54L146.02 26.54Q146.06 25.99 146.05 25.44Q146.04 24.89 146.04 24.36L146.04 24.36L146.04 21.38Q146.04 20.88 146.03 20.03Q146.02 19.18 145.97 18.35Q145.92 17.52 145.78 17.09L145.78 17.09Q145.37 15.86 144.14 15.86L144.14 15.86Q143.42 15.86 142.96 16.07Q142.49 16.27 141.89 16.68L141.89 16.68Q141.53 16.94 141.18 17.26Q140.83 17.57 140.54 17.93L140.54 17.93Q140.54 20.09 140.54 22.24Q140.54 24.38 140.54 26.52L140.54 26.52Q140.54 26.83 140.81 26.99Q141.07 27.14 141.34 27.14L141.34 27.14Q141.53 27.14 141.71 27.12Q141.89 27.10 142.06 27.10L142.06 27.10Q142.15 27.10 142.25 27.22Q142.34 27.34 142.34 27.43L142.34 27.43Q142.34 27.60 142.21 27.71Q142.08 27.82 141.94 27.82L141.94 27.82Q141.19 27.82 140.45 27.79Q139.70 27.77 138.96 27.77L138.96 27.77Q138.36 27.77 137.76 27.79Q137.16 27.82 136.56 27.82L136.56 27.82Q136.42 27.82 136.32 27.71Q136.22 27.60 136.22 27.48L136.22 27.48Q136.22 27.22 136.46 27.16Q136.70 27.10 136.99 27.12Q137.28 27.14 137.45 27.14L137.45 27.14Q138.02 27.14 138.07 26.52L138.07 26.52Q138.10 26.18 138.10 25.85Q138.10 25.51 138.10 25.20L138.10 25.20Q138.10 23.14 138.08 21.05Q138.07 18.96 138.05 16.87L138.05 16.87Q138.05 16.61 137.95 16.27Q137.86 15.94 137.52 15.94L137.52 15.94Q137.21 15.94 136.92 16.03Q136.63 16.13 136.32 16.13L136.32 16.13Q136.01 16.13 136.01 15.84L136.01 15.84Q136.01 15.67 136.06 15.62Q136.10 15.58 136.27 15.55L136.27 15.55Q136.70 15.43 137.16 15.37Q137.62 15.31 138.07 15.22L138.07 15.22Q138.48 15.12 138.89 15.01Q139.30 14.90 139.70 14.90L139.70 14.90Q139.99 14.90 140.11 15.07L140.11 15.07Q140.23 15.24 140.29 15.60Q140.35 15.96 140.39 16.32Q140.42 16.68 140.42 16.90L140.42 16.90Q141.22 16.15 142.30 15.52Q143.38 14.88 144.48 14.88L144.48 14.88Q145.32 14.88 146.16 15.07Q147 15.26 147.61 15.78Q148.22 16.30 148.37 17.28L148.37 17.28Q148.42 17.69 148.46 18.13Q148.51 18.58 148.51 18.98L148.51 18.98Q148.51 20.86 148.51 22.73Q148.51 24.60 148.51 26.47L148.51 26.47Q148.51 26.88 148.73 27.02Q148.94 27.17 149.33 27.17L149.33 27.17Q149.52 27.17 149.70 27.14Q149.88 27.12 150.07 27.12L150.07 27.12Q150.22 27.12 150.32 27.25Q150.43 27.38 150.43 27.50ZM161.88 21.46L161.88 21.46Q161.88 20.47 161.74 19.44Q161.59 18.41 161.18 17.52Q160.78 16.63 160.02 16.09Q159.26 15.55 158.02 15.55L158.02 15.55Q156.86 15.55 156.13 16.13Q155.40 16.70 155.02 17.63Q154.63 18.55 154.48 19.57Q154.32 20.59 154.32 21.50L154.32 21.50Q154.32 22.51 154.48 23.51Q154.63 24.50 155.04 25.34Q155.45 26.18 156.22 26.69Q156.98 27.19 158.21 27.19L158.21 27.19Q159.41 27.19 160.14 26.66Q160.87 26.14 161.24 25.27Q161.62 24.41 161.75 23.40Q161.88 22.39 161.88 21.46ZM164.62 21.55L164.62 21.55Q164.62 23.38 163.74 24.82Q162.86 26.26 161.39 27.08Q159.91 27.91 158.09 27.91L158.09 27.91Q156.29 27.91 154.85 27.08Q153.41 26.26 152.56 24.82Q151.70 23.38 151.70 21.60L151.70 21.60Q151.70 19.75 152.54 18.22Q153.38 16.68 154.85 15.76Q156.31 14.83 158.18 14.83L158.18 14.83Q160.25 14.83 161.68 15.67Q163.10 16.51 163.86 18.02Q164.62 19.54 164.62 21.55ZM183.58 10.61L183.58 10.61Q183.58 10.85 183.44 10.91Q183.31 10.97 183.12 10.97L183.12 10.97Q182.98 10.97 182.82 10.96Q182.66 10.94 182.50 10.94L182.50 10.94Q181.82 10.94 181.60 11.14Q181.37 11.33 181.37 11.69Q181.37 12.05 181.37 12.60L181.37 12.60Q181.37 14.74 181.40 16.86Q181.44 18.98 181.44 21.12L181.44 21.12Q181.44 23.23 180.82 24.78Q180.19 26.33 178.84 27.17Q177.48 28.01 175.22 28.01L175.22 28.01Q172.01 28.01 170.15 26.41Q168.29 24.82 168.29 21.48L168.29 21.48L168.29 20.42Q168.29 19.08 168.29 17.75Q168.29 16.42 168.29 15.10L168.29 15.10L168.29 12.94Q168.29 12.60 168.31 12.23Q168.34 11.86 168.29 11.52L168.29 11.52Q168.26 11.14 167.92 11.03Q167.57 10.92 167.14 10.93Q166.70 10.94 166.44 10.94L166.44 10.94Q166.20 10.94 166.14 10.84Q166.08 10.73 166.08 10.54L166.08 10.54Q166.08 10.34 166.22 10.27Q166.37 10.20 166.54 10.20L166.54 10.20Q166.80 10.20 167.06 10.21Q167.33 10.22 167.57 10.25L167.57 10.25Q168.10 10.27 168.61 10.28Q169.13 10.30 169.66 10.30L169.66 10.30Q170.50 10.30 171.34 10.25Q172.18 10.20 172.99 10.20L172.99 10.20Q173.18 10.20 173.33 10.27Q173.47 10.34 173.47 10.58L173.47 10.58Q173.47 10.97 173.06 10.97L173.06 10.97Q172.78 10.97 172.49 10.96Q172.20 10.94 171.89 10.94L171.89 10.94Q171.65 10.94 171.37 11.10Q171.10 11.26 171.05 11.52L171.05 11.52Q171 11.90 171.01 12.35Q171.02 12.79 171.02 13.20L171.02 13.20Q171.02 15.36 171 17.52Q170.98 19.68 170.98 21.84L170.98 21.84Q170.98 23.50 171.29 24.67Q171.60 25.85 172.55 26.46Q173.50 27.07 175.34 27.07L175.34 27.07Q177.14 27.07 178.21 26.28Q179.28 25.49 179.76 24.16Q180.24 22.82 180.24 21.22L180.24 21.22Q180.24 18.79 180.23 16.37Q180.22 13.94 180.22 11.54L180.22 11.54Q180.22 11.23 179.93 11.10Q179.64 10.97 179.38 10.97L179.38 10.97Q179.06 10.97 178.78 10.98Q178.49 10.99 178.18 10.99L178.18 10.99Q178.06 10.99 177.97 10.87Q177.89 10.75 177.89 10.63L177.89 10.63Q177.89 10.20 178.30 10.20L178.30 10.20Q178.63 10.20 178.98 10.24Q179.33 10.27 179.69 10.27L179.69 10.27Q180.29 10.27 180.88 10.26Q181.46 10.25 182.06 10.22L182.06 10.22Q182.35 10.22 182.65 10.20Q182.95 10.18 183.26 10.18L183.26 10.18Q183.46 10.18 183.52 10.31Q183.58 10.44 183.58 10.61ZM205.70 27.48L205.70 27.48Q205.70 27.65 205.57 27.76Q205.44 27.86 205.27 27.86L205.27 27.86Q205.03 27.86 204.80 27.85Q204.58 27.84 204.31 27.82L204.31 27.82Q203.86 27.79 203.42 27.79Q202.99 27.79 202.54 27.79L202.54 27.79Q201.82 27.79 201.11 27.83Q200.40 27.86 199.70 27.86L199.70 27.86Q199.61 27.86 199.50 27.74Q199.39 27.62 199.39 27.53L199.39 27.53Q199.39 27.26 199.64 27.20Q199.90 27.14 200.21 27.17Q200.52 27.19 200.69 27.19L200.69 27.19Q201.31 27.19 201.31 26.57L201.31 26.57Q201.31 25.03 201.34 23.51Q201.36 21.98 201.36 20.45L201.36 20.45Q201.36 19.97 201.34 19.21Q201.31 18.46 201.24 17.72Q201.17 16.99 200.98 16.58L200.98 16.58Q200.78 16.10 200.35 15.90Q199.92 15.70 199.42 15.70L199.42 15.70Q198.91 15.70 198.31 16.01Q197.71 16.32 197.15 16.75Q196.58 17.18 196.22 17.52L196.22 17.52Q196.27 17.83 196.27 18.18Q196.27 18.53 196.27 18.86L196.27 18.86Q196.27 19.56 196.28 20.27Q196.30 20.98 196.30 21.67L196.30 21.67Q196.30 22.90 196.28 24.12Q196.27 25.34 196.27 26.57L196.27 26.57Q196.27 26.88 196.55 27.04Q196.82 27.19 197.11 27.19L197.11 27.19Q197.30 27.19 197.48 27.17Q197.66 27.14 197.86 27.14L197.86 27.14Q197.98 27.14 198.07 27.26Q198.17 27.38 198.17 27.48L198.17 27.48Q198.17 27.65 198.04 27.76Q197.90 27.86 197.74 27.86L197.74 27.86Q197.50 27.86 197.27 27.85Q197.04 27.84 196.78 27.82L196.78 27.82Q196.32 27.79 195.88 27.79Q195.43 27.79 195 27.79L195 27.79Q194.30 27.79 193.62 27.83Q192.94 27.86 192.24 27.86L192.24 27.86Q192.14 27.86 192.04 27.74Q191.93 27.62 191.93 27.53L191.93 27.53Q191.93 27.24 192.19 27.19L192.19 27.19Q192.43 27.14 192.68 27.17Q192.94 27.19 193.18 27.19L193.18 27.19Q193.80 27.19 193.80 26.57L193.80 26.57Q193.80 24.96 193.81 23.36Q193.82 21.77 193.82 20.16L193.82 20.16Q193.82 19.68 193.81 19.01Q193.80 18.34 193.72 17.66Q193.63 16.99 193.44 16.58L193.44 16.58Q193.27 16.20 192.91 15.97Q192.55 15.74 192.12 15.74L192.12 15.74Q191.81 15.74 191.47 15.82L191.47 15.82Q191.09 15.91 190.57 16.25Q190.06 16.58 189.58 16.98Q189.10 17.38 188.81 17.69L188.81 17.69Q188.81 19.90 188.81 22.13Q188.81 24.36 188.81 26.57L188.81 26.57Q188.81 26.88 189.05 27.04Q189.29 27.19 189.55 27.19L189.55 27.19Q189.74 27.19 189.91 27.17Q190.08 27.14 190.25 27.14L190.25 27.14Q190.37 27.14 190.46 27.26Q190.56 27.38 190.56 27.48L190.56 27.48Q190.56 27.65 190.43 27.76Q190.30 27.86 190.13 27.86L190.13 27.86Q189.91 27.86 189.70 27.85Q189.48 27.84 189.24 27.82L189.24 27.82Q188.81 27.79 188.38 27.79Q187.94 27.79 187.51 27.79L187.51 27.79Q186.82 27.79 186.10 27.83Q185.38 27.86 184.66 27.86L184.66 27.86Q184.54 27.86 184.44 27.74Q184.34 27.62 184.34 27.53L184.34 27.53Q184.34 27.24 184.61 27.19L184.61 27.19Q184.87 27.14 185.15 27.17Q185.42 27.19 185.69 27.19L185.69 27.19Q186.34 27.19 186.34 26.57L186.34 26.57Q186.34 24.14 186.32 21.71Q186.31 19.27 186.31 16.85L186.31 16.85Q186.31 16.51 186.22 16.24Q186.12 15.96 185.71 15.96L185.71 15.96Q185.40 15.96 185.11 16.03Q184.82 16.10 184.51 16.10L184.51 16.10Q184.15 16.10 184.15 15.74L184.15 15.74Q184.15 15.55 184.39 15.48L184.39 15.48Q184.51 15.43 184.67 15.43Q184.82 15.43 184.97 15.41L184.97 15.41Q185.30 15.36 185.63 15.30Q185.95 15.24 186.26 15.19L186.26 15.19Q186.70 15.12 187.13 15Q187.56 14.88 188.02 14.88L188.02 14.88Q188.30 14.88 188.42 15.05L188.42 15.05Q188.59 15.31 188.64 15.83Q188.69 16.34 188.71 16.66L188.71 16.66Q189.46 16.03 190.40 15.42Q191.35 14.81 192.36 14.81L192.36 14.81Q193.56 14.81 194.47 15.17Q195.38 15.53 195.98 16.63L195.98 16.63Q196.78 15.94 197.78 15.35Q198.79 14.76 199.87 14.76L199.87 14.76Q201.48 14.76 202.34 15.19Q203.21 15.62 203.56 16.56Q203.90 17.50 203.90 19.03L203.90 19.03Q203.90 20.90 203.87 22.79Q203.83 24.67 203.83 26.54L203.83 26.54Q203.83 26.90 204.06 27.02Q204.29 27.14 204.61 27.14Q204.94 27.14 205.18 27.14L205.18 27.14Q205.37 27.14 205.54 27.19Q205.70 27.24 205.70 27.48ZM213.58 27.48L213.58 27.48Q213.58 27.62 213.44 27.74Q213.31 27.86 213.17 27.86L213.17 27.86Q212.33 27.86 211.49 27.83Q210.65 27.79 209.81 27.79L209.81 27.79Q209.11 27.79 208.40 27.83Q207.70 27.86 207 27.86L207 27.86Q206.88 27.86 206.78 27.73Q206.69 27.60 206.69 27.50L206.69 27.50Q206.69 27.22 206.95 27.19L206.95 27.19Q207.24 27.14 207.56 27.17Q207.89 27.19 208.18 27.19L208.18 27.19Q208.49 27.19 208.70 27.04Q208.92 26.88 208.92 26.57L208.92 26.57L208.92 23.45L208.94 16.87Q208.94 16.54 208.84 16.31Q208.73 16.08 208.32 16.08L208.32 16.08Q208.01 16.08 207.68 16.13Q207.36 16.18 207.02 16.18L207.02 16.18Q206.93 16.18 206.78 16.12Q206.64 16.06 206.64 15.94L206.64 15.94Q206.64 15.62 206.88 15.58L206.88 15.58Q207.19 15.48 207.50 15.44Q207.82 15.41 208.13 15.36L208.13 15.36Q208.80 15.24 209.46 15.08Q210.12 14.93 210.79 14.78L210.79 14.78Q210.94 14.74 211.06 14.74L211.06 14.74Q211.49 14.74 211.49 15.10L211.49 15.10Q211.49 17.95 211.46 20.82Q211.44 23.69 211.44 26.57L211.44 26.57Q211.44 27 211.85 27.08Q212.26 27.17 212.57 27.17L212.57 27.17Q212.76 27.17 212.94 27.16Q213.12 27.14 213.29 27.14L213.29 27.14Q213.38 27.14 213.48 27.26Q213.58 27.38 213.58 27.48ZM211.61 10.85L211.61 10.85Q211.61 11.52 211.13 11.93Q210.65 12.34 210 12.34L210 12.34Q209.35 12.34 208.87 11.93Q208.39 11.52 208.39 10.85L208.39 10.85Q208.39 10.18 208.87 9.77Q209.35 9.36 210 9.36L210 9.36Q210.65 9.36 211.13 9.77Q211.61 10.18 211.61 10.85ZM233.16 21.67L233.16 21.67Q233.16 22.78 232.69 24.05Q232.22 25.32 231.36 26.09L231.36 26.09Q230.40 26.95 229.02 27.42Q227.64 27.89 226.32 27.89L226.32 27.89Q225.72 27.89 224.86 27.73Q223.99 27.58 223.14 27.24Q222.29 26.90 221.72 26.35Q221.16 25.80 221.16 25.01L221.16 25.01Q221.16 24.43 221.59 24.13Q222.02 23.83 222.55 23.83L222.55 23.83Q223.03 23.83 223.39 24.06Q223.75 24.29 223.78 24.82L223.78 24.82Q223.82 25.20 223.91 25.60Q223.99 25.99 224.23 26.33L224.23 26.33Q224.54 26.71 225.04 26.88Q225.53 27.05 225.98 27.05L225.98 27.05Q227.64 27.05 228.62 26.28Q229.61 25.51 230.09 23.98L230.09 23.98Q230.28 23.42 230.30 22.84Q230.33 22.25 230.33 21.70L230.33 21.70Q230.33 20.62 230.09 19.67Q229.85 18.72 229.20 18.12Q228.55 17.52 227.30 17.52L227.30 17.52Q226.56 17.52 225.86 17.83Q225.17 18.14 224.69 18.72Q224.21 19.30 224.11 20.09L224.11 20.09Q224.11 20.21 224.10 20.32Q224.09 20.42 224.02 20.54L224.02 20.54Q223.92 20.71 223.66 20.71L223.66 20.71Q223.51 20.71 223.12 20.60Q222.72 20.50 222.37 20.34Q222.02 20.18 222.02 20.02L222.02 20.02Q222.02 19.94 222.05 19.87Q222.07 19.80 222.10 19.73L222.10 19.73Q222.36 18.82 222.46 17.57Q222.55 16.32 222.58 15.05Q222.60 13.78 222.60 12.79L222.60 12.79Q222.60 12.17 222.58 11.53Q222.55 10.90 222.46 10.27L222.46 10.27Q223.22 10.37 223.98 10.42Q224.74 10.46 225.50 10.46L225.50 10.46L229.03 10.46Q229.37 10.46 229.90 10.44Q230.42 10.42 230.95 10.32Q231.48 10.22 231.77 10.06L231.77 10.06Q231.94 9.96 232.13 9.85Q232.32 9.74 232.49 9.74L232.49 9.74Q232.61 9.74 232.75 9.79Q232.90 9.84 232.90 9.98L232.90 9.98Q232.90 10.08 232.73 10.46Q232.56 10.85 232.37 11.23Q232.18 11.62 232.10 11.74L232.10 11.74Q231.98 11.93 231.78 11.99Q231.58 12.05 231.38 12.05L231.38 12.05Q231.31 12.05 231.24 12.05Q231.17 12.05 231.10 12.02L231.10 12.02Q230.42 11.98 229.75 11.96Q229.08 11.95 228.41 11.95L228.41 11.95L224.18 11.95Q224.16 13.42 224.09 14.93Q224.02 16.44 223.92 17.93L223.92 17.93Q224.95 17.23 225.91 16.91Q226.87 16.58 228.12 16.58L228.12 16.58Q229.03 16.58 229.94 16.86Q230.86 17.14 231.55 17.78L231.55 17.78Q232.32 18.50 232.74 19.56Q233.16 20.62 233.16 21.67ZM244.56 19.15L244.56 19.15Q244.56 18.50 244.52 17.48Q244.49 16.46 244.33 15.36Q244.18 14.26 243.84 13.27Q243.50 12.29 242.90 11.66Q242.30 11.04 241.34 11.04L241.34 11.04Q240.46 11.04 239.87 11.69Q239.28 12.34 238.90 13.36Q238.51 14.38 238.32 15.52Q238.13 16.66 238.06 17.68Q237.98 18.70 237.98 19.32L237.98 19.32Q237.98 19.92 238.04 20.88Q238.10 21.84 238.27 22.88Q238.44 23.93 238.79 24.86Q239.14 25.80 239.72 26.39Q240.31 26.98 241.18 26.98L241.18 26.98Q242.09 26.98 242.70 26.38Q243.31 25.78 243.68 24.84Q244.06 23.90 244.25 22.82Q244.44 21.74 244.50 20.77Q244.56 19.80 244.56 19.15ZM247.32 18.84L247.32 18.84Q247.32 19.97 247.12 21.22Q246.91 22.46 246.46 23.63Q246 24.79 245.28 25.74Q244.56 26.69 243.53 27.24Q242.50 27.79 241.13 27.79L241.13 27.79Q239.50 27.79 238.38 27Q237.26 26.21 236.59 24.95Q235.92 23.69 235.62 22.24Q235.32 20.78 235.32 19.44L235.32 19.44Q235.32 18.29 235.52 17.03Q235.73 15.77 236.17 14.57Q236.62 13.37 237.34 12.40Q238.06 11.42 239.10 10.85Q240.14 10.27 241.56 10.27L241.56 10.27Q242.88 10.27 243.85 10.81Q244.82 11.35 245.50 12.25Q246.17 13.15 246.56 14.27Q246.96 15.38 247.14 16.57Q247.32 17.76 247.32 18.84ZM258.72 19.15L258.72 19.15Q258.72 18.50 258.68 17.48Q258.65 16.46 258.49 15.36Q258.34 14.26 258 13.27Q257.66 12.29 257.06 11.66Q256.46 11.04 255.50 11.04L255.50 11.04Q254.62 11.04 254.03 11.69Q253.44 12.34 253.06 13.36Q252.67 14.38 252.48 15.52Q252.29 16.66 252.22 17.68Q252.14 18.70 252.14 19.32L252.14 19.32Q252.14 19.92 252.20 20.88Q252.26 21.84 252.43 22.88Q252.60 23.93 252.95 24.86Q253.30 25.80 253.88 26.39Q254.47 26.98 255.34 26.98L255.34 26.98Q256.25 26.98 256.86 26.38Q257.47 25.78 257.84 24.84Q258.22 23.90 258.41 22.82Q258.60 21.74 258.66 20.77Q258.72 19.80 258.72 19.15ZM261.48 18.84L261.48 18.84Q261.48 19.97 261.28 21.22Q261.07 22.46 260.62 23.63Q260.16 24.79 259.44 25.74Q258.72 26.69 257.69 27.24Q256.66 27.79 255.29 27.79L255.29 27.79Q253.66 27.79 252.54 27Q251.42 26.21 250.75 24.95Q250.08 23.69 249.78 22.24Q249.48 20.78 249.48 19.44L249.48 19.44Q249.48 18.29 249.68 17.03Q249.89 15.77 250.33 14.57Q250.78 13.37 251.50 12.40Q252.22 11.42 253.26 10.85Q254.30 10.27 255.72 10.27L255.72 10.27Q257.04 10.27 258.01 10.81Q258.98 11.35 259.66 12.25Q260.33 13.15 260.72 14.27Q261.12 15.38 261.30 16.57Q261.48 17.76 261.48 18.84ZM283.44 27.50L283.44 27.50Q283.44 27.72 283.30 27.79Q283.15 27.86 282.96 27.86L282.96 27.86Q282.22 27.86 281.45 27.84Q280.68 27.82 279.91 27.82L279.91 27.82Q279.31 27.82 278.68 27.84Q278.04 27.86 277.42 27.86L277.42 27.86Q277.32 27.86 277.22 27.74Q277.13 27.62 277.13 27.53L277.13 27.53Q277.13 27.22 277.37 27.17L277.37 27.17Q277.63 27.12 277.88 27.14Q278.14 27.17 278.38 27.17L278.38 27.17Q279 27.17 279.02 26.54L279.02 26.54Q279.07 25.99 279.06 25.44Q279.05 24.89 279.05 24.36L279.05 24.36L279.05 21.38Q279.05 20.88 279.04 20.03Q279.02 19.18 278.98 18.35Q278.93 17.52 278.78 17.09L278.78 17.09Q278.38 15.86 277.15 15.86L277.15 15.86Q276.43 15.86 275.96 16.07Q275.50 16.27 274.90 16.68L274.90 16.68Q274.54 16.94 274.19 17.26Q273.84 17.57 273.55 17.93L273.55 17.93Q273.55 20.09 273.55 22.24Q273.55 24.38 273.55 26.52L273.55 26.52Q273.55 26.83 273.82 26.99Q274.08 27.14 274.34 27.14L274.34 27.14Q274.54 27.14 274.72 27.12Q274.90 27.10 275.06 27.10L275.06 27.10Q275.16 27.10 275.26 27.22Q275.35 27.34 275.35 27.43L275.35 27.43Q275.35 27.60 275.22 27.71Q275.09 27.82 274.94 27.82L274.94 27.82Q274.20 27.82 273.46 27.79Q272.71 27.77 271.97 27.77L271.97 27.77Q271.37 27.77 270.77 27.79Q270.17 27.82 269.57 27.82L269.57 27.82Q269.42 27.82 269.33 27.71Q269.23 27.60 269.23 27.48L269.23 27.48Q269.23 27.22 269.47 27.16Q269.71 27.10 270 27.12Q270.29 27.14 270.46 27.14L270.46 27.14Q271.03 27.14 271.08 26.52L271.08 26.52Q271.10 26.18 271.10 25.85Q271.10 25.51 271.10 25.20L271.10 25.20Q271.10 23.14 271.09 21.05Q271.08 18.96 271.06 16.87L271.06 16.87Q271.06 16.61 270.96 16.27Q270.86 15.94 270.53 15.94L270.53 15.94Q270.22 15.94 269.93 16.03Q269.64 16.13 269.33 16.13L269.33 16.13Q269.02 16.13 269.02 15.84L269.02 15.84Q269.02 15.67 269.06 15.62Q269.11 15.58 269.28 15.55L269.28 15.55Q269.71 15.43 270.17 15.37Q270.62 15.31 271.08 15.22L271.08 15.22Q271.49 15.12 271.90 15.01Q272.30 14.90 272.71 14.90L272.71 14.90Q273 14.90 273.12 15.07L273.12 15.07Q273.24 15.24 273.30 15.60Q273.36 15.96 273.40 16.32Q273.43 16.68 273.43 16.90L273.43 16.90Q274.22 16.15 275.30 15.52Q276.38 14.88 277.49 14.88L277.49 14.88Q278.33 14.88 279.17 15.07Q280.01 15.26 280.62 15.78Q281.23 16.30 281.38 17.28L281.38 17.28Q281.42 17.69 281.47 18.13Q281.52 18.58 281.52 18.98L281.52 18.98Q281.52 20.86 281.52 22.73Q281.52 24.60 281.52 26.47L281.52 26.47Q281.52 26.88 281.74 27.02Q281.95 27.17 282.34 27.17L282.34 27.17Q282.53 27.17 282.71 27.14Q282.89 27.12 283.08 27.12L283.08 27.12Q283.22 27.12 283.33 27.25Q283.44 27.38 283.44 27.50ZM294.89 21.46L294.89 21.46Q294.89 20.47 294.74 19.44Q294.60 18.41 294.19 17.52Q293.78 16.63 293.03 16.09Q292.27 15.55 291.02 15.55L291.02 15.55Q289.87 15.55 289.14 16.13Q288.41 16.70 288.02 17.63Q287.64 18.55 287.48 19.57Q287.33 20.59 287.33 21.50L287.33 21.50Q287.33 22.51 287.48 23.51Q287.64 24.50 288.05 25.34Q288.46 26.18 289.22 26.69Q289.99 27.19 291.22 27.19L291.22 27.19Q292.42 27.19 293.15 26.66Q293.88 26.14 294.25 25.27Q294.62 24.41 294.76 23.40Q294.89 22.39 294.89 21.46ZM297.62 21.55L297.62 21.55Q297.62 23.38 296.75 24.82Q295.87 26.26 294.40 27.08Q292.92 27.91 291.10 27.91L291.10 27.91Q289.30 27.91 287.86 27.08Q286.42 26.26 285.56 24.82Q284.71 23.38 284.71 21.60L284.71 21.60Q284.71 19.75 285.55 18.22Q286.39 16.68 287.86 15.76Q289.32 14.83 291.19 14.83L291.19 14.83Q293.26 14.83 294.68 15.67Q296.11 16.51 296.87 18.02Q297.62 19.54 297.62 21.55ZM309.17 17.09L309.17 17.09Q309.17 17.42 308.95 17.62Q308.74 17.81 308.40 17.81L308.40 17.81Q307.97 17.81 307.79 17.57Q307.61 17.33 307.50 17.02Q307.39 16.70 307.21 16.46Q307.03 16.22 306.58 16.22L306.58 16.22Q306.12 16.22 305.60 16.63Q305.09 17.04 304.63 17.64Q304.18 18.24 303.88 18.84Q303.58 19.44 303.55 19.82L303.55 19.82Q303.53 20.33 303.53 20.84Q303.53 21.36 303.53 21.86L303.53 21.86Q303.53 23.02 303.54 24.18Q303.55 25.34 303.55 26.50L303.55 26.50Q303.55 26.81 303.84 26.96Q304.13 27.12 304.39 27.12L304.39 27.12Q304.63 27.12 304.85 27.10Q305.06 27.07 305.30 27.07L305.30 27.07Q305.42 27.07 305.52 27.19Q305.62 27.31 305.62 27.41L305.62 27.41Q305.62 27.55 305.51 27.71Q305.40 27.86 305.26 27.86L305.26 27.86Q304.49 27.86 303.72 27.83Q302.95 27.79 302.18 27.79L302.18 27.79Q301.44 27.79 300.70 27.82Q299.95 27.84 299.18 27.84L299.18 27.84Q299.06 27.84 298.98 27.70Q298.90 27.55 298.90 27.46L298.90 27.46Q298.90 27.14 299.14 27.10L299.14 27.10Q299.40 27.05 299.71 27.07Q300.02 27.10 300.29 27.10L300.29 27.10Q300.96 27.10 300.98 26.47L300.98 26.47Q301.06 25.37 301.06 24.26Q301.06 23.16 301.06 22.06L301.06 22.06L301.06 20.28Q301.06 19.44 301.04 18.60Q301.03 17.76 300.96 16.92L300.96 16.92Q300.94 16.51 300.74 16.31Q300.55 16.10 300.12 16.10L300.12 16.10Q299.93 16.10 299.74 16.15Q299.54 16.20 299.35 16.20L299.35 16.20Q298.97 16.20 298.97 15.86L298.97 15.86Q298.97 15.65 299.18 15.58L299.18 15.58Q299.42 15.48 299.70 15.46Q299.98 15.43 300.22 15.38L300.22 15.38Q301.18 15.24 302.06 15.02L302.06 15.02Q302.14 15.02 302.47 14.94Q302.81 14.86 302.83 14.86L302.83 14.86Q303.17 14.86 303.34 15.14L303.34 15.14Q303.38 15.22 303.41 15.60Q303.43 15.98 303.43 16.48Q303.43 16.97 303.43 17.39Q303.43 17.81 303.43 17.95L303.43 17.95Q303.96 17.14 304.62 16.42Q305.28 15.70 306.11 15.24Q306.94 14.78 307.97 14.78L307.97 14.78Q308.64 14.78 308.82 15.13Q309 15.48 309.07 16.03L309.07 16.03Q309.12 16.27 309.14 16.55Q309.17 16.82 309.17 17.09ZM331.22 27.48L331.22 27.48Q331.22 27.65 331.09 27.76Q330.96 27.86 330.79 27.86L330.79 27.86Q330.55 27.86 330.32 27.85Q330.10 27.84 329.83 27.82L329.83 27.82Q329.38 27.79 328.94 27.79Q328.51 27.79 328.06 27.79L328.06 27.79Q327.34 27.79 326.63 27.83Q325.92 27.86 325.22 27.86L325.22 27.86Q325.13 27.86 325.02 27.74Q324.91 27.62 324.91 27.53L324.91 27.53Q324.91 27.26 325.16 27.20Q325.42 27.14 325.73 27.17Q326.04 27.19 326.21 27.19L326.21 27.19Q326.83 27.19 326.83 26.57L326.83 26.57Q326.83 25.03 326.86 23.51Q326.88 21.98 326.88 20.45L326.88 20.45Q326.88 19.97 326.86 19.21Q326.83 18.46 326.76 17.72Q326.69 16.99 326.50 16.58L326.50 16.58Q326.30 16.10 325.87 15.90Q325.44 15.70 324.94 15.70L324.94 15.70Q324.43 15.70 323.83 16.01Q323.23 16.32 322.67 16.75Q322.10 17.18 321.74 17.52L321.74 17.52Q321.79 17.83 321.79 18.18Q321.79 18.53 321.79 18.86L321.79 18.86Q321.79 19.56 321.80 20.27Q321.82 20.98 321.82 21.67L321.82 21.67Q321.82 22.90 321.80 24.12Q321.79 25.34 321.79 26.57L321.79 26.57Q321.79 26.88 322.07 27.04Q322.34 27.19 322.63 27.19L322.63 27.19Q322.82 27.19 323.00 27.17Q323.18 27.14 323.38 27.14L323.38 27.14Q323.50 27.14 323.59 27.26Q323.69 27.38 323.69 27.48L323.69 27.48Q323.69 27.65 323.56 27.76Q323.42 27.86 323.26 27.86L323.26 27.86Q323.02 27.86 322.79 27.85Q322.56 27.84 322.30 27.82L322.30 27.82Q321.84 27.79 321.40 27.79Q320.95 27.79 320.52 27.79L320.52 27.79Q319.82 27.79 319.14 27.83Q318.46 27.86 317.76 27.86L317.76 27.86Q317.66 27.86 317.56 27.74Q317.45 27.62 317.45 27.53L317.45 27.53Q317.45 27.24 317.71 27.19L317.71 27.19Q317.95 27.14 318.20 27.17Q318.46 27.19 318.70 27.19L318.70 27.19Q319.32 27.19 319.32 26.57L319.32 26.57Q319.32 24.96 319.33 23.36Q319.34 21.77 319.34 20.16L319.34 20.16Q319.34 19.68 319.33 19.01Q319.32 18.34 319.24 17.66Q319.15 16.99 318.96 16.58L318.96 16.58Q318.79 16.20 318.43 15.97Q318.07 15.74 317.64 15.74L317.64 15.74Q317.33 15.74 316.99 15.82L316.99 15.82Q316.61 15.91 316.09 16.25Q315.58 16.58 315.10 16.98Q314.62 17.38 314.33 17.69L314.33 17.69Q314.33 19.90 314.33 22.13Q314.33 24.36 314.33 26.57L314.33 26.57Q314.33 26.88 314.57 27.04Q314.81 27.19 315.07 27.19L315.07 27.19Q315.26 27.19 315.43 27.17Q315.60 27.14 315.77 27.14L315.77 27.14Q315.89 27.14 315.98 27.26Q316.08 27.38 316.08 27.48L316.08 27.48Q316.08 27.65 315.95 27.76Q315.82 27.86 315.65 27.86L315.65 27.86Q315.43 27.86 315.22 27.85Q315 27.84 314.76 27.82L314.76 27.82Q314.33 27.79 313.90 27.79Q313.46 27.79 313.03 27.79L313.03 27.79Q312.34 27.79 311.62 27.83Q310.90 27.86 310.18 27.86L310.18 27.86Q310.06 27.86 309.96 27.74Q309.86 27.62 309.86 27.53L309.86 27.53Q309.86 27.24 310.13 27.19L310.13 27.19Q310.39 27.14 310.67 27.17Q310.94 27.19 311.21 27.19L311.21 27.19Q311.86 27.19 311.86 26.57L311.86 26.57Q311.86 24.14 311.84 21.71Q311.83 19.27 311.83 16.85L311.83 16.85Q311.83 16.51 311.74 16.24Q311.64 15.96 311.23 15.96L311.23 15.96Q310.92 15.96 310.63 16.03Q310.34 16.10 310.03 16.10L310.03 16.10Q309.67 16.10 309.67 15.74L309.67 15.74Q309.67 15.55 309.91 15.48L309.91 15.48Q310.03 15.43 310.19 15.43Q310.34 15.43 310.49 15.41L310.49 15.41Q310.82 15.36 311.15 15.30Q311.47 15.24 311.78 15.19L311.78 15.19Q312.22 15.12 312.65 15Q313.08 14.88 313.54 14.88L313.54 14.88Q313.82 14.88 313.94 15.05L313.94 15.05Q314.11 15.31 314.16 15.83Q314.21 16.34 314.23 16.66L314.23 16.66Q314.98 16.03 315.92 15.42Q316.87 14.81 317.88 14.81L317.88 14.81Q319.08 14.81 319.99 15.17Q320.90 15.53 321.50 16.63L321.50 16.63Q322.30 15.94 323.30 15.35Q324.31 14.76 325.39 14.76L325.39 14.76Q327 14.76 327.86 15.19Q328.73 15.62 329.08 16.56Q329.42 17.50 329.42 19.03L329.42 19.03Q329.42 20.90 329.39 22.79Q329.35 24.67 329.35 26.54L329.35 26.54Q329.35 26.90 329.58 27.02Q329.81 27.14 330.13 27.14Q330.46 27.14 330.70 27.14L330.70 27.14Q330.89 27.14 331.06 27.19Q331.22 27.24 331.22 27.48ZM339.86 25.06L339.86 25.06Q339.82 24 339.80 22.92Q339.79 21.84 339.74 20.78L339.74 20.78L339.53 20.78Q338.78 20.78 337.92 21.01Q337.06 21.24 336.29 21.70Q335.52 22.15 335.03 22.82Q334.54 23.50 334.54 24.36L334.54 24.36Q334.54 25.42 335.10 26.03Q335.66 26.64 336.74 26.64L336.74 26.64Q337.22 26.64 337.82 26.38Q338.42 26.11 338.98 25.74Q339.53 25.37 339.86 25.06ZM344.30 26.59L344.30 26.59Q344.30 26.76 344.15 26.99Q343.99 27.22 343.87 27.34L343.87 27.34Q343.56 27.62 343.15 27.73Q342.74 27.84 342.34 27.84L342.34 27.84Q341.35 27.84 340.82 27.36Q340.30 26.88 340.03 25.99L340.03 25.99Q339.14 26.78 338.05 27.31Q336.96 27.84 335.74 27.84L335.74 27.84Q334.80 27.84 334.01 27.49Q333.22 27.14 332.72 26.45Q332.23 25.75 332.23 24.77L332.23 24.77Q332.23 23.81 332.71 23.09Q333.19 22.37 333.94 21.86Q334.68 21.36 335.47 21.05L335.47 21.05Q336.50 20.62 337.60 20.41Q338.69 20.21 339.77 20.02L339.77 20.02Q339.74 19.30 339.70 18.41Q339.65 17.52 339.31 16.87L339.31 16.87Q339.07 16.37 338.58 15.95Q338.09 15.53 337.49 15.53L337.49 15.53Q336.48 15.53 335.83 16.10Q335.18 16.68 334.99 17.66L334.99 17.66Q334.97 17.83 334.97 18.02Q334.97 18.22 334.92 18.36L334.92 18.36Q334.87 18.53 334.64 18.62Q334.42 18.72 334.25 18.72L334.25 18.72Q333.72 18.72 333.35 18.44Q332.98 18.17 332.98 17.59L332.98 17.59Q332.98 17.28 333.07 17.06L333.07 17.06Q333.22 16.66 333.59 16.28Q333.96 15.91 334.43 15.64Q334.90 15.36 335.28 15.24L335.28 15.24Q335.81 15.07 336.46 14.96Q337.10 14.86 337.63 14.86L337.63 14.86Q338.90 14.86 339.92 15.40Q340.94 15.94 341.53 16.90Q342.12 17.86 342.12 19.18L342.12 19.18L342.12 19.92Q342.12 21.31 342.11 22.69Q342.10 24.07 342.17 25.46L342.17 25.46Q342.22 25.92 342.36 26.34Q342.50 26.76 343.08 26.76L343.08 26.76Q343.37 26.76 343.64 26.62Q343.92 26.47 344.14 26.47L344.14 26.47Q344.30 26.47 344.30 26.59ZM352.10 27.48L352.10 27.48Q352.10 27.62 351.97 27.74Q351.84 27.86 351.70 27.86L351.70 27.86Q350.95 27.86 350.18 27.83Q349.42 27.79 348.65 27.79L348.65 27.79Q348.19 27.79 347.75 27.79Q347.30 27.79 346.85 27.82L346.85 27.82Q346.58 27.84 346.32 27.85Q346.06 27.86 345.79 27.86L345.79 27.86Q345.65 27.86 345.56 27.72Q345.48 27.58 345.48 27.46L345.48 27.46Q345.48 27.22 345.74 27.14L345.74 27.14Q345.96 27.10 346.21 27.12Q346.46 27.14 346.70 27.14L346.70 27.14Q346.99 27.14 347.22 26.99Q347.45 26.83 347.45 26.52L347.45 26.52Q347.45 24.67 347.47 22.80Q347.50 20.93 347.50 19.08L347.50 19.08Q347.50 17.21 347.47 15.34Q347.45 13.46 347.45 11.59L347.45 11.59Q347.45 11.33 347.36 11.08Q347.28 10.82 346.94 10.82L346.94 10.82Q346.54 10.82 346.13 10.94Q345.72 11.06 345.29 11.06L345.29 11.06Q345.22 11.06 345.07 11.02Q344.93 10.97 344.93 10.87L344.93 10.87Q344.93 10.56 345.14 10.49L345.14 10.49Q345.43 10.37 345.74 10.33Q346.06 10.30 346.32 10.22L346.32 10.22Q347.09 10.03 347.84 9.82Q348.60 9.60 349.34 9.36L349.34 9.36Q349.42 9.34 349.48 9.32Q349.54 9.31 349.61 9.31L349.61 9.31Q349.94 9.31 349.94 9.67L349.94 9.67Q349.94 10.34 349.94 11.03Q349.94 11.71 349.94 12.41L349.94 12.41L349.94 18.84Q349.94 20.74 349.96 22.67Q349.97 24.60 349.97 26.52L349.97 26.52Q349.97 26.83 350.26 26.99Q350.54 27.14 350.81 27.14L350.81 27.14Q351.07 27.14 351.32 27.12Q351.58 27.10 351.82 27.10L351.82 27.10Q351.91 27.10 352.01 27.24Q352.10 27.38 352.10 27.48Z"/></svg>