<svg xmlns="http://www.w3.org/2000/svg" xmlns:xlink="http://www.w3.org/1999/xlink" width="314.976" height="46.368"><path fill="black" d="M2.45 34.61L2.45 34.61Q1.97 34.61 2.09 34.25L2.09 34.25L9.74 10.70Q9.82 10.51 9.91 10.42Q10.01 10.32 10.32 10.32L10.32 10.32L14.93 10.32Q17.02 10.32 18.40 10.78Q19.78 11.23 20.48 12.25Q21.19 13.27 21.19 15.02L21.19 15.02Q21.19 16.90 20.50 18.40Q19.80 19.90 18.52 20.99Q17.23 22.08 15.43 22.78Q13.63 23.47 11.40 23.78L11.40 23.78Q10.15 23.93 8.87 24.01Q7.58 24.10 6.29 24.17L6.29 24.17L3 34.25Q2.93 34.44 2.82 34.52Q2.71 34.61 2.45 34.61ZM10.49 11.16L6.58 23.30Q7.37 23.28 8.18 23.23Q9 23.18 9.80 23.09Q10.61 22.99 11.33 22.94L11.33 22.94Q14.04 22.56 16.03 21.56Q18.02 20.57 19.13 18.94Q20.23 17.30 20.23 15.05L20.23 15.05Q20.23 13.61 19.63 12.76Q19.03 11.90 17.86 11.53Q16.68 11.16 14.93 11.16L14.93 11.16L10.49 11.16ZM21.12 34.63L21.12 34.63Q20.30 34.63 20.00 33.94Q19.70 33.24 20.16 31.85L20.16 31.85L27.26 10.27Q27.34 10.08 27.44 10.00Q27.55 9.91 27.82 9.91L27.82 9.91Q28.03 9.91 28.15 10.02Q28.27 10.13 28.20 10.32L28.20 10.32L21.10 31.80Q20.78 32.76 20.80 33.28Q20.81 33.79 21.31 33.79L21.31 33.79Q21.82 33.79 22.34 33.44Q22.87 33.10 23.33 32.60Q23.78 32.11 24.10 31.73L24.10 31.73Q24.24 31.56 24.35 31.55Q24.46 31.54 24.58 31.66L24.58 31.66Q24.77 31.80 24.77 31.91Q24.77 32.02 24.67 32.14L24.67 32.14Q24.36 32.59 23.81 33.18Q23.26 33.77 22.57 34.20Q21.89 34.63 21.12 34.63ZM29.71 34.68L29.71 34.68Q28.90 34.68 28.28 34.25Q27.67 33.82 27.34 33.01Q27.00 32.21 27.00 31.13L27.00 31.13Q27.00 30.02 27.35 28.76Q27.70 27.50 28.37 26.27Q29.04 25.03 30.01 24.02Q30.98 23.02 32.22 22.42Q33.46 21.82 34.94 21.82L34.94 21.82Q35.74 21.82 36.59 22.06Q37.44 22.30 38.16 22.78L38.16 22.78L38.30 22.27Q38.38 22.08 38.51 22.00Q38.64 21.91 38.88 21.91L38.88 21.91Q39.14 21.91 39.23 22.06Q39.31 22.20 39.24 22.39L39.24 22.39L36.07 32.11Q35.90 32.66 35.86 33.05Q35.81 33.43 35.93 33.64Q36.05 33.84 36.36 33.84L36.36 33.84Q36.82 33.84 37.32 33.49Q37.82 33.14 38.29 32.66Q38.76 32.18 39.07 31.78L39.07 31.78Q39.19 31.61 39.30 31.61Q39.41 31.61 39.55 31.73L39.55 31.73Q39.74 31.85 39.73 31.97Q39.72 32.09 39.62 32.21L39.62 32.21Q39.31 32.64 38.78 33.23Q38.26 33.82 37.58 34.25Q36.91 34.68 36.19 34.68L36.19 34.68Q35.76 34.68 35.47 34.52Q35.18 34.37 35.04 34.06Q34.90 33.74 34.92 33.26Q34.94 32.78 35.16 32.14L35.16 32.14Q35.45 31.20 35.76 30.26Q36.07 29.33 36.36 28.39L36.36 28.39Q35.16 30.58 34.02 31.97Q32.88 33.36 31.81 34.02Q30.74 34.68 29.71 34.68ZM27.94 31.13L27.94 31.13Q27.94 31.92 28.15 32.53Q28.37 33.14 28.79 33.49Q29.21 33.84 29.86 33.84L29.86 33.84Q30.84 33.84 32.09 32.83Q33.34 31.82 34.72 29.82Q36.10 27.82 37.51 24.79L37.51 24.79L37.90 23.57Q36.98 22.99 36.24 22.82Q35.50 22.66 34.80 22.66L34.80 22.66Q33.55 22.66 32.50 23.21Q31.44 23.76 30.60 24.67Q29.76 25.58 29.16 26.70Q28.56 27.82 28.25 28.97Q27.94 30.12 27.94 31.13ZM44.42 34.63L44.42 34.63Q43.66 34.63 43.08 34.24Q42.50 33.84 42.34 32.95Q42.17 32.06 42.67 30.58L42.67 30.58L45.43 22.27Q45.50 22.08 45.61 22.00Q45.72 21.91 45.98 21.91L45.98 21.91Q46.20 21.91 46.32 22.02Q46.44 22.13 46.37 22.32L46.37 22.32L43.68 30.43Q43.30 31.61 43.27 32.35Q43.25 33.10 43.58 33.44Q43.92 33.79 44.54 33.79L44.54 33.79Q45.24 33.79 46.21 33.32Q47.18 32.86 48.35 31.70Q49.51 30.55 50.77 28.55Q52.03 26.54 53.30 23.45L53.30 23.45L53.69 22.27Q53.76 22.08 53.88 22.00Q54.00 21.91 54.24 21.91L54.24 21.91Q54.53 21.91 54.59 22.07Q54.65 22.22 54.60 22.42L54.60 22.42L48.34 41.71Q47.81 43.34 47.21 44.47Q46.61 45.60 45.76 46.16Q44.90 46.73 43.56 46.73L43.56 46.73Q42.67 46.73 41.88 46.45Q41.09 46.18 40.38 45.66Q39.67 45.14 39.02 44.45L39.02 44.45Q38.93 44.30 38.93 44.14Q38.93 43.97 39.12 43.80L39.12 43.80Q39.31 43.61 39.43 43.62Q39.55 43.63 39.65 43.75L39.65 43.75Q40.61 44.78 41.57 45.34Q42.53 45.89 43.66 45.89L43.66 45.89Q44.69 45.89 45.35 45.41Q46.01 44.93 46.48 43.98Q46.94 43.03 47.40 41.64L47.40 41.64L51.91 27.72Q50.88 29.69 49.81 31.02Q48.74 32.35 47.76 33.14Q46.78 33.94 45.92 34.28Q45.07 34.63 44.42 34.63ZM58.63 34.63L58.63 34.63Q58.39 34.63 58.32 34.48Q58.25 34.32 58.25 34.15L58.25 34.15L58.32 22.39Q58.32 22.20 58.42 22.06Q58.51 21.91 58.78 21.91L58.78 21.91Q59.02 21.91 59.11 22.00Q59.21 22.08 59.21 22.27L59.21 22.27L59.04 33.22L66.58 22.30Q66.74 22.08 66.85 22.00Q66.96 21.91 67.18 21.91L67.18 21.91Q67.44 21.91 67.52 22.04Q67.61 22.18 67.61 22.37L67.61 22.37L68.04 33.19L74.93 22.27Q75.05 22.08 75.17 21.96Q75.29 21.84 75.53 21.94L75.53 21.94Q75.77 22.03 75.80 22.18Q75.84 22.32 75.72 22.49L75.72 22.49L68.21 34.25Q68.09 34.42 67.97 34.52Q67.85 34.63 67.66 34.63L67.66 34.63Q67.44 34.63 67.37 34.49Q67.30 34.34 67.30 34.18L67.30 34.18L66.82 23.33L59.28 34.25Q59.18 34.42 59.02 34.52Q58.85 34.63 58.63 34.63ZM76.15 34.63L76.15 34.63Q75.91 34.63 75.85 34.55Q75.79 34.46 75.84 34.27L75.84 34.27L79.75 22.27Q79.82 22.08 79.94 22.00Q80.06 21.91 80.28 21.91L80.28 21.91Q80.52 21.91 80.62 22.02Q80.71 22.13 80.64 22.32L80.64 22.32L78.60 28.54Q79.66 26.40 80.59 25.08Q81.53 23.76 82.36 23.05Q83.18 22.34 83.90 22.08Q84.62 21.82 85.27 21.82L85.27 21.82Q85.99 21.82 86.57 22.13Q87.14 22.44 87.36 22.87L87.36 22.87Q87.43 22.97 87.38 23.09Q87.34 23.21 87.22 23.33L87.22 23.33Q87.05 23.45 86.92 23.46Q86.78 23.47 86.64 23.35L86.64 23.35Q86.42 23.11 86.04 22.87Q85.66 22.63 85.03 22.63L85.03 22.63Q84.31 22.63 83.51 23.08Q82.70 23.52 81.77 24.64Q80.83 25.75 79.69 27.78Q78.55 29.81 77.14 32.98L77.14 32.98L76.73 34.27Q76.66 34.46 76.51 34.55Q76.37 34.63 76.15 34.63ZM88.49 34.63L88.49 34.63Q87.67 34.63 87.35 33.97Q87.02 33.31 87.53 31.85L87.53 31.85L90.65 22.27Q90.72 22.08 90.82 22.00Q90.91 21.91 91.18 21.91L91.18 21.91Q91.42 21.91 91.52 22.02Q91.63 22.13 91.58 22.32L91.58 22.32L88.46 31.80Q88.13 32.83 88.15 33.31Q88.18 33.79 88.66 33.79L88.66 33.79Q89.16 33.79 89.68 33.44Q90.19 33.10 90.65 32.60Q91.10 32.11 91.42 31.73L91.42 31.73Q91.56 31.56 91.67 31.55Q91.78 31.54 91.90 31.66L91.90 31.66Q92.09 31.80 92.09 31.91Q92.09 32.02 91.99 32.14L91.99 32.14Q91.68 32.59 91.14 33.18Q90.60 33.77 89.92 34.20Q89.23 34.63 88.49 34.63ZM92.59 17.71L92.59 17.71Q92.21 17.71 91.97 17.54Q91.73 17.38 91.73 17.02L91.73 17.02Q91.73 16.49 92.05 16.08Q92.38 15.67 92.93 15.67L92.93 15.67Q93.31 15.67 93.55 15.84Q93.79 16.01 93.79 16.37L93.79 16.37Q93.79 16.87 93.47 17.29Q93.14 17.71 92.59 17.71ZM96.65 34.63L96.65 34.63Q96.02 34.63 95.64 34.36Q95.26 34.08 95.21 33.41Q95.16 32.74 95.54 31.56L95.54 31.56L98.33 23.04L96.34 23.04Q96.10 23.04 96.05 22.93Q96.00 22.82 96.07 22.63L96.07 22.63Q96.14 22.44 96.25 22.36Q96.36 22.27 96.58 22.27L96.58 22.27L98.57 22.27L100.25 17.11Q100.32 16.92 100.44 16.84Q100.56 16.75 100.82 16.75L100.82 16.75Q101.04 16.75 101.16 16.85Q101.28 16.94 101.21 17.14L101.21 17.14L99.53 22.27L102.50 22.27Q102.74 22.27 102.79 22.37Q102.84 22.46 102.77 22.66L102.77 22.66Q102.70 22.90 102.59 22.97Q102.48 23.04 102.26 23.04L102.26 23.04L99.26 23.04L96.46 31.54Q96.07 32.76 96.12 33.28Q96.17 33.79 96.89 33.79L96.89 33.79Q97.56 33.79 98.38 33.16Q99.19 32.52 100.03 31.42L100.03 31.42Q100.18 31.25 100.28 31.25Q100.39 31.25 100.51 31.37L100.51 31.37Q100.70 31.49 100.70 31.61Q100.70 31.73 100.61 31.85L100.61 31.85Q100.01 32.71 99.32 33.34Q98.64 33.96 97.96 34.30Q97.27 34.63 96.65 34.63ZM107.81 34.73L107.81 34.73Q106.61 34.73 105.77 34.21Q104.93 33.70 104.50 32.70Q104.06 31.70 104.06 30.31L104.06 30.31Q104.06 28.56 104.63 27.02Q105.19 25.49 106.20 24.31Q107.21 23.14 108.55 22.48Q109.90 21.82 111.48 21.82L111.48 21.82Q112.61 21.82 113.28 22.15Q113.95 22.49 114.24 23.04Q114.53 23.59 114.53 24.24L114.53 24.24Q114.53 25.44 113.86 26.30Q113.18 27.17 112.09 27.77Q111 28.37 109.70 28.74Q108.41 29.11 107.12 29.34Q105.84 29.57 104.81 29.71L104.81 29.71L104.86 28.92Q105.98 28.80 107.18 28.57Q108.38 28.34 109.51 28.00Q110.64 27.65 111.55 27.14Q112.46 26.64 113.00 25.97Q113.54 25.30 113.54 24.41L113.54 24.41Q113.54 23.52 112.97 23.08Q112.39 22.63 111.36 22.63L111.36 22.63Q109.92 22.63 108.76 23.27Q107.59 23.90 106.75 24.98Q105.91 26.06 105.46 27.43Q105 28.80 105 30.24L105 30.24Q105 31.44 105.32 32.26Q105.65 33.07 106.32 33.49Q106.99 33.91 108.02 33.91L108.02 33.91Q109.10 33.91 110.04 33.42Q110.98 32.93 111.70 32.28Q112.42 31.63 112.85 31.15L112.85 31.15Q113.02 30.98 113.14 30.97Q113.26 30.96 113.40 31.08L113.40 31.08Q113.52 31.18 113.56 31.31Q113.59 31.44 113.45 31.63L113.45 31.63Q112.94 32.23 112.10 32.95Q111.26 33.67 110.17 34.20Q109.08 34.73 107.81 34.73ZM124.80 34.61L124.80 34.61Q124.32 34.61 124.44 34.25L124.44 34.25L132.22 10.27Q132.26 10.08 132.36 10.00Q132.46 9.91 132.70 9.91L132.70 9.91Q132.91 9.91 133.02 9.96Q133.13 10.01 133.20 10.15L133.20 10.15L139.51 32.90L146.81 10.27Q146.88 10.08 146.99 10.00Q147.10 9.91 147.36 9.91L147.36 9.91Q147.82 9.91 147.72 10.27L147.72 10.27L139.99 34.25Q139.94 34.44 139.84 34.52Q139.73 34.61 139.51 34.61L139.51 34.61Q139.30 34.61 139.18 34.55Q139.06 34.49 139.01 34.34L139.01 34.34L132.67 11.62L125.38 34.25Q125.30 34.44 125.20 34.52Q125.09 34.61 124.80 34.61ZM159.24 34.27L145.10 34.27Q144.98 34.27 144.92 34.18Q144.86 34.08 144.86 33.94Q144.86 33.79 144.96 33.67L144.96 33.67L164.76 11.16L152.78 11.16Q152.54 11.16 152.48 11.06Q152.42 10.97 152.52 10.70L152.52 10.70Q152.57 10.49 152.68 10.40Q152.78 10.32 153.00 10.32L153.00 10.32L165.96 10.32Q166.13 10.32 166.20 10.54Q166.27 10.75 166.10 10.97L166.10 10.97L146.30 33.43L159.50 33.43Q159.77 33.43 159.79 33.54Q159.82 33.65 159.74 33.84L159.74 33.84Q159.72 34.08 159.60 34.18Q159.48 34.27 159.24 34.27L159.24 34.27ZM174.07 34.61L174.07 34.61Q173.83 34.61 173.74 34.48Q173.64 34.34 173.71 34.15L173.71 34.15L181.10 11.35Q180.19 12.05 179.21 12.73Q178.22 13.42 177.30 13.98Q176.38 14.54 175.61 14.93L175.61 14.93Q175.39 15.02 175.20 15.00Q175.01 14.98 174.91 14.78L174.91 14.78Q174.84 14.59 174.90 14.45Q174.96 14.30 175.20 14.21L175.20 14.21Q176.11 13.73 177.14 13.10Q178.18 12.48 179.21 11.75Q180.24 11.02 181.15 10.25L181.15 10.25Q181.34 10.10 181.48 10.03Q181.61 9.96 181.72 9.94Q181.82 9.91 181.94 9.91L181.94 9.91Q182.21 9.91 182.30 10.01Q182.40 10.10 182.35 10.37L182.35 10.37L174.62 34.25Q174.58 34.44 174.46 34.52Q174.34 34.61 174.07 34.61ZM190.18 34.73L190.18 34.73Q188.45 34.73 187.16 33.97Q185.88 33.22 185.17 31.64Q184.46 30.07 184.46 27.70L184.46 27.70Q184.46 25.70 184.87 23.62Q185.28 21.53 186.05 19.54Q186.82 17.54 187.91 15.80Q189 14.06 190.39 12.74Q191.78 11.42 193.44 10.67Q195.10 9.91 196.99 9.91L196.99 9.91Q198.70 9.91 199.96 10.67Q201.22 11.42 201.91 12.97Q202.61 14.52 202.61 16.94L202.61 16.94Q202.61 18.91 202.21 21.01Q201.82 23.11 201.06 25.10Q200.30 27.10 199.21 28.82Q198.12 30.55 196.74 31.88Q195.36 33.22 193.70 33.97Q192.05 34.73 190.18 34.73ZM190.39 33.82L190.39 33.82Q192.02 33.82 193.46 33.10Q194.90 32.38 196.16 31.12Q197.42 29.86 198.43 28.21Q199.44 26.57 200.15 24.68Q200.86 22.80 201.24 20.87Q201.62 18.94 201.62 17.06L201.62 17.06Q201.62 14.76 201.01 13.39Q200.40 12.02 199.31 11.41Q198.22 10.80 196.75 10.80L196.75 10.80Q195.17 10.80 193.70 11.52Q192.24 12.24 190.98 13.49Q189.72 14.74 188.70 16.39Q187.68 18.05 186.97 19.92Q186.26 21.79 185.88 23.76Q185.50 25.73 185.50 27.60L185.50 27.60Q185.50 29.88 186.11 31.25Q186.72 32.62 187.82 33.22Q188.93 33.82 190.39 33.82ZM210.46 34.73L210.46 34.73Q208.73 34.73 207.44 33.97Q206.16 33.22 205.45 31.64Q204.74 30.07 204.74 27.70L204.74 27.70Q204.74 25.70 205.15 23.62Q205.56 21.53 206.33 19.54Q207.10 17.54 208.19 15.80Q209.28 14.06 210.67 12.74Q212.06 11.42 213.72 10.67Q215.38 9.91 217.27 9.91L217.27 9.91Q218.98 9.91 220.24 10.67Q221.50 11.42 222.19 12.97Q222.89 14.52 222.89 16.94L222.89 16.94Q222.89 18.91 222.49 21.01Q222.10 23.11 221.34 25.10Q220.58 27.10 219.49 28.82Q218.40 30.55 217.02 31.88Q215.64 33.22 213.98 33.97Q212.33 34.73 210.46 34.73ZM210.67 33.82L210.67 33.82Q212.30 33.82 213.74 33.10Q215.18 32.38 216.44 31.12Q217.70 29.86 218.71 28.21Q219.72 26.57 220.43 24.68Q221.14 22.80 221.52 20.87Q221.90 18.94 221.90 17.06L221.90 17.06Q221.90 14.76 221.29 13.39Q220.68 12.02 219.59 11.41Q218.50 10.80 217.03 10.80L217.03 10.80Q215.45 10.80 213.98 11.52Q212.52 12.24 211.26 13.49Q210 14.74 208.98 16.39Q207.96 18.05 207.25 19.92Q206.54 21.79 206.16 23.76Q205.78 25.73 205.78 27.60L205.78 27.60Q205.78 29.88 206.39 31.25Q207 32.62 208.10 33.22Q209.21 33.82 210.67 33.82ZM240.14 34.63L240.14 34.63Q239.74 34.63 239.45 34.48Q239.16 34.32 239.02 33.98Q238.87 33.65 238.92 33.12Q238.97 32.59 239.21 31.85L239.21 31.85L241.20 26.02Q241.61 24.82 241.61 24.08Q241.61 23.35 241.25 23.00Q240.89 22.66 240.22 22.66L240.22 22.66Q239.47 22.66 238.46 23.12Q237.46 23.59 236.29 24.74Q235.13 25.90 233.87 27.90Q232.61 29.90 231.34 33L231.34 33L230.93 34.27Q230.88 34.46 230.77 34.55Q230.66 34.63 230.40 34.63L230.40 34.63Q230.16 34.63 230.04 34.54Q229.92 34.44 229.97 34.27L229.97 34.27L233.88 22.27Q233.95 22.08 234.05 22.00Q234.14 21.91 234.41 21.91L234.41 21.91Q234.65 21.91 234.76 22.02Q234.86 22.13 234.82 22.32L234.82 22.32L232.73 28.73Q233.78 26.76 234.84 25.43Q235.90 24.10 236.89 23.30Q237.89 22.51 238.76 22.16Q239.64 21.82 240.34 21.82L240.34 21.82Q241.15 21.82 241.74 22.21Q242.33 22.61 242.50 23.50Q242.66 24.38 242.16 25.87L242.16 25.87L240.12 31.80Q239.90 32.47 239.83 32.92Q239.76 33.36 239.88 33.58Q240 33.79 240.34 33.79L240.34 33.79Q240.84 33.79 241.34 33.44Q241.85 33.10 242.32 32.60Q242.78 32.11 243.10 31.73L243.10 31.73Q243.22 31.56 243.32 31.55Q243.43 31.54 243.58 31.66L243.58 31.66Q243.77 31.80 243.76 31.91Q243.74 32.02 243.65 32.14L243.65 32.14Q243.34 32.59 242.80 33.18Q242.26 33.77 241.57 34.20Q240.89 34.63 240.14 34.63ZM250.15 34.73L250.15 34.73Q248.88 34.73 248.00 34.18Q247.13 33.62 246.68 32.63Q246.24 31.63 246.24 30.34L246.24 30.34Q246.24 29.02 246.70 27.54Q247.15 26.06 248.06 24.76Q248.98 23.45 250.33 22.63Q251.69 21.82 253.51 21.82L253.51 21.82Q254.76 21.82 255.64 22.33Q256.51 22.85 256.97 23.80Q257.42 24.74 257.42 26.02L257.42 26.02Q257.42 27.02 257.15 28.20Q256.87 29.38 256.31 30.53Q255.74 31.68 254.87 32.63Q253.99 33.58 252.82 34.15Q251.64 34.73 250.15 34.73ZM250.25 33.89L250.25 33.89Q251.78 33.89 252.95 33.12Q254.11 32.35 254.88 31.16Q255.65 29.98 256.04 28.63Q256.44 27.29 256.44 26.14L256.44 26.14Q256.44 25.08 256.10 24.30Q255.77 23.52 255.08 23.09Q254.40 22.66 253.39 22.66L253.39 22.66Q251.90 22.66 250.75 23.40Q249.60 24.14 248.81 25.32Q248.02 26.50 247.61 27.83Q247.20 29.16 247.20 30.31L247.20 30.31Q247.20 31.37 247.55 32.18Q247.90 33 248.58 33.44Q249.26 33.89 250.25 33.89ZM259.90 34.63L259.90 34.63Q259.66 34.63 259.60 34.55Q259.54 34.46 259.58 34.27L259.58 34.27L263.50 22.27Q263.57 22.08 263.69 22.00Q263.81 21.91 264.02 21.91L264.02 21.91Q264.26 21.91 264.36 22.02Q264.46 22.13 264.38 22.32L264.38 22.32L262.34 28.54Q263.40 26.40 264.34 25.08Q265.27 23.76 266.10 23.05Q266.93 22.34 267.65 22.08Q268.37 21.82 269.02 21.82L269.02 21.82Q269.74 21.82 270.31 22.13Q270.89 22.44 271.10 22.87L271.10 22.87Q271.18 22.97 271.13 23.09Q271.08 23.21 270.96 23.33L270.96 23.33Q270.79 23.45 270.66 23.46Q270.53 23.47 270.38 23.35L270.38 23.35Q270.17 23.11 269.78 22.87Q269.40 22.63 268.78 22.63L268.78 22.63Q268.06 22.63 267.25 23.08Q266.45 23.52 265.51 24.64Q264.58 25.75 263.44 27.78Q262.30 29.81 260.88 32.98L260.88 32.98L260.47 34.27Q260.40 34.46 260.26 34.55Q260.11 34.63 259.90 34.63ZM288.29 34.63L288.29 34.63Q287.86 34.63 287.56 34.48Q287.26 34.32 287.12 33.98Q286.99 33.65 287.04 33.12Q287.09 32.59 287.35 31.85L287.35 31.85L289.32 26.02Q289.73 24.82 289.75 24.08Q289.78 23.35 289.48 23.00Q289.18 22.66 288.55 22.66L288.55 22.66Q287.88 22.66 286.92 23.14Q285.96 23.62 284.82 24.77Q283.68 25.92 282.43 27.96Q281.18 30 279.91 33.12L279.91 33.12L279.55 33.12Q280.51 30.22 281.69 28.08Q282.86 25.94 284.12 24.55Q285.38 23.16 286.56 22.49Q287.74 21.82 288.67 21.82L288.67 21.82Q289.42 21.82 289.97 22.21Q290.52 22.61 290.66 23.50Q290.81 24.38 290.28 25.87L290.28 25.87L288.24 31.80Q288.02 32.47 287.96 32.92Q287.90 33.36 288.02 33.58Q288.14 33.79 288.46 33.79L288.46 33.79Q288.96 33.79 289.48 33.44Q289.99 33.10 290.45 32.60Q290.90 32.11 291.22 31.73L291.22 31.73Q291.36 31.56 291.47 31.55Q291.58 31.54 291.70 31.66L291.70 31.66Q291.89 31.80 291.89 31.91Q291.89 32.02 291.79 32.14L291.79 32.14Q291.48 32.59 290.94 33.18Q290.40 33.77 289.72 34.20Q289.03 34.63 288.29 34.63ZM270.91 34.63L270.91 34.63Q270.67 34.63 270.55 34.54Q270.43 34.44 270.48 34.27L270.48 34.27L274.39 22.27Q274.46 22.08 274.56 22.00Q274.66 21.91 274.92 21.91L274.92 21.91Q275.16 21.91 275.27 22.02Q275.38 22.13 275.33 22.32L275.33 22.32L273.26 28.66Q274.30 26.71 275.33 25.39Q276.36 24.07 277.33 23.28Q278.30 22.49 279.14 22.15Q279.98 21.82 280.66 21.82L280.66 21.82Q281.45 21.82 282.02 22.21Q282.60 22.61 282.73 23.50Q282.86 24.38 282.36 25.87L282.36 25.87L279.55 34.27Q279.48 34.46 279.37 34.55Q279.26 34.63 279 34.63L279 34.63Q278.78 34.63 278.65 34.54Q278.52 34.44 278.59 34.27L278.59 34.27L281.40 26.02Q281.81 24.82 281.83 24.08Q281.86 23.35 281.53 23.00Q281.21 22.66 280.54 22.66L280.54 22.66Q279.82 22.66 278.86 23.12Q277.90 23.59 276.77 24.73Q275.64 25.87 274.39 27.88Q273.14 29.88 271.87 32.95L271.87 32.95L271.44 34.27Q271.39 34.46 271.28 34.55Q271.18 34.63 270.91 34.63ZM296.78 34.68L296.78 34.68Q295.97 34.68 295.36 34.25Q294.74 33.82 294.41 33.01Q294.07 32.21 294.07 31.13L294.07 31.13Q294.07 30.02 294.42 28.76Q294.77 27.50 295.44 26.27Q296.11 25.03 297.08 24.02Q298.06 23.02 299.29 22.42Q300.53 21.82 302.02 21.82L302.02 21.82Q302.81 21.82 303.66 22.06Q304.51 22.30 305.23 22.78L305.23 22.78L305.38 22.27Q305.45 22.08 305.58 22.00Q305.71 21.91 305.95 21.91L305.95 21.91Q306.22 21.91 306.30 22.06Q306.38 22.20 306.31 22.39L306.31 22.39L303.14 32.11Q302.98 32.66 302.93 33.05Q302.88 33.43 303 33.64Q303.12 33.84 303.43 33.84L303.43 33.84Q303.89 33.84 304.39 33.49Q304.90 33.14 305.36 32.66Q305.83 32.18 306.14 31.78L306.14 31.78Q306.26 31.61 306.37 31.61Q306.48 31.61 306.62 31.73L306.62 31.73Q306.82 31.85 306.80 31.97Q306.79 32.09 306.70 32.21L306.70 32.21Q306.38 32.64 305.86 33.23Q305.33 33.82 304.66 34.25Q303.98 34.68 303.26 34.68L303.26 34.68Q302.83 34.68 302.54 34.52Q302.26 34.37 302.11 34.06Q301.97 33.74 301.99 33.26Q302.02 32.78 302.23 32.14L302.23 32.14Q302.52 31.20 302.83 30.26Q303.14 29.33 303.43 28.39L303.43 28.39Q302.23 30.58 301.09 31.97Q299.95 33.36 298.88 34.02Q297.82 34.68 296.78 34.68ZM295.01 31.13L295.01 31.13Q295.01 31.92 295.22 32.53Q295.44 33.14 295.86 33.49Q296.28 33.84 296.93 33.84L296.93 33.84Q297.91 33.84 299.16 32.83Q300.41 31.82 301.79 29.82Q303.17 27.82 304.58 24.79L304.58 24.79L304.97 23.57Q304.06 22.99 303.31 22.82Q302.57 22.66 301.87 22.66L301.87 22.66Q300.62 22.66 299.57 23.21Q298.51 23.76 297.67 24.67Q296.83 25.58 296.23 26.70Q295.63 27.82 295.32 28.97Q295.01 30.12 295.01 31.13ZM310.30 34.63L310.30 34.63Q309.48 34.63 309.18 33.94Q308.88 33.24 309.34 31.85L309.34 31.85L316.44 10.27Q316.51 10.08 316.62 10.00Q316.73 9.91 316.99 9.91L316.99 9.91Q317.21 9.91 317.33 10.02Q317.45 10.13 317.38 10.32L317.38 10.32L310.27 31.80Q309.96 32.76 309.97 33.28Q309.98 33.79 310.49 33.79L310.49 33.79Q310.99 33.79 311.52 33.44Q312.05 33.10 312.50 32.60Q312.96 32.11 313.27 31.73L313.27 31.73Q313.42 31.56 313.52 31.55Q313.63 31.54 313.75 31.66L313.75 31.66Q313.94 31.80 313.94 31.91Q313.94 32.02 313.85 32.14L313.85 32.14Q313.54 32.59 312.98 33.18Q312.43 33.77 311.75 34.20Q311.06 34.63 310.30 34.63Z"/></svg>