<svg xmlns="http://www.w3.org/2000/svg" xmlns:xlink="http://www.w3.org/1999/xlink" width="195.45600000000005" height="26.112000000000002"><path fill="black" d="M1.56 21.07L0.24 21.07L6.86 4.61L8.74 4.61L15.36 21.07L13.97 21.07L12.05 16.32L3.46 16.32L1.56 21.07ZM6.34 9.19L3.94 15.17L11.57 15.17L9.17 9.19Q9.10 9.00 8.95 8.62Q8.81 8.23 8.62 7.73Q8.42 7.22 8.22 6.70Q8.02 6.17 7.85 5.71L7.85 5.71L7.66 5.71Q7.49 6.17 7.25 6.79Q7.01 7.42 6.77 8.05Q6.53 8.69 6.34 9.19L6.34 9.19ZM18.50 21.07L17.35 21.07L17.35 8.45L18.22 8.45L18.34 10.63L18.48 10.63Q18.62 10.06 18.95 9.49Q19.27 8.93 19.87 8.54Q20.47 8.16 21.38 8.16L21.38 8.16Q21.72 8.16 21.98 8.21Q22.25 8.26 22.37 8.30L22.37 8.30L22.37 9.31L21.70 9.31Q20.81 9.31 20.20 9.67Q19.58 10.03 19.21 10.63Q18.84 11.23 18.67 11.96Q18.50 12.70 18.50 13.44L18.50 13.44L18.50 21.07ZM28.51 21.36L28.51 21.36Q26.86 21.36 25.69 20.64Q24.53 19.92 23.90 18.44Q23.28 16.97 23.28 14.76L23.28 14.76Q23.28 12.60 23.89 11.12Q24.50 9.65 25.70 8.90Q26.90 8.16 28.63 8.16L28.63 8.16Q29.98 8.16 30.88 8.52Q31.78 8.88 32.30 9.54Q32.83 10.20 33.06 11.10Q33.29 12.00 33.29 13.06L33.29 13.06L32.16 13.06Q32.16 11.69 31.81 10.84Q31.46 9.98 30.68 9.59Q29.90 9.19 28.58 9.19L28.58 9.19Q27.48 9.19 26.54 9.67Q25.61 10.15 25.06 11.28Q24.50 12.41 24.50 14.40L24.50 14.40L24.50 15.12Q24.50 16.97 25.01 18.12Q25.51 19.27 26.42 19.80Q27.34 20.33 28.54 20.33L28.54 20.33Q29.93 20.33 30.71 19.86Q31.49 19.39 31.82 18.52Q32.16 17.64 32.16 16.46L32.16 16.46L33.29 16.46Q33.29 17.38 33.06 18.25Q32.83 19.13 32.29 19.82Q31.75 20.52 30.83 20.94Q29.90 21.36 28.51 21.36ZM37.01 21.07L35.86 21.07L35.86 3.72L37.01 3.72L37.01 10.18L37.18 10.18Q37.75 9.38 38.41 8.95Q39.07 8.52 39.83 8.34Q40.58 8.16 41.45 8.16L41.45 8.16Q42.65 8.16 43.54 8.53Q44.42 8.90 44.92 9.77Q45.41 10.63 45.41 12.12L45.41 12.12L45.41 21.07L44.26 21.07L44.26 12.12Q44.26 11.21 44.02 10.63Q43.78 10.06 43.36 9.74Q42.94 9.43 42.37 9.31Q41.81 9.19 41.16 9.19L41.16 9.19Q40.13 9.19 39.17 9.66Q38.21 10.13 37.61 11.09Q37.01 12.05 37.01 13.56L37.01 13.56L37.01 21.07ZM49.92 5.54L48.77 5.54L48.77 3.72L49.92 3.72L49.92 5.54ZM49.92 21.07L48.77 21.07L48.77 8.45L49.92 8.45L49.92 21.07ZM57.86 21.07L56.88 21.07L52.20 8.45L53.42 8.45L56.02 15.48Q56.21 15.98 56.44 16.67Q56.66 17.35 56.90 18.04Q57.14 18.72 57.31 19.22L57.31 19.22L57.43 19.22Q57.62 18.72 57.86 18.04Q58.10 17.35 58.37 16.67Q58.63 15.98 58.80 15.48L58.80 15.48L61.39 8.45L62.54 8.45L57.86 21.07ZM69.26 21.36L69.26 21.36Q67.54 21.36 66.31 20.65Q65.09 19.94 64.44 18.48Q63.79 17.02 63.79 14.76L63.79 14.76Q63.79 12.48 64.44 11.03Q65.09 9.58 66.31 8.87Q67.54 8.16 69.26 8.16L69.26 8.16Q71.02 8.16 72.23 8.87Q73.44 9.58 74.09 11.03Q74.74 12.48 74.74 14.76L74.74 14.76Q74.74 17.02 74.09 18.48Q73.44 19.94 72.23 20.65Q71.02 21.36 69.26 21.36ZM69.26 20.33L69.26 20.33Q70.58 20.33 71.53 19.80Q72.48 19.27 73.00 18.12Q73.51 16.97 73.51 15.12L73.51 15.12L73.51 14.40Q73.51 12.53 73.00 11.39Q72.48 10.25 71.53 9.72Q70.58 9.19 69.26 9.19L69.26 9.19Q67.94 9.19 67.00 9.72Q66.05 10.25 65.53 11.39Q65.02 12.53 65.02 14.40L65.02 14.40L65.02 15.12Q65.02 16.97 65.53 18.12Q66.05 19.27 67.00 19.80Q67.94 20.33 69.26 20.33ZM91.46 21.07L81.70 21.07L81.70 19.99L86.11 19.99L86.11 7.34L81.70 7.34L81.70 6.55Q82.78 6.50 83.70 6.40Q84.62 6.29 85.42 5.87Q86.21 5.45 86.88 4.51L86.88 4.51L87.26 4.51L87.26 19.99L91.46 19.99L91.46 21.07ZM98.78 21.36L98.78 21.36Q97.46 21.36 96.40 20.95Q95.33 20.54 94.60 19.57Q93.86 18.60 93.47 16.96Q93.07 15.31 93.07 12.84L93.07 12.84Q93.07 10.37 93.47 8.72Q93.86 7.08 94.60 6.11Q95.33 5.14 96.40 4.73Q97.46 4.32 98.78 4.32L98.78 4.32Q100.13 4.32 101.18 4.73Q102.24 5.14 102.97 6.11Q103.70 7.08 104.10 8.72Q104.50 10.37 104.50 12.84L104.50 12.84Q104.50 15.31 104.10 16.96Q103.70 18.60 102.97 19.57Q102.24 20.54 101.18 20.95Q100.13 21.36 98.78 21.36ZM98.78 20.33L98.78 20.33Q100.46 20.33 101.44 19.54Q102.41 18.74 102.83 17.17Q103.25 15.60 103.25 13.30L103.25 13.30L103.25 12.38Q103.25 10.06 102.83 8.50Q102.41 6.94 101.44 6.14Q100.46 5.35 98.78 5.35L98.78 5.35Q97.10 5.35 96.13 6.14Q95.16 6.94 94.74 8.50Q94.32 10.06 94.32 12.38L94.32 12.38L94.32 13.30Q94.32 15.60 94.74 17.17Q95.16 18.74 96.13 19.54Q97.10 20.33 98.78 20.33ZM112.46 21.36L112.46 21.36Q111.14 21.36 110.08 20.95Q109.01 20.54 108.28 19.57Q107.54 18.60 107.15 16.96Q106.75 15.31 106.75 12.84L106.75 12.84Q106.75 10.37 107.15 8.72Q107.54 7.08 108.28 6.11Q109.01 5.14 110.08 4.73Q111.14 4.32 112.46 4.32L112.46 4.32Q113.81 4.32 114.86 4.73Q115.92 5.14 116.65 6.11Q117.38 7.08 117.78 8.72Q118.18 10.37 118.18 12.84L118.18 12.84Q118.18 15.31 117.78 16.96Q117.38 18.60 116.65 19.57Q115.92 20.54 114.86 20.95Q113.81 21.36 112.46 21.36ZM112.46 20.33L112.46 20.33Q114.14 20.33 115.12 19.54Q116.09 18.74 116.51 17.17Q116.93 15.60 116.93 13.30L116.93 13.30L116.93 12.38Q116.93 10.06 116.51 8.50Q116.09 6.94 115.12 6.14Q114.14 5.35 112.46 5.35L112.46 5.35Q110.78 5.35 109.81 6.14Q108.84 6.94 108.42 8.50Q108 10.06 108 12.38L108 12.38L108 13.30Q108 15.60 108.42 17.17Q108.84 18.74 109.81 19.54Q110.78 20.33 112.46 20.33ZM127.49 21.07L126.34 21.07L126.34 8.45L127.18 8.45L127.32 10.58L127.49 10.58Q128.06 9.60 128.77 9.07Q129.48 8.54 130.27 8.35Q131.06 8.16 131.93 8.16L131.93 8.16Q133.13 8.16 134.02 8.53Q134.90 8.90 135.40 9.77Q135.89 10.63 135.89 12.12L135.89 12.12L135.89 21.07L134.74 21.07L134.74 12.12Q134.74 11.21 134.50 10.63Q134.26 10.06 133.84 9.74Q133.42 9.43 132.85 9.31Q132.29 9.19 131.64 9.19L131.64 9.19Q130.61 9.19 129.65 9.70Q128.69 10.20 128.09 11.17Q127.49 12.14 127.49 13.56L127.49 13.56L127.49 21.07ZM143.93 21.36L143.93 21.36Q142.20 21.36 140.98 20.65Q139.75 19.94 139.10 18.48Q138.46 17.02 138.46 14.76L138.46 14.76Q138.46 12.48 139.10 11.03Q139.75 9.58 140.98 8.87Q142.20 8.16 143.93 8.16L143.93 8.16Q145.68 8.16 146.89 8.87Q148.10 9.58 148.75 11.03Q149.40 12.48 149.40 14.76L149.40 14.76Q149.40 17.02 148.75 18.48Q148.10 19.94 146.89 20.65Q145.68 21.36 143.93 21.36ZM143.93 20.33L143.93 20.33Q145.25 20.33 146.20 19.80Q147.14 19.27 147.66 18.12Q148.18 16.97 148.18 15.12L148.18 15.12L148.18 14.40Q148.18 12.53 147.66 11.39Q147.14 10.25 146.20 9.72Q145.25 9.19 143.93 9.19L143.93 9.19Q142.61 9.19 141.66 9.72Q140.71 10.25 140.20 11.39Q139.68 12.53 139.68 14.40L139.68 14.40L139.68 15.12Q139.68 16.97 140.20 18.12Q140.71 19.27 141.66 19.80Q142.61 20.33 143.93 20.33ZM153.26 21.07L152.11 21.07L152.11 8.45L152.98 8.45L153.10 10.63L153.24 10.63Q153.38 10.06 153.71 9.49Q154.03 8.93 154.63 8.54Q155.23 8.16 156.14 8.16L156.14 8.16Q156.48 8.16 156.74 8.21Q157.01 8.26 157.13 8.30L157.13 8.30L157.13 9.31L156.46 9.31Q155.57 9.31 154.96 9.67Q154.34 10.03 153.97 10.63Q153.60 11.23 153.43 11.96Q153.26 12.70 153.26 13.44L153.26 13.44L153.26 21.07ZM160.37 21.07L159.22 21.07L159.22 8.45L160.06 8.45L160.20 10.58L160.37 10.58Q160.94 9.60 161.62 9.07Q162.29 8.54 163.06 8.35Q163.82 8.16 164.69 8.16L164.69 8.16Q166.03 8.16 166.97 8.70Q167.90 9.24 168.24 10.58L168.24 10.58L168.38 10.58Q168.91 9.62 169.57 9.11Q170.23 8.59 171.00 8.38Q171.77 8.16 172.61 8.16L172.61 8.16Q173.76 8.16 174.62 8.53Q175.49 8.90 175.97 9.77Q176.45 10.63 176.45 12.12L176.45 12.12L176.45 21.07L175.30 21.07L175.30 12.12Q175.30 11.21 175.07 10.63Q174.84 10.06 174.42 9.74Q174.00 9.43 173.47 9.31Q172.94 9.19 172.32 9.19L172.32 9.19Q171.31 9.19 170.42 9.70Q169.54 10.20 168.97 11.17Q168.41 12.14 168.41 13.56L168.41 13.56L168.41 21.07L167.26 21.07L167.26 12.12Q167.26 11.21 167.03 10.63Q166.80 10.06 166.40 9.74Q166.01 9.43 165.49 9.31Q164.98 9.19 164.40 9.19L164.40 9.19Q163.37 9.19 162.44 9.70Q161.52 10.20 160.94 11.17Q160.37 12.14 160.37 13.56L160.37 13.56L160.37 21.07ZM182.90 21.36L182.90 21.36Q182.04 21.36 181.31 21.16Q180.58 20.95 180.04 20.53Q179.50 20.11 179.20 19.46Q178.90 18.82 178.90 17.93L178.90 17.93Q178.90 16.61 179.57 15.79Q180.24 14.98 181.44 14.53Q182.64 14.09 184.27 13.93Q185.90 13.78 187.80 13.78L187.80 13.78L187.80 11.88Q187.80 11.02 187.48 10.42Q187.15 9.82 186.35 9.50Q185.54 9.19 184.13 9.19L184.13 9.19Q182.78 9.19 182.00 9.54Q181.22 9.89 180.90 10.48Q180.58 11.06 180.58 11.78L180.58 11.78L180.58 12.19L179.47 12.19Q179.45 12.07 179.45 11.95Q179.45 11.83 179.45 11.66L179.45 11.66Q179.45 10.42 180.07 9.65Q180.70 8.88 181.84 8.52Q182.98 8.16 184.46 8.16L184.46 8.16Q185.88 8.16 186.88 8.58Q187.87 9.00 188.41 9.78Q188.95 10.56 188.95 11.66L188.95 11.66L188.95 19.54Q188.95 19.99 189.10 20.16Q189.24 20.33 189.55 20.33L189.55 20.33L190.68 20.33L190.68 21Q190.25 21.19 189.89 21.26Q189.53 21.34 189.22 21.34L189.22 21.34Q188.57 21.34 188.27 21.04Q187.97 20.74 187.88 20.22Q187.80 19.70 187.80 19.10L187.80 19.10L187.63 19.10Q187.15 19.82 186.38 20.33Q185.62 20.83 184.73 21.10Q183.84 21.36 182.90 21.36ZM183.00 20.33L183.00 20.33Q183.82 20.33 184.66 20.05Q185.50 19.78 186.20 19.27Q186.91 18.77 187.36 18.06Q187.80 17.35 187.80 16.49L187.80 16.49L187.80 14.86Q185.14 14.86 183.46 15.13Q181.78 15.41 180.97 16.08Q180.17 16.75 180.17 17.95L180.17 17.95Q180.17 18.82 180.55 19.34Q180.94 19.87 181.58 20.10Q182.23 20.33 183.00 20.33ZM193.70 21.07L192.55 21.07L192.55 3.72L193.70 3.72L193.70 21.07Z"/></svg>