<svg xmlns="http://www.w3.org/2000/svg" xmlns:xlink="http://www.w3.org/1999/xlink" width="181.89600000000002" height="31.104"><path fill="black" d="M7.63 17.71L7.63 17.71Q7.13 17.57 6.60 17.57Q6.07 17.57 5.64 17.57Q5.21 17.57 4.61 17.71L4.61 17.71Q4.10 19.75 4.10 20.88Q4.10 22.01 4.27 22.85L4.27 22.85Q1.70 22.85-0.22 23.18L-0.22 23.18L-0.50 22.99L4.58 8.06Q3.86 7.82 3.02 7.39L3.02 7.39L3.12 6.94Q4.97 7.20 7.73 7.20Q10.49 7.20 12.02 6.94L12.02 6.94L12.17 7.06Q11.83 8.47 11.59 11.80Q11.35 15.12 11.35 18.28Q11.35 21.43 11.62 22.82L11.62 22.82Q8.40 22.92 7.13 23.18L7.13 23.18L6.98 23.06Q7.42 21.17 7.63 17.71ZM6.12 10.75L4.94 15.89Q5.38 16.06 6.31 16.06Q7.25 16.06 7.70 15.86L7.70 15.86Q7.82 13.27 7.82 11.54Q7.82 9.82 7.73 8.64L7.73 8.64Q7.61 8.57 7.30 8.57Q6.98 8.57 6.84 8.64L6.84 8.64Q6.41 9.29 6.12 10.75L6.12 10.75ZM18.31 19.99L18.31 19.99Q18.31 20.38 18.31 20.74L18.31 20.74Q19.15 19.68 20.02 16.87L20.02 16.87L20.40 16.97Q19.54 21.82 17.54 23.18L17.54 23.18Q16.01 23.18 15.36 22.48Q14.71 21.77 14.71 20.44Q14.71 19.10 14.96 15.98Q15.22 12.86 15.22 11.44Q15.22 10.01 14.93 7.92L14.93 7.92Q14.14 7.78 13.49 7.51L13.49 7.51L13.49 7.08Q14.95 7.08 16.74 6.79Q18.53 6.50 19.82 5.95L19.82 5.95L20.02 6.26Q19.01 7.85 18.66 12.22Q18.31 16.58 18.31 19.99ZM37.46 13.54L37.46 13.54Q37.46 14.81 37.02 17.18Q36.58 19.56 36.58 20.86L36.58 20.86Q37.73 19.56 38.59 16.87L38.59 16.87L38.98 16.97Q38.11 21.62 35.76 23.18L35.76 23.18Q33.12 23.18 33.12 21L33.12 21Q33.12 20.11 33.49 17.84Q33.86 15.58 33.86 14.50Q33.86 13.42 33.62 13.18L33.62 13.18Q32.76 14.16 32.05 16.64Q31.34 19.13 31.30 20.74L31.30 20.74L31.30 20.88Q31.30 21.82 31.49 22.82L31.49 22.82Q29.62 22.82 27.72 23.18L27.72 23.18L27.58 23.06Q27.77 22.39 28.09 19.68Q28.42 16.97 28.42 15.19Q28.42 13.42 28.18 13.18L28.18 13.18Q27.29 14.16 26.57 16.75Q25.85 19.34 25.85 20.58Q25.85 21.82 26.04 22.82L26.04 22.82Q24 22.82 22.10 23.18L22.10 23.18L21.96 23.06Q22.44 21.41 22.44 17.45Q22.44 13.49 22.22 11.90L22.22 11.90Q21.19 11.69 20.76 11.50L20.76 11.50L20.76 11.06Q24.34 11.06 26.28 10.70L26.28 10.70L26.45 11.02Q25.87 12.50 25.87 14.81L25.87 14.81Q25.73 15.62 25.44 16.73L25.44 16.73L25.82 16.75Q26.86 12.05 29.30 10.70L29.30 10.70Q30.60 10.70 31.15 11.33Q31.70 11.95 31.70 13.30L31.70 13.30Q31.30 14.38 30.89 16.73L30.89 16.73L31.27 16.75Q32.30 12.05 34.75 10.70L34.75 10.70Q37.46 10.70 37.46 13.54ZM43.32 16.66L43.32 16.66Q43.32 16.97 43.32 17.78Q43.32 18.60 43.52 19.55Q43.73 20.50 44.50 20.71L44.50 20.71Q45.22 20.23 45.91 19.39Q46.61 18.55 46.94 17.71L46.94 17.71L47.50 17.90Q47.06 19.34 46.02 20.84Q44.98 22.34 43.80 23.18L43.80 23.18Q41.78 23.18 40.68 21.92Q39.58 20.66 39.58 18.70Q39.58 16.73 40.55 14.95Q41.52 13.18 43.16 12.00Q44.81 10.82 46.63 10.70L46.63 10.70L46.97 10.87Q47.02 11.23 47.11 12.26L47.11 12.26Q47.30 14.23 47.62 15.31L47.62 15.31Q48.12 15.41 48.55 15.60L48.55 15.60L48.55 15.98Q45.67 15.98 43.32 16.66ZM44.59 15.55L44.59 15.55L44.59 12.17Q44.02 12.26 43.69 13.58Q43.37 14.90 43.34 15.94L43.34 15.94Q43.94 15.70 44.59 15.55ZM59.59 13.54L59.59 13.54Q59.59 14.81 59.15 17.18Q58.70 19.56 58.70 20.86L58.70 20.86Q59.86 19.56 60.72 16.87L60.72 16.87L61.10 16.97Q60.24 21.62 57.89 23.18L57.89 23.18Q55.25 23.18 55.25 21L55.25 21Q55.25 20.11 55.62 17.84Q55.99 15.58 55.99 14.50Q55.99 13.42 55.75 13.18L55.75 13.18Q54.86 14.16 54.14 16.75Q53.42 19.34 53.42 20.58Q53.42 21.82 53.62 22.82L53.62 22.82Q51.58 22.82 49.68 23.18L49.68 23.18L49.54 23.06Q50.02 21.41 50.02 17.45Q50.02 13.49 49.80 11.90L49.80 11.90Q48.77 11.69 48.34 11.50L48.34 11.50L48.34 11.06Q51.91 11.06 53.86 10.70L53.86 10.70L54.02 11.02Q53.45 12.50 53.45 14.81L53.45 14.81Q53.30 15.62 53.02 16.73L53.02 16.73L53.40 16.75Q54.43 12.05 56.88 10.70L56.88 10.70Q59.59 10.70 59.59 13.54ZM71.52 12.79L71.52 12.79Q71.52 15.96 69.95 18.84Q68.38 21.72 65.71 23.18L65.71 23.18Q63.86 23.02 62.90 21.72Q61.94 20.42 61.94 18.43L61.94 18.43Q61.94 14.50 65.95 11.76L65.95 11.76Q63.79 10.39 62.04 9.96L62.04 9.96L61.18 9.74Q61.63 8.62 61.63 7.54Q61.63 6.46 61.54 5.86L61.54 5.86L61.97 5.78Q62.26 6.43 63.30 7.02Q64.34 7.61 66.17 8.50L66.17 8.50L71.28 11.06Q71.52 11.74 71.52 12.79ZM65.66 17.66L65.66 17.66Q65.66 18.55 65.70 19.09Q65.74 19.63 65.98 20.35Q66.22 21.07 66.70 21.31L66.70 21.31Q67.30 20.21 67.66 18.02Q68.02 15.84 68.02 14.82Q68.02 13.80 67.94 13.32L67.94 13.32Q67.63 12.89 66.72 12.29L66.72 12.29L66.29 12.84Q65.66 14.86 65.66 17.66ZM78.94 13.37Q78.12 14.52 77.46 16.93Q76.80 19.34 76.80 20.58Q76.80 21.82 76.99 22.82L76.99 22.82Q74.95 22.82 73.06 23.18L73.06 23.18L72.91 23.06Q73.39 21.41 73.39 17.45Q73.39 13.49 73.18 11.90L73.18 11.90Q72.14 11.69 71.71 11.50L71.71 11.50L71.71 11.06Q75.29 11.06 77.23 10.70L77.23 10.70L77.40 11.02Q76.82 12.50 76.82 14.81L76.82 14.81Q76.68 15.62 76.39 16.73L76.39 16.73L76.78 16.75Q77.18 14.88 77.98 13.19Q78.77 11.50 79.99 10.70L79.99 10.70Q81.14 11.16 82.13 11.16L82.13 11.16L82.27 11.52Q81.74 12.22 81.38 13.50Q81.02 14.78 80.95 15.86L80.95 15.86L80.52 15.86Q80.40 15.41 80.26 14.66L80.26 14.66Q79.85 13.97 78.94 13.37L78.94 13.37ZM81.36 19.01L81.36 19.01Q81.36 16.34 83.02 14.11Q84.67 11.88 87.29 10.70L87.29 10.70Q88.68 10.70 90.43 11.54L90.43 11.54Q91.03 10.46 91.44 9.94L91.44 9.94L91.82 10.06Q91.01 12.19 91.01 16.82L91.01 16.82Q91.01 19.44 91.20 20.74L91.20 20.74Q92.04 19.68 92.90 16.87L92.90 16.87L93.29 16.97Q92.42 21.82 90.43 23.18L90.43 23.18Q88.80 23.18 88.25 22.13Q87.70 21.07 87.70 19.01L87.70 19.01L88.08 17.06L87.67 17.02Q87.24 19.15 86.60 20.74Q85.97 22.32 84.77 23.18L84.77 23.18Q83.18 23.18 82.27 21.97Q81.36 20.76 81.36 19.01ZM85.78 12.70L85.78 12.70Q85.08 15.53 85.08 17.95Q85.08 20.38 85.49 20.71L85.49 20.71Q86.33 19.58 86.93 17.18Q87.53 14.78 87.53 13.18L87.53 13.18Q87.07 12.53 86.54 12.53Q86.02 12.53 85.78 12.70ZM103.78 13.70L103.78 13.70Q102.62 13.56 101.27 13.56Q99.91 13.56 99.36 13.87L99.36 13.87Q98.93 14.74 98.40 15.43L98.40 15.43L98.02 15.24Q98.57 13.85 98.57 12.58Q98.57 11.30 98.26 10.80L98.26 10.80L98.52 10.51Q99.84 11.11 103.34 11.11L103.34 11.11Q105.10 11.11 106.06 10.90L106.06 10.90L106.32 11.14Q102.60 18 102.53 24.41L102.53 24.41Q103.39 24.72 103.94 25.08L103.94 25.08L103.82 25.56Q102.46 25.22 100.74 25.22Q99.02 25.22 97.63 25.51L97.63 25.51L97.49 25.03Q98.18 24.79 98.83 24.22L98.83 24.22Q99.22 21.55 100.38 19.14Q101.54 16.73 103.78 13.70ZM110.26 17.52L110.26 17.52Q110.26 19.01 110.52 20.30Q110.78 21.60 111.31 21.91L111.31 21.91Q112.68 21.43 112.68 16.58L112.68 16.58Q112.68 12.60 111.60 11.98L111.60 11.98Q110.26 12.46 110.26 17.52ZM106.15 17.28Q106.75 14.33 108.53 12.52Q110.30 10.70 111.86 10.70Q113.42 10.70 114.96 12.54Q116.50 14.38 116.78 16.63L116.78 16.63Q116.18 19.58 114.40 21.38Q112.61 23.18 111.05 23.18Q109.49 23.18 107.96 21.36Q106.44 19.54 106.15 17.28L106.15 17.28ZM121.22 17.52L121.22 17.52Q121.22 19.01 121.49 20.30Q121.75 21.60 122.28 21.91L122.28 21.91Q123.65 21.43 123.65 16.58L123.65 16.58Q123.65 12.60 122.57 11.98L122.57 11.98Q121.22 12.46 121.22 17.52ZM117.12 17.28Q117.72 14.33 119.50 12.52Q121.27 10.70 122.83 10.70Q124.39 10.70 125.93 12.54Q127.46 14.38 127.75 16.63L127.75 16.63Q127.15 19.58 125.36 21.38Q123.58 23.18 122.02 23.18Q120.46 23.18 118.93 21.36Q117.41 19.54 117.12 17.28L117.12 17.28ZM132.05 11.50L132.05 11.06Q135.74 11.06 137.69 10.70L137.69 10.70L137.86 11.02Q137.40 12.02 137.11 14.50Q136.82 16.97 136.82 18.55Q136.82 20.14 136.85 20.74L136.85 20.74Q137.69 19.68 138.55 16.87L138.55 16.87L138.94 16.97Q138.07 21.82 136.08 23.18L136.08 23.18Q134.54 23.18 133.90 22.48Q133.25 21.77 133.25 20.18L133.25 20.18Q133.25 19.56 133.42 17.10Q133.58 14.64 133.58 13.57Q133.58 12.50 133.51 11.90L133.51 11.90Q132.48 11.69 132.05 11.50L132.05 11.50ZM137.76 7.34L137.76 7.34Q137.40 7.90 136.69 8.66Q135.98 9.43 135.48 9.79L135.48 9.79Q134.52 9.07 133.68 7.34L133.68 7.34Q133.94 6.86 134.64 6.26Q135.34 5.66 135.91 5.38L135.91 5.38Q136.85 5.98 137.76 7.34ZM144.58 12.46L144.58 12.46Q144.46 13.08 144.23 14.99Q144 16.90 144 18.48Q144 20.06 144.02 20.74L144.02 20.74Q144.62 20.16 145.18 19.13Q145.73 18.10 146.04 17.11L146.04 17.11L146.42 17.21Q146.14 19.06 145.32 20.76Q144.50 22.46 143.26 23.18L143.26 23.18Q141.72 23.18 141.07 22.48Q140.42 21.77 140.42 20.18L140.42 20.18Q140.42 19.32 140.59 16.97Q140.76 14.62 140.76 13.82Q140.76 13.03 140.71 12.26L140.71 12.26L139.73 12.19L139.66 11.74Q140.78 11.26 141.86 10.42Q142.94 9.58 143.47 8.69L143.47 8.69Q144.14 8.57 144.72 8.35L144.72 8.35L144.94 8.50Q144.72 9.72 144.72 10.99L144.72 10.99Q145.49 10.90 146.40 10.61L146.40 10.61L146.54 10.78Q146.21 11.74 146.11 12.67L146.11 12.67Q145.01 12.48 144.58 12.46ZM147.36 19.01L147.36 19.01Q147.36 16.34 149.02 14.11Q150.67 11.88 153.29 10.70L153.29 10.70Q154.68 10.70 156.43 11.54L156.43 11.54Q157.03 10.46 157.44 9.94L157.44 9.94L157.82 10.06Q157.01 12.19 157.01 16.82L157.01 16.82Q157.01 19.44 157.20 20.74L157.20 20.74Q158.04 19.68 158.90 16.87L158.90 16.87L159.29 16.97Q158.42 21.82 156.43 23.18L156.43 23.18Q154.80 23.18 154.25 22.13Q153.70 21.07 153.70 19.01L153.70 19.01L154.08 17.06L153.67 17.02Q153.24 19.15 152.60 20.74Q151.97 22.32 150.77 23.18L150.77 23.18Q149.18 23.18 148.27 21.97Q147.36 20.76 147.36 19.01ZM151.78 12.70L151.78 12.70Q151.08 15.53 151.08 17.95Q151.08 20.38 151.49 20.71L151.49 20.71Q152.33 19.58 152.93 17.18Q153.53 14.78 153.53 13.18L153.53 13.18Q153.07 12.53 152.54 12.53Q152.02 12.53 151.78 12.70ZM164.16 19.99L164.16 19.99Q164.16 20.38 164.16 20.74L164.16 20.74Q165 19.68 165.86 16.87L165.86 16.87L166.25 16.97Q165.38 21.82 163.39 23.18L163.39 23.18Q161.86 23.18 161.21 22.48Q160.56 21.77 160.56 20.44Q160.56 19.10 160.81 15.98Q161.06 12.86 161.06 11.44Q161.06 10.01 160.78 7.92L160.78 7.92Q159.98 7.78 159.34 7.51L159.34 7.51L159.34 7.08Q160.80 7.08 162.59 6.79Q164.38 6.50 165.67 5.95L165.67 5.95L165.86 6.26Q164.86 7.85 164.51 12.22Q164.16 16.58 164.16 19.99ZM166.54 11.50L166.54 11.06Q170.23 11.06 172.18 10.70L172.18 10.70L172.34 11.02Q171.89 12.02 171.60 14.50Q171.31 16.97 171.31 18.55Q171.31 20.14 171.34 20.74L171.34 20.74Q172.18 19.68 173.04 16.87L173.04 16.87L173.42 16.97Q172.56 21.82 170.57 23.18L170.57 23.18Q169.03 23.18 168.38 22.48Q167.74 21.77 167.74 20.18L167.74 20.18Q167.74 19.56 167.90 17.10Q168.07 14.64 168.07 13.57Q168.07 12.50 168.00 11.90L168.00 11.90Q166.97 11.69 166.54 11.50L166.54 11.50ZM172.25 7.34L172.25 7.34Q171.89 7.90 171.18 8.66Q170.47 9.43 169.97 9.79L169.97 9.79Q169.01 9.07 168.17 7.34L168.17 7.34Q168.43 6.86 169.13 6.26Q169.82 5.66 170.40 5.38L170.40 5.38Q171.34 5.98 172.25 7.34ZM174.02 18.82L174.02 18.82Q174.02 16.37 175.55 14.24Q177.07 12.12 179.45 10.70L179.45 10.70Q180.58 11.06 181.15 11.06Q181.73 11.06 181.99 10.97L181.99 10.97L182.14 11.33Q181.06 12.53 180.89 15.46L180.89 15.46L180.46 15.46Q180.34 15.00 180.19 14.26L180.19 14.26L179.86 13.75Q179.64 13.39 179.18 13.03Q178.73 12.67 178.39 12.65L178.39 12.65Q177.74 15.00 177.74 17.66Q177.74 20.33 178.85 20.71L178.85 20.71Q179.93 19.68 180.70 17.66L180.70 17.66L181.27 17.78Q180.38 21.53 178.03 23.18L178.03 23.18Q176.18 23.14 175.10 21.92Q174.02 20.71 174.02 18.82Z"/></svg>