<svg xmlns="http://www.w3.org/2000/svg" xmlns:xlink="http://www.w3.org/1999/xlink" width="316.8515625" height="31.65234375"><path fill="black" d="M4.28 18.19L7.69 18.19L11.04 25.15L13.32 25.15L13.34 25.01L9.71 17.72Q10.42 17.41 11.00 16.98Q11.59 16.55 12.01 15.98L12.01 15.98Q12.43 15.42 12.67 14.73Q12.91 14.04 12.91 13.21L12.91 13.21Q12.91 11.92 12.46 10.96Q12.01 10.01 11.23 9.38L11.23 9.38Q10.43 8.74 9.38 8.43Q8.32 8.11 7.13 8.09L7.13 8.09L2.12 8.09L2.12 25.15L4.28 25.15L4.28 18.19ZM7.18 16.41L4.28 16.41L4.28 9.87L7.13 9.87Q7.91 9.88 8.57 10.09Q9.23 10.30 9.71 10.71L9.71 10.71Q10.20 11.13 10.46 11.75Q10.73 12.36 10.73 13.18L10.73 13.18Q10.73 13.96 10.45 14.55Q10.17 15.14 9.69 15.55L9.69 15.55Q9.20 15.96 8.55 16.18Q7.91 16.39 7.18 16.41L7.18 16.41ZM15.83 18.69L15.83 18.69L15.83 18.95Q15.83 20.32 16.23 21.49Q16.63 22.66 17.38 23.53L17.38 23.53Q18.12 24.40 19.19 24.89Q20.26 25.38 21.61 25.38L21.61 25.38Q22.95 25.38 24.01 24.89Q25.08 24.40 25.83 23.53L25.83 23.53Q26.57 22.66 26.96 21.49Q27.36 20.32 27.36 18.95L27.36 18.95L27.36 18.69Q27.36 17.32 26.96 16.14Q26.57 14.96 25.83 14.10L25.83 14.10Q25.08 13.23 24.01 12.73Q22.93 12.23 21.59 12.23L21.59 12.23Q20.25 12.23 19.18 12.73Q18.12 13.23 17.38 14.10L17.38 14.10Q16.63 14.96 16.23 16.14Q15.83 17.32 15.83 18.69ZM18 18.95L18 18.95L18 18.69Q18 17.77 18.22 16.92Q18.45 16.07 18.90 15.42L18.90 15.42Q19.35 14.78 20.02 14.40Q20.68 14.02 21.59 14.02L21.59 14.02Q22.49 14.02 23.16 14.40Q23.84 14.78 24.29 15.42L24.29 15.42Q24.74 16.07 24.97 16.92Q25.20 17.77 25.20 18.69L25.20 18.69L25.20 18.95Q25.20 19.89 24.97 20.74Q24.75 21.59 24.30 22.23L24.30 22.23Q23.85 22.88 23.17 23.25Q22.50 23.63 21.61 23.63L21.61 23.63Q20.71 23.63 20.03 23.25Q19.35 22.88 18.90 22.23L18.90 22.23Q18.45 21.59 18.22 20.74Q18 19.89 18 18.95ZM41.59 18.95L41.59 18.95L41.59 18.70Q41.59 17.71 41.43 16.81Q41.26 15.91 40.95 15.18L40.95 15.18Q40.64 14.52 40.24 13.99Q39.84 13.45 39.34 13.08L39.34 13.08Q38.78 12.68 38.09 12.46Q37.39 12.23 36.57 12.23L36.57 12.23Q35.92 12.23 35.36 12.36Q34.79 12.49 34.32 12.74L34.32 12.74Q33.95 12.94 33.62 13.21Q33.29 13.49 33.02 13.83L33.02 13.83L33.02 7.15L30.86 7.15L30.86 25.15L32.85 25.15L32.95 23.71Q33.16 23.98 33.40 24.20Q33.63 24.42 33.89 24.61L33.89 24.61Q34.43 24.98 35.10 25.18Q35.78 25.38 36.60 25.38L36.60 25.38Q37.31 25.38 37.93 25.21Q38.54 25.03 39.06 24.71L39.06 24.71Q39.77 24.26 40.28 23.56Q40.79 22.86 41.11 21.98L41.11 21.98Q41.34 21.32 41.47 20.55Q41.59 19.78 41.59 18.95ZM39.42 18.70L39.42 18.70L39.42 18.95Q39.42 19.51 39.35 20.05Q39.28 20.59 39.13 21.06L39.13 21.06Q38.94 21.68 38.63 22.18Q38.31 22.69 37.84 23.02L37.84 23.02Q37.49 23.27 37.04 23.41Q36.60 23.54 36.06 23.54L36.06 23.54Q35.50 23.54 35.03 23.40Q34.56 23.25 34.18 22.98L34.18 22.98Q33.81 22.71 33.52 22.35Q33.23 22.00 33.02 21.57L33.02 21.57L33.02 16.03Q33.22 15.61 33.51 15.25Q33.80 14.89 34.17 14.63L34.17 14.63Q34.54 14.37 35.00 14.22Q35.47 14.07 36.04 14.07L36.04 14.07Q36.55 14.07 36.97 14.19Q37.39 14.31 37.73 14.52L37.73 14.52Q38.23 14.81 38.57 15.33Q38.91 15.84 39.12 16.46L39.12 16.46Q39.27 16.97 39.35 17.54Q39.42 18.11 39.42 18.70ZM44.64 18.69L44.64 18.69L44.64 18.95Q44.64 20.32 45.04 21.49Q45.43 22.66 46.18 23.53L46.18 23.53Q46.92 24.40 47.99 24.89Q49.07 25.38 50.41 25.38L50.41 25.38Q51.75 25.38 52.82 24.89Q53.88 24.40 54.63 23.53L54.63 23.53Q55.37 22.66 55.77 21.49Q56.17 20.32 56.17 18.95L56.17 18.95L56.17 18.69Q56.17 17.32 55.77 16.14Q55.37 14.96 54.63 14.10L54.63 14.10Q53.88 13.23 52.81 12.73Q51.74 12.23 50.39 12.23L50.39 12.23Q49.05 12.23 47.99 12.73Q46.92 13.23 46.18 14.10L46.18 14.10Q45.43 14.96 45.04 16.14Q44.64 17.32 44.64 18.69ZM46.80 18.95L46.80 18.95L46.80 18.69Q46.80 17.77 47.03 16.92Q47.25 16.07 47.71 15.42L47.71 15.42Q48.15 14.78 48.82 14.40Q49.49 14.02 50.39 14.02L50.39 14.02Q51.29 14.02 51.97 14.40Q52.64 14.78 53.10 15.42L53.10 15.42Q53.54 16.07 53.77 16.92Q54 17.77 54 18.69L54 18.69L54 18.95Q54 19.89 53.78 20.74Q53.55 21.59 53.11 22.23L53.11 22.23Q52.65 22.88 51.98 23.25Q51.30 23.63 50.41 23.63L50.41 23.63Q49.51 23.63 48.83 23.25Q48.15 22.88 47.71 22.23L47.71 22.23Q47.25 21.59 47.03 20.74Q46.80 19.89 46.80 18.95ZM64.78 12.47L64.78 9.40L62.60 9.40L62.60 12.47L59.27 12.47L59.27 14.14L62.60 14.14L62.60 21.04Q62.60 22.21 62.91 23.03Q63.22 23.86 63.76 24.38L63.76 24.38Q64.30 24.90 65.03 25.14Q65.77 25.38 66.61 25.38L66.61 25.38Q67.11 25.38 67.62 25.34Q68.13 25.29 68.59 25.20L68.59 25.20Q69.05 25.11 69.43 24.99Q69.82 24.87 70.09 24.70L70.09 24.70L69.79 23.17Q69.59 23.21 69.28 23.28Q68.96 23.34 68.61 23.40L68.61 23.40Q68.25 23.46 67.88 23.50Q67.50 23.54 67.15 23.54L67.15 23.54Q66.67 23.54 66.24 23.43Q65.81 23.31 65.48 23.02L65.48 23.02Q65.16 22.73 64.97 22.25Q64.78 21.77 64.78 21.04L64.78 21.04L64.78 14.14L69.61 14.14L69.61 12.47L64.78 12.47ZM73.44 18.69L73.44 18.69L73.44 18.95Q73.44 20.32 73.84 21.49Q74.24 22.66 74.99 23.53L74.99 23.53Q75.73 24.40 76.80 24.89Q77.87 25.38 79.22 25.38L79.22 25.38Q80.55 25.38 81.62 24.89Q82.69 24.40 83.44 23.53L83.44 23.53Q84.18 22.66 84.57 21.49Q84.97 20.32 84.97 18.95L84.97 18.95L84.97 18.69Q84.97 17.32 84.57 16.14Q84.18 14.96 83.44 14.10L83.44 14.10Q82.69 13.23 81.62 12.73Q80.54 12.23 79.20 12.23L79.20 12.23Q77.86 12.23 76.79 12.73Q75.73 13.23 74.99 14.10L74.99 14.10Q74.24 14.96 73.84 16.14Q73.44 17.32 73.44 18.69ZM75.61 18.95L75.61 18.95L75.61 18.69Q75.61 17.77 75.83 16.92Q76.05 16.07 76.51 15.42L76.51 15.42Q76.96 14.78 77.63 14.40Q78.29 14.02 79.20 14.02L79.20 14.02Q80.10 14.02 80.77 14.40Q81.45 14.78 81.90 15.42L81.90 15.42Q82.35 16.07 82.58 16.92Q82.80 17.77 82.80 18.69L82.80 18.69L82.80 18.95Q82.80 19.89 82.58 20.74Q82.36 21.59 81.91 22.23L81.91 22.23Q81.46 22.88 80.78 23.25Q80.11 23.63 79.22 23.63L79.22 23.63Q78.32 23.63 77.64 23.25Q76.96 22.88 76.51 22.23L76.51 22.23Q76.05 21.59 75.83 20.74Q75.61 19.89 75.61 18.95ZM108.01 16.62L105.23 8.09L102.55 8.09L102.55 25.15L104.66 25.15L104.66 18.34L104.48 11.46L107.38 20.40L108.62 20.40L111.77 11.21L111.60 18.34L111.60 25.15L113.71 25.15L113.71 8.09L111.01 8.09L108.01 16.62ZM116.65 18.69L116.65 18.69L116.65 18.95Q116.65 20.32 117.05 21.49Q117.45 22.66 118.20 23.53L118.20 23.53Q118.93 24.40 120.01 24.89Q121.08 25.38 122.43 25.38L122.43 25.38Q123.76 25.38 124.83 24.89Q125.89 24.40 126.64 23.53L126.64 23.53Q127.38 22.66 127.78 21.49Q128.18 20.32 128.18 18.95L128.18 18.95L128.18 18.69Q128.18 17.32 127.78 16.14Q127.38 14.96 126.64 14.10L126.64 14.10Q125.89 13.23 124.82 12.73Q123.75 12.23 122.40 12.23L122.40 12.23Q121.07 12.23 120 12.73Q118.93 13.23 118.20 14.10L118.20 14.10Q117.45 14.96 117.05 16.14Q116.65 17.32 116.65 18.69ZM118.82 18.95L118.82 18.95L118.82 18.69Q118.82 17.77 119.04 16.92Q119.26 16.07 119.72 15.42L119.72 15.42Q120.16 14.78 120.83 14.40Q121.50 14.02 122.40 14.02L122.40 14.02Q123.30 14.02 123.98 14.40Q124.65 14.78 125.11 15.42L125.11 15.42Q125.55 16.07 125.78 16.92Q126.01 17.77 126.01 18.69L126.01 18.69L126.01 18.95Q126.01 19.89 125.79 20.74Q125.57 21.59 125.12 22.23L125.12 22.23Q124.66 22.88 123.99 23.25Q123.32 23.63 122.43 23.63L122.43 23.63Q121.52 23.63 120.84 23.25Q120.16 22.88 119.72 22.23L119.72 22.23Q119.26 21.59 119.04 20.74Q118.82 19.89 118.82 18.95ZM131.66 12.47L131.66 25.15L133.83 25.15L133.83 16.05Q134.05 15.64 134.35 15.30Q134.65 14.96 135 14.71L135 14.71Q135.43 14.41 135.95 14.24Q136.46 14.07 137.06 14.07L137.06 14.07Q137.75 14.07 138.29 14.24Q138.82 14.40 139.20 14.77L139.20 14.77Q139.56 15.13 139.75 15.71Q139.93 16.30 139.93 17.14L139.93 17.14L139.93 25.15L142.10 25.15L142.10 17.10Q142.10 15.83 141.79 14.91Q141.48 13.99 140.91 13.39L140.91 13.39Q140.33 12.80 139.52 12.52Q138.70 12.23 137.71 12.23L137.71 12.23Q136.97 12.25 136.31 12.45Q135.64 12.66 135.08 13.03L135.08 13.03Q134.71 13.28 134.37 13.61Q134.04 13.95 133.76 14.34L133.76 14.34L133.61 12.47L131.66 12.47ZM145.45 18.69L145.45 18.69L145.45 18.95Q145.45 20.32 145.85 21.49Q146.25 22.66 147 23.53L147 23.53Q147.74 24.40 148.81 24.89Q149.88 25.38 151.23 25.38L151.23 25.38Q152.57 25.38 153.63 24.89Q154.70 24.40 155.45 23.53L155.45 23.53Q156.19 22.66 156.59 21.49Q156.98 20.32 156.98 18.95L156.98 18.95L156.98 18.69Q156.98 17.32 156.59 16.14Q156.19 14.96 155.45 14.10L155.45 14.10Q154.70 13.23 153.63 12.73Q152.55 12.23 151.21 12.23L151.21 12.23Q149.87 12.23 148.80 12.73Q147.74 13.23 147 14.10L147 14.10Q146.25 14.96 145.85 16.14Q145.45 17.32 145.45 18.69ZM147.62 18.95L147.62 18.95L147.62 18.69Q147.62 17.77 147.84 16.92Q148.07 16.07 148.52 15.42L148.52 15.42Q148.97 14.78 149.64 14.40Q150.30 14.02 151.21 14.02L151.21 14.02Q152.11 14.02 152.78 14.40Q153.46 14.78 153.91 15.42L153.91 15.42Q154.36 16.07 154.59 16.92Q154.82 17.77 154.82 18.69L154.82 18.69L154.82 18.95Q154.82 19.89 154.59 20.74Q154.37 21.59 153.93 22.23L153.93 22.23Q153.47 22.88 152.79 23.25Q152.12 23.63 151.23 23.63L151.23 23.63Q150.33 23.63 149.65 23.25Q148.97 22.88 148.52 22.23L148.52 22.23Q148.07 21.59 147.84 20.74Q147.62 19.89 147.62 18.95ZM186.04 19.42L183.66 19.42L183.66 8.09L181.35 8.09L173.71 19.91L173.71 21.19L181.49 21.19L181.49 25.15L183.66 25.15L183.66 21.19L186.04 21.19L186.04 19.42ZM181.49 19.42L176.11 19.42L181.14 11.63L181.49 10.97L181.49 19.42ZM199.98 18.62L199.98 18.62L199.98 14.63Q199.98 13.00 199.61 11.74Q199.23 10.48 198.53 9.61L198.53 9.61Q197.81 8.74 196.79 8.29Q195.76 7.84 194.45 7.84L194.45 7.84Q193.15 7.84 192.12 8.29Q191.10 8.74 190.39 9.61L190.39 9.61Q189.68 10.48 189.30 11.74Q188.93 13.00 188.93 14.63L188.93 14.63L188.93 18.62Q188.93 20.25 189.30 21.51Q189.68 22.77 190.39 23.63L190.39 23.63Q191.11 24.50 192.14 24.94Q193.17 25.38 194.47 25.38L194.47 25.38Q195.79 25.38 196.80 24.94Q197.82 24.49 198.53 23.63L198.53 23.63Q199.23 22.77 199.61 21.51Q199.98 20.25 199.98 18.62ZM197.75 13.09L191.11 18.19Q191.11 17.88 191.11 17.59Q191.11 17.30 191.11 17.00L191.11 17.00L191.11 14.14Q191.11 12.95 191.35 12.04Q191.59 11.13 192.08 10.56L192.08 10.56Q192.49 10.10 193.08 9.86Q193.68 9.62 194.45 9.62L194.45 9.62Q195.21 9.62 195.79 9.84Q196.37 10.07 196.77 10.51L196.77 10.51Q197.18 10.95 197.42 11.60Q197.66 12.25 197.75 13.09L197.75 13.09ZM197.80 16.66L197.80 19.08Q197.80 20.33 197.55 21.26Q197.30 22.18 196.76 22.76L196.76 22.76Q196.36 23.18 195.79 23.40Q195.21 23.63 194.47 23.63L194.47 23.63Q193.77 23.63 193.21 23.42Q192.64 23.21 192.25 22.82L192.25 22.82Q191.81 22.39 191.54 21.74Q191.27 21.09 191.17 20.24L191.17 20.24L197.80 15.16Q197.80 15.49 197.80 15.99Q197.80 16.49 197.80 16.66L197.80 16.66ZM214.38 18.62L214.38 18.62L214.38 14.63Q214.38 13.00 214.01 11.74Q213.63 10.48 212.93 9.61L212.93 9.61Q212.21 8.74 211.19 8.29Q210.16 7.84 208.85 7.84L208.85 7.84Q207.55 7.84 206.53 8.29Q205.50 8.74 204.80 9.61L204.80 9.61Q204.08 10.48 203.71 11.74Q203.33 13.00 203.33 14.63L203.33 14.63L203.33 18.62Q203.33 20.25 203.71 21.51Q204.08 22.77 204.80 23.63L204.80 23.63Q205.51 24.50 206.54 24.94Q207.57 25.38 208.88 25.38L208.88 25.38Q210.19 25.38 211.21 24.94Q212.23 24.49 212.93 23.63L212.93 23.63Q213.63 22.77 214.01 21.51Q214.38 20.25 214.38 18.62ZM212.16 13.09L205.51 18.19Q205.51 17.88 205.51 17.59Q205.51 17.30 205.51 17.00L205.51 17.00L205.51 14.14Q205.51 12.95 205.75 12.04Q205.99 11.13 206.48 10.56L206.48 10.56Q206.89 10.10 207.49 9.86Q208.08 9.62 208.85 9.62L208.85 9.62Q209.61 9.62 210.19 9.84Q210.77 10.07 211.17 10.51L211.17 10.51Q211.58 10.95 211.82 11.60Q212.06 12.25 212.16 13.09L212.16 13.09ZM212.20 16.66L212.20 19.08Q212.20 20.33 211.95 21.26Q211.70 22.18 211.16 22.76L211.16 22.76Q210.76 23.18 210.19 23.40Q209.61 23.63 208.88 23.63L208.88 23.63Q208.17 23.63 207.61 23.42Q207.05 23.21 206.65 22.82L206.65 22.82Q206.21 22.39 205.95 21.74Q205.68 21.09 205.57 20.24L205.57 20.24L212.20 15.16Q212.20 15.49 212.20 15.99Q212.20 16.49 212.20 16.66L212.20 16.66ZM232.48 12.47L232.48 25.15L234.64 25.15L234.64 16.05Q234.87 15.64 235.17 15.30Q235.46 14.96 235.82 14.71L235.82 14.71Q236.25 14.41 236.77 14.24Q237.28 14.07 237.88 14.07L237.88 14.07Q238.57 14.07 239.10 14.24Q239.64 14.40 240.01 14.77L240.01 14.77Q240.38 15.13 240.56 15.71Q240.75 16.30 240.75 17.14L240.75 17.14L240.75 25.15L242.92 25.15L242.92 17.10Q242.92 15.83 242.61 14.91Q242.30 13.99 241.72 13.39L241.72 13.39Q241.15 12.80 240.33 12.52Q239.52 12.23 238.52 12.23L238.52 12.23Q237.79 12.25 237.12 12.45Q236.46 12.66 235.90 13.03L235.90 13.03Q235.52 13.28 235.19 13.61Q234.86 13.95 234.57 14.34L234.57 14.34L234.42 12.47L232.48 12.47ZM246.27 18.69L246.27 18.69L246.27 18.95Q246.27 20.32 246.67 21.49Q247.07 22.66 247.82 23.53L247.82 23.53Q248.55 24.40 249.63 24.89Q250.70 25.38 252.05 25.38L252.05 25.38Q253.38 25.38 254.45 24.89Q255.52 24.40 256.27 23.53L256.27 23.53Q257.00 22.66 257.40 21.49Q257.80 20.32 257.80 18.95L257.80 18.95L257.80 18.69Q257.80 17.32 257.40 16.14Q257.00 14.96 256.27 14.10L256.27 14.10Q255.52 13.23 254.44 12.73Q253.37 12.23 252.02 12.23L252.02 12.23Q250.69 12.23 249.62 12.73Q248.55 13.23 247.82 14.10L247.82 14.10Q247.07 14.96 246.67 16.14Q246.27 17.32 246.27 18.69ZM248.44 18.95L248.44 18.95L248.44 18.69Q248.44 17.77 248.66 16.92Q248.88 16.07 249.34 15.42L249.34 15.42Q249.79 14.78 250.45 14.40Q251.12 14.02 252.02 14.02L252.02 14.02Q252.93 14.02 253.60 14.40Q254.27 14.78 254.73 15.42L254.73 15.42Q255.18 16.07 255.40 16.92Q255.63 17.77 255.63 18.69L255.63 18.69L255.63 18.95Q255.63 19.89 255.41 20.74Q255.19 21.59 254.74 22.23L254.74 22.23Q254.29 22.88 253.61 23.25Q252.94 23.63 252.05 23.63L252.05 23.63Q251.14 23.63 250.46 23.25Q249.79 22.88 249.34 22.23L249.34 22.23Q248.88 21.59 248.66 20.74Q248.44 19.89 248.44 18.95ZM269.59 12.23L269.59 12.23Q268.21 12.23 267.12 12.84Q266.04 13.44 265.27 14.48L265.27 14.48L265.25 14.17L265.16 12.47L263.10 12.47L263.10 25.15L265.28 25.15L265.28 17.02Q265.49 16.43 265.81 15.96Q266.13 15.48 266.57 15.15L266.57 15.15Q267.05 14.78 267.69 14.58Q268.34 14.39 269.13 14.39L269.13 14.39Q269.75 14.39 270.32 14.46Q270.89 14.52 271.52 14.66L271.52 14.66L271.82 12.54Q271.49 12.40 270.84 12.32Q270.19 12.23 269.59 12.23ZM276.74 13.66L276.68 12.47L274.73 12.47L274.73 25.15L276.80 25.15L276.80 15.06Q276.87 14.87 276.98 14.71Q277.09 14.54 277.24 14.41L277.24 14.41Q277.44 14.25 277.73 14.16Q278.02 14.07 278.40 14.07L278.40 14.07Q278.75 14.07 279.02 14.16Q279.28 14.25 279.46 14.44L279.46 14.44Q279.64 14.64 279.73 14.94Q279.82 15.25 279.82 15.64L279.82 15.64L279.82 25.15L281.88 25.15L281.88 15.66Q281.88 15.59 281.88 15.53Q281.88 15.48 281.88 15.42L281.88 15.42Q281.92 15.13 282.02 14.89Q282.13 14.65 282.32 14.46L282.32 14.46Q282.50 14.29 282.79 14.18Q283.07 14.07 283.45 14.07L283.45 14.07Q283.82 14.07 284.09 14.17Q284.37 14.26 284.55 14.45L284.55 14.45Q284.73 14.65 284.82 14.95Q284.92 15.26 284.92 15.66L284.92 15.66L284.92 25.15L286.98 25.15L286.98 15.68Q286.98 14.77 286.77 14.09Q286.56 13.42 286.16 13.00L286.16 13.00Q285.80 12.62 285.27 12.43Q284.74 12.23 284.09 12.23L284.09 12.23Q283.61 12.25 283.20 12.36Q282.80 12.48 282.47 12.68L282.47 12.68Q282.21 12.86 281.99 13.09Q281.77 13.32 281.60 13.59L281.60 13.59Q281.47 13.30 281.29 13.07Q281.11 12.83 280.89 12.67L280.89 12.67Q280.58 12.46 280.18 12.35Q279.77 12.23 279.27 12.23L279.27 12.23Q278.38 12.25 277.75 12.62Q277.13 13.00 276.74 13.66L276.74 13.66ZM298.42 25.15L298.42 25.15L300.68 25.15L300.68 24.96Q300.47 24.43 300.35 23.72Q300.23 23.02 300.23 22.38L300.23 22.38L300.23 16.49Q300.23 15.42 299.85 14.63Q299.46 13.83 298.79 13.29L298.79 13.29Q298.11 12.76 297.19 12.50Q296.26 12.23 295.18 12.23L295.18 12.23Q294 12.23 293.07 12.56Q292.14 12.89 291.49 13.42L291.49 13.42Q290.84 13.96 290.49 14.63Q290.14 15.29 290.13 15.98L290.13 15.98L292.31 15.98Q292.31 15.59 292.51 15.22Q292.70 14.85 293.05 14.58L293.05 14.58Q293.40 14.31 293.91 14.14Q294.42 13.98 295.07 13.98L295.07 13.98Q295.76 13.98 296.31 14.16Q296.87 14.33 297.26 14.65L297.26 14.65Q297.64 14.98 297.86 15.43Q298.07 15.89 298.07 16.46L298.07 16.46L298.07 17.46L295.70 17.46Q294.38 17.46 293.30 17.72Q292.23 17.98 291.47 18.49L291.47 18.49Q290.71 19.02 290.29 19.80Q289.88 20.59 289.88 21.63L289.88 21.63Q289.88 22.43 290.19 23.12Q290.50 23.80 291.07 24.29L291.07 24.29Q291.63 24.80 292.45 25.09Q293.26 25.38 294.27 25.38L294.27 25.38Q294.89 25.38 295.44 25.25Q295.99 25.13 296.48 24.90L296.48 24.90Q296.96 24.68 297.37 24.39Q297.77 24.09 298.10 23.77L298.10 23.77Q298.14 24.16 298.21 24.53Q298.29 24.90 298.42 25.15ZM294.59 23.50L294.59 23.50Q293.95 23.50 293.47 23.33Q292.99 23.17 292.68 22.88L292.68 22.88Q292.36 22.59 292.20 22.20Q292.04 21.80 292.04 21.33L292.04 21.33Q292.04 20.84 292.22 20.45Q292.41 20.06 292.76 19.78L292.76 19.78Q293.25 19.38 294.09 19.19Q294.93 19.00 296.05 19.00L296.05 19.00L298.07 19.00L298.07 21.56Q297.88 21.94 297.55 22.28Q297.22 22.63 296.78 22.90L296.78 22.90Q296.32 23.17 295.77 23.33Q295.22 23.50 294.59 23.50ZM311.31 7.15L304.83 7.15L304.83 9.04L309.14 9.04L309.14 23.27L304.83 23.27L304.83 25.15L315.45 25.15L315.45 23.27L311.31 23.27L311.31 7.15Z"/></svg>