<svg xmlns="http://www.w3.org/2000/svg" xmlns:xlink="http://www.w3.org/1999/xlink" width="312.84000000000003" height="47.952"><path fill="black" d="M4.30 32.90L4.30 32.90Q3.41 32.90 3 32.45Q2.59 31.99 2.59 30.96L2.59 30.96Q2.59 30.26 2.68 29.28Q2.76 28.30 2.96 26.76Q3.17 25.22 3.53 22.93Q3.89 20.64 4.44 17.33L4.44 17.33L3.70 15.86Q4.46 15.38 5.21 15.12Q5.95 14.86 6.55 14.86L6.55 14.86Q7.61 14.86 7.61 16.13L7.61 16.13Q7.61 16.32 7.50 17.06Q7.39 17.81 7.21 18.91Q7.03 20.02 6.80 21.34Q6.58 22.66 6.36 24.01Q6.14 25.37 5.96 26.59Q5.78 27.82 5.68 28.75Q5.57 29.69 5.57 30.17L5.57 30.17Q5.57 30.77 5.84 31.21Q6.12 31.66 6.72 31.99L6.72 31.99Q5.45 32.90 4.30 32.90ZM8.86 32.88L8.86 32.88Q7.49 32.88 6.19 32.56Q4.90 32.23 4.03 31.70L4.03 31.70L4.85 30.48L9.38 30.48Q10.15 30.38 10.78 30.24Q11.40 30.10 12 29.86L12 29.86Q12.12 30.24 12.17 30.44Q12.22 30.65 12.22 30.91L12.22 30.91Q12.22 31.92 11.40 32.40Q10.58 32.88 8.86 32.88ZM20.33 32.88L20.33 32.88Q17.78 32.88 16.34 31.32Q14.90 29.76 14.90 27.02L14.90 27.02Q14.90 25.03 15.55 23.36Q16.20 21.70 17.38 20.47Q18.55 19.25 20.14 18.56Q21.72 17.88 23.59 17.88L23.59 17.88Q25.49 17.88 26.56 18.78Q27.62 19.68 27.62 21.31L27.62 21.31Q27.62 23.02 26.40 24.23Q25.18 25.44 22.85 26.06Q20.52 26.69 17.18 26.71L17.18 26.71L17.47 25.37Q21.05 25.39 23.03 24.30Q25.01 23.21 25.01 21.24L25.01 21.24Q25.01 20.40 24.52 19.90Q24.02 19.39 23.18 19.39L23.18 19.39Q22.10 19.39 21.14 19.99Q20.18 20.59 19.45 21.66Q18.72 22.73 18.30 24.14Q17.88 25.56 17.88 27.17L17.88 27.17Q17.88 29.06 18.60 30.17Q19.32 31.27 20.57 31.27L20.57 31.27Q22.13 31.27 23.11 30.29Q24.10 29.30 24.19 27.67L24.19 27.67Q25.10 27.67 25.62 28.01Q26.14 28.34 26.14 29.11L26.14 29.11Q26.14 30.07 25.37 30.94Q24.60 31.80 23.29 32.34Q21.98 32.88 20.33 32.88ZM32.76 32.88L32.76 32.88Q31.90 32.88 31.51 32.44Q31.13 31.99 31.13 31.18L31.13 31.18Q31.13 30.65 31.26 29.71Q31.39 28.78 31.61 27.58Q31.82 26.38 32.10 25.07Q32.38 23.76 32.66 22.52Q32.95 21.29 33.22 20.28L33.22 20.28L32.14 19.08Q32.74 18.55 33.52 18.25Q34.30 17.95 34.90 17.95L34.90 17.95Q35.62 17.95 35.90 18.24Q36.19 18.53 36.19 19.27L36.19 19.27Q36.19 19.90 35.99 20.68Q35.78 21.46 35.45 22.15L35.45 22.15L35.69 22.27Q36.96 19.85 38.44 18.86Q39.91 17.88 41.59 17.88L41.59 17.88Q43.15 17.88 43.81 18.72Q44.47 19.56 44.47 20.90L44.47 20.90Q44.47 21.17 44.44 21.49Q44.40 21.82 44.30 22.15L44.30 22.15L44.54 22.27Q45.86 19.85 47.36 18.86Q48.86 17.88 50.59 17.88L50.59 17.88Q52.15 17.88 52.92 18.65Q53.69 19.42 53.69 21.07L53.69 21.07Q53.69 22.18 53.44 23.38Q53.18 24.58 52.85 25.85Q52.51 27.12 52.26 28.40Q52.01 29.69 52.01 30.96L52.01 30.96Q52.01 31.34 52.08 31.68Q52.15 32.02 52.30 32.21L52.30 32.21Q51.60 32.88 50.81 32.88L50.81 32.88Q49.94 32.88 49.55 32.42Q49.15 31.97 49.15 31.13L49.15 31.13Q49.15 30.14 49.38 28.91Q49.61 27.67 49.92 26.35Q50.23 25.03 50.46 23.86Q50.69 22.68 50.69 21.86L50.69 21.86Q50.69 20.95 50.35 20.44Q50.02 19.92 49.20 19.92L49.20 19.92Q48.22 19.92 47.12 20.72Q46.03 21.53 45.10 22.99Q44.16 24.46 43.57 26.48Q42.98 28.51 42.98 30.96L42.98 30.96Q42.98 31.34 43.06 31.68Q43.13 32.02 43.30 32.21L43.30 32.21Q42.60 32.88 41.78 32.88L41.78 32.88Q40.92 32.88 40.54 32.42Q40.15 31.97 40.15 31.13L40.15 31.13Q40.15 30.14 40.38 28.91Q40.61 27.67 40.92 26.35Q41.23 25.03 41.46 23.86Q41.69 22.68 41.69 21.86L41.69 21.86Q41.69 20.95 41.34 20.44Q40.99 19.92 40.20 19.92L40.20 19.92Q39.19 19.92 38.11 20.72Q37.03 21.53 36.10 22.99Q35.16 24.46 34.57 26.48Q33.98 28.51 33.98 30.96L33.98 30.96Q33.98 31.34 34.06 31.68Q34.13 32.02 34.27 32.21L34.27 32.21Q33.58 32.88 32.76 32.88ZM63.14 32.88L63.14 32.88Q61.39 32.88 60.10 32.10Q58.80 31.32 58.09 29.90Q57.38 28.49 57.38 26.57L57.38 26.57Q57.38 24.65 58.00 23.05Q58.61 21.46 59.74 20.30Q60.86 19.15 62.40 18.52Q63.94 17.88 65.78 17.88L65.78 17.88Q66.29 17.88 66.73 17.92Q67.18 17.95 67.63 18.07L67.63 18.07Q67.80 18.31 67.86 18.59Q67.92 18.86 67.94 19.20L67.94 19.20Q65.50 19.20 63.80 20.18Q62.11 21.17 61.24 22.86Q60.36 24.55 60.36 26.74L60.36 26.74Q60.36 28.85 61.15 30.06Q61.94 31.27 63.41 31.27L63.41 31.27Q64.85 31.27 65.98 30.47Q67.10 29.66 67.84 28.21Q68.57 26.76 68.76 24.82L68.76 24.82Q67.78 24.19 67.33 23.44Q66.89 22.68 66.89 21.70L66.89 21.70Q66.89 21.07 67.14 20.59Q67.39 20.11 67.82 19.84Q68.26 19.56 68.81 19.56L68.81 19.56Q69.91 19.56 70.54 20.54Q71.16 21.53 71.16 23.28L71.16 23.28Q71.16 25.30 70.55 27.04Q69.94 28.78 68.83 30.08Q67.73 31.39 66.28 32.14Q64.82 32.88 63.14 32.88ZM76.97 32.88L76.97 32.88Q76.15 32.88 75.74 32.47Q75.34 32.06 75.34 31.18L75.34 31.18Q75.34 30.65 75.50 29.50Q75.67 28.34 75.97 26.81Q76.27 25.27 76.64 23.58Q77.02 21.89 77.42 20.28L77.42 20.28L76.34 19.08Q76.94 18.55 77.72 18.25Q78.50 17.95 79.10 17.95L79.10 17.95Q79.82 17.95 80.11 18.24Q80.40 18.53 80.40 19.27L80.40 19.27Q80.40 19.90 80.20 20.68Q79.99 21.46 79.66 22.15L79.66 22.15L79.90 22.27Q81.10 20.14 82.67 19.01Q84.24 17.88 86.18 17.88L86.18 17.88Q87.74 17.88 88.50 18.66Q89.26 19.44 89.26 21.07L89.26 21.07Q89.26 22.18 89.00 23.38Q88.75 24.58 88.42 25.85Q88.08 27.12 87.83 28.40Q87.58 29.69 87.58 30.96L87.58 30.96Q87.58 31.82 87.89 32.21L87.89 32.21Q87.17 32.88 86.35 32.88L86.35 32.88Q85.54 32.88 85.14 32.47Q84.74 32.06 84.74 31.18L84.74 31.18Q84.74 30.19 84.97 28.93Q85.20 27.67 85.50 26.36Q85.80 25.06 86.03 23.88Q86.26 22.70 86.26 21.86L86.26 21.86Q86.26 20.88 85.88 20.40Q85.51 19.92 84.79 19.92L84.79 19.92Q83.74 19.92 82.76 20.54Q81.79 21.17 80.96 22.25Q80.14 23.33 79.51 24.74Q78.89 26.16 78.54 27.74Q78.19 29.33 78.19 30.96L78.19 30.96Q78.19 31.85 78.48 32.21L78.48 32.21Q77.76 32.88 76.97 32.88ZM97.22 32.88L97.22 32.88Q95.93 32.88 94.94 32.18Q93.96 31.49 93.41 30.22Q92.86 28.94 92.86 27.24L92.86 27.24Q92.86 25.25 93.56 23.56Q94.27 21.86 95.52 20.58Q96.77 19.30 98.45 18.59Q100.13 17.88 102.07 17.88L102.07 17.88Q103.18 17.88 104.33 18.07L104.33 18.07Q104.47 18.31 104.54 18.60Q104.62 18.89 104.62 19.20L104.62 19.20Q102.53 19.20 100.90 19.80Q99.26 20.40 98.12 21.49Q96.98 22.58 96.40 24.02Q95.81 25.46 95.81 27.17L95.81 27.17Q95.81 28.80 96.48 29.71Q97.15 30.62 98.38 30.62L98.38 30.62Q100.61 30.62 102.05 27.77Q103.49 24.91 104.21 19.20L104.21 19.20Q104.47 18.86 104.89 18.67Q105.31 18.48 105.74 18.48L105.74 18.48Q106.34 18.48 106.69 18.76Q107.04 19.03 107.04 19.56L107.04 19.56Q107.04 20.35 106.75 21.56Q106.46 22.78 106.10 24.29Q105.74 25.80 105.46 27.50Q105.17 29.21 105.17 30.96L105.17 30.96Q105.17 31.80 105.60 32.21L105.60 32.21Q105.22 32.57 104.81 32.72Q104.40 32.88 103.99 32.88L103.99 32.88Q103.18 32.88 102.74 32.38Q102.31 31.87 102.31 30.91L102.31 30.91Q102.31 30.60 102.36 30.23Q102.41 29.86 102.48 29.47L102.48 29.47L102.24 29.35Q101.38 31.03 100.07 31.96Q98.76 32.88 97.22 32.88ZM115.15 32.88L115.15 32.88Q113.86 32.88 112.87 32.18Q111.89 31.49 111.34 30.22Q110.78 28.94 110.78 27.24L110.78 27.24Q110.78 25.39 111.49 23.80Q112.20 22.20 113.45 21.01Q114.70 19.82 116.38 19.15Q118.06 18.48 120.00 18.48L120.00 18.48Q121.30 18.48 122.26 18.67L122.26 18.67Q122.40 18.91 122.47 19.19Q122.54 19.46 122.54 19.80L122.54 19.80Q120.50 19.80 118.88 20.34Q117.26 20.88 116.11 21.86Q114.96 22.85 114.35 24.19Q113.74 25.54 113.74 27.17L113.74 27.17Q113.74 28.80 114.41 29.71Q115.08 30.62 116.30 30.62L116.30 30.62Q117.17 30.62 118.03 30.11Q118.90 29.59 119.64 28.61Q120.38 27.62 120.86 26.28L120.86 26.28L120.65 29.54L120.17 29.35Q119.30 31.03 118.00 31.96Q116.69 32.88 115.15 32.88ZM121.82 32.88L121.82 32.88Q121.08 32.88 120.70 32.41Q120.31 31.94 120.31 30.98L120.31 30.98Q120.31 30.55 120.42 29.59Q120.53 28.63 120.72 27.31Q120.91 25.99 121.15 24.47Q121.39 22.94 121.64 21.40Q121.90 19.85 122.15 18.43Q122.40 17.02 122.59 15.91L122.59 15.91L121.54 14.71Q122.14 14.23 122.90 13.96Q123.67 13.68 124.30 13.68L124.30 13.68Q124.97 13.68 125.26 13.98Q125.54 14.28 125.54 15L125.54 15Q125.54 15.60 125.30 16.74Q125.06 17.88 124.70 19.44Q124.34 21 123.97 22.85Q123.60 24.70 123.36 26.70Q123.12 28.70 123.12 30.74L123.12 30.74Q123.12 31.18 123.25 31.58Q123.38 31.99 123.62 32.21L123.62 32.21Q123.26 32.52 122.82 32.70Q122.38 32.88 121.82 32.88ZM133.10 32.88L133.10 32.88Q131.81 32.88 130.82 32.18Q129.84 31.49 129.29 30.22Q128.74 28.94 128.74 27.24L128.74 27.24Q128.74 25.25 129.44 23.56Q130.15 21.86 131.40 20.58Q132.65 19.30 134.33 18.59Q136.01 17.88 137.95 17.88L137.95 17.88Q139.06 17.88 140.21 18.07L140.21 18.07Q140.35 18.31 140.42 18.60Q140.50 18.89 140.50 19.20L140.50 19.20Q138.41 19.20 136.78 19.80Q135.14 20.40 134.00 21.49Q132.86 22.58 132.28 24.02Q131.69 25.46 131.69 27.17L131.69 27.17Q131.69 28.80 132.36 29.71Q133.03 30.62 134.26 30.62L134.26 30.62Q136.49 30.62 137.93 27.77Q139.37 24.91 140.09 19.20L140.09 19.20Q140.35 18.86 140.77 18.67Q141.19 18.48 141.62 18.48L141.62 18.48Q142.22 18.48 142.57 18.76Q142.92 19.03 142.92 19.56L142.92 19.56Q142.92 20.35 142.63 21.56Q142.34 22.78 141.98 24.29Q141.62 25.80 141.34 27.50Q141.05 29.21 141.05 30.96L141.05 30.96Q141.05 31.80 141.48 32.21L141.48 32.21Q141.10 32.57 140.69 32.72Q140.28 32.88 139.87 32.88L139.87 32.88Q139.06 32.88 138.62 32.38Q138.19 31.87 138.19 30.91L138.19 30.91Q138.19 30.60 138.24 30.23Q138.29 29.86 138.36 29.47L138.36 29.47L138.12 29.35Q137.26 31.03 135.95 31.96Q134.64 32.88 133.10 32.88ZM157.30 32.28L157.30 32.28Q155.42 32.28 154.56 31.75Q153.70 31.22 153.70 30.10L153.70 30.10Q153.70 29.45 154.09 28.54Q154.49 27.62 155.11 26.52Q155.74 25.42 156.43 24.20Q157.13 22.99 157.75 21.76Q158.38 20.52 158.77 19.34Q159.17 18.17 159.17 17.16L159.17 17.16Q159.17 16.85 159.13 16.56Q159.10 16.27 158.98 15.89L158.98 15.89Q159.46 15.65 159.86 15.56Q160.27 15.48 160.68 15.48L160.68 15.48Q162.62 15.48 162.62 17.83L162.62 17.83Q162.62 19.97 160.91 22.98Q159.19 25.99 155.69 30.02L155.69 30.02L163.66 30.02L162.96 31.82Q162.24 31.94 161.26 32.05Q160.27 32.16 159.24 32.22Q158.21 32.28 157.30 32.28ZM164.33 36.36L164.33 36.36Q163.34 36.36 162.80 35.72Q162.26 35.09 162.26 33.91L162.26 33.91Q162.26 33.31 162.44 32.33Q162.62 31.34 162.96 30.04Q163.30 28.73 163.76 27.18Q164.23 25.63 164.81 23.93L164.81 23.93Q165.10 23.71 165.42 23.56Q165.74 23.40 166.09 23.32Q166.44 23.23 166.73 23.23L166.73 23.23Q167.14 23.23 167.30 23.35Q167.47 23.47 167.47 23.81L167.47 23.81Q167.47 24.26 167.22 25.25Q166.97 26.23 166.64 27.53Q166.32 28.82 166.07 30.30Q165.82 31.78 165.82 33.26L165.82 33.26Q165.82 34.85 166.39 35.78L166.39 35.78Q165.77 36.10 165.31 36.23Q164.86 36.36 164.33 36.36ZM177 32.88L177 32.88Q175.08 32.88 173.68 31.97Q172.27 31.06 171.52 29.38Q170.76 27.70 170.76 25.44L170.76 25.44Q170.76 22.46 171.91 20.22Q173.06 17.98 175.14 16.73Q177.22 15.48 179.93 15.48L179.93 15.48Q180.38 15.48 180.95 15.59Q181.51 15.70 181.87 15.84L181.87 15.84Q181.99 15.96 182.04 16.25Q182.09 16.54 182.11 16.99L182.11 16.99Q183.62 17.40 184.42 18.94Q185.21 20.47 185.21 22.90L185.21 22.90Q185.21 25.01 184.58 26.82Q183.96 28.63 182.83 30Q181.70 31.37 180.22 32.12Q178.73 32.88 177 32.88ZM177.22 31.06L177.22 31.06Q178.66 31.06 179.77 30.04Q180.89 29.02 181.52 27.24Q182.16 25.46 182.16 23.16L182.16 23.16Q182.16 20.47 181.16 19.15Q180.17 17.83 178.08 17.83L178.08 17.83Q177.62 17.83 177.16 17.93Q176.69 18.02 176.14 18.22L176.14 18.22Q175.37 19.32 174.85 20.58Q174.34 21.84 174.07 23.16Q173.81 24.48 173.81 25.75L173.81 25.75Q173.81 28.20 174.74 29.63Q175.68 31.06 177.22 31.06ZM194.52 32.88L194.52 32.88Q192.60 32.88 191.20 31.97Q189.79 31.06 189.04 29.38Q188.28 27.70 188.28 25.44L188.28 25.44Q188.28 22.46 189.43 20.22Q190.58 17.98 192.66 16.73Q194.74 15.48 197.45 15.48L197.45 15.48Q197.90 15.48 198.47 15.59Q199.03 15.70 199.39 15.84L199.39 15.84Q199.51 15.96 199.56 16.25Q199.61 16.54 199.63 16.99L199.63 16.99Q201.14 17.40 201.94 18.94Q202.73 20.47 202.73 22.90L202.73 22.90Q202.73 25.01 202.10 26.82Q201.48 28.63 200.35 30Q199.22 31.37 197.74 32.12Q196.25 32.88 194.52 32.88ZM194.74 31.06L194.74 31.06Q196.18 31.06 197.29 30.04Q198.41 29.02 199.04 27.24Q199.68 25.46 199.68 23.16L199.68 23.16Q199.68 20.47 198.68 19.15Q197.69 17.83 195.60 17.83L195.60 17.83Q195.14 17.83 194.68 17.93Q194.21 18.02 193.66 18.22L193.66 18.22Q192.89 19.32 192.37 20.58Q191.86 21.84 191.59 23.16Q191.33 24.48 191.33 25.75L191.33 25.75Q191.33 28.20 192.26 29.63Q193.20 31.06 194.74 31.06ZM215.81 32.88L215.81 32.88Q214.99 32.88 214.58 32.47Q214.18 32.06 214.18 31.18L214.18 31.18Q214.18 30.65 214.34 29.50Q214.51 28.34 214.81 26.81Q215.11 25.27 215.48 23.58Q215.86 21.89 216.26 20.28L216.26 20.28L215.18 19.08Q215.78 18.55 216.56 18.25Q217.34 17.95 217.94 17.95L217.94 17.95Q218.66 17.95 218.95 18.24Q219.24 18.53 219.24 19.27L219.24 19.27Q219.24 19.90 219.04 20.68Q218.83 21.46 218.50 22.15L218.50 22.15L218.74 22.27Q219.94 20.14 221.51 19.01Q223.08 17.88 225.02 17.88L225.02 17.88Q226.58 17.88 227.34 18.66Q228.10 19.44 228.10 21.07L228.10 21.07Q228.10 22.18 227.84 23.38Q227.59 24.58 227.26 25.85Q226.92 27.12 226.67 28.40Q226.42 29.69 226.42 30.96L226.42 30.96Q226.42 31.82 226.73 32.21L226.73 32.21Q226.01 32.88 225.19 32.88L225.19 32.88Q224.38 32.88 223.98 32.47Q223.58 32.06 223.58 31.18L223.58 31.18Q223.58 30.19 223.81 28.93Q224.04 27.67 224.34 26.36Q224.64 25.06 224.87 23.88Q225.10 22.70 225.10 21.86L225.10 21.86Q225.10 20.88 224.72 20.40Q224.35 19.92 223.63 19.92L223.63 19.92Q222.58 19.92 221.60 20.54Q220.63 21.17 219.80 22.25Q218.98 23.33 218.35 24.74Q217.73 26.16 217.38 27.74Q217.03 29.33 217.03 30.96L217.03 30.96Q217.03 31.85 217.32 32.21L217.32 32.21Q216.60 32.88 215.81 32.88ZM237.58 32.88L237.58 32.88Q235.82 32.88 234.53 32.10Q233.23 31.32 232.52 29.90Q231.82 28.49 231.82 26.57L231.82 26.57Q231.82 24.65 232.43 23.05Q233.04 21.46 234.17 20.30Q235.30 19.15 236.83 18.52Q238.37 17.88 240.22 17.88L240.22 17.88Q240.72 17.88 241.16 17.92Q241.61 17.95 242.06 18.07L242.06 18.07Q242.23 18.31 242.29 18.59Q242.35 18.86 242.38 19.20L242.38 19.20Q239.93 19.20 238.24 20.18Q236.54 21.17 235.67 22.86Q234.79 24.55 234.79 26.74L234.79 26.74Q234.79 28.85 235.58 30.06Q236.38 31.27 237.84 31.27L237.84 31.27Q239.28 31.27 240.41 30.47Q241.54 29.66 242.27 28.21Q243.00 26.76 243.19 24.82L243.19 24.82Q242.21 24.19 241.76 23.44Q241.32 22.68 241.32 21.70L241.32 21.70Q241.32 21.07 241.57 20.59Q241.82 20.11 242.26 19.84Q242.69 19.56 243.24 19.56L243.24 19.56Q244.34 19.56 244.97 20.54Q245.59 21.53 245.59 23.28L245.59 23.28Q245.59 25.30 244.98 27.04Q244.37 28.78 243.26 30.08Q242.16 31.39 240.71 32.14Q239.26 32.88 237.58 32.88ZM251.38 32.88L251.38 32.88Q250.56 32.88 250.15 32.40Q249.74 31.92 249.74 30.89L249.74 30.89Q249.74 30.38 249.92 29.23Q250.10 28.08 250.40 26.54Q250.70 25.01 251.08 23.36Q251.45 21.72 251.83 20.28L251.83 20.28L250.78 19.08Q251.40 18.55 252.01 18.25Q252.62 17.95 253.15 17.95L253.15 17.95Q253.87 17.95 254.16 18.35Q254.45 18.74 254.45 19.27L254.45 19.27Q254.45 20.09 254.17 20.99Q253.90 21.89 253.46 22.94L253.46 22.94L253.70 23.06Q254.47 21.26 255.25 20.11Q256.03 18.96 256.84 18.41Q257.64 17.86 258.43 17.86L258.43 17.86Q259.20 17.86 259.61 18.20Q260.02 18.55 260.02 19.27L260.02 19.27Q260.02 20.09 259.39 20.56Q258.77 21.02 257.76 21.02L257.76 21.02Q256.80 21.02 255.88 21.86Q254.95 22.70 254.21 24.12Q253.46 25.54 253.03 27.31Q252.60 29.09 252.60 30.96L252.60 30.96Q252.60 31.85 252.89 32.21L252.89 32.21Q252.17 32.88 251.38 32.88ZM263.21 32.88L263.21 32.88Q262.34 32.88 261.96 32.44Q261.58 31.99 261.58 31.18L261.58 31.18Q261.58 30.65 261.71 29.71Q261.84 28.78 262.06 27.58Q262.27 26.38 262.55 25.07Q262.82 23.76 263.11 22.52Q263.40 21.29 263.66 20.28L263.66 20.28L262.58 19.08Q263.18 18.55 263.96 18.25Q264.74 17.95 265.34 17.95L265.34 17.95Q266.06 17.95 266.35 18.24Q266.64 18.53 266.64 19.27L266.64 19.27Q266.64 19.90 266.44 20.68Q266.23 21.46 265.90 22.15L265.90 22.15L266.14 22.27Q267.41 19.85 268.88 18.86Q270.36 17.88 272.04 17.88L272.04 17.88Q273.60 17.88 274.26 18.72Q274.92 19.56 274.92 20.90L274.92 20.90Q274.92 21.17 274.88 21.49Q274.85 21.82 274.75 22.15L274.75 22.15L274.99 22.27Q276.31 19.85 277.81 18.86Q279.31 17.88 281.04 17.88L281.04 17.88Q282.60 17.88 283.37 18.65Q284.14 19.42 284.14 21.07L284.14 21.07Q284.14 22.18 283.88 23.38Q283.63 24.58 283.30 25.85Q282.96 27.12 282.71 28.40Q282.46 29.69 282.46 30.96L282.46 30.96Q282.46 31.34 282.53 31.68Q282.60 32.02 282.74 32.21L282.74 32.21Q282.05 32.88 281.26 32.88L281.26 32.88Q280.39 32.88 280.00 32.42Q279.60 31.97 279.60 31.13L279.60 31.13Q279.60 30.14 279.83 28.91Q280.06 27.67 280.37 26.35Q280.68 25.03 280.91 23.86Q281.14 22.68 281.14 21.86L281.14 21.86Q281.14 20.95 280.80 20.44Q280.46 19.92 279.65 19.92L279.65 19.92Q278.66 19.92 277.57 20.72Q276.48 21.53 275.54 22.99Q274.61 24.46 274.02 26.48Q273.43 28.51 273.43 30.96L273.43 30.96Q273.43 31.34 273.50 31.68Q273.58 32.02 273.74 32.21L273.74 32.21Q273.05 32.88 272.23 32.88L272.23 32.88Q271.37 32.88 270.98 32.42Q270.60 31.97 270.60 31.13L270.60 31.13Q270.60 30.14 270.83 28.91Q271.06 27.67 271.37 26.35Q271.68 25.03 271.91 23.86Q272.14 22.68 272.14 21.86L272.14 21.86Q272.14 20.95 271.79 20.44Q271.44 19.92 270.65 19.92L270.65 19.92Q269.64 19.92 268.56 20.72Q267.48 21.53 266.54 22.99Q265.61 24.46 265.02 26.48Q264.43 28.51 264.43 30.96L264.43 30.96Q264.43 31.34 264.50 31.68Q264.58 32.02 264.72 32.21L264.72 32.21Q264.02 32.88 263.21 32.88ZM292.08 32.88L292.08 32.88Q290.78 32.88 289.80 32.18Q288.82 31.49 288.26 30.22Q287.71 28.94 287.71 27.24L287.71 27.24Q287.71 25.25 288.42 23.56Q289.13 21.86 290.38 20.58Q291.62 19.30 293.30 18.59Q294.98 17.88 296.93 17.88L296.93 17.88Q298.03 17.88 299.18 18.07L299.18 18.07Q299.33 18.31 299.40 18.60Q299.47 18.89 299.47 19.20L299.47 19.20Q297.38 19.20 295.75 19.80Q294.12 20.40 292.98 21.49Q291.84 22.58 291.25 24.02Q290.66 25.46 290.66 27.17L290.66 27.17Q290.66 28.80 291.34 29.71Q292.01 30.62 293.23 30.62L293.23 30.62Q295.46 30.62 296.90 27.77Q298.34 24.91 299.06 19.20L299.06 19.20Q299.33 18.86 299.75 18.67Q300.17 18.48 300.60 18.48L300.60 18.48Q301.20 18.48 301.55 18.76Q301.90 19.03 301.90 19.56L301.90 19.56Q301.90 20.35 301.61 21.56Q301.32 22.78 300.96 24.29Q300.60 25.80 300.31 27.50Q300.02 29.21 300.02 30.96L300.02 30.96Q300.02 31.80 300.46 32.21L300.46 32.21Q300.07 32.57 299.66 32.72Q299.26 32.88 298.85 32.88L298.85 32.88Q298.03 32.88 297.60 32.38Q297.17 31.87 297.17 30.91L297.17 30.91Q297.17 30.60 297.22 30.23Q297.26 29.86 297.34 29.47L297.34 29.47L297.10 29.35Q296.23 31.03 294.92 31.96Q293.62 32.88 292.08 32.88ZM307.73 32.88L307.73 32.88Q307.01 32.88 306.62 32.41Q306.24 31.94 306.24 30.98L306.24 30.98Q306.24 30.55 306.35 29.59Q306.46 28.63 306.65 27.31Q306.84 25.99 307.08 24.47Q307.32 22.94 307.57 21.40Q307.82 19.85 308.08 18.43Q308.33 17.02 308.52 15.91L308.52 15.91L307.46 14.71Q308.04 14.23 308.82 13.96Q309.60 13.68 310.22 13.68L310.22 13.68Q310.90 13.68 311.18 13.98Q311.47 14.28 311.47 15L311.47 15Q311.47 15.34 311.29 16.26Q311.11 17.18 310.84 18.50Q310.56 19.82 310.26 21.38Q309.96 22.94 309.68 24.60Q309.41 26.26 309.23 27.83Q309.05 29.40 309.05 30.74L309.05 30.74Q309.05 31.18 309.17 31.58Q309.29 31.99 309.53 32.21L309.53 32.21Q309.19 32.52 308.74 32.70Q308.28 32.88 307.73 32.88Z"/></svg>