<svg xmlns="http://www.w3.org/2000/svg" xmlns:xlink="http://www.w3.org/1999/xlink" width="100.80000000000001" height="31.248"><path fill="black" d="M5.11 23.81L1.58 23.81L1.58 7.01L5.11 7.01Q9.24 7.01 11.22 9.26Q13.20 11.52 13.20 15.41L13.20 15.41Q13.20 19.30 11.22 21.55Q9.24 23.81 5.11 23.81L5.11 23.81ZM3.60 8.86L3.60 21.96L5.06 21.96Q7.27 21.96 8.60 21.14Q9.94 20.33 10.54 18.86Q11.14 17.40 11.14 15.41L11.14 15.41Q11.14 13.42 10.54 11.95Q9.94 10.49 8.60 9.67Q7.27 8.86 5.06 8.86L5.06 8.86L3.60 8.86ZM17.57 23.81L15.60 23.81L15.60 7.01L17.76 7.01L21.60 15L25.44 7.01L27.60 7.01L27.60 23.81L25.63 23.81L25.63 10.90L22.37 17.69L20.83 17.69L17.57 10.92L17.57 23.81ZM46.37 23.81L44.40 23.81L44.40 7.01L46.56 7.01L50.40 15L54.24 7.01L56.40 7.01L56.40 23.81L54.43 23.81L54.43 10.90L51.17 17.69L49.63 17.69L46.37 10.92L46.37 23.81ZM64.80 24.10L64.80 24.10Q63.12 24.10 61.82 23.33Q60.53 22.56 59.78 21.16Q59.04 19.75 59.04 17.86L59.04 17.86Q59.04 15.96 59.78 14.56Q60.53 13.15 61.82 12.38Q63.12 11.62 64.80 11.62L64.80 11.62Q66.48 11.62 67.78 12.38Q69.07 13.15 69.82 14.56Q70.56 15.96 70.56 17.86L70.56 17.86Q70.56 19.75 69.82 21.16Q69.07 22.56 67.78 23.33Q66.48 24.10 64.80 24.10ZM64.80 22.18L64.80 22.18Q65.83 22.18 66.67 21.72Q67.51 21.26 68.00 20.30Q68.50 19.34 68.50 17.86L68.50 17.86Q68.50 16.37 68.00 15.41Q67.51 14.45 66.67 13.99Q65.83 13.54 64.80 13.54L64.80 13.54Q63.79 13.54 62.95 13.99Q62.11 14.45 61.61 15.41Q61.10 16.37 61.10 17.86L61.10 17.86Q61.10 20.09 62.18 21.13Q63.26 22.18 64.80 22.18ZM76.13 23.81L74.11 23.81L74.11 11.90L75.79 11.90L76.01 13.70L76.13 13.70Q76.61 12.84 77.64 12.23Q78.67 11.62 80.02 11.62L80.02 11.62Q82.20 11.62 83.29 12.91Q84.38 14.21 84.38 16.66L84.38 16.66L84.38 23.81L82.37 23.81L82.37 16.90Q82.37 15.31 81.67 14.41Q80.98 13.51 79.51 13.51L79.51 13.51Q78.10 13.51 77.11 14.48Q76.13 15.46 76.13 17.28L76.13 17.28L76.13 23.81ZM93.60 24.10L93.60 24.10Q91.92 24.10 90.62 23.33Q89.33 22.56 88.58 21.16Q87.84 19.75 87.84 17.86L87.84 17.86Q87.84 15.96 88.58 14.56Q89.33 13.15 90.62 12.38Q91.92 11.62 93.60 11.62L93.60 11.62Q95.28 11.62 96.58 12.38Q97.87 13.15 98.62 14.56Q99.36 15.96 99.36 17.86L99.36 17.86Q99.36 19.75 98.62 21.16Q97.87 22.56 96.58 23.33Q95.28 24.10 93.60 24.10ZM93.60 22.18L93.60 22.18Q94.63 22.18 95.47 21.72Q96.31 21.26 96.80 20.30Q97.30 19.34 97.30 17.86L97.30 17.86Q97.30 16.37 96.80 15.41Q96.31 14.45 95.47 13.99Q94.63 13.54 93.60 13.54L93.60 13.54Q92.59 13.54 91.75 13.99Q90.91 14.45 90.41 15.41Q89.90 16.37 89.90 17.86L89.90 17.86Q89.90 20.09 90.98 21.13Q92.06 22.18 93.60 22.18Z"/></svg>