<svg xmlns="http://www.w3.org/2000/svg" xmlns:xlink="http://www.w3.org/1999/xlink" width="296.625" height="44.47265625"><path fill="black" d="M10.07 33.41L10.07 33.41Q8.53 33.41 7.24 33.06Q5.95 32.72 4.90 32.10Q3.86 31.48 3.06 30.62Q2.26 29.77 1.72 28.75Q1.18 27.73 0.91 26.58Q0.63 25.44 0.63 24.23L0.63 24.23Q0.63 22.85 0.87 21.57Q1.10 20.29 1.62 19.16Q2.13 18.04 2.95 17.11Q3.77 16.18 4.95 15.52Q6.12 14.86 7.66 14.50Q9.20 14.13 11.17 14.13L11.17 14.13Q12.47 14.13 13.64 14.48Q14.81 14.84 15.70 15.49Q16.58 16.14 17.10 17.07Q17.63 18 17.63 19.15L17.63 19.15Q17.63 19.62 17.48 19.99Q17.33 20.37 17.07 20.63Q16.80 20.88 16.45 21.02Q16.09 21.16 15.68 21.16L15.68 21.16Q15.32 21.16 14.95 21.05Q14.59 20.93 14.26 20.65Q13.93 20.38 13.67 19.94Q13.41 19.50 13.25 18.86L13.25 18.86Q13.04 17.94 12.54 17.47Q12.04 16.99 11.46 16.99L11.46 16.99Q11.03 16.99 10.60 17.26Q10.17 17.53 9.84 18.09Q9.50 18.64 9.29 19.50Q9.08 20.36 9.08 21.53L9.08 21.53Q9.08 23.07 9.26 24.22Q9.43 25.36 9.74 26.17Q10.05 26.98 10.47 27.49Q10.89 28.01 11.37 28.30Q11.85 28.59 12.36 28.71Q12.88 28.82 13.39 28.82L13.39 28.82Q13.92 28.82 14.43 28.69Q14.93 28.57 15.35 28.39Q15.76 28.21 16.06 28.00Q16.36 27.80 16.50 27.62L16.50 27.62Q16.68 27.39 16.88 27.28Q17.09 27.16 17.26 27.16L17.26 27.16Q17.59 27.16 17.82 27.50Q18.06 27.84 18.06 28.44L18.06 28.44Q18.06 29.38 17.48 30.27Q16.90 31.16 15.84 31.86Q14.79 32.55 13.32 32.98Q11.85 33.41 10.07 33.41ZM27.23 33.41L27.23 33.41Q25.84 33.41 24.67 33.08Q23.51 32.75 22.58 32.19Q21.64 31.62 20.94 30.84Q20.24 30.07 19.77 29.17Q19.30 28.28 19.07 27.30Q18.83 26.33 18.83 25.36L18.83 25.36Q18.83 24.36 19.08 23.40Q19.34 22.43 19.85 21.56Q20.36 20.70 21.12 19.97Q21.88 19.24 22.90 18.71Q23.93 18.19 25.21 17.89Q26.50 17.59 28.04 17.59L28.04 17.59Q29.40 17.59 30.53 17.89Q31.66 18.20 32.58 18.73Q33.49 19.27 34.18 19.99Q34.86 20.72 35.32 21.57Q35.78 22.43 36.01 23.38Q36.23 24.33 36.23 25.29L36.23 25.29Q36.23 26.29 35.99 27.28Q35.74 28.28 35.24 29.18Q34.75 30.08 34.00 30.86Q33.25 31.63 32.24 32.20Q31.24 32.77 29.99 33.09Q28.73 33.41 27.23 33.41ZM27.76 30.41L27.76 30.41Q28.15 30.41 28.41 30.18Q28.68 29.95 28.84 29.52Q29.00 29.09 29.07 28.47Q29.14 27.86 29.14 27.09L29.14 27.09Q29.14 26.43 29.13 25.68Q29.12 24.94 29.07 24.22Q29.03 23.50 28.92 22.84Q28.82 22.18 28.62 21.68Q28.43 21.18 28.14 20.88Q27.84 20.59 27.42 20.59L27.42 20.59Q27.01 20.59 26.72 20.82Q26.44 21.05 26.25 21.46Q26.06 21.87 25.97 22.44Q25.89 23.02 25.89 23.71L25.89 23.71Q25.89 24.35 25.91 25.10Q25.93 25.85 26.00 26.60Q26.07 27.34 26.21 28.03Q26.34 28.72 26.55 29.25Q26.75 29.78 27.05 30.09Q27.35 30.41 27.76 30.41ZM45.88 22.34L45.86 28.61Q45.86 29.09 45.98 29.36Q46.11 29.63 46.31 29.76Q46.50 29.89 46.72 29.95Q46.95 30 47.14 30.06Q47.33 30.12 47.46 30.23Q47.59 30.34 47.59 30.60L47.59 30.60Q47.59 31.93 46.21 32.53Q44.82 33.12 42.21 33.12L42.21 33.12Q40.95 33.12 39.97 32.98Q39 32.84 38.33 32.53Q37.66 32.21 37.32 31.74Q36.97 31.27 36.97 30.60L36.97 30.60Q36.97 30.34 37.10 30.23Q37.23 30.12 37.42 30.06Q37.61 30 37.83 29.95Q38.05 29.91 38.24 29.77Q38.43 29.64 38.55 29.38Q38.68 29.13 38.68 28.65L38.68 28.65L38.68 22.39Q38.68 21.93 38.55 21.67Q38.43 21.41 38.24 21.28Q38.05 21.14 37.83 21.09Q37.61 21.05 37.42 20.99Q37.23 20.93 37.10 20.82Q36.97 20.71 36.97 20.45L36.97 20.45Q36.97 19.78 37.32 19.31Q37.66 18.83 38.33 18.52Q39 18.21 39.97 18.07Q40.95 17.93 42.21 17.93L42.21 17.93Q43.37 17.93 44.07 18.16Q44.77 18.39 45.16 18.83L45.16 18.83Q45.49 18.62 45.84 18.43Q46.20 18.23 46.59 18.09Q46.99 17.94 47.46 17.86Q47.93 17.78 48.49 17.78L48.49 17.78Q49.20 17.78 49.85 17.92Q50.50 18.07 51 18.40Q51.50 18.74 51.80 19.27Q52.10 19.80 52.10 20.59L52.10 20.59Q52.10 21.11 51.93 21.60Q51.75 22.09 51.40 22.47Q51.06 22.85 50.54 23.09Q50.02 23.32 49.34 23.32L49.34 23.32Q48.66 23.32 48.27 23.12Q47.88 22.92 47.67 22.63Q47.46 22.34 47.36 21.99Q47.26 21.64 47.15 21.35Q47.04 21.06 46.86 20.86Q46.68 20.66 46.31 20.66L46.31 20.66Q45.95 20.66 45.83 20.75Q45.71 20.84 45.71 21L45.71 21Q45.71 21.21 45.80 21.54Q45.88 21.87 45.88 22.34L45.88 22.34ZM61.73 13.75L61.71 19.10Q62.04 18.83 62.48 18.56Q62.92 18.29 63.49 18.08Q64.07 17.86 64.79 17.72Q65.52 17.59 66.42 17.59L66.42 17.59Q67.61 17.59 68.51 17.93Q69.42 18.27 70.10 18.85Q70.77 19.43 71.23 20.21Q71.68 21 71.96 21.89Q72.23 22.78 72.35 23.73Q72.47 24.68 72.47 25.61L72.47 25.61Q72.47 26.59 72.31 27.55Q72.15 28.51 71.83 29.38Q71.51 30.25 71.00 30.98Q70.50 31.72 69.81 32.26Q69.12 32.80 68.23 33.11Q67.35 33.41 66.25 33.41L66.25 33.41Q65.23 33.41 64.44 33.24Q63.64 33.07 63.04 32.81Q62.44 32.55 62.01 32.24Q61.58 31.93 61.30 31.65L61.30 31.65Q61.14 31.99 60.88 32.27Q60.62 32.54 60.23 32.73Q59.85 32.92 59.30 33.02Q58.76 33.12 58.04 33.12L58.04 33.12Q56.78 33.12 55.80 32.98Q54.83 32.84 54.16 32.53Q53.50 32.21 53.15 31.74Q52.80 31.27 52.80 30.60L52.80 30.60Q52.80 30.34 52.93 30.23Q53.06 30.12 53.25 30.06Q53.44 30 53.66 29.95Q53.88 29.91 54.07 29.77Q54.26 29.64 54.39 29.38Q54.52 29.13 54.52 28.65L54.52 28.65L54.52 15.48Q54.52 15 54.39 14.75Q54.26 14.50 54.07 14.36Q53.88 14.23 53.66 14.18Q53.44 14.13 53.25 14.07Q53.06 14.02 52.93 13.90Q52.80 13.79 52.80 13.54L52.80 13.54Q52.80 12.87 53.15 12.39Q53.50 11.92 54.16 11.61Q54.83 11.30 55.80 11.16Q56.78 11.02 58.04 11.02L58.04 11.02Q59.31 11.02 60.04 11.14Q60.77 11.27 61.15 11.58Q61.52 11.89 61.63 12.42Q61.73 12.95 61.73 13.75L61.73 13.75ZM63.11 20.59L63.11 20.59Q62.70 20.59 62.34 20.73Q61.98 20.87 61.69 21.07L61.69 21.07L61.69 28.61Q61.69 28.95 61.69 29.27Q61.69 29.60 61.66 29.91L61.66 29.91Q61.99 30.11 62.40 30.27Q62.81 30.43 63.32 30.43L63.32 30.43Q63.97 30.43 64.33 30.21Q64.69 29.98 64.85 29.43Q65.02 28.88 65.04 27.96Q65.07 27.04 65.07 25.65L65.07 25.65Q65.07 24.20 64.97 23.22Q64.86 22.24 64.63 21.66Q64.39 21.08 64.02 20.84Q63.64 20.59 63.11 20.59ZM82.48 20.59L82.48 20.59Q82.10 20.59 81.77 20.76Q81.45 20.93 81.21 21.28Q80.96 21.63 80.83 22.18Q80.70 22.72 80.70 23.47L80.70 23.47L84.43 23.47Q84.43 22.65 84.30 22.10Q84.18 21.54 83.93 21.21Q83.68 20.87 83.31 20.73Q82.95 20.59 82.48 20.59ZM81.61 17.59L81.61 17.59Q83.18 17.59 84.44 18.06Q85.70 18.53 86.58 19.35Q87.47 20.17 87.94 21.28Q88.42 22.38 88.42 23.66L88.42 23.66Q88.42 24.19 88.27 24.48Q88.13 24.77 87.86 24.91Q87.59 25.05 87.19 25.09Q86.79 25.13 86.29 25.13L86.29 25.13L80.65 25.13Q80.65 26.41 80.91 27.22Q81.18 28.02 81.64 28.46Q82.11 28.91 82.77 29.07Q83.43 29.23 84.22 29.23L84.22 29.23Q84.64 29.23 85.10 29.14Q85.55 29.06 85.96 28.93Q86.38 28.80 86.73 28.66Q87.08 28.52 87.32 28.39L87.32 28.39Q87.50 28.29 87.68 28.29L87.68 28.29Q87.95 28.29 88.10 28.52Q88.25 28.75 88.25 29.03L88.25 29.03Q88.25 29.12 88.24 29.20Q88.23 29.29 88.20 29.37L88.20 29.37Q87.86 30.23 87.27 30.97Q86.68 31.71 85.85 32.26Q85.01 32.80 83.91 33.11Q82.80 33.41 81.43 33.41L81.43 33.41Q80.12 33.41 79.04 33.10Q77.95 32.79 77.08 32.23Q76.21 31.68 75.55 30.93Q74.89 30.18 74.46 29.29Q74.03 28.41 73.81 27.44Q73.59 26.47 73.59 25.49L73.59 25.49Q73.59 24.49 73.82 23.51Q74.04 22.54 74.48 21.66Q74.93 20.78 75.60 20.03Q76.27 19.29 77.16 18.74Q78.05 18.20 79.16 17.89Q80.27 17.59 81.61 17.59ZM98.31 22.39L98.29 28.61Q98.29 29.09 98.41 29.36Q98.54 29.63 98.74 29.76Q98.93 29.89 99.15 29.95Q99.38 30 99.57 30.06Q99.76 30.12 99.89 30.23Q100.02 30.34 100.02 30.60L100.02 30.60Q100.02 31.93 98.64 32.53Q97.25 33.12 94.64 33.12L94.64 33.12Q93.38 33.12 92.40 32.98Q91.43 32.84 90.76 32.53Q90.09 32.21 89.75 31.74Q89.40 31.27 89.40 30.60L89.40 30.60Q89.40 30.34 89.53 30.23Q89.66 30.12 89.85 30.06Q90.04 30 90.26 29.95Q90.48 29.91 90.67 29.77Q90.86 29.64 90.98 29.38Q91.11 29.13 91.11 28.65L91.11 28.65L91.11 22.39Q91.11 21.93 90.98 21.67Q90.86 21.41 90.67 21.28Q90.48 21.14 90.26 21.09Q90.04 21.05 89.85 20.99Q89.66 20.93 89.53 20.82Q89.40 20.71 89.40 20.45L89.40 20.45Q89.40 19.78 89.75 19.31Q90.09 18.83 90.76 18.52Q91.43 18.21 92.40 18.07Q93.38 17.93 94.64 17.93L94.64 17.93Q95.79 17.93 96.47 18.12Q97.15 18.32 97.52 18.55L97.52 18.55Q97.96 18.83 98.12 19.17L98.12 19.17Q98.73 18.74 99.57 18.39L99.57 18.39Q100.30 18.08 101.35 17.84Q102.40 17.59 103.80 17.59L103.80 17.59Q105.09 17.59 106.03 17.91Q106.96 18.23 107.61 18.78Q108.26 19.32 108.66 20.04Q109.05 20.77 109.27 21.55Q109.49 22.34 109.56 23.14Q109.64 23.94 109.64 24.67L109.64 24.67L109.64 28.55Q109.64 29.04 109.77 29.31Q109.90 29.59 110.10 29.74Q110.30 29.88 110.53 29.94Q110.75 29.99 110.95 30.05Q111.15 30.12 111.28 30.23Q111.41 30.34 111.41 30.60L111.41 30.60Q111.41 31.93 110.03 32.53Q108.66 33.12 106.04 33.12L106.04 33.12Q104.78 33.12 103.80 32.98Q102.83 32.84 102.16 32.53Q101.50 32.21 101.15 31.74Q100.80 31.27 100.80 30.60L100.80 30.60Q100.80 30.34 100.93 30.23Q101.06 30.12 101.26 30.06Q101.46 30 101.68 29.95Q101.91 29.91 102.11 29.77Q102.30 29.64 102.43 29.38Q102.56 29.13 102.56 28.65L102.56 28.65L102.56 23.65Q102.56 22.92 102.45 22.35Q102.34 21.79 102.08 21.39Q101.81 21 101.38 20.79Q100.95 20.59 100.30 20.59L100.30 20.59Q99.89 20.59 99.53 20.72Q99.16 20.86 98.89 21.10Q98.63 21.34 98.47 21.67Q98.31 22.01 98.31 22.39L98.31 22.39ZM126.29 18.16L125.84 18.19Q124.16 18.19 123.05 18.32Q121.95 18.45 121.24 18.63Q120.54 18.82 120.17 19.04Q119.80 19.27 119.60 19.45Q119.40 19.64 119.30 19.77Q119.19 19.90 119.03 19.90L119.03 19.90Q118.43 19.90 118.03 19.51Q117.63 19.13 117.63 18.48L117.63 18.48Q117.63 18.15 117.68 17.72Q117.73 17.30 117.85 16.85Q117.97 16.41 118.18 15.98Q118.38 15.55 118.70 15.22Q119.02 14.88 119.45 14.68Q119.88 14.47 120.47 14.47L120.47 14.47L129.32 14.47Q130.88 14.47 131.57 14.91Q132.27 15.34 132.27 16.36L132.27 16.36Q132.27 16.65 132.23 16.95Q132.19 17.25 132.10 17.60Q132.01 17.95 131.87 18.39Q131.72 18.83 131.51 19.39L131.51 19.39L126.18 33.39Q125.99 33.88 125.85 34.27Q125.72 34.66 125.48 34.93Q125.25 35.20 124.84 35.35Q124.43 35.50 123.68 35.50L123.68 35.50Q123.01 35.50 122.33 35.29Q121.64 35.07 121.08 34.72Q120.53 34.37 120.18 33.90Q119.82 33.42 119.82 32.89L119.82 32.89Q119.82 32.59 119.96 32.27L119.96 32.27L126.29 18.16ZM151.10 23.16L151.10 23.16Q151.10 24.88 150.75 26.31Q150.40 27.74 149.77 28.88Q149.14 30.01 148.28 30.87Q147.41 31.72 146.37 32.29Q145.34 32.85 144.18 33.13Q143.02 33.41 141.81 33.41L141.81 33.41Q140.65 33.41 139.55 33.15Q138.45 32.89 137.48 32.38Q136.51 31.86 135.71 31.09Q134.91 30.32 134.33 29.30Q133.75 28.28 133.42 27Q133.10 25.72 133.10 24.19L133.10 24.19Q133.10 22.51 133.45 21.12Q133.79 19.72 134.42 18.60Q135.05 17.48 135.91 16.65Q136.77 15.82 137.79 15.26Q138.82 14.71 139.97 14.43Q141.13 14.16 142.34 14.16L142.34 14.16Q143.50 14.16 144.60 14.41Q145.71 14.66 146.68 15.17Q147.66 15.68 148.47 16.44Q149.29 17.19 149.87 18.19Q150.45 19.18 150.77 20.43Q151.10 21.68 151.10 23.16ZM140.18 22.44L140.18 22.44Q140.18 24.29 140.38 25.78Q140.59 27.26 140.92 28.29Q141.26 29.33 141.67 29.88Q142.08 30.43 142.49 30.43L142.49 30.43Q142.78 30.43 143.06 30.10Q143.33 29.77 143.54 29.07Q143.75 28.37 143.88 27.29Q144 26.21 144 24.71L144 24.71Q144 22.96 143.79 21.54Q143.58 20.13 143.25 19.15Q142.92 18.16 142.51 17.64Q142.09 17.11 141.69 17.11L141.69 17.11Q141.39 17.11 141.11 17.42Q140.84 17.73 140.63 18.39Q140.43 19.04 140.30 20.05Q140.18 21.06 140.18 22.44ZM170.68 23.16L170.68 23.16Q170.68 24.88 170.33 26.31Q169.98 27.74 169.35 28.88Q168.73 30.01 167.86 30.87Q166.99 31.72 165.96 32.29Q164.92 32.85 163.76 33.13Q162.60 33.41 161.39 33.41L161.39 33.41Q160.23 33.41 159.13 33.15Q158.03 32.89 157.06 32.38Q156.09 31.86 155.29 31.09Q154.49 30.32 153.91 29.30Q153.33 28.28 153.01 27Q152.68 25.72 152.68 24.19L152.68 24.19Q152.68 22.51 153.03 21.12Q153.38 19.72 154.00 18.60Q154.63 17.48 155.49 16.65Q156.35 15.82 157.38 15.26Q158.40 14.71 159.56 14.43Q160.71 14.16 161.92 14.16L161.92 14.16Q163.08 14.16 164.19 14.41Q165.29 14.66 166.27 15.17Q167.24 15.68 168.05 16.44Q168.87 17.19 169.45 18.19Q170.03 19.18 170.36 20.43Q170.68 21.68 170.68 23.16ZM159.76 22.44L159.76 22.44Q159.76 24.29 159.97 25.78Q160.17 27.26 160.51 28.29Q160.84 29.33 161.25 29.88Q161.66 30.43 162.07 30.43L162.07 30.43Q162.36 30.43 162.64 30.10Q162.91 29.77 163.13 29.07Q163.34 28.37 163.46 27.29Q163.58 26.21 163.58 24.71L163.58 24.71Q163.58 22.96 163.37 21.54Q163.16 20.13 162.83 19.15Q162.50 18.16 162.09 17.64Q161.67 17.11 161.27 17.11L161.27 17.11Q160.97 17.11 160.69 17.42Q160.42 17.73 160.21 18.39Q160.01 19.04 159.88 20.05Q159.76 21.06 159.76 22.44ZM186.98 22.39L186.96 28.61Q186.96 29.09 187.09 29.36Q187.22 29.63 187.41 29.76Q187.61 29.89 187.83 29.95Q188.05 30 188.24 30.06Q188.44 30.12 188.57 30.23Q188.70 30.34 188.70 30.60L188.70 30.60Q188.70 31.93 187.31 32.53Q185.93 33.12 183.32 33.12L183.32 33.12Q182.05 33.12 181.08 32.98Q180.11 32.84 179.44 32.53Q178.77 32.21 178.42 31.74Q178.08 31.27 178.08 30.60L178.08 30.60Q178.08 30.34 178.21 30.23Q178.34 30.12 178.52 30.06Q178.71 30 178.93 29.95Q179.16 29.91 179.34 29.77Q179.53 29.64 179.66 29.38Q179.79 29.13 179.79 28.65L179.79 28.65L179.79 22.39Q179.79 21.93 179.66 21.67Q179.53 21.41 179.34 21.28Q179.16 21.14 178.93 21.09Q178.71 21.05 178.52 20.99Q178.34 20.93 178.21 20.82Q178.08 20.71 178.08 20.45L178.08 20.45Q178.08 19.78 178.42 19.31Q178.77 18.83 179.44 18.52Q180.11 18.21 181.08 18.07Q182.05 17.93 183.32 17.93L183.32 17.93Q184.46 17.93 185.14 18.12Q185.82 18.32 186.20 18.55L186.20 18.55Q186.63 18.83 186.80 19.17L186.80 19.17Q187.41 18.74 188.25 18.39L188.25 18.39Q188.98 18.08 190.03 17.84Q191.07 17.59 192.48 17.59L192.48 17.59Q193.77 17.59 194.70 17.91Q195.63 18.23 196.28 18.78Q196.93 19.32 197.33 20.04Q197.73 20.77 197.95 21.55Q198.16 22.34 198.24 23.14Q198.32 23.94 198.32 24.67L198.32 24.67L198.32 28.55Q198.32 29.04 198.45 29.31Q198.57 29.59 198.77 29.74Q198.97 29.88 199.20 29.94Q199.43 29.99 199.63 30.05Q199.83 30.12 199.96 30.23Q200.09 30.34 200.09 30.60L200.09 30.60Q200.09 31.93 198.71 32.53Q197.33 33.12 194.72 33.12L194.72 33.12Q193.45 33.12 192.48 32.98Q191.51 32.84 190.84 32.53Q190.17 32.21 189.83 31.74Q189.48 31.27 189.48 30.60L189.48 30.60Q189.48 30.34 189.61 30.23Q189.74 30.12 189.94 30.06Q190.14 30 190.36 29.95Q190.58 29.91 190.78 29.77Q190.98 29.64 191.11 29.38Q191.24 29.13 191.24 28.65L191.24 28.65L191.24 23.65Q191.24 22.92 191.13 22.35Q191.02 21.79 190.75 21.39Q190.49 21 190.05 20.79Q189.62 20.59 188.98 20.59L188.98 20.59Q188.57 20.59 188.20 20.72Q187.84 20.86 187.57 21.10Q187.30 21.34 187.14 21.67Q186.98 22.01 186.98 22.39L186.98 22.39ZM208.96 33.41L208.96 33.41Q207.56 33.41 206.40 33.08Q205.23 32.75 204.30 32.19Q203.37 31.62 202.66 30.84Q201.96 30.07 201.49 29.17Q201.02 28.28 200.79 27.30Q200.55 26.33 200.55 25.36L200.55 25.36Q200.55 24.36 200.81 23.40Q201.06 22.43 201.57 21.56Q202.08 20.70 202.84 19.97Q203.60 19.24 204.63 18.71Q205.65 18.19 206.94 17.89Q208.22 17.59 209.77 17.59L209.77 17.59Q211.13 17.59 212.26 17.89Q213.39 18.20 214.30 18.73Q215.21 19.27 215.90 19.99Q216.59 20.72 217.04 21.57Q217.50 22.43 217.73 23.38Q217.96 24.33 217.96 25.29L217.96 25.29Q217.96 26.29 217.71 27.28Q217.46 28.28 216.97 29.18Q216.47 30.08 215.72 30.86Q214.97 31.63 213.97 32.20Q212.96 32.77 211.71 33.09Q210.46 33.41 208.96 33.41ZM209.48 30.41L209.48 30.41Q209.87 30.41 210.13 30.18Q210.40 29.95 210.56 29.52Q210.73 29.09 210.80 28.47Q210.87 27.86 210.87 27.09L210.87 27.09Q210.87 26.43 210.86 25.68Q210.84 24.94 210.80 24.22Q210.75 23.50 210.64 22.84Q210.54 22.18 210.35 21.68Q210.15 21.18 209.86 20.88Q209.57 20.59 209.14 20.59L209.14 20.59Q208.73 20.59 208.45 20.82Q208.16 21.05 207.97 21.46Q207.79 21.87 207.70 22.44Q207.61 23.02 207.61 23.71L207.61 23.71Q207.61 24.35 207.63 25.10Q207.66 25.85 207.73 26.60Q207.80 27.34 207.93 28.03Q208.07 28.72 208.27 29.25Q208.48 29.78 208.78 30.09Q209.07 30.41 209.48 30.41ZM227.60 22.34L227.58 28.61Q227.58 29.09 227.71 29.36Q227.84 29.63 228.03 29.76Q228.22 29.89 228.45 29.95Q228.67 30 228.86 30.06Q229.05 30.12 229.18 30.23Q229.31 30.34 229.31 30.60L229.31 30.60Q229.31 31.93 227.93 32.53Q226.55 33.12 223.93 33.12L223.93 33.12Q222.67 33.12 221.70 32.98Q220.72 32.84 220.05 32.53Q219.39 32.21 219.04 31.74Q218.70 31.27 218.70 30.60L218.70 30.60Q218.70 30.34 218.82 30.23Q218.95 30.12 219.14 30.06Q219.33 30 219.55 29.95Q219.77 29.91 219.96 29.77Q220.15 29.64 220.28 29.38Q220.41 29.13 220.41 28.65L220.41 28.65L220.41 22.39Q220.41 21.93 220.28 21.67Q220.15 21.41 219.96 21.28Q219.77 21.14 219.55 21.09Q219.33 21.05 219.14 20.99Q218.95 20.93 218.82 20.82Q218.70 20.71 218.70 20.45L218.70 20.45Q218.70 19.78 219.04 19.31Q219.39 18.83 220.05 18.52Q220.72 18.21 221.70 18.07Q222.67 17.93 223.93 17.93L223.93 17.93Q225.09 17.93 225.79 18.16Q226.49 18.39 226.89 18.83L226.89 18.83Q227.21 18.62 227.57 18.43Q227.92 18.23 228.32 18.09Q228.71 17.94 229.18 17.86Q229.65 17.78 230.21 17.78L230.21 17.78Q230.92 17.78 231.57 17.92Q232.22 18.07 232.72 18.40Q233.23 18.74 233.53 19.27Q233.82 19.80 233.82 20.59L233.82 20.59Q233.82 21.11 233.65 21.60Q233.47 22.09 233.13 22.47Q232.78 22.85 232.26 23.09Q231.74 23.32 231.06 23.32L231.06 23.32Q230.38 23.32 229.99 23.12Q229.61 22.92 229.39 22.63Q229.18 22.34 229.08 21.99Q228.98 21.64 228.87 21.35Q228.76 21.06 228.58 20.86Q228.40 20.66 228.04 20.66L228.04 20.66Q227.67 20.66 227.55 20.75Q227.44 20.84 227.44 21L227.44 21Q227.44 21.21 227.52 21.54Q227.60 21.87 227.60 22.34L227.60 22.34ZM252.66 19.03L252.66 19.03Q252.86 18.90 253.18 18.66Q253.50 18.42 254.13 18.18Q254.77 17.94 255.81 17.77Q256.85 17.59 258.49 17.59L258.49 17.59Q259.72 17.59 260.64 17.88Q261.55 18.18 262.20 18.68Q262.85 19.18 263.27 19.87Q263.70 20.55 263.94 21.35Q264.19 22.14 264.28 22.99Q264.38 23.85 264.38 24.69L264.38 24.69L264.38 24.81Q264.36 26.20 264.36 26.96Q264.35 27.71 264.35 28.07Q264.35 28.42 264.35 28.48Q264.35 28.55 264.35 28.55L264.35 28.55Q264.35 29.04 264.48 29.31Q264.61 29.59 264.80 29.74Q265.00 29.88 265.22 29.94Q265.45 29.99 265.65 30.05Q265.84 30.12 265.97 30.23Q266.10 30.34 266.10 30.60L266.10 30.60Q266.10 31.27 265.76 31.74Q265.43 32.21 264.79 32.53Q264.14 32.84 263.20 32.98Q262.25 33.12 261.04 33.12L261.04 33.12Q259.85 33.12 258.93 32.98Q258.01 32.84 257.38 32.53Q256.75 32.21 256.42 31.74Q256.09 31.27 256.09 30.60L256.09 30.60Q256.09 30.34 256.18 30.23Q256.27 30.12 256.39 30.06Q256.52 30 256.68 29.95Q256.83 29.91 256.96 29.77Q257.09 29.64 257.17 29.38Q257.26 29.13 257.26 28.65L257.26 28.65L257.26 23.61Q257.26 22.90 257.17 22.34Q257.09 21.77 256.89 21.39Q256.69 21 256.35 20.79Q256.02 20.59 255.52 20.59L255.52 20.59Q254.74 20.59 254.40 21.08Q254.05 21.56 254.05 22.34L254.05 22.34L254.05 28.51Q254.05 29.02 254.14 29.30Q254.24 29.58 254.38 29.72Q254.53 29.87 254.70 29.93Q254.87 29.99 255.02 30.05Q255.16 30.12 255.26 30.23Q255.35 30.34 255.35 30.60L255.35 30.60Q255.35 31.27 255.09 31.74Q254.82 32.21 254.27 32.53Q253.71 32.84 252.84 32.98Q251.96 33.12 250.73 33.12L250.73 33.12Q249.55 33.12 248.63 32.98Q247.71 32.84 247.08 32.53Q246.45 32.21 246.12 31.74Q245.79 31.27 245.79 30.60L245.79 30.60Q245.79 30.34 245.88 30.23Q245.96 30.12 246.09 30.06Q246.22 30 246.38 29.95Q246.54 29.91 246.67 29.77Q246.80 29.64 246.88 29.38Q246.97 29.13 246.97 28.65L246.97 28.65L246.97 23.61Q246.97 22.18 246.63 21.40Q246.28 20.61 245.39 20.61L245.39 20.61Q245.04 20.61 244.72 20.74Q244.41 20.87 244.16 21.11Q243.91 21.35 243.77 21.68Q243.63 22.01 243.63 22.39L243.63 22.39L243.63 28.61Q243.63 29.09 243.73 29.36Q243.83 29.63 243.98 29.76Q244.14 29.89 244.32 29.95Q244.50 30 244.65 30.06Q244.80 30.12 244.90 30.23Q245.00 30.34 245.00 30.60L245.00 30.60Q245.00 31.93 243.67 32.53Q242.34 33.12 239.85 33.12L239.85 33.12Q238.64 33.12 237.69 32.98Q236.74 32.84 236.09 32.53Q235.44 32.21 235.10 31.74Q234.75 31.27 234.75 30.60L234.75 30.60Q234.75 30.34 234.88 30.23Q235.01 30.12 235.20 30.06Q235.38 30 235.61 29.95Q235.83 29.91 236.02 29.77Q236.20 29.64 236.33 29.38Q236.46 29.13 236.46 28.65L236.46 28.65L236.46 22.39Q236.46 21.93 236.33 21.67Q236.20 21.41 236.02 21.28Q235.83 21.14 235.61 21.09Q235.38 21.05 235.20 20.99Q235.01 20.93 234.88 20.82Q234.75 20.71 234.75 20.45L234.75 20.45Q234.75 19.78 235.09 19.31Q235.43 18.83 236.08 18.52Q236.73 18.21 237.67 18.07Q238.61 17.93 239.79 17.93L239.79 17.93Q240.33 17.93 240.76 17.98Q241.20 18.04 241.53 18.12Q241.86 18.21 242.11 18.32Q242.36 18.43 242.53 18.55L242.53 18.55Q242.94 18.83 243.11 19.17L243.11 19.17Q243.68 18.74 244.49 18.39L244.49 18.39Q245.18 18.08 246.18 17.84Q247.17 17.59 248.51 17.59L248.51 17.59Q249.89 17.59 250.96 17.98Q252.02 18.38 252.66 19.03ZM274.80 30.71L274.80 30.71Q275.19 30.71 275.43 30.59Q275.67 30.47 275.80 30.24Q275.93 30.01 275.97 29.68Q276.01 29.34 276.01 28.92L276.01 28.92Q276.01 28.56 276 28.00Q275.99 27.43 275.98 26.89L275.98 26.89Q275.95 26.26 275.94 25.58L275.94 25.58Q275.78 25.56 275.63 25.54Q275.48 25.52 275.34 25.52L275.34 25.52Q274.75 25.52 274.34 25.76Q273.94 26.00 273.69 26.43Q273.45 26.86 273.35 27.44Q273.25 28.02 273.25 28.70L273.25 28.70Q273.25 29.11 273.29 29.48Q273.34 29.85 273.50 30.12Q273.67 30.40 273.98 30.56Q274.29 30.71 274.80 30.71ZM280.45 33.12L280.45 33.12Q279.86 33.12 279.26 33.05Q278.67 32.99 278.14 32.79Q277.61 32.59 277.16 32.21Q276.71 31.84 276.40 31.22L276.40 31.22Q276.16 31.77 275.64 32.18Q275.12 32.59 274.46 32.87Q273.80 33.14 273.06 33.28Q272.33 33.41 271.66 33.41L271.66 33.41Q270.48 33.41 269.59 33.13Q268.70 32.85 268.09 32.33Q267.48 31.80 267.18 31.08Q266.87 30.35 266.87 29.45L266.87 29.45Q266.87 28.38 267.23 27.43Q267.59 26.47 268.45 25.76Q269.31 25.04 270.75 24.63Q272.19 24.21 274.36 24.21L274.36 24.21L275.96 24.21Q275.96 22.91 275.88 22.05Q275.79 21.20 275.60 20.70Q275.41 20.19 275.13 19.99Q274.85 19.79 274.45 19.79L274.45 19.79Q274.01 19.79 273.71 20.06Q273.41 20.33 273.23 20.84Q273.05 21.35 272.97 22.07Q272.89 22.79 272.89 23.71L272.89 23.71Q272.39 23.71 271.83 23.69Q271.28 23.67 270.73 23.60Q270.19 23.53 269.70 23.38Q269.21 23.24 268.84 22.99Q268.46 22.73 268.24 22.35Q268.02 21.96 268.02 21.41L268.02 21.41Q268.02 20.64 268.42 19.95Q268.83 19.25 269.67 18.73Q270.50 18.21 271.79 17.90Q273.08 17.59 274.86 17.59L274.86 17.59Q276.94 17.59 278.44 18.01Q279.94 18.43 280.90 19.28Q281.87 20.12 282.33 21.40Q282.80 22.69 282.80 24.41L282.80 24.41L282.80 28.56Q282.80 29.06 282.93 29.34Q283.07 29.63 283.26 29.77Q283.45 29.92 283.69 29.98Q283.92 30.04 284.12 30.10Q284.31 30.16 284.44 30.28Q284.58 30.39 284.58 30.64L284.58 30.64Q284.58 31.82 283.53 32.47Q282.48 33.12 280.45 33.12ZM294.22 13.75L294.22 28.61Q294.22 29.09 294.35 29.36Q294.48 29.63 294.67 29.76Q294.86 29.89 295.08 29.95Q295.31 30 295.50 30.06Q295.69 30.12 295.82 30.23Q295.95 30.34 295.95 30.60L295.95 30.60Q295.95 31.93 294.56 32.53Q293.18 33.12 290.57 33.12L290.57 33.12Q289.31 33.12 288.34 32.98Q287.37 32.84 286.70 32.53Q286.03 32.21 285.69 31.74Q285.34 31.27 285.34 30.60L285.34 30.60Q285.34 30.34 285.46 30.23Q285.59 30.12 285.78 30.06Q285.97 30 286.19 29.95Q286.41 29.91 286.60 29.77Q286.79 29.64 286.92 29.38Q287.04 29.13 287.04 28.65L287.04 28.65L287.04 15.48Q287.04 15 286.92 14.75Q286.79 14.50 286.60 14.36Q286.41 14.23 286.19 14.18Q285.97 14.13 285.78 14.07Q285.59 14.02 285.46 13.90Q285.34 13.79 285.34 13.54L285.34 13.54Q285.34 12.87 285.69 12.39Q286.03 11.92 286.70 11.61Q287.37 11.30 288.34 11.16Q289.31 11.02 290.57 11.02L290.57 11.02Q291.83 11.02 292.56 11.14Q293.29 11.27 293.65 11.58Q294.02 11.89 294.12 12.42Q294.22 12.95 294.22 13.75L294.22 13.75Z"/></svg>