<svg xmlns="http://www.w3.org/2000/svg" xmlns:xlink="http://www.w3.org/1999/xlink" width="202.75199999999995" height="24"><path fill="black" d="M7.88 1.56L13.20 14.90L12.79 15.26L16.68 2.56L15.01 2.02L15.16 1.56L19.80 1.56L19.66 2.02L17.71 2.59L13.04 17.88L12.55 17.88L6.52 2.72L6.96 2.99L2.78 16.64L4.45 17.18L4.31 17.64L-0.34 17.64L-0.19 17.18L1.75 16.61L5.98 2.76L4.08 2.02L4.21 1.56L7.88 1.56ZM23.34 7.98L23.34 7.98Q22.63 7.98 22.07 8.40Q21.50 8.82 21.08 9.52Q20.65 10.21 20.37 11.05Q20.09 11.88 19.94 12.72Q19.80 13.56 19.80 14.26L19.80 14.26Q19.80 15.49 20.29 16.01Q20.78 16.52 21.58 16.52L21.58 16.52Q22.12 16.52 22.59 16.33Q23.06 16.14 23.50 15.67Q23.94 15.19 24.36 14.33L24.36 14.33L25.03 14.33Q24.44 15.70 23.86 16.47Q23.28 17.24 22.60 17.56Q21.92 17.88 21.02 17.88L21.02 17.88Q20.12 17.88 19.46 17.53Q18.79 17.17 18.43 16.48Q18.06 15.78 18.06 14.76L18.06 14.76Q18.06 13.50 18.35 12.36Q18.65 11.22 19.18 10.28Q19.72 9.34 20.42 8.64Q21.12 7.94 21.95 7.56Q22.78 7.18 23.65 7.18L23.65 7.18Q24.49 7.18 25.02 7.47Q25.55 7.76 25.79 8.24Q26.04 8.71 26.04 9.25L26.04 9.25Q26.04 9.77 25.82 10.28Q25.60 10.79 25.25 11.08L25.25 11.08Q24.55 11.36 23.86 11.64Q23.16 11.92 22.46 12.17Q21.76 12.43 21.05 12.68Q20.35 12.92 19.64 13.15L19.64 13.15L19.68 12.29Q20.83 11.96 21.66 11.64Q22.49 11.32 23.03 11.00Q23.58 10.69 23.89 10.37Q24.20 10.06 24.34 9.74Q24.47 9.42 24.47 9.10L24.47 9.10Q24.47 8.76 24.34 8.51Q24.20 8.27 23.96 8.12Q23.71 7.98 23.34 7.98ZM33.60 12.25L34.98 7.42L36.54 7.42L34.38 14.96Q34.31 15.23 34.27 15.44Q34.24 15.65 34.24 15.82L34.24 15.82Q34.24 16.25 34.46 16.43Q34.69 16.61 35.12 16.61L35.12 16.61Q35.76 16.61 36.38 16.17Q37.00 15.73 37.54 15.04Q38.09 14.34 38.51 13.53Q38.94 12.72 39.18 11.96Q39.42 11.21 39.42 10.67L39.42 10.67Q39.42 10.26 39.23 9.91Q39.04 9.55 38.79 9.26Q38.54 8.96 38.35 8.75Q38.16 8.53 38.16 8.40L38.16 8.40Q38.16 7.78 38.57 7.48Q38.99 7.18 39.47 7.18L39.47 7.18Q39.90 7.18 40.20 7.37Q40.50 7.57 40.65 7.94Q40.80 8.32 40.80 8.87L40.80 8.87Q40.80 9.86 40.47 11.07Q40.14 12.28 39.55 13.48Q38.95 14.68 38.16 15.67Q37.37 16.67 36.44 17.27Q35.51 17.88 34.51 17.88L34.51 17.88Q33.70 17.88 33.25 17.51Q32.81 17.15 32.81 16.28L32.81 16.28Q32.81 15.98 32.86 15.62Q32.92 15.25 33.04 14.82L33.04 14.82L33.23 14.10L33.47 14.10Q33.06 15.12 32.57 15.84Q32.08 16.56 31.55 17.01Q31.03 17.46 30.52 17.67Q30 17.88 29.53 17.88L29.53 17.88Q28.74 17.88 28.26 17.42Q27.78 16.96 27.78 16.09L27.78 16.09Q27.78 15.49 28.03 14.74L28.03 14.74L30.11 8.69Q30.06 8.69 30.02 8.69Q29.98 8.69 29.93 8.69L29.93 8.69Q29.50 8.69 29.09 8.86Q28.68 9.02 28.27 9.45Q27.86 9.88 27.43 10.66L27.43 10.66L27 10.48Q27.38 9.53 27.82 8.89Q28.26 8.26 28.74 7.88Q29.22 7.51 29.72 7.35Q30.23 7.19 30.73 7.19L30.73 7.19Q30.97 7.19 31.21 7.22Q31.44 7.25 31.67 7.30Q31.91 7.34 32.12 7.42L32.12 7.42L29.56 14.96Q29.48 15.19 29.45 15.38Q29.41 15.58 29.41 15.74L29.41 15.74Q29.41 16.18 29.65 16.39Q29.89 16.61 30.32 16.61L30.32 16.61Q30.95 16.61 31.58 16.00Q32.21 15.40 32.74 14.41Q33.28 13.42 33.60 12.25L33.60 12.25ZM42.34 15.22L42.34 15.22Q42.50 15.22 42.66 15.41Q42.82 15.60 43.16 16.14L43.16 16.14Q43.51 16.68 43.84 16.88Q44.17 17.09 44.51 17.09L44.51 17.09Q44.99 17.09 45.37 16.91Q45.74 16.74 45.96 16.40Q46.18 16.06 46.18 15.56L46.18 15.56Q46.18 15.22 46.06 14.86Q45.95 14.50 45.65 14.05Q45.36 13.60 44.81 12.97L44.81 12.97Q44.27 12.35 43.96 11.86Q43.64 11.36 43.52 10.94Q43.39 10.52 43.39 10.13L43.39 10.13Q43.39 9.31 43.76 8.64Q44.14 7.97 44.87 7.57Q45.60 7.18 46.66 7.18L46.66 7.18Q47.46 7.18 47.96 7.39Q48.46 7.60 48.70 7.94Q48.94 8.29 48.94 8.71L48.94 8.71Q48.94 8.99 48.82 9.21Q48.70 9.43 48.48 9.56Q48.26 9.68 47.98 9.68L47.98 9.68Q47.86 9.68 47.69 9.55Q47.52 9.41 47.20 8.95L47.20 8.95Q46.87 8.50 46.53 8.27Q46.19 8.04 45.88 8.04L45.88 8.04Q45.28 8.04 44.94 8.38Q44.60 8.72 44.60 9.35L44.60 9.35Q44.60 9.61 44.74 9.95Q44.87 10.28 45.17 10.74Q45.48 11.20 46.00 11.83L46.00 11.83Q46.52 12.46 46.84 12.99Q47.15 13.52 47.29 13.97Q47.44 14.42 47.44 14.83L47.44 14.83Q47.44 15.70 46.97 16.39Q46.50 17.08 45.70 17.48Q44.89 17.88 43.87 17.88L43.87 17.88Q43.00 17.88 42.43 17.64Q41.86 17.40 41.58 17.02Q41.30 16.63 41.30 16.21L41.30 16.21Q41.30 15.94 41.44 15.71Q41.57 15.48 41.80 15.35Q42.04 15.22 42.34 15.22ZM50.08 17.64L52.79 8.69Q52.74 8.69 52.70 8.69Q52.66 8.69 52.61 8.69L52.61 8.69Q52.18 8.69 51.77 8.86Q51.36 9.02 50.95 9.45Q50.54 9.88 50.11 10.66L50.11 10.66L49.68 10.48Q50.17 9.20 50.75 8.49Q51.34 7.78 51.98 7.48Q52.63 7.19 53.28 7.19L53.28 7.19Q53.51 7.19 53.73 7.22Q53.95 7.25 54.17 7.30Q54.40 7.34 54.61 7.42L54.61 7.42L53.38 11.44L53.32 11.44Q54.06 9.97 54.76 9.03Q55.45 8.09 56.15 7.63Q56.84 7.18 57.56 7.18L57.56 7.18Q58.25 7.18 58.57 7.51Q58.88 7.84 58.88 8.35L58.88 8.35Q58.88 8.74 58.69 9.04Q58.50 9.34 58.19 9.50Q57.88 9.67 57.50 9.67L57.50 9.67Q57.41 9.67 57.30 9.58Q57.19 9.49 57.04 9.26L57.04 9.26Q56.88 9.02 56.74 8.90Q56.59 8.78 56.40 8.78L56.40 8.78Q56.10 8.78 55.72 9.07Q55.34 9.35 54.94 9.86Q54.53 10.37 54.12 11.07Q53.71 11.77 53.34 12.62Q52.97 13.46 52.68 14.41L52.68 14.41L51.70 17.64L50.08 17.64ZM63.89 7.98L63.89 7.98Q63.18 7.98 62.62 8.40Q62.05 8.82 61.63 9.52Q61.20 10.21 60.92 11.05Q60.64 11.88 60.49 12.72Q60.35 13.56 60.35 14.26L60.35 14.26Q60.35 15.49 60.84 16.01Q61.33 16.52 62.12 16.52L62.12 16.52Q62.66 16.52 63.14 16.33Q63.61 16.14 64.05 15.67Q64.49 15.19 64.91 14.33L64.91 14.33L65.58 14.33Q64.99 15.70 64.41 16.47Q63.83 17.24 63.15 17.56Q62.47 17.88 61.57 17.88L61.57 17.88Q60.67 17.88 60.01 17.53Q59.34 17.17 58.97 16.48Q58.61 15.78 58.61 14.76L58.61 14.76Q58.61 13.50 58.90 12.36Q59.20 11.22 59.73 10.28Q60.26 9.34 60.97 8.64Q61.67 7.94 62.50 7.56Q63.32 7.18 64.20 7.18L64.20 7.18Q65.04 7.18 65.57 7.47Q66.10 7.76 66.34 8.24Q66.59 8.71 66.59 9.25L66.59 9.25Q66.59 9.77 66.37 10.28Q66.14 10.79 65.80 11.08L65.80 11.08Q65.10 11.36 64.40 11.64Q63.71 11.92 63.01 12.17Q62.30 12.43 61.60 12.68Q60.90 12.92 60.19 13.15L60.19 13.15L60.23 12.29Q61.38 11.96 62.21 11.64Q63.04 11.32 63.58 11.00Q64.13 10.69 64.44 10.37Q64.75 10.06 64.88 9.74Q65.02 9.42 65.02 9.10L65.02 9.10Q65.02 8.76 64.88 8.51Q64.75 8.27 64.51 8.12Q64.26 7.98 63.89 7.98ZM72.68 17.10L72.68 17.10L73.93 13.24L74.24 13.24Q73.34 14.57 72.62 15.46Q71.90 16.36 71.31 16.88Q70.72 17.40 70.22 17.62Q69.72 17.84 69.25 17.84L69.25 17.84Q68.60 17.84 68.12 17.60Q67.64 17.36 67.38 16.84Q67.12 16.32 67.12 15.48L67.12 15.48Q67.12 14.58 67.46 13.49Q67.81 12.41 68.43 11.33Q69.05 10.26 69.88 9.36Q70.72 8.46 71.71 7.92Q72.70 7.38 73.76 7.38L73.76 7.38Q74.46 7.38 74.91 7.62Q75.36 7.86 75.73 8.35L75.73 8.35L75.25 9Q75.16 8.71 74.83 8.48Q74.51 8.24 73.99 8.24L73.99 8.24Q73.13 8.24 72.36 8.78Q71.59 9.32 70.96 10.19Q70.32 11.05 69.86 12.03Q69.40 13.01 69.14 13.90Q68.89 14.80 68.89 15.38L68.89 15.38Q68.89 15.90 69.18 16.15Q69.47 16.40 69.91 16.40L69.91 16.40Q70.31 16.40 70.92 16.06Q71.53 15.71 72.19 15.09Q72.85 14.47 73.42 13.63Q73.99 12.78 74.32 11.80L74.32 11.80L75.72 7.42L77.17 7.42L77.35 7.42L74.34 16.79L74.14 16.33Q74.53 16.39 75.04 16.24Q75.55 16.08 76.11 15.74Q76.67 15.40 77.20 14.92L77.20 14.92L77.53 15.30Q76.24 16.74 75.29 17.31Q74.35 17.88 73.55 17.88L73.55 17.88Q73.03 17.88 72.80 17.66Q72.56 17.45 72.68 17.10ZM86.94 8.22L86.46 8.88Q86.36 8.59 86.04 8.35Q85.72 8.11 85.20 8.11L85.20 8.11Q84.31 8.11 83.53 8.66Q82.74 9.20 82.09 10.08Q81.44 10.96 80.97 11.95Q80.50 12.94 80.24 13.84Q79.98 14.75 79.98 15.35L79.98 15.35Q79.98 15.88 80.27 16.14Q80.56 16.40 81 16.40L81 16.40Q81.35 16.40 81.84 16.16Q82.33 15.92 82.87 15.50Q83.41 15.07 83.93 14.50Q84.46 13.92 84.88 13.23Q85.30 12.54 85.52 11.80L85.52 11.80L88.42 2.42Q88.20 2.22 88.00 2.06Q87.79 1.90 87.55 1.76Q87.30 1.62 86.95 1.50L86.95 1.50L87.05 1.20L90.28 0.61L90.55 0.61L85.55 16.79L85.34 16.33Q85.74 16.39 86.25 16.24Q86.76 16.08 87.32 15.74Q87.88 15.40 88.40 14.92L88.40 14.92L88.74 15.30Q87.44 16.74 86.50 17.31Q85.56 17.88 84.76 17.88L84.76 17.88Q84.24 17.88 84.01 17.66Q83.77 17.45 83.89 17.10L83.89 17.10L85.14 13.24L85.45 13.24Q84.54 14.58 83.80 15.47Q83.06 16.37 82.46 16.88Q81.85 17.40 81.33 17.62Q80.81 17.84 80.34 17.84L80.34 17.84Q79.69 17.84 79.21 17.60Q78.73 17.36 78.47 16.83Q78.20 16.30 78.20 15.44L78.20 15.44Q78.20 14.53 78.56 13.43Q78.91 12.34 79.54 11.24Q80.17 10.15 81.02 9.25Q81.88 8.34 82.88 7.79Q83.88 7.24 84.97 7.24L84.97 7.24Q85.67 7.24 86.12 7.48Q86.57 7.73 86.94 8.22L86.94 8.22ZM95.05 7.98L95.05 7.98Q94.34 7.98 93.78 8.40Q93.22 8.82 92.79 9.52Q92.36 10.21 92.08 11.05Q91.80 11.88 91.66 12.72Q91.51 13.56 91.51 14.26L91.51 14.26Q91.51 15.49 92.00 16.01Q92.50 16.52 93.29 16.52L93.29 16.52Q93.83 16.52 94.30 16.33Q94.78 16.14 95.21 15.67Q95.65 15.19 96.07 14.33L96.07 14.33L96.74 14.33Q96.16 15.70 95.57 16.47Q94.99 17.24 94.31 17.56Q93.64 17.88 92.74 17.88L92.74 17.88Q91.84 17.88 91.17 17.53Q90.50 17.17 90.14 16.48Q89.77 15.78 89.77 14.76L89.77 14.76Q89.77 13.50 90.07 12.36Q90.36 11.22 90.89 10.28Q91.43 9.34 92.13 8.64Q92.83 7.94 93.66 7.56Q94.49 7.18 95.36 7.18L95.36 7.18Q96.20 7.18 96.73 7.47Q97.26 7.76 97.51 8.24Q97.75 8.71 97.75 9.25L97.75 9.25Q97.75 9.77 97.53 10.28Q97.31 10.79 96.96 11.08L96.96 11.08Q96.26 11.36 95.57 11.64Q94.87 11.92 94.17 12.17Q93.47 12.43 92.77 12.68Q92.06 12.92 91.36 13.15L91.36 13.15L91.39 12.29Q92.54 11.96 93.37 11.64Q94.20 11.32 94.75 11.00Q95.29 10.69 95.60 10.37Q95.92 10.06 96.05 9.74Q96.18 9.42 96.18 9.10L96.18 9.10Q96.18 8.76 96.05 8.51Q95.92 8.27 95.67 8.12Q95.42 7.98 95.05 7.98ZM99.06 17.64L101.77 8.69Q101.72 8.69 101.68 8.69Q101.64 8.69 101.59 8.69L101.59 8.69Q101.16 8.69 100.75 8.86Q100.34 9.02 99.94 9.45Q99.53 9.88 99.10 10.66L99.10 10.66L98.66 10.48Q99.16 9.20 99.74 8.49Q100.32 7.78 100.97 7.48Q101.62 7.19 102.26 7.19L102.26 7.19Q102.49 7.19 102.71 7.22Q102.94 7.25 103.16 7.30Q103.38 7.34 103.60 7.42L103.60 7.42L102.36 11.44L102.30 11.44Q103.04 9.97 103.74 9.03Q104.44 8.09 105.13 7.63Q105.83 7.18 106.55 7.18L106.55 7.18Q107.23 7.18 107.55 7.51Q107.87 7.84 107.87 8.35L107.87 8.35Q107.87 8.74 107.68 9.04Q107.48 9.34 107.17 9.50Q106.86 9.67 106.49 9.67L106.49 9.67Q106.39 9.67 106.28 9.58Q106.18 9.49 106.02 9.26L106.02 9.26Q105.86 9.02 105.72 8.90Q105.58 8.78 105.38 8.78L105.38 8.78Q105.08 8.78 104.71 9.07Q104.33 9.35 103.92 9.86Q103.51 10.37 103.10 11.07Q102.70 11.77 102.32 12.62Q101.95 13.46 101.66 14.41L101.66 14.41L100.68 17.64L99.06 17.64ZM118.55 16.61L122.66 3.14L123.66 2.76L114.25 11.62L114.12 11.21L123.61 11.21L125.83 10.87L124.69 12.70L112.38 12.70L112.50 12.32L123.96 1.32L124.96 1.32L120.26 16.64L122.18 17.18L122.04 17.64L116.10 17.64L116.24 17.18L118.55 16.61ZM128.78 13.33L128.78 13.33Q128.78 15.13 129.38 16.05Q129.98 16.97 131.20 16.97L131.20 16.97Q132.12 16.97 132.92 16.44Q133.73 15.91 134.41 15Q135.08 14.09 135.61 12.94Q136.14 11.80 136.51 10.55Q136.87 9.30 137.06 8.09Q137.26 6.88 137.26 5.86L137.26 5.86Q137.26 4.06 136.66 3.14Q136.06 2.22 134.84 2.22L134.84 2.22Q133.92 2.22 133.12 2.75Q132.31 3.28 131.63 4.19Q130.96 5.10 130.43 6.25Q129.90 7.39 129.53 8.64Q129.17 9.89 128.98 11.10Q128.78 12.31 128.78 13.33ZM134.92 1.32L134.92 1.32Q136.16 1.32 137.08 1.92Q138 2.52 138.51 3.71Q139.02 4.90 139.02 6.66L139.02 6.66Q139.02 8.17 138.64 9.75Q138.26 11.33 137.56 12.78Q136.86 14.23 135.89 15.38Q134.92 16.54 133.71 17.21Q132.50 17.88 131.12 17.88L131.12 17.88Q129.89 17.88 128.96 17.27Q128.04 16.67 127.53 15.48Q127.02 14.29 127.02 12.53L127.02 12.53Q127.02 11.02 127.40 9.44Q127.78 7.86 128.48 6.41Q129.18 4.97 130.15 3.82Q131.12 2.66 132.33 1.99Q133.54 1.32 134.92 1.32ZM141.98 13.33L141.98 13.33Q141.98 15.13 142.58 16.05Q143.18 16.97 144.40 16.97L144.40 16.97Q145.32 16.97 146.12 16.44Q146.93 15.91 147.61 15Q148.28 14.09 148.81 12.94Q149.34 11.80 149.71 10.55Q150.07 9.30 150.26 8.09Q150.46 6.88 150.46 5.86L150.46 5.86Q150.46 4.06 149.86 3.14Q149.26 2.22 148.04 2.22L148.04 2.22Q147.12 2.22 146.32 2.75Q145.51 3.28 144.83 4.19Q144.16 5.10 143.63 6.25Q143.10 7.39 142.73 8.64Q142.37 9.89 142.18 11.10Q141.98 12.31 141.98 13.33ZM148.12 1.32L148.12 1.32Q149.36 1.32 150.28 1.92Q151.20 2.52 151.71 3.71Q152.22 4.90 152.22 6.66L152.22 6.66Q152.22 8.17 151.84 9.75Q151.46 11.33 150.76 12.78Q150.06 14.23 149.09 15.38Q148.12 16.54 146.91 17.21Q145.70 17.88 144.32 17.88L144.32 17.88Q143.09 17.88 142.16 17.27Q141.24 16.67 140.73 15.48Q140.22 14.29 140.22 12.53L140.22 12.53Q140.22 11.02 140.60 9.44Q140.98 7.86 141.68 6.41Q142.38 4.97 143.35 3.82Q144.32 2.66 145.53 1.99Q146.74 1.32 148.12 1.32ZM158.14 17.22L158.14 17.22L161.26 8.51L161.60 8.77Q161.22 8.76 160.72 8.96Q160.22 9.17 159.70 9.55Q159.17 9.92 158.69 10.46L158.69 10.46L158.33 10.12Q159.16 8.94 159.85 8.30Q160.54 7.67 161.14 7.42Q161.74 7.18 162.28 7.18L162.28 7.18Q162.73 7.18 162.95 7.35Q163.18 7.52 163.07 7.84L163.07 7.84L159.95 16.79L159.74 16.33Q160.14 16.38 160.65 16.22Q161.16 16.07 161.72 15.73Q162.28 15.40 162.80 14.92L162.80 14.92L163.14 15.30Q162.30 16.28 161.59 16.85Q160.88 17.41 160.29 17.65Q159.70 17.88 159.16 17.88L159.16 17.88Q158.50 17.88 158.26 17.71Q158.02 17.54 158.14 17.22ZM162.14 2.04L162.14 2.04Q162.14 1.66 162.32 1.35Q162.49 1.04 162.80 0.86Q163.10 0.68 163.51 0.68L163.51 0.68Q164.12 0.68 164.50 1.07Q164.88 1.46 164.88 2.04L164.88 2.04Q164.88 2.42 164.71 2.73Q164.53 3.04 164.23 3.22Q163.92 3.40 163.51 3.40L163.51 3.40Q162.90 3.40 162.52 3.01Q162.14 2.62 162.14 2.04ZM171.18 8.38L165.28 8.38L165.49 7.42L171.37 7.42L171.18 8.38ZM169.72 5.33L166.92 15.11Q166.87 15.29 166.84 15.44Q166.80 15.59 166.78 15.71Q166.76 15.83 166.76 15.92L166.76 15.92Q166.76 16.12 166.84 16.21Q166.91 16.31 167.03 16.31L167.03 16.31Q167.28 16.31 167.72 16.01Q168.17 15.71 168.71 15.17Q169.25 14.64 169.79 13.92L169.79 13.92L170.27 14.23Q169.75 15.04 169.23 15.70Q168.71 16.36 168.20 16.84Q167.70 17.33 167.23 17.59Q166.75 17.86 166.31 17.86L166.31 17.86Q165.79 17.86 165.48 17.56Q165.17 17.26 165.17 16.52L165.17 16.52Q165.17 16.20 165.23 15.77Q165.30 15.35 165.46 14.81L165.46 14.81L168.10 5.33L169.72 5.33ZM176.81 17.10L176.81 17.10L178.06 13.24L178.37 13.24Q177.47 14.57 176.75 15.46Q176.03 16.36 175.43 16.88Q174.84 17.40 174.34 17.62Q173.84 17.84 173.38 17.84L173.38 17.84Q172.73 17.84 172.25 17.60Q171.77 17.36 171.50 16.84Q171.24 16.32 171.24 15.48L171.24 15.48Q171.24 14.58 171.59 13.49Q171.94 12.41 172.55 11.33Q173.17 10.26 174.01 9.36Q174.84 8.46 175.83 7.92Q176.82 7.38 177.89 7.38L177.89 7.38Q178.58 7.38 179.03 7.62Q179.48 7.86 179.86 8.35L179.86 8.35L179.38 9Q179.28 8.71 178.96 8.48Q178.63 8.24 178.12 8.24L178.12 8.24Q177.25 8.24 176.48 8.78Q175.72 9.32 175.08 10.19Q174.44 11.05 173.98 12.03Q173.52 13.01 173.27 13.90Q173.02 14.80 173.02 15.38L173.02 15.38Q173.02 15.90 173.30 16.15Q173.59 16.40 174.04 16.40L174.04 16.40Q174.43 16.40 175.04 16.06Q175.66 15.71 176.32 15.09Q176.98 14.47 177.55 13.63Q178.12 12.78 178.44 11.80L178.44 11.80L179.84 7.42L181.30 7.42L181.48 7.42L178.46 16.79L178.26 16.33Q178.66 16.39 179.17 16.24Q179.68 16.08 180.23 15.74Q180.79 15.40 181.32 14.92L181.32 14.92L181.66 15.30Q180.36 16.74 179.42 17.31Q178.48 17.88 177.67 17.88L177.67 17.88Q177.16 17.88 176.92 17.66Q176.69 17.45 176.81 17.10ZM182.42 17.22L186.88 2.42Q186.66 2.22 186.46 2.06Q186.25 1.90 186.01 1.76Q185.76 1.62 185.41 1.50L185.41 1.50L185.51 1.20L188.74 0.61L189.01 0.61L184.18 16.67L184.03 16.33Q184.43 16.38 184.94 16.22Q185.45 16.07 186.01 15.73Q186.56 15.40 187.09 14.92L187.09 14.92L187.43 15.30Q186.59 16.28 185.88 16.85Q185.17 17.41 184.58 17.65Q183.98 17.88 183.44 17.88L183.44 17.88Q182.88 17.88 182.60 17.72Q182.32 17.57 182.42 17.22L182.42 17.22ZM188.69 17.22L188.69 17.22L191.81 8.51L192.16 8.77Q191.77 8.76 191.27 8.96Q190.78 9.17 190.25 9.55Q189.72 9.92 189.24 10.46L189.24 10.46L188.88 10.12Q189.71 8.94 190.40 8.30Q191.09 7.67 191.69 7.42Q192.29 7.18 192.83 7.18L192.83 7.18Q193.28 7.18 193.51 7.35Q193.73 7.52 193.62 7.84L193.62 7.84L190.50 16.79L190.30 16.33Q190.69 16.38 191.20 16.22Q191.71 16.07 192.27 15.73Q192.83 15.40 193.36 14.92L193.36 14.92L193.69 15.30Q192.85 16.28 192.14 16.85Q191.44 17.41 190.84 17.65Q190.25 17.88 189.71 17.88L189.71 17.88Q189.05 17.88 188.81 17.71Q188.57 17.54 188.69 17.22ZM192.70 2.04L192.70 2.04Q192.70 1.66 192.87 1.35Q193.04 1.04 193.35 0.86Q193.66 0.68 194.06 0.68L194.06 0.68Q194.68 0.68 195.05 1.07Q195.43 1.46 195.43 2.04L195.43 2.04Q195.43 2.42 195.26 2.73Q195.08 3.04 194.78 3.22Q194.47 3.40 194.06 3.40L194.06 3.40Q193.45 3.40 193.07 3.01Q192.70 2.62 192.70 2.04ZM199.82 8.11L199.82 8.11Q199.16 8.11 198.60 8.68Q198.04 9.24 197.62 10.15Q197.21 11.06 196.98 12.14Q196.75 13.22 196.75 14.26L196.75 14.26Q196.75 15.49 197.14 16.01Q197.52 16.52 198.29 16.52L198.29 16.52Q198.78 16.52 199.25 16.32Q199.72 16.12 200.18 15.64Q200.64 15.16 201.08 14.33L201.08 14.33L201.73 14.33Q201.11 15.70 200.50 16.47Q199.88 17.24 199.22 17.56Q198.55 17.88 197.75 17.88L197.75 17.88Q196.44 17.88 195.73 17.11Q195.01 16.34 195.01 14.76L195.01 14.76Q195.01 13.19 195.47 11.81Q195.94 10.44 196.73 9.40Q197.53 8.35 198.58 7.76Q199.63 7.18 200.80 7.18L200.80 7.18Q201.86 7.18 202.39 7.64Q202.92 8.10 202.92 8.70L202.92 8.70Q202.92 9.17 202.64 9.40Q202.37 9.62 201.95 9.64L201.95 9.64Q201.77 9.65 201.55 9.40Q201.34 9.16 201.07 8.87L201.07 8.87Q200.81 8.58 200.50 8.35Q200.20 8.11 199.82 8.11Z"/></svg>