<svg xmlns="http://www.w3.org/2000/svg" xmlns:xlink="http://www.w3.org/1999/xlink" width="208.72799999999998" height="40.944"><path fill="black" d="M4.56 28.13L4.56 27.50L5.23 27.50Q6.65 27.50 6.65 26.64L6.65 26.64L6.65 12.31L3.31 12.31Q2.35 12.31 1.97 13.51Q1.58 14.71 1.56 15.94L1.56 15.94L0.91 15.94L0.91 11.33L14.74 11.33L14.74 15.94L14.09 15.94Q14.02 14.66 13.64 13.49Q13.27 12.31 12.34 12.31L12.34 12.31L9 12.31L9 26.64Q9 27.50 10.39 27.50L10.39 27.50L11.09 27.50L11.09 28.13L4.56 28.13ZM18.02 28.37Q16.56 28.37 15.73 27.68Q14.90 27 14.90 25.82L14.90 25.82Q14.90 24.07 16.74 22.94Q18.58 21.82 22.39 21.29L22.39 21.29L22.39 20.04Q22.39 18.82 21.62 18.19Q20.86 17.57 19.58 17.57L19.58 17.57Q18.67 17.57 17.90 17.93Q17.14 18.29 17.14 18.70L17.14 18.70Q17.14 18.84 17.18 19.06Q17.23 19.27 17.23 19.39L17.23 19.39Q17.23 19.75 17.02 20.02Q16.80 20.28 16.32 20.28L16.32 20.28Q15.91 20.28 15.64 19.98Q15.36 19.68 15.36 19.13L15.36 19.13Q15.36 17.93 16.73 17.27Q18.10 16.61 20.06 16.61L20.06 16.61Q22.27 16.61 23.47 17.58Q24.67 18.55 24.67 20.23L24.67 20.23L24.67 26.74Q24.67 27.50 25.20 27.50L25.20 27.50Q25.54 27.50 26.06 27.31L26.06 27.31L26.06 27.72Q25.70 28.03 25.15 28.20Q24.60 28.37 24.02 28.37L24.02 28.37Q23.38 28.37 22.90 28.10Q22.42 27.84 22.42 27.24L22.42 27.24L22.42 26.52Q21.46 27.58 20.29 27.97Q19.13 28.37 18.02 28.37L18.02 28.37ZM19.13 27.41Q20.02 27.41 20.99 26.83Q21.96 26.26 22.39 25.51L22.39 25.51L22.39 22.08Q19.85 22.58 18.49 23.53Q17.14 24.48 17.14 25.66L17.14 25.66Q17.14 26.52 17.66 26.96Q18.19 27.41 19.13 27.41L19.13 27.41ZM31.94 28.13L28.39 18.60Q28.15 17.93 27.88 17.70Q27.60 17.47 27.05 17.47L27.05 17.47L26.66 17.47L26.66 16.85L31.70 16.85L31.70 17.47L31.32 17.47Q30.38 17.47 30.38 17.95L30.38 17.95Q30.38 18 30.43 18.19L30.43 18.19L33.24 26.16L36.05 18.26Q36.10 18.07 36.10 18.02L36.10 18.02Q36.10 17.47 35.11 17.47L35.11 17.47L34.75 17.47L34.75 16.85L39.10 16.85L39.10 17.47L38.54 17.47Q37.70 17.47 37.46 18.12L37.46 18.12L33.77 28.13L31.94 28.13ZM42.74 14.66Q42.12 14.66 41.75 14.29Q41.38 13.92 41.38 13.34L41.38 13.34Q41.38 12.74 41.75 12.38Q42.12 12.02 42.74 12.02L42.74 12.02Q43.34 12.02 43.72 12.38Q44.09 12.74 44.09 13.34L44.09 13.34Q44.09 13.92 43.72 14.29Q43.34 14.66 42.74 14.66L42.74 14.66ZM40.08 28.13L40.08 27.53L40.54 27.53Q41.11 27.53 41.46 27.34Q41.81 27.14 41.81 26.76L41.81 26.76L41.81 18.67Q41.81 18.14 41.30 18.14L41.30 18.14Q41.18 18.14 40.94 18.23Q40.70 18.31 40.61 18.34L40.61 18.34L40.44 17.78L43.46 16.73L44.06 16.73L44.06 26.76Q44.06 27.14 44.41 27.34Q44.76 27.53 45.34 27.53L45.34 27.53L45.79 27.53L45.79 28.13L40.08 28.13ZM54.31 16.61Q55.01 16.61 55.50 16.86Q55.99 17.11 55.99 17.64L55.99 17.64Q55.99 18.10 55.76 18.34Q55.54 18.58 55.13 18.58L55.13 18.58Q54.86 18.58 54.71 18.48Q54.55 18.38 54.43 18.22L54.43 18.22Q54.26 18.05 54.12 17.96Q53.98 17.88 53.71 17.88L53.71 17.88Q53.09 17.88 52.52 18.34Q51.96 18.79 51.60 19.66Q51.24 20.52 51.19 21.65L51.19 21.65L51.19 26.76Q51.19 27.14 51.55 27.34Q51.91 27.53 52.49 27.53L52.49 27.53L52.90 27.53L52.90 28.13L47.21 28.13L47.21 27.53L47.66 27.53Q48.24 27.53 48.59 27.34Q48.94 27.14 48.94 26.76L48.94 26.76L48.94 18.70Q48.94 18.19 48.46 18.19L48.46 18.19Q48.22 18.19 47.74 18.38L47.74 18.38L47.59 17.86L50.66 16.78L51.19 16.78L51.19 18.98Q51.53 17.95 52.39 17.28Q53.26 16.61 54.31 16.61L54.31 16.61ZM59.98 28.37Q58.51 28.37 57.68 27.68Q56.86 27 56.86 25.82L56.86 25.82Q56.86 24.07 58.69 22.94Q60.53 21.82 64.34 21.29L64.34 21.29L64.34 20.04Q64.34 18.82 63.58 18.19Q62.81 17.57 61.54 17.57L61.54 17.57Q60.62 17.57 59.86 17.93Q59.09 18.29 59.09 18.70L59.09 18.70Q59.09 18.84 59.14 19.06Q59.18 19.27 59.18 19.39L59.18 19.39Q59.18 19.75 58.97 20.02Q58.75 20.28 58.27 20.28L58.27 20.28Q57.86 20.28 57.59 19.98Q57.31 19.68 57.31 19.13L57.31 19.13Q57.31 17.93 58.68 17.27Q60.05 16.61 62.02 16.61L62.02 16.61Q64.22 16.61 65.42 17.58Q66.62 18.55 66.62 20.23L66.62 20.23L66.62 26.74Q66.62 27.50 67.15 27.50L67.15 27.50Q67.49 27.50 68.02 27.31L68.02 27.31L68.02 27.72Q67.66 28.03 67.10 28.20Q66.55 28.37 65.98 28.37L65.98 28.37Q65.33 28.37 64.85 28.10Q64.37 27.84 64.37 27.24L64.37 27.24L64.37 26.52Q63.41 27.58 62.24 27.97Q61.08 28.37 59.98 28.37L59.98 28.37ZM61.08 27.41Q61.97 27.41 62.94 26.83Q63.91 26.26 64.34 25.51L64.34 25.51L64.34 22.08Q61.80 22.58 60.44 23.53Q59.09 24.48 59.09 25.66L59.09 25.66Q59.09 26.52 59.62 26.96Q60.14 27.41 61.08 27.41L61.08 27.41ZM72.24 14.66Q71.64 14.66 71.27 14.29Q70.90 13.92 70.90 13.34L70.90 13.34Q70.90 12.74 71.27 12.38Q71.64 12.02 72.24 12.02L72.24 12.02Q72.86 12.02 73.24 12.38Q73.61 12.74 73.61 13.34L73.61 13.34Q73.61 13.92 73.22 14.29Q72.84 14.66 72.24 14.66L72.24 14.66ZM69.02 31.30L68.90 30.77Q69.96 30.34 70.46 29.65Q70.97 28.97 71.10 28.10Q71.23 27.24 71.23 25.80L71.23 25.80L71.23 18.70Q71.23 18.43 71.08 18.31Q70.92 18.19 70.73 18.19L70.73 18.19Q70.54 18.19 70.01 18.38L70.01 18.38L69.84 17.86L72.86 16.78L73.46 16.78L73.46 25.68Q73.46 28.10 72.46 29.48Q71.45 30.86 69.02 31.30L69.02 31.30ZM87.67 28.13L87.67 27.50L88.66 27.50Q90.05 27.50 90.05 26.64L90.05 26.64L90.05 24.10L82.37 24.10L82.37 22.80L90.02 11.26L92.40 11.26L92.40 22.82L94.94 22.82L94.63 24.10L92.40 24.10L92.40 26.64Q92.40 27.50 93.82 27.50L93.82 27.50L94.75 27.50L94.75 28.13L87.67 28.13ZM83.66 22.82L90.05 22.82L90.05 13.06L83.66 22.82ZM102.53 28.37Q99.38 28.37 97.97 26.11Q96.55 23.86 96.55 19.73L96.55 19.73Q96.55 11.09 102.53 11.09L102.53 11.09Q108.50 11.09 108.50 19.73L108.50 19.73Q108.50 28.37 102.53 28.37L102.53 28.37ZM102.53 27.41Q104.47 27.41 105.31 25.40Q106.15 23.40 106.15 19.73L106.15 19.73Q106.15 16.06 105.31 14.05Q104.47 12.05 102.53 12.05L102.53 12.05Q100.58 12.05 99.74 14.05Q98.90 16.06 98.90 19.73L98.90 19.73Q98.90 23.40 99.74 25.40Q100.58 27.41 102.53 27.41L102.53 27.41ZM116.47 28.37Q113.33 28.37 111.91 26.11Q110.50 23.86 110.50 19.73L110.50 19.73Q110.50 11.09 116.47 11.09L116.47 11.09Q122.45 11.09 122.45 19.73L122.45 19.73Q122.45 28.37 116.47 28.37L116.47 28.37ZM116.47 27.41Q118.42 27.41 119.26 25.40Q120.10 23.40 120.10 19.73L120.10 19.73Q120.10 16.06 119.26 14.05Q118.42 12.05 116.47 12.05L116.47 12.05Q114.53 12.05 113.69 14.05Q112.85 16.06 112.85 19.73L112.85 19.73Q112.85 23.40 113.69 25.40Q114.53 27.41 116.47 27.41L116.47 27.41ZM143.62 27.53L144.05 27.53L144.05 28.13L138.46 28.13L138.46 27.53L138.84 27.53Q139.39 27.53 139.73 27.34Q140.06 27.14 140.06 26.76L140.06 26.76L140.06 20.16Q140.06 18.89 139.42 18.24Q138.77 17.59 137.57 17.59L137.57 17.59Q136.73 17.59 135.95 18.01Q135.17 18.43 134.66 19.27Q134.16 20.11 134.16 21.29L134.16 21.29L134.16 26.76Q134.16 27.14 134.51 27.34Q134.86 27.53 135.41 27.53L135.41 27.53L135.77 27.53L135.77 28.13L130.18 28.13L130.18 27.53L130.63 27.53Q131.21 27.53 131.56 27.34Q131.90 27.14 131.90 26.76L131.90 26.76L131.90 18.70Q131.90 18.19 131.40 18.19L131.40 18.19Q131.18 18.19 130.70 18.38L130.70 18.38L130.54 17.86L133.56 16.78L134.16 16.78L134.16 18.65Q134.69 17.78 135.78 17.20Q136.87 16.61 138.22 16.61L138.22 16.61Q140.21 16.61 141.26 17.50Q142.32 18.38 142.32 19.87L142.32 19.87L142.32 26.76Q142.32 27.14 142.68 27.34Q143.04 27.53 143.62 27.53L143.62 27.53ZM151.37 28.37Q148.46 28.37 146.87 26.83Q145.27 25.30 145.27 22.49L145.27 22.49Q145.27 19.68 146.88 18.14Q148.49 16.61 151.37 16.61L151.37 16.61Q154.25 16.61 155.84 18.14Q157.44 19.68 157.44 22.49L157.44 22.49Q157.44 25.30 155.84 26.83Q154.25 28.37 151.37 28.37L151.37 28.37ZM151.37 27.46Q153.14 27.46 154.18 26.16Q155.21 24.86 155.21 22.49L155.21 22.49Q155.21 20.14 154.18 18.85Q153.14 17.57 151.37 17.57L151.37 17.57Q149.57 17.57 148.54 18.85Q147.50 20.14 147.50 22.49L147.50 22.49Q147.50 24.86 148.54 26.16Q149.57 27.46 151.37 27.46L151.37 27.46ZM165.96 16.61Q166.66 16.61 167.15 16.86Q167.64 17.11 167.64 17.64L167.64 17.64Q167.64 18.10 167.41 18.34Q167.18 18.58 166.78 18.58L166.78 18.58Q166.51 18.58 166.36 18.48Q166.20 18.38 166.08 18.22L166.08 18.22Q165.91 18.05 165.77 17.96Q165.62 17.88 165.36 17.88L165.36 17.88Q164.74 17.88 164.17 18.34Q163.61 18.79 163.25 19.66Q162.89 20.52 162.84 21.65L162.84 21.65L162.84 26.76Q162.84 27.14 163.20 27.34Q163.56 27.53 164.14 27.53L164.14 27.53L164.54 27.53L164.54 28.13L158.86 28.13L158.86 27.53L159.31 27.53Q159.89 27.53 160.24 27.34Q160.58 27.14 160.58 26.76L160.58 26.76L160.58 18.70Q160.58 18.19 160.10 18.19L160.10 18.19Q159.86 18.19 159.38 18.38L159.38 18.38L159.24 17.86L162.31 16.78L162.84 16.78L162.84 18.98Q163.18 17.95 164.04 17.28Q164.90 16.61 165.96 16.61L165.96 16.61ZM188.40 27.53L188.81 27.53L188.81 28.13L183.14 28.13L183.14 27.53L183.58 27.53Q184.15 27.53 184.51 27.34Q184.87 27.14 184.87 26.76L184.87 26.76L184.87 20.16Q184.87 18.89 184.27 18.24Q183.67 17.59 182.69 17.59L182.69 17.59Q181.39 17.59 180.53 18.55Q179.66 19.51 179.66 21.29L179.66 21.29L179.66 26.76Q179.66 27.14 180.02 27.34Q180.38 27.53 180.96 27.53L180.96 27.53L181.18 27.53L181.18 28.13L175.94 28.13L175.94 27.53L176.21 27.53Q176.81 27.53 177.16 27.34Q177.50 27.14 177.50 26.76L177.50 26.76L177.50 20.16Q177.50 18.89 176.92 18.24Q176.33 17.59 175.32 17.59L175.32 17.59Q174.02 17.59 173.17 18.55Q172.32 19.51 172.32 21.29L172.32 21.29L172.32 26.76Q172.32 27.14 172.68 27.34Q173.04 27.53 173.62 27.53L173.62 27.53L174.02 27.53L174.02 28.13L168.34 28.13L168.34 27.53L168.79 27.53Q169.37 27.53 169.72 27.34Q170.06 27.14 170.06 26.76L170.06 26.76L170.06 18.70Q170.06 18.19 169.58 18.19L169.58 18.19Q169.34 18.19 168.86 18.38L168.86 18.38L168.72 17.86L171.72 16.78L172.32 16.78L172.32 18.60Q172.78 17.76 173.74 17.18Q174.70 16.61 175.97 16.61L175.97 16.61Q177.46 16.61 178.36 17.21Q179.26 17.81 179.54 18.84L179.54 18.84Q179.93 17.95 180.95 17.28Q181.97 16.61 183.34 16.61L183.34 16.61Q185.18 16.61 186.16 17.50Q187.13 18.38 187.13 19.87L187.13 19.87L187.13 26.76Q187.13 27.14 187.48 27.34Q187.82 27.53 188.40 27.53L188.40 27.53ZM193.15 28.37Q191.69 28.37 190.86 27.68Q190.03 27 190.03 25.82L190.03 25.82Q190.03 24.07 191.87 22.94Q193.70 21.82 197.52 21.29L197.52 21.29L197.52 20.04Q197.52 18.82 196.75 18.19Q195.98 17.57 194.71 17.57L194.71 17.57Q193.80 17.57 193.03 17.93Q192.26 18.29 192.26 18.70L192.26 18.70Q192.26 18.84 192.31 19.06Q192.36 19.27 192.36 19.39L192.36 19.39Q192.36 19.75 192.14 20.02Q191.93 20.28 191.45 20.28L191.45 20.28Q191.04 20.28 190.76 19.98Q190.49 19.68 190.49 19.13L190.49 19.13Q190.49 17.93 191.86 17.27Q193.22 16.61 195.19 16.61L195.19 16.61Q197.40 16.61 198.60 17.58Q199.80 18.55 199.80 20.23L199.80 20.23L199.80 26.74Q199.80 27.50 200.33 27.50L200.33 27.50Q200.66 27.50 201.19 27.31L201.19 27.31L201.19 27.72Q200.83 28.03 200.28 28.20Q199.73 28.37 199.15 28.37L199.15 28.37Q198.50 28.37 198.02 28.10Q197.54 27.84 197.54 27.24L197.54 27.24L197.54 26.52Q196.58 27.58 195.42 27.97Q194.26 28.37 193.15 28.37L193.15 28.37ZM194.26 27.41Q195.14 27.41 196.12 26.83Q197.09 26.26 197.52 25.51L197.52 25.51L197.52 22.08Q194.98 22.58 193.62 23.53Q192.26 24.48 192.26 25.66L192.26 25.66Q192.26 26.52 192.79 26.96Q193.32 27.41 194.26 27.41L194.26 27.41ZM202.27 28.13L202.27 27.53L202.70 27.53Q203.30 27.53 203.65 27.34Q204 27.14 204 26.76L204 26.76L204 12.86Q204 12.36 203.50 12.36L203.50 12.36Q203.28 12.36 202.80 12.55L202.80 12.55L202.63 12L205.66 10.92L206.26 10.92L206.26 26.76Q206.26 27.14 206.60 27.34Q206.95 27.53 207.53 27.53L207.53 27.53L207.94 27.53L207.94 28.13L202.27 28.13Z"/></svg>