<svg xmlns="http://www.w3.org/2000/svg" xmlns:xlink="http://www.w3.org/1999/xlink" width="150.48" height="34.824"><path fill="black" d="M8.02 18.41L8.02 18.41Q9.50 16.20 10.96 14.34Q12.41 12.48 13.73 11.14Q15.05 9.79 16.15 9.05Q17.26 8.30 18.07 8.30L18.07 8.30Q18.38 8.30 18.76 8.54Q19.13 8.78 19.45 9.17Q19.78 9.55 19.99 10.00Q20.21 10.44 20.21 10.85L20.21 10.85Q18.72 11.33 17.29 12.11Q15.86 12.89 14.56 13.91Q13.25 14.93 12.06 16.18Q10.87 17.42 9.91 18.84L9.91 18.84Q10.30 19.82 10.86 20.94Q11.42 22.06 12.10 23.10Q12.77 24.14 13.54 25.03Q14.30 25.92 15.10 26.45L15.10 26.45Q14.98 26.71 14.69 26.95Q14.40 27.19 14.06 27.40Q13.73 27.60 13.36 27.72Q12.98 27.84 12.67 27.84L12.67 27.84Q12.05 27.84 11.52 27.25Q10.99 26.66 10.45 25.48Q9.91 24.29 9.32 22.52Q8.74 20.76 8.02 18.41ZM4.39 27.96L4.39 27.96Q3.48 27.74 2.88 27.20Q2.28 26.66 1.78 25.85L1.78 25.85Q1.99 25.39 2.29 24.65Q2.59 23.90 3.02 22.81Q3.46 21.72 4.06 20.20Q4.66 18.67 5.45 16.63L5.45 16.63Q5.95 15.34 6.28 14.45Q6.60 13.56 6.83 12.71Q7.06 11.86 7.27 10.82Q7.49 9.79 7.78 8.21L7.78 8.21Q8.78 8.40 9.61 9.10Q10.44 9.79 11.04 10.78L11.04 10.78Q10.78 11.11 10.43 11.80Q10.08 12.48 9.65 13.44Q9.22 14.40 8.69 15.58Q8.16 16.75 7.58 18.07L7.58 18.07Q6.29 20.95 5.54 23.34Q4.80 25.73 4.39 27.96ZM25.10 16.32L25.10 16.32Q25.34 16.32 25.67 16.40Q25.99 16.49 26.26 16.62Q26.52 16.75 26.70 16.90Q26.88 17.04 26.88 17.16L26.88 17.16Q26.40 18.17 25.99 19.19Q25.58 20.21 25.30 21.14Q25.01 22.08 24.85 22.90Q24.70 23.71 24.70 24.31L24.70 24.31Q24.70 24.98 24.84 25.43Q24.98 25.87 25.32 26.06L25.32 26.06Q25.03 26.26 24.58 26.38Q24.12 26.50 23.76 26.50L23.76 26.50Q22.46 26.50 22.46 24.72L22.46 24.72Q22.46 23.35 23.38 20.98L23.38 20.98Q22.90 22.08 22.27 23.05Q21.65 24.02 21 24.77Q20.35 25.51 19.69 25.98Q19.03 26.45 18.48 26.54L18.48 26.54Q17.59 26.50 17.04 25.69Q16.49 24.89 16.49 23.64L16.49 23.64Q16.49 22.30 17.06 20.81Q17.64 19.32 18.54 18.05Q19.44 16.78 20.50 15.92Q21.55 15.07 22.54 15.02L22.54 15.02Q22.78 15.10 23.08 15.31Q23.38 15.53 23.65 15.82Q23.93 16.10 24.12 16.40Q24.31 16.70 24.34 16.92L24.34 16.92Q23.38 17.06 22.36 17.86Q21.34 18.65 20.51 19.76Q19.68 20.88 19.15 22.15Q18.62 23.42 18.62 24.53L18.62 24.53Q18.62 24.98 18.96 25.10L18.96 25.10Q19.66 24.96 20.57 23.92Q21.48 22.87 22.78 20.69L22.78 20.69Q23.02 20.26 23.32 19.73Q23.62 19.20 23.93 18.62Q24.24 18.05 24.54 17.46Q24.84 16.87 25.10 16.32ZM34.54 25.49L34.54 25.49Q34.08 25.10 33.92 24.53Q33.77 23.95 33.77 23.54L33.77 23.54Q33.77 23.04 33.89 22.68L33.89 22.68Q33.79 22.68 33.46 23.06Q33.12 23.45 32.72 23.98Q32.33 24.50 31.94 25.01Q31.56 25.51 31.37 25.75L31.37 25.75Q31.06 26.09 30.78 26.28Q30.50 26.47 30.34 26.50L30.34 26.50Q29.95 26.47 29.53 26.34Q29.11 26.21 28.74 25.97Q28.37 25.73 28.09 25.39Q27.82 25.06 27.72 24.62L27.72 24.62Q27.72 23.95 27.76 23.52Q27.79 23.09 27.91 22.58L27.91 22.58Q28.13 21.67 28.55 20.52Q28.97 19.37 29.52 18.25Q30.07 17.14 30.76 16.16Q31.44 15.19 32.21 14.64L32.21 14.64Q32.42 14.64 32.71 14.68Q33 14.71 33.30 14.81Q33.60 14.90 33.88 15.04Q34.15 15.17 34.34 15.38L34.34 15.38Q34.13 15.62 33.25 16.99Q32.38 18.36 31.30 20.93L31.30 20.93Q31.18 21.19 31.01 21.70Q30.84 22.20 30.67 22.75Q30.50 23.30 30.40 23.83Q30.29 24.36 30.29 24.67L30.29 24.67Q30.29 24.86 30.35 24.96Q30.41 25.06 30.46 25.10L30.46 25.10Q30.82 24.96 31.37 24.31Q31.92 23.66 32.90 22.32L32.90 22.32Q33.14 21.98 33.47 21.55Q33.79 21.12 34.13 20.63Q34.46 20.14 34.76 19.61Q35.06 19.08 35.26 18.55L35.26 18.55Q35.35 18.26 35.51 17.87Q35.66 17.47 35.89 17.04Q36.12 16.61 36.42 16.16Q36.72 15.72 37.13 15.34L37.13 15.34Q37.44 15.34 37.80 15.41Q38.16 15.48 38.48 15.59Q38.81 15.70 39.05 15.83Q39.29 15.96 39.41 16.10L39.41 16.10Q38.98 17.16 38.45 18.19Q37.92 19.22 37.46 20.22Q37.01 21.22 36.70 22.20Q36.38 23.18 36.38 24.12L36.38 24.12Q36.38 24.62 36.47 25.00Q36.55 25.37 36.65 25.62Q36.74 25.87 36.83 26.04Q36.91 26.21 36.91 26.33L36.91 26.33Q36.91 26.35 36.86 26.40L36.86 26.40Q36.84 26.42 36.82 26.42L36.82 26.42Q36.65 26.42 36.38 26.35Q36.12 26.28 35.80 26.15Q35.47 26.02 35.15 25.85Q34.82 25.68 34.54 25.49ZM48.14 16.46L48.14 16.46Q48.12 16.92 47.99 17.41Q47.86 17.90 47.66 18.30Q47.47 18.70 47.26 18.96Q47.04 19.22 46.85 19.22L46.85 19.22Q46.58 19.20 46.54 18.86L46.54 18.86Q46.54 18.79 46.60 18.64Q46.66 18.48 46.73 18.29Q46.80 18.10 46.86 17.90Q46.92 17.71 46.92 17.57L46.92 17.57Q46.92 17.23 46.76 17.00Q46.61 16.78 46.34 16.78L46.34 16.78Q45.38 16.78 44.88 17.98Q44.38 19.18 44.38 21.50L44.38 21.50Q44.38 21.74 44.40 21.79L44.40 21.79Q44.90 21.77 45.30 21.76Q45.70 21.74 46.08 21.74L46.08 21.74Q46.10 21.79 46.10 21.94L46.10 21.94Q46.10 22.15 46.01 22.25L46.01 22.25Q45.46 22.37 45.13 22.45Q44.81 22.54 44.64 22.61Q44.47 22.68 44.44 22.76Q44.40 22.85 44.40 22.99L44.40 22.99Q44.40 23.18 44.41 23.38Q44.42 23.57 44.42 23.86L44.42 23.86Q44.42 25.87 43.33 27.10Q42.24 28.32 40.30 28.51L40.30 28.51Q39.96 28.49 39.60 28.32Q39.24 28.15 38.92 27.89Q38.59 27.62 38.35 27.30Q38.11 26.98 38.02 26.64L38.02 26.64Q38.02 25.73 38.40 24.90Q38.78 24.07 39.44 23.44Q40.10 22.80 41.00 22.40Q41.90 22.01 42.96 21.94L42.96 21.94Q42.96 21.34 42.84 20.76Q42.72 20.18 42.59 19.64Q42.46 19.10 42.34 18.59Q42.22 18.07 42.22 17.57L42.22 17.57Q42.22 16.92 42.48 16.28Q42.74 15.65 43.18 15.11Q43.61 14.57 44.18 14.18Q44.76 13.80 45.38 13.66L45.38 13.66Q45.65 13.73 46.09 14.08Q46.54 14.42 46.97 14.86Q47.40 15.29 47.74 15.73Q48.07 16.18 48.14 16.46ZM40.22 27.41L40.22 27.41Q40.80 27.17 41.32 26.71Q41.83 26.26 42.22 25.68Q42.60 25.10 42.83 24.46Q43.06 23.81 43.06 23.18L43.06 23.18Q42.58 23.26 42 23.63Q41.42 24 40.92 24.52Q40.42 25.03 40.08 25.58Q39.74 26.14 39.74 26.54L39.74 26.54Q39.74 27.07 40.22 27.41ZM48.14 25.61L48.14 25.61Q48.14 24.77 48.31 23.63Q48.48 22.49 48.80 21.19Q49.13 19.90 49.57 18.48Q50.02 17.06 50.57 15.65L50.57 15.65Q51.05 14.38 51.68 13.08Q52.32 11.78 53.06 10.54Q53.81 9.29 54.61 8.16Q55.42 7.03 56.23 6.10L56.23 6.10Q56.62 6.10 57.06 6.19Q57.50 6.29 57.92 6.44Q58.34 6.60 58.69 6.82Q59.04 7.03 59.26 7.25L59.26 7.25Q57.46 9.10 56.02 10.98Q54.58 12.86 53.74 14.52L53.74 14.52Q53.28 15.43 52.91 16.22Q52.54 17.02 52.22 17.80Q51.91 18.58 51.66 19.36Q51.41 20.14 51.19 21L51.19 21Q55.80 15.12 58.03 15.12L58.03 15.12Q58.66 15.12 59.38 15.53Q60.10 15.94 60.65 16.63L60.65 16.63Q59.90 17.45 59.11 18.60Q58.32 19.75 57.66 20.92Q57 22.08 56.58 23.08Q56.16 24.07 56.16 24.55L56.16 24.55Q56.16 24.79 56.23 24.88Q56.30 24.96 56.54 24.96L56.54 24.96Q56.90 24.96 57.12 24.86Q57.34 24.77 57.38 24.77L57.38 24.77Q57.50 24.96 57.53 25.03Q57.55 25.10 57.55 25.15L57.55 25.15Q57.55 25.25 57.26 25.43Q56.98 25.61 56.58 25.79Q56.18 25.97 55.80 26.11Q55.42 26.26 55.22 26.26L55.22 26.26Q54.98 26.26 54.74 26.12Q54.50 25.99 54.32 25.78Q54.14 25.56 54.04 25.30Q53.93 25.03 53.93 24.74L53.93 24.74Q53.93 24.38 54.13 23.68Q54.34 22.97 54.70 22.02Q55.06 21.07 55.56 19.94Q56.06 18.82 56.64 17.64L56.64 17.64Q56.64 17.54 56.54 17.54L56.54 17.54Q56.47 17.54 56.17 17.74Q55.87 17.93 55.61 18.12L55.61 18.12Q54.74 18.77 53.87 19.72Q52.99 20.66 52.16 21.79Q51.34 22.92 50.60 24.18Q49.87 25.44 49.34 26.71L49.34 26.71Q49.27 26.88 49.13 27.02Q48.98 27.17 48.89 27.17L48.89 27.17Q48.82 27.17 48.68 27Q48.55 26.83 48.44 26.58Q48.34 26.33 48.24 26.06Q48.14 25.80 48.14 25.61ZM68.86 16.32L68.86 16.32Q69.10 16.32 69.42 16.40Q69.74 16.49 70.01 16.62Q70.27 16.75 70.45 16.90Q70.63 17.04 70.63 17.16L70.63 17.16Q70.15 18.17 69.74 19.19Q69.34 20.21 69.05 21.14Q68.76 22.08 68.60 22.90Q68.45 23.71 68.45 24.31L68.45 24.31Q68.45 24.98 68.59 25.43Q68.74 25.87 69.07 26.06L69.07 26.06Q68.78 26.26 68.33 26.38Q67.87 26.50 67.51 26.50L67.51 26.50Q66.22 26.50 66.22 24.72L66.22 24.72Q66.22 23.35 67.13 20.98L67.13 20.98Q66.65 22.08 66.02 23.05Q65.40 24.02 64.75 24.77Q64.10 25.51 63.44 25.98Q62.78 26.45 62.23 26.54L62.23 26.54Q61.34 26.50 60.79 25.69Q60.24 24.89 60.24 23.64L60.24 23.64Q60.24 22.30 60.82 20.81Q61.39 19.32 62.29 18.05Q63.19 16.78 64.25 15.92Q65.30 15.07 66.29 15.02L66.29 15.02Q66.53 15.10 66.83 15.31Q67.13 15.53 67.40 15.82Q67.68 16.10 67.87 16.40Q68.06 16.70 68.09 16.92L68.09 16.92Q67.13 17.06 66.11 17.86Q65.09 18.65 64.26 19.76Q63.43 20.88 62.90 22.15Q62.38 23.42 62.38 24.53L62.38 24.53Q62.38 24.98 62.71 25.10L62.71 25.10Q63.41 24.96 64.32 23.92Q65.23 22.87 66.53 20.69L66.53 20.69Q66.77 20.26 67.07 19.73Q67.37 19.20 67.68 18.62Q67.99 18.05 68.29 17.46Q68.59 16.87 68.86 16.32ZM75.74 14.38L75.74 14.38Q76.37 14.57 76.92 15.23Q77.47 15.89 77.74 16.68L77.74 16.68Q77.47 17.33 76.92 18.24Q76.37 19.15 75.82 20.10Q75.26 21.05 74.82 21.90Q74.38 22.75 74.30 23.30L74.30 23.30Q74.69 22.90 75.16 22.36Q75.62 21.82 76.07 21.28Q76.51 20.74 76.90 20.29Q77.28 19.85 77.50 19.63L77.50 19.63Q77.95 19.15 78.58 18.52Q79.20 17.88 79.88 17.32Q80.57 16.75 81.26 16.36Q81.96 15.96 82.54 15.96L82.54 15.96Q83.16 15.96 83.58 16.38Q84 16.80 84.24 17.26L84.24 17.26Q84.24 17.30 84.06 17.39Q83.88 17.47 83.54 17.86L83.54 17.86Q83.21 18.29 82.79 19.04Q82.37 19.80 81.97 20.68Q81.58 21.55 81.31 22.46Q81.05 23.38 81.05 24.12L81.05 24.12Q81.05 24.72 81.20 24.89Q81.36 25.06 81.65 25.06L81.65 25.06Q81.91 25.06 82.20 24.94Q82.49 24.82 82.66 24.82L82.66 24.82Q82.75 24.86 82.81 25.02Q82.87 25.18 82.87 25.30L82.87 25.30Q82.68 25.46 82.42 25.63Q82.15 25.80 81.86 25.94Q81.58 26.09 81.30 26.18Q81.02 26.28 80.81 26.28L80.81 26.28Q80.11 26.28 79.67 26.08Q79.22 25.87 78.97 25.54Q78.72 25.20 78.62 24.73Q78.53 24.26 78.53 23.74L78.53 23.74Q78.53 23.45 78.58 23.09Q78.62 22.73 78.77 22.24Q78.91 21.74 79.18 21.06Q79.44 20.38 79.85 19.42L79.85 19.42Q79.80 19.42 79.20 19.75Q78.60 20.09 77.90 20.78L77.90 20.78Q76.78 21.86 75.88 22.92Q74.98 23.98 74.04 25.27L74.04 25.27Q73.51 26.02 73.12 26.53Q72.72 27.05 72.43 27.22L72.43 27.22Q71.93 26.93 71.69 26.41Q71.45 25.90 71.33 25.34L71.33 25.34Q71.33 24.89 71.46 24.19Q71.59 23.50 71.82 22.64Q72.05 21.79 72.38 20.86Q72.72 19.92 73.13 18.98L73.13 18.98Q74.04 16.87 74.80 15.67Q75.55 14.47 75.74 14.38ZM106.27 9.84L106.27 9.84Q106.34 10.25 106.38 10.40Q106.42 10.56 106.42 10.82L106.42 10.82Q106.42 11.62 106.07 12.30Q105.72 12.98 105.12 13.27L105.12 13.27Q104.64 12.62 103.94 12.16Q103.25 11.69 102.42 11.39Q101.59 11.09 100.70 10.94Q99.82 10.80 98.98 10.80L98.98 10.80Q98.14 10.80 97.40 10.93Q96.67 11.06 96.11 11.29Q95.54 11.52 95.22 11.86Q94.90 12.19 94.90 12.62L94.90 12.62Q94.97 13.15 95.54 13.69Q96.12 14.23 96.96 14.75Q97.80 15.26 98.82 15.77Q99.84 16.27 100.82 16.73L100.82 16.73Q102.05 17.30 102.94 17.80Q103.82 18.29 104.40 18.88Q104.98 19.46 105.26 20.21Q105.55 20.95 105.55 22.01L105.55 22.01Q105.55 23.23 105.14 24.30Q104.74 25.37 103.96 26.16Q103.18 26.95 102.07 27.40Q100.97 27.84 99.60 27.84L99.60 27.84Q98.26 27.84 96.70 27.43Q95.14 27.02 93.78 26.32Q92.42 25.61 91.52 24.68Q90.62 23.76 90.62 22.73L90.62 22.73Q90.62 22.25 90.90 21.50Q91.18 20.76 91.90 19.94L91.90 19.94Q91.97 20.66 92.68 21.65Q93.38 22.63 94.80 23.47L94.80 23.47Q96.12 24.24 97.52 24.59Q98.93 24.94 100.15 24.94L100.15 24.94Q101.50 24.94 102.34 24.60Q103.18 24.26 103.66 23.80Q104.14 23.33 104.33 22.85Q104.52 22.37 104.54 22.08L104.54 22.08Q104.52 21.60 104.10 21.16Q103.68 20.71 102.97 20.29Q102.26 19.87 101.33 19.44Q100.39 19.01 99.38 18.58L99.38 18.58Q97.87 17.90 96.78 17.32Q95.69 16.73 94.98 16.12Q94.27 15.50 93.95 14.83Q93.62 14.16 93.62 13.30L93.62 13.30Q93.62 11.95 94.44 10.75Q95.26 9.55 96.79 8.93L96.79 8.93Q97.56 8.59 98.44 8.45Q99.31 8.30 100.15 8.30L100.15 8.30Q101.74 8.30 103.25 8.74Q104.76 9.17 106.27 9.84ZM107.28 21.79L107.28 21.79Q107.28 20.42 107.84 19.14Q108.41 17.86 109.33 16.86Q110.26 15.86 111.44 15.25Q112.63 14.64 113.90 14.64L113.90 14.64Q115.15 14.64 115.82 15.26Q116.50 15.89 116.50 17.04L116.50 17.04Q116.50 17.59 116.34 18.11Q116.18 18.62 115.93 19.03Q115.68 19.44 115.34 19.69Q115.01 19.94 114.67 19.94L114.67 19.94Q114.38 19.94 114.08 19.76Q113.78 19.58 113.59 19.30L113.59 19.30Q115.20 17.83 115.20 16.63L115.20 16.63Q115.20 15.94 114.65 15.94L114.65 15.94Q114.17 15.94 113.45 16.39Q112.73 16.85 112.06 17.59L112.06 17.59Q111.02 18.74 110.48 20.15Q109.94 21.55 109.94 23.09L109.94 23.09Q109.94 25.03 110.81 25.42L110.81 25.42Q111.17 25.37 111.65 25.20Q112.13 25.03 112.68 24.76Q113.23 24.48 113.82 24.12Q114.41 23.76 114.96 23.35L114.96 23.35Q115.06 23.42 115.13 23.57Q115.20 23.71 115.20 23.83L115.20 23.83Q114.79 24.34 114.26 24.82Q113.74 25.30 113.16 25.69Q112.58 26.09 112.04 26.36Q111.50 26.64 111.10 26.71L111.10 26.71Q110.30 26.64 109.61 26.22Q108.91 25.80 108.40 25.13Q107.88 24.46 107.58 23.59Q107.28 22.73 107.28 21.79ZM116.64 25.54L116.64 25.54Q116.76 24.84 117.06 23.70Q117.36 22.56 117.77 21.28Q118.18 19.99 118.63 18.70Q119.09 17.40 119.52 16.37L119.52 16.37Q119.83 15.62 120.07 15.20Q120.31 14.78 120.60 14.50L120.60 14.50Q120.94 14.54 121.30 14.66Q121.66 14.78 121.99 14.95Q122.33 15.12 122.59 15.30Q122.86 15.48 123 15.65L123 15.65Q122.35 16.42 121.86 17.40Q121.37 18.38 120.86 19.92L120.86 19.92Q122.16 18.77 123.16 17.71Q124.15 16.66 125.02 15.36L125.02 15.36Q125.16 15.24 125.52 15.24L125.52 15.24Q125.86 15.24 126.17 15.35Q126.48 15.46 126.60 15.65L126.60 15.65Q126.17 16.80 126.17 17.93L126.17 17.93Q126.17 18.98 126.48 19.51L126.48 19.51Q126.46 19.66 126.16 20.06Q125.86 20.47 125.50 20.83L125.50 20.83Q124.85 20.50 124.34 19.91Q123.84 19.32 123.60 18.62L123.60 18.62Q122.47 19.42 121.68 20.17Q120.89 20.93 120.32 21.85Q119.76 22.78 119.36 23.98Q118.97 25.18 118.61 26.83L118.61 26.83Q118.39 26.81 118.09 26.68Q117.79 26.54 117.49 26.35Q117.19 26.16 116.95 25.94Q116.71 25.73 116.64 25.54ZM126.91 24.41L126.91 24.41Q126.91 24.19 126.95 23.87Q126.98 23.54 127.08 23.00Q127.18 22.46 127.33 21.70Q127.49 20.93 127.73 19.85L127.73 19.85Q127.78 19.61 127.94 19.08Q128.11 18.55 128.39 17.96Q128.66 17.38 129.06 16.82Q129.46 16.27 130.01 16.01L130.01 16.01Q130.42 16.10 131.09 16.50Q131.76 16.90 132.24 17.59L132.24 17.59Q131.69 18.22 131.32 18.84Q130.94 19.46 130.64 20.14Q130.34 20.81 130.09 21.53Q129.84 22.25 129.53 23.04L129.53 23.04Q129.26 23.71 129.05 24.42Q128.83 25.13 128.81 25.66L128.81 25.66Q128.81 26.09 128.80 26.27Q128.78 26.45 128.66 26.45L128.66 26.45Q128.57 26.45 128.28 26.33Q127.99 26.21 127.69 25.96Q127.39 25.70 127.15 25.32Q126.91 24.94 126.91 24.41ZM131.50 13.99L131.50 13.99Q131.50 13.85 131.57 13.56L131.57 13.56Q131.45 13.44 131.36 13.20Q131.28 12.96 131.28 12.77L131.28 12.77Q131.28 12.55 131.34 12.18Q131.40 11.81 131.50 11.38Q131.59 10.94 131.74 10.48Q131.88 10.01 132.02 9.62L132.02 9.62Q132.31 9.62 132.73 9.78Q133.15 9.94 133.58 10.19Q134.02 10.44 134.38 10.74Q134.74 11.04 134.93 11.30L134.93 11.30Q134.66 11.57 134.23 12.04Q133.80 12.50 133.39 13.02Q132.98 13.54 132.65 13.99Q132.31 14.45 132.22 14.64L132.22 14.64Q131.93 14.59 131.71 14.39Q131.50 14.18 131.50 13.99ZM130.80 33.96L130.80 33.96Q130.46 33.86 130.42 33.24L130.42 33.24Q130.32 32.93 130.28 32.50Q130.25 32.06 130.25 31.51L130.25 31.51Q130.25 31.01 130.42 30.13Q130.58 29.26 130.88 28.15Q131.18 27.05 131.62 25.76Q132.05 24.48 132.58 23.16L132.58 23.16Q133.22 21.50 133.70 20.29Q134.18 19.08 134.51 18.19Q134.83 17.30 135.04 16.73Q135.24 16.15 135.36 15.74L135.36 15.74Q135.46 15.46 135.65 15.05Q135.84 14.64 136.09 14.22Q136.34 13.80 136.61 13.43Q136.87 13.06 137.09 12.86L137.09 12.86Q137.93 12.98 138.67 13.30Q139.42 13.61 139.58 13.90L139.58 13.90Q139.25 14.21 138.82 14.87Q138.38 15.53 137.98 16.31Q137.57 17.09 137.23 17.90Q136.90 18.72 136.73 19.34L136.73 19.34Q136.97 18.94 137.35 18.46Q137.74 17.98 138.53 17.14L138.53 17.14Q139.42 16.22 140.20 15.73Q140.98 15.24 141.55 15.24L141.55 15.24Q142.46 15.24 143.05 15.74Q143.64 16.25 143.64 17.04L143.64 17.04Q143.64 18.77 143.06 20.46Q142.49 22.15 141.41 23.52L141.41 23.52Q141 24.05 140.45 24.53Q139.90 25.01 139.30 25.38Q138.70 25.75 138.12 25.97Q137.54 26.18 137.09 26.18L137.09 26.18Q136.66 26.18 136.33 26.00Q136.01 25.82 135.89 25.56L135.89 25.56Q136.82 25.01 137.71 24.02Q138.60 23.04 139.36 21.76Q140.11 20.47 140.68 18.98Q141.24 17.50 141.53 15.96L141.53 15.96Q140.62 16.44 139.88 17.00Q139.15 17.57 138.43 18.48L138.43 18.48Q137.57 19.54 137.06 20.18Q136.56 20.83 136.24 21.29Q135.91 21.74 135.71 22.14Q135.50 22.54 135.26 23.11L135.26 23.11Q134.93 23.88 134.48 25.14Q134.04 26.40 133.57 27.96Q133.10 29.52 132.64 31.28Q132.17 33.05 131.74 34.80L131.74 34.80Q131.47 34.75 131.28 34.42L131.28 34.42Q131.09 34.20 131.00 34.10Q130.92 34.01 130.80 33.96ZM147.14 16.82L145.78 16.82Q145.66 16.68 145.56 16.21Q145.46 15.74 145.46 15.41L145.46 15.41Q146.09 15.46 146.66 15.49Q147.24 15.53 147.72 15.55L147.72 15.55Q148.08 14.83 148.50 14.12Q148.92 13.42 149.32 12.83Q149.71 12.24 150.06 11.83Q150.41 11.42 150.60 11.30L150.60 11.30Q150.84 11.30 151.21 11.39Q151.58 11.47 151.97 11.60Q152.35 11.74 152.66 11.88Q152.98 12.02 153.10 12.17L153.10 12.17Q152.38 13.08 151.86 13.86Q151.34 14.64 150.74 15.65L150.74 15.65Q151.22 15.65 151.72 15.62Q152.21 15.60 152.71 15.55L152.71 15.55Q152.83 15.67 152.90 15.85Q152.98 16.03 152.98 16.22L152.98 16.22Q151.80 16.66 150.12 16.70L150.12 16.70Q149.52 17.86 149.05 19.00Q148.58 20.14 148.26 21.19Q147.94 22.25 147.76 23.18Q147.58 24.12 147.58 24.86L147.58 24.86Q147.58 25.92 148.37 26.04L148.37 26.04Q149.09 25.94 149.74 25.68Q150.38 25.42 150.89 25.01L150.89 25.01Q151.03 25.22 151.06 25.37L151.06 25.37Q150.91 25.58 150.56 25.87Q150.22 26.16 149.81 26.44Q149.40 26.71 149.02 26.90Q148.63 27.10 148.44 27.12L148.44 27.12Q147.84 27.10 147.24 26.86Q146.64 26.62 146.15 26.26Q145.66 25.90 145.34 25.45Q145.03 25.01 145.03 24.58L145.03 24.58Q145.03 24 145.19 23.12Q145.34 22.25 145.63 21.22Q145.92 20.18 146.30 19.06Q146.69 17.93 147.14 16.82L147.14 16.82Z"/></svg>