<svg xmlns="http://www.w3.org/2000/svg" xmlns:xlink="http://www.w3.org/1999/xlink" width="247.8719999999999" height="31.2"><path fill="black" d="M-0.50 24.60L-0.26 23.62L1.44 23.62L5.11 8.83L3.41 8.83L3.65 7.85L9.10 7.85L8.86 8.83L7.15 8.83L3.48 23.62L5.18 23.62L4.94 24.60L-0.50 24.60ZM7.03 24.60L7.27 23.62L8.98 23.62L12.65 8.83L10.94 8.83L11.18 7.85L18.50 7.85Q20.18 7.85 21.12 8.65Q22.06 9.46 22.06 11.06L22.06 11.06Q22.06 12.77 21 14.06Q19.94 15.36 18.14 15.84L18.14 15.84L18.10 15.96Q19.34 16.30 20.02 17.14Q20.69 17.98 20.69 19.22L20.69 19.22Q20.69 20.21 20.29 21.17Q19.90 22.13 19.20 22.88Q18.50 23.64 17.56 24.12Q16.61 24.60 15.48 24.60L15.48 24.60L7.03 24.60ZM12.79 16.49L11.04 23.52L14.74 23.52Q16.06 23.52 16.98 22.70Q17.90 21.89 18.26 20.57L18.26 20.57Q18.38 20.21 18.52 19.63Q18.65 19.06 18.65 18.65L18.65 18.65Q18.65 17.66 18.11 17.08Q17.57 16.49 16.49 16.49L16.49 16.49L12.79 16.49ZM14.66 8.93L13.06 15.41L16.42 15.41Q17.62 15.41 18.50 14.63Q19.39 13.85 19.68 12.67L19.68 12.67Q19.78 12.34 19.91 11.78Q20.04 11.23 20.04 10.82L20.04 10.82Q20.04 10.06 19.58 9.49Q19.13 8.93 18.05 8.93L18.05 8.93L14.66 8.93ZM21.84 24.60L22.08 23.62L23.78 23.62L27.46 8.83L25.75 8.83L25.99 7.85L29.95 7.85L31.70 18.07L31.85 18.07L38.81 7.85L43.10 7.85L42.86 8.83L41.16 8.83L37.46 23.62L39.17 23.62L38.93 24.60L33.48 24.60L33.72 23.62L35.42 23.62L38.78 10.15L38.66 10.15L36.22 13.68L30.67 21.79L29.18 13.66L28.54 10.18L28.39 10.18L25.03 23.62L26.74 23.62L26.47 24.60L21.84 24.60ZM46.13 24.60L46.37 23.62L48.07 23.62L51.74 8.83L50.04 8.83L50.28 7.85L57.50 7.85Q59.23 7.85 60.19 8.68Q61.15 9.50 61.15 11.02L61.15 11.02Q61.15 11.42 61.07 12.01Q60.98 12.60 60.76 13.25Q60.53 13.90 60.13 14.53Q59.74 15.17 59.10 15.68Q58.46 16.20 57.56 16.51Q56.66 16.82 55.44 16.82L55.44 16.82L51.82 16.82L50.11 23.62L52.30 23.62L52.06 24.60L46.13 24.60ZM53.76 8.93L52.08 15.74L55.49 15.74Q56.71 15.74 57.59 14.94Q58.46 14.14 58.78 12.91L58.78 12.91Q58.85 12.60 59.00 11.99Q59.16 11.38 59.16 10.90L59.16 10.90Q59.16 10.03 58.69 9.48Q58.22 8.93 57.24 8.93L57.24 8.93L53.76 8.93ZM62.95 24.89L62.95 24.89Q62.26 24.89 61.90 24.47Q61.54 24.05 61.54 23.50L61.54 23.50Q61.54 23.23 61.60 22.94Q61.66 22.66 61.70 22.42L61.70 22.42L65.28 8.11L63.12 8.11L63.31 7.27L67.63 6.36L63.38 23.33L63.82 23.52L66.58 20.76L67.15 21.22L65.45 23.21Q64.61 24.22 64.04 24.55Q63.48 24.89 62.95 24.89ZM71.45 24.89L71.45 24.89Q69.82 24.89 69.10 23.95Q68.38 23.02 68.38 21.12L68.38 21.12Q68.38 20.23 68.53 19.20Q68.69 18.17 69.02 17.15Q69.36 16.13 69.88 15.18Q70.39 14.23 71.10 13.51Q71.81 12.79 72.71 12.36Q73.61 11.93 74.74 11.93L74.74 11.93Q75.24 11.93 75.76 12.04Q76.27 12.14 76.70 12.42Q77.14 12.70 77.41 13.15Q77.69 13.61 77.69 14.30L77.69 14.30Q77.69 15.00 77.36 15.67Q77.04 16.34 76.25 16.90Q75.46 17.45 74.12 17.83Q72.79 18.22 70.80 18.36L70.80 18.36Q70.63 19.10 70.50 19.91Q70.37 20.71 70.37 21.38L70.37 21.38Q70.37 22.39 70.76 22.96Q71.16 23.52 72.02 23.52L72.02 23.52Q73.10 23.52 74.10 22.61Q75.10 21.70 76.01 20.06L76.01 20.06L76.75 20.42Q76.15 21.58 75.58 22.43Q75 23.28 74.36 23.82Q73.73 24.36 73.02 24.62Q72.31 24.89 71.45 24.89ZM70.97 17.62L70.97 17.62Q73.51 17.33 74.68 16.58Q75.84 15.84 75.84 14.47L75.84 14.47Q75.84 13.80 75.54 13.36Q75.24 12.91 74.42 12.91L74.42 12.91Q73.90 12.91 73.42 13.14Q72.94 13.37 72.50 13.92Q72.07 14.47 71.69 15.37Q71.30 16.27 70.97 17.62ZM79.49 24.89L79.49 24.89Q78.55 24.89 78.06 24.47Q77.57 24.05 77.57 23.40L77.57 23.40Q77.57 22.75 77.98 22.28Q78.38 21.82 79.03 21.82L79.03 21.82Q79.58 21.82 79.88 22.13Q80.18 22.44 80.18 22.92L80.18 22.92Q80.18 23.26 80.06 23.54Q79.94 23.83 79.75 24L79.75 24L79.87 24.12Q80.78 23.93 81.76 22.48Q82.73 21.02 83.64 18.65L83.64 18.65L82.42 13.56L82.03 13.46L79.85 15.65L79.32 15.17L80.66 13.63Q81.53 12.65 82.01 12.29Q82.49 11.93 82.97 11.93L82.97 11.93Q83.52 11.93 83.82 12.22Q84.12 12.50 84.22 12.94L84.22 12.94L84.96 16.92L85.15 16.92Q85.44 16.20 85.79 15.38Q86.14 14.57 86.59 13.90L86.59 13.90Q87.22 12.96 87.96 12.44Q88.70 11.93 89.57 11.93L89.57 11.93Q90.50 11.93 91.00 12.35Q91.49 12.77 91.49 13.42L91.49 13.42Q91.49 14.06 91.08 14.53Q90.67 15.00 90.02 15.00L90.02 15.00Q89.47 15.00 89.17 14.69Q88.87 14.38 88.87 13.90L88.87 13.90Q88.87 13.56 88.99 13.27Q89.11 12.98 89.30 12.82L89.30 12.82L89.18 12.70Q88.27 12.89 87.30 14.35Q86.33 15.82 85.42 18.19L85.42 18.19L86.64 23.26L87.02 23.35L89.21 21.17L89.74 21.65L88.39 23.18Q87.98 23.69 87.66 24.01Q87.34 24.34 87.07 24.54Q86.81 24.74 86.57 24.82Q86.33 24.89 86.09 24.89L86.09 24.89Q85.56 24.89 85.24 24.60Q84.91 24.31 84.84 23.88L84.84 23.88L84.10 19.90L83.90 19.90Q83.62 20.62 83.27 21.43Q82.92 22.25 82.46 22.92L82.46 22.92Q81.84 23.86 81.10 24.37Q80.35 24.89 79.49 24.89ZM101.76 24.89L101.76 24.89Q100.42 24.89 99.52 24.40Q98.62 23.90 98.47 23.04L98.47 23.04L98.33 23.04L97.94 24.60L96.31 24.60L97.54 19.68L99.17 19.68L98.86 20.83Q98.74 21.31 98.74 21.65L98.74 21.65Q98.74 22.56 99.40 23.14Q100.06 23.71 101.57 23.71L101.57 23.71Q102.58 23.71 103.42 23.42Q104.26 23.14 104.86 22.62Q105.46 22.10 105.79 21.38Q106.13 20.66 106.13 19.82L106.13 19.82Q106.13 18.70 105.53 18.12Q104.93 17.54 103.85 17.09L103.85 17.09L102.70 16.61Q101.09 15.94 100.33 15.04Q99.58 14.14 99.58 12.62L99.58 12.62Q99.58 11.52 100.03 10.58Q100.49 9.65 101.28 8.98Q102.07 8.30 103.14 7.93Q104.21 7.56 105.43 7.56L105.43 7.56Q106.73 7.56 107.57 7.99Q108.41 8.42 108.55 9.24L108.55 9.24L108.70 9.24L109.06 7.85L110.69 7.85L109.51 12.53L107.88 12.53L108.17 11.38Q108.22 11.14 108.24 10.94Q108.26 10.75 108.26 10.61L108.26 10.61Q108.26 9.72 107.58 9.23Q106.90 8.74 105.53 8.74L105.53 8.74Q104.47 8.74 103.72 9.01Q102.96 9.29 102.47 9.76Q101.98 10.22 101.74 10.82Q101.50 11.42 101.50 12.05L101.50 12.05Q101.50 13.10 102.12 13.73Q102.74 14.35 103.94 14.86L103.94 14.86L105.00 15.29Q106.66 15.98 107.35 16.88Q108.05 17.78 108.05 19.18L108.05 19.18Q108.05 20.33 107.58 21.36Q107.11 22.39 106.27 23.18Q105.43 23.98 104.28 24.43Q103.13 24.89 101.76 24.89ZM113.71 24.89L113.71 24.89Q112.08 24.89 111.36 23.95Q110.64 23.02 110.64 21.12L110.64 21.12Q110.64 20.23 110.80 19.20Q110.95 18.17 111.29 17.15Q111.62 16.13 112.14 15.18Q112.66 14.23 113.36 13.51Q114.07 12.79 114.97 12.36Q115.87 11.93 117.00 11.93L117.00 11.93Q117.50 11.93 118.02 12.04Q118.54 12.14 118.97 12.42Q119.40 12.70 119.68 13.15Q119.95 13.61 119.95 14.30L119.95 14.30Q119.95 15.00 119.63 15.67Q119.30 16.34 118.51 16.90Q117.72 17.45 116.39 17.83Q115.06 18.22 113.06 18.36L113.06 18.36Q112.90 19.10 112.76 19.91Q112.63 20.71 112.63 21.38L112.63 21.38Q112.63 22.39 113.03 22.96Q113.42 23.52 114.29 23.52L114.29 23.52Q115.37 23.52 116.36 22.61Q117.36 21.70 118.27 20.06L118.27 20.06L119.02 20.42Q118.42 21.58 117.84 22.43Q117.26 23.28 116.63 23.82Q115.99 24.36 115.28 24.62Q114.58 24.89 113.71 24.89ZM113.23 17.62L113.23 17.62Q115.78 17.33 116.94 16.58Q118.10 15.84 118.10 14.47L118.10 14.47Q118.10 13.80 117.80 13.36Q117.50 12.91 116.69 12.91L116.69 12.91Q116.16 12.91 115.68 13.14Q115.20 13.37 114.77 13.92Q114.34 14.47 113.95 15.37Q113.57 16.27 113.23 17.62ZM121.22 24.60L123.94 13.68L121.78 13.68L121.97 12.84L126.24 11.93L125.06 16.61L125.26 16.68Q125.71 15.58 126.16 14.69Q126.60 13.80 127.10 13.19Q127.61 12.58 128.20 12.25Q128.78 11.93 129.50 11.93L129.50 11.93Q130.42 11.93 130.90 12.37Q131.38 12.82 131.38 13.49L131.38 13.49Q131.38 14.11 130.97 14.59Q130.56 15.07 129.89 15.07L129.89 15.07Q129.34 15.07 129.02 14.75Q128.71 14.42 128.71 13.94L128.71 13.94Q128.71 13.63 128.86 13.34Q129.00 13.06 129.19 12.89L129.19 12.89L129.05 12.74Q128.30 12.86 127.51 13.87Q126.72 14.88 125.95 16.42L125.95 16.42Q125.78 16.75 125.51 17.36Q125.23 17.98 124.92 18.72Q124.61 19.46 124.31 20.28Q124.01 21.10 123.84 21.82L123.84 21.82L123.14 24.60L121.22 24.60ZM133.51 24.89L133.51 24.89Q132.82 24.89 132.46 24.47Q132.10 24.05 132.10 23.50L132.10 23.50Q132.10 23.23 132.16 22.94Q132.22 22.66 132.26 22.42L132.26 22.42L134.42 13.68L132.26 13.68L132.46 12.84L136.80 11.93L133.94 23.33L134.38 23.52L137.14 20.76L137.71 21.22L136.01 23.21Q135.17 24.22 134.60 24.55Q134.04 24.89 133.51 24.89ZM136.46 9.29L136.46 9.29Q135.91 9.29 135.64 8.98Q135.36 8.66 135.36 8.30L135.36 8.30Q135.36 8.21 135.36 8.09Q135.36 7.97 135.41 7.85L135.41 7.85Q135.53 7.37 135.89 7.07Q136.25 6.77 136.80 6.77L136.80 6.77Q137.35 6.77 137.63 7.08Q137.90 7.39 137.90 7.75L137.90 7.75Q137.90 7.85 137.90 7.97Q137.90 8.09 137.86 8.21L137.86 8.21Q137.74 8.69 137.38 8.99Q137.02 9.29 136.46 9.29ZM136.08 29.69L136.08 29.69Q134.90 29.69 134.42 29.24Q133.94 28.80 133.94 28.18L133.94 28.18Q133.94 27.58 134.30 27.17Q134.66 26.76 135.26 26.76L135.26 26.76Q135.82 26.76 136.12 27.08Q136.42 27.41 136.42 27.89L136.42 27.89Q136.42 28.10 136.31 28.39Q136.20 28.68 135.86 28.90L135.86 28.90L135.96 29.06Q137.09 29.06 137.66 28.25Q138.24 27.43 138.58 26.04L138.58 26.04L141.74 13.30L139.56 13.30L139.82 12.22L142.03 12.22L142.46 10.39Q142.68 9.50 143.10 8.76Q143.52 8.02 144.13 7.49Q144.74 6.96 145.54 6.66Q146.33 6.36 147.24 6.36L147.24 6.36Q148.42 6.36 148.90 6.80Q149.38 7.25 149.38 7.87L149.38 7.87Q149.38 8.47 149.02 8.88Q148.66 9.29 148.06 9.29L148.06 9.29Q147.50 9.29 147.20 8.96Q146.90 8.64 146.90 8.16L146.90 8.16Q146.90 7.94 147.01 7.66Q147.12 7.37 147.46 7.15L147.46 7.15L147.36 6.98Q146.21 6.98 145.52 7.79Q144.84 8.59 144.50 10.01L144.50 10.01L143.95 12.22L146.57 12.22L146.30 13.30L143.69 13.30L140.62 25.66Q140.40 26.54 139.98 27.29Q139.56 28.03 138.98 28.56Q138.41 29.09 137.68 29.39Q136.94 29.69 136.08 29.69ZM156.72 24.60L157.58 21.19L150.53 21.19L150.84 19.92L160.90 7.85L162.82 7.85L159.79 19.87L161.98 19.87L161.66 21.19L159.48 21.19L158.62 24.60L156.72 24.60ZM160.27 10.03L152.16 19.87L157.90 19.87L160.37 10.03L160.27 10.03ZM168.67 23.81L168.67 23.81Q169.63 23.81 170.39 23.39Q171.14 22.97 171.73 22.19Q172.32 21.41 172.78 20.29Q173.23 19.18 173.57 17.76L173.57 17.76Q173.93 16.39 174.17 15.43Q174.41 14.47 174.56 13.76Q174.72 13.06 174.79 12.52Q174.86 11.98 174.86 11.45L174.86 11.45Q174.86 10.15 174.35 9.40Q173.83 8.64 172.61 8.64L172.61 8.64Q171.65 8.64 170.89 9.06Q170.14 9.48 169.55 10.26Q168.96 11.04 168.50 12.16Q168.05 13.27 167.71 14.69L167.71 14.69Q167.35 16.06 167.11 17.02Q166.87 17.98 166.72 18.68Q166.56 19.39 166.49 19.93Q166.42 20.47 166.42 21L166.42 21Q166.42 22.30 166.93 23.05Q167.45 23.81 168.67 23.81ZM168.62 24.89L168.62 24.89Q166.63 24.89 165.64 23.69Q164.64 22.49 164.64 20.14L164.64 20.14Q164.64 19.25 164.82 17.98Q165.00 16.70 165.40 15.30Q165.79 13.90 166.43 12.52Q167.06 11.14 167.95 10.03Q168.84 8.93 170.00 8.24Q171.17 7.56 172.66 7.56L172.66 7.56Q174.65 7.56 175.64 8.76Q176.64 9.96 176.64 12.31L176.64 12.31Q176.64 13.20 176.46 14.47Q176.28 15.74 175.88 17.15Q175.49 18.55 174.85 19.93Q174.22 21.31 173.33 22.42Q172.44 23.52 171.28 24.20Q170.11 24.89 168.62 24.89ZM181.87 23.81L181.87 23.81Q182.83 23.81 183.59 23.39Q184.34 22.97 184.93 22.19Q185.52 21.41 185.98 20.29Q186.43 19.18 186.77 17.76L186.77 17.76Q187.13 16.39 187.37 15.43Q187.61 14.47 187.76 13.76Q187.92 13.06 187.99 12.52Q188.06 11.98 188.06 11.45L188.06 11.45Q188.06 10.15 187.55 9.40Q187.03 8.64 185.81 8.64L185.81 8.64Q184.85 8.64 184.09 9.06Q183.34 9.48 182.75 10.26Q182.16 11.04 181.70 12.16Q181.25 13.27 180.91 14.69L180.91 14.69Q180.55 16.06 180.31 17.02Q180.07 17.98 179.92 18.68Q179.76 19.39 179.69 19.93Q179.62 20.47 179.62 21L179.62 21Q179.62 22.30 180.13 23.05Q180.65 23.81 181.87 23.81ZM181.82 24.89L181.82 24.89Q179.83 24.89 178.84 23.69Q177.84 22.49 177.84 20.14L177.84 20.14Q177.84 19.25 178.02 17.98Q178.20 16.70 178.60 15.30Q178.99 13.90 179.63 12.52Q180.26 11.14 181.15 10.03Q182.04 8.93 183.20 8.24Q184.37 7.56 185.86 7.56L185.86 7.56Q187.85 7.56 188.84 8.76Q189.84 9.96 189.84 12.31L189.84 12.31Q189.84 13.20 189.66 14.47Q189.48 15.74 189.08 17.15Q188.69 18.55 188.05 19.93Q187.42 21.31 186.53 22.42Q185.64 23.52 184.48 24.20Q183.31 24.89 181.82 24.89ZM197.71 24.89L197.71 24.89Q197.02 24.89 196.66 24.47Q196.30 24.05 196.30 23.50L196.30 23.50Q196.30 23.23 196.36 22.94Q196.42 22.66 196.46 22.42L196.46 22.42L198.62 13.68L196.46 13.68L196.66 12.84L201.00 11.93L198.14 23.33L198.58 23.52L201.34 20.76L201.91 21.22L200.21 23.21Q199.37 24.22 198.80 24.55Q198.24 24.89 197.71 24.89ZM200.66 9.29L200.66 9.29Q200.11 9.29 199.84 8.98Q199.56 8.66 199.56 8.30L199.56 8.30Q199.56 8.21 199.56 8.09Q199.56 7.97 199.61 7.85L199.61 7.85Q199.73 7.37 200.09 7.07Q200.45 6.77 201.00 6.77L201.00 6.77Q201.55 6.77 201.83 7.08Q202.10 7.39 202.10 7.75L202.10 7.75Q202.10 7.85 202.10 7.97Q202.10 8.09 202.06 8.21L202.06 8.21Q201.94 8.69 201.58 8.99Q201.22 9.29 200.66 9.29ZM204.96 24.89L204.96 24.89Q204.24 24.89 203.89 24.47Q203.54 24.05 203.54 23.50L203.54 23.50Q203.54 23.23 203.62 22.93Q203.69 22.63 203.74 22.42L203.74 22.42L206.02 13.30L203.86 13.30L204.12 12.22L205.20 12.22Q205.90 12.22 206.21 11.96Q206.52 11.71 206.81 11.16L206.81 11.16L207.91 9.00L209.02 9.00L208.20 12.22L211.32 12.22L211.06 13.30L207.94 13.30L205.44 23.30L205.82 23.52L209.28 20.98L209.81 21.55L207.38 23.59Q206.88 24.02 206.54 24.28Q206.21 24.53 205.94 24.66Q205.68 24.79 205.45 24.84Q205.22 24.89 204.96 24.89ZM213.86 24.89L213.86 24.89Q212.64 24.89 212.09 23.99Q211.54 23.09 211.54 21.41L211.54 21.41Q211.54 20.42 211.73 19.34Q211.92 18.26 212.28 17.21Q212.64 16.15 213.18 15.19Q213.72 14.23 214.40 13.51Q215.09 12.79 215.93 12.36Q216.77 11.93 217.73 11.93L217.73 11.93Q218.81 11.93 219.41 12.42Q220.01 12.91 220.32 13.92L220.32 13.92L220.51 13.92L221.47 12.22L222.48 12.22L219.65 23.33L220.08 23.52L222.84 20.76L223.42 21.22L221.71 23.21Q220.85 24.22 220.32 24.55Q219.79 24.89 219.29 24.89L219.29 24.89Q218.57 24.89 218.24 24.49Q217.92 24.10 217.92 23.54L217.92 23.54Q217.92 23.28 217.98 22.92Q218.04 22.56 218.09 22.34L218.09 22.34L218.66 20.09L218.47 20.02Q217.97 21.10 217.48 22.00Q216.98 22.90 216.42 23.53Q215.86 24.17 215.23 24.53Q214.61 24.89 213.86 24.89ZM214.51 23.35L214.51 23.35Q215.02 23.35 215.54 22.98Q216.07 22.61 216.59 22.00Q217.10 21.38 217.57 20.62Q218.04 19.85 218.44 19.04Q218.83 18.24 219.13 17.48Q219.43 16.73 219.60 16.15L219.60 16.15L219.70 15.82Q220.03 14.66 219.66 13.91Q219.29 13.15 218.23 13.15L218.23 13.15Q216.94 13.15 215.86 14.30Q214.78 15.46 214.18 17.66L214.18 17.66Q214.08 18.05 213.97 18.55Q213.86 19.06 213.77 19.58Q213.67 20.11 213.61 20.59Q213.55 21.07 213.55 21.41L213.55 21.41Q213.55 22.34 213.74 22.85Q213.94 23.35 214.51 23.35ZM225.98 24.89L225.98 24.89Q225.29 24.89 224.93 24.47Q224.57 24.05 224.57 23.50L224.57 23.50Q224.57 23.23 224.63 22.94Q224.69 22.66 224.74 22.42L224.74 22.42L228.31 8.11L226.15 8.11L226.34 7.27L230.66 6.36L226.42 23.33L226.85 23.52L229.61 20.76L230.18 21.22L228.48 23.21Q227.64 24.22 227.08 24.55Q226.51 24.89 225.98 24.89ZM233.11 24.89L233.11 24.89Q232.42 24.89 232.06 24.47Q231.70 24.05 231.70 23.50L231.70 23.50Q231.70 23.23 231.76 22.94Q231.82 22.66 231.86 22.42L231.86 22.42L234.02 13.68L231.86 13.68L232.06 12.84L236.40 11.93L233.54 23.33L233.98 23.52L236.74 20.76L237.31 21.22L235.61 23.21Q234.77 24.22 234.20 24.55Q233.64 24.89 233.11 24.89ZM236.06 9.29L236.06 9.29Q235.51 9.29 235.24 8.98Q234.96 8.66 234.96 8.30L234.96 8.30Q234.96 8.21 234.96 8.09Q234.96 7.97 235.01 7.85L235.01 7.85Q235.13 7.37 235.49 7.07Q235.85 6.77 236.40 6.77L236.40 6.77Q236.95 6.77 237.23 7.08Q237.50 7.39 237.50 7.75L237.50 7.75Q237.50 7.85 237.50 7.97Q237.50 8.09 237.46 8.21L237.46 8.21Q237.34 8.69 236.98 8.99Q236.62 9.29 236.06 9.29ZM241.66 24.89L241.66 24.89Q240.07 24.89 239.34 23.96Q238.61 23.04 238.61 21.24L238.61 21.24Q238.61 20.33 238.76 19.28Q238.92 18.24 239.24 17.21Q239.57 16.18 240.07 15.23Q240.58 14.28 241.26 13.55Q241.94 12.82 242.83 12.37Q243.72 11.93 244.80 11.93L244.80 11.93Q246.12 11.93 246.91 12.59Q247.70 13.25 247.70 14.28L247.70 14.28Q247.70 15.07 247.26 15.60Q246.82 16.13 246.05 16.13L246.05 16.13Q245.42 16.13 245.15 15.82Q244.87 15.50 244.87 15.02L244.87 15.02Q244.87 14.50 245.26 14.00Q245.64 13.51 246.53 13.46L246.53 13.46L246.53 13.30Q245.98 12.89 244.90 12.89L244.90 12.89Q244.32 12.89 243.80 13.10Q243.29 13.32 242.82 13.86Q242.35 14.40 241.94 15.32Q241.54 16.25 241.20 17.66L241.20 17.66Q241.10 18.05 241.00 18.53Q240.89 19.01 240.80 19.51Q240.72 20.02 240.66 20.51Q240.60 21 240.60 21.41L240.60 21.41Q240.60 22.39 241.00 22.96Q241.39 23.52 242.23 23.52L242.23 23.52Q243.31 23.52 244.31 22.61Q245.30 21.70 246.22 20.06L246.22 20.06L246.96 20.42Q246.36 21.58 245.78 22.43Q245.21 23.28 244.57 23.82Q243.94 24.36 243.23 24.62Q242.52 24.89 241.66 24.89Z"/></svg>