<svg xmlns="http://www.w3.org/2000/svg" xmlns:xlink="http://www.w3.org/1999/xlink" width="271.848" height="25.32"><path fill="black" d="M20.95 5.11L20.95 5.11L25.30 5.11Q25.30 7.94 24.73 10.49Q24.17 13.03 23.36 14.64Q22.56 16.25 21.74 17.44Q20.93 18.62 20.35 19.13L20.35 19.13L19.80 19.66L14.35 19.66L12.55 13.82Q12.22 14.95 11.51 16.40Q10.80 17.86 10.25 18.74L10.25 18.74L9.70 19.66L4.49 19.66L0 5.11L7.61 5.11L8.98 14.57Q9.34 14.21 9.88 13.26Q10.42 12.31 10.79 11.32Q11.16 10.32 11.48 8.65Q11.81 6.98 11.83 5.11L11.83 5.11L16.99 5.11L18.36 14.57Q20.04 12.46 20.69 8.66L20.69 8.66Q20.95 6.98 20.95 5.11ZM33 19.90L33 19.90Q30.29 19.90 28.45 18.32Q26.62 16.75 26.62 13.70L26.62 13.70Q26.62 11.78 27.55 10.44L27.55 10.44Q29.26 7.94 32.83 7.94L32.83 7.94Q35.57 7.94 37.01 9.04Q38.45 10.13 38.45 12.05L38.45 12.05Q38.45 13.54 37.26 14.46Q36.07 15.38 33.79 15.38L33.79 15.38Q32.86 15.38 32.11 15.24L32.11 15.24L31.85 15.19Q31.97 16.06 32.60 16.48Q33.24 16.90 34.13 16.90L34.13 16.90Q35.59 16.90 36.62 16.01L36.62 16.01L38.11 17.81Q37.73 18.26 37.20 18.66Q36.67 19.06 35.52 19.48Q34.37 19.90 33 19.90ZM34.94 11.83Q34.94 11.35 34.57 11.04Q34.20 10.73 33.55 10.73Q32.90 10.73 32.34 11.30Q31.78 11.88 31.78 12.67L31.78 12.67Q32.30 12.91 33.16 12.91Q34.01 12.91 34.48 12.61Q34.94 12.31 34.94 11.83ZM48.84 7.94L48.84 7.94Q50.52 7.94 51.73 9.36Q52.94 10.78 52.94 13.04Q52.94 15.31 52.39 19.66L52.39 19.66L48.19 19.66L47.71 14.28Q47.47 11.71 46.32 11.71L46.32 11.71Q44.95 11.71 44.86 14.30L44.86 14.30L44.69 19.66L40.27 19.66L39.77 8.28L45.19 8.28L45.10 10.32Q45.22 10.08 45.65 9.58Q46.08 9.07 46.49 8.76L46.49 8.76Q47.54 7.94 48.84 7.94ZM54.26 13.70L54.26 13.70Q54.26 12.05 54.73 10.85Q55.20 9.65 55.97 9.05L55.97 9.05Q57.38 7.94 59.11 7.94L59.11 7.94Q59.98 7.94 60.71 8.29Q61.44 8.64 61.73 9.00L61.73 9.00L62.02 9.34L61.82 4.08L67.30 4.08L66.65 19.66L63.05 19.66L62.64 18.10Q61.20 19.87 59.10 19.88Q57 19.90 55.63 18.31Q54.26 16.73 54.26 13.70ZM60.65 11.16L60.65 11.16Q59.23 11.16 59.23 14.04L59.23 14.04Q59.23 14.57 59.30 15.05Q59.38 15.53 59.74 16.06Q60.10 16.58 60.79 16.58Q61.49 16.58 61.86 15.80Q62.23 15.02 62.23 14.04L62.23 14.04Q62.23 11.16 60.65 11.16ZM77.06 16.99L77.06 16.99L77.06 16.80Q76.99 17.21 76.69 17.70Q76.39 18.19 76.03 18.53Q75.67 18.86 75.01 19.13Q74.35 19.39 73.27 19.39Q72.19 19.39 71.23 18.90Q70.27 18.41 69.74 17.54L69.74 17.54Q68.74 15.94 68.74 14.00Q68.74 12.07 69.29 8.28L69.29 8.28L73.94 8.28L73.94 13.46Q73.94 16.10 75.50 16.10L75.50 16.10Q76.20 16.10 76.54 15.48Q76.87 14.86 76.87 13.90L76.87 13.90Q76.87 13.78 76.87 13.63L76.87 13.63L76.66 8.28L82.06 8.28L81.72 15.65Q81.65 17.21 81.49 18.31Q81.34 19.42 80.92 20.58Q80.50 21.74 79.82 22.46L79.82 22.46Q78.26 24.10 75.19 24.10L75.19 24.10Q73.03 24.10 71.14 22.75L71.14 22.75L70.92 22.61L71.93 20.54Q73.08 21.07 74.09 21.07L74.09 21.07Q75.48 21.07 76.27 20.00Q77.06 18.94 77.06 16.99ZM87.94 12.48Q87.94 8.71 90.13 6.74Q92.33 4.78 96.42 4.78Q100.51 4.78 102.71 6.74Q104.90 8.71 104.90 12.48Q104.90 16.25 102.59 18.07Q100.27 19.90 96.42 19.90Q92.57 19.90 90.25 18.07Q87.94 16.25 87.94 12.48ZM98.52 12.38Q98.52 7.54 96.42 7.54Q94.32 7.54 94.32 12.38Q94.32 17.23 96.42 17.23Q98.52 17.23 98.52 12.38ZM115.18 7.94L115.18 7.94Q116.86 7.94 118.07 9.36Q119.28 10.78 119.28 13.04Q119.28 15.31 118.73 19.66L118.73 19.66L114.53 19.66L114.05 14.28Q113.81 11.71 112.66 11.71L112.66 11.71Q111.29 11.71 111.19 14.30L111.19 14.30L111.02 19.66L106.61 19.66L106.10 8.28L111.53 8.28L111.43 10.32Q111.55 10.08 111.98 9.58Q112.42 9.07 112.82 8.76L112.82 8.76Q113.88 7.94 115.18 7.94ZM126.98 19.90L126.98 19.90Q124.27 19.90 122.44 18.32Q120.60 16.75 120.60 13.70L120.60 13.70Q120.60 11.78 121.54 10.44L121.54 10.44Q123.24 7.94 126.82 7.94L126.82 7.94Q129.55 7.94 130.99 9.04Q132.43 10.13 132.43 12.05L132.43 12.05Q132.43 13.54 131.24 14.46Q130.06 15.38 127.78 15.38L127.78 15.38Q126.84 15.38 126.10 15.24L126.10 15.24L125.83 15.19Q125.95 16.06 126.59 16.48Q127.22 16.90 128.11 16.90L128.11 16.90Q129.58 16.90 130.61 16.01L130.61 16.01L132.10 17.81Q131.71 18.26 131.18 18.66Q130.66 19.06 129.50 19.48Q128.35 19.90 126.98 19.90ZM128.93 11.83Q128.93 11.35 128.56 11.04Q128.18 10.73 127.54 10.73Q126.89 10.73 126.32 11.30Q125.76 11.88 125.76 12.67L125.76 12.67Q126.29 12.91 127.14 12.91Q127.99 12.91 128.46 12.61Q128.93 12.31 128.93 11.83ZM138.50 12.58L141.91 5.11L150.77 5.11L150.02 12.58L151.56 12.58L151.13 16.01L149.66 16.01L149.30 19.66L145.13 19.66L144.77 16.01L138.31 16.01L138.50 12.58ZM144.41 12.58L144.02 8.57L142.15 12.58L144.41 12.58ZM161.27 8.95Q160.92 7.85 159.91 7.85Q158.90 7.85 158.56 8.95Q158.21 10.06 158.21 12.36L158.21 12.36Q158.21 16.80 159.91 16.80Q161.62 16.80 161.62 12.36L161.62 12.36Q161.62 10.06 161.27 8.95ZM165.14 17.89Q162.98 19.90 159.91 19.90Q156.84 19.90 154.68 17.89Q152.52 15.89 152.52 12.41Q152.52 8.93 154.51 6.85Q156.50 4.78 159.91 4.78Q163.32 4.78 165.31 6.85Q167.30 8.93 167.30 12.41Q167.30 15.89 165.14 17.89ZM177.01 8.95Q176.66 7.85 175.66 7.85Q174.65 7.85 174.30 8.95Q173.95 10.06 173.95 12.36L173.95 12.36Q173.95 16.80 175.66 16.80Q177.36 16.80 177.36 12.36L177.36 12.36Q177.36 10.06 177.01 8.95ZM180.89 17.89Q178.73 19.90 175.66 19.90Q172.58 19.90 170.42 17.89Q168.26 15.89 168.26 12.41Q168.26 8.93 170.26 6.85Q172.25 4.78 175.66 4.78Q179.06 4.78 181.06 6.85Q183.05 8.93 183.05 12.41Q183.05 15.89 180.89 17.89ZM198.12 7.94L198.12 7.94Q199.80 7.94 201.01 9.36Q202.22 10.78 202.22 13.04Q202.22 15.31 201.67 19.66L201.67 19.66L197.47 19.66L196.99 14.28Q196.75 11.71 195.60 11.71L195.60 11.71Q194.23 11.71 194.14 14.30L194.14 14.30L193.97 19.66L189.55 19.66L189.05 8.28L194.47 8.28L194.38 10.32Q194.50 10.08 194.93 9.58Q195.36 9.07 195.77 8.76L195.77 8.76Q196.82 7.94 198.12 7.94ZM205.28 18.47Q203.54 17.04 203.54 13.92Q203.54 10.80 205.28 9.37Q207.02 7.94 209.93 7.94Q212.83 7.94 214.57 9.37Q216.31 10.80 216.31 13.92Q216.31 17.04 214.57 18.47Q212.83 19.90 209.93 19.90Q207.02 19.90 205.28 18.47ZM208.92 11.20Q208.63 12.02 208.63 13.92Q208.63 15.82 208.92 16.64Q209.21 17.47 209.93 17.47Q210.65 17.47 210.94 16.64Q211.22 15.82 211.22 13.92Q211.22 12.02 210.94 11.20Q210.65 10.37 209.93 10.37Q209.21 10.37 208.92 11.20ZM222.36 8.28L222.96 9.84Q224.23 7.94 226.10 7.94L226.10 7.94Q226.99 7.94 227.74 8.38L227.74 8.38L227.16 12.31Q226.20 11.64 225 11.64L225 11.64Q223.85 11.64 223.44 12.60L223.44 12.60Q223.20 13.20 223.13 13.75L223.13 13.75L222.67 19.66L218.35 19.66L217.63 8.28L222.36 8.28ZM245.77 7.94Q247.70 7.94 248.64 9.48Q249.58 11.02 249.58 13.16Q249.58 15.31 249.02 19.66L249.02 19.66L244.82 19.66L244.30 14.09Q244.15 12.65 243.91 12.17Q243.67 11.69 243.10 11.69L243.10 11.69Q241.73 11.69 241.56 14.11L241.56 14.11L241.15 19.66L236.88 19.66L236.35 14.09Q236.21 12.65 235.97 12.17Q235.73 11.69 235.15 11.69L235.15 11.69Q233.74 11.69 233.62 14.11L233.62 14.11L233.38 19.66L228.96 19.66L228.46 8.28L233.88 8.28L233.78 10.56Q233.83 10.46 233.92 10.28Q234.00 10.10 234.35 9.65Q234.70 9.19 235.13 8.86Q235.56 8.52 236.32 8.23Q237.07 7.94 237.94 7.94L237.94 7.94Q239.33 7.94 240.20 8.83Q241.08 9.72 241.34 10.80L241.34 10.80Q241.70 10.20 241.97 9.84Q242.23 9.48 242.76 8.98L242.76 8.98Q243.84 7.94 245.77 7.94ZM255.12 19.90L255.12 19.90Q253.27 19.90 252.08 18.82Q250.90 17.74 250.90 15.76Q250.90 13.78 252.24 12.88Q253.58 11.98 255.48 11.98Q257.38 11.98 258.77 12.58L258.77 12.58Q258.46 10.58 256.25 10.58L256.25 10.58Q255.24 10.58 253.75 10.99L253.75 10.99L253.15 8.83Q255.31 7.94 257.54 7.94L257.54 7.94Q263.98 7.94 263.98 13.42L263.98 13.42Q263.98 15.29 263.54 18.60L263.54 18.60L263.42 19.66L259.46 19.66L259.32 18.34Q257.69 19.90 255.12 19.90ZM257.28 16.92L257.28 16.92Q258.36 16.92 259.13 16.32L259.13 16.32L258.98 14.74Q258.38 14.33 257.65 14.33Q256.92 14.33 256.45 14.69Q255.98 15.05 255.98 15.58Q255.98 16.10 256.34 16.51Q256.70 16.92 257.28 16.92ZM265.42 4.08L271.13 4.08L270.48 19.66L266.06 19.66L265.42 4.08Z"/></svg>