<svg xmlns="http://www.w3.org/2000/svg" xmlns:xlink="http://www.w3.org/1999/xlink" width="192.50400000000005" height="27.6"><path fill="black" d="M7.75 8.59L7.75 17.52Q7.75 18.36 7.56 19.08Q7.37 19.80 6.95 20.46Q6.53 21.12 5.71 21.50Q4.90 21.89 3.77 21.89L3.77 21.89Q2.06 21.89 1.12 21.20Q0.17 20.52 0.17 19.73L0.17 19.73Q0.17 19.18 0.46 18.85Q0.74 18.53 1.20 18.53L1.20 18.53Q1.63 18.53 1.96 18.74Q2.28 18.96 2.28 19.37L2.28 19.37Q2.28 20.18 1.68 20.38L1.68 20.38Q2.33 21.02 3.53 21.02L3.53 21.02Q4.08 21.02 4.46 20.82Q4.85 20.62 5.06 20.29Q5.28 19.97 5.39 19.36Q5.50 18.74 5.52 18.18Q5.54 17.62 5.54 16.66L5.54 16.66L5.54 8.59Q5.33 8.11 4.03 8.11L4.03 8.11L4.03 7.61L9.26 7.61L9.26 8.11Q7.97 8.11 7.75 8.59L7.75 8.59ZM21.05 11.09L21.05 20.18Q21.05 20.18 22.56 20.30L22.56 20.30L22.56 20.86Q22.10 20.86 20.77 21.37Q19.44 21.89 18.89 21.89L18.89 21.89L18.89 20.78Q17.59 21.89 16.03 21.89L16.03 21.89Q13.80 21.89 12.80 21.06Q11.81 20.23 11.81 18.48L11.81 18.48L11.81 12.07Q11.59 11.59 10.30 11.59L10.30 11.59L10.30 11.09L13.97 11.09L13.97 18.65Q13.97 21.07 16.18 21.07L16.18 21.07Q17.69 21.07 18.89 20.02L18.89 20.02L18.89 12.07Q18.67 11.59 17.38 11.59L17.38 11.59L17.38 11.09L21.05 11.09ZM31.80 11.33L31.80 11.33L31.80 8.23Q31.80 8.23 30.29 8.11L30.29 8.11L30.29 7.56Q30.74 7.56 32.08 7.04Q33.41 6.53 33.96 6.53L33.96 6.53L33.96 20.18L35.47 20.30L35.47 20.86Q35.02 20.86 33.68 21.37Q32.35 21.89 31.80 21.89L31.80 21.89L31.80 21.10Q30.65 21.89 28.92 21.89L28.92 21.89Q28.13 21.89 27.35 21.61Q26.57 21.34 25.79 20.75Q25.01 20.16 24.52 19.01Q24.02 17.86 24.02 16.32L24.02 16.32Q24.02 13.63 25.52 12.19Q27.02 10.75 29.45 10.75L29.45 10.75Q30.82 10.75 31.80 11.33ZM31.80 20.30L31.80 12.07Q30.94 11.57 29.59 11.57L29.59 11.57Q28.27 11.57 27.29 12.84Q26.30 14.11 26.30 16.32L26.30 16.32Q26.30 17.78 27.16 19.43Q28.01 21.07 29.16 21.07L29.16 21.07Q30.74 21.07 31.80 20.30L31.80 20.30ZM40.94 21.17L40.94 21.17Q41.62 21.17 42.42 20.74Q43.22 20.30 43.22 19.44L43.22 19.44Q43.22 18.05 40.37 17.04L40.37 17.04Q39.67 16.80 39.23 16.58Q38.78 16.37 38.26 15.98Q37.73 15.60 37.46 15.05Q37.20 14.50 37.20 13.75L37.20 13.75Q37.20 12.41 38.18 11.63Q39.17 10.85 40.56 10.85L40.56 10.85Q41.38 10.85 42.23 11.21Q43.08 11.57 43.20 11.57L43.20 11.57Q43.49 11.57 43.49 11.09L43.49 11.09L44.04 11.09L44.04 13.97L43.51 13.97Q43.37 12.96 42.54 12.26Q41.71 11.57 40.63 11.57L40.63 11.57Q39.86 11.57 39.35 11.93Q38.83 12.29 38.83 12.91L38.83 12.91Q38.83 13.27 38.98 13.57Q39.12 13.87 39.26 14.05Q39.41 14.23 39.80 14.45Q40.20 14.66 40.40 14.75Q40.61 14.83 41.15 15.02Q41.69 15.22 41.88 15.29L41.88 15.29Q43.13 15.77 44.02 16.64Q44.90 17.52 44.90 18.67L44.90 18.67Q44.90 20.14 43.73 21.01Q42.55 21.89 40.75 21.89L40.75 21.89Q39.89 21.89 39.07 21.48Q38.26 21.07 38.16 21.07L38.16 21.07Q38.02 21.07 37.82 21.26Q37.63 21.46 37.63 21.65L37.63 21.65L37.06 21.65L37.06 18.26L37.58 18.26Q37.75 19.49 38.72 20.33Q39.70 21.17 40.94 21.17ZM48.94 15.70L48.94 15.70Q48.94 18.43 49.98 19.80Q51.02 21.17 52.66 21.17L52.66 21.17Q53.95 21.17 54.74 20.00Q55.54 18.84 55.54 17.02L55.54 17.02Q55.54 11.59 51.77 11.59L51.77 11.59Q50.50 11.59 49.72 12.80Q48.94 14.02 48.94 15.70ZM52.34 21.89L52.34 21.89Q49.66 21.89 48.14 20.32Q46.63 18.74 46.63 16.18L46.63 16.18Q46.63 13.85 48 12.35Q49.37 10.85 52.18 10.85L52.18 10.85Q55.01 10.85 56.42 12.35Q57.84 13.85 57.84 16.46L57.84 16.46Q57.84 18.79 56.48 20.34Q55.13 21.89 52.34 21.89ZM64.70 21.65L59.52 21.65L59.52 21.14Q60.82 21.14 61.03 20.66L61.03 20.66L61.03 12.55Q59.54 12.43 59.52 12.43L59.52 12.43L59.52 11.88Q59.98 11.88 61.31 11.36Q62.64 10.85 63.19 10.85L63.19 10.85L63.19 11.95Q64.49 10.85 66.05 10.85L66.05 10.85Q68.28 10.85 69.28 11.68Q70.27 12.50 70.27 14.26L70.27 14.26L70.27 20.66Q70.49 21.14 71.78 21.14L71.78 21.14L71.78 21.65L66.60 21.65L66.60 21.14Q67.90 21.14 68.11 20.66L68.11 20.66L68.11 14.09Q68.11 11.66 65.90 11.66L65.90 11.66Q64.39 11.66 63.19 12.72L63.19 12.72L63.19 20.66Q63.41 21.14 64.70 21.14L64.70 21.14L64.70 21.65ZM85.49 7.61L86.74 7.61L86.74 16.70L88.68 16.70L88.68 17.42L86.74 17.42L86.74 20.66Q86.95 21.14 88.25 21.14L88.25 21.14L88.25 21.65L83.06 21.65L83.06 21.14Q84.36 21.14 84.58 20.66L84.58 20.66L84.58 17.42L78.89 17.42L85.49 7.61ZM80.21 16.70L84.58 16.70L84.58 10.25L80.21 16.70ZM93.52 10.09Q92.69 12.07 92.69 14.64Q92.69 17.21 93.52 19.18Q94.34 21.14 95.59 21.14Q96.84 21.14 97.67 19.18Q98.50 17.21 98.50 14.64Q98.50 12.07 97.67 10.09Q96.84 8.11 95.59 8.11Q94.34 8.11 93.52 10.09ZM91.88 19.79Q90.53 17.69 90.53 14.64Q90.53 11.59 91.88 9.48Q93.24 7.37 95.59 7.37Q97.94 7.37 99.30 9.48Q100.66 11.59 100.66 14.64Q100.66 17.69 99.30 19.79Q97.94 21.89 95.59 21.89Q93.24 21.89 91.88 19.79ZM105.28 10.09Q104.45 12.07 104.45 14.64Q104.45 17.21 105.28 19.18Q106.10 21.14 107.35 21.14Q108.60 21.14 109.43 19.18Q110.26 17.21 110.26 14.64Q110.26 12.07 109.43 10.09Q108.60 8.11 107.35 8.11Q106.10 8.11 105.28 10.09ZM103.64 19.79Q102.29 17.69 102.29 14.64Q102.29 11.59 103.64 9.48Q105.00 7.37 107.35 7.37Q109.70 7.37 111.06 9.48Q112.42 11.59 112.42 14.64Q112.42 17.69 111.06 19.79Q109.70 21.89 107.35 21.89Q105.00 21.89 103.64 19.79ZM124.92 21.65L119.74 21.65L119.74 21.14Q121.03 21.14 121.25 20.66L121.25 20.66L121.25 12.55Q119.76 12.43 119.74 12.43L119.74 12.43L119.74 11.88Q120.19 11.88 121.52 11.36Q122.86 10.85 123.41 10.85L123.41 10.85L123.41 11.95Q124.70 10.85 126.26 10.85L126.26 10.85Q128.50 10.85 129.49 11.68Q130.49 12.50 130.49 14.26L130.49 14.26L130.49 20.66Q130.70 21.14 132.00 21.14L132.00 21.14L132.00 21.65L126.82 21.65L126.82 21.14Q128.11 21.14 128.33 20.66L128.33 20.66L128.33 14.09Q128.33 11.66 126.12 11.66L126.12 11.66Q124.61 11.66 123.41 12.72L123.41 12.72L123.41 20.66Q123.62 21.14 124.92 21.14L124.92 21.14L124.92 21.65ZM135.65 15.70L135.65 15.70Q135.65 18.43 136.69 19.80Q137.74 21.17 139.37 21.17L139.37 21.17Q140.66 21.17 141.46 20.00Q142.25 18.84 142.25 17.02L142.25 17.02Q142.25 11.59 138.48 11.59L138.48 11.59Q137.21 11.59 136.43 12.80Q135.65 14.02 135.65 15.70ZM139.06 21.89L139.06 21.89Q136.37 21.89 134.86 20.32Q133.34 18.74 133.34 16.18L133.34 16.18Q133.34 13.85 134.71 12.35Q136.08 10.85 138.89 10.85L138.89 10.85Q141.72 10.85 143.14 12.35Q144.55 13.85 144.55 16.46L144.55 16.46Q144.55 18.79 143.20 20.34Q141.84 21.89 139.06 21.89ZM151.42 21.65L146.23 21.65L146.23 21.14Q147.53 21.14 147.74 20.66L147.74 20.66L147.74 12.55Q146.26 12.43 146.23 12.43L146.23 12.43L146.23 11.88Q146.69 11.88 148.02 11.36Q149.35 10.85 149.90 10.85L149.90 10.85L149.90 11.90Q151.10 10.85 152.28 10.85L152.28 10.85Q153.36 10.85 154.09 11.26Q154.82 11.66 154.82 12.17L154.82 12.17Q154.82 13.03 153.86 13.03L153.86 13.03Q153.36 13.03 152.95 12.35Q152.54 11.66 152.02 11.66L152.02 11.66Q151.08 11.66 149.90 12.70L149.90 12.70L149.90 20.66Q150.12 21.14 151.42 21.14L151.42 21.14L151.42 21.65ZM160.90 21.65L155.71 21.65L155.71 21.14Q157.01 21.14 157.22 20.66L157.22 20.66L157.22 12.55Q155.74 12.43 155.71 12.43L155.71 12.43L155.71 11.88Q156.17 11.88 157.50 11.36Q158.83 10.85 159.38 10.85L159.38 10.85L159.38 11.93Q160.66 10.85 162.05 10.85L162.05 10.85Q164.93 10.85 165.74 12.24L165.74 12.24Q167.09 10.85 168.74 10.85L168.74 10.85Q172.78 10.85 172.78 13.58L172.78 13.58L172.78 20.66Q172.99 21.14 174.29 21.14L174.29 21.14L174.29 21.65L169.10 21.65L169.10 21.14Q170.40 21.14 170.62 20.66L170.62 20.66L170.62 14.47Q170.62 12.91 170.16 12.29Q169.70 11.66 168.60 11.66L168.60 11.66Q167.18 11.66 165.98 12.82L165.98 12.82Q166.08 13.13 166.08 13.58L166.08 13.58L166.08 20.66Q166.30 21.14 167.59 21.14L167.59 21.14L167.59 21.65L162.41 21.65L162.41 21.14Q163.70 21.14 163.92 20.66L163.92 20.66L163.92 14.47Q163.92 12.91 163.46 12.29Q163.01 11.66 161.90 11.66L161.90 11.66Q160.54 11.66 159.38 12.72L159.38 12.72L159.38 20.66Q159.60 21.14 160.90 21.14L160.90 21.14L160.90 21.65ZM177.41 12.86L177.41 12.86Q177.74 12.86 178.00 13.10Q178.25 13.34 178.25 13.85L178.25 13.85Q178.25 14.26 177.92 14.47Q177.60 14.69 177.17 14.69L177.17 14.69Q176.71 14.69 176.42 14.36Q176.14 14.04 176.14 13.49L176.14 13.49Q176.14 12.24 177.17 11.54Q178.20 10.85 180.10 10.85L180.10 10.85Q182.33 10.85 183.37 11.95Q184.42 13.06 184.42 14.88L184.42 14.88L184.42 19.63Q184.42 20.40 184.67 20.76Q184.92 21.12 185.28 21.12L185.28 21.12Q185.59 21.12 185.84 20.95Q186.10 20.78 186.10 20.54L186.10 20.54L186.53 20.54Q186.53 21.22 186.04 21.53Q185.54 21.84 184.32 21.84L184.32 21.84Q183.12 21.84 182.62 20.86L182.62 20.86Q181.20 21.89 179.09 21.89L179.09 21.89Q175.49 21.89 175.49 18.96L175.49 18.96Q175.49 18.34 175.93 17.83Q176.38 17.33 177.22 16.99Q178.06 16.66 178.80 16.45Q179.54 16.25 180.66 16.00Q181.78 15.74 182.26 15.60L182.26 15.60Q182.26 13.58 181.73 12.65Q181.20 11.71 179.86 11.71L179.86 11.71Q177.70 11.71 177.41 12.86ZM182.40 20.26L182.40 20.26Q182.26 19.73 182.26 18.96L182.26 18.96L182.26 16.13Q181.99 16.22 181.36 16.39Q180.72 16.56 180.32 16.68Q179.93 16.80 179.38 17.04Q178.82 17.28 178.51 17.52Q178.20 17.76 177.96 18.16Q177.72 18.55 177.72 19.01L177.72 19.01Q177.72 20.16 178.16 20.62Q178.61 21.07 179.50 21.07L179.50 21.07Q181.08 21.07 182.40 20.26ZM192.00 21.65L186.82 21.65L186.82 21.14Q188.11 21.14 188.33 20.66L188.33 20.66L188.33 8.23Q186.84 8.11 186.82 8.11L186.82 8.11L186.82 7.56Q187.27 7.56 188.60 7.04Q189.94 6.53 190.49 6.53L190.49 6.53L190.49 20.66Q190.70 21.14 192.00 21.14L192.00 21.14L192.00 21.65Z"/></svg>