<svg xmlns="http://www.w3.org/2000/svg" xmlns:xlink="http://www.w3.org/1999/xlink" width="132" height="24"><path fill="black" d="M2.04 21.19L2.04 21.19Q1.43 21.19 1.18 20.80Q0.94 20.41 0.94 19.85L0.94 19.85L0.94 4.15Q0.94 3.59 1.18 3.20Q1.43 2.81 2.04 2.81L2.04 2.81Q2.65 2.81 2.89 3.20Q3.14 3.59 3.14 4.15L3.14 4.15L3.14 11.79L8.84 3.42Q9 3.16 9.25 2.99Q9.49 2.81 9.80 2.81L9.80 2.81Q10.83 2.81 10.83 3.80L10.83 3.80Q10.83 3.98 10.72 4.18Q10.62 4.38 10.50 4.52L10.50 4.52L6.54 10.13L11.16 19.41Q11.25 19.57 11.31 19.77Q11.37 19.97 11.37 20.16L11.37 20.16Q11.37 20.67 11.07 20.93Q10.78 21.19 10.27 21.19L10.27 21.19Q9.84 21.19 9.59 20.93Q9.33 20.67 9.14 20.32L9.14 20.32L5.16 12.07L3.14 14.91L3.14 19.85Q3.14 20.41 2.89 20.80Q2.65 21.19 2.04 21.19ZM18 21.19L18 21.19Q16.01 21.19 14.89 20.31Q13.78 19.43 13.32 17.98Q12.87 16.52 12.87 14.77L12.87 14.77Q12.87 12.96 13.34 11.51Q13.80 10.05 14.95 9.19Q16.10 8.32 18.09 8.32L18.09 8.32Q19.50 8.32 20.46 8.86Q21.42 9.40 22.02 10.32Q22.62 11.25 22.88 12.40Q23.13 13.55 23.13 14.79L23.13 14.79Q23.13 16.55 22.68 18Q22.22 19.45 21.11 20.32Q19.99 21.19 18 21.19ZM18 19.27L18 19.27Q18.94 19.27 19.51 18.86Q20.09 18.45 20.39 17.79Q20.70 17.13 20.81 16.35Q20.93 15.56 20.93 14.81L20.93 14.81Q20.93 14.06 20.82 13.25Q20.72 12.45 20.40 11.77Q20.09 11.09 19.51 10.66Q18.94 10.24 17.98 10.24L17.98 10.24Q17.02 10.24 16.43 10.71Q15.84 11.18 15.55 11.93Q15.26 12.68 15.15 13.52Q15.05 14.37 15.05 15.12L15.05 15.12Q15.05 16.13 15.28 17.07Q15.52 18.02 16.15 18.64Q16.78 19.27 18 19.27ZM30.21 21.19L30.21 21.19Q29.25 21.19 28.28 20.96Q27.30 20.74 26.51 20.13L26.51 20.13Q25.99 19.73 25.58 19.18Q25.17 18.63 25.17 17.93L25.17 17.93Q25.17 17.41 25.46 17.20Q25.76 16.99 26.23 16.99L26.23 16.99Q26.72 16.99 27.02 17.34Q27.33 17.70 27.67 18.16Q28.01 18.63 28.58 18.98Q29.16 19.34 30.16 19.34L30.16 19.34Q30.75 19.34 31.29 19.21Q31.83 19.08 32.19 18.70Q32.55 18.33 32.55 17.65L32.55 17.65Q32.55 17.02 32.04 16.59Q31.52 16.17 30.71 15.84Q29.91 15.52 28.99 15.19Q28.08 14.86 27.27 14.43Q26.46 13.99 25.95 13.34Q25.43 12.68 25.43 11.72L25.43 11.72Q25.43 10.52 26.10 9.77Q26.77 9.02 27.79 8.67Q28.80 8.32 29.84 8.32L29.84 8.32Q30.73 8.32 31.59 8.54Q32.46 8.77 33.16 9.33L33.16 9.33Q33.63 9.70 34.03 10.21Q34.43 10.71 34.43 11.32L34.43 11.32Q34.43 11.81 34.15 12.02Q33.87 12.23 33.40 12.23L33.40 12.23Q32.88 12.23 32.59 11.92Q32.30 11.60 32.02 11.20Q31.73 10.80 31.25 10.49Q30.77 10.17 29.86 10.17L29.86 10.17Q29.34 10.17 28.85 10.29Q28.36 10.41 28.03 10.73Q27.70 11.06 27.70 11.70L27.70 11.70Q27.70 12.30 28.22 12.70Q28.73 13.10 29.54 13.41Q30.35 13.71 31.27 14.03Q32.18 14.34 32.99 14.78Q33.80 15.21 34.31 15.89Q34.83 16.57 34.83 17.63L34.83 17.63Q34.83 18.94 34.15 19.72Q33.47 20.51 32.41 20.85Q31.36 21.19 30.21 21.19ZM40.76 21.19L40.76 21.19Q38.77 21.19 37.92 20.00Q37.08 18.82 37.08 16.97L37.08 16.97L37.08 9.61Q37.08 9.05 37.31 8.68Q37.55 8.32 38.16 8.32L38.16 8.32Q38.77 8.32 38.99 8.70Q39.21 9.07 39.21 9.61L39.21 9.61L39.21 16.62Q39.21 17.30 39.38 17.92Q39.54 18.54 39.97 18.91Q40.41 19.29 41.20 19.29L41.20 19.29Q42.73 19.29 43.76 18.14L43.76 18.14Q44.16 17.70 44.47 17.13Q44.79 16.57 44.79 15.96L44.79 15.96L44.79 9.61Q44.79 9.05 45.02 8.68Q45.26 8.32 45.87 8.32L45.87 8.32Q46.48 8.32 46.70 8.70Q46.92 9.07 46.92 9.61L46.92 9.61L46.92 20.02Q46.92 20.55 46.66 20.87Q46.41 21.19 45.84 21.19L45.84 21.19Q45.19 21.19 44.98 20.81Q44.77 20.44 44.78 19.90Q44.79 19.36 44.79 18.91L44.79 18.91Q44.04 19.92 43.04 20.55Q42.05 21.19 40.76 21.19ZM53.79 24L53.79 24Q53.06 24 52.20 23.92Q51.33 23.84 50.53 23.55Q49.73 23.27 49.23 22.70Q48.73 22.13 48.73 21.16L48.73 21.16Q48.73 20.39 49.10 19.86Q49.48 19.34 50.06 19.00Q50.65 18.66 51.30 18.45L51.30 18.45Q50.86 18.26 50.31 17.92Q49.76 17.58 49.76 16.99L49.76 16.99Q49.76 16.38 50.30 15.98Q50.84 15.59 51.30 15.35L51.30 15.35Q50.44 14.84 49.95 14.07Q49.45 13.31 49.45 12.28L49.45 12.28Q49.45 11.04 50.06 10.16Q50.67 9.28 51.68 8.80Q52.69 8.32 53.84 8.32L53.84 8.32Q54.66 8.32 55.42 8.57Q56.18 8.81 56.77 9.38L56.77 9.38Q57.14 8.98 57.64 8.65Q58.15 8.32 58.71 8.32L58.71 8.32Q59.18 8.32 59.36 8.60Q59.53 8.88 59.53 9.28L59.53 9.28Q59.53 9.77 59.21 10.00Q58.90 10.22 58.48 10.34Q58.05 10.45 57.70 10.64L57.70 10.64Q58.17 11.53 58.17 12.52L58.17 12.52Q58.17 13.64 57.55 14.44Q56.93 15.23 55.96 15.64Q54.98 16.05 53.95 16.05L53.95 16.05Q53.63 16.05 53.30 16.02Q52.97 15.98 52.64 15.89L52.64 15.89Q52.43 15.98 52.14 16.15Q51.84 16.31 51.84 16.59L51.84 16.59Q51.84 16.95 52.36 17.12Q52.88 17.30 53.70 17.44Q54.52 17.58 55.43 17.78Q56.34 17.98 57.16 18.34Q57.98 18.70 58.50 19.35Q59.02 19.99 59.02 21.02L59.02 21.02Q59.02 22.03 58.49 22.63Q57.96 23.23 57.15 23.52Q56.34 23.81 55.44 23.91Q54.54 24 53.79 24ZM53.84 14.46L53.84 14.46Q54.94 14.46 55.56 13.95Q56.18 13.43 56.18 12.28L56.18 12.28Q56.18 9.98 53.84 9.98L53.84 9.98Q52.85 9.98 52.15 10.64Q51.45 11.30 51.45 12.30L51.45 12.30Q51.45 13.31 52.16 13.89Q52.88 14.46 53.84 14.46ZM53.65 22.31L53.65 22.31Q54 22.31 54.56 22.28Q55.13 22.24 55.68 22.11Q56.23 21.98 56.61 21.69Q57 21.40 57 20.88L57 20.88Q57 20.44 56.59 20.09Q56.18 19.73 55.58 19.48Q54.98 19.22 54.40 19.09Q53.81 18.96 53.46 18.96L53.46 18.96Q52.99 18.96 52.35 19.18Q51.70 19.41 51.22 19.80Q50.74 20.20 50.74 20.79L50.74 20.79Q50.74 21.49 51.26 21.81Q51.77 22.13 52.46 22.22Q53.16 22.31 53.65 22.31ZM66 5.84L66 5.84Q64.48 5.84 64.48 4.31L64.48 4.31Q64.48 2.79 66.02 2.79L66.02 2.79Q66.63 2.79 67.08 3.25Q67.52 3.70 67.52 4.31L67.52 4.31Q67.52 5.84 66 5.84ZM65.98 21.19L65.98 21.19Q65.37 21.19 65.12 20.81Q64.88 20.44 64.88 19.88L64.88 19.88L64.88 9.77Q64.88 9.21 65.12 8.82Q65.37 8.44 65.98 8.44L65.98 8.44Q66.59 8.44 66.83 8.82Q67.08 9.21 67.08 9.77L67.08 9.77L67.08 19.88Q67.08 20.44 66.83 20.81Q66.59 21.19 65.98 21.19ZM85.83 21.19L85.83 21.19Q85.31 21.19 85.10 20.86Q84.89 20.53 84.89 20.06L84.89 20.06L84.89 4.80Q84.89 3.96 85.24 3.39Q85.59 2.81 86.53 2.81L86.53 2.81Q87.28 2.81 87.62 3.28Q87.96 3.75 88.05 4.43L88.05 4.43L90 16.31L91.95 4.43Q92.06 3.75 92.40 3.28Q92.74 2.81 93.49 2.81L93.49 2.81Q94.43 2.81 94.77 3.40Q95.11 3.98 95.11 4.80L95.11 4.80L95.11 20.06Q95.11 20.53 94.91 20.86Q94.71 21.19 94.17 21.19L94.17 21.19Q93.66 21.19 93.45 20.86Q93.23 20.53 93.23 20.06L93.23 20.06L93.23 5.70L90.94 20.23Q90.87 20.60 90.66 20.89Q90.45 21.19 90 21.19L90 21.19Q89.55 21.19 89.36 20.92Q89.16 20.65 89.09 20.25L89.09 20.25L86.77 5.70L86.77 20.06Q86.77 20.53 86.57 20.86Q86.37 21.19 85.83 21.19ZM100.78 21.19L100.78 21.19Q99.14 21.19 98.00 20.30Q96.87 19.41 96.87 17.67L96.87 17.67Q96.87 16.38 97.38 15.55Q97.90 14.72 98.77 14.25Q99.63 13.78 100.68 13.56Q101.72 13.34 102.81 13.28Q103.90 13.22 104.84 13.20L104.84 13.20Q104.84 12.21 104.67 11.55Q104.51 10.90 103.97 10.56Q103.43 10.22 102.30 10.22L102.30 10.22Q101.37 10.22 100.88 10.55Q100.38 10.88 100.09 11.31Q99.80 11.74 99.48 12.07Q99.16 12.40 98.58 12.40L98.58 12.40Q98.11 12.40 97.79 12.18Q97.48 11.95 97.48 11.44L97.48 11.44Q97.48 11.04 97.66 10.68Q97.85 10.31 98.09 10.01L98.09 10.01Q98.84 9.05 99.91 8.68Q100.99 8.32 102.16 8.32L102.16 8.32Q103.55 8.32 104.61 8.73Q105.68 9.14 106.30 10.04Q106.92 10.95 106.92 12.45L106.92 12.45L106.92 20.13Q106.92 21.19 105.87 21.19L105.87 21.19Q105.26 21.19 105.05 20.88Q104.84 20.58 104.84 20.13Q104.84 19.69 104.84 19.24L104.84 19.24Q104.04 20.11 103.02 20.65Q102 21.19 100.78 21.19ZM100.92 19.38L100.92 19.38Q101.67 19.38 102.36 19.11Q103.05 18.84 103.62 18.38L103.62 18.38Q103.95 18.09 104.39 17.59Q104.84 17.09 104.84 16.59L104.84 16.59L104.84 14.79Q104.25 14.81 103.50 14.85Q102.75 14.88 101.96 15.01Q101.18 15.14 100.50 15.43Q99.82 15.73 99.41 16.25Q99 16.78 99 17.60L99 17.60Q99 18.54 99.50 18.96Q100.01 19.38 100.92 19.38ZM111.96 21.19L111.96 21.19Q111.38 21.19 111.14 20.81Q110.91 20.44 110.91 19.90L110.91 19.90L110.91 9.61Q110.91 9.05 111.14 8.68Q111.38 8.32 111.98 8.32L111.98 8.32Q112.62 8.32 112.83 8.67Q113.04 9.02 113.04 9.50Q113.04 9.98 113.04 10.43L113.04 10.43Q113.72 9.56 114.60 8.94Q115.48 8.32 116.63 8.32L116.63 8.32Q117.14 8.32 117.43 8.55Q117.73 8.79 117.73 9.33L117.73 9.33Q117.73 9.96 117.27 10.20Q116.81 10.43 116.27 10.50L116.27 10.50Q115.57 10.59 114.82 10.97Q114.07 11.34 113.55 11.94Q113.04 12.54 113.04 13.36L113.04 13.36L113.04 19.90Q113.04 20.46 112.80 20.82Q112.57 21.19 111.96 21.19ZM124.76 21.19L124.76 21.19Q122.77 21.19 121.92 20.00Q121.08 18.82 121.08 16.97L121.08 16.97L121.08 9.61Q121.08 9.05 121.31 8.68Q121.55 8.32 122.16 8.32L122.16 8.32Q122.77 8.32 122.99 8.70Q123.21 9.07 123.21 9.61L123.21 9.61L123.21 16.62Q123.21 17.30 123.38 17.92Q123.54 18.54 123.97 18.91Q124.41 19.29 125.20 19.29L125.20 19.29Q126.73 19.29 127.76 18.14L127.76 18.14Q128.16 17.70 128.47 17.13Q128.79 16.57 128.79 15.96L128.79 15.96L128.79 9.61Q128.79 9.05 129.02 8.68Q129.26 8.32 129.87 8.32L129.87 8.32Q130.48 8.32 130.70 8.70Q130.92 9.07 130.92 9.61L130.92 9.61L130.92 20.02Q130.92 20.55 130.66 20.87Q130.41 21.19 129.84 21.19L129.84 21.19Q129.19 21.19 128.98 20.81Q128.77 20.44 128.78 19.90Q128.79 19.36 128.79 18.91L128.79 18.91Q128.04 19.92 127.04 20.55Q126.05 21.19 124.76 21.19Z"/></svg>