<svg xmlns="http://www.w3.org/2000/svg" xmlns:xlink="http://www.w3.org/1999/xlink" width="201.57600000000005" height="31.584"><path fill="black" d="M7.85 25.44L5.54 25.44L5.54 18.48L0.02 7.01L2.50 7.01L5.33 13.08Q5.86 14.18 6.26 15.25Q6.67 16.32 7.08 17.38L7.08 17.38L6.43 17.38Q6.86 16.27 7.27 15.24Q7.68 14.21 8.21 13.10L8.21 13.10L11.06 7.01L13.51 7.01L7.85 18.50L7.85 25.44ZM21.31 22.68L21.31 22.68L21.84 22.78Q21.53 23.76 20.88 24.42Q20.23 25.08 19.43 25.40Q18.62 25.73 17.81 25.73L17.81 25.73Q16.68 25.73 15.77 25.25Q14.86 24.77 14.32 23.83Q13.78 22.90 13.78 21.58L13.78 21.58Q13.78 19.70 15.30 18.56Q16.82 17.42 19.51 17.42L19.51 17.42Q20.11 17.42 20.77 17.46Q21.43 17.50 21.98 17.62L21.98 17.62L21.98 19.18Q21.38 19.08 20.84 19.03Q20.30 18.98 19.61 18.98L19.61 18.98Q18.29 18.98 17.52 19.31Q16.75 19.63 16.42 20.22Q16.08 20.81 16.08 21.58L16.08 21.58Q16.08 22.70 16.68 23.30Q17.28 23.90 18.31 23.90L18.31 23.90Q18.98 23.90 19.61 23.57Q20.23 23.23 20.64 22.52Q21.05 21.82 21.05 20.66L21.05 20.66L21.05 15.96Q21.05 14.62 20.35 14.00Q19.66 13.39 18.58 13.39L18.58 13.39Q17.78 13.39 16.88 13.70Q15.98 14.02 15.10 14.54L15.10 14.54L14.26 12.89Q15.34 12.22 16.60 11.86Q17.86 11.50 18.98 11.50L18.98 11.50Q20.23 11.50 21.20 11.98Q22.18 12.46 22.73 13.42Q23.28 14.38 23.28 15.86L23.28 15.86L23.28 22.25Q23.28 23.14 23.53 23.56Q23.78 23.98 24.48 23.98L24.48 23.98Q24.58 23.98 24.68 23.98Q24.79 23.98 24.89 23.95L24.89 23.95L24.96 25.61Q24.70 25.68 24.41 25.70Q24.12 25.73 23.88 25.73L23.88 25.73Q22.58 25.73 21.95 25.00Q21.31 24.26 21.31 22.68ZM27.22 22.56L27.22 22.56L27.22 5.64L29.45 5.64L29.45 22.32Q29.45 23.11 29.74 23.50Q30.02 23.88 30.58 23.88L30.58 23.88Q30.84 23.88 31.15 23.82Q31.46 23.76 31.78 23.66L31.78 23.66L31.80 25.42Q31.37 25.56 30.95 25.64Q30.53 25.73 30.10 25.73L30.10 25.73Q28.78 25.73 28.00 24.92Q27.22 24.12 27.22 22.56ZM41.52 5.64L43.75 5.64L43.75 22.68Q43.75 23.45 43.98 23.75Q44.21 24.05 44.83 23.95L44.83 23.95L44.93 25.63Q43.90 25.82 43.15 25.62Q42.41 25.42 42.01 24.74Q41.62 24.07 41.62 22.92L41.62 22.92L41.62 21.91L42.41 21.91Q41.83 23.83 40.64 24.78Q39.46 25.73 37.94 25.73L37.94 25.73Q36.48 25.73 35.39 24.89Q34.30 24.05 33.68 22.56Q33.07 21.07 33.07 19.13L33.07 19.13Q33.07 17.54 33.47 16.15Q33.86 14.76 34.62 13.72Q35.38 12.67 36.48 12.08Q37.58 11.50 39.05 11.50L39.05 11.50Q40.10 11.50 41.10 11.78Q42.10 12.07 43.06 12.62L43.06 12.62L41.62 13.92Q40.99 13.63 40.32 13.49Q39.65 13.34 39.14 13.34L39.14 13.34Q37.92 13.34 37.08 14.08Q36.24 14.81 35.82 16.08Q35.40 17.35 35.40 18.98L35.40 18.98Q35.40 20.52 35.81 21.62Q36.22 22.73 36.91 23.32Q37.61 23.90 38.47 23.90L38.47 23.90Q39.29 23.90 39.98 23.46Q40.68 23.02 41.10 22.12Q41.52 21.22 41.52 19.82L41.52 19.82L41.52 5.64ZM52.70 25.73L52.70 25.73Q50.93 25.73 49.56 24.90Q48.19 24.07 47.42 22.46Q46.66 20.86 46.66 18.53L46.66 18.53Q46.66 16.32 47.39 14.75Q48.12 13.18 49.39 12.34Q50.66 11.50 52.27 11.50L52.27 11.50Q54.12 11.50 55.25 12.32Q56.38 13.15 56.88 14.69Q57.38 16.22 57.38 18.31L57.38 18.31L57.38 19.08L47.93 19.08L47.95 17.38L55.10 17.30Q55.10 16.51 54.95 15.78Q54.79 15.05 54.46 14.48Q54.12 13.92 53.58 13.61Q53.04 13.30 52.25 13.30L52.25 13.30Q50.76 13.30 49.87 14.70Q48.98 16.10 48.98 18.62L48.98 18.62Q48.98 21.17 50.08 22.52Q51.17 23.88 52.97 23.88L52.97 23.88Q53.83 23.88 54.66 23.64Q55.49 23.40 56.42 22.92L56.42 22.92L57.10 24.48Q55.99 25.13 54.88 25.43Q53.76 25.73 52.70 25.73ZM63.79 23.26L67.82 11.78L70.03 11.78L65.09 25.44L63 25.44L58.15 11.78L60.48 11.78L64.44 23.26L63.79 23.26ZM74.33 25.44L72.10 25.44L72.10 11.78L74.33 11.78L74.33 25.44ZM73.20 9.48L73.20 9.48Q72.58 9.48 72.14 9.05Q71.71 8.62 71.71 7.82L71.71 7.82Q71.71 7.03 72.16 6.61Q72.60 6.19 73.22 6.19L73.22 6.19Q73.85 6.19 74.29 6.61Q74.74 7.03 74.74 7.82L74.74 7.82Q74.74 8.59 74.29 9.04Q73.85 9.48 73.20 9.48ZM86.64 25.70L86.64 25.70Q85.73 25.70 84.74 25.42Q83.76 25.13 82.80 24.55L82.80 24.55L83.76 23.04Q84.46 23.50 85.15 23.71Q85.85 23.93 86.47 23.93L86.47 23.93Q87.53 23.93 88.30 23.42Q89.06 22.92 89.46 22.08Q89.86 21.24 89.86 20.23L89.86 20.23Q89.86 19.32 89.44 18.50Q89.02 17.69 88.15 17.18Q87.29 16.68 85.92 16.68L85.92 16.68Q85.42 16.68 84.86 16.75Q84.31 16.82 83.76 16.99L83.76 16.99L83.76 9.24L91.01 9.24L91.01 10.94L85.80 10.94L85.80 15.17Q86.04 15.12 86.32 15.10Q86.59 15.07 86.83 15.07L86.83 15.07Q88.58 15.07 89.72 15.82Q90.86 16.56 91.43 17.72Q91.99 18.89 91.99 20.18L91.99 20.18Q91.99 21.53 91.42 22.80Q90.84 24.07 89.65 24.89Q88.46 25.70 86.64 25.70ZM103.10 17.18L103.10 17.18Q103.10 14.90 102.71 13.48Q102.31 12.05 101.60 11.38Q100.90 10.70 99.91 10.70L99.91 10.70Q98.95 10.70 98.22 11.36Q97.49 12.02 97.09 13.49Q96.70 14.95 96.70 17.28L96.70 17.28Q96.70 19.70 97.12 21.18Q97.54 22.66 98.26 23.32Q98.98 23.98 99.86 23.98L99.86 23.98Q100.78 23.98 101.51 23.32Q102.24 22.66 102.67 21.17Q103.10 19.68 103.10 17.18ZM105.17 17.14L105.17 17.14Q105.17 20.09 104.52 21.98Q103.87 23.88 102.67 24.79Q101.47 25.70 99.82 25.70L99.82 25.70Q97.39 25.70 96.01 23.66Q94.63 21.62 94.63 17.38L94.63 17.38Q94.63 13.03 96.06 11.00Q97.49 8.98 99.98 8.98L99.98 8.98Q102.48 8.98 103.82 10.97Q105.17 12.96 105.17 17.14ZM116.66 17.18L116.66 17.18Q116.66 14.90 116.27 13.48Q115.87 12.05 115.16 11.38Q114.46 10.70 113.47 10.70L113.47 10.70Q112.51 10.70 111.78 11.36Q111.05 12.02 110.65 13.49Q110.26 14.95 110.26 17.28L110.26 17.28Q110.26 19.70 110.68 21.18Q111.10 22.66 111.82 23.32Q112.54 23.98 113.42 23.98L113.42 23.98Q114.34 23.98 115.07 23.32Q115.80 22.66 116.23 21.17Q116.66 19.68 116.66 17.18ZM118.73 17.14L118.73 17.14Q118.73 20.09 118.08 21.98Q117.43 23.88 116.23 24.79Q115.03 25.70 113.38 25.70L113.38 25.70Q110.95 25.70 109.57 23.66Q108.19 21.62 108.19 17.38L108.19 17.38Q108.19 13.03 109.62 11.00Q111.05 8.98 113.54 8.98L113.54 8.98Q116.04 8.98 117.38 10.97Q118.73 12.96 118.73 17.14ZM137.59 25.44L135.34 25.44L135.34 16.37Q135.34 14.90 134.72 14.10Q134.11 13.30 133.03 13.30L133.03 13.30Q132.24 13.30 131.52 13.80Q130.80 14.30 130.36 15.34Q129.91 16.37 129.91 17.95L129.91 17.95L129.91 25.44L127.66 25.44L127.66 11.78L129.79 11.78L129.86 15.58L129.17 15.58Q129.70 13.49 130.91 12.49Q132.12 11.50 133.63 11.50L133.63 11.50Q134.81 11.50 135.70 12.02Q136.58 12.55 137.09 13.57Q137.59 14.59 137.59 16.10L137.59 16.10L137.59 25.44ZM149.76 18.65L149.76 18.65Q149.76 17.04 149.35 15.84Q148.94 14.64 148.18 13.99Q147.41 13.34 146.30 13.34L146.30 13.34Q145.20 13.34 144.41 14.00Q143.62 14.66 143.20 15.85Q142.78 17.04 142.78 18.62L142.78 18.62Q142.78 20.23 143.18 21.41Q143.59 22.58 144.37 23.23Q145.15 23.88 146.26 23.88L146.26 23.88Q147.38 23.88 148.16 23.23Q148.94 22.58 149.35 21.41Q149.76 20.23 149.76 18.65ZM152.06 18.62L152.06 18.62Q152.06 20.76 151.38 22.37Q150.70 23.98 149.39 24.85Q148.08 25.73 146.18 25.73L146.18 25.73Q144.26 25.73 142.99 24.83Q141.72 23.93 141.10 22.33Q140.47 20.74 140.47 18.65L140.47 18.65Q140.47 16.54 141.17 14.92Q141.86 13.30 143.20 12.40Q144.53 11.50 146.38 11.50L146.38 11.50Q148.30 11.50 149.56 12.40Q150.82 13.30 151.44 14.90Q152.06 16.51 152.06 18.62ZM157.20 25.44L154.97 25.44L154.97 11.71L157.08 11.71L157.18 15.58L156.65 15.58Q157.08 13.66 158.11 12.58Q159.14 11.50 160.70 11.50L160.70 11.50Q160.90 11.50 161.10 11.51Q161.30 11.52 161.50 11.59L161.50 11.59L161.26 13.78Q160.68 13.56 160.15 13.56L160.15 13.56Q159.29 13.56 158.62 14.10Q157.94 14.64 157.57 15.60Q157.20 16.56 157.20 17.86L157.20 17.86L157.20 25.44ZM180.67 16.10L180.67 25.44L178.44 25.44L178.44 16.34Q178.44 14.83 177.83 14.05Q177.22 13.27 176.26 13.27L176.26 13.27Q175.49 13.27 174.80 13.78Q174.12 14.28 173.70 15.31Q173.28 16.34 173.28 17.90L173.28 17.90L173.28 25.44L171.02 25.44L171.02 16.34Q171.02 14.83 170.41 14.05Q169.80 13.27 168.77 13.27L168.77 13.27Q167.98 13.27 167.27 13.78Q166.56 14.28 166.12 15.31Q165.67 16.34 165.67 17.90L165.67 17.90L165.67 25.44L163.44 25.44L163.44 11.78L165.58 11.78L165.65 15.58L164.90 15.58Q165.26 14.21 165.94 13.31Q166.61 12.41 167.51 11.94Q168.41 11.47 169.37 11.47L169.37 11.47Q170.45 11.47 171.29 11.98Q172.13 12.48 172.64 13.42Q173.16 14.35 173.26 15.67L173.26 15.67L172.49 15.67Q172.82 14.26 173.50 13.33Q174.17 12.41 175.04 11.94Q175.92 11.47 176.86 11.47L176.86 11.47Q177.96 11.47 178.82 12.00Q179.69 12.53 180.18 13.56Q180.67 14.59 180.67 16.10L180.67 16.10ZM190.73 22.68L190.73 22.68L191.26 22.78Q190.94 23.76 190.30 24.42Q189.65 25.08 188.84 25.40Q188.04 25.73 187.22 25.73L187.22 25.73Q186.10 25.73 185.18 25.25Q184.27 24.77 183.73 23.83Q183.19 22.90 183.19 21.58L183.19 21.58Q183.19 19.70 184.72 18.56Q186.24 17.42 188.93 17.42L188.93 17.42Q189.53 17.42 190.19 17.46Q190.85 17.50 191.40 17.62L191.40 17.62L191.40 19.18Q190.80 19.08 190.26 19.03Q189.72 18.98 189.02 18.98L189.02 18.98Q187.70 18.98 186.94 19.31Q186.17 19.63 185.83 20.22Q185.50 20.81 185.50 21.58L185.50 21.58Q185.50 22.70 186.10 23.30Q186.70 23.90 187.73 23.90L187.73 23.90Q188.40 23.90 189.02 23.57Q189.65 23.23 190.06 22.52Q190.46 21.82 190.46 20.66L190.46 20.66L190.46 15.96Q190.46 14.62 189.77 14.00Q189.07 13.39 187.99 13.39L187.99 13.39Q187.20 13.39 186.30 13.70Q185.40 14.02 184.51 14.54L184.51 14.54L183.67 12.89Q184.75 12.22 186.01 11.86Q187.27 11.50 188.40 11.50L188.40 11.50Q189.65 11.50 190.62 11.98Q191.59 12.46 192.14 13.42Q192.70 14.38 192.70 15.86L192.70 15.86L192.70 22.25Q192.70 23.14 192.95 23.56Q193.20 23.98 193.90 23.98L193.90 23.98Q193.99 23.98 194.10 23.98Q194.21 23.98 194.30 23.95L194.30 23.95L194.38 25.61Q194.11 25.68 193.82 25.70Q193.54 25.73 193.30 25.73L193.30 25.73Q192.00 25.73 191.36 25.00Q190.73 24.26 190.73 22.68ZM196.63 22.56L196.63 22.56L196.63 5.64L198.86 5.64L198.86 22.32Q198.86 23.11 199.15 23.50Q199.44 23.88 199.99 23.88L199.99 23.88Q200.26 23.88 200.57 23.82Q200.88 23.76 201.19 23.66L201.19 23.66L201.22 25.42Q200.78 25.56 200.36 25.64Q199.94 25.73 199.51 25.73L199.51 25.73Q198.19 25.73 197.41 24.92Q196.63 24.12 196.63 22.56Z"/></svg>