<svg xmlns="http://www.w3.org/2000/svg" xmlns:xlink="http://www.w3.org/1999/xlink" width="256.77599999999995" height="31.2"><path fill="black" d="M13.32 24.82Q12.72 24.82 12.37 24.59Q12.02 24.36 12.02 23.88L12.02 23.88Q11.95 21.19 10.91 19.42Q9.86 17.64 7.39 16.20L7.39 16.20L4.42 18.31L3.50 23.54Q3.41 24.12 2.95 24.47Q2.50 24.82 1.90 24.82L1.90 24.82Q1.37 24.82 1.06 24.55Q0.74 24.29 0.74 23.81L0.74 23.81Q0.74 23.64 0.77 23.54L0.77 23.54L3.38 8.81Q3.48 8.21 3.91 7.87Q4.34 7.54 4.94 7.54L4.94 7.54Q5.50 7.54 5.81 7.81Q6.12 8.09 6.12 8.54L6.12 8.54Q6.12 8.71 6.10 8.81L6.10 8.81L4.97 15.34L14.81 7.92Q15.26 7.58 15.72 7.58L15.72 7.58Q16.25 7.58 16.51 7.99L16.51 7.99Q16.78 8.33 16.78 8.64L16.78 8.64Q16.78 9.14 16.13 9.65L16.13 9.65L9.41 14.71Q12.07 16.39 13.40 18.65Q14.74 20.90 14.66 23.45L14.66 23.45Q14.64 23.98 14.23 24.38Q13.82 24.79 13.32 24.82L13.32 24.82ZM23.28 24.82Q21.46 24.82 20.05 24.18Q18.65 23.54 17.88 22.39Q17.11 21.24 17.11 19.75L17.11 19.75Q17.11 17.66 18.12 16.03Q19.13 14.40 20.94 13.49Q22.75 12.58 25.06 12.58L25.06 12.58Q26.88 12.58 28.28 13.20Q29.69 13.82 30.46 14.98Q31.22 16.13 31.22 17.62L31.22 17.62Q31.22 19.70 30.22 21.35Q29.21 22.99 27.40 23.90Q25.58 24.82 23.28 24.82L23.28 24.82ZM23.50 22.66Q24.96 22.66 26.10 22.04Q27.24 21.43 27.88 20.32Q28.51 19.20 28.51 17.76L28.51 17.76Q28.51 16.30 27.58 15.52Q26.64 14.74 24.89 14.74L24.89 14.74Q23.40 14.74 22.26 15.35Q21.12 15.96 20.48 17.08Q19.85 18.19 19.85 19.61L19.85 19.61Q19.85 21.07 20.80 21.86Q21.74 22.66 23.50 22.66L23.50 22.66ZM38.66 24.82Q36.10 24.82 34.58 23.46Q33.07 22.10 33.07 19.66L33.07 19.66Q33.07 17.71 34.03 16.09Q34.99 14.47 36.71 13.52Q38.42 12.58 40.58 12.58L40.58 12.58Q42.07 12.58 43.14 13.09Q44.21 13.61 44.98 14.66L44.98 14.66L46.22 7.63Q46.34 7.03 46.76 6.70Q47.18 6.36 47.81 6.36L47.81 6.36Q48.36 6.36 48.65 6.64Q48.94 6.91 48.94 7.37L48.94 7.37Q48.94 7.54 48.91 7.63L48.91 7.63L46.13 23.54Q46.01 24.12 45.61 24.47Q45.22 24.82 44.57 24.82L44.57 24.82Q44.04 24.82 43.73 24.54Q43.42 24.26 43.42 23.78L43.42 23.78Q43.42 23.64 43.44 23.54L43.44 23.54L43.58 22.70Q42.55 23.81 41.35 24.31Q40.15 24.82 38.66 24.82L38.66 24.82ZM39.19 22.66Q40.73 22.66 41.90 22.04Q43.08 21.43 43.72 20.38Q44.35 19.32 44.35 18.02L44.35 18.02Q44.35 16.44 43.39 15.59Q42.43 14.74 40.73 14.74L40.73 14.74Q39.24 14.74 38.11 15.38Q36.98 16.03 36.38 17.12Q35.78 18.22 35.78 19.54L35.78 19.54Q35.78 21.10 36.66 21.88Q37.54 22.66 39.19 22.66L39.19 22.66ZM55.32 24.82Q52.56 24.82 50.92 23.36Q49.27 21.91 49.27 19.37L49.27 19.37Q49.27 17.40 50.22 15.85Q51.17 14.30 52.88 13.44Q54.60 12.58 56.78 12.58L56.78 12.58Q58.66 12.58 60.10 13.18Q61.54 13.78 61.99 14.66L61.99 14.66Q62.14 14.98 62.14 15.26L62.14 15.26Q62.14 15.58 61.96 15.85Q61.78 16.13 61.44 16.30L61.44 16.30Q61.06 16.51 60.72 16.51L60.72 16.51Q60.17 16.51 59.74 15.98L59.74 15.98Q59.26 15.38 58.58 15.06Q57.91 14.74 56.86 14.74L56.86 14.74Q55.44 14.74 54.34 15.35Q53.23 15.96 52.62 17.03Q52.01 18.10 52.01 19.44L52.01 19.44Q52.01 21 52.88 21.83Q53.76 22.66 55.44 22.66L55.44 22.66Q56.50 22.66 57.32 22.33Q58.15 22.01 59.06 21.31L59.06 21.31Q59.83 20.74 60.31 20.74L60.31 20.74Q60.67 20.74 60.96 21L60.96 21Q61.34 21.31 61.34 21.72L61.34 21.72Q61.34 22.13 60.94 22.66L60.94 22.66Q60.17 23.62 58.64 24.22Q57.12 24.82 55.32 24.82L55.32 24.82ZM64.54 24.82Q63.98 24.82 63.70 24.56Q63.41 24.31 63.41 23.83L63.41 23.83Q63.41 23.64 63.43 23.54L63.43 23.54L66.24 7.63Q66.36 7.03 66.77 6.70Q67.18 6.36 67.80 6.36L67.80 6.36Q68.35 6.36 68.65 6.62Q68.95 6.89 68.95 7.34L68.95 7.34Q68.95 7.54 68.93 7.63L68.93 7.63L67.66 14.78Q68.57 13.70 69.90 13.14Q71.23 12.58 72.72 12.58L72.72 12.58Q74.62 12.58 75.71 13.67Q76.80 14.76 76.80 16.63L76.80 16.63Q76.80 17.14 76.68 17.81L76.68 17.81L75.70 23.54Q75.58 24.12 75.16 24.47Q74.74 24.82 74.09 24.82L74.09 24.82Q73.56 24.82 73.27 24.56Q72.98 24.31 72.98 23.86L72.98 23.86Q72.98 23.66 73.01 23.54L73.01 23.54L73.99 17.81Q74.09 17.33 74.09 16.80L74.09 16.80Q74.09 15.74 73.52 15.24Q72.96 14.74 71.78 14.74L71.78 14.74Q69.86 14.74 68.57 15.88Q67.27 17.02 66.94 18.96L66.94 18.96L66.12 23.54Q66.02 24.14 65.59 24.48Q65.16 24.82 64.54 24.82L64.54 24.82ZM82.78 24.82Q80.83 24.82 79.62 23.89Q78.41 22.97 78.41 21.50L78.41 21.50Q78.41 20.18 79.16 19.15Q79.92 18.12 81.30 17.54Q82.68 16.97 84.48 16.97L84.48 16.97Q85.63 16.97 86.59 17.26Q87.55 17.54 88.08 18.07L88.08 18.07L88.25 17.16Q88.30 16.92 88.30 16.51L88.30 16.51Q88.30 15.55 87.67 15.12Q87.05 14.69 85.70 14.69L85.70 14.69Q83.62 14.69 81.98 15.60L81.98 15.60Q81.41 15.89 81.02 15.89L81.02 15.89Q80.66 15.89 80.40 15.62Q80.14 15.36 80.14 15L80.14 15Q80.14 14.40 80.83 13.97L80.83 13.97Q81.82 13.32 83.20 12.95Q84.58 12.58 86.02 12.58L86.02 12.58Q88.34 12.58 89.70 13.62Q91.06 14.66 91.06 16.42L91.06 16.42Q91.06 16.78 90.98 17.18L90.98 17.18L89.86 23.62Q89.76 24.19 89.34 24.50Q88.92 24.82 88.30 24.82L88.30 24.82Q87.77 24.82 87.47 24.58Q87.17 24.34 87.17 23.90L87.17 23.90Q87.17 23.74 87.19 23.64L87.19 23.64L87.29 23.18Q85.54 24.82 82.78 24.82L82.78 24.82ZM83.69 22.85Q85.46 22.85 86.56 22.22Q87.65 21.60 87.65 20.57L87.65 20.57Q87.65 19.78 86.80 19.32Q85.94 18.86 84.46 18.86L84.46 18.86Q82.90 18.86 82.00 19.50Q81.10 20.14 81.10 21.24L81.10 21.24Q81.10 22.03 81.76 22.44Q82.42 22.85 83.69 22.85L83.69 22.85ZM98.47 24.79Q96.58 24.79 95.05 24.18Q93.53 23.57 92.69 22.51L92.69 22.51Q92.47 22.22 92.47 21.91L92.47 21.91Q92.47 21.60 92.66 21.31Q92.86 21.02 93.19 20.83L93.19 20.83Q93.55 20.62 93.86 20.62L93.86 20.62Q94.32 20.62 94.73 21.07L94.73 21.07Q95.42 21.91 96.36 22.28Q97.30 22.66 98.66 22.66L98.66 22.66Q99.67 22.66 100.27 22.30Q100.87 21.94 100.87 21.34L100.87 21.34Q100.87 21 100.64 20.76Q100.42 20.52 99.84 20.26Q99.26 19.99 98.14 19.61L98.14 19.61Q96.00 18.89 95.06 18.10Q94.13 17.30 94.13 16.20L94.13 16.20Q94.13 14.54 95.52 13.56Q96.91 12.58 99.26 12.58L99.26 12.58Q100.94 12.58 102.32 13.10Q103.70 13.63 104.18 14.50L104.18 14.50Q104.33 14.78 104.33 15.02L104.33 15.02Q104.33 15.65 103.66 16.03L103.66 16.03Q103.27 16.22 102.96 16.22L102.96 16.22Q102.41 16.22 101.93 15.74L101.93 15.74Q100.97 14.71 99.05 14.71L99.05 14.71Q98.04 14.71 97.45 15.05Q96.86 15.38 96.86 15.96L96.86 15.96Q96.86 16.30 97.08 16.51Q97.30 16.73 97.90 16.98Q98.50 17.23 99.89 17.69L99.89 17.69Q101.83 18.34 102.72 19.18Q103.61 20.02 103.61 21.22L103.61 21.22Q103.61 22.92 102.28 23.86Q100.94 24.79 98.47 24.79L98.47 24.79ZM110.02 24.82Q108.07 24.82 106.86 23.89Q105.65 22.97 105.65 21.50L105.65 21.50Q105.65 20.18 106.40 19.15Q107.16 18.12 108.54 17.54Q109.92 16.97 111.72 16.97L111.72 16.97Q112.87 16.97 113.83 17.26Q114.79 17.54 115.32 18.07L115.32 18.07L115.49 17.16Q115.54 16.92 115.54 16.51L115.54 16.51Q115.54 15.55 114.91 15.12Q114.29 14.69 112.94 14.69L112.94 14.69Q110.86 14.69 109.22 15.60L109.22 15.60Q108.65 15.89 108.26 15.89L108.26 15.89Q107.90 15.89 107.64 15.62Q107.38 15.36 107.38 15L107.38 15Q107.38 14.40 108.07 13.97L108.07 13.97Q109.06 13.32 110.44 12.95Q111.82 12.58 113.26 12.58L113.26 12.58Q115.58 12.58 116.94 13.62Q118.30 14.66 118.30 16.42L118.30 16.42Q118.30 16.78 118.22 17.18L118.22 17.18L117.10 23.62Q117.00 24.19 116.58 24.50Q116.16 24.82 115.54 24.82L115.54 24.82Q115.01 24.82 114.71 24.58Q114.41 24.34 114.41 23.90L114.41 23.90Q114.41 23.74 114.43 23.64L114.43 23.64L114.53 23.18Q112.78 24.82 110.02 24.82L110.02 24.82ZM110.93 22.85Q112.70 22.85 113.80 22.22Q114.89 21.60 114.89 20.57L114.89 20.57Q114.89 19.78 114.04 19.32Q113.18 18.86 111.70 18.86L111.70 18.86Q110.14 18.86 109.24 19.50Q108.34 20.14 108.34 21.24L108.34 21.24Q108.34 22.03 109.00 22.44Q109.66 22.85 110.93 22.85L110.93 22.85ZM120.86 24.82Q120.31 24.82 120.02 24.56Q119.74 24.31 119.74 23.83L119.74 23.83Q119.74 23.64 119.76 23.54L119.76 23.54L121.49 13.85Q121.58 13.25 121.97 12.91Q122.35 12.58 122.98 12.58L122.98 12.58Q123.50 12.58 123.80 12.83Q124.10 13.08 124.10 13.56L124.10 13.56Q124.10 13.75 124.08 13.85L124.08 13.85L123.91 14.78Q126.07 12.58 129.05 12.58L129.05 12.58Q130.97 12.58 132.05 13.64Q133.13 14.71 133.13 16.56L133.13 16.56Q133.13 17.09 133.01 17.81L133.01 17.81L132.02 23.54Q131.90 24.12 131.48 24.47Q131.06 24.82 130.42 24.82L130.42 24.82Q129.89 24.82 129.60 24.56Q129.31 24.31 129.31 23.86L129.31 23.86Q129.31 23.66 129.34 23.54L129.34 23.54L130.32 17.81Q130.44 17.16 130.44 16.78L130.44 16.78Q130.44 15.74 129.88 15.24Q129.31 14.74 128.11 14.74L128.11 14.74Q126.19 14.74 124.90 15.88Q123.60 17.02 123.26 18.96L123.26 18.96L122.45 23.54Q122.33 24.12 121.91 24.47Q121.49 24.82 120.86 24.82L120.86 24.82ZM147.86 24.82Q146.06 24.82 144.71 24.01Q143.35 23.21 142.61 21.71Q141.86 20.21 141.86 18.22L141.86 18.22Q141.86 15.17 143.02 12.73Q144.17 10.30 146.24 8.92Q148.32 7.54 150.96 7.54L150.96 7.54Q152.71 7.54 154.16 8.16Q155.62 8.78 156.50 9.96L156.50 9.96Q156.74 10.27 156.74 10.63L156.74 10.63Q156.74 11.14 156.30 11.57Q155.86 12 155.33 12L155.33 12Q154.85 12 154.32 11.42L154.32 11.42Q153.48 10.51 152.69 10.12Q151.90 9.72 150.67 9.72L150.67 9.72Q148.42 9.72 146.86 11.24Q145.30 12.77 144.82 15.41L144.82 15.41L144.84 15.43Q145.80 14.28 147.24 13.62Q148.68 12.96 150.24 12.96L150.24 12.96Q152.81 12.96 154.30 14.24Q155.78 15.53 155.78 17.71L155.78 17.71Q155.78 19.80 154.79 21.41Q153.79 23.02 151.99 23.92Q150.19 24.82 147.86 24.82L147.86 24.82ZM148.27 22.63Q149.64 22.63 150.73 22.04Q151.82 21.46 152.44 20.41Q153.05 19.37 153.05 18.10L153.05 18.10Q153.05 16.70 152.14 15.92Q151.22 15.14 149.59 15.14L149.59 15.14Q148.27 15.14 147.16 15.74Q146.04 16.34 145.38 17.36Q144.72 18.38 144.72 19.61L144.72 19.61Q144.72 20.95 145.70 21.79Q146.69 22.63 148.27 22.63L148.27 22.63ZM164.23 24.82Q161.35 24.82 159.70 23.06Q158.04 21.31 158.04 18.31L158.04 18.31Q158.04 15.12 159.18 12.67Q160.32 10.22 162.40 8.88Q164.47 7.54 167.18 7.54L167.18 7.54Q169.08 7.54 170.48 8.33Q171.89 9.12 172.64 10.58Q173.40 12.05 173.40 14.04L173.40 14.04Q173.40 17.23 172.25 19.67Q171.10 22.10 169.02 23.46Q166.94 24.82 164.23 24.82L164.23 24.82ZM164.59 22.63Q166.32 22.63 167.71 21.52Q169.10 20.40 169.90 18.43Q170.69 16.46 170.69 14.02L170.69 14.02Q170.69 11.88 169.72 10.80Q168.74 9.72 166.85 9.72L166.85 9.72Q165.12 9.72 163.73 10.84Q162.34 11.95 161.54 13.92Q160.75 15.89 160.75 18.31L160.75 18.31Q160.75 20.45 161.72 21.54Q162.70 22.63 164.59 22.63L164.59 22.63ZM181.30 24.82Q178.42 24.82 176.76 23.06Q175.10 21.31 175.10 18.31L175.10 18.31Q175.10 15.12 176.24 12.67Q177.38 10.22 179.46 8.88Q181.54 7.54 184.25 7.54L184.25 7.54Q186.14 7.54 187.55 8.33Q188.95 9.12 189.71 10.58Q190.46 12.05 190.46 14.04L190.46 14.04Q190.46 17.23 189.31 19.67Q188.16 22.10 186.08 23.46Q184.01 24.82 181.30 24.82L181.30 24.82ZM181.66 22.63Q183.38 22.63 184.78 21.52Q186.17 20.40 186.96 18.43Q187.75 16.46 187.75 14.02L187.75 14.02Q187.75 11.88 186.78 10.80Q185.81 9.72 183.91 9.72L183.91 9.72Q182.18 9.72 180.79 10.84Q179.40 11.95 178.61 13.92Q177.82 15.89 177.82 18.31L177.82 18.31Q177.82 20.45 178.79 21.54Q179.76 22.63 181.66 22.63L181.66 22.63ZM201.86 10.73Q201.19 10.73 200.78 10.37Q200.38 10.01 200.38 9.43L200.38 9.43Q200.38 8.64 200.98 8.10Q201.58 7.56 202.42 7.56L202.42 7.56Q203.09 7.56 203.51 7.92Q203.93 8.28 203.93 8.86L203.93 8.86Q203.93 9.65 203.33 10.19Q202.73 10.73 201.86 10.73L201.86 10.73ZM199.39 24.82Q198.84 24.82 198.55 24.54Q198.26 24.26 198.26 23.81L198.26 23.81Q198.26 23.64 198.29 23.54L198.29 23.54L199.99 13.85Q200.09 13.22 200.52 12.90Q200.95 12.58 201.55 12.58L201.55 12.58Q202.10 12.58 202.40 12.86Q202.70 13.15 202.70 13.58L202.70 13.58Q202.70 13.75 202.68 13.85L202.68 13.85L200.98 23.54Q200.86 24.14 200.42 24.48Q199.99 24.82 199.39 24.82L199.39 24.82ZM210.24 14.90L209.11 21.26Q209.09 21.38 209.09 21.58L209.09 21.58Q209.09 22.10 209.40 22.38Q209.71 22.66 210.26 22.66L210.26 22.66Q210.74 22.66 211.13 22.50Q211.51 22.34 211.97 21.96L211.97 21.96Q212.50 21.50 212.88 21.50L212.88 21.50Q213.22 21.50 213.54 21.83Q213.86 22.15 213.86 22.49L213.86 22.49Q213.86 22.87 213.48 23.28L213.48 23.28Q212.78 24.02 211.79 24.42Q210.79 24.82 209.69 24.82L209.69 24.82Q208.18 24.82 207.29 23.99Q206.40 23.16 206.40 21.79L206.40 21.79Q206.40 21.43 206.47 21.05L206.47 21.05L207.55 14.90L206.47 14.90Q205.90 14.90 205.57 14.66Q205.25 14.42 205.25 14.02L205.25 14.02Q205.25 13.44 205.68 13.10Q206.11 12.77 206.83 12.77L206.83 12.77L207.94 12.77L208.58 9.02Q208.70 8.42 209.10 8.09Q209.50 7.75 210.12 7.75L210.12 7.75Q210.67 7.75 210.98 8.03Q211.30 8.30 211.30 8.76L211.30 8.76Q211.30 8.93 211.27 9.02L211.27 9.02L210.60 12.77L213.24 12.77Q213.79 12.77 214.12 13.00Q214.44 13.22 214.44 13.61L214.44 13.61Q214.44 14.21 214.02 14.56Q213.60 14.90 212.86 14.90L212.86 14.90L210.24 14.90ZM220.27 24.82Q218.33 24.82 217.12 23.89Q215.90 22.97 215.90 21.50L215.90 21.50Q215.90 20.18 216.66 19.15Q217.42 18.12 218.80 17.54Q220.18 16.97 221.98 16.97L221.98 16.97Q223.13 16.97 224.09 17.26Q225.05 17.54 225.58 18.07L225.58 18.07L225.74 17.16Q225.79 16.92 225.79 16.51L225.79 16.51Q225.79 15.55 225.17 15.12Q224.54 14.69 223.20 14.69L223.20 14.69Q221.11 14.69 219.48 15.60L219.48 15.60Q218.90 15.89 218.52 15.89L218.52 15.89Q218.16 15.89 217.90 15.62Q217.63 15.36 217.63 15L217.63 15Q217.63 14.40 218.33 13.97L218.33 13.97Q219.31 13.32 220.69 12.95Q222.07 12.58 223.51 12.58L223.51 12.58Q225.84 12.58 227.20 13.62Q228.55 14.66 228.55 16.42L228.55 16.42Q228.55 16.78 228.48 17.18L228.48 17.18L227.35 23.62Q227.26 24.19 226.84 24.50Q226.42 24.82 225.79 24.82L225.79 24.82Q225.26 24.82 224.96 24.58Q224.66 24.34 224.66 23.90L224.66 23.90Q224.66 23.74 224.69 23.64L224.69 23.64L224.78 23.18Q223.03 24.82 220.27 24.82L220.27 24.82ZM221.18 22.85Q222.96 22.85 224.05 22.22Q225.14 21.60 225.14 20.57L225.14 20.57Q225.14 19.78 224.29 19.32Q223.44 18.86 221.95 18.86L221.95 18.86Q220.39 18.86 219.49 19.50Q218.59 20.14 218.59 21.24L218.59 21.24Q218.59 22.03 219.25 22.44Q219.91 22.85 221.18 22.85L221.18 22.85ZM231.60 24.82Q231.07 24.82 230.78 24.58Q230.50 24.34 230.50 23.88L230.50 23.88Q230.50 23.66 230.52 23.54L230.52 23.54L233.30 7.63Q233.42 7.03 233.83 6.70Q234.24 6.36 234.86 6.36L234.86 6.36Q235.42 6.36 235.72 6.62Q236.02 6.89 236.02 7.34L236.02 7.34Q236.02 7.54 235.99 7.63L235.99 7.63L233.18 23.54Q233.06 24.12 232.64 24.47Q232.22 24.82 231.60 24.82L231.60 24.82ZM240.50 10.73Q239.83 10.73 239.42 10.37Q239.02 10.01 239.02 9.43L239.02 9.43Q239.02 8.64 239.62 8.10Q240.22 7.56 241.06 7.56L241.06 7.56Q241.73 7.56 242.15 7.92Q242.57 8.28 242.57 8.86L242.57 8.86Q242.57 9.65 241.97 10.19Q241.37 10.73 240.50 10.73L240.50 10.73ZM238.03 24.82Q237.48 24.82 237.19 24.54Q236.90 24.26 236.90 23.81L236.90 23.81Q236.90 23.64 236.93 23.54L236.93 23.54L238.63 13.85Q238.73 13.22 239.16 12.90Q239.59 12.58 240.19 12.58L240.19 12.58Q240.74 12.58 241.04 12.86Q241.34 13.15 241.34 13.58L241.34 13.58Q241.34 13.75 241.32 13.85L241.32 13.85L239.62 23.54Q239.50 24.14 239.06 24.48Q238.63 24.82 238.03 24.82L238.03 24.82ZM249.22 24.82Q246.46 24.82 244.81 23.36Q243.17 21.91 243.17 19.37L243.17 19.37Q243.17 17.40 244.12 15.85Q245.06 14.30 246.78 13.44Q248.50 12.58 250.68 12.58L250.68 12.58Q252.55 12.58 253.99 13.18Q255.43 13.78 255.89 14.66L255.89 14.66Q256.03 14.98 256.03 15.26L256.03 15.26Q256.03 15.58 255.85 15.85Q255.67 16.13 255.34 16.30L255.34 16.30Q254.95 16.51 254.62 16.51L254.62 16.51Q254.06 16.51 253.63 15.98L253.63 15.98Q253.15 15.38 252.48 15.06Q251.81 14.74 250.75 14.74L250.75 14.74Q249.34 14.74 248.23 15.35Q247.13 15.96 246.52 17.03Q245.90 18.10 245.90 19.44L245.90 19.44Q245.90 21 246.78 21.83Q247.66 22.66 249.34 22.66L249.34 22.66Q250.39 22.66 251.22 22.33Q252.05 22.01 252.96 21.31L252.96 21.31Q253.73 20.74 254.21 20.74L254.21 20.74Q254.57 20.74 254.86 21L254.86 21Q255.24 21.31 255.24 21.72L255.24 21.72Q255.24 22.13 254.83 22.66L254.83 22.66Q254.06 23.62 252.54 24.22Q251.02 24.82 249.22 24.82L249.22 24.82Z"/></svg>