<svg xmlns="http://www.w3.org/2000/svg" xmlns:xlink="http://www.w3.org/1999/xlink" width="301.41599999999994" height="26.592000000000002"><path fill="black" d="M11.18 4.39L11.18 4.39Q12.77 4.39 13.93 4.90Q15.10 5.40 15.88 6.28Q16.66 7.15 17.04 8.32Q17.42 9.48 17.42 10.80L17.42 10.80Q17.42 12.55 16.78 14.27Q16.13 15.98 14.93 17.36Q13.73 18.74 11.98 19.63Q10.22 20.52 8.04 20.62L8.04 20.62Q8.86 20.71 9.60 21.01Q10.34 21.31 11.10 21.62Q11.86 21.94 12.64 22.19Q13.42 22.44 14.33 22.44L14.33 22.44Q15.26 22.44 16.46 21.98L16.46 21.98L15.67 23.52Q15.19 23.76 14.71 23.83Q14.23 23.90 13.82 23.90L13.82 23.90Q12.82 23.90 11.93 23.57Q11.04 23.23 10.22 22.84Q9.41 22.44 8.63 22.10Q7.85 21.77 7.06 21.77L7.06 21.77Q6.48 21.77 5.62 21.98Q4.75 22.20 3.89 22.75L3.89 22.75L3.79 21.62Q4.56 21.14 5.35 20.90Q6.14 20.66 6.89 20.62L6.89 20.62Q5.47 20.52 4.45 19.98Q3.43 19.44 2.77 18.60Q2.11 17.76 1.79 16.68Q1.46 15.60 1.46 14.38L1.46 14.38Q1.46 12.41 2.16 10.61Q2.86 8.81 4.14 7.43Q5.42 6.05 7.21 5.22Q9 4.39 11.18 4.39ZM3.31 14.45L3.31 14.45Q3.31 16.61 4.55 17.83Q5.78 19.06 8.11 19.06L8.11 19.06Q9.98 19.06 11.39 18.31Q12.79 17.57 13.72 16.38Q14.64 15.19 15.10 13.68Q15.55 12.17 15.55 10.63L15.55 10.63Q15.55 9.60 15.25 8.75Q14.95 7.90 14.34 7.28Q13.73 6.67 12.78 6.32Q11.83 5.98 10.54 5.98L10.54 5.98Q8.62 5.98 7.25 6.72Q5.88 7.46 5.00 8.66Q4.13 9.86 3.72 11.39Q3.31 12.91 3.31 14.45ZM20.90 9.31L22.58 9.31L21.02 16.61Q20.98 16.87 20.94 17.10Q20.90 17.33 20.90 17.52L20.90 17.52Q20.90 18.48 21.42 18.85Q21.94 19.22 22.75 19.22L22.75 19.22Q23.98 19.22 25.19 18.50Q26.40 17.78 27.14 16.39L27.14 16.39L28.63 9.31L30.31 9.31L27.96 20.35L26.64 20.35L26.90 18.29L26.81 18.29Q26.28 19.30 25.06 19.97Q23.83 20.64 22.22 20.64L22.22 20.64Q21.58 20.64 21.01 20.51Q20.45 20.38 20.04 20.08Q19.63 19.78 19.39 19.27Q19.15 18.77 19.15 18.05L19.15 18.05Q19.15 17.52 19.30 16.82L19.30 16.82L20.90 9.31ZM42.77 9.31L44.09 9.31L41.76 20.35L40.44 20.35L40.68 18.38L40.58 18.38Q39.82 19.27 38.57 19.96Q37.32 20.64 35.78 20.64L35.78 20.64Q34.80 20.64 34.08 20.29Q33.36 19.94 32.89 19.34Q32.42 18.74 32.20 17.94Q31.97 17.14 31.97 16.25L31.97 16.25Q31.97 14.88 32.41 13.57Q32.86 12.26 33.71 11.24Q34.56 10.22 35.77 9.59Q36.98 8.95 38.52 8.95L38.52 8.95Q40.13 8.95 41.02 9.65Q41.90 10.34 42 11.38L42 11.38L42.77 9.31ZM36.26 19.22L36.26 19.22Q37.42 19.22 38.68 18.60Q39.94 17.98 40.85 16.80L40.85 16.80L41.59 13.27Q41.45 11.90 40.60 11.14Q39.74 10.37 38.47 10.37L38.47 10.37Q37.46 10.37 36.59 10.82Q35.71 11.28 35.09 12.05Q34.46 12.82 34.10 13.87Q33.74 14.93 33.74 16.10L33.74 16.10Q33.74 16.70 33.88 17.27Q34.01 17.83 34.31 18.26Q34.61 18.70 35.09 18.96Q35.57 19.22 36.26 19.22ZM46.44 18.14L48.07 10.44L46.22 10.44L46.42 9.55L48.36 9.31L49.44 5.98L50.71 5.98L49.99 9.31L52.58 9.31L52.34 10.44L49.75 10.44L48.12 18.10Q48.05 18.46 48.05 18.72L48.05 18.72Q48.05 19.10 48.23 19.22Q48.41 19.34 48.79 19.34L48.79 19.34Q49.34 19.34 49.82 19.18Q50.30 19.01 50.66 18.77L50.66 18.77L50.74 20.04Q50.30 20.23 49.60 20.42Q48.89 20.62 48.10 20.62L48.10 20.62Q47.02 20.62 46.66 20.20Q46.30 19.78 46.30 19.18L46.30 19.18Q46.30 18.94 46.34 18.67Q46.39 18.41 46.44 18.14L46.44 18.14ZM53.88 18.14L55.51 10.44L53.66 10.44L53.86 9.55L55.80 9.31L56.88 5.98L58.15 5.98L57.43 9.31L60.02 9.31L59.78 10.44L57.19 10.44L55.56 18.10Q55.49 18.46 55.49 18.72L55.49 18.72Q55.49 19.10 55.67 19.22Q55.85 19.34 56.23 19.34L56.23 19.34Q56.78 19.34 57.26 19.18Q57.74 19.01 58.10 18.77L58.10 18.77L58.18 20.04Q57.74 20.23 57.04 20.42Q56.33 20.62 55.54 20.62L55.54 20.62Q54.46 20.62 54.10 20.20Q53.74 19.78 53.74 19.18L53.74 19.18Q53.74 18.94 53.78 18.67Q53.83 18.41 53.88 18.14L53.88 18.14ZM69.10 9.50L68.26 11.09Q67.92 10.87 67.56 10.74Q67.20 10.61 66.84 10.61L66.84 10.61Q66.36 10.61 65.87 10.87Q65.38 11.14 64.92 11.59Q64.46 12.05 64.07 12.65Q63.67 13.25 63.38 13.90L63.38 13.90L62.02 20.35L60.34 20.35L62.69 9.31L64.01 9.31L63.67 11.74L63.77 11.74Q64.06 11.18 64.44 10.68Q64.82 10.18 65.30 9.79Q65.78 9.41 66.34 9.18Q66.89 8.95 67.54 8.95L67.54 8.95Q67.99 8.95 68.46 9.11Q68.93 9.26 69.10 9.50L69.10 9.50ZM76.03 8.95L76.03 8.95Q77.23 8.95 78.08 9.32Q78.94 9.70 79.49 10.33Q80.04 10.97 80.29 11.80Q80.54 12.62 80.54 13.56L80.54 13.56Q80.54 14.90 80.11 16.18Q79.68 17.45 78.82 18.43Q77.95 19.42 76.66 20.03Q75.36 20.64 73.63 20.64L73.63 20.64Q72.43 20.64 71.56 20.28Q70.68 19.92 70.13 19.28Q69.58 18.65 69.31 17.82Q69.05 16.99 69.05 16.06L69.05 16.06Q69.05 14.74 69.50 13.46Q69.96 12.19 70.84 11.18Q71.71 10.18 73.02 9.56Q74.33 8.95 76.03 8.95ZM73.90 19.37L73.90 19.37Q75.10 19.37 76.00 18.88Q76.90 18.38 77.51 17.59Q78.12 16.80 78.42 15.80Q78.72 14.81 78.72 13.80L78.72 13.80Q78.72 13.08 78.55 12.44Q78.38 11.81 78.01 11.33Q77.64 10.85 77.06 10.57Q76.49 10.30 75.67 10.30L75.67 10.30Q74.47 10.30 73.56 10.79Q72.65 11.28 72.05 12.07Q71.45 12.86 71.15 13.86Q70.85 14.86 70.85 15.86L70.85 15.86Q70.85 16.56 71.02 17.20Q71.18 17.83 71.56 18.31Q71.93 18.79 72.50 19.08Q73.08 19.37 73.90 19.37ZM93.55 9.91L92.83 11.33Q92.38 10.92 91.42 10.60Q90.46 10.27 89.42 10.27L89.42 10.27Q88.15 10.27 87.22 10.75Q86.28 11.23 85.67 12.01Q85.06 12.79 84.76 13.75Q84.46 14.71 84.46 15.67L84.46 15.67Q84.46 16.42 84.65 17.08Q84.84 17.74 85.24 18.24Q85.63 18.74 86.23 19.03Q86.83 19.32 87.67 19.32L87.67 19.32Q88.63 19.32 89.74 18.91Q90.84 18.50 91.66 17.88L91.66 17.88L91.66 19.44Q90.89 19.87 89.64 20.26Q88.39 20.64 87.07 20.64L87.07 20.64Q85.92 20.64 85.08 20.28Q84.24 19.92 83.69 19.28Q83.14 18.65 82.87 17.81Q82.61 16.97 82.61 16.03L82.61 16.03Q82.61 14.74 83.04 13.46Q83.47 12.19 84.36 11.20Q85.25 10.20 86.59 9.58Q87.94 8.95 89.74 8.95L89.74 8.95Q90.89 8.95 91.93 9.22Q92.98 9.48 93.55 9.91L93.55 9.91ZM101.50 8.95L101.50 8.95Q103.30 8.95 104.23 9.78Q105.17 10.61 105.17 12.12L105.17 12.12Q105.17 12.82 104.95 13.50Q104.74 14.18 104.52 14.47L104.52 14.47L96.36 14.47Q96.22 15.17 96.22 15.84L96.22 15.84Q96.22 16.56 96.40 17.20Q96.58 17.83 96.95 18.31Q97.32 18.79 97.91 19.08Q98.50 19.37 99.29 19.37L99.29 19.37Q99.86 19.37 100.45 19.24Q101.04 19.10 101.58 18.90Q102.12 18.70 102.61 18.46Q103.10 18.22 103.49 17.98L103.49 17.98L103.49 19.34Q103.13 19.54 102.62 19.76Q102.12 19.99 101.52 20.18Q100.92 20.38 100.24 20.51Q99.55 20.64 98.83 20.64L98.83 20.64Q97.70 20.64 96.88 20.27Q96.05 19.90 95.50 19.27Q94.94 18.65 94.67 17.81Q94.39 16.97 94.39 16.03L94.39 16.03Q94.39 14.69 94.90 13.42Q95.40 12.14 96.34 11.15Q97.27 10.15 98.58 9.55Q99.89 8.95 101.50 8.95ZM101.14 10.30L101.14 10.30Q99.48 10.30 98.40 11.14Q97.32 11.98 96.77 13.20L96.77 13.20L103.42 13.20Q103.46 13.08 103.52 12.92Q103.58 12.77 103.58 12.34L103.58 12.34Q103.58 11.33 102.86 10.81Q102.14 10.30 101.14 10.30ZM115.90 20.35L114.22 20.35L115.78 13.06Q115.87 12.60 115.87 12.14L115.87 12.14Q115.87 11.21 115.37 10.79Q114.86 10.37 114.02 10.37L114.02 10.37Q113.42 10.37 112.80 10.56Q112.18 10.75 111.60 11.12Q111.02 11.50 110.52 12.04Q110.02 12.58 109.66 13.27L109.66 13.27L108.14 20.35L106.46 20.35L108.82 9.31L110.14 9.31L109.87 11.38L109.97 11.38Q110.50 10.37 111.73 9.66Q112.97 8.95 114.58 8.95L114.58 8.95Q115.22 8.95 115.79 9.10Q116.35 9.24 116.76 9.55Q117.17 9.86 117.41 10.37Q117.65 10.87 117.65 11.62L117.65 11.62Q117.65 12.17 117.50 12.84L117.50 12.84L115.90 20.35ZM120.43 18.14L122.06 10.44L120.22 10.44L120.41 9.55L122.35 9.31L123.43 5.98L124.70 5.98L123.98 9.31L126.58 9.31L126.34 10.44L123.74 10.44L122.11 18.10Q122.04 18.46 122.04 18.72L122.04 18.72Q122.04 19.10 122.22 19.22Q122.40 19.34 122.78 19.34L122.78 19.34Q123.34 19.34 123.82 19.18Q124.30 19.01 124.66 18.77L124.66 18.77L124.73 20.04Q124.30 20.23 123.59 20.42Q122.88 20.62 122.09 20.62L122.09 20.62Q121.01 20.62 120.65 20.20Q120.29 19.78 120.29 19.18L120.29 19.18Q120.29 18.94 120.34 18.67Q120.38 18.41 120.43 18.14L120.43 18.14ZM134.14 8.95L134.14 8.95Q135.34 8.95 136.19 9.32Q137.04 9.70 137.59 10.33Q138.14 10.97 138.40 11.80Q138.65 12.62 138.65 13.56L138.65 13.56Q138.65 14.90 138.22 16.18Q137.78 17.45 136.92 18.43Q136.06 19.42 134.76 20.03Q133.46 20.64 131.74 20.64L131.74 20.64Q130.54 20.64 129.66 20.28Q128.78 19.92 128.23 19.28Q127.68 18.65 127.42 17.82Q127.15 16.99 127.15 16.06L127.15 16.06Q127.15 14.74 127.61 13.46Q128.06 12.19 128.94 11.18Q129.82 10.18 131.12 9.56Q132.43 8.95 134.14 8.95ZM132.00 19.37L132.00 19.37Q133.20 19.37 134.10 18.88Q135.00 18.38 135.61 17.59Q136.22 16.80 136.52 15.80Q136.82 14.81 136.82 13.80L136.82 13.80Q136.82 13.08 136.66 12.44Q136.49 11.81 136.12 11.33Q135.74 10.85 135.17 10.57Q134.59 10.30 133.78 10.30L133.78 10.30Q132.58 10.30 131.66 10.79Q130.75 11.28 130.15 12.07Q129.55 12.86 129.25 13.86Q128.95 14.86 128.95 15.86L128.95 15.86Q128.95 16.56 129.12 17.20Q129.29 17.83 129.66 18.31Q130.03 18.79 130.61 19.08Q131.18 19.37 132.00 19.37ZM150.26 8.74L150.26 8.74Q150.26 9.22 150.48 9.55Q150.70 9.89 151.12 10.16Q151.54 10.44 152.18 10.69Q152.83 10.94 153.70 11.26L153.70 11.26Q154.42 11.52 155.12 11.83Q155.83 12.14 156.37 12.61Q156.91 13.08 157.25 13.72Q157.58 14.35 157.58 15.26L157.58 15.26Q157.58 16.70 157.00 17.72Q156.41 18.74 155.46 19.39Q154.51 20.04 153.29 20.34Q152.06 20.64 150.79 20.64L150.79 20.64Q149.23 20.64 147.97 20.26Q146.71 19.87 145.85 19.32L145.85 19.32L146.74 17.57Q147.12 17.88 147.52 18.16Q147.91 18.43 148.40 18.62Q148.90 18.82 149.52 18.94Q150.14 19.06 150.98 19.06L150.98 19.06Q152.26 19.06 153.13 18.82Q154.01 18.58 154.56 18.16Q155.11 17.74 155.36 17.17Q155.62 16.61 155.62 15.98L155.62 15.98Q155.62 15.31 155.30 14.83Q154.99 14.35 154.49 13.99Q153.98 13.63 153.36 13.38Q152.74 13.13 152.14 12.91L152.14 12.91Q151.30 12.62 150.61 12.28Q149.93 11.93 149.45 11.50Q148.97 11.06 148.70 10.50Q148.44 9.94 148.44 9.19L148.44 9.19Q148.44 7.94 148.92 7.03Q149.40 6.12 150.23 5.53Q151.06 4.94 152.16 4.67Q153.26 4.39 154.51 4.39L154.51 4.39Q155.81 4.39 156.96 4.66Q158.11 4.92 158.86 5.30L158.86 5.30L157.97 7.15Q157.66 6.82 157.19 6.59Q156.72 6.36 156.19 6.23Q155.66 6.10 155.11 6.04Q154.56 5.98 154.08 5.98L154.08 5.98Q152.33 5.98 151.30 6.66Q150.26 7.34 150.26 8.74ZM170.62 9.31L171.94 9.31L169.61 20.35L168.29 20.35L168.53 18.38L168.43 18.38Q167.66 19.27 166.42 19.96Q165.17 20.64 163.63 20.64L163.63 20.64Q162.65 20.64 161.93 20.29Q161.21 19.94 160.74 19.34Q160.27 18.74 160.04 17.94Q159.82 17.14 159.82 16.25L159.82 16.25Q159.82 14.88 160.26 13.57Q160.70 12.26 161.56 11.24Q162.41 10.22 163.62 9.59Q164.83 8.95 166.37 8.95L166.37 8.95Q167.98 8.95 168.86 9.65Q169.75 10.34 169.85 11.38L169.85 11.38L170.62 9.31ZM164.11 19.22L164.11 19.22Q165.26 19.22 166.52 18.60Q167.78 17.98 168.70 16.80L168.70 16.80L169.44 13.27Q169.30 11.90 168.44 11.14Q167.59 10.37 166.32 10.37L166.32 10.37Q165.31 10.37 164.44 10.82Q163.56 11.28 162.94 12.05Q162.31 12.82 161.95 13.87Q161.59 14.93 161.59 16.10L161.59 16.10Q161.59 16.70 161.72 17.27Q161.86 17.83 162.16 18.26Q162.46 18.70 162.94 18.96Q163.42 19.22 164.11 19.22ZM182.74 20.35L181.06 20.35L182.62 13.06Q182.71 12.60 182.71 12.14L182.71 12.14Q182.71 11.21 182.21 10.79Q181.70 10.37 180.86 10.37L180.86 10.37Q180.26 10.37 179.64 10.56Q179.02 10.75 178.44 11.12Q177.86 11.50 177.36 12.04Q176.86 12.58 176.50 13.27L176.50 13.27L174.98 20.35L173.30 20.35L175.66 9.31L176.98 9.31L176.71 11.38L176.81 11.38Q177.34 10.37 178.57 9.66Q179.81 8.95 181.42 8.95L181.42 8.95Q182.06 8.95 182.63 9.10Q183.19 9.24 183.60 9.55Q184.01 9.86 184.25 10.37Q184.49 10.87 184.49 11.62L184.49 11.62Q184.49 12.17 184.34 12.84L184.34 12.84L182.74 20.35ZM191.76 10.30L191.76 10.30Q190.39 10.30 189.79 10.82Q189.19 11.35 189.19 12.14L189.19 12.14Q189.19 12.55 189.50 12.98Q189.82 13.42 190.68 13.61L190.68 13.61L192.31 13.99Q193.08 14.18 193.57 14.47Q194.06 14.76 194.35 15.11Q194.64 15.46 194.75 15.84Q194.86 16.22 194.86 16.56L194.86 16.56Q194.86 17.38 194.47 18.12Q194.09 18.86 193.40 19.42Q192.72 19.97 191.76 20.30Q190.80 20.64 189.65 20.64L189.65 20.64Q188.38 20.64 187.38 20.27Q186.38 19.90 185.83 19.44L185.83 19.44L186.60 17.88Q187.30 18.67 188.27 19.03Q189.24 19.39 190.08 19.39L190.08 19.39Q190.73 19.39 191.27 19.20Q191.81 19.01 192.19 18.68Q192.58 18.36 192.79 17.95Q193.01 17.54 193.01 17.09L193.01 17.09Q193.01 16.70 192.74 16.25Q192.48 15.79 191.66 15.58L191.66 15.58L189.48 15Q188.28 14.69 187.84 14.04Q187.39 13.39 187.39 12.70L187.39 12.70Q187.39 11.88 187.75 11.20Q188.11 10.51 188.75 10.01Q189.38 9.50 190.26 9.23Q191.14 8.95 192.17 8.95L192.17 8.95Q192.62 8.95 193.14 9.01Q193.66 9.07 194.14 9.20Q194.62 9.34 195.05 9.52Q195.48 9.70 195.79 9.94L195.79 9.94L195.02 11.38Q194.62 10.97 193.75 10.63Q192.89 10.30 191.76 10.30ZM213.38 13.63L213.02 15.31L211.37 15.31L210.29 20.35L208.49 20.35L209.57 15.31L202.75 15.31L203.11 13.63L211.75 4.51L213.67 4.51L211.73 13.63L213.38 13.63ZM205.15 13.63L209.93 13.63L211.30 7.13L205.15 13.63ZM224.38 4.39L224.38 4.39Q225.62 4.39 226.55 4.88Q227.47 5.38 228.08 6.20Q228.70 7.03 229.01 8.15Q229.32 9.26 229.32 10.51L229.32 10.51Q229.32 12.36 228.70 14.17Q228.07 15.98 226.94 17.42Q225.82 18.86 224.24 19.75Q222.67 20.64 220.78 20.64L220.78 20.64Q219.55 20.64 218.64 20.17Q217.73 19.70 217.14 18.89Q216.55 18.07 216.26 16.98Q215.98 15.89 215.98 14.66L215.98 14.66Q215.98 12.67 216.60 10.82Q217.22 8.98 218.34 7.55Q219.46 6.12 221.00 5.26Q222.55 4.39 224.38 4.39ZM221.16 19.06L221.16 19.06Q222.72 19.06 223.88 18.29Q225.05 17.52 225.83 16.30Q226.61 15.07 226.99 13.54Q227.38 12 227.38 10.46L227.38 10.46Q227.38 9.46 227.17 8.64Q226.97 7.82 226.55 7.22Q226.13 6.62 225.48 6.30Q224.83 5.98 223.97 5.98L223.97 5.98Q222.31 5.98 221.16 6.78Q220.01 7.58 219.30 8.84Q218.59 10.10 218.28 11.64Q217.97 13.18 217.97 14.64L217.97 14.64Q217.97 16.80 218.78 17.93Q219.60 19.06 221.16 19.06ZM240.10 4.39L240.10 4.39Q241.34 4.39 242.27 4.88Q243.19 5.38 243.80 6.20Q244.42 7.03 244.73 8.15Q245.04 9.26 245.04 10.51L245.04 10.51Q245.04 12.36 244.42 14.17Q243.79 15.98 242.66 17.42Q241.54 18.86 239.96 19.75Q238.39 20.64 236.50 20.64L236.50 20.64Q235.27 20.64 234.36 20.17Q233.45 19.70 232.86 18.89Q232.27 18.07 231.98 16.98Q231.70 15.89 231.70 14.66L231.70 14.66Q231.70 12.67 232.32 10.82Q232.94 8.98 234.06 7.55Q235.18 6.12 236.72 5.26Q238.27 4.39 240.10 4.39ZM236.88 19.06L236.88 19.06Q238.44 19.06 239.60 18.29Q240.77 17.52 241.55 16.30Q242.33 15.07 242.71 13.54Q243.10 12 243.10 10.46L243.10 10.46Q243.10 9.46 242.89 8.64Q242.69 7.82 242.27 7.22Q241.85 6.62 241.20 6.30Q240.55 5.98 239.69 5.98L239.69 5.98Q238.03 5.98 236.88 6.78Q235.73 7.58 235.02 8.84Q234.31 10.10 234.00 11.64Q233.69 13.18 233.69 14.64L233.69 14.64Q233.69 16.80 234.50 17.93Q235.32 19.06 236.88 19.06ZM256.32 9.31L253.97 20.35L252.29 20.35L254.64 9.31L256.32 9.31ZM255.10 5.50L255.10 5.50Q255.10 5.21 255.23 4.94Q255.36 4.68 255.56 4.48Q255.77 4.27 256.04 4.15Q256.32 4.03 256.61 4.03L256.61 4.03Q257.04 4.03 257.32 4.36Q257.59 4.68 257.59 5.09L257.59 5.09Q257.59 5.66 257.11 6.07Q256.63 6.48 256.08 6.48L256.08 6.48Q255.65 6.48 255.37 6.19Q255.10 5.90 255.10 5.50ZM258.65 18.14L260.28 10.44L258.43 10.44L258.62 9.55L260.57 9.31L261.65 5.98L262.92 5.98L262.20 9.31L264.79 9.31L264.55 10.44L261.96 10.44L260.33 18.10Q260.26 18.46 260.26 18.72L260.26 18.72Q260.26 19.10 260.44 19.22Q260.62 19.34 261.00 19.34L261.00 19.34Q261.55 19.34 262.03 19.18Q262.51 19.01 262.87 18.77L262.87 18.77L262.94 20.04Q262.51 20.23 261.80 20.42Q261.10 20.62 260.30 20.62L260.30 20.62Q259.22 20.62 258.86 20.20Q258.50 19.78 258.50 19.18L258.50 19.18Q258.50 18.94 258.55 18.67Q258.60 18.41 258.65 18.14L258.65 18.14ZM276.14 9.31L277.46 9.31L275.14 20.35L273.82 20.35L274.06 18.38L273.96 18.38Q273.19 19.27 271.94 19.96Q270.70 20.64 269.16 20.64L269.16 20.64Q268.18 20.64 267.46 20.29Q266.74 19.94 266.27 19.34Q265.80 18.74 265.57 17.94Q265.34 17.14 265.34 16.25L265.34 16.25Q265.34 14.88 265.79 13.57Q266.23 12.26 267.08 11.24Q267.94 10.22 269.15 9.59Q270.36 8.95 271.90 8.95L271.90 8.95Q273.50 8.95 274.39 9.65Q275.28 10.34 275.38 11.38L275.38 11.38L276.14 9.31ZM269.64 19.22L269.64 19.22Q270.79 19.22 272.05 18.60Q273.31 17.98 274.22 16.80L274.22 16.80L274.97 13.27Q274.82 11.90 273.97 11.14Q273.12 10.37 271.85 10.37L271.85 10.37Q270.84 10.37 269.96 10.82Q269.09 11.28 268.46 12.05Q267.84 12.82 267.48 13.87Q267.12 14.93 267.12 16.10L267.12 16.10Q267.12 16.70 267.25 17.27Q267.38 17.83 267.68 18.26Q267.98 18.70 268.46 18.96Q268.94 19.22 269.64 19.22ZM284.42 2.59L280.66 20.35L278.98 20.35L282.74 2.59L284.42 2.59ZM288.53 9.31L286.18 20.35L284.50 20.35L286.85 9.31L288.53 9.31ZM287.30 5.50L287.30 5.50Q287.30 5.21 287.44 4.94Q287.57 4.68 287.77 4.48Q287.98 4.27 288.25 4.15Q288.53 4.03 288.82 4.03L288.82 4.03Q289.25 4.03 289.52 4.36Q289.80 4.68 289.80 5.09L289.80 5.09Q289.80 5.66 289.32 6.07Q288.84 6.48 288.29 6.48L288.29 6.48Q287.86 6.48 287.58 6.19Q287.30 5.90 287.30 5.50ZM301.18 9.91L300.46 11.33Q300.00 10.92 299.04 10.60Q298.08 10.27 297.05 10.27L297.05 10.27Q295.78 10.27 294.84 10.75Q293.90 11.23 293.29 12.01Q292.68 12.79 292.38 13.75Q292.08 14.71 292.08 15.67L292.08 15.67Q292.08 16.42 292.27 17.08Q292.46 17.74 292.86 18.24Q293.26 18.74 293.86 19.03Q294.46 19.32 295.30 19.32L295.30 19.32Q296.26 19.32 297.36 18.91Q298.46 18.50 299.28 17.88L299.28 17.88L299.28 19.44Q298.51 19.87 297.26 20.26Q296.02 20.64 294.70 20.64L294.70 20.64Q293.54 20.64 292.70 20.28Q291.86 19.92 291.31 19.28Q290.76 18.65 290.50 17.81Q290.23 16.97 290.23 16.03L290.23 16.03Q290.23 14.74 290.66 13.46Q291.10 12.19 291.98 11.20Q292.87 10.20 294.22 9.58Q295.56 8.95 297.36 8.95L297.36 8.95Q298.51 8.95 299.56 9.22Q300.60 9.48 301.18 9.91L301.18 9.91Z"/></svg>