<svg xmlns="http://www.w3.org/2000/svg" xmlns:xlink="http://www.w3.org/1999/xlink" width="396.408" height="31.296"><path fill="black" d="M16.78 4.37L16.78 21.50L12.89 21.50L4.82 8.09L4.73 8.09Q4.78 8.64 4.82 9.41Q4.87 10.18 4.91 11.00Q4.94 11.83 4.94 12.62L4.94 12.62L4.94 21.50L2.14 21.50L2.14 4.37L6 4.37L14.04 17.69L14.11 17.69Q14.09 17.23 14.05 16.48Q14.02 15.72 13.98 14.87Q13.94 14.02 13.94 13.32L13.94 13.32L13.94 4.37L16.78 4.37ZM32.52 14.98L32.52 14.98Q32.52 16.58 32.09 17.84Q31.66 19.10 30.85 19.98Q30.05 20.86 28.88 21.30Q27.72 21.74 26.28 21.74L26.28 21.74Q24.94 21.74 23.81 21.30Q22.68 20.86 21.86 19.98Q21.05 19.10 20.58 17.84Q20.11 16.58 20.11 14.98L20.11 14.98Q20.11 12.79 20.87 11.30Q21.62 9.82 23.02 9.04Q24.41 8.26 26.35 8.26L26.35 8.26Q28.18 8.26 29.56 9.04Q30.94 9.82 31.73 11.30Q32.52 12.79 32.52 14.98ZM23.23 14.98L23.23 14.98Q23.23 16.32 23.56 17.32Q23.88 18.31 24.56 18.84Q25.25 19.37 26.33 19.37L26.33 19.37Q27.41 19.37 28.09 18.84Q28.78 18.31 29.09 17.32Q29.40 16.32 29.40 14.98L29.40 14.98Q29.40 13.58 29.08 12.62Q28.75 11.66 28.08 11.15Q27.41 10.63 26.30 10.63L26.30 10.63Q24.70 10.63 23.96 11.77Q23.23 12.91 23.23 14.98ZM40.73 19.30L40.73 19.30Q41.26 19.30 41.76 19.19Q42.26 19.08 42.67 18.96L42.67 18.96L42.67 21.22Q42.19 21.46 41.48 21.60Q40.78 21.74 39.94 21.74L39.94 21.74Q38.81 21.74 37.91 21.37Q37.01 21 36.47 20.09Q35.93 19.18 35.93 17.52L35.93 17.52L35.93 10.80L34.20 10.80L34.20 9.46L36.12 8.40L37.08 5.64L39 5.64L39 8.50L42.55 8.50L42.55 10.80L39 10.80L39 17.38Q39 18.36 39.47 18.83Q39.94 19.30 40.73 19.30ZM56.90 14.98L56.90 14.98Q56.90 16.58 56.47 17.84Q56.04 19.10 55.24 19.98Q54.43 20.86 53.27 21.30Q52.10 21.74 50.66 21.74L50.66 21.74Q49.32 21.74 48.19 21.30Q47.06 20.86 46.25 19.98Q45.43 19.10 44.96 17.84Q44.50 16.58 44.50 14.98L44.50 14.98Q44.50 12.79 45.25 11.30Q46.01 9.82 47.40 9.04Q48.79 8.26 50.74 8.26L50.74 8.26Q52.56 8.26 53.94 9.04Q55.32 9.82 56.11 11.30Q56.90 12.79 56.90 14.98ZM47.62 14.98L47.62 14.98Q47.62 16.32 47.94 17.32Q48.26 18.31 48.95 18.84Q49.63 19.37 50.71 19.37L50.71 19.37Q51.79 19.37 52.48 18.84Q53.16 18.31 53.47 17.32Q53.78 16.32 53.78 14.98L53.78 14.98Q53.78 13.58 53.46 12.62Q53.14 11.66 52.46 11.15Q51.79 10.63 50.69 10.63L50.69 10.63Q49.08 10.63 48.35 11.77Q47.62 12.91 47.62 14.98ZM76.78 16.68L76.78 16.68Q76.78 18.17 76.04 19.31Q75.31 20.45 73.90 21.10Q72.48 21.74 70.42 21.74L70.42 21.74Q69.38 21.74 68.51 21.65Q67.63 21.55 66.90 21.35Q66.17 21.14 65.50 20.83L65.50 20.83L65.50 17.98Q66.58 18.48 67.91 18.82Q69.24 19.15 70.51 19.15L70.51 19.15Q71.57 19.15 72.28 18.88Q72.98 18.60 73.33 18.11Q73.68 17.62 73.68 16.97L73.68 16.97Q73.68 16.27 73.33 15.79Q72.98 15.31 72.19 14.88Q71.40 14.45 70.01 13.92L70.01 13.92Q68.62 13.37 67.64 12.70Q66.67 12.02 66.18 11.08Q65.69 10.13 65.69 8.74L65.69 8.74Q65.69 7.27 66.43 6.24Q67.18 5.21 68.48 4.67Q69.79 4.13 71.52 4.13L71.52 4.13Q73.06 4.13 74.29 4.43Q75.53 4.73 76.51 5.18L76.51 5.18L75.58 7.70Q74.59 7.27 73.54 7.00Q72.48 6.72 71.45 6.72L71.45 6.72Q70.54 6.72 69.95 6.96Q69.36 7.20 69.07 7.64Q68.78 8.09 68.78 8.66L68.78 8.66Q68.78 9.36 69.12 9.84Q69.46 10.32 70.25 10.74Q71.04 11.16 72.38 11.71L72.38 11.71Q73.80 12.26 74.77 12.91Q75.74 13.56 76.26 14.45Q76.78 15.34 76.78 16.68ZM85.13 8.26L85.13 8.26Q87.55 8.26 88.79 9.37Q90.02 10.49 90.02 12.77L90.02 12.77L90.02 21.50L87.86 21.50L87.29 19.70L87.19 19.70Q86.64 20.40 86.05 20.86Q85.46 21.31 84.70 21.53Q83.93 21.74 82.85 21.74L82.85 21.74Q81.70 21.74 80.77 21.31Q79.85 20.88 79.32 19.99Q78.79 19.10 78.79 17.74L78.79 17.74Q78.79 15.74 80.29 14.70Q81.79 13.66 84.82 13.56L84.82 13.56L87 13.49L87 12.94Q87 11.62 86.40 11.08Q85.80 10.54 84.74 10.54L84.74 10.54Q83.81 10.54 82.88 10.84Q81.96 11.14 81.10 11.52L81.10 11.52L80.18 9.41Q81.14 8.88 82.42 8.57Q83.69 8.26 85.13 8.26ZM87 15.36L85.42 15.41Q83.45 15.50 82.68 16.07Q81.91 16.63 81.91 17.66L81.91 17.66Q81.91 18.58 82.46 19.02Q83.02 19.46 83.88 19.46L83.88 19.46Q85.20 19.46 86.10 18.70Q87 17.93 87 16.46L87 16.46L87 15.36ZM100.68 8.26L100.68 8.26Q102.89 8.26 104.11 9.38Q105.34 10.51 105.34 13.03L105.34 13.03L105.34 21.50L102.31 21.50L102.31 13.66Q102.31 12.17 101.72 11.44Q101.14 10.70 99.91 10.70L99.91 10.70Q98.09 10.70 97.42 11.86Q96.74 13.01 96.74 15.17L96.74 15.17L96.74 21.50L93.70 21.50L93.70 8.50L96.05 8.50L96.48 10.25L96.62 10.25Q97.06 9.58 97.68 9.13Q98.30 8.69 99.06 8.47Q99.82 8.26 100.68 8.26ZM117.94 17.76L117.94 17.76Q117.94 19.01 117.34 19.90Q116.74 20.78 115.56 21.26Q114.38 21.74 112.63 21.74L112.63 21.74Q111.26 21.74 110.23 21.55Q109.20 21.36 108.31 20.95L108.31 20.95L108.31 18.36Q109.27 18.82 110.44 19.12Q111.60 19.42 112.58 19.42L112.58 19.42Q113.88 19.42 114.46 19.03Q115.03 18.65 115.03 18L115.03 18Q115.03 17.59 114.78 17.27Q114.53 16.94 113.87 16.61Q113.21 16.27 112.01 15.79L112.01 15.79Q110.81 15.31 109.98 14.82Q109.15 14.33 108.72 13.62Q108.29 12.91 108.29 11.86L108.29 11.86Q108.29 10.10 109.68 9.18Q111.07 8.26 113.35 8.26L113.35 8.26Q114.58 8.26 115.64 8.50Q116.71 8.74 117.74 9.22L117.74 9.22L116.83 11.38Q115.94 10.99 115.01 10.74Q114.07 10.49 113.28 10.49L113.28 10.49Q112.27 10.49 111.73 10.80Q111.19 11.11 111.19 11.66L111.19 11.66Q111.19 12.10 111.46 12.40Q111.72 12.70 112.39 13.01Q113.06 13.32 114.26 13.78L114.26 13.78Q115.44 14.23 116.27 14.74Q117.10 15.24 117.52 15.95Q117.94 16.66 117.94 17.76ZM141.38 12.70L141.38 12.70Q141.38 15.60 140.30 17.57Q139.22 19.54 137.22 20.52Q135.22 21.50 132.43 21.50L132.43 21.50L127.34 21.50L127.34 4.37L132.89 4.37Q135.53 4.37 137.44 5.33Q139.34 6.29 140.36 8.12Q141.38 9.96 141.38 12.70ZM138.14 12.79L138.14 12.79Q138.14 10.80 137.52 9.50Q136.90 8.21 135.68 7.57Q134.47 6.94 132.70 6.94L132.70 6.94L130.46 6.94L130.46 18.91L132.29 18.91Q135.24 18.91 136.69 17.39Q138.14 15.86 138.14 12.79ZM150.00 8.26L150.00 8.26Q151.75 8.26 153.02 8.95Q154.30 9.65 154.98 10.97Q155.66 12.29 155.66 14.16L155.66 14.16L155.66 15.72L147.10 15.72Q147.14 17.47 148.08 18.43Q149.02 19.39 150.74 19.39L150.74 19.39Q151.97 19.39 152.95 19.15Q153.94 18.91 154.97 18.46L154.97 18.46L154.97 20.86Q154.01 21.31 152.98 21.53Q151.94 21.74 150.48 21.74L150.48 21.74Q148.58 21.74 147.11 21.01Q145.63 20.28 144.80 18.79Q143.98 17.30 143.98 15.10L143.98 15.10Q143.98 12.86 144.73 11.34Q145.49 9.82 146.84 9.04Q148.20 8.26 150.00 8.26ZM150.05 10.51L150.05 10.51Q148.80 10.51 148.04 11.30Q147.29 12.10 147.17 13.58L147.17 13.58L152.71 13.58Q152.71 12.67 152.42 11.99Q152.14 11.30 151.55 10.91Q150.96 10.51 150.05 10.51ZM164.50 21.50L161.28 21.50L156.34 8.50L159.55 8.50L162.10 16.18Q162.24 16.51 162.38 17.00Q162.53 17.50 162.66 17.96Q162.79 18.43 162.82 18.79L162.82 18.79L162.91 18.79Q162.96 18.43 163.09 17.96Q163.22 17.50 163.39 17.02Q163.56 16.54 163.66 16.18L163.66 16.18L166.25 8.50L169.46 8.50L164.50 21.50ZM176.81 8.26L176.81 8.26Q179.23 8.26 180.47 9.37Q181.70 10.49 181.70 12.77L181.70 12.77L181.70 21.50L179.54 21.50L178.97 19.70L178.87 19.70Q178.32 20.40 177.73 20.86Q177.14 21.31 176.38 21.53Q175.61 21.74 174.53 21.74L174.53 21.74Q173.38 21.74 172.45 21.31Q171.53 20.88 171 19.99Q170.47 19.10 170.47 17.74L170.47 17.74Q170.47 15.74 171.97 14.70Q173.47 13.66 176.50 13.56L176.50 13.56L178.68 13.49L178.68 12.94Q178.68 11.62 178.08 11.08Q177.48 10.54 176.42 10.54L176.42 10.54Q175.49 10.54 174.56 10.84Q173.64 11.14 172.78 11.52L172.78 11.52L171.86 9.41Q172.82 8.88 174.10 8.57Q175.37 8.26 176.81 8.26ZM178.68 15.36L177.10 15.41Q175.13 15.50 174.36 16.07Q173.59 16.63 173.59 17.66L173.59 17.66Q173.59 18.58 174.14 19.02Q174.70 19.46 175.56 19.46L175.56 19.46Q176.88 19.46 177.78 18.70Q178.68 17.93 178.68 16.46L178.68 16.46L178.68 15.36ZM192.36 8.26L192.36 8.26Q194.57 8.26 195.79 9.38Q197.02 10.51 197.02 13.03L197.02 13.03L197.02 21.50L193.99 21.50L193.99 13.66Q193.99 12.17 193.40 11.44Q192.82 10.70 191.59 10.70L191.59 10.70Q189.77 10.70 189.10 11.86Q188.42 13.01 188.42 15.17L188.42 15.17L188.42 21.50L185.38 21.50L185.38 8.50L187.73 8.50L188.16 10.25L188.30 10.25Q188.74 9.58 189.36 9.13Q189.98 8.69 190.74 8.47Q191.50 8.26 192.36 8.26ZM206.16 8.26L206.16 8.26Q208.58 8.26 209.82 9.37Q211.06 10.49 211.06 12.77L211.06 12.77L211.06 21.50L208.90 21.50L208.32 19.70L208.22 19.70Q207.67 20.40 207.08 20.86Q206.50 21.31 205.73 21.53Q204.96 21.74 203.88 21.74L203.88 21.74Q202.73 21.74 201.80 21.31Q200.88 20.88 200.35 19.99Q199.82 19.10 199.82 17.74L199.82 17.74Q199.82 15.74 201.32 14.70Q202.82 13.66 205.85 13.56L205.85 13.56L208.03 13.49L208.03 12.94Q208.03 11.62 207.43 11.08Q206.83 10.54 205.78 10.54L205.78 10.54Q204.84 10.54 203.92 10.84Q202.99 11.14 202.13 11.52L202.13 11.52L201.22 9.41Q202.18 8.88 203.45 8.57Q204.72 8.26 206.16 8.26ZM208.03 15.36L206.45 15.41Q204.48 15.50 203.71 16.07Q202.94 16.63 202.94 17.66L202.94 17.66Q202.94 18.58 203.50 19.02Q204.05 19.46 204.91 19.46L204.91 19.46Q206.23 19.46 207.13 18.70Q208.03 17.93 208.03 16.46L208.03 16.46L208.03 15.36ZM219.17 8.26L219.17 8.26Q220.49 8.26 221.44 8.75Q222.38 9.24 223.03 10.15L223.03 10.15L223.15 10.15L223.46 8.50L226.01 8.50L226.01 21.65Q226.01 23.50 225.32 24.74Q224.64 25.99 223.26 26.63Q221.88 27.26 219.74 27.26L219.74 27.26Q218.28 27.26 217.09 27.07Q215.90 26.88 214.90 26.47L214.90 26.47L214.90 23.81Q215.93 24.29 217.09 24.55Q218.26 24.82 219.72 24.82L219.72 24.82Q221.28 24.82 222.12 24.02Q222.96 23.23 222.96 21.82L222.96 21.82L222.96 21.43Q222.96 21.12 223.00 20.63Q223.03 20.14 223.06 19.80L223.06 19.80L222.96 19.80Q222.36 20.71 221.42 21.23Q220.49 21.74 219.14 21.74L219.14 21.74Q216.79 21.74 215.42 19.99Q214.06 18.24 214.06 15.02L214.06 15.02Q214.06 11.83 215.44 10.04Q216.82 8.26 219.17 8.26ZM220.01 10.70L220.01 10.70Q219.10 10.70 218.46 11.21Q217.82 11.71 217.50 12.68Q217.18 13.66 217.18 15.05L217.18 15.05Q217.18 17.18 217.91 18.25Q218.64 19.32 220.06 19.32L220.06 19.32Q220.87 19.32 221.45 19.09Q222.02 18.86 222.40 18.40Q222.77 17.93 222.95 17.21Q223.13 16.49 223.13 15.50L223.13 15.50L223.13 14.98Q223.13 13.51 222.80 12.56Q222.48 11.62 221.80 11.16Q221.11 10.70 220.01 10.70ZM235.22 8.26L235.22 8.26Q237.65 8.26 238.88 9.37Q240.12 10.49 240.12 12.77L240.12 12.77L240.12 21.50L237.96 21.50L237.38 19.70L237.29 19.70Q236.74 20.40 236.15 20.86Q235.56 21.31 234.79 21.53Q234.02 21.74 232.94 21.74L232.94 21.74Q231.79 21.74 230.87 21.31Q229.94 20.88 229.42 19.99Q228.89 19.10 228.89 17.74L228.89 17.74Q228.89 15.74 230.39 14.70Q231.89 13.66 234.91 13.56L234.91 13.56L237.10 13.49L237.10 12.94Q237.10 11.62 236.50 11.08Q235.90 10.54 234.84 10.54L234.84 10.54Q233.90 10.54 232.98 10.84Q232.06 11.14 231.19 11.52L231.19 11.52L230.28 9.41Q231.24 8.88 232.51 8.57Q233.78 8.26 235.22 8.26ZM237.10 15.36L235.51 15.41Q233.54 15.50 232.78 16.07Q232.01 16.63 232.01 17.66L232.01 17.66Q232.01 18.58 232.56 19.02Q233.11 19.46 233.98 19.46L233.98 19.46Q235.30 19.46 236.20 18.70Q237.10 17.93 237.10 16.46L237.10 16.46L237.10 15.36ZM250.56 8.26L250.56 8.26Q250.92 8.26 251.34 8.29Q251.76 8.33 252.02 8.40L252.02 8.40L251.71 11.23Q251.42 11.18 251.05 11.14Q250.68 11.09 250.25 11.09L250.25 11.09Q249.62 11.09 249.02 11.30Q248.42 11.52 247.92 11.98Q247.42 12.43 247.13 13.12Q246.84 13.80 246.84 14.76L246.84 14.76L246.84 21.50L243.79 21.50L243.79 8.50L246.14 8.50L246.58 10.75L246.72 10.75Q247.10 10.06 247.68 9.48Q248.26 8.90 248.99 8.58Q249.72 8.26 250.56 8.26ZM254.21 8.50L257.26 8.50L257.26 21.50L254.21 21.50L254.21 8.50ZM255.77 3.46L255.77 3.46Q256.44 3.46 256.94 3.82Q257.45 4.18 257.45 5.06L257.45 5.06Q257.45 5.93 256.94 6.30Q256.44 6.67 255.77 6.67L255.77 6.67Q255.05 6.67 254.56 6.30Q254.06 5.93 254.06 5.06L254.06 5.06Q254.06 4.18 254.56 3.82Q255.05 3.46 255.77 3.46ZM272.38 21.74L272.38 21.74Q270.72 21.74 269.39 20.93Q268.06 20.11 267.28 18.44Q266.50 16.78 266.50 14.21L266.50 14.21Q266.50 12.72 266.69 11.27Q266.88 9.82 267.38 8.53Q267.89 7.25 268.79 6.25Q269.69 5.26 271.08 4.69Q272.47 4.13 274.49 4.13L274.49 4.13Q274.97 4.13 275.60 4.18Q276.24 4.22 276.67 4.34L276.67 4.34L276.67 6.84Q276.24 6.72 275.69 6.65Q275.14 6.58 274.51 6.58L274.51 6.58Q273.05 6.58 272.09 7.03Q271.13 7.49 270.56 8.28Q270 9.07 269.74 10.16Q269.47 11.26 269.42 12.50L269.42 12.50L269.57 12.50Q270.02 11.66 270.86 11.09Q271.70 10.51 273.07 10.51L273.07 10.51Q274.56 10.51 275.63 11.14Q276.70 11.76 277.28 12.96Q277.87 14.16 277.87 15.86L277.87 15.86Q277.87 17.69 277.20 19.01Q276.53 20.33 275.30 21.04Q274.08 21.74 272.38 21.74ZM272.33 19.25L272.33 19.25Q273.48 19.25 274.19 18.43Q274.90 17.62 274.90 15.89L274.90 15.89Q274.90 14.50 274.28 13.70Q273.67 12.91 272.40 12.91L272.40 12.91Q271.54 12.91 270.89 13.31Q270.24 13.70 269.89 14.29Q269.54 14.88 269.54 15.55L269.54 15.55Q269.54 16.42 269.86 17.27Q270.17 18.12 270.79 18.68Q271.42 19.25 272.33 19.25ZM285.55 21.74L285.55 21.74Q282.65 21.74 281.26 19.40Q279.86 17.06 279.86 12.94L279.86 12.94Q279.86 10.13 280.43 8.16Q280.99 6.19 282.24 5.15Q283.49 4.10 285.55 4.10L285.55 4.10Q288.48 4.10 289.88 6.42Q291.29 8.74 291.29 12.94L291.29 12.94Q291.29 15 290.98 16.63Q290.66 18.26 289.99 19.40Q289.32 20.54 288.23 21.14Q287.14 21.74 285.55 21.74ZM285.55 19.22L285.55 19.22Q287.04 19.22 287.63 17.66Q288.22 16.10 288.22 12.94L288.22 12.94Q288.22 9.79 287.63 8.22Q287.04 6.65 285.55 6.65L285.55 6.65Q284.09 6.65 283.51 8.22Q282.94 9.79 282.94 12.94L282.94 12.94Q282.94 16.08 283.51 17.65Q284.09 19.22 285.55 19.22ZM299.02 21.74L299.02 21.74Q296.11 21.74 294.72 19.40Q293.33 17.06 293.33 12.94L293.33 12.94Q293.33 10.13 293.89 8.16Q294.46 6.19 295.70 5.15Q296.95 4.10 299.02 4.10L299.02 4.10Q301.94 4.10 303.35 6.42Q304.75 8.74 304.75 12.94L304.75 12.94Q304.75 15 304.44 16.63Q304.13 18.26 303.46 19.40Q302.78 20.54 301.69 21.14Q300.60 21.74 299.02 21.74ZM299.02 19.22L299.02 19.22Q300.50 19.22 301.09 17.66Q301.68 16.10 301.68 12.94L301.68 12.94Q301.68 9.79 301.09 8.22Q300.50 6.65 299.02 6.65L299.02 6.65Q297.55 6.65 296.98 8.22Q296.40 9.79 296.40 12.94L296.40 12.94Q296.40 16.08 296.98 17.65Q297.55 19.22 299.02 19.22ZM320.86 8.26L320.86 8.26Q323.06 8.26 324.29 9.38Q325.51 10.51 325.51 13.03L325.51 13.03L325.51 21.50L322.49 21.50L322.49 13.66Q322.49 12.17 321.90 11.44Q321.31 10.70 320.09 10.70L320.09 10.70Q318.26 10.70 317.59 11.86Q316.92 13.01 316.92 15.17L316.92 15.17L316.92 21.50L313.87 21.50L313.87 8.50L316.22 8.50L316.66 10.25L316.80 10.25Q317.23 9.58 317.86 9.13Q318.48 8.69 319.24 8.47Q319.99 8.26 320.86 8.26ZM340.92 14.98L340.92 14.98Q340.92 16.58 340.49 17.84Q340.06 19.10 339.25 19.98Q338.45 20.86 337.28 21.30Q336.12 21.74 334.68 21.74L334.68 21.74Q333.34 21.74 332.21 21.30Q331.08 20.86 330.26 19.98Q329.45 19.10 328.98 17.84Q328.51 16.58 328.51 14.98L328.51 14.98Q328.51 12.79 329.27 11.30Q330.02 9.82 331.42 9.04Q332.81 8.26 334.75 8.26L334.75 8.26Q336.58 8.26 337.96 9.04Q339.34 9.82 340.13 11.30Q340.92 12.79 340.92 14.98ZM331.63 14.98L331.63 14.98Q331.63 16.32 331.96 17.32Q332.28 18.31 332.96 18.84Q333.65 19.37 334.73 19.37L334.73 19.37Q335.81 19.37 336.49 18.84Q337.18 18.31 337.49 17.32Q337.80 16.32 337.80 14.98L337.80 14.98Q337.80 13.58 337.48 12.62Q337.15 11.66 336.48 11.15Q335.81 10.63 334.70 10.63L334.70 10.63Q333.10 10.63 332.36 11.77Q331.63 12.91 331.63 14.98ZM350.76 8.26L350.76 8.26Q351.12 8.26 351.54 8.29Q351.96 8.33 352.22 8.40L352.22 8.40L351.91 11.23Q351.62 11.18 351.25 11.14Q350.88 11.09 350.45 11.09L350.45 11.09Q349.82 11.09 349.22 11.30Q348.62 11.52 348.12 11.98Q347.62 12.43 347.33 13.12Q347.04 13.80 347.04 14.76L347.04 14.76L347.04 21.50L343.99 21.50L343.99 8.50L346.34 8.50L346.78 10.75L346.92 10.75Q347.30 10.06 347.88 9.48Q348.46 8.90 349.19 8.58Q349.92 8.26 350.76 8.26ZM369.31 8.26L369.31 8.26Q371.52 8.26 372.65 9.38Q373.78 10.51 373.78 13.03L373.78 13.03L373.78 21.50L370.75 21.50L370.75 13.63Q370.75 12.12 370.20 11.41Q369.65 10.70 368.52 10.70L368.52 10.70Q366.94 10.70 366.28 11.75Q365.62 12.79 365.62 14.74L365.62 14.74L365.62 21.50L362.57 21.50L362.57 13.63Q362.57 12.62 362.33 11.99Q362.09 11.35 361.60 11.03Q361.10 10.70 360.36 10.70L360.36 10.70Q359.23 10.70 358.61 11.23Q357.98 11.76 357.72 12.74Q357.46 13.73 357.46 15.17L357.46 15.17L357.46 21.50L354.41 21.50L354.41 8.50L356.78 8.50L357.22 10.20L357.34 10.20Q357.72 9.58 358.30 9.13Q358.87 8.69 359.62 8.47Q360.36 8.26 361.20 8.26L361.20 8.26Q362.69 8.26 363.66 8.76Q364.63 9.26 365.16 10.30L365.16 10.30L365.28 10.30Q365.93 9.26 367.00 8.76Q368.06 8.26 369.31 8.26ZM382.92 8.26L382.92 8.26Q385.34 8.26 386.58 9.37Q387.82 10.49 387.82 12.77L387.82 12.77L387.82 21.50L385.66 21.50L385.08 19.70L384.98 19.70Q384.43 20.40 383.84 20.86Q383.26 21.31 382.49 21.53Q381.72 21.74 380.64 21.74L380.64 21.74Q379.49 21.74 378.56 21.31Q377.64 20.88 377.11 19.99Q376.58 19.10 376.58 17.74L376.58 17.74Q376.58 15.74 378.08 14.70Q379.58 13.66 382.61 13.56L382.61 13.56L384.79 13.49L384.79 12.94Q384.79 11.62 384.19 11.08Q383.59 10.54 382.54 10.54L382.54 10.54Q381.60 10.54 380.68 10.84Q379.75 11.14 378.89 11.52L378.89 11.52L377.98 9.41Q378.94 8.88 380.21 8.57Q381.48 8.26 382.92 8.26ZM384.79 15.36L383.21 15.41Q381.24 15.50 380.47 16.07Q379.70 16.63 379.70 17.66L379.70 17.66Q379.70 18.58 380.26 19.02Q380.81 19.46 381.67 19.46L381.67 19.46Q382.99 19.46 383.89 18.70Q384.79 17.93 384.79 16.46L384.79 16.46L384.79 15.36ZM394.54 3.26L394.54 21.50L391.49 21.50L391.49 3.26L394.54 3.26Z"/></svg>