<svg xmlns="http://www.w3.org/2000/svg" xmlns:xlink="http://www.w3.org/1999/xlink" width="357.91200000000003" height="32.688"><path fill="black" d="M6.94 25.66L0.84 25.66L0.84 24.58L1.22 24.58Q1.78 24.58 2.20 24.46Q2.62 24.34 2.87 23.98Q3.12 23.62 3.12 22.90L3.12 22.90L3.12 11.18Q3.12 10.49 2.86 10.15Q2.59 9.82 2.17 9.71Q1.75 9.60 1.27 9.60L1.27 9.60L0.84 9.60L0.84 8.52L5.50 8.52L14.06 21.43L14.06 11.18Q14.06 10.51 13.80 10.16Q13.54 9.82 13.13 9.71Q12.72 9.60 12.22 9.60L12.22 9.60L11.78 9.60L11.78 8.52L17.88 8.52L17.88 9.60L17.45 9.60Q16.94 9.60 16.52 9.72Q16.10 9.84 15.86 10.20Q15.62 10.56 15.62 11.28L15.62 11.28L15.62 25.66L13.78 25.66L4.68 12.00L4.68 22.90Q4.68 23.62 4.92 23.98Q5.16 24.34 5.58 24.46Q6 24.58 6.50 24.58L6.50 24.58L6.94 24.58L6.94 25.66ZM25.49 25.90L25.49 25.90Q22.82 25.90 21.29 24.24Q19.75 22.58 19.75 19.20L19.75 19.20Q19.75 15.84 21.22 14.18Q22.68 12.53 25.56 12.53L25.56 12.53Q28.22 12.53 29.76 14.18Q31.30 15.84 31.30 19.20L31.30 19.20Q31.30 22.58 29.82 24.24Q28.34 25.90 25.49 25.90ZM25.54 24.58L25.54 24.58Q26.66 24.58 27.34 23.96Q28.01 23.35 28.30 22.15Q28.58 20.95 28.58 19.20L28.58 19.20Q28.58 16.54 27.89 15.20Q27.19 13.87 25.51 13.87L25.51 13.87Q23.83 13.87 23.15 15.20Q22.46 16.54 22.46 19.20L22.46 19.20Q22.46 21.84 23.16 23.21Q23.86 24.58 25.54 24.58ZM38.42 25.90L38.42 25.90Q36.60 25.90 35.72 25.07Q34.85 24.24 34.85 22.15L34.85 22.15L34.85 14.23L33.02 14.23L33.02 13.20Q33.55 13.20 34.10 12.98Q34.66 12.77 35.04 12.36L35.04 12.36Q35.45 11.95 35.71 11.34Q35.98 10.73 36.14 9.84L36.14 9.84L37.49 9.84L37.49 12.79L40.63 12.79L40.63 14.23L37.49 14.23L37.49 22.15Q37.49 23.33 37.96 23.88Q38.42 24.43 39.26 24.43L39.26 24.43Q39.70 24.43 40.08 24.38Q40.46 24.34 40.85 24.26L40.85 24.26L40.85 25.44Q40.51 25.61 39.83 25.75Q39.14 25.90 38.42 25.90ZM48.38 25.90L48.38 25.90Q45.72 25.90 44.18 24.24Q42.65 22.58 42.65 19.20L42.65 19.20Q42.65 15.84 44.11 14.18Q45.58 12.53 48.46 12.53L48.46 12.53Q51.12 12.53 52.66 14.18Q54.19 15.84 54.19 19.20L54.19 19.20Q54.19 22.58 52.72 24.24Q51.24 25.90 48.38 25.90ZM48.43 24.58L48.43 24.58Q49.56 24.58 50.23 23.96Q50.90 23.35 51.19 22.15Q51.48 20.95 51.48 19.20L51.48 19.20Q51.48 16.54 50.78 15.20Q50.09 13.87 48.41 13.87L48.41 13.87Q46.73 13.87 46.04 15.20Q45.36 16.54 45.36 19.20L45.36 19.20Q45.36 21.84 46.06 23.21Q46.75 24.58 48.43 24.58ZM67.78 25.90L67.78 25.90Q66.48 25.90 65.52 25.64Q64.56 25.39 63.96 24.92Q63.36 24.46 63.06 23.83Q62.76 23.21 62.76 22.51L62.76 22.51Q62.76 21.94 63.01 21.54Q63.26 21.14 63.70 20.94Q64.13 20.74 64.73 20.74L64.73 20.74Q64.78 21.82 65.14 22.72Q65.50 23.62 66.22 24.13Q66.94 24.65 68.02 24.65L68.02 24.65Q69.58 24.65 70.45 23.88Q71.33 23.11 71.33 21.74L71.33 21.74Q71.33 20.88 70.96 20.28Q70.58 19.68 69.76 19.15Q68.93 18.62 67.54 18.05L67.54 18.05Q65.98 17.42 64.99 16.68Q64.01 15.94 63.54 14.96Q63.07 13.99 63.07 12.72L63.07 12.72Q63.07 11.33 63.78 10.33Q64.49 9.34 65.72 8.81Q66.96 8.28 68.52 8.28L68.52 8.28Q70.03 8.28 71.06 8.68Q72.10 9.07 72.64 9.70Q73.18 10.32 73.18 11.02L73.18 11.02Q73.18 11.81 72.62 12.24Q72.07 12.67 71.04 12.67L71.04 12.67Q71.04 11.93 70.78 11.21Q70.51 10.49 69.92 10.02Q69.34 9.55 68.35 9.55L68.35 9.55Q67.03 9.55 66.29 10.25Q65.54 10.94 65.54 12.14L65.54 12.14Q65.54 13.03 65.89 13.67Q66.24 14.30 67.07 14.83Q67.90 15.36 69.36 15.96L69.36 15.96Q70.82 16.56 71.83 17.26Q72.84 17.95 73.34 18.85Q73.85 19.75 73.85 21L73.85 21Q73.85 22.54 73.10 23.63Q72.36 24.72 70.99 25.31Q69.62 25.90 67.78 25.90ZM82.01 25.90L82.01 25.90Q79.27 25.90 77.77 24.17Q76.27 22.44 76.27 19.32L76.27 19.32Q76.27 15.96 77.71 14.24Q79.15 12.53 81.77 12.53L81.77 12.53Q84.17 12.53 85.55 13.98Q86.93 15.43 86.93 18.29L86.93 18.29L86.93 19.42L78.98 19.42Q79.03 21.98 79.91 23.15Q80.78 24.31 82.49 24.31L82.49 24.31Q83.74 24.31 84.59 23.77Q85.44 23.23 85.87 22.54L85.87 22.54Q86.09 22.61 86.26 22.85Q86.42 23.09 86.42 23.42L86.42 23.42Q86.42 23.93 85.96 24.50Q85.49 25.08 84.52 25.49Q83.54 25.90 82.01 25.90ZM79.03 18.05L84.17 18.05Q84.17 16.15 83.62 15.02Q83.06 13.90 81.74 13.90L81.74 13.90Q80.52 13.90 79.82 14.96Q79.13 16.03 79.03 18.05L79.03 18.05ZM96.02 25.66L88.78 25.66L88.78 24.58L88.87 24.58Q89.42 24.58 89.86 24.46Q90.29 24.34 90.54 23.96Q90.79 23.59 90.79 22.85L90.79 22.85L90.79 15.50Q90.79 14.78 90.53 14.44Q90.26 14.09 89.84 13.98Q89.42 13.87 88.90 13.87L88.90 13.87L88.82 13.87L88.82 12.79L92.81 12.79L93.29 15.14L93.41 15.14Q93.72 14.40 94.12 13.80Q94.51 13.20 95.12 12.88Q95.74 12.55 96.77 12.55L96.77 12.55Q98.11 12.55 98.74 13.04Q99.36 13.54 99.36 14.40L99.36 14.40Q99.36 15.24 98.77 15.73Q98.18 16.22 96.91 16.22L96.91 16.22Q96.91 15.55 96.80 15.13Q96.70 14.71 96.43 14.52Q96.17 14.33 95.69 14.33L95.69 14.33Q95.06 14.33 94.62 14.82Q94.18 15.31 93.92 16.08Q93.67 16.85 93.55 17.69Q93.43 18.53 93.43 19.22L93.43 19.22L93.43 22.97Q93.43 23.66 93.70 24.01Q93.96 24.36 94.38 24.47Q94.80 24.58 95.33 24.58L95.33 24.58L96.02 24.58L96.02 25.66ZM107.28 25.66L100.22 25.66L100.22 24.58L100.54 24.58Q101.06 24.58 101.48 24.46Q101.90 24.34 102.17 23.99Q102.43 23.64 102.43 22.94L102.43 22.94L102.43 15.50Q102.43 14.81 102.17 14.46Q101.90 14.11 101.47 13.99Q101.04 13.87 100.54 13.87L100.54 13.87L100.42 13.87L100.42 12.79L105.07 12.79L105.07 22.85Q105.07 23.57 105.32 23.94Q105.58 24.31 106.02 24.44Q106.46 24.58 106.97 24.58L106.97 24.58L107.28 24.58L107.28 25.66ZM103.66 10.46L103.66 10.46Q103.01 10.46 102.55 10.10Q102.10 9.74 102.10 8.90L102.10 8.90Q102.10 8.04 102.55 7.69Q103.01 7.34 103.66 7.34L103.66 7.34Q104.28 7.34 104.75 7.69Q105.22 8.04 105.22 8.90L105.22 8.90Q105.22 9.74 104.75 10.10Q104.28 10.46 103.66 10.46ZM115.99 25.66L108.22 25.66L108.22 24.58L108.58 24.58Q109.08 24.58 109.51 24.46Q109.94 24.34 110.21 23.98Q110.47 23.62 110.47 22.90L110.47 22.90L110.47 14.06L108.31 14.06L108.31 12.79L110.47 12.79L110.47 11.69Q110.47 9.53 111.62 8.35Q112.78 7.18 114.91 7.18L114.91 7.18Q116.23 7.18 117 7.40Q117.77 7.63 118.08 8.02Q118.39 8.40 118.39 8.88L118.39 8.88Q118.39 9.31 118.15 9.64Q117.91 9.96 117.43 10.14Q116.95 10.32 116.26 10.32L116.26 10.32Q116.26 9.86 116.12 9.41Q115.99 8.95 115.68 8.65Q115.37 8.35 114.79 8.35L114.79 8.35Q113.86 8.35 113.48 9.11Q113.11 9.86 113.11 11.40L113.11 11.40L113.11 12.79L116.47 12.79L116.47 14.06L113.11 14.06L113.11 22.90Q113.11 23.62 113.38 23.98Q113.64 24.34 114.08 24.46Q114.53 24.58 115.01 24.58L115.01 24.58L115.99 24.58L115.99 25.66ZM137.02 25.66L123.82 25.66L123.82 24.58L124.27 24.58Q124.78 24.58 125.18 24.46Q125.59 24.34 125.84 24Q126.10 23.66 126.10 23.04L126.10 23.04L126.10 11.26Q126.10 10.51 125.84 10.18Q125.59 9.84 125.18 9.72Q124.78 9.60 124.27 9.60L124.27 9.60L123.82 9.60L123.82 8.52L136.27 8.52L136.37 12.79L135 12.79L134.88 11.71Q134.83 11.18 134.62 10.75Q134.40 10.32 133.98 10.06Q133.56 9.79 132.86 9.79L132.86 9.79L128.88 9.79L128.88 16.08L134.66 16.08L134.66 17.33L128.88 17.33L128.88 24.38L133.46 24.38Q134.21 24.38 134.65 24.12Q135.10 23.86 135.34 23.42Q135.58 22.99 135.65 22.46L135.65 22.46L135.82 21.38L137.18 21.38L137.02 25.66ZM143.98 25.90L143.98 25.90Q142.15 25.90 141.28 25.07Q140.40 24.24 140.40 22.15L140.40 22.15L140.40 14.23L138.58 14.23L138.58 13.20Q139.10 13.20 139.66 12.98Q140.21 12.77 140.59 12.36L140.59 12.36Q141 11.95 141.26 11.34Q141.53 10.73 141.70 9.84L141.70 9.84L143.04 9.84L143.04 12.79L146.18 12.79L146.18 14.23L143.04 14.23L143.04 22.15Q143.04 23.33 143.51 23.88Q143.98 24.43 144.82 24.43L144.82 24.43Q145.25 24.43 145.63 24.38Q146.02 24.34 146.40 24.26L146.40 24.26L146.40 25.44Q146.06 25.61 145.38 25.75Q144.70 25.90 143.98 25.90ZM154.08 25.66L147.36 25.66L147.36 24.58L147.55 24.58Q148.08 24.58 148.51 24.46Q148.94 24.34 149.21 23.96Q149.47 23.59 149.47 22.87L149.47 22.87L149.47 10.08Q149.47 9.38 149.18 9.05Q148.90 8.71 148.48 8.60Q148.06 8.50 147.58 8.50L147.58 8.50L147.36 8.50L147.36 7.42L152.11 7.42L152.11 12.38Q152.11 12.84 152.09 13.34Q152.06 13.85 152.04 14.21Q152.02 14.57 152.02 14.64L152.02 14.64L152.14 14.64Q152.50 13.97 153 13.49Q153.50 13.01 154.16 12.77Q154.82 12.53 155.69 12.53L155.69 12.53Q157.73 12.53 158.80 13.64Q159.86 14.76 159.86 17.21L159.86 17.21L159.86 22.85Q159.86 23.59 160.09 23.96Q160.32 24.34 160.72 24.46Q161.11 24.58 161.64 24.58L161.64 24.58L161.71 24.58L161.71 25.66L157.22 25.66L157.22 17.47Q157.22 15.94 156.68 15.07Q156.14 14.21 154.78 14.21L154.78 14.21Q153.86 14.21 153.26 14.70Q152.66 15.19 152.39 16.06Q152.11 16.92 152.11 18.05L152.11 18.05L152.11 22.97Q152.11 23.66 152.36 24.01Q152.62 24.36 153.05 24.47Q153.48 24.58 154.01 24.58L154.01 24.58L154.08 24.58L154.08 25.66ZM169.94 25.66L162.89 25.66L162.89 24.58L163.20 24.58Q163.73 24.58 164.15 24.46Q164.57 24.34 164.83 23.99Q165.10 23.64 165.10 22.94L165.10 22.94L165.10 15.50Q165.10 14.81 164.83 14.46Q164.57 14.11 164.14 13.99Q163.70 13.87 163.20 13.87L163.20 13.87L163.08 13.87L163.08 12.79L167.74 12.79L167.74 22.85Q167.74 23.57 167.99 23.94Q168.24 24.31 168.68 24.44Q169.13 24.58 169.63 24.58L169.63 24.58L169.94 24.58L169.94 25.66ZM166.32 10.46L166.32 10.46Q165.67 10.46 165.22 10.10Q164.76 9.74 164.76 8.90L164.76 8.90Q164.76 8.04 165.22 7.69Q165.67 7.34 166.32 7.34L166.32 7.34Q166.94 7.34 167.41 7.69Q167.88 8.04 167.88 8.90L167.88 8.90Q167.88 9.74 167.41 10.10Q166.94 10.46 166.32 10.46ZM177.29 25.90L177.29 25.90Q174.62 25.90 173.09 24.24Q171.55 22.58 171.55 19.20L171.55 19.20Q171.55 15.84 173.02 14.18Q174.48 12.53 177.36 12.53L177.36 12.53Q180.02 12.53 181.56 14.18Q183.10 15.84 183.10 19.20L183.10 19.20Q183.10 22.58 181.62 24.24Q180.14 25.90 177.29 25.90ZM177.34 24.58L177.34 24.58Q178.46 24.58 179.14 23.96Q179.81 23.35 180.10 22.15Q180.38 20.95 180.38 19.20L180.38 19.20Q180.38 16.54 179.69 15.20Q178.99 13.87 177.31 13.87L177.31 13.87Q175.63 13.87 174.95 15.20Q174.26 16.54 174.26 19.20L174.26 19.20Q174.26 21.84 174.96 23.21Q175.66 24.58 177.34 24.58ZM191.62 31.34L184.78 31.34L184.78 30.26L184.99 30.26Q185.47 30.26 185.90 30.14Q186.34 30.02 186.61 29.66Q186.89 29.30 186.89 28.58L186.89 28.58L186.89 15.53Q186.89 14.78 186.62 14.44Q186.36 14.09 185.94 13.98Q185.52 13.87 185.02 13.87L185.02 13.87L184.73 13.87L184.73 12.79L189.07 12.79L189.38 14.88L189.48 14.88Q190.01 13.82 190.88 13.19Q191.76 12.55 193.15 12.55L193.15 12.55Q195.53 12.55 196.79 14.15Q198.05 15.74 198.05 19.22L198.05 19.22Q198.05 22.70 196.79 24.30Q195.53 25.90 193.13 25.90L193.13 25.90Q191.78 25.90 190.92 25.36Q190.06 24.82 189.53 23.90L189.53 23.90L189.43 23.90Q189.48 24.60 189.50 25.36Q189.53 26.11 189.53 26.62L189.53 26.62L189.53 28.66Q189.53 29.35 189.80 29.70Q190.08 30.05 190.51 30.16Q190.94 30.26 191.42 30.26L191.42 30.26L191.62 30.26L191.62 31.34ZM192.58 24.31L192.58 24.31Q194.06 24.31 194.70 23.02Q195.34 21.72 195.34 19.20L195.34 19.20Q195.34 16.68 194.70 15.42Q194.06 14.16 192.58 14.16L192.58 14.16Q191.40 14.16 190.74 14.71Q190.08 15.26 189.80 16.39Q189.53 17.52 189.53 19.22L189.53 19.22Q189.53 20.88 189.80 22.01Q190.08 23.14 190.75 23.72Q191.42 24.31 192.58 24.31ZM206.88 25.66L199.82 25.66L199.82 24.58L200.14 24.58Q200.66 24.58 201.08 24.46Q201.50 24.34 201.77 23.99Q202.03 23.64 202.03 22.94L202.03 22.94L202.03 15.50Q202.03 14.81 201.77 14.46Q201.50 14.11 201.07 13.99Q200.64 13.87 200.14 13.87L200.14 13.87L200.02 13.87L200.02 12.79L204.67 12.79L204.67 22.85Q204.67 23.57 204.92 23.94Q205.18 24.31 205.62 24.44Q206.06 24.58 206.57 24.58L206.57 24.58L206.88 24.58L206.88 25.66ZM203.26 10.46L203.26 10.46Q202.61 10.46 202.15 10.10Q201.70 9.74 201.70 8.90L201.70 8.90Q201.70 8.04 202.15 7.69Q202.61 7.34 203.26 7.34L203.26 7.34Q203.88 7.34 204.35 7.69Q204.82 8.04 204.82 8.90L204.82 8.90Q204.82 9.74 204.35 10.10Q203.88 10.46 203.26 10.46ZM214.08 25.90L214.08 25.90Q212.45 25.90 211.19 25.24Q209.93 24.58 209.21 23.12Q208.49 21.67 208.49 19.30L208.49 19.30Q208.49 16.70 209.22 15.23Q209.95 13.75 211.19 13.14Q212.42 12.53 213.98 12.53L213.98 12.53Q215.14 12.53 216.12 12.82Q217.10 13.10 217.72 13.64Q218.33 14.18 218.33 15.00L218.33 15.00Q218.33 15.55 218.08 15.92Q217.82 16.30 217.31 16.48Q216.79 16.66 215.90 16.66L215.90 16.66Q215.90 15.86 215.74 15.23Q215.57 14.59 215.17 14.20Q214.78 13.80 214.01 13.80L214.01 13.80Q213.17 13.80 212.53 14.28Q211.90 14.76 211.55 15.95Q211.20 17.14 211.20 19.27L211.20 19.27Q211.20 20.95 211.55 22.07Q211.90 23.18 212.64 23.72Q213.38 24.26 214.61 24.26L214.61 24.26Q215.38 24.26 216.01 24.04Q216.65 23.81 217.13 23.41Q217.61 23.02 217.87 22.51L217.87 22.51Q218.09 22.68 218.21 22.92Q218.33 23.16 218.33 23.50L218.33 23.50Q218.33 24.07 217.86 24.62Q217.39 25.18 216.46 25.54Q215.52 25.90 214.08 25.90ZM231.38 25.90L231.38 25.90Q229.61 25.90 228.60 25.50Q227.59 25.10 227.17 24.52Q226.75 23.93 226.75 23.33L226.75 23.33Q226.75 22.63 227.16 22.25Q227.57 21.86 228.36 21.86L228.36 21.86Q228.36 22.54 228.67 23.11Q228.98 23.69 229.61 24.05Q230.23 24.41 231.19 24.41L231.19 24.41Q232.13 24.41 232.88 24.04Q233.64 23.66 234.07 22.79Q234.50 21.91 234.50 20.42L234.50 20.42Q234.50 18.53 233.54 17.63Q232.58 16.73 230.95 16.73L230.95 16.73Q229.80 16.73 229.19 16.88Q228.58 17.04 228.07 17.21L228.07 17.21L227.42 16.97L228.19 8.52L236.45 8.52L236.57 12.36L235.44 12.36L235.32 11.62Q235.27 11.28 235.16 11.06Q235.06 10.85 234.80 10.74Q234.55 10.63 234.10 10.63L234.10 10.63L229.34 10.63L228.89 15.70Q229.15 15.60 229.55 15.52Q229.94 15.43 230.48 15.38Q231.02 15.34 231.67 15.34L231.67 15.34Q233.30 15.34 234.58 15.90Q235.85 16.46 236.58 17.58Q237.31 18.70 237.31 20.42L237.31 20.42Q237.31 21.48 237.04 22.33Q236.76 23.18 236.23 23.86Q235.70 24.53 234.97 24.98Q234.24 25.44 233.33 25.67Q232.42 25.90 231.38 25.90ZM245.71 25.90L245.71 25.90Q243.67 25.90 242.41 24.79Q241.15 23.69 240.58 21.70Q240.00 19.70 240.00 17.04L240.00 17.04Q240.00 14.38 240.58 12.41Q241.15 10.44 242.41 9.36Q243.67 8.28 245.74 8.28L245.74 8.28Q247.66 8.28 248.92 9.36Q250.18 10.44 250.79 12.42Q251.40 14.40 251.40 17.06L251.40 17.06Q251.40 19.73 250.78 21.71Q250.15 23.69 248.90 24.79Q247.66 25.90 245.71 25.90ZM245.71 24.53L245.71 24.53Q246.82 24.53 247.43 23.64Q248.04 22.75 248.30 21.08Q248.57 19.42 248.57 17.06L248.57 17.06Q248.57 14.71 248.30 13.04Q248.04 11.38 247.43 10.51Q246.82 9.65 245.74 9.65L245.74 9.65Q244.63 9.65 244.00 10.51Q243.36 11.38 243.10 13.04Q242.83 14.71 242.83 17.06L242.83 17.06Q242.83 19.42 243.10 21.08Q243.36 22.75 244.00 23.64Q244.63 24.53 245.71 24.53ZM259.18 25.90L259.18 25.90Q257.14 25.90 255.88 24.79Q254.62 23.69 254.04 21.70Q253.46 19.70 253.46 17.04L253.46 17.04Q253.46 14.38 254.04 12.41Q254.62 10.44 255.88 9.36Q257.14 8.28 259.20 8.28L259.20 8.28Q261.12 8.28 262.38 9.36Q263.64 10.44 264.25 12.42Q264.86 14.40 264.86 17.06L264.86 17.06Q264.86 19.73 264.24 21.71Q263.62 23.69 262.37 24.79Q261.12 25.90 259.18 25.90ZM259.18 24.53L259.18 24.53Q260.28 24.53 260.89 23.64Q261.50 22.75 261.77 21.08Q262.03 19.42 262.03 17.06L262.03 17.06Q262.03 14.71 261.77 13.04Q261.50 11.38 260.89 10.51Q260.28 9.65 259.20 9.65L259.20 9.65Q258.10 9.65 257.46 10.51Q256.82 11.38 256.56 13.04Q256.30 14.71 256.30 17.06L256.30 17.06Q256.30 19.42 256.56 21.08Q256.82 22.75 257.46 23.64Q258.10 24.53 259.18 24.53ZM279.46 25.66L272.76 25.66L272.76 24.58L272.93 24.58Q273.48 24.58 273.91 24.46Q274.34 24.34 274.60 23.96Q274.85 23.59 274.85 22.87L274.85 22.87L274.85 15.48Q274.85 14.78 274.60 14.44Q274.34 14.09 273.94 13.98Q273.53 13.87 273.00 13.87L273.00 13.87L272.88 13.87L272.88 12.79L277.08 12.79L277.39 14.66L277.51 14.66Q278.21 13.42 279.12 12.97Q280.03 12.53 281.23 12.53L281.23 12.53Q283.15 12.53 284.20 13.64Q285.24 14.76 285.24 17.21L285.24 17.21L285.24 22.85Q285.24 23.59 285.46 23.96Q285.67 24.34 286.07 24.46Q286.46 24.58 286.99 24.58L286.99 24.58L287.11 24.58L287.11 25.66L282.60 25.66L282.60 17.47Q282.60 15.94 282.07 15.07Q281.54 14.21 280.18 14.21L280.18 14.21Q279.19 14.21 278.59 14.74Q277.99 15.26 277.74 16.15Q277.49 17.04 277.49 18.05L277.49 18.05L277.49 22.97Q277.49 23.66 277.74 24.01Q277.99 24.36 278.40 24.47Q278.81 24.58 279.34 24.58L279.34 24.58L279.46 24.58L279.46 25.66ZM294.77 25.90L294.77 25.90Q292.10 25.90 290.57 24.24Q289.03 22.58 289.03 19.20L289.03 19.20Q289.03 15.84 290.50 14.18Q291.96 12.53 294.84 12.53L294.84 12.53Q297.50 12.53 299.04 14.18Q300.58 15.84 300.58 19.20L300.58 19.20Q300.58 22.58 299.10 24.24Q297.62 25.90 294.77 25.90ZM294.82 24.58L294.82 24.58Q295.94 24.58 296.62 23.96Q297.29 23.35 297.58 22.15Q297.86 20.95 297.86 19.20L297.86 19.20Q297.86 16.54 297.17 15.20Q296.47 13.87 294.79 13.87L294.79 13.87Q293.11 13.87 292.43 15.20Q291.74 16.54 291.74 19.20L291.74 19.20Q291.74 21.84 292.44 23.21Q293.14 24.58 294.82 24.58ZM309.79 25.66L302.54 25.66L302.54 24.58L302.64 24.58Q303.19 24.58 303.62 24.46Q304.06 24.34 304.31 23.96Q304.56 23.59 304.56 22.85L304.56 22.85L304.56 15.50Q304.56 14.78 304.30 14.44Q304.03 14.09 303.61 13.98Q303.19 13.87 302.66 13.87L302.66 13.87L302.59 13.87L302.59 12.79L306.58 12.79L307.06 15.14L307.18 15.14Q307.49 14.40 307.88 13.80Q308.28 13.20 308.89 12.88Q309.50 12.55 310.54 12.55L310.54 12.55Q311.88 12.55 312.50 13.04Q313.13 13.54 313.13 14.40L313.13 14.40Q313.13 15.24 312.54 15.73Q311.95 16.22 310.68 16.22L310.68 16.22Q310.68 15.55 310.57 15.13Q310.46 14.71 310.20 14.52Q309.94 14.33 309.46 14.33L309.46 14.33Q308.83 14.33 308.39 14.82Q307.94 15.31 307.69 16.08Q307.44 16.85 307.32 17.69Q307.20 18.53 307.20 19.22L307.20 19.22L307.20 22.97Q307.20 23.66 307.46 24.01Q307.73 24.36 308.15 24.47Q308.57 24.58 309.10 24.58L309.10 24.58L309.79 24.58L309.79 25.66ZM320.81 25.66L314.11 25.66L314.11 24.58L314.38 24.58Q314.93 24.58 315.34 24.46Q315.74 24.34 315.97 23.96Q316.20 23.59 316.20 22.87L316.20 22.87L316.20 15.46Q316.20 14.76 315.97 14.41Q315.74 14.06 315.32 13.96Q314.90 13.85 314.38 13.85L314.38 13.85L314.30 13.85L314.30 12.79L318.43 12.79L318.74 14.66L318.86 14.66Q319.54 13.42 320.44 12.97Q321.34 12.53 322.54 12.53L322.54 12.53Q323.33 12.53 324.01 12.74Q324.70 12.96 325.21 13.42Q325.73 13.87 326.02 14.66L326.02 14.66L326.21 14.66Q326.88 13.42 327.84 12.97Q328.80 12.53 329.98 12.53L329.98 12.53Q331.85 12.53 332.89 13.64Q333.94 14.76 333.94 17.21L333.94 17.21L333.94 22.85Q333.94 23.59 334.15 23.96Q334.37 24.34 334.78 24.46Q335.18 24.58 335.71 24.58L335.71 24.58L335.78 24.58L335.78 25.66L331.30 25.66L331.30 17.47Q331.30 15.94 330.77 15.07Q330.24 14.21 328.94 14.21L328.94 14.21Q328.01 14.21 327.46 14.69Q326.90 15.17 326.66 15.98Q326.42 16.80 326.42 17.74L326.42 17.74L326.42 22.85Q326.42 23.59 326.65 23.96Q326.88 24.34 327.28 24.46Q327.67 24.58 328.20 24.58L328.20 24.58L328.27 24.58L328.27 25.66L323.78 25.66L323.78 17.47Q323.78 15.94 323.27 15.07Q322.75 14.21 321.46 14.21L321.46 14.21Q320.47 14.21 319.91 14.74Q319.34 15.26 319.09 16.15Q318.84 17.04 318.84 18.05L318.84 18.05L318.84 22.97Q318.84 23.66 319.10 24.01Q319.37 24.36 319.79 24.47Q320.21 24.58 320.74 24.58L320.74 24.58L320.81 24.58L320.81 25.66ZM341.33 25.90L341.33 25.90Q340.27 25.90 339.42 25.48Q338.57 25.06 338.09 24.19Q337.61 23.33 337.61 22.03L337.61 22.03Q337.61 20.11 338.95 19.19Q340.30 18.26 343.06 18.17L343.06 18.17L345.02 18.10L345.02 16.70Q345.02 15.84 344.88 15.19Q344.74 14.54 344.29 14.17Q343.85 13.80 342.96 13.80L342.96 13.80Q342.12 13.80 341.68 14.14Q341.23 14.47 341.08 15.05Q340.92 15.62 340.92 16.42L340.92 16.42Q339.77 16.42 339.19 16.06Q338.62 15.70 338.62 14.88L338.62 14.88Q338.62 14.02 339.23 13.51Q339.84 13.01 340.86 12.77Q341.88 12.53 343.10 12.53L343.10 12.53Q345.38 12.53 346.52 13.46Q347.66 14.40 347.66 16.66L347.66 16.66L347.66 22.85Q347.66 23.52 347.81 23.89Q347.95 24.26 348.29 24.42Q348.62 24.58 349.15 24.58L349.15 24.58L349.22 24.58L349.22 25.66L345.65 25.66L345.22 23.71L345.02 23.71Q344.52 24.36 344.04 24.85Q343.56 25.34 342.94 25.62Q342.31 25.90 341.33 25.90ZM342.10 24.34L342.10 24.34Q343.01 24.34 343.66 23.94Q344.30 23.54 344.66 22.80Q345.02 22.06 345.02 21.07L345.02 21.07L345.02 19.18L343.63 19.25Q342.36 19.30 341.64 19.64Q340.92 19.99 340.62 20.62Q340.32 21.24 340.32 22.15L340.32 22.15Q340.32 22.87 340.51 23.35Q340.70 23.83 341.10 24.08Q341.50 24.34 342.10 24.34ZM357.58 25.66L350.52 25.66L350.52 24.58L350.83 24.58Q351.36 24.58 351.79 24.44Q352.22 24.31 352.48 23.94Q352.73 23.57 352.73 22.85L352.73 22.85L352.73 10.08Q352.73 9.38 352.44 9.05Q352.15 8.71 351.73 8.60Q351.31 8.50 350.83 8.50L350.83 8.50L350.52 8.50L350.52 7.42L355.37 7.42L355.37 22.85Q355.37 23.57 355.62 23.94Q355.87 24.31 356.32 24.44Q356.76 24.58 357.26 24.58L357.26 24.58L357.58 24.58L357.58 25.66Z"/></svg>