<svg xmlns="http://www.w3.org/2000/svg" xmlns:xlink="http://www.w3.org/1999/xlink" width="199.10400000000004" height="34.08"><path fill="black" d="M3.91 24L1.87 24L1.87 7.20L3.91 7.20L3.91 24ZM11.59 16.61L2.93 16.61L2.93 14.62L11.59 14.62L11.59 16.61ZM12.31 9.17L2.93 9.17L2.93 7.20L12.31 7.20L12.31 9.17ZM22.94 11.98L24.98 11.98L24.98 24L23.02 24L23.02 20.62L23.59 20.98Q23.26 21.98 22.55 22.74Q21.84 23.50 20.87 23.90Q19.90 24.31 18.77 24.31L18.77 24.31Q17.47 24.31 16.46 23.76Q15.46 23.21 14.87 22.12Q14.28 21.02 14.28 19.42L14.28 19.42L14.28 11.98L16.32 11.98L16.32 18.89Q16.32 20.18 16.72 20.94Q17.11 21.70 17.77 22.02Q18.43 22.34 19.27 22.34L19.27 22.34Q20.21 22.34 21.04 21.89Q21.86 21.43 22.40 20.54Q22.94 19.66 22.94 18.36L22.94 18.36L22.94 11.98ZM32.23 24.31L32.23 24.31Q30.34 24.31 29.04 23.40Q27.74 22.49 27.31 20.86L27.31 20.86L29.18 20.40L29.45 20.45Q29.71 21.36 30.52 21.88Q31.32 22.39 32.40 22.39L32.40 22.39Q33.48 22.39 34.24 21.90Q34.99 21.41 34.99 20.62L34.99 20.62Q34.99 19.97 34.55 19.57Q34.10 19.18 33.22 18.98L33.22 18.98L30.98 18.48Q29.30 18.10 28.50 17.23Q27.70 16.37 27.70 15.17L27.70 15.17Q27.70 14.14 28.26 13.34Q28.82 12.55 29.83 12.11Q30.84 11.66 32.11 11.66L32.11 11.66Q33.96 11.66 35.23 12.58Q36.50 13.49 36.91 15.17L36.91 15.17L35.04 15.55L34.78 15.50Q34.56 14.59 33.78 14.09Q33 13.58 32.06 13.58L32.06 13.58Q31.08 13.58 30.42 14.00Q29.76 14.42 29.76 15.10L29.76 15.10Q29.76 15.65 30.18 16.02Q30.60 16.39 31.51 16.58L31.51 16.58L33.77 17.11Q35.45 17.50 36.26 18.34Q37.08 19.18 37.08 20.50L37.08 20.50Q37.08 21.67 36.44 22.52Q35.81 23.38 34.72 23.84Q33.62 24.31 32.23 24.31ZM45.55 24L43.56 24Q42 24 41.02 23.00Q40.03 22.01 40.03 20.30L40.03 20.30L40.03 8.74L42.07 8.74L42.07 20.14Q42.07 21.17 42.53 21.61Q42.98 22.06 43.99 22.06L43.99 22.06L45.43 22.06L45.55 22.32L45.55 24ZM45.55 13.90L37.97 13.90L37.97 11.98L45.55 11.98L45.55 13.90ZM51.55 24.31L51.55 24.31Q50.30 24.31 49.33 23.83Q48.36 23.35 47.81 22.50Q47.26 21.65 47.26 20.54L47.26 20.54Q47.26 18.96 48.40 17.98Q49.54 16.99 51.55 16.82L51.55 16.82L56.18 16.49L56.18 18.31L51.96 18.65Q50.64 18.74 50.00 19.21Q49.37 19.68 49.37 20.52L49.37 20.52Q49.37 21.31 50.04 21.84Q50.71 22.37 51.77 22.37L51.77 22.37Q52.85 22.37 53.74 21.86Q54.62 21.36 55.14 20.52Q55.66 19.68 55.66 18.65L55.66 18.65L55.66 16.70Q55.66 15.34 54.80 14.45Q53.95 13.56 52.54 13.56L52.54 13.56Q51.43 13.56 50.64 14.10Q49.85 14.64 49.56 15.60L49.56 15.60L49.30 15.60L47.52 15.02Q48.05 13.42 49.37 12.53Q50.69 11.64 52.56 11.64L52.56 11.64Q55.01 11.64 56.34 13.10Q57.67 14.57 57.67 17.23L57.67 17.23L57.67 24L55.75 24L55.75 20.50L56.47 20.88Q56.18 21.86 55.45 22.64Q54.72 23.42 53.72 23.87Q52.73 24.31 51.55 24.31ZM66.53 24L64.54 24Q62.98 24 61.99 23.00Q61.01 22.01 61.01 20.30L61.01 20.30L61.01 8.74L63.05 8.74L63.05 20.14Q63.05 21.17 63.50 21.61Q63.96 22.06 64.97 22.06L64.97 22.06L66.41 22.06L66.53 22.32L66.53 24ZM66.53 13.90L58.94 13.90L58.94 11.98L66.53 11.98L66.53 13.90ZM80.04 24.31L80.04 24.31Q78.38 24.31 77.11 23.69Q75.84 23.06 75.05 21.94Q74.26 20.81 74.06 19.30L74.06 19.30L75.84 18.91L76.10 18.96Q76.30 19.99 76.81 20.75Q77.33 21.50 78.12 21.91Q78.91 22.32 79.94 22.32L79.94 22.32Q81.17 22.32 82.03 21.84Q82.90 21.36 83.35 20.51Q83.81 19.66 83.81 18.53L83.81 18.53Q83.81 17.40 83.34 16.54Q82.87 15.67 82.00 15.19Q81.12 14.71 79.97 14.71L79.97 14.71Q78.79 14.71 77.92 15.22Q77.04 15.72 76.46 16.66L76.46 16.66L74.30 16.30L75.65 7.20L84.89 7.20L84.89 9.17L76.61 9.17L77.54 8.40L76.39 15.31L75.72 15.34Q76.15 14.59 76.80 14.02Q77.45 13.44 78.31 13.09Q79.18 12.74 80.28 12.74L80.28 12.74Q81.82 12.74 83.10 13.46Q84.38 14.18 85.15 15.47Q85.92 16.75 85.92 18.48L85.92 18.48Q85.92 20.21 85.16 21.53Q84.41 22.85 83.09 23.58Q81.77 24.31 80.04 24.31ZM93.98 24.31L93.98 24.31Q92.04 24.31 90.62 23.24Q89.21 22.18 88.43 20.22Q87.65 18.26 87.65 15.60L87.65 15.60Q87.65 12.94 88.43 10.97Q89.21 9 90.62 7.94Q92.04 6.89 93.98 6.89L93.98 6.89Q95.93 6.89 97.36 7.94Q98.78 9 99.55 10.97Q100.32 12.94 100.32 15.60L100.32 15.60Q100.32 18.26 99.55 20.22Q98.78 22.18 97.36 23.24Q95.93 24.31 93.98 24.31ZM93.98 22.32L93.98 22.32Q95.30 22.32 96.25 21.52Q97.20 20.71 97.73 19.19Q98.26 17.66 98.26 15.60L98.26 15.60Q98.26 13.54 97.73 12.01Q97.20 10.49 96.25 9.68Q95.30 8.88 93.98 8.88L93.98 8.88Q92.69 8.88 91.74 9.68Q90.79 10.49 90.26 12.01Q89.74 13.54 89.74 15.60L89.74 15.60Q89.74 17.66 90.26 19.19Q90.79 20.71 91.74 21.52Q92.69 22.32 93.98 22.32ZM108.74 24.31L108.74 24.31Q106.80 24.31 105.38 23.24Q103.97 22.18 103.19 20.22Q102.41 18.26 102.41 15.60L102.41 15.60Q102.41 12.94 103.19 10.97Q103.97 9 105.38 7.94Q106.80 6.89 108.74 6.89L108.74 6.89Q110.69 6.89 112.12 7.94Q113.54 9 114.31 10.97Q115.08 12.94 115.08 15.60L115.08 15.60Q115.08 18.26 114.31 20.22Q113.54 22.18 112.12 23.24Q110.69 24.31 108.74 24.31ZM108.74 22.32L108.74 22.32Q110.06 22.32 111.01 21.52Q111.96 20.71 112.49 19.19Q113.02 17.66 113.02 15.60L113.02 15.60Q113.02 13.54 112.49 12.01Q111.96 10.49 111.01 9.68Q110.06 8.88 108.74 8.88L108.74 8.88Q107.45 8.88 106.50 9.68Q105.55 10.49 105.02 12.01Q104.50 13.54 104.50 15.60L104.50 15.60Q104.50 17.66 105.02 19.19Q105.55 20.71 106.50 21.52Q107.45 22.32 108.74 22.32ZM125.45 24L123.41 24L123.41 11.98L125.38 11.98L125.38 15.36L124.80 15Q125.14 13.97 125.86 13.22Q126.58 12.48 127.55 12.07Q128.52 11.66 129.62 11.66L129.62 11.66Q130.92 11.66 131.94 12.22Q132.96 12.77 133.54 13.85Q134.11 14.93 134.11 16.56L134.11 16.56L134.11 24L132.07 24L132.07 17.06Q132.07 15.77 131.69 15.01Q131.30 14.26 130.64 13.94Q129.98 13.63 129.14 13.63L129.14 13.63Q128.23 13.63 127.38 14.08Q126.53 14.52 125.99 15.41Q125.45 16.30 125.45 17.62L125.45 17.62L125.45 24ZM142.54 24.31L142.54 24.31Q140.78 24.31 139.44 23.51Q138.10 22.70 137.33 21.28Q136.56 19.85 136.56 17.98L136.56 17.98Q136.56 16.10 137.33 14.68Q138.10 13.25 139.44 12.46Q140.78 11.66 142.54 11.66L142.54 11.66Q144.31 11.66 145.66 12.46Q147 13.25 147.77 14.68Q148.54 16.10 148.54 17.98L148.54 17.98Q148.54 19.85 147.77 21.28Q147 22.70 145.66 23.51Q144.31 24.31 142.54 24.31ZM142.54 22.37L142.54 22.37Q143.71 22.37 144.59 21.83Q145.46 21.29 145.97 20.29Q146.47 19.30 146.47 17.98L146.47 17.98Q146.47 16.63 145.97 15.66Q145.46 14.69 144.59 14.15Q143.71 13.61 142.54 13.61L142.54 13.61Q141.38 13.61 140.50 14.15Q139.61 14.69 139.10 15.66Q138.60 16.63 138.60 17.98L138.60 17.98Q138.60 19.30 139.10 20.29Q139.61 21.29 140.50 21.83Q141.38 22.37 142.54 22.37ZM153.14 24L151.10 24L151.10 11.98L153.07 11.98L153.07 15.36L152.50 15Q152.93 13.61 154.10 12.79Q155.28 11.98 156.74 11.98L156.74 11.98L157.97 11.98L157.97 13.90L156.43 13.90Q155.45 13.90 154.72 14.36Q153.98 14.83 153.56 15.66Q153.14 16.49 153.14 17.59L153.14 17.59L153.14 24ZM161.86 24L159.82 24L159.82 11.98L161.78 11.98L161.78 15.31L161.28 14.86Q161.62 13.87 162.31 13.16Q163.01 12.46 163.94 12.06Q164.88 11.66 165.91 11.66L165.91 11.66Q167.47 11.66 168.62 12.55Q169.78 13.44 170.14 15.12L170.14 15.12L169.30 15.10Q169.61 14.06 170.34 13.30Q171.07 12.53 172.10 12.10Q173.14 11.66 174.34 11.66L174.34 11.66Q175.56 11.66 176.54 12.22Q177.53 12.77 178.10 13.85Q178.68 14.93 178.68 16.56L178.68 16.56L178.68 24L176.64 24L176.64 17.04Q176.64 15.74 176.26 15Q175.87 14.26 175.25 13.94Q174.62 13.63 173.83 13.63L173.83 13.63Q173.02 13.63 172.20 14.06Q171.38 14.50 170.83 15.37Q170.28 16.25 170.28 17.62L170.28 17.62L170.28 24L168.24 24L168.24 17.04Q168.24 15.74 167.86 15Q167.47 14.26 166.84 13.94Q166.20 13.63 165.43 13.63L165.43 13.63Q164.62 13.63 163.79 14.08Q162.96 14.52 162.41 15.40Q161.86 16.27 161.86 17.62L161.86 17.62L161.86 24ZM185.64 24.31L185.64 24.31Q184.39 24.31 183.42 23.83Q182.45 23.35 181.90 22.50Q181.34 21.65 181.34 20.54L181.34 20.54Q181.34 18.96 182.48 17.98Q183.62 16.99 185.64 16.82L185.64 16.82L190.27 16.49L190.27 18.31L186.05 18.65Q184.73 18.74 184.09 19.21Q183.46 19.68 183.46 20.52L183.46 20.52Q183.46 21.31 184.13 21.84Q184.80 22.37 185.86 22.37L185.86 22.37Q186.94 22.37 187.82 21.86Q188.71 21.36 189.23 20.52Q189.74 19.68 189.74 18.65L189.74 18.65L189.74 16.70Q189.74 15.34 188.89 14.45Q188.04 13.56 186.62 13.56L186.62 13.56Q185.52 13.56 184.73 14.10Q183.94 14.64 183.65 15.60L183.65 15.60L183.38 15.60L181.61 15.02Q182.14 13.42 183.46 12.53Q184.78 11.64 186.65 11.64L186.65 11.64Q189.10 11.64 190.43 13.10Q191.76 14.57 191.76 17.23L191.76 17.23L191.76 24L189.84 24L189.84 20.50L190.56 20.88Q190.27 21.86 189.54 22.64Q188.81 23.42 187.81 23.87Q186.82 24.31 185.64 24.31ZM197.33 24L195.29 24L195.29 6.72L197.26 6.48L197.33 6.67L197.33 24Z"/></svg>