<svg xmlns="http://www.w3.org/2000/svg" xmlns:xlink="http://www.w3.org/1999/xlink" width="188.928" height="30.12"><path fill="black" d="M4.20 24.12L0.79 24.12L3.48 7.20L6.77 7.20L10.54 20.40L9.77 20.40L17.76 7.20L21.02 7.20L18.34 24.12L14.93 24.12L16.75 12.62L17.71 12.62L10.63 24.12L8.50 24.12L5.02 12.62L6.02 12.62L4.20 24.12ZM26.16 24.38L26.16 24.38Q23.90 24.38 22.90 23.06Q21.89 21.74 22.27 19.22L22.27 19.22L23.42 11.95L27.05 11.95L25.90 19.20Q25.70 20.42 26.12 20.99Q26.54 21.55 27.58 21.55L27.58 21.55Q28.75 21.55 29.46 20.80Q30.17 20.04 30.38 18.77L30.38 18.77L31.46 11.95L35.09 11.95L33.17 24.12L29.64 24.12L30 21.79L30.36 21.79Q29.66 23.02 28.61 23.70Q27.55 24.38 26.16 24.38ZM39.77 24.12L36.14 24.12L38.95 6.46L42.58 6.46L39.77 24.12ZM46.34 24.12L42.72 24.12L44.64 11.95L48.26 11.95L46.34 24.12ZM48.72 9.96L44.81 9.96L45.36 6.58L49.27 6.58L48.72 9.96ZM54.02 24.38L54.02 24.38Q52.46 24.38 51.17 24.05Q49.87 23.71 49.06 23.14L49.06 23.14L50.06 20.74Q50.93 21.24 52.01 21.55Q53.09 21.86 54.19 21.86L54.19 21.86Q55.22 21.86 55.79 21.54Q56.35 21.22 56.45 20.64L56.45 20.64Q56.52 20.14 56.23 19.84Q55.94 19.54 55.30 19.44L55.30 19.44L53.21 19.10Q51.48 18.82 50.76 17.86Q50.04 16.90 50.26 15.41L50.26 15.41Q50.47 14.23 51.23 13.40Q51.98 12.58 53.18 12.14Q54.38 11.71 55.82 11.71L55.82 11.71Q57.19 11.71 58.36 12.01Q59.52 12.31 60.29 12.91L60.29 12.91L59.21 15.24Q58.56 14.78 57.64 14.48Q56.71 14.18 55.82 14.18L55.82 14.18Q54.72 14.18 54.16 14.56Q53.59 14.93 53.50 15.48L53.50 15.48Q53.42 15.94 53.66 16.27Q53.90 16.61 54.55 16.70L54.55 16.70L56.66 17.04Q58.44 17.33 59.17 18.24Q59.90 19.15 59.66 20.64L59.66 20.64Q59.47 21.86 58.69 22.70Q57.91 23.54 56.71 23.96Q55.51 24.38 54.02 24.38ZM65.02 24.12L61.39 24.12L64.20 6.46L67.82 6.46L66.58 14.23L66.22 14.23Q66.94 12.98 68.11 12.35Q69.29 11.71 70.75 11.71L70.75 11.71Q72.94 11.71 73.85 13.01Q74.76 14.30 74.33 16.97L74.33 16.97L73.20 24.12L69.58 24.12L70.70 16.97Q70.92 15.65 70.49 15.08Q70.06 14.52 69.10 14.52L69.10 14.52Q67.87 14.52 67.08 15.26Q66.29 16.01 66.10 17.26L66.10 17.26L65.02 24.12ZM88.85 24.38L88.85 24.38Q85.63 24.38 84.07 22.96Q82.51 21.53 82.87 19.13L82.87 19.13Q83.16 17.42 84.41 16.37Q85.66 15.31 87.38 15.10L87.38 15.10L87.31 15.72Q85.82 15.38 85.08 14.15Q84.34 12.91 84.58 11.30L84.58 11.30Q84.91 9.19 86.65 8.06Q88.39 6.94 91.22 6.94L91.22 6.94Q93.12 6.94 94.39 7.55Q95.66 8.16 96.25 9.25Q96.84 10.34 96.60 11.78L96.60 11.78Q96.34 13.42 95.26 14.47Q94.18 15.53 92.64 15.77L92.64 15.77L92.71 15.19Q93.82 15.38 94.57 16.01Q95.33 16.63 95.65 17.58Q95.98 18.53 95.76 19.75L95.76 19.75Q95.40 22.01 93.56 23.20Q91.73 24.38 88.85 24.38ZM89.02 21.53L89.02 21.53Q90.50 21.53 91.37 20.96Q92.23 20.40 92.40 19.27L92.40 19.27Q92.59 18.14 91.91 17.57Q91.22 16.99 89.69 16.99L89.69 16.99Q88.20 16.99 87.35 17.53Q86.50 18.07 86.30 19.18L86.30 19.18Q86.14 20.26 86.81 20.89Q87.48 21.53 89.02 21.53ZM90.19 14.14L90.19 14.14Q91.44 14.14 92.21 13.60Q92.98 13.06 93.14 12.02L93.14 12.02Q93.29 10.99 92.71 10.39Q92.14 9.79 90.86 9.79L90.86 9.79Q89.59 9.79 88.85 10.34Q88.10 10.90 87.94 11.86L87.94 11.86Q87.79 12.84 88.36 13.49Q88.92 14.14 90.19 14.14ZM103.25 24.38L103.25 24.38Q99.96 24.38 98.68 21.97Q97.39 19.56 98.06 15.22L98.06 15.22Q98.74 10.94 100.58 8.94Q102.43 6.94 105.38 6.94L105.38 6.94Q108.58 6.94 109.94 9.22Q111.31 11.50 110.59 15.98L110.59 15.98Q109.92 20.23 108.01 22.31Q106.10 24.38 103.25 24.38ZM103.49 21.36L103.49 21.36Q104.86 21.36 105.73 20.03Q106.61 18.70 107.09 15.74L107.09 15.74Q107.42 13.58 107.32 12.31Q107.21 11.04 106.66 10.50Q106.10 9.96 105.17 9.96L105.17 9.96Q103.80 9.96 102.94 11.22Q102.07 12.48 101.59 15.43L101.59 15.43Q101.26 17.59 101.36 18.90Q101.47 20.21 102.02 20.78Q102.58 21.36 103.49 21.36ZM117.65 24.38L117.65 24.38Q114.36 24.38 113.08 21.97Q111.79 19.56 112.46 15.22L112.46 15.22Q113.14 10.94 114.98 8.94Q116.83 6.94 119.78 6.94L119.78 6.94Q122.98 6.94 124.34 9.22Q125.71 11.50 124.99 15.98L124.99 15.98Q124.32 20.23 122.41 22.31Q120.50 24.38 117.65 24.38ZM117.89 21.36L117.89 21.36Q119.26 21.36 120.13 20.03Q121.01 18.70 121.49 15.74L121.49 15.74Q121.82 13.58 121.72 12.31Q121.61 11.04 121.06 10.50Q120.50 9.96 119.57 9.96L119.57 9.96Q118.20 9.96 117.34 11.22Q116.47 12.48 115.99 15.43L115.99 15.43Q115.66 17.59 115.76 18.90Q115.87 20.21 116.42 20.78Q116.98 21.36 117.89 21.36ZM136.46 24.12L132.84 24.12L134.76 11.95L138.38 11.95L136.46 24.12ZM138.84 9.96L134.93 9.96L135.48 6.58L139.39 6.58L138.84 9.96ZM145.15 24.38L145.15 24.38Q142.70 24.38 141.70 23.14Q140.69 21.89 141.05 19.63L141.05 19.63L141.84 14.66L139.54 14.66L139.94 11.95L142.25 11.95L142.73 8.98L146.50 8.09L145.87 11.95L148.99 11.95L148.56 14.66L145.46 14.66L144.70 19.44Q144.53 20.57 144.95 21.01Q145.37 21.46 146.16 21.46L146.16 21.46Q146.54 21.46 146.86 21.40Q147.17 21.34 147.53 21.22L147.53 21.22L147.07 24.02Q146.57 24.22 146.09 24.30Q145.61 24.38 145.15 24.38ZM153.96 24.38L153.96 24.38Q152.30 24.38 151.14 23.54Q149.98 22.70 149.50 21.18Q149.02 19.66 149.33 17.64L149.33 17.64Q149.81 14.69 151.51 13.20Q153.22 11.71 155.57 11.71L155.57 11.71Q157.03 11.71 158.08 12.40Q159.12 13.08 159.34 14.23L159.34 14.23L159.10 14.33L159.74 11.95L163.22 11.95Q163.03 12.74 162.85 13.55Q162.67 14.35 162.53 15.12L162.53 15.12L161.11 24.12L157.51 24.12L157.90 21.74L158.28 21.74Q157.70 22.94 156.61 23.66Q155.52 24.38 153.96 24.38ZM155.23 21.65L155.23 21.65Q156.46 21.65 157.32 20.80Q158.18 19.94 158.47 18.19L158.47 18.19Q158.78 16.22 158.14 15.34Q157.49 14.45 156.19 14.45L156.19 14.45Q154.97 14.45 154.10 15.29Q153.24 16.13 152.95 17.88L152.95 17.88Q152.64 19.85 153.29 20.75Q153.94 21.65 155.23 21.65ZM167.71 24.12L164.09 24.12L166.90 6.46L170.52 6.46L167.71 24.12ZM174.29 24.12L170.66 24.12L172.58 11.95L176.21 11.95L174.29 24.12ZM176.66 9.96L172.75 9.96L173.30 6.58L177.22 6.58L176.66 9.96ZM183.43 24.38L183.43 24.38Q181.34 24.38 179.94 23.53Q178.54 22.68 177.94 21.16Q177.34 19.63 177.65 17.64L177.65 17.64Q178.13 14.69 180.06 13.20Q181.99 11.71 184.82 11.71L184.82 11.71Q185.95 11.71 187.04 12.04Q188.14 12.36 188.78 12.96L188.78 12.96L187.68 15.41Q187.13 14.95 186.38 14.71Q185.64 14.47 184.94 14.47L184.94 14.47Q183.55 14.47 182.59 15.30Q181.63 16.13 181.34 17.86L181.34 17.86Q181.06 19.54 181.76 20.56Q182.47 21.58 184.06 21.58L184.06 21.58Q184.70 21.58 185.48 21.32Q186.26 21.07 186.96 20.54L186.96 20.54L187.92 22.99Q187.20 23.62 185.98 24Q184.75 24.38 183.43 24.38Z"/></svg>