<svg xmlns="http://www.w3.org/2000/svg" xmlns:xlink="http://www.w3.org/1999/xlink" width="71.832" height="30.12"><path fill="black" d="M3.94 24.12L2.14 24.12L2.14 7.20L3.86 7.20L10.66 22.54L9.96 22.54L16.75 7.20L18.48 7.20L18.48 24.12L16.66 24.12L16.66 9.77L17.38 9.77L10.97 24.12L9.65 24.12L3.22 9.77L3.94 9.77L3.94 24.12ZM26.74 24.34L26.74 24.34Q24.60 24.34 23.51 23.16Q22.42 21.98 22.42 19.56L22.42 19.56L22.42 12.07L24.36 12.07L24.36 19.51Q24.36 21.17 25.03 21.95Q25.70 22.73 27.12 22.73L27.12 22.73Q28.70 22.73 29.66 21.70Q30.62 20.66 30.62 18.94L30.62 18.94L30.62 12.07L32.57 12.07L32.57 24.12L30.67 24.12L30.67 21.41L30.98 21.41Q30.48 22.80 29.36 23.57Q28.25 24.34 26.74 24.34ZM38.28 24.12L36.34 24.12L36.34 6.46L38.28 6.46L38.28 24.12ZM43.99 24.12L42.05 24.12L42.05 12.07L43.99 12.07L43.99 24.12ZM44.21 9.34L41.81 9.34L41.81 7.15L44.21 7.15L44.21 9.34ZM51.77 24.34L51.77 24.34Q50.33 24.34 49.08 23.94Q47.83 23.54 47.02 22.82L47.02 22.82L47.69 21.46Q48.58 22.15 49.62 22.49Q50.66 22.82 51.79 22.82L51.79 22.82Q53.23 22.82 53.96 22.31Q54.70 21.79 54.70 20.88L54.70 20.88Q54.70 20.18 54.23 19.76Q53.76 19.34 52.70 19.10L52.70 19.10L50.47 18.65Q48.94 18.31 48.17 17.51Q47.40 16.70 47.40 15.46L47.40 15.46Q47.40 14.40 47.95 13.60Q48.50 12.79 49.56 12.32Q50.62 11.86 52.03 11.86L52.03 11.86Q53.35 11.86 54.47 12.25Q55.58 12.65 56.33 13.39L56.33 13.39L55.63 14.74Q54.91 14.04 53.99 13.69Q53.06 13.34 52.08 13.34L52.08 13.34Q50.66 13.34 49.96 13.91Q49.25 14.47 49.25 15.38L49.25 15.38Q49.25 16.08 49.69 16.52Q50.14 16.97 51.07 17.18L51.07 17.18L53.30 17.64Q54.94 18 55.74 18.76Q56.54 19.51 56.54 20.78L56.54 20.78Q56.54 21.86 55.94 22.67Q55.34 23.47 54.28 23.90Q53.21 24.34 51.77 24.34ZM61.61 24.12L59.66 24.12L59.66 6.46L61.61 6.46L61.61 14.74L61.30 14.74Q61.80 13.32 62.99 12.59Q64.18 11.86 65.74 11.86L65.74 11.86Q67.90 11.86 68.95 13.02Q70.01 14.18 70.01 16.54L70.01 16.54L70.01 24.12L68.06 24.12L68.06 16.66Q68.06 14.98 67.40 14.21Q66.74 13.44 65.28 13.44L65.28 13.44Q63.60 13.44 62.60 14.47Q61.61 15.50 61.61 17.18L61.61 17.18L61.61 24.12Z"/></svg>