<svg xmlns="http://www.w3.org/2000/svg" xmlns:xlink="http://www.w3.org/1999/xlink" width="238.87199999999996" height="35.52"><path fill="black" d="M3.53 12.96L4.32 13.58Q4.22 14.40 4.12 15.18Q4.01 15.96 3.96 16.86Q3.91 17.76 3.91 18.94L3.91 18.94Q3.91 20.50 4.06 21.42Q4.20 22.34 4.45 22.85Q4.70 23.35 5.03 23.57Q5.35 23.78 5.69 23.90L5.69 23.90Q6.22 24.07 7.15 24.19Q8.09 24.31 8.83 24.29L8.83 24.29Q8.88 24.07 8.90 23.70Q8.93 23.33 8.95 22.91Q8.98 22.49 8.98 22.09Q8.98 21.70 8.98 21.43L8.98 21.43L7.30 21.02L7.68 18.60Q8.35 18.65 9.18 18.77Q10.01 18.89 10.67 19.07Q11.33 19.25 11.52 19.49L11.52 19.49Q11.54 19.92 11.57 20.51Q11.59 21.10 11.58 21.74Q11.57 22.39 11.53 22.98Q11.50 23.57 11.46 24.01Q11.42 24.46 11.38 24.62L11.38 24.62Q11.21 24.82 10.75 25.07Q10.30 25.32 9.73 25.60Q9.17 25.87 8.60 26.11Q8.04 26.35 7.60 26.50Q7.15 26.64 6.98 26.64L6.98 26.64Q6.62 26.64 5.98 26.52Q5.33 26.40 4.58 26.17Q3.84 25.94 3.20 25.62Q2.57 25.30 2.26 24.94L2.26 24.94Q1.78 24.38 1.45 23.70Q1.13 23.02 0.95 22.08Q0.77 21.14 0.77 19.85L0.77 19.85Q0.77 18.14 0.97 16.87Q1.18 15.60 1.49 14.81L1.49 14.81Q1.80 14.40 2.35 13.91Q2.90 13.42 3.53 12.96L3.53 12.96ZM6.02 24.26L5.30 24.26L5.30 13.46Q5.30 13.25 5.47 12.74Q5.64 12.24 5.86 11.66L5.86 11.66L6.58 11.69L6.58 22.90Q6.58 23.04 6.43 23.39Q6.29 23.74 6.02 24.26L6.02 24.26ZM11.26 11.95L10.97 16.44L9.41 16.44L9.10 13.80Q8.76 13.70 8.23 13.62Q7.70 13.54 7.18 13.49Q6.65 13.44 6.29 13.44L6.29 13.44Q6.07 13.44 5.90 13.45Q5.74 13.46 5.59 13.49L5.59 13.49L5.86 11.66Q5.98 11.62 6.06 11.60Q6.14 11.59 6.26 11.59L6.26 11.59Q6.58 11.59 7.14 11.62Q7.70 11.64 8.41 11.69Q9.12 11.74 9.88 11.80Q10.63 11.86 11.26 11.95L11.26 11.95ZM15.26 26.64L15.26 26.64Q15.17 26.64 14.95 26.46Q14.74 26.28 14.52 26.06Q14.30 25.85 14.30 25.78L14.30 25.78L14.30 17.16L13.39 16.85L13.39 15.72Q13.39 15.72 13.76 15.65Q14.14 15.58 14.64 15.49Q15.14 15.41 15.56 15.35Q15.98 15.29 16.08 15.29L16.08 15.29Q16.18 15.29 16.40 15.48Q16.63 15.67 16.84 15.91Q17.04 16.15 17.04 16.22L17.04 16.22L17.02 17.21Q17.33 16.87 17.64 16.54Q17.95 16.20 18.23 15.91Q18.50 15.62 18.70 15.46Q18.89 15.29 18.96 15.29L18.96 15.29Q19.32 15.29 19.84 15.41Q20.35 15.53 20.64 15.62L20.64 15.62Q20.69 15.74 20.76 16.04Q20.83 16.34 20.83 16.54L20.83 16.54Q20.83 16.66 20.72 16.93Q20.62 17.21 20.46 17.52Q20.30 17.83 20.17 18.06Q20.04 18.29 19.99 18.31L19.99 18.31Q19.87 18.26 19.62 18.16Q19.37 18.05 19.09 17.96Q18.82 17.88 18.60 17.88L18.60 17.88Q18.53 17.88 18.36 17.94Q18.19 18 17.98 18.08Q17.76 18.17 17.54 18.28Q17.33 18.38 17.11 18.50L17.11 18.50L17.11 24.55L18.50 24.94L18.50 26.16Q18.50 26.16 18.22 26.21Q17.93 26.26 17.47 26.33Q17.02 26.40 16.54 26.47Q16.06 26.54 15.71 26.59Q15.36 26.64 15.26 26.64ZM24.24 21.19L24.24 21.19Q24.24 22.49 24.58 23.23Q24.91 23.98 25.37 24.28Q25.82 24.58 26.21 24.58L26.21 24.58Q26.28 24.58 26.66 24.56Q27.05 24.55 27.59 24.53Q28.13 24.50 28.66 24.48Q29.18 24.46 29.54 24.43L29.54 24.43L29.54 25.63Q29.16 25.78 28.57 25.94Q27.98 26.11 27.37 26.27Q26.76 26.42 26.28 26.53Q25.80 26.64 25.61 26.64L25.61 26.64Q24.43 26.64 23.46 26.06Q22.49 25.49 21.90 24.36Q21.31 23.23 21.31 21.55L21.31 21.55Q21.31 20.38 21.49 19.34Q21.67 18.31 21.91 17.81L21.91 17.81Q22.13 17.52 22.67 17.10Q23.21 16.68 23.86 16.26Q24.50 15.84 25.06 15.56Q25.61 15.29 25.87 15.29L25.87 15.29Q27.22 15.29 28.12 15.74Q29.02 16.20 29.46 17.44Q29.90 18.67 29.90 21L29.90 21L23.04 21.72L23.04 20.57L27.07 19.85Q27.10 18.50 26.82 17.71Q26.54 16.92 25.75 16.87L25.75 16.87Q25.58 16.85 25.36 16.85Q25.13 16.85 24.94 16.94L24.94 16.94Q24.62 17.11 24.43 18.24Q24.24 19.37 24.24 21.19ZM33.07 26.64L33.07 26.64Q32.98 26.64 32.76 26.46Q32.54 26.28 32.33 26.06Q32.11 25.85 32.11 25.78L32.11 25.78L32.11 17.21L31.20 16.85L31.20 15.72Q31.20 15.72 31.58 15.65Q31.97 15.58 32.48 15.50Q33 15.43 33.44 15.36Q33.89 15.29 34.01 15.29L34.01 15.29Q34.08 15.29 34.27 15.47Q34.46 15.65 34.64 15.86Q34.82 16.08 34.82 16.15L34.82 16.15L34.82 16.92Q35.14 16.68 35.52 16.40Q35.90 16.13 36.26 15.88Q36.62 15.62 36.89 15.46Q37.15 15.29 37.20 15.29L37.20 15.29Q38.33 15.29 39.13 15.62Q39.94 15.96 40.37 16.81Q40.80 17.66 40.80 19.15L40.80 19.15L40.80 24.70L41.69 25.06L41.69 26.18Q41.69 26.18 41.32 26.26Q40.94 26.33 40.42 26.41Q39.89 26.50 39.47 26.57Q39.05 26.64 38.95 26.64L38.95 26.64Q38.88 26.64 38.64 26.46Q38.40 26.28 38.20 26.06Q37.99 25.85 37.99 25.78L37.99 25.78L37.99 19.15Q37.99 18.29 37.76 17.92Q37.54 17.54 37.25 17.47Q36.96 17.40 36.82 17.40L36.82 17.40Q36.72 17.40 36.41 17.52Q36.10 17.64 35.70 17.81Q35.30 17.98 34.92 18.17L34.92 18.17L34.92 24.70L35.81 25.06L35.81 26.18Q35.81 26.18 35.44 26.26Q35.06 26.33 34.55 26.41Q34.03 26.50 33.60 26.57Q33.17 26.64 33.07 26.64ZM51.34 26.40L43.58 26.40Q43.44 26.23 43.24 25.82Q43.03 25.42 42.98 25.27L42.98 25.27Q44.18 23.30 45.23 21.47Q46.27 19.63 47.50 17.47L47.50 17.47L47.45 17.18L45.10 17.04L44.88 18.65L43.39 18.65L43.20 15.55L50.40 15.55Q50.52 15.70 50.72 16.04Q50.93 16.39 51 16.63L51 16.63Q49.92 18.60 48.84 20.50Q47.76 22.39 46.66 24.31L46.66 24.31L46.66 24.65L49.46 24.79L49.78 22.75L51.26 22.75L51.34 26.40ZM55.70 21.19L55.70 21.19Q55.70 22.49 56.04 23.23Q56.38 23.98 56.83 24.28Q57.29 24.58 57.67 24.58L57.67 24.58Q57.74 24.58 58.13 24.56Q58.51 24.55 59.05 24.53Q59.59 24.50 60.12 24.48Q60.65 24.46 61.01 24.43L61.01 24.43L61.01 25.63Q60.62 25.78 60.04 25.94Q59.45 26.11 58.84 26.27Q58.22 26.42 57.74 26.53Q57.26 26.64 57.07 26.64L57.07 26.64Q55.90 26.64 54.92 26.06Q53.95 25.49 53.36 24.36Q52.78 23.23 52.78 21.55L52.78 21.55Q52.78 20.38 52.96 19.34Q53.14 18.31 53.38 17.81L53.38 17.81Q53.59 17.52 54.13 17.10Q54.67 16.68 55.32 16.26Q55.97 15.84 56.52 15.56Q57.07 15.29 57.34 15.29L57.34 15.29Q58.68 15.29 59.58 15.74Q60.48 16.20 60.92 17.44Q61.37 18.67 61.37 21L61.37 21L54.50 21.72L54.50 20.57L58.54 19.85Q58.56 18.50 58.28 17.71Q58.01 16.92 57.22 16.87L57.22 16.87Q57.05 16.85 56.82 16.85Q56.59 16.85 56.40 16.94L56.40 16.94Q56.09 17.11 55.90 18.24Q55.70 19.37 55.70 21.19ZM69.46 12.96L70.25 13.58Q70.15 14.40 70.04 15.18Q69.94 15.96 69.89 16.86Q69.84 17.76 69.84 18.94L69.84 18.94Q69.84 20.50 69.98 21.42Q70.13 22.34 70.38 22.85Q70.63 23.35 70.96 23.57Q71.28 23.78 71.62 23.90L71.62 23.90Q72.14 24.07 73.08 24.19Q74.02 24.31 74.76 24.29L74.76 24.29Q74.81 24.07 74.83 23.70Q74.86 23.33 74.88 22.91Q74.90 22.49 74.90 22.09Q74.90 21.70 74.90 21.43L74.90 21.43L73.22 21.02L73.61 18.60Q74.28 18.65 75.11 18.77Q75.94 18.89 76.60 19.07Q77.26 19.25 77.45 19.49L77.45 19.49Q77.47 19.92 77.50 20.51Q77.52 21.10 77.51 21.74Q77.50 22.39 77.46 22.98Q77.42 23.57 77.39 24.01Q77.35 24.46 77.30 24.62L77.30 24.62Q77.14 24.82 76.68 25.07Q76.22 25.32 75.66 25.60Q75.10 25.87 74.53 26.11Q73.97 26.35 73.52 26.50Q73.08 26.64 72.91 26.64L72.91 26.64Q72.55 26.64 71.90 26.52Q71.26 26.40 70.51 26.17Q69.77 25.94 69.13 25.62Q68.50 25.30 68.18 24.94L68.18 24.94Q67.70 24.38 67.38 23.70Q67.06 23.02 66.88 22.08Q66.70 21.14 66.70 19.85L66.70 19.85Q66.70 18.14 66.90 16.87Q67.10 15.60 67.42 14.81L67.42 14.81Q67.73 14.40 68.28 13.91Q68.83 13.42 69.46 12.96L69.46 12.96ZM71.95 24.26L71.23 24.26L71.23 13.46Q71.23 13.25 71.40 12.74Q71.57 12.24 71.78 11.66L71.78 11.66L72.50 11.69L72.50 22.90Q72.50 23.04 72.36 23.39Q72.22 23.74 71.95 24.26L71.95 24.26ZM77.18 11.95L76.90 16.44L75.34 16.44L75.02 13.80Q74.69 13.70 74.16 13.62Q73.63 13.54 73.10 13.49Q72.58 13.44 72.22 13.44L72.22 13.44Q72 13.44 71.83 13.45Q71.66 13.46 71.52 13.49L71.52 13.49L71.78 11.66Q71.90 11.62 71.99 11.60Q72.07 11.59 72.19 11.59L72.19 11.59Q72.50 11.59 73.07 11.62Q73.63 11.64 74.34 11.69Q75.05 11.74 75.80 11.80Q76.56 11.86 77.18 11.95L77.18 11.95ZM84.79 26.64L84.79 26.64Q82.20 26.64 80.83 25.38Q79.46 24.12 79.46 21.43L79.46 21.43Q79.46 20.35 79.64 19.34Q79.82 18.34 80.06 17.86L80.06 17.86Q80.28 17.57 80.82 17.12Q81.36 16.68 82.02 16.27Q82.68 15.86 83.23 15.58Q83.78 15.29 84.02 15.29L84.02 15.29Q86.62 15.29 87.92 16.62Q89.23 17.95 89.23 20.40L89.23 20.40Q89.23 21.60 89.05 22.61Q88.87 23.62 88.66 24.17L88.66 24.17Q88.46 24.43 87.94 24.84Q87.41 25.25 86.76 25.67Q86.11 26.09 85.56 26.36Q85.01 26.64 84.79 26.64ZM84.86 25.08L84.86 25.08Q84.94 25.06 85.19 24.95Q85.44 24.84 85.67 24.72Q85.90 24.60 85.90 24.60L85.90 24.60Q86.02 24.05 86.14 23.14Q86.26 22.22 86.26 20.74L86.26 20.74Q86.26 19.63 86.02 18.76Q85.78 17.88 85.26 17.36Q84.74 16.85 83.93 16.85L83.93 16.85Q83.74 16.85 83.54 16.88Q83.35 16.92 83.14 16.99L83.14 16.99Q82.85 17.14 82.64 18.22Q82.44 19.30 82.44 21.10L82.44 21.10Q82.44 22.70 82.81 23.58Q83.18 24.46 83.75 24.77Q84.31 25.08 84.86 25.08ZM93.53 26.64L93.53 26.64Q93.31 26.64 93.01 26.42Q92.71 26.21 92.40 25.87Q92.09 25.54 91.88 25.19Q91.68 24.84 91.68 24.60L91.68 24.60L91.68 17.06L90.05 17.06L90.05 16.08L91.68 15.36L93.43 13.27Q93.60 13.27 93.89 13.38Q94.18 13.49 94.49 13.61L94.49 13.61L94.49 15.55L96.84 15.55L96.84 17.16L94.49 17.16L94.49 23.57Q94.49 24.22 94.62 24.44Q94.75 24.67 95.04 24.67L95.04 24.67L97.10 24.77L97.10 26.18Q96.67 26.26 96.11 26.34Q95.54 26.42 95.02 26.48Q94.49 26.54 94.07 26.59Q93.65 26.64 93.53 26.64ZM99.94 26.64L99.94 26.64Q99.86 26.64 99.60 26.44Q99.34 26.23 99.11 26.02Q98.88 25.80 98.88 25.70L98.88 25.70L98.88 17.16L97.97 16.85L97.97 15.72Q97.97 15.72 98.34 15.65Q98.71 15.58 99.24 15.49Q99.77 15.41 100.20 15.35Q100.63 15.29 100.73 15.29L100.73 15.29Q100.82 15.29 101.05 15.48Q101.28 15.67 101.48 15.90Q101.69 16.13 101.69 16.25L101.69 16.25L101.69 24.79L102.58 25.06L102.58 26.18Q102.58 26.18 102.22 26.26Q101.86 26.33 101.36 26.41Q100.87 26.50 100.45 26.57Q100.03 26.64 99.94 26.64ZM98.54 12.02L98.64 11.47Q98.64 11.40 98.89 11.20Q99.14 10.99 99.47 10.73Q99.79 10.46 100.07 10.28Q100.34 10.10 100.39 10.10L100.39 10.10Q100.51 10.10 100.78 10.32Q101.04 10.54 101.33 10.85Q101.62 11.16 101.82 11.44Q102.02 11.71 102 11.83L102 11.83L101.88 12.38Q101.86 12.48 101.62 12.68Q101.38 12.89 101.06 13.13Q100.75 13.37 100.48 13.55Q100.20 13.73 100.13 13.73L100.13 13.73Q100.01 13.73 99.74 13.50Q99.48 13.27 99.20 12.96Q98.93 12.65 98.74 12.38Q98.54 12.12 98.54 12.02L98.54 12.02ZM108.67 26.64L108.67 26.64Q108.43 26.64 107.84 26.62Q107.26 26.59 106.52 26.54Q105.79 26.50 105.11 26.44Q104.42 26.38 103.97 26.33L103.97 26.33L104.02 22.66L105.46 22.63L105.96 24.50Q106.34 24.62 106.84 24.74Q107.33 24.86 107.76 24.95Q108.19 25.03 108.43 25.03L108.43 25.03Q108.55 25.03 108.68 24.85Q108.82 24.67 108.92 24.40Q109.03 24.12 109.03 23.90L109.03 23.90Q109.03 23.50 108.77 23.20Q108.50 22.90 107.99 22.58Q107.47 22.27 106.66 21.84L106.66 21.84Q105.65 21.26 105.07 20.80Q104.50 20.33 104.26 19.81Q104.02 19.30 104.02 18.67L104.02 18.67Q104.02 18.36 104.05 18.02Q104.09 17.69 104.16 17.45L104.16 17.45Q104.38 17.16 104.75 16.79Q105.12 16.42 105.55 16.07Q105.98 15.72 106.37 15.50Q106.75 15.29 106.94 15.29L106.94 15.29Q107.26 15.29 107.82 15.30Q108.38 15.31 109.03 15.35Q109.68 15.38 110.27 15.42Q110.86 15.46 111.22 15.50L111.22 15.50L111.14 18.62L109.56 18.62L109.39 17.33Q109.30 17.28 108.95 17.22Q108.60 17.16 108.17 17.09Q107.74 17.02 107.38 16.97Q107.02 16.92 106.90 16.92L106.90 16.92Q106.78 16.92 106.68 17.02Q106.58 17.11 106.52 17.29Q106.46 17.47 106.46 17.74L106.46 17.74Q106.46 18.17 106.76 18.49Q107.06 18.82 107.48 19.07Q107.90 19.32 108.29 19.56L108.29 19.56Q108.77 19.85 109.36 20.18Q109.94 20.52 110.51 20.93Q111.07 21.34 111.42 21.80Q111.77 22.27 111.77 22.82L111.77 22.82Q111.77 23.09 111.74 23.45Q111.72 23.81 111.60 24.14L111.60 24.14Q111.41 24.46 111.06 24.88Q110.71 25.30 110.27 25.70Q109.82 26.11 109.40 26.38Q108.98 26.64 108.67 26.64ZM116.74 26.64L116.74 26.64Q115.73 26.64 114.86 26.06Q114.00 25.49 113.48 24.35Q112.97 23.21 112.97 21.50L112.97 21.50Q112.97 20.33 113.15 19.31Q113.33 18.29 113.57 17.78L113.57 17.78Q113.78 17.50 114.31 17.09Q114.84 16.68 115.46 16.26Q116.09 15.84 116.63 15.56Q117.17 15.29 117.41 15.29L117.41 15.29Q118.01 15.29 118.80 15.42Q119.59 15.55 120.29 15.79L120.29 15.79L120.22 19.10L118.51 19.10L118.13 17.33Q117.89 17.21 117.53 17.09Q117.17 16.97 116.86 16.97L116.86 16.97Q116.78 16.97 116.70 16.99Q116.62 17.02 116.54 17.06L116.54 17.06Q116.35 17.21 116.21 17.77Q116.06 18.34 115.99 19.19Q115.92 20.04 115.92 21.07L115.92 21.07Q115.92 22.22 116.16 22.99Q116.40 23.76 116.78 24.13Q117.17 24.50 117.58 24.50L117.58 24.50L120.29 24.50L120.29 25.73Q119.90 25.85 119.40 26.02Q118.90 26.18 118.37 26.32Q117.84 26.45 117.41 26.54Q116.98 26.64 116.74 26.64ZM122.33 12.67L121.42 12.31L121.42 11.18Q121.42 11.18 121.68 11.15Q121.94 11.11 122.33 11.04Q122.71 10.97 123.12 10.90Q123.53 10.82 123.84 10.79Q124.15 10.75 124.25 10.75L124.25 10.75Q124.34 10.75 124.55 10.93Q124.75 11.11 124.94 11.32Q125.14 11.52 125.14 11.62L125.14 11.62L124.99 16.87L125.11 16.90Q125.42 16.66 125.80 16.39Q126.17 16.13 126.52 15.86Q126.86 15.60 127.12 15.44Q127.37 15.29 127.42 15.29L127.42 15.29Q128.57 15.29 129.36 15.62Q130.15 15.96 130.57 16.81Q130.99 17.66 130.99 19.15L130.99 19.15L130.99 25.61Q130.99 26.30 130.69 27.10Q130.39 27.89 129.83 28.61Q129.26 29.33 128.45 29.76L128.45 29.76L127.58 29.04Q127.90 28.34 128.02 27.74Q128.14 27.14 128.16 26.57Q128.18 25.99 128.18 25.42L128.18 25.42L128.18 19.15Q128.18 18.29 127.96 17.92Q127.73 17.54 127.46 17.47Q127.20 17.40 127.03 17.40L127.03 17.40Q126.94 17.40 126.55 17.56Q126.17 17.71 125.75 17.89Q125.33 18.07 125.14 18.17L125.14 18.17L125.14 24.70L126.02 25.06L126.02 26.18Q126.02 26.18 125.64 26.26Q125.26 26.33 124.74 26.41Q124.22 26.50 123.79 26.57Q123.36 26.64 123.26 26.64L123.26 26.64Q123.17 26.64 122.95 26.46Q122.74 26.28 122.53 26.06Q122.33 25.85 122.33 25.78L122.33 25.78L122.33 12.67ZM144.60 12.91L144.60 12.91L144.60 14.42Q143.54 14.64 142.74 15.10Q141.94 15.55 141.37 16.15Q140.81 16.75 140.46 17.48Q140.11 18.22 139.99 19.01L139.99 19.01L140.06 19.06Q140.50 18.82 140.92 18.60Q141.34 18.38 141.66 18.23Q141.98 18.07 142.08 18.07L142.08 18.07Q143.59 18.07 144.41 18.70Q145.22 19.32 145.56 20.26Q145.90 21.19 145.90 22.18L145.90 22.18Q145.90 22.68 145.79 23.28Q145.68 23.88 145.56 24.22L145.56 24.22Q145.27 24.62 144.79 25.06Q144.31 25.49 143.76 25.85Q143.21 26.21 142.72 26.42Q142.22 26.64 141.86 26.64L141.86 26.64Q140.69 26.64 139.78 26.27Q138.86 25.90 138.24 25.20Q137.62 24.50 137.29 23.50Q136.97 22.49 136.97 21.24L136.97 21.24Q136.97 19.25 137.59 17.77Q138.22 16.30 139.28 15.28Q140.35 14.26 141.73 13.67Q143.11 13.08 144.60 12.91ZM141.65 19.87L141.65 19.87Q141.58 19.87 141.29 19.96Q141 20.04 140.63 20.16Q140.26 20.28 139.92 20.42L139.92 20.42Q139.82 21.98 139.92 23.00Q140.02 24.02 140.52 24.53Q141.02 25.03 142.13 25.03L142.13 25.03Q142.39 25.03 142.56 24.73Q142.73 24.43 142.84 23.80Q142.94 23.16 142.94 22.18L142.94 22.18Q142.94 20.78 142.61 20.33Q142.27 19.87 141.65 19.87ZM152.83 26.64L152.83 26.64Q150.26 26.64 149.04 25.08Q147.82 23.52 147.82 20.74L147.82 20.74Q147.82 19.73 148.07 18.70Q148.32 17.66 148.90 16.80Q149.47 15.94 150.43 15.41Q151.39 14.88 152.78 14.88L152.78 14.88Q155.33 14.88 156.55 16.40Q157.78 17.93 157.78 20.74L157.78 20.74Q157.78 21.74 157.52 22.78Q157.27 23.81 156.70 24.68Q156.12 25.56 155.17 26.10Q154.22 26.64 152.83 26.64ZM152.54 25.06L152.54 25.06Q153.12 25.06 153.58 24.88Q154.03 24.70 154.44 24.46L154.44 24.46Q154.58 23.86 154.63 22.96Q154.68 22.06 154.68 20.74L154.68 20.74Q154.68 18.38 154.32 17.42Q153.96 16.46 153.02 16.46L153.02 16.46Q152.50 16.46 152.02 16.64Q151.54 16.82 151.15 17.06L151.15 17.06Q150.98 17.69 150.95 18.65Q150.91 19.61 150.91 20.74L150.91 20.74Q150.91 23.09 151.27 24.07Q151.63 25.06 152.54 25.06ZM164.74 26.64L164.74 26.64Q162.17 26.64 160.94 25.08Q159.72 23.52 159.72 20.74L159.72 20.74Q159.72 19.73 159.97 18.70Q160.22 17.66 160.80 16.80Q161.38 15.94 162.34 15.41Q163.30 14.88 164.69 14.88L164.69 14.88Q167.23 14.88 168.46 16.40Q169.68 17.93 169.68 20.74L169.68 20.74Q169.68 21.74 169.43 22.78Q169.18 23.81 168.60 24.68Q168.02 25.56 167.08 26.10Q166.13 26.64 164.74 26.64ZM164.45 25.06L164.45 25.06Q165.02 25.06 165.48 24.88Q165.94 24.70 166.34 24.46L166.34 24.46Q166.49 23.86 166.54 22.96Q166.58 22.06 166.58 20.74L166.58 20.74Q166.58 18.38 166.22 17.42Q165.86 16.46 164.93 16.46L164.93 16.46Q164.40 16.46 163.92 16.64Q163.44 16.82 163.06 17.06L163.06 17.06Q162.89 17.69 162.85 18.65Q162.82 19.61 162.82 20.74L162.82 20.74Q162.82 23.09 163.18 24.07Q163.54 25.06 164.45 25.06ZM177.02 26.64L177.02 26.64Q176.93 26.64 176.71 26.46Q176.50 26.28 176.28 26.06Q176.06 25.85 176.06 25.78L176.06 25.78L176.06 17.21L175.15 16.85L175.15 15.72Q175.15 15.72 175.54 15.65Q175.92 15.58 176.44 15.50Q176.95 15.43 177.40 15.36Q177.84 15.29 177.96 15.29L177.96 15.29Q178.03 15.29 178.22 15.47Q178.42 15.65 178.60 15.86Q178.78 16.08 178.78 16.15L178.78 16.15L178.78 16.92Q179.09 16.68 179.47 16.40Q179.86 16.13 180.22 15.88Q180.58 15.62 180.84 15.46Q181.10 15.29 181.15 15.29L181.15 15.29Q182.28 15.29 183.08 15.62Q183.89 15.96 184.32 16.81Q184.75 17.66 184.75 19.15L184.75 19.15L184.75 24.70L185.64 25.06L185.64 26.18Q185.64 26.18 185.27 26.26Q184.90 26.33 184.37 26.41Q183.84 26.50 183.42 26.57Q183 26.64 182.90 26.64L182.90 26.64Q182.83 26.64 182.59 26.46Q182.35 26.28 182.15 26.06Q181.94 25.85 181.94 25.78L181.94 25.78L181.94 19.15Q181.94 18.29 181.72 17.92Q181.49 17.54 181.20 17.47Q180.91 17.40 180.77 17.40L180.77 17.40Q180.67 17.40 180.36 17.52Q180.05 17.64 179.65 17.81Q179.26 17.98 178.87 18.17L178.87 18.17L178.87 24.70L179.76 25.06L179.76 26.18Q179.76 26.18 179.39 26.26Q179.02 26.33 178.50 26.41Q177.98 26.50 177.55 26.57Q177.12 26.64 177.02 26.64ZM192.38 26.64L192.38 26.64Q189.79 26.64 188.42 25.38Q187.06 24.12 187.06 21.43L187.06 21.43Q187.06 20.35 187.24 19.34Q187.42 18.34 187.66 17.86L187.66 17.86Q187.87 17.57 188.41 17.12Q188.95 16.68 189.61 16.27Q190.27 15.86 190.82 15.58Q191.38 15.29 191.62 15.29L191.62 15.29Q194.21 15.29 195.52 16.62Q196.82 17.95 196.82 20.40L196.82 20.40Q196.82 21.60 196.64 22.61Q196.46 23.62 196.25 24.17L196.25 24.17Q196.06 24.43 195.53 24.84Q195.00 25.25 194.35 25.67Q193.70 26.09 193.15 26.36Q192.60 26.64 192.38 26.64ZM192.46 25.08L192.46 25.08Q192.53 25.06 192.78 24.95Q193.03 24.84 193.26 24.72Q193.49 24.60 193.49 24.60L193.49 24.60Q193.61 24.05 193.73 23.14Q193.85 22.22 193.85 20.74L193.85 20.74Q193.85 19.63 193.61 18.76Q193.37 17.88 192.85 17.36Q192.34 16.85 191.52 16.85L191.52 16.85Q191.33 16.85 191.14 16.88Q190.94 16.92 190.73 16.99L190.73 16.99Q190.44 17.14 190.24 18.22Q190.03 19.30 190.03 21.10L190.03 21.10Q190.03 22.70 190.40 23.58Q190.78 24.46 191.34 24.77Q191.90 25.08 192.46 25.08ZM200.09 26.64L200.09 26.64Q199.99 26.64 199.78 26.46Q199.56 26.28 199.34 26.06Q199.13 25.85 199.13 25.78L199.13 25.78L199.13 17.16L198.22 16.85L198.22 15.72Q198.22 15.72 198.59 15.65Q198.96 15.58 199.46 15.49Q199.97 15.41 200.39 15.35Q200.81 15.29 200.90 15.29L200.90 15.29Q201.00 15.29 201.23 15.48Q201.46 15.67 201.66 15.91Q201.86 16.15 201.86 16.22L201.86 16.22L201.84 17.21Q202.15 16.87 202.46 16.54Q202.78 16.20 203.05 15.91Q203.33 15.62 203.52 15.46Q203.71 15.29 203.78 15.29L203.78 15.29Q204.14 15.29 204.66 15.41Q205.18 15.53 205.46 15.62L205.46 15.62Q205.51 15.74 205.58 16.04Q205.66 16.34 205.66 16.54L205.66 16.54Q205.66 16.66 205.55 16.93Q205.44 17.21 205.28 17.52Q205.13 17.83 205.00 18.06Q204.86 18.29 204.82 18.31L204.82 18.31Q204.70 18.26 204.44 18.16Q204.19 18.05 203.92 17.96Q203.64 17.88 203.42 17.88L203.42 17.88Q203.35 17.88 203.18 17.94Q203.02 18 202.80 18.08Q202.58 18.17 202.37 18.28Q202.15 18.38 201.94 18.50L201.94 18.50L201.94 24.55L203.33 24.94L203.33 26.16Q203.33 26.16 203.04 26.21Q202.75 26.26 202.30 26.33Q201.84 26.40 201.36 26.47Q200.88 26.54 200.53 26.59Q200.18 26.64 200.09 26.64ZM208.15 26.64L208.15 26.64Q208.06 26.64 207.84 26.46Q207.62 26.28 207.41 26.06Q207.19 25.85 207.19 25.78L207.19 25.78L207.19 17.23L206.28 16.87L206.28 15.72Q206.28 15.72 206.66 15.66Q207.05 15.60 207.56 15.50Q208.08 15.41 208.52 15.35Q208.97 15.29 209.09 15.29L209.09 15.29Q209.16 15.29 209.35 15.47Q209.54 15.65 209.72 15.86Q209.90 16.08 209.90 16.18L209.90 16.18L209.90 16.94Q210.17 16.70 210.50 16.42Q210.84 16.13 211.16 15.88Q211.49 15.62 211.73 15.46Q211.97 15.29 211.99 15.29L211.99 15.29Q213.17 15.29 214.02 15.66Q214.87 16.03 215.26 16.94L215.26 16.94Q215.52 16.70 215.84 16.42Q216.17 16.13 216.47 15.88Q216.77 15.62 216.98 15.46Q217.20 15.29 217.25 15.29L217.25 15.29Q218.50 15.29 219.36 15.62Q220.22 15.96 220.69 16.81Q221.16 17.66 221.16 19.15L221.16 19.15L221.16 24.70L222.02 25.06L222.02 26.18Q222.02 26.18 221.65 26.26Q221.28 26.33 220.76 26.41Q220.25 26.50 219.83 26.57Q219.41 26.64 219.31 26.64L219.31 26.64Q219.24 26.64 219.00 26.46Q218.76 26.28 218.56 26.06Q218.35 25.85 218.35 25.78L218.35 25.78L218.35 19.18Q218.35 18.50 218.20 18.14Q218.04 17.78 217.82 17.63Q217.61 17.47 217.42 17.44Q217.22 17.40 217.10 17.40L217.10 17.40Q217.06 17.40 216.83 17.51Q216.60 17.62 216.34 17.76Q216.07 17.90 215.86 18.02Q215.64 18.14 215.59 18.17L215.59 18.17L215.59 24.70L216.43 25.06L216.43 26.18Q216.43 26.18 216.06 26.26Q215.69 26.33 215.18 26.41Q214.68 26.50 214.26 26.57Q213.84 26.64 213.74 26.64L213.74 26.64Q213.67 26.64 213.43 26.46Q213.19 26.28 212.99 26.06Q212.78 25.85 212.78 25.78L212.78 25.78L212.78 19.18Q212.78 18.29 212.56 17.92Q212.33 17.54 212.04 17.47Q211.75 17.40 211.61 17.40L211.61 17.40Q211.54 17.40 211.31 17.51Q211.08 17.62 210.79 17.76Q210.50 17.90 210.29 18.02Q210.07 18.14 210.00 18.17L210.00 18.17L210.00 24.70L210.84 25.06L210.84 26.18Q210.84 26.18 210.47 26.26Q210.10 26.33 209.59 26.41Q209.09 26.50 208.67 26.57Q208.25 26.64 208.15 26.64ZM226.85 26.64L226.85 26.64Q225.65 26.64 224.89 26.21Q224.14 25.78 223.76 25.03Q223.39 24.29 223.39 23.38L223.39 23.38Q223.39 22.82 223.52 22.22Q223.66 21.62 223.92 21.07L223.92 21.07L226.30 22.08Q226.22 22.32 226.18 22.62Q226.13 22.92 226.13 23.23L226.13 23.23Q226.13 23.78 226.33 24.18Q226.54 24.58 227.18 24.58L227.18 24.58Q227.35 24.58 227.70 24.42Q228.05 24.26 228.50 24.02Q228.96 23.78 229.42 23.54L229.42 23.54L229.42 24.74Q228.91 25.13 228.35 25.57Q227.78 26.02 227.36 26.33Q226.94 26.64 226.85 26.64ZM226.01 22.32L223.92 21.07L229.18 20.38L229.18 21.62L226.01 22.32ZM224.47 17.66L224.14 17.21L224.59 15.38Q225.41 15.31 226.15 15.30Q226.90 15.29 227.59 15.29Q228.29 15.29 228.91 15.36L228.91 15.36Q229.27 15.41 229.75 15.78Q230.23 16.15 230.70 16.67Q231.17 17.18 231.48 17.71Q231.79 18.24 231.79 18.60L231.79 18.60L231.79 24.72L232.70 25.08L232.70 26.21Q232.18 26.30 231.58 26.40Q230.98 26.50 230.52 26.57Q230.06 26.64 229.92 26.64L229.92 26.64Q229.85 26.64 229.64 26.47Q229.44 26.30 229.26 26.09Q229.08 25.87 229.08 25.78L229.08 25.78L229.08 24.82L228.98 24.58L228.98 19.08Q228.98 18.34 228.73 18Q228.48 17.66 227.86 17.64L227.86 17.64Q227.50 17.59 226.92 17.59Q226.34 17.59 225.68 17.62Q225.02 17.64 224.47 17.66L224.47 17.66ZM235.49 26.64L235.49 26.64Q235.42 26.64 235.19 26.46Q234.96 26.28 234.76 26.06Q234.55 25.85 234.55 25.78L234.55 25.78L234.55 12.67L233.64 12.31L233.64 11.18Q233.64 11.18 233.90 11.15Q234.17 11.11 234.56 11.04Q234.96 10.97 235.38 10.90Q235.80 10.82 236.11 10.79Q236.42 10.75 236.50 10.75L236.50 10.75Q236.59 10.75 236.80 10.93Q237.00 11.11 237.18 11.32Q237.36 11.52 237.36 11.62L237.36 11.62L237.36 24.70L238.25 25.06L238.25 26.18Q238.25 26.18 237.86 26.26Q237.48 26.33 236.98 26.41Q236.47 26.50 236.04 26.57Q235.61 26.64 235.49 26.64Z"/></svg>