<svg xmlns="http://www.w3.org/2000/svg" xmlns:xlink="http://www.w3.org/1999/xlink" width="328.00800000000004" height="42.696"><path fill="black" d="M7.92 9.05L7.92 26.33L9.60 26.33L9.60 27.29L0.48 27.29L0.48 26.33L2.40 26.33L2.40 9.05L0.48 9.05L0.48 8.09L9.60 8.09L9.60 9.05L7.92 9.05ZM19.15 26.33L20.83 26.33L20.83 27.29L13.22 27.29L8.76 18.14L8.76 17.21L15.38 9.05L13.25 9.05L13.25 8.09L19.15 8.09L19.15 9.05L16.70 9.05L10.10 17.21L14.71 17.21L19.15 26.33ZM37.27 26.33L39.19 26.33L39.19 27.29L33.98 27.29L32.30 25.58L30.60 27.29L25.22 27.29L22.99 25.06L22.99 13.85L21.07 13.85L21.07 12.89L26.16 12.89L28.39 15.12L28.39 26.33L30.07 26.33L31.75 24.65L31.75 12.89L35.04 12.89L37.27 15.12L37.27 26.33ZM65.47 26.33L67.39 26.33L67.39 27.29L62.06 27.29L60.07 25.30L60.07 13.85L58.39 13.85L56.71 15.53L56.71 26.33L58.15 26.33L58.15 27.29L51.19 27.29L51.19 13.85L49.51 13.85L47.83 15.53L47.83 26.33L49.27 26.33L49.27 27.29L40.39 27.29L40.39 26.33L42.31 26.33L42.31 13.85L40.39 13.85L40.39 12.89L45.60 12.89L47.30 14.57L48.98 12.89L54.48 12.89L56.18 14.57L57.86 12.89L63.24 12.89L65.47 15.12L65.47 26.33ZM69.55 25.30L71.54 27.29L76.80 27.29L78.26 25.82L79.70 27.29L85.15 27.29L85.15 26.33L83.23 26.33L83.23 14.88L81.24 12.89L72.14 12.89L70.15 14.88L70.15 17.69L75.19 17.69L75.19 13.85L77.71 13.85L77.71 19.61L71.54 19.61L69.55 21.60L69.55 25.30ZM75.19 26.33L75.19 20.57L77.71 20.57L77.71 24.89L76.27 26.33L75.19 26.33ZM97.80 12.89L99.55 14.64L98.81 15.38L97.27 13.85L95.23 13.85L93.55 15.53L93.55 26.33L95.47 26.33L95.47 27.29L90.26 27.29L88.03 25.06L88.03 13.85L86.11 13.85L86.11 12.89L91.32 12.89L93.02 14.57L94.70 12.89L97.80 12.89ZM106.99 24.82L109.46 27.29L120.24 27.29L122.71 24.82L122.71 10.56L120.24 8.09L109.46 8.09L106.99 10.56L106.99 24.82ZM112.51 26.33L112.51 9.05L117.19 9.05L117.19 26.33L112.51 26.33ZM140.71 26.33L142.63 26.33L142.63 27.29L137.18 27.29L135.19 25.30L135.19 13.85L133.51 13.85L131.83 15.53L131.83 26.33L133.03 26.33L133.03 27.29L124.39 27.29L124.39 26.33L126.31 26.33L126.31 13.85L124.39 13.85L124.39 12.89L129.60 12.89L131.30 14.57L132.98 12.89L138.48 12.89L140.71 15.12L140.71 26.33ZM144.31 25.06L146.54 27.29L155.88 27.29L158.11 25.06L157.37 24.31L155.35 26.33L149.83 26.33L149.83 21.29L155.76 21.29L157.99 19.06L157.99 15.12L155.76 12.89L146.54 12.89L144.31 15.12L144.31 25.06ZM149.83 20.33L149.83 13.85L152.47 13.85L152.47 20.33L149.83 20.33ZM165.67 23.21L175.03 23.21L175.03 26.33L172.63 26.33L172.63 27.29L182.11 27.29L182.11 26.33L180.43 26.33L180.43 16.97L176.26 16.97L175.03 19.27L175.03 22.25L171.17 22.25L176.81 11.64L176.81 8.57L172.06 8.57L165.67 20.57L165.67 23.21ZM195.96 8.57L198.19 10.80L198.19 25.08L195.96 27.31L186.50 27.29L184.27 25.06L184.27 10.78L186.50 8.54L195.96 8.57ZM192.67 9.53L189.79 9.50L189.79 26.33L192.67 26.35L192.67 9.53ZM213.24 8.57L215.47 10.80L215.47 25.08L213.24 27.31L203.78 27.29L201.55 25.06L201.55 10.78L203.78 8.54L213.24 8.57ZM209.95 9.53L207.07 9.50L207.07 26.33L209.95 26.35L209.95 9.53ZM240.19 26.33L242.11 26.33L242.11 27.29L236.66 27.29L234.67 25.30L234.67 13.85L232.99 13.85L231.31 15.53L231.31 26.33L232.51 26.33L232.51 27.29L223.87 27.29L223.87 26.33L225.79 26.33L225.79 13.85L223.87 13.85L223.87 12.89L229.08 12.89L230.78 14.57L232.46 12.89L237.96 12.89L240.19 15.12L240.19 26.33ZM255.10 12.89L257.57 15.36L257.57 24.82L255.10 27.29L246.26 27.29L243.79 24.82L243.79 15.36L246.26 12.89L255.10 12.89ZM251.81 13.85L249.55 13.85L249.55 26.33L251.81 26.33L251.81 13.85ZM270.94 12.89L272.69 14.64L271.94 15.38L270.41 13.85L268.37 13.85L266.69 15.53L266.69 26.33L268.61 26.33L268.61 27.29L263.40 27.29L261.17 25.06L261.17 13.85L259.25 13.85L259.25 12.89L264.46 12.89L266.16 14.57L267.84 12.89L270.94 12.89ZM298.49 26.33L300.41 26.33L300.41 27.29L295.08 27.29L293.09 25.30L293.09 13.85L291.41 13.85L289.73 15.53L289.73 26.33L291.17 26.33L291.17 27.29L284.21 27.29L284.21 13.85L282.53 13.85L280.85 15.53L280.85 26.33L282.29 26.33L282.29 27.29L273.41 27.29L273.41 26.33L275.33 26.33L275.33 13.85L273.41 13.85L273.41 12.89L278.62 12.89L280.32 14.57L282.00 12.89L287.50 12.89L289.20 14.57L290.88 12.89L296.26 12.89L298.49 15.12L298.49 26.33ZM302.57 25.30L304.56 27.29L309.82 27.29L311.28 25.82L312.72 27.29L318.17 27.29L318.17 26.33L316.25 26.33L316.25 14.88L314.26 12.89L305.16 12.89L303.17 14.88L303.17 17.69L308.21 17.69L308.21 13.85L310.73 13.85L310.73 19.61L304.56 19.61L302.57 21.60L302.57 25.30ZM308.21 26.33L308.21 20.57L310.73 20.57L310.73 24.89L309.29 26.33L308.21 26.33ZM325.85 26.33L327.53 26.33L327.53 27.29L322.56 27.29L320.33 25.06L320.33 7.13L318.65 7.13L318.65 6.17L323.62 6.17L325.85 8.40L325.85 26.33Z"/></svg>