<svg xmlns="http://www.w3.org/2000/svg" xmlns:xlink="http://www.w3.org/1999/xlink" width="246.00000000000009" height="59.976"><path fill="black" d="M12.12 29.74L2.26 29.74L2.26 12.60L12.12 12.60L12.12 29.74ZM10.90 13.82L3.48 13.82L3.48 28.51L10.90 28.51L10.90 13.82ZM26.52 29.74L16.66 29.74L16.66 12.60L26.52 12.60L26.52 29.74ZM25.30 13.82L17.88 13.82L17.88 28.51L25.30 28.51L25.30 13.82ZM40.92 29.74L31.06 29.74L31.06 12.60L40.92 12.60L40.92 29.74ZM39.70 13.82L32.28 13.82L32.28 28.51L39.70 28.51L39.70 13.82ZM55.32 29.74L45.46 29.74L45.46 12.60L55.32 12.60L55.32 29.74ZM54.10 13.82L46.68 13.82L46.68 28.51L54.10 28.51L54.10 13.82ZM77.52 29.74L67.66 29.74L67.66 12.60L77.52 12.60L77.52 29.74ZM76.30 13.82L68.88 13.82L68.88 28.51L76.30 28.51L76.30 13.82ZM91.92 29.74L82.06 29.74L82.06 12.60L91.92 12.60L91.92 29.74ZM90.70 13.82L83.28 13.82L83.28 28.51L90.70 28.51L90.70 13.82ZM106.32 29.74L96.46 29.74L96.46 12.60L106.32 12.60L106.32 29.74ZM105.10 13.82L97.68 13.82L97.68 28.51L105.10 28.51L105.10 13.82ZM120.72 29.74L110.86 29.74L110.86 12.60L120.72 12.60L120.72 29.74ZM119.50 13.82L112.08 13.82L112.08 28.51L119.50 28.51L119.50 13.82ZM135.12 29.74L125.26 29.74L125.26 12.60L135.12 12.60L135.12 29.74ZM133.90 13.82L126.48 13.82L126.48 28.51L133.90 28.51L133.90 13.82ZM157.32 29.74L147.46 29.74L147.46 12.60L157.32 12.60L157.32 29.74ZM156.10 13.82L148.68 13.82L148.68 28.51L156.10 28.51L156.10 13.82ZM171.72 29.74L161.86 29.74L161.86 12.60L171.72 12.60L171.72 29.74ZM170.50 13.82L163.08 13.82L163.08 28.51L170.50 28.51L170.50 13.82ZM186.12 29.74L176.26 29.74L176.26 12.60L186.12 12.60L186.12 29.74ZM184.90 13.82L177.48 13.82L177.48 28.51L184.90 28.51L184.90 13.82ZM200.52 29.74L190.66 29.74L190.66 12.60L200.52 12.60L200.52 29.74ZM199.30 13.82L191.88 13.82L191.88 28.51L199.30 28.51L199.30 13.82ZM214.92 29.74L205.06 29.74L205.06 12.60L214.92 12.60L214.92 29.74ZM213.70 13.82L206.28 13.82L206.28 28.51L213.70 28.51L213.70 13.82ZM229.32 29.74L219.46 29.74L219.46 12.60L229.32 12.60L229.32 29.74ZM228.10 13.82L220.68 13.82L220.68 28.51L228.10 28.51L228.10 13.82ZM243.72 29.74L233.86 29.74L233.86 12.60L243.72 12.60L243.72 29.74ZM242.50 13.82L235.08 13.82L235.08 28.51L242.50 28.51L242.50 13.82Z"/></svg>