<svg xmlns="http://www.w3.org/2000/svg" xmlns:xlink="http://www.w3.org/1999/xlink" width="182.59199999999998" height="39.6"><path fill="black" d="M4.06 30.94L4.06 30.94Q3 30.94 3 30.26L3 30.26L3 10.25Q3 9.91 3.28 9.76Q3.55 9.60 4.08 9.60L4.08 9.60L8.64 9.60Q11.04 9.60 12.65 10.13Q14.26 10.66 15.08 11.81Q15.91 12.96 15.91 14.86L15.91 14.86Q15.91 16.70 15.22 17.99Q14.52 19.27 13.39 20.09Q12.26 20.90 10.92 21.37Q9.58 21.84 8.26 22.06L8.26 22.06Q7.37 22.18 6.55 22.24Q5.74 22.30 5.11 22.30L5.11 22.30L5.11 30.26Q5.11 30.60 4.85 30.77Q4.58 30.94 4.06 30.94ZM5.11 11.52L5.11 20.40Q5.57 20.40 6.08 20.38Q6.60 20.35 7.15 20.29Q7.70 20.23 8.26 20.16L8.26 20.16Q9.62 19.92 10.88 19.34Q12.14 18.77 12.95 17.69Q13.75 16.61 13.75 14.88L13.75 14.88Q13.75 13.66 13.18 12.92Q12.60 12.19 11.46 11.86Q10.32 11.52 8.64 11.52L8.64 11.52L5.11 11.52ZM21.36 31.01L21.36 31.01Q20.23 31.01 19.66 30.35Q19.08 29.69 19.08 28.42L19.08 28.42L19.08 9.86Q19.08 9.55 19.33 9.40Q19.58 9.24 20.09 9.24L20.09 9.24Q20.62 9.24 20.88 9.40Q21.14 9.55 21.14 9.86L21.14 9.86L21.14 28.10Q21.14 28.70 21.29 28.93Q21.43 29.16 21.74 29.16L21.74 29.16Q21.94 29.16 22.08 29.05Q22.22 28.94 22.38 28.70Q22.54 28.46 22.70 28.13L22.70 28.13Q22.82 27.91 23.04 27.89Q23.26 27.86 23.54 28.01L23.54 28.01Q23.83 28.13 23.95 28.36Q24.07 28.58 23.98 28.78L23.98 28.78Q23.71 29.47 23.32 29.96Q22.92 30.46 22.44 30.73Q21.96 31.01 21.36 31.01ZM29.59 31.01L29.59 31.01Q28.34 31.01 27.42 30.32Q26.50 29.64 25.99 28.34Q25.49 27.05 25.49 25.18L25.49 25.18Q25.49 23.93 25.72 22.85Q25.94 21.77 26.39 20.89Q26.83 20.02 27.49 19.40Q28.15 18.79 29.00 18.47Q29.86 18.14 30.89 18.14L30.89 18.14Q31.70 18.14 32.42 18.34Q33.14 18.53 33.86 18.91L33.86 18.91L33.86 18.84Q33.86 18.55 34.13 18.40Q34.39 18.24 34.92 18.24L34.92 18.24Q35.45 18.24 35.70 18.40Q35.95 18.55 35.95 18.86L35.95 18.86L35.95 28.10Q35.95 28.49 36.01 28.73Q36.07 28.97 36.20 29.06Q36.34 29.16 36.53 29.16L36.53 29.16Q36.72 29.16 36.88 29.05Q37.03 28.94 37.19 28.72Q37.34 28.49 37.56 28.13L37.56 28.13Q37.66 27.91 37.87 27.88Q38.09 27.84 38.38 28.01L38.38 28.01Q38.69 28.15 38.81 28.38Q38.93 28.61 38.81 28.87L38.81 28.87Q38.59 29.45 38.21 29.93Q37.82 30.41 37.33 30.71Q36.84 31.01 36.22 31.01L36.22 31.01Q35.64 31.01 35.22 30.84Q34.80 30.67 34.50 30.35Q34.20 30.02 34.06 29.57Q33.91 29.11 33.89 28.54L33.89 28.54Q33.89 28.22 33.88 27.88Q33.86 27.53 33.86 27.17L33.86 27.17Q33.41 28.44 32.74 29.29Q32.06 30.14 31.27 30.58Q30.48 31.01 29.59 31.01ZM27.60 25.13L27.60 25.13Q27.60 26.28 27.83 27.18Q28.06 28.08 28.58 28.58Q29.11 29.09 29.93 29.09L29.93 29.09Q30.77 29.09 31.54 28.34Q32.30 27.60 32.90 26.23Q33.50 24.86 33.86 22.97L33.86 22.97L33.86 20.76Q33.12 20.33 32.46 20.17Q31.80 20.02 31.20 20.02L31.20 20.02Q30.53 20.02 29.96 20.23Q29.40 20.45 28.96 20.87Q28.51 21.29 28.21 21.90Q27.91 22.51 27.76 23.32Q27.60 24.12 27.60 25.13ZM44.69 31.01L44.69 31.01Q43.68 31.01 42.88 30.62Q42.07 30.24 41.62 29.35Q41.16 28.46 41.16 27L41.16 27L41.16 18.86Q41.16 18.55 41.41 18.40Q41.66 18.24 42.17 18.24L42.17 18.24Q42.70 18.24 42.96 18.40Q43.22 18.55 43.22 18.86L43.22 18.86L43.22 26.81Q43.22 27.60 43.40 28.12Q43.58 28.63 43.97 28.88Q44.35 29.14 44.98 29.14L44.98 29.14Q45.77 29.14 46.45 28.62Q47.14 28.10 47.68 27.16Q48.22 26.21 48.62 24.91Q49.03 23.62 49.27 22.10L49.27 22.10L49.27 18.86Q49.27 18.55 49.52 18.40Q49.78 18.24 50.30 18.24L50.30 18.24Q50.83 18.24 51.10 18.40Q51.36 18.55 51.36 18.86L51.36 18.86L51.36 34.27Q51.36 36.19 50.82 37.49Q50.28 38.78 49.20 39.42Q48.12 40.06 46.54 40.06L46.54 40.06Q45.58 40.06 44.66 39.78Q43.75 39.50 43.02 39.06Q42.29 38.62 41.81 38.14L41.81 38.14Q41.54 37.82 41.53 37.50Q41.52 37.18 41.95 36.82L41.95 36.82Q42.34 36.53 42.58 36.52Q42.82 36.50 43.20 36.79L43.20 36.79Q44.09 37.51 44.86 37.85Q45.62 38.18 46.58 38.18L46.58 38.18Q47.59 38.18 48.18 37.79Q48.77 37.39 49.02 36.52Q49.27 35.64 49.27 34.20L49.27 34.20L49.27 26.76Q48.86 27.91 48.31 28.73Q47.76 29.54 47.15 30.04Q46.54 30.53 45.90 30.77Q45.26 31.01 44.69 31.01ZM59.47 30.96L59.47 30.96Q58.94 30.96 58.70 30.79Q58.46 30.62 58.34 30.34L58.34 30.34L54.58 19.44Q54.41 18.96 54.68 18.60Q54.96 18.24 55.63 18.24L55.63 18.24Q55.99 18.24 56.21 18.38Q56.42 18.53 56.52 18.86L56.52 18.86L59.50 27.98L62.66 18.86Q62.78 18.53 63.01 18.38Q63.24 18.24 63.62 18.24L63.62 18.24Q63.98 18.24 64.22 18.38Q64.46 18.53 64.56 18.86L64.56 18.86L67.80 27.98L70.75 18.86Q70.87 18.53 71.09 18.38Q71.30 18.24 71.66 18.24L71.66 18.24Q72.36 18.24 72.62 18.58Q72.89 18.91 72.70 19.44L72.70 19.44L68.88 30.34Q68.78 30.62 68.54 30.79Q68.30 30.96 67.78 30.96L67.78 30.96Q67.25 30.96 67.04 30.78Q66.84 30.60 66.74 30.34L66.74 30.34L63.62 21.53L60.58 30.34Q60.48 30.60 60.23 30.78Q59.98 30.96 59.47 30.96ZM76.54 30.96L76.54 30.96Q76.03 30.96 75.78 30.80Q75.53 30.65 75.53 30.34L75.53 30.34L75.53 18.86Q75.53 18.55 75.78 18.40Q76.03 18.24 76.54 18.24L76.54 18.24Q77.06 18.24 77.33 18.40Q77.59 18.55 77.59 18.86L77.59 18.86L77.59 22.30Q78.00 21.19 78.50 20.40Q79.01 19.61 79.56 19.12Q80.11 18.62 80.65 18.38Q81.19 18.14 81.70 18.14L81.70 18.14Q82.30 18.14 82.88 18.40Q83.47 18.65 83.76 19.01L83.76 19.01Q83.93 19.18 83.92 19.43Q83.90 19.68 83.69 20.02L83.69 20.02Q83.47 20.35 83.21 20.44Q82.94 20.52 82.66 20.38L82.66 20.38Q82.37 20.23 82.09 20.14Q81.82 20.04 81.46 20.04L81.46 20.04Q80.90 20.04 80.30 20.54Q79.70 21.05 79.18 21.98Q78.65 22.92 78.23 24.20Q77.81 25.49 77.59 27L77.59 27L77.59 30.34Q77.59 30.65 77.33 30.80Q77.06 30.96 76.54 30.96ZM88.70 31.01L88.70 31.01Q87.58 31.01 87.00 30.35Q86.42 29.69 86.42 28.42L86.42 28.42L86.42 18.86Q86.42 18.55 86.68 18.40Q86.93 18.24 87.43 18.24L87.43 18.24Q87.96 18.24 88.22 18.40Q88.49 18.55 88.49 18.86L88.49 18.86L88.49 28.10Q88.49 28.70 88.63 28.93Q88.78 29.16 89.09 29.16L89.09 29.16Q89.28 29.16 89.41 29.04Q89.54 28.92 89.70 28.69Q89.86 28.46 90.05 28.10L90.05 28.10Q90.17 27.91 90.40 27.90Q90.62 27.89 90.89 28.01L90.89 28.01Q91.18 28.15 91.30 28.37Q91.42 28.58 91.30 28.80L91.30 28.80Q91.03 29.50 90.64 29.98Q90.24 30.46 89.77 30.73Q89.30 31.01 88.70 31.01ZM87.36 14.54L87.36 14.54Q86.69 14.54 86.35 14.17Q86.02 13.80 86.02 13.06L86.02 13.06Q86.02 12.29 86.35 11.90Q86.69 11.52 87.36 11.52L87.36 11.52Q88.03 11.52 88.36 11.90Q88.68 12.29 88.68 13.06L88.68 13.06Q88.73 13.80 88.38 14.17Q88.03 14.54 87.36 14.54ZM96.94 31.01L96.94 31.01Q96.02 31.01 95.41 30.65Q94.80 30.29 94.49 29.57Q94.18 28.85 94.18 27.82L94.18 27.82L94.18 20.52L92.33 20.52Q91.97 20.52 91.81 20.30Q91.66 20.09 91.66 19.56L91.66 19.56Q91.66 19.01 91.81 18.80Q91.97 18.60 92.33 18.60L92.33 18.60L94.18 18.60L94.18 13.70Q94.18 13.39 94.43 13.24Q94.68 13.08 95.21 13.08L95.21 13.08Q95.74 13.08 96 13.24Q96.26 13.39 96.26 13.70L96.26 13.70L96.26 18.60L99.29 18.60Q99.65 18.60 99.80 18.80Q99.96 19.01 99.96 19.56L99.96 19.56Q99.96 20.09 99.80 20.30Q99.65 20.52 99.29 20.52L99.29 20.52L96.26 20.52L96.26 27.60Q96.26 28.44 96.49 28.80Q96.72 29.16 97.18 29.16L97.18 29.16Q97.68 29.16 98.10 28.82Q98.52 28.49 98.95 27.70L98.95 27.70Q99.10 27.48 99.31 27.44Q99.53 27.41 99.86 27.55L99.86 27.55Q100.22 27.72 100.33 27.97Q100.44 28.22 100.32 28.46L100.32 28.46Q99.98 29.35 99.47 29.92Q98.95 30.48 98.32 30.74Q97.68 31.01 96.94 31.01ZM107.30 31.06L107.30 31.06Q105.70 31.06 104.54 30.32Q103.39 29.59 102.78 28.27Q102.17 26.95 102.17 25.22L102.17 25.22Q102.17 23.76 102.60 22.48Q103.03 21.19 103.84 20.21Q104.64 19.22 105.78 18.68Q106.92 18.14 108.36 18.14L108.36 18.14Q109.39 18.14 110.23 18.48Q111.07 18.82 111.56 19.50Q112.06 20.18 112.06 21.24L112.06 21.24Q112.06 22.15 111.62 22.92Q111.19 23.69 110.44 24.29Q109.68 24.89 108.66 25.36Q107.64 25.82 106.45 26.14Q105.26 26.45 103.97 26.64L103.97 26.64L103.90 24.98Q104.71 24.84 105.56 24.62Q106.42 24.41 107.20 24.10Q107.98 23.78 108.59 23.40Q109.20 23.02 109.55 22.52Q109.90 22.03 109.90 21.46L109.90 21.46Q109.90 20.69 109.37 20.36Q108.84 20.04 108.07 20.04L108.07 20.04Q107.28 20.04 106.58 20.39Q105.89 20.74 105.37 21.38Q104.86 22.03 104.57 22.91Q104.28 23.78 104.28 24.84L104.28 24.84Q104.28 26.23 104.66 27.18Q105.05 28.13 105.77 28.63Q106.49 29.14 107.50 29.14L107.50 29.14Q108.34 29.14 108.90 28.86Q109.46 28.58 109.90 28.10Q110.33 27.62 110.78 27.10L110.78 27.10Q111.07 26.74 111.38 26.76Q111.70 26.78 112.01 27.05L112.01 27.05Q112.34 27.31 112.43 27.58Q112.51 27.84 112.32 28.15L112.32 28.15Q111.65 29.16 110.86 29.81Q110.06 30.46 109.18 30.76Q108.29 31.06 107.30 31.06ZM129.70 31.01L129.70 31.01Q128.02 31.01 126.67 30.34Q125.33 29.66 124.38 28.39Q123.43 27.12 122.93 25.28Q122.42 23.45 122.42 21.12L122.42 21.12Q122.42 19.34 122.74 17.77Q123.05 16.20 123.62 14.87Q124.20 13.54 125.04 12.49Q125.88 11.45 126.95 10.73Q128.02 10.01 129.29 9.62Q130.56 9.24 132 9.24L132 9.24Q133.39 9.24 134.57 9.55Q135.74 9.86 136.76 10.48Q137.78 11.09 138.70 11.98L138.70 11.98Q139.01 12.29 139.00 12.62Q138.98 12.96 138.48 13.34L138.48 13.34Q138.12 13.68 137.87 13.56Q137.62 13.44 137.21 13.15L137.21 13.15Q136.37 12.46 135.53 12.05Q134.69 11.64 133.82 11.46Q132.96 11.28 132 11.28L132 11.28Q130.87 11.28 129.88 11.59Q128.88 11.90 128.08 12.50Q127.27 13.10 126.62 13.97Q125.98 14.83 125.54 15.92Q125.11 17.02 124.87 18.32Q124.63 19.63 124.63 21.12L124.63 21.12Q124.63 22.99 124.98 24.46Q125.33 25.92 125.99 26.93Q126.65 27.94 127.60 28.45Q128.54 28.97 129.77 28.97L129.77 28.97Q131.18 28.97 132.37 28.25Q133.56 27.53 134.51 26.28Q135.46 25.03 136.16 23.39Q136.87 21.74 137.30 19.92L137.30 19.92Q137.30 19.58 137.57 19.42Q137.83 19.25 138.36 19.25L138.36 19.25Q139.42 19.25 139.42 19.92L139.42 19.92L139.42 30.14Q139.42 30.46 139.15 30.62Q138.89 30.79 138.36 30.79L138.36 30.79Q137.30 30.79 137.30 30.14L137.30 30.14L137.30 24.82Q136.68 26.23 135.88 27.38Q135.07 28.54 134.11 29.34Q133.15 30.14 132.04 30.58Q130.92 31.01 129.70 31.01ZM149.78 30.60L145.54 30.60Q144.48 30.60 144.48 29.93L144.48 29.93L144.48 10.25Q144.48 9.60 145.56 9.60L145.56 9.60L150.38 9.60Q152.35 9.60 153.79 9.98Q155.23 10.37 156.01 11.35Q156.79 12.34 156.79 14.14L156.79 14.14Q156.79 15.24 156.32 16.10Q155.86 16.97 155.11 17.62Q154.37 18.26 153.53 18.71Q152.69 19.15 151.92 19.42L151.92 19.42L151.92 19.49Q153.05 19.51 154.08 19.78Q155.11 20.04 155.93 20.57Q156.74 21.10 157.21 21.97Q157.68 22.85 157.68 24.10L157.68 24.10Q157.68 25.25 157.32 26.26Q156.96 27.26 156.28 28.06Q155.59 28.85 154.62 29.42Q153.65 30 152.44 30.30Q151.22 30.60 149.78 30.60L149.78 30.60ZM146.59 20.45L146.59 28.68L149.78 28.68Q151.34 28.68 152.44 28.30Q153.53 27.91 154.20 27.25Q154.87 26.59 155.20 25.79Q155.52 24.98 155.52 24.12L155.52 24.12Q155.52 23.14 155.17 22.44Q154.82 21.74 154.14 21.30Q153.46 20.86 152.45 20.65Q151.44 20.45 150.10 20.45L150.10 20.45L146.59 20.45ZM146.59 11.52L146.59 18.53L149.78 18.53Q150.82 18.53 151.69 18.20Q152.57 17.88 153.23 17.29Q153.89 16.70 154.26 15.90Q154.63 15.10 154.63 14.14L154.63 14.14Q154.63 13.01 154.08 12.46Q153.53 11.90 152.58 11.71Q151.63 11.52 150.38 11.52L150.38 11.52L146.59 11.52ZM174.22 31.06L174.22 31.06Q173.33 31.06 172.44 30.85Q171.55 30.65 170.70 30.26Q169.85 29.88 169.13 29.33Q168.41 28.78 167.88 28.08L167.88 28.08Q167.71 27.82 167.70 27.59Q167.69 27.36 168.05 27.05L168.05 27.05Q168.43 26.69 168.65 26.65Q168.86 26.62 169.32 27.02L169.32 27.02Q169.82 27.46 170.51 27.92Q171.19 28.39 172.12 28.70Q173.04 29.02 174.22 29.02L174.22 29.02Q175.34 29.02 176.18 28.79Q177.02 28.56 177.60 28.08Q178.18 27.60 178.46 26.87Q178.75 26.14 178.75 25.13L178.75 25.13Q178.75 24.29 178.45 23.69Q178.15 23.09 177.59 22.63Q177.02 22.18 176.24 21.80Q175.46 21.43 174.48 21.07L174.48 21.07Q173.64 20.76 172.78 20.35Q171.91 19.94 171.12 19.42Q170.33 18.89 169.72 18.17Q169.10 17.45 168.74 16.51Q168.38 15.58 168.38 14.38L168.38 14.38Q168.38 13.15 168.84 12.20Q169.30 11.26 170.14 10.60Q170.98 9.94 172.12 9.59Q173.26 9.24 174.62 9.24L174.62 9.24Q175.82 9.24 176.78 9.54Q177.74 9.84 178.56 10.39Q179.38 10.94 180.14 11.69L180.14 11.69Q180.38 11.93 180.35 12.18Q180.31 12.43 180.05 12.70L180.05 12.70Q179.76 13.01 179.47 13.14Q179.18 13.27 178.94 13.06L178.94 13.06Q178.34 12.50 177.74 12.10Q177.14 11.69 176.39 11.48Q175.63 11.28 174.62 11.28L174.62 11.28Q173.66 11.28 172.92 11.47Q172.18 11.66 171.66 12.05Q171.14 12.43 170.88 13.02Q170.62 13.61 170.62 14.38L170.62 14.38Q170.62 15.36 170.93 16.06Q171.24 16.75 171.83 17.26Q172.42 17.76 173.22 18.16Q174.02 18.55 174.98 18.89L174.98 18.89Q175.99 19.25 177.05 19.73Q178.10 20.21 178.99 20.92Q179.88 21.62 180.42 22.64Q180.96 23.66 180.96 25.13L180.96 25.13Q180.96 26.59 180.49 27.70Q180.02 28.80 179.14 29.54Q178.25 30.29 177.00 30.67Q175.75 31.06 174.22 31.06Z"/></svg>