<svg xmlns="http://www.w3.org/2000/svg" xmlns:xlink="http://www.w3.org/1999/xlink" width="165.40800000000002" height="28.8"><path fill="black" d="M9.62 22.80L1.80 22.80L1.80 21.02L4.66 21.02L4.66 7.82L1.80 7.82L1.80 6L9.62 6L9.62 7.82L6.77 7.82L6.77 20.98L9.62 20.98L9.62 22.80ZM15.65 22.80L13.63 22.80L13.63 10.80L15.65 10.80L15.65 13.06Q15.77 12.62 16.20 12.02Q16.63 11.42 17.47 10.97Q18.31 10.51 19.66 10.51L19.66 10.51Q21.41 10.51 22.55 11.64Q23.69 12.77 23.69 14.93L23.69 14.93L23.69 22.80L21.67 22.80L21.67 15.22Q21.67 13.66 20.93 13.00Q20.18 12.34 18.98 12.34L18.98 12.34Q17.33 12.34 16.49 13.46Q15.65 14.59 15.65 16.32L15.65 16.32L15.65 22.80ZM32.76 23.11L32.76 23.11Q31.25 23.11 29.94 22.36Q28.63 21.60 27.84 20.18Q27.05 18.77 27.05 16.85L27.05 16.85Q27.05 14.88 27.84 13.46Q28.63 12.05 29.94 11.28Q31.25 10.51 32.76 10.51L32.76 10.51Q34.34 10.51 35.62 11.34Q36.89 12.17 37.51 13.66L37.51 13.66L35.69 14.38Q35.30 13.46 34.55 12.90Q33.79 12.34 32.71 12.34L32.71 12.34Q31.49 12.34 30.68 12.92Q29.88 13.51 29.47 14.52Q29.06 15.53 29.06 16.78L29.06 16.78Q29.06 18.02 29.47 19.04Q29.88 20.06 30.68 20.68Q31.49 21.29 32.71 21.29L32.71 21.29Q33.79 21.29 34.55 20.72Q35.30 20.16 35.69 19.25L35.69 19.25L37.51 19.97Q36.89 21.46 35.60 22.28Q34.32 23.11 32.76 23.11ZM42.79 22.80L40.78 22.80L40.78 5.71L42.79 5.71L42.79 22.80ZM50.90 23.09L50.90 23.09Q49.15 23.09 48.01 21.96Q46.87 20.83 46.87 18.67L46.87 18.67L46.87 10.80L48.89 10.80L48.89 18.38Q48.89 19.94 49.63 20.60Q50.38 21.26 51.58 21.26L51.58 21.26Q53.23 21.26 54.07 20.14Q54.91 19.01 54.91 17.28L54.91 17.28L54.91 10.80L56.93 10.80L56.93 22.80L54.91 22.80L54.91 20.54Q54.82 20.95 54.37 21.56Q53.93 22.18 53.09 22.63Q52.25 23.09 50.90 23.09ZM65.04 23.09L65.04 23.09Q63.84 23.09 62.76 22.57Q61.68 22.06 61.01 21.14Q60.34 20.23 60.34 19.06L60.34 19.06L62.50 19.06Q62.50 19.80 62.93 20.29Q63.36 20.78 63.98 21.02Q64.61 21.26 65.21 21.26L65.21 21.26Q66.41 21.26 67.13 20.83Q67.85 20.40 67.85 19.51L67.85 19.51Q67.85 18.72 67.32 18.32Q66.79 17.93 65.98 17.72Q65.16 17.52 64.22 17.35Q63.29 17.18 62.47 16.87Q61.66 16.56 61.13 15.91Q60.60 15.26 60.60 14.11L60.60 14.11Q60.60 13.22 61.08 12.41Q61.56 11.59 62.53 11.05Q63.50 10.51 64.97 10.51L64.97 10.51Q66.72 10.51 67.74 11.08Q68.76 11.64 69.20 12.44Q69.65 13.25 69.65 13.99L69.65 13.99L67.58 13.99Q67.58 13.39 66.91 12.86Q66.24 12.34 64.94 12.34L64.94 12.34Q63.77 12.34 63.19 12.80Q62.62 13.27 62.62 14.04L62.62 14.04Q62.62 14.71 63.14 15.07Q63.67 15.43 64.50 15.64Q65.33 15.84 66.25 16.04Q67.18 16.25 68.00 16.62Q68.83 16.99 69.36 17.68Q69.89 18.36 69.89 19.51L69.89 19.51Q69.89 20.47 69.37 21.29Q68.86 22.10 67.79 22.60Q66.72 23.09 65.04 23.09ZM74.35 8.52L74.35 8.52Q73.78 8.52 73.36 8.10Q72.94 7.68 72.94 7.13L72.94 7.13Q72.94 6.55 73.36 6.13Q73.78 5.71 74.35 5.71L74.35 5.71Q74.90 5.71 75.31 6.13Q75.72 6.55 75.72 7.13L75.72 7.13Q75.72 7.68 75.31 8.10Q74.90 8.52 74.35 8.52ZM75.34 22.80L73.32 22.80L73.32 10.80L75.34 10.80L75.34 22.80ZM84.70 22.80L82.20 22.80L77.86 10.80L79.87 10.80L83.50 20.78L87.12 10.80L89.04 10.80L84.70 22.80ZM96.43 23.11L96.43 23.11Q94.92 23.11 93.62 22.36Q92.33 21.60 91.54 20.18Q90.74 18.77 90.74 16.85L90.74 16.85Q90.74 14.88 91.54 13.46Q92.33 12.05 93.62 11.28Q94.92 10.51 96.43 10.51L96.43 10.51Q97.97 10.51 99.20 11.15Q100.44 11.78 101.17 13.12Q101.90 14.45 101.90 16.54L101.90 16.54L101.90 17.28L92.74 17.28Q92.83 19.01 93.74 20.15Q94.66 21.29 96.38 21.29L96.38 21.29Q97.46 21.29 98.35 20.78Q99.24 20.28 99.74 19.37L99.74 19.37L101.52 20.09Q100.03 23.11 96.43 23.11ZM96.38 12.34L96.38 12.34Q94.92 12.34 94.04 13.24Q93.17 14.14 92.88 15.50L92.88 15.50L99.89 15.50Q99.89 14.83 99.49 14.10Q99.10 13.37 98.33 12.85Q97.56 12.34 96.38 12.34ZM117.12 23.09L117.12 23.09Q115.03 23.09 113.68 22.31Q112.32 21.53 111.61 20.28Q110.90 19.03 110.74 17.66L110.74 17.66L113.06 17.66Q113.33 19.20 114.38 20.16Q115.44 21.12 117.12 21.17L117.12 21.17Q118.18 21.17 119.05 20.82Q119.93 20.47 120.46 19.84Q120.98 19.20 120.96 18.34L120.96 18.34Q120.96 17.35 120.43 16.80Q119.90 16.25 119.05 15.94Q118.20 15.62 117.17 15.40Q116.14 15.17 115.10 14.88Q114.07 14.59 113.22 14.09Q112.37 13.58 111.84 12.71Q111.31 11.83 111.31 10.42L111.31 10.42Q111.31 9.19 111.92 8.11Q112.54 7.03 113.81 6.37Q115.08 5.71 117.05 5.71L117.05 5.71Q118.42 5.71 119.48 6.14Q120.55 6.58 121.31 7.28Q122.06 7.99 122.46 8.83Q122.86 9.67 122.90 10.49L122.90 10.49L120.67 10.49Q120.55 9.77 120.12 9.12Q119.69 8.47 118.88 8.05Q118.08 7.63 116.88 7.63L116.88 7.63Q115.99 7.63 115.20 7.94Q114.41 8.26 113.92 8.86Q113.42 9.46 113.42 10.30L113.42 10.30Q113.42 11.26 113.95 11.81Q114.48 12.36 115.33 12.67Q116.18 12.98 117.22 13.22Q118.25 13.46 119.28 13.75Q120.31 14.04 121.16 14.54Q122.02 15.05 122.54 15.90Q123.07 16.75 123.07 18.12L123.07 18.12Q123.07 19.75 122.30 20.87Q121.54 21.98 120.20 22.54Q118.87 23.09 117.12 23.09ZM131.04 23.09L131.04 23.09Q129.48 23.09 128.28 22.33Q127.08 21.58 126.41 20.17Q125.74 18.77 125.74 16.80L125.74 16.80Q125.74 14.76 126.43 13.37Q127.13 11.98 128.36 11.24Q129.60 10.51 131.16 10.51L131.16 10.51Q132.22 10.51 132.98 10.90Q133.75 11.28 134.27 11.88Q134.78 12.48 135.02 13.15L135.02 13.15L135.02 10.80L136.94 10.80L136.94 22.80L134.95 22.80L134.95 20.50Q134.71 21.31 134.10 21.90Q133.49 22.49 132.68 22.79Q131.88 23.09 131.04 23.09ZM131.33 21.26L131.33 21.26Q132.48 21.26 133.28 20.65Q134.09 20.04 134.51 19.03Q134.93 18.02 134.93 16.80L134.93 16.80Q134.93 14.81 133.98 13.56Q133.03 12.31 131.26 12.31L131.26 12.31Q130.08 12.31 129.30 12.90Q128.52 13.49 128.14 14.50Q127.75 15.50 127.75 16.75L127.75 16.75Q127.75 18 128.14 19.02Q128.52 20.04 129.32 20.65Q130.13 21.26 131.33 21.26ZM143.23 22.80L141.22 22.80L141.22 10.80L143.23 10.80L143.23 13.06Q143.35 12.62 143.78 12.02Q144.22 11.42 145.06 10.97Q145.90 10.51 147.24 10.51L147.24 10.51Q148.99 10.51 150.13 11.64Q151.27 12.77 151.27 14.93L151.27 14.93L151.27 22.80L149.26 22.80L149.26 15.22Q149.26 13.66 148.51 13.00Q147.77 12.34 146.57 12.34L146.57 12.34Q144.91 12.34 144.07 13.46Q143.23 14.59 143.23 16.32L143.23 16.32L143.23 22.80ZM159.24 23.09L159.24 23.09Q158.04 23.09 156.96 22.57Q155.88 22.06 155.21 21.14Q154.54 20.23 154.54 19.06L154.54 19.06L156.70 19.06Q156.70 19.80 157.13 20.29Q157.56 20.78 158.18 21.02Q158.81 21.26 159.41 21.26L159.41 21.26Q160.61 21.26 161.33 20.83Q162.05 20.40 162.05 19.51L162.05 19.51Q162.05 18.72 161.52 18.32Q160.99 17.93 160.18 17.72Q159.36 17.52 158.42 17.35Q157.49 17.18 156.67 16.87Q155.86 16.56 155.33 15.91Q154.80 15.26 154.80 14.11L154.80 14.11Q154.80 13.22 155.28 12.41Q155.76 11.59 156.73 11.05Q157.70 10.51 159.17 10.51L159.17 10.51Q160.92 10.51 161.94 11.08Q162.96 11.64 163.40 12.44Q163.85 13.25 163.85 13.99L163.85 13.99L161.78 13.99Q161.78 13.39 161.11 12.86Q160.44 12.34 159.14 12.34L159.14 12.34Q157.97 12.34 157.39 12.80Q156.82 13.27 156.82 14.04L156.82 14.04Q156.82 14.71 157.34 15.07Q157.87 15.43 158.70 15.64Q159.53 15.84 160.45 16.04Q161.38 16.25 162.20 16.62Q163.03 16.99 163.56 17.68Q164.09 18.36 164.09 19.51L164.09 19.51Q164.09 20.47 163.57 21.29Q163.06 22.10 161.99 22.60Q160.92 23.09 159.24 23.09Z"/></svg>