<svg xmlns="http://www.w3.org/2000/svg" xmlns:xlink="http://www.w3.org/1999/xlink" width="216.408" height="32.232"><path fill="black" d="M9.07 18.02L6.14 19.97L0.05 9.50L5.35 9.50L9.07 18.02ZM10.39 25.30L5.74 25.30L5.74 17.38L10.39 17.38L10.39 25.30ZM16.15 9.50L10.01 20.11L7.56 18.02L11.59 9.50L16.15 9.50ZM20.64 25.68L20.64 25.68Q19.99 25.68 19.26 25.60Q18.53 25.51 17.88 25.34Q17.23 25.18 16.78 24.94L16.78 24.94L17.62 22.15Q18.14 22.51 18.85 22.74Q19.56 22.97 20.16 22.97L20.16 22.97Q20.88 22.97 21.25 22.78Q21.62 22.58 21.62 22.27L21.62 22.27Q21.62 21.94 21.30 21.76Q20.98 21.58 20.45 21.43Q19.92 21.29 19.34 21.11Q18.77 20.93 18.25 20.59Q17.74 20.26 17.41 19.69Q17.09 19.13 17.09 18.22L17.09 18.22Q17.09 17.04 17.68 16.25Q18.26 15.46 19.32 15.06Q20.38 14.66 21.79 14.66L21.79 14.66Q22.63 14.66 23.59 14.81Q24.55 14.95 25.27 15.19L25.27 15.19L24.36 17.83Q23.93 17.50 23.24 17.32Q22.56 17.14 22.08 17.14L22.08 17.14Q21.38 17.14 21.07 17.34Q20.76 17.54 20.76 17.83L20.76 17.83Q20.76 18.17 21.11 18.34Q21.46 18.50 21.98 18.65Q22.51 18.79 23.12 18.97Q23.74 19.15 24.26 19.50Q24.79 19.85 25.14 20.42Q25.49 21 25.49 21.91L25.49 21.91Q25.49 22.61 25.25 23.27Q25.01 23.93 24.47 24.48Q23.93 25.03 22.99 25.36Q22.06 25.68 20.64 25.68ZM35.47 25.63L35.47 25.63Q34.03 25.63 33.46 24.71Q32.88 23.78 32.86 22.13L32.86 22.13L32.83 18.60Q32.86 18.24 32.80 17.89Q32.74 17.54 32.57 17.28Q32.40 17.02 31.99 17.02L31.99 17.02Q31.66 17.02 31.37 17.22Q31.08 17.42 30.89 17.81Q30.70 18.19 30.60 18.70L30.60 18.70L27.02 18.34Q27.19 17.42 27.74 16.75Q28.30 16.08 29.10 15.62Q29.90 15.17 30.84 14.93Q31.78 14.69 32.71 14.69L32.71 14.69Q34.78 14.69 35.71 15.56Q36.65 16.44 36.62 17.95L36.62 17.95L36.62 22.54Q36.62 22.82 36.74 23.00Q36.86 23.18 37.08 23.18L37.08 23.18Q37.27 23.18 37.45 23.14Q37.63 23.09 37.85 23.02L37.85 23.02L38.50 24.53Q37.99 24.98 37.21 25.31Q36.43 25.63 35.47 25.63ZM29.88 25.63L29.88 25.63Q28.44 25.63 27.61 24.90Q26.78 24.17 26.78 22.92L26.78 22.92Q26.78 21.98 27.22 21.41Q27.65 20.83 28.45 20.48Q29.26 20.14 30.31 19.85L30.31 19.85L34.27 18.79L34.37 20.40L31.58 21.41Q31.18 21.55 30.91 21.80Q30.65 22.06 30.65 22.42L30.65 22.42Q30.65 22.75 30.86 22.93Q31.08 23.11 31.49 23.11L31.49 23.11Q31.92 23.11 32.47 22.86Q33.02 22.61 33.62 22.25L33.62 22.25L34.03 23.47Q33.02 24.58 32.00 25.10Q30.98 25.63 29.88 25.63ZM44.21 25.66L44.21 25.66Q42.62 25.66 41.48 25.30Q40.34 24.94 39.72 24.41L39.72 24.41L43.90 22.49Q44.11 22.73 44.48 22.88Q44.86 23.04 45.29 23.04L45.29 23.04Q45.86 23.04 46.21 22.73Q46.56 22.42 46.73 21.80Q46.90 21.19 46.90 20.28L46.90 20.28Q46.90 19.18 46.67 18.59Q46.44 18 46.06 17.76Q45.67 17.52 45.26 17.52L45.26 17.52Q44.69 17.52 44.18 17.83Q43.68 18.14 43.20 18.77L43.20 18.77L41.86 17.38Q42.36 16.78 43.08 16.16Q43.80 15.55 44.77 15.13Q45.74 14.71 46.92 14.71L46.92 14.71Q47.62 14.71 48.37 14.98Q49.13 15.24 49.79 15.82Q50.45 16.39 50.87 17.29Q51.29 18.19 51.29 19.49L51.29 19.49Q51.29 21.17 50.59 22.57Q49.90 23.98 48.34 24.82Q46.78 25.66 44.21 25.66ZM43.90 22.49L39.72 24.41L39.72 8.59L43.90 7.90L43.90 22.49ZM58.01 25.68L58.01 25.68Q56.40 25.68 55.18 25.09Q53.95 24.50 53.28 23.35Q52.61 22.20 52.61 20.54L52.61 20.54Q52.61 18.79 53.36 17.47Q54.12 16.15 55.45 15.41Q56.78 14.66 58.51 14.66L58.51 14.66Q60.62 14.66 61.81 15.76Q63 16.85 63 18.67L63 18.67Q63 19.15 62.99 19.63Q62.98 20.11 62.90 20.64L62.90 20.64L59.64 20.64L59.64 19.06Q59.64 18.02 59.30 17.50Q58.97 16.97 58.30 16.97L58.30 16.97Q57.67 16.97 57.25 17.34Q56.83 17.71 56.63 18.35Q56.42 18.98 56.42 19.80L56.42 19.80Q56.42 21.24 57.12 21.98Q57.82 22.73 59.23 22.73L59.23 22.73Q59.93 22.73 60.60 22.50Q61.27 22.27 61.85 21.89L61.85 21.89L62.95 23.81Q62.18 24.55 61.28 24.96Q60.38 25.37 59.53 25.52Q58.68 25.68 58.01 25.68ZM62.78 20.64L54.53 20.64L55.01 18.67L62.78 18.67L62.78 20.64ZM73.13 25.63L73.13 25.63Q71.69 25.63 71.11 24.71Q70.54 23.78 70.51 22.13L70.51 22.13L70.49 18.60Q70.51 18.24 70.45 17.89Q70.39 17.54 70.22 17.28Q70.06 17.02 69.65 17.02L69.65 17.02Q69.31 17.02 69.02 17.22Q68.74 17.42 68.54 17.81Q68.35 18.19 68.26 18.70L68.26 18.70L64.68 18.34Q64.85 17.42 65.40 16.75Q65.95 16.08 66.76 15.62Q67.56 15.17 68.50 14.93Q69.43 14.69 70.37 14.69L70.37 14.69Q72.43 14.69 73.37 15.56Q74.30 16.44 74.28 17.95L74.28 17.95L74.28 22.54Q74.28 22.82 74.40 23.00Q74.52 23.18 74.74 23.18L74.74 23.18Q74.93 23.18 75.11 23.14Q75.29 23.09 75.50 23.02L75.50 23.02L76.15 24.53Q75.65 24.98 74.87 25.31Q74.09 25.63 73.13 25.63ZM67.54 25.63L67.54 25.63Q66.10 25.63 65.27 24.90Q64.44 24.17 64.44 22.92L64.44 22.92Q64.44 21.98 64.87 21.41Q65.30 20.83 66.11 20.48Q66.91 20.14 67.97 19.85L67.97 19.85L71.93 18.79L72.02 20.40L69.24 21.41Q68.83 21.55 68.57 21.80Q68.30 22.06 68.30 22.42L68.30 22.42Q68.30 22.75 68.52 22.93Q68.74 23.11 69.14 23.11L69.14 23.11Q69.58 23.11 70.13 22.86Q70.68 22.61 71.28 22.25L71.28 22.25L71.69 23.47Q70.68 24.58 69.66 25.10Q68.64 25.63 67.54 25.63ZM80.86 25.51L80.86 25.51Q79.27 25.51 78.24 24.54Q77.21 23.57 77.21 21.96L77.21 21.96L77.21 15.38L81.50 14.71L81.50 21.07Q81.50 21.82 81.80 22.30Q82.10 22.78 82.75 22.78L82.75 22.78Q83.04 22.78 83.34 22.68Q83.64 22.58 83.92 22.40Q84.19 22.22 84.38 21.98L84.38 21.98L85.32 23.42Q84.60 24.02 83.89 24.50Q83.18 24.98 82.45 25.25Q81.72 25.51 80.86 25.51ZM88.32 25.01L84.86 25.63L84.05 23.54L84.05 15.38L88.32 14.71L88.32 25.01ZM100.39 24.31L100.39 24.31Q98.90 24.31 97.93 23.72Q96.96 23.14 96.49 22.15Q96.02 21.17 96.02 19.99L96.02 19.99Q96.02 18.46 96.85 17.27Q97.68 16.08 99.07 15.40Q100.46 14.71 102.19 14.71L102.19 14.71Q103.78 14.71 104.96 15.37Q106.15 16.03 106.82 17.24Q107.50 18.46 107.50 20.16L107.50 20.16Q107.50 21.58 106.92 23.06Q106.34 24.55 105.18 25.93Q104.02 27.31 102.26 28.40Q100.51 29.50 98.16 30.14L98.16 30.14L97.20 27.82Q98.93 27.05 100.09 26.20Q101.26 25.34 101.95 24.43Q102.65 23.52 102.94 22.54Q103.22 21.55 103.25 20.57L103.25 20.57Q103.27 19.58 103.14 18.88Q103.01 18.17 102.66 17.78Q102.31 17.40 101.69 17.40L101.69 17.40Q101.09 17.40 100.79 17.70Q100.49 18 100.39 18.50Q100.30 19.01 100.30 19.66L100.30 19.66Q100.30 20.88 100.68 21.52Q101.06 22.15 101.95 22.15L101.95 22.15Q102.48 22.15 103.10 21.95Q103.73 21.74 104.26 21.34L104.26 21.34L104.98 22.27Q104.45 22.78 103.84 23.24Q103.22 23.71 102.40 24.01Q101.57 24.31 100.39 24.31ZM114.89 25.63L114.89 25.63Q113.16 25.63 111.80 24.91Q110.45 24.19 109.67 22.96Q108.89 21.72 108.89 20.16L108.89 20.16Q108.89 18.58 109.67 17.35Q110.45 16.13 111.80 15.42Q113.16 14.71 114.89 14.71L114.89 14.71Q116.64 14.71 117.98 15.41Q119.33 16.10 120.10 17.32Q120.86 18.53 120.86 20.11L120.86 20.11Q120.86 21.70 120.10 22.94Q119.33 24.19 117.98 24.91Q116.64 25.63 114.89 25.63ZM114.91 22.66L114.91 22.66Q115.51 22.66 115.93 22.37Q116.35 22.08 116.58 21.53Q116.81 20.98 116.81 20.18L116.81 20.18Q116.81 19.39 116.58 18.84Q116.35 18.29 115.93 17.99Q115.51 17.69 114.89 17.69L114.89 17.69Q114.29 17.69 113.84 17.98Q113.40 18.26 113.17 18.79Q112.94 19.32 112.94 20.09L112.94 20.09Q112.94 20.90 113.17 21.48Q113.40 22.06 113.84 22.36Q114.29 22.66 114.91 22.66ZM128.18 25.63L128.18 25.63Q126.46 25.63 125.10 24.91Q123.74 24.19 122.96 22.96Q122.18 21.72 122.18 20.16L122.18 20.16Q122.18 18.58 122.96 17.35Q123.74 16.13 125.10 15.42Q126.46 14.71 128.18 14.71L128.18 14.71Q129.94 14.71 131.28 15.41Q132.62 16.10 133.39 17.32Q134.16 18.53 134.16 20.11L134.16 20.11Q134.16 21.70 133.39 22.94Q132.62 24.19 131.28 24.91Q129.94 25.63 128.18 25.63ZM128.21 22.66L128.21 22.66Q128.81 22.66 129.23 22.37Q129.65 22.08 129.88 21.53Q130.10 20.98 130.10 20.18L130.10 20.18Q130.10 19.39 129.88 18.84Q129.65 18.29 129.23 17.99Q128.81 17.69 128.18 17.69L128.18 17.69Q127.58 17.69 127.14 17.98Q126.70 18.26 126.47 18.79Q126.24 19.32 126.24 20.09L126.24 20.09Q126.24 20.90 126.47 21.48Q126.70 22.06 127.14 22.36Q127.58 22.66 128.21 22.66ZM153 25.30L148.70 25.30L148.70 19.27Q148.70 18.53 148.40 18.05Q148.10 17.57 147.46 17.57L147.46 17.57Q147.17 17.57 146.86 17.66Q146.54 17.76 146.27 17.93Q145.99 18.10 145.80 18.36L145.80 18.36L144.86 16.92Q145.61 16.30 146.30 15.83Q147 15.36 147.76 15.10Q148.51 14.83 149.35 14.83L149.35 14.83Q150.41 14.83 151.22 15.28Q152.04 15.72 152.52 16.51Q153 17.30 153 18.38L153 18.38L153 25.30ZM146.11 25.30L141.84 25.30L141.84 15.31L145.30 14.74L146.11 16.80L146.11 25.30ZM160.51 25.68L160.51 25.68Q158.86 25.68 157.55 25.00Q156.24 24.31 155.52 23.11Q154.80 21.91 154.80 20.38L154.80 20.38Q154.80 18.70 155.62 17.41Q156.43 16.13 157.86 15.40Q159.29 14.66 161.06 14.66L161.06 14.66Q162.74 14.66 164.04 15.34Q165.34 16.01 166.07 17.18Q166.80 18.36 166.80 19.92L166.80 19.92Q166.80 21.55 165.98 22.85Q165.17 24.14 163.75 24.91Q162.34 25.68 160.51 25.68ZM160.92 22.99L160.92 22.99Q161.47 22.99 161.80 22.69Q162.12 22.39 162.24 21.78Q162.36 21.17 162.36 20.23L162.36 20.23Q162.36 19.18 162.19 18.56Q162.02 17.95 161.66 17.68Q161.30 17.40 160.78 17.40L160.78 17.40Q160.25 17.40 159.91 17.69Q159.58 17.98 159.44 18.58Q159.31 19.18 159.31 20.11L159.31 20.11Q159.31 21.17 159.49 21.79Q159.67 22.42 160.04 22.70Q160.42 22.99 160.92 22.99ZM172.85 25.30L168.58 25.30L168.58 15.31L172.03 14.74L172.85 16.80L172.85 25.30ZM171.89 19.44L171.89 19.44L171.36 18.50Q172.20 16.75 173.17 15.77Q174.14 14.78 175.56 14.78L175.56 14.78Q176.04 14.78 176.48 14.89Q176.93 15 177.29 15.22L177.29 15.22L176.02 18.77Q175.70 18.55 175.32 18.44Q174.94 18.34 174.50 18.34L174.50 18.34Q173.66 18.34 173.00 18.61Q172.34 18.89 171.89 19.44ZM196.01 25.30L191.74 25.30L191.74 19.18Q191.74 18.48 191.46 18.02Q191.18 17.57 190.58 17.57L190.58 17.57Q190.18 17.57 189.73 17.78Q189.29 18 188.98 18.36L188.98 18.36L188.11 16.92Q188.83 16.30 189.52 15.83Q190.20 15.36 190.93 15.10Q191.66 14.83 192.50 14.83L192.50 14.83Q194.02 14.83 195.01 15.80Q196.01 16.78 196.01 18.38L196.01 18.38L196.01 25.30ZM189.41 25.30L185.14 25.30L185.14 19.18Q185.14 18.48 184.86 18.02Q184.58 17.57 183.98 17.57L183.98 17.57Q183.72 17.57 183.42 17.66Q183.12 17.76 182.84 17.93Q182.57 18.10 182.33 18.36L182.33 18.36L181.46 16.92Q182.18 16.30 182.88 15.83Q183.58 15.36 184.31 15.10Q185.04 14.83 185.90 14.83L185.90 14.83Q187.39 14.83 188.40 15.80Q189.41 16.78 189.41 18.38L189.41 18.38L189.41 25.30ZM182.71 25.30L178.44 25.30L178.44 15.31L181.90 14.74L182.71 16.80L182.71 25.30ZM206.52 25.63L206.52 25.63Q205.08 25.63 204.50 24.71Q203.93 23.78 203.90 22.13L203.90 22.13L203.88 18.60Q203.90 18.24 203.84 17.89Q203.78 17.54 203.62 17.28Q203.45 17.02 203.04 17.02L203.04 17.02Q202.70 17.02 202.42 17.22Q202.13 17.42 201.94 17.81Q201.74 18.19 201.65 18.70L201.65 18.70L198.07 18.34Q198.24 17.42 198.79 16.75Q199.34 16.08 200.15 15.62Q200.95 15.17 201.89 14.93Q202.82 14.69 203.76 14.69L203.76 14.69Q205.82 14.69 206.76 15.56Q207.70 16.44 207.67 17.95L207.67 17.95L207.67 22.54Q207.67 22.82 207.79 23.00Q207.91 23.18 208.13 23.18L208.13 23.18Q208.32 23.18 208.50 23.14Q208.68 23.09 208.90 23.02L208.90 23.02L209.54 24.53Q209.04 24.98 208.26 25.31Q207.48 25.63 206.52 25.63ZM200.93 25.63L200.93 25.63Q199.49 25.63 198.66 24.90Q197.83 24.17 197.83 22.92L197.83 22.92Q197.83 21.98 198.26 21.41Q198.70 20.83 199.50 20.48Q200.30 20.14 201.36 19.85L201.36 19.85L205.32 18.79L205.42 20.40L202.63 21.41Q202.22 21.55 201.96 21.80Q201.70 22.06 201.70 22.42L201.70 22.42Q201.70 22.75 201.91 22.93Q202.13 23.11 202.54 23.11L202.54 23.11Q202.97 23.11 203.52 22.86Q204.07 22.61 204.67 22.25L204.67 22.25L205.08 23.47Q204.07 24.58 203.05 25.10Q202.03 25.63 200.93 25.63ZM215.02 25.30L210.86 25.30L210.86 8.62L215.02 7.90L215.02 25.30Z"/></svg>