<svg xmlns="http://www.w3.org/2000/svg" xmlns:xlink="http://www.w3.org/1999/xlink" width="196.41599999999997" height="35.64"><path fill="black" d="M1.25 28.25L1.39 27.17L3.36 26.86L3.94 12.91L1.87 12.50L2.02 11.42L8.66 11.42L8.52 12.50L6 12.91L5.42 26.88L9.02 26.88Q9.65 26.88 10.12 26.74Q10.58 26.59 10.92 26.16Q11.26 25.73 11.52 24.84L11.52 24.84L11.90 23.62L13.20 23.62L12.58 28.25L1.25 28.25ZM16.25 26.40L16.87 18.24Q16.92 17.69 16.80 17.47Q16.68 17.26 16.27 17.26L16.27 17.26Q15.96 17.26 15.61 17.34Q15.26 17.42 14.76 17.64L14.76 17.64L14.38 16.58Q14.83 16.32 15.60 16.03Q16.37 15.74 17.16 15.74L17.16 15.74Q17.81 15.74 18.23 16.03Q18.65 16.32 18.82 16.91Q18.98 17.50 18.91 18.43L18.91 18.43L18.36 26.11Q18.34 26.64 18.43 26.89Q18.53 27.14 18.91 27.14L18.91 27.14Q19.18 27.14 19.55 26.94Q19.92 26.74 20.40 26.33L20.40 26.33L21 27.22Q20.76 27.46 20.33 27.78Q19.90 28.10 19.32 28.34Q18.74 28.58 18.05 28.58L18.05 28.58Q17.30 28.58 16.90 28.28Q16.49 27.98 16.34 27.48Q16.20 26.98 16.25 26.40L16.25 26.40ZM16.22 11.78L16.22 11.78Q16.22 11.09 16.66 10.63Q17.09 10.18 17.78 10.18L17.78 10.18Q18.24 10.18 18.59 10.38Q18.94 10.58 19.13 10.93Q19.32 11.28 19.32 11.76L19.32 11.76Q19.32 12.46 18.90 12.91Q18.48 13.37 17.78 13.37L17.78 13.37Q17.09 13.37 16.66 12.92Q16.22 12.48 16.22 11.78ZM22.03 17.47L22.22 16.22L24.05 16.03L25.03 12.10L26.35 12.10L26.11 16.08L29.86 16.08L29.76 17.47L26.04 17.47L25.68 24.98Q25.63 25.99 26.02 26.51Q26.40 27.02 27.24 27.02L27.24 27.02Q27.94 27.02 28.52 26.65Q29.11 26.28 29.66 25.75L29.66 25.75L30.43 26.57Q30.02 27.12 29.45 27.59Q28.87 28.06 28.20 28.32Q27.53 28.58 26.74 28.58L26.74 28.58Q24.98 28.58 24.26 27.62Q23.54 26.66 23.62 25.06L23.62 25.06L23.95 17.47L22.03 17.47ZM37.70 15.74L37.70 15.74Q39.50 15.74 40.34 16.57Q41.18 17.40 41.18 18.77L41.18 18.77Q41.18 19.78 40.79 20.47Q40.39 21.17 39.73 21.61Q39.07 22.06 38.30 22.33Q37.54 22.61 36.79 22.80L36.79 22.80L34.13 23.45Q34.20 24.26 34.54 25.09Q34.87 25.92 35.53 26.47Q36.19 27.02 37.18 27.02L37.18 27.02Q37.70 27.02 38.20 26.87Q38.69 26.71 39.20 26.36Q39.72 26.02 40.32 25.46L40.32 25.46L41.11 26.33Q40.90 26.59 40.52 26.96Q40.15 27.34 39.59 27.71Q39.02 28.08 38.30 28.33Q37.58 28.58 36.70 28.58L36.70 28.58Q35.16 28.58 34.09 27.84Q33.02 27.10 32.48 25.79Q31.94 24.48 31.94 22.85L31.94 22.85Q31.94 20.78 32.66 19.18Q33.38 17.57 34.68 16.66Q35.98 15.74 37.70 15.74ZM39.05 18.84L39.05 18.84Q39.05 18.36 38.90 17.96Q38.76 17.57 38.42 17.32Q38.09 17.06 37.54 17.06L37.54 17.06Q36.55 17.06 35.81 17.66Q35.06 18.26 34.64 19.38Q34.22 20.50 34.13 22.10L34.13 22.10L36.55 21.48Q37.39 21.26 37.94 20.95Q38.50 20.64 38.77 20.14Q39.05 19.63 39.05 18.84ZM44.40 28.25L44.88 18.24Q44.90 17.74 44.76 17.51Q44.62 17.28 44.23 17.28L44.23 17.28Q43.99 17.28 43.66 17.39Q43.32 17.50 42.82 17.71L42.82 17.71L42.41 16.54Q42.67 16.39 43.14 16.20Q43.61 16.01 44.15 15.88Q44.69 15.74 45.17 15.74L45.17 15.74Q46.20 15.74 46.58 16.37Q46.97 16.99 46.85 18.19L46.85 18.19L46.51 21.65L46.66 21.67L47.98 18.58Q48.41 17.50 48.82 16.87Q49.22 16.25 49.68 16.00Q50.14 15.74 50.76 15.74L50.76 15.74Q51.38 15.74 51.79 15.97Q52.20 16.20 52.40 16.57Q52.61 16.94 52.61 17.38L52.61 17.38Q52.61 17.88 52.32 18.32Q52.03 18.77 51.48 19.01L51.48 19.01L50.93 18.38Q50.66 18.05 50.50 17.95Q50.33 17.86 50.11 17.86L50.11 17.86Q49.94 17.86 49.80 17.93Q49.66 18 49.50 18.22Q49.34 18.43 49.14 18.84Q48.94 19.25 48.62 19.94L48.62 19.94Q47.83 21.67 47.40 22.70Q46.97 23.74 46.76 24.34Q46.56 24.94 46.49 25.34Q46.42 25.75 46.37 26.28L46.37 26.28L46.18 28.25L44.40 28.25ZM64.90 15.98L64.58 26.11Q64.56 26.71 64.69 26.93Q64.82 27.14 65.18 27.14L65.18 27.14Q65.42 27.14 65.74 26.99Q66.05 26.83 66.38 26.54L66.38 26.54L66.96 27.43Q66.70 27.67 66.26 27.95Q65.83 28.22 65.34 28.40Q64.85 28.58 64.34 28.58L64.34 28.58Q63.74 28.58 63.35 28.32Q62.95 28.06 62.80 27.52Q62.64 26.98 62.71 26.18L62.71 26.18L63.12 21.65L62.95 21.62L62.42 23.62Q62.11 24.82 61.74 25.74Q61.37 26.66 60.89 27.30Q60.41 27.94 59.77 28.26Q59.14 28.58 58.27 28.58L58.27 28.58Q57 28.58 56.17 27.91Q55.34 27.24 54.95 26.08Q54.55 24.91 54.55 23.42L54.55 23.42Q54.55 21.72 54.96 20.32Q55.37 18.91 56.11 17.88Q56.86 16.85 57.86 16.30Q58.87 15.74 60.07 15.74L60.07 15.74Q60.91 15.74 61.64 15.94Q62.38 16.13 62.81 16.34L62.81 16.34L64.49 15.79L64.90 15.98ZM58.58 26.95L58.58 26.95Q59.16 26.95 59.58 26.71Q60 26.47 60.36 25.80Q60.72 25.13 61.13 23.90Q61.54 22.68 62.09 20.66L62.09 20.66L62.88 17.76Q62.42 17.52 61.68 17.35Q60.94 17.18 60.29 17.18L60.29 17.18Q59.50 17.18 58.85 17.63Q58.20 18.07 57.72 18.89Q57.24 19.70 56.99 20.83Q56.74 21.96 56.74 23.33L56.74 23.33Q56.74 24.58 56.93 25.38Q57.12 26.18 57.53 26.57Q57.94 26.95 58.58 26.95ZM67.97 17.47L68.16 16.22L69.98 16.03L70.97 12.10L72.29 12.10L72.05 16.08L75.79 16.08L75.70 17.47L71.98 17.47L71.62 24.98Q71.57 25.99 71.95 26.51Q72.34 27.02 73.18 27.02L73.18 27.02Q73.87 27.02 74.46 26.65Q75.05 26.28 75.60 25.75L75.60 25.75L76.37 26.57Q75.96 27.12 75.38 27.59Q74.81 28.06 74.14 28.32Q73.46 28.58 72.67 28.58L72.67 28.58Q70.92 28.58 70.20 27.62Q69.48 26.66 69.55 25.06L69.55 25.06L69.89 17.47L67.97 17.47ZM88.25 15.98L87.94 26.11Q87.91 26.71 88.04 26.93Q88.18 27.14 88.54 27.14L88.54 27.14Q88.78 27.14 89.09 26.99Q89.40 26.83 89.74 26.54L89.74 26.54L90.31 27.43Q90.05 27.67 89.62 27.95Q89.18 28.22 88.69 28.40Q88.20 28.58 87.70 28.58L87.70 28.58Q87.10 28.58 86.70 28.32Q86.30 28.06 86.15 27.52Q85.99 26.98 86.06 26.18L86.06 26.18L86.47 21.65L86.30 21.62L85.78 23.62Q85.46 24.82 85.09 25.74Q84.72 26.66 84.24 27.30Q83.76 27.94 83.12 28.26Q82.49 28.58 81.62 28.58L81.62 28.58Q80.35 28.58 79.52 27.91Q78.70 27.24 78.30 26.08Q77.90 24.91 77.90 23.42L77.90 23.42Q77.90 21.72 78.31 20.32Q78.72 18.91 79.46 17.88Q80.21 16.85 81.22 16.30Q82.22 15.74 83.42 15.74L83.42 15.74Q84.26 15.74 85.00 15.94Q85.73 16.13 86.16 16.34L86.16 16.34L87.84 15.79L88.25 15.98ZM81.94 26.95L81.94 26.95Q82.51 26.95 82.93 26.71Q83.35 26.47 83.71 25.80Q84.07 25.13 84.48 23.90Q84.89 22.68 85.44 20.66L85.44 20.66L86.23 17.76Q85.78 17.52 85.03 17.35Q84.29 17.18 83.64 17.18L83.64 17.18Q82.85 17.18 82.20 17.63Q81.55 18.07 81.07 18.89Q80.59 19.70 80.34 20.83Q80.09 21.96 80.09 23.33L80.09 23.33Q80.09 24.58 80.28 25.38Q80.47 26.18 80.88 26.57Q81.29 26.95 81.94 26.95ZM105.84 11.40L105.31 22.51L107.93 22.51L107.78 24.10L105.24 24.10L105.14 26.78L107.28 27.12L107.14 28.25L99.70 28.25L99.84 27.22L103.06 26.78L103.18 24.10L95.64 24.10L95.47 22.94L103.51 11.54L105.58 11.18L105.84 11.40ZM97.49 22.51L103.25 22.51L103.75 13.63L97.49 22.51ZM109.51 20.95L109.51 20.95Q109.51 17.95 110.33 15.73Q111.14 13.51 112.63 12.30Q114.12 11.09 116.14 11.09L116.14 11.09Q117.82 11.09 119.00 12Q120.19 12.91 120.84 14.59Q121.49 16.27 121.49 18.62L121.49 18.62Q121.49 20.83 121.02 22.66Q120.55 24.48 119.69 25.80Q118.82 27.12 117.64 27.84Q116.45 28.56 114.98 28.56L114.98 28.56Q113.69 28.56 112.67 28.04Q111.65 27.53 110.95 26.54Q110.26 25.56 109.88 24.16Q109.51 22.75 109.51 20.95ZM115.80 12.31L115.80 12.31Q114.55 12.31 113.65 13.31Q112.75 14.30 112.28 16.18Q111.82 18.05 111.82 20.76L111.82 20.76Q111.82 22.32 112.04 23.54Q112.27 24.77 112.72 25.58Q113.16 26.40 113.81 26.83Q114.46 27.26 115.30 27.26L115.30 27.26Q116.52 27.26 117.38 26.24Q118.25 25.22 118.70 23.28Q119.16 21.34 119.16 18.60L119.16 18.60Q119.16 16.51 118.79 15.11Q118.42 13.70 117.67 13.01Q116.93 12.31 115.80 12.31ZM123.24 20.95L123.24 20.95Q123.24 17.95 124.06 15.73Q124.87 13.51 126.36 12.30Q127.85 11.09 129.86 11.09L129.86 11.09Q131.54 11.09 132.73 12Q133.92 12.91 134.57 14.59Q135.22 16.27 135.22 18.62L135.22 18.62Q135.22 20.83 134.75 22.66Q134.28 24.48 133.42 25.80Q132.55 27.12 131.36 27.84Q130.18 28.56 128.71 28.56L128.71 28.56Q127.42 28.56 126.40 28.04Q125.38 27.53 124.68 26.54Q123.98 25.56 123.61 24.16Q123.24 22.75 123.24 20.95ZM129.53 12.31L129.53 12.31Q128.28 12.31 127.38 13.31Q126.48 14.30 126.01 16.18Q125.54 18.05 125.54 20.76L125.54 20.76Q125.54 22.32 125.77 23.54Q126.00 24.77 126.44 25.58Q126.89 26.40 127.54 26.83Q128.18 27.26 129.02 27.26L129.02 27.26Q130.25 27.26 131.11 26.24Q131.98 25.22 132.43 23.28Q132.89 21.34 132.89 18.60L132.89 18.60Q132.89 16.51 132.52 15.11Q132.14 13.70 131.40 13.01Q130.66 12.31 129.53 12.31ZM142.56 26.40L143.18 18.24Q143.23 17.69 143.11 17.47Q142.99 17.26 142.58 17.26L142.58 17.26Q142.27 17.26 141.92 17.34Q141.58 17.42 141.07 17.64L141.07 17.64L140.69 16.58Q141.14 16.32 141.91 16.03Q142.68 15.74 143.47 15.74L143.47 15.74Q144.12 15.74 144.54 16.03Q144.96 16.32 145.13 16.91Q145.30 17.50 145.22 18.43L145.22 18.43L144.67 26.11Q144.65 26.64 144.74 26.89Q144.84 27.14 145.22 27.14L145.22 27.14Q145.49 27.14 145.86 26.94Q146.23 26.74 146.71 26.33L146.71 26.33L147.31 27.22Q147.07 27.46 146.64 27.78Q146.21 28.10 145.63 28.34Q145.06 28.58 144.36 28.58L144.36 28.58Q143.62 28.58 143.21 28.28Q142.80 27.98 142.66 27.48Q142.51 26.98 142.56 26.40L142.56 26.40ZM142.54 11.78L142.54 11.78Q142.54 11.09 142.97 10.63Q143.40 10.18 144.10 10.18L144.10 10.18Q144.55 10.18 144.90 10.38Q145.25 10.58 145.44 10.93Q145.63 11.28 145.63 11.76L145.63 11.76Q145.63 12.46 145.21 12.91Q144.79 13.37 144.10 13.37L144.10 13.37Q143.40 13.37 142.97 12.92Q142.54 12.48 142.54 11.78ZM148.34 17.47L148.54 16.22L150.36 16.03L151.34 12.10L152.66 12.10L152.42 16.08L156.17 16.08L156.07 17.47L152.35 17.47L151.99 24.98Q151.94 25.99 152.33 26.51Q152.71 27.02 153.55 27.02L153.55 27.02Q154.25 27.02 154.84 26.65Q155.42 26.28 155.98 25.75L155.98 25.75L156.74 26.57Q156.34 27.12 155.76 27.59Q155.18 28.06 154.51 28.32Q153.84 28.58 153.05 28.58L153.05 28.58Q151.30 28.58 150.58 27.62Q149.86 26.66 149.93 25.06L149.93 25.06L150.26 17.47L148.34 17.47ZM168.62 15.98L168.31 26.11Q168.29 26.71 168.42 26.93Q168.55 27.14 168.91 27.14L168.91 27.14Q169.15 27.14 169.46 26.99Q169.78 26.83 170.11 26.54L170.11 26.54L170.69 27.43Q170.42 27.67 169.99 27.95Q169.56 28.22 169.07 28.40Q168.58 28.58 168.07 28.58L168.07 28.58Q167.47 28.58 167.08 28.32Q166.68 28.06 166.52 27.52Q166.37 26.98 166.44 26.18L166.44 26.18L166.85 21.65L166.68 21.62L166.15 23.62Q165.84 24.82 165.47 25.74Q165.10 26.66 164.62 27.30Q164.14 27.94 163.50 28.26Q162.86 28.58 162 28.58L162 28.58Q160.73 28.58 159.90 27.91Q159.07 27.24 158.68 26.08Q158.28 24.91 158.28 23.42L158.28 23.42Q158.28 21.72 158.69 20.32Q159.10 18.91 159.84 17.88Q160.58 16.85 161.59 16.30Q162.60 15.74 163.80 15.74L163.80 15.74Q164.64 15.74 165.37 15.94Q166.10 16.13 166.54 16.34L166.54 16.34L168.22 15.79L168.62 15.98ZM162.31 26.95L162.31 26.95Q162.89 26.95 163.31 26.71Q163.73 26.47 164.09 25.80Q164.45 25.13 164.86 23.90Q165.26 22.68 165.82 20.66L165.82 20.66L166.61 17.76Q166.15 17.52 165.41 17.35Q164.66 17.18 164.02 17.18L164.02 17.18Q163.22 17.18 162.58 17.63Q161.93 18.07 161.45 18.89Q160.97 19.70 160.72 20.83Q160.46 21.96 160.46 23.33L160.46 23.33Q160.46 24.58 160.66 25.38Q160.85 26.18 161.26 26.57Q161.66 26.95 162.31 26.95ZM172.82 26.40L173.47 11.47L171.24 10.97L171.38 9.84L175.10 9.84L175.49 10.10L174.94 26.11Q174.91 26.64 175.02 26.88Q175.13 27.12 175.54 27.12L175.54 27.12Q175.80 27.12 176.16 26.92Q176.52 26.71 176.98 26.33L176.98 26.33L177.58 27.22Q177.34 27.46 176.92 27.78Q176.50 28.10 175.93 28.34Q175.37 28.58 174.67 28.58L174.67 28.58Q173.90 28.58 173.50 28.31Q173.09 28.03 172.94 27.54Q172.80 27.05 172.82 26.40L172.82 26.40ZM179.83 26.40L180.46 18.24Q180.50 17.69 180.38 17.47Q180.26 17.26 179.86 17.26L179.86 17.26Q179.54 17.26 179.20 17.34Q178.85 17.42 178.34 17.64L178.34 17.64L177.96 16.58Q178.42 16.32 179.18 16.03Q179.95 15.74 180.74 15.74L180.74 15.74Q181.39 15.74 181.81 16.03Q182.23 16.32 182.40 16.91Q182.57 17.50 182.50 18.43L182.50 18.43L181.94 26.11Q181.92 26.64 182.02 26.89Q182.11 27.14 182.50 27.14L182.50 27.14Q182.76 27.14 183.13 26.94Q183.50 26.74 183.98 26.33L183.98 26.33L184.58 27.22Q184.34 27.46 183.91 27.78Q183.48 28.10 182.90 28.34Q182.33 28.58 181.63 28.58L181.63 28.58Q180.89 28.58 180.48 28.28Q180.07 27.98 179.93 27.48Q179.78 26.98 179.83 26.40L179.83 26.40ZM179.81 11.78L179.81 11.78Q179.81 11.09 180.24 10.63Q180.67 10.18 181.37 10.18L181.37 10.18Q181.82 10.18 182.17 10.38Q182.52 10.58 182.71 10.93Q182.90 11.28 182.90 11.76L182.90 11.76Q182.90 12.46 182.48 12.91Q182.06 13.37 181.37 13.37L181.37 13.37Q180.67 13.37 180.24 12.92Q179.81 12.48 179.81 11.78ZM191.74 15.74L191.74 15.74Q192.79 15.74 193.61 16.12Q194.42 16.49 194.90 17.16Q195.38 17.83 195.38 18.79L195.38 18.79Q195.38 19.46 195.00 19.90Q194.62 20.33 193.92 20.33L193.92 20.33Q193.42 20.33 193.02 20.04Q192.62 19.75 192.43 19.32L192.43 19.32L192.94 18.74Q193.42 18.22 193.32 17.83Q193.22 17.45 192.77 17.26Q192.31 17.06 191.69 17.06L191.69 17.06Q190.87 17.06 190.20 17.41Q189.53 17.76 189.05 18.47Q188.57 19.18 188.32 20.26Q188.06 21.34 188.06 22.78L188.06 22.78Q188.06 23.95 188.39 24.91Q188.71 25.87 189.37 26.45Q190.03 27.02 191.02 27.02L191.02 27.02Q191.57 27.02 192.12 26.82Q192.67 26.62 193.24 26.20Q193.80 25.78 194.35 25.18L194.35 25.18L195.17 26.02Q194.95 26.30 194.56 26.74Q194.16 27.17 193.57 27.59Q192.98 28.01 192.24 28.30Q191.50 28.58 190.58 28.58L190.58 28.58Q189.07 28.58 188.02 27.84Q186.96 27.10 186.42 25.79Q185.88 24.48 185.88 22.85L185.88 22.85Q185.88 21.29 186.29 19.99Q186.70 18.70 187.48 17.75Q188.26 16.80 189.34 16.27Q190.42 15.74 191.74 15.74Z"/></svg>