<svg xmlns="http://www.w3.org/2000/svg" xmlns:xlink="http://www.w3.org/1999/xlink" width="230.61599999999999" height="30.240000000000002"><path fill="black" d="M24.29 7.03L19.03 24.19L16.80 24.19L12.53 9.19L12.72 9.19L8.45 24.19L6.22 24.19L0.96 7.03L2.95 7.03L7.75 23.23L6.96 23.23L11.59 7.03L13.68 7.03L18.31 23.23L17.59 23.23L22.39 7.03L24.29 7.03ZM28.70 12.38L28.70 24.19L26.93 24.19L26.93 12.38L28.70 12.38ZM27.82 9.22L27.82 9.22Q27.29 9.22 26.90 8.84Q26.52 8.47 26.52 7.94L26.52 7.94Q26.52 7.39 26.90 7.02Q27.29 6.65 27.82 6.65L27.82 6.65Q28.37 6.65 28.74 7.02Q29.11 7.39 29.11 7.94L29.11 7.94Q29.11 8.47 28.74 8.84Q28.37 9.22 27.82 9.22ZM36.48 19.18L32.76 24.19L30.67 24.19L35.33 18.07L31.10 12.38L33.17 12.38L36.48 17.04L39.79 12.38L41.83 12.38L37.63 18.07L42.29 24.19L40.18 24.19L36.48 19.18ZM65.64 8.30L58.73 22.75L57.34 22.75L50.42 8.30L51.05 8.30L51.05 24.19L49.25 24.19L49.25 7.03L51.67 7.03L58.63 21.62L57.48 21.62L64.44 7.03L66.82 7.03L66.82 24.19L65.02 24.19L65.02 8.30L65.64 8.30ZM80.54 16.73L80.54 24.19L78.84 24.19L78.84 21.89L78.82 21.22L78.82 16.80Q78.82 15.31 77.86 14.42Q76.90 13.54 75.26 13.54L75.26 13.54Q74.09 13.54 73.14 14.04Q72.19 14.54 71.47 15.41L71.47 15.41L70.22 14.21Q71.21 13.15 72.44 12.58Q73.68 12 75.26 12L75.26 12Q76.85 12 78.04 12.59Q79.22 13.18 79.88 14.23Q80.54 15.29 80.54 16.73L80.54 16.73ZM74.33 24.58L74.33 24.58Q72.98 24.58 71.96 24.08Q70.94 23.59 70.38 22.75Q69.82 21.91 69.82 20.83L69.82 20.83Q69.82 19.58 70.51 18.71Q71.21 17.83 72.42 17.38Q73.63 16.92 75.17 16.92L75.17 16.92L79.06 16.92L79.06 18.36L75.41 18.36Q73.80 18.36 72.73 18.95Q71.66 19.54 71.66 20.78L71.66 20.78Q71.66 21.84 72.46 22.46Q73.25 23.09 74.54 23.09L74.54 23.09Q75.79 23.09 76.80 22.60Q77.81 22.10 78.42 21.22Q79.03 20.33 79.10 19.18L79.10 19.18L79.82 19.58Q79.82 21.02 79.12 22.15Q78.41 23.28 77.16 23.93Q75.91 24.58 74.33 24.58ZM95.57 6.91L95.57 24.19L93.82 24.19L93.82 20.98L93.79 20.95L93.79 18.65Q93.79 17.14 93.24 16.00Q92.69 14.86 91.69 14.21Q90.70 13.56 89.40 13.56L89.40 13.56Q88.13 13.56 87.14 14.17Q86.16 14.78 85.61 15.85Q85.06 16.92 85.06 18.29L85.06 18.29Q85.06 19.66 85.62 20.72Q86.18 21.79 87.18 22.40Q88.18 23.02 89.47 23.02L89.47 23.02Q90.70 23.02 91.69 22.51Q92.69 22.01 93.31 21.11Q93.94 20.21 94.03 19.08L94.03 19.08L94.37 19.56Q94.56 20.98 93.94 22.12Q93.31 23.26 92.10 23.92Q90.89 24.58 89.28 24.58L89.28 24.58Q87.50 24.58 86.12 23.76Q84.74 22.94 83.96 21.53Q83.18 20.11 83.18 18.29L83.18 18.29Q83.18 16.49 83.96 15.07Q84.74 13.66 86.10 12.83Q87.46 12 89.18 12L89.18 12Q90.48 12 91.55 12.49Q92.62 12.98 93.34 13.87Q94.06 14.76 94.25 15.96L94.25 15.96L93.79 15.96L93.79 6.91L95.57 6.91ZM108.91 20.83L108.91 20.83L110.16 22.01Q109.22 23.21 107.90 23.89Q106.58 24.58 104.88 24.58L104.88 24.58Q103.01 24.58 101.53 23.76Q100.06 22.94 99.22 21.53Q98.38 20.11 98.38 18.29L98.38 18.29Q98.38 16.46 99.18 15.05Q99.98 13.63 101.40 12.82Q102.82 12 104.62 12L104.62 12Q106.34 12 107.68 12.80Q109.01 13.61 109.78 15Q110.54 16.39 110.54 18.22L110.54 18.22L110.54 18.36L108.72 18.36L108.72 18.22Q108.72 16.82 108.18 15.78Q107.64 14.74 106.72 14.15Q105.79 13.56 104.62 13.56L104.62 13.56Q103.32 13.56 102.34 14.16Q101.35 14.76 100.80 15.82Q100.25 16.87 100.25 18.26L100.25 18.26Q100.25 19.66 100.85 20.74Q101.45 21.82 102.49 22.42Q103.54 23.02 104.90 23.02L104.90 23.02Q107.40 23.02 108.91 20.83ZM110.54 18.22L110.54 18.91L99.86 18.91L99.86 17.45L110.16 17.45L110.54 18.22ZM116.62 9.86L116.62 24.19L114.84 24.19L114.84 9.77Q114.84 6.91 117.70 6.91L117.70 6.91L120.07 6.91L120.07 8.40L118.08 8.40Q117.31 8.40 116.96 8.75Q116.62 9.10 116.62 9.86L116.62 9.86ZM120.07 12.38L120.07 13.90L112.39 13.90L112.39 12.38L120.07 12.38ZM128.16 24.58L128.16 24.58Q126.36 24.58 124.94 23.76Q123.53 22.94 122.72 21.53Q121.92 20.11 121.92 18.29L121.92 18.29Q121.92 16.46 122.72 15.05Q123.53 13.63 124.94 12.82Q126.36 12 128.16 12L128.16 12Q129.98 12 131.39 12.82Q132.79 13.63 133.60 15.05Q134.40 16.46 134.40 18.29L134.40 18.29Q134.40 20.11 133.60 21.53Q132.79 22.94 131.39 23.76Q129.98 24.58 128.16 24.58ZM128.16 23.02L128.16 23.02Q129.46 23.02 130.44 22.42Q131.42 21.82 131.98 20.75Q132.53 19.68 132.53 18.29L132.53 18.29Q132.53 16.90 131.98 15.83Q131.42 14.76 130.44 14.16Q129.46 13.56 128.16 13.56L128.16 13.56Q126.86 13.56 125.88 14.16Q124.90 14.76 124.34 15.83Q123.79 16.90 123.79 18.29L123.79 18.29Q123.79 19.68 124.34 20.75Q124.90 21.82 125.88 22.42Q126.86 23.02 128.16 23.02ZM143.28 12.19L143.54 12.19L143.54 13.92L143.06 13.92Q142.01 13.92 141.07 14.47Q140.14 15.02 139.56 16.20Q138.98 17.38 138.98 19.25L138.98 19.25L138.98 24.19L137.21 24.19L137.21 12.38L138.96 12.38L138.96 16.13L138.65 16.13Q138.94 14.69 139.66 13.82Q140.38 12.96 141.32 12.58Q142.27 12.19 143.28 12.19L143.28 12.19ZM156.53 24.19L150.98 24.19L150.98 7.03L156.53 7.03Q159.17 7.03 161.17 8.14Q163.18 9.24 164.30 11.17Q165.43 13.10 165.43 15.60L165.43 15.60Q165.43 18.10 164.30 20.04Q163.18 21.98 161.17 23.09Q159.17 24.19 156.53 24.19L156.53 24.19ZM152.83 8.71L152.83 22.51L156.53 22.51Q158.66 22.51 160.24 21.65Q161.81 20.78 162.66 19.22Q163.51 17.66 163.51 15.60L163.51 15.60Q163.51 13.54 162.66 11.99Q161.81 10.44 160.24 9.58Q158.66 8.71 156.53 8.71L156.53 8.71L152.83 8.71ZM170.18 12.38L170.18 24.19L168.41 24.19L168.41 12.38L170.18 12.38ZM169.30 9.22L169.30 9.22Q168.77 9.22 168.38 8.84Q168.00 8.47 168.00 7.94L168.00 7.94Q168.00 7.39 168.38 7.02Q168.77 6.65 169.30 6.65L169.30 6.65Q169.85 6.65 170.22 7.02Q170.59 7.39 170.59 7.94L170.59 7.94Q170.59 8.47 170.22 8.84Q169.85 9.22 169.30 9.22ZM172.54 22.37L172.54 22.37L173.78 21.17Q174.62 22.06 175.68 22.56Q176.74 23.06 178.06 23.06L178.06 23.06Q179.50 23.06 180.42 22.45Q181.34 21.84 181.34 20.88L181.34 20.88Q181.34 20.04 180.56 19.57Q179.78 19.10 177.94 18.84L177.94 18.84Q175.25 18.46 174.16 17.68Q173.06 16.90 173.06 15.58L173.06 15.58Q173.06 14.50 173.69 13.69Q174.31 12.89 175.42 12.44Q176.52 12 177.94 12L177.94 12Q179.52 12 180.77 12.58Q182.02 13.15 182.98 14.21L182.98 14.21L181.73 15.41Q181.01 14.52 180.07 14.02Q179.14 13.51 177.94 13.51L177.94 13.51Q176.62 13.51 175.75 14.06Q174.89 14.62 174.89 15.53L174.89 15.53Q174.89 16.20 175.62 16.60Q176.35 16.99 178.10 17.23L178.10 17.23Q180.89 17.62 182.03 18.47Q183.17 19.32 183.17 20.83L183.17 20.83Q183.17 21.94 182.51 22.79Q181.85 23.64 180.70 24.11Q179.54 24.58 178.06 24.58L178.06 24.58Q176.33 24.58 174.97 23.99Q173.62 23.40 172.54 22.37ZM187.66 18.65L187.66 28.85L185.88 28.85L185.88 12.38L187.63 12.38L187.63 15.96L187.20 15.96Q187.42 14.78 188.15 13.90Q188.88 13.01 189.97 12.50Q191.06 12 192.34 12L192.34 12Q194.06 12 195.41 12.83Q196.75 13.66 197.51 15.07Q198.26 16.49 198.26 18.29L198.26 18.29Q198.26 20.11 197.48 21.53Q196.70 22.94 195.32 23.76Q193.94 24.58 192.17 24.58L192.17 24.58Q190.56 24.58 189.35 23.92Q188.14 23.26 187.52 22.12Q186.91 20.98 187.08 19.56L187.08 19.56L187.42 19.08Q187.51 20.21 188.14 21.11Q188.76 22.01 189.77 22.51Q190.78 23.02 191.98 23.02L191.98 23.02Q193.30 23.02 194.28 22.40Q195.26 21.79 195.83 20.72Q196.39 19.66 196.39 18.29L196.39 18.29Q196.39 16.92 195.85 15.85Q195.31 14.78 194.35 14.17Q193.39 13.56 192.12 13.56L192.12 13.56Q190.82 13.56 189.82 14.21Q188.81 14.86 188.23 16.00Q187.66 17.14 187.66 18.65L187.66 18.65ZM202.85 6.91L202.85 24.19L201.07 24.19L201.07 6.91L202.85 6.91ZM216.22 16.73L216.22 24.19L214.51 24.19L214.51 21.89L214.49 21.22L214.49 16.80Q214.49 15.31 213.53 14.42Q212.57 13.54 210.94 13.54L210.94 13.54Q209.76 13.54 208.81 14.04Q207.86 14.54 207.14 15.41L207.14 15.41L205.90 14.21Q206.88 13.15 208.12 12.58Q209.35 12 210.94 12L210.94 12Q212.52 12 213.71 12.59Q214.90 13.18 215.56 14.23Q216.22 15.29 216.22 16.73L216.22 16.73ZM210 24.58L210 24.58Q208.66 24.58 207.64 24.08Q206.62 23.59 206.05 22.75Q205.49 21.91 205.49 20.83L205.49 20.83Q205.49 19.58 206.18 18.71Q206.88 17.83 208.09 17.38Q209.30 16.92 210.84 16.92L210.84 16.92L214.73 16.92L214.73 18.36L211.08 18.36Q209.47 18.36 208.40 18.95Q207.34 19.54 207.34 20.78L207.34 20.78Q207.34 21.84 208.13 22.46Q208.92 23.09 210.22 23.09L210.22 23.09Q211.46 23.09 212.47 22.60Q213.48 22.10 214.09 21.22Q214.70 20.33 214.78 19.18L214.78 19.18L215.50 19.58Q215.50 21.02 214.79 22.15Q214.08 23.28 212.83 23.93Q211.58 24.58 210 24.58ZM223.82 23.26L228.31 12.38L230.14 12.38L224.14 26.33Q223.63 27.50 222.89 28.18Q222.14 28.85 220.63 28.85L220.63 28.85L219.46 28.85L219.46 27.31L220.63 27.31Q221.40 27.31 221.89 26.93Q222.38 26.54 222.70 25.80L222.70 25.80L223.32 24.24L218.21 12.38L220.13 12.38L224.59 23.26L223.82 23.26Z"/></svg>