<svg xmlns="http://www.w3.org/2000/svg" xmlns:xlink="http://www.w3.org/1999/xlink" width="264.1171875" height="32.578125"><path fill="black" d="M7.69 9.42L6.05 23.79L1.29 23.79L3.25 6.62L9.90 6.62Q11.58 6.62 12.83 6.98Q14.09 7.35 14.91 8.02Q15.74 8.68 16.15 9.64Q16.56 10.59 16.56 11.77L16.56 11.77Q16.56 13.20 16.00 14.38Q15.45 15.56 14.48 16.41Q13.51 17.26 12.22 17.73Q10.93 18.20 9.48 18.20L9.48 18.20Q9.28 18.20 9.10 18.19Q8.92 18.18 8.71 18.14L8.71 18.14L9.21 15.61Q9.26 15.62 9.39 15.63Q9.53 15.63 9.62 15.63L9.62 15.63Q10.25 15.63 10.69 15.30Q11.13 14.96 11.40 14.45Q11.67 13.93 11.79 13.31Q11.91 12.69 11.91 12.12L11.91 12.12Q11.91 11.39 11.73 10.88Q11.55 10.36 11.23 10.04Q10.90 9.71 10.43 9.57Q9.96 9.42 9.38 9.42L9.38 9.42L7.69 9.42ZM18 23.79L19.42 11.37L23.47 11.37L23.48 15.76Q23.86 14.89 24.26 14.06Q24.66 13.23 25.15 12.58Q25.64 11.93 26.27 11.53Q26.89 11.13 27.73 11.13L27.73 11.13Q28.50 11.13 29.18 11.43L29.18 11.43L28.18 15.82Q27.76 15.76 27.47 15.74Q27.18 15.73 26.87 15.73L26.87 15.73Q26.43 15.73 25.96 15.81Q25.50 15.89 25.05 16.15Q24.60 16.42 24.16 16.91Q23.73 17.40 23.33 18.22L23.33 18.22L22.69 23.79L18 23.79ZM35.32 24.02L35.32 24.02Q33.74 24.02 32.64 23.55Q31.54 23.09 30.84 22.31Q30.15 21.54 29.84 20.55Q29.52 19.57 29.52 18.55L29.52 18.55Q29.52 17.58 29.78 16.65Q30.05 15.73 30.54 14.90Q31.03 14.07 31.73 13.38Q32.44 12.69 33.33 12.19Q34.22 11.70 35.27 11.41Q36.33 11.13 37.52 11.13L37.52 11.13Q39.08 11.13 40.19 11.60Q41.30 12.06 41.99 12.83Q42.69 13.59 43.01 14.58Q43.34 15.57 43.34 16.62L43.34 16.62Q43.34 18.11 42.74 19.45Q42.15 20.79 41.09 21.81Q40.03 22.83 38.55 23.43Q37.08 24.02 35.32 24.02ZM36.06 21.26L36.06 21.26Q36.54 21.26 36.98 20.94Q37.42 20.63 37.75 20.06Q38.09 19.50 38.29 18.71Q38.48 17.92 38.48 16.97L38.48 16.97Q38.48 16.29 38.38 15.73Q38.27 15.16 38.06 14.76Q37.84 14.36 37.52 14.13Q37.21 13.90 36.79 13.90L36.79 13.90Q36.27 13.90 35.83 14.23Q35.39 14.57 35.06 15.15Q34.73 15.74 34.55 16.53Q34.37 17.32 34.37 18.22L34.37 18.22Q34.37 19.65 34.82 20.46Q35.27 21.26 36.06 21.26ZM44.05 23.79L44.05 22.90L49.08 15.96L50.51 14.30L50.54 14.06L48.40 14.13L45.52 14.13L46.44 11.37L56.58 11.37L56.58 12.26L51.47 19.27L50.09 20.91L50.06 21.12L52.16 21.02L55.91 21.02L54.98 23.79L44.05 23.79ZM66.08 19.55L66.68 14.21Q66.46 14.09 66.18 13.99Q65.91 13.90 65.58 13.90L65.58 13.90Q64.92 13.90 64.37 14.29Q63.82 14.68 63.41 15.32Q63 15.96 62.77 16.79Q62.54 17.63 62.54 18.50L62.54 18.50Q62.54 19.14 62.66 19.61Q62.78 20.07 62.98 20.38Q63.19 20.70 63.45 20.85Q63.71 21 64.01 21L64.01 21Q64.29 21 64.58 20.87Q64.86 20.74 65.13 20.54Q65.39 20.33 65.64 20.07Q65.88 19.82 66.08 19.55L66.08 19.55ZM71.73 11.04L70.28 23.79L66.22 23.79L65.99 21.47Q65.50 22.00 64.97 22.46Q64.45 22.92 63.90 23.27Q63.35 23.63 62.76 23.82Q62.17 24.02 61.54 24.02L61.54 24.02Q60.64 24.02 59.93 23.62Q59.21 23.21 58.71 22.52Q58.21 21.83 57.94 20.91Q57.67 19.99 57.67 18.95L57.67 18.95Q57.67 17.82 58.00 16.81Q58.34 15.80 58.92 14.93Q59.51 14.06 60.31 13.36Q61.11 12.66 62.04 12.16Q62.98 11.67 64.00 11.40Q65.02 11.13 66.05 11.13L66.05 11.13Q66.95 11.13 67.65 11.33Q68.34 11.52 68.93 11.84L68.93 11.84L71.73 11.04ZM88.96 23.79L78.48 23.79L80.44 6.62L85.20 6.62L83.55 20.99L89.77 20.99L88.96 23.79ZM92.14 23.79L93.56 11.37L98.25 11.37L96.83 23.79L92.14 23.79ZM96.02 9.66L96.02 9.66Q95.46 9.66 95.03 9.50Q94.59 9.35 94.29 9.08Q93.98 8.81 93.83 8.45Q93.67 8.09 93.67 7.66L93.67 7.66Q93.67 7.16 93.90 6.70Q94.13 6.25 94.53 5.91Q94.93 5.58 95.48 5.38Q96.04 5.18 96.68 5.18L96.68 5.18Q97.24 5.18 97.68 5.33Q98.12 5.48 98.43 5.75Q98.73 6.02 98.89 6.39Q99.05 6.75 99.05 7.17L99.05 7.17Q99.05 7.69 98.82 8.14Q98.59 8.59 98.19 8.92Q97.78 9.26 97.22 9.46Q96.67 9.66 96.02 9.66ZM105.73 15.61L105.13 20.94Q105.40 21.08 105.70 21.17Q106.01 21.26 106.34 21.26L106.34 21.26Q107.03 21.26 107.58 20.87Q108.14 20.47 108.53 19.83Q108.93 19.20 109.14 18.38Q109.35 17.55 109.35 16.71L109.35 16.71Q109.35 16.04 109.22 15.56Q109.10 15.08 108.89 14.77Q108.68 14.45 108.41 14.30Q108.14 14.16 107.85 14.16L107.85 14.16Q107.57 14.16 107.27 14.29Q106.98 14.41 106.71 14.62Q106.43 14.82 106.18 15.08Q105.93 15.34 105.73 15.61L105.73 15.61ZM106.93 5.02L105.97 13.56Q106.39 13.10 106.89 12.67Q107.38 12.23 107.93 11.89Q108.48 11.54 109.08 11.34Q109.69 11.13 110.33 11.13L110.33 11.13Q111.21 11.13 111.93 11.54Q112.65 11.94 113.16 12.63Q113.67 13.32 113.95 14.25Q114.22 15.18 114.22 16.22L114.22 16.22Q114.22 17.33 113.91 18.35Q113.59 19.36 113.02 20.23Q112.45 21.09 111.66 21.80Q110.86 22.50 109.90 22.99Q108.94 23.48 107.84 23.75Q106.75 24.02 105.59 24.02L105.59 24.02Q105.20 24.02 104.58 23.99Q103.97 23.95 103.24 23.87Q102.50 23.78 101.71 23.63Q100.92 23.48 100.17 23.25L100.17 23.25L102.25 5.02L106.93 5.02ZM115.98 23.79L117.40 11.37L121.45 11.37L121.46 15.76Q121.84 14.89 122.24 14.06Q122.64 13.23 123.13 12.58Q123.62 11.93 124.25 11.53Q124.88 11.13 125.71 11.13L125.71 11.13Q126.48 11.13 127.16 11.43L127.16 11.43L126.16 15.82Q125.74 15.76 125.45 15.74Q125.16 15.73 124.85 15.73L124.85 15.73Q124.41 15.73 123.94 15.81Q123.48 15.89 123.03 16.15Q122.58 16.42 122.14 16.91Q121.71 17.40 121.31 18.22L121.31 18.22L120.67 23.79L115.98 23.79ZM132.91 24.02L132.91 24.02Q131.70 24.02 130.70 23.65Q129.70 23.29 128.99 22.59Q128.27 21.89 127.89 20.88Q127.50 19.88 127.50 18.61L127.50 18.61Q127.50 17.47 127.81 16.48Q128.12 15.48 128.67 14.65Q129.22 13.82 129.98 13.16Q130.75 12.50 131.65 12.05Q132.56 11.60 133.58 11.37Q134.59 11.13 135.64 11.13L135.64 11.13Q136.84 11.13 137.73 11.42Q138.62 11.71 139.21 12.18Q139.80 12.66 140.09 13.27Q140.38 13.88 140.38 14.52L140.38 14.52Q140.38 15.45 139.80 16.22Q139.23 16.99 138.19 17.54Q137.16 18.09 135.72 18.40Q134.29 18.71 132.56 18.71L132.56 18.71L132.27 18.71Q132.27 19.18 132.48 19.60Q132.69 20.02 133.09 20.33Q133.49 20.64 134.07 20.82Q134.65 21 135.39 21L135.39 21Q136.21 21 136.96 20.77Q137.72 20.54 138.53 20.12L138.53 20.12L138.53 21.94Q137.99 22.42 137.33 22.80Q136.68 23.18 135.96 23.46Q135.23 23.73 134.46 23.88Q133.69 24.02 132.91 24.02ZM134.91 13.90L134.91 13.90Q134.45 13.90 134.01 14.18Q133.57 14.46 133.21 14.92Q132.84 15.39 132.59 16.00Q132.34 16.61 132.28 17.26L132.28 17.26L132.77 17.26Q133.34 17.26 133.91 17.13Q134.48 17.00 134.95 16.75Q135.41 16.49 135.70 16.11Q136.00 15.73 136.00 15.22L136.00 15.22Q136.00 15.04 135.94 14.81Q135.89 14.58 135.77 14.37Q135.64 14.17 135.43 14.03Q135.22 13.90 134.91 13.90ZM150.41 15.26L150.41 15.26Q149.93 14.98 149.50 14.63Q149.06 14.27 148.74 13.83Q148.42 13.38 148.23 12.84Q148.04 12.29 148.04 11.61L148.04 11.61Q148.04 10.49 148.58 9.53Q149.11 8.57 150.04 7.87Q150.97 7.17 152.24 6.78Q153.52 6.39 154.99 6.39L154.99 6.39Q156.28 6.39 157.28 6.68Q158.29 6.97 158.97 7.49Q159.66 8.00 160.01 8.70Q160.37 9.40 160.37 10.20L160.37 10.20Q160.37 10.93 160.08 11.55Q159.80 12.16 159.30 12.67Q158.81 13.18 158.16 13.62Q157.51 14.05 156.80 14.43L156.80 14.43Q157.46 14.79 158.06 15.19Q158.65 15.59 159.08 16.07Q159.52 16.56 159.77 17.17Q160.02 17.78 160.02 18.56L160.02 18.56Q160.02 19.72 159.46 20.72Q158.89 21.73 157.89 22.46Q156.89 23.19 155.50 23.61Q154.11 24.02 152.45 24.02L152.45 24.02Q150.97 24.02 149.84 23.70Q148.71 23.37 147.94 22.80Q147.18 22.24 146.78 21.49Q146.39 20.74 146.39 19.89L146.39 19.89Q146.39 19.08 146.72 18.42Q147.06 17.75 147.62 17.20Q148.17 16.64 148.90 16.17Q149.63 15.70 150.41 15.26ZM152.58 16.29L152.58 16.29Q151.69 16.84 151.21 17.57Q150.73 18.30 150.73 19.08L150.73 19.08Q150.73 19.54 150.90 19.92Q151.07 20.31 151.38 20.60Q151.70 20.89 152.14 21.06Q152.59 21.22 153.14 21.22L153.14 21.22Q153.69 21.22 154.17 21.06Q154.65 20.89 155.01 20.60Q155.37 20.31 155.57 19.90Q155.78 19.50 155.78 19.03L155.78 19.03Q155.78 18.55 155.55 18.18Q155.33 17.81 154.92 17.50Q154.50 17.19 153.91 16.90Q153.32 16.62 152.58 16.29ZM154.45 13.43L154.45 13.43Q155.39 12.83 155.81 12.18Q156.22 11.52 156.22 10.88L156.22 10.88Q156.22 10.46 156.07 10.15Q155.92 9.83 155.66 9.62Q155.40 9.41 155.06 9.30Q154.72 9.19 154.34 9.19L154.34 9.19Q153.91 9.19 153.52 9.32Q153.13 9.45 152.82 9.69Q152.51 9.94 152.33 10.28Q152.14 10.63 152.14 11.06L152.14 11.06Q152.14 11.47 152.31 11.80Q152.47 12.13 152.78 12.41Q153.08 12.69 153.51 12.94Q153.94 13.18 154.45 13.43ZM172.93 13.54L172.93 13.54Q172.93 12.56 172.82 11.76Q172.70 10.96 172.45 10.39Q172.20 9.82 171.80 9.50Q171.41 9.19 170.87 9.19L170.87 9.19Q170.25 9.19 169.76 9.50Q169.28 9.81 168.91 10.35Q168.54 10.90 168.28 11.64Q168.01 12.38 167.85 13.23Q167.68 14.09 167.61 15.02Q167.53 15.95 167.53 16.88L167.53 16.88Q167.53 17.85 167.65 18.65Q167.78 19.45 168.03 20.03Q168.28 20.60 168.67 20.91Q169.07 21.22 169.61 21.22L169.61 21.22Q170.23 21.22 170.72 20.91Q171.21 20.59 171.58 20.04Q171.95 19.50 172.21 18.76Q172.46 18.02 172.63 17.17Q172.79 16.31 172.86 15.39Q172.93 14.46 172.93 13.54ZM177.84 13.55L177.84 13.55Q177.84 16.18 177.13 18.15Q176.43 20.12 175.21 21.43Q173.99 22.73 172.37 23.38Q170.75 24.02 168.94 24.02L168.94 24.02Q167.48 24.02 166.32 23.57Q165.15 23.12 164.33 22.22Q163.51 21.33 163.07 19.99Q162.62 18.64 162.62 16.88L162.62 16.88Q162.62 14.24 163.34 12.27Q164.05 10.30 165.27 8.99Q166.49 7.69 168.11 7.04Q169.72 6.39 171.54 6.39L171.54 6.39Q172.99 6.39 174.16 6.84Q175.32 7.30 176.14 8.20Q176.96 9.09 177.40 10.44Q177.84 11.78 177.84 13.55ZM190.23 13.54L190.23 13.54Q190.23 12.56 190.11 11.76Q190.00 10.96 189.74 10.39Q189.49 9.82 189.10 9.50Q188.71 9.19 188.17 9.19L188.17 9.19Q187.55 9.19 187.06 9.50Q186.57 9.81 186.21 10.35Q185.84 10.90 185.57 11.64Q185.31 12.38 185.14 13.23Q184.98 14.09 184.90 15.02Q184.83 15.95 184.83 16.88L184.83 16.88Q184.83 17.85 184.95 18.65Q185.07 19.45 185.33 20.03Q185.58 20.60 185.97 20.91Q186.36 21.22 186.90 21.22L186.90 21.22Q187.52 21.22 188.02 20.91Q188.51 20.59 188.88 20.04Q189.25 19.50 189.50 18.76Q189.76 18.02 189.93 17.17Q190.09 16.31 190.16 15.39Q190.23 14.46 190.23 13.54ZM195.14 13.55L195.14 13.55Q195.14 16.18 194.43 18.15Q193.72 20.12 192.50 21.43Q191.29 22.73 189.67 23.38Q188.05 24.02 186.23 24.02L186.23 24.02Q184.78 24.02 183.62 23.57Q182.45 23.12 181.63 22.22Q180.81 21.33 180.36 19.99Q179.92 18.64 179.92 16.88L179.92 16.88Q179.92 14.24 180.63 12.27Q181.35 10.30 182.57 8.99Q183.79 7.69 185.40 7.04Q187.02 6.39 188.84 6.39L188.84 6.39Q190.29 6.39 191.46 6.84Q192.62 7.30 193.44 8.20Q194.26 9.09 194.70 10.44Q195.14 11.78 195.14 13.55ZM201.41 23.79L202.83 11.37L207.52 11.37L206.10 23.79L201.41 23.79ZM205.29 9.66L205.29 9.66Q204.73 9.66 204.29 9.50Q203.86 9.35 203.55 9.08Q203.25 8.81 203.09 8.45Q202.93 8.09 202.93 7.66L202.93 7.66Q202.93 7.16 203.16 6.70Q203.39 6.25 203.79 5.91Q204.20 5.58 204.75 5.38Q205.30 5.18 205.95 5.18L205.95 5.18Q206.51 5.18 206.95 5.33Q207.39 5.48 207.69 5.75Q208.00 6.02 208.15 6.39Q208.31 6.75 208.31 7.17L208.31 7.17Q208.31 7.69 208.08 8.14Q207.86 8.59 207.45 8.92Q207.05 9.26 206.49 9.46Q205.93 9.66 205.29 9.66ZM210.88 19.07L211.44 14.13L208.96 14.13L209.46 12.21Q210.12 11.96 210.60 11.75Q211.09 11.54 211.46 11.31Q211.83 11.09 212.13 10.82Q212.44 10.55 212.74 10.18Q213.04 9.82 213.36 9.35Q213.69 8.87 214.13 8.23L214.13 8.23L216.47 8.23L216.12 11.37L220.48 11.37L219.55 14.13L216.13 14.13L215.59 18.89Q215.52 19.48 215.63 19.88Q215.73 20.29 215.96 20.53Q216.20 20.78 216.56 20.89Q216.91 21 217.36 21L217.36 21Q217.80 21 218.24 20.89Q218.67 20.78 219.21 20.51L219.21 20.51L219.21 22.39Q218.14 23.17 216.92 23.60Q215.70 24.02 214.50 24.02L214.50 24.02Q213.36 24.02 212.61 23.64Q211.85 23.25 211.43 22.58Q211.01 21.91 210.88 21.01Q210.76 20.11 210.88 19.07L210.88 19.07ZM229.68 19.55L230.27 14.21Q230.05 14.09 229.78 13.99Q229.50 13.90 229.17 13.90L229.17 13.90Q228.52 13.90 227.96 14.29Q227.41 14.68 227.00 15.32Q226.59 15.96 226.37 16.79Q226.14 17.63 226.14 18.50L226.14 18.50Q226.14 19.14 226.25 19.61Q226.37 20.07 226.58 20.38Q226.78 20.70 227.04 20.85Q227.31 21 227.60 21L227.60 21Q227.88 21 228.17 20.87Q228.46 20.74 228.72 20.54Q228.98 20.33 229.23 20.07Q229.48 19.82 229.68 19.55L229.68 19.55ZM235.32 11.04L233.87 23.79L229.82 23.79L229.58 21.47Q229.09 22.00 228.57 22.46Q228.05 22.92 227.50 23.27Q226.95 23.63 226.35 23.82Q225.76 24.02 225.13 24.02L225.13 24.02Q224.24 24.02 223.52 23.62Q222.81 23.21 222.30 22.52Q221.80 21.83 221.53 20.91Q221.26 19.99 221.26 18.95L221.26 18.95Q221.26 17.82 221.60 16.81Q221.93 15.80 222.52 14.93Q223.10 14.06 223.90 13.36Q224.71 12.66 225.64 12.16Q226.57 11.67 227.59 11.40Q228.61 11.13 229.64 11.13L229.64 11.13Q230.54 11.13 231.24 11.33Q231.94 11.52 232.52 11.84L232.52 11.84L235.32 11.04ZM237.15 23.79L239.30 5.02L243.98 5.02L241.84 23.79L237.15 23.79ZM245.12 23.79L246.54 11.37L251.23 11.37L249.81 23.79L245.12 23.79ZM249 9.66L249 9.66Q248.44 9.66 248.00 9.50Q247.57 9.35 247.27 9.08Q246.96 8.81 246.80 8.45Q246.64 8.09 246.64 7.66L246.64 7.66Q246.64 7.16 246.87 6.70Q247.10 6.25 247.51 5.91Q247.91 5.58 248.46 5.38Q249.01 5.18 249.66 5.18L249.66 5.18Q250.22 5.18 250.66 5.33Q251.10 5.48 251.40 5.75Q251.71 6.02 251.87 6.39Q252.02 6.75 252.02 7.17L252.02 7.17Q252.02 7.69 251.79 8.14Q251.57 8.59 251.16 8.92Q250.76 9.26 250.20 9.46Q249.64 9.66 249 9.66ZM262.66 20.43L262.66 22.24Q261.53 23.16 260.30 23.59Q259.08 24.02 257.88 24.02L257.88 24.02Q256.70 24.02 255.79 23.64Q254.87 23.25 254.25 22.56Q253.63 21.87 253.30 20.92Q252.97 19.97 252.97 18.84L252.97 18.84Q252.97 17.72 253.29 16.71Q253.61 15.70 254.17 14.85Q254.73 13.99 255.51 13.31Q256.29 12.62 257.22 12.13Q258.15 11.65 259.21 11.39Q260.26 11.13 261.36 11.13L261.36 11.13Q261.86 11.13 262.56 11.21Q263.27 11.29 264.16 11.55L264.16 11.55L263.21 14.39L262.99 14.51Q262.65 14.32 262.17 14.11Q261.68 13.90 261.08 13.90L261.08 13.90Q260.45 13.90 259.87 14.19Q259.29 14.48 258.84 15.02Q258.40 15.55 258.13 16.31Q257.87 17.07 257.87 18L257.87 18Q257.87 18.82 258.08 19.39Q258.29 19.97 258.65 20.33Q259.01 20.68 259.49 20.84Q259.97 21 260.52 21L260.52 21Q260.98 21 261.48 20.88Q261.98 20.75 262.66 20.43L262.66 20.43Z"/></svg>