<svg xmlns="http://www.w3.org/2000/svg" xmlns:xlink="http://www.w3.org/1999/xlink" width="190.896" height="31.2"><path fill="black" d="M11.81 17.47L15.72 24.05Q15.07 24.41 13.32 24.41L13.32 24.41Q11.98 24.41 11.52 23.64L11.52 23.64L8.35 18.46Q7.92 17.74 7.64 17.45Q7.37 17.16 7.03 17.06Q6.70 16.97 6.02 16.97L6.02 16.97L5.86 16.97L5.86 24.17L2.16 24.17L2.16 7.37L5.86 7.37L5.86 14.52L6.94 14.52L11.62 7.37L15.53 7.37L10.03 15.41Q11.02 16.10 11.81 17.47L11.81 17.47ZM24.14 10.80Q25.30 10.80 25.82 11.29Q26.35 11.78 26.35 12.86L26.35 12.86Q26.35 13.27 26.24 13.67Q26.14 14.06 25.94 14.28L25.94 14.28Q25.66 14.11 25.30 14.04Q24.94 13.97 24.26 13.97L24.26 13.97Q22.70 13.97 21.95 14.93Q21.19 15.89 21.19 17.86L21.19 17.86L21.19 24.17L17.64 24.17L17.64 10.97L21.19 10.97L21.19 12.72Q21.67 11.78 22.44 11.29Q23.21 10.80 24.14 10.80L24.14 10.80ZM40.01 20.98Q40.01 22.08 40.09 22.70Q40.18 23.33 40.37 23.76L40.37 23.76Q39.89 24 39.22 24.14Q38.54 24.29 37.94 24.29L37.94 24.29Q37.25 24.29 36.91 23.95Q36.58 23.62 36.48 22.82L36.48 22.82Q35.78 23.59 34.79 24Q33.79 24.41 32.62 24.41L32.62 24.41Q30.53 24.41 29.42 23.27Q28.32 22.13 28.32 19.97L28.32 19.97L28.32 10.97L31.87 10.97L31.87 19.80Q31.87 21.07 32.27 21.61Q32.66 22.15 33.62 22.15L33.62 22.15Q35.33 22.15 36.43 20.42L36.43 20.42L36.43 10.97L40.01 10.97L40.01 20.98ZM50.11 10.73Q51.72 10.73 52.92 11.57Q54.12 12.41 54.78 13.97Q55.44 15.53 55.44 17.59L55.44 17.59Q55.44 19.66 54.78 21.19Q54.12 22.73 52.91 23.57Q51.70 24.41 50.09 24.41L50.09 24.41Q49.08 24.41 48.17 23.93Q47.26 23.45 46.70 22.63L46.70 22.63Q46.54 23.52 46.21 23.93Q45.89 24.34 45.34 24.34L45.34 24.34Q44.66 24.34 43.91 24.12Q43.15 23.90 42.48 23.52L42.48 23.52Q42.96 22.90 43.12 22.02Q43.27 21.14 43.27 19.20L43.27 19.20L43.27 5.18L46.82 5.18L46.82 12.05Q47.54 11.35 48.32 11.04Q49.10 10.73 50.11 10.73L50.11 10.73ZM49.49 22.10Q50.69 22.10 51.26 21.01Q51.84 19.92 51.84 17.59L51.84 17.59Q51.84 12.98 49.25 12.98L49.25 12.98Q48.55 12.98 47.88 13.33Q47.21 13.68 46.82 14.23L46.82 14.23L46.82 20.26Q47.81 22.10 49.49 22.10L49.49 22.10ZM63.12 7.37L74.02 7.37L74.02 9.14Q71.50 12.67 70.40 15.72Q69.31 18.77 69.10 22.44L69.10 22.44L69 24.17L67.27 24.17Q66.14 24.17 65.70 23.65Q65.26 23.14 65.30 22.15L65.30 22.15L65.33 21.79Q65.45 19.94 66.17 17.76Q66.89 15.58 68.14 13.50Q69.38 11.42 70.99 9.96L70.99 9.96L64.73 9.96Q63.86 9.96 63.41 9.56Q62.95 9.17 62.95 8.47L62.95 8.47Q62.95 7.75 63.12 7.37L63.12 7.37ZM81.60 24.46Q78.22 24.46 76.55 22.28Q74.88 20.11 74.88 16.06L74.88 16.06Q74.88 11.76 76.55 9.44Q78.22 7.13 81.60 7.13L81.60 7.13Q84.98 7.13 86.65 9.44Q88.32 11.76 88.32 16.06L88.32 16.06Q88.32 20.11 86.65 22.28Q84.98 24.46 81.60 24.46L81.60 24.46ZM81.60 22.01Q83.40 22.01 84.08 20.46Q84.77 18.91 84.77 16.06L84.77 16.06Q84.77 12.91 84.08 11.24Q83.40 9.58 81.60 9.58L81.60 9.58Q79.75 9.58 79.09 11.23Q78.43 12.89 78.43 16.06L78.43 16.06Q78.43 18.94 79.10 20.47Q79.78 22.01 81.60 22.01L81.60 22.01ZM96.48 24.46Q93.10 24.46 91.43 22.28Q89.76 20.11 89.76 16.06L89.76 16.06Q89.76 11.76 91.43 9.44Q93.10 7.13 96.48 7.13L96.48 7.13Q99.86 7.13 101.53 9.44Q103.20 11.76 103.20 16.06L103.20 16.06Q103.20 20.11 101.53 22.28Q99.86 24.46 96.48 24.46L96.48 24.46ZM96.48 22.01Q98.28 22.01 98.96 20.46Q99.65 18.91 99.65 16.06L99.65 16.06Q99.65 12.91 98.96 11.24Q98.28 9.58 96.48 9.58L96.48 9.58Q94.63 9.58 93.97 11.23Q93.31 12.89 93.31 16.06L93.31 16.06Q93.31 18.94 93.98 20.47Q94.66 22.01 96.48 22.01L96.48 22.01ZM123.07 20.86Q123.07 22.06 123.17 22.66Q123.26 23.26 123.53 23.76L123.53 23.76Q122.11 24.29 120.60 24.29L120.60 24.29Q120 24.29 119.76 23.71Q119.52 23.14 119.52 21.72L119.52 21.72L119.52 15.46Q119.52 14.21 119.15 13.72Q118.78 13.22 117.84 13.22L117.84 13.22Q116.59 13.22 115.10 14.45L115.10 14.45L115.10 24.17L111.55 24.17L111.55 15.29Q111.55 13.68 111.49 12.82Q111.43 11.95 111.26 11.42L111.26 11.42Q113.04 10.87 114.17 10.87L114.17 10.87Q114.67 10.87 114.89 11.20Q115.10 11.52 115.10 12.26L115.10 12.26L115.10 12.55Q116.33 11.52 117.18 11.12Q118.03 10.73 118.97 10.73L118.97 10.73Q121.03 10.73 122.05 11.84Q123.07 12.96 123.07 15.24L123.07 15.24L123.07 20.86ZM131.57 24.41Q128.66 24.41 127.07 22.61Q125.47 20.81 125.47 17.54L125.47 17.54Q125.47 14.28 127.07 12.50Q128.66 10.73 131.57 10.73L131.57 10.73Q134.47 10.73 136.07 12.50Q137.66 14.28 137.66 17.54L137.66 17.54Q137.66 20.81 136.07 22.61Q134.47 24.41 131.57 24.41L131.57 24.41ZM131.57 22.10Q132.89 22.10 133.48 21.02Q134.06 19.94 134.06 17.54L134.06 17.54Q134.06 15.17 133.48 14.10Q132.89 13.03 131.57 13.03L131.57 13.03Q130.25 13.03 129.66 14.09Q129.07 15.14 129.07 17.54L129.07 17.54Q129.07 19.94 129.66 21.02Q130.25 22.10 131.57 22.10L131.57 22.10ZM146.45 10.80Q147.60 10.80 148.13 11.29Q148.66 11.78 148.66 12.86L148.66 12.86Q148.66 13.27 148.55 13.67Q148.44 14.06 148.25 14.28L148.25 14.28Q147.96 14.11 147.60 14.04Q147.24 13.97 146.57 13.97L146.57 13.97Q145.01 13.97 144.25 14.93Q143.50 15.89 143.50 17.86L143.50 17.86L143.50 24.17L139.94 24.17L139.94 10.97L143.50 10.97L143.50 12.72Q143.98 11.78 144.74 11.29Q145.51 10.80 146.45 10.80L146.45 10.80ZM165.05 10.73Q166.94 10.73 168.04 11.84Q169.13 12.96 169.13 14.93L169.13 14.93L169.13 24.17L165.55 24.17L165.55 15.00Q165.55 13.82 165.23 13.40Q164.90 12.98 163.99 12.98L163.99 12.98Q162.62 12.98 161.69 14.18L161.69 14.18L161.69 14.47L161.69 24.17L158.14 24.17L158.14 14.76Q158.14 13.75 157.86 13.37Q157.58 12.98 156.84 12.98L156.84 12.98Q155.54 12.98 154.22 14.54L154.22 14.54L154.22 24.17L150.67 24.17L150.67 15.70Q150.67 12.29 150.38 11.50L150.38 11.50Q150.84 11.23 151.54 11.05Q152.23 10.87 152.81 10.87L152.81 10.87Q153.46 10.87 153.78 11.24Q154.10 11.62 154.20 12.50L154.20 12.50Q155.06 11.57 156 11.15Q156.94 10.73 158.09 10.73L158.09 10.73Q159.19 10.73 160.01 11.17Q160.82 11.62 161.26 12.46L161.26 12.46Q162.60 10.73 165.05 10.73L165.05 10.73ZM182.98 19.20Q182.98 21.17 183.13 22.03Q183.29 22.90 183.77 23.52L183.77 23.52Q183.26 23.88 182.47 24.11Q181.68 24.34 181.03 24.34L181.03 24.34Q180.43 24.34 180.07 23.90Q179.71 23.47 179.54 22.54L179.54 22.54Q178.90 23.54 178.01 23.98Q177.12 24.41 175.70 24.41L175.70 24.41Q173.95 24.41 172.87 23.46Q171.79 22.51 171.79 20.98L171.79 20.98Q171.79 18.82 173.60 17.75Q175.42 16.68 179.42 16.46L179.42 16.46L179.42 15.22Q179.42 14.23 178.91 13.75Q178.39 13.27 177.34 13.27L177.34 13.27Q176.57 13.27 175.81 13.57Q175.06 13.87 173.95 14.62L173.95 14.62Q173.83 14.71 173.62 14.71L173.62 14.71Q173.18 14.71 172.69 14.14Q172.20 13.56 171.82 12.62L171.82 12.62Q172.75 11.81 174.44 11.27Q176.14 10.73 177.79 10.73L177.79 10.73Q180.29 10.73 181.63 11.89Q182.98 13.06 182.98 15.22L182.98 15.22L182.98 19.20ZM176.95 22.10Q177.67 22.10 178.28 21.60Q178.90 21.10 179.42 20.04L179.42 20.04L179.42 18.26Q177.43 18.34 176.41 18.92Q175.39 19.51 175.39 20.59L175.39 20.59Q175.39 21.29 175.82 21.70Q176.26 22.10 176.95 22.10L176.95 22.10ZM185.90 24.17L185.90 5.18L189.46 5.18L189.46 24.17L185.90 24.17Z"/></svg>