<svg xmlns="http://www.w3.org/2000/svg" xmlns:xlink="http://www.w3.org/1999/xlink" width="232.968" height="31.272000000000002"><path fill="black" d="M8.38 14.38Q10.92 15.10 11.96 16.13Q13.01 17.16 13.01 19.31Q13.01 21.46 11.51 22.84Q10.01 24.22 7.16 24.22Q4.32 24.22 3 23.04Q1.68 21.86 1.34 19.66L1.34 19.66L3.07 19.34Q3.53 22.51 6.98 22.51L6.98 22.51Q10.90 22.51 10.90 19.42L10.90 19.42Q10.90 18.07 10.18 17.42Q9.46 16.78 7.78 16.32L7.78 16.32L6.19 15.86Q3.72 15.19 2.71 14.15Q1.70 13.10 1.70 10.96Q1.70 8.81 3.14 7.42Q4.58 6.02 7.33 6.02Q10.08 6.02 11.33 7.20Q12.58 8.38 12.91 10.58L12.91 10.58L11.18 10.90Q10.73 7.73 7.54 7.73L7.54 7.73Q3.82 7.73 3.82 10.82L3.82 10.82Q3.82 12.17 4.48 12.83Q5.14 13.49 6.72 13.92L6.72 13.92L8.38 14.38ZM16.90 23.88L16.90 10.15L18.96 10.15L18.96 23.88L16.90 23.88ZM17.93 7.85L17.93 7.85Q16.70 7.85 16.70 6.52Q16.70 5.18 17.93 5.18L17.93 5.18Q19.20 5.18 19.20 6.52Q19.20 7.85 17.93 7.85ZM25.27 10.15L25.85 11.59Q28.27 9.82 30.62 9.82Q32.98 9.82 33.94 10.88Q34.90 11.95 34.90 14.14L34.90 14.14L34.90 23.88L32.83 23.88L32.83 14.18Q32.83 12.74 32.28 12.12Q31.73 11.50 30.43 11.50L30.43 11.50Q28.20 11.50 26.11 13.10L26.11 13.10L26.11 23.88L24.05 23.88L24.05 10.15L25.27 10.15ZM40.06 11.57L37.70 11.57L37.70 10.15L40.06 10.15L40.06 7.66L42.12 6.84L42.12 10.15L45.02 10.15L45.02 11.57L42.12 11.57L42.12 20.66Q42.12 21.74 42.42 22.19Q42.72 22.63 43.30 22.63Q43.87 22.63 44.71 22.44L44.71 22.44L44.95 23.83Q43.66 24.22 42.76 24.22Q41.86 24.22 41.28 23.93Q40.70 23.64 40.46 23.06L40.46 23.06Q40.06 22.20 40.06 20.74L40.06 20.74L40.06 11.57ZM50.72 22.09Q51.53 22.54 52.73 22.54Q53.93 22.54 54.73 22.09Q55.54 21.65 55.92 20.82Q56.30 19.99 56.46 19.09Q56.62 18.19 56.62 17.02Q56.62 15.84 56.46 14.94Q56.30 14.04 55.92 13.21Q55.54 12.38 54.73 11.94Q53.93 11.50 52.73 11.50Q51.53 11.50 50.72 11.94Q49.92 12.38 49.52 13.21Q49.13 14.04 48.98 14.93Q48.84 15.82 48.84 17.02Q48.84 18.22 48.98 19.10Q49.13 19.99 49.52 20.82Q49.92 21.65 50.72 22.09ZM58.68 17.02Q58.68 24.22 52.73 24.22Q46.78 24.22 46.78 17.02Q46.78 9.82 52.73 9.82Q58.68 9.82 58.68 17.02ZM63.74 10.15L64.32 11.59Q66.74 9.82 69.10 9.82Q71.45 9.82 72.41 10.88Q73.37 11.95 73.37 14.14L73.37 14.14L73.37 23.88L71.30 23.88L71.30 14.18Q71.30 12.74 70.75 12.12Q70.20 11.50 68.90 11.50L68.90 11.50Q66.67 11.50 64.58 13.10L64.58 13.10L64.58 23.88L62.52 23.88L62.52 10.15L63.74 10.15ZM88.30 10.15L81.00 29.76L79.13 29.42L81.24 23.98L76.06 10.15L78.19 10.15L82.25 21.26L86.18 10.15L88.30 10.15ZM107.18 19.97L107.18 23.88L105.12 23.88L105.12 19.97L96.43 19.97L96.43 18.29L104.16 6.36L107.18 6.36L107.18 18.26L109.32 18.26L109.32 19.97L107.18 19.97ZM98.76 18.26L105.12 18.26L105.12 8.33L98.76 18.26ZM121.03 23.74Q119.93 24.22 118.46 24.22Q117 24.22 115.91 23.74Q114.82 23.26 114.13 22.45Q113.45 21.65 113.04 20.45Q112.63 19.25 112.48 17.98Q112.32 16.70 112.32 15.12Q112.32 13.54 112.48 12.26Q112.63 10.99 113.04 9.79Q113.45 8.59 114.12 7.79Q114.79 6.98 115.90 6.50Q117 6.02 118.46 6.02Q119.93 6.02 121.03 6.50Q122.14 6.98 122.82 7.79Q123.50 8.59 123.91 9.79Q124.32 10.99 124.48 12.26Q124.63 13.54 124.63 15.12Q124.63 16.70 124.48 17.98Q124.32 19.25 123.91 20.45Q123.50 21.65 122.82 22.45Q122.14 23.26 121.03 23.74ZM118.46 22.54L118.46 22.54Q120.79 22.54 121.69 20.63Q122.59 18.72 122.59 15.12L122.59 15.12Q122.59 9.60 120.48 8.26L120.48 8.26Q119.66 7.73 118.46 7.73Q117.26 7.73 116.45 8.26Q115.63 8.78 115.20 9.82L115.20 9.82Q114.38 11.69 114.38 15.12L114.38 15.12Q114.38 20.66 116.45 22.01L116.45 22.01Q117.26 22.54 118.46 22.54ZM136.25 23.74Q135.14 24.22 133.68 24.22Q132.22 24.22 131.12 23.74Q130.03 23.26 129.35 22.45Q128.66 21.65 128.26 20.45Q127.85 19.25 127.69 17.98Q127.54 16.70 127.54 15.12Q127.54 13.54 127.69 12.26Q127.85 10.99 128.26 9.79Q128.66 8.59 129.34 7.79Q130.01 6.98 131.11 6.50Q132.22 6.02 133.68 6.02Q135.14 6.02 136.25 6.50Q137.35 6.98 138.04 7.79Q138.72 8.59 139.13 9.79Q139.54 10.99 139.69 12.26Q139.85 13.54 139.85 15.12Q139.85 16.70 139.69 17.98Q139.54 19.25 139.13 20.45Q138.72 21.65 138.04 22.45Q137.35 23.26 136.25 23.74ZM133.68 22.54L133.68 22.54Q136.01 22.54 136.91 20.63Q137.81 18.72 137.81 15.12L137.81 15.12Q137.81 9.60 135.70 8.26L135.70 8.26Q134.88 7.73 133.68 7.73Q132.48 7.73 131.66 8.26Q130.85 8.78 130.42 9.82L130.42 9.82Q129.60 11.69 129.60 15.12L129.60 15.12Q129.60 20.66 131.66 22.01L131.66 22.01Q132.48 22.54 133.68 22.54ZM152.04 10.15L152.62 11.59Q155.04 9.82 157.39 9.82Q159.74 9.82 160.70 10.88Q161.66 11.95 161.66 14.14L161.66 14.14L161.66 23.88L159.60 23.88L159.60 14.18Q159.60 12.74 159.05 12.12Q158.50 11.50 157.20 11.50L157.20 11.50Q154.97 11.50 152.88 13.10L152.88 13.10L152.88 23.88L150.82 23.88L150.82 10.15L152.04 10.15ZM169.21 22.09Q170.02 22.54 171.22 22.54Q172.42 22.54 173.22 22.09Q174.02 21.65 174.41 20.82Q174.79 19.99 174.95 19.09Q175.10 18.19 175.10 17.02Q175.10 15.84 174.95 14.94Q174.79 14.04 174.41 13.21Q174.02 12.38 173.22 11.94Q172.42 11.50 171.22 11.50Q170.02 11.50 169.21 11.94Q168.41 12.38 168.01 13.21Q167.62 14.04 167.47 14.93Q167.33 15.82 167.33 17.02Q167.33 18.22 167.47 19.10Q167.62 19.99 168.01 20.82Q168.41 21.65 169.21 22.09ZM177.17 17.02Q177.17 24.22 171.22 24.22Q165.26 24.22 165.26 17.02Q165.26 9.82 171.22 9.82Q177.17 9.82 177.17 17.02ZM183.07 14.45L183.07 23.88L181.01 23.88L181.01 10.15L182.23 10.15L182.98 12.60Q184.66 9.94 187.90 9.82L187.90 9.82L187.90 11.71Q184.66 11.83 183.07 14.45L183.07 14.45ZM196.85 9.82L196.85 9.82Q199.63 9.82 200.59 11.71L200.59 11.71Q201.48 10.92 202.72 10.37Q203.95 9.82 205.27 9.82L205.27 9.82Q209.45 9.82 209.45 14.11L209.45 14.11L209.45 23.88L207.38 23.88L207.38 14.23Q207.38 12.89 206.81 12.19Q206.23 11.50 204.94 11.50L204.94 11.50Q202.80 11.50 201.00 13.13L201.00 13.13Q201.07 13.61 201.07 14.11L201.07 14.11L201.07 23.88L199.01 23.88L199.01 14.23Q199.01 12.89 198.43 12.19Q197.86 11.50 196.54 11.50L196.54 11.50Q194.45 11.50 192.70 13.01L192.70 13.01L192.70 23.88L190.63 23.88L190.63 10.15L191.90 10.15L192.43 11.52Q194.45 9.82 196.85 9.82ZM222.07 10.73L222.07 10.73Q223.51 11.76 223.51 14.62L223.51 14.62L223.51 23.88L222.14 23.88L221.62 21.74Q219.31 24.22 216.55 24.22L216.55 24.22Q214.73 24.22 213.88 23.26Q213.02 22.30 213.02 20.66Q213.02 19.03 214.04 18.02Q215.06 17.02 217.87 16.56L217.87 16.56L221.45 15.98L221.45 14.62Q221.45 12.84 220.69 12.17Q219.94 11.50 218.62 11.50L218.62 11.50Q215.98 11.50 215.47 14.06L215.47 14.06L213.79 13.56Q214.18 11.78 215.40 10.80Q216.62 9.82 218.72 9.82Q220.82 9.82 222.07 10.73ZM217.13 22.63L217.13 22.63Q219.29 22.63 221.45 20.30L221.45 20.30L221.45 17.42L218.06 18Q216.36 18.31 215.71 18.97Q215.06 19.63 215.06 20.58Q215.06 21.53 215.57 22.08Q216.07 22.63 217.13 22.63ZM230.42 5.40L230.42 23.88L228.36 23.88L228.36 5.69L230.42 5.40Z"/></svg>