<svg xmlns="http://www.w3.org/2000/svg" xmlns:xlink="http://www.w3.org/1999/xlink" width="314.390625" height="29.625"><path fill="black" d="M7.04 23.73L7.04 23.73Q5.66 23.73 4.46 23.37Q3.27 23.00 2.35 22.31Q1.43 21.62 0.88 20.62Q0.34 19.62 0.27 18.34L0.27 18.34L3.59 17.66Q3.40 18.71 3.80 19.52Q4.20 20.33 5.05 20.78Q5.91 21.22 7.08 21.22L7.08 21.22Q8.20 21.22 8.92 20.82Q9.63 20.41 9.98 19.77Q10.34 19.13 10.34 18.43L10.34 18.43Q10.34 17.63 9.83 17.11Q9.33 16.59 8.16 16.22L8.16 16.22L6.45 15.64Q5.84 15.46 5.15 15.18Q4.46 14.89 3.87 14.44Q3.27 13.99 2.90 13.28Q2.53 12.56 2.53 11.52L2.53 11.52Q2.53 10.08 3.29 8.88Q4.05 7.69 5.45 6.98Q6.84 6.27 8.74 6.27L8.74 6.27Q10.00 6.27 11.08 6.60Q12.16 6.93 12.99 7.55Q13.82 8.17 14.31 9.02Q14.81 9.88 14.88 10.95L14.88 10.95L11.70 11.60Q11.77 10.88 11.43 10.23Q11.10 9.59 10.39 9.18Q9.68 8.78 8.59 8.78L8.59 8.78Q7.66 8.78 6.98 9.09Q6.30 9.40 5.95 9.93Q5.59 10.45 5.59 11.09L5.59 11.09Q5.59 11.88 6.23 12.33Q6.87 12.79 8.18 13.22L8.18 13.22L9.55 13.66Q10.61 13.99 11.50 14.57Q12.40 15.15 12.94 16.04Q13.49 16.93 13.49 18.22L13.49 18.22Q13.49 19.25 13.10 20.23Q12.70 21.21 11.90 22.01Q11.10 22.80 9.88 23.27Q8.67 23.73 7.04 23.73ZM20.82 23.73L20.82 23.73Q19.29 23.73 18.06 23.12Q16.83 22.50 16.11 21.29Q15.40 20.09 15.40 18.35L15.40 18.35Q15.40 17.02 15.83 15.63Q16.25 14.25 17.12 13.08Q17.98 11.92 19.25 11.20Q20.52 10.49 22.21 10.49L22.21 10.49Q23.67 10.49 24.83 11.04Q25.99 11.59 26.69 12.58Q27.39 13.57 27.45 14.91L27.45 14.91L24.66 15.55Q24.68 14.79 24.40 14.14Q24.13 13.50 23.57 13.11Q23.02 12.71 22.17 12.71L22.17 12.71Q21.13 12.71 20.40 13.32Q19.68 13.93 19.23 14.87Q18.79 15.80 18.58 16.79Q18.38 17.78 18.38 18.54L18.38 18.54Q18.38 19.91 19.04 20.70Q19.71 21.49 20.96 21.49L20.96 21.49Q21.94 21.49 22.73 20.85Q23.53 20.20 24.07 18.84L24.07 18.84L26.77 19.46Q26.17 20.99 25.22 21.93Q24.27 22.86 23.14 23.30Q22.01 23.73 20.82 23.73ZM31.07 23.44L28.24 23.44L31.96 5.86L34.77 5.86L33.13 13.65L33.02 13.13Q33.77 11.89 34.82 11.19Q35.86 10.49 37.28 10.49L37.28 10.49Q38.72 10.49 39.57 11.20Q40.43 11.91 40.69 13.13Q40.95 14.34 40.63 15.88L40.63 15.88L39.02 23.44L36.20 23.44L37.82 15.79Q38.02 14.91 37.92 14.20Q37.82 13.49 37.38 13.07Q36.94 12.64 36.08 12.64L36.08 12.64Q34.80 12.64 33.84 13.75Q32.88 14.86 32.36 17.33L32.36 17.33L31.07 23.44ZM44.45 10.78L47.27 10.78L44.59 23.44L41.78 23.44L44.45 10.78ZM46.56 9.04L46.56 9.04Q45.66 9.04 45.13 8.50Q44.60 7.96 44.60 7.10L44.60 7.10Q44.60 6.16 45.22 5.55Q45.83 4.93 46.79 4.93L46.79 4.93Q47.68 4.93 48.22 5.47Q48.75 6.01 48.75 6.87L48.75 6.87Q48.75 7.79 48.13 8.41Q47.52 9.04 46.56 9.04ZM55.05 23.73L55.05 23.73Q53.48 23.73 52.41 22.90Q51.33 22.08 50.99 20.53L50.99 20.53L51.25 20.54L50.64 23.44L47.93 23.44L51.64 5.86L54.50 5.86L52.96 13.21L52.72 13.00Q53.57 11.68 54.66 11.09Q55.75 10.49 56.98 10.49L56.98 10.49Q58.98 10.49 60.12 11.86Q61.25 13.23 61.25 15.54L61.25 15.54Q61.25 16.54 61.03 17.65Q60.80 18.77 60.32 19.85Q59.85 20.93 59.12 21.81Q58.38 22.69 57.37 23.21Q56.36 23.73 55.05 23.73ZM54.34 21.38L54.34 21.38Q55.36 21.38 56.09 20.80Q56.82 20.23 57.29 19.34Q57.75 18.45 57.97 17.47Q58.18 16.50 58.18 15.71L58.18 15.71Q58.18 14.33 57.56 13.52Q56.94 12.71 55.73 12.71L55.73 12.71Q54.70 12.71 53.96 13.27Q53.23 13.82 52.75 14.68Q52.27 15.54 52.04 16.50Q51.81 17.46 51.81 18.27L51.81 18.27Q51.81 19.76 52.50 20.57Q53.19 21.38 54.34 21.38ZM67.50 23.73L67.50 23.73Q66.41 23.73 65.44 23.47Q64.48 23.20 63.72 22.69Q62.96 22.17 62.53 21.41Q62.09 20.65 62.05 19.66L62.05 19.66L64.79 19.14Q64.66 20.24 65.40 20.90Q66.14 21.56 67.41 21.56L67.41 21.56Q68.16 21.56 68.71 21.30Q69.27 21.04 69.59 20.60Q69.90 20.16 69.90 19.64L69.90 19.64Q69.90 19.10 69.48 18.71Q69.06 18.32 68.21 18.12L68.21 18.12L67.01 17.81Q66.46 17.68 65.87 17.44Q65.27 17.19 64.77 16.81Q64.27 16.43 63.95 15.86Q63.63 15.29 63.63 14.51L63.63 14.51Q63.63 13.30 64.29 12.40Q64.96 11.50 66.08 10.99Q67.20 10.49 68.57 10.49L68.57 10.49Q69.89 10.49 71.02 10.93Q72.14 11.37 72.86 12.18Q73.57 13.00 73.65 14.10L73.65 14.10L70.88 14.66Q70.95 13.71 70.33 13.17Q69.71 12.62 68.59 12.62L68.59 12.62Q67.66 12.62 67.07 13.05Q66.47 13.49 66.47 14.23L66.47 14.23Q66.47 14.82 66.98 15.18Q67.50 15.53 68.44 15.77L68.44 15.77L69.73 16.11Q71.00 16.43 71.89 17.26Q72.77 18.08 72.77 19.44L72.77 19.44Q72.77 20.73 72.06 21.70Q71.34 22.66 70.15 23.20Q68.96 23.73 67.50 23.73ZM80.30 23.44L77.99 23.44Q76.66 23.44 76.04 22.74Q75.42 22.04 75.68 20.86L75.68 20.86L77.34 13.01L75.52 13.01L75.98 10.78L77.81 10.78L78.35 8.24L81.32 7.55L80.64 10.78L82.76 10.78L82.29 13.01L80.17 13.01L78.56 20.57Q78.48 20.94 78.57 21.08Q78.66 21.21 78.98 21.21L78.98 21.21L80.77 21.21L80.30 23.44ZM88.76 23.73L88.76 23.73Q87.16 23.73 85.90 23.11Q84.63 22.49 83.90 21.26Q83.17 20.04 83.17 18.25L83.17 18.25Q83.17 16.93 83.60 15.57Q84.04 14.21 84.91 13.06Q85.78 11.91 87.11 11.20Q88.43 10.49 90.21 10.49L90.21 10.49Q91.89 10.49 92.98 11.12Q94.07 11.74 94.64 12.79Q95.21 13.84 95.32 15.13Q95.43 16.42 95.12 17.73L95.12 17.73L85.13 17.73L85.50 15.88L92.99 15.88L92.44 16.55Q92.60 15.68 92.47 14.78Q92.33 13.88 91.78 13.25Q91.22 12.63 90.11 12.63L90.11 12.63Q89.02 12.63 88.26 13.24Q87.50 13.85 87.04 14.78Q86.58 15.71 86.37 16.69Q86.16 17.67 86.16 18.43L86.16 18.43Q86.16 19.88 86.86 20.68Q87.56 21.49 88.89 21.49L88.89 21.49Q89.88 21.49 90.65 20.98Q91.42 20.46 92.00 19.31L92.00 19.31L94.66 20.11Q93.68 21.97 92.14 22.85Q90.60 23.73 88.76 23.73ZM101.20 23.73L101.20 23.73Q99.82 23.73 98.85 23.09Q97.89 22.44 97.38 21.29Q96.88 20.13 96.88 18.62L96.88 18.62Q96.88 17.65 97.10 16.54Q97.32 15.43 97.79 14.36Q98.26 13.29 98.98 12.41Q99.70 11.53 100.71 11.01Q101.72 10.49 103.02 10.49L103.02 10.49Q104.55 10.49 105.63 11.24Q106.70 12 107.03 13.34L107.03 13.34L106.72 13.50L108.34 5.86L111.16 5.86L108.07 20.54Q107.99 20.91 108.08 21.04Q108.16 21.18 108.49 21.18L108.49 21.18L109.28 21.18L108.81 23.44L107.47 23.44Q106.25 23.44 105.64 22.70Q105.04 21.96 105.35 20.60L105.35 20.60L105.41 20.33L105.82 20.79Q105.01 22.31 103.82 23.02Q102.62 23.73 101.20 23.73ZM102.33 21.43L102.33 21.43Q103.37 21.43 104.12 20.87Q104.86 20.31 105.33 19.44Q105.80 18.57 106.01 17.63Q106.23 16.68 106.23 15.90L106.23 15.90Q106.23 14.36 105.50 13.56Q104.78 12.77 103.68 12.77L103.68 12.77Q102.68 12.77 101.96 13.34Q101.25 13.91 100.80 14.80Q100.35 15.69 100.14 16.67Q99.93 17.65 99.93 18.46L99.93 18.46Q99.93 19.95 100.57 20.69Q101.21 21.43 102.33 21.43ZM125.20 23.73L125.20 23.73Q122.91 23.73 121.22 22.89Q119.54 22.04 118.63 20.41Q117.73 18.79 117.73 16.46L117.73 16.46Q117.73 15.01 118.09 13.55Q118.45 12.09 119.17 10.79Q119.89 9.48 120.97 8.46Q122.05 7.43 123.49 6.85Q124.92 6.27 126.70 6.27L126.70 6.27Q128.51 6.27 129.96 6.89Q131.40 7.51 132.30 8.67Q133.21 9.83 133.38 11.45L133.38 11.45L130.24 12.20Q130.22 10.52 129.18 9.69Q128.13 8.85 126.62 8.85L126.62 8.85Q125.39 8.85 124.45 9.34Q123.50 9.83 122.83 10.65Q122.16 11.47 121.73 12.47Q121.30 13.46 121.10 14.49Q120.89 15.52 120.89 16.41L120.89 16.41Q120.89 18.55 122.02 19.85Q123.15 21.15 125.39 21.15L125.39 21.15Q126.45 21.15 127.35 20.84Q128.25 20.52 128.85 19.84L128.85 19.84L129.64 16.16L130.57 16.92L124.62 16.92L125.13 14.44L132.89 14.44L131.46 21.20Q130.88 21.94 130.13 22.43Q129.39 22.92 128.55 23.21Q127.72 23.50 126.87 23.61Q126.01 23.73 125.20 23.73ZM136.51 23.44L133.69 23.44L136.37 10.78L139.05 10.78L138.47 13.64L138.33 13.35Q139.23 11.80 140.33 11.14Q141.43 10.49 142.52 10.49L142.52 10.49Q142.95 10.49 143.34 10.57Q143.74 10.65 144.01 10.78L144.01 10.78L143.29 13.32Q142.97 13.20 142.58 13.12Q142.20 13.04 141.79 13.04L141.79 13.04Q141.29 13.04 140.72 13.22Q140.14 13.39 139.58 13.89Q139.01 14.38 138.52 15.31Q138.04 16.24 137.71 17.75L137.71 17.75L136.51 23.44ZM149.45 23.73L149.45 23.73Q147.91 23.73 146.68 23.07Q145.45 22.42 144.74 21.16Q144.02 19.91 144.02 18.13L144.02 18.13Q144.02 16.69 144.52 15.32Q145.01 13.95 145.93 12.86Q146.85 11.77 148.13 11.13Q149.41 10.49 150.98 10.49L150.98 10.49Q152.54 10.49 153.78 11.15Q155.02 11.81 155.73 13.06Q156.45 14.31 156.45 16.09L156.45 16.09Q156.45 17.54 155.95 18.91Q155.45 20.27 154.52 21.36Q153.60 22.45 152.31 23.09Q151.02 23.73 149.45 23.73ZM149.55 21.50L149.55 21.50Q150.59 21.50 151.33 20.94Q152.07 20.38 152.54 19.50Q153.01 18.62 153.24 17.65Q153.47 16.68 153.47 15.86L153.47 15.86Q153.47 14.41 152.79 13.56Q152.12 12.71 150.90 12.71L150.90 12.71Q149.88 12.71 149.14 13.28Q148.41 13.84 147.93 14.72Q147.45 15.60 147.22 16.57Q147 17.54 147 18.36L147 18.36Q147 19.80 147.67 20.65Q148.34 21.50 149.55 21.50ZM163.44 23.44L161.13 23.44Q159.81 23.44 159.19 22.74Q158.57 22.04 158.82 20.86L158.82 20.86L160.49 13.01L158.66 13.01L159.13 10.78L160.96 10.78L161.50 8.24L164.46 7.55L163.78 10.78L165.90 10.78L165.43 13.01L163.31 13.01L161.71 20.57Q161.63 20.94 161.71 21.08Q161.80 21.21 162.13 21.21L162.13 21.21L163.91 21.21L163.44 23.44ZM171.90 23.73L171.90 23.73Q170.31 23.73 169.04 23.11Q167.78 22.49 167.04 21.26Q166.31 20.04 166.31 18.25L166.31 18.25Q166.31 16.93 166.75 15.57Q167.18 14.21 168.05 13.06Q168.93 11.91 170.25 11.20Q171.57 10.49 173.36 10.49L173.36 10.49Q175.03 10.49 176.12 11.12Q177.21 11.74 177.79 12.79Q178.36 13.84 178.46 15.13Q178.57 16.42 178.27 17.73L178.27 17.73L168.27 17.73L168.64 15.88L176.13 15.88L175.58 16.55Q175.75 15.68 175.61 14.78Q175.48 13.88 174.92 13.25Q174.36 12.63 173.25 12.63L173.25 12.63Q172.16 12.63 171.40 13.24Q170.65 13.85 170.19 14.78Q169.72 15.71 169.51 16.69Q169.30 17.67 169.30 18.43L169.30 18.43Q169.30 19.88 170.00 20.68Q170.71 21.49 172.03 21.49L172.03 21.49Q173.03 21.49 173.79 20.98Q174.56 20.46 175.15 19.31L175.15 19.31L177.81 20.11Q176.82 21.97 175.28 22.85Q173.74 23.73 171.90 23.73ZM184.92 23.73L184.92 23.73Q183.83 23.73 182.87 23.47Q181.90 23.20 181.14 22.69Q180.39 22.17 179.95 21.41Q179.51 20.65 179.47 19.66L179.47 19.66L182.21 19.14Q182.09 20.24 182.82 20.90Q183.56 21.56 184.83 21.56L184.83 21.56Q185.58 21.56 186.13 21.30Q186.69 21.04 187.01 20.60Q187.32 20.16 187.32 19.64L187.32 19.64Q187.32 19.10 186.90 18.71Q186.48 18.32 185.64 18.12L185.64 18.12L184.43 17.81Q183.88 17.68 183.29 17.44Q182.70 17.19 182.19 16.81Q181.69 16.43 181.37 15.86Q181.05 15.29 181.05 14.51L181.05 14.51Q181.05 13.30 181.72 12.40Q182.38 11.50 183.50 10.99Q184.62 10.49 185.99 10.49L185.99 10.49Q187.31 10.49 188.44 10.93Q189.56 11.37 190.28 12.18Q190.99 13.00 191.07 14.10L191.07 14.10L188.30 14.66Q188.37 13.71 187.75 13.17Q187.14 12.62 186.01 12.62L186.01 12.62Q185.09 12.62 184.49 13.05Q183.89 13.49 183.89 14.23L183.89 14.23Q183.89 14.82 184.41 15.18Q184.92 15.53 185.86 15.77L185.86 15.77L187.15 16.11Q188.43 16.43 189.31 17.26Q190.20 18.08 190.20 19.44L190.20 19.44Q190.20 20.73 189.48 21.70Q188.77 22.66 187.58 23.20Q186.39 23.73 184.92 23.73ZM194.71 23.44L191.88 23.44L195.61 5.86L198.43 5.86L196.42 15.35L202.10 10.78L205.71 10.78L200.07 15.47L203.32 23.44L200.34 23.44L197.88 17.32L195.60 19.23L194.71 23.44ZM216.83 23.73L216.83 23.73Q215.18 23.73 213.94 23.03Q212.71 22.32 212.02 20.96Q211.34 19.61 211.34 17.61L211.34 17.61Q211.34 16.39 211.61 14.88Q211.88 13.37 212.45 11.86Q213.02 10.35 213.95 9.08Q214.88 7.80 216.19 7.04Q217.50 6.27 219.25 6.27L219.25 6.27Q220.79 6.27 221.98 6.91Q223.17 7.55 223.88 8.57Q224.59 9.60 224.67 10.72L224.67 10.72L221.75 11.50Q221.74 10.77 221.47 10.10Q221.20 9.43 220.65 9.01Q220.09 8.59 219.16 8.59L219.16 8.59Q218.21 8.59 217.52 9.04Q216.82 9.49 216.32 10.23Q215.81 10.97 215.47 11.85Q215.12 12.74 214.89 13.62Q214.65 14.51 214.49 15.23L214.49 15.23L214.03 15.01Q214.89 13.73 216.06 13.07Q217.24 12.40 218.70 12.40L218.70 12.40Q219.84 12.40 220.94 12.91Q222.04 13.42 222.74 14.47Q223.45 15.53 223.45 17.17L223.45 17.17Q223.45 18.40 223.00 19.58Q222.55 20.75 221.69 21.69Q220.83 22.63 219.60 23.18Q218.38 23.73 216.83 23.73ZM217.05 21.40L217.05 21.40Q217.95 21.40 218.58 21.02Q219.22 20.65 219.64 20.03Q220.05 19.42 220.25 18.71Q220.45 18 220.45 17.33L220.45 17.33Q220.45 16.01 219.67 15.36Q218.89 14.72 217.70 14.72L217.70 14.72Q216.61 14.72 215.82 15.29Q215.03 15.86 214.61 16.76Q214.18 17.67 214.18 18.69L214.18 18.69Q214.18 20.02 215.00 20.71Q215.82 21.40 217.05 21.40ZM231.12 23.73L231.12 23.73Q229.43 23.73 228.19 22.98Q226.96 22.23 226.28 20.79Q225.60 19.35 225.60 17.29L225.60 17.29Q225.60 16.09 225.86 14.63Q226.11 13.16 226.68 11.69Q227.24 10.22 228.15 8.99Q229.07 7.77 230.38 7.02Q231.69 6.27 233.45 6.27L233.45 6.27Q235.14 6.27 236.38 7.02Q237.63 7.77 238.32 9.21Q239.02 10.64 239.02 12.70L239.02 12.70Q239.02 13.89 238.76 15.35Q238.50 16.82 237.93 18.29Q237.36 19.76 236.44 20.99Q235.51 22.23 234.19 22.98Q232.88 23.73 231.12 23.73ZM231.23 21.33L231.23 21.33Q232.29 21.33 233.08 20.66Q233.87 19.99 234.43 18.93Q234.98 17.86 235.32 16.64Q235.66 15.42 235.82 14.30Q235.97 13.17 235.97 12.40L235.97 12.40Q235.97 10.68 235.27 9.67Q234.56 8.67 233.30 8.67L233.30 8.67Q232.24 8.67 231.46 9.34Q230.68 10.01 230.14 11.07Q229.61 12.13 229.28 13.35Q228.95 14.57 228.80 15.70Q228.64 16.83 228.64 17.60L228.64 17.60Q228.64 19.32 229.31 20.33Q229.97 21.33 231.23 21.33ZM245.98 23.73L245.98 23.73Q244.29 23.73 243.05 22.98Q241.82 22.23 241.14 20.79Q240.46 19.35 240.46 17.29L240.46 17.29Q240.46 16.09 240.71 14.63Q240.97 13.16 241.54 11.69Q242.10 10.22 243.01 8.99Q243.93 7.77 245.24 7.02Q246.55 6.27 248.31 6.27L248.31 6.27Q250.00 6.27 251.24 7.02Q252.49 7.77 253.18 9.21Q253.88 10.64 253.88 12.70L253.88 12.70Q253.88 13.89 253.62 15.35Q253.36 16.82 252.79 18.29Q252.22 19.76 251.30 20.99Q250.37 22.23 249.05 22.98Q247.73 23.73 245.98 23.73ZM246.09 21.33L246.09 21.33Q247.15 21.33 247.94 20.66Q248.73 19.99 249.29 18.93Q249.84 17.86 250.18 16.64Q250.52 15.42 250.68 14.30Q250.83 13.17 250.83 12.40L250.83 12.40Q250.83 10.68 250.13 9.67Q249.42 8.67 248.16 8.67L248.16 8.67Q247.10 8.67 246.32 9.34Q245.54 10.01 245.00 11.07Q244.46 12.13 244.14 13.35Q243.81 14.57 243.66 15.70Q243.50 16.83 243.50 17.60L243.50 17.60Q243.50 19.32 244.17 20.33Q244.83 21.33 246.09 21.33ZM262.39 10.78L265.22 10.78L262.54 23.44L259.72 23.44L262.39 10.78ZM264.50 9.04L264.50 9.04Q263.60 9.04 263.07 8.50Q262.55 7.96 262.55 7.10L262.55 7.10Q262.55 6.16 263.16 5.55Q263.78 4.93 264.74 4.93L264.74 4.93Q265.63 4.93 266.16 5.47Q266.70 6.01 266.70 6.87L266.70 6.87Q266.70 7.79 266.08 8.41Q265.46 9.04 264.50 9.04ZM271.71 23.44L269.40 23.44Q268.08 23.44 267.46 22.74Q266.84 22.04 267.09 20.86L267.09 20.86L268.76 13.01L266.93 13.01L267.40 10.78L269.23 10.78L269.77 8.24L272.73 7.55L272.05 10.78L274.17 10.78L273.70 13.01L271.58 13.01L269.98 20.57Q269.89 20.94 269.98 21.08Q270.07 21.21 270.40 21.21L270.40 21.21L272.18 21.21L271.71 23.44ZM278.85 23.73L278.85 23.73Q277.44 23.73 276.47 23.09Q275.50 22.44 274.99 21.29Q274.49 20.14 274.49 18.62L274.49 18.62Q274.49 17.65 274.71 16.54Q274.93 15.43 275.40 14.36Q275.87 13.29 276.60 12.41Q277.32 11.53 278.33 11.01Q279.33 10.49 280.63 10.49L280.63 10.49Q282.16 10.49 283.24 11.24Q284.32 12 284.64 13.34L284.64 13.34L284.40 13.50L284.99 10.78L287.74 10.78L285.67 20.57Q285.60 20.92 285.67 21.06Q285.74 21.21 286.09 21.21L286.09 21.21L286.86 21.21L286.41 23.44L285.08 23.44Q283.86 23.44 283.27 22.74Q282.67 22.04 282.91 20.86L282.91 20.86L283.02 20.37L283.50 20.79Q282.69 22.30 281.48 23.02Q280.27 23.73 278.85 23.73ZM279.95 21.43L279.95 21.43Q280.99 21.43 281.74 20.87Q282.48 20.31 282.94 19.44Q283.41 18.57 283.63 17.63Q283.85 16.68 283.85 15.90L283.85 15.90Q283.85 14.36 283.12 13.56Q282.39 12.77 281.29 12.77L281.29 12.77Q280.29 12.77 279.57 13.34Q278.86 13.91 278.41 14.80Q277.96 15.69 277.75 16.67Q277.54 17.65 277.54 18.46L277.54 18.46Q277.54 19.95 278.18 20.69Q278.82 21.43 279.95 21.43ZM292.93 23.44L291.53 23.44Q290.21 23.44 289.59 22.74Q288.97 22.04 289.23 20.86L289.23 20.86L292.41 5.86L295.23 5.86L292.11 20.57Q292.03 20.94 292.12 21.08Q292.21 21.21 292.54 21.21L292.54 21.21L293.39 21.21L292.93 23.44ZM297.90 10.78L300.73 10.78L298.04 23.44L295.23 23.44L297.90 10.78ZM300.01 9.04L300.01 9.04Q299.11 9.04 298.58 8.50Q298.05 7.96 298.05 7.10L298.05 7.10Q298.05 6.16 298.67 5.55Q299.29 4.93 300.25 4.93L300.25 4.93Q301.14 4.93 301.67 5.47Q302.20 6.01 302.20 6.87L302.20 6.87Q302.20 7.79 301.59 8.41Q300.97 9.04 300.01 9.04ZM307.31 23.73L307.31 23.73Q305.78 23.73 304.55 23.12Q303.32 22.50 302.60 21.29Q301.89 20.09 301.89 18.35L301.89 18.35Q301.89 17.02 302.31 15.63Q302.74 14.25 303.60 13.08Q304.46 11.92 305.74 11.20Q307.01 10.49 308.70 10.49L308.70 10.49Q310.16 10.49 311.32 11.04Q312.48 11.59 313.18 12.58Q313.88 13.57 313.93 14.91L313.93 14.91L311.14 15.55Q311.17 14.79 310.89 14.14Q310.62 13.50 310.06 13.11Q309.50 12.71 308.66 12.71L308.66 12.71Q307.62 12.71 306.89 13.32Q306.16 13.93 305.72 14.87Q305.27 15.80 305.07 16.79Q304.86 17.78 304.86 18.54L304.86 18.54Q304.86 19.91 305.53 20.70Q306.20 21.49 307.45 21.49L307.45 21.49Q308.43 21.49 309.22 20.85Q310.02 20.20 310.56 18.84L310.56 18.84L313.25 19.46Q312.66 20.99 311.71 21.93Q310.76 22.86 309.63 23.30Q308.50 23.73 307.31 23.73Z"/></svg>