<svg xmlns="http://www.w3.org/2000/svg" xmlns:xlink="http://www.w3.org/1999/xlink" width="182.30400000000003" height="29.28"><path fill="black" d="M6.96 23.42L6.96 23.42Q4.20 23.42 2.65 21.66Q1.10 19.90 1.10 16.87L1.10 16.87Q1.10 12.67 3.34 9.84Q5.57 7.01 9.10 7.01L9.10 7.01Q11.90 7.01 13.48 8.75Q15.05 10.49 15.05 13.54L15.05 13.54Q15.05 17.66 12.82 20.54Q10.58 23.42 6.96 23.42ZM8.76 8.88L8.76 8.88Q6.53 8.88 5.21 11.00Q3.89 13.13 3.89 16.22L3.89 16.22Q3.89 17.30 4.08 18.24Q4.27 19.18 4.66 19.94Q5.04 20.71 5.72 21.16Q6.41 21.60 7.32 21.60L7.32 21.60Q8.88 21.60 10.02 20.51Q11.16 19.42 11.69 17.75Q12.22 16.08 12.22 14.11L12.22 14.11Q12.22 11.86 11.38 10.37Q10.54 8.88 8.76 8.88ZM17.11 14.21L17.11 14.21Q17.11 13.01 16.66 12.05L16.66 12.05Q17.59 11.57 18.55 11.57L18.55 11.57Q20.09 11.57 20.09 13.15L20.09 13.15Q20.09 14.02 19.70 16.30Q19.32 18.58 19.32 19.66L19.32 19.66Q19.32 20.93 19.66 21.60L19.66 21.60Q20.98 21.31 21.96 18.76Q22.94 16.20 22.94 14.14L22.94 14.14Q22.94 12.74 22.58 12L22.58 12Q23.33 11.57 24.36 11.57L24.36 11.57Q25.10 11.57 25.44 12.02Q25.78 12.48 25.78 13.15L25.78 13.15Q25.78 14.30 25.24 16.00Q24.70 17.69 23.80 19.37Q22.90 21.05 21.48 22.24Q20.06 23.42 18.55 23.42L18.55 23.42Q18.05 23.42 17.64 23.23L17.64 23.23Q16.63 22.20 16.63 19.94L16.63 19.94Q16.63 18.84 16.87 17.23Q17.11 15.62 17.11 14.21ZM29.45 18.89L29.45 18.89Q29.47 20.38 30.04 21.11Q30.60 21.84 31.42 21.84L31.42 21.84Q32.09 21.84 32.74 21.38Q33.38 20.93 33.79 20.16L33.79 20.16Q34.94 20.62 34.94 21.58L34.94 21.58Q34.94 22.32 33.82 22.87Q32.69 23.42 31.22 23.42L31.22 23.42Q30.31 23.42 29.51 23.17Q28.70 22.92 28.00 22.40Q27.29 21.89 26.88 20.96Q26.47 20.04 26.47 18.79L26.47 18.79Q26.47 17.04 27.05 15.61Q27.62 14.18 28.55 13.33Q29.47 12.48 30.54 12.02Q31.61 11.57 32.66 11.57L32.66 11.57Q34.27 11.57 35.09 12.40Q35.90 13.22 35.90 14.47L35.90 14.47Q35.90 15.67 35.21 16.79Q34.51 17.90 33.34 18.38L33.34 18.38Q32.04 18.94 30.24 18.94L30.24 18.94Q29.88 18.94 29.45 18.89ZM32.93 14.59L32.93 14.59Q32.93 13.97 32.63 13.55Q32.33 13.13 31.85 13.13L31.85 13.13Q30.96 13.13 30.29 14.39Q29.62 15.65 29.47 17.52L29.47 17.52Q29.93 17.52 30.25 17.48Q30.58 17.45 31.13 17.28Q31.68 17.11 32.03 16.82Q32.38 16.54 32.65 15.96Q32.93 15.38 32.93 14.59ZM43.80 13.92L43.80 13.92Q42.38 13.92 41.06 15.96L41.06 15.96Q40.44 20.18 40.44 21.77L40.44 21.77Q40.44 22.46 40.51 23.06L40.51 23.06Q39.58 23.28 38.93 23.28L38.93 23.28Q37.61 23.28 37.61 22.44L37.61 22.44Q37.61 22.13 38.15 18.64Q38.69 15.14 38.69 14.47L38.69 14.47Q38.69 13.46 38.02 13.18L38.02 13.18Q38.11 12.43 38.66 12Q39.22 11.57 39.89 11.57L39.89 11.57Q40.51 11.57 40.94 11.95Q41.38 12.34 41.38 13.06L41.38 13.06Q41.38 13.46 41.30 13.90L41.30 13.90Q41.88 12.96 42.73 12.26Q43.58 11.57 44.47 11.57L44.47 11.57Q45.55 11.57 45.55 12.72L45.55 12.72Q45.55 13.66 44.88 14.38L44.88 14.38Q44.42 13.92 43.80 13.92ZM47.64 5.83Q48.17 5.35 48.94 5.35Q49.70 5.35 50.06 5.80Q50.42 6.24 50.42 6.89L50.42 6.89Q50.42 7.78 49.52 13.79Q48.62 19.80 48.55 20.57L48.55 20.57Q48.55 21.58 49.44 21.94L49.44 21.94Q49.15 23.42 47.74 23.42L47.74 23.42Q46.87 23.42 46.45 22.78Q46.03 22.13 46.03 21.24L46.03 21.24Q46.03 20.11 46.84 14.71Q47.64 9.31 47.71 8.18L47.71 8.18Q47.71 7.30 47.06 6.96L47.06 6.96Q47.11 6.31 47.64 5.83ZM55.80 23.42L55.80 23.42Q53.69 23.42 52.51 22.19Q51.34 20.95 51.34 18.74L51.34 18.74Q51.34 15.72 53.06 13.64Q54.79 11.57 57.48 11.57L57.48 11.57Q59.64 11.57 60.85 12.83Q62.06 14.09 62.06 16.30L62.06 16.30Q62.06 19.30 60.28 21.36Q58.49 23.42 55.80 23.42ZM57.14 13.15L57.14 13.15Q55.82 13.15 55.06 14.72Q54.29 16.30 54.29 18.36L54.29 18.36Q54.29 19.87 54.80 20.86Q55.32 21.84 56.26 21.84L56.26 21.84Q57.55 21.84 58.32 20.30Q59.09 18.77 59.09 16.73L59.09 16.73Q59.09 15.17 58.57 14.16Q58.06 13.15 57.14 13.15ZM70.85 15.10L70.85 15.10Q70.34 13.27 69.10 13.27Q67.85 13.27 67.08 14.82Q66.31 16.37 66.31 18.50L66.31 18.50Q66.31 20.18 66.86 21.01Q67.42 21.84 68.30 21.84L68.30 21.84Q69.74 21.84 70.68 20.16L70.68 20.16Q71.83 20.62 71.83 21.58L71.83 21.58Q71.83 22.32 70.68 22.87Q69.53 23.42 68.11 23.42L68.11 23.42Q65.93 23.42 64.64 22.20Q63.36 20.98 63.36 18.86L63.36 18.86Q63.36 17.09 63.91 15.65Q64.46 14.21 65.38 13.34Q66.29 12.48 67.34 12.02Q68.40 11.57 69.50 11.57L69.50 11.57Q70.70 11.57 71.76 12.06Q72.82 12.55 72.82 13.51L72.82 13.51Q72.82 14.09 72.36 14.58Q71.90 15.07 70.85 15.10ZM81.36 11.57L81.36 11.57Q82.68 11.57 83.34 12.28Q84 12.98 84 14.11L84 14.11Q84 15.65 82.91 17.06Q81.82 18.48 80.14 18.70L80.14 18.70Q80.88 20.21 81.43 20.86L81.43 20.86Q81.96 21.48 82.82 21.48L82.82 21.48Q83.11 21.48 83.47 21.41L83.47 21.41Q83.57 21.77 83.57 22.18L83.57 22.18Q83.57 23.42 81.82 23.42L81.82 23.42Q80.52 23.42 79.75 22.34Q78.98 21.26 78.05 18.65L78.05 18.65Q77.66 18.41 77.66 18.05L77.66 18.05Q77.66 17.66 77.98 17.18L77.98 17.18Q78.48 17.38 78.89 17.38L78.89 17.38Q79.82 17.38 80.44 16.64Q81.05 15.91 81.05 14.90L81.05 14.90Q81.05 14.26 80.78 13.82Q80.52 13.39 79.99 13.39L79.99 13.39Q79.42 13.39 78.58 14.38Q77.74 15.36 77.23 16.78L77.23 16.78Q76.73 20.21 76.73 21.77L76.73 21.77Q76.73 22.46 76.80 23.06L76.80 23.06Q75.86 23.28 75.22 23.28L75.22 23.28Q73.90 23.28 73.90 22.44Q73.90 21.60 74.92 15.32Q75.94 9.05 75.94 8.18L75.94 8.18Q75.94 7.30 75.29 6.96L75.29 6.96Q75.34 6.31 75.86 5.83Q76.39 5.35 77.16 5.35Q77.93 5.35 78.29 5.80Q78.65 6.24 78.65 6.89L78.65 6.89Q78.65 7.46 78.31 9.94Q77.98 12.41 77.71 13.87L77.71 13.87Q79.25 11.57 81.36 11.57ZM90.17 22.13L90.17 22.13Q92.45 20.14 94.97 16.31Q97.49 12.48 99.05 9.31L99.05 9.31Q96.12 9.41 93.00 9.41L93.00 9.41Q91.46 9.41 91.46 8.26L91.46 8.26Q91.46 7.68 91.78 7.10L91.78 7.10Q92.93 7.30 94.42 7.30L94.42 7.30Q100.63 7.30 101.83 7.25L101.83 7.25Q101.90 7.58 101.90 7.90L101.90 7.90Q101.90 8.54 101.64 9.05L101.64 9.05Q101.42 9.58 100.76 10.72Q100.10 11.86 99.11 13.46Q98.11 15.07 97.30 16.36Q96.48 17.64 95.34 19.43Q94.20 21.22 93.84 21.77L93.84 21.77Q93.19 22.80 92.78 23.11Q92.38 23.42 91.99 23.42L91.99 23.42Q90.89 23.42 90.17 22.13ZM108.60 23.42L108.60 23.42Q106.42 23.42 105.10 21.77Q103.78 20.11 103.78 17.28L103.78 17.28Q103.78 14.62 104.65 12.29Q105.53 9.96 107.17 8.50Q108.82 7.03 110.86 7.03L110.86 7.03Q113.04 7.03 114.32 8.68Q115.61 10.32 115.61 13.18L115.61 13.18Q115.61 15.82 114.77 18.14Q113.93 20.47 112.30 21.95Q110.66 23.42 108.60 23.42ZM106.51 16.58L106.51 16.58Q106.51 18.77 107.09 20.21Q107.66 21.65 108.82 21.65L108.82 21.65Q110.04 21.65 111.01 20.50Q111.98 19.34 112.48 17.57Q112.97 15.79 112.97 13.82L112.97 13.82Q112.97 11.71 112.39 10.26Q111.82 8.81 110.64 8.81L110.64 8.81Q108.89 8.81 107.70 11.09Q106.51 13.37 106.51 16.58ZM122.38 23.42L122.38 23.42Q120.19 23.42 118.87 21.77Q117.55 20.11 117.55 17.28L117.55 17.28Q117.55 14.62 118.43 12.29Q119.30 9.96 120.95 8.50Q122.59 7.03 124.63 7.03L124.63 7.03Q126.82 7.03 128.10 8.68Q129.38 10.32 129.38 13.18L129.38 13.18Q129.38 15.82 128.54 18.14Q127.70 20.47 126.07 21.95Q124.44 23.42 122.38 23.42ZM120.29 16.58L120.29 16.58Q120.29 18.77 120.86 20.21Q121.44 21.65 122.59 21.65L122.59 21.65Q123.82 21.65 124.79 20.50Q125.76 19.34 126.25 17.57Q126.74 15.79 126.74 13.82L126.74 13.82Q126.74 11.71 126.17 10.26Q125.59 8.81 124.42 8.81L124.42 8.81Q122.66 8.81 121.48 11.09Q120.29 13.37 120.29 16.58ZM138.53 10.44L138.53 10.44Q137.93 10.44 137.56 10.04Q137.18 9.65 137.18 8.98L137.18 8.98Q137.18 8.21 137.71 7.66Q138.24 7.10 138.94 7.10L138.94 7.10Q139.49 7.10 139.88 7.55Q140.28 7.99 140.28 8.64L140.28 8.64Q140.28 9.38 139.72 9.91Q139.15 10.44 138.53 10.44ZM137.02 14.40L137.02 14.40Q137.02 13.49 136.37 13.18L136.37 13.18Q136.44 12.46 136.99 12.01Q137.54 11.57 138.24 11.57L138.24 11.57Q138.86 11.57 139.30 11.95Q139.73 12.34 139.73 13.08L139.73 13.08Q139.73 13.99 139.07 17.15Q138.41 20.30 138.41 20.59L138.41 20.59Q138.41 21.55 139.30 21.94L139.30 21.94Q139.20 22.56 138.76 22.99Q138.31 23.42 137.62 23.42L137.62 23.42Q136.73 23.42 136.31 22.78Q135.89 22.13 135.89 21.24L135.89 21.24Q135.89 20.11 136.45 17.66Q137.02 15.22 137.02 14.40ZM142.30 11.83L142.30 11.83L143.11 11.83Q143.14 11.69 143.24 10.73Q143.35 9.77 143.38 9.43L143.38 9.43Q143.88 9.26 144.72 9.26L144.72 9.26Q146.04 9.26 146.04 10.08L146.04 10.08Q146.04 10.20 145.75 11.86L145.75 11.86Q147.79 11.86 149.35 11.74L149.35 11.74Q149.42 12.02 149.42 12.31L149.42 12.31Q149.42 13.44 148.32 13.51L148.32 13.51Q147.58 13.54 145.49 13.54L145.49 13.54Q144.62 19.10 144.62 19.99L144.62 19.99Q144.62 21.05 144.98 21.41Q145.34 21.77 146.11 21.77Q146.88 21.77 147.55 21.05L147.55 21.05Q148.18 21.48 148.18 22.15L148.18 22.15Q148.18 23.42 145.37 23.42L145.37 23.42Q143.98 23.42 143.04 22.68Q142.10 21.94 142.10 20.18L142.10 20.18Q142.10 19.66 142.24 18.60Q142.37 17.54 142.61 15.94Q142.85 14.33 142.94 13.54L142.94 13.54Q142.54 13.54 140.95 13.68L140.95 13.68Q140.90 13.34 140.90 13.18L140.90 13.18Q140.90 11.83 142.30 11.83ZM156.14 20.93L156.14 20.93Q154.49 23.42 152.47 23.42L152.47 23.42Q151.10 23.42 150.25 22.32Q149.40 21.22 149.40 19.10L149.40 19.10Q149.40 16.01 151.07 13.79Q152.74 11.57 155.16 11.57L155.16 11.57Q157.80 11.57 159.84 12.94L159.84 12.94Q158.66 18.31 158.66 20.40L158.66 20.40Q158.66 21.53 159.58 21.94L159.58 21.94Q159.48 22.49 159.04 22.96Q158.59 23.42 157.82 23.42L157.82 23.42Q157.03 23.42 156.58 22.85Q156.12 22.27 156.12 21.38L156.12 21.38Q156.12 21.07 156.14 20.93ZM156.41 18.24L156.41 18.24L157.06 14.16Q156.12 13.15 155.14 13.15L155.14 13.15Q153.94 13.15 153.14 14.68Q152.35 16.20 152.35 18.60L152.35 18.60Q152.35 19.90 152.75 20.75Q153.14 21.60 153.79 21.60L153.79 21.60Q154.37 21.60 155.11 20.65Q155.86 19.70 156.41 18.24ZM163.34 5.83Q163.87 5.35 164.64 5.35Q165.41 5.35 165.77 5.80Q166.13 6.24 166.13 6.89L166.13 6.89Q166.13 7.78 165.23 13.79Q164.33 19.80 164.26 20.57L164.26 20.57Q164.26 21.58 165.14 21.94L165.14 21.94Q164.86 23.42 163.44 23.42L163.44 23.42Q162.58 23.42 162.16 22.78Q161.74 22.13 161.74 21.24L161.74 21.24Q161.74 20.11 162.54 14.71Q163.34 9.31 163.42 8.18L163.42 8.18Q163.42 7.30 162.77 6.96L162.77 6.96Q162.82 6.31 163.34 5.83ZM169.99 10.44L169.99 10.44Q169.39 10.44 169.02 10.04Q168.65 9.65 168.65 8.98L168.65 8.98Q168.65 8.21 169.18 7.66Q169.70 7.10 170.40 7.10L170.40 7.10Q170.95 7.10 171.35 7.55Q171.74 7.99 171.74 8.64L171.74 8.64Q171.74 9.38 171.18 9.91Q170.62 10.44 169.99 10.44ZM168.48 14.40L168.48 14.40Q168.48 13.49 167.83 13.18L167.83 13.18Q167.90 12.46 168.46 12.01Q169.01 11.57 169.70 11.57L169.70 11.57Q170.33 11.57 170.76 11.95Q171.19 12.34 171.19 13.08L171.19 13.08Q171.19 13.99 170.53 17.15Q169.87 20.30 169.87 20.59L169.87 20.59Q169.87 21.55 170.76 21.94L170.76 21.94Q170.66 22.56 170.22 22.99Q169.78 23.42 169.08 23.42L169.08 23.42Q168.19 23.42 167.77 22.78Q167.35 22.13 167.35 21.24L167.35 21.24Q167.35 20.11 167.92 17.66Q168.48 15.22 168.48 14.40ZM180.10 15.10L180.10 15.10Q179.59 13.27 178.34 13.27Q177.10 13.27 176.33 14.82Q175.56 16.37 175.56 18.50L175.56 18.50Q175.56 20.18 176.11 21.01Q176.66 21.84 177.55 21.84L177.55 21.84Q178.99 21.84 179.93 20.16L179.93 20.16Q181.08 20.62 181.08 21.58L181.08 21.58Q181.08 22.32 179.93 22.87Q178.78 23.42 177.36 23.42L177.36 23.42Q175.18 23.42 173.89 22.20Q172.61 20.98 172.61 18.86L172.61 18.86Q172.61 17.09 173.16 15.65Q173.71 14.21 174.62 13.34Q175.54 12.48 176.59 12.02Q177.65 11.57 178.75 11.57L178.75 11.57Q179.95 11.57 181.01 12.06Q182.06 12.55 182.06 13.51L182.06 13.51Q182.06 14.09 181.61 14.58Q181.15 15.07 180.10 15.10Z"/></svg>