<svg xmlns="http://www.w3.org/2000/svg" xmlns:xlink="http://www.w3.org/1999/xlink" width="203.688" height="30.240000000000002"><path fill="black" d="M8.23 23.71L8.23 23.71Q6.05 23.71 4.51 22.99Q2.98 22.27 2.16 21Q1.34 19.73 1.34 18.12L1.34 18.12L3.70 18.12Q3.70 18.91 4.12 19.70Q4.54 20.50 5.53 21.02Q6.53 21.55 8.23 21.55L8.23 21.55Q9.82 21.55 10.82 21.08Q11.83 20.62 12.31 19.86Q12.79 19.10 12.79 18.22L12.79 18.22Q12.79 17.14 11.86 16.43Q10.92 15.72 9.12 15.55L9.12 15.55L7.18 15.38Q4.85 15.19 3.46 13.94Q2.06 12.70 2.06 10.66L2.06 10.66Q2.06 9.05 2.84 7.85Q3.62 6.65 5.02 5.96Q6.41 5.28 8.26 5.28L8.26 5.28Q10.08 5.28 11.47 5.95Q12.86 6.62 13.64 7.84Q14.42 9.05 14.42 10.73L14.42 10.73L12.07 10.73Q12.07 9.89 11.68 9.14Q11.28 8.40 10.44 7.92Q9.60 7.44 8.26 7.44L8.26 7.44Q6.96 7.44 6.11 7.90Q5.26 8.35 4.84 9.08Q4.42 9.82 4.42 10.66L4.42 10.66Q4.42 11.62 5.16 12.36Q5.90 13.10 7.37 13.22L7.37 13.22L9.31 13.39Q11.11 13.54 12.42 14.15Q13.73 14.76 14.44 15.78Q15.14 16.80 15.14 18.22L15.14 18.22Q15.14 19.82 14.28 21.07Q13.42 22.32 11.86 23.02Q10.30 23.71 8.23 23.71ZM24.65 23.71L24.65 23.71Q22.97 23.71 21.70 23.14Q20.42 22.56 19.55 21.61Q18.67 20.66 18.23 19.49Q17.78 18.31 17.78 17.09L17.78 17.09L17.78 16.66Q17.78 15.43 18.24 14.24Q18.70 13.06 19.58 12.11Q20.47 11.16 21.74 10.60Q23.02 10.03 24.65 10.03L24.65 10.03Q26.28 10.03 27.55 10.60Q28.82 11.16 29.71 12.11Q30.60 13.06 31.06 14.24Q31.51 15.43 31.51 16.66L31.51 16.66L31.51 17.09Q31.51 18.31 31.07 19.49Q30.62 20.66 29.75 21.61Q28.87 22.56 27.60 23.14Q26.33 23.71 24.65 23.71ZM24.65 21.65L24.65 21.65Q26.09 21.65 27.11 21.01Q28.13 20.38 28.67 19.30Q29.21 18.22 29.21 16.87L29.21 16.87Q29.21 15.50 28.66 14.42Q28.10 13.34 27.08 12.72Q26.06 12.10 24.65 12.10L24.65 12.10Q23.26 12.10 22.22 12.72Q21.19 13.34 20.64 14.42Q20.09 15.50 20.09 16.87L20.09 16.87Q20.09 18.22 20.63 19.30Q21.17 20.38 22.19 21.01Q23.21 21.65 24.65 21.65ZM37.27 23.28L34.97 23.28L34.97 10.46L36.79 10.46L36.79 15.74L36.70 15.74Q36.70 12.94 37.93 11.63Q39.17 10.32 41.64 10.32L41.64 10.32L42.07 10.32L42.07 12.38L41.26 12.38Q39.34 12.38 38.30 13.40Q37.27 14.42 37.27 16.34L37.27 16.34L37.27 23.28ZM54.34 23.28L52.51 23.28L52.51 19.44L52.13 19.44L52.13 15.00Q52.13 13.68 51.44 13.01Q50.76 12.34 49.44 12.34L49.44 12.34Q48.70 12.34 47.90 12.36Q47.11 12.38 46.39 12.41Q45.67 12.43 45.14 12.48L45.14 12.48L45.14 10.46Q45.67 10.42 46.26 10.38Q46.85 10.34 47.47 10.33Q48.10 10.32 48.67 10.32L48.67 10.32Q50.64 10.32 51.89 10.79Q53.14 11.26 53.74 12.31Q54.34 13.37 54.34 15.17L54.34 15.17L54.34 23.28ZM48.31 23.62L48.31 23.62Q46.87 23.62 45.83 23.12Q44.78 22.63 44.22 21.70Q43.66 20.76 43.66 19.44L43.66 19.44Q43.66 18.07 44.27 17.16Q44.88 16.25 46.06 15.78Q47.23 15.31 48.89 15.31L48.89 15.31L52.37 15.31L52.37 17.04L48.79 17.04Q47.40 17.04 46.66 17.71Q45.91 18.38 45.91 19.44L45.91 19.44Q45.91 20.50 46.66 21.14Q47.40 21.79 48.79 21.79L48.79 21.79Q49.61 21.79 50.35 21.49Q51.10 21.19 51.59 20.48Q52.08 19.78 52.13 18.53L52.13 18.53L52.75 19.44Q52.63 20.81 52.09 21.73Q51.55 22.66 50.60 23.14Q49.66 23.62 48.31 23.62ZM76.61 19.13L62.98 19.13L62.98 16.30L70.25 5.33L71.86 6.60L65.06 16.87L65.28 17.30L76.61 17.30L76.61 19.13ZM74.28 23.28L72.12 23.28L72.12 10.87L74.28 10.87L74.28 23.28ZM86.16 23.71L86.16 23.71Q84.19 23.71 82.81 23.03Q81.43 22.34 80.58 21.17Q79.73 19.99 79.34 18.44Q78.96 16.90 78.96 15.17L78.96 15.17L78.96 13.87Q78.96 11.45 79.72 9.50Q80.47 7.56 82.07 6.42Q83.66 5.28 86.16 5.28L86.16 5.28Q88.66 5.28 90.24 6.42Q91.82 7.56 92.58 9.50Q93.34 11.45 93.34 13.87L93.34 13.87L93.34 15.17Q93.34 16.90 92.95 18.44Q92.57 19.99 91.72 21.17Q90.86 22.34 89.50 23.03Q88.13 23.71 86.16 23.71ZM86.16 21.60L86.16 21.60Q88.66 21.60 89.82 19.91Q90.98 18.22 90.98 14.54L90.98 14.54Q90.98 10.70 89.80 9.05Q88.61 7.39 86.16 7.39L86.16 7.39Q83.69 7.39 82.50 9.05Q81.31 10.70 81.31 14.50L81.31 14.50Q81.31 18.19 82.49 19.90Q83.66 21.60 86.16 21.60ZM103.99 23.71L103.99 23.71Q102.02 23.71 100.64 23.03Q99.26 22.34 98.41 21.17Q97.56 19.99 97.18 18.44Q96.79 16.90 96.79 15.17L96.79 15.17L96.79 13.87Q96.79 11.45 97.55 9.50Q98.30 7.56 99.90 6.42Q101.50 5.28 103.99 5.28L103.99 5.28Q106.49 5.28 108.07 6.42Q109.66 7.56 110.41 9.50Q111.17 11.45 111.17 13.87L111.17 13.87L111.17 15.17Q111.17 16.90 110.78 18.44Q110.40 19.99 109.55 21.17Q108.70 22.34 107.33 23.03Q105.96 23.71 103.99 23.71ZM103.99 21.60L103.99 21.60Q106.49 21.60 107.65 19.91Q108.82 18.22 108.82 14.54L108.82 14.54Q108.82 10.70 107.63 9.05Q106.44 7.39 103.99 7.39L103.99 7.39Q101.52 7.39 100.33 9.05Q99.14 10.70 99.14 14.50L99.14 14.50Q99.14 18.19 100.32 19.90Q101.50 21.60 103.99 21.60ZM122.88 23.28L120.58 23.28L120.58 10.46L122.40 10.46L122.40 15.96L122.11 15.96Q122.11 14.06 122.63 12.76Q123.14 11.45 124.20 10.76Q125.26 10.08 126.86 10.08L126.86 10.08L126.96 10.08Q129.38 10.08 130.55 11.59Q131.71 13.10 131.71 15.96L131.71 15.96L131.71 23.28L129.41 23.28L129.41 15.48Q129.41 13.99 128.57 13.09Q127.73 12.19 126.26 12.19L126.26 12.19Q124.75 12.19 123.82 13.13Q122.88 14.06 122.88 15.62L122.88 15.62L122.88 23.28ZM141.84 23.71L141.84 23.71Q140.16 23.71 138.89 23.14Q137.62 22.56 136.74 21.61Q135.86 20.66 135.42 19.49Q134.98 18.31 134.98 17.09L134.98 17.09L134.98 16.66Q134.98 15.43 135.43 14.24Q135.89 13.06 136.78 12.11Q137.66 11.16 138.94 10.60Q140.21 10.03 141.84 10.03L141.84 10.03Q143.47 10.03 144.74 10.60Q146.02 11.16 146.90 12.11Q147.79 13.06 148.25 14.24Q148.70 15.43 148.70 16.66L148.70 16.66L148.70 17.09Q148.70 18.31 148.26 19.49Q147.82 20.66 146.94 21.61Q146.06 22.56 144.79 23.14Q143.52 23.71 141.84 23.71ZM141.84 21.65L141.84 21.65Q143.28 21.65 144.30 21.01Q145.32 20.38 145.86 19.30Q146.40 18.22 146.40 16.87L146.40 16.87Q146.40 15.50 145.85 14.42Q145.30 13.34 144.28 12.72Q143.26 12.10 141.84 12.10L141.84 12.10Q140.45 12.10 139.42 12.72Q138.38 13.34 137.83 14.42Q137.28 15.50 137.28 16.87L137.28 16.87Q137.28 18.22 137.82 19.30Q138.36 20.38 139.38 21.01Q140.40 21.65 141.84 21.65ZM154.46 23.28L152.16 23.28L152.16 10.46L153.98 10.46L153.98 15.74L153.89 15.74Q153.89 12.94 155.12 11.63Q156.36 10.32 158.83 10.32L158.83 10.32L159.26 10.32L159.26 12.38L158.45 12.38Q156.53 12.38 155.50 13.40Q154.46 14.42 154.46 16.34L154.46 16.34L154.46 23.28ZM164.30 23.28L162.00 23.28L162.00 10.46L163.82 10.46L163.82 15.96L163.54 15.96Q163.54 14.09 164.03 12.78Q164.52 11.47 165.50 10.78Q166.49 10.08 168.00 10.08L168.00 10.08L168.10 10.08Q169.61 10.08 170.60 10.78Q171.60 11.47 172.08 12.78Q172.56 14.09 172.56 15.96L172.56 15.96L171.89 15.96Q171.89 14.09 172.39 12.78Q172.90 11.47 173.89 10.78Q174.89 10.08 176.40 10.08L176.40 10.08L176.50 10.08Q178.01 10.08 179.02 10.78Q180.02 11.47 180.52 12.78Q181.01 14.09 181.01 15.96L181.01 15.96L181.01 23.28L178.70 23.28L178.70 15.46Q178.70 13.90 177.94 13.04Q177.17 12.19 175.80 12.19L175.80 12.19Q174.38 12.19 173.52 13.09Q172.66 13.99 172.66 15.60L172.66 15.60L172.66 23.28L170.35 23.28L170.35 15.46Q170.35 13.90 169.58 13.04Q168.82 12.19 167.45 12.19L167.45 12.19Q166.03 12.19 165.17 13.09Q164.30 13.99 164.30 15.60L164.30 15.60L164.30 23.28ZM194.81 23.28L192.98 23.28L192.98 19.44L192.60 19.44L192.60 15.00Q192.60 13.68 191.92 13.01Q191.23 12.34 189.91 12.34L189.91 12.34Q189.17 12.34 188.38 12.36Q187.58 12.38 186.86 12.41Q186.14 12.43 185.62 12.48L185.62 12.48L185.62 10.46Q186.14 10.42 186.73 10.38Q187.32 10.34 187.94 10.33Q188.57 10.32 189.14 10.32L189.14 10.32Q191.11 10.32 192.36 10.79Q193.61 11.26 194.21 12.31Q194.81 13.37 194.81 15.17L194.81 15.17L194.81 23.28ZM188.78 23.62L188.78 23.62Q187.34 23.62 186.30 23.12Q185.26 22.63 184.69 21.70Q184.13 20.76 184.13 19.44L184.13 19.44Q184.13 18.07 184.74 17.16Q185.35 16.25 186.53 15.78Q187.70 15.31 189.36 15.31L189.36 15.31L192.84 15.31L192.84 17.04L189.26 17.04Q187.87 17.04 187.13 17.71Q186.38 18.38 186.38 19.44L186.38 19.44Q186.38 20.50 187.13 21.14Q187.87 21.79 189.26 21.79L189.26 21.79Q190.08 21.79 190.82 21.49Q191.57 21.19 192.06 20.48Q192.55 19.78 192.60 18.53L192.60 18.53L193.22 19.44Q193.10 20.81 192.56 21.73Q192.02 22.66 191.08 23.14Q190.13 23.62 188.78 23.62ZM201.48 23.28L199.18 23.28L199.18 5.76L201.48 5.76L201.48 23.28ZM201.48 7.58L197.40 7.58L197.40 5.76L201.48 5.76L201.48 7.58Z"/></svg>