<svg xmlns="http://www.w3.org/2000/svg" xmlns:xlink="http://www.w3.org/1999/xlink" width="310.12800000000004" height="30"><path fill="black" d="M12.67 24.72L2.22 24.72L2.22 6.96L12.55 6.96L12.55 7.96L3.30 7.96L3.30 23.72L12.67 23.72L12.67 24.72ZM11.40 16.09L2.96 16.09L2.96 15.10L11.40 15.10L11.40 16.09ZM16.80 24.72L15.77 24.72L15.77 10.44L16.90 10.44L26.14 23.54L25.81 23.54L25.81 10.44L26.84 10.44L26.84 24.72L25.70 24.72L16.46 11.62L16.80 11.62L16.80 24.72ZM36.85 24.89L36.85 24.89Q34.91 24.89 33.44 24.20Q31.98 23.51 31.16 21.91Q30.35 20.32 30.35 17.59L30.35 17.59Q30.35 14.99 31.15 13.37Q31.96 11.76 33.45 11.02Q34.94 10.27 37.02 10.27L37.02 10.27Q37.90 10.27 38.71 10.37Q39.53 10.46 40.30 10.69L40.30 10.69L40.30 11.70Q39.47 11.46 38.66 11.36Q37.86 11.26 37.02 11.26L37.02 11.26Q35.26 11.26 34.02 11.87Q32.78 12.48 32.14 13.87Q31.49 15.25 31.49 17.57L31.49 17.57Q31.49 19.99 32.15 21.37Q32.81 22.75 34.02 23.33Q35.23 23.90 36.90 23.90L36.90 23.90Q37.76 23.90 38.56 23.77Q39.35 23.64 40.30 23.34L40.30 23.34L40.30 24.35Q39.53 24.61 38.67 24.75Q37.81 24.89 36.85 24.89ZM47.66 24.89L47.66 24.89Q45.88 24.89 44.53 24.15Q43.18 23.41 42.43 21.80Q41.68 20.18 41.68 17.59L41.68 17.59Q41.68 14.99 42.43 13.37Q43.19 11.75 44.54 11.01Q45.89 10.27 47.66 10.27L47.66 10.27Q49.46 10.27 50.81 11.02Q52.16 11.76 52.91 13.37Q53.66 14.99 53.66 17.59L53.66 17.59Q53.66 20.18 52.91 21.79Q52.16 23.40 50.81 24.14Q49.45 24.89 47.66 24.89ZM47.66 23.93L47.66 23.93Q49.13 23.93 50.23 23.33Q51.34 22.73 51.94 21.34Q52.55 19.96 52.55 17.62L52.55 17.62Q52.55 15.24 51.94 13.84Q51.32 12.44 50.23 11.84Q49.13 11.23 47.66 11.23L47.66 11.23Q46.21 11.23 45.12 11.83Q44.03 12.43 43.42 13.82Q42.80 15.20 42.80 17.54L42.80 17.54Q42.80 19.92 43.42 21.32Q44.03 22.72 45.12 23.32Q46.21 23.93 47.66 23.93ZM60.53 24.82L60.53 24.82Q59.72 24.82 58.91 24.77Q58.09 24.73 57.17 24.62L57.17 24.62L57.17 10.64Q57.74 10.54 58.37 10.46Q58.99 10.38 59.62 10.34Q60.24 10.30 60.83 10.30L60.83 10.30Q64.44 10.30 66.29 12.08Q68.14 13.87 68.14 17.59L68.14 17.59Q68.14 20.09 67.28 21.69Q66.42 23.29 64.73 24.05Q63.04 24.82 60.53 24.82ZM60.72 23.87L60.72 23.87Q62.82 23.87 64.22 23.22Q65.62 22.57 66.31 21.18Q67.01 19.79 67.01 17.58L67.01 17.58Q67.01 15.38 66.34 13.99Q65.66 12.59 64.29 11.92Q62.92 11.26 60.84 11.26L60.84 11.26Q60.18 11.26 59.50 11.32Q58.81 11.38 58.25 11.47L58.25 11.47L58.25 23.72Q58.81 23.80 59.42 23.83Q60.02 23.87 60.72 23.87ZM80.69 24.72L71.64 24.72L71.64 10.44L80.58 10.44L80.58 11.39L72.71 11.39L72.71 23.77L80.69 23.77L80.69 24.72ZM79.60 17.87L72.36 17.87L72.36 16.92L79.60 16.92L79.60 17.87ZM92.68 24.94L92.68 24.94Q91.72 24.94 90.64 24.77Q89.56 24.60 88.55 24.25L88.55 24.25L88.55 23.23Q89.29 23.48 90.01 23.64Q90.73 23.80 91.41 23.87Q92.09 23.94 92.71 23.94L92.71 23.94Q95.10 23.94 96.30 22.98Q97.50 22.02 97.50 20.16L97.50 20.16Q97.50 18.58 96.59 17.74Q95.68 16.91 93.56 16.37L93.56 16.37L92.77 16.16Q90.54 15.58 89.44 14.44Q88.33 13.31 88.33 11.44L88.33 11.44Q88.33 9.26 89.81 8.00Q91.30 6.74 94.19 6.74L94.19 6.74Q95.14 6.74 96.11 6.88Q97.09 7.01 97.91 7.28L97.91 7.28L97.91 8.30Q96.98 8.00 96.05 7.87Q95.11 7.74 94.16 7.74L94.16 7.74Q92.58 7.74 91.54 8.16Q90.49 8.58 89.98 9.40Q89.46 10.21 89.46 11.38L89.46 11.38Q89.46 12.91 90.30 13.75Q91.14 14.59 93.17 15.13L93.17 15.13L93.96 15.34Q95.57 15.74 96.60 16.38Q97.63 17.02 98.13 17.93Q98.63 18.85 98.63 20.10L98.63 20.10Q98.63 21.66 97.93 22.74Q97.24 23.82 95.90 24.38Q94.57 24.94 92.68 24.94ZM101.17 24.72L100.07 24.72L105.70 10.44L107.16 10.44L112.81 24.72L111.67 24.72L106.30 10.98L106.55 10.98L101.17 24.72ZM110.14 19.86L102.71 19.86L103.00 18.91L109.87 18.91L110.14 19.86ZM116.53 24.72L115.50 24.72L115.50 10.44L116.63 10.44L125.87 23.54L125.54 23.54L125.54 10.44L126.58 10.44L126.58 24.72L125.44 24.72L116.20 11.62L116.53 11.62L116.53 24.72ZM133.58 24.89L133.58 24.89Q132.76 24.89 131.82 24.76Q130.88 24.62 130.03 24.35L130.03 24.35L130.03 23.34Q130.67 23.54 131.29 23.68Q131.90 23.81 132.49 23.87Q133.08 23.94 133.62 23.94L133.62 23.94Q134.99 23.94 135.88 23.60Q136.78 23.26 137.21 22.61Q137.65 21.96 137.65 21.01L137.65 21.01Q137.65 20.23 137.35 19.69Q137.05 19.15 136.36 18.77Q135.66 18.40 134.45 18.11L134.45 18.11L133.82 17.96Q131.71 17.46 130.77 16.56Q129.83 15.66 129.83 14.09L129.83 14.09Q129.83 12.94 130.39 12.08Q130.94 11.22 132.08 10.75Q133.21 10.27 134.93 10.27L134.93 10.27Q135.74 10.27 136.58 10.37Q137.42 10.48 138.12 10.69L138.12 10.69L138.12 11.69Q137.33 11.45 136.53 11.33Q135.73 11.22 134.93 11.22L134.93 11.22Q133.56 11.22 132.68 11.56Q131.80 11.89 131.36 12.52Q130.93 13.15 130.93 14.04L130.93 14.04Q130.93 15.25 131.62 15.90Q132.30 16.55 134.11 16.98L134.11 16.98L134.72 17.12Q136.16 17.46 137.05 17.96Q137.93 18.47 138.34 19.21Q138.74 19.94 138.74 20.96L138.74 20.96Q138.74 22.19 138.16 23.06Q137.57 23.94 136.42 24.41Q135.28 24.89 133.58 24.89ZM150.88 24.94L150.88 24.94Q149.92 24.94 148.84 24.77Q147.76 24.60 146.75 24.25L146.75 24.25L146.75 23.23Q147.49 23.48 148.21 23.64Q148.93 23.80 149.61 23.87Q150.29 23.94 150.91 23.94L150.91 23.94Q153.30 23.94 154.50 22.98Q155.70 22.02 155.70 20.16L155.70 20.16Q155.70 18.58 154.79 17.74Q153.88 16.91 151.76 16.37L151.76 16.37L150.97 16.16Q148.74 15.58 147.64 14.44Q146.53 13.31 146.53 11.44L146.53 11.44Q146.53 9.26 148.01 8.00Q149.50 6.74 152.39 6.74L152.39 6.74Q153.34 6.74 154.31 6.88Q155.29 7.01 156.11 7.28L156.11 7.28L156.11 8.30Q155.18 8.00 154.25 7.87Q153.31 7.74 152.36 7.74L152.36 7.74Q150.78 7.74 149.74 8.16Q148.69 8.58 148.18 9.40Q147.66 10.21 147.66 11.38L147.66 11.38Q147.66 12.91 148.50 13.75Q149.34 14.59 151.37 15.13L151.37 15.13L152.16 15.34Q153.77 15.74 154.80 16.38Q155.83 17.02 156.33 17.93Q156.83 18.85 156.83 20.10L156.83 20.10Q156.83 21.66 156.13 22.74Q155.44 23.82 154.10 24.38Q152.77 24.94 150.88 24.94ZM166.69 24.94L166.69 24.94Q165.01 24.94 163.64 24.47Q162.26 24 161.27 22.94Q160.27 21.89 159.73 20.15Q159.19 18.41 159.19 15.86L159.19 15.86Q159.19 12.59 160.12 10.58Q161.05 8.57 162.77 7.66Q164.50 6.74 166.88 6.74L166.88 6.74Q167.92 6.74 168.85 6.88Q169.79 7.02 170.72 7.30L170.72 7.30L170.72 8.32Q169.74 8.00 168.79 7.87Q167.84 7.74 166.86 7.74L166.86 7.74Q164.78 7.74 163.33 8.51Q161.87 9.29 161.10 11.06Q160.33 12.83 160.33 15.82L160.33 15.82Q160.33 18.92 161.12 20.69Q161.92 22.46 163.34 23.20Q164.77 23.94 166.73 23.94L166.73 23.94Q167.74 23.94 168.68 23.78Q169.62 23.62 170.72 23.23L170.72 23.23L170.72 24.25Q169.82 24.58 168.82 24.76Q167.82 24.94 166.69 24.94ZM187.51 24.72L177.74 24.72L177.74 24.10L182.90 17.05Q183.83 15.82 184.38 14.84Q184.93 13.86 185.17 13.02Q185.41 12.18 185.41 11.35L185.41 11.35Q185.41 9.41 184.39 8.57Q183.36 7.74 181.37 7.74L181.37 7.74Q180.32 7.74 179.38 7.91Q178.44 8.09 177.54 8.45L177.54 8.45L177.54 7.43Q178.04 7.21 178.67 7.06Q179.30 6.90 179.99 6.82Q180.68 6.74 181.40 6.74L181.40 6.74Q183.83 6.74 185.17 7.83Q186.52 8.92 186.52 11.29L186.52 11.29Q186.52 12.26 186.25 13.19Q185.99 14.11 185.38 15.18Q184.78 16.25 183.74 17.63L183.74 17.63L178.99 24.08L178.80 23.74L187.51 23.74L187.51 24.72ZM195.46 24.94L195.46 24.94Q193.70 24.94 192.41 24.06Q191.12 23.18 190.41 21.19Q189.70 19.20 189.70 15.84L189.70 15.84Q189.70 12.48 190.40 10.49Q191.10 8.50 192.39 7.62Q193.68 6.74 195.46 6.74L195.46 6.74Q197.23 6.74 198.52 7.62Q199.81 8.50 200.51 10.49Q201.22 12.48 201.22 15.84L201.22 15.84Q201.22 19.20 200.50 21.19Q199.79 23.18 198.50 24.06Q197.21 24.94 195.46 24.94ZM195.46 23.94L195.46 23.94Q196.86 23.94 197.90 23.22Q198.95 22.50 199.52 20.74Q200.10 18.98 200.10 15.89L200.10 15.89Q200.10 12.74 199.52 10.97Q198.95 9.19 197.90 8.47Q196.86 7.74 195.46 7.74L195.46 7.74Q194.05 7.74 193.01 8.46Q191.96 9.18 191.39 10.94Q190.81 12.70 190.81 15.79L190.81 15.79Q190.81 18.94 191.39 20.71Q191.96 22.49 193.01 23.21Q194.05 23.94 195.46 23.94ZM209.98 24.94L209.98 24.94Q208.22 24.94 206.93 24.06Q205.64 23.18 204.93 21.19Q204.22 19.20 204.22 15.84L204.22 15.84Q204.22 12.48 204.92 10.49Q205.62 8.50 206.91 7.62Q208.20 6.74 209.98 6.74L209.98 6.74Q211.75 6.74 213.04 7.62Q214.33 8.50 215.03 10.49Q215.74 12.48 215.74 15.84L215.74 15.84Q215.74 19.20 215.02 21.19Q214.31 23.18 213.02 24.06Q211.73 24.94 209.98 24.94ZM209.98 23.94L209.98 23.94Q211.38 23.94 212.42 23.22Q213.47 22.50 214.04 20.74Q214.62 18.98 214.62 15.89L214.62 15.89Q214.62 12.74 214.04 10.97Q213.47 9.19 212.42 8.47Q211.38 7.74 209.98 7.74L209.98 7.74Q208.57 7.74 207.53 8.46Q206.48 9.18 205.91 10.94Q205.33 12.70 205.33 15.79L205.33 15.79Q205.33 18.94 205.91 20.71Q206.48 22.49 207.53 23.21Q208.57 23.94 209.98 23.94ZM226.31 24.72L225.28 24.72L225.28 10.44L226.40 10.44L235.64 23.54L235.32 23.54L235.32 10.44L236.35 10.44L236.35 24.72L235.21 24.72L225.97 11.62L226.31 11.62L226.31 24.72ZM245.84 24.89L245.84 24.89Q244.06 24.89 242.71 24.15Q241.36 23.41 240.61 21.80Q239.86 20.18 239.86 17.59L239.86 17.59Q239.86 14.99 240.61 13.37Q241.37 11.75 242.72 11.01Q244.07 10.27 245.84 10.27L245.84 10.27Q247.64 10.27 248.99 11.02Q250.34 11.76 251.09 13.37Q251.84 14.99 251.84 17.59L251.84 17.59Q251.84 20.18 251.09 21.79Q250.34 23.40 248.99 24.14Q247.63 24.89 245.84 24.89ZM245.84 23.93L245.84 23.93Q247.31 23.93 248.41 23.33Q249.52 22.73 250.12 21.34Q250.73 19.96 250.73 17.62L250.73 17.62Q250.73 15.24 250.12 13.84Q249.50 12.44 248.41 11.84Q247.31 11.23 245.84 11.23L245.84 11.23Q244.39 11.23 243.30 11.83Q242.21 12.43 241.60 13.82Q240.98 15.20 240.98 17.54L240.98 17.54Q240.98 19.92 241.60 21.32Q242.21 22.72 243.30 23.32Q244.39 23.93 245.84 23.93ZM256.43 24.72L255.35 24.72L255.35 10.64Q256.16 10.50 257.11 10.40Q258.05 10.30 259.14 10.30L259.14 10.30Q262.03 10.30 263.44 11.30Q264.85 12.30 264.85 14.41L264.85 14.41Q264.86 15.80 264.17 16.74Q263.48 17.68 262.11 18.14Q260.74 18.61 258.68 18.61L258.68 18.61Q258.08 18.61 257.53 18.59Q256.97 18.58 256.43 18.53L256.43 18.53L256.43 24.72ZM265.99 24.72L264.66 24.72L259.16 17.98L260.45 17.98L265.99 24.72ZM258.67 17.71L258.67 17.71Q261.40 17.71 262.60 16.90Q263.80 16.09 263.80 14.45L263.80 14.45Q263.80 12.72 262.70 11.97Q261.61 11.22 259.15 11.22L259.15 11.22Q258.32 11.22 257.69 11.27Q257.06 11.33 256.43 11.44L256.43 11.44L256.43 17.62Q257.06 17.65 257.53 17.68Q257.99 17.71 258.67 17.71ZM270.28 24.72L269.26 24.72L269.26 10.44L270.49 10.44L276.35 22.08L276.01 22.08L281.82 10.44L283.07 10.44L283.07 24.72L282.04 24.72L282.04 11.36L282.42 11.36L276.68 22.76L275.63 22.76L269.83 11.38L270.28 11.38L270.28 24.72ZM286.91 24.72L285.80 24.72L291.43 10.44L292.90 10.44L298.55 24.72L297.41 24.72L292.03 10.98L292.28 10.98L286.91 24.72ZM295.87 19.86L288.44 19.86L288.73 18.91L295.61 18.91L295.87 19.86ZM309.96 24.72L301.24 24.72L301.24 10.44L302.32 10.44L302.32 23.76L309.96 23.76L309.96 24.72Z"/></svg>