<svg xmlns="http://www.w3.org/2000/svg" xmlns:xlink="http://www.w3.org/1999/xlink" width="207.36328125" height="28.8046875"><path fill="black" d="M6.73 19.55L6.73 19.55L2.67 8.53L5.55 8.53L9.12 18.52L8.91 19.50Q8.38 19.55 7.81 19.56Q7.24 19.58 6.73 19.55ZM4.48 20.13L0.40 20.13L0.48 19.10Q1.01 18.84 1.88 18.64L1.88 18.64L1.37 19.71L2.06 9.07L2.44 9.93L0.80 9.59L0.88 8.53L3.86 8.53L3.25 19.69L2.88 18.75L4.56 19.08L4.48 20.13ZM12.95 8.53L8.91 19.50L7.32 19.29L10.99 8.53L12.95 8.53ZM16.11 20.13L11.12 20.13L11.20 19.10Q11.52 18.97 11.94 18.86Q12.35 18.74 12.79 18.66L12.79 18.66L12.39 19.63L11.79 8.53L15.67 8.53L15.59 9.56Q14.94 9.83 14.03 10.01L14.03 10.01L14.47 9.18L15.16 19.59L14.72 18.74L16.20 19.08L16.11 20.13ZM24.66 18.59L21.98 18.87Q21.98 17.89 22.01 16.88Q22.03 15.87 22.03 14.98L22.03 14.98L22.03 13.97Q22.03 12.30 20.58 12.30L20.58 12.30Q19.65 12.30 18.75 12.98L18.75 12.98L17.55 14.05Q17.52 12.84 17.70 11.86L17.70 11.86Q19.44 10.89 21.56 10.89L21.56 10.89Q24.73 10.89 24.73 13.51L24.73 13.51Q24.73 13.84 24.71 14.54Q24.70 15.23 24.69 16.04Q24.68 16.84 24.67 17.54Q24.66 18.23 24.66 18.59L24.66 18.59ZM18.88 14.05L17.55 14.05L17.67 12.69L19.96 12.04L18.88 14.05ZM19.64 20.31L19.64 20.31Q18.42 20.31 17.70 19.62Q16.97 18.94 16.97 17.79L16.97 17.79Q16.97 15.38 20.58 14.63L20.58 14.63L22.71 14.18L22.92 15.42L21.25 15.63Q20.46 15.73 20.10 16.10Q19.75 16.46 19.75 17.20L19.75 17.20Q19.75 18.64 20.87 18.64L20.87 18.64Q21.67 18.64 22.89 17.77L22.89 17.77L23.10 18.42Q21.61 20.31 19.64 20.31ZM22.69 20.19L22.69 20.19L22.13 18.50L24.66 17.91L24.66 19.42L24.23 18.64L25.62 19.05L25.54 20.04Q24.48 20.21 22.69 20.19ZM30.35 20.06L27.63 20.06L27.63 12.56L30.35 13.16L30.35 20.06ZM31.86 20.13L26.65 20.13L26.73 19.15Q27.06 18.98 27.39 18.88Q27.73 18.77 28.07 18.69L28.07 18.69L27.63 19.84L27.63 18L30.35 18L30.35 19.84L29.96 18.82L31.95 19.13L31.86 20.13ZM29.55 14.44L29.55 14.44L29.32 13.97Q29.98 12.38 30.73 11.67Q31.49 10.97 32.55 10.97L32.55 10.97Q32.72 10.97 32.86 10.99Q33 11.00 33.11 11.04L33.11 11.04L32.93 13.17Q32.63 13.11 32.32 13.09Q32.02 13.07 31.82 13.07L31.82 13.07Q31.14 13.07 30.61 13.39Q30.08 13.71 29.55 14.44ZM30.26 13.08L27.63 14.10L27.63 12.60L28.10 13.39L26.48 12.50L26.55 11.71Q27.19 11.43 27.98 11.24Q28.77 11.05 29.60 10.98L29.60 10.98L30.26 13.08ZM37.51 20.06L34.79 20.06L34.79 7.78L37.51 7.78L37.51 20.06ZM38.57 16.09L36.21 16.09L36.21 14.66L38.57 14.66L38.57 16.09ZM43.86 20.13L40.95 20.13L37.91 15.74L37.91 14.95L41.13 11.94L40.90 12.48L39.45 12.14L39.53 11.09L43.57 11.09L43.49 12.12Q43.23 12.27 42.90 12.38Q42.56 12.49 42.22 12.57L42.22 12.57L43.23 12L39.68 15.21L40.22 14.63L43.56 19.14L42.52 18.74L43.95 19.08L43.86 20.13ZM38.46 20.13L33.81 20.13L33.89 19.15Q34.22 18.98 34.55 18.88Q34.89 18.77 35.23 18.69L35.23 18.69L34.79 19.84L34.79 18L37.51 18L37.51 19.84L37.13 18.80L38.54 19.10L38.46 20.13ZM37.51 9L34.79 9.59L34.79 8.12L35.18 9L33.60 8.26L33.67 7.49Q34.92 7.04 36.50 6.98L36.50 6.98L37.51 6.98L37.51 9ZM52.03 18.59L49.36 18.87Q49.36 17.89 49.38 16.88Q49.41 15.87 49.41 14.98L49.41 14.98L49.41 13.97Q49.41 12.30 47.95 12.30L47.95 12.30Q47.03 12.30 46.13 12.98L46.13 12.98L44.93 14.05Q44.89 12.84 45.07 11.86L45.07 11.86Q46.82 10.89 48.94 10.89L48.94 10.89Q52.10 10.89 52.10 13.51L52.10 13.51Q52.10 13.84 52.09 14.54Q52.08 15.23 52.07 16.04Q52.05 16.84 52.04 17.54Q52.03 18.23 52.03 18.59L52.03 18.59ZM46.25 14.05L44.93 14.05L45.05 12.69L47.33 12.04L46.25 14.05ZM47.02 20.31L47.02 20.31Q45.80 20.31 45.07 19.62Q44.34 18.94 44.34 17.79L44.34 17.79Q44.34 15.38 47.95 14.63L47.95 14.63L50.09 14.18L50.30 15.42L48.62 15.63Q47.84 15.73 47.48 16.10Q47.12 16.46 47.12 17.20L47.12 17.20Q47.12 18.64 48.25 18.64L48.25 18.64Q49.04 18.64 50.26 17.77L50.26 17.77L50.47 18.42Q48.98 20.31 47.02 20.31ZM50.06 20.19L50.06 20.19L49.50 18.50L52.03 17.91L52.03 19.42L51.61 18.64L52.99 19.05L52.91 20.04Q51.86 20.21 50.06 20.19ZM56.10 20.13L53.65 20.13L53.74 19.01L59.41 11.09L61.86 11.09L61.77 12.21L56.10 20.13ZM61.58 20.13L53.65 20.13L55.28 18.89L61.15 18.89L61.58 20.13ZM60.23 12.33L54.59 12.33L54.22 11.09L61.86 11.09L60.23 12.33ZM55.18 14.14L53.96 14.14Q53.87 12.70 54.22 11.09L54.22 11.09L56.26 12.13L55.18 14.14ZM61.58 20.13L61.58 20.13L59.59 18.93L60.73 16.79L61.88 16.79Q61.95 18.38 61.58 20.13ZM66.61 20.06L63.89 20.06L63.89 11.92L66.61 11.70L66.61 20.06ZM66.61 12.84L63.89 14.10L63.89 12.60L64.36 13.39L62.74 12.50L62.81 11.71Q63.45 11.43 64.24 11.24Q65.03 11.05 65.86 10.98L65.86 10.98L66.61 10.98L66.61 12.84ZM67.63 20.13L62.84 20.13L62.92 19.15Q63.21 19.01 63.56 18.90Q63.91 18.79 64.34 18.69L64.34 18.69L63.89 19.84L63.89 18L66.61 18L66.61 19.84L66.20 18.79L67.71 19.13L67.63 20.13ZM65.07 9.98L65.07 9.98Q64.35 9.98 63.91 9.57Q63.48 9.16 63.48 8.47L63.48 8.47Q63.48 7.79 63.91 7.39Q64.35 6.98 65.07 6.98L65.07 6.98Q65.80 6.98 66.23 7.39Q66.67 7.79 66.67 8.48L66.67 8.48Q66.67 9.16 66.23 9.57Q65.80 9.98 65.07 9.98ZM78.45 19.96L75.63 19.96L75.63 8.70L78.45 8.70L78.45 19.96ZM73.02 12.34L71.87 12.34Q71.71 10.37 72.07 8.53L72.07 8.53L74.34 9.55L73.02 12.34ZM81.60 10.05L72.27 10.05L72.07 8.53L82.01 8.53L81.60 10.05ZM82.21 12.34L81.06 12.34L79.73 9.55L82.01 8.53Q82.37 10.37 82.21 12.34L82.21 12.34ZM79.70 20.13L74.34 20.13L74.43 19.10Q74.77 18.96 75.19 18.86Q75.62 18.75 76.08 18.68L76.08 18.68L75.63 19.84L75.63 18L78.45 18L78.45 19.84L78.04 18.75L79.78 19.08L79.70 20.13ZM87.81 20.32L87.81 20.32Q85.44 20.32 84.17 19.13Q82.90 17.94 82.90 15.74L82.90 15.74Q82.90 13.50 84.16 12.19Q85.42 10.88 87.55 10.88L87.55 10.88Q89.48 10.88 90.52 11.99Q91.56 13.10 91.56 15.18L91.56 15.18Q91.56 15.35 91.55 15.62Q91.54 15.89 91.51 16.05L91.51 16.05L88.72 15.49Q88.72 13.79 88.38 13.05Q88.04 12.30 87.28 12.30L87.28 12.30Q85.83 12.30 85.83 14.85L85.83 14.85Q85.83 18.49 88.84 18.49L88.84 18.49Q90.01 18.49 91.29 18.01L91.29 18.01L91.17 19.51Q90.59 19.90 89.70 20.11Q88.80 20.32 87.81 20.32ZM91.51 16.05L84.15 16.05L84.15 14.86L91.32 14.86L91.51 16.05ZM95.75 20.13L92.17 20.13L92.25 19.15Q92.52 18.98 92.85 18.88Q93.18 18.77 93.52 18.69L93.52 18.69L92.59 19.14L96.01 15.28L97.88 15.34L94.61 19.14L94.45 18.80L95.84 19.13L95.75 20.13ZM101.78 20.13L97.00 20.13L97.08 19.13Q97.34 19.00 97.66 18.90Q97.98 18.80 98.32 18.71L98.32 18.71L98.16 19.01L95.87 15.97L98.37 15.18L101.38 19.21L100.35 18.80L101.86 19.13L101.78 20.13ZM92.37 11.09L97.13 11.09L97.04 12.14Q96.79 12.26 96.46 12.36Q96.14 12.47 95.80 12.55L95.80 12.55L95.99 12.21L98.27 15.25L95.78 16.04L92.77 12.01L93.80 12.47L92.29 12.14L92.37 11.09ZM98.13 11.09L101.70 11.09L101.61 12.12Q101.36 12.27 101.02 12.38Q100.69 12.49 100.35 12.57L100.35 12.57L101.27 12.08L97.85 15.94L95.99 15.88L99.26 12.08L99.43 12.47L98.05 12.14L98.13 11.09ZM106.18 20.27L106.18 20.27Q103.30 20.27 103.30 17.64L103.30 17.64L103.30 11.92L103.41 11.09L104.11 8.84L106.02 8.84L106.02 17.29Q106.02 18 106.28 18.32Q106.55 18.63 107.13 18.63L107.13 18.63Q107.66 18.63 108.48 18.43L108.48 18.43L108.39 19.79Q107.55 20.27 106.18 20.27ZM108.30 12.56L102.04 12.56L102.12 11.51Q102.70 11.25 103.41 11.09L103.41 11.09L108.42 11.09L108.30 12.56ZM116.39 20.13L113.39 20.13L113.40 19.85L118.83 8.58L120.94 8.58L120.84 9.96L116.39 20.13ZM113.40 12.15L112.35 12.15Q112.25 10.28 112.62 8.58L112.62 8.58L114.68 9.71L113.40 12.15ZM120.21 10.10L112.64 10.10L112.62 8.58L120.94 8.58L120.21 10.10ZM126.30 20.34L126.30 20.34Q124.01 20.34 122.65 18.73Q121.29 17.11 121.29 14.37L121.29 14.37Q121.29 12.53 121.90 11.19Q122.52 9.84 123.66 9.11Q124.79 8.37 126.33 8.37L126.33 8.37Q128.64 8.37 129.99 9.98Q131.34 11.60 131.34 14.34L131.34 14.34Q131.34 16.17 130.73 17.52Q130.11 18.87 128.98 19.61Q127.85 20.34 126.30 20.34ZM126.49 18.87L126.49 18.87Q128.25 18.87 128.25 14.77L128.25 14.77Q128.25 12.39 127.71 11.12Q127.16 9.84 126.14 9.84L126.14 9.84Q124.38 9.84 124.38 13.95L124.38 13.95Q124.38 16.31 124.93 17.59Q125.47 18.87 126.49 18.87ZM137.44 20.34L137.44 20.34Q135.14 20.34 133.78 18.73Q132.42 17.11 132.42 14.37L132.42 14.37Q132.42 12.53 133.04 11.19Q133.65 9.84 134.79 9.11Q135.93 8.37 137.46 8.37L137.46 8.37Q139.77 8.37 141.12 9.98Q142.48 11.60 142.48 14.34L142.48 14.34Q142.48 16.17 141.86 17.52Q141.25 18.87 140.12 19.61Q138.98 20.34 137.44 20.34ZM137.63 18.87L137.63 18.87Q139.38 18.87 139.38 14.77L139.38 14.77Q139.38 12.39 138.84 11.12Q138.29 9.84 137.27 9.84L137.27 9.84Q135.52 9.84 135.52 13.95L135.52 13.95Q135.52 16.31 136.06 17.59Q136.61 18.87 137.63 18.87ZM156.35 20.06L153.63 20.06L153.63 14.20Q153.63 12.60 152.25 12.60L152.25 12.60Q151.17 12.60 149.93 13.58L149.93 13.58L149.70 12.76Q150.42 11.82 151.44 11.36Q152.45 10.89 153.56 10.89L153.56 10.89Q154.92 10.89 155.64 11.56Q156.35 12.23 156.35 13.49L156.35 13.49L156.35 20.06ZM150.82 20.06L148.10 20.06L148.10 12.16L150.82 12.66L150.82 20.06ZM151.86 20.13L147.12 20.13L147.20 19.15Q147.53 18.98 147.86 18.88Q148.20 18.77 148.54 18.69L148.54 18.69L148.10 19.84L148.10 18L150.82 18L150.82 19.84L150.43 18.80L151.95 19.13L151.86 20.13ZM157.30 20.13L152.77 20.13L152.85 19.10Q153.09 18.97 153.41 18.87Q153.73 18.77 154.07 18.70L154.07 18.70L153.63 19.84L153.63 18L156.35 18L156.35 19.84L155.95 18.79L157.38 19.13L157.30 20.13ZM150.73 13.08L148.10 14.10L148.10 12.60L148.57 13.39L146.95 12.50L147.02 11.71Q147.66 11.43 148.45 11.24Q149.24 11.05 150.07 10.98L150.07 10.98L150.73 13.08ZM162.91 20.34L162.91 20.34Q160.75 20.34 159.46 19.07Q158.18 17.79 158.18 15.63L158.18 15.63Q158.18 13.45 159.47 12.16Q160.76 10.88 162.95 10.88L162.95 10.88Q165.12 10.88 166.39 12.15Q167.67 13.43 167.67 15.60L167.67 15.60Q167.67 17.78 166.38 19.06Q165.09 20.34 162.91 20.34ZM163.10 18.89L163.10 18.89Q164.67 18.89 164.67 15.93L164.67 15.93Q164.67 14.19 164.17 13.26Q163.68 12.33 162.75 12.33L162.75 12.33Q161.18 12.33 161.18 15.29L161.18 15.29Q161.18 17.03 161.68 17.96Q162.18 18.89 163.10 18.89ZM172.38 20.06L169.66 20.06L169.66 12.56L172.38 13.16L172.38 20.06ZM173.89 20.13L168.68 20.13L168.76 19.15Q169.09 18.98 169.42 18.88Q169.76 18.77 170.10 18.69L170.10 18.69L169.66 19.84L169.66 18L172.38 18L172.38 19.84L172.00 18.82L173.98 19.13L173.89 20.13ZM171.59 14.44L171.59 14.44L171.35 13.97Q172.01 12.38 172.76 11.67Q173.52 10.97 174.59 10.97L174.59 10.97Q174.75 10.97 174.89 10.99Q175.03 11.00 175.14 11.04L175.14 11.04L174.96 13.17Q174.66 13.11 174.35 13.09Q174.05 13.07 173.85 13.07L173.85 13.07Q173.17 13.07 172.64 13.39Q172.11 13.71 171.59 14.44ZM172.29 13.08L169.66 14.10L169.66 12.60L170.13 13.39L168.52 12.50L168.59 11.71Q169.22 11.43 170.01 11.24Q170.80 11.05 171.63 10.98L171.63 10.98L172.29 13.08ZM190.56 20.06L187.84 20.06L187.84 14.20Q187.84 12.60 186.49 12.60L186.49 12.60Q185.45 12.60 184.21 13.58L184.21 13.58L183.97 12.76Q185.45 10.89 187.80 10.89L187.80 10.89Q189.13 10.89 189.84 11.56Q190.56 12.23 190.56 13.49L190.56 13.49L190.56 20.06ZM180.66 20.13L175.96 20.13L176.04 19.15Q176.37 18.98 176.70 18.88Q177.04 18.77 177.38 18.69L177.38 18.69L176.94 19.84L176.94 18L179.66 18L179.66 19.84L179.27 18.80L180.74 19.13L180.66 20.13ZM179.66 20.06L176.94 20.06L176.94 12.16L179.66 12.66L179.66 20.06ZM186 20.13L181.51 20.13L181.59 19.10Q181.84 18.97 182.16 18.87Q182.47 18.77 182.81 18.70L182.81 18.70L182.38 19.84L182.38 18L185.10 18L185.10 19.84L184.70 18.79L186.08 19.13L186 20.13ZM185.10 20.06L182.38 20.06L182.38 14.20Q182.38 12.60 181.04 12.60L181.04 12.60Q180.01 12.60 178.77 13.58L178.77 13.58L178.54 12.76Q180.02 10.89 182.36 10.89L182.36 10.89Q183.68 10.89 184.39 11.56Q185.10 12.23 185.10 13.49L185.10 13.49L185.10 20.06ZM179.57 13.08L176.94 14.10L176.94 12.60L177.41 13.39L175.79 12.50L175.86 11.71Q176.50 11.43 177.29 11.24Q178.08 11.05 178.91 10.98L178.91 10.98L179.57 13.08ZM191.51 20.13L186.97 20.13L187.05 19.10Q187.30 18.97 187.62 18.87Q187.93 18.77 188.27 18.70L188.27 18.70L187.84 19.84L187.84 18L190.56 18L190.56 19.84L190.16 18.79L191.59 19.13L191.51 20.13ZM200.03 18.59L197.36 18.87Q197.36 17.89 197.38 16.88Q197.40 15.87 197.40 14.98L197.40 14.98L197.40 13.97Q197.40 12.30 195.95 12.30L195.95 12.30Q195.02 12.30 194.12 12.98L194.12 12.98L192.93 14.05Q192.89 12.84 193.07 11.86L193.07 11.86Q194.81 10.89 196.93 10.89L196.93 10.89Q200.10 10.89 200.10 13.51L200.10 13.51Q200.10 13.84 200.09 14.54Q200.07 15.23 200.06 16.04Q200.05 16.84 200.04 17.54Q200.03 18.23 200.03 18.59L200.03 18.59ZM194.25 14.05L192.93 14.05L193.04 12.69L195.33 12.04L194.25 14.05ZM195.01 20.31L195.01 20.31Q193.79 20.31 193.07 19.62Q192.34 18.94 192.34 17.79L192.34 17.79Q192.34 15.38 195.95 14.63L195.95 14.63L198.08 14.18L198.29 15.42L196.62 15.63Q195.83 15.73 195.47 16.10Q195.12 16.46 195.12 17.20L195.12 17.20Q195.12 18.64 196.24 18.64L196.24 18.64Q197.04 18.64 198.26 17.77L198.26 17.77L198.47 18.42Q196.98 20.31 195.01 20.31ZM198.06 20.19L198.06 20.19L197.50 18.50L200.03 17.91L200.03 19.42L199.61 18.64L200.99 19.05L200.91 20.04Q199.85 20.21 198.06 20.19ZM205.77 20.06L203.05 20.06L203.05 8.02L205.77 8.36L205.77 20.06ZM206.86 20.13L201.93 20.13L202.01 19.15Q202.31 19.02 202.68 18.91Q203.04 18.80 203.48 18.69L203.48 18.69L203.05 19.84L203.05 18L205.77 18L205.77 19.84L205.37 18.79L206.94 19.13L206.86 20.13ZM205.77 9L203.05 9.59L203.05 8.12L203.44 9L201.86 8.26L201.93 7.49Q203.18 7.04 204.76 6.98L204.76 6.98L205.77 6.98L205.77 9Z"/></svg>