<svg xmlns="http://www.w3.org/2000/svg" xmlns:xlink="http://www.w3.org/1999/xlink" width="304.5840000000001" height="41.088"><path fill="black" d="M3.98 17.18L9.34 17.18L9.34 19.78L3.98 19.78L3.98 17.18ZM7.54 19.78L7.54 19.78L7.82 17.78Q9.82 17.78 11.14 18.26Q12.46 18.74 13.12 19.61Q13.78 20.47 13.78 21.70L13.78 21.70Q13.78 24.02 12.05 25.15Q10.32 26.28 7.13 26.28L7.13 26.28Q6.55 26.28 5.82 26.23Q5.09 26.18 4.33 26.06Q3.58 25.94 2.95 25.73L2.95 25.73Q1.70 25.27 1.70 24.12L1.70 24.12L1.70 12.65Q1.70 12.19 1.97 11.93Q2.23 11.66 2.66 11.52L2.66 11.52Q3.48 11.23 4.64 11.11Q5.81 10.99 7.03 10.99L7.03 10.99Q10.01 10.99 11.63 12.02Q13.25 13.06 13.25 15.14L13.25 15.14Q13.25 16.30 12.58 17.11Q11.90 17.93 10.62 18.36Q9.34 18.79 7.51 18.79L7.51 18.79L7.34 17.18Q8.50 17.18 9.05 16.73Q9.60 16.27 9.60 15.43L9.60 15.43Q9.60 14.64 8.96 14.21Q8.33 13.78 7.06 13.78L7.06 13.78Q6.60 13.78 6.10 13.81Q5.59 13.85 5.26 13.92L5.26 13.92L5.26 23.26Q5.66 23.35 6.25 23.40Q6.84 23.45 7.37 23.45L7.37 23.45Q8.57 23.45 9.30 22.98Q10.03 22.51 10.03 21.55L10.03 21.55Q10.03 20.64 9.41 20.21Q8.78 19.78 7.54 19.78ZM20.86 23.64L20.86 23.64L20.86 23.64Q21.41 23.64 21.95 23.53Q22.49 23.42 22.73 23.28L22.73 23.28L22.73 20.98L20.71 21.17Q19.90 21.22 19.42 21.50Q18.94 21.79 18.94 22.37L18.94 22.37Q18.94 22.94 19.39 23.29Q19.85 23.64 20.86 23.64ZM20.71 14.04L20.71 14.04L20.71 14.04Q23.21 14.04 24.70 15.08Q26.18 16.13 26.18 18.31L26.18 18.31L26.18 23.76Q26.18 24.36 25.87 24.73Q25.56 25.10 25.08 25.37L25.08 25.37Q24.36 25.80 23.29 26.05Q22.22 26.30 20.86 26.30L20.86 26.30Q18.41 26.30 16.96 25.34Q15.50 24.38 15.50 22.49L15.50 22.49Q15.50 20.86 16.51 19.98Q17.52 19.10 19.51 18.91L19.51 18.91L22.70 18.58L22.70 18.29Q22.70 17.47 22.07 17.11Q21.43 16.75 20.26 16.75L20.26 16.75Q19.34 16.75 18.47 16.97Q17.59 17.18 16.90 17.47L16.90 17.47Q16.61 17.28 16.40 16.88Q16.20 16.49 16.20 16.06L16.20 16.06Q16.20 15.05 17.30 14.59L17.30 14.59Q18 14.30 18.92 14.17Q19.85 14.04 20.71 14.04ZM29.04 24.43L29.04 19.58L32.62 19.66L32.62 25.90Q32.38 25.97 31.94 26.03Q31.51 26.09 31.01 26.09L31.01 26.09Q30 26.09 29.52 25.73Q29.04 25.37 29.04 24.43L29.04 24.43ZM32.62 11.76L32.62 21.50L29.04 21.43L29.04 10.30Q29.28 10.22 29.71 10.15Q30.14 10.08 30.65 10.08L30.65 10.08Q31.68 10.08 32.15 10.44Q32.62 10.80 32.62 11.76L32.62 11.76ZM47.16 20.16L47.16 20.16L47.16 20.16Q47.16 22.03 46.40 23.41Q45.65 24.79 44.28 25.54Q42.91 26.28 41.06 26.28L41.06 26.28Q39.24 26.28 37.86 25.55Q36.48 24.82 35.72 23.44Q34.97 22.06 34.97 20.16L34.97 20.16Q34.97 18.26 35.74 16.91Q36.50 15.55 37.88 14.80Q39.26 14.04 41.06 14.04L41.06 14.04Q42.89 14.04 44.26 14.80Q45.62 15.55 46.39 16.93Q47.16 18.31 47.16 20.16ZM41.06 16.85L41.06 16.85L41.06 16.85Q39.94 16.85 39.28 17.71Q38.62 18.58 38.62 20.16L38.62 20.16Q38.62 21.77 39.26 22.62Q39.91 23.47 41.06 23.47L41.06 23.47Q42.22 23.47 42.86 22.61Q43.51 21.74 43.51 20.16L43.51 20.16Q43.51 18.60 42.86 17.72Q42.22 16.85 41.06 16.85ZM61.03 20.16L61.03 20.16L61.03 20.16Q61.03 22.03 60.28 23.41Q59.52 24.79 58.15 25.54Q56.78 26.28 54.94 26.28L54.94 26.28Q53.11 26.28 51.73 25.55Q50.35 24.82 49.60 23.44Q48.84 22.06 48.84 20.16L48.84 20.16Q48.84 18.26 49.61 16.91Q50.38 15.55 51.76 14.80Q53.14 14.04 54.94 14.04L54.94 14.04Q56.76 14.04 58.13 14.80Q59.50 15.55 60.26 16.93Q61.03 18.31 61.03 20.16ZM54.94 16.85L54.94 16.85L54.94 16.85Q53.81 16.85 53.15 17.71Q52.49 18.58 52.49 20.16L52.49 20.16Q52.49 21.77 53.14 22.62Q53.78 23.47 54.94 23.47L54.94 23.47Q56.09 23.47 56.74 22.61Q57.38 21.74 57.38 20.16L57.38 20.16Q57.38 18.60 56.74 17.72Q56.09 16.85 54.94 16.85ZM70.66 17.18L76.01 17.18L76.01 19.78L70.66 19.78L70.66 17.18ZM74.21 19.78L74.21 19.78L74.50 17.78Q76.49 17.78 77.81 18.26Q79.13 18.74 79.79 19.61Q80.45 20.47 80.45 21.70L80.45 21.70Q80.45 24.02 78.72 25.15Q76.99 26.28 73.80 26.28L73.80 26.28Q73.22 26.28 72.49 26.23Q71.76 26.18 71.00 26.06Q70.25 25.94 69.62 25.73L69.62 25.73Q68.38 25.27 68.38 24.12L68.38 24.12L68.38 12.65Q68.38 12.19 68.64 11.93Q68.90 11.66 69.34 11.52L69.34 11.52Q70.15 11.23 71.32 11.11Q72.48 10.99 73.70 10.99L73.70 10.99Q76.68 10.99 78.30 12.02Q79.92 13.06 79.92 15.14L79.92 15.14Q79.92 16.30 79.25 17.11Q78.58 17.93 77.29 18.36Q76.01 18.79 74.18 18.79L74.18 18.79L74.02 17.18Q75.17 17.18 75.72 16.73Q76.27 16.27 76.27 15.43L76.27 15.43Q76.27 14.64 75.64 14.21Q75 13.78 73.73 13.78L73.73 13.78Q73.27 13.78 72.77 13.81Q72.26 13.85 71.93 13.92L71.93 13.92L71.93 23.26Q72.34 23.35 72.92 23.40Q73.51 23.45 74.04 23.45L74.04 23.45Q75.24 23.45 75.97 22.98Q76.70 22.51 76.70 21.55L76.70 21.55Q76.70 20.64 76.08 20.21Q75.46 19.78 74.21 19.78ZM93.86 18.70L93.86 21.02L90.29 21.02L90.29 18.89Q90.29 17.78 89.72 17.32Q89.16 16.85 88.30 16.85L88.30 16.85Q87.53 16.85 86.92 17.14Q86.30 17.42 85.87 17.78L85.87 17.78L85.78 14.90Q86.33 14.59 87.14 14.32Q87.96 14.04 88.94 14.04L88.94 14.04Q91.22 14.04 92.54 15.20Q93.86 16.37 93.86 18.70L93.86 18.70ZM82.85 24.43L82.85 19.58L86.40 19.58L86.40 25.90Q86.16 25.97 85.73 26.03Q85.30 26.09 84.79 26.09L84.79 26.09Q83.78 26.09 83.32 25.73Q82.85 25.37 82.85 24.43L82.85 24.43ZM90.29 24.43L90.29 19.58L93.86 19.58L93.86 25.90Q93.62 25.97 93.19 26.03Q92.76 26.09 92.26 26.09L92.26 26.09Q91.22 26.09 90.76 25.73Q90.29 25.37 90.29 24.43L90.29 24.43ZM86.40 11.76L86.40 21.43L82.85 21.43L82.85 10.30Q83.06 10.22 83.50 10.15Q83.93 10.08 84.43 10.08L84.43 10.08Q85.46 10.08 85.93 10.44Q86.40 10.80 86.40 11.76L86.40 11.76ZM101.38 23.64L101.38 23.64L101.38 23.64Q101.93 23.64 102.47 23.53Q103.01 23.42 103.25 23.28L103.25 23.28L103.25 20.98L101.23 21.17Q100.42 21.22 99.94 21.50Q99.46 21.79 99.46 22.37L99.46 22.37Q99.46 22.94 99.91 23.29Q100.37 23.64 101.38 23.64ZM101.23 14.04L101.23 14.04L101.23 14.04Q103.73 14.04 105.22 15.08Q106.70 16.13 106.70 18.31L106.70 18.31L106.70 23.76Q106.70 24.36 106.39 24.73Q106.08 25.10 105.60 25.37L105.60 25.37Q104.88 25.80 103.81 26.05Q102.74 26.30 101.38 26.30L101.38 26.30Q98.93 26.30 97.48 25.34Q96.02 24.38 96.02 22.49L96.02 22.49Q96.02 20.86 97.03 19.98Q98.04 19.10 100.03 18.91L100.03 18.91L103.22 18.58L103.22 18.29Q103.22 17.47 102.59 17.11Q101.95 16.75 100.78 16.75L100.78 16.75Q99.86 16.75 98.99 16.97Q98.11 17.18 97.42 17.47L97.42 17.47Q97.13 17.28 96.92 16.88Q96.72 16.49 96.72 16.06L96.72 16.06Q96.72 15.05 97.82 14.59L97.82 14.59Q98.52 14.30 99.44 14.17Q100.37 14.04 101.23 14.04ZM109.32 11.09L109.32 11.09L109.32 11.09Q109.32 10.27 109.88 9.72Q110.45 9.17 111.31 9.17L111.31 9.17Q112.20 9.17 112.75 9.72Q113.30 10.27 113.30 11.09L113.30 11.09Q113.30 11.88 112.75 12.46Q112.20 13.03 111.31 13.03L111.31 13.03Q110.45 13.03 109.88 12.46Q109.32 11.88 109.32 11.09ZM109.54 24.43L109.54 19.58L113.09 19.58L113.09 25.90Q112.87 25.97 112.44 26.03Q112.01 26.09 111.50 26.09L111.50 26.09Q110.47 26.09 110.00 25.73Q109.54 25.37 109.54 24.43L109.54 24.43ZM113.09 16.01L113.09 21.43L109.54 21.43L109.54 14.54Q109.75 14.47 110.20 14.40Q110.64 14.33 111.14 14.33L111.14 14.33Q112.18 14.33 112.63 14.68Q113.09 15.02 113.09 16.01L113.09 16.01ZM114.48 28.63L114.48 28.63L114.48 28.63Q115.06 28.34 115.43 28.00Q115.80 27.65 115.98 27.17Q116.16 26.69 116.16 25.97L116.16 25.97L116.16 19.94L119.74 19.94L119.74 26.35Q119.74 27.86 119.26 28.80Q118.78 29.74 118.04 30.17Q117.31 30.60 116.47 30.60L116.47 30.60Q115.56 30.60 115.03 30.04Q114.50 29.47 114.48 28.63ZM115.87 11.09L115.87 11.09L115.87 11.09Q115.87 10.27 116.42 9.72Q116.98 9.17 117.86 9.17L117.86 9.17Q118.73 9.17 119.29 9.72Q119.86 10.27 119.86 11.09L119.86 11.09Q119.86 11.88 119.29 12.46Q118.73 13.03 117.86 13.03L117.86 13.03Q116.98 13.03 116.42 12.46Q115.87 11.88 115.87 11.09ZM119.74 16.01L119.74 21.50L116.16 21.43L116.16 14.54Q116.40 14.47 116.83 14.40Q117.26 14.33 117.77 14.33L117.77 14.33Q118.80 14.33 119.27 14.68Q119.74 15.02 119.74 16.01L119.74 16.01ZM127.32 23.64L127.32 23.64L127.32 23.64Q127.87 23.64 128.41 23.53Q128.95 23.42 129.19 23.28L129.19 23.28L129.19 20.98L127.18 21.17Q126.36 21.22 125.88 21.50Q125.40 21.79 125.40 22.37L125.40 22.37Q125.40 22.94 125.86 23.29Q126.31 23.64 127.32 23.64ZM127.18 14.04L127.18 14.04L127.18 14.04Q129.67 14.04 131.16 15.08Q132.65 16.13 132.65 18.31L132.65 18.31L132.65 23.76Q132.65 24.36 132.34 24.73Q132.02 25.10 131.54 25.37L131.54 25.37Q130.82 25.80 129.76 26.05Q128.69 26.30 127.32 26.30L127.32 26.30Q124.87 26.30 123.42 25.34Q121.97 24.38 121.97 22.49L121.97 22.49Q121.97 20.86 122.98 19.98Q123.98 19.10 125.98 18.91L125.98 18.91L129.17 18.58L129.17 18.29Q129.17 17.47 128.53 17.11Q127.90 16.75 126.72 16.75L126.72 16.75Q125.81 16.75 124.93 16.97Q124.06 17.18 123.36 17.47L123.36 17.47Q123.07 17.28 122.87 16.88Q122.66 16.49 122.66 16.06L122.66 16.06Q122.66 15.05 123.77 14.59L123.77 14.59Q124.46 14.30 125.39 14.17Q126.31 14.04 127.18 14.04ZM140.11 23.64L140.11 23.64L140.11 23.64Q140.66 23.64 141.20 23.53Q141.74 23.42 141.98 23.28L141.98 23.28L141.98 20.98L139.97 21.17Q139.15 21.22 138.67 21.50Q138.19 21.79 138.19 22.37L138.19 22.37Q138.19 22.94 138.65 23.29Q139.10 23.64 140.11 23.64ZM139.97 14.04L139.97 14.04L139.97 14.04Q142.46 14.04 143.95 15.08Q145.44 16.13 145.44 18.31L145.44 18.31L145.44 23.76Q145.44 24.36 145.13 24.73Q144.82 25.10 144.34 25.37L144.34 25.37Q143.62 25.80 142.55 26.05Q141.48 26.30 140.11 26.30L140.11 26.30Q137.66 26.30 136.21 25.34Q134.76 24.38 134.76 22.49L134.76 22.49Q134.76 20.86 135.77 19.98Q136.78 19.10 138.77 18.91L138.77 18.91L141.96 18.58L141.96 18.29Q141.96 17.47 141.32 17.11Q140.69 16.75 139.51 16.75L139.51 16.75Q138.60 16.75 137.72 16.97Q136.85 17.18 136.15 17.47L136.15 17.47Q135.86 17.28 135.66 16.88Q135.46 16.49 135.46 16.06L135.46 16.06Q135.46 15.05 136.56 14.59L136.56 14.59Q137.26 14.30 138.18 14.17Q139.10 14.04 139.97 14.04ZM159.19 18.46L159.19 18.46L159.19 20.71L155.62 20.71L155.62 18.58Q155.62 17.69 155.10 17.27Q154.58 16.85 153.74 16.85L153.74 16.85Q153.14 16.85 152.64 17.00Q152.14 17.16 151.73 17.38L151.73 17.38L151.73 20.71L148.18 20.71L148.18 16.97Q148.18 16.37 148.43 15.97Q148.68 15.58 149.16 15.26L149.16 15.26Q149.93 14.74 151.13 14.39Q152.33 14.04 153.77 14.04L153.77 14.04Q156.36 14.04 157.78 15.18Q159.19 16.32 159.19 18.46ZM148.18 24.43L148.18 19.61L151.73 19.61L151.73 25.90Q151.49 25.97 151.06 26.03Q150.62 26.09 150.12 26.09L150.12 26.09Q149.11 26.09 148.64 25.73Q148.18 25.37 148.18 24.43L148.18 24.43ZM155.62 24.43L155.62 19.61L159.19 19.61L159.19 25.90Q158.95 25.97 158.52 26.03Q158.09 26.09 157.58 26.09L157.58 26.09Q156.58 26.09 156.10 25.73Q155.62 25.37 155.62 24.43L155.62 24.43ZM166.80 13.30L166.80 13.30L166.80 13.30Q166.80 12.55 167.35 12.04Q167.90 11.52 168.86 11.26Q169.82 10.99 171.10 10.99L171.10 10.99Q172.90 10.99 174.13 11.56Q175.37 12.12 176.00 13.12Q176.64 14.11 176.64 15.38L176.64 15.38Q176.64 16.66 175.92 17.87Q175.20 19.08 173.69 20.35L173.69 20.35L170.35 23.14L176.45 23.14Q176.57 23.33 176.69 23.70Q176.81 24.07 176.81 24.50L176.81 24.50Q176.81 25.25 176.47 25.58Q176.14 25.92 175.58 25.92L175.58 25.92L167.21 25.92Q166.75 25.61 166.50 25.10Q166.25 24.60 166.25 23.98L166.25 23.98Q166.25 23.26 166.55 22.76Q166.85 22.27 167.21 21.94L167.21 21.94L170.76 18.79Q172.06 17.66 172.54 16.94Q173.02 16.22 173.02 15.58L173.02 15.58Q173.02 14.78 172.43 14.32Q171.84 13.85 170.74 13.85L170.74 13.85Q169.75 13.85 168.97 14.17Q168.19 14.50 167.69 14.83L167.69 14.83Q167.33 14.59 167.06 14.21Q166.80 13.82 166.80 13.30ZM184.42 11.33L184.42 11.33L192.84 11.33Q193.20 11.57 193.49 11.98Q193.78 12.38 193.78 13.01L193.78 13.01Q193.78 13.34 193.70 13.70Q193.63 14.06 193.46 14.42L193.46 14.42L188.23 26.06Q187.94 26.09 187.68 26.09Q187.42 26.09 187.18 26.09L187.18 26.09Q186.26 26.09 185.66 25.72Q185.06 25.34 185.06 24.50L185.06 24.50Q185.06 24.05 185.29 23.53Q185.52 23.02 185.86 22.32L185.86 22.32L189.82 14.21L183.53 14.21Q183.41 13.99 183.28 13.61Q183.14 13.22 183.14 12.82L183.14 12.82Q183.14 12.02 183.50 11.68Q183.86 11.33 184.42 11.33ZM203.93 18.62L203.93 18.62L203.93 18.62Q203.93 17.04 203.59 15.97Q203.26 14.90 202.66 14.38Q202.06 13.85 201.24 13.85L201.24 13.85Q200.45 13.85 199.85 14.39Q199.25 14.93 198.92 15.98Q198.60 17.04 198.60 18.62L198.60 18.62Q198.60 21.02 199.30 22.22Q199.99 23.42 201.24 23.42L201.24 23.42Q202.54 23.42 203.23 22.22Q203.93 21.02 203.93 18.62ZM201.26 26.28L201.26 26.28L201.26 26.28Q199.42 26.28 198.01 25.43Q196.61 24.58 195.82 22.87Q195.02 21.17 195.02 18.62L195.02 18.62Q195.02 16.08 195.84 14.39Q196.66 12.70 198.06 11.84Q199.46 10.99 201.26 10.99L201.26 10.99Q203.04 10.99 204.46 11.84Q205.87 12.70 206.70 14.40Q207.53 16.10 207.53 18.62L207.53 18.62Q207.53 21.17 206.72 22.87Q205.92 24.58 204.50 25.43Q203.09 26.28 201.26 26.28ZM218.33 18.62L218.33 18.62L218.33 18.62Q218.33 17.04 217.99 15.97Q217.66 14.90 217.06 14.38Q216.46 13.85 215.64 13.85L215.64 13.85Q214.85 13.85 214.25 14.39Q213.65 14.93 213.32 15.98Q213.00 17.04 213.00 18.62L213.00 18.62Q213.00 21.02 213.70 22.22Q214.39 23.42 215.64 23.42L215.64 23.42Q216.94 23.42 217.63 22.22Q218.33 21.02 218.33 18.62ZM215.66 26.28L215.66 26.28L215.66 26.28Q213.82 26.28 212.41 25.43Q211.01 24.58 210.22 22.87Q209.42 21.17 209.42 18.62L209.42 18.62Q209.42 16.08 210.24 14.39Q211.06 12.70 212.46 11.84Q213.86 10.99 215.66 10.99L215.66 10.99Q217.44 10.99 218.86 11.84Q220.27 12.70 221.10 14.40Q221.93 16.10 221.93 18.62L221.93 18.62Q221.93 21.17 221.12 22.87Q220.32 24.58 218.90 25.43Q217.49 26.28 215.66 26.28ZM240.07 18.46L240.07 18.46L240.07 20.71L236.50 20.71L236.50 18.58Q236.50 17.69 235.98 17.27Q235.46 16.85 234.62 16.85L234.62 16.85Q234.02 16.85 233.52 17.00Q233.02 17.16 232.61 17.38L232.61 17.38L232.61 20.71L229.06 20.71L229.06 16.97Q229.06 16.37 229.31 15.97Q229.56 15.58 230.04 15.26L230.04 15.26Q230.81 14.74 232.01 14.39Q233.21 14.04 234.65 14.04L234.65 14.04Q237.24 14.04 238.66 15.18Q240.07 16.32 240.07 18.46ZM229.06 24.43L229.06 19.61L232.61 19.61L232.61 25.90Q232.37 25.97 231.94 26.03Q231.50 26.09 231.00 26.09L231.00 26.09Q229.99 26.09 229.52 25.73Q229.06 25.37 229.06 24.43L229.06 24.43ZM236.50 24.43L236.50 19.61L240.07 19.61L240.07 25.90Q239.83 25.97 239.40 26.03Q238.97 26.09 238.46 26.09L238.46 26.09Q237.46 26.09 236.98 25.73Q236.50 25.37 236.50 24.43L236.50 24.43ZM254.50 20.16L254.50 20.16L254.50 20.16Q254.50 22.03 253.74 23.41Q252.98 24.79 251.62 25.54Q250.25 26.28 248.40 26.28L248.40 26.28Q246.58 26.28 245.20 25.55Q243.82 24.82 243.06 23.44Q242.30 22.06 242.30 20.16L242.30 20.16Q242.30 18.26 243.07 16.91Q243.84 15.55 245.22 14.80Q246.60 14.04 248.40 14.04L248.40 14.04Q250.22 14.04 251.59 14.80Q252.96 15.55 253.73 16.93Q254.50 18.31 254.50 20.16ZM248.40 16.85L248.40 16.85L248.40 16.85Q247.27 16.85 246.61 17.71Q245.95 18.58 245.95 20.16L245.95 20.16Q245.95 21.77 246.60 22.62Q247.25 23.47 248.40 23.47L248.40 23.47Q249.55 23.47 250.20 22.61Q250.85 21.74 250.85 20.16L250.85 20.16Q250.85 18.60 250.20 17.72Q249.55 16.85 248.40 16.85ZM260.28 17.50L260.28 17.50L260.28 20.50L256.73 20.50L256.73 17.06Q256.73 16.39 257.05 15.92Q257.38 15.46 257.95 15.10L257.95 15.10Q258.74 14.62 259.86 14.34Q260.98 14.06 262.20 14.06L262.20 14.06Q264.65 14.06 264.65 15.70L264.65 15.70Q264.65 16.08 264.54 16.42Q264.43 16.75 264.29 16.99L264.29 16.99Q264.05 16.94 263.70 16.91Q263.35 16.87 262.94 16.87L262.94 16.87Q262.22 16.87 261.50 17.04Q260.78 17.21 260.28 17.50ZM256.73 24.43L256.73 19.58L260.28 19.66L260.28 25.90Q260.04 25.97 259.61 26.03Q259.18 26.09 258.67 26.09L258.67 26.09Q257.66 26.09 257.20 25.73Q256.73 25.37 256.73 24.43L256.73 24.43ZM276.89 17.98L276.89 17.98L276.89 20.71L273.31 20.71L273.31 18.43Q273.31 17.62 272.83 17.23Q272.35 16.85 271.63 16.85L271.63 16.85Q271.10 16.85 270.68 17.00Q270.26 17.16 269.98 17.33L269.98 17.33L269.98 20.71L266.42 20.71L266.42 16.97Q266.42 16.37 266.68 15.97Q266.93 15.58 267.41 15.26L267.41 15.26Q268.20 14.71 269.35 14.38Q270.50 14.04 271.75 14.04L271.75 14.04Q272.90 14.04 273.91 14.40Q274.92 14.76 275.66 15.50L275.66 15.50Q275.86 15.65 276.04 15.80Q276.22 15.96 276.31 16.15L276.31 16.15Q276.55 16.54 276.72 17.02Q276.89 17.50 276.89 17.98ZM283.78 18.34L283.78 18.34L283.78 20.71L280.22 20.71L280.22 18.43Q280.22 17.62 279.77 17.23Q279.31 16.85 278.57 16.85L278.57 16.85Q278.02 16.85 277.52 17.08Q277.03 17.30 276.67 17.62L276.67 17.62L274.80 15.55Q275.59 14.93 276.60 14.48Q277.61 14.04 279.07 14.04L279.07 14.04Q280.32 14.04 281.40 14.47Q282.48 14.90 283.13 15.84Q283.78 16.78 283.78 18.34ZM266.42 24.43L266.42 19.61L269.98 19.61L269.98 25.90Q269.74 25.97 269.30 26.03Q268.87 26.09 268.37 26.09L268.37 26.09Q267.36 26.09 266.89 25.73Q266.42 25.37 266.42 24.43L266.42 24.43ZM273.31 24.43L273.31 19.61L276.89 19.61L276.89 25.90Q276.65 25.97 276.22 26.03Q275.78 26.09 275.28 26.09L275.28 26.09Q274.25 26.09 273.78 25.73Q273.31 25.37 273.31 24.43L273.31 24.43ZM280.22 24.43L280.22 19.61L283.78 19.61L283.78 25.90Q283.56 25.97 283.13 26.03Q282.70 26.09 282.19 26.09L282.19 26.09Q281.16 26.09 280.69 25.73Q280.22 25.37 280.22 24.43L280.22 24.43ZM291.31 23.64L291.31 23.64L291.31 23.64Q291.86 23.64 292.40 23.53Q292.94 23.42 293.18 23.28L293.18 23.28L293.18 20.98L291.17 21.17Q290.35 21.22 289.87 21.50Q289.39 21.79 289.39 22.37L289.39 22.37Q289.39 22.94 289.85 23.29Q290.30 23.64 291.31 23.64ZM291.17 14.04L291.17 14.04L291.17 14.04Q293.66 14.04 295.15 15.08Q296.64 16.13 296.64 18.31L296.64 18.31L296.64 23.76Q296.64 24.36 296.33 24.73Q296.02 25.10 295.54 25.37L295.54 25.37Q294.82 25.80 293.75 26.05Q292.68 26.30 291.31 26.30L291.31 26.30Q288.86 26.30 287.41 25.34Q285.96 24.38 285.96 22.49L285.96 22.49Q285.96 20.86 286.97 19.98Q287.98 19.10 289.97 18.91L289.97 18.91L293.16 18.58L293.16 18.29Q293.16 17.47 292.52 17.11Q291.89 16.75 290.71 16.75L290.71 16.75Q289.80 16.75 288.92 16.97Q288.05 17.18 287.35 17.47L287.35 17.47Q287.06 17.28 286.86 16.88Q286.66 16.49 286.66 16.06L286.66 16.06Q286.66 15.05 287.76 14.59L287.76 14.59Q288.46 14.30 289.38 14.17Q290.30 14.04 291.17 14.04ZM299.50 24.43L299.50 19.58L303.07 19.66L303.07 25.90Q302.83 25.97 302.40 26.03Q301.97 26.09 301.46 26.09L301.46 26.09Q300.46 26.09 299.98 25.73Q299.50 25.37 299.50 24.43L299.50 24.43ZM303.07 11.76L303.07 21.50L299.50 21.43L299.50 10.30Q299.74 10.22 300.17 10.15Q300.60 10.08 301.10 10.08L301.10 10.08Q302.14 10.08 302.60 10.44Q303.07 10.80 303.07 11.76L303.07 11.76Z"/></svg>