<svg xmlns="http://www.w3.org/2000/svg" xmlns:xlink="http://www.w3.org/1999/xlink" width="136.70400000000004" height="34.68"><path fill="black" d="M-2.69 28.18L-2.69 28.18L-3.94 29.74Q-3.55 30.19-2.87 30.56Q-2.18 30.94-1.32 30.94L-1.32 30.94Q-0.17 30.94 0.70 30.47Q1.56 30 2.12 29.14Q2.69 28.27 2.88 27.12L2.88 27.12L5.98 8.88L4.08 8.88L0.98 26.88Q0.86 27.84 0.28 28.42Q-0.31 28.99-1.01 29.04L-1.01 29.04Q-1.58 29.06-2.00 28.81Q-2.42 28.56-2.69 28.18ZM6.84 20.16L6.84 20.16Q6.65 21.70 7.18 23.00Q7.70 24.31 8.84 25.10Q9.98 25.90 11.57 25.90L11.57 25.90Q13.20 25.90 14.57 25.12Q15.94 24.34 16.84 23.04Q17.74 21.74 17.95 20.16L17.95 20.16Q18.17 18.62 17.63 17.32Q17.09 16.01 15.96 15.20Q14.83 14.40 13.22 14.40L13.22 14.40Q11.62 14.40 10.24 15.18Q8.86 15.96 7.96 17.26Q7.06 18.55 6.84 20.16ZM8.74 20.16L8.74 20.16Q8.90 19.08 9.52 18.18Q10.13 17.28 11.05 16.74Q11.98 16.20 13.06 16.20L13.06 16.20Q14.14 16.20 14.86 16.78Q15.58 17.35 15.89 18.24Q16.20 19.13 16.06 20.16L16.06 20.16Q15.89 21.22 15.28 22.13Q14.66 23.04 13.74 23.57Q12.82 24.10 11.71 24.10L11.71 24.10Q10.63 24.10 9.92 23.53Q9.22 22.97 8.90 22.07Q8.59 21.17 8.74 20.16ZM20.62 22.34L20.62 22.34L19.06 23.23Q19.37 23.88 19.97 24.50Q20.57 25.13 21.44 25.52Q22.32 25.92 23.42 25.92L23.42 25.92Q24.55 25.92 25.42 25.45Q26.28 24.98 26.77 24.19Q27.26 23.40 27.26 22.44L27.26 22.44Q27.26 21.46 26.84 20.84Q26.42 20.23 25.73 19.82Q25.03 19.42 24.22 19.06L24.22 19.06Q23.69 18.82 23.24 18.58Q22.80 18.34 22.54 18.01Q22.27 17.69 22.27 17.26L22.27 17.26Q22.27 16.70 22.72 16.37Q23.16 16.03 23.90 16.03L23.90 16.03Q24.67 16.03 25.31 16.45Q25.94 16.87 26.40 17.50L26.40 17.50L27.82 16.54Q27.31 15.62 26.33 15.01Q25.34 14.40 24.02 14.40L24.02 14.40Q23.14 14.40 22.31 14.74Q21.48 15.07 20.95 15.76Q20.42 16.44 20.42 17.50L20.42 17.50Q20.42 18.41 20.86 19.00Q21.29 19.58 21.94 19.96Q22.58 20.33 23.21 20.57L23.21 20.57Q23.71 20.78 24.22 21.06Q24.72 21.34 25.06 21.72Q25.39 22.10 25.39 22.66L25.39 22.66Q25.39 23.30 24.89 23.75Q24.38 24.19 23.57 24.19L23.57 24.19Q22.90 24.19 22.34 23.94Q21.79 23.69 21.37 23.27Q20.95 22.85 20.62 22.34ZM34.46 14.64L29.09 14.64L28.75 16.44L34.15 16.44L34.46 14.64ZM33.36 10.80L31.42 10.80L28.92 25.68L30.77 25.68L33.36 10.80ZM52.20 8.90L40.92 22.30L53.35 22.32L53.66 20.52L50.23 20.52L49.82 20.52L44.52 20.50L50.26 13.54L48.96 21.19L48.91 21.46L48.17 25.68L50.18 25.68L53.06 8.88L52.20 8.90ZM57.82 17.28L57.82 17.28Q57.98 16.06 58.42 14.86Q58.85 13.66 59.52 12.68Q60.19 11.71 61.09 11.14Q61.99 10.56 63.10 10.56L63.10 10.56Q63.98 10.58 64.56 10.99Q65.14 11.40 65.46 12.10Q65.78 12.79 65.92 13.67Q66.05 14.54 66.04 15.47Q66.02 16.39 65.93 17.28L65.93 17.28Q65.76 18.50 65.33 19.70Q64.90 20.90 64.22 21.88Q63.55 22.85 62.65 23.42Q61.75 24 60.65 23.98L60.65 23.98Q59.76 23.98 59.18 23.56Q58.61 23.14 58.28 22.44Q57.96 21.74 57.83 20.88Q57.70 20.02 57.71 19.08Q57.72 18.14 57.82 17.28ZM55.80 17.28L55.80 17.28Q55.66 18.48 55.70 19.70Q55.75 20.93 56.04 22.04Q56.33 23.16 56.90 24.02Q57.48 24.89 58.36 25.39Q59.23 25.90 60.48 25.90L60.48 25.90Q61.99 25.90 63.26 25.18Q64.54 24.46 65.51 23.22Q66.48 21.98 67.10 20.45Q67.73 18.91 67.94 17.28L67.94 17.28Q68.09 16.08 68.04 14.84Q67.99 13.61 67.70 12.50Q67.42 11.40 66.84 10.52Q66.26 9.65 65.39 9.14Q64.51 8.64 63.26 8.64L63.26 8.64Q61.75 8.64 60.48 9.36Q59.21 10.08 58.24 11.32Q57.26 12.55 56.64 14.10Q56.02 15.65 55.80 17.28ZM71.78 17.28L71.78 17.28Q71.95 16.06 72.38 14.86Q72.82 13.66 73.49 12.68Q74.16 11.71 75.06 11.14Q75.96 10.56 77.06 10.56L77.06 10.56Q77.95 10.58 78.53 10.99Q79.10 11.40 79.43 12.10Q79.75 12.79 79.88 13.67Q80.02 14.54 80.00 15.47Q79.99 16.39 79.90 17.28L79.90 17.28Q79.73 18.50 79.30 19.70Q78.86 20.90 78.19 21.88Q77.52 22.85 76.62 23.42Q75.72 24 74.62 23.98L74.62 23.98Q73.73 23.98 73.15 23.56Q72.58 23.14 72.25 22.44Q71.93 21.74 71.80 20.88Q71.66 20.02 71.68 19.08Q71.69 18.14 71.78 17.28ZM69.77 17.28L69.77 17.28Q69.62 18.48 69.67 19.70Q69.72 20.93 70.01 22.04Q70.30 23.16 70.87 24.02Q71.45 24.89 72.32 25.39Q73.20 25.90 74.45 25.90L74.45 25.90Q75.96 25.90 77.23 25.18Q78.50 24.46 79.48 23.22Q80.45 21.98 81.07 20.45Q81.70 18.91 81.91 17.28L81.91 17.28Q82.06 16.08 82.01 14.84Q81.96 13.61 81.67 12.50Q81.38 11.40 80.81 10.52Q80.23 9.65 79.36 9.14Q78.48 8.64 77.23 8.64L77.23 8.64Q75.72 8.64 74.45 9.36Q73.18 10.08 72.20 11.32Q71.23 12.55 70.61 14.10Q69.98 15.65 69.77 17.28ZM93.00 10.08L93.00 10.08Q93.00 10.61 93.38 10.99Q93.77 11.38 94.30 11.38L94.30 11.38Q94.85 11.38 95.23 10.99Q95.62 10.61 95.62 10.08L95.62 10.08Q95.62 9.53 95.23 9.14Q94.85 8.76 94.30 8.76L94.30 8.76Q93.77 8.76 93.38 9.14Q93.00 9.53 93.00 10.08ZM94.49 14.64L92.54 14.64L90.72 25.68L92.62 25.68L94.49 14.64ZM102.07 14.64L96.70 14.64L96.36 16.44L101.76 16.44L102.07 14.64ZM100.97 10.80L99.02 10.80L96.53 25.68L98.38 25.68L100.97 10.80ZM113.83 14.64L112.01 14.64L110.16 25.68L111.91 25.68L113.83 14.64ZM101.98 20.16L101.98 20.16Q101.76 21.72 102.24 23.03Q102.72 24.34 103.79 25.12Q104.86 25.90 106.42 25.90L106.42 25.90Q107.52 25.90 108.44 25.45Q109.37 25.01 110.06 24.22Q110.76 23.42 111.22 22.38Q111.67 21.34 111.84 20.16L111.84 20.16Q111.98 19.03 111.85 18.01Q111.72 16.99 111.29 16.18Q110.86 15.36 110.10 14.88Q109.34 14.40 108.24 14.40L108.24 14.40Q106.68 14.38 105.35 15.14Q104.02 15.91 103.12 17.22Q102.22 18.53 101.98 20.16ZM103.90 20.16L103.90 20.16Q104.09 19.03 104.72 18.12Q105.36 17.21 106.30 16.69Q107.23 16.18 108.29 16.20L108.29 16.20Q109.01 16.22 109.55 16.55Q110.09 16.87 110.45 17.42Q110.81 17.98 110.95 18.67Q111.10 19.37 110.98 20.16L110.98 20.16Q110.83 20.98 110.44 21.70Q110.04 22.42 109.46 22.96Q108.89 23.50 108.20 23.80Q107.52 24.10 106.80 24.10L106.80 24.10Q105.74 24.10 105.04 23.56Q104.33 23.02 104.04 22.12Q103.75 21.22 103.90 20.16ZM120.36 6.96L118.44 6.96L115.27 25.68L117.12 25.68L120.36 6.96ZM123.26 10.08L123.26 10.08Q123.26 10.61 123.65 10.99Q124.03 11.38 124.56 11.38L124.56 11.38Q125.11 11.38 125.50 10.99Q125.88 10.61 125.88 10.08L125.88 10.08Q125.88 9.53 125.50 9.14Q125.11 8.76 124.56 8.76L124.56 8.76Q124.03 8.76 123.65 9.14Q123.26 9.53 123.26 10.08ZM124.75 14.64L122.81 14.64L120.98 25.68L122.88 25.68L124.75 14.64ZM128.62 20.16L128.62 20.16Q128.78 19.06 129.38 18.17Q129.98 17.28 130.91 16.74Q131.83 16.20 132.94 16.20L132.94 16.20Q134.14 16.20 135.04 16.75Q135.94 17.30 136.32 18.22L136.32 18.22L136.66 15.82Q136.03 15.12 135.08 14.76Q134.14 14.40 133.08 14.40L133.08 14.40Q131.45 14.40 130.08 15.18Q128.71 15.96 127.81 17.26Q126.91 18.55 126.70 20.16L126.70 20.16Q126.50 21.70 127.03 23.00Q127.56 24.31 128.70 25.10Q129.84 25.90 131.42 25.90L131.42 25.90Q132.55 25.90 133.57 25.52Q134.59 25.15 135.34 24.50L135.34 24.50L135.67 22.13Q135.05 22.92 133.96 23.52Q132.86 24.12 131.59 24.10L131.59 24.10Q130.51 24.07 129.79 23.52Q129.07 22.97 128.77 22.07Q128.47 21.17 128.62 20.16Z"/></svg>