<svg xmlns="http://www.w3.org/2000/svg" xmlns:xlink="http://www.w3.org/1999/xlink" width="317.208" height="36.24"><path fill="black" d="M2.30 10.70L2.30 10.70Q2.35 10.15 2.59 9.85Q2.83 9.55 3.50 9.46L3.50 9.46Q3.84 9.41 4.51 9.37Q5.18 9.34 5.94 9.32Q6.70 9.31 7.22 9.31L7.22 9.31Q9.55 9.31 11.33 10.00Q13.10 10.68 14.12 11.96Q15.14 13.25 15.14 15.10L15.14 15.10Q15.14 16.58 14.46 17.70Q13.78 18.82 12.65 19.54Q11.52 20.26 10.22 20.62Q8.93 20.98 7.68 20.98L7.68 20.98Q7.10 20.98 6.67 20.94Q6.24 20.90 5.83 20.83L5.83 20.83Q5.76 22.54 5.70 24.08Q5.64 25.63 5.57 27.17L5.57 27.17Q5.54 27.89 4.93 28.16Q4.32 28.44 3.41 28.44L3.41 28.44Q2.33 28.44 1.91 28.08Q1.49 27.72 1.51 27L1.51 27Q1.78 22.97 1.86 18.84Q1.94 14.71 2.30 10.70ZM6.02 17.88L6.02 17.88Q6.43 17.98 6.76 18.01Q7.08 18.05 7.51 18.05L7.51 18.05Q8.23 18.05 8.86 17.82Q9.48 17.59 9.96 17.18Q10.44 16.78 10.72 16.24Q10.99 15.70 10.99 15.05L10.99 15.05Q10.99 14.42 10.76 13.94Q10.54 13.46 10.10 13.10Q9.67 12.74 9.06 12.55Q8.45 12.36 7.73 12.36L7.73 12.36Q7.27 12.36 6.92 12.40Q6.58 12.43 6.29 12.48L6.29 12.48Q6.24 13.30 6.20 14.09Q6.17 14.88 6.12 15.78Q6.07 16.68 6.02 17.88ZM17.98 9.72L17.98 9.72Q18.05 8.98 18.49 8.66Q18.94 8.35 20.06 8.35L20.06 8.35Q20.90 8.35 21.30 8.57Q21.70 8.78 21.82 9.13Q21.94 9.48 21.91 9.86L21.91 9.86Q21.86 10.54 21.72 11.95Q21.58 13.37 21.40 15.89Q21.22 18.41 21.10 22.42L21.10 22.42Q21.07 23.69 21.02 24.84Q20.98 25.99 20.95 26.90L20.95 26.90Q20.93 27.72 20.48 28.02Q20.04 28.32 18.98 28.32L18.98 28.32Q17.90 28.32 17.44 28.02Q16.97 27.72 16.99 26.81L16.99 26.81Q17.06 24.74 17.15 22.57Q17.23 20.40 17.35 18.22Q17.47 16.03 17.63 13.88Q17.78 11.74 17.98 9.72ZM23.74 22.46L23.74 22.46Q23.74 21 24.17 19.63Q24.60 18.26 25.40 17.18Q26.21 16.10 27.37 15.47Q28.54 14.83 30.02 14.83L30.02 14.83Q30.96 14.83 31.67 15.13Q32.38 15.43 32.93 15.98L32.93 15.98Q33.05 15.46 33.34 15.12Q33.62 14.78 34.37 14.78L34.37 14.78Q35.23 14.78 35.88 15.20Q36.53 15.62 36.50 16.27L36.50 16.27Q36.48 16.92 36.29 18.04Q36.10 19.15 35.95 20.23L35.95 20.23Q35.90 20.57 35.82 21.10Q35.74 21.62 35.68 22.14Q35.62 22.66 35.59 23.02L35.59 23.02Q35.57 23.38 35.57 23.92Q35.57 24.46 35.71 24.86Q35.86 25.27 36.19 25.27L36.19 25.27Q36.38 25.27 36.53 25.18Q36.67 25.08 36.82 24.91L36.82 24.91Q37.06 24.74 37.24 24.64Q37.42 24.53 37.70 24.53L37.70 24.53Q38.04 24.53 38.32 24.76Q38.59 24.98 38.75 25.37Q38.90 25.75 38.76 26.23L38.76 26.23Q38.66 26.69 38.14 27.17Q37.61 27.65 36.90 27.97Q36.19 28.30 35.50 28.30L35.50 28.30Q34.80 28.30 34.22 28.00Q33.65 27.70 33.25 27.18Q32.86 26.66 32.71 25.97L32.71 25.97Q32.09 26.90 31.07 27.53Q30.05 28.15 28.78 28.15L28.78 28.15Q27.19 28.15 26.06 27.41Q24.94 26.66 24.34 25.38Q23.74 24.10 23.74 22.46ZM27.79 22.30L27.79 22.30Q27.79 23.06 27.96 23.68Q28.13 24.29 28.48 24.65Q28.82 25.01 29.40 25.01L29.40 25.01Q29.88 25.01 30.24 24.78Q30.60 24.55 30.89 24.16Q31.18 23.76 31.34 23.23L31.34 23.23Q31.54 22.68 31.68 22.08Q31.82 21.48 31.92 20.86Q32.02 20.23 32.09 19.63Q32.16 19.03 32.21 18.46L32.21 18.46Q31.87 18.14 31.44 17.96Q31.01 17.78 30.53 17.78L30.53 17.78Q29.88 17.78 29.38 18.13Q28.87 18.48 28.51 19.10Q28.15 19.73 27.97 20.54Q27.79 21.36 27.79 22.30ZM40.99 16.01L40.99 16.01Q41.14 15.34 41.51 15.12Q41.88 14.90 42.74 14.90L42.74 14.90Q42.96 14.90 43.31 14.99Q43.66 15.07 44.00 15.23Q44.35 15.38 44.58 15.66Q44.81 15.94 44.81 16.34L44.81 16.34Q44.81 16.80 44.66 17.41Q44.52 18.02 44.36 18.96Q44.21 19.90 44.21 21.36L44.21 21.36Q44.21 22.61 44.33 23.39Q44.45 24.17 44.74 24.54Q45.02 24.91 45.50 24.91L45.50 24.91Q45.91 24.91 46.34 24.64Q46.78 24.36 47.16 23.88Q47.54 23.40 47.81 22.85L47.81 22.85L47.81 21.77Q47.81 20.64 47.87 19.54Q47.93 18.43 48.07 17.48Q48.22 16.54 48.46 15.91L48.46 15.91Q48.65 15.38 49.03 15.10Q49.42 14.81 50.04 14.81L50.04 14.81Q50.93 14.81 51.35 15.04Q51.77 15.26 51.90 15.67Q52.03 16.08 52.03 16.63L52.03 16.63Q52.03 18.10 51.86 19.74Q51.70 21.38 51.26 22.87L51.26 22.87Q51.29 23.38 51.31 23.90Q51.34 24.43 51.37 24.96Q51.41 25.49 51.41 26.02L51.41 26.02Q51.41 27.72 51.16 29.33Q50.90 30.94 50.28 32.23Q49.66 33.53 48.52 34.28Q47.38 35.04 45.60 35.04L45.60 35.04Q43.68 35.04 42.30 34.27Q40.92 33.50 40.30 32.45L40.30 32.45Q40.15 32.18 40.12 31.98Q40.08 31.78 40.08 31.66L40.08 31.66Q40.08 31.18 40.40 30.78Q40.73 30.38 41.17 30.13Q41.62 29.88 41.95 29.88L41.95 29.88Q42.29 29.88 42.53 30.05Q42.77 30.22 43.01 30.55L43.01 30.55Q43.51 31.25 44.12 31.56Q44.74 31.87 45.41 31.87L45.41 31.87Q46.27 31.87 46.76 31.33Q47.26 30.79 47.48 29.58Q47.71 28.37 47.83 26.38L47.83 26.38Q47.26 27.26 46.55 27.84Q45.84 28.42 44.78 28.42L44.78 28.42Q43.51 28.42 42.66 27.89Q41.81 27.36 41.30 26.40Q40.80 25.44 40.60 24.18Q40.39 22.92 40.39 21.48L40.39 21.48Q40.39 20.54 40.49 19.52Q40.58 18.50 40.72 17.58Q40.85 16.66 40.99 16.01ZM56.23 34.92L56.23 34.92Q55.15 34.92 54.59 34.60Q54.02 34.27 54.10 33.38L54.10 33.38Q54.19 31.99 54.26 30.66Q54.34 29.33 54.41 27.98Q54.48 26.64 54.54 25.27Q54.60 23.90 54.66 22.46Q54.72 21.02 54.80 19.50Q54.89 17.98 54.96 16.32L54.96 16.32Q54.98 15.41 55.62 15.08Q56.26 14.76 57.07 14.76L57.07 14.76Q57.91 14.76 58.28 15.14Q58.66 15.53 58.66 15.98L58.66 15.98Q58.66 16.32 58.64 16.66Q58.63 16.99 58.61 17.47L58.61 17.47Q59.33 16.13 60.38 15.47Q61.44 14.81 62.64 14.81L62.64 14.81Q63.89 14.81 64.78 15.35Q65.66 15.89 66.23 16.78Q66.79 17.66 67.06 18.70Q67.32 19.73 67.32 20.76L67.32 20.76Q67.32 22.20 66.89 23.57Q66.46 24.94 65.66 26.03Q64.87 27.12 63.77 27.77Q62.66 28.42 61.30 28.42L61.30 28.42Q60.55 28.42 59.83 28.19Q59.11 27.96 58.44 27.53L58.44 27.53Q58.34 29.18 58.31 30.68Q58.27 32.18 58.18 33.50L58.18 33.50Q58.13 34.30 57.59 34.61Q57.05 34.92 56.23 34.92ZM60.74 25.44L60.74 25.44Q61.25 25.44 61.69 25.14Q62.14 24.84 62.48 24.25Q62.83 23.66 63.04 22.84Q63.24 22.01 63.24 20.95L63.24 20.95Q63.24 20.38 63.16 19.90Q63.07 19.42 62.88 19.04Q62.69 18.67 62.41 18.47Q62.14 18.26 61.73 18.26L61.73 18.26Q61.27 18.26 60.82 18.59Q60.36 18.91 59.95 19.44Q59.54 19.97 59.24 20.57Q58.94 21.17 58.75 21.72L58.75 21.72Q58.73 22.44 58.69 23.14Q58.66 23.83 58.61 24.58L58.61 24.58Q59.06 24.94 59.64 25.19Q60.22 25.44 60.74 25.44ZM75.05 28.18L75.05 28.18Q73.39 28.18 72.22 27.62Q71.04 27.07 70.28 26.17Q69.53 25.27 69.18 24.13Q68.83 22.99 68.83 21.84L68.83 21.84Q68.83 20.57 69.32 19.33Q69.82 18.10 70.72 17.08Q71.62 16.06 72.85 15.43Q74.09 14.81 75.60 14.81L75.60 14.81Q76.94 14.81 77.84 15.23Q78.74 15.65 79.21 16.42Q79.68 17.18 79.68 18.24L79.68 18.24Q79.68 19.37 79.20 20.23Q78.72 21.10 77.83 21.70L77.83 21.70Q76.75 22.42 75.53 22.76Q74.30 23.11 72.86 23.21L72.86 23.21Q73.08 23.71 73.42 24.13Q73.75 24.55 74.24 24.82Q74.74 25.08 75.41 25.08L75.41 25.08Q76.25 25.08 76.92 24.66Q77.59 24.24 78.10 23.69L78.10 23.69Q78.38 23.38 78.60 23.29Q78.82 23.21 78.98 23.21L78.98 23.21Q79.32 23.21 79.66 23.45Q79.99 23.69 80.27 24.02Q80.54 24.36 80.59 24.72L80.59 24.72Q80.69 25.06 80.53 25.39Q80.38 25.73 80.21 25.90L80.21 25.90Q79.32 26.86 77.99 27.52Q76.66 28.18 75.05 28.18ZM72.70 20.59L72.70 20.59Q73.34 20.54 73.76 20.46Q74.18 20.38 74.76 20.14L74.76 20.14Q75.34 19.92 75.74 19.46Q76.15 19.01 76.15 18.38L76.15 18.38Q76.15 18.14 76.04 17.95Q75.94 17.76 75.72 17.64Q75.50 17.52 75.17 17.52L75.17 17.52Q74.71 17.52 74.28 17.82Q73.85 18.12 73.52 18.60Q73.20 19.08 72.98 19.61Q72.77 20.14 72.70 20.59ZM82.90 15.77L82.90 15.77Q83.02 15.12 83.50 14.87Q83.98 14.62 84.91 14.62L84.91 14.62Q85.82 14.62 86.22 14.98Q86.62 15.34 86.62 15.72L86.62 15.72Q86.62 15.91 86.57 16.22Q86.52 16.54 86.48 16.92Q86.45 17.30 86.42 17.74L86.42 17.74Q86.74 17.09 87.18 16.42Q87.62 15.74 88.42 15.30Q89.21 14.86 90.48 14.86L90.48 14.86Q92.59 14.86 93.65 16.38Q94.70 17.90 94.70 20.38L94.70 20.38Q94.70 21.65 94.54 22.76Q94.37 23.88 94.20 24.92Q94.03 25.97 94.03 27.05L94.03 27.05Q94.03 27.55 93.53 27.97Q93.02 28.39 91.97 28.39L91.97 28.39Q90.94 28.39 90.52 27.96Q90.10 27.53 90.10 26.93L90.10 26.93Q90.10 25.85 90.29 24.92Q90.48 24 90.66 23.04Q90.84 22.08 90.84 20.88L90.84 20.88Q90.84 19.92 90.68 19.38Q90.53 18.84 90.20 18.59Q89.88 18.34 89.42 18.34L89.42 18.34Q88.92 18.34 88.49 18.70Q88.06 19.06 87.70 19.63Q87.34 20.21 87.07 20.89Q86.81 21.58 86.62 22.22L86.62 22.22Q86.69 23.54 86.70 24.84Q86.71 26.14 86.64 27.14L86.64 27.14Q86.62 27.65 86.15 28.03Q85.68 28.42 84.65 28.42L84.65 28.42Q83.71 28.42 83.27 28.13Q82.82 27.84 82.69 27.37Q82.56 26.90 82.56 26.38L82.56 26.38Q82.56 25.54 82.63 24.60Q82.70 23.66 82.90 22.78L82.90 22.78Q82.85 21.46 82.81 20.40Q82.78 19.34 82.76 18.48Q82.75 17.62 82.78 16.94Q82.80 16.27 82.90 15.77ZM118.25 10.87L118.25 10.87Q118.46 10.99 118.62 11.26Q118.78 11.52 118.78 11.98L118.78 11.98Q118.78 12.55 118.55 13.07Q118.32 13.58 117.95 13.88Q117.58 14.18 117.14 14.18L117.14 14.18Q116.90 14.18 116.68 14.09Q116.45 13.99 115.99 13.80L115.99 13.80Q115.27 13.44 114.52 13.22Q113.76 13.01 112.68 13.01L112.68 13.01Q112.01 13.01 111.48 13.19Q110.95 13.37 110.64 13.69Q110.33 14.02 110.33 14.45L110.33 14.45Q110.33 15.00 110.72 15.41Q111.12 15.82 111.85 16.19Q112.58 16.56 113.59 17.06L113.59 17.06Q115.46 17.95 116.71 18.76Q117.96 19.56 118.57 20.56Q119.18 21.55 119.18 22.99L119.18 22.99Q119.18 24.02 118.70 25.01Q118.22 25.99 117.34 26.78Q116.45 27.58 115.20 28.06Q113.95 28.54 112.42 28.54L112.42 28.54Q111.22 28.54 110.15 28.33Q109.08 28.13 108.25 27.78Q107.42 27.43 106.90 27.07L106.90 27.07Q106.15 26.50 106.15 25.82L106.15 25.82Q106.15 25.34 106.42 24.85Q106.68 24.36 107.06 24.01Q107.45 23.66 107.76 23.66L107.76 23.66Q107.95 23.66 108.20 23.76Q108.46 23.86 108.77 24.05L108.77 24.05Q109.49 24.43 110.35 24.71Q111.22 24.98 112.39 24.98L112.39 24.98Q113.26 24.98 113.87 24.76Q114.48 24.53 114.80 24.16Q115.13 23.78 115.13 23.33L115.13 23.33Q115.13 22.73 114.71 22.26Q114.29 21.79 113.44 21.34Q112.58 20.88 111.24 20.38L111.24 20.38Q110.26 19.97 109.36 19.49Q108.46 19.01 107.75 18.35Q107.04 17.69 106.62 16.81Q106.20 15.94 106.20 14.76L106.20 14.76Q106.20 13.20 107.04 12.02Q107.88 10.85 109.37 10.18Q110.86 9.50 112.85 9.50L112.85 9.50Q114.34 9.50 115.79 9.89Q117.24 10.27 118.25 10.87ZM120.98 22.46L120.98 22.46Q120.98 21 121.42 19.63Q121.85 18.26 122.65 17.18Q123.46 16.10 124.62 15.47Q125.78 14.83 127.27 14.83L127.27 14.83Q128.21 14.83 128.92 15.13Q129.62 15.43 130.18 15.98L130.18 15.98Q130.30 15.46 130.58 15.12Q130.87 14.78 131.62 14.78L131.62 14.78Q132.48 14.78 133.13 15.20Q133.78 15.62 133.75 16.27L133.75 16.27Q133.73 16.92 133.54 18.04Q133.34 19.15 133.20 20.23L133.20 20.23Q133.15 20.57 133.07 21.10Q132.98 21.62 132.92 22.14Q132.86 22.66 132.84 23.02L132.84 23.02Q132.82 23.38 132.82 23.92Q132.82 24.46 132.96 24.86Q133.10 25.27 133.44 25.27L133.44 25.27Q133.63 25.27 133.78 25.18Q133.92 25.08 134.06 24.91L134.06 24.91Q134.30 24.74 134.48 24.64Q134.66 24.53 134.95 24.53L134.95 24.53Q135.29 24.53 135.56 24.76Q135.84 24.98 136.00 25.37Q136.15 25.75 136.01 26.23L136.01 26.23Q135.91 26.69 135.38 27.17Q134.86 27.65 134.15 27.97Q133.44 28.30 132.74 28.30L132.74 28.30Q132.05 28.30 131.47 28.00Q130.90 27.70 130.50 27.18Q130.10 26.66 129.96 25.97L129.96 25.97Q129.34 26.90 128.32 27.53Q127.30 28.15 126.02 28.15L126.02 28.15Q124.44 28.15 123.31 27.41Q122.18 26.66 121.58 25.38Q120.98 24.10 120.98 22.46ZM125.04 22.30L125.04 22.30Q125.04 23.06 125.21 23.68Q125.38 24.29 125.72 24.65Q126.07 25.01 126.65 25.01L126.65 25.01Q127.13 25.01 127.49 24.78Q127.85 24.55 128.14 24.16Q128.42 23.76 128.59 23.23L128.59 23.23Q128.78 22.68 128.93 22.08Q129.07 21.48 129.17 20.86Q129.26 20.23 129.34 19.63Q129.41 19.03 129.46 18.46L129.46 18.46Q129.12 18.14 128.69 17.96Q128.26 17.78 127.78 17.78L127.78 17.78Q127.13 17.78 126.62 18.13Q126.12 18.48 125.76 19.10Q125.40 19.73 125.22 20.54Q125.04 21.36 125.04 22.30ZM138.10 15.77L138.10 15.77Q138.22 15.12 138.70 14.87Q139.18 14.62 140.11 14.62L140.11 14.62Q141.02 14.62 141.42 14.98Q141.82 15.34 141.82 15.72L141.82 15.72Q141.82 15.91 141.77 16.22Q141.72 16.54 141.68 16.92Q141.65 17.30 141.62 17.74L141.62 17.74Q141.94 17.09 142.38 16.42Q142.82 15.74 143.62 15.30Q144.41 14.86 145.68 14.86L145.68 14.86Q147.79 14.86 148.85 16.38Q149.90 17.90 149.90 20.38L149.90 20.38Q149.90 21.65 149.74 22.76Q149.57 23.88 149.40 24.92Q149.23 25.97 149.23 27.05L149.23 27.05Q149.23 27.55 148.73 27.97Q148.22 28.39 147.17 28.39L147.17 28.39Q146.14 28.39 145.72 27.96Q145.30 27.53 145.30 26.93L145.30 26.93Q145.30 25.85 145.49 24.92Q145.68 24 145.86 23.04Q146.04 22.08 146.04 20.88L146.04 20.88Q146.04 19.92 145.88 19.38Q145.73 18.84 145.40 18.59Q145.08 18.34 144.62 18.34L144.62 18.34Q144.12 18.34 143.69 18.70Q143.26 19.06 142.90 19.63Q142.54 20.21 142.27 20.89Q142.01 21.58 141.82 22.22L141.82 22.22Q141.89 23.54 141.90 24.84Q141.91 26.14 141.84 27.14L141.84 27.14Q141.82 27.65 141.35 28.03Q140.88 28.42 139.85 28.42L139.85 28.42Q138.91 28.42 138.47 28.13Q138.02 27.84 137.89 27.37Q137.76 26.90 137.76 26.38L137.76 26.38Q137.76 25.54 137.83 24.60Q137.90 23.66 138.10 22.78L138.10 22.78Q138.05 21.46 138.01 20.40Q137.98 19.34 137.96 18.48Q137.95 17.62 137.98 16.94Q138 16.27 138.10 15.77ZM161.54 16.25L161.54 16.25Q161.74 16.44 161.87 16.70Q162 16.97 162 17.28L162 17.28Q162 17.59 161.77 17.99Q161.54 18.38 161.20 18.67Q160.85 18.96 160.44 18.96L160.44 18.96Q160.08 18.96 159.86 18.84Q159.65 18.72 159.46 18.55L159.46 18.55Q159.12 18.22 158.59 17.90Q158.06 17.59 157.44 17.59L157.44 17.59Q157.03 17.59 156.70 17.80Q156.36 18 156.36 18.38L156.36 18.38Q156.36 18.86 156.85 19.18Q157.34 19.49 158.47 20.09L158.47 20.09Q159.41 20.59 160.14 21.10Q160.87 21.60 161.29 22.31Q161.71 23.02 161.71 24.14L161.71 24.14Q161.71 25.25 161.12 26.18Q160.54 27.12 159.46 27.70Q158.38 28.27 156.91 28.27L156.91 28.27Q155.59 28.27 154.30 27.91Q153 27.55 152.09 26.76L152.09 26.76Q151.90 26.59 151.74 26.36Q151.58 26.14 151.58 25.75L151.58 25.75Q151.58 25.13 152.02 24.59Q152.45 24.05 152.95 24.05L152.95 24.05Q153.14 24.05 153.29 24.10Q153.43 24.14 153.60 24.26L153.60 24.26Q154.37 24.77 155.06 25.08Q155.76 25.39 156.58 25.39L156.58 25.39Q157.15 25.39 157.45 25.20Q157.75 25.01 157.75 24.70L157.75 24.70Q157.75 24.17 157.25 23.83Q156.74 23.50 155.90 23.09L155.90 23.09Q154.54 22.44 153.77 21.80Q153 21.17 152.68 20.46Q152.35 19.75 152.35 18.89L152.35 18.89Q152.35 17.74 153.01 16.81Q153.67 15.89 154.81 15.36Q155.95 14.83 157.39 14.83L157.39 14.83Q158.52 14.83 159.70 15.18Q160.87 15.53 161.54 16.25ZM173.93 14.02L173.93 14.02Q173.18 13.99 172.85 13.55Q172.51 13.10 172.51 11.98L172.51 11.98Q172.51 11.02 172.90 10.58Q173.28 10.15 173.88 10.15L173.88 10.15Q175.42 10.15 177.13 10.08Q178.85 10.01 180.60 9.86Q182.35 9.72 183.94 9.50L183.94 9.50Q184.58 9.41 184.94 9.60Q185.30 9.79 185.45 10.09Q185.59 10.39 185.59 10.70L185.59 10.70Q185.59 10.97 185.53 11.24Q185.47 11.52 185.28 11.86L185.28 11.86Q183.67 14.78 182.35 17.41Q181.03 20.04 179.93 22.55Q178.82 25.06 177.82 27.70L177.82 27.70Q177.62 28.30 177.04 28.51Q176.45 28.73 175.78 28.73L175.78 28.73Q175.01 28.73 174.60 28.50Q174.19 28.27 174.05 27.95Q173.90 27.62 173.90 27.38L173.90 27.38Q173.90 27.24 173.95 27.01Q174 26.78 174.05 26.66L174.05 26.66Q175.10 23.88 176.26 21.34Q177.41 18.79 178.80 16.19Q180.19 13.58 181.92 10.63L181.92 10.63L182.98 13.34Q181.34 13.61 179.88 13.76Q178.42 13.92 176.98 13.97Q175.54 14.02 173.93 14.02ZM194.26 28.46L194.26 28.46Q192.12 28.46 190.58 27.71Q189.05 26.95 188.06 25.64Q187.08 24.34 186.61 22.66Q186.14 20.98 186.14 19.15L186.14 19.15Q186.14 17.35 186.61 15.64Q187.08 13.92 188.05 12.53Q189.02 11.14 190.51 10.31Q192.00 9.48 194.04 9.48L194.04 9.48Q194.42 9.48 195.02 9.53Q195.62 9.58 196.30 9.67Q196.97 9.77 197.52 9.96L197.52 9.96Q199.13 10.99 200.15 12.60Q201.17 14.21 201.67 16.08Q202.18 17.95 202.18 19.78L202.18 19.78Q202.18 21.53 201.71 23.09Q201.24 24.65 200.26 25.86Q199.27 27.07 197.78 27.77Q196.30 28.46 194.26 28.46ZM189.91 18.96L189.91 18.96Q189.91 20.09 190.16 21.18Q190.42 22.27 190.91 23.15Q191.40 24.02 192.23 24.55Q193.06 25.08 194.21 25.08L194.21 25.08Q195.41 25.08 196.28 24.44Q197.16 23.81 197.65 22.61Q198.14 21.41 198.14 19.73L198.14 19.73Q198.14 18.36 197.86 17.04Q197.57 15.72 196.97 14.66Q196.37 13.61 195.41 13.08L195.41 13.08Q195.10 12.98 194.75 12.94Q194.40 12.89 194.06 12.89L194.06 12.89Q193.01 12.89 192.26 13.33Q191.52 13.78 191.06 14.48Q190.61 15.19 190.36 16.02Q190.10 16.85 190.01 17.63Q189.91 18.41 189.91 18.96ZM212.04 28.46L212.04 28.46Q209.90 28.46 208.37 27.71Q206.83 26.95 205.85 25.64Q204.86 24.34 204.40 22.66Q203.93 20.98 203.93 19.15L203.93 19.15Q203.93 17.35 204.40 15.64Q204.86 13.92 205.84 12.53Q206.81 11.14 208.30 10.31Q209.78 9.48 211.82 9.48L211.82 9.48Q212.21 9.48 212.81 9.53Q213.41 9.58 214.08 9.67Q214.75 9.77 215.30 9.96L215.30 9.96Q216.91 10.99 217.93 12.60Q218.95 14.21 219.46 16.08Q219.96 17.95 219.96 19.78L219.96 19.78Q219.96 21.53 219.49 23.09Q219.02 24.65 218.04 25.86Q217.06 27.07 215.57 27.77Q214.08 28.46 212.04 28.46ZM207.70 18.96L207.70 18.96Q207.70 20.09 207.95 21.18Q208.20 22.27 208.69 23.15Q209.18 24.02 210.01 24.55Q210.84 25.08 211.99 25.08L211.99 25.08Q213.19 25.08 214.07 24.44Q214.94 23.81 215.44 22.61Q215.93 21.41 215.93 19.73L215.93 19.73Q215.93 18.36 215.64 17.04Q215.35 15.72 214.75 14.66Q214.15 13.61 213.19 13.08L213.19 13.08Q212.88 12.98 212.53 12.94Q212.18 12.89 211.85 12.89L211.85 12.89Q210.79 12.89 210.05 13.33Q209.30 13.78 208.85 14.48Q208.39 15.19 208.14 16.02Q207.89 16.85 207.79 17.63Q207.70 18.41 207.70 18.96ZM231.65 15.77L231.65 15.77Q231.77 15.12 232.25 14.87Q232.73 14.62 233.66 14.62L233.66 14.62Q234.58 14.62 234.97 14.98Q235.37 15.34 235.37 15.72L235.37 15.72Q235.37 15.91 235.32 16.22Q235.27 16.54 235.24 16.92Q235.20 17.30 235.18 17.74L235.18 17.74Q235.49 17.09 235.93 16.42Q236.38 15.74 237.17 15.30Q237.96 14.86 239.23 14.86L239.23 14.86Q241.34 14.86 242.40 16.38Q243.46 17.90 243.46 20.38L243.46 20.38Q243.46 21.65 243.29 22.76Q243.12 23.88 242.95 24.92Q242.78 25.97 242.78 27.05L242.78 27.05Q242.78 27.55 242.28 27.97Q241.78 28.39 240.72 28.39L240.72 28.39Q239.69 28.39 239.27 27.96Q238.85 27.53 238.85 26.93L238.85 26.93Q238.85 25.85 239.04 24.92Q239.23 24 239.41 23.04Q239.59 22.08 239.59 20.88L239.59 20.88Q239.59 19.92 239.44 19.38Q239.28 18.84 238.96 18.59Q238.63 18.34 238.18 18.34L238.18 18.34Q237.67 18.34 237.24 18.70Q236.81 19.06 236.45 19.63Q236.09 20.21 235.82 20.89Q235.56 21.58 235.37 22.22L235.37 22.22Q235.44 23.54 235.45 24.84Q235.46 26.14 235.39 27.14L235.39 27.14Q235.37 27.65 234.90 28.03Q234.43 28.42 233.40 28.42L233.40 28.42Q232.46 28.42 232.02 28.13Q231.58 27.84 231.44 27.37Q231.31 26.90 231.31 26.38L231.31 26.38Q231.31 25.54 231.38 24.60Q231.46 23.66 231.65 22.78L231.65 22.78Q231.60 21.46 231.56 20.40Q231.53 19.34 231.52 18.48Q231.50 17.62 231.53 16.94Q231.55 16.27 231.65 15.77ZM252.14 14.81L252.14 14.81Q252.72 14.81 253.49 14.93Q254.26 15.05 254.94 15.26Q255.62 15.48 255.98 15.79L255.98 15.79Q257.14 16.68 257.66 18.12Q258.19 19.56 258.19 21.19L258.19 21.19Q258.19 22.51 257.83 23.77Q257.47 25.03 256.73 26.04Q255.98 27.05 254.86 27.65Q253.73 28.25 252.19 28.25L252.19 28.25Q250.44 28.25 249.17 27.72Q247.90 27.19 247.07 26.26Q246.24 25.32 245.84 24.12Q245.45 22.92 245.45 21.58L245.45 21.58Q245.45 20.28 245.84 19.07Q246.24 17.86 247.07 16.91Q247.90 15.96 249.16 15.38Q250.42 14.81 252.14 14.81ZM249.46 21.46L249.46 21.46Q249.46 22.34 249.72 23.20Q249.98 24.05 250.56 24.60Q251.14 25.15 252.02 25.15L252.02 25.15Q252.62 25.15 253.04 24.80Q253.46 24.46 253.72 23.89Q253.97 23.33 254.08 22.67Q254.18 22.01 254.18 21.38L254.18 21.38Q254.18 20.02 253.84 19.22Q253.49 18.43 252.91 18.02L252.91 18.02Q252.65 17.95 252.44 17.92Q252.24 17.88 252 17.88L252 17.88Q251.30 17.88 250.80 18.19Q250.30 18.50 250.01 19.01Q249.72 19.51 249.59 20.14Q249.46 20.76 249.46 21.46ZM260.47 22.30L260.62 16.42Q260.64 15.60 261.13 15.23Q261.62 14.86 262.82 14.86L262.82 14.86Q263.76 14.86 264.16 15.18Q264.55 15.50 264.55 16.03L264.55 16.03Q264.55 16.18 264.55 16.38Q264.55 16.58 264.54 16.84Q264.53 17.09 264.48 17.42L264.48 17.42Q265.08 16.22 265.99 15.53Q266.90 14.83 268.03 14.83L268.03 14.83Q268.42 14.83 269.03 14.94Q269.64 15.05 270.31 15.46L270.31 15.46Q270.60 15.62 270.89 16.04Q271.18 16.46 271.01 17.30L271.01 17.30Q270.89 18.12 270.47 18.53Q270.05 18.94 269.47 18.94L269.47 18.94Q269.23 18.94 269.03 18.86Q268.82 18.79 268.61 18.70L268.61 18.70Q268.37 18.58 268.06 18.47Q267.74 18.36 267.31 18.36L267.31 18.36Q266.16 18.36 265.44 19.44Q264.72 20.52 264.34 22.13L264.34 22.13Q264.31 22.94 264.30 23.65Q264.29 24.36 264.28 24.96Q264.26 25.56 264.25 26.08Q264.24 26.59 264.24 27L264.24 27Q264.24 27.53 263.90 27.83Q263.57 28.13 263.15 28.26Q262.73 28.39 262.44 28.39L262.44 28.39Q261.46 28.39 260.96 28.08Q260.47 27.77 260.33 27.25Q260.18 26.74 260.18 26.14L260.18 26.14Q260.18 25.66 260.22 24.94Q260.26 24.22 260.33 23.50Q260.40 22.78 260.47 22.30L260.47 22.30ZM273.22 15.84L273.22 15.84Q273.31 15.34 273.84 15.06Q274.37 14.78 274.99 14.78L274.99 14.78Q275.69 14.78 276.14 15.12Q276.60 15.46 276.60 15.91L276.60 15.91Q276.60 16.15 276.54 16.48Q276.48 16.80 276.41 17.35L276.41 17.35Q276.96 16.51 277.57 15.97Q278.18 15.43 278.93 15.16Q279.67 14.88 280.54 14.88L280.54 14.88Q281.18 14.88 281.82 15.10Q282.46 15.31 283.01 15.83Q283.56 16.34 283.90 17.30L283.90 17.30Q284.40 16.56 285.04 16.00Q285.67 15.43 286.45 15.11Q287.23 14.78 288.14 14.78L288.14 14.78Q289.46 14.78 290.28 15.30Q291.10 15.82 291.54 16.72Q291.98 17.62 292.14 18.76Q292.30 19.90 292.30 21.12L292.30 21.12Q292.30 21.91 292.26 22.57Q292.22 23.23 292.15 23.87Q292.08 24.50 292.00 25.19Q291.91 25.87 291.82 26.74L291.82 26.74Q291.72 27.53 291.16 27.86Q290.59 28.20 289.94 28.20L289.94 28.20Q288.72 28.20 288.35 27.86Q287.98 27.53 287.98 26.88L287.98 26.88Q287.98 26.54 288.05 26.00Q288.12 25.46 288.23 24.76Q288.34 24.05 288.41 23.16Q288.48 22.27 288.48 21.24L288.48 21.24Q288.48 19.85 288.20 19.08Q287.93 18.31 287.11 18.31L287.11 18.31Q286.70 18.31 286.30 18.56Q285.89 18.82 285.53 19.22Q285.17 19.63 284.89 20.14Q284.62 20.64 284.45 21.17L284.45 21.17Q284.45 21.62 284.42 21.96Q284.40 22.30 284.39 22.60Q284.38 22.90 284.35 23.23L284.35 23.23Q284.33 23.93 284.28 24.59Q284.23 25.25 284.21 25.84Q284.18 26.42 284.18 26.93L284.18 26.93Q284.16 27.72 283.70 28.03Q283.25 28.34 282.17 28.34L282.17 28.34Q281.16 28.34 280.70 28.02Q280.25 27.70 280.27 26.83L280.27 26.83Q280.30 25.97 280.37 25.04Q280.44 24.12 280.51 23.09Q280.58 22.06 280.58 20.95L280.58 20.95Q280.58 19.56 280.34 18.95Q280.10 18.34 279.46 18.34L279.46 18.34Q278.98 18.34 278.48 18.65Q277.99 18.96 277.56 19.49Q277.13 20.02 276.77 20.69L276.77 20.69Q276.72 21.89 276.67 23.08Q276.62 24.26 276.59 25.26Q276.55 26.26 276.50 26.93L276.50 26.93Q276.46 27.72 276.01 28.03Q275.57 28.34 274.66 28.34L274.66 28.34Q273.55 28.34 273.05 28.03Q272.54 27.72 272.57 26.83L272.57 26.83Q272.62 25.51 272.66 23.92Q272.71 22.32 272.78 20.66L272.78 20.66Q272.83 19.42 272.93 18.18Q273.02 16.94 273.22 15.84ZM294.48 22.46L294.48 22.46Q294.48 21 294.91 19.63Q295.34 18.26 296.15 17.18Q296.95 16.10 298.12 15.47Q299.28 14.83 300.77 14.83L300.77 14.83Q301.70 14.83 302.41 15.13Q303.12 15.43 303.67 15.98L303.67 15.98Q303.79 15.46 304.08 15.12Q304.37 14.78 305.11 14.78L305.11 14.78Q305.98 14.78 306.62 15.20Q307.27 15.62 307.25 16.27L307.25 16.27Q307.22 16.92 307.03 18.04Q306.84 19.15 306.70 20.23L306.70 20.23Q306.65 20.57 306.56 21.10Q306.48 21.62 306.42 22.14Q306.36 22.66 306.34 23.02L306.34 23.02Q306.31 23.38 306.31 23.92Q306.31 24.46 306.46 24.86Q306.60 25.27 306.94 25.27L306.94 25.27Q307.13 25.27 307.27 25.18Q307.42 25.08 307.56 24.91L307.56 24.91Q307.80 24.74 307.98 24.64Q308.16 24.53 308.45 24.53L308.45 24.53Q308.78 24.53 309.06 24.76Q309.34 24.98 309.49 25.37Q309.65 25.75 309.50 26.23L309.50 26.23Q309.41 26.69 308.88 27.17Q308.35 27.65 307.64 27.97Q306.94 28.30 306.24 28.30L306.24 28.30Q305.54 28.30 304.97 28.00Q304.39 27.70 304.00 27.18Q303.60 26.66 303.46 25.97L303.46 25.97Q302.83 26.90 301.81 27.53Q300.79 28.15 299.52 28.15L299.52 28.15Q297.94 28.15 296.81 27.41Q295.68 26.66 295.08 25.38Q294.48 24.10 294.48 22.46ZM298.54 22.30L298.54 22.30Q298.54 23.06 298.70 23.68Q298.87 24.29 299.22 24.65Q299.57 25.01 300.14 25.01L300.14 25.01Q300.62 25.01 300.98 24.78Q301.34 24.55 301.63 24.16Q301.92 23.76 302.09 23.23L302.09 23.23Q302.28 22.68 302.42 22.08Q302.57 21.48 302.66 20.86Q302.76 20.23 302.83 19.63Q302.90 19.03 302.95 18.46L302.95 18.46Q302.62 18.14 302.18 17.96Q301.75 17.78 301.27 17.78L301.27 17.78Q300.62 17.78 300.12 18.13Q299.62 18.48 299.26 19.10Q298.90 19.73 298.72 20.54Q298.54 21.36 298.54 22.30ZM312.29 9.72L312.29 9.72Q312.36 8.98 312.80 8.66Q313.25 8.35 314.38 8.35L314.38 8.35Q315.22 8.35 315.61 8.57Q316.01 8.78 316.13 9.13Q316.25 9.48 316.22 9.86L316.22 9.86Q316.18 10.54 316.03 11.95Q315.89 13.37 315.71 15.89Q315.53 18.41 315.41 22.42L315.41 22.42Q315.38 23.69 315.34 24.84Q315.29 25.99 315.26 26.90L315.26 26.90Q315.24 27.72 314.80 28.02Q314.35 28.32 313.30 28.32L313.30 28.32Q312.22 28.32 311.75 28.02Q311.28 27.72 311.30 26.81L311.30 26.81Q311.38 24.74 311.46 22.57Q311.54 20.40 311.66 18.22Q311.78 16.03 311.94 13.88Q312.10 11.74 312.29 9.72Z"/></svg>