<svg xmlns="http://www.w3.org/2000/svg" xmlns:xlink="http://www.w3.org/1999/xlink" width="398.472" height="34.416000000000004"><path fill="black" d="M6.94 24.14L0.67 24.14L0.67 22.87L1.27 22.87Q1.75 22.87 2.12 22.76Q2.50 22.66 2.70 22.32Q2.90 21.98 2.90 21.31L2.90 21.31L2.90 9.74Q2.90 9.10 2.70 8.78Q2.50 8.47 2.15 8.38Q1.80 8.28 1.39 8.28L1.39 8.28L0.67 8.28L0.67 7.01L6.02 7.01L14.47 18.96L14.47 9.74Q14.47 9.14 14.27 8.83Q14.06 8.52 13.73 8.40Q13.39 8.28 12.98 8.28L12.98 8.28L12.26 8.28L12.26 7.01L18.53 7.01L18.53 8.28L17.78 8.28Q17.35 8.28 17.00 8.41Q16.66 8.54 16.46 8.88Q16.27 9.22 16.27 9.84L16.27 9.84L16.27 24.14L14.06 24.14L4.70 10.92L4.70 21.31Q4.70 21.98 4.88 22.32Q5.06 22.66 5.40 22.76Q5.74 22.87 6.22 22.87L6.22 22.87L6.94 22.87L6.94 24.14ZM26.23 24.38L26.23 24.38Q23.35 24.38 21.70 22.72Q20.04 21.05 20.04 17.66L20.04 17.66Q20.04 14.28 21.62 12.62Q23.21 10.97 26.30 10.97L26.30 10.97Q29.18 10.97 30.84 12.62Q32.50 14.28 32.50 17.66L32.50 17.66Q32.50 21.05 30.91 22.72Q29.33 24.38 26.23 24.38ZM26.28 22.87L26.28 22.87Q27.19 22.87 27.74 22.28Q28.30 21.70 28.54 20.52Q28.78 19.34 28.78 17.66L28.78 17.66Q28.78 15.07 28.20 13.79Q27.62 12.50 26.26 12.50L26.26 12.50Q24.86 12.50 24.31 13.79Q23.76 15.07 23.76 17.66L23.76 17.66Q23.76 20.23 24.32 21.55Q24.89 22.87 26.28 22.87ZM39.74 24.38L39.74 24.38Q37.90 24.38 36.92 23.53Q35.95 22.68 35.95 20.59L35.95 20.59L35.95 12.91L34.15 12.91L34.15 11.69Q34.92 11.69 35.53 11.39Q36.14 11.09 36.50 10.68L36.50 10.68Q36.86 10.30 37.15 9.71Q37.44 9.12 37.61 8.30L37.61 8.30L39.60 8.30L39.60 11.28L42.67 11.28L42.67 12.91L39.60 12.91L39.60 20.35Q39.60 21.41 39.97 21.92Q40.34 22.44 41.18 22.44L41.18 22.44Q41.64 22.44 42.07 22.37Q42.50 22.30 42.89 22.22L42.89 22.22L42.89 23.78Q42.50 23.95 41.68 24.17Q40.85 24.38 39.74 24.38ZM50.69 24.38L50.69 24.38Q47.81 24.38 46.15 22.72Q44.50 21.05 44.50 17.66L44.50 17.66Q44.50 14.28 46.08 12.62Q47.66 10.97 50.76 10.97L50.76 10.97Q53.64 10.97 55.30 12.62Q56.95 14.28 56.95 17.66L56.95 17.66Q56.95 21.05 55.37 22.72Q53.78 24.38 50.69 24.38ZM50.74 22.87L50.74 22.87Q51.65 22.87 52.20 22.28Q52.75 21.70 52.99 20.52Q53.23 19.34 53.23 17.66L53.23 17.66Q53.23 15.07 52.66 13.79Q52.08 12.50 50.71 12.50L50.71 12.50Q49.32 12.50 48.77 13.79Q48.22 15.07 48.22 17.66L48.22 17.66Q48.22 20.23 48.78 21.55Q49.34 22.87 50.74 22.87ZM70.78 24.38L70.78 24.38Q69.17 24.38 68.08 24.08Q66.98 23.78 66.35 23.29Q65.71 22.80 65.44 22.20Q65.16 21.60 65.16 21.02L65.16 21.02Q65.16 20.21 65.52 19.72Q65.88 19.22 66.46 19.01Q67.03 18.79 67.73 18.79L67.73 18.79Q67.75 20.16 68.21 21.08Q68.66 22.01 69.44 22.48Q70.22 22.94 71.18 22.94L71.18 22.94Q72.58 22.94 73.36 22.19Q74.14 21.43 74.14 20.35L74.14 20.35Q74.14 19.54 73.69 18.96Q73.25 18.38 72.36 17.88Q71.47 17.38 70.13 16.82L70.13 16.82Q68.45 16.13 67.45 15.35Q66.46 14.57 66.01 13.60Q65.57 12.62 65.57 11.47L65.57 11.47Q65.57 9.98 66.36 8.94Q67.15 7.90 68.50 7.33Q69.84 6.77 71.52 6.77L71.52 6.77Q73.27 6.77 74.40 7.19Q75.53 7.61 76.09 8.27Q76.66 8.93 76.66 9.65L76.66 9.65Q76.66 10.49 75.98 11.02Q75.31 11.54 73.82 11.54L73.82 11.54Q73.82 10.75 73.54 10.00Q73.25 9.24 72.66 8.74Q72.07 8.23 71.16 8.23L71.16 8.23Q70.06 8.23 69.38 8.80Q68.71 9.36 68.71 10.44L68.71 10.44Q68.71 11.11 69.04 11.69Q69.36 12.26 70.24 12.82Q71.11 13.37 72.72 14.04L72.72 14.04Q74.38 14.69 75.38 15.46Q76.39 16.22 76.86 17.15Q77.33 18.07 77.33 19.27L77.33 19.27Q77.33 20.81 76.52 21.96Q75.72 23.11 74.26 23.75Q72.79 24.38 70.78 24.38ZM85.58 24.38L85.58 24.38Q82.51 24.38 80.94 22.64Q79.37 20.90 79.37 17.78L79.37 17.78Q79.37 14.40 80.93 12.68Q82.49 10.97 85.32 10.97L85.32 10.97Q87.94 10.97 89.44 12.43Q90.94 13.90 90.94 16.75L90.94 16.75L90.94 17.98L83.06 17.98Q83.11 20.38 83.96 21.48Q84.82 22.58 86.42 22.58L86.42 22.58Q87.65 22.58 88.44 22.01Q89.23 21.43 89.64 20.59L89.64 20.59Q89.98 20.69 90.22 20.96Q90.46 21.24 90.46 21.65L90.46 21.65Q90.46 22.27 89.95 22.91Q89.45 23.54 88.38 23.96Q87.31 24.38 85.58 24.38ZM83.11 16.44L87.26 16.44Q87.26 14.62 86.83 13.57Q86.40 12.53 85.37 12.53L85.37 12.53Q84.36 12.53 83.76 13.54Q83.16 14.54 83.11 16.44L83.11 16.44ZM100.46 24.14L92.45 24.14L92.45 22.87L92.54 22.87Q93.10 22.87 93.49 22.75Q93.89 22.63 94.12 22.26Q94.34 21.89 94.34 21.14L94.34 21.14L94.34 14.18Q94.34 13.46 94.14 13.12Q93.94 12.77 93.55 12.66Q93.17 12.55 92.64 12.55L92.64 12.55L92.57 12.55L92.57 11.28L97.37 11.28L97.85 13.58L97.97 13.58Q98.33 12.72 98.78 12.14Q99.24 11.57 99.90 11.28Q100.56 10.99 101.54 10.99L101.54 10.99Q102.91 10.99 103.54 11.58Q104.16 12.17 104.16 13.10L104.16 13.10Q104.16 14.21 103.38 14.74Q102.60 15.26 101.16 15.26L101.16 15.26Q101.16 14.28 100.93 13.78Q100.70 13.27 100.03 13.27L100.03 13.27Q99.48 13.27 99.11 13.68Q98.74 14.09 98.50 14.74Q98.26 15.38 98.14 16.14Q98.02 16.90 98.02 17.59L98.02 17.59L98.02 21.26Q98.02 21.96 98.23 22.31Q98.45 22.66 98.83 22.76Q99.22 22.87 99.70 22.87L99.70 22.87L100.46 22.87L100.46 24.14ZM112.56 24.14L104.93 24.14L104.93 22.87L105.22 22.87Q105.70 22.87 106.08 22.73Q106.46 22.58 106.69 22.21Q106.92 21.84 106.92 21.17L106.92 21.17L106.92 14.16Q106.92 13.51 106.68 13.16Q106.44 12.82 106.07 12.68Q105.70 12.55 105.22 12.55L105.22 12.55L104.93 12.55L104.93 11.28L110.57 11.28L110.57 21.17Q110.57 21.84 110.80 22.21Q111.02 22.58 111.41 22.73Q111.79 22.87 112.27 22.87L112.27 22.87L112.56 22.87L112.56 24.14ZM108.62 9.12L108.62 9.12Q107.76 9.12 107.17 8.69Q106.58 8.26 106.58 7.39L106.58 7.39Q106.58 6.48 107.17 6.07Q107.76 5.66 108.62 5.66L108.62 5.66Q109.46 5.66 110.08 6.07Q110.69 6.48 110.69 7.39L110.69 7.39Q110.69 8.26 110.08 8.69Q109.46 9.12 108.62 9.12ZM122.14 24.14L113.42 24.14L113.42 22.87L113.95 22.87Q114.31 22.87 114.71 22.76Q115.10 22.66 115.38 22.32Q115.66 21.98 115.66 21.31L115.66 21.31L115.66 12.91L113.52 12.91L113.52 11.28L115.66 11.28L115.66 10.39Q115.66 8.16 116.83 6.92Q118.01 5.69 120.55 5.69L120.55 5.69Q122.11 5.69 122.94 5.95Q123.77 6.22 124.09 6.60Q124.42 6.98 124.42 7.44L124.42 7.44Q124.42 7.90 124.16 8.28Q123.91 8.66 123.34 8.88Q122.76 9.10 121.78 9.10L121.78 9.10Q121.78 8.69 121.68 8.22Q121.58 7.75 121.34 7.40Q121.10 7.06 120.65 7.06L120.65 7.06Q119.95 7.06 119.63 7.72Q119.30 8.38 119.30 9.96L119.30 9.96L119.30 11.28L122.62 11.28L122.62 12.91L119.30 12.91L119.30 21.31Q119.30 21.98 119.57 22.32Q119.83 22.66 120.24 22.76Q120.65 22.87 121.01 22.87L121.01 22.87L122.14 22.87L122.14 24.14ZM139.15 24.38L139.15 24.38Q136.18 24.38 134.21 23.28Q132.24 22.18 131.27 20.20Q130.30 18.22 130.30 15.55L130.30 15.55Q130.30 12.96 131.30 10.98Q132.31 9.00 134.32 7.88Q136.32 6.77 139.25 6.77L139.25 6.77Q141.26 6.77 142.60 7.14Q143.93 7.51 144.59 8.14Q145.25 8.76 145.25 9.55L145.25 9.55Q145.25 10.39 144.46 10.99Q143.66 11.59 142.18 11.59L142.18 11.59Q142.18 10.61 141.85 9.88Q141.53 9.14 140.87 8.72Q140.21 8.30 139.20 8.30L139.20 8.30Q137.45 8.30 136.38 9.16Q135.31 10.01 134.83 11.62Q134.35 13.22 134.35 15.55L134.35 15.55Q134.35 17.88 134.86 19.48Q135.36 21.07 136.49 21.91Q137.62 22.75 139.49 22.75L139.49 22.75Q139.94 22.75 140.39 22.70Q140.83 22.66 141.24 22.58L141.24 22.58L141.24 19.06Q141.24 18.41 141.05 18.04Q140.86 17.66 140.48 17.51Q140.11 17.35 139.54 17.35L139.54 17.35L139.22 17.35L139.22 16.08L146.64 16.08L146.64 17.35L146.47 17.35Q145.99 17.35 145.67 17.52Q145.34 17.69 145.20 18.07Q145.06 18.46 145.06 19.15L145.06 19.15L145.06 23.09Q143.64 23.74 142.21 24.06Q140.78 24.38 139.15 24.38ZM153.79 24.38L153.79 24.38Q151.70 24.38 150.73 23.23Q149.76 22.08 149.76 19.63L149.76 19.63L149.76 14.26Q149.76 13.56 149.60 13.19Q149.45 12.82 149.10 12.68Q148.75 12.55 148.15 12.55L148.15 12.55L148.08 12.55L148.08 11.28L153.41 11.28L153.41 18.96Q153.41 19.97 153.58 20.74Q153.74 21.50 154.14 21.92Q154.54 22.34 155.23 22.34L155.23 22.34Q156 22.34 156.49 21.90Q156.98 21.46 157.20 20.63Q157.42 19.80 157.42 18.70L157.42 18.70L157.42 14.09Q157.42 13.39 157.21 13.07Q157.01 12.74 156.66 12.65Q156.31 12.55 155.83 12.55L155.83 12.55L155.76 12.55L155.76 11.28L161.06 11.28L161.06 21.36Q161.06 22.03 161.27 22.37Q161.47 22.70 161.84 22.79Q162.22 22.87 162.67 22.87L162.67 22.87L162.86 22.87L162.86 24.14L158.09 24.14L157.56 22.44L157.44 22.44Q156.82 23.47 155.92 23.93Q155.02 24.38 153.79 24.38ZM171.96 24.14L163.94 24.14L163.94 22.87L164.04 22.87Q164.59 22.87 164.99 22.75Q165.38 22.63 165.61 22.26Q165.84 21.89 165.84 21.14L165.84 21.14L165.84 14.18Q165.84 13.46 165.64 13.12Q165.43 12.77 165.05 12.66Q164.66 12.55 164.14 12.55L164.14 12.55L164.06 12.55L164.06 11.28L168.86 11.28L169.34 13.58L169.46 13.58Q169.82 12.72 170.28 12.14Q170.74 11.57 171.40 11.28Q172.06 10.99 173.04 10.99L173.04 10.99Q174.41 10.99 175.03 11.58Q175.66 12.17 175.66 13.10L175.66 13.10Q175.66 14.21 174.88 14.74Q174.10 15.26 172.66 15.26L172.66 15.26Q172.66 14.28 172.43 13.78Q172.20 13.27 171.53 13.27L171.53 13.27Q170.98 13.27 170.60 13.68Q170.23 14.09 169.99 14.74Q169.75 15.38 169.63 16.14Q169.51 16.90 169.51 17.59L169.51 17.59L169.51 21.26Q169.51 21.96 169.73 22.31Q169.94 22.66 170.33 22.76Q170.71 22.87 171.19 22.87L171.19 22.87L171.96 22.87L171.96 24.14ZM183.86 24.14L176.50 24.14L176.50 22.87L176.69 22.87Q177.24 22.87 177.61 22.76Q177.98 22.66 178.20 22.30Q178.42 21.94 178.42 21.22L178.42 21.22L178.42 14.04Q178.42 13.37 178.20 13.03Q177.98 12.70 177.60 12.59Q177.22 12.48 176.69 12.48L176.69 12.48L176.62 12.48L176.62 11.28L181.66 11.28L181.97 12.98L182.09 12.98Q182.66 11.98 183.54 11.47Q184.42 10.97 185.90 10.97L185.90 10.97Q186.77 10.97 187.44 11.18Q188.11 11.40 188.62 11.83Q189.12 12.26 189.38 12.98L189.38 12.98L189.53 12.98Q190.08 11.98 191.03 11.47Q191.98 10.97 193.34 10.97L193.34 10.97Q195.26 10.97 196.32 12.06Q197.38 13.15 197.38 15.60L197.38 15.60L197.38 21.17Q197.38 21.91 197.56 22.27Q197.74 22.63 198.10 22.75Q198.46 22.87 198.98 22.87L198.98 22.87L199.08 22.87L199.08 24.14L193.73 24.14L193.73 16.25Q193.73 14.71 193.30 13.86Q192.86 13.01 191.81 13.01L191.81 13.01Q191.06 13.01 190.61 13.48Q190.15 13.94 189.94 14.72Q189.72 15.50 189.72 16.44L189.72 16.44L189.72 21.17Q189.72 21.91 189.90 22.27Q190.08 22.63 190.44 22.75Q190.80 22.87 191.33 22.87L191.33 22.87L191.40 22.87L191.40 24.14L186.07 24.14L186.07 16.25Q186.07 14.71 185.66 13.86Q185.26 13.01 184.20 13.01L184.20 13.01Q183.41 13.01 182.94 13.52Q182.47 14.04 182.27 14.89Q182.06 15.74 182.06 16.73L182.06 16.73L182.06 21.31Q182.06 21.98 182.28 22.31Q182.50 22.63 182.88 22.75Q183.26 22.87 183.79 22.87L183.79 22.87L183.86 22.87L183.86 24.14ZM206.02 24.38L206.02 24.38Q203.93 24.38 202.96 23.23Q201.98 22.08 201.98 19.63L201.98 19.63L201.98 14.26Q201.98 13.56 201.83 13.19Q201.67 12.82 201.32 12.68Q200.98 12.55 200.38 12.55L200.38 12.55L200.30 12.55L200.30 11.28L205.63 11.28L205.63 18.96Q205.63 19.97 205.80 20.74Q205.97 21.50 206.36 21.92Q206.76 22.34 207.46 22.34L207.46 22.34Q208.22 22.34 208.72 21.90Q209.21 21.46 209.42 20.63Q209.64 19.80 209.64 18.70L209.64 18.70L209.64 14.09Q209.64 13.39 209.44 13.07Q209.23 12.74 208.88 12.65Q208.54 12.55 208.06 12.55L208.06 12.55L207.98 12.55L207.98 11.28L213.29 11.28L213.29 21.36Q213.29 22.03 213.49 22.37Q213.70 22.70 214.07 22.79Q214.44 22.87 214.90 22.87L214.90 22.87L215.09 22.87L215.09 24.14L210.31 24.14L209.78 22.44L209.66 22.44Q209.04 23.47 208.14 23.93Q207.24 24.38 206.02 24.38ZM223.73 24.14L216.10 24.14L216.10 22.87L216.38 22.87Q216.74 22.87 217.14 22.76Q217.54 22.66 217.81 22.32Q218.09 21.98 218.09 21.31L218.09 21.31L218.09 8.64Q218.09 7.99 217.80 7.68Q217.51 7.37 217.12 7.27Q216.72 7.18 216.38 7.18L216.38 7.18L216.10 7.18L216.10 5.90L221.74 5.90L221.74 15.10Q221.74 15.41 221.72 15.80Q221.71 16.20 221.69 16.60Q221.66 16.99 221.65 17.28Q221.64 17.57 221.62 17.66L221.62 17.66L224.64 14.28Q224.90 13.97 225.05 13.76Q225.19 13.56 225.24 13.39Q225.29 13.22 225.29 13.13L225.29 13.13Q225.29 12.82 224.96 12.65Q224.64 12.48 224.04 12.48L224.04 12.48L224.04 11.28L230.09 11.28L230.09 12.48Q229.68 12.48 229.27 12.60Q228.86 12.72 228.46 12.97Q228.05 13.22 227.62 13.61Q227.18 13.99 226.70 14.52L226.70 14.52L225.34 16.10L228.53 20.86Q229.18 21.84 229.73 22.36Q230.28 22.87 230.88 22.87L230.88 22.87L230.95 22.87L230.95 24.14L230.62 24.14Q229.32 24.14 228.43 24.05Q227.54 23.95 226.93 23.69Q226.32 23.42 225.84 22.94Q225.36 22.46 224.88 21.67L224.88 21.67L222.86 18.46L221.74 19.37L221.74 21.31Q221.74 21.98 222.02 22.32Q222.31 22.66 222.71 22.76Q223.10 22.87 223.44 22.87L223.44 22.87L223.73 22.87L223.73 24.14ZM238.82 24.14L231.46 24.14L231.46 22.87L231.58 22.87Q232.10 22.87 232.50 22.76Q232.90 22.66 233.14 22.30Q233.38 21.94 233.38 21.22L233.38 21.22L233.38 8.64Q233.38 7.99 233.09 7.68Q232.80 7.37 232.40 7.27Q232.01 7.18 231.67 7.18L231.67 7.18L231.38 7.18L231.38 5.90L237.02 5.90L237.02 10.03Q237.02 10.61 237.01 11.17Q237.00 11.74 236.98 12.19Q236.95 12.65 236.93 12.91L236.93 12.91L237.10 12.91Q237.41 12.34 237.88 11.90Q238.34 11.47 239.03 11.22Q239.71 10.97 240.65 10.97L240.65 10.97Q242.66 10.97 243.67 12.06Q244.68 13.15 244.68 15.60L244.68 15.60L244.68 21.17Q244.68 21.91 244.86 22.27Q245.04 22.63 245.40 22.75Q245.76 22.87 246.29 22.87L246.29 22.87L246.36 22.87L246.36 24.14L241.01 24.14L241.01 16.25Q241.01 14.71 240.59 13.86Q240.17 13.01 239.11 13.01L239.11 13.01Q238.32 13.01 237.88 13.52Q237.43 14.04 237.24 14.89Q237.05 15.74 237.05 16.73L237.05 16.73L237.05 21.31Q237.05 21.98 237.25 22.31Q237.46 22.63 237.83 22.75Q238.20 22.87 238.73 22.87L238.73 22.87L238.82 22.87L238.82 24.14ZM255.02 24.14L247.39 24.14L247.39 22.87L247.68 22.87Q248.16 22.87 248.54 22.73Q248.93 22.58 249.16 22.21Q249.38 21.84 249.38 21.17L249.38 21.17L249.38 14.16Q249.38 13.51 249.14 13.16Q248.90 12.82 248.53 12.68Q248.16 12.55 247.68 12.55L247.68 12.55L247.39 12.55L247.39 11.28L253.03 11.28L253.03 21.17Q253.03 21.84 253.26 22.21Q253.49 22.58 253.87 22.73Q254.26 22.87 254.74 22.87L254.74 22.87L255.02 22.87L255.02 24.14ZM251.09 9.12L251.09 9.12Q250.22 9.12 249.64 8.69Q249.05 8.26 249.05 7.39L249.05 7.39Q249.05 6.48 249.64 6.07Q250.22 5.66 251.09 5.66L251.09 5.66Q251.93 5.66 252.54 6.07Q253.15 6.48 253.15 7.39L253.15 7.39Q253.15 8.26 252.54 8.69Q251.93 9.12 251.09 9.12ZM267.60 24.14L265.39 24.14L272.09 9.53L265.80 9.53Q265.15 9.53 264.84 9.80Q264.53 10.08 264.46 10.75L264.46 10.75L264.29 12.05L262.85 12.05L262.97 7.01L274.10 7.01L274.10 8.30L267.60 24.14ZM282.07 24.38L282.07 24.38Q279.86 24.38 278.57 23.32Q277.27 22.25 276.72 20.27Q276.17 18.29 276.17 15.53L276.17 15.53Q276.17 12.79 276.72 10.84Q277.27 8.88 278.57 7.82Q279.86 6.77 282.10 6.77L282.10 6.77Q284.21 6.77 285.49 7.81Q286.78 8.86 287.35 10.82Q287.93 12.79 287.93 15.55L287.93 15.55Q287.93 18.29 287.34 20.27Q286.75 22.25 285.48 23.32Q284.21 24.38 282.07 24.38ZM282.05 22.92L282.05 22.92Q282.98 22.92 283.48 22.06Q283.97 21.19 284.14 19.55Q284.30 17.90 284.30 15.55L284.30 15.55Q284.30 13.20 284.14 11.57Q283.97 9.94 283.49 9.08Q283.01 8.23 282.07 8.23L282.07 8.23Q281.11 8.23 280.62 9.08Q280.13 9.94 279.96 11.58Q279.79 13.22 279.79 15.55L279.79 15.55Q279.79 17.93 279.97 19.57Q280.15 21.22 280.64 22.07Q281.14 22.92 282.05 22.92ZM295.66 24.38L295.66 24.38Q293.45 24.38 292.15 23.32Q290.86 22.25 290.30 20.27Q289.75 18.29 289.75 15.53L289.75 15.53Q289.75 12.79 290.30 10.84Q290.86 8.88 292.15 7.82Q293.45 6.77 295.68 6.77L295.68 6.77Q297.79 6.77 299.08 7.81Q300.36 8.86 300.94 10.82Q301.51 12.79 301.51 15.55L301.51 15.55Q301.51 18.29 300.92 20.27Q300.34 22.25 299.06 23.32Q297.79 24.38 295.66 24.38ZM295.63 22.92L295.63 22.92Q296.57 22.92 297.06 22.06Q297.55 21.19 297.72 19.55Q297.89 17.90 297.89 15.55L297.89 15.55Q297.89 13.20 297.72 11.57Q297.55 9.94 297.07 9.08Q296.59 8.23 295.66 8.23L295.66 8.23Q294.70 8.23 294.20 9.08Q293.71 9.94 293.54 11.58Q293.38 13.22 293.38 15.55L293.38 15.55Q293.38 17.93 293.56 19.57Q293.74 21.22 294.23 22.07Q294.72 22.92 295.63 22.92ZM316.51 24.14L309.14 24.14L309.14 22.87L309.29 22.87Q309.84 22.87 310.22 22.76Q310.61 22.66 310.84 22.30Q311.06 21.94 311.06 21.22L311.06 21.22L311.06 14.11Q311.06 13.44 310.86 13.10Q310.66 12.77 310.27 12.66Q309.89 12.55 309.36 12.55L309.36 12.55L309.26 12.55L309.26 11.28L314.33 11.28L314.64 12.98L314.76 12.98Q315.34 12.00 316.18 11.48Q317.02 10.97 318.43 10.97L318.43 10.97Q320.33 10.97 321.35 12.06Q322.37 13.15 322.37 15.60L322.37 15.60L322.37 21.17Q322.37 21.91 322.55 22.27Q322.73 22.63 323.08 22.75Q323.42 22.87 323.95 22.87L323.95 22.87L324.05 22.87L324.05 24.14L318.72 24.14L318.72 16.25Q318.72 14.71 318.32 13.86Q317.93 13.01 316.87 13.01L316.87 13.01Q316.06 13.01 315.59 13.52Q315.12 14.04 314.93 14.89Q314.74 15.74 314.74 16.73L314.74 16.73L314.74 21.31Q314.74 21.98 314.93 22.31Q315.12 22.63 315.50 22.75Q315.89 22.87 316.42 22.87L316.42 22.87L316.51 22.87L316.51 24.14ZM331.99 24.38L331.99 24.38Q329.11 24.38 327.46 22.72Q325.80 21.05 325.80 17.66L325.80 17.66Q325.80 14.28 327.38 12.62Q328.97 10.97 332.06 10.97L332.06 10.97Q334.94 10.97 336.60 12.62Q338.26 14.28 338.26 17.66L338.26 17.66Q338.26 21.05 336.67 22.72Q335.09 24.38 331.99 24.38ZM332.04 22.87L332.04 22.87Q332.95 22.87 333.50 22.28Q334.06 21.70 334.30 20.52Q334.54 19.34 334.54 17.66L334.54 17.66Q334.54 15.07 333.96 13.79Q333.38 12.50 332.02 12.50L332.02 12.50Q330.62 12.50 330.07 13.79Q329.52 15.07 329.52 17.66L329.52 17.66Q329.52 20.23 330.08 21.55Q330.65 22.87 332.04 22.87ZM347.90 24.14L339.89 24.14L339.89 22.87L339.98 22.87Q340.54 22.87 340.93 22.75Q341.33 22.63 341.56 22.26Q341.78 21.89 341.78 21.14L341.78 21.14L341.78 14.18Q341.78 13.46 341.58 13.12Q341.38 12.77 340.99 12.66Q340.61 12.55 340.08 12.55L340.08 12.55L340.01 12.55L340.01 11.28L344.81 11.28L345.29 13.58L345.41 13.58Q345.77 12.72 346.22 12.14Q346.68 11.57 347.34 11.28Q348 10.99 348.98 10.99L348.98 10.99Q350.35 10.99 350.98 11.58Q351.60 12.17 351.60 13.10L351.60 13.10Q351.60 14.21 350.82 14.74Q350.04 15.26 348.60 15.26L348.60 15.26Q348.60 14.28 348.37 13.78Q348.14 13.27 347.47 13.27L347.47 13.27Q346.92 13.27 346.55 13.68Q346.18 14.09 345.94 14.74Q345.70 15.38 345.58 16.14Q345.46 16.90 345.46 17.59L345.46 17.59L345.46 21.26Q345.46 21.96 345.67 22.31Q345.89 22.66 346.27 22.76Q346.66 22.87 347.14 22.87L347.14 22.87L347.90 22.87L347.90 24.14ZM359.81 24.14L352.44 24.14L352.44 22.87L352.63 22.87Q353.18 22.87 353.56 22.76Q353.93 22.66 354.14 22.30Q354.36 21.94 354.36 21.22L354.36 21.22L354.36 14.04Q354.36 13.37 354.14 13.03Q353.93 12.70 353.54 12.59Q353.16 12.48 352.63 12.48L352.63 12.48L352.56 12.48L352.56 11.28L357.60 11.28L357.91 12.98L358.03 12.98Q358.61 11.98 359.48 11.47Q360.36 10.97 361.85 10.97L361.85 10.97Q362.71 10.97 363.38 11.18Q364.06 11.40 364.56 11.83Q365.06 12.26 365.33 12.98L365.33 12.98L365.47 12.98Q366.02 11.98 366.97 11.47Q367.92 10.97 369.29 10.97L369.29 10.97Q371.21 10.97 372.26 12.06Q373.32 13.15 373.32 15.60L373.32 15.60L373.32 21.17Q373.32 21.91 373.50 22.27Q373.68 22.63 374.04 22.75Q374.40 22.87 374.93 22.87L374.93 22.87L375.02 22.87L375.02 24.14L369.67 24.14L369.67 16.25Q369.67 14.71 369.24 13.86Q368.81 13.01 367.75 13.01L367.75 13.01Q367.01 13.01 366.55 13.48Q366.10 13.94 365.88 14.72Q365.66 15.50 365.66 16.44L365.66 16.44L365.66 21.17Q365.66 21.91 365.84 22.27Q366.02 22.63 366.38 22.75Q366.74 22.87 367.27 22.87L367.27 22.87L367.34 22.87L367.34 24.14L362.02 24.14L362.02 16.25Q362.02 14.71 361.61 13.86Q361.20 13.01 360.14 13.01L360.14 13.01Q359.35 13.01 358.88 13.52Q358.42 14.04 358.21 14.89Q358.01 15.74 358.01 16.73L358.01 16.73L358.01 21.31Q358.01 21.98 358.22 22.31Q358.44 22.63 358.82 22.75Q359.21 22.87 359.74 22.87L359.74 22.87L359.81 22.87L359.81 24.14ZM380.47 24.38L380.47 24.38Q379.42 24.38 378.56 23.95Q377.71 23.52 377.21 22.66Q376.70 21.79 376.70 20.47L376.70 20.47Q376.70 18.50 378.04 17.58Q379.37 16.66 382.08 16.56L382.08 16.56L384.05 16.49L384.05 15.17Q384.05 14.28 383.90 13.68Q383.76 13.08 383.40 12.76Q383.04 12.43 382.39 12.43L382.39 12.43Q381.77 12.43 381.41 12.74Q381.05 13.06 380.89 13.63Q380.74 14.21 380.74 15.02L380.74 15.02Q379.22 15.02 378.47 14.65Q377.71 14.28 377.71 13.42L377.71 13.42Q377.71 12.53 378.38 11.99Q379.06 11.45 380.18 11.21Q381.31 10.97 382.66 10.97L382.66 10.97Q385.18 10.97 386.44 11.88Q387.70 12.79 387.70 15.05L387.70 15.05L387.70 21.17Q387.70 21.84 387.84 22.20Q387.98 22.56 388.30 22.72Q388.61 22.87 389.14 22.87L389.14 22.87L389.23 22.87L389.23 24.14L384.77 24.14L384.26 22.49L384.05 22.49Q383.52 23.14 383.05 23.56Q382.58 23.98 381.98 24.18Q381.38 24.38 380.47 24.38ZM381.79 22.63L381.79 22.63Q382.49 22.63 382.99 22.25Q383.50 21.86 383.77 21.18Q384.05 20.50 384.05 19.56L384.05 19.56L384.05 17.76L382.97 17.83Q382.01 17.88 381.46 18.20Q380.90 18.53 380.66 19.12Q380.42 19.70 380.42 20.57L380.42 20.57Q380.42 21.24 380.58 21.71Q380.74 22.18 381.04 22.40Q381.34 22.63 381.79 22.63ZM398.06 24.14L390.43 24.14L390.43 22.87L390.72 22.87Q391.22 22.87 391.60 22.73Q391.97 22.58 392.20 22.21Q392.42 21.84 392.42 21.17L392.42 21.17L392.42 8.64Q392.42 7.99 392.14 7.68Q391.85 7.37 391.45 7.27Q391.06 7.18 390.72 7.18L390.72 7.18L390.43 7.18L390.43 5.90L396.07 5.90L396.07 21.17Q396.07 21.84 396.30 22.21Q396.53 22.58 396.92 22.73Q397.32 22.87 397.78 22.87L397.78 22.87L398.06 22.87L398.06 24.14Z"/></svg>