<svg xmlns="http://www.w3.org/2000/svg" xmlns:xlink="http://www.w3.org/1999/xlink" width="316.79999999999995" height="32.4"><path fill="black" d="M6.31 26.40L4.97 26.40L3.82 7.20L5.09 7.20L6.05 24.24L14.30 7.20L15.62 7.20L6.31 26.40ZM22.51 26.74L22.51 26.74Q20.71 26.74 19.73 26.11Q18.74 25.49 18.60 24.04Q18.46 22.58 19.13 20.11L19.13 20.11L20.66 14.57Q20.78 13.87 20.60 13.37Q20.42 12.86 19.54 12.67L19.54 12.67L19.82 11.57Q21.02 11.81 21.56 12.49Q22.10 13.18 21.91 14.26L21.91 14.26L20.33 20.11Q19.78 22.18 19.85 23.39Q19.92 24.60 20.59 25.12Q21.26 25.63 22.51 25.63L22.51 25.63Q23.11 25.63 23.58 25.46Q24.05 25.30 24.49 24.90Q24.94 24.50 25.44 23.81L25.44 23.81L26.40 24.48Q25.75 25.32 25.16 25.82Q24.58 26.33 23.95 26.53Q23.33 26.74 22.51 26.74ZM22.42 8.47L22.42 8.47Q21.60 8.47 21.35 8.18Q21.10 7.90 21.26 7.15L21.26 7.15Q21.43 6.48 21.76 6.23Q22.08 5.98 22.75 5.98L22.75 5.98Q23.59 5.98 23.83 6.25Q24.07 6.53 23.90 7.30L23.90 7.30Q23.76 7.97 23.44 8.22Q23.11 8.47 22.42 8.47ZM39.07 23.62L39.07 23.62L40.01 24.31Q39.19 25.22 38.42 25.76Q37.66 26.30 36.70 26.52Q35.74 26.74 34.32 26.74L34.32 26.74Q32.38 26.74 31.37 26.02Q30.36 25.30 30.22 23.58Q30.07 21.86 30.72 18.89L30.72 18.89Q31.10 17.16 31.86 15.76Q32.62 14.35 33.61 13.34Q34.61 12.34 35.74 11.78Q36.86 11.23 37.97 11.23L37.97 11.23Q39.14 11.23 39.92 11.46Q40.70 11.69 41.24 12.23Q41.78 12.77 42.22 13.73L42.22 13.73L41.14 14.23Q40.80 13.51 40.38 13.09Q39.96 12.67 39.38 12.50Q38.81 12.34 37.94 12.34L37.94 12.34Q36.74 12.34 35.51 13.18Q34.27 14.02 33.29 15.53Q32.30 17.04 31.87 19.08L31.87 19.08Q31.34 21.58 31.42 23.00Q31.49 24.43 32.21 25.03Q32.93 25.63 34.34 25.63L34.34 25.63Q35.50 25.63 36.28 25.45Q37.06 25.27 37.70 24.83Q38.35 24.38 39.07 23.62ZM50.42 26.74L50.42 26.74Q48.05 26.74 47.40 25.49Q46.75 24.24 47.35 21.46L47.35 21.46L49.22 12.67L46.25 12.67L46.49 11.57L49.46 11.57L50.38 7.20L51.58 7.20L50.66 11.57L55.66 11.57L55.42 12.67L50.42 12.67L48.53 21.55Q48.07 23.71 48.46 24.67Q48.84 25.63 50.45 25.63L50.45 25.63Q51.31 25.63 51.90 25.49Q52.49 25.34 52.90 25.02Q53.30 24.70 53.62 24.17L53.62 24.17L54.70 24.65Q54.22 25.46 53.66 25.92Q53.11 26.38 52.34 26.56Q51.58 26.74 50.42 26.74ZM63.26 26.74L63.26 26.74Q61.27 26.74 60.28 26.00Q59.28 25.27 59.15 23.56Q59.02 21.84 59.66 18.89L59.66 18.89Q60.14 16.58 61.14 14.87Q62.14 13.15 63.48 12.19Q64.82 11.23 66.34 11.23L66.34 11.23Q68.33 11.23 69.32 11.96Q70.32 12.70 70.45 14.40Q70.58 16.10 69.94 19.08L69.94 19.08Q69.46 21.36 68.46 23.09Q67.46 24.82 66.13 25.78Q64.80 26.74 63.26 26.74ZM63.29 25.63L63.29 25.63Q64.51 25.63 65.60 24.79Q66.70 23.95 67.52 22.43Q68.35 20.90 68.78 18.89L68.78 18.89Q69.31 16.37 69.26 14.94Q69.22 13.51 68.51 12.92Q67.80 12.34 66.31 12.34L66.31 12.34Q65.09 12.34 64.00 13.18Q62.90 14.02 62.08 15.53Q61.25 17.04 60.82 19.08L60.82 19.08Q60.29 21.58 60.34 23.02Q60.38 24.46 61.10 25.04Q61.82 25.63 63.29 25.63ZM74.78 19.42L74.78 19.42L74.04 18.46Q75.19 17.23 75.90 15.84Q76.61 14.45 76.61 13.42L76.61 13.42Q76.61 12.94 76.42 12.64Q76.22 12.34 75.82 12.34L75.82 12.34Q75.50 12.34 75.28 12.55Q75.05 12.77 75.05 13.13L75.05 13.13Q75.05 13.70 75.79 14.05Q76.54 14.40 77.76 14.40L77.76 14.40Q78.48 14.40 79.48 14.11Q80.47 13.82 81.60 13.28Q82.73 12.74 83.83 12.05L83.83 12.05L84.70 12.65Q83.35 14.66 82.33 16.78Q81.31 18.89 80.75 20.81Q80.18 22.73 80.18 24.19L80.18 24.19Q80.18 24.84 80.50 25.24Q80.81 25.63 81.34 25.63L81.34 25.63Q81.98 25.63 82.58 25.19Q83.18 24.74 83.50 24.02L83.50 24.02L84.60 24.46Q84.31 25.13 83.81 25.64Q83.30 26.16 82.67 26.45Q82.03 26.74 81.34 26.74L81.34 26.74Q80.28 26.74 79.63 26.04Q78.98 25.34 78.98 24.19L78.98 24.19Q78.98 22.80 79.42 21.10Q79.85 19.39 80.62 17.58Q81.38 15.77 82.39 14.14L82.39 14.14Q81.22 14.74 79.94 15.12Q78.67 15.50 77.76 15.50L77.76 15.50Q76.01 15.50 74.93 14.84Q73.85 14.18 73.85 13.13L73.85 13.13Q73.85 12.29 74.42 11.76Q75 11.23 75.96 11.23L75.96 11.23Q76.80 11.23 77.30 11.84Q77.81 12.46 77.81 13.46L77.81 13.46Q77.81 14.21 77.44 15.20Q77.06 16.20 76.38 17.28Q75.70 18.36 74.78 19.42ZM101.86 26.40L100.66 26.40L105.07 7.20L106.30 7.20L108.10 18.38L114.70 7.20L115.92 7.20L112.18 26.40L110.98 26.40L114.14 10.22L108.38 20.11L107.18 20.11L105.60 10.22L101.86 26.40ZM120.86 26.74L120.86 26.74Q118.87 26.74 117.88 26.00Q116.88 25.27 116.75 23.56Q116.62 21.84 117.26 18.89L117.26 18.89Q117.74 16.58 118.74 14.87Q119.74 13.15 121.08 12.19Q122.42 11.23 123.94 11.23L123.94 11.23Q125.93 11.23 126.92 11.96Q127.92 12.70 128.05 14.40Q128.18 16.10 127.54 19.08L127.54 19.08Q127.06 21.36 126.06 23.09Q125.06 24.82 123.73 25.78Q122.40 26.74 120.86 26.74ZM120.89 25.63L120.89 25.63Q122.11 25.63 123.20 24.79Q124.30 23.95 125.12 22.43Q125.95 20.90 126.38 18.89L126.38 18.89Q126.91 16.37 126.86 14.94Q126.82 13.51 126.11 12.92Q125.40 12.34 123.91 12.34L123.91 12.34Q122.69 12.34 121.60 13.18Q120.50 14.02 119.68 15.53Q118.85 17.04 118.42 19.08L118.42 19.08Q117.89 21.58 117.94 23.02Q117.98 24.46 118.70 25.04Q119.42 25.63 120.89 25.63ZM141.98 25.13L141.98 25.13L142.56 26.02Q142.22 26.33 141.65 26.53Q141.07 26.74 140.45 26.74L140.45 26.74Q139.68 26.74 139.21 26.35Q138.74 25.97 138.74 25.34L138.74 25.34Q138.74 24.67 139.00 23.36Q139.25 22.06 139.69 20.33Q140.14 18.60 140.71 16.68L140.71 16.68Q141.43 14.33 140.95 13.33Q140.47 12.34 139.20 12.34L139.20 12.34Q138.48 12.34 137.72 12.80Q136.97 13.27 136.26 14.06Q135.55 14.86 134.94 15.79Q134.33 16.73 133.90 17.70Q133.46 18.67 133.30 19.49L133.30 19.49L131.83 26.40L130.61 26.40L133.34 13.61Q133.37 13.49 133.38 13.36Q133.39 13.22 133.39 13.13L133.39 13.13Q133.39 12.77 133.15 12.55Q132.91 12.34 132.50 12.34L132.50 12.34Q132.26 12.34 131.95 12.47Q131.64 12.60 131.40 12.84L131.40 12.84L130.82 11.95Q131.16 11.62 131.75 11.42Q132.34 11.23 132.94 11.23L132.94 11.23Q133.44 11.23 133.86 11.48Q134.28 11.74 134.51 12.23Q134.74 12.72 134.57 13.44L134.57 13.44L134.09 15.65Q135.12 13.73 136.48 12.48Q137.83 11.23 139.22 11.23L139.22 11.23Q141.26 11.23 142.07 12.54Q142.87 13.85 141.91 16.78L141.91 16.78Q141.34 18.55 140.90 20.15Q140.47 21.74 140.23 22.97Q139.99 24.19 139.99 24.84L139.99 24.84Q139.99 25.20 140.24 25.42Q140.50 25.63 140.88 25.63L140.88 25.63Q141.14 25.63 141.44 25.50Q141.74 25.37 141.98 25.13ZM149.66 26.74L149.66 26.74Q147.67 26.74 146.68 26.00Q145.68 25.27 145.55 23.56Q145.42 21.84 146.06 18.89L146.06 18.89Q146.54 16.58 147.54 14.87Q148.54 13.15 149.88 12.19Q151.22 11.23 152.74 11.23L152.74 11.23Q154.73 11.23 155.72 11.96Q156.72 12.70 156.85 14.40Q156.98 16.10 156.34 19.08L156.34 19.08Q155.86 21.36 154.86 23.09Q153.86 24.82 152.53 25.78Q151.20 26.74 149.66 26.74ZM149.69 25.63L149.69 25.63Q150.91 25.63 152.00 24.79Q153.10 23.95 153.92 22.43Q154.75 20.90 155.18 18.89L155.18 18.89Q155.71 16.37 155.66 14.94Q155.62 13.51 154.91 12.92Q154.20 12.34 152.71 12.34L152.71 12.34Q151.49 12.34 150.40 13.18Q149.30 14.02 148.48 15.53Q147.65 17.04 147.22 19.08L147.22 19.08Q146.69 21.58 146.74 23.02Q146.78 24.46 147.50 25.04Q148.22 25.63 149.69 25.63ZM177.02 12.10L177.02 12.10L177.17 10.99Q178.34 10.99 179.33 10.51Q180.31 10.03 181.00 9.16Q181.68 8.28 181.92 7.15L181.92 7.15L183.10 7.25Q182.78 8.71 181.93 9.80Q181.08 10.90 179.82 11.50Q178.56 12.10 177.02 12.10ZM182.42 26.40L174.41 26.40L174.65 25.30L182.66 25.30L182.42 26.40ZM179.14 25.92L177.94 25.92L181.90 7.20L183.10 7.20L179.14 25.92ZM192.86 26.74L192.86 26.74Q191.66 26.74 190.78 26.02Q189.89 25.30 189.40 23.96Q188.90 22.63 188.86 20.80Q188.81 18.96 189.29 16.70L189.29 16.70Q189.77 14.50 190.57 12.68Q191.38 10.87 192.40 9.58Q193.42 8.28 194.57 7.57Q195.72 6.86 196.87 6.86L196.87 6.86Q198.07 6.86 198.95 7.58Q199.82 8.30 200.33 9.64Q200.83 10.97 200.88 12.80Q200.93 14.64 200.45 16.90L200.45 16.90Q199.97 19.10 199.16 20.92Q198.36 22.73 197.33 24.02Q196.30 25.32 195.16 26.03Q194.02 26.74 192.86 26.74ZM192.89 25.63L192.89 25.63Q193.80 25.63 194.75 25.00Q195.70 24.36 196.57 23.17Q197.45 21.98 198.14 20.35Q198.84 18.72 199.27 16.70L199.27 16.70Q199.85 14.06 199.68 12.11Q199.51 10.15 198.77 9.06Q198.02 7.97 196.85 7.97L196.85 7.97Q195.94 7.97 194.99 8.60Q194.04 9.24 193.16 10.43Q192.29 11.62 191.59 13.25Q190.90 14.88 190.46 16.90L190.46 16.90Q189.91 19.51 190.07 21.48Q190.22 23.45 190.97 24.54Q191.71 25.63 192.89 25.63ZM194.74 17.93L194.74 17.93Q194.14 17.93 193.86 17.58Q193.58 17.23 193.68 16.70L193.68 16.70Q193.78 16.25 194.14 15.98Q194.50 15.72 195.00 15.72L195.00 15.72Q195.58 15.72 195.88 16.04Q196.18 16.37 196.06 16.90L196.06 16.90Q195.96 17.35 195.59 17.64Q195.22 17.93 194.74 17.93ZM207.26 26.74L207.26 26.74Q206.06 26.74 205.18 26.02Q204.29 25.30 203.80 23.96Q203.30 22.63 203.26 20.80Q203.21 18.96 203.69 16.70L203.69 16.70Q204.17 14.50 204.97 12.68Q205.78 10.87 206.80 9.58Q207.82 8.28 208.97 7.57Q210.12 6.86 211.27 6.86L211.27 6.86Q212.47 6.86 213.35 7.58Q214.22 8.30 214.73 9.64Q215.23 10.97 215.28 12.80Q215.33 14.64 214.85 16.90L214.85 16.90Q214.37 19.10 213.56 20.92Q212.76 22.73 211.73 24.02Q210.70 25.32 209.56 26.03Q208.42 26.74 207.26 26.74ZM207.29 25.63L207.29 25.63Q208.20 25.63 209.15 25.00Q210.10 24.36 210.97 23.17Q211.85 21.98 212.54 20.35Q213.24 18.72 213.67 16.70L213.67 16.70Q214.25 14.06 214.08 12.11Q213.91 10.15 213.17 9.06Q212.42 7.97 211.25 7.97L211.25 7.97Q210.34 7.97 209.39 8.60Q208.44 9.24 207.56 10.43Q206.69 11.62 205.99 13.25Q205.30 14.88 204.86 16.90L204.86 16.90Q204.31 19.51 204.47 21.48Q204.62 23.45 205.37 24.54Q206.11 25.63 207.29 25.63ZM209.14 17.93L209.14 17.93Q208.54 17.93 208.26 17.58Q207.98 17.23 208.08 16.70L208.08 16.70Q208.18 16.25 208.54 15.98Q208.90 15.72 209.40 15.72L209.40 15.72Q209.98 15.72 210.28 16.04Q210.58 16.37 210.46 16.90L210.46 16.90Q210.36 17.35 209.99 17.64Q209.62 17.93 209.14 17.93ZM238.51 26.74L238.51 26.74Q236.71 26.74 235.73 26.11Q234.74 25.49 234.60 24.04Q234.46 22.58 235.13 20.11L235.13 20.11L236.66 14.57Q236.78 13.87 236.60 13.37Q236.42 12.86 235.54 12.67L235.54 12.67L235.82 11.57Q237.02 11.81 237.56 12.49Q238.10 13.18 237.91 14.26L237.91 14.26L236.33 20.11Q235.78 22.18 235.85 23.39Q235.92 24.60 236.59 25.12Q237.26 25.63 238.51 25.63L238.51 25.63Q239.11 25.63 239.58 25.46Q240.05 25.30 240.49 24.90Q240.94 24.50 241.44 23.81L241.44 23.81L242.40 24.48Q241.75 25.32 241.16 25.82Q240.58 26.33 239.95 26.53Q239.33 26.74 238.51 26.74ZM238.42 8.47L238.42 8.47Q237.60 8.47 237.35 8.18Q237.10 7.90 237.26 7.15L237.26 7.15Q237.43 6.48 237.76 6.23Q238.08 5.98 238.75 5.98L238.75 5.98Q239.59 5.98 239.83 6.25Q240.07 6.53 239.90 7.30L239.90 7.30Q239.76 7.97 239.44 8.22Q239.11 8.47 238.42 8.47ZM252.02 26.74L252.02 26.74Q249.65 26.74 249.00 25.49Q248.35 24.24 248.95 21.46L248.95 21.46L250.82 12.67L247.85 12.67L248.09 11.57L251.06 11.57L251.98 7.20L253.18 7.20L252.26 11.57L257.26 11.57L257.02 12.67L252.02 12.67L250.13 21.55Q249.67 23.71 250.06 24.67Q250.44 25.63 252.05 25.63L252.05 25.63Q252.91 25.63 253.50 25.49Q254.09 25.34 254.50 25.02Q254.90 24.70 255.22 24.17L255.22 24.17L256.30 24.65Q255.82 25.46 255.26 25.92Q254.71 26.38 253.94 26.56Q253.18 26.74 252.02 26.74ZM271.08 25.13L271.08 25.13L271.66 26.02Q271.32 26.33 270.74 26.53Q270.17 26.74 269.54 26.74L269.54 26.74Q268.80 26.74 268.34 26.35Q267.89 25.97 267.89 25.34L267.89 25.34Q267.89 24.84 267.95 24.38Q268.01 23.93 268.10 23.69L268.10 23.69Q267.43 25.06 266.30 25.90Q265.18 26.74 264.00 26.74L264.00 26.74Q262.80 26.74 261.89 26.22Q260.98 25.70 260.47 24.77Q259.97 23.83 259.97 22.58L259.97 22.58Q259.97 21.12 260.44 19.54Q260.90 17.95 261.72 16.48Q262.54 15.00 263.56 13.81Q264.58 12.62 265.70 11.93Q266.83 11.23 267.91 11.23L267.91 11.23Q269.42 11.23 270.41 11.65Q271.39 12.07 271.39 13.32L271.39 13.32Q271.39 13.42 271.34 13.74Q271.30 14.06 271.15 14.74Q271.01 15.41 270.77 16.60Q270.53 17.78 270.13 19.63Q269.74 21.48 269.18 24.12L269.18 24.12Q269.09 24.79 269.18 25.21Q269.28 25.63 269.98 25.63L269.98 25.63Q270.24 25.63 270.54 25.50Q270.84 25.37 271.08 25.13ZM264.00 25.63L264.00 25.63Q264.96 25.63 265.87 24.96Q266.78 24.29 267.56 23.06Q268.34 21.84 268.85 20.23L268.85 20.23Q269.47 17.38 269.83 15.60Q270.19 13.82 270.19 13.44L270.19 13.44Q270.19 12.79 269.65 12.56Q269.11 12.34 267.91 12.34L267.91 12.34Q267.05 12.34 266.11 12.98Q265.18 13.63 264.29 14.72Q263.40 15.82 262.70 17.16Q262.01 18.50 261.59 19.91Q261.17 21.31 261.17 22.58L261.17 22.58Q261.17 23.95 261.95 24.79Q262.73 25.63 264.00 25.63ZM281.59 26.74L281.59 26.74Q280.20 26.74 279.34 25.73Q278.47 24.72 278.47 23.06L278.47 23.06Q278.47 19.42 278.74 16.44Q279 13.46 279.55 11.32Q280.10 9.17 281.02 8.02Q281.93 6.86 283.22 6.86L283.22 6.86Q284.30 6.86 284.93 7.68Q285.55 8.50 285.55 9.96L285.55 9.96Q285.55 11.74 284.93 13.66Q284.30 15.58 283.16 17.47Q282.02 19.37 280.50 21.08Q278.98 22.80 277.18 24.17Q275.38 25.54 273.43 26.40L273.43 26.40L272.95 25.39Q274.78 24.58 276.47 23.27Q278.16 21.96 279.59 20.35Q281.02 18.74 282.08 16.97Q283.15 15.19 283.75 13.39Q284.35 11.59 284.35 9.96L284.35 9.96Q284.35 9 284.00 8.50Q283.66 7.99 283.03 7.99L283.03 7.99Q282.46 7.99 281.95 8.65Q281.45 9.31 281.03 10.56Q280.61 11.81 280.31 13.57Q280.01 15.34 279.84 17.54Q279.67 19.75 279.67 22.34L279.67 22.34Q279.67 23.81 280.20 24.72Q280.73 25.63 281.59 25.63L281.59 25.63Q282.29 25.63 283.10 25.13Q283.92 24.62 284.52 23.81L284.52 23.81L285.48 24.48Q284.71 25.49 283.64 26.11Q282.58 26.74 281.59 26.74ZM296.11 26.74L296.11 26.74Q294.31 26.74 293.33 26.11Q292.34 25.49 292.20 24.04Q292.06 22.58 292.73 20.11L292.73 20.11L294.26 14.57Q294.38 13.87 294.20 13.37Q294.02 12.86 293.14 12.67L293.14 12.67L293.42 11.57Q294.62 11.81 295.16 12.49Q295.70 13.18 295.51 14.26L295.51 14.26L293.93 20.11Q293.38 22.18 293.45 23.39Q293.52 24.60 294.19 25.12Q294.86 25.63 296.11 25.63L296.11 25.63Q296.71 25.63 297.18 25.46Q297.65 25.30 298.09 24.90Q298.54 24.50 299.04 23.81L299.04 23.81L300 24.48Q299.35 25.32 298.76 25.82Q298.18 26.33 297.55 26.53Q296.93 26.74 296.11 26.74ZM296.02 8.47L296.02 8.47Q295.20 8.47 294.95 8.18Q294.70 7.90 294.86 7.15L294.86 7.15Q295.03 6.48 295.36 6.23Q295.68 5.98 296.35 5.98L296.35 5.98Q297.19 5.98 297.43 6.25Q297.67 6.53 297.50 7.30L297.50 7.30Q297.36 7.97 297.04 8.22Q296.71 8.47 296.02 8.47ZM312.67 23.62L312.67 23.62L313.61 24.31Q312.79 25.22 312.02 25.76Q311.26 26.30 310.30 26.52Q309.34 26.74 307.92 26.74L307.92 26.74Q305.98 26.74 304.97 26.02Q303.96 25.30 303.82 23.58Q303.67 21.86 304.32 18.89L304.32 18.89Q304.70 17.16 305.46 15.76Q306.22 14.35 307.21 13.34Q308.21 12.34 309.34 11.78Q310.46 11.23 311.57 11.23L311.57 11.23Q312.74 11.23 313.52 11.46Q314.30 11.69 314.84 12.23Q315.38 12.77 315.82 13.73L315.82 13.73L314.74 14.23Q314.40 13.51 313.98 13.09Q313.56 12.67 312.98 12.50Q312.41 12.34 311.54 12.34L311.54 12.34Q310.34 12.34 309.11 13.18Q307.87 14.02 306.89 15.53Q305.90 17.04 305.47 19.08L305.47 19.08Q304.94 21.58 305.02 23.00Q305.09 24.43 305.81 25.03Q306.53 25.63 307.94 25.63L307.94 25.63Q309.10 25.63 309.88 25.45Q310.66 25.27 311.30 24.83Q311.95 24.38 312.67 23.62Z"/></svg>