<svg xmlns="http://www.w3.org/2000/svg" xmlns:xlink="http://www.w3.org/1999/xlink" width="190.70400000000004" height="29.64"><path fill="black" d="M4.30 14.50L4.30 14.50Q2.95 14.04 2.30 13.13Q1.66 12.22 1.66 10.63L1.66 10.63Q1.66 8.42 3.34 7.09Q5.02 5.76 6.76 5.76Q8.50 5.76 9.83 6.54Q11.16 7.32 11.16 8.66L11.16 8.66Q11.16 9.48 10.66 9.91Q10.15 10.34 9.44 10.34Q8.74 10.34 8.32 9.95Q7.90 9.55 7.90 9.20Q7.90 8.86 8.03 8.86Q8.16 8.86 8.26 9.01Q8.35 9.17 8.42 9.36L8.42 9.36Q8.62 9.86 9.25 9.86Q9.89 9.86 10.26 9.55Q10.63 9.24 10.63 8.66L10.63 8.66Q10.63 7.61 9.46 6.94Q8.28 6.26 6.79 6.26Q5.30 6.26 4.01 7.18Q2.71 8.09 2.71 9.48L2.71 9.48Q2.71 10.42 3.37 11.03Q4.03 11.64 4.86 11.90Q5.69 12.17 7.02 12.53Q8.35 12.89 9.10 13.22L9.10 13.22Q11.69 14.38 11.69 17.38L11.69 17.38Q11.69 18.89 11.12 20.04Q10.56 21.19 9.70 21.79L9.70 21.79Q7.99 22.94 6.26 22.94L6.26 22.94Q4.68 22.94 3 21.96L3 21.96Q2.18 21.48 1.66 20.62Q1.13 19.75 1.13 18.59Q1.13 17.42 1.76 16.88Q2.40 16.34 2.89 16.34Q3.38 16.34 3.74 16.56Q4.10 16.78 4.10 17.04Q4.10 17.30 3.98 17.30Q3.86 17.30 3.80 17.23Q3.74 17.16 3.70 17.06L3.70 17.06Q3.53 16.82 2.92 16.82Q2.30 16.82 1.93 17.34Q1.56 17.86 1.56 18.65L1.56 18.65Q1.56 20.38 3.02 21.42Q4.49 22.46 6.17 22.46L6.17 22.46Q8.47 22.46 9.84 20.90L9.84 20.90Q10.63 19.97 10.63 18.50Q10.63 17.04 9.64 16.31Q8.64 15.58 6.84 15.16Q5.04 14.74 4.30 14.50ZM14.09 11.62L16.49 11.62L16.49 12.98Q18.62 11.40 20.23 11.40L20.23 11.40Q21.65 11.40 22.99 12.55L22.99 12.55Q23.71 13.15 24.17 14.36Q24.62 15.58 24.62 17.21L24.62 17.21Q24.62 19.94 23.34 21.46Q22.06 22.97 19.87 22.97L19.87 22.97Q18.53 22.97 17.58 22.43Q16.63 21.89 16.49 20.83L16.49 20.83L16.49 28.73L14.09 28.73L14.09 11.62ZM22.22 16.90L22.22 16.90Q22.22 14.78 21.37 13.38Q20.52 11.98 19.44 11.98Q18.36 11.98 16.49 13.54L16.49 13.54L16.49 20.11Q16.56 19.51 16.90 19.06L16.90 19.06Q17.47 18.26 18 18.26L18 18.26Q18.19 18.26 18.19 18.50L18.19 18.50Q18.19 18.62 17.76 18.91L17.76 18.91Q16.94 19.49 16.94 20.39Q16.94 21.29 17.80 21.89Q18.65 22.49 19.58 22.49L19.58 22.49Q22.22 22.49 22.22 16.90ZM27 11.64L29.40 11.64L29.40 22.75L27 22.75L27 11.64ZM27.30 9.37Q26.93 9.00 26.93 8.47Q26.93 7.94 27.30 7.57Q27.67 7.20 28.20 7.20Q28.73 7.20 29.10 7.57Q29.47 7.94 29.47 8.47Q29.47 9.00 29.10 9.37Q28.73 9.74 28.20 9.74Q27.67 9.74 27.30 9.37ZM40.34 12.53L40.34 12.53Q40.34 12.79 40.14 12.94Q39.94 13.08 39.62 13.08Q39.31 13.08 39.12 12.90Q38.93 12.72 38.87 12.50Q38.81 12.29 38.57 12.11Q38.33 11.93 37.90 11.93L37.90 11.93Q36.84 11.93 35.93 13.46Q35.02 15.00 34.87 16.94L34.87 16.94L34.87 22.73L32.47 22.73L32.47 11.62L34.87 11.62L34.87 14.45Q35.45 13.06 36.37 12.13Q37.30 11.21 38.23 11.21Q39.17 11.21 39.76 11.53Q40.34 11.86 40.34 12.53ZM45.00 22.97L45.00 22.97Q43.27 22.97 41.94 22.00Q40.61 21.02 40.61 19.30L40.61 19.30Q40.61 18.29 41.10 17.54Q41.59 16.80 42.36 16.44L42.36 16.44Q43.78 15.72 45.12 15.72Q46.46 15.72 48.17 16.44L48.17 16.44Q48.14 13.66 47.48 12.73Q46.82 11.81 45.46 11.81Q44.09 11.81 43.09 12.31Q42.10 12.82 42.10 13.66L42.10 13.66Q42.10 13.94 41.84 13.94Q41.59 13.94 41.59 13.68L41.59 13.68Q41.59 12.67 42.71 12.01Q43.82 11.35 46.01 11.35L46.01 11.35Q50.57 11.35 50.57 16.73L50.57 16.73L50.57 22.73L48.17 22.73L48.17 20.83Q48.00 21.77 47.09 22.37Q46.18 22.97 45.00 22.97ZM47.11 18.48L47.11 18.48Q47.98 19.08 48.17 20.14L48.17 20.14L48.17 16.87Q46.44 16.18 45.35 16.18Q44.26 16.18 43.63 17.09Q43.01 18 43.01 19.32Q43.01 20.64 43.52 21.56Q44.04 22.49 45.08 22.49Q46.13 22.49 46.92 21.95Q47.71 21.41 47.71 20.66L47.71 20.66Q47.71 19.37 46.85 18.89L46.85 18.89Q46.49 18.67 46.49 18.48Q46.49 18.29 46.66 18.29Q46.82 18.29 47.11 18.48ZM64.01 20.42L64.15 19.87Q64.37 19.87 64.37 20.16L64.37 20.16Q64.34 21.22 63.52 22.03Q62.69 22.85 61.76 22.85Q60.84 22.85 60.10 22.34Q59.35 21.84 58.90 20.95L58.90 20.95L57.41 18.05Q55.66 19.20 54.70 20.30Q53.74 21.41 53.69 22.73L53.69 22.73L53.21 22.73Q53.21 21.14 54.17 20.06Q55.13 18.98 57.19 17.62L57.19 17.62L55.82 14.90Q54.58 12.46 53.76 12.46L53.76 12.46Q52.87 12.46 52.49 13.97L52.49 13.97Q52.37 14.50 52.32 14.52L52.32 14.52Q52.10 14.52 52.10 14.24Q52.10 13.97 52.33 13.39Q52.56 12.82 53.23 12.18Q53.90 11.54 54.77 11.54Q55.63 11.54 56.44 12.16Q57.24 12.77 57.77 13.85L57.77 13.85L59.11 16.51Q60.86 15.38 61.76 14.22Q62.66 13.06 62.74 11.62L62.74 11.62L63.22 11.62Q63.22 13.30 62.33 14.44Q61.44 15.58 59.35 16.94L59.35 16.94L61.44 21.07Q61.90 21.94 62.71 21.94L62.71 21.94Q63.24 21.94 63.56 21.44Q63.89 20.95 64.01 20.42L64.01 20.42ZM78.55 17.45L78.55 22.20L81 22.20L81 22.73L73.75 22.73L73.75 22.20L76.06 22.20L76.06 17.45L69.53 17.45L69.53 16.97L78.53 5.62L78.53 16.97L80.74 16.97L80.74 17.45L78.55 17.45ZM70.20 16.97L76.06 16.97L76.06 9.62L70.20 16.97ZM84.29 8.62L84.29 8.62Q85.01 7.32 86.26 6.55Q87.50 5.78 89.12 5.78Q90.74 5.78 91.92 6.53Q93.10 7.27 93.74 8.57L93.74 8.57Q94.99 11.04 94.99 14.50L94.99 14.50Q94.99 16.80 94.45 18.52Q93.91 20.23 93.02 21.17L93.02 21.17Q91.27 22.97 88.82 22.97Q86.38 22.97 84.61 20.87Q82.85 18.77 82.85 15.01Q82.85 11.26 84.29 8.62ZM85.25 15.17Q85.25 18.17 86.34 20.32Q87.43 22.46 88.92 22.46Q90.41 22.46 91.49 20.29Q92.57 18.12 92.57 14.98L92.57 14.98Q92.57 12.77 92.28 11.45L92.28 11.45Q92.18 12.41 91.54 13.00Q90.89 13.58 90.07 13.58Q89.26 13.58 88.61 13.04Q87.96 12.50 87.96 11.75Q87.96 10.99 88.31 10.60Q88.66 10.20 88.90 10.20Q89.14 10.20 89.14 10.34L89.14 10.34Q89.14 10.42 88.78 10.74Q88.42 11.06 88.42 11.63Q88.42 12.19 88.91 12.65Q89.40 13.10 90.18 13.10Q90.96 13.10 91.40 12.30Q91.85 11.50 91.85 10.12Q91.85 8.74 91.04 7.50Q90.24 6.26 89.11 6.26Q87.98 6.26 87.22 7.16Q86.45 8.06 86.04 9.46L86.04 9.46Q85.25 12.17 85.25 15.17ZM98.95 8.62L98.95 8.62Q99.67 7.32 100.92 6.55Q102.17 5.78 103.79 5.78Q105.41 5.78 106.58 6.53Q107.76 7.27 108.41 8.57L108.41 8.57Q109.66 11.04 109.66 14.50L109.66 14.50Q109.66 16.80 109.12 18.52Q108.58 20.23 107.69 21.17L107.69 21.17Q105.94 22.97 103.49 22.97Q101.04 22.97 99.28 20.87Q97.51 18.77 97.51 15.01Q97.51 11.26 98.95 8.62ZM99.91 15.17Q99.91 18.17 101.00 20.32Q102.10 22.46 103.58 22.46Q105.07 22.46 106.15 20.29Q107.23 18.12 107.23 14.98L107.23 14.98Q107.23 12.77 106.94 11.45L106.94 11.45Q106.85 12.41 106.20 13.00Q105.55 13.58 104.74 13.58Q103.92 13.58 103.27 13.04Q102.62 12.50 102.62 11.75Q102.62 10.99 102.97 10.60Q103.32 10.20 103.56 10.20Q103.80 10.20 103.80 10.34L103.80 10.34Q103.80 10.42 103.44 10.74Q103.08 11.06 103.08 11.63Q103.08 12.19 103.57 12.65Q104.06 13.10 104.84 13.10Q105.62 13.10 106.07 12.30Q106.51 11.50 106.51 10.12Q106.51 8.74 105.71 7.50Q104.90 6.26 103.78 6.26Q102.65 6.26 101.88 7.16Q101.11 8.06 100.70 9.46L100.70 9.46Q99.91 12.17 99.91 15.17ZM120.22 15.19Q120.22 15.77 120.52 16.31Q120.82 16.85 121.36 16.85Q121.90 16.85 122.20 16.72Q122.50 16.58 122.54 16.58L122.54 16.58Q122.69 16.58 122.69 16.78Q122.69 16.97 122.41 17.15Q122.14 17.33 121.43 17.33Q120.72 17.33 120.26 16.75Q119.81 16.18 119.74 15.48L119.74 15.48L119.74 22.73L117.36 22.73L117.36 11.62L119.74 11.62L119.74 15.12Q119.83 13.61 121.22 12.49Q122.62 11.38 124.13 11.38L124.13 11.38Q125.71 11.38 126.47 12.47Q127.22 13.56 127.22 17.11L127.22 17.11L127.22 22.73L124.82 22.73L124.82 17.74Q124.82 14.90 124.52 13.51Q124.22 12.12 123.38 12.12L123.38 12.12Q122.33 12.12 121.27 13.10Q120.22 14.09 120.22 15.19L120.22 15.19ZM129.41 17.18L129.41 17.18Q129.41 14.74 131.10 13.08Q132.79 11.42 135.44 11.42Q138.10 11.42 139.75 12.98Q141.41 14.54 141.41 17.09L141.41 17.09Q141.41 18.60 140.83 19.76Q140.26 20.93 139.34 21.58L139.34 21.58Q137.47 22.85 135.43 22.85L135.43 22.85Q133.44 22.85 131.54 21.53L131.54 21.53Q130.61 20.88 130.01 19.74Q129.41 18.60 129.41 17.18ZM136.25 15.65L136.25 15.65L135.55 15.50Q135.10 15.50 134.77 15.90Q134.45 16.30 134.45 16.84Q134.45 17.38 134.93 17.90Q135.41 18.43 136.28 18.43Q137.16 18.43 138.01 17.58Q138.86 16.73 138.86 15.17Q138.86 13.61 137.87 12.76Q136.87 11.90 135.36 11.90L135.36 11.90Q134.40 11.90 133.70 12.28Q133.01 12.65 132.65 13.18Q132.29 13.70 132.10 14.52L132.10 14.52Q131.81 15.72 131.81 17.30L131.81 17.30Q131.81 22.37 135.50 22.37L135.50 22.37Q137.69 22.37 138.38 20.71L138.38 20.71Q138.98 19.30 138.98 17.04L138.98 17.04Q138.77 17.66 137.99 18.29Q137.21 18.91 136.27 18.91Q135.34 18.91 134.65 18.28Q133.97 17.64 133.97 16.85Q133.97 16.06 134.40 15.54Q134.83 15.02 135.64 15.02Q136.44 15.02 136.44 15.48L136.44 15.48Q136.44 15.65 136.25 15.65ZM151.61 12.53L151.61 12.53Q151.61 12.79 151.40 12.94Q151.20 13.08 150.89 13.08Q150.58 13.08 150.38 12.90Q150.19 12.72 150.13 12.50Q150.07 12.29 149.83 12.11Q149.59 11.93 149.16 11.93L149.16 11.93Q148.10 11.93 147.19 13.46Q146.28 15.00 146.14 16.94L146.14 16.94L146.14 22.73L143.74 22.73L143.74 11.62L146.14 11.62L146.14 14.45Q146.71 13.06 147.64 12.13Q148.56 11.21 149.50 11.21Q150.43 11.21 151.02 11.53Q151.61 11.86 151.61 12.53ZM155.86 15.19Q155.86 15.77 156.16 16.31Q156.46 16.85 157.00 16.85Q157.54 16.85 157.84 16.72Q158.14 16.58 158.18 16.58L158.18 16.58Q158.33 16.58 158.33 16.78Q158.33 16.97 158.05 17.15Q157.78 17.33 157.07 17.33Q156.36 17.33 155.90 16.75Q155.45 16.18 155.38 15.48L155.38 15.48L155.38 22.73L153.00 22.73L153.00 11.62L155.38 11.62L155.38 15.12Q155.47 13.61 156.86 12.49Q158.26 11.38 159.78 11.38Q161.30 11.38 161.96 12.30Q162.62 13.22 162.79 14.95L162.79 14.95Q162.89 13.51 164.29 12.44Q165.70 11.38 167.18 11.38L167.18 11.38Q168.77 11.38 169.52 12.47Q170.28 13.56 170.28 17.11L170.28 17.11L170.28 22.73L167.88 22.73L167.88 17.74Q167.88 14.90 167.58 13.51Q167.28 12.12 166.44 12.12L166.44 12.12Q165.38 12.12 164.33 13.10Q163.27 14.09 163.27 15.19L163.27 15.19Q163.27 15.77 163.57 16.31Q163.87 16.85 164.54 16.85L164.54 16.85Q164.95 16.85 165.25 16.72Q165.55 16.58 165.60 16.58L165.60 16.58Q165.74 16.58 165.74 16.78Q165.74 16.97 165.47 17.15Q165.19 17.33 164.53 17.33Q163.87 17.33 163.42 16.86Q162.96 16.39 162.84 15.65L162.84 15.65Q162.86 16.10 162.86 17.11L162.86 17.11L162.86 22.73L160.46 22.73L160.46 17.74Q160.46 14.90 160.16 13.51Q159.86 12.12 159.02 12.12L159.02 12.12Q157.97 12.12 156.91 13.10Q155.86 14.09 155.86 15.19L155.86 15.19ZM176.64 22.97L176.64 22.97Q174.91 22.97 173.58 22.00Q172.25 21.02 172.25 19.30L172.25 19.30Q172.25 18.29 172.74 17.54Q173.23 16.80 174.00 16.44L174.00 16.44Q175.42 15.72 176.76 15.72Q178.10 15.72 179.81 16.44L179.81 16.44Q179.78 13.66 179.12 12.73Q178.46 11.81 177.10 11.81Q175.73 11.81 174.73 12.31Q173.74 12.82 173.74 13.66L173.74 13.66Q173.74 13.94 173.48 13.94Q173.23 13.94 173.23 13.68L173.23 13.68Q173.23 12.67 174.35 12.01Q175.46 11.35 177.65 11.35L177.65 11.35Q182.21 11.35 182.21 16.73L182.21 16.73L182.21 22.73L179.81 22.73L179.81 20.83Q179.64 21.77 178.73 22.37Q177.82 22.97 176.64 22.97ZM178.75 18.48L178.75 18.48Q179.62 19.08 179.81 20.14L179.81 20.14L179.81 16.87Q178.08 16.18 176.99 16.18Q175.90 16.18 175.27 17.09Q174.65 18 174.65 19.32Q174.65 20.64 175.16 21.56Q175.68 22.49 176.72 22.49Q177.77 22.49 178.56 21.95Q179.35 21.41 179.35 20.66L179.35 20.66Q179.35 19.37 178.49 18.89L178.49 18.89Q178.13 18.67 178.13 18.48Q178.13 18.29 178.30 18.29Q178.46 18.29 178.75 18.48ZM186.12 21.96L186.12 21.96L186.12 6.02L188.52 6.02L188.52 23.33Q188.52 25.32 190.32 25.39L190.32 25.39Q190.44 25.39 190.52 25.49Q190.61 25.58 190.61 25.73Q190.61 25.87 190.51 25.87L190.51 25.87Q189.70 25.87 189.02 25.54Q188.35 25.20 187.99 24.85Q187.63 24.50 187.06 23.78Q186.48 23.06 186.07 22.63Q185.66 22.20 185.22 22.04Q184.78 21.89 184.22 21.85Q183.67 21.82 183.67 21.62L183.67 21.62Q183.67 21.36 184.40 21.36Q185.14 21.36 186.12 21.96Z"/></svg>