<svg xmlns="http://www.w3.org/2000/svg" xmlns:xlink="http://www.w3.org/1999/xlink" width="174.71999999999997" height="28.8"><path fill="black" d="M6.58 23.11L6.58 23.11Q4.56 23.11 3.28 22.13Q1.99 21.14 1.48 19.48Q0.96 17.82 1.25 15.79L1.25 15.79L2.62 6L3.34 6L1.97 15.79Q1.72 17.59 2.15 19.09Q2.59 20.59 3.72 21.49Q4.85 22.39 6.67 22.39L6.67 22.39Q8.52 22.39 9.91 21.48Q11.29 20.57 12.14 19.07Q13.00 17.57 13.25 15.79L13.25 15.79L14.62 6L15.34 6L13.97 15.79Q13.75 17.32 13.14 18.64Q12.53 19.97 11.57 20.98Q10.61 21.98 9.35 22.55Q8.09 23.11 6.58 23.11ZM16.58 22.80L15.86 22.80L17.54 10.80L18.26 10.80L17.98 12.90Q18.79 11.80 20.02 11.13Q21.25 10.46 22.62 10.46L22.62 10.46Q23.33 10.46 23.95 10.64L23.95 10.64L23.54 11.32Q23.04 11.18 22.52 11.18L22.52 11.18Q21.34 11.18 20.27 11.77Q19.21 12.35 18.49 13.32Q17.77 14.29 17.60 15.49L17.60 15.49L16.58 22.80ZM31.04 10.46L31.04 10.46Q32.78 10.46 34.10 11.32Q35.41 12.17 36.07 13.61Q36.72 15.05 36.47 16.80L36.47 16.80Q36.29 18.11 35.63 19.25Q34.98 20.39 33.99 21.26Q33 22.13 31.79 22.62Q30.58 23.11 29.27 23.11L29.27 23.11Q27.53 23.11 26.40 22.25Q25.27 21.40 24.82 19.99L24.82 19.99L24.42 22.80L23.70 22.80L26.22 4.80L26.94 4.80L25.72 13.58Q26.56 12.18 27.93 11.32Q29.30 10.46 31.04 10.46ZM29.36 22.39L29.36 22.39Q30.91 22.39 32.29 21.64Q33.67 20.88 34.60 19.61Q35.53 18.34 35.75 16.80L35.75 16.80Q35.98 15.22 35.38 13.94Q34.79 12.67 33.62 11.93Q32.45 11.18 30.95 11.18L30.95 11.18Q29.40 11.18 28.21 11.95Q27.02 12.71 26.27 13.99Q25.52 15.26 25.31 16.80L25.31 16.80Q25.09 18.36 25.49 19.63Q25.88 20.89 26.86 21.64Q27.84 22.39 29.36 22.39ZM49.33 13.58L49.72 10.80L50.44 10.80L48.76 22.80L48.04 22.80L48.43 19.99Q47.59 21.40 46.22 22.25Q44.84 23.11 43.09 23.11L43.09 23.11Q41.78 23.11 40.71 22.62Q39.64 22.13 38.89 21.26Q38.15 20.39 37.82 19.25Q37.49 18.11 37.67 16.80L37.67 16.80Q37.85 15.48 38.50 14.33Q39.16 13.19 40.15 12.32Q41.14 11.45 42.35 10.96Q43.56 10.46 44.87 10.46L44.87 10.46Q46.62 10.46 47.75 11.32Q48.88 12.18 49.33 13.58L49.33 13.58ZM43.19 22.39L43.19 22.39Q44.74 22.39 45.92 21.64Q47.11 20.88 47.86 19.61Q48.61 18.34 48.83 16.80L48.83 16.80Q49.06 15.23 48.65 13.96Q48.25 12.68 47.27 11.93Q46.30 11.18 44.77 11.18L44.77 11.18Q43.22 11.18 41.85 11.94Q40.48 12.70 39.54 13.97Q38.60 15.25 38.39 16.80L38.39 16.80Q38.17 18.37 38.76 19.64Q39.35 20.90 40.52 21.65Q41.69 22.39 43.19 22.39ZM62.23 15.49L62.23 15.49L61.21 22.80L60.49 22.80L61.51 15.49Q61.68 14.29 61.24 13.32Q60.79 12.35 59.90 11.77Q59.00 11.18 57.82 11.18L57.82 11.18Q56.63 11.18 55.57 11.77Q54.50 12.35 53.78 13.32Q53.06 14.29 52.90 15.49L52.90 15.49L51.88 22.80L51.16 22.80L52.84 10.80L53.56 10.80L53.27 12.90Q54.08 11.80 55.31 11.13Q56.54 10.46 57.91 10.46L57.91 10.46Q59.30 10.46 60.35 11.14Q61.39 11.82 61.91 12.96Q62.44 14.10 62.23 15.49ZM63.61 22.80L65.29 10.80L66.01 10.80L64.33 22.80L63.61 22.80ZM66.02 8.28L66.02 8.28Q65.80 8.28 65.65 8.13Q65.51 7.98 65.54 7.75L65.54 7.75Q65.58 7.51 65.76 7.37Q65.94 7.22 66.17 7.22L66.17 7.22Q66.38 7.22 66.52 7.37Q66.66 7.51 66.62 7.74L66.62 7.74Q66.59 7.98 66.41 8.13Q66.24 8.28 66.02 8.28ZM71.02 23.04L71.02 23.04Q69.98 23.04 69.05 22.69Q68.12 22.34 67.49 21.76Q66.85 21.17 66.70 20.45L66.70 20.45L67.42 20.16Q67.55 20.81 68.15 21.29Q68.75 21.78 69.55 22.05Q70.36 22.32 71.11 22.32L71.11 22.32Q72.05 22.32 72.91 21.99Q73.78 21.66 74.36 21.07Q74.95 20.48 75.06 19.70L75.06 19.70Q75.18 18.89 74.72 18.41Q74.26 17.94 73.48 17.64Q72.71 17.34 71.86 17.06L71.86 17.06Q70.54 16.63 69.62 16.25Q68.71 15.86 68.29 15.29Q67.87 14.72 68.00 13.73L68.00 13.73Q68.15 12.71 68.86 11.96Q69.58 11.21 70.62 10.80Q71.66 10.39 72.79 10.39L72.79 10.39Q74.29 10.39 75.40 11.06Q76.51 11.72 76.80 12.77L76.80 12.77L76.13 13.13Q75.97 12.49 75.44 12.04Q74.90 11.59 74.18 11.35Q73.45 11.11 72.70 11.11L72.70 11.11Q71.75 11.11 70.88 11.43Q70.02 11.75 69.43 12.34Q68.84 12.92 68.72 13.73L68.72 13.73Q68.60 14.56 68.97 14.99Q69.34 15.43 70.10 15.71Q70.87 15.98 71.95 16.34L71.95 16.34Q73.03 16.70 73.96 17.10Q74.88 17.50 75.40 18.10Q75.92 18.71 75.78 19.70L75.78 19.70Q75.64 20.72 74.92 21.47Q74.21 22.22 73.17 22.63Q72.13 23.04 71.02 23.04ZM85.02 10.80L84.92 11.52L81.64 11.52L80.03 22.80L79.31 22.80L80.92 11.52L78.44 11.52L78.54 10.80L81.01 10.80L81.52 7.03L82.24 7.03L81.73 10.80L85.02 10.80ZM93.04 22.80L92.32 22.80L94.57 6.72L93.01 6.72L93.35 6L95.39 6L93.04 22.80ZM101.99 23.11L101.99 23.11Q100.45 23.11 99.36 22.43Q98.27 21.76 97.63 20.56Q96.98 19.36 96.79 17.78Q96.60 16.20 96.85 14.40L96.85 14.40Q97.10 12.59 97.74 11.01Q98.38 9.43 99.35 8.24Q100.33 7.04 101.62 6.37Q102.90 5.69 104.44 5.69L104.44 5.69Q105.97 5.69 107.05 6.37Q108.13 7.04 108.77 8.24Q109.42 9.43 109.61 11.01Q109.80 12.59 109.55 14.40L109.55 14.40Q109.30 16.20 108.66 17.78Q108.02 19.36 107.05 20.56Q106.07 21.76 104.80 22.43Q103.52 23.11 101.99 23.11ZM102.08 22.39L102.08 22.39Q103.91 22.39 105.31 21.31Q106.72 20.22 107.62 18.40Q108.53 16.58 108.83 14.40L108.83 14.40Q109.15 12.11 108.75 10.30Q108.35 8.50 107.24 7.45Q106.13 6.41 104.34 6.41L104.34 6.41Q102.92 6.41 101.78 7.04Q100.63 7.68 99.77 8.79Q98.90 9.90 98.35 11.35Q97.80 12.79 97.57 14.40L97.57 14.40Q97.26 16.61 97.66 18.42Q98.05 20.23 99.16 21.31Q100.26 22.39 102.08 22.39ZM116.12 23.11L116.12 23.11Q114.59 23.11 113.50 22.43Q112.40 21.76 111.76 20.56Q111.12 19.36 110.93 17.78Q110.74 16.20 110.99 14.40L110.99 14.40Q111.24 12.59 111.88 11.01Q112.51 9.43 113.49 8.24Q114.47 7.04 115.75 6.37Q117.04 5.69 118.57 5.69L118.57 5.69Q120.11 5.69 121.19 6.37Q122.27 7.04 122.91 8.24Q123.55 9.43 123.74 11.01Q123.94 12.59 123.68 14.40L123.68 14.40Q123.43 16.20 122.80 17.78Q122.16 19.36 121.18 20.56Q120.20 21.76 118.93 22.43Q117.66 23.11 116.12 23.11ZM116.22 22.39L116.22 22.39Q118.04 22.39 119.45 21.31Q120.85 20.22 121.76 18.40Q122.66 16.58 122.96 14.40L122.96 14.40Q123.29 12.11 122.89 10.30Q122.48 8.50 121.37 7.45Q120.26 6.41 118.48 6.41L118.48 6.41Q117.06 6.41 115.91 7.04Q114.77 7.68 113.90 8.79Q113.04 9.90 112.49 11.35Q111.94 12.79 111.71 14.40L111.71 14.40Q111.40 16.61 111.79 18.42Q112.19 20.23 113.29 21.31Q114.40 22.39 116.22 22.39ZM130.43 22.80L132.11 10.80L132.83 10.80L131.15 22.80L130.43 22.80ZM132.84 8.28L132.84 8.28Q132.61 8.28 132.47 8.13Q132.32 7.98 132.36 7.75L132.36 7.75Q132.40 7.51 132.58 7.37Q132.76 7.22 132.98 7.22L132.98 7.22Q133.20 7.22 133.34 7.37Q133.48 7.51 133.44 7.74L133.44 7.74Q133.40 7.98 133.23 8.13Q133.06 8.28 132.84 8.28ZM141.61 10.80L141.52 11.52L138.23 11.52L136.62 22.80L135.90 22.80L137.51 11.52L135.04 11.52L135.13 10.80L137.60 10.80L138.11 7.03L138.83 7.03L138.32 10.80L141.61 10.80ZM153.49 13.58L153.88 10.80L154.60 10.80L152.92 22.80L152.20 22.80L152.59 19.99Q151.75 21.40 150.38 22.25Q149.00 23.11 147.25 23.11L147.25 23.11Q145.94 23.11 144.87 22.62Q143.80 22.13 143.05 21.26Q142.31 20.39 141.98 19.25Q141.65 18.11 141.83 16.80L141.83 16.80Q142.01 15.48 142.66 14.33Q143.32 13.19 144.31 12.32Q145.30 11.45 146.51 10.96Q147.72 10.46 149.03 10.46L149.03 10.46Q150.78 10.46 151.91 11.32Q153.04 12.18 153.49 13.58L153.49 13.58ZM147.35 22.39L147.35 22.39Q148.90 22.39 150.08 21.64Q151.27 20.88 152.02 19.61Q152.77 18.34 152.99 16.80L152.99 16.80Q153.22 15.23 152.81 13.96Q152.41 12.68 151.43 11.93Q150.46 11.18 148.93 11.18L148.93 11.18Q147.38 11.18 146.01 11.94Q144.64 12.70 143.70 13.97Q142.76 15.25 142.55 16.80L142.55 16.80Q142.33 18.37 142.92 19.64Q143.51 20.90 144.68 21.65Q145.85 22.39 147.35 22.39ZM156.29 22.80L155.57 22.80L158.09 4.80L158.81 4.80L156.29 22.80ZM159.17 22.80L160.85 10.80L161.57 10.80L159.89 22.80L159.17 22.80ZM161.58 8.28L161.58 8.28Q161.35 8.28 161.21 8.13Q161.06 7.98 161.10 7.75L161.10 7.75Q161.14 7.51 161.32 7.37Q161.50 7.22 161.72 7.22L161.72 7.22Q161.94 7.22 162.08 7.37Q162.22 7.51 162.18 7.74L162.18 7.74Q162.14 7.98 161.97 8.13Q161.80 8.28 161.58 8.28ZM172.55 20.26L172.55 20.26L173.12 20.59Q172.15 21.74 170.81 22.43Q169.46 23.11 168.00 23.11L168.00 23.11Q166.34 23.11 165.10 22.26Q163.86 21.41 163.25 19.97Q162.65 18.54 162.89 16.80L162.89 16.80Q163.07 15.48 163.70 14.33Q164.33 13.19 165.28 12.32Q166.22 11.45 167.38 10.96Q168.54 10.46 169.78 10.46L169.78 10.46Q171.24 10.46 172.40 11.15Q173.56 11.83 174.20 12.98L174.20 12.98L173.53 13.32Q172.91 12.29 171.87 11.74Q170.83 11.18 169.68 11.18L169.68 11.18Q168.19 11.18 166.89 11.95Q165.59 12.72 164.71 14.00Q163.82 15.28 163.61 16.80L163.61 16.80Q163.39 18.35 163.93 19.61Q164.46 20.88 165.55 21.64Q166.64 22.39 168.10 22.39L168.10 22.39Q169.36 22.39 170.54 21.79Q171.72 21.19 172.55 20.26Z"/></svg>