<svg xmlns="http://www.w3.org/2000/svg" xmlns:xlink="http://www.w3.org/1999/xlink" width="121.91999999999999" height="38.808"><path fill="black" d="M13.58 10.61L13.58 26.78L11.64 26.78L11.64 19.46L3.79 19.46L3.79 26.78L1.85 26.78L1.85 10.61L3.79 10.61L3.79 17.71L11.64 17.71L11.64 10.61L13.58 10.61ZM19.18 14.62L19.18 26.78L17.28 26.78L17.28 14.62L19.18 14.62ZM19.10 9.91Q19.46 10.27 19.46 10.80Q19.46 11.33 19.10 11.68Q18.74 12.02 18.22 12.02Q17.69 12.02 17.34 11.68Q16.99 11.33 16.99 10.80Q16.99 10.27 17.34 9.91Q17.69 9.55 18.22 9.55Q18.74 9.55 19.10 9.91ZM32.38 18.41L32.38 26.78L30.48 26.78L30.48 18.91Q30.48 17.57 29.80 16.86Q29.11 16.15 28.01 16.15L28.01 16.15Q26.64 16.15 25.64 17.21Q24.65 18.26 24.65 20.14L24.65 20.14L24.65 26.78L22.78 26.78L22.78 14.62L24.65 14.62L24.65 16.73Q25.73 14.45 28.49 14.45L28.49 14.45Q30.26 14.45 31.32 15.53Q32.38 16.61 32.38 18.41L32.38 18.41ZM36.98 20.83L36.98 20.83Q36.98 22.80 37.94 24.02Q38.90 25.25 40.37 25.25L40.37 25.25Q41.86 25.25 42.90 24.14Q43.94 23.04 43.94 20.62L43.94 20.62Q43.94 18.31 42.86 17.23Q41.78 16.15 40.49 16.15L40.49 16.15Q38.98 16.15 37.98 17.36Q36.98 18.58 36.98 20.83ZM45.84 9.82L45.84 26.78L43.94 26.78L43.94 24.98Q42.65 26.98 40.20 26.98L40.20 26.98Q37.78 26.98 36.40 25.18Q35.02 23.38 35.02 20.81L35.02 20.81Q35.02 17.95 36.48 16.19Q37.94 14.42 40.25 14.42L40.25 14.42Q42.62 14.42 43.94 16.46L43.94 16.46L43.94 9.82L45.84 9.82ZM64.22 22.49L64.22 22.49Q64.22 24.62 62.76 25.79Q61.30 26.95 58.99 26.95L58.99 26.95Q56.45 26.95 54.67 25.92L54.67 25.92L54.67 23.83Q56.42 25.15 58.94 25.15L58.94 25.15Q60.46 25.15 61.32 24.48Q62.18 23.81 62.18 22.54L62.18 22.54Q62.18 22.01 61.98 21.59Q61.78 21.17 61.31 20.82Q60.84 20.47 60.42 20.24Q60 20.02 59.28 19.68L59.28 19.68Q59.14 19.61 58.85 19.49L58.85 19.49Q57.82 19.03 57.28 18.74Q56.74 18.46 56.00 17.89Q55.27 17.33 54.94 16.58Q54.60 15.84 54.60 14.86L54.60 14.86Q54.60 12.79 56.08 11.63Q57.55 10.46 59.78 10.46L59.78 10.46Q61.87 10.46 63.34 11.21L63.34 11.21L63.34 13.25Q61.87 12.29 59.83 12.29L59.83 12.29Q58.37 12.29 57.50 12.97Q56.64 13.66 56.64 14.76L56.64 14.76Q56.64 15.34 56.87 15.79Q57.10 16.25 57.67 16.64Q58.25 17.04 58.66 17.24Q59.06 17.45 59.93 17.83L59.93 17.83Q60.74 18.19 61.18 18.40Q61.61 18.60 62.29 19.04Q62.98 19.49 63.32 19.91Q63.67 20.33 63.95 21.01Q64.22 21.70 64.22 22.49ZM69.34 14.62L69.34 26.78L67.44 26.78L67.44 14.62L69.34 14.62ZM69.26 9.91Q69.62 10.27 69.62 10.80Q69.62 11.33 69.26 11.68Q68.90 12.02 68.38 12.02Q67.85 12.02 67.50 11.68Q67.15 11.33 67.15 10.80Q67.15 10.27 67.50 9.91Q67.85 9.55 68.38 9.55Q68.90 9.55 69.26 9.91ZM74.93 9.82L74.93 26.78L73.03 26.78L73.03 9.82L74.93 9.82ZM80.52 14.62L80.52 26.78L78.62 26.78L78.62 14.62L80.52 14.62ZM80.45 9.91Q80.81 10.27 80.81 10.80Q80.81 11.33 80.45 11.68Q80.09 12.02 79.56 12.02Q79.03 12.02 78.68 11.68Q78.34 11.33 78.34 10.80Q78.34 10.27 78.68 9.91Q79.03 9.55 79.56 9.55Q80.09 9.55 80.45 9.91ZM93.94 14.62L93.94 25.80Q93.94 28.58 92.40 29.99Q90.86 31.39 88.44 31.39L88.44 31.39Q86.23 31.39 84.67 30.65L84.67 30.65L84.67 28.75Q86.21 29.64 88.27 29.64L88.27 29.64Q90.02 29.64 91.03 28.70Q92.04 27.77 92.04 25.78L92.04 25.78L92.04 24.41Q90.84 26.47 88.46 26.47L88.46 26.47Q86.38 26.47 84.90 24.94Q83.42 23.40 83.42 20.66L83.42 20.66Q83.42 17.95 84.79 16.20Q86.16 14.45 88.37 14.45L88.37 14.45Q90.86 14.45 92.04 16.63L92.04 16.63L92.04 14.62L93.94 14.62ZM85.39 20.62L85.39 20.62Q85.39 22.66 86.40 23.72Q87.41 24.79 88.68 24.79L88.68 24.79Q90 24.79 91.02 23.77Q92.04 22.75 92.04 20.74L92.04 20.74Q92.04 18.41 91.06 17.28Q90.07 16.15 88.78 16.15L88.78 16.15Q87.22 16.15 86.30 17.39Q85.39 18.62 85.39 20.62ZM106.75 14.62L106.75 26.78L104.86 26.78L104.86 24.67Q103.90 26.93 101.04 26.93L101.04 26.93Q99.24 26.93 98.20 25.86Q97.15 24.79 97.15 22.99L97.15 22.99L97.15 14.62L99.05 14.62L99.05 22.51Q99.05 23.83 99.72 24.53Q100.39 25.22 101.54 25.22L101.54 25.22Q103.06 25.22 103.96 24.17Q104.86 23.11 104.86 21.31L104.86 21.31L104.86 14.62L106.75 14.62ZM112.13 20.14L112.13 26.78L110.23 26.78L110.26 14.62L112.13 14.62L112.13 16.75Q113.09 14.50 115.44 14.50L115.44 14.50Q115.87 14.50 116.11 14.54L116.11 14.54L116.11 16.42Q115.61 16.25 115.08 16.25L115.08 16.25Q113.81 16.25 112.97 17.42Q112.13 18.60 112.13 20.14L112.13 20.14ZM120.07 14.62L120.07 26.78L118.18 26.78L118.18 14.62L120.07 14.62ZM120.00 9.91Q120.36 10.27 120.36 10.80Q120.36 11.33 120.00 11.68Q119.64 12.02 119.11 12.02Q118.58 12.02 118.24 11.68Q117.89 11.33 117.89 10.80Q117.89 10.27 118.24 9.91Q118.58 9.55 119.11 9.55Q119.64 9.55 120.00 9.91Z"/></svg>