<svg xmlns="http://www.w3.org/2000/svg" xmlns:xlink="http://www.w3.org/1999/xlink" width="355.488" height="48.864000000000004"><path fill="black" d="M15.91 9.74L15.91 26.88L13.39 26.88L4.22 12.65L4.13 12.65Q4.18 13.49 4.25 14.74Q4.32 15.98 4.32 17.30L4.32 17.30L4.32 26.88L2.33 26.88L2.33 9.74L4.82 9.74L13.97 23.93L14.06 23.93Q14.04 23.54 14.00 22.78Q13.97 22.01 13.93 21.10Q13.90 20.18 13.90 19.42L13.90 19.42L13.90 9.74L15.91 9.74ZM31.46 20.42L31.46 20.42Q31.46 23.62 29.84 25.37Q28.22 27.12 25.46 27.12L25.46 27.12Q23.76 27.12 22.43 26.34Q21.10 25.56 20.33 24.06Q19.56 22.56 19.56 20.42L19.56 20.42Q19.56 17.23 21.17 15.50Q22.78 13.78 25.54 13.78L25.54 13.78Q27.29 13.78 28.62 14.56Q29.95 15.34 30.71 16.81Q31.46 18.29 31.46 20.42ZM21.74 20.42L21.74 20.42Q21.74 22.70 22.64 24.04Q23.54 25.37 25.51 25.37L25.51 25.37Q27.46 25.37 28.37 24.04Q29.28 22.70 29.28 20.42L29.28 20.42Q29.28 18.14 28.37 16.85Q27.46 15.55 25.49 15.55L25.49 15.55Q23.52 15.55 22.63 16.85Q21.74 18.14 21.74 20.42ZM39.10 25.39L39.10 25.39Q39.58 25.39 40.08 25.31Q40.58 25.22 40.90 25.13L40.90 25.13L40.90 26.74Q40.56 26.90 39.94 27.01Q39.31 27.12 38.74 27.12L38.74 27.12Q37.73 27.12 36.88 26.77Q36.02 26.42 35.50 25.56Q34.97 24.70 34.97 23.14L34.97 23.14L34.97 15.65L33.14 15.65L33.14 14.64L34.99 13.80L35.83 11.06L37.08 11.06L37.08 14.02L40.80 14.02L40.80 15.65L37.08 15.65L37.08 23.09Q37.08 24.26 37.64 24.83Q38.21 25.39 39.10 25.39ZM54.65 20.42L54.65 20.42Q54.65 23.62 53.03 25.37Q51.41 27.12 48.65 27.12L48.65 27.12Q46.94 27.12 45.61 26.34Q44.28 25.56 43.51 24.06Q42.74 22.56 42.74 20.42L42.74 20.42Q42.74 17.23 44.35 15.50Q45.96 13.78 48.72 13.78L48.72 13.78Q50.47 13.78 51.80 14.56Q53.14 15.34 53.89 16.81Q54.65 18.29 54.65 20.42ZM44.93 20.42L44.93 20.42Q44.93 22.70 45.83 24.04Q46.73 25.37 48.70 25.37L48.70 25.37Q50.64 25.37 51.55 24.04Q52.46 22.70 52.46 20.42L52.46 20.42Q52.46 18.14 51.55 16.85Q50.64 15.55 48.67 15.55L48.67 15.55Q46.70 15.55 45.82 16.85Q44.93 18.14 44.93 20.42ZM74.23 22.30L74.23 22.30Q74.23 24.58 72.58 25.85Q70.92 27.12 68.11 27.12L68.11 27.12Q66.67 27.12 65.45 26.90Q64.22 26.69 63.41 26.30L63.41 26.30L63.41 24.24Q64.27 24.62 65.56 24.94Q66.84 25.25 68.21 25.25L68.21 25.25Q70.13 25.25 71.10 24.50Q72.07 23.76 72.07 22.49L72.07 22.49Q72.07 21.65 71.71 21.07Q71.35 20.50 70.48 20.00Q69.60 19.51 68.04 18.96L68.04 18.96Q66.94 18.55 66.11 18.08Q65.28 17.62 64.73 17.02Q64.18 16.42 63.90 15.65Q63.62 14.88 63.62 13.87L63.62 13.87Q63.62 12.50 64.32 11.53Q65.02 10.56 66.25 10.03Q67.49 9.50 69.10 9.50L69.10 9.50Q70.51 9.50 71.69 9.77Q72.86 10.03 73.82 10.46L73.82 10.46L73.15 12.31Q72.26 11.93 71.22 11.66Q70.18 11.40 69.05 11.40L69.05 11.40Q67.44 11.40 66.62 12.08Q65.81 12.77 65.81 13.90L65.81 13.90Q65.81 14.76 66.17 15.34Q66.53 15.91 67.34 16.37Q68.16 16.82 69.55 17.35L69.55 17.35Q71.06 17.90 72.11 18.54Q73.15 19.18 73.69 20.06Q74.23 20.95 74.23 22.30ZM82.27 13.80L82.27 13.80Q84.62 13.80 85.75 14.83Q86.88 15.86 86.88 18.12L86.88 18.12L86.88 26.88L85.34 26.88L84.94 25.06L84.84 25.06Q84 26.11 83.08 26.62Q82.15 27.12 80.52 27.12L80.52 27.12Q78.77 27.12 77.62 26.20Q76.46 25.27 76.46 23.30L76.46 23.30Q76.46 21.38 77.98 20.34Q79.49 19.30 82.63 19.20L82.63 19.20L84.82 19.13L84.82 18.36Q84.82 16.75 84.12 16.13Q83.42 15.50 82.15 15.50L82.15 15.50Q81.14 15.50 80.23 15.80Q79.32 16.10 78.53 16.49L78.53 16.49L77.88 14.90Q78.72 14.45 79.87 14.12Q81.02 13.80 82.27 13.80ZM84.79 20.59L82.90 20.66Q80.50 20.76 79.57 21.43Q78.65 22.10 78.65 23.33L78.65 23.33Q78.65 24.41 79.31 24.91Q79.97 25.42 81 25.42L81 25.42Q82.63 25.42 83.71 24.52Q84.79 23.62 84.79 21.74L84.79 21.74L84.79 20.59ZM97.06 13.78L97.06 13.78Q99.36 13.78 100.54 14.89Q101.71 16.01 101.71 18.50L101.71 18.50L101.71 26.88L99.62 26.88L99.62 18.65Q99.62 17.09 98.93 16.32Q98.23 15.55 96.74 15.55L96.74 15.55Q94.61 15.55 93.79 16.75Q92.98 17.95 92.98 20.21L92.98 20.21L92.98 26.88L90.86 26.88L90.86 14.02L92.57 14.02L92.88 15.77L93 15.77Q93.62 14.76 94.73 14.27Q95.83 13.78 97.06 13.78ZM114.07 23.33L114.07 23.33Q114.07 25.20 112.68 26.16Q111.29 27.12 108.94 27.12L108.94 27.12Q107.59 27.12 106.62 26.90Q105.65 26.69 104.90 26.30L104.90 26.30L104.90 24.38Q105.67 24.77 106.76 25.09Q107.86 25.42 108.98 25.42L108.98 25.42Q110.59 25.42 111.31 24.90Q112.03 24.38 112.03 23.52L112.03 23.52Q112.03 23.04 111.77 22.66Q111.50 22.27 110.82 21.89Q110.14 21.50 108.86 21.02L108.86 21.02Q107.62 20.54 106.73 20.06Q105.84 19.58 105.36 18.91Q104.88 18.24 104.88 17.18L104.88 17.18Q104.88 15.55 106.21 14.66Q107.54 13.78 109.70 13.78L109.70 13.78Q110.88 13.78 111.90 14.00Q112.92 14.23 113.81 14.64L113.81 14.64L113.09 16.32Q112.27 15.98 111.38 15.74Q110.50 15.50 109.56 15.50L109.56 15.50Q108.26 15.50 107.58 15.92Q106.90 16.34 106.90 17.06L106.90 17.06Q106.90 17.59 107.21 17.96Q107.52 18.34 108.25 18.68Q108.98 19.03 110.21 19.51L110.21 19.51Q111.43 19.97 112.30 20.45Q113.16 20.93 113.62 21.61Q114.07 22.30 114.07 23.33ZM121.30 31.44L121.30 31.44Q120.72 31.44 120.29 31.36Q119.86 31.27 119.52 31.13L119.52 31.13L119.52 29.30Q119.90 29.40 120.34 29.47Q120.77 29.54 121.25 29.54L121.25 29.54Q121.85 29.54 122.39 29.30Q122.93 29.06 123.26 28.46Q123.60 27.86 123.60 26.78L123.60 26.78L123.60 9.74L125.76 9.74L125.76 26.62Q125.76 28.27 125.21 29.34Q124.66 30.41 123.65 30.92Q122.64 31.44 121.30 31.44ZM134.86 13.80L134.86 13.80Q137.21 13.80 138.34 14.83Q139.46 15.86 139.46 18.12L139.46 18.12L139.46 26.88L137.93 26.88L137.52 25.06L137.42 25.06Q136.58 26.11 135.66 26.62Q134.74 27.12 133.10 27.12L133.10 27.12Q131.35 27.12 130.20 26.20Q129.05 25.27 129.05 23.30L129.05 23.30Q129.05 21.38 130.56 20.34Q132.07 19.30 135.22 19.20L135.22 19.20L137.40 19.13L137.40 18.36Q137.40 16.75 136.70 16.13Q136.01 15.50 134.74 15.50L134.74 15.50Q133.73 15.50 132.82 15.80Q131.90 16.10 131.11 16.49L131.11 16.49L130.46 14.90Q131.30 14.45 132.46 14.12Q133.61 13.80 134.86 13.80ZM137.38 20.59L135.48 20.66Q133.08 20.76 132.16 21.43Q131.23 22.10 131.23 23.33L131.23 23.33Q131.23 24.41 131.89 24.91Q132.55 25.42 133.58 25.42L133.58 25.42Q135.22 25.42 136.30 24.52Q137.38 23.62 137.38 21.74L137.38 21.74L137.38 20.59ZM148.70 26.88L146.28 26.88L141.41 14.02L143.66 14.02L146.40 21.60Q146.59 22.13 146.81 22.78Q147.02 23.42 147.19 24.01Q147.36 24.60 147.43 25.01L147.43 25.01L147.53 25.01Q147.62 24.60 147.80 24Q147.98 23.40 148.21 22.75Q148.44 22.10 148.61 21.60L148.61 21.60L151.34 14.02L153.60 14.02L148.70 26.88ZM160.51 13.80L160.51 13.80Q162.86 13.80 163.99 14.83Q165.12 15.86 165.12 18.12L165.12 18.12L165.12 26.88L163.58 26.88L163.18 25.06L163.08 25.06Q162.24 26.11 161.32 26.62Q160.39 27.12 158.76 27.12L158.76 27.12Q157.01 27.12 155.86 26.20Q154.70 25.27 154.70 23.30L154.70 23.30Q154.70 21.38 156.22 20.34Q157.73 19.30 160.87 19.20L160.87 19.20L163.06 19.13L163.06 18.36Q163.06 16.75 162.36 16.13Q161.66 15.50 160.39 15.50L160.39 15.50Q159.38 15.50 158.47 15.80Q157.56 16.10 156.77 16.49L156.77 16.49L156.12 14.90Q156.96 14.45 158.11 14.12Q159.26 13.80 160.51 13.80ZM163.03 20.59L161.14 20.66Q158.74 20.76 157.81 21.43Q156.89 22.10 156.89 23.33L156.89 23.33Q156.89 24.41 157.55 24.91Q158.21 25.42 159.24 25.42L159.24 25.42Q160.87 25.42 161.95 24.52Q163.03 23.62 163.03 21.74L163.03 21.74L163.03 20.59ZM175.30 13.78L175.30 13.78Q177.60 13.78 178.78 14.89Q179.95 16.01 179.95 18.50L179.95 18.50L179.95 26.88L177.86 26.88L177.86 18.65Q177.86 17.09 177.17 16.32Q176.47 15.55 174.98 15.55L174.98 15.55Q172.85 15.55 172.03 16.75Q171.22 17.95 171.22 20.21L171.22 20.21L171.22 26.88L169.10 26.88L169.10 14.02L170.81 14.02L171.12 15.77L171.24 15.77Q171.86 14.76 172.97 14.27Q174.07 13.78 175.30 13.78ZM188.90 13.78L188.90 13.78Q190.56 13.78 191.75 14.50Q192.94 15.22 193.57 16.52Q194.21 17.83 194.21 19.58L194.21 19.58L194.21 20.86L185.40 20.86Q185.45 23.04 186.52 24.18Q187.58 25.32 189.50 25.32L189.50 25.32Q190.73 25.32 191.68 25.09Q192.62 24.86 193.63 24.43L193.63 24.43L193.63 26.28Q192.65 26.71 191.69 26.92Q190.73 27.12 189.41 27.12L189.41 27.12Q187.58 27.12 186.18 26.38Q184.78 25.63 184.00 24.16Q183.22 22.68 183.22 20.54L183.22 20.54Q183.22 18.43 183.92 16.92Q184.63 15.41 185.92 14.59Q187.20 13.78 188.90 13.78ZM188.88 15.50L188.88 15.50Q187.37 15.50 186.49 16.48Q185.62 17.45 185.45 19.18L185.45 19.18L192.00 19.18Q191.98 17.54 191.23 16.52Q190.49 15.50 188.88 15.50ZM205.85 23.33L205.85 23.33Q205.85 25.20 204.46 26.16Q203.06 27.12 200.71 27.12L200.71 27.12Q199.37 27.12 198.40 26.90Q197.42 26.69 196.68 26.30L196.68 26.30L196.68 24.38Q197.45 24.77 198.54 25.09Q199.63 25.42 200.76 25.42L200.76 25.42Q202.37 25.42 203.09 24.90Q203.81 24.38 203.81 23.52L203.81 23.52Q203.81 23.04 203.54 22.66Q203.28 22.27 202.60 21.89Q201.91 21.50 200.64 21.02L200.64 21.02Q199.39 20.54 198.50 20.06Q197.62 19.58 197.14 18.91Q196.66 18.24 196.66 17.18L196.66 17.18Q196.66 15.55 197.99 14.66Q199.32 13.78 201.48 13.78L201.48 13.78Q202.66 13.78 203.68 14.00Q204.70 14.23 205.58 14.64L205.58 14.64L204.86 16.32Q204.05 15.98 203.16 15.74Q202.27 15.50 201.34 15.50L201.34 15.50Q200.04 15.50 199.36 15.92Q198.67 16.34 198.67 17.06L198.67 17.06Q198.67 17.59 198.98 17.96Q199.30 18.34 200.03 18.68Q200.76 19.03 201.98 19.51L201.98 19.51Q203.21 19.97 204.07 20.45Q204.94 20.93 205.39 21.61Q205.85 22.30 205.85 23.33ZM213.94 13.78L213.94 13.78Q215.59 13.78 216.78 14.50Q217.97 15.22 218.60 16.52Q219.24 17.83 219.24 19.58L219.24 19.58L219.24 20.86L210.43 20.86Q210.48 23.04 211.55 24.18Q212.62 25.32 214.54 25.32L214.54 25.32Q215.76 25.32 216.71 25.09Q217.66 24.86 218.66 24.43L218.66 24.43L218.66 26.28Q217.68 26.71 216.72 26.92Q215.76 27.12 214.44 27.12L214.44 27.12Q212.62 27.12 211.21 26.38Q209.81 25.63 209.03 24.16Q208.25 22.68 208.25 20.54L208.25 20.54Q208.25 18.43 208.96 16.92Q209.66 15.41 210.95 14.59Q212.23 13.78 213.94 13.78ZM213.91 15.50L213.91 15.50Q212.40 15.50 211.52 16.48Q210.65 17.45 210.48 19.18L210.48 19.18L217.03 19.18Q217.01 17.54 216.26 16.52Q215.52 15.50 213.91 15.50ZM239.95 21.10L239.95 22.99L237.46 22.99L237.46 26.88L235.42 26.88L235.42 22.99L227.21 22.99L227.21 21.19L235.27 9.65L237.46 9.65L237.46 21.10L239.95 21.10ZM235.42 21.10L235.42 15.70Q235.42 14.86 235.44 14.21Q235.46 13.56 235.49 13.00Q235.51 12.43 235.54 11.90L235.54 11.90L235.44 11.90Q235.25 12.36 234.96 12.89Q234.67 13.42 234.41 13.78L234.41 13.78L229.27 21.10L235.42 21.10ZM252.98 18.29L252.98 18.29Q252.98 21.05 252.41 23.03Q251.83 25.01 250.58 26.06Q249.34 27.12 247.27 27.12L247.27 27.12Q244.37 27.12 242.99 24.78Q241.61 22.44 241.61 18.29L241.61 18.29Q241.61 15.50 242.17 13.54Q242.74 11.57 243.98 10.52Q245.23 9.48 247.27 9.48L247.27 9.48Q250.15 9.48 251.57 11.80Q252.98 14.11 252.98 18.29ZM243.72 18.29L243.72 18.29Q243.72 21.82 244.52 23.57Q245.33 25.32 247.27 25.32L247.27 25.32Q249.19 25.32 250.02 23.58Q250.85 21.84 250.85 18.29L250.85 18.29Q250.85 14.78 250.02 13.03Q249.19 11.28 247.27 11.28L247.27 11.28Q245.33 11.28 244.52 13.03Q243.72 14.78 243.72 18.29ZM266.71 18.29L266.71 18.29Q266.71 21.05 266.14 23.03Q265.56 25.01 264.31 26.06Q263.06 27.12 261.00 27.12L261.00 27.12Q258.10 27.12 256.72 24.78Q255.34 22.44 255.34 18.29L255.34 18.29Q255.34 15.50 255.90 13.54Q256.46 11.57 257.71 10.52Q258.96 9.48 261.00 9.48L261.00 9.48Q263.88 9.48 265.30 11.80Q266.71 14.11 266.71 18.29ZM257.45 18.29L257.45 18.29Q257.45 21.82 258.25 23.57Q259.06 25.32 261.00 25.32L261.00 25.32Q262.92 25.32 263.75 23.58Q264.58 21.84 264.58 18.29L264.58 18.29Q264.58 14.78 263.75 13.03Q262.92 11.28 261.00 11.28L261.00 11.28Q259.06 11.28 258.25 13.03Q257.45 14.78 257.45 18.29ZM282.36 13.78L282.36 13.78Q284.66 13.78 285.84 14.89Q287.02 16.01 287.02 18.50L287.02 18.50L287.02 26.88L284.93 26.88L284.93 18.65Q284.93 17.09 284.23 16.32Q283.54 15.55 282.05 15.55L282.05 15.55Q279.91 15.55 279.10 16.75Q278.28 17.95 278.28 20.21L278.28 20.21L278.28 26.88L276.17 26.88L276.17 14.02L277.87 14.02L278.18 15.77L278.30 15.77Q278.93 14.76 280.03 14.27Q281.14 13.78 282.36 13.78ZM302.18 20.42L302.18 20.42Q302.18 23.62 300.56 25.37Q298.94 27.12 296.18 27.12L296.18 27.12Q294.48 27.12 293.15 26.34Q291.82 25.56 291.05 24.06Q290.28 22.56 290.28 20.42L290.28 20.42Q290.28 17.23 291.89 15.50Q293.50 13.78 296.26 13.78L296.26 13.78Q298.01 13.78 299.34 14.56Q300.67 15.34 301.43 16.81Q302.18 18.29 302.18 20.42ZM292.46 20.42L292.46 20.42Q292.46 22.70 293.36 24.04Q294.26 25.37 296.23 25.37L296.23 25.37Q298.18 25.37 299.09 24.04Q300.00 22.70 300.00 20.42L300.00 20.42Q300.00 18.14 299.09 16.85Q298.18 15.55 296.21 15.55L296.21 15.55Q294.24 15.55 293.35 16.85Q292.46 18.14 292.46 20.42ZM311.52 13.78L311.52 13.78Q311.88 13.78 312.30 13.81Q312.72 13.85 313.03 13.92L313.03 13.92L312.77 15.86Q312.46 15.79 312.08 15.74Q311.71 15.70 311.38 15.70L311.38 15.70Q310.39 15.70 309.53 16.24Q308.66 16.78 308.15 17.75Q307.63 18.72 307.63 20.02L307.63 20.02L307.63 26.88L305.52 26.88L305.52 14.02L307.25 14.02L307.49 16.37L307.58 16.37Q308.21 15.31 309.19 14.54Q310.18 13.78 311.52 13.78ZM329.54 13.78L329.54 13.78Q331.73 13.78 332.81 14.89Q333.89 16.01 333.89 18.50L333.89 18.50L333.89 26.88L331.80 26.88L331.80 18.60Q331.80 15.55 329.18 15.55L329.18 15.55Q327.31 15.55 326.51 16.63Q325.70 17.71 325.70 19.78L325.70 19.78L325.70 26.88L323.62 26.88L323.62 18.60Q323.62 15.55 320.98 15.55L320.98 15.55Q319.03 15.55 318.29 16.75Q317.54 17.95 317.54 20.21L317.54 20.21L317.54 26.88L315.43 26.88L315.43 14.02L317.14 14.02L317.45 15.77L317.57 15.77Q318.17 14.76 319.19 14.27Q320.21 13.78 321.36 13.78L321.36 13.78Q322.85 13.78 323.84 14.30Q324.84 14.83 325.30 15.94L325.30 15.94L325.42 15.94Q326.06 14.83 327.18 14.30Q328.30 13.78 329.54 13.78ZM342.74 13.80L342.74 13.80Q345.10 13.80 346.22 14.83Q347.35 15.86 347.35 18.12L347.35 18.12L347.35 26.88L345.82 26.88L345.41 25.06L345.31 25.06Q344.47 26.11 343.55 26.62Q342.62 27.12 340.99 27.12L340.99 27.12Q339.24 27.12 338.09 26.20Q336.94 25.27 336.94 23.30L336.94 23.30Q336.94 21.38 338.45 20.34Q339.96 19.30 343.10 19.20L343.10 19.20L345.29 19.13L345.29 18.36Q345.29 16.75 344.59 16.13Q343.90 15.50 342.62 15.50L342.62 15.50Q341.62 15.50 340.70 15.80Q339.79 16.10 339 16.49L339 16.49L338.35 14.90Q339.19 14.45 340.34 14.12Q341.50 13.80 342.74 13.80ZM345.26 20.59L343.37 20.66Q340.97 20.76 340.04 21.43Q339.12 22.10 339.12 23.33L339.12 23.33Q339.12 24.41 339.78 24.91Q340.44 25.42 341.47 25.42L341.47 25.42Q343.10 25.42 344.18 24.52Q345.26 23.62 345.26 21.74L345.26 21.74L345.26 20.59ZM353.45 8.64L353.45 26.88L351.34 26.88L351.34 8.64L353.45 8.64Z"/></svg>