<svg xmlns="http://www.w3.org/2000/svg" xmlns:xlink="http://www.w3.org/1999/xlink" width="230.832" height="33.192"><path fill="black" d="M14.78 9.18Q15.48 10.15 15.82 11.23Q16.15 12.31 16.15 13.80Q16.15 15.29 15.64 17.11Q15.12 18.94 14.10 20.60Q13.08 22.27 11.28 23.33Q9.48 24.38 7.18 24.38L7.18 24.38Q4.37 24.38 2.76 22.49Q1.15 20.59 1.15 17.71Q1.15 14.83 2.24 12.44Q3.34 10.06 5.36 8.56Q7.39 7.06 9.89 7.06L9.89 7.06Q11.57 7.06 12.83 7.63Q14.09 8.21 14.78 9.18ZM6.74 22.22L6.74 22.22Q7.18 22.56 8.00 22.56Q8.83 22.56 9.56 21.59Q10.30 20.62 10.70 19.08L10.70 19.08Q11.47 16.06 11.47 12.82L11.47 12.82Q11.47 8.88 9.55 8.88L9.55 8.88Q8.64 8.88 7.91 9.73Q7.18 10.58 6.74 11.95L6.74 11.95Q5.86 14.74 5.86 17.93L5.86 17.93Q5.86 21.50 6.74 22.22ZM23.40 22.75Q22.63 23.42 21.38 23.90Q20.14 24.38 19.12 24.38Q18.10 24.38 17.45 23.80Q16.80 23.21 16.80 22.10Q16.80 21 18.01 15.95Q19.22 10.90 19.22 8.45L19.22 8.45Q19.22 7.92 19.08 7.10L19.08 7.10Q21.34 6.48 23.45 6.48L23.45 6.48Q23.66 6.86 23.66 7.73L23.66 7.73Q23.66 9.36 22.45 14.84Q21.24 20.33 21.24 21.17Q21.24 22.01 21.53 22.01L21.53 22.01Q21.77 22.01 22.56 21.70L22.56 21.70L22.82 21.58L23.40 22.75ZM23.81 19.75L23.81 19.75Q23.81 16.78 25.62 15.12Q27.43 13.46 30.10 13.46L30.10 13.46Q31.94 13.46 33.06 14.27Q34.18 15.07 34.18 16.42L34.18 16.42Q34.18 17.40 33.58 18.17Q32.98 18.94 32.11 19.34L32.11 19.34Q30.29 20.16 28.94 20.33L28.94 20.33L28.34 20.40Q28.61 21.98 29.93 21.98L29.93 21.98Q30.50 21.98 31.20 21.73Q31.90 21.48 32.30 21.22L32.30 21.22L32.71 20.98L33.48 22.01Q33.48 22.01 33.22 22.27L33.22 22.27Q33.07 22.42 32.53 22.84Q31.99 23.26 31.40 23.57Q30.82 23.88 29.90 24.13Q28.99 24.38 28.08 24.38L28.08 24.38Q26.04 24.38 24.92 23.20Q23.81 22.01 23.81 19.75ZM28.25 18.82Q28.94 18.72 29.64 17.68Q30.34 16.63 30.34 15.92Q30.34 15.22 29.93 15.22L29.93 15.22Q29.33 15.22 28.82 16.15Q28.32 17.09 28.25 18.82L28.25 18.82ZM38.30 24.38L38.30 24.38Q36.43 24.38 35.35 23.20Q34.27 22.01 34.27 19.85L34.27 19.85Q34.27 17.21 35.83 15.37Q37.39 13.54 39.94 13.54L39.94 13.54L41.02 13.63Q41.59 13.46 42.10 13.46L42.10 13.46Q43.30 13.46 43.81 14.28Q44.33 15.10 44.40 16.61L44.40 16.61Q45.41 16.56 46.32 16.30L46.32 16.30L46.66 16.20Q46.82 16.37 46.90 17.21L46.90 17.21L46.92 17.47Q45.84 18.02 44.28 18.34L44.28 18.34Q43.75 20.88 42.19 22.63Q40.63 24.38 38.30 24.38ZM38.78 19.75L38.78 19.75Q38.78 21.98 39.91 21.98L39.91 21.98Q40.70 21.98 41.53 20.98Q42.36 19.97 42.67 18.53L42.67 18.53Q40.22 18.53 40.22 16.18L40.22 16.18Q40.22 15.77 40.30 15.34L40.30 15.34Q40.06 15.34 39.94 15.41L39.94 15.41Q39.53 15.84 39.16 17.15Q38.78 18.46 38.78 19.75ZM60.65 19.70L60.65 19.70Q60.65 21.70 58.74 23.04Q56.83 24.38 54.31 24.38L54.31 24.38Q52.34 24.38 50.99 23.54Q49.63 22.70 49.63 21.94L49.63 21.94Q50.02 21 51.10 19.92Q52.18 18.84 53.09 18.79L53.09 18.79Q53.69 19.06 54.20 20.10Q54.72 21.14 55.03 22.51L55.03 22.51Q56.33 22.46 56.33 21.05L56.33 21.05Q56.33 20.11 55.62 18.76Q54.91 17.40 54.07 16.22Q53.23 15.05 52.52 13.61Q51.82 12.17 51.82 11.09L51.82 11.09Q51.82 9.31 53.45 8.18Q55.08 7.06 57.08 7.06Q59.09 7.06 60.20 7.92Q61.32 8.78 61.32 9.91L61.32 9.91Q61.32 10.85 60.94 11.41Q60.55 11.98 60.32 12.28Q60.10 12.58 59.71 12.91L59.71 12.91Q58.99 13.54 58.61 13.82L58.61 13.82L58.25 14.09Q59.66 15.84 60.38 18.17L60.38 18.17Q60.65 19.01 60.65 19.70ZM59.40 10.08L59.40 10.08Q59.40 8.95 57.96 8.95L57.96 8.95Q57.12 8.95 56.60 9.31Q56.09 9.67 56.09 10.21Q56.09 10.75 56.53 11.52Q56.98 12.29 57.24 12.60L57.24 12.60Q57.82 12.31 58.61 11.54Q59.40 10.78 59.40 10.08ZM68.26 15.07L68.26 15.07Q67.51 15.07 66.98 16.39Q66.46 17.71 66.46 19.06L66.46 19.06Q66.46 22.01 68.16 22.01L68.16 22.01Q69.24 22.01 70.61 20.98L70.61 20.98L71.38 22.03Q70.37 23.14 68.96 23.76Q67.56 24.38 66.17 24.38L66.17 24.38Q64.30 24.38 63.13 23.24Q61.97 22.10 61.97 19.80L61.97 19.80Q61.97 17.02 63.68 15.24Q65.40 13.46 68.18 13.46L68.18 13.46Q69.98 13.46 71.02 14.20Q72.05 14.93 72.05 16.04Q72.05 17.16 71.38 17.98L71.38 17.98Q70.58 17.98 69.66 17.68Q68.74 17.38 68.18 16.92L68.18 16.92L68.54 15.12Q68.40 15.07 68.26 15.07ZM72.84 24.24L72.84 24.24L72.65 24.24Q72.58 23.90 72.58 23.20Q72.58 22.49 73.16 19.52Q73.75 16.56 73.75 16.16Q73.75 15.77 73.54 15.35Q73.32 14.93 73.10 14.71L73.10 14.71L72.89 14.50L72.94 14.14Q74.38 13.68 77.71 13.68L77.71 13.68Q78.02 14.28 78.10 15.10L78.10 15.10Q79.56 13.46 80.69 13.46L80.69 13.46Q82.15 13.46 82.30 15.94L82.30 15.94Q82.25 15.98 82.18 16.09Q82.10 16.20 81.84 16.46Q81.58 16.73 81.29 16.94L81.29 16.94Q80.47 17.50 79.56 17.59L79.56 17.59Q79.54 17.59 79.24 17.06Q78.94 16.54 78.73 16.54Q78.53 16.54 77.98 16.97L77.98 16.97Q77.90 17.40 77.70 18.43Q77.50 19.46 77.38 20.14L77.38 20.14Q77.02 21.91 77.02 23.11L77.02 23.11L77.04 23.83Q75.98 24.24 72.84 24.24ZM87.53 15.08Q87.53 16.15 86.93 18.37Q86.33 20.59 86.33 21.26Q86.33 21.94 86.59 21.94Q86.86 21.94 87.55 21.70L87.55 21.70L87.77 21.60L88.20 22.80Q87.38 23.42 86.17 23.90Q84.96 24.38 83.98 24.38Q82.99 24.38 82.43 23.83Q81.86 23.28 81.86 22.24Q81.86 21.19 82.45 19.04Q83.04 16.90 83.04 16.32L83.04 16.32Q83.04 15.43 82.42 14.64L82.42 14.64L82.22 14.38L82.30 13.97Q83.54 13.58 87.14 13.58L87.14 13.58Q87.53 14.02 87.53 15.08ZM85.74 11.71Q84.65 11.71 84.04 11.14Q83.42 10.56 83.42 9.66Q83.42 8.76 84.18 8.15Q84.94 7.54 86.02 7.54Q87.10 7.54 87.70 8.04Q88.30 8.54 88.30 9.46Q88.30 10.37 87.56 11.04Q86.83 11.71 85.74 11.71ZM88.22 29.47L88.22 29.47Q88.03 29.16 88.03 28.15Q88.03 27.14 88.96 22.68Q89.88 18.22 89.88 17.09Q89.88 15.96 89.66 15.37Q89.45 14.78 89.23 14.62L89.23 14.62L89.02 14.45L89.06 14.09Q90.50 13.63 93.94 13.63L93.94 13.63Q94.13 13.99 94.25 14.57L94.25 14.57Q95.78 13.46 97.15 13.46Q98.52 13.46 99.40 14.51Q100.27 15.55 100.27 18.05Q100.27 20.54 98.96 22.46Q97.66 24.38 95.14 24.38L95.14 24.38Q94.03 24.38 92.98 23.95L92.98 23.95Q92.42 26.66 92.42 28.73L92.42 28.73Q90.70 29.35 88.22 29.47ZM94.03 22.37L94.03 22.37Q94.68 22.37 95.14 21.41L95.14 21.41Q95.95 19.73 95.95 17.33L95.95 17.33Q95.95 15.91 95.26 15.91L95.26 15.91Q94.90 15.91 94.30 16.18L94.30 16.18Q94.15 18.19 93.34 22.25L93.34 22.25Q93.74 22.37 94.03 22.37ZM109.49 15.60L109.49 15.60L107.42 15.43Q106.46 19.73 106.38 20.42Q106.30 21.12 106.30 21.56Q106.30 22.01 106.58 22.01L106.58 22.01Q106.92 22.01 107.86 21.58L107.86 21.58L108.43 22.73Q107.66 23.42 106.49 23.90Q105.31 24.38 104.22 24.38Q103.13 24.38 102.48 23.82Q101.83 23.26 101.83 22.22Q101.83 21.19 102.43 18.91Q103.03 16.63 103.22 15.53L103.22 15.53Q102.65 15.58 101.52 15.70L101.52 15.70Q101.42 15.19 101.42 14.75Q101.42 14.30 101.54 13.75L101.54 13.75L103.46 13.75Q103.49 13.44 103.49 11.66L103.49 11.66L103.44 10.68Q105.77 9.91 107.88 9.91L107.88 9.91Q108.05 10.30 108.05 11.24Q108.05 12.19 107.74 13.75L107.74 13.75L109.90 13.75Q109.90 14.74 109.49 15.60ZM116.02 24.26L116.02 24.26L115.42 24.26Q115.66 22.32 116.23 20.57L116.23 20.57Q117.34 17.33 121.51 11.11L121.51 11.11Q118.85 10.90 118.80 10.90L118.80 10.90Q116.76 10.90 115.32 11.66L115.32 11.66Q114.74 10.08 114.74 8.66L114.74 8.66L114.86 7.54Q116.04 7.08 118.01 7.08L118.01 7.08Q118.85 7.08 120.48 7.26Q122.11 7.44 123.25 7.44Q124.39 7.44 125.74 7.25L125.74 7.25L126.14 8.35L125.04 9.98Q122.69 13.75 121.43 17.65Q120.17 21.55 120.17 23.64L120.17 23.64Q119.88 23.86 118.49 24.06Q117.10 24.26 116.02 24.26ZM139.27 13.13L139.27 13.13Q139.27 16.56 138.02 19.30L138.02 19.30Q137.35 20.78 136.38 21.90Q135.41 23.02 133.94 23.70Q132.48 24.38 130.68 24.38L130.68 24.38Q128.28 24.38 126.97 22.58Q125.66 20.78 125.66 18L125.66 18Q125.66 13.01 128.02 10.03Q130.37 7.06 134.30 7.06L134.30 7.06Q136.73 7.06 138 8.83Q139.27 10.61 139.27 13.13ZM131.54 22.54L131.54 22.54Q132.43 22.54 133.18 20.59Q133.92 18.65 134.28 16.15Q134.64 13.66 134.64 11.50L134.64 11.50Q134.64 8.88 133.56 8.88L133.56 8.88Q132.79 8.88 132.14 9.91Q131.50 10.94 131.14 12.48L131.14 12.48Q130.37 15.79 130.37 19.16Q130.37 22.54 131.54 22.54ZM154.08 13.13L154.08 13.13Q154.08 16.56 152.83 19.30L152.83 19.30Q152.16 20.78 151.19 21.90Q150.22 23.02 148.75 23.70Q147.29 24.38 145.49 24.38L145.49 24.38Q143.09 24.38 141.78 22.58Q140.47 20.78 140.47 18L140.47 18Q140.47 13.01 142.82 10.03Q145.18 7.06 149.11 7.06L149.11 7.06Q151.54 7.06 152.81 8.83Q154.08 10.61 154.08 13.13ZM146.35 22.54L146.35 22.54Q147.24 22.54 147.98 20.59Q148.73 18.65 149.09 16.15Q149.45 13.66 149.45 11.50L149.45 11.50Q149.45 8.88 148.37 8.88L148.37 8.88Q147.60 8.88 146.95 9.91Q146.30 10.94 145.94 12.48L145.94 12.48Q145.18 15.79 145.18 19.16Q145.18 22.54 146.35 22.54ZM160.18 24.24L160.18 24.24L159.77 24.24Q159.77 22.75 160.45 19.73Q161.14 16.70 161.14 16.25Q161.14 15.79 160.92 15.36Q160.70 14.93 160.49 14.71L160.49 14.71L160.27 14.50L160.32 14.14Q161.74 13.68 165.26 13.68L165.26 13.68Q165.50 14.23 165.60 14.83L165.60 14.83Q167.78 13.49 169.27 13.49L169.27 13.49Q170.28 13.49 170.86 14.15Q171.43 14.81 171.43 15.73Q171.43 16.66 170.90 18.70Q170.38 20.74 170.38 21.35Q170.38 21.96 170.54 21.96L170.54 21.96L171.82 21.62L172.25 22.82Q171.48 23.40 170.24 23.89Q169.01 24.38 167.98 24.38L167.98 24.38Q165.94 24.38 165.94 22.27L165.94 22.27Q165.94 21.36 166.44 19.30Q166.94 17.23 166.94 16.72Q166.94 16.20 166.61 16.20L166.61 16.20Q166.18 16.20 165.46 16.68L165.46 16.68Q165.36 17.11 164.98 18.77L164.98 18.77Q164.21 22.25 164.21 23.78L164.21 23.78Q163.03 24.24 160.18 24.24ZM176.74 24.38L176.74 24.38Q174.86 24.38 173.78 23.20Q172.70 22.01 172.70 19.85L172.70 19.85Q172.70 17.21 174.26 15.37Q175.82 13.54 178.37 13.54L178.37 13.54L179.45 13.63Q180.02 13.46 180.53 13.46L180.53 13.46Q181.73 13.46 182.24 14.28Q182.76 15.10 182.83 16.61L182.83 16.61Q183.84 16.56 184.75 16.30L184.75 16.30L185.09 16.20Q185.26 16.37 185.33 17.21L185.33 17.21L185.35 17.47Q184.27 18.02 182.71 18.34L182.71 18.34Q182.18 20.88 180.62 22.63Q179.06 24.38 176.74 24.38ZM177.22 19.75L177.22 19.75Q177.22 21.98 178.34 21.98L178.34 21.98Q179.14 21.98 179.96 20.98Q180.79 19.97 181.10 18.53L181.10 18.53Q178.66 18.53 178.66 16.18L178.66 16.18Q178.66 15.77 178.73 15.34L178.73 15.34Q178.49 15.34 178.37 15.41L178.37 15.41Q177.96 15.84 177.59 17.15Q177.22 18.46 177.22 19.75ZM183.77 24.24L183.77 24.24L183.58 24.24Q183.50 23.90 183.50 23.20Q183.50 22.49 184.09 19.52Q184.68 16.56 184.68 16.16Q184.68 15.77 184.46 15.35Q184.25 14.93 184.03 14.71L184.03 14.71L183.82 14.50L183.86 14.14Q185.30 13.68 188.64 13.68L188.64 13.68Q188.95 14.28 189.02 15.10L189.02 15.10Q190.49 13.46 191.62 13.46L191.62 13.46Q193.08 13.46 193.22 15.94L193.22 15.94Q193.18 15.98 193.10 16.09Q193.03 16.20 192.77 16.46Q192.50 16.73 192.22 16.94L192.22 16.94Q191.40 17.50 190.49 17.59L190.49 17.59Q190.46 17.59 190.16 17.06Q189.86 16.54 189.66 16.54Q189.46 16.54 188.90 16.97L188.90 16.97Q188.83 17.40 188.63 18.43Q188.42 19.46 188.30 20.14L188.30 20.14Q187.94 21.91 187.94 23.11L187.94 23.11L187.97 23.83Q186.91 24.24 183.77 24.24ZM193.44 24.24L193.44 24.24L192.84 24.24Q192.84 22.54 193.50 19.48Q194.16 16.42 194.16 16.08Q194.16 15.74 193.94 15.34Q193.73 14.93 193.51 14.71L193.51 14.71L193.30 14.50L193.34 14.14Q194.74 13.68 198.26 13.68L198.26 13.68Q198.53 14.23 198.62 14.86L198.62 14.86Q200.71 13.49 202.15 13.49L202.15 13.49Q202.92 13.49 203.46 13.90Q204.00 14.30 204.22 14.98L204.22 14.98Q206.21 13.49 207.86 13.49L207.86 13.49Q208.94 13.49 209.56 14.15Q210.17 14.81 210.17 15.73Q210.17 16.66 209.64 18.72Q209.11 20.78 209.11 21.37Q209.11 21.96 209.30 21.96L209.30 21.96L210.55 21.65L210.98 22.85Q210.26 23.42 209.00 23.90Q207.74 24.38 206.74 24.38L206.74 24.38Q204.67 24.38 204.67 22.30L204.67 22.30Q204.67 21.41 205.18 19.27Q205.68 17.14 205.68 16.67Q205.68 16.20 205.32 16.20L205.32 16.20Q204.82 16.20 204.24 16.61L204.24 16.61Q204.17 16.97 203.86 18.34L203.86 18.34Q203.18 21.41 203.18 23.78L203.18 23.78Q202.08 24.19 198.89 24.19L198.89 24.19Q198.82 23.93 198.82 22.94Q198.82 21.96 199.34 19.46Q199.87 16.97 199.87 16.58Q199.87 16.20 199.54 16.20L199.54 16.20Q199.13 16.20 198.48 16.58L198.48 16.58Q198.41 16.99 198.02 18.67L198.02 18.67Q197.21 22.20 197.21 23.81L197.21 23.81Q196.08 24.24 193.44 24.24ZM223.39 14.38Q222.89 15.94 222.53 18.08Q222.17 20.23 222.17 21.08Q222.17 21.94 222.43 21.94L222.43 21.94L223.63 21.60L224.06 22.80Q223.30 23.40 222.11 23.89Q220.92 24.38 220.01 24.38L220.01 24.38Q218.45 24.38 218.04 23.04L218.04 23.04Q216.14 24.38 214.69 24.38Q213.24 24.38 212.45 23.33Q211.66 22.27 211.66 20.30L211.66 20.30Q211.66 17.59 213.05 15.53Q214.44 13.46 216.72 13.46L216.72 13.46Q217.97 13.46 219.26 14.16L219.26 14.16Q219.46 13.73 219.58 13.54L219.58 13.54Q221.30 13.54 223.39 14.38L223.39 14.38ZM216.17 20.00Q216.17 21.22 216.34 21.53Q216.50 21.84 216.96 21.84Q217.42 21.84 217.85 21.48L217.85 21.48Q217.94 18.70 218.76 15.65L218.76 15.65Q218.40 15.43 217.93 15.43Q217.46 15.43 217.09 15.96Q216.72 16.49 216.53 17.28L216.53 17.28Q216.17 18.79 216.17 20.00ZM230.90 22.75Q230.14 23.42 228.89 23.90Q227.64 24.38 226.62 24.38Q225.60 24.38 224.95 23.80Q224.30 23.21 224.30 22.10Q224.30 21 225.52 15.95Q226.73 10.90 226.73 8.45L226.73 8.45Q226.73 7.92 226.58 7.10L226.58 7.10Q228.84 6.48 230.95 6.48L230.95 6.48Q231.17 6.86 231.17 7.73L231.17 7.73Q231.17 9.36 229.96 14.84Q228.74 20.33 228.74 21.17Q228.74 22.01 229.03 22.01L229.03 22.01Q229.27 22.01 230.06 21.70L230.06 21.70L230.33 21.58L230.90 22.75Z"/></svg>