<svg xmlns="http://www.w3.org/2000/svg" xmlns:xlink="http://www.w3.org/1999/xlink" width="178.94399999999996" height="41.04"><path fill="black" d="M14.95 24.36L16.58 25.08L16.58 26.40L13.82 26.40L9.31 19.63L5.16 19.63L5.16 24.34L6.94 25.08L6.94 26.40L1.32 26.40L1.32 25.08L3.10 24.34L3.10 12.14L1.32 11.45L1.32 10.08L10.90 10.08Q13.22 10.08 14.42 11.29Q15.62 12.50 15.62 14.86L15.62 14.86Q15.62 16.94 14.63 18.13Q13.63 19.32 11.71 19.56L11.71 19.56L14.95 24.36ZM5.16 11.81L5.16 17.90L10.46 17.90Q12.07 17.90 12.77 17.20Q13.46 16.49 13.46 14.86L13.46 14.86Q13.46 13.25 12.80 12.53Q12.14 11.81 10.70 11.81L10.70 11.81L5.16 11.81ZM30.91 24.36L32.54 25.08L32.54 26.40L28.90 26.40L28.90 18.46Q28.90 17.04 28.21 16.40Q27.53 15.77 26.21 15.77L26.21 15.77Q25.37 15.77 24.56 15.98Q23.76 16.20 22.22 16.75L22.22 16.75L22.22 24.36L23.86 25.08L23.86 26.40L18.58 26.40L18.58 25.08L20.21 24.36L20.21 11.40L18.58 10.73L18.58 9.36L22.22 9.36L22.22 15.19Q23.45 14.57 24.56 14.29Q25.68 14.02 26.86 14.02L26.86 14.02Q28.37 14.02 29.26 14.48Q30.14 14.95 30.53 15.97Q30.91 16.99 30.91 18.72L30.91 18.72L30.91 24.36ZM40.46 14.02Q43.22 14.02 44.89 15.54Q46.56 17.06 46.56 20.38L46.56 20.38Q46.56 23.69 44.89 25.21Q43.22 26.74 40.46 26.74L40.46 26.74Q37.70 26.74 36.04 25.21Q34.37 23.69 34.37 20.38L34.37 20.38Q34.37 17.06 36.04 15.54Q37.70 14.02 40.46 14.02L40.46 14.02ZM40.46 15.74Q39.02 15.74 38.17 16.15Q37.32 16.56 36.90 17.57Q36.48 18.58 36.48 20.38L36.48 20.38Q36.48 22.18 36.90 23.18Q37.32 24.19 38.17 24.60Q39.02 25.01 40.46 25.01L40.46 25.01Q41.90 25.01 42.76 24.60Q43.61 24.19 44.03 23.18Q44.45 22.18 44.45 20.38L44.45 20.38Q44.45 18.58 44.03 17.57Q43.61 16.56 42.76 16.15Q41.90 15.74 40.46 15.74L40.46 15.74ZM60.05 24.36L61.68 25.08L61.68 26.40L58.82 26.40L58.20 24.67Q57.19 25.68 56.05 26.16Q54.91 26.64 53.42 26.64L53.42 26.64Q51.79 26.64 50.75 26.08Q49.70 25.51 49.18 24.16Q48.65 22.80 48.65 20.42L48.65 20.42Q48.65 17.04 49.94 15.53Q51.24 14.02 53.64 14.02L53.64 14.02Q54.74 14.02 55.80 14.33Q56.86 14.64 58.03 15.34L58.03 15.34L58.03 11.40L56.40 10.73L56.40 9.36L60.05 9.36L60.05 24.36ZM50.76 20.62Q50.76 22.27 51.08 23.21Q51.41 24.14 52.08 24.52Q52.75 24.89 53.83 24.89L53.83 24.89Q56.06 24.89 58.03 23.33L58.03 23.33L58.03 16.75Q56.52 16.20 55.74 15.98Q54.96 15.77 54.12 15.77L54.12 15.77Q52.32 15.77 51.54 16.96Q50.76 18.14 50.76 20.62L50.76 20.62ZM66.07 9.10Q66.82 9.10 67.26 9.53Q67.70 9.96 67.70 10.75L67.70 10.75Q67.70 11.54 67.26 11.98Q66.82 12.41 66.07 12.41L66.07 12.41Q65.33 12.41 64.88 11.98Q64.44 11.54 64.44 10.75L64.44 10.75Q64.44 9.96 64.88 9.53Q65.33 9.10 66.07 9.10L66.07 9.10ZM67.27 14.35L67.27 24.36L68.90 25.08L68.90 26.40L63.62 26.40L63.62 25.08L65.26 24.36L65.26 16.39L63.62 15.72L63.62 14.35L67.27 14.35ZM82.82 24.36L84.46 25.03L84.46 26.40L81.79 26.40L81.17 25.42Q79.78 26.11 78.59 26.42Q77.40 26.74 76.18 26.74L76.18 26.74Q74.64 26.74 73.76 26.27Q72.89 25.80 72.50 24.78Q72.12 23.76 72.12 22.03L72.12 22.03L72.12 16.39L70.49 15.67L70.49 14.35L74.14 14.35L74.14 22.30Q74.14 23.71 74.82 24.35Q75.50 24.98 76.82 24.98L76.82 24.98Q77.66 24.98 78.47 24.77Q79.27 24.55 80.81 24.00L80.81 24.00L80.81 16.34L79.18 15.67L79.18 14.35L82.82 14.35L82.82 24.36ZM106.75 24.36L108.38 25.08L108.38 26.40L104.74 26.40L104.74 18.46Q104.74 17.04 104.11 16.40Q103.49 15.77 102.26 15.77L102.26 15.77Q101.42 15.77 100.72 15.97Q100.01 16.18 98.40 16.75L98.40 16.75L98.40 24.36L100.03 25.08L100.03 26.40L96.38 26.40L96.38 18.46Q96.38 17.04 95.76 16.40Q95.14 15.77 93.91 15.77L93.91 15.77Q93.10 15.77 92.39 15.97Q91.68 16.18 90.05 16.75L90.05 16.75L90.05 24.36L91.68 25.08L91.68 26.40L86.40 26.40L86.40 25.08L88.03 24.36L88.03 16.39L86.40 15.72L86.40 14.35L89.06 14.35L89.69 15.34Q91.10 14.62 92.23 14.32Q93.36 14.02 94.56 14.02L94.56 14.02Q95.76 14.02 96.56 14.35Q97.37 14.69 97.90 15.41L97.90 15.41Q99.34 14.66 100.50 14.34Q101.66 14.02 102.91 14.02L102.91 14.02Q104.35 14.02 105.19 14.48Q106.03 14.95 106.39 15.97Q106.75 16.99 106.75 18.72L106.75 18.72L106.75 24.36ZM122.88 10.08L122.88 11.45L121.10 12.14L121.10 24.67L128.86 24.67L129.48 21.91L130.90 21.91L130.90 26.40L117.26 26.40L117.26 25.08L119.04 24.36L119.04 12.14L117.26 11.45L117.26 10.08L122.88 10.08ZM134.93 9.10Q135.67 9.10 136.12 9.53Q136.56 9.96 136.56 10.75L136.56 10.75Q136.56 11.54 136.12 11.98Q135.67 12.41 134.93 12.41L134.93 12.41Q134.18 12.41 133.74 11.98Q133.30 11.54 133.30 10.75L133.30 10.75Q133.30 9.96 133.74 9.53Q134.18 9.10 134.93 9.10L134.93 9.10ZM136.13 14.35L136.13 24.36L137.76 25.08L137.76 26.40L132.48 26.40L132.48 25.08L134.11 24.36L134.11 16.39L132.48 15.72L132.48 14.35L136.13 14.35ZM147.50 14.02Q149.90 14.02 151.20 15.53Q152.50 17.04 152.50 20.42L152.50 20.42Q152.50 22.80 151.97 24.16Q151.44 25.51 150.40 26.08Q149.35 26.64 147.72 26.64L147.72 26.64Q146.23 26.64 145.09 26.16Q143.95 25.68 142.94 24.67L142.94 24.67L142.32 26.40L141.10 26.40L141.10 11.40L139.46 10.73L139.46 9.36L143.11 9.36L143.11 15.34Q144.29 14.64 145.34 14.33Q146.40 14.02 147.50 14.02L147.50 14.02ZM147.31 24.89Q148.39 24.89 149.06 24.52Q149.74 24.14 150.06 23.21Q150.38 22.27 150.38 20.62L150.38 20.62Q150.38 18.14 149.60 16.96Q148.82 15.77 147.02 15.77L147.02 15.77Q146.18 15.77 145.40 15.98Q144.62 16.20 143.11 16.75L143.11 16.75L143.11 23.33Q145.08 24.89 147.31 24.89L147.31 24.89ZM163.08 13.97Q164.14 13.97 164.62 14.47Q165.10 14.98 165.10 16.03L165.10 16.03Q165.10 17.98 162.89 17.98L162.89 17.98L161.93 15.82Q160.99 16.06 160.04 16.48Q159.10 16.90 158.35 17.38L158.35 17.38L158.35 24.36L160.58 25.08L160.58 26.40L154.70 26.40L154.70 25.08L156.34 24.36L156.34 16.39L154.70 15.72L154.70 14.35L157.37 14.35L158.28 15.79Q159.48 14.90 160.73 14.44Q161.98 13.97 163.08 13.97L163.08 13.97ZM172.70 14.02Q175.15 14.02 176.68 15.54Q178.20 17.06 178.20 20.06L178.20 20.06L178.20 21.02L168.79 21.02Q168.91 22.63 169.38 23.48Q169.85 24.34 170.75 24.67Q171.65 25.01 173.23 25.01L173.23 25.01Q175.51 25.01 177.74 24.46L177.74 24.46L177.74 26.18Q176.81 26.42 175.56 26.58Q174.31 26.74 173.18 26.74L173.18 26.74Q169.99 26.74 168.34 25.30Q166.68 23.86 166.68 20.38L166.68 20.38Q166.68 17.14 168.31 15.58Q169.94 14.02 172.70 14.02L172.70 14.02ZM172.58 15.74Q170.71 15.74 169.85 16.58Q168.98 17.42 168.82 19.32L168.82 19.32L176.06 19.32Q175.92 17.54 175.08 16.64Q174.24 15.74 172.58 15.74L172.58 15.74Z"/></svg>