<svg xmlns="http://www.w3.org/2000/svg" xmlns:xlink="http://www.w3.org/1999/xlink" width="203.35200000000006" height="34.08"><path fill="black" d="M8.11 26.64L-0.12 26.64L0.02 25.90Q0.48 25.68 1.13 25.54Q1.78 25.39 2.69 25.32L2.69 25.32L5.52 12.22L2.86 11.66L3.02 10.85L11.52 10.85Q13.49 10.85 14.65 11.87Q15.82 12.89 15.82 14.62L15.82 14.62Q15.82 16.30 14.93 17.63Q14.04 18.96 12.52 19.73Q10.99 20.50 9.05 20.50L9.05 20.50L4.87 20.50L5.16 19.01L10.73 19.01Q12.10 18.19 12.76 17.11Q13.42 16.03 13.42 14.66L13.42 14.66Q13.42 13.54 12.71 12.95Q12 12.36 10.68 12.36L10.68 12.36L7.68 12.36L5.06 25.32L8.28 25.80L8.11 26.64ZM21.43 16.03L19.44 26.02L19.01 25.06Q19.73 25.03 20.39 24.92Q21.05 24.82 21.67 24.62L21.67 24.62Q21.50 25.30 21.12 25.78Q20.74 26.26 20.23 26.53Q19.73 26.81 19.22 26.81L19.22 26.81Q18.62 26.81 18.18 26.42Q17.74 26.04 17.50 25.34L17.50 25.34L19.63 15.55L19.97 16.56Q19.13 16.56 18.53 16.62Q17.93 16.68 17.33 16.82L17.33 16.82Q17.47 16.18 17.83 15.71Q18.19 15.24 18.68 14.99Q19.18 14.74 19.68 14.74L19.68 14.74Q20.26 14.74 20.71 15.07Q21.17 15.41 21.43 16.03L21.43 16.03ZM21.50 9.34L21.50 9.34Q21.91 9.72 22.21 10.25Q22.51 10.78 22.58 11.30L22.58 11.30Q22.25 11.74 21.72 12.05Q21.19 12.36 20.66 12.41L20.66 12.41Q20.23 12.07 19.93 11.54Q19.63 11.02 19.51 10.46L19.51 10.46Q19.90 10.03 20.41 9.73Q20.93 9.43 21.50 9.34ZM27.31 26.74L27.31 26.74Q25.63 26.93 24.71 25.87Q23.78 24.82 23.78 22.58L23.78 22.58Q23.78 21 24.23 19.58Q24.67 18.17 25.46 17.06Q26.26 15.96 27.28 15.32Q28.30 14.69 29.42 14.69L29.42 14.69Q30.41 14.69 31.16 15.17Q31.92 15.65 32.33 16.54L32.33 16.54L32.30 17.14Q30.74 16.06 28.32 15.84L28.32 15.84L29.16 15.67Q28.20 16.10 27.44 17.09Q26.69 18.07 26.24 19.38Q25.80 20.69 25.74 22.13Q25.68 23.57 26.04 24.96L26.04 24.96L25.56 24.43Q26.09 24.77 26.59 25.02Q27.10 25.27 27.70 25.37L27.70 25.37L27.14 25.46Q28.44 24.53 29.62 22.66Q30.79 20.78 31.92 17.93L31.92 17.93L32.35 18.31Q31.25 21.29 30.04 23.34Q28.82 25.39 27.31 26.74ZM34.37 14.88L32.04 26.02L31.63 25.06Q32.28 25.01 32.93 24.90Q33.58 24.79 34.30 24.62L34.30 24.62Q34.13 25.30 33.74 25.78Q33.36 26.26 32.87 26.53Q32.38 26.81 31.87 26.81L31.87 26.81Q31.27 26.81 30.82 26.42Q30.36 26.04 30.12 25.34L30.12 25.34L31.32 21.07L31.10 21L32.47 14.88L34.37 14.88ZM36.84 26.64L36.17 26.64L35.81 26.02L45.72 14.88L46.49 14.88L46.78 15.50L36.84 26.64ZM41.35 26.69L41.35 26.69L36.96 25.80L38.38 24.26L44.06 25.01L43.03 25.49Q43.73 24.74 44.38 23.78Q45.02 22.82 45.67 21.65L45.67 21.65Q45.72 21.84 45.76 22.06Q45.79 22.27 45.79 22.46L45.79 22.46Q45.79 23.69 45.32 24.66Q44.86 25.63 44.05 26.22Q43.25 26.81 42.19 26.81L42.19 26.81Q41.74 26.81 41.35 26.69ZM38.47 19.18L37.61 19.18L38.35 14.88L40.37 14.88L38.47 19.18ZM44.66 16.66L39.02 16.66L38.35 14.88L46.49 14.88L44.66 16.66ZM48.38 26.64L47.71 26.64L47.35 26.02L57.26 14.88L58.03 14.88L58.32 15.50L48.38 26.64ZM52.90 26.69L52.90 26.69L48.50 25.80L49.92 24.26L55.61 25.01L54.58 25.49Q55.27 24.74 55.92 23.78Q56.57 22.82 57.22 21.65L57.22 21.65Q57.26 21.84 57.30 22.06Q57.34 22.27 57.34 22.46L57.34 22.46Q57.34 23.69 56.87 24.66Q56.40 25.63 55.60 26.22Q54.79 26.81 53.74 26.81L53.74 26.81Q53.28 26.81 52.90 26.69ZM50.02 19.18L49.15 19.18L49.90 14.88L51.91 14.88L50.02 19.18ZM56.21 16.66L50.57 16.66L49.90 14.88L58.03 14.88L56.21 16.66ZM63.77 26.86L63.77 26.86Q61.94 26.86 60.90 25.56Q59.86 24.26 59.86 21.98L59.86 21.98Q59.86 20.45 60.30 19.13Q60.74 17.81 61.54 16.80Q62.33 15.79 63.38 15.23Q64.44 14.66 65.66 14.66L65.66 14.66Q67.49 14.66 68.53 15.95Q69.58 17.23 69.58 19.54L69.58 19.54Q69.58 21.07 69.12 22.39Q68.66 23.71 67.88 24.72Q67.10 25.73 66.05 26.29Q64.99 26.86 63.77 26.86ZM64.51 25.54L64.51 25.54Q65.38 25.13 66.06 24.17Q66.74 23.21 67.14 21.98Q67.54 20.76 67.58 19.42Q67.63 18.07 67.27 16.87L67.27 16.87Q66.70 16.54 66.12 16.32Q65.54 16.10 64.92 16.03L64.92 16.03Q64.03 16.49 63.35 17.45Q62.66 18.41 62.27 19.66Q61.87 20.90 61.84 22.21Q61.80 23.52 62.16 24.67L62.16 24.67Q62.66 25.01 63.26 25.22Q63.86 25.44 64.51 25.54ZM77.16 8.93L75.14 10.97L73.06 9.58Q73.97 9.22 75.01 9.05Q76.06 8.88 77.16 8.93L77.16 8.93ZM77.16 8.93L73.73 26.02L73.30 25.06Q74.04 25.03 74.70 24.92Q75.36 24.82 75.98 24.62L75.98 24.62Q75.82 25.30 75.43 25.78Q75.05 26.26 74.54 26.53Q74.04 26.81 73.51 26.81L73.51 26.81Q72.94 26.81 72.48 26.42Q72.02 26.04 71.81 25.34L71.81 25.34L75.22 9.48L77.16 8.93ZM83.90 8.93L81.89 10.97L79.80 9.58Q80.71 9.22 81.76 9.05Q82.80 8.88 83.90 8.93L83.90 8.93ZM83.90 8.93L80.47 26.02L80.04 25.06Q80.78 25.03 81.44 24.92Q82.10 24.82 82.73 24.62L82.73 24.62Q82.56 25.30 82.18 25.78Q81.79 26.26 81.29 26.53Q80.78 26.81 80.26 26.81L80.26 26.81Q79.68 26.81 79.22 26.42Q78.77 26.04 78.55 25.34L78.55 25.34L81.96 9.48L83.90 8.93ZM88.68 26.74L88.68 26.74Q87 26.93 86.08 25.87Q85.15 24.82 85.15 22.58L85.15 22.58Q85.15 21 85.60 19.58Q86.04 18.17 86.83 17.06Q87.62 15.96 88.64 15.32Q89.66 14.69 90.79 14.69L90.79 14.69Q91.78 14.69 92.53 15.17Q93.29 15.65 93.70 16.54L93.70 16.54L93.67 17.14Q92.11 16.06 89.69 15.84L89.69 15.84L90.53 15.67Q89.57 16.10 88.81 17.09Q88.06 18.07 87.61 19.38Q87.17 20.69 87.11 22.13Q87.05 23.57 87.41 24.96L87.41 24.96L86.93 24.43Q87.46 24.77 87.96 25.02Q88.46 25.27 89.06 25.37L89.06 25.37L88.51 25.46Q89.81 24.53 90.98 22.66Q92.16 20.78 93.29 17.93L93.29 17.93L93.72 18.31Q92.62 21.29 91.40 23.34Q90.19 25.39 88.68 26.74ZM95.74 14.88L93.41 26.02L93 25.06Q93.65 25.01 94.30 24.90Q94.94 24.79 95.66 24.62L95.66 24.62Q95.50 25.30 95.11 25.78Q94.73 26.26 94.24 26.53Q93.74 26.81 93.24 26.81L93.24 26.81Q92.64 26.81 92.18 26.42Q91.73 26.04 91.49 25.34L91.49 25.34L92.69 21.07L92.47 21L93.84 14.88L95.74 14.88ZM106.42 26.86L106.42 26.86Q105.41 26.86 104.35 26.69Q103.30 26.52 102.22 26.18L102.22 26.18L102.89 24.65Q104.04 24.94 105.04 25.09Q106.03 25.25 106.92 25.25L106.92 25.25Q108.50 25.25 109.94 24.77L109.94 24.77Q110.57 23.98 110.88 23.24Q111.19 22.51 111.19 21.86L111.19 21.86Q111.19 20.93 110.56 20.36Q109.92 19.80 108.67 19.80L108.67 19.80L103.90 19.80L105.02 18.19L108.98 18.19Q111.07 18.19 112.21 19.08Q113.35 19.97 113.35 21.58L113.35 21.58Q113.35 23.14 112.48 24.32Q111.60 25.51 110.03 26.18Q108.46 26.86 106.42 26.86ZM104.04 21.94L104.45 26.21L102.22 26.18L103.20 21.94L104.04 21.94ZM105.62 19.20L103.90 19.80L105.43 12.10L107.09 12.10L105.62 19.20ZM114.10 12.10L113.78 13.75L105.91 13.66L105.43 12.10L114.10 12.10ZM113.66 16.61L112.82 16.61L112.46 12.10L114.65 12.10L113.66 16.61ZM121.99 26.83L121.99 26.83Q120.48 26.83 119.36 26.12Q118.25 25.42 117.66 24.08Q117.07 22.75 117.07 20.95L117.07 20.95Q117.07 19.10 117.65 17.47Q118.22 15.84 119.23 14.57Q120.24 13.30 121.57 12.59Q122.90 11.88 124.42 11.88L124.42 11.88Q125.95 11.88 127.06 12.60Q128.16 13.32 128.76 14.64Q129.36 15.96 129.36 17.81L129.36 17.81Q129.36 19.66 128.78 21.28Q128.21 22.90 127.19 24.16Q126.17 25.42 124.84 26.12Q123.50 26.83 121.99 26.83ZM122.21 25.37L122.21 25.37Q123.00 25.37 123.72 24.98Q124.44 24.60 125.04 23.78L125.04 23.78Q125.66 22.99 126.12 21.91Q126.58 20.83 126.83 19.67Q127.08 18.50 127.08 17.40L127.08 17.40Q127.08 15.55 126.30 14.50Q125.52 13.44 124.15 13.44L124.15 13.44Q123.50 13.44 122.81 13.68Q122.11 13.92 121.58 14.35L121.58 14.35Q120.89 15.38 120.40 16.62Q119.90 17.86 119.60 19.12Q119.30 20.38 119.30 21.48L119.30 21.48Q119.30 23.26 120.10 24.31Q120.89 25.37 122.21 25.37ZM137.14 26.83L137.14 26.83Q135.62 26.83 134.51 26.12Q133.39 25.42 132.80 24.08Q132.22 22.75 132.22 20.95L132.22 20.95Q132.22 19.10 132.79 17.47Q133.37 15.84 134.38 14.57Q135.38 13.30 136.72 12.59Q138.05 11.88 139.56 11.88L139.56 11.88Q141.10 11.88 142.20 12.60Q143.30 13.32 143.90 14.64Q144.50 15.96 144.50 17.81L144.50 17.81Q144.50 19.66 143.93 21.28Q143.35 22.90 142.33 24.16Q141.31 25.42 139.98 26.12Q138.65 26.83 137.14 26.83ZM137.35 25.37L137.35 25.37Q138.14 25.37 138.86 24.98Q139.58 24.60 140.18 23.78L140.18 23.78Q140.81 22.99 141.26 21.91Q141.72 20.83 141.97 19.67Q142.22 18.50 142.22 17.40L142.22 17.40Q142.22 15.55 141.44 14.50Q140.66 13.44 139.30 13.44L139.30 13.44Q138.65 13.44 137.95 13.68Q137.26 13.92 136.73 14.35L136.73 14.35Q136.03 15.38 135.54 16.62Q135.05 17.86 134.75 19.12Q134.45 20.38 134.45 21.48L134.45 21.48Q134.45 23.26 135.24 24.31Q136.03 25.37 137.35 25.37ZM155.26 16.03L153.26 26.02L152.83 25.06Q153.55 25.03 154.21 24.92Q154.87 24.82 155.50 24.62L155.50 24.62Q155.33 25.30 154.94 25.78Q154.56 26.26 154.06 26.53Q153.55 26.81 153.05 26.81L153.05 26.81Q152.45 26.81 152.00 26.42Q151.56 26.04 151.32 25.34L151.32 25.34L153.46 15.55L153.79 16.56Q152.95 16.56 152.35 16.62Q151.75 16.68 151.15 16.82L151.15 16.82Q151.30 16.18 151.66 15.71Q152.02 15.24 152.51 14.99Q153.00 14.74 153.50 14.74L153.50 14.74Q154.08 14.74 154.54 15.07Q154.99 15.41 155.26 16.03L155.26 16.03ZM155.33 9.34L155.33 9.34Q155.74 9.72 156.04 10.25Q156.34 10.78 156.41 11.30L156.41 11.30Q156.07 11.74 155.54 12.05Q155.02 12.36 154.49 12.41L154.49 12.41Q154.06 12.07 153.76 11.54Q153.46 11.02 153.34 10.46L153.34 10.46Q153.72 10.03 154.24 9.73Q154.75 9.43 155.33 9.34ZM160.78 26.86L160.78 26.86Q159.70 26.86 158.93 26.17Q158.16 25.49 158.09 24.43L158.09 24.43L160.92 11.54L162.72 11.54L159.96 25.30L159.86 24.26Q160.56 25.06 161.42 25.06L161.42 25.06Q162.24 25.06 163.02 24.43Q163.80 23.81 164.33 22.73L164.33 22.73L164.78 22.90Q164.40 24.70 163.30 25.78Q162.19 26.86 160.78 26.86ZM165.84 16.20L158.06 16.20L158.21 15.60Q158.71 15.34 159.20 15.17Q159.70 15 160.27 14.93L160.27 14.93L166.08 14.93L165.84 16.20ZM170.66 26.74L170.66 26.74Q168.98 26.93 168.06 25.87Q167.14 24.82 167.14 22.58L167.14 22.58Q167.14 21 167.58 19.58Q168.02 18.17 168.82 17.06Q169.61 15.96 170.63 15.32Q171.65 14.69 172.78 14.69L172.78 14.69Q173.76 14.69 174.52 15.17Q175.27 15.65 175.68 16.54L175.68 16.54L175.66 17.14Q174.10 16.06 171.67 15.84L171.67 15.84L172.51 15.67Q171.55 16.10 170.80 17.09Q170.04 18.07 169.60 19.38Q169.15 20.69 169.09 22.13Q169.03 23.57 169.39 24.96L169.39 24.96L168.91 24.43Q169.44 24.77 169.94 25.02Q170.45 25.27 171.05 25.37L171.05 25.37L170.50 25.46Q171.79 24.53 172.97 22.66Q174.14 20.78 175.27 17.93L175.27 17.93L175.70 18.31Q174.60 21.29 173.39 23.34Q172.18 25.39 170.66 26.74ZM177.72 14.88L175.39 26.02L174.98 25.06Q175.63 25.01 176.28 24.90Q176.93 24.79 177.65 24.62L177.65 24.62Q177.48 25.30 177.10 25.78Q176.71 26.26 176.22 26.53Q175.73 26.81 175.22 26.81L175.22 26.81Q174.62 26.81 174.17 26.42Q173.71 26.04 173.47 25.34L173.47 25.34L174.67 21.07L174.46 21L175.82 14.88L177.72 14.88ZM185.59 8.93L183.58 10.97L181.49 9.58Q182.40 9.22 183.44 9.05Q184.49 8.88 185.59 8.93L185.59 8.93ZM185.59 8.93L182.16 26.02L181.73 25.06Q182.47 25.03 183.13 24.92Q183.79 24.82 184.42 24.62L184.42 24.62Q184.25 25.30 183.86 25.78Q183.48 26.26 182.98 26.53Q182.47 26.81 181.94 26.81L181.94 26.81Q181.37 26.81 180.91 26.42Q180.46 26.04 180.24 25.34L180.24 25.34L183.65 9.48L185.59 8.93ZM191.50 16.03L189.50 26.02L189.07 25.06Q189.79 25.03 190.45 24.92Q191.11 24.82 191.74 24.62L191.74 24.62Q191.57 25.30 191.18 25.78Q190.80 26.26 190.30 26.53Q189.79 26.81 189.29 26.81L189.29 26.81Q188.69 26.81 188.24 26.42Q187.80 26.04 187.56 25.34L187.56 25.34L189.70 15.55L190.03 16.56Q189.19 16.56 188.59 16.62Q187.99 16.68 187.39 16.82L187.39 16.82Q187.54 16.18 187.90 15.71Q188.26 15.24 188.75 14.99Q189.24 14.74 189.74 14.74L189.74 14.74Q190.32 14.74 190.78 15.07Q191.23 15.41 191.50 16.03L191.50 16.03ZM191.57 9.34L191.57 9.34Q191.98 9.72 192.28 10.25Q192.58 10.78 192.65 11.30L192.65 11.30Q192.31 11.74 191.78 12.05Q191.26 12.36 190.73 12.41L190.73 12.41Q190.30 12.07 190.00 11.54Q189.70 11.02 189.58 10.46L189.58 10.46Q189.96 10.03 190.48 9.73Q190.99 9.43 191.57 9.34ZM197.76 26.86L197.76 26.86Q195.96 26.86 194.92 25.50Q193.87 24.14 193.87 21.79L193.87 21.79Q193.87 19.75 194.64 18.14Q195.41 16.54 196.73 15.60Q198.05 14.66 199.70 14.66L199.70 14.66Q200.52 14.66 201.29 14.84Q202.06 15.02 202.61 15.34L202.61 15.34L201.86 16.90Q200.16 16.15 198.00 16.03L198.00 16.03L199.10 15.65Q198.10 16.22 197.38 17.34Q196.66 18.46 196.26 19.84Q195.86 21.22 195.86 22.56L195.86 22.56Q195.86 23.21 196.00 23.83Q196.13 24.46 196.42 24.98L196.42 24.98L196.01 24.29Q196.51 24.70 197.09 24.90Q197.66 25.10 198.22 25.10L198.22 25.10Q199.08 25.10 199.87 24.64Q200.66 24.17 201.36 23.21L201.36 23.21L201.74 23.40Q201.38 24.96 200.28 25.91Q199.18 26.86 197.76 26.86ZM201.91 19.03L201.05 19.03L200.59 15.31L202.61 15.34L201.91 19.03Z"/></svg>