<svg xmlns="http://www.w3.org/2000/svg" xmlns:xlink="http://www.w3.org/1999/xlink" width="211.77600000000004" height="34.68"><path fill="black" d="M1.37 27.67L1.37 27.67Q1.30 27.38 1.26 27.11Q1.22 26.83 1.22 26.57L1.22 26.57L3.10 26.21Q3.19 24.86 3.24 23.44Q3.29 22.01 3.29 20.69L3.29 20.69Q3.29 19.46 3.28 18.23Q3.26 16.99 3.23 15.80Q3.19 14.62 3.12 13.56L3.12 13.56L1.15 12.89Q1.15 12.65 1.18 12.43Q1.20 12.22 1.27 11.98L1.27 11.98Q2.98 11.95 4.67 11.90Q6.36 11.86 8.06 11.78L8.06 11.78Q8.11 12.07 8.16 12.34Q8.21 12.60 8.21 12.89L8.21 12.89L6.46 13.30Q6.38 14.18 6.34 15.23Q6.29 16.27 6.28 17.45Q6.26 18.62 6.26 19.92L6.26 19.92Q6.26 20.59 6.26 21.36Q6.26 22.13 6.28 22.93Q6.29 23.74 6.32 24.53Q6.36 25.32 6.41 26.04L6.41 26.04Q6.84 26.04 7.33 26.03Q7.82 26.02 8.34 25.98Q8.86 25.94 9.34 25.91Q9.82 25.87 10.20 25.81Q10.58 25.75 10.87 25.70L10.87 25.70L11.64 22.22Q12.05 22.22 12.43 22.26Q12.82 22.30 13.20 22.39L13.20 22.39L13.25 22.68L13.06 27.34L13.01 27.62Q11.71 27.55 10.33 27.52Q8.95 27.48 7.58 27.48L7.58 27.48Q6.82 27.48 6.04 27.49Q5.26 27.50 4.48 27.54Q3.70 27.58 2.92 27.60Q2.14 27.62 1.37 27.67ZM19.06 27.48L19.06 27.48Q18.55 27.62 17.81 27.70Q17.06 27.77 16.25 27.70L16.25 27.70Q15.86 27.46 15.44 27.07Q15.02 26.69 14.74 26.17Q14.45 25.66 14.40 25.10L14.40 25.10Q14.40 24.74 14.51 24.31Q14.62 23.88 14.81 23.47Q15 23.06 15.22 22.74Q15.43 22.42 15.62 22.25L15.62 22.25Q16.06 22.08 16.78 21.94Q17.50 21.79 18.26 21.66Q19.03 21.53 19.67 21.46Q20.30 21.38 20.62 21.36L20.62 21.36L20.62 18.12Q20.23 17.90 19.62 17.75Q19.01 17.59 18.41 17.59L18.41 17.59Q18.22 17.57 18.02 17.59Q17.83 17.62 17.64 17.64L17.64 17.64L17.21 20.09L15.38 19.97L15.10 17.35L15.31 17.02Q16.08 16.78 17.34 16.51Q18.60 16.25 20.14 16.25L20.14 16.25Q20.90 16.25 21.47 16.46Q22.03 16.68 22.43 17.02Q22.82 17.35 23.08 17.71Q23.33 18.07 23.45 18.34L23.45 18.34Q23.40 18.96 23.35 19.68Q23.30 20.40 23.28 21.06Q23.26 21.72 23.26 22.10L23.26 22.10Q23.26 23.18 23.32 23.94Q23.38 24.70 23.45 25.20Q23.52 25.70 23.57 25.97L23.57 25.97L24.94 26.14L25.03 26.88Q24.22 27.10 23.28 27.32Q22.34 27.55 21.26 27.72L21.26 27.72L20.71 27.05L20.88 25.30L20.74 25.30Q20.47 25.61 20.18 26.00Q19.90 26.40 19.61 26.78Q19.32 27.17 19.06 27.48ZM17.40 25.58L17.40 25.58Q17.52 25.66 17.71 25.72Q17.90 25.78 18.14 25.84Q18.38 25.90 18.62 25.90L18.62 25.90Q18.77 25.85 19.06 25.60Q19.34 25.34 19.67 25.03Q19.99 24.72 20.27 24.43Q20.54 24.14 20.62 24.02L20.62 24.02L20.62 22.42Q20.06 22.46 19.49 22.58Q18.91 22.70 18.35 22.87Q17.78 23.04 17.26 23.26L17.26 23.26Q17.23 23.35 17.22 23.46Q17.21 23.57 17.21 23.65Q17.21 23.74 17.21 23.83L17.21 23.83Q17.21 24.41 17.27 24.83Q17.33 25.25 17.40 25.58ZM27.74 26.86L27.74 26.86Q27.79 26.26 27.83 25.48Q27.86 24.70 27.89 23.82Q27.91 22.94 27.94 22.06Q27.96 21.17 27.96 20.33L27.96 20.33Q27.96 19.66 27.95 18.84Q27.94 18.02 27.91 17.17Q27.89 16.32 27.85 15.52Q27.82 14.71 27.79 14.04Q27.77 13.37 27.74 12.91Q27.72 12.46 27.72 12.31L27.72 12.31L25.92 11.90Q25.92 11.64 25.97 11.41Q26.02 11.18 26.09 10.99L26.09 10.99L29.83 10.42L30.79 11.09L30.50 17.45L30.31 20.11L30.62 20.21Q30.74 19.85 30.98 19.22Q31.22 18.60 31.56 17.89Q31.90 17.18 32.26 16.54L32.26 16.54Q32.74 16.42 33.22 16.36Q33.70 16.30 34.19 16.27Q34.68 16.25 35.14 16.25L35.14 16.25Q35.50 16.37 35.98 16.63Q36.46 16.90 36.94 17.46Q37.42 18.02 37.73 19.00Q38.04 19.97 38.04 21.50L38.04 21.50Q38.04 22.56 37.79 23.50Q37.54 24.43 36.96 25.20L36.96 25.20Q36.70 25.58 36.08 26.21Q35.47 26.83 34.54 27.43L34.54 27.43Q34.18 27.60 33.72 27.68Q33.26 27.77 32.78 27.77L32.78 27.77Q31.73 27.77 30.37 27.56Q29.02 27.36 27.74 26.86ZM33.29 26.42L33.29 26.42Q33.48 26.30 33.92 26.09Q34.37 25.87 34.80 25.46L34.80 25.46Q34.85 25.22 34.97 24.47Q35.09 23.71 35.09 22.70L35.09 22.70Q35.09 21.50 34.93 20.44Q34.78 19.37 34.51 18.60L34.51 18.60Q34.30 18.43 34.06 18.30Q33.82 18.17 33.54 18.07Q33.26 17.98 32.98 17.93L32.98 17.93Q32.69 18.26 32.26 19.02Q31.82 19.78 31.38 20.68Q30.94 21.58 30.67 22.32L30.67 22.32L30.67 25.75Q30.84 25.82 31.51 26.08Q32.18 26.33 33.29 26.42ZM39.72 27.60L39.72 27.60Q39.65 27.38 39.62 27.14Q39.60 26.90 39.60 26.66L39.60 26.66L41.16 26.04Q41.21 25.32 41.26 24.43Q41.30 23.54 41.30 22.75L41.30 22.75Q41.30 22.06 41.26 21.22Q41.21 20.38 41.16 19.55Q41.11 18.72 41.04 18.10L41.04 18.10L39.46 17.83Q39.38 17.64 39.37 17.45Q39.36 17.26 39.36 17.06L39.36 17.06Q40.25 16.80 41.23 16.58Q42.22 16.37 43.18 16.25L43.18 16.25L43.70 16.92L43.42 20.04L43.73 20.14Q44.06 19.18 44.45 18.30Q44.83 17.42 45.26 16.54L45.26 16.54Q45.70 16.44 46.24 16.38Q46.78 16.32 47.30 16.32Q47.83 16.32 48.29 16.37L48.29 16.37L48.48 16.97L47.93 19.22L47.45 19.54Q47.11 19.44 46.74 19.33Q46.37 19.22 46.01 19.14Q45.65 19.06 45.29 19.03L45.29 19.03Q45.05 19.39 44.80 19.87Q44.54 20.35 44.34 20.92Q44.14 21.48 43.92 22.01L43.92 22.01L44.09 26.14L46.25 26.64Q46.27 26.83 46.24 27.05Q46.20 27.26 46.15 27.48L46.15 27.48Q45.62 27.48 44.77 27.49Q43.92 27.50 42.96 27.53Q42 27.55 41.14 27.56Q40.27 27.58 39.72 27.60ZM54.34 27.48L54.34 27.48Q53.83 27.62 53.09 27.70Q52.34 27.77 51.53 27.70L51.53 27.70Q51.14 27.46 50.72 27.07Q50.30 26.69 50.02 26.17Q49.73 25.66 49.68 25.10L49.68 25.10Q49.68 24.74 49.79 24.31Q49.90 23.88 50.09 23.47Q50.28 23.06 50.50 22.74Q50.71 22.42 50.90 22.25L50.90 22.25Q51.34 22.08 52.06 21.94Q52.78 21.79 53.54 21.66Q54.31 21.53 54.95 21.46Q55.58 21.38 55.90 21.36L55.90 21.36L55.90 18.12Q55.51 17.90 54.90 17.75Q54.29 17.59 53.69 17.59L53.69 17.59Q53.50 17.57 53.30 17.59Q53.11 17.62 52.92 17.64L52.92 17.64L52.49 20.09L50.66 19.97L50.38 17.35L50.59 17.02Q51.36 16.78 52.62 16.51Q53.88 16.25 55.42 16.25L55.42 16.25Q56.18 16.25 56.75 16.46Q57.31 16.68 57.71 17.02Q58.10 17.35 58.36 17.71Q58.61 18.07 58.73 18.34L58.73 18.34Q58.68 18.96 58.63 19.68Q58.58 20.40 58.56 21.06Q58.54 21.72 58.54 22.10L58.54 22.10Q58.54 23.18 58.60 23.94Q58.66 24.70 58.73 25.20Q58.80 25.70 58.85 25.97L58.85 25.97L60.22 26.14L60.31 26.88Q59.50 27.10 58.56 27.32Q57.62 27.55 56.54 27.72L56.54 27.72L55.99 27.05L56.16 25.30L56.02 25.30Q55.75 25.61 55.46 26.00Q55.18 26.40 54.89 26.78Q54.60 27.17 54.34 27.48ZM52.68 25.58L52.68 25.58Q52.80 25.66 52.99 25.72Q53.18 25.78 53.42 25.84Q53.66 25.90 53.90 25.90L53.90 25.90Q54.05 25.85 54.34 25.60Q54.62 25.34 54.95 25.03Q55.27 24.72 55.55 24.43Q55.82 24.14 55.90 24.02L55.90 24.02L55.90 22.42Q55.34 22.46 54.77 22.58Q54.19 22.70 53.63 22.87Q53.06 23.04 52.54 23.26L52.54 23.26Q52.51 23.35 52.50 23.46Q52.49 23.57 52.49 23.65Q52.49 23.74 52.49 23.83L52.49 23.83Q52.49 24.41 52.55 24.83Q52.61 25.25 52.68 25.58ZM64.44 27.77L64.44 27.77Q63.96 27.60 63.44 27.26Q62.93 26.93 62.50 26.34Q62.06 25.75 61.80 24.82Q61.54 23.88 61.54 22.51L61.54 22.51Q61.54 21.24 61.94 20.15Q62.35 19.06 63.07 18.16Q63.79 17.26 64.73 16.58L64.73 16.58Q65.04 16.46 65.38 16.40Q65.71 16.34 66.06 16.30Q66.41 16.25 66.77 16.25L66.77 16.25Q67.22 16.27 67.78 16.32Q68.33 16.37 68.90 16.49L68.90 16.49L68.83 12.31L67.01 11.93Q67.01 11.69 67.04 11.47Q67.08 11.26 67.15 11.02L67.15 11.02L71.06 10.39L72.02 11.09Q71.98 11.50 71.93 12.19Q71.88 12.89 71.82 13.78Q71.76 14.66 71.71 15.66Q71.66 16.66 71.64 17.68Q71.62 18.70 71.62 19.66L71.62 19.66Q71.62 20.16 71.63 20.82Q71.64 21.48 71.66 22.19Q71.69 22.90 71.71 23.60Q71.74 24.31 71.77 24.91Q71.81 25.51 71.83 25.94L71.83 25.94L73.30 26.38L73.37 27.14Q72.67 27.34 71.70 27.53Q70.73 27.72 69.60 27.72L69.60 27.72L69.05 27.05L69.19 24.29L68.90 24.17Q68.78 24.50 68.47 25.14Q68.16 25.78 67.82 26.44Q67.49 27.10 67.22 27.48L67.22 27.48Q66.55 27.65 65.84 27.71Q65.14 27.77 64.44 27.77ZM66.60 26.06L66.60 26.06Q66.89 25.80 67.32 25.15Q67.75 24.50 68.20 23.72Q68.64 22.94 68.90 22.34L68.90 22.34L68.90 18.34Q68.47 18.12 67.98 17.98Q67.49 17.83 67.01 17.74Q66.53 17.64 66.10 17.59L66.10 17.59Q65.76 17.69 65.44 17.87Q65.11 18.05 64.85 18.29L64.85 18.29Q64.68 18.91 64.58 19.73Q64.49 20.54 64.49 21.38L64.49 21.38Q64.49 22.54 64.64 23.58Q64.80 24.62 65.06 25.42L65.06 25.42Q65.40 25.66 65.78 25.82Q66.17 25.99 66.60 26.06ZM79.54 27.48L79.54 27.48Q79.03 27.62 78.29 27.70Q77.54 27.77 76.73 27.70L76.73 27.70Q76.34 27.46 75.92 27.07Q75.50 26.69 75.22 26.17Q74.93 25.66 74.88 25.10L74.88 25.10Q74.88 24.74 74.99 24.31Q75.10 23.88 75.29 23.47Q75.48 23.06 75.70 22.74Q75.91 22.42 76.10 22.25L76.10 22.25Q76.54 22.08 77.26 21.94Q77.98 21.79 78.74 21.66Q79.51 21.53 80.15 21.46Q80.78 21.38 81.10 21.36L81.10 21.36L81.10 18.12Q80.71 17.90 80.10 17.75Q79.49 17.59 78.89 17.59L78.89 17.59Q78.70 17.57 78.50 17.59Q78.31 17.62 78.12 17.64L78.12 17.64L77.69 20.09L75.86 19.97L75.58 17.35L75.79 17.02Q76.56 16.78 77.82 16.51Q79.08 16.25 80.62 16.25L80.62 16.25Q81.38 16.25 81.95 16.46Q82.51 16.68 82.91 17.02Q83.30 17.35 83.56 17.71Q83.81 18.07 83.93 18.34L83.93 18.34Q83.88 18.96 83.83 19.68Q83.78 20.40 83.76 21.06Q83.74 21.72 83.74 22.10L83.74 22.10Q83.74 23.18 83.80 23.94Q83.86 24.70 83.93 25.20Q84 25.70 84.05 25.97L84.05 25.97L85.42 26.14L85.51 26.88Q84.70 27.10 83.76 27.32Q82.82 27.55 81.74 27.72L81.74 27.72L81.19 27.05L81.36 25.30L81.22 25.30Q80.95 25.61 80.66 26.00Q80.38 26.40 80.09 26.78Q79.80 27.17 79.54 27.48ZM77.88 25.58L77.88 25.58Q78 25.66 78.19 25.72Q78.38 25.78 78.62 25.84Q78.86 25.90 79.10 25.90L79.10 25.90Q79.25 25.85 79.54 25.60Q79.82 25.34 80.15 25.03Q80.47 24.72 80.75 24.43Q81.02 24.14 81.10 24.02L81.10 24.02L81.10 22.42Q80.54 22.46 79.97 22.58Q79.39 22.70 78.83 22.87Q78.26 23.04 77.74 23.26L77.74 23.26Q77.71 23.35 77.70 23.46Q77.69 23.57 77.69 23.65Q77.69 23.74 77.69 23.83L77.69 23.83Q77.69 24.41 77.75 24.83Q77.81 25.25 77.88 25.58ZM97.01 27.77L97.01 27.77Q96.12 27.77 95.17 27.43Q94.22 27.10 93.42 26.42Q92.62 25.75 92.11 24.72Q91.61 23.69 91.61 22.27L91.61 22.27Q91.61 20.57 91.98 19.10Q92.35 17.64 92.95 16.37L92.95 16.37Q93.67 15.58 94.61 14.95Q95.54 14.33 96.60 13.86Q97.66 13.39 98.80 13.06Q99.94 12.72 101.04 12.50L101.04 12.50L101.33 13.61Q100.49 13.85 99.64 14.15Q98.78 14.45 97.96 14.82Q97.13 15.19 96.31 15.67L96.31 15.67Q95.57 16.63 95.14 18.11Q94.70 19.58 94.70 21.14L94.70 21.14Q94.70 21.89 94.80 22.68Q94.90 23.47 95.14 24.20Q95.38 24.94 95.71 25.51L95.71 25.51Q95.98 25.73 96.38 25.92Q96.79 26.11 97.18 26.23Q97.56 26.35 97.78 26.35L97.78 26.35Q98.16 26.28 98.56 26.12Q98.95 25.97 99.24 25.75L99.24 25.75Q99.41 25.30 99.49 24.82Q99.58 24.34 99.58 23.81L99.58 23.81Q99.58 22.99 99.31 22.21Q99.05 21.43 98.52 20.93L98.52 20.93Q98.28 20.86 97.80 20.82Q97.32 20.78 96.80 20.76Q96.29 20.74 95.95 20.74L95.95 20.74L95.78 20.54L95.83 19.78Q96.29 19.61 96.98 19.45Q97.68 19.30 98.41 19.19Q99.14 19.08 99.60 19.06L99.60 19.06Q99.98 19.15 100.48 19.34Q100.97 19.54 101.42 19.88Q101.88 20.23 102.18 20.84Q102.48 21.46 102.48 22.37L102.48 22.37Q102.48 23.30 102.08 24.22Q101.69 25.13 101.00 25.93Q100.32 26.74 99.43 27.31L99.43 27.31Q98.88 27.53 98.26 27.65Q97.63 27.77 97.01 27.77ZM109.49 27.77L109.49 27.77Q107.98 27.77 106.76 27.04Q105.55 26.30 104.86 24.95Q104.16 23.59 104.16 21.77L104.16 21.77Q104.16 20.38 104.53 19.18Q104.90 17.98 105.43 17.09L105.43 17.09Q106.44 16.34 107.69 15.78Q108.94 15.22 110.26 15.05L110.26 15.05Q111.72 15.05 112.91 15.74Q114.10 16.44 114.82 17.74Q115.54 19.03 115.54 20.81L115.54 20.81Q115.54 21.67 115.36 22.58Q115.18 23.50 114.86 24.32Q114.55 25.15 114.12 25.82L114.12 25.82Q113.21 26.52 112.00 27.06Q110.78 27.60 109.49 27.77ZM109.46 25.80L109.46 25.80Q110.35 25.80 111.14 25.42Q111.94 25.03 112.43 24.34Q112.92 23.64 112.92 22.75L112.92 22.75Q112.99 21.65 112.68 20.62Q112.37 19.58 111.89 18.74L111.89 18.74Q111.58 18.02 111.14 17.59Q110.71 17.16 110.21 17.04L110.21 17.04Q109.54 17.04 108.92 17.26Q108.31 17.47 107.83 17.87Q107.35 18.26 107.05 18.83Q106.75 19.39 106.73 20.11L106.73 20.11Q106.66 21.19 106.97 22.22Q107.28 23.26 107.78 24.10L107.78 24.10Q108.10 24.82 108.52 25.25Q108.94 25.68 109.46 25.80ZM122.71 27.77L122.71 27.77Q121.20 27.77 119.99 27.04Q118.78 26.30 118.08 24.95Q117.38 23.59 117.38 21.77L117.38 21.77Q117.38 20.38 117.76 19.18Q118.13 17.98 118.66 17.09L118.66 17.09Q119.66 16.34 120.91 15.78Q122.16 15.22 123.48 15.05L123.48 15.05Q124.94 15.05 126.13 15.74Q127.32 16.44 128.04 17.74Q128.76 19.03 128.76 20.81L128.76 20.81Q128.76 21.67 128.58 22.58Q128.40 23.50 128.09 24.32Q127.78 25.15 127.34 25.82L127.34 25.82Q126.43 26.52 125.22 27.06Q124.01 27.60 122.71 27.77ZM122.69 25.80L122.69 25.80Q123.58 25.80 124.37 25.42Q125.16 25.03 125.65 24.34Q126.14 23.64 126.14 22.75L126.14 22.75Q126.22 21.65 125.90 20.62Q125.59 19.58 125.11 18.74L125.11 18.74Q124.80 18.02 124.37 17.59Q123.94 17.16 123.43 17.04L123.43 17.04Q122.76 17.04 122.15 17.26Q121.54 17.47 121.06 17.87Q120.58 18.26 120.28 18.83Q119.98 19.39 119.95 20.11L119.95 20.11Q119.88 21.19 120.19 22.22Q120.50 23.26 121.01 24.10L121.01 24.10Q121.32 24.82 121.74 25.25Q122.16 25.68 122.69 25.80ZM135.43 27.58L135.43 27.58Q135.36 27.34 135.34 27.12Q135.31 26.90 135.31 26.66L135.31 26.66L136.87 26.04Q136.92 25.32 136.97 24.43Q137.02 23.54 137.02 22.75L137.02 22.75Q137.02 22.06 136.97 21.22Q136.92 20.38 136.87 19.55Q136.82 18.72 136.75 18.10L136.75 18.10L135.17 17.83Q135.10 17.64 135.08 17.45Q135.07 17.26 135.07 17.06L135.07 17.06Q135.96 16.80 136.94 16.58Q137.93 16.37 138.89 16.25L138.89 16.25L139.42 16.92L139.32 20.11L139.63 20.21Q139.97 19.30 140.36 18.40Q140.76 17.50 141.31 16.54L141.31 16.54Q142.08 16.37 142.69 16.31Q143.30 16.25 144.05 16.25L144.05 16.25Q144.55 16.25 145.02 16.54Q145.49 16.82 145.88 17.23Q146.28 17.64 146.47 18.02L146.47 18.02Q146.52 19.06 146.56 20.06Q146.59 21.07 146.63 22.10Q146.66 23.14 146.70 24.14Q146.74 25.15 146.76 26.18L146.76 26.18L148.32 26.64Q148.34 26.83 148.32 27.05Q148.30 27.26 148.25 27.48L148.25 27.48Q147.79 27.48 147.06 27.49Q146.33 27.50 145.49 27.52Q144.65 27.53 143.87 27.54Q143.09 27.55 142.56 27.58L142.56 27.58Q142.49 27.34 142.46 27.11Q142.44 26.88 142.44 26.64L142.44 26.64L143.93 25.99L143.93 22.03Q143.93 21.60 143.92 21.14Q143.90 20.69 143.88 20.22Q143.86 19.75 143.82 19.31Q143.78 18.86 143.71 18.50L143.71 18.50Q143.33 18.36 142.86 18.25Q142.39 18.14 141.86 18.07L141.86 18.07Q141.58 18.43 141.19 19.10Q140.81 19.78 140.40 20.64Q139.99 21.50 139.63 22.42L139.63 22.42L139.80 26.21L141.29 26.62Q141.31 26.81 141.29 27.04Q141.26 27.26 141.22 27.48L141.22 27.48Q140.76 27.48 139.99 27.49Q139.22 27.50 138.35 27.52Q137.47 27.53 136.69 27.54Q135.91 27.55 135.43 27.58ZM154.46 27.77L154.46 27.77Q153.02 27.77 151.91 27.10Q150.79 26.42 150.17 25.20Q149.54 23.98 149.54 22.32L149.54 22.32Q149.54 21.07 149.90 20.00Q150.26 18.94 150.77 18.12L150.77 18.12Q151.39 17.66 152.17 17.28Q152.95 16.90 153.79 16.62Q154.63 16.34 155.42 16.25L155.42 16.25Q156.84 16.25 157.93 16.90Q159.02 17.54 159.67 18.71Q160.32 19.87 160.32 21.48L160.32 21.48Q160.32 22.27 160.15 23.09Q159.98 23.90 159.68 24.66Q159.38 25.42 158.98 26.02L158.98 26.02Q158.40 26.45 157.66 26.81Q156.91 27.17 156.10 27.42Q155.28 27.67 154.46 27.77ZM154.80 26.28L154.80 26.28Q155.11 26.28 155.39 26.24Q155.66 26.21 155.93 26.15Q156.19 26.09 156.36 26.02L156.36 26.02Q156.65 25.63 156.89 25.06Q157.13 24.48 157.27 23.72Q157.42 22.97 157.42 22.13L157.42 22.13Q157.42 20.42 156.82 19.28Q156.22 18.14 155.16 17.74L155.16 17.74Q154.68 17.74 154.22 17.80Q153.77 17.86 153.46 17.98L153.46 17.98Q153.05 18.53 152.72 19.56Q152.40 20.59 152.40 21.89L152.40 21.89Q152.40 23.62 153.02 24.74Q153.65 25.87 154.80 26.28ZM162.00 27.60L162.00 27.60Q161.93 27.38 161.90 27.14Q161.88 26.90 161.88 26.66L161.88 26.66L163.44 26.04Q163.49 25.32 163.54 24.43Q163.58 23.54 163.58 22.75L163.58 22.75Q163.58 22.06 163.54 21.22Q163.49 20.38 163.44 19.55Q163.39 18.72 163.32 18.10L163.32 18.10L161.74 17.83Q161.66 17.64 161.65 17.45Q161.64 17.26 161.64 17.06L161.64 17.06Q162.53 16.80 163.51 16.58Q164.50 16.37 165.46 16.25L165.46 16.25L165.98 16.92L165.70 20.04L166.01 20.14Q166.34 19.18 166.73 18.30Q167.11 17.42 167.54 16.54L167.54 16.54Q167.98 16.44 168.52 16.38Q169.06 16.32 169.58 16.32Q170.11 16.32 170.57 16.37L170.57 16.37L170.76 16.97L170.21 19.22L169.73 19.54Q169.39 19.44 169.02 19.33Q168.65 19.22 168.29 19.14Q167.93 19.06 167.57 19.03L167.57 19.03Q167.33 19.39 167.08 19.87Q166.82 20.35 166.62 20.92Q166.42 21.48 166.20 22.01L166.20 22.01L166.37 26.14L168.53 26.64Q168.55 26.83 168.52 27.05Q168.48 27.26 168.43 27.48L168.43 27.48Q167.90 27.48 167.05 27.49Q166.20 27.50 165.24 27.53Q164.28 27.55 163.42 27.56Q162.55 27.58 162.00 27.60ZM171.89 27.58L171.89 27.58Q171.82 27.36 171.78 27.13Q171.74 26.90 171.74 26.66L171.74 26.66L173.33 26.04Q173.42 25.15 173.47 24.22Q173.52 23.28 173.52 22.58L173.52 22.58Q173.52 21.89 173.47 21.10Q173.42 20.30 173.38 19.51Q173.33 18.72 173.26 18.10L173.26 18.10L171.67 17.83Q171.62 17.69 171.59 17.47Q171.55 17.26 171.58 17.06L171.58 17.06Q172.46 16.80 173.45 16.58Q174.43 16.37 175.39 16.25L175.39 16.25L175.92 16.92L175.82 20.11L176.14 20.21Q176.52 19.25 176.89 18.35Q177.26 17.45 177.82 16.54L177.82 16.54Q178.58 16.37 179.20 16.31Q179.81 16.25 180.55 16.25L180.55 16.25Q181.25 16.25 181.90 16.78Q182.54 17.30 182.86 17.88L182.86 17.88Q182.83 18.43 182.81 19.00Q182.78 19.56 182.76 20.11L182.76 20.11L183.07 20.21Q183.41 19.34 183.82 18.37Q184.22 17.40 184.73 16.54L184.73 16.54Q185.52 16.37 186.12 16.31Q186.72 16.25 187.46 16.25L187.46 16.25Q187.97 16.25 188.45 16.54Q188.93 16.82 189.31 17.23Q189.70 17.64 189.89 18.02L189.89 18.02Q189.94 19.06 189.97 20.06Q190.01 21.07 190.06 22.10Q190.10 23.14 190.14 24.14Q190.18 25.15 190.22 26.18L190.22 26.18L191.74 26.64Q191.74 26.83 191.72 27.05Q191.71 27.26 191.66 27.48L191.66 27.48Q191.23 27.48 190.48 27.49Q189.72 27.50 188.87 27.52Q188.02 27.53 187.25 27.54Q186.48 27.55 186.02 27.58L186.02 27.58Q185.95 27.36 185.92 27.13Q185.88 26.90 185.88 26.66L185.88 26.66L187.30 26.04Q187.32 25.06 187.33 24.17Q187.34 23.28 187.34 22.44L187.34 22.44Q187.34 21.89 187.33 21.35Q187.32 20.81 187.31 20.30Q187.30 19.80 187.25 19.34Q187.20 18.89 187.13 18.50L187.13 18.50Q186.74 18.36 186.28 18.25Q185.81 18.14 185.30 18.07L185.30 18.07Q185.04 18.43 184.64 19.09Q184.25 19.75 183.86 20.58Q183.48 21.41 183.12 22.30L183.12 22.30L183.29 26.23L184.70 26.64Q184.68 26.83 184.67 27.05Q184.66 27.26 184.61 27.48L184.61 27.48Q184.20 27.48 183.46 27.49Q182.71 27.50 181.87 27.52Q181.03 27.53 180.28 27.54Q179.52 27.55 179.09 27.58L179.09 27.58Q179.02 27.36 178.99 27.13Q178.97 26.90 178.97 26.66L178.97 26.66L180.36 26.04Q180.38 25.06 180.40 24.16Q180.41 23.26 180.43 22.44L180.43 22.44Q180.43 21.89 180.42 21.35Q180.41 20.81 180.38 20.30Q180.36 19.80 180.32 19.34Q180.29 18.89 180.22 18.50L180.22 18.50Q179.83 18.36 179.36 18.25Q178.90 18.14 178.37 18.07L178.37 18.07Q178.08 18.43 177.70 19.10Q177.31 19.78 176.90 20.64Q176.50 21.50 176.14 22.42L176.14 22.42L176.28 26.23L177.70 26.64Q177.70 26.83 177.67 27.05Q177.65 27.26 177.60 27.48L177.60 27.48Q177.17 27.48 176.40 27.49Q175.63 27.50 174.77 27.52Q173.90 27.53 173.14 27.54Q172.37 27.55 171.89 27.58ZM197.76 27.48L197.76 27.48Q197.26 27.62 196.51 27.70Q195.77 27.77 194.95 27.70L194.95 27.70Q194.57 27.46 194.15 27.07Q193.73 26.69 193.44 26.17Q193.15 25.66 193.10 25.10L193.10 25.10Q193.10 24.74 193.21 24.31Q193.32 23.88 193.51 23.47Q193.70 23.06 193.92 22.74Q194.14 22.42 194.33 22.25L194.33 22.25Q194.76 22.08 195.48 21.94Q196.20 21.79 196.97 21.66Q197.74 21.53 198.37 21.46Q199.01 21.38 199.32 21.36L199.32 21.36L199.32 18.12Q198.94 17.90 198.32 17.75Q197.71 17.59 197.11 17.59L197.11 17.59Q196.92 17.57 196.73 17.59Q196.54 17.62 196.34 17.64L196.34 17.64L195.91 20.09L194.09 19.97L193.80 17.35L194.02 17.02Q194.78 16.78 196.04 16.51Q197.30 16.25 198.84 16.25L198.84 16.25Q199.61 16.25 200.17 16.46Q200.74 16.68 201.13 17.02Q201.53 17.35 201.78 17.71Q202.03 18.07 202.15 18.34L202.15 18.34Q202.10 18.96 202.06 19.68Q202.01 20.40 201.98 21.06Q201.96 21.72 201.96 22.10L201.96 22.10Q201.96 23.18 202.02 23.94Q202.08 24.70 202.15 25.20Q202.22 25.70 202.27 25.97L202.27 25.97L203.64 26.14L203.74 26.88Q202.92 27.10 201.98 27.32Q201.05 27.55 199.97 27.72L199.97 27.72L199.42 27.05L199.58 25.30L199.44 25.30Q199.18 25.61 198.89 26.00Q198.60 26.40 198.31 26.78Q198.02 27.17 197.76 27.48ZM196.10 25.58L196.10 25.58Q196.22 25.66 196.42 25.72Q196.61 25.78 196.85 25.84Q197.09 25.90 197.33 25.90L197.33 25.90Q197.47 25.85 197.76 25.60Q198.05 25.34 198.37 25.03Q198.70 24.72 198.97 24.43Q199.25 24.14 199.32 24.02L199.32 24.02L199.32 22.42Q198.77 22.46 198.19 22.58Q197.62 22.70 197.05 22.87Q196.49 23.04 195.96 23.26L195.96 23.26Q195.94 23.35 195.92 23.46Q195.91 23.57 195.91 23.65Q195.91 23.74 195.91 23.83L195.91 23.83Q195.91 24.41 195.97 24.83Q196.03 25.25 196.10 25.58ZM205.18 27.58L205.18 27.58Q205.10 27.36 205.08 27.13Q205.06 26.90 205.06 26.66L205.06 26.66L206.62 26.04Q206.69 25.18 206.72 24.06Q206.76 22.94 206.77 21.79Q206.78 20.64 206.78 19.70L206.78 19.70Q206.78 18.31 206.76 16.82Q206.74 15.34 206.68 14.11Q206.62 12.89 206.52 12.29L206.52 12.29L204.79 11.93Q204.79 11.40 204.94 10.99L204.94 10.99L208.82 10.39L209.71 11.02Q209.69 11.42 209.65 12.18Q209.62 12.94 209.57 13.90Q209.52 14.86 209.50 15.94Q209.47 17.02 209.45 18.07Q209.42 19.13 209.42 20.02L209.42 20.02Q209.42 20.76 209.44 21.67Q209.45 22.58 209.47 23.48Q209.50 24.38 209.52 25.10Q209.54 25.82 209.57 26.16L209.57 26.16L211.25 26.64Q211.25 26.83 211.22 27.05Q211.20 27.26 211.15 27.48L211.15 27.48Q210.67 27.48 209.88 27.49Q209.09 27.50 208.20 27.52Q207.31 27.53 206.51 27.54Q205.70 27.55 205.18 27.58Z"/></svg>