<svg xmlns="http://www.w3.org/2000/svg" xmlns:xlink="http://www.w3.org/1999/xlink" width="269.256" height="34.752"><path fill="black" d="M3.70 27.84L2.59 27.84L2.59 10.37L3.82 10.37L11.23 22.75L13.20 26.21L13.32 26.21Q13.25 24.94 13.19 23.68Q13.13 22.42 13.13 21.17L13.13 21.17L13.13 10.37L14.26 10.37L14.26 27.84L13.03 27.84L5.64 15.48L3.65 12L3.55 12Q3.62 13.25 3.66 14.45Q3.70 15.65 3.70 16.92L3.70 16.92L3.70 27.84ZM23.90 28.15L23.90 28.15Q22.37 28.15 21.07 27.37Q19.78 26.59 18.98 25.10Q18.19 23.62 18.19 21.50L18.19 21.50Q18.19 19.37 18.98 17.87Q19.78 16.37 21.07 15.59Q22.37 14.81 23.90 14.81L23.90 14.81Q25.06 14.81 26.09 15.25Q27.12 15.70 27.91 16.55Q28.70 17.40 29.16 18.66Q29.62 19.92 29.62 21.50L29.62 21.50Q29.62 23.62 28.81 25.10Q28.01 26.59 26.72 27.37Q25.44 28.15 23.90 28.15ZM23.90 27.14L23.90 27.14Q25.20 27.14 26.23 26.44Q27.26 25.73 27.85 24.46Q28.44 23.18 28.44 21.50L28.44 21.50Q28.44 19.80 27.85 18.53Q27.26 17.26 26.23 16.52Q25.20 15.79 23.90 15.79L23.90 15.79Q22.61 15.79 21.59 16.52Q20.57 17.26 19.98 18.53Q19.39 19.80 19.39 21.50L19.39 21.50Q19.39 23.18 19.98 24.46Q20.57 25.73 21.59 26.44Q22.61 27.14 23.90 27.14ZM36.55 28.15L36.55 28.15Q35.35 28.15 34.67 27.68Q33.98 27.22 33.71 26.35Q33.43 25.49 33.43 24.34L33.43 24.34L33.43 16.10L31.44 16.10L31.44 15.24L33.46 15.12L33.58 11.42L34.56 11.42L34.56 15.12L38.26 15.12L38.26 16.10L34.56 16.10L34.56 24.46Q34.56 25.66 34.97 26.41Q35.38 27.17 36.72 27.17L36.72 27.17Q37.08 27.17 37.52 27.05Q37.97 26.93 38.30 26.76L38.30 26.76L38.62 27.67Q38.06 27.86 37.51 28.01Q36.96 28.15 36.55 28.15ZM45.70 28.15L45.70 28.15Q44.16 28.15 42.86 27.37Q41.57 26.59 40.78 25.10Q39.98 23.62 39.98 21.50L39.98 21.50Q39.98 19.37 40.78 17.87Q41.57 16.37 42.86 15.59Q44.16 14.81 45.70 14.81L45.70 14.81Q46.85 14.81 47.88 15.25Q48.91 15.70 49.70 16.55Q50.50 17.40 50.95 18.66Q51.41 19.92 51.41 21.50L51.41 21.50Q51.41 23.62 50.60 25.10Q49.80 26.59 48.52 27.37Q47.23 28.15 45.70 28.15ZM45.70 27.14L45.70 27.14Q46.99 27.14 48.02 26.44Q49.06 25.73 49.64 24.46Q50.23 23.18 50.23 21.50L50.23 21.50Q50.23 19.80 49.64 18.53Q49.06 17.26 48.02 16.52Q46.99 15.79 45.70 15.79L45.70 15.79Q44.40 15.79 43.38 16.52Q42.36 17.26 41.77 18.53Q41.18 19.80 41.18 21.50L41.18 21.50Q41.18 23.18 41.77 24.46Q42.36 25.73 43.38 26.44Q44.40 27.14 45.70 27.14ZM65.21 28.15L65.21 28.15Q63.29 28.15 61.81 27.42Q60.34 26.69 59.33 25.51L59.33 25.51L60.07 24.72Q61.03 25.80 62.36 26.45Q63.70 27.10 65.21 27.10L65.21 27.10Q67.22 27.10 68.41 26.11Q69.60 25.13 69.60 23.57L69.60 23.57Q69.60 22.44 69.17 21.77Q68.74 21.10 68.03 20.68Q67.32 20.26 66.43 19.87L66.43 19.87L63.79 18.70Q63.05 18.34 62.22 17.82Q61.39 17.30 60.82 16.48Q60.24 15.65 60.24 14.35L60.24 14.35Q60.24 13.08 60.90 12.12Q61.56 11.16 62.71 10.61Q63.86 10.06 65.30 10.06L65.30 10.06Q66.89 10.06 68.12 10.67Q69.36 11.28 70.15 12.14L70.15 12.14L69.46 12.91Q68.71 12.12 67.67 11.63Q66.62 11.14 65.30 11.14L65.30 11.14Q63.55 11.14 62.50 11.99Q61.44 12.84 61.44 14.26L61.44 14.26Q61.44 15.29 61.92 15.95Q62.40 16.61 63.12 16.99Q63.84 17.38 64.44 17.66L64.44 17.66L67.08 18.84Q68.06 19.27 68.90 19.85Q69.74 20.42 70.25 21.28Q70.75 22.13 70.75 23.47L70.75 23.47Q70.75 24.79 70.07 25.86Q69.38 26.93 68.14 27.54Q66.89 28.15 65.21 28.15ZM77.11 28.15L77.11 28.15Q76.10 28.15 75.26 27.78Q74.42 27.41 73.92 26.63Q73.42 25.85 73.42 24.67L73.42 24.67Q73.42 22.56 75.40 21.46Q77.38 20.35 81.62 19.87L81.62 19.87Q81.67 18.86 81.44 17.94Q81.22 17.02 80.57 16.40Q79.92 15.79 78.65 15.79L78.65 15.79Q77.33 15.79 76.27 16.31Q75.22 16.82 74.54 17.30L74.54 17.30L74.04 16.44Q74.50 16.13 75.19 15.74Q75.89 15.36 76.80 15.08Q77.71 14.81 78.74 14.81L78.74 14.81Q80.26 14.81 81.14 15.47Q82.03 16.13 82.40 17.23Q82.78 18.34 82.78 19.68L82.78 19.68L82.78 27.84L81.82 27.84L81.70 26.18L81.62 26.18Q80.66 26.98 79.51 27.56Q78.36 28.15 77.11 28.15ZM77.28 27.17L77.28 27.17Q78.38 27.17 79.42 26.64Q80.45 26.11 81.62 25.10L81.62 25.10L81.62 20.76Q79.01 21.05 77.46 21.56Q75.91 22.08 75.24 22.84Q74.57 23.59 74.57 24.62L74.57 24.62Q74.57 26.02 75.37 26.59Q76.18 27.17 77.28 27.17ZM88.49 27.84L87.34 27.84L87.34 15.12L88.30 15.12L88.44 17.11L88.49 17.11Q89.47 16.13 90.50 15.47Q91.54 14.81 92.86 14.81L92.86 14.81Q94.82 14.81 95.77 16.02Q96.72 17.23 96.72 19.68L96.72 19.68L96.72 27.84L95.57 27.84L95.57 19.82Q95.57 17.81 94.88 16.81Q94.20 15.82 92.64 15.82L92.64 15.82Q91.51 15.82 90.58 16.42Q89.64 17.02 88.49 18.22L88.49 18.22L88.49 27.84ZM104.47 28.15L104.47 28.15Q103.06 28.15 101.87 27.64Q100.68 27.12 99.82 26.40L99.82 26.40L100.46 25.56Q101.28 26.23 102.23 26.70Q103.18 27.17 104.52 27.17L104.52 27.17Q106.06 27.17 106.82 26.42Q107.59 25.68 107.59 24.65L107.59 24.65Q107.59 23.83 107.12 23.30Q106.66 22.78 105.92 22.42Q105.19 22.06 104.45 21.79L104.45 21.79Q103.51 21.46 102.61 21.04Q101.71 20.62 101.11 19.93Q100.51 19.25 100.51 18.17L100.51 18.17Q100.51 17.26 100.98 16.49Q101.45 15.72 102.36 15.26Q103.27 14.81 104.59 14.81L104.59 14.81Q105.62 14.81 106.57 15.18Q107.52 15.55 108.22 16.13L108.22 16.13L107.59 16.92Q106.97 16.44 106.25 16.10Q105.53 15.77 104.57 15.77L104.57 15.77Q103.08 15.77 102.36 16.49Q101.64 17.21 101.64 18.12L101.64 18.12Q101.64 18.82 102.06 19.30Q102.48 19.78 103.15 20.09Q103.82 20.40 104.57 20.69L104.57 20.69Q105.34 20.98 106.07 21.28Q106.80 21.58 107.40 22.00Q108 22.42 108.36 23.03Q108.72 23.64 108.72 24.58L108.72 24.58Q108.72 25.54 108.23 26.35Q107.74 27.17 106.80 27.66Q105.86 28.15 104.47 28.15ZM122.52 27.84L121.32 27.84L121.32 11.40L115.78 11.40L115.78 10.37L128.09 10.37L128.09 11.40L122.52 11.40L122.52 27.84ZM137.06 28.15L137.06 28.15Q135.46 28.15 134.12 27.52Q132.79 26.88 131.81 25.69Q130.82 24.50 130.30 22.82Q129.77 21.14 129.77 19.08L129.77 19.08Q129.77 16.99 130.31 15.34Q130.85 13.68 131.83 12.49Q132.82 11.30 134.18 10.68Q135.55 10.06 137.21 10.06L137.21 10.06Q138.74 10.06 139.90 10.70Q141.05 11.35 141.72 12.14L141.72 12.14L141.05 12.91Q140.35 12.12 139.38 11.63Q138.41 11.14 137.21 11.14L137.21 11.14Q135.29 11.14 133.88 12.11Q132.48 13.08 131.74 14.86Q130.99 16.63 130.99 19.06L130.99 19.06Q130.99 21.50 131.74 23.30Q132.48 25.10 133.86 26.10Q135.24 27.10 137.14 27.10L137.14 27.10Q138.48 27.10 139.54 26.54Q140.59 25.99 141.55 24.91L141.55 24.91L142.25 25.68Q141.24 26.83 140.00 27.49Q138.77 28.15 137.06 28.15ZM160.03 27.84L149.66 27.84L149.66 27.14Q152.69 24.53 154.52 22.39Q156.36 20.26 157.18 18.46Q157.99 16.66 157.99 15.05L157.99 15.05Q157.99 13.94 157.61 13.03Q157.22 12.12 156.41 11.59Q155.59 11.06 154.30 11.06L154.30 11.06Q153.14 11.06 152.12 11.68Q151.10 12.29 150.34 13.25L150.34 13.25L149.59 12.55Q150.53 11.50 151.69 10.78Q152.86 10.06 154.42 10.06L154.42 10.06Q155.93 10.06 156.98 10.68Q158.04 11.30 158.60 12.41Q159.17 13.51 159.17 15.02L159.17 15.02Q159.17 16.90 158.26 18.79Q157.34 20.69 155.63 22.69Q153.91 24.70 151.49 26.95L151.49 26.95Q152.18 26.90 152.92 26.87Q153.65 26.83 154.34 26.83L154.34 26.83L160.03 26.83L160.03 27.84ZM167.59 28.15L167.59 28.15Q166.01 28.15 164.87 27.17Q163.73 26.18 163.13 24.16Q162.53 22.13 162.53 19.06L162.53 19.06Q162.53 16.01 163.13 14.03Q163.73 12.05 164.87 11.05Q166.01 10.06 167.59 10.06L167.59 10.06Q169.15 10.06 170.27 11.05Q171.38 12.05 172.00 14.03Q172.61 16.01 172.61 19.06L172.61 19.06Q172.61 22.13 172.00 24.16Q171.38 26.18 170.27 27.17Q169.15 28.15 167.59 28.15ZM167.59 27.17L167.59 27.17Q168.77 27.17 169.64 26.24Q170.52 25.32 171 23.51Q171.48 21.70 171.48 19.06L171.48 19.06Q171.48 16.44 171 14.65Q170.52 12.86 169.64 11.95Q168.77 11.04 167.59 11.04L167.59 11.04Q166.42 11.04 165.53 11.95Q164.64 12.86 164.15 14.65Q163.66 16.44 163.66 19.06L163.66 19.06Q163.66 21.70 164.15 23.51Q164.64 25.32 165.53 26.24Q166.42 27.17 167.59 27.17ZM180.26 28.15L180.26 28.15Q178.68 28.15 177.54 27.17Q176.40 26.18 175.80 24.16Q175.20 22.13 175.20 19.06L175.20 19.06Q175.20 16.01 175.80 14.03Q176.40 12.05 177.54 11.05Q178.68 10.06 180.26 10.06L180.26 10.06Q181.82 10.06 182.94 11.05Q184.06 12.05 184.67 14.03Q185.28 16.01 185.28 19.06L185.28 19.06Q185.28 22.13 184.67 24.16Q184.06 26.18 182.94 27.17Q181.82 28.15 180.26 28.15ZM180.26 27.17L180.26 27.17Q181.44 27.17 182.32 26.24Q183.19 25.32 183.67 23.51Q184.15 21.70 184.15 19.06L184.15 19.06Q184.15 16.44 183.67 14.65Q183.19 12.86 182.32 11.95Q181.44 11.04 180.26 11.04L180.26 11.04Q179.09 11.04 178.20 11.95Q177.31 12.86 176.82 14.65Q176.33 16.44 176.33 19.06L176.33 19.06Q176.33 21.70 176.82 23.51Q177.31 25.32 178.20 26.24Q179.09 27.17 180.26 27.17ZM195.48 27.84L194.33 27.84L194.33 15.12L195.29 15.12L195.43 17.11L195.48 17.11Q196.46 16.13 197.50 15.47Q198.53 14.81 199.85 14.81L199.85 14.81Q201.82 14.81 202.76 16.02Q203.71 17.23 203.71 19.68L203.71 19.68L203.71 27.84L202.56 27.84L202.56 19.82Q202.56 17.81 201.88 16.81Q201.19 15.82 199.63 15.82L199.63 15.82Q198.50 15.82 197.57 16.42Q196.63 17.02 195.48 18.22L195.48 18.22L195.48 27.84ZM213.02 28.15L213.02 28.15Q211.49 28.15 210.19 27.37Q208.90 26.59 208.10 25.10Q207.31 23.62 207.31 21.50L207.31 21.50Q207.31 19.37 208.10 17.87Q208.90 16.37 210.19 15.59Q211.49 14.81 213.02 14.81L213.02 14.81Q214.18 14.81 215.21 15.25Q216.24 15.70 217.03 16.55Q217.82 17.40 218.28 18.66Q218.74 19.92 218.74 21.50L218.74 21.50Q218.74 23.62 217.93 25.10Q217.13 26.59 215.84 27.37Q214.56 28.15 213.02 28.15ZM213.02 27.14L213.02 27.14Q214.32 27.14 215.35 26.44Q216.38 25.73 216.97 24.46Q217.56 23.18 217.56 21.50L217.56 21.50Q217.56 19.80 216.97 18.53Q216.38 17.26 215.35 16.52Q214.32 15.79 213.02 15.79L213.02 15.79Q211.73 15.79 210.71 16.52Q209.69 17.26 209.10 18.53Q208.51 19.80 208.51 21.50L208.51 21.50Q208.51 23.18 209.10 24.46Q209.69 25.73 210.71 26.44Q211.73 27.14 213.02 27.14ZM223.70 27.84L222.55 27.84L222.55 15.12L223.51 15.12L223.66 17.50L223.70 17.50Q224.35 16.32 225.28 15.56Q226.20 14.81 227.30 14.81L227.30 14.81Q227.66 14.81 227.96 14.86Q228.26 14.90 228.58 15.07L228.58 15.07L228.31 16.08Q228.00 15.96 227.77 15.91Q227.54 15.86 227.16 15.86L227.16 15.86Q226.32 15.86 225.37 16.61Q224.42 17.35 223.70 19.18L223.70 19.18L223.70 27.84ZM232.08 27.84L230.93 27.84L230.93 15.12L231.89 15.12L232.03 17.11L232.08 17.11Q232.94 16.13 233.99 15.47Q235.03 14.81 236.11 14.81L236.11 14.81Q237.65 14.81 238.46 15.52Q239.28 16.22 239.62 17.40L239.62 17.40Q240.72 16.20 241.78 15.50Q242.83 14.81 243.94 14.81L243.94 14.81Q245.83 14.81 246.78 16.02Q247.73 17.23 247.73 19.68L247.73 19.68L247.73 27.84L246.62 27.84L246.62 19.82Q246.62 17.81 245.92 16.81Q245.21 15.82 243.72 15.82L243.72 15.82Q242.83 15.82 241.91 16.42Q240.98 17.02 239.88 18.22L239.88 18.22L239.88 27.84L238.78 27.84L238.78 19.82Q238.78 17.81 238.08 16.81Q237.38 15.82 235.92 15.82L235.92 15.82Q235.03 15.82 234.07 16.42Q233.11 17.02 232.08 18.22L232.08 18.22L232.08 27.84ZM255.24 28.15L255.24 28.15Q254.23 28.15 253.39 27.78Q252.55 27.41 252.05 26.63Q251.54 25.85 251.54 24.67L251.54 24.67Q251.54 22.56 253.52 21.46Q255.50 20.35 259.75 19.87L259.75 19.87Q259.80 18.86 259.57 17.94Q259.34 17.02 258.70 16.40Q258.05 15.79 256.78 15.79L256.78 15.79Q255.46 15.79 254.40 16.31Q253.34 16.82 252.67 17.30L252.67 17.30L252.17 16.44Q252.62 16.13 253.32 15.74Q254.02 15.36 254.93 15.08Q255.84 14.81 256.87 14.81L256.87 14.81Q258.38 14.81 259.27 15.47Q260.16 16.13 260.53 17.23Q260.90 18.34 260.90 19.68L260.90 19.68L260.90 27.84L259.94 27.84L259.82 26.18L259.75 26.18Q258.79 26.98 257.64 27.56Q256.49 28.15 255.24 28.15ZM255.41 27.17L255.41 27.17Q256.51 27.17 257.54 26.64Q258.58 26.11 259.75 25.10L259.75 25.10L259.75 20.76Q257.14 21.05 255.59 21.56Q254.04 22.08 253.37 22.84Q252.70 23.59 252.70 24.62L252.70 24.62Q252.70 26.02 253.50 26.59Q254.30 27.17 255.41 27.17ZM266.98 28.15L266.98 28.15Q266.47 28.15 266.15 27.94Q265.82 27.72 265.64 27.29Q265.46 26.86 265.46 26.18L265.46 26.18L265.46 8.78L266.62 8.78L266.62 26.33Q266.62 26.74 266.76 26.94Q266.90 27.14 267.14 27.14L267.14 27.14Q267.24 27.14 267.34 27.13Q267.43 27.12 267.62 27.10L267.62 27.10L267.82 28.03Q267.62 28.08 267.46 28.12Q267.29 28.15 266.98 28.15Z"/></svg>