<svg xmlns="http://www.w3.org/2000/svg" xmlns:xlink="http://www.w3.org/1999/xlink" width="290.2320000000001" height="29.064"><path fill="black" d="M9.17 22.46Q6.36 22.46 4.52 21.30Q2.69 20.14 1.85 18.34Q1.01 16.54 1.01 14.54L1.01 14.54Q1.01 12.31 2.16 10.57Q3.31 8.83 5.20 7.87Q7.08 6.91 9.24 6.91L9.24 6.91Q10.42 6.91 11.59 7.14Q12.77 7.37 13.49 7.75L13.49 7.75Q13.68 7.87 13.73 7.97Q13.78 8.06 13.80 8.33L13.80 8.33L14.06 10.99Q14.06 11.09 13.96 11.10Q13.85 11.11 13.80 11.04L13.80 11.04Q13.22 9.19 11.82 8.32Q10.42 7.44 8.38 7.44L8.38 7.44Q6.65 7.44 5.39 8.23Q4.13 9.02 3.46 10.48Q2.78 11.93 2.78 13.87L2.78 13.87Q2.78 16.13 3.65 18.02Q4.51 19.92 5.99 21.02Q7.46 22.13 9.26 22.13L9.26 22.13Q10.78 22.13 12.02 21.18Q13.27 20.23 14.02 18.34L14.02 18.34Q14.04 18.24 14.16 18.26Q14.28 18.29 14.28 18.36L14.28 18.36L14.04 21.02Q13.99 21.34 13.94 21.41Q13.90 21.48 13.68 21.58L13.68 21.58Q11.52 22.46 9.17 22.46L9.17 22.46ZM20.04 22.51Q18.79 22.51 17.87 21.90Q16.94 21.29 16.44 20.23Q15.94 19.18 15.94 17.86L15.94 17.86Q15.94 16.37 16.54 15.17Q17.14 13.97 18.20 13.28Q19.27 12.60 20.64 12.60L20.64 12.60Q22.46 12.60 23.60 13.81Q24.74 15.02 24.74 17.16L24.74 17.16Q24.74 18.79 24.10 20.02Q23.45 21.24 22.37 21.88Q21.29 22.51 20.04 22.51L20.04 22.51ZM20.76 21.91Q21.94 21.91 22.70 20.93Q23.47 19.94 23.47 18.26L23.47 18.26Q23.47 16.97 23.03 15.79Q22.58 14.62 21.78 13.90Q20.98 13.18 19.97 13.18L19.97 13.18Q18.79 13.18 18 14.14Q17.21 15.10 17.21 16.78L17.21 16.78Q17.21 18.05 17.66 19.24Q18.12 20.42 18.94 21.17Q19.75 21.91 20.76 21.91L20.76 21.91ZM31.97 12.67Q32.52 12.67 33.04 13.03Q33.55 13.39 33.55 13.85L33.55 13.85Q33.55 14.18 33.31 14.41Q33.07 14.64 32.76 14.64L32.76 14.64Q32.50 14.64 32.33 14.54Q32.16 14.45 31.97 14.28L31.97 14.28Q31.85 14.16 31.72 14.08Q31.58 13.99 31.42 13.99L31.42 13.99Q30.86 13.99 30.34 15.36Q29.81 16.73 29.46 18.64Q29.11 20.54 29.09 22.01L29.09 22.01Q29.09 22.18 28.88 22.27Q28.68 22.37 28.32 22.37L28.32 22.37Q27.96 22.37 27.84 22.33Q27.72 22.30 27.70 22.22L27.70 22.22Q27.70 22.13 27.72 21.68Q27.74 21.24 27.74 20.40L27.74 20.40L27.79 15.96Q27.79 13.63 26.88 13.63L26.88 13.63Q26.16 13.63 25.34 14.50L25.34 14.50L25.30 14.52Q25.22 14.52 25.16 14.45Q25.10 14.38 25.13 14.33L25.13 14.33Q25.73 13.56 26.44 13.13Q27.14 12.70 27.77 12.70L27.77 12.70Q28.44 12.70 28.79 13.37Q29.14 14.04 29.11 15.91L29.11 15.91L29.11 18.70Q29.47 16.18 30.22 14.42Q30.96 12.67 31.97 12.67L31.97 12.67ZM51.72 20.33Q51.74 20.30 51.79 20.30L51.79 20.30Q51.89 20.30 51.97 20.39Q52.06 20.47 52.01 20.52L52.01 20.52Q51.24 21.50 50.68 21.95Q50.11 22.39 49.51 22.39L49.51 22.39Q48.17 22.39 48.17 20.50L48.17 20.50L48.19 16.22Q48.19 13.54 46.85 13.54L46.85 13.54Q45.98 13.54 45.25 14.56Q44.52 15.58 44.09 17.50Q43.66 19.42 43.66 22.01L43.66 22.01Q43.66 22.18 43.45 22.27Q43.25 22.37 42.89 22.37L42.89 22.37Q42.53 22.37 42.41 22.33Q42.29 22.30 42.26 22.22L42.26 22.22Q42.26 22.13 42.29 21.68Q42.31 21.24 42.31 20.40L42.31 20.40L42.34 16.22Q42.31 13.54 41.02 13.54L41.02 13.54Q40.18 13.54 39.46 14.54Q38.74 15.55 38.29 17.44Q37.85 19.32 37.85 21.82L37.85 21.82L37.85 22.01Q37.85 22.18 37.64 22.27Q37.44 22.37 37.06 22.37L37.06 22.37Q36.72 22.37 36.60 22.33Q36.48 22.30 36.43 22.22L36.43 22.22L36.50 20.52L36.55 15.05Q36.55 14.33 36.36 13.98Q36.17 13.63 35.83 13.63L35.83 13.63Q35.30 13.63 34.22 14.78L34.22 14.78Q34.18 14.83 34.13 14.83L34.13 14.83Q34.06 14.83 34.00 14.75Q33.94 14.66 33.96 14.59L33.96 14.59Q34.68 13.63 35.30 13.16Q35.93 12.70 36.60 12.70L36.60 12.70Q37.27 12.70 37.57 13.15Q37.87 13.61 37.87 14.54L37.87 14.54L37.87 17.74Q38.30 15.31 39.30 13.96Q40.30 12.60 41.71 12.60L41.71 12.60Q42.72 12.60 43.21 13.36Q43.70 14.11 43.68 15.77L43.68 15.77L43.68 17.78Q44.11 15.31 45.11 13.96Q46.10 12.60 47.52 12.60L47.52 12.60Q48.55 12.60 49.03 13.37Q49.51 14.14 49.54 15.77L49.54 15.77L49.51 20.04Q49.51 21.43 50.18 21.43L50.18 21.43Q50.78 21.43 51.72 20.33L51.72 20.33ZM56.71 22.51Q55.46 22.51 54.54 21.90Q53.62 21.29 53.11 20.23Q52.61 19.18 52.61 17.86L52.61 17.86Q52.61 16.37 53.21 15.17Q53.81 13.97 54.88 13.28Q55.94 12.60 57.31 12.60L57.31 12.60Q59.14 12.60 60.28 13.81Q61.42 15.02 61.42 17.16L61.42 17.16Q61.42 18.79 60.77 20.02Q60.12 21.24 59.04 21.88Q57.96 22.51 56.71 22.51L56.71 22.51ZM57.43 21.91Q58.61 21.91 59.38 20.93Q60.14 19.94 60.14 18.26L60.14 18.26Q60.14 16.97 59.70 15.79Q59.26 14.62 58.45 13.90Q57.65 13.18 56.64 13.18L56.64 13.18Q55.46 13.18 54.67 14.14Q53.88 15.10 53.88 16.78L53.88 16.78Q53.88 18.05 54.34 19.24Q54.79 20.42 55.61 21.17Q56.42 21.91 57.43 21.91L57.43 21.91ZM68.64 12.67Q69.19 12.67 69.71 13.03Q70.22 13.39 70.22 13.85L70.22 13.85Q70.22 14.18 69.98 14.41Q69.74 14.64 69.43 14.64L69.43 14.64Q69.17 14.64 69 14.54Q68.83 14.45 68.64 14.28L68.64 14.28Q68.52 14.16 68.39 14.08Q68.26 13.99 68.09 13.99L68.09 13.99Q67.54 13.99 67.01 15.36Q66.48 16.73 66.13 18.64Q65.78 20.54 65.76 22.01L65.76 22.01Q65.76 22.18 65.56 22.27Q65.35 22.37 64.99 22.37L64.99 22.37Q64.63 22.37 64.51 22.33Q64.39 22.30 64.37 22.22L64.37 22.22Q64.37 22.13 64.39 21.68Q64.42 21.24 64.42 20.40L64.42 20.40L64.46 15.96Q64.46 13.63 63.55 13.63L63.55 13.63Q62.83 13.63 62.02 14.50L62.02 14.50L61.97 14.52Q61.90 14.52 61.84 14.45Q61.78 14.38 61.80 14.33L61.80 14.33Q62.40 13.56 63.11 13.13Q63.82 12.70 64.44 12.70L64.44 12.70Q65.11 12.70 65.46 13.37Q65.81 14.04 65.78 15.91L65.78 15.91L65.78 18.70Q66.14 16.18 66.89 14.42Q67.63 12.67 68.64 12.67L68.64 12.67ZM81.24 20.33Q81.26 20.30 81.31 20.30L81.31 20.30Q81.38 20.30 81.46 20.39Q81.53 20.47 81.50 20.52L81.50 20.52Q80.81 21.48 80.22 21.94Q79.63 22.39 79.03 22.39L79.03 22.39Q77.69 22.39 77.69 20.50L77.69 20.50L77.74 17.52Q76.94 19.75 75.66 21.12Q74.38 22.49 72.94 22.49L72.94 22.49Q72.02 22.49 71.46 21.85Q70.90 21.22 70.90 19.82L70.90 19.82Q70.90 18.17 71.70 16.48Q72.50 14.78 73.80 13.69Q75.10 12.60 76.44 12.60L76.44 12.60Q76.94 12.60 77.44 12.77Q77.93 12.94 78.31 13.27L78.31 13.27Q78.70 12.89 78.77 12.43L78.77 12.43Q78.79 12.38 78.95 12.38Q79.10 12.38 79.08 12.43L79.08 12.43L79.03 20.04Q79.01 21.43 79.70 21.43L79.70 21.43Q80.30 21.43 81.24 20.33L81.24 20.33ZM73.70 21.31Q74.69 21.31 75.60 20.36Q76.51 19.42 77.08 18.02Q77.64 16.63 77.64 15.41L77.64 15.41Q77.64 14.52 77.12 13.98Q76.61 13.44 75.77 13.44L75.77 13.44Q74.81 13.44 73.99 14.14Q73.18 14.83 72.70 16.06Q72.22 17.28 72.22 18.79L72.22 18.79Q72.22 20.09 72.59 20.70Q72.96 21.31 73.70 21.31L73.70 21.31ZM93.26 20.33L93.31 20.30Q93.41 20.30 93.49 20.39Q93.58 20.47 93.53 20.52L93.53 20.52Q92.78 21.48 92.22 21.94Q91.66 22.39 91.03 22.39L91.03 22.39Q89.66 22.39 89.71 20.50L89.71 20.50L89.74 16.22Q89.74 13.54 88.32 13.54L88.32 13.54Q87.41 13.54 86.65 14.52Q85.90 15.50 85.44 17.42Q84.98 19.34 84.96 22.01L84.96 22.01Q84.96 22.18 84.76 22.27Q84.55 22.37 84.17 22.37L84.17 22.37Q83.81 22.37 83.69 22.33Q83.57 22.30 83.52 22.22L83.52 22.22Q83.52 22.13 83.56 21.56Q83.59 21.00 83.59 20.40L83.59 20.40L83.64 15.05Q83.64 14.33 83.45 13.98Q83.26 13.63 82.92 13.63L82.92 13.63Q82.39 13.63 81.31 14.78L81.31 14.78Q81.26 14.83 81.24 14.83L81.24 14.83Q81.14 14.83 81.07 14.75Q81 14.66 81.05 14.59L81.05 14.59Q81.77 13.63 82.39 13.16Q83.02 12.70 83.69 12.70L83.69 12.70Q84.36 12.70 84.66 13.15Q84.96 13.61 84.96 14.54L84.96 14.54L84.96 17.95Q85.42 15.43 86.46 14.02Q87.50 12.60 88.99 12.60L88.99 12.60Q90.05 12.60 90.58 13.36Q91.10 14.11 91.08 15.77L91.08 15.77L91.06 20.04Q91.06 20.76 91.21 21.10Q91.37 21.43 91.73 21.43L91.73 21.43Q92.28 21.43 93.26 20.33L93.26 20.33ZM100.49 20.47L100.51 20.47Q100.58 20.47 100.66 20.56Q100.73 20.64 100.68 20.69L100.68 20.69Q99.67 21.62 98.87 22.04Q98.06 22.46 97.25 22.46L97.25 22.46Q96.34 22.46 95.74 21.98Q95.14 21.50 95.16 20.42L95.16 20.42L95.18 14.83Q95.16 14.21 95.09 13.94Q95.02 13.68 94.79 13.60Q94.56 13.51 94.01 13.51L94.01 13.51Q93.91 13.51 93.90 13.37Q93.89 13.22 93.98 13.22L93.98 13.22Q94.90 13.22 95.46 12.71Q96.02 12.19 96.12 11.38L96.12 11.38Q96.12 11.30 96.31 11.30L96.31 11.30Q96.55 11.30 96.55 11.38L96.55 11.38L96.55 13.15Q97.44 13.13 99.89 12.98L99.89 12.98Q99.98 12.98 100.04 13.04Q100.10 13.10 100.10 13.20L100.10 13.20Q100.08 13.44 99.85 13.73Q99.62 14.02 99.34 13.97L99.34 13.97Q97.68 13.75 96.55 13.73L96.55 13.73L96.53 19.68Q96.53 20.66 96.88 21.11Q97.22 21.55 98.11 21.55L98.11 21.55Q98.78 21.55 99.34 21.28Q99.89 21.00 100.49 20.47L100.49 20.47ZM123.62 21.89Q123.70 21.89 123.71 22.03Q123.72 22.18 123.62 22.18L123.62 22.18L121.56 22.15L120.26 22.18Q120 22.18 119.93 22.09Q119.86 22.01 119.86 21.72L119.86 21.72L119.86 20.11Q118.54 21.36 117.28 21.91Q116.02 22.46 114.58 22.46L114.58 22.46Q112.99 22.46 111.74 21.89Q110.50 21.31 109.79 20.23Q109.08 19.15 109.08 17.71L109.08 17.71L109.08 9.12Q109.08 8.40 108.94 8.06Q108.79 7.73 108.41 7.60Q108.02 7.46 107.18 7.46L107.18 7.46Q107.14 7.46 107.14 7.32Q107.14 7.18 107.18 7.18L107.18 7.18L108.26 7.20Q109.18 7.25 109.80 7.25L109.80 7.25Q110.42 7.25 111.43 7.20L111.43 7.20L112.54 7.18Q112.58 7.18 112.58 7.32Q112.58 7.46 112.54 7.46L112.54 7.46Q111.70 7.46 111.30 7.61Q110.90 7.75 110.77 8.10Q110.64 8.45 110.62 9.17L110.62 9.17L110.64 16.87Q110.62 19.22 111.80 20.52Q112.99 21.82 115.18 21.82L115.18 21.82Q116.42 21.82 117.52 21.31Q118.61 20.81 119.86 19.63L119.86 19.63L119.83 9.17Q119.86 8.45 119.72 8.10Q119.59 7.75 119.20 7.61Q118.80 7.46 117.96 7.46L117.96 7.46Q117.91 7.46 117.91 7.32Q117.91 7.18 117.96 7.18L117.96 7.18L119.04 7.20Q120 7.25 120.60 7.25L120.60 7.25Q121.18 7.25 122.18 7.20L122.18 7.20L123.31 7.18Q123.36 7.18 123.36 7.32Q123.36 7.46 123.31 7.46L123.31 7.46Q122.47 7.46 122.08 7.60Q121.68 7.73 121.54 8.06Q121.39 8.40 121.39 9.12L121.39 9.12L121.39 20.23Q121.39 20.95 121.55 21.30Q121.70 21.65 122.17 21.77Q122.64 21.89 123.62 21.89L123.62 21.89ZM128.86 22.20Q128.28 22.20 127.56 22.13L127.56 22.13L127.56 26.45Q127.56 27.29 127.80 27.61Q128.04 27.94 128.69 27.94L128.69 27.94Q128.86 27.94 129.34 27.89L129.34 27.89L129.36 27.89Q129.43 27.89 129.46 28.01Q129.48 28.13 129.38 28.15L129.38 28.15L124.97 28.78Q124.87 28.80 124.84 28.66Q124.80 28.51 124.90 28.49L124.90 28.49Q125.47 28.39 125.72 28.24Q125.98 28.08 126.06 27.74Q126.14 27.41 126.14 26.62L126.14 26.62L126.17 15.22Q126.05 15.29 125.14 16.03L125.14 16.03L125.09 16.06Q124.99 16.06 124.92 15.96Q124.85 15.86 124.90 15.82L124.90 15.82Q125.30 15.43 126.17 14.71L126.17 14.71L126.17 12.91Q126.17 12.86 126.48 12.58Q126.79 12.29 127.03 11.95Q127.27 11.62 127.27 11.18L127.27 11.18Q127.27 11.09 127.42 11.09Q127.56 11.09 127.56 11.18L127.56 11.18L127.56 13.78Q129.34 12.74 130.94 12.74L130.94 12.74Q132.46 12.74 133.27 13.66Q134.09 14.57 134.09 16.32L134.09 16.32Q134.09 17.95 133.44 19.30Q132.79 20.64 131.60 21.42Q130.42 22.20 128.86 22.20L128.86 22.20ZM129.98 13.61Q128.81 13.61 127.56 14.30L127.56 14.30L127.56 21.12Q128.59 21.53 129.55 21.53L129.55 21.53Q131.30 21.53 132.04 20.40Q132.77 19.27 132.77 17.26L132.77 17.26Q132.77 13.61 129.98 13.61L129.98 13.61ZM141.48 12.67Q142.03 12.67 142.55 13.03Q143.06 13.39 143.06 13.85L143.06 13.85Q143.06 14.18 142.82 14.41Q142.58 14.64 142.27 14.64L142.27 14.64Q142.01 14.64 141.84 14.54Q141.67 14.45 141.48 14.28L141.48 14.28Q141.36 14.16 141.23 14.08Q141.10 13.99 140.93 13.99L140.93 13.99Q140.38 13.99 139.85 15.36Q139.32 16.73 138.97 18.64Q138.62 20.54 138.60 22.01L138.60 22.01Q138.60 22.18 138.40 22.27Q138.19 22.37 137.83 22.37L137.83 22.37Q137.47 22.37 137.35 22.33Q137.23 22.30 137.21 22.22L137.21 22.22Q137.21 22.13 137.23 21.68Q137.26 21.24 137.26 20.40L137.26 20.40L137.30 15.96Q137.30 13.63 136.39 13.63L136.39 13.63Q135.67 13.63 134.86 14.50L134.86 14.50L134.81 14.52Q134.74 14.52 134.68 14.45Q134.62 14.38 134.64 14.33L134.64 14.33Q135.24 13.56 135.95 13.13Q136.66 12.70 137.28 12.70L137.28 12.70Q137.95 12.70 138.30 13.37Q138.65 14.04 138.62 15.91L138.62 15.91L138.62 18.70Q138.98 16.18 139.73 14.42Q140.47 12.67 141.48 12.67L141.48 12.67ZM147.46 22.39Q146.78 22.39 146.44 21.91Q146.09 21.43 146.11 20.50L146.11 20.50L146.18 15.05Q146.21 13.63 145.49 13.63L145.49 13.63Q144.91 13.63 143.88 14.78L143.88 14.78Q143.83 14.83 143.81 14.83L143.81 14.83Q143.71 14.83 143.64 14.75Q143.57 14.66 143.62 14.59L143.62 14.59Q144.34 13.63 144.96 13.16Q145.58 12.70 146.26 12.70L146.26 12.70Q146.93 12.70 147.24 13.15Q147.55 13.61 147.55 14.54L147.55 14.54L147.48 20.04Q147.48 21.43 148.15 21.43L148.15 21.43Q148.75 21.43 149.69 20.33L149.69 20.33Q149.71 20.30 149.76 20.30L149.76 20.30Q149.86 20.30 149.94 20.39Q150.02 20.47 149.98 20.52L149.98 20.52Q149.23 21.48 148.66 21.94Q148.08 22.39 147.46 22.39L147.46 22.39ZM146.62 9.89Q146.11 9.89 145.82 9.61Q145.54 9.34 145.54 8.83L145.54 8.83Q145.54 8.38 145.82 8.11Q146.11 7.85 146.62 7.85L146.62 7.85Q147.07 7.85 147.35 8.11Q147.62 8.38 147.62 8.83L147.62 8.83Q147.62 9.34 147.36 9.61Q147.10 9.89 146.62 9.89L146.62 9.89ZM158.62 12.41Q158.64 12.34 158.78 12.34Q158.93 12.34 158.93 12.43L158.93 12.43L158.88 23.66Q158.88 26.04 157.64 27.48Q156.41 28.92 154.22 28.92L154.22 28.92Q152.90 28.92 152.02 28.38Q151.13 27.84 151.13 27.05L151.13 27.05Q151.13 26.38 151.87 26.38L151.87 26.38Q152.18 26.38 152.40 26.56Q152.62 26.74 152.88 27.12L152.88 27.12Q153.29 27.72 153.76 28.06Q154.22 28.39 155.16 28.39L155.16 28.39Q156.24 28.39 156.89 27.49Q157.54 26.59 157.54 24.24L157.54 24.24L157.54 17.57Q156.74 19.80 155.48 21.14Q154.22 22.49 152.83 22.49L152.83 22.49Q150.91 22.49 150.74 19.99L150.74 19.99Q150.70 18.29 151.50 16.56Q152.30 14.83 153.61 13.72Q154.92 12.60 156.29 12.60L156.29 12.60Q157.39 12.60 158.14 13.25L158.14 13.25Q158.54 12.89 158.62 12.41L158.62 12.41ZM157.49 15.36Q157.49 14.52 156.97 13.98Q156.46 13.44 155.52 13.44L155.52 13.44Q154.63 13.46 153.83 14.16Q153.02 14.86 152.54 16.06Q152.06 17.26 152.06 18.72L152.06 18.72Q152.06 21.31 153.55 21.31L153.55 21.31Q154.51 21.31 155.42 20.39Q156.34 19.46 156.91 18.07Q157.49 16.68 157.49 15.36L157.49 15.36ZM171.89 20.33Q171.91 20.30 171.96 20.30L171.96 20.30Q172.06 20.30 172.14 20.39Q172.22 20.47 172.18 20.52L172.18 20.52Q171.41 21.50 170.84 21.95Q170.28 22.39 169.68 22.39L169.68 22.39Q168.31 22.39 168.36 20.50L168.36 20.50L168.38 16.22Q168.41 13.54 166.94 13.54L166.94 13.54Q166.03 13.54 165.29 14.52Q164.54 15.50 164.09 17.42Q163.63 19.34 163.58 22.01L163.58 22.01Q163.58 22.37 162.82 22.37L162.82 22.37Q162.46 22.37 162.34 22.33Q162.22 22.30 162.19 22.22L162.19 22.22L162.22 21.65L162.24 20.40L162.41 7.32Q162.41 6.19 161.62 6.19L161.62 6.19Q161.18 6.19 160.39 6.55L160.39 6.55L160.34 6.55Q160.25 6.55 160.21 6.44Q160.18 6.34 160.25 6.29L160.25 6.29L163.39 4.78L163.44 4.78Q163.51 4.78 163.61 4.85Q163.70 4.92 163.70 4.97L163.70 4.97L163.61 17.98Q164.06 15.46 165.11 14.03Q166.15 12.60 167.64 12.60L167.64 12.60Q168.70 12.60 169.21 13.37Q169.73 14.14 169.70 15.77L169.70 15.77L169.68 20.04Q169.68 20.76 169.85 21.10Q170.02 21.43 170.38 21.43L170.38 21.43Q170.98 21.43 171.89 20.33L171.89 20.33ZM179.14 20.47L179.16 20.47Q179.23 20.47 179.30 20.56Q179.38 20.64 179.33 20.69L179.33 20.69Q178.32 21.62 177.52 22.04Q176.71 22.46 175.90 22.46L175.90 22.46Q174.98 22.46 174.38 21.98Q173.78 21.50 173.81 20.42L173.81 20.42L173.83 14.83Q173.81 14.21 173.74 13.94Q173.66 13.68 173.44 13.60Q173.21 13.51 172.66 13.51L172.66 13.51Q172.56 13.51 172.55 13.37Q172.54 13.22 172.63 13.22L172.63 13.22Q173.54 13.22 174.11 12.71Q174.67 12.19 174.77 11.38L174.77 11.38Q174.77 11.30 174.96 11.30L174.96 11.30Q175.20 11.30 175.20 11.38L175.20 11.38L175.20 13.15Q176.09 13.13 178.54 12.98L178.54 12.98Q178.63 12.98 178.69 13.04Q178.75 13.10 178.75 13.20L178.75 13.20Q178.73 13.44 178.50 13.73Q178.27 14.02 177.98 13.97L177.98 13.97Q176.33 13.75 175.20 13.73L175.20 13.73L175.18 19.68Q175.18 20.66 175.52 21.11Q175.87 21.55 176.76 21.55L176.76 21.55Q177.43 21.55 177.98 21.28Q178.54 21.00 179.14 20.47L179.14 20.47ZM194.95 21.12Q195.05 21.12 195.05 21.58L195.05 21.58Q195.05 21.77 195.01 21.96Q194.98 22.15 194.93 22.15L194.93 22.15Q194.21 22.10 192.91 22.06L192.91 22.06L192.91 25.85Q192.91 26.11 192.72 26.18L192.72 26.18L191.71 26.69Q191.57 26.74 191.57 26.74L191.57 26.74Q191.50 26.74 191.50 26.54L191.50 26.54L191.50 22.03Q189.98 21.98 185.71 21.98L185.71 21.98Q185.59 21.98 185.52 21.89Q185.45 21.79 185.54 21.70L185.54 21.70L192.55 12.67Q192.60 12.62 192.70 12.62L192.70 12.62Q192.77 12.62 192.84 12.66Q192.91 12.70 192.91 12.77L192.91 12.77L192.91 21.17Q193.46 21.17 194.95 21.12L194.95 21.12ZM186.89 21.26Q188.95 21.26 191.50 21.22L191.50 21.22L191.50 15.05L186.77 21.10Q186.70 21.17 186.73 21.22Q186.77 21.26 186.89 21.26L186.89 21.26ZM201.60 22.49Q200.18 22.49 199.07 21.84Q197.95 21.19 197.32 20.05Q196.68 18.91 196.68 17.47L196.68 17.47Q196.68 16.06 197.32 14.95Q197.95 13.85 199.08 13.22Q200.21 12.60 201.62 12.60L201.62 12.60Q203.02 12.60 204.12 13.24Q205.22 13.87 205.84 15.00Q206.45 16.13 206.45 17.54L206.45 17.54Q206.45 18.96 205.82 20.09Q205.20 21.22 204.10 21.85Q202.99 22.49 201.60 22.49L201.60 22.49ZM201.86 22.15Q203.30 22.15 204.04 20.99Q204.77 19.82 204.77 17.83L204.77 17.83Q204.77 15.43 203.80 14.18Q202.82 12.94 201.36 12.94L201.36 12.94Q199.94 12.94 199.14 14.14Q198.34 15.34 198.34 17.28L198.34 17.28Q198.34 19.42 199.30 20.78Q200.26 22.15 201.86 22.15L201.86 22.15ZM213.05 22.49Q211.63 22.49 210.52 21.84Q209.40 21.19 208.76 20.05Q208.13 18.91 208.13 17.47L208.13 17.47Q208.13 16.06 208.76 14.95Q209.40 13.85 210.53 13.22Q211.66 12.60 213.07 12.60L213.07 12.60Q214.46 12.60 215.57 13.24Q216.67 13.87 217.28 15.00Q217.90 16.13 217.90 17.54L217.90 17.54Q217.90 18.96 217.27 20.09Q216.65 21.22 215.54 21.85Q214.44 22.49 213.05 22.49L213.05 22.49ZM213.31 22.15Q214.75 22.15 215.48 20.99Q216.22 19.82 216.22 17.83L216.22 17.83Q216.22 15.43 215.24 14.18Q214.27 12.94 212.81 12.94L212.81 12.94Q211.39 12.94 210.59 14.14Q209.78 15.34 209.78 17.28L209.78 17.28Q209.78 19.42 210.74 20.78Q211.70 22.15 213.31 22.15L213.31 22.15ZM236.40 20.33L236.45 20.30Q236.54 20.30 236.63 20.39Q236.71 20.47 236.66 20.52L236.66 20.52Q235.92 21.48 235.36 21.94Q234.79 22.39 234.17 22.39L234.17 22.39Q232.80 22.39 232.85 20.50L232.85 20.50L232.87 16.22Q232.87 13.54 231.46 13.54L231.46 13.54Q230.54 13.54 229.79 14.52Q229.03 15.50 228.58 17.42Q228.12 19.34 228.10 22.01L228.10 22.01Q228.10 22.18 227.89 22.27Q227.69 22.37 227.30 22.37L227.30 22.37Q226.94 22.37 226.82 22.33Q226.70 22.30 226.66 22.22L226.66 22.22Q226.66 22.13 226.69 21.56Q226.73 21.00 226.73 20.40L226.73 20.40L226.78 15.05Q226.78 14.33 226.58 13.98Q226.39 13.63 226.06 13.63L226.06 13.63Q225.53 13.63 224.45 14.78L224.45 14.78Q224.40 14.83 224.38 14.83L224.38 14.83Q224.28 14.83 224.21 14.75Q224.14 14.66 224.18 14.59L224.18 14.59Q224.90 13.63 225.53 13.16Q226.15 12.70 226.82 12.70L226.82 12.70Q227.50 12.70 227.80 13.15Q228.10 13.61 228.10 14.54L228.10 14.54L228.10 17.95Q228.55 15.43 229.60 14.02Q230.64 12.60 232.13 12.60L232.13 12.60Q233.18 12.60 233.71 13.36Q234.24 14.11 234.22 15.77L234.22 15.77L234.19 20.04Q234.19 20.76 234.35 21.10Q234.50 21.43 234.86 21.43L234.86 21.43Q235.42 21.43 236.40 20.33L236.40 20.33ZM241.37 22.51Q240.12 22.51 239.20 21.90Q238.27 21.29 237.77 20.23Q237.26 19.18 237.26 17.86L237.26 17.86Q237.26 16.37 237.86 15.17Q238.46 13.97 239.53 13.28Q240.60 12.60 241.97 12.60L241.97 12.60Q243.79 12.60 244.93 13.81Q246.07 15.02 246.07 17.16L246.07 17.16Q246.07 18.79 245.42 20.02Q244.78 21.24 243.70 21.88Q242.62 22.51 241.37 22.51L241.37 22.51ZM242.09 21.91Q243.26 21.91 244.03 20.93Q244.80 19.94 244.80 18.26L244.80 18.26Q244.80 16.97 244.36 15.79Q243.91 14.62 243.11 13.90Q242.30 13.18 241.30 13.18L241.30 13.18Q240.12 13.18 239.33 14.14Q238.54 15.10 238.54 16.78L238.54 16.78Q238.54 18.05 238.99 19.24Q239.45 20.42 240.26 21.17Q241.08 21.91 242.09 21.91L242.09 21.91ZM253.30 12.67Q253.85 12.67 254.36 13.03Q254.88 13.39 254.88 13.85L254.88 13.85Q254.88 14.18 254.64 14.41Q254.40 14.64 254.09 14.64L254.09 14.64Q253.82 14.64 253.66 14.54Q253.49 14.45 253.30 14.28L253.30 14.28Q253.18 14.16 253.04 14.08Q252.91 13.99 252.74 13.99L252.74 13.99Q252.19 13.99 251.66 15.36Q251.14 16.73 250.79 18.64Q250.44 20.54 250.42 22.01L250.42 22.01Q250.42 22.18 250.21 22.27Q250.01 22.37 249.65 22.37L249.65 22.37Q249.29 22.37 249.17 22.33Q249.05 22.30 249.02 22.22L249.02 22.22Q249.02 22.13 249.05 21.68Q249.07 21.24 249.07 20.40L249.07 20.40L249.12 15.96Q249.12 13.63 248.21 13.63L248.21 13.63Q247.49 13.63 246.67 14.50L246.67 14.50L246.62 14.52Q246.55 14.52 246.49 14.45Q246.43 14.38 246.46 14.33L246.46 14.33Q247.06 13.56 247.76 13.13Q248.47 12.70 249.10 12.70L249.10 12.70Q249.77 12.70 250.12 13.37Q250.46 14.04 250.44 15.91L250.44 15.91L250.44 18.70Q250.80 16.18 251.54 14.42Q252.29 12.67 253.30 12.67L253.30 12.67ZM273.05 20.33Q273.07 20.30 273.12 20.30L273.12 20.30Q273.22 20.30 273.30 20.39Q273.38 20.47 273.34 20.52L273.34 20.52Q272.57 21.50 272.00 21.95Q271.44 22.39 270.84 22.39L270.84 22.39Q269.50 22.39 269.50 20.50L269.50 20.50L269.52 16.22Q269.52 13.54 268.18 13.54L268.18 13.54Q267.31 13.54 266.58 14.56Q265.85 15.58 265.42 17.50Q264.98 19.42 264.98 22.01L264.98 22.01Q264.98 22.18 264.78 22.27Q264.58 22.37 264.22 22.37L264.22 22.37Q263.86 22.37 263.74 22.33Q263.62 22.30 263.59 22.22L263.59 22.22Q263.59 22.13 263.62 21.68Q263.64 21.24 263.64 20.40L263.64 20.40L263.66 16.22Q263.64 13.54 262.34 13.54L262.34 13.54Q261.50 13.54 260.78 14.54Q260.06 15.55 259.62 17.44Q259.18 19.32 259.18 21.82L259.18 21.82L259.18 22.01Q259.18 22.18 258.97 22.27Q258.77 22.37 258.38 22.37L258.38 22.37Q258.05 22.37 257.93 22.33Q257.81 22.30 257.76 22.22L257.76 22.22L257.83 20.52L257.88 15.05Q257.88 14.33 257.69 13.98Q257.50 13.63 257.16 13.63L257.16 13.63Q256.63 13.63 255.55 14.78L255.55 14.78Q255.50 14.83 255.46 14.83L255.46 14.83Q255.38 14.83 255.32 14.75Q255.26 14.66 255.29 14.59L255.29 14.59Q256.01 13.63 256.63 13.16Q257.26 12.70 257.93 12.70L257.93 12.70Q258.60 12.70 258.90 13.15Q259.20 13.61 259.20 14.54L259.20 14.54L259.20 17.74Q259.63 15.31 260.63 13.96Q261.62 12.60 263.04 12.60L263.04 12.60Q264.05 12.60 264.54 13.36Q265.03 14.11 265.01 15.77L265.01 15.77L265.01 17.78Q265.44 15.31 266.44 13.96Q267.43 12.60 268.85 12.60L268.85 12.60Q269.88 12.60 270.36 13.37Q270.84 14.14 270.86 15.77L270.86 15.77L270.84 20.04Q270.84 21.43 271.51 21.43L271.51 21.43Q272.11 21.43 273.05 20.33L273.05 20.33ZM284.26 20.33Q284.28 20.30 284.33 20.30L284.33 20.30Q284.40 20.30 284.47 20.39Q284.54 20.47 284.52 20.52L284.52 20.52Q283.82 21.48 283.24 21.94Q282.65 22.39 282.05 22.39L282.05 22.39Q280.70 22.39 280.70 20.50L280.70 20.50L280.75 17.52Q279.96 19.75 278.68 21.12Q277.39 22.49 275.95 22.49L275.95 22.49Q275.04 22.49 274.48 21.85Q273.91 21.22 273.91 19.82L273.91 19.82Q273.91 18.17 274.72 16.48Q275.52 14.78 276.82 13.69Q278.11 12.60 279.46 12.60L279.46 12.60Q279.96 12.60 280.45 12.77Q280.94 12.94 281.33 13.27L281.33 13.27Q281.71 12.89 281.78 12.43L281.78 12.43Q281.81 12.38 281.96 12.38Q282.12 12.38 282.10 12.43L282.10 12.43L282.05 20.04Q282.02 21.43 282.72 21.43L282.72 21.43Q283.32 21.43 284.26 20.33L284.26 20.33ZM276.72 21.31Q277.70 21.31 278.62 20.36Q279.53 19.42 280.09 18.02Q280.66 16.63 280.66 15.41L280.66 15.41Q280.66 14.52 280.14 13.98Q279.62 13.44 278.78 13.44L278.78 13.44Q277.82 13.44 277.01 14.14Q276.19 14.83 275.71 16.06Q275.23 17.28 275.23 18.79L275.23 18.79Q275.23 20.09 275.60 20.70Q275.98 21.31 276.72 21.31L276.72 21.31ZM287.57 22.39Q286.90 22.39 286.54 21.91Q286.18 21.43 286.20 20.50L286.20 20.50L286.34 7.32Q286.34 6.74 286.18 6.47Q286.01 6.19 285.60 6.19L285.60 6.19Q285.19 6.19 284.40 6.55L284.40 6.55L284.35 6.58Q284.28 6.58 284.23 6.46Q284.18 6.34 284.28 6.29L284.28 6.29L287.38 4.78L287.42 4.78Q287.52 4.78 287.60 4.85Q287.69 4.92 287.69 4.97L287.69 4.97L287.57 20.04Q287.57 20.76 287.74 21.10Q287.90 21.43 288.26 21.43L288.26 21.43Q288.86 21.43 289.78 20.33L289.78 20.33Q289.80 20.30 289.85 20.30L289.85 20.30Q289.94 20.30 290.03 20.39Q290.11 20.47 290.06 20.52L290.06 20.52Q289.32 21.48 288.76 21.94Q288.19 22.39 287.57 22.39L287.57 22.39Z"/></svg>