<svg xmlns="http://www.w3.org/2000/svg" xmlns:xlink="http://www.w3.org/1999/xlink" width="292.848" height="29.28"><path fill="black" d="M2.90 23.28L0.36 23.28L4.34 6L6.89 6L2.90 23.28ZM8.95 23.28L6.46 23.28L9.26 11.04L11.64 11.04L10.99 13.92L11.11 13.92L8.95 23.28ZM17.59 23.28L15.12 23.28L16.82 15.84Q17.16 14.35 16.62 13.60Q16.08 12.84 14.76 12.84L14.76 12.84Q13.20 12.84 12.05 13.84Q10.90 14.83 10.49 16.58L10.49 16.58L10.85 13.61Q11.69 12.29 13.00 11.54Q14.30 10.80 15.74 10.80L15.74 10.80Q17.88 10.80 18.86 12.13Q19.85 13.46 19.34 15.67L19.34 15.67L17.59 23.28ZM25.97 23.54L25.97 23.54Q24.43 23.54 23.26 23.04Q22.08 22.54 21.44 21.62Q20.81 20.71 20.86 19.49L20.86 19.49L23.16 19.49Q23.16 20.16 23.53 20.65Q23.90 21.14 24.56 21.41Q25.22 21.67 26.09 21.67L26.09 21.67Q27.24 21.67 27.91 21.22Q28.58 20.76 28.58 19.97L28.58 19.97Q28.58 19.44 28.24 19.09Q27.89 18.74 27.12 18.43L27.12 18.43L25.34 17.74Q23.83 17.16 23.15 16.42Q22.46 15.67 22.46 14.59L22.46 14.59Q22.46 13.46 23.08 12.61Q23.69 11.76 24.74 11.28Q25.80 10.80 27.22 10.80L27.22 10.80Q28.58 10.80 29.64 11.26Q30.70 11.71 31.30 12.53Q31.90 13.34 31.90 14.45L31.90 14.45L29.62 14.45Q29.57 13.87 29.24 13.48Q28.92 13.08 28.37 12.86Q27.82 12.65 27.02 12.65L27.02 12.65Q25.97 12.65 25.38 13.06Q24.79 13.46 24.79 14.21L24.79 14.21Q24.79 14.71 25.15 15.05Q25.51 15.38 26.35 15.72L26.35 15.72L28.18 16.44Q29.54 16.99 30.22 17.78Q30.89 18.58 30.89 19.68L30.89 19.68Q30.89 20.86 30.28 21.73Q29.66 22.61 28.57 23.08Q27.48 23.54 25.97 23.54ZM37.75 23.52L37.75 23.52Q35.64 23.52 34.84 22.40Q34.03 21.29 34.49 19.34L34.49 19.34L37.03 8.23L39.74 7.30L36.89 19.66Q36.67 20.57 37.07 21.02Q37.46 21.48 38.52 21.48L38.52 21.48Q39 21.48 39.35 21.41Q39.70 21.34 39.96 21.24L39.96 21.24L39.53 23.26Q39.22 23.38 38.78 23.45Q38.35 23.52 37.75 23.52ZM41.88 13.03L33.48 13.03L33.94 11.04L42.31 11.04L41.88 13.03ZM44.38 23.28L41.88 23.28L44.71 11.04L47.09 11.04L46.39 14.09L46.49 14.09L44.38 23.28ZM45.94 16.49L45.94 16.49L46.27 13.56Q46.92 12.31 48.04 11.56Q49.15 10.80 50.50 10.80L50.50 10.80Q50.88 10.80 51.18 10.86Q51.48 10.92 51.67 10.99L51.67 10.99L51.12 13.34Q50.90 13.25 50.50 13.19Q50.09 13.13 49.73 13.13L49.73 13.13Q48.19 13.13 47.24 13.99Q46.30 14.86 45.94 16.49ZM55.51 23.52L55.51 23.52Q53.47 23.52 52.49 22.19Q51.50 20.86 52.01 18.65L52.01 18.65L53.76 11.04L56.26 11.04L54.53 18.48Q54.19 19.94 54.73 20.71Q55.27 21.48 56.52 21.48L56.52 21.48Q58.01 21.48 59.14 20.48Q60.26 19.49 60.67 17.74L60.67 17.74L60.31 20.71Q59.47 22.03 58.19 22.78Q56.90 23.52 55.51 23.52ZM61.87 23.28L59.50 23.28L60.17 20.40L60.07 20.40L62.23 11.04L64.70 11.04L61.87 23.28ZM67.90 23.28L65.40 23.28L68.21 11.04L70.58 11.04L69.94 13.92L70.06 13.92L67.90 23.28ZM76.10 23.28L73.63 23.28L75.34 15.84Q75.67 14.35 75.17 13.60Q74.66 12.84 73.49 12.84L73.49 12.84Q72.07 12.84 70.96 13.84Q69.84 14.83 69.43 16.58L69.43 16.58L69.79 13.61Q70.63 12.29 71.95 11.54Q73.27 10.80 74.74 10.80L74.74 10.80Q76.63 10.80 77.54 11.96Q78.46 13.13 77.86 15.67L77.86 15.67L76.10 23.28ZM84.36 23.28L81.89 23.28L83.59 15.84Q83.93 14.35 83.42 13.60Q82.92 12.84 81.74 12.84L81.74 12.84Q80.33 12.84 79.20 13.84Q78.07 14.83 77.62 16.61L77.62 16.61L77.66 13.80Q78.62 12.34 80.00 11.57Q81.38 10.80 82.73 10.80L82.73 10.80Q84.05 10.80 84.92 11.40Q85.80 12.00 86.14 13.10Q86.47 14.21 86.11 15.67L86.11 15.67L84.36 23.28ZM93.55 23.52L93.55 23.52Q91.97 23.52 90.76 22.87Q89.54 22.22 88.85 21.01Q88.15 19.80 88.15 18.12L88.15 18.12Q88.15 16.94 88.50 15.85Q88.85 14.76 89.47 13.84Q90.10 12.91 90.97 12.24Q91.85 11.57 92.90 11.18Q93.96 10.80 95.18 10.80L95.18 10.80Q96.70 10.80 97.87 11.39Q99.05 11.98 99.71 13.08Q100.37 14.18 100.37 15.72L100.37 15.72Q100.37 16.34 100.25 16.90Q100.13 17.45 99.89 17.90L99.89 17.90L89.81 17.90L90.22 16.03L98.54 16.03L97.78 17.14Q97.97 16.37 97.94 15.60Q97.92 14.83 97.62 14.18Q97.32 13.54 96.71 13.14Q96.10 12.74 95.06 12.74L95.06 12.74Q94.27 12.74 93.59 13.04Q92.90 13.34 92.36 13.85Q91.82 14.35 91.43 15.04Q91.03 15.72 90.84 16.50Q90.65 17.28 90.65 18.10L90.65 18.10Q90.65 19.80 91.50 20.69Q92.35 21.58 93.84 21.58L93.84 21.58Q94.90 21.58 95.65 21.13Q96.41 20.69 96.89 19.82L96.89 19.82L99.22 19.82Q98.35 21.65 96.89 22.58Q95.42 23.52 93.55 23.52ZM103.85 23.28L101.35 23.28L104.16 11.04L106.54 11.04L105.89 13.92L106.01 13.92L103.85 23.28ZM112.49 23.28L110.02 23.28L111.72 15.84Q112.06 14.35 111.52 13.60Q110.98 12.84 109.66 12.84L109.66 12.84Q108.10 12.84 106.94 13.84Q105.79 14.83 105.38 16.58L105.38 16.58L105.74 13.61Q106.58 12.29 107.89 11.54Q109.20 10.80 110.64 10.80L110.64 10.80Q112.78 10.80 113.76 12.13Q114.74 13.46 114.24 15.67L114.24 15.67L112.49 23.28ZM121.15 23.52L121.15 23.52Q119.04 23.52 118.24 22.40Q117.43 21.29 117.89 19.34L117.89 19.34L120.43 8.23L123.14 7.30L120.29 19.66Q120.07 20.57 120.47 21.02Q120.86 21.48 121.92 21.48L121.92 21.48Q122.40 21.48 122.75 21.41Q123.10 21.34 123.36 21.24L123.36 21.24L122.93 23.26Q122.62 23.38 122.18 23.45Q121.75 23.52 121.15 23.52ZM125.28 13.03L116.88 13.03L117.34 11.04L125.71 11.04L125.28 13.03ZM137.14 23.50L137.14 23.50Q135.62 23.50 134.38 23.08Q133.13 22.66 132.24 21.89Q131.35 21.12 130.87 20.06Q130.39 19.01 130.42 17.71L130.42 17.71L132.86 17.71Q132.86 18.58 133.18 19.26Q133.49 19.94 134.06 20.44Q134.64 20.93 135.46 21.18Q136.27 21.43 137.30 21.43L137.30 21.43Q139.01 21.43 139.94 20.72Q140.88 20.02 140.88 18.74L140.88 18.74Q140.88 17.88 140.41 17.29Q139.94 16.70 138.91 16.22L138.91 16.22L136.18 14.98Q134.38 14.14 133.56 13.13Q132.74 12.12 132.74 10.70L132.74 10.70Q132.74 9.19 133.52 8.06Q134.30 6.94 135.68 6.31Q137.06 5.69 138.89 5.69L138.89 5.69Q140.23 5.69 141.30 6.05Q142.37 6.41 143.14 7.09Q143.90 7.78 144.31 8.75Q144.72 9.72 144.72 10.94L144.72 10.94L142.27 10.94Q142.27 9.91 141.85 9.20Q141.43 8.50 140.62 8.12Q139.80 7.75 138.65 7.75L138.65 7.75Q137.59 7.75 136.82 8.05Q136.06 8.35 135.65 8.90Q135.24 9.46 135.24 10.27L135.24 10.27Q135.24 11.02 135.71 11.58Q136.18 12.14 137.23 12.65L137.23 12.65L139.99 13.92Q141.74 14.71 142.55 15.76Q143.35 16.80 143.35 18.31L143.35 18.31Q143.35 19.87 142.58 21.04Q141.82 22.20 140.42 22.85Q139.03 23.50 137.14 23.50ZM154.97 23.28L152.54 23.28Q152.52 22.97 152.59 22.43Q152.66 21.89 152.83 21.17L152.83 21.17L152.74 21.14L154.06 15.36Q154.22 14.64 154.07 14.04Q153.91 13.44 153.38 13.09Q152.86 12.74 151.87 12.74L151.87 12.74Q150.67 12.74 149.94 13.24Q149.21 13.73 148.94 14.59L148.94 14.59L146.62 14.59Q147.12 12.79 148.55 11.80Q149.98 10.80 152.14 10.80L152.14 10.80Q153.94 10.80 154.99 11.45Q156.05 12.10 156.40 13.21Q156.74 14.33 156.43 15.72L156.43 15.72L155.16 21.17Q155.06 21.62 154.99 22.24Q154.92 22.85 154.97 23.28L154.97 23.28ZM148.70 23.52L148.70 23.52Q147.02 23.52 146.03 22.64Q145.03 21.77 145.03 20.35L145.03 20.35Q145.03 19.10 145.67 18.25Q146.30 17.40 147.50 16.88Q148.70 16.37 150.41 16.18L150.41 16.18L154.46 15.72L154.06 17.45L150.36 17.88Q148.94 18.02 148.22 18.56Q147.50 19.10 147.50 20.06L147.50 20.06Q147.50 20.81 148.03 21.18Q148.56 21.55 149.54 21.55L149.54 21.55Q150.94 21.55 151.94 20.87Q152.95 20.18 153.19 19.15L153.19 19.15L153.10 21Q152.42 22.15 151.31 22.84Q150.19 23.52 148.70 23.52ZM160.56 23.28L158.06 23.28L160.87 11.04L163.25 11.04L162.60 13.92L162.72 13.92L160.56 23.28ZM169.20 23.28L166.73 23.28L168.43 15.84Q168.77 14.35 168.23 13.60Q167.69 12.84 166.37 12.84L166.37 12.84Q164.81 12.84 163.66 13.84Q162.50 14.83 162.10 16.58L162.10 16.58L162.46 13.61Q163.30 12.29 164.60 11.54Q165.91 10.80 167.35 10.80L167.35 10.80Q169.49 10.80 170.47 12.13Q171.46 13.46 170.95 15.67L170.95 15.67L169.20 23.28ZM177.58 23.54L177.58 23.54Q176.04 23.54 174.86 23.04Q173.69 22.54 173.05 21.62Q172.42 20.71 172.46 19.49L172.46 19.49L174.77 19.49Q174.77 20.16 175.14 20.65Q175.51 21.14 176.17 21.41Q176.83 21.67 177.70 21.67L177.70 21.67Q178.85 21.67 179.52 21.22Q180.19 20.76 180.19 19.97L180.19 19.97Q180.19 19.44 179.84 19.09Q179.50 18.74 178.73 18.43L178.73 18.43L176.95 17.74Q175.44 17.16 174.76 16.42Q174.07 15.67 174.07 14.59L174.07 14.59Q174.07 13.46 174.68 12.61Q175.30 11.76 176.35 11.28Q177.41 10.80 178.82 10.80L178.82 10.80Q180.19 10.80 181.25 11.26Q182.30 11.71 182.90 12.53Q183.50 13.34 183.50 14.45L183.50 14.45L181.22 14.45Q181.18 13.87 180.85 13.48Q180.53 13.08 179.98 12.86Q179.42 12.65 178.63 12.65L178.63 12.65Q177.58 12.65 176.99 13.06Q176.40 13.46 176.40 14.21L176.40 14.21Q176.40 14.71 176.76 15.05Q177.12 15.38 177.96 15.72L177.96 15.72L179.78 16.44Q181.15 16.99 181.82 17.78Q182.50 18.58 182.50 19.68L182.50 19.68Q182.50 20.86 181.88 21.73Q181.27 22.61 180.18 23.08Q179.09 23.54 177.58 23.54ZM194.69 23.52L194.69 23.52Q193.32 23.52 192.24 23.12Q191.16 22.73 190.42 22.02Q189.67 21.31 189.31 20.40Q188.95 19.49 189.05 18.48L189.05 18.48L191.59 18.48Q191.57 19.25 191.90 19.92Q192.24 20.59 192.95 21.01Q193.66 21.43 194.71 21.43L194.71 21.43Q195.38 21.43 195.98 21.22Q196.58 21 197.05 20.60Q197.52 20.21 197.87 19.66Q198.22 19.10 198.40 18.43Q198.58 17.76 198.58 17.02L198.58 17.02Q198.58 15.41 197.78 14.64Q196.99 13.87 195.62 13.87L195.62 13.87Q194.78 13.87 194.05 14.20Q193.32 14.52 192.79 15.26L192.79 15.26L190.54 15.26L193.46 6L202.87 6L202.39 8.09L194.21 8.09L195.46 7.54L193.44 13.97L192.86 13.42Q193.49 12.72 194.36 12.34Q195.24 11.95 196.39 11.95L196.39 11.95Q197.78 11.95 198.89 12.54Q199.99 13.13 200.64 14.26Q201.29 15.38 201.29 17.02L201.29 17.02Q201.29 18.10 200.99 19.07Q200.69 20.04 200.11 20.86Q199.54 21.67 198.72 22.27Q197.90 22.87 196.90 23.20Q195.89 23.52 194.69 23.52ZM209.76 23.50L209.76 23.50Q207.91 23.50 206.58 22.60Q205.25 21.70 204.54 20.14Q203.83 18.58 203.83 16.58L203.83 16.58Q203.83 15.46 204.07 14.22Q204.31 12.98 204.77 11.77Q205.22 10.56 205.93 9.48Q206.64 8.40 207.56 7.57Q208.49 6.74 209.65 6.26Q210.82 5.78 212.18 5.78L212.18 5.78Q214.03 5.78 215.36 6.65Q216.70 7.51 217.43 9.05Q218.16 10.58 218.16 12.60L218.16 12.60Q218.16 13.70 217.91 14.95Q217.66 16.20 217.19 17.42Q216.72 18.65 216.01 19.74Q215.30 20.83 214.38 21.68Q213.46 22.54 212.29 23.02Q211.13 23.50 209.76 23.50ZM209.83 21.31L209.83 21.31Q210.84 21.31 211.64 20.87Q212.45 20.42 213.07 19.67Q213.70 18.91 214.15 17.96Q214.61 17.02 214.91 16.01Q215.21 15.00 215.35 14.04Q215.50 13.08 215.50 12.29L215.50 12.29Q215.50 10.30 214.61 9.13Q213.72 7.97 212.11 7.97L212.11 7.97Q211.10 7.97 210.30 8.40Q209.50 8.83 208.87 9.56Q208.25 10.30 207.80 11.23Q207.36 12.17 207.07 13.16Q206.78 14.16 206.65 15.11Q206.52 16.06 206.52 16.85L206.52 16.85Q206.52 18.86 207.36 20.09Q208.20 21.31 209.83 21.31ZM225.86 23.50L225.86 23.50Q224.02 23.50 222.68 22.60Q221.35 21.70 220.64 20.14Q219.94 18.58 219.94 16.58L219.94 16.58Q219.94 15.46 220.18 14.22Q220.42 12.98 220.87 11.77Q221.33 10.56 222.04 9.48Q222.74 8.40 223.67 7.57Q224.59 6.74 225.76 6.26Q226.92 5.78 228.29 5.78L228.29 5.78Q230.14 5.78 231.47 6.65Q232.80 7.51 233.53 9.05Q234.26 10.58 234.26 12.60L234.26 12.60Q234.26 13.70 234.01 14.95Q233.76 16.20 233.29 17.42Q232.82 18.65 232.12 19.74Q231.41 20.83 230.48 21.68Q229.56 22.54 228.40 23.02Q227.23 23.50 225.86 23.50ZM225.94 21.31L225.94 21.31Q226.94 21.31 227.75 20.87Q228.55 20.42 229.18 19.67Q229.80 18.91 230.26 17.96Q230.71 17.02 231.01 16.01Q231.31 15.00 231.46 14.04Q231.60 13.08 231.60 12.29L231.60 12.29Q231.60 10.30 230.71 9.13Q229.82 7.97 228.22 7.97L228.22 7.97Q227.21 7.97 226.40 8.40Q225.60 8.83 224.98 9.56Q224.35 10.30 223.91 11.23Q223.46 12.17 223.18 13.16Q222.89 14.16 222.76 15.11Q222.62 16.06 222.62 16.85L222.62 16.85Q222.62 18.86 223.46 20.09Q224.30 21.31 225.94 21.31ZM242.14 23.28L239.64 23.28L242.45 11.04L244.94 11.04L242.14 23.28ZM245.57 8.64L242.81 8.64L243.41 5.83L246.14 5.83L245.57 8.64ZM250.92 23.52L250.92 23.52Q248.81 23.52 248.00 22.40Q247.20 21.29 247.66 19.34L247.66 19.34L250.20 8.23L252.91 7.30L250.06 19.66Q249.84 20.57 250.24 21.02Q250.63 21.48 251.69 21.48L251.69 21.48Q252.17 21.48 252.52 21.41Q252.86 21.34 253.13 21.24L253.13 21.24L252.70 23.26Q252.38 23.38 251.95 23.45Q251.52 23.52 250.92 23.52ZM255.05 13.03L246.65 13.03L247.10 11.04L255.48 11.04L255.05 13.03ZM265.06 23.28L262.63 23.28Q262.61 22.97 262.68 22.43Q262.75 21.89 262.92 21.17L262.92 21.17L262.82 21.14L264.14 15.36Q264.31 14.64 264.16 14.04Q264 13.44 263.47 13.09Q262.94 12.74 261.96 12.74L261.96 12.74Q260.76 12.74 260.03 13.24Q259.30 13.73 259.03 14.59L259.03 14.59L256.70 14.59Q257.21 12.79 258.64 11.80Q260.06 10.80 262.22 10.80L262.22 10.80Q264.02 10.80 265.08 11.45Q266.14 12.10 266.48 13.21Q266.83 14.33 266.52 15.72L266.52 15.72L265.25 21.17Q265.15 21.62 265.08 22.24Q265.01 22.85 265.06 23.28L265.06 23.28ZM258.79 23.52L258.79 23.52Q257.11 23.52 256.12 22.64Q255.12 21.77 255.12 20.35L255.12 20.35Q255.12 19.10 255.76 18.25Q256.39 17.40 257.59 16.88Q258.79 16.37 260.50 16.18L260.50 16.18L264.55 15.72L264.14 17.45L260.45 17.88Q259.03 18.02 258.31 18.56Q257.59 19.10 257.59 20.06L257.59 20.06Q257.59 20.81 258.12 21.18Q258.65 21.55 259.63 21.55L259.63 21.55Q261.02 21.55 262.03 20.87Q263.04 20.18 263.28 19.15L263.28 19.15L263.18 21Q262.51 22.15 261.40 22.84Q260.28 23.52 258.79 23.52ZM270.62 23.28L268.13 23.28L272.11 6L274.61 6L270.62 23.28ZM276.65 23.28L274.15 23.28L276.96 11.04L279.46 11.04L276.65 23.28ZM280.08 8.64L277.32 8.64L277.92 5.83L280.66 5.83L280.08 8.64ZM285.72 23.54L285.72 23.54Q284.18 23.54 283.02 22.86Q281.86 22.18 281.22 20.96Q280.58 19.75 280.58 18.17L280.58 18.17Q280.58 16.92 280.94 15.83Q281.30 14.74 281.95 13.82Q282.60 12.91 283.48 12.24Q284.35 11.57 285.41 11.20Q286.46 10.82 287.62 10.82L287.62 10.82Q288.67 10.82 289.56 11.16Q290.45 11.50 291.11 12.08Q291.77 12.67 292.14 13.46Q292.51 14.26 292.51 15.22L292.51 15.22L290.16 15.22Q290.14 14.50 289.80 13.98Q289.46 13.46 288.89 13.16Q288.31 12.86 287.52 12.86L287.52 12.86Q286.78 12.86 286.12 13.13Q285.46 13.39 284.92 13.88Q284.38 14.38 283.98 15.04Q283.58 15.70 283.37 16.51Q283.15 17.33 283.15 18.22L283.15 18.22Q283.15 19.78 283.87 20.65Q284.59 21.53 285.91 21.53L285.91 21.53Q287.06 21.53 287.95 20.89Q288.84 20.26 289.32 19.13L289.32 19.13L291.67 19.13Q290.95 21.17 289.36 22.36Q287.76 23.54 285.72 23.54Z"/></svg>