<svg xmlns="http://www.w3.org/2000/svg" xmlns:xlink="http://www.w3.org/1999/xlink" width="215.51999999999995" height="28.8"><path fill="black" d="M9.70 22.56L6.10 22.56L8.64 9.50L3.74 9.50L4.37 6.24L17.76 6.24L17.14 9.50L12.24 9.50L9.70 22.56ZM19.39 22.80L19.39 22.80Q17.57 22.80 16.31 22.12Q15.05 21.43 14.52 20.20Q13.99 18.96 14.30 17.28L14.30 17.28Q14.64 15.62 15.68 14.38Q16.73 13.13 18.25 12.43Q19.78 11.74 21.55 11.74L21.55 11.74Q23.16 11.74 24.36 12.42Q25.56 13.10 26.12 14.35Q26.69 15.60 26.35 17.30L26.35 17.30L26.21 17.98L17.26 17.98L17.66 15.86L23.16 15.86Q23.14 15.50 22.99 15.08Q22.85 14.66 22.43 14.35Q22.01 14.04 21.17 14.04L21.17 14.04Q20.30 14.04 19.67 14.38Q19.03 14.71 18.64 15.34Q18.24 15.96 18.07 16.82L18.07 16.82Q17.88 17.90 18.02 18.68Q18.17 19.46 18.64 19.88Q19.10 20.30 19.80 20.30L19.80 20.30Q20.54 20.30 21.22 20.11Q21.89 19.92 22.42 19.64Q22.94 19.37 23.21 19.08L23.21 19.08L24.91 20.83Q24.34 21.36 23.46 21.80Q22.58 22.25 21.54 22.52Q20.50 22.80 19.39 22.80ZM32.69 22.80L32.69 22.80Q31.20 22.80 30.16 22.03Q29.11 21.26 28.67 20.00Q28.22 18.74 28.51 17.28L28.51 17.28Q28.73 16.18 29.32 15.18Q29.90 14.18 30.77 13.40Q31.63 12.62 32.68 12.18Q33.72 11.74 34.85 11.74L34.85 11.74Q35.86 11.74 36.74 12.07Q37.63 12.41 38.16 13.27L38.16 13.27L38.42 12.00L42.02 12.00L39.96 22.56L36.36 22.56L36.60 21.29Q36.14 21.82 35.48 22.15Q34.82 22.49 34.09 22.64Q33.36 22.80 32.69 22.80ZM34.34 19.92L34.34 19.92Q35.06 19.92 35.71 19.55Q36.36 19.18 36.80 18.58Q37.25 17.98 37.39 17.28L37.39 17.28Q37.54 16.58 37.32 15.98Q37.10 15.38 36.60 15.01Q36.10 14.64 35.38 14.64L35.38 14.64Q34.66 14.64 34.02 15.01Q33.38 15.38 32.94 15.98Q32.50 16.58 32.35 17.28L32.35 17.28Q32.21 17.98 32.42 18.58Q32.64 19.18 33.13 19.55Q33.62 19.92 34.34 19.92ZM48.07 22.80L48.07 22.80Q46.25 22.80 45.07 22.04Q43.90 21.29 43.44 20.04Q42.98 18.79 43.27 17.28L43.27 17.28Q43.56 15.77 44.54 14.51Q45.53 13.25 47.00 12.49Q48.48 11.74 50.23 11.74L50.23 11.74Q51.96 11.74 53.10 12.35Q54.24 12.96 54.77 13.98Q55.30 15.00 55.13 16.22L55.13 16.22L51.55 16.22Q51.67 15.46 51.20 15.00Q50.74 14.54 49.80 14.54L49.80 14.54Q48.98 14.54 48.42 14.99Q47.86 15.43 47.54 16.07Q47.23 16.70 47.11 17.30L47.11 17.30Q46.99 17.90 47.05 18.55Q47.11 19.20 47.50 19.63Q47.88 20.06 48.72 20.06L48.72 20.06Q49.56 20.06 50.21 19.70Q50.86 19.34 51.10 18.62L51.10 18.62L54.60 18.62Q54.19 19.80 53.27 20.75Q52.34 21.70 51.01 22.25Q49.68 22.80 48.07 22.80ZM59.69 22.56L56.09 22.56L59.59 4.56L63.19 4.56L61.49 13.27Q62.18 12.58 63.10 12.16Q64.01 11.74 65.04 11.74L65.04 11.74Q66.46 11.74 67.21 12.34Q67.97 12.94 68.17 14.03Q68.38 15.12 68.09 16.56L68.09 16.56L66.91 22.56L63.31 22.56L64.49 16.56Q64.61 15.94 64.52 15.50Q64.44 15.07 64.13 14.86Q63.82 14.64 63.24 14.64L63.24 14.64Q62.69 14.64 62.16 15.00Q61.63 15.36 61.25 15.96Q60.86 16.56 60.72 17.28L60.72 17.28L59.69 22.56ZM74.11 22.80L74.11 22.80Q72.29 22.80 71.03 22.12Q69.77 21.43 69.24 20.20Q68.71 18.96 69.02 17.28L69.02 17.28Q69.36 15.62 70.40 14.38Q71.45 13.13 72.97 12.43Q74.50 11.74 76.27 11.74L76.27 11.74Q77.88 11.74 79.08 12.42Q80.28 13.10 80.84 14.35Q81.41 15.60 81.07 17.30L81.07 17.30L80.93 17.98L71.98 17.98L72.38 15.86L77.88 15.86Q77.86 15.50 77.71 15.08Q77.57 14.66 77.15 14.35Q76.73 14.04 75.89 14.04L75.89 14.04Q75.02 14.04 74.39 14.38Q73.75 14.71 73.36 15.34Q72.96 15.96 72.79 16.82L72.79 16.82Q72.60 17.90 72.74 18.68Q72.89 19.46 73.36 19.88Q73.82 20.30 74.52 20.30L74.52 20.30Q75.26 20.30 75.94 20.11Q76.61 19.92 77.14 19.64Q77.66 19.37 77.93 19.08L77.93 19.08L79.63 20.83Q79.06 21.36 78.18 21.80Q77.30 22.25 76.26 22.52Q75.22 22.80 74.11 22.80ZM86.64 22.56L83.04 22.56L85.10 11.98L88.70 11.98L88.44 13.27Q88.80 12.86 89.33 12.52Q89.86 12.17 90.49 11.95Q91.13 11.74 91.78 11.74L91.78 11.74Q92.02 11.74 92.32 11.80Q92.62 11.86 92.81 11.98L92.81 11.98L92.16 15.24Q91.97 14.90 91.58 14.77Q91.20 14.64 90.79 14.64L90.79 14.64Q90.12 14.64 89.45 15.04Q88.78 15.43 88.28 16.03Q87.79 16.63 87.67 17.28L87.67 17.28L86.64 22.56ZM97.49 22.80L97.49 22.80Q95.93 22.80 94.75 22.38Q93.58 21.96 92.99 21.04Q92.40 20.11 92.59 18.62L92.59 18.62L96.17 18.62Q96.05 19.22 96.22 19.56Q96.38 19.90 96.70 20.05Q97.01 20.21 97.38 20.26Q97.75 20.30 98.04 20.30L98.04 20.30Q98.66 20.30 99.16 20.08Q99.65 19.85 99.72 19.42L99.72 19.42Q99.84 18.89 99.44 18.62Q99.05 18.36 98.35 18.19L98.35 18.19Q97.75 18.05 97.01 17.93Q96.26 17.81 95.57 17.60Q94.87 17.40 94.39 17.04L94.39 17.04Q93.98 16.73 93.79 16.26Q93.60 15.79 93.72 15.10L93.72 15.10Q93.94 14.02 94.64 13.26Q95.35 12.50 96.58 12.12Q97.80 11.74 99.55 11.74L99.55 11.74Q101.64 11.74 102.89 12.55Q104.14 13.37 104.02 15.19L104.02 15.19L100.49 15.19Q100.51 14.76 100.27 14.53Q100.03 14.30 99.68 14.22Q99.34 14.14 98.98 14.14L98.98 14.14Q98.45 14.14 97.94 14.38Q97.44 14.62 97.39 14.95L97.39 14.95Q97.32 15.34 97.80 15.49Q98.28 15.65 99.02 15.77L99.02 15.77Q99.50 15.84 100.02 15.94Q100.54 16.03 101.05 16.16Q101.57 16.30 102.02 16.54L102.02 16.54Q102.77 16.90 103.18 17.57Q103.58 18.24 103.37 19.39L103.37 19.39Q103.13 20.64 102.31 21.38Q101.50 22.13 100.26 22.46Q99.02 22.80 97.49 22.80ZM115.85 22.56L111.94 22.56L120.86 8.06L121.56 9.55L113.30 9.55L113.95 6.24L125.93 6.24L115.85 22.56ZM129.98 22.85L129.98 22.85Q128.23 22.85 127.13 22.07Q126.02 21.29 125.48 20.02Q124.94 18.74 124.87 17.28Q124.80 15.82 125.06 14.45L125.06 14.45Q125.26 13.49 125.68 12.35Q126.10 11.21 126.78 10.09Q127.46 8.98 128.40 8.05Q129.34 7.13 130.55 6.56Q131.76 6 133.25 6L133.25 6Q134.74 6 135.73 6.56Q136.73 7.13 137.32 8.05Q137.90 8.98 138.14 10.09Q138.38 11.21 138.37 12.35Q138.36 13.49 138.17 14.45L138.17 14.45Q137.90 15.82 137.26 17.28Q136.61 18.74 135.58 20.02Q134.54 21.29 133.15 22.07Q131.76 22.85 129.98 22.85ZM130.61 19.58L130.61 19.58Q131.47 19.58 132.13 19.10Q132.79 18.62 133.28 17.84Q133.78 17.06 134.09 16.18Q134.40 15.29 134.57 14.47L134.57 14.47Q134.71 13.68 134.76 12.78Q134.81 11.88 134.64 11.08Q134.47 10.27 133.99 9.77Q133.51 9.26 132.62 9.26L132.62 9.26Q131.76 9.26 131.09 9.77Q130.42 10.27 129.92 11.06Q129.43 11.86 129.12 12.76Q128.81 13.66 128.66 14.42L128.66 14.42Q128.54 15.10 128.48 15.82Q128.42 16.54 128.50 17.21Q128.57 17.88 128.80 18.42Q129.02 18.96 129.47 19.27Q129.91 19.58 130.61 19.58ZM144.77 22.85L144.77 22.85Q143.02 22.85 141.91 22.07Q140.81 21.29 140.27 20.02Q139.73 18.74 139.66 17.28Q139.58 15.82 139.85 14.45L139.85 14.45Q140.04 13.49 140.46 12.35Q140.88 11.21 141.56 10.09Q142.25 8.98 143.18 8.05Q144.12 7.13 145.33 6.56Q146.54 6 148.03 6L148.03 6Q149.52 6 150.52 6.56Q151.51 7.13 152.10 8.05Q152.69 8.98 152.93 10.09Q153.17 11.21 153.16 12.35Q153.14 13.49 152.95 14.45L152.95 14.45Q152.69 15.82 152.04 17.28Q151.39 18.74 150.36 20.02Q149.33 21.29 147.94 22.07Q146.54 22.85 144.77 22.85ZM145.39 19.58L145.39 19.58Q146.26 19.58 146.92 19.10Q147.58 18.62 148.07 17.84Q148.56 17.06 148.87 16.18Q149.18 15.29 149.35 14.47L149.35 14.47Q149.50 13.68 149.54 12.78Q149.59 11.88 149.42 11.08Q149.26 10.27 148.78 9.77Q148.30 9.26 147.41 9.26L147.41 9.26Q146.54 9.26 145.87 9.77Q145.20 10.27 144.71 11.06Q144.22 11.86 143.90 12.76Q143.59 13.66 143.45 14.42L143.45 14.42Q143.33 15.10 143.27 15.82Q143.21 16.54 143.28 17.21Q143.35 17.88 143.58 18.42Q143.81 18.96 144.25 19.27Q144.70 19.58 145.39 19.58ZM164.04 22.56L160.44 22.56L162.50 11.98L166.10 11.98L164.04 22.56ZM164.59 10.46L164.59 10.46Q163.70 10.46 163.21 9.84Q162.72 9.22 162.89 8.35L162.89 8.35Q163.08 7.46 163.80 6.85Q164.52 6.24 165.41 6.24L165.41 6.24Q166.27 6.24 166.79 6.85Q167.30 7.46 167.11 8.35L167.11 8.35Q167.02 8.93 166.63 9.41Q166.25 9.89 165.71 10.18Q165.17 10.46 164.59 10.46ZM172.37 22.56L168.79 22.56L170.30 14.76L167.90 14.76L168.46 11.98L170.86 11.98L171.62 7.94L175.20 7.94L174.43 11.98L176.83 11.98L176.28 14.76L173.88 14.76L172.37 22.56ZM181.06 22.80L181.06 22.80Q179.57 22.80 178.52 22.03Q177.48 21.26 177.04 20.00Q176.59 18.74 176.88 17.28L176.88 17.28Q177.10 16.18 177.68 15.18Q178.27 14.18 179.14 13.40Q180.00 12.62 181.04 12.18Q182.09 11.74 183.22 11.74L183.22 11.74Q184.22 11.74 185.11 12.07Q186.00 12.41 186.53 13.27L186.53 13.27L186.79 12.00L190.39 12.00L188.33 22.56L184.73 22.56L184.97 21.29Q184.51 21.82 183.85 22.15Q183.19 22.49 182.46 22.64Q181.73 22.80 181.06 22.80ZM182.71 19.92L182.71 19.92Q183.43 19.92 184.08 19.55Q184.73 19.18 185.17 18.58Q185.62 17.98 185.76 17.28L185.76 17.28Q185.90 16.58 185.69 15.98Q185.47 15.38 184.97 15.01Q184.46 14.64 183.74 14.64L183.74 14.64Q183.02 14.64 182.39 15.01Q181.75 15.38 181.31 15.98Q180.86 16.58 180.72 17.28L180.72 17.28Q180.58 17.98 180.79 18.58Q181.01 19.18 181.50 19.55Q181.99 19.92 182.71 19.92ZM194.81 22.56L191.21 22.56L194.71 4.56L198.31 4.56L194.81 22.56ZM201.60 22.56L198.00 22.56L200.06 11.98L203.66 11.98L201.60 22.56ZM202.15 10.46L202.15 10.46Q201.26 10.46 200.77 9.84Q200.28 9.22 200.45 8.35L200.45 8.35Q200.64 7.46 201.36 6.85Q202.08 6.24 202.97 6.24L202.97 6.24Q203.83 6.24 204.35 6.85Q204.86 7.46 204.67 8.35L204.67 8.35Q204.58 8.93 204.19 9.41Q203.81 9.89 203.27 10.18Q202.73 10.46 202.15 10.46ZM209.66 22.80L209.66 22.80Q207.84 22.80 206.66 22.04Q205.49 21.29 205.03 20.04Q204.58 18.79 204.86 17.28L204.86 17.28Q205.15 15.77 206.14 14.51Q207.12 13.25 208.60 12.49Q210.07 11.74 211.82 11.74L211.82 11.74Q213.55 11.74 214.69 12.35Q215.83 12.96 216.36 13.98Q216.89 15.00 216.72 16.22L216.72 16.22L213.14 16.22Q213.26 15.46 212.80 15.00Q212.33 14.54 211.39 14.54L211.39 14.54Q210.58 14.54 210.01 14.99Q209.45 15.43 209.14 16.07Q208.82 16.70 208.70 17.30L208.70 17.30Q208.58 17.90 208.64 18.55Q208.70 19.20 209.09 19.63Q209.47 20.06 210.31 20.06L210.31 20.06Q211.15 20.06 211.80 19.70Q212.45 19.34 212.69 18.62L212.69 18.62L216.19 18.62Q215.78 19.80 214.86 20.75Q213.94 21.70 212.60 22.25Q211.27 22.80 209.66 22.80Z"/></svg>