<svg xmlns="http://www.w3.org/2000/svg" xmlns:xlink="http://www.w3.org/1999/xlink" width="63.504000000000005" height="24"><path fill="black" d="M12 3.55L4.63 3.55L4.63 8.76L11.23 8.76L10.85 11.11L4.63 11.11L4.63 15.60L4.78 19.20L1.99 19.20L2.16 15.60L2.16 4.68L1.99 1.20L12.36 1.20L12 3.55ZM14.14 15.19Q14.14 13.78 14.77 12.66Q15.41 11.54 16.52 10.92Q17.64 10.30 19.01 10.30L19.01 10.30Q20.09 10.30 21.16 10.51Q22.22 10.73 22.85 11.09L22.85 11.09L22.85 9.67Q22.85 8.21 22.07 7.51Q21.29 6.82 19.66 6.82L19.66 6.82Q18.19 6.82 17.03 7.36Q15.86 7.90 15.22 8.88L15.22 8.88L14.95 8.83L15.29 6.12Q16.10 5.33 17.34 4.90Q18.58 4.46 20.02 4.46L20.02 4.46Q22.49 4.46 23.87 5.68Q25.25 6.89 25.25 9.14L25.25 9.14L25.25 15.62L25.42 19.20L22.92 19.20L22.85 17.76Q22.42 18.48 21.22 19.03Q20.02 19.58 18.77 19.58L18.77 19.58Q16.58 19.58 15.36 18.42Q14.14 17.26 14.14 15.19L14.14 15.19ZM16.63 14.98Q16.63 16.27 17.20 16.82Q17.76 17.38 19.15 17.38L19.15 17.38Q20.09 17.38 21.23 16.97Q22.37 16.56 22.85 16.03L22.85 16.03L22.85 13.32Q22.27 12.96 21.24 12.72Q20.21 12.48 19.15 12.48L19.15 12.48Q17.83 12.48 17.23 13.10Q16.63 13.73 16.63 14.98L16.63 14.98ZM34.92 4.63Q36.65 4.63 37.32 4.97L37.32 4.97L36.94 7.08L36.62 7.30Q36.34 7.08 35.69 6.94Q35.04 6.79 34.37 6.79L34.37 6.79Q32.59 6.79 31.58 8.26L31.58 8.26L31.58 15.60L31.75 19.20L29.02 19.20L29.18 15.60L29.18 8.28L29.02 4.80L31.10 4.80L31.54 6.43Q32.14 5.57 33.02 5.10Q33.91 4.63 34.92 4.63L34.92 4.63ZM45.84 4.63Q47.57 4.63 48.24 4.97L48.24 4.97L47.86 7.08L47.54 7.30Q47.26 7.08 46.61 6.94Q45.96 6.79 45.29 6.79L45.29 6.79Q43.51 6.79 42.50 8.26L42.50 8.26L42.50 15.60L42.67 19.20L39.94 19.20L40.10 15.60L40.10 8.28L39.94 4.80L42.02 4.80L42.46 6.43Q43.06 5.57 43.94 5.10Q44.83 4.63 45.84 4.63L45.84 4.63ZM56.09 19.58Q52.99 19.58 51.54 17.70Q50.09 15.82 50.09 11.98L50.09 11.98Q50.09 8.14 51.54 6.28Q52.99 4.42 56.09 4.42L56.09 4.42Q59.18 4.42 60.64 6.28Q62.09 8.14 62.09 11.98L62.09 11.98Q62.09 15.82 60.64 17.70Q59.18 19.58 56.09 19.58L56.09 19.58ZM56.09 17.23Q57.46 17.23 58.21 16.75Q58.97 16.27 59.28 15.16Q59.59 14.04 59.59 12L59.59 12Q59.59 9.96 59.28 8.84Q58.97 7.73 58.21 7.25Q57.46 6.77 56.09 6.77L56.09 6.77Q54.72 6.77 53.96 7.25Q53.21 7.73 52.90 8.84Q52.58 9.96 52.58 12L52.58 12Q52.58 14.04 52.90 15.16Q53.21 16.27 53.96 16.75Q54.72 17.23 56.09 17.23L56.09 17.23Z"/></svg>