<svg xmlns="http://www.w3.org/2000/svg" xmlns:xlink="http://www.w3.org/1999/xlink" width="76.08000000000001" height="28.8"><path fill="black" d="M4.27 22.80L2.23 22.80L2.23 6L12.22 6L12.22 7.85L4.27 7.85L4.27 13.58L11.28 13.58L11.28 15.43L4.27 15.43L4.27 22.80ZM16.75 22.80L14.83 22.80L14.83 10.80L16.75 10.80L16.75 22.80ZM15.82 8.02L15.82 8.02Q15.34 8.02 14.98 7.66Q14.62 7.30 14.62 6.82L14.62 6.82Q14.62 6.31 14.98 5.96Q15.34 5.62 15.82 5.62L15.82 5.62Q16.32 5.62 16.67 5.96Q17.02 6.31 17.02 6.82L17.02 6.82Q17.02 7.30 16.67 7.66Q16.32 8.02 15.82 8.02ZM25.08 27.89L25.08 27.89Q23.93 27.89 22.98 27.66Q22.03 27.43 21.37 27.16Q20.71 26.88 20.42 26.69L20.42 26.69L21.14 25.13Q21.46 25.30 22.03 25.55Q22.61 25.80 23.39 25.98Q24.17 26.16 25.06 26.16L25.06 26.16Q26.21 26.16 27.13 25.69Q28.06 25.22 28.57 24.23Q29.09 23.23 29.09 21.67L29.09 21.67L29.09 10.80L31.01 10.80L31.01 21.65Q31.01 23.71 30.24 25.10Q29.47 26.50 28.13 27.19Q26.78 27.89 25.08 27.89ZM25.01 22.70L25.01 22.70Q23.40 22.70 22.18 21.94Q20.95 21.17 20.27 19.79Q19.58 18.41 19.58 16.63L19.58 16.63Q19.58 14.81 20.27 13.43Q20.95 12.05 22.18 11.28Q23.40 10.51 25.01 10.51L25.01 10.51Q26.52 10.51 27.65 11.28Q28.78 12.05 29.41 13.43Q30.05 14.81 30.05 16.63L30.05 16.63Q30.05 18.43 29.41 19.80Q28.78 21.17 27.65 21.94Q26.52 22.70 25.01 22.70ZM25.46 21.05L25.46 21.05Q26.52 21.05 27.34 20.47Q28.15 19.90 28.61 18.90Q29.06 17.90 29.06 16.58L29.06 16.58Q29.06 15.31 28.60 14.32Q28.13 13.32 27.32 12.76Q26.52 12.19 25.44 12.19L25.44 12.19Q24.31 12.19 23.44 12.76Q22.56 13.32 22.07 14.32Q21.58 15.31 21.58 16.58L21.58 16.58Q21.58 17.90 22.08 18.90Q22.58 19.90 23.46 20.47Q24.34 21.05 25.46 21.05ZM38.88 23.09L38.88 23.09Q37.13 23.09 36.17 22.18Q35.21 21.26 35.21 19.61L35.21 19.61L35.21 7.06L37.13 7.06L37.13 19.42Q37.13 20.33 37.62 20.82Q38.11 21.31 39 21.31L39 21.31Q39.29 21.31 39.56 21.23Q39.84 21.14 40.30 20.81L40.30 20.81L41.04 22.37Q40.42 22.78 39.91 22.93Q39.41 23.09 38.88 23.09ZM40.73 12.50L33.12 12.50L33.12 10.80L40.73 10.80L40.73 12.50ZM45.36 16.20L44.50 16.30Q44.50 14.35 45.24 13.14Q45.98 11.93 47.15 11.34Q48.31 10.75 49.61 10.75L49.61 10.75L49.61 12.55Q48.55 12.55 47.58 12.90Q46.61 13.25 45.98 14.04Q45.36 14.83 45.36 16.20L45.36 16.20ZM45.36 22.80L43.44 22.80L43.44 10.80L45.36 10.80L45.36 22.80ZM56.81 23.09L56.81 23.09Q55.06 23.09 53.71 22.28Q52.37 21.48 51.61 20.06Q50.86 18.65 50.86 16.80L50.86 16.80Q50.86 14.95 51.61 13.54Q52.37 12.12 53.70 11.32Q55.03 10.51 56.76 10.51L56.76 10.51Q58.44 10.51 59.66 11.34Q60.89 12.17 61.56 13.66Q62.23 15.14 62.23 17.16L62.23 17.16L52.32 17.16L52.80 16.75Q52.80 18.19 53.32 19.22Q53.83 20.26 54.77 20.80Q55.70 21.34 56.90 21.34L56.90 21.34Q58.18 21.34 59.05 20.74Q59.93 20.14 60.41 19.15L60.41 19.15L62.06 19.99Q61.61 20.93 60.85 21.62Q60.10 22.32 59.08 22.70Q58.06 23.09 56.81 23.09ZM52.92 15.94L52.92 15.94L52.42 15.55L60.70 15.55L60.19 15.96Q60.19 14.81 59.74 13.97Q59.28 13.13 58.51 12.67Q57.74 12.22 56.74 12.22L56.74 12.22Q55.75 12.22 54.88 12.67Q54.00 13.13 53.46 13.96Q52.92 14.78 52.92 15.94ZM69.91 23.09L69.91 23.09Q68.16 23.09 66.82 22.28Q65.47 21.48 64.72 20.06Q63.96 18.65 63.96 16.80L63.96 16.80Q63.96 14.95 64.72 13.54Q65.47 12.12 66.80 11.32Q68.14 10.51 69.86 10.51L69.86 10.51Q71.54 10.51 72.77 11.34Q73.99 12.17 74.66 13.66Q75.34 15.14 75.34 17.16L75.34 17.16L65.42 17.16L65.90 16.75Q65.90 18.19 66.42 19.22Q66.94 20.26 67.87 20.80Q68.81 21.34 70.01 21.34L70.01 21.34Q71.28 21.34 72.16 20.74Q73.03 20.14 73.51 19.15L73.51 19.15L75.17 19.99Q74.71 20.93 73.96 21.62Q73.20 22.32 72.18 22.70Q71.16 23.09 69.91 23.09ZM66.02 15.94L66.02 15.94L65.52 15.55L73.80 15.55L73.30 15.96Q73.30 14.81 72.84 13.97Q72.38 13.13 71.62 12.67Q70.85 12.22 69.84 12.22L69.84 12.22Q68.86 12.22 67.98 12.67Q67.10 13.13 66.56 13.96Q66.02 14.78 66.02 15.94Z"/></svg>