<svg xmlns="http://www.w3.org/2000/svg" xmlns:xlink="http://www.w3.org/1999/xlink" width="311.109375" height="50.390625"><path fill="black" d="M15.74 19.59L15.27 19.59Q15.09 18.69 14.82 18.02Q14.55 17.36 14.12 16.92Q13.69 16.48 13.07 16.26Q12.46 16.04 11.59 16.04L11.59 16.04L10.22 16.04L10.22 29.05Q10.22 29.68 10.31 30.10Q10.41 30.52 10.66 30.76Q10.92 31.00 11.38 31.09Q11.85 31.18 12.60 31.18L12.60 31.18L12.60 31.64L4.01 31.64L4.01 31.18Q4.76 31.18 5.22 31.09Q5.68 31.00 5.94 30.76Q6.20 30.52 6.29 30.10Q6.39 29.68 6.39 29.05L6.39 29.05L6.39 16.04L5.02 16.04Q4.16 16.04 3.54 16.26Q2.93 16.48 2.51 16.92Q2.09 17.36 1.82 18.02Q1.55 18.69 1.37 19.59L1.37 19.59L0.89 19.59L0.89 15.13L15.74 15.13L15.74 19.59ZM28.36 29.77L28.70 30.11Q28.55 30.33 28.29 30.62Q28.04 30.91 27.69 31.18Q27.34 31.44 26.90 31.62Q26.46 31.80 25.92 31.80L25.92 31.80Q25.36 31.80 24.97 31.65Q24.57 31.49 24.32 31.23Q24.06 30.97 23.92 30.64Q23.79 30.32 23.75 29.99L23.75 29.99Q23.41 30.27 23.00 30.58Q22.58 30.89 22.11 31.16Q21.63 31.43 21.13 31.61Q20.63 31.78 20.13 31.78L20.13 31.78Q19.61 31.78 19.17 31.62Q18.74 31.46 18.42 31.18Q18.11 30.89 17.93 30.49Q17.75 30.09 17.75 29.60L17.75 29.60Q17.75 28.86 18.11 28.22Q18.46 27.59 19.19 26.98Q19.92 26.38 21.05 25.76Q22.18 25.15 23.75 24.45L23.75 24.45L23.75 22.57Q23.75 21.77 23.38 21.32Q23.00 20.86 22.17 20.86L22.17 20.86Q21.93 20.86 21.65 20.89Q21.38 20.93 21.15 21.03Q20.92 21.13 20.77 21.29Q20.61 21.46 20.61 21.70L20.61 21.70Q20.61 21.95 20.74 22.12Q20.86 22.29 21.01 22.46Q21.16 22.63 21.29 22.83Q21.41 23.04 21.41 23.36L21.41 23.36Q21.41 23.70 21.28 23.96Q21.14 24.22 20.92 24.41Q20.70 24.60 20.40 24.70Q20.11 24.80 19.79 24.80L19.79 24.80Q19.51 24.80 19.19 24.69Q18.87 24.59 18.60 24.38Q18.33 24.18 18.15 23.89Q17.98 23.61 17.98 23.26L17.98 23.26Q17.98 22.72 18.19 22.27Q18.41 21.81 18.78 21.43Q19.15 21.06 19.65 20.78Q20.16 20.50 20.73 20.30Q21.30 20.11 21.92 20.01Q22.54 19.91 23.13 19.91L23.13 19.91Q24.26 19.91 25.03 20.20Q25.79 20.48 26.27 20.98Q26.74 21.47 26.95 22.12Q27.16 22.77 27.16 23.48L27.16 23.48L27.16 29.46Q27.16 29.80 27.29 30.03Q27.41 30.26 27.63 30.26L27.63 30.26Q27.95 30.26 28.36 29.77L28.36 29.77ZM23.75 29.05L23.75 25.28Q23.60 25.36 23.35 25.52Q23.10 25.68 22.80 25.89Q22.50 26.11 22.20 26.38Q21.89 26.65 21.65 26.97Q21.41 27.29 21.25 27.66Q21.09 28.03 21.09 28.43L21.09 28.43Q21.09 29.04 21.46 29.40Q21.82 29.77 22.36 29.77L22.36 29.77Q22.58 29.77 22.80 29.68Q23.03 29.60 23.21 29.49Q23.40 29.38 23.54 29.26Q23.68 29.13 23.75 29.05L23.75 29.05ZM34.58 16.04L34.58 16.04Q34.58 16.44 34.44 16.79Q34.29 17.13 34.03 17.39Q33.77 17.65 33.43 17.79Q33.08 17.94 32.68 17.94L32.68 17.94Q32.29 17.94 31.95 17.79Q31.61 17.65 31.35 17.39Q31.10 17.13 30.96 16.79Q30.81 16.44 30.81 16.04L30.81 16.04Q30.81 15.64 30.96 15.30Q31.10 14.96 31.35 14.71Q31.61 14.46 31.95 14.31Q32.29 14.17 32.68 14.17L32.68 14.17Q33.08 14.17 33.43 14.31Q33.77 14.46 34.03 14.71Q34.29 14.96 34.44 15.30Q34.58 15.64 34.58 16.04ZM35.78 31.64L29.64 31.64L29.64 31.18Q30.11 31.17 30.38 31.06Q30.64 30.95 30.78 30.74Q30.91 30.53 30.95 30.20Q30.98 29.87 30.98 29.41L30.98 29.41L30.98 22.59Q30.98 22.02 30.94 21.67Q30.90 21.32 30.76 21.12Q30.62 20.92 30.35 20.84Q30.08 20.75 29.64 20.70L29.64 20.70L29.64 20.26L34.39 20.26L34.39 29.41Q34.39 29.87 34.44 30.20Q34.48 30.53 34.62 30.74Q34.76 30.95 35.03 31.06Q35.31 31.17 35.78 31.18L35.78 31.18L35.78 31.64ZM61.91 31.64L53.41 31.64L53.41 31.18Q54.16 31.18 54.62 31.09Q55.08 31.00 55.33 30.76Q55.58 30.52 55.66 30.10Q55.75 29.68 55.75 29.05L55.75 29.05L55.75 23.70L49.62 23.70L49.62 29.05Q49.62 29.68 49.70 30.10Q49.78 30.52 50.03 30.76Q50.29 31.00 50.74 31.09Q51.20 31.18 51.95 31.18L51.95 31.18L51.95 31.64L43.45 31.64L43.45 31.18Q44.20 31.18 44.66 31.09Q45.12 31.00 45.37 30.76Q45.62 30.52 45.70 30.10Q45.79 29.68 45.79 29.05L45.79 29.05L45.79 17.72Q45.79 17.09 45.70 16.67Q45.62 16.25 45.37 16.01Q45.12 15.77 44.66 15.68Q44.20 15.59 43.45 15.59L43.45 15.59L43.45 15.13L51.95 15.13L51.95 15.59Q51.20 15.59 50.74 15.68Q50.29 15.77 50.03 16.01Q49.78 16.25 49.70 16.67Q49.62 17.09 49.62 17.72L49.62 17.72L49.62 22.64L55.75 22.64L55.75 17.72Q55.75 17.09 55.66 16.67Q55.58 16.25 55.33 16.01Q55.08 15.77 54.62 15.68Q54.16 15.59 53.41 15.59L53.41 15.59L53.41 15.13L61.91 15.13L61.91 15.59Q61.16 15.59 60.70 15.68Q60.25 15.77 59.99 16.01Q59.74 16.25 59.66 16.67Q59.58 17.09 59.58 17.72L59.58 17.72L59.58 29.05Q59.58 29.68 59.66 30.10Q59.74 30.52 59.99 30.76Q60.25 31.00 60.70 31.09Q61.16 31.18 61.91 31.18L61.91 31.18L61.91 31.64ZM72.45 28.25L72.86 28.52Q72.61 29.03 72.25 29.63Q71.88 30.23 71.33 30.76Q70.78 31.29 70.01 31.65Q69.23 32.00 68.16 32.00L68.16 32.00Q67.02 32.00 66.12 31.58Q65.23 31.15 64.61 30.36Q63.98 29.58 63.66 28.46Q63.33 27.34 63.33 25.96L63.33 25.96Q63.33 24.45 63.80 23.31Q64.27 22.18 65.01 21.43Q65.75 20.67 66.67 20.29Q67.58 19.91 68.46 19.91L68.46 19.91Q69.60 19.91 70.42 20.41Q71.25 20.91 71.79 21.71Q72.33 22.51 72.59 23.51Q72.86 24.52 72.86 25.52L72.86 25.52L66.61 25.52Q66.62 26.24 66.82 27.05Q67.02 27.86 67.42 28.55Q67.82 29.24 68.42 29.70Q69.02 30.15 69.86 30.15L69.86 30.15Q70.32 30.15 70.71 29.98Q71.10 29.80 71.41 29.53Q71.73 29.25 71.98 28.92Q72.23 28.58 72.45 28.25L72.45 28.25ZM66.56 24.73L69.86 24.73Q69.86 24.39 69.85 23.96Q69.84 23.53 69.80 23.08Q69.76 22.63 69.67 22.20Q69.57 21.77 69.40 21.44Q69.23 21.11 68.97 20.90Q68.71 20.70 68.32 20.70L68.32 20.70Q67.92 20.70 67.63 20.90Q67.35 21.11 67.15 21.45Q66.96 21.79 66.84 22.22Q66.73 22.65 66.66 23.10Q66.60 23.54 66.58 23.97Q66.56 24.40 66.56 24.73L66.56 24.73ZM74.37 20.26L79.02 20.26L79.02 22.83Q79.35 22.34 79.72 21.82Q80.09 21.30 80.53 20.88Q80.96 20.45 81.49 20.18Q82.02 19.91 82.66 19.91L82.66 19.91Q83.40 19.91 83.78 20.38Q84.15 20.86 84.15 21.56L84.15 21.56Q84.15 21.91 84.06 22.22Q83.96 22.52 83.79 22.75Q83.61 22.98 83.36 23.11Q83.11 23.24 82.79 23.24L82.79 23.24Q82.37 23.24 82.09 23.09Q81.81 22.93 81.61 22.76Q81.41 22.58 81.23 22.43Q81.06 22.28 80.85 22.28L80.85 22.28Q80.43 22.28 80.09 22.63Q79.75 22.99 79.51 23.56Q79.27 24.13 79.14 24.83Q79.02 25.54 79.02 26.21L79.02 26.21L79.02 29.41Q79.02 29.87 79.04 30.20Q79.07 30.53 79.21 30.74Q79.35 30.95 79.65 31.06Q79.95 31.17 80.51 31.18L80.51 31.18L80.51 31.64L74.37 31.64L74.37 31.18Q74.77 31.17 75.01 31.06Q75.26 30.95 75.39 30.74Q75.53 30.53 75.57 30.20Q75.61 29.87 75.61 29.41L75.61 29.41L75.61 22.59Q75.61 22.02 75.57 21.67Q75.54 21.32 75.41 21.12Q75.28 20.92 75.04 20.84Q74.79 20.75 74.37 20.70L74.37 20.70L74.37 20.26ZM90.01 16.04L90.01 16.04Q90.01 16.44 89.87 16.79Q89.72 17.13 89.46 17.39Q89.20 17.65 88.86 17.79Q88.51 17.94 88.11 17.94L88.11 17.94Q87.71 17.94 87.38 17.79Q87.04 17.65 86.78 17.39Q86.53 17.13 86.38 16.79Q86.24 16.44 86.24 16.04L86.24 16.04Q86.24 15.64 86.38 15.30Q86.53 14.96 86.78 14.71Q87.04 14.46 87.38 14.31Q87.71 14.17 88.11 14.17L88.11 14.17Q88.51 14.17 88.86 14.31Q89.20 14.46 89.46 14.71Q89.72 14.96 89.87 15.30Q90.01 15.64 90.01 16.04ZM91.21 31.64L85.07 31.64L85.07 31.18Q85.54 31.17 85.80 31.06Q86.07 30.95 86.21 30.74Q86.34 30.53 86.38 30.20Q86.41 29.87 86.41 29.41L86.41 29.41L86.41 22.59Q86.41 22.02 86.37 21.67Q86.33 21.32 86.19 21.12Q86.05 20.92 85.78 20.84Q85.51 20.75 85.07 20.70L85.07 20.70L85.07 20.26L89.82 20.26L89.82 29.41Q89.82 29.87 89.87 30.20Q89.91 30.53 90.05 30.74Q90.19 30.95 90.46 31.06Q90.74 31.17 91.21 31.18L91.21 31.18L91.21 31.64ZM99.15 29.41L99.52 29.70Q99.34 30.14 99.06 30.55Q98.79 30.96 98.40 31.29Q98.02 31.62 97.51 31.81Q97.00 32.00 96.35 32.00L96.35 32.00Q95.73 32.00 95.19 31.80Q94.65 31.61 94.26 31.23Q93.87 30.86 93.64 30.30Q93.42 29.75 93.42 29.05L93.42 29.05L93.42 21.47L91.96 21.47L91.96 21.04Q92.71 20.47 93.35 19.91Q93.98 19.35 94.52 18.75Q95.06 18.15 95.53 17.50Q96 16.84 96.42 16.09L96.42 16.09L96.83 16.09L96.83 20.26L99.52 20.26L99.52 21.47L96.83 21.47L96.83 29.19Q96.83 30.61 97.66 30.61L97.66 30.61Q97.93 30.61 98.17 30.48Q98.40 30.35 98.58 30.17Q98.77 29.99 98.91 29.78Q99.06 29.58 99.15 29.41L99.15 29.41ZM111.49 29.77L111.83 30.11Q111.68 30.33 111.43 30.62Q111.18 30.91 110.82 31.18Q110.47 31.44 110.03 31.62Q109.59 31.80 109.05 31.80L109.05 31.80Q108.49 31.80 108.10 31.65Q107.71 31.49 107.45 31.23Q107.19 30.97 107.06 30.64Q106.92 30.32 106.89 29.99L106.89 29.99Q106.55 30.27 106.13 30.58Q105.71 30.89 105.24 31.16Q104.77 31.43 104.26 31.61Q103.76 31.78 103.27 31.78L103.27 31.78Q102.74 31.78 102.30 31.62Q101.87 31.46 101.55 31.18Q101.24 30.89 101.06 30.49Q100.89 30.09 100.89 29.60L100.89 29.60Q100.89 28.86 101.24 28.22Q101.59 27.59 102.32 26.98Q103.05 26.38 104.19 25.76Q105.32 25.15 106.89 24.45L106.89 24.45L106.89 22.57Q106.89 21.77 106.51 21.32Q106.14 20.86 105.30 20.86L105.30 20.86Q105.06 20.86 104.78 20.89Q104.51 20.93 104.28 21.03Q104.05 21.13 103.90 21.29Q103.75 21.46 103.75 21.70L103.75 21.70Q103.75 21.95 103.87 22.12Q103.99 22.29 104.14 22.46Q104.30 22.63 104.42 22.83Q104.54 23.04 104.54 23.36L104.54 23.36Q104.54 23.70 104.41 23.96Q104.27 24.22 104.05 24.41Q103.83 24.60 103.54 24.70Q103.24 24.80 102.93 24.80L102.93 24.80Q102.64 24.80 102.32 24.69Q102 24.59 101.73 24.38Q101.46 24.18 101.29 23.89Q101.11 23.61 101.11 23.26L101.11 23.26Q101.11 22.72 101.33 22.27Q101.54 21.81 101.91 21.43Q102.28 21.06 102.79 20.78Q103.29 20.50 103.86 20.30Q104.44 20.11 105.05 20.01Q105.67 19.91 106.27 19.91L106.27 19.91Q107.39 19.91 108.16 20.20Q108.93 20.48 109.40 20.98Q109.88 21.47 110.09 22.12Q110.30 22.77 110.30 23.48L110.30 23.48L110.30 29.46Q110.30 29.80 110.42 30.03Q110.54 30.26 110.77 30.26L110.77 30.26Q111.08 30.26 111.49 29.77L111.49 29.77ZM106.89 29.05L106.89 25.28Q106.73 25.36 106.48 25.52Q106.23 25.68 105.93 25.89Q105.63 26.11 105.33 26.38Q105.02 26.65 104.78 26.97Q104.54 27.29 104.38 27.66Q104.23 28.03 104.23 28.43L104.23 28.43Q104.23 29.04 104.59 29.40Q104.95 29.77 105.49 29.77L105.49 29.77Q105.71 29.77 105.94 29.68Q106.16 29.60 106.35 29.49Q106.54 29.38 106.68 29.26Q106.82 29.13 106.89 29.05L106.89 29.05ZM124.17 20.38L124.17 21.73L121.96 21.73Q122.44 22.16 122.78 22.77Q123.12 23.38 123.12 24.18L123.12 24.18Q123.12 25.08 122.71 25.82Q122.30 26.55 121.63 27.08Q120.97 27.61 120.13 27.90Q119.30 28.18 118.45 28.18L118.45 28.18Q118.14 28.18 117.74 28.16Q117.35 28.14 117 28.14L117 28.14Q116.74 28.14 116.52 28.23Q116.30 28.32 116.13 28.49Q115.96 28.66 115.86 28.89Q115.77 29.11 115.77 29.36L115.77 29.36Q115.77 29.88 116.16 30.13Q116.55 30.39 117.47 30.39L117.47 30.39Q117.61 30.39 117.88 30.38Q118.15 30.36 118.46 30.35Q118.78 30.34 119.09 30.33Q119.40 30.32 119.64 30.32L119.64 30.32Q121.04 30.32 121.93 30.55Q122.81 30.79 123.32 31.20Q123.82 31.61 124.01 32.16Q124.20 32.71 124.20 33.34L124.20 33.34Q124.20 34.07 123.87 34.73Q123.54 35.40 122.83 35.91Q122.12 36.42 120.99 36.73Q119.86 37.04 118.24 37.04L118.24 37.04Q117.07 37.04 116.12 36.87Q115.17 36.70 114.50 36.40Q113.82 36.11 113.46 35.69Q113.09 35.27 113.09 34.78L113.09 34.78Q113.09 34.39 113.24 34.11Q113.39 33.83 113.66 33.63Q113.93 33.42 114.29 33.28Q114.66 33.14 115.08 33.04L115.08 33.04Q114.76 32.87 114.48 32.67Q114.20 32.46 113.98 32.20Q113.77 31.93 113.64 31.61Q113.52 31.29 113.52 30.90L113.52 30.90Q113.52 30.30 113.76 29.82Q114 29.33 114.39 28.96Q114.77 28.58 115.25 28.30Q115.73 28.02 116.20 27.84L116.20 27.84Q115.79 27.73 115.25 27.44Q114.71 27.15 114.23 26.68Q113.75 26.21 113.42 25.55Q113.09 24.88 113.09 23.99L113.09 23.99Q113.09 23.05 113.50 22.29Q113.91 21.54 114.59 21.01Q115.27 20.48 116.14 20.20Q117.02 19.91 117.97 19.91L117.97 19.91Q118.32 19.91 118.67 19.95Q119.02 19.99 119.32 20.06Q119.63 20.12 119.89 20.21Q120.15 20.30 120.33 20.38L120.33 20.38L124.17 20.38ZM119.85 24.20L119.85 24.20Q119.85 23.64 119.80 23.01Q119.75 22.38 119.59 21.86Q119.43 21.33 119.09 20.99Q118.76 20.65 118.20 20.65L118.20 20.65Q117.69 20.65 117.37 20.94Q117.05 21.23 116.87 21.74Q116.68 22.24 116.61 22.90Q116.54 23.55 116.54 24.27L116.54 24.27Q116.54 24.80 116.60 25.37Q116.65 25.95 116.82 26.41Q117 26.88 117.33 27.19Q117.66 27.49 118.22 27.49L118.22 27.49Q118.69 27.49 119.00 27.24Q119.31 26.99 119.50 26.54Q119.68 26.10 119.77 25.49Q119.85 24.89 119.85 24.20ZM122.23 34.50L122.23 34.50Q122.23 33.97 121.68 33.67Q121.13 33.36 119.85 33.36L119.85 33.36Q119.52 33.36 119.22 33.35Q118.92 33.34 118.60 33.33Q118.28 33.33 117.91 33.32Q117.55 33.30 117.11 33.30L117.11 33.30Q116.20 33.30 115.68 33.60Q115.15 33.90 115.15 34.45L115.15 34.45Q115.15 34.80 115.31 35.12Q115.46 35.43 115.85 35.66Q116.24 35.89 116.89 36.04Q117.54 36.18 118.51 36.18L118.51 36.18Q119.11 36.18 119.76 36.11Q120.41 36.04 120.96 35.85Q121.51 35.66 121.87 35.34Q122.23 35.02 122.23 34.50ZM134.80 28.25L135.21 28.52Q134.96 29.03 134.60 29.63Q134.24 30.23 133.69 30.76Q133.14 31.29 132.36 31.65Q131.59 32.00 130.51 32.00L130.51 32.00Q129.38 32.00 128.48 31.58Q127.58 31.15 126.96 30.36Q126.34 29.58 126.01 28.46Q125.68 27.34 125.68 25.96L125.68 25.96Q125.68 24.45 126.15 23.31Q126.62 22.18 127.37 21.43Q128.11 20.67 129.02 20.29Q129.94 19.91 130.82 19.91L130.82 19.91Q131.95 19.91 132.78 20.41Q133.61 20.91 134.14 21.71Q134.68 22.51 134.95 23.51Q135.21 24.52 135.21 25.52L135.21 25.52L128.96 25.52Q128.98 26.24 129.18 27.05Q129.38 27.86 129.77 28.55Q130.17 29.24 130.78 29.70Q131.38 30.15 132.21 30.15L132.21 30.15Q132.68 30.15 133.07 29.98Q133.45 29.80 133.77 29.53Q134.09 29.25 134.34 28.92Q134.59 28.58 134.80 28.25L134.80 28.25ZM128.92 24.73L132.21 24.73Q132.21 24.39 132.21 23.96Q132.20 23.53 132.16 23.08Q132.12 22.63 132.02 22.20Q131.93 21.77 131.76 21.44Q131.59 21.11 131.33 20.90Q131.06 20.70 130.68 20.70L130.68 20.70Q130.28 20.70 129.99 20.90Q129.70 21.11 129.51 21.45Q129.32 21.79 129.20 22.22Q129.08 22.65 129.02 23.10Q128.95 23.54 128.94 23.97Q128.92 24.40 128.92 24.73L128.92 24.73ZM143.31 15.59L143.31 15.13L151.21 15.13Q152.61 15.13 153.71 15.45Q154.82 15.77 155.58 16.36Q156.35 16.95 156.76 17.77Q157.16 18.60 157.16 19.62L157.16 19.62Q157.16 20.57 156.79 21.40Q156.42 22.23 155.63 22.84Q154.83 23.45 153.57 23.80Q152.31 24.15 150.52 24.15L150.52 24.15L149.40 24.15L149.40 29.17Q149.40 29.77 149.49 30.15Q149.58 30.54 149.82 30.77Q150.07 31.00 150.52 31.09Q150.96 31.18 151.69 31.18L151.69 31.18L151.69 31.64L143.31 31.64L143.31 31.18Q144.06 31.18 144.50 31.09Q144.95 31.00 145.18 30.76Q145.42 30.52 145.49 30.10Q145.57 29.68 145.57 29.05L145.57 29.05L145.57 17.72Q145.57 17.09 145.49 16.67Q145.42 16.25 145.18 16.01Q144.95 15.77 144.50 15.68Q144.06 15.59 143.31 15.59L143.31 15.59ZM153.11 19.62L153.11 19.62Q153.11 18.94 152.96 18.29Q152.82 17.65 152.47 17.14Q152.11 16.64 151.50 16.34Q150.89 16.04 149.95 16.04L149.95 16.04L149.40 16.04L149.40 23.24L149.95 23.24Q150.88 23.24 151.49 22.93Q152.10 22.63 152.46 22.13Q152.81 21.63 152.96 20.98Q153.11 20.32 153.11 19.62ZM158.81 20.26L163.46 20.26L163.46 22.83Q163.79 22.34 164.16 21.82Q164.53 21.30 164.97 20.88Q165.41 20.45 165.94 20.18Q166.46 19.91 167.11 19.91L167.11 19.91Q167.85 19.91 168.22 20.38Q168.60 20.86 168.60 21.56L168.60 21.56Q168.60 21.91 168.50 22.22Q168.41 22.52 168.23 22.75Q168.06 22.98 167.81 23.11Q167.55 23.24 167.24 23.24L167.24 23.24Q166.82 23.24 166.54 23.09Q166.25 22.93 166.05 22.76Q165.86 22.58 165.68 22.43Q165.50 22.28 165.29 22.28L165.29 22.28Q164.87 22.28 164.53 22.63Q164.19 22.99 163.95 23.56Q163.71 24.13 163.59 24.83Q163.46 25.54 163.46 26.21L163.46 26.21L163.46 29.41Q163.46 29.87 163.49 30.20Q163.51 30.53 163.65 30.74Q163.79 30.95 164.09 31.06Q164.39 31.17 164.95 31.18L164.95 31.18L164.95 31.64L158.81 31.64L158.81 31.18Q159.21 31.17 159.46 31.06Q159.70 30.95 159.84 30.74Q159.97 30.53 160.01 30.20Q160.05 29.87 160.05 29.41L160.05 29.41L160.05 22.59Q160.05 22.02 160.02 21.67Q159.98 21.32 159.86 21.12Q159.73 20.92 159.48 20.84Q159.23 20.75 158.81 20.70L158.81 20.70L158.81 20.26ZM180.57 25.96L180.57 25.96Q180.57 27.14 180.22 28.23Q179.86 29.32 179.17 30.16Q178.49 31.00 177.49 31.50Q176.50 32.00 175.22 32.00L175.22 32.00Q173.94 32.00 172.95 31.50Q171.96 31.00 171.28 30.16Q170.59 29.32 170.23 28.23Q169.88 27.14 169.88 25.96L169.88 25.96Q169.88 24.77 170.23 23.68Q170.59 22.59 171.28 21.76Q171.96 20.92 172.95 20.41Q173.94 19.91 175.22 19.91L175.22 19.91Q176.50 19.91 177.49 20.41Q178.49 20.92 179.17 21.76Q179.86 22.59 180.22 23.68Q180.57 24.77 180.57 25.96ZM177 25.96L177 25.96Q177 24.55 176.90 23.57Q176.80 22.58 176.58 21.96Q176.37 21.33 176.03 21.05Q175.69 20.77 175.22 20.77L175.22 20.77Q174.75 20.77 174.42 21.05Q174.08 21.33 173.87 21.96Q173.65 22.58 173.55 23.57Q173.45 24.55 173.45 25.96L173.45 25.96Q173.45 27.36 173.55 28.35Q173.65 29.33 173.87 29.95Q174.08 30.57 174.42 30.86Q174.75 31.14 175.22 31.14L175.22 31.14Q175.69 31.14 176.03 30.86Q176.37 30.57 176.58 29.95Q176.80 29.33 176.90 28.35Q177 27.36 177 25.96ZM200.16 15.13L194.60 32.00L192.69 32.00L197.20 18.34L193.65 18.34Q192.81 18.34 192.17 18.42Q191.53 18.50 191.04 18.71Q190.56 18.93 190.20 19.29Q189.84 19.66 189.59 20.24L189.59 20.24L189.11 20.24L190.31 15.13L200.16 15.13ZM212.79 23.38L212.79 23.38Q212.79 24.36 212.67 25.39Q212.54 26.41 212.28 27.38Q212.02 28.34 211.60 29.18Q211.18 30.02 210.59 30.65Q210 31.28 209.22 31.64Q208.44 32.00 207.47 32.00L207.47 32.00Q206.50 32.00 205.72 31.64Q204.94 31.28 204.35 30.65Q203.75 30.02 203.33 29.18Q202.91 28.34 202.65 27.38Q202.38 26.41 202.26 25.39Q202.14 24.38 202.14 23.38L202.14 23.38Q202.14 22.39 202.26 21.37Q202.38 20.34 202.65 19.39Q202.91 18.43 203.33 17.59Q203.75 16.75 204.35 16.12Q204.94 15.49 205.71 15.13Q206.48 14.77 207.47 14.77L207.47 14.77Q208.44 14.77 209.22 15.13Q210 15.49 210.59 16.12Q211.18 16.75 211.60 17.59Q212.02 18.43 212.28 19.39Q212.54 20.34 212.67 21.37Q212.79 22.39 212.79 23.38ZM209.05 23.38L209.05 23.38Q209.05 22.52 209.03 21.62Q209.00 20.71 208.93 19.85Q208.86 18.98 208.75 18.22Q208.64 17.46 208.46 16.89Q208.29 16.32 208.04 15.99Q207.80 15.66 207.47 15.66L207.47 15.66Q207.14 15.66 206.89 15.99Q206.64 16.32 206.45 16.89Q206.26 17.46 206.14 18.22Q206.02 18.98 205.94 19.85Q205.86 20.71 205.83 21.62Q205.80 22.52 205.80 23.38L205.80 23.38Q205.80 24.25 205.83 25.15Q205.86 26.06 205.94 26.92Q206.02 27.79 206.14 28.55Q206.26 29.31 206.45 29.88Q206.64 30.45 206.89 30.78Q207.14 31.11 207.47 31.11L207.47 31.11Q207.80 31.11 208.04 30.78Q208.29 30.45 208.46 29.88Q208.64 29.31 208.75 28.55Q208.86 27.79 208.93 26.92Q209.00 26.06 209.03 25.15Q209.05 24.25 209.05 23.38ZM225.50 23.38L225.50 23.38Q225.50 24.36 225.38 25.39Q225.26 26.41 224.99 27.38Q224.73 28.34 224.31 29.18Q223.90 30.02 223.31 30.65Q222.71 31.28 221.94 31.64Q221.16 32.00 220.18 32.00L220.18 32.00Q219.21 32.00 218.43 31.64Q217.65 31.28 217.06 30.65Q216.47 30.02 216.05 29.18Q215.63 28.34 215.36 27.38Q215.10 26.41 214.97 25.39Q214.85 24.38 214.85 23.38L214.85 23.38Q214.85 22.39 214.97 21.37Q215.10 20.34 215.36 19.39Q215.63 18.43 216.05 17.59Q216.47 16.75 217.06 16.12Q217.65 15.49 218.43 15.13Q219.20 14.77 220.18 14.77L220.18 14.77Q221.16 14.77 221.94 15.13Q222.71 15.49 223.31 16.12Q223.90 16.75 224.31 17.59Q224.73 18.43 224.99 19.39Q225.26 20.34 225.38 21.37Q225.50 22.39 225.50 23.38ZM221.77 23.38L221.77 23.38Q221.77 22.52 221.74 21.62Q221.72 20.71 221.65 19.85Q221.58 18.98 221.47 18.22Q221.36 17.46 221.18 16.89Q221.00 16.32 220.76 15.99Q220.51 15.66 220.18 15.66L220.18 15.66Q219.86 15.66 219.60 15.99Q219.35 16.32 219.16 16.89Q218.98 17.46 218.85 18.22Q218.73 18.98 218.65 19.85Q218.58 20.71 218.55 21.62Q218.52 22.52 218.52 23.38L218.52 23.38Q218.52 24.25 218.55 25.15Q218.58 26.06 218.65 26.92Q218.73 27.79 218.85 28.55Q218.98 29.31 219.16 29.88Q219.35 30.45 219.60 30.78Q219.86 31.11 220.18 31.11L220.18 31.11Q220.51 31.11 220.76 30.78Q221.00 30.45 221.18 29.88Q221.36 29.31 221.47 28.55Q221.58 27.79 221.65 26.92Q221.72 26.06 221.74 25.15Q221.77 24.25 221.77 23.38ZM246.61 31.64L240.86 31.64L240.86 31.18Q241.20 31.14 241.42 31.02Q241.64 30.90 241.76 30.70Q241.89 30.50 241.93 30.19Q241.98 29.87 241.98 29.41L241.98 29.41L241.98 23.14Q241.98 22.44 241.73 22.00Q241.48 21.56 240.88 21.56L240.88 21.56Q240.54 21.56 240.26 21.70Q239.98 21.84 239.74 22.06Q239.50 22.28 239.30 22.55Q239.10 22.83 238.93 23.10L238.93 23.10L238.93 29.41Q238.93 29.87 238.98 30.19Q239.03 30.50 239.16 30.70Q239.29 30.90 239.51 31.02Q239.73 31.14 240.08 31.18L240.08 31.18L240.08 31.64L234.30 31.64L234.30 31.18Q234.70 31.14 234.95 31.05Q235.20 30.96 235.32 30.77Q235.44 30.59 235.48 30.26Q235.52 29.93 235.52 29.41L235.52 29.41L235.52 22.59Q235.52 22.02 235.48 21.67Q235.43 21.32 235.30 21.12Q235.17 20.92 234.93 20.84Q234.69 20.75 234.30 20.70L234.30 20.70L234.30 20.26L238.93 20.26L238.93 21.73Q239.20 21.45 239.54 21.12Q239.88 20.80 240.30 20.53Q240.71 20.26 241.20 20.09Q241.68 19.91 242.23 19.91L242.23 19.91Q243.04 19.91 243.63 20.19Q244.23 20.46 244.62 20.98Q245.00 21.49 245.20 22.22Q245.39 22.96 245.39 23.86L245.39 23.86L245.39 29.41Q245.39 29.87 245.43 30.19Q245.46 30.50 245.58 30.71Q245.71 30.91 245.95 31.03Q246.20 31.14 246.61 31.18L246.61 31.18L246.61 31.64ZM258.93 25.96L258.93 25.96Q258.93 27.14 258.57 28.23Q258.21 29.32 257.53 30.16Q256.84 31.00 255.84 31.50Q254.85 32.00 253.57 32.00L253.57 32.00Q252.29 32.00 251.30 31.50Q250.31 31.00 249.63 30.16Q248.94 29.32 248.58 28.23Q248.23 27.14 248.23 25.96L248.23 25.96Q248.23 24.77 248.58 23.68Q248.94 22.59 249.63 21.76Q250.31 20.92 251.30 20.41Q252.29 19.91 253.57 19.91L253.57 19.91Q254.85 19.91 255.84 20.41Q256.84 20.92 257.53 21.76Q258.21 22.59 258.57 23.68Q258.93 24.77 258.93 25.96ZM255.35 25.96L255.35 25.96Q255.35 24.55 255.25 23.57Q255.15 22.58 254.94 21.96Q254.72 21.33 254.38 21.05Q254.04 20.77 253.57 20.77L253.57 20.77Q253.10 20.77 252.77 21.05Q252.43 21.33 252.22 21.96Q252 22.58 251.90 23.57Q251.80 24.55 251.80 25.96L251.80 25.96Q251.80 27.36 251.90 28.35Q252 29.33 252.22 29.95Q252.43 30.57 252.77 30.86Q253.10 31.14 253.57 31.14L253.57 31.14Q254.04 31.14 254.38 30.86Q254.72 30.57 254.94 29.95Q255.15 29.33 255.25 28.35Q255.35 27.36 255.35 25.96ZM260.73 20.26L265.38 20.26L265.38 22.83Q265.71 22.34 266.08 21.82Q266.45 21.30 266.89 20.88Q267.33 20.45 267.86 20.18Q268.38 19.91 269.03 19.91L269.03 19.91Q269.77 19.91 270.14 20.38Q270.52 20.86 270.52 21.56L270.52 21.56Q270.52 21.91 270.42 22.22Q270.33 22.52 270.15 22.75Q269.98 22.98 269.72 23.11Q269.47 23.24 269.16 23.24L269.16 23.24Q268.73 23.24 268.45 23.09Q268.17 22.93 267.97 22.76Q267.77 22.58 267.60 22.43Q267.42 22.28 267.21 22.28L267.21 22.28Q266.79 22.28 266.45 22.63Q266.11 22.99 265.87 23.56Q265.63 24.13 265.51 24.83Q265.38 25.54 265.38 26.21L265.38 26.21L265.38 29.41Q265.38 29.87 265.41 30.20Q265.43 30.53 265.57 30.74Q265.71 30.95 266.01 31.06Q266.31 31.17 266.87 31.18L266.87 31.18L266.87 31.64L260.73 31.64L260.73 31.18Q261.13 31.17 261.38 31.06Q261.62 30.95 261.76 30.74Q261.89 30.53 261.93 30.20Q261.97 29.87 261.97 29.41L261.97 29.41L261.97 22.59Q261.97 22.02 261.94 21.67Q261.90 21.32 261.77 21.12Q261.64 20.92 261.40 20.84Q261.15 20.75 260.73 20.70L260.73 20.70L260.73 20.26ZM291.04 31.64L285.28 31.64L285.28 31.18Q285.59 31.14 285.80 31.02Q286.01 30.90 286.14 30.70Q286.28 30.50 286.34 30.19Q286.41 29.87 286.41 29.41L286.41 29.41L286.41 23.14Q286.41 22.44 286.15 21.98Q285.89 21.52 285.30 21.52L285.30 21.52Q284.96 21.52 284.66 21.64Q284.36 21.77 284.08 21.98Q283.80 22.20 283.56 22.48Q283.32 22.76 283.14 23.05L283.14 23.05L283.14 29.41Q283.14 29.89 283.18 30.22Q283.23 30.54 283.37 30.74Q283.50 30.94 283.75 31.04Q284.00 31.14 284.41 31.18L284.41 31.18L284.41 31.64L278.51 31.64L278.51 31.18Q278.87 31.14 279.11 31.04Q279.35 30.95 279.49 30.76Q279.63 30.56 279.69 30.24Q279.74 29.92 279.74 29.41L279.74 29.41L279.74 23.14Q279.74 22.44 279.45 21.97Q279.15 21.49 278.63 21.49L278.63 21.49Q277.97 21.49 277.46 21.91Q276.96 22.34 276.45 23.07L276.45 23.07L276.45 29.41Q276.45 29.87 276.49 30.19Q276.53 30.50 276.66 30.71Q276.79 30.91 277.03 31.03Q277.27 31.14 277.68 31.18L277.68 31.18L277.68 31.64L271.82 31.64L271.82 31.18Q272.21 31.14 272.46 31.05Q272.71 30.96 272.83 30.77Q272.95 30.59 272.99 30.26Q273.04 29.93 273.04 29.41L273.04 29.41L273.04 22.59Q273.04 22.02 272.99 21.67Q272.94 21.32 272.81 21.12Q272.68 20.92 272.44 20.84Q272.20 20.75 271.82 20.70L271.82 20.70L271.82 20.26L276.45 20.26L276.45 21.77Q276.89 21.29 277.29 20.94Q277.70 20.59 278.11 20.36Q278.52 20.13 278.97 20.02Q279.42 19.91 279.97 19.91L279.97 19.91Q280.62 19.91 281.10 20.07Q281.59 20.23 281.94 20.51Q282.29 20.79 282.53 21.17Q282.76 21.55 282.93 22.00L282.93 22.00Q283.70 21.07 284.63 20.49Q285.55 19.91 286.64 19.91L286.64 19.91Q287.48 19.91 288.09 20.19Q288.69 20.46 289.08 20.98Q289.46 21.49 289.64 22.22Q289.82 22.96 289.82 23.86L289.82 23.86L289.82 29.41Q289.82 29.87 289.85 30.19Q289.89 30.50 290.01 30.71Q290.13 30.91 290.38 31.03Q290.63 31.14 291.04 31.18L291.04 31.18L291.04 31.64ZM303.42 29.77L303.76 30.11Q303.61 30.33 303.36 30.62Q303.11 30.91 302.75 31.18Q302.40 31.44 301.96 31.62Q301.52 31.80 300.98 31.80L300.98 31.80Q300.42 31.80 300.03 31.65Q299.64 31.49 299.38 31.23Q299.12 30.97 298.99 30.64Q298.85 30.32 298.82 29.99L298.82 29.99Q298.48 30.27 298.06 30.58Q297.64 30.89 297.17 31.16Q296.70 31.43 296.19 31.61Q295.69 31.78 295.20 31.78L295.20 31.78Q294.67 31.78 294.23 31.62Q293.80 31.46 293.48 31.18Q293.17 30.89 292.99 30.49Q292.82 30.09 292.82 29.60L292.82 29.60Q292.82 28.86 293.17 28.22Q293.52 27.59 294.25 26.98Q294.98 26.38 296.12 25.76Q297.25 25.15 298.82 24.45L298.82 24.45L298.82 22.57Q298.82 21.77 298.44 21.32Q298.07 20.86 297.23 20.86L297.23 20.86Q296.99 20.86 296.71 20.89Q296.44 20.93 296.21 21.03Q295.98 21.13 295.83 21.29Q295.68 21.46 295.68 21.70L295.68 21.70Q295.68 21.95 295.80 22.12Q295.92 22.29 296.07 22.46Q296.23 22.63 296.35 22.83Q296.47 23.04 296.47 23.36L296.47 23.36Q296.47 23.70 296.34 23.96Q296.20 24.22 295.98 24.41Q295.76 24.60 295.46 24.70Q295.17 24.80 294.86 24.80L294.86 24.80Q294.57 24.80 294.25 24.69Q293.93 24.59 293.66 24.38Q293.39 24.18 293.21 23.89Q293.04 23.61 293.04 23.26L293.04 23.26Q293.04 22.72 293.26 22.27Q293.47 21.81 293.84 21.43Q294.21 21.06 294.71 20.78Q295.22 20.50 295.79 20.30Q296.37 20.11 296.98 20.01Q297.60 19.91 298.20 19.91L298.20 19.91Q299.32 19.91 300.09 20.20Q300.86 20.48 301.33 20.98Q301.80 21.47 302.02 22.12Q302.23 22.77 302.23 23.48L302.23 23.48L302.23 29.46Q302.23 29.80 302.35 30.03Q302.47 30.26 302.70 30.26L302.70 30.26Q303.01 30.26 303.42 29.77L303.42 29.77ZM298.82 29.05L298.82 25.28Q298.66 25.36 298.41 25.52Q298.16 25.68 297.86 25.89Q297.56 26.11 297.26 26.38Q296.95 26.65 296.71 26.97Q296.47 27.29 296.31 27.66Q296.16 28.03 296.16 28.43L296.16 28.43Q296.16 29.04 296.52 29.40Q296.88 29.77 297.42 29.77L297.42 29.77Q297.64 29.77 297.87 29.68Q298.09 29.60 298.28 29.49Q298.46 29.38 298.61 29.26Q298.75 29.13 298.82 29.05L298.82 29.05ZM310.84 31.64L304.70 31.64L304.70 31.18Q305.17 31.17 305.44 31.06Q305.71 30.95 305.84 30.74Q305.98 30.53 306.01 30.20Q306.05 29.87 306.05 29.41L306.05 29.41L306.05 17.46Q306.05 16.89 306.01 16.54Q305.96 16.18 305.82 15.98Q305.68 15.79 305.41 15.70Q305.14 15.62 304.70 15.56L304.70 15.56L304.70 15.13L309.46 15.13L309.46 29.41Q309.46 29.87 309.50 30.20Q309.54 30.53 309.68 30.74Q309.82 30.95 310.10 31.06Q310.37 31.17 310.84 31.18L310.84 31.18L310.84 31.64Z"/></svg>