<svg xmlns="http://www.w3.org/2000/svg" xmlns:xlink="http://www.w3.org/1999/xlink" width="317.00390625" height="31.65234375"><path fill="black" d="M1.72 7.32L1.72 7.32Q4.37 7.42 5.88 7.42L5.88 7.42Q7.31 7.42 9.96 7.32L9.96 7.32Q10.01 7.51 10.01 7.58L10.01 7.58Q10.01 7.71 9.96 7.88L9.96 7.88Q9.42 7.92 9.08 7.97Q8.74 8.03 8.25 8.14Q7.76 8.26 7.50 8.48Q7.24 8.70 7.24 9L7.24 9Q7.23 9.76 7.21 12.57Q7.20 15.39 7.17 17.84L7.17 17.84Q7.15 19.79 7.11 21.04Q7.07 22.29 6.94 23.81Q6.82 25.32 6.60 26.24Q6.39 27.16 6.01 28.13Q5.64 29.10 5.10 29.61Q4.57 30.13 3.80 30.46Q3.02 30.79 2.02 30.79L2.02 30.79Q0.32 30.79-0.62 29.95Q-1.56 29.12-1.56 27.98L-1.56 27.98Q-1.56 27.01-1.04 26.48Q-0.53 25.95 0.32 25.95L0.32 25.95Q1.01 25.95 1.50 26.32Q1.99 26.70 1.99 27.43L1.99 27.43Q1.99 27.83 1.79 28.14Q1.59 28.45 1.35 28.60Q1.11 28.75 0.91 28.87Q0.71 28.99 0.71 29.04L0.71 29.04Q0.71 29.48 1.06 29.77Q1.41 30.05 2.02 30.05L2.02 30.05Q2.67 30.05 3.12 29.80Q3.57 29.55 3.86 29.11Q4.15 28.66 4.30 27.87Q4.45 27.07 4.51 26.17Q4.56 25.27 4.56 23.91L4.56 23.91Q4.56 12.33 4.44 9L4.44 9Q4.43 8.70 4.17 8.48Q3.91 8.26 3.42 8.14Q2.93 8.03 2.60 7.97Q2.26 7.92 1.72 7.88L1.72 7.88Q1.68 7.66 1.68 7.58L1.68 7.58Q1.68 7.46 1.72 7.32ZM12.60 16.85L12.60 16.85Q12.60 15.56 13.78 14.73Q14.95 13.90 16.56 13.90L16.56 13.90Q18.53 13.90 19.33 14.68Q20.13 15.47 20.13 17.33L20.13 17.33L20.13 22.20Q20.13 22.85 20.61 22.85L20.61 22.85Q21 22.85 21.60 21.91L21.60 21.91Q22.02 21.95 22.17 22.29L22.17 22.29Q22.09 22.41 21.89 22.71Q21.69 23.02 21.60 23.14Q21.50 23.27 21.30 23.54Q21.11 23.80 20.98 23.93Q20.86 24.06 20.65 24.23Q20.45 24.41 20.28 24.50Q20.11 24.59 19.89 24.65Q19.66 24.71 19.44 24.71L19.44 24.71Q18.86 24.71 18.47 24.29Q18.09 23.87 18.02 22.99L18.02 22.99Q18.01 23.00 17.66 23.33Q17.31 23.66 17.17 23.77Q17.04 23.88 16.67 24.16Q16.30 24.43 16.04 24.55Q15.79 24.67 15.40 24.78Q15.01 24.89 14.64 24.89L14.64 24.89Q14.04 24.89 13.58 24.73Q13.11 24.56 12.86 24.33Q12.60 24.09 12.43 23.78Q12.27 23.47 12.22 23.21Q12.16 22.96 12.16 22.70L12.16 22.70Q12.16 21.91 12.43 21.38Q12.69 20.84 13.41 20.37Q14.13 19.90 15.19 19.54Q16.24 19.17 18.02 18.71L18.02 18.71L18.02 17.09Q18.02 15.90 17.50 15.32Q16.98 14.73 16.10 14.73L16.10 14.73Q15.32 14.73 14.78 15.04Q14.25 15.35 14.13 15.76L14.13 15.76Q15.28 15.94 15.28 17.02L15.28 17.02Q15.28 17.51 14.93 17.88Q14.58 18.26 13.95 18.26L13.95 18.26Q13.42 18.26 13.01 17.89Q12.60 17.52 12.60 16.85ZM18.02 21.91L18.02 21.91L18.02 19.46Q16.95 19.71 16.24 20.00Q15.54 20.29 15.17 20.63Q14.80 20.96 14.66 21.32Q14.52 21.68 14.52 22.15L14.52 22.15Q14.52 22.73 14.87 23.07Q15.21 23.40 15.71 23.40L15.71 23.40Q16.89 23.40 18.02 21.91ZM33.12 21.50L33.12 21.50Q33.40 21.56 33.57 21.76L33.57 21.76Q32.99 23.33 31.76 24.11Q30.53 24.89 29.09 24.89L29.09 24.89Q28.37 24.89 27.69 24.71Q27.01 24.53 26.37 24.12Q25.73 23.71 25.26 23.10Q24.79 22.50 24.50 21.59Q24.21 20.68 24.21 19.58L24.21 19.58Q24.21 17.04 25.77 15.47Q27.33 13.90 29.66 13.90L29.66 13.90Q31.30 13.90 32.34 14.61Q33.38 15.32 33.38 16.42L33.38 16.42Q33.38 17.04 32.96 17.45Q32.55 17.86 31.96 17.86L31.96 17.86Q31.32 17.86 30.94 17.49Q30.55 17.12 30.55 16.63L30.55 16.63Q30.55 15.74 31.45 15.50L31.45 15.50Q31.37 15.23 30.93 14.95Q30.48 14.66 29.66 14.66L29.66 14.66Q29.24 14.66 28.86 14.76Q28.49 14.86 28.06 15.18Q27.63 15.49 27.33 16.01Q27.04 16.52 26.84 17.44Q26.64 18.36 26.64 19.58L26.64 19.58Q26.64 20.40 26.81 21.07Q26.98 21.74 27.34 22.28Q27.70 22.82 28.34 23.12Q28.97 23.43 29.82 23.43L29.82 23.43Q30.36 23.43 30.84 23.28Q31.32 23.13 31.62 22.97Q31.92 22.80 32.27 22.47Q32.61 22.14 32.73 21.99Q32.85 21.84 33.12 21.50ZM45.64 29.18L45.64 29.18Q45.64 29.39 45.72 29.55Q45.80 29.72 45.97 29.84Q46.14 29.95 46.27 30.03Q46.41 30.11 46.67 30.17Q46.93 30.23 47.03 30.25Q47.13 30.27 47.39 30.32L47.39 30.32Q47.46 30.46 47.46 30.60Q47.46 30.74 47.39 30.87L47.39 30.87Q45.59 30.79 44.39 30.79L44.39 30.79Q42.87 30.79 40.70 30.87L40.70 30.87Q40.65 30.66 40.65 30.60L40.65 30.60Q40.65 30.55 40.70 30.32L40.70 30.32Q41.07 30.28 41.26 30.26Q41.45 30.23 41.84 30.17Q42.22 30.11 42.44 30.03Q42.66 29.95 42.91 29.84Q43.17 29.72 43.29 29.55Q43.41 29.39 43.41 29.18L43.41 29.18Q43.45 28.03 43.45 24L43.45 24L43.45 22.79Q41.47 24.89 39.81 24.89L39.81 24.89Q38.00 24.89 36.87 23.53Q35.73 22.17 35.73 19.83L35.73 19.83Q35.73 19.02 35.92 18.21Q36.11 17.40 36.54 16.62Q36.97 15.83 37.61 15.23Q38.24 14.64 39.21 14.27Q40.18 13.90 41.37 13.90L41.37 13.90Q42.11 13.90 43.44 14.25Q44.77 14.60 45.19 14.66L45.19 14.66Q45.45 14.79 45.55 15.07L45.55 15.07Q45.55 26.57 45.64 29.18ZM40.93 23.36L40.93 23.36Q42.04 23.36 43.45 21.89L43.45 21.89Q43.43 19.58 43.43 16.17L43.43 16.17Q42.61 14.66 40.96 14.66L40.96 14.66Q40.61 14.66 40.25 14.77Q39.90 14.87 39.50 15.19Q39.11 15.50 38.81 16.00Q38.51 16.49 38.31 17.36Q38.11 18.23 38.11 19.37L38.11 19.37Q38.11 21.11 38.83 22.23Q39.55 23.36 40.93 23.36ZM48.40 14.16L48.40 14.16Q48.82 14.18 49.24 14.20Q49.66 14.23 49.91 14.24Q50.16 14.25 50.37 14.25L50.37 14.25Q50.54 14.25 50.78 14.24Q51.01 14.23 51.42 14.20Q51.82 14.18 52.20 14.16L52.20 14.16Q52.41 14.23 52.54 14.52L52.54 14.52Q52.52 14.61 52.49 14.79Q52.46 14.98 52.45 15.23Q52.43 15.48 52.43 15.84L52.43 15.84L52.41 21.41Q52.41 23.52 53.68 23.52L53.68 23.52Q54.87 23.52 57.05 21.96L57.05 21.96Q57.05 18.47 56.94 15.84L56.94 15.84Q56.94 15.63 56.86 15.47Q56.78 15.30 56.61 15.19Q56.44 15.07 56.30 14.99Q56.17 14.92 55.91 14.85Q55.65 14.79 55.55 14.77Q55.44 14.75 55.20 14.71L55.20 14.71Q55.15 14.52 55.15 14.43L55.15 14.43Q55.15 14.34 55.20 14.16L55.20 14.16Q55.61 14.18 56.03 14.20Q56.46 14.23 56.71 14.24Q56.95 14.25 57.16 14.25L57.16 14.25Q57.34 14.25 57.57 14.24Q57.81 14.23 58.21 14.20Q58.62 14.18 58.99 14.16L58.99 14.16Q59.05 14.19 59.09 14.22Q59.13 14.25 59.16 14.29Q59.19 14.33 59.20 14.35Q59.21 14.37 59.24 14.43Q59.26 14.50 59.27 14.52L59.27 14.52Q59.18 15.15 59.18 15.84L59.18 15.84Q59.11 17.57 59.11 18.64L59.11 18.64Q59.11 19.21 59.13 20.53Q59.16 21.86 59.16 22.85L59.16 22.85Q59.82 23.24 61.41 23.33L61.41 23.33Q61.46 23.63 61.46 23.64L61.46 23.64Q61.46 23.71 61.41 23.88L61.41 23.88Q59.19 24.09 57.45 24.84L57.45 24.84Q57.14 24.71 57.05 24.53L57.05 24.53L57.05 22.70Q55.88 23.71 54.84 24.30Q53.80 24.89 52.75 24.89L52.75 24.89Q51.41 24.89 50.85 24.14Q50.30 23.39 50.27 21.79L50.27 21.79L50.18 15.84Q50.16 15.57 50.08 15.44Q50.00 15.30 49.83 15.19Q49.66 15.07 49.52 14.99Q49.38 14.92 49.13 14.85Q48.87 14.79 48.76 14.77Q48.66 14.75 48.40 14.71L48.40 14.71Q48.35 14.52 48.35 14.43L48.35 14.43Q48.35 14.34 48.40 14.16ZM72.38 18.34L72.38 18.34L65.99 18.34Q65.94 19.04 65.94 19.58L65.94 19.58Q65.98 21.33 66.96 22.38Q67.95 23.43 69.60 23.43L69.60 23.43Q70.04 23.43 70.43 23.33Q70.82 23.23 71.07 23.10Q71.32 22.97 71.59 22.72Q71.86 22.48 71.98 22.33Q72.11 22.18 72.32 21.88Q72.53 21.59 72.60 21.50L72.60 21.50Q72.88 21.56 73.05 21.76L73.05 21.76Q72.47 23.33 71.24 24.11Q70.01 24.89 68.57 24.89L68.57 24.89Q67.85 24.89 67.18 24.71Q66.50 24.53 65.87 24.12Q65.24 23.71 64.77 23.10Q64.30 22.50 64.02 21.59Q63.74 20.68 63.74 19.58L63.74 19.58Q63.74 17.11 65.25 15.50Q66.76 13.90 68.96 13.90L68.96 13.90Q69.94 13.90 70.66 14.17Q71.38 14.45 71.78 14.92Q72.19 15.39 72.38 15.94Q72.57 16.50 72.57 17.13L72.57 17.13Q72.57 17.72 72.38 18.34ZM68.68 14.66L68.68 14.66Q67.88 14.66 67.15 15.38Q66.43 16.09 66.12 17.54L66.12 17.54L70.34 17.54Q70.45 17.10 70.45 16.77L70.45 16.77Q70.45 15.86 70.03 15.26Q69.61 14.66 68.68 14.66ZM79.43 24.89L79.43 24.89Q78.86 24.89 78.39 24.80Q77.93 24.70 77.68 24.60Q77.43 24.49 77.00 24.28L77.00 24.28Q76.55 24.28 75.66 24.62L75.66 24.62Q75.50 24.53 75.45 24.41L75.45 24.41Q75.50 24.22 75.59 23.13Q75.68 22.04 75.68 21.19L75.68 21.19Q75.83 21.12 76.23 21.12L76.23 21.12Q76.44 21.80 76.67 22.28Q76.90 22.76 77.26 23.21Q77.61 23.66 78.12 23.89Q78.63 24.12 79.29 24.12L79.29 24.12Q80.31 24.12 80.89 23.59Q81.47 23.06 81.47 22.39L81.47 22.39Q81.47 21.89 81.30 21.54Q81.14 21.19 80.57 20.79Q80.00 20.40 78.95 20.02L78.95 20.02Q78.29 19.78 77.84 19.58Q77.38 19.38 76.89 19.09Q76.41 18.80 76.11 18.49Q75.82 18.18 75.63 17.74Q75.45 17.31 75.45 16.79L75.45 16.79Q75.45 16.42 75.53 16.05Q75.62 15.68 75.87 15.28Q76.13 14.88 76.51 14.58Q76.89 14.29 77.53 14.09Q78.16 13.90 78.97 13.90L78.97 13.90Q79.30 13.90 79.55 13.93Q79.80 13.97 80.16 14.06Q80.52 14.14 80.55 14.16L80.55 14.16Q80.81 14.10 81.09 14.00Q81.36 13.91 81.40 13.90L81.40 13.90L81.70 13.90Q81.98 15.59 82.43 16.77L82.43 16.77Q82.29 16.92 81.97 16.92L81.97 16.92Q81 15.75 80.31 15.21Q79.63 14.66 78.76 14.66L78.76 14.66Q78.08 14.66 77.57 14.96Q77.05 15.27 77.05 15.89L77.05 15.89Q77.05 16.68 77.68 17.12Q78.30 17.57 80.00 18.26L80.00 18.26Q80.79 18.57 81.24 18.79Q81.69 19.00 82.15 19.29Q82.61 19.58 82.82 19.89Q83.04 20.20 83.18 20.64Q83.32 21.07 83.32 21.64L83.32 21.64Q83.32 22.89 82.18 23.89Q81.04 24.89 79.43 24.89ZM91.66 7.35L91.66 7.35Q93.63 7.42 95.77 7.42L95.77 7.42L97.11 7.42Q97.97 7.41 100.07 7.40Q102.18 7.39 103.67 7.38Q105.16 7.37 106.64 7.32L106.64 7.32Q106.73 8.13 107.04 9.01Q107.34 9.88 107.63 10.44Q107.91 10.99 108.36 11.78L108.36 11.78Q108.27 11.98 107.95 12.09L107.95 12.09Q107.53 11.30 106.93 10.68Q106.34 10.05 105.43 9.50Q104.52 8.95 103.17 8.60Q101.81 8.25 100.09 8.13L100.09 8.13L97.11 8.13Q96.96 13.20 96.96 15.79L96.96 15.79L100.30 15.79Q100.59 15.79 100.85 15.73Q101.11 15.68 101.34 15.55Q101.57 15.42 101.74 15.30Q101.91 15.18 102.10 14.92Q102.29 14.67 102.41 14.51Q102.53 14.34 102.70 13.99Q102.88 13.63 102.97 13.44Q103.07 13.25 103.26 12.82Q103.45 12.39 103.55 12.19L103.55 12.19Q103.96 12.36 103.99 12.48L103.99 12.48Q103.30 14.29 103.30 16.15L103.30 16.15Q103.30 18 103.99 19.83L103.99 19.83Q103.91 19.99 103.55 20.13L103.55 20.13Q102.83 18.41 102.46 17.82L102.46 17.82Q101.59 16.52 100.30 16.51L100.30 16.51L96.96 16.51Q96.96 19.03 97.09 22.95L97.09 22.95Q97.10 23.25 97.36 23.47Q97.62 23.68 98.10 23.80Q98.59 23.92 98.92 23.97Q99.26 24.02 99.80 24.07L99.80 24.07Q99.84 24.30 99.84 24.39L99.84 24.39Q99.84 24.48 99.80 24.62L99.80 24.62Q97.80 24.55 95.72 24.55L95.72 24.55Q93.61 24.55 91.64 24.62L91.64 24.62Q91.59 24.48 91.59 24.39L91.59 24.39Q91.59 24.30 91.64 24.07L91.64 24.07Q91.99 24.04 92.20 24.01Q92.41 23.99 92.78 23.93Q93.15 23.87 93.38 23.79Q93.61 23.72 93.86 23.60Q94.10 23.48 94.22 23.32Q94.35 23.16 94.35 22.95L94.35 22.95Q94.49 19.28 94.49 15.55L94.49 15.55Q94.49 11.75 94.37 9L94.37 9Q94.36 8.70 94.11 8.48Q93.86 8.27 93.35 8.16Q92.85 8.04 92.54 8.00Q92.24 7.96 91.66 7.90L91.66 7.90Q91.62 7.69 91.62 7.61L91.62 7.61Q91.62 7.54 91.66 7.35ZM109.25 14.91L109.25 14.91Q111.53 14.67 113.21 13.95L113.21 13.95Q113.51 14.06 113.63 14.25L113.63 14.25L113.63 16.27Q114.06 15.45 114.92 14.67Q115.78 13.90 116.72 13.90L116.72 13.90Q117.42 13.90 117.86 14.31Q118.30 14.73 118.30 15.46L118.30 15.46Q118.30 16.15 117.89 16.54Q117.48 16.92 116.86 16.92L116.86 16.92Q116.29 16.92 115.92 16.55Q115.55 16.18 115.51 15.57L115.51 15.57Q115.02 15.79 114.39 16.51Q113.77 17.24 113.63 17.95L113.63 17.95Q113.63 20.57 113.72 22.95L113.72 22.95Q113.73 23.25 113.94 23.47Q114.15 23.68 114.56 23.80Q114.97 23.92 115.24 23.97Q115.51 24.02 115.95 24.07L115.95 24.07Q116.02 24.21 116.02 24.36L116.02 24.36Q116.02 24.48 115.95 24.62L115.95 24.62Q114.19 24.55 112.46 24.55L112.46 24.55Q111.04 24.55 109.49 24.62L109.49 24.62Q109.44 24.43 109.44 24.36L109.44 24.36Q109.44 24.30 109.49 24.07L109.49 24.07Q109.88 24.02 110.12 23.97Q110.37 23.92 110.73 23.80Q111.09 23.68 111.28 23.47Q111.47 23.25 111.48 22.95L111.48 22.95Q111.53 21.79 111.53 20.13L111.53 20.13Q111.53 19.58 111.52 18.26Q111.50 16.93 111.50 15.94L111.50 15.94Q110.84 15.53 109.25 15.46L109.25 15.46Q109.21 15.27 109.21 15.16L109.21 15.16Q109.21 15.09 109.25 14.91ZM120.89 16.85L120.89 16.85Q120.89 15.56 122.07 14.73Q123.25 13.90 124.85 13.90L124.85 13.90Q126.82 13.90 127.62 14.68Q128.43 15.47 128.43 17.33L128.43 17.33L128.43 22.20Q128.43 22.85 128.91 22.85L128.91 22.85Q129.29 22.85 129.89 21.91L129.89 21.91Q130.31 21.95 130.46 22.29L130.46 22.29Q130.38 22.41 130.18 22.71Q129.98 23.02 129.89 23.14Q129.80 23.27 129.60 23.54Q129.40 23.80 129.28 23.93Q129.15 24.06 128.95 24.23Q128.74 24.41 128.57 24.50Q128.40 24.59 128.18 24.65Q127.96 24.71 127.73 24.71L127.73 24.71Q127.15 24.71 126.77 24.29Q126.39 23.87 126.32 22.99L126.32 22.99Q126.30 23.00 125.95 23.33Q125.60 23.66 125.47 23.77Q125.33 23.88 124.96 24.16Q124.59 24.43 124.34 24.55Q124.08 24.67 123.69 24.78Q123.30 24.89 122.93 24.89L122.93 24.89Q122.33 24.89 121.87 24.73Q121.41 24.56 121.15 24.33Q120.89 24.09 120.73 23.78Q120.56 23.47 120.51 23.21Q120.46 22.96 120.46 22.70L120.46 22.70Q120.46 21.91 120.72 21.38Q120.98 20.84 121.71 20.37Q122.43 19.90 123.48 19.54Q124.54 19.17 126.32 18.71L126.32 18.71L126.32 17.09Q126.32 15.90 125.79 15.32Q125.27 14.73 124.39 14.73L124.39 14.73Q123.61 14.73 123.08 15.04Q122.54 15.35 122.43 15.76L122.43 15.76Q123.57 15.94 123.57 17.02L123.57 17.02Q123.57 17.51 123.22 17.88Q122.87 18.26 122.24 18.26L122.24 18.26Q121.71 18.26 121.30 17.89Q120.89 17.52 120.89 16.85ZM126.32 21.91L126.32 21.91L126.32 19.46Q125.24 19.71 124.54 20.00Q123.83 20.29 123.46 20.63Q123.09 20.96 122.95 21.32Q122.81 21.68 122.81 22.15L122.81 22.15Q122.81 22.73 123.16 23.07Q123.50 23.40 124.01 23.40L124.01 23.40Q125.18 23.40 126.32 21.91ZM138.16 24.07L138.16 24.07Q138.23 24.21 138.23 24.36L138.23 24.36Q138.23 24.48 138.16 24.62L138.16 24.62Q136.62 24.55 135.16 24.55L135.16 24.55Q133.73 24.55 132.19 24.62L132.19 24.62Q132.14 24.43 132.14 24.36L132.14 24.36Q132.14 24.30 132.19 24.07L132.19 24.07Q132.57 24.02 132.82 23.97Q133.07 23.92 133.43 23.80Q133.79 23.68 133.98 23.47Q134.17 23.25 134.18 22.95L134.18 22.95Q134.23 21.79 134.23 20.13L134.23 20.13Q134.23 19.58 134.21 18.26Q134.20 16.93 134.20 15.94L134.20 15.94Q133.54 15.53 131.95 15.46L131.95 15.46Q131.91 15.27 131.91 15.16L131.91 15.16Q131.91 15.09 131.95 14.91L131.95 14.91Q134.23 14.67 135.91 13.95L135.91 13.95Q136.21 14.06 136.32 14.25L136.32 14.25L136.32 16.10Q137.46 15.11 138.50 14.50Q139.55 13.90 140.61 13.90L140.61 13.90Q141.95 13.90 142.51 14.65Q143.06 15.40 143.09 16.99L143.09 16.99L143.20 22.95Q143.21 23.25 143.38 23.47Q143.55 23.68 143.88 23.80Q144.20 23.92 144.41 23.97Q144.62 24.02 144.96 24.07L144.96 24.07Q145.01 24.30 145.01 24.39L145.01 24.39Q145.01 24.48 144.96 24.62L144.96 24.62Q143.45 24.55 142.17 24.55L142.17 24.55Q140.93 24.55 139.42 24.62L139.42 24.62Q139.37 24.43 139.37 24.34L139.37 24.34Q139.37 24.26 139.42 24.07L139.42 24.07Q139.72 24.02 139.93 23.97Q140.13 23.92 140.40 23.80Q140.66 23.68 140.79 23.47Q140.93 23.25 140.93 22.95L140.93 22.95L140.95 17.38Q140.95 15.26 139.68 15.26L139.68 15.26Q138.48 15.26 136.32 16.85L136.32 16.85Q136.32 20.26 136.42 22.95L136.42 22.95Q136.43 23.25 136.60 23.47Q136.77 23.68 137.09 23.80Q137.40 23.92 137.61 23.97Q137.82 24.02 138.16 24.07ZM155.95 21.50L155.95 21.50Q156.23 21.56 156.41 21.76L156.41 21.76Q155.82 23.33 154.59 24.11Q153.36 24.89 151.92 24.89L151.92 24.89Q151.21 24.89 150.53 24.71Q149.85 24.53 149.21 24.12Q148.57 23.71 148.10 23.10Q147.62 22.50 147.33 21.59Q147.05 20.68 147.05 19.58L147.05 19.58Q147.05 17.04 148.61 15.47Q150.16 13.90 152.50 13.90L152.50 13.90Q154.14 13.90 155.17 14.61Q156.21 15.32 156.21 16.42L156.21 16.42Q156.21 17.04 155.80 17.45Q155.39 17.86 154.79 17.86L154.79 17.86Q154.16 17.86 153.77 17.49Q153.39 17.12 153.39 16.63L153.39 16.63Q153.39 15.74 154.29 15.50L154.29 15.50Q154.21 15.23 153.76 14.95Q153.32 14.66 152.50 14.66L152.50 14.66Q152.07 14.66 151.70 14.76Q151.32 14.86 150.90 15.18Q150.47 15.49 150.17 16.01Q149.87 16.52 149.67 17.44Q149.47 18.36 149.47 19.58L149.47 19.58Q149.47 20.40 149.64 21.07Q149.81 21.74 150.18 22.28Q150.54 22.82 151.17 23.12Q151.80 23.43 152.66 23.43L152.66 23.43Q153.20 23.43 153.68 23.28Q154.16 23.13 154.46 22.97Q154.76 22.80 155.10 22.47Q155.45 22.14 155.57 21.99Q155.68 21.84 155.95 21.50ZM163.61 13.90L163.61 13.90Q164.77 13.90 165.70 14.31Q166.63 14.72 167.29 15.45Q167.94 16.17 168.29 17.19Q168.64 18.20 168.64 19.39L168.64 19.39Q168.64 21.83 167.27 23.36L167.27 23.36Q165.91 24.89 163.61 24.89L163.61 24.89Q162.46 24.89 161.53 24.49Q160.59 24.08 159.94 23.35Q159.28 22.62 158.92 21.61Q158.57 20.60 158.57 19.39L158.57 19.39Q158.57 18.20 158.92 17.19Q159.27 16.17 159.92 15.45Q160.57 14.72 161.51 14.31Q162.45 13.90 163.61 13.90ZM163.61 14.66L163.61 14.66Q162.41 14.66 161.70 15.82L161.70 15.82Q160.99 16.98 160.99 19.39L160.99 19.39Q160.99 21.81 161.70 22.96Q162.41 24.12 163.61 24.12L163.61 24.12Q164.80 24.12 165.51 22.96Q166.22 21.80 166.22 19.39L166.22 19.39Q166.22 18.19 166.03 17.30Q165.84 16.41 165.50 15.82Q165.16 15.23 164.68 14.95Q164.20 14.66 163.61 14.66ZM170.98 14.91L170.98 14.91Q173.25 14.67 174.94 13.95L174.94 13.95Q175.23 14.06 175.35 14.25L175.35 14.25Q175.35 20.33 175.44 22.95L175.44 22.95Q175.45 23.25 175.62 23.47Q175.79 23.68 176.11 23.80Q176.43 23.92 176.64 23.97Q176.85 24.02 177.19 24.07L177.19 24.07Q177.26 24.21 177.26 24.36Q177.26 24.52 177.19 24.62L177.19 24.62Q175.64 24.55 174.19 24.55L174.19 24.55Q172.76 24.55 171.21 24.62L171.21 24.62Q171.16 24.43 171.16 24.36L171.16 24.36Q171.16 24.30 171.21 24.07L171.21 24.07Q171.60 24.02 171.84 23.97Q172.09 23.92 172.45 23.80Q172.82 23.68 173.00 23.47Q173.19 23.25 173.20 22.95L173.20 22.95Q173.25 21.79 173.25 20.13L173.25 20.13Q173.25 19.58 173.24 18.26Q173.23 16.93 173.23 15.94L173.23 15.94Q172.56 15.53 170.98 15.46L170.98 15.46Q170.93 15.27 170.93 15.16L170.93 15.16Q170.93 15.09 170.98 14.91ZM172.82 10.01L172.82 10.01Q172.82 9.41 173.24 8.99Q173.67 8.57 174.26 8.57L174.26 8.57Q174.86 8.57 175.28 8.99Q175.70 9.41 175.70 10.01L175.70 10.01Q175.70 10.59 175.28 11.02Q174.86 11.45 174.26 11.45L174.26 11.45Q173.67 11.45 173.24 11.02Q172.82 10.59 172.82 10.01ZM183.41 24.89L183.41 24.89Q182.84 24.89 182.37 24.80Q181.91 24.70 181.66 24.60Q181.41 24.49 180.98 24.28L180.98 24.28Q180.53 24.28 179.64 24.62L179.64 24.62Q179.48 24.53 179.43 24.41L179.43 24.41Q179.48 24.22 179.57 23.13Q179.66 22.04 179.66 21.19L179.66 21.19Q179.81 21.12 180.21 21.12L180.21 21.12Q180.42 21.80 180.65 22.28Q180.88 22.76 181.24 23.21Q181.59 23.66 182.10 23.89Q182.61 24.12 183.27 24.12L183.27 24.12Q184.29 24.12 184.87 23.59Q185.45 23.06 185.45 22.39L185.45 22.39Q185.45 21.89 185.29 21.54Q185.12 21.19 184.55 20.79Q183.98 20.40 182.93 20.02L182.93 20.02Q182.27 19.78 181.82 19.58Q181.36 19.38 180.87 19.09Q180.39 18.80 180.09 18.49Q179.80 18.18 179.61 17.74Q179.43 17.31 179.43 16.79L179.43 16.79Q179.43 16.42 179.51 16.05Q179.60 15.68 179.85 15.28Q180.11 14.88 180.49 14.58Q180.87 14.29 181.51 14.09Q182.14 13.90 182.95 13.90L182.95 13.90Q183.28 13.90 183.53 13.93Q183.79 13.97 184.14 14.06Q184.50 14.14 184.54 14.16L184.54 14.16Q184.79 14.10 185.07 14.00Q185.34 13.91 185.38 13.90L185.38 13.90L185.68 13.90Q185.96 15.59 186.41 16.77L186.41 16.77Q186.27 16.92 185.95 16.92L185.95 16.92Q184.98 15.75 184.29 15.21Q183.61 14.66 182.74 14.66L182.74 14.66Q182.06 14.66 181.55 14.96Q181.03 15.27 181.03 15.89L181.03 15.89Q181.03 16.68 181.66 17.12Q182.29 17.57 183.98 18.26L183.98 18.26Q184.77 18.57 185.22 18.79Q185.67 19.00 186.13 19.29Q186.59 19.58 186.80 19.89Q187.02 20.20 187.16 20.64Q187.30 21.07 187.30 21.64L187.30 21.64Q187.30 22.89 186.16 23.89Q185.02 24.89 183.41 24.89ZM204.16 13.32L204.16 13.32L204.16 22.37L207.26 22.37Q206.92 24.50 206.91 24.55L206.91 24.55L204.16 24.55L204.16 29.68L201.76 29.68L201.76 24.55L195.14 24.55Q194.82 24.40 194.82 23.86L194.82 23.86L203.41 13.05Q203.92 13.05 204.16 13.32ZM201.81 22.37L201.81 16.79L197.39 22.37L201.81 22.37ZM207.30 18.98L207.30 18.98Q207.30 17.38 208.08 16.01Q208.86 14.65 210.22 13.85Q211.57 13.05 213.18 13.05L213.18 13.05Q215.63 13.05 217.37 14.79Q219.11 16.54 219.11 18.98L219.11 18.98Q219.11 21.42 217.37 23.16Q215.63 24.89 213.18 24.89L213.18 24.89Q211.98 24.89 210.89 24.42Q209.80 23.95 209.02 23.16Q208.23 22.37 207.77 21.28Q207.30 20.18 207.30 18.98ZM208.89 19.01L208.89 19.01Q208.89 20.78 210.14 22.04Q211.39 23.31 213.15 23.31L213.15 23.31Q214.97 23.31 216.25 22.04Q217.52 20.78 217.52 19.01L217.52 19.01Q217.52 17.19 216.25 15.91Q214.97 14.64 213.15 14.64L213.15 14.64Q211.39 14.64 210.14 15.91Q208.89 17.19 208.89 19.01ZM219.79 18.98L219.79 18.98Q219.79 17.38 220.56 16.01Q221.34 14.65 222.70 13.85Q224.05 13.05 225.66 13.05L225.66 13.05Q228.11 13.05 229.85 14.79Q231.59 16.54 231.59 18.98L231.59 18.98Q231.59 21.42 229.85 23.16Q228.11 24.89 225.66 24.89L225.66 24.89Q224.46 24.89 223.37 24.42Q222.28 23.95 221.50 23.16Q220.71 22.37 220.25 21.28Q219.79 20.18 219.79 18.98ZM221.37 19.01L221.37 19.01Q221.37 20.78 222.62 22.04Q223.88 23.31 225.63 23.31L225.63 23.31Q227.45 23.31 228.73 22.04Q230.00 20.78 230.00 19.01L230.00 19.01Q230.00 17.19 228.73 15.91Q227.45 14.64 225.63 14.64L225.63 14.64Q223.88 14.64 222.62 15.91Q221.37 17.19 221.37 19.01ZM245.26 24.07L245.26 24.07Q245.33 24.21 245.33 24.36L245.33 24.36Q245.33 24.48 245.26 24.62L245.26 24.62Q243.71 24.55 242.26 24.55L242.26 24.55Q240.83 24.55 239.29 24.62L239.29 24.62Q239.24 24.43 239.24 24.36L239.24 24.36Q239.24 24.30 239.29 24.07L239.29 24.07Q239.67 24.02 239.92 23.97Q240.16 23.92 240.53 23.80Q240.89 23.68 241.08 23.47Q241.27 23.25 241.28 22.95L241.28 22.95Q241.32 21.79 241.32 20.13L241.32 20.13Q241.32 19.58 241.31 18.26Q241.30 16.93 241.30 15.94L241.30 15.94Q240.63 15.53 239.05 15.46L239.05 15.46Q239.00 15.27 239.00 15.16L239.00 15.16Q239.00 15.09 239.05 14.91L239.05 14.91Q241.32 14.67 243.01 13.95L243.01 13.95Q243.30 14.06 243.42 14.25L243.42 14.25L243.42 16.10Q244.56 15.11 245.60 14.50Q246.64 13.90 247.71 13.90L247.71 13.90Q249.05 13.90 249.60 14.65Q250.16 15.40 250.18 16.99L250.18 16.99L250.30 22.95Q250.31 23.25 250.48 23.47Q250.65 23.68 250.97 23.80Q251.30 23.92 251.51 23.97Q251.72 24.02 252.06 24.07L252.06 24.07Q252.11 24.30 252.11 24.39L252.11 24.39Q252.11 24.48 252.06 24.62L252.06 24.62Q250.55 24.55 249.27 24.55L249.27 24.55Q248.03 24.55 246.52 24.62L246.52 24.62Q246.47 24.43 246.47 24.34L246.47 24.34Q246.47 24.26 246.52 24.07L246.52 24.07Q246.82 24.02 247.03 23.97Q247.23 23.92 247.49 23.80Q247.76 23.68 247.89 23.47Q248.03 23.25 248.03 22.95L248.03 22.95L248.05 17.38Q248.05 15.26 246.77 15.26L246.77 15.26Q245.58 15.26 243.42 16.85L243.42 16.85Q243.42 20.26 243.52 22.95L243.52 22.95Q243.53 23.25 243.70 23.47Q243.87 23.68 244.18 23.80Q244.50 23.92 244.71 23.97Q244.92 24.02 245.26 24.07ZM259.18 13.90L259.18 13.90Q260.34 13.90 261.28 14.31Q262.21 14.72 262.86 15.45Q263.52 16.17 263.87 17.19Q264.22 18.20 264.22 19.39L264.22 19.39Q264.22 21.83 262.85 23.36L262.85 23.36Q261.49 24.89 259.18 24.89L259.18 24.89Q258.04 24.89 257.10 24.49Q256.17 24.08 255.52 23.35Q254.86 22.62 254.50 21.61Q254.14 20.60 254.14 19.39L254.14 19.39Q254.14 18.20 254.50 17.19Q254.85 16.17 255.50 15.45Q256.15 14.72 257.09 14.31Q258.02 13.90 259.18 13.90ZM259.18 14.66L259.18 14.66Q257.99 14.66 257.27 15.82L257.27 15.82Q256.57 16.98 256.57 19.39L256.57 19.39Q256.57 21.81 257.28 22.96Q257.99 24.12 259.18 24.12L259.18 24.12Q260.38 24.12 261.09 22.96Q261.80 21.80 261.80 19.39L261.80 19.39Q261.80 18.19 261.61 17.30Q261.42 16.41 261.08 15.82Q260.74 15.23 260.26 14.95Q259.78 14.66 259.18 14.66ZM266.55 14.91L266.55 14.91Q268.83 14.67 270.52 13.95L270.52 13.95Q270.81 14.06 270.93 14.25L270.93 14.25L270.93 16.27Q271.36 15.45 272.22 14.67Q273.08 13.90 274.02 13.90L274.02 13.90Q274.72 13.90 275.16 14.31Q275.60 14.73 275.60 15.46L275.60 15.46Q275.60 16.15 275.19 16.54Q274.78 16.92 274.16 16.92L274.16 16.92Q273.59 16.92 273.22 16.55Q272.85 16.18 272.81 15.57L272.81 15.57Q272.32 15.79 271.69 16.51Q271.07 17.24 270.93 17.95L270.93 17.95Q270.93 20.57 271.02 22.95L271.02 22.95Q271.03 23.25 271.24 23.47Q271.45 23.68 271.86 23.80Q272.27 23.92 272.54 23.97Q272.81 24.02 273.25 24.07L273.25 24.07Q273.32 24.21 273.32 24.36L273.32 24.36Q273.32 24.48 273.25 24.62L273.25 24.62Q271.49 24.55 269.77 24.55L269.77 24.55Q268.34 24.55 266.79 24.62L266.79 24.62Q266.74 24.43 266.74 24.36L266.74 24.36Q266.74 24.30 266.79 24.07L266.79 24.07Q267.18 24.02 267.42 23.97Q267.67 23.92 268.03 23.80Q268.39 23.68 268.58 23.47Q268.77 23.25 268.78 22.95L268.78 22.95Q268.83 21.79 268.83 20.13L268.83 20.13Q268.83 19.58 268.82 18.26Q268.80 16.93 268.80 15.94L268.80 15.94Q268.14 15.53 266.55 15.46L266.55 15.46Q266.51 15.27 266.51 15.16L266.51 15.16Q266.51 15.09 266.55 14.91ZM290.99 24.07L290.99 24.07Q291.28 24.02 291.47 23.97Q291.67 23.92 291.90 23.80Q292.14 23.68 292.25 23.47Q292.37 23.25 292.37 22.95L292.37 22.95L292.39 17.38Q292.39 15.26 291.13 15.26L291.13 15.26Q290.50 15.26 289.76 15.66Q289.02 16.05 287.99 16.85L287.99 16.85L287.99 16.99L288.08 22.95Q288.09 23.25 288.26 23.47Q288.43 23.68 288.75 23.80Q289.07 23.92 289.28 23.97Q289.49 24.02 289.83 24.07L289.83 24.07Q289.88 24.30 289.88 24.39L289.88 24.39Q289.88 24.48 289.83 24.62L289.83 24.62Q288.32 24.55 287.07 24.55L287.07 24.55Q285.94 24.55 284.43 24.62L284.43 24.62Q284.38 24.43 284.38 24.34L284.38 24.34Q284.38 24.26 284.43 24.07L284.43 24.07Q284.72 24.02 284.92 23.97Q285.12 23.92 285.35 23.80Q285.59 23.68 285.70 23.47Q285.82 23.25 285.82 22.95L285.82 22.95L285.84 17.38Q285.84 15.26 284.58 15.26L284.58 15.26Q283.95 15.26 283.24 15.64Q282.53 16.03 281.46 16.83L281.46 16.83Q281.46 20.26 281.55 22.95L281.55 22.95Q281.57 23.25 281.72 23.47Q281.87 23.68 282.16 23.80Q282.45 23.92 282.66 23.97Q282.87 24.02 283.18 24.07L283.18 24.07Q283.25 24.21 283.25 24.36L283.25 24.36Q283.25 24.48 283.18 24.62L283.18 24.62Q281.64 24.55 280.30 24.55L280.30 24.55Q278.87 24.55 277.32 24.62L277.32 24.62Q277.28 24.43 277.28 24.36L277.28 24.36Q277.28 24.30 277.32 24.07L277.32 24.07Q277.71 24.02 277.96 23.97Q278.20 23.92 278.57 23.80Q278.93 23.68 279.12 23.47Q279.30 23.25 279.32 22.95L279.32 22.95Q279.36 21.79 279.36 20.13L279.36 20.13Q279.36 19.58 279.35 18.26Q279.34 16.93 279.34 15.94L279.34 15.94Q278.67 15.53 277.09 15.46L277.09 15.46Q277.04 15.27 277.04 15.16L277.04 15.16Q277.04 15.09 277.09 14.91L277.09 14.91Q279.36 14.67 281.05 13.95L281.05 13.95Q281.34 14.06 281.46 14.25L281.46 14.25L281.46 16.10Q282.01 15.60 282.39 15.29Q282.76 14.98 283.31 14.61Q283.85 14.25 284.40 14.07Q284.94 13.90 285.52 13.90L285.52 13.90Q286.66 13.90 287.23 14.44Q287.79 14.99 287.93 16.15L287.93 16.15Q288.53 15.61 288.88 15.32Q289.24 15.02 289.82 14.64Q290.39 14.25 290.94 14.07Q291.49 13.90 292.07 13.90L292.07 13.90Q293.39 13.90 293.95 14.65Q294.52 15.40 294.54 16.99L294.54 16.99L294.66 22.95Q294.67 23.25 294.84 23.47Q295.01 23.68 295.32 23.80Q295.64 23.92 295.85 23.97Q296.06 24.02 296.40 24.07L296.40 24.07Q296.46 24.36 296.46 24.39L296.46 24.39Q296.46 24.45 296.40 24.62L296.40 24.62Q294.89 24.55 293.63 24.55L293.63 24.55Q292.50 24.55 290.99 24.62L290.99 24.62Q290.93 24.39 290.93 24.34L290.93 24.34Q290.93 24.30 290.99 24.07ZM299.05 16.85L299.05 16.85Q299.05 15.56 300.23 14.73Q301.41 13.90 303.01 13.90L303.01 13.90Q304.98 13.90 305.78 14.68Q306.59 15.47 306.59 17.33L306.59 17.33L306.59 22.20Q306.59 22.85 307.07 22.85L307.07 22.85Q307.45 22.85 308.05 21.91L308.05 21.91Q308.47 21.95 308.63 22.29L308.63 22.29Q308.54 22.41 308.34 22.71Q308.14 23.02 308.05 23.14Q307.96 23.27 307.76 23.54Q307.56 23.80 307.44 23.93Q307.31 24.06 307.11 24.23Q306.90 24.41 306.73 24.50Q306.56 24.59 306.34 24.65Q306.12 24.71 305.89 24.71L305.89 24.71Q305.31 24.71 304.93 24.29Q304.55 23.87 304.48 22.99L304.48 22.99Q304.46 23.00 304.11 23.33Q303.76 23.66 303.63 23.77Q303.49 23.88 303.12 24.16Q302.75 24.43 302.50 24.55Q302.24 24.67 301.85 24.78Q301.46 24.89 301.09 24.89L301.09 24.89Q300.49 24.89 300.03 24.73Q299.57 24.56 299.31 24.33Q299.05 24.09 298.89 23.78Q298.72 23.47 298.67 23.21Q298.62 22.96 298.62 22.70L298.62 22.70Q298.62 21.91 298.88 21.38Q299.14 20.84 299.87 20.37Q300.59 19.90 301.64 19.54Q302.70 19.17 304.48 18.71L304.48 18.71L304.48 17.09Q304.48 15.90 303.96 15.32Q303.43 14.73 302.55 14.73L302.55 14.73Q301.77 14.73 301.24 15.04Q300.70 15.35 300.59 15.76L300.59 15.76Q301.73 15.94 301.73 17.02L301.73 17.02Q301.73 17.51 301.38 17.88Q301.03 18.26 300.40 18.26L300.40 18.26Q299.87 18.26 299.46 17.89Q299.05 17.52 299.05 16.85ZM304.48 21.91L304.48 21.91L304.48 19.46Q303.40 19.71 302.70 20.00Q301.99 20.29 301.62 20.63Q301.25 20.96 301.11 21.32Q300.97 21.68 300.97 22.15L300.97 22.15Q300.97 22.73 301.32 23.07Q301.66 23.40 302.17 23.40L302.17 23.40Q303.34 23.40 304.48 21.91ZM310.00 7.70L310.00 7.70Q312.22 7.49 313.95 6.74L313.95 6.74Q314.26 6.87 314.36 7.05L314.36 7.05Q314.36 20.33 314.45 22.95L314.45 22.95Q314.46 23.19 314.60 23.38Q314.73 23.58 314.89 23.69Q315.06 23.80 315.34 23.89Q315.62 23.98 315.78 24.01Q315.94 24.04 316.21 24.07L316.21 24.07Q316.28 24.21 316.28 24.36Q316.28 24.52 316.21 24.62L316.21 24.62Q314.66 24.55 313.21 24.55L313.21 24.55Q311.78 24.55 310.23 24.62L310.23 24.62Q310.18 24.43 310.18 24.36L310.18 24.36Q310.18 24.30 310.23 24.07L310.23 24.07Q310.62 24.02 310.86 23.97Q311.10 23.92 311.47 23.80Q311.84 23.68 312.02 23.47Q312.21 23.25 312.22 22.95L312.22 22.95Q312.27 21.79 312.27 17.75L312.27 17.75Q312.27 15.89 312.26 12.68Q312.25 9.47 312.25 8.73L312.25 8.73Q311.58 8.34 310.00 8.25L310.00 8.25Q309.94 8.10 309.94 7.97L309.94 7.97Q309.94 7.85 310.00 7.70Z"/></svg>