<svg xmlns="http://www.w3.org/2000/svg" xmlns:xlink="http://www.w3.org/1999/xlink" width="337.82400000000007" height="32.544000000000004"><path fill="black" d="M2.16 25.68L2.16 8.88L7.15 8.88Q9.72 8.88 10.99 10.12Q12.26 11.35 12.26 13.82L12.26 13.82L12.26 14.81Q12.26 17.16 10.97 18.37Q9.67 19.58 7.15 19.58L7.15 19.58L3.50 19.58L3.50 18.38L6.77 18.38Q8.90 18.38 9.86 17.51Q10.82 16.63 10.82 14.81L10.82 14.81L10.82 13.82Q10.82 11.83 9.86 10.96Q8.90 10.08 6.77 10.08L6.77 10.08L3.26 10.08L3.60 9.65L3.60 25.68L2.16 25.68ZM23.42 25.68L22.82 21.53L22.82 16.82Q22.82 15.26 22.00 14.56Q21.17 13.85 19.34 13.85L19.34 13.85Q18.17 13.85 17.04 14.18Q15.91 14.52 14.93 15.14L14.93 15.14L14.69 13.92Q15.29 13.51 16.12 13.21Q16.94 12.91 17.86 12.73Q18.77 12.55 19.61 12.55L19.61 12.55Q21.94 12.55 23.10 13.62Q24.26 14.69 24.26 16.82L24.26 16.82L24.26 25.68L23.42 25.68ZM18.62 25.85L18.62 25.85Q16.63 25.85 15.49 24.90Q14.35 23.95 14.35 22.27L14.35 22.27L14.35 21.48Q14.35 19.78 15.50 18.83Q16.66 17.88 18.74 17.88L18.74 17.88Q20.95 17.88 22.25 18.78Q23.54 19.68 23.54 21.36L23.54 21.36L23.54 22.20Q23.54 23.90 22.22 24.88Q20.90 25.85 18.62 25.85ZM19.01 24.70L19.01 24.70Q20.76 24.70 21.79 23.94Q22.82 23.18 22.82 21.94L22.82 21.94L22.82 21.55Q22.82 20.35 21.85 19.69Q20.88 19.03 19.13 19.03L19.13 19.03Q17.52 19.03 16.66 19.62Q15.79 20.21 15.79 21.67L15.79 21.67L15.79 22.01Q15.79 23.33 16.63 24.01Q17.47 24.70 19.01 24.70ZM32.28 25.85L32.28 25.85Q30.62 25.85 29.86 25.02Q29.09 24.19 29.09 22.44L29.09 22.44L29.09 12.72L29.52 9.58L30.53 9.58L30.53 22.44Q30.53 23.66 30.94 24.11Q31.34 24.55 32.45 24.55L32.45 24.55Q32.78 24.55 33.13 24.52Q33.48 24.48 33.82 24.38L33.82 24.38L34.08 25.58Q33.79 25.66 33.49 25.72Q33.19 25.78 32.88 25.81Q32.57 25.85 32.28 25.85ZM26.64 13.92L26.64 12.72L33.77 12.72L33.77 13.92L26.64 13.92ZM46.22 25.68L46.22 17.74Q46.22 15.65 45.36 14.69Q44.50 13.73 42.65 13.73L42.65 13.73Q40.51 13.73 39.36 15.18Q38.21 16.63 38.21 19.34L38.21 19.34L37.42 20.90L37.44 19.34Q37.44 16.06 38.92 14.30Q40.39 12.55 43.13 12.55L43.13 12.55Q45.43 12.55 46.55 13.82Q47.66 15.10 47.66 17.74L47.66 17.74L47.66 25.68L46.22 25.68ZM36.77 25.68L36.77 7.92L38.21 7.92L38.21 17.11L38.21 25.68L36.77 25.68ZM53.21 25.68L49.70 12.72L51.12 12.72L54.50 24.79L54.60 24.79L58.10 12.72L60.34 12.72L63.84 24.79L63.91 24.79L67.32 12.72L68.74 12.72L65.23 25.68L62.59 25.68L59.26 14.33L59.18 14.33L55.85 25.68L53.21 25.68ZM79.37 25.68L78.77 21.53L78.77 16.82Q78.77 15.26 77.94 14.56Q77.11 13.85 75.29 13.85L75.29 13.85Q74.11 13.85 72.98 14.18Q71.86 14.52 70.87 15.14L70.87 15.14L70.63 13.92Q71.23 13.51 72.06 13.21Q72.89 12.91 73.80 12.73Q74.71 12.55 75.55 12.55L75.55 12.55Q77.88 12.55 79.04 13.62Q80.21 14.69 80.21 16.82L80.21 16.82L80.21 25.68L79.37 25.68ZM74.57 25.85L74.57 25.85Q72.58 25.85 71.44 24.90Q70.30 23.95 70.30 22.27L70.30 22.27L70.30 21.48Q70.30 19.78 71.45 18.83Q72.60 17.88 74.69 17.88L74.69 17.88Q76.90 17.88 78.19 18.78Q79.49 19.68 79.49 21.36L79.49 21.36L79.49 22.20Q79.49 23.90 78.17 24.88Q76.85 25.85 74.57 25.85ZM74.95 24.70L74.95 24.70Q76.70 24.70 77.74 23.94Q78.77 23.18 78.77 21.94L78.77 21.94L78.77 21.55Q78.77 20.35 77.80 19.69Q76.82 19.03 75.07 19.03L75.07 19.03Q73.46 19.03 72.60 19.62Q71.74 20.21 71.74 21.67L71.74 21.67L71.74 22.01Q71.74 23.33 72.58 24.01Q73.42 24.70 74.95 24.70ZM87.53 30.26L85.97 30L87.67 25.42L87.53 26.33L82.34 12.72L83.78 12.72L88.18 24.10L88.27 24.10L92.35 12.72L93.77 12.72L87.53 30.26ZM103.70 25.42L103.37 24.38L111.72 24.38L111.72 25.68L102.26 25.68L102.26 8.88L111.62 8.88L111.62 10.18L103.37 10.18L103.70 9.14L103.70 17.28L103.37 16.70L111.17 16.70L111.17 17.90L103.37 17.90L103.70 17.33L103.70 25.42ZM123.05 25.68L113.26 12.72L115.01 12.72L124.80 25.68L123.05 25.68ZM113.14 25.68L118.46 18.62L119.78 19.03L114.79 25.68L113.14 25.68ZM119.45 19.63L118.10 19.25L123.02 12.72L124.68 12.72L119.45 19.63ZM131.11 25.85L131.11 25.85Q129.46 25.85 128.69 25.02Q127.92 24.19 127.92 22.44L127.92 22.44L127.92 12.72L128.35 9.58L129.36 9.58L129.36 22.44Q129.36 23.66 129.77 24.11Q130.18 24.55 131.28 24.55L131.28 24.55Q131.62 24.55 131.96 24.52Q132.31 24.48 132.65 24.38L132.65 24.38L132.91 25.58Q132.62 25.66 132.32 25.72Q132.02 25.78 131.71 25.81Q131.40 25.85 131.11 25.85ZM125.47 13.92L125.47 12.72L132.60 12.72L132.60 13.92L125.47 13.92ZM135.60 25.68L135.60 12.72L136.44 12.72L137.04 17.38L137.04 25.68L135.60 25.68ZM137.04 18.84L136.46 18.36Q136.46 15.50 137.63 14.03Q138.79 12.55 140.98 12.55L140.98 12.55Q141.36 12.55 141.76 12.60Q142.15 12.65 142.54 12.74L142.54 12.74L142.44 14.04Q141.74 13.85 140.90 13.85L140.90 13.85Q139.01 13.85 138.02 15.10Q137.04 16.34 137.04 18.84L137.04 18.84ZM149.62 25.85L149.62 25.85Q147.84 25.85 146.60 25.24Q145.37 24.62 144.72 23.44Q144.07 22.25 144.07 20.54L144.07 20.54L144.07 17.86Q144.07 16.20 144.76 15.01Q145.44 13.82 146.71 13.19Q147.98 12.55 149.76 12.55L149.76 12.55Q152.45 12.55 153.90 14.00Q155.35 15.46 155.35 18.10L155.35 18.10L155.35 19.75L145.22 19.75L145.22 18.55L154.18 18.55L153.91 19.03L153.91 17.76Q153.91 15.91 152.81 14.88Q151.70 13.85 149.76 13.85L149.76 13.85Q147.72 13.85 146.62 14.90Q145.51 15.96 145.51 17.88L145.51 17.88L145.51 20.66Q145.51 22.56 146.58 23.56Q147.65 24.55 149.62 24.55L149.62 24.55Q151.39 24.55 152.47 23.84Q153.55 23.14 153.82 21.82L153.82 21.82L155.21 21.89Q154.82 23.78 153.36 24.82Q151.90 25.85 149.62 25.85ZM177.82 25.68L177.82 17.69Q177.82 15.67 176.95 14.70Q176.09 13.73 174.31 13.73L174.31 13.73Q172.20 13.73 171.07 15.18Q169.94 16.63 169.94 19.34L169.94 19.34L169.15 20.90L169.15 19.34Q169.15 16.06 170.62 14.30Q172.08 12.55 174.82 12.55L174.82 12.55Q177.07 12.55 178.16 13.81Q179.26 15.07 179.26 17.69L179.26 17.69L179.26 25.68L177.82 25.68ZM159.19 25.68L159.19 12.72L160.03 12.72L160.63 17.35L160.63 25.68L159.19 25.68ZM168.50 25.68L168.50 17.69Q168.50 15.67 167.64 14.70Q166.78 13.73 165.00 13.73L165.00 13.73Q162.89 13.73 161.76 15.18Q160.63 16.63 160.63 19.34L160.63 19.34L159.86 20.90L159.86 19.34Q159.86 16.06 161.32 14.30Q162.77 12.55 165.48 12.55L165.48 12.55Q167.76 12.55 168.85 13.82Q169.94 15.10 169.94 17.69L169.94 17.69L169.94 25.68L168.50 25.68ZM188.40 25.85L188.40 25.85Q186.62 25.85 185.39 25.24Q184.15 24.62 183.50 23.44Q182.86 22.25 182.86 20.54L182.86 20.54L182.86 17.86Q182.86 16.20 183.54 15.01Q184.22 13.82 185.50 13.19Q186.77 12.55 188.54 12.55L188.54 12.55Q191.23 12.55 192.68 14.00Q194.14 15.46 194.14 18.10L194.14 18.10L194.14 19.75L184.01 19.75L184.01 18.55L192.96 18.55L192.70 19.03L192.70 17.76Q192.70 15.91 191.59 14.88Q190.49 13.85 188.54 13.85L188.54 13.85Q186.50 13.85 185.40 14.90Q184.30 15.96 184.30 17.88L184.30 17.88L184.30 20.66Q184.30 22.56 185.36 23.56Q186.43 24.55 188.40 24.55L188.40 24.55Q190.18 24.55 191.26 23.84Q192.34 23.14 192.60 21.82L192.60 21.82L193.99 21.89Q193.61 23.78 192.14 24.82Q190.68 25.85 188.40 25.85ZM203.14 21.50L203.14 20.45L207.38 8.88L208.85 8.88L204.29 21.26L203.64 20.21L215.71 20.21L215.71 21.50L203.14 21.50ZM212.35 25.68L212.35 14.02L212.83 12.72L213.79 12.72L213.79 25.68L212.35 25.68ZM224.59 25.85L224.59 25.85Q222.48 25.85 221.02 25.09Q219.55 24.34 218.81 22.85Q218.06 21.36 218.06 19.20L218.06 19.20L218.06 15.36Q218.06 13.18 218.81 11.70Q219.55 10.22 221.02 9.47Q222.48 8.71 224.59 8.71L224.59 8.71Q226.73 8.71 228.18 9.47Q229.63 10.22 230.38 11.70Q231.12 13.18 231.12 15.36L231.12 15.36L231.12 19.20Q231.12 21.36 230.38 22.85Q229.63 24.34 228.18 25.09Q226.73 25.85 224.59 25.85ZM224.59 24.55L224.59 24.55Q227.16 24.55 228.42 23.22Q229.68 21.89 229.68 19.20L229.68 19.20L229.68 15.36Q229.68 12.65 228.41 11.33Q227.14 10.01 224.59 10.01L224.59 10.01Q222.05 10.01 220.78 11.34Q219.50 12.67 219.50 15.36L219.50 15.36L219.50 19.20Q219.50 21.89 220.78 23.22Q222.05 24.55 224.59 24.55ZM241.25 25.85L241.25 25.85Q239.14 25.85 237.67 25.09Q236.21 24.34 235.46 22.85Q234.72 21.36 234.72 19.20L234.72 19.20L234.72 15.36Q234.72 13.18 235.46 11.70Q236.21 10.22 237.67 9.47Q239.14 8.71 241.25 8.71L241.25 8.71Q243.38 8.71 244.84 9.47Q246.29 10.22 247.03 11.70Q247.78 13.18 247.78 15.36L247.78 15.36L247.78 19.20Q247.78 21.36 247.03 22.85Q246.29 24.34 244.84 25.09Q243.38 25.85 241.25 25.85ZM241.25 24.55L241.25 24.55Q243.82 24.55 245.08 23.22Q246.34 21.89 246.34 19.20L246.34 19.20L246.34 15.36Q246.34 12.65 245.06 11.33Q243.79 10.01 241.25 10.01L241.25 10.01Q238.70 10.01 237.43 11.34Q236.16 12.67 236.16 15.36L236.16 15.36L236.16 19.20Q236.16 21.89 237.43 23.22Q238.70 24.55 241.25 24.55ZM267.31 25.68L267.31 17.74Q267.31 15.65 266.45 14.69Q265.58 13.73 263.74 13.73L263.74 13.73Q261.60 13.73 260.45 15.18Q259.30 16.63 259.30 19.34L259.30 19.34L258.53 20.90L258.53 19.34Q258.53 16.06 260.00 14.30Q261.48 12.55 264.22 12.55L264.22 12.55Q266.52 12.55 267.64 13.82Q268.75 15.10 268.75 17.74L268.75 17.74L268.75 25.68L267.31 25.68ZM257.86 25.68L257.86 12.72L258.70 12.72L259.30 17.11L259.30 25.68L257.86 25.68ZM278.18 25.85L278.18 25.85Q276.36 25.85 275.05 25.21Q273.74 24.58 273.05 23.38Q272.35 22.18 272.35 20.52L272.35 20.52L272.35 17.88Q272.35 16.22 273.06 15.04Q273.77 13.85 275.08 13.20Q276.38 12.55 278.18 12.55L278.18 12.55Q280.01 12.55 281.32 13.19Q282.62 13.82 283.32 15.02Q284.02 16.22 284.02 17.88L284.02 17.88L284.02 20.52Q284.02 22.18 283.32 23.38Q282.62 24.58 281.32 25.21Q280.01 25.85 278.18 25.85ZM278.18 24.55L278.18 24.55Q280.22 24.55 281.40 23.47Q282.58 22.39 282.58 20.52L282.58 20.52L282.58 17.88Q282.58 16.01 281.40 14.93Q280.22 13.85 278.18 13.85L278.18 13.85Q276.17 13.85 274.98 14.94Q273.79 16.03 273.79 17.88L273.79 17.88L273.79 20.52Q273.79 22.37 274.98 23.46Q276.17 24.55 278.18 24.55ZM287.86 25.68L287.86 12.72L288.70 12.72L289.30 17.38L289.30 25.68L287.86 25.68ZM289.30 18.84L288.72 18.36Q288.72 15.50 289.88 14.03Q291.05 12.55 293.23 12.55L293.23 12.55Q293.62 12.55 294.01 12.60Q294.41 12.65 294.79 12.74L294.79 12.74L294.70 14.04Q294.00 13.85 293.16 13.85L293.16 13.85Q291.26 13.85 290.28 15.10Q289.30 16.34 289.30 18.84L289.30 18.84ZM315.43 25.68L315.43 17.69Q315.43 15.67 314.57 14.70Q313.70 13.73 311.93 13.73L311.93 13.73Q309.82 13.73 308.69 15.18Q307.56 16.63 307.56 19.34L307.56 19.34L306.77 20.90L306.77 19.34Q306.77 16.06 308.23 14.30Q309.70 12.55 312.43 12.55L312.43 12.55Q314.69 12.55 315.78 13.81Q316.87 15.07 316.87 17.69L316.87 17.69L316.87 25.68L315.43 25.68ZM296.81 25.68L296.81 12.72L297.65 12.72L298.25 17.35L298.25 25.68L296.81 25.68ZM306.12 25.68L306.12 17.69Q306.12 15.67 305.26 14.70Q304.39 13.73 302.62 13.73L302.62 13.73Q300.50 13.73 299.38 15.18Q298.25 16.63 298.25 19.34L298.25 19.34L297.48 20.90L297.48 19.34Q297.48 16.06 298.93 14.30Q300.38 12.55 303.10 12.55L303.10 12.55Q305.38 12.55 306.47 13.82Q307.56 15.10 307.56 17.69L307.56 17.69L307.56 25.68L306.12 25.68ZM329.30 25.68L328.70 21.53L328.70 16.82Q328.70 15.26 327.88 14.56Q327.05 13.85 325.22 13.85L325.22 13.85Q324.05 13.85 322.92 14.18Q321.79 14.52 320.81 15.14L320.81 15.14L320.57 13.92Q321.17 13.51 322.00 13.21Q322.82 12.91 323.74 12.73Q324.65 12.55 325.49 12.55L325.49 12.55Q327.82 12.55 328.98 13.62Q330.14 14.69 330.14 16.82L330.14 16.82L330.14 25.68L329.30 25.68ZM324.50 25.85L324.50 25.85Q322.51 25.85 321.37 24.90Q320.23 23.95 320.23 22.27L320.23 22.27L320.23 21.48Q320.23 19.78 321.38 18.83Q322.54 17.88 324.62 17.88L324.62 17.88Q326.83 17.88 328.13 18.78Q329.42 19.68 329.42 21.36L329.42 21.36L329.42 22.20Q329.42 23.90 328.10 24.88Q326.78 25.85 324.50 25.85ZM324.89 24.70L324.89 24.70Q326.64 24.70 327.67 23.94Q328.70 23.18 328.70 21.94L328.70 21.94L328.70 21.55Q328.70 20.35 327.73 19.69Q326.76 19.03 325.01 19.03L325.01 19.03Q323.40 19.03 322.54 19.62Q321.67 20.21 321.67 21.67L321.67 21.67L321.67 22.01Q321.67 23.33 322.51 24.01Q323.35 24.70 324.89 24.70ZM334.22 7.92L335.66 7.92L335.66 25.68L334.22 25.68L334.22 7.92Z"/></svg>