<svg xmlns="http://www.w3.org/2000/svg" xmlns:xlink="http://www.w3.org/1999/xlink" width="220.89600000000004" height="34.752"><path fill="black" d="M1.73 27.84L2.47 10.37L5.26 10.37L7.97 18.34L10.01 24.86L10.06 24.86L12.12 18.34L14.83 10.37L17.59 10.37L18.34 27.84L16.22 27.84L15.96 20.57L15.72 13.44L15.67 13.44L10.90 27.84L9.05 27.84L4.39 13.44L4.34 13.44L4.08 20.57L3.79 27.84L1.73 27.84ZM25.78 28.10L25.78 28.10Q24.43 28.10 23.52 27.49Q22.61 26.88 22.16 25.73Q21.72 24.58 21.72 22.94L21.72 22.94L21.72 15.36L23.88 15.36L23.88 22.85Q23.88 24.53 24.52 25.44Q25.15 26.35 26.57 26.35L26.57 26.35Q27.29 26.35 27.91 26.08Q28.54 25.80 29.04 25.38Q29.54 24.96 29.90 24.55L29.90 24.55L29.90 15.36L32.04 15.36L32.04 24.36Q32.04 25.39 32.05 26.23Q32.06 27.07 32.11 27.84L32.11 27.84L30.55 27.84L30.10 25.94L30.05 25.94Q29.62 26.45 28.97 26.95Q28.32 27.46 27.50 27.78Q26.69 28.10 25.78 28.10ZM37.58 27.84L35.42 27.84L35.42 18.89Q35.42 17.78 35.40 16.96Q35.38 16.13 35.35 15.36L35.35 15.36L37.25 15.29L37.42 17.50L37.46 17.50Q38.14 16.42 39.17 15.74Q40.20 15.07 41.76 15.14L41.76 15.14L41.76 17.06Q40.37 16.97 39.31 17.46Q38.26 17.95 37.58 19.03L37.58 19.03L37.58 27.84ZM49.30 28.10L49.30 28.10Q47.26 28.10 45.90 27.28Q44.54 26.45 43.87 25.00Q43.20 23.54 43.20 21.65L43.20 21.65Q43.20 20.26 43.58 19.08Q43.97 17.90 44.70 17.00Q45.43 16.10 46.49 15.60Q47.54 15.10 48.91 15.10L48.91 15.10Q50.33 15.10 51.31 15.61Q52.30 16.13 52.87 17.05Q53.45 17.98 53.65 19.22Q53.86 20.47 53.69 21.96L53.69 21.96L44.40 21.96L45.48 21.14Q45.22 22.70 45.59 23.89Q45.96 25.08 46.96 25.76Q47.95 26.45 49.56 26.45L49.56 26.45Q50.59 26.45 51.49 26.23Q52.39 26.02 52.97 25.80L52.97 25.80L53.23 27.31Q52.51 27.62 51.46 27.86Q50.40 28.10 49.30 28.10ZM45.36 21.31L44.42 20.71L51.79 20.71Q51.82 20.59 51.82 20.50Q51.82 20.40 51.82 20.33L51.82 20.33Q51.82 19.20 51.48 18.37Q51.14 17.54 50.50 17.09Q49.85 16.63 48.84 16.63L48.84 16.63Q47.66 16.63 46.86 17.29Q46.06 17.95 45.67 19.03Q45.29 20.11 45.36 21.31L45.36 21.31ZM61.85 28.10L61.85 28.10Q59.95 28.10 58.57 27.32Q57.19 26.54 56.44 25.09Q55.68 23.64 55.68 21.62L55.68 21.62Q55.68 19.68 56.44 18.22Q57.19 16.75 58.60 15.94Q60 15.12 61.99 15.12L61.99 15.12Q62.83 15.12 63.74 15.29Q64.66 15.46 65.38 15.79L65.38 15.79L65.11 17.40Q64.54 17.14 63.73 16.97Q62.93 16.80 62.09 16.80L62.09 16.80Q60.72 16.80 59.77 17.41Q58.82 18.02 58.34 19.10Q57.86 20.18 57.86 21.58L57.86 21.58Q57.86 23.06 58.40 24.14Q58.94 25.22 59.93 25.80Q60.91 26.38 62.23 26.38L62.23 26.38Q63.19 26.38 64.02 26.17Q64.85 25.97 65.33 25.80L65.33 25.80L65.54 27.38Q64.94 27.65 63.90 27.88Q62.86 28.10 61.85 28.10ZM67.99 27.84L67.97 9.89L70.13 9.82L70.13 17.14L70.18 17.14Q70.68 16.63 71.29 16.16Q71.90 15.70 72.67 15.40Q73.44 15.10 74.35 15.10L74.35 15.10Q75.14 15.10 75.88 15.38Q76.61 15.67 77.17 16.27Q77.74 16.87 78.06 17.84Q78.38 18.82 78.38 20.18L78.38 20.18L78.38 27.84L76.22 27.84L76.22 20.28Q76.22 19.32 76.00 18.66Q75.77 18 75.38 17.60Q75 17.21 74.52 17.03Q74.04 16.85 73.54 16.85L73.54 16.85Q72.79 16.85 72.14 17.14Q71.50 17.42 71.00 17.84Q70.51 18.26 70.13 18.65L70.13 18.65L70.13 27.84L67.99 27.84ZM86.88 28.10L86.88 28.10Q85.68 28.10 84.60 27.68Q83.52 27.26 82.72 26.45Q81.91 25.63 81.46 24.41Q81.00 23.18 81.00 21.60L81.00 21.60Q81.00 20.02 81.46 18.79Q81.91 17.57 82.72 16.75Q83.52 15.94 84.60 15.52Q85.68 15.10 86.88 15.10L86.88 15.10Q88.10 15.10 89.17 15.52Q90.24 15.94 91.06 16.75Q91.87 17.57 92.33 18.79Q92.78 20.02 92.78 21.60L92.78 21.60Q92.78 23.18 92.33 24.41Q91.87 25.63 91.06 26.45Q90.24 27.26 89.17 27.68Q88.10 28.10 86.88 28.10ZM86.88 26.47L86.88 26.47Q87.82 26.47 88.52 26.11Q89.23 25.75 89.68 25.08Q90.12 24.41 90.35 23.52Q90.58 22.63 90.58 21.60L90.58 21.60Q90.58 20.57 90.35 19.68Q90.12 18.79 89.68 18.12Q89.23 17.45 88.52 17.09Q87.82 16.73 86.88 16.73L86.88 16.73Q85.94 16.73 85.25 17.09Q84.55 17.45 84.10 18.12Q83.64 18.79 83.42 19.68Q83.21 20.57 83.21 21.60L83.21 21.60Q83.21 22.63 83.42 23.52Q83.64 24.41 84.10 25.08Q84.55 25.75 85.25 26.11Q85.94 26.47 86.88 26.47ZM109.63 27.84L107.54 27.84L107.54 17.18L107.59 13.20L107.54 13.20L106.25 15.26L101.81 21.62L101.81 21.67L111.96 21.67L111.84 23.35L99.72 23.35L99.72 21.86L107.09 11.14L109.63 11.14L109.63 27.84ZM119.71 28.10L119.71 28.10Q117.86 28.10 116.56 27.08Q115.25 26.06 114.59 24.14Q113.93 22.22 113.93 19.51L113.93 19.51Q113.93 16.82 114.59 14.90Q115.25 12.98 116.56 11.95Q117.86 10.92 119.71 10.92L119.71 10.92Q121.56 10.92 122.84 11.95Q124.13 12.98 124.80 14.90Q125.47 16.82 125.47 19.51L125.47 19.51Q125.47 22.22 124.80 24.14Q124.13 26.06 122.84 27.08Q121.56 28.10 119.71 28.10ZM119.71 26.40L119.71 26.40Q120.98 26.40 121.78 25.56Q122.57 24.72 122.93 23.18Q123.29 21.65 123.29 19.51L123.29 19.51Q123.29 17.40 122.93 15.85Q122.57 14.30 121.78 13.46Q120.98 12.62 119.71 12.62L119.71 12.62Q118.42 12.62 117.61 13.46Q116.81 14.30 116.45 15.85Q116.09 17.40 116.09 19.51L116.09 19.51Q116.09 21.65 116.45 23.18Q116.81 24.72 117.61 25.56Q118.42 26.40 119.71 26.40ZM133.70 28.10L133.70 28.10Q131.86 28.10 130.55 27.08Q129.24 26.06 128.58 24.14Q127.92 22.22 127.92 19.51L127.92 19.51Q127.92 16.82 128.58 14.90Q129.24 12.98 130.55 11.95Q131.86 10.92 133.70 10.92L133.70 10.92Q135.55 10.92 136.84 11.95Q138.12 12.98 138.79 14.90Q139.46 16.82 139.46 19.51L139.46 19.51Q139.46 22.22 138.79 24.14Q138.12 26.06 136.84 27.08Q135.55 28.10 133.70 28.10ZM133.70 26.40L133.70 26.40Q134.98 26.40 135.77 25.56Q136.56 24.72 136.92 23.18Q137.28 21.65 137.28 19.51L137.28 19.51Q137.28 17.40 136.92 15.85Q136.56 14.30 135.77 13.46Q134.98 12.62 133.70 12.62L133.70 12.62Q132.41 12.62 131.60 13.46Q130.80 14.30 130.44 15.85Q130.08 17.40 130.08 19.51L130.08 19.51Q130.08 21.65 130.44 23.18Q130.80 24.72 131.60 25.56Q132.41 26.40 133.70 26.40ZM147.91 27.84L147.91 18.84Q147.91 17.81 147.90 16.97Q147.89 16.13 147.86 15.36L147.86 15.36L149.76 15.29L149.88 17.16L149.95 17.16Q150.38 16.73 151.02 16.25Q151.66 15.77 152.48 15.43Q153.31 15.10 154.30 15.10L154.30 15.10Q155.09 15.10 155.82 15.38Q156.55 15.67 157.10 16.27Q157.66 16.87 157.99 17.82Q158.33 18.77 158.33 20.11L158.33 20.11L158.33 27.84L156.17 27.84L156.17 20.21Q156.17 19.22 155.93 18.58Q155.69 17.93 155.29 17.54Q154.90 17.16 154.43 17.00Q153.96 16.85 153.50 16.85L153.50 16.85Q152.74 16.85 152.09 17.14Q151.44 17.42 150.94 17.84Q150.43 18.26 150.07 18.65L150.07 18.65L150.07 27.84L147.91 27.84ZM166.82 28.10L166.82 28.10Q165.62 28.10 164.54 27.68Q163.46 27.26 162.66 26.45Q161.86 25.63 161.40 24.41Q160.94 23.18 160.94 21.60L160.94 21.60Q160.94 20.02 161.40 18.79Q161.86 17.57 162.66 16.75Q163.46 15.94 164.54 15.52Q165.62 15.10 166.82 15.10L166.82 15.10Q168.05 15.10 169.12 15.52Q170.18 15.94 171 16.75Q171.82 17.57 172.27 18.79Q172.73 20.02 172.73 21.60L172.73 21.60Q172.73 23.18 172.27 24.41Q171.82 25.63 171 26.45Q170.18 27.26 169.12 27.68Q168.05 28.10 166.82 28.10ZM166.82 26.47L166.82 26.47Q167.76 26.47 168.47 26.11Q169.18 25.75 169.62 25.08Q170.06 24.41 170.29 23.52Q170.52 22.63 170.52 21.60L170.52 21.60Q170.52 20.57 170.29 19.68Q170.06 18.79 169.62 18.12Q169.18 17.45 168.47 17.09Q167.76 16.73 166.82 16.73L166.82 16.73Q165.89 16.73 165.19 17.09Q164.50 17.45 164.04 18.12Q163.58 18.79 163.37 19.68Q163.15 20.57 163.15 21.60L163.15 21.60Q163.15 22.63 163.37 23.52Q163.58 24.41 164.04 25.08Q164.50 25.75 165.19 26.11Q165.89 26.47 166.82 26.47ZM177.48 27.84L175.32 27.84L175.32 18.89Q175.32 17.78 175.30 16.96Q175.27 16.13 175.25 15.36L175.25 15.36L177.14 15.29L177.31 17.50L177.36 17.50Q178.03 16.42 179.06 15.74Q180.10 15.07 181.66 15.14L181.66 15.14L181.66 17.06Q180.26 16.97 179.21 17.46Q178.15 17.95 177.48 19.03L177.48 19.03L177.48 27.84ZM183.82 27.84L183.82 18.67Q183.82 17.76 183.80 16.98Q183.79 16.20 183.77 15.36L183.77 15.36L185.64 15.29L185.76 17.16L185.86 17.16Q186.29 16.70 186.89 16.22Q187.49 15.74 188.26 15.42Q189.02 15.10 189.96 15.10L189.96 15.10Q191.02 15.10 191.92 15.60Q192.82 16.10 193.25 17.26L193.25 17.26L193.30 17.26Q193.80 16.75 194.44 16.26Q195.07 15.77 195.86 15.43Q196.66 15.10 197.59 15.10L197.59 15.10Q198.43 15.10 199.13 15.38Q199.82 15.67 200.36 16.25Q200.90 16.82 201.20 17.77Q201.50 18.72 201.50 20.04L201.50 20.04L201.50 27.84L199.37 27.84L199.37 20.38Q199.37 19.08 199.03 18.31Q198.70 17.54 198.14 17.20Q197.59 16.85 196.85 16.85L196.85 16.85Q196.10 16.85 195.47 17.16Q194.83 17.47 194.33 17.92Q193.82 18.36 193.49 18.79L193.49 18.79L193.61 18.17Q193.68 18.72 193.70 19.19Q193.73 19.66 193.73 20.26L193.73 20.26L193.73 27.84L191.62 27.84L191.62 20.30Q191.62 19.34 191.38 18.56Q191.14 17.78 190.62 17.32Q190.10 16.85 189.22 16.85L189.22 16.85Q188.50 16.85 187.88 17.14Q187.27 17.42 186.78 17.83Q186.29 18.24 185.95 18.65L185.95 18.65L185.95 27.84L183.82 27.84ZM207.72 28.10L207.72 28.10Q206.62 28.10 205.79 27.65Q204.96 27.19 204.50 26.40Q204.05 25.61 204.05 24.58L204.05 24.58Q204.05 23.50 204.47 22.82Q204.89 22.15 205.60 21.79Q206.30 21.43 207.17 21.30Q208.03 21.17 208.92 21.17L208.92 21.17L211.56 21.17L211.56 19.66Q211.56 19.06 211.48 18.54Q211.39 18.02 211.14 17.63Q210.89 17.23 210.36 17.00Q209.83 16.78 208.92 16.78L208.92 16.78Q207.94 16.78 206.99 17.02Q206.04 17.26 205.25 17.59L205.25 17.59L204.89 16.06Q205.54 15.77 206.27 15.55Q207.00 15.34 207.78 15.22Q208.56 15.10 209.26 15.10L209.26 15.10Q210.70 15.10 211.58 15.44Q212.47 15.79 212.93 16.40Q213.38 17.02 213.54 17.83Q213.70 18.65 213.70 19.58L213.70 19.58L213.70 24.77Q213.70 25.46 213.73 26.32Q213.77 27.17 213.79 27.84L213.79 27.84L212.21 27.84L211.78 25.92L211.73 25.92Q211.13 26.88 210.08 27.49Q209.04 28.10 207.72 28.10ZM208.39 26.59L208.39 26.59Q209.47 26.59 210.40 26.00Q211.32 25.42 211.61 24.46L211.61 24.46L211.61 22.39L209.21 22.39Q208.73 22.39 208.19 22.44Q207.65 22.49 207.17 22.67Q206.69 22.85 206.40 23.28Q206.11 23.71 206.11 24.46L206.11 24.46Q206.11 25.46 206.74 26.03Q207.36 26.59 208.39 26.59ZM217.03 27.84L217.03 9.89L219.19 9.82L219.19 27.84L217.03 27.84Z"/></svg>