<svg xmlns="http://www.w3.org/2000/svg" xmlns:xlink="http://www.w3.org/1999/xlink" width="240.936" height="39.888"><path fill="black" d="M1.54 27.12L2.95 12L5.21 12L8.71 22.39Q8.90 22.94 9.13 23.64Q9.36 24.34 9.55 24.98L9.55 24.98L9.60 24.98Q9.79 24.36 10.01 23.68Q10.22 22.99 10.42 22.39L10.42 22.39L13.85 12L16.13 12L17.57 27.12L15.84 27.12L15.10 18.79Q14.98 17.52 14.89 16.28Q14.81 15.05 14.76 13.78L14.76 13.78L14.71 13.78Q14.38 14.93 13.98 16.24Q13.58 17.54 13.18 18.79L13.18 18.79L10.32 27.12L8.76 27.12L5.90 18.77Q5.47 17.50 5.09 16.28Q4.70 15.07 4.37 13.78L4.37 13.78L4.32 13.78Q4.25 14.93 4.15 16.22Q4.06 17.52 3.94 18.79L3.94 18.79L3.22 27.12L1.54 27.12ZM28.15 24.36L28.15 15.84L29.83 15.84L29.83 27.12L28.56 27.12L28.32 25.70L28.25 25.70Q27.62 26.38 26.69 26.86Q25.75 27.34 24.50 27.34L24.50 27.34Q22.75 27.34 21.67 26.36Q20.59 25.39 20.59 23.38L20.59 23.38L20.59 15.84L22.27 15.84L22.27 23.11Q22.27 23.95 22.46 24.50Q22.66 25.06 23.00 25.39Q23.35 25.73 23.82 25.86Q24.29 25.99 24.84 25.99L24.84 25.99Q25.87 25.99 26.72 25.54Q27.58 25.08 28.15 24.36L28.15 24.36ZM36.41 21.60L35.02 22.99L35.02 27.12L33.34 27.12L33.34 10.08L35.02 10.08L35.02 21.12L40.10 15.84L42.19 15.84L37.51 20.59L42.41 27.12L40.42 27.12L36.41 21.60ZM50.33 15.84L50.33 17.11L46.78 17.11L46.78 24.10Q46.78 25.08 47.24 25.42Q47.71 25.75 48.48 25.75L48.48 25.75Q49.08 25.75 49.66 25.63Q50.23 25.51 50.66 25.37L50.66 25.37L50.93 26.64Q50.45 26.83 49.73 26.98Q49.01 27.12 48.17 27.12L48.17 27.12Q45.10 27.12 45.10 24.31L45.10 24.31L45.10 17.11L43.25 17.11L43.25 15.84L45.10 15.84L45.10 12.24L46.78 12.24L46.78 15.84L50.33 15.84ZM53.74 18.05L53.09 16.85Q54.22 16.25 55.16 15.97Q56.11 15.70 57.26 15.70L57.26 15.70Q58.13 15.70 58.86 15.90Q59.59 16.10 60.13 16.58Q60.67 17.06 60.97 17.84Q61.27 18.62 61.27 19.78L61.27 19.78L61.27 27.12L59.98 27.12L59.71 25.75L59.66 25.75Q58.94 26.59 58.02 26.96Q57.10 27.34 55.99 27.34L55.99 27.34Q55.20 27.34 54.52 27.11Q53.83 26.88 53.34 26.45Q52.85 26.02 52.57 25.42Q52.30 24.82 52.30 24.07L52.30 24.07Q52.30 23.18 52.66 22.51Q53.02 21.84 53.68 21.38Q54.34 20.93 55.26 20.70Q56.18 20.47 57.31 20.47L57.31 20.47L59.59 20.47L59.59 19.63Q59.59 18.19 58.92 17.63Q58.25 17.06 57.14 17.06L57.14 17.06Q56.47 17.06 55.62 17.27Q54.77 17.47 53.74 18.05L53.74 18.05ZM59.59 24.34L59.59 21.70L57.72 21.72Q55.73 21.77 54.89 22.42Q54.05 23.06 54.05 24L54.05 24Q54.05 25.13 54.74 25.58Q55.44 26.04 56.40 26.04L56.40 26.04Q57.24 26.04 58.10 25.64Q58.97 25.25 59.59 24.34L59.59 24.34ZM68.09 12L69.94 12L73.20 20.86Q73.58 21.86 73.99 22.96Q74.40 24.05 74.74 25.06L74.74 25.06L74.78 25.06Q75.14 23.98 75.53 22.92Q75.91 21.86 76.30 20.86L76.30 20.86L79.61 12L81.43 12L75.55 27.12L73.87 27.12L68.09 12ZM82.58 18.05L81.94 16.85Q83.06 16.25 84.01 15.97Q84.96 15.70 86.11 15.70L86.11 15.70Q86.98 15.70 87.71 15.90Q88.44 16.10 88.98 16.58Q89.52 17.06 89.82 17.84Q90.12 18.62 90.12 19.78L90.12 19.78L90.12 27.12L88.82 27.12L88.56 25.75L88.51 25.75Q87.79 26.59 86.87 26.96Q85.94 27.34 84.84 27.34L84.84 27.34Q84.05 27.34 83.36 27.11Q82.68 26.88 82.19 26.45Q81.70 26.02 81.42 25.42Q81.14 24.82 81.14 24.07L81.14 24.07Q81.14 23.18 81.50 22.51Q81.86 21.84 82.52 21.38Q83.18 20.93 84.11 20.70Q85.03 20.47 86.16 20.47L86.16 20.47L88.44 20.47L88.44 19.63Q88.44 18.19 87.77 17.63Q87.10 17.06 85.99 17.06L85.99 17.06Q85.32 17.06 84.47 17.27Q83.62 17.47 82.58 18.05L82.58 18.05ZM88.44 24.34L88.44 21.70L86.57 21.72Q84.58 21.77 83.74 22.42Q82.90 23.06 82.90 24L82.90 24Q82.90 25.13 83.59 25.58Q84.29 26.04 85.25 26.04L85.25 26.04Q86.09 26.04 86.95 25.64Q87.82 25.25 88.44 24.34L88.44 24.34ZM93.96 18.05L93.31 16.85Q94.44 16.25 95.39 15.97Q96.34 15.70 97.49 15.70L97.49 15.70Q98.35 15.70 99.08 15.90Q99.82 16.10 100.36 16.58Q100.90 17.06 101.20 17.84Q101.50 18.62 101.50 19.78L101.50 19.78L101.50 27.12L100.20 27.12L99.94 25.75L99.89 25.75Q99.17 26.59 98.24 26.96Q97.32 27.34 96.22 27.34L96.22 27.34Q95.42 27.34 94.74 27.11Q94.06 26.88 93.56 26.45Q93.07 26.02 92.80 25.42Q92.52 24.82 92.52 24.07L92.52 24.07Q92.52 23.18 92.88 22.51Q93.24 21.84 93.90 21.38Q94.56 20.93 95.48 20.70Q96.41 20.47 97.54 20.47L97.54 20.47L99.82 20.47L99.82 19.63Q99.82 18.19 99.14 17.63Q98.47 17.06 97.37 17.06L97.37 17.06Q96.70 17.06 95.84 17.27Q94.99 17.47 93.96 18.05L93.96 18.05ZM99.82 24.34L99.82 21.70L97.94 21.72Q95.95 21.77 95.11 22.42Q94.27 23.06 94.27 24L94.27 24Q94.27 25.13 94.97 25.58Q95.66 26.04 96.62 26.04L96.62 26.04Q97.46 26.04 98.33 25.64Q99.19 25.25 99.82 24.34L99.82 24.34ZM106.44 18.67L106.44 27.12L104.76 27.12L104.76 15.84L106.03 15.84L106.30 17.40Q107.14 16.61 108.06 16.15Q108.98 15.70 110.18 15.70L110.18 15.70Q111.91 15.70 112.90 16.66Q113.88 17.62 113.88 19.34L113.88 19.34L113.88 27.12L112.20 27.12L112.20 19.66Q112.20 18.53 111.62 17.80Q111.05 17.06 109.70 17.06L109.70 17.06Q108.86 17.06 108.00 17.48Q107.14 17.90 106.44 18.67L106.44 18.67ZM119.23 27.12L117.55 27.12L117.55 15.84L119.23 15.84L119.23 27.12ZM118.39 12.94L118.39 12.94Q117.91 12.94 117.59 12.62Q117.26 12.31 117.26 11.81L117.26 11.81Q117.26 11.30 117.59 10.98Q117.91 10.66 118.39 10.66L118.39 10.66Q118.82 10.66 119.17 10.97Q119.52 11.28 119.52 11.81L119.52 11.81Q119.52 12.34 119.18 12.64Q118.85 12.94 118.39 12.94ZM128.18 14.09L127.66 12.94Q128.57 12.31 129.55 12.06Q130.54 11.81 131.47 11.81L131.47 11.81Q132.48 11.81 133.31 12.10Q134.14 12.38 134.72 12.91Q135.31 13.44 135.65 14.15Q135.98 14.86 135.98 15.70L135.98 15.70Q135.98 17.11 135.25 18.05Q134.52 18.98 133.44 19.37L133.44 19.37Q134.11 19.51 134.68 19.85Q135.24 20.18 135.65 20.65Q136.06 21.12 136.28 21.72Q136.51 22.32 136.51 22.99L136.51 22.99Q136.51 24.19 136.04 25.02Q135.58 25.85 134.82 26.36Q134.06 26.88 133.10 27.11Q132.14 27.34 131.16 27.34L131.16 27.34Q130.15 27.34 129.14 27.13Q128.14 26.93 127.39 26.57L127.39 26.57L127.78 25.27Q128.54 25.61 129.31 25.79Q130.08 25.97 131.14 25.97L131.14 25.97Q131.81 25.97 132.47 25.80Q133.13 25.63 133.64 25.27Q134.16 24.91 134.47 24.34Q134.78 23.76 134.78 22.97L134.78 22.97Q134.78 21.58 133.75 20.86Q132.72 20.14 131.14 20.14L131.14 20.14L129.31 20.14L129.31 18.84L130.70 18.84Q131.45 18.84 132.11 18.65Q132.77 18.46 133.25 18.08Q133.73 17.71 134.02 17.15Q134.30 16.58 134.30 15.86L134.30 15.86Q134.30 14.69 133.50 13.92Q132.70 13.15 131.35 13.15L131.35 13.15Q130.51 13.15 129.80 13.34Q129.10 13.54 128.18 14.09L128.18 14.09ZM145.06 11.81L145.06 11.81Q146.28 11.81 147.32 12.26Q148.37 12.72 149.15 13.67Q149.93 14.62 150.37 16.08Q150.82 17.54 150.82 19.56L150.82 19.56Q150.82 21.58 150.35 23.05Q149.88 24.53 149.09 25.48Q148.30 26.42 147.25 26.88Q146.21 27.34 145.06 27.34L145.06 27.34Q143.86 27.34 142.80 26.88Q141.74 26.42 140.96 25.48Q140.18 24.53 139.74 23.05Q139.30 21.58 139.30 19.56L139.30 19.56Q139.30 17.62 139.76 16.16Q140.23 14.71 141.02 13.74Q141.82 12.77 142.86 12.29Q143.90 11.81 145.06 11.81ZM141.02 19.56L141.02 19.56Q141.02 21.43 141.36 22.67Q141.70 23.90 142.27 24.64Q142.85 25.37 143.58 25.68Q144.31 25.99 145.10 25.99L145.10 25.99Q145.90 25.99 146.62 25.66Q147.34 25.32 147.89 24.55Q148.44 23.78 148.76 22.56Q149.09 21.34 149.09 19.56L149.09 19.56Q149.09 17.71 148.75 16.48Q148.42 15.24 147.84 14.50Q147.26 13.75 146.53 13.44Q145.80 13.13 145.01 13.13L145.01 13.13Q144.22 13.13 143.50 13.46Q142.78 13.80 142.22 14.57Q141.67 15.34 141.35 16.56Q141.02 17.78 141.02 19.56ZM158.86 11.81L158.86 11.81Q160.08 11.81 161.12 12.26Q162.17 12.72 162.95 13.67Q163.73 14.62 164.17 16.08Q164.62 17.54 164.62 19.56L164.62 19.56Q164.62 21.58 164.15 23.05Q163.68 24.53 162.89 25.48Q162.10 26.42 161.05 26.88Q160.01 27.34 158.86 27.34L158.86 27.34Q157.66 27.34 156.60 26.88Q155.54 26.42 154.76 25.48Q153.98 24.53 153.54 23.05Q153.10 21.58 153.10 19.56L153.10 19.56Q153.10 17.62 153.56 16.16Q154.03 14.71 154.82 13.74Q155.62 12.77 156.66 12.29Q157.70 11.81 158.86 11.81ZM154.82 19.56L154.82 19.56Q154.82 21.43 155.16 22.67Q155.50 23.90 156.07 24.64Q156.65 25.37 157.38 25.68Q158.11 25.99 158.90 25.99L158.90 25.99Q159.70 25.99 160.42 25.66Q161.14 25.32 161.69 24.55Q162.24 23.78 162.56 22.56Q162.89 21.34 162.89 19.56L162.89 19.56Q162.89 17.71 162.55 16.48Q162.22 15.24 161.64 14.50Q161.06 13.75 160.33 13.44Q159.60 13.13 158.81 13.13L158.81 13.13Q158.02 13.13 157.30 13.46Q156.58 13.80 156.02 14.57Q155.47 15.34 155.15 16.56Q154.82 17.78 154.82 19.56ZM174.36 18.67L174.36 27.12L172.68 27.12L172.68 15.84L173.95 15.84L174.22 17.40Q175.06 16.61 175.98 16.15Q176.90 15.70 178.10 15.70L178.10 15.70Q179.83 15.70 180.82 16.66Q181.80 17.62 181.80 19.34L181.80 19.34L181.80 27.12L180.12 27.12L180.12 19.66Q180.12 18.53 179.54 17.80Q178.97 17.06 177.62 17.06L177.62 17.06Q176.78 17.06 175.92 17.48Q175.06 17.90 174.36 18.67L174.36 18.67ZM195.05 21.36L195.05 21.36Q195.05 22.78 194.64 23.89Q194.23 25.01 193.51 25.78Q192.79 26.54 191.82 26.94Q190.85 27.34 189.74 27.34L189.74 27.34Q188.62 27.34 187.66 26.96Q186.70 26.59 186.00 25.86Q185.30 25.13 184.90 24.06Q184.49 22.99 184.49 21.60L184.49 21.60Q184.49 20.18 184.91 19.08Q185.33 17.98 186.05 17.22Q186.77 16.46 187.74 16.08Q188.71 15.70 189.84 15.70L189.84 15.70Q190.94 15.70 191.90 16.06Q192.86 16.42 193.56 17.14Q194.26 17.86 194.65 18.91Q195.05 19.97 195.05 21.36ZM193.30 21.48L193.30 21.48Q193.30 20.30 193.00 19.45Q192.70 18.60 192.20 18.06Q191.71 17.52 191.08 17.27Q190.44 17.02 189.77 17.02L189.77 17.02Q189.10 17.02 188.46 17.26Q187.82 17.50 187.33 18.02Q186.84 18.55 186.54 19.40Q186.24 20.26 186.24 21.48L186.24 21.48Q186.24 22.70 186.54 23.57Q186.84 24.43 187.34 24.97Q187.85 25.51 188.50 25.76Q189.14 26.02 189.82 26.02L189.82 26.02Q190.49 26.02 191.11 25.79Q191.74 25.56 192.23 25.02Q192.72 24.48 193.01 23.62Q193.30 22.75 193.30 21.48ZM199.34 27.12L197.69 27.12L197.69 15.84L198.89 15.84L199.20 18.10Q199.61 17.02 200.57 16.36Q201.53 15.70 202.75 15.70L202.75 15.70Q203.35 15.70 203.78 15.79Q204.22 15.89 204.48 16.01L204.48 16.01L204.17 17.50Q203.88 17.35 203.52 17.26Q203.16 17.16 202.68 17.16L202.68 17.16Q201.98 17.16 201.38 17.41Q200.78 17.66 200.33 18.14Q199.87 18.62 199.61 19.37Q199.34 20.11 199.34 21.07L199.34 21.07L199.34 27.12ZM208.13 18.70L208.13 27.12L206.45 27.12L206.45 15.84L207.70 15.84L207.96 17.40Q208.75 16.61 209.66 16.14Q210.58 15.67 211.85 15.67L211.85 15.67Q213.05 15.67 213.82 16.16Q214.58 16.66 214.97 17.52L214.97 17.52Q215.81 16.63 216.82 16.15Q217.82 15.67 219.05 15.67L219.05 15.67Q220.78 15.67 221.65 16.64Q222.53 17.62 222.53 19.34L222.53 19.34L222.53 27.12L220.85 27.12L220.85 19.73Q220.85 18.43 220.31 17.75Q219.77 17.06 218.40 17.06L218.40 17.06Q217.58 17.06 216.77 17.47Q215.95 17.88 215.30 18.62L215.30 18.62Q215.33 18.79 215.33 18.98Q215.33 19.18 215.33 19.34L215.33 19.34L215.33 27.12L213.65 27.12L213.65 19.73Q213.65 18.43 213.12 17.75Q212.59 17.06 211.25 17.06L211.25 17.06Q210.41 17.06 209.60 17.50Q208.80 17.93 208.13 18.70L208.13 18.70ZM226.56 18.05L225.91 16.85Q227.04 16.25 227.99 15.97Q228.94 15.70 230.09 15.70L230.09 15.70Q230.95 15.70 231.68 15.90Q232.42 16.10 232.96 16.58Q233.50 17.06 233.80 17.84Q234.10 18.62 234.10 19.78L234.10 19.78L234.10 27.12L232.80 27.12L232.54 25.75L232.49 25.75Q231.77 26.59 230.84 26.96Q229.92 27.34 228.82 27.34L228.82 27.34Q228.02 27.34 227.34 27.11Q226.66 26.88 226.16 26.45Q225.67 26.02 225.40 25.42Q225.12 24.82 225.12 24.07L225.12 24.07Q225.12 23.18 225.48 22.51Q225.84 21.84 226.50 21.38Q227.16 20.93 228.08 20.70Q229.01 20.47 230.14 20.47L230.14 20.47L232.42 20.47L232.42 19.63Q232.42 18.19 231.74 17.63Q231.07 17.06 229.97 17.06L229.97 17.06Q229.30 17.06 228.44 17.27Q227.59 17.47 226.56 18.05L226.56 18.05ZM232.42 24.34L232.42 21.70L230.54 21.72Q228.55 21.77 227.71 22.42Q226.87 23.06 226.87 24L226.87 24Q226.87 25.13 227.57 25.58Q228.26 26.04 229.22 26.04L229.22 26.04Q230.06 26.04 230.93 25.64Q231.79 25.25 232.42 24.34L232.42 24.34ZM239.11 27.12L237.46 27.12L237.46 10.08L239.11 10.08L239.11 27.12Z"/></svg>