<svg xmlns="http://www.w3.org/2000/svg" xmlns:xlink="http://www.w3.org/1999/xlink" width="106.512" height="32.112"><path fill="black" d="M13.46 21.65L13.61 25.85L1.27 25.85L1.27 24.46L2.47 24.24Q2.90 24.17 3.04 23.99Q3.17 23.81 3.17 23.33L3.17 23.33L3.17 11.06Q3.17 10.56 3.04 10.36Q2.90 10.15 2.47 10.10L2.47 10.10L1.27 9.96L1.27 8.57L13.51 8.57L13.37 12.67L11.88 12.67L11.74 10.94Q11.71 10.54 11.51 10.39Q11.30 10.25 10.82 10.25L10.82 10.25L5.16 10.25L5.16 16.03L10.87 16.03L10.87 17.62L5.16 17.62L5.16 24.17L10.90 24.17Q11.38 24.17 11.58 24.02Q11.78 23.88 11.81 23.47L11.81 23.47L11.95 21.65L13.46 21.65ZM27.50 24.38L28.75 24.55L28.75 25.85L25.03 25.85L25.03 18.17Q25.03 17.06 24.41 16.46Q23.78 15.86 22.56 15.86L22.56 15.86Q21.53 15.86 20.66 16.38Q19.80 16.90 19.32 17.74L19.32 17.74L19.32 23.50Q19.32 24 19.43 24.18Q19.54 24.36 19.87 24.38L19.87 24.38L21.19 24.55L21.19 25.85L15.62 25.85L15.62 24.55L16.85 24.38Q17.21 24.36 17.30 24.18Q17.40 24 17.40 23.50L17.40 23.50L17.40 16.46Q17.40 16.06 17.28 15.89Q17.16 15.72 16.80 15.70L16.80 15.70L15.62 15.58L15.62 14.33L19.03 14.33L19.25 16.10Q20.11 15.12 21.11 14.60Q22.10 14.09 23.30 14.09L23.30 14.09Q25.06 14.09 26.00 15.05Q26.95 16.01 26.95 17.52L26.95 17.52L26.95 23.50Q26.95 24 27.05 24.18Q27.14 24.36 27.50 24.38L27.50 24.38ZM37.70 14.09Q38.81 14.09 39.62 14.54L39.62 14.54L39.43 17.57L38.04 17.57L37.78 16.06Q37.49 15.86 36.89 15.86L36.89 15.86Q35.95 15.86 35.16 16.70Q34.37 17.54 34.08 18.72L34.08 18.72L34.08 23.50Q34.08 24 34.19 24.18Q34.30 24.36 34.63 24.38L34.63 24.38L36.34 24.55L36.34 25.85L30.34 25.85L30.34 24.55L31.61 24.38Q31.97 24.36 32.06 24.18Q32.16 24 32.16 23.50L32.16 23.50L32.16 16.63Q32.16 16.10 32.06 15.92Q31.97 15.74 31.61 15.72L31.61 15.72L30.38 15.58L30.38 14.33L33.74 14.33L33.98 16.61Q34.51 15.55 35.54 14.82Q36.58 14.09 37.70 14.09L37.70 14.09ZM43.15 11.54Q42.41 11.54 42.12 11.23Q41.83 10.92 41.83 10.20L41.83 10.20Q41.83 9.46 42.18 9.12Q42.53 8.78 43.30 8.78L43.30 8.78Q44.04 8.78 44.32 9.11Q44.59 9.43 44.59 10.22L44.59 10.22Q44.59 10.97 44.26 11.26Q43.92 11.54 43.15 11.54L43.15 11.54ZM40.75 25.85L40.75 24.55L41.98 24.38Q42.34 24.36 42.43 24.18Q42.53 24 42.53 23.50L42.53 23.50L42.53 16.63Q42.53 16.10 42.43 15.92Q42.34 15.74 41.98 15.72L41.98 15.72L40.75 15.58L40.75 14.33L44.45 14.33L44.45 23.50Q44.45 24 44.56 24.18Q44.66 24.36 45 24.38L45 24.38L46.25 24.55L46.25 25.85L40.75 25.85ZM58.49 30.14L59.74 30.31L59.74 31.61L53.83 31.61L53.83 30.31L55.46 30.14Q55.82 30.12 55.92 29.94Q56.02 29.76 56.02 29.26L56.02 29.26L56.02 24.77Q55.34 25.34 54.40 25.72Q53.45 26.09 52.42 26.09L52.42 26.09Q50.33 26.09 49.08 24.60Q47.83 23.11 47.83 20.45L47.83 20.45Q47.83 18.62 48.53 17.17Q49.22 15.72 50.54 14.90Q51.86 14.09 53.62 14.09L53.62 14.09Q55.01 14.09 56.28 14.62L56.28 14.62L57.94 14.33L57.94 29.26Q57.94 29.76 58.04 29.94Q58.15 30.12 58.49 30.14L58.49 30.14ZM52.97 24.48Q53.95 24.48 54.73 24.10Q55.51 23.71 56.02 23.11L56.02 23.11L56.02 16.54Q55.46 16.18 54.64 15.92Q53.81 15.67 52.97 15.67L52.97 15.67Q51.31 15.67 50.62 16.73Q49.92 17.78 49.92 20.06L49.92 20.06Q49.92 22.20 50.75 23.34Q51.58 24.48 52.97 24.48L52.97 24.48ZM72.10 24.38L73.34 24.55L73.34 25.85L69.98 25.85L69.79 24.02Q67.92 26.09 65.74 26.09L65.74 26.09Q63.96 26.09 62.99 25.20Q62.02 24.31 62.02 22.66L62.02 22.66L62.02 16.63Q62.02 16.10 61.92 15.92Q61.82 15.74 61.46 15.72L61.46 15.72L60.22 15.58L60.22 14.33L63.94 14.33L63.94 22.01Q63.94 24.29 66.17 24.29L66.17 24.29Q68.40 24.29 69.65 22.44L69.65 22.44L69.65 16.63Q69.65 16.10 69.54 15.92Q69.43 15.74 69.10 15.72L69.10 15.72L67.78 15.58L67.78 14.33L71.57 14.33L71.57 23.50Q71.57 24 71.66 24.18Q71.76 24.36 72.10 24.38L72.10 24.38ZM80.50 24.46Q82.06 24.46 84.26 23.78L84.26 23.78L84.60 24.98Q83.74 25.42 82.43 25.75Q81.12 26.09 79.82 26.09L79.82 26.09Q77.38 26.09 76.14 24.59Q74.90 23.09 74.90 20.57L74.90 20.57Q74.90 17.64 76.27 15.86Q77.64 14.09 80.26 14.09L80.26 14.09Q82.01 14.09 82.98 14.78Q83.95 15.48 84.32 16.78Q84.70 18.07 84.70 20.06L84.70 20.06L76.99 20.54Q77.04 22.49 77.94 23.47Q78.84 24.46 80.50 24.46L80.50 24.46ZM79.94 15.67Q78.89 15.67 78.28 16.00Q77.66 16.32 77.38 17.06Q77.09 17.81 76.99 19.18L76.99 19.18L82.73 18.67Q82.73 17.23 82.09 16.45Q81.46 15.67 79.94 15.67L79.94 15.67ZM92.02 24.60Q92.64 24.60 93.72 24.38L93.72 24.38L93.50 25.63Q93.14 25.80 92.33 25.94Q91.51 26.09 90.65 26.09L90.65 26.09Q89.14 26.09 88.46 25.20Q87.79 24.31 87.79 22.46L87.79 22.46L87.79 15.70L86.02 15.70L86.02 14.54L87.79 14.33L87.79 12.19L89.71 11.76L89.71 14.33L92.90 14.09L92.90 15.70L89.71 15.70L89.71 21.72Q89.71 22.80 89.89 23.41Q90.07 24.02 90.56 24.31Q91.06 24.60 92.02 24.60L92.02 24.60ZM104.66 24.38L105.91 24.55L105.91 25.85L102.50 25.85L102.31 23.95Q101.23 25.01 100.27 25.55Q99.31 26.09 98.30 26.09L98.30 26.09Q96.86 26.09 96.01 25.24Q95.16 24.38 95.16 22.97L95.16 22.97Q95.16 21.55 96.01 20.68Q96.86 19.80 98.45 19.58L98.45 19.58L102.22 19.06L102.22 17.45Q102.22 16.49 101.59 16.01Q100.97 15.53 99.77 15.53L99.77 15.53Q98.45 15.53 97.46 15.98L97.46 15.98L97.18 17.74L95.81 17.74L95.62 14.98Q98.04 14.09 100.10 14.09L100.10 14.09Q101.78 14.09 102.96 14.95Q104.14 15.82 104.14 17.40L104.14 17.40L104.14 23.50Q104.14 24 104.23 24.18Q104.33 24.36 104.66 24.38L104.66 24.38ZM97.20 22.80Q97.20 23.59 97.63 24.02Q98.06 24.46 98.81 24.46L98.81 24.46Q99.55 24.46 100.36 23.98Q101.16 23.50 102.22 22.54L102.22 22.54L102.22 20.35L99.02 20.90Q98.14 21.05 97.67 21.53Q97.20 22.01 97.20 22.80L97.20 22.80Z"/></svg>