<svg xmlns="http://www.w3.org/2000/svg" xmlns:xlink="http://www.w3.org/1999/xlink" width="158.70703125" height="29.296875"><path fill="black" d="M6.94 21.25L6.94 21.25Q7.93 21.25 8.59 21.01Q9.25 20.77 9.67 20.47Q10.09 20.18 10.34 19.94Q10.58 19.70 10.76 19.70L10.76 19.70Q10.96 19.70 11.02 19.82L11.02 19.82L11.75 20.71Q10.79 21.81 9.52 22.41Q8.25 23.02 6.59 23.02L6.59 23.02Q5.27 23.02 4.24 22.53Q3.20 22.04 2.48 21.16Q1.77 20.29 1.39 19.07Q1.01 17.85 1.01 16.39L1.01 16.39Q1.01 14.38 1.61 12.70Q2.21 11.02 3.26 9.81Q4.31 8.61 5.73 7.95Q7.15 7.28 8.77 7.28L8.77 7.28Q9.55 7.28 10.18 7.42Q10.82 7.56 11.34 7.82Q11.86 8.09 12.29 8.47Q12.71 8.85 13.07 9.32L13.07 9.32L12.36 10.17Q12.27 10.28 12.16 10.35Q12.06 10.42 11.89 10.42L11.89 10.42Q11.77 10.42 11.64 10.32Q11.51 10.22 11.34 10.07Q11.17 9.91 10.95 9.74Q10.72 9.57 10.41 9.42Q10.09 9.27 9.66 9.17Q9.22 9.07 8.65 9.07L8.65 9.07Q7.49 9.07 6.47 9.57Q5.46 10.07 4.72 11.00Q3.97 11.93 3.54 13.25Q3.12 14.58 3.12 16.22L3.12 16.22Q3.12 17.39 3.40 18.32Q3.68 19.25 4.19 19.90Q4.70 20.55 5.40 20.90Q6.11 21.25 6.94 21.25ZM23.82 11.77L22.48 22.85L21.40 22.85Q20.99 22.85 20.85 22.65Q20.71 22.44 20.73 22.15L20.73 22.15L20.94 19.71Q20.50 20.46 19.99 21.07Q19.48 21.68 18.91 22.11Q18.34 22.55 17.70 22.78Q17.06 23.02 16.38 23.02L16.38 23.02Q15.63 23.02 15.03 22.75Q14.43 22.48 14.00 21.96Q13.57 21.43 13.34 20.67Q13.11 19.90 13.11 18.90L13.11 18.90Q13.11 17.89 13.39 16.93Q13.66 15.97 14.16 15.12Q14.66 14.27 15.36 13.56Q16.07 12.84 16.92 12.33Q17.78 11.81 18.77 11.53Q19.77 11.24 20.85 11.24L20.85 11.24Q21.62 11.24 22.37 11.35Q23.12 11.46 23.82 11.77L23.82 11.77ZM17.14 21.30L17.14 21.30Q17.75 21.30 18.34 20.96Q18.93 20.61 19.45 19.99Q19.97 19.37 20.42 18.53Q20.87 17.68 21.21 16.68L21.21 16.68L21.68 12.82Q21.41 12.76 21.13 12.74Q20.85 12.73 20.58 12.73L20.58 12.73Q19.46 12.73 18.48 13.20Q17.50 13.68 16.76 14.48Q16.02 15.28 15.59 16.34Q15.16 17.39 15.16 18.55L15.16 18.55Q15.16 21.30 17.14 21.30ZM27.74 22.85L25.72 22.85L27.11 11.38L28.13 11.38Q28.46 11.38 28.65 11.55Q28.83 11.72 28.80 12.07L28.80 12.07L28.63 14.66Q29.10 13.68 29.64 12.96Q30.18 12.23 30.77 11.82Q31.37 11.41 32.02 11.32Q32.66 11.23 33.32 11.50L33.32 11.50L32.95 13.48Q31.42 12.88 30.26 13.90Q29.10 14.92 28.36 17.61L28.36 17.61L27.74 22.85ZM36.15 22.85L34.14 22.85L36.14 6.19L38.17 6.19L36.15 22.85ZM41.05 11.39L43.08 11.39L41.70 22.85L39.67 22.85L41.05 11.39ZM43.84 7.80L43.84 7.80Q43.84 8.10 43.72 8.36Q43.59 8.61 43.39 8.81Q43.20 9.01 42.94 9.13Q42.68 9.25 42.41 9.25L42.41 9.25Q42.14 9.25 41.89 9.13Q41.65 9.01 41.46 8.81Q41.26 8.61 41.14 8.36Q41.03 8.10 41.03 7.80L41.03 7.80Q41.03 7.51 41.14 7.24Q41.26 6.97 41.46 6.77Q41.65 6.57 41.90 6.46Q42.15 6.34 42.42 6.34L42.42 6.34Q42.69 6.34 42.95 6.46Q43.21 6.57 43.41 6.77Q43.61 6.97 43.72 7.24Q43.84 7.50 43.84 7.80ZM46.01 20.60L46.01 20.60Q46.01 20.53 46.01 20.41Q46.02 20.29 46.04 20.07Q46.05 19.86 46.08 19.55Q46.11 19.24 46.17 18.80L46.17 18.80L46.88 13.10L45.55 13.10Q45.39 13.10 45.28 12.98Q45.18 12.87 45.20 12.64L45.20 12.64L45.29 11.82L47.12 11.58L47.99 8.06Q48.05 7.89 48.16 7.78Q48.28 7.68 48.47 7.68L48.47 7.68L49.56 7.68L49.08 11.60L52.20 11.60L52.02 13.10L48.89 13.10L48.20 18.69Q48.14 19.15 48.11 19.44Q48.07 19.72 48.05 19.89Q48.04 20.05 48.03 20.13Q48.02 20.20 48.02 20.24L48.02 20.24Q48.02 20.80 48.30 21.08Q48.59 21.35 49.08 21.35L49.08 21.35Q49.39 21.35 49.62 21.27Q49.85 21.19 50.03 21.08Q50.20 20.98 50.32 20.89Q50.44 20.81 50.52 20.81L50.52 20.81Q50.68 20.81 50.77 21.01L50.77 21.01L51.21 22.00Q50.65 22.49 49.92 22.76Q49.20 23.03 48.46 23.03L48.46 23.03Q47.32 23.03 46.66 22.42Q46.01 21.81 46.01 20.60ZM57.63 21.41L57.63 21.41Q58.55 21.41 59.29 20.96Q60.02 20.52 60.54 19.78Q61.07 19.04 61.35 18.07Q61.64 17.10 61.64 16.04L61.64 16.04Q61.64 14.44 60.93 13.63Q60.21 12.82 58.89 12.82L58.89 12.82Q57.97 12.82 57.23 13.26Q56.50 13.70 55.97 14.44Q55.45 15.18 55.17 16.14Q54.88 17.11 54.88 18.16L54.88 18.16Q54.88 19.77 55.59 20.59Q56.30 21.41 57.63 21.41ZM57.46 23.02L57.46 23.02Q56.44 23.02 55.58 22.69Q54.73 22.36 54.11 21.74Q53.50 21.12 53.16 20.22Q52.82 19.32 52.82 18.18L52.82 18.18Q52.82 16.73 53.29 15.47Q53.77 14.20 54.60 13.26Q55.44 12.32 56.58 11.77Q57.73 11.21 59.05 11.21L59.05 11.21Q60.07 11.21 60.93 11.54Q61.78 11.87 62.40 12.49Q63.01 13.10 63.36 14.00Q63.70 14.91 63.70 16.04L63.70 16.04Q63.70 17.47 63.22 18.74Q62.74 20.00 61.90 20.95Q61.07 21.90 59.92 22.46Q58.78 23.02 57.46 23.02ZM70.64 22.85L70.64 22.85ZM80.94 7.45L79.72 17.31L81.98 17.31L81.87 18.39Q81.84 18.55 81.72 18.67Q81.60 18.80 81.40 18.80L81.40 18.80L79.54 18.80L79.04 22.85L77.39 22.85L77.89 18.80L71.24 18.80Q71.02 18.80 70.89 18.67Q70.76 18.55 70.73 18.36L70.73 18.36L70.64 17.40L79.16 7.45L80.94 7.45ZM78.08 17.31L78.88 10.91Q78.94 10.34 79.09 9.68L79.09 9.68L72.70 17.31L78.08 17.31ZM94.32 13.59L94.32 13.59Q94.32 15.98 93.80 17.75Q93.27 19.52 92.37 20.70Q91.48 21.87 90.29 22.44Q89.10 23.02 87.77 23.02L87.77 23.02Q86.77 23.02 85.92 22.62Q85.08 22.23 84.46 21.45Q83.85 20.66 83.51 19.48Q83.17 18.30 83.17 16.72L83.17 16.72Q83.17 14.33 83.69 12.56Q84.21 10.79 85.11 9.62Q86.00 8.45 87.19 7.87Q88.38 7.29 89.71 7.29L89.71 7.29Q90.70 7.29 91.55 7.68Q92.40 8.07 93.02 8.86Q93.63 9.64 93.98 10.83Q94.32 12.01 94.32 13.59ZM92.37 13.51L92.37 13.51Q92.37 12.26 92.14 11.38Q91.92 10.50 91.54 9.94Q91.15 9.39 90.63 9.13Q90.11 8.88 89.51 8.88L89.51 8.88Q88.68 8.88 87.88 9.30Q87.09 9.73 86.48 10.67Q85.86 11.61 85.49 13.12Q85.11 14.63 85.11 16.80L85.11 16.80Q85.11 18.06 85.34 18.94Q85.56 19.82 85.95 20.37Q86.33 20.92 86.85 21.17Q87.36 21.42 87.95 21.42L87.95 21.42Q88.78 21.42 89.57 21.01Q90.36 20.59 90.98 19.65Q91.61 18.71 91.99 17.20Q92.37 15.69 92.37 13.51ZM106.49 13.59L106.49 13.59Q106.49 15.98 105.96 17.75Q105.43 19.52 104.54 20.70Q103.64 21.87 102.45 22.44Q101.26 23.02 99.94 23.02L99.94 23.02Q98.93 23.02 98.09 22.62Q97.24 22.23 96.63 21.45Q96.01 20.66 95.67 19.48Q95.33 18.30 95.33 16.72L95.33 16.72Q95.33 14.33 95.85 12.56Q96.38 10.79 97.27 9.62Q98.17 8.45 99.36 7.87Q100.55 7.29 101.87 7.29L101.87 7.29Q102.87 7.29 103.72 7.68Q104.57 8.07 105.18 8.86Q105.80 9.64 106.14 10.83Q106.49 12.01 106.49 13.59ZM104.53 13.51L104.53 13.51Q104.53 12.26 104.31 11.38Q104.09 10.50 103.70 9.94Q103.31 9.39 102.79 9.13Q102.27 8.88 101.67 8.88L101.67 8.88Q100.84 8.88 100.05 9.30Q99.26 9.73 98.64 10.67Q98.03 11.61 97.65 13.12Q97.28 14.63 97.28 16.80L97.28 16.80Q97.28 18.06 97.50 18.94Q97.72 19.82 98.11 20.37Q98.50 20.92 99.01 21.17Q99.53 21.42 100.11 21.42L100.11 21.42Q100.95 21.42 101.74 21.01Q102.53 20.59 103.15 19.65Q103.77 18.71 104.15 17.20Q104.53 15.69 104.53 13.51ZM114.26 11.39L116.29 11.39L114.90 22.85L112.88 22.85L114.26 11.39ZM117.05 7.80L117.05 7.80Q117.05 8.10 116.92 8.36Q116.80 8.61 116.60 8.81Q116.40 9.01 116.14 9.13Q115.89 9.25 115.62 9.25L115.62 9.25Q115.35 9.25 115.10 9.13Q114.86 9.01 114.66 8.81Q114.47 8.61 114.35 8.36Q114.23 8.10 114.23 7.80L114.23 7.80Q114.23 7.51 114.35 7.24Q114.47 6.97 114.66 6.77Q114.86 6.57 115.11 6.46Q115.36 6.34 115.63 6.34L115.63 6.34Q115.90 6.34 116.16 6.46Q116.41 6.57 116.61 6.77Q116.81 6.97 116.93 7.24Q117.05 7.50 117.05 7.80ZM119.21 20.60L119.21 20.60Q119.21 20.53 119.22 20.41Q119.23 20.29 119.24 20.07Q119.26 19.86 119.29 19.55Q119.32 19.24 119.38 18.80L119.38 18.80L120.08 13.10L118.76 13.10Q118.59 13.10 118.49 12.98Q118.38 12.87 118.41 12.64L118.41 12.64L118.50 11.82L120.33 11.58L121.20 8.06Q121.25 7.89 121.37 7.78Q121.49 7.68 121.68 7.68L121.68 7.68L122.77 7.68L122.29 11.60L125.40 11.60L125.23 13.10L122.10 13.10L121.41 18.69Q121.35 19.15 121.31 19.44Q121.28 19.72 121.26 19.89Q121.24 20.05 121.24 20.13Q121.23 20.20 121.23 20.24L121.23 20.24Q121.23 20.80 121.51 21.08Q121.79 21.35 122.29 21.35L122.29 21.35Q122.60 21.35 122.83 21.27Q123.06 21.19 123.23 21.08Q123.41 20.98 123.53 20.89Q123.64 20.81 123.73 20.81L123.73 20.81Q123.89 20.81 123.97 21.01L123.97 21.01L124.42 22.00Q123.86 22.49 123.13 22.76Q122.40 23.03 121.66 23.03L121.66 23.03Q120.53 23.03 119.87 22.42Q119.21 21.81 119.21 20.60ZM136.65 11.77L135.30 22.85L134.23 22.85Q133.82 22.85 133.68 22.65Q133.54 22.44 133.56 22.15L133.56 22.15L133.77 19.71Q133.32 20.46 132.81 21.07Q132.30 21.68 131.74 22.11Q131.17 22.55 130.53 22.78Q129.89 23.02 129.21 23.02L129.21 23.02Q128.46 23.02 127.86 22.75Q127.25 22.48 126.83 21.96Q126.40 21.43 126.17 20.67Q125.94 19.90 125.94 18.90L125.94 18.90Q125.94 17.89 126.22 16.93Q126.49 15.97 126.99 15.12Q127.49 14.27 128.19 13.56Q128.89 12.84 129.75 12.33Q130.61 11.81 131.60 11.53Q132.60 11.24 133.68 11.24L133.68 11.24Q134.45 11.24 135.20 11.35Q135.95 11.46 136.65 11.77L136.65 11.77ZM129.97 21.30L129.97 21.30Q130.58 21.30 131.17 20.96Q131.75 20.61 132.28 19.99Q132.80 19.37 133.25 18.53Q133.70 17.68 134.04 16.68L134.04 16.68L134.51 12.82Q134.24 12.76 133.96 12.74Q133.68 12.73 133.41 12.73L133.41 12.73Q132.29 12.73 131.31 13.20Q130.32 13.68 129.59 14.48Q128.85 15.28 128.42 16.34Q127.99 17.39 127.99 18.55L127.99 18.55Q127.99 21.30 129.97 21.30ZM140.75 22.85L138.74 22.85L140.74 6.19L142.77 6.19L140.75 22.85ZM145.65 11.39L147.68 11.39L146.30 22.85L144.27 22.85L145.65 11.39ZM148.44 7.80L148.44 7.80Q148.44 8.10 148.32 8.36Q148.20 8.61 148.00 8.81Q147.80 9.01 147.54 9.13Q147.28 9.25 147.01 9.25L147.01 9.25Q146.74 9.25 146.50 9.13Q146.25 9.01 146.06 8.81Q145.86 8.61 145.75 8.36Q145.63 8.10 145.63 7.80L145.63 7.80Q145.63 7.51 145.75 7.24Q145.86 6.97 146.06 6.77Q146.25 6.57 146.50 6.46Q146.75 6.34 147.02 6.34L147.02 6.34Q147.29 6.34 147.55 6.46Q147.81 6.57 148.01 6.77Q148.21 6.97 148.32 7.24Q148.44 7.50 148.44 7.80ZM158.17 20.79L158.17 20.79Q157.57 21.45 157.03 21.87Q156.49 22.30 155.95 22.55Q155.40 22.80 154.82 22.91Q154.24 23.02 153.56 23.02L153.56 23.02Q152.55 23.02 151.78 22.67Q151.01 22.32 150.48 21.70Q149.95 21.08 149.68 20.21Q149.40 19.35 149.40 18.30L149.40 18.30Q149.40 16.92 149.84 15.64Q150.28 14.37 151.07 13.38Q151.86 12.40 152.96 11.81Q154.05 11.23 155.37 11.23L155.37 11.23Q156.53 11.23 157.31 11.63Q158.09 12.04 158.68 12.81L158.68 12.81L158.04 13.58Q157.97 13.68 157.86 13.73Q157.76 13.79 157.64 13.79L157.64 13.79Q157.48 13.79 157.32 13.65Q157.16 13.51 156.91 13.34Q156.67 13.16 156.29 13.02Q155.91 12.88 155.32 12.88L155.32 12.88Q154.52 12.88 153.83 13.29Q153.13 13.71 152.60 14.44Q152.07 15.18 151.77 16.17Q151.46 17.17 151.46 18.32L151.46 18.32Q151.46 19.02 151.63 19.59Q151.79 20.16 152.11 20.56Q152.43 20.96 152.90 21.18Q153.38 21.40 154.00 21.40L154.00 21.40Q154.77 21.40 155.29 21.18Q155.81 20.95 156.17 20.68Q156.53 20.41 156.78 20.19Q157.03 19.97 157.27 19.97L157.27 19.97Q157.49 19.97 157.65 20.17L157.65 20.17L158.17 20.79Z"/></svg>