<svg xmlns="http://www.w3.org/2000/svg" xmlns:xlink="http://www.w3.org/1999/xlink" width="295.104" height="32.28"><path fill="black" d="M14.98 25.44L14.98 25.44Q14.54 25.44 14.08 25.04Q13.61 24.65 13.04 23.72Q12.48 22.80 11.71 21.24L11.71 21.24Q11.21 20.16 10.66 19.39Q10.10 18.62 9.46 18.11Q8.81 17.59 7.97 17.28Q7.13 16.97 6.05 16.85L6.05 16.85L4.39 16.85L4.39 24.50L6 24.84L6 25.08L1.75 25.08L1.75 24.84L3.38 24.50L3.38 8.66L1.75 8.33L1.75 8.09L4.39 8.09L4.39 16.54Q4.90 16.54 5.39 16.51Q5.88 16.49 6.36 16.46L6.36 16.46Q7.22 16.44 8.03 16.03Q8.83 15.62 9.53 14.94Q10.22 14.26 10.78 13.49L10.78 13.49Q11.30 12.74 11.66 11.99Q12.02 11.23 12.22 10.57Q12.41 9.91 12.41 9.43L12.41 9.43Q12.41 8.88 11.98 8.60Q11.54 8.33 10.75 8.33L10.75 8.33L10.75 8.09L15 8.09L15 8.33L13.44 8.66Q13.44 9.34 13.20 10.18Q12.96 11.02 12.52 11.94Q12.07 12.86 11.42 13.70L11.42 13.70Q10.87 14.42 10.21 15.00Q9.55 15.58 8.86 15.98Q8.16 16.39 7.44 16.56L7.44 16.56L7.44 16.68Q8.38 16.75 9.12 17.00Q9.86 17.26 10.46 17.75Q11.06 18.24 11.58 18.97Q12.10 19.70 12.58 20.74L12.58 20.74Q13.30 22.27 13.81 23.20Q14.33 24.12 14.74 24.53Q15.14 24.94 15.55 24.98L15.55 24.98Q15.79 24.98 16.08 24.86L16.08 24.86L16.08 25.10Q15.89 25.25 15.70 25.32Q15.50 25.39 15.32 25.42Q15.14 25.44 14.98 25.44ZM13.25 8.26L11.50 8.26Q12 8.30 12.28 8.63Q12.55 8.95 12.55 9.43L12.55 9.43Q12.55 9.94 12.36 10.63Q12.17 11.33 11.80 12.08Q11.42 12.84 10.94 13.56L10.94 13.56Q10.18 14.64 9.31 15.34Q8.45 16.03 7.46 16.39L7.46 16.39Q8.47 16.13 9.48 15.41Q10.49 14.69 11.30 13.61L11.30 13.61Q12.26 12.31 12.80 10.88Q13.34 9.46 13.25 8.26L13.25 8.26ZM7.92 16.90L7.46 16.90Q8.45 17.16 9.23 17.70Q10.01 18.24 10.67 19.08Q11.33 19.92 11.88 21.14L11.88 21.14Q12.60 22.68 13.14 23.58Q13.68 24.48 14.12 24.88Q14.57 25.27 15 25.27L15 25.27Q15.55 25.27 15.82 25.08L15.82 25.08Q15.77 25.08 15.66 25.09Q15.55 25.10 15.43 25.10L15.43 25.10Q15.05 25.06 14.62 24.64Q14.18 24.22 13.66 23.29Q13.13 22.37 12.41 20.83L12.41 20.83Q11.86 19.58 11.21 18.77Q10.56 17.95 9.76 17.48Q8.95 17.02 7.92 16.90L7.92 16.90ZM3.53 8.26L3.53 24.91L4.22 24.91L4.22 8.26L3.53 8.26ZM23.57 12.72L23.57 12.72Q24.84 12.72 25.74 13.07Q26.64 13.42 27.22 14.15Q27.79 14.88 28.06 16.00Q28.32 17.11 28.32 18.62L28.32 18.62L28.32 24.22Q28.32 24.65 28.52 24.84Q28.73 25.03 29.02 25.03L29.02 25.03Q29.40 25.03 29.84 24.84Q30.29 24.65 30.70 24.34L30.70 24.34L30.70 24.60Q30.41 24.86 30.07 25.06Q29.74 25.25 29.39 25.34Q29.04 25.44 28.70 25.44L28.70 25.44Q28.03 25.44 27.70 25.03Q27.36 24.62 27.36 23.78L27.36 23.78Q27.36 23.06 27.36 22.74Q27.36 22.42 27.36 22.25Q27.36 22.08 27.36 21.89L27.36 21.89L27.12 21.74Q26.66 22.63 25.97 23.32Q25.27 24 24.42 24.48Q23.57 24.96 22.68 25.20Q21.79 25.44 20.95 25.44L20.95 25.44Q20.09 25.44 19.37 25.18Q18.65 24.91 18.20 24.34Q17.76 23.76 17.76 22.87L17.76 22.87Q17.76 20.83 20.16 19.79Q22.56 18.74 27.36 18.74L27.36 18.74Q27.36 16.75 26.96 15.52Q26.57 14.28 25.69 13.69Q24.82 13.10 23.33 13.10L23.33 13.10Q22.30 13.10 21.48 13.30Q20.66 13.49 20.21 13.74Q19.75 13.99 19.75 14.21L19.75 14.21Q19.75 14.30 19.92 14.42Q20.09 14.54 20.54 14.74L20.54 14.74Q21.26 15.07 21.26 15.70L21.26 15.70Q21.26 16.20 20.82 16.48Q20.38 16.75 19.78 16.75L19.78 16.75Q19.22 16.75 18.77 16.48Q18.31 16.20 18.31 15.62L18.31 15.62Q18.31 15.10 18.74 14.59Q19.18 14.09 19.92 13.66Q20.66 13.22 21.61 12.97Q22.56 12.72 23.57 12.72ZM27.36 20.64L27.36 19.08Q24.46 19.08 22.51 19.51Q20.57 19.94 19.61 20.77Q18.65 21.60 18.65 22.82L18.65 22.82Q18.65 23.57 19.01 24.02Q19.37 24.48 19.96 24.68Q20.54 24.89 21.26 24.89L21.26 24.89Q22.08 24.89 22.98 24.62Q23.88 24.36 24.73 23.82Q25.58 23.28 26.28 22.49Q26.98 21.70 27.36 20.64L27.36 20.64ZM20.95 25.30L20.95 25.30Q21.91 25.30 22.85 25.00Q23.78 24.70 24.58 24.17L24.58 24.17Q23.76 24.62 22.88 24.85Q22.01 25.08 21.24 25.08L21.24 25.08Q20.35 25.08 19.74 24.82Q19.13 24.55 18.80 24.04Q18.48 23.52 18.48 22.82L18.48 22.82Q18.48 21.29 19.97 20.32Q21.46 19.34 24.14 19.08L24.14 19.08Q21.14 19.32 19.54 20.32Q17.93 21.31 17.93 22.87L17.93 22.87Q17.93 23.64 18.29 24.18Q18.65 24.72 19.33 25.01Q20.02 25.30 20.95 25.30ZM24.53 12.98L24.53 12.98Q25.13 13.13 25.61 13.38Q26.09 13.63 26.45 14.11L26.45 14.11Q27 14.78 27.26 15.91Q27.53 17.04 27.53 18.62L27.53 18.62L27.53 23.93Q27.53 24.24 27.62 24.48Q27.72 24.72 27.90 24.88Q28.08 25.03 28.30 25.10L28.30 25.10Q28.39 25.15 28.49 25.18Q28.58 25.20 28.70 25.22L28.70 25.22Q28.39 25.06 28.27 24.83Q28.15 24.60 28.15 24.19L28.15 24.19L28.15 18.62Q28.15 16.97 27.82 15.83Q27.48 14.69 26.81 13.99L26.81 13.99Q26.50 13.70 26.14 13.50Q25.78 13.30 25.37 13.18Q24.96 13.06 24.53 12.98ZM19.78 16.58L19.78 16.58Q20.35 16.58 20.72 16.32Q21.10 16.06 21.10 15.70L21.10 15.70Q21.10 15.31 20.82 15.12Q20.54 14.93 20.23 14.78L20.23 14.78Q20.04 14.71 19.85 14.59Q19.66 14.47 19.63 14.28L19.63 14.28Q19.58 14.14 19.68 13.99L19.68 13.99Q19.32 14.23 19.04 14.51Q18.77 14.78 18.62 15.06Q18.48 15.34 18.48 15.62L18.48 15.62Q18.48 16.03 18.85 16.31Q19.22 16.58 19.78 16.58ZM35.23 7.20L35.23 24.60L36.65 24.84L36.65 25.08L32.86 25.08L32.86 24.84L34.27 24.60L34.27 8.21L32.64 8.21L32.64 7.94L35.23 7.20ZM34.44 7.56L34.44 24.91L35.06 24.91L35.06 7.44L34.44 7.56ZM50.95 24.60L52.58 24.84L52.58 25.08L48.41 25.08L48.41 24.84L49.99 24.60L49.99 16.87Q49.99 15.05 49.33 14.15Q48.67 13.25 47.33 13.25L47.33 13.25Q46.54 13.25 45.71 13.61Q44.88 13.97 44.12 14.62Q43.37 15.26 42.72 16.10Q42.07 16.94 41.62 17.90L41.62 17.90L41.62 24.60L43.20 24.84L43.20 25.08L39.24 25.08L39.24 24.84L40.66 24.60L40.66 13.73L39.02 13.73L39.02 13.46L41.62 12.72L41.62 16.68L41.81 16.82Q42.62 15.53 43.56 14.62Q44.50 13.70 45.53 13.21Q46.56 12.72 47.64 12.72L47.64 12.72Q48.50 12.72 49.13 13.00Q49.75 13.27 50.15 13.80Q50.54 14.33 50.75 15.12Q50.95 15.91 50.95 16.97L50.95 16.97L50.95 24.60ZM40.82 13.08L40.82 24.91L41.45 24.91L41.45 12.96L40.82 13.08ZM50.16 16.87L50.16 24.91L50.78 24.91L50.78 16.97Q50.78 15.58 50.45 14.68Q50.11 13.78 49.42 13.33Q48.72 12.89 47.64 12.89L47.64 12.89Q46.58 12.89 45.50 13.40Q44.42 13.92 43.39 15.05L43.39 15.05Q44.40 14.04 45.42 13.56Q46.44 13.08 47.40 13.08L47.40 13.08Q48.82 13.13 49.49 14.06Q50.16 15.00 50.16 16.87L50.16 16.87ZM56.66 10.42L56.66 10.42Q56.23 10.42 55.91 10.27Q55.58 10.13 55.39 9.88Q55.20 9.62 55.20 9.29L55.20 9.29Q55.20 8.93 55.39 8.68Q55.58 8.42 55.91 8.28Q56.23 8.14 56.66 8.14L56.66 8.14Q57.10 8.14 57.43 8.28Q57.77 8.42 57.96 8.68Q58.15 8.93 58.15 9.29L58.15 9.29Q58.15 9.62 57.96 9.88Q57.77 10.13 57.43 10.27Q57.10 10.42 56.66 10.42ZM58.75 25.08L54.96 25.08L54.96 24.84L56.38 24.60L56.38 13.73L54.74 13.73L54.74 13.46L57.34 12.72L57.34 24.60L58.75 24.84L58.75 25.08ZM56.54 13.08L56.54 24.91L57.17 24.91L57.17 12.96L56.54 13.08ZM56.66 10.18L56.66 10.18Q57.02 10.18 57.29 10.06Q57.55 9.94 57.71 9.73Q57.86 9.53 57.86 9.29L57.86 9.29Q57.86 9.02 57.71 8.82Q57.55 8.62 57.29 8.50Q57.02 8.38 56.66 8.38L56.66 8.38Q56.33 8.38 56.05 8.50Q55.78 8.62 55.62 8.82Q55.46 9.02 55.46 9.29L55.46 9.29Q55.46 9.53 55.62 9.73Q55.78 9.94 56.05 10.06Q56.33 10.18 56.66 10.18ZM67.58 12.72L67.58 12.72Q68.86 12.72 69.76 13.07Q70.66 13.42 71.23 14.15Q71.81 14.88 72.07 16.00Q72.34 17.11 72.34 18.62L72.34 18.62L72.34 24.22Q72.34 24.65 72.54 24.84Q72.74 25.03 73.03 25.03L73.03 25.03Q73.42 25.03 73.86 24.84Q74.30 24.65 74.71 24.34L74.71 24.34L74.71 24.60Q74.42 24.86 74.09 25.06Q73.75 25.25 73.40 25.34Q73.06 25.44 72.72 25.44L72.72 25.44Q72.05 25.44 71.71 25.03Q71.38 24.62 71.38 23.78L71.38 23.78Q71.38 23.06 71.38 22.74Q71.38 22.42 71.38 22.25Q71.38 22.08 71.38 21.89L71.38 21.89L71.14 21.74Q70.68 22.63 69.98 23.32Q69.29 24 68.44 24.48Q67.58 24.96 66.70 25.20Q65.81 25.44 64.97 25.44L64.97 25.44Q64.10 25.44 63.38 25.18Q62.66 24.91 62.22 24.34Q61.78 23.76 61.78 22.87L61.78 22.87Q61.78 20.83 64.18 19.79Q66.58 18.74 71.38 18.74L71.38 18.74Q71.38 16.75 70.98 15.52Q70.58 14.28 69.71 13.69Q68.83 13.10 67.34 13.10L67.34 13.10Q66.31 13.10 65.50 13.30Q64.68 13.49 64.22 13.74Q63.77 13.99 63.77 14.21L63.77 14.21Q63.77 14.30 63.94 14.42Q64.10 14.54 64.56 14.74L64.56 14.74Q65.28 15.07 65.28 15.70L65.28 15.70Q65.28 16.20 64.84 16.48Q64.39 16.75 63.79 16.75L63.79 16.75Q63.24 16.75 62.78 16.48Q62.33 16.20 62.33 15.62L62.33 15.62Q62.33 15.10 62.76 14.59Q63.19 14.09 63.94 13.66Q64.68 13.22 65.63 12.97Q66.58 12.72 67.58 12.72ZM71.38 20.64L71.38 19.08Q68.47 19.08 66.53 19.51Q64.58 19.94 63.62 20.77Q62.66 21.60 62.66 22.82L62.66 22.82Q62.66 23.57 63.02 24.02Q63.38 24.48 63.97 24.68Q64.56 24.89 65.28 24.89L65.28 24.89Q66.10 24.89 67.00 24.62Q67.90 24.36 68.75 23.82Q69.60 23.28 70.30 22.49Q70.99 21.70 71.38 20.64L71.38 20.64ZM64.97 25.30L64.97 25.30Q65.93 25.30 66.86 25.00Q67.80 24.70 68.59 24.17L68.59 24.17Q67.78 24.62 66.90 24.85Q66.02 25.08 65.26 25.08L65.26 25.08Q64.37 25.08 63.76 24.82Q63.14 24.55 62.82 24.04Q62.50 23.52 62.50 22.82L62.50 22.82Q62.50 21.29 63.98 20.32Q65.47 19.34 68.16 19.08L68.16 19.08Q65.16 19.32 63.55 20.32Q61.94 21.31 61.94 22.87L61.94 22.87Q61.94 23.64 62.30 24.18Q62.66 24.72 63.35 25.01Q64.03 25.30 64.97 25.30ZM68.54 12.98L68.54 12.98Q69.14 13.13 69.62 13.38Q70.10 13.63 70.46 14.11L70.46 14.11Q71.02 14.78 71.28 15.91Q71.54 17.04 71.54 18.62L71.54 18.62L71.54 23.93Q71.54 24.24 71.64 24.48Q71.74 24.72 71.92 24.88Q72.10 25.03 72.31 25.10L72.31 25.10Q72.41 25.15 72.50 25.18Q72.60 25.20 72.72 25.22L72.72 25.22Q72.41 25.06 72.29 24.83Q72.17 24.60 72.17 24.19L72.17 24.19L72.17 18.62Q72.17 16.97 71.83 15.83Q71.50 14.69 70.82 13.99L70.82 13.99Q70.51 13.70 70.15 13.50Q69.79 13.30 69.38 13.18Q68.98 13.06 68.54 12.98ZM63.79 16.58L63.79 16.58Q64.37 16.58 64.74 16.32Q65.11 16.06 65.11 15.70L65.11 15.70Q65.11 15.31 64.84 15.12Q64.56 14.93 64.25 14.78L64.25 14.78Q64.06 14.71 63.86 14.59Q63.67 14.47 63.65 14.28L63.65 14.28Q63.60 14.14 63.70 13.99L63.70 13.99Q63.34 14.23 63.06 14.51Q62.78 14.78 62.64 15.06Q62.50 15.34 62.50 15.62L62.50 15.62Q62.50 16.03 62.87 16.31Q63.24 16.58 63.79 16.58ZM96.82 18.36L94.13 17.98L94.13 17.74L97.82 17.74L97.82 23.74Q97.20 24.14 96.48 24.46Q95.76 24.77 94.99 24.98Q94.22 25.20 93.44 25.32Q92.66 25.44 91.94 25.44L91.94 25.44Q90.53 25.44 89.35 25.04Q88.18 24.65 87.24 23.88Q86.30 23.11 85.66 21.98Q85.01 20.86 84.67 19.43Q84.34 18 84.34 16.25L84.34 16.25Q84.34 14.35 84.88 12.79Q85.42 11.23 86.40 10.10Q87.38 8.98 88.74 8.35Q90.10 7.73 91.78 7.73L91.78 7.73Q92.83 7.73 93.77 7.88Q94.70 8.04 95.51 8.35Q96.31 8.66 97.03 9.12Q97.75 9.58 98.40 10.18L98.40 10.18L97.25 15.86L96.84 15.86L97.10 12.96Q97.22 11.66 96.85 10.74Q96.48 9.82 95.75 9.23Q95.02 8.64 93.96 8.36Q92.90 8.09 91.63 8.09L91.63 8.09Q90.22 8.09 89.08 8.68Q87.94 9.26 87.10 10.33Q86.26 11.40 85.80 12.85Q85.34 14.30 85.34 16.03L85.34 16.03Q85.34 17.64 85.64 19.03Q85.94 20.42 86.52 21.54Q87.10 22.66 87.94 23.44Q88.78 24.22 89.87 24.65Q90.96 25.08 92.26 25.08L92.26 25.08Q93.26 25.08 94.40 24.84Q95.54 24.60 96.82 24.07L96.82 24.07L96.82 18.36ZM90.34 25.03L90.34 25.03Q88.73 24.58 87.56 23.38Q86.40 22.18 85.79 20.32Q85.18 18.46 85.18 16.03L85.18 16.03Q85.18 14.33 85.60 12.89Q86.02 11.45 86.81 10.36Q87.60 9.26 88.66 8.66L88.66 8.66Q86.74 9.55 85.62 11.54Q84.50 13.54 84.50 16.25L84.50 16.25Q84.50 18.12 84.90 19.62Q85.30 21.12 86.04 22.24Q86.78 23.35 87.86 24.06Q88.94 24.77 90.34 25.03ZM96.96 17.90L96.96 24Q97.20 23.93 97.37 23.84Q97.54 23.76 97.66 23.62L97.66 23.62L97.66 17.90L96.96 17.90ZM97.37 12.96L97.10 15.58L98.18 10.25Q97.78 9.91 97.33 9.61Q96.89 9.31 96.43 9.06Q95.98 8.81 95.47 8.62Q94.97 8.42 94.44 8.30L94.44 8.30Q95.47 8.62 96.17 9.29Q96.86 9.96 97.18 10.90Q97.49 11.83 97.37 12.96L97.37 12.96ZM104.16 7.20L104.16 24.60L105.58 24.84L105.58 25.08L101.78 25.08L101.78 24.84L103.20 24.60L103.20 8.21L101.57 8.21L101.57 7.94L104.16 7.20ZM103.37 7.56L103.37 24.91L103.99 24.91L103.99 7.44L103.37 7.56ZM113.98 12.72L113.98 12.72Q115.25 12.72 116.15 13.07Q117.05 13.42 117.62 14.15Q118.20 14.88 118.46 16.00Q118.73 17.11 118.73 18.62L118.73 18.62L118.73 24.22Q118.73 24.65 118.93 24.84Q119.14 25.03 119.42 25.03L119.42 25.03Q119.81 25.03 120.25 24.84Q120.70 24.65 121.10 24.34L121.10 24.34L121.10 24.60Q120.82 24.86 120.48 25.06Q120.14 25.25 119.80 25.34Q119.45 25.44 119.11 25.44L119.11 25.44Q118.44 25.44 118.10 25.03Q117.77 24.62 117.77 23.78L117.77 23.78Q117.77 23.06 117.77 22.74Q117.77 22.42 117.77 22.25Q117.77 22.08 117.77 21.89L117.77 21.89L117.53 21.74Q117.07 22.63 116.38 23.32Q115.68 24 114.83 24.48Q113.98 24.96 113.09 25.20Q112.20 25.44 111.36 25.44L111.36 25.44Q110.50 25.44 109.78 25.18Q109.06 24.91 108.61 24.34Q108.17 23.76 108.17 22.87L108.17 22.87Q108.17 20.83 110.57 19.79Q112.97 18.74 117.77 18.74L117.77 18.74Q117.77 16.75 117.37 15.52Q116.98 14.28 116.10 13.69Q115.22 13.10 113.74 13.10L113.74 13.10Q112.70 13.10 111.89 13.30Q111.07 13.49 110.62 13.74Q110.16 13.99 110.16 14.21L110.16 14.21Q110.16 14.30 110.33 14.42Q110.50 14.54 110.95 14.74L110.95 14.74Q111.67 15.07 111.67 15.70L111.67 15.70Q111.67 16.20 111.23 16.48Q110.78 16.75 110.18 16.75L110.18 16.75Q109.63 16.75 109.18 16.48Q108.72 16.20 108.72 15.62L108.72 15.62Q108.72 15.10 109.15 14.59Q109.58 14.09 110.33 13.66Q111.07 13.22 112.02 12.97Q112.97 12.72 113.98 12.72ZM117.77 20.64L117.77 19.08Q114.86 19.08 112.92 19.51Q110.98 19.94 110.02 20.77Q109.06 21.60 109.06 22.82L109.06 22.82Q109.06 23.57 109.42 24.02Q109.78 24.48 110.36 24.68Q110.95 24.89 111.67 24.89L111.67 24.89Q112.49 24.89 113.39 24.62Q114.29 24.36 115.14 23.82Q115.99 23.28 116.69 22.49Q117.38 21.70 117.77 20.64L117.77 20.64ZM111.36 25.30L111.36 25.30Q112.32 25.30 113.26 25.00Q114.19 24.70 114.98 24.17L114.98 24.17Q114.17 24.62 113.29 24.85Q112.42 25.08 111.65 25.08L111.65 25.08Q110.76 25.08 110.15 24.82Q109.54 24.55 109.21 24.04Q108.89 23.52 108.89 22.82L108.89 22.82Q108.89 21.29 110.38 20.32Q111.86 19.34 114.55 19.08L114.55 19.08Q111.55 19.32 109.94 20.32Q108.34 21.31 108.34 22.87L108.34 22.87Q108.34 23.64 108.70 24.18Q109.06 24.72 109.74 25.01Q110.42 25.30 111.36 25.30ZM114.94 12.98L114.94 12.98Q115.54 13.13 116.02 13.38Q116.50 13.63 116.86 14.11L116.86 14.11Q117.41 14.78 117.67 15.91Q117.94 17.04 117.94 18.62L117.94 18.62L117.94 23.93Q117.94 24.24 118.03 24.48Q118.13 24.72 118.31 24.88Q118.49 25.03 118.70 25.10L118.70 25.10Q118.80 25.15 118.90 25.18Q118.99 25.20 119.11 25.22L119.11 25.22Q118.80 25.06 118.68 24.83Q118.56 24.60 118.56 24.19L118.56 24.19L118.56 18.62Q118.56 16.97 118.22 15.83Q117.89 14.69 117.22 13.99L117.22 13.99Q116.90 13.70 116.54 13.50Q116.18 13.30 115.78 13.18Q115.37 13.06 114.94 12.98ZM110.18 16.58L110.18 16.58Q110.76 16.58 111.13 16.32Q111.50 16.06 111.50 15.70L111.50 15.70Q111.50 15.31 111.23 15.12Q110.95 14.93 110.64 14.78L110.64 14.78Q110.45 14.71 110.26 14.59Q110.06 14.47 110.04 14.28L110.04 14.28Q109.99 14.14 110.09 13.99L110.09 13.99Q109.73 14.23 109.45 14.51Q109.18 14.78 109.03 15.06Q108.89 15.34 108.89 15.62L108.89 15.62Q108.89 16.03 109.26 16.31Q109.63 16.58 110.18 16.58ZM133.37 25.08L123.02 25.08L131.90 13.44L125.83 13.44Q125.23 13.44 124.87 13.85Q124.51 14.26 124.63 15.53L124.63 15.53L124.85 17.42L124.61 17.42L123.53 13.08L133.34 13.08L124.44 24.72L130.92 24.72Q131.50 24.72 131.87 24.25Q132.24 23.78 132.12 22.44L132.12 22.44L132.02 20.88L132.26 20.88L133.37 25.08ZM123.74 13.25L124.73 17.18L124.49 15.53Q124.39 14.69 124.50 14.22Q124.61 13.75 124.87 13.54Q125.14 13.32 125.45 13.25L125.45 13.25L123.74 13.25ZM132.29 13.25L123.36 24.91L124.08 24.91L133.01 13.25L132.29 13.25ZM131.21 24.91L131.21 24.91L133.15 24.91L132.17 21.14L132.29 22.44Q132.43 23.78 132.10 24.29Q131.76 24.79 131.21 24.91ZM142.03 12.72L142.03 12.72Q143.74 12.72 144.94 13.43Q146.14 14.14 146.75 15.42Q147.36 16.70 147.36 18.48L147.36 18.48L136.97 18.48L136.97 18.24L146.45 18.10Q146.45 16.54 145.93 15.41Q145.42 14.28 144.43 13.67Q143.45 13.06 142.01 13.06L142.01 13.06Q140.54 13.06 139.40 13.80Q138.26 14.54 137.62 15.89Q136.97 17.23 136.97 19.06L136.97 19.06Q136.97 20.33 137.34 21.40Q137.71 22.46 138.38 23.26Q139.06 24.05 140.00 24.49Q140.95 24.94 142.10 24.94L142.10 24.94Q142.99 24.94 143.78 24.73Q144.58 24.53 145.24 24.14Q145.90 23.76 146.45 23.16Q147 22.56 147.41 21.77L147.41 21.77L147.60 22.01Q147.14 22.92 146.54 23.57Q145.94 24.22 145.21 24.64Q144.48 25.06 143.63 25.25Q142.78 25.44 141.79 25.44L141.79 25.44Q140.50 25.44 139.43 24.96Q138.36 24.48 137.60 23.64Q136.85 22.80 136.43 21.65Q136.01 20.50 136.01 19.15L136.01 19.15Q136.01 17.71 136.45 16.55Q136.90 15.38 137.69 14.52Q138.48 13.66 139.58 13.19Q140.69 12.72 142.03 12.72ZM136.15 19.15L136.15 19.15Q136.15 20.93 136.88 22.32Q137.62 23.71 138.88 24.49Q140.14 25.27 141.79 25.27L141.79 25.27Q142.66 25.27 143.35 25.13Q144.05 24.98 144.58 24.72L144.58 24.72Q144.14 24.91 143.51 25.01Q142.87 25.10 142.10 25.10L142.10 25.10Q140.90 25.10 139.93 24.65Q138.96 24.19 138.26 23.38Q137.57 22.56 137.18 21.46Q136.80 20.35 136.80 19.06L136.80 19.06Q136.80 17.18 137.47 15.77Q138.14 14.35 139.34 13.61L139.34 13.61Q138.36 14.09 137.65 14.89Q136.94 15.70 136.55 16.76Q136.15 17.83 136.15 19.15ZM146.64 18.31L146.64 18.31L147.22 18.31Q147.22 17.11 146.90 16.20Q146.59 15.29 146.04 14.64Q145.49 13.99 144.70 13.61L144.70 13.61Q145.56 14.28 146.10 15.41Q146.64 16.54 146.64 18.31ZM159.19 25.44L159.19 25.44Q158.71 25.44 158.30 25.09Q157.90 24.74 157.90 23.95L157.90 23.95Q157.90 22.70 158.46 21.78Q159.02 20.86 159.96 20.14L159.96 20.14Q160.56 19.68 161.56 19.08Q162.55 18.48 163.97 17.71L163.97 17.71Q165.67 16.82 166.67 15.96Q167.66 15.10 168.11 14.12Q168.55 13.15 168.55 11.88L168.55 11.88Q168.55 10.75 167.95 9.91Q167.35 9.07 166.25 8.60Q165.14 8.14 163.63 8.14L163.63 8.14Q162.12 8.14 161.09 8.56Q160.06 8.98 159.50 9.49Q158.95 10.01 158.95 10.30L158.95 10.30Q158.95 10.46 159.22 10.64Q159.48 10.82 160.10 11.11L160.10 11.11Q160.78 11.40 161.06 11.68Q161.35 11.95 161.35 12.38L161.35 12.38Q161.35 12.77 161.11 13.04Q160.87 13.32 160.50 13.45Q160.13 13.58 159.72 13.58L159.72 13.58Q159.29 13.58 158.86 13.44Q158.42 13.30 158.15 12.96Q157.87 12.62 157.87 12.10L157.87 12.10Q157.87 11.38 158.22 10.62Q158.57 9.86 159.30 9.20Q160.03 8.54 161.20 8.14Q162.36 7.73 163.97 7.73L163.97 7.73Q166.61 7.73 168.08 8.88Q169.56 10.03 169.56 11.98L169.56 11.98Q169.56 13.39 169.07 14.45Q168.58 15.50 167.46 16.39Q166.34 17.28 164.47 18.17L164.47 18.17Q162.58 19.06 161.30 19.82Q160.03 20.59 159.32 21.28Q158.62 21.96 158.40 22.63L158.40 22.63L158.78 22.80Q159.07 22.78 159.44 22.84Q159.82 22.90 160.25 22.98Q160.68 23.06 161.17 23.17Q161.66 23.28 162.17 23.40L162.17 23.40Q162.89 23.62 163.60 23.83Q164.30 24.05 164.93 24.23Q165.55 24.41 166.04 24.52Q166.54 24.62 166.82 24.62L166.82 24.62Q168.38 24.62 169.08 23.59Q169.78 22.56 169.78 20.21L169.78 20.21L170.02 20.21Q170.02 21.62 169.81 22.63Q169.61 23.64 169.18 24.25Q168.74 24.86 168.05 25.15Q167.35 25.44 166.39 25.44L166.39 25.44Q165.96 25.44 165.29 25.30Q164.62 25.15 163.75 24.88Q162.89 24.60 161.86 24.24L161.86 24.24Q160.92 23.90 160.22 23.68Q159.53 23.45 159.10 23.32Q158.66 23.18 158.52 23.18L158.52 23.18Q158.30 23.18 158.30 23.30L158.30 23.30Q158.30 23.45 158.47 23.57Q158.64 23.69 158.98 23.88L158.98 23.88Q159.53 24.17 159.77 24.37Q160.01 24.58 160.01 24.86L160.01 24.86Q160.01 25.13 159.79 25.28Q159.58 25.44 159.19 25.44ZM158.09 12.10L158.09 12.10Q158.09 12.70 158.52 13.03Q158.95 13.37 159.72 13.37L159.72 13.37Q160.37 13.37 160.75 13.09Q161.14 12.82 161.14 12.38L161.14 12.38Q161.14 12.14 161.02 11.96Q160.90 11.78 160.67 11.62Q160.44 11.45 160.03 11.30L160.03 11.30Q159.38 11.02 159.05 10.80Q158.71 10.58 158.78 10.18L158.78 10.18Q158.45 10.58 158.27 11.08Q158.09 11.57 158.09 12.10ZM158.14 23.47L158.14 23.47Q158.11 23.57 158.10 23.71Q158.09 23.86 158.09 24.02L158.09 24.02Q158.09 24.55 158.42 24.89Q158.76 25.22 159.19 25.22L159.19 25.22Q159.48 25.22 159.65 25.13Q159.82 25.03 159.82 24.86L159.82 24.86Q159.82 24.70 159.62 24.53Q159.43 24.36 159.10 24.19L159.10 24.19Q158.66 24 158.44 23.82Q158.21 23.64 158.14 23.47ZM169.49 23.18L169.49 23.18Q169.22 23.81 168.79 24.17Q168.36 24.53 167.81 24.70L167.81 24.70Q167.54 24.72 167.27 24.74Q166.99 24.77 166.70 24.77L166.70 24.77Q166.32 24.72 165.78 24.59Q165.24 24.46 164.62 24.29Q163.99 24.12 163.45 23.96Q162.91 23.81 162.53 23.69L162.53 23.69Q162 23.57 161.45 23.47Q160.90 23.38 160.34 23.28Q159.79 23.18 159.24 23.11L159.24 23.11Q160.27 23.52 161.16 23.83Q162.05 24.14 162.74 24.38L162.74 24.38Q163.63 24.67 164.33 24.88Q165.02 25.08 165.54 25.18Q166.06 25.27 166.39 25.27L166.39 25.27Q167.02 25.27 167.51 25.16Q168 25.06 168.38 24.80Q168.77 24.55 169.04 24.14Q169.32 23.74 169.49 23.18ZM162.10 8.14L162.10 8.14Q162.67 8.04 163.08 8.02Q163.49 7.99 163.92 7.99L163.92 7.99Q165.41 8.02 166.48 8.50Q167.54 8.98 168.13 9.84Q168.72 10.70 168.72 11.88L168.72 11.88Q168.72 13.18 168.26 14.20Q167.81 15.22 166.78 16.10Q165.74 16.99 164.06 17.86L164.06 17.86Q163.73 18.02 163.28 18.31Q162.84 18.60 162.43 18.96L162.43 18.96Q162.72 18.77 163.07 18.59Q163.42 18.41 163.76 18.25Q164.11 18.10 164.35 18.02L164.35 18.02Q165.72 17.38 166.68 16.72Q167.64 16.06 168.25 15.32Q168.86 14.59 169.14 13.76Q169.42 12.94 169.42 11.98L169.42 11.98Q169.42 10.70 168.73 9.78Q168.05 8.86 166.82 8.36Q165.60 7.87 163.94 7.87L163.94 7.87Q163.42 7.87 162.89 7.96Q162.36 8.04 162.10 8.14ZM179.04 25.44L179.04 25.44Q177.50 25.44 176.33 24.89Q175.15 24.34 174.37 23.21Q173.59 22.08 173.18 20.38Q172.78 18.67 172.78 16.42L172.78 16.42Q172.78 14.23 173.18 12.60Q173.59 10.97 174.37 9.89Q175.15 8.81 176.33 8.27Q177.50 7.73 179.04 7.73L179.04 7.73Q180.60 7.73 181.75 8.27Q182.90 8.81 183.68 9.89Q184.46 10.97 184.85 12.60Q185.23 14.23 185.23 16.42L185.23 16.42Q185.23 18.67 184.85 20.38Q184.46 22.08 183.68 23.21Q182.90 24.34 181.74 24.89Q180.58 25.44 179.04 25.44ZM176.06 24.41L176.06 24.41Q174.84 23.45 174.25 21.55Q173.66 19.66 173.66 16.85L173.66 16.85L173.66 15.74Q173.66 13.18 174.24 11.42Q174.82 9.67 175.99 8.76L175.99 8.76Q175.01 9.34 174.32 10.38Q173.64 11.42 173.29 12.92Q172.94 14.42 172.94 16.42L172.94 16.42Q172.94 17.98 173.15 19.25Q173.35 20.52 173.75 21.52Q174.14 22.51 174.73 23.23Q175.32 23.95 176.06 24.41ZM179.04 25.08L179.04 25.08Q180.79 25.08 181.93 24.16Q183.07 23.23 183.62 21.46Q184.18 19.68 184.20 17.11L184.20 17.11L184.20 15.77Q184.20 13.18 183.60 11.47Q183 9.77 181.85 8.93Q180.70 8.09 179.04 8.09L179.04 8.09Q177.34 8.09 176.17 8.94Q175.01 9.79 174.42 11.50Q173.83 13.20 173.83 15.72L173.83 15.72L173.83 16.85Q173.83 19.54 174.41 21.37Q174.98 23.21 176.12 24.14Q177.26 25.08 179.04 25.08ZM182.02 24.41L182.02 24.41Q183.02 23.78 183.71 22.72Q184.39 21.65 184.74 20.06Q185.09 18.48 185.09 16.42L185.09 16.42Q185.09 14.50 184.74 12.96Q184.39 11.42 183.71 10.36Q183.02 9.29 182.06 8.76L182.06 8.76Q182.81 9.31 183.32 10.33Q183.84 11.35 184.10 12.72Q184.37 14.09 184.37 15.77L184.37 15.77L184.37 17.11Q184.34 18.84 184.09 20.26Q183.84 21.67 183.32 22.72Q182.81 23.76 182.02 24.41ZM194.47 25.44L194.47 25.44Q192.94 25.44 191.76 24.89Q190.58 24.34 189.80 23.21Q189.02 22.08 188.62 20.38Q188.21 18.67 188.21 16.42L188.21 16.42Q188.21 14.23 188.62 12.60Q189.02 10.97 189.80 9.89Q190.58 8.81 191.76 8.27Q192.94 7.73 194.47 7.73L194.47 7.73Q196.03 7.73 197.18 8.27Q198.34 8.81 199.12 9.89Q199.90 10.97 200.28 12.60Q200.66 14.23 200.66 16.42L200.66 16.42Q200.66 18.67 200.28 20.38Q199.90 22.08 199.12 23.21Q198.34 24.34 197.17 24.89Q196.01 25.44 194.47 25.44ZM191.50 24.41L191.50 24.41Q190.27 23.45 189.68 21.55Q189.10 19.66 189.10 16.85L189.10 16.85L189.10 15.74Q189.10 13.18 189.67 11.42Q190.25 9.67 191.42 8.76L191.42 8.76Q190.44 9.34 189.76 10.38Q189.07 11.42 188.72 12.92Q188.38 14.42 188.38 16.42L188.38 16.42Q188.38 17.98 188.58 19.25Q188.78 20.52 189.18 21.52Q189.58 22.51 190.16 23.23Q190.75 23.95 191.50 24.41ZM194.47 25.08L194.47 25.08Q196.22 25.08 197.36 24.16Q198.50 23.23 199.06 21.46Q199.61 19.68 199.63 17.11L199.63 17.11L199.63 15.77Q199.63 13.18 199.03 11.47Q198.43 9.77 197.28 8.93Q196.13 8.09 194.47 8.09L194.47 8.09Q192.77 8.09 191.60 8.94Q190.44 9.79 189.85 11.50Q189.26 13.20 189.26 15.72L189.26 15.72L189.26 16.85Q189.26 19.54 189.84 21.37Q190.42 23.21 191.56 24.14Q192.70 25.08 194.47 25.08ZM197.45 24.41L197.45 24.41Q198.46 23.78 199.14 22.72Q199.82 21.65 200.17 20.06Q200.52 18.48 200.52 16.42L200.52 16.42Q200.52 14.50 200.17 12.96Q199.82 11.42 199.14 10.36Q198.46 9.29 197.50 8.76L197.50 8.76Q198.24 9.31 198.76 10.33Q199.27 11.35 199.54 12.72Q199.80 14.09 199.80 15.77L199.80 15.77L199.80 17.11Q199.78 18.84 199.52 20.26Q199.27 21.67 198.76 22.72Q198.24 23.76 197.45 24.41ZM222.48 24.60L224.11 24.84L224.11 25.08L219.94 25.08L219.94 24.84L221.52 24.60L221.52 16.87Q221.52 15.05 220.86 14.15Q220.20 13.25 218.86 13.25L218.86 13.25Q218.06 13.25 217.24 13.61Q216.41 13.97 215.65 14.62Q214.90 15.26 214.25 16.10Q213.60 16.94 213.14 17.90L213.14 17.90L213.14 24.60L214.73 24.84L214.73 25.08L210.77 25.08L210.77 24.84L212.18 24.60L212.18 13.73L210.55 13.73L210.55 13.46L213.14 12.72L213.14 16.68L213.34 16.82Q214.15 15.53 215.09 14.62Q216.02 13.70 217.06 13.21Q218.09 12.72 219.17 12.72L219.17 12.72Q220.03 12.72 220.66 13.00Q221.28 13.27 221.68 13.80Q222.07 14.33 222.28 15.12Q222.48 15.91 222.48 16.97L222.48 16.97L222.48 24.60ZM212.35 13.08L212.35 24.91L212.98 24.91L212.98 12.96L212.35 13.08ZM221.69 16.87L221.69 24.91L222.31 24.91L222.31 16.97Q222.31 15.58 221.98 14.68Q221.64 13.78 220.94 13.33Q220.25 12.89 219.17 12.89L219.17 12.89Q218.11 12.89 217.03 13.40Q215.95 13.92 214.92 15.05L214.92 15.05Q215.93 14.04 216.95 13.56Q217.97 13.08 218.93 13.08L218.93 13.08Q220.34 13.13 221.02 14.06Q221.69 15.00 221.69 16.87L221.69 16.87ZM232.13 12.72L232.13 12.72Q233.50 12.72 234.58 13.15Q235.66 13.58 236.40 14.44Q237.14 15.29 237.53 16.49Q237.91 17.69 237.91 19.18L237.91 19.18Q237.91 20.62 237.52 21.77Q237.12 22.92 236.38 23.75Q235.63 24.58 234.56 25.01Q233.50 25.44 232.13 25.44L232.13 25.44Q230.78 25.44 229.72 25.01Q228.65 24.58 227.90 23.75Q227.16 22.92 226.79 21.77Q226.42 20.62 226.42 19.18L226.42 19.18Q226.42 17.69 226.80 16.49Q227.18 15.29 227.93 14.44Q228.67 13.58 229.74 13.15Q230.81 12.72 232.13 12.72ZM232.15 13.06L232.15 13.06Q230.64 13.06 229.57 13.80Q228.50 14.54 227.94 15.92Q227.38 17.30 227.38 19.18L227.38 19.18Q227.38 20.54 227.69 21.62Q228.00 22.70 228.62 23.48Q229.25 24.26 230.12 24.68Q231.00 25.10 232.13 25.10L232.13 25.10Q233.28 25.10 234.17 24.70Q235.06 24.29 235.68 23.51Q236.30 22.73 236.62 21.64Q236.93 20.54 236.93 19.18L236.93 19.18Q236.93 17.76 236.62 16.63Q236.30 15.50 235.69 14.70Q235.08 13.90 234.18 13.48Q233.28 13.06 232.15 13.06ZM226.56 19.18L226.56 19.18Q226.56 20.45 226.90 21.49Q227.23 22.54 227.86 23.29Q228.48 24.05 229.37 24.48L229.37 24.48Q228.70 23.98 228.22 23.20Q227.74 22.42 227.48 21.40Q227.23 20.38 227.23 19.18L227.23 19.18Q227.23 17.88 227.51 16.80Q227.78 15.72 228.29 14.92Q228.79 14.11 229.49 13.61L229.49 13.61Q228.60 14.04 227.94 14.82Q227.28 15.60 226.92 16.69Q226.56 17.78 226.56 19.18ZM237.74 19.18L237.74 19.18Q237.74 17.81 237.41 16.73Q237.07 15.65 236.44 14.86Q235.80 14.06 234.91 13.66L234.91 13.66Q235.58 14.14 236.08 14.95Q236.57 15.77 236.83 16.84Q237.10 17.90 237.10 19.18L237.10 19.18Q237.10 20.35 236.84 21.36Q236.59 22.37 236.12 23.15Q235.66 23.93 235.01 24.43L235.01 24.43Q235.87 24 236.48 23.24Q237.10 22.49 237.42 21.46Q237.74 20.42 237.74 19.18ZM244.63 25.08L240.84 25.08L240.84 24.84L242.26 24.58L242.26 13.73L240.62 13.73L240.62 13.46L243.22 12.72L243.22 16.61L243.41 16.80Q243.79 15.94 244.16 15.29Q244.54 14.64 244.87 14.18L244.87 14.18Q245.50 13.39 246.12 13.06Q246.74 12.72 247.44 12.72L247.44 12.72Q247.92 12.72 248.27 12.89Q248.62 13.06 248.82 13.38Q249.02 13.70 249.02 14.18L249.02 14.18Q249.02 14.52 248.84 14.83Q248.66 15.14 248.33 15.32Q247.99 15.50 247.49 15.50L247.49 15.50Q247.06 15.50 246.71 15.36Q246.36 15.22 246.16 14.96Q245.95 14.71 245.95 14.40L245.95 14.40Q245.95 14.28 245.98 14.20Q246.00 14.11 246.00 14.03Q246.00 13.94 246.00 13.87L246.00 13.87Q246.00 13.70 245.86 13.70L245.86 13.70Q245.57 13.70 245.20 14.16Q244.82 14.62 244.42 15.36L244.42 15.36Q244.08 15.94 243.77 16.67Q243.46 17.40 243.22 18.17L243.22 18.17L243.22 24.58L244.63 24.84L244.63 25.08ZM243.05 24.91L243.05 12.94L242.42 13.06L242.42 24.91L243.05 24.91ZM247.44 12.94L247.44 12.94Q247.03 12.94 246.66 13.06Q246.29 13.18 245.95 13.42L245.95 13.42Q246.07 13.51 246.14 13.62Q246.22 13.73 246.22 13.87L246.22 13.87Q246.22 13.94 246.20 14.03Q246.19 14.11 246.18 14.20Q246.17 14.28 246.17 14.40L246.17 14.40Q246.17 14.78 246.52 15.05Q246.86 15.31 247.49 15.31L247.49 15.31Q248.18 15.31 248.50 14.98Q248.81 14.64 248.81 14.18L248.81 14.18Q248.81 13.56 248.44 13.25Q248.06 12.94 247.44 12.94ZM254.90 25.08L250.94 25.08L250.94 24.84L252.36 24.58L252.36 13.78L250.73 13.78L250.73 13.51L253.32 12.77L253.32 16.68L253.51 16.82Q254.14 15.62 255.01 14.70Q255.89 13.78 256.90 13.25Q257.90 12.72 258.91 12.72L258.91 12.72Q259.75 12.72 260.38 12.98Q261 13.25 261.41 13.78Q261.82 14.30 262.02 15.08Q262.22 15.86 262.22 16.92L262.22 16.92L262.22 24.58L263.83 24.84L263.83 25.08L259.68 25.08L259.68 24.84L261.26 24.58L261.26 16.87Q261.26 15.05 260.60 14.15Q259.94 13.25 258.60 13.25L258.60 13.25Q257.88 13.25 257.14 13.60Q256.39 13.94 255.70 14.58Q255 15.22 254.40 16.07Q253.80 16.92 253.32 17.90L253.32 17.90L253.32 24.58L254.90 24.84L254.90 25.08ZM272.76 25.08L268.58 25.08L268.58 24.84L270.17 24.58L270.17 16.87Q270.17 15.05 269.51 14.15Q268.85 13.25 267.50 13.25L267.50 13.25Q266.76 13.25 266.03 13.60Q265.30 13.94 264.60 14.58Q263.90 15.22 263.29 16.07Q262.68 16.92 262.22 17.90L262.22 17.90L262.22 16.68L262.42 16.82Q263.02 15.62 263.89 14.70Q264.77 13.78 265.79 13.25Q266.81 12.72 267.82 12.72L267.82 12.72Q268.66 12.72 269.29 13.00Q269.93 13.27 270.32 13.80Q270.72 14.33 270.92 15.12Q271.13 15.91 271.13 16.97L271.13 16.97L271.13 24.58L272.76 24.84L272.76 25.08ZM252.53 13.08L252.53 24.91L253.15 24.91L253.15 12.96L252.53 13.08ZM261.43 16.87L261.43 24.91L262.08 24.91L262.08 16.97Q262.08 15.58 261.73 14.68Q261.38 13.78 260.69 13.33Q259.99 12.89 258.91 12.89L258.91 12.89Q257.93 12.89 256.97 13.40Q256.01 13.92 254.95 15.05L254.95 15.05Q255.96 14.04 256.86 13.56Q257.76 13.08 258.67 13.08L258.67 13.08Q260.09 13.13 260.76 14.06Q261.43 15.00 261.43 16.87L261.43 16.87ZM270.34 16.87L270.34 24.91L270.96 24.91L270.96 16.97Q270.96 15.58 270.62 14.68Q270.29 13.78 269.59 13.33Q268.90 12.89 267.82 12.89L267.82 12.89Q266.81 12.89 265.86 13.40Q264.91 13.92 263.86 15.05L263.86 15.05Q264.86 14.04 265.76 13.56Q266.66 13.08 267.58 13.08L267.58 13.08Q268.97 13.13 269.65 14.06Q270.34 15.00 270.34 16.87L270.34 16.87ZM280.94 12.72L280.94 12.72Q282.22 12.72 283.12 13.07Q284.02 13.42 284.59 14.15Q285.17 14.88 285.43 16.00Q285.70 17.11 285.70 18.62L285.70 18.62L285.70 24.22Q285.70 24.65 285.90 24.84Q286.10 25.03 286.39 25.03L286.39 25.03Q286.78 25.03 287.22 24.84Q287.66 24.65 288.07 24.34L288.07 24.34L288.07 24.60Q287.78 24.86 287.45 25.06Q287.11 25.25 286.76 25.34Q286.42 25.44 286.08 25.44L286.08 25.44Q285.41 25.44 285.07 25.03Q284.74 24.62 284.74 23.78L284.74 23.78Q284.74 23.06 284.74 22.74Q284.74 22.42 284.74 22.25Q284.74 22.08 284.74 21.89L284.74 21.89L284.50 21.74Q284.04 22.63 283.34 23.32Q282.65 24 281.80 24.48Q280.94 24.96 280.06 25.20Q279.17 25.44 278.33 25.44L278.33 25.44Q277.46 25.44 276.74 25.18Q276.02 24.91 275.58 24.34Q275.14 23.76 275.14 22.87L275.14 22.87Q275.14 20.83 277.54 19.79Q279.94 18.74 284.74 18.74L284.74 18.74Q284.74 16.75 284.34 15.52Q283.94 14.28 283.07 13.69Q282.19 13.10 280.70 13.10L280.70 13.10Q279.67 13.10 278.86 13.30Q278.04 13.49 277.58 13.74Q277.13 13.99 277.13 14.21L277.13 14.21Q277.13 14.30 277.30 14.42Q277.46 14.54 277.92 14.74L277.92 14.74Q278.64 15.07 278.64 15.70L278.64 15.70Q278.64 16.20 278.20 16.48Q277.75 16.75 277.15 16.75L277.15 16.75Q276.60 16.75 276.14 16.48Q275.69 16.20 275.69 15.62L275.69 15.62Q275.69 15.10 276.12 14.59Q276.55 14.09 277.30 13.66Q278.04 13.22 278.99 12.97Q279.94 12.72 280.94 12.72ZM284.74 20.64L284.74 19.08Q281.83 19.08 279.89 19.51Q277.94 19.94 276.98 20.77Q276.02 21.60 276.02 22.82L276.02 22.82Q276.02 23.57 276.38 24.02Q276.74 24.48 277.33 24.68Q277.92 24.89 278.64 24.89L278.64 24.89Q279.46 24.89 280.36 24.62Q281.26 24.36 282.11 23.82Q282.96 23.28 283.66 22.49Q284.35 21.70 284.74 20.64L284.74 20.64ZM278.33 25.30L278.33 25.30Q279.29 25.30 280.22 25.00Q281.16 24.70 281.95 24.17L281.95 24.17Q281.14 24.62 280.26 24.85Q279.38 25.08 278.62 25.08L278.62 25.08Q277.73 25.08 277.12 24.82Q276.50 24.55 276.18 24.04Q275.86 23.52 275.86 22.82L275.86 22.82Q275.86 21.29 277.34 20.32Q278.83 19.34 281.52 19.08L281.52 19.08Q278.52 19.32 276.91 20.32Q275.30 21.31 275.30 22.87L275.30 22.87Q275.30 23.64 275.66 24.18Q276.02 24.72 276.71 25.01Q277.39 25.30 278.33 25.30ZM281.90 12.98L281.90 12.98Q282.50 13.13 282.98 13.38Q283.46 13.63 283.82 14.11L283.82 14.11Q284.38 14.78 284.64 15.91Q284.90 17.04 284.90 18.62L284.90 18.62L284.90 23.93Q284.90 24.24 285.00 24.48Q285.10 24.72 285.28 24.88Q285.46 25.03 285.67 25.10L285.67 25.10Q285.77 25.15 285.86 25.18Q285.96 25.20 286.08 25.22L286.08 25.22Q285.77 25.06 285.65 24.83Q285.53 24.60 285.53 24.19L285.53 24.19L285.53 18.62Q285.53 16.97 285.19 15.83Q284.86 14.69 284.18 13.99L284.18 13.99Q283.87 13.70 283.51 13.50Q283.15 13.30 282.74 13.18Q282.34 13.06 281.90 12.98ZM277.15 16.58L277.15 16.58Q277.73 16.58 278.10 16.32Q278.47 16.06 278.47 15.70L278.47 15.70Q278.47 15.31 278.20 15.12Q277.92 14.93 277.61 14.78L277.61 14.78Q277.42 14.71 277.22 14.59Q277.03 14.47 277.01 14.28L277.01 14.28Q276.96 14.14 277.06 13.99L277.06 13.99Q276.70 14.23 276.42 14.51Q276.14 14.78 276.00 15.06Q275.86 15.34 275.86 15.62L275.86 15.62Q275.86 16.03 276.23 16.31Q276.60 16.58 277.15 16.58ZM292.61 7.20L292.61 24.60L294.02 24.84L294.02 25.08L290.23 25.08L290.23 24.84L291.65 24.60L291.65 8.21L290.02 8.21L290.02 7.94L292.61 7.20ZM291.82 7.56L291.82 24.91L292.44 24.91L292.44 7.44L291.82 7.56Z"/></svg>