<svg xmlns="http://www.w3.org/2000/svg" xmlns:xlink="http://www.w3.org/1999/xlink" width="374.39999999999986" height="30.168"><path fill="black" d="M6.41 23.90L6.41 23.90Q4.30 23.90 2.86 23.03Q1.42 22.15 0.58 20.86L0.58 20.86L2.71 18.98Q3.38 19.99 4.30 20.54Q5.21 21.10 6.31 21.10L6.31 21.10Q7.06 21.10 7.58 20.89Q8.11 20.69 8.42 20.29Q8.74 19.90 8.74 19.34L8.74 19.34Q8.74 18.67 8.24 18.22Q7.75 17.76 6.94 17.28L6.94 17.28L5.47 16.42Q4.42 15.77 3.64 14.76Q2.86 13.75 2.86 12.24L2.86 12.24Q2.86 10.85 3.56 9.83Q4.27 8.81 5.47 8.24Q6.67 7.68 8.18 7.68L8.18 7.68Q9.84 7.68 11.22 8.42Q12.60 9.17 13.37 10.30L13.37 10.30L11.28 12.10Q10.73 11.42 9.95 10.94Q9.17 10.46 8.16 10.46L8.16 10.46Q7.63 10.46 7.19 10.64Q6.74 10.82 6.49 11.17Q6.24 11.52 6.24 12L6.24 12Q6.24 12.60 6.66 13.02Q7.08 13.44 7.73 13.85L7.73 13.85L9.41 14.93Q10.18 15.41 10.79 15.98Q11.40 16.56 11.75 17.30Q12.10 18.05 12.10 19.10L12.10 19.10Q12.10 20.66 11.33 21.73Q10.56 22.80 9.26 23.35Q7.97 23.90 6.41 23.90ZM20.50 23.90L20.50 23.90Q18.86 23.90 17.69 23.24Q16.51 22.58 15.88 21.40Q15.24 20.21 15.24 18.60L15.24 18.60Q15.24 16.99 15.80 15.67Q16.37 14.35 17.34 13.40Q18.31 12.46 19.56 11.94Q20.81 11.42 22.15 11.42L22.15 11.42Q23.78 11.42 24.96 12.08Q26.14 12.74 26.78 13.93Q27.43 15.12 27.43 16.73L27.43 16.73Q27.43 18.31 26.87 19.64Q26.30 20.98 25.32 21.92Q24.34 22.87 23.09 23.39Q21.84 23.90 20.50 23.90ZM20.74 21.22L20.74 21.22Q21.41 21.22 22.01 20.89Q22.61 20.57 23.08 19.99Q23.54 19.42 23.82 18.60Q24.10 17.78 24.10 16.82L24.10 16.82Q24.10 15.53 23.51 14.82Q22.92 14.11 21.91 14.11L21.91 14.11Q21.26 14.11 20.65 14.44Q20.04 14.76 19.57 15.34Q19.10 15.91 18.83 16.72Q18.55 17.52 18.55 18.50L18.55 18.50Q18.55 19.80 19.15 20.51Q19.75 21.22 20.74 21.22ZM32.81 23.90L32.81 23.90Q31.32 23.90 30.53 23.11Q29.74 22.32 29.74 20.83L29.74 20.83Q29.74 20.40 29.78 19.96Q29.83 19.51 29.93 19.06L29.93 19.06L31.39 11.71L34.68 11.71L33.29 18.67Q33.22 19.01 33.16 19.31Q33.10 19.61 33.10 19.87L33.10 19.87Q33.10 20.47 33.43 20.78Q33.77 21.10 34.34 21.10L34.34 21.10Q35.09 21.10 35.94 20.56Q36.79 20.02 37.63 18.96L37.63 18.96L39.05 11.71L42.34 11.71L39.98 23.62L37.32 23.62L37.46 21.58L37.37 21.58Q36.79 22.15 36.05 22.69Q35.30 23.23 34.49 23.57Q33.67 23.90 32.81 23.90ZM48.24 23.62L44.95 23.62L47.30 11.69L49.97 11.71L49.63 14.88L49.73 14.88Q50.35 13.82 51.16 13.04Q51.96 12.26 52.85 11.84Q53.74 11.42 54.65 11.42L54.65 11.42Q55.42 11.42 56.04 11.56Q56.66 11.69 57 11.93L57 11.93L55.82 14.76Q55.42 14.54 54.97 14.45Q54.53 14.35 54 14.35L54 14.35Q52.82 14.35 51.59 15.42Q50.35 16.49 49.30 18.36L49.30 18.36L48.24 23.62ZM64.75 23.90L64.75 23.90Q63.19 23.90 61.90 23.33Q60.60 22.75 59.82 21.60Q59.04 20.45 59.04 18.70L59.04 18.70Q59.04 17.06 59.63 15.72Q60.22 14.38 61.24 13.43Q62.26 12.48 63.56 11.95Q64.87 11.42 66.31 11.42L66.31 11.42Q67.92 11.42 69.08 12.08Q70.25 12.74 70.90 13.58L70.90 13.58L68.90 15.41Q68.30 14.74 67.60 14.42Q66.89 14.11 66.07 14.11L66.07 14.11Q65.38 14.11 64.72 14.42Q64.06 14.74 63.53 15.32Q63 15.91 62.69 16.69Q62.38 17.47 62.38 18.38L62.38 18.38Q62.38 19.82 63.23 20.52Q64.08 21.22 65.23 21.22L65.23 21.22Q66.12 21.22 66.83 20.83Q67.54 20.45 68.23 19.87L68.23 19.87L69.38 22.10Q68.50 22.92 67.32 23.41Q66.14 23.90 64.75 23.90ZM78.41 23.90L78.41 23.90Q76.87 23.90 75.68 23.34Q74.50 22.78 73.80 21.60Q73.10 20.42 73.10 18.62L73.10 18.62Q73.10 16.99 73.67 15.68Q74.23 14.38 75.19 13.42Q76.15 12.46 77.40 11.94Q78.65 11.42 80.02 11.42L80.02 11.42Q82.32 11.42 83.59 12.72Q84.86 14.02 84.86 16.10L84.86 16.10Q84.86 16.85 84.72 17.57Q84.58 18.29 84.46 18.58L84.46 18.58L75.58 18.58L75.94 16.46L82.66 16.46L81.70 16.94Q81.77 16.75 81.80 16.50Q81.84 16.25 81.84 16.03L81.84 16.03Q81.84 15 81.32 14.47Q80.81 13.94 79.92 13.94L79.92 13.94Q79.37 13.94 78.74 14.23Q78.12 14.52 77.59 15.08Q77.06 15.65 76.73 16.50Q76.39 17.35 76.39 18.48L76.39 18.48Q76.39 19.56 76.76 20.20Q77.14 20.83 77.77 21.11Q78.41 21.38 79.18 21.38L79.18 21.38Q80.21 21.38 81.06 21.02Q81.91 20.66 82.73 20.14L82.73 20.14L83.83 22.32Q82.78 23.04 81.40 23.47Q80.02 23.90 78.41 23.90ZM108.41 23.90L108.41 23.90Q106.61 23.90 105.26 23.11Q103.92 22.32 103.19 20.87Q102.46 19.42 102.46 17.35L102.46 17.35Q102.46 15.72 102.88 14.27Q103.30 12.82 104.04 11.62Q104.78 10.42 105.83 9.54Q106.87 8.66 108.12 8.17Q109.37 7.68 110.78 7.68L110.78 7.68Q112.15 7.68 113.22 8.34Q114.29 9 114.94 10.18L114.94 10.18L112.70 11.90Q112.27 11.21 111.77 10.87Q111.26 10.54 110.62 10.54L110.62 10.54Q109.82 10.54 109.10 10.88Q108.38 11.23 107.78 11.84Q107.18 12.46 106.75 13.30Q106.32 14.14 106.08 15.11Q105.84 16.08 105.84 17.14L105.84 17.14Q105.84 18.34 106.16 19.22Q106.49 20.11 107.22 20.59Q107.95 21.07 109.10 21.07L109.10 21.07Q109.80 21.07 110.48 20.72Q111.17 20.38 111.74 19.87L111.74 19.87L113.14 21.98Q112.66 22.42 111.96 22.86Q111.26 23.30 110.36 23.60Q109.46 23.90 108.41 23.90ZM121.30 23.90L121.30 23.90Q119.66 23.90 118.49 23.24Q117.31 22.58 116.68 21.40Q116.04 20.21 116.04 18.60L116.04 18.60Q116.04 16.99 116.60 15.67Q117.17 14.35 118.14 13.40Q119.11 12.46 120.36 11.94Q121.61 11.42 122.95 11.42L122.95 11.42Q124.58 11.42 125.76 12.08Q126.94 12.74 127.58 13.93Q128.23 15.12 128.23 16.73L128.23 16.73Q128.23 18.31 127.67 19.64Q127.10 20.98 126.12 21.92Q125.14 22.87 123.89 23.39Q122.64 23.90 121.30 23.90ZM121.54 21.22L121.54 21.22Q122.21 21.22 122.81 20.89Q123.41 20.57 123.88 19.99Q124.34 19.42 124.62 18.60Q124.90 17.78 124.90 16.82L124.90 16.82Q124.90 15.53 124.31 14.82Q123.72 14.11 122.71 14.11L122.71 14.11Q122.06 14.11 121.45 14.44Q120.84 14.76 120.37 15.34Q119.90 15.91 119.63 16.72Q119.35 17.52 119.35 18.50L119.35 18.50Q119.35 19.80 119.95 20.51Q120.55 21.22 121.54 21.22ZM134.30 23.90L134.30 23.90Q132.55 23.90 131.50 22.72Q130.44 21.53 130.44 19.30L130.44 19.30Q130.44 17.66 130.96 16.24Q131.47 14.81 132.36 13.73Q133.25 12.65 134.40 12.04Q135.55 11.42 136.82 11.42L136.82 11.42Q138.00 11.42 138.77 11.81Q139.54 12.19 139.99 12.86L139.99 12.86L140.04 12.86L140.33 10.61L141.07 6.79L144.34 6.79L140.95 23.62L138.29 23.62L138.34 21.98L138.24 21.98Q137.40 22.87 136.37 23.39Q135.34 23.90 134.30 23.90ZM135.55 21.22L135.55 21.22Q136.22 21.22 137.03 20.77Q137.83 20.33 138.53 19.39L138.53 19.39L139.39 15.24Q139.06 14.64 138.49 14.38Q137.93 14.11 137.40 14.11L137.40 14.11Q136.70 14.11 136.06 14.47Q135.41 14.83 134.90 15.48Q134.40 16.13 134.11 16.99Q133.82 17.86 133.82 18.89L133.82 18.89Q133.82 20.06 134.30 20.64Q134.78 21.22 135.55 21.22ZM150.41 23.90L150.41 23.90Q148.87 23.90 147.68 23.34Q146.50 22.78 145.80 21.60Q145.10 20.42 145.10 18.62L145.10 18.62Q145.10 16.99 145.67 15.68Q146.23 14.38 147.19 13.42Q148.15 12.46 149.40 11.94Q150.65 11.42 152.02 11.42L152.02 11.42Q154.32 11.42 155.59 12.72Q156.86 14.02 156.86 16.10L156.86 16.10Q156.86 16.85 156.72 17.57Q156.58 18.29 156.46 18.58L156.46 18.58L147.58 18.58L147.94 16.46L154.66 16.46L153.70 16.94Q153.77 16.75 153.80 16.50Q153.84 16.25 153.84 16.03L153.84 16.03Q153.84 15 153.32 14.47Q152.81 13.94 151.92 13.94L151.92 13.94Q151.37 13.94 150.74 14.23Q150.12 14.52 149.59 15.08Q149.06 15.65 148.73 16.50Q148.39 17.35 148.39 18.48L148.39 18.48Q148.39 19.56 148.76 20.20Q149.14 20.83 149.77 21.11Q150.41 21.38 151.18 21.38L151.18 21.38Q152.21 21.38 153.06 21.02Q153.91 20.66 154.73 20.14L154.73 20.14L155.83 22.32Q154.78 23.04 153.40 23.47Q152.02 23.90 150.41 23.90ZM176.78 23.62L173.50 23.62L176.62 7.97L181.49 7.97Q183.02 7.97 184.25 8.39Q185.47 8.81 186.19 9.72Q186.91 10.63 186.91 12.12L186.91 12.12Q186.91 13.75 186.34 14.92Q185.76 16.08 184.78 16.80Q183.79 17.52 182.48 17.86Q181.18 18.19 179.71 18.19L179.71 18.19L177.89 18.19L176.78 23.62ZM179.38 10.58L178.39 15.58L179.90 15.58Q181.68 15.58 182.64 14.82Q183.60 14.06 183.60 12.60L183.60 12.60Q183.60 11.54 182.90 11.06Q182.21 10.58 180.91 10.58L180.91 10.58L179.38 10.58ZM192.24 23.62L188.95 23.62L191.30 11.69L193.97 11.71L193.63 14.88L193.73 14.88Q194.35 13.82 195.16 13.04Q195.96 12.26 196.85 11.84Q197.74 11.42 198.65 11.42L198.65 11.42Q199.42 11.42 200.04 11.56Q200.66 11.69 201.00 11.93L201.00 11.93L199.82 14.76Q199.42 14.54 198.97 14.45Q198.53 14.35 198.00 14.35L198.00 14.35Q196.82 14.35 195.59 15.42Q194.35 16.49 193.30 18.36L193.30 18.36L192.24 23.62ZM207.70 23.90L207.70 23.90Q206.06 23.90 204.89 23.24Q203.71 22.58 203.08 21.40Q202.44 20.21 202.44 18.60L202.44 18.60Q202.44 16.99 203.00 15.67Q203.57 14.35 204.54 13.40Q205.51 12.46 206.76 11.94Q208.01 11.42 209.35 11.42L209.35 11.42Q210.98 11.42 212.16 12.08Q213.34 12.74 213.98 13.93Q214.63 15.12 214.63 16.73L214.63 16.73Q214.63 18.31 214.07 19.64Q213.50 20.98 212.52 21.92Q211.54 22.87 210.29 23.39Q209.04 23.90 207.70 23.90ZM207.94 21.22L207.94 21.22Q208.61 21.22 209.21 20.89Q209.81 20.57 210.28 19.99Q210.74 19.42 211.02 18.60Q211.30 17.78 211.30 16.82L211.30 16.82Q211.30 15.53 210.71 14.82Q210.12 14.11 209.11 14.11L209.11 14.11Q208.46 14.11 207.85 14.44Q207.24 14.76 206.77 15.34Q206.30 15.91 206.03 16.72Q205.75 17.52 205.75 18.50L205.75 18.50Q205.75 19.80 206.35 20.51Q206.95 21.22 207.94 21.22ZM236.88 23.62L233.47 23.62Q233.95 21.48 234.58 19.70Q235.20 17.93 236.03 16.39Q236.86 14.86 237.94 13.49Q239.02 12.12 240.43 10.82L240.43 10.82L240.89 11.14L232.80 11.14L233.33 8.38L244.51 8.38L244.10 10.44Q242.66 11.71 241.63 12.89Q240.60 14.06 239.88 15.22Q239.16 16.37 238.66 17.63Q238.15 18.89 237.73 20.35Q237.31 21.82 236.88 23.62L236.88 23.62ZM250.92 23.90L250.92 23.90Q249.38 23.90 248.22 23.16Q247.06 22.42 246.42 21.06Q245.78 19.70 245.78 17.86L245.78 17.86Q245.78 16.32 246.11 14.88Q246.43 13.44 247.06 12.20Q247.68 10.97 248.57 10.04Q249.46 9.12 250.61 8.60Q251.76 8.09 253.15 8.09L253.15 8.09Q254.71 8.09 255.86 8.83Q257.02 9.58 257.66 10.93Q258.31 12.29 258.31 14.14L258.31 14.14Q258.31 15.67 257.99 17.12Q257.66 18.58 257.04 19.80Q256.42 21.02 255.53 21.95Q254.64 22.87 253.49 23.39Q252.34 23.90 250.92 23.90ZM251.21 21.38L251.21 21.38Q251.98 21.38 252.60 21Q253.22 20.62 253.72 19.93Q254.21 19.25 254.56 18.36Q254.90 17.47 255.08 16.45Q255.26 15.43 255.26 14.35L255.26 14.35Q255.26 12.58 254.66 11.59Q254.06 10.61 252.86 10.61L252.86 10.61Q252.12 10.61 251.48 10.99Q250.85 11.38 250.37 12.06Q249.89 12.74 249.54 13.63Q249.19 14.52 249.01 15.54Q248.83 16.56 248.83 17.64L248.83 17.64Q248.83 19.42 249.43 20.40Q250.03 21.38 251.21 21.38ZM251.83 17.62L251.83 17.62Q251.21 17.62 250.87 17.22Q250.54 16.82 250.54 16.13L250.54 16.13Q250.54 15.26 251.04 14.62Q251.54 13.97 252.31 13.97L252.31 13.97Q252.94 13.97 253.27 14.36Q253.61 14.76 253.61 15.46L253.61 15.46Q253.61 16.32 253.12 16.97Q252.62 17.62 251.83 17.62ZM265.32 23.90L265.32 23.90Q263.78 23.90 262.62 23.16Q261.46 22.42 260.82 21.06Q260.18 19.70 260.18 17.86L260.18 17.86Q260.18 16.32 260.51 14.88Q260.83 13.44 261.46 12.20Q262.08 10.97 262.97 10.04Q263.86 9.12 265.01 8.60Q266.16 8.09 267.55 8.09L267.55 8.09Q269.11 8.09 270.26 8.83Q271.42 9.58 272.06 10.93Q272.71 12.29 272.71 14.14L272.71 14.14Q272.71 15.67 272.39 17.12Q272.06 18.58 271.44 19.80Q270.82 21.02 269.93 21.95Q269.04 22.87 267.89 23.39Q266.74 23.90 265.32 23.90ZM265.61 21.38L265.61 21.38Q266.38 21.38 267.00 21Q267.62 20.62 268.12 19.93Q268.61 19.25 268.96 18.36Q269.30 17.47 269.48 16.45Q269.66 15.43 269.66 14.35L269.66 14.35Q269.66 12.58 269.06 11.59Q268.46 10.61 267.26 10.61L267.26 10.61Q266.52 10.61 265.88 10.99Q265.25 11.38 264.77 12.06Q264.29 12.74 263.94 13.63Q263.59 14.52 263.41 15.54Q263.23 16.56 263.23 17.64L263.23 17.64Q263.23 19.42 263.83 20.40Q264.43 21.38 265.61 21.38ZM266.23 17.62L266.23 17.62Q265.61 17.62 265.27 17.22Q264.94 16.82 264.94 16.13L264.94 16.13Q264.94 15.26 265.44 14.62Q265.94 13.97 266.71 13.97L266.71 13.97Q267.34 13.97 267.67 14.36Q268.01 14.76 268.01 15.46L268.01 15.46Q268.01 16.32 267.52 16.97Q267.02 17.62 266.23 17.62ZM296.21 23.90L296.21 23.90Q294.50 23.90 293.46 22.99Q292.42 22.08 292.42 20.50L292.42 20.50Q292.42 20.16 292.49 19.80Q292.56 19.44 292.66 19.06L292.66 19.06L293.83 14.28L289.90 14.28L290.45 11.71L297.65 11.71L295.87 19.22Q295.85 19.37 295.81 19.52Q295.78 19.68 295.78 19.85L295.78 19.85Q295.78 20.59 296.18 20.90Q296.59 21.22 297.22 21.22L297.22 21.22Q297.67 21.22 298.10 21.10Q298.54 20.98 299.09 20.74L299.09 20.74L299.76 23.21Q298.99 23.52 298.15 23.71Q297.31 23.90 296.21 23.90ZM296.23 9.82L296.23 9.82Q295.44 9.82 294.80 9.35Q294.17 8.88 294.17 7.94L294.17 7.94Q294.17 7.34 294.49 6.82Q294.82 6.29 295.36 5.98Q295.90 5.66 296.57 5.66L296.57 5.66Q297.48 5.66 298.07 6.14Q298.66 6.62 298.66 7.54L298.66 7.54Q298.66 8.50 297.95 9.16Q297.24 9.82 296.23 9.82ZM309.82 23.90L309.82 23.90Q307.70 23.90 306.74 22.92Q305.78 21.94 305.78 20.30L305.78 20.30Q305.78 19.94 305.83 19.58Q305.88 19.22 305.98 18.74L305.98 18.74L306.89 14.28L303.77 14.28L304.25 11.86L307.54 11.71L308.71 8.21L311.40 8.21L310.66 11.71L315.74 11.71L315.24 14.28L310.13 14.28L309.22 18.62Q309.14 18.94 309.13 19.13Q309.12 19.32 309.12 19.54L309.12 19.54Q309.12 20.45 309.59 20.83Q310.06 21.22 310.82 21.22L310.82 21.22Q311.57 21.22 312.25 20.95Q312.94 20.69 313.46 20.38L313.46 20.38L314.47 22.66Q313.66 23.18 312.43 23.54Q311.21 23.90 309.82 23.90ZM321.53 23.90L321.53 23.90Q319.75 23.90 318.70 22.72Q317.64 21.53 317.64 19.30L317.64 19.30Q317.64 17.66 318.16 16.24Q318.67 14.81 319.56 13.73Q320.45 12.65 321.60 12.04Q322.75 11.42 324.02 11.42L324.02 11.42Q325.20 11.42 326.05 11.84Q326.90 12.26 327.31 12.98L327.31 12.98L327.41 12.98L327.91 11.71L330.55 11.71L328.15 23.62L325.49 23.62L325.54 21.98L325.44 21.98Q324.60 22.87 323.57 23.39Q322.54 23.90 321.53 23.90ZM322.75 21.22L322.75 21.22Q323.42 21.22 324.23 20.77Q325.03 20.33 325.73 19.39L325.73 19.39L326.59 15.24Q326.26 14.64 325.69 14.38Q325.13 14.11 324.60 14.11L324.60 14.11Q323.90 14.11 323.26 14.47Q322.61 14.83 322.10 15.48Q321.60 16.13 321.31 16.99Q321.02 17.86 321.02 18.89L321.02 18.89Q321.02 20.09 321.50 20.65Q321.98 21.22 322.75 21.22ZM339.02 23.90L339.02 23.90Q337.44 23.90 336.41 22.92Q335.38 21.94 335.38 20.16L335.38 20.16Q335.38 19.82 335.42 19.45Q335.47 19.08 335.57 18.67L335.57 18.67L337.66 9.36L334.25 9.36L334.80 6.82L341.42 6.82L338.74 19.06Q338.71 19.25 338.68 19.45Q338.64 19.66 338.64 19.94L338.64 19.94Q338.64 20.62 339.04 20.92Q339.43 21.22 340.03 21.22L340.03 21.22Q340.56 21.22 340.99 21.08Q341.42 20.95 342.00 20.69L342.00 20.69L342.70 23.14Q341.78 23.54 340.90 23.72Q340.01 23.90 339.02 23.90ZM353.81 23.90L353.81 23.90Q352.10 23.90 351.06 22.99Q350.02 22.08 350.02 20.50L350.02 20.50Q350.02 20.16 350.09 19.80Q350.16 19.44 350.26 19.06L350.26 19.06L351.43 14.28L347.50 14.28L348.05 11.71L355.25 11.71L353.47 19.22Q353.45 19.37 353.41 19.52Q353.38 19.68 353.38 19.85L353.38 19.85Q353.38 20.59 353.78 20.90Q354.19 21.22 354.82 21.22L354.82 21.22Q355.27 21.22 355.70 21.10Q356.14 20.98 356.69 20.74L356.69 20.74L357.36 23.21Q356.59 23.52 355.75 23.71Q354.91 23.90 353.81 23.90ZM353.83 9.82L353.83 9.82Q353.04 9.82 352.40 9.35Q351.77 8.88 351.77 7.94L351.77 7.94Q351.77 7.34 352.09 6.82Q352.42 6.29 352.96 5.98Q353.50 5.66 354.17 5.66L354.17 5.66Q355.08 5.66 355.67 6.14Q356.26 6.62 356.26 7.54L356.26 7.54Q356.26 8.50 355.55 9.16Q354.84 9.82 353.83 9.82ZM367.15 23.90L367.15 23.90Q365.59 23.90 364.30 23.33Q363.00 22.75 362.22 21.60Q361.44 20.45 361.44 18.70L361.44 18.70Q361.44 17.06 362.03 15.72Q362.62 14.38 363.64 13.43Q364.66 12.48 365.96 11.95Q367.27 11.42 368.71 11.42L368.71 11.42Q370.32 11.42 371.48 12.08Q372.65 12.74 373.30 13.58L373.30 13.58L371.30 15.41Q370.70 14.74 370.00 14.42Q369.29 14.11 368.47 14.11L368.47 14.11Q367.78 14.11 367.12 14.42Q366.46 14.74 365.93 15.32Q365.40 15.91 365.09 16.69Q364.78 17.47 364.78 18.38L364.78 18.38Q364.78 19.82 365.63 20.52Q366.48 21.22 367.63 21.22L367.63 21.22Q368.52 21.22 369.23 20.83Q369.94 20.45 370.63 19.87L370.63 19.87L371.78 22.10Q370.90 22.92 369.72 23.41Q368.54 23.90 367.15 23.90Z"/></svg>