<svg xmlns="http://www.w3.org/2000/svg" xmlns:xlink="http://www.w3.org/1999/xlink" width="300.9840000000001" height="34.488"><path fill="black" d="M7.27 27.62L1.03 27.62L1.03 26.88L3.55 26.57L4.13 26.57L7.27 26.88L7.27 27.62ZM4.34 27.62L3.34 27.62L3.34 10.66L4.20 10.66L4.34 20.38L4.34 27.62ZM15.26 11.09L12.07 10.80L12.07 10.06L18.31 10.06L18.31 10.80L15.79 11.09L15.26 11.09ZM15.96 27.77L14.74 27.77L3.96 11.98L3.91 11.93L3.26 10.97L1.01 10.80L1.01 10.06L5.57 10.06L15.53 24.77L15.10 24.91L15.05 17.76L15.05 10.06L15.96 10.06L15.96 27.77ZM26.45 27.98L26.45 27.98Q24.77 27.98 23.38 27.23Q21.98 26.47 21.16 24.98Q20.33 23.50 20.33 21.36L20.33 21.36Q20.33 19.20 21.19 17.72Q22.06 16.25 23.46 15.49Q24.86 14.74 26.45 14.74L26.45 14.74Q28.08 14.74 29.48 15.49Q30.89 16.25 31.75 17.72Q32.62 19.20 32.62 21.36L32.62 21.36Q32.62 23.50 31.76 24.98Q30.91 26.47 29.52 27.23Q28.13 27.98 26.45 27.98ZM26.45 27.22L26.45 27.22Q28.15 27.22 29.11 25.73Q30.07 24.24 30.07 21.38L30.07 21.38Q30.07 18.53 29.11 17.03Q28.15 15.53 26.45 15.53L26.45 15.53Q24.77 15.53 23.81 17.03Q22.85 18.53 22.85 21.38L22.85 21.38Q22.85 24.24 23.81 25.73Q24.77 27.22 26.45 27.22ZM42.05 16.01L37.54 16.01L37.54 15.10L42.05 15.10L42.05 16.01ZM39.43 27.98L39.43 27.98Q37.87 27.98 37.10 27.18Q36.34 26.38 36.34 24.70L36.34 24.70Q36.34 24.10 36.35 23.62Q36.36 23.14 36.36 22.46L36.36 22.46L36.36 16.01L34.06 16.01L34.06 15.26L36.86 15.05L36.41 15.38L37.25 11.33L38.78 11.33L38.71 15.48L38.71 15.74L38.71 24.77Q38.71 25.85 39.13 26.34Q39.55 26.83 40.32 26.83L40.32 26.83Q40.85 26.83 41.24 26.66Q41.64 26.50 42.12 26.18L42.12 26.18L42.48 26.62Q41.98 27.29 41.23 27.64Q40.49 27.98 39.43 27.98ZM49.94 27.98L49.94 27.98Q48.26 27.98 46.87 27.23Q45.48 26.47 44.65 24.98Q43.82 23.50 43.82 21.36L43.82 21.36Q43.82 19.20 44.69 17.72Q45.55 16.25 46.96 15.49Q48.36 14.74 49.94 14.74L49.94 14.74Q51.58 14.74 52.98 15.49Q54.38 16.25 55.25 17.72Q56.11 19.20 56.11 21.36L56.11 21.36Q56.11 23.50 55.26 24.98Q54.41 26.47 53.02 27.23Q51.62 27.98 49.94 27.98ZM49.94 27.22L49.94 27.22Q51.65 27.22 52.61 25.73Q53.57 24.24 53.57 21.38L53.57 21.38Q53.57 18.53 52.61 17.03Q51.65 15.53 49.94 15.53L49.94 15.53Q48.26 15.53 47.30 17.03Q46.34 18.53 46.34 21.38L46.34 21.38Q46.34 24.24 47.30 25.73Q48.26 27.22 49.94 27.22ZM69.77 28.03L69.77 28.03Q68.28 28.03 66.90 27.62Q65.52 27.22 64.61 26.64L64.61 26.64L64.75 22.94L65.81 22.94L66.70 27.07L65.50 26.50L65.33 25.70Q66.48 26.54 67.40 26.84Q68.33 27.14 69.58 27.14L69.58 27.14Q71.50 27.14 72.64 26.27Q73.78 25.39 73.78 23.74L73.78 23.74Q73.78 22.87 73.48 22.25Q73.18 21.62 72.46 21.10Q71.74 20.57 70.49 20.06L70.49 20.06L69.43 19.63Q67.25 18.70 66.12 17.46Q64.99 16.22 64.99 14.33L64.99 14.33Q64.99 12.77 65.75 11.74Q66.50 10.70 67.81 10.18Q69.12 9.65 70.75 9.65L70.75 9.65Q72.14 9.65 73.21 10.00Q74.28 10.34 75.19 10.97L75.19 10.97L75.07 14.47L73.97 14.47L73.10 10.54L74.35 11.11L74.47 11.93Q73.51 11.16 72.74 10.85Q71.98 10.54 70.94 10.54L70.94 10.54Q69.29 10.54 68.22 11.34Q67.15 12.14 67.15 13.66L67.15 13.66Q67.15 15.00 67.93 15.80Q68.71 16.61 70.10 17.21L70.10 17.21L71.23 17.66Q73.03 18.43 74.09 19.20Q75.14 19.97 75.59 20.89Q76.03 21.82 76.03 23.06L76.03 23.06Q76.03 24.58 75.26 25.69Q74.50 26.81 73.09 27.42Q71.69 28.03 69.77 28.03ZM84.53 27.98L84.53 27.98Q82.70 27.98 81.29 27.24Q79.87 26.50 79.07 25.02Q78.26 23.54 78.26 21.38L78.26 21.38Q78.26 19.32 79.10 17.83Q79.94 16.34 81.34 15.54Q82.73 14.74 84.34 14.74L84.34 14.74Q85.97 14.74 87.11 15.41Q88.25 16.08 88.84 17.22Q89.42 18.36 89.42 19.82L89.42 19.82Q89.42 20.69 89.28 21.26L89.28 21.26L79.32 21.26L79.32 20.50L86.04 20.50Q86.71 20.50 86.95 20.14Q87.19 19.78 87.19 18.98L87.19 18.98Q87.19 17.42 86.42 16.48Q85.66 15.53 84.26 15.53L84.26 15.53Q83.28 15.53 82.48 16.16Q81.67 16.80 81.19 18.04Q80.71 19.27 80.71 21.07L80.71 21.07Q80.71 23.02 81.30 24.28Q81.89 25.54 82.90 26.11Q83.90 26.69 85.22 26.69L85.22 26.69Q86.50 26.69 87.42 26.23Q88.34 25.78 89.04 24.94L89.04 24.94L89.45 25.25Q88.68 26.54 87.44 27.26Q86.21 27.98 84.53 27.98ZM98.04 27.62L91.42 27.62L91.42 26.95L94.03 26.66L95.35 26.66L98.04 26.95L98.04 27.62ZM95.78 27.62L93.31 27.62Q93.34 27.02 93.35 26.04Q93.36 25.06 93.37 23.98Q93.38 22.90 93.38 22.10L93.38 22.10L93.38 20.54Q93.38 19.30 93.37 18.38Q93.36 17.47 93.31 16.61L93.31 16.61L91.27 16.46L91.27 15.86L95.26 14.81L95.57 15.00L95.71 18.38L95.71 18.41L95.71 22.10Q95.71 22.90 95.72 23.98Q95.74 25.06 95.75 26.04Q95.76 27.02 95.78 27.62L95.78 27.62ZM95.71 19.97L95.71 19.97L95.11 18.65L95.59 18.65Q95.98 17.45 96.61 16.57Q97.25 15.70 98.05 15.22Q98.86 14.74 99.70 14.74L99.70 14.74Q100.42 14.74 100.96 15.04Q101.50 15.34 101.66 15.98L101.66 15.98Q101.66 16.63 101.34 17.04Q101.02 17.45 100.32 17.45L100.32 17.45Q99.84 17.45 99.46 17.18Q99.07 16.92 98.64 16.44L98.64 16.44L98.09 15.89L99.12 15.94Q97.94 16.34 97.12 17.29Q96.29 18.24 95.71 19.97ZM108.96 27.62L102.82 27.62L102.82 26.95L105.43 26.69L106.39 26.69L108.96 26.95L108.96 27.62ZM107.21 27.62L104.71 27.62Q104.74 27.02 104.76 26.04Q104.78 25.06 104.80 23.98Q104.81 22.90 104.81 22.10L104.81 22.10L104.81 20.57Q104.81 19.34 104.78 18.40Q104.76 17.45 104.71 16.56L104.71 16.56L102.65 16.44L102.65 15.84L106.90 14.81L107.21 15.00L107.14 18.46L107.14 22.10Q107.14 22.90 107.15 23.98Q107.16 25.06 107.17 26.04Q107.18 27.02 107.21 27.62L107.21 27.62ZM105.79 11.90L105.79 11.90Q105.17 11.90 104.72 11.50Q104.28 11.09 104.28 10.44L104.28 10.44Q104.28 9.79 104.72 9.38Q105.17 8.98 105.79 8.98L105.79 8.98Q106.42 8.98 106.87 9.38Q107.33 9.79 107.33 10.44L107.33 10.44Q107.33 11.09 106.87 11.50Q106.42 11.90 105.79 11.90ZM117.67 27.62L110.76 27.62L110.76 26.95L113.52 26.69L114.77 26.69L117.67 26.95L117.67 27.62ZM115.30 27.62L112.78 27.62Q112.82 26.26 112.85 24.86Q112.87 23.47 112.87 22.10L112.87 22.10L112.87 16.01L110.66 16.01L110.66 15.26L113.71 15.00L112.85 15.43L112.87 15.26Q112.99 12.96 113.53 11.59Q114.07 10.22 115.01 9.34L115.01 9.34Q115.82 8.59 116.71 8.27Q117.60 7.94 118.51 7.94L118.51 7.94Q119.42 7.94 120.14 8.28Q120.86 8.62 121.06 9.29L121.06 9.29Q121.03 9.77 120.70 10.09Q120.36 10.42 119.76 10.42L119.76 10.42Q119.26 10.42 118.81 10.13Q118.37 9.84 117.86 9.22L117.86 9.22L117.24 8.47L117.24 8.26L118.27 8.26L118.27 8.45Q117.60 8.52 117.04 8.89Q116.47 9.26 116.11 9.82L116.11 9.82Q115.73 10.44 115.50 11.21Q115.27 11.98 115.21 13.06Q115.15 14.14 115.20 15.67L115.20 15.67L115.20 22.10Q115.20 23.47 115.22 24.86Q115.25 26.26 115.30 27.62L115.30 27.62ZM118.78 16.01L114.05 16.01L114.05 15.10L118.78 15.10L118.78 16.01ZM131.54 27.62L129.02 27.62Q129.07 25.61 129.08 23.57Q129.10 21.53 129.10 19.49L129.10 19.49L129.10 18.22Q129.10 16.15 129.08 14.12Q129.07 12.10 129.02 10.06L129.02 10.06L131.54 10.06Q131.52 12.07 131.51 14.11Q131.50 16.15 131.50 18.22L131.50 18.22L131.50 20.59Q131.50 21.96 131.51 23.77Q131.52 25.58 131.54 27.62L131.54 27.62ZM133.87 27.62L126.65 27.62L126.65 26.88L130.06 26.57L130.61 26.57L133.87 26.88L133.87 27.62ZM130.06 11.09L126.65 10.80L126.65 10.06L133.99 10.06L133.99 10.80L130.61 11.09L130.06 11.09ZM143.23 27.62L136.49 27.62L136.49 26.88L139.70 26.57L140.16 26.57L143.23 26.88L143.23 27.62ZM139.39 11.14L136.46 10.80L136.46 10.06L142.49 10.06L142.49 10.80L139.94 11.09L139.39 11.14ZM141.02 10.06L130.25 22.94L130.18 21.55L130.46 21.55L130.94 20.95L139.85 10.06L141.02 10.06ZM141.79 27.62L139.10 27.62L133.85 18.07L135.43 16.22L141.79 27.62ZM151.87 27.62L144.46 27.62L144.46 26.88L147.86 26.57L148.44 26.57L151.87 26.88L151.87 27.62ZM149.45 27.62L146.83 27.62Q146.88 25.61 146.89 23.57Q146.90 21.53 146.90 19.49L146.90 19.49L146.90 18.22Q146.90 16.15 146.89 14.12Q146.88 12.10 146.83 10.06L146.83 10.06L149.45 10.06Q149.38 12.07 149.36 14.17Q149.35 16.27 149.35 18.74L149.35 18.74L149.35 19.27Q149.35 21.46 149.36 23.52Q149.38 25.58 149.45 27.62L149.45 27.62ZM158.11 27.89L158.11 27.89Q156.82 27.89 156.19 27.47Q155.57 27.05 155.38 26.09L155.38 26.09L154.27 22.15Q154.03 21.14 153.67 20.54Q153.31 19.94 152.71 19.67Q152.11 19.39 151.06 19.39L151.06 19.39L148.18 19.39L148.18 18.60L151.63 18.60Q152.98 18.60 153.90 18.07Q154.82 17.54 155.30 16.63Q155.78 15.72 155.78 14.59L155.78 14.59Q155.78 12.86 154.75 11.88Q153.72 10.90 151.58 10.90L151.58 10.90L148.15 10.90L148.15 10.06L152.04 10.06Q154.97 10.06 156.56 11.23Q158.16 12.41 158.16 14.57L158.16 14.57Q158.16 15.74 157.55 16.74Q156.94 17.74 155.68 18.38Q154.42 19.03 152.45 19.15L152.45 19.15L152.45 18.91Q153.94 19.01 154.78 19.39Q155.62 19.78 156.06 20.51Q156.50 21.24 156.79 22.37L156.79 22.37L158.18 27.24L157.01 26.66L160.32 26.88L160.32 27.62Q159.86 27.72 159.35 27.80Q158.83 27.89 158.11 27.89ZM147.86 11.09L144.46 10.80L144.46 10.06L148.15 10.06L148.15 11.09L147.86 11.09ZM172.78 27.98L172.78 27.98Q170.74 27.98 169.42 27.05Q168.10 26.11 167.81 24.41L167.81 24.41Q167.95 24.02 168.24 23.83Q168.53 23.64 168.91 23.64L168.91 23.64Q169.42 23.64 169.70 23.94Q169.99 24.24 170.14 24.96L170.14 24.96L170.74 27.24L169.92 26.57Q170.54 26.90 171.10 27.06Q171.65 27.22 172.44 27.22L172.44 27.22Q174.43 27.22 175.52 25.98Q176.62 24.74 176.62 22.46L176.62 22.46Q176.62 20.26 175.52 19.19Q174.43 18.12 172.63 18.12L172.63 18.12Q171.86 18.12 171.18 18.24Q170.50 18.36 169.87 18.65L169.87 18.65L169.22 18.36L169.80 10.06L178.61 10.06L178.61 12.00L170.21 12.00L170.69 10.68L170.18 18.19L169.39 17.95Q170.38 17.47 171.31 17.27Q172.25 17.06 173.28 17.06L173.28 17.06Q175.97 17.06 177.54 18.41Q179.11 19.75 179.11 22.34L179.11 22.34Q179.11 24.07 178.32 25.33Q177.53 26.59 176.11 27.29Q174.70 27.98 172.78 27.98ZM187.25 27.98L187.25 27.98Q185.76 27.98 184.46 27.05Q183.17 26.11 182.35 24.08Q181.54 22.06 181.54 18.82L181.54 18.82Q181.54 15.58 182.35 13.57Q183.17 11.57 184.46 10.63Q185.76 9.70 187.25 9.70L187.25 9.70Q188.74 9.70 190.03 10.63Q191.33 11.57 192.13 13.57Q192.94 15.58 192.94 18.82L192.94 18.82Q192.94 22.06 192.13 24.08Q191.33 26.11 190.03 27.05Q188.74 27.98 187.25 27.98ZM187.25 27.22L187.25 27.22Q187.87 27.22 188.48 26.81Q189.10 26.40 189.58 25.44Q190.06 24.48 190.34 22.85Q190.63 21.22 190.63 18.82L190.63 18.82Q190.63 16.42 190.34 14.81Q190.06 13.20 189.58 12.25Q189.10 11.30 188.48 10.90Q187.87 10.49 187.25 10.49L187.25 10.49Q186.58 10.49 185.98 10.90Q185.38 11.30 184.90 12.25Q184.42 13.20 184.14 14.81Q183.86 16.42 183.86 18.82L183.86 18.82Q183.86 21.22 184.14 22.85Q184.42 24.48 184.90 25.44Q185.38 26.40 185.98 26.81Q186.58 27.22 187.25 27.22ZM200.86 27.98L200.86 27.98Q199.37 27.98 198.07 27.05Q196.78 26.11 195.96 24.08Q195.14 22.06 195.14 18.82L195.14 18.82Q195.14 15.58 195.96 13.57Q196.78 11.57 198.07 10.63Q199.37 9.70 200.86 9.70L200.86 9.70Q202.34 9.70 203.64 10.63Q204.94 11.57 205.74 13.57Q206.54 15.58 206.54 18.82L206.54 18.82Q206.54 22.06 205.74 24.08Q204.94 26.11 203.64 27.05Q202.34 27.98 200.86 27.98ZM200.86 27.22L200.86 27.22Q201.48 27.22 202.09 26.81Q202.70 26.40 203.18 25.44Q203.66 24.48 203.95 22.85Q204.24 21.22 204.24 18.82L204.24 18.82Q204.24 16.42 203.95 14.81Q203.66 13.20 203.18 12.25Q202.70 11.30 202.09 10.90Q201.48 10.49 200.86 10.49L200.86 10.49Q200.18 10.49 199.58 10.90Q198.98 11.30 198.50 12.25Q198.02 13.20 197.75 14.81Q197.47 16.42 197.47 18.82L197.47 18.82Q197.47 21.22 197.75 22.85Q198.02 24.48 198.50 25.44Q198.98 26.40 199.58 26.81Q200.18 27.22 200.86 27.22ZM220.82 27.62L214.73 27.62L214.73 26.95L217.32 26.69L218.30 26.69L220.82 26.95L220.82 27.62ZM219.10 27.62L216.62 27.62Q216.65 27.02 216.66 26.04Q216.67 25.06 216.68 23.98Q216.70 22.90 216.70 22.10L216.70 22.10L216.70 20.54Q216.70 19.32 216.68 18.40Q216.67 17.47 216.62 16.61L216.62 16.61L214.58 16.46L214.58 15.86L218.57 14.81L218.88 15.00L219.02 17.78L219.02 17.81L219.02 22.10Q219.02 22.90 219.04 23.98Q219.05 25.06 219.06 26.04Q219.07 27.02 219.10 27.62L219.10 27.62ZM229.01 27.62L222.94 27.62L222.94 26.95L225.48 26.69L226.49 26.69L229.01 26.95L229.01 27.62ZM227.28 27.62L224.81 27.62Q224.83 27.02 224.84 26.05Q224.86 25.08 224.87 24.00Q224.88 22.92 224.88 22.10L224.88 22.10L224.88 19.18Q224.88 17.50 224.33 16.81Q223.78 16.13 222.77 16.13L222.77 16.13Q221.98 16.13 220.87 16.67Q219.77 17.21 218.52 18.60L218.52 18.60L218.35 17.74L218.62 17.74Q219.94 16.10 221.21 15.42Q222.48 14.74 223.75 14.74L223.75 14.74Q225.36 14.74 226.27 15.80Q227.18 16.87 227.18 19.27L227.18 19.27L227.18 22.10Q227.18 22.92 227.20 24.00Q227.21 25.08 227.23 26.05Q227.26 27.02 227.28 27.62L227.28 27.62ZM237.02 27.98L237.02 27.98Q235.34 27.98 233.95 27.23Q232.56 26.47 231.73 24.98Q230.90 23.50 230.90 21.36L230.90 21.36Q230.90 19.20 231.77 17.72Q232.63 16.25 234.04 15.49Q235.44 14.74 237.02 14.74L237.02 14.74Q238.66 14.74 240.06 15.49Q241.46 16.25 242.33 17.72Q243.19 19.20 243.19 21.36L243.19 21.36Q243.19 23.50 242.34 24.98Q241.49 26.47 240.10 27.23Q238.70 27.98 237.02 27.98ZM237.02 27.22L237.02 27.22Q238.73 27.22 239.69 25.73Q240.65 24.24 240.65 21.38L240.65 21.38Q240.65 18.53 239.69 17.03Q238.73 15.53 237.02 15.53L237.02 15.53Q235.34 15.53 234.38 17.03Q233.42 18.53 233.42 21.38L233.42 21.38Q233.42 24.24 234.38 25.73Q235.34 27.22 237.02 27.22ZM251.88 27.62L245.26 27.62L245.26 26.95L247.87 26.66L249.19 26.66L251.88 26.95L251.88 27.62ZM249.62 27.62L247.15 27.62Q247.18 27.02 247.19 26.04Q247.20 25.06 247.21 23.98Q247.22 22.90 247.22 22.10L247.22 22.10L247.22 20.54Q247.22 19.30 247.21 18.38Q247.20 17.47 247.15 16.61L247.15 16.61L245.11 16.46L245.11 15.86L249.10 14.81L249.41 15.00L249.55 18.38L249.55 18.41L249.55 22.10Q249.55 22.90 249.56 23.98Q249.58 25.06 249.59 26.04Q249.60 27.02 249.62 27.62L249.62 27.62ZM249.55 19.97L249.55 19.97L248.95 18.65L249.43 18.65Q249.82 17.45 250.45 16.57Q251.09 15.70 251.89 15.22Q252.70 14.74 253.54 14.74L253.54 14.74Q254.26 14.74 254.80 15.04Q255.34 15.34 255.50 15.98L255.50 15.98Q255.50 16.63 255.18 17.04Q254.86 17.45 254.16 17.45L254.16 17.45Q253.68 17.45 253.30 17.18Q252.91 16.92 252.48 16.44L252.48 16.44L251.93 15.89L252.96 15.94Q251.78 16.34 250.96 17.29Q250.13 18.24 249.55 19.97ZM262.70 27.62L256.61 27.62L256.61 26.95L259.20 26.69L260.18 26.69L262.70 26.95L262.70 27.62ZM260.98 27.62L258.50 27.62Q258.53 27.02 258.54 26.04Q258.55 25.06 258.56 23.98Q258.58 22.90 258.58 22.10L258.58 22.10L258.58 20.52Q258.58 19.30 258.56 18.38Q258.55 17.47 258.50 16.58L258.50 16.58L256.46 16.46L256.46 15.86L260.45 14.81L260.76 15.00L260.90 17.71L260.90 17.78L260.90 22.10Q260.90 22.90 260.92 23.98Q260.93 25.06 260.94 26.04Q260.95 27.02 260.98 27.62L260.98 27.62ZM270.60 27.62L264.58 27.62L264.58 26.95L267.10 26.69L268.13 26.69L270.60 26.95L270.60 27.62ZM268.87 27.62L266.45 27.62Q266.47 27.02 266.48 26.05Q266.50 25.08 266.51 24.00Q266.52 22.92 266.52 22.10L266.52 22.10L266.52 19.27Q266.52 17.54 265.98 16.84Q265.44 16.13 264.50 16.13L264.50 16.13Q263.62 16.13 262.58 16.73Q261.55 17.33 260.40 18.67L260.40 18.67L260.21 17.74L260.52 17.74Q261.65 16.27 262.86 15.50Q264.07 14.74 265.42 14.74L265.42 14.74Q267.02 14.74 267.91 15.80Q268.80 16.87 268.80 19.27L268.80 19.27L268.80 22.10Q268.80 22.92 268.81 24.00Q268.82 25.08 268.84 26.05Q268.85 27.02 268.87 27.62L268.87 27.62ZM278.50 27.62L272.47 27.62L272.47 26.95L274.97 26.69L276.00 26.69L278.50 26.95L278.50 27.62ZM276.77 27.62L274.32 27.62Q274.34 27.02 274.36 26.05Q274.37 25.08 274.38 24.00Q274.39 22.92 274.39 22.10L274.39 22.10L274.39 19.27Q274.39 17.50 273.85 16.81Q273.31 16.13 272.30 16.13L272.30 16.13Q271.42 16.13 270.42 16.67Q269.42 17.21 268.27 18.55L268.27 18.55L268.03 17.57L268.37 17.57Q269.50 16.10 270.70 15.42Q271.90 14.74 273.19 14.74L273.19 14.74Q274.92 14.74 275.81 15.80Q276.70 16.87 276.70 19.30L276.70 19.30L276.70 22.10Q276.70 22.92 276.71 24.00Q276.72 25.08 276.73 26.05Q276.74 27.02 276.77 27.62L276.77 27.62ZM283.80 27.98L283.80 27.98Q282.36 27.98 281.40 27.17Q280.44 26.35 280.44 24.84L280.44 24.84Q280.44 23.88 280.86 23.14Q281.28 22.39 282.26 21.80Q283.25 21.22 284.90 20.74L284.90 20.74Q285.89 20.45 287.02 20.16Q288.14 19.87 289.10 19.63L289.10 19.63L289.10 20.23Q288.14 20.47 287.17 20.75Q286.20 21.02 285.43 21.31L285.43 21.31Q283.97 21.86 283.33 22.64Q282.70 23.42 282.70 24.50L282.70 24.50Q282.70 25.61 283.28 26.16Q283.87 26.71 284.83 26.71L284.83 26.71Q285.34 26.71 285.84 26.52Q286.34 26.33 286.99 25.81Q287.64 25.30 288.53 24.38L288.53 24.38L288.77 25.56L288.12 25.56Q287.40 26.35 286.75 26.89Q286.10 27.43 285.41 27.71Q284.71 27.98 283.80 27.98ZM290.28 27.96L290.28 27.96Q289.18 27.96 288.61 27.24Q288.05 26.52 287.95 25.27L287.95 25.27L287.95 25.20L287.95 18.86Q287.95 17.52 287.66 16.80Q287.38 16.08 286.79 15.79Q286.20 15.50 285.26 15.50L285.26 15.50Q284.59 15.50 283.91 15.68Q283.22 15.86 282.41 16.30L282.41 16.30L283.58 15.65L283.22 17.54Q283.15 18.29 282.80 18.60Q282.46 18.91 281.98 18.91L281.98 18.91Q281.02 18.91 280.80 17.98L280.80 17.98Q281.11 16.46 282.44 15.60Q283.78 14.74 285.96 14.74L285.96 14.74Q288.14 14.74 289.18 15.77Q290.21 16.80 290.21 19.10L290.21 19.10L290.21 25.13Q290.21 26.16 290.46 26.54Q290.71 26.93 291.17 26.93L291.17 26.93Q291.46 26.93 291.70 26.78Q291.94 26.64 292.25 26.28L292.25 26.28L292.63 26.62Q292.25 27.31 291.66 27.64Q291.07 27.96 290.28 27.96ZM300.22 27.62L293.64 27.62L293.64 26.95L296.42 26.69L297.38 26.69L300.22 26.95L300.22 27.62ZM298.20 27.62L295.70 27.62Q295.73 26.83 295.74 25.88Q295.75 24.94 295.76 23.95Q295.78 22.97 295.78 22.10L295.78 22.10L295.78 9.74L293.74 9.62L293.74 8.98L297.84 8.21L298.20 8.42L298.13 12.17L298.13 22.10Q298.13 22.97 298.14 23.95Q298.15 24.94 298.16 25.88Q298.18 26.83 298.20 27.62L298.20 27.62Z"/></svg>