<svg xmlns="http://www.w3.org/2000/svg" xmlns:xlink="http://www.w3.org/1999/xlink" width="310.128" height="34.488"><path fill="black" d="M7.39 27.62L0.91 27.62L0.91 26.83L3.46 26.50L4.10 26.50L7.39 26.83L7.39 27.62ZM4.39 27.62L3.24 27.62L3.24 10.51L4.15 10.51L4.39 21.36L4.39 27.62ZM15.55 10.97L12.22 10.63L12.22 9.84L18.72 9.84L18.72 10.63L16.20 10.97L15.55 10.97ZM16.34 27.72L14.62 27.72L3.89 12.12L3.82 12.05L3 10.82L1.01 10.63L1.01 9.84L6.34 9.84L15.89 23.78L15.43 23.95L15.36 16.82L15.36 9.84L16.34 9.84L16.34 27.72ZM27.02 28.01L27.02 28.01Q25.13 28.01 23.65 27.18Q22.18 26.35 21.35 24.82Q20.52 23.28 20.52 21.14L20.52 21.14Q20.52 19.01 21.41 17.50Q22.30 15.98 23.78 15.18Q25.27 14.38 27.02 14.38L27.02 14.38Q28.80 14.38 30.29 15.17Q31.78 15.96 32.66 17.47Q33.55 18.98 33.55 21.14L33.55 21.14Q33.55 23.28 32.71 24.83Q31.87 26.38 30.40 27.19Q28.92 28.01 27.02 28.01ZM27.02 27.22L27.02 27.22Q28.49 27.22 29.29 25.70Q30.10 24.19 30.10 21.19L30.10 21.19Q30.10 18.17 29.29 16.68Q28.49 15.19 27.02 15.19L27.02 15.19Q25.58 15.19 24.77 16.68Q23.95 18.17 23.95 21.19L23.95 21.19Q23.95 24.19 24.77 25.70Q25.58 27.22 27.02 27.22ZM43.30 15.72L38.57 15.72L38.57 14.76L43.30 14.76L43.30 15.72ZM40.39 28.01L40.39 28.01Q38.69 28.01 37.80 27.16Q36.91 26.30 36.91 24.46L36.91 24.46Q36.91 23.78 36.92 23.24Q36.94 22.70 36.94 21.98L36.94 21.98L36.94 15.72L34.85 15.72L34.85 14.95L37.49 14.71L37.03 15.02L38.14 10.92L40.22 10.92L40.18 15.17L40.18 15.41L40.18 24.65Q40.18 25.66 40.60 26.12Q41.02 26.59 41.76 26.59L41.76 26.59Q42.24 26.59 42.62 26.41Q43.01 26.23 43.49 25.87L43.49 25.87L43.85 26.28Q43.34 27.12 42.49 27.56Q41.64 28.01 40.39 28.01ZM51.41 28.01L51.41 28.01Q49.51 28.01 48.04 27.18Q46.56 26.35 45.73 24.82Q44.90 23.28 44.90 21.14L44.90 21.14Q44.90 19.01 45.79 17.50Q46.68 15.98 48.17 15.18Q49.66 14.38 51.41 14.38L51.41 14.38Q53.18 14.38 54.67 15.17Q56.16 15.96 57.05 17.47Q57.94 18.98 57.94 21.14L57.94 21.14Q57.94 23.28 57.10 24.83Q56.26 26.38 54.78 27.19Q53.30 28.01 51.41 28.01ZM51.41 27.22L51.41 27.22Q52.87 27.22 53.68 25.70Q54.48 24.19 54.48 21.19L54.48 21.19Q54.48 18.17 53.68 16.68Q52.87 15.19 51.41 15.19L51.41 15.19Q49.97 15.19 49.15 16.68Q48.34 18.17 48.34 21.19L48.34 21.19Q48.34 24.19 49.15 25.70Q49.97 27.22 51.41 27.22ZM71.54 28.08L71.54 28.08Q70.08 28.08 68.62 27.70Q67.15 27.31 66.14 26.64L66.14 26.64L66.29 22.70L67.56 22.70L68.76 27.24L67.30 26.62L67.03 25.70Q68.21 26.54 69.12 26.82Q70.03 27.10 71.23 27.10L71.23 27.10Q73.06 27.10 74.09 26.27Q75.12 25.44 75.12 23.93L75.12 23.93Q75.12 23.09 74.86 22.49Q74.59 21.89 73.96 21.41Q73.32 20.93 72.24 20.47L72.24 20.47L71.14 19.99Q68.83 18.96 67.62 17.66Q66.41 16.37 66.41 14.30L66.41 14.30Q66.41 12.72 67.21 11.63Q68.02 10.54 69.42 9.97Q70.82 9.41 72.62 9.41L72.62 9.41Q74.04 9.41 75.22 9.76Q76.39 10.10 77.33 10.75L77.33 10.75L77.16 14.50L75.89 14.50L74.71 10.18L76.30 10.85L76.49 11.81Q75.48 10.99 74.75 10.68Q74.02 10.37 73.01 10.37L73.01 10.37Q71.40 10.37 70.39 11.14Q69.38 11.90 69.38 13.32L69.38 13.32Q69.38 14.62 70.10 15.38Q70.82 16.15 72.14 16.73L72.14 16.73L73.34 17.26Q75.14 18.05 76.21 18.84Q77.28 19.63 77.75 20.59Q78.22 21.55 78.22 22.87L78.22 22.87Q78.22 24.43 77.42 25.60Q76.63 26.76 75.14 27.42Q73.66 28.08 71.54 28.08ZM86.81 28.01L86.81 28.01Q84.89 28.01 83.39 27.23Q81.89 26.45 81.04 24.91Q80.18 23.38 80.18 21.17L80.18 21.17Q80.18 19.01 81.10 17.48Q82.01 15.96 83.48 15.17Q84.96 14.38 86.64 14.38L86.64 14.38Q88.42 14.38 89.63 15.08Q90.84 15.79 91.45 16.99Q92.06 18.19 92.06 19.68L92.06 19.68Q92.06 20.52 91.92 21.14L91.92 21.14L81.58 21.14L81.58 20.30L87.70 20.30Q88.46 20.30 88.74 19.88Q89.02 19.46 89.02 18.50L89.02 18.50Q89.02 16.92 88.34 16.06Q87.67 15.19 86.52 15.19L86.52 15.19Q85.73 15.19 85.06 15.79Q84.38 16.39 83.99 17.64Q83.59 18.89 83.59 20.83L83.59 20.83Q83.59 22.80 84.14 24.06Q84.70 25.32 85.67 25.90Q86.64 26.47 87.89 26.47L87.89 26.47Q89.16 26.47 90.04 25.99Q90.91 25.51 91.56 24.67L91.56 24.67L91.99 24.98Q91.25 26.42 89.93 27.22Q88.61 28.01 86.81 28.01ZM101.11 27.62L93.79 27.62L93.79 26.90L96.38 26.64L98.47 26.64L101.11 26.90L101.11 27.62ZM98.90 27.62L95.50 27.62Q95.54 27.02 95.56 26.02Q95.57 25.01 95.58 23.92Q95.59 22.82 95.59 21.98L95.59 21.98L95.59 20.18Q95.59 18.96 95.57 18.17Q95.54 17.38 95.50 16.49L95.50 16.49L93.62 16.32L93.62 15.74L98.33 14.42L98.64 14.62L98.83 18.05L98.83 18.07L98.83 21.98Q98.83 22.82 98.84 23.92Q98.86 25.01 98.87 26.02Q98.88 27.02 98.90 27.62L98.90 27.62ZM98.81 19.94L98.81 19.94L98.02 18.48L98.66 18.48Q99.02 17.16 99.66 16.25Q100.30 15.34 101.10 14.86Q101.90 14.38 102.70 14.38L102.70 14.38Q103.49 14.38 104.10 14.74Q104.71 15.10 104.88 15.98L104.88 15.98Q104.86 16.75 104.47 17.24Q104.09 17.74 103.27 17.74L103.27 17.74Q102.67 17.74 102.24 17.40Q101.81 17.06 101.35 16.49L101.35 16.49L100.80 15.84L101.66 15.98Q100.66 16.51 99.97 17.44Q99.29 18.36 98.81 19.94ZM112.54 27.62L105.89 27.62L105.89 26.90L108.46 26.66L109.94 26.66L112.54 26.90L112.54 27.62ZM110.98 27.62L107.59 27.62Q107.62 27.02 107.63 26.02Q107.64 25.01 107.65 23.92Q107.66 22.82 107.66 21.98L107.66 21.98L107.66 20.23Q107.66 19.03 107.65 18.17Q107.64 17.30 107.59 16.44L107.59 16.44L105.70 16.27L105.70 15.70L110.66 14.42L110.98 14.62L110.88 18.31L110.88 21.98Q110.88 22.82 110.89 23.92Q110.90 25.01 110.93 26.02Q110.95 27.02 110.98 27.62L110.98 27.62ZM109.15 11.90L109.15 11.90Q108.41 11.90 107.87 11.41Q107.33 10.92 107.33 10.13L107.33 10.13Q107.33 9.38 107.87 8.89Q108.41 8.40 109.15 8.40L109.15 8.40Q109.90 8.40 110.44 8.89Q110.98 9.38 110.98 10.13L110.98 10.13Q110.98 10.92 110.44 11.41Q109.90 11.90 109.15 11.90ZM121.61 27.62L114.14 27.62L114.14 26.90L116.86 26.66L118.87 26.66L121.61 26.90L121.61 27.62ZM119.35 27.62L115.94 27.62Q115.99 26.23 116.00 24.80Q116.02 23.38 116.02 21.98L116.02 21.98L116.02 15.72L114 15.72L114 14.95L117.14 14.64L116.02 15.24L116.04 14.98Q116.21 12.70 116.81 11.38Q117.41 10.06 118.30 9.26L118.30 9.26Q119.21 8.42 120.20 8.06Q121.20 7.70 122.26 7.70L122.26 7.70Q123.26 7.70 124.08 8.08Q124.90 8.45 125.11 9.31L125.11 9.31Q125.09 9.91 124.69 10.32Q124.30 10.73 123.55 10.73L123.55 10.73Q122.93 10.73 122.42 10.38Q121.92 10.03 121.44 9.17L121.44 9.17L120.84 8.23L120.84 8.02L121.97 8.02L121.97 8.21Q121.37 8.30 120.88 8.62Q120.38 8.93 120.10 9.36L120.10 9.36Q119.71 10.01 119.50 10.84Q119.28 11.66 119.23 12.78Q119.18 13.90 119.26 15.36L119.26 15.36L119.26 21.98Q119.26 23.38 119.28 24.80Q119.30 26.23 119.35 27.62L119.35 27.62ZM122.54 15.72L117.67 15.72L117.67 14.76L122.54 14.76L122.54 15.72ZM135.72 27.62L132.31 27.62Q132.36 25.58 132.36 23.51Q132.36 21.43 132.36 19.32L132.36 19.32L132.36 18.17Q132.36 16.08 132.36 14.00Q132.36 11.93 132.31 9.84L132.31 9.84L135.72 9.84Q135.67 11.88 135.66 13.98Q135.65 16.08 135.65 18.17L135.65 18.17L135.65 20.09Q135.65 21.70 135.66 23.62Q135.67 25.54 135.72 27.62L135.72 27.62ZM137.76 27.62L130.06 27.62L130.06 26.83L133.73 26.50L134.38 26.50L137.76 26.83L137.76 27.62ZM133.73 10.97L130.06 10.63L130.06 9.84L137.95 9.84L137.95 10.63L134.38 10.97L133.73 10.97ZM147.36 27.62L140.09 27.62L140.09 26.83L143.52 26.50L144.05 26.50L147.36 26.83L147.36 27.62ZM143.18 10.99L140.35 10.63L140.35 9.84L146.52 9.84L146.52 10.63L143.86 10.97L143.18 10.99ZM144.98 9.84L133.92 23.06L133.87 21.50L134.30 21.50L134.86 20.78L143.74 9.84L144.98 9.84ZM146.16 27.62L142.46 27.62L137.52 18.26L139.66 15.74L146.16 27.62ZM156.50 27.62L148.46 27.62L148.46 26.83L152.14 26.50L152.83 26.50L156.50 26.83L156.50 27.62ZM154.22 27.62L150.72 27.62Q150.77 25.58 150.77 23.51Q150.77 21.43 150.77 19.32L150.77 19.32L150.77 18.17Q150.77 16.08 150.77 14.00Q150.77 11.93 150.72 9.84L150.72 9.84L154.22 9.84Q154.15 11.88 154.14 14.00Q154.13 16.13 154.13 18.53L154.13 18.53L154.13 19.18Q154.13 21.36 154.14 23.45Q154.15 25.54 154.22 27.62L154.22 27.62ZM162.60 27.94L162.60 27.94Q161.11 27.94 160.32 27.44Q159.53 26.95 159.34 25.68L159.34 25.68L158.47 22.10Q158.26 21.12 157.94 20.48Q157.63 19.85 157.07 19.55Q156.50 19.25 155.52 19.25L155.52 19.25L152.52 19.25L152.52 18.41L155.88 18.41Q157.22 18.41 158.09 17.87Q158.95 17.33 159.37 16.43Q159.79 15.53 159.79 14.42L159.79 14.42Q159.79 12.65 158.82 11.69Q157.85 10.73 155.88 10.73L155.88 10.73L152.50 10.73L152.50 9.84L156.67 9.84Q159.74 9.84 161.38 11.03Q163.01 12.22 163.01 14.35L163.01 14.35Q163.01 15.50 162.40 16.49Q161.78 17.47 160.40 18.13Q159.02 18.79 156.74 18.94L156.74 18.94L156.74 18.67Q158.66 18.74 159.71 19.19Q160.75 19.63 161.27 20.47Q161.78 21.31 162.05 22.58L162.05 22.58L163.13 27.34L161.47 26.59L165.19 26.83L165.19 27.62Q164.57 27.77 164.00 27.85Q163.44 27.94 162.60 27.94ZM152.14 10.97L148.46 10.63L148.46 9.84L152.50 9.84L152.50 10.97L152.14 10.97ZM177.67 27.62L174.98 27.62L174.77 27.41L183.02 11.45L182.69 12.82L182.69 12.38L172.80 12.38L172.80 9.84L183.94 9.84L183.94 11.45L177.67 27.62ZM192.65 28.01L192.65 28.01Q191.06 28.01 189.68 27.05Q188.30 26.09 187.44 24.02Q186.58 21.96 186.58 18.70L186.58 18.70Q186.58 15.46 187.44 13.42Q188.30 11.38 189.68 10.42Q191.06 9.46 192.65 9.46L192.65 9.46Q194.23 9.46 195.61 10.42Q196.99 11.38 197.84 13.42Q198.70 15.46 198.70 18.70L198.70 18.70Q198.70 21.96 197.84 24.02Q196.99 26.09 195.61 27.05Q194.23 28.01 192.65 28.01ZM192.65 27.22L192.65 27.22Q193.20 27.22 193.74 26.81Q194.28 26.40 194.70 25.43Q195.12 24.46 195.36 22.81Q195.60 21.17 195.60 18.70L195.60 18.70Q195.60 16.25 195.36 14.62Q195.12 12.98 194.70 12.04Q194.28 11.09 193.74 10.68Q193.20 10.27 192.65 10.27L192.65 10.27Q192.05 10.27 191.52 10.68Q190.99 11.09 190.57 12.04Q190.15 12.98 189.92 14.60Q189.70 16.22 189.70 18.70L189.70 18.70Q189.70 21.17 189.92 22.82Q190.15 24.48 190.57 25.44Q190.99 26.40 191.52 26.81Q192.05 27.22 192.65 27.22ZM206.88 28.01L206.88 28.01Q205.30 28.01 203.92 27.05Q202.54 26.09 201.67 24.02Q200.81 21.96 200.81 18.70L200.81 18.70Q200.81 15.46 201.67 13.42Q202.54 11.38 203.92 10.42Q205.30 9.46 206.88 9.46L206.88 9.46Q208.46 9.46 209.84 10.42Q211.22 11.38 212.08 13.42Q212.93 15.46 212.93 18.70L212.93 18.70Q212.93 21.96 212.08 24.02Q211.22 26.09 209.84 27.05Q208.46 28.01 206.88 28.01ZM206.88 27.22L206.88 27.22Q207.43 27.22 207.97 26.81Q208.51 26.40 208.93 25.43Q209.35 24.46 209.59 22.81Q209.83 21.17 209.83 18.70L209.83 18.70Q209.83 16.25 209.59 14.62Q209.35 12.98 208.93 12.04Q208.51 11.09 207.97 10.68Q207.43 10.27 206.88 10.27L206.88 10.27Q206.28 10.27 205.75 10.68Q205.22 11.09 204.80 12.04Q204.38 12.98 204.16 14.60Q203.93 16.22 203.93 18.70L203.93 18.70Q203.93 21.17 204.16 22.82Q204.38 24.48 204.80 25.44Q205.22 26.40 205.75 26.81Q206.28 27.22 206.88 27.22ZM227.45 27.62L220.85 27.62L220.85 26.90L223.39 26.66L224.90 26.66L227.45 26.90L227.45 27.62ZM225.94 27.62L222.53 27.62Q222.58 27.02 222.59 26.02Q222.60 25.01 222.61 23.92Q222.62 22.82 222.62 21.98L222.62 21.98L222.62 20.18Q222.62 18.98 222.60 18.18Q222.58 17.38 222.53 16.49L222.53 16.49L220.66 16.32L220.66 15.74L225.36 14.42L225.67 14.62L225.86 17.35L225.86 17.40L225.86 21.98Q225.86 22.82 225.88 23.92Q225.89 25.01 225.90 26.02Q225.91 27.02 225.94 27.62L225.94 27.62ZM235.73 27.62L229.13 27.62L229.13 26.90L231.62 26.66L233.14 26.66L235.73 26.90L235.73 27.62ZM234.17 27.62L230.78 27.62Q230.81 27.02 230.82 26.03Q230.83 25.03 230.84 23.94Q230.86 22.85 230.86 21.98L230.86 21.98L230.86 18.74Q230.86 17.23 230.39 16.62Q229.92 16.01 229.01 16.01L229.01 16.01Q228.29 16.01 227.23 16.57Q226.18 17.14 225.07 18.43L225.07 18.43L224.98 17.40L225.34 17.40Q226.68 15.70 227.89 15.04Q229.10 14.38 230.40 14.38L230.40 14.38Q232.08 14.38 233.08 15.48Q234.07 16.58 234.07 18.96L234.07 18.96L234.07 21.98Q234.07 22.85 234.08 23.94Q234.10 25.03 234.12 26.03Q234.14 27.02 234.17 27.62L234.17 27.62ZM243.89 28.01L243.89 28.01Q241.99 28.01 240.52 27.18Q239.04 26.35 238.21 24.82Q237.38 23.28 237.38 21.14L237.38 21.14Q237.38 19.01 238.27 17.50Q239.16 15.98 240.65 15.18Q242.14 14.38 243.89 14.38L243.89 14.38Q245.66 14.38 247.15 15.17Q248.64 15.96 249.53 17.47Q250.42 18.98 250.42 21.14L250.42 21.14Q250.42 23.28 249.58 24.83Q248.74 26.38 247.26 27.19Q245.78 28.01 243.89 28.01ZM243.89 27.22L243.89 27.22Q245.35 27.22 246.16 25.70Q246.96 24.19 246.96 21.19L246.96 21.19Q246.96 18.17 246.16 16.68Q245.35 15.19 243.89 15.19L243.89 15.19Q242.45 15.19 241.63 16.68Q240.82 18.17 240.82 21.19L240.82 21.19Q240.82 24.19 241.63 25.70Q242.45 27.22 243.89 27.22ZM259.54 27.62L252.22 27.62L252.22 26.90L254.81 26.64L256.90 26.64L259.54 26.90L259.54 27.62ZM257.33 27.62L253.92 27.62Q253.97 27.02 253.98 26.02Q253.99 25.01 254.00 23.92Q254.02 22.82 254.02 21.98L254.02 21.98L254.02 20.18Q254.02 18.96 253.99 18.17Q253.97 17.38 253.92 16.49L253.92 16.49L252.05 16.32L252.05 15.74L256.75 14.42L257.06 14.62L257.26 18.05L257.26 18.07L257.26 21.98Q257.26 22.82 257.27 23.92Q257.28 25.01 257.29 26.02Q257.30 27.02 257.33 27.62L257.33 27.62ZM257.23 19.94L257.23 19.94L256.44 18.48L257.09 18.48Q257.45 17.16 258.08 16.25Q258.72 15.34 259.52 14.86Q260.33 14.38 261.12 14.38L261.12 14.38Q261.91 14.38 262.52 14.74Q263.14 15.10 263.30 15.98L263.30 15.98Q263.28 16.75 262.90 17.24Q262.51 17.74 261.70 17.74L261.70 17.74Q261.10 17.74 260.66 17.40Q260.23 17.06 259.78 16.49L259.78 16.49L259.22 15.84L260.09 15.98Q259.08 16.51 258.40 17.44Q257.71 18.36 257.23 19.94ZM270.84 27.62L264.24 27.62L264.24 26.90L266.78 26.66L268.30 26.66L270.84 26.90L270.84 27.62ZM269.33 27.62L265.92 27.62Q265.97 27.02 265.98 26.02Q265.99 25.01 266.00 23.92Q266.02 22.82 266.02 21.98L266.02 21.98L266.02 20.16Q266.02 18.96 266.00 18.17Q265.99 17.38 265.92 16.49L265.92 16.49L264.05 16.32L264.05 15.74L268.75 14.42L269.06 14.62L269.26 17.28L269.26 17.35L269.26 21.98Q269.26 22.82 269.27 23.92Q269.28 25.01 269.29 26.02Q269.30 27.02 269.33 27.62L269.33 27.62ZM278.86 27.62L272.35 27.62L272.35 26.90L274.82 26.66L276.36 26.66L278.86 26.90L278.86 27.62ZM277.34 27.62L274.01 27.62Q274.06 27.02 274.07 26.03Q274.08 25.03 274.09 23.94Q274.10 22.85 274.10 21.98L274.10 21.98L274.10 18.94Q274.10 17.33 273.65 16.68Q273.19 16.03 272.28 16.03L272.28 16.03Q271.39 16.03 270.42 16.69Q269.45 17.35 268.49 18.53L268.49 18.53L268.37 17.40L268.75 17.40Q269.81 15.96 271.00 15.17Q272.18 14.38 273.62 14.38L273.62 14.38Q275.38 14.38 276.31 15.48Q277.25 16.58 277.25 18.96L277.25 18.96L277.25 21.98Q277.25 22.85 277.26 23.94Q277.27 25.03 277.30 26.03Q277.32 27.02 277.34 27.62L277.34 27.62ZM286.87 27.62L280.42 27.62L280.42 26.90L282.77 26.66L284.35 26.66L286.87 26.90L286.87 27.62ZM285.34 27.62L282 27.62Q282.02 27.02 282.04 26.03Q282.05 25.03 282.06 23.94Q282.07 22.85 282.07 21.98L282.07 21.98L282.07 18.94Q282.07 17.26 281.60 16.64Q281.14 16.03 280.22 16.03L280.22 16.03Q279.34 16.03 278.41 16.62Q277.49 17.21 276.46 18.43L276.46 18.43L276.29 17.21L276.77 17.21Q277.85 15.72 279.01 15.05Q280.18 14.38 281.52 14.38L281.52 14.38Q283.42 14.38 284.34 15.50Q285.26 16.63 285.26 19.06L285.26 19.06L285.26 21.98Q285.26 22.85 285.28 23.94Q285.29 25.03 285.30 26.03Q285.31 27.02 285.34 27.62L285.34 27.62ZM292.06 28.01L292.06 28.01Q290.54 28.01 289.57 27.16Q288.60 26.30 288.60 24.79L288.60 24.79Q288.60 23.76 289.06 22.98Q289.51 22.20 290.58 21.59Q291.65 20.98 293.45 20.47L293.45 20.47Q294.41 20.21 295.60 19.90Q296.78 19.58 297.74 19.37L297.74 19.37L297.74 19.97Q296.78 20.21 295.82 20.48Q294.86 20.76 294.22 20.98L294.22 20.98Q292.92 21.50 292.27 22.33Q291.62 23.16 291.62 24.36L291.62 24.36Q291.62 25.46 292.15 26.00Q292.68 26.54 293.57 26.54L293.57 26.54Q293.95 26.54 294.40 26.36Q294.84 26.18 295.43 25.72Q296.02 25.25 296.81 24.38L296.81 24.38L297.19 25.66L296.35 25.66Q295.66 26.40 295.04 26.93Q294.43 27.46 293.72 27.73Q293.02 28.01 292.06 28.01ZM298.75 27.98L298.75 27.98Q297.53 27.98 296.88 27.28Q296.23 26.57 296.09 25.37L296.09 25.37L296.09 25.30L296.09 18.48Q296.09 17.18 295.85 16.48Q295.61 15.77 295.06 15.48Q294.50 15.19 293.57 15.19L293.57 15.19Q292.94 15.19 292.30 15.34Q291.65 15.48 290.78 15.84L290.78 15.84L292.27 15.24L292.03 17.09Q291.96 18.12 291.52 18.55Q291.07 18.98 290.45 18.98L290.45 18.98Q289.27 18.98 288.98 17.88L288.98 17.88Q289.22 16.25 290.68 15.31Q292.13 14.38 294.65 14.38L294.65 14.38Q297.05 14.38 298.14 15.48Q299.23 16.58 299.23 19.08L299.23 19.08L299.23 25.34Q299.23 26.18 299.45 26.50Q299.66 26.81 300.05 26.81L300.05 26.81Q300.31 26.81 300.55 26.64Q300.79 26.47 301.13 26.02L301.13 26.02L301.54 26.35Q301.10 27.22 300.43 27.60Q299.76 27.98 298.75 27.98ZM309.41 27.62L302.42 27.62L302.42 26.90L305.09 26.66L306.60 26.66L309.41 26.90L309.41 27.62ZM307.63 27.62L304.22 27.62Q304.25 26.78 304.26 25.82Q304.27 24.86 304.28 23.87Q304.30 22.87 304.30 21.98L304.30 21.98L304.30 9.67L302.42 9.55L302.42 8.90L307.27 7.97L307.63 8.18L307.54 12.00L307.54 21.98Q307.54 22.87 307.55 23.87Q307.56 24.86 307.58 25.82Q307.61 26.78 307.63 27.62L307.63 27.62Z"/></svg>