<svg xmlns="http://www.w3.org/2000/svg" xmlns:xlink="http://www.w3.org/1999/xlink" width="238.632" height="34.752"><path fill="black" d="M6.84 10.78L6.84 10.78Q7.61 10.82 8.51 11.10Q9.41 11.38 10.30 11.93L10.30 11.93Q11.11 12.43 11.64 13.20Q12.17 13.97 12.48 14.81L12.48 14.81Q12.65 15.22 12.54 15.68Q12.43 16.15 11.98 16.39L11.98 16.39Q11.57 16.63 11.15 16.51Q10.73 16.39 10.46 15.91L10.46 15.91Q10.01 15.05 9.53 14.44Q9.05 13.82 8.30 13.51Q7.56 13.20 6.31 13.30L6.31 13.30Q5.76 13.32 5.20 13.67Q4.63 14.02 4.22 14.52Q3.82 15.02 3.72 15.60L3.72 15.60Q3.67 15.82 3.73 16.07Q3.79 16.32 3.89 16.56L3.89 16.56Q4.30 17.45 5.03 18.06Q5.76 18.67 6.65 19.13L6.65 19.13Q7.37 19.49 8.10 19.81Q8.83 20.14 9.55 20.50L9.55 20.50Q11.04 21.29 11.94 22.48Q12.84 23.66 12.91 25.44L12.91 25.44Q12.96 26.54 12.38 27.54Q11.81 28.54 10.86 29.21Q9.91 29.88 8.78 29.98L8.78 29.98Q7.10 30.14 5.64 29.99Q4.18 29.83 2.88 28.97L2.88 28.97Q2.64 28.82 2.17 28.39Q1.70 27.96 1.26 27.36Q0.82 26.76 0.64 26.08Q0.46 25.39 0.77 24.74L0.77 24.74Q1.08 24.17 1.56 24.04Q2.04 23.90 2.45 24.38L2.45 24.38Q2.78 24.77 3.20 25.27Q3.62 25.78 3.98 26.11L3.98 26.11Q4.97 27.07 6.17 27.30Q7.37 27.53 8.64 27.43L8.64 27.43Q9.19 27.38 9.55 26.99Q9.91 26.59 9.98 26.06L9.98 26.06Q10.18 25.08 9.76 24.31Q9.34 23.54 8.45 23.06L8.45 23.06Q7.25 22.37 6.04 21.68Q4.82 21 3.67 20.23L3.67 20.23Q2.52 19.46 1.90 18.20Q1.27 16.94 1.10 15.60L1.10 15.60Q0.98 14.42 1.46 13.55Q1.94 12.67 2.78 12L2.78 12Q3.53 11.40 4.48 11.05Q5.42 10.70 6.84 10.78ZM7.37 29.57L7.37 29.57L7.73 29.57Q9.14 29.47 10.26 28.99Q11.38 28.51 12.02 27.17L12.02 27.17Q12.38 26.42 12.37 25.50Q12.36 24.58 11.99 23.68Q11.62 22.78 10.87 22.10L10.87 22.10Q9.65 20.98 8.04 20.38L8.04 20.38Q6.79 19.90 5.70 19.16Q4.61 18.43 3.74 17.40L3.74 17.40Q3.12 16.61 3.13 15.76Q3.14 14.90 3.67 14.18Q4.20 13.46 5.06 13.10L5.06 13.10Q6.22 12.62 7.10 12.67Q7.99 12.72 8.63 13.07Q9.26 13.42 9.68 13.87Q10.10 14.33 10.30 14.64L10.30 14.64Q10.49 14.93 10.66 15.22Q10.82 15.50 11.04 15.77L11.04 15.77Q11.11 15.86 11.29 15.91Q11.47 15.96 11.57 15.94L11.57 15.94Q11.69 15.86 11.81 15.71Q11.93 15.55 11.93 15.41L11.93 15.41Q11.95 15.24 11.88 15.06Q11.81 14.88 11.76 14.71L11.76 14.71Q11.47 13.58 10.55 12.84Q9.62 12.10 8.39 11.74Q7.15 11.38 5.92 11.45Q4.68 11.52 3.74 12.07L3.74 12.07Q2.98 12.53 2.44 13.30Q1.90 14.06 1.72 14.98Q1.54 15.89 1.85 16.82L1.85 16.82Q2.28 18.14 3.20 19.00Q4.13 19.85 5.23 20.54L5.23 20.54Q6.14 21.12 7.12 21.61Q8.09 22.10 9.05 22.63L9.05 22.63Q10.03 23.16 10.43 24.01Q10.82 24.86 10.78 25.94L10.78 25.94Q10.73 26.69 10.20 27.32Q9.67 27.96 8.93 28.03L8.93 28.03Q7.22 28.18 5.71 27.74Q4.20 27.31 3.07 25.85L3.07 25.85Q2.74 25.37 2.30 25.01L2.30 25.01Q2.21 24.89 1.99 24.78Q1.78 24.67 1.61 24.72L1.61 24.72Q1.51 24.79 1.37 24.98Q1.22 25.18 1.22 25.54L1.22 25.54Q1.22 25.92 1.36 26.24Q1.49 26.57 1.68 26.90L1.68 26.90Q2.33 27.91 3.25 28.45Q4.18 28.99 5.24 29.23Q6.31 29.47 7.37 29.57ZM17.76 18.84L17.76 18.84Q17.76 19.01 17.90 19.07Q18.05 19.13 18.19 19.03L18.19 19.03Q19.08 18.26 20.12 18.05Q21.17 17.83 22.25 17.83L22.25 17.83Q23.11 17.81 23.96 18.35Q24.82 18.89 25.38 19.72Q25.94 20.54 25.94 21.41L25.94 21.41Q25.97 22.54 25.96 23.59Q25.94 24.65 25.87 25.86Q25.80 27.07 25.68 28.68L25.68 28.68Q25.66 29.42 25.14 29.93Q24.62 30.43 24.14 30.34L24.14 30.34Q23.71 30.24 23.42 29.63Q23.14 29.02 23.21 28.30L23.21 28.30Q23.33 26.93 23.46 25.52Q23.59 24.12 23.64 22.70L23.64 22.70Q23.69 21.91 23.32 21.36Q22.94 20.81 22.31 20.57Q21.67 20.33 20.90 20.47L20.90 20.47Q19.73 20.66 18.86 21.44Q18 22.22 17.57 23.36Q17.14 24.50 17.26 25.82L17.26 25.82Q17.33 26.57 17.35 27.32Q17.38 28.08 17.33 28.85L17.33 28.85Q17.30 29.64 16.99 29.96Q16.68 30.29 16.10 30.26L16.10 30.26Q15.43 30.24 14.84 29.83Q14.26 29.42 14.28 28.68L14.28 28.68Q14.33 26.69 14.44 24.68Q14.54 22.68 14.64 20.69L14.64 20.69Q14.66 19.99 14.71 18.94Q14.76 17.88 14.81 16.69Q14.86 15.50 14.90 14.40Q14.95 13.30 15 12.50Q15.05 11.71 15.07 11.47L15.07 11.47Q15.12 10.99 15.53 10.66Q15.94 10.32 16.54 10.34L16.54 10.34Q17.02 10.34 17.45 10.75Q17.88 11.16 17.88 11.66L17.88 11.66Q17.88 12.91 17.86 14.12Q17.83 15.34 17.78 16.58L17.78 16.58Q17.76 17.04 17.75 17.70Q17.74 18.36 17.76 18.84ZM17.18 15.10L17.18 15.10Q17.18 14.26 17.20 13.40Q17.21 12.55 17.16 11.69L17.16 11.69Q17.14 11.50 16.93 11.29Q16.73 11.09 16.61 11.06L16.61 11.06Q16.18 11.04 15.94 11.34Q15.70 11.64 15.61 12.10Q15.53 12.55 15.50 13.00Q15.48 13.44 15.48 13.70L15.48 13.70Q15.36 16.82 15.24 19.92Q15.12 23.02 15 26.11L15 26.11Q14.98 26.83 14.98 27.53Q14.98 28.22 15.02 28.90L15.02 28.90Q15.05 29.11 15.35 29.38Q15.65 29.64 15.89 29.66L15.89 29.66Q16.22 29.69 16.34 29.50Q16.46 29.30 16.56 29.14L16.56 29.14Q16.68 28.87 16.74 28.56Q16.80 28.25 16.80 27.96L16.80 27.96Q16.82 27.14 16.81 26.32Q16.80 25.49 16.82 24.67L16.82 24.67Q16.85 23.33 17.50 22.27Q18.14 21.22 19.22 20.58Q20.30 19.94 21.62 19.94L21.62 19.94Q22.80 19.94 23.45 20.90L23.45 20.90Q24 21.72 24.14 22.58Q24.29 23.45 24.24 24.34Q24.19 25.22 24.10 26.11L24.10 26.11Q24.05 26.76 23.98 27.41Q23.90 28.06 23.93 28.70L23.93 28.70Q23.93 28.94 24.06 29.29Q24.19 29.64 24.48 29.69L24.48 29.69Q24.74 29.71 25.02 29.35Q25.30 28.99 25.30 28.42L25.30 28.42Q25.30 26.71 25.31 25.00Q25.32 23.28 25.27 21.58L25.27 21.58Q25.25 20.69 24.77 20.00Q24.29 19.32 23.47 18.91Q22.66 18.50 21.68 18.47Q20.71 18.43 19.70 18.85Q18.70 19.27 17.81 20.26L17.81 20.26Q17.57 20.62 17.34 20.50Q17.11 20.38 17.02 19.99L17.02 19.99Q16.97 19.73 17.02 19.42L17.02 19.42Q17.04 18.86 17.08 18.14Q17.11 17.42 17.14 16.72Q17.16 16.01 17.17 15.55Q17.18 15.10 17.18 15.10ZM28.20 12.29L28.20 12.29Q28.22 11.45 28.69 10.88Q29.16 10.32 29.83 10.34L29.83 10.34Q30.24 10.34 30.64 10.61Q31.03 10.87 31.30 11.27Q31.56 11.66 31.56 12.10L31.56 12.10Q31.58 12.58 31.30 13.03Q31.01 13.49 30.58 13.78Q30.14 14.06 29.66 14.09L29.66 14.09Q29.02 14.09 28.61 13.60Q28.20 13.10 28.20 12.29ZM28.80 12.29L28.80 12.29Q28.78 13.49 29.62 13.51L29.62 13.51Q30.14 13.54 30.54 13.13Q30.94 12.72 30.96 12.17L30.96 12.17Q30.96 11.69 30.61 11.30Q30.26 10.92 29.83 10.92L29.83 10.92Q29.38 10.90 29.11 11.27Q28.85 11.64 28.80 12.29ZM28.42 19.39L28.42 19.39Q28.54 18.55 28.92 18.24Q29.30 17.93 29.86 18L29.86 18Q30.53 18.10 30.86 18.58Q31.20 19.06 31.20 19.85L31.20 19.85Q31.18 21.29 31.21 22.74Q31.25 24.19 31.22 25.63L31.22 25.63Q31.20 26.47 31.15 27.29Q31.10 28.10 31.06 28.94L31.06 28.94Q31.03 29.54 30.60 29.99Q30.17 30.43 29.62 30.48L29.62 30.48Q28.94 30.53 28.68 30.14Q28.42 29.76 28.30 29.23L28.30 29.23Q28.20 28.80 28.16 28.34Q28.13 27.89 28.13 27.43L28.13 27.43Q28.10 26.69 28.10 25.96Q28.10 25.22 28.10 24.48L28.10 24.48Q28.10 24.48 28.12 23.94Q28.13 23.40 28.16 22.57Q28.20 21.74 28.27 20.88Q28.34 20.02 28.42 19.39ZM30.46 21.07L30.46 21.07Q30.46 20.66 30.47 20.26Q30.48 19.85 30.43 19.46L30.43 19.46Q30.41 19.32 30.25 19.15Q30.10 18.98 29.95 18.96L29.95 18.96Q29.90 18.94 29.71 18.89Q29.52 18.84 29.30 18.89Q29.09 18.94 28.94 19.22Q28.80 19.51 28.80 20.21L28.80 20.21Q28.82 21.46 28.84 22.67Q28.85 23.88 28.80 25.15L28.80 25.15Q28.78 25.97 28.78 26.95Q28.78 27.94 28.82 28.73L28.82 28.73Q28.85 28.97 28.87 29.28Q28.90 29.59 29.04 29.81Q29.18 30.02 29.59 30L29.59 30Q29.95 29.98 30.10 29.76Q30.24 29.54 30.28 29.23Q30.31 28.92 30.31 28.68L30.31 28.68Q30.31 27.94 30.32 26.94Q30.34 25.94 30.36 24.92Q30.38 23.90 30.40 23.03Q30.41 22.15 30.42 21.61Q30.43 21.07 30.46 21.07ZM36.46 28.37L36.46 28.37Q37.34 28.37 38.10 28.34Q38.86 28.32 39.72 28.34L39.72 28.34Q40.08 28.37 40.48 28.34Q40.87 28.32 41.18 28.44L41.18 28.44Q41.33 28.49 41.40 28.72Q41.47 28.94 41.47 29.28L41.47 29.28Q41.47 29.42 41.33 29.54Q41.18 29.66 40.97 29.78L40.97 29.78Q40.87 29.83 40.75 29.86Q40.63 29.88 40.51 29.88L40.51 29.88Q39 29.90 37.49 29.93Q35.98 29.95 34.49 30L34.49 30Q34.39 30 34.30 29.99Q34.20 29.98 34.10 29.98L34.10 29.98Q33.74 29.93 33.44 29.80Q33.14 29.66 33.02 29.30L33.02 29.30Q32.81 28.61 33.24 28.18L33.24 28.18Q33.70 27.65 34.31 26.92Q34.92 26.18 35.58 25.42Q36.24 24.65 36.83 23.95Q37.42 23.26 37.80 22.79Q38.18 22.32 38.26 22.22L38.26 22.22Q38.06 22.22 37.60 22.24Q37.13 22.25 36.56 22.25Q36 22.25 35.48 22.25Q34.97 22.25 34.68 22.25L34.68 22.25Q34.44 22.25 34.24 22.15Q34.03 22.06 33.82 21.96L33.82 21.96Q33.72 21.89 33.61 21.71Q33.50 21.53 33.50 21.41L33.50 21.41Q33.50 21.19 33.61 20.99Q33.72 20.78 34.08 20.65Q34.44 20.52 35.23 20.52L35.23 20.52Q35.74 20.52 36.48 20.51Q37.22 20.50 37.97 20.47Q38.71 20.45 39.23 20.44Q39.74 20.42 39.77 20.42L39.77 20.42Q40.49 20.47 40.84 20.87Q41.18 21.26 40.92 21.94L40.92 21.94Q40.58 22.70 40.08 23.33L40.08 23.33Q39.22 24.41 38.30 25.46Q37.39 26.52 36.48 27.58L36.48 27.58Q36.36 27.70 36.18 27.89Q36 28.08 36.01 28.22Q36.02 28.37 36.46 28.37ZM39.10 21.89L39.10 21.89Q39.17 22.06 38.92 22.38Q38.66 22.70 38.47 22.90L38.47 22.90Q37.30 24.29 36.07 25.64Q34.85 27 33.65 28.34L33.65 28.34Q33.53 28.49 33.43 28.75Q33.34 29.02 33.38 29.14L33.38 29.14Q33.50 29.28 33.74 29.39Q33.98 29.50 34.18 29.50L34.18 29.50Q35.88 29.57 37.49 29.57L37.49 29.57Q39.05 29.57 40.63 29.50L40.63 29.50Q40.87 29.47 40.91 29.30Q40.94 29.14 40.87 28.98Q40.80 28.82 40.70 28.80L40.70 28.80Q40.56 28.70 40.37 28.69Q40.18 28.68 39.96 28.68L39.96 28.68Q38.86 28.70 37.75 28.72Q36.65 28.73 35.54 28.75L35.54 28.75Q35.18 28.75 35.12 28.61Q35.06 28.46 35.16 28.27Q35.26 28.08 35.33 27.98L35.33 27.98Q36.31 27.02 37.01 26.21Q37.70 25.39 38.35 24.56Q39 23.74 39.79 22.78L39.79 22.78Q39.91 22.63 40.10 22.32Q40.30 22.01 40.43 21.67Q40.56 21.34 40.46 21.17L40.46 21.17Q40.34 20.93 40.03 20.93Q39.72 20.93 39.46 20.93L39.46 20.93Q38.76 20.88 37.80 20.88Q36.84 20.88 35.92 20.93Q34.99 20.98 34.37 21.12L34.37 21.12Q34.20 21.14 34.14 21.30Q34.08 21.46 34.10 21.53L34.10 21.53Q34.18 21.77 34.56 21.80Q34.94 21.84 35.45 21.82L35.45 21.82Q36.22 21.79 37.00 21.78Q37.78 21.77 38.54 21.74L38.54 21.74Q38.66 21.74 38.83 21.72Q39 21.70 39.10 21.89ZM49.92 21.96L49.92 21.96Q49.92 21.19 49.90 20.54Q49.87 19.90 49.90 19.15L49.90 19.15Q49.90 18.74 50.05 18.44Q50.21 18.14 50.59 18.05L50.59 18.05Q51.10 17.90 51.46 18.18Q51.82 18.46 51.84 19.03L51.84 19.03Q51.86 20.06 51.86 21.10Q51.86 22.13 51.82 23.18L51.82 23.18Q51.82 23.88 51.77 24.60Q51.72 25.32 51.60 26.02L51.60 26.02Q51.50 26.74 51.32 27.43Q51.14 28.13 50.95 28.82L50.95 28.82Q50.78 29.35 50.36 29.69Q49.94 30.02 49.44 30.17L49.44 30.17Q48.26 30.50 47.05 30.50Q45.84 30.50 44.69 29.98L44.69 29.98Q44.02 29.64 43.64 29.14Q43.27 28.63 43.10 27.94L43.10 27.94Q42.72 26.26 42.67 24.58Q42.62 22.90 42.74 21.22L42.74 21.22Q42.79 20.69 42.82 20.18Q42.84 19.68 42.89 19.18L42.89 19.18Q42.91 18.98 42.95 18.78Q42.98 18.58 43.08 18.41L43.08 18.41Q43.25 18.07 43.52 17.95Q43.80 17.83 44.09 17.93L44.09 17.93Q44.62 18.10 44.78 18.58L44.78 18.58Q44.88 18.82 44.89 19.02Q44.90 19.22 44.88 19.49L44.88 19.49Q44.74 21.34 44.70 23.18Q44.66 25.03 44.98 26.86L44.98 26.86Q45.34 28.78 47.28 28.63L47.28 28.63Q48.34 28.54 48.85 28.14Q49.37 27.74 49.54 26.71L49.54 26.71Q49.63 26.11 49.72 25.31Q49.80 24.50 49.85 23.74Q49.90 22.97 49.92 22.46Q49.94 21.96 49.92 21.96ZM44.45 19.13L44.45 19.13Q44.38 18.94 44.26 18.71Q44.14 18.48 43.94 18.46L43.94 18.46Q43.75 18.43 43.57 18.61Q43.39 18.79 43.32 18.98L43.32 18.98Q43.25 19.18 43.21 19.86Q43.18 20.54 43.16 21.54Q43.15 22.54 43.19 23.63Q43.22 24.72 43.31 25.76Q43.39 26.81 43.54 27.60L43.54 27.60Q43.75 28.70 44.34 29.27Q44.93 29.83 46.08 30.02L46.08 30.02Q46.80 30.17 47.48 30.12Q48.17 30.07 48.84 29.93L48.84 29.93Q49.70 29.74 50.14 29.21Q50.57 28.68 50.74 27.94L50.74 27.94Q51.26 25.87 51.31 23.80Q51.36 21.72 51.43 19.66L51.43 19.66Q51.46 19.54 51.42 19.30Q51.38 19.06 51.29 18.83Q51.19 18.60 51.00 18.58L51.00 18.58Q50.86 18.55 50.69 18.67Q50.52 18.79 50.45 18.91L50.45 18.91Q50.35 19.03 50.33 19.22Q50.30 19.42 50.30 19.61L50.30 19.61Q50.30 20.81 50.32 22.02Q50.33 23.23 50.26 24.43L50.26 24.43Q50.21 25.25 50.06 26.05Q49.92 26.86 49.66 27.62L49.66 27.62Q49.46 28.25 48.94 28.63Q48.41 29.02 47.75 29.15Q47.09 29.28 46.43 29.12Q45.77 28.97 45.31 28.49L45.31 28.49Q44.81 28.01 44.64 27.38Q44.47 26.76 44.47 26.11L44.47 26.11Q44.45 25.51 44.45 24.66Q44.45 23.81 44.46 22.88Q44.47 21.96 44.47 21.13Q44.47 20.30 44.47 19.76Q44.47 19.22 44.45 19.13ZM56.02 19.30L56.02 19.90Q56.64 19.30 57.31 18.97Q57.98 18.65 58.70 18.70L58.70 18.70Q60.05 18.79 60.90 19.69Q61.75 20.59 61.87 22.46L61.87 22.46Q61.92 22.70 61.91 22.94Q61.90 23.18 61.87 23.40L61.87 23.40Q61.85 23.83 61.61 24.07Q61.37 24.31 60.96 24.29L60.96 24.29Q60.17 24.29 60.10 23.42L60.10 23.42Q60.07 23.06 60.02 22.70Q59.98 22.34 59.90 21.98L59.90 21.98Q59.74 21.12 59.11 21.04Q58.49 20.95 57.86 21.22L57.86 21.22Q57.26 21.46 56.90 21.92Q56.54 22.39 56.28 22.97L56.28 22.97Q56.11 23.38 56.08 24.19Q56.04 25.01 56.06 25.93Q56.09 26.86 56.14 27.61Q56.18 28.37 56.18 28.68L56.18 28.68Q56.18 29.06 55.92 29.52Q55.66 29.98 55.32 30.22L55.32 30.22Q55.06 30.38 54.68 30.35Q54.31 30.31 54.04 30.11Q53.76 29.90 53.71 29.59L53.71 29.59Q53.66 29.16 53.68 28.64Q53.69 28.13 53.71 27.72L53.71 27.72Q53.74 27.12 53.74 26.21Q53.74 25.30 53.75 24.30Q53.76 23.30 53.77 22.39Q53.78 21.48 53.78 20.84Q53.78 20.21 53.81 20.04L53.81 20.04Q53.83 19.73 53.93 19.34Q54.02 18.96 54.14 18.65L54.14 18.65Q54.31 18.29 54.71 18.17Q55.10 18.05 55.46 18.14L55.46 18.14Q55.85 18.24 55.94 18.60Q56.04 18.96 56.02 19.30L56.02 19.30ZM55.85 21.05L55.85 21.05Q55.70 21.14 55.67 21.02Q55.63 20.90 55.63 20.71Q55.63 20.52 55.63 20.42L55.63 20.42Q55.63 20.16 55.67 19.91Q55.70 19.66 55.70 19.42L55.70 19.42Q55.70 19.15 55.61 18.94Q55.51 18.72 55.20 18.70L55.20 18.70Q54.89 18.65 54.73 18.83Q54.58 19.01 54.53 19.30L54.53 19.30Q54.48 19.66 54.43 20.02Q54.38 20.38 54.38 20.74L54.38 20.74Q54.36 22.39 54.34 24.04Q54.31 25.68 54.29 27.31L54.29 27.31Q54.29 27.82 54.30 28.34Q54.31 28.87 54.36 29.40L54.36 29.40Q54.41 29.71 54.71 29.81Q55.01 29.90 55.20 29.66L55.20 29.66Q55.54 29.26 55.58 28.63L55.58 28.63Q55.63 27.65 55.56 26.63Q55.49 25.61 55.54 24.60L55.54 24.60Q55.61 23.54 55.98 22.63Q56.35 21.72 57.22 21.05L57.22 21.05Q57.74 20.66 58.33 20.48Q58.92 20.30 59.52 20.64L59.52 20.64Q60.07 20.95 60.22 21.53Q60.36 22.10 60.38 22.70L60.38 22.70Q60.41 22.90 60.38 23.10Q60.36 23.30 60.41 23.50L60.41 23.50Q60.46 23.62 60.60 23.74Q60.74 23.86 60.86 23.88L60.86 23.88Q60.98 23.90 61.14 23.78Q61.30 23.66 61.32 23.57L61.32 23.57Q61.37 23.26 61.40 22.94Q61.44 22.63 61.39 22.32L61.39 22.32Q61.27 20.76 60.44 19.99Q59.62 19.22 58.25 19.32L58.25 19.32Q58.01 19.34 57.62 19.49Q57.24 19.63 56.93 19.87L56.93 19.87Q56.33 20.33 56.14 20.65Q55.94 20.98 55.85 21.05ZM70.87 21.96L70.87 21.96Q70.87 21.19 70.85 20.54Q70.82 19.90 70.85 19.15L70.85 19.15Q70.85 18.74 71.00 18.44Q71.16 18.14 71.54 18.05L71.54 18.05Q72.05 17.90 72.41 18.18Q72.77 18.46 72.79 19.03L72.79 19.03Q72.82 20.06 72.82 21.10Q72.82 22.13 72.77 23.18L72.77 23.18Q72.77 23.88 72.72 24.60Q72.67 25.32 72.55 26.02L72.55 26.02Q72.46 26.74 72.28 27.43Q72.10 28.13 71.90 28.82L71.90 28.82Q71.74 29.35 71.32 29.69Q70.90 30.02 70.39 30.17L70.39 30.17Q69.22 30.50 68.00 30.50Q66.79 30.50 65.64 29.98L65.64 29.98Q64.97 29.64 64.60 29.14Q64.22 28.63 64.06 27.94L64.06 27.94Q63.67 26.26 63.62 24.58Q63.58 22.90 63.70 21.22L63.70 21.22Q63.74 20.69 63.77 20.18Q63.79 19.68 63.84 19.18L63.84 19.18Q63.86 18.98 63.90 18.78Q63.94 18.58 64.03 18.41L64.03 18.41Q64.20 18.07 64.48 17.95Q64.75 17.83 65.04 17.93L65.04 17.93Q65.57 18.10 65.74 18.58L65.74 18.58Q65.83 18.82 65.84 19.02Q65.86 19.22 65.83 19.49L65.83 19.49Q65.69 21.34 65.65 23.18Q65.62 25.03 65.93 26.86L65.93 26.86Q66.29 28.78 68.23 28.63L68.23 28.63Q69.29 28.54 69.80 28.14Q70.32 27.74 70.49 26.71L70.49 26.71Q70.58 26.11 70.67 25.31Q70.75 24.50 70.80 23.74Q70.85 22.97 70.87 22.46Q70.90 21.96 70.87 21.96ZM65.40 19.13L65.40 19.13Q65.33 18.94 65.21 18.71Q65.09 18.48 64.90 18.46L64.90 18.46Q64.70 18.43 64.52 18.61Q64.34 18.79 64.27 18.98L64.27 18.98Q64.20 19.18 64.16 19.86Q64.13 20.54 64.12 21.54Q64.10 22.54 64.14 23.63Q64.18 24.72 64.26 25.76Q64.34 26.81 64.49 27.60L64.49 27.60Q64.70 28.70 65.29 29.27Q65.88 29.83 67.03 30.02L67.03 30.02Q67.75 30.17 68.44 30.12Q69.12 30.07 69.79 29.93L69.79 29.93Q70.66 29.74 71.09 29.21Q71.52 28.68 71.69 27.94L71.69 27.94Q72.22 25.87 72.26 23.80Q72.31 21.72 72.38 19.66L72.38 19.66Q72.41 19.54 72.37 19.30Q72.34 19.06 72.24 18.83Q72.14 18.60 71.95 18.58L71.95 18.58Q71.81 18.55 71.64 18.67Q71.47 18.79 71.40 18.91L71.40 18.91Q71.30 19.03 71.28 19.22Q71.26 19.42 71.26 19.61L71.26 19.61Q71.26 20.81 71.27 22.02Q71.28 23.23 71.21 24.43L71.21 24.43Q71.16 25.25 71.02 26.05Q70.87 26.86 70.61 27.62L70.61 27.62Q70.42 28.25 69.89 28.63Q69.36 29.02 68.70 29.15Q68.04 29.28 67.38 29.12Q66.72 28.97 66.26 28.49L66.26 28.49Q65.76 28.01 65.59 27.38Q65.42 26.76 65.42 26.11L65.42 26.11Q65.40 25.51 65.40 24.66Q65.40 23.81 65.41 22.88Q65.42 21.96 65.42 21.13Q65.42 20.30 65.42 19.76Q65.42 19.22 65.40 19.13ZM106.15 26.28L106.15 26.28Q105.14 26.62 104.16 26.96Q103.18 27.31 102.17 27.58L102.17 27.58Q100.92 27.86 100.14 27.32Q99.36 26.78 99.29 25.51L99.29 25.51Q99.17 22.75 99.65 20.06Q100.13 17.38 100.94 14.76L100.94 14.76Q101.04 14.42 101.44 14.14Q101.83 13.85 102.48 13.85L102.48 13.85Q102.94 13.87 103.18 14.30Q103.42 14.74 103.39 15.05L103.39 15.05Q103.37 16.82 103.24 18.61Q103.10 20.40 102.98 22.18L102.98 22.18Q102.96 22.61 102.94 23.04Q102.91 23.47 102.86 23.90L102.86 23.90Q102.86 23.90 103.27 23.71Q103.68 23.52 104.29 23.22Q104.90 22.92 105.52 22.58Q106.13 22.25 106.54 21.94L106.54 21.94Q106.70 21.82 106.72 21.46Q106.73 21.10 106.75 20.81L106.75 20.81Q106.80 19.13 106.85 17.45Q106.90 15.77 106.99 14.09L106.99 14.09Q107.02 13.66 107.10 13.24Q107.18 12.82 107.46 12.54Q107.74 12.26 108.31 12.29L108.31 12.29Q109.13 12.31 109.43 12.86Q109.73 13.42 109.75 14.16L109.75 14.16Q109.78 15.22 109.82 16.30Q109.87 17.38 109.92 18.46L109.92 18.46Q109.92 18.70 109.97 18.96Q110.02 19.22 110.06 19.70L110.06 19.70Q110.62 19.22 111.05 18.85Q111.48 18.48 111.89 18.17L111.89 18.17Q112.22 17.90 112.54 17.58Q112.85 17.26 113.23 17.16Q113.62 17.06 114.12 17.47L114.12 17.47Q114.46 17.71 114.58 18.28Q114.70 18.84 114.60 19.44Q114.50 20.04 114.14 20.42L114.14 20.42Q113.52 21.10 112.81 21.73Q112.10 22.37 111.34 22.92L111.34 22.92Q110.45 23.54 110.03 24.32Q109.61 25.10 109.66 26.23L109.66 26.23Q109.68 26.98 109.48 27.72Q109.27 28.46 108.96 29.16L108.96 29.16Q108.82 29.47 108.36 29.69Q107.90 29.90 107.57 29.90L107.57 29.90Q107.11 29.90 106.87 29.51Q106.63 29.11 106.51 28.73L106.51 28.73Q106.34 28.15 106.28 27.54Q106.22 26.93 106.15 26.28ZM102.12 14.57L102.12 14.57Q101.66 14.54 101.33 15.34Q100.99 16.13 100.75 17.40Q100.51 18.67 100.36 20.15Q100.20 21.62 100.12 23.03Q100.03 24.43 99.98 25.44L99.98 25.44Q99.96 26.21 100.37 26.58Q100.78 26.95 101.52 26.83L101.52 26.83Q103.20 26.52 104.86 25.85L104.86 25.85Q105.74 25.49 106.20 25.48Q106.66 25.46 106.85 25.88Q107.04 26.30 107.09 27.26L107.09 27.26Q107.11 27.60 107.09 27.96Q107.06 28.32 107.15 28.63Q107.23 28.94 107.57 29.16L107.57 29.16Q107.95 29.40 108.23 29.12Q108.50 28.85 108.67 28.30Q108.84 27.74 108.89 27.11Q108.94 26.47 108.89 26.02L108.89 26.02Q108.74 24.96 109.10 24.19Q109.46 23.42 110.30 22.82L110.30 22.82Q111.14 22.25 111.92 21.58Q112.70 20.90 113.45 20.21L113.45 20.21Q113.71 19.97 113.82 19.54Q113.93 19.10 113.89 18.71Q113.86 18.31 113.64 18.14Q113.42 17.98 112.99 18.26L112.99 18.26Q112.46 18.67 111.97 19.12Q111.48 19.56 110.98 19.97L110.98 19.97Q110.38 20.50 109.93 20.34Q109.49 20.18 109.34 19.42L109.34 19.42Q109.30 19.08 109.28 18.74Q109.27 18.41 109.22 18.10L109.22 18.10Q109.20 17.06 109.15 16.04Q109.10 15.02 109.01 14.02L109.01 14.02Q108.98 13.78 108.88 13.48Q108.77 13.18 108.50 13.15L108.50 13.15Q107.90 13.06 107.59 13.73L107.59 13.73Q107.50 13.90 107.50 14.27Q107.50 14.64 107.50 14.86L107.50 14.86Q107.47 17.95 107.50 21.05L107.50 21.05Q107.50 21.84 107.20 22.42Q106.90 22.99 106.13 23.33L106.13 23.33Q105.48 23.62 104.83 23.93Q104.18 24.24 103.54 24.53L103.54 24.53Q102.65 24.91 102.34 24.72Q102.02 24.53 102.07 23.59L102.07 23.59Q102.19 22.32 102.37 21.02Q102.55 19.73 102.65 18.46L102.65 18.46Q102.70 17.98 102.77 17.32Q102.84 16.66 102.84 16.03Q102.84 15.41 102.70 14.99Q102.55 14.57 102.12 14.57ZM121.03 16.90L121.03 16.90Q120.10 17.42 119.42 18.19Q118.75 18.96 118.25 19.87L118.25 19.87Q118.08 20.11 117.86 20.41Q117.65 20.71 117.36 20.69L117.36 20.69Q117.02 20.66 116.81 20.28Q116.59 19.90 116.57 19.63L116.57 19.63Q116.52 19.10 116.54 18.54Q116.57 17.98 116.78 17.52L116.78 17.52Q117.29 16.54 118.33 15.55Q119.38 14.57 120.74 13.82Q122.11 13.08 123.64 12.77Q125.16 12.46 126.65 12.82L126.65 12.82Q128.69 13.32 129.85 14.53Q131.02 15.74 131.38 17.86L131.38 17.86Q131.66 19.70 131.18 21.59Q130.70 23.47 129.61 25.12Q128.52 26.76 126.98 27.94Q125.45 29.11 123.62 29.54L123.62 29.54Q122.21 29.90 120.97 29.59Q119.74 29.28 118.84 28.46Q117.94 27.65 117.50 26.45Q117.07 25.25 117.29 23.81L117.29 23.81Q117.58 21.72 118.58 20.04Q119.59 18.36 121.03 16.90ZM117.50 19.75L117.50 19.75Q117.72 19.70 118.09 19.22Q118.46 18.74 118.92 18.14Q119.38 17.54 119.76 17.14L119.76 17.14Q120.07 16.82 120.46 16.57Q120.84 16.32 121.22 16.13L121.22 16.13Q121.37 16.06 121.64 16.08Q121.92 16.10 122.02 16.27L122.02 16.27Q122.14 16.44 122.02 16.64Q121.90 16.85 121.82 17.02L121.82 17.02Q121.73 17.18 121.58 17.32Q121.44 17.45 121.32 17.59L121.32 17.59Q120.29 18.77 119.41 20.09Q118.54 21.41 118.20 22.97L118.20 22.97Q117.89 24.38 118.07 25.63Q118.25 26.88 118.92 27.77Q119.59 28.66 120.78 29.00Q121.97 29.35 123.67 28.97L123.67 28.97Q124.44 28.78 125.16 28.30Q125.88 27.82 126.53 27.36L126.53 27.36Q128.74 25.68 129.88 23.48Q131.02 21.29 130.75 18.43L130.75 18.43Q130.56 16.34 129.46 15.04Q128.35 13.73 126.50 13.39L126.50 13.39Q125.30 13.18 123.94 13.45Q122.57 13.73 121.25 14.36Q119.93 15 118.88 15.92Q117.84 16.85 117.29 17.93L117.29 17.93Q117.12 18.24 117.04 18.71Q116.95 19.18 117.05 19.50Q117.14 19.82 117.50 19.75ZM129.34 21.77L129.34 21.77Q128.59 23.33 127.55 24.62Q126.50 25.92 125.02 26.86L125.02 26.86Q123.98 27.46 122.93 27.43Q121.87 27.41 120.82 27.07L120.82 27.07Q120.29 26.88 119.90 26.29Q119.52 25.70 119.36 24.95Q119.21 24.19 119.38 23.50L119.38 23.50Q120.00 21.10 121.43 19.27Q122.86 17.45 124.92 16.15L124.92 16.15Q125.78 15.60 126.71 15.72Q127.63 15.84 128.36 16.45Q129.10 17.06 129.34 18.05L129.34 18.05Q129.41 18.36 129.49 19.04Q129.58 19.73 129.58 20.47Q129.58 21.22 129.34 21.77ZM128.74 19.70L128.74 19.70Q128.66 19.30 128.62 18.91Q128.57 18.53 128.42 18.14L128.42 18.14Q128.06 17.04 127.27 16.69Q126.48 16.34 125.42 16.82L125.42 16.82Q125.14 16.92 124.85 17.08Q124.56 17.23 124.34 17.42L124.34 17.42Q123.17 18.67 122.08 20.03Q120.98 21.38 120.36 23.04L120.36 23.04Q120.07 23.78 120.08 24.52Q120.10 25.25 120.70 25.90L120.70 25.90Q121.34 26.57 122.14 26.64Q122.93 26.71 123.70 26.47L123.70 26.47Q124.61 26.21 125.50 25.49Q126.38 24.77 127.10 23.78Q127.82 22.80 128.27 21.73Q128.71 20.66 128.74 19.70ZM138.36 16.90L138.36 16.90Q137.42 17.42 136.75 18.19Q136.08 18.96 135.58 19.87L135.58 19.87Q135.41 20.11 135.19 20.41Q134.98 20.71 134.69 20.69L134.69 20.69Q134.35 20.66 134.14 20.28Q133.92 19.90 133.90 19.63L133.90 19.63Q133.85 19.10 133.87 18.54Q133.90 17.98 134.11 17.52L134.11 17.52Q134.62 16.54 135.66 15.55Q136.70 14.57 138.07 13.82Q139.44 13.08 140.96 12.77Q142.49 12.46 143.98 12.82L143.98 12.82Q146.02 13.32 147.18 14.53Q148.34 15.74 148.70 17.86L148.70 17.86Q148.99 19.70 148.51 21.59Q148.03 23.47 146.94 25.12Q145.85 26.76 144.31 27.94Q142.78 29.11 140.95 29.54L140.95 29.54Q139.54 29.90 138.30 29.59Q137.06 29.28 136.16 28.46Q135.26 27.65 134.83 26.45Q134.40 25.25 134.62 23.81L134.62 23.81Q134.90 21.72 135.91 20.04Q136.92 18.36 138.36 16.90ZM134.83 19.75L134.83 19.75Q135.05 19.70 135.42 19.22Q135.79 18.74 136.25 18.14Q136.70 17.54 137.09 17.14L137.09 17.14Q137.40 16.82 137.78 16.57Q138.17 16.32 138.55 16.13L138.55 16.13Q138.70 16.06 138.97 16.08Q139.25 16.10 139.34 16.27L139.34 16.27Q139.46 16.44 139.34 16.64Q139.22 16.85 139.15 17.02L139.15 17.02Q139.06 17.18 138.91 17.32Q138.77 17.45 138.65 17.59L138.65 17.59Q137.62 18.77 136.74 20.09Q135.86 21.41 135.53 22.97L135.53 22.97Q135.22 24.38 135.40 25.63Q135.58 26.88 136.25 27.77Q136.92 28.66 138.11 29.00Q139.30 29.35 141.00 28.97L141.00 28.97Q141.77 28.78 142.49 28.30Q143.21 27.82 143.86 27.36L143.86 27.36Q146.06 25.68 147.20 23.48Q148.34 21.29 148.08 18.43L148.08 18.43Q147.89 16.34 146.78 15.04Q145.68 13.73 143.83 13.39L143.83 13.39Q142.63 13.18 141.26 13.45Q139.90 13.73 138.58 14.36Q137.26 15 136.21 15.92Q135.17 16.85 134.62 17.93L134.62 17.93Q134.45 18.24 134.36 18.71Q134.28 19.18 134.38 19.50Q134.47 19.82 134.83 19.75ZM146.66 21.77L146.66 21.77Q145.92 23.33 144.88 24.62Q143.83 25.92 142.34 26.86L142.34 26.86Q141.31 27.46 140.26 27.43Q139.20 27.41 138.14 27.07L138.14 27.07Q137.62 26.88 137.23 26.29Q136.85 25.70 136.69 24.95Q136.54 24.19 136.70 23.50L136.70 23.50Q137.33 21.10 138.76 19.27Q140.18 17.45 142.25 16.15L142.25 16.15Q143.11 15.60 144.04 15.72Q144.96 15.84 145.69 16.45Q146.42 17.06 146.66 18.05L146.66 18.05Q146.74 18.36 146.82 19.04Q146.90 19.73 146.90 20.47Q146.90 21.22 146.66 21.77ZM146.06 19.70L146.06 19.70Q145.99 19.30 145.94 18.91Q145.90 18.53 145.75 18.14L145.75 18.14Q145.39 17.04 144.60 16.69Q143.81 16.34 142.75 16.82L142.75 16.82Q142.46 16.92 142.18 17.08Q141.89 17.23 141.67 17.42L141.67 17.42Q140.50 18.67 139.40 20.03Q138.31 21.38 137.69 23.04L137.69 23.04Q137.40 23.78 137.41 24.52Q137.42 25.25 138.02 25.90L138.02 25.90Q138.67 26.57 139.46 26.64Q140.26 26.71 141.02 26.47L141.02 26.47Q141.94 26.21 142.82 25.49Q143.71 24.77 144.43 23.78Q145.15 22.80 145.60 21.73Q146.04 20.66 146.06 19.70ZM176.38 27.38L176.38 27.38Q176.38 27.77 176.40 28.18Q176.42 28.58 176.38 28.99L176.38 28.99Q176.35 29.64 175.98 29.95Q175.61 30.26 175.13 30.24L175.13 30.24Q174.70 30.19 174.38 29.81Q174.07 29.42 174.10 28.87L174.10 28.87Q174.14 27.74 174.20 26.60Q174.26 25.46 174.31 24.34L174.31 24.34Q174.41 22.92 174.50 21.48Q174.60 20.04 174.70 18.62L174.70 18.62Q174.70 18.24 174.77 17.88L174.77 17.88Q174.86 17.47 175.16 17.32Q175.46 17.16 175.85 17.18L175.85 17.18Q176.23 17.21 176.54 17.38Q176.86 17.54 176.86 17.88L176.86 17.88Q176.90 18.48 176.86 19.08Q176.81 19.68 176.78 20.26L176.78 20.26Q176.76 20.57 176.75 20.86Q176.74 21.14 176.71 21.43L176.71 21.43Q176.66 21.89 176.63 22.12Q176.59 22.34 176.75 22.32Q176.90 22.30 177.41 22.03L177.41 22.03Q178.27 21.55 179.32 21.54Q180.36 21.53 181.18 21.72L181.18 21.72Q182.38 21.96 182.99 22.80Q183.60 23.64 183.82 24.86L183.82 24.86Q184.01 25.90 184.04 26.94Q184.08 27.98 184.13 29.04L184.13 29.04Q184.15 29.18 184.09 29.35Q184.03 29.52 183.96 29.66L183.96 29.66Q183.79 30.07 183.46 30.19Q183.12 30.31 182.74 30.26L182.74 30.26Q182.38 30.22 182.23 30Q182.09 29.78 182.09 29.50L182.09 29.50Q182.09 28.66 182.12 27.88Q182.16 27.10 182.14 26.26L182.14 26.26Q182.14 24.22 180.19 23.83L180.19 23.83Q179.74 23.76 179.27 23.75Q178.80 23.74 178.32 23.81L178.32 23.81Q177.26 24 176.81 24.70Q176.35 25.39 176.35 26.50L176.35 26.50Q176.35 26.76 176.36 27.07Q176.38 27.38 176.38 27.38ZM176.78 22.94L176.78 22.94Q176.57 23.04 176.35 22.91Q176.14 22.78 176.14 22.54L176.14 22.54Q176.14 22.37 176.14 22.20Q176.14 22.03 176.16 21.86L176.16 21.86Q176.21 20.95 176.27 20.05Q176.33 19.15 176.35 18.26L176.35 18.26Q176.35 18.10 176.18 17.87Q176.02 17.64 175.80 17.62L175.80 17.62Q175.61 17.59 175.45 17.80Q175.30 18 175.25 18.17L175.25 18.17Q175.15 18.41 175.14 18.67Q175.13 18.94 175.13 19.20L175.13 19.20Q175.03 21.10 174.95 22.99Q174.86 24.89 174.77 26.81L174.77 26.81Q174.74 27.43 174.73 28.06Q174.72 28.68 174.74 29.30L174.74 29.30Q174.77 29.45 174.90 29.68Q175.03 29.90 175.25 29.90L175.25 29.90Q175.75 29.90 175.82 28.99L175.82 28.99Q175.87 28.15 175.87 27.31Q175.87 26.47 175.97 25.63L175.97 25.63Q176.14 24.46 176.77 23.86Q177.41 23.26 178.56 23.14L178.56 23.14Q179.28 23.06 180.00 23.14L180.00 23.14Q181.27 23.26 181.91 23.87Q182.54 24.48 182.69 25.75L182.69 25.75Q182.74 26.28 182.71 26.82Q182.69 27.36 182.66 27.86L182.66 27.86Q182.66 28.03 182.62 28.38Q182.57 28.73 182.56 29.09Q182.54 29.45 182.63 29.71Q182.71 29.98 182.98 29.98L182.98 29.98Q183.60 29.98 183.60 29.26L183.60 29.26Q183.60 28.39 183.61 27.50Q183.62 26.62 183.58 25.73L183.58 25.73Q183.55 24.94 183.16 24.08Q182.76 23.23 182.06 22.75L182.06 22.75Q181.27 22.20 180.52 22.14Q179.76 22.08 178.78 22.20L178.78 22.20Q178.37 22.25 177.79 22.49Q177.22 22.73 176.78 22.94ZM193.82 23.02L193.82 23.02Q193.94 24.53 193.55 25.82Q193.15 27.12 192.53 28.30L192.53 28.30Q191.90 29.45 190.91 30Q189.91 30.55 188.71 30.38L188.71 30.38Q187.22 30.19 186.24 29.35Q185.26 28.51 185.04 27.22L185.04 27.22Q184.85 26.11 184.84 25.00Q184.82 23.88 185.06 22.78L185.06 22.78Q185.21 22.18 185.33 21.66Q185.45 21.14 185.62 20.62L185.62 20.62Q186 19.22 187.07 18.52Q188.14 17.81 189.60 17.98L189.60 17.98Q189.98 18 190.37 18.10Q190.75 18.19 191.11 18.29L191.11 18.29Q192 18.53 192.58 19.08Q193.15 19.63 193.32 20.52L193.32 20.52Q193.49 21.22 193.64 21.86Q193.80 22.51 193.82 23.02ZM185.78 23.54L185.78 23.54Q185.71 24.19 185.69 24.86Q185.66 25.54 185.66 26.23L185.66 26.23Q185.64 27.70 186.70 28.87L186.70 28.87Q187.18 29.42 187.91 29.68Q188.64 29.93 189.42 29.88Q190.20 29.83 190.86 29.50Q191.52 29.16 191.86 28.51L191.86 28.51Q192.65 27.02 193.01 25.42Q193.37 23.81 193.06 22.10L193.06 22.10Q192.86 21 192.43 20.16Q192 19.32 191.20 18.86Q190.39 18.41 189 18.50L189 18.50Q188.11 18.55 187.50 19.00Q186.89 19.44 186.50 20.21L186.50 20.21Q186.38 20.47 186.29 20.76Q186.19 21.05 186.10 21.36L186.10 21.36Q186.02 21.58 185.95 22.03Q185.88 22.49 185.84 22.93Q185.81 23.38 185.78 23.54ZM192.26 23.04L192.26 23.04Q192.31 24.43 192.04 25.75Q191.76 27.07 190.99 28.25L190.99 28.25Q190.61 28.85 190.04 29.08Q189.48 29.30 188.62 29.14L188.62 29.14Q187.82 28.99 187.30 28.55Q186.77 28.10 186.65 27.46L186.65 27.46Q186.31 25.68 186.52 23.98Q186.72 22.27 187.37 20.59L187.37 20.59Q187.80 19.46 189 19.42L189 19.42Q189.34 19.42 189.64 19.42Q189.94 19.42 190.25 19.46L190.25 19.46Q191.02 19.58 191.44 20.05Q191.86 20.52 192.02 21.12Q192.19 21.72 192.23 22.25Q192.26 22.78 192.26 23.04ZM191.76 23.02L191.76 23.02Q191.74 22.58 191.64 22.02Q191.54 21.46 191.30 20.94Q191.06 20.42 190.58 20.14L190.58 20.14Q190.06 19.80 189.42 19.92Q188.78 20.04 188.28 20.47Q187.78 20.90 187.61 21.53L187.61 21.53Q187.22 22.94 187.10 24.25Q186.98 25.56 187.15 27.05L187.15 27.05Q187.22 27.65 187.43 27.94Q187.63 28.22 188.16 28.49L188.16 28.49Q188.69 28.73 189.22 28.67Q189.74 28.61 190.13 28.25L190.13 28.25Q190.46 27.91 190.66 27.56Q190.85 27.22 190.99 26.76L190.99 26.76Q191.26 25.90 191.56 24.97Q191.86 24.05 191.76 23.02ZM197.45 19.30L197.45 19.90Q198.07 19.30 198.74 18.97Q199.42 18.65 200.14 18.70L200.14 18.70Q201.48 18.79 202.33 19.69Q203.18 20.59 203.30 22.46L203.30 22.46Q203.35 22.70 203.34 22.94Q203.33 23.18 203.30 23.40L203.30 23.40Q203.28 23.83 203.04 24.07Q202.80 24.31 202.39 24.29L202.39 24.29Q201.60 24.29 201.53 23.42L201.53 23.42Q201.50 23.06 201.46 22.70Q201.41 22.34 201.34 21.98L201.34 21.98Q201.17 21.12 200.54 21.04Q199.92 20.95 199.30 21.22L199.30 21.22Q198.70 21.46 198.34 21.92Q197.98 22.39 197.71 22.97L197.71 22.97Q197.54 23.38 197.51 24.19Q197.47 25.01 197.50 25.93Q197.52 26.86 197.57 27.61Q197.62 28.37 197.62 28.68L197.62 28.68Q197.62 29.06 197.35 29.52Q197.09 29.98 196.75 30.22L196.75 30.22Q196.49 30.38 196.12 30.35Q195.74 30.31 195.47 30.11Q195.19 29.90 195.14 29.59L195.14 29.59Q195.10 29.16 195.11 28.64Q195.12 28.13 195.14 27.72L195.14 27.72Q195.17 27.12 195.17 26.21Q195.17 25.30 195.18 24.30Q195.19 23.30 195.20 22.39Q195.22 21.48 195.22 20.84Q195.22 20.21 195.24 20.04L195.24 20.04Q195.26 19.73 195.36 19.34Q195.46 18.96 195.58 18.65L195.58 18.65Q195.74 18.29 196.14 18.17Q196.54 18.05 196.90 18.14L196.90 18.14Q197.28 18.24 197.38 18.60Q197.47 18.96 197.45 19.30L197.45 19.30ZM197.28 21.05L197.28 21.05Q197.14 21.14 197.10 21.02Q197.06 20.90 197.06 20.71Q197.06 20.52 197.06 20.42L197.06 20.42Q197.06 20.16 197.10 19.91Q197.14 19.66 197.14 19.42L197.14 19.42Q197.14 19.15 197.04 18.94Q196.94 18.72 196.63 18.70L196.63 18.70Q196.32 18.65 196.16 18.83Q196.01 19.01 195.96 19.30L195.96 19.30Q195.91 19.66 195.86 20.02Q195.82 20.38 195.82 20.74L195.82 20.74Q195.79 22.39 195.77 24.04Q195.74 25.68 195.72 27.31L195.72 27.31Q195.72 27.82 195.73 28.34Q195.74 28.87 195.79 29.40L195.79 29.40Q195.84 29.71 196.14 29.81Q196.44 29.90 196.63 29.66L196.63 29.66Q196.97 29.26 197.02 28.63L197.02 28.63Q197.06 27.65 196.99 26.63Q196.92 25.61 196.97 24.60L196.97 24.60Q197.04 23.54 197.41 22.63Q197.78 21.72 198.65 21.05L198.65 21.05Q199.18 20.66 199.76 20.48Q200.35 20.30 200.95 20.64L200.95 20.64Q201.50 20.95 201.65 21.53Q201.79 22.10 201.82 22.70L201.82 22.70Q201.84 22.90 201.82 23.10Q201.79 23.30 201.84 23.50L201.84 23.50Q201.89 23.62 202.03 23.74Q202.18 23.86 202.30 23.88L202.30 23.88Q202.42 23.90 202.57 23.78Q202.73 23.66 202.75 23.57L202.75 23.57Q202.80 23.26 202.84 22.94Q202.87 22.63 202.82 22.32L202.82 22.32Q202.70 20.76 201.88 19.99Q201.05 19.22 199.68 19.32L199.68 19.32Q199.44 19.34 199.06 19.49Q198.67 19.63 198.36 19.87L198.36 19.87Q197.76 20.33 197.57 20.65Q197.38 20.98 197.28 21.05ZM207.07 20.11L207.07 21.77Q207.86 20.88 208.75 20.66Q209.64 20.45 210.50 20.71L210.50 20.71Q211.27 20.95 211.64 21.55Q212.02 22.15 212.04 22.99L212.04 22.99Q212.40 22.44 212.78 22.16Q213.17 21.89 213.79 21.84L213.79 21.84Q214.34 21.79 214.97 21.96Q215.59 22.13 216.10 22.32L216.10 22.32Q216.91 22.63 217.27 23.44Q217.63 24.24 217.68 25.03L217.68 25.03Q217.80 26.14 217.79 27.24Q217.78 28.34 217.73 29.45L217.73 29.45Q217.73 29.83 217.48 30.04Q217.22 30.24 216.82 30.24L216.82 30.24Q216.43 30.24 216.16 30.06Q215.88 29.88 215.83 29.45L215.83 29.45Q215.81 28.82 215.80 28.24Q215.78 27.65 215.78 27.05L215.78 27.05Q215.78 26.64 215.80 26.21Q215.81 25.78 215.76 25.39L215.76 25.39Q215.74 24.82 215.45 24.44Q215.16 24.07 214.75 24L214.75 24Q214.22 23.95 213.78 24.19Q213.34 24.43 213.19 24.98L213.19 24.98Q213 25.75 212.88 26.57Q212.76 27.38 212.64 28.15L212.64 28.15Q212.59 28.42 212.53 28.68Q212.47 28.94 212.40 29.21L212.40 29.21Q212.30 29.52 212.10 29.87Q211.90 30.22 211.51 30.24L211.51 30.24Q210.77 30.24 210.62 29.86Q210.48 29.47 210.43 29.04L210.43 29.04Q210.31 28.32 210.26 27.55L210.26 27.55Q210.26 26.64 210.29 25.72Q210.31 24.79 210.26 23.90L210.26 23.90Q210.24 23.64 210.10 23.32Q209.95 22.99 209.76 22.90L209.76 22.90Q209.52 22.78 209.17 22.84Q208.82 22.90 208.56 23.04L208.56 23.04Q207.50 23.64 207.36 24.91L207.36 24.91Q207.26 25.66 207.22 26.38Q207.17 27.10 207.10 27.84L207.10 27.84Q207.07 28.13 207.06 28.42Q207.05 28.70 207 29.02L207 29.02Q206.74 30.26 205.80 30.22L205.80 30.22Q205.39 30.17 205.14 29.78Q204.89 29.40 204.86 28.80L204.86 28.80Q204.82 27 204.86 25.10L204.86 25.10Q204.89 23.35 204.90 21.61Q204.91 19.87 204.94 18.14L204.94 18.14Q204.96 17.81 205.32 17.51Q205.68 17.21 206.09 17.18L206.09 17.18Q206.50 17.16 206.76 17.39Q207.02 17.62 207.05 18L207.05 18Q207.10 18.53 207.07 19.07Q207.05 19.61 207.07 20.11L207.07 20.11ZM211.92 24.53L211.92 24.53L211.68 24.53Q211.66 24.12 211.63 23.68Q211.61 23.23 211.54 22.85L211.54 22.85Q211.44 22.54 211.31 22.24Q211.18 21.94 210.96 21.70L210.96 21.70Q210.55 21.22 210.05 21.14Q209.54 21.07 209.06 21.14L209.06 21.14Q208.03 21.26 207.46 22.03L207.46 22.03Q207.31 22.25 207.16 22.55Q207 22.85 206.74 22.75L206.74 22.75Q206.50 22.68 206.53 22.32Q206.57 21.96 206.57 21.72L206.57 21.72Q206.57 20.83 206.60 19.96Q206.64 19.08 206.62 18.19L206.62 18.19Q206.62 18 206.45 17.78Q206.28 17.57 206.14 17.54L206.14 17.54Q205.82 17.50 205.68 17.70Q205.54 17.90 205.54 18.19L205.54 18.19Q205.51 18.74 205.48 19.30Q205.44 19.85 205.42 20.38L205.42 20.38Q205.39 22.13 205.36 23.86Q205.32 25.58 205.30 27.31L205.30 27.31Q205.30 27.77 205.27 28.21Q205.25 28.66 205.32 29.14L205.32 29.14Q205.34 29.30 205.52 29.56Q205.70 29.81 205.94 29.81L205.94 29.81Q206.14 29.81 206.29 29.62Q206.45 29.42 206.47 29.26L206.47 29.26Q206.59 28.73 206.62 28.21Q206.64 27.70 206.66 27.19L206.66 27.19Q206.74 26.16 206.88 25.15Q207.02 24.14 207.62 23.26L207.62 23.26Q208.39 22.01 209.76 22.42L209.76 22.42Q210.34 22.58 210.56 22.94Q210.79 23.30 210.79 24.10L210.79 24.10Q210.77 24.98 210.73 25.86Q210.70 26.74 210.70 27.62L210.70 27.62Q210.70 27.96 210.73 28.30Q210.77 28.63 210.89 28.97L210.89 28.97Q210.94 29.14 211.10 29.33Q211.27 29.52 211.44 29.54L211.44 29.54Q211.61 29.57 211.81 29.40Q212.02 29.23 212.09 29.06L212.09 29.06Q212.21 28.82 212.24 28.56Q212.28 28.30 212.30 28.06L212.30 28.06Q212.42 27.19 212.52 26.30Q212.62 25.42 212.86 24.60L212.86 24.60Q213.02 23.98 213.50 23.68Q213.98 23.38 214.56 23.44Q215.14 23.50 215.57 23.98L215.57 23.98Q215.83 24.29 216 24.72Q216.17 25.15 216.19 25.56L216.19 25.56Q216.24 26.30 216.19 27.08Q216.14 27.86 216.12 28.61L216.12 28.61Q216.10 28.82 216.11 29.05Q216.12 29.28 216.19 29.50L216.19 29.50Q216.24 29.62 216.34 29.77Q216.43 29.93 216.70 29.93L216.70 29.93Q216.82 29.93 216.98 29.78Q217.15 29.64 217.18 29.50L217.18 29.50Q217.27 29.30 217.28 29.08Q217.30 28.85 217.32 28.61L217.32 28.61Q217.34 28.13 217.33 27.62Q217.32 27.12 217.39 26.59L217.39 26.59Q217.56 25.15 216.86 23.81L216.86 23.81Q216.74 23.57 216.50 23.27Q216.26 22.97 216 22.85L216 22.85Q215.64 22.66 215.27 22.54Q214.90 22.42 214.39 22.42L214.39 22.42Q213.41 22.42 212.89 22.81Q212.38 23.21 212.06 23.98L212.06 23.98Q212.04 24.12 212.00 24.25Q211.97 24.38 211.92 24.53ZM227.50 16.06L227.50 16.06Q227.40 17.45 226.94 18.60Q226.49 19.75 225.84 20.81L225.84 20.81Q225.58 21.24 225.50 21.46Q225.43 21.67 225.60 21.80Q225.77 21.94 226.22 22.20L226.22 22.20Q227.57 22.97 228.10 24.48L228.10 24.48Q228.22 24.82 228.36 25.16Q228.50 25.51 228.70 25.85L228.70 25.85Q229.08 26.45 229.50 26.62Q229.92 26.78 230.59 26.62L230.59 26.62Q231.02 26.50 231.36 26.57Q231.70 26.64 231.91 27.07L231.91 27.07Q232.06 27.38 231.79 27.80Q231.53 28.22 231.07 28.37L231.07 28.37Q230.33 28.66 229.56 28.68Q228.79 28.70 228.02 28.34L228.02 28.34Q227.78 28.22 227.58 28.21Q227.38 28.20 227.11 28.46L227.11 28.46Q226.15 29.54 224.95 29.87Q223.75 30.19 222.38 29.81L222.38 29.81Q221.21 29.47 220.50 28.67Q219.79 27.86 219.62 26.66L219.62 26.66Q219.46 25.32 219.90 24.16Q220.34 22.99 221.52 22.25L221.52 22.25Q223.01 21.34 223.76 19.97Q224.52 18.60 225 17.06L225 17.06Q225.12 16.66 225.06 16.32Q225 15.98 224.66 15.74L224.66 15.74Q224.30 15.48 223.92 15.52Q223.54 15.55 223.22 15.84L223.22 15.84Q222.91 16.13 222.67 16.48Q222.43 16.82 222.19 17.18L222.19 17.18Q221.98 17.54 221.75 17.84Q221.52 18.14 220.99 18L220.99 18Q220.51 17.83 220.36 17.48Q220.20 17.14 220.22 16.68L220.22 16.68Q220.27 15.55 221.12 14.59Q221.98 13.63 223.22 13.30L223.22 13.30Q224.40 12.98 225.48 13.25Q226.56 13.51 227.16 14.50L227.16 14.50Q227.38 14.81 227.46 15.23Q227.54 15.65 227.50 16.06ZM220.18 26.04L220.18 26.04Q220.13 27.60 220.94 28.48Q221.76 29.35 223.58 29.66L223.58 29.66Q224.71 29.81 225.50 29.32Q226.30 28.82 226.97 27.91L226.97 27.91Q227.23 27.55 227.47 27.52Q227.71 27.48 228.07 27.79L228.07 27.79Q228.62 28.25 229.32 28.33Q230.02 28.42 230.71 28.22L230.71 28.22Q230.90 28.18 231.12 27.96Q231.34 27.74 231.26 27.50L231.26 27.50Q231.22 27.31 230.94 27.20Q230.66 27.10 230.26 27.24L230.26 27.24Q229.58 27.31 229.13 27.07Q228.67 26.83 228.38 26.21L228.38 26.21Q228.22 25.87 228.08 25.51Q227.95 25.15 227.78 24.79L227.78 24.79Q227.45 24.02 226.91 23.41Q226.37 22.80 225.53 22.46L225.53 22.46Q224.90 22.20 224.86 21.96Q224.81 21.72 225.12 21.12L225.12 21.12Q225.60 20.11 226.09 19.09Q226.58 18.07 226.85 17.02L226.85 17.02Q227.18 15.70 226.70 14.77Q226.22 13.85 224.71 13.68L224.71 13.68Q223.94 13.61 223.20 13.82Q222.46 14.04 221.83 14.62L221.83 14.62Q220.87 15.50 220.75 16.82L220.75 16.82Q220.75 16.97 220.81 17.18Q220.87 17.40 221.04 17.45L221.04 17.45Q221.21 17.50 221.36 17.35Q221.52 17.21 221.62 17.11L221.62 17.11Q221.83 16.78 222 16.44Q222.17 16.10 222.38 15.79L222.38 15.79Q222.79 15.17 223.43 14.93Q224.06 14.69 224.62 14.93L224.62 14.93Q225.22 15.17 225.47 15.72Q225.72 16.27 225.53 17.09L225.53 17.09Q225.14 18.77 224.34 20.21Q223.54 21.65 222.02 22.58L222.02 22.58Q220.92 23.26 220.57 24.19Q220.22 25.13 220.18 26.04ZM226.87 25.63L226.87 25.63Q226.87 26.38 226.43 27.07Q225.98 27.77 225.28 28.20Q224.57 28.63 223.80 28.66L223.80 28.66Q222.65 28.68 221.92 27.94Q221.18 27.19 221.16 25.99L221.16 25.99Q221.14 25.25 221.50 24.60Q221.86 23.95 222.44 23.56Q223.03 23.16 223.70 23.21L223.70 23.21Q224.57 23.26 225.28 23.48Q225.98 23.71 226.43 24.22Q226.87 24.72 226.87 25.63ZM221.69 25.92L221.69 25.92Q221.66 26.74 222.26 27.37Q222.86 28.01 223.63 28.03L223.63 28.03Q224.33 28.06 224.94 27.72Q225.55 27.38 225.95 26.83Q226.34 26.28 226.34 25.66L226.34 25.66Q226.37 25.18 226.01 24.73Q225.65 24.29 225.11 24Q224.57 23.71 223.97 23.71L223.97 23.71Q222.98 23.69 222.34 24.31Q221.69 24.94 221.69 25.92ZM237.29 21.79L237.29 21.79Q237.26 23.02 237.31 24.23Q237.36 25.44 237.31 26.64L237.31 26.64Q237.29 27.38 237.18 27.98Q237.07 28.58 236.81 29.30L236.81 29.30Q236.74 29.52 236.46 29.81Q236.18 30.10 235.86 30.32Q235.54 30.55 235.30 30.58L235.30 30.58Q235.01 30.60 234.62 30.36Q234.24 30.12 234.05 29.83L234.05 29.83Q233.81 29.50 233.66 29.04Q233.52 28.58 233.52 28.18L233.52 28.18Q233.54 25.97 233.60 23.74Q233.66 21.50 233.74 19.25L233.74 19.25Q233.78 17.98 233.84 16.70Q233.90 15.43 233.98 14.14L233.98 14.14Q234.05 13.37 234.13 12.59Q234.22 11.81 234.36 11.04L234.36 11.04Q234.46 10.42 234.88 10.15Q235.30 9.89 236.11 9.94L236.11 9.94Q236.74 9.96 237.00 10.28Q237.26 10.61 237.29 11.18L237.29 11.18Q237.31 11.86 237.30 12.53Q237.29 13.20 237.29 13.87L237.29 13.87Q237.29 13.87 237.29 14.44Q237.29 15 237.30 15.90Q237.31 16.80 237.31 17.87Q237.31 18.94 237.31 19.97Q237.31 21 237.29 21.79ZM236.57 15.60L236.57 15.60Q236.57 15.60 236.56 15.17Q236.54 14.74 236.54 14.08Q236.54 13.42 236.54 12.73Q236.54 12.05 236.54 11.54L236.54 11.54Q236.54 11.14 236.38 10.82Q236.21 10.51 235.75 10.61L235.75 10.61Q235.54 10.66 235.30 10.94Q235.06 11.23 235.01 11.50L235.01 11.50Q234.86 12.05 234.84 12.64Q234.82 13.22 234.79 13.80L234.79 13.80Q234.70 15.55 234.61 17.29Q234.53 19.03 234.46 20.78L234.46 20.78Q234.38 22.68 234.32 24.58Q234.26 26.47 234.22 28.37L234.22 28.37Q234.22 28.66 234.32 28.96Q234.43 29.26 234.58 29.52L234.58 29.52Q234.91 30 235.31 29.99Q235.70 29.98 235.94 29.45L235.94 29.45Q236.28 28.70 236.40 27.85Q236.52 27 236.54 26.28Q236.57 25.56 236.57 25.25L236.57 25.25Q236.69 22.73 236.58 20.42Q236.47 18.12 236.57 15.60Z"/></svg>