<svg xmlns="http://www.w3.org/2000/svg" xmlns:xlink="http://www.w3.org/1999/xlink" width="305.35546875" height="30"><path fill="black" d="M0.09 23.55L0.09 23.55Q0.16 23.26 0.20 22.83Q0.23 22.41 0.23 21.95L0.23 21.95Q0.23 21.53 0.21 21.16Q0.18 20.79 0.12 20.51L0.12 20.51Q0.71 20.48 1.14 20.29Q1.56 20.10 1.83 19.86L1.83 19.86Q2.11 19.43 2.40 18.89Q2.70 18.35 2.94 17.78Q3.18 17.21 3.33 16.65Q3.48 16.08 3.48 15.59L3.48 15.59Q3.48 15.39 3.42 15.19Q3.36 14.99 3.22 14.94L3.22 14.94Q3.57 14.85 3.93 14.43Q4.28 14.00 4.61 13.38Q4.93 12.76 5.21 12Q5.50 11.24 5.71 10.46Q5.92 9.68 6.04 8.94Q6.15 8.20 6.15 7.63L6.15 7.63Q6.15 7.43 6.13 7.24Q6.11 7.05 6.11 6.93L6.11 6.93Q6.11 6.87 6.11 6.82Q6.12 6.77 6.12 6.68L6.12 6.68Q6.39 6.79 6.79 6.86Q7.20 6.94 7.70 6.99Q8.20 7.04 8.78 7.07Q9.35 7.09 9.97 7.09L9.97 7.09Q10.51 7.09 11.07 7.07Q11.64 7.04 12.16 6.99Q12.69 6.94 13.15 6.86Q13.61 6.79 13.91 6.68L13.91 6.68L13.91 6.73L13.91 6.83Q13.91 6.96 13.88 7.15Q13.85 7.35 13.85 7.58L13.85 7.58Q13.85 8.12 13.95 8.85Q14.05 9.57 14.23 10.35Q14.40 11.13 14.65 11.90Q14.91 12.67 15.21 13.31Q15.52 13.95 15.87 14.38Q16.22 14.82 16.61 14.94L16.61 14.94Q16.44 15 16.38 15.17Q16.31 15.34 16.31 15.59L16.31 15.59Q16.31 16.08 16.46 16.65Q16.61 17.21 16.85 17.78Q17.09 18.35 17.37 18.88Q17.66 19.41 17.94 19.83L17.94 19.83Q18.12 19.93 18.36 20.05Q18.61 20.17 18.88 20.27Q19.15 20.38 19.42 20.44Q19.69 20.51 19.92 20.51L19.92 20.51Q19.86 20.79 19.83 21.16Q19.80 21.53 19.80 21.95L19.80 21.95Q19.80 22.41 19.84 22.83Q19.88 23.26 19.95 23.55L19.95 23.55Q19.52 23.51 18.97 23.46Q18.42 23.40 17.79 23.36Q17.16 23.32 16.48 23.29Q15.80 23.26 15.12 23.26L15.12 23.26Q13.88 23.26 12.76 23.34Q11.64 23.41 10.86 23.55L10.86 23.55Q10.90 23.36 10.93 22.93Q10.96 22.50 10.96 21.97L10.96 21.97Q10.96 21.75 10.95 21.52Q10.93 21.29 10.92 21.09Q10.91 20.89 10.89 20.74Q10.88 20.58 10.86 20.51L10.86 20.51Q11.07 20.51 11.31 20.49Q11.54 20.47 11.77 20.43Q12 20.38 12.21 20.30Q12.42 20.21 12.59 20.07L12.59 20.07Q12.56 19.61 12.43 19.27Q12.30 18.94 11.95 18.71Q11.59 18.49 10.95 18.39Q10.31 18.28 9.28 18.28L9.28 18.28Q8.36 18.28 7.74 18.35Q7.13 18.42 6.74 18.62Q6.36 18.81 6.18 19.15Q6 19.50 5.95 20.06L5.95 20.06Q6.13 20.20 6.38 20.29Q6.62 20.37 6.88 20.42Q7.15 20.47 7.41 20.49Q7.68 20.51 7.89 20.51L7.89 20.51Q7.86 20.58 7.85 20.73Q7.83 20.88 7.82 21.09Q7.80 21.29 7.80 21.53Q7.79 21.76 7.79 21.97L7.79 21.97Q7.79 22.50 7.82 22.93Q7.85 23.36 7.89 23.55L7.89 23.55Q7.00 23.39 6.08 23.33Q5.17 23.26 4.22 23.26L4.22 23.26Q3.12 23.26 2.08 23.33Q1.04 23.39 0.09 23.55ZM7.59 14.85L7.59 14.85Q7.59 15.19 7.67 15.41Q7.75 15.63 7.94 15.76Q8.13 15.89 8.47 15.94Q8.80 16.00 9.32 16.00L9.32 16.00Q9.83 16.00 10.17 15.94Q10.50 15.89 10.69 15.76Q10.89 15.63 10.96 15.41Q11.04 15.19 11.04 14.85L11.04 14.85Q11.04 14.44 10.83 13.84Q10.62 13.24 10.34 12.59Q10.05 11.93 9.76 11.27Q9.47 10.62 9.32 10.09L9.32 10.09Q9.14 10.62 8.85 11.27Q8.55 11.93 8.28 12.59Q8.00 13.24 7.80 13.84Q7.59 14.44 7.59 14.85ZM21.29 23.55L21.29 23.55Q21.39 23.25 21.42 22.83Q21.46 22.41 21.46 22.00L21.46 22.00Q21.46 21.62 21.41 21.25Q21.36 20.87 21.29 20.51L21.29 20.51Q21.95 20.51 22.38 20.45Q22.80 20.39 23.06 20.24Q23.32 20.10 23.42 19.83Q23.52 19.56 23.52 19.14L23.52 19.14L23.52 15.88Q23.51 15.38 23.39 15.08Q23.27 14.78 23.07 14.62Q22.86 14.46 22.56 14.41Q22.27 14.36 21.89 14.36L21.89 14.36L21.53 14.36Q21.62 14.12 21.69 13.71Q21.76 13.29 21.76 12.83L21.76 12.83Q21.76 12.39 21.70 11.98Q21.63 11.58 21.53 11.33L21.53 11.33Q21.87 11.38 22.34 11.40Q22.82 11.43 23.37 11.43L23.37 11.43Q23.93 11.43 24.53 11.40Q25.14 11.37 25.71 11.31Q26.29 11.25 26.79 11.14Q27.30 11.04 27.68 10.90L27.68 10.90Q27.60 11.13 27.57 11.37Q27.54 11.61 27.54 11.87L27.54 11.87Q27.54 12.23 27.59 12.60Q27.64 12.96 27.70 13.30L27.70 13.30Q28.21 13.16 28.76 12.90Q29.32 12.63 29.81 12.30Q30.29 11.98 30.63 11.61Q30.97 11.25 31.05 10.90L31.05 10.90Q31.39 11.10 31.94 11.20Q32.48 11.31 33.19 11.31L33.19 11.31Q33.47 11.31 33.77 11.29Q34.08 11.27 34.37 11.23Q34.65 11.19 34.89 11.11Q35.13 11.03 35.29 10.90L35.29 10.90Q35.19 11.13 35.14 11.48Q35.09 11.84 35.06 12.24Q35.03 12.64 35.02 13.06Q35.00 13.48 35.00 13.84L35.00 13.84Q35.00 14.20 35.03 14.67Q35.05 15.13 35.09 15.56Q35.12 15.98 35.17 16.30Q35.23 16.62 35.29 16.70L35.29 16.70Q34.90 16.61 34.32 16.54Q33.74 16.48 33.11 16.48L33.11 16.48Q32.47 16.48 31.91 16.54Q31.35 16.61 31.00 16.70L31.00 16.70Q31.00 15.45 30.71 14.94Q30.42 14.44 29.86 14.44L29.86 14.44Q29.58 14.44 29.24 14.60Q28.91 14.75 28.62 15.06Q28.34 15.36 28.13 15.80Q27.91 16.24 27.88 16.80L27.88 16.80L27.89 19.14Q27.89 19.56 28.13 19.83Q28.37 20.10 28.79 20.24Q29.21 20.39 29.80 20.45Q30.39 20.51 31.08 20.51L31.08 20.51Q31.01 20.75 30.97 21.12Q30.93 21.48 30.93 21.89L30.93 21.89Q30.93 22.34 30.96 22.79Q31.00 23.24 31.08 23.55L31.08 23.55Q30.70 23.50 30.15 23.44Q29.60 23.39 28.95 23.35Q28.29 23.31 27.55 23.29Q26.81 23.26 26.07 23.26L26.07 23.26Q25.51 23.26 24.81 23.28Q24.12 23.30 23.44 23.34Q22.76 23.38 22.18 23.43Q21.60 23.48 21.29 23.55ZM38.04 23.55L38.04 23.55Q38.12 23.44 38.17 23.24Q38.21 23.05 38.24 22.83Q38.26 22.61 38.27 22.39Q38.27 22.17 38.27 22.00L38.27 22.00Q38.27 21.82 38.26 21.62Q38.25 21.41 38.23 21.21Q38.20 21 38.16 20.82Q38.11 20.64 38.04 20.51L38.04 20.51Q38.63 20.51 38.98 20.41Q39.34 20.31 39.53 20.09Q39.73 19.88 39.79 19.54Q39.84 19.20 39.84 18.71L39.84 18.71L39.84 17.29Q39.84 16.89 39.79 16.49Q39.74 16.10 39.63 15.79Q39.53 15.47 39.36 15.25Q39.20 15.02 38.99 14.96L38.99 14.96Q39.47 14.80 39.65 14.17Q39.83 13.54 39.83 12.33L39.83 12.33Q39.84 12.20 39.84 12.07Q39.83 11.94 39.83 11.80L39.83 11.80L39.80 9.38Q39.79 8.87 39.67 8.57Q39.56 8.27 39.35 8.12Q39.14 7.96 38.84 7.90Q38.54 7.85 38.17 7.85L38.17 7.85L37.80 7.85Q37.90 7.62 37.97 7.20Q38.04 6.79 38.04 6.33L38.04 6.33Q38.04 5.88 37.97 5.47Q37.91 5.05 37.80 4.80L37.80 4.80Q38.03 4.84 38.34 4.86Q38.66 4.89 39.04 4.90Q39.41 4.92 39.83 4.93Q40.25 4.95 40.70 4.95L40.70 4.95Q41.30 4.95 41.91 4.92Q42.52 4.90 43.07 4.85Q43.63 4.80 44.10 4.72Q44.58 4.64 44.89 4.51L44.89 4.51Q44.66 4.97 44.51 5.53Q44.37 6.09 44.29 6.73Q44.20 7.36 44.18 8.05Q44.16 8.74 44.16 9.46L44.16 9.46L44.16 12.40Q44.72 12.20 45.12 11.81Q45.53 11.43 45.80 10.90L45.80 10.90Q45.93 10.99 46.18 11.07Q46.44 11.14 46.77 11.20Q47.10 11.25 47.48 11.28Q47.86 11.31 48.25 11.31L48.25 11.31Q48.57 11.31 48.89 11.29Q49.21 11.26 49.48 11.21Q49.76 11.17 49.97 11.09Q50.19 11.02 50.32 10.90L50.32 10.90Q50.52 11.32 50.93 11.74Q51.34 12.15 51.88 12.50Q52.42 12.84 53.05 13.08Q53.68 13.31 54.34 13.36L54.34 13.36Q54.20 13.66 54.01 14.61Q53.81 15.55 53.81 17.19L53.81 17.19Q53.81 18.02 53.87 18.67Q53.93 19.31 54.01 19.79Q54.08 20.26 54.18 20.57Q54.27 20.88 54.34 21.04L54.34 21.04Q53.68 21.08 53.05 21.35Q52.42 21.61 51.88 21.99Q51.34 22.37 50.93 22.82Q50.52 23.26 50.32 23.67L50.32 23.67Q49.91 23.51 49.26 23.38Q48.61 23.26 47.75 23.26L47.75 23.26Q46.88 23.26 46.21 23.38Q45.54 23.51 45.09 23.67L45.09 23.67Q45.04 23.43 44.91 23.14Q44.79 22.85 44.60 22.57Q44.41 22.29 44.17 22.04Q43.92 21.79 43.62 21.62L43.62 21.62Q43.22 22.03 42.97 22.56Q42.71 23.09 42.68 23.55L42.68 23.55Q42.49 23.51 42.27 23.46Q42.05 23.40 41.76 23.36Q41.47 23.32 41.11 23.29Q40.75 23.26 40.29 23.26L40.29 23.26Q39.39 23.26 38.88 23.35Q38.37 23.44 38.04 23.55ZM44.33 17.20L44.33 17.20Q44.33 17.94 44.43 18.59Q44.52 19.23 44.77 19.71Q45.01 20.19 45.45 20.47Q45.88 20.74 46.56 20.74L46.56 20.74Q47.85 20.74 48.38 19.87Q48.90 19.00 48.90 17.20L48.90 17.20Q48.90 16.30 48.78 15.66Q48.66 15.02 48.38 14.61Q48.09 14.20 47.65 14.02Q47.20 13.83 46.56 13.83L46.56 13.83Q45.88 13.83 45.45 14.08Q45.01 14.33 44.77 14.78Q44.52 15.23 44.43 15.85Q44.33 16.46 44.33 17.20ZM57.82 21.14L57.82 21.14Q58.20 20.67 58.34 19.95Q58.48 19.22 58.46 18.20L58.46 18.20L58.44 15.88Q58.43 15.38 58.32 15.08Q58.22 14.78 58.02 14.62Q57.82 14.46 57.53 14.41Q57.23 14.36 56.86 14.36L56.86 14.36L56.50 14.36Q56.59 14.12 56.66 13.71Q56.73 13.29 56.73 12.83L56.73 12.83Q56.73 12.39 56.67 11.97Q56.60 11.55 56.50 11.31L56.50 11.31Q56.86 11.37 57.43 11.39Q58.01 11.41 58.70 11.41L58.70 11.41Q59.36 11.41 60.06 11.38Q60.77 11.36 61.43 11.30Q62.09 11.24 62.65 11.14Q63.21 11.04 63.59 10.90L63.59 10.90Q63.35 11.36 63.21 11.94Q63.06 12.52 62.98 13.17Q62.89 13.83 62.87 14.54Q62.85 15.25 62.85 15.96L62.85 15.96L62.85 18Q62.85 18.46 62.91 18.88Q62.96 19.30 63.14 19.63Q63.32 19.97 63.63 20.17Q63.95 20.37 64.46 20.37L64.46 20.37Q64.99 20.37 65.54 20.26Q66.08 20.16 66.53 19.89Q66.98 19.63 67.27 19.18Q67.55 18.74 67.55 18.07L67.55 18.07L67.55 15.88Q67.54 15.43 67.47 15.14Q67.41 14.85 67.22 14.67Q67.03 14.50 66.70 14.43Q66.36 14.36 65.80 14.36L65.80 14.36L65.55 14.36Q65.65 14.12 65.72 13.71Q65.79 13.29 65.79 12.83L65.79 12.83Q65.79 12.39 65.72 11.97Q65.66 11.55 65.55 11.31L65.55 11.31Q65.92 11.37 66.49 11.39Q67.07 11.41 67.76 11.41L67.76 11.41Q68.41 11.41 69.12 11.38Q69.83 11.36 70.49 11.30Q71.14 11.24 71.71 11.14Q72.27 11.04 72.64 10.90L72.64 10.90Q72.40 11.18 72.25 11.57Q72.09 11.96 72.02 12.44Q71.94 12.91 71.92 13.45Q71.89 13.99 71.89 14.54L71.89 14.54Q71.89 14.91 71.90 15.26Q71.91 15.62 71.91 15.96L71.91 15.96L71.89 18.98Q71.89 19.46 71.92 19.76Q71.95 20.06 72.13 20.23Q72.30 20.39 72.69 20.45Q73.07 20.51 73.77 20.51L73.77 20.51Q73.68 20.78 73.62 21.17Q73.57 21.56 73.57 21.96L73.57 21.96Q73.57 22.41 73.61 22.85Q73.65 23.29 73.77 23.55L73.77 23.55Q73.49 23.43 72.86 23.34Q72.22 23.26 71.47 23.26L71.47 23.26Q70.63 23.26 69.94 23.34Q69.25 23.43 68.87 23.55L68.87 23.55Q68.87 23.14 68.79 22.83Q68.72 22.51 68.60 22.27Q68.48 22.02 68.33 21.84Q68.18 21.67 68.03 21.54L68.03 21.54Q67.54 21.63 67.08 21.86Q66.62 22.08 66.24 22.37Q65.86 22.65 65.59 22.97Q65.32 23.29 65.21 23.55L65.21 23.55Q65.12 23.48 64.86 23.43Q64.59 23.38 64.25 23.34Q63.90 23.30 63.52 23.28Q63.13 23.26 62.78 23.26L62.78 23.26Q62.43 23.26 62.04 23.28Q61.66 23.30 61.30 23.34Q60.94 23.38 60.64 23.43Q60.34 23.48 60.16 23.55L60.16 23.55Q60.06 23.14 59.84 22.75Q59.63 22.36 59.32 22.03Q59.02 21.70 58.63 21.47Q58.25 21.23 57.82 21.14ZM76.27 21.14L76.27 21.14Q76.65 20.67 76.78 19.95Q76.91 19.22 76.91 18.20L76.91 18.20L76.91 14.81Q76.90 14.60 76.85 14.43Q76.79 14.26 76.67 14.14Q76.55 14.02 76.34 13.95Q76.13 13.88 75.81 13.88L75.81 13.88Q75.63 13.88 75.43 13.90Q75.22 13.92 74.96 13.97L74.96 13.97Q75.02 13.63 75.05 13.23Q75.07 12.83 75.07 12.42L75.07 12.42Q75.07 12.05 75.05 11.68Q75.02 11.32 74.96 11.02L74.96 11.02Q75.08 11.10 75.26 11.15Q75.43 11.20 75.61 11.24Q75.79 11.27 75.94 11.29Q76.09 11.31 76.17 11.31L76.17 11.31Q76.51 11.31 76.68 11.04Q76.85 10.78 76.85 10.13L76.85 10.13Q76.85 10.02 76.85 9.83Q76.84 9.64 76.83 9.45Q76.82 9.25 76.79 9.07Q76.76 8.89 76.71 8.80L76.71 8.80Q76.80 8.82 76.90 8.82Q76.99 8.82 77.10 8.82L77.10 8.82Q77.70 8.82 78.36 8.63Q79.02 8.43 79.65 8.19Q80.27 7.96 80.81 7.76Q81.35 7.56 81.70 7.56L81.70 7.56Q81.61 7.84 81.55 8.18Q81.49 8.52 81.46 8.86Q81.42 9.20 81.40 9.52Q81.39 9.84 81.39 10.07L81.39 10.07Q81.39 10.45 81.48 10.69Q81.57 10.93 81.81 11.07Q82.05 11.20 82.48 11.26Q82.91 11.31 83.58 11.31L83.58 11.31Q83.86 11.31 84.24 11.30Q84.62 11.30 85.03 11.27Q85.44 11.24 85.85 11.18Q86.25 11.12 86.59 11.02L86.59 11.02Q86.47 11.32 86.43 11.73Q86.38 12.14 86.38 12.57L86.38 12.57Q86.38 13.07 86.43 13.49Q86.47 13.91 86.59 14.24L86.59 14.24Q86.19 14.20 85.72 14.16Q85.24 14.11 84.77 14.07Q84.30 14.03 83.91 14.00Q83.51 13.97 83.26 13.97L83.26 13.97Q82.68 13.97 82.29 14.02Q81.91 14.07 81.69 14.19Q81.47 14.30 81.38 14.47Q81.29 14.64 81.29 14.86L81.29 14.86L81.29 18Q81.29 18.46 81.35 18.97Q81.40 19.48 81.54 19.91Q81.68 20.34 81.93 20.63Q82.17 20.92 82.56 20.92L82.56 20.92Q82.98 20.92 83.27 20.75Q83.55 20.58 83.73 20.27Q83.91 19.97 83.98 19.55Q84.06 19.14 84.06 18.63L84.06 18.63Q84.32 18.69 84.75 18.75Q85.18 18.81 85.64 18.81L85.64 18.81Q86.09 18.81 86.48 18.75Q86.87 18.69 87.08 18.63L87.08 18.63Q86.99 18.89 86.95 19.35Q86.91 19.82 86.91 20.34L86.91 20.34Q86.91 20.87 86.94 21.33Q86.98 21.79 87.08 22.01L87.08 22.01L86.96 22.01Q86.53 22.01 86.03 22.14Q85.54 22.28 85.08 22.50Q84.62 22.72 84.24 23.00Q83.86 23.27 83.66 23.55L83.66 23.55Q83.57 23.48 83.30 23.43Q83.04 23.38 82.69 23.34Q82.35 23.30 81.96 23.28Q81.57 23.26 81.22 23.26L81.22 23.26Q80.87 23.26 80.49 23.28Q80.11 23.30 79.75 23.34Q79.38 23.38 79.08 23.43Q78.79 23.48 78.61 23.55L78.61 23.55Q78.50 23.14 78.29 22.75Q78.07 22.36 77.77 22.03Q77.46 21.70 77.08 21.47Q76.70 21.23 76.27 21.14ZM89.85 21.14L89.85 21.14Q90.22 20.67 90.36 19.95Q90.50 19.22 90.49 18.20L90.49 18.20L90.47 15.88Q90.46 15.38 90.35 15.08Q90.25 14.78 90.05 14.62Q89.85 14.46 89.55 14.41Q89.26 14.36 88.89 14.36L88.89 14.36L88.52 14.36Q88.62 14.12 88.69 13.71Q88.76 13.29 88.76 12.83L88.76 12.83Q88.76 12.39 88.69 11.97Q88.63 11.55 88.52 11.31L88.52 11.31Q88.89 11.37 89.46 11.39Q90.04 11.41 90.73 11.41L90.73 11.41Q91.38 11.41 92.09 11.38Q92.80 11.36 93.46 11.30Q94.11 11.24 94.68 11.14Q95.24 11.04 95.61 10.90L95.61 10.90Q95.38 11.36 95.23 11.94Q95.09 12.52 95.00 13.17Q94.92 13.83 94.90 14.54Q94.88 15.25 94.88 15.96L94.88 15.96L94.88 18Q94.88 18.46 94.93 18.88Q94.99 19.30 95.17 19.63Q95.34 19.97 95.66 20.17Q95.98 20.37 96.49 20.37L96.49 20.37Q97.02 20.37 97.56 20.26Q98.11 20.16 98.56 19.89Q99.01 19.63 99.29 19.18Q99.57 18.74 99.57 18.07L99.57 18.07L99.57 15.88Q99.56 15.43 99.50 15.14Q99.43 14.85 99.25 14.67Q99.06 14.50 98.72 14.43Q98.39 14.36 97.83 14.36L97.83 14.36L97.58 14.36Q97.68 14.12 97.75 13.71Q97.82 13.29 97.82 12.83L97.82 12.83Q97.82 12.39 97.75 11.97Q97.69 11.55 97.58 11.31L97.58 11.31Q97.95 11.37 98.52 11.39Q99.09 11.41 99.79 11.41L99.79 11.41Q100.44 11.41 101.15 11.38Q101.86 11.36 102.52 11.30Q103.17 11.24 103.73 11.14Q104.30 11.04 104.67 10.90L104.67 10.90Q104.43 11.18 104.27 11.57Q104.12 11.96 104.04 12.44Q103.97 12.91 103.95 13.45Q103.92 13.99 103.92 14.54L103.92 14.54Q103.92 14.91 103.93 15.26Q103.93 15.62 103.93 15.96L103.93 15.96L103.92 18.98Q103.92 19.46 103.95 19.76Q103.98 20.06 104.16 20.23Q104.33 20.39 104.71 20.45Q105.09 20.51 105.80 20.51L105.80 20.51Q105.70 20.78 105.65 21.17Q105.60 21.56 105.60 21.96L105.60 21.96Q105.60 22.41 105.64 22.85Q105.68 23.29 105.80 23.55L105.80 23.55Q105.52 23.43 104.88 23.34Q104.25 23.26 103.50 23.26L103.50 23.26Q102.66 23.26 101.96 23.34Q101.27 23.43 100.90 23.55L100.90 23.55Q100.90 23.14 100.82 22.83Q100.75 22.51 100.63 22.27Q100.51 22.02 100.36 21.84Q100.21 21.67 100.05 21.54L100.05 21.54Q99.56 21.63 99.11 21.86Q98.65 22.08 98.27 22.37Q97.89 22.65 97.62 22.97Q97.35 23.29 97.24 23.55L97.24 23.55Q97.15 23.48 96.88 23.43Q96.62 23.38 96.28 23.34Q95.93 23.30 95.54 23.28Q95.16 23.26 94.80 23.26L94.80 23.26Q94.45 23.26 94.07 23.28Q93.69 23.30 93.33 23.34Q92.96 23.38 92.67 23.43Q92.37 23.48 92.19 23.55L92.19 23.55Q92.09 23.14 91.87 22.75Q91.65 22.36 91.35 22.03Q91.04 21.70 90.66 21.47Q90.28 21.23 89.85 21.14ZM107.33 23.30L107.33 23.30Q107.43 23.05 107.48 22.55Q107.53 22.05 107.53 21.45L107.53 21.45Q107.53 20.95 107.47 20.45Q107.41 19.95 107.33 19.63L107.33 19.63Q107.47 19.70 107.74 19.75Q108 19.80 108.32 19.85Q108.64 19.89 109.00 19.90Q109.36 19.92 109.69 19.92L109.69 19.92Q110.32 19.92 110.87 19.85Q111.41 19.77 111.74 19.63L111.74 19.63Q111.74 19.97 111.84 20.27Q111.94 20.57 112.15 20.79Q112.37 21.02 112.72 21.16Q113.06 21.29 113.54 21.29L113.54 21.29Q114.18 21.29 114.56 21.05Q114.94 20.80 114.94 20.24L114.94 20.24Q114.94 19.79 114.64 19.46Q114.34 19.14 113.81 18.92Q113.27 18.70 112.54 18.60Q111.80 18.49 110.93 18.49L110.93 18.49Q110.66 18.49 110.34 18.50Q110.02 18.50 109.71 18.53Q109.41 18.55 109.15 18.59Q108.90 18.63 108.79 18.69L108.79 18.69Q108.79 18.39 108.57 18.05Q108.35 17.71 108.05 17.41Q107.74 17.12 107.41 16.91Q107.07 16.70 106.84 16.65L106.84 16.65Q106.93 16.55 107.00 16.36Q107.07 16.17 107.12 15.93Q107.17 15.69 107.19 15.43Q107.21 15.16 107.21 14.92L107.21 14.92Q107.21 14.39 107.13 13.88Q107.04 13.37 106.84 13.07L106.84 13.07Q107.26 12.98 107.68 12.78Q108.11 12.57 108.47 12.29Q108.84 12 109.13 11.64Q109.42 11.29 109.56 10.90L109.56 10.90Q109.68 10.97 110.03 11.04Q110.38 11.11 110.86 11.17Q111.34 11.23 111.89 11.26Q112.44 11.30 112.96 11.30L112.96 11.30Q113.91 11.30 114.47 11.13Q115.03 10.97 115.18 10.66L115.18 10.66Q115.35 10.89 115.68 11.06Q116.02 11.23 116.42 11.34Q116.82 11.45 117.26 11.50Q117.69 11.55 118.08 11.55L118.08 11.55Q118.31 11.55 118.51 11.53Q118.70 11.51 118.85 11.47L118.85 11.47Q118.82 11.72 118.79 11.92Q118.76 12.13 118.74 12.32Q118.72 12.52 118.71 12.71Q118.70 12.91 118.70 13.15L118.70 13.15Q118.70 13.59 118.73 14.03Q118.76 14.46 118.85 14.80L118.85 14.80Q118.65 14.67 118.18 14.62Q117.70 14.57 117.11 14.57L117.11 14.57Q116.78 14.57 116.43 14.58Q116.09 14.60 115.79 14.63Q115.49 14.66 115.26 14.70Q115.03 14.74 114.94 14.80L114.94 14.80Q114.94 14.03 114.40 13.59Q113.86 13.15 112.97 13.15L112.97 13.15Q112.23 13.15 111.93 13.41Q111.63 13.68 111.63 14.07L111.63 14.07Q111.63 14.46 112.03 14.81Q112.42 15.16 113.06 15.43Q113.71 15.69 114.52 15.84Q115.32 16.00 116.17 16.00L116.17 16.00Q116.38 16.00 116.60 15.98Q116.81 15.97 117.01 15.95Q117.21 15.93 117.38 15.88Q117.55 15.84 117.66 15.79L117.66 15.79Q117.69 16.14 117.92 16.48Q118.15 16.82 118.46 17.11Q118.77 17.40 119.09 17.62Q119.41 17.84 119.65 17.93L119.65 17.93Q119.50 18.16 119.41 18.64Q119.32 19.11 119.32 19.65L119.32 19.65Q119.32 20.14 119.39 20.60Q119.46 21.05 119.65 21.30L119.65 21.30Q119.23 21.42 118.82 21.62Q118.42 21.82 118.07 22.09Q117.71 22.36 117.43 22.69Q117.14 23.03 116.96 23.41L116.96 23.41Q116.50 23.25 115.65 23.13Q114.81 23.02 113.71 23.02L113.71 23.02Q113.21 23.02 112.86 23.05Q112.51 23.09 112.27 23.15Q112.02 23.21 111.86 23.31Q111.69 23.40 111.59 23.53L111.59 23.53Q111.41 23.43 111.15 23.35Q110.88 23.27 110.56 23.23Q110.24 23.18 109.89 23.16Q109.55 23.13 109.22 23.13L109.22 23.13Q108.62 23.13 108.13 23.16Q107.64 23.18 107.33 23.30ZM130.83 18.75L130.83 18.75Q130.88 18.63 130.89 18.47Q130.91 18.32 130.91 18.13L130.91 18.13Q130.91 17.72 130.83 17.28Q130.75 16.84 130.63 16.42Q130.51 16.01 130.38 15.66Q130.24 15.30 130.13 15.07L130.13 15.07Q130.65 14.88 131.33 14.31Q132.01 13.75 132.73 12.96Q133.44 12.18 134.13 11.27Q134.82 10.36 135.36 9.49Q135.90 8.63 136.23 7.88Q136.56 7.14 136.56 6.68L136.56 6.68Q136.68 6.73 136.92 6.78Q137.17 6.83 137.48 6.87Q137.80 6.91 138.18 6.94Q138.55 6.97 138.94 6.97L138.94 6.97Q139.28 6.97 139.73 6.94Q140.19 6.91 140.65 6.86Q141.11 6.81 141.51 6.73Q141.91 6.66 142.15 6.56L142.15 6.56Q142.00 6.80 141.93 7.31Q141.87 7.82 141.87 8.41L141.87 8.41Q141.87 8.84 141.90 9.25Q141.93 9.67 141.99 10.01Q142.05 10.36 142.14 10.60Q142.23 10.84 142.34 10.91L142.34 10.91Q142.10 10.89 141.89 10.88Q141.68 10.86 141.48 10.86L141.48 10.86Q140.95 10.86 140.53 10.95Q140.11 11.04 139.72 11.20Q139.34 11.36 138.96 11.58Q138.59 11.80 138.14 12.07L138.14 12.07Q136.93 12.81 136.27 13.79Q135.61 14.78 135.46 15.77L135.46 15.77Q135.89 15.89 136.19 15.92Q136.49 15.95 136.76 15.95L136.76 15.95Q137.87 15.95 138.51 15.91Q139.15 15.87 139.46 15.70Q139.78 15.54 139.86 15.21Q139.95 14.88 139.95 14.30L139.95 14.30Q139.95 13.89 139.93 13.49Q139.91 13.10 139.82 12.66L139.82 12.66Q140.10 12.75 140.36 12.81Q140.63 12.87 140.89 12.90Q141.15 12.93 141.43 12.94Q141.71 12.95 142.04 12.95L142.04 12.95Q142.46 12.95 142.77 12.93Q143.07 12.90 143.31 12.86Q143.55 12.82 143.77 12.77Q143.98 12.71 144.22 12.66L144.22 12.66Q144.15 13.28 144.05 13.75Q143.95 14.23 143.95 14.65L143.95 14.65Q143.95 14.96 143.97 15.21Q143.99 15.46 144.10 15.63Q144.21 15.81 144.46 15.90Q144.71 16.00 145.20 16.00L145.20 16.00Q145.32 16.00 145.54 16.00Q145.75 16.00 145.99 15.99Q146.23 15.98 146.48 15.97Q146.73 15.96 146.94 15.94L146.94 15.94Q146.86 16.15 146.81 16.55Q146.77 16.96 146.77 17.52L146.77 17.52Q146.77 17.79 146.78 17.98Q146.79 18.16 146.82 18.29Q146.85 18.42 146.88 18.52Q146.91 18.61 146.94 18.69L146.94 18.69Q146.34 18.60 145.91 18.56Q145.48 18.53 145.18 18.53L145.18 18.53Q144.64 18.53 144.29 18.65Q143.94 18.77 143.94 19.14L143.94 19.14L143.94 19.77Q143.94 20.25 144.57 20.38Q145.20 20.51 146.48 20.51L146.48 20.51Q146.43 20.79 146.37 21.17Q146.31 21.55 146.31 21.96L146.31 21.96Q146.31 22.39 146.36 22.83Q146.40 23.26 146.48 23.55L146.48 23.55Q146.10 23.50 145.40 23.44Q144.70 23.39 143.88 23.35Q143.05 23.31 142.18 23.29Q141.30 23.26 140.58 23.26L140.58 23.26Q139.72 23.26 139.04 23.28Q138.36 23.30 137.80 23.34Q137.24 23.38 136.78 23.43Q136.31 23.48 135.91 23.55L135.91 23.55Q136.00 23.26 136.04 22.83Q136.09 22.39 136.09 21.96L136.09 21.96Q136.09 21.55 136.05 21.17Q136.01 20.79 135.91 20.51L135.91 20.51Q137.09 20.51 137.83 20.48Q138.57 20.46 139.00 20.38Q139.43 20.30 139.59 20.16Q139.75 20.02 139.75 19.77L139.75 19.77L139.73 18.67Q139.38 18.62 138.97 18.59Q138.55 18.55 138.09 18.53Q137.63 18.52 137.14 18.51Q136.65 18.50 136.18 18.50L136.18 18.50Q135.25 18.50 134.54 18.51Q133.83 18.52 133.30 18.53Q132.77 18.55 132.39 18.57Q132.01 18.59 131.73 18.62Q131.45 18.64 131.24 18.68Q131.03 18.71 130.83 18.75ZM149.41 20.41L149.41 20.41Q149.52 20.17 149.63 19.76Q149.73 19.36 149.82 18.85Q149.91 18.34 149.96 17.76Q150.01 17.18 150.01 16.59L150.01 16.59Q150.01 15.86 149.81 15.46Q149.61 15.07 149.24 14.94L149.24 14.94Q149.45 14.88 149.60 14.67Q149.75 14.46 149.86 14.16Q149.96 13.85 150.01 13.48Q150.06 13.11 150.06 12.73L150.06 12.73Q150.06 11.72 149.89 10.94Q149.72 10.16 149.41 9.82L149.41 9.82L149.48 9.82Q149.81 9.82 150.21 9.64Q150.61 9.47 151.01 9.18Q151.41 8.89 151.79 8.54Q152.17 8.18 152.47 7.80Q152.77 7.43 152.96 7.07Q153.15 6.71 153.18 6.45L153.18 6.45Q153.38 6.55 153.80 6.66Q154.23 6.77 154.82 6.87Q155.41 6.97 156.14 7.03Q156.87 7.09 157.68 7.09L157.68 7.09Q158.48 7.09 159.21 7.03Q159.94 6.97 160.53 6.87Q161.12 6.77 161.55 6.66Q161.98 6.55 162.18 6.45L162.18 6.45Q162.20 6.71 162.39 7.07Q162.57 7.43 162.87 7.80Q163.17 8.18 163.55 8.54Q163.93 8.89 164.33 9.18Q164.73 9.47 165.13 9.64Q165.53 9.82 165.86 9.82L165.86 9.82L165.94 9.82Q165.63 10.16 165.46 10.94Q165.29 11.72 165.29 12.73L165.29 12.73Q165.29 13.11 165.34 13.48Q165.39 13.85 165.49 14.16Q165.60 14.46 165.75 14.67Q165.90 14.88 166.11 14.94L166.11 14.94Q165.74 15.07 165.54 15.46Q165.34 15.86 165.34 16.59L165.34 16.59Q165.34 17.18 165.39 17.76Q165.45 18.34 165.53 18.85Q165.62 19.36 165.73 19.76Q165.83 20.17 165.94 20.41L165.94 20.41Q165.42 20.48 164.82 20.81Q164.23 21.14 163.69 21.62Q163.15 22.10 162.75 22.67Q162.35 23.24 162.25 23.79L162.25 23.79Q162.05 23.68 161.61 23.59Q161.17 23.50 160.56 23.42Q159.96 23.34 159.22 23.30Q158.48 23.26 157.68 23.26L157.68 23.26Q156.87 23.26 156.13 23.30Q155.39 23.34 154.78 23.42Q154.17 23.50 153.74 23.59Q153.30 23.68 153.11 23.79L153.11 23.79Q153 23.24 152.60 22.67Q152.20 22.10 151.66 21.62Q151.13 21.14 150.52 20.81Q149.92 20.48 149.41 20.41ZM157.68 20.98L157.68 20.98Q158.31 20.98 158.84 20.75Q159.36 20.52 159.74 19.89Q160.13 19.27 160.34 18.17Q160.55 17.07 160.55 15.33L160.55 15.33Q160.55 13.96 160.44 12.98Q160.32 12.01 160.13 11.35Q159.94 10.69 159.67 10.29Q159.40 9.90 159.08 9.70Q158.75 9.49 158.40 9.43Q158.04 9.38 157.68 9.38L157.68 9.38Q157.30 9.38 156.95 9.43Q156.60 9.49 156.28 9.70Q155.95 9.90 155.68 10.29Q155.41 10.69 155.22 11.35Q155.03 12.01 154.92 12.98Q154.80 13.96 154.80 15.33L154.80 15.33Q154.80 17.07 155.02 18.17Q155.23 19.27 155.61 19.89Q155.99 20.52 156.52 20.75Q157.04 20.98 157.68 20.98ZM169.31 20.41L169.31 20.41Q169.42 20.17 169.52 19.76Q169.63 19.36 169.72 18.85Q169.80 18.34 169.86 17.76Q169.91 17.18 169.91 16.59L169.91 16.59Q169.91 15.86 169.71 15.46Q169.51 15.07 169.14 14.94L169.14 14.94Q169.35 14.88 169.50 14.67Q169.65 14.46 169.76 14.16Q169.86 13.85 169.91 13.48Q169.96 13.11 169.96 12.73L169.96 12.73Q169.96 11.72 169.79 10.94Q169.62 10.16 169.31 9.82L169.31 9.82L169.38 9.82Q169.71 9.82 170.11 9.64Q170.51 9.47 170.91 9.18Q171.30 8.89 171.69 8.54Q172.07 8.18 172.37 7.80Q172.66 7.43 172.86 7.07Q173.05 6.71 173.07 6.45L173.07 6.45Q173.27 6.55 173.70 6.66Q174.13 6.77 174.72 6.87Q175.31 6.97 176.04 7.03Q176.77 7.09 177.57 7.09L177.57 7.09Q178.38 7.09 179.11 7.03Q179.84 6.97 180.43 6.87Q181.02 6.77 181.45 6.66Q181.88 6.55 182.07 6.45L182.07 6.45Q182.10 6.71 182.29 7.07Q182.47 7.43 182.77 7.80Q183.07 8.18 183.45 8.54Q183.83 8.89 184.23 9.18Q184.63 9.47 185.03 9.64Q185.43 9.82 185.75 9.82L185.75 9.82L185.84 9.82Q185.53 10.16 185.36 10.94Q185.19 11.72 185.19 12.73L185.19 12.73Q185.19 13.11 185.24 13.48Q185.29 13.85 185.39 14.16Q185.50 14.46 185.65 14.67Q185.80 14.88 186.01 14.94L186.01 14.94Q185.64 15.07 185.44 15.46Q185.24 15.86 185.24 16.59L185.24 16.59Q185.24 17.18 185.29 17.76Q185.34 18.34 185.43 18.85Q185.52 19.36 185.63 19.76Q185.73 20.17 185.84 20.41L185.84 20.41Q185.32 20.48 184.72 20.81Q184.13 21.14 183.59 21.62Q183.05 22.10 182.65 22.67Q182.25 23.24 182.14 23.79L182.14 23.79Q181.95 23.68 181.51 23.59Q181.07 23.50 180.46 23.42Q179.86 23.34 179.12 23.30Q178.38 23.26 177.57 23.26L177.57 23.26Q176.77 23.26 176.03 23.30Q175.29 23.34 174.68 23.42Q174.07 23.50 173.64 23.59Q173.20 23.68 173.00 23.79L173.00 23.79Q172.90 23.24 172.50 22.67Q172.10 22.10 171.56 21.62Q171.02 21.14 170.42 20.81Q169.82 20.48 169.31 20.41ZM177.57 20.98L177.57 20.98Q178.21 20.98 178.73 20.75Q179.26 20.52 179.64 19.89Q180.02 19.27 180.23 18.17Q180.45 17.07 180.45 15.33L180.45 15.33Q180.45 13.96 180.33 12.98Q180.22 12.01 180.03 11.35Q179.84 10.69 179.57 10.29Q179.30 9.90 178.97 9.70Q178.65 9.49 178.29 9.43Q177.94 9.38 177.57 9.38L177.57 9.38Q177.20 9.38 176.85 9.43Q176.50 9.49 176.17 9.70Q175.85 9.90 175.58 10.29Q175.31 10.69 175.12 11.35Q174.93 12.01 174.81 12.98Q174.70 13.96 174.70 15.33L174.70 15.33Q174.70 17.07 174.91 18.17Q175.13 19.27 175.51 19.89Q175.89 20.52 176.41 20.75Q176.94 20.98 177.57 20.98ZM198.97 23.55L198.97 23.55Q199.07 23.25 199.10 22.83Q199.14 22.41 199.14 22.00L199.14 22.00Q199.14 21.62 199.09 21.25Q199.04 20.87 198.97 20.51L198.97 20.51Q199.63 20.51 200.06 20.45Q200.48 20.39 200.74 20.24Q201 20.10 201.10 19.83Q201.20 19.56 201.20 19.14L201.20 19.14L201.20 15.88Q201.19 15.38 201.07 15.08Q200.95 14.78 200.75 14.62Q200.54 14.46 200.24 14.41Q199.95 14.36 199.57 14.36L199.57 14.36L199.21 14.36Q199.30 14.12 199.37 13.71Q199.44 13.29 199.44 12.83L199.44 12.83Q199.44 12.39 199.38 11.98Q199.31 11.58 199.21 11.33L199.21 11.33Q199.64 11.39 200.27 11.43Q200.91 11.46 201.61 11.46L201.61 11.46Q202.13 11.46 202.65 11.44Q203.17 11.41 203.66 11.36Q204.15 11.31 204.59 11.23Q205.02 11.14 205.36 11.02L205.36 11.02Q205.28 11.25 205.25 11.49Q205.22 11.73 205.22 11.98L205.22 11.98Q205.22 12.32 205.27 12.64Q205.31 12.97 205.37 13.29L205.37 13.29Q205.89 13.13 206.22 12.83Q206.55 12.53 206.76 12.19Q206.96 11.85 207.08 11.50Q207.19 11.16 207.26 10.90L207.26 10.90Q207.41 10.99 207.72 11.07Q208.03 11.14 208.44 11.20Q208.84 11.25 209.30 11.28Q209.75 11.31 210.19 11.31L210.19 11.31Q210.57 11.31 210.97 11.29Q211.37 11.26 211.72 11.21Q212.07 11.16 212.36 11.08Q212.64 11.00 212.78 10.90L212.78 10.90Q213.15 11.89 213.72 12.59Q214.29 13.28 215.24 13.56L215.24 13.56Q215.05 13.79 214.91 14.06Q214.77 14.33 214.67 14.68Q214.57 15.02 214.52 15.47Q214.48 15.91 214.48 16.50L214.48 16.50L214.48 19.14Q214.48 19.56 214.60 19.83Q214.72 20.10 214.97 20.24Q215.23 20.39 215.63 20.45Q216.04 20.51 216.60 20.51L216.60 20.51Q216.56 20.65 216.53 20.80Q216.49 20.95 216.47 21.15Q216.45 21.34 216.43 21.59Q216.41 21.84 216.41 22.18L216.41 22.18Q216.41 22.52 216.45 22.92Q216.49 23.32 216.60 23.55L216.60 23.55Q216.23 23.50 215.74 23.44Q215.24 23.39 214.67 23.35Q214.10 23.31 213.49 23.29Q212.87 23.26 212.27 23.26L212.27 23.26Q211.79 23.26 211.28 23.28Q210.77 23.30 210.29 23.34Q209.81 23.38 209.40 23.43Q208.98 23.48 208.70 23.55L208.70 23.55Q208.73 23.41 208.76 23.23Q208.79 23.04 208.81 22.82Q208.83 22.59 208.84 22.36Q208.85 22.13 208.85 21.91L208.85 21.91Q208.85 21.80 208.84 21.60Q208.83 21.40 208.81 21.19Q208.79 20.99 208.76 20.80Q208.73 20.61 208.70 20.51L208.70 20.51Q209.10 20.51 209.36 20.47Q209.63 20.43 209.79 20.29Q209.95 20.14 210.02 19.87Q210.09 19.59 210.09 19.14L210.09 19.14L210.09 16.70Q210.09 16.24 210 15.83Q209.91 15.42 209.71 15.11Q209.52 14.80 209.21 14.62Q208.91 14.44 208.48 14.44L208.48 14.44Q208.18 14.44 207.70 14.54Q207.21 14.64 206.74 14.88Q206.26 15.12 205.92 15.52Q205.57 15.93 205.57 16.52L205.57 16.52L205.56 16.52L205.57 19.14Q205.57 19.90 206.04 20.20Q206.51 20.51 207.35 20.51L207.35 20.51Q207.28 20.75 207.24 21.12Q207.20 21.48 207.20 21.89L207.20 21.89Q207.20 22.34 207.23 22.79Q207.27 23.24 207.35 23.55L207.35 23.55Q206.60 23.44 205.57 23.35Q204.54 23.26 203.05 23.26L203.05 23.26Q202.49 23.26 201.90 23.28Q201.30 23.30 200.76 23.34Q200.21 23.38 199.75 23.43Q199.28 23.48 198.97 23.55ZM218.65 21.61L218.65 21.61Q218.78 21.42 218.89 21.13Q219.01 20.84 219.10 20.36Q219.19 19.89 219.24 19.19Q219.29 18.49 219.29 17.48L219.29 17.48Q219.29 16.43 219.24 15.77Q219.19 15.12 219.10 14.70Q219.01 14.29 218.89 14.03Q218.78 13.77 218.66 13.52L218.66 13.52Q219.13 13.48 219.73 13.25Q220.32 13.02 220.88 12.67Q221.44 12.32 221.87 11.86Q222.30 11.40 222.45 10.90L222.45 10.90Q222.66 10.99 223.05 11.07Q223.45 11.14 223.98 11.20Q224.51 11.25 225.13 11.28Q225.75 11.31 226.42 11.31L226.42 11.31Q227.03 11.31 227.60 11.27Q228.18 11.23 228.66 11.17Q229.14 11.11 229.49 11.04Q229.84 10.97 230.02 10.90L230.02 10.90Q230.16 11.40 230.60 11.86Q231.05 12.32 231.62 12.67Q232.18 13.02 232.78 13.25Q233.37 13.48 233.80 13.52L233.80 13.52Q233.68 13.76 233.57 14.01Q233.46 14.26 233.37 14.68Q233.29 15.09 233.23 15.74Q233.18 16.39 233.18 17.43L233.18 17.43Q233.18 18.45 233.21 19.15Q233.25 19.86 233.32 20.34Q233.39 20.82 233.51 21.12Q233.64 21.41 233.81 21.61L233.81 21.61Q233.52 21.61 233.14 21.70Q232.77 21.79 232.37 21.93Q231.96 22.08 231.57 22.28Q231.18 22.48 230.85 22.71Q230.52 22.93 230.29 23.18Q230.05 23.43 229.97 23.67L229.97 23.67Q229.75 23.59 229.37 23.52Q229.00 23.45 228.50 23.39Q228.01 23.33 227.43 23.30Q226.84 23.26 226.20 23.26L226.20 23.26Q225.56 23.26 224.98 23.30Q224.40 23.33 223.92 23.38Q223.43 23.44 223.06 23.51Q222.69 23.59 222.49 23.67L222.49 23.67Q222.29 23.24 221.82 22.86Q221.36 22.49 220.79 22.21Q220.23 21.93 219.65 21.77Q219.07 21.61 218.65 21.61ZM223.98 17.44L223.98 17.44Q223.98 18.43 224.10 19.15Q224.23 19.86 224.51 20.32Q224.79 20.78 225.23 20.99Q225.68 21.21 226.32 21.21L226.32 21.21Q227.00 21.21 227.44 20.92Q227.87 20.64 228.12 20.13Q228.36 19.63 228.46 18.94Q228.55 18.25 228.55 17.44L228.55 17.44Q228.55 16.63 228.46 15.94Q228.36 15.26 228.12 14.76Q227.87 14.26 227.44 13.99Q227.00 13.71 226.32 13.71L226.32 13.71Q225.68 13.71 225.23 13.92Q224.79 14.13 224.51 14.58Q224.23 15.04 224.10 15.74Q223.98 16.44 223.98 17.44ZM236.59 23.55L236.59 23.55Q236.68 23.25 236.72 22.83Q236.75 22.41 236.75 22.00L236.75 22.00Q236.75 21.62 236.71 21.25Q236.66 20.87 236.59 20.51L236.59 20.51Q237.25 20.51 237.67 20.45Q238.10 20.39 238.36 20.24Q238.62 20.10 238.72 19.83Q238.82 19.56 238.82 19.14L238.82 19.14L238.82 15.88Q238.80 15.38 238.69 15.08Q238.57 14.78 238.37 14.62Q238.16 14.46 237.86 14.41Q237.56 14.36 237.19 14.36L237.19 14.36L236.82 14.36Q236.92 14.12 236.99 13.71Q237.06 13.29 237.06 12.83L237.06 12.83Q237.06 12.39 236.99 11.98Q236.93 11.58 236.82 11.33L236.82 11.33Q237.16 11.38 237.64 11.40Q238.11 11.43 238.66 11.43L238.66 11.43Q239.23 11.43 239.83 11.40Q240.43 11.37 241.01 11.31Q241.58 11.25 242.09 11.14Q242.60 11.04 242.98 10.90L242.98 10.90Q242.89 11.13 242.87 11.37Q242.84 11.61 242.84 11.87L242.84 11.87Q242.84 12.23 242.89 12.60Q242.94 12.96 243 13.30L243 13.30Q243.50 13.16 244.06 12.90Q244.62 12.63 245.10 12.30Q245.59 11.98 245.93 11.61Q246.27 11.25 246.35 10.90L246.35 10.90Q246.69 11.10 247.24 11.20Q247.78 11.31 248.48 11.31L248.48 11.31Q248.77 11.31 249.07 11.29Q249.38 11.27 249.66 11.23Q249.95 11.19 250.19 11.11Q250.43 11.03 250.58 10.90L250.58 10.90Q250.49 11.13 250.44 11.48Q250.38 11.84 250.35 12.24Q250.32 12.64 250.31 13.06Q250.30 13.48 250.30 13.84L250.30 13.84Q250.30 14.20 250.32 14.67Q250.35 15.13 250.38 15.56Q250.42 15.98 250.47 16.30Q250.52 16.62 250.58 16.70L250.58 16.70Q250.20 16.61 249.62 16.54Q249.04 16.48 248.40 16.48L248.40 16.48Q247.77 16.48 247.21 16.54Q246.64 16.61 246.29 16.70L246.29 16.70Q246.29 15.45 246.01 14.94Q245.72 14.44 245.16 14.44L245.16 14.44Q244.88 14.44 244.54 14.60Q244.21 14.75 243.92 15.06Q243.63 15.36 243.42 15.80Q243.21 16.24 243.18 16.80L243.18 16.80L243.19 19.14Q243.19 19.56 243.43 19.83Q243.67 20.10 244.09 20.24Q244.51 20.39 245.10 20.45Q245.68 20.51 246.38 20.51L246.38 20.51Q246.30 20.75 246.26 21.12Q246.22 21.48 246.22 21.89L246.22 21.89Q246.22 22.34 246.26 22.79Q246.29 23.24 246.38 23.55L246.38 23.55Q246 23.50 245.45 23.44Q244.90 23.39 244.24 23.35Q243.59 23.31 242.85 23.29Q242.11 23.26 241.37 23.26L241.37 23.26Q240.81 23.26 240.11 23.28Q239.41 23.30 238.73 23.34Q238.05 23.38 237.47 23.43Q236.89 23.48 236.59 23.55ZM252.75 23.55L252.75 23.55Q252.84 23.25 252.88 22.83Q252.91 22.41 252.91 22.00L252.91 22.00Q252.91 21.62 252.87 21.25Q252.82 20.87 252.75 20.51L252.75 20.51Q253.41 20.51 253.83 20.45Q254.26 20.39 254.52 20.24Q254.78 20.10 254.88 19.83Q254.98 19.56 254.98 19.14L254.98 19.14L254.98 15.88Q254.96 15.38 254.85 15.08Q254.73 14.78 254.53 14.62Q254.32 14.46 254.02 14.41Q253.72 14.36 253.35 14.36L253.35 14.36L252.98 14.36Q253.08 14.12 253.15 13.71Q253.22 13.29 253.22 12.83L253.22 12.83Q253.22 12.39 253.15 11.98Q253.09 11.58 252.98 11.33L252.98 11.33Q253.42 11.39 254.05 11.43Q254.68 11.46 255.39 11.46L255.39 11.46Q255.90 11.46 256.42 11.44Q256.95 11.41 257.44 11.36Q257.93 11.31 258.36 11.23Q258.80 11.14 259.14 11.02L259.14 11.02Q259.05 11.25 259.03 11.49Q259.00 11.73 259.00 11.98L259.00 11.98Q259.00 12.30 259.04 12.63Q259.08 12.95 259.14 13.25L259.14 13.25Q259.62 13.08 259.93 12.78Q260.24 12.48 260.44 12.15Q260.64 11.81 260.74 11.48Q260.85 11.14 260.92 10.90L260.92 10.90Q261.07 10.99 261.38 11.07Q261.69 11.14 262.10 11.20Q262.50 11.25 262.96 11.28Q263.41 11.31 263.85 11.31L263.85 11.31Q264.23 11.31 264.63 11.29Q265.03 11.26 265.38 11.21Q265.73 11.16 266.02 11.08Q266.30 11.00 266.44 10.90L266.44 10.90Q266.72 11.67 267.11 12.25Q267.49 12.82 268.07 13.20L268.07 13.20Q268.50 13.01 268.79 12.71Q269.07 12.42 269.26 12.10Q269.45 11.78 269.55 11.46Q269.65 11.14 269.71 10.90L269.71 10.90Q269.86 10.99 270.17 11.07Q270.48 11.14 270.88 11.20Q271.29 11.25 271.75 11.28Q272.20 11.31 272.64 11.31L272.64 11.31Q273.02 11.31 273.42 11.29Q273.82 11.26 274.17 11.21Q274.52 11.16 274.80 11.08Q275.09 11.00 275.23 10.90L275.23 10.90Q275.60 11.89 276.17 12.59Q276.74 13.28 277.69 13.56L277.69 13.56Q277.50 13.79 277.36 14.06Q277.22 14.33 277.12 14.68Q277.02 15.02 276.97 15.47Q276.93 15.91 276.93 16.50L276.93 16.50L276.93 19.14Q276.93 19.56 277.03 19.83Q277.13 20.10 277.37 20.24Q277.61 20.39 277.99 20.45Q278.37 20.51 278.93 20.51L278.93 20.51Q278.89 20.65 278.86 20.80Q278.82 20.95 278.80 21.15Q278.78 21.34 278.76 21.59Q278.74 21.84 278.74 22.18L278.74 22.18Q278.74 22.52 278.78 22.92Q278.82 23.32 278.93 23.55L278.93 23.55Q278.57 23.50 278.09 23.44Q277.61 23.39 277.06 23.35Q276.52 23.31 275.92 23.29Q275.32 23.26 274.72 23.26L274.72 23.26Q274.24 23.26 273.73 23.28Q273.22 23.30 272.74 23.34Q272.26 23.38 271.85 23.43Q271.43 23.48 271.15 23.55L271.15 23.55Q271.18 23.41 271.21 23.23Q271.24 23.04 271.26 22.82Q271.28 22.59 271.29 22.36Q271.30 22.13 271.30 21.91L271.30 21.91Q271.30 21.80 271.29 21.60Q271.28 21.40 271.26 21.19Q271.24 20.99 271.21 20.80Q271.18 20.61 271.15 20.51L271.15 20.51Q271.55 20.51 271.81 20.47Q272.07 20.43 272.24 20.29Q272.40 20.14 272.47 19.87Q272.54 19.59 272.54 19.14L272.54 19.14L272.54 16.70Q272.54 16.24 272.45 15.83Q272.36 15.42 272.16 15.11Q271.97 14.80 271.66 14.62Q271.36 14.44 270.93 14.44L270.93 14.44Q270.68 14.44 270.28 14.51Q269.88 14.58 269.47 14.75Q269.05 14.92 268.69 15.19Q268.32 15.47 268.15 15.88L268.15 15.88Q268.14 16.03 268.14 16.18Q268.14 16.34 268.14 16.50L268.14 16.50L268.14 19.14Q268.14 19.56 268.24 19.83Q268.34 20.10 268.58 20.24Q268.82 20.39 269.20 20.45Q269.58 20.51 270.14 20.51L270.14 20.51Q270.11 20.65 270.07 20.80Q270.04 20.95 270.01 21.15Q269.99 21.34 269.97 21.59Q269.95 21.84 269.95 22.18L269.95 22.18Q269.95 22.52 269.99 22.92Q270.04 23.32 270.14 23.55L270.14 23.55Q269.78 23.50 269.30 23.44Q268.82 23.39 268.27 23.35Q267.73 23.31 267.13 23.29Q266.53 23.26 265.93 23.26L265.93 23.26Q265.45 23.26 264.94 23.28Q264.43 23.30 263.95 23.34Q263.47 23.38 263.06 23.43Q262.64 23.48 262.36 23.55L262.36 23.55Q262.39 23.41 262.42 23.23Q262.45 23.04 262.47 22.82Q262.49 22.59 262.50 22.36Q262.51 22.13 262.51 21.91L262.51 21.91Q262.51 21.80 262.50 21.60Q262.49 21.40 262.47 21.19Q262.45 20.99 262.42 20.80Q262.39 20.61 262.36 20.51L262.36 20.51Q262.76 20.51 263.02 20.47Q263.29 20.43 263.45 20.29Q263.61 20.14 263.68 19.87Q263.75 19.59 263.75 19.14L263.75 19.14L263.75 16.70Q263.75 16.24 263.66 15.83Q263.57 15.42 263.37 15.11Q263.18 14.80 262.88 14.62Q262.57 14.44 262.14 14.44L262.14 14.44Q261.89 14.44 261.48 14.51Q261.07 14.59 260.65 14.77Q260.23 14.94 259.86 15.23Q259.50 15.52 259.34 15.94L259.34 15.94L259.35 19.14Q259.35 19.90 259.82 20.20Q260.29 20.51 261.13 20.51L261.13 20.51Q261.06 20.75 261.02 21.12Q260.98 21.48 260.98 21.89L260.98 21.89Q260.98 22.34 261.01 22.79Q261.05 23.24 261.13 23.55L261.13 23.55Q260.38 23.44 259.35 23.35Q258.32 23.26 256.83 23.26L256.83 23.26Q256.27 23.26 255.67 23.28Q255.08 23.30 254.54 23.34Q253.99 23.38 253.52 23.43Q253.05 23.48 252.75 23.55ZM280.15 21.83L280.15 21.83Q280.30 21.56 280.37 21.21Q280.44 20.86 280.44 20.50L280.44 20.50Q280.44 20.12 280.36 19.75Q280.28 19.37 280.15 19.14L280.15 19.14Q280.46 19.03 280.72 18.80Q280.97 18.56 281.15 18.27Q281.33 17.98 281.45 17.67Q281.57 17.37 281.60 17.11L281.60 17.11Q281.66 17.13 281.73 17.13Q281.80 17.13 281.88 17.13L281.88 17.13Q282.75 17.13 283.98 16.97Q285.21 16.80 286.64 16.54L286.64 16.54Q287.31 16.41 287.74 16.22Q288.18 16.03 288.43 15.79Q288.69 15.55 288.79 15.27Q288.89 14.99 288.89 14.67L288.89 14.67Q288.89 14.10 288.60 13.79Q288.32 13.48 287.61 13.48L287.61 13.48Q286.69 13.48 286.25 13.94Q285.81 14.40 285.81 15.46L285.81 15.46Q285.42 15.36 284.87 15.32Q284.32 15.28 283.65 15.28L283.65 15.28Q283.31 15.28 282.97 15.29Q282.62 15.30 282.29 15.32Q281.96 15.34 281.68 15.38Q281.40 15.41 281.20 15.46L281.20 15.46Q281.27 15.09 281.33 14.64Q281.38 14.18 281.38 13.57L281.38 13.57Q281.38 13.37 281.37 13.20Q281.37 13.03 281.35 12.87Q281.33 12.70 281.30 12.52Q281.26 12.34 281.20 12.12L281.20 12.12Q281.70 12.12 282.28 12.02Q282.87 11.92 283.42 11.75Q283.98 11.59 284.44 11.37Q284.89 11.14 285.14 10.90L285.14 10.90Q285.35 11.00 285.55 11.08Q285.75 11.16 286.01 11.21Q286.27 11.26 286.61 11.29Q286.95 11.31 287.43 11.31L287.43 11.31Q288.53 11.31 289.31 11.20Q290.09 11.09 290.43 10.90L290.43 10.90Q290.61 11.25 290.96 11.57Q291.32 11.88 291.73 12.11Q292.15 12.34 292.58 12.47Q293.00 12.61 293.36 12.61L293.36 12.61L293.46 12.61Q293.36 12.87 293.29 13.32Q293.21 13.78 293.17 14.35Q293.12 14.92 293.10 15.55Q293.07 16.18 293.06 16.80Q293.04 17.41 293.04 17.95Q293.04 18.49 293.04 18.87L293.04 18.87Q293.04 19.35 293.12 19.65Q293.20 19.95 293.44 20.11Q293.68 20.27 294.12 20.33Q294.56 20.39 295.27 20.39L295.27 20.39Q295.22 20.53 295.18 20.74Q295.14 20.94 295.10 21.18Q295.07 21.41 295.05 21.64Q295.03 21.88 295.03 22.08L295.03 22.08Q295.03 22.99 295.27 23.55L295.27 23.55Q294.98 23.43 294.35 23.34Q293.72 23.26 292.97 23.26L292.97 23.26Q292.13 23.26 291.47 23.34Q290.82 23.43 290.45 23.55L290.45 23.55Q290.36 22.91 290.09 22.52Q289.83 22.14 289.56 21.91L289.56 21.91Q289.15 22.04 288.81 22.26Q288.47 22.48 288.21 22.73Q287.94 22.98 287.78 23.23Q287.61 23.48 287.57 23.67L287.57 23.67Q287.30 23.60 287.08 23.53Q286.86 23.46 286.64 23.40Q286.42 23.33 286.16 23.30Q285.90 23.26 285.55 23.26L285.55 23.26Q285.19 23.26 284.78 23.30Q284.38 23.33 283.98 23.40Q283.58 23.46 283.24 23.53Q282.89 23.60 282.64 23.67L282.64 23.67Q282.45 23.34 282.15 23.02Q281.86 22.70 281.53 22.44Q281.19 22.17 280.83 22.01Q280.48 21.84 280.15 21.83ZM285.19 19.65L285.19 19.65Q285.19 19.93 285.30 20.15Q285.42 20.37 285.60 20.51Q285.79 20.66 286.01 20.74Q286.23 20.81 286.44 20.81L286.44 20.81Q286.83 20.81 287.23 20.66Q287.64 20.51 287.98 20.17Q288.32 19.84 288.55 19.30Q288.79 18.76 288.83 17.99L288.83 17.99Q287.82 18.01 287.13 18.12Q286.43 18.23 286.00 18.44Q285.56 18.64 285.38 18.95Q285.19 19.25 285.19 19.65ZM296.34 23.55L296.34 23.55Q296.44 23.25 296.47 22.83Q296.51 22.41 296.51 22.00L296.51 22.00Q296.51 21.62 296.46 21.25Q296.41 20.87 296.34 20.51L296.34 20.51Q297 20.51 297.43 20.45Q297.86 20.39 298.10 20.24Q298.35 20.10 298.44 19.83Q298.54 19.56 298.54 19.14L298.54 19.14L298.54 17.17Q298.54 16.79 298.49 16.42Q298.45 16.04 298.36 15.74Q298.27 15.43 298.11 15.22Q297.95 15 297.73 14.94L297.73 14.94Q297.97 14.87 298.13 14.75Q298.29 14.63 298.38 14.41Q298.46 14.20 298.50 13.88Q298.54 13.56 298.54 13.09L298.54 13.09L298.54 9.38Q298.52 8.87 298.41 8.57Q298.29 8.27 298.08 8.12Q297.88 7.96 297.58 7.90Q297.28 7.85 296.91 7.85L296.91 7.85L296.54 7.85Q296.64 7.62 296.71 7.20Q296.78 6.79 296.78 6.33L296.78 6.33Q296.78 5.88 296.71 5.47Q296.65 5.05 296.54 4.80L296.54 4.80Q296.77 4.84 297.08 4.86Q297.40 4.89 297.77 4.90Q298.15 4.92 298.57 4.93Q298.99 4.95 299.44 4.95L299.44 4.95Q300.04 4.95 300.64 4.92Q301.25 4.90 301.81 4.85Q302.37 4.80 302.84 4.72Q303.32 4.64 303.63 4.51L303.63 4.51Q303.39 4.97 303.25 5.53Q303.11 6.09 303.02 6.73Q302.94 7.36 302.92 8.05Q302.89 8.74 302.89 9.46L302.89 9.46L302.88 13.11Q302.88 13.58 302.92 13.90Q302.96 14.23 303.06 14.44Q303.15 14.65 303.30 14.77Q303.46 14.88 303.69 14.94L303.69 14.94Q303.45 15.01 303.29 15.23Q303.13 15.45 303.04 15.75Q302.95 16.05 302.92 16.42Q302.88 16.79 302.88 17.17L302.88 17.17L302.88 19.14Q302.88 19.56 303.04 19.83Q303.19 20.10 303.47 20.24Q303.76 20.39 304.17 20.45Q304.57 20.51 305.07 20.51L305.07 20.51Q305.00 20.75 304.96 21.12Q304.92 21.48 304.92 21.89L304.92 21.89Q304.92 22.34 304.95 22.79Q304.98 23.24 305.07 23.55L305.07 23.55Q304.76 23.50 304.22 23.44Q303.69 23.39 303.06 23.35Q302.43 23.31 301.74 23.29Q301.05 23.26 300.42 23.26L300.42 23.26Q299.86 23.26 299.27 23.28Q298.68 23.30 298.13 23.34Q297.59 23.38 297.12 23.43Q296.65 23.48 296.34 23.55Z"/></svg>