<svg xmlns="http://www.w3.org/2000/svg" xmlns:xlink="http://www.w3.org/1999/xlink" width="261.86400000000003" height="32.688"><path fill="black" d="M17.35 8.52L17.35 25.66L12.74 25.66L5.28 12.70L5.18 12.70Q5.23 13.92 5.29 15.14Q5.35 16.37 5.40 17.59L5.40 17.59L5.40 25.66L2.16 25.66L2.16 8.52L6.74 8.52L14.18 21.36L14.26 21.36Q14.23 20.16 14.18 18.98Q14.14 17.81 14.09 16.63L14.09 16.63L14.09 8.52L17.35 8.52ZM33.29 19.08L33.29 19.08Q33.29 22.34 31.57 24.12Q29.86 25.90 26.90 25.90L26.90 25.90Q25.08 25.90 23.65 25.10Q22.22 24.31 21.41 22.79Q20.59 21.26 20.59 19.08L20.59 19.08Q20.59 15.82 22.30 14.06Q24 12.31 26.98 12.31L26.98 12.31Q28.82 12.31 30.24 13.10Q31.66 13.90 32.47 15.40Q33.29 16.90 33.29 19.08ZM24.24 19.08L24.24 19.08Q24.24 21.02 24.88 22.02Q25.51 23.02 26.95 23.02L26.95 23.02Q28.37 23.02 29.00 22.02Q29.64 21.02 29.64 19.08L29.64 19.08Q29.64 17.14 29.00 16.16Q28.37 15.19 26.93 15.19L26.93 15.19Q25.51 15.19 24.88 16.16Q24.24 17.14 24.24 19.08ZM41.76 23.04L41.76 23.04Q42.36 23.04 42.91 22.92Q43.46 22.80 44.02 22.63L44.02 22.63L44.02 25.30Q43.44 25.54 42.59 25.72Q41.74 25.90 40.73 25.90L40.73 25.90Q39.55 25.90 38.63 25.51Q37.70 25.13 37.16 24.18Q36.62 23.23 36.62 21.55L36.62 21.55L36.62 15.24L34.92 15.24L34.92 13.73L36.89 12.53L37.92 9.77L40.20 9.77L40.20 12.55L43.87 12.55L43.87 15.24L40.20 15.24L40.20 21.55Q40.20 22.30 40.63 22.67Q41.06 23.04 41.76 23.04ZM58.56 19.08L58.56 19.08Q58.56 22.34 56.84 24.12Q55.13 25.90 52.18 25.90L52.18 25.90Q50.35 25.90 48.92 25.10Q47.50 24.31 46.68 22.79Q45.86 21.26 45.86 19.08L45.86 19.08Q45.86 15.82 47.57 14.06Q49.27 12.31 52.25 12.31L52.25 12.31Q54.10 12.31 55.51 13.10Q56.93 13.90 57.74 15.40Q58.56 16.90 58.56 19.08ZM49.51 19.08L49.51 19.08Q49.51 21.02 50.15 22.02Q50.78 23.02 52.22 23.02L52.22 23.02Q53.64 23.02 54.28 22.02Q54.91 21.02 54.91 19.08L54.91 19.08Q54.91 17.14 54.28 16.16Q53.64 15.19 52.20 15.19L52.20 15.19Q50.78 15.19 50.15 16.16Q49.51 17.14 49.51 19.08ZM78.14 20.90L78.14 20.90Q78.14 23.18 76.50 24.54Q74.86 25.90 71.83 25.90L71.83 25.90Q69.12 25.90 66.98 24.86L66.98 24.86L66.98 21.48Q68.21 22.01 69.52 22.45Q70.82 22.90 72.12 22.90L72.12 22.90Q73.46 22.90 74.03 22.38Q74.59 21.86 74.59 21.07L74.59 21.07Q74.59 20.42 74.15 19.97Q73.70 19.51 72.96 19.12Q72.22 18.72 71.26 18.26L71.26 18.26Q70.66 17.98 69.96 17.58Q69.26 17.18 68.63 16.60Q67.99 16.01 67.58 15.17Q67.18 14.33 67.18 13.15L67.18 13.15Q67.18 10.85 68.74 9.56Q70.30 8.28 72.98 8.28L72.98 8.28Q74.33 8.28 75.54 8.59Q76.75 8.90 78.07 9.48L78.07 9.48L76.90 12.31Q75.72 11.83 74.78 11.57Q73.85 11.30 72.86 11.30L72.86 11.30Q71.83 11.30 71.28 11.78Q70.73 12.26 70.73 13.03L70.73 13.03Q70.73 13.94 71.54 14.47Q72.36 15.00 73.97 15.77L73.97 15.77Q75.29 16.39 76.21 17.06Q77.14 17.74 77.64 18.65Q78.14 19.56 78.14 20.90ZM86.35 12.29L86.35 12.29Q88.99 12.29 90.40 13.43Q91.80 14.57 91.80 16.92L91.80 16.92L91.80 25.66L89.30 25.66L88.61 23.88L88.51 23.88Q87.67 24.94 86.74 25.42Q85.80 25.90 84.17 25.90L84.17 25.90Q82.42 25.90 81.26 24.88Q80.11 23.86 80.11 21.74L80.11 21.74Q80.11 19.66 81.58 18.66Q83.04 17.66 85.97 17.57L85.97 17.57L88.25 17.50L88.25 16.92Q88.25 15.89 87.71 15.41Q87.17 14.93 86.21 14.93L86.21 14.93Q85.25 14.93 84.34 15.20Q83.42 15.48 82.51 15.89L82.51 15.89L81.34 13.46Q82.39 12.91 83.68 12.60Q84.96 12.29 86.35 12.29ZM88.25 19.58L86.86 19.63Q85.13 19.68 84.46 20.26Q83.78 20.83 83.78 21.77L83.78 21.77Q83.78 22.58 84.26 22.93Q84.74 23.28 85.51 23.28L85.51 23.28Q86.66 23.28 87.46 22.60Q88.25 21.91 88.25 20.66L88.25 20.66L88.25 19.58ZM102.91 12.31L102.91 12.31Q105.02 12.31 106.30 13.45Q107.57 14.59 107.57 17.11L107.57 17.11L107.57 25.66L103.99 25.66L103.99 18Q103.99 16.58 103.49 15.88Q102.98 15.17 101.88 15.17L101.88 15.17Q100.25 15.17 99.65 16.28Q99.05 17.40 99.05 19.49L99.05 19.49L99.05 25.66L95.47 25.66L95.47 12.55L98.21 12.55L98.69 14.23L98.88 14.23Q99.50 13.22 100.60 12.77Q101.69 12.31 102.91 12.31ZM120.38 21.77L120.38 21.77Q120.38 23.76 118.98 24.83Q117.58 25.90 114.79 25.90L114.79 25.90Q113.42 25.90 112.44 25.72Q111.46 25.54 110.47 25.13L110.47 25.13L110.47 22.18Q111.53 22.66 112.75 22.97Q113.98 23.28 114.91 23.28L114.91 23.28Q115.97 23.28 116.41 22.97Q116.86 22.66 116.86 22.15L116.86 22.15Q116.86 21.82 116.68 21.55Q116.50 21.29 115.90 20.95Q115.30 20.62 114.02 20.09L114.02 20.09Q112.80 19.56 112.01 19.04Q111.22 18.53 110.83 17.80Q110.45 17.06 110.45 15.96L110.45 15.96Q110.45 14.14 111.86 13.22Q113.28 12.31 115.63 12.31L115.63 12.31Q116.86 12.31 117.96 12.55Q119.06 12.79 120.24 13.34L120.24 13.34L119.16 15.91Q118.20 15.50 117.34 15.23Q116.47 14.95 115.58 14.95L115.58 14.95Q114.00 14.95 114.00 15.82L114.00 15.82Q114.00 16.13 114.20 16.38Q114.41 16.63 115.00 16.92Q115.58 17.21 116.74 17.69L116.74 17.69Q117.86 18.14 118.68 18.64Q119.50 19.13 119.94 19.86Q120.38 20.59 120.38 21.77ZM133.99 25.66L130.20 25.66L136.63 11.57L128.18 11.57L128.18 8.52L140.47 8.52L140.47 10.80L133.99 25.66ZM154.10 17.09L154.10 17.09Q154.10 19.85 153.52 21.82Q152.93 23.78 151.62 24.84Q150.31 25.90 148.10 25.90L148.10 25.90Q145.01 25.90 143.57 23.56Q142.13 21.22 142.13 17.09L142.13 17.09Q142.13 14.30 142.70 12.34Q143.28 10.37 144.60 9.31Q145.92 8.26 148.10 8.26L148.10 8.26Q151.18 8.26 152.64 10.58Q154.10 12.91 154.10 17.09ZM145.73 17.09L145.73 17.09Q145.73 20.02 146.23 21.49Q146.74 22.97 148.10 22.97L148.10 22.97Q149.45 22.97 149.98 21.50Q150.50 20.04 150.50 17.09L150.50 17.09Q150.50 14.16 149.98 12.67Q149.45 11.18 148.10 11.18L148.10 11.18Q146.74 11.18 146.23 12.67Q145.73 14.16 145.73 17.09ZM167.83 17.09L167.83 17.09Q167.83 19.85 167.24 21.82Q166.66 23.78 165.35 24.84Q164.04 25.90 161.83 25.90L161.83 25.90Q158.74 25.90 157.30 23.56Q155.86 21.22 155.86 17.09L155.86 17.09Q155.86 14.30 156.43 12.34Q157.01 10.37 158.33 9.31Q159.65 8.26 161.83 8.26L161.83 8.26Q164.90 8.26 166.37 10.58Q167.83 12.91 167.83 17.09ZM159.46 17.09L159.46 17.09Q159.46 20.02 159.96 21.49Q160.46 22.97 161.83 22.97L161.83 22.97Q163.18 22.97 163.70 21.50Q164.23 20.04 164.23 17.09L164.23 17.09Q164.23 14.16 163.70 12.67Q163.18 11.18 161.83 11.18L161.83 11.18Q160.46 11.18 159.96 12.67Q159.46 14.16 159.46 17.09ZM184.27 12.31L184.27 12.31Q186.38 12.31 187.66 13.45Q188.93 14.59 188.93 17.11L188.93 17.11L188.93 25.66L185.35 25.66L185.35 18Q185.35 16.58 184.85 15.88Q184.34 15.17 183.24 15.17L183.24 15.17Q181.61 15.17 181.01 16.28Q180.41 17.40 180.41 19.49L180.41 19.49L180.41 25.66L176.83 25.66L176.83 12.55L179.57 12.55L180.05 14.23L180.24 14.23Q180.86 13.22 181.96 12.77Q183.05 12.31 184.27 12.31ZM204.50 19.08L204.50 19.08Q204.50 22.34 202.79 24.12Q201.07 25.90 198.12 25.90L198.12 25.90Q196.30 25.90 194.87 25.10Q193.44 24.31 192.62 22.79Q191.81 21.26 191.81 19.08L191.81 19.08Q191.81 15.82 193.51 14.06Q195.22 12.31 198.19 12.31L198.19 12.31Q200.04 12.31 201.46 13.10Q202.87 13.90 203.69 15.40Q204.50 16.90 204.50 19.08ZM195.46 19.08L195.46 19.08Q195.46 21.02 196.09 22.02Q196.73 23.02 198.17 23.02L198.17 23.02Q199.58 23.02 200.22 22.02Q200.86 21.02 200.86 19.08L200.86 19.08Q200.86 17.14 200.22 16.16Q199.58 15.19 198.14 15.19L198.14 15.19Q196.73 15.19 196.09 16.16Q195.46 17.14 195.46 19.08ZM214.78 12.31L214.78 12.31Q215.04 12.31 215.40 12.34Q215.76 12.36 215.98 12.41L215.98 12.41L215.71 15.77Q215.54 15.72 215.22 15.68Q214.90 15.65 214.66 15.65L214.66 15.65Q213.74 15.65 212.90 15.97Q212.06 16.30 211.55 17.02Q211.03 17.74 211.03 18.98L211.03 18.98L211.03 25.66L207.46 25.66L207.46 12.55L210.17 12.55L210.70 14.76L210.86 14.76Q211.44 13.75 212.45 13.03Q213.46 12.31 214.78 12.31ZM233.74 12.31L233.74 12.31Q235.97 12.31 237.11 13.45Q238.25 14.59 238.25 17.11L238.25 17.11L238.25 25.66L234.67 25.66L234.67 18Q234.67 15.17 232.70 15.17L232.70 15.17Q231.29 15.17 230.69 16.18Q230.09 17.18 230.09 19.08L230.09 19.08L230.09 25.66L226.51 25.66L226.51 18Q226.51 15.17 224.54 15.17L224.54 15.17Q223.06 15.17 222.49 16.28Q221.93 17.40 221.93 19.49L221.93 19.49L221.93 25.66L218.35 25.66L218.35 12.55L221.09 12.55L221.57 14.23L221.76 14.23Q222.36 13.22 223.40 12.77Q224.45 12.31 225.58 12.31L225.58 12.31Q227.02 12.31 228.02 12.78Q229.03 13.25 229.56 14.23L229.56 14.23L229.87 14.23Q230.47 13.22 231.54 12.77Q232.61 12.31 233.74 12.31ZM247.30 12.29L247.30 12.29Q249.94 12.29 251.34 13.43Q252.74 14.57 252.74 16.92L252.74 16.92L252.74 25.66L250.25 25.66L249.55 23.88L249.46 23.88Q248.62 24.94 247.68 25.42Q246.74 25.90 245.11 25.90L245.11 25.90Q243.36 25.90 242.21 24.88Q241.06 23.86 241.06 21.74L241.06 21.74Q241.06 19.66 242.52 18.66Q243.98 17.66 246.91 17.57L246.91 17.57L249.19 17.50L249.19 16.92Q249.19 15.89 248.65 15.41Q248.11 14.93 247.15 14.93L247.15 14.93Q246.19 14.93 245.28 15.20Q244.37 15.48 243.46 15.89L243.46 15.89L242.28 13.46Q243.34 12.91 244.62 12.60Q245.90 12.29 247.30 12.29ZM249.19 19.58L247.80 19.63Q246.07 19.68 245.40 20.26Q244.73 20.83 244.73 21.77L244.73 21.77Q244.73 22.58 245.21 22.93Q245.69 23.28 246.46 23.28L246.46 23.28Q247.61 23.28 248.40 22.60Q249.19 21.91 249.19 20.66L249.19 20.66L249.19 19.58ZM259.99 7.42L259.99 25.66L256.42 25.66L256.42 7.42L259.99 7.42Z"/></svg>