<svg xmlns="http://www.w3.org/2000/svg" xmlns:xlink="http://www.w3.org/1999/xlink" width="144.00000000000003" height="28.560000000000002"><path fill="black" d="M7.39 22.80L7.06 22.80Q5.74 22.80 4.62 22.42Q3.50 22.03 2.66 21.18Q1.82 20.33 1.36 18.91Q0.89 17.50 0.89 15.43L0.89 15.43L0.89 13.22Q0.89 11.16 1.37 9.74Q1.85 8.33 2.69 7.48Q3.53 6.62 4.64 6.24Q5.76 5.86 7.03 5.86L7.03 5.86L7.37 5.86Q9.24 5.86 10.57 6.58Q11.90 7.30 12.60 8.75Q13.30 10.20 13.30 12.38L13.30 12.38L10.87 12.38Q10.87 10.80 10.52 9.80Q10.18 8.81 9.36 8.34Q8.54 7.87 7.18 7.87L7.18 7.87Q6.38 7.87 5.72 8.10Q5.06 8.33 4.56 8.87Q4.06 9.41 3.77 10.34Q3.48 11.28 3.48 12.70L3.48 12.70L3.48 15.94Q3.48 17.35 3.77 18.30Q4.06 19.25 4.56 19.79Q5.06 20.33 5.72 20.56Q6.38 20.78 7.18 20.78L7.18 20.78Q9.24 20.78 10.09 19.72Q10.94 18.65 10.94 16.30L10.94 16.30L13.30 16.30Q13.30 18.41 12.60 19.85Q11.90 21.29 10.58 22.04Q9.26 22.80 7.39 22.80L7.39 22.80ZM18.86 22.56L16.46 22.56L16.46 5.28L18.86 5.28L18.86 11.93Q19.49 10.99 20.50 10.52Q21.50 10.06 22.58 10.06L22.58 10.06Q23.81 10.06 24.78 10.54Q25.75 11.02 26.30 11.98Q26.86 12.94 26.86 14.40L26.86 14.40L26.86 22.56L24.46 22.56L24.46 14.93Q24.46 13.42 23.74 12.66Q23.02 11.90 21.77 11.90L21.77 11.90Q20.95 11.90 20.28 12.30Q19.61 12.70 19.24 13.38Q18.86 14.06 18.86 14.93L18.86 14.93L18.86 22.56ZM37.87 22.56L35.47 22.56L35.47 12.17L31.08 12.17L31.08 10.30L37.87 10.30L37.87 22.56ZM42.02 22.56L31.08 22.56L31.08 20.71L42.02 20.71L42.02 22.56ZM37.63 7.78L35.38 7.78L35.38 5.47L37.63 5.47L37.63 7.78ZM51.65 22.56L49.10 22.56L44.33 10.30L46.90 10.30L50.47 19.70L50.54 19.70L54.12 10.30L56.47 10.30L51.65 22.56ZM64.80 22.80L64.80 22.80Q63.02 22.80 61.75 22.01Q60.48 21.22 59.81 19.81Q59.14 18.41 59.14 16.63L59.14 16.63L59.14 16.22Q59.14 14.40 59.81 13.01Q60.48 11.62 61.75 10.84Q63.02 10.06 64.78 10.06L64.78 10.06Q66.58 10.06 67.85 10.85Q69.12 11.64 69.79 13.03Q70.46 14.42 70.46 16.22L70.46 16.22L70.46 16.63Q70.46 18.46 69.79 19.85Q69.12 21.24 67.85 22.02Q66.58 22.80 64.80 22.80ZM64.80 21.10L64.80 21.10Q66.19 21.10 67.08 20.08Q67.97 19.06 67.97 17.23L67.97 17.23L67.97 15.62Q67.97 13.80 67.08 12.78Q66.19 11.76 64.80 11.76L64.80 11.76Q63.43 11.76 62.53 12.78Q61.63 13.80 61.63 15.62L61.63 15.62L61.63 17.23Q61.63 19.06 62.53 20.08Q63.43 21.10 64.80 21.10ZM89.86 22.56L87.84 22.56L87.84 6.10L91.25 6.10L93.53 19.06L93.62 19.06L96 6.10L99.36 6.10L99.36 22.56L97.10 22.56L97.10 9.02L96.98 9.02L94.56 22.56L92.33 22.56L89.98 9.02L89.86 9.02L89.86 22.56ZM108.00 22.80L108.00 22.80Q106.22 22.80 104.95 22.01Q103.68 21.22 103.01 19.81Q102.34 18.41 102.34 16.63L102.34 16.63L102.34 16.22Q102.34 14.40 103.01 13.01Q103.68 11.62 104.95 10.84Q106.22 10.06 107.98 10.06L107.98 10.06Q109.78 10.06 111.05 10.85Q112.32 11.64 112.99 13.03Q113.66 14.42 113.66 16.22L113.66 16.22L113.66 16.63Q113.66 18.46 112.99 19.85Q112.32 21.24 111.05 22.02Q109.78 22.80 108.00 22.80ZM108.00 21.10L108.00 21.10Q109.39 21.10 110.28 20.08Q111.17 19.06 111.17 17.23L111.17 17.23L111.17 15.62Q111.17 13.80 110.28 12.78Q109.39 11.76 108.00 11.76L108.00 11.76Q106.63 11.76 105.73 12.78Q104.83 13.80 104.83 15.62L104.83 15.62L104.83 17.23Q104.83 19.06 105.73 20.08Q106.63 21.10 108.00 21.10ZM119.66 22.56L117.26 22.56L117.26 10.30L119.21 10.30L119.45 12.05Q120.00 11.02 121.01 10.54Q122.02 10.06 123.24 10.06L123.24 10.06Q125.26 10.06 126.46 11.18Q127.66 12.31 127.66 14.52L127.66 14.52L127.66 22.56L125.26 22.56L125.26 15.22Q125.26 13.49 124.55 12.70Q123.84 11.90 122.57 11.90L122.57 11.90Q121.68 11.90 121.03 12.35Q120.38 12.79 120.02 13.57Q119.66 14.35 119.66 15.36L119.66 15.36L119.66 22.56ZM136.80 22.80L136.80 22.80Q135.02 22.80 133.75 22.01Q132.48 21.22 131.81 19.81Q131.14 18.41 131.14 16.63L131.14 16.63L131.14 16.22Q131.14 14.40 131.81 13.01Q132.48 11.62 133.75 10.84Q135.02 10.06 136.78 10.06L136.78 10.06Q138.58 10.06 139.85 10.85Q141.12 11.64 141.79 13.03Q142.46 14.42 142.46 16.22L142.46 16.22L142.46 16.63Q142.46 18.46 141.79 19.85Q141.12 21.24 139.85 22.02Q138.58 22.80 136.80 22.80ZM136.80 21.10L136.80 21.10Q138.19 21.10 139.08 20.08Q139.97 19.06 139.97 17.23L139.97 17.23L139.97 15.62Q139.97 13.80 139.08 12.78Q138.19 11.76 136.80 11.76L136.80 11.76Q135.43 11.76 134.53 12.78Q133.63 13.80 133.63 15.62L133.63 15.62L133.63 17.23Q133.63 19.06 134.53 20.08Q135.43 21.10 136.80 21.10Z"/></svg>