<svg xmlns="http://www.w3.org/2000/svg" xmlns:xlink="http://www.w3.org/1999/xlink" width="241.00799999999998" height="32.232"><path fill="black" d="M16.44 9.50L8.28 19.66L7.15 18.12L13.56 9.50L16.44 9.50ZM7.51 25.30L5.04 25.30L6.58 18.17L9.07 18.17L7.51 25.30ZM8.50 18.12L6.74 19.56L2.95 9.50L5.88 9.50L8.50 18.12ZM17.76 25.54L17.76 25.54Q16.70 25.54 15.91 25.16Q15.12 24.79 14.66 24.38L14.66 24.38L16.10 22.92Q16.42 23.26 16.94 23.54Q17.47 23.83 18.10 23.83L18.10 23.83Q18.72 23.83 19.12 23.48Q19.51 23.14 19.61 22.68L19.61 22.68Q19.73 22.15 19.39 21.77Q19.06 21.38 18.50 21.01Q17.95 20.64 17.42 20.20Q16.90 19.75 16.63 19.12Q16.37 18.48 16.56 17.52L16.56 17.52Q16.80 16.32 17.81 15.65Q18.82 14.98 20.16 14.98L20.16 14.98Q21.02 14.98 21.70 15.22Q22.37 15.46 22.87 15.74L22.87 15.74L21.62 17.38Q21.34 17.02 20.88 16.81Q20.42 16.61 19.90 16.61L19.90 16.61Q19.30 16.61 18.91 16.91Q18.53 17.21 18.46 17.59L18.46 17.59Q18.36 18.07 18.71 18.44Q19.06 18.82 19.62 19.19Q20.18 19.56 20.71 20.02Q21.24 20.47 21.54 21.13Q21.84 21.79 21.62 22.75L21.62 22.75Q21.36 23.95 20.35 24.74Q19.34 25.54 17.76 25.54ZM26.16 25.49L26.16 25.49Q24.65 25.49 24.02 24.38Q23.40 23.28 23.71 21.72L23.71 21.72Q23.98 20.40 24.77 19.21Q25.56 18.02 26.77 17.11Q27.98 16.20 29.48 15.67Q30.98 15.14 32.66 15.14L32.66 15.14Q33.10 15.14 33.38 15.18Q33.67 15.22 33.94 15.26L33.94 15.26L32.35 22.63Q32.16 23.64 32.74 23.64L32.74 23.64Q33 23.64 33.35 23.44Q33.70 23.23 34.08 22.90L34.08 22.90L34.78 23.81Q33.91 24.65 33.20 25.04Q32.50 25.44 31.80 25.44L31.80 25.44Q31.27 25.44 30.89 25.22Q30.50 25.01 30.37 24.53Q30.24 24.05 30.41 23.26L30.41 23.26L31.25 19.46L32.40 18.65Q32.04 20.14 31.39 21.40Q30.74 22.66 29.89 23.58Q29.04 24.50 28.08 25.00Q27.12 25.49 26.16 25.49ZM27.02 23.64L27.02 23.64Q27.67 23.64 28.32 23.22Q28.97 22.80 29.54 22.09Q30.12 21.38 30.55 20.48Q30.98 19.58 31.20 18.62L31.20 18.62L31.70 16.15L32.83 17.04Q32.64 16.99 32.42 16.98Q32.21 16.97 31.99 16.97L31.99 16.97Q30.77 16.97 29.74 17.32Q28.70 17.66 27.92 18.29Q27.14 18.91 26.63 19.79Q26.11 20.66 25.92 21.72L25.92 21.72Q25.75 22.78 26.09 23.21Q26.42 23.64 27.02 23.64ZM39.60 25.58L39.60 25.58Q38.45 25.58 37.68 25.06Q36.91 24.53 36.62 23.65Q36.34 22.78 36.58 21.70L36.58 21.70L39.50 8.23L41.64 8.23L39.55 17.54Q40.18 16.80 40.92 16.25Q41.66 15.70 42.46 15.40Q43.25 15.10 43.99 15.10L43.99 15.10Q45.14 15.10 45.73 15.73Q46.32 16.37 46.43 17.40Q46.54 18.43 46.22 19.58L46.22 19.58Q45.82 21.31 44.81 22.66Q43.80 24 42.46 24.79Q41.11 25.58 39.60 25.58ZM38.78 20.98L38.69 21.38Q38.52 22.15 38.68 22.69Q38.83 23.23 39.25 23.52Q39.67 23.81 40.27 23.81L40.27 23.81Q41.06 23.81 41.76 23.36Q42.46 22.92 43.00 22.10Q43.54 21.29 43.82 20.21L43.82 20.21Q44.02 19.49 44.05 18.77Q44.09 18.05 43.82 17.56Q43.56 17.06 42.86 17.06L42.86 17.06Q42.34 17.06 41.69 17.38Q41.04 17.69 40.45 18.23Q39.86 18.77 39.41 19.48Q38.95 20.18 38.78 20.98L38.78 20.98ZM51.29 25.56L51.29 25.56Q49.99 25.56 49.12 24.96Q48.24 24.36 47.92 23.26Q47.59 22.15 47.90 20.69L47.90 20.69Q48.24 19.18 49.18 17.87Q50.11 16.56 51.44 15.77Q52.78 14.98 54.29 14.98L54.29 14.98Q55.30 14.98 55.86 15.34Q56.42 15.70 56.60 16.31Q56.78 16.92 56.62 17.62L56.62 17.62Q56.35 18.84 55.32 19.61Q54.29 20.38 52.80 20.81Q51.31 21.24 49.63 21.43L49.63 21.43L49.73 20.11Q51.07 19.90 52.12 19.55Q53.16 19.20 53.82 18.73Q54.48 18.26 54.60 17.74L54.60 17.74Q54.67 17.52 54.62 17.24Q54.58 16.97 54.32 16.75Q54.07 16.54 53.54 16.54L53.54 16.54Q52.66 16.54 51.97 17.12Q51.29 17.71 50.81 18.62Q50.33 19.54 50.11 20.54L50.11 20.54Q49.87 21.53 49.96 22.28Q50.04 23.04 50.50 23.45Q50.95 23.86 51.74 23.86L51.74 23.86Q52.32 23.86 53.05 23.60Q53.78 23.35 54.46 22.80L54.46 22.80L55.22 23.95Q54.67 24.46 54.02 24.82Q53.38 25.18 52.69 25.37Q52.01 25.56 51.29 25.56ZM60.00 25.49L60.00 25.49Q58.49 25.49 57.86 24.38Q57.24 23.28 57.55 21.72L57.55 21.72Q57.82 20.40 58.61 19.21Q59.40 18.02 60.61 17.11Q61.82 16.20 63.32 15.67Q64.82 15.14 66.50 15.14L66.50 15.14Q66.94 15.14 67.22 15.18Q67.51 15.22 67.78 15.26L67.78 15.26L66.19 22.63Q66.00 23.64 66.58 23.64L66.58 23.64Q66.84 23.64 67.19 23.44Q67.54 23.23 67.92 22.90L67.92 22.90L68.62 23.81Q67.75 24.65 67.04 25.04Q66.34 25.44 65.64 25.44L65.64 25.44Q65.11 25.44 64.73 25.22Q64.34 25.01 64.21 24.53Q64.08 24.05 64.25 23.26L64.25 23.26L65.09 19.46L66.24 18.65Q65.88 20.14 65.23 21.40Q64.58 22.66 63.73 23.58Q62.88 24.50 61.92 25.00Q60.96 25.49 60.00 25.49ZM60.86 23.64L60.86 23.64Q61.51 23.64 62.16 23.22Q62.81 22.80 63.38 22.09Q63.96 21.38 64.39 20.48Q64.82 19.58 65.04 18.62L65.04 18.62L65.54 16.15L66.67 17.04Q66.48 16.99 66.26 16.98Q66.05 16.97 65.83 16.97L65.83 16.97Q64.61 16.97 63.58 17.32Q62.54 17.66 61.76 18.29Q60.98 18.91 60.47 19.79Q59.95 20.66 59.76 21.72L59.76 21.72Q59.59 22.78 59.93 23.21Q60.26 23.64 60.86 23.64ZM72.65 25.49L72.65 25.49Q72.14 25.49 71.64 25.32Q71.14 25.15 70.79 24.73Q70.44 24.31 70.32 23.56Q70.20 22.80 70.46 21.65L70.46 21.65L71.86 15.26L73.99 15.26L72.62 21.41Q72.41 22.37 72.50 23.00Q72.60 23.64 73.32 23.64L73.32 23.64Q73.87 23.64 74.56 23.18Q75.24 22.73 75.94 21.74Q76.63 20.76 77.23 19.15Q77.83 17.54 78.22 15.26L78.22 15.26L79.44 15.26Q78.89 18.02 78.12 19.98Q77.35 21.94 76.45 23.15Q75.55 24.36 74.59 24.92Q73.63 25.49 72.65 25.49ZM77.95 25.44L77.95 25.44Q77.50 25.44 77.17 25.20Q76.85 24.96 76.72 24.48Q76.58 24 76.75 23.26L76.75 23.26L78.48 15.26L80.23 15.26L78.67 22.63Q78.58 23.09 78.64 23.34Q78.70 23.59 79.03 23.59L79.03 23.59Q79.30 23.59 79.58 23.42Q79.87 23.26 80.30 22.90L80.30 22.90L81 23.78Q80.21 24.62 79.43 25.03Q78.65 25.44 77.95 25.44ZM95.21 25.58L95.21 25.58Q93.19 25.58 91.82 24.84Q90.46 24.10 89.70 22.85Q88.94 21.60 88.75 20.05Q88.56 18.50 88.90 16.90L88.90 16.90Q89.21 15.43 89.94 14.06Q90.67 12.70 91.79 11.60Q92.90 10.51 94.42 9.86Q95.93 9.22 97.78 9.22L97.78 9.22Q99.82 9.22 101.18 9.97Q102.55 10.73 103.31 11.99Q104.06 13.25 104.26 14.80Q104.45 16.34 104.11 17.93L104.11 17.93Q103.80 19.39 103.06 20.77Q102.31 22.15 101.18 23.22Q100.06 24.29 98.56 24.94Q97.06 25.58 95.21 25.58ZM95.71 23.71L95.71 23.71Q96.89 23.71 97.84 23.26Q98.78 22.80 99.50 22.03Q100.22 21.26 100.70 20.29Q101.18 19.32 101.40 18.29L101.40 18.29Q101.69 17.02 101.59 15.74Q101.50 14.47 101.00 13.42Q100.51 12.36 99.60 11.72Q98.69 11.09 97.30 11.09L97.30 11.09Q96.10 11.09 95.16 11.54Q94.22 12.00 93.50 12.77Q92.78 13.54 92.30 14.51Q91.82 15.48 91.61 16.51L91.61 16.51Q91.34 17.78 91.43 19.06Q91.51 20.33 92.00 21.38Q92.50 22.44 93.42 23.08Q94.34 23.71 95.71 23.71ZM103.49 32.23L103.49 32.23Q102.84 32.23 102.37 32.02Q101.90 31.80 101.64 31.46L101.64 31.46L102.96 29.78Q103.15 30.07 103.44 30.23Q103.73 30.38 104.11 30.38L104.11 30.38Q104.45 30.38 104.77 30.19Q105.10 30 105.40 29.38Q105.70 28.75 105.94 27.43L105.94 27.43L108.07 15.43Q108.48 13.18 109.18 11.76Q109.87 10.34 110.71 9.58Q111.55 8.81 112.45 8.52Q113.35 8.23 114.14 8.23L114.14 8.23Q114.91 8.23 115.48 8.45Q116.04 8.66 116.38 9.14L116.38 9.14L114.96 10.85Q114.65 10.46 114.28 10.27Q113.90 10.08 113.38 10.08L113.38 10.08Q112.68 10.08 112.12 10.46Q111.55 10.85 111.12 11.86Q110.69 12.86 110.33 14.83L110.33 14.83L108.14 26.83Q107.86 28.58 107.28 29.65Q106.70 30.72 106.02 31.28Q105.34 31.85 104.68 32.04Q104.02 32.23 103.49 32.23ZM113.45 17.11L105.84 16.87L106.15 15.50L113.86 15.36L113.45 17.11ZM111.46 32.23L111.46 32.23Q110.81 32.23 110.34 32.02Q109.87 31.80 109.61 31.46L109.61 31.46L110.93 29.78Q111.12 30.07 111.41 30.23Q111.70 30.38 112.08 30.38L112.08 30.38Q112.42 30.38 112.74 30.19Q113.06 30 113.36 29.38Q113.66 28.75 113.90 27.43L113.90 27.43L116.04 15.43Q116.45 13.18 117.14 11.76Q117.84 10.34 118.68 9.58Q119.52 8.81 120.42 8.52Q121.32 8.23 122.11 8.23L122.11 8.23Q122.88 8.23 123.44 8.45Q124.01 8.66 124.34 9.14L124.34 9.14L122.93 10.85Q122.62 10.46 122.24 10.27Q121.87 10.08 121.34 10.08L121.34 10.08Q120.65 10.08 120.08 10.46Q119.52 10.85 119.09 11.86Q118.66 12.86 118.30 14.83L118.30 14.83L116.11 26.83Q115.82 28.58 115.25 29.65Q114.67 30.72 113.99 31.28Q113.30 31.85 112.64 32.04Q111.98 32.23 111.46 32.23ZM121.42 17.11L113.81 16.87L114.12 15.50L121.82 15.36L121.42 17.11ZM123.46 25.44L123.46 25.44Q122.90 25.44 122.51 25.21Q122.11 24.98 121.97 24.49Q121.82 24 122.02 23.21L122.02 23.21L123.86 15.26L125.95 15.26L124.25 22.63Q124.15 23.06 124.21 23.33Q124.27 23.59 124.61 23.59L124.61 23.59Q124.87 23.59 125.16 23.42Q125.45 23.26 125.88 22.90L125.88 22.90L126.60 23.78Q125.78 24.60 124.99 25.02Q124.20 25.44 123.46 25.44ZM125.52 12.82L125.52 12.82Q125.04 12.82 124.72 12.60Q124.39 12.38 124.26 12.00Q124.13 11.62 124.22 11.16L124.22 11.16Q124.34 10.58 124.78 10.20Q125.21 9.82 125.83 9.82L125.83 9.82Q126.31 9.82 126.64 10.04Q126.96 10.27 127.09 10.66Q127.22 11.04 127.13 11.52L127.13 11.52Q127.01 12.12 126.58 12.47Q126.14 12.82 125.52 12.82ZM131.47 25.56L131.47 25.56Q130.20 25.56 129.34 24.95Q128.47 24.34 128.15 23.24Q127.82 22.15 128.11 20.69L128.11 20.69Q128.42 19.15 129.31 17.86Q130.20 16.56 131.46 15.77Q132.72 14.98 134.18 14.98L134.18 14.98Q134.98 14.98 135.60 15.24Q136.22 15.50 136.61 16.08L136.61 16.08L135.10 17.52Q134.78 17.11 134.40 16.94Q134.02 16.78 133.56 16.78L133.56 16.78Q132.72 16.78 132.07 17.32Q131.42 17.86 130.99 18.72Q130.56 19.58 130.37 20.54L130.37 20.54Q130.06 22.10 130.49 22.98Q130.92 23.86 131.95 23.86L131.95 23.86Q132.65 23.86 133.30 23.58Q133.94 23.30 134.38 22.90L134.38 22.90L135.22 23.98Q134.47 24.67 133.50 25.12Q132.53 25.56 131.47 25.56ZM140.40 25.56L140.40 25.56Q139.10 25.56 138.23 24.96Q137.35 24.36 137.03 23.26Q136.70 22.15 137.02 20.69L137.02 20.69Q137.35 19.18 138.29 17.87Q139.22 16.56 140.56 15.77Q141.89 14.98 143.40 14.98L143.40 14.98Q144.41 14.98 144.97 15.34Q145.54 15.70 145.72 16.31Q145.90 16.92 145.73 17.62L145.73 17.62Q145.46 18.84 144.43 19.61Q143.40 20.38 141.91 20.81Q140.42 21.24 138.74 21.43L138.74 21.43L138.84 20.11Q140.18 19.90 141.23 19.55Q142.27 19.20 142.93 18.73Q143.59 18.26 143.71 17.74L143.71 17.74Q143.78 17.52 143.74 17.24Q143.69 16.97 143.44 16.75Q143.18 16.54 142.66 16.54L142.66 16.54Q141.77 16.54 141.08 17.12Q140.40 17.71 139.92 18.62Q139.44 19.54 139.22 20.54L139.22 20.54Q138.98 21.53 139.07 22.28Q139.15 23.04 139.61 23.45Q140.06 23.86 140.86 23.86L140.86 23.86Q141.43 23.86 142.16 23.60Q142.90 23.35 143.57 22.80L143.57 22.80L144.34 23.95Q143.78 24.46 143.14 24.82Q142.49 25.18 141.80 25.37Q141.12 25.56 140.40 25.56ZM159.31 16.18L159.31 16.18Q160.90 16.18 161.74 16.86Q162.58 17.54 162.82 18.62Q163.06 19.70 162.82 20.90L162.82 20.90Q162.53 22.27 161.75 23.33Q160.97 24.38 159.78 24.98Q158.59 25.58 157.06 25.58L157.06 25.58Q155.33 25.58 154.24 24.84Q153.14 24.10 152.77 22.69Q152.40 21.29 152.78 19.37L152.78 19.37Q153.10 17.81 153.79 16.39Q154.49 14.98 155.52 13.76Q156.55 12.55 157.82 11.62Q159.10 10.68 160.56 10.06Q162.02 9.43 163.61 9.22L163.61 9.22L163.94 11.09Q162.38 11.30 160.91 12.05Q159.43 12.79 158.22 13.93Q157.01 15.07 156.17 16.50Q155.33 17.93 155.04 19.51L155.04 19.51Q154.80 20.69 154.99 21.66Q155.18 22.63 155.82 23.20Q156.46 23.76 157.54 23.76L157.54 23.76Q158.71 23.76 159.50 23.04Q160.30 22.32 160.51 20.95L160.51 20.95Q160.63 20.16 160.46 19.46Q160.30 18.77 159.74 18.35Q159.19 17.93 158.16 17.93L158.16 17.93Q157.15 17.93 156.08 18.37Q155.02 18.82 154.20 19.66L154.20 19.66L153.86 18.91Q154.94 17.74 156.31 16.96Q157.68 16.18 159.31 16.18ZM168.74 25.58L168.74 25.58Q167.18 25.58 166.24 24.55Q165.29 23.52 165.05 21.67Q164.81 19.82 165.34 17.35L165.34 17.35Q165.86 14.90 166.90 13.08Q167.93 11.26 169.33 10.24Q170.74 9.22 172.32 9.22L172.32 9.22Q173.90 9.22 174.85 10.25Q175.80 11.28 176.04 13.13Q176.28 14.98 175.75 17.42L175.75 17.42Q175.22 19.87 174.17 21.72Q173.11 23.57 171.73 24.58Q170.35 25.58 168.74 25.58ZM169.34 23.57L169.34 23.57Q170.18 23.57 170.93 22.79Q171.67 22.01 172.26 20.65Q172.85 19.30 173.23 17.50L173.23 17.50Q173.66 15.58 173.59 14.17Q173.52 12.77 173.05 12.00Q172.58 11.23 171.72 11.23L171.72 11.23Q170.90 11.23 170.16 11.99Q169.42 12.74 168.83 14.11Q168.24 15.48 167.86 17.28L167.86 17.28Q167.45 19.20 167.51 20.62Q167.57 22.03 168.05 22.80Q168.53 23.57 169.34 23.57ZM181.15 25.58L181.15 25.58Q179.59 25.58 178.64 24.55Q177.70 23.52 177.46 21.67Q177.22 19.82 177.74 17.35L177.74 17.35Q178.27 14.90 179.30 13.08Q180.34 11.26 181.74 10.24Q183.14 9.22 184.73 9.22L184.73 9.22Q186.31 9.22 187.26 10.25Q188.21 11.28 188.45 13.13Q188.69 14.98 188.16 17.42L188.16 17.42Q187.63 19.87 186.58 21.72Q185.52 23.57 184.14 24.58Q182.76 25.58 181.15 25.58ZM181.75 23.57L181.75 23.57Q182.59 23.57 183.34 22.79Q184.08 22.01 184.67 20.65Q185.26 19.30 185.64 17.50L185.64 17.50Q186.07 15.58 186 14.17Q185.93 12.77 185.46 12.00Q184.99 11.23 184.13 11.23L184.13 11.23Q183.31 11.23 182.57 11.99Q181.82 12.74 181.24 14.11Q180.65 15.48 180.26 17.28L180.26 17.28Q179.86 19.20 179.92 20.62Q179.98 22.03 180.46 22.80Q180.94 23.57 181.75 23.57ZM196.44 25.44L196.44 25.44Q195.89 25.44 195.49 25.21Q195.10 24.98 194.95 24.49Q194.81 24 195.00 23.21L195.00 23.21L196.85 15.26L198.94 15.26L197.23 22.63Q197.14 23.06 197.20 23.33Q197.26 23.59 197.59 23.59L197.59 23.59Q197.86 23.59 198.14 23.42Q198.43 23.26 198.86 22.90L198.86 22.90L199.58 23.78Q198.77 24.60 197.98 25.02Q197.18 25.44 196.44 25.44ZM198.50 12.82L198.50 12.82Q198.02 12.82 197.70 12.60Q197.38 12.38 197.24 12.00Q197.11 11.62 197.21 11.16L197.21 11.16Q197.33 10.58 197.76 10.20Q198.19 9.82 198.82 9.82L198.82 9.82Q199.30 9.82 199.62 10.04Q199.94 10.27 200.08 10.66Q200.21 11.04 200.11 11.52L200.11 11.52Q199.99 12.12 199.56 12.47Q199.13 12.82 198.50 12.82ZM203.95 25.51L203.95 25.51Q202.80 25.51 202.18 24.65Q201.55 23.78 201.91 22.22L201.91 22.22L203.38 16.10L204.34 13.20L206.23 12.82L204.10 21.98Q203.88 22.90 204.07 23.32Q204.26 23.74 204.74 23.74L204.74 23.74Q205.13 23.74 205.67 23.47Q206.21 23.21 206.83 22.75L206.83 22.75L207.60 23.64Q206.69 24.58 205.74 25.04Q204.79 25.51 203.95 25.51ZM208.49 16.99L201.36 16.87L201.70 15.50L208.87 15.36L208.49 16.99ZM211.73 25.49L211.73 25.49Q210.22 25.49 209.59 24.38Q208.97 23.28 209.28 21.72L209.28 21.72Q209.54 20.40 210.34 19.21Q211.13 18.02 212.34 17.11Q213.55 16.20 215.05 15.67Q216.55 15.14 218.23 15.14L218.23 15.14Q218.66 15.14 218.95 15.18Q219.24 15.22 219.50 15.26L219.50 15.26L217.92 22.63Q217.73 23.64 218.30 23.64L218.30 23.64Q218.57 23.64 218.92 23.44Q219.26 23.23 219.65 22.90L219.65 22.90L220.34 23.81Q219.48 24.65 218.77 25.04Q218.06 25.44 217.37 25.44L217.37 25.44Q216.84 25.44 216.46 25.22Q216.07 25.01 215.94 24.53Q215.81 24.05 215.98 23.26L215.98 23.26L216.82 19.46L217.97 18.65Q217.61 20.14 216.96 21.40Q216.31 22.66 215.46 23.58Q214.61 24.50 213.65 25.00Q212.69 25.49 211.73 25.49ZM212.59 23.64L212.59 23.64Q213.24 23.64 213.89 23.22Q214.54 22.80 215.11 22.09Q215.69 21.38 216.12 20.48Q216.55 19.58 216.77 18.62L216.77 18.62L217.27 16.15L218.40 17.04Q218.21 16.99 217.99 16.98Q217.78 16.97 217.56 16.97L217.56 16.97Q216.34 16.97 215.30 17.32Q214.27 17.66 213.49 18.29Q212.71 18.91 212.20 19.79Q211.68 20.66 211.49 21.72L211.49 21.72Q211.32 22.78 211.66 23.21Q211.99 23.64 212.59 23.64ZM223.51 25.44L223.51 25.44Q222.96 25.44 222.56 25.22Q222.17 25.01 222.04 24.52Q221.90 24.02 222.07 23.26L222.07 23.26L225.36 8.23L227.47 8.23L224.30 22.63Q224.21 23.06 224.27 23.33Q224.33 23.59 224.66 23.59L224.66 23.59Q224.93 23.59 225.22 23.42Q225.50 23.26 225.94 22.90L225.94 22.90L226.66 23.78Q225.84 24.60 225.05 25.02Q224.26 25.44 223.51 25.44ZM229.90 25.44L229.90 25.44Q229.34 25.44 228.95 25.21Q228.55 24.98 228.41 24.49Q228.26 24 228.46 23.21L228.46 23.21L230.30 15.26L232.39 15.26L230.69 22.63Q230.59 23.06 230.65 23.33Q230.71 23.59 231.05 23.59L231.05 23.59Q231.31 23.59 231.60 23.42Q231.89 23.26 232.32 22.90L232.32 22.90L233.04 23.78Q232.22 24.60 231.43 25.02Q230.64 25.44 229.90 25.44ZM231.96 12.82L231.96 12.82Q231.48 12.82 231.16 12.60Q230.83 12.38 230.70 12.00Q230.57 11.62 230.66 11.16L230.66 11.16Q230.78 10.58 231.22 10.20Q231.65 9.82 232.27 9.82L232.27 9.82Q232.75 9.82 233.08 10.04Q233.40 10.27 233.53 10.66Q233.66 11.04 233.57 11.52L233.57 11.52Q233.45 12.12 233.02 12.47Q232.58 12.82 231.96 12.82ZM237.91 25.56L237.91 25.56Q236.64 25.56 235.78 24.95Q234.91 24.34 234.59 23.24Q234.26 22.15 234.55 20.69L234.55 20.69Q234.86 19.15 235.75 17.86Q236.64 16.56 237.90 15.77Q239.16 14.98 240.62 14.98L240.62 14.98Q241.42 14.98 242.04 15.24Q242.66 15.50 243.05 16.08L243.05 16.08L241.54 17.52Q241.22 17.11 240.84 16.94Q240.46 16.78 240 16.78L240 16.78Q239.16 16.78 238.51 17.32Q237.86 17.86 237.43 18.72Q237 19.58 236.81 20.54L236.81 20.54Q236.50 22.10 236.93 22.98Q237.36 23.86 238.39 23.86L238.39 23.86Q239.09 23.86 239.74 23.58Q240.38 23.30 240.82 22.90L240.82 22.90L241.66 23.98Q240.91 24.67 239.94 25.12Q238.97 25.56 237.91 25.56Z"/></svg>