<svg xmlns="http://www.w3.org/2000/svg" xmlns:xlink="http://www.w3.org/1999/xlink" width="202.704" height="31.2"><path fill="black" d="M1.85 26.52L1.85 11.30Q1.85 10.99 1.75 10.81Q1.66 10.63 1.49 10.44Q1.32 10.25 1.32 10.10L1.32 10.10Q1.32 9.86 1.57 9.58Q1.82 9.29 2.16 9.29L2.16 9.29Q2.50 9.29 2.76 9.70L2.76 9.70L11.59 24.02L11.59 9.72L12.89 9.72L12.89 26.52L11.74 26.52L3.14 12.62L3.14 26.52L1.85 26.52ZM17.76 11.54Q17.35 11.54 17.04 11.23Q16.73 10.92 16.73 10.51L16.73 10.51Q16.73 10.10 17.04 9.79Q17.35 9.48 17.76 9.48L17.76 9.48Q18.17 9.48 18.48 9.79Q18.79 10.10 18.79 10.51L18.79 10.51Q18.79 10.92 18.48 11.23Q18.17 11.54 17.76 11.54L17.76 11.54ZM17.11 26.52L17.11 14.88L18.36 14.88L18.36 26.52L17.11 26.52ZM22.56 26.52L22.56 17.59Q22.56 15.89 22.03 15.10L22.03 15.10L23.16 14.64Q23.59 15.41 23.76 16.87L23.76 16.87Q24.31 15.77 25.12 15.20Q25.92 14.64 27.10 14.64L27.10 14.64Q27.58 14.64 27.95 14.74Q28.32 14.83 28.82 15.07L28.82 15.07L28.27 16.06Q27.74 15.77 26.98 15.77L26.98 15.77Q25.97 15.77 25.26 16.36Q24.55 16.94 24.18 17.92Q23.81 18.89 23.81 19.97L23.81 19.97L23.81 26.52L22.56 26.52ZM34.46 26.76Q32.81 26.76 31.68 25.93Q30.55 25.10 29.99 23.74Q29.42 22.37 29.42 20.74L29.42 20.74Q29.42 19.10 29.99 17.71Q30.55 16.32 31.68 15.48Q32.81 14.64 34.46 14.64L34.46 14.64Q35.90 14.64 36.85 15.23Q37.80 15.82 38.42 16.87L38.42 16.87L38.42 14.88L39.67 14.88L39.67 23.69Q39.67 25.44 40.20 26.30L40.20 26.30L39.14 26.76Q38.66 26.06 38.57 24.60L38.57 24.60L38.50 24.58Q36.98 26.76 34.46 26.76L34.46 26.76ZM34.46 25.63Q36.36 25.63 37.42 24.42Q38.47 23.21 38.47 21.41L38.47 21.41L38.47 20.02Q38.47 19.03 38.03 18.05Q37.58 17.06 36.67 16.42Q35.76 15.77 34.46 15.77L34.46 15.77Q32.66 15.77 31.69 17.18Q30.72 18.60 30.72 20.74L30.72 20.74Q30.72 22.87 31.68 24.25Q32.64 25.63 34.46 25.63L34.46 25.63ZM58.01 26.76Q57.43 25.61 57.43 24.31L57.43 24.31L57.43 19.10Q57.43 17.35 56.90 16.56Q56.38 15.77 54.86 15.77L54.86 15.77Q53.35 15.77 52.55 16.80Q51.74 17.83 51.74 19.37L51.74 19.37L51.74 26.52L50.52 26.52L50.52 19.10Q50.52 17.62 49.86 16.69Q49.20 15.77 47.88 15.77L47.88 15.77Q46.85 15.77 46.12 16.36Q45.38 16.94 45 17.89Q44.62 18.84 44.62 19.94L44.62 19.94L44.62 26.52L43.37 26.52L43.37 17.57Q43.37 16.63 43.24 16.07Q43.10 15.50 42.84 15.10L42.84 15.10L44.06 14.64Q44.09 14.71 44.24 14.98Q44.40 15.24 44.52 15.70Q44.64 16.15 44.66 16.73L44.66 16.73Q45.14 15.77 46.04 15.20Q46.94 14.64 48 14.64L48 14.64Q49.20 14.64 50.02 15.28Q50.83 15.91 51.22 17.11L51.22 17.11Q51.65 15.98 52.64 15.31Q53.64 14.64 54.86 14.64L54.86 14.64Q58.68 14.64 58.68 18.98L58.68 18.98L58.68 24.31Q58.68 24.86 58.81 25.40Q58.94 25.94 59.14 26.30L59.14 26.30L58.01 26.76ZM63.41 11.54Q63 11.54 62.69 11.23Q62.38 10.92 62.38 10.51L62.38 10.51Q62.38 10.10 62.69 9.79Q63 9.48 63.41 9.48L63.41 9.48Q63.82 9.48 64.13 9.79Q64.44 10.10 64.44 10.51L64.44 10.51Q64.44 10.92 64.13 11.23Q63.82 11.54 63.41 11.54L63.41 11.54ZM62.76 26.52L62.76 14.88L64.01 14.88L64.01 26.52L62.76 26.52ZM72.02 26.76Q70.66 26.76 70.03 26.02Q69.41 25.27 69.41 23.86L69.41 23.86L69.41 15.98L67.44 15.98L67.73 14.88L69.43 14.88L69.43 11.59L70.63 11.04L70.63 14.88L73.54 14.88L73.27 15.98L70.66 15.98L70.66 23.83Q70.66 24.89 70.97 25.28Q71.28 25.68 72.14 25.68L72.14 25.68Q73.03 25.68 73.66 25.37L73.66 25.37L73.99 26.35Q73.63 26.52 73.07 26.64Q72.50 26.76 72.02 26.76L72.02 26.76ZM83.30 26.52Q82.87 26.52 82.73 26.46Q82.58 26.40 82.58 26.18L82.58 26.18Q82.58 26.04 82.61 25.94L82.61 25.94Q82.68 25.58 82.82 25.50Q82.97 25.42 83.45 25.42L83.45 25.42Q83.95 24.38 84.90 23.47Q85.85 22.56 87.48 21.24L87.48 21.24Q89.09 19.94 90.04 19.03Q90.98 18.12 91.64 16.99Q92.30 15.86 92.30 14.57L92.30 14.57Q92.30 12.70 91.34 11.68Q90.38 10.66 88.49 10.66L88.49 10.66Q86.42 10.66 85.40 11.81Q84.38 12.96 84.14 15.07L84.14 15.07L82.90 14.95Q83.14 12.26 84.65 10.87Q86.16 9.48 88.51 9.48L88.51 9.48Q90.86 9.48 92.26 10.84Q93.65 12.19 93.65 14.57L93.65 14.57Q93.65 16.03 92.94 17.30Q92.23 18.58 91.21 19.57Q90.19 20.57 88.54 21.96L88.54 21.96Q87.07 23.18 86.32 23.92Q85.56 24.65 85.08 25.42L85.08 25.42L92.33 25.42L92.93 24.12L94.08 24.50L93.12 26.52L83.30 26.52ZM102.65 26.76Q100.80 26.76 99.43 25.73Q98.06 24.70 97.33 22.74Q96.60 20.78 96.60 18.07L96.60 18.07Q96.60 15.38 97.33 13.45Q98.06 11.52 99.43 10.50Q100.80 9.48 102.65 9.48L102.65 9.48Q104.50 9.48 105.86 10.50Q107.23 11.52 107.96 13.45Q108.70 15.38 108.70 18.07L108.70 18.07Q108.70 20.78 107.96 22.74Q107.23 24.70 105.86 25.73Q104.50 26.76 102.65 26.76L102.65 26.76ZM102.65 25.58Q104.09 25.58 105.14 24.70Q106.20 23.81 106.78 22.12Q107.35 20.42 107.35 18.07L107.35 18.07Q107.35 15.74 106.78 14.08Q106.20 12.41 105.13 11.53Q104.06 10.66 102.65 10.66L102.65 10.66Q101.23 10.66 100.16 11.53Q99.10 12.41 98.52 14.08Q97.94 15.74 97.94 18.07L97.94 18.07Q97.94 20.42 98.52 22.12Q99.10 23.81 100.15 24.70Q101.21 25.58 102.65 25.58L102.65 25.58ZM117.14 26.76Q115.30 26.76 113.93 25.73Q112.56 24.70 111.83 22.74Q111.10 20.78 111.10 18.07L111.10 18.07Q111.10 15.38 111.83 13.45Q112.56 11.52 113.93 10.50Q115.30 9.48 117.14 9.48L117.14 9.48Q118.99 9.48 120.36 10.50Q121.73 11.52 122.46 13.45Q123.19 15.38 123.19 18.07L123.19 18.07Q123.19 20.78 122.46 22.74Q121.73 24.70 120.36 25.73Q118.99 26.76 117.14 26.76L117.14 26.76ZM117.14 25.58Q118.58 25.58 119.64 24.70Q120.70 23.81 121.27 22.12Q121.85 20.42 121.85 18.07L121.85 18.07Q121.85 15.74 121.27 14.08Q120.70 12.41 119.63 11.53Q118.56 10.66 117.14 10.66L117.14 10.66Q115.73 10.66 114.66 11.53Q113.59 12.41 113.02 14.08Q112.44 15.74 112.44 18.07L112.44 18.07Q112.44 20.42 113.02 22.12Q113.59 23.81 114.65 24.70Q115.70 25.58 117.14 25.58L117.14 25.58ZM140.86 26.76Q140.28 25.61 140.28 24.31L140.28 24.31L140.28 19.15Q140.28 17.42 139.60 16.60Q138.91 15.77 137.35 15.77L137.35 15.77Q136.27 15.77 135.43 16.37Q134.59 16.97 134.14 17.93Q133.68 18.89 133.68 19.97L133.68 19.97L133.68 26.52L132.43 26.52L132.43 17.59Q132.43 15.89 131.90 15.10L131.90 15.10L133.03 14.64Q133.46 15.41 133.63 16.87L133.63 16.87Q134.26 15.79 135.29 15.22Q136.32 14.64 137.54 14.64L137.54 14.64Q139.49 14.64 140.51 15.80Q141.53 16.97 141.53 19.18L141.53 19.18L141.53 24.31Q141.53 24.86 141.66 25.40Q141.79 25.94 141.98 26.30L141.98 26.30L140.86 26.76ZM149.81 26.74Q148.06 26.74 146.89 25.91Q145.73 25.08 145.18 23.71Q144.62 22.34 144.62 20.69L144.62 20.69Q144.62 19.03 145.18 17.66Q145.73 16.30 146.89 15.47Q148.06 14.64 149.81 14.64L149.81 14.64Q151.56 14.64 152.72 15.47Q153.89 16.30 154.44 17.66Q154.99 19.03 154.99 20.69L154.99 20.69Q154.99 22.34 154.44 23.71Q153.89 25.08 152.72 25.91Q151.56 26.74 149.81 26.74L149.81 26.74ZM149.81 25.61Q151.68 25.61 152.69 24.25Q153.70 22.90 153.70 20.69L153.70 20.69Q153.70 18.48 152.69 17.12Q151.68 15.77 149.81 15.77L149.81 15.77Q147.94 15.77 146.93 17.12Q145.92 18.48 145.92 20.69L145.92 20.69Q145.92 22.90 146.93 24.25Q147.94 25.61 149.81 25.61L149.81 25.61ZM158.16 26.52L158.16 17.59Q158.16 15.89 157.63 15.10L157.63 15.10L158.76 14.64Q159.19 15.41 159.36 16.87L159.36 16.87Q159.91 15.77 160.72 15.20Q161.52 14.64 162.70 14.64L162.70 14.64Q163.18 14.64 163.55 14.74Q163.92 14.83 164.42 15.07L164.42 15.07L163.87 16.06Q163.34 15.77 162.58 15.77L162.58 15.77Q161.57 15.77 160.86 16.36Q160.15 16.94 159.78 17.92Q159.41 18.89 159.41 19.97L159.41 19.97L159.41 26.52L158.16 26.52ZM181.75 26.76Q181.18 25.61 181.18 24.31L181.18 24.31L181.18 19.10Q181.18 17.35 180.65 16.56Q180.12 15.77 178.61 15.77L178.61 15.77Q177.10 15.77 176.29 16.80Q175.49 17.83 175.49 19.37L175.49 19.37L175.49 26.52L174.26 26.52L174.26 19.10Q174.26 17.62 173.60 16.69Q172.94 15.77 171.62 15.77L171.62 15.77Q170.59 15.77 169.86 16.36Q169.13 16.94 168.74 17.89Q168.36 18.84 168.36 19.94L168.36 19.94L168.36 26.52L167.11 26.52L167.11 17.57Q167.11 16.63 166.98 16.07Q166.85 15.50 166.58 15.10L166.58 15.10L167.81 14.64Q167.83 14.71 167.99 14.98Q168.14 15.24 168.26 15.70Q168.38 16.15 168.41 16.73L168.41 16.73Q168.89 15.77 169.79 15.20Q170.69 14.64 171.74 14.64L171.74 14.64Q172.94 14.64 173.76 15.28Q174.58 15.91 174.96 17.11L174.96 17.11Q175.39 15.98 176.39 15.31Q177.38 14.64 178.61 14.64L178.61 14.64Q182.42 14.64 182.42 18.98L182.42 18.98L182.42 24.31Q182.42 24.86 182.56 25.40Q182.69 25.94 182.88 26.30L182.88 26.30L181.75 26.76ZM190.56 26.76Q188.90 26.76 187.78 25.93Q186.65 25.10 186.08 23.74Q185.52 22.37 185.52 20.74L185.52 20.74Q185.52 19.10 186.08 17.71Q186.65 16.32 187.78 15.48Q188.90 14.64 190.56 14.64L190.56 14.64Q192.00 14.64 192.95 15.23Q193.90 15.82 194.52 16.87L194.52 16.87L194.52 14.88L195.77 14.88L195.77 23.69Q195.77 25.44 196.30 26.30L196.30 26.30L195.24 26.76Q194.76 26.06 194.66 24.60L194.66 24.60L194.59 24.58Q193.08 26.76 190.56 26.76L190.56 26.76ZM190.56 25.63Q192.46 25.63 193.51 24.42Q194.57 23.21 194.57 21.41L194.57 21.41L194.57 20.02Q194.57 19.03 194.12 18.05Q193.68 17.06 192.77 16.42Q191.86 15.77 190.56 15.77L190.56 15.77Q188.76 15.77 187.79 17.18Q186.82 18.60 186.82 20.74L186.82 20.74Q186.82 22.87 187.78 24.25Q188.74 25.63 190.56 25.63L190.56 25.63ZM199.54 26.52L199.54 8.90L200.78 8.90L200.78 26.52L199.54 26.52Z"/></svg>